<?xml version="1.0" encoding="UTF-8"?>
<svg id="Layer_1" data-name="Layer 1" xmlns="http://www.w3.org/2000/svg" viewBox="0 0 612 792">
  <defs>
    <style>
      .cls-1, .cls-2, .cls-3, .cls-4, .cls-5, .cls-6, .cls-7, .cls-8, .cls-9, .cls-10, .cls-11 {
        font-style: italic;
      }

      .cls-1, .cls-2, .cls-3, .cls-4, .cls-5, .cls-7, .cls-8, .cls-9, .cls-10, .cls-11 {
        font-family: Cambria-Italic, Cambria;
      }

      .cls-1, .cls-12 {
        letter-spacing: -.01em;
      }

      .cls-13 {
        letter-spacing: -.02em;
      }

      .cls-14 {
        letter-spacing: -.04em;
      }

      .cls-15 {
        font-size: 16px;
      }

      .cls-15, .cls-6, .cls-16 {
        fill: #231f20;
      }

      .cls-2, .cls-17 {
        letter-spacing: -.01em;
      }

      .cls-3 {
        letter-spacing: -.07em;
      }

      .cls-18 {
        letter-spacing: 0em;
      }

      .cls-5 {
        letter-spacing: 0em;
      }

      .cls-6 {
        font-family: Cambria-BoldItalic, Cambria;
        font-weight: 700;
      }

      .cls-6, .cls-16 {
        font-size: 35px;
      }

      .cls-7, .cls-19 {
        letter-spacing: 0em;
      }

      .cls-8, .cls-20 {
        letter-spacing: 0em;
      }

      .cls-9 {
        letter-spacing: -.06em;
      }

      .cls-21 {
        letter-spacing: -.02em;
      }

      .cls-10 {
        letter-spacing: 0em;
      }

      .cls-11 {
        letter-spacing: -.05em;
      }

      .cls-16 {
        font-family: MonotypeCorsiva, 'Monotype Corsiva';
      }

      .cls-22 {
        letter-spacing: -.01em;
      }

      .cls-23 {
        font-family: Cambria, Cambria;
      }
    </style>
  </defs>
  <text class="cls-15" transform="translate(37.24 320.22)"><tspan class="cls-23"><tspan class="cls-14" x="0" y="0">F</tspan><tspan x="7.96" y="0">or establishing </tspan><tspan class="cls-17" x="112.55" y="0">f</tspan><tspan x="117.2" y="0">oundational f</tspan><tspan class="cls-13" x="207.95" y="0">r</tspan><tspan x="214.3" y="0">ame</tspan><tspan class="cls-22" x="243.23" y="0">w</tspan><tspan x="255.41" y="0">o</tspan><tspan class="cls-19" x="263.91" y="0">r</tspan><tspan x="270.45" y="0">k </tspan><tspan class="cls-21" x="282.36" y="0">y</tspan><tspan x="290.11" y="0">ears be</tspan><tspan class="cls-17" x="339.3" y="0">f</tspan><tspan x="343.95" y="0">o</tspan><tspan class="cls-12" x="352.45" y="0">r</tspan><tspan x="358.83" y="0">e </tspan><tspan class="cls-21" x="370.16" y="0">m</tspan><tspan x="383.16" y="0">y fl</tspan><tspan class="cls-19" x="403.93" y="0">o</tspan><tspan x="412.34" y="0">w journ</tspan><tspan class="cls-20" x="465.39" y="0">e</tspan><tspan x="473.04" y="0">y star</tspan><tspan class="cls-18" x="511.34" y="0">t</tspan><tspan x="516.62" y="0">ed:</tspan></tspan><tspan class="cls-4"><tspan x="213.23" y="19.2">The </tspan><tspan class="cls-14" x="241.73" y="19.2">V</tspan><tspan x="250.31" y="19.2">ul</tspan><tspan class="cls-19" x="263.14" y="19.2">c</tspan><tspan x="269.99" y="19.2">an </tspan><tspan class="cls-20" x="290.49" y="19.2">Cr</tspan><tspan x="305.33" y="19.2">ew</tspan></tspan><tspan class="cls-23"><tspan class="cls-14" x="64.89" y="57.6">F</tspan><tspan x="72.85" y="57.6">or helpful influence on The Alphabet’s initial d</tspan><tspan class="cls-20" x="388.01" y="57.6">e</tspan><tspan class="cls-21" x="395.66" y="57.6">v</tspan><tspan x="403.41" y="57.6">elopment:</tspan></tspan><tspan class="cls-23" x="54.54" y="76.8" xml:space="preserve">      </tspan><tspan class="cls-4" x="75.68" y="76.8">Doc </tspan><tspan class="cls-11" x="104.59" y="76.8">W</tspan><tspan class="cls-4" x="118.07" y="76.8">omp, </tspan><tspan class="cls-1" x="154.11" y="76.8">P</tspan><tspan class="cls-4" x="162.75" y="76.8">au</tspan><tspan class="cls-7" x="179.73" y="76.8">l</tspan><tspan class="cls-4" x="183.92" y="76.8">y </tspan><tspan class="cls-3" x="194.8" y="76.8">T</tspan><tspan class="cls-4" x="202.89" y="76.8">arri</tspan><tspan class="cls-7" x="228.68" y="76.8">c</tspan><tspan class="cls-4" x="235.53" y="76.8">one, </tspan><tspan class="cls-3" x="266.22" y="76.8">T</tspan><tspan class="cls-4" x="274.32" y="76.8">a</tspan><tspan class="cls-2" x="282.73" y="76.8">k</tspan><tspan class="cls-4" x="290.49" y="76.8">umi Oh</tspan><tspan class="cls-2" x="338.12" y="76.8">k</tspan><tspan class="cls-4" x="345.88" y="76.8">u</tspan><tspan class="cls-8" x="354.44" y="76.8">r</tspan><tspan class="cls-4" x="360.8" y="76.8">a, Christina </tspan><tspan class="cls-9" x="440.36" y="76.8">V</tspan><tspan class="cls-4" x="448.58" y="76.8">ald</tspan><tspan class="cls-5" x="469.64" y="76.8">e</tspan><tspan class="cls-4" x="476.86" y="76.8">s</tspan><tspan class="cls-23"><tspan class="cls-14" x="100.14" y="115.2">F</tspan><tspan x="108.1" y="115.2">or p</tspan><tspan class="cls-12" x="135.63" y="115.2">ro</tspan><tspan x="150.27" y="115.2">viding a plat</tspan><tspan class="cls-17" x="234.26" y="115.2">f</tspan><tspan x="238.91" y="115.2">orm </tspan><tspan class="cls-18" x="270.86" y="115.2">t</tspan><tspan x="276.13" y="115.2">o sha</tspan><tspan class="cls-12" x="311.66" y="115.2">r</tspan><tspan x="318.04" y="115.2">e this kn</tspan><tspan class="cls-19" x="375.78" y="115.2">o</tspan><tspan class="cls-20" x="384.19" y="115.2">w</tspan><tspan x="396.43" y="115.2">ledge:</tspan></tspan><tspan class="cls-4" x="102.09" y="134.4">Fl</tspan><tspan class="cls-2" x="114.78" y="134.4">o</tspan><tspan class="cls-4" x="122.7" y="134.4">w </tspan><tspan class="cls-8" x="137.86" y="134.4">A</tspan><tspan class="cls-4" x="147.12" y="134.4">rts Institu</tspan><tspan class="cls-10" x="212.53" y="134.4">t</tspan><tspan class="cls-4" x="217.95" y="134.4">e </tspan><tspan class="cls-23" x="228.78" y="134.4">and the</tspan><tspan class="cls-4" x="279.97" y="134.4" xml:space="preserve"> Flame </tspan><tspan class="cls-11" x="328.22" y="134.4">W</tspan><tspan class="cls-4" x="341.7" y="134.4">o</tspan><tspan class="cls-10" x="349.81" y="134.4">r</tspan><tspan class="cls-4" x="356.22" y="134.4">kshop </tspan><tspan class="cls-3" x="398.83" y="134.4">T</tspan><tspan class="cls-4" x="406.92" y="134.4">eam</tspan><tspan class="cls-23"><tspan x="268.76" y="211.2"></tspan></tspan></text>
  <text class="cls-16" transform="translate(181.8 218.71)"><tspan x="0" y="0">Acknowledgements</tspan></text>
  <text class="cls-6" transform="translate(191.45 555.07)"><tspan x="0" y="0">Hap</tspan><tspan class="cls-17" x="64.12" y="0">p</tspan><tspan x="83.69" y="0">y Flame!</tspan></text>
</svg>