<?xml version="1.0" encoding="UTF-8"?>
<svg id="Layer_1" data-name="Layer 1" xmlns="http://www.w3.org/2000/svg" viewBox="0 0 612 792">
  <defs>
    <style>
      .cls-1 {
        letter-spacing: -.09em;
      }

      .cls-2 {
        letter-spacing: -.08em;
      }

      .cls-3 {
        letter-spacing: 0em;
      }

      .cls-4 {
        letter-spacing: -.03em;
      }

      .cls-5, .cls-6 {
        letter-spacing: -.02em;
      }

      .cls-7, .cls-8, .cls-9, .cls-10, .cls-11, .cls-12, .cls-13, .cls-14, .cls-15, .cls-16, .cls-17, .cls-18 {
        font-family: Cambria, Cambria;
      }

      .cls-7, .cls-19 {
        letter-spacing: -.01em;
      }

      .cls-8, .cls-20 {
        letter-spacing: -.02em;
      }

      .cls-21, .cls-17 {
        letter-spacing: -.01em;
      }

      .cls-22 {
        letter-spacing: -.03em;
      }

      .cls-23, .cls-24, .cls-25, .cls-26, .cls-27, .cls-28, .cls-29, .cls-6, .cls-30 {
        font-weight: 700;
      }

      .cls-23, .cls-27, .cls-31, .cls-15 {
        letter-spacing: 2.03em;
      }

      .cls-23, .cls-28, .cls-29, .cls-30 {
        font-family: Cambria-BoldItalic, Cambria;
        font-style: italic;
      }

      .cls-32 {
        font-size: 16px;
      }

      .cls-32, .cls-33 {
        fill: #231f20;
      }

      .cls-9, .cls-28, .cls-34 {
        letter-spacing: 0em;
      }

      .cls-10, .cls-35 {
        letter-spacing: 0em;
      }

      .cls-36 {
        letter-spacing: 0em;
      }

      .cls-24, .cls-25, .cls-26, .cls-27, .cls-6 {
        font-family: Cambria-Bold, Cambria;
      }

      .cls-24, .cls-13, .cls-37 {
        letter-spacing: -.01em;
      }

      .cls-33 {
        font-family: MonotypeCorsiva, 'Monotype Corsiva';
        font-size: 40px;
      }

      .cls-38 {
        letter-spacing: -.01em;
      }

      .cls-39 {
        letter-spacing: 0em;
      }

      .cls-40 {
        letter-spacing: -.01em;
      }

      .cls-41, .cls-16 {
        letter-spacing: -.08em;
      }

      .cls-11, .cls-42 {
        letter-spacing: -.02em;
      }

      .cls-12, .cls-43, .cls-30 {
        letter-spacing: 0em;
      }

      .cls-26 {
        letter-spacing: -.03em;
      }

      .cls-44 {
        letter-spacing: 0em;
      }

      .cls-45 {
        letter-spacing: 0em;
      }

      .cls-14, .cls-46 {
        letter-spacing: -.01em;
      }

      .cls-47 {
        letter-spacing: 0em;
      }

      .cls-48 {
        letter-spacing: 0em;
      }

      .cls-49 {
        letter-spacing: .01em;
      }

      .cls-50 {
        letter-spacing: -.03em;
      }

      .cls-51 {
        letter-spacing: -.02em;
      }

      .cls-52 {
        letter-spacing: 0em;
      }

      .cls-53 {
        letter-spacing: -.02em;
      }
    </style>
  </defs>
  <text class="cls-33" transform="translate(215.63 40.32)"><tspan x="0" y="0">Introduction</tspan></text>
  <text/>
  <text class="cls-32" transform="translate(12.7 73.19)"><tspan class="cls-23" x="0" y="0">	</tspan><tspan class="cls-18" x="36" y="0">G</tspan><tspan class="cls-14" x="45.77" y="0">r</tspan><tspan class="cls-18" x="52.16" y="0">eetings, int</tspan><tspan class="cls-14" x="126.93" y="0">r</tspan><tspan class="cls-18" x="133.31" y="0">epid </tspan><tspan class="cls-17" x="166.86" y="0">e</tspan><tspan class="cls-18" x="174.48" y="0">xplo</tspan><tspan class="cls-14" x="203.95" y="0">r</tspan><tspan class="cls-18" x="210.33" y="0">er of fl</tspan><tspan class="cls-12" x="254.32" y="0">o</tspan><tspan class="cls-18" x="262.73" y="0">w arts! </tspan><tspan class="cls-18"><tspan class="cls-31" x="0" y="23">	</tspan><tspan class="cls-1" x="36" y="23">Y</tspan><tspan x="43.72" y="23">ou’</tspan><tspan class="cls-46" x="64.59" y="23">r</tspan><tspan x="70.97" y="23">e i</tspan><tspan class="cls-42" x="86.74" y="23">n</tspan><tspan x="95.36" y="23">vi</tspan><tspan class="cls-35" x="107.87" y="23">t</tspan><tspan x="113.14" y="23">ed </tspan><tspan class="cls-35" x="133.34" y="23">t</tspan><tspan x="138.62" y="23">o emba</tspan><tspan class="cls-43" x="188.32" y="23">r</tspan><tspan x="194.86" y="23">k on a journ</tspan><tspan class="cls-52" x="276.19" y="23">e</tspan><tspan x="283.84" y="23">y in</tspan><tspan class="cls-39" x="308.8" y="23">t</tspan><tspan x="314.07" y="23">o The Kinetic Alphabe</tspan><tspan class="cls-49" x="463.83" y="23">t</tspan><tspan x="469.48" y="23">, a cho</tspan><tspan class="cls-46" x="511.99" y="23">r</tspan><tspan x="518.38" y="23">eog</tspan><tspan class="cls-5" x="542.58" y="23">r</tspan><tspan x="548.92" y="23">ap</tspan><tspan class="cls-42" x="565.63" y="23">h</tspan><tspan x="574.15" y="23">y </tspan></tspan><tspan class="cls-18"><tspan x="0" y="46">notation </tspan><tspan class="cls-34" x="61.45" y="46">s</tspan><tspan class="cls-38" x="68.21" y="46">y</tspan><tspan x="76.1" y="46">s</tspan><tspan class="cls-35" x="82.98" y="46">t</tspan><tspan x="88.25" y="46">em tailo</tspan><tspan class="cls-46" x="143.4" y="46">r</tspan><tspan x="149.78" y="46">ed </tspan><tspan class="cls-40" x="169.98" y="46">f</tspan><tspan x="174.63" y="46">or static p</tspan><tspan class="cls-46" x="242.7" y="46">r</tspan><tspan x="249.09" y="46">ops. This grid-based language is designed </tspan><tspan class="cls-40" x="534.88" y="46">f</tspan><tspan x="539.52" y="46">or </tspan></tspan><tspan class="cls-18"><tspan x="0" y="69">music, using pic</tspan><tspan class="cls-35" x="108.24" y="69">t</tspan><tspan x="113.52" y="69">og</tspan><tspan class="cls-5" x="129.91" y="69">r</tspan><tspan x="136.26" y="69">aphs and let</tspan><tspan class="cls-35" x="218.9" y="69">t</tspan><tspan x="224.17" y="69">ers that combine li</tspan><tspan class="cls-5" x="351.09" y="69">k</tspan><tspan x="359.21" y="69">e puzzle pieces </tspan><tspan class="cls-40" x="464.9" y="69">f</tspan><tspan x="469.55" y="69">or each bea</tspan><tspan class="cls-49" x="547.58" y="69">t</tspan><tspan x="553.23" y="69">. </tspan></tspan><tspan class="cls-18"><tspan x="0" y="92">This </tspan><tspan class="cls-34" x="33.16" y="92">s</tspan><tspan class="cls-38" x="39.91" y="92">y</tspan><tspan x="47.8" y="92">s</tspan><tspan class="cls-35" x="54.68" y="92">t</tspan><tspan x="59.95" y="92">em has p</tspan><tspan class="cls-46" x="120.53" y="92">r</tspan><tspan x="126.91" y="92">opelled </tspan><tspan class="cls-42" x="181" y="92">m</tspan><tspan x="194" y="92">y sequence c</tspan><tspan class="cls-46" x="280.02" y="92">r</tspan><tspan x="286.41" y="92">eation </tspan><tspan class="cls-35" x="332.83" y="92">t</tspan><tspan x="338.1" y="92">o new hei</tspan><tspan class="cls-47" x="403.84" y="92">g</tspan><tspan x="411.64" y="92">hts, and I hope it will do </tspan></tspan><tspan class="cls-18"><tspan x="0" y="115">the same </tspan><tspan class="cls-40" x="64.9" y="115">f</tspan><tspan x="69.55" y="115">or </tspan><tspan class="cls-42" x="88.18" y="115">y</tspan><tspan x="95.93" y="115">ou!</tspan></tspan><tspan class="cls-18"><tspan class="cls-31" x="0" y="161">	</tspan><tspan x="36" y="161">This </tspan><tspan class="cls-19" x="69.16" y="161">w</tspan><tspan x="81.34" y="161">o</tspan><tspan class="cls-43" x="89.84" y="161">r</tspan><tspan x="96.38" y="161">k stands on the shoulders of V</tspan><tspan class="cls-37" x="300.7" y="161">T</tspan><tspan class="cls-45" x="309.96" y="161">G and its dedica</tspan><tspan class="cls-35" x="417.52" y="161">t</tspan><tspan x="422.8" y="161">ed contribu</tspan><tspan class="cls-35" x="501.55" y="161">t</tspan><tspan x="506.82" y="161">ors. </tspan><tspan class="cls-2" x="535.61" y="161">T</tspan><tspan x="543.8" y="161">o </tspan></tspan><tspan class="cls-18"><tspan x="0" y="184">learn mo</tspan><tspan class="cls-46" x="60.84" y="184">r</tspan><tspan x="67.22" y="184">e about V</tspan><tspan class="cls-37" x="131.04" y="184">T</tspan><tspan x="140.3" y="184">G, check the lin</tspan><tspan class="cls-34" x="242.83" y="184">k</tspan><tspan x="251.1" y="184">s p</tspan><tspan class="cls-46" x="270.4" y="184">ro</tspan><tspan x="285.04" y="184">vided near the end of the book. The Kinetic </tspan></tspan><tspan class="cls-18"><tspan x="0" y="207">Alphabet builds upon V</tspan><tspan class="cls-37" x="159.34" y="207">T</tspan><tspan class="cls-46" x="168.61" y="207">G</tspan><tspan x="178.15" y="207">&apos;s </tspan><tspan class="cls-40" x="192.34" y="207">f</tspan><tspan x="196.98" y="207">oundations, serving as a complemen</tspan><tspan class="cls-49" x="444.55" y="207">t</tspan><tspan x="450.2" y="207">, </tspan><tspan class="cls-5" x="457.01" y="207">r</tspan><tspan x="463.35" y="207">ather than a </tspan></tspan><tspan class="cls-18"><tspan class="cls-46" x="0" y="230">r</tspan><tspan x="6.38" y="230">eplacemen</tspan><tspan class="cls-49" x="80.15" y="230">t</tspan><tspan x="85.8" y="230">.</tspan></tspan><tspan class="cls-18"><tspan class="cls-31" x="0" y="276">	</tspan><tspan x="36" y="276">The Kinetic Alphabet is a fusion of elements f</tspan><tspan class="cls-46" x="342.32" y="276">r</tspan><tspan x="348.7" y="276">om V</tspan><tspan class="cls-37" x="383.69" y="276">T</tspan><tspan x="392.95" y="276">G, si</tspan><tspan class="cls-35" x="420.85" y="276">t</tspan><tspan x="426.13" y="276">e</tspan><tspan class="cls-43" x="433.93" y="276">s</tspan><tspan class="cls-51" x="440.73" y="276">w</tspan><tspan x="452.82" y="276">ap, and musical </tspan></tspan><tspan class="cls-18"><tspan x="0" y="299">notation. Althou</tspan><tspan class="cls-47" x="110.62" y="299">g</tspan><tspan x="118.41" y="299">h it can be int</tspan><tspan class="cls-46" x="210.34" y="299">r</tspan><tspan x="216.73" y="299">oduced </tspan><tspan class="cls-35" x="270.19" y="299">t</tspan><tspan x="275.46" y="299">o beginners, it’s primari</tspan><tspan class="cls-20" x="438.3" y="299">l</tspan><tspan x="442.32" y="299">y designed </tspan><tspan class="cls-40" x="518.95" y="299">f</tspan><tspan x="523.59" y="299">or in</tspan><tspan class="cls-35" x="555.6" y="299">t</tspan><tspan x="560.88" y="299">er</tspan><tspan x="575.3" y="299">-</tspan></tspan><tspan class="cls-18"><tspan x="0" y="322">media</tspan><tspan class="cls-35" x="42.25" y="322">t</tspan><tspan x="47.52" y="322">e learners, bridging the </tspan><tspan class="cls-44" x="209.44" y="322">g</tspan><tspan x="217.21" y="322">ap bet</tspan><tspan class="cls-19" x="259.42" y="322">w</tspan><tspan x="271.61" y="322">een imp</tspan><tspan class="cls-46" x="326.33" y="322">ro</tspan><tspan x="340.97" y="322">visation and cho</tspan><tspan class="cls-46" x="452.48" y="322">r</tspan><tspan x="458.87" y="322">eog</tspan><tspan class="cls-5" x="483.07" y="322">r</tspan><tspan x="489.41" y="322">ap</tspan><tspan class="cls-42" x="506.13" y="322">h</tspan><tspan class="cls-41" x="514.64" y="322">y</tspan><tspan x="521.38" y="322">. It </tspan><tspan class="cls-51" x="542.3" y="322">w</tspan><tspan x="554.4" y="322">as </tspan></tspan><tspan class="cls-18"><tspan x="0" y="345">original</tspan><tspan class="cls-20" x="52.99" y="345">l</tspan><tspan x="57.02" y="345">y built </tspan><tspan class="cls-40" x="103.92" y="345">f</tspan><tspan x="108.57" y="345">or double st</tspan><tspan class="cls-42" x="190.12" y="345">av</tspan><tspan x="205.38" y="345">es but has </tspan><tspan class="cls-21" x="277.15" y="345">e</tspan><tspan x="284.77" y="345">xpanded </tspan><tspan class="cls-35" x="347.22" y="345">t</tspan><tspan x="352.49" y="345">o </tspan><tspan class="cls-19" x="364.51" y="345">w</tspan><tspan x="376.7" y="345">o</tspan><tspan class="cls-43" x="385.19" y="345">r</tspan><tspan x="391.73" y="345">k with clubs, triads, </tspan><tspan class="cls-21" x="527.76" y="345">f</tspan><tspan x="532.41" y="345">ans, </tspan></tspan><tspan class="cls-18"><tspan x="0" y="368">buugeng and a</tspan><tspan class="cls-42" x="99.45" y="368">n</tspan><tspan x="108.07" y="368">y other dual wielded static p</tspan><tspan class="cls-46" x="301.23" y="368">r</tspan><tspan x="307.61" y="368">op. </tspan></tspan><tspan class="cls-27" x="0" y="414">	</tspan><tspan class="cls-18" x="36" y="414">One </tspan><tspan class="cls-14" x="66.71" y="414">r</tspan><tspan class="cls-18" x="73.09" y="414">eason V</tspan><tspan class="cls-13" x="126.19" y="414">T</tspan><tspan class="cls-18" x="135.45" y="414">G </tspan><tspan class="cls-7" x="148.75" y="414">w</tspan><tspan class="cls-18" x="160.94" y="414">o</tspan><tspan class="cls-12" x="169.43" y="414">r</tspan><tspan class="cls-9" x="175.97" y="414">k</tspan><tspan class="cls-18" x="184.24" y="414">s so </tspan><tspan class="cls-7" x="213.53" y="414">w</tspan><tspan class="cls-18" x="225.72" y="414">ell is that it’s based in non-p</tspan><tspan class="cls-14" x="416.48" y="414">r</tspan><tspan class="cls-18" x="422.86" y="414">escript</tspan><tspan class="cls-8" x="469.97" y="414">i</tspan><tspan class="cls-11" x="474.09" y="414">v</tspan><tspan class="cls-18" x="481.84" y="414">e </tspan><tspan class="cls-10" x="493.17" y="414">t</tspan><tspan class="cls-18" x="498.45" y="414">erminolog</tspan><tspan class="cls-16" x="568.79" y="414">y</tspan><tspan class="cls-18" x="575.52" y="414">. </tspan><tspan class="cls-18"><tspan x="0" y="437">The hand:p</tspan><tspan class="cls-46" x="77.2" y="437">r</tspan><tspan x="83.59" y="437">op number </tspan><tspan class="cls-34" x="162.28" y="437">s</tspan><tspan class="cls-38" x="169.04" y="437">y</tspan><tspan x="176.93" y="437">s</tspan><tspan class="cls-35" x="183.8" y="437">t</tspan><tspan x="189.08" y="437">em and the </tspan><tspan class="cls-40" x="268.43" y="437">f</tspan><tspan x="273.08" y="437">our modes a</tspan><tspan class="cls-46" x="357.24" y="437">r</tspan><tspan x="363.63" y="437">e self-descript</tspan><tspan class="cls-20" x="460.12" y="437">i</tspan><tspan class="cls-42" x="464.24" y="437">v</tspan><tspan x="471.99" y="437">e and do</tspan><tspan class="cls-50" x="529.83" y="437">n</tspan><tspan x="538.29" y="437">’t </tspan></tspan><tspan class="cls-18"><tspan class="cls-46" x="0" y="460">r</tspan><tspan x="6.38" y="460">equi</tspan><tspan class="cls-46" x="36.22" y="460">r</tspan><tspan x="42.6" y="460">e </tspan><tspan class="cls-34" x="53.93" y="460">s</tspan><tspan x="60.69" y="460">ymbolic </tspan><tspan class="cls-53" x="118.68" y="460">v</tspan><tspan x="126.4" y="460">ariables, so th</tspan><tspan class="cls-48" x="220.8" y="460">e</tspan><tspan x="228.45" y="460">y can be der</tspan><tspan class="cls-20" x="310.74" y="460">i</tspan><tspan class="cls-42" x="314.87" y="460">v</tspan><tspan x="322.62" y="460">ed </tspan><tspan class="cls-46" x="342.82" y="460">b</tspan><tspan x="351.34" y="460">y logic without memorization. </tspan></tspan><tspan class="cls-15" x="0" y="483">	</tspan><tspan class="cls-25" x="36" y="483">In V</tspan><tspan class="cls-26" x="64.92" y="483">T</tspan><tspan class="cls-25" x="74.7" y="483">G, </tspan><tspan class="cls-6" x="92.27" y="483">e</tspan><tspan class="cls-26" x="100.49" y="483">v</tspan><tspan class="cls-25" x="108.53" y="483">ery </tspan><tspan class="cls-30" x="136.42" y="483">c</tspan><tspan class="cls-29" x="143.58" y="483">ontinuous </tspan><tspan class="cls-30" x="219.55" y="483">c</tspan><tspan class="cls-29" x="226.71" y="483">ombination </tspan><tspan class="cls-25" x="313.8" y="483">is disambigua</tspan><tspan class="cls-24" x="415.36" y="483">t</tspan><tspan class="cls-25" x="420.98" y="483">ed. This ma</tspan><tspan class="cls-6" x="504.74" y="483">k</tspan><tspan class="cls-25" x="513.94" y="483">es it an </tspan><tspan class="cls-25"><tspan class="cls-42" x="0" y="506">e</tspan><tspan class="cls-4" x="8.18" y="506">x</tspan><tspan class="cls-3" x="16.17" y="506">c</tspan><tspan x="23.57" y="506">ellent </tspan><tspan class="cls-37" x="69.44" y="506">t</tspan><tspan x="75.06" y="506">ool for poi, </tspan><tspan class="cls-48" x="157.9" y="506">w</tspan><tspan x="170.52" y="506">hich </tspan><tspan class="cls-46" x="205.66" y="506">r</tspan><tspan x="212.81" y="506">equi</tspan><tspan class="cls-46" x="245.35" y="506">r</tspan><tspan x="252.5" y="506">es </tspan><tspan class="cls-3" x="271.86" y="506">c</tspan><tspan x="279.26" y="506">ontinuous momentum. These </tspan><tspan class="cls-3" x="497.88" y="506">c</tspan><tspan x="505.28" y="506">ontinuous </tspan></tspan><tspan class="cls-25"><tspan x="0" y="529">pat</tspan><tspan class="cls-37" x="23.96" y="529">t</tspan><tspan x="29.59" y="529">erns also be applied in multiple planes and </tspan><tspan class="cls-37" x="347.8" y="529">t</tspan><tspan x="353.43" y="529">o ma</tspan><tspan class="cls-22" x="388.87" y="529">n</tspan><tspan x="398.02" y="529">y static p</tspan><tspan class="cls-46" x="463.23" y="529">r</tspan><tspan x="470.38" y="529">ops.</tspan></tspan><tspan class="cls-18"><tspan class="cls-31" x="0" y="575">	</tspan><tspan x="36" y="575">In cont</tspan><tspan class="cls-5" x="83.53" y="575">r</tspan><tspan x="89.88" y="575">as</tspan><tspan class="cls-49" x="104.56" y="575">t</tspan><tspan x="110.21" y="575">, the Alphabet assigns let</tspan><tspan class="cls-36" x="278.74" y="575">t</tspan><tspan x="284.02" y="575">ers </tspan><tspan class="cls-39" x="308.84" y="575">t</tspan><tspan x="314.11" y="575">o positions and motion combinations, </tspan></tspan><tspan class="cls-18"><tspan x="0" y="598">incorpo</tspan><tspan class="cls-5" x="52.93" y="598">r</tspan><tspan x="59.27" y="598">ating the </tspan><tspan class="cls-40" x="122.88" y="598">f</tspan><tspan x="127.52" y="598">our modes plus static motions, dashes, and </tspan><tspan class="cls-46" x="422.67" y="598">r</tspan><tspan class="cls-48" x="429.05" y="598">e</tspan><tspan class="cls-42" x="436.7" y="598">v</tspan><tspan x="444.45" y="598">ersals. </tspan><tspan class="cls-48" x="491.59" y="598">B</tspan><tspan x="501.21" y="598">y construct</tspan><tspan x="577.48" y="598">-</tspan></tspan><tspan class="cls-18"><tspan x="0" y="621">ing “</tspan><tspan class="cls-19" x="30.81" y="621">w</tspan><tspan x="43" y="621">o</tspan><tspan class="cls-46" x="51.49" y="621">r</tspan><tspan x="57.88" y="621">ds” with these let</tspan><tspan class="cls-35" x="175.57" y="621">t</tspan><tspan x="180.84" y="621">ers, each sequence gets its </tspan><tspan class="cls-43" x="363.13" y="621">o</tspan><tspan x="371.55" y="621">wn name composed of </tspan><tspan class="cls-53" x="527.96" y="621">v</tspan><tspan x="535.68" y="621">ari</tspan><tspan x="554.55" y="621">-</tspan></tspan><tspan class="cls-18"><tspan x="0" y="644">ables </tspan><tspan class="cls-46" x="39.12" y="644">r</tspan><tspan x="45.5" y="644">ep</tspan><tspan class="cls-46" x="62.2" y="644">r</tspan><tspan x="68.59" y="644">esenting its con</tspan><tspan class="cls-35" x="174.95" y="644">t</tspan><tspan x="180.23" y="644">ents.</tspan></tspan><tspan class="cls-15" x="0" y="667">	</tspan><tspan class="cls-25" x="36" y="667">This means that each </tspan><tspan class="cls-30" x="194.44" y="667">c</tspan><tspan class="cls-29" x="201.59" y="667">ompl</tspan><tspan class="cls-28" x="237.98" y="667">e</tspan><tspan class="cls-29" x="245.84" y="667">x sequen</tspan><tspan class="cls-30" x="307.88" y="667">c</tspan><tspan class="cls-29" x="315.03" y="667">e </tspan><tspan class="cls-25" x="326.53" y="667">is disambigua</tspan><tspan class="cls-24" x="428.09" y="667">t</tspan><tspan class="cls-25" x="433.72" y="667">ed, with a special </tspan><tspan class="cls-25"><tspan x="0" y="690">focus on musical cho</tspan><tspan class="cls-46" x="151.38" y="690">r</tspan><tspan x="158.53" y="690">eog</tspan><tspan class="cls-5" x="184.45" y="690">r</tspan><tspan x="191.56" y="690">ap</tspan><tspan class="cls-22" x="209.68" y="690">h</tspan><tspan x="218.72" y="690">y with static p</tspan><tspan class="cls-46" x="320.66" y="690">r</tspan><tspan x="327.8" y="690">ops and their unique p</tspan><tspan class="cls-46" x="493.28" y="690">r</tspan><tspan x="500.43" y="690">operties. </tspan></tspan></text>
</svg>