<?xml version="1.0" encoding="UTF-8"?>
<svg id="Layer_1" data-name="Layer 1" xmlns="http://www.w3.org/2000/svg" viewBox="0 0 612 792">
  <defs>
    <style>
      .cls-1, .cls-2, .cls-3, .cls-4, .cls-5, .cls-6, .cls-7, .cls-8, .cls-9, .cls-10, .cls-11, .cls-12, .cls-13, .cls-14, .cls-15, .cls-16, .cls-17, .cls-18, .cls-19, .cls-20, .cls-21, .cls-22, .cls-23, .cls-24, .cls-25, .cls-26, .cls-27, .cls-28, .cls-29, .cls-30, .cls-31, .cls-32, .cls-33, .cls-34, .cls-35, .cls-36, .cls-37, .cls-38, .cls-39, .cls-40, .cls-41, .cls-42, .cls-43, .cls-44, .cls-45, .cls-46, .cls-47, .cls-48, .cls-49, .cls-50, .cls-51, .cls-52, .cls-53, .cls-54, .cls-55, .cls-56 {
        font-style: italic;
      }

      .cls-1, .cls-2, .cls-3, .cls-4, .cls-5, .cls-6, .cls-7, .cls-8, .cls-9, .cls-10, .cls-11, .cls-12, .cls-13, .cls-14, .cls-15, .cls-16, .cls-17, .cls-18, .cls-19, .cls-20, .cls-21, .cls-22, .cls-23, .cls-24, .cls-25, .cls-26, .cls-27, .cls-28, .cls-29, .cls-30, .cls-31, .cls-32, .cls-33, .cls-34, .cls-35, .cls-36, .cls-37, .cls-38, .cls-39, .cls-40, .cls-41, .cls-42, .cls-43, .cls-44, .cls-45, .cls-46, .cls-47, .cls-48, .cls-50, .cls-51, .cls-52, .cls-53, .cls-54, .cls-55, .cls-56 {
        font-family: Cambria-Italic, Cambria;
      }

      .cls-1, .cls-57 {
        letter-spacing: -.02em;
      }

      .cls-58, .cls-59, .cls-60, .cls-61, .cls-62, .cls-63, .cls-64, .cls-65, .cls-66, .cls-67, .cls-68, .cls-69, .cls-70, .cls-71, .cls-72, .cls-73, .cls-74, .cls-75, .cls-49, .cls-76 {
        font-weight: 700;
      }

      .cls-58, .cls-59, .cls-60, .cls-61, .cls-62, .cls-63, .cls-64, .cls-65, .cls-66, .cls-67, .cls-68, .cls-69, .cls-70, .cls-71, .cls-72, .cls-73, .cls-74, .cls-75, .cls-76 {
        font-family: Cambria-Bold, Cambria;
      }

      .cls-58, .cls-77 {
        letter-spacing: 0em;
      }

      .cls-78 {
        font-family: MonotypeCorsiva, 'Monotype Corsiva';
        font-size: 37.33px;
      }

      .cls-78, .cls-9, .cls-79, .cls-20, .cls-80 {
        fill: #231f20;
      }

      .cls-59, .cls-81, .cls-61, .cls-9, .cls-79, .cls-71, .cls-30, .cls-73, .cls-80, .cls-82, .cls-83 {
        font-size: 14px;
      }

      .cls-84, .cls-4 {
        letter-spacing: .02em;
      }

      .cls-85, .cls-3, .cls-60, .cls-8, .cls-15, .cls-17, .cls-70, .cls-23, .cls-24, .cls-32, .cls-86, .cls-36, .cls-37, .cls-41, .cls-46, .cls-47, .cls-50 {
        font-size: 14px;
      }

      .cls-2 {
        letter-spacing: 0em;
      }

      .cls-3, .cls-87, .cls-88 {
        letter-spacing: 0em;
      }

      .cls-89 {
        letter-spacing: .02em;
      }

      .cls-5 {
        letter-spacing: -.02em;
      }

      .cls-90, .cls-67 {
        letter-spacing: 0em;
      }

      .cls-60, .cls-61, .cls-66 {
        fill: #00a651;
      }

      .cls-91, .cls-92, .cls-79, .cls-93, .cls-94, .cls-95, .cls-96, .cls-97, .cls-98, .cls-88, .cls-86, .cls-99, .cls-100, .cls-101, .cls-83, .cls-102, .cls-103 {
        font-family: Cambria, Cambria;
      }

      .cls-91, .cls-56 {
        letter-spacing: -.02em;
      }

      .cls-6 {
        letter-spacing: 0em;
      }

      .cls-7, .cls-104, .cls-50 {
        letter-spacing: 0em;
      }

      .cls-8 {
        letter-spacing: -.01em;
      }

      .cls-10 {
        letter-spacing: -.11em;
      }

      .cls-105, .cls-100, .cls-55 {
        letter-spacing: .02em;
      }

      .cls-106 {
        letter-spacing: -.02em;
      }

      .cls-107 {
        letter-spacing: -.02em;
      }

      .cls-11 {
        letter-spacing: -.02em;
      }

      .cls-62, .cls-36, .cls-108, .cls-38, .cls-103 {
        letter-spacing: .02em;
      }

      .cls-92, .cls-109, .cls-43 {
        letter-spacing: -.02em;
      }

      .cls-12 {
        letter-spacing: -.02em;
      }

      .cls-13 {
        letter-spacing: -.05em;
      }

      .cls-14 {
        letter-spacing: -.02em;
      }

      .cls-15 {
        letter-spacing: -.02em;
      }

      .cls-110, .cls-47, .cls-74, .cls-52 {
        letter-spacing: 0em;
      }

      .cls-93, .cls-111 {
        letter-spacing: .02em;
      }

      .cls-63 {
        letter-spacing: -.01em;
      }

      .cls-16 {
        letter-spacing: -.02em;
      }

      .cls-112 {
        letter-spacing: .02em;
      }

      .cls-94, .cls-33, .cls-113 {
        letter-spacing: -.02em;
      }

      .cls-65, .cls-95, .cls-37, .cls-114, .cls-54 {
        letter-spacing: 0em;
      }

      .cls-115 {
        letter-spacing: 0em;
      }

      .cls-116 {
        letter-spacing: .02em;
      }

      .cls-18 {
        letter-spacing: -.02em;
      }

      .cls-96, .cls-117 {
        letter-spacing: -.01em;
      }

      .cls-19 {
        letter-spacing: -.03em;
      }

      .cls-118, .cls-102 {
        letter-spacing: -.02em;
      }

      .cls-119, .cls-98, .cls-34, .cls-41 {
        letter-spacing: 0em;
      }

      .cls-120, .cls-72, .cls-99, .cls-46, .cls-75 {
        letter-spacing: 0em;
      }

      .cls-97 {
        letter-spacing: -.12em;
      }

      .cls-121, .cls-24 {
        letter-spacing: .01em;
      }

      .cls-122 {
        fill: none;
        stroke: #231f20;
        stroke-miterlimit: 10;
        stroke-width: 2px;
      }

      .cls-68 {
        font-size: 22px;
      }

      .cls-21, .cls-123 {
        letter-spacing: .02em;
      }

      .cls-69 {
        letter-spacing: -.01em;
      }

      .cls-124, .cls-51 {
        letter-spacing: 0em;
      }

      .cls-23, .cls-44, .cls-125 {
        letter-spacing: .02em;
      }

      .cls-126 {
        letter-spacing: 0em;
      }

      .cls-25 {
        letter-spacing: -.09em;
      }

      .cls-26, .cls-127 {
        letter-spacing: .02em;
      }

      .cls-27, .cls-128 {
        letter-spacing: -.02em;
      }

      .cls-129, .cls-39 {
        letter-spacing: 0em;
      }

      .cls-130 {
        letter-spacing: -.02em;
      }

      .cls-28, .cls-131 {
        letter-spacing: -.02em;
      }

      .cls-132 {
        letter-spacing: .02em;
      }

      .cls-133 {
        letter-spacing: 0em;
      }

      .cls-134 {
        letter-spacing: -.02em;
      }

      .cls-135 {
        letter-spacing: -.02em;
      }

      .cls-29, .cls-73, .cls-75 {
        fill: #00aeef;
      }

      .cls-71 {
        fill: #7f3f98;
      }

      .cls-31, .cls-32, .cls-136 {
        letter-spacing: 0em;
      }

      .cls-72 {
        fill: #f26522;
      }

      .cls-137 {
        letter-spacing: 0em;
      }

      .cls-35 {
        letter-spacing: -.02em;
      }

      .cls-73 {
        letter-spacing: 0em;
      }

      .cls-40 {
        letter-spacing: .02em;
      }

      .cls-42 {
        letter-spacing: -.05em;
      }

      .cls-138 {
        letter-spacing: 34.55em;
      }

      .cls-45 {
        letter-spacing: 0em;
      }

      .cls-139 {
        letter-spacing: 0em;
      }

      .cls-140 {
        letter-spacing: .02em;
      }

      .cls-48 {
        letter-spacing: .02em;
      }

      .cls-49 {
        fill: #2e3192;
        font-family: Cambria-BoldItalic, Cambria;
        font-size: 18px;
      }

      .cls-141 {
        letter-spacing: 0em;
      }

      .cls-142 {
        letter-spacing: .02em;
      }

      .cls-143 {
        letter-spacing: .02em;
      }

      .cls-82 {
        font-family: LiberationSans, 'Liberation Sans';
      }

      .cls-144 {
        letter-spacing: .02em;
      }

      .cls-53 {
        letter-spacing: -.06em;
      }

      .cls-76 {
        letter-spacing: 0em;
      }
    </style>
  </defs>
  <text transform="translate(326.84 144.18)"><tspan class="cls-83"><tspan class="cls-115" x="0" y="0">W</tspan><tspan class="cls-124" x="12.97" y="0">o</tspan><tspan class="cls-140" x="20.32" y="0">r</tspan><tspan class="cls-124" x="26.36" y="0">d</tspan><tspan x="34.04" y="0">s .................................................................</tspan></tspan><tspan class="cls-83"><tspan x="0" y="16.8">Permutations ...................................................</tspan></tspan><tspan class="cls-83"><tspan x="0" y="33.6">Reversals ........................................................... </tspan></tspan><tspan class="cls-83"><tspan x="0" y="50.4">Examples with A,B,C ..................................... </tspan></tspan><tspan class="cls-83"><tspan x="0" y="67.2">Misc. Permutation Examples ....................</tspan></tspan><tspan class="cls-83"><tspan x="0" y="151.2">Single Turns .....................................................</tspan></tspan><tspan class="cls-83"><tspan x="0" y="168">Glyphs /</tspan><tspan class="cls-84" x="50.88" y="168"> </tspan><tspan x="54.23" y="168" xml:space="preserve">PADS  ................................................</tspan></tspan><tspan class="cls-81"><tspan class="cls-22" x="0" y="184.8" xml:space="preserve">   </tspan><tspan class="cls-29" x="9.25" y="184.8" xml:space="preserve">  </tspan><tspan class="cls-20" x="15.41" y="184.8">Pro/Anti</tspan><tspan class="cls-22" x="66.86" y="184.8"> </tspan><tspan class="cls-101" x="69.94" y="184.8">........................................................</tspan></tspan><tspan class="cls-81"><tspan class="cls-22" x="0" y="201.6" xml:space="preserve">     </tspan><tspan class="cls-51" x="15.41" y="201.6">Lead</tspan><tspan class="cls-12" x="43.5" y="201.6">i</tspan><tspan class="cls-51" x="47" y="201.6">ng</tspan><tspan class="cls-4" x="61.63" y="201.6">/</tspan><tspan class="cls-45" x="68.42" y="201.6">F</tspan><tspan class="cls-6" x="75.66" y="201.6">o</tspan><tspan class="cls-12" x="82.67" y="201.6">l</tspan><tspan class="cls-18" x="86.11" y="201.6">l</tspan><tspan class="cls-51" x="89.52" y="201.6">o</tspan><tspan class="cls-14" x="96.53" y="201.6">w</tspan><tspan class="cls-12" x="106.41" y="201.6">i</tspan><tspan class="cls-51" x="109.91" y="201.6">n</tspan><tspan class="cls-22" x="117.32" y="201.6">g</tspan><tspan class="cls-101" x="124.63" y="201.6" xml:space="preserve">.....................................  </tspan></tspan><tspan class="cls-81"><tspan class="cls-22" x="0" y="218.4" xml:space="preserve">     </tspan><tspan class="cls-35" x="15.41" y="218.4">S</tspan><tspan class="cls-51" x="21.9" y="218.4">h</tspan><tspan class="cls-12" x="29.24" y="218.4">i</tspan><tspan class="cls-48" x="32.74" y="218.4">ft</tspan><tspan class="cls-22" x="42.29" y="218.4">/Static ....................................................</tspan><tspan class="cls-101" x="230.55" y="218.4"> </tspan></tspan><tspan class="cls-30"><tspan x="0" y="235.2" xml:space="preserve">     Shift/Dash .....................................................</tspan></tspan><tspan class="cls-30"><tspan x="0" y="252" xml:space="preserve">     Dash/Static ...................................................</tspan></tspan><tspan class="cls-30"><tspan x="0" y="268.8" xml:space="preserve">     Opening vs Closing .....................................</tspan></tspan><tspan class="cls-30"><tspan x="0" y="285.6" xml:space="preserve">     Dash/Dash .....................................................</tspan></tspan><tspan class="cls-30"><tspan x="0" y="302.4" xml:space="preserve">     Static/Static ..................................................</tspan></tspan><tspan class="cls-81"><tspan class="cls-101" x="0" y="319.2" xml:space="preserve">     </tspan><tspan class="cls-22" x="15.41" y="319.2">1|1 Examples ................................................</tspan></tspan><tspan class="cls-83"><tspan x="0" y="336">1|0 Letters </tspan><tspan x="68.55" y="336">.........................................................</tspan></tspan><tspan class="cls-83"><tspan x="0" y="352.8">1|1 Letters .........................................................</tspan></tspan><tspan class="cls-83"><tspan x="0" y="436.8" xml:space="preserve">Double Turns  .................................................</tspan></tspan><tspan class="cls-83"><tspan x="0" y="453.6" xml:space="preserve">     2|0 </tspan><tspan x="38.43" y="453.6">.................................................................. </tspan></tspan><tspan class="cls-83"><tspan x="0" y="470.4" xml:space="preserve">     2|1 ..................................................................</tspan></tspan><tspan class="cls-83"><tspan x="0" y="487.2" xml:space="preserve">     2|2 ..................................................................</tspan></tspan><tspan class="cls-83"><tspan x="0" y="520.8">What’s next?......................................................</tspan></tspan><tspan class="cls-83"><tspan x="0" y="537.6">Call to Action! ..................................................</tspan></tspan><tspan class="cls-83"><tspan x="0" y="554.4">VTG links and Changelog ............................</tspan></tspan><tspan class="cls-49"><tspan x="20.72" y="609.6">TheKineticAlphabet.com</tspan></tspan></text>
  <text class="cls-78" transform="translate(191.96 53.39)"><tspan x="0" y="0">Table of Contents</tspan></text>
  <text class="cls-68" transform="translate(22.91 115.6)"><tspan x="0" y="0">1.0 - </tspan><tspan class="cls-134" x="48.26" y="0">P</tspan><tspan class="cls-139" x="61.37" y="0">o</tspan><tspan class="cls-133" x="73.76" y="0">s</tspan><tspan class="cls-135" x="83.88" y="0">i</tspan><tspan class="cls-143" x="90.3" y="0">t</tspan><tspan class="cls-107" x="98.82" y="0">i</tspan><tspan class="cls-139" x="105.27" y="0">on</tspan><tspan class="cls-126" x="130.81" y="0">s</tspan><tspan class="cls-143" x="140.89" y="0"> </tspan><tspan x="146.21" y="0">/ </tspan><tspan class="cls-132" x="162.18" y="0">M</tspan><tspan class="cls-139" x="181.15" y="0">o</tspan><tspan class="cls-143" x="193.54" y="0">t</tspan><tspan class="cls-135" x="202.06" y="0">i</tspan><tspan class="cls-139" x="208.47" y="0">on</tspan><tspan class="cls-137" x="234.01" y="0">s</tspan></text>
  <text class="cls-68" transform="translate(87.88 377.24)"><tspan x="0" y="0">1.1 - Letters</tspan></text>
  <text class="cls-68" transform="translate(386.91 115.43)"><tspan x="0" y="0" xml:space="preserve">1.2 -  Words</tspan></text>
  <text class="cls-68" transform="translate(359.86 257.38)"><tspan x="0" y="0" xml:space="preserve">1.3 -  Single-Turns</tspan></text>
  <text class="cls-68" transform="translate(356.13 542.98)"><tspan x="0" y="0" xml:space="preserve">1.4 -  Double-Turns</tspan></text>
  <text class="cls-79" transform="translate(11.17 209.59)"><tspan x="0" y="0"> </tspan></text>
  <text class="cls-85" transform="translate(15.92 391.16)"><tspan class="cls-22" x="0" y="0" xml:space="preserve">  </tspan><tspan class="cls-99" x="6.16" y="0" xml:space="preserve">  </tspan></text>
  <text class="cls-17" transform="translate(15.92 410.12)"><tspan x="0" y="0" xml:space="preserve">    </tspan></text>
  <text class="cls-17" transform="translate(15.92 429.09)"><tspan x="0" y="0" xml:space="preserve">     </tspan></text>
  <text class="cls-17" transform="translate(15.92 448.05)"><tspan x="0" y="0" xml:space="preserve">     </tspan></text>
  <text class="cls-17" transform="translate(15.92 467.02)"><tspan x="0" y="0" xml:space="preserve">     </tspan></text>
  <text class="cls-17" transform="translate(15.92 485.97)"><tspan x="0" y="0" xml:space="preserve">     </tspan></text>
  <text class="cls-17" transform="translate(15.92 504.94)"><tspan x="0" y="0" xml:space="preserve">     </tspan></text>
  <text class="cls-17" transform="translate(27.88 549.25)"><tspan x="0" y="0" xml:space="preserve">    </tspan></text>
  <text class="cls-17" transform="translate(27.88 567.14)"><tspan x="0" y="0" xml:space="preserve">     </tspan></text>
  <text class="cls-17" transform="translate(27.88 566.88)"><tspan x="0" y="0" xml:space="preserve">     </tspan></text>
  <text class="cls-17" transform="translate(27.88 602.9)"><tspan x="0" y="0" xml:space="preserve">     </tspan></text>
  <text class="cls-17" transform="translate(27.88 584.47)"><tspan x="0" y="0" xml:space="preserve">     </tspan></text>
  <text class="cls-9" transform="translate(43.75 724.49)"><tspan x="0" y="0"> </tspan></text>
  <text class="cls-17" transform="translate(22.91 235.19)"><tspan x="0" y="0"> </tspan></text>
  <text class="cls-17" transform="translate(22.91 254)"><tspan x="0" y="0"> </tspan></text>
  <line class="cls-122" x1="306" y1="76.76" x2="306" y2="771.27"/>
  <text class="cls-82" transform="translate(560.6 144.09) scale(.98 1)"><tspan x="0" y="0">36</tspan><tspan x="0" y="16.8">37</tspan><tspan x="0" y="33.6">38</tspan><tspan x="0" y="50.4">39-41</tspan><tspan x="0" y="67.2">42-48</tspan><tspan x="0" y="151.2">50</tspan><tspan x="0" y="168">52</tspan><tspan x="0" y="184.8">53</tspan><tspan x="0" y="201.6">54</tspan><tspan x="0" y="218.4">55</tspan><tspan x="0" y="235.2">56</tspan><tspan x="0" y="252">57</tspan><tspan x="0" y="268.8">58</tspan><tspan x="0" y="285.6">59</tspan><tspan x="0" y="302.4">60</tspan><tspan x="0" y="319.2">61-63</tspan><tspan x="0" y="336">64-66</tspan><tspan x="0" y="352.8">67-69</tspan><tspan x="0" y="436.8">70-71</tspan><tspan x="0" y="453.6">72-74</tspan><tspan x="0" y="470.4">75-78</tspan><tspan x="0" y="487.2">79-81</tspan><tspan x="0" y="520.8">82</tspan><tspan x="0" y="537.6">83</tspan><tspan x="0" y="554.4">84</tspan><tspan class="cls-138" x="15.57" y="554.4">	</tspan></text>
  <text class="cls-82" transform="translate(273.41 173.38) scale(.98 1)"><tspan x="0" y="0">1</tspan><tspan x="0" y="16.8">2</tspan><tspan x="0" y="33.6">3</tspan><tspan x="0" y="50.4">4</tspan><tspan x="0" y="67.2">5</tspan><tspan x="0" y="84">6</tspan><tspan x="0" y="100.8">7</tspan><tspan x="0" y="117.6">8</tspan><tspan x="0" y="134.4">9</tspan><tspan x="0" y="151.2">10</tspan><tspan x="0" y="235.2">11</tspan><tspan x="0" y="252">12</tspan><tspan x="0" y="268.8">14</tspan><tspan x="0" y="285.6">16</tspan><tspan x="0" y="302.4">18</tspan><tspan x="0" y="319.2">20</tspan><tspan x="0" y="336">22</tspan><tspan x="0" y="352.8">24</tspan><tspan x="0" y="369.6">26</tspan><tspan x="0" y="386.4">27</tspan><tspan x="0" y="403.2">28</tspan><tspan x="0" y="420">30</tspan><tspan x="0" y="436.8">32</tspan><tspan x="0" y="470.4">33</tspan><tspan x="0" y="504">34 </tspan></text>
  <text transform="translate(21.69 173.44)"><tspan class="cls-86"><tspan class="cls-110" x="0" y="0">T</tspan><tspan class="cls-114" x="8.16" y="0">he</tspan><tspan class="cls-123" x="22.54" y="0"> </tspan><tspan class="cls-127" x="25.93" y="0">G</tspan><tspan class="cls-121" x="34.77" y="0">r</tspan><tspan class="cls-118" x="40.77" y="0">i</tspan><tspan x="44.36" y="0">d ....................................................................</tspan></tspan><tspan class="cls-86"><tspan class="cls-131" x="0" y="16.8">H</tspan><tspan class="cls-119" x="9.3" y="16.8">and</tspan><tspan class="cls-108" x="31.46" y="16.8"> </tspan><tspan class="cls-109" x="34.85" y="16.8">P</tspan><tspan class="cls-119" x="42.54" y="16.8">o</tspan><tspan class="cls-141" x="49.89" y="16.8">s</tspan><tspan class="cls-106" x="55.92" y="16.8">i</tspan><tspan class="cls-108" x="59.48" y="16.8">t</tspan><tspan class="cls-118" x="64.53" y="16.8">i</tspan><tspan class="cls-114" x="68.12" y="16.8">on</tspan><tspan x="83.19" y="16.8">s .......................................................</tspan></tspan><tspan class="cls-86"><tspan class="cls-131" x="0" y="33.59">H</tspan><tspan class="cls-119" x="9.3" y="33.59">and</tspan><tspan class="cls-108" x="31.46" y="33.59"> </tspan><tspan class="cls-125" x="34.85" y="33.59">M</tspan><tspan class="cls-114" x="46.48" y="33.59">o</tspan><tspan class="cls-89" x="53.83" y="33.59">t</tspan><tspan class="cls-128" x="58.87" y="33.59">i</tspan><tspan class="cls-119" x="62.44" y="33.59">on</tspan><tspan x="77.51" y="33.59">s .........................................................</tspan></tspan><tspan><tspan class="cls-17" x="0" y="50.39" xml:space="preserve">      </tspan><tspan class="cls-47" x="18.49" y="50.39">T</tspan><tspan class="cls-3" x="26.38" y="50.39">y</tspan><tspan class="cls-37" x="32.81" y="50.39">pe</tspan><tspan class="cls-36" x="46.41" y="50.39"> </tspan><tspan class="cls-37" x="49.8" y="50.39">1</tspan><tspan class="cls-17" x="57.11" y="50.39">, </tspan><tspan class="cls-73" x="62.98" y="50.39">Dual</tspan><tspan class="cls-59" x="93.01" y="50.39">-</tspan><tspan class="cls-71" x="97.73" y="50.39">Shifts</tspan><tspan class="cls-36" x="133.77" y="50.39"> </tspan><tspan class="cls-24" x="137.16" y="50.39">-</tspan><tspan class="cls-36" x="141.83" y="50.39"> </tspan><tspan class="cls-46" x="145.22" y="50.39">A</tspan><tspan class="cls-15" x="153.46" y="50.39">l</tspan><tspan class="cls-37" x="156.9" y="50.39">pha</tspan><tspan class="cls-36" x="178.8" y="50.39">,</tspan><tspan class="cls-46" x="181.9" y="50.39" xml:space="preserve"> Beta .............</tspan></tspan><tspan><tspan class="cls-17" x="0" y="67.19" xml:space="preserve">      G</tspan><tspan class="cls-37" x="26.68" y="67.19">a</tspan><tspan class="cls-23" x="33.96" y="67.19">mm</tspan><tspan class="cls-37" x="56.76" y="67.19">a</tspan><tspan class="cls-36" x="64.04" y="67.19"> </tspan><tspan class="cls-17" x="67.43" y="67.19">/</tspan><tspan class="cls-36" x="73.95" y="67.19"> </tspan><tspan class="cls-8" x="77.34" y="67.19">T</tspan><tspan class="cls-50" x="85.19" y="67.19">y</tspan><tspan class="cls-37" x="91.64" y="67.19">pe</tspan><tspan class="cls-36" x="105.24" y="67.19"> </tspan><tspan class="cls-17" x="108.63" y="67.19">2 - </tspan><tspan class="cls-71" x="126.65" y="67.19">Shifts</tspan><tspan class="cls-17" x="162.7" y="67.19" xml:space="preserve"> ..............................</tspan></tspan><tspan><tspan class="cls-17" x="0" y="83.99" xml:space="preserve">     </tspan><tspan class="cls-47" x="15.41" y="83.99">T</tspan><tspan class="cls-32" x="23.3" y="83.99">y</tspan><tspan class="cls-41" x="29.72" y="83.99">pe</tspan><tspan class="cls-36" x="43.33" y="83.99"> </tspan><tspan class="cls-37" x="46.72" y="83.99">3</tspan><tspan class="cls-17" x="54.03" y="83.99">/4 - </tspan><tspan class="cls-61" x="78.57" y="83.99">Cross</tspan><tspan class="cls-59" x="113.87" y="83.99">-</tspan><tspan class="cls-71" x="118.59" y="83.99">Shifts</tspan><tspan class="cls-46" x="154.64" y="83.99" xml:space="preserve"> and </tspan><tspan class="cls-60" x="182.98" y="83.99">Dashes</tspan><tspan class="cls-17" x="228.96" y="83.99" xml:space="preserve"> ...... </tspan></tspan><tspan class="cls-85"><tspan class="cls-22" x="0" y="100.79" xml:space="preserve">     </tspan><tspan class="cls-52" x="15.41" y="100.79">T</tspan><tspan class="cls-31" x="23.3" y="100.79">y</tspan><tspan class="cls-34" x="29.72" y="100.79">pe</tspan><tspan class="cls-38" x="43.33" y="100.79"> </tspan><tspan class="cls-54" x="46.72" y="100.79">5</tspan><tspan class="cls-22" x="54.03" y="100.79">/6 - </tspan><tspan class="cls-75" x="78.57" y="100.79">Dual</tspan><tspan class="cls-64" x="108.59" y="100.79">-</tspan><tspan class="cls-66" x="113.3" y="100.79">Dashes</tspan><tspan class="cls-22" x="159.28" y="100.79" xml:space="preserve"> and </tspan><tspan class="cls-72" x="187.63" y="100.79">Statics</tspan><tspan class="cls-22" x="229.91" y="100.79">.......</tspan></tspan><tspan class="cls-85"><tspan class="cls-92" x="0" y="117.58">S</tspan><tspan class="cls-103" x="6.69" y="117.58">t</tspan><tspan class="cls-95" x="11.74" y="117.58">a</tspan><tspan class="cls-103" x="18.49" y="117.58">f</tspan><tspan class="cls-93" x="23.03" y="117.58">f</tspan><tspan class="cls-103" x="27.53" y="117.58"> </tspan><tspan class="cls-96" x="30.92" y="117.58">P</tspan><tspan class="cls-95" x="38.66" y="117.58">o</tspan><tspan class="cls-88" x="46.01" y="117.58">s</tspan><tspan class="cls-102" x="52.01" y="117.58">i</tspan><tspan class="cls-100" x="55.6" y="117.58">t</tspan><tspan class="cls-94" x="60.6" y="117.58">i</tspan><tspan class="cls-98" x="64.2" y="117.58">on</tspan><tspan class="cls-101" x="79.27" y="117.58">s ........................................................</tspan><tspan class="cls-55" x="249.1" y="117.58"> </tspan></tspan><tspan class="cls-86"><tspan class="cls-109" x="0" y="134.38">S</tspan><tspan class="cls-108" x="6.69" y="134.38">t</tspan><tspan class="cls-114" x="11.74" y="134.38">a</tspan><tspan class="cls-108" x="18.49" y="134.38">f</tspan><tspan class="cls-111" x="23.03" y="134.38">f</tspan><tspan class="cls-108" x="27.53" y="134.38"> </tspan><tspan class="cls-125" x="30.92" y="134.38">M</tspan><tspan class="cls-114" x="42.56" y="134.38">o</tspan><tspan class="cls-108" x="49.9" y="134.38">t</tspan><tspan class="cls-118" x="54.95" y="134.38">i</tspan><tspan class="cls-114" x="58.54" y="134.38">on</tspan><tspan class="cls-90" x="73.61" y="134.38">s ..........................................................</tspan></tspan><tspan class="cls-86"><tspan x="0" y="151.17">Negative Space / Body Turns .........................</tspan></tspan><tspan/><tspan class="cls-86"><tspan x="0" y="184.77"> </tspan></tspan><tspan/><tspan/><tspan/><tspan/><tspan/><tspan/><tspan/><tspan/><tspan/><tspan/><tspan/><tspan/><tspan/><tspan/><tspan/><tspan/><tspan/><tspan/><tspan/><tspan/><tspan/><tspan/></text>
  <text class="cls-80" transform="translate(24.75 358.2)"><tspan class="cls-101" x="0" y="0" xml:space="preserve">    </tspan><tspan class="cls-64" x="-3.07" y="50.4">Base Let</tspan><tspan class="cls-63" x="50.74" y="50.4">t</tspan><tspan class="cls-64" x="55.66" y="50.4">ers</tspan><tspan class="cls-101" x="75.98" y="50.4">...........................................................</tspan></text>
  <text class="cls-85" transform="translate(21.69 425.4)"><tspan class="cls-101" x="0" y="0" xml:space="preserve">    </tspan><tspan class="cls-22" x="12.33" y="0"> </tspan><tspan class="cls-28" x="15.41" y="0">D</tspan><tspan class="cls-54" x="24.15" y="0">oub</tspan><tspan class="cls-33" x="45.77" y="0">l</tspan><tspan class="cls-54" x="49.21" y="0">e</tspan><tspan class="cls-38" x="55.52" y="0"> </tspan><tspan class="cls-43" x="58.91" y="0">S</tspan><tspan class="cls-38" x="65.4" y="0">t</tspan><tspan class="cls-39" x="70.54" y="0">a</tspan><tspan class="cls-38" x="77.82" y="0">ff</tspan><tspan class="cls-22" x="86.62" y="0" xml:space="preserve"> ..........................................................</tspan><tspan class="cls-22" x="0" y="16.8"> </tspan></text>
  <text class="cls-9" transform="translate(24.75 442.2)"><tspan x="0" y="0" xml:space="preserve">    </tspan></text>
  <text class="cls-17" transform="translate(37.08 442.2)"><tspan class="cls-57" x="0" y="0">C</tspan><tspan class="cls-113" x="7.24" y="0">l</tspan><tspan class="cls-129" x="10.68" y="0">ub</tspan><tspan class="cls-87" x="25.29" y="0">s</tspan><tspan class="cls-120" x="30.62" y="0" xml:space="preserve"> .......................................................................</tspan></text>
  <text class="cls-9" transform="translate(21.69 459)"><tspan x="0" y="0" xml:space="preserve">     </tspan></text>
  <text class="cls-17" transform="translate(37.1 459)"><tspan class="cls-117" x="0" y="0">B</tspan><tspan class="cls-114" x="8.13" y="0">uugeng</tspan><tspan class="cls-108" x="51.12" y="0"> </tspan><tspan class="cls-121" x="54.51" y="0">(</tspan><tspan class="cls-104" x="59.92" y="0">s</tspan><tspan x="65.28" y="0">ame</tspan><tspan class="cls-121" x="90.22" y="0">)</tspan><tspan x="95.63" y="0" xml:space="preserve"> .................................................</tspan></text>
  <text class="cls-9" transform="translate(21.69 475.8)"><tspan x="0" y="0" xml:space="preserve">     </tspan></text>
  <text class="cls-17" transform="translate(37.1 475.8)"><tspan class="cls-117" x="0" y="0">B</tspan><tspan class="cls-114" x="8.13" y="0">uugeng</tspan><tspan class="cls-108" x="51.12" y="0"> </tspan><tspan class="cls-121" x="54.51" y="0">(</tspan><tspan class="cls-114" x="59.92" y="0">o</tspan><tspan x="66.93" y="0">pp</tspan><tspan class="cls-144" x="81.68" y="0">)</tspan><tspan x="87.13" y="0" xml:space="preserve"> ....................................................</tspan></text>
  <text class="cls-9" transform="translate(21.69 492.6)"><tspan x="0" y="0" xml:space="preserve">     </tspan></text>
  <text class="cls-17" transform="translate(37.1 492.6)"><tspan class="cls-110" x="0" y="0">T</tspan><tspan class="cls-121" x="7.89" y="0">r</tspan><tspan class="cls-113" x="13.8" y="0">i</tspan><tspan class="cls-114" x="17.3" y="0">ad</tspan><tspan class="cls-87" x="31.82" y="0">s</tspan><tspan x="37.15" y="0" xml:space="preserve"> ......................................................................</tspan></text>
  <text class="cls-9" transform="translate(21.69 509.4)"><tspan x="0" y="0" xml:space="preserve">     </tspan></text>
  <text class="cls-17" transform="translate(37.1 509.4)"><tspan class="cls-110" x="0" y="0">F</tspan><tspan class="cls-114" x="7.23" y="0">an</tspan><tspan class="cls-87" x="21.92" y="0">s</tspan><tspan x="27.25" y="0" xml:space="preserve"> .........................................................................</tspan></text>
  <text class="cls-9" transform="translate(21.69 526.2)"><tspan x="0" y="0" xml:space="preserve">     </tspan></text>
  <text class="cls-85" transform="translate(37.1 526.2)"><tspan class="cls-44" x="0" y="0">M</tspan><tspan class="cls-33" x="11.31" y="0">i</tspan><tspan class="cls-54" x="14.81" y="0">n</tspan><tspan class="cls-27" x="22.21" y="0">i</tspan><tspan class="cls-38" x="25.68" y="0"> </tspan><tspan class="cls-1" x="29.07" y="0">H</tspan><tspan class="cls-54" x="38.13" y="0">oop</tspan><tspan class="cls-7" x="59.44" y="0">s</tspan><tspan class="cls-22" x="64.8" y="0" xml:space="preserve"> ...........................................................</tspan><tspan class="cls-69" x="-15.5" y="16.8">T</tspan><tspan class="cls-76" x="-6.74" y="16.8">y</tspan><tspan class="cls-65" x=".71" y="16.8">pe</tspan><tspan class="cls-62" x="16.32" y="16.8"> </tspan><tspan class="cls-67" x="19.71" y="16.8">1 - Dual-Shifts </tspan><tspan class="cls-22" x="112.74" y="16.8">...........................................</tspan><tspan class="cls-22" x="-15.5" y="33.6"> </tspan></text>
  <text class="cls-79" transform="translate(24.75 559.79)"><tspan x="0" y="0" xml:space="preserve">     </tspan></text>
  <text class="cls-17" transform="translate(40.17 559.79)"><tspan class="cls-130" x="0" y="0">A</tspan><tspan class="cls-109" x="8.02" y="0">B</tspan><tspan class="cls-57" x="16.12" y="0">C</tspan><tspan class="cls-108" x="23.36" y="0">,</tspan><tspan class="cls-111" x="26.46" y="0"> </tspan><tspan class="cls-116" x="29.81" y="0">G</tspan><tspan class="cls-131" x="38.31" y="0">H</tspan><tspan x="47.37" y="0">I ................................................................</tspan></text>
  <text class="cls-79" transform="translate(21.69 576.59)"><tspan x="0" y="0" xml:space="preserve">     </tspan></text>
  <text class="cls-17" transform="translate(37.1 576.59)"><tspan class="cls-131" x="0" y="0">D</tspan><tspan class="cls-87" x="8.74" y="0">J</tspan><tspan class="cls-108" x="12.92" y="0">, </tspan><tspan class="cls-109" x="19.4" y="0">E</tspan><tspan class="cls-130" x="27.1" y="0">K</tspan><tspan class="cls-105" x="35.33" y="0">,</tspan><tspan class="cls-108" x="38.39" y="0"> </tspan><tspan class="cls-110" x="41.78" y="0">F</tspan><tspan x="49.01" y="0">L ............................................................... </tspan></text>
  <text class="cls-79" transform="translate(21.69 593.39)"><tspan x="0" y="0" xml:space="preserve">     </tspan></text>
  <text class="cls-85" transform="translate(37.1 593.39)"><tspan class="cls-44" x="0" y="0">M</tspan><tspan class="cls-16" x="11.31" y="0">P</tspan><tspan class="cls-21" x="18.83" y="0">, </tspan><tspan class="cls-1" x="25.31" y="0">N</tspan><tspan class="cls-26" x="34.39" y="0">Q</tspan><tspan class="cls-38" x="43.39" y="0">, </tspan><tspan class="cls-40" x="49.87" y="0">O</tspan><tspan class="cls-28" x="58.87" y="0">R</tspan><tspan class="cls-38" x="66.82" y="0">, </tspan><tspan class="cls-43" x="73.31" y="0">S</tspan><tspan class="cls-52" x="79.79" y="0">T</tspan><tspan class="cls-5" x="87.68" y="0">U</tspan><tspan class="cls-22" x="96.18" y="0">V ..............................................</tspan><tspan class="cls-74" x="-15.5" y="16.8">T</tspan><tspan class="cls-58" x="-6.69" y="16.8">y</tspan><tspan class="cls-65" x=".72" y="16.8">pe</tspan><tspan class="cls-62" x="16.34" y="16.8"> </tspan><tspan class="cls-67" x="19.73" y="16.8">2 - Shifts</tspan></text>
  <text class="cls-80" transform="translate(111.62 610.19)"><tspan class="cls-22" x="0" y="0" xml:space="preserve"> ........................................................</tspan><tspan class="cls-101" x="-89.94" y="16.8" xml:space="preserve">     </tspan><tspan class="cls-22" x="-74.52" y="16.8">WXYZ, Σ</tspan><tspan class="cls-56" x="-26.27" y="16.8">Δ</tspan><tspan class="cls-22" x="-18.54" y="16.8">θΩ</tspan></text>
  <text class="cls-70" transform="translate(21.69 643.79)"><tspan class="cls-110" x="0" y="0">T</tspan><tspan class="cls-77" x="8.81" y="0">y</tspan><tspan class="cls-114" x="16.22" y="0">pe</tspan><tspan class="cls-108" x="31.84" y="0"> </tspan><tspan class="cls-129" x="35.23" y="0">3</tspan><tspan class="cls-108" x="43.43" y="0"> </tspan><tspan class="cls-121" x="46.82" y="0">-</tspan><tspan class="cls-108" x="51.75" y="0"> </tspan><tspan class="cls-57" x="55.14" y="0">C</tspan><tspan class="cls-142" x="62.85" y="0">r</tspan><tspan class="cls-114" x="69.56" y="0">o</tspan><tspan class="cls-136" x="77.45" y="0">ss</tspan><tspan class="cls-142" x="90.27" y="0">-</tspan><tspan class="cls-109" x="95.24" y="0">S</tspan><tspan class="cls-119" x="102.17" y="0">h</tspan><tspan class="cls-113" x="110.43" y="0">i</tspan><tspan class="cls-108" x="114.54" y="0">f</tspan><tspan class="cls-112" x="119.41" y="0">t</tspan><tspan class="cls-90" x="124.79" y="0">s </tspan></text>
  <text class="cls-80" transform="translate(155.25 643.79)"><tspan class="cls-22" x="0" y="0" xml:space="preserve"> ........................................</tspan><tspan class="cls-101" x="-133.56" y="16.8" xml:space="preserve">     </tspan><tspan class="cls-42" x="-118.14" y="16.8">W</tspan><tspan class="cls-13" x="-106.34" y="16.8">-</tspan><tspan class="cls-53" x="-102.59" y="16.8">X</tspan><tspan class="cls-25" x="-95.78" y="16.8">-</tspan><tspan class="cls-10" x="-92.61" y="16.8">Y</tspan><tspan class="cls-11" x="-86.51" y="16.8">-</tspan><tspan class="cls-22" x="-82.39" y="16.8">Z-, Σ</tspan><tspan class="cls-2" x="-57.52" y="16.8">-</tspan><tspan class="cls-19" x="-53.18" y="16.8">Δ</tspan><tspan class="cls-22" x="-45.66" y="16.8">-θ-Ω-.</tspan></text>
  <text class="cls-70" transform="translate(21.69 677.39)"><tspan class="cls-110" x="0" y="0">T</tspan><tspan class="cls-77" x="8.81" y="0">y</tspan><tspan class="cls-114" x="16.22" y="0">pe</tspan><tspan class="cls-108" x="31.84" y="0"> </tspan><tspan class="cls-129" x="35.23" y="0">4</tspan><tspan class="cls-108" x="43.43" y="0">,</tspan><tspan class="cls-114" x="46.99" y="0">5</tspan><tspan class="cls-108" x="55.19" y="0">,</tspan><tspan class="cls-90" x="58.75" y="0">6 - </tspan></text>
  <text class="cls-80" transform="translate(99.18 677.39)"><tspan class="cls-22" x="0" y="0" xml:space="preserve"> ...........................................................</tspan><tspan class="cls-101" x="-77.49" y="16.8" xml:space="preserve">     </tspan><tspan class="cls-97" x="-62.07" y="16.8">Φ</tspan><tspan class="cls-101" x="-52.75" y="16.8">, Ψ, Λ</tspan><tspan class="cls-101" x="-77.49" y="33.6" xml:space="preserve">     Φ-, Ψ-, </tspan><tspan class="cls-91" x="-18.92" y="33.6">Λ</tspan><tspan class="cls-101" x="-10.72" y="33.6">- </tspan><tspan class="cls-101" x="-77.49" y="50.4" xml:space="preserve">     α, β, Γ</tspan></text>
</svg>