<?xml version="1.0" encoding="UTF-8"?>
<svg id="Layer_1" data-name="Layer 1" xmlns="http://www.w3.org/2000/svg" viewBox="0 0 612 792">
  <defs>
    <style>
      .cls-1 {
        letter-spacing: -.03em;
      }

      .cls-1, .cls-2, .cls-3, .cls-4, .cls-5, .cls-6, .cls-7, .cls-8, .cls-9, .cls-10, .cls-11, .cls-12, .cls-13, .cls-14, .cls-15, .cls-16, .cls-17, .cls-18, .cls-19, .cls-20, .cls-21, .cls-22 {
        fill: #231f20;
      }

      .cls-2, .cls-23, .cls-24, .cls-25 {
        font-family: Cambria-Bold, Cambria;
        font-weight: 700;
      }

      .cls-2, .cls-16, .cls-26 {
        letter-spacing: -.03em;
      }

      .cls-27 {
        letter-spacing: -.09em;
      }

      .cls-3, .cls-4, .cls-5, .cls-28, .cls-6, .cls-9, .cls-11, .cls-12, .cls-15, .cls-17, .cls-29 {
        font-family: Cambria, Cambria;
      }

      .cls-3, .cls-30 {
        letter-spacing: -.01em;
      }

      .cls-31 {
        fill: #21409a;
      }

      .cls-4, .cls-32 {
        letter-spacing: -.01em;
      }

      .cls-33, .cls-6 {
        font-size: 14px;
      }

      .cls-23, .cls-34 {
        fill: #00aeef;
      }

      .cls-35, .cls-36, .cls-37, .cls-14, .cls-38 {
        font-family: Cambria-Italic, Cambria;
        font-style: italic;
      }

      .cls-35, .cls-39 {
        letter-spacing: -.02em;
      }

      .cls-40, .cls-36 {
        letter-spacing: -.07em;
      }

      .cls-5, .cls-28, .cls-41 {
        letter-spacing: 0em;
      }

      .cls-7 {
        stroke: #231f20;
        stroke-miterlimit: 10;
      }

      .cls-8 {
        font-family: MonotypeCorsiva, 'Monotype Corsiva';
        font-size: 40px;
      }

      .cls-9, .cls-10 {
        letter-spacing: -.02em;
      }

      .cls-42 {
        letter-spacing: -.07em;
      }

      .cls-11 {
        font-size: 12px;
      }

      .cls-43 {
        letter-spacing: 0em;
      }

      .cls-13 {
        letter-spacing: 0em;
      }

      .cls-14 {
        font-size: 16px;
      }

      .cls-15, .cls-44, .cls-20 {
        letter-spacing: -.01em;
      }

      .cls-38, .cls-45, .cls-22 {
        letter-spacing: 0em;
      }

      .cls-46 {
        letter-spacing: 0em;
      }

      .cls-17, .cls-47 {
        letter-spacing: .01em;
      }

      .cls-18 {
        letter-spacing: -.03em;
      }

      .cls-48, .cls-25 {
        fill: #7f3f98;
      }

      .cls-49 {
        fill: #ed1c24;
      }

      .cls-19 {
        letter-spacing: -.02em;
      }

      .cls-50 {
        letter-spacing: -.01em;
      }

      .cls-51 {
        letter-spacing: -.02em;
      }
    </style>
  </defs>
  <text class="cls-8" transform="translate(162.58 44.76)"><tspan x="0" y="0">Type 1 - Dual-Shifts</tspan></text>
  <text class="cls-33" transform="translate(164.22 81.89)"><tspan class="cls-12" x="0" y="0">When both hands shif</tspan><tspan class="cls-17" x="130.09" y="0">t</tspan><tspan class="cls-12" x="135.04" y="0">, it’s called a </tspan><tspan class="cls-23" x="210.02" y="0">Dual</tspan><tspan class="cls-2" x="240.05" y="0">-</tspan><tspan class="cls-25" x="244.36" y="0">Shift</tspan><tspan class="cls-12" x="273.98" y="0">. </tspan><tspan class="cls-12" x="-109.34" y="16.8">The Alpha/Beta </tspan><tspan class="cls-23" x="-11.63" y="16.8">Dual</tspan><tspan class="cls-2" x="18.4" y="16.8">-</tspan><tspan class="cls-25" x="22.71" y="16.8">Shifts </tspan><tspan class="cls-12" x="61.84" y="16.8">cor</tspan><tspan class="cls-3" x="81.23" y="16.8">r</tspan><tspan class="cls-12" x="86.82" y="16.8">espond </tspan><tspan class="cls-5" x="133.54" y="16.8">t</tspan><tspan class="cls-12" x="138.15" y="16.8">o the </tspan><tspan class="cls-4" x="171.04" y="16.8">f</tspan><tspan class="cls-12" x="175.11" y="16.8">our modes in V</tspan><tspan class="cls-15" x="265.15" y="16.8">T</tspan><tspan class="cls-12" x="273.26" y="16.8">G - (SS, TS, S</tspan><tspan class="cls-9" x="345.96" y="16.8">O</tspan><tspan class="cls-12" x="354.76" y="16.8">, </tspan><tspan class="cls-15" x="360.72" y="16.8">T</tspan><tspan class="cls-12" x="368.83" y="16.8">O).</tspan><tspan class="cls-12"><tspan class="cls-27" x="-111.46" y="33.6">Y</tspan><tspan x="-104.71" y="33.6">ou can de</tspan><tspan class="cls-41" x="-47.96" y="33.6">t</tspan><tspan x="-43.35" y="33.6">ermine the start position </tspan><tspan class="cls-30" x="108.18" y="33.6">b</tspan><tspan x="115.64" y="33.6">y looking at the non-poin</tspan><tspan class="cls-41" x="265.14" y="33.6">t</tspan><tspan x="269.76" y="33.6">ed end of the ar</tspan><tspan class="cls-30" x="362.68" y="33.6">r</tspan><tspan class="cls-46" x="368.26" y="33.6">o</tspan><tspan class="cls-42" x="375.62" y="33.6">w</tspan><tspan x="385.44" y="33.6">.</tspan></tspan></text>
  <text class="cls-33" transform="translate(30.72 687.01)"><tspan class="cls-21"><tspan class="cls-29" x="0" y="0">No</tspan><tspan class="cls-28" x="16.96" y="0">t</tspan><tspan class="cls-29" x="21.57" y="0">e that these combinations can be either </tspan><tspan class="cls-38" x="258.61" y="0">S</tspan><tspan class="cls-37" x="265.21" y="0">pli</tspan><tspan class="cls-35" x="280.12" y="0">t</tspan><tspan class="cls-37" x="284.68" y="0">-Opp </tspan><tspan class="cls-29" x="315.68" y="0">or </tspan><tspan class="cls-36" x="331.98" y="0">T</tspan><tspan class="cls-37" x="339.06" y="0">og-Opp </tspan><tspan class="cls-29" x="384.47" y="0">depending on start position.</tspan></tspan><tspan class="cls-12"><tspan x="41.8" y="16.8">In TKA, these motions a</tspan><tspan class="cls-30" x="183.13" y="16.8">r</tspan><tspan x="188.71" y="16.8">e conside</tspan><tspan class="cls-30" x="244.54" y="16.8">r</tspan><tspan x="250.13" y="16.8">ed α</tspan><tspan x="275.84" y="16.8">→</tspan><tspan x="287.57" y="16.8">β or β</tspan><tspan x="322.51" y="16.8">→</tspan><tspan x="334.24" y="16.8">α </tspan><tspan class="cls-30" x="345.36" y="16.8">r</tspan><tspan x="350.94" y="16.8">e</tspan><tspan class="cls-43" x="357.77" y="16.8">g</tspan><tspan x="364.57" y="16.8">a</tspan><tspan class="cls-30" x="371.41" y="16.8">r</tspan><tspan x="377" y="16.8">dless of the d</tspan><tspan class="cls-46" x="455.4" y="16.8">o</tspan><tspan x="462.76" y="16.8">wnbea</tspan><tspan class="cls-47" x="502.74" y="16.8">t</tspan><tspan x="507.68" y="16.8">.</tspan></tspan><tspan class="cls-12"><tspan x="54.2" y="33.6">Its ca</tspan><tspan class="cls-41" x="85.58" y="33.6">t</tspan><tspan x="90.2" y="33.6">egorization does</tspan><tspan class="cls-26" x="189.25" y="33.6">n</tspan><tspan x="196.65" y="33.6">’t delinea</tspan><tspan class="cls-41" x="251.33" y="33.6">t</tspan><tspan x="255.95" y="33.6">e motions based on up/d</tspan><tspan class="cls-46" x="404.57" y="33.6">o</tspan><tspan x="411.94" y="33.6">wn (absolu</tspan><tspan class="cls-41" x="478.5" y="33.6">t</tspan><tspan x="483.11" y="33.6">e). </tspan></tspan><tspan class="cls-12"><tspan x="2.91" y="50.4">Ins</tspan><tspan class="cls-41" x="21.27" y="50.4">t</tspan><tspan x="25.89" y="50.4">ead, it </tspan><tspan class="cls-32" x="64.98" y="50.4">f</tspan><tspan x="69.05" y="50.4">ocuses on the m</tspan><tspan class="cls-30" x="164.68" y="50.4">o</tspan><tspan class="cls-39" x="171.9" y="50.4">v</tspan><tspan x="178.68" y="50.4">ement bet</tspan><tspan class="cls-50" x="238.85" y="50.4">w</tspan><tspan x="249.52" y="50.4">een positions </tspan><tspan class="cls-30" x="332.17" y="50.4">r</tspan><tspan x="337.75" y="50.4">ela</tspan><tspan class="cls-41" x="355.22" y="50.4">t</tspan><tspan x="359.83" y="50.4">ed </tspan><tspan class="cls-41" x="377.51" y="50.4">t</tspan><tspan x="382.12" y="50.4">o the cen</tspan><tspan class="cls-41" x="435.83" y="50.4">t</tspan><tspan x="440.44" y="50.4">er point (</tspan><tspan class="cls-30" x="496.23" y="50.4">r</tspan><tspan x="501.81" y="50.4">elat</tspan><tspan class="cls-51" x="524.02" y="50.4">i</tspan><tspan class="cls-39" x="527.62" y="50.4">v</tspan><tspan x="534.41" y="50.4">e).</tspan></tspan><tspan class="cls-24"><tspan class="cls-21" x="41.35" y="84">P</tspan><tspan class="cls-19" x="49.95" y="84">r</tspan><tspan class="cls-21" x="56.17" y="84">acti</tspan><tspan class="cls-13" x="79.74" y="84">c</tspan><tspan class="cls-21" x="86.21" y="84">e using </tspan><tspan class="cls-34" x="134.73" y="84">Dual</tspan><tspan class="cls-16" x="164.76" y="84">-</tspan><tspan class="cls-48" x="169.06" y="84">Shifts</tspan><tspan class="cls-21" x="205.11" y="84"> </tspan><tspan class="cls-20" x="208.19" y="84">t</tspan><tspan class="cls-21" x="213.11" y="84">o t</tspan><tspan class="cls-19" x="229.28" y="84">r</tspan><tspan class="cls-18" x="235.5" y="84">a</tspan><tspan class="cls-1" x="242.55" y="84">v</tspan><tspan class="cls-21" x="249.58" y="84">el bet</tspan><tspan class="cls-10" x="285.23" y="84">w</tspan><tspan class="cls-21" x="296.07" y="84">een Alpha and Beta in each mod</tspan><tspan class="cls-22" x="500.46" y="84">e</tspan><tspan class="cls-21" x="507.76" y="84">.</tspan></tspan></text>
  <text/>
  <path class="cls-49" d="m318.3,506.78c.24,1.52-.11,6.48-.11,6.48,0,0-4.96.35-6.48.11-1.15-.19-1.12-1.93-1.12-1.93l4.24-.03-21.24-21.24c-1.08-1.08.44-2.59,1.52-1.52l21.24,21.24.03-4.24s1.74-.03,1.93,1.12Z"/>
  <path class="cls-31" d="m318.3,529.32c.24-1.52-.11-6.48-.11-6.48,0,0-4.96-.35-6.48-.11-1.15.19-1.12,1.93-1.12,1.93l4.24.03-21.24,21.24c-1.08,1.08.44,2.59,1.52,1.52l21.24-21.24.03,4.24s1.74.03,1.93-1.12Z"/>
  <g>
    <path class="cls-31" d="m301.31,517.45h.37s0-.07,0-.1c0-1.14,0-2.29,0-3.43,0-.3.16-.54.43-.62.4-.12.79.18.79.61,0,.99,0,1.97,0,2.96,0,.19,0,.38,0,.58h.36s0-.07,0-.1c0-1.4,0-2.81,0-4.21,0-.36.26-.64.61-.63.35,0,.61.27.61.64,0,1.4,0,2.8,0,4.2,0,.03,0,.07,0,.11h.36v-.1c0-1.11,0-2.23,0-3.34,0-.33.21-.58.54-.63.34-.05.67.23.67.57,0,.42,0,.85,0,1.27,0,1.41,0,2.82,0,4.23,0,.09.02.16.1.21.09.05.19.02.25-.09.23-.4.46-.8.7-1.2.18-.31.48-.41.81-.28.33.14.45.52.26.85-.32.56-.64,1.11-.96,1.67-.24.41-.47.82-.71,1.22-.08.13-.19.25-.31.36-.47.46-.99.84-1.6,1.09-.54.23-1.11.34-1.7.28-1.07-.1-1.86-.64-2.36-1.59-.23-.43-.35-.9-.39-1.39-.02-.23-.03-.46-.03-.69,0-1.54,0-3.08,0-4.62,0-.36.28-.64.62-.63.33,0,.59.28.59.6,0,.7,0,1.4,0,2.1v.09Z"/>
    <path class="cls-49" d="m310.29,517.45h-.37s0-.07,0-.1c0-1.14,0-2.29,0-3.43,0-.3-.16-.54-.43-.62-.4-.12-.79.18-.79.61,0,.99,0,1.97,0,2.96,0,.19,0,.38,0,.58h-.36s0-.07,0-.1c0-1.4,0-2.81,0-4.21,0-.36-.26-.64-.61-.63-.35,0-.61.27-.61.64,0,1.4,0,2.8,0,4.2,0,.03,0,.07,0,.11h-.36v-.1c0-1.11,0-2.23,0-3.34,0-.33-.21-.58-.54-.63-.34-.05-.67.23-.67.57,0,.42,0,.85,0,1.27,0,1.41,0,2.82,0,4.23,0,.09-.02.16-.1.21-.09.05-.19.02-.25-.09-.23-.4-.46-.8-.7-1.2-.18-.31-.48-.41-.81-.28-.33.14-.45.52-.26.85.32.56.64,1.11.96,1.67.24.41.47.82.71,1.22.08.13.19.25.31.36.47.46.99.84,1.6,1.09.54.23,1.11.34,1.7.28,1.07-.1,1.86-.64,2.36-1.59.23-.43.35-.9.39-1.39.02-.23.03-.46.03-.69,0-1.54,0-3.08,0-4.62,0-.36-.28-.64-.62-.63-.33,0-.59.28-.59.6,0,.7,0,1.4,0,2.1v.09Z"/>
  </g>
  <path class="cls-49" d="m391.41,534.64h-.35s0-.07,0-.1c0-1.11,0-2.22,0-3.33,0-.29-.16-.52-.42-.6-.39-.12-.76.17-.76.6,0,.96,0,1.91,0,2.87,0,.19,0,.37,0,.56h-.35s0-.06,0-.09c0-1.36,0-2.72,0-4.08,0-.35-.25-.62-.59-.62-.34,0-.59.27-.59.62,0,1.36,0,2.71,0,4.07,0,.03,0,.06,0,.1h-.35v-.1c0-1.08,0-2.16,0-3.24,0-.32-.21-.56-.52-.61-.32-.05-.65.23-.65.55,0,.41,0,.82,0,1.23,0,1.37,0,2.73,0,4.1,0,.09-.02.16-.1.2-.09.05-.18.02-.24-.08-.23-.39-.45-.78-.68-1.17-.17-.3-.47-.4-.78-.27-.32.14-.44.51-.25.83.31.54.62,1.08.93,1.62.23.4.45.8.69,1.19.08.13.19.24.3.35.45.45.96.82,1.55,1.06.53.22,1.08.33,1.65.27,1.04-.1,1.8-.62,2.29-1.54.22-.42.34-.87.38-1.35.02-.22.03-.45.03-.67,0-1.49,0-2.99,0-4.48,0-.35-.27-.62-.6-.61-.32,0-.57.27-.57.58,0,.68,0,1.36,0,2.04v.09Z"/>
  <path class="cls-49" d="m399.9,547.72c-1.52.24-6.48-.11-6.48-.11,0,0-.35-4.96-.11-6.48.19-1.15,1.93-1.12,1.93-1.12l.03,4.24,21.24-21.24c1.08-1.08,2.59.44,1.52,1.52l-21.24,21.24,4.24.03s.03,1.74-1.12,1.93Z"/>
  <path class="cls-31" d="m385.86,500.3h.35s0-.07,0-.1c0-1.11,0-2.22,0-3.33,0-.29.16-.52.42-.6.39-.12.76.17.76.6,0,.96,0,1.91,0,2.87,0,.19,0,.37,0,.56h.35s0-.06,0-.09c0-1.36,0-2.72,0-4.08,0-.35.25-.62.59-.62.34,0,.59.27.59.62,0,1.36,0,2.71,0,4.07,0,.03,0,.06,0,.1h.35v-.1c0-1.08,0-2.16,0-3.24,0-.32.21-.56.52-.61.32-.05.65.23.65.55,0,.41,0,.82,0,1.23,0,1.37,0,2.73,0,4.1,0,.09.02.16.1.2.09.05.18.02.24-.08.23-.39.45-.78.68-1.17.17-.3.47-.4.78-.27.32.14.44.51.25.83-.31.54-.62,1.08-.93,1.62-.23.4-.45.8-.69,1.19-.08.13-.19.24-.3.35-.45.45-.96.82-1.55,1.06-.53.22-1.08.33-1.65.27-1.04-.1-1.8-.62-2.29-1.54-.22-.42-.34-.87-.38-1.35-.02-.22-.03-.45-.03-.67,0-1.49,0-2.99,0-4.48,0-.35.27-.62.6-.61.32,0,.57.27.57.58,0,.68,0,1.36,0,2.04v.09Z"/>
  <path class="cls-31" d="m399.9,488.38c-1.52-.24-6.48.11-6.48.11,0,0-.35,4.96-.11,6.48.19,1.15,1.93,1.12,1.93,1.12l.03-4.24,21.24,21.24c1.08,1.08,2.59-.44,1.52-1.52l-21.24-21.24,4.24-.03s.03-1.74-1.12-1.93Z"/>
  <path class="cls-49" d="m458.96,529.32c-.24-1.52.11-6.48.11-6.48,0,0,4.96-.35,6.48-.11,1.15.19,1.12,1.93,1.12,1.93l-4.24.03,21.24,21.24c1.08,1.08-.44,2.59-1.52,1.52l-21.24-21.24-.03,4.24s-1.74.03-1.93-1.12Z"/>
  <path class="cls-31" d="m458.96,506.78c-.24,1.52.11,6.48.11,6.48,0,0,4.96.35,6.48.11,1.15-.19,1.12-1.93,1.12-1.93l-4.24-.03,21.24-21.24c1.08-1.08-.44-2.59-1.52-1.52l-21.24,21.24-.03-4.24s-1.74-.03-1.93,1.12Z"/>
  <g>
    <path class="cls-31" d="m466.97,517.45h.37s0-.07,0-.1c0-1.14,0-2.29,0-3.43,0-.3.16-.54.43-.62.4-.12.79.18.79.61,0,.99,0,1.97,0,2.96,0,.19,0,.38,0,.58h.36s0-.07,0-.1c0-1.4,0-2.81,0-4.21,0-.36.26-.64.61-.63.35,0,.61.27.61.64,0,1.4,0,2.8,0,4.2,0,.03,0,.07,0,.11h.36v-.1c0-1.11,0-2.23,0-3.34,0-.33.21-.58.54-.63.34-.05.67.23.67.57,0,.42,0,.85,0,1.27,0,1.41,0,2.82,0,4.23,0,.09.02.16.1.21.09.05.19.02.25-.09.23-.4.46-.8.7-1.2.18-.31.48-.41.81-.28.33.14.45.52.26.85-.32.56-.64,1.11-.96,1.67-.24.41-.47.82-.71,1.22-.08.13-.19.25-.31.36-.47.46-.99.84-1.6,1.09-.54.23-1.11.34-1.7.28-1.07-.1-1.86-.64-2.36-1.59-.23-.43-.35-.9-.39-1.39-.02-.23-.03-.46-.03-.69,0-1.54,0-3.08,0-4.62,0-.36.28-.64.62-.63.33,0,.59.28.59.6,0,.7,0,1.4,0,2.1v.09Z"/>
    <path class="cls-49" d="m475.95,517.45h-.37s0-.07,0-.1c0-1.14,0-2.29,0-3.43,0-.3-.16-.54-.43-.62-.4-.12-.79.18-.79.61,0,.99,0,1.97,0,2.96,0,.19,0,.38,0,.58h-.36s0-.07,0-.1c0-1.4,0-2.81,0-4.21,0-.36-.26-.64-.61-.63-.35,0-.61.27-.61.64,0,1.4,0,2.8,0,4.2,0,.03,0,.07,0,.11h-.36v-.1c0-1.11,0-2.23,0-3.34,0-.33-.21-.58-.54-.63-.34-.05-.67.23-.67.57,0,.42,0,.85,0,1.27,0,1.41,0,2.82,0,4.23,0,.09-.02.16-.1.21-.09.05-.19.02-.25-.09-.23-.4-.46-.8-.7-1.2-.18-.31-.48-.41-.81-.28-.33.14-.45.52-.26.85.32.56.64,1.11.96,1.67.24.41.47.82.71,1.22.08.13.19.25.31.36.47.46.99.84,1.6,1.09.54.23,1.11.34,1.7.28,1.07-.1,1.86-.64,2.36-1.59.23-.43.35-.9.39-1.39.02-.23.03-.46.03-.69,0-1.54,0-3.08,0-4.62,0-.36-.28-.64-.62-.63-.33,0-.59.28-.59.6,0,.7,0,1.4,0,2.1v.09Z"/>
  </g>
  <path class="cls-49" d="m208.58,617.47h-.35s0-.07,0-.1c0-1.11,0-2.22,0-3.33,0-.29-.16-.52-.42-.6-.39-.12-.76.17-.76.6,0,.96,0,1.91,0,2.87,0,.19,0,.37,0,.56h-.35s0-.06,0-.09c0-1.36,0-2.72,0-4.08,0-.35-.25-.62-.59-.62-.34,0-.59.27-.59.62,0,1.36,0,2.71,0,4.07,0,.03,0,.06,0,.1h-.35v-.1c0-1.08,0-2.16,0-3.24,0-.32-.21-.56-.52-.61-.32-.05-.65.23-.65.55,0,.41,0,.82,0,1.23,0,1.37,0,2.73,0,4.1,0,.09-.02.16-.1.2-.09.05-.18.02-.24-.08-.23-.39-.45-.78-.68-1.17-.17-.3-.47-.4-.78-.27-.32.14-.44.51-.25.83.31.54.62,1.08.93,1.62.23.4.45.8.69,1.19.08.13.19.24.3.35.45.45.96.82,1.55,1.06.53.22,1.08.33,1.65.27,1.04-.1,1.8-.62,2.29-1.54.22-.42.34-.87.38-1.35.02-.22.03-.45.03-.67,0-1.49,0-2.99,0-4.48,0-.35-.27-.62-.6-.61-.32,0-.57.27-.57.58,0,.68,0,1.36,0,2.04v.09Z"/>
  <path class="cls-31" d="m168.69,617.47h.35s0-.07,0-.1c0-1.11,0-2.22,0-3.33,0-.29.16-.52.42-.6.39-.12.76.17.76.6,0,.96,0,1.91,0,2.87,0,.19,0,.37,0,.56h.35s0-.06,0-.09c0-1.36,0-2.72,0-4.08,0-.35.25-.62.59-.62.34,0,.59.27.59.62,0,1.36,0,2.71,0,4.07,0,.03,0,.06,0,.1h.35v-.1c0-1.08,0-2.16,0-3.24,0-.32.21-.56.52-.61.32-.05.65.23.65.55,0,.41,0,.82,0,1.23,0,1.37,0,2.73,0,4.1,0,.09.02.16.1.2.09.05.18.02.24-.08.23-.39.45-.78.68-1.17.17-.3.47-.4.78-.27.32.14.44.51.25.83-.31.54-.62,1.08-.93,1.62-.23.4-.45.8-.69,1.19-.08.13-.19.24-.3.35-.45.45-.96.82-1.55,1.06-.53.22-1.08.33-1.65.27-1.04-.1-1.8-.62-2.29-1.54-.22-.42-.34-.87-.38-1.35-.02-.22-.03-.45-.03-.67,0-1.49,0-2.99,0-4.48,0-.35.27-.62.6-.61.32,0,.57.27.57.58,0,.68,0,1.36,0,2.04v.09Z"/>
  <path class="cls-49" d="m218.3,606.78c.24,1.52-.11,6.48-.11,6.48,0,0-4.96.35-6.48.11-1.15-.19-1.12-1.93-1.12-1.93l4.24-.03-21.24-21.24c-1.08-1.08.44-2.59,1.52-1.52l21.24,21.24.03-4.24s1.74-.03,1.93,1.12Z"/>
  <path class="cls-31" d="m158.96,606.78c-.24,1.52.11,6.48.11,6.48,0,0,4.96.35,6.48.11,1.15-.19,1.12-1.93,1.12-1.93l-4.24-.03,21.24-21.24c1.08-1.08-.44-2.59-1.52-1.52l-21.24,21.24-.03-4.24s-1.74-.03-1.93,1.12Z"/>
  <path class="cls-49" d="m299.9,647.72c-1.52.24-6.48-.11-6.48-.11,0,0-.35-4.96-.11-6.48.19-1.15,1.93-1.12,1.93-1.12l.03,4.24,21.24-21.24c1.08-1.08,2.59.44,1.52,1.52l-21.24,21.24,4.24.03s.03,1.74-1.12,1.93Z"/>
  <path class="cls-31" d="m277.36,647.72c1.52.24,6.48-.11,6.48-.11,0,0,.35-4.96.11-6.48-.19-1.15-1.93-1.12-1.93-1.12l-.03,4.24-21.24-21.24c-1.08-1.08-2.59.44-1.52,1.52l21.24,21.24-4.24.03s-.03,1.74,1.12,1.93Z"/>
  <g>
    <path class="cls-31" d="m284.14,634.62h.37s0-.07,0-.1c0-1.14,0-2.29,0-3.43,0-.3.16-.54.43-.62.4-.12.79.18.79.61,0,.99,0,1.97,0,2.96,0,.19,0,.38,0,.58h.36s0-.07,0-.1c0-1.4,0-2.81,0-4.21,0-.36.26-.64.61-.63.35,0,.61.27.61.64,0,1.4,0,2.8,0,4.2,0,.03,0,.07,0,.11h.36v-.1c0-1.11,0-2.23,0-3.34,0-.33.21-.58.54-.63.34-.05.67.23.67.57,0,.42,0,.85,0,1.27,0,1.41,0,2.82,0,4.23,0,.09.02.16.1.21.09.05.19.02.25-.09.23-.4.46-.8.7-1.2.18-.31.48-.41.81-.28.33.14.45.52.26.85-.32.56-.64,1.11-.96,1.67-.24.41-.47.82-.71,1.22-.08.13-.19.25-.31.36-.47.46-.99.84-1.6,1.09-.54.23-1.11.34-1.7.28-1.07-.1-1.86-.64-2.36-1.59-.23-.43-.35-.9-.39-1.39-.02-.23-.03-.46-.03-.69,0-1.54,0-3.08,0-4.62,0-.36.28-.64.62-.63.33,0,.59.28.59.6,0,.7,0,1.4,0,2.1v.09Z"/>
    <path class="cls-49" d="m293.12,634.62h-.37s0-.07,0-.1c0-1.14,0-2.29,0-3.43,0-.3-.16-.54-.43-.62-.4-.12-.79.18-.79.61,0,.99,0,1.97,0,2.96,0,.19,0,.38,0,.58h-.36s0-.07,0-.1c0-1.4,0-2.81,0-4.21,0-.36-.26-.64-.61-.63-.35,0-.61.27-.61.64,0,1.4,0,2.8,0,4.2,0,.03,0,.07,0,.11h-.36v-.1c0-1.11,0-2.23,0-3.34,0-.33-.21-.58-.54-.63-.34-.05-.67.23-.67.57,0,.42,0,.85,0,1.27,0,1.41,0,2.82,0,4.23,0,.09-.02.16-.1.21-.09.05-.19.02-.25-.09-.23-.4-.46-.8-.7-1.2-.18-.31-.48-.41-.81-.28-.33.14-.45.52-.26.85.32.56.64,1.11.96,1.67.24.41.47.82.71,1.22.08.13.19.25.31.36.47.46.99.84,1.6,1.09.54.23,1.11.34,1.7.28,1.07-.1,1.86-.64,2.36-1.59.23-.43.35-.9.39-1.39.02-.23.03-.46.03-.69,0-1.54,0-3.08,0-4.62,0-.36-.28-.64-.62-.63-.33,0-.59.28-.59.6,0,.7,0,1.4,0,2.1v.09Z"/>
  </g>
  <path class="cls-49" d="m374.23,617.47h-.35s0-.07,0-.1c0-1.11,0-2.22,0-3.33,0-.29-.16-.52-.42-.6-.39-.12-.76.17-.76.6,0,.96,0,1.91,0,2.87,0,.19,0,.37,0,.56h-.35s0-.06,0-.09c0-1.36,0-2.72,0-4.08,0-.35-.25-.62-.59-.62-.34,0-.59.27-.59.62,0,1.36,0,2.71,0,4.07,0,.03,0,.06,0,.1h-.35v-.1c0-1.08,0-2.16,0-3.24,0-.32-.21-.56-.52-.61-.32-.05-.65.23-.65.55,0,.41,0,.82,0,1.23,0,1.37,0,2.73,0,4.1,0,.09-.02.16-.1.2-.09.05-.18.02-.24-.08-.23-.39-.45-.78-.68-1.17-.17-.3-.47-.4-.78-.27-.32.14-.44.51-.25.83.31.54.62,1.08.93,1.62.23.4.45.8.69,1.19.08.13.19.24.3.35.45.45.96.82,1.55,1.06.53.22,1.08.33,1.65.27,1.04-.1,1.8-.62,2.29-1.54.22-.42.34-.87.38-1.35.02-.22.03-.45.03-.67,0-1.49,0-2.99,0-4.48,0-.35-.27-.62-.6-.61-.32,0-.57.27-.57.58,0,.68,0,1.36,0,2.04v.09Z"/>
  <path class="cls-49" d="m358.96,629.32c-.24-1.52.11-6.48.11-6.48,0,0,4.96-.35,6.48-.11,1.15.19,1.12,1.93,1.12,1.93l-4.24.03,21.24,21.24c1.08,1.08-.44,2.59-1.52,1.52l-21.24-21.24-.03,4.24s-1.74.03-1.93-1.12Z"/>
  <path class="cls-31" d="m403.03,617.47h.35s0-.07,0-.1c0-1.11,0-2.22,0-3.33,0-.29.16-.52.42-.6.39-.12.76.17.76.6,0,.96,0,1.91,0,2.87,0,.19,0,.37,0,.56h.35s0-.06,0-.09c0-1.36,0-2.72,0-4.08,0-.35.25-.62.59-.62.34,0,.59.27.59.62,0,1.36,0,2.71,0,4.07,0,.03,0,.06,0,.1h.35v-.1c0-1.08,0-2.16,0-3.24,0-.32.21-.56.52-.61.32-.05.65.23.65.55,0,.41,0,.82,0,1.23,0,1.37,0,2.73,0,4.1,0,.09.02.16.1.2.09.05.18.02.24-.08.23-.39.45-.78.68-1.17.17-.3.47-.4.78-.27.32.14.44.51.25.83-.31.54-.62,1.08-.93,1.62-.23.4-.45.8-.69,1.19-.08.13-.19.24-.3.35-.45.45-.96.82-1.55,1.06-.53.22-1.08.33-1.65.27-1.04-.1-1.8-.62-2.29-1.54-.22-.42-.34-.87-.38-1.35-.02-.22-.03-.45-.03-.67,0-1.49,0-2.99,0-4.48,0-.35.27-.62.6-.61.32,0,.57.27.57.58,0,.68,0,1.36,0,2.04v.09Z"/>
  <path class="cls-31" d="m418.3,629.32c.24-1.52-.11-6.48-.11-6.48,0,0-4.96-.35-6.48-.11-1.15.19-1.12,1.93-1.12,1.93l4.24.03-21.24,21.24c-1.08,1.08.44,2.59,1.52,1.52l21.24-21.24.03,4.24s1.74.03,1.93-1.12Z"/>
  <path class="cls-49" d="m477.36,588.38c1.52-.24,6.48.11,6.48.11,0,0,.35,4.96.11,6.48-.19,1.15-1.93,1.12-1.93,1.12l-.03-4.24-21.24,21.24c-1.08,1.08-2.59-.44-1.52-1.52l21.24-21.24-4.24-.03s-.03-1.74,1.12-1.93Z"/>
  <path class="cls-31" d="m499.9,588.38c-1.52-.24-6.48.11-6.48.11,0,0-.35,4.96-.11,6.48.19,1.15,1.93,1.12,1.93,1.12l.03-4.24,21.24,21.24c1.08,1.08,2.59-.44,1.52-1.52l-21.24-21.24,4.24-.03s.03-1.74-1.12-1.93Z"/>
  <g>
    <path class="cls-31" d="m484.14,600.28h.37s0-.07,0-.1c0-1.14,0-2.29,0-3.43,0-.3.16-.54.43-.62.4-.12.79.18.79.61,0,.99,0,1.97,0,2.96,0,.19,0,.38,0,.58h.36s0-.07,0-.1c0-1.4,0-2.81,0-4.21,0-.36.26-.64.61-.63.35,0,.61.27.61.64,0,1.4,0,2.8,0,4.2,0,.03,0,.07,0,.11h.36v-.1c0-1.11,0-2.23,0-3.34,0-.33.21-.58.54-.63.34-.05.67.23.67.57,0,.42,0,.85,0,1.27,0,1.41,0,2.82,0,4.23,0,.09.02.16.1.21.09.05.19.02.25-.09.23-.4.46-.8.7-1.2.18-.31.48-.41.81-.28.33.14.45.52.26.85-.32.56-.64,1.11-.96,1.67-.24.41-.47.82-.71,1.22-.08.13-.19.25-.31.36-.47.46-.99.84-1.6,1.09-.54.23-1.11.34-1.7.28-1.07-.1-1.86-.64-2.36-1.59-.23-.43-.35-.9-.39-1.39-.02-.23-.03-.46-.03-.69,0-1.54,0-3.08,0-4.62,0-.36.28-.64.62-.63.33,0,.59.28.59.6,0,.7,0,1.4,0,2.1v.09Z"/>
    <path class="cls-49" d="m493.12,600.28h-.37s0-.07,0-.1c0-1.14,0-2.29,0-3.43,0-.3-.16-.54-.43-.62-.4-.12-.79.18-.79.61,0,.99,0,1.97,0,2.96,0,.19,0,.38,0,.58h-.36s0-.07,0-.1c0-1.4,0-2.81,0-4.21,0-.36-.26-.64-.61-.63-.35,0-.61.27-.61.64,0,1.4,0,2.8,0,4.2,0,.03,0,.07,0,.11h-.36v-.1c0-1.11,0-2.23,0-3.34,0-.33-.21-.58-.54-.63-.34-.05-.67.23-.67.57,0,.42,0,.85,0,1.27,0,1.41,0,2.82,0,4.23,0,.09-.02.16-.1.21-.09.05-.19.02-.25-.09-.23-.4-.46-.8-.7-1.2-.18-.31-.48-.41-.81-.28-.33.14-.45.52-.26.85.32.56.64,1.11.96,1.67.24.41.47.82.71,1.22.08.13.19.25.31.36.47.46.99.84,1.6,1.09.54.23,1.11.34,1.7.28,1.07-.1,1.86-.64,2.36-1.59.23-.43.35-.9.39-1.39.02-.23.03-.46.03-.69,0-1.54,0-3.08,0-4.62,0-.36-.28-.64-.62-.63-.33,0-.59.28-.59.6,0,.7,0,1.4,0,2.1v.09Z"/>
  </g>
  <text class="cls-14" transform="translate(75.79 590.45)"><tspan class="cls-40" x="0" y="0">T</tspan><tspan x="8.09" y="0">og-Opp</tspan></text>
  <text class="cls-14" transform="translate(75.79 479.3)"><tspan class="cls-45" x="0" y="0">S</tspan><tspan x="7.55" y="0">pli</tspan><tspan class="cls-39" x="24.58" y="0">t</tspan><tspan x="29.79" y="0">-Opp</tspan></text>
  <line class="cls-7" x1="72.11" y1="568.16" x2="527.63" y2="568.16"/>
  <g>
    <text class="cls-11" transform="translate(151.46 472.57)"><tspan x="0" y="0">1</tspan></text>
    <text class="cls-11" transform="translate(241.36 472.57)"><tspan x="0" y="0">2</tspan></text>
    <text class="cls-11" transform="translate(331.45 472.57)"><tspan x="0" y="0">3</tspan></text>
    <text class="cls-11" transform="translate(421.36 472.57)"><tspan x="0" y="0">4</tspan></text>
  </g>
  <g>
    <text class="cls-11" transform="translate(151.46 585.07)"><tspan x="0" y="0">1</tspan></text>
    <text class="cls-11" transform="translate(241.36 585.07)"><tspan x="0" y="0">2</tspan></text>
    <text class="cls-11" transform="translate(331.45 585.07)"><tspan x="0" y="0">3</tspan></text>
    <text class="cls-11" transform="translate(421.36 585.07)"><tspan x="0" y="0">4</tspan></text>
  </g>
  <text class="cls-6" transform="translate(44.53 348.64)"><tspan x="0" y="0" xml:space="preserve"> While V</tspan><tspan class="cls-44" x="49.76" y="0">T</tspan><tspan x="57.87" y="0">G ca</tspan><tspan class="cls-41" x="82.51" y="0">t</tspan><tspan x="87.12" y="0">egorizes ind</tspan><tspan class="cls-51" x="159.74" y="0">i</tspan><tspan x="163.35" y="0">vidual motions in</tspan><tspan class="cls-41" x="267.26" y="0">t</tspan><tspan x="271.88" y="0">o the </tspan><tspan class="cls-32" x="304.77" y="0">f</tspan><tspan x="308.83" y="0">our modes based on the d</tspan><tspan class="cls-46" x="462.3" y="0">o</tspan><tspan x="469.66" y="0">wnbea</tspan><tspan class="cls-47" x="509.65" y="0">t</tspan><tspan x="514.59" y="0">,</tspan><tspan x="-32" y="16.8">TKA puts </tspan><tspan class="cls-32" x="26.27" y="16.8">f</tspan><tspan x="30.33" y="16.8">ocus on the combination of t</tspan><tspan class="cls-50" x="199.37" y="16.8">w</tspan><tspan x="210.03" y="16.8">o motions bet</tspan><tspan class="cls-50" x="291.82" y="16.8">w</tspan><tspan x="302.49" y="16.8">een positions, </tspan><tspan class="cls-30" x="388" y="16.8">r</tspan><tspan x="393.59" y="16.8">elat</tspan><tspan class="cls-51" x="415.79" y="16.8">i</tspan><tspan class="cls-39" x="419.4" y="16.8">v</tspan><tspan x="426.18" y="16.8">e </tspan><tspan class="cls-41" x="436.1" y="16.8">t</tspan><tspan x="440.71" y="16.8">o the cen</tspan><tspan class="cls-41" x="494.41" y="16.8">t</tspan><tspan x="499.03" y="16.8">er poin</tspan><tspan class="cls-47" x="541.65" y="16.8">t</tspan><tspan x="546.59" y="16.8">.</tspan><tspan x="258.73" y="33.6"> </tspan></text>
  <g>
    <g>
      <path class="cls-21" d="m177.05,445.34c-.18-.22-.39-.42-.59-.59,3.31-3.76-4.43-6.09-4.53-1.52-.01,2.17-.02,3.88-.02,6.06-.77-.24-1.63.26-1.76,1.1-.08,2.12,2.05,1.76,2.82.83.29-.35.4-.63.5-1.7,2.9,1.54,5.17-1.67,3.58-4.18Zm-1.25,2.91c-.87.68-1.26.01-1.87-.16-.13-.04-.28-.03-.42.03,0-1.73,0-3.44.02-5.2-.15-.97,1.24-1.29,1.85-.63.51.55.42,1.49-.19,1.71-1.99-.53-1.8,2.34,0,1.62.85.25,1.48,1.74.61,2.63Z"/>
      <path class="cls-21" d="m207.47,447.64c-.65,0-.94.25-1.28.66-.17.19-.39,1.18-.75.55-.75-1.29.02-4.57,1.06-6.02.28-.37-.11-.59-.3-.7,0,0-.42-.22-.64-.14-.29.1-.6-.12-1.39,1.64-1.19-1.37-2.58-1.19-3.53-1.15-.84.04-3.37.97-3.37,3.93,0,3.55,3.05,4.21,3.97,4.21s2.48-.6,2.88-.96c.24.72.67,1.16,1.21,1.27.84.18,1.21-.24,1.55-.71.49-.67,1.06-2.57.59-2.58Zm-6.23,1c-1.22,0-2.22-1.01-2.22-2.23s1-2.22,2.22-2.22,2.23,1.01,2.23,2.22-1.01,2.23-2.23,2.23Z"/>
      <path class="cls-21" d="m180.89,445.78h10.69l-1.95-2.21.87-.83,3.45,3.32v.97l-3.45,3.32-.87-.83,1.95-2.21h-10.69v-1.52Z"/>
    </g>
    <g>
      <path class="cls-21" d="m280.32,447.5c-.65,0-.94.25-1.28.66-.17.19-.39,1.18-.75.55-.75-1.29.02-4.57,1.06-6.02.28-.37-.11-.59-.3-.7,0,0-.42-.22-.64-.14-.29.1-.6-.12-1.39,1.64-1.19-1.37-2.58-1.19-3.53-1.15-.84.04-3.37.97-3.37,3.93,0,3.55,3.05,4.21,3.97,4.21s2.48-.6,2.88-.96c.24.72.67,1.16,1.21,1.27.84.18,1.21-.24,1.55-.71.49-.67,1.06-2.57.59-2.58Zm-6.23,1c-1.22,0-2.22-1.01-2.22-2.23s1-2.22,2.22-2.22,2.23,1.01,2.23,2.22-1.01,2.23-2.23,2.23Z"/>
      <path class="cls-21" d="m307.14,445.34c-.18-.22-.39-.42-.59-.59,3.31-3.76-4.43-6.09-4.53-1.52-.01,2.17-.02,3.88-.02,6.06-.77-.24-1.63.26-1.76,1.1-.08,2.12,2.05,1.76,2.82.83.29-.35.4-.63.5-1.7,2.9,1.54,5.17-1.67,3.58-4.18Zm-1.25,2.91c-.87.68-1.26.01-1.87-.16-.13-.04-.28-.03-.42.03,0-1.73,0-3.44.02-5.2-.15-.97,1.24-1.29,1.85-.63.51.55.42,1.49-.19,1.71-1.99-.53-1.8,2.34,0,1.62.85.25,1.48,1.74.61,2.63Z"/>
      <path class="cls-21" d="m283.71,445.78h10.69l-1.95-2.21.87-.83,3.45,3.32v.97l-3.45,3.32-.87-.83,1.95-2.21h-10.69v-1.52Z"/>
    </g>
    <g>
      <path class="cls-21" d="m406.87,447.43c-.65,0-.94.25-1.28.66-.17.19-.39,1.18-.75.55-.75-1.29.02-4.57,1.06-6.02.28-.37-.11-.59-.3-.7,0,0-.42-.22-.64-.14-.29.1-.6-.12-1.39,1.64-1.19-1.37-2.58-1.19-3.53-1.15-.84.04-3.37.97-3.37,3.93,0,3.55,3.05,4.21,3.97,4.21s2.48-.6,2.88-.96c.24.72.67,1.16,1.21,1.27.84.18,1.21-.24,1.55-.71.49-.67,1.06-2.57.59-2.58Zm-6.23,1c-1.22,0-2.22-1.01-2.22-2.23s1-2.22,2.22-2.22,2.23,1.01,2.23,2.22-1.01,2.23-2.23,2.23Z"/>
      <path class="cls-21" d="m377.64,445.34c-.18-.22-.39-.42-.59-.59,3.31-3.76-4.43-6.09-4.53-1.52-.01,2.17-.02,3.88-.02,6.06-.77-.24-1.63.26-1.76,1.1-.08,2.12,2.05,1.76,2.82.83.29-.35.4-.63.5-1.7,2.9,1.54,5.17-1.67,3.58-4.18Zm-1.25,2.91c-.87.68-1.26.01-1.87-.16-.13-.04-.28-.03-.42.03,0-1.73,0-3.44.02-5.2-.15-.97,1.24-1.29,1.85-.63.51.55.42,1.49-.19,1.71-1.99-.53-1.8,2.34,0,1.62.85.25,1.48,1.74.61,2.63Z"/>
      <path class="cls-21" d="m380.97,445.57h10.69l-1.95-2.21.87-.83,3.45,3.32v.97l-3.45,3.32-.87-.83,1.95-2.21h-10.69v-1.52Z"/>
    </g>
    <g>
      <path class="cls-21" d="m480.32,447.5c-.65,0-.94.25-1.28.66-.17.19-.39,1.18-.75.55-.75-1.29.02-4.57,1.06-6.02.28-.37-.11-.59-.3-.7,0,0-.42-.22-.64-.14-.29.1-.6-.12-1.39,1.64-1.19-1.37-2.58-1.19-3.53-1.15-.84.04-3.37.97-3.37,3.93,0,3.55,3.05,4.21,3.97,4.21s2.48-.6,2.88-.96c.24.72.67,1.16,1.21,1.27.84.18,1.21-.24,1.55-.71.49-.67,1.06-2.57.59-2.58Zm-6.23,1c-1.22,0-2.22-1.01-2.22-2.23s1-2.22,2.22-2.22,2.23,1.01,2.23,2.22-1.01,2.23-2.23,2.23Z"/>
      <path class="cls-21" d="m507.14,445.34c-.18-.22-.39-.42-.59-.59,3.31-3.76-4.43-6.09-4.53-1.52-.01,2.17-.02,3.88-.02,6.06-.77-.24-1.63.26-1.76,1.1-.08,2.12,2.05,1.76,2.82.83.29-.35.4-.63.5-1.7,2.9,1.54,5.17-1.67,3.58-4.18Zm-1.25,2.91c-.87.68-1.26.01-1.87-.16-.13-.04-.28-.03-.42.03,0-1.73,0-3.44.02-5.2-.15-.97,1.24-1.29,1.85-.63.51.55.42,1.49-.19,1.71-1.99-.53-1.8,2.34,0,1.62.85.25,1.48,1.74.61,2.63Z"/>
      <path class="cls-21" d="m483.63,445.78h10.69l-1.95-2.21.87-.83,3.45,3.32v.97l-3.45,3.32-.87-.83,1.95-2.21h-10.69v-1.52Z"/>
    </g>
  </g>
  <text class="cls-33" transform="translate(199.54 398.49)"><tspan class="cls-12" x="0" y="0">Let’s try another type of </tspan><tspan class="cls-23" x="146.43" y="0">Dual</tspan><tspan class="cls-2" x="176.46" y="0">-</tspan><tspan class="cls-25" x="180.76" y="0">Shift</tspan><tspan class="cls-12" x="210.38" y="0">.</tspan><tspan class="cls-12"><tspan x="-36.48" y="16.8">What happens </tspan><tspan class="cls-45" x="52.68" y="16.8">w</tspan><tspan x="63.38" y="16.8">hen </tspan><tspan class="cls-50" x="88.83" y="16.8">w</tspan><tspan x="99.5" y="16.8">e m</tspan><tspan class="cls-30" x="121.06" y="16.8">o</tspan><tspan class="cls-39" x="128.28" y="16.8">v</tspan><tspan x="135.06" y="16.8">e bet</tspan><tspan class="cls-50" x="164.21" y="16.8">w</tspan><tspan x="174.87" y="16.8">een α and β?</tspan></tspan></text>
  <g>
    <g>
      <path class="cls-21" d="m188.63,619.55c1.93,0,1.93-3,0-3s-1.93,3,0,3h0Z"/>
      <circle class="cls-21" cx="224.63" cy="618.05" r="3"/>
      <circle class="cls-21" cx="188.63" cy="654.05" r="3"/>
      <circle class="cls-21" cx="152.63" cy="618.05" r="3"/>
      <circle class="cls-21" cx="188.63" cy="582.05" r="3"/>
    </g>
    <g>
      <path class="cls-21" d="m288.63,619.55c1.93,0,1.93-3,0-3s-1.93,3,0,3h0Z"/>
      <circle class="cls-21" cx="324.63" cy="618.05" r="3"/>
      <circle class="cls-21" cx="288.63" cy="654.05" r="3"/>
      <circle class="cls-21" cx="252.63" cy="618.05" r="3"/>
      <circle class="cls-21" cx="288.63" cy="582.05" r="3"/>
    </g>
    <g>
      <path class="cls-21" d="m388.63,619.55c1.93,0,1.93-3,0-3s-1.93,3,0,3h0Z"/>
      <circle class="cls-21" cx="424.63" cy="618.05" r="3"/>
      <circle class="cls-21" cx="388.63" cy="654.05" r="3"/>
      <circle class="cls-21" cx="352.63" cy="618.05" r="3"/>
      <circle class="cls-21" cx="388.63" cy="582.05" r="3"/>
    </g>
    <g>
      <path class="cls-21" d="m488.63,619.55c1.93,0,1.93-3,0-3s-1.93,3,0,3h0Z"/>
      <circle class="cls-21" cx="524.63" cy="618.05" r="3"/>
      <circle class="cls-21" cx="488.63" cy="654.05" r="3"/>
      <circle class="cls-21" cx="452.63" cy="618.05" r="3"/>
      <circle class="cls-21" cx="488.63" cy="582.05" r="3"/>
    </g>
  </g>
  <g>
    <g>
      <path class="cls-21" d="m188.63,519.55c1.93,0,1.93-3,0-3s-1.93,3,0,3h0Z"/>
      <circle class="cls-21" cx="224.63" cy="518.05" r="3"/>
      <circle class="cls-21" cx="188.63" cy="554.05" r="3"/>
      <circle class="cls-21" cx="152.63" cy="518.05" r="3"/>
      <circle class="cls-21" cx="188.63" cy="482.05" r="3"/>
    </g>
    <g>
      <path class="cls-21" d="m288.63,519.55c1.93,0,1.93-3,0-3s-1.93,3,0,3h0Z"/>
      <circle class="cls-21" cx="324.63" cy="518.05" r="3"/>
      <circle class="cls-21" cx="288.63" cy="554.05" r="3"/>
      <circle class="cls-21" cx="252.63" cy="518.05" r="3"/>
      <circle class="cls-21" cx="288.63" cy="482.05" r="3"/>
    </g>
    <g>
      <path class="cls-21" d="m388.63,519.55c1.93,0,1.93-3,0-3s-1.93,3,0,3h0Z"/>
      <circle class="cls-21" cx="424.63" cy="518.05" r="3"/>
      <circle class="cls-21" cx="388.63" cy="554.05" r="3"/>
      <circle class="cls-21" cx="352.63" cy="518.05" r="3"/>
      <circle class="cls-21" cx="388.63" cy="482.05" r="3"/>
    </g>
    <g>
      <path class="cls-21" d="m488.63,519.55c1.93,0,1.93-3,0-3s-1.93,3,0,3h0Z"/>
      <circle class="cls-21" cx="524.63" cy="518.05" r="3"/>
      <circle class="cls-21" cx="488.63" cy="554.05" r="3"/>
      <circle class="cls-21" cx="452.63" cy="518.05" r="3"/>
      <circle class="cls-21" cx="488.63" cy="482.05" r="3"/>
    </g>
  </g>
  <g>
    <path class="cls-21" d="m218.06,184.6c1.93,0,1.93-3,0-3s-1.93,3,0,3h0Z"/>
    <circle class="cls-21" cx="254.06" cy="183.1" r="3"/>
    <circle class="cls-21" cx="218.06" cy="219.1" r="3"/>
    <circle class="cls-21" cx="182.06" cy="183.1" r="3"/>
    <circle class="cls-21" cx="218.06" cy="147.1" r="3"/>
  </g>
  <g>
    <path class="cls-21" d="m318.06,184.6c1.93,0,1.93-3,0-3s-1.93,3,0,3h0Z"/>
    <circle class="cls-21" cx="354.06" cy="183.1" r="3"/>
    <circle class="cls-21" cx="318.06" cy="219.1" r="3"/>
    <circle class="cls-21" cx="282.06" cy="183.1" r="3"/>
    <circle class="cls-21" cx="318.06" cy="147.1" r="3"/>
  </g>
  <g>
    <path class="cls-21" d="m418.06,184.6c1.93,0,1.93-3,0-3s-1.93,3,0,3h0Z"/>
    <circle class="cls-21" cx="454.06" cy="183.1" r="3"/>
    <circle class="cls-21" cx="418.06" cy="219.1" r="3"/>
    <circle class="cls-21" cx="382.06" cy="183.1" r="3"/>
    <circle class="cls-21" cx="418.06" cy="147.1" r="3"/>
  </g>
  <g>
    <path class="cls-21" d="m518.06,184.6c1.93,0,1.93-3,0-3s-1.93,3,0,3h0Z"/>
    <circle class="cls-21" cx="554.06" cy="183.1" r="3"/>
    <circle class="cls-21" cx="518.06" cy="219.1" r="3"/>
    <circle class="cls-21" cx="482.06" cy="183.1" r="3"/>
    <circle class="cls-21" cx="518.06" cy="147.1" r="3"/>
  </g>
  <g>
    <path class="cls-21" d="m218.06,284.6c1.93,0,1.93-3,0-3s-1.93,3,0,3h0Z"/>
    <circle class="cls-21" cx="254.06" cy="283.1" r="3"/>
    <circle class="cls-21" cx="218.06" cy="319.1" r="3"/>
    <circle class="cls-21" cx="182.06" cy="283.1" r="3"/>
    <circle class="cls-21" cx="218.06" cy="247.1" r="3"/>
  </g>
  <g>
    <path class="cls-21" d="m318.06,284.6c1.93,0,1.93-3,0-3s-1.93,3,0,3h0Z"/>
    <circle class="cls-21" cx="354.06" cy="283.1" r="3"/>
    <circle class="cls-21" cx="318.06" cy="319.1" r="3"/>
    <circle class="cls-21" cx="282.06" cy="283.1" r="3"/>
    <circle class="cls-21" cx="318.06" cy="247.1" r="3"/>
  </g>
  <path class="cls-49" d="m190.95,500.3h-.35s0-.07,0-.1c0-1.11,0-2.22,0-3.33,0-.29-.16-.52-.42-.6-.39-.12-.76.17-.76.6,0,.96,0,1.91,0,2.87,0,.19,0,.37,0,.56h-.35s0-.06,0-.09c0-1.36,0-2.72,0-4.08,0-.35-.25-.62-.59-.62-.34,0-.59.27-.59.62,0,1.36,0,2.71,0,4.07,0,.03,0,.06,0,.1h-.35v-.1c0-1.08,0-2.16,0-3.24,0-.32-.21-.56-.52-.61-.32-.05-.65.23-.65.55,0,.41,0,.82,0,1.23,0,1.37,0,2.73,0,4.1,0,.09-.02.16-.1.2-.09.05-.18.02-.24-.08-.23-.39-.45-.78-.68-1.17-.17-.3-.47-.4-.78-.27-.32.14-.44.51-.25.83.31.54.62,1.08.93,1.62.23.4.45.8.69,1.19.08.13.19.24.3.35.45.45.96.82,1.55,1.06.53.22,1.08.33,1.65.27,1.04-.1,1.8-.62,2.29-1.54.22-.42.34-.87.38-1.35.02-.22.03-.45.03-.67,0-1.49,0-2.99,0-4.48,0-.35-.27-.62-.6-.61-.32,0-.57.27-.57.58,0,.68,0,1.36,0,2.04v.09Z"/>
  <path class="cls-49" d="m177.36,488.38c1.52-.24,6.48.11,6.48.11,0,0,.35,4.96.11,6.48-.19,1.15-1.93,1.12-1.93,1.12l-.03-4.24-21.24,21.24c-1.08,1.08-2.59-.44-1.52-1.52l21.24-21.24-4.24-.03s-.03-1.74,1.12-1.93Z"/>
  <path class="cls-31" d="m185.86,534.64h.35s0-.07,0-.1c0-1.11,0-2.22,0-3.33,0-.29.16-.52.42-.6.39-.12.76.17.76.6,0,.96,0,1.91,0,2.87,0,.19,0,.37,0,.56h.35s0-.06,0-.09c0-1.36,0-2.72,0-4.08,0-.35.25-.62.59-.62.34,0,.59.27.59.62,0,1.36,0,2.71,0,4.07,0,.03,0,.06,0,.1h.35v-.1c0-1.08,0-2.16,0-3.24,0-.32.21-.56.52-.61.32-.05.65.23.65.55,0,.41,0,.82,0,1.23,0,1.37,0,2.73,0,4.1,0,.09.02.16.1.2.09.05.18.02.24-.08.23-.39.45-.78.68-1.17.17-.3.47-.4.78-.27.32.14.44.51.25.83-.31.54-.62,1.08-.93,1.62-.23.4-.45.8-.69,1.19-.08.13-.19.24-.3.35-.45.45-.96.82-1.55,1.06-.53.22-1.08.33-1.65.27-1.04-.1-1.8-.62-2.29-1.54-.22-.42-.34-.87-.38-1.35-.02-.22-.03-.45-.03-.67,0-1.49,0-2.99,0-4.48,0-.35.27-.62.6-.61.32,0,.57.27.57.58,0,.68,0,1.36,0,2.04v.09Z"/>
  <path class="cls-31" d="m177.36,547.72c1.52.24,6.48-.11,6.48-.11,0,0,.35-4.96.11-6.48-.19-1.15-1.93-1.12-1.93-1.12l-.03,4.24-21.24-21.24c-1.08-1.08-2.59.44-1.52,1.52l21.24,21.24-4.24.03s-.03,1.74,1.12,1.93Z"/>
  <g>
    <text class="cls-14" transform="translate(93.76 196.45)"><tspan class="cls-45" x="0" y="0">S</tspan><tspan x="7.55" y="0">pli</tspan><tspan class="cls-39" x="24.58" y="0">t</tspan><tspan class="cls-26" x="29.79" y="0">-</tspan><tspan x="34.42" y="0">Same</tspan></text>
    <text class="cls-14" transform="translate(96.38 283.14)"><tspan class="cls-40" x="0" y="0">T</tspan><tspan x="8.09" y="0">og</tspan><tspan class="cls-26" x="24.56" y="0">-</tspan><tspan x="29.2" y="0">Same</tspan></text>
    <path class="cls-21" d="m119.92,175.42c-.65,0-.94.25-1.28.66-.17.19-.39,1.18-.75.55-.75-1.29.02-4.57,1.06-6.02.28-.37-.11-.59-.3-.7,0,0-.42-.22-.64-.14-.29.1-.6-.12-1.39,1.64-1.19-1.37-2.58-1.19-3.53-1.15-.84.04-3.37.97-3.37,3.93,0,3.55,3.05,4.21,3.97,4.21s2.48-.6,2.88-.96c.24.72.67,1.16,1.21,1.27.84.18,1.21-.24,1.55-.71.49-.67,1.06-2.57.59-2.58Zm-6.23,1c-1.22,0-2.22-1.01-2.22-2.23s1-2.22,2.22-2.22,2.23,1.01,2.23,2.22-1.01,2.23-2.23,2.23Z"/>
    <path class="cls-21" d="m148.73,175.42c-.65,0-.94.25-1.28.66-.17.19-.39,1.18-.75.55-.75-1.29.02-4.57,1.06-6.02.28-.37-.11-.59-.3-.7,0,0-.42-.22-.64-.14-.29.1-.6-.12-1.39,1.64-1.19-1.37-2.58-1.19-3.53-1.15-.84.04-3.37.97-3.37,3.93,0,3.55,3.05,4.21,3.97,4.21s2.48-.6,2.88-.96c.24.72.67,1.16,1.21,1.27.84.18,1.21-.24,1.55-.71.49-.67,1.06-2.57.59-2.58Zm-6.23,1c-1.22,0-2.22-1.01-2.22-2.23s1-2.22,2.22-2.22,2.23,1.01,2.23,2.22-1.01,2.23-2.23,2.23Z"/>
    <path class="cls-21" d="m121.9,173.37h10.69l-1.95-2.21.87-.83,3.45,3.32v.97l-3.45,3.32-.87-.83,1.95-2.21h-10.69v-1.52Z"/>
    <g>
      <path class="cls-21" d="m121.9,258.39h10.69l-1.95-2.21.87-.83,3.45,3.32v.97l-3.45,3.32-.87-.83,1.95-2.21h-10.69v-1.52Z"/>
      <path class="cls-21" d="m119.12,258.54c-.18-.22-.39-.42-.59-.59,3.31-3.76-4.43-6.09-4.53-1.52-.01,2.17-.02,3.88-.02,6.06-.77-.24-1.63.26-1.76,1.1-.08,2.12,2.05,1.76,2.82.83.29-.35.4-.63.5-1.7,2.9,1.54,5.17-1.67,3.58-4.18Zm-1.25,2.91c-.87.68-1.26.01-1.87-.16-.13-.04-.28-.03-.42.03,0-1.73,0-3.44.02-5.2-.15-.97,1.24-1.29,1.85-.63.51.55.42,1.49-.19,1.71-1.99-.53-1.8,2.34,0,1.62.85.25,1.48,1.74.61,2.63Z"/>
      <path class="cls-21" d="m142.39,258.54c-.18-.22-.39-.42-.59-.59,3.31-3.76-4.43-6.09-4.53-1.52-.01,2.17-.02,3.88-.02,6.06-.77-.24-1.63.26-1.76,1.1-.08,2.12,2.05,1.76,2.82.83.29-.35.4-.63.5-1.7,2.9,1.54,5.17-1.67,3.58-4.18Zm-1.25,2.91c-.87.68-1.26.01-1.87-.16-.13-.04-.28-.03-.42.03,0-1.73,0-3.44.02-5.2-.15-.97,1.24-1.29,1.85-.63.51.55.42,1.49-.19,1.71-1.99-.53-1.8,2.34,0,1.62.85.25,1.48,1.74.61,2.63Z"/>
    </g>
    <path class="cls-31" d="m209.87,310.75c1.08,1.08,2.59-.44,1.52-1.52l-21.24-21.24,4.24-.03s.03-1.74-1.12-1.93c-1.52-.24-6.48.11-6.48.11,0,0-.35,4.96-.11,6.48.19,1.15,1.93,1.12,1.93,1.12l.03-4.24"/>
    <path class="cls-49" d="m192.32,293.89c-1.52-.24-6.48.11-6.48.11,0,0-.35,4.96-.11,6.48.19,1.15,1.93,1.12,1.93,1.12l.03-4.24,21.24,21.24c1.08,1.08,2.59-.44,1.52-1.52l-21.24-21.24,4.24-.03s.03-1.74-1.12-1.93Z"/>
    <path class="cls-31" d="m196.4,282.5h.37s0-.07,0-.1c0-1.14,0-2.29,0-3.43,0-.3.16-.54.43-.62.4-.12.79.18.79.61,0,.99,0,1.97,0,2.96,0,.19,0,.38,0,.58h.36s0-.07,0-.1c0-1.4,0-2.81,0-4.21,0-.36.26-.64.61-.63.35,0,.61.27.61.64,0,1.4,0,2.8,0,4.2,0,.03,0,.07,0,.11h.36v-.1c0-1.11,0-2.23,0-3.34,0-.33.21-.58.54-.63.34-.05.67.23.67.57,0,.42,0,.85,0,1.27,0,1.41,0,2.82,0,4.23,0,.09.02.16.1.21.09.05.19.02.25-.09.23-.4.46-.8.7-1.2.18-.31.48-.41.81-.28.33.14.45.52.26.85-.32.56-.64,1.11-.96,1.67-.24.41-.47.82-.71,1.22-.08.13-.19.25-.31.36-.47.46-.99.84-1.6,1.09-.54.23-1.11.34-1.7.28-1.07-.1-1.86-.64-2.36-1.59-.23-.43-.35-.9-.39-1.39-.02-.23-.03-.46-.03-.69,0-1.54,0-3.08,0-4.62,0-.36.28-.64.62-.63.33,0,.59.28.59.6,0,.7,0,1.4,0,2.1v.09Z"/>
    <path class="cls-49" d="m205.38,282.5h-.37s0-.07,0-.1c0-1.14,0-2.29,0-3.43,0-.3-.16-.54-.43-.62-.4-.12-.79.18-.79.61,0,.99,0,1.97,0,2.96,0,.19,0,.38,0,.58h-.36s0-.07,0-.1c0-1.4,0-2.81,0-4.21,0-.36-.26-.64-.61-.63-.35,0-.61.27-.61.64,0,1.4,0,2.8,0,4.2,0,.03,0,.07,0,.11h-.36v-.1c0-1.11,0-2.23,0-3.34,0-.33-.21-.58-.54-.63-.34-.05-.67.23-.67.57,0,.42,0,.85,0,1.27,0,1.41,0,2.82,0,4.23,0,.09-.02.16-.1.21-.09.05-.19.02-.25-.09-.23-.4-.46-.8-.7-1.2-.18-.31-.48-.41-.81-.28-.33.14-.45.52-.26.85.32.56.64,1.11.96,1.67.24.41.47.82.71,1.22.08.13.19.25.31.36.47.46.99.84,1.6,1.09.54.23,1.11.34,1.7.28,1.07-.1,1.86-.64,2.36-1.59.23-.43.35-.9.39-1.39.02-.23.03-.46.03-.69,0-1.54,0-3.08,0-4.62,0-.36-.28-.64-.62-.63-.33,0-.59.28-.59.6,0,.7,0,1.4,0,2.1v.09Z"/>
    <line class="cls-7" x1="93.79" y1="234.86" x2="556.04" y2="234.86"/>
    <g>
      <text class="cls-11" transform="translate(181.24 150.56)"><tspan x="0" y="0">1</tspan></text>
      <text class="cls-11" transform="translate(271.14 150.56)"><tspan x="0" y="0">2</tspan></text>
      <text class="cls-11" transform="translate(361.24 150.56)"><tspan x="0" y="0">3</tspan></text>
      <text class="cls-11" transform="translate(451.14 150.56)"><tspan x="0" y="0">4</tspan></text>
    </g>
    <g>
      <text class="cls-11" transform="translate(181.24 263.06)"><tspan x="0" y="0">1</tspan></text>
      <text class="cls-11" transform="translate(271.14 263.06)"><tspan x="0" y="0">2</tspan></text>
      <text class="cls-11" transform="translate(361.24 263.06)"><tspan x="0" y="0">3</tspan></text>
      <text class="cls-11" transform="translate(451.14 263.06)"><tspan x="0" y="0">4</tspan></text>
    </g>
    <path class="cls-49" d="m247.73,171.83c.24,1.52-.11,6.48-.11,6.48,0,0-4.96.35-6.48.11-1.15-.19-1.12-1.93-1.12-1.93l4.24-.03-21.24-21.24c-1.08-1.08.44-2.59,1.52-1.52l21.24,21.24.03-4.24s1.74-.03,1.93,1.12Z"/>
    <path class="cls-31" d="m188.39,194.37c-.24-1.52.11-6.48.11-6.48,0,0,4.96-.35,6.48-.11,1.15.19,1.12,1.93,1.12,1.93l-4.24.03,21.24,21.24c1.08,1.08-.44,2.59-1.52,1.52l-21.24-21.24-.03,4.24s-1.74.03-1.93-1.12Z"/>
    <path class="cls-31" d="m198.12,182.52h.35s0-.07,0-.1c0-1.11,0-2.22,0-3.33,0-.29.16-.52.42-.6.39-.12.76.17.76.6,0,.96,0,1.91,0,2.87,0,.19,0,.37,0,.56h.35s0-.06,0-.09c0-1.36,0-2.72,0-4.08,0-.35.25-.62.59-.62.34,0,.59.27.59.62,0,1.36,0,2.71,0,4.07,0,.03,0,.06,0,.1h.35v-.1c0-1.08,0-2.16,0-3.24,0-.32.21-.56.52-.61.32-.05.65.23.65.55,0,.41,0,.82,0,1.23,0,1.37,0,2.73,0,4.1,0,.09.02.16.1.2.09.05.18.02.24-.08.23-.39.45-.78.68-1.17.17-.3.47-.4.78-.27.32.14.44.51.25.83-.31.54-.62,1.08-.93,1.62-.23.4-.45.8-.69,1.19-.08.13-.19.24-.3.35-.45.45-.96.82-1.55,1.06-.53.22-1.08.33-1.65.27-1.04-.1-1.8-.62-2.29-1.54-.22-.42-.34-.87-.38-1.35-.02-.22-.03-.45-.03-.67,0-1.49,0-2.99,0-4.48,0-.35.27-.62.6-.61.32,0,.57.27.57.58,0,.68,0,1.36,0,2.04v.09Z"/>
    <path class="cls-49" d="m238.01,182.52h-.35s0-.07,0-.1c0-1.11,0-2.22,0-3.33,0-.29-.16-.52-.42-.6-.39-.12-.76.17-.76.6,0,.96,0,1.91,0,2.87,0,.19,0,.37,0,.56h-.35s0-.06,0-.09c0-1.36,0-2.72,0-4.08,0-.35-.25-.62-.59-.62-.34,0-.59.27-.59.62,0,1.36,0,2.71,0,4.07,0,.03,0,.06,0,.1h-.35v-.1c0-1.08,0-2.16,0-3.24,0-.32-.21-.56-.52-.61-.32-.05-.65.23-.65.55,0,.41,0,.82,0,1.23,0,1.37,0,2.73,0,4.1,0,.09-.02.16-.1.2-.09.05-.18.02-.24-.08-.23-.39-.45-.78-.68-1.17-.17-.3-.47-.4-.78-.27-.32.14-.44.51-.25.83.31.54.62,1.08.93,1.62.23.4.45.8.69,1.19.08.13.19.24.3.35.45.45.96.82,1.55,1.06.53.22,1.08.33,1.65.27,1.04-.1,1.8-.62,2.29-1.54.22-.42.34-.87.38-1.35.02-.22.03-.45.03-.67,0-1.49,0-2.99,0-4.48,0-.35-.27-.62-.6-.61-.32,0-.57.27-.57.58,0,.68,0,1.36,0,2.04v.09Z"/>
    <path class="cls-31" d="m315.13,258.3c.24-1.52-.11-6.48-.11-6.48,0,0-4.96-.35-6.48-.11-1.15.19-1.12,1.93-1.12,1.93l4.24.03-21.24,21.24c-1.08,1.08.44,2.59,1.52,1.52l21.24-21.24.03,4.24s1.74.03,1.93-1.12Z"/>
    <path class="cls-49" d="m307.27,257.36c.24-1.52-.11-6.48-.11-6.48,0,0-4.96-.35-6.48-.11-1.15.19-1.12,1.93-1.12,1.93l4.24.03-21.24,21.24c-1.08,1.08.44,2.59,1.52,1.52l21.24-21.24.03,4.24s1.74.03,1.93-1.12Z"/>
    <path class="cls-31" d="m313.57,265.33h.37s0-.07,0-.1c0-1.14,0-2.29,0-3.43,0-.3.16-.54.43-.62.4-.12.79.18.79.61,0,.99,0,1.97,0,2.96,0,.19,0,.38,0,.58h.36s0-.07,0-.1c0-1.4,0-2.81,0-4.21,0-.36.26-.64.61-.63.35,0,.61.27.61.64,0,1.4,0,2.8,0,4.2,0,.03,0,.07,0,.11h.36v-.1c0-1.11,0-2.23,0-3.34,0-.33.21-.58.54-.63.34-.05.67.23.67.57,0,.42,0,.85,0,1.27,0,1.41,0,2.82,0,4.23,0,.09.02.16.1.21.09.05.19.02.25-.09.23-.4.46-.8.7-1.2.18-.31.48-.41.81-.28.33.14.45.52.26.85-.32.56-.64,1.11-.96,1.67-.24.41-.47.82-.71,1.22-.08.13-.19.25-.31.36-.47.46-.99.84-1.6,1.09-.54.23-1.11.34-1.7.28-1.07-.1-1.86-.64-2.36-1.59-.23-.43-.35-.9-.39-1.39-.02-.23-.03-.46-.03-.69,0-1.54,0-3.08,0-4.62,0-.36.28-.64.62-.63.33,0,.59.28.59.6,0,.7,0,1.4,0,2.1v.09Z"/>
    <path class="cls-49" d="m322.55,265.33h-.37s0-.07,0-.1c0-1.14,0-2.29,0-3.43,0-.3-.16-.54-.43-.62-.4-.12-.79.18-.79.61,0,.99,0,1.97,0,2.96,0,.19,0,.38,0,.58h-.36s0-.07,0-.1c0-1.4,0-2.81,0-4.21,0-.36-.26-.64-.61-.63-.35,0-.61.27-.61.64,0,1.4,0,2.8,0,4.2,0,.03,0,.07,0,.11h-.36v-.1c0-1.11,0-2.23,0-3.34,0-.33-.21-.58-.54-.63-.34-.05-.67.23-.67.57,0,.42,0,.85,0,1.27,0,1.41,0,2.82,0,4.23,0,.09-.02.16-.1.21-.09.05-.19.02-.25-.09-.23-.4-.46-.8-.7-1.2-.18-.31-.48-.41-.81-.28-.33.14-.45.52-.26.85.32.56.64,1.11.96,1.67.24.41.47.82.71,1.22.08.13.19.25.31.36.47.46.99.84,1.6,1.09.54.23,1.11.34,1.7.28,1.07-.1,1.86-.64,2.36-1.59.23-.43.35-.9.39-1.39.02-.23.03-.46.03-.69,0-1.54,0-3.08,0-4.62,0-.36-.28-.64-.62-.63-.33,0-.59.28-.59.6,0,.7,0,1.4,0,2.1v.09Z"/>
    <path class="cls-49" d="m329.48,212.71c-1.52.24-6.48-.08-6.48-.08,0,0-.37-4.96-.15-6.48.18-1.15,1.92-1.13,1.92-1.13l.05,4.24,21.13-21.34c1.07-1.08,2.59.43,1.52,1.51l-21.13,21.34h4.24s.04,1.75-1.11,1.95Z"/>
    <path class="cls-31" d="m306.65,153.48c1.52-.24,6.48.08,6.48.08,0,0,.37,4.96.15,6.48-.18,1.15-1.92,1.13-1.92,1.13l-.05-4.24-21.13,21.34c-1.07,1.08-2.59-.43-1.52-1.51l21.13-21.34h-4.24s-.04-1.75,1.11-1.95Z"/>
    <path class="cls-31" d="m315.22,165.35h.35s0-.07,0-.1c0-1.11,0-2.22,0-3.33,0-.29.16-.52.42-.6.39-.12.76.17.76.6,0,.96,0,1.91,0,2.87,0,.19,0,.37,0,.56h.35s0-.06,0-.09c0-1.36,0-2.72,0-4.08,0-.35.25-.62.59-.62.34,0,.59.27.59.62,0,1.36,0,2.71,0,4.07,0,.03,0,.06,0,.1h.35v-.1c0-1.08,0-2.16,0-3.24,0-.32.21-.56.52-.61.32-.05.65.23.65.55,0,.41,0,.82,0,1.23,0,1.37,0,2.73,0,4.1,0,.09.02.16.1.2.09.05.18.02.24-.08.23-.39.45-.78.68-1.17.17-.3.47-.4.78-.27.32.14.44.51.25.83-.31.54-.62,1.08-.93,1.62-.23.4-.45.8-.69,1.19-.08.13-.19.24-.3.35-.45.45-.96.82-1.55,1.06-.53.22-1.08.33-1.65.27-1.04-.1-1.8-.62-2.29-1.54-.22-.42-.34-.87-.38-1.35-.02-.22-.03-.45-.03-.67,0-1.49,0-2.99,0-4.48,0-.35.27-.62.6-.61.32,0,.57.27.57.58,0,.68,0,1.36,0,2.04v.09Z"/>
    <path class="cls-49" d="m320.77,199.82h-.35s0-.07,0-.1c0-1.11,0-2.22,0-3.33,0-.29-.16-.52-.42-.6-.39-.12-.76.17-.76.6,0,.96,0,1.91,0,2.87,0,.19,0,.37,0,.56h-.35s0-.06,0-.09c0-1.36,0-2.72,0-4.08,0-.35-.25-.62-.59-.62-.34,0-.59.27-.59.62,0,1.36,0,2.71,0,4.07,0,.03,0,.06,0,.1h-.35v-.1c0-1.08,0-2.16,0-3.24,0-.32-.21-.56-.52-.61-.32-.05-.65.23-.65.55,0,.41,0,.82,0,1.23,0,1.37,0,2.73,0,4.1,0,.09-.02.16-.1.2-.09.05-.18.02-.24-.08-.23-.39-.45-.78-.68-1.17-.17-.3-.47-.4-.78-.27-.32.14-.44.51-.25.83.31.54.62,1.08.93,1.62.23.4.45.8.69,1.19.08.13.19.24.3.35.45.45.96.82,1.55,1.06.53.22,1.08.33,1.65.27,1.04-.1,1.8-.62,2.29-1.54.22-.42.34-.87.38-1.35.02-.22.03-.45.03-.67,0-1.49,0-2.99,0-4.48,0-.35-.27-.62-.6-.61-.32,0-.57.27-.57.58,0,.68,0,1.36,0,2.04v.09Z"/>
    <path class="cls-31" d="m442.86,280.16c1.52.24,6.48-.11,6.48-.11,0,0,.35-4.96.11-6.48-.19-1.15-1.93-1.12-1.93-1.12l-.03,4.24-21.24-21.24c-1.08-1.08-2.59.44-1.52,1.52l21.24,21.24-4.24.03s-.03,1.74,1.12,1.93Z"/>
    <path class="cls-49" d="m443.8,272.3c1.52.24,6.48-.11,6.48-.11,0,0,.35-4.96.11-6.48-.19-1.15-1.93-1.12-1.93-1.12l-.03,4.24-21.24-21.24c-1.08-1.08-2.59.44-1.52,1.52l21.24,21.24-4.24.03s-.03,1.74,1.12,1.93Z"/>
    <path class="cls-31" d="m430.74,282.5h.37s0-.07,0-.1c0-1.14,0-2.29,0-3.43,0-.3.16-.54.43-.62.4-.12.79.18.79.61,0,.99,0,1.97,0,2.96,0,.19,0,.38,0,.58h.36s0-.07,0-.1c0-1.4,0-2.81,0-4.21,0-.36.26-.64.61-.63.35,0,.61.27.61.64,0,1.4,0,2.8,0,4.2,0,.03,0,.07,0,.11h.36v-.1c0-1.11,0-2.23,0-3.34,0-.33.21-.58.54-.63.34-.05.67.23.67.57,0,.42,0,.85,0,1.27,0,1.41,0,2.82,0,4.23,0,.09.02.16.1.21.09.05.19.02.25-.09.23-.4.46-.8.7-1.2.18-.31.48-.41.81-.28.33.14.45.52.26.85-.32.56-.64,1.11-.96,1.67-.24.41-.47.82-.71,1.22-.08.13-.19.25-.31.36-.47.46-.99.84-1.6,1.09-.54.23-1.11.34-1.7.28-1.07-.1-1.86-.64-2.36-1.59-.23-.43-.35-.9-.39-1.39-.02-.23-.03-.46-.03-.69,0-1.54,0-3.08,0-4.62,0-.36.28-.64.62-.63.33,0,.59.28.59.6,0,.7,0,1.4,0,2.1v.09Z"/>
    <path class="cls-49" d="m439.72,282.5h-.37s0-.07,0-.1c0-1.14,0-2.29,0-3.43,0-.3-.16-.54-.43-.62-.4-.12-.79.18-.79.61,0,.99,0,1.97,0,2.96,0,.19,0,.38,0,.58h-.36s0-.07,0-.1c0-1.4,0-2.81,0-4.21,0-.36-.26-.64-.61-.63-.35,0-.61.27-.61.64,0,1.4,0,2.8,0,4.2,0,.03,0,.07,0,.11h-.36v-.1c0-1.11,0-2.23,0-3.34,0-.33-.21-.58-.54-.63-.34-.05-.67.23-.67.57,0,.42,0,.85,0,1.27,0,1.41,0,2.82,0,4.23,0,.09-.02.16-.1.21-.09.05-.19.02-.25-.09-.23-.4-.46-.8-.7-1.2-.18-.31-.48-.41-.81-.28-.33.14-.45.52-.26.85.32.56.64,1.11.96,1.67.24.41.47.82.71,1.22.08.13.19.25.31.36.47.46.99.84,1.6,1.09.54.23,1.11.34,1.7.28,1.07-.1,1.86-.64,2.36-1.59.23-.43.35-.9.39-1.39.02-.23.03-.46.03-.69,0-1.54,0-3.08,0-4.62,0-.36-.28-.64-.62-.63-.33,0-.59.28-.59.6,0,.7,0,1.4,0,2.1v.09Z"/>
    <path class="cls-49" d="m388.39,194.37c-.24-1.52.11-6.48.11-6.48,0,0,4.96-.35,6.48-.11,1.15.19,1.12,1.93,1.12,1.93l-4.24.03,21.24,21.24c1.08,1.08-.44,2.59-1.52,1.52l-21.24-21.24-.03,4.24s-1.74.03-1.93-1.12Z"/>
    <path class="cls-31" d="m447.73,171.83c.24,1.52-.11,6.48-.11,6.48,0,0-4.96.35-6.48.11-1.15-.19-1.12-1.93-1.12-1.93l4.24-.03-21.24-21.24c-1.08-1.08.44-2.59,1.52-1.52l21.24,21.24.03-4.24s1.74-.03,1.93,1.12Z"/>
    <path class="cls-31" d="m432.46,182.52h.35s0-.07,0-.1c0-1.11,0-2.22,0-3.33,0-.29.16-.52.42-.6.39-.12.76.17.76.6,0,.96,0,1.91,0,2.87,0,.19,0,.37,0,.56h.35s0-.06,0-.09c0-1.36,0-2.72,0-4.08,0-.35.25-.62.59-.62.34,0,.59.27.59.62,0,1.36,0,2.71,0,4.07,0,.03,0,.06,0,.1h.35v-.1c0-1.08,0-2.16,0-3.24,0-.32.21-.56.52-.61.32-.05.65.23.65.55,0,.41,0,.82,0,1.23,0,1.37,0,2.73,0,4.1,0,.09.02.16.1.2.09.05.18.02.24-.08.23-.39.45-.78.68-1.17.17-.3.47-.4.78-.27.32.14.44.51.25.83-.31.54-.62,1.08-.93,1.62-.23.4-.45.8-.69,1.19-.08.13-.19.24-.3.35-.45.45-.96.82-1.55,1.06-.53.22-1.08.33-1.65.27-1.04-.1-1.8-.62-2.29-1.54-.22-.42-.34-.87-.38-1.35-.02-.22-.03-.45-.03-.67,0-1.49,0-2.99,0-4.48,0-.35.27-.62.6-.61.32,0,.57.27.57.58,0,.68,0,1.36,0,2.04v.09Z"/>
    <path class="cls-49" d="m403.67,182.52h-.35s0-.07,0-.1c0-1.11,0-2.22,0-3.33,0-.29-.16-.52-.42-.6-.39-.12-.76.17-.76.6,0,.96,0,1.91,0,2.87,0,.19,0,.37,0,.56h-.35s0-.06,0-.09c0-1.36,0-2.72,0-4.08,0-.35-.25-.62-.59-.62-.34,0-.59.27-.59.62,0,1.36,0,2.71,0,4.07,0,.03,0,.06,0,.1h-.35v-.1c0-1.08,0-2.16,0-3.24,0-.32-.21-.56-.52-.61-.32-.05-.65.23-.65.55,0,.41,0,.82,0,1.23,0,1.37,0,2.73,0,4.1,0,.09-.02.16-.1.2-.09.05-.18.02-.24-.08-.23-.39-.45-.78-.68-1.17-.17-.3-.47-.4-.78-.27-.32.14-.44.51-.25.83.31.54.62,1.08.93,1.62.23.4.45.8.69,1.19.08.13.19.24.3.35.45.45.96.82,1.55,1.06.53.22,1.08.33,1.65.27,1.04-.1,1.8-.62,2.29-1.54.22-.42.34-.87.38-1.35.02-.22.03-.45.03-.67,0-1.49,0-2.99,0-4.48,0-.35-.27-.62-.6-.61-.32,0-.57.27-.57.58,0,.68,0,1.36,0,2.04v.09Z"/>
    <path class="cls-31" d="m521,307.89c-.24,1.52.11,6.48.11,6.48,0,0,4.96.35,6.48.11,1.15-.19,1.12-1.93,1.12-1.93l-4.24-.03,21.24-21.24c1.08-1.08-.44-2.59-1.52-1.52l-21.24,21.24-.03-4.24s-1.74-.03-1.93,1.12Z"/>
    <path class="cls-49" d="m528.86,308.84c-.24,1.52.11,6.48.11,6.48,0,0,4.96.35,6.48.11,1.15-.19,1.12-1.93,1.12-1.93l-4.24-.03,21.24-21.24c1.08-1.08-.44-2.59-1.52-1.52l-21.24,21.24-.03-4.24s-1.74-.03-1.93,1.12Z"/>
    <path class="cls-31" d="m513.57,299.67h.37s0-.07,0-.1c0-1.14,0-2.29,0-3.43,0-.3.16-.54.43-.62.4-.12.79.18.79.61,0,.99,0,1.97,0,2.96,0,.19,0,.38,0,.58h.36s0-.07,0-.1c0-1.4,0-2.81,0-4.21,0-.36.26-.64.61-.63.35,0,.61.27.61.64,0,1.4,0,2.8,0,4.2,0,.03,0,.07,0,.11h.36v-.1c0-1.11,0-2.23,0-3.34,0-.33.21-.58.54-.63.34-.05.67.23.67.57,0,.42,0,.85,0,1.27,0,1.41,0,2.82,0,4.23,0,.09.02.16.1.21.09.05.19.02.25-.09.23-.4.46-.8.7-1.2.18-.31.48-.41.81-.28.33.14.45.52.26.85-.32.56-.64,1.11-.96,1.67-.24.41-.47.82-.71,1.22-.08.13-.19.25-.31.36-.47.46-.99.84-1.6,1.09-.54.23-1.11.34-1.7.28-1.07-.1-1.86-.64-2.36-1.59-.23-.43-.35-.9-.39-1.39-.02-.23-.03-.46-.03-.69,0-1.54,0-3.08,0-4.62,0-.36.28-.64.62-.63.33,0,.59.28.59.6,0,.7,0,1.4,0,2.1v.09Z"/>
    <path class="cls-49" d="m522.55,299.67h-.37s0-.07,0-.1c0-1.14,0-2.29,0-3.43,0-.3-.16-.54-.43-.62-.4-.12-.79.18-.79.61,0,.99,0,1.97,0,2.96,0,.19,0,.38,0,.58h-.36s0-.07,0-.1c0-1.4,0-2.81,0-4.21,0-.36-.26-.64-.61-.63-.35,0-.61.27-.61.64,0,1.4,0,2.8,0,4.2,0,.03,0,.07,0,.11h-.36v-.1c0-1.11,0-2.23,0-3.34,0-.33-.21-.58-.54-.63-.34-.05-.67.23-.67.57,0,.42,0,.85,0,1.27,0,1.41,0,2.82,0,4.23,0,.09-.02.16-.1.21-.09.05-.19.02-.25-.09-.23-.4-.46-.8-.7-1.2-.18-.31-.48-.41-.81-.28-.33.14-.45.52-.26.85.32.56.64,1.11.96,1.67.24.41.47.82.71,1.22.08.13.19.25.31.36.47.46.99.84,1.6,1.09.54.23,1.11.34,1.7.28,1.07-.1,1.86-.64,2.36-1.59.23-.43.35-.9.39-1.39.02-.23.03-.46.03-.69,0-1.54,0-3.08,0-4.62,0-.36-.28-.64-.62-.63-.33,0-.59.28-.59.6,0,.7,0,1.4,0,2.1v.09Z"/>
    <path class="cls-49" d="m490.19,178.14c-1.08,1.08-2.59-.44-1.52-1.52l21.24-21.24-4.24-.03s-.03-1.74,1.12-1.93c1.52-.24,6.48.11,6.48.11,0,0,.35,4.96.11,6.48-.19,1.15-1.93,1.12-1.93,1.12l-.03-4.24"/>
    <path class="cls-31" d="m529.33,212.77c-1.52.24-6.48-.11-6.48-.11,0,0-.35-4.96-.11-6.48.19-1.15,1.93-1.12,1.93-1.12l.03,4.24,21.24-21.24c1.08-1.08,2.59.44,1.52,1.52l-21.24,21.24,4.24.03s.03,1.74-1.12,1.93Z"/>
    <path class="cls-31" d="m515.29,199.69h.35s0-.07,0-.1c0-1.11,0-2.22,0-3.33,0-.29.16-.52.42-.6.39-.12.76.17.76.6,0,.96,0,1.91,0,2.87,0,.19,0,.37,0,.56h.35s0-.06,0-.09c0-1.36,0-2.72,0-4.08,0-.35.25-.62.59-.62.34,0,.59.27.59.62,0,1.36,0,2.71,0,4.07,0,.03,0,.06,0,.1h.35v-.1c0-1.08,0-2.16,0-3.24,0-.32.21-.56.52-.61.32-.05.65.23.65.55,0,.41,0,.82,0,1.23,0,1.37,0,2.73,0,4.1,0,.09.02.16.1.2.09.05.18.02.24-.08.23-.39.45-.78.68-1.17.17-.3.47-.4.78-.27.32.14.44.51.25.83-.31.54-.62,1.08-.93,1.62-.23.4-.45.8-.69,1.19-.08.13-.19.24-.3.35-.45.45-.96.82-1.55,1.06-.53.22-1.08.33-1.65.27-1.04-.1-1.8-.62-2.29-1.54-.22-.42-.34-.87-.38-1.35-.02-.22-.03-.45-.03-.67,0-1.49,0-2.99,0-4.48,0-.35.27-.62.6-.61.32,0,.57.27.57.58,0,.68,0,1.36,0,2.04v.09Z"/>
    <path class="cls-49" d="m520.84,165.35h-.35s0-.07,0-.1c0-1.11,0-2.22,0-3.33,0-.29-.16-.52-.42-.6-.39-.12-.76.17-.76.6,0,.96,0,1.91,0,2.87,0,.19,0,.37,0,.56h-.35s0-.06,0-.09c0-1.36,0-2.72,0-4.08,0-.35-.25-.62-.59-.62-.34,0-.59.27-.59.62,0,1.36,0,2.71,0,4.07,0,.03,0,.06,0,.1h-.35v-.1c0-1.08,0-2.16,0-3.24,0-.32-.21-.56-.52-.61-.32-.05-.65.23-.65.55,0,.41,0,.82,0,1.23,0,1.37,0,2.73,0,4.1,0,.09-.02.16-.1.2-.09.05-.18.02-.24-.08-.23-.39-.45-.78-.68-1.17-.17-.3-.47-.4-.78-.27-.32.14-.44.51-.25.83.31.54.62,1.08.93,1.62.23.4.45.8.69,1.19.08.13.19.24.3.35.45.45.96.82,1.55,1.06.53.22,1.08.33,1.65.27,1.04-.1,1.8-.62,2.29-1.54.22-.42.34-.87.38-1.35.02-.22.03-.45.03-.67,0-1.49,0-2.99,0-4.48,0-.35-.27-.62-.6-.61-.32,0-.57.27-.57.58,0,.68,0,1.36,0,2.04v.09Z"/>
  </g>
  <g>
    <path class="cls-21" d="m418.06,284.6c1.93,0,1.93-3,0-3s-1.93,3,0,3h0Z"/>
    <circle class="cls-21" cx="454.06" cy="283.1" r="3"/>
    <circle class="cls-21" cx="418.06" cy="319.1" r="3"/>
    <circle class="cls-21" cx="382.06" cy="283.1" r="3"/>
    <circle class="cls-21" cx="418.06" cy="247.1" r="3"/>
  </g>
  <g>
    <path class="cls-21" d="m518.06,284.6c1.93,0,1.93-3,0-3s-1.93,3,0,3h0Z"/>
    <circle class="cls-21" cx="554.06" cy="283.1" r="3"/>
    <circle class="cls-21" cx="518.06" cy="319.1" r="3"/>
    <circle class="cls-21" cx="482.06" cy="283.1" r="3"/>
    <circle class="cls-21" cx="518.06" cy="247.1" r="3"/>
  </g>
</svg>