<?xml version="1.0" encoding="UTF-8"?>
<svg id="Layer_1" data-name="Layer 1" xmlns="http://www.w3.org/2000/svg" viewBox="0 0 612 792">
  <defs>
    <style>
      .cls-1, .cls-2, .cls-3, .cls-4, .cls-5, .cls-6, .cls-7, .cls-8, .cls-9, .cls-10, .cls-11, .cls-12, .cls-13, .cls-14, .cls-15, .cls-16, .cls-17, .cls-18, .cls-19, .cls-20, .cls-21, .cls-22, .cls-23, .cls-24, .cls-25, .cls-26, .cls-27, .cls-28, .cls-29, .cls-30 {
        fill: #231f20;
      }

      .cls-1, .cls-2, .cls-31, .cls-4, .cls-6, .cls-7, .cls-8, .cls-32, .cls-33, .cls-34, .cls-18, .cls-35, .cls-23, .cls-36, .cls-28, .cls-29 {
        font-weight: 700;
      }

      .cls-1, .cls-2, .cls-31, .cls-6, .cls-7, .cls-8, .cls-32, .cls-33, .cls-34, .cls-18, .cls-35, .cls-23, .cls-36, .cls-28, .cls-29 {
        font-family: Cambria-Bold, Cambria;
      }

      .cls-1, .cls-2, .cls-6, .cls-7, .cls-8, .cls-34, .cls-20, .cls-37, .cls-23, .cls-28, .cls-29 {
        font-size: 15px;
      }

      .cls-1, .cls-38, .cls-39, .cls-40, .cls-22 {
        letter-spacing: -.02em;
      }

      .cls-41, .cls-3, .cls-4, .cls-12, .cls-42, .cls-43, .cls-44 {
        font-style: italic;
      }

      .cls-41, .cls-3, .cls-12, .cls-42, .cls-43, .cls-44 {
        font-family: Cambria-Italic, Cambria;
      }

      .cls-41, .cls-45, .cls-46, .cls-47, .cls-29, .cls-30 {
        letter-spacing: -.01em;
      }

      .cls-48, .cls-33 {
        fill: #21409a;
      }

      .cls-49, .cls-39, .cls-50, .cls-51, .cls-46, .cls-52 {
        font-size: 16px;
      }

      .cls-53, .cls-24 {
        letter-spacing: -.01em;
      }

      .cls-3, .cls-9, .cls-18 {
        font-size: 14px;
      }

      .cls-31, .cls-54, .cls-35 {
        fill: #ed1c24;
      }

      .cls-4 {
        font-family: Cambria-BoldItalic, Cambria;
      }

      .cls-4, .cls-13 {
        font-size: 12px;
      }

      .cls-5, .cls-55, .cls-9, .cls-40, .cls-13, .cls-14, .cls-15, .cls-16, .cls-19, .cls-45, .cls-56, .cls-24, .cls-57 {
        font-family: Cambria, Cambria;
      }

      .cls-5, .cls-55, .cls-58 {
        letter-spacing: 0em;
      }

      .cls-6 {
        letter-spacing: -.02em;
      }

      .cls-7 {
        letter-spacing: -.03em;
      }

      .cls-8 {
        letter-spacing: -.03em;
      }

      .cls-50, .cls-59 {
        letter-spacing: -.02em;
      }

      .cls-10 {
        stroke: #231f20;
      }

      .cls-10, .cls-60 {
        stroke-miterlimit: 10;
      }

      .cls-11 {
        font-family: MonotypeCorsiva, 'Monotype Corsiva';
        font-size: 40px;
      }

      .cls-61 {
        fill: #00aeef;
      }

      .cls-12 {
        font-size: 16.2px;
      }

      .cls-51, .cls-62 {
        letter-spacing: -.01em;
      }

      .cls-14 {
        letter-spacing: -.02em;
      }

      .cls-63 {
        letter-spacing: -.01em;
      }

      .cls-60 {
        fill: none;
        stroke: #000;
        stroke-width: 2px;
      }

      .cls-16, .cls-27, .cls-64 {
        letter-spacing: -.02em;
      }

      .cls-34, .cls-65, .cls-36 {
        fill: #7f3f98;
      }

      .cls-66 {
        letter-spacing: 0em;
      }

      .cls-17, .cls-23 {
        letter-spacing: 0em;
      }

      .cls-19, .cls-67, .cls-25, .cls-28 {
        letter-spacing: -.01em;
      }

      .cls-43, .cls-68 {
        letter-spacing: 0em;
      }

      .cls-21 {
        letter-spacing: -.03em;
      }

      .cls-69 {
        letter-spacing: 0em;
      }

      .cls-70, .cls-44 {
        letter-spacing: 0em;
      }

      .cls-35 {
        letter-spacing: 0em;
      }

      .cls-71 {
        letter-spacing: 0em;
      }

      .cls-52 {
        letter-spacing: -.08em;
      }

      .cls-57 {
        letter-spacing: -.06em;
      }
    </style>
  </defs>
  <text class="cls-20" transform="translate(122.24 38.33)"><tspan class="cls-56"><tspan x="0" y="0">Gamma, a</tspan><tspan class="cls-70" x="62.48" y="0">k</tspan><tspan x="70.23" y="0">a quar</tspan><tspan class="cls-58" x="110.87" y="0">t</tspan><tspan x="115.82" y="0">er-time, is not based on the </tspan><tspan class="cls-63" x="292.9" y="0">f</tspan><tspan x="297.25" y="0">our modes. </tspan></tspan><tspan class="cls-56"><tspan x="-76.55" y="18">H</tspan><tspan class="cls-69" x="-66.25" y="18">o</tspan><tspan class="cls-62" x="-58.37" y="18">w</tspan><tspan class="cls-68" x="-46.94" y="18">e</tspan><tspan class="cls-59" x="-39.77" y="18">v</tspan><tspan x="-32.5" y="18">er </tspan><tspan class="cls-62" x="-15.68" y="18">w</tspan><tspan x="-4.26" y="18">e can sepe</tspan><tspan class="cls-38" x="61.4" y="18">r</tspan><tspan x="67.35" y="18">a</tspan><tspan class="cls-58" x="74.67" y="18">t</tspan><tspan x="79.61" y="18">e the </tspan><tspan class="cls-64" x="114.21" y="18">v</tspan><tspan x="121.44" y="18">ariations of Γ→Γ in</tspan><tspan class="cls-58" x="242.09" y="18">t</tspan><tspan x="247.03" y="18">o Opposi</tspan><tspan class="cls-58" x="303.35" y="18">t</tspan><tspan x="308.3" y="18">e and Same di</tspan><tspan class="cls-47" x="396.59" y="18">r</tspan><tspan x="402.58" y="18">ection.</tspan></tspan><tspan class="cls-57" x="-109.78" y="36">W</tspan><tspan class="cls-56" x="-96.84" y="36">e can split them further in</tspan><tspan class="cls-55" x="68.99" y="36">t</tspan><tspan class="cls-56" x="73.94" y="36">o </tspan><tspan class="cls-41" x="85.2" y="36">P</tspan><tspan class="cls-42" x="93.31" y="36">ar</tspan><tspan class="cls-43" x="107.31" y="36">r</tspan><tspan class="cls-42" x="113.27" y="36">all</tspan><tspan class="cls-44" x="129.16" y="36">e</tspan><tspan class="cls-42" x="135.9" y="36">l </tspan><tspan class="cls-56" x="143.2" y="36">and </tspan><tspan class="cls-43" x="170.52" y="36">A</tspan><tspan class="cls-42" x="179.2" y="36">ntipa</tspan><tspan class="cls-43" x="212.26" y="36">r</tspan><tspan class="cls-42" x="218.23" y="36">all</tspan><tspan class="cls-44" x="234.11" y="36">e</tspan><tspan class="cls-42" x="240.86" y="36">l </tspan><tspan class="cls-56" x="248.16" y="36">(pa</tspan><tspan class="cls-40" x="269.55" y="36">r</tspan><tspan class="cls-56" x="275.5" y="36">allel but in opposi</tspan><tspan class="cls-55" x="389.6" y="36">t</tspan><tspan class="cls-56" x="394.54" y="36">e di</tspan><tspan class="cls-45" x="417.65" y="36">r</tspan><tspan class="cls-56" x="423.63" y="36">ections).</tspan></text>
  <text class="cls-49" transform="translate(61.53 341.37)"><tspan class="cls-15"><tspan x="0" y="0">When </tspan><tspan class="cls-59" x="43.83" y="0">y</tspan><tspan x="51.58" y="0">ou’</tspan><tspan class="cls-47" x="72.45" y="0">r</tspan><tspan x="78.83" y="0">e in </tspan><tspan class="cls-66" x="107.05" y="0">g</tspan><tspan x="114.83" y="0">amma, </tspan><tspan class="cls-59" x="163.88" y="0">y</tspan><tspan x="171.63" y="0">ou can m</tspan><tspan class="cls-47" x="233.12" y="0">o</tspan><tspan class="cls-59" x="241.38" y="0">v</tspan><tspan x="249.12" y="0">e </tspan><tspan class="cls-58" x="260.45" y="0">t</tspan><tspan x="265.73" y="0">o a</tspan><tspan class="cls-59" x="285.55" y="0">n</tspan><tspan x="294.17" y="0">y other </tspan><tspan class="cls-64" x="346.44" y="0">v</tspan><tspan x="354.16" y="0">ariation of </tspan><tspan class="cls-66" x="428.51" y="0">g</tspan><tspan x="436.28" y="0">amma.</tspan></tspan><tspan class="cls-15"><tspan x="-30.3" y="19.2">These </tspan><tspan class="cls-53" x="14.02" y="19.2">e</tspan><tspan class="cls-67" x="21.64" y="19.2">x</tspan><tspan x="29.16" y="19.2">amples a</tspan><tspan class="cls-47" x="89.54" y="19.2">r</tspan><tspan x="95.92" y="19.2">e continuous, but non-continuous sequence a</tspan><tspan class="cls-47" x="403.58" y="19.2">r</tspan><tspan x="409.96" y="19.2">e also possible.</tspan></tspan><tspan class="cls-32"><tspan class="cls-26" x="-4.5" y="57.6">P</tspan><tspan class="cls-22" x="5.32" y="57.6">r</tspan><tspan class="cls-26" x="12.43" y="57.6">acti</tspan><tspan class="cls-17" x="39.37" y="57.6">c</tspan><tspan class="cls-26" x="46.77" y="57.6">e using </tspan><tspan class="cls-61" x="102.21" y="57.6">Dual</tspan><tspan class="cls-21" x="136.54" y="57.6">-</tspan><tspan class="cls-65" x="141.46" y="57.6">Shifts </tspan><tspan class="cls-25" x="186.18" y="57.6">t</tspan><tspan class="cls-26" x="191.8" y="57.6">o c</tspan><tspan class="cls-30" x="211.93" y="57.6">r</tspan><tspan class="cls-26" x="219.08" y="57.6">ea</tspan><tspan class="cls-25" x="236.14" y="57.6">t</tspan><tspan class="cls-26" x="241.76" y="57.6">e non-</tspan><tspan class="cls-17" x="287.59" y="57.6">c</tspan><tspan class="cls-26" x="294.99" y="57.6">ontinuous Γ→Γ </tspan><tspan class="cls-27" x="407.93" y="57.6">v</tspan><tspan class="cls-26" x="416.07" y="57.6">ariations.</tspan></tspan></text>
  <path class="cls-54" d="m212.71,170.4h-.35s0-.07,0-.1c0-1.1,0-2.19,0-3.29,0-.29-.16-.51-.42-.59-.39-.12-.76.17-.76.59,0,.94,0,1.89,0,2.83,0,.18,0,.37,0,.56h-.35s0-.06,0-.09c0-1.34,0-2.69,0-4.03,0-.35-.25-.61-.59-.61-.34,0-.59.26-.59.61,0,1.34,0,2.68,0,4.02,0,.03,0,.06,0,.1h-.35v-.09c0-1.07,0-2.13,0-3.2,0-.32-.21-.55-.52-.6-.32-.05-.65.22-.65.55,0,.41,0,.81,0,1.22,0,1.35,0,2.7,0,4.05,0,.08-.02.16-.1.2-.09.05-.18.02-.24-.08-.23-.38-.45-.77-.68-1.15-.17-.3-.47-.4-.78-.26-.32.13-.44.5-.25.82.31.53.62,1.07.93,1.6.23.39.45.79.69,1.17.08.13.19.24.3.35.45.44.96.81,1.55,1.05.53.22,1.08.32,1.65.27,1.04-.1,1.8-.61,2.29-1.52.22-.42.34-.86.38-1.33.02-.22.03-.44.03-.66,0-1.47,0-2.95,0-4.42,0-.35-.27-.61-.6-.6-.32,0-.57.26-.57.57,0,.67,0,1.34,0,2.01v.09Z"/>
  <path class="cls-48" d="m190.5,153.95h.35s0-.07,0-.1c0-1.1,0-2.19,0-3.29,0-.29.16-.51.42-.59.39-.12.76.17.76.59,0,.94,0,1.89,0,2.83,0,.18,0,.37,0,.56h.35s0-.06,0-.09c0-1.34,0-2.69,0-4.03,0-.35.25-.61.59-.61.34,0,.59.26.59.61,0,1.34,0,2.68,0,4.02,0,.03,0,.06,0,.1h.35v-.09c0-1.07,0-2.13,0-3.2,0-.32.21-.55.52-.6.32-.05.65.22.65.55,0,.41,0,.81,0,1.22,0,1.35,0,2.7,0,4.05,0,.08.02.16.1.2.09.05.18.02.24-.08.23-.38.45-.77.68-1.15.17-.3.47-.4.78-.26.32.13.44.5.25.82-.31.53-.62,1.07-.93,1.6-.23.39-.45.79-.69,1.17-.08.13-.19.24-.3.35-.45.44-.96.81-1.55,1.05-.53.22-1.08.32-1.65.27-1.04-.1-1.8-.61-2.29-1.52-.22-.42-.34-.86-.38-1.33-.02-.22-.03-.44-.03-.66,0-1.47,0-2.95,0-4.42,0-.35.27-.61.6-.6.32,0,.57.26.57.57,0,.67,0,1.34,0,2.01v.09Z"/>
  <path class="cls-48" d="m307.67,171.84h.35s0-.07,0-.1c0-1.1,0-2.19,0-3.29,0-.29.16-.51.42-.59.39-.12.76.17.76.59,0,.94,0,1.89,0,2.83,0,.18,0,.37,0,.56h.35s0-.06,0-.09c0-1.34,0-2.69,0-4.03,0-.35.25-.61.59-.61.34,0,.59.26.59.61,0,1.34,0,2.68,0,4.02,0,.03,0,.06,0,.1h.35v-.09c0-1.07,0-2.13,0-3.2,0-.32.21-.55.52-.6.32-.05.65.22.65.55,0,.41,0,.81,0,1.22,0,1.35,0,2.7,0,4.05,0,.08.02.16.1.2.09.05.18.02.24-.08.23-.38.45-.77.68-1.15.17-.3.47-.4.78-.26.32.13.44.5.25.82-.31.53-.62,1.07-.93,1.6-.23.39-.45.79-.69,1.17-.08.13-.19.24-.3.35-.45.44-.96.81-1.55,1.05-.53.22-1.08.32-1.65.27-1.04-.1-1.8-.61-2.29-1.52-.22-.42-.34-.86-.38-1.33-.02-.22-.03-.44-.03-.66,0-1.47,0-2.95,0-4.42,0-.35.27-.61.6-.6.32,0,.57.26.57.57,0,.67,0,1.34,0,2.01v.09Z"/>
  <path class="cls-54" d="m296.05,154.67h-.35s0-.07,0-.1c0-1.1,0-2.19,0-3.29,0-.29-.16-.51-.42-.59-.39-.12-.76.17-.76.59,0,.94,0,1.89,0,2.83,0,.18,0,.37,0,.56h-.35s0-.06,0-.09c0-1.34,0-2.69,0-4.03,0-.35-.25-.61-.59-.61-.34,0-.59.26-.59.61,0,1.34,0,2.68,0,4.02,0,.03,0,.06,0,.1h-.35v-.09c0-1.07,0-2.13,0-3.2,0-.32-.21-.55-.52-.6-.32-.05-.65.22-.65.55,0,.41,0,.81,0,1.22,0,1.35,0,2.7,0,4.05,0,.08-.02.16-.1.2-.09.05-.18.02-.24-.08-.23-.38-.45-.77-.68-1.15-.17-.3-.47-.4-.78-.26-.32.13-.44.5-.25.82.31.53.62,1.07.93,1.6.23.39.45.79.69,1.17.08.13.19.24.3.35.45.44.96.81,1.55,1.05.53.22,1.08.32,1.65.27,1.04-.1,1.8-.61,2.29-1.52.22-.42.34-.86.38-1.33.02-.22.03-.44.03-.66,0-1.47,0-2.95,0-4.42,0-.35-.27-.61-.6-.6-.32,0-.57.26-.57.57,0,.67,0,1.34,0,2.01v.09Z"/>
  <path class="cls-54" d="m222.95,183.75c.24-1.5-.11-6.4-.11-6.4,0,0-4.96-.35-6.48-.11-1.15.18-1.12,1.91-1.12,1.91l4.24.03-21.24,20.97c-1.08,1.06.44,2.56,1.52,1.5l21.24-20.97.03,4.18s1.74.03,1.93-1.1Z"/>
  <path class="cls-48" d="m182.01,142.9c1.52-.23,6.48.11,6.48.11,0,0,.35,4.9.11,6.4-.19,1.13-1.93,1.1-1.93,1.1l-.03-4.18-21.24,20.97c-1.08,1.06-2.59-.43-1.52-1.5l21.24-20.97-4.24-.03s-.03-1.72,1.12-1.91Z"/>
  <path class="cls-54" d="m303.19,145.05c-.24-1.5.11-6.4.11-6.4,0,0,4.96-.35,6.48-.11,1.15.18,1.12,1.91,1.12,1.91l-4.24.03,21.24,20.97c1.08,1.06-.44,2.56-1.52,1.5l-21.24-20.97-.03,4.18s-1.74.03-1.93-1.1Z"/>
  <path class="cls-48" d="m322.8,160.92c.24,1.5-.11,6.4-.11,6.4,0,0-4.96.35-6.48.11-1.15-.18-1.12-1.91-1.12-1.91l4.24-.03-21.24-20.97c-1.08-1.06.44-2.56,1.52-1.5l21.24,20.97.03-4.18s1.74-.03,1.93,1.1Z"/>
  <path class="cls-54" d="m378.88,171.84h-.35s0-.07,0-.1c0-1.1,0-2.19,0-3.29,0-.29-.16-.51-.42-.59-.39-.12-.76.17-.76.59,0,.94,0,1.89,0,2.83,0,.18,0,.37,0,.56h-.35s0-.06,0-.09c0-1.34,0-2.69,0-4.03,0-.35-.25-.61-.59-.61-.34,0-.59.26-.59.61,0,1.34,0,2.68,0,4.02,0,.03,0,.06,0,.1h-.35v-.09c0-1.07,0-2.13,0-3.2,0-.32-.21-.55-.52-.6-.32-.05-.65.22-.65.55,0,.41,0,.81,0,1.22,0,1.35,0,2.7,0,4.05,0,.08-.02.16-.1.2-.09.05-.18.02-.24-.08-.23-.38-.45-.77-.68-1.15-.17-.3-.47-.4-.78-.26-.32.13-.44.5-.25.82.31.53.62,1.07.93,1.6.23.39.45.79.69,1.17.08.13.19.24.3.35.45.44.96.81,1.55,1.05.53.22,1.08.32,1.65.27,1.04-.1,1.8-.61,2.29-1.52.22-.42.34-.86.38-1.33.02-.22.03-.44.03-.66,0-1.47,0-2.95,0-4.42,0-.35-.27-.61-.6-.6-.32,0-.57.26-.57.57,0,.67,0,1.34,0,2.01v.09Z"/>
  <path class="cls-48" d="m390.5,189.01h.35s0-.07,0-.1c0-1.1,0-2.19,0-3.29,0-.29.16-.51.42-.59.39-.12.76.17.76.59,0,.94,0,1.89,0,2.83,0,.18,0,.37,0,.56h.35s0-.06,0-.09c0-1.34,0-2.69,0-4.03,0-.35.25-.61.59-.61.34,0,.59.26.59.61,0,1.34,0,2.68,0,4.02,0,.03,0,.06,0,.1h.35v-.09c0-1.07,0-2.13,0-3.2,0-.32.21-.55.52-.6.32-.05.65.22.65.55,0,.41,0,.81,0,1.22,0,1.35,0,2.7,0,4.05,0,.08.02.16.1.2.09.05.18.02.24-.08.23-.38.45-.77.68-1.15.17-.3.47-.4.78-.26.32.13.44.5.25.82-.31.53-.62,1.07-.93,1.6-.23.39-.45.79-.69,1.17-.08.13-.19.24-.3.35-.45.44-.96.81-1.55,1.05-.53.22-1.08.32-1.65.27-1.04-.1-1.8-.61-2.29-1.52-.22-.42-.34-.86-.38-1.33-.02-.22-.03-.44-.03-.66,0-1.47,0-2.95,0-4.42,0-.35.27-.61.6-.6.32,0,.57.26.57.57,0,.67,0,1.34,0,2.01v.09Z"/>
  <path class="cls-54" d="m496.05,189.01h-.35s0-.07,0-.1c0-1.1,0-2.19,0-3.29,0-.29-.16-.51-.42-.59-.39-.12-.76.17-.76.59,0,.94,0,1.89,0,2.83,0,.18,0,.37,0,.56h-.35s0-.06,0-.09c0-1.34,0-2.69,0-4.03,0-.35-.25-.61-.59-.61-.34,0-.59.26-.59.61,0,1.34,0,2.68,0,4.02,0,.03,0,.06,0,.1h-.35v-.09c0-1.07,0-2.13,0-3.2,0-.32-.21-.55-.52-.6-.32-.05-.65.22-.65.55,0,.41,0,.81,0,1.22,0,1.35,0,2.7,0,4.05,0,.08-.02.16-.1.2-.09.05-.18.02-.24-.08-.23-.38-.45-.77-.68-1.15-.17-.3-.47-.4-.78-.26-.32.13-.44.5-.25.82.31.53.62,1.07.93,1.6.23.39.45.79.69,1.17.08.13.19.24.3.35.45.44.96.81,1.55,1.05.53.22,1.08.32,1.65.27,1.04-.1,1.8-.61,2.29-1.52.22-.42.34-.86.38-1.33.02-.22.03-.44.03-.66,0-1.47,0-2.95,0-4.42,0-.35-.27-.61-.6-.6-.32,0-.57.26-.57.57,0,.67,0,1.34,0,2.01v.09Z"/>
  <path class="cls-48" d="m473.33,171.84h.35s0-.07,0-.1c0-1.1,0-2.19,0-3.29,0-.29.16-.51.42-.59.39-.12.76.17.76.59,0,.94,0,1.89,0,2.83,0,.18,0,.37,0,.56h.35s0-.06,0-.09c0-1.34,0-2.69,0-4.03,0-.35.25-.61.59-.61.34,0,.59.26.59.61,0,1.34,0,2.68,0,4.02,0,.03,0,.06,0,.1h.35v-.09c0-1.07,0-2.13,0-3.2,0-.32.21-.55.52-.6.32-.05.65.22.65.55,0,.41,0,.81,0,1.22,0,1.35,0,2.7,0,4.05,0,.08.02.16.1.2.09.05.18.02.24-.08.23-.38.45-.77.68-1.15.17-.3.47-.4.78-.26.32.13.44.5.25.82-.31.53-.62,1.07-.93,1.6-.23.39-.45.79-.69,1.17-.08.13-.19.24-.3.35-.45.44-.96.81-1.55,1.05-.53.22-1.08.32-1.65.27-1.04-.1-1.8-.61-2.29-1.52-.22-.42-.34-.86-.38-1.33-.02-.22-.03-.44-.03-.66,0-1.47,0-2.95,0-4.42,0-.35.27-.61.6-.6.32,0,.57.26.57.57,0,.67,0,1.34,0,2.01v.09Z"/>
  <path class="cls-54" d="m363.6,160.92c-.24,1.5.11,6.4.11,6.4,0,0,4.96.35,6.48.11,1.15-.18,1.12-1.91,1.12-1.91l-4.24-.03,21.24-20.97c1.08-1.06-.44-2.56-1.52-1.5l-21.24,20.97-.03-4.18s-1.74-.03-1.93,1.1Z"/>
  <path class="cls-48" d="m404.54,201.92c-1.52.23-6.48-.11-6.48-.11,0,0-.35-4.9-.11-6.4.19-1.13,1.93-1.1,1.93-1.1l.03,4.18,21.24-20.97c1.08-1.06,2.59.43,1.52,1.5l-21.24,20.97,4.24.03s.03,1.72-1.12,1.91Z"/>
  <path class="cls-54" d="m483.51,199.92c.24,1.5-.11,6.4-.11,6.4,0,0-4.96.35-6.48.11-1.15-.18-1.12-1.91-1.12-1.91l4.24-.03-21.24-20.97c-1.08-1.06.44-2.56,1.52-1.5l21.24,20.97.03-4.18s1.74-.03,1.93,1.1Z"/>
  <path class="cls-48" d="m463.9,184.05c-.24-1.5.11-6.4.11-6.4,0,0,4.96-.35,6.48-.11,1.15.18,1.12,1.91,1.12,1.91l-4.24.03,21.24,20.97c1.08,1.06-.44,2.56-1.52,1.5l-21.24-20.97-.03,4.18s-1.74.03-1.93-1.1Z"/>
  <path class="cls-54" d="m222.95,283.75c.24-1.5-.11-6.4-.11-6.4,0,0-4.96-.35-6.48-.11-1.15.18-1.12,1.91-1.12,1.91l4.24.03-21.24,20.97c-1.08,1.06.44,2.56,1.52,1.5l21.24-20.97.03,4.18s1.74.03,1.93-1.1Z"/>
  <path class="cls-48" d="m182.01,301.92c1.52.23,6.48-.11,6.48-.11,0,0,.35-4.9.11-6.4-.19-1.13-1.93-1.1-1.93-1.1l-.03,4.18-21.24-20.97c-1.08-1.06-2.59.43-1.52,1.5l21.24,20.97-4.24.03s-.03,1.72,1.12,1.91Z"/>
  <g>
    <path class="cls-26" d="m103.14,140.47h10.69l-1.43-2.16.88-.71,2.87,3.24-.21.95-4.04,3.13-.69-.82,2.29-2.13h-10.69l.33-1.5Z"/>
    <path d="m102.11,137.04c-.02.26-.14.59-.9.55s-3.92.04-4.37.07c0,.56.26,3.6.43,7.28.05,1.13-.44,1.27-.64,1.27-.34,0-.92-.43-1.03-1.14-.09-.66-.16-2.16-.23-3.74-.06-1.37-.12-2.79-.21-3.75l-.95.31.03-1.02c.04-.21.25-.46.39-.47s6.42-.22,6.78-.2.7.53.69.83Z"/>
    <path d="m127.21,137.09c-.02.26-.14.59-.9.55s-3.92.04-4.37.07c0,.56.26,3.6.43,7.28.05,1.13-.44,1.27-.64,1.27-.34,0-.92-.43-1.03-1.14-.09-.66-.16-2.16-.23-3.74-.06-1.37-.12-2.79-.21-3.75l-.95.31.03-1.02c.04-.21.25-.46.39-.47s6.42-.22,6.78-.2.7.53.69.83Z"/>
  </g>
  <g>
    <path class="cls-26" d="m103.14,247.41h10.69l-1.43-2.16.88-.71,2.87,3.24-.21.95-4.04,3.13-.69-.82,2.29-2.13h-10.69l.33-1.5Z"/>
    <path d="m102.11,243.98c-.02.26-.14.59-.9.55s-3.92.04-4.37.07c0,.56.26,3.6.43,7.28.05,1.13-.44,1.27-.64,1.27-.34,0-.92-.43-1.03-1.14-.09-.66-.16-2.16-.23-3.74-.06-1.37-.12-2.79-.21-3.75l-.95.31.03-1.02c.04-.21.25-.46.39-.47s6.42-.22,6.78-.2.7.53.69.83Z"/>
    <path d="m127.21,244.03c-.02.26-.14.59-.9.55s-3.92.04-4.37.07c0,.56.26,3.6.43,7.28.05,1.13-.44,1.27-.64,1.27-.34,0-.92-.43-1.03-1.14-.09-.66-.16-2.16-.23-3.74-.06-1.37-.12-2.79-.21-3.75l-.95.31.03-1.02c.04-.21.25-.46.39-.47s6.42-.22,6.78-.2.7.53.69.83Z"/>
  </g>
  <text class="cls-12" transform="translate(78.81 167.51)"><tspan x="0" y="0">Opposi</tspan><tspan class="cls-71" x="45.93" y="0">t</tspan><tspan x="51.41" y="0">e</tspan></text>
  <text class="cls-3" transform="translate(171.85 116.21)"><tspan class="cls-47" x="0" y="0">P</tspan><tspan x="7.57" y="0">a</tspan><tspan class="cls-68" x="14.93" y="0">r</tspan><tspan x="20.49" y="0">all</tspan><tspan class="cls-70" x="35.32" y="0">e</tspan><tspan x="41.62" y="0">l</tspan></text>
  <text class="cls-3" transform="translate(248.94 116.21)"><tspan class="cls-68" x="0" y="0">A</tspan><tspan x="8.1" y="0">ntipa</tspan><tspan class="cls-68" x="38.96" y="0">r</tspan><tspan x="44.52" y="0">all</tspan><tspan class="cls-70" x="59.35" y="0">e</tspan><tspan x="65.65" y="0">l</tspan></text>
  <text class="cls-3" transform="translate(351.85 116.21)"><tspan class="cls-47" x="0" y="0">P</tspan><tspan x="7.57" y="0">a</tspan><tspan class="cls-68" x="14.93" y="0">r</tspan><tspan x="20.49" y="0">all</tspan><tspan class="cls-70" x="35.32" y="0">e</tspan><tspan x="41.62" y="0">l</tspan></text>
  <text class="cls-3" transform="translate(428.94 116.21)"><tspan class="cls-68" x="0" y="0">A</tspan><tspan x="8.1" y="0">ntipa</tspan><tspan class="cls-68" x="38.96" y="0">r</tspan><tspan x="44.52" y="0">all</tspan><tspan class="cls-70" x="59.35" y="0">e</tspan><tspan x="65.65" y="0">l</tspan></text>
  <text class="cls-12" transform="translate(89.88 273.08)"><tspan x="0" y="0">Same</tspan></text>
  <line class="cls-10" x1="79.16" y1="226.01" x2="498.56" y2="226.01"/>
  <g>
    <text class="cls-13" transform="translate(156.29 140.28)"><tspan x="0" y="0">1</tspan></text>
    <text class="cls-13" transform="translate(246.19 140.28)"><tspan x="0" y="0">2</tspan></text>
    <text class="cls-13" transform="translate(336.29 140.28)"><tspan x="0" y="0">3</tspan></text>
    <text class="cls-13" transform="translate(426.19 140.28)"><tspan x="0" y="0">4</tspan></text>
  </g>
  <g>
    <text class="cls-13" transform="translate(156.29 251.41)"><tspan x="0" y="0">1</tspan></text>
    <text class="cls-13" transform="translate(246.19 251.41)"><tspan x="0" y="0">2</tspan></text>
    <text class="cls-13" transform="translate(336.29 251.41)"><tspan x="0" y="0">3</tspan></text>
    <text class="cls-13" transform="translate(426.19 251.41)"><tspan x="0" y="0">4</tspan></text>
  </g>
  <line class="cls-60" x1="-1.75" y1="430" x2="610.25" y2="430"/>
  <g>
    <g>
      <path class="cls-26" d="m193.28,173.91c1.93,0,1.93-3,0-3s-1.93,3,0,3h0Z"/>
      <circle class="cls-26" cx="229.28" cy="172.41" r="3"/>
      <circle class="cls-26" cx="193.28" cy="208.41" r="3"/>
      <circle class="cls-26" cx="157.28" cy="172.41" r="3"/>
      <circle class="cls-26" cx="193.28" cy="136.41" r="3"/>
    </g>
    <g>
      <path class="cls-26" d="m293.28,173.91c1.93,0,1.93-3,0-3s-1.93,3,0,3h0Z"/>
      <circle class="cls-26" cx="329.28" cy="172.41" r="3"/>
      <circle class="cls-26" cx="293.28" cy="208.41" r="3"/>
      <circle class="cls-26" cx="257.28" cy="172.41" r="3"/>
      <circle class="cls-26" cx="293.28" cy="136.41" r="3"/>
    </g>
    <g>
      <path class="cls-26" d="m393.28,173.91c1.93,0,1.93-3,0-3s-1.93,3,0,3h0Z"/>
      <path class="cls-26" d="m411.64,189.58c0-1.54-2.39-1.54-2.39,0,0,1.54,2.39,1.54,2.39,0h0Z"/>
      <path class="cls-26" d="m410.45,188.38c-1.54,0-1.54,2.39,0,2.39,1.54,0,1.54-2.39,0-2.39h0Z"/>
      <circle class="cls-26" cx="429.28" cy="172.41" r="3"/>
      <circle class="cls-26" cx="393.28" cy="208.41" r="3"/>
      <circle class="cls-26" cx="357.28" cy="172.41" r="3"/>
      <circle class="cls-26" cx="393.28" cy="136.41" r="3"/>
    </g>
    <g>
      <path class="cls-26" d="m493.28,173.91c1.93,0,1.93-3,0-3s-1.93,3,0,3h0Z"/>
      <path class="cls-26" d="m476.11,190.78c1.54,0,1.54-2.39,0-2.39-1.54,0-1.54,2.39,0,2.39h0Z"/>
      <circle class="cls-26" cx="529.28" cy="172.41" r="3"/>
      <circle class="cls-26" cx="493.28" cy="208.41" r="3"/>
      <circle class="cls-26" cx="457.28" cy="172.41" r="3"/>
      <circle class="cls-26" cx="493.28" cy="136.41" r="3"/>
    </g>
  </g>
  <g>
    <g>
      <path class="cls-26" d="m193.28,273.91c1.93,0,1.93-3,0-3s-1.93,3,0,3h0Z"/>
      <path class="cls-26" d="m209.25,255.24c0,1.54,2.39,1.54,2.39,0s-2.39-1.54-2.39,0h0Z"/>
      <path class="cls-26" d="m174.91,255.24c0,1.54,2.39,1.54,2.39,0s-2.39-1.54-2.39,0h0Z"/>
      <path class="cls-26" d="m176.11,256.44c1.54,0,1.54-2.39,0-2.39s-1.54,2.39,0,2.39h0Z"/>
      <path class="cls-26" d="m176.11,290.78c1.54,0,1.54-2.39,0-2.39-1.54,0-1.54,2.39,0,2.39h0Z"/>
      <path class="cls-26" d="m177.3,289.58c0-1.54-2.39-1.54-2.39,0,0,1.54,2.39,1.54,2.39,0h0Z"/>
      <path class="cls-26" d="m211.64,289.58c0-1.54-2.39-1.54-2.39,0,0,1.54,2.39,1.54,2.39,0h0Z"/>
      <path class="cls-26" d="m210.45,288.38c-1.54,0-1.54,2.39,0,2.39,1.54,0,1.54-2.39,0-2.39h0Z"/>
      <path class="cls-26" d="m210.45,254.04c-1.54,0-1.54,2.39,0,2.39,1.54,0,1.54-2.39,0-2.39h0Z"/>
      <circle class="cls-26" cx="229.28" cy="272.41" r="3"/>
      <circle class="cls-26" cx="193.28" cy="308.41" r="3"/>
      <circle class="cls-26" cx="157.28" cy="272.41" r="3"/>
      <circle class="cls-26" cx="193.28" cy="236.41" r="3"/>
    </g>
    <g>
      <path class="cls-26" d="m293.28,273.91c1.93,0,1.93-3,0-3s-1.93,3,0,3h0Z"/>
      <path class="cls-26" d="m309.25,255.24c0,1.54,2.39,1.54,2.39,0s-2.39-1.54-2.39,0h0Z"/>
      <path class="cls-26" d="m274.91,255.24c0,1.54,2.39,1.54,2.39,0s-2.39-1.54-2.39,0h0Z"/>
      <path class="cls-26" d="m276.11,256.44c1.54,0,1.54-2.39,0-2.39s-1.54,2.39,0,2.39h0Z"/>
      <path class="cls-26" d="m276.11,290.78c1.54,0,1.54-2.39,0-2.39-1.54,0-1.54,2.39,0,2.39h0Z"/>
      <path class="cls-26" d="m277.3,289.58c0-1.54-2.39-1.54-2.39,0,0,1.54,2.39,1.54,2.39,0h0Z"/>
      <path class="cls-26" d="m311.64,289.58c0-1.54-2.39-1.54-2.39,0,0,1.54,2.39,1.54,2.39,0h0Z"/>
      <path class="cls-26" d="m310.45,288.38c-1.54,0-1.54,2.39,0,2.39,1.54,0,1.54-2.39,0-2.39h0Z"/>
      <path class="cls-26" d="m310.45,254.04c-1.54,0-1.54,2.39,0,2.39,1.54,0,1.54-2.39,0-2.39h0Z"/>
      <circle class="cls-26" cx="329.28" cy="272.41" r="3"/>
      <circle class="cls-26" cx="293.28" cy="308.41" r="3"/>
      <circle class="cls-26" cx="257.28" cy="272.41" r="3"/>
      <circle class="cls-26" cx="293.28" cy="236.41" r="3"/>
    </g>
    <g>
      <path class="cls-26" d="m393.28,273.91c1.93,0,1.93-3,0-3s-1.93,3,0,3h0Z"/>
      <path class="cls-26" d="m409.25,255.24c0,1.54,2.39,1.54,2.39,0s-2.39-1.54-2.39,0h0Z"/>
      <path class="cls-26" d="m374.91,255.24c0,1.54,2.39,1.54,2.39,0s-2.39-1.54-2.39,0h0Z"/>
      <path class="cls-26" d="m376.11,256.44c1.54,0,1.54-2.39,0-2.39s-1.54,2.39,0,2.39h0Z"/>
      <path class="cls-26" d="m376.11,290.78c1.54,0,1.54-2.39,0-2.39-1.54,0-1.54,2.39,0,2.39h0Z"/>
      <path class="cls-26" d="m377.3,289.58c0-1.54-2.39-1.54-2.39,0,0,1.54,2.39,1.54,2.39,0h0Z"/>
      <path class="cls-26" d="m411.64,289.58c0-1.54-2.39-1.54-2.39,0,0,1.54,2.39,1.54,2.39,0h0Z"/>
      <path class="cls-26" d="m410.45,288.38c-1.54,0-1.54,2.39,0,2.39,1.54,0,1.54-2.39,0-2.39h0Z"/>
      <path class="cls-26" d="m410.45,254.04c-1.54,0-1.54,2.39,0,2.39,1.54,0,1.54-2.39,0-2.39h0Z"/>
      <circle class="cls-26" cx="429.28" cy="272.41" r="3"/>
      <circle class="cls-26" cx="393.28" cy="308.41" r="3"/>
      <circle class="cls-26" cx="357.28" cy="272.41" r="3"/>
      <circle class="cls-26" cx="393.28" cy="236.41" r="3"/>
    </g>
    <g>
      <path class="cls-26" d="m493.28,273.91c1.93,0,1.93-3,0-3s-1.93,3,0,3h0Z"/>
      <path class="cls-26" d="m509.25,255.24c0,1.54,2.39,1.54,2.39,0s-2.39-1.54-2.39,0h0Z"/>
      <path class="cls-26" d="m474.91,255.24c0,1.54,2.39,1.54,2.39,0s-2.39-1.54-2.39,0h0Z"/>
      <path class="cls-26" d="m476.11,256.44c1.54,0,1.54-2.39,0-2.39s-1.54,2.39,0,2.39h0Z"/>
      <path class="cls-26" d="m476.11,290.78c1.54,0,1.54-2.39,0-2.39-1.54,0-1.54,2.39,0,2.39h0Z"/>
      <path class="cls-26" d="m477.3,289.58c0-1.54-2.39-1.54-2.39,0,0,1.54,2.39,1.54,2.39,0h0Z"/>
      <path class="cls-26" d="m511.64,289.58c0-1.54-2.39-1.54-2.39,0,0,1.54,2.39,1.54,2.39,0h0Z"/>
      <path class="cls-26" d="m510.45,288.38c-1.54,0-1.54,2.39,0,2.39,1.54,0,1.54-2.39,0-2.39h0Z"/>
      <path class="cls-26" d="m510.45,254.04c-1.54,0-1.54,2.39,0,2.39,1.54,0,1.54-2.39,0-2.39h0Z"/>
      <circle class="cls-26" cx="529.28" cy="272.41" r="3"/>
      <circle class="cls-26" cx="493.28" cy="308.41" r="3"/>
      <circle class="cls-26" cx="457.28" cy="272.41" r="3"/>
      <circle class="cls-26" cx="493.28" cy="236.41" r="3"/>
    </g>
  </g>
  <path class="cls-54" d="m213.22,271.84h-.35s0-.07,0-.1c0-1.1,0-2.19,0-3.29,0-.29-.16-.51-.42-.59-.39-.12-.76.17-.76.59,0,.94,0,1.89,0,2.83,0,.18,0,.37,0,.56h-.35s0-.06,0-.09c0-1.34,0-2.69,0-4.03,0-.35-.25-.61-.59-.61-.34,0-.59.26-.59.61,0,1.34,0,2.68,0,4.02,0,.03,0,.06,0,.1h-.35v-.09c0-1.07,0-2.13,0-3.2,0-.32-.21-.55-.52-.6-.32-.05-.65.22-.65.55,0,.41,0,.81,0,1.22,0,1.35,0,2.7,0,4.05,0,.08-.02.16-.1.2-.09.05-.18.02-.24-.08-.23-.38-.45-.77-.68-1.15-.17-.3-.47-.4-.78-.26-.32.13-.44.5-.25.82.31.53.62,1.07.93,1.6.23.39.45.79.69,1.17.08.13.19.24.3.35.45.44.96.81,1.55,1.05.53.22,1.08.32,1.65.27,1.04-.1,1.8-.61,2.29-1.52.22-.42.34-.86.38-1.33.02-.22.03-.44.03-.66,0-1.47,0-2.95,0-4.42,0-.35-.27-.61-.6-.6-.32,0-.57.26-.57.57,0,.67,0,1.34,0,2.01v.09Z"/>
  <path class="cls-48" d="m190.5,289.01h.35s0-.07,0-.1c0-1.1,0-2.19,0-3.29,0-.29.16-.51.42-.59.39-.12.76.17.76.59,0,.94,0,1.89,0,2.83,0,.18,0,.37,0,.56h.35s0-.06,0-.09c0-1.34,0-2.69,0-4.03,0-.35.25-.61.59-.61.34,0,.59.26.59.61,0,1.34,0,2.68,0,4.02,0,.03,0,.06,0,.1h.35v-.09c0-1.07,0-2.13,0-3.2,0-.32.21-.55.52-.6.32-.05.65.22.65.55,0,.41,0,.81,0,1.22,0,1.35,0,2.7,0,4.05,0,.08.02.16.1.2.09.05.18.02.24-.08.23-.38.45-.77.68-1.15.17-.3.47-.4.78-.26.32.13.44.5.25.82-.31.53-.62,1.07-.93,1.6-.23.39-.45.79-.69,1.17-.08.13-.19.24-.3.35-.45.44-.96.81-1.55,1.05-.53.22-1.08.32-1.65.27-1.04-.1-1.8-.61-2.29-1.52-.22-.42-.34-.86-.38-1.33-.02-.22-.03-.44-.03-.66,0-1.47,0-2.95,0-4.42,0-.35.27-.61.6-.6.32,0,.57.26.57.57,0,.67,0,1.34,0,2.01v.09Z"/>
  <path class="cls-54" d="m304.62,242.74c-1.5-.24-6.4.11-6.4.11,0,0-.35,4.96-.11,6.48.18,1.15,1.91,1.12,1.91,1.12l.03-4.24,20.97,21.24c1.06,1.08,2.56-.44,1.5-1.52l-20.97-21.24,4.18-.03s.03-1.74-1.1-1.93Z"/>
  <path class="cls-48" d="m322.79,283.68c.23-1.52-.11-6.48-.11-6.48,0,0-4.9-.35-6.4-.11-1.13.19-1.1,1.93-1.1,1.93l4.18.03-20.97,21.24c-1.06,1.08.43,2.59,1.5,1.52l20.97-21.24.03,4.24s1.72.03,1.91-1.12Z"/>
  <path class="cls-54" d="m296.05,254.67h-.35s0-.07,0-.1c0-1.1,0-2.19,0-3.29,0-.29-.16-.51-.42-.59-.39-.12-.76.17-.76.59,0,.94,0,1.89,0,2.83,0,.18,0,.37,0,.56h-.35s0-.06,0-.09c0-1.34,0-2.69,0-4.03,0-.35-.25-.61-.59-.61-.34,0-.59.26-.59.61,0,1.34,0,2.68,0,4.02,0,.03,0,.06,0,.1h-.35v-.09c0-1.07,0-2.13,0-3.2,0-.32-.21-.55-.52-.6-.32-.05-.65.22-.65.55,0,.41,0,.81,0,1.22,0,1.35,0,2.7,0,4.05,0,.08-.02.16-.1.2-.09.05-.18.02-.24-.08-.23-.38-.45-.77-.68-1.15-.17-.3-.47-.4-.78-.26-.32.13-.44.5-.25.82.31.53.62,1.07.93,1.6.23.39.45.79.69,1.17.08.13.19.24.3.35.45.44.96.81,1.55,1.05.53.22,1.08.32,1.65.27,1.04-.1,1.8-.61,2.29-1.52.22-.42.34-.86.38-1.33.02-.22.03-.44.03-.66,0-1.47,0-2.95,0-4.42,0-.35-.27-.61-.6-.6-.32,0-.57.26-.57.57,0,.67,0,1.34,0,2.01v.09Z"/>
  <path class="cls-48" d="m307.67,271.84h.35s0-.07,0-.1c0-1.1,0-2.19,0-3.29,0-.29.16-.51.42-.59.39-.12.76.17.76.59,0,.94,0,1.89,0,2.83,0,.18,0,.37,0,.56h.35s0-.06,0-.09c0-1.34,0-2.69,0-4.03,0-.35.25-.61.59-.61.34,0,.59.26.59.61,0,1.34,0,2.68,0,4.02,0,.03,0,.06,0,.1h.35v-.09c0-1.07,0-2.13,0-3.2,0-.32.21-.55.52-.6.32-.05.65.22.65.55,0,.41,0,.81,0,1.22,0,1.35,0,2.7,0,4.05,0,.08.02.16.1.2.09.05.18.02.24-.08.23-.38.45-.77.68-1.15.17-.3.47-.4.78-.26.32.13.44.5.25.82-.31.53-.62,1.07-.93,1.6-.23.39-.45.79-.69,1.17-.08.13-.19.24-.3.35-.45.44-.96.81-1.55,1.05-.53.22-1.08.32-1.65.27-1.04-.1-1.8-.61-2.29-1.52-.22-.42-.34-.86-.38-1.33-.02-.22-.03-.44-.03-.66,0-1.47,0-2.95,0-4.42,0-.35.27-.61.6-.6.32,0,.57.26.57.57,0,.67,0,1.34,0,2.01v.09Z"/>
  <path class="cls-54" d="m363.6,261.07c-.24,1.5.11,6.4.11,6.4,0,0,4.96.35,6.48.11,1.15-.18,1.12-1.91,1.12-1.91l-4.24-.03,21.24-20.97c1.08-1.06-.44-2.56-1.52-1.5l-21.24,20.97-.03-4.18s-1.74-.03-1.93,1.1Z"/>
  <path class="cls-48" d="m404.54,242.9c-1.52-.23-6.48.11-6.48.11,0,0-.35,4.9-.11,6.4.19,1.13,1.93,1.1,1.93,1.1l.03-4.18,21.24,20.97c1.08,1.06,2.59-.43,1.52-1.5l-21.24-20.97,4.24-.03s.03-1.72-1.12-1.91Z"/>
  <path class="cls-54" d="m378.88,271.84h-.35s0-.07,0-.1c0-1.1,0-2.19,0-3.29,0-.29-.16-.51-.42-.59-.39-.12-.76.17-.76.59,0,.94,0,1.89,0,2.83,0,.18,0,.37,0,.56h-.35s0-.06,0-.09c0-1.34,0-2.69,0-4.03,0-.35-.25-.61-.59-.61-.34,0-.59.26-.59.61,0,1.34,0,2.68,0,4.02,0,.03,0,.06,0,.1h-.35v-.09c0-1.07,0-2.13,0-3.2,0-.32-.21-.55-.52-.6-.32-.05-.65.22-.65.55,0,.41,0,.81,0,1.22,0,1.35,0,2.7,0,4.05,0,.08-.02.16-.1.2-.09.05-.18.02-.24-.08-.23-.38-.45-.77-.68-1.15-.17-.3-.47-.4-.78-.26-.32.13-.44.5-.25.82.31.53.62,1.07.93,1.6.23.39.45.79.69,1.17.08.13.19.24.3.35.45.44.96.81,1.55,1.05.53.22,1.08.32,1.65.27,1.04-.1,1.8-.61,2.29-1.52.22-.42.34-.86.38-1.33.02-.22.03-.44.03-.66,0-1.47,0-2.95,0-4.42,0-.35-.27-.61-.6-.6-.32,0-.57.26-.57.57,0,.67,0,1.34,0,2.01v.09Z"/>
  <path class="cls-48" d="m390.5,254.67h.35s0-.07,0-.1c0-1.1,0-2.19,0-3.29,0-.29.16-.51.42-.59.39-.12.76.17.76.59,0,.94,0,1.89,0,2.83,0,.18,0,.37,0,.56h.35s0-.06,0-.09c0-1.34,0-2.69,0-4.03,0-.35.25-.61.59-.61.34,0,.59.26.59.61,0,1.34,0,2.68,0,4.02,0,.03,0,.06,0,.1h.35v-.09c0-1.07,0-2.13,0-3.2,0-.32.21-.55.52-.6.32-.05.65.22.65.55,0,.41,0,.81,0,1.22,0,1.35,0,2.7,0,4.05,0,.08.02.16.1.2.09.05.18.02.24-.08.23-.38.45-.77.68-1.15.17-.3.47-.4.78-.26.32.13.44.5.25.82-.31.53-.62,1.07-.93,1.6-.23.39-.45.79-.69,1.17-.08.13-.19.24-.3.35-.45.44-.96.81-1.55,1.05-.53.22-1.08.32-1.65.27-1.04-.1-1.8-.61-2.29-1.52-.22-.42-.34-.86-.38-1.33-.02-.22-.03-.44-.03-.66,0-1.47,0-2.95,0-4.42,0-.35.27-.61.6-.6.32,0,.57.26.57.57,0,.67,0,1.34,0,2.01v.09Z"/>
  <path class="cls-54" d="m481.93,302.08c1.5.24,6.4-.11,6.4-.11,0,0,.35-4.96.11-6.48-.18-1.15-1.91-1.12-1.91-1.12l-.03,4.24-20.97-21.24c-1.06-1.08-2.56.44-1.5,1.52l20.97,21.24-4.18.03s-.03,1.74,1.1,1.93Z"/>
  <path class="cls-48" d="m463.76,261.14c-.23,1.52.11,6.48.11,6.48,0,0,4.9.35,6.4.11,1.13-.19,1.1-1.93,1.1-1.93l-4.18-.03,20.97-21.24c1.06-1.08-.43-2.59-1.5-1.52l-20.97,21.24-.03-4.24s-1.72-.03-1.91,1.12Z"/>
  <path class="cls-54" d="m496.05,289.01h-.35s0-.07,0-.1c0-1.1,0-2.19,0-3.29,0-.29-.16-.51-.42-.59-.39-.12-.76.17-.76.59,0,.94,0,1.89,0,2.83,0,.18,0,.37,0,.56h-.35s0-.06,0-.09c0-1.34,0-2.69,0-4.03,0-.35-.25-.61-.59-.61-.34,0-.59.26-.59.61,0,1.34,0,2.68,0,4.02,0,.03,0,.06,0,.1h-.35v-.09c0-1.07,0-2.13,0-3.2,0-.32-.21-.55-.52-.6-.32-.05-.65.22-.65.55,0,.41,0,.81,0,1.22,0,1.35,0,2.7,0,4.05,0,.08-.02.16-.1.2-.09.05-.18.02-.24-.08-.23-.38-.45-.77-.68-1.15-.17-.3-.47-.4-.78-.26-.32.13-.44.5-.25.82.31.53.62,1.07.93,1.6.23.39.45.79.69,1.17.08.13.19.24.3.35.45.44.96.81,1.55,1.05.53.22,1.08.32,1.65.27,1.04-.1,1.8-.61,2.29-1.52.22-.42.34-.86.38-1.33.02-.22.03-.44.03-.66,0-1.47,0-2.95,0-4.42,0-.35-.27-.61-.6-.6-.32,0-.57.26-.57.57,0,.67,0,1.34,0,2.01v.09Z"/>
  <path class="cls-48" d="m473.33,271.84h.35s0-.07,0-.1c0-1.1,0-2.19,0-3.29,0-.29.16-.51.42-.59.39-.12.76.17.76.59,0,.94,0,1.89,0,2.83,0,.18,0,.37,0,.56h.35s0-.06,0-.09c0-1.34,0-2.69,0-4.03,0-.35.25-.61.59-.61.34,0,.59.26.59.61,0,1.34,0,2.68,0,4.02,0,.03,0,.06,0,.1h.35v-.09c0-1.07,0-2.13,0-3.2,0-.32.21-.55.52-.6.32-.05.65.22.65.55,0,.41,0,.81,0,1.22,0,1.35,0,2.7,0,4.05,0,.08.02.16.1.2.09.05.18.02.24-.08.23-.38.45-.77.68-1.15.17-.3.47-.4.78-.26.32.13.44.5.25.82-.31.53-.62,1.07-.93,1.6-.23.39-.45.79-.69,1.17-.08.13-.19.24-.3.35-.45.44-.96.81-1.55,1.05-.53.22-1.08.32-1.65.27-1.04-.1-1.8-.61-2.29-1.52-.22-.42-.34-.86-.38-1.33-.02-.22-.03-.44-.03-.66,0-1.47,0-2.95,0-4.42,0-.35.27-.61.6-.6.32,0,.57.26.57.57,0,.67,0,1.34,0,2.01v.09Z"/>
  <text class="cls-11" transform="translate(203.74 475.17)"><tspan x="0" y="0">Type 2 - Shifts</tspan></text>
  <text transform="translate(31.26 708.28)"><tspan class="cls-37"><tspan class="cls-15" x="0" y="0">In these </tspan><tspan class="cls-24" x="54.27" y="0">e</tspan><tspan class="cls-19" x="61.41" y="0">x</tspan><tspan class="cls-15" x="68.46" y="0">amples, the </tspan><tspan class="cls-31" x="144.79" y="0">ri</tspan><tspan class="cls-35" x="156.43" y="0">g</tspan><tspan class="cls-31" x="164.13" y="0">ht </tspan><tspan class="cls-15" x="181.86" y="0">hand is shifting, but it’s equal</tspan><tspan class="cls-14" x="368.59" y="0">l</tspan><tspan class="cls-15" x="372.36" y="0">y </tspan><tspan class="cls-16" x="383.23" y="0">v</tspan><tspan class="cls-15" x="390.46" y="0">alid </tspan><tspan class="cls-5" x="417.65" y="0">t</tspan><tspan class="cls-15" x="422.59" y="0">o shift the </tspan><tspan class="cls-33" x="489.64" y="0">left </tspan><tspan class="cls-15" x="515.9" y="0">hand.</tspan></tspan><tspan><tspan class="cls-2" x="-12.13" y="36">P</tspan><tspan class="cls-1" x="-2.92" y="36">r</tspan><tspan class="cls-2" x="3.75" y="36">acti</tspan><tspan class="cls-23" x="29" y="36">c</tspan><tspan class="cls-2" x="35.94" y="36">e using </tspan><tspan class="cls-34" x="87.92" y="36">Shifts </tspan><tspan class="cls-28" x="129.84" y="36">t</tspan><tspan class="cls-2" x="135.11" y="36">o t</tspan><tspan class="cls-1" x="152.44" y="36">r</tspan><tspan class="cls-8" x="159.1" y="36">a</tspan><tspan class="cls-7" x="166.65" y="36">v</tspan><tspan class="cls-2" x="174.19" y="36">el bet</tspan><tspan class="cls-6" x="212.38" y="36">w</tspan><tspan class="cls-2" x="223.99" y="36">een </tspan><tspan class="cls-18" x="252.27" y="36">α/β </tspan><tspan class="cls-2" x="279.51" y="36">and </tspan><tspan class="cls-18" x="308.85" y="36">Γ</tspan><tspan class="cls-9" x="316.56" y="36"> </tspan><tspan class="cls-2" x="319.65" y="36">in either di</tspan><tspan class="cls-29" x="395.69" y="36">r</tspan><tspan class="cls-2" x="402.39" y="36">ection with both hands.</tspan></tspan></text>
  <text transform="translate(25.57 512.78)"><tspan class="cls-15"><tspan class="cls-52" x="0" y="0">T</tspan><tspan class="cls-49" x="8.19" y="0">o m</tspan><tspan class="cls-46" x="33.52" y="0">o</tspan><tspan class="cls-50" x="41.77" y="0">v</tspan><tspan class="cls-49" x="49.52" y="0">e bet</tspan><tspan class="cls-51" x="82.83" y="0">w</tspan><tspan class="cls-49" x="95.02" y="0">een </tspan><tspan class="cls-37" x="123.08" y="0">Γ </tspan><tspan class="cls-49" x="134.42" y="0">and α/β, </tspan><tspan class="cls-50" x="196.28" y="0">y</tspan><tspan class="cls-49" x="204.03" y="0">ou can shift one hand and </tspan><tspan class="cls-39" x="381.99" y="0">k</tspan><tspan class="cls-49" x="390.11" y="0">eep the other hand static. </tspan></tspan><tspan class="cls-49"><tspan class="cls-15" x="100.94" y="19.2">This combination is called a </tspan><tspan class="cls-36" x="293.65" y="19.2">Shift </tspan><tspan class="cls-15" x="331.02" y="19.2">(with a capital “S”).</tspan></tspan></text>
  <g>
    <path d="m182.02,565.3c-.02.26-.14.59-.9.55s-3.92.04-4.37.07c0,.56.26,3.6.43,7.28.05,1.13-.44,1.27-.64,1.27-.34,0-.92-.43-1.03-1.14-.09-.66-.16-2.16-.23-3.74-.06-1.37-.12-2.79-.21-3.75l-.95.31.03-1.02c.04-.21.25-.46.39-.47s6.42-.22,6.78-.2.7.53.69.83Z"/>
    <path d="m256.92,565.24c-.02.26-.14.59-.9.55s-3.92.04-4.37.07c0,.56.26,3.6.43,7.28.05,1.13-.44,1.27-.64,1.27-.34,0-.92-.43-1.03-1.14-.09-.66-.16-2.16-.23-3.74-.06-1.37-.12-2.79-.21-3.75l-.95.31.03-1.02c.04-.21.25-.46.39-.47s6.42-.22,6.78-.2.7.53.69.83Z"/>
    <path d="m382.02,565.3c-.02.26-.14.59-.9.55s-3.92.04-4.37.07c0,.56.26,3.6.43,7.28.05,1.13-.44,1.27-.64,1.27-.34,0-.92-.43-1.03-1.14-.09-.66-.16-2.16-.23-3.74-.06-1.37-.12-2.79-.21-3.75l-.95.31.03-1.02c.04-.21.25-.46.39-.47s6.42-.22,6.78-.2.7.53.69.83Z"/>
    <path d="m456.92,565.24c-.02.26-.14.59-.9.55s-3.92.04-4.37.07c0,.56.26,3.6.43,7.28.05,1.13-.44,1.27-.64,1.27-.34,0-.92-.43-1.03-1.14-.09-.66-.16-2.16-.23-3.74-.06-1.37-.12-2.79-.21-3.75l-.95.31.03-1.02c.04-.21.25-.46.39-.47s6.42-.22,6.78-.2.7.53.69.83Z"/>
    <path class="cls-54" d="m268.03,607.89h-.35s0-.07,0-.1c0-1.1,0-2.19,0-3.29,0-.29-.16-.51-.42-.59-.39-.12-.76.17-.76.59,0,.94,0,1.89,0,2.83,0,.18,0,.37,0,.56h-.35s0-.06,0-.09c0-1.34,0-2.69,0-4.03,0-.35-.25-.61-.59-.61-.34,0-.59.26-.59.61,0,1.34,0,2.68,0,4.02,0,.03,0,.06,0,.1h-.35v-.09c0-1.07,0-2.13,0-3.2,0-.32-.21-.55-.52-.6-.32-.05-.65.22-.65.55,0,.41,0,.81,0,1.22,0,1.35,0,2.7,0,4.05,0,.08-.02.16-.1.2-.09.05-.18.02-.24-.08-.23-.38-.45-.77-.68-1.15-.17-.3-.47-.4-.78-.26-.32.13-.44.5-.25.82.31.53.62,1.07.93,1.6.23.39.45.79.69,1.17.08.13.19.24.3.35.45.44.96.81,1.55,1.05.53.22,1.08.32,1.65.27,1.04-.1,1.8-.61,2.29-1.52.22-.42.34-.86.38-1.33.02-.22.03-.44.03-.66,0-1.47,0-2.95,0-4.42,0-.35-.27-.61-.6-.6-.32,0-.57.26-.57.57,0,.67,0,1.34,0,2.01v.09Z"/>
    <path class="cls-48" d="m262.48,642.23h.35s0-.07,0-.1c0-1.1,0-2.19,0-3.29,0-.29.16-.51.42-.59.39-.12.76.17.76.59,0,.94,0,1.89,0,2.83,0,.18,0,.37,0,.56h.35s0-.06,0-.09c0-1.34,0-2.69,0-4.03,0-.35.25-.61.59-.61.34,0,.59.26.59.61,0,1.34,0,2.68,0,4.02,0,.03,0,.06,0,.1h.35v-.09c0-1.07,0-2.13,0-3.2,0-.32.21-.55.52-.6.32-.05.65.22.65.55,0,.41,0,.81,0,1.22,0,1.35,0,2.7,0,4.05,0,.08.02.16.1.2.09.05.18.02.24-.08.23-.38.45-.77.68-1.15.17-.3.47-.4.78-.26.32.13.44.5.25.82-.31.53-.62,1.07-.93,1.6-.23.39-.45.79-.69,1.17-.08.13-.19.24-.3.35-.45.44-.96.81-1.55,1.05-.53.22-1.08.32-1.65.27-1.04-.1-1.8-.61-2.29-1.52-.22-.42-.34-.86-.38-1.33-.02-.22-.03-.44-.03-.66,0-1.47,0-2.95,0-4.42,0-.35.27-.61.6-.6.32,0,.57.26.57.57,0,.67,0,1.34,0,2.01v.09Z"/>
    <path class="cls-54" d="m253.91,595.96c1.5-.24,6.4.11,6.4.11,0,0,.35,4.96.11,6.48-.18,1.15-1.91,1.12-1.91,1.12l-.03-4.24-20.97,21.24c-1.06,1.08-2.56-.44-1.5-1.52l20.97-21.24-4.18-.03s-.03-1.74,1.1-1.93Z"/>
    <path class="cls-54" d="m385.2,625.06h-.35s0-.07,0-.1c0-1.1,0-2.19,0-3.29,0-.29-.16-.51-.42-.59-.39-.12-.76.17-.76.59,0,.94,0,1.89,0,2.83,0,.18,0,.37,0,.56h-.35s0-.06,0-.09c0-1.34,0-2.69,0-4.03,0-.35-.25-.61-.59-.61-.34,0-.59.26-.59.61,0,1.34,0,2.68,0,4.02,0,.03,0,.06,0,.1h-.35v-.09c0-1.07,0-2.13,0-3.2,0-.32-.21-.55-.52-.6-.32-.05-.65.22-.65.55,0,.41,0,.81,0,1.22,0,1.35,0,2.7,0,4.05,0,.08-.02.16-.1.2-.09.05-.18.02-.24-.08-.23-.38-.45-.77-.68-1.15-.17-.3-.47-.4-.78-.26-.32.13-.44.5-.25.82.31.53.62,1.07.93,1.6.23.39.45.79.69,1.17.08.13.19.24.3.35.45.44.96.81,1.55,1.05.53.22,1.08.32,1.65.27,1.04-.1,1.8-.61,2.29-1.52.22-.42.34-.86.38-1.33.02-.22.03-.44.03-.66,0-1.47,0-2.95,0-4.42,0-.35-.27-.61-.6-.6-.32,0-.57.26-.57.57,0,.67,0,1.34,0,2.01v.09Z"/>
    <path class="cls-48" d="m362.48,642.23h.35s0-.07,0-.1c0-1.1,0-2.19,0-3.29,0-.29.16-.51.42-.59.39-.12.76.17.76.59,0,.94,0,1.89,0,2.83,0,.18,0,.37,0,.56h.35s0-.06,0-.09c0-1.34,0-2.69,0-4.03,0-.35.25-.61.59-.61.34,0,.59.26.59.61,0,1.34,0,2.68,0,4.02,0,.03,0,.06,0,.1h.35v-.09c0-1.07,0-2.13,0-3.2,0-.32.21-.55.52-.6.32-.05.65.22.65.55,0,.41,0,.81,0,1.22,0,1.35,0,2.7,0,4.05,0,.08.02.16.1.2.09.05.18.02.24-.08.23-.38.45-.77.68-1.15.17-.3.47-.4.78-.26.32.13.44.5.25.82-.31.53-.62,1.07-.93,1.6-.23.39-.45.79-.69,1.17-.08.13-.19.24-.3.35-.45.44-.96.81-1.55,1.05-.53.22-1.08.32-1.65.27-1.04-.1-1.8-.61-2.29-1.52-.22-.42-.34-.86-.38-1.33-.02-.22-.03-.44-.03-.66,0-1.47,0-2.95,0-4.42,0-.35.27-.61.6-.6.32,0,.57.26.57.57,0,.67,0,1.34,0,2.01v.09Z"/>
    <path class="cls-54" d="m394.93,614.29c.24,1.5-.11,6.4-.11,6.4,0,0-4.96.35-6.48.11-1.15-.18-1.12-1.91-1.12-1.91l4.24-.03-21.24-20.97c-1.08-1.06.44-2.56,1.52-1.5l21.24,20.97.03-4.18s1.74-.03,1.93,1.1Z"/>
    <path class="cls-54" d="m476.6,655.3c-1.5.24-6.4-.11-6.4-.11,0,0-.35-4.96-.11-6.48.18-1.15,1.91-1.12,1.91-1.12l.03,4.24,20.97-21.24c1.06-1.08,2.56.44,1.5,1.52l-20.97,21.24,4.18.03s.03,1.74-1.1,1.93Z"/>
    <path class="cls-48" d="m460.77,642.29h.37s0-.07,0-.1c0-1.14,0-2.29,0-3.43,0-.3.16-.54.43-.62.4-.12.79.18.79.61,0,.99,0,1.97,0,2.96,0,.19,0,.38,0,.58h.36s0-.07,0-.1c0-1.4,0-2.81,0-4.21,0-.36.26-.64.61-.63.35,0,.61.27.61.64,0,1.4,0,2.8,0,4.2,0,.03,0,.07,0,.11h.36v-.1c0-1.11,0-2.23,0-3.34,0-.33.21-.58.54-.63.34-.05.67.23.67.57,0,.42,0,.85,0,1.27,0,1.41,0,2.82,0,4.23,0,.09.02.16.1.21.09.05.19.02.25-.09.23-.4.46-.8.7-1.2.18-.31.48-.41.81-.28.33.14.45.52.26.85-.32.56-.64,1.11-.96,1.67-.24.41-.47.82-.71,1.22-.08.13-.19.25-.31.36-.47.46-.99.84-1.6,1.09-.54.23-1.11.34-1.7.28-1.07-.1-1.86-.64-2.36-1.59-.23-.43-.35-.9-.39-1.39-.02-.23-.03-.46-.03-.69,0-1.54,0-3.08,0-4.62,0-.36.28-.64.62-.63.33,0,.59.28.59.6,0,.7,0,1.4,0,2.1v.09Z"/>
    <path class="cls-54" d="m469.74,642.29h-.37s0-.07,0-.1c0-1.14,0-2.29,0-3.43,0-.3-.16-.54-.43-.62-.4-.12-.79.18-.79.61,0,.99,0,1.97,0,2.96,0,.19,0,.38,0,.58h-.36s0-.07,0-.1c0-1.4,0-2.81,0-4.21,0-.36-.26-.64-.61-.63-.35,0-.61.27-.61.64,0,1.4,0,2.8,0,4.2,0,.03,0,.07,0,.11h-.36v-.1c0-1.11,0-2.23,0-3.34,0-.33-.21-.58-.54-.63-.34-.05-.67.23-.67.57,0,.42,0,.85,0,1.27,0,1.41,0,2.82,0,4.23,0,.09-.02.16-.1.21-.09.05-.19.02-.25-.09-.23-.4-.46-.8-.7-1.2-.18-.31-.48-.41-.81-.28-.33.14-.45.52-.26.85.32.56.64,1.11.96,1.67.24.41.47.82.71,1.22.08.13.19.25.31.36.47.46.99.84,1.6,1.09.54.23,1.11.34,1.7.28,1.07-.1,1.86-.64,2.36-1.59.23-.43.35-.9.39-1.39.02-.23.03-.46.03-.69,0-1.54,0-3.08,0-4.62,0-.36-.28-.64-.62-.63-.33,0-.59.28-.59.6,0,.7,0,1.4,0,2.1v.09Z"/>
    <path class="cls-26" d="m154.61,568.42c-.18-.22-.39-.42-.59-.59,3.31-3.76-4.43-6.09-4.53-1.52-.01,2.17-.02,3.88-.02,6.06-.77-.24-1.63.26-1.76,1.1-.08,2.12,2.05,1.76,2.82.83.29-.35.4-.63.5-1.7,2.9,1.54,5.17-1.67,3.58-4.18Zm-1.25,2.91c-.87.68-1.26.01-1.87-.16-.13-.04-.28-.03-.42.03,0-1.73,0-3.44.02-5.2-.15-.97,1.24-1.29,1.85-.63.51.55.42,1.49-.19,1.71-1.99-.53-1.8,2.34,0,1.62.85.25,1.48,1.74.61,2.63Z"/>
    <path class="cls-26" d="m480.69,568.42c-.18-.22-.39-.42-.59-.59,3.31-3.76-4.43-6.09-4.53-1.52-.01,2.17-.02,3.88-.02,6.06-.77-.24-1.63.26-1.76,1.1-.08,2.12,2.05,1.76,2.82.83.29-.35.4-.63.5-1.7,2.9,1.54,5.17-1.67,3.58-4.18Zm-1.25,2.91c-.87.68-1.26.01-1.87-.16-.13-.04-.28-.03-.42.03,0-1.73,0-3.44.02-5.2-.15-.97,1.24-1.29,1.85-.63.51.55.42,1.49-.19,1.71-1.99-.53-1.8,2.34,0,1.62.85.25,1.48,1.74.61,2.63Z"/>
    <path class="cls-26" d="m283.67,570.63c-.65,0-.94.25-1.28.66-.17.19-.39,1.18-.75.55-.75-1.29.02-4.57,1.06-6.02.28-.37-.11-.59-.3-.7,0,0-.42-.22-.64-.14-.29.1-.6-.12-1.39,1.64-1.19-1.37-2.58-1.19-3.53-1.15-.84.04-3.37.97-3.37,3.93,0,3.55,3.05,4.21,3.97,4.21s2.48-.6,2.88-.96c.24.72.67,1.16,1.21,1.27.84.18,1.21-.24,1.55-.71.49-.67,1.06-2.57.59-2.58Zm-6.23,1c-1.22,0-2.22-1.01-2.22-2.23s1-2.22,2.22-2.22,2.23,1.01,2.23,2.22-1.01,2.23-2.23,2.23Z"/>
    <path class="cls-26" d="m355.08,570.63c-.65,0-.94.25-1.28.66-.17.19-.39,1.18-.75.55-.75-1.29.02-4.57,1.06-6.02.28-.37-.11-.59-.3-.7,0,0-.42-.22-.64-.14-.29.1-.6-.12-1.39,1.64-1.19-1.37-2.58-1.19-3.53-1.15-.84.04-3.37.97-3.37,3.93,0,3.55,3.05,4.21,3.97,4.21s2.48-.6,2.88-.96c.24.72.67,1.16,1.21,1.27.84.18,1.21-.24,1.55-.71.49-.67,1.06-2.57.59-2.58Zm-6.23,1c-1.22,0-2.22-1.01-2.22-2.23s1-2.22,2.22-2.22,2.23,1.01,2.23,2.22-1.01,2.23-2.23,2.23Z"/>
    <g>
      <text class="cls-4" transform="translate(123.59 593.02)"><tspan x="0" y="0">1</tspan></text>
      <text class="cls-4" transform="translate(223.49 593.02)"><tspan x="0" y="0">2</tspan></text>
      <text class="cls-4" transform="translate(323.59 593.02)"><tspan x="0" y="0">3</tspan></text>
      <text class="cls-4" transform="translate(423.49 593.02)"><tspan x="0" y="0">4</tspan></text>
    </g>
    <g>
      <path class="cls-26" d="m165.25,627.13c1.93,0,1.93-3,0-3s-1.93,3,0,3h0Z"/>
      <circle class="cls-26" cx="201.25" cy="625.63" r="3"/>
      <circle class="cls-26" cx="165.25" cy="661.63" r="3"/>
      <circle class="cls-26" cx="129.25" cy="625.63" r="3"/>
      <circle class="cls-26" cx="165.25" cy="589.63" r="3"/>
    </g>
    <g>
      <path class="cls-26" d="m265.25,627.13c1.93,0,1.93-3,0-3s-1.93,3,0,3h0Z"/>
      <circle class="cls-26" cx="301.25" cy="625.63" r="3"/>
      <circle class="cls-26" cx="265.25" cy="661.63" r="3"/>
      <circle class="cls-26" cx="229.25" cy="625.63" r="3"/>
      <circle class="cls-26" cx="265.25" cy="589.63" r="3"/>
    </g>
    <g>
      <path class="cls-26" d="m365.25,627.13c1.93,0,1.93-3,0-3s-1.93,3,0,3h0Z"/>
      <circle class="cls-26" cx="401.25" cy="625.63" r="3"/>
      <circle class="cls-26" cx="365.25" cy="661.63" r="3"/>
      <circle class="cls-26" cx="329.25" cy="625.63" r="3"/>
      <circle class="cls-26" cx="365.25" cy="589.63" r="3"/>
    </g>
    <g>
      <path class="cls-26" d="m465.25,627.13c1.93,0,1.93-3,0-3s-1.93,3,0,3h0Z"/>
      <circle class="cls-26" cx="501.25" cy="625.63" r="3"/>
      <circle class="cls-26" cx="465.25" cy="661.63" r="3"/>
      <circle class="cls-26" cx="429.25" cy="625.63" r="3"/>
      <circle class="cls-26" cx="465.25" cy="589.63" r="3"/>
    </g>
    <path class="cls-54" d="m150.86,625.06h-.35s0-.07,0-.1c0-1.1,0-2.19,0-3.29,0-.29-.16-.51-.42-.59-.39-.12-.76.17-.76.59,0,.94,0,1.89,0,2.83,0,.18,0,.37,0,.56h-.35s0-.06,0-.09c0-1.34,0-2.69,0-4.03,0-.35-.25-.61-.59-.61-.34,0-.59.26-.59.61,0,1.34,0,2.68,0,4.02,0,.03,0,.06,0,.1h-.35v-.09c0-1.07,0-2.13,0-3.2,0-.32-.21-.55-.52-.6-.32-.05-.65.22-.65.55,0,.41,0,.81,0,1.22,0,1.35,0,2.7,0,4.05,0,.08-.02.16-.1.2-.09.05-.18.02-.24-.08-.23-.38-.45-.77-.68-1.15-.17-.3-.47-.4-.78-.26-.32.13-.44.5-.25.82.31.53.62,1.07.93,1.6.23.39.45.79.69,1.17.08.13.19.24.3.35.45.44.96.81,1.55,1.05.53.22,1.08.32,1.65.27,1.04-.1,1.8-.61,2.29-1.52.22-.42.34-.86.38-1.33.02-.22.03-.44.03-.66,0-1.47,0-2.95,0-4.42,0-.35-.27-.61-.6-.6-.32,0-.57.26-.57.57,0,.67,0,1.34,0,2.01v.09Z"/>
    <path class="cls-48" d="m162.48,642.23h.35s0-.07,0-.1c0-1.1,0-2.19,0-3.29,0-.29.16-.51.42-.59.39-.12.76.17.76.59,0,.94,0,1.89,0,2.83,0,.18,0,.37,0,.56h.35s0-.06,0-.09c0-1.34,0-2.69,0-4.03,0-.35.25-.61.59-.61.34,0,.59.26.59.61,0,1.34,0,2.68,0,4.02,0,.03,0,.06,0,.1h.35v-.09c0-1.07,0-2.13,0-3.2,0-.32.21-.55.52-.6.32-.05.65.22.65.55,0,.41,0,.81,0,1.22,0,1.35,0,2.7,0,4.05,0,.08.02.16.1.2.09.05.18.02.24-.08.23-.38.45-.77.68-1.15.17-.3.47-.4.78-.26.32.13.44.5.25.82-.31.53-.62,1.07-.93,1.6-.23.39-.45.79-.69,1.17-.08.13-.19.24-.3.35-.45.44-.96.81-1.55,1.05-.53.22-1.08.32-1.65.27-1.04-.1-1.8-.61-2.29-1.52-.22-.42-.34-.86-.38-1.33-.02-.22-.03-.44-.03-.66,0-1.47,0-2.95,0-4.42,0-.35.27-.61.6-.6.32,0,.57.26.57.57,0,.67,0,1.34,0,2.01v.09Z"/>
    <path class="cls-54" d="m135.58,636.97c-.24-1.5.11-6.4.11-6.4,0,0,4.96-.35,6.48-.11,1.15.18,1.12,1.91,1.12,1.91l-4.24.03,21.24,20.97c1.08,1.06-.44,2.56-1.52,1.5l-21.24-20.97-.03,4.18s-1.74.03-1.93-1.1Z"/>
  </g>
  <path class="cls-26" d="m158.72,568.71h10.69l-1.95-2.21.87-.83,3.45,3.32v.97l-3.45,3.32-.87-.83,1.95-2.21h-10.69v-1.52Z"/>
  <path class="cls-26" d="m258.72,568.71h10.69l-1.95-2.21.87-.83,3.45,3.32v.97l-3.45,3.32-.87-.83,1.95-2.21h-10.69v-1.52Z"/>
  <path class="cls-26" d="m358.72,568.71h10.69l-1.95-2.21.87-.83,3.45,3.32v.97l-3.45,3.32-.87-.83,1.95-2.21h-10.69v-1.52Z"/>
  <path class="cls-26" d="m458.72,568.71h10.69l-1.95-2.21.87-.83,3.45,3.32v.97l-3.45,3.32-.87-.83,1.95-2.21h-10.69v-1.52Z"/>
</svg>