<?xml version="1.0" encoding="UTF-8"?>
<svg id="Layer_1" data-name="Layer 1" xmlns="http://www.w3.org/2000/svg" viewBox="0 0 612 792">
  <defs>
    <style>
      .cls-1 {
        letter-spacing: -.03em;
      }

      .cls-1, .cls-2, .cls-3, .cls-4, .cls-5, .cls-6, .cls-7, .cls-8, .cls-9, .cls-10, .cls-11, .cls-12, .cls-13 {
        fill: #231f20;
      }

      .cls-1, .cls-14, .cls-15, .cls-16 {
        font-family: Cambria-Bold, Cambria;
        font-weight: 700;
      }

      .cls-17 {
        letter-spacing: .02em;
      }

      .cls-2, .cls-3, .cls-4, .cls-6, .cls-7, .cls-8, .cls-9, .cls-11, .cls-13 {
        font-family: Cambria, Cambria;
      }

      .cls-2, .cls-15, .cls-18 {
        letter-spacing: -.01em;
      }

      .cls-19 {
        fill: #21409a;
      }

      .cls-20 {
        letter-spacing: -.02em;
      }

      .cls-14, .cls-15, .cls-21 {
        fill: #00a14b;
      }

      .cls-3, .cls-22 {
        letter-spacing: 0em;
      }

      .cls-4 {
        letter-spacing: -.08em;
      }

      .cls-5 {
        font-family: MonotypeCorsiva, 'Monotype Corsiva';
        font-size: 40px;
      }

      .cls-23 {
        letter-spacing: -.01em;
      }

      .cls-7, .cls-24 {
        letter-spacing: 0em;
      }

      .cls-25 {
        fill: none;
        stroke: #000;
        stroke-miterlimit: 10;
        stroke-width: 2px;
      }

      .cls-8, .cls-26 {
        font-size: 15px;
      }

      .cls-9 {
        letter-spacing: -.02em;
      }

      .cls-10 {
        font-family: Cambria-Italic, Cambria;
        font-size: 16px;
        font-style: italic;
      }

      .cls-27 {
        letter-spacing: 0em;
      }

      .cls-28 {
        letter-spacing: -.02em;
      }

      .cls-29, .cls-16 {
        fill: #7f3f98;
      }

      .cls-30 {
        fill: #ed1c24;
      }

      .cls-31, .cls-13 {
        letter-spacing: 0em;
      }

      .cls-32 {
        letter-spacing: .01em;
      }

      .cls-33 {
        letter-spacing: -.02em;
      }

      .cls-11 {
        letter-spacing: -.01em;
      }
    </style>
  </defs>
  <text class="cls-5" transform="translate(190.85 554.36)"><tspan x="0" y="0">Type 4 - Dash</tspan></text>
  <text class="cls-26" transform="translate(68.06 587.44)"><tspan class="cls-6" x="0" y="0">With a </tspan><tspan class="cls-14" x="45.27" y="0">Dash</tspan><tspan class="cls-6" x="79.7" y="0">, one hand </tspan><tspan class="cls-11" x="148.63" y="0">e</tspan><tspan class="cls-9" x="155.77" y="0">x</tspan><tspan class="cls-6" x="162.69" y="0">ecu</tspan><tspan class="cls-3" x="184.91" y="0">t</tspan><tspan class="cls-6" x="189.85" y="0">es a dash </tspan><tspan class="cls-13" x="251.21" y="0">w</tspan><tspan class="cls-6" x="262.68" y="0">hile the other hand </tspan><tspan class="cls-2" x="387.52" y="0">r</tspan><tspan class="cls-6" x="393.51" y="0">emains static. </tspan></text>
  <text class="cls-8" transform="translate(82.3 758.62)"><tspan x="0" y="0">Just li</tspan><tspan class="cls-20" x="35.95" y="0">k</tspan><tspan x="43.56" y="0">e be</tspan><tspan class="cls-23" x="69.7" y="0">f</tspan><tspan x="74.06" y="0">o</tspan><tspan class="cls-18" x="82.02" y="0">r</tspan><tspan x="88.01" y="0">e, the half</tspan><tspan class="cls-33" x="149.89" y="0">w</tspan><tspan class="cls-28" x="161.23" y="0">a</tspan><tspan x="168.26" y="0">y position of each dash is at the cen</tspan><tspan class="cls-22" x="393.12" y="0">t</tspan><tspan x="398.06" y="0">er poin</tspan><tspan class="cls-32" x="443.73" y="0">t</tspan><tspan x="449.03" y="0">.</tspan><tspan x="224.4" y="18"> </tspan></text>
  <line class="cls-25" x1=".78" y1="503.19" x2="612.78" y2="503.19"/>
  <text class="cls-5" transform="translate(151.84 56.48)"><tspan x="0" y="0">Type 3 - Cross-Shifts</tspan></text>
  <g>
    <path class="cls-12" d="m170.25,92.72v-.36c.24-.05.43-.1.55-.16s.21-.14.27-.25.09-.25.09-.42c0-.17-.02-.35-.06-.54s-.1-.41-.17-.65l-.27-.94h-3.41l-.25.72c-.13.36-.21.63-.25.82s-.06.35-.06.51c0,.29.07.51.22.64s.38.23.69.27v.36h-3.13v-.36c.27-.04.51-.2.71-.48s.4-.66.59-1.17l3.05-8.11h1.16l2.49,8.17c.12.38.22.67.31.87s.2.36.33.47.3.2.52.25v.36h-3.38Zm-2.81-3.96h3.06l-1.39-4.72-1.67,4.72Z"/>
    <path class="cls-21" d="m185.04,82.95v2.12h-1c-.12-.55-.3-.96-.56-1.22s-.59-.39-1-.39c-.77,0-1.35.37-1.75,1.11s-.59,1.84-.59,3.29c0,1.35.18,2.38.54,3.07s.89,1.04,1.59,1.04c.36,0,.65-.06.87-.18s.4-.3.54-.54.25-.58.35-1.01h1v2.22c-.54.13-1.03.22-1.47.28s-.91.09-1.38.09c-1.02,0-1.84-.18-2.49-.55s-1.12-.92-1.42-1.66-.46-1.68-.46-2.81c0-1.06.18-1.98.54-2.76s.89-1.39,1.59-1.81,1.53-.64,2.5-.64c.49,0,.94.03,1.34.08s.82.14,1.25.26Z"/>
    <path class="cls-21" d="m189.03,86.51l.1.02c.36-.42.72-.72,1.1-.91s.78-.28,1.22-.28c.3,0,.61.03.94.1v2.02h-1.33c-.08-.28-.19-.5-.33-.65s-.31-.23-.54-.23c-.11,0-.23.03-.36.1s-.25.16-.36.28-.19.24-.23.37-.08.25-.09.38-.02.32-.02.57v2.34c0,.46.02.79.05.97s.1.33.21.44.28.18.52.22v.48h-3.61v-.48c.23-.06.4-.15.49-.25s.15-.24.18-.42.05-.5.05-.96v-3.01c0-.36,0-.63-.02-.8s-.04-.31-.09-.42-.12-.19-.21-.26-.26-.12-.49-.17v-.5l2.01-.06h.92l-.1,1.11Z"/>
    <path class="cls-21" d="m196.55,92.84c-.72,0-1.34-.13-1.86-.38s-.93-.65-1.22-1.21-.44-1.26-.44-2.11c0-.65.09-1.22.27-1.7s.43-.87.75-1.19.71-.54,1.15-.69.93-.22,1.45-.22c1.18,0,2.07.31,2.67.93s.9,1.53.9,2.74c0,.85-.15,1.56-.45,2.14s-.72,1-1.27,1.28-1.21.42-1.97.42Zm-1.29-3.86c0,1.04.12,1.81.35,2.33s.58.77,1.05.77c.26,0,.47-.07.65-.2s.31-.32.42-.57.18-.55.22-.9.07-.74.07-1.18c0-1.05-.12-1.83-.35-2.35s-.57-.78-1.03-.78c-.33,0-.6.1-.8.31s-.35.52-.44.94-.14.96-.14,1.62Z"/>
    <path class="cls-21" d="m202.48,90.75c.12.44.3.78.56,1s.59.33,1.02.33c.37,0,.64-.08.83-.25s.28-.41.28-.73c0-.2-.04-.37-.13-.51s-.23-.28-.42-.41-.54-.3-1.01-.51c-.27-.12-.52-.25-.76-.39s-.44-.3-.62-.48-.31-.38-.42-.6-.15-.46-.15-.73c0-.44.13-.82.38-1.14s.62-.57,1.09-.74,1.01-.26,1.62-.26c.36,0,.71.01,1.05.04s.78.09,1.33.19v1.71h-.97c-.11-.31-.24-.55-.37-.73s-.28-.29-.44-.36-.35-.1-.58-.1c-.32,0-.58.07-.77.22s-.29.35-.29.62c0,.19.03.34.1.48s.19.26.37.38.52.29,1.02.5c.46.19.83.39,1.12.6s.51.45.66.72.23.59.23.95c0,.4-.07.74-.22,1.02s-.35.52-.62.71-.58.32-.95.41-.77.14-1.22.14c-.81,0-1.7-.11-2.69-.34v-1.75h.98Z"/>
    <path class="cls-21" d="m209.37,90.75c.12.44.3.78.56,1s.59.33,1.02.33c.37,0,.64-.08.83-.25s.28-.41.28-.73c0-.2-.04-.37-.13-.51s-.23-.28-.42-.41-.54-.3-1.01-.51c-.27-.12-.52-.25-.76-.39s-.44-.3-.62-.48-.31-.38-.42-.6-.15-.46-.15-.73c0-.44.13-.82.38-1.14s.62-.57,1.09-.74,1.01-.26,1.62-.26c.36,0,.71.01,1.05.04s.78.09,1.33.19v1.71h-.97c-.11-.31-.24-.55-.37-.73s-.28-.29-.44-.36-.35-.1-.58-.1c-.32,0-.58.07-.77.22s-.29.35-.29.62c0,.19.03.34.1.48s.19.26.37.38.52.29,1.02.5c.46.19.83.39,1.12.6s.51.45.66.72.23.59.23.95c0,.4-.07.74-.22,1.02s-.35.52-.62.71-.58.32-.95.41-.77.14-1.22.14c-.81,0-1.7-.11-2.69-.34v-1.75h.98Z"/>
    <path class="cls-12" d="m218.94,89.49h-3.47v-1.54h3.47v1.54Z"/>
    <path class="cls-29" d="m220.91,90.26c.12.58.33,1.01.61,1.3s.7.43,1.26.43c.29,0,.55-.05.78-.15s.41-.26.55-.47.21-.49.21-.82c0-.3-.06-.57-.17-.79s-.29-.43-.54-.63-.6-.41-1.04-.64c-.38-.19-.73-.39-1.03-.59s-.57-.43-.79-.68-.39-.52-.51-.81-.18-.62-.18-.99c0-.6.15-1.11.45-1.53s.73-.74,1.29-.96,1.22-.33,1.96-.33c.43,0,.85.02,1.25.07s.85.13,1.35.25v2.12h-1c-.09-.39-.21-.69-.36-.92s-.32-.39-.54-.5-.49-.16-.81-.16c-.28,0-.53.05-.75.15s-.39.24-.52.44-.19.43-.19.7.05.53.16.74.29.41.55.61.63.42,1.13.68c.6.31,1.07.62,1.42.92s.6.63.76.98.25.77.25,1.23c0,.6-.14,1.12-.42,1.56s-.68.78-1.22,1.02-1.15.36-1.85.36c-.5,0-1.02-.03-1.56-.08s-1.05-.14-1.52-.25v-2.26h1Z"/>
    <path class="cls-29" d="m230.39,86.43c.44-.4.84-.68,1.19-.84s.71-.25,1.07-.25c.54,0,.95.1,1.25.3s.51.48.64.85.2.85.2,1.44v2.67c0,.21,0,.42.01.6s.03.34.06.45.07.2.12.27.12.13.22.18.21.09.34.12v.48h-3.55v-.48c.23-.05.39-.13.47-.23s.14-.24.18-.42.05-.5.05-.97v-1.91c0-.49-.02-.87-.05-1.14s-.09-.48-.16-.63-.17-.26-.29-.33-.28-.11-.47-.11-.38.06-.58.17-.37.27-.51.47-.2.41-.2.63v2.84c0,.27,0,.48.01.63s.02.26.03.34.04.15.06.22.06.12.11.18.11.1.19.15.19.08.33.12v.48h-3.59v-.48c.15-.03.26-.07.34-.12s.15-.1.19-.16.09-.14.12-.23.06-.23.07-.4.01-.41.01-.72v-5.71c0-.42,0-.73-.01-.93s-.02-.36-.05-.5-.06-.24-.11-.32-.12-.15-.21-.19-.24-.09-.45-.13v-.48l2.03-.1h.92v4.18h.03Z"/>
    <path class="cls-29" d="m236.56,92.24c.24-.06.4-.15.49-.25s.15-.24.18-.42.05-.5.05-.96v-3.41c0-.24-.01-.43-.03-.58s-.06-.26-.12-.35-.14-.16-.25-.2-.24-.09-.41-.12v-.5l2.01-.06h.92v5.21c0,.27,0,.48.01.63s.02.26.03.34.04.15.06.22.06.12.11.18.11.1.19.15.19.08.33.12v.48h-3.57v-.48Zm2.78-9.7v1.79h-2.01v-1.79h2.01Z"/>
    <path class="cls-29" d="m241.27,92.24c.23-.07.39-.14.48-.23s.16-.2.19-.35.06-.41.06-.78v-4.51h-.89v-.51c.23-.03.39-.07.48-.11s.17-.1.22-.17.1-.16.14-.27.06-.26.07-.43c.08-.88.4-1.54.98-2s1.39-.68,2.44-.68c.42,0,.79.03,1.12.1v1.49h-1c-.08-.27-.17-.47-.27-.59s-.23-.19-.39-.19c-.21,0-.37.07-.48.21s-.19.34-.23.59-.06.62-.06,1.08v.56h1.41v.92h-1.41v4.51c0,.37.02.62.06.78s.11.27.21.36.28.16.53.22v.48h-3.65v-.48Z"/>
    <path class="cls-29" d="m251.19,91.85c-.43.37-.82.62-1.17.77s-.72.22-1.11.22c-.73,0-1.27-.2-1.63-.59s-.54-.99-.54-1.78v-4.09h-.92v-.51c.3-.05.52-.12.66-.22s.25-.23.33-.39.14-.38.19-.64.08-.59.11-.99h1.75v1.83h2.09v.92h-2.09v3.3c0,.55.03.96.08,1.22s.14.46.26.58.27.19.45.19c.14,0,.26-.01.37-.04s.22-.07.34-.13.25-.15.38-.27l.46.62Z"/>
    <path class="cls-12" d="m260.5,85.89v1.53h-.93c-.08-.32-.19-.57-.31-.75s-.26-.31-.42-.38-.36-.11-.6-.11c-.34,0-.64.11-.91.33s-.47.55-.63,1-.23,1-.23,1.65c0,.42.03.79.09,1.14s.16.64.3.88.33.43.56.57.52.21.87.21.65-.07.94-.2.59-.36.9-.7l.42.48c-.25.27-.47.48-.66.63s-.39.27-.61.37-.43.17-.64.22-.44.07-.69.07c-.92,0-1.63-.31-2.12-.92s-.73-1.5-.73-2.66c0-.72.14-1.36.41-1.92s.66-.99,1.15-1.29,1.06-.45,1.71-.45c.4,0,.77.02,1.11.07s.68.12,1.02.22Z"/>
    <path class="cls-12" d="m264.84,92.84c-1.02,0-1.79-.3-2.33-.9s-.8-1.48-.8-2.66c0-.81.14-1.49.42-2.04s.67-.97,1.15-1.24,1.04-.41,1.67-.41c1.04,0,1.84.3,2.37.91s.81,1.48.81,2.62c0,.81-.13,1.49-.4,2.05s-.65.97-1.14,1.25-1.08.41-1.75.41Zm-1.74-3.71c0,1.01.16,1.78.48,2.32s.78.81,1.37.81c.33,0,.61-.08.83-.24s.42-.37.56-.64.25-.58.31-.93.1-.72.1-1.11c0-.72-.08-1.31-.24-1.79s-.37-.82-.65-1.04-.59-.33-.94-.33c-.59,0-1.04.26-1.36.77s-.47,1.24-.47,2.19Z"/>
    <path class="cls-12" d="m271.59,86.85l.1.03c.29-.29.53-.51.72-.66s.37-.27.55-.36.34-.16.49-.19.31-.06.47-.06c.49,0,.89.11,1.19.34s.52.57.64,1.03c.37-.37.66-.64.89-.82s.46-.31.7-.41.49-.14.77-.14c.33,0,.61.05.85.14s.44.24.6.44.28.45.36.74.11.7.11,1.2v2.76c0,.37.01.63.04.77s.06.25.11.33.12.15.21.2.25.11.47.17v.36h-2.88v-.36c.19-.06.33-.11.41-.15s.15-.1.21-.18.1-.2.13-.36.05-.41.05-.74v-1.92c0-.42-.01-.76-.03-1.03s-.06-.49-.1-.65-.1-.29-.17-.38-.14-.17-.22-.24-.18-.12-.29-.16-.26-.06-.45-.06c-.2,0-.38.04-.55.12s-.35.21-.55.4-.34.37-.43.56-.13.41-.13.66v2.67c0,.37.01.63.04.77s.06.25.11.33.12.15.21.2.25.11.47.17v.36h-2.88v-.36c.19-.06.33-.11.41-.15s.15-.1.21-.18.1-.2.13-.36.05-.41.05-.74v-1.92c0-.43-.01-.79-.04-1.06s-.06-.49-.11-.66-.12-.3-.2-.4-.16-.18-.25-.23-.18-.09-.29-.12-.24-.04-.38-.04c-.2,0-.39.05-.56.14s-.36.22-.54.39-.32.35-.41.53-.14.39-.14.6v2.75c0,.28,0,.49.02.64s.04.26.07.34.07.15.12.2.12.1.21.15.23.09.41.14v.36h-2.87v-.36c.19-.06.32-.11.4-.15s.15-.1.21-.18.1-.2.13-.36.04-.41.04-.75v-3.19c0-.31,0-.56-.01-.75s-.04-.34-.1-.46-.15-.2-.27-.26-.29-.1-.51-.14v-.39l1.71-.07h.45l-.08,1.19Z"/>
    <path class="cls-12" d="m283.94,86.87h.03c.34-.35.63-.61.85-.77s.46-.28.7-.37.51-.13.79-.13c.52,0,.97.13,1.34.4s.66.67.86,1.2.3,1.18.3,1.96-.12,1.47-.36,2.02-.6.96-1.07,1.25-1.03.42-1.67.42c-.36,0-.7-.03-1.02-.1s-.66-.18-1.01-.35l-.51.45-.51-.12v-7.96c0-.47,0-.8-.01-.98s-.03-.34-.06-.47-.08-.23-.13-.3-.13-.13-.23-.18-.27-.09-.52-.13v-.38l1.77-.07h.43v4.63Zm0,3.22c0,.38.02.68.05.9s.09.41.17.55.2.28.35.4.33.21.52.25.4.07.64.07c.59,0,1.03-.24,1.33-.72s.45-1.2.45-2.15-.14-1.69-.41-2.18-.69-.73-1.25-.73c-.28,0-.52.04-.71.13s-.39.22-.58.4-.33.36-.42.53-.14.38-.14.6v1.94Z"/>
    <path class="cls-12" d="m290.31,92.37c.19-.06.33-.11.41-.15s.15-.1.21-.18.1-.2.13-.36.05-.41.05-.75v-3.19c0-.31,0-.56-.01-.75s-.04-.34-.1-.46-.15-.2-.27-.26-.29-.1-.51-.14v-.39l1.71-.07h.45v5.24c0,.42.02.71.06.88s.11.29.22.37.29.16.54.22v.36h-2.87v-.36Zm2.09-9.51v1.42h-1.35v-1.42h1.35Z"/>
    <path class="cls-12" d="m301.61,92.72h-2.89v-.36c.19-.06.33-.11.41-.15s.15-.1.21-.18.1-.2.13-.36.05-.41.05-.74v-1.92c0-.34,0-.65-.03-.93s-.05-.51-.1-.68-.1-.32-.17-.42-.14-.19-.23-.26-.19-.13-.31-.17-.27-.06-.46-.06-.37.04-.54.11-.36.21-.56.39-.35.37-.45.55-.14.39-.14.62v2.73c0,.42.02.71.06.88s.11.29.22.37.29.16.54.22v.36h-2.87v-.36c.19-.06.33-.11.41-.15s.15-.1.21-.18.1-.2.13-.36.05-.41.05-.75v-3.19c0-.31,0-.56-.01-.75s-.04-.34-.1-.46-.15-.2-.27-.26-.29-.1-.51-.14v-.39l1.71-.07h.45l-.08,1.19.1.03c.36-.37.65-.63.88-.78s.45-.28.67-.36.47-.13.72-.13.5.03.71.09.39.16.55.28.29.28.39.47.18.41.23.68.08.6.08,1v2.76c0,.34,0,.58.03.73s.05.27.1.35.12.15.21.21.25.12.48.18v.36Z"/>
    <path class="cls-12" d="m308.7,91.48c-.31.33-.6.58-.86.77s-.55.33-.86.44-.66.16-1.03.16c-1.01,0-1.77-.3-2.28-.9s-.77-1.49-.77-2.67c0-.73.13-1.37.39-1.93s.63-.99,1.12-1.29,1.04-.45,1.67-.45c.49,0,.91.08,1.26.23s.62.37.83.64.37.61.48,1.03.18.95.19,1.61h-4.61v.13c0,.58.06,1.06.19,1.45s.34.7.64.92.68.33,1.15.33c.4,0,.76-.07,1.08-.22s.64-.39.96-.73l.45.48Zm-1.23-2.97c-.03-.53-.1-.96-.2-1.29s-.26-.59-.46-.77-.47-.27-.81-.27c-.5,0-.9.2-1.21.6s-.48.98-.53,1.72h3.2Z"/>
    <path class="cls-12" d="m315.07,87.33h-.7c-.11-.29-.23-.52-.38-.69s-.31-.29-.5-.36-.41-.1-.68-.1c-.39,0-.7.09-.93.27s-.35.43-.35.75c0,.22.05.41.14.56s.24.28.43.41.54.3,1.03.51c.5.21.88.41,1.15.59s.48.39.64.63.23.52.23.86c0,.39-.07.71-.2.97s-.32.48-.56.64-.52.29-.85.36-.69.11-1.08.11c-.41,0-.81-.03-1.19-.09s-.76-.14-1.13-.24v-1.53h.72c.13.45.33.78.59.98s.62.3,1.07.3c.18,0,.35-.02.52-.05s.32-.1.45-.18.24-.2.31-.35.12-.33.12-.55c0-.25-.05-.45-.15-.61s-.25-.3-.45-.43-.57-.3-1.08-.52c-.44-.19-.8-.37-1.07-.54s-.48-.38-.63-.62-.23-.52-.23-.85c0-.4.11-.75.33-1.04s.53-.52.94-.68.89-.23,1.44-.23c.32,0,.63.02.93.05s.68.09,1.13.19v1.49Z"/>
    <path class="cls-12" d="m324.14,91.68l-.11-.03c-.42.43-.82.74-1.2.92s-.77.27-1.19.27c-.37,0-.7-.07-.98-.22s-.5-.35-.65-.61-.23-.56-.23-.9c0-.71.35-1.26,1.06-1.65s1.76-.61,3.18-.68v-.48c0-.51-.05-.91-.15-1.2s-.25-.51-.46-.64-.49-.21-.84-.21c-.38,0-.69.1-.92.3s-.41.5-.52.9h-.96v-.95c.47-.24.86-.42,1.17-.54s.62-.21.94-.27.63-.1.95-.1c.48,0,.87.08,1.16.23s.51.39.66.71.22.8.22,1.44v2.55c0,.36,0,.62,0,.77s.02.29.04.41.06.23.11.3.12.14.22.19.25.11.47.17v.36h-2.01l.04-1.05Zm-.12-2.29c-.99,0-1.73.14-2.23.4s-.74.64-.74,1.15c0,.28.06.5.17.66s.25.27.42.33.37.09.61.09c.33,0,.63-.08.9-.24s.48-.37.63-.62.23-.5.23-.74v-1.03Z"/>
    <path class="cls-12" d="m335.45,87.33h-.7c-.11-.29-.23-.52-.38-.69s-.31-.29-.5-.36-.41-.1-.68-.1c-.39,0-.7.09-.93.27s-.35.43-.35.75c0,.22.05.41.14.56s.24.28.43.41.54.3,1.03.51c.5.21.88.41,1.15.59s.48.39.64.63.23.52.23.86c0,.39-.07.71-.2.97s-.32.48-.56.64-.52.29-.85.36-.69.11-1.08.11c-.41,0-.81-.03-1.19-.09s-.76-.14-1.13-.24v-1.53h.72c.13.45.33.78.59.98s.62.3,1.07.3c.18,0,.35-.02.52-.05s.32-.1.45-.18.24-.2.31-.35.12-.33.12-.55c0-.25-.05-.45-.15-.61s-.25-.3-.45-.43-.57-.3-1.08-.52c-.44-.19-.8-.37-1.07-.54s-.48-.38-.63-.62-.23-.52-.23-.85c0-.4.11-.75.33-1.04s.53-.52.94-.68.89-.23,1.44-.23c.32,0,.63.02.93.05s.68.09,1.13.19v1.49Z"/>
    <path class="cls-12" d="m338.95,86.87h.03c.38-.38.68-.65.9-.8s.44-.27.66-.35.45-.12.7-.12c.27,0,.51.03.72.1s.39.16.55.29.29.29.39.48.17.41.22.67.07.59.07.99v2.76c0,.42.02.71.05.87s.1.27.2.36.29.17.58.25v.36h-2.89v-.36c.19-.06.33-.11.41-.15s.15-.1.21-.18.1-.2.13-.36.05-.41.05-.74v-1.92c0-.65-.03-1.15-.1-1.49s-.2-.6-.39-.77-.46-.26-.81-.26c-.2,0-.37.03-.53.1s-.34.19-.54.37-.36.36-.47.54-.16.38-.16.59v2.81c0,.33,0,.57.03.71s.05.26.1.36.12.17.22.23.26.12.47.17v.36h-2.9v-.36c.21-.06.37-.11.46-.17s.16-.12.22-.21.09-.2.11-.36.04-.4.04-.74v-6.13c0-.47,0-.8-.01-.98s-.03-.34-.06-.47-.08-.23-.13-.3-.13-.13-.23-.18-.27-.09-.52-.13v-.38l1.77-.07h.44v4.63Z"/>
    <path class="cls-12" d="m345.26,92.37c.19-.06.33-.11.41-.15s.15-.1.21-.18.1-.2.13-.36.05-.41.05-.75v-3.19c0-.31,0-.56-.01-.75s-.04-.34-.1-.46-.15-.2-.27-.26-.29-.1-.51-.14v-.39l1.71-.07h.45v5.24c0,.42.02.71.06.88s.11.29.22.37.29.16.54.22v.36h-2.87v-.36Zm2.09-9.51v1.42h-1.35v-1.42h1.35Z"/>
    <path class="cls-12" d="m353.19,86.46h-1.75v4.43c0,.33.02.57.05.74s.08.29.14.38.14.15.24.21.26.1.48.15v.36h-3v-.36c.21-.06.37-.11.46-.17s.16-.12.22-.21.09-.2.11-.36.04-.4.04-.74v-4.43h-.89v-.37c.19-.03.31-.05.37-.07s.12-.04.18-.08.1-.08.15-.15.08-.16.11-.28.06-.3.08-.52c.04-.53.14-.96.29-1.3s.37-.62.65-.85.59-.4.92-.49.71-.14,1.15-.14c.39,0,.71.03.98.08v1.33h-.73c-.09-.29-.2-.49-.33-.61s-.3-.18-.52-.18c-.16,0-.3.02-.41.07s-.21.11-.3.21-.17.22-.24.37-.11.35-.15.58-.05.53-.05.9v.77h1.75v.74Z"/>
    <path class="cls-12" d="m353.53,86.09c.24-.04.44-.11.59-.21s.27-.22.35-.38.15-.35.2-.58.1-.57.15-1.01h1.04v1.81h2.37v.74h-2.37v3.26c0,.47.02.85.06,1.13s.11.5.22.66.23.27.37.34.31.1.53.1c.2,0,.38-.04.55-.12s.34-.2.51-.35l.33.4c-.35.34-.68.58-.99.73s-.63.23-.96.23c-.63,0-1.1-.19-1.41-.56s-.46-.96-.46-1.75v-4.06h-1.08v-.37Z"/>
    <path class="cls-12" d="m366.58,91.68l-.11-.03c-.42.43-.82.74-1.2.92s-.77.27-1.19.27c-.37,0-.7-.07-.98-.22s-.5-.35-.65-.61-.23-.56-.23-.9c0-.71.35-1.26,1.06-1.65s1.76-.61,3.18-.68v-.48c0-.51-.05-.91-.15-1.2s-.25-.51-.46-.64-.49-.21-.84-.21c-.38,0-.69.1-.92.3s-.41.5-.52.9h-.96v-.95c.47-.24.86-.42,1.17-.54s.62-.21.94-.27.63-.1.95-.1c.48,0,.87.08,1.16.23s.51.39.66.71.22.8.22,1.44v2.55c0,.36,0,.62,0,.77s.02.29.04.41.06.23.11.3.12.14.22.19.25.11.47.17v.36h-2.01l.04-1.05Zm-.12-2.29c-.99,0-1.73.14-2.23.4s-.74.64-.74,1.15c0,.28.06.5.17.66s.25.27.42.33.37.09.61.09c.33,0,.63-.08.9-.24s.48-.37.63-.62.23-.5.23-.74v-1.03Z"/>
    <path class="cls-12" d="m376.81,92.72h-2.89v-.36c.19-.06.33-.11.41-.15s.15-.1.21-.18.1-.2.13-.36.05-.41.05-.74v-1.92c0-.34,0-.65-.03-.93s-.05-.51-.1-.68-.1-.32-.17-.42-.14-.19-.23-.26-.19-.13-.31-.17-.27-.06-.46-.06-.37.04-.54.11-.36.21-.56.39-.35.37-.45.55-.14.39-.14.62v2.73c0,.42.02.71.06.88s.11.29.22.37.29.16.54.22v.36h-2.87v-.36c.19-.06.33-.11.41-.15s.15-.1.21-.18.1-.2.13-.36.05-.41.05-.75v-3.19c0-.31,0-.56-.01-.75s-.04-.34-.1-.46-.15-.2-.27-.26-.29-.1-.51-.14v-.39l1.71-.07h.45l-.08,1.19.1.03c.36-.37.65-.63.88-.78s.45-.28.67-.36.47-.13.72-.13.5.03.71.09.39.16.55.28.29.28.39.47.18.41.23.68.08.6.08,1v2.76c0,.34,0,.58.03.73s.05.27.1.35.12.15.21.21.25.12.48.18v.36Z"/>
    <path class="cls-12" d="m382.99,84.76c0-.47,0-.8-.01-.98s-.03-.34-.06-.47-.08-.23-.13-.3-.13-.13-.23-.18-.27-.09-.52-.13v-.38l1.77-.07h.43v8.48c0,.38,0,.65.02.82s.05.29.1.39.13.18.23.24.29.12.55.17v.38l-1.73.07h-.44l.09-1.2-.11-.03c-.31.33-.58.57-.8.74s-.47.29-.73.39-.53.15-.82.15c-.8,0-1.42-.3-1.85-.91s-.65-1.49-.65-2.63c0-.8.14-1.48.42-2.04s.67-.98,1.15-1.25,1.02-.41,1.62-.41c.32,0,.62.03.88.08s.53.14.81.25v-1.16Zm0,3.62c0-.38-.02-.69-.05-.92s-.09-.42-.17-.58-.19-.29-.33-.4-.29-.19-.45-.23-.36-.07-.59-.07c-.62,0-1.1.25-1.43.75s-.49,1.22-.49,2.16.13,1.65.4,2.14.68.73,1.22.73c.21,0,.39-.02.53-.05s.28-.1.42-.18.28-.19.42-.33.25-.27.31-.39.12-.25.15-.4.05-.35.05-.59v-1.64Z"/>
    <path class="cls-12" d="m393.9,91.68l-.11-.03c-.42.43-.82.74-1.2.92s-.77.27-1.19.27c-.37,0-.7-.07-.98-.22s-.5-.35-.65-.61-.23-.56-.23-.9c0-.71.35-1.26,1.06-1.65s1.76-.61,3.18-.68v-.48c0-.51-.05-.91-.15-1.2s-.25-.51-.46-.64-.49-.21-.84-.21c-.38,0-.69.1-.92.3s-.41.5-.52.9h-.96v-.95c.47-.24.86-.42,1.17-.54s.62-.21.94-.27.63-.1.95-.1c.48,0,.87.08,1.16.23s.51.39.66.71.22.8.22,1.44v2.55c0,.36,0,.62,0,.77s.02.29.04.41.06.23.11.3.12.14.22.19.25.11.47.17v.36h-2.01l.04-1.05Zm-.12-2.29c-.99,0-1.73.14-2.23.4s-.74.64-.74,1.15c0,.28.06.5.17.66s.25.27.42.33.37.09.61.09c.33,0,.63-.08.9-.24s.48-.37.63-.62.23-.5.23-.74v-1.03Z"/>
    <path class="cls-12" d="m405.24,84.76c0-.47,0-.8-.01-.98s-.03-.34-.06-.47-.08-.23-.13-.3-.13-.13-.23-.18-.27-.09-.52-.13v-.38l1.77-.07h.43v8.48c0,.38,0,.65.02.82s.05.29.1.39.13.18.23.24.29.12.55.17v.38l-1.73.07h-.44l.09-1.2-.11-.03c-.31.33-.58.57-.8.74s-.47.29-.73.39-.53.15-.82.15c-.8,0-1.42-.3-1.85-.91s-.65-1.49-.65-2.63c0-.8.14-1.48.42-2.04s.67-.98,1.15-1.25,1.02-.41,1.62-.41c.32,0,.62.03.88.08s.53.14.81.25v-1.16Zm0,3.62c0-.38-.02-.69-.05-.92s-.09-.42-.17-.58-.19-.29-.33-.4-.29-.19-.45-.23-.36-.07-.59-.07c-.62,0-1.1.25-1.43.75s-.49,1.22-.49,2.16.13,1.65.4,2.14.68.73,1.22.73c.21,0,.39-.02.53-.05s.28-.1.42-.18.28-.19.42-.33.25-.27.31-.39.12-.25.15-.4.05-.35.05-.59v-1.64Z"/>
    <path class="cls-12" d="m412.85,91.68l-.11-.03c-.42.43-.82.74-1.2.92s-.77.27-1.19.27c-.37,0-.7-.07-.98-.22s-.5-.35-.65-.61-.23-.56-.23-.9c0-.71.35-1.26,1.06-1.65s1.76-.61,3.18-.68v-.48c0-.51-.05-.91-.15-1.2s-.25-.51-.46-.64-.49-.21-.84-.21c-.38,0-.69.1-.92.3s-.41.5-.52.9h-.96v-.95c.47-.24.86-.42,1.17-.54s.62-.21.94-.27.63-.1.95-.1c.48,0,.87.08,1.16.23s.51.39.66.71.22.8.22,1.44v2.55c0,.36,0,.62,0,.77s.02.29.04.41.06.23.11.3.12.14.22.19.25.11.47.17v.36h-2.01l.04-1.05Zm-.12-2.29c-.99,0-1.73.14-2.23.4s-.74.64-.74,1.15c0,.28.06.5.17.66s.25.27.42.33.37.09.61.09c.33,0,.63-.08.9-.24s.48-.37.63-.62.23-.5.23-.74v-1.03Z"/>
    <path class="cls-12" d="m420.85,87.33h-.7c-.11-.29-.23-.52-.38-.69s-.31-.29-.5-.36-.41-.1-.68-.1c-.39,0-.7.09-.93.27s-.35.43-.35.75c0,.22.05.41.14.56s.24.28.43.41.54.3,1.03.51c.5.21.88.41,1.15.59s.48.39.64.63.23.52.23.86c0,.39-.07.71-.2.97s-.32.48-.56.64-.52.29-.85.36-.69.11-1.08.11c-.41,0-.81-.03-1.19-.09s-.76-.14-1.13-.24v-1.53h.72c.13.45.33.78.59.98s.62.3,1.07.3c.18,0,.35-.02.52-.05s.32-.1.45-.18.24-.2.31-.35.12-.33.12-.55c0-.25-.05-.45-.15-.61s-.25-.3-.45-.43-.57-.3-1.08-.52c-.44-.19-.8-.37-1.07-.54s-.48-.38-.63-.62-.23-.52-.23-.85c0-.4.11-.75.33-1.04s.53-.52.94-.68.89-.23,1.44-.23c.32,0,.63.02.93.05s.68.09,1.13.19v1.49Z"/>
    <path class="cls-12" d="m424.35,86.87h.03c.38-.38.68-.65.9-.8s.44-.27.66-.35.45-.12.7-.12c.27,0,.51.03.72.1s.39.16.55.29.29.29.39.48.17.41.22.67.07.59.07.99v2.76c0,.42.02.71.05.87s.1.27.2.36.29.17.58.25v.36h-2.89v-.36c.19-.06.33-.11.41-.15s.15-.1.21-.18.1-.2.13-.36.05-.41.05-.74v-1.92c0-.65-.03-1.15-.1-1.49s-.2-.6-.39-.77-.46-.26-.81-.26c-.2,0-.37.03-.53.1s-.34.19-.54.37-.36.36-.47.54-.16.38-.16.59v2.81c0,.33,0,.57.03.71s.05.26.1.36.12.17.22.23.26.12.47.17v.36h-2.9v-.36c.21-.06.37-.11.46-.17s.16-.12.22-.21.09-.2.11-.36.04-.4.04-.74v-6.13c0-.47,0-.8-.01-.98s-.03-.34-.06-.47-.08-.23-.13-.3-.13-.13-.23-.18-.27-.09-.52-.13v-.38l1.77-.07h.44v4.63Z"/>
    <path class="cls-12" d="m432.23,91.03v1.7h-1.48v-1.7h1.48Z"/>
    <path class="cls-12" d="m119.95,108.45c.1.43.23.77.4,1.02s.38.43.64.55.6.18,1.02.18c.57,0,1.01-.15,1.31-.45s.46-.73.46-1.3c0-.37-.06-.67-.19-.92s-.33-.48-.62-.7-.73-.48-1.32-.77c-.57-.28-1.02-.56-1.35-.83s-.58-.57-.74-.88-.25-.66-.25-1.04c0-.55.13-1.02.38-1.42s.63-.71,1.13-.93,1.06-.33,1.7-.33c.37,0,.73.02,1.09.06s.8.13,1.33.26v1.98h-.73c-.11-.43-.25-.76-.42-1s-.37-.41-.6-.5-.53-.14-.89-.14c-.32,0-.6.06-.85.18s-.45.29-.6.53-.22.52-.22.85c0,.35.06.64.19.88s.32.46.58.67.65.43,1.17.69c.62.31,1.11.6,1.45.87s.61.57.81.92.29.75.29,1.2c0,.51-.08.95-.24,1.3s-.38.64-.67.86-.63.38-1.03.48-.83.15-1.31.15c-.77,0-1.65-.13-2.65-.39v-2.01h.73Z"/>
    <path class="cls-12" d="m126.55,110.37c.19-.06.33-.11.41-.15s.15-.1.21-.18.1-.2.13-.36.05-.41.05-.75v-3.19c0-.31,0-.56-.01-.75s-.04-.34-.1-.46-.15-.2-.27-.26-.29-.1-.51-.14v-.39l1.71-.07h.45v5.24c0,.42.02.71.06.88s.11.29.22.37.29.16.54.22v.36h-2.87v-.36Zm2.09-9.51v1.42h-1.35v-1.42h1.35Z"/>
    <path class="cls-12" d="m137.85,110.72h-2.89v-.36c.19-.06.33-.11.41-.15s.15-.1.21-.18.1-.2.13-.36.05-.41.05-.74v-1.92c0-.34,0-.65-.03-.93s-.05-.51-.1-.68-.1-.32-.17-.42-.14-.19-.23-.26-.19-.13-.31-.17-.27-.06-.46-.06-.37.04-.54.11-.36.21-.56.39-.35.37-.45.55-.14.39-.14.62v2.73c0,.42.02.71.06.88s.11.29.22.37.29.16.54.22v.36h-2.87v-.36c.19-.06.33-.11.41-.15s.15-.1.21-.18.1-.2.13-.36.05-.41.05-.75v-3.19c0-.31,0-.56-.01-.75s-.04-.34-.1-.46-.15-.2-.27-.26-.29-.1-.51-.14v-.39l1.71-.07h.45l-.08,1.19.1.03c.36-.37.65-.63.88-.78s.45-.28.67-.36.47-.13.72-.13.5.03.71.09.39.16.55.28.29.28.39.47.18.41.23.68.08.6.08,1v2.76c0,.34,0,.58.03.73s.05.27.1.35.12.15.21.21.25.12.48.18v.36Z"/>
    <path class="cls-12" d="m144.54,103.89v1.53h-.93c-.08-.32-.19-.57-.31-.75s-.26-.31-.42-.38-.36-.11-.6-.11c-.34,0-.64.11-.91.33s-.47.55-.63,1-.23,1-.23,1.65c0,.42.03.79.09,1.14s.16.64.3.88.33.43.56.57.52.21.87.21.65-.07.94-.2.59-.36.9-.7l.42.48c-.25.27-.47.48-.66.63s-.39.27-.61.37-.43.17-.64.22-.44.07-.69.07c-.92,0-1.63-.31-2.12-.92s-.73-1.5-.73-2.66c0-.72.14-1.36.41-1.92s.66-.99,1.15-1.29,1.06-.45,1.71-.45c.4,0,.77.02,1.11.07s.68.12,1.02.22Z"/>
    <path class="cls-12" d="m151.55,109.48c-.31.33-.6.58-.86.77s-.55.33-.86.44-.66.16-1.03.16c-1.01,0-1.77-.3-2.28-.9s-.77-1.49-.77-2.67c0-.73.13-1.37.39-1.93s.63-.99,1.12-1.29,1.04-.45,1.67-.45c.49,0,.91.08,1.26.23s.62.37.83.64.37.61.48,1.03.18.95.19,1.61h-4.61v.13c0,.58.06,1.06.19,1.45s.34.7.64.92.68.33,1.15.33c.4,0,.76-.07,1.08-.22s.64-.39.96-.73l.45.48Zm-1.23-2.97c-.03-.53-.1-.96-.2-1.29s-.26-.59-.46-.77-.47-.27-.81-.27c-.5,0-.9.2-1.2.6s-.48.98-.53,1.72h3.2Z"/>
    <path class="cls-12" d="m160.55,109.68l-.11-.03c-.42.43-.82.74-1.2.92s-.77.27-1.19.27c-.37,0-.7-.07-.98-.22s-.5-.35-.65-.61-.23-.56-.23-.9c0-.71.35-1.26,1.06-1.65s1.76-.61,3.17-.68v-.48c0-.51-.05-.91-.15-1.2s-.25-.51-.46-.64-.49-.21-.84-.21c-.38,0-.69.1-.92.3s-.41.5-.52.9h-.96v-.95c.47-.24.86-.42,1.17-.54s.62-.21.94-.27.63-.1.95-.1c.48,0,.87.08,1.16.23s.51.39.66.71.22.8.22,1.44v2.55c0,.36,0,.62,0,.77s.02.29.04.41.06.23.11.3.12.14.22.19.25.11.46.17v.36h-2.01l.04-1.05Zm-.12-2.29c-.99,0-1.73.14-2.23.4s-.74.64-.74,1.15c0,.28.06.5.17.66s.25.27.42.33.37.09.61.09c.33,0,.63-.08.9-.24s.48-.37.63-.62.23-.5.23-.74v-1.03Z"/>
    <path class="cls-12" d="m171.89,102.76c0-.47,0-.8-.01-.98s-.03-.34-.06-.47-.08-.23-.13-.3-.13-.13-.23-.18-.27-.09-.52-.13v-.38l1.77-.07h.43v8.48c0,.38,0,.65.02.82s.05.29.1.39.13.18.23.24.29.12.55.17v.38l-1.73.07h-.44l.09-1.2-.11-.03c-.31.33-.57.57-.8.74s-.47.29-.73.39-.53.15-.82.15c-.8,0-1.42-.3-1.85-.91s-.65-1.49-.65-2.63c0-.8.14-1.48.42-2.04s.67-.98,1.15-1.25,1.02-.41,1.62-.41c.32,0,.62.03.88.08s.53.14.81.25v-1.16Zm0,3.62c0-.38-.02-.69-.05-.92s-.09-.42-.17-.58-.19-.29-.33-.4-.29-.19-.45-.23-.36-.07-.59-.07c-.62,0-1.1.25-1.43.75s-.49,1.22-.49,2.16.13,1.65.4,2.14.68.73,1.22.73c.21,0,.39-.02.53-.05s.28-.1.42-.18.28-.19.42-.33.25-.27.31-.39.12-.25.15-.4.05-.35.05-.59v-1.64Z"/>
    <path class="cls-12" d="m179.5,109.68l-.11-.03c-.42.43-.82.74-1.2.92s-.77.27-1.19.27c-.37,0-.7-.07-.98-.22s-.5-.35-.65-.61-.23-.56-.23-.9c0-.71.35-1.26,1.06-1.65s1.76-.61,3.17-.68v-.48c0-.51-.05-.91-.15-1.2s-.25-.51-.46-.64-.49-.21-.84-.21c-.38,0-.69.1-.92.3s-.41.5-.52.9h-.96v-.95c.47-.24.86-.42,1.17-.54s.62-.21.94-.27.63-.1.95-.1c.48,0,.87.08,1.16.23s.51.39.66.71.22.8.22,1.44v2.55c0,.36,0,.62,0,.77s.02.29.04.41.06.23.11.3.12.14.22.19.25.11.46.17v.36h-2.01l.04-1.05Zm-.12-2.29c-.99,0-1.73.14-2.23.4s-.74.64-.74,1.15c0,.28.06.5.17.66s.25.27.42.33.37.09.61.09c.33,0,.63-.08.9-.24s.48-.37.63-.62.23-.5.23-.74v-1.03Z"/>
    <path class="cls-12" d="m187.5,105.33h-.7c-.11-.29-.23-.52-.38-.69s-.31-.29-.5-.36-.41-.1-.68-.1c-.39,0-.7.09-.93.27s-.35.43-.35.75c0,.22.05.41.14.56s.24.28.43.41.54.3,1.03.51c.5.21.88.41,1.15.59s.48.39.64.63.23.52.23.86c0,.39-.07.71-.2.97s-.32.48-.56.64-.52.29-.85.36-.69.11-1.08.11c-.41,0-.81-.03-1.19-.09s-.76-.14-1.13-.24v-1.53h.72c.13.45.33.78.59.98s.62.3,1.07.3c.18,0,.35-.02.52-.05s.32-.1.45-.18.24-.2.31-.35.12-.33.12-.55c0-.25-.05-.45-.15-.61s-.25-.3-.45-.43-.57-.3-1.08-.52c-.44-.19-.8-.37-1.07-.54s-.48-.38-.63-.62-.23-.52-.23-.85c0-.4.11-.75.33-1.04s.53-.52.94-.68.89-.23,1.44-.23c.32,0,.63.02.93.05s.68.09,1.13.19v1.49Z"/>
    <path class="cls-12" d="m191,104.87h.03c.38-.38.68-.65.9-.8s.44-.27.66-.35.45-.12.7-.12c.27,0,.51.03.72.1s.39.16.55.29.29.29.39.48.17.41.22.67.07.59.07.99v2.76c0,.42.02.71.06.87s.1.27.2.36.29.17.57.25v.36h-2.89v-.36c.19-.06.33-.11.41-.15s.15-.1.21-.18.1-.2.13-.36.05-.41.05-.74v-1.92c0-.65-.03-1.15-.1-1.49s-.2-.6-.39-.77-.46-.26-.81-.26c-.2,0-.37.03-.53.1s-.34.19-.54.37-.36.36-.46.54-.16.38-.16.59v2.81c0,.33,0,.57.03.71s.05.26.1.36.12.17.22.23.25.12.46.17v.36h-2.9v-.36c.21-.06.37-.11.46-.17s.17-.12.22-.21.09-.2.11-.36.04-.4.04-.74v-6.13c0-.47,0-.8-.01-.98s-.03-.34-.06-.47-.08-.23-.13-.3-.13-.13-.23-.18-.27-.09-.52-.13v-.38l1.77-.07h.44v4.63Z"/>
    <path class="cls-12" d="m202.58,104.87h.03c.38-.38.68-.65.9-.8s.44-.27.66-.35.45-.12.7-.12c.27,0,.51.03.72.1s.39.16.55.29.29.29.39.48.17.41.22.67.07.59.07.99v2.76c0,.42.02.71.06.87s.1.27.2.36.29.17.57.25v.36h-2.89v-.36c.19-.06.33-.11.41-.15s.15-.1.21-.18.1-.2.13-.36.05-.41.05-.74v-1.92c0-.65-.03-1.15-.1-1.49s-.2-.6-.39-.77-.46-.26-.81-.26c-.2,0-.37.03-.53.1s-.34.19-.54.37-.36.36-.46.54-.16.38-.16.59v2.81c0,.33,0,.57.03.71s.05.26.1.36.12.17.22.23.25.12.46.17v.36h-2.9v-.36c.21-.06.37-.11.46-.17s.17-.12.22-.21.09-.2.11-.36.04-.4.04-.74v-6.13c0-.47,0-.8-.01-.98s-.03-.34-.06-.47-.08-.23-.13-.3-.13-.13-.23-.18-.27-.09-.52-.13v-.38l1.77-.07h.44v4.63Z"/>
    <path class="cls-12" d="m213.13,109.68l-.11-.03c-.42.43-.82.74-1.2.92s-.77.27-1.19.27c-.37,0-.7-.07-.98-.22s-.5-.35-.65-.61-.23-.56-.23-.9c0-.71.35-1.26,1.06-1.65s1.76-.61,3.17-.68v-.48c0-.51-.05-.91-.15-1.2s-.25-.51-.46-.64-.49-.21-.84-.21c-.38,0-.69.1-.92.3s-.41.5-.52.9h-.96v-.95c.47-.24.86-.42,1.17-.54s.62-.21.94-.27.63-.1.95-.1c.48,0,.87.08,1.16.23s.51.39.66.71.22.8.22,1.44v2.55c0,.36,0,.62,0,.77s.02.29.04.41.06.23.11.3.12.14.22.19.25.11.46.17v.36h-2.01l.04-1.05Zm-.12-2.29c-.99,0-1.73.14-2.23.4s-.74.64-.74,1.15c0,.28.06.5.17.66s.25.27.42.33.37.09.61.09c.33,0,.63-.08.9-.24s.48-.37.63-.62.23-.5.23-.74v-1.03Z"/>
    <path class="cls-12" d="m221.13,105.33h-.7c-.11-.29-.23-.52-.38-.69s-.31-.29-.5-.36-.41-.1-.68-.1c-.39,0-.7.09-.93.27s-.35.43-.35.75c0,.22.05.41.14.56s.24.28.43.41.54.3,1.03.51c.5.21.88.41,1.15.59s.48.39.64.63.23.52.23.86c0,.39-.07.71-.2.97s-.32.48-.56.64-.52.29-.85.36-.69.11-1.08.11c-.41,0-.81-.03-1.19-.09s-.76-.14-1.13-.24v-1.53h.72c.13.45.33.78.59.98s.62.3,1.07.3c.18,0,.35-.02.52-.05s.32-.1.45-.18.24-.2.31-.35.12-.33.12-.55c0-.25-.05-.45-.15-.61s-.25-.3-.45-.43-.57-.3-1.08-.52c-.44-.19-.8-.37-1.07-.54s-.48-.38-.63-.62-.23-.52-.23-.85c0-.4.11-.75.33-1.04s.53-.52.94-.68.89-.23,1.44-.23c.32,0,.63.02.93.05s.68.09,1.13.19v1.49Z"/>
    <path class="cls-12" d="m229.73,104.46h-1.75v4.43c0,.33.02.57.05.74s.08.29.14.38.14.15.24.21.26.1.48.15v.36h-3v-.36c.21-.06.37-.11.46-.17s.17-.12.22-.21.09-.2.11-.36.04-.4.04-.74v-4.43h-.89v-.37c.19-.03.31-.05.37-.07s.12-.04.18-.08.1-.08.15-.15.08-.16.11-.28.06-.3.08-.52c.04-.53.14-.96.29-1.3s.37-.62.65-.85.59-.4.92-.49.71-.14,1.15-.14c.39,0,.71.03.98.08v1.33h-.73c-.09-.29-.2-.49-.33-.61s-.3-.18-.52-.18c-.16,0-.3.02-.41.07s-.21.11-.3.21-.17.22-.24.37-.11.35-.15.58-.05.53-.05.9v.77h1.75v.74Z"/>
    <path class="cls-12" d="m230.33,103.72h2.09v3.73c0,.57.02,1.01.07,1.3s.11.52.2.67.21.28.37.38.38.15.67.15c.19,0,.36-.04.53-.11s.36-.2.57-.38.36-.36.45-.55.14-.39.14-.63v-2.75c0-.28,0-.49-.02-.63s-.04-.26-.07-.34-.07-.16-.12-.21-.11-.1-.2-.15-.22-.09-.41-.14v-.36h2.09v5c0,.38,0,.65.02.81s.05.3.1.4.12.18.23.24.29.12.55.17v.38l-1.68.07h-.45l.04-1.2-.11-.03c-.41.44-.79.76-1.16.97s-.74.31-1.11.31c-.44,0-.81-.09-1.1-.26s-.5-.44-.64-.79-.21-.84-.21-1.48v-2.77c0-.41-.02-.69-.05-.85s-.09-.28-.18-.37-.29-.17-.59-.25v-.36Z"/>
    <path class="cls-12" d="m240.77,104.94l.1.02c.27-.33.52-.58.75-.77s.48-.33.74-.44.57-.15.9-.15c.28,0,.54.01.77.04v1.68h-.83c-.12-.26-.24-.46-.37-.57s-.31-.18-.54-.18c-.18,0-.35.05-.52.15s-.34.25-.5.45-.27.38-.33.55-.09.37-.09.61v2.56c0,.44.03.75.08.92s.14.29.27.37.31.14.56.18v.36h-2.95v-.36c.19-.06.32-.11.4-.15s.15-.1.21-.18.1-.2.13-.36.04-.41.04-.75v-3.19c0-.31,0-.56-.01-.75s-.04-.34-.1-.46-.15-.2-.27-.26-.29-.1-.51-.14v-.38l1.71-.07h.45l-.08,1.28Z"/>
    <path class="cls-12" d="m244.56,104.09c.24-.04.44-.11.59-.21s.27-.22.36-.38.15-.35.2-.58.1-.57.15-1.01h1.04v1.81h2.37v.74h-2.37v3.26c0,.47.02.85.06,1.13s.11.5.22.66.23.27.37.34.31.1.53.1c.2,0,.38-.04.55-.12s.34-.2.51-.35l.33.4c-.35.34-.67.58-.98.73s-.63.23-.96.23c-.63,0-1.1-.19-1.41-.56s-.46-.96-.46-1.75v-4.06h-1.08v-.37Z"/>
    <path class="cls-12" d="m252.03,104.87h.03c.38-.38.68-.65.9-.8s.44-.27.66-.35.45-.12.7-.12c.27,0,.51.03.72.1s.39.16.55.29.29.29.39.48.17.41.22.67.07.59.07.99v2.76c0,.42.02.71.06.87s.1.27.2.36.29.17.57.25v.36h-2.89v-.36c.19-.06.33-.11.41-.15s.15-.1.21-.18.1-.2.13-.36.05-.41.05-.74v-1.92c0-.65-.03-1.15-.1-1.49s-.2-.6-.39-.77-.46-.26-.81-.26c-.2,0-.37.03-.53.1s-.34.19-.54.37-.36.36-.46.54-.16.38-.16.59v2.81c0,.33,0,.57.03.71s.05.26.1.36.12.17.22.23.25.12.46.17v.36h-2.9v-.36c.21-.06.37-.11.46-.17s.17-.12.22-.21.09-.2.11-.36.04-.4.04-.74v-6.13c0-.47,0-.8-.01-.98s-.03-.34-.06-.47-.08-.23-.13-.3-.13-.13-.23-.18-.27-.09-.52-.13v-.38l1.77-.07h.44v4.63Z"/>
    <path class="cls-12" d="m264.2,109.48c-.31.33-.6.58-.86.77s-.55.33-.86.44-.66.16-1.03.16c-1.01,0-1.77-.3-2.28-.9s-.77-1.49-.77-2.67c0-.73.13-1.37.39-1.93s.63-.99,1.12-1.29,1.04-.45,1.67-.45c.49,0,.91.08,1.26.23s.62.37.83.64.37.61.48,1.03.18.95.19,1.61h-4.61v.13c0,.58.06,1.06.19,1.45s.34.7.64.92.68.33,1.15.33c.4,0,.76-.07,1.08-.22s.64-.39.96-.73l.45.48Zm-1.23-2.97c-.03-.53-.1-.96-.2-1.29s-.26-.59-.46-.77-.47-.27-.81-.27c-.5,0-.9.2-1.2.6s-.48.98-.53,1.72h3.2Z"/>
    <path class="cls-12" d="m267.64,104.94l.1.02c.27-.33.52-.58.75-.77s.48-.33.74-.44.57-.15.9-.15c.28,0,.54.01.77.04v1.68h-.83c-.12-.26-.24-.46-.37-.57s-.31-.18-.54-.18c-.18,0-.35.05-.52.15s-.34.25-.5.45-.27.38-.33.55-.09.37-.09.61v2.56c0,.44.03.75.08.92s.14.29.27.37.31.14.56.18v.36h-2.95v-.36c.19-.06.32-.11.4-.15s.15-.1.21-.18.1-.2.13-.36.04-.41.04-.75v-3.19c0-.31,0-.56-.01-.75s-.04-.34-.1-.46-.15-.2-.27-.26-.29-.1-.51-.14v-.38l1.71-.07h.45l-.08,1.28Z"/>
    <path class="cls-12" d="m274.73,104.09c.24-.04.44-.11.59-.21s.27-.22.36-.38.15-.35.2-.58.1-.57.15-1.01h1.04v1.81h2.37v.74h-2.37v3.26c0,.47.02.85.06,1.13s.11.5.22.66.23.27.37.34.31.1.53.1c.2,0,.38-.04.55-.12s.34-.2.51-.35l.33.4c-.35.34-.67.58-.98.73s-.63.23-.96.23c-.63,0-1.1-.19-1.41-.56s-.46-.96-.46-1.75v-4.06h-1.08v-.37Z"/>
    <path class="cls-12" d="m283.3,110.84c-1.02,0-1.79-.3-2.33-.9s-.8-1.48-.8-2.66c0-.81.14-1.49.42-2.04s.67-.97,1.15-1.24,1.04-.41,1.67-.41c1.04,0,1.84.3,2.37.91s.81,1.48.81,2.62c0,.81-.13,1.49-.4,2.05s-.65.97-1.14,1.25-1.08.41-1.75.41Zm-1.74-3.71c0,1.01.16,1.78.48,2.32s.78.81,1.37.81c.33,0,.61-.08.83-.24s.42-.37.56-.64.25-.58.31-.93.1-.72.1-1.11c0-.72-.08-1.31-.24-1.79s-.38-.82-.65-1.04-.59-.33-.94-.33c-.59,0-1.04.26-1.36.77s-.47,1.24-.47,2.19Z"/>
    <path class="cls-12" d="m290.94,104.09c.24-.04.44-.11.59-.21s.27-.22.36-.38.15-.35.2-.58.1-.57.15-1.01h1.04v1.81h2.37v.74h-2.37v3.26c0,.47.02.85.06,1.13s.11.5.22.66.23.27.37.34.31.1.53.1c.2,0,.38-.04.55-.12s.34-.2.51-.35l.33.4c-.35.34-.67.58-.98.73s-.63.23-.96.23c-.63,0-1.1-.19-1.41-.56s-.46-.96-.46-1.75v-4.06h-1.08v-.37Z"/>
    <path class="cls-12" d="m298.43,104.94l.1.02c.27-.33.52-.58.75-.77s.48-.33.74-.44.57-.15.9-.15c.28,0,.54.01.77.04v1.68h-.83c-.12-.26-.24-.46-.37-.57s-.31-.18-.54-.18c-.18,0-.35.05-.52.15s-.34.25-.5.45-.27.38-.33.55-.09.37-.09.61v2.56c0,.44.03.75.08.92s.14.29.27.37.31.14.56.18v.36h-2.95v-.36c.19-.06.32-.11.4-.15s.15-.1.21-.18.1-.2.13-.36.04-.41.04-.75v-3.19c0-.31,0-.56-.01-.75s-.04-.34-.1-.46-.15-.2-.27-.26-.29-.1-.51-.14v-.38l1.71-.07h.45l-.08,1.28Z"/>
    <path class="cls-12" d="m306.64,109.68l-.11-.03c-.42.43-.82.74-1.2.92s-.77.27-1.19.27c-.37,0-.7-.07-.98-.22s-.5-.35-.65-.61-.23-.56-.23-.9c0-.71.35-1.26,1.06-1.65s1.76-.61,3.17-.68v-.48c0-.51-.05-.91-.15-1.2s-.25-.51-.46-.64-.49-.21-.84-.21c-.38,0-.69.1-.92.3s-.41.5-.52.9h-.96v-.95c.47-.24.86-.42,1.17-.54s.62-.21.94-.27.63-.1.95-.1c.48,0,.87.08,1.16.23s.51.39.66.71.22.8.22,1.44v2.55c0,.36,0,.62,0,.77s.02.29.04.41.06.23.11.3.12.14.22.19.25.11.46.17v.36h-2.01l.04-1.05Zm-.12-2.29c-.99,0-1.73.14-2.23.4s-.74.64-.74,1.15c0,.28.06.5.17.66s.25.27.42.33.37.09.61.09c.33,0,.63-.08.9-.24s.48-.37.63-.62.23-.5.23-.74v-1.03Z"/>
    <path class="cls-12" d="m311.85,103.72v.36c-.22.05-.38.1-.48.15s-.16.11-.21.19-.07.18-.07.31.02.27.05.41.08.31.15.5l1.27,3.71,1.49-3.55c.1-.23.17-.43.21-.58s.06-.29.06-.42c0-.21-.05-.36-.16-.47s-.31-.19-.6-.26v-.36h2.74v.36c-.19.04-.34.1-.44.18s-.21.21-.31.38-.22.42-.37.73l-2.47,5.43h-.86l-1.98-5.47c-.14-.38-.25-.63-.33-.77s-.17-.24-.26-.31-.23-.12-.41-.16v-.36h2.99Z"/>
    <path class="cls-12" d="m322.55,109.48c-.31.33-.6.58-.86.77s-.55.33-.86.44-.66.16-1.03.16c-1.01,0-1.77-.3-2.28-.9s-.77-1.49-.77-2.67c0-.73.13-1.37.39-1.93s.63-.99,1.12-1.29,1.04-.45,1.67-.45c.49,0,.91.08,1.26.23s.62.37.83.64.37.61.48,1.03.18.95.19,1.61h-4.61v.13c0,.58.06,1.06.19,1.45s.34.7.64.92.68.33,1.15.33c.4,0,.76-.07,1.08-.22s.64-.39.96-.73l.45.48Zm-1.23-2.97c-.03-.53-.1-.96-.2-1.29s-.26-.59-.46-.77-.47-.27-.81-.27c-.5,0-.9.2-1.2.6s-.48.98-.53,1.72h3.2Z"/>
    <path class="cls-12" d="m325.97,108.89c0,.42.02.71.06.88s.11.29.22.37.29.16.54.22v.36h-2.91v-.36c.24-.06.41-.13.51-.2s.16-.15.21-.25.07-.22.09-.39.03-.38.03-.64v-6.13c0-.47,0-.8-.01-.98s-.03-.34-.06-.47-.08-.23-.13-.3-.13-.13-.23-.18-.27-.09-.52-.13v-.38l1.77-.07h.44v8.65Z"/>
    <path class="cls-12" d="m329.64,109.03c.07.34.1.68.1,1.01s-.06.65-.18.94-.3.57-.56.85-.61.59-1.06.93l-.4-.45c.25-.23.43-.45.54-.63s.19-.4.24-.64.07-.54.07-.9-.02-.74-.05-1.1h1.28Z"/>
    <path class="cls-12" d="m334.47,110.37c.19-.06.33-.11.41-.15s.15-.1.21-.18.1-.2.13-.36.05-.41.05-.75v-3.19c0-.31,0-.56-.01-.75s-.04-.34-.1-.46-.15-.2-.27-.26-.29-.1-.51-.14v-.39l1.71-.07h.45v5.24c0,.42.02.71.06.88s.11.29.22.37.29.16.54.22v.36h-2.87v-.36Zm2.09-9.51v1.42h-1.35v-1.42h1.35Z"/>
    <path class="cls-12" d="m338.2,104.09c.24-.04.44-.11.59-.21s.27-.22.36-.38.15-.35.2-.58.1-.57.15-1.01h1.04v1.81h2.37v.74h-2.37v3.26c0,.47.02.85.06,1.13s.11.5.22.66.23.27.37.34.31.1.53.1c.2,0,.38-.04.55-.12s.34-.2.51-.35l.33.4c-.35.34-.67.58-.98.73s-.63.23-.96.23c-.63,0-1.1-.19-1.41-.56s-.46-.96-.46-1.75v-4.06h-1.08v-.37Z"/>
    <path class="cls-12" d="m348.99,104.85l.1.03c.29-.29.53-.51.72-.66s.37-.27.55-.36.34-.16.49-.19.31-.06.47-.06c.49,0,.89.11,1.19.34s.52.57.64,1.03c.37-.37.66-.64.89-.82s.46-.31.7-.41.49-.14.77-.14c.33,0,.61.05.85.14s.44.24.6.44.28.45.36.74.11.7.11,1.2v2.76c0,.37.01.63.04.77s.06.25.11.33.12.15.21.2.25.11.47.17v.36h-2.88v-.36c.19-.06.33-.11.41-.15s.15-.1.21-.18.1-.2.13-.36.05-.41.05-.74v-1.92c0-.42-.01-.76-.03-1.03s-.06-.49-.1-.65-.1-.29-.17-.38-.14-.17-.22-.24-.18-.12-.29-.16-.26-.06-.45-.06c-.2,0-.38.04-.55.12s-.35.21-.55.4-.34.37-.43.56-.13.41-.13.66v2.67c0,.37.01.63.04.77s.06.25.11.33.12.15.21.2.25.11.47.17v.36h-2.88v-.36c.19-.06.33-.11.41-.15s.15-.1.21-.18.1-.2.13-.36.05-.41.05-.74v-1.92c0-.43-.01-.79-.04-1.06s-.06-.49-.11-.66-.12-.3-.2-.4-.16-.18-.25-.23-.18-.09-.29-.12-.24-.04-.38-.04c-.2,0-.39.05-.56.14s-.35.22-.54.39-.32.35-.41.53-.14.39-.14.6v2.75c0,.28,0,.49.02.64s.04.26.07.34.07.15.12.2.12.1.21.15.23.09.41.14v.36h-2.87v-.36c.19-.06.32-.11.4-.15s.15-.1.21-.18.1-.2.13-.36.04-.41.04-.75v-3.19c0-.31,0-.56-.01-.75s-.04-.34-.1-.46-.15-.2-.27-.26-.29-.1-.51-.14v-.39l1.71-.07h.45l-.08,1.19Z"/>
    <path class="cls-12" d="m362.68,110.84c-1.02,0-1.79-.3-2.33-.9s-.8-1.48-.8-2.66c0-.81.14-1.49.42-2.04s.67-.97,1.15-1.24,1.04-.41,1.67-.41c1.04,0,1.84.3,2.37.91s.81,1.48.81,2.62c0,.81-.13,1.49-.4,2.05s-.65.97-1.14,1.25-1.08.41-1.75.41Zm-1.74-3.71c0,1.01.16,1.78.48,2.32s.78.81,1.37.81c.33,0,.61-.08.83-.24s.42-.37.56-.64.25-.58.31-.93.1-.72.1-1.11c0-.72-.08-1.31-.24-1.79s-.38-.82-.65-1.04-.59-.33-.94-.33c-.59,0-1.04.26-1.36.77s-.47,1.24-.47,2.19Z"/>
    <path class="cls-12" d="m369.65,103.72v.36c-.22.05-.38.1-.48.15s-.16.11-.21.19-.07.18-.07.31.02.27.05.41.08.31.15.5l1.27,3.71,1.49-3.55c.1-.23.17-.43.21-.58s.06-.29.06-.42c0-.21-.05-.36-.16-.47s-.31-.19-.6-.26v-.36h2.74v.36c-.19.04-.34.1-.44.18s-.21.21-.31.38-.22.42-.37.73l-2.47,5.43h-.86l-1.98-5.47c-.14-.38-.25-.63-.33-.77s-.17-.24-.26-.31-.23-.12-.41-.16v-.36h2.99Z"/>
    <path class="cls-12" d="m380.35,109.48c-.31.33-.6.58-.86.77s-.55.33-.86.44-.66.16-1.03.16c-1.01,0-1.77-.3-2.28-.9s-.77-1.49-.77-2.67c0-.73.13-1.37.39-1.93s.63-.99,1.12-1.29,1.04-.45,1.67-.45c.49,0,.91.08,1.26.23s.62.37.83.64.37.61.48,1.03.18.95.19,1.61h-4.61v.13c0,.58.06,1.06.19,1.45s.34.7.64.92.68.33,1.15.33c.4,0,.76-.07,1.08-.22s.64-.39.96-.73l.45.48Zm-1.23-2.97c-.03-.53-.1-.96-.2-1.29s-.26-.59-.46-.77-.47-.27-.81-.27c-.5,0-.9.2-1.2.6s-.48.98-.53,1.72h3.2Z"/>
    <path class="cls-12" d="m386.73,105.33h-.7c-.11-.29-.23-.52-.38-.69s-.31-.29-.5-.36-.41-.1-.68-.1c-.39,0-.7.09-.93.27s-.35.43-.35.75c0,.22.05.41.14.56s.24.28.43.41.54.3,1.03.51c.5.21.88.41,1.15.59s.48.39.64.63.23.52.23.86c0,.39-.07.71-.2.97s-.32.48-.56.64-.52.29-.85.36-.69.11-1.08.11c-.41,0-.81-.03-1.19-.09s-.76-.14-1.13-.24v-1.53h.72c.13.45.33.78.59.98s.62.3,1.07.3c.18,0,.35-.02.52-.05s.32-.1.45-.18.24-.2.31-.35.12-.33.12-.55c0-.25-.05-.45-.15-.61s-.25-.3-.45-.43-.57-.3-1.08-.52c-.44-.19-.8-.37-1.07-.54s-.48-.38-.63-.62-.23-.52-.23-.85c0-.4.11-.75.33-1.04s.53-.52.94-.68.89-.23,1.44-.23c.32,0,.63.02.93.05s.68.09,1.13.19v1.49Z"/>
    <path class="cls-12" d="m396.48,105.33h-.7c-.11-.29-.23-.52-.38-.69s-.31-.29-.5-.36-.41-.1-.68-.1c-.39,0-.7.09-.93.27s-.35.43-.35.75c0,.22.05.41.14.56s.24.28.43.41.54.3,1.03.51c.5.21.88.41,1.15.59s.48.39.64.63.23.52.23.86c0,.39-.07.71-.2.97s-.32.48-.56.64-.52.29-.85.36-.69.11-1.08.11c-.41,0-.81-.03-1.19-.09s-.76-.14-1.13-.24v-1.53h.72c.13.45.33.78.59.98s.62.3,1.07.3c.18,0,.35-.02.52-.05s.32-.1.45-.18.24-.2.31-.35.12-.33.12-.55c0-.25-.05-.45-.15-.61s-.25-.3-.45-.43-.57-.3-1.08-.52c-.44-.19-.8-.37-1.07-.54s-.48-.38-.63-.62-.23-.52-.23-.85c0-.4.11-.75.33-1.04s.53-.52.94-.68.89-.23,1.44-.23c.32,0,.63.02.93.05s.68.09,1.13.19v1.49Z"/>
    <path class="cls-12" d="m399.97,108.89c0,.42.02.71.06.88s.11.29.22.37.29.16.54.22v.36h-2.91v-.36c.24-.06.41-.13.51-.2s.16-.15.21-.25.07-.22.09-.39.03-.38.03-.64v-6.13c0-.47,0-.8-.01-.98s-.03-.34-.06-.47-.08-.23-.13-.3-.13-.13-.23-.18-.27-.09-.52-.13v-.38l1.77-.07h.44v8.65Z"/>
    <path class="cls-12" d="m402.09,110.37c.19-.06.33-.11.41-.15s.15-.1.21-.18.1-.2.13-.36.05-.41.05-.75v-3.19c0-.31,0-.56-.01-.75s-.04-.34-.1-.46-.15-.2-.27-.26-.29-.1-.51-.14v-.39l1.71-.07h.45v5.24c0,.42.02.71.06.88s.11.29.22.37.29.16.54.22v.36h-2.87v-.36Zm2.09-9.51v1.42h-1.35v-1.42h1.35Z"/>
    <path class="cls-12" d="m412.82,104.46l-1.35-.05-.07.08c.15.15.27.36.36.62s.13.54.13.85c0,.8-.25,1.41-.74,1.84s-1.19.65-2.09.65c-.41,0-.75-.05-1.05-.15-.37.28-.56.56-.56.83,0,.18.04.32.11.41s.19.16.35.2.41.06.74.06h1.76c.52,0,.94.08,1.27.24s.56.38.7.65.21.59.21.95c0,.46-.13.87-.4,1.23s-.64.64-1.14.84-1.08.3-1.74.3c-.49,0-.94-.03-1.35-.09s-.76-.16-1.05-.3-.52-.32-.67-.55-.24-.51-.24-.85c0-.31.1-.59.31-.84s.5-.47.87-.66c-.23-.09-.41-.23-.54-.41s-.2-.39-.2-.64c0-.28.08-.53.23-.77s.43-.5.83-.79c-.35-.21-.62-.48-.8-.83s-.27-.75-.27-1.2c0-.42.07-.78.21-1.09s.33-.57.58-.77.54-.35.88-.45.7-.15,1.09-.15c.35,0,.7.04,1.05.12h2.59v.74Zm-4.9,6.38c-.25.19-.44.38-.56.59s-.19.44-.19.71c0,.44.17.76.52.97s.88.31,1.6.31c.44,0,.82-.06,1.13-.18s.56-.29.72-.51.25-.48.25-.77c0-.14-.02-.27-.05-.4s-.1-.25-.19-.35-.23-.18-.41-.25-.41-.09-.69-.09h-1.09c-.4,0-.74-.01-1.05-.04Zm-.18-4.89c0,.61.12,1.08.37,1.41s.61.5,1.08.5c.25,0,.46-.05.64-.14s.32-.23.43-.39.19-.36.24-.57.08-.45.08-.68c0-.43-.06-.79-.18-1.08s-.29-.5-.5-.63-.45-.2-.73-.2c-.46,0-.82.15-1.06.46s-.37.75-.37,1.33Z"/>
    <path class="cls-12" d="m415.53,104.87h.03c.38-.38.68-.65.9-.8s.44-.27.66-.35.45-.12.7-.12c.27,0,.51.03.72.1s.39.16.55.29.29.29.39.48.17.41.22.67.07.59.07.99v2.76c0,.42.02.71.06.87s.1.27.2.36.29.17.57.25v.36h-2.89v-.36c.19-.06.33-.11.41-.15s.15-.1.21-.18.1-.2.13-.36.05-.41.05-.74v-1.92c0-.65-.03-1.15-.1-1.49s-.2-.6-.39-.77-.46-.26-.81-.26c-.2,0-.37.03-.53.1s-.34.19-.54.37-.36.36-.46.54-.16.38-.16.59v2.81c0,.33,0,.57.03.71s.05.26.1.36.12.17.22.23.25.12.46.17v.36h-2.9v-.36c.21-.06.37-.11.46-.17s.17-.12.22-.21.09-.2.11-.36.04-.4.04-.74v-6.13c0-.47,0-.8-.01-.98s-.03-.34-.06-.47-.08-.23-.13-.3-.13-.13-.23-.18-.27-.09-.52-.13v-.38l1.77-.07h.44v4.63Z"/>
    <path class="cls-12" d="m421.4,104.09c.24-.04.44-.11.59-.21s.27-.22.36-.38.15-.35.2-.58.1-.57.15-1.01h1.04v1.81h2.37v.74h-2.37v3.26c0,.47.02.85.06,1.13s.11.5.22.66.23.27.37.34.31.1.53.1c.2,0,.38-.04.55-.12s.34-.2.51-.35l.33.4c-.35.34-.67.58-.98.73s-.63.23-.96.23c-.63,0-1.1-.19-1.41-.56s-.46-.96-.46-1.75v-4.06h-1.08v-.37Z"/>
    <path class="cls-12" d="m428.87,108.89c0,.42.02.71.06.88s.11.29.22.37.29.16.54.22v.36h-2.91v-.36c.24-.06.41-.13.51-.2s.16-.15.21-.25.07-.22.09-.39.03-.38.03-.64v-6.13c0-.47,0-.8-.01-.98s-.03-.34-.06-.47-.08-.23-.13-.3-.13-.13-.23-.18-.27-.09-.52-.13v-.38l1.77-.07h.44v8.65Z"/>
    <path class="cls-12" d="m433.78,111.33c-.27.61-.53,1.1-.78,1.47s-.53.66-.84.85-.67.29-1.09.29c-.27,0-.57-.03-.91-.1v-1.45h.65c.06.2.13.34.22.42s.21.12.38.12c.15,0,.28-.03.39-.08s.23-.15.36-.29.27-.35.44-.63.36-.64.57-1.08l-2.05-5.52c-.13-.36-.24-.61-.32-.75s-.17-.25-.26-.32-.23-.13-.42-.18v-.36h2.98v.36c-.23.05-.39.11-.48.16s-.16.12-.21.2-.07.18-.07.31.02.27.05.41.08.31.15.5l1.3,3.67,1.46-3.52c.08-.2.15-.37.19-.54s.07-.32.07-.46c0-.21-.06-.37-.17-.48s-.31-.19-.6-.26v-.36h2.74v.36c-.19.04-.34.1-.44.18s-.21.21-.31.38-.22.42-.37.73l-2.65,5.95Z"/>
    <path class="cls-12" d="m445.31,104.46h-1.75v4.43c0,.33.02.57.05.74s.08.29.14.38.14.15.24.21.26.1.48.15v.36h-3v-.36c.21-.06.37-.11.46-.17s.17-.12.22-.21.09-.2.11-.36.04-.4.04-.74v-4.43h-.89v-.37c.19-.03.31-.05.37-.07s.12-.04.18-.08.1-.08.15-.15.08-.16.11-.28.06-.3.08-.52c.04-.53.14-.96.29-1.3s.37-.62.65-.85.59-.4.92-.49.71-.14,1.15-.14c.39,0,.71.03.98.08v1.33h-.73c-.09-.29-.2-.49-.33-.61s-.3-.18-.52-.18c-.16,0-.3.02-.41.07s-.21.11-.3.21-.17.22-.24.37-.11.35-.15.58-.05.53-.05.9v.77h1.75v.74Z"/>
    <path class="cls-12" d="m450.15,109.68l-.11-.03c-.42.43-.82.74-1.2.92s-.77.27-1.19.27c-.37,0-.7-.07-.98-.22s-.5-.35-.65-.61-.23-.56-.23-.9c0-.71.35-1.26,1.06-1.65s1.76-.61,3.17-.68v-.48c0-.51-.05-.91-.15-1.2s-.25-.51-.46-.64-.49-.21-.84-.21c-.38,0-.69.1-.92.3s-.41.5-.52.9h-.96v-.95c.47-.24.86-.42,1.17-.54s.62-.21.94-.27.63-.1.95-.1c.48,0,.87.08,1.16.23s.51.39.66.71.22.8.22,1.44v2.55c0,.36,0,.62,0,.77s.02.29.04.41.06.23.11.3.12.14.22.19.25.11.46.17v.36h-2.01l.04-1.05Zm-.12-2.29c-.99,0-1.73.14-2.23.4s-.74.64-.74,1.15c0,.28.06.5.17.66s.25.27.42.33.37.09.61.09c.33,0,.63-.08.9-.24s.48-.37.63-.62.23-.5.23-.74v-1.03Z"/>
    <path class="cls-12" d="m458.14,105.33h-.7c-.11-.29-.23-.52-.38-.69s-.31-.29-.5-.36-.41-.1-.68-.1c-.39,0-.7.09-.93.27s-.35.43-.35.75c0,.22.05.41.14.56s.24.28.43.41.54.3,1.03.51c.5.21.88.41,1.15.59s.48.39.64.63.23.52.23.86c0,.39-.07.71-.2.97s-.32.48-.56.64-.52.29-.85.36-.69.11-1.08.11c-.41,0-.81-.03-1.19-.09s-.76-.14-1.13-.24v-1.53h.72c.13.45.33.78.59.98s.62.3,1.07.3c.18,0,.35-.02.52-.05s.32-.1.45-.18.24-.2.31-.35.12-.33.12-.55c0-.25-.05-.45-.15-.61s-.25-.3-.45-.43-.57-.3-1.08-.52c-.44-.19-.8-.37-1.07-.54s-.48-.38-.63-.62-.23-.52-.23-.85c0-.4.11-.75.33-1.04s.53-.52.94-.68.89-.23,1.44-.23c.32,0,.63.02.93.05s.68.09,1.13.19v1.49Z"/>
    <path class="cls-12" d="m459.24,104.09c.24-.04.44-.11.59-.21s.27-.22.36-.38.15-.35.2-.58.1-.57.15-1.01h1.04v1.81h2.37v.74h-2.37v3.26c0,.47.02.85.06,1.13s.11.5.22.66.23.27.37.34.31.1.53.1c.2,0,.38-.04.55-.12s.34-.2.51-.35l.33.4c-.35.34-.67.58-.98.73s-.63.23-.96.23c-.63,0-1.1-.19-1.41-.56s-.46-.96-.46-1.75v-4.06h-1.08v-.37Z"/>
    <path class="cls-12" d="m470.48,109.48c-.31.33-.6.58-.86.77s-.55.33-.86.44-.66.16-1.03.16c-1.01,0-1.77-.3-2.28-.9s-.77-1.49-.77-2.67c0-.73.13-1.37.39-1.93s.63-.99,1.12-1.29,1.04-.45,1.67-.45c.49,0,.91.08,1.26.23s.62.37.83.64.37.61.48,1.03.18.95.19,1.61h-4.61v.13c0,.58.06,1.06.19,1.45s.34.7.64.92.68.33,1.15.33c.4,0,.76-.07,1.08-.22s.64-.39.96-.73l.45.48Zm-1.23-2.97c-.03-.53-.1-.96-.2-1.29s-.26-.59-.46-.77-.47-.27-.81-.27c-.5,0-.9.2-1.2.6s-.48.98-.53,1.72h3.2Z"/>
    <path class="cls-12" d="m473.92,104.94l.1.02c.27-.33.52-.58.75-.77s.48-.33.74-.44.57-.15.9-.15c.28,0,.54.01.77.04v1.68h-.83c-.12-.26-.24-.46-.37-.57s-.31-.18-.54-.18c-.18,0-.35.05-.52.15s-.34.25-.5.45-.27.38-.33.55-.09.37-.09.61v2.56c0,.44.03.75.08.92s.14.29.27.37.31.14.56.18v.36h-2.95v-.36c.19-.06.32-.11.4-.15s.15-.1.21-.18.1-.2.13-.36.04-.41.04-.75v-3.19c0-.31,0-.56-.01-.75s-.04-.34-.1-.46-.15-.2-.27-.26-.29-.1-.51-.14v-.38l1.71-.07h.45l-.08,1.28Z"/>
    <path class="cls-12" d="m478.25,109.03v1.7h-1.48v-1.7h1.48Z"/>
  </g>
  <text class="cls-26" transform="translate(112.24 277.91)"><tspan class="cls-4" x="0" y="0">T</tspan><tspan class="cls-6" x="7.68" y="0">o understand </tspan><tspan class="cls-14" x="96.28" y="0">C</tspan><tspan class="cls-15" x="104.88" y="0">r</tspan><tspan class="cls-14" x="111.58" y="0">oss</tspan><tspan class="cls-1" x="133.89" y="0">-</tspan><tspan class="cls-16" x="138.5" y="0">Shifts</tspan><tspan class="cls-6" x="177.12" y="0">, let’s b</tspan><tspan class="cls-2" x="221.24" y="0">r</tspan><tspan class="cls-6" x="227.23" y="0">eak one d</tspan><tspan class="cls-7" x="288.31" y="0">o</tspan><tspan class="cls-6" x="296.2" y="0">wn in</tspan><tspan class="cls-3" x="332.03" y="0">t</tspan><tspan class="cls-6" x="336.97" y="0">o parts:</tspan></text>
  <text class="cls-8" transform="translate(18.11 460.85)"><tspan x="0" y="0">No</tspan><tspan class="cls-22" x="18.17" y="0">t</tspan><tspan x="23.12" y="0">e the half</tspan><tspan class="cls-33" x="81.92" y="0">w</tspan><tspan class="cls-28" x="93.26" y="0">a</tspan><tspan x="100.29" y="0">y poin</tspan><tspan class="cls-32" x="140" y="0">t</tspan><tspan x="145.29" y="0">. One hand is in the cen</tspan><tspan class="cls-22" x="292.09" y="0">t</tspan><tspan x="297.03" y="0">er point and one is on a diagonal hand poin</tspan><tspan class="cls-32" x="572.23" y="0">t</tspan><tspan x="577.52" y="0">.</tspan><tspan class="cls-31" x="21.65" y="18">B</tspan><tspan x="30.67" y="18">y pausing at this half</tspan><tspan class="cls-33" x="162.37" y="18">w</tspan><tspan class="cls-28" x="173.71" y="18">a</tspan><tspan x="180.74" y="18">y poin</tspan><tspan class="cls-32" x="220.44" y="18">t</tspan><tspan x="225.74" y="18">, it ensu</tspan><tspan class="cls-18" x="275.08" y="18">r</tspan><tspan x="281.07" y="18">es that the dash m</tspan><tspan class="cls-18" x="397.31" y="18">o</tspan><tspan class="cls-28" x="405.05" y="18">v</tspan><tspan x="412.32" y="18">es at the cor</tspan><tspan class="cls-18" x="489.84" y="18">r</tspan><tspan x="495.82" y="18">ect speed.</tspan></text>
  <path d="m482.11,143.57c-.02.26-.14.59-.9.55s-3.92.04-4.37.07c0,.56.26,3.6.43,7.28.05,1.13-.44,1.27-.64,1.27-.34,0-.92-.43-1.03-1.14-.09-.66-.16-2.16-.23-3.74-.06-1.37-.12-2.79-.21-3.75l-.95.31.03-1.02c.04-.21.25-.46.39-.47s6.42-.22,6.78-.2.7.53.69.83Z"/>
  <path d="m356.39,143.51c-.02.26-.14.59-.9.55s-3.92.04-4.37.07c0,.56.26,3.6.43,7.28.05,1.13-.44,1.27-.64,1.27-.34,0-.92-.43-1.03-1.14-.09-.66-.16-2.16-.23-3.74-.06-1.37-.12-2.79-.21-3.75l-.95.31.03-1.02c.04-.21.25-.46.39-.47s6.42-.22,6.78-.2.7.53.69.83Z"/>
  <path d="m281.49,143.57c-.02.26-.14.59-.9.55s-3.92.04-4.37.07c0,.56.26,3.6.43,7.28.05,1.13-.44,1.27-.64,1.27-.34,0-.92-.43-1.03-1.14-.09-.66-.16-2.16-.23-3.74-.06-1.37-.12-2.79-.21-3.75l-.95.31.03-1.02c.04-.21.25-.46.39-.47s6.42-.22,6.78-.2.7.53.69.83Z"/>
  <path d="m156.39,143.51c-.02.26-.14.59-.9.55s-3.92.04-4.37.07c0,.56.26,3.6.43,7.28.05,1.13-.44,1.27-.64,1.27-.34,0-.92-.43-1.03-1.14-.09-.66-.16-2.16-.23-3.74-.06-1.37-.12-2.79-.21-3.75l-.95.31.03-1.02c.04-.21.25-.46.39-.47s6.42-.22,6.78-.2.7.53.69.83Z"/>
  <path class="cls-19" d="m457.89,191.26c-.9-1.23-4.61-4.45-4.61-4.45,0,0-3.75,3.26-4.66,4.51-.68.94.56,2.14.56,2.14l3.02-2.97-.19,29.84c0,1.51,2.12,1.5,2.13-.01l.19-29.84,2.98,2.93s1.26-1.21.59-2.14Z"/>
  <path class="cls-19" d="m372.62,207.81c1.23.9,4.45,4.61,4.45,4.61,0,0-3.26,3.75-4.51,4.66-.94.68-2.14-.56-2.14-.56l2.97-3.02-29.84.19c-1.51,0-1.5-2.12.01-2.13l29.84-.19-2.93-2.98s1.21-1.26,2.14-.59Z"/>
  <path class="cls-30" d="m268.63,194.26c.9-1.23,4.61-4.45,4.61-4.45,0,0,3.75,3.26,4.66,4.51.68.94-.56,2.14-.56,2.14l-3.02-2.97.19,29.84c0,1.51-2.12,1.5-2.13-.01l-.19-29.84-2.98,2.93s-1.26-1.21-.59-2.14Z"/>
  <path class="cls-19" d="m168.63,192.92c.9-1.23,4.61-4.45,4.61-4.45,0,0,3.75,3.26,4.66,4.51.68.94-.56,2.14-.56,2.14l-3.02-2.97.19,29.84c0,1.51-2.12,1.5-2.13-.01l-.19-29.84-2.98,2.93s-1.26-1.21-.59-2.14Z"/>
  <path class="cls-12" d="m454.7,146.69c-.18-.22-.39-.42-.59-.59,3.31-3.76-4.43-6.09-4.53-1.52-.01,2.17-.02,3.88-.02,6.06-.77-.24-1.63.26-1.76,1.1-.08,2.12,2.05,1.76,2.82.83.29-.35.4-.63.5-1.7,2.9,1.54,5.17-1.67,3.58-4.18Zm-1.25,2.91c-.87.68-1.26.01-1.87-.16-.13-.04-.28-.03-.42.03,0-1.73,0-3.44.02-5.2-.15-.97,1.24-1.29,1.85-.63.51.55.42,1.49-.19,1.71-1.99-.53-1.8,2.34,0,1.62.85.25,1.48,1.74.61,2.63Z"/>
  <path class="cls-12" d="m380.97,146.69c-.18-.22-.39-.42-.59-.59,3.31-3.76-4.43-6.09-4.53-1.52-.01,2.17-.02,3.88-.02,6.06-.77-.24-1.63.26-1.76,1.1-.08,2.12,2.05,1.76,2.82.83.29-.35.4-.63.5-1.7,2.9,1.54,5.17-1.67,3.58-4.18Zm-1.25,2.91c-.87.68-1.26.01-1.87-.16-.13-.04-.28-.03-.42.03,0-1.73,0-3.44.02-5.2-.15-.97,1.24-1.29,1.85-.63.51.55.42,1.49-.19,1.71-1.99-.53-1.8,2.34,0,1.62.85.25,1.48,1.74.61,2.63Z"/>
  <path class="cls-12" d="m183.19,148.9c-.65,0-.94.25-1.28.66-.17.19-.39,1.18-.75.55-.75-1.29.02-4.57,1.06-6.02.28-.37-.11-.59-.3-.7,0,0-.42-.22-.64-.14-.29.1-.6-.12-1.39,1.64-1.19-1.37-2.58-1.19-3.53-1.15-.84.04-3.37.97-3.37,3.93,0,3.55,3.05,4.21,3.97,4.21s2.48-.6,2.88-.96c.24.72.67,1.16,1.21,1.27.84.18,1.21-.24,1.55-.71.49-.67,1.06-2.57.59-2.58Zm-6.23,1c-1.22,0-2.22-1.01-2.22-2.23s1-2.22,2.22-2.22,2.23,1.01,2.23,2.22-1.01,2.23-2.23,2.23Z"/>
  <path class="cls-12" d="m254.55,148.9c-.65,0-.94.25-1.28.66-.17.19-.39,1.18-.75.55-.75-1.29.02-4.57,1.06-6.02.28-.37-.11-.59-.3-.7,0,0-.42-.22-.64-.14-.29.1-.6-.12-1.39,1.64-1.19-1.37-2.58-1.19-3.53-1.15-.84.04-3.37.97-3.37,3.93,0,3.55,3.05,4.21,3.97,4.21s2.48-.6,2.88-.96c.24.72.67,1.16,1.21,1.27.84.18,1.21-.24,1.55-.71.49-.67,1.06-2.57.59-2.58Zm-6.23,1c-1.22,0-2.22-1.01-2.22-2.23s1-2.22,2.22-2.22,2.23,1.01,2.23,2.22-1.01,2.23-2.23,2.23Z"/>
  <g>
    <path class="cls-12" d="m464.95,205.63c1.93,0,1.93-3,0-3s-1.93,3,0,3h0Z"/>
    <circle class="cls-12" cx="500.95" cy="204.13" r="3"/>
    <circle class="cls-12" cx="464.95" cy="240.13" r="3"/>
    <circle class="cls-12" cx="428.95" cy="204.13" r="3"/>
    <circle class="cls-12" cx="464.95" cy="168.13" r="3"/>
  </g>
  <path class="cls-19" d="m462.18,186.39h.35s0-.07,0-.1c0-1.1,0-2.19,0-3.29,0-.29.16-.51.42-.59.39-.12.76.17.76.59,0,.94,0,1.89,0,2.83,0,.18,0,.37,0,.56h.35s0-.06,0-.09c0-1.34,0-2.69,0-4.03,0-.35.25-.61.59-.61.34,0,.59.26.59.61,0,1.34,0,2.68,0,4.02,0,.03,0,.06,0,.1h.35v-.09c0-1.07,0-2.13,0-3.2,0-.32.21-.55.52-.6.32-.05.65.22.65.55,0,.41,0,.81,0,1.22,0,1.35,0,2.7,0,4.05,0,.08.02.16.1.2.09.05.18.02.24-.08.23-.38.45-.77.68-1.15.17-.3.47-.4.78-.26.32.13.44.5.25.82-.31.53-.62,1.07-.93,1.6-.23.39-.45.79-.69,1.17-.08.13-.19.24-.3.35-.45.44-.96.81-1.55,1.05-.53.22-1.08.32-1.65.27-1.04-.1-1.8-.61-2.29-1.52-.22-.42-.34-.86-.38-1.33-.02-.22-.03-.44-.03-.66,0-1.47,0-2.95,0-4.42,0-.35.27-.61.6-.6.32,0,.57.26.57.57,0,.67,0,1.34,0,2.01v.09Z"/>
  <path class="cls-30" d="m484.89,203.56h-.35s0-.07,0-.1c0-1.1,0-2.19,0-3.29,0-.29-.16-.51-.42-.59-.39-.12-.76.17-.76.59,0,.94,0,1.89,0,2.83,0,.18,0,.37,0,.56h-.35s0-.06,0-.09c0-1.34,0-2.69,0-4.03,0-.35-.25-.61-.59-.61-.34,0-.59.26-.59.61,0,1.34,0,2.68,0,4.02,0,.03,0,.06,0,.1h-.35v-.09c0-1.07,0-2.13,0-3.2,0-.32-.21-.55-.52-.6-.32-.05-.65.22-.65.55,0,.41,0,.81,0,1.22,0,1.35,0,2.7,0,4.05,0,.08-.02.16-.1.2-.09.05-.18.02-.24-.08-.23-.38-.45-.77-.68-1.15-.17-.3-.47-.4-.78-.26-.32.13-.44.5-.25.82.31.53.62,1.07.93,1.6.23.39.45.79.69,1.17.08.13.19.24.3.35.45.44.96.81,1.55,1.05.53.22,1.08.32,1.65.27,1.04-.1,1.8-.61,2.29-1.52.22-.42.34-.86.38-1.33.02-.22.03-.44.03-.66,0-1.47,0-2.95,0-4.42,0-.35-.27-.61-.6-.6-.32,0-.57.26-.57.57,0,.67,0,1.34,0,2.01v.09Z"/>
  <g>
    <path class="cls-12" d="m364.95,205.63c1.93,0,1.93-3,0-3s-1.93,3,0,3h0Z"/>
    <circle class="cls-12" cx="400.95" cy="204.13" r="3"/>
    <circle class="cls-12" cx="364.95" cy="240.13" r="3"/>
    <circle class="cls-12" cx="328.95" cy="204.13" r="3"/>
    <circle class="cls-12" cx="364.95" cy="168.13" r="3"/>
  </g>
  <g>
    <path class="cls-12" d="m264.95,205.63c1.93,0,1.93-3,0-3s-1.93,3,0,3h0Z"/>
    <circle class="cls-12" cx="264.95" cy="168.13" r="3"/>
    <circle class="cls-12" cx="300.95" cy="204.13" r="3"/>
    <circle class="cls-12" cx="264.95" cy="240.13" r="3"/>
    <circle class="cls-12" cx="228.95" cy="204.13" r="3"/>
  </g>
  <path class="cls-19" d="m279.35,203.56h.35s0-.07,0-.1c0-1.1,0-2.19,0-3.29,0-.29.16-.51.42-.59.39-.12.76.17.76.59,0,.94,0,1.89,0,2.83,0,.18,0,.37,0,.56h.35s0-.06,0-.09c0-1.34,0-2.69,0-4.03,0-.35.25-.61.59-.61.34,0,.59.26.59.61,0,1.34,0,2.68,0,4.02,0,.03,0,.06,0,.1h.35v-.09c0-1.07,0-2.13,0-3.2,0-.32.21-.55.52-.6.32-.05.65.22.65.55,0,.41,0,.81,0,1.22,0,1.35,0,2.7,0,4.05,0,.08.02.16.1.2.09.05.18.02.24-.08.23-.38.45-.77.68-1.15.17-.3.47-.4.78-.26.32.13.44.5.25.82-.31.53-.62,1.07-.93,1.6-.23.39-.45.79-.69,1.17-.08.13-.19.24-.3.35-.45.44-.96.81-1.55,1.05-.53.22-1.08.32-1.65.27-1.04-.1-1.8-.61-2.29-1.52-.22-.42-.34-.86-.38-1.33-.02-.22-.03-.44-.03-.66,0-1.47,0-2.95,0-4.42,0-.35.27-.61.6-.6.32,0,.57.26.57.57,0,.67,0,1.34,0,2.01v.09Z"/>
  <g>
    <path class="cls-12" d="m164.95,205.63c1.93,0,1.93-3,0-3s-1.93,3,0,3h0Z"/>
    <path class="cls-12" d="m147.78,188.16c1.54,0,1.54-2.39,0-2.39-1.54,0-1.54,2.39,0,2.39h0Z"/>
    <path class="cls-12" d="m147.78,222.5c1.54,0,1.54-2.39,0-2.39s-1.54,2.39,0,2.39h0Z"/>
    <path class="cls-12" d="m148.98,221.3c0-1.54-2.39-1.54-2.39,0,0,1.54,2.39,1.54,2.39,0h0Z"/>
    <path class="cls-12" d="m182.12,185.77c-1.54,0-1.54,2.39,0,2.39s1.54-2.39,0-2.39h0Z"/>
    <path class="cls-12" d="m180.92,186.96c0,1.54,2.39,1.54,2.39,0,0-1.54-2.39-1.54-2.39,0h0Z"/>
    <path class="cls-12" d="m146.58,186.96c0,1.54,2.39,1.54,2.39,0,0-1.54-2.39-1.54-2.39,0h0Z"/>
    <circle class="cls-12" cx="164.95" cy="168.13" r="3"/>
    <circle class="cls-12" cx="200.95" cy="204.13" r="3"/>
    <circle class="cls-12" cx="164.95" cy="240.13" r="3"/>
    <circle class="cls-12" cx="128.95" cy="204.13" r="3"/>
  </g>
  <g>
    <path class="cls-19" d="m378.24,203.56h.35s0-.07,0-.1c0-1.1,0-2.19,0-3.29,0-.29.16-.51.42-.59.39-.12.76.17.76.59,0,.94,0,1.89,0,2.83,0,.18,0,.37,0,.56h.35s0-.06,0-.09c0-1.34,0-2.69,0-4.03,0-.35.25-.61.59-.61.34,0,.59.26.59.61,0,1.34,0,2.68,0,4.02,0,.03,0,.06,0,.1h.35v-.09c0-1.07,0-2.13,0-3.2,0-.32.21-.55.52-.6.32-.05.65.22.65.55,0,.41,0,.81,0,1.22,0,1.35,0,2.7,0,4.05,0,.08.02.16.1.2.09.05.18.02.24-.08.23-.38.45-.77.68-1.15.17-.3.47-.4.78-.26.32.13.44.5.25.82-.31.53-.62,1.07-.93,1.6-.23.39-.45.79-.69,1.17-.08.13-.19.24-.3.35-.45.44-.96.81-1.55,1.05-.53.22-1.08.32-1.65.27-1.04-.1-1.8-.61-2.29-1.52-.22-.42-.34-.86-.38-1.33-.02-.22-.03-.44-.03-.66,0-1.47,0-2.95,0-4.42,0-.35.27-.61.6-.6.32,0,.57.26.57.57,0,.67,0,1.34,0,2.01v.09Z"/>
    <path class="cls-30" d="m386,203.56h-.35s0-.07,0-.1c0-1.1,0-2.19,0-3.29,0-.29-.16-.51-.42-.59-.39-.12-.76.17-.76.59,0,.94,0,1.89,0,2.83,0,.18,0,.37,0,.56h-.35s0-.06,0-.09c0-1.34,0-2.69,0-4.03,0-.35-.25-.61-.59-.61-.34,0-.59.26-.59.61,0,1.34,0,2.68,0,4.02,0,.03,0,.06,0,.1h-.35v-.09c0-1.07,0-2.13,0-3.2,0-.32-.21-.55-.52-.6-.32-.05-.65.22-.65.55,0,.41,0,.81,0,1.22,0,1.35,0,2.7,0,4.05,0,.08-.02.16-.1.2-.09.05-.18.02-.24-.08-.23-.38-.45-.77-.68-1.15-.17-.3-.47-.4-.78-.26-.32.13-.44.5-.25.82.31.53.62,1.07.93,1.6.23.39.45.79.69,1.17.08.13.19.24.3.35.45.44.96.81,1.55,1.05.53.22,1.08.32,1.65.27,1.04-.1,1.8-.61,2.29-1.52.22-.42.34-.86.38-1.33.02-.22.03-.44.03-.66,0-1.47,0-2.95,0-4.42,0-.35-.27-.61-.6-.6-.32,0-.57.26-.57.57,0,.67,0,1.34,0,2.01v.09Z"/>
  </g>
  <path class="cls-30" d="m494.62,215.48c.24-1.5-.11-6.4-.11-6.4,0,0-4.96-.35-6.48-.11-1.15.18-1.12,1.91-1.12,1.91l4.24.03-21.24,20.97c-1.08,1.06.44,2.56,1.52,1.5l21.24-20.97.03,4.18s1.74.03,1.93-1.1Z"/>
  <path class="cls-30" d="m394.62,192.79c.24,1.5-.11,6.4-.11,6.4,0,0-4.96.35-6.48.11-1.15-.18-1.12-1.91-1.12-1.91l4.24-.03-21.24-20.97c-1.08-1.06.44-2.56,1.52-1.5l21.24,20.97.03-4.18s1.74-.03,1.93,1.1Z"/>
  <path class="cls-19" d="m292.66,195.87l.03-4.18s1.74-.03,1.93,1.1c.24,1.5-.11,6.4-.11,6.4,0,0-4.96.35-6.48.11-1.15-.18-1.12-1.91-1.12-1.91l4.24-.03-21.24-20.97c-1.08-1.06.44-2.56,1.52-1.5"/>
  <path class="cls-30" d="m176.29,233.8c-1.5.24-6.4-.11-6.4-.11,0,0-.35-4.96-.11-6.48.18-1.15,1.91-1.12,1.91-1.12l.03,4.24,20.97-21.24c1.06-1.08,2.56.44,1.5,1.52l-20.97,21.24,4.18.03s.03,1.74-1.1,1.93Z"/>
  <text/>
  <path class="cls-30" d="m267.72,186.39h-.35s0-.07,0-.1c0-1.1,0-2.19,0-3.29,0-.29-.16-.51-.42-.59-.39-.12-.76.17-.76.59,0,.94,0,1.89,0,2.83,0,.18,0,.37,0,.56h-.35s0-.06,0-.09c0-1.34,0-2.69,0-4.03,0-.35-.25-.61-.59-.61-.34,0-.59.26-.59.61,0,1.34,0,2.68,0,4.02,0,.03,0,.06,0,.1h-.35v-.09c0-1.07,0-2.13,0-3.2,0-.32-.21-.55-.52-.6-.32-.05-.65.22-.65.55,0,.41,0,.81,0,1.22,0,1.35,0,2.7,0,4.05,0,.08-.02.16-.1.2-.09.05-.18.02-.24-.08-.23-.38-.45-.77-.68-1.15-.17-.3-.47-.4-.78-.26-.32.13-.44.5-.25.82.31.53.62,1.07.93,1.6.23.39.45.79.69,1.17.08.13.19.24.3.35.45.44.96.81,1.55,1.05.53.22,1.08.32,1.65.27,1.04-.1,1.8-.61,2.29-1.52.22-.42.34-.86.38-1.33.02-.22.03-.44.03-.66,0-1.47,0-2.95,0-4.42,0-.35-.27-.61-.6-.6-.32,0-.57.26-.57.57,0,.67,0,1.34,0,2.01v.09Z"/>
  <path class="cls-19" d="m162.18,186.39h.35s0-.07,0-.1c0-1.1,0-2.19,0-3.29,0-.29.16-.51.42-.59.39-.12.76.17.76.59,0,.94,0,1.89,0,2.83,0,.18,0,.37,0,.56h.35s0-.06,0-.09c0-1.34,0-2.69,0-4.03,0-.35.25-.61.59-.61.34,0,.59.26.59.61,0,1.34,0,2.68,0,4.02,0,.03,0,.06,0,.1h.35v-.09c0-1.07,0-2.13,0-3.2,0-.32.21-.55.52-.6.32-.05.65.22.65.55,0,.41,0,.81,0,1.22,0,1.35,0,2.7,0,4.05,0,.08.02.16.1.2.09.05.18.02.24-.08.23-.38.45-.77.68-1.15.17-.3.47-.4.78-.26.32.13.44.5.25.82-.31.53-.62,1.07-.93,1.6-.23.39-.45.79-.69,1.17-.08.13-.19.24-.3.35-.45.44-.96.81-1.55,1.05-.53.22-1.08.32-1.65.27-1.04-.1-1.8-.61-2.29-1.52-.22-.42-.34-.86-.38-1.33-.02-.22-.03-.44-.03-.66,0-1.47,0-2.95,0-4.42,0-.35.27-.61.6-.6.32,0,.57.26.57.57,0,.67,0,1.34,0,2.01v.09Z"/>
  <path class="cls-30" d="m167.72,220.73h-.35s0-.07,0-.1c0-1.1,0-2.19,0-3.29,0-.29-.16-.51-.42-.59-.39-.12-.76.17-.76.59,0,.94,0,1.89,0,2.83,0,.18,0,.37,0,.56h-.35s0-.06,0-.09c0-1.34,0-2.69,0-4.03,0-.35-.25-.61-.59-.61-.34,0-.59.26-.59.61,0,1.34,0,2.68,0,4.02,0,.03,0,.06,0,.1h-.35v-.09c0-1.07,0-2.13,0-3.2,0-.32-.21-.55-.52-.6-.32-.05-.65.22-.65.55,0,.41,0,.81,0,1.22,0,1.35,0,2.7,0,4.05,0,.08-.02.16-.1.2-.09.05-.18.02-.24-.08-.23-.38-.45-.77-.68-1.15-.17-.3-.47-.4-.78-.26-.32.13-.44.5-.25.82.31.53.62,1.07.93,1.6.23.39.45.79.69,1.17.08.13.19.24.3.35.45.44.96.81,1.55,1.05.53.22,1.08.32,1.65.27,1.04-.1,1.8-.61,2.29-1.52.22-.42.34-.86.38-1.33.02-.22.03-.44.03-.66,0-1.47,0-2.95,0-4.42,0-.35-.27-.61-.6-.6-.32,0-.57.26-.57.57,0,.67,0,1.34,0,2.01v.09Z"/>
  <path class="cls-12" d="m157.48,146.97h10.69l-1.95-2.21.87-.83,3.45,3.32v.97l-3.45,3.32-.87-.83,1.95-2.21h-10.69v-1.52Z"/>
  <path class="cls-12" d="m357.48,146.97h10.69l-1.95-2.21.87-.83,3.45,3.32v.97l-3.45,3.32-.87-.83,1.95-2.21h-10.69v-1.52Z"/>
  <path class="cls-12" d="m257.48,146.97h10.69l-1.95-2.21.87-.83,3.45,3.32v.97l-3.45,3.32-.87-.83,1.95-2.21h-10.69v-1.52Z"/>
  <path class="cls-12" d="m458.1,146.97h10.69l-1.95-2.21.87-.83,3.45,3.32v.97l-3.45,3.32-.87-.83,1.95-2.21h-10.69v-1.52Z"/>
  <g>
    <path class="cls-19" d="m122.79,387.09h.35s0-.07,0-.1c0-1.1,0-2.19,0-3.29,0-.29.16-.51.42-.59.39-.12.76.17.76.59,0,.94,0,1.89,0,2.83,0,.18,0,.37,0,.56h.35s0-.06,0-.09c0-1.34,0-2.69,0-4.03,0-.35.25-.61.59-.61.34,0,.59.26.59.61,0,1.34,0,2.68,0,4.02,0,.03,0,.06,0,.1h.35v-.09c0-1.07,0-2.13,0-3.2,0-.32.21-.55.52-.6.32-.05.65.22.65.55,0,.41,0,.81,0,1.22,0,1.35,0,2.7,0,4.05,0,.08.02.16.1.2.09.05.18.02.24-.08.23-.38.45-.77.68-1.15.17-.3.47-.4.78-.26.32.13.44.5.25.82-.31.53-.62,1.07-.93,1.6-.23.39-.45.79-.69,1.17-.08.13-.19.24-.3.35-.45.44-.96.81-1.55,1.05-.53.22-1.08.32-1.65.27-1.04-.1-1.8-.61-2.29-1.52-.22-.42-.34-.86-.38-1.33-.02-.22-.03-.44-.03-.66,0-1.47,0-2.95,0-4.42,0-.35.27-.61.6-.6.32,0,.57.26.57.57,0,.67,0,1.34,0,2.01v.09Z"/>
    <path class="cls-30" d="m255.91,389.1c1.5-.24,6.4.11,6.4.11,0,0,.35,4.96.11,6.48-.18,1.15-1.91,1.12-1.91,1.12l-.03-4.24-9.48,9.74c-1.06,1.08-2.56-.44-1.5-1.52l9.48-9.74-4.18-.03s-.03-1.74,1.1-1.93Z"/>
    <path class="cls-19" d="m232.17,374.93c.9-1.23,4.61-4.45,4.61-4.45,0,0,3.75,3.26,4.66,4.51.68.94-.56,2.14-.56,2.14l-3.02-2.97.19,13.59c0,1.51-2.12,1.5-2.13-.01l-.19-13.59-2.98,2.93s-1.26-1.21-.59-2.14Z"/>
    <path class="cls-19" d="m351.87,356.55c.9-1.23,4.61-4.45,4.61-4.45,0,0,3.75,3.26,4.66,4.51.68.94-.56,2.14-.56,2.14l-3.02-2.97.19,13.59c0,1.51-2.12,1.5-2.13-.01l-.19-13.59-2.98,2.93s-1.26-1.21-.59-2.14Z"/>
    <path class="cls-30" d="m390.49,374.53c1.5-.24,6.4.11,6.4.11,0,0,.35,4.96.11,6.48-.18,1.15-1.91,1.12-1.91,1.12l-.03-4.24-9.48,9.74c-1.06,1.08-2.56-.44-1.5-1.52l9.48-9.74-4.18-.03s-.03-1.74,1.1-1.93Z"/>
    <path class="cls-12" d="m130.03,418.62c-.18-.22-.39-.42-.59-.59,3.31-3.76-4.43-6.09-4.53-1.52-.01,2.17-.02,3.88-.02,6.06-.77-.24-1.63.26-1.76,1.1-.08,2.12,2.05,1.76,2.82.83.29-.35.4-.63.5-1.7,2.9,1.54,5.17-1.67,3.58-4.18Zm-1.25,2.91c-.87.68-1.26.01-1.87-.16-.13-.04-.28-.03-.42.03,0-1.73,0-3.44.02-5.2-.15-.97,1.24-1.29,1.85-.63.51.55.42,1.49-.19,1.71-1.99-.53-1.8,2.34,0,1.62.85.25,1.48,1.74.61,2.63Z"/>
    <path class="cls-30" d="m130.81,387.09h-.35s0-.07,0-.1c0-1.1,0-2.19,0-3.29,0-.29-.16-.51-.42-.59-.39-.12-.76.17-.76.59,0,.94,0,1.89,0,2.83,0,.18,0,.37,0,.56h-.35s0-.06,0-.09c0-1.34,0-2.69,0-4.03,0-.35-.25-.61-.59-.61-.34,0-.59.26-.59.61,0,1.34,0,2.68,0,4.02,0,.03,0,.06,0,.1h-.35v-.09c0-1.07,0-2.13,0-3.2,0-.32-.21-.55-.52-.6-.32-.05-.65.22-.65.55,0,.41,0,.81,0,1.22,0,1.35,0,2.7,0,4.05,0,.08-.02.16-.1.2-.09.05-.18.02-.24-.08-.23-.38-.45-.77-.68-1.15-.17-.3-.47-.4-.78-.26-.32.13-.44.5-.25.82.31.53.62,1.07.93,1.6.23.39.45.79.69,1.17.08.13.19.24.3.35.45.44.96.81,1.55,1.05.53.22,1.08.32,1.65.27,1.04-.1,1.8-.61,2.29-1.52.22-.42.34-.86.38-1.33.02-.22.03-.44.03-.66,0-1.47,0-2.95,0-4.42,0-.35-.27-.61-.6-.6-.32,0-.57.26-.57.57,0,.67,0,1.34,0,2.01v.09Z"/>
    <path class="cls-30" d="m261.74,381.57h-.35s0-.07,0-.1c0-1.1,0-2.19,0-3.29,0-.29-.16-.51-.42-.59-.39-.12-.76.17-.76.59,0,.94,0,1.89,0,2.83,0,.18,0,.37,0,.56h-.35s0-.06,0-.09c0-1.34,0-2.69,0-4.03,0-.35-.25-.61-.59-.61-.34,0-.59.26-.59.61,0,1.34,0,2.68,0,4.02,0,.03,0,.06,0,.1h-.35v-.09c0-1.07,0-2.13,0-3.2,0-.32-.21-.55-.52-.6-.32-.05-.65.22-.65.55,0,.41,0,.81,0,1.22,0,1.35,0,2.7,0,4.05,0,.08-.02.16-.1.2-.09.05-.18.02-.24-.08-.23-.38-.45-.77-.68-1.15-.17-.3-.47-.4-.78-.26-.32.13-.44.5-.25.82.31.53.62,1.07.93,1.6.23.39.45.79.69,1.17.08.13.19.24.3.35.45.44.96.81,1.55,1.05.53.22,1.08.32,1.65.27,1.04-.1,1.8-.61,2.29-1.52.22-.42.34-.86.38-1.33.02-.22.03-.44.03-.66,0-1.47,0-2.95,0-4.42,0-.35-.27-.61-.6-.6-.32,0-.57.26-.57.57,0,.67,0,1.34,0,2.01v.09Z"/>
    <path class="cls-19" d="m364.12,352.75h.35s0-.07,0-.1c0-1.1,0-2.19,0-3.29,0-.29.16-.51.42-.59.39-.12.76.17.76.59,0,.94,0,1.89,0,2.83,0,.18,0,.37,0,.56h.35s0-.06,0-.09c0-1.34,0-2.69,0-4.03,0-.35.25-.61.59-.61.34,0,.59.26.59.61,0,1.34,0,2.68,0,4.02,0,.03,0,.06,0,.1h.35v-.09c0-1.07,0-2.13,0-3.2,0-.32.21-.55.52-.6.32-.05.65.22.65.55,0,.41,0,.81,0,1.22,0,1.35,0,2.7,0,4.05,0,.08.02.16.1.2.09.05.18.02.24-.08.23-.38.45-.77.68-1.15.17-.3.47-.4.78-.26.32.13.44.5.25.82-.31.53-.62,1.07-.93,1.6-.23.39-.45.79-.69,1.17-.08.13-.19.24-.3.35-.45.44-.96.81-1.55,1.05-.53.22-1.08.32-1.65.27-1.04-.1-1.8-.61-2.29-1.52-.22-.42-.34-.86-.38-1.33-.02-.22-.03-.44-.03-.66,0-1.47,0-2.95,0-4.42,0-.35.27-.61.6-.6.32,0,.57.26.57.57,0,.67,0,1.34,0,2.01v.09Z"/>
    <path class="cls-30" d="m513.43,376.93l-4.18-.03s-.03-1.74,1.1-1.93c1.5-.24,6.4.11,6.4.11,0,0,.35,4.96.11,6.48-.18,1.15-1.91,1.12-1.91,1.12l-.03-4.24-20.97,21.24c-1.06,1.08-2.56-.44-1.5-1.52"/>
    <path class="cls-19" d="m475.71,356.83l-2.98,2.93s-1.26-1.21-.59-2.14c.9-1.23,4.61-4.45,4.61-4.45,0,0,3.75,3.26,4.66,4.51.68.94-.56,2.14-.56,2.14l-3.02-2.97.19,29.84c0,1.51-2.12,1.5-2.13-.01"/>
    <path class="cls-12" d="m420.71,368.9v-2.8h12.65v2.8h-12.65Zm0,5.98v-2.8h12.65v2.8h-12.65Z"/>
    <text class="cls-10" transform="translate(110.86 317.72)"><tspan x="0" y="0">s</tspan><tspan class="cls-27" x="6.11" y="0">t</tspan><tspan x="11.52" y="0">art</tspan></text>
    <text class="cls-10" transform="translate(219.79 317.72)"><tspan x="0" y="0">hal</tspan><tspan class="cls-17" x="21.16" y="0">f</tspan><tspan class="cls-24" x="26.16" y="0">wa</tspan><tspan x="46.05" y="0">y</tspan></text>
    <text class="cls-10" transform="translate(354.02 317.72)"><tspan x="0" y="0">end</tspan></text>
    <g>
      <path class="cls-12" d="m126.89,371.99c1.93,0,1.93-3,0-3s-1.93,3,0,3h0Z"/>
      <circle class="cls-12" cx="162.89" cy="370.49" r="3"/>
      <circle class="cls-12" cx="126.89" cy="406.49" r="3"/>
      <circle class="cls-12" cx="90.89" cy="370.49" r="3"/>
      <circle class="cls-12" cx="126.89" cy="334.49" r="3"/>
    </g>
    <g>
      <path class="cls-12" d="m246.89,371.99c1.93,0,1.93-3,0-3s-1.93,3,0,3h0Z"/>
      <circle class="cls-12" cx="282.89" cy="370.49" r="3"/>
      <circle class="cls-12" cx="246.89" cy="406.49" r="3"/>
      <circle class="cls-12" cx="210.89" cy="370.49" r="3"/>
      <circle class="cls-12" cx="246.89" cy="334.49" r="3"/>
    </g>
    <g>
      <path class="cls-12" d="m366.89,371.99c1.93,0,1.93-3,0-3s-1.93,3,0,3h0Z"/>
      <circle class="cls-12" cx="402.89" cy="370.49" r="3"/>
      <circle class="cls-12" cx="366.89" cy="406.49" r="3"/>
      <circle class="cls-12" cx="330.89" cy="370.49" r="3"/>
      <circle class="cls-12" cx="366.89" cy="334.49" r="3"/>
    </g>
    <g>
      <path class="cls-12" d="m486.89,371.99c1.93,0,1.93-3,0-3s-1.93,3,0,3h0Z"/>
      <circle class="cls-12" cx="522.89" cy="370.49" r="3"/>
      <circle class="cls-12" cx="486.89" cy="406.49" r="3"/>
      <circle class="cls-12" cx="450.89" cy="370.49" r="3"/>
      <circle class="cls-12" cx="486.89" cy="334.49" r="3"/>
    </g>
    <path class="cls-19" d="m243.71,369.91h.35s0-.07,0-.1c0-1.1,0-2.19,0-3.29,0-.29.16-.51.42-.59.39-.12.76.17.76.59,0,.94,0,1.89,0,2.83,0,.18,0,.37,0,.56h.35s0-.06,0-.09c0-1.34,0-2.69,0-4.03,0-.35.25-.61.59-.61.34,0,.59.26.59.61,0,1.34,0,2.68,0,4.02,0,.03,0,.06,0,.1h.35v-.09c0-1.07,0-2.13,0-3.2,0-.32.21-.55.52-.6.32-.05.65.22.65.55,0,.41,0,.81,0,1.22,0,1.35,0,2.7,0,4.05,0,.08.02.16.1.2.09.05.18.02.24-.08.23-.38.45-.77.68-1.15.17-.3.47-.4.78-.26.32.13.44.5.25.82-.31.53-.62,1.07-.93,1.6-.23.39-.45.79-.69,1.17-.08.13-.19.24-.3.35-.45.44-.96.81-1.55,1.05-.53.22-1.08.32-1.65.27-1.04-.1-1.8-.61-2.29-1.52-.22-.42-.34-.86-.38-1.33-.02-.22-.03-.44-.03-.66,0-1.47,0-2.95,0-4.42,0-.35.27-.61.6-.6.32,0,.57.26.57.57,0,.67,0,1.34,0,2.01v.09Z"/>
    <path class="cls-30" d="m506.84,369.92h-.35s0-.07,0-.1c0-1.1,0-2.19,0-3.29,0-.29-.16-.51-.42-.59-.39-.12-.76.17-.76.59,0,.94,0,1.89,0,2.83,0,.18,0,.37,0,.56h-.35s0-.06,0-.09c0-1.34,0-2.69,0-4.03,0-.35-.25-.61-.59-.61-.34,0-.59.26-.59.61,0,1.34,0,2.68,0,4.02,0,.03,0,.06,0,.1h-.35v-.09c0-1.07,0-2.13,0-3.2,0-.32-.21-.55-.52-.6-.32-.05-.65.22-.65.55,0,.41,0,.81,0,1.22,0,1.35,0,2.7,0,4.05,0,.08-.02.16-.1.2-.09.05-.18.02-.24-.08-.23-.38-.45-.77-.68-1.15-.17-.3-.47-.4-.78-.26-.32.13-.44.5-.25.82.31.53.62,1.07.93,1.6.23.39.45.79.69,1.17.08.13.19.24.3.35.45.44.96.81,1.55,1.05.53.22,1.08.32,1.65.27,1.04-.1,1.8-.61,2.29-1.52.22-.42.34-.86.38-1.33.02-.22.03-.44.03-.66,0-1.47,0-2.95,0-4.42,0-.35-.27-.61-.6-.6-.32,0-.57.26-.57.57,0,.67,0,1.34,0,2.01v.09Z"/>
    <path class="cls-19" d="m484.12,352.75h.35s0-.07,0-.1c0-1.1,0-2.19,0-3.29,0-.29.16-.51.42-.59.39-.12.76.17.76.59,0,.94,0,1.89,0,2.83,0,.18,0,.37,0,.56h.35s0-.06,0-.09c0-1.34,0-2.69,0-4.03,0-.35.25-.61.59-.61.34,0,.59.26.59.61,0,1.34,0,2.68,0,4.02,0,.03,0,.06,0,.1h.35v-.09c0-1.07,0-2.13,0-3.2,0-.32.21-.55.52-.6.32-.05.65.22.65.55,0,.41,0,.81,0,1.22,0,1.35,0,2.7,0,4.05,0,.08.02.16.1.2.09.05.18.02.24-.08.23-.38.45-.77.68-1.15.17-.3.47-.4.78-.26.32.13.44.5.25.82-.31.53-.62,1.07-.93,1.6-.23.39-.45.79-.69,1.17-.08.13-.19.24-.3.35-.45.44-.96.81-1.55,1.05-.53.22-1.08.32-1.65.27-1.04-.1-1.8-.61-2.29-1.52-.22-.42-.34-.86-.38-1.33-.02-.22-.03-.44-.03-.66,0-1.47,0-2.95,0-4.42,0-.35.27-.61.6-.6.32,0,.57.26.57.57,0,.67,0,1.34,0,2.01v.09Z"/>
    <path class="cls-30" d="m386.84,369.92h-.35s0-.07,0-.1c0-1.1,0-2.19,0-3.29,0-.29-.16-.51-.42-.59-.39-.12-.76.17-.76.59,0,.94,0,1.89,0,2.83,0,.18,0,.37,0,.56h-.35s0-.06,0-.09c0-1.34,0-2.69,0-4.03,0-.35-.25-.61-.59-.61-.34,0-.59.26-.59.61,0,1.34,0,2.68,0,4.02,0,.03,0,.06,0,.1h-.35v-.09c0-1.07,0-2.13,0-3.2,0-.32-.21-.55-.52-.6-.32-.05-.65.22-.65.55,0,.41,0,.81,0,1.22,0,1.35,0,2.7,0,4.05,0,.08-.02.16-.1.2-.09.05-.18.02-.24-.08-.23-.38-.45-.77-.68-1.15-.17-.3-.47-.4-.78-.26-.32.13-.44.5-.25.82.31.53.62,1.07.93,1.6.23.39.45.79.69,1.17.08.13.19.24.3.35.45.44.96.81,1.55,1.05.53.22,1.08.32,1.65.27,1.04-.1,1.8-.61,2.29-1.52.22-.42.34-.86.38-1.33.02-.22.03-.44.03-.66,0-1.47,0-2.95,0-4.42,0-.35-.27-.61-.6-.6-.32,0-.57.26-.57.57,0,.67,0,1.34,0,2.01v.09Z"/>
    <polygon class="cls-12" points="174.8 369.41 192.74 369.41 192.74 365.61 198.99 370.49 192.74 375.38 192.74 371.58 174.8 371.58 174.8 369.41"/>
    <polygon class="cls-12" points="294.8 369.41 312.74 369.41 312.74 365.61 318.99 370.49 312.74 375.38 312.74 371.58 294.8 371.58 294.8 369.41"/>
    <path d="m504.05,416.65c-.02.26-.14.59-.9.55s-3.92.04-4.37.07c0,.56.26,3.6.43,7.28.05,1.13-.44,1.27-.64,1.27-.34,0-.92-.43-1.03-1.14-.09-.66-.16-2.16-.23-3.74-.06-1.37-.12-2.79-.21-3.75l-.95.31.03-1.02c.04-.21.25-.46.39-.47s6.42-.22,6.78-.2.7.53.69.83Z"/>
    <path class="cls-12" d="m476.64,419.77c-.18-.22-.39-.42-.59-.59,3.31-3.76-4.43-6.09-4.53-1.52-.01,2.17-.02,3.88-.02,6.06-.77-.24-1.63.26-1.76,1.1-.08,2.12,2.05,1.76,2.82.83.29-.35.4-.63.5-1.7,2.9,1.54,5.17-1.67,3.58-4.18Zm-1.25,2.91c-.87.68-1.26.01-1.87-.16-.13-.04-.28-.03-.42.03,0-1.73,0-3.44.02-5.2-.15-.97,1.24-1.29,1.85-.63.51.55.42,1.49-.19,1.71-1.99-.53-1.8,2.34,0,1.62.85.25,1.48,1.74.61,2.63Z"/>
    <path d="m370.84,416.65c-.02.26-.14.59-.9.55s-3.92.04-4.37.07c0,.56.26,3.6.43,7.28.05,1.13-.44,1.27-.64,1.27-.34,0-.92-.43-1.03-1.14-.09-.66-.16-2.16-.23-3.74-.06-1.37-.12-2.79-.21-3.75l-.95.31.03-1.02c.04-.21.25-.46.39-.47s6.42-.22,6.78-.2.7.53.69.83Z"/>
    <path class="cls-12" d="m480.36,419.35h10.69l-1.95-2.21.87-.83,3.45,3.32v.97l-3.45,3.32-.87-.83,1.95-2.21h-10.69v-1.52Z"/>
  </g>
  <g>
    <path class="cls-30" d="m325.08,689.21c-.9,1.23-4.61,4.45-4.61,4.45,0,0-3.75-3.26-4.66-4.51-.68-.94.56-2.14.56-2.14l3.02,2.97-.19-29.84c0-1.51,2.12-1.5,2.13.01l.19,29.84,2.98-2.93s1.26,1.21.59,2.14Z"/>
    <path class="cls-19" d="m303.92,692.99h.37s0-.07,0-.1c0-1.14,0-2.29,0-3.43,0-.3.16-.54.43-.62.4-.12.79.18.79.61,0,.99,0,1.97,0,2.96,0,.19,0,.38,0,.58h.36s0-.07,0-.1c0-1.4,0-2.81,0-4.21,0-.36.26-.64.61-.63.35,0,.61.27.61.64,0,1.4,0,2.8,0,4.2,0,.03,0,.07,0,.11h.36v-.1c0-1.11,0-2.23,0-3.34,0-.33.21-.58.54-.63.34-.05.67.23.67.57,0,.42,0,.85,0,1.27,0,1.41,0,2.82,0,4.23,0,.09.02.16.1.21.09.05.19.02.25-.09.23-.4.46-.8.7-1.2.18-.31.48-.41.81-.28.33.14.45.52.26.85-.32.56-.64,1.11-.96,1.67-.24.41-.47.82-.71,1.22-.08.13-.19.25-.31.36-.47.46-.99.84-1.6,1.09-.54.23-1.11.34-1.7.28-1.07-.1-1.86-.64-2.36-1.59-.23-.43-.35-.9-.39-1.39-.02-.23-.03-.46-.03-.69,0-1.54,0-3.08,0-4.62,0-.36.28-.64.62-.63.33,0,.59.28.59.6,0,.7,0,1.4,0,2.1v.09Z"/>
    <path class="cls-30" d="m312.89,692.99h-.37s0-.07,0-.1c0-1.14,0-2.29,0-3.43,0-.3-.16-.54-.43-.62-.4-.12-.79.18-.79.61,0,.99,0,1.97,0,2.96,0,.19,0,.38,0,.58h-.36s0-.07,0-.1c0-1.4,0-2.81,0-4.21,0-.36-.26-.64-.61-.63-.35,0-.61.27-.61.64,0,1.4,0,2.8,0,4.2,0,.03,0,.07,0,.11h-.36v-.1c0-1.11,0-2.23,0-3.34,0-.33-.21-.58-.54-.63-.34-.05-.67.23-.67.57,0,.42,0,.85,0,1.27,0,1.41,0,2.82,0,4.23,0,.09-.02.16-.1.21-.09.05-.19.02-.25-.09-.23-.4-.46-.8-.7-1.2-.18-.31-.48-.41-.81-.28-.33.14-.45.52-.26.85.32.56.64,1.11.96,1.67.24.41.47.82.71,1.22.08.13.19.25.31.36.47.46.99.84,1.6,1.09.54.23,1.11.34,1.7.28,1.07-.1,1.86-.64,2.36-1.59.23-.43.35-.9.39-1.39.02-.23.03-.46.03-.69,0-1.54,0-3.08,0-4.62,0-.36-.28-.64-.62-.63-.33,0-.59.28-.59.6,0,.7,0,1.4,0,2.1v.09Z"/>
    <g>
      <path class="cls-12" d="m208.4,677.83c1.93,0,1.93-3,0-3s-1.93,3,0,3h0Z"/>
      <circle class="cls-12" cx="244.4" cy="676.33" r="3"/>
      <circle class="cls-12" cx="208.4" cy="712.33" r="3"/>
      <circle class="cls-12" cx="172.4" cy="676.33" r="3"/>
      <circle class="cls-12" cx="208.4" cy="640.33" r="3"/>
    </g>
    <g>
      <path class="cls-12" d="m308.4,677.83c1.93,0,1.93-3,0-3s-1.93,3,0,3h0Z"/>
      <circle class="cls-12" cx="344.4" cy="676.33" r="3"/>
      <circle class="cls-12" cx="308.4" cy="712.33" r="3"/>
      <circle class="cls-12" cx="272.4" cy="676.33" r="3"/>
      <circle class="cls-12" cx="308.4" cy="640.33" r="3"/>
    </g>
    <path class="cls-30" d="m211.18,658.59h-.35s0-.07,0-.1c0-1.1,0-2.19,0-3.29,0-.29-.16-.51-.42-.59-.39-.12-.76.17-.76.59,0,.94,0,1.89,0,2.83,0,.18,0,.37,0,.56h-.35s0-.06,0-.09c0-1.34,0-2.69,0-4.03,0-.35-.25-.61-.59-.61-.34,0-.59.26-.59.61,0,1.34,0,2.68,0,4.02,0,.03,0,.06,0,.1h-.35v-.09c0-1.07,0-2.13,0-3.2,0-.32-.21-.55-.52-.6-.32-.05-.65.22-.65.55,0,.41,0,.81,0,1.22,0,1.35,0,2.7,0,4.05,0,.08-.02.16-.1.2-.09.05-.18.02-.24-.08-.23-.38-.45-.77-.68-1.15-.17-.3-.47-.4-.78-.26-.32.13-.44.5-.25.82.31.53.62,1.07.93,1.6.23.39.45.79.69,1.17.08.13.19.24.3.35.45.44.96.81,1.55,1.05.53.22,1.08.32,1.65.27,1.04-.1,1.8-.61,2.29-1.52.22-.42.34-.86.38-1.33.02-.22.03-.44.03-.66,0-1.47,0-2.95,0-4.42,0-.35-.27-.61-.6-.6-.32,0-.57.26-.57.57,0,.67,0,1.34,0,2.01v.09Z"/>
    <path class="cls-19" d="m205.63,692.93h.35s0-.07,0-.1c0-1.1,0-2.19,0-3.29,0-.29.16-.51.42-.59.39-.12.76.17.76.59,0,.94,0,1.89,0,2.83,0,.18,0,.37,0,.56h.35s0-.06,0-.09c0-1.34,0-2.69,0-4.03,0-.35.25-.61.59-.61.34,0,.59.26.59.61,0,1.34,0,2.68,0,4.02,0,.03,0,.06,0,.1h.35v-.09c0-1.07,0-2.13,0-3.2,0-.32.21-.55.52-.6.32-.05.65.22.65.55,0,.41,0,.81,0,1.22,0,1.35,0,2.7,0,4.05,0,.08.02.16.1.2.09.05.18.02.24-.08.23-.38.45-.77.68-1.15.17-.3.47-.4.78-.26.32.13.44.5.25.82-.31.53-.62,1.07-.93,1.6-.23.39-.45.79-.69,1.17-.08.13-.19.24-.3.35-.45.44-.96.81-1.55,1.05-.53.22-1.08.32-1.65.27-1.04-.1-1.8-.61-2.29-1.52-.22-.42-.34-.86-.38-1.33-.02-.22-.03-.44-.03-.66,0-1.47,0-2.95,0-4.42,0-.35.27-.61.6-.6.32,0,.57.26.57.57,0,.67,0,1.34,0,2.01v.09Z"/>
    <path class="cls-30" d="m193.45,661.54c.9-1.23,4.61-4.45,4.61-4.45,0,0,3.75,3.26,4.66,4.51.68.94-.56,2.14-.56,2.14l-3.02-2.97.19,29.84c0,1.51-2.12,1.5-2.13-.01l-.19-29.84-2.98,2.93s-1.26-1.21-.59-2.14Z"/>
    <g>
      <path class="cls-12" d="m408.4,677.83c1.93,0,1.93-3,0-3s-1.93,3,0,3h0Z"/>
      <path class="cls-12" d="m444.4,674.92c-1.66,0-3,3.07-3,1.41s1.34-7.41,3-7.41,3,1.34,3,3-1.34,3-3,3Z"/>
      <circle class="cls-12" cx="408.4" cy="712.33" r="3"/>
      <circle class="cls-12" cx="372.4" cy="676.33" r="3"/>
      <circle class="cls-12" cx="408.4" cy="640.33" r="3"/>
    </g>
    <path class="cls-30" d="m428.35,675.76h-.35s0-.07,0-.1c0-1.1,0-2.19,0-3.29,0-.29-.16-.51-.42-.59-.39-.12-.76.17-.76.59,0,.94,0,1.89,0,2.83,0,.18,0,.37,0,.56h-.35s0-.06,0-.09c0-1.34,0-2.69,0-4.03,0-.35-.25-.61-.59-.61-.34,0-.59.26-.59.61,0,1.34,0,2.68,0,4.02,0,.03,0,.06,0,.1h-.35v-.09c0-1.07,0-2.13,0-3.2,0-.32-.21-.55-.52-.6-.32-.05-.65.22-.65.55,0,.41,0,.81,0,1.22,0,1.35,0,2.7,0,4.05,0,.08-.02.16-.1.2-.09.05-.18.02-.24-.08-.23-.38-.45-.77-.68-1.15-.17-.3-.47-.4-.78-.26-.32.13-.44.5-.25.82.31.53.62,1.07.93,1.6.23.39.45.79.69,1.17.08.13.19.24.3.35.45.44.96.81,1.55,1.05.53.22,1.08.32,1.65.27,1.04-.1,1.8-.61,2.29-1.52.22-.42.34-.86.38-1.33.02-.22.03-.44.03-.66,0-1.47,0-2.95,0-4.42,0-.35-.27-.61-.6-.6-.32,0-.57.26-.57.57,0,.67,0,1.34,0,2.01v.09Z"/>
    <path class="cls-19" d="m405.63,692.93h.35s0-.07,0-.1c0-1.1,0-2.19,0-3.29,0-.29.16-.51.42-.59.39-.12.76.17.76.59,0,.94,0,1.89,0,2.83,0,.18,0,.37,0,.56h.35s0-.06,0-.09c0-1.34,0-2.69,0-4.03,0-.35.25-.61.59-.61.34,0,.59.26.59.61,0,1.34,0,2.68,0,4.02,0,.03,0,.06,0,.1h.35v-.09c0-1.07,0-2.13,0-3.2,0-.32.21-.55.52-.6.32-.05.65.22.65.55,0,.41,0,.81,0,1.22,0,1.35,0,2.7,0,4.05,0,.08.02.16.1.2.09.05.18.02.24-.08.23-.38.45-.77.68-1.15.17-.3.47-.4.78-.26.32.13.44.5.25.82-.31.53-.62,1.07-.93,1.6-.23.39-.45.79-.69,1.17-.08.13-.19.24-.3.35-.45.44-.96.81-1.55,1.05-.53.22-1.08.32-1.65.27-1.04-.1-1.8-.61-2.29-1.52-.22-.42-.34-.86-.38-1.33-.02-.22-.03-.44-.03-.66,0-1.47,0-2.95,0-4.42,0-.35.27-.61.6-.6.32,0,.57.26.57.57,0,.67,0,1.34,0,2.01v.09Z"/>
    <path class="cls-30" d="m421.28,661.55c1.23.9,4.45,4.61,4.45,4.61,0,0-3.26,3.75-4.51,4.66-.94.68-2.14-.56-2.14-.56l2.97-3.02-29.84.19c-1.51,0-1.5-2.12.01-2.13l29.84-.19-2.93-2.98s1.21-1.26,2.14-.59Z"/>
  </g>
  <path d="m400.62,624.03c-.02.26-.14.59-.9.55-.76-.04-3.92.04-4.37.07,0,.56.26,3.6.43,7.28.05,1.13-.44,1.27-.64,1.27-.34,0-.92-.43-1.03-1.14-.09-.66-.16-2.16-.23-3.74-.06-1.37-.12-2.79-.21-3.75l-.95.31.03-1.02c.04-.21.25-.46.39-.47s6.42-.22,6.78-.2.7.53.69.83Z"/>
  <path d="m425.57,624.03c-.02.26-.14.59-.9.55-.76-.04-3.92.04-4.37.07,0,.56.26,3.6.43,7.28.05,1.13-.44,1.27-.64,1.27-.34,0-.92-.43-1.03-1.14-.09-.66-.16-2.16-.23-3.74-.06-1.37-.12-2.79-.21-3.75l-.95.31.03-1.02c.04-.21.25-.46.39-.47s6.42-.22,6.78-.2.7.53.69.83Z"/>
  <path class="cls-12" d="m198.14,627.15c-.18-.22-.39-.42-.59-.59,3.31-3.76-4.43-6.09-4.53-1.52-.01,2.17-.02,3.88-.02,6.06-.77-.24-1.63.26-1.76,1.1-.08,2.12,2.05,1.76,2.82.83.29-.35.4-.63.5-1.7,2.9,1.54,5.17-1.67,3.58-4.18Zm-1.25,2.91c-.87.68-1.26.01-1.87-.16-.13-.04-.28-.03-.42.03,0-1.73,0-3.44.02-5.2-.15-.97,1.24-1.29,1.85-.63.51.55.42,1.49-.19,1.71-1.99-.53-1.8,2.34,0,1.62.85.25,1.48,1.74.61,2.63Z"/>
  <path class="cls-12" d="m323.63,627.15c-.18-.22-.39-.42-.59-.59,3.31-3.76-4.43-6.09-4.53-1.52-.01,2.17-.02,3.88-.02,6.06-.77-.24-1.63.26-1.76,1.1-.08,2.12,2.05,1.76,2.82.83.29-.35.4-.63.5-1.7,2.9,1.54,5.17-1.67,3.58-4.18Zm-1.25,2.91c-.87.68-1.26.01-1.87-.16-.13-.04-.28-.03-.42.03,0-1.73,0-3.44.02-5.2-.15-.97,1.24-1.29,1.85-.63.51.55.42,1.49-.19,1.71-1.99-.53-1.8,2.34,0,1.62.85.25,1.48,1.74.61,2.63Z"/>
  <path class="cls-12" d="m228.35,629.36c-.65,0-.94.25-1.28.66-.17.19-.39,1.18-.75.55-.75-1.29.02-4.57,1.06-6.02.28-.37-.11-.59-.3-.7,0,0-.42-.22-.64-.14-.29.1-.6-.12-1.39,1.64-1.19-1.37-2.58-1.19-3.53-1.15-.84.04-3.37.97-3.37,3.93,0,3.55,3.05,4.21,3.97,4.21s2.48-.6,2.88-.96c.24.72.67,1.16,1.21,1.27.84.18,1.21-.24,1.55-.71.49-.67,1.06-2.57.59-2.58Zm-6.23,1c-1.22,0-2.22-1.01-2.22-2.23s1-2.22,2.22-2.22,2.23,1.01,2.23,2.22-1.01,2.23-2.23,2.23Z"/>
  <path class="cls-12" d="m299.9,629.36c-.65,0-.94.25-1.28.66-.17.19-.39,1.18-.75.55-.75-1.29.02-4.57,1.06-6.02.28-.37-.11-.59-.3-.7,0,0-.42-.22-.64-.14-.29.1-.6-.12-1.39,1.64-1.19-1.37-2.58-1.19-3.53-1.15-.84.04-3.37.97-3.37,3.93,0,3.55,3.05,4.21,3.97,4.21s2.48-.6,2.88-.96c.24.72.67,1.16,1.21,1.27.84.18,1.21-.24,1.55-.71.49-.67,1.06-2.57.59-2.58Zm-6.23,1c-1.22,0-2.22-1.01-2.22-2.23s1-2.22,2.22-2.22,2.23,1.01,2.23,2.22-1.01,2.23-2.23,2.23Z"/>
  <path class="cls-12" d="m201.82,627.44h10.69l-1.95-2.21.87-.83,3.45,3.32v.97l-3.45,3.32-.87-.83,1.95-2.21h-10.69v-1.52Z"/>
  <path class="cls-12" d="m301.82,627.44h10.69l-1.95-2.21.87-.83,3.45,3.32v.97l-3.45,3.32-.87-.83,1.95-2.21h-10.69v-1.52Z"/>
  <path class="cls-12" d="m401.87,627.44h10.69l-1.95-2.21.87-.83,3.45,3.32v.97l-3.45,3.32-.87-.83,1.95-2.21h-10.69v-1.52Z"/>
</svg>