<?xml version="1.0" encoding="UTF-8"?>
<svg id="Layer_1" data-name="Layer 1" xmlns="http://www.w3.org/2000/svg" viewBox="0 0 612 792">
  <defs>
    <style>
      .cls-1, .cls-2, .cls-3, .cls-4, .cls-5, .cls-6, .cls-7, .cls-8, .cls-9, .cls-10, .cls-11, .cls-12, .cls-13, .cls-14 {
        fill: #231f20;
      }

      .cls-1, .cls-2, .cls-4, .cls-5, .cls-7, .cls-8, .cls-9 {
        font-family: Cambria, Cambria;
      }

      .cls-1, .cls-15, .cls-16 {
        letter-spacing: -.01em;
      }

      .cls-17 {
        letter-spacing: -.08em;
      }

      .cls-2, .cls-18, .cls-19 {
        font-size: 17px;
      }

      .cls-20 {
        fill: #21409a;
      }

      .cls-21, .cls-12 {
        letter-spacing: -.02em;
      }

      .cls-22, .cls-23, .cls-18, .cls-24, .cls-13 {
        font-family: Cambria-Bold, Cambria;
        font-weight: 700;
      }

      .cls-22, .cls-15, .cls-25 {
        fill: #00a14b;
      }

      .cls-23, .cls-26 {
        fill: #00aeef;
      }

      .cls-27 {
        letter-spacing: -.01em;
      }

      .cls-3 {
        stroke: #231f20;
        stroke-width: .5px;
      }

      .cls-3, .cls-28 {
        stroke-miterlimit: 10;
      }

      .cls-4, .cls-29 {
        letter-spacing: 0em;
      }

      .cls-5, .cls-30 {
        letter-spacing: -.01em;
      }

      .cls-31 {
        letter-spacing: -.01em;
      }

      .cls-6 {
        font-family: MonotypeCorsiva, 'Monotype Corsiva';
        font-size: 40px;
      }

      .cls-7 {
        font-size: 12px;
      }

      .cls-8, .cls-32 {
        letter-spacing: -.02em;
      }

      .cls-28 {
        fill: none;
        stroke: #000;
        stroke-width: 2px;
      }

      .cls-10 {
        letter-spacing: 0em;
      }

      .cls-11, .cls-33 {
        letter-spacing: -.03em;
      }

      .cls-34 {
        letter-spacing: -.02em;
      }

      .cls-35 {
        fill: #7f3f98;
      }

      .cls-36 {
        fill: #ed1c24;
      }

      .cls-37 {
        letter-spacing: 0em;
      }

      .cls-24 {
        fill: #f26522;
      }

      .cls-38 {
        letter-spacing: -.02em;
      }
    </style>
  </defs>
  <text class="cls-19" transform="translate(7.77 428.26)"><tspan class="cls-9" x="0" y="0">The combination of t</tspan><tspan class="cls-5" x="150.37" y="0">w</tspan><tspan class="cls-9" x="163.32" y="0">o static motions can be writ</tspan><tspan class="cls-4" x="363.4" y="0">t</tspan><tspan class="cls-9" x="369" y="0">en as </tspan><tspan class="cls-24" x="409.88" y="0">Static</tspan><tspan class="cls-9" x="453.43" y="0" xml:space="preserve"> (with a capital “S”).</tspan><tspan class="cls-9"><tspan class="cls-17" x="86.03" y="40.8">T</tspan><tspan x="94.72" y="40.8">o indica</tspan><tspan class="cls-29" x="151.65" y="40.8">t</tspan><tspan x="157.25" y="40.8">e a</tspan><tspan class="cls-34" x="177.59" y="40.8">n</tspan><tspan x="186.75" y="40.8">y static motion, </tspan><tspan class="cls-30" x="301.51" y="40.8">w</tspan><tspan x="314.46" y="40.8">e simp</tspan><tspan class="cls-32" x="362.13" y="40.8">l</tspan><tspan x="366.4" y="40.8">y d</tspan><tspan class="cls-21" x="388.14" y="40.8">r</tspan><tspan class="cls-31" x="394.88" y="40.8">a</tspan><tspan x="402.96" y="40.8">w the position. </tspan></tspan><tspan class="cls-9" x="155.75" y="61.2">He</tspan><tspan class="cls-1" x="175.72" y="61.2">r</tspan><tspan class="cls-9" x="182.5" y="61.2">e a</tspan><tspan class="cls-1" x="202.83" y="61.2">r</tspan><tspan class="cls-9" x="209.62" y="61.2">e th</tspan><tspan class="cls-1" x="236.78" y="61.2">r</tspan><tspan class="cls-9" x="243.57" y="61.2">ee </tspan><tspan class="cls-24" x="263.89" y="61.2">Static </tspan><tspan class="cls-9" x="311.19" y="61.2">2-beat sequences.</tspan></text>
  <text class="cls-6" transform="translate(203.74 384.06)"><tspan x="0" y="0">Type 6 - Static</tspan></text>
  <text class="cls-6" transform="translate(157.02 59.25)"><tspan x="0" y="0">Type 5 - Dual-Dash</tspan></text>
  <text class="cls-19" transform="translate(31.79 106.27)"><tspan class="cls-9" x="0" y="0">With a </tspan><tspan class="cls-23" x="51.31" y="0">Dual</tspan><tspan class="cls-13" x="87.77" y="0">-</tspan><tspan class="cls-22" x="93.5" y="0">Dash</tspan><tspan class="cls-9" x="132.52" y="0">, both hands dash simultaneous</tspan><tspan class="cls-8" x="360.49" y="0">l</tspan><tspan class="cls-9" x="364.76" y="0">y </tspan><tspan class="cls-4" x="377.07" y="0">t</tspan><tspan class="cls-9" x="382.67" y="0">o their opposi</tspan><tspan class="cls-4" x="483.35" y="0">t</tspan><tspan class="cls-9" x="488.95" y="0">e points. </tspan></text>
  <text class="cls-18" transform="translate(103.14 282.81)"><tspan class="cls-14" x="0" y="0">P</tspan><tspan class="cls-12" x="10.43" y="0">r</tspan><tspan class="cls-14" x="17.99" y="0">acti</tspan><tspan class="cls-10" x="46.61" y="0">c</tspan><tspan class="cls-14" x="54.47" y="0">e using </tspan><tspan class="cls-26" x="113.38" y="0">Dual</tspan><tspan class="cls-14" x="149.85" y="0">-</tspan><tspan class="cls-25" x="155.57" y="0">Dashes</tspan><tspan class="cls-14" x="211.42" y="0">, </tspan><tspan class="cls-25" x="219.11" y="0">Dashes</tspan><tspan class="cls-14" x="274.96" y="0">,</tspan><tspan class="cls-25" x="278.9" y="0"> </tspan><tspan class="cls-14" x="282.64" y="0">and </tspan><tspan class="cls-25" x="315.89" y="0">C</tspan><tspan class="cls-15" x="325.64" y="0">r</tspan><tspan class="cls-25" x="333.23" y="0">oss</tspan><tspan class="cls-11" x="358.52" y="0">-</tspan><tspan class="cls-35" x="363.75" y="0">Shifts</tspan><tspan class="cls-25" x="407.52" y="0"> </tspan><tspan class="cls-14"><tspan x="88.13" y="20.4">f</tspan><tspan class="cls-16" x="93.67" y="20.4">r</tspan><tspan x="101.27" y="20.4">om diffe</tspan><tspan class="cls-16" x="165.43" y="20.4">r</tspan><tspan x="173.03" y="20.4">ent start positions.</tspan></tspan></text>
  <text class="cls-2" transform="translate(127.85 696.94)"><tspan x="0" y="0">O</tspan><tspan class="cls-16" x="11.11" y="0">b</tspan><tspan x="20.16" y="0">vious</tspan><tspan class="cls-32" x="59.17" y="0">l</tspan><tspan x="63.44" y="0">y these sequences a</tspan><tspan class="cls-16" x="205.72" y="0">r</tspan><tspan x="212.5" y="0">e</tspan><tspan class="cls-33" x="220.79" y="0">n</tspan><tspan x="229.78" y="0">’t </tspan><tspan class="cls-34" x="243.04" y="0">v</tspan><tspan x="251.27" y="0">ery </tspan><tspan class="cls-27" x="278.91" y="0">e</tspan><tspan class="cls-38" x="287" y="0">x</tspan><tspan x="294.84" y="0">citing. </tspan><tspan x="-77.1" y="40.8">La</tspan><tspan class="cls-29" x="-59.67" y="40.8">t</tspan><tspan x="-54.07" y="40.8">er on, static sequences h</tspan><tspan class="cls-34" x="122.09" y="40.8">av</tspan><tspan x="138.29" y="40.8">e mo</tspan><tspan class="cls-16" x="173.49" y="40.8">r</tspan><tspan x="180.28" y="40.8">e compl</tspan><tspan class="cls-27" x="237.05" y="40.8">e</tspan><tspan x="245.14" y="40.8">xity </tspan><tspan class="cls-37" x="276.14" y="40.8">w</tspan><tspan x="289.14" y="40.8">hen adding turns.</tspan></text>
  <line class="cls-28" x1="-1.59" y1="331.51" x2="610.41" y2="331.51"/>
  <g>
    <path class="cls-20" d="m257.11,594.31h.35s0-.07,0-.1c0-1.11,0-2.22,0-3.33,0-.29.16-.52.42-.6.39-.12.76.17.76.6,0,.96,0,1.91,0,2.87,0,.19,0,.37,0,.56h.35s0-.06,0-.09c0-1.36,0-2.72,0-4.08,0-.35.25-.62.59-.62.34,0,.59.27.59.62,0,1.36,0,2.71,0,4.07,0,.03,0,.06,0,.1h.35v-.1c0-1.08,0-2.16,0-3.24,0-.32.21-.56.52-.61.32-.05.65.23.65.55,0,.41,0,.82,0,1.23,0,1.37,0,2.73,0,4.1,0,.09.02.16.1.2.09.05.18.02.24-.08.23-.39.45-.78.68-1.17.17-.3.47-.4.78-.27.32.14.44.51.25.83-.31.54-.62,1.08-.93,1.62-.23.4-.45.8-.69,1.19-.08.13-.19.24-.3.35-.45.45-.96.82-1.55,1.06-.53.22-1.08.33-1.65.27-1.04-.1-1.8-.62-2.29-1.54-.22-.42-.34-.87-.38-1.35-.02-.22-.03-.45-.03-.67,0-1.49,0-2.99,0-4.48,0-.35.27-.62.6-.61.32,0,.57.27.57.58,0,.68,0,1.36,0,2.04v.09Z"/>
    <g>
      <text class="cls-7" transform="translate(24.45 547.64)"><tspan x="0" y="0">1</tspan></text>
      <text class="cls-7" transform="translate(114.36 547.64)"><tspan x="0" y="0">2</tspan></text>
    </g>
    <g>
      <text class="cls-7" transform="translate(224.45 547.64)"><tspan x="0" y="0">1</tspan></text>
      <text class="cls-7" transform="translate(314.35 547.64)"><tspan x="0" y="0">2</tspan></text>
    </g>
    <g>
      <text class="cls-7" transform="translate(422.96 547.64)"><tspan x="0" y="0">1</tspan></text>
      <text class="cls-7" transform="translate(512.86 547.64)"><tspan x="0" y="0">2</tspan></text>
    </g>
    <path class="cls-36" d="m80.74,578.94h-.35s0-.07,0-.1c0-1.11,0-2.22,0-3.33,0-.29-.16-.52-.42-.6-.39-.12-.76.17-.76.6,0,.96,0,1.91,0,2.87,0,.19,0,.37,0,.56h-.35s0-.06,0-.09c0-1.36,0-2.72,0-4.08,0-.35-.25-.62-.59-.62-.34,0-.59.27-.59.62,0,1.36,0,2.71,0,4.07,0,.03,0,.06,0,.1h-.35v-.1c0-1.08,0-2.16,0-3.24,0-.32-.21-.56-.52-.61-.32-.05-.65.23-.65.55,0,.41,0,.82,0,1.23,0,1.37,0,2.73,0,4.1,0,.09-.02.16-.1.2-.09.05-.18.02-.24-.08-.23-.39-.45-.78-.68-1.17-.17-.3-.47-.4-.78-.27-.32.14-.44.51-.25.83.31.54.62,1.08.93,1.62.23.4.45.8.69,1.19.08.13.19.24.3.35.45.45.96.82,1.55,1.06.53.22,1.08.33,1.65.27,1.04-.1,1.8-.62,2.29-1.54.22-.42.34-.87.38-1.35.02-.22.03-.45.03-.67,0-1.49,0-2.99,0-4.48,0-.35-.27-.62-.6-.61-.32,0-.57.27-.57.58,0,.68,0,1.36,0,2.04v.09Z"/>
    <path class="cls-20" d="m42.57,578.94h.35s0-.07,0-.1c0-1.11,0-2.22,0-3.33,0-.29.16-.52.42-.6.39-.12.76.17.76.6,0,.96,0,1.91,0,2.87,0,.19,0,.37,0,.56h.35s0-.06,0-.09c0-1.36,0-2.72,0-4.08,0-.35.25-.62.59-.62.34,0,.59.27.59.62,0,1.36,0,2.71,0,4.07,0,.03,0,.06,0,.1h.35v-.1c0-1.08,0-2.16,0-3.24,0-.32.21-.56.52-.61.32-.05.65.23.65.55,0,.41,0,.82,0,1.23,0,1.37,0,2.73,0,4.1,0,.09.02.16.1.2.09.05.18.02.24-.08.23-.39.45-.78.68-1.17.17-.3.47-.4.78-.27.32.14.44.51.25.83-.31.54-.62,1.08-.93,1.62-.23.4-.45.8-.69,1.19-.08.13-.19.24-.3.35-.45.45-.96.82-1.55,1.06-.53.22-1.08.33-1.65.27-1.04-.1-1.8-.62-2.29-1.54-.22-.42-.34-.87-.38-1.35-.02-.22-.03-.45-.03-.67,0-1.49,0-2.99,0-4.48,0-.35.27-.62.6-.61.32,0,.57.27.57.58,0,.68,0,1.36,0,2.04v.09Z"/>
    <path class="cls-36" d="m170.74,578.94h-.35s0-.07,0-.1c0-1.11,0-2.22,0-3.33,0-.29-.16-.52-.42-.6-.39-.12-.76.17-.76.6,0,.96,0,1.91,0,2.87,0,.19,0,.37,0,.56h-.35s0-.06,0-.09c0-1.36,0-2.72,0-4.08,0-.35-.25-.62-.59-.62-.34,0-.59.27-.59.62,0,1.36,0,2.71,0,4.07,0,.03,0,.06,0,.1h-.35v-.1c0-1.08,0-2.16,0-3.24,0-.32-.21-.56-.52-.61-.32-.05-.65.23-.65.55,0,.41,0,.82,0,1.23,0,1.37,0,2.73,0,4.1,0,.09-.02.16-.1.2-.09.05-.18.02-.24-.08-.23-.39-.45-.78-.68-1.17-.17-.3-.47-.4-.78-.27-.32.14-.44.51-.25.83.31.54.62,1.08.93,1.62.23.4.45.8.69,1.19.08.13.19.24.3.35.45.45.96.82,1.55,1.06.53.22,1.08.33,1.65.27,1.04-.1,1.8-.62,2.29-1.54.22-.42.34-.87.38-1.35.02-.22.03-.45.03-.67,0-1.49,0-2.99,0-4.48,0-.35-.27-.62-.6-.61-.32,0-.57.27-.57.58,0,.68,0,1.36,0,2.04v.09Z"/>
    <path class="cls-36" d="m266.68,594.31h-.35s0-.07,0-.1c0-1.11,0-2.22,0-3.33,0-.29-.16-.52-.42-.6-.39-.12-.76.17-.76.6,0,.96,0,1.91,0,2.87,0,.19,0,.37,0,.56h-.35s0-.06,0-.09c0-1.36,0-2.72,0-4.08,0-.35-.25-.62-.59-.62-.34,0-.59.27-.59.62,0,1.36,0,2.71,0,4.07,0,.03,0,.06,0,.1h-.35v-.1c0-1.08,0-2.16,0-3.24,0-.32-.21-.56-.52-.61-.32-.05-.65.23-.65.55,0,.41,0,.82,0,1.23,0,1.37,0,2.73,0,4.1,0,.09-.02.16-.1.2-.09.05-.18.02-.24-.08-.23-.39-.45-.78-.68-1.17-.17-.3-.47-.4-.78-.27-.32.14-.44.51-.25.83.31.54.62,1.08.93,1.62.23.4.45.8.69,1.19.08.13.19.24.3.35.45.45.96.82,1.55,1.06.53.22,1.08.33,1.65.27,1.04-.1,1.8-.62,2.29-1.54.22-.42.34-.87.38-1.35.02-.22.03-.45.03-.67,0-1.49,0-2.99,0-4.48,0-.35-.27-.62-.6-.61-.32,0-.57.27-.57.58,0,.68,0,1.36,0,2.04v.09Z"/>
    <path class="cls-20" d="m347.11,594.31h.35s0-.07,0-.1c0-1.11,0-2.22,0-3.33,0-.29.16-.52.42-.6.39-.12.76.17.76.6,0,.96,0,1.91,0,2.87,0,.19,0,.37,0,.56h.35s0-.06,0-.09c0-1.36,0-2.72,0-4.08,0-.35.25-.62.59-.62.34,0,.59.27.59.62,0,1.36,0,2.71,0,4.07,0,.03,0,.06,0,.1h.35v-.1c0-1.08,0-2.16,0-3.24,0-.32.21-.56.52-.61.32-.05.65.23.65.55,0,.41,0,.82,0,1.23,0,1.37,0,2.73,0,4.1,0,.09.02.16.1.2.09.05.18.02.24-.08.23-.39.45-.78.68-1.17.17-.3.47-.4.78-.27.32.14.44.51.25.83-.31.54-.62,1.08-.93,1.62-.23.4-.45.8-.69,1.19-.08.13-.19.24-.3.35-.45.45-.96.82-1.55,1.06-.53.22-1.08.33-1.65.27-1.04-.1-1.8-.62-2.29-1.54-.22-.42-.34-.87-.38-1.35-.02-.22-.03-.45-.03-.67,0-1.49,0-2.99,0-4.48,0-.35.27-.62.6-.61.32,0,.57.27.57.58,0,.68,0,1.36,0,2.04v.09Z"/>
    <path class="cls-36" d="m356.68,594.31h-.35s0-.07,0-.1c0-1.11,0-2.22,0-3.33,0-.29-.16-.52-.42-.6-.39-.12-.76.17-.76.6,0,.96,0,1.91,0,2.87,0,.19,0,.37,0,.56h-.35s0-.06,0-.09c0-1.36,0-2.72,0-4.08,0-.35-.25-.62-.59-.62-.34,0-.59.27-.59.62,0,1.36,0,2.71,0,4.07,0,.03,0,.06,0,.1h-.35v-.1c0-1.08,0-2.16,0-3.24,0-.32-.21-.56-.52-.61-.32-.05-.65.23-.65.55,0,.41,0,.82,0,1.23,0,1.37,0,2.73,0,4.1,0,.09-.02.16-.1.2-.09.05-.18.02-.24-.08-.23-.39-.45-.78-.68-1.17-.17-.3-.47-.4-.78-.27-.32.14-.44.51-.25.83.31.54.62,1.08.93,1.62.23.4.45.8.69,1.19.08.13.19.24.3.35.45.45.96.82,1.55,1.06.53.22,1.08.33,1.65.27,1.04-.1,1.8-.62,2.29-1.54.22-.42.34-.87.38-1.35.02-.22.03-.45.03-.67,0-1.49,0-2.99,0-4.48,0-.35-.27-.62-.6-.61-.32,0-.57.27-.57.58,0,.68,0,1.36,0,2.04v.09Z"/>
    <path class="cls-20" d="m132.57,578.94h.35s0-.07,0-.1c0-1.11,0-2.22,0-3.33,0-.29.16-.52.42-.6.39-.12.76.17.76.6,0,.96,0,1.91,0,2.87,0,.19,0,.37,0,.56h.35s0-.06,0-.09c0-1.36,0-2.72,0-4.08,0-.35.25-.62.59-.62.34,0,.59.27.59.62,0,1.36,0,2.71,0,4.07,0,.03,0,.06,0,.1h.35v-.1c0-1.08,0-2.16,0-3.24,0-.32.21-.56.52-.61.32-.05.65.23.65.55,0,.41,0,.82,0,1.23,0,1.37,0,2.73,0,4.1,0,.09.02.16.1.2.09.05.18.02.24-.08.23-.39.45-.78.68-1.17.17-.3.47-.4.78-.27.32.14.44.51.25.83-.31.54-.62,1.08-.93,1.62-.23.4-.45.8-.69,1.19-.08.13-.19.24-.3.35-.45.45-.96.82-1.55,1.06-.53.22-1.08.33-1.65.27-1.04-.1-1.8-.62-2.29-1.54-.22-.42-.34-.87-.38-1.35-.02-.22-.03-.45-.03-.67,0-1.49,0-2.99,0-4.48,0-.35.27-.62.6-.61.32,0,.57.27.57.58,0,.68,0,1.36,0,2.04v.09Z"/>
    <g>
      <path class="cls-36" d="m480.74,578.94h-.35s0-.07,0-.1c0-1.11,0-2.22,0-3.33,0-.29-.16-.52-.42-.6-.39-.12-.76.17-.76.6,0,.96,0,1.91,0,2.87,0,.19,0,.37,0,.56h-.35s0-.06,0-.09c0-1.36,0-2.72,0-4.08,0-.35-.25-.62-.59-.62-.34,0-.59.27-.59.62,0,1.36,0,2.71,0,4.07,0,.03,0,.06,0,.1h-.35v-.1c0-1.08,0-2.16,0-3.24,0-.32-.21-.56-.52-.61-.32-.05-.65.23-.65.55,0,.41,0,.82,0,1.23,0,1.37,0,2.73,0,4.1,0,.09-.02.16-.1.2-.09.05-.18.02-.24-.08-.23-.39-.45-.78-.68-1.17-.17-.3-.47-.4-.78-.27-.32.14-.44.51-.25.83.31.54.62,1.08.93,1.62.23.4.45.8.69,1.19.08.13.19.24.3.35.45.45.96.82,1.55,1.06.53.22,1.08.33,1.65.27,1.04-.1,1.8-.62,2.29-1.54.22-.42.34-.87.38-1.35.02-.22.03-.45.03-.67,0-1.49,0-2.99,0-4.48,0-.35-.27-.62-.6-.61-.32,0-.57.27-.57.58,0,.68,0,1.36,0,2.04v.09Z"/>
      <path class="cls-20" d="m459.12,595.49h.35s0-.07,0-.1c0-1.11,0-2.22,0-3.33,0-.29.16-.52.42-.6.39-.12.76.17.76.6,0,.96,0,1.91,0,2.87,0,.19,0,.37,0,.56h.35s0-.06,0-.09c0-1.36,0-2.72,0-4.08,0-.35.25-.62.59-.62.34,0,.59.27.59.62,0,1.36,0,2.71,0,4.07,0,.03,0,.06,0,.1h.35v-.1c0-1.08,0-2.16,0-3.24,0-.32.21-.56.52-.61.32-.05.65.23.65.55,0,.41,0,.82,0,1.23,0,1.37,0,2.73,0,4.1,0,.09.02.16.1.2.09.05.18.02.24-.08.23-.39.45-.78.68-1.17.17-.3.47-.4.78-.27.32.14.44.51.25.83-.31.54-.62,1.08-.93,1.62-.23.4-.45.8-.69,1.19-.08.13-.19.24-.3.35-.45.45-.96.82-1.55,1.06-.53.22-1.08.33-1.65.27-1.04-.1-1.8-.62-2.29-1.54-.22-.42-.34-.87-.38-1.35-.02-.22-.03-.45-.03-.67,0-1.49,0-2.99,0-4.48,0-.35.27-.62.6-.61.32,0,.57.27.57.58,0,.68,0,1.36,0,2.04v.09Z"/>
    </g>
    <g>
      <path class="cls-36" d="m570.74,578.94h-.35s0-.07,0-.1c0-1.11,0-2.22,0-3.33,0-.29-.16-.52-.42-.6-.39-.12-.76.17-.76.6,0,.96,0,1.91,0,2.87,0,.19,0,.37,0,.56h-.35s0-.06,0-.09c0-1.36,0-2.72,0-4.08,0-.35-.25-.62-.59-.62-.34,0-.59.27-.59.62,0,1.36,0,2.71,0,4.07,0,.03,0,.06,0,.1h-.35v-.1c0-1.08,0-2.16,0-3.24,0-.32-.21-.56-.52-.61-.32-.05-.65.23-.65.55,0,.41,0,.82,0,1.23,0,1.37,0,2.73,0,4.1,0,.09-.02.16-.1.2-.09.05-.18.02-.24-.08-.23-.39-.45-.78-.68-1.17-.17-.3-.47-.4-.78-.27-.32.14-.44.51-.25.83.31.54.62,1.08.93,1.62.23.4.45.8.69,1.19.08.13.19.24.3.35.45.45.96.82,1.55,1.06.53.22,1.08.33,1.65.27,1.04-.1,1.8-.62,2.29-1.54.22-.42.34-.87.38-1.35.02-.22.03-.45.03-.67,0-1.49,0-2.99,0-4.48,0-.35-.27-.62-.6-.61-.32,0-.57.27-.57.58,0,.68,0,1.36,0,2.04v.09Z"/>
      <path class="cls-20" d="m549.12,595.49h.35s0-.07,0-.1c0-1.11,0-2.22,0-3.33,0-.29.16-.52.42-.6.39-.12.76.17.76.6,0,.96,0,1.91,0,2.87,0,.19,0,.37,0,.56h.35s0-.06,0-.09c0-1.36,0-2.72,0-4.08,0-.35.25-.62.59-.62.34,0,.59.27.59.62,0,1.36,0,2.71,0,4.07,0,.03,0,.06,0,.1h.35v-.1c0-1.08,0-2.16,0-3.24,0-.32.21-.56.52-.61.32-.05.65.23.65.55,0,.41,0,.82,0,1.23,0,1.37,0,2.73,0,4.1,0,.09.02.16.1.2.09.05.18.02.24-.08.23-.39.45-.78.68-1.17.17-.3.47-.4.78-.27.32.14.44.51.25.83-.31.54-.62,1.08-.93,1.62-.23.4-.45.8-.69,1.19-.08.13-.19.24-.3.35-.45.45-.96.82-1.55,1.06-.53.22-1.08.33-1.65.27-1.04-.1-1.8-.62-2.29-1.54-.22-.42-.34-.87-.38-1.35-.02-.22-.03-.45-.03-.67,0-1.49,0-2.99,0-4.48,0-.35.27-.62.6-.61.32,0,.57.27.57.58,0,.68,0,1.36,0,2.04v.09Z"/>
    </g>
    <path d="m67.47,632.23c-.72,0-1.04.28-1.43.73-.19.21-.43,1.31-.84.61-.84-1.43.02-5.08,1.18-6.69.31-.41-.12-.65-.33-.77,0,0-.47-.24-.71-.16-.32.11-.67-.13-1.55,1.83-1.32-1.52-2.87-1.32-3.92-1.28-.93.04-3.75,1.08-3.75,4.36,0,3.95,3.39,4.68,4.41,4.68s2.76-.67,3.2-1.07c.27.8.75,1.29,1.35,1.41.93.2,1.35-.27,1.72-.79.55-.75,1.17-2.85.65-2.87Zm-6.92,1.11c-1.36,0-2.47-1.12-2.47-2.48s1.11-2.47,2.47-2.47,2.48,1.12,2.48,2.47-1.12,2.48-2.48,2.48Z"/>
    <path d="m157.47,632.23c-.72,0-1.04.28-1.43.73-.19.21-.43,1.31-.84.61-.84-1.43.02-5.08,1.18-6.69.31-.41-.12-.65-.33-.77,0,0-.47-.24-.71-.16-.32.11-.67-.13-1.55,1.83-1.32-1.52-2.87-1.32-3.92-1.28-.93.04-3.75,1.08-3.75,4.36,0,3.95,3.39,4.68,4.41,4.68s2.76-.67,3.2-1.07c.27.8.75,1.29,1.35,1.41.93.2,1.35-.27,1.72-.79.55-.75,1.17-2.85.65-2.87Zm-6.92,1.11c-1.36,0-2.47-1.12-2.47-2.48s1.11-2.47,2.47-2.47,2.48,1.12,2.48,2.47-1.12,2.48-2.48,2.48Z"/>
    <line class="cls-3" x1="206.71" y1="539.29" x2="206.71" y2="660.09"/>
    <line class="cls-3" x1="406.89" y1="539.29" x2="406.89" y2="660.09"/>
    <path d="m265.44,629.83c-.2-.25-.43-.47-.66-.66,3.68-4.18-4.92-6.77-5.04-1.69-.01,2.41-.02,4.31-.02,6.73-.85-.27-1.81.29-1.95,1.23-.09,2.36,2.28,1.95,3.13.93.32-.39.45-.7.56-1.89,3.22,1.71,5.75-1.86,3.98-4.64Zm-1.38,3.23c-.97.76-1.4.02-2.08-.18-.15-.04-.31-.03-.47.03,0-1.92,0-3.82.02-5.77-.16-1.08,1.38-1.43,2.05-.7.57.61.47,1.66-.21,1.89-2.22-.59-2,2.61,0,1.8.94.28,1.65,1.93.68,2.93Z"/>
    <path d="m466.82,625.73c-.02.33-.18.73-1.13.69-.95-.04-4.91.05-5.46.09.01.7.32,4.5.54,9.1.07,1.41-.55,1.58-.8,1.58-.42,0-1.15-.54-1.29-1.42-.11-.82-.2-2.7-.28-4.67-.07-1.72-.15-3.48-.26-4.68l-1.19.39.04-1.28c.05-.26.31-.57.49-.59s8.02-.28,8.47-.25.87.66.86,1.04Z"/>
    <path d="m355.44,629.83c-.2-.25-.43-.47-.66-.66,3.68-4.18-4.92-6.77-5.04-1.69-.01,2.41-.02,4.31-.02,6.73-.85-.27-1.81.29-1.95,1.23-.09,2.36,2.28,1.95,3.13.93.32-.39.45-.7.56-1.89,3.22,1.71,5.75-1.86,3.98-4.64Zm-1.38,3.23c-.97.76-1.4.02-2.08-.18-.15-.04-.31-.03-.47.03,0-1.92,0-3.82.02-5.77-.16-1.08,1.38-1.43,2.05-.7.57.61.47,1.66-.21,1.89-2.22-.59-2,2.61,0,1.8.94.28,1.65,1.93.68,2.93Z"/>
    <path d="m556.82,625.73c-.02.33-.18.73-1.13.69-.95-.04-4.91.05-5.46.09.01.7.32,4.5.54,9.1.07,1.41-.55,1.58-.8,1.58-.42,0-1.15-.54-1.29-1.42-.11-.82-.2-2.7-.28-4.67-.07-1.72-.15-3.48-.26-4.68l-1.19.39.04-1.28c.05-.26.31-.57.49-.59s8.02-.28,8.47-.25.87.66.86,1.04Z"/>
    <g>
      <path class="cls-14" d="m61.89,581.92c1.93,0,1.93-3,0-3s-1.93,3,0,3h0Z"/>
      <circle class="cls-14" cx="97.89" cy="580.42" r="3"/>
      <circle class="cls-14" cx="61.89" cy="616.42" r="3"/>
      <circle class="cls-14" cx="25.89" cy="580.42" r="3"/>
      <circle class="cls-14" cx="61.89" cy="544.42" r="3"/>
    </g>
    <g>
      <path class="cls-14" d="m151.89,581.92c1.93,0,1.93-3,0-3s-1.93,3,0,3h0Z"/>
      <circle class="cls-14" cx="187.89" cy="580.42" r="3"/>
      <circle class="cls-14" cx="151.89" cy="616.42" r="3"/>
      <circle class="cls-14" cx="115.89" cy="580.42" r="3"/>
      <circle class="cls-14" cx="151.89" cy="544.42" r="3"/>
    </g>
    <g>
      <path class="cls-14" d="m261.89,581.92c1.93,0,1.93-3,0-3s-1.93,3,0,3h0Z"/>
      <circle class="cls-14" cx="297.89" cy="580.42" r="3"/>
      <circle class="cls-14" cx="261.89" cy="616.42" r="3"/>
      <circle class="cls-14" cx="225.89" cy="580.42" r="3"/>
      <circle class="cls-14" cx="261.89" cy="544.42" r="3"/>
    </g>
    <g>
      <path class="cls-14" d="m351.89,581.92c1.93,0,1.93-3,0-3s-1.93,3,0,3h0Z"/>
      <circle class="cls-14" cx="387.89" cy="580.42" r="3"/>
      <circle class="cls-14" cx="351.89" cy="616.42" r="3"/>
      <circle class="cls-14" cx="315.89" cy="580.42" r="3"/>
      <circle class="cls-14" cx="351.89" cy="544.42" r="3"/>
    </g>
    <g>
      <path class="cls-14" d="m461.89,581.92c1.93,0,1.93-3,0-3s-1.93,3,0,3h0Z"/>
      <circle class="cls-14" cx="497.89" cy="580.42" r="3"/>
      <circle class="cls-14" cx="461.89" cy="616.42" r="3"/>
      <circle class="cls-14" cx="425.89" cy="580.42" r="3"/>
      <circle class="cls-14" cx="461.89" cy="544.42" r="3"/>
    </g>
    <g>
      <path class="cls-14" d="m551.89,581.92c1.93,0,1.93-3,0-3s-1.93,3,0,3h0Z"/>
      <circle class="cls-14" cx="587.89" cy="580.42" r="3"/>
      <circle class="cls-14" cx="551.89" cy="616.42" r="3"/>
      <circle class="cls-14" cx="515.89" cy="580.42" r="3"/>
      <circle class="cls-14" cx="551.89" cy="544.42" r="3"/>
    </g>
  </g>
  <path d="m223.44,137.39c-.02.26-.14.59-.9.55s-3.92.04-4.37.07c0,.56.26,3.6.43,7.28.05,1.13-.44,1.27-.64,1.27-.34,0-.92-.43-1.03-1.14-.09-.66-.16-2.16-.23-3.74-.06-1.37-.12-2.79-.21-3.75l-.95.31.03-1.02c.04-.21.25-.46.39-.47s6.42-.22,6.78-.2.7.53.69.83Z"/>
  <path d="m299.3,137.33c-.02.26-.14.59-.9.55s-3.92.04-4.37.07c0,.56.26,3.6.43,7.28.05,1.13-.44,1.27-.64,1.27-.34,0-.92-.43-1.03-1.14-.09-.66-.16-2.16-.23-3.74-.06-1.37-.12-2.79-.21-3.75l-.95.31.03-1.02c.04-.21.25-.46.39-.47s6.42-.22,6.78-.2.7.53.69.83Z"/>
  <path d="m424.53,137.39c-.02.26-.14.59-.9.55s-3.92.04-4.37.07c0,.56.26,3.6.43,7.28.05,1.13-.44,1.27-.64,1.27-.34,0-.92-.43-1.03-1.14-.09-.66-.16-2.16-.23-3.74-.06-1.37-.12-2.79-.21-3.75l-.95.31.03-1.02c.04-.21.25-.46.39-.47s6.42-.22,6.78-.2.7.53.69.83Z"/>
  <path class="cls-36" d="m219.77,181.95c1.23.9,4.45,4.61,4.45,4.61,0,0-3.26,3.75-4.51,4.66-.94.68-2.14-.56-2.14-.56l2.97-3.02-29.84.19c-1.51,0-1.5-2.12.01-2.13l29.84-.19-2.93-2.98s1.21-1.26,2.14-.59Z"/>
  <path class="cls-20" d="m418.46,181.97c1.23.9,4.45,4.61,4.45,4.61,0,0-3.26,3.75-4.51,4.66-.94.68-2.14-.56-2.14-.56l2.97-3.02-29.84.19c-1.51,0-1.5-2.12.01-2.13l29.84-.19-2.93-2.98s1.21-1.26,2.14-.59Z"/>
  <path class="cls-36" d="m390.9,209.52c.9,1.23,4.61,4.45,4.61,4.45,0,0,3.75-3.26,4.66-4.51.68-.94-.56-2.14-.56-2.14l-3.02,2.97.19-29.84c0-1.51-2.12-1.5-2.13.01l-.19,29.84-2.98-2.93s-1.26,1.21-.59,2.14Z"/>
  <path class="cls-14" d="m196.02,140.51c-.18-.22-.39-.42-.59-.59,3.31-3.76-4.43-6.09-4.53-1.52-.01,2.17-.02,3.88-.02,6.06-.77-.24-1.63.26-1.76,1.1-.08,2.12,2.05,1.76,2.82.83.29-.35.4-.63.5-1.7,2.9,1.54,5.17-1.67,3.58-4.18Zm-1.25,2.91c-.87.68-1.26.01-1.87-.16-.13-.04-.28-.03-.42.03,0-1.73,0-3.44.02-5.2-.15-.97,1.24-1.29,1.85-.63.51.55.42,1.49-.19,1.71-1.99-.53-1.8,2.34,0,1.62.85.25,1.48,1.74.61,2.63Z"/>
  <path class="cls-14" d="m326.83,142.72c-.65,0-.94.25-1.28.66-.17.19-.39,1.18-.75.55-.75-1.29.02-4.57,1.06-6.02.28-.37-.11-.59-.3-.7,0,0-.42-.22-.64-.14-.29.1-.6-.12-1.39,1.64-1.19-1.37-2.58-1.19-3.53-1.15-.84.04-3.37.97-3.37,3.93,0,3.55,3.05,4.21,3.97,4.21s2.48-.6,2.88-.96c.24.72.67,1.16,1.21,1.27.84.18,1.21-.24,1.55-.71.49-.67,1.06-2.57.59-2.58Zm-6.23,1c-1.22,0-2.22-1.01-2.22-2.23s1-2.22,2.22-2.22,2.23,1.01,2.23,2.22-1.01,2.23-2.23,2.23Z"/>
  <path class="cls-14" d="m397.26,142.72c-.65,0-.94.25-1.28.66-.17.19-.39,1.18-.75.55-.75-1.29.02-4.57,1.06-6.02.28-.37-.11-.59-.3-.7,0,0-.42-.22-.64-.14-.29.1-.6-.12-1.39,1.64-1.19-1.37-2.58-1.19-3.53-1.15-.84.04-3.37.97-3.37,3.93,0,3.55,3.05,4.21,3.97,4.21s2.48-.6,2.88-.96c.24.72.67,1.16,1.21,1.27.84.18,1.21-.24,1.55-.71.49-.67,1.06-2.57.59-2.58Zm-6.23,1c-1.22,0-2.22-1.01-2.22-2.23s1-2.22,2.22-2.22,2.23,1.01,2.23,2.22-1.01,2.23-2.23,2.23Z"/>
  <g>
    <path class="cls-14" d="m206.89,199.46c1.93,0,1.93-3,0-3s-1.93,3,0,3h0Z"/>
    <circle class="cls-14" cx="242.89" cy="197.96" r="3"/>
    <circle class="cls-14" cx="206.89" cy="233.96" r="3"/>
    <circle class="cls-14" cx="170.89" cy="197.96" r="3"/>
    <circle class="cls-14" cx="206.89" cy="161.96" r="3"/>
  </g>
  <path class="cls-36" d="m221.29,197.38h.35s0-.07,0-.1c0-1.1,0-2.19,0-3.29,0-.29.16-.51.42-.59.39-.12.76.17.76.59,0,.94,0,1.89,0,2.83,0,.18,0,.37,0,.56h.35s0-.06,0-.09c0-1.34,0-2.69,0-4.03,0-.35.25-.61.59-.61.34,0,.59.26.59.61,0,1.34,0,2.68,0,4.02,0,.03,0,.06,0,.1h.35v-.09c0-1.07,0-2.13,0-3.2,0-.32.21-.55.52-.6.32-.05.65.22.65.55,0,.41,0,.81,0,1.22,0,1.35,0,2.7,0,4.05,0,.08.02.16.1.2.09.05.18.02.24-.08.23-.38.45-.77.68-1.15.17-.3.47-.4.78-.26.32.13.44.5.25.82-.31.53-.62,1.07-.93,1.6-.23.39-.45.79-.69,1.17-.08.13-.19.24-.3.35-.45.44-.96.81-1.55,1.05-.53.22-1.08.32-1.65.27-1.04-.1-1.8-.61-2.29-1.52-.22-.42-.34-.86-.38-1.33-.02-.22-.03-.44-.03-.66,0-1.47,0-2.95,0-4.42,0-.35.27-.61.6-.6.32,0,.57.26.57.57,0,.67,0,1.34,0,2.01v.09Z"/>
  <path class="cls-20" d="m194.02,204.68c-1.23.9-4.45,4.61-4.45,4.61,0,0,3.26,3.75,4.51,4.66.94.68,2.14-.56,2.14-.56l-2.97-3.02,29.84.19c1.51,0,1.5-2.12-.01-2.13l-29.84-.19,2.93-2.98s-1.21-1.26-2.14-.59Z"/>
  <path class="cls-20" d="m192.5,197.38h-.35s0-.07,0-.1c0-1.1,0-2.19,0-3.29,0-.29-.16-.51-.42-.59-.39-.12-.76.17-.76.59,0,.94,0,1.89,0,2.83,0,.18,0,.37,0,.56h-.35s0-.06,0-.09c0-1.34,0-2.69,0-4.03,0-.35-.25-.61-.59-.61-.34,0-.59.26-.59.61,0,1.34,0,2.68,0,4.02,0,.03,0,.06,0,.1h-.35v-.09c0-1.07,0-2.13,0-3.2,0-.32-.21-.55-.52-.6-.32-.05-.65.22-.65.55,0,.41,0,.81,0,1.22,0,1.35,0,2.7,0,4.05,0,.08-.02.16-.1.2-.09.05-.18.02-.24-.08-.23-.38-.45-.77-.68-1.15-.17-.3-.47-.4-.78-.26-.32.13-.44.5-.25.82.31.53.62,1.07.93,1.6.23.39.45.79.69,1.17.08.13.19.24.3.35.45.44.96.81,1.55,1.05.53.22,1.08.32,1.65.27,1.04-.1,1.8-.61,2.29-1.52.22-.42.34-.86.38-1.33.02-.22.03-.44.03-.66,0-1.47,0-2.95,0-4.42,0-.35-.27-.61-.6-.6-.32,0-.57.26-.57.57,0,.67,0,1.34,0,2.01v.09Z"/>
  <g>
    <path class="cls-14" d="m306.89,199.46c1.93,0,1.93-3,0-3s-1.93,3,0,3h0Z"/>
    <circle class="cls-14" cx="342.89" cy="197.96" r="3"/>
    <circle class="cls-14" cx="306.89" cy="233.96" r="3"/>
    <circle class="cls-14" cx="270.89" cy="197.96" r="3"/>
    <circle class="cls-14" cx="306.89" cy="161.96" r="3"/>
  </g>
  <g>
    <path class="cls-14" d="m406.89,199.46c1.93,0,1.93-3,0-3s-1.93,3,0,3h0Z"/>
    <circle class="cls-14" cx="442.89" cy="197.96" r="3"/>
    <circle class="cls-14" cx="406.89" cy="233.96" r="3"/>
    <circle class="cls-14" cx="370.89" cy="197.96" r="3"/>
    <circle class="cls-14" cx="406.89" cy="161.96" r="3"/>
  </g>
  <path class="cls-36" d="m409.67,214.55h-.35s0-.07,0-.1c0-1.1,0-2.19,0-3.29,0-.29-.16-.51-.42-.59-.39-.12-.76.17-.76.59,0,.94,0,1.89,0,2.83,0,.18,0,.37,0,.56h-.35s0-.06,0-.09c0-1.34,0-2.69,0-4.03,0-.35-.25-.61-.59-.61-.34,0-.59.26-.59.61,0,1.34,0,2.68,0,4.02,0,.03,0,.06,0,.1h-.35v-.09c0-1.07,0-2.13,0-3.2,0-.32-.21-.55-.52-.6-.32-.05-.65.22-.65.55,0,.41,0,.81,0,1.22,0,1.35,0,2.7,0,4.05,0,.08-.02.16-.1.2-.09.05-.18.02-.24-.08-.23-.38-.45-.77-.68-1.15-.17-.3-.47-.4-.78-.26-.32.13-.44.5-.25.82.31.53.62,1.07.93,1.6.23.39.45.79.69,1.17.08.13.19.24.3.35.45.44.96.81,1.55,1.05.53.22,1.08.32,1.65.27,1.04-.1,1.8-.61,2.29-1.52.22-.42.34-.86.38-1.33.02-.22.03-.44.03-.66,0-1.47,0-2.95,0-4.42,0-.35-.27-.61-.6-.6-.32,0-.57.26-.57.57,0,.67,0,1.34,0,2.01v.09Z"/>
  <g>
    <path class="cls-20" d="m303.01,214.55h.35s0-.07,0-.1c0-1.1,0-2.19,0-3.29,0-.29.16-.51.42-.59.39-.12.76.17.76.59,0,.94,0,1.89,0,2.83,0,.18,0,.37,0,.56h.35s0-.06,0-.09c0-1.34,0-2.69,0-4.03,0-.35.25-.61.59-.61.34,0,.59.26.59.61,0,1.34,0,2.68,0,4.02,0,.03,0,.06,0,.1h.35v-.09c0-1.07,0-2.13,0-3.2,0-.32.21-.55.52-.6.32-.05.65.22.65.55,0,.41,0,.81,0,1.22,0,1.35,0,2.7,0,4.05,0,.08.02.16.1.2.09.05.18.02.24-.08.23-.38.45-.77.68-1.15.17-.3.47-.4.78-.26.32.13.44.5.25.82-.31.53-.62,1.07-.93,1.6-.23.39-.45.79-.69,1.17-.08.13-.19.24-.3.35-.45.44-.96.81-1.55,1.05-.53.22-1.08.32-1.65.27-1.04-.1-1.8-.61-2.29-1.52-.22-.42-.34-.86-.38-1.33-.02-.22-.03-.44-.03-.66,0-1.47,0-2.95,0-4.42,0-.35.27-.61.6-.6.32,0,.57.26.57.57,0,.67,0,1.34,0,2.01v.09Z"/>
    <path class="cls-36" d="m310.78,214.55h-.35s0-.07,0-.1c0-1.1,0-2.19,0-3.29,0-.29-.16-.51-.42-.59-.39-.12-.76.17-.76.59,0,.94,0,1.89,0,2.83,0,.18,0,.37,0,.56h-.35s0-.06,0-.09c0-1.34,0-2.69,0-4.03,0-.35-.25-.61-.59-.61-.34,0-.59.26-.59.61,0,1.34,0,2.68,0,4.02,0,.03,0,.06,0,.1h-.35v-.09c0-1.07,0-2.13,0-3.2,0-.32-.21-.55-.52-.6-.32-.05-.65.22-.65.55,0,.41,0,.81,0,1.22,0,1.35,0,2.7,0,4.05,0,.08-.02.16-.1.2-.09.05-.18.02-.24-.08-.23-.38-.45-.77-.68-1.15-.17-.3-.47-.4-.78-.26-.32.13-.44.5-.25.82.31.53.62,1.07.93,1.6.23.39.45.79.69,1.17.08.13.19.24.3.35.45.44.96.81,1.55,1.05.53.22,1.08.32,1.65.27,1.04-.1,1.8-.61,2.29-1.52.22-.42.34-.86.38-1.33.02-.22.03-.44.03-.66,0-1.47,0-2.95,0-4.42,0-.35-.27-.61-.6-.6-.32,0-.57.26-.57.57,0,.67,0,1.34,0,2.01v.09Z"/>
  </g>
  <path class="cls-36" d="m323.23,210.83c-.9,1.23-4.61,4.45-4.61,4.45,0,0-3.75-3.26-4.66-4.51-.68-.94.56-2.14.56-2.14l3.02,2.97-.19-29.84c0-1.51,2.12-1.5,2.13.01l.19,29.84,2.98-2.93s1.26,1.21.59,2.14Z"/>
  <path class="cls-20" d="m290.56,210.83c.9,1.23,4.61,4.45,4.61,4.45,0,0,3.75-3.26,4.66-4.51.68-.94-.56-2.14-.56-2.14l-3.02,2.97.19-29.84c0-1.51-2.12-1.5-2.13.01l-.19,29.84-2.98-2.93s-1.26,1.21-.59,2.14Z"/>
  <path class="cls-20" d="m421.29,197.38h.35s0-.07,0-.1c0-1.1,0-2.19,0-3.29,0-.29.16-.51.42-.59.39-.12.76.17.76.59,0,.94,0,1.89,0,2.83,0,.18,0,.37,0,.56h.35s0-.06,0-.09c0-1.34,0-2.69,0-4.03,0-.35.25-.61.59-.61.34,0,.59.26.59.61,0,1.34,0,2.68,0,4.02,0,.03,0,.06,0,.1h.35v-.09c0-1.07,0-2.13,0-3.2,0-.32.21-.55.52-.6.32-.05.65.22.65.55,0,.41,0,.81,0,1.22,0,1.35,0,2.7,0,4.05,0,.08.02.16.1.2.09.05.18.02.24-.08.23-.38.45-.77.68-1.15.17-.3.47-.4.78-.26.32.13.44.5.25.82-.31.53-.62,1.07-.93,1.6-.23.39-.45.79-.69,1.17-.08.13-.19.24-.3.35-.45.44-.96.81-1.55,1.05-.53.22-1.08.32-1.65.27-1.04-.1-1.8-.61-2.29-1.52-.22-.42-.34-.86-.38-1.33-.02-.22-.03-.44-.03-.66,0-1.47,0-2.95,0-4.42,0-.35.27-.61.6-.6.32,0,.57.26.57.57,0,.67,0,1.34,0,2.01v.09Z"/>
  <path class="cls-14" d="m200.36,140.8h10.69l-1.95-2.21.87-.83,3.45,3.32v.97l-3.45,3.32-.87-.83,1.95-2.21h-10.69v-1.52Z"/>
  <path class="cls-14" d="m300.36,140.8h10.69l-1.95-2.21.87-.83,3.45,3.32v.97l-3.45,3.32-.87-.83,1.95-2.21h-10.69v-1.52Z"/>
  <path class="cls-14" d="m400.36,140.8h10.69l-1.95-2.21.87-.83,3.45,3.32v.97l-3.45,3.32-.87-.83,1.95-2.21h-10.69v-1.52Z"/>
</svg>