<?xml version="1.0" encoding="UTF-8"?>
<svg id="Layer_1" data-name="Layer 1" xmlns="http://www.w3.org/2000/svg" viewBox="0 0 612 792">
  <defs>
    <style>
      .cls-1 {
        letter-spacing: -.08em;
      }

      .cls-2 {
        letter-spacing: 0em;
      }

      .cls-3 {
        letter-spacing: -.02em;
      }

      .cls-4, .cls-5, .cls-6, .cls-7, .cls-8, .cls-9, .cls-10, .cls-11 {
        font-family: Cambria, Cambria;
      }

      .cls-4, .cls-12 {
        letter-spacing: -.02em;
      }

      .cls-13, .cls-10 {
        letter-spacing: -.01em;
      }

      .cls-14, .cls-15, .cls-16, .cls-6, .cls-17, .cls-18, .cls-19, .cls-20 {
        fill: #231f20;
      }

      .cls-14, .cls-16, .cls-21, .cls-22, .cls-19, .cls-23 {
        font-style: italic;
      }

      .cls-14, .cls-16, .cls-19 {
        font-family: Cambria-Italic, Cambria;
      }

      .cls-14, .cls-18 {
        font-size: 14px;
      }

      .cls-24 {
        letter-spacing: -.03em;
      }

      .cls-5, .cls-25 {
        letter-spacing: 0em;
      }

      .cls-15 {
        font-size: 40px;
      }

      .cls-15, .cls-17 {
        font-family: MonotypeCorsiva, 'Monotype Corsiva';
      }

      .cls-26 {
        font-family: Cambria-Bold, Cambria;
      }

      .cls-26, .cls-21, .cls-22, .cls-23 {
        font-weight: 700;
      }

      .cls-27 {
        letter-spacing: -.07em;
      }

      .cls-16 {
        font-size: 20px;
      }

      .cls-6, .cls-19 {
        font-size: 12px;
      }

      .cls-28 {
        letter-spacing: -.03em;
      }

      .cls-29 {
        letter-spacing: -.01em;
      }

      .cls-30 {
        letter-spacing: -.08em;
      }

      .cls-7, .cls-31 {
        letter-spacing: -.02em;
      }

      .cls-32 {
        letter-spacing: 2.35em;
      }

      .cls-21 {
        letter-spacing: 0em;
      }

      .cls-21, .cls-22, .cls-23 {
        font-family: Cambria-BoldItalic, Cambria;
      }

      .cls-33 {
        letter-spacing: 0em;
      }

      .cls-17 {
        font-size: 30px;
      }

      .cls-34 {
        letter-spacing: -.02em;
      }

      .cls-8, .cls-35 {
        letter-spacing: -.01em;
      }

      .cls-36 {
        letter-spacing: 0em;
      }

      .cls-37, .cls-23 {
        letter-spacing: 0em;
      }

      .cls-38 {
        letter-spacing: -.01em;
      }

      .cls-9, .cls-39 {
        letter-spacing: -.02em;
      }

      .cls-40 {
        fill: #ed1c24;
      }

      .cls-41 {
        letter-spacing: 0em;
      }

      .cls-42 {
        letter-spacing: -.03em;
      }

      .cls-43 {
        letter-spacing: .01em;
      }

      .cls-44 {
        fill: none;
        stroke: #231f20;
        stroke-miterlimit: 10;
        stroke-width: .5px;
      }

      .cls-45 {
        letter-spacing: -.02em;
      }
    </style>
  </defs>
  <text class="cls-15" transform="translate(100.96 40.47)"><tspan x="0" y="0">Negative Space / Body Turns</tspan></text>
  <text class="cls-18" transform="translate(306.9 56.69)"><tspan class="cls-11"><tspan x="0" y="0"> </tspan></tspan><tspan class="cls-11"><tspan x="-286.17" y="16.8">Ma</tspan><tspan class="cls-31" x="-267.92" y="16.8">n</tspan><tspan x="-260.38" y="16.8">y sequences seem impossible, but most can be so</tspan><tspan class="cls-12" x="31.12" y="16.8">l</tspan><tspan class="cls-31" x="34.64" y="16.8">v</tspan><tspan x="41.42" y="16.8">ed </tspan><tspan class="cls-35" x="59.1" y="16.8">b</tspan><tspan x="66.56" y="16.8">y using ne</tspan><tspan class="cls-33" x="126.79" y="16.8">g</tspan><tspan x="133.59" y="16.8">at</tspan><tspan class="cls-12" x="145.16" y="16.8">i</tspan><tspan class="cls-31" x="148.77" y="16.8">v</tspan><tspan x="155.56" y="16.8">e space or bo</tspan><tspan class="cls-12" x="233.59" y="16.8">d</tspan><tspan x="241.07" y="16.8">y turns. </tspan></tspan><tspan class="cls-22" x="-212.16" y="33.6">Ne</tspan><tspan class="cls-21" x="-195.92" y="33.6">g</tspan><tspan class="cls-22" x="-188.11" y="33.6">at</tspan><tspan class="cls-23" x="-175.04" y="33.6">iv</tspan><tspan class="cls-22" x="-163.95" y="33.6">e spa</tspan><tspan class="cls-23" x="-131.71" y="33.6">c</tspan><tspan class="cls-22" x="-125.45" y="33.6">e</tspan><tspan class="cls-11" x="-118.47" y="33.6" xml:space="preserve"> lets </tspan><tspan class="cls-7" x="-90.92" y="33.6">y</tspan><tspan class="cls-11" x="-84.14" y="33.6">ou </tspan><tspan class="cls-10" x="-65.9" y="33.6">f</tspan><tspan class="cls-11" x="-61.82" y="33.6">ace the audience and </tspan><tspan class="cls-8" x="65.92" y="33.6">r</tspan><tspan class="cls-11" x="71.5" y="33.6">educes bo</tspan><tspan class="cls-4" x="131.02" y="33.6">d</tspan><tspan class="cls-11" x="138.51" y="33.6">y m</tspan><tspan class="cls-8" x="160.3" y="33.6">o</tspan><tspan class="cls-7" x="167.52" y="33.6">v</tspan><tspan class="cls-11" x="174.3" y="33.6">ement</tspan><tspan class="cls-22" x="-228.44" y="50.4">Bo</tspan><tspan class="cls-23" x="-212.13" y="50.4">d</tspan><tspan class="cls-22" x="-204.22" y="50.4">y turns</tspan><tspan class="cls-11" x="-160.08" y="50.4" xml:space="preserve"> add m</tspan><tspan class="cls-8" x="-119.9" y="50.4">o</tspan><tspan class="cls-7" x="-112.68" y="50.4">v</tspan><tspan class="cls-11" x="-105.9" y="50.4">ement and help </tspan><tspan class="cls-7" x="-10.23" y="50.4">y</tspan><tspan class="cls-11" x="-3.45" y="50.4">ou </tspan><tspan class="cls-10" x="14.79" y="50.4">e</tspan><tspan class="cls-9" x="21.46" y="50.4">x</tspan><tspan class="cls-11" x="27.92" y="50.4">ecu</tspan><tspan class="cls-5" x="48.65" y="50.4">t</tspan><tspan class="cls-11" x="53.27" y="50.4">e pat</tspan><tspan class="cls-5" x="82.54" y="50.4">t</tspan><tspan class="cls-11" x="87.15" y="50.4">erns with longer st</tspan><tspan class="cls-7" x="199.38" y="50.4">av</tspan><tspan class="cls-11" x="212.72" y="50.4">es. </tspan><tspan class="cls-11"><tspan x="-231.54" y="67.2">Each method is equal</tspan><tspan class="cls-12" x="-104.61" y="67.2">l</tspan><tspan x="-101.09" y="67.2">y importan</tspan><tspan class="cls-43" x="-35.02" y="67.2">t</tspan><tspan x="-30.07" y="67.2">, and learning both will maximize capabilit</tspan><tspan class="cls-30" x="222.77" y="67.2">y</tspan><tspan x="228.67" y="67.2">.</tspan></tspan><tspan class="cls-11"><tspan x="-213.6" y="84">This guide will assume some kn</tspan><tspan class="cls-37" x="-24.63" y="84">o</tspan><tspan class="cls-41" x="-17.27" y="84">w</tspan><tspan x="-6.56" y="84">ledge of these fundamental concepts. </tspan></tspan><tspan class="cls-11"><tspan x="0" y="100.8"> </tspan></tspan><tspan class="cls-11"><tspan class="cls-1" x="-261.68" y="117.6">T</tspan><tspan x="-254.52" y="117.6">o ma</tspan><tspan class="cls-3" x="-225.52" y="117.6">k</tspan><tspan x="-218.42" y="117.6">e the most of the Alphabe</tspan><tspan class="cls-43" x="-66.73" y="117.6">t</tspan><tspan x="-61.78" y="117.6">, it’s hi</tspan><tspan class="cls-36" x="-23.39" y="117.6">g</tspan><tspan x="-16.57" y="117.6">h</tspan><tspan class="cls-12" x="-8.85" y="117.6">l</tspan><tspan x="-5.33" y="117.6">y </tspan><tspan class="cls-35" x="4.81" y="117.6">r</tspan><tspan x="10.4" y="117.6">ecommended that </tspan><tspan class="cls-31" x="121.33" y="117.6">y</tspan><tspan x="128.11" y="117.6">ou learn the </tspan><tspan class="cls-29" x="202.88" y="117.6">f</tspan><tspan x="206.95" y="117.6">oll</tspan><tspan class="cls-37" x="221.98" y="117.6">o</tspan><tspan x="229.35" y="117.6">wing. </tspan></tspan></text>
  <text class="cls-18" transform="translate(91.82 640.93)"><tspan class="cls-11"><tspan class="cls-1" x="0" y="0">T</tspan><tspan x="7.16" y="0">o </tspan><tspan class="cls-13" x="17.68" y="0">e</tspan><tspan class="cls-39" x="24.34" y="0">x</tspan><tspan x="30.8" y="0">ecu</tspan><tspan class="cls-25" x="51.54" y="0">t</tspan><tspan x="56.15" y="0">e this in </tspan><tspan class="cls-45" x="106.3" y="0">w</tspan><tspan x="116.88" y="0">all plane, </tspan><tspan class="cls-31" x="173.42" y="0">y</tspan><tspan x="180.2" y="0">ou must do one of the </tspan><tspan class="cls-29" x="312.22" y="0">f</tspan><tspan x="316.29" y="0">oll</tspan><tspan class="cls-37" x="331.32" y="0">o</tspan><tspan x="338.69" y="0">wing on beat 2:</tspan></tspan><tspan class="cls-11"><tspan x="-76.82" y="33.6">• </tspan><tspan class="cls-31" x="-67.53" y="33.6">P</tspan><tspan x="-59.85" y="33.6">ass the thumb end th</tspan><tspan class="cls-35" x="65.02" y="33.6">r</tspan><tspan x="70.6" y="33.6">ou</tspan><tspan class="cls-36" x="85.76" y="33.6">g</tspan><tspan x="92.58" y="33.6">h the ne</tspan><tspan class="cls-33" x="140.41" y="33.6">g</tspan><tspan x="147.21" y="33.6">at</tspan><tspan class="cls-12" x="158.78" y="33.6">i</tspan><tspan class="cls-31" x="162.39" y="33.6">v</tspan><tspan x="169.17" y="33.6">e space ab</tspan><tspan class="cls-35" x="230.31" y="33.6">o</tspan><tspan class="cls-31" x="237.53" y="33.6">v</tspan><tspan x="244.32" y="33.6">e </tspan><tspan class="cls-31" x="254.23" y="33.6">y</tspan><tspan x="261.01" y="33.6">our ri</tspan><tspan class="cls-36" x="294.72" y="33.6">g</tspan><tspan x="301.55" y="33.6">ht shoulder on beat 2.</tspan></tspan><tspan class="cls-11"><tspan x="-76.82" y="50.4">• </tspan><tspan class="cls-34" x="-67.53" y="50.4">T</tspan><tspan x="-59.57" y="50.4">urn </tspan><tspan class="cls-31" x="-35.15" y="50.4">y</tspan><tspan x="-28.37" y="50.4">our </tspan><tspan class="cls-25" x="-4.34" y="50.4">t</tspan><tspan x=".28" y="50.4">orso </tspan><tspan class="cls-25" x="30.03" y="50.4">t</tspan><tspan x="34.64" y="50.4">o the left on beat 2 and pass the thumb end in f</tspan><tspan class="cls-35" x="313.24" y="50.4">r</tspan><tspan x="318.83" y="50.4">on</tspan><tspan class="cls-43" x="334.07" y="50.4">t</tspan><tspan x="339.01" y="50.4">, then pass the pinky end on </tspan></tspan><tspan class="cls-11"><tspan x="-76.82" y="67.2">the inside of </tspan><tspan class="cls-31" x="-.4" y="67.2">y</tspan><tspan x="6.38" y="67.2">our ri</tspan><tspan class="cls-36" x="40.09" y="67.2">g</tspan><tspan x="46.91" y="67.2">ht arm as </tspan><tspan class="cls-31" x="105.75" y="67.2">y</tspan><tspan x="112.53" y="67.2">ou m</tspan><tspan class="cls-35" x="142.43" y="67.2">o</tspan><tspan class="cls-31" x="149.65" y="67.2">v</tspan><tspan x="156.43" y="67.2">e </tspan><tspan class="cls-25" x="166.34" y="67.2">t</tspan><tspan x="170.96" y="67.2">o beat 3. </tspan></tspan><tspan class="cls-26"><tspan x="12.25" y="100.8">P</tspan><tspan class="cls-3" x="20.84" y="100.8">r</tspan><tspan x="27.06" y="100.8">acti</tspan><tspan class="cls-2" x="50.63" y="100.8">c</tspan><tspan x="57.11" y="100.8">e it in </tspan><tspan class="cls-35" x="96.15" y="100.8">r</tspan><tspan class="cls-3" x="102.41" y="100.8">e</tspan><tspan class="cls-24" x="109.6" y="100.8">v</tspan><tspan x="116.63" y="100.8">ers</tspan><tspan class="cls-41" x="136.95" y="100.8">e</tspan><tspan x="144.25" y="100.8">, then do both di</tspan><tspan class="cls-35" x="247.98" y="100.8">r</tspan><tspan x="254.24" y="100.8">ections in the other hand.</tspan></tspan><tspan class="cls-26"><tspan x="44.19" y="117.6">Then p</tspan><tspan class="cls-3" x="88.82" y="117.6">r</tspan><tspan x="95.04" y="117.6">acti</tspan><tspan class="cls-2" x="118.61" y="117.6">c</tspan><tspan x="125.08" y="117.6">e it all a</tspan><tspan class="cls-33" x="174.89" y="117.6">g</tspan><tspan x="182.05" y="117.6">ain starting with the thumb ou</tspan><tspan class="cls-43" x="377.39" y="117.6">t</tspan><tspan x="382.71" y="117.6">.</tspan></tspan><tspan class="cls-26"><tspan class="cls-28" x="50.12" y="134.4">T</tspan><tspan x="58.59" y="134.4">ry using both ne</tspan><tspan class="cls-33" x="162.24" y="134.4">g</tspan><tspan x="169.41" y="134.4">at</tspan><tspan class="cls-42" x="182.01" y="134.4">i</tspan><tspan class="cls-24" x="186.05" y="134.4">v</tspan><tspan x="193.08" y="134.4">e spa</tspan><tspan class="cls-2" x="225.87" y="134.4">c</tspan><tspan x="232.35" y="134.4">e and turns. Good luck!</tspan></tspan></text>
  <text class="cls-17" transform="translate(8.43 499.52)"><tspan x="0" y="0">4-Petal Antispin</tspan></text>
  <text class="cls-18" transform="translate(16.21 361.49)"><tspan class="cls-11"><tspan class="cls-32" x="0" y="0">	</tspan><tspan class="cls-1" x="36" y="0">T</tspan><tspan x="43.16" y="0">o </tspan><tspan class="cls-13" x="53.68" y="0">e</tspan><tspan class="cls-39" x="60.34" y="0">x</tspan><tspan x="66.8" y="0">ecu</tspan><tspan class="cls-25" x="87.54" y="0">t</tspan><tspan x="92.15" y="0">e this without finger-spinning, turn </tspan><tspan class="cls-31" x="304.86" y="0">y</tspan><tspan x="311.65" y="0">our </tspan><tspan class="cls-25" x="335.68" y="0">t</tspan><tspan x="340.29" y="0">orso </tspan><tspan class="cls-25" x="370.04" y="0">t</tspan><tspan x="374.66" y="0">o the left on beat 3. During this </tspan></tspan><tspan class="cls-11"><tspan x="0" y="16.8">bea</tspan><tspan class="cls-43" x="21.33" y="16.8">t</tspan><tspan x="26.27" y="16.8">, the staff m</tspan><tspan class="cls-35" x="95.4" y="16.8">o</tspan><tspan class="cls-31" x="102.62" y="16.8">v</tspan><tspan x="109.4" y="16.8">es brief</tspan><tspan class="cls-12" x="153.74" y="16.8">l</tspan><tspan x="157.26" y="16.8">y in </tspan><tspan class="cls-41" x="182.18" y="16.8">w</tspan><tspan x="192.89" y="16.8">heel-plane </tspan><tspan class="cls-35" x="258.87" y="16.8">r</tspan><tspan x="264.46" y="16.8">elat</tspan><tspan class="cls-12" x="286.66" y="16.8">i</tspan><tspan class="cls-31" x="290.27" y="16.8">v</tspan><tspan x="297.05" y="16.8">e </tspan><tspan class="cls-25" x="306.96" y="16.8">t</tspan><tspan x="311.58" y="16.8">o </tspan><tspan class="cls-31" x="322.09" y="16.8">y</tspan><tspan x="328.87" y="16.8">our left-</tspan><tspan class="cls-13" x="377.16" y="16.8">f</tspan><tspan x="381.23" y="16.8">acing vie</tspan><tspan class="cls-27" x="433.72" y="16.8">w</tspan><tspan x="443.54" y="16.8" xml:space="preserve">.  On beat 4, turn </tspan><tspan class="cls-31" x="544.63" y="16.8">y</tspan><tspan x="551.41" y="16.8">our </tspan></tspan><tspan class="cls-11"><tspan x="0" y="33.6">bo</tspan><tspan class="cls-12" x="15.09" y="33.6">d</tspan><tspan x="22.58" y="33.6">y back </tspan><tspan class="cls-25" x="63.81" y="33.6">t</tspan><tspan x="68.43" y="33.6">o cen</tspan><tspan class="cls-25" x="99.76" y="33.6">t</tspan><tspan x="104.37" y="33.6">er as </tspan><tspan class="cls-31" x="136.01" y="33.6">y</tspan><tspan x="142.79" y="33.6">ou </tspan><tspan class="cls-35" x="161.03" y="33.6">r</tspan><tspan x="166.62" y="33.6">eturn </tspan><tspan class="cls-25" x="202.6" y="33.6">t</tspan><tspan x="207.22" y="33.6">o the start position.</tspan></tspan><tspan class="cls-26"><tspan x="87.86" y="67.2">P</tspan><tspan class="cls-3" x="96.45" y="67.2">r</tspan><tspan x="102.67" y="67.2">acti</tspan><tspan class="cls-2" x="126.24" y="67.2">c</tspan><tspan x="132.72" y="67.2">e it in </tspan><tspan class="cls-35" x="171.76" y="67.2">r</tspan><tspan class="cls-3" x="178.02" y="67.2">e</tspan><tspan class="cls-24" x="185.21" y="67.2">v</tspan><tspan x="192.24" y="67.2">ers</tspan><tspan class="cls-41" x="212.56" y="67.2">e</tspan><tspan x="219.85" y="67.2">, then do both di</tspan><tspan class="cls-35" x="323.59" y="67.2">r</tspan><tspan x="329.84" y="67.2">ections in the other hand.</tspan></tspan><tspan class="cls-26"><tspan x="98.68" y="84">Then p</tspan><tspan class="cls-3" x="143.3" y="84">r</tspan><tspan x="149.52" y="84">acti</tspan><tspan class="cls-2" x="173.09" y="84">c</tspan><tspan x="179.57" y="84">e it with the thumb ou</tspan><tspan class="cls-43" x="320.77" y="84">t</tspan><tspan x="326.09" y="84">, isolating the pin</tspan><tspan class="cls-41" x="436.54" y="84">k</tspan><tspan x="444.69" y="84">y end.</tspan></tspan></text>
  <text class="cls-17" transform="translate(8.43 228.69)"><tspan x="0" y="0">360° Isolation</tspan></text>
  <g>
    <g>
      <g>
        <path class="cls-20" d="m230.08,573.96c1.93,0,1.93-3,0-3s-1.93,3,0,3h0Z"/>
        <circle class="cls-20" cx="266.08" cy="572.46" r="3"/>
        <circle class="cls-20" cx="230.08" cy="608.46" r="3"/>
        <circle class="cls-20" cx="194.08" cy="572.46" r="3"/>
        <circle class="cls-20" cx="230.08" cy="536.46" r="3"/>
      </g>
      <g>
        <path class="cls-20" d="m330.08,573.96c1.93,0,1.93-3,0-3s-1.93,3,0,3h0Z"/>
        <circle class="cls-20" cx="366.08" cy="572.46" r="3"/>
        <circle class="cls-20" cx="330.08" cy="608.46" r="3"/>
        <circle class="cls-20" cx="294.08" cy="572.46" r="3"/>
        <circle class="cls-20" cx="330.08" cy="536.46" r="3"/>
      </g>
      <g>
        <path class="cls-20" d="m430.08,573.96c1.93,0,1.93-3,0-3s-1.93,3,0,3h0Z"/>
        <circle class="cls-20" cx="466.08" cy="572.46" r="3"/>
        <circle class="cls-20" cx="430.08" cy="608.46" r="3"/>
        <circle class="cls-20" cx="394.08" cy="572.46" r="3"/>
        <circle class="cls-20" cx="430.08" cy="536.46" r="3"/>
      </g>
      <g>
        <path class="cls-20" d="m530.08,573.96c1.93,0,1.93-3,0-3s-1.93,3,0,3h0Z"/>
        <circle class="cls-20" cx="566.08" cy="572.46" r="3"/>
        <circle class="cls-20" cx="530.08" cy="608.46" r="3"/>
        <circle class="cls-20" cx="494.08" cy="572.46" r="3"/>
        <circle class="cls-20" cx="530.08" cy="536.46" r="3"/>
      </g>
      <g>
        <path class="cls-40" d="m119.96,574.71h5.4c.45,0,.81.36.81.8,0,.44-.37.8-.81.8h-1.8v19.66c0,.43-.36.78-.8.78h-.3c-.43,0-.8-.35-.8-.78v-19.66s-1.71,0-1.71,0c-.45,0-.81-.36-.81-.8s.36-.8.81-.8Z"/>
        <g>
          <path class="cls-20" d="m95.3,574.71c-2.9,0-2.9-4.5,0-4.5s2.9,4.5,0,4.5h0Z"/>
          <path class="cls-20" d="m122.67,547.35c-2.9,0-2.9-4.5,0-4.5,2.9,0,2.9,4.5,0,4.5h0Z"/>
          <path class="cls-20" d="m150.03,574.71c-2.9,0-2.9-4.5,0-4.5,2.9,0,2.9,4.5,0,4.5h0Z"/>
          <path class="cls-20" d="m122.67,602.08c-2.9,0-2.9-4.5,0-4.5s2.9,4.5,0,4.5h0Z"/>
        </g>
        <path class="cls-20" d="m122.67,573.55c1.4,0,1.4-2.17,0-2.17s-1.4,2.17,0,2.17h0Z"/>
      </g>
      <path class="cls-40" d="m262.48,568.86v7.2c0,.59-.48,1.09-1.07,1.09-.58,0-1.07-.49-1.07-1.09v-2.4h-26.22c-.58,0-1.05-.48-1.05-1.06v-.4c0-.58.47-1.06,1.05-1.06h26.22s0-2.28,0-2.28c0-.6.48-1.09,1.07-1.09s1.07.48,1.07,1.09Z"/>
      <path class="cls-40" d="m333.68,569.46h-7.2c-.59,0-1.09-.48-1.09-1.07,0-.58.49-1.07,1.09-1.07h2.4s0-26.22,0-26.22c0-.58.48-1.05,1.06-1.05h.4c.58,0,1.06.47,1.06,1.05v26.22s2.28,0,2.28,0c.6,0,1.09.48,1.09,1.07,0,.59-.48,1.07-1.09,1.07Z"/>
      <path class="cls-40" d="m397.68,576.07v-7.2c0-.59.48-1.09,1.07-1.09.58,0,1.07.49,1.07,1.09v2.4s26.22,0,26.22,0c.58,0,1.05.48,1.05,1.06v.4c0,.58-.47,1.06-1.05,1.06h-26.22s0,2.28,0,2.28c0,.6-.48,1.09-1.07,1.09s-1.07-.48-1.07-1.09Z"/>
      <path class="cls-40" d="m526.48,575.46h7.2c.59,0,1.09.48,1.09,1.07,0,.58-.49,1.07-1.09,1.07h-2.4v26.22c0,.58-.48,1.05-1.06,1.05h-.4c-.58,0-1.06-.47-1.06-1.05v-26.22s-2.28,0-2.28,0c-.6,0-1.09-.48-1.09-1.07s.48-1.07,1.09-1.07Z"/>
      <path class="cls-40" d="m236.53,607.2c0-23.28,1.56-25.52,24.18-25.52l-3.27-3.19s1.25-1.32,2.24-.6c1.41,1.03,4.74,4.9,4.74,4.9,0,0-3.61,4.05-4.74,4.88-.99.73-2.24-.57-2.24-.57l3.27-3.07c-20.73,0-21.69,1.2-21.69,23.14,0,1.81-2.49,1.81-2.49.04Z"/>
      <path class="cls-40" d="m364.82,566.01c-23.28,0-25.52-1.56-25.52-24.18l-3.19,3.27s-1.32-1.25-.6-2.24c1.03-1.41,4.9-4.74,4.9-4.74,0,0,4.05,3.61,4.88,4.74.73.99-.57,2.24-.57,2.24l-3.07-3.27c0,20.73,1.2,21.69,23.14,21.69,1.81,0,1.81,2.49.04,2.49Z"/>
      <path class="cls-40" d="m423.63,537.73c0,23.28-1.56,25.52-24.18,25.52l3.27,3.19s-1.25,1.32-2.24.6c-1.41-1.03-4.74-4.9-4.74-4.9,0,0,3.61-4.05,4.74-4.88.99-.73,2.24.57,2.24.57l-3.27,3.07c20.73,0,21.69-1.2,21.69-23.14,0-1.81,2.49-1.81,2.49-.04Z"/>
      <path class="cls-40" d="m495.34,578.91c23.28,0,25.52,1.56,25.52,24.18l3.19-3.27s1.32,1.25.6,2.24c-1.03,1.41-4.9,4.74-4.9,4.74,0,0-4.05-3.61-4.88-4.74-.73-.99.57-2.24.57-2.24l3.07,3.27c0-20.73-1.2-21.69-23.14-21.69-1.81,0-1.81-2.49-.04-2.49Z"/>
      <text class="cls-14" transform="translate(108.68 536.83)"><tspan x="0" y="0">s</tspan><tspan class="cls-36" x="5.35" y="0">t</tspan><tspan x="10.08" y="0">art</tspan></text>
    </g>
    <text class="cls-19" transform="translate(40.94 566.42)"><tspan x="0" y="0">s</tspan><tspan class="cls-36" x="4.58" y="0">t</tspan><tspan x="8.64" y="0">art </tspan><tspan x="-10.55" y="14.4">thumb in</tspan></text>
  </g>
  <g>
    <path class="cls-40" d="m236.45,328.04c14.27,0,27.22-11.49,27.26-25.66l2.89,3.18s1.34-1.21.64-2.22c-.78-1.14-4.71-4.9-4.71-4.9,0,0-3.98,3.19-5.05,4.56-.76.97.52,2.27.52,2.27l3.33-3.13c-.03,10.71-8.78,22.54-24.89,23.4-1.88.1-1.94,2.5,0,2.5Z"/>
    <path class="cls-40" d="m232.6,296.67v-7.2c0-.59.48-1.09,1.07-1.09.58,0,1.07.49,1.07,1.09v2.4h26.22c.58,0,1.05.48,1.05,1.06v.4c0,.58-.47,1.06-1.05,1.06h-26.22s0,2.28,0,2.28c0,.6-.48,1.09-1.07,1.09s-1.07-.48-1.07-1.09Z"/>
    <path class="cls-40" d="m365.11,286.75c0-14.27-11.49-27.22-25.66-27.26l3.18-2.89s-1.21-1.34-2.22-.64c-1.14.78-4.9,4.71-4.9,4.71,0,0,3.19,3.98,4.56,5.05.97.76,2.27-.52,2.27-.52l-3.13-3.33c10.71.03,22.54,8.78,23.4,24.89.1,1.88,2.5,1.94,2.5,0Z"/>
    <path class="cls-40" d="m333.74,290.59h-7.2c-.59,0-1.09-.48-1.09-1.07,0-.58.49-1.07,1.09-1.07h2.4s0-26.22,0-26.22c0-.58.48-1.05,1.06-1.05h.4c.58,0,1.06.47,1.06,1.05v26.22s2.28,0,2.28,0c.6,0,1.09.48,1.09,1.07,0,.59-.48,1.07-1.09,1.07Z"/>
    <path class="cls-40" d="m423.93,259.26c-14.27,0-27.22,11.49-27.26,25.66l-2.89-3.18s-1.34,1.21-.64,2.22c.78,1.14,4.71,4.9,4.71,4.9,0,0,3.98-3.19,5.05-4.56.76-.97-.52-2.27-.52-2.27l-3.33,3.13c.03-10.71,8.78-22.54,24.89-23.4,1.88-.1,1.94-2.5,0-2.5Z"/>
    <path class="cls-40" d="m427.66,289.46v7.2c0,.59-.48,1.09-1.07,1.09-.58,0-1.07-.49-1.07-1.09v-2.4s-26.22,0-26.22,0c-.58,0-1.05-.48-1.05-1.06v-.4c0-.58.47-1.06,1.05-1.06h26.22s0-2.28,0-2.28c0-.6.48-1.09,1.07-1.09s1.07.48,1.07,1.09Z"/>
    <path class="cls-40" d="m494.88,303.18c0,14.27,11.49,27.22,25.66,27.26l-3.18,2.89s1.21,1.34,2.22.64c1.14-.78,4.9-4.71,4.9-4.71,0,0-3.19-3.98-4.56-5.05-.97-.76-2.27.52-2.27.52l3.13,3.33c-10.71-.03-22.54-8.78-23.4-24.89-.1-1.88-2.5-1.94-2.5,0Z"/>
    <path class="cls-40" d="m526.53,295.53h7.2c.59,0,1.09.48,1.09,1.07,0,.58-.49,1.07-1.09,1.07h-2.4v26.22c0,.58-.48,1.05-1.06,1.05h-.4c-.58,0-1.06-.47-1.06-1.05v-26.22s-2.28,0-2.28,0c-.6,0-1.09-.48-1.09-1.07,0-.59.48-1.07,1.09-1.07Z"/>
    <g>
      <path class="cls-40" d="m120.02,295.09h5.4c.45,0,.81.36.81.8,0,.44-.37.8-.81.8h-1.8v19.66c0,.43-.36.78-.8.78h-.3c-.43,0-.8-.35-.8-.78v-19.66s-1.71,0-1.71,0c-.45,0-.81-.36-.81-.8s.36-.8.81-.8Z"/>
      <g>
        <path class="cls-20" d="m95.36,295.31c-2.9,0-2.9-4.5,0-4.5s2.9,4.5,0,4.5h0Z"/>
        <path class="cls-20" d="m122.72,267.95c-2.9,0-2.9-4.5,0-4.5,2.9,0,2.9,4.5,0,4.5h0Z"/>
        <path class="cls-20" d="m150.08,295.31c-2.9,0-2.9-4.5,0-4.5,2.9,0,2.9,4.5,0,4.5h0Z"/>
        <path class="cls-20" d="m122.72,322.68c-2.9,0-2.9-4.5,0-4.5s2.9,4.5,0,4.5h0Z"/>
      </g>
      <path class="cls-20" d="m122.72,294.15c1.4,0,1.4-2.18,0-2.18s-1.4,2.18,0,2.18h0Z"/>
    </g>
    <g>
      <text class="cls-6" transform="translate(190.65 259.26)"><tspan x="0" y="0">1</tspan></text>
      <text class="cls-6" transform="translate(288.77 259.26)"><tspan x="0" y="0">2</tspan></text>
      <text class="cls-6" transform="translate(388.77 259.26)"><tspan x="0" y="0">3</tspan></text>
      <text class="cls-6" transform="translate(488.77 259.26)"><tspan x="0" y="0">4</tspan></text>
    </g>
    <text class="cls-19" transform="translate(42.28 288.11)"><tspan x="0" y="0">s</tspan><tspan class="cls-36" x="4.58" y="0">t</tspan><tspan x="8.64" y="0">art </tspan><tspan x="-10.55" y="14.4">thumb in</tspan></text>
    <g>
      <path class="cls-20" d="m230.13,294.56c1.93,0,1.93-3,0-3s-1.93,3,0,3h0Z"/>
      <circle class="cls-20" cx="266.13" cy="293.06" r="3"/>
      <circle class="cls-20" cx="230.13" cy="329.06" r="3"/>
      <circle class="cls-20" cx="194.13" cy="293.06" r="3"/>
      <circle class="cls-20" cx="230.13" cy="257.06" r="3"/>
    </g>
    <g>
      <path class="cls-20" d="m330.13,294.56c1.93,0,1.93-3,0-3s-1.93,3,0,3h0Z"/>
      <circle class="cls-20" cx="366.13" cy="293.06" r="3"/>
      <circle class="cls-20" cx="330.13" cy="329.06" r="3"/>
      <circle class="cls-20" cx="294.13" cy="293.06" r="3"/>
      <circle class="cls-20" cx="330.13" cy="257.06" r="3"/>
    </g>
    <g>
      <path class="cls-20" d="m430.13,294.56c1.93,0,1.93-3,0-3s-1.93,3,0,3h0Z"/>
      <circle class="cls-20" cx="466.13" cy="293.06" r="3"/>
      <circle class="cls-20" cx="430.13" cy="329.06" r="3"/>
      <circle class="cls-20" cx="394.13" cy="293.06" r="3"/>
      <circle class="cls-20" cx="430.13" cy="257.06" r="3"/>
    </g>
    <g>
      <path class="cls-20" d="m530.13,294.56c1.93,0,1.93-3,0-3s-1.93,3,0,3h0Z"/>
      <circle class="cls-20" cx="566.13" cy="293.06" r="3"/>
      <circle class="cls-20" cx="530.13" cy="329.06" r="3"/>
      <circle class="cls-20" cx="494.13" cy="293.06" r="3"/>
      <circle class="cls-20" cx="530.13" cy="257.06" r="3"/>
    </g>
  </g>
  <text class="cls-14" transform="translate(108.73 258.14)"><tspan x="0" y="0">s</tspan><tspan class="cls-36" x="5.35" y="0">t</tspan><tspan x="10.08" y="0">art</tspan></text>
  <g>
    <text class="cls-6" transform="translate(190.87 541.02)"><tspan x="0" y="0">1</tspan></text>
    <text class="cls-6" transform="translate(288.99 541.02)"><tspan x="0" y="0">2</tspan></text>
    <text class="cls-6" transform="translate(388.99 541.02)"><tspan x="0" y="0">3</tspan></text>
    <text class="cls-6" transform="translate(488.99 541.02)"><tspan x="0" y="0">4</tspan></text>
  </g>
  <text class="cls-16" transform="translate(516.4 214.68)"><tspan x="0" y="0">V</tspan><tspan class="cls-38" x="11.5" y="0">T</tspan><tspan x="22.71" y="0">G: 1:1</tspan></text>
  <line class="cls-44" x1="15" y1="467.5" x2="598.79" y2="467.5"/>
  <line class="cls-44" x1="15" y1="720.45" x2="598.79" y2="720.45"/>
  <line class="cls-44" x1="15" y1="189.87" x2="598.79" y2="189.87"/>
</svg>