<?xml version="1.0" encoding="UTF-8"?>
<svg id="Layer_1" data-name="Layer 1" xmlns="http://www.w3.org/2000/svg" viewBox="0 0 612 792">
  <defs>
    <style>
      .cls-1 {
        font-family: MonotypeCorsiva, 'Monotype Corsiva';
        font-size: 55px;
      }

      .cls-1, .cls-2, .cls-3 {
        fill: #231f20;
      }

      .cls-4 {
        fill: none;
        stroke: #231f20;
        stroke-miterlimit: 10;
        stroke-width: 3px;
      }

      .cls-2 {
        font-family: Georgia, Georgia;
        font-size: 60px;
      }

      .cls-5 {
        fill: #2e3192;
      }

      .cls-6 {
        fill: #ed1c24;
      }
    </style>
  </defs>
  <path class="cls-5" d="m441.32,92.59c.08,1.07.58,3.88-.03,5.21-.26.56-1.15.64-1.65,1.07l-.49-5.3-22.01,22.01c-.45.45-1.17.45-1.61,0h0c-.45-.45-.45-1.17,0-1.62l22.04-22.02-5.14.51c.17-.7.39-1.42.82-1.71,1.22-.82,4.34-.88,5.1-.84.73.04,2.21.23,2.4.26"/>
  <path class="cls-5" d="m402.44,100.44c-.08-1.07-.58-3.88.03-5.21.26-.56,1.15-.64,1.65-1.07l.49,5.3,22.01-22.01c.45-.45,1.17-.45,1.61,0h0c.45.45.45,1.17,0,1.62l-22.04,22.02,5.14-.51c-.17.7-.39,1.42-.82,1.71-1.22.82-4.34.88-5.1.84s-2.21-.23-2.4-.26"/>
  <path class="cls-6" d="m425.81,115.95c-1.07.08-3.88.58-5.21-.03-.56-.26-.64-1.15-1.07-1.65l5.3-.49-22.01-22.01c-.45-.45-.45-1.17,0-1.61h0c.45-.45,1.17-.45,1.62,0l22.02,22.04-.51-5.14c.7.17,1.42.39,1.71.82.82,1.22.88,4.34.84,5.1s-.23,2.21-.26,2.4"/>
  <path class="cls-6" d="m417.95,77.07c1.07-.08,3.88-.58,5.21.03.56.26.64,1.15,1.07,1.65l-5.3.49,22.01,22.01c.45.45.45,1.17,0,1.61h0c-.45.45-1.17.45-1.62,0l-22.02-22.04.51,5.14c-.7-.17-1.42-.39-1.71-.82-.82-1.22-.88-4.34-.84-5.1.04-.73.23-2.21.26-2.4"/>
  <g>
    <path class="cls-3" d="m339.65,97.76c1.61,0,1.61-2.5,0-2.5s-1.61,2.5,0,2.5h0Z"/>
    <g>
      <path class="cls-3" d="m339.65,135.07c3.22,0,3.22-5,0-5s-3.22,5,0,5h0Z"/>
      <path class="cls-3" d="m375.71,99.01c3.22,0,3.22-5,0-5s-3.22,5,0,5h0Z"/>
      <path class="cls-3" d="m339.65,62.95c3.22,0,3.22-5,0-5s-3.22,5,0,5h0Z"/>
      <path class="cls-3" d="m303.59,99.01c3.22,0,3.22-5,0-5s-3.22,5,0,5h0Z"/>
    </g>
  </g>
  <g>
    <path class="cls-3" d="m421.88,97.76c1.61,0,1.61-2.5,0-2.5s-1.61,2.5,0,2.5h0Z"/>
    <g>
      <path class="cls-3" d="m447.38,124.51c3.22,0,3.22-5,0-5s-3.22,5,0,5h0Z"/>
      <path class="cls-3" d="m396.38,124.51c3.22,0,3.22-5,0-5s-3.22,5,0,5h0Z"/>
      <path class="cls-3" d="m396.38,73.51c3.22,0,3.22-5,0-5s-3.22,5,0,5h0Z"/>
      <path class="cls-3" d="m447.38,73.51c3.22,0,3.22-5,0-5s-3.22,5,0,5h0Z"/>
    </g>
  </g>
  <g>
    <path class="cls-3" d="m175.18,97.83c1.61,0,1.61-2.5,0-2.5s-1.61,2.5,0,2.5h0Z"/>
    <g>
      <path class="cls-3" d="m175.18,135.15c3.22,0,3.22-5,0-5s-3.22,5,0,5h0Z"/>
      <path class="cls-3" d="m211.25,99.08c3.22,0,3.22-5,0-5s-3.22,5,0,5h0Z"/>
      <path class="cls-3" d="m175.18,63.02c3.22,0,3.22-5,0-5s-3.22,5,0,5h0Z"/>
      <path class="cls-3" d="m139.12,99.08c3.22,0,3.22-5,0-5s-3.22,5,0,5h0Z"/>
    </g>
  </g>
  <g>
    <path class="cls-3" d="m257.42,97.83c1.61,0,1.61-2.5,0-2.5s-1.61,2.5,0,2.5h0Z"/>
    <g>
      <path class="cls-3" d="m282.92,73.58c3.22,0,3.22-5,0-5s-3.22,5,0,5h0Z"/>
      <path class="cls-3" d="m282.92,124.58c3.22,0,3.22-5,0-5s-3.22,5,0,5h0Z"/>
      <path class="cls-3" d="m231.92,124.58c3.22,0,3.22-5,0-5s-3.22,5,0,5h0Z"/>
      <path class="cls-3" d="m231.92,73.58c3.22,0,3.22-5,0-5s-3.22,5,0,5h0Z"/>
    </g>
  </g>
  <rect class="cls-6" x="324.6" y="112.15" width="29.95" height="3.08" rx="1.17" ry="1.17" transform="translate(453.26 -225.89) rotate(90)"/>
  <rect class="cls-5" x="341.96" y="94.9" width="29.95" height="3.08" rx="1.17" ry="1.17"/>
  <rect class="cls-6" x="324.75" y="77.8" width="29.95" height="3.08" rx="1.17" ry="1.17" transform="translate(260.39 419.06) rotate(-90)"/>
  <rect class="cls-5" x="307.39" y="95.05" width="29.95" height="3.08" rx="1.17" ry="1.17" transform="translate(644.73 193.17) rotate(-180)"/>
  <rect class="cls-6" x="160.13" y="112.22" width="29.95" height="3.08" rx="1.17" ry="1.17" transform="translate(288.87 -61.35) rotate(90)"/>
  <rect class="cls-5" x="177.49" y="94.97" width="29.95" height="3.08" rx="1.17" ry="1.17"/>
  <rect class="cls-6" x="160.28" y="77.87" width="29.95" height="3.08" rx="1.17" ry="1.17" transform="translate(95.85 254.66) rotate(-90)"/>
  <rect class="cls-5" x="142.92" y="95.12" width="29.95" height="3.08" rx="1.17" ry="1.17" transform="translate(315.8 193.31) rotate(-180)"/>
  <rect class="cls-6" x="254.48" y="107.3" width="29.95" height="3.08" rx="1.17" ry="1.17" transform="translate(155.88 -158.66) rotate(45)"/>
  <rect class="cls-5" x="254.56" y="82.83" width="29.95" height="3.08" rx="1.17" ry="1.17" transform="translate(19.29 215.3) rotate(-45)"/>
  <rect class="cls-6" x="230.29" y="82.9" width="29.95" height="3.08" rx="1.17" ry="1.17" transform="translate(359 317.58) rotate(-135)"/>
  <rect class="cls-5" x="230.22" y="107.37" width="29.95" height="3.08" rx="1.17" ry="1.17" transform="translate(495.58 12.54) rotate(135)"/>
  <rect class="cls-6" x="419.1" y="107.07" width="29.95" height="3.08" rx="1.17" ry="1.17" transform="translate(203.93 -275.13) rotate(45)"/>
  <rect class="cls-5" x="394.63" y="107.15" width="29.95" height="3.08" rx="1.17" ry="1.17" transform="translate(776.1 -104.1) rotate(135)"/>
  <rect class="cls-6" x="394.71" y="82.88" width="29.95" height="3.08" rx="1.17" ry="1.17" transform="translate(639.68 433.8) rotate(-135)"/>
  <rect class="cls-5" x="419.18" y="82.8" width="29.95" height="3.08" rx="1.17" ry="1.17" transform="translate(67.52 331.7) rotate(-45)"/>
  <path class="cls-6" d="m346.4,132.17c0-4.75-.36-5.93,1.76-8.05,2.12-2.12,5.44-1.74,6.58-1.58-.19-1.25-.69-4.88,1.36-6.92,1.99-1.99,5.33-1.23,6.55-.99-.21-1.03-.64-3.87.9-5.9,1.71-2.26,4.71-2.95,8.39-2.95l-3.51-3.36.3-.18c.54-.33,1.1-.62,1.59-.51.96.2,5.39,5.42,5.39,5.42,0,0-4.61,4.96-5.17,5.24-.51.26-1.52-.19-1.91-.42l-.29-.2.25-.25c.11-.12,2.27-1.94,3.4-3.34-.4-.02-1.49.08-1.85.09-2.35.1-4.2.73-4.94,2.01-.91,1.54-.4,4.06,1.07,7.08l.36.71-.74-.31c-.06-.02-5.99-2.47-8.17-.26-1.27,1.27-1.07,3.91.6,7.83l.23.55-.57-.14c-2.54-.6-6.64-1.72-8.25.17-1.61,1.9-1.04,5.1-.99,6.03s-.3,1.57-1.13,1.61-1.21-.34-1.21-1.39Z"/>
  <path class="cls-5" d="m346.4,60.86c0,4.75-.36,5.93,1.76,8.05s5.44,1.74,6.58,1.58c-.19,1.25-.69,4.88,1.36,6.92,1.99,1.99,5.33,1.23,6.55.99-.21,1.03-.64,3.87.9,5.9,1.71,2.26,4.71,2.95,8.39,2.95l-3.51,3.36.3.18c.54.33,1.1.62,1.59.51.96-.2,5.39-5.42,5.39-5.42,0,0-4.61-4.96-5.17-5.24-.51-.26-1.52.19-1.91.42l-.29.2.25.25c.11.12,2.27,1.94,3.4,3.34-.4.02-1.49-.08-1.85-.09-2.35-.1-4.2-.73-4.94-2.01-.91-1.54-.4-4.06,1.07-7.08l.36-.71-.74.31c-.06.02-5.99,2.47-8.17.26-1.27-1.27-1.07-3.91.6-7.83l.23-.55-.57.14c-2.54.6-6.64,1.72-8.25-.17-1.61-1.9-1.04-5.1-.99-6.03s-.3-1.57-1.13-1.61c-.83-.04-1.21.34-1.21,1.39Z"/>
  <path class="cls-5" d="m346.4,60.86c0,4.75-.36,5.93,1.76,8.05,2.12,2.12,5.44,1.74,6.58,1.58-.19,1.25-.69,4.88,1.36,6.92,1.99,1.99,5.33,1.23,6.55.99-.21,1.03-.64,3.87.9,5.9,1.71,2.26,4.71,2.95,8.39,2.95l-3.51,3.36.3.18c.54.33,1.1.62,1.59.51.96-.2,5.39-5.42,5.39-5.42,0,0-4.61-4.96-5.17-5.24-.51-.26-1.52.19-1.91.42l-.29.2.25.25c.11.12,2.27,1.94,3.4,3.34-.4.02-1.49-.08-1.85-.09-2.35-.1-4.2-.73-4.94-2.01-.91-1.54-.4-4.06,1.07-7.08l.36-.71-.74.31c-.06.02-5.99,2.47-8.17.26-1.27-1.27-1.07-3.91.6-7.83l.23-.55-.57.14c-2.54.6-6.64,1.72-8.25-.17-1.61-1.9-1.04-5.1-.99-6.03.04-.94-.3-1.57-1.13-1.61s-1.21.34-1.21,1.39Z"/>
  <path class="cls-6" d="m346.4,132.17c0-4.75-.36-5.93,1.76-8.05,2.12-2.12,5.44-1.74,6.58-1.58-.19-1.25-.69-4.88,1.36-6.92,1.99-1.99,5.33-1.23,6.55-.99-.21-1.03-.64-3.87.9-5.9,1.71-2.26,4.71-2.95,8.39-2.95l-3.51-3.36.3-.18c.54-.33,1.1-.62,1.59-.51.96.2,5.39,5.42,5.39,5.42,0,0-4.61,4.96-5.17,5.24-.51.26-1.52-.19-1.91-.42l-.29-.2.25-.25c.11-.12,2.27-1.94,3.4-3.34-.4-.02-1.49.08-1.85.09-2.35.1-4.2.73-4.94,2.01-.91,1.54-.4,4.06,1.07,7.08l.36.71-.74-.31c-.06-.02-5.99-2.47-8.17-.26-1.27,1.27-1.07,3.91.6,7.83l.23.55-.57-.14c-2.54-.6-6.64-1.72-8.25.17-1.61,1.9-1.04,5.1-.99,6.03.04.94-.3,1.57-1.13,1.61s-1.21-.34-1.21-1.39Z"/>
  <path class="cls-6" d="m332.9,60.86c0,4.75.36,5.93-1.76,8.05-2.12,2.12-5.44,1.74-6.58,1.58.19,1.25.69,4.88-1.36,6.92-1.99,1.99-5.33,1.23-6.55.99.21,1.03.64,3.87-.9,5.9-1.71,2.26-4.71,2.95-8.39,2.95l3.51,3.36-.3.18c-.54.33-1.1.62-1.59.51-.96-.2-5.39-5.42-5.39-5.42,0,0,4.61-4.96,5.17-5.24.51-.26,1.52.19,1.91.42l.29.2-.25.25c-.11.12-2.27,1.94-3.4,3.34.4.02,1.49-.08,1.85-.09,2.35-.1,4.2-.73,4.94-2.01.91-1.54.4-4.06-1.07-7.08l-.36-.71.74.31c.06.02,5.99,2.47,8.17.26,1.27-1.27,1.07-3.91-.6-7.83l-.23-.55.57.14c2.54.6,6.64,1.72,8.25-.17s1.04-5.1.99-6.03c-.04-.94.3-1.57,1.13-1.61.83-.04,1.21.34,1.21,1.39Z"/>
  <path class="cls-5" d="m332.9,132.17c0-4.75.36-5.93-1.76-8.05-2.12-2.12-5.44-1.74-6.58-1.58.19-1.25.69-4.88-1.36-6.92-1.99-1.99-5.33-1.23-6.55-.99.21-1.03.64-3.87-.9-5.9-1.71-2.26-4.71-2.95-8.39-2.95l3.51-3.36-.3-.18c-.54-.33-1.1-.62-1.59-.51-.96.2-5.39,5.42-5.39,5.42,0,0,4.61,4.96,5.17,5.24.51.26,1.52-.19,1.91-.42l.29-.2-.25-.25c-.11-.12-2.27-1.94-3.4-3.34.4-.02,1.49.08,1.85.09,2.35.1,4.2.73,4.94,2.01.91,1.54.4,4.06-1.07,7.08l-.36.71.74-.31c.06-.02,5.99-2.47,8.17-.26,1.27,1.27,1.07,3.91-.6,7.83l-.23.55.57-.14c2.54-.6,6.64-1.72,8.25.17,1.61,1.9,1.04,5.1.99,6.03-.04.94.3,1.57,1.13,1.61s1.21-.34,1.21-1.39Z"/>
  <path class="cls-6" d="m151.61,99.73s-.89-1.36-1.86-.63c-1.37,1.04-4.62,5.18-4.62,5.18,0,0,4,4.84,5.27,5.4.56.25,1.19-1.32,1.19-1.32l-2.6-3.23c10.08-.98,9.64,4.31,7.6,12.22,6.25-2.44,14.18-4.39,13.78,10.28.08.82.61,1,.89,1s.93-.31.96-1.06c.8-9.91-3.36-15.94-12.41-13.63.11-8.76-1.12-10.92-10.82-11.1"/>
  <path class="cls-5" d="m151.61,93.58s-.89,1.36-1.86.63c-1.37-1.04-4.62-5.18-4.62-5.18,0,0,4-4.84,5.27-5.4.56-.25,1.19,1.32,1.19,1.32l-2.6,3.23c10.08.98,9.64-4.31,7.6-12.22,6.25,2.44,14.18,4.39,13.78-10.28.08-.82.61-1,.89-1s.93.31.96,1.06c.8,9.91-3.36,15.94-12.41,13.63.11,8.76-1.12,10.92-10.82,11.1"/>
  <path class="cls-5" d="m198.75,99.73s.89-1.36,1.86-.63c1.37,1.04,4.62,5.18,4.62,5.18,0,0-4,4.84-5.27,5.4-.56.25-1.19-1.32-1.19-1.32l2.6-3.23c-10.08-.98-9.64,4.31-7.6,12.22-6.25-2.44-14.18-4.39-13.78,10.28-.08.82-.61,1-.89,1s-.93-.31-.96-1.06c-.8-9.91,3.36-15.94,12.41-13.63-.11-8.76,1.12-10.92,10.82-11.1"/>
  <path class="cls-6" d="m198.75,93.58s.89,1.36,1.86.63c1.37-1.04,4.62-5.18,4.62-5.18,0,0-4-4.84-5.27-5.4-.56-.25-1.19,1.32-1.19,1.32l2.6,3.23c-10.08.98-9.64-4.31-7.6-12.22-6.25,2.44-14.18,4.39-13.78-10.28-.08-.82-.61-1-.89-1s-.93.31-.96,1.06c-.8,9.91,3.36,15.94,12.41,13.63-.11,8.76,1.12,10.92,10.82,11.1"/>
  <path class="cls-5" d="m229.98,78.81c.34,1.02,1.35,3.24.82,4.6-.23.57-.78.84-1.49,1.07l-1.21-4.77c-8.4,13.24,6.94,25.57,18.81,16.52.71-.55,1.72-.52,2.09.05.32.5.44,1.15-.5,1.84-14.82,10.81-31.95-4.82-22.42-19.6l-4.49,1.34c-.19-.86-.43-1.12.31-1.87.65-.66,3.35-1.7,4.54-1.81,1.62-.15,2.18-.14,2.37-.12"/>
  <path class="cls-5" d="m441.9,124.58c.29-.28.72-.99.18-1.69-.04-.04-.07-.08-.1-.12-.55-.55-1.38-.29-1.76-.05-6.13,5.49-11.03,6.85-15.42,4.29,1.8-1.55,2.7-4.41,2.05-6.74-.53-1.89-1.97-3.04-3.95-3.2-2,0-3.48,1.01-4.08,2.83-.78,2.36.09,5.44,1.96,7.08-4.8,2.83-11.06-.96-13.59-2.77l-1.49-1.26,4.81-.48-.12-.34c-.2-.59-.44-1.17-.88-1.42-.81-.44-2.68-.13-4.6.26-.25.05-.44.09-.55.11-.46.06-1.27.24-1.65.33l-.42.08-.12,1.36c-.03.39-.15,5.2.29,5.96.21.38.74.6,1.59.68l.37.03-.05-.37c0-.16-.26-2.68-.2-4.43l1.35,1.15c4.61,3.69,11.89,6.59,17.35,2.79,5.69,4.45,13.86,1.34,19.05-4.08Zm-19.53.53c-1.48-1.48-1.61-3.1-1.18-4.22.37-.94.95-1.56,1.68-1.5.81.08,1.62.99,1.93,2.51.03,1.27-.52,2.31-1.93,3.66-.18-.15-.34-.29-.49-.44Z"/>
  <path class="cls-6" d="m393.82,116.53c.28.29.99.72,1.69.18.04-.04.08-.07.12-.1.55-.55.29-1.38.05-1.76-5.49-6.13-6.85-11.03-4.29-15.42,1.55,1.8,4.41,2.7,6.74,2.05,1.89-.53,3.04-1.97,3.2-3.95,0-2-1.01-3.48-2.83-4.08-2.36-.78-5.44.09-7.08,1.96-2.83-4.8.96-11.06,2.77-13.59l1.26-1.49.48,4.81.34-.12c.59-.2,1.17-.44,1.42-.88.44-.81.13-2.68-.26-4.6-.05-.25-.09-.44-.11-.55-.06-.46-.24-1.27-.33-1.65l-.08-.42-1.36-.12c-.39-.03-5.2-.15-5.96.29-.38.21-.6.74-.68,1.59l-.03.37.37-.05c.16,0,2.68-.26,4.43-.2l-1.15,1.35c-3.69,4.61-6.59,11.89-2.79,17.35-4.45,5.69-1.34,13.86,4.08,19.05Zm-.53-19.53c1.48-1.48,3.1-1.61,4.22-1.18.94.37,1.56.95,1.5,1.68-.08.81-.99,1.62-2.51,1.93-1.27.03-2.31-.52-3.66-1.93.15-.18.29-.34.44-.49Z"/>
  <path class="cls-5" d="m401.86,68.45c-.29.28-.72.99-.18,1.69.04.04.07.08.1.12.55.55,1.38.29,1.76.05,6.13-5.49,11.03-6.85,15.42-4.29-1.8,1.55-2.7,4.41-2.05,6.74.53,1.89,1.97,3.04,3.95,3.2,2,0,3.48-1.01,4.08-2.83.78-2.36-.09-5.44-1.96-7.08,4.8-2.83,11.06.96,13.59,2.77l1.49,1.26-4.81.48.12.34c.2.59.44,1.17.88,1.42.81.44,2.68.13,4.6-.26.25-.05.44-.09.55-.11.46-.06,1.27-.24,1.65-.33l.42-.08.12-1.36c.03-.39.15-5.2-.29-5.96-.21-.38-.74-.6-1.59-.68l-.37-.03.05.37c0,.16.26,2.68.2,4.43l-1.35-1.15c-4.61-3.69-11.89-6.59-17.35-2.79-5.69-4.45-13.86-1.34-19.05,4.08Zm19.53-.53c1.48,1.48,1.61,3.1,1.18,4.22-.37.94-.95,1.56-1.68,1.5-.81-.08-1.62-.99-1.93-2.51-.03-1.27.52-2.31,1.93-3.66.18.15.34.29.49.44Z"/>
  <path class="cls-6" d="m449.95,76.49c-.28-.29-.99-.72-1.69-.18-.04.04-.08.07-.12.1-.55.55-.29,1.38-.05,1.76,5.49,6.13,6.85,11.03,4.29,15.42-1.55-1.8-4.41-2.7-6.74-2.05-1.89.53-3.04,1.97-3.2,3.95,0,2,1.01,3.48,2.83,4.08,2.36.78,5.44-.09,7.08-1.96,2.83,4.8-.96,11.06-2.77,13.59l-1.26,1.49-.48-4.81-.34.12c-.59.2-1.17.44-1.42.88-.44.81-.13,2.68.26,4.6.05.25.09.44.11.55.06.46.24,1.27.33,1.65l.08.42,1.36.12c.39.03,5.2.15,5.96-.29.38-.21.6-.74.68-1.59l.03-.37-.37.05c-.16,0-2.68.26-4.43.2l1.15-1.35c3.69-4.61,6.59-11.89,2.79-17.35,4.45-5.69,1.34-13.86-4.08-19.05Zm.53,19.53c-1.48,1.48-3.1,1.61-4.22,1.18-.94-.37-1.56-.95-1.5-1.68.08-.81.99-1.62,2.51-1.93,1.27-.03,2.31.52,3.66,1.93-.15.18-.29.34-.44.49Z"/>
  <path class="cls-6" d="m350.71,103.84c.04,1.64.21,1.73.7,2.58.31.53.83.9,1.65.88l-.14-4.21c11.48,10.1-13.52,12.06-38.81-3.44-.81-.58-1.82-.5-2.19.02-.24.3-.6,1.32.41,1.92,32.57,19.47,56.4,11.62,42.2.09l4.31-.67c-.43-.58-.92-1.42-1.43-1.51-1.45-.27-2.76-.03-3.5.12-.79.16-2.6.38-2.77.48"/>
  <path class="cls-5" d="m328.58,89.19c-.04-1.64-.21-1.73-.7-2.58-.31-.53-.83-.9-1.65-.88l.14,4.21c-11.48-10.1,13.52-12.06,38.81,3.44.81.58,1.82.5,2.19-.02.24-.3.6-1.32-.41-1.92-32.57-19.47-56.4-11.62-42.2-.09l-4.31.67c.43.58.92,1.42,1.43,1.51,1.45.27,2.76.03,3.5-.12.79-.16,2.6-.38,2.77-.48"/>
  <path class="cls-6" d="m350.71,89.19c.04-1.64.21-1.73.7-2.58.31-.53.83-.9,1.65-.88l-.14,4.21c11.48-10.1-13.52-12.06-38.81,3.44-.81.58-1.82.5-2.19-.02-.24-.3-.6-1.32.41-1.92,32.57-19.47,56.4-11.62,42.2-.09l4.31.67c-.43.58-.92,1.42-1.43,1.51-1.45.27-2.76.03-3.5-.12-.79-.16-2.6-.38-2.77-.48"/>
  <path class="cls-5" d="m328.58,103.84c-.04,1.64-.21,1.73-.7,2.58-.31.53-.83.9-1.65.88l.14-4.21c-11.48,10.1,13.52,12.06,38.81-3.44.81-.58,1.82-.5,2.19.02.24.3.6,1.32-.41,1.92-32.57,19.47-56.4,11.62-42.2.09l-4.31-.67c.43-.58.92-1.42,1.43-1.51,1.45-.27,2.76-.03,3.5.12.79.16,2.6.38,2.77.48"/>
  <path class="cls-5" d="m168.36,128.19c-.7-.81-2.33-3.15-3.7-3.66-.58-.21-1.27.36-1.92.41l3.4,4.09c-10.58-.32-22.51-9.29-23.45-24.24-.11-.89-.63-1.48-1.71-1.38-1.14.11-1.14.56-1.03,1.72,1.34,14.17,11.68,26.16,26.21,26.16l-3.99,3.27c.61.38,1.28.73,1.79.63,1.44-.28,3.69-2.45,4.2-3.01s1.4-1.73,1.52-1.89"/>
  <path class="cls-6" d="m168.36,64.98c-.7.81-2.33,3.15-3.7,3.66-.58.21-1.27-.36-1.92-.41l3.4-4.09c-10.58.32-22.51,9.29-23.45,24.24-.11.89-.63,1.48-1.71,1.38-1.14-.11-1.14-.56-1.03-1.72,1.34-14.17,11.68-26.16,26.21-26.16l-3.99-3.27c.61-.38,1.28-.73,1.79-.63,1.44.28,3.69,2.45,4.2,3.01s1.4,1.73,1.52,1.89"/>
  <path class="cls-6" d="m182,128.19c.7-.81,2.33-3.15,3.7-3.66.58-.21,1.27.36,1.92.41l-3.4,4.09c10.58-.32,22.51-9.29,23.45-24.24.11-.89.63-1.48,1.71-1.38,1.14.11,1.14.56,1.03,1.72-1.34,14.17-11.68,26.16-26.21,26.16l3.99,3.27c-.61.38-1.28.73-1.79.63-1.44-.28-3.69-2.45-4.2-3.01-.49-.55-1.4-1.73-1.52-1.89"/>
  <path class="cls-5" d="m182,64.98c.7.81,2.33,3.15,3.7,3.66.58.21,1.27-.36,1.92-.41l-3.4-4.09c10.58.32,22.51,9.29,23.45,24.24.11.89.63,1.48,1.71,1.38,1.14-.11,1.14-.56,1.03-1.72-1.34-14.17-11.68-26.16-26.21-26.16l3.99-3.27c-.61-.38-1.28-.73-1.79-.63-1.44.28-3.69,2.45-4.2,3.01-.49.55-1.4,1.73-1.52,1.89"/>
  <path class="cls-6" d="m238.82,110.33s.04,1.8-1.15,1.99c-1.7.27-6.74-.11-6.74-.11,0,0-.63-5.68-.42-7.05.18-1.2,1.92-.49,1.92-.49l.44,4.14c12.45-12.52,12.21-17.12-1.89-30.73-.39-.26.3-1.3.46-1.55s.85-.47,1.25-.22c15.47,14.79,15.31,21.29,1.59,33.93"/>
  <path class="cls-6" d="m239.64,69.15c1.02.34,3.24,1.35,4.6.82.57-.23.84-.78,1.07-1.49l-4.77-1.21c13.24-8.4,25.57,6.94,16.52,18.81-.55.71-.52,1.72.05,2.09.5.32,1.15.44,1.84-.5,10.81-14.82-4.82-31.95-19.6-22.42l1.34-4.49c-.86-.19-1.12-.43-1.87.31-.66.65-1.7,3.35-1.81,4.54-.15,1.62-.14,2.18-.12,2.37"/>
  <path class="cls-5" d="m271.16,77.99s1.8.04,1.99-1.15c.27-1.7-.11-6.74-.11-6.74,0,0-5.68-.63-7.05-.42-1.2.18-.49,1.92-.49,1.92l4.14.44c-12.52,12.45-17.12,12.21-30.73-1.89-.26-.39-1.3.3-1.55.46s-.47.85-.22,1.25c14.79,15.47,21.29,15.31,33.93,1.59"/>
  <path class="cls-6" d="m275.19,124.02c-1.02-.34-3.24-1.35-4.6-.82-.57.23-.84.78-1.07,1.49l4.77,1.21c-13.24,8.4-25.57-6.94-16.52-18.81.55-.71.52-1.72-.05-2.09-.5-.32-1.15-.44-1.84.5-10.81,14.82,4.82,31.95,19.6,22.42l-1.34,4.49c.86.19,1.12.43,1.87-.31.66-.65,1.7-3.35,1.81-4.54.15-1.62.14-2.18.12-2.37"/>
  <path class="cls-5" d="m243.67,115.18s-1.8-.04-1.99,1.15c-.27,1.7.11,6.74.11,6.74,0,0,5.68.63,7.05.42,1.2-.18.49-1.92.49-1.92l-4.14-.44c12.52-12.45,17.12-12.21,30.73,1.89.26.39,1.3-.3,1.55-.46s.47-.85.22-1.25c-14.79-15.47-21.29-15.31-33.93-1.59"/>
  <path class="cls-5" d="m284.85,114.36c-.34-1.02-1.35-3.24-.82-4.6.23-.57.78-.84,1.49-1.07l1.21,4.77c8.4-13.24-6.94-25.57-18.81-16.52-.71.55-1.72.52-2.09-.05-.32-.5-.44-1.15.5-1.84,14.82-10.81,31.95,4.82,22.42,19.6l4.49-1.34c.19.86.43,1.12-.31,1.87-.65.66-3.35,1.7-4.54,1.81-1.62.15-2.18.14-2.37.12"/>
  <path class="cls-6" d="m276.01,82.84s-.04-1.8,1.15-1.99c1.7-.27,6.74.11,6.74.11,0,0,.63,5.68.42,7.05-.18,1.2-1.92.49-1.92.49l-.44-4.14c-12.45,12.52-12.21,17.12,1.89,30.73.39.26-.3,1.3-.46,1.55s-.85.47-1.25.22c-15.47-14.79-15.31-21.29-1.59-33.93"/>
  <path class="cls-5" d="m268.38,682.57c.81.7,3.15,2.33,3.66,3.7.21.58-.36,1.27-.41,1.92l-4.09-3.4v31.13c0,.63-.51,1.14-1.14,1.14h0c-.63,0-1.14-.51-1.14-1.14l.02-31.15-3.27,3.99c-.38-.61-.73-1.28-.63-1.79.28-1.44,2.45-3.69,3.01-4.2.55-.49,1.73-1.4,1.89-1.52"/>
  <path class="cls-5" d="m246.45,715.62c-.81-.7-3.15-2.33-3.66-3.7-.21-.58.36-1.27.41-1.92l4.09,3.4v-31.13c0-.63.51-1.14,1.14-1.14h0c.63,0,1.14.51,1.14,1.14l-.02,31.15,3.27-3.99c.38.61.73,1.28.63,1.79-.28,1.44-2.45,3.69-3.01,4.2-.55.49-1.73,1.4-1.89,1.52"/>
  <path class="cls-6" d="m273.94,710.06c-.7.81-2.33,3.15-3.7,3.66-.58.21-1.27-.36-1.92-.41l3.4-4.09h-31.13c-.63,0-1.14-.51-1.14-1.14h0c0-.63.51-1.14,1.14-1.14l31.15.02-3.99-3.27c.61-.38,1.28-.73,1.79-.63,1.44.28,3.69,2.45,4.2,3.01.49.55,1.4,1.73,1.52,1.89"/>
  <path class="cls-6" d="m240.89,688.13c.7-.81,2.33-3.15,3.7-3.66.58-.21,1.27.36,1.92.41l-3.4,4.09h31.13c.63,0,1.14.51,1.14,1.14h0c0,.63-.51,1.14-1.14,1.14l-31.15-.02,3.99,3.27c-.61.38-1.28.73-1.79.63-1.44-.28-3.69-2.45-4.2-3.01s-1.4-1.73-1.52-1.89"/>
  <g>
    <path class="cls-3" d="m175.18,700.34c1.61,0,1.61-2.5,0-2.5s-1.61,2.5,0,2.5h0Z"/>
    <g>
      <path class="cls-3" d="m149.68,727.09c3.22,0,3.22-5,0-5s-3.22,5,0,5h0Z"/>
      <path class="cls-3" d="m200.68,727.09c3.22,0,3.22-5,0-5s-3.22,5,0,5h0Z"/>
      <path class="cls-3" d="m200.68,676.09c3.22,0,3.22-5,0-5s-3.22,5,0,5h0Z"/>
      <path class="cls-3" d="m149.68,676.09c3.22,0,3.22-5,0-5s-3.22,5,0,5h0Z"/>
    </g>
  </g>
  <g>
    <path class="cls-3" d="m257.42,700.34c1.61,0,1.61-2.5,0-2.5s-1.61,2.5,0,2.5h0Z"/>
    <g>
      <path class="cls-3" d="m293.48,701.59c3.22,0,3.22-5,0-5s-3.22,5,0,5h0Z"/>
      <path class="cls-3" d="m257.42,737.66c3.22,0,3.22-5,0-5s-3.22,5,0,5h0Z"/>
      <path class="cls-3" d="m221.35,701.59c3.22,0,3.22-5,0-5s-3.22,5,0,5h0Z"/>
      <path class="cls-3" d="m257.42,665.53c3.22,0,3.22-5,0-5s-3.22,5,0,5h0Z"/>
    </g>
  </g>
  <g>
    <path class="cls-3" d="m339.65,700.42c1.61,0,1.61-2.5,0-2.5s-1.61,2.5,0,2.5h0Z"/>
    <g>
      <path class="cls-3" d="m365.15,727.17c3.22,0,3.22-5,0-5s-3.22,5,0,5h0Z"/>
      <path class="cls-3" d="m365.15,676.17c3.22,0,3.22-5,0-5s-3.22,5,0,5h0Z"/>
      <path class="cls-3" d="m314.15,676.17c3.22,0,3.22-5,0-5s-3.22,5,0,5h0Z"/>
      <path class="cls-3" d="m314.15,727.17c3.22,0,3.22-5,0-5s-3.22,5,0,5h0Z"/>
    </g>
  </g>
  <g>
    <path class="cls-3" d="m421.88,700.42c1.61,0,1.61-2.5,0-2.5s-1.61,2.5,0,2.5h0Z"/>
    <g>
      <path class="cls-3" d="m457.94,701.67c3.22,0,3.22-5,0-5s-3.22,5,0,5h0Z"/>
      <path class="cls-3" d="m421.88,737.73c3.22,0,3.22-5,0-5s-3.22,5,0,5h0Z"/>
      <path class="cls-3" d="m385.82,701.67c3.22,0,3.22-5,0-5s-3.22,5,0,5h0Z"/>
      <path class="cls-3" d="m421.88,665.6c3.22,0,3.22-5,0-5s-3.22,5,0,5h0Z"/>
    </g>
  </g>
  <rect class="cls-6" x="148.01" y="709.65" width="29.95" height="3.08" rx="1.17" ry="1.17" transform="translate(781.12 1098.82) rotate(135)"/>
  <rect class="cls-5" x="172.48" y="709.73" width="29.95" height="3.08" rx="1.17" ry="1.17" transform="translate(557.85 75.77) rotate(45)"/>
  <rect class="cls-6" x="172.4" y="685.46" width="29.95" height="3.08" rx="1.17" ry="1.17" transform="translate(-430.9 333.72) rotate(-45)"/>
  <rect class="cls-5" x="147.93" y="685.38" width="29.95" height="3.08" rx="1.17" ry="1.17" transform="translate(-207.62 1287.85) rotate(-135)"/>
  <rect class="cls-6" x="336.76" y="709.83" width="29.95" height="3.08" rx="1.17" ry="1.17" transform="translate(606.03 -40.37) rotate(45)"/>
  <rect class="cls-5" x="336.84" y="685.36" width="29.95" height="3.08" rx="1.17" ry="1.17" transform="translate(-382.66 449.96) rotate(-45)"/>
  <rect class="cls-6" x="312.58" y="685.43" width="29.95" height="3.08" rx="1.17" ry="1.17" transform="translate(73.41 1404.35) rotate(-135)"/>
  <rect class="cls-5" x="312.5" y="709.9" width="29.95" height="3.08" rx="1.17" ry="1.17" transform="translate(1062.1 982.94) rotate(135)"/>
  <rect class="cls-6" x="406.76" y="714.8" width="29.95" height="3.08" rx="1.17" ry="1.17" transform="translate(1138.08 294.61) rotate(90)"/>
  <rect class="cls-5" x="424.11" y="697.56" width="29.95" height="3.08" rx="1.17" ry="1.17"/>
  <rect class="cls-6" x="406.9" y="680.45" width="29.95" height="3.08" rx="1.17" ry="1.17" transform="translate(-260.11 1103.87) rotate(-90)"/>
  <rect class="cls-5" x="389.55" y="697.7" width="29.95" height="3.08" rx="1.17" ry="1.17" transform="translate(809.05 1398.48) rotate(-180)"/>
  <rect class="cls-6" x="259.61" y="697.48" width="29.95" height="3.08" rx="1.17" ry="1.17"/>
  <rect class="cls-5" x="242.37" y="714.84" width="29.95" height="3.08" rx="1.17" ry="1.17" transform="translate(973.72 459.03) rotate(90)"/>
  <rect class="cls-6" x="225.26" y="697.63" width="29.95" height="3.08" rx="1.17" ry="1.17" transform="translate(480.48 1398.34) rotate(180)"/>
  <rect class="cls-5" x="242.51" y="680.27" width="29.95" height="3.08" rx="1.17" ry="1.17" transform="translate(-424.32 939.3) rotate(-90)"/>
  <path class="cls-6" d="m154.74,729.08c3.36-3.36,3.94-4.45,6.94-4.45,3,0,5.07,2.62,5.77,3.53.75-1.01,2.96-3.94,5.86-3.93,2.82,0,4.64,2.9,5.33,3.93.58-.88,2.29-3.19,4.81-3.54,2.81-.39,5.42,1.24,8.01,3.85l-.1-4.85.33.09c.61.15,1.21.34,1.49.77.54.82-.02,7.65-.02,7.65,0,0-6.77.25-7.36.05-.54-.18-.94-1.21-1.06-1.65l-.06-.35h.35c.16,0,2.98.23,4.77.05-.27-.3-1.11-1-1.37-1.25-1.73-1.59-3.49-2.45-4.92-2.07-1.74.44-3.16,2.59-4.25,5.76l-.25.75-.3-.74c-.03-.06-2.49-5.98-5.59-5.96-1.79,0-3.52,2.01-5.11,5.96l-.23.55-.3-.5c-1.37-2.22-3.48-5.91-5.96-5.71-2.48.2-4.34,2.87-4.97,3.56-.63.7-1.32.89-1.93.34-.61-.55-.62-1.1.13-1.84Z"/>
  <path class="cls-5" d="m205.17,678.66c-3.36,3.36-4.45,3.94-4.45,6.94,0,3,2.62,5.07,3.53,5.77-1.01.75-3.94,2.96-3.93,5.86,0,2.82,2.9,4.64,3.93,5.33-.88.58-3.19,2.29-3.54,4.81-.39,2.81,1.24,5.42,3.85,8.01l-4.85-.1.09.33c.15.61.34,1.21.77,1.49.82.54,7.65-.02,7.65-.02,0,0,.25-6.77.05-7.36-.18-.54-1.21-.94-1.65-1.06l-.35-.06v.35c0,.16.23,2.98.05,4.77-.3-.27-1-1.11-1.25-1.37-1.59-1.73-2.45-3.49-2.07-4.92.44-1.74,2.59-3.16,5.76-4.25l.75-.25-.74-.3c-.06-.03-5.98-2.49-5.96-5.59,0-1.79,2.01-3.52,5.96-5.11l.55-.23-.5-.3c-2.22-1.37-5.91-3.48-5.71-5.96.2-2.48,2.87-4.34,3.56-4.97.7-.63.89-1.32.34-1.93-.55-.61-1.1-.62-1.84.13Z"/>
  <path class="cls-5" d="m205.17,678.66c-3.36,3.36-4.45,3.94-4.45,6.94,0,3,2.62,5.07,3.53,5.77-1.01.75-3.94,2.96-3.93,5.86,0,2.82,2.9,4.64,3.93,5.33-.88.58-3.19,2.29-3.54,4.81-.39,2.81,1.24,5.42,3.85,8.01l-4.85-.1.09.33c.15.61.34,1.21.77,1.49.82.54,7.65-.02,7.65-.02,0,0,.25-6.77.05-7.36-.18-.54-1.21-.94-1.65-1.06l-.35-.06v.35c0,.16.23,2.98.05,4.77-.3-.27-1-1.11-1.25-1.37-1.59-1.73-2.45-3.49-2.07-4.92.44-1.74,2.59-3.16,5.76-4.25l.75-.25-.74-.3c-.06-.03-5.98-2.49-5.96-5.59,0-1.79,2.01-3.52,5.96-5.11l.55-.23-.5-.3c-2.22-1.37-5.91-3.48-5.71-5.96.2-2.48,2.87-4.34,3.56-4.97s.89-1.32.34-1.93c-.55-.61-1.1-.62-1.84.13Z"/>
  <path class="cls-6" d="m154.74,729.08c3.36-3.36,3.94-4.45,6.94-4.45,3,0,5.07,2.62,5.77,3.53.75-1.01,2.96-3.94,5.86-3.93,2.82,0,4.64,2.9,5.33,3.93.58-.88,2.29-3.19,4.81-3.54,2.81-.39,5.42,1.24,8.01,3.85l-.1-4.85.33.09c.61.15,1.21.34,1.49.77.54.82-.02,7.65-.02,7.65,0,0-6.77.25-7.36.05-.54-.18-.94-1.21-1.06-1.65l-.06-.35h.35c.16,0,2.98.23,4.77.05-.27-.3-1.11-1-1.37-1.25-1.73-1.59-3.49-2.45-4.92-2.07-1.74.44-3.16,2.59-4.25,5.76l-.25.75-.3-.74c-.03-.06-2.49-5.98-5.59-5.96-1.79,0-3.52,2.01-5.11,5.96l-.23.55-.3-.5c-1.37-2.22-3.48-5.91-5.96-5.71s-4.34,2.87-4.97,3.56c-.63.7-1.32.89-1.93.34s-.62-1.1.13-1.84Z"/>
  <path class="cls-6" d="m195.62,669.11c-3.36,3.36-3.94,4.45-6.94,4.45-3,0-5.07-2.62-5.77-3.53-.75,1.01-2.96,3.94-5.86,3.93-2.82,0-4.64-2.9-5.33-3.93-.58.88-2.29,3.19-4.81,3.54-2.81.39-5.42-1.24-8.01-3.85l.1,4.85-.33-.09c-.61-.15-1.21-.34-1.49-.77-.54-.82.02-7.65.02-7.65,0,0,6.77-.25,7.36-.05.54.18.94,1.21,1.06,1.65l.06.35h-.35c-.16,0-2.98-.23-4.77-.05.27.3,1.11,1,1.37,1.25,1.73,1.59,3.49,2.45,4.92,2.07,1.74-.44,3.16-2.59,4.25-5.76l.25-.75.3.74c.03.06,2.49,5.98,5.59,5.96,1.79,0,3.52-2.01,5.11-5.96l.23-.55.3.5c1.37,2.22,3.48,5.91,5.96,5.71,2.48-.2,4.34-2.87,4.97-3.56.63-.7,1.32-.89,1.93-.34.61.55.62,1.1-.13,1.84Z"/>
  <path class="cls-5" d="m145.2,719.53c3.36-3.36,4.45-3.94,4.45-6.94s-2.62-5.07-3.53-5.77c1.01-.75,3.94-2.96,3.93-5.86,0-2.82-2.9-4.64-3.93-5.33.88-.58,3.19-2.29,3.54-4.81.39-2.81-1.24-5.42-3.85-8.01l4.85.1-.09-.33c-.15-.61-.34-1.21-.77-1.49-.82-.54-7.65.02-7.65.02,0,0-.25,6.77-.05,7.36.18.54,1.21.94,1.65,1.06l.35.06v-.35c0-.16-.23-2.98-.05-4.77.3.27,1,1.11,1.25,1.37,1.59,1.73,2.45,3.49,2.07,4.92-.44,1.74-2.59,3.16-5.76,4.25l-.75.25.74.3c.06.03,5.98,2.49,5.96,5.59,0,1.79-2.01,3.52-5.96,5.11l-.55.23.5.3c2.22,1.37,5.91,3.48,5.71,5.96-.2,2.48-2.87,4.34-3.56,4.97-.7.63-.89,1.32-.34,1.93s1.1.62,1.84-.13Z"/>
  <path class="cls-6" d="m325.21,718.06s-1.6-.33-1.76.87c-.23,1.71.4,6.93.4,6.93,0,0,6.25.59,7.54.1.57-.22-.09-1.77-.09-1.77l-4.12-.44c6.43-7.82,9.87-3.77,14.02,3.27,2.69-6.14,6.92-13.13,17.01-2.48.64.53,1.14.28,1.34.08s.43-.88-.07-1.43c-6.44-7.57-13.64-8.9-18.41-.86-6.12-6.27-8.52-6.93-15.5-.2"/>
  <path class="cls-5" d="m320.86,713.71s.33,1.6-.87,1.76c-1.71.23-6.93-.4-6.93-.4,0,0-.59-6.25-.1-7.54.22-.57,1.77.09,1.77.09l.44,4.12c7.82-6.43,3.77-9.87-3.27-14.02,6.14-2.69,13.13-6.92,2.48-17.01-.53-.64-.28-1.14-.08-1.34s.88-.43,1.43.07c7.57,6.44,8.9,13.64.86,18.41,6.27,6.12,6.93,8.52.2,15.5"/>
  <path class="cls-5" d="m358.54,684.72s-.33-1.6.87-1.76c1.71-.23,6.93.4,6.93.4,0,0,.59,6.25.1,7.54-.22.57-1.77-.09-1.77-.09l-.44-4.12c-7.82,6.43-3.77,9.87,3.27,14.02-6.14,2.69-13.13,6.92-2.48,17.01.53.64.28,1.14.08,1.34s-.88.43-1.43-.07c-7.57-6.44-8.9-13.64-.86-18.41-6.27-6.12-6.93-8.52-.2-15.5"/>
  <path class="cls-6" d="m354.19,680.38s1.6.33,1.76-.87c.23-1.71-.4-6.93-.4-6.93,0,0-6.25-.59-7.54-.1-.57.22.09,1.77.09,1.77l4.12.44c-6.43,7.82-9.87,3.77-14.02-3.27-2.69,6.14-6.92,13.13-17.01,2.48-.64-.53-1.14-.28-1.34-.08s-.43.88.07,1.43c6.44,7.57,13.64,8.9,18.41.86,6.12,6.27,8.52,6.93,15.5.2"/>
  <path class="cls-5" d="m415.05,667.2c-.48.96-1.33,3.25-2.67,3.83-.56.24-1.14.05-1.81-.3l2.52-4.23c-15.3,3.42-13.17,22.99,1.62,24.98.89.11,1.58.85,1.44,1.51-.13.58-.5,1.13-1.66.95-18.13-2.84-19.19-26-1.99-29.71l-4.12-2.23c.48-.74.49-1.1,1.54-1.1.93,0,3.57,1.17,4.49,1.93,1.25,1.04,1.64,1.44,1.76,1.59"/>
  <path class="cls-5" d="m291.42,704.78c.01-.4-.19-1.21-1.07-1.33-.06,0-.11-.01-.15-.01-.77,0-1.17.77-1.28,1.21-.45,8.22-2.95,12.64-7.88,13.94.18-2.37-1.21-5.03-3.32-6.22-1.71-.96-3.55-.76-5.05.53-1.42,1.41-1.74,3.18-.89,4.89,1.11,2.22,3.91,3.78,6.39,3.62-1.39,5.4-8.5,7.14-11.57,7.65l-1.95.17,3.06-3.74-.32-.15c-.56-.27-1.14-.51-1.63-.38-.88.26-1.99,1.8-3.07,3.44-.14.21-.25.38-.31.46-.28.37-.72,1.07-.94,1.4l-.24.36.88,1.04c.26.3,3.57,3.78,4.41,4.01.42.12.95-.09,1.6-.64l.28-.24-.3-.23c-.12-.11-2.08-1.71-3.27-2.99l1.77-.14c5.87-.65,13.07-3.75,14.25-10.3,7.16-.88,10.75-8.85,10.58-16.36Zm-13.44,14.19c-2.1,0-3.33-1.06-3.82-2.15-.4-.93-.43-1.77.12-2.25.63-.52,1.85-.44,3.14.41.93.88,1.27,2,1.22,3.95-.24.02-.45.04-.66.04Z"/>
  <path class="cls-6" d="m251.73,733.1c.4.01,1.21-.19,1.33-1.07,0-.06.01-.11.01-.15,0-.77-.77-1.17-1.21-1.28-8.22-.45-12.64-2.95-13.94-7.88,2.37.18,5.03-1.21,6.22-3.32.96-1.71.76-3.55-.53-5.05-1.41-1.42-3.18-1.74-4.89-.89-2.22,1.11-3.78,3.91-3.62,6.39-5.4-1.39-7.14-8.5-7.65-11.57l-.17-1.95,3.74,3.06.15-.32c.27-.56.51-1.14.38-1.63-.26-.88-1.8-1.99-3.44-3.07-.21-.14-.38-.25-.46-.31-.37-.28-1.07-.72-1.4-.94l-.36-.24-1.04.88c-.3.26-3.78,3.57-4.01,4.41-.12.42.09.95.64,1.6l.24.28.23-.3c.11-.12,1.71-2.08,2.99-3.27l.14,1.77c.65,5.87,3.75,13.07,10.3,14.25.88,7.16,8.85,10.75,16.36,10.58Zm-14.19-13.44c0-2.1,1.06-3.33,2.15-3.82.93-.4,1.77-.43,2.25.12.52.63.44,1.85-.41,3.14-.88.93-2,1.27-3.95,1.22-.02-.24-.04-.45-.04-.66Z"/>
  <path class="cls-5" d="m223.41,693.41c-.01.4.19,1.21,1.07,1.33.06,0,.11.01.15.01.77,0,1.17-.77,1.28-1.21.45-8.22,2.95-12.64,7.88-13.94-.18,2.37,1.21,5.03,3.32,6.22,1.71.96,3.55.76,5.05-.53,1.42-1.41,1.74-3.18.89-4.89-1.11-2.22-3.91-3.78-6.39-3.62,1.39-5.4,8.5-7.14,11.57-7.65l1.95-.17-3.06,3.74.32.15c.56.27,1.14.51,1.63.38.88-.26,1.99-1.8,3.07-3.44.14-.21.25-.38.31-.46.28-.37.72-1.07.94-1.4l.24-.36-.88-1.04c-.26-.3-3.57-3.78-4.41-4.01-.42-.12-.95.09-1.6.64l-.28.24.3.23c.12.11,2.08,1.71,3.27,2.99l-1.77.14c-5.87.65-13.07,3.75-14.25,10.3-7.16.88-10.75,8.85-10.58,16.36Zm13.44-14.19c2.1,0,3.33,1.06,3.82,2.15.4.93.43,1.77-.12,2.25-.63.52-1.85.44-3.14-.41-.93-.88-1.27-2-1.22-3.95.24-.02.45-.04.66-.04Z"/>
  <path class="cls-6" d="m263.1,665.09c-.4-.01-1.21.19-1.33,1.07,0,.06-.01.11-.01.15,0,.77.77,1.17,1.21,1.28,8.22.45,12.64,2.95,13.94,7.88-2.37-.18-5.03,1.21-6.22,3.32-.96,1.71-.76,3.55.53,5.05,1.41,1.42,3.18,1.74,4.89.89,2.22-1.11,3.78-3.91,3.62-6.39,5.4,1.39,7.14,8.5,7.65,11.57l.17,1.95-3.74-3.06-.15.32c-.27.56-.51,1.14-.38,1.63.26.88,1.8,1.99,3.44,3.07.21.14.38.25.46.31.37.28,1.07.72,1.4.94l.36.24,1.04-.88c.3-.26,3.78-3.57,4.01-4.41.12-.42-.09-.95-.64-1.6l-.24-.28-.23.3c-.11.12-1.71,2.08-2.99,3.27l-.14-1.77c-.65-5.87-3.75-13.07-10.3-14.25-.88-7.16-8.85-10.75-16.36-10.58Zm14.19,13.44c0,2.1-1.06,3.33-2.15,3.82-.93.4-1.77.43-2.25-.12-.52-.63-.44-1.85.41-3.14.88-.93,2-1.27,3.95-1.22.02.24.04.45.04.66Z"/>
  <path class="cls-6" d="m177.83,712.1c-1.13,1.19-1.08,1.37-1.33,2.32-.16.59-.05,1.23.55,1.78l2.88-3.08c.97,15.26-18.09-1.03-25.02-29.88-.16-.98-.93-1.64-1.57-1.54-.38.04-1.35.51-1.07,1.65,9.26,36.8,31.66,48.09,29.77,29.9l3.52,2.57c.1-.71.35-1.65.06-2.08-.83-1.21-1.92-1.97-2.56-2.39-.67-.45-2.11-1.57-2.3-1.62"/>
  <path class="cls-5" d="m172.54,686.09c1.13-1.19,1.08-1.37,1.33-2.32.16-.59.05-1.23-.55-1.78l-2.88,3.08c-.97-15.26,18.09,1.03,25.02,29.88.16.98.93,1.64,1.57,1.54.38-.04,1.35-.51,1.07-1.65-9.26-36.8-31.66-48.09-29.77-29.9l-3.52-2.57c-.1.71-.35,1.65-.06,2.08.83,1.21,1.92,1.97,2.56,2.39.67.45,2.11,1.57,2.3,1.62"/>
  <path class="cls-6" d="m188.19,701.74c1.19-1.13,1.37-1.08,2.32-1.33.59-.16,1.23-.05,1.78.55l-3.08,2.88c15.26.97-1.03-18.09-29.88-25.02-.98-.16-1.64-.93-1.54-1.57.04-.38.51-1.35,1.65-1.07,36.8,9.26,48.09,31.66,29.9,29.77l2.57,3.52c-.71.1-1.65.35-2.08.06-1.21-.83-1.97-1.92-2.39-2.56-.45-.67-1.57-2.11-1.62-2.3"/>
  <path class="cls-5" d="m162.18,696.45c-1.19,1.13-1.37,1.08-2.32,1.33-.59.16-1.23.05-1.78-.55l3.08-2.88c-15.26-.97,1.03,18.09,29.88,25.02.98.16,1.64.93,1.54,1.57-.04.38-.51,1.35-1.65,1.07-36.8-9.26-48.09-31.66-29.9-29.77l-2.57-3.52c.71-.1,1.65-.35,2.08-.06,1.21.83,1.97,1.92,2.39,2.56.45.67,1.57,2.11,1.62,2.3"/>
  <path class="cls-5" d="m357.17,726.34c-1.07-.08-3.88-.58-5.21.03-.56.26-.64,1.15-1.07,1.65l5.3.49c-7.71,7.26-22.48,9.35-33.72-.56-.71-.55-1.49-.6-2.18.24-.73.88-.41,1.2.49,1.95,10.97,9.07,26.76,10.23,37.03-.04l-.51,5.14c.7-.17,1.42-.39,1.71-.82.82-1.22.88-4.34.84-5.1-.04-.73-.23-2.21-.26-2.4"/>
  <path class="cls-6" d="m312.48,681.64c.08,1.07.58,3.88-.03,5.21-.26.56-1.15.64-1.65,1.07l-.49-5.3c-7.26,7.71-9.35,22.48.56,33.72.55.71.6,1.49-.24,2.18-.88.73-1.2.41-1.95-.49-9.07-10.97-10.23-26.76.04-37.03l-5.14.51c.17-.7.39-1.42.82-1.71,1.22-.82,4.34-.88,5.1-.84.73.04,2.21.23,2.4.26"/>
  <path class="cls-6" d="m366.82,716.69c-.08-1.07-.58-3.88.03-5.21.26-.56,1.15-.64,1.65-1.07l.49,5.3c7.26-7.71,9.35-22.48-.56-33.72-.55-.71-.6-1.49.24-2.18.88-.73,1.2-.41,1.95.49,9.07,10.97,10.23,26.76-.04,37.03l5.14-.51c-.17.7-.39,1.42-.82,1.71-1.22.82-4.34.88-5.1.84s-2.21-.23-2.4-.26"/>
  <path class="cls-5" d="m322.12,672c1.07.08,3.88.58,5.21-.03.56-.26.64-1.15,1.07-1.65l-5.3-.49c7.71-7.26,22.48-9.35,33.72.56.71.55,1.49.6,2.18-.24.73-.88.41-1.2-.49-1.95-10.97-9.07-26.76-10.23-37.03.04l.51-5.14c-.7.17-1.42.39-1.71.82-.82,1.22-.88,4.34-.84,5.1.04.73.23,2.21.26,2.4"/>
  <path class="cls-6" d="m399.01,695.74s-1.24,1.3-2.22.59c-1.4-1.01-4.69-4.84-4.69-4.84,0,0,3.57-4.47,4.68-5.28.98-.72,1.7,1.02,1.7,1.02l-2.62,3.24c17.65-.05,20.74-3.47,20.39-23.07-.09-.46,1.13-.7,1.42-.77s.93.26,1.04.73c.48,21.39-4.23,25.88-22.87,25.11"/>
  <path class="cls-6" d="m428.71,667.2c.48.96,1.33,3.25,2.67,3.83.56.24,1.14.05,1.81-.3l-2.52-4.23c15.3,3.42,13.17,22.99-1.62,24.98-.89.11-1.58.85-1.44,1.51.13.58.5,1.13,1.66.95,18.13-2.84,19.19-26,1.99-29.71l4.12-2.23c-.48-.74-.49-1.1-1.54-1.1-.93,0-3.57,1.17-4.49,1.93-1.25,1.04-1.64,1.44-1.76,1.59"/>
  <path class="cls-5" d="m444.75,695.74s1.24,1.3,2.22.59c1.4-1.01,4.69-4.84,4.69-4.84,0,0-3.57-4.47-4.68-5.28-.98-.72-1.7,1.02-1.7,1.02l2.62,3.24c-17.65-.05-20.74-3.47-20.39-23.07.09-.46-1.13-.7-1.42-.77s-.93.26-1.04.73c-.48,21.39,4.23,25.88,22.87,25.11"/>
  <path class="cls-6" d="m415.05,731.13c-.48-.96-1.33-3.25-2.67-3.83-.56-.24-1.14-.05-1.81.3l2.52,4.23c-15.3-3.42-13.17-22.99,1.62-24.98.89-.11,1.58-.85,1.44-1.51-.13-.58-.5-1.13-1.66-.95-18.13,2.84-19.19,26-1.99,29.71l-4.12,2.23c.48.74.49,1.1,1.54,1.1.93,0,3.57-1.17,4.49-1.93,1.25-1.04,1.64-1.44,1.76-1.59"/>
  <path class="cls-5" d="m399.01,702.6s-1.24-1.3-2.22-.59c-1.4,1.01-4.69,4.84-4.69,4.84,0,0,3.57,4.47,4.68,5.28.98.72,1.7-1.02,1.7-1.02l-2.62-3.24c17.65.05,20.74,3.47,20.39,23.07-.09.46,1.13.7,1.42.77s.93-.26,1.04-.73c.48-21.39-4.23-25.88-22.87-25.11"/>
  <path class="cls-5" d="m428.71,731.13c.48-.96,1.33-3.25,2.67-3.83.56-.24,1.14-.05,1.81.3l-2.52,4.23c15.3-3.42,13.17-22.99-1.62-24.98-.89-.11-1.58-.85-1.44-1.51.13-.58.5-1.13,1.66-.95,18.13,2.84,19.19,26,1.99,29.71l4.12,2.23c-.48.74-.49,1.1-1.54,1.1-.93,0-3.57-1.17-4.49-1.93-1.25-1.04-1.64-1.44-1.76-1.59"/>
  <path class="cls-6" d="m444.75,702.6s1.24-1.3,2.22-.59c1.4,1.01,4.69,4.84,4.69,4.84,0,0-3.57,4.47-4.68,5.28-.98.72-1.7-1.02-1.7-1.02l2.62-3.24c-17.65.05-20.74,3.47-20.39,23.07.09.46-1.13.7-1.42.77s-.93-.26-1.04-.73c-.48-21.39,4.23-25.88,22.87-25.11"/>
  <text class="cls-2" transform="translate(276.05 226.79)"><tspan x="0" y="0">1.1</tspan></text>
  <text class="cls-1" transform="translate(176.94 416.42)"><tspan x="0" y="0">Base Letters</tspan></text>
  <line class="cls-4" x1="309.92" y1="261.26" x2="309.92" y2="363.05"/>
  <line class="cls-4" x1="309.92" y1="452.42" x2="309.92" y2="624.38"/>
</svg>