<?xml version="1.0" encoding="UTF-8"?>
<svg id="Layer_1" data-name="Layer 1" xmlns="http://www.w3.org/2000/svg" viewBox="0 0 612 792">
  <defs>
    <style>
      .cls-1, .cls-2, .cls-3, .cls-4 {
        fill: none;
      }

      .cls-1, .cls-2, .cls-4 {
        stroke: #231f20;
        stroke-miterlimit: 10;
      }

      .cls-5 {
        fill: #fff;
      }

      .cls-6 {
        fill: #00aeef;
      }

      .cls-6, .cls-7, .cls-8, .cls-9 {
        font-family: Cambria-BoldItalic, Cambria;
      }

      .cls-6, .cls-7, .cls-8, .cls-9, .cls-10 {
        font-weight: 700;
      }

      .cls-7 {
        letter-spacing: -.03em;
      }

      .cls-7, .cls-11, .cls-12, .cls-13, .cls-8, .cls-10, .cls-14, .cls-15 {
        fill: #231f20;
      }

      .cls-11 {
        font-family: Georgia-Italic, Georgia;
        font-size: 13px;
      }

      .cls-11, .cls-16 {
        font-style: italic;
      }

      .cls-17 {
        fill: #2e3192;
      }

      .cls-2 {
        stroke-width: 2px;
      }

      .cls-12 {
        font-size: 25px;
      }

      .cls-12, .cls-15 {
        font-family: MonotypeCorsiva, 'Monotype Corsiva';
      }

      .cls-13 {
        font-family: Cambria-Italic, Cambria;
      }

      .cls-18 {
        fill: #ed1c24;
      }

      .cls-9 {
        fill: #7f3f98;
      }

      .cls-16 {
        font-size: 22px;
      }

      .cls-4 {
        stroke-width: .5px;
      }

      .cls-10 {
        font-family: Cambria-Bold, Cambria;
        font-size: 17px;
      }

      .cls-15 {
        font-size: 53px;
      }
    </style>
  </defs>
  <text class="cls-16" transform="translate(21.79 546.01)"><tspan class="cls-13" x="0" y="0">Type 2</tspan><tspan class="cls-8" x="60.85" y="0" xml:space="preserve"> - </tspan><tspan class="cls-9" x="77.7" y="0">Shift</tspan><tspan class="cls-8" x="123.17" y="0" xml:space="preserve">    </tspan></text>
  <text class="cls-16" transform="translate(21.79 83)"><tspan class="cls-13" x="0" y="0">Type 1</tspan><tspan class="cls-8" x="60.85" y="0" xml:space="preserve"> - </tspan><tspan class="cls-6" x="77.7" y="0">Dual</tspan><tspan class="cls-7" x="124.56" y="0">-</tspan><tspan class="cls-9" x="131.07" y="0">Shift</tspan><tspan class="cls-8" x="176.54" y="0" xml:space="preserve">    </tspan></text>
  <g>
    <text class="cls-10" transform="translate(13.68 229.39)"><tspan x="0" y="0">β</tspan><tspan x="10.22" y="0">→</tspan><tspan x="24.46" y="0">β</tspan></text>
    <text class="cls-10" transform="translate(13.68 119.07)"><tspan x="0" y="0">α</tspan><tspan x="10.53" y="0">→</tspan><tspan x="24.77" y="0" xml:space="preserve">α   </tspan></text>
    <text class="cls-10" transform="translate(558.31 118.68)"><tspan x="0" y="0">β</tspan><tspan x="10.22" y="0">→</tspan><tspan x="24.46" y="0" xml:space="preserve">α   </tspan></text>
    <text class="cls-10" transform="translate(560.98 225)"><tspan x="0" y="0">α</tspan><tspan x="10.53" y="0">→</tspan><tspan x="24.77" y="0">β</tspan></text>
    <text class="cls-10" transform="translate(13.68 327.15)"><tspan x="0" y="0">Γ→Γ</tspan></text>
    <text class="cls-10" transform="translate(13.68 573.73)"><tspan x="0" y="0">Γ→α</tspan></text>
    <text class="cls-10" transform="translate(400.8 573.86)"><tspan x="0" y="0">Γ→β</tspan></text>
    <text class="cls-10" transform="translate(400.8 687.64)"><tspan x="0" y="0">β→Γ</tspan></text>
    <text class="cls-10" transform="translate(13.68 687.64)"><tspan x="0" y="0">α→Γ</tspan></text>
  </g>
  <g>
    <text class="cls-12" transform="translate(242.75 92.53)"><tspan x="0" y="0">(from out|out)</tspan></text>
    <text class="cls-15" transform="translate(254.07 60.7)"><tspan x="0" y="0">Clubs</tspan></text>
  </g>
  <g>
    <path class="cls-14" d="m90.71,638.18c-.46-.06-.96.28-1.19,1.14-.42,1.54-.92,3.7-1.44,5.63-1.11-2.72-1.86-4.39-2.5-4.38-.01,0-.02,0-.03.01-.01-.01-.02-.01-.03-.01-.64-.01-1.39,1.65-2.5,4.38-.51-1.93-1.02-4.09-1.44-5.63-.24-.86-.73-1.2-1.19-1.14-.59.07-.98.49-.74,1.25.25.81,1.84,6.07,2.3,7.72.47,1.65,1.59.9,1.8.49.21-.41,1.36-3.67,1.8-4.59.44.92,1.59,4.18,1.8,4.59.21.41,1.33,1.16,1.8-.49.46-1.64,2.05-6.9,2.3-7.72.24-.76-.15-1.18-.74-1.25Z"/>
    <path class="cls-14" d="m360.77,749.96h-3.54c-.32,0-.53-.32-.41-.62,2.67-6.29.99-7.71-1.08-7.85-.04,0-.08,0-.12,0h-.02s-.09,0-.13,0c-.04,0-.08,0-.12,0-2.07.14-3.75,1.56-1.08,7.85.12.29-.09.62-.41.62h-3.54c-.14,0-.66-1.27.12-1.73.69-.41.99.09,1.81.11-2.24-4.96.04-7.96,2.78-8.36.08-.02.94-.02,1.02,0,2.74.41,5.02,3.4,2.78,8.36.82-.02,1.12-.51,1.81-.11.78.46.26,1.73.12,1.73Z"/>
    <path class="cls-14" d="m179.62,748.09c-.93-2.27-1.86-4.39-2.21-5.2-.38-.84-.67-1.52-.74-1.72-.32-.87-.6-1.18-1.12-1.22-.5.04-.79.34-1.11,1.22-.07.2-.36.87-.73,1.72-.73,1.66-1.56,3.6-2.22,5.2-.28.71-.29,1.21-.03,1.52.19.23.49.34.9.34h6.43c.41,0,.71-.12.9-.34.12-.15.18-.34.18-.58,0-.26-.07-.57-.22-.94Zm-1.67.34h-4.8c.17-.42.49-1.25.87-2.18.56-1.41,1.21-3.07,1.53-3.9.39.98,1.22,3.11,1.83,4.63l.57,1.44Z"/>
    <path class="cls-14" d="m87.3,744.15c.48.44.43.65.44.96s-.23.47-.53.71c-1.75,1.43-2.78,2.44-2.78,2.44,0,0,.42.05,4.42.05.4,0,.79.33.79.78,0,.48-.22.88-.64.88-2.35,0-4.02-.05-5.97-.05-.79,0-1.34-.19-1.52-.57-.17-.36-.12-.9.55-1.52,1.91-1.72,3.47-2.88,3.47-2.88,0,0-2.17-1.97-3.75-3.56-.33-.33-.43-.62-.31-.85.11-.2.55-.57.92-.57h6.71c.74,0,.77,1.31,0,1.31-3.37,0-5.2.02-5.2.02l3.38,2.85Z"/>
    <path class="cls-14" d="m268.9,639.42l-4.37,8.3c-.15.29-.45.46-.75.46-.13,0-.26-.04-.39-.1-.2-.11-.35-.28-.42-.5-.07-.21-.05-.45.06-.65l1.88-3.58-2.53-3.62c-.12-.11-.2-.27-.24-.47-.05-.25.03-.53.2-.71.15-.17.35-.27.58-.28.22,0,.45.07.61.21l2.2,3.29,1.65-3.14c.12-.2.29-.35.51-.42.22-.07.45-.04.65.07.22.12.38.33.43.59.03.19,0,.38-.08.55Z"/>
    <path class="cls-14" d="m179.45,646.68c.16.19.21.44.19.68-.03.24-.16.46-.34.61-.4.3-.98.23-1.3-.17l-2.45-3.14-2.45,3.14c-.18.23-.45.36-.72.36-.19,0-.4-.07-.57-.19-.19-.15-.32-.37-.35-.61-.03-.24.03-.49.19-.68l2.73-3.51-2.73-3.51c-.13-.17-.19-.36-.19-.57,0-.28.14-.56.36-.73.19-.15.42-.21.67-.19.24.03.47.16.61.35l2.45,3.14,2.44-3.14c.33-.41.91-.48,1.31-.16.22.17.35.43.35.72,0,.2-.07.4-.19.57l-2.73,3.51,2.73,3.51Z"/>
    <path class="cls-14" d="m265.53,739.96c-1.33,0-3.23,1.68-3.23,5,0,2.56,1.22,5,3.23,5s3.27-2.44,3.27-5c0-3.48-1.94-5-3.27-5Zm.01,1.37c.96,0,1.64,1.13,1.7,1.93.02.3,0,.81-.55.81h-2.33c-.46,0-.51-.5-.5-.76.07-.8.81-1.98,1.69-1.98Zm0,7.26c-1.08,0-1.72-1.28-1.79-2.08-.01-.25,0-.76.5-.76h2.53c.56,0,.58.5.55.81-.06.8-.72,2.03-1.8,2.03Z"/>
    <path class="cls-14" d="m356.52,639.91h-3.64c-1.34,0-1.31-1.73,0-1.73,5.4,0,5.35.02,5.67.38.23.27.43.73.15,1.14-1.71,2.48-4.54,6.52-4.54,6.52,0,0,3.43,0,4.33,0,1.35,0,1.4,1.91.13,1.91-8.37,0-9.53,1.13-2.09-8.23Z"/>
    <text class="cls-11" transform="translate(94.4 749.43)"><tspan x="0" y="0">Sigma</tspan></text>
    <text class="cls-11" transform="translate(185.26 749.79)"><tspan x="0" y="0">Delta</tspan></text>
    <text class="cls-11" transform="translate(273.56 749.79)"><tspan x="0" y="0">Theta</tspan></text>
    <text class="cls-11" transform="translate(364.75 749.87)"><tspan x="0" y="0">Omega</tspan></text>
    <path class="cls-14" d="m175.91,193.02c4.39-1.93.8-6.48-3.28-4.27-.04.02-.07.06-.07.1-.38,2.63-.16,6.19.2,8.71.02.13.12.23.24.27,6.22,1.71,7.68-3.78,2.91-4.81Zm.65-2.47c0,1.13-1.98,1.51-2.74,1.51-.13-.26-.02-2.43.07-2.53.9-.25,2.67.04,2.67,1.02Zm-2.38,6.17c-.17-1.1-.2-1.41-.14-2.54.47-.06,3.32-.1,3.29,1.38-.03,1.15-2.44,1.38-3.15,1.16Z"/>
    <path class="cls-14" d="m269.33,195.92c.42.55-.07,1.12-.5,1.33-9.15,4.54-8.83-9.42-3.27-9.09,1.07.06,2.05.85,2.39,1.26.25.29.44.81.12,1.16-.34.36-.8.24-1.02,0-4.33-4.56-6.65,9.06,1.11,5.25.45-.22.79-.4,1.16.09Z"/>
    <path class="cls-14" d="m351.72,188.61c4.64-1.3,7.94.33,7.99,3.72.1,6.19-7.54,6.06-7.86,5.69-.19-.72-.85-5.47-.13-9.41Zm1.61,7.69c3.94-.46,5.1-2.07,4.74-4.52-.36-2.45-4.31-2.07-4.85-1.81-.26,3.6-.2,4.36.11,6.32Z"/>
    <path class="cls-14" d="m443.79,191.15c0,.36.02,1.02.02,1.02,0,0,2.18.01,3.53.07.5.02.9-.07.95.78.04.6-.32.73-.87.77-1.28.09-3.49.05-3.49.05,0,0,.03,1.16.07,1.65.03.39.1.88.1.88,0,0,3.53.01,3.93,0,.33,0,.84,0,.81.84-.03.89-.42.83-.98.87-1.49.1-4.12,0-4.84-.38-1.02-.55-.79-5.46-.37-8.84.08-.67,3.98-.71,4.96-.62.44.04.67.53.67.82,0,.31,0,.87-.59.9-1.38.08-3.86.16-3.86.16,0,0-.03.8-.02,1.03Z"/>
    <path class="cls-14" d="m532.74,197.51c-.21-2.13-.27-7.16-.03-8.83,0,0,1.78-.75,5.18-.44.42.04.62.25.63.53.03.54,0,1.08-.55,1.11-1.32.07-3.68.15-3.68.15,0,0-.03.76-.02.98,0,.34.02.97.02.97,0,0,2.08.01,3.36.07.47.02.88-.05.91.74.02.57-.38.7-.91.74-1.22.09-3.25.04-3.25.04.07,1.57.19,3.19.19,3.78,0,.69-.57.8-.97.8-.59,0-.85-.44-.87-.65Z"/>
    <path class="cls-14" d="m533.69,288.78c-.19,8.85-.94,7.8,4.1,7.75.71,0,1.24.12,1.24.84,0,.33-.44.77-1.2.77-4.71,0-4.71.13-5.33-.4-.49-.41-.42-1.9-.42-2.78,0-1.17.02-5.56.1-6.18s.33-.62.75-.62c.38,0,.77.09.76.62Z"/>
    <path class="cls-14" d="m355.77,291.73c-.23-1.81.31-1.52-1.96-1.52-.48,0-1.1-.23-1.08-.83.02-.68.18-1,1.11-1,.29,0,2.96-.14,5.13-.13.75,0,1.29.31,1.29,1,0,.56-.42.9-1.31.9-1.86,0-1.61-.26-1.61,1.62,0,2.18.1,3.12-.28,3.9-2.04,4.14-6.19,2.28-6.19-.8,0-.58.16-.88.74-.92.52-.04.65.48.76.88.75,2.71,4.08,2.04,3.42-3.1Z"/>
    <path class="cls-14" d="m443.95,294.27c0,1.63,0,2.16,0,3.1,0,.66-.29.79-.8.79s-.93-.29-.93-.87c0-1.15-.04-6.16-.04-8.56,0-.52.34-.57.65-.57.41,0,.86.14.86.57,0,1.02.08,3.16.08,3.16,0,0,1.87-1.75,2.5-2.42.41-.44,1-.5,1.3-.14.3.36.47.6-.1,1.15-.85.84-1.04,1.21-2.46,2.53.83.86,2.18,1.99,3.61,3.62.45.51.34,1.14.17,1.3s-.8.24-1.19-.17-1.92-2.09-3.65-3.5Z"/>
    <path class="cls-14" d="m352.58,388.63c2.1-.68,4.35-.62,5.15.12,1.3,1.2,1.17,2.8.53,3.78-.96,1.47-3.93,1.42-3.93,1.42,0,0,.29,3.22.2,3.68-.02.1-.5.53-.74.53-.26,0-.84-.18-.88-.48-.61-5.29-.67-8.32-.33-9.04Zm1.64,3.84c2.37.24,3.12-.65,2.92-2-.2-1.35-2.71-1-3.01-.85-.11,1.56-.08,1.77.09,2.85Z"/>
    <path class="cls-14" d="m538.86,396.79l-2.7-3.03c.87-.25,1.47-.64,1.8-1.14.66-1.02.77-2.65-.54-3.86-.83-.76-3.04-.82-5.15-.14l-.06.02-.02.05c-.26.54-.14,2.22.07,5.27.08,1.06.16,2.26.24,3.62.02.37.41.57.79.57.3,0,.77-.17.84-.62.06-.42-.05-2.87-.08-3.48h.17l3.42,3.83c.16.18.38.27.61.27.2,0,.4-.07.55-.21.34-.3.37-.83.07-1.16Zm-5.02-4.32l-.03-.2c-.13-.82-.2-1.21-.11-2.5.38-.1,1.92-.27,2.71.15.28.14.44.34.47.59.08.5-.06.95-.38,1.3-.52.53-1.46.77-2.66.67Z"/>
    <path class="cls-14" d="m90.71,398.15c-.46.06-.96-.28-1.19-1.14-.42-1.54-.92-3.7-1.44-5.63-1.11,2.72-1.86,4.39-2.5,4.38-.01,0-.02,0-.03-.01-.01.01-.02.01-.03.01-.64.01-1.39-1.65-2.5-4.38-.51,1.93-1.02,4.09-1.44,5.63-.24.86-.73,1.2-1.19,1.14-.59-.07-.98-.49-.74-1.25.25-.81,1.84-6.07,2.3-7.72.47-1.65,1.59-.9,1.8-.49.21.41,1.36,3.67,1.8,4.59.44-.92,1.59-4.18,1.8-4.59.21-.41,1.33-1.16,1.8.49.46,1.64,2.05,6.9,2.3,7.72.24.76-.15,1.18-.74,1.25Z"/>
    <path class="cls-14" d="m180.06,389.48c-.2.78-1.37,6.55-1.58,7.33-.21.78-.44,1.33-.9,1.35s-.64-.27-1.17-1.25-1.66-3.47-2.44-5.56c-.53,1.89-.73,3.97-1.16,5.48-.25.85-.58,1.36-1.02,1.29-.1-.02-1.05-.26-.75-1.36.22-.81,1.48-6,1.96-7.62.48-1.62,1.54-.85,1.73-.44.19.41,2.31,5.6,2.67,6.53.19-.85.69-4.5,1.08-6.27.13-.6.81-.88,1.1-.76s.68.5.48,1.29Z"/>
    <path class="cls-14" d="m261.32,395.04c-.55-2.97.03-4.69,2.09-6.23,1.86-1.39,4.92-.33,5.78,1.24.73,1.31,1.54,4.09-.47,6.49-.67.8-1.59,1.4-2.62,1.57-2.46.41-4.48-1.4-4.79-3.06Zm2.23.5c1.14,1.13,3.41,1.11,4.45-.7,1.02-1.77.06-3.66-.63-4.27-.55-.49-2.53-1.19-3.76.41-1.11,1.45-.84,3.8-.07,4.56Z"/>
    <path class="cls-14" d="m450.01,396.67l-.97-.99-.02-.02c1.23-2.17.51-4.46-.12-5.62-.87-1.56-3.93-2.62-5.78-1.24-2.07,1.53-2.64,3.26-2.09,6.23.3,1.66,2.32,3.48,4.78,3.07.79-.14,1.51-.53,2.11-1.07l.84.86c.34.34.89.35,1.24,0,.35-.34.35-.9,0-1.24Zm-6.76-1.14c-.78-.77-1.05-3.12.06-4.56,1.24-1.59,3.21-.9,3.76-.41.64.58,1.52,2.26.81,3.93l-.1-.1h0s-1.02-1.04-1.02-1.04c-.34-.35-.9-.35-1.24,0-.18.16-.26.39-.26.62s.08.45.25.62l1.1,1.12.15.15c-1.14.75-2.65.55-3.51-.31Z"/>
    <path class="cls-14" d="m89.15,495.79c-.25,1.19-1.45,2.37-3.24,2.37h-.11c-1-.04-2.78-.26-3.51-1.25-.39-.52-.47-1.13-.19-1.44.24-.27.68-.24,1.23.08,1.08,1.06,2.52,1.08,3.42.64.52-.26.82-.65.77-1.03-.03-.33-.36-.94-2.12-1.35-2.5-.56-3.55-1.98-3.49-3.14.06-1.03,1.04-2.24,3.59-2.51.07,0,.13,0,.2,0,1.08,0,2.66.83,2.96,1.59.13.32.04.59-.26.82-.19.14-.59-.05-1.1-.3-.48-.23-1.01-.49-1.51-.55-.14-.02-.27-.03-.4-.03-.95,0-1.68.48-1.82.99-.13.47.23.9.96,1.2l2.99,1.21c1.5.62,1.82,1.8,1.62,2.7Z"/>
    <path class="cls-14" d="m359.31,489.51c-.06.29-1.97,5.54-3.02,7.94-.32.73-.61.72-.74.72s-.42,0-.74-.72c-1.05-2.4-2.96-7.64-3.02-7.94-.23-1,.08-1.16.44-1.3.28-.13.86-.02,1.12.7.16.42,2.2,5.86,2.2,5.86,0,0,2.05-5.44,2.2-5.86.25-.72.83-.82,1.12-.7.36.15.67.3.44,1.3Z"/>
    <path class="cls-14" d="m269.47,493.68c-.11.73-.3,1.42-.58,2.11-.6,1.42-1.8,2.3-3.21,2.37h-.26c-1.41-.07-2.6-.95-3.21-2.37-.28-.67-.47-1.36-.57-2.11-.19-1.31-.24-2.6-.18-4.35.02-.47.13-.8.34-.99.14-.13.32-.19.52-.19.64.04.78.66.82,1.21,0,.18,0,.48,0,.86-.05,1.51-.14,4.35.93,5.36.21.2.58.43.94.56.35.14.73.14,1.08,0,.36-.14.74-.37.95-.56,1.06-1.01.98-3.81.93-5.33,0-.4-.02-.71,0-.89.03-.5.15-1.17.8-1.21.21,0,.39.06.52.19.22.19.33.52.34.99.08,1.8.03,3.06-.16,4.35Z"/>
    <path class="cls-14" d="m88.67,289.81c-.42-.02-1.11-.04-1.33-.05-2.5-.16-3.99,1.77-4.23,4.08-.08.74.07,1.24.63,1.77.96.88,2.65,1.08,3.68.33.29-.21.56-.57.67-.92.23-.7-.06-1.13-.73-1.15-.55-.02-1.11.07-1.67.1-.47.02-.98.05-1.11-.62-.11-.57.35-1.04,1.07-1.13.6-.07,1.2-.08,1.8-.13.41-.04.92,0,1.41-.03.86,1.57.93,2.45.34,3.91-.66,1.62-1.9,2.23-3.38,2.2-.76-.02-1.61-.21-2.26-.62-2.32-1.47-2.63-3.71-1.3-6.4,1.3-3.01,4.25-2.97,5.53-2.98.84,0,1.06.15.85,1.66Z"/>
    <path class="cls-14" d="m89.21,197.17c-.87-2.99-2.3-6.84-2.48-7.31-.18-.46-.77-1.7-1.18-1.7s-1,1.24-1.18,1.7c-.18.47-1.61,4.32-2.48,7.31-.24.84.06.91.18.94,1.61.21,1.32-.3,1.57-1.4.23-1,.22-1.46,1-1.46.38,0,.56.01.91.01s.54-.01.91-.01c.78,0,.77.46,1,1.46.25,1.1-.04,1.61,1.57,1.4.12-.03.42-.1.18-.94Zm-2.91-3.37h-1.51c-.14,0-.23-.07-.19-.23l.94-3.44.94,3.44c.04.16-.05.23-.19.23Z"/>
    <path class="cls-14" d="m179.64,489.09c-.01.49-.38.78-1.17.77h-2.09v7.47c0,.45-.37.83-.83.83s-.83-.38-.83-.83v-7.47h-2.09c-.79,0-1.16-.28-1.17-.77-.02-.62.45-.89,1.12-.91.82-.02,5.12-.02,5.94,0,.67.02,1.14.29,1.12.91Z"/>
    <path class="cls-14" d="m269.22,297.41c0,.65-.36.74-1.5.74h-4.33c-1.13,0-1.5-.09-1.5-.74s.49-.73,1.75-.73,1.17.32,1.17-3.55.1-3.5-2-3.5c-.49,0-.92-.16-.92-.72s.2-.75.99-.75h5.35c.79,0,.99.2.99.75s-.43.72-.92.72c-2.1,0-2-.37-2,3.5s-.14,3.55,1.17,3.55,1.75.08,1.75.73Z"/>
    <path class="cls-14" d="m178.87,289.23v7.97c0,.82-.23.95-.84.95-.67,0-.75-.2-.75-.9,0-2.75.12-3.14-.89-3.17-.34-.02-1.3-.02-1.68,0-1.01.03-.89.42-.89,3.17,0,.7-.08.9-.75.9-.61,0-.84-.13-.84-.95v-7.97c0-.96.39-1.07.88-1.07s.71.2.71,1.04c0,2.76.11,3.25.76,3.25h1.94c.65,0,.76-.49.76-3.25,0-.84.22-1.04.71-1.04s.88.11.88,1.07Z"/>
  </g>
  <g>
    <path class="cls-18" d="m180.93,625.69c0-19.4,1.3-21.27,20.15-21.27l-2.72-2.66s1.04-1.1,1.87-.5c1.18.85,3.95,4.08,3.95,4.08,0,0-3.01,3.38-3.95,4.07-.82.6-1.87-.48-1.87-.48l2.72-2.56c-17.27,0-18.08,1-18.08,19.29,0,1.45-2.07,1.48-2.07.03Z"/>
    <path class="cls-18" d="m91.77,627.83c11.89,0,22.68-9.57,22.72-21.38l2.41,2.65s1.11-1.01.54-1.85c-.65-.95-3.93-4.08-3.93-4.08,0,0-3.32,2.66-4.21,3.8-.63.81.43,1.89.43,1.89l2.78-2.61c-.03,8.93-7.32,18.79-20.74,19.5-1.57.08-1.62,2.09,0,2.08Z"/>
    <path class="cls-18" d="m201.87,700.45c-19.4,0-21.27,1.3-21.27,20.15l-2.66-2.72s-1.1,1.04-.5,1.87c.85,1.18,4.08,3.95,4.08,3.95,0,0,3.38-3.01,4.07-3.95.6-.82-.48-1.87-.48-1.87l-2.56,2.72c0-17.27,1-18.08,19.29-18.08,1.45,0,1.48-2.07.03-2.07Z"/>
    <path class="cls-18" d="m114.58,702.49c0,11.89-9.57,22.68-21.38,22.72l2.65,2.41s-1.01,1.11-1.85.54c-.95-.65-4.08-3.93-4.08-3.93,0,0,2.66-3.32,3.8-4.21.81-.63,1.89.43,1.89.43l-2.61,2.78c8.93-.03,18.79-7.32,19.5-20.74.08-1.57,2.09-1.62,2.08,0Z"/>
    <path class="cls-18" d="m360.75,726.9c0-19.4,1.3-21.27,20.15-21.27l-2.72-2.66s1.04-1.1,1.87-.5c1.18.85,3.95,4.08,3.95,4.08,0,0-3.01,3.38-3.95,4.07-.82.6-1.87-.48-1.87-.48l2.72-2.56c-17.27,0-18.08,1-18.08,19.29,0,1.45-2.07,1.48-2.07.03Z"/>
    <path class="cls-18" d="m270.47,729.88c11.89,0,22.68-9.57,22.72-21.38l2.41,2.65s1.11-1.01.54-1.85c-.65-.95-3.93-4.08-3.93-4.08,0,0-3.32,2.66-4.21,3.8-.63.81.43,1.89.43,1.89l2.78-2.61c-.03,8.93-7.32,18.79-20.74,19.5-1.57.08-1.62,2.09,0,2.08Z"/>
    <path class="cls-18" d="m384.14,601.78c-19.4,0-21.27,1.3-21.27,20.15l-2.66-2.72s-1.1,1.04-.5,1.87c.85,1.18,4.08,3.95,4.08,3.95,0,0,3.38-3.01,4.07-3.95.6-.82-.48-1.87-.48-1.87l-2.56,2.72c0-17.27,1-18.08,19.29-18.08,1.45,0,1.48-2.07.03-2.07Z"/>
    <path class="cls-18" d="m296.33,604.95c0,11.89-9.57,22.68-21.38,22.72l2.65,2.41s-1.01,1.11-1.85.54c-.95-.65-4.08-3.93-4.08-3.93,0,0,2.66-3.32,3.8-4.21.81-.63,1.89.43,1.89.43l-2.61,2.78c8.93-.03,18.79-7.32,19.5-20.74.08-1.57,2.09-1.62,2.08,0Z"/>
    <path class="cls-17" d="m169.58,178.16c0-19.4-1.3-21.27-20.15-21.27l2.72-2.66s-1.04-1.1-1.87-.5c-1.18.85-3.95,4.08-3.95,4.08,0,0,3.01,3.38,3.95,4.07.82.6,1.87-.48,1.87-.48l-2.72-2.56c17.27,0,18.08,1,18.08,19.29,0,1.45,2.07,1.48,2.07.03Z"/>
    <path class="cls-18" d="m182.77,118.59c0,19.4,1.3,21.27,20.15,21.27l-2.72,2.66s1.04,1.1,1.87.5c1.18-.85,3.95-4.08,3.95-4.08,0,0-3.01-3.38-3.95-4.07-.82-.6-1.87.48-1.87.48l2.72,2.56c-17.27,0-18.08-1-18.08-19.29,0-1.45-2.07-1.48-2.07-.03Z"/>
    <path class="cls-17" d="m262.42,175.07c0-19.4-1.3-21.27-20.15-21.27l2.72-2.66s-1.04-1.1-1.87-.5c-1.18.85-3.95,4.08-3.95,4.08,0,0,3.01,3.38,3.95,4.07.82.6,1.87-.48,1.87-.48l-2.72-2.56c17.27,0,18.08,1,18.08,19.29,0,1.45,2.07,1.48,2.07.03Z"/>
    <path class="cls-17" d="m79.36,178.23c-11.89,0-22.68-9.57-22.72-21.38l-2.41,2.65s-1.11-1.01-.54-1.85c.65-.95,3.93-4.08,3.93-4.08,0,0,3.32,2.66,4.21,3.8.63.81-.43,1.89-.43,1.89l-2.78-2.61c.03,8.93,7.32,18.79,20.74,19.5,1.57.08,1.62,2.09,0,2.08Z"/>
    <path class="cls-18" d="m90.86,120.65c11.89,0,22.68,9.57,22.72,21.38l2.41-2.65s1.11,1.01.54,1.85c-.65.95-3.93,4.08-3.93,4.08,0,0-3.32-2.66-4.21-3.8-.63-.81.43-1.89.43-1.89l2.78,2.61c-.03-8.93-7.32-18.79-20.74-19.5-1.57-.08-1.62-2.09,0-2.08Z"/>
    <path class="cls-18" d="m269.86,120.79c11.89,0,22.68,9.57,22.72,21.38l2.41-2.65s1.11,1.01.54,1.85c-.65.95-3.93,4.08-3.93,4.08,0,0-3.32-2.66-4.21-3.8-.63-.81.43-1.89.43-1.89l2.78,2.61c-.03-8.93-7.32-18.79-20.74-19.5-1.57-.08-1.62-2.09,0-2.08Z"/>
    <path class="cls-18" d="m450.4,122.42c0,19.4,1.3,21.27,20.15,21.27l-2.72,2.66s1.04,1.1,1.87.5c1.18-.85,3.95-4.08,3.95-4.08,0,0-3.01-3.38-3.95-4.07-.82-.6-1.87.48-1.87.48l2.72,2.56c-17.27,0-18.08-1-18.08-19.29,0-1.45-2.07-1.48-2.07-.03Z"/>
    <path class="cls-17" d="m441.56,121.92c0,19.4-1.3,21.27-20.15,21.27l2.72,2.66s-1.04,1.1-1.87.5c-1.18-.85-3.95-4.08-3.95-4.08,0,0,3.01-3.38,3.95-4.07.82-.6,1.87.48,1.87.48l-2.72,2.56c17.27,0,18.08-1,18.08-19.29,0-1.45,2.07-1.48,2.07-.03Z"/>
    <path class="cls-17" d="m531.86,122.05c0,19.4-1.3,21.27-20.15,21.27l2.72,2.66s-1.04,1.1-1.87.5c-1.18-.85-3.95-4.08-3.95-4.08,0,0,3.01-3.38,3.95-4.07.82-.6,1.87.48,1.87.48l-2.72,2.56c17.27,0,18.08-1,18.08-19.29,0-1.45,2.07-1.48,2.07-.03Z"/>
    <path class="cls-18" d="m361.28,120.05c11.89,0,22.68,9.57,22.72,21.38l2.41-2.65s1.11,1.01.54,1.85c-.65.95-3.93,4.08-3.93,4.08,0,0-3.32-2.66-4.21-3.8-.63-.81.43-1.89.43-1.89l2.78,2.61c-.03-8.93-7.32-18.79-20.74-19.5-1.57-.08-1.62-2.09,0-2.08Z"/>
    <path class="cls-18" d="m541.16,119.61c11.89,0,22.68,9.57,22.72,21.38l2.41-2.65s1.11,1.01.54,1.85c-.65.95-3.93,4.08-3.93,4.08,0,0-3.32-2.66-4.21-3.8-.63-.81.43-1.89.43-1.89l2.78,2.61c-.03-8.93-7.32-18.79-20.74-19.5-1.57-.08-1.62-2.09,0-2.08Z"/>
    <path class="cls-17" d="m350.55,119.96c-11.89,0-22.68,9.57-22.72,21.38l-2.41-2.65s-1.11,1.01-.54,1.85c.65.95,3.93,4.08,3.93,4.08,0,0,3.32-2.66,4.21-3.8.63-.81-.43-1.89-.43-1.89l-2.78,2.61c.03-8.93,7.32-18.79,20.74-19.5,1.57-.08,1.62-2.09,0-2.08Z"/>
    <path class="cls-18" d="m206.83,255.33c-19.4,0-21.27,1.3-21.27,20.15l-2.66-2.72s-1.1,1.04-.5,1.87c.85,1.18,4.08,3.95,4.08,3.95,0,0,3.38-3.01,4.07-3.95.6-.82-.48-1.87-.48-1.87l-2.56,2.72c0-17.27,1-18.08,19.29-18.08,1.45,0,1.48-2.07.03-2.07Z"/>
    <path class="cls-17" d="m201.13,251.22c-19.4,0-21.27,1.3-21.27,20.15l-2.66-2.72s-1.1,1.04-.5,1.87c.85,1.18,4.08,3.95,4.08,3.95,0,0,3.38-3.01,4.07-3.95.6-.82-.48-1.87-.48-1.87l-2.56,2.72c0-17.27,1-18.08,19.29-18.08,1.45,0,1.48-2.07.03-2.07Z"/>
    <path class="cls-17" d="m292.46,251.65c-19.4,0-21.27,1.3-21.27,20.15l-2.66-2.72s-1.1,1.04-.5,1.87c.85,1.18,4.08,3.95,4.08,3.95,0,0,3.38-3.01,4.07-3.95.6-.82-.48-1.87-.48-1.87l-2.56,2.72c0-17.27,1-18.08,19.29-18.08,1.45,0,1.48-2.07.03-2.07Z"/>
    <path class="cls-18" d="m121.89,259.93c0,11.89-9.57,22.68-21.38,22.72l2.65,2.41s-1.01,1.11-1.85.54c-.95-.65-4.08-3.93-4.08-3.93,0,0,2.66-3.32,3.8-4.21.81-.63,1.89.43,1.89.43l-2.61,2.78c8.93-.03,18.79-7.32,19.5-20.74.08-1.57,2.09-1.62,2.08,0Z"/>
    <path class="cls-17" d="m117.55,254.58c0,11.89-9.57,22.68-21.38,22.72l2.65,2.41s-1.01,1.11-1.85.54c-.95-.65-4.08-3.93-4.08-3.93,0,0,2.66-3.32,3.8-4.21.81-.63,1.89.43,1.89.43l-2.61,2.78c8.93-.03,18.79-7.32,19.5-20.74.08-1.57,2.09-1.62,2.08,0Z"/>
    <path class="cls-18" d="m295.55,256.44c0,11.89-9.57,22.68-21.38,22.72l2.65,2.41s-1.01,1.11-1.85.54c-.95-.65-4.08-3.93-4.08-3.93,0,0,2.66-3.32,3.8-4.21.81-.63,1.89.43,1.89.43l-2.61,2.78c8.93-.03,18.79-7.32,19.5-20.74.08-1.57,2.09-1.62,2.08,0Z"/>
    <path class="cls-18" d="m472.71,251.77c-19.4,0-21.27,1.3-21.27,20.15l-2.66-2.72s-1.1,1.04-.5,1.87c.85,1.18,4.08,3.95,4.08,3.95,0,0,3.38-3.01,4.07-3.95.6-.82-.48-1.87-.48-1.87l-2.56,2.72c0-17.27,1-18.08,19.29-18.08,1.45,0,1.48-2.07.03-2.07Z"/>
    <path class="cls-17" d="m418.32,251.85c19.4,0,21.27,1.3,21.27,20.15l2.66-2.72s1.1,1.04.5,1.87c-.85,1.18-4.08,3.95-4.08,3.95,0,0-3.38-3.01-4.07-3.95-.6-.82.48-1.87.48-1.87l2.56,2.72c0-17.27-1-18.08-19.29-18.08-1.45,0-1.48-2.07-.03-2.07Z"/>
    <path class="cls-17" d="m508.01,252.16c19.4,0,21.27,1.3,21.27,20.15l2.66-2.72s1.1,1.04.5,1.87c-.85,1.18-4.08,3.95-4.08,3.95,0,0-3.38-3.01-4.07-3.95-.6-.82.48-1.87.48-1.87l2.56,2.72c0-17.27-1-18.08-19.29-18.08-1.45,0-1.48-2.07-.03-2.07Z"/>
    <path class="cls-18" d="m386.45,255.66c0,11.89-9.57,22.68-21.38,22.72l2.65,2.41s-1.01,1.11-1.85.54c-.95-.65-4.08-3.93-4.08-3.93,0,0,2.66-3.32,3.8-4.21.81-.63,1.89.43,1.89.43l-2.61,2.78c8.93-.03,18.79-7.32,19.5-20.74.08-1.57,2.09-1.62,2.08,0Z"/>
    <path class="cls-17" d="m324.61,255.7c0,11.89,9.57,22.68,21.38,22.72l-2.65,2.41s1.01,1.11,1.85.54c.95-.65,4.08-3.93,4.08-3.93,0,0-2.66-3.32-3.8-4.21-.81-.63-1.89.43-1.89.43l2.61,2.78c-8.93-.03-18.79-7.32-19.5-20.74-.08-1.57-2.09-1.62-2.08,0Z"/>
    <path class="cls-18" d="m564.83,253.05c0,11.89-9.57,22.68-21.38,22.72l2.65,2.41s-1.01,1.11-1.85.54c-.95-.65-4.08-3.93-4.08-3.93,0,0,2.66-3.32,3.8-4.21.81-.63,1.89.43,1.89.43l-2.61,2.78c8.93-.03,18.79-7.32,19.5-20.74.08-1.57,2.09-1.62,2.08,0Z"/>
    <path class="cls-18" d="m178.25,374.33c0-19.4,1.3-21.27,20.15-21.27l-2.72-2.66s1.04-1.1,1.87-.5c1.18.85,3.95,4.08,3.95,4.08,0,0-3.01,3.38-3.95,4.07-.82.6-1.87-.48-1.87-.48l2.72-2.56c-17.27,0-18.08,1-18.08,19.29,0,1.45-2.07,1.48-2.07.03Z"/>
    <path class="cls-17" d="m150.47,345.28c19.4,0,21.27-1.3,21.27-20.15l2.66,2.72s1.1-1.04.5-1.87c-.85-1.18-4.08-3.95-4.08-3.95,0,0-3.38,3.01-4.07,3.95-.6.82.48,1.87.48,1.87l2.56-2.72c0,17.27-1,18.08-19.29,18.08-1.45,0-1.48,2.07-.03,2.07Z"/>
    <path class="cls-17" d="m239.7,346.36c19.4,0,21.27-1.3,21.27-20.15l2.66,2.72s1.1-1.04.5-1.87c-.85-1.18-4.08-3.95-4.08-3.95,0,0-3.38,3.01-4.07,3.95-.6.82.48,1.87.48,1.87l2.56-2.72c0,17.27-1,18.08-19.29,18.08-1.45,0-1.48,2.07-.03,2.07Z"/>
    <path class="cls-18" d="m90.99,378.24c11.89,0,22.68-9.57,22.72-21.38l2.41,2.65s1.11-1.01.54-1.85c-.65-.95-3.93-4.08-3.93-4.08,0,0-3.32,2.66-4.21,3.8-.63.81.43,1.89.43,1.89l2.78-2.61c-.03,8.93-7.32,18.79-20.74,19.5-1.57.08-1.62,2.09,0,2.08Z"/>
    <path class="cls-17" d="m56.03,344.09c0-11.89,9.57-22.68,21.38-22.72l-2.65-2.41s1.01-1.11,1.85-.54c.95.65,4.08,3.93,4.08,3.93,0,0-2.66,3.32-3.8,4.21-.81.63-1.89-.43-1.89-.43l2.61-2.78c-8.93.03-18.79,7.32-19.5,20.74-.08,1.57-2.09,1.62-2.08,0Z"/>
    <path class="cls-18" d="m271.85,378.47c11.89,0,22.68-9.57,22.72-21.38l2.41,2.65s1.11-1.01.54-1.85c-.65-.95-3.93-4.08-3.93-4.08,0,0-3.32,2.66-4.21,3.8-.63.81.43,1.89.43,1.89l2.78-2.61c-.03,8.93-7.32,18.79-20.74,19.5-1.57.08-1.62,2.09,0,2.08Z"/>
    <path class="cls-18" d="m475.46,338.24c-19.4,0-21.27-1.3-21.27-20.15l-2.66,2.72s-1.1-1.04-.5-1.87c.85-1.18,4.08-3.95,4.08-3.95,0,0,3.38,3.01,4.07,3.95.6.82-.48,1.87-.48,1.87l-2.56-2.72c0,17.27,1,18.08,19.29,18.08,1.45,0,1.48,2.07.03,2.07Z"/>
    <path class="cls-17" d="m449.96,322.32c0,19.4,1.3,21.27,20.15,21.27l-2.72,2.66s1.04,1.1,1.87.5c1.18-.85,3.95-4.08,3.95-4.08,0,0-3.01-3.38-3.95-4.07-.82-.6-1.87.48-1.87.48l2.72,2.56c-17.27,0-18.08-1-18.08-19.29,0-1.45-2.07-1.48-2.07-.03Z"/>
    <path class="cls-17" d="m540.47,322.47c0,19.4,1.3,21.27,20.15,21.27l-2.72,2.66s1.04,1.1,1.87.5c1.18-.85,3.95-4.08,3.95-4.08,0,0-3.01-3.38-3.95-4.07-.82-.6-1.87.48-1.87.48l2.72,2.56c-17.27,0-18.08-1-18.08-19.29,0-1.45-2.07-1.48-2.07-.03Z"/>
    <path class="cls-18" d="m204.32,443.63c-19.4,0-21.27-1.3-21.27-20.15l-2.66,2.72s-1.1-1.04-.5-1.87c.85-1.18,4.08-3.95,4.08-3.95,0,0,3.38,3.01,4.07,3.95.6.82-.48,1.87-.48,1.87l-2.56-2.72c0,17.27,1,18.08,19.29,18.08,1.45,0,1.48,2.07.03,2.07Z"/>
    <path class="cls-17" d="m180.93,476.82c0-19.4,1.3-21.27,20.15-21.27l-2.72-2.66s1.04-1.1,1.87-.5c1.18.85,3.95,4.08,3.95,4.08,0,0-3.01,3.38-3.95,4.07-.82.6-1.87-.48-1.87-.48l2.72-2.56c-17.27,0-18.08,1-18.08,19.29,0,1.45-2.07,1.48-2.07.03Z"/>
    <path class="cls-17" d="m270.7,476.82c0-19.4,1.3-21.27,20.15-21.27l-2.72-2.66s1.04-1.1,1.87-.5c1.18.85,3.95,4.08,3.95,4.08,0,0-3.01,3.38-3.95,4.07-.82.6-1.87-.48-1.87-.48l2.72-2.56c-17.27,0-18.08,1-18.08,19.29,0,1.45-2.07,1.48-2.07.03Z"/>
    <path class="cls-18" d="m389.23,338.05c0-11.89-9.57-22.68-21.38-22.72l2.65-2.41s-1.01-1.11-1.85-.54c-.95.65-4.08,3.93-4.08,3.93,0,0,2.66,3.32,3.8,4.21.81.63,1.89-.43,1.89-.43l-2.61-2.78c8.93.03,18.79,7.32,19.5,20.74.08,1.57,2.09,1.62,2.08,0Z"/>
    <path class="cls-17" d="m361.48,319.96c11.89,0,22.68,9.57,22.72,21.38l2.41-2.65s1.11,1.01.54,1.85c-.65.95-3.93,4.08-3.93,4.08,0,0-3.32-2.66-4.21-3.8-.63-.81.43-1.89.43-1.89l2.78,2.61c-.03-8.93-7.32-18.79-20.74-19.5-1.57-.08-1.62-2.09,0-2.08Z"/>
    <path class="cls-18" d="m114.57,443.54c0-11.89-9.57-22.68-21.38-22.72l2.65-2.41s-1.01-1.11-1.85-.54c-.95.65-4.08,3.93-4.08,3.93,0,0,2.66,3.32,3.8,4.21.81.63,1.89-.43,1.89-.43l-2.61-2.78c8.93.03,18.79,7.32,19.5,20.74.08,1.57,2.09,1.62,2.08,0Z"/>
    <path class="cls-17" d="m91.1,478.19c11.89,0,22.68-9.57,22.72-21.38l2.41,2.65s1.11-1.01.54-1.85c-.65-.95-3.93-4.08-3.93-4.08,0,0-3.32,2.66-4.21,3.8-.63.81.43,1.89.43,1.89l2.78-2.61c-.03,8.93-7.32,18.79-20.74,19.5-1.57.08-1.62,2.09,0,2.08Z"/>
    <path class="cls-17" d="m361.17,478.22c11.89,0,22.68-9.57,22.72-21.38l2.41,2.65s1.11-1.01.54-1.85c-.65-.95-3.93-4.08-3.93-4.08,0,0-3.32,2.66-4.21,3.8-.63.81.43,1.89.43,1.89l2.78-2.61c-.03,8.93-7.32,18.79-20.74,19.5-1.57.08-1.62,2.09,0,2.08Z"/>
    <path class="cls-18" d="m382.59,444.03c-19.4,0-21.27-1.3-21.27-20.15l-2.66,2.72s-1.1-1.04-.5-1.87c.85-1.18,4.08-3.95,4.08-3.95,0,0,3.38,3.01,4.07,3.95.6.82-.48,1.87-.48,1.87l-2.56-2.72c0,17.27,1,18.08,19.29,18.08,1.45,0,1.48,2.07.03,2.07Z"/>
    <path class="cls-18" d="m294.65,444.32c0-11.89-9.57-22.68-21.38-22.72l2.65-2.41s-1.01-1.11-1.85-.54c-.95.65-4.08,3.93-4.08,3.93,0,0,2.66,3.32,3.8,4.21.81.63,1.89-.43,1.89-.43l-2.61-2.78c8.93.03,18.79,7.32,19.5,20.74.08,1.57,2.09,1.62,2.08,0Z"/>
    <path class="cls-18" d="m566.76,340.54c0-11.89-9.57-22.68-21.38-22.72l2.65-2.41s-1.01-1.11-1.85-.54c-.95.65-4.08,3.93-4.08,3.93,0,0,2.66,3.32,3.8,4.21.81.63,1.89-.43,1.89-.43l-2.61-2.78c8.93.03,18.79,7.32,19.5,20.74.08,1.57,2.09,1.62,2.08,0Z"/>
  </g>
  <g>
    <path class="cls-14" d="m115.55,351.5c3.22,0,3.22-5,0-5s-3.22,5,0,5h0Z"/>
    <path class="cls-14" d="m85.55,321.5c3.22,0,3.22-5,0-5s-3.22,5,0,5h0Z"/>
    <path class="cls-14" d="m55.55,351.5c3.22,0,3.22-5,0-5s-3.22,5,0,5h0Z"/>
    <path class="cls-14" d="m85.55,381.5c3.22,0,3.22-5,0-5s-3.22,5,0,5h0Z"/>
    <path class="cls-14" d="m85.55,350.12c1.45,0,1.45-2.25,0-2.25s-1.45,2.25,0,2.25h0Z"/>
  </g>
  <g>
    <line class="cls-4" x1="40.83" y1="657.14" x2="570.75" y2="657.14"/>
    <line class="cls-2" x1="597.22" y1="512.7" x2="10.55" y2="512.7"/>
    <line class="cls-4" x1="40.83" y1="207.05" x2="571.17" y2="207.05"/>
    <line class="cls-4" x1="40.83" y1="407.05" x2="571.17" y2="407.05"/>
    <line class="cls-1" x1="567.6" y1="307.05" x2="40.83" y2="307.05"/>
  </g>
  <g>
    <g>
      <line class="cls-3" x1="266.27" y1="613.39" x2="264.83" y2="613.39"/>
      <line class="cls-18" x1="266.27" y1="613.39" x2="264.83" y2="613.39"/>
      <line class="cls-3" x1="265.55" y1="612.96" x2="265.55" y2="613.8"/>
    </g>
    <g>
      <line class="cls-3" x1="251.24" y1="599.81" x2="251.24" y2="598.37"/>
      <line class="cls-18" x1="251.24" y1="599.81" x2="251.24" y2="598.37"/>
      <line class="cls-3" x1="251.68" y1="599.09" x2="250.84" y2="599.09"/>
    </g>
  </g>
  <g>
    <g>
      <line class="cls-3" x1="354.83" y1="613.39" x2="356.27" y2="613.39"/>
      <line class="cls-18" x1="354.83" y1="613.39" x2="356.27" y2="613.39"/>
      <line class="cls-3" x1="355.55" y1="613.83" x2="355.55" y2="612.99"/>
    </g>
    <g>
      <line class="cls-3" x1="341.24" y1="599.81" x2="341.24" y2="598.37"/>
      <line class="cls-18" x1="341.24" y1="599.81" x2="341.24" y2="598.37"/>
      <line class="cls-3" x1="341.68" y1="599.09" x2="340.84" y2="599.09"/>
    </g>
  </g>
  <g>
    <g>
      <path class="cls-14" d="m71.24,149.45c.58,0,.58-.9,0-.9s-.58.9,0,.9h0Z"/>
      <path class="cls-14" d="m85.55,163.76c.58,0,.58-.9,0-.9s-.58.9,0,.9h0Z"/>
      <path class="cls-14" d="m99.86,149.45c.58,0,.58-.9,0-.9s-.58.9,0,.9h0Z"/>
      <path class="cls-14" d="m85.55,135.14c.58,0,.58-.9,0-.9s-.58.9,0,.9h0Z"/>
      <circle class="cls-14" cx="85.55" cy="119" r="2.5"/>
      <circle class="cls-14" cx="115.55" cy="149" r="2.5"/>
      <circle class="cls-14" cx="85.55" cy="179" r="2.5"/>
      <circle class="cls-14" cx="55.55" cy="149" r="2.5"/>
      <circle class="cls-14" cx="99.86" cy="163.31" r=".87"/>
      <circle class="cls-14" cx="71.24" cy="163.31" r=".87"/>
      <circle class="cls-14" cx="71.24" cy="134.69" r=".87"/>
      <circle class="cls-14" cx="99.86" cy="134.69" r=".87"/>
      <circle class="cls-14" cx="85.55" cy="149" r="1.12"/>
    </g>
    <g>
      <path class="cls-14" d="m161.24,149.45c.58,0,.58-.9,0-.9s-.58.9,0,.9h0Z"/>
      <path class="cls-14" d="m175.55,163.76c.58,0,.58-.9,0-.9s-.58.9,0,.9h0Z"/>
      <path class="cls-14" d="m189.86,149.45c.58,0,.58-.9,0-.9s-.58.9,0,.9h0Z"/>
      <path class="cls-14" d="m175.55,135.14c.58,0,.58-.9,0-.9s-.58.9,0,.9h0Z"/>
      <circle class="cls-14" cx="175.55" cy="119" r="2.5"/>
      <circle class="cls-14" cx="205.55" cy="149" r="2.5"/>
      <circle class="cls-14" cx="175.55" cy="179" r="2.5"/>
      <circle class="cls-14" cx="145.55" cy="149" r="2.5"/>
      <circle class="cls-14" cx="189.86" cy="163.31" r=".87"/>
      <circle class="cls-14" cx="161.24" cy="163.31" r=".87"/>
      <circle class="cls-14" cx="161.24" cy="134.69" r=".87"/>
      <circle class="cls-14" cx="189.86" cy="134.69" r=".87"/>
      <circle class="cls-14" cx="175.55" cy="149" r="1.12"/>
    </g>
    <g>
      <path class="cls-14" d="m251.24,149.45c.58,0,.58-.9,0-.9s-.58.9,0,.9h0Z"/>
      <path class="cls-14" d="m265.55,163.76c.58,0,.58-.9,0-.9s-.58.9,0,.9h0Z"/>
      <path class="cls-14" d="m279.86,149.45c.58,0,.58-.9,0-.9s-.58.9,0,.9h0Z"/>
      <path class="cls-14" d="m265.55,135.14c.58,0,.58-.9,0-.9s-.58.9,0,.9h0Z"/>
      <circle class="cls-14" cx="265.55" cy="119" r="2.5"/>
      <circle class="cls-14" cx="295.55" cy="149" r="2.5"/>
      <circle class="cls-14" cx="265.55" cy="179" r="2.5"/>
      <circle class="cls-14" cx="235.55" cy="149" r="2.5"/>
      <circle class="cls-14" cx="279.86" cy="163.31" r=".87"/>
      <circle class="cls-14" cx="251.24" cy="163.31" r=".87"/>
      <circle class="cls-14" cx="251.24" cy="134.69" r=".87"/>
      <circle class="cls-14" cx="279.86" cy="134.69" r=".87"/>
      <circle class="cls-14" cx="265.55" cy="149" r="1.12"/>
    </g>
    <g>
      <path class="cls-14" d="m341.24,149.45c.58,0,.58-.9,0-.9s-.58.9,0,.9h0Z"/>
      <path class="cls-14" d="m355.55,163.76c.58,0,.58-.9,0-.9s-.58.9,0,.9h0Z"/>
      <path class="cls-14" d="m369.86,149.45c.58,0,.58-.9,0-.9s-.58.9,0,.9h0Z"/>
      <path class="cls-14" d="m355.55,135.14c.58,0,.58-.9,0-.9s-.58.9,0,.9h0Z"/>
      <circle class="cls-14" cx="355.55" cy="119" r="2.5"/>
      <circle class="cls-14" cx="385.55" cy="149" r="2.5"/>
      <circle class="cls-14" cx="355.55" cy="179" r="2.5"/>
      <circle class="cls-14" cx="325.55" cy="149" r="2.5"/>
      <circle class="cls-14" cx="369.86" cy="163.31" r=".87"/>
      <circle class="cls-14" cx="341.24" cy="163.31" r=".87"/>
      <circle class="cls-14" cx="341.24" cy="134.69" r=".87"/>
      <circle class="cls-14" cx="369.86" cy="134.69" r=".87"/>
      <circle class="cls-14" cx="355.55" cy="149" r="1.12"/>
    </g>
    <g>
      <path class="cls-14" d="m431.24,149.45c.58,0,.58-.9,0-.9s-.58.9,0,.9h0Z"/>
      <path class="cls-14" d="m445.55,163.76c.58,0,.58-.9,0-.9s-.58.9,0,.9h0Z"/>
      <path class="cls-14" d="m459.86,149.45c.58,0,.58-.9,0-.9s-.58.9,0,.9h0Z"/>
      <path class="cls-14" d="m445.55,135.14c.58,0,.58-.9,0-.9s-.58.9,0,.9h0Z"/>
      <circle class="cls-14" cx="445.55" cy="119" r="2.5"/>
      <circle class="cls-14" cx="475.55" cy="149" r="2.5"/>
      <circle class="cls-14" cx="445.55" cy="179" r="2.5"/>
      <circle class="cls-14" cx="415.55" cy="149" r="2.5"/>
      <circle class="cls-14" cx="459.86" cy="163.31" r=".87"/>
      <circle class="cls-14" cx="431.24" cy="163.31" r=".87"/>
      <circle class="cls-14" cx="431.24" cy="134.69" r=".87"/>
      <circle class="cls-14" cx="459.86" cy="134.69" r=".87"/>
      <circle class="cls-14" cx="445.55" cy="149" r="1.12"/>
    </g>
    <g>
      <path class="cls-14" d="m521.24,149.45c.58,0,.58-.9,0-.9s-.58.9,0,.9h0Z"/>
      <path class="cls-14" d="m535.55,163.76c.58,0,.58-.9,0-.9s-.58.9,0,.9h0Z"/>
      <path class="cls-14" d="m549.86,149.45c.58,0,.58-.9,0-.9s-.58.9,0,.9h0Z"/>
      <path class="cls-14" d="m535.55,135.14c.58,0,.58-.9,0-.9s-.58.9,0,.9h0Z"/>
      <circle class="cls-14" cx="535.55" cy="119" r="2.5"/>
      <circle class="cls-14" cx="565.55" cy="149" r="2.5"/>
      <circle class="cls-14" cx="535.55" cy="179" r="2.5"/>
      <circle class="cls-14" cx="505.55" cy="149" r="2.5"/>
      <circle class="cls-14" cx="549.86" cy="163.31" r=".87"/>
      <circle class="cls-14" cx="521.24" cy="163.31" r=".87"/>
      <circle class="cls-14" cx="521.24" cy="134.69" r=".87"/>
      <circle class="cls-14" cx="549.86" cy="134.69" r=".87"/>
      <circle class="cls-14" cx="535.55" cy="149" r="1.12"/>
    </g>
    <g>
      <path class="cls-14" d="m71.24,249.45c.58,0,.58-.9,0-.9s-.58.9,0,.9h0Z"/>
      <path class="cls-14" d="m85.55,263.76c.58,0,.58-.9,0-.9s-.58.9,0,.9h0Z"/>
      <path class="cls-14" d="m99.86,249.45c.58,0,.58-.9,0-.9s-.58.9,0,.9h0Z"/>
      <path class="cls-14" d="m85.55,235.14c.58,0,.58-.9,0-.9s-.58.9,0,.9h0Z"/>
      <circle class="cls-14" cx="85.55" cy="219" r="2.5"/>
      <circle class="cls-14" cx="115.55" cy="249" r="2.5"/>
      <circle class="cls-14" cx="85.55" cy="279" r="2.5"/>
      <circle class="cls-14" cx="55.55" cy="249" r="2.5"/>
      <circle class="cls-14" cx="99.86" cy="263.31" r=".87"/>
      <circle class="cls-14" cx="71.24" cy="263.31" r=".87"/>
      <circle class="cls-14" cx="71.24" cy="234.69" r=".87"/>
      <circle class="cls-14" cx="99.86" cy="234.69" r=".87"/>
      <circle class="cls-14" cx="85.55" cy="249" r="1.12"/>
    </g>
    <g>
      <path class="cls-14" d="m161.24,249.45c.58,0,.58-.9,0-.9s-.58.9,0,.9h0Z"/>
      <path class="cls-14" d="m175.55,263.76c.58,0,.58-.9,0-.9s-.58.9,0,.9h0Z"/>
      <path class="cls-14" d="m189.86,249.45c.58,0,.58-.9,0-.9s-.58.9,0,.9h0Z"/>
      <path class="cls-14" d="m175.55,235.14c.58,0,.58-.9,0-.9s-.58.9,0,.9h0Z"/>
      <circle class="cls-14" cx="175.55" cy="219" r="2.5"/>
      <circle class="cls-14" cx="205.55" cy="249" r="2.5"/>
      <circle class="cls-14" cx="175.55" cy="279" r="2.5"/>
      <circle class="cls-14" cx="145.55" cy="249" r="2.5"/>
      <circle class="cls-14" cx="189.86" cy="263.31" r=".87"/>
      <circle class="cls-14" cx="161.24" cy="263.31" r=".87"/>
      <circle class="cls-14" cx="161.24" cy="234.69" r=".87"/>
      <circle class="cls-14" cx="189.86" cy="234.69" r=".87"/>
      <circle class="cls-14" cx="175.55" cy="249" r="1.12"/>
    </g>
    <g>
      <path class="cls-14" d="m251.24,249.45c.58,0,.58-.9,0-.9s-.58.9,0,.9h0Z"/>
      <path class="cls-14" d="m265.55,263.76c.58,0,.58-.9,0-.9s-.58.9,0,.9h0Z"/>
      <path class="cls-14" d="m279.86,249.45c.58,0,.58-.9,0-.9s-.58.9,0,.9h0Z"/>
      <path class="cls-14" d="m265.55,235.14c.58,0,.58-.9,0-.9s-.58.9,0,.9h0Z"/>
      <circle class="cls-14" cx="265.55" cy="219" r="2.5"/>
      <circle class="cls-14" cx="295.55" cy="249" r="2.5"/>
      <circle class="cls-14" cx="265.55" cy="279" r="2.5"/>
      <circle class="cls-14" cx="235.55" cy="249" r="2.5"/>
      <circle class="cls-14" cx="279.86" cy="263.31" r=".87"/>
      <circle class="cls-14" cx="251.24" cy="263.31" r=".87"/>
      <circle class="cls-14" cx="251.24" cy="234.69" r=".87"/>
      <circle class="cls-14" cx="279.86" cy="234.69" r=".87"/>
      <circle class="cls-14" cx="265.55" cy="249" r="1.12"/>
    </g>
    <g>
      <path class="cls-14" d="m341.24,249.45c.58,0,.58-.9,0-.9s-.58.9,0,.9h0Z"/>
      <path class="cls-14" d="m355.55,263.76c.58,0,.58-.9,0-.9s-.58.9,0,.9h0Z"/>
      <path class="cls-14" d="m369.86,249.45c.58,0,.58-.9,0-.9s-.58.9,0,.9h0Z"/>
      <path class="cls-14" d="m355.55,235.14c.58,0,.58-.9,0-.9s-.58.9,0,.9h0Z"/>
      <circle class="cls-14" cx="355.55" cy="219" r="2.5"/>
      <circle class="cls-14" cx="385.55" cy="249" r="2.5"/>
      <circle class="cls-14" cx="355.55" cy="279" r="2.5"/>
      <circle class="cls-14" cx="325.55" cy="249" r="2.5"/>
      <circle class="cls-14" cx="369.86" cy="263.31" r=".87"/>
      <circle class="cls-14" cx="341.24" cy="263.31" r=".87"/>
      <circle class="cls-14" cx="341.24" cy="234.69" r=".87"/>
      <circle class="cls-14" cx="369.86" cy="234.69" r=".87"/>
      <circle class="cls-14" cx="355.55" cy="249" r="1.12"/>
    </g>
    <g>
      <path class="cls-14" d="m431.24,249.45c.58,0,.58-.9,0-.9s-.58.9,0,.9h0Z"/>
      <path class="cls-14" d="m445.55,263.76c.58,0,.58-.9,0-.9s-.58.9,0,.9h0Z"/>
      <path class="cls-14" d="m459.86,249.45c.58,0,.58-.9,0-.9s-.58.9,0,.9h0Z"/>
      <path class="cls-14" d="m445.55,235.14c.58,0,.58-.9,0-.9s-.58.9,0,.9h0Z"/>
      <circle class="cls-14" cx="445.55" cy="219" r="2.5"/>
      <circle class="cls-14" cx="475.55" cy="249" r="2.5"/>
      <circle class="cls-14" cx="445.55" cy="279" r="2.5"/>
      <circle class="cls-14" cx="415.55" cy="249" r="2.5"/>
      <circle class="cls-14" cx="459.86" cy="263.31" r=".87"/>
      <circle class="cls-14" cx="431.24" cy="263.31" r=".87"/>
      <circle class="cls-14" cx="431.24" cy="234.69" r=".87"/>
      <circle class="cls-14" cx="459.86" cy="234.69" r=".87"/>
      <circle class="cls-14" cx="445.55" cy="249" r="1.12"/>
    </g>
    <g>
      <path class="cls-14" d="m521.24,249.45c.58,0,.58-.9,0-.9s-.58.9,0,.9h0Z"/>
      <path class="cls-14" d="m535.55,263.76c.58,0,.58-.9,0-.9s-.58.9,0,.9h0Z"/>
      <path class="cls-14" d="m549.86,249.45c.58,0,.58-.9,0-.9s-.58.9,0,.9h0Z"/>
      <path class="cls-14" d="m535.55,235.14c.58,0,.58-.9,0-.9s-.58.9,0,.9h0Z"/>
      <circle class="cls-14" cx="535.55" cy="219" r="2.5"/>
      <circle class="cls-14" cx="565.55" cy="249" r="2.5"/>
      <circle class="cls-14" cx="535.55" cy="279" r="2.5"/>
      <circle class="cls-14" cx="505.55" cy="249" r="2.5"/>
      <circle class="cls-14" cx="549.86" cy="263.31" r=".87"/>
      <circle class="cls-14" cx="521.24" cy="263.31" r=".87"/>
      <circle class="cls-14" cx="521.24" cy="234.69" r=".87"/>
      <circle class="cls-14" cx="549.86" cy="234.69" r=".87"/>
      <circle class="cls-14" cx="535.55" cy="249" r="1.12"/>
    </g>
    <g>
      <path class="cls-14" d="m71.24,349.45c.58,0,.58-.9,0-.9s-.58.9,0,.9h0Z"/>
      <path class="cls-14" d="m85.55,363.76c.58,0,.58-.9,0-.9s-.58.9,0,.9h0Z"/>
      <path class="cls-14" d="m99.86,349.45c.58,0,.58-.9,0-.9s-.58.9,0,.9h0Z"/>
      <path class="cls-14" d="m85.55,335.14c.58,0,.58-.9,0-.9s-.58.9,0,.9h0Z"/>
      <circle class="cls-14" cx="85.55" cy="319" r="2.5"/>
      <circle class="cls-14" cx="115.55" cy="349" r="2.5"/>
      <circle class="cls-14" cx="85.55" cy="379" r="2.5"/>
      <circle class="cls-14" cx="55.55" cy="349" r="2.5"/>
      <circle class="cls-14" cx="99.86" cy="363.31" r=".87"/>
      <circle class="cls-14" cx="71.24" cy="363.31" r=".87"/>
      <circle class="cls-14" cx="71.24" cy="334.69" r=".87"/>
      <circle class="cls-14" cx="99.86" cy="334.69" r=".87"/>
      <circle class="cls-14" cx="85.55" cy="349" r="1.12"/>
    </g>
    <g>
      <path class="cls-14" d="m161.24,349.45c.58,0,.58-.9,0-.9s-.58.9,0,.9h0Z"/>
      <path class="cls-14" d="m175.55,363.76c.58,0,.58-.9,0-.9s-.58.9,0,.9h0Z"/>
      <path class="cls-14" d="m189.86,349.45c.58,0,.58-.9,0-.9s-.58.9,0,.9h0Z"/>
      <path class="cls-14" d="m175.55,335.14c.58,0,.58-.9,0-.9s-.58.9,0,.9h0Z"/>
      <circle class="cls-14" cx="175.55" cy="319" r="2.5"/>
      <circle class="cls-14" cx="205.55" cy="349" r="2.5"/>
      <circle class="cls-14" cx="175.55" cy="379" r="2.5"/>
      <circle class="cls-14" cx="145.55" cy="349" r="2.5"/>
      <circle class="cls-14" cx="189.86" cy="363.31" r=".87"/>
      <circle class="cls-14" cx="161.24" cy="363.31" r=".87"/>
      <circle class="cls-14" cx="161.24" cy="334.69" r=".87"/>
      <circle class="cls-14" cx="189.86" cy="334.69" r=".87"/>
      <circle class="cls-14" cx="175.55" cy="349" r="1.12"/>
    </g>
    <g>
      <path class="cls-14" d="m251.24,349.45c.58,0,.58-.9,0-.9s-.58.9,0,.9h0Z"/>
      <path class="cls-14" d="m265.55,363.76c.58,0,.58-.9,0-.9s-.58.9,0,.9h0Z"/>
      <path class="cls-14" d="m279.86,349.45c.58,0,.58-.9,0-.9s-.58.9,0,.9h0Z"/>
      <path class="cls-14" d="m265.55,335.14c.58,0,.58-.9,0-.9s-.58.9,0,.9h0Z"/>
      <circle class="cls-14" cx="265.55" cy="319" r="2.5"/>
      <circle class="cls-14" cx="295.55" cy="349" r="2.5"/>
      <circle class="cls-14" cx="265.55" cy="379" r="2.5"/>
      <circle class="cls-14" cx="235.55" cy="349" r="2.5"/>
      <circle class="cls-14" cx="279.86" cy="363.31" r=".87"/>
      <circle class="cls-14" cx="251.24" cy="363.31" r=".87"/>
      <circle class="cls-14" cx="251.24" cy="334.69" r=".87"/>
      <circle class="cls-14" cx="279.86" cy="334.69" r=".87"/>
      <circle class="cls-14" cx="265.55" cy="349" r="1.12"/>
    </g>
    <g>
      <path class="cls-14" d="m341.24,349.45c.58,0,.58-.9,0-.9s-.58.9,0,.9h0Z"/>
      <path class="cls-14" d="m355.55,363.76c.58,0,.58-.9,0-.9s-.58.9,0,.9h0Z"/>
      <path class="cls-14" d="m369.86,349.45c.58,0,.58-.9,0-.9s-.58.9,0,.9h0Z"/>
      <path class="cls-14" d="m355.55,335.14c.58,0,.58-.9,0-.9s-.58.9,0,.9h0Z"/>
      <circle class="cls-14" cx="355.55" cy="319" r="2.5"/>
      <circle class="cls-14" cx="385.55" cy="349" r="2.5"/>
      <circle class="cls-14" cx="355.55" cy="379" r="2.5"/>
      <circle class="cls-14" cx="325.55" cy="349" r="2.5"/>
      <circle class="cls-14" cx="369.86" cy="363.31" r=".87"/>
      <circle class="cls-14" cx="341.24" cy="363.31" r=".87"/>
      <circle class="cls-14" cx="341.24" cy="334.69" r=".87"/>
      <circle class="cls-14" cx="369.86" cy="334.69" r=".87"/>
      <circle class="cls-14" cx="355.55" cy="349" r="1.12"/>
    </g>
    <g>
      <path class="cls-14" d="m431.24,349.45c.58,0,.58-.9,0-.9s-.58.9,0,.9h0Z"/>
      <path class="cls-14" d="m445.55,363.76c.58,0,.58-.9,0-.9s-.58.9,0,.9h0Z"/>
      <path class="cls-14" d="m459.86,349.45c.58,0,.58-.9,0-.9s-.58.9,0,.9h0Z"/>
      <path class="cls-14" d="m445.55,335.14c.58,0,.58-.9,0-.9s-.58.9,0,.9h0Z"/>
      <circle class="cls-14" cx="445.55" cy="319" r="2.5"/>
      <circle class="cls-14" cx="475.55" cy="349" r="2.5"/>
      <circle class="cls-14" cx="445.55" cy="379" r="2.5"/>
      <circle class="cls-14" cx="415.55" cy="349" r="2.5"/>
      <circle class="cls-14" cx="459.86" cy="363.31" r=".87"/>
      <circle class="cls-14" cx="431.24" cy="363.31" r=".87"/>
      <circle class="cls-14" cx="431.24" cy="334.69" r=".87"/>
      <circle class="cls-14" cx="459.86" cy="334.69" r=".87"/>
      <circle class="cls-14" cx="445.55" cy="349" r="1.12"/>
    </g>
    <g>
      <path class="cls-14" d="m521.24,349.45c.58,0,.58-.9,0-.9s-.58.9,0,.9h0Z"/>
      <path class="cls-14" d="m535.55,363.76c.58,0,.58-.9,0-.9s-.58.9,0,.9h0Z"/>
      <path class="cls-14" d="m549.86,349.45c.58,0,.58-.9,0-.9s-.58.9,0,.9h0Z"/>
      <path class="cls-14" d="m535.55,335.14c.58,0,.58-.9,0-.9s-.58.9,0,.9h0Z"/>
      <circle class="cls-14" cx="535.55" cy="319" r="2.5"/>
      <circle class="cls-14" cx="565.55" cy="349" r="2.5"/>
      <circle class="cls-14" cx="535.55" cy="379" r="2.5"/>
      <circle class="cls-14" cx="505.55" cy="349" r="2.5"/>
      <circle class="cls-14" cx="549.86" cy="363.31" r=".87"/>
      <circle class="cls-14" cx="521.24" cy="363.31" r=".87"/>
      <circle class="cls-14" cx="521.24" cy="334.69" r=".87"/>
      <circle class="cls-14" cx="549.86" cy="334.69" r=".87"/>
      <circle class="cls-14" cx="535.55" cy="349" r="1.12"/>
    </g>
    <g>
      <path class="cls-14" d="m71.24,449.45c.58,0,.58-.9,0-.9s-.58.9,0,.9h0Z"/>
      <path class="cls-14" d="m85.55,463.76c.58,0,.58-.9,0-.9s-.58.9,0,.9h0Z"/>
      <path class="cls-14" d="m99.86,449.45c.58,0,.58-.9,0-.9s-.58.9,0,.9h0Z"/>
      <path class="cls-14" d="m85.55,435.14c.58,0,.58-.9,0-.9s-.58.9,0,.9h0Z"/>
      <circle class="cls-14" cx="85.55" cy="419" r="2.5"/>
      <circle class="cls-14" cx="115.55" cy="449" r="2.5"/>
      <circle class="cls-14" cx="85.55" cy="479" r="2.5"/>
      <circle class="cls-14" cx="55.55" cy="449" r="2.5"/>
      <circle class="cls-14" cx="99.86" cy="463.31" r=".87"/>
      <circle class="cls-14" cx="71.24" cy="463.31" r=".87"/>
      <circle class="cls-14" cx="71.24" cy="434.69" r=".87"/>
      <circle class="cls-14" cx="99.86" cy="434.69" r=".87"/>
      <circle class="cls-14" cx="85.55" cy="449" r="1.12"/>
    </g>
    <g>
      <path class="cls-14" d="m161.24,449.45c.58,0,.58-.9,0-.9s-.58.9,0,.9h0Z"/>
      <path class="cls-14" d="m175.55,463.76c.58,0,.58-.9,0-.9s-.58.9,0,.9h0Z"/>
      <path class="cls-14" d="m189.86,449.45c.58,0,.58-.9,0-.9s-.58.9,0,.9h0Z"/>
      <path class="cls-14" d="m175.55,435.14c.58,0,.58-.9,0-.9s-.58.9,0,.9h0Z"/>
      <circle class="cls-14" cx="175.55" cy="419" r="2.5"/>
      <circle class="cls-14" cx="205.55" cy="449" r="2.5"/>
      <circle class="cls-14" cx="175.55" cy="479" r="2.5"/>
      <circle class="cls-14" cx="145.55" cy="449" r="2.5"/>
      <circle class="cls-14" cx="189.86" cy="463.31" r=".87"/>
      <circle class="cls-14" cx="161.24" cy="463.31" r=".87"/>
      <circle class="cls-14" cx="161.24" cy="434.69" r=".87"/>
      <circle class="cls-14" cx="189.86" cy="434.69" r=".87"/>
      <circle class="cls-14" cx="175.55" cy="449" r="1.12"/>
    </g>
    <g>
      <path class="cls-14" d="m251.24,449.45c.58,0,.58-.9,0-.9s-.58.9,0,.9h0Z"/>
      <path class="cls-14" d="m265.55,463.76c.58,0,.58-.9,0-.9s-.58.9,0,.9h0Z"/>
      <path class="cls-14" d="m279.86,449.45c.58,0,.58-.9,0-.9s-.58.9,0,.9h0Z"/>
      <path class="cls-14" d="m265.55,435.14c.58,0,.58-.9,0-.9s-.58.9,0,.9h0Z"/>
      <circle class="cls-14" cx="265.55" cy="419" r="2.5"/>
      <circle class="cls-14" cx="295.55" cy="449" r="2.5"/>
      <circle class="cls-14" cx="265.55" cy="479" r="2.5"/>
      <circle class="cls-14" cx="235.55" cy="449" r="2.5"/>
      <circle class="cls-14" cx="279.86" cy="463.31" r=".87"/>
      <circle class="cls-14" cx="251.24" cy="463.31" r=".87"/>
      <circle class="cls-14" cx="251.24" cy="434.69" r=".87"/>
      <circle class="cls-14" cx="279.86" cy="434.69" r=".87"/>
      <circle class="cls-14" cx="265.55" cy="449" r="1.12"/>
    </g>
    <g>
      <path class="cls-14" d="m341.24,449.45c.58,0,.58-.9,0-.9s-.58.9,0,.9h0Z"/>
      <path class="cls-14" d="m355.55,463.76c.58,0,.58-.9,0-.9s-.58.9,0,.9h0Z"/>
      <path class="cls-14" d="m369.86,449.45c.58,0,.58-.9,0-.9s-.58.9,0,.9h0Z"/>
      <path class="cls-14" d="m355.55,435.14c.58,0,.58-.9,0-.9s-.58.9,0,.9h0Z"/>
      <circle class="cls-14" cx="355.55" cy="419" r="2.5"/>
      <circle class="cls-14" cx="385.55" cy="449" r="2.5"/>
      <circle class="cls-14" cx="355.55" cy="479" r="2.5"/>
      <circle class="cls-14" cx="325.55" cy="449" r="2.5"/>
      <circle class="cls-14" cx="369.86" cy="463.31" r=".87"/>
      <circle class="cls-14" cx="341.24" cy="463.31" r=".87"/>
      <circle class="cls-14" cx="341.24" cy="434.69" r=".87"/>
      <circle class="cls-14" cx="369.86" cy="434.69" r=".87"/>
      <circle class="cls-14" cx="355.55" cy="449" r="1.12"/>
    </g>
    <g>
      <path class="cls-14" d="m71.24,598.23c.58,0,.58-.9,0-.9s-.58.9,0,.9h0Z"/>
      <path class="cls-14" d="m85.55,612.54c.58,0,.58-.9,0-.9s-.58.9,0,.9h0Z"/>
      <path class="cls-14" d="m99.86,598.23c.58,0,.58-.9,0-.9s-.58.9,0,.9h0Z"/>
      <path class="cls-14" d="m85.55,583.92c.58,0,.58-.9,0-.9s-.58.9,0,.9h0Z"/>
      <circle class="cls-14" cx="85.55" cy="567.78" r="2.5"/>
      <circle class="cls-14" cx="115.55" cy="597.78" r="2.5"/>
      <circle class="cls-14" cx="85.55" cy="627.78" r="2.5"/>
      <circle class="cls-14" cx="55.55" cy="597.78" r="2.5"/>
      <circle class="cls-14" cx="99.86" cy="612.09" r=".87"/>
      <circle class="cls-14" cx="71.24" cy="612.09" r=".87"/>
      <circle class="cls-14" cx="71.24" cy="583.47" r=".87"/>
      <circle class="cls-14" cx="99.86" cy="583.47" r=".87"/>
      <circle class="cls-14" cx="85.55" cy="597.78" r="1.12"/>
    </g>
    <g>
      <path class="cls-14" d="m161.24,598.23c.58,0,.58-.9,0-.9s-.58.9,0,.9h0Z"/>
      <path class="cls-14" d="m175.55,612.54c.58,0,.58-.9,0-.9s-.58.9,0,.9h0Z"/>
      <path class="cls-14" d="m189.86,598.23c.58,0,.58-.9,0-.9s-.58.9,0,.9h0Z"/>
      <path class="cls-14" d="m175.55,583.92c.58,0,.58-.9,0-.9s-.58.9,0,.9h0Z"/>
      <circle class="cls-14" cx="175.55" cy="567.78" r="2.5"/>
      <circle class="cls-14" cx="205.55" cy="597.78" r="2.5"/>
      <circle class="cls-14" cx="175.55" cy="627.78" r="2.5"/>
      <circle class="cls-14" cx="145.55" cy="597.78" r="2.5"/>
      <circle class="cls-14" cx="189.86" cy="612.09" r=".87"/>
      <circle class="cls-14" cx="161.24" cy="612.09" r=".87"/>
      <circle class="cls-14" cx="161.24" cy="583.47" r=".87"/>
      <circle class="cls-14" cx="189.86" cy="583.47" r=".87"/>
      <circle class="cls-14" cx="175.55" cy="597.78" r="1.12"/>
    </g>
    <g>
      <path class="cls-14" d="m251.24,598.23c.58,0,.58-.9,0-.9s-.58.9,0,.9h0Z"/>
      <path class="cls-14" d="m265.55,612.54c.58,0,.58-.9,0-.9s-.58.9,0,.9h0Z"/>
      <path class="cls-14" d="m279.86,598.23c.58,0,.58-.9,0-.9s-.58.9,0,.9h0Z"/>
      <path class="cls-14" d="m265.55,583.92c.58,0,.58-.9,0-.9s-.58.9,0,.9h0Z"/>
      <circle class="cls-14" cx="265.55" cy="567.78" r="2.5"/>
      <circle class="cls-14" cx="295.55" cy="597.78" r="2.5"/>
      <circle class="cls-14" cx="265.55" cy="627.78" r="2.5"/>
      <circle class="cls-14" cx="235.55" cy="597.78" r="2.5"/>
      <circle class="cls-14" cx="279.86" cy="612.09" r=".87"/>
      <circle class="cls-14" cx="251.24" cy="612.09" r=".87"/>
      <circle class="cls-14" cx="251.24" cy="583.47" r=".87"/>
      <circle class="cls-14" cx="279.86" cy="583.47" r=".87"/>
      <circle class="cls-14" cx="265.55" cy="597.78" r="1.12"/>
    </g>
    <g>
      <path class="cls-14" d="m341.24,598.23c.58,0,.58-.9,0-.9s-.58.9,0,.9h0Z"/>
      <path class="cls-14" d="m355.55,612.54c.58,0,.58-.9,0-.9s-.58.9,0,.9h0Z"/>
      <path class="cls-14" d="m369.86,598.23c.58,0,.58-.9,0-.9s-.58.9,0,.9h0Z"/>
      <path class="cls-14" d="m355.55,583.92c.58,0,.58-.9,0-.9s-.58.9,0,.9h0Z"/>
      <circle class="cls-14" cx="355.55" cy="567.78" r="2.5"/>
      <circle class="cls-14" cx="385.55" cy="597.78" r="2.5"/>
      <circle class="cls-14" cx="355.55" cy="627.78" r="2.5"/>
      <circle class="cls-14" cx="325.55" cy="597.78" r="2.5"/>
      <circle class="cls-14" cx="369.86" cy="612.09" r=".87"/>
      <circle class="cls-14" cx="341.24" cy="612.09" r=".87"/>
      <circle class="cls-14" cx="341.24" cy="583.47" r=".87"/>
      <circle class="cls-14" cx="369.86" cy="583.47" r=".87"/>
      <circle class="cls-14" cx="355.55" cy="597.78" r="1.12"/>
    </g>
    <g>
      <path class="cls-14" d="m71.24,698.23c.58,0,.58-.9,0-.9s-.58.9,0,.9h0Z"/>
      <path class="cls-14" d="m85.55,712.54c.58,0,.58-.9,0-.9s-.58.9,0,.9h0Z"/>
      <path class="cls-14" d="m99.86,698.23c.58,0,.58-.9,0-.9s-.58.9,0,.9h0Z"/>
      <path class="cls-14" d="m85.55,683.92c.58,0,.58-.9,0-.9s-.58.9,0,.9h0Z"/>
      <circle class="cls-14" cx="85.55" cy="667.78" r="2.5"/>
      <circle class="cls-14" cx="115.55" cy="697.78" r="2.5"/>
      <circle class="cls-14" cx="85.55" cy="727.78" r="2.5"/>
      <circle class="cls-14" cx="55.55" cy="697.78" r="2.5"/>
      <circle class="cls-14" cx="99.86" cy="712.09" r=".87"/>
      <circle class="cls-14" cx="71.24" cy="712.09" r=".87"/>
      <circle class="cls-14" cx="71.24" cy="683.47" r=".87"/>
      <circle class="cls-14" cx="99.86" cy="683.47" r=".87"/>
      <circle class="cls-14" cx="85.55" cy="697.78" r="1.12"/>
    </g>
    <g>
      <path class="cls-14" d="m161.24,698.23c.58,0,.58-.9,0-.9s-.58.9,0,.9h0Z"/>
      <path class="cls-14" d="m175.55,712.54c.58,0,.58-.9,0-.9s-.58.9,0,.9h0Z"/>
      <path class="cls-14" d="m189.86,698.23c.58,0,.58-.9,0-.9s-.58.9,0,.9h0Z"/>
      <path class="cls-14" d="m175.55,683.92c.58,0,.58-.9,0-.9s-.58.9,0,.9h0Z"/>
      <circle class="cls-14" cx="175.55" cy="667.78" r="2.5"/>
      <circle class="cls-14" cx="205.55" cy="697.78" r="2.5"/>
      <circle class="cls-14" cx="175.55" cy="727.78" r="2.5"/>
      <circle class="cls-14" cx="145.55" cy="697.78" r="2.5"/>
      <circle class="cls-14" cx="189.86" cy="712.09" r=".87"/>
      <circle class="cls-14" cx="161.24" cy="712.09" r=".87"/>
      <circle class="cls-14" cx="161.24" cy="683.47" r=".87"/>
      <circle class="cls-14" cx="189.86" cy="683.47" r=".87"/>
      <circle class="cls-14" cx="175.55" cy="697.78" r="1.12"/>
    </g>
    <g>
      <path class="cls-14" d="m265.55,712.54c.58,0,.58-.9,0-.9s-.58.9,0,.9h0Z"/>
      <path class="cls-14" d="m279.86,698.23c.58,0,.58-.9,0-.9s-.58.9,0,.9h0Z"/>
      <path class="cls-14" d="m265.55,683.92c.58,0,.58-.9,0-.9s-.58.9,0,.9h0Z"/>
      <path class="cls-14" d="m251.24,698.23c.58,0,.58-.9,0-.9s-.58.9,0,.9h0Z"/>
      <circle class="cls-14" cx="235.55" cy="697.78" r="2.5"/>
      <circle class="cls-14" cx="265.55" cy="667.78" r="2.5"/>
      <circle class="cls-14" cx="295.55" cy="697.78" r="2.5"/>
      <circle class="cls-14" cx="265.55" cy="727.78" r="2.5"/>
      <circle class="cls-14" cx="279.86" cy="683.47" r=".88"/>
      <circle class="cls-14" cx="279.86" cy="712.09" r=".88"/>
      <circle class="cls-14" cx="251.24" cy="712.09" r=".87"/>
      <circle class="cls-14" cx="251.24" cy="683.47" r=".88"/>
      <circle class="cls-14" cx="265.55" cy="697.78" r="1.13"/>
    </g>
    <g>
      <path class="cls-14" d="m355.55,712.54c.58,0,.58-.9,0-.9s-.58.9,0,.9h0Z"/>
      <path class="cls-14" d="m369.86,698.23c.58,0,.58-.9,0-.9s-.58.9,0,.9h0Z"/>
      <path class="cls-14" d="m355.55,683.92c.58,0,.58-.9,0-.9s-.58.9,0,.9h0Z"/>
      <path class="cls-14" d="m341.24,698.23c.58,0,.58-.9,0-.9s-.58.9,0,.9h0Z"/>
      <circle class="cls-14" cx="325.55" cy="697.78" r="2.5"/>
      <circle class="cls-14" cx="355.55" cy="667.78" r="2.5"/>
      <circle class="cls-14" cx="385.55" cy="697.78" r="2.5"/>
      <circle class="cls-14" cx="355.55" cy="727.78" r="2.5"/>
      <circle class="cls-14" cx="369.86" cy="683.47" r=".88"/>
      <circle class="cls-14" cx="369.86" cy="712.09" r=".88"/>
      <circle class="cls-14" cx="341.24" cy="712.09" r=".88"/>
      <circle class="cls-14" cx="341.24" cy="683.47" r=".88"/>
      <circle class="cls-14" cx="355.55" cy="697.78" r="1.13"/>
    </g>
  </g>
  <path class="cls-17" d="m415.36,68.43v14.19c-.89.17-.78,1.02-.78,1.19,0,1.24,1.04,1.26,1.59,1.26h.49s.49,0,.49,0c.55,0,1.59-.02,1.59-1.26,0-.17.12-1.02-.78-1.19v-14.19s3.58-9.61,3.61-11.22c.06-1.64.03-2.45-.26-3.69l-2.91-6.75s-.29-.12-.81-.17c-.46-.09-.81-.09-.92-.09s-.46,0-.92.09c-.52.06-.81.17-.81.17l-2.91,6.75c-.29,1.24-.32,2.05-.26,3.69.03,1.62,3.61,11.22,3.61,11.22Z"/>
  <path class="cls-17" d="m487.26,46.59h-18.44c-1.52,0-2.78,1.28-2.78,2.86,0,1.57,1.26,2.87,2.78,2.87h6.14s0,29.87,0,29.87c0,1.55,1.73,2.8,3.23,2.8h0c1.48,0,3.23-1.26,3.23-2.8v-29.87s5.84,0,5.84,0c1.54,0,2.78-1.3,2.78-2.87,0-1.59-1.24-2.86-2.78-2.86Z"/>
  <g>
    <g>
      <path class="cls-17" d="m382.58,446.09v5.76c0,.48-.4.87-.9.87s-.9-.39-.9-.87v-1.92s-9.33,0-9.33,0c-.48,0-.88-.54-.88-1.01h0c0-.46.39-1.01.88-1.01h9.33s0-1.82,0-1.82c0-.48.41-.87.9-.87s.9.39.9.87Z"/>
      <path class="cls-5" d="m357.14,451.91v-5.76c0-.48.4-.87.9-.87s.9.39.9.87v1.92s9.33,0,9.33,0c.48,0,.88.54.88,1.01h0c0,.46-.39,1.01-.88,1.01h-9.33s0,1.82,0,1.82c0,.48-.41.87-.9.87s-.9-.39-.9-.87Z"/>
    </g>
    <g>
      <path class="cls-18" d="m292.58,351.91v-5.76c0-.48-.4-.87-.9-.87s-.9.39-.9.87v1.92s-9.33,0-9.33,0c-.48,0-.88.54-.88,1.01h0c0,.46.39,1.01.88,1.01h9.33s0,1.82,0,1.82c0,.48.41.87.9.87s.9-.39.9-.87Z"/>
      <path class="cls-5" d="m267.14,346.09v5.76c0,.48.4.87.9.87.49,0,.9-.39.9-.87v-1.92s9.33,0,9.33,0c.48,0,.88-.54.88-1.01h0c0-.46-.39-1.01-.88-1.01h-9.33s0-1.82,0-1.82c0-.48-.41-.87-.9-.87s-.9.39-.9.87Z"/>
    </g>
    <g>
      <line class="cls-3" x1="189.86" y1="348.28" x2="189.86" y2="349.72"/>
      <line class="cls-18" x1="189.86" y1="348.28" x2="189.86" y2="349.72"/>
      <line class="cls-3" x1="190.3" y1="349" x2="189.46" y2="349"/>
    </g>
    <g>
      <line class="cls-3" x1="174.83" y1="334.69" x2="176.27" y2="334.69"/>
      <line class="cls-18" x1="174.83" y1="334.69" x2="176.27" y2="334.69"/>
      <line class="cls-3" x1="175.55" y1="334.25" x2="175.55" y2="335.1"/>
    </g>
    <g>
      <path class="cls-17" d="m58.53,146.12v5.76c0,.48.4.87.9.87s.9-.39.9-.87v-1.92s9.33,0,9.33,0c.48,0,.88-.54.88-1.01h0c0-.46-.39-1.01-.88-1.01h-9.33s0-1.82,0-1.82c0-.48-.41-.87-.9-.87s-.9.39-.9.87Z"/>
      <path class="cls-5" d="m83.96,151.88v-5.76c0-.48-.4-.87-.9-.87s-.9.39-.9.87v1.92s-9.33,0-9.33,0c-.48,0-.88.54-.88,1.01h0c0,.46.39,1.01.88,1.01h9.33s0,1.82,0,1.82c0,.48.41.87.9.87s.9-.39.9-.87Z"/>
    </g>
    <g>
      <path class="cls-18" d="m112.58,151.88v-5.76c0-.48-.4-.87-.9-.87-.49,0-.9.39-.9.87v1.92s-9.33,0-9.33,0c-.48,0-.88.54-.88,1.01h0c0,.46.39,1.01.88,1.01h9.33s0,1.82,0,1.82c0,.48.41.87.9.87.5,0,.9-.39.9-.87Z"/>
      <path class="cls-5" d="m87.14,146.12v5.76c0,.48.4.87.9.87s.9-.39.9-.87v-1.92s9.33,0,9.33,0c.48,0,.88-.54.88-1.01h0c0-.46-.39-1.01-.88-1.01h-9.33s0-1.82,0-1.82c0-.48-.41-.87-.9-.87s-.9.39-.9.87Z"/>
    </g>
    <g>
      <g>
        <path class="cls-5" d="m170.12,276.02h5.76c.48,0,.87-.4.87-.9,0-.49-.39-.9-.87-.9h-1.92s0-9.33,0-9.33c0-.48-.54-.88-1.01-.88h0c-.46,0-1.01.39-1.01.88v9.33s-1.82,0-1.82,0c-.48,0-.87.41-.87.9,0,.5.39.9.87.9Z"/>
        <path class="cls-17" d="m170.12,250.59h5.76c.48,0,.87.4.87.9,0,.49-.39.9-.87.9h-1.92s0,9.33,0,9.33c0,.48-.54.88-1.01.88h0c-.46,0-1.01-.39-1.01-.88v-9.33s-1.82,0-1.82,0c-.48,0-.87-.41-.87-.9,0-.5.39-.9.87-.9Z"/>
      </g>
      <g>
        <path class="cls-5" d="m175.12,276.02h5.76c.48,0,.87-.4.87-.9,0-.49-.39-.9-.87-.9h-1.92s0-9.33,0-9.33c0-.48-.54-.88-1.01-.88h0c-.46,0-1.01.39-1.01.88v9.33s-1.82,0-1.82,0c-.48,0-.87.41-.87.9,0,.5.39.9.87.9Z"/>
        <path class="cls-18" d="m175.12,250.59h5.76c.48,0,.87.4.87.9,0,.49-.39.9-.87.9h-1.92s0,9.33,0,9.33c0,.48-.54.88-1.01.88h0c-.46,0-1.01-.39-1.01-.88v-9.33s-1.82,0-1.82,0c-.48,0-.87-.41-.87-.9,0-.5.39-.9.87-.9Z"/>
      </g>
    </g>
    <g>
      <path class="cls-17" d="m80.12,276.02h5.76c.48,0,.87-.4.87-.9,0-.49-.39-.9-.87-.9h-1.92s0-9.33,0-9.33c0-.48-.54-.88-1.01-.88h0c-.46,0-1.01.39-1.01.88v9.33s-1.82,0-1.82,0c-.48,0-.87.41-.87.9,0,.5.39.9.87.9Z"/>
      <path class="cls-5" d="m85.93,250.59h-5.76c-.48,0-.87.4-.87.9,0,.49.39.9.87.9h1.92s0,9.33,0,9.33c0,.48.54.88,1.01.88h0c.46,0,1.01-.39,1.01-.88v-9.33s1.82,0,1.82,0c.48,0,.87-.41.87-.9,0-.5-.39-.9-.87-.9Z"/>
      <path class="cls-18" d="m85.12,276.02h5.76c.48,0,.87-.4.87-.9,0-.49-.39-.9-.87-.9h-1.92s0-9.33,0-9.33c0-.48-.54-.88-1.01-.88h0c-.46,0-1.01.39-1.01.88v9.33s-1.82,0-1.82,0c-.48,0-.87.41-.87.9,0,.5.39.9.87.9Z"/>
      <path class="cls-5" d="m90.93,250.59h-5.76c-.48,0-.87.4-.87.9,0,.49.39.9.87.9h1.92s0,9.33,0,9.33c0,.48.54.88,1.01.88h0c.46,0,1.01-.39,1.01-.88v-9.33s1.82,0,1.82,0c.48,0,.87-.41.87-.9,0-.5-.39-.9-.87-.9Z"/>
    </g>
    <g>
      <path class="cls-18" d="m112.58,351.91v-5.76c0-.48-.4-.87-.9-.87s-.9.39-.9.87v1.92s-9.33,0-9.33,0c-.48,0-.88.54-.88,1.01h0c0,.46.39,1.01.88,1.01h9.33s0,1.82,0,1.82c0,.48.41.87.9.87s.9-.39.9-.87Z"/>
      <path class="cls-5" d="m87.14,346.09v5.76c0,.48.4.87.9.87.49,0,.9-.39.9-.87v-1.92s9.33,0,9.33,0c.48,0,.88-.54.88-1.01h0c0-.46-.39-1.01-.88-1.01h-9.33s0-1.82,0-1.82c0-.48-.41-.87-.9-.87s-.9.39-.9.87Z"/>
    </g>
    <g>
      <path class="cls-17" d="m88.46,321.97h-5.76c-.48,0-.87.4-.87.9,0,.49.39.9.87.9h1.92s0,9.33,0,9.33c0,.48.54.88,1.01.88h0c.46,0,1.01-.39,1.01-.88v-9.33s1.82,0,1.82,0c.48,0,.87-.41.87-.9,0-.5-.39-.9-.87-.9Z"/>
      <path class="cls-5" d="m82.64,347.41h5.76c.48,0,.87-.4.87-.9s-.39-.9-.87-.9h-1.92s0-9.33,0-9.33c0-.48-.54-.88-1.01-.88h0c-.46,0-1.01.39-1.01.88v9.33s-1.82,0-1.82,0c-.48,0-.87.41-.87.9s.39.9.87.9Z"/>
    </g>
    <g>
      <path class="cls-18" d="m82.64,421.97h5.76c.48,0,.87.4.87.9,0,.49-.39.9-.87.9h-1.92s0,9.33,0,9.33c0,.48-.54.88-1.01.88h0c-.46,0-1.01-.39-1.01-.88v-9.33s-1.82,0-1.82,0c-.48,0-.87-.41-.87-.9,0-.5.39-.9.87-.9Z"/>
      <path class="cls-5" d="m88.46,447.41h-5.76c-.48,0-.87-.4-.87-.9,0-.49.39-.9.87-.9h1.92s0-9.33,0-9.33c0-.48.54-.88,1.01-.88h0c.46,0,1.01.39,1.01.88v9.33s1.82,0,1.82,0c.48,0,.87.41.87.9,0,.5-.39.9-.87.9Z"/>
    </g>
    <g>
      <path class="cls-17" d="m112.58,446.09v5.76c0,.48-.4.87-.9.87s-.9-.39-.9-.87v-1.92s-9.33,0-9.33,0c-.48,0-.88-.54-.88-1.01h0c0-.46.39-1.01.88-1.01h9.33s0-1.82,0-1.82c0-.48.41-.87.9-.87s.9.39.9.87Z"/>
      <path class="cls-5" d="m87.14,451.91v-5.76c0-.48.4-.87.9-.87s.9.39.9.87v1.92s9.33,0,9.33,0c.48,0,.88.54.88,1.01h0c0,.46-.39,1.01-.88,1.01h-9.33s0,1.82,0,1.82c0,.48-.41.87-.9.87s-.9-.39-.9-.87Z"/>
    </g>
    <g>
      <path class="cls-18" d="m112.58,594.87v5.76c0,.48-.4.87-.9.87s-.9-.39-.9-.87v-1.92s-9.33,0-9.33,0c-.48,0-.88-.54-.88-1.01h0c0-.46.39-1.01.88-1.01h9.33s0-1.82,0-1.82c0-.48.41-.87.9-.87s.9.39.9.87Z"/>
      <path class="cls-5" d="m87.14,600.69v-5.76c0-.48.4-.87.9-.87s.9.39.9.87v1.92s9.33,0,9.33,0c.48,0,.88.54.88,1.01h0c0,.46-.39,1.01-.88,1.01h-9.33s0,1.82,0,1.82c0,.48-.41.87-.9.87s-.9-.39-.9-.87Z"/>
    </g>
    <g>
      <path class="cls-17" d="m58.53,600.69v-5.76c0-.48.4-.87.9-.87.49,0,.9.39.9.87v1.92s9.33,0,9.33,0c.48,0,.88.54.88,1.01h0c0,.46-.39,1.01-.88,1.01h-9.33s0,1.82,0,1.82c0,.48-.41.87-.9.87s-.9-.39-.9-.87Z"/>
      <path class="cls-5" d="m83.96,594.87v5.76c0,.48-.4.87-.9.87s-.9-.39-.9-.87v-1.92s-9.33,0-9.33,0c-.48,0-.88-.54-.88-1.01h0c0-.46.39-1.01.88-1.01h9.33s0-1.82,0-1.82c0-.48.41-.87.9-.87s.9.39.9.87Z"/>
    </g>
    <g>
      <path class="cls-18" d="m177.14,600.69v-5.76c0-.48.4-.87.9-.87s.9.39.9.87v1.92s9.33,0,9.33,0c.48,0,.88.54.88,1.01h0c0,.46-.39,1.01-.88,1.01h-9.33s0,1.82,0,1.82c0,.48-.41.87-.9.87s-.9-.39-.9-.87Z"/>
      <path class="cls-5" d="m202.58,594.87v5.76c0,.48-.4.87-.9.87s-.9-.39-.9-.87v-1.92s-9.33,0-9.33,0c-.48,0-.88-.54-.88-1.01h0c0-.46.39-1.01.88-1.01h9.33s0-1.82,0-1.82c0-.48.41-.87.9-.87s.9.39.9.87Z"/>
    </g>
    <g>
      <path class="cls-17" d="m148.53,600.69v-5.76c0-.48.4-.87.9-.87s.9.39.9.87v1.92s9.33,0,9.33,0c.48,0,.88.54.88,1.01h0c0,.46-.39,1.01-.88,1.01h-9.33s0,1.82,0,1.82c0,.48-.41.87-.9.87s-.9-.39-.9-.87Z"/>
      <path class="cls-5" d="m173.96,594.87v5.76c0,.48-.4.87-.9.87s-.9-.39-.9-.87v-1.92s-9.33,0-9.33,0c-.48,0-.88-.54-.88-1.01h0c0-.46.39-1.01.88-1.01h9.33s0-1.82,0-1.82c0-.48.41-.87.9-.87s.9.39.9.87Z"/>
    </g>
    <g>
      <path class="cls-18" d="m178.46,447.41h-5.76c-.48,0-.87-.4-.87-.9,0-.49.39-.9.87-.9h1.92s0-9.33,0-9.33c0-.48.54-.88,1.01-.88h0c.46,0,1.01.39,1.01.88v9.33s1.82,0,1.82,0c.48,0,.87.41.87.9,0,.5-.39.9-.87.9Z"/>
      <path class="cls-5" d="m172.64,421.97h5.76c.48,0,.87.4.87.9,0,.49-.39.9-.87.9h-1.92s0,9.33,0,9.33c0,.48-.54.88-1.01.88h0c-.46,0-1.01-.39-1.01-.88v-9.33s-1.82,0-1.82,0c-.48,0-.87-.41-.87-.9,0-.5.39-.9.87-.9Z"/>
    </g>
    <g>
      <path class="cls-17" d="m177.14,451.91v-5.76c0-.48.4-.87.9-.87s.9.39.9.87v1.92s9.33,0,9.33,0c.48,0,.88.54.88,1.01h0c0,.46-.39,1.01-.88,1.01h-9.33s0,1.82,0,1.82c0,.48-.41.87-.9.87s-.9-.39-.9-.87Z"/>
      <path class="cls-5" d="m202.58,446.09v5.76c0,.48-.4.87-.9.87s-.9-.39-.9-.87v-1.92s-9.33,0-9.33,0c-.48,0-.88-.54-.88-1.01h0c0-.46.39-1.01.88-1.01h9.33s0-1.82,0-1.82c0-.48.41-.87.9-.87s.9.39.9.87Z"/>
    </g>
    <g>
      <path class="cls-18" d="m262.64,421.97h5.76c.48,0,.87.4.87.9,0,.49-.39.9-.87.9h-1.92s0,9.33,0,9.33c0,.48-.54.88-1.01.88h0c-.46,0-1.01-.39-1.01-.88v-9.33s-1.82,0-1.82,0c-.48,0-.87-.41-.87-.9,0-.5.39-.9.87-.9Z"/>
      <path class="cls-5" d="m268.46,447.41h-5.76c-.48,0-.87-.4-.87-.9,0-.49.39-.9.87-.9h1.92s0-9.33,0-9.33c0-.48.54-.88,1.01-.88h0c.46,0,1.01.39,1.01.88v9.33s1.82,0,1.82,0c.48,0,.87.41.87.9,0,.5-.39.9-.87.9Z"/>
    </g>
    <g>
      <path class="cls-17" d="m267.14,451.91v-5.76c0-.48.4-.87.9-.87s.9.39.9.87v1.92s9.33,0,9.33,0c.48,0,.88.54.88,1.01h0c0,.46-.39,1.01-.88,1.01h-9.33s0,1.82,0,1.82c0,.48-.41.87-.9.87s-.9-.39-.9-.87Z"/>
      <path class="cls-5" d="m292.58,446.09v5.76c0,.48-.4.87-.9.87s-.9-.39-.9-.87v-1.92s-9.33,0-9.33,0c-.48,0-.88-.54-.88-1.01h0c0-.46.39-1.01.88-1.01h9.33s0-1.82,0-1.82c0-.48.41-.87.9-.87s.9.39.9.87Z"/>
    </g>
    <g>
      <path class="cls-5" d="m352.64,421.97h5.76c.48,0,.87.4.87.9,0,.49-.39.9-.87.9h-1.92s0,9.33,0,9.33c0,.48-.54.88-1.01.88h0c-.46,0-1.01-.39-1.01-.88v-9.33s-1.82,0-1.82,0c-.48,0-.87-.41-.87-.9,0-.5.39-.9.87-.9Z"/>
      <path class="cls-18" d="m358.46,447.41h-5.76c-.48,0-.87-.4-.87-.9,0-.49.39-.9.87-.9h1.92s0-9.33,0-9.33c0-.48.54-.88,1.01-.88h0c.46,0,1.01.39,1.01.88v9.33s1.82,0,1.82,0c.48,0,.87.41.87.9,0,.5-.39.9-.87.9Z"/>
    </g>
    <g>
      <path class="cls-17" d="m172.64,347.41h5.76c.48,0,.87-.4.87-.9,0-.49-.39-.9-.87-.9h-1.92s0-9.33,0-9.33c0-.48-.54-.88-1.01-.88h0c-.46,0-1.01.39-1.01.88v9.33s-1.82,0-1.82,0c-.48,0-.87.41-.87.9s.39.9.87.9Z"/>
      <path class="cls-5" d="m178.46,321.97h-5.76c-.48,0-.87.4-.87.9,0,.49.39.9.87.9h1.92s0,9.33,0,9.33c0,.48.54.88,1.01.88h0c.46,0,1.01-.39,1.01-.88v-9.33s1.82,0,1.82,0c.48,0,.87-.41.87-.9s-.39-.9-.87-.9Z"/>
    </g>
    <g>
      <path class="cls-17" d="m173.96,151.88v-5.76c0-.48-.4-.87-.9-.87s-.9.39-.9.87v1.92s-9.33,0-9.33,0c-.48,0-.88.54-.88,1.01h0c0,.46.39,1.01.88,1.01h9.33s0,1.82,0,1.82c0,.48.41.87.9.87s.9-.39.9-.87Z"/>
      <path class="cls-5" d="m148.53,146.12v5.76c0,.48.4.87.9.87.49,0,.9-.39.9-.87v-1.92s9.33,0,9.33,0c.48,0,.88-.54.88-1.01h0c0-.46-.39-1.01-.88-1.01h-9.33s0-1.82,0-1.82c0-.48-.41-.87-.9-.87s-.9.39-.9.87Z"/>
    </g>
    <g>
      <path class="cls-18" d="m177.14,146.12v5.76c0,.48.4.87.9.87.49,0,.9-.39.9-.87v-1.92s9.33,0,9.33,0c.48,0,.88-.54.88-1.01h0c0-.46-.39-1.01-.88-1.01h-9.33s0-1.82,0-1.82c0-.48-.41-.87-.9-.87s-.9.39-.9.87Z"/>
      <path class="cls-5" d="m202.58,151.88v-5.76c0-.48-.4-.87-.9-.87-.49,0-.9.39-.9.87v1.92s-9.33,0-9.33,0c-.48,0-.88.54-.88,1.01h0c0,.46.39,1.01.88,1.01h9.33s0,1.82,0,1.82c0,.48.41.87.9.87s.9-.39.9-.87Z"/>
    </g>
    <g>
      <path class="cls-17" d="m263.96,151.88v-5.76c0-.48-.4-.87-.9-.87s-.9.39-.9.87v1.92s-9.33,0-9.33,0c-.48,0-.88.54-.88,1.01h0c0,.46.39,1.01.88,1.01h9.33s0,1.82,0,1.82c0,.48.41.87.9.87s.9-.39.9-.87Z"/>
      <path class="cls-5" d="m238.53,146.12v5.76c0,.48.4.87.9.87.49,0,.9-.39.9-.87v-1.92s9.33,0,9.33,0c.48,0,.88-.54.88-1.01h0c0-.46-.39-1.01-.88-1.01h-9.33s0-1.82,0-1.82c0-.48-.41-.87-.9-.87s-.9.39-.9.87Z"/>
    </g>
    <g>
      <path class="cls-18" d="m292.58,151.88v-5.76c0-.48-.4-.87-.9-.87-.49,0-.9.39-.9.87v1.92s-9.33,0-9.33,0c-.48,0-.88.54-.88,1.01h0c0,.46.39,1.01.88,1.01h9.33s0,1.82,0,1.82c0,.48.41.87.9.87.5,0,.9-.39.9-.87Z"/>
      <path class="cls-5" d="m267.14,146.12v5.76c0,.48.4.87.9.87.49,0,.9-.39.9-.87v-1.92s9.33,0,9.33,0c.48,0,.88-.54.88-1.01h0c0-.46-.39-1.01-.88-1.01h-9.33s0-1.82,0-1.82c0-.48-.41-.87-.9-.87s-.9.39-.9.87Z"/>
    </g>
    <g>
      <line class="cls-3" x1="369.86" y1="148.28" x2="369.86" y2="149.72"/>
      <line class="cls-18" x1="369.86" y1="148.28" x2="369.86" y2="149.72"/>
      <line class="cls-3" x1="369.42" y1="149" x2="370.27" y2="149"/>
    </g>
    <path class="cls-17" d="m328.53,146.12v5.76c0,.48.4.87.9.87s.9-.39.9-.87v-1.92s9.33,0,9.33,0c.48,0,.88-.54.88-1.01h0c0-.46-.39-1.01-.88-1.01h-9.33s0-1.82,0-1.82c0-.48-.41-.87-.9-.87s-.9.39-.9.87Z"/>
    <path class="cls-18" d="m382.58,151.88v-5.76c0-.48-.4-.87-.9-.87-.49,0-.9.39-.9.87v1.92s-9.33,0-9.33,0c-.48,0-.88.54-.88,1.01h0c0,.46.39,1.01.88,1.01h9.33s0,1.82,0,1.82c0,.48.41.87.9.87.5,0,.9-.39.9-.87Z"/>
    <g>
      <path class="cls-17" d="m443.96,151.88v-5.76c0-.48-.4-.87-.9-.87s-.9.39-.9.87v1.92s-9.33,0-9.33,0c-.48,0-.88.54-.88,1.01h0c0,.46.39,1.01.88,1.01h9.33s0,1.82,0,1.82c0,.48.41.87.9.87s.9-.39.9-.87Z"/>
      <path class="cls-5" d="m418.53,146.12v5.76c0,.48.4.87.9.87.49,0,.9-.39.9-.87v-1.92s9.33,0,9.33,0c.48,0,.88-.54.88-1.01h0c0-.46-.39-1.01-.88-1.01h-9.33s0-1.82,0-1.82c0-.48-.41-.87-.9-.87s-.9.39-.9.87Z"/>
    </g>
    <g>
      <path class="cls-18" d="m447.14,146.12v5.76c0,.48.4.87.9.87.49,0,.9-.39.9-.87v-1.92s9.33,0,9.33,0c.48,0,.88-.54.88-1.01h0c0-.46-.39-1.01-.88-1.01h-9.33s0-1.82,0-1.82c0-.48-.41-.87-.9-.87s-.9.39-.9.87Z"/>
      <path class="cls-5" d="m472.58,151.88v-5.76c0-.48-.4-.87-.9-.87-.49,0-.9.39-.9.87v1.92s-9.33,0-9.33,0c-.48,0-.88.54-.88,1.01h0c0,.46.39,1.01.88,1.01h9.33s0,1.82,0,1.82c0,.48.41.87.9.87s.9-.39.9-.87Z"/>
    </g>
    <g>
      <path class="cls-17" d="m533.96,151.88v-5.76c0-.48-.4-.87-.9-.87s-.9.39-.9.87v1.92s-9.33,0-9.33,0c-.48,0-.88.54-.88,1.01h0c0,.46.39,1.01.88,1.01h9.33s0,1.82,0,1.82c0,.48.41.87.9.87s.9-.39.9-.87Z"/>
      <path class="cls-5" d="m508.53,146.12v5.76c0,.48.4.87.9.87.49,0,.9-.39.9-.87v-1.92s9.33,0,9.33,0c.48,0,.88-.54.88-1.01h0c0-.46-.39-1.01-.88-1.01h-9.33s0-1.82,0-1.82c0-.48-.41-.87-.9-.87s-.9.39-.9.87Z"/>
    </g>
    <g>
      <path class="cls-18" d="m562.58,151.88v-5.76c0-.48-.4-.87-.9-.87-.49,0-.9.39-.9.87v1.92s-9.33,0-9.33,0c-.48,0-.88.54-.88,1.01h0c0,.46.39,1.01.88,1.01h9.33s0,1.82,0,1.82c0,.48.41.87.9.87.5,0,.9-.39.9-.87Z"/>
      <path class="cls-5" d="m537.14,146.12v5.76c0,.48.4.87.9.87.49,0,.9-.39.9-.87v-1.92s9.33,0,9.33,0c.48,0,.88-.54.88-1.01h0c0-.46-.39-1.01-.88-1.01h-9.33s0-1.82,0-1.82c0-.48-.41-.87-.9-.87s-.9.39-.9.87Z"/>
    </g>
    <g>
      <path class="cls-17" d="m268.43,250.59h-5.76c-.48,0-.87.4-.87.9,0,.49.39.9.87.9h1.92s0,9.33,0,9.33c0,.48.54.88,1.01.88h0c.46,0,1.01-.39,1.01-.88v-9.33s1.82,0,1.82,0c.48,0,.87-.41.87-.9,0-.5-.39-.9-.87-.9Z"/>
      <path class="cls-18" d="m268.43,276.02h-5.76c-.48,0-.87-.4-.87-.9,0-.49.39-.9.87-.9h1.92s0-9.33,0-9.33c0-.48.54-.88,1.01-.88h0c.46,0,1.01.39,1.01.88v9.33s1.82,0,1.82,0c.48,0,.87.41.87.9s-.39.9-.87.9Z"/>
    </g>
    <g>
      <g>
        <path class="cls-5" d="m440.12,276.02h5.76c.48,0,.87-.4.87-.9,0-.49-.39-.9-.87-.9h-1.92s0-9.33,0-9.33c0-.48-.54-.88-1.01-.88h0c-.46,0-1.01.39-1.01.88v9.33s-1.82,0-1.82,0c-.48,0-.87.41-.87.9,0,.5.39.9.87.9Z"/>
        <path class="cls-17" d="m440.12,250.59h5.76c.48,0,.87.4.87.9,0,.49-.39.9-.87.9h-1.92s0,9.33,0,9.33c0,.48-.54.88-1.01.88h0c-.46,0-1.01-.39-1.01-.88v-9.33s-1.82,0-1.82,0c-.48,0-.87-.41-.87-.9,0-.5.39-.9.87-.9Z"/>
      </g>
      <g>
        <path class="cls-5" d="m445.12,276.02h5.76c.48,0,.87-.4.87-.9,0-.49-.39-.9-.87-.9h-1.92s0-9.33,0-9.33c0-.48-.54-.88-1.01-.88h0c-.46,0-1.01.39-1.01.88v9.33s-1.82,0-1.82,0c-.48,0-.87.41-.87.9,0,.5.39.9.87.9Z"/>
        <path class="cls-18" d="m445.12,250.59h5.76c.48,0,.87.4.87.9,0,.49-.39.9-.87.9h-1.92s0,9.33,0,9.33c0,.48-.54.88-1.01.88h0c-.46,0-1.01-.39-1.01-.88v-9.33s-1.82,0-1.82,0c-.48,0-.87-.41-.87-.9,0-.5.39-.9.87-.9Z"/>
      </g>
    </g>
    <g>
      <path class="cls-17" d="m350.12,276.02h5.76c.48,0,.87-.4.87-.9,0-.49-.39-.9-.87-.9h-1.92s0-9.33,0-9.33c0-.48-.54-.88-1.01-.88h0c-.46,0-1.01.39-1.01.88v9.33s-1.82,0-1.82,0c-.48,0-.87.41-.87.9,0,.5.39.9.87.9Z"/>
      <path class="cls-5" d="m355.93,250.59h-5.76c-.48,0-.87.4-.87.9,0,.49.39.9.87.9h1.92s0,9.33,0,9.33c0,.48.54.88,1.01.88h0c.46,0,1.01-.39,1.01-.88v-9.33s1.82,0,1.82,0c.48,0,.87-.41.87-.9,0-.5-.39-.9-.87-.9Z"/>
      <path class="cls-18" d="m355.12,276.02h5.76c.48,0,.87-.4.87-.9,0-.49-.39-.9-.87-.9h-1.92s0-9.33,0-9.33c0-.48-.54-.88-1.01-.88h0c-.46,0-1.01.39-1.01.88v9.33s-1.82,0-1.82,0c-.48,0-.87.41-.87.9,0,.5.39.9.87.9Z"/>
      <path class="cls-5" d="m360.93,250.59h-5.76c-.48,0-.87.4-.87.9,0,.49.39.9.87.9h1.92s0,9.33,0,9.33c0,.48.54.88,1.01.88h0c.46,0,1.01-.39,1.01-.88v-9.33s1.82,0,1.82,0c.48,0,.87-.41.87-.9,0-.5-.39-.9-.87-.9Z"/>
    </g>
    <g>
      <path class="cls-17" d="m260.12,624.8h5.76c.48,0,.87-.4.87-.9,0-.49-.39-.9-.87-.9h-1.92s0-9.33,0-9.33c0-.48-.54-.88-1.01-.88h0c-.46,0-1.01.39-1.01.88v9.33s-1.82,0-1.82,0c-.48,0-.87.41-.87.9,0,.5.39.9.87.9Z"/>
      <path class="cls-5" d="m265.93,599.37h-5.76c-.48,0-.87.4-.87.9,0,.49.39.9.87.9h1.92s0,9.33,0,9.33c0,.48.54.88,1.01.88h0c.46,0,1.01-.39,1.01-.88v-9.33s1.82,0,1.82,0c.48,0,.87-.41.87-.9,0-.5-.39-.9-.87-.9Z"/>
      <path class="cls-18" d="m265.12,624.8h5.76c.48,0,.87-.4.87-.9,0-.49-.39-.9-.87-.9h-1.92s0-9.33,0-9.33c0-.48-.54-.88-1.01-.88h0c-.46,0-1.01.39-1.01.88v9.33s-1.82,0-1.82,0c-.48,0-.87.41-.87.9,0,.5.39.9.87.9Z"/>
      <path class="cls-5" d="m270.93,599.37h-5.76c-.48,0-.87.4-.87.9,0,.49.39.9.87.9h1.92s0,9.33,0,9.33c0,.48.54.88,1.01.88h0c.46,0,1.01-.39,1.01-.88v-9.33s1.82,0,1.82,0c.48,0,.87-.41.87-.9,0-.5-.39-.9-.87-.9Z"/>
    </g>
    <g>
      <path class="cls-18" d="m358.46,599.37h-5.76c-.48,0-.87.4-.87.9,0,.49.39.9.87.9h1.92s0,9.33,0,9.33c0,.48.54.88,1.01.88h0c.46,0,1.01-.39,1.01-.88v-9.33s1.82,0,1.82,0c.48,0,.87-.41.87-.9,0-.5-.39-.9-.87-.9Z"/>
      <path class="cls-17" d="m352.64,624.8h5.76c.48,0,.87-.4.87-.9,0-.49-.39-.9-.87-.9h-1.92s0-9.33,0-9.33c0-.48-.54-.88-1.01-.88h0c-.46,0-1.01.39-1.01.88v9.33s-1.82,0-1.82,0c-.48,0-.87.41-.87.9,0,.5.39.9.87.9Z"/>
    </g>
    <g>
      <path class="cls-18" d="m88.46,724.8h-5.76c-.48,0-.87-.4-.87-.9,0-.49.39-.9.87-.9h1.92s0-9.33,0-9.33c0-.48.54-.88,1.01-.88h0c.46,0,1.01.39,1.01.88v9.33s1.82,0,1.82,0c.48,0,.87.41.87.9s-.39.9-.87.9Z"/>
      <path class="cls-5" d="m82.64,699.37h5.76c.48,0,.87.4.87.9,0,.49-.39.9-.87.9h-1.92s0,9.33,0,9.33c0,.48-.54.88-1.01.88h0c-.46,0-1.01-.39-1.01-.88v-9.33s-1.82,0-1.82,0c-.48,0-.87-.41-.87-.9s.39-.9.87-.9Z"/>
    </g>
    <g>
      <path class="cls-17" d="m58.53,700.69v-5.76c0-.48.4-.87.9-.87.49,0,.9.39.9.87v1.92s9.33,0,9.33,0c.48,0,.88.54.88,1.01h0c0,.46-.39,1.01-.88,1.01h-9.33s0,1.82,0,1.82c0,.48-.41.87-.9.87s-.9-.39-.9-.87Z"/>
      <path class="cls-5" d="m83.96,694.87v5.76c0,.48-.4.87-.9.87s-.9-.39-.9-.87v-1.92s-9.33,0-9.33,0c-.48,0-.88-.54-.88-1.01h0c0-.46.39-1.01.88-1.01h9.33s0-1.82,0-1.82c0-.48.41-.87.9-.87s.9.39.9.87Z"/>
    </g>
    <g>
      <path class="cls-17" d="m148.53,700.69v-5.76c0-.48.4-.87.9-.87.49,0,.9.39.9.87v1.92s9.33,0,9.33,0c.48,0,.88.54.88,1.01h0c0,.46-.39,1.01-.88,1.01h-9.33s0,1.82,0,1.82c0,.48-.41.87-.9.87s-.9-.39-.9-.87Z"/>
      <path class="cls-5" d="m173.96,694.87v5.76c0,.48-.4.87-.9.87s-.9-.39-.9-.87v-1.92s-9.33,0-9.33,0c-.48,0-.88-.54-.88-1.01h0c0-.46.39-1.01.88-1.01h9.33s0-1.82,0-1.82c0-.48.41-.87.9-.87s.9.39.9.87Z"/>
    </g>
    <g>
      <path class="cls-17" d="m538.43,250.59h-5.76c-.48,0-.87.4-.87.9,0,.49.39.9.87.9h1.92s0,9.33,0,9.33c0,.48.54.88,1.01.88h0c.46,0,1.01-.39,1.01-.88v-9.33s1.82,0,1.82,0c.48,0,.87-.41.87-.9,0-.5-.39-.9-.87-.9Z"/>
      <path class="cls-18" d="m538.43,276.02h-5.76c-.48,0-.87-.4-.87-.9,0-.49.39-.9.87-.9h1.92s0-9.33,0-9.33c0-.48.54-.88,1.01-.88h0c.46,0,1.01.39,1.01.88v9.33s1.82,0,1.82,0c.48,0,.87.41.87.9s-.39.9-.87.9Z"/>
    </g>
    <g>
      <path class="cls-18" d="m177.14,346.09v5.76c0,.48.4.87.9.87.49,0,.9-.39.9-.87v-1.92s9.33,0,9.33,0c.48,0,.88-.54.88-1.01h0c0-.46-.39-1.01-.88-1.01h-9.33s0-1.82,0-1.82c0-.48-.41-.87-.9-.87s-.9.39-.9.87Z"/>
      <path class="cls-5" d="m202.58,351.91v-5.76c0-.48-.4-.87-.9-.87s-.9.39-.9.87v1.92s-9.33,0-9.33,0c-.48,0-.88.54-.88,1.01h0c0,.46.39,1.01.88,1.01h9.33s0,1.82,0,1.82c0,.48.41.87.9.87s.9-.39.9-.87Z"/>
    </g>
    <g>
      <line class="cls-3" x1="279.89" y1="349.72" x2="279.89" y2="348.28"/>
      <line class="cls-18" x1="279.89" y1="349.72" x2="279.89" y2="348.28"/>
      <line class="cls-3" x1="279.46" y1="349" x2="280.3" y2="349"/>
    </g>
    <g>
      <line class="cls-3" x1="264.83" y1="334.69" x2="266.27" y2="334.69"/>
      <line class="cls-18" x1="264.83" y1="334.69" x2="266.27" y2="334.69"/>
      <line class="cls-3" x1="265.55" y1="334.25" x2="265.55" y2="335.1"/>
    </g>
    <g>
      <path class="cls-17" d="m262.64,347.41h5.76c.48,0,.87-.4.87-.9,0-.49-.39-.9-.87-.9h-1.92s0-9.33,0-9.33c0-.48-.54-.88-1.01-.88h0c-.46,0-1.01.39-1.01.88v9.33s-1.82,0-1.82,0c-.48,0-.87.41-.87.9s.39.9.87.9Z"/>
      <path class="cls-5" d="m268.46,321.97h-5.76c-.48,0-.87.4-.87.9,0,.49.39.9.87.9h1.92s0,9.33,0,9.33c0,.48.54.88,1.01.88h0c.46,0,1.01-.39,1.01-.88v-9.33s1.82,0,1.82,0c.48,0,.87-.41.87-.9s-.39-.9-.87-.9Z"/>
    </g>
    <g>
      <path class="cls-17" d="m382.58,351.91v-5.76c0-.48-.4-.87-.9-.87s-.9.39-.9.87v1.92s-9.33,0-9.33,0c-.48,0-.88.54-.88,1.01h0c0,.46.39,1.01.88,1.01h9.33s0,1.82,0,1.82c0,.48.41.87.9.87s.9-.39.9-.87Z"/>
      <path class="cls-5" d="m357.14,346.09v5.76c0,.48.4.87.9.87.49,0,.9-.39.9-.87v-1.92s9.33,0,9.33,0c.48,0,.88-.54.88-1.01h0c0-.46-.39-1.01-.88-1.01h-9.33s0-1.82,0-1.82c0-.48-.41-.87-.9-.87s-.9.39-.9.87Z"/>
    </g>
    <g>
      <line class="cls-3" x1="356.27" y1="334.66" x2="354.83" y2="334.66"/>
      <line class="cls-18" x1="356.27" y1="334.66" x2="354.83" y2="334.66"/>
      <line class="cls-3" x1="355.55" y1="335.1" x2="355.55" y2="334.25"/>
    </g>
    <g>
      <path class="cls-18" d="m358.46,321.97h-5.76c-.48,0-.87.4-.87.9,0,.49.39.9.87.9h1.92s0,9.33,0,9.33c0,.48.54.88,1.01.88h0c.46,0,1.01-.39,1.01-.88v-9.33s1.82,0,1.82,0c.48,0,.87-.41.87-.9,0-.5-.39-.9-.87-.9Z"/>
      <path class="cls-5" d="m352.64,347.41h5.76c.48,0,.87-.4.87-.9s-.39-.9-.87-.9h-1.92s0-9.33,0-9.33c0-.48-.54-.88-1.01-.88h0c-.46,0-1.01.39-1.01.88v9.33s-1.82,0-1.82,0c-.48,0-.87.41-.87.9s.39.9.87.9Z"/>
    </g>
    <g>
      <path class="cls-17" d="m447.14,346.09v5.76c0,.48.4.87.9.87.49,0,.9-.39.9-.87v-1.92s9.33,0,9.33,0c.48,0,.88-.54.88-1.01h0c0-.46-.39-1.01-.88-1.01h-9.33s0-1.82,0-1.82c0-.48-.41-.87-.9-.87s-.9.39-.9.87Z"/>
      <path class="cls-5" d="m472.58,351.91v-5.76c0-.48-.4-.87-.9-.87s-.9.39-.9.87v1.92s-9.33,0-9.33,0c-.48,0-.88.54-.88,1.01h0c0,.46.39,1.01.88,1.01h9.33s0,1.82,0,1.82c0,.48.41.87.9.87s.9-.39.9-.87Z"/>
    </g>
    <g>
      <line class="cls-3" x1="444.83" y1="334.69" x2="446.27" y2="334.69"/>
      <line class="cls-18" x1="444.83" y1="334.69" x2="446.27" y2="334.69"/>
      <line class="cls-3" x1="445.55" y1="334.25" x2="445.55" y2="335.1"/>
    </g>
    <g>
      <path class="cls-18" d="m442.64,347.41h5.76c.48,0,.87-.4.87-.9,0-.49-.39-.9-.87-.9h-1.92s0-9.33,0-9.33c0-.48-.54-.88-1.01-.88h0c-.46,0-1.01.39-1.01.88v9.33s-1.82,0-1.82,0c-.48,0-.87.41-.87.9s.39.9.87.9Z"/>
      <path class="cls-5" d="m448.46,321.97h-5.76c-.48,0-.87.4-.87.9,0,.49.39.9.87.9h1.92s0,9.33,0,9.33c0,.48.54.88,1.01.88h0c.46,0,1.01-.39,1.01-.88v-9.33s1.82,0,1.82,0c.48,0,.87-.41.87-.9s-.39-.9-.87-.9Z"/>
    </g>
    <g>
      <line class="cls-3" x1="536.27" y1="334.66" x2="534.83" y2="334.66"/>
      <line class="cls-18" x1="536.27" y1="334.66" x2="534.83" y2="334.66"/>
      <line class="cls-3" x1="535.55" y1="335.1" x2="535.55" y2="334.25"/>
    </g>
    <g>
      <path class="cls-18" d="m538.46,321.97h-5.76c-.48,0-.87.4-.87.9,0,.49.39.9.87.9h1.92s0,9.33,0,9.33c0,.48.54.88,1.01.88h0c.46,0,1.01-.39,1.01-.88v-9.33s1.82,0,1.82,0c.48,0,.87-.41.87-.9,0-.5-.39-.9-.87-.9Z"/>
      <path class="cls-5" d="m532.64,347.41h5.76c.48,0,.87-.4.87-.9s-.39-.9-.87-.9h-1.92s0-9.33,0-9.33c0-.48-.54-.88-1.01-.88h0c-.46,0-1.01.39-1.01.88v9.33s-1.82,0-1.82,0c-.48,0-.87.41-.87.9s.39.9.87.9Z"/>
    </g>
    <g>
      <path class="cls-17" d="m537.14,346.09v5.76c0,.48.4.87.9.87.49,0,.9-.39.9-.87v-1.92s9.33,0,9.33,0c.48,0,.88-.54.88-1.01h0c0-.46-.39-1.01-.88-1.01h-9.33s0-1.82,0-1.82c0-.48-.41-.87-.9-.87s-.9.39-.9.87Z"/>
      <path class="cls-5" d="m562.58,351.91v-5.76c0-.48-.4-.87-.9-.87s-.9.39-.9.87v1.92s-9.33,0-9.33,0c-.48,0-.88.54-.88,1.01h0c0,.46.39,1.01.88,1.01h9.33s0,1.82,0,1.82c0,.48.41.87.9.87s.9-.39.9-.87Z"/>
    </g>
    <g>
      <path class="cls-18" d="m172.64,699.37h5.76c.48,0,.87.4.87.9,0,.49-.39.9-.87.9h-1.92s0,9.33,0,9.33c0,.48-.54.88-1.01.88h0c-.46,0-1.01-.39-1.01-.88v-9.33s-1.82,0-1.82,0c-.48,0-.87-.41-.87-.9,0-.5.39-.9.87-.9Z"/>
      <path class="cls-5" d="m178.46,724.8h-5.76c-.48,0-.87-.4-.87-.9,0-.49.39-.9.87-.9h1.92s0-9.33,0-9.33c0-.48.54-.88,1.01-.88h0c.46,0,1.01.39,1.01.88v9.33s1.82,0,1.82,0c.48,0,.87.41.87.9s-.39.9-.87.9Z"/>
    </g>
    <g>
      <path class="cls-18" d="m292.58,694.87v5.76c0,.48-.4.87-.9.87s-.9-.39-.9-.87v-1.92s-9.33,0-9.33,0c-.48,0-.88-.54-.88-1.01h0c0-.46.39-1.01.88-1.01h9.33s0-1.82,0-1.82c0-.48.41-.87.9-.87s.9.39.9.87Z"/>
      <path class="cls-5" d="m267.14,700.69v-5.76c0-.48.4-.87.9-.87s.9.39.9.87v1.92s9.33,0,9.33,0c.48,0,.88.54.88,1.01h0c0,.46-.39,1.01-.88,1.01h-9.33s0,1.82,0,1.82c0,.48-.41.87-.9.87s-.9-.39-.9-.87Z"/>
    </g>
    <g>
      <path class="cls-17" d="m268.46,724.8h-5.76c-.48,0-.87-.4-.87-.9,0-.49.39-.9.87-.9h1.92s0-9.33,0-9.33c0-.48.54-.88,1.01-.88h0c.46,0,1.01.39,1.01.88v9.33s1.82,0,1.82,0c.48,0,.87.41.87.9s-.39.9-.87.9Z"/>
      <path class="cls-5" d="m262.64,699.37h5.76c.48,0,.87.4.87.9,0,.49-.39.9-.87.9h-1.92s0,9.33,0,9.33c0,.48-.54.88-1.01.88h0c-.46,0-1.01-.39-1.01-.88v-9.33s-1.82,0-1.82,0c-.48,0-.87-.41-.87-.9,0-.5.39-.9.87-.9Z"/>
    </g>
    <g>
      <path class="cls-17" d="m358.46,724.8h-5.76c-.48,0-.87-.4-.87-.9,0-.49.39-.9.87-.9h1.92s0-9.33,0-9.33c0-.48.54-.88,1.01-.88h0c.46,0,1.01.39,1.01.88v9.33s1.82,0,1.82,0c.48,0,.87.41.87.9s-.39.9-.87.9Z"/>
      <path class="cls-5" d="m352.64,699.37h5.76c.48,0,.87.4.87.9,0,.49-.39.9-.87.9h-1.92s0,9.33,0,9.33c0,.48-.54.88-1.01.88h0c-.46,0-1.01-.39-1.01-.88v-9.33s-1.82,0-1.82,0c-.48,0-.87-.41-.87-.9,0-.5.39-.9.87-.9Z"/>
    </g>
    <g>
      <path class="cls-18" d="m357.14,700.69v-5.76c0-.48.4-.87.9-.87s.9.39.9.87v1.92s9.33,0,9.33,0c.48,0,.88.54.88,1.01h0c0,.46-.39,1.01-.88,1.01h-9.33s0,1.82,0,1.82c0,.48-.41.87-.9.87s-.9-.39-.9-.87Z"/>
      <path class="cls-5" d="m382.58,694.87v5.76c0,.48-.4.87-.9.87s-.9-.39-.9-.87v-1.92s-9.33,0-9.33,0c-.48,0-.88-.54-.88-1.01h0c0-.46.39-1.01.88-1.01h9.33s0-1.82,0-1.82c0-.48.41-.87.9-.87s.9.39.9.87Z"/>
    </g>
  </g>
  <path class="cls-14" d="m437.2,63.29v-4.2h18.94v4.2h-18.94Zm0,8.96v-4.2h18.94v4.2h-18.94Z"/>
</svg>