<?xml version="1.0" encoding="UTF-8"?>
<svg id="Layer_1" data-name="Layer 1" xmlns="http://www.w3.org/2000/svg" viewBox="0 0 612 792">
  <defs>
    <style>
      .cls-1, .cls-2, .cls-3, .cls-4 {
        fill: none;
      }

      .cls-1, .cls-2, .cls-4 {
        stroke: #231f20;
        stroke-miterlimit: 10;
      }

      .cls-5 {
        fill: #21409a;
      }

      .cls-6 {
        fill: #f26522;
      }

      .cls-6, .cls-7, .cls-8, .cls-9, .cls-10 {
        font-family: Cambria-BoldItalic, Cambria;
      }

      .cls-6, .cls-7, .cls-8, .cls-9, .cls-10, .cls-11 {
        font-weight: 700;
      }

      .cls-7, .cls-12, .cls-10, .cls-13 {
        font-style: italic;
      }

      .cls-7, .cls-12, .cls-14, .cls-11, .cls-15 {
        fill: #231f20;
      }

      .cls-7, .cls-10 {
        font-size: 16px;
      }

      .cls-16 {
        letter-spacing: 0em;
      }

      .cls-16, .cls-9, .cls-17 {
        fill: #00a14b;
      }

      .cls-18 {
        fill: #00aeef;
      }

      .cls-12 {
        font-family: Georgia-Italic, Georgia;
        font-size: 13px;
      }

      .cls-19 {
        fill: #2e3192;
      }

      .cls-2 {
        stroke-width: 2px;
      }

      .cls-20 {
        font-family: Cambria-Italic, Cambria;
      }

      .cls-21 {
        letter-spacing: 0em;
      }

      .cls-14 {
        letter-spacing: -.03em;
      }

      .cls-22 {
        fill: #7f3f98;
      }

      .cls-23 {
        fill: #ed1c24;
      }

      .cls-24 {
        letter-spacing: 0em;
      }

      .cls-13 {
        font-size: 22px;
      }

      .cls-4 {
        stroke-width: .5px;
      }

      .cls-11 {
        font-family: Cambria-Bold, Cambria;
        font-size: 17px;
      }
    </style>
  </defs>
  <text class="cls-10" transform="translate(145.58 710.43)"><tspan class="cls-5" x="0" y="0">in</tspan><tspan class="cls-15" x="14.2" y="0">|</tspan><tspan class="cls-23" x="19.15" y="0">out</tspan></text>
  <text class="cls-13" transform="translate(34.59 520.13)"><tspan class="cls-15"><tspan class="cls-20" x="0" y="0">Type 6</tspan><tspan class="cls-8" x="60.85" y="0" xml:space="preserve"> - </tspan></tspan><tspan class="cls-6"><tspan class="cls-24" x="0" y="26.4">S</tspan><tspan class="cls-21" x="10.86" y="26.4">t</tspan><tspan x="18.71" y="26.4">atic</tspan></tspan></text>
  <path class="cls-15" d="m229.66,101.34c-.46-.06-.96.28-1.19,1.14-.42,1.54-.92,3.7-1.44,5.63-1.11-2.72-1.86-4.39-2.5-4.38-.01,0-.02,0-.03.01-.01-.01-.02-.01-.03-.01-.64-.01-1.39,1.65-2.5,4.38-.51-1.93-1.02-4.09-1.44-5.63-.24-.86-.73-1.2-1.19-1.14-.59.07-.98.49-.74,1.25.25.81,1.84,6.07,2.3,7.72.47,1.65,1.59.9,1.8.49.21-.41,1.36-3.67,1.8-4.59.44.92,1.59,4.18,1.8,4.59.21.41,1.33,1.16,1.8-.49.46-1.64,2.05-6.9,2.3-7.72.24-.76-.15-1.18-.74-1.25Z"/>
  <path class="cls-15" d="m407.84,102.58l-4.37,8.3c-.15.29-.45.46-.75.46-.13,0-.26-.04-.39-.1-.2-.11-.35-.28-.42-.5-.07-.21-.05-.45.06-.65l1.88-3.58-2.53-3.62c-.12-.11-.2-.27-.24-.47-.05-.25.03-.53.2-.71.15-.17.35-.27.58-.28.22,0,.45.07.61.21l2.2,3.29,1.65-3.14c.12-.2.29-.35.51-.42.22-.07.45-.04.65.07.22.12.38.33.43.59.03.19,0,.38-.08.55Z"/>
  <path class="cls-15" d="m318.4,109.85c.16.19.21.44.19.68-.03.24-.16.46-.34.61-.4.3-.98.23-1.3-.17l-2.45-3.14-2.45,3.14c-.18.23-.45.36-.72.36-.19,0-.4-.07-.57-.19-.19-.15-.32-.37-.35-.61-.03-.24.03-.49.19-.68l2.73-3.51-2.73-3.51c-.13-.17-.19-.36-.19-.57,0-.28.14-.56.36-.73.19-.15.42-.21.67-.19.24.03.47.16.61.35l2.45,3.14,2.44-3.14c.33-.41.91-.48,1.31-.16.22.17.35.43.35.72,0,.2-.07.4-.19.57l-2.73,3.51,2.73,3.51Z"/>
  <path class="cls-15" d="m495.47,103.07h-3.64c-1.34,0-1.31-1.73,0-1.73,5.4,0,5.35.02,5.67.38.23.27.43.73.15,1.14-1.71,2.48-4.54,6.52-4.54,6.52,0,0,3.43,0,4.33,0,1.35,0,1.4,1.91.13,1.91-8.37,0-9.53,1.13-2.09-8.23Z"/>
  <text class="cls-13" transform="translate(34.59 39.45)"><tspan class="cls-15"><tspan class="cls-20" x="0" y="0">Type 3</tspan><tspan class="cls-8" x="60.85" y="0" xml:space="preserve"> - </tspan></tspan><tspan class="cls-8"><tspan class="cls-16" x="0" y="26.4">Cr</tspan><tspan class="cls-17" x="21.74" y="26.4">oss</tspan><tspan class="cls-14" x="53.09" y="26.4">-</tspan><tspan class="cls-22" x="59.6" y="26.4">Shift</tspan><tspan class="cls-15" x="105.07" y="26.4" xml:space="preserve">    </tspan></tspan></text>
  <g>
    <line class="cls-4" x1="155.49" y1="120.3" x2="566.89" y2="120.3"/>
    <line class="cls-2" x1="35.88" y1="225.5" x2="566.89" y2="225.5"/>
    <line class="cls-2" x1="35.88" y1="355.5" x2="566.89" y2="355.5"/>
    <line class="cls-2" x1="35.88" y1="485.5" x2="566.89" y2="485.5"/>
  </g>
  <path d="m229.66,576.67c-.58,0-.83.22-1.14.59-.15.17-.34,1.05-.67.49-.67-1.14.02-4.06.95-5.35.25-.33-.1-.52-.27-.62,0,0-.37-.19-.57-.13-.26.09-.53-.11-1.24,1.46-1.06-1.22-2.29-1.06-3.14-1.02-.75.03-3,.86-3,3.49,0,3.16,2.71,3.75,3.53,3.75s2.21-.53,2.56-.85c.21.64.6,1.03,1.08,1.13.75.16,1.08-.21,1.38-.63.44-.6.94-2.28.52-2.29Zm-5.54.89c-1.09,0-1.97-.9-1.97-1.98s.89-1.97,1.97-1.97,1.98.9,1.98,1.97-.9,1.98-1.98,1.98Z"/>
  <path d="m317.34,574.75c-.16-.2-.34-.37-.53-.53,2.94-3.35-3.93-5.42-4.03-1.35,0,1.93-.02,3.45-.02,5.38-.68-.21-1.45.23-1.56.98-.07,1.89,1.82,1.56,2.51.74.26-.31.36-.56.44-1.51,2.58,1.37,4.6-1.49,3.18-3.71Zm-1.11,2.59c-.77.61-1.12.01-1.66-.15-.12-.04-.24-.02-.37.03,0-1.54,0-3.06.02-4.62-.13-.86,1.1-1.14,1.64-.56.45.49.37,1.33-.17,1.52-1.77-.47-1.6,2.08,0,1.44.75.22,1.32,1.55.54,2.34Z"/>
  <path d="m408.44,571.47c-.02.26-.14.59-.9.55s-3.92.04-4.37.07c0,.56.26,3.6.43,7.28.05,1.13-.44,1.27-.64,1.27-.34,0-.92-.43-1.03-1.14-.09-.66-.16-2.16-.23-3.74-.06-1.37-.12-2.79-.21-3.75l-.95.31.03-1.02c.04-.21.25-.46.39-.47s6.42-.22,6.78-.2.7.53.69.83Z"/>
  <path class="cls-15" d="m499.72,211.34h-3.54c-.32,0-.53-.32-.41-.62,2.67-6.29.99-7.71-1.08-7.85-.04,0-.08,0-.12,0h-.02s-.09,0-.13,0c-.04,0-.08,0-.12,0-2.07.14-3.75,1.56-1.08,7.85.12.29-.09.62-.41.62h-3.54c-.14,0-.66-1.27.12-1.73.69-.41.99.09,1.81.11-2.24-4.96.04-7.96,2.78-8.36.08-.02.94-.02,1.02,0,2.74.41,5.02,3.4,2.78,8.36.82-.02,1.12-.51,1.81-.11.78.46.26,1.73.12,1.73Z"/>
  <path class="cls-15" d="m318.57,209.47c-.93-2.27-1.86-4.39-2.21-5.2-.38-.84-.67-1.52-.74-1.72-.32-.87-.6-1.18-1.12-1.22-.5.04-.79.34-1.11,1.22-.07.2-.36.87-.73,1.72-.73,1.66-1.56,3.6-2.22,5.2-.28.71-.29,1.21-.03,1.52.19.23.49.34.9.34h6.43c.41,0,.71-.12.9-.34.12-.15.18-.34.18-.58,0-.26-.07-.57-.22-.94Zm-1.67.34h-4.8c.17-.42.49-1.25.87-2.18.56-1.41,1.21-3.07,1.53-3.9.39.98,1.22,3.11,1.83,4.63l.57,1.44Z"/>
  <path class="cls-15" d="m226.25,205.52c.48.44.43.65.44.96s-.23.47-.53.71c-1.75,1.43-2.78,2.44-2.78,2.44,0,0,.42.05,4.42.05.4,0,.79.33.79.78,0,.48-.22.88-.64.88-2.35,0-4.02-.05-5.97-.05-.79,0-1.34-.19-1.52-.57-.17-.36-.12-.9.55-1.52,1.91-1.72,3.47-2.88,3.47-2.88,0,0-2.17-1.97-3.75-3.56-.33-.33-.43-.62-.31-.85.11-.2.55-.57.92-.57h6.71c.74,0,.77,1.31,0,1.31-3.37,0-5.2.02-5.2.02l3.38,2.85Z"/>
  <path class="cls-15" d="m404.48,201.34c-1.33,0-3.23,1.68-3.23,5,0,2.56,1.22,5,3.23,5s3.27-2.44,3.27-5c0-3.48-1.94-5-3.27-5Zm.01,1.37c.96,0,1.64,1.13,1.7,1.93.02.3,0,.81-.55.81h-2.33c-.46,0-.51-.5-.5-.76.07-.8.81-1.98,1.69-1.98Zm0,7.26c-1.08,0-1.72-1.28-1.79-2.08-.01-.25,0-.76.5-.76h2.53c.56,0,.58.5.55.81-.06.8-.72,2.03-1.8,2.03Z"/>
  <text class="cls-13" transform="translate(34.59 259.61)"><tspan class="cls-15"><tspan class="cls-20" x="0" y="0">Type 4</tspan><tspan class="cls-8" x="60.85" y="0" xml:space="preserve"> - </tspan></tspan><tspan class="cls-9"><tspan x="0" y="26.4">Dash</tspan></tspan></text>
  <text class="cls-13" transform="translate(34.59 406.46)"><tspan class="cls-15"><tspan class="cls-20" x="0" y="0">Type 5</tspan><tspan class="cls-8" x="60.85" y="0" xml:space="preserve"> - </tspan></tspan><tspan class="cls-8"><tspan class="cls-18" x="0" y="26.4">Dual</tspan><tspan class="cls-15" x="46.86" y="26.4">-</tspan><tspan class="cls-17" x="54.01" y="26.4">Dash</tspan></tspan></text>
  <path class="cls-15" d="m400.66,338.67c.06-.29,1.97-5.54,3.02-7.94.32-.73.61-.72.74-.72s.42,0,.74.72c1.05,2.4,2.96,7.64,3.02,7.94.23,1-.08,1.16-.44,1.3-.28.13-.86.02-1.12-.7-.16-.42-2.2-5.86-2.2-5.86,0,0-2.05,5.44-2.2,5.86-.25.72-.83.82-1.12.7-.36-.15-.67-.3-.44-1.3Z"/>
  <path class="cls-15" d="m318.82,331.69c-.5,2.51-1.03,3.37-3.39,3.82-.04,0-.07.04-.08.07v3.6c0,.22-.1.44-.25.6s-.36.24-.59.24-.43-.09-.61-.24c-.16-.16-.24-.38-.24-.6v-3.6s-.05-.06-.09-.07c-2.35-.45-2.88-1.31-3.38-3.82-.08-.36-.04-.65.12-.83.17-.21.42-.24.56-.24.24,0,.43.22.56.45.13.23.2.47.21.54.25,1.71.73,2.29,1.85,2.29h.09s.07-.02.09-.06v-3.05c.12-.28.2-.48.31-.6.07-.06.15-.1.23-.13.05-.02.1-.03.14-.04.11-.02.24-.02.33,0,.05,0,.1.02.15.04.07,0,.15.06.22.13.12.12.21.31.3.6v.03s.02.03.02.05v2.94s0,.02,0,.04c0,.03.05.05.09.05,1.2.04,1.68-.54,1.93-2.29.03-.13.28-.99.76-.99h0c.14,0,.39.03.56.24.15.19.19.47.12.83Z"/>
  <path class="cls-15" d="m227.59,332.81c-.71-.51-1.55-.82-2.45-.91v-1.11c0-.42-.34-.76-.77-.76h-.12c-.43,0-.77.34-.77.76v1.11c-.9.09-1.75.4-2.45.91-.71.48-1.09,1.08-1.14,1.75-.06.85.42,1.62.85,2.01.7.66,1.64,1.05,2.74,1.14v1.55c0,.42.34.76.77.76h.12c.43,0,.77-.34.77-.76v-1.55c1.1-.09,2.04-.48,2.74-1.14.43-.39.91-1.17.85-2.01-.05-.68-.43-1.26-1.14-1.75Zm-2.45,1.84c0-.41,0-.75.04-1.08,0-.11.1-.2.21-.21h.07c.8,0,1.4.28,1.68.79.25.45.22,1.01-.09,1.45-.34.52-.97.77-1.72.69-.1,0-.18-.1-.18-.21,0-.27,0-.56,0-.85,0-.2,0-.39,0-.59Zm-3.66-.49c.27-.51.87-.79,1.67-.79h.07c.12,0,.21.1.22.21.03.33.04.69.04,1.08,0,.2,0,.4,0,.6,0,.28,0,.57,0,.84,0,.11-.08.2-.18.21-.75.09-1.37-.17-1.72-.69-.3-.44-.33-1-.09-1.45Z"/>
  <g>
    <text class="cls-11" transform="translate(153.99 46.73)"><tspan x="0" y="0">Γ→α</tspan></text>
    <text class="cls-11" transform="translate(533.84 46.73)"><tspan x="0" y="0">Γ→β</tspan></text>
    <text class="cls-11" transform="translate(533.68 144.51)"><tspan x="0" y="0">α→Γ</tspan></text>
    <text class="cls-11" transform="translate(154.14 144.51)"><tspan x="0" y="0">β→Γ</tspan></text>
    <text class="cls-11" transform="translate(166.46 256.47)"><tspan x="0" y="0">β→α</tspan></text>
    <text class="cls-11" transform="translate(263.48 256.47)"><tspan x="0" y="0">α→β</tspan></text>
    <text class="cls-11" transform="translate(348.52 256.47)"><tspan x="0" y="0">Γ→Γ</tspan></text>
    <text class="cls-11" transform="translate(260.31 385.48)"><tspan x="0" y="0">β→β</tspan></text>
    <text class="cls-11" transform="translate(355.52 385.48)"><tspan x="0" y="0">Γ→Γ</tspan></text>
    <text class="cls-11" transform="translate(166.31 386.47)"><tspan x="0" y="0">α→α</tspan></text>
  </g>
  <path class="cls-15" d="m400.66,468.67c.06-.29,1.97-5.54,3.02-7.94.32-.73.61-.72.74-.72s.42,0,.74.72c1.05,2.4,2.96,7.64,3.02,7.94.23,1-.08,1.16-.44,1.3-.28.13-.86.02-1.12-.7-.16-.42-2.2-5.86-2.2-5.86,0,0-2.05,5.44-2.2,5.86-.25.72-.83.82-1.12.7-.36-.15-.67-.3-.44-1.3Z"/>
  <path class="cls-15" d="m318.82,461.69c-.5,2.51-1.03,3.37-3.39,3.82-.04,0-.07.04-.08.07v3.6c0,.22-.1.44-.25.6s-.36.24-.59.24-.43-.09-.61-.24c-.16-.16-.24-.38-.24-.6v-3.6s-.05-.06-.09-.07c-2.35-.45-2.88-1.31-3.38-3.82-.08-.36-.04-.65.12-.83.17-.21.42-.24.56-.24.24,0,.43.22.56.45.13.23.2.47.21.54.25,1.71.73,2.29,1.85,2.29h.09s.07-.02.09-.06v-3.05c.12-.28.2-.48.31-.6.07-.06.15-.1.23-.13.05-.02.1-.03.14-.04.11-.02.24-.02.33,0,.05,0,.1.02.15.04.07,0,.15.06.22.13.12.12.21.31.3.6v.03s.02.03.02.05v2.94s0,.02,0,.04c0,.03.05.05.09.05,1.2.04,1.68-.54,1.93-2.29.03-.13.28-.99.76-.99h0c.14,0,.39.03.56.24.15.19.19.47.12.83Z"/>
  <path class="cls-15" d="m227.59,462.81c-.71-.51-1.55-.82-2.45-.91v-1.11c0-.42-.34-.76-.77-.76h-.12c-.43,0-.77.34-.77.76v1.11c-.9.09-1.75.4-2.45.91-.71.48-1.09,1.08-1.14,1.75-.06.85.42,1.62.85,2.01.7.66,1.64,1.05,2.74,1.14v1.55c0,.42.34.76.77.76h.12c.43,0,.77-.34.77-.76v-1.55c1.1-.09,2.04-.48,2.74-1.14.43-.39.91-1.17.85-2.01-.05-.68-.43-1.26-1.14-1.75Zm-2.45,1.84c0-.41,0-.75.04-1.08,0-.11.1-.2.21-.21h.07c.8,0,1.4.28,1.68.79.25.45.22,1.01-.09,1.45-.34.52-.97.77-1.72.69-.1,0-.18-.1-.18-.21,0-.27,0-.56,0-.85,0-.2,0-.39,0-.59Zm-3.66-.49c.27-.51.87-.79,1.67-.79h.07c.12,0,.21.1.22.21.03.33.04.69.04,1.08,0,.2,0,.4,0,.6,0,.28,0,.57,0,.84,0,.11-.08.2-.18.21-.75.09-1.37-.17-1.72-.69-.3-.44-.33-1-.09-1.45Z"/>
  <g>
    <rect class="cls-15" x="231.6" y="105.39" width="6.95" height="1.9" rx=".95" ry=".95"/>
    <rect class="cls-15" x="319.6" y="105.39" width="6.95" height="1.9" rx=".95" ry=".95"/>
    <rect class="cls-15" x="409.6" y="105.39" width="6.95" height="1.9" rx=".95" ry=".95"/>
    <rect class="cls-15" x="499.6" y="105.39" width="6.95" height="1.9" rx=".95" ry=".95"/>
  </g>
  <g>
    <rect class="cls-15" x="229.21" y="205.39" width="6.95" height="1.9" rx=".95" ry=".95"/>
    <rect class="cls-15" x="319.6" y="205.39" width="6.95" height="1.9" rx=".95" ry=".95"/>
    <rect class="cls-15" x="409.6" y="205.39" width="6.95" height="1.9" rx=".95" ry=".95"/>
    <rect class="cls-15" x="500.02" y="205.39" width="6.95" height="1.9" rx=".95" ry=".95"/>
  </g>
  <rect class="cls-15" x="230.02" y="464.07" width="6.95" height="1.9" rx=".95" ry=".95"/>
  <rect class="cls-15" x="320.02" y="464.07" width="6.95" height="1.9" rx=".95" ry=".95"/>
  <rect class="cls-15" x="410.02" y="464.07" width="6.95" height="1.9" rx=".95" ry=".95"/>
  <g>
    <path class="cls-19" d="m387.88,433.22c.79,1.08,4.05,3.91,4.05,3.91,0,0,3.26-2.83,4.05-3.91.59-.82-.5-1.87-.5-1.87l-2.62,2.58v-26.07c0-1.32-1.86-1.32-1.86,0v26.07s-2.62-2.58-2.62-2.58c0,0-1.09,1.05-.5,1.87Z"/>
    <path class="cls-23" d="m231.22,92.37c11.89,0,22.68-9.57,22.72-21.38l2.41,2.65s1.11-1.01.54-1.85c-.65-.95-3.93-4.08-3.93-4.08,0,0-3.32,2.66-4.21,3.8-.63.81.43,1.89.43,1.89l2.78-2.61c-.03,8.93-7.32,18.79-20.74,19.5-1.57.08-1.62,2.09,0,2.08Z"/>
    <path class="cls-23" d="m435.44,67.22c0,11.89-9.57,22.68-21.38,22.72l2.65,2.41s-1.01,1.11-1.85.54c-.95-.65-4.08-3.93-4.08-3.93,0,0,2.66-3.32,3.8-4.21.81-.63,1.89.43,1.89.43l-2.61,2.78c8.93-.03,18.79-7.32,19.5-20.74.08-1.57,2.09-1.62,2.08,0Z"/>
    <path class="cls-19" d="m213.28,46.39c-1.08.79-3.91,4.05-3.91,4.05,0,0,2.83,3.26,3.91,4.05.82.59,1.87-.5,1.87-.5l-2.58-2.62h26.07c1.32,0,1.32-1.86,0-1.86h-26.07s2.58-2.62,2.58-2.62c0,0-1.05-1.09-1.87-.5Z"/>
    <path class="cls-23" d="m254.5,168.56c0,11.89-9.57,22.68-21.38,22.72l2.65,2.41s-1.01,1.11-1.85.54c-.95-.65-4.08-3.93-4.08-3.93,0,0,2.66-3.32,3.8-4.21.81-.63,1.89.43,1.89.43l-2.61,2.78c8.93-.03,18.79-7.32,19.5-20.74.08-1.57,2.09-1.62,2.08,0Z"/>
    <path class="cls-23" d="m409.98,192.25c11.89,0,22.68-9.57,22.72-21.38l2.41,2.65s1.11-1.01.54-1.85c-.65-.95-3.93-4.08-3.93-4.08,0,0-3.32,2.66-4.21,3.8-.63.81.43,1.89.43,1.89l2.78-2.61c-.03,8.93-7.32,18.79-20.74,19.5-1.57.08-1.62,2.09,0,2.08Z"/>
    <path class="cls-19" d="m214.1,154.46c-1.08-.79-3.91-4.05-3.91-4.05,0,0,2.83-3.26,3.91-4.05.82-.59,1.87.5,1.87.5l-2.58,2.62h26.07c1.32,0,1.32,1.86,0,1.86h-26.07s2.58,2.62,2.58,2.62c0,0-1.05,1.09-1.87.5Z"/>
    <path class="cls-19" d="m303.28,154.22c-1.08-.79-3.91-4.05-3.91-4.05,0,0,2.83-3.26,3.91-4.05.82-.59,1.87.5,1.87.5l-2.58,2.62h26.07c1.32,0,1.32,1.86,0,1.86h-26.07s2.58,2.62,2.58,2.62c0,0-1.05,1.09-1.87.5Z"/>
    <path class="cls-19" d="m396.72,173.47c-.79,1.08-4.05,3.91-4.05,3.91,0,0-3.26-2.83-4.05-3.91-.59-.82.5-1.87.5-1.87l2.62,2.58v-26.07c0-1.32,1.86-1.32,1.86,0v26.07s2.62-2.58,2.62-2.58c0,0,1.09,1.05.5,1.87Z"/>
    <path class="cls-19" d="m486.72,173.47c-.79,1.08-4.05,3.91-4.05,3.91,0,0-3.26-2.83-4.05-3.91-.59-.82.5-1.87.5-1.87l2.62,2.58v-26.07c0-1.32,1.86-1.32,1.86,0v26.07s2.62-2.58,2.62-2.58c0,0,1.09,1.05.5,1.87Z"/>
    <path class="cls-19" d="m303.28,46.39c-1.08.79-3.91,4.05-3.91,4.05,0,0,2.83,3.26,3.91,4.05.82.59,1.87-.5,1.87-.5l-2.58-2.62h26.07c1.32,0,1.32-1.86,0-1.86h-26.07s2.58-2.62,2.58-2.62c0,0-1.05-1.09-1.87-.5Z"/>
    <path class="cls-19" d="m386.37,74.92c.79,1.08,4.05,3.91,4.05,3.91,0,0,3.26-2.83,4.05-3.91.59-.82-.5-1.87-.5-1.87l-2.62,2.58v-26.07c0-1.32-1.86-1.32-1.86,0v26.07s-2.62-2.58-2.62-2.58c0,0-1.09,1.05-.5,1.87Z"/>
    <path class="cls-19" d="m476.14,74.92c.79,1.08,4.05,3.91,4.05,3.91,0,0,3.26-2.83,4.05-3.91.59-.82-.5-1.87-.5-1.87l-2.62,2.58v-26.07c0-1.32-1.86-1.32-1.86,0v26.07s-2.62-2.58-2.62-2.58c0,0-1.09,1.05-.5,1.87Z"/>
    <path class="cls-23" d="m235.72,300.42c1.08.79,3.91,4.05,3.91,4.05,0,0-2.83,3.26-3.91,4.05-.82.59-1.87-.5-1.87-.5l2.58-2.62h-26.07c-1.32,0-1.32-1.86,0-1.86h26.07s-2.58-2.62-2.58-2.62c0,0,1.05-1.09,1.87-.5Z"/>
    <path class="cls-23" d="m415.72,275.15c1.08.79,3.91,4.05,3.91,4.05,0,0-2.83,3.26-3.91,4.05-.82.59-1.87-.5-1.87-.5l2.58-2.62h-26.07c-1.32,0-1.32-1.86,0-1.86h26.07s-2.58-2.62-2.58-2.62c0,0,1.05-1.09,1.87-.5Z"/>
    <path class="cls-23" d="m331.6,303.22c-.79,1.08-4.05,3.91-4.05,3.91,0,0-3.26-2.83-4.05-3.91-.59-.82.5-1.87.5-1.87l2.62,2.58v-26.07c0-1.32,1.86-1.32,1.86,0v26.07s2.62-2.58,2.62-2.58c0,0,1.09,1.05.5,1.87Z"/>
    <path class="cls-19" d="m213.28,414.45c-1.08-.79-3.91-4.05-3.91-4.05,0,0,2.83-3.26,3.91-4.05.82-.59,1.87.5,1.87.5l-2.58,2.62h26.07c1.32,0,1.32,1.86,0,1.86h-26.07s2.58,2.62,2.58,2.62c0,0-1.05,1.09-1.87.5Z"/>
    <path class="cls-23" d="m235.72,430.05c1.08.79,3.91,4.05,3.91,4.05,0,0-2.83,3.26-3.91,4.05-.82.59-1.87-.5-1.87-.5l2.58-2.62h-26.07c-1.32,0-1.32-1.86,0-1.86h26.07s-2.58-2.62-2.58-2.62c0,0,1.05-1.09,1.87-.5Z"/>
    <path class="cls-23" d="m415.72,405.04c1.08.79,3.91,4.05,3.91,4.05,0,0-2.83,3.26-3.91,4.05-.82.59-1.87-.5-1.87-.5l2.58-2.62h-26.07c-1.32,0-1.32-1.86,0-1.86h26.07s-2.58-2.62-2.58-2.62c0,0,1.05-1.09,1.87-.5Z"/>
    <path class="cls-23" d="m332.86,434.84c-.79,1.08-4.05,3.91-4.05,3.91,0,0-3.26-2.83-4.05-3.91-.59-.82.5-1.87.5-1.87l2.62,2.58v-26.07c0-1.32,1.86-1.32,1.86,0v26.07s2.62-2.58,2.62-2.58c0,0,1.09,1.05.5,1.87Z"/>
    <path class="cls-19" d="m296.14,434.29c.79,1.08,4.05,3.91,4.05,3.91,0,0,3.26-2.83,4.05-3.91.59-.82-.5-1.87-.5-1.87l-2.62,2.58v-26.07c0-1.32-1.86-1.32-1.86,0v26.07s-2.62-2.58-2.62-2.58c0,0-1.09,1.05-.5,1.87Z"/>
    <path class="cls-23" d="m320.42,91.17c0-21.23-.54-21.27,20.15-21.27l-2.72-2.66s1.04-1.1,1.87-.5c1.18.85,3.95,4.08,3.95,4.08,0,0-3.01,3.38-3.95,4.07-.82.6-1.87-.48-1.87-.48l2.72-2.56c-19.11,0-18.08-.84-18.08,19.29,0,1.51-2.07,1.51-2.07.03Z"/>
    <path class="cls-23" d="m343.63,168.42c-21.23,0-21.27-.54-21.27,20.15l-2.66-2.72s-1.1,1.04-.5,1.87c.85,1.18,4.08,3.95,4.08,3.95,0,0,3.38-3.01,4.07-3.95.6-.82-.48-1.87-.48-1.87l-2.56,2.72c0-19.11-.84-18.08,19.29-18.08,1.51,0,1.51-2.07.03-2.07Z"/>
    <path class="cls-23" d="m524.47,67.41c-21.23,0-21.27-.54-21.27,20.15l-2.66-2.72s-1.1,1.04-.5,1.87c.85,1.18,4.08,3.95,4.08,3.95,0,0,3.38-3.01,4.07-3.95.6-.82-.48-1.87-.48-1.87l-2.56,2.72c0-19.11-.84-18.08,19.29-18.08,1.51,0,1.51-2.07.03-2.07Z"/>
    <path class="cls-23" d="m500.67,191.14c0-21.23-.54-21.27,20.15-21.27l-2.72-2.66s1.04-1.1,1.87-.5c1.18.85,3.95,4.08,3.95,4.08,0,0-3.01,3.38-3.95,4.07-.82.6-1.87-.48-1.87-.48l2.72-2.56c-19.11,0-18.08-.84-18.08,19.29,0,1.51-2.07,1.51-2.07.03Z"/>
  </g>
  <g>
    <g>
      <g>
        <g>
          <circle class="cls-15" cx="224.5" cy="92.25" r="2.5"/>
          <circle class="cls-15" cx="254.5" cy="62.25" r="2.5"/>
          <circle class="cls-15" cx="224.5" cy="32.25" r="2.5"/>
          <circle class="cls-15" cx="194.5" cy="62.25" r="2.5"/>
          <circle class="cls-15" cx="224.5" cy="62.25" r="1.12"/>
        </g>
        <g>
          <circle class="cls-15" cx="314.5" cy="92.25" r="2.5"/>
          <circle class="cls-15" cx="344.5" cy="62.25" r="2.5"/>
          <circle class="cls-15" cx="314.5" cy="32.25" r="2.5"/>
          <circle class="cls-15" cx="284.5" cy="62.25" r="2.5"/>
          <circle class="cls-15" cx="314.5" cy="62.25" r="1.12"/>
        </g>
        <g>
          <circle class="cls-15" cx="404.5" cy="32.25" r="2.5"/>
          <circle class="cls-15" cx="434.5" cy="62.25" r="2.5"/>
          <circle class="cls-15" cx="404.5" cy="92.25" r="2.5"/>
          <circle class="cls-15" cx="374.5" cy="62.25" r="2.5"/>
          <circle class="cls-15" cx="404.5" cy="62.25" r="1.12"/>
        </g>
        <g>
          <circle class="cls-15" cx="494.5" cy="32.25" r="2.5"/>
          <circle class="cls-15" cx="524.5" cy="62.25" r="2.5"/>
          <circle class="cls-15" cx="494.5" cy="92.25" r="2.5"/>
          <circle class="cls-15" cx="464.5" cy="62.25" r="2.5"/>
          <circle class="cls-15" cx="494.5" cy="62.25" r="1.12"/>
        </g>
      </g>
      <g>
        <g>
          <circle class="cls-15" cx="224.5" cy="132.25" r="2.5"/>
          <circle class="cls-15" cx="254.5" cy="162.25" r="2.5"/>
          <circle class="cls-15" cx="224.5" cy="192.25" r="2.5"/>
          <circle class="cls-15" cx="194.5" cy="162.25" r="2.5"/>
          <circle class="cls-15" cx="224.5" cy="162.25" r="1.12"/>
        </g>
        <g>
          <circle class="cls-15" cx="314.5" cy="132.25" r="2.5"/>
          <circle class="cls-15" cx="344.5" cy="162.25" r="2.5"/>
          <circle class="cls-15" cx="314.5" cy="192.25" r="2.5"/>
          <circle class="cls-15" cx="284.5" cy="162.25" r="2.5"/>
          <circle class="cls-15" cx="314.5" cy="162.25" r="1.12"/>
        </g>
        <g>
          <circle class="cls-15" cx="374.5" cy="162.25" r="2.5"/>
          <circle class="cls-15" cx="404.5" cy="132.25" r="2.5"/>
          <circle class="cls-15" cx="434.5" cy="162.25" r="2.5"/>
          <circle class="cls-15" cx="404.5" cy="192.25" r="2.5"/>
          <circle class="cls-15" cx="404.5" cy="162.25" r="1.13"/>
        </g>
        <g>
          <circle class="cls-15" cx="464.5" cy="162.25" r="2.5"/>
          <circle class="cls-15" cx="494.5" cy="132.25" r="2.5"/>
          <circle class="cls-15" cx="524.5" cy="162.25" r="2.5"/>
          <circle class="cls-15" cx="494.5" cy="192.25" r="2.5"/>
          <circle class="cls-15" cx="494.5" cy="162.25" r="1.12"/>
        </g>
      </g>
      <g>
        <g>
          <circle class="cls-15" cx="224.5" cy="262.25" r="2.5"/>
          <circle class="cls-15" cx="254.5" cy="292.25" r="2.5"/>
          <circle class="cls-15" cx="224.5" cy="322.25" r="2.5"/>
          <circle class="cls-15" cx="194.5" cy="292.25" r="2.5"/>
          <circle class="cls-15" cx="224.5" cy="292.25" r="1.12"/>
        </g>
        <g>
          <circle class="cls-15" cx="314.5" cy="262.25" r="2.5"/>
          <circle class="cls-15" cx="344.5" cy="292.25" r="2.5"/>
          <circle class="cls-15" cx="314.5" cy="322.25" r="2.5"/>
          <circle class="cls-15" cx="284.5" cy="292.25" r="2.5"/>
          <circle class="cls-15" cx="314.5" cy="292.25" r="1.12"/>
        </g>
        <g>
          <circle class="cls-15" cx="404.5" cy="262.25" r="2.5"/>
          <circle class="cls-15" cx="434.5" cy="292.25" r="2.5"/>
          <circle class="cls-15" cx="404.5" cy="322.25" r="2.5"/>
          <circle class="cls-15" cx="374.5" cy="292.25" r="2.5"/>
          <circle class="cls-15" cx="404.5" cy="292.25" r="1.12"/>
        </g>
      </g>
      <g>
        <g>
          <circle class="cls-15" cx="224.5" cy="392.25" r="2.5"/>
          <circle class="cls-15" cx="254.5" cy="422.25" r="2.5"/>
          <circle class="cls-15" cx="224.5" cy="452.25" r="2.5"/>
          <circle class="cls-15" cx="194.5" cy="422.25" r="2.5"/>
          <circle class="cls-15" cx="224.5" cy="422.25" r="1.12"/>
        </g>
        <g>
          <circle class="cls-15" cx="314.5" cy="392.25" r="2.5"/>
          <circle class="cls-15" cx="344.5" cy="422.25" r="2.5"/>
          <circle class="cls-15" cx="314.5" cy="452.25" r="2.5"/>
          <circle class="cls-15" cx="284.5" cy="422.25" r="2.5"/>
          <circle class="cls-15" cx="314.5" cy="422.25" r="1.12"/>
        </g>
        <g>
          <circle class="cls-15" cx="404.5" cy="392.25" r="2.5"/>
          <circle class="cls-15" cx="434.5" cy="422.25" r="2.5"/>
          <circle class="cls-15" cx="404.5" cy="452.25" r="2.5"/>
          <circle class="cls-15" cx="374.5" cy="422.25" r="2.5"/>
          <circle class="cls-15" cx="404.5" cy="422.25" r="1.12"/>
        </g>
      </g>
      <g>
        <g>
          <circle class="cls-15" cx="224.5" cy="502.25" r="2.5"/>
          <circle class="cls-15" cx="254.5" cy="532.25" r="2.5"/>
          <circle class="cls-15" cx="224.5" cy="562.25" r="2.5"/>
          <circle class="cls-15" cx="194.5" cy="532.25" r="2.5"/>
          <circle class="cls-15" cx="224.5" cy="532.25" r="1.12"/>
        </g>
        <g>
          <circle class="cls-15" cx="314.5" cy="502.25" r="2.5"/>
          <circle class="cls-15" cx="344.5" cy="532.25" r="2.5"/>
          <circle class="cls-15" cx="314.5" cy="562.25" r="2.5"/>
          <circle class="cls-15" cx="284.5" cy="532.25" r="2.5"/>
          <circle class="cls-15" cx="314.5" cy="532.25" r="1.12"/>
        </g>
        <g>
          <circle class="cls-15" cx="404.5" cy="502.25" r="2.5"/>
          <circle class="cls-15" cx="434.5" cy="532.25" r="2.5"/>
          <circle class="cls-15" cx="404.5" cy="562.25" r="2.5"/>
          <circle class="cls-15" cx="374.5" cy="532.25" r="2.5"/>
          <circle class="cls-15" cx="404.5" cy="532.25" r="1.12"/>
        </g>
      </g>
    </g>
    <g>
      <g>
        <g>
          <line class="cls-3" x1="328.81" y1="61.53" x2="328.81" y2="62.97"/>
          <line class="cls-23" x1="328.81" y1="61.53" x2="328.81" y2="62.97"/>
          <line class="cls-3" x1="329.25" y1="62.25" x2="328.4" y2="62.25"/>
        </g>
        <g>
          <line class="cls-3" x1="300.19" y1="62.97" x2="300.19" y2="61.53"/>
          <line class="cls-23" x1="300.19" y1="62.97" x2="300.19" y2="61.53"/>
          <line class="cls-3" x1="299.76" y1="62.25" x2="300.6" y2="62.25"/>
        </g>
      </g>
      <path d="m229.66,676.67c-.58,0-.83.22-1.14.59-.15.17-.34,1.05-.67.49-.67-1.14.02-4.06.95-5.35.25-.33-.1-.52-.27-.62,0,0-.37-.19-.57-.13-.26.09-.53-.11-1.24,1.46-1.06-1.22-2.29-1.06-3.14-1.02-.75.03-3,.86-3,3.49,0,3.16,2.71,3.75,3.53,3.75s2.21-.53,2.56-.85c.21.64.6,1.03,1.08,1.13.75.16,1.08-.21,1.38-.63.44-.6.94-2.28.52-2.29Zm-5.54.89c-1.09,0-1.97-.9-1.97-1.98s.89-1.97,1.97-1.97,1.98.9,1.98,1.97-.9,1.98-1.98,1.98Z"/>
      <path d="m317.34,674.75c-.16-.2-.34-.37-.53-.53,2.94-3.35-3.93-5.42-4.03-1.35,0,1.93-.02,3.45-.02,5.38-.68-.21-1.45.23-1.56.98-.07,1.89,1.82,1.56,2.51.74.26-.31.36-.56.44-1.51,2.58,1.37,4.6-1.49,3.18-3.71Zm-1.11,2.59c-.77.61-1.12.01-1.66-.15-.12-.04-.24-.02-.37.03,0-1.54,0-3.06.02-4.62-.13-.86,1.1-1.14,1.64-.56.45.49.37,1.33-.17,1.52-1.77-.47-1.6,2.08,0,1.44.75.22,1.32,1.55.54,2.34Z"/>
      <path d="m408.44,671.47c-.02.26-.14.59-.9.55s-3.92.04-4.37.07c0,.56.26,3.6.43,7.28.05,1.13-.44,1.27-.64,1.27-.34,0-.92-.43-1.03-1.14-.09-.66-.16-2.16-.23-3.74-.06-1.37-.12-2.79-.21-3.75l-.95.31.03-1.02c.04-.21.25-.46.39-.47s6.42-.22,6.78-.2.7.53.69.83Z"/>
      <g>
        <g>
          <circle class="cls-15" cx="224.5" cy="602.25" r="2.5"/>
          <circle class="cls-15" cx="254.5" cy="632.25" r="2.5"/>
          <circle class="cls-15" cx="224.5" cy="662.25" r="2.5"/>
          <circle class="cls-15" cx="194.5" cy="632.25" r="2.5"/>
          <circle class="cls-15" cx="224.5" cy="632.25" r="1.12"/>
        </g>
        <g>
          <circle class="cls-15" cx="314.5" cy="602.25" r="2.5"/>
          <circle class="cls-15" cx="344.5" cy="632.25" r="2.5"/>
          <circle class="cls-15" cx="314.5" cy="662.25" r="2.5"/>
          <circle class="cls-15" cx="284.5" cy="632.25" r="2.5"/>
          <circle class="cls-15" cx="314.5" cy="632.25" r="1.12"/>
        </g>
        <g>
          <circle class="cls-15" cx="404.5" cy="602.25" r="2.5"/>
          <circle class="cls-15" cx="434.5" cy="632.25" r="2.5"/>
          <circle class="cls-15" cx="404.5" cy="662.25" r="2.5"/>
          <circle class="cls-15" cx="374.5" cy="632.25" r="2.5"/>
          <circle class="cls-15" cx="404.5" cy="632.25" r="1.12"/>
        </g>
      </g>
      <path d="m229.66,776.67c-.58,0-.83.22-1.14.59-.15.17-.34,1.05-.67.49-.67-1.14.02-4.06.95-5.35.25-.33-.1-.52-.27-.62,0,0-.37-.19-.57-.13-.26.09-.53-.11-1.24,1.46-1.06-1.22-2.29-1.06-3.14-1.02-.75.03-3,.86-3,3.49,0,3.16,2.71,3.75,3.53,3.75s2.21-.53,2.56-.85c.21.64.6,1.03,1.08,1.13.75.16,1.08-.21,1.38-.63.44-.6.94-2.28.52-2.29Zm-5.54.89c-1.09,0-1.97-.9-1.97-1.98s.89-1.97,1.97-1.97,1.98.9,1.98,1.97-.9,1.98-1.98,1.98Z"/>
      <path d="m317.34,774.75c-.16-.2-.34-.37-.53-.53,2.94-3.35-3.93-5.42-4.03-1.35,0,1.93-.02,3.45-.02,5.38-.68-.21-1.45.23-1.56.98-.07,1.89,1.82,1.56,2.51.74.26-.31.36-.56.44-1.51,2.58,1.37,4.6-1.49,3.18-3.71Zm-1.11,2.59c-.77.61-1.12.01-1.66-.15-.12-.04-.24-.02-.37.03,0-1.54,0-3.06.02-4.62-.13-.86,1.1-1.14,1.64-.56.45.49.37,1.33-.17,1.52-1.77-.47-1.6,2.08,0,1.44.75.22,1.32,1.55.54,2.34Z"/>
      <path d="m408.44,771.47c-.02.26-.14.59-.9.55s-3.92.04-4.37.07c0,.56.26,3.6.43,7.28.05,1.13-.44,1.27-.64,1.27-.34,0-.92-.43-1.03-1.14-.09-.66-.16-2.16-.23-3.74-.06-1.37-.12-2.79-.21-3.75l-.95.31.03-1.02c.04-.21.25-.46.39-.47s6.42-.22,6.78-.2.7.53.69.83Z"/>
      <g>
        <g>
          <circle class="cls-15" cx="224.5" cy="702.25" r="2.5"/>
          <circle class="cls-15" cx="254.5" cy="732.25" r="2.5"/>
          <circle class="cls-15" cx="224.5" cy="762.25" r="2.5"/>
          <circle class="cls-15" cx="194.5" cy="732.25" r="2.5"/>
          <circle class="cls-15" cx="224.5" cy="732.25" r="1.12"/>
        </g>
        <g>
          <circle class="cls-15" cx="314.5" cy="702.25" r="2.5"/>
          <circle class="cls-15" cx="344.5" cy="732.25" r="2.5"/>
          <circle class="cls-15" cx="314.5" cy="762.25" r="2.5"/>
          <circle class="cls-15" cx="284.5" cy="732.25" r="2.5"/>
          <circle class="cls-15" cx="314.5" cy="732.25" r="1.12"/>
        </g>
        <g>
          <circle class="cls-15" cx="404.5" cy="702.25" r="2.5"/>
          <circle class="cls-15" cx="434.5" cy="732.25" r="2.5"/>
          <circle class="cls-15" cx="404.5" cy="762.25" r="2.5"/>
          <circle class="cls-15" cx="374.5" cy="732.25" r="2.5"/>
          <circle class="cls-15" cx="404.5" cy="732.25" r="1.12"/>
        </g>
      </g>
    </g>
  </g>
  <line class="cls-1" x1="133.71" y1="590.23" x2="490.28" y2="590.23"/>
  <line class="cls-1" x1="133.71" y1="690.23" x2="490.28" y2="690.23"/>
  <text class="cls-7" transform="translate(139.32 510.46)"><tspan x="0" y="0">out|out</tspan></text>
  <text class="cls-7" transform="translate(148.93 610.46)"><tspan x="0" y="0">in|in</tspan></text>
  <g>
    <g>
      <g>
        <path class="cls-23" d="m238.01,62.26c0,3.77,3.06,6.83,6.82,6.83,3.77,0,6.83-3.06,6.83-6.83,0-3.76-3.06-6.82-6.83-6.82-3.76,0-6.82,3.06-6.82,6.82Zm1.6,0c0-2.88,2.34-5.22,5.22-5.22,2.89,0,5.23,2.34,5.23,5.22s-2.34,5.23-5.23,5.23c-2.88,0-5.22-2.34-5.22-5.23Z"/>
        <path class="cls-3" d="m239.61,62.23c0-3.77-3.06-6.83-6.82-6.83-3.77,0-6.83,3.06-6.83,6.83,0,3.76,3.06,6.82,6.83,6.82,3.76,0,6.82-3.06,6.82-6.82Zm-1.6,0c0,2.88-2.34,5.22-5.22,5.22-2.89,0-5.23-2.34-5.23-5.22,0-2.89,2.34-5.23,5.23-5.23,2.88,0,5.22,2.34,5.22,5.23Z"/>
      </g>
      <g>
        <path class="cls-19" d="m209.39,62.26c0,3.77,3.06,6.83,6.82,6.83,3.77,0,6.83-3.06,6.83-6.83,0-3.76-3.06-6.82-6.83-6.82-3.76,0-6.82,3.06-6.82,6.82Zm1.6,0c0-2.88,2.34-5.22,5.22-5.22,2.89,0,5.23,2.34,5.23,5.22,0,2.89-2.34,5.23-5.23,5.23-2.88,0-5.22-2.34-5.22-5.23Z"/>
        <path class="cls-3" d="m210.99,62.23c0-3.77-3.06-6.83-6.82-6.83-3.77,0-6.83,3.06-6.83,6.83,0,3.76,3.06,6.82,6.83,6.82,3.76,0,6.82-3.06,6.82-6.82Zm-1.6,0c0,2.88-2.34,5.22-5.22,5.22-2.89,0-5.23-2.34-5.23-5.22,0-2.89,2.34-5.23,5.23-5.23,2.88,0,5.22,2.34,5.22,5.23Z"/>
      </g>
      <g>
        <path class="cls-23" d="m329.61,62.23c0-3.77-3.06-6.83-6.82-6.83-3.77,0-6.83,3.06-6.83,6.83,0,3.76,3.06,6.82,6.83,6.82s6.82-3.06,6.82-6.82Zm-1.6,0c0,2.88-2.34,5.22-5.22,5.22-2.89,0-5.23-2.34-5.23-5.22s2.34-5.23,5.23-5.23c2.88,0,5.22,2.34,5.22,5.23Z"/>
        <path class="cls-3" d="m328.01,62.26c0,3.77,3.06,6.83,6.82,6.83,3.77,0,6.83-3.06,6.83-6.83,0-3.76-3.06-6.82-6.83-6.82-3.76,0-6.82,3.06-6.82,6.82Zm1.6,0c0-2.88,2.34-5.22,5.22-5.22,2.89,0,5.23,2.34,5.23,5.22,0,2.89-2.34,5.23-5.23,5.23-2.88,0-5.22-2.34-5.22-5.23Z"/>
      </g>
      <g>
        <path class="cls-19" d="m299.39,62.26c0,3.77,3.06,6.83,6.82,6.83,3.77,0,6.83-3.06,6.83-6.83,0-3.76-3.06-6.82-6.83-6.82-3.76,0-6.82,3.06-6.82,6.82Zm1.6,0c0-2.88,2.34-5.22,5.22-5.22,2.89,0,5.23,2.34,5.23,5.22,0,2.89-2.34,5.23-5.23,5.23-2.88,0-5.22-2.34-5.22-5.23Z"/>
        <path class="cls-3" d="m300.99,62.23c0-3.77-3.06-6.83-6.82-6.83-3.77,0-6.83,3.06-6.83,6.83,0,3.76,3.06,6.82,6.83,6.82,3.76,0,6.82-3.06,6.82-6.82Zm-1.6,0c0,2.88-2.34,5.22-5.22,5.22-2.89,0-5.23-2.34-5.23-5.22,0-2.89,2.34-5.23,5.23-5.23,2.88,0,5.22,2.34,5.22,5.23Z"/>
      </g>
      <g>
        <path class="cls-23" d="m397.69,82.58c0,3.77,3.06,6.83,6.82,6.83,3.77,0,6.83-3.06,6.83-6.83s-3.06-6.82-6.83-6.82c-3.76,0-6.82,3.06-6.82,6.82Zm12.05,0c0,2.89-2.34,5.23-5.23,5.23s-5.22-2.34-5.22-5.23,2.34-5.22,5.22-5.22,5.23,2.34,5.23,5.22Z"/>
        <path class="cls-19" d="m411.31,70.53c0-3.77-3.06-6.83-6.82-6.83-3.77,0-6.83,3.06-6.83,6.83,0,3.76,3.06,6.82,6.83,6.82,3.76,0,6.82-3.06,6.82-6.82Zm-12.05,0c0-2.89,2.34-5.23,5.23-5.23s5.22,2.34,5.22,5.23-2.34,5.22-5.22,5.22-5.23-2.34-5.23-5.22Z"/>
      </g>
      <g>
        <path class="cls-23" d="m217.69,182.58c0,3.77,3.06,6.83,6.82,6.83,3.77,0,6.83-3.06,6.83-6.83s-3.06-6.82-6.83-6.82c-3.76,0-6.82,3.06-6.82,6.82Zm12.05,0c0,2.89-2.34,5.23-5.23,5.23s-5.22-2.34-5.22-5.23,2.34-5.22,5.22-5.22,5.23,2.34,5.23,5.22Z"/>
        <path class="cls-3" d="m231.31,170.53c0-3.77-3.06-6.83-6.82-6.83-3.77,0-6.83,3.06-6.83,6.83,0,3.76,3.06,6.82,6.83,6.82,3.76,0,6.82-3.06,6.82-6.82Zm-12.05,0c0-2.89,2.34-5.23,5.23-5.23s5.22,2.34,5.22,5.23-2.34,5.22-5.22,5.22c-2.89,0-5.23-2.34-5.23-5.22Z"/>
      </g>
      <g>
        <path class="cls-19" d="m216.21,169.05c3.77,0,6.83-3.06,6.83-6.82,0-3.77-3.06-6.83-6.83-6.83-3.76,0-6.82,3.06-6.82,6.83,0,3.76,3.06,6.82,6.82,6.82Zm0-12.05c2.89,0,5.23,2.34,5.23,5.23,0,2.88-2.34,5.22-5.23,5.22-2.88,0-5.22-2.34-5.22-5.22,0-2.89,2.34-5.23,5.22-5.23Z"/>
        <path class="cls-3" d="m204.17,155.44c-3.77,0-6.83,3.06-6.83,6.82,0,3.77,3.06,6.83,6.83,6.83,3.76,0,6.82-3.06,6.82-6.83,0-3.76-3.06-6.82-6.82-6.82Zm0,12.05c-2.89,0-5.23-2.34-5.23-5.23,0-2.88,2.34-5.22,5.23-5.22,2.88,0,5.22,2.34,5.22,5.22,0,2.89-2.34,5.23-5.22,5.23Z"/>
      </g>
      <g>
        <path class="cls-23" d="m232.79,285.44c-3.77,0-6.83,3.06-6.83,6.82s3.06,6.83,6.83,6.83c3.76,0,6.82-3.06,6.82-6.83,0-3.76-3.06-6.82-6.82-6.82Zm0,12.05c-2.89,0-5.23-2.34-5.23-5.23,0-2.88,2.34-5.22,5.23-5.22s5.22,2.34,5.22,5.22c0,2.89-2.34,5.23-5.22,5.23Z"/>
        <path class="cls-3" d="m244.83,299.05c3.77,0,6.83-3.06,6.83-6.82,0-3.77-3.06-6.83-6.83-6.83s-6.82,3.06-6.82,6.83c0,3.76,3.06,6.82,6.82,6.82Zm0-12.05c2.89,0,5.23,2.34,5.23,5.23,0,2.88-2.34,5.22-5.23,5.22-2.88,0-5.22-2.34-5.22-5.22,0-2.89,2.34-5.23,5.22-5.23Z"/>
      </g>
      <g>
        <path class="cls-23" d="m321.31,300.53c0-3.77-3.06-6.83-6.82-6.83-3.77,0-6.83,3.06-6.83,6.83,0,3.76,3.06,6.82,6.83,6.82,3.76,0,6.82-3.06,6.82-6.82Zm-12.05,0c0-2.89,2.34-5.23,5.23-5.23,2.88,0,5.22,2.34,5.22,5.23,0,2.88-2.34,5.22-5.22,5.22-2.89,0-5.23-2.34-5.23-5.22Z"/>
        <path class="cls-19" d="m307.69,312.58c0,3.77,3.06,6.83,6.82,6.83,3.77,0,6.83-3.06,6.83-6.83,0-3.76-3.06-6.82-6.83-6.82-3.76,0-6.82,3.06-6.82,6.82Zm12.05,0c0,2.89-2.34,5.23-5.23,5.23-2.88,0-5.22-2.34-5.22-5.23,0-2.88,2.34-5.22,5.22-5.22,2.89,0,5.23,2.34,5.23,5.22Z"/>
      </g>
      <g>
        <path class="cls-3" d="m411.31,300.53c0-3.77-3.06-6.83-6.82-6.83-3.77,0-6.83,3.06-6.83,6.83,0,3.76,3.06,6.82,6.83,6.82,3.76,0,6.82-3.06,6.82-6.82Zm-12.05,0c0-2.89,2.34-5.23,5.23-5.23,2.88,0,5.22,2.34,5.22,5.23,0,2.88-2.34,5.22-5.22,5.22-2.89,0-5.23-2.34-5.23-5.22Z"/>
        <path class="cls-19" d="m397.69,312.58c0,3.77,3.06,6.83,6.82,6.83,3.77,0,6.83-3.06,6.83-6.83,0-3.76-3.06-6.82-6.83-6.82-3.76,0-6.82,3.06-6.82,6.82Zm12.05,0c0,2.89-2.34,5.23-5.23,5.23-2.88,0-5.22-2.34-5.22-5.23,0-2.88,2.34-5.22,5.22-5.22,2.89,0,5.23,2.34,5.23,5.22Z"/>
      </g>
      <g>
        <path class="cls-23" d="m412.79,285.44c-3.77,0-6.83,3.06-6.83,6.82,0,3.77,3.06,6.83,6.83,6.83,3.76,0,6.82-3.06,6.82-6.83,0-3.76-3.06-6.82-6.82-6.82Zm0,12.05c-2.89,0-5.23-2.34-5.23-5.23s2.34-5.22,5.23-5.22c2.88,0,5.22,2.34,5.22,5.22s-2.34,5.23-5.22,5.23Z"/>
        <path class="cls-3" d="m424.83,299.05c3.77,0,6.83-3.06,6.83-6.82,0-3.77-3.06-6.83-6.83-6.83-3.76,0-6.82,3.06-6.82,6.83,0,3.76,3.06,6.82,6.82,6.82Zm0-12.05c2.89,0,5.23,2.34,5.23,5.23,0,2.88-2.34,5.22-5.23,5.22-2.88,0-5.22-2.34-5.22-5.22,0-2.89,2.34-5.23,5.22-5.23Z"/>
      </g>
      <g>
        <path class="cls-19" d="m204.17,285.44c-3.77,0-6.83,3.06-6.83,6.82,0,3.77,3.06,6.83,6.83,6.83,3.76,0,6.82-3.06,6.82-6.83,0-3.76-3.06-6.82-6.82-6.82Zm0,12.05c-2.89,0-5.23-2.34-5.23-5.23,0-2.88,2.34-5.22,5.23-5.22,2.88,0,5.22,2.34,5.22,5.22,0,2.89-2.34,5.23-5.22,5.23Z"/>
        <path class="cls-3" d="m216.21,299.05c3.77,0,6.83-3.06,6.83-6.82,0-3.77-3.06-6.83-6.83-6.83-3.76,0-6.82,3.06-6.82,6.83,0,3.76,3.06,6.82,6.82,6.82Zm0-12.05c2.89,0,5.23,2.34,5.23,5.23,0,2.88-2.34,5.22-5.23,5.22-2.88,0-5.22-2.34-5.22-5.22,0-2.89,2.34-5.23,5.22-5.23Z"/>
      </g>
      <g>
        <path class="cls-23" d="m232.79,415.44c-3.77,0-6.83,3.06-6.83,6.82s3.06,6.83,6.83,6.83c3.76,0,6.82-3.06,6.82-6.83,0-3.76-3.06-6.82-6.82-6.82Zm0,12.05c-2.89,0-5.23-2.34-5.23-5.23,0-2.88,2.34-5.22,5.23-5.22s5.22,2.34,5.22,5.22c0,2.89-2.34,5.23-5.22,5.23Z"/>
        <path class="cls-3" d="m244.83,429.05c3.77,0,6.83-3.06,6.83-6.82,0-3.77-3.06-6.83-6.83-6.83s-6.82,3.06-6.82,6.83c0,3.76,3.06,6.82,6.82,6.82Zm0-12.05c2.89,0,5.23,2.34,5.23,5.23,0,2.88-2.34,5.22-5.23,5.22-2.88,0-5.22-2.34-5.22-5.22,0-2.89,2.34-5.23,5.22-5.23Z"/>
      </g>
      <g>
        <path class="cls-3" d="m397.69,442.58c0,3.77,3.06,6.83,6.82,6.83,3.77,0,6.83-3.06,6.83-6.83,0-3.76-3.06-6.82-6.83-6.82-3.76,0-6.82,3.06-6.82,6.82Zm12.05,0c0,2.89-2.34,5.23-5.23,5.23s-5.22-2.34-5.22-5.23c0-2.88,2.34-5.22,5.22-5.22s5.23,2.34,5.23,5.22Z"/>
        <path class="cls-19" d="m411.31,430.53c0-3.77-3.06-6.83-6.82-6.83-3.77,0-6.83,3.06-6.83,6.83,0,3.76,3.06,6.82,6.83,6.82,3.76,0,6.82-3.06,6.82-6.82Zm-12.05,0c0-2.89,2.34-5.23,5.23-5.23,2.88,0,5.22,2.34,5.22,5.23,0,2.88-2.34,5.22-5.22,5.22-2.89,0-5.23-2.34-5.23-5.22Z"/>
      </g>
      <g>
        <path class="cls-23" d="m412.79,415.44c-3.77,0-6.83,3.06-6.83,6.82,0,3.77,3.06,6.83,6.83,6.83,3.76,0,6.82-3.06,6.82-6.83,0-3.76-3.06-6.82-6.82-6.82Zm0,12.05c-2.89,0-5.23-2.34-5.23-5.23s2.34-5.22,5.23-5.22c2.88,0,5.22,2.34,5.22,5.22s-2.34,5.23-5.22,5.23Z"/>
        <path class="cls-3" d="m424.83,429.05c3.77,0,6.83-3.06,6.83-6.82,0-3.77-3.06-6.83-6.83-6.83-3.76,0-6.82,3.06-6.82,6.83,0,3.76,3.06,6.82,6.82,6.82Zm0-12.05c2.89,0,5.23,2.34,5.23,5.23,0,2.88-2.34,5.22-5.23,5.22-2.88,0-5.22-2.34-5.22-5.22,0-2.89,2.34-5.23,5.22-5.23Z"/>
      </g>
      <g>
        <path class="cls-19" d="m216.21,429.05c3.77,0,6.83-3.06,6.83-6.82,0-3.77-3.06-6.83-6.83-6.83-3.76,0-6.82,3.06-6.82,6.83,0,3.76,3.06,6.82,6.82,6.82Zm0-12.05c2.89,0,5.23,2.34,5.23,5.23s-2.34,5.22-5.23,5.22c-2.88,0-5.22-2.34-5.22-5.22,0-2.89,2.34-5.23,5.22-5.23Z"/>
        <path class="cls-3" d="m204.17,415.44c-3.77,0-6.83,3.06-6.83,6.82,0,3.77,3.06,6.83,6.83,6.83,3.76,0,6.82-3.06,6.82-6.83,0-3.76-3.06-6.82-6.82-6.82Zm0,12.05c-2.89,0-5.23-2.34-5.23-5.23,0-2.88,2.34-5.22,5.23-5.22,2.88,0,5.22,2.34,5.22,5.22,0,2.89-2.34,5.23-5.22,5.23Z"/>
      </g>
      <g>
        <path class="cls-23" d="m321.31,170.53c0-3.77-3.06-6.83-6.82-6.83-3.77,0-6.83,3.06-6.83,6.83,0,3.76,3.06,6.82,6.83,6.82,3.76,0,6.82-3.06,6.82-6.82Zm-12.05,0c0-2.89,2.34-5.23,5.23-5.23s5.22,2.34,5.22,5.23-2.34,5.22-5.22,5.22-5.23-2.34-5.23-5.22Z"/>
        <path class="cls-3" d="m307.69,182.58c0,3.77,3.06,6.83,6.82,6.83,3.77,0,6.83-3.06,6.83-6.83,0-3.76-3.06-6.82-6.83-6.82-3.76,0-6.82,3.06-6.82,6.82Zm12.05,0c0,2.89-2.34,5.23-5.23,5.23s-5.22-2.34-5.22-5.23c0-2.88,2.34-5.22,5.22-5.22s5.23,2.34,5.23,5.22Z"/>
      </g>
      <g>
        <path class="cls-19" d="m306.21,169.05c3.77,0,6.83-3.06,6.83-6.82,0-3.77-3.06-6.83-6.83-6.83-3.76,0-6.82,3.06-6.82,6.83,0,3.76,3.06,6.82,6.82,6.82Zm0-12.05c2.89,0,5.23,2.34,5.23,5.23s-2.34,5.22-5.23,5.22c-2.88,0-5.22-2.34-5.22-5.22,0-2.89,2.34-5.23,5.22-5.23Z"/>
        <path class="cls-3" d="m294.17,155.44c-3.77,0-6.83,3.06-6.83,6.82,0,3.77,3.06,6.83,6.83,6.83,3.76,0,6.82-3.06,6.82-6.83,0-3.76-3.06-6.82-6.82-6.82Zm0,12.05c-2.89,0-5.23-2.34-5.23-5.23,0-2.88,2.34-5.22,5.23-5.22,2.88,0,5.22,2.34,5.22,5.22,0,2.89-2.34,5.23-5.22,5.23Z"/>
      </g>
      <g>
        <path class="cls-23" d="m424.83,169.05c3.77,0,6.83-3.06,6.83-6.82,0-3.77-3.06-6.83-6.83-6.83s-6.82,3.06-6.82,6.83c0,3.76,3.06,6.82,6.82,6.82Zm0-12.05c2.89,0,5.23,2.34,5.23,5.23s-2.34,5.22-5.23,5.22-5.22-2.34-5.22-5.22,2.34-5.23,5.22-5.23Z"/>
        <path class="cls-3" d="m412.79,155.44c-3.77,0-6.83,3.06-6.83,6.82,0,3.77,3.06,6.83,6.83,6.83,3.76,0,6.82-3.06,6.82-6.83s-3.06-6.82-6.82-6.82Zm0,12.05c-2.89,0-5.23-2.34-5.23-5.23s2.34-5.22,5.23-5.22c2.88,0,5.22,2.34,5.22,5.22,0,2.89-2.34,5.23-5.22,5.23Z"/>
      </g>
      <g>
        <path class="cls-19" d="m411.31,170.53c0-3.77-3.06-6.83-6.82-6.83-3.77,0-6.83,3.06-6.83,6.83,0,3.76,3.06,6.82,6.83,6.82,3.76,0,6.82-3.06,6.82-6.82Zm-12.05,0c0-2.89,2.34-5.23,5.23-5.23,2.88,0,5.22,2.34,5.22,5.23,0,2.88-2.34,5.22-5.22,5.22-2.89,0-5.23-2.34-5.23-5.22Z"/>
        <path class="cls-3" d="m397.69,182.58c0,3.77,3.06,6.83,6.82,6.83,3.77,0,6.83-3.06,6.83-6.83,0-3.76-3.06-6.82-6.83-6.82-3.76,0-6.82,3.06-6.82,6.82Zm12.05,0c0,2.89-2.34,5.23-5.23,5.23-2.88,0-5.22-2.34-5.22-5.23,0-2.88,2.34-5.22,5.22-5.22,2.89,0,5.23,2.34,5.23,5.22Z"/>
      </g>
      <g>
        <path class="cls-23" d="m502.79,155.44c-3.77,0-6.83,3.06-6.83,6.82,0,3.77,3.06,6.83,6.83,6.83,3.76,0,6.82-3.06,6.82-6.83,0-3.76-3.06-6.82-6.82-6.82Zm0,12.05c-2.89,0-5.23-2.34-5.23-5.23s2.34-5.22,5.23-5.22,5.22,2.34,5.22,5.22c0,2.89-2.34,5.23-5.22,5.23Z"/>
        <path class="cls-3" d="m514.83,169.05c3.77,0,6.83-3.06,6.83-6.82,0-3.77-3.06-6.83-6.83-6.83-3.76,0-6.82,3.06-6.82,6.83,0,3.76,3.06,6.82,6.82,6.82Zm0-12.05c2.89,0,5.23,2.34,5.23,5.23s-2.34,5.22-5.23,5.22c-2.88,0-5.22-2.34-5.22-5.22s2.34-5.23,5.22-5.23Z"/>
      </g>
      <g>
        <path class="cls-19" d="m501.31,170.53c0-3.77-3.06-6.83-6.82-6.83-3.77,0-6.83,3.06-6.83,6.83,0,3.76,3.06,6.82,6.83,6.82,3.76,0,6.82-3.06,6.82-6.82Zm-12.05,0c0-2.89,2.34-5.23,5.23-5.23,2.88,0,5.22,2.34,5.22,5.23,0,2.88-2.34,5.22-5.22,5.22-2.89,0-5.23-2.34-5.23-5.22Z"/>
        <path class="cls-3" d="m487.69,182.58c0,3.77,3.06,6.83,6.82,6.83,3.77,0,6.83-3.06,6.83-6.83,0-3.76-3.06-6.82-6.83-6.82-3.76,0-6.82,3.06-6.82,6.82Zm12.05,0c0,2.89-2.34,5.23-5.23,5.23-2.88,0-5.22-2.34-5.22-5.23,0-2.88,2.34-5.22,5.22-5.22,2.89,0,5.23,2.34,5.23,5.22Z"/>
      </g>
    </g>
    <g>
      <path class="cls-19" d="m313.02,437.35c3.77,0,6.83-3.06,6.83-6.82s-3.06-6.83-6.83-6.83c-3.76,0-6.82,3.06-6.82,6.83,0,3.76,3.06,6.82,6.82,6.82Zm0-1.6c-2.88,0-5.22-2.34-5.22-5.22s2.34-5.23,5.22-5.23,5.23,2.34,5.23,5.23-2.34,5.22-5.23,5.22Z"/>
      <path class="cls-3" d="m312.99,435.76c-3.77,0-6.83,3.06-6.83,6.82s3.06,6.83,6.83,6.83c3.76,0,6.82-3.06,6.82-6.83,0-3.76-3.06-6.82-6.82-6.82Zm0,1.6c2.88,0,5.22,2.34,5.22,5.22s-2.34,5.23-5.22,5.23-5.23-2.34-5.23-5.23c0-2.88,2.34-5.22,5.23-5.22Z"/>
    </g>
    <g>
      <path class="cls-23" d="m316.01,437.35c3.77,0,6.83-3.06,6.83-6.82s-3.06-6.83-6.83-6.83c-3.76,0-6.82,3.06-6.82,6.83,0,3.76,3.06,6.82,6.82,6.82Zm0-1.6c-2.88,0-5.22-2.34-5.22-5.22s2.34-5.23,5.22-5.23,5.23,2.34,5.23,5.23c0,2.88-2.34,5.22-5.23,5.22Z"/>
      <path class="cls-3" d="m315.98,435.76c-3.77,0-6.83,3.06-6.83,6.82s3.06,6.83,6.83,6.83c3.76,0,6.82-3.06,6.82-6.83,0-3.76-3.06-6.82-6.82-6.82Zm0,1.6c2.88,0,5.22,2.34,5.22,5.22s-2.34,5.23-5.22,5.23-5.23-2.34-5.23-5.23,2.34-5.22,5.23-5.22Z"/>
    </g>
    <g>
      <path class="cls-23" d="m244.83,539.05c3.77,0,6.83-3.06,6.83-6.82,0-3.77-3.06-6.83-6.83-6.83-3.76,0-6.82,3.06-6.82,6.83,0,3.76,3.06,6.82,6.82,6.82Zm0-12.05c2.89,0,5.23,2.34,5.23,5.23,0,2.88-2.34,5.22-5.23,5.22s-5.22-2.34-5.22-5.22c0-2.89,2.34-5.23,5.22-5.23Z"/>
      <path class="cls-3" d="m232.79,525.44c-3.77,0-6.83,3.06-6.83,6.82,0,3.77,3.06,6.83,6.83,6.83,3.76,0,6.82-3.06,6.82-6.83,0-3.76-3.06-6.82-6.82-6.82Zm0,12.05c-2.89,0-5.23-2.34-5.23-5.23,0-2.88,2.34-5.22,5.23-5.22,2.88,0,5.22,2.34,5.22,5.22,0,2.89-2.34,5.23-5.22,5.23Z"/>
    </g>
    <g>
      <path class="cls-3" d="m411.31,540.53c0-3.77-3.06-6.83-6.82-6.83-3.77,0-6.83,3.06-6.83,6.83,0,3.76,3.06,6.82,6.83,6.82,3.76,0,6.82-3.06,6.82-6.82Zm-12.05,0c0-2.89,2.34-5.23,5.23-5.23,2.88,0,5.22,2.34,5.22,5.23,0,2.88-2.34,5.22-5.22,5.22-2.89,0-5.23-2.34-5.23-5.22Z"/>
      <path class="cls-19" d="m397.69,552.58c0,3.77,3.06,6.83,6.82,6.83,3.77,0,6.83-3.06,6.83-6.83,0-3.76-3.06-6.82-6.83-6.82-3.76,0-6.82,3.06-6.82,6.82Zm12.05,0c0,2.89-2.34,5.23-5.23,5.23-2.88,0-5.22-2.34-5.22-5.23,0-2.88,2.34-5.22,5.22-5.22,2.89,0,5.23,2.34,5.23,5.22Z"/>
    </g>
    <g>
      <path class="cls-23" d="m424.83,539.05c3.77,0,6.83-3.06,6.83-6.82,0-3.77-3.06-6.83-6.83-6.83-3.76,0-6.82,3.06-6.82,6.83,0,3.76,3.06,6.82,6.82,6.82Zm0-12.05c2.89,0,5.23,2.34,5.23,5.23,0,2.88-2.34,5.22-5.23,5.22s-5.22-2.34-5.22-5.22c0-2.89,2.34-5.23,5.22-5.23Z"/>
      <path class="cls-3" d="m412.79,525.44c-3.77,0-6.83,3.06-6.83,6.82,0,3.77,3.06,6.83,6.83,6.83,3.76,0,6.82-3.06,6.82-6.83s-3.06-6.82-6.82-6.82Zm0,12.05c-2.89,0-5.23-2.34-5.23-5.23,0-2.88,2.34-5.22,5.23-5.22,2.88,0,5.22,2.34,5.22,5.22,0,2.89-2.34,5.23-5.22,5.23Z"/>
    </g>
    <g>
      <path class="cls-19" d="m204.17,525.44c-3.77,0-6.83,3.06-6.83,6.82,0,3.77,3.06,6.83,6.83,6.83,3.76,0,6.82-3.06,6.82-6.83,0-3.76-3.06-6.82-6.82-6.82Zm0,12.05c-2.89,0-5.23-2.34-5.23-5.23,0-2.88,2.34-5.22,5.23-5.22,2.88,0,5.22,2.34,5.22,5.22,0,2.89-2.34,5.23-5.22,5.23Z"/>
      <path class="cls-3" d="m216.21,539.05c3.77,0,6.83-3.06,6.83-6.82,0-3.77-3.06-6.83-6.83-6.83-3.76,0-6.82,3.06-6.82,6.83,0,3.76,3.06,6.82,6.82,6.82Zm0-12.05c2.89,0,5.23,2.34,5.23,5.23,0,2.88-2.34,5.22-5.23,5.22-2.88,0-5.22-2.34-5.22-5.22,0-2.89,2.34-5.23,5.22-5.23Z"/>
    </g>
    <g>
      <path class="cls-19" d="m312.99,545.76c-3.77,0-6.83,3.06-6.83,6.82s3.06,6.83,6.83,6.83c3.76,0,6.82-3.06,6.82-6.83,0-3.76-3.06-6.82-6.82-6.82Zm0,1.6c2.88,0,5.22,2.34,5.22,5.22s-2.34,5.23-5.22,5.23-5.23-2.34-5.23-5.23,2.34-5.22,5.23-5.22Z"/>
      <path class="cls-3" d="m313.02,547.35c3.77,0,6.83-3.06,6.83-6.82s-3.06-6.83-6.83-6.83c-3.76,0-6.82,3.06-6.82,6.83,0,3.76,3.06,6.82,6.82,6.82Zm0-1.6c-2.88,0-5.22-2.34-5.22-5.22s2.34-5.23,5.22-5.23,5.23,2.34,5.23,5.23-2.34,5.22-5.23,5.22Z"/>
    </g>
    <g>
      <path class="cls-23" d="m315.98,545.76c-3.77,0-6.83,3.06-6.83,6.82s3.06,6.83,6.83,6.83c3.76,0,6.82-3.06,6.82-6.83,0-3.76-3.06-6.82-6.82-6.82Zm0,1.6c2.88,0,5.22,2.34,5.22,5.22s-2.34,5.23-5.22,5.23-5.23-2.34-5.23-5.23,2.34-5.22,5.23-5.22Z"/>
      <path class="cls-3" d="m316.01,547.35c3.77,0,6.83-3.06,6.83-6.82s-3.06-6.83-6.83-6.83c-3.76,0-6.82,3.06-6.82,6.83,0,3.76,3.06,6.82,6.82,6.82Zm0-1.6c-2.88,0-5.22-2.34-5.22-5.22,0-2.89,2.34-5.23,5.22-5.23s5.23,2.34,5.23,5.23c0,2.88-2.34,5.22-5.23,5.22Z"/>
    </g>
    <g>
      <path class="cls-19" d="m499.81,70.53c0-3.77-3.06-6.83-6.82-6.83-3.77,0-6.83,3.06-6.83,6.83s3.06,6.82,6.83,6.82,6.82-3.06,6.82-6.82Zm-12.05,0c0-2.89,2.34-5.23,5.23-5.23s5.22,2.34,5.22,5.23-2.34,5.22-5.22,5.22-5.23-2.34-5.23-5.22Z"/>
      <path class="cls-3" d="m486.2,82.58c0,3.77,3.06,6.83,6.82,6.83,3.77,0,6.83-3.06,6.83-6.83s-3.06-6.82-6.83-6.82c-3.76,0-6.82,3.06-6.82,6.82Zm12.05,0c0,2.89-2.34,5.23-5.23,5.23s-5.22-2.34-5.22-5.23,2.34-5.22,5.22-5.22c2.89,0,5.23,2.34,5.23,5.22Z"/>
    </g>
    <g>
      <path class="cls-23" d="m502.8,70.53c0-3.77-3.06-6.83-6.82-6.83-3.77,0-6.83,3.06-6.83,6.83s3.06,6.82,6.83,6.82,6.82-3.06,6.82-6.82Zm-12.05,0c0-2.89,2.34-5.23,5.23-5.23s5.22,2.34,5.22,5.23-2.34,5.22-5.22,5.22-5.23-2.34-5.23-5.22Z"/>
      <path class="cls-3" d="m489.19,82.58c0,3.77,3.06,6.83,6.82,6.83,3.77,0,6.83-3.06,6.83-6.83s-3.06-6.82-6.83-6.82c-3.76,0-6.82,3.06-6.82,6.82Zm12.05,0c0,2.89-2.34,5.23-5.23,5.23s-5.22-2.34-5.22-5.23c0-2.88,2.34-5.22,5.22-5.22,2.89,0,5.23,2.34,5.23,5.22Z"/>
    </g>
    <g>
      <path class="cls-23" d="m232.79,625.44c-3.77,0-6.83,3.06-6.83,6.82s3.06,6.83,6.83,6.83c3.76,0,6.82-3.06,6.82-6.83,0-3.76-3.06-6.82-6.82-6.82Zm0,12.05c-2.89,0-5.23-2.34-5.23-5.23,0-2.88,2.34-5.22,5.23-5.22s5.22,2.34,5.22,5.22c0,2.89-2.34,5.23-5.22,5.23Z"/>
      <path class="cls-3" d="m244.83,639.05c3.77,0,6.83-3.06,6.83-6.82,0-3.77-3.06-6.83-6.83-6.83s-6.82,3.06-6.82,6.83c0,3.76,3.06,6.82,6.82,6.82Zm0-12.05c2.89,0,5.23,2.34,5.23,5.23,0,2.88-2.34,5.22-5.23,5.22-2.88,0-5.22-2.34-5.22-5.22,0-2.89,2.34-5.23,5.22-5.23Z"/>
    </g>
    <g>
      <path class="cls-3" d="m397.69,652.58c0,3.77,3.06,6.83,6.82,6.83,3.77,0,6.83-3.06,6.83-6.83,0-3.76-3.06-6.82-6.83-6.82-3.76,0-6.82,3.06-6.82,6.82Zm12.05,0c0,2.89-2.34,5.23-5.23,5.23s-5.22-2.34-5.22-5.23c0-2.88,2.34-5.22,5.22-5.22s5.23,2.34,5.23,5.22Z"/>
      <path class="cls-19" d="m411.31,640.53c0-3.77-3.06-6.83-6.82-6.83-3.77,0-6.83,3.06-6.83,6.83,0,3.76,3.06,6.82,6.83,6.82,3.76,0,6.82-3.06,6.82-6.82Zm-12.05,0c0-2.89,2.34-5.23,5.23-5.23,2.88,0,5.22,2.34,5.22,5.23,0,2.88-2.34,5.22-5.22,5.22-2.89,0-5.23-2.34-5.23-5.22Z"/>
    </g>
    <g>
      <path class="cls-23" d="m412.79,625.44c-3.77,0-6.83,3.06-6.83,6.82,0,3.77,3.06,6.83,6.83,6.83,3.76,0,6.82-3.06,6.82-6.83,0-3.76-3.06-6.82-6.82-6.82Zm0,12.05c-2.89,0-5.23-2.34-5.23-5.23s2.34-5.22,5.23-5.22c2.88,0,5.22,2.34,5.22,5.22s-2.34,5.23-5.22,5.23Z"/>
      <path class="cls-3" d="m424.83,639.05c3.77,0,6.83-3.06,6.83-6.82,0-3.77-3.06-6.83-6.83-6.83-3.76,0-6.82,3.06-6.82,6.83,0,3.76,3.06,6.82,6.82,6.82Zm0-12.05c2.89,0,5.23,2.34,5.23,5.23,0,2.88-2.34,5.22-5.23,5.22-2.88,0-5.22-2.34-5.22-5.22,0-2.89,2.34-5.23,5.22-5.23Z"/>
    </g>
    <g>
      <path class="cls-19" d="m216.21,639.05c3.77,0,6.83-3.06,6.83-6.82,0-3.77-3.06-6.83-6.83-6.83-3.76,0-6.82,3.06-6.82,6.83,0,3.76,3.06,6.82,6.82,6.82Zm0-12.05c2.89,0,5.23,2.34,5.23,5.23s-2.34,5.22-5.23,5.22c-2.88,0-5.22-2.34-5.22-5.22,0-2.89,2.34-5.23,5.22-5.23Z"/>
      <path class="cls-3" d="m204.17,625.44c-3.77,0-6.83,3.06-6.83,6.82,0,3.77,3.06,6.83,6.83,6.83,3.76,0,6.82-3.06,6.82-6.83,0-3.76-3.06-6.82-6.82-6.82Zm0,12.05c-2.89,0-5.23-2.34-5.23-5.23,0-2.88,2.34-5.22,5.23-5.22,2.88,0,5.22,2.34,5.22,5.22,0,2.89-2.34,5.23-5.22,5.23Z"/>
    </g>
    <g>
      <path class="cls-19" d="m313.02,647.35c3.77,0,6.83-3.06,6.83-6.82s-3.06-6.83-6.83-6.83c-3.76,0-6.82,3.06-6.82,6.83,0,3.76,3.06,6.82,6.82,6.82Zm0-1.6c-2.88,0-5.22-2.34-5.22-5.22s2.34-5.23,5.22-5.23,5.23,2.34,5.23,5.23-2.34,5.22-5.23,5.22Z"/>
      <path class="cls-3" d="m312.99,645.76c-3.77,0-6.83,3.06-6.83,6.82s3.06,6.83,6.83,6.83c3.76,0,6.82-3.06,6.82-6.83,0-3.76-3.06-6.82-6.82-6.82Zm0,1.6c2.88,0,5.22,2.34,5.22,5.22s-2.34,5.23-5.22,5.23-5.23-2.34-5.23-5.23c0-2.88,2.34-5.22,5.23-5.22Z"/>
    </g>
    <g>
      <path class="cls-23" d="m316.01,647.35c3.77,0,6.83-3.06,6.83-6.82s-3.06-6.83-6.83-6.83c-3.76,0-6.82,3.06-6.82,6.83,0,3.76,3.06,6.82,6.82,6.82Zm0-1.6c-2.88,0-5.22-2.34-5.22-5.22s2.34-5.23,5.22-5.23,5.23,2.34,5.23,5.23c0,2.88-2.34,5.22-5.23,5.22Z"/>
      <path class="cls-3" d="m315.98,645.76c-3.77,0-6.83,3.06-6.83,6.82s3.06,6.83,6.83,6.83c3.76,0,6.82-3.06,6.82-6.83,0-3.76-3.06-6.82-6.82-6.82Zm0,1.6c2.88,0,5.22,2.34,5.22,5.22s-2.34,5.23-5.22,5.23-5.23-2.34-5.23-5.23,2.34-5.22,5.23-5.22Z"/>
    </g>
    <g>
      <path class="cls-23" d="m244.83,739.05c3.77,0,6.83-3.06,6.83-6.82,0-3.77-3.06-6.83-6.83-6.83-3.76,0-6.82,3.06-6.82,6.83,0,3.76,3.06,6.82,6.82,6.82Zm0-12.05c2.89,0,5.23,2.34,5.23,5.23,0,2.88-2.34,5.22-5.23,5.22s-5.22-2.34-5.22-5.22c0-2.89,2.34-5.23,5.22-5.23Z"/>
      <path class="cls-3" d="m232.79,725.44c-3.77,0-6.83,3.06-6.83,6.82,0,3.77,3.06,6.83,6.83,6.83,3.76,0,6.82-3.06,6.82-6.83,0-3.76-3.06-6.82-6.82-6.82Zm0,12.05c-2.89,0-5.23-2.34-5.23-5.23,0-2.88,2.34-5.22,5.23-5.22,2.88,0,5.22,2.34,5.22,5.22,0,2.89-2.34,5.23-5.22,5.23Z"/>
    </g>
    <g>
      <path class="cls-3" d="m397.69,752.58c0,3.77,3.06,6.83,6.82,6.83,3.77,0,6.83-3.06,6.83-6.83,0-3.76-3.06-6.82-6.83-6.82-3.76,0-6.82,3.06-6.82,6.82Zm12.05,0c0,2.89-2.34,5.23-5.23,5.23s-5.22-2.34-5.22-5.23c0-2.88,2.34-5.22,5.22-5.22s5.23,2.34,5.23,5.22Z"/>
      <path class="cls-19" d="m411.31,740.53c0-3.77-3.06-6.83-6.82-6.83-3.77,0-6.83,3.06-6.83,6.83,0,3.76,3.06,6.82,6.83,6.82,3.76,0,6.82-3.06,6.82-6.82Zm-12.05,0c0-2.89,2.34-5.23,5.23-5.23,2.88,0,5.22,2.34,5.22,5.23,0,2.88-2.34,5.22-5.22,5.22-2.89,0-5.23-2.34-5.23-5.22Z"/>
    </g>
    <g>
      <path class="cls-23" d="m424.83,739.05c3.77,0,6.83-3.06,6.83-6.82,0-3.77-3.06-6.83-6.83-6.83-3.76,0-6.82,3.06-6.82,6.83,0,3.76,3.06,6.82,6.82,6.82Zm0-12.05c2.89,0,5.23,2.34,5.23,5.23,0,2.88-2.34,5.22-5.23,5.22s-5.22-2.34-5.22-5.22c0-2.89,2.34-5.23,5.22-5.23Z"/>
      <path class="cls-3" d="m412.79,725.44c-3.77,0-6.83,3.06-6.83,6.82,0,3.77,3.06,6.83,6.83,6.83,3.76,0,6.82-3.06,6.82-6.83s-3.06-6.82-6.82-6.82Zm0,12.05c-2.89,0-5.23-2.34-5.23-5.23,0-2.88,2.34-5.22,5.23-5.22,2.88,0,5.22,2.34,5.22,5.22,0,2.89-2.34,5.23-5.22,5.23Z"/>
    </g>
    <g>
      <path class="cls-19" d="m216.21,739.05c3.77,0,6.83-3.06,6.83-6.82,0-3.77-3.06-6.83-6.83-6.83-3.76,0-6.82,3.06-6.82,6.83,0,3.76,3.06,6.82,6.82,6.82Zm0-12.05c2.89,0,5.23,2.34,5.23,5.23s-2.34,5.22-5.23,5.22c-2.88,0-5.22-2.34-5.22-5.22,0-2.89,2.34-5.23,5.22-5.23Z"/>
      <path class="cls-3" d="m204.17,725.44c-3.77,0-6.83,3.06-6.83,6.82,0,3.77,3.06,6.83,6.83,6.83,3.76,0,6.82-3.06,6.82-6.83,0-3.76-3.06-6.82-6.82-6.82Zm0,12.05c-2.89,0-5.23-2.34-5.23-5.23,0-2.88,2.34-5.22,5.23-5.22,2.88,0,5.22,2.34,5.22,5.22,0,2.89-2.34,5.23-5.22,5.23Z"/>
    </g>
    <g>
      <path class="cls-19" d="m314.5,747.35c3.77,0,6.83-3.06,6.83-6.82s-3.06-6.83-6.83-6.83c-3.76,0-6.82,3.06-6.82,6.83,0,3.76,3.06,6.82,6.82,6.82Zm0-1.6c-2.88,0-5.22-2.34-5.22-5.22s2.34-5.23,5.22-5.23,5.23,2.34,5.23,5.23-2.34,5.22-5.23,5.22Z"/>
      <path class="cls-23" d="m314.48,745.76c-3.77,0-6.83,3.06-6.83,6.82s3.06,6.83,6.83,6.83c3.76,0,6.82-3.06,6.82-6.83,0-3.76-3.06-6.82-6.82-6.82Zm0,1.6c2.88,0,5.22,2.34,5.22,5.22,0,2.89-2.34,5.23-5.22,5.23s-5.23-2.34-5.23-5.23,2.34-5.22,5.23-5.22Z"/>
    </g>
  </g>
  <text class="cls-12" transform="translate(231.45 340.79)"><tspan x="0" y="0">Phi</tspan></text>
  <text class="cls-12" transform="translate(321.79 340.79)"><tspan x="0" y="0">Psi</tspan></text>
  <text class="cls-12" transform="translate(412.9 340.78)"><tspan x="0" y="0">Lambda</tspan></text>
</svg>