<?xml version="1.0" encoding="UTF-8"?>
<svg id="Layer_1" data-name="Layer 1" xmlns="http://www.w3.org/2000/svg" viewBox="0 0 612 792">
  <defs>
    <style>
      .cls-1 {
        letter-spacing: -.08em;
      }

      .cls-2 {
        letter-spacing: 0em;
      }

      .cls-3 {
        letter-spacing: -.02em;
      }

      .cls-4, .cls-5 {
        fill: none;
        stroke: #000;
        stroke-miterlimit: 10;
      }

      .cls-6 {
        letter-spacing: -.01em;
      }

      .cls-7, .cls-8, .cls-9, .cls-10, .cls-11, .cls-12 {
        fill: #231f20;
      }

      .cls-7, .cls-10 {
        font-size: 14px;
      }

      .cls-7, .cls-11 {
        font-family: Cambria-Italic, Cambria;
        font-style: italic;
      }

      .cls-13 {
        letter-spacing: -.07em;
      }

      .cls-8 {
        font-size: 20px;
      }

      .cls-8, .cls-9 {
        font-family: MonotypeCorsiva, 'Monotype Corsiva';
      }

      .cls-9 {
        font-size: 40px;
      }

      .cls-14 {
        font-family: Cambria-Bold, Cambria;
        font-weight: 700;
      }

      .cls-15 {
        fill: #2e3192;
      }

      .cls-16 {
        letter-spacing: 0em;
      }

      .cls-5 {
        stroke-width: 2px;
      }

      .cls-17 {
        letter-spacing: 0em;
      }

      .cls-18 {
        letter-spacing: -.02em;
      }

      .cls-19 {
        letter-spacing: -.01em;
      }

      .cls-20 {
        letter-spacing: -.02em;
      }

      .cls-21 {
        fill: #ed1c24;
      }

      .cls-11 {
        font-size: 12px;
      }

      .cls-22 {
        letter-spacing: 0em;
      }

      .cls-23 {
        letter-spacing: .01em;
      }

      .cls-24 {
        letter-spacing: -.03em;
      }

      .cls-25 {
        letter-spacing: -.01em;
      }

      .cls-26 {
        letter-spacing: -.01em;
      }

      .cls-27 {
        font-family: Cambria, Cambria;
      }

      .cls-28 {
        letter-spacing: -.02em;
      }

      .cls-29 {
        letter-spacing: -.02em;
      }
    </style>
  </defs>
  <text/>
  <text class="cls-10" transform="translate(39.12 92.07)"><tspan class="cls-27"><tspan x="0" y="0">Since each shift is 1/4 of a </tspan><tspan class="cls-26" x="158.18" y="0">r</tspan><tspan x="163.76" y="0">otation, a 4 let</tspan><tspan class="cls-16" x="248.71" y="0">t</tspan><tspan x="253.33" y="0">er </tspan><tspan class="cls-25" x="269.03" y="0">w</tspan><tspan x="279.69" y="0">o</tspan><tspan class="cls-26" x="287.12" y="0">r</tspan><tspan x="292.71" y="0">d can bring </tspan><tspan class="cls-20" x="362.62" y="0">y</tspan><tspan x="369.4" y="0">ou back </tspan><tspan class="cls-16" x="418.74" y="0">t</tspan><tspan x="423.36" y="0">o starting position. </tspan></tspan><tspan class="cls-27"><tspan x="81.53" y="16.8">The first </tspan><tspan class="cls-25" x="135.22" y="16.8">w</tspan><tspan x="145.89" y="16.8">o</tspan><tspan class="cls-26" x="153.32" y="16.8">r</tspan><tspan x="158.9" y="16.8">ds </tspan><tspan class="cls-25" x="175.77" y="16.8">w</tspan><tspan x="186.43" y="16.8">e will learn cor</tspan><tspan class="cls-26" x="275.3" y="16.8">r</tspan><tspan x="280.89" y="16.8">espond </tspan><tspan class="cls-16" x="327.61" y="16.8">t</tspan><tspan x="332.23" y="16.8">o V</tspan><tspan class="cls-19" x="351.19" y="16.8">T</tspan><tspan class="cls-22" x="359.3" y="16.8">G</tspan><tspan x="367.71" y="16.8">’s 1:1 motions.</tspan></tspan><tspan class="cls-27"><tspan class="cls-1" x="60.63" y="33.6">T</tspan><tspan x="67.8" y="33.6">o </tspan><tspan class="cls-6" x="78.31" y="33.6">e</tspan><tspan class="cls-29" x="84.98" y="33.6">x</tspan><tspan x="91.44" y="33.6">ecu</tspan><tspan class="cls-16" x="112.17" y="33.6">t</tspan><tspan x="116.79" y="33.6">e these, </tspan><tspan class="cls-20" x="164.79" y="33.6">y</tspan><tspan x="171.57" y="33.6">ou’ll need </tspan><tspan class="cls-16" x="232.83" y="33.6">t</tspan><tspan x="237.45" y="33.6">o use bo</tspan><tspan class="cls-28" x="286.71" y="33.6">d</tspan><tspan x="294.2" y="33.6">y turns and/or ne</tspan><tspan class="cls-17" x="399.73" y="33.6">g</tspan><tspan x="406.53" y="33.6">at</tspan><tspan class="cls-28" x="418.11" y="33.6">i</tspan><tspan class="cls-20" x="421.72" y="33.6">v</tspan><tspan x="428.5" y="33.6">e space. </tspan></tspan><tspan class="cls-14"><tspan x="11.74" y="67.2">P</tspan><tspan class="cls-3" x="20.33" y="67.2">r</tspan><tspan x="26.55" y="67.2">acti</tspan><tspan class="cls-2" x="50.12" y="67.2">c</tspan><tspan x="56.6" y="67.2">e each </tspan><tspan class="cls-18" x="100.03" y="67.2">w</tspan><tspan x="110.87" y="67.2">o</tspan><tspan class="cls-26" x="118.84" y="67.2">r</tspan><tspan x="125.09" y="67.2">d on</tspan><tspan class="cls-2" x="152.96" y="67.2">c</tspan><tspan x="159.43" y="67.2">e in both di</tspan><tspan class="cls-26" x="231.44" y="67.2">r</tspan><tspan x="237.7" y="67.2">ections, then a</tspan><tspan class="cls-17" x="330.3" y="67.2">g</tspan><tspan x="337.47" y="67.2">ain starting with thumbs ou</tspan><tspan class="cls-23" x="515.25" y="67.2">t</tspan><tspan x="520.57" y="67.2">. </tspan></tspan></text>
  <line class="cls-4" x1="141.94" y1="272.48" x2="476.58" y2="272.48"/>
  <line class="cls-4" x1="141.94" y1="372.48" x2="476.58" y2="372.48"/>
  <line class="cls-5" x1="44.64" y1="470.09" x2="569.15" y2="470.09"/>
  <line class="cls-4" x1="141.94" y1="572.48" x2="476.58" y2="572.48"/>
  <line class="cls-4" x1="141.94" y1="672.48" x2="476.58" y2="672.48"/>
  <path class="cls-21" d="m178.8,186.57c11.89,0,22.68,9.57,22.72,21.38l2.41-2.65s1.11,1.01.54,1.85c-.65.95-3.93,4.08-3.93,4.08,0,0-3.32-2.66-4.21-3.8-.63-.81.43-1.89.43-1.89l2.78,2.61c-.03-8.93-7.32-18.79-20.74-19.5-1.57-.08-1.62-2.09,0-2.08Z"/>
  <path class="cls-15" d="m169.35,243.05c-11.89,0-22.68-9.57-22.72-21.38l-2.41,2.65s-1.11-1.01-.54-1.85c.65-.95,3.93-4.08,3.93-4.08,0,0,3.32,2.66,4.21,3.8.63.81-.43,1.89-.43,1.89l-2.78-2.61c.03,8.93,7.32,18.79,20.74,19.5,1.57.08,1.62,2.09,0,2.08Z"/>
  <path class="cls-21" d="m292.32,219.54c0,11.89-9.57,22.68-21.38,22.72l2.65,2.41s-1.01,1.11-1.85.54c-.95-.65-4.08-3.93-4.08-3.93,0,0,2.66-3.32,3.8-4.21.81-.63,1.89.43,1.89.43l-2.61,2.78c8.93-.03,18.79-7.32,19.5-20.74.08-1.57,2.09-1.62,2.08,0Z"/>
  <path class="cls-15" d="m235.83,210.08c0-11.89,9.57-22.68,21.38-22.72l-2.65-2.41s1.01-1.11,1.85-.54c.95.65,4.08,3.93,4.08,3.93,0,0-2.66,3.32-3.8,4.21-.81.63-1.89-.43-1.89-.43l2.61-2.78c-8.93.03-18.79,7.32-19.5,20.74-.08,1.57-2.09,1.62-2.08,0Z"/>
  <path class="cls-21" d="m349.35,243.05c-11.89,0-22.68-9.57-22.72-21.38l-2.41,2.65s-1.11-1.01-.54-1.85c.65-.95,3.93-4.08,3.93-4.08,0,0,3.32,2.66,4.21,3.8.63.81-.43,1.89-.43,1.89l-2.78-2.61c.03,8.93,7.32,18.79,20.74,19.5,1.57.08,1.62,2.09,0,2.08Z"/>
  <path class="cls-15" d="m358.8,186.57c11.89,0,22.68,9.57,22.72,21.38l2.41-2.65s1.11,1.01.54,1.85c-.65.95-3.93,4.08-3.93,4.08,0,0-3.32-2.66-4.21-3.8-.63-.81.43-1.89.43-1.89l2.78,2.61c-.03-8.93-7.32-18.79-20.74-19.5-1.57-.08-1.62-2.09,0-2.08Z"/>
  <path class="cls-21" d="m415.83,210.08c0-11.89,9.57-22.68,21.38-22.72l-2.65-2.41s1.01-1.11,1.85-.54c.95.65,4.08,3.93,4.08,3.93,0,0-2.66,3.32-3.8,4.21-.81.63-1.89-.43-1.89-.43l2.61-2.78c-8.93.03-18.79,7.32-19.5,20.74-.08,1.57-2.09,1.62-2.08,0Z"/>
  <path class="cls-15" d="m472.32,219.54c0,11.89-9.57,22.68-21.38,22.72l2.65,2.41s-1.01,1.11-1.85.54c-.95-.65-4.08-3.93-4.08-3.93,0,0,2.66-3.32,3.8-4.21.81-.63,1.89.43,1.89.43l-2.61,2.78c8.93-.03,18.79-7.32,19.5-20.74.08-1.57,2.09-1.62,2.08,0Z"/>
  <g>
    <path class="cls-12" d="m204.15,217.31c3.23,0,3.23-5,0-5s-3.23,5,0,5h0Z"/>
    <path class="cls-12" d="m174.08,187.31c3.23,0,3.23-5,0-5s-3.23,5,0,5h0Z"/>
    <path class="cls-12" d="m144,217.31c3.23,0,3.23-5,0-5s-3.23,5,0,5h0Z"/>
    <path class="cls-12" d="m174.08,247.31c3.23,0,3.23-5,0-5s-3.23,5,0,5h0Z"/>
    <path class="cls-12" d="m174.08,215.94c1.45,0,1.45-2.25,0-2.25s-1.45,2.25,0,2.25h0Z"/>
  </g>
  <g>
    <path class="cls-12" d="m294.15,217.31c3.23,0,3.23-5,0-5s-3.23,5,0,5h0Z"/>
    <path class="cls-12" d="m264.08,187.31c3.23,0,3.23-5,0-5s-3.23,5,0,5h0Z"/>
    <path class="cls-12" d="m234,217.31c3.23,0,3.23-5,0-5s-3.23,5,0,5h0Z"/>
    <path class="cls-12" d="m264.08,247.31c3.23,0,3.23-5,0-5s-3.23,5,0,5h0Z"/>
    <path class="cls-12" d="m264.08,215.94c1.45,0,1.45-2.25,0-2.25s-1.45,2.25,0,2.25h0Z"/>
  </g>
  <g>
    <path class="cls-12" d="m384.15,217.31c3.23,0,3.23-5,0-5s-3.23,5,0,5h0Z"/>
    <path class="cls-12" d="m354.08,187.31c3.23,0,3.23-5,0-5s-3.23,5,0,5h0Z"/>
    <path class="cls-12" d="m324,217.31c3.23,0,3.23-5,0-5s-3.23,5,0,5h0Z"/>
    <path class="cls-12" d="m354.08,247.31c3.23,0,3.23-5,0-5s-3.23,5,0,5h0Z"/>
    <path class="cls-12" d="m354.08,215.94c1.45,0,1.45-2.25,0-2.25s-1.45,2.25,0,2.25h0Z"/>
  </g>
  <g>
    <path class="cls-12" d="m474.15,217.31c3.23,0,3.23-5,0-5s-3.23,5,0,5h0Z"/>
    <path class="cls-12" d="m444.08,187.31c3.23,0,3.23-5,0-5s-3.23,5,0,5h0Z"/>
    <path class="cls-12" d="m414,217.31c3.23,0,3.23-5,0-5s-3.23,5,0,5h0Z"/>
    <path class="cls-12" d="m444.08,247.31c3.23,0,3.23-5,0-5s-3.23,5,0,5h0Z"/>
    <path class="cls-12" d="m444.08,215.94c1.45,0,1.45-2.25,0-2.25s-1.45,2.25,0,2.25h0Z"/>
  </g>
  <g>
    <path class="cls-12" d="m204.15,317.31c3.23,0,3.23-5,0-5s-3.23,5,0,5h0Z"/>
    <path class="cls-12" d="m174.08,287.31c3.23,0,3.23-5,0-5s-3.23,5,0,5h0Z"/>
    <path class="cls-12" d="m144,317.31c3.23,0,3.23-5,0-5s-3.23,5,0,5h0Z"/>
    <path class="cls-12" d="m174.08,347.31c3.23,0,3.23-5,0-5s-3.23,5,0,5h0Z"/>
    <path class="cls-12" d="m174.08,315.94c1.45,0,1.45-2.25,0-2.25s-1.45,2.25,0,2.25h0Z"/>
  </g>
  <g>
    <path class="cls-12" d="m294.15,317.31c3.23,0,3.23-5,0-5s-3.23,5,0,5h0Z"/>
    <path class="cls-12" d="m264.08,287.31c3.23,0,3.23-5,0-5s-3.23,5,0,5h0Z"/>
    <path class="cls-12" d="m234,317.31c3.23,0,3.23-5,0-5s-3.23,5,0,5h0Z"/>
    <path class="cls-12" d="m264.08,347.31c3.23,0,3.23-5,0-5s-3.23,5,0,5h0Z"/>
    <path class="cls-12" d="m264.08,315.94c1.45,0,1.45-2.25,0-2.25s-1.45,2.25,0,2.25h0Z"/>
  </g>
  <g>
    <path class="cls-12" d="m384.15,317.31c3.23,0,3.23-5,0-5s-3.23,5,0,5h0Z"/>
    <path class="cls-12" d="m354.08,287.31c3.23,0,3.23-5,0-5s-3.23,5,0,5h0Z"/>
    <path class="cls-12" d="m324,317.31c3.23,0,3.23-5,0-5s-3.23,5,0,5h0Z"/>
    <path class="cls-12" d="m354.08,347.31c3.23,0,3.23-5,0-5s-3.23,5,0,5h0Z"/>
    <path class="cls-12" d="m354.08,315.94c1.45,0,1.45-2.25,0-2.25s-1.45,2.25,0,2.25h0Z"/>
  </g>
  <g>
    <path class="cls-12" d="m474.15,317.31c3.23,0,3.23-5,0-5s-3.23,5,0,5h0Z"/>
    <path class="cls-12" d="m444.08,287.31c3.23,0,3.23-5,0-5s-3.23,5,0,5h0Z"/>
    <path class="cls-12" d="m414,317.31c3.23,0,3.23-5,0-5s-3.23,5,0,5h0Z"/>
    <path class="cls-12" d="m444.08,347.31c3.23,0,3.23-5,0-5s-3.23,5,0,5h0Z"/>
    <path class="cls-12" d="m444.08,315.94c1.45,0,1.45-2.25,0-2.25s-1.45,2.25,0,2.25h0Z"/>
  </g>
  <g>
    <g>
      <path class="cls-12" d="m204.15,417.31c3.23,0,3.23-5,0-5s-3.23,5,0,5h0Z"/>
      <path class="cls-12" d="m174.08,387.31c3.23,0,3.23-5,0-5s-3.23,5,0,5h0Z"/>
      <path class="cls-12" d="m144,417.31c3.23,0,3.23-5,0-5s-3.23,5,0,5h0Z"/>
      <path class="cls-12" d="m174.08,447.31c3.23,0,3.23-5,0-5s-3.23,5,0,5h0Z"/>
      <path class="cls-12" d="m174.08,415.94c1.45,0,1.45-2.25,0-2.25s-1.45,2.25,0,2.25h0Z"/>
    </g>
    <g>
      <path class="cls-12" d="m294.15,417.31c3.23,0,3.23-5,0-5s-3.23,5,0,5h0Z"/>
      <path class="cls-12" d="m264.08,387.31c3.23,0,3.23-5,0-5s-3.23,5,0,5h0Z"/>
      <path class="cls-12" d="m234,417.31c3.23,0,3.23-5,0-5s-3.23,5,0,5h0Z"/>
      <path class="cls-12" d="m264.08,447.31c3.23,0,3.23-5,0-5s-3.23,5,0,5h0Z"/>
      <path class="cls-12" d="m264.08,415.94c1.45,0,1.45-2.25,0-2.25s-1.45,2.25,0,2.25h0Z"/>
    </g>
    <g>
      <path class="cls-12" d="m384.15,417.31c3.23,0,3.23-5,0-5s-3.23,5,0,5h0Z"/>
      <path class="cls-12" d="m354.08,387.31c3.23,0,3.23-5,0-5s-3.23,5,0,5h0Z"/>
      <path class="cls-12" d="m324,417.31c3.23,0,3.23-5,0-5s-3.23,5,0,5h0Z"/>
      <path class="cls-12" d="m354.08,447.31c3.23,0,3.23-5,0-5s-3.23,5,0,5h0Z"/>
      <path class="cls-12" d="m354.08,415.94c1.45,0,1.45-2.25,0-2.25s-1.45,2.25,0,2.25h0Z"/>
    </g>
    <g>
      <path class="cls-12" d="m474.15,417.31c3.23,0,3.23-5,0-5s-3.23,5,0,5h0Z"/>
      <path class="cls-12" d="m444.08,387.31c3.23,0,3.23-5,0-5s-3.23,5,0,5h0Z"/>
      <path class="cls-12" d="m414,417.31c3.23,0,3.23-5,0-5s-3.23,5,0,5h0Z"/>
      <path class="cls-12" d="m444.08,447.31c3.23,0,3.23-5,0-5s-3.23,5,0,5h0Z"/>
      <path class="cls-12" d="m444.08,415.94c1.45,0,1.45-2.25,0-2.25s-1.45,2.25,0,2.25h0Z"/>
    </g>
  </g>
  <g>
    <path class="cls-12" d="m204.15,717.31c3.23,0,3.23-5,0-5s-3.23,5,0,5h0Z"/>
    <path class="cls-12" d="m174.08,687.31c3.23,0,3.23-5,0-5s-3.23,5,0,5h0Z"/>
    <path class="cls-12" d="m144,717.31c3.23,0,3.23-5,0-5s-3.23,5,0,5h0Z"/>
    <path class="cls-12" d="m174.08,747.31c3.23,0,3.23-5,0-5s-3.23,5,0,5h0Z"/>
    <path class="cls-12" d="m174.08,715.94c1.45,0,1.45-2.25,0-2.25s-1.45,2.25,0,2.25h0Z"/>
  </g>
  <g>
    <path class="cls-12" d="m294.15,717.31c3.23,0,3.23-5,0-5s-3.23,5,0,5h0Z"/>
    <path class="cls-12" d="m264.08,687.31c3.23,0,3.23-5,0-5s-3.23,5,0,5h0Z"/>
    <path class="cls-12" d="m234,717.31c3.23,0,3.23-5,0-5s-3.23,5,0,5h0Z"/>
    <path class="cls-12" d="m264.08,747.31c3.23,0,3.23-5,0-5s-3.23,5,0,5h0Z"/>
    <path class="cls-12" d="m264.08,715.94c1.45,0,1.45-2.25,0-2.25s-1.45,2.25,0,2.25h0Z"/>
  </g>
  <g>
    <path class="cls-12" d="m384.15,717.31c3.23,0,3.23-5,0-5s-3.23,5,0,5h0Z"/>
    <path class="cls-12" d="m354.08,687.31c3.23,0,3.23-5,0-5s-3.23,5,0,5h0Z"/>
    <path class="cls-12" d="m324,717.31c3.23,0,3.23-5,0-5s-3.23,5,0,5h0Z"/>
    <path class="cls-12" d="m354.08,747.31c3.23,0,3.23-5,0-5s-3.23,5,0,5h0Z"/>
    <path class="cls-12" d="m354.08,715.94c1.45,0,1.45-2.25,0-2.25s-1.45,2.25,0,2.25h0Z"/>
  </g>
  <g>
    <path class="cls-12" d="m474.15,717.31c3.23,0,3.23-5,0-5s-3.23,5,0,5h0Z"/>
    <path class="cls-12" d="m444.08,687.31c3.23,0,3.23-5,0-5s-3.23,5,0,5h0Z"/>
    <path class="cls-12" d="m414,717.31c3.23,0,3.23-5,0-5s-3.23,5,0,5h0Z"/>
    <path class="cls-12" d="m444.08,747.31c3.23,0,3.23-5,0-5s-3.23,5,0,5h0Z"/>
    <path class="cls-12" d="m444.08,715.94c1.45,0,1.45-2.25,0-2.25s-1.45,2.25,0,2.25h0Z"/>
  </g>
  <g>
    <path class="cls-12" d="m204.15,617.31c3.23,0,3.23-5,0-5s-3.23,5,0,5h0Z"/>
    <path class="cls-12" d="m174.08,587.31c3.23,0,3.23-5,0-5s-3.23,5,0,5h0Z"/>
    <path class="cls-12" d="m144,617.31c3.23,0,3.23-5,0-5s-3.23,5,0,5h0Z"/>
    <path class="cls-12" d="m174.08,647.31c3.23,0,3.23-5,0-5s-3.23,5,0,5h0Z"/>
    <path class="cls-12" d="m174.08,615.94c1.45,0,1.45-2.25,0-2.25s-1.45,2.25,0,2.25h0Z"/>
  </g>
  <g>
    <path class="cls-12" d="m294.15,617.31c3.23,0,3.23-5,0-5s-3.23,5,0,5h0Z"/>
    <path class="cls-12" d="m264.08,587.31c3.23,0,3.23-5,0-5s-3.23,5,0,5h0Z"/>
    <path class="cls-12" d="m234,617.31c3.23,0,3.23-5,0-5s-3.23,5,0,5h0Z"/>
    <path class="cls-12" d="m264.08,647.31c3.23,0,3.23-5,0-5s-3.23,5,0,5h0Z"/>
    <path class="cls-12" d="m264.08,615.94c1.45,0,1.45-2.25,0-2.25s-1.45,2.25,0,2.25h0Z"/>
  </g>
  <g>
    <path class="cls-12" d="m384.15,617.31c3.23,0,3.23-5,0-5s-3.23,5,0,5h0Z"/>
    <path class="cls-12" d="m354.08,587.31c3.23,0,3.23-5,0-5s-3.23,5,0,5h0Z"/>
    <path class="cls-12" d="m324,617.31c3.23,0,3.23-5,0-5s-3.23,5,0,5h0Z"/>
    <path class="cls-12" d="m354.08,647.31c3.23,0,3.23-5,0-5s-3.23,5,0,5h0Z"/>
    <path class="cls-12" d="m354.08,615.94c1.45,0,1.45-2.25,0-2.25s-1.45,2.25,0,2.25h0Z"/>
  </g>
  <g>
    <path class="cls-12" d="m474.15,617.31c3.23,0,3.23-5,0-5s-3.23,5,0,5h0Z"/>
    <path class="cls-12" d="m444.08,587.31c3.23,0,3.23-5,0-5s-3.23,5,0,5h0Z"/>
    <path class="cls-12" d="m414,617.31c3.23,0,3.23-5,0-5s-3.23,5,0,5h0Z"/>
    <path class="cls-12" d="m444.08,647.31c3.23,0,3.23-5,0-5s-3.23,5,0,5h0Z"/>
    <path class="cls-12" d="m444.08,615.94c1.45,0,1.45-2.25,0-2.25s-1.45,2.25,0,2.25h0Z"/>
  </g>
  <g>
    <path class="cls-12" d="m204.15,517.31c3.23,0,3.23-5,0-5s-3.23,5,0,5h0Z"/>
    <path class="cls-12" d="m174.08,487.31c3.23,0,3.23-5,0-5s-3.23,5,0,5h0Z"/>
    <path class="cls-12" d="m144,517.31c3.23,0,3.23-5,0-5s-3.23,5,0,5h0Z"/>
    <path class="cls-12" d="m174.08,547.31c3.23,0,3.23-5,0-5s-3.23,5,0,5h0Z"/>
    <path class="cls-12" d="m174.08,515.94c1.45,0,1.45-2.25,0-2.25s-1.45,2.25,0,2.25h0Z"/>
  </g>
  <g>
    <path class="cls-12" d="m294.15,517.31c3.23,0,3.23-5,0-5s-3.23,5,0,5h0Z"/>
    <path class="cls-12" d="m264.08,487.31c3.23,0,3.23-5,0-5s-3.23,5,0,5h0Z"/>
    <path class="cls-12" d="m234,517.31c3.23,0,3.23-5,0-5s-3.23,5,0,5h0Z"/>
    <path class="cls-12" d="m264.08,547.31c3.23,0,3.23-5,0-5s-3.23,5,0,5h0Z"/>
    <path class="cls-12" d="m264.08,515.94c1.45,0,1.45-2.25,0-2.25s-1.45,2.25,0,2.25h0Z"/>
  </g>
  <g>
    <path class="cls-12" d="m384.15,517.31c3.23,0,3.23-5,0-5s-3.23,5,0,5h0Z"/>
    <path class="cls-12" d="m354.08,487.31c3.23,0,3.23-5,0-5s-3.23,5,0,5h0Z"/>
    <path class="cls-12" d="m324,517.31c3.23,0,3.23-5,0-5s-3.23,5,0,5h0Z"/>
    <path class="cls-12" d="m354.08,547.31c3.23,0,3.23-5,0-5s-3.23,5,0,5h0Z"/>
    <path class="cls-12" d="m354.08,515.94c1.45,0,1.45-2.25,0-2.25s-1.45,2.25,0,2.25h0Z"/>
  </g>
  <g>
    <path class="cls-12" d="m474.15,517.31c3.23,0,3.23-5,0-5s-3.23,5,0,5h0Z"/>
    <path class="cls-12" d="m444.08,487.31c3.23,0,3.23-5,0-5s-3.23,5,0,5h0Z"/>
    <path class="cls-12" d="m414,517.31c3.23,0,3.23-5,0-5s-3.23,5,0,5h0Z"/>
    <path class="cls-12" d="m444.08,547.31c3.23,0,3.23-5,0-5s-3.23,5,0,5h0Z"/>
    <path class="cls-12" d="m444.08,515.94c1.45,0,1.45-2.25,0-2.25s-1.45,2.25,0,2.25h0Z"/>
  </g>
  <path class="cls-21" d="m180.5,285.36c0,19.4,1.3,21.27,20.15,21.27l-2.72,2.66s1.04,1.1,1.87.5c1.18-.85,3.95-4.08,3.95-4.08,0,0-3.01-3.38-3.95-4.07-.82-.6-1.87.48-1.87.48l2.72,2.56c-17.27,0-18.08-1-18.08-19.29,0-1.51-2.07-1.51-2.07-.03Z"/>
  <path class="cls-15" d="m167.65,344.27c0-19.4-1.3-21.27-20.15-21.27l2.72-2.66s-1.04-1.1-1.87-.5c-1.18.85-3.95,4.08-3.95,4.08,0,0,3.01,3.38,3.95,4.07.82.6,1.87-.48,1.87-.48l-2.72-2.56c17.27,0,18.08,1,18.08,19.29,0,1.51,2.07,1.51,2.07.03Z"/>
  <path class="cls-21" d="m293.53,321.23c-19.4,0-21.27,1.3-21.27,20.15l-2.66-2.72s-1.1,1.04-.5,1.87c.85,1.18,4.08,3.95,4.08,3.95,0,0,3.38-3.01,4.07-3.95.6-.82-.48-1.87-.48-1.87l-2.56,2.72c0-17.27,1-18.08,19.29-18.08,1.51,0,1.51-2.07.03-2.07Z"/>
  <path class="cls-15" d="m234.62,308.39c19.4,0,21.27-1.3,21.27-20.15l2.66,2.72s1.1-1.04.5-1.87c-.85-1.18-4.08-3.95-4.08-3.95,0,0-3.38,3.01-4.07,3.95-.6.82.48,1.87.48,1.87l2.56-2.72c0,17.27-1,18.08-19.29,18.08-1.51,0-1.51,2.07-.03,2.07Z"/>
  <path class="cls-21" d="m347.65,344.27c0-19.4-1.3-21.27-20.15-21.27l2.72-2.66s-1.04-1.1-1.87-.5c-1.18.85-3.95,4.08-3.95,4.08,0,0,3.01,3.38,3.95,4.07.82.6,1.87-.48,1.87-.48l-2.72-2.56c17.27,0,18.08,1,18.08,19.29,0,1.51,2.07,1.51,2.07.03Z"/>
  <path class="cls-15" d="m360.5,285.36c0,19.4,1.3,21.27,20.15,21.27l-2.72,2.66s1.04,1.1,1.87.5c1.18-.85,3.95-4.08,3.95-4.08,0,0-3.01-3.38-3.95-4.07-.82-.6-1.87.48-1.87.48l2.72,2.56c-17.27,0-18.08-1-18.08-19.29,0-1.51-2.07-1.51-2.07-.03Z"/>
  <path class="cls-21" d="m414.62,308.39c19.4,0,21.27-1.3,21.27-20.15l2.66,2.72s1.1-1.04.5-1.87c-.85-1.18-4.08-3.95-4.08-3.95,0,0-3.38,3.01-4.07,3.95-.6.82.48,1.87.48,1.87l2.56-2.72c0,17.27-1,18.08-19.29,18.08-1.51,0-1.51,2.07-.03,2.07Z"/>
  <path class="cls-15" d="m473.53,321.23c-19.4,0-21.27,1.3-21.27,20.15l-2.66-2.72s-1.1,1.04-.5,1.87c.85,1.18,4.08,3.95,4.08,3.95,0,0,3.38-3.01,4.07-3.95.6-.82-.48-1.87-.48-1.87l-2.56,2.72c0-17.27,1-18.08,19.29-18.08,1.51,0,1.51-2.07.03-2.07Z"/>
  <path class="cls-15" d="m171.65,217.69v-5.76c0-.48-.4-.87-.89-.87s-.89.39-.89.87v1.92h-21.85c-.48,0-.87.38-.87.85v.32c0,.46.39.85.87.85h21.85v1.82c0,.48.4.87.89.87s.89-.39.89-.87Z"/>
  <path class="cls-21" d="m176.5,211.93v5.76c0,.48.4.87.89.87s.89-.39.89-.87v-1.92h21.85c.48,0,.87-.38.87-.85v-.32c0-.46-.39-.85-.87-.85h-21.85v-1.82c0-.48-.4-.87-.89-.87s-.89.39-.89.87Z"/>
  <path class="cls-15" d="m261.19,212.39h5.76c.48,0,.87-.4.87-.89,0-.49-.39-.89-.87-.89h-1.92v-21.85c0-.48-.38-.87-.85-.87h-.32c-.46,0-.85.39-.85.87v21.85h-1.82c-.48,0-.87.4-.87.89,0,.49.39.89.87.89Z"/>
  <path class="cls-21" d="m266.96,217.23h-5.76c-.48,0-.87.4-.87.89,0,.49.39.89.87.89h1.92v21.85c0,.48.38.87.85.87h.32c.46,0,.85-.39.85-.87v-21.85h1.82c.48,0,.87-.4.87-.89s-.39-.89-.87-.89Z"/>
  <path class="cls-15" d="m356.5,211.93v5.76c0,.48.4.87.89.87s.89-.39.89-.87v-1.92h21.85c.48,0,.87-.38.87-.85v-.32c0-.46-.39-.85-.87-.85h-21.85v-1.82c0-.48-.4-.87-.89-.87s-.89.39-.89.87Z"/>
  <path class="cls-21" d="m351.65,217.69v-5.76c0-.48-.4-.87-.89-.87s-.89.39-.89.87v1.92h-21.85c-.48,0-.87.38-.87.85v.32c0,.46.39.85.87.85h21.85v1.82c0,.48.4.87.89.87s.89-.39.89-.87Z"/>
  <path class="cls-15" d="m446.96,217.23h-5.76c-.48,0-.87.4-.87.89s.39.89.87.89h1.92v21.85c0,.48.38.87.85.87h.32c.46,0,.85-.39.85-.87v-21.85h1.82c.48,0,.87-.4.87-.89,0-.49-.39-.89-.87-.89Z"/>
  <path class="cls-21" d="m441.19,212.39h5.76c.48,0,.87-.4.87-.89,0-.49-.39-.89-.87-.89h-1.92v-21.85c0-.48-.38-.87-.85-.87h-.32c-.46,0-.85.39-.85.87v21.85h-1.82c-.48,0-.87.4-.87.89s.39.89.87.89Z"/>
  <path class="cls-21" d="m178.8,386.57c11.89,0,22.68,9.57,22.72,21.38l2.41-2.65s1.11,1.01.54,1.85c-.65.95-3.93,4.08-3.93,4.08,0,0-3.32-2.66-4.21-3.8-.63-.81.43-1.89.43-1.89l2.78,2.61c-.03-8.93-7.32-18.79-20.74-19.5-1.57-.08-1.62-2.09,0-2.08Z"/>
  <path class="cls-21" d="m292.32,419.54c0,11.89-9.57,22.68-21.38,22.72l2.65,2.41s-1.01,1.11-1.85.54c-.95-.65-4.08-3.93-4.08-3.93,0,0,2.66-3.32,3.8-4.21.81-.63,1.89.43,1.89.43l-2.61,2.78c8.93-.03,18.79-7.32,19.5-20.74.08-1.57,2.09-1.62,2.08,0Z"/>
  <path class="cls-21" d="m349.35,443.05c-11.89,0-22.68-9.57-22.72-21.38l-2.41,2.65s-1.11-1.01-.54-1.85c.65-.95,3.93-4.08,3.93-4.08,0,0,3.32,2.66,4.21,3.8.63.81-.43,1.89-.43,1.89l-2.78-2.61c.03,8.93,7.32,18.79,20.74,19.5,1.57.08,1.62,2.09,0,2.08Z"/>
  <path class="cls-21" d="m415.83,410.08c0-11.89,9.57-22.68,21.38-22.72l-2.65-2.41s1.01-1.11,1.85-.54c.95.65,4.08,3.93,4.08,3.93,0,0-2.66,3.32-3.8,4.21-.81.63-1.89-.43-1.89-.43l2.61-2.78c-8.93.03-18.79,7.32-19.5,20.74-.08,1.57-2.09,1.62-2.08,0Z"/>
  <path class="cls-21" d="m176.5,411.93v5.76c0,.48.4.87.89.87s.89-.39.89-.87v-1.92h21.85c.48,0,.87-.38.87-.85v-.32c0-.46-.39-.85-.87-.85h-21.85v-1.82c0-.48-.4-.87-.89-.87s-.89.39-.89.87Z"/>
  <path class="cls-21" d="m266.96,417.23h-5.76c-.48,0-.87.4-.87.89,0,.49.39.89.87.89h1.92v21.85c0,.48.38.87.85.87h.32c.46,0,.85-.39.85-.87v-21.85h1.82c.48,0,.87-.4.87-.89s-.39-.89-.87-.89Z"/>
  <path class="cls-21" d="m351.65,417.69v-5.76c0-.48-.4-.87-.89-.87s-.89.39-.89.87v1.92h-21.85c-.48,0-.87.38-.87.85v.32c0,.46.39.85.87.85h21.85v1.82c0,.48.4.87.89.87s.89-.39.89-.87Z"/>
  <path class="cls-21" d="m441.19,412.39h5.76c.48,0,.87-.4.87-.89,0-.49-.39-.89-.87-.89h-1.92v-21.85c0-.48-.38-.87-.85-.87h-.32c-.46,0-.85.39-.85.87v21.85h-1.82c-.48,0-.87.4-.87.89s.39.89.87.89Z"/>
  <path class="cls-15" d="m147.15,311.93v5.76c0,.48.4.87.89.87s.89-.39.89-.87v-1.92h21.85c.48,0,.87-.38.87-.85v-.32c0-.46-.39-.85-.87-.85h-21.85v-1.82c0-.48-.4-.87-.89-.87s-.89.39-.89.87Z"/>
  <path class="cls-21" d="m201,317.69v-5.76c0-.48-.4-.87-.89-.87s-.89.39-.89.87v1.92h-21.85c-.48,0-.87.38-.87.85v.32c0,.46.39.85.87.85h21.85v1.82c0,.48.4.87.89.87s.89-.39.89-.87Z"/>
  <path class="cls-15" d="m261.19,312.39h5.76c.48,0,.87-.4.87-.89,0-.49-.39-.89-.87-.89h-1.92v-21.85c0-.48-.38-.87-.85-.87h-.32c-.46,0-.85.39-.85.87v21.85h-1.82c-.48,0-.87.4-.87.89,0,.49.39.89.87.89Z"/>
  <path class="cls-21" d="m266.96,316.9h-5.76c-.48,0-.87.4-.87.89,0,.49.39.89.87.89h1.92v21.85c0,.48.38.87.85.87h.32c.46,0,.85-.39.85-.87v-21.85h1.82c.48,0,.87-.4.87-.89,0-.49-.39-.89-.87-.89Z"/>
  <path class="cls-15" d="m381,317.69v-5.76c0-.48-.4-.87-.89-.87s-.89.39-.89.87v1.92h-21.85c-.48,0-.87.38-.87.85v.32c0,.46.39.85.87.85h21.85v1.82c0,.48.4.87.89.87s.89-.39.89-.87Z"/>
  <path class="cls-21" d="m327.15,311.93v5.76c0,.48.4.87.89.87s.89-.39.89-.87v-1.92h21.85c.48,0,.87-.38.87-.85v-.32c0-.46-.39-.85-.87-.85h-21.85v-1.82c0-.48-.4-.87-.89-.87s-.89.39-.89.87Z"/>
  <path class="cls-15" d="m446.96,316.9h-5.76c-.48,0-.87.4-.87.89,0,.49.39.89.87.89h1.92v21.85c0,.48.38.87.85.87h.32c.46,0,.85-.39.85-.87v-21.85h1.82c.48,0,.87-.4.87-.89s-.39-.89-.87-.89Z"/>
  <path class="cls-15" d="m167.65,444.27c0-19.4-1.3-21.27-20.15-21.27l2.72-2.66s-1.04-1.1-1.87-.5c-1.18.85-3.95,4.08-3.95,4.08,0,0,3.01,3.38,3.95,4.07.82.6,1.87-.48,1.87-.48l-2.72-2.56c17.27,0,18.08,1,18.08,19.29,0,1.51,2.07,1.51,2.07.03Z"/>
  <path class="cls-15" d="m234.62,408.39c19.4,0,21.27-1.3,21.27-20.15l2.66,2.72s1.1-1.04.5-1.87c-.85-1.18-4.08-3.95-4.08-3.95,0,0-3.38,3.01-4.07,3.95-.6.82.48,1.87.48,1.87l2.56-2.72c0,17.27-1,18.08-19.29,18.08-1.51,0-1.51,2.07-.03,2.07Z"/>
  <path class="cls-15" d="m360.5,385.36c0,19.4,1.3,21.27,20.15,21.27l-2.72,2.66s1.04,1.1,1.87.5c1.18-.85,3.95-4.08,3.95-4.08,0,0-3.01-3.38-3.95-4.07-.82-.6-1.87.48-1.87.48l2.72,2.56c-17.27,0-18.08-1-18.08-19.29,0-1.51-2.07-1.51-2.07-.03Z"/>
  <path class="cls-15" d="m473.53,421.23c-19.4,0-21.27,1.3-21.27,20.15l-2.66-2.72s-1.1,1.04-.5,1.87c.85,1.18,4.08,3.95,4.08,3.95,0,0,3.38-3.01,4.07-3.95.6-.82-.48-1.87-.48-1.87l-2.56,2.72c0-17.27,1-18.08,19.29-18.08,1.51,0,1.51-2.07.03-2.07Z"/>
  <path class="cls-15" d="m147.15,411.93v5.76c0,.48.4.87.89.87s.89-.39.89-.87v-1.92h21.85c.48,0,.87-.38.87-.85v-.32c0-.46-.39-.85-.87-.85h-21.85v-1.82c0-.48-.4-.87-.89-.87s-.89.39-.89.87Z"/>
  <path class="cls-15" d="m261.19,412.39h5.76c.48,0,.87-.4.87-.89,0-.49-.39-.89-.87-.89h-1.92v-21.85c0-.48-.38-.87-.85-.87h-.32c-.46,0-.85.39-.85.87v21.85h-1.82c-.48,0-.87.4-.87.89,0,.49.39.89.87.89Z"/>
  <path class="cls-15" d="m381,417.69v-5.76c0-.48-.4-.87-.89-.87s-.89.39-.89.87v1.92h-21.85c-.48,0-.87.38-.87.85v.32c0,.46.39.85.87.85h21.85v1.82c0,.48.4.87.89.87s.89-.39.89-.87Z"/>
  <path class="cls-15" d="m446.96,417.23h-5.76c-.48,0-.87.4-.87.89,0,.49.39.89.87.89h1.92v21.85c0,.48.38.87.85.87h.32c.46,0,.85-.39.85-.87v-21.85h1.82c.48,0,.87-.4.87-.89s-.39-.89-.87-.89Z"/>
  <path class="cls-21" d="m441.19,312.39h5.76c.48,0,.87-.4.87-.89,0-.49-.39-.89-.87-.89h-1.92v-21.85c0-.48-.38-.87-.85-.87h-.32c-.46,0-.85.39-.85.87v21.85h-1.82c-.48,0-.87.4-.87.89,0,.49.39.89.87.89Z"/>
  <path class="cls-12" d="m174.43,358.32c4.39-1.93.8-6.48-3.28-4.27-.04.02-.07.06-.07.1-.38,2.63-.16,6.19.2,8.71.02.13.12.23.24.27,6.22,1.71,7.68-3.78,2.91-4.81Zm.65-2.47c0,1.13-1.98,1.51-2.74,1.51-.13-.26-.02-2.43.07-2.53.9-.25,2.67.04,2.67,1.02Zm-2.38,6.17c-.17-1.1-.2-1.41-.14-2.54.47-.06,3.32-.1,3.29,1.38-.03,1.15-2.44,1.38-3.15,1.16Z"/>
  <path class="cls-12" d="m264.43,358.32c4.39-1.93.8-6.48-3.28-4.27-.04.02-.07.06-.07.1-.38,2.63-.16,6.19.2,8.71.02.13.12.23.24.27,6.22,1.71,7.68-3.78,2.91-4.81Zm.65-2.47c0,1.13-1.98,1.51-2.74,1.51-.13-.26-.02-2.43.07-2.53.9-.25,2.67.04,2.67,1.02Zm-2.38,6.17c-.17-1.1-.2-1.41-.14-2.54.47-.06,3.32-.1,3.29,1.38-.03,1.15-2.44,1.38-3.15,1.16Z"/>
  <path class="cls-12" d="m354.43,358.32c4.39-1.93.8-6.48-3.28-4.27-.04.02-.07.06-.07.1-.38,2.63-.16,6.19.2,8.71.02.13.12.23.24.27,6.22,1.71,7.68-3.78,2.91-4.81Zm.65-2.47c0,1.13-1.98,1.51-2.74,1.51-.13-.26-.02-2.43.07-2.53.9-.25,2.67.04,2.67,1.02Zm-2.38,6.17c-.17-1.1-.2-1.41-.14-2.54.47-.06,3.32-.1,3.29,1.38-.03,1.15-2.44,1.38-3.15,1.16Z"/>
  <path class="cls-12" d="m444.43,358.32c4.39-1.93.8-6.48-3.28-4.27-.04.02-.07.06-.07.1-.38,2.63-.16,6.19.2,8.71.02.13.12.23.24.27,6.22,1.71,7.68-3.78,2.91-4.81Zm.65-2.47c0,1.13-1.98,1.51-2.74,1.51-.13-.26-.02-2.43.07-2.53.9-.25,2.67.04,2.67,1.02Zm-2.38,6.17c-.17-1.1-.2-1.41-.14-2.54.47-.06,3.32-.1,3.29,1.38-.03,1.15-2.44,1.38-3.15,1.16Z"/>
  <path class="cls-12" d="m177.85,461.21c.42.55-.07,1.12-.5,1.33-9.15,4.54-8.83-9.42-3.27-9.09,1.07.06,2.05.85,2.39,1.26.25.29.44.81.12,1.16-.34.36-.8.24-1.02,0-4.33-4.56-6.65,9.06,1.11,5.25.45-.22.79-.4,1.16.09Z"/>
  <path class="cls-12" d="m267.85,461.21c.42.55-.07,1.12-.5,1.33-9.15,4.54-8.83-9.42-3.27-9.09,1.07.06,2.05.85,2.39,1.26.25.29.44.81.12,1.16-.34.36-.8.24-1.02,0-4.33-4.56-6.65,9.06,1.11,5.25.45-.22.79-.4,1.16.09Z"/>
  <path class="cls-12" d="m357.85,461.21c.42.55-.07,1.12-.5,1.33-9.15,4.54-8.83-9.42-3.27-9.09,1.07.06,2.05.85,2.39,1.26.25.29.44.81.12,1.16-.34.36-.8.24-1.02,0-4.33-4.56-6.65,9.06,1.11,5.25.45-.22.79-.4,1.16.09Z"/>
  <path class="cls-12" d="m447.85,461.21c.42.55-.07,1.12-.5,1.33-9.15,4.54-8.83-9.42-3.27-9.09,1.07.06,2.05.85,2.39,1.26.25.29.44.81.12,1.16-.34.36-.8.24-1.02,0-4.33-4.56-6.65,9.06,1.11,5.25.45-.22.79-.4,1.16.09Z"/>
  <path class="cls-12" d="m177.19,555.11c-.42-.02-1.11-.04-1.33-.05-2.5-.16-3.99,1.77-4.23,4.08-.08.74.07,1.24.63,1.77.96.88,2.65,1.08,3.68.33.29-.21.56-.57.67-.92.23-.7-.06-1.13-.73-1.15-.55-.02-1.11.07-1.67.1-.47.02-.98.05-1.11-.62-.11-.57.35-1.04,1.07-1.13.6-.07,1.2-.08,1.8-.13.41-.04.92,0,1.41-.03.86,1.57.93,2.45.34,3.91-.66,1.62-1.9,2.23-3.38,2.2-.76-.02-1.61-.21-2.26-.62-2.32-1.47-2.63-3.71-1.3-6.4,1.3-3.01,4.25-2.97,5.53-2.98.84,0,1.06.15.85,1.66Z"/>
  <path class="cls-12" d="m177.74,262.47c-.87-2.99-2.3-6.84-2.48-7.31-.18-.46-.77-1.7-1.18-1.7s-1,1.24-1.18,1.7c-.18.47-1.61,4.32-2.48,7.31-.24.84.06.91.18.94,1.61.21,1.32-.3,1.57-1.4.23-1,.22-1.46,1-1.46.38,0,.56.01.91.01s.54-.01.91-.01c.78,0,.77.46,1,1.46.25,1.1-.04,1.61,1.57,1.4.12-.03.42-.1.18-.94Zm-2.91-3.37h-1.51c-.14,0-.23-.07-.19-.23l.94-3.44.94,3.44c.04.16-.05.23-.19.23Z"/>
  <path class="cls-12" d="m267.74,262.47c-.87-2.99-2.3-6.84-2.48-7.31-.18-.46-.77-1.7-1.18-1.7s-1,1.24-1.18,1.7c-.18.47-1.61,4.32-2.48,7.31-.24.84.06.91.18.94,1.61.21,1.32-.3,1.57-1.4.23-1,.22-1.46,1-1.46.38,0,.56.01.91.01s.54-.01.91-.01c.78,0,.77.46,1,1.46.25,1.1-.04,1.61,1.57,1.4.12-.03.42-.1.18-.94Zm-2.91-3.37h-1.51c-.14,0-.23-.07-.19-.23l.94-3.44.94,3.44c.04.16-.05.23-.19.23Z"/>
  <path class="cls-12" d="m357.74,262.47c-.87-2.99-2.3-6.84-2.48-7.31-.18-.46-.77-1.7-1.18-1.7s-1,1.24-1.18,1.7c-.18.47-1.61,4.32-2.48,7.31-.24.84.06.91.18.94,1.61.21,1.32-.3,1.57-1.4.23-1,.22-1.46,1-1.46.38,0,.56.01.91.01s.54-.01.91-.01c.78,0,.77.46,1,1.46.25,1.1-.04,1.61,1.57,1.4.12-.03.42-.1.18-.94Zm-2.91-3.37h-1.51c-.14,0-.23-.07-.19-.23l.94-3.44.94,3.44c.04.16-.05.23-.19.23Z"/>
  <path class="cls-12" d="m447.74,262.47c-.87-2.99-2.3-6.84-2.48-7.31-.18-.46-.77-1.7-1.18-1.7s-1,1.24-1.18,1.7c-.18.47-1.61,4.32-2.48,7.31-.24.84.06.91.18.94,1.61.21,1.32-.3,1.57-1.4.23-1,.22-1.46,1-1.46.38,0,.56.01.91.01s.54-.01.91-.01c.78,0,.77.46,1,1.46.25,1.1-.04,1.61,1.57,1.4.12-.03.42-.1.18-.94Zm-2.91-3.37h-1.51c-.14,0-.23-.07-.19-.23l.94-3.44.94,3.44c.04.16-.05.23-.19.23Z"/>
  <path class="cls-12" d="m177.74,762.71c0,.65-.36.74-1.5.74h-4.33c-1.13,0-1.5-.09-1.5-.74s.49-.73,1.75-.73,1.17.32,1.17-3.55.1-3.5-2-3.5c-.49,0-.92-.16-.92-.72s.2-.75.99-.75h5.35c.79,0,.99.2.99.75s-.43.72-.92.72c-2.1,0-2-.37-2,3.5s-.14,3.55,1.17,3.55,1.75.08,1.75.73Z"/>
  <path class="cls-12" d="m177.4,654.53v7.97c0,.82-.23.95-.84.95-.67,0-.75-.2-.75-.9,0-2.75.12-3.14-.89-3.17-.34-.02-1.3-.02-1.68,0-1.01.03-.89.42-.89,3.17,0,.7-.08.9-.75.9-.61,0-.84-.13-.84-.95v-7.97c0-.96.39-1.07.88-1.07s.71.2.71,1.04c0,2.76.11,3.25.76,3.25h1.94c.65,0,.76-.49.76-3.25,0-.84.22-1.04.71-1.04s.88.11.88,1.07Z"/>
  <path class="cls-12" d="m267.19,555.11c-.42-.02-1.11-.04-1.33-.05-2.5-.16-3.99,1.77-4.23,4.08-.08.74.07,1.24.63,1.77.96.88,2.65,1.08,3.68.33.29-.21.56-.57.67-.92.23-.7-.06-1.13-.73-1.15-.55-.02-1.11.07-1.67.1-.47.02-.98.05-1.11-.62-.11-.57.35-1.04,1.07-1.13.6-.07,1.2-.08,1.8-.13.41-.04.92,0,1.41-.03.86,1.57.93,2.45.34,3.91-.66,1.62-1.9,2.23-3.38,2.2-.76-.02-1.61-.21-2.26-.62-2.32-1.47-2.63-3.71-1.3-6.4,1.3-3.01,4.25-2.97,5.53-2.98.84,0,1.06.15.85,1.66Z"/>
  <path class="cls-12" d="m267.74,762.71c0,.65-.36.74-1.5.74h-4.33c-1.13,0-1.5-.09-1.5-.74s.49-.73,1.75-.73,1.17.32,1.17-3.55.1-3.5-2-3.5c-.49,0-.92-.16-.92-.72s.2-.75.99-.75h5.35c.79,0,.99.2.99.75s-.43.72-.92.72c-2.1,0-2-.37-2,3.5s-.14,3.55,1.17,3.55,1.75.08,1.75.73Z"/>
  <path class="cls-12" d="m267.4,654.53v7.97c0,.82-.23.95-.84.95-.67,0-.75-.2-.75-.9,0-2.75.12-3.14-.89-3.17-.34-.02-1.3-.02-1.68,0-1.01.03-.89.42-.89,3.17,0,.7-.08.9-.75.9-.61,0-.84-.13-.84-.95v-7.97c0-.96.39-1.07.88-1.07s.71.2.71,1.04c0,2.76.11,3.25.76,3.25h1.94c.65,0,.76-.49.76-3.25,0-.84.22-1.04.71-1.04s.88.11.88,1.07Z"/>
  <path class="cls-12" d="m357.19,555.11c-.42-.02-1.11-.04-1.33-.05-2.5-.16-3.99,1.77-4.23,4.08-.08.74.07,1.24.63,1.77.96.88,2.65,1.08,3.68.33.29-.21.56-.57.67-.92.23-.7-.06-1.13-.73-1.15-.55-.02-1.11.07-1.67.1-.47.02-.98.05-1.11-.62-.11-.57.35-1.04,1.07-1.13.6-.07,1.2-.08,1.8-.13.41-.04.92,0,1.41-.03.86,1.57.93,2.45.34,3.91-.66,1.62-1.9,2.23-3.38,2.2-.76-.02-1.61-.21-2.26-.62-2.32-1.47-2.63-3.71-1.3-6.4,1.3-3.01,4.25-2.97,5.53-2.98.84,0,1.06.15.85,1.66Z"/>
  <path class="cls-12" d="m357.74,762.71c0,.65-.36.74-1.5.74h-4.33c-1.13,0-1.5-.09-1.5-.74s.49-.73,1.75-.73,1.17.32,1.17-3.55.1-3.5-2-3.5c-.49,0-.92-.16-.92-.72s.2-.75.99-.75h5.35c.79,0,.99.2.99.75s-.43.72-.92.72c-2.1,0-2-.37-2,3.5s-.14,3.55,1.17,3.55,1.75.08,1.75.73Z"/>
  <path class="cls-12" d="m357.4,654.53v7.97c0,.82-.23.95-.84.95-.67,0-.75-.2-.75-.9,0-2.75.12-3.14-.89-3.17-.34-.02-1.3-.02-1.68,0-1.01.03-.89.42-.89,3.17,0,.7-.08.9-.75.9-.61,0-.84-.13-.84-.95v-7.97c0-.96.39-1.07.88-1.07s.71.2.71,1.04c0,2.76.11,3.25.76,3.25h1.94c.65,0,.76-.49.76-3.25,0-.84.22-1.04.71-1.04s.88.11.88,1.07Z"/>
  <path class="cls-12" d="m447.19,555.11c-.42-.02-1.11-.04-1.33-.05-2.5-.16-3.99,1.77-4.23,4.08-.08.74.07,1.24.63,1.77.96.88,2.65,1.08,3.68.33.29-.21.56-.57.67-.92.23-.7-.06-1.13-.73-1.15-.55-.02-1.11.07-1.67.1-.47.02-.98.05-1.11-.62-.11-.57.35-1.04,1.07-1.13.6-.07,1.2-.08,1.8-.13.41-.04.92,0,1.41-.03.86,1.57.93,2.45.34,3.91-.66,1.62-1.9,2.23-3.38,2.2-.76-.02-1.61-.21-2.26-.62-2.32-1.47-2.63-3.71-1.3-6.4,1.3-3.01,4.25-2.97,5.53-2.98.84,0,1.06.15.85,1.66Z"/>
  <path class="cls-12" d="m447.74,762.71c0,.65-.36.74-1.5.74h-4.33c-1.13,0-1.5-.09-1.5-.74s.49-.73,1.75-.73,1.17.32,1.17-3.55.1-3.5-2-3.5c-.49,0-.92-.16-.92-.72s.2-.75.99-.75h5.35c.79,0,.99.2.99.75s-.43.72-.92.72c-2.1,0-2-.37-2,3.5s-.14,3.55,1.17,3.55,1.75.08,1.75.73Z"/>
  <path class="cls-12" d="m447.4,654.53v7.97c0,.82-.23.95-.84.95-.67,0-.75-.2-.75-.9,0-2.75.12-3.14-.89-3.17-.34-.02-1.3-.02-1.68,0-1.01.03-.89.42-.89,3.17,0,.7-.08.9-.75.9-.61,0-.84-.13-.84-.95v-7.97c0-.96.39-1.07.88-1.07s.71.2.71,1.04c0,2.76.11,3.25.76,3.25h1.94c.65,0,.76-.49.76-3.25,0-.84.22-1.04.71-1.04s.88.11.88,1.07Z"/>
  <g>
    <text class="cls-11" transform="translate(141.95 186.93)"><tspan x="0" y="0">1</tspan></text>
    <text class="cls-11" transform="translate(231.85 186.93)"><tspan x="0" y="0">2</tspan></text>
    <text class="cls-11" transform="translate(321.95 186.93)"><tspan x="0" y="0">3</tspan></text>
    <text class="cls-11" transform="translate(411.85 186.93)"><tspan x="0" y="0">4</tspan></text>
  </g>
  <g>
    <text class="cls-11" transform="translate(141.95 286.93)"><tspan x="0" y="0">1</tspan></text>
    <text class="cls-11" transform="translate(231.85 286.93)"><tspan x="0" y="0">2</tspan></text>
    <text class="cls-11" transform="translate(321.95 286.93)"><tspan x="0" y="0">3</tspan></text>
    <text class="cls-11" transform="translate(411.85 286.93)"><tspan x="0" y="0">4</tspan></text>
  </g>
  <g>
    <text class="cls-11" transform="translate(141.95 386.93)"><tspan x="0" y="0">1</tspan></text>
    <text class="cls-11" transform="translate(231.85 386.93)"><tspan x="0" y="0">2</tspan></text>
    <text class="cls-11" transform="translate(321.95 386.93)"><tspan x="0" y="0">3</tspan></text>
    <text class="cls-11" transform="translate(411.85 386.93)"><tspan x="0" y="0">4</tspan></text>
  </g>
  <g>
    <text class="cls-11" transform="translate(141.95 486.93)"><tspan x="0" y="0">1</tspan></text>
    <text class="cls-11" transform="translate(231.85 486.93)"><tspan x="0" y="0">2</tspan></text>
    <text class="cls-11" transform="translate(321.95 486.93)"><tspan x="0" y="0">3</tspan></text>
    <text class="cls-11" transform="translate(411.85 486.93)"><tspan x="0" y="0">4</tspan></text>
  </g>
  <g>
    <text class="cls-11" transform="translate(141.95 586.93)"><tspan x="0" y="0">1</tspan></text>
    <text class="cls-11" transform="translate(231.85 586.93)"><tspan x="0" y="0">2</tspan></text>
    <text class="cls-11" transform="translate(321.95 586.93)"><tspan x="0" y="0">3</tspan></text>
    <text class="cls-11" transform="translate(411.85 586.93)"><tspan x="0" y="0">4</tspan></text>
  </g>
  <g>
    <text class="cls-11" transform="translate(141.95 686.93)"><tspan x="0" y="0">1</tspan></text>
    <text class="cls-11" transform="translate(231.85 686.93)"><tspan x="0" y="0">2</tspan></text>
    <text class="cls-11" transform="translate(321.95 686.93)"><tspan x="0" y="0">3</tspan></text>
    <text class="cls-11" transform="translate(411.85 686.93)"><tspan x="0" y="0">4</tspan></text>
  </g>
  <path class="cls-21" d="m182.65,479.81c11.89,0,22.68,9.57,22.72,21.38l2.41-2.65s1.11,1.01.54,1.85c-.65.95-3.93,4.08-3.93,4.08,0,0-3.32-2.66-4.21-3.8-.63-.81.43-1.89.43-1.89l2.78,2.61c-.03-8.93-7.32-18.79-20.74-19.5-1.57-.08-1.62-2.09,0-2.08Z"/>
  <path class="cls-15" d="m178.02,485.58c11.89,0,22.68,9.57,22.72,21.38l2.41-2.65s1.11,1.01.54,1.85c-.65.95-3.93,4.08-3.93,4.08,0,0-3.32-2.66-4.21-3.8-.63-.81.43-1.89.43-1.89l2.78,2.61c-.03-8.93-7.32-18.79-20.74-19.5-1.57-.08-1.62-2.09,0-2.08Z"/>
  <path class="cls-15" d="m175.99,514.35v5.76c0,.48.4.87.89.87.49,0,.89-.39.89-.87v-1.92h21.85c.48,0,.87-.38.87-.85v-.32c0-.46-.39-.85-.87-.85h-21.85v-1.82c0-.48-.4-.87-.89-.87s-.89.39-.89.87Z"/>
  <path class="cls-21" d="m175.99,509.51v5.76c0,.48.4.87.89.87.49,0,.89-.39.89-.87v-1.92h21.85c.48,0,.87-.38.87-.85v-.32c0-.46-.39-.85-.87-.85h-21.85v-1.82c0-.48-.4-.87-.89-.87s-.89.39-.89.87Z"/>
  <path class="cls-21" d="m299.08,523.39c0,11.89-9.57,22.68-21.38,22.72l2.65,2.41s-1.01,1.11-1.85.54c-.95-.65-4.08-3.93-4.08-3.93,0,0,2.66-3.32,3.8-4.21.81-.63,1.89.43,1.89.43l-2.61,2.78c8.93-.03,18.79-7.32,19.5-20.74.08-1.57,2.09-1.62,2.08,0Z"/>
  <path class="cls-15" d="m293.3,518.76c0,11.89-9.57,22.68-21.38,22.72l2.65,2.41s-1.01,1.11-1.85.54c-.95-.65-4.08-3.93-4.08-3.93,0,0,2.66-3.32,3.8-4.21.81-.63,1.89.43,1.89.43l-2.61,2.78c8.93-.03,18.79-7.32,19.5-20.74.08-1.57,2.09-1.62,2.08,0Z"/>
  <path class="cls-15" d="m264.53,516.73h-5.76c-.48,0-.87.4-.87.89,0,.49.39.89.87.89h1.92v21.85c0,.48.38.87.85.87h.32c.46,0,.85-.39.85-.87v-21.85h1.82c.48,0,.87-.4.87-.89,0-.49-.39-.89-.87-.89Z"/>
  <path class="cls-21" d="m269.38,516.73h-5.76c-.48,0-.87.4-.87.89,0,.49.39.89.87.89h1.92v21.85c0,.48.38.87.85.87h.32c.46,0,.85-.39.85-.87v-21.85h1.82c.48,0,.87-.4.87-.89,0-.49-.39-.89-.87-.89Z"/>
  <path class="cls-21" d="m345.5,549.81c-11.89,0-22.68-9.57-22.72-21.38l-2.41,2.65s-1.11-1.01-.54-1.85c.65-.95,3.93-4.08,3.93-4.08,0,0,3.32,2.66,4.21,3.8.63.81-.43,1.89-.43,1.89l-2.78-2.61c.03,8.93,7.32,18.79,20.74,19.5,1.57.08,1.62,2.09,0,2.08Z"/>
  <path class="cls-15" d="m350.13,544.04c-11.89,0-22.68-9.57-22.72-21.38l-2.41,2.65s-1.11-1.01-.54-1.85c.65-.95,3.93-4.08,3.93-4.08,0,0,3.32,2.66,4.21,3.8.63.81-.43,1.89-.43,1.89l-2.78-2.61c.03,8.93,7.32,18.79,20.74,19.5,1.57.08,1.62,2.09,0,2.08Z"/>
  <path class="cls-15" d="m352.16,515.27v-5.76c0-.48-.4-.87-.89-.87s-.89.39-.89.87v1.92h-21.85c-.48,0-.87.38-.87.85v.32c0,.46.39.85.87.85h21.85v1.82c0,.48.4.87.89.87s.89-.39.89-.87Z"/>
  <path class="cls-21" d="m352.16,520.12v-5.76c0-.48-.4-.87-.89-.87s-.89.39-.89.87v1.92h-21.85c-.48,0-.87.38-.87.85v.32c0,.46.39.85.87.85h21.85v1.82c0,.48.4.87.89.87s.89-.39.89-.87Z"/>
  <path class="cls-21" d="m409.08,506.23c0-11.89,9.57-22.68,21.38-22.72l-2.65-2.41s1.01-1.11,1.85-.54c.95.65,4.08,3.93,4.08,3.93,0,0-2.66,3.32-3.8,4.21-.81.63-1.89-.43-1.89-.43l2.61-2.78c-8.93.03-18.79,7.32-19.5,20.74-.08,1.57-2.09,1.62-2.08,0Z"/>
  <path class="cls-21" d="m180.23,679.8c11.89,0,22.68,9.57,22.72,21.38l2.41-2.65s1.11,1.01.54,1.85c-.65.95-3.93,4.08-3.93,4.08,0,0-3.32-2.66-4.21-3.8-.63-.81.43-1.89.43-1.89l2.78,2.61c-.03-8.93-7.32-18.79-20.74-19.5-1.57-.08-1.62-2.09,0-2.08Z"/>
  <path class="cls-21" d="m298.8,721.48c0,11.89-9.57,22.68-21.38,22.72l2.65,2.41s-1.01,1.11-1.85.54c-.95-.65-4.08-3.93-4.08-3.93,0,0,2.66-3.32,3.8-4.21.81-.63,1.89.43,1.89.43l-2.61,2.78c8.93-.03,18.79-7.32,19.5-20.74.08-1.57,2.09-1.62,2.08,0Z"/>
  <path class="cls-21" d="m346.9,749.4c-11.89,0-22.68-9.57-22.72-21.38l-2.41,2.65s-1.11-1.01-.54-1.85c.65-.95,3.93-4.08,3.93-4.08,0,0,3.32,2.66,4.21,3.8.63.81-.43,1.89-.43,1.89l-2.78-2.61c.03,8.93,7.32,18.79,20.74,19.5,1.57.08,1.62,2.09,0,2.08Z"/>
  <path class="cls-21" d="m409.93,707.84c0-11.89,9.57-22.68,21.38-22.72l-2.65-2.41s1.01-1.11,1.85-.54c.95.65,4.08,3.93,4.08,3.93,0,0-2.66,3.32-3.8,4.21-.81.63-1.89-.43-1.89-.43l2.61-2.78c-8.93.03-18.79,7.32-19.5,20.74-.08,1.57-2.09,1.62-2.08,0Z"/>
  <path class="cls-15" d="m414.85,510.87c0-11.89,9.57-22.68,21.38-22.72l-2.65-2.41s1.01-1.11,1.85-.54c.95.65,4.08,3.93,4.08,3.93,0,0-2.66,3.32-3.8,4.21-.81.63-1.89-.43-1.89-.43l2.61-2.78c-8.93.03-18.79,7.32-19.5,20.74-.08,1.57-2.09,1.62-2.08,0Z"/>
  <path class="cls-15" d="m443.62,512.9h5.76c.48,0,.87-.4.87-.89,0-.49-.39-.89-.87-.89h-1.92v-21.85c0-.48-.38-.87-.85-.87h-.32c-.46,0-.85.39-.85.87v21.85h-1.82c-.48,0-.87.4-.87.89,0,.49.39.89.87.89Z"/>
  <path class="cls-21" d="m438.77,512.9h5.76c.48,0,.87-.4.87-.89,0-.49-.39-.89-.87-.89h-1.92v-21.85c0-.48-.38-.87-.85-.87h-.32c-.46,0-.85.39-.85.87v21.85h-1.82c-.48,0-.87.4-.87.89,0,.49.39.89.87.89Z"/>
  <path class="cls-15" d="m200.49,620.12v-5.76c0-.48-.4-.87-.89-.87-.49,0-.89.39-.89.87v1.92h-21.85c-.48,0-.87.38-.87.85v.32c0,.46.39.85.87.85h21.85v1.82c0,.48.4.87.89.87s.89-.39.89-.87Z"/>
  <path class="cls-21" d="m200.49,615.27v-5.76c0-.48-.4-.87-.89-.87s-.89.39-.89.87v1.92h-21.85c-.48,0-.87.38-.87.85v.32c0,.46.39.85.87.85h21.85v1.82c0,.48.4.87.89.87s.89-.39.89-.87Z"/>
  <path class="cls-15" d="m264.53,616.73h-5.76c-.48,0-.87.4-.87.89,0,.49.39.89.87.89h1.92v21.85c0,.48.38.87.85.87h.32c.46,0,.85-.39.85-.87v-21.85h1.82c.48,0,.87-.4.87-.89,0-.49-.39-.89-.87-.89Z"/>
  <path class="cls-21" d="m269.38,616.73h-5.76c-.48,0-.87.4-.87.89,0,.49.39.89.87.89h1.92v21.85c0,.48.38.87.85.87h.32c.46,0,.85-.39.85-.87v-21.85h1.82c.48,0,.87-.4.87-.89,0-.49-.39-.89-.87-.89Z"/>
  <path class="cls-15" d="m327.66,609.51v5.76c0,.48.4.87.89.87s.89-.39.89-.87v-1.92h21.85c.48,0,.87-.38.87-.85v-.32c0-.46-.39-.85-.87-.85h-21.85v-1.82c0-.48-.4-.87-.89-.87s-.89.39-.89.87Z"/>
  <path class="cls-21" d="m327.66,614.35v5.76c0,.48.4.87.89.87.49,0,.89-.39.89-.87v-1.92h21.85c.48,0,.87-.38.87-.85v-.32c0-.46-.39-.85-.87-.85h-21.85v-1.82c0-.48-.4-.87-.89-.87s-.89.39-.89.87Z"/>
  <path class="cls-15" d="m443.62,612.9h5.76c.48,0,.87-.4.87-.89,0-.49-.39-.89-.87-.89h-1.92v-21.85c0-.48-.38-.87-.85-.87h-.32c-.46,0-.85.39-.85.87v21.85h-1.82c-.48,0-.87.4-.87.89,0,.49.39.89.87.89Z"/>
  <path class="cls-21" d="m438.77,612.9h5.76c.48,0,.87-.4.87-.89,0-.49-.39-.89-.87-.89h-1.92v-21.85c0-.48-.38-.87-.85-.87h-.32c-.46,0-.85.39-.85.87v21.85h-1.82c-.48,0-.87.4-.87.89,0,.49.39.89.87.89Z"/>
  <path class="cls-15" d="m200.49,720.12v-5.76c0-.48-.4-.87-.89-.87-.49,0-.89.39-.89.87v1.92h-21.85c-.48,0-.87.38-.87.85v.32c0,.46.39.85.87.85h21.85v1.82c0,.48.4.87.89.87s.89-.39.89-.87Z"/>
  <path class="cls-21" d="m175.99,709.51v5.76c0,.48.4.87.89.87.49,0,.89-.39.89-.87v-1.92h21.85c.48,0,.87-.38.87-.85v-.32c0-.46-.39-.85-.87-.85h-21.85v-1.82c0-.48-.4-.87-.89-.87s-.89.39-.89.87Z"/>
  <path class="cls-15" d="m264.53,716.73h-5.76c-.48,0-.87.4-.87.89,0,.49.39.89.87.89h1.92v21.85c0,.48.38.87.85.87h.32c.46,0,.85-.39.85-.87v-21.85h1.82c.48,0,.87-.4.87-.89,0-.49-.39-.89-.87-.89Z"/>
  <path class="cls-21" d="m269.38,716.73h-5.76c-.48,0-.87.4-.87.89,0,.49.39.89.87.89h1.92v21.85c0,.48.38.87.85.87h.32c.46,0,.85-.39.85-.87v-21.85h1.82c.48,0,.87-.4.87-.89,0-.49-.39-.89-.87-.89Z"/>
  <path class="cls-15" d="m327.66,709.51v5.76c0,.48.4.87.89.87s.89-.39.89-.87v-1.92h21.85c.48,0,.87-.38.87-.85v-.32c0-.46-.39-.85-.87-.85h-21.85v-1.82c0-.48-.4-.87-.89-.87s-.89.39-.89.87Z"/>
  <path class="cls-21" d="m352.16,720.12v-5.76c0-.48-.4-.87-.89-.87s-.89.39-.89.87v1.92h-21.85c-.48,0-.87.38-.87.85v.32c0,.46.39.85.87.85h21.85v1.82c0,.48.4.87.89.87s.89-.39.89-.87Z"/>
  <path class="cls-15" d="m443.62,712.9h5.76c.48,0,.87-.4.87-.89,0-.49-.39-.89-.87-.89h-1.92v-21.85c0-.48-.38-.87-.85-.87h-.32c-.46,0-.85.39-.85.87v21.85h-1.82c-.48,0-.87.4-.87.89,0,.49.39.89.87.89Z"/>
  <path class="cls-21" d="m438.77,712.9h5.76c.48,0,.87-.4.87-.89,0-.49-.39-.89-.87-.89h-1.92v-21.85c0-.48-.38-.87-.85-.87h-.32c-.46,0-.85.39-.85.87v21.85h-1.82c-.48,0-.87.4-.87.89,0,.49.39.89.87.89Z"/>
  <path class="cls-15" d="m178.57,583.07c0,19.4,1.3,21.27,20.15,21.27l-2.72,2.66s1.04,1.1,1.87.5c1.18-.85,3.95-4.08,3.95-4.08,0,0-3.01-3.38-3.95-4.07-.82-.6-1.87.48-1.87.48l2.72,2.56c-17.27,0-18.08-1-18.08-19.29,0-1.51-2.07-1.51-2.07-.03Z"/>
  <path class="cls-21" d="m182.91,576.96c0,19.4,1.3,21.27,20.15,21.27l-2.72,2.66s1.04,1.1,1.87.5c1.18-.85,3.95-4.08,3.95-4.08,0,0-3.01-3.38-3.95-4.07-.82-.6-1.87.48-1.87.48l2.72,2.56c-17.27,0-18.08-1-18.08-19.29,0-1.51-2.07-1.51-2.07-.03Z"/>
  <path class="cls-15" d="m293.57,619.31c-19.4,0-21.27,1.3-21.27,20.15l-2.66-2.72s-1.1,1.04-.5,1.87c.85,1.18,4.08,3.95,4.08,3.95,0,0,3.38-3.01,4.07-3.95.6-.82-.48-1.87-.48-1.87l-2.56,2.72c0-17.27,1-18.08,19.29-18.08,1.51,0,1.51-2.07.03-2.07Z"/>
  <path class="cls-21" d="m299.68,623.64c-19.4,0-21.27,1.3-21.27,20.15l-2.66-2.72s-1.1,1.04-.5,1.87c.85,1.18,4.08,3.95,4.08,3.95,0,0,3.38-3.01,4.07-3.95.6-.82-.48-1.87-.48-1.87l-2.56,2.72c0-17.27,1-18.08,19.29-18.08,1.51,0,1.51-2.07.03-2.07Z"/>
  <path class="cls-15" d="m351.07,643.92c0-19.4-1.3-21.27-20.15-21.27l2.72-2.66s-1.04-1.1-1.87-.5c-1.18.85-3.95,4.08-3.95,4.08,0,0,3.01,3.38,3.95,4.07.82.6,1.87-.48,1.87-.48l-2.72-2.56c17.27,0,18.08,1,18.08,19.29,0,1.51,2.07,1.51,2.07.03Z"/>
  <path class="cls-21" d="m346.73,649.61c0-19.4-1.3-21.27-20.15-21.27l2.72-2.66s-1.04-1.1-1.87-.5c-1.18.85-3.95,4.08-3.95,4.08,0,0,3.01,3.38,3.95,4.07.82.6,1.87-.48,1.87-.48l-2.72-2.56c17.27,0,18.08,1,18.08,19.29,0,1.51,2.07,1.51,2.07.03Z"/>
  <path class="cls-15" d="m415.39,610.31c19.4,0,21.27-1.3,21.27-20.15l2.66,2.72s1.1-1.04.5-1.87c-.85-1.18-4.08-3.95-4.08-3.95,0,0-3.38,3.01-4.07,3.95-.6.82.48,1.87.48,1.87l2.56-2.72c0,17.27-1,18.08-19.29,18.08-1.51,0-1.51,2.07-.03,2.07Z"/>
  <path class="cls-15" d="m177.68,685.25c0,19.4,1.3,21.27,20.15,21.27l-2.72,2.66s1.04,1.1,1.87.5c1.18-.85,3.95-4.08,3.95-4.08,0,0-3.01-3.38-3.95-4.07-.82-.6-1.87.48-1.87.48l2.72,2.56c-17.27,0-18.08-1-18.08-19.29,0-1.51-2.07-1.51-2.07-.03Z"/>
  <path class="cls-15" d="m293.29,718.61c-19.4,0-21.27,1.3-21.27,20.15l-2.66-2.72s-1.1,1.04-.5,1.87c.85,1.18,4.08,3.95,4.08,3.95,0,0,3.38-3.01,4.07-3.95.6-.82-.48-1.87-.48-1.87l-2.56,2.72c0-17.27,1-18.08,19.29-18.08,1.51,0,1.51-2.07.03-2.07Z"/>
  <path class="cls-15" d="m350.08,744.2c0-19.4-1.3-21.27-20.15-21.27l2.72-2.66s-1.04-1.1-1.87-.5c-1.18.85-3.95,4.08-3.95,4.08,0,0,3.01,3.38,3.95,4.07.82.6,1.87-.48,1.87-.48l-2.72-2.56c17.27,0,18.08,1,18.08,19.29,0,1.51,2.07,1.51,2.07.03Z"/>
  <path class="cls-15" d="m415.1,710.56c19.4,0,21.27-1.3,21.27-20.15l2.66,2.72s1.1-1.04.5-1.87c-.85-1.18-4.08-3.95-4.08-3.95,0,0-3.38,3.01-4.07,3.95-.6.82.48,1.87.48,1.87l2.56-2.72c0,17.27-1,18.08-19.29,18.08-1.51,0-1.51,2.07-.03,2.07Z"/>
  <path class="cls-21" d="m409.28,605.98c19.4,0,21.27-1.3,21.27-20.15l2.66,2.72s1.1-1.04.5-1.87c-.85-1.18-4.08-3.95-4.08-3.95,0,0-3.38,3.01-4.07,3.95-.6.82.48,1.87.48,1.87l2.56-2.72c0,17.27-1,18.08-19.29,18.08-1.51,0-1.51,2.07-.03,2.07Z"/>
  <text class="cls-7" transform="translate(41.52 210.41)"><tspan x="0" y="0">(</tspan><tspan class="cls-22" x="5.2" y="0">S</tspan><tspan x="11.81" y="0">pli</tspan><tspan class="cls-20" x="26.71" y="0">t</tspan><tspan class="cls-24" x="31.27" y="0">-</tspan><tspan x="35.32" y="0">Same)</tspan></text>
  <g>
    <path class="cls-12" d="m71.27,189.61c-.52,0-.75.2-1.03.53-.13.15-.31.94-.6.44-.6-1.03.02-3.66.85-4.82.22-.3-.09-.47-.24-.56,0,0-.34-.17-.51-.12-.23.08-.48-.1-1.11,1.32-.95-1.09-2.06-.95-2.82-.92-.67.03-2.7.78-2.7,3.14,0,2.84,2.44,3.37,3.18,3.37s1.99-.48,2.3-.77c.19.58.54.93.97,1.02.67.14.97-.19,1.24-.57.39-.54.85-2.05.47-2.06Zm-4.98.8c-.98,0-1.78-.81-1.78-1.79s.8-1.78,1.78-1.78,1.79.81,1.79,1.78-.81,1.79-1.79,1.79Z"/>
    <path class="cls-12" d="m97,189.61c-.52,0-.75.2-1.03.53-.13.15-.31.94-.6.44-.6-1.03.02-3.66.85-4.82.22-.3-.09-.47-.24-.56,0,0-.34-.17-.51-.12-.23.08-.48-.1-1.11,1.32-.95-1.09-2.06-.95-2.82-.92-.67.03-2.7.78-2.7,3.14,0,2.84,2.44,3.37,3.18,3.37s1.99-.48,2.3-.77c.19.58.54.93.97,1.02.67.14.97-.19,1.24-.57.39-.54.85-2.05.47-2.06Zm-4.98.8c-.98,0-1.78-.81-1.78-1.79s.8-1.78,1.78-1.78,1.79.81,1.79,1.78-.81,1.79-1.79,1.79Z"/>
  </g>
  <text class="cls-7" transform="translate(39.62 512.44)"><tspan x="0" y="0">(</tspan><tspan class="cls-13" x="5.2" y="0">T</tspan><tspan x="12.28" y="0">og</tspan><tspan class="cls-24" x="26.69" y="0">-</tspan><tspan x="30.75" y="0">Same)</tspan></text>
  <g>
    <path class="cls-12" d="m67.19,490.83h10.69l-1.95-2.21.87-.83,3.45,3.32v.97l-3.45,3.32-.87-.83,1.95-2.21h-10.69v-1.52Z"/>
    <path class="cls-12" d="m64.41,490.98c-.18-.22-.39-.42-.59-.59,3.31-3.76-4.43-6.09-4.53-1.52-.01,2.17-.02,3.88-.02,6.06-.77-.24-1.63.26-1.76,1.1-.08,2.12,2.05,1.76,2.82.83.29-.35.4-.63.5-1.7,2.9,1.54,5.17-1.67,3.58-4.18Zm-1.25,2.91c-.87.68-1.26.01-1.87-.16-.13-.04-.28-.03-.42.03,0-1.73,0-3.44.02-5.2-.15-.97,1.24-1.29,1.85-.63.51.55.42,1.49-.19,1.71-1.99-.53-1.8,2.34,0,1.62.85.25,1.48,1.74.61,2.63Z"/>
    <path class="cls-12" d="m87.68,490.98c-.18-.22-.39-.42-.59-.59,3.31-3.76-4.43-6.09-4.53-1.52-.01,2.17-.02,3.88-.02,6.06-.77-.24-1.63.26-1.76,1.1-.08,2.12,2.05,1.76,2.82.83.29-.35.4-.63.5-1.7,2.9,1.54,5.17-1.67,3.58-4.18Zm-1.25,2.91c-.87.68-1.26.01-1.87-.16-.13-.04-.28-.03-.42.03,0-1.73,0-3.44.02-5.2-.15-.97,1.24-1.29,1.85-.63.51.55.42,1.49-.19,1.71-1.99-.53-1.8,2.34,0,1.62.85.25,1.48,1.74.61,2.63Z"/>
  </g>
  <path class="cls-12" d="m73.24,187.73h10.69l-1.95-2.21.87-.83,3.45,3.32v.97l-3.45,3.32-.87-.83,1.95-2.21h-10.69v-1.52Z"/>
  <text class="cls-8" transform="translate(252.91 64.46)"><tspan x="0" y="0">Same Direction</tspan></text>
  <text class="cls-9" transform="translate(172.13 41.76)"><tspan x="0" y="0">Alpha/Beta Words</tspan></text>
</svg>