<?xml version="1.0" encoding="UTF-8"?>
<svg id="Layer_1" data-name="Layer 1" xmlns="http://www.w3.org/2000/svg" viewBox="0 0 612 792">
  <defs>
    <style>
      .cls-1, .cls-2, .cls-3, .cls-4 {
        fill: none;
        stroke: #231f20;
        stroke-miterlimit: 10;
      }

      .cls-5 {
        letter-spacing: -.09em;
      }

      .cls-6 {
        letter-spacing: -.08em;
      }

      .cls-7, .cls-8 {
        letter-spacing: -.02em;
      }

      .cls-9, .cls-10, .cls-11, .cls-8 {
        font-family: Cambria-Bold, Cambria;
        font-weight: 700;
      }

      .cls-9, .cls-12 {
        letter-spacing: -.01em;
      }

      .cls-13 {
        letter-spacing: -.04em;
      }

      .cls-14 {
        letter-spacing: -.01em;
      }

      .cls-15 {
        font-size: 10px;
      }

      .cls-15, .cls-16, .cls-17, .cls-18, .cls-19, .cls-20, .cls-21, .cls-22 {
        fill: #231f20;
      }

      .cls-15, .cls-23, .cls-17, .cls-20 {
        font-style: italic;
      }

      .cls-15, .cls-20 {
        font-family: Cambria-Italic, Cambria;
      }

      .cls-24 {
        letter-spacing: -.07em;
      }

      .cls-10 {
        letter-spacing: -.01em;
      }

      .cls-16 {
        font-family: MonotypeCorsiva, 'Monotype Corsiva';
        font-size: 40px;
      }

      .cls-25 {
        letter-spacing: -.07em;
      }

      .cls-23, .cls-17 {
        font-family: Georgia-Italic, Georgia;
      }

      .cls-17 {
        font-size: 13px;
      }

      .cls-26 {
        fill: #2e3192;
      }

      .cls-27 {
        letter-spacing: -.01em;
      }

      .cls-2 {
        stroke-width: 2px;
      }

      .cls-28 {
        letter-spacing: 0em;
      }

      .cls-29 {
        letter-spacing: 0em;
      }

      .cls-30 {
        letter-spacing: -.1em;
      }

      .cls-18, .cls-19 {
        font-size: 15.5px;
      }

      .cls-19, .cls-31 {
        font-family: Cambria, Cambria;
      }

      .cls-20 {
        font-size: 17px;
      }

      .cls-32 {
        letter-spacing: -.02em;
      }

      .cls-3 {
        stroke-width: 4px;
      }

      .cls-33 {
        letter-spacing: 0em;
      }

      .cls-34 {
        letter-spacing: -.06em;
      }

      .cls-35 {
        letter-spacing: -.02em;
      }

      .cls-21 {
        font-size: 14px;
      }

      .cls-36 {
        fill: #ed1c24;
      }

      .cls-37 {
        letter-spacing: -.1em;
      }

      .cls-38 {
        letter-spacing: 0em;
      }

      .cls-39 {
        letter-spacing: -.03em;
      }

      .cls-4 {
        stroke-width: .5px;
      }

      .cls-40 {
        letter-spacing: -.01em;
      }

      .cls-41 {
        font-family: Georgia, Georgia;
      }
    </style>
  </defs>
  <text class="cls-16" transform="translate(177.32 45.94)"><tspan x="0" y="0">Compound Letters</tspan></text>
  <text class="cls-18" transform="translate(119.67 83.66)"><tspan class="cls-31"><tspan x="0" y="0">N</tspan><tspan class="cls-33" x="10.55" y="0">o</tspan><tspan x="18.7" y="0">w let’s look at the let</tspan><tspan class="cls-28" x="154.85" y="0">t</tspan><tspan x="159.96" y="0">ers that m</tspan><tspan class="cls-12" x="226.92" y="0">o</tspan><tspan class="cls-35" x="234.92" y="0">v</tspan><tspan x="242.43" y="0">e f</tspan><tspan class="cls-12" x="258.1" y="0">r</tspan><tspan x="264.28" y="0">om </tspan><tspan x="288.82" y="0">β</tspan><tspan x="297.42" y="0">→</tspan><tspan x="310.41" y="0">α or α</tspan><tspan x="349.67" y="0">→</tspan><tspan x="362.66" y="0">β.</tspan></tspan><tspan class="cls-31" x="-72.1" y="18.6">Since </tspan><tspan class="cls-11" x="-33.65" y="18.6">all pic</tspan><tspan class="cls-10" x="9.01" y="18.6">t</tspan><tspan class="cls-11" x="14.46" y="18.6">og</tspan><tspan class="cls-8" x="31.34" y="18.6">r</tspan><tspan class="cls-11" x="38.23" y="18.6">aphs can be </tspan><tspan class="cls-9" x="124.69" y="18.6">r</tspan><tspan class="cls-11" x="131.61" y="18.6">ota</tspan><tspan class="cls-10" x="154.39" y="18.6">t</tspan><tspan class="cls-11" x="159.84" y="18.6">ed or mir</tspan><tspan class="cls-9" x="225.95" y="18.6">r</tspan><tspan class="cls-11" x="232.88" y="18.6">o</tspan><tspan class="cls-9" x="241.7" y="18.6">r</tspan><tspan class="cls-11" x="248.63" y="18.6">ed without changing let</tspan><tspan class="cls-10" x="415.43" y="18.6">t</tspan><tspan class="cls-11" x="420.88" y="18.6">ers</tspan><tspan class="cls-31" x="443.37" y="18.6">, </tspan><tspan class="cls-31"><tspan x="-80.34" y="37.2">these can be either </tspan><tspan class="cls-6" x="47.63" y="37.2">T</tspan><tspan x="55.56" y="37.2">og-Opp or Split-Opp depending on </tspan><tspan class="cls-38" x="285.33" y="37.2">w</tspan><tspan x="297.18" y="37.2">hich α/β </tspan><tspan class="cls-35" x="357.35" y="37.2">y</tspan><tspan x="364.86" y="37.2">ou start f</tspan><tspan class="cls-12" x="424.3" y="37.2">r</tspan><tspan x="430.48" y="37.2">om.</tspan></tspan></text>
  <text class="cls-19" transform="translate(18.41 437.48)"><tspan x="0" y="0">These compound let</tspan><tspan class="cls-28" x="133.98" y="0">t</tspan><tspan x="139.08" y="0">ers dif</tspan><tspan class="cls-27" x="180.72" y="0">f</tspan><tspan x="185.23" y="0">er f</tspan><tspan class="cls-12" x="207.3" y="0">r</tspan><tspan x="213.49" y="0">om simple let</tspan><tspan class="cls-28" x="302.7" y="0">t</tspan><tspan x="307.81" y="0">ers because </tspan><tspan class="cls-35" x="388.5" y="0">y</tspan><tspan x="396.01" y="0">ou ca</tspan><tspan class="cls-39" x="430.61" y="0">n</tspan><tspan x="438.81" y="0">’t self-combine them. </tspan><tspan x="105.82" y="18.6">Ins</tspan><tspan class="cls-28" x="126.15" y="18.6">t</tspan><tspan x="131.26" y="18.6">ead, th</tspan><tspan class="cls-38" x="175.38" y="18.6">e</tspan><tspan x="182.79" y="18.6">y combine </tspan><tspan class="cls-28" x="254.38" y="18.6">t</tspan><tspan x="259.49" y="18.6">o </tspan><tspan class="cls-27" x="271.13" y="18.6">f</tspan><tspan x="275.64" y="18.6">orm the </tspan><tspan class="cls-40" x="331.35" y="18.6">w</tspan><tspan x="343.16" y="18.6">o</tspan><tspan class="cls-12" x="351.39" y="18.6">r</tspan><tspan x="357.57" y="18.6">ds DJ, EK, and FL. </tspan><tspan x="22.79" y="37.2">He</tspan><tspan class="cls-12" x="40.99" y="37.2">r</tspan><tspan x="47.18" y="37.2">e th</tspan><tspan class="cls-38" x="71.95" y="37.2">e</tspan><tspan x="79.36" y="37.2">y a</tspan><tspan class="cls-12" x="98.15" y="37.2">r</tspan><tspan x="104.33" y="37.2">e along a ph</tspan><tspan class="cls-7" x="183.19" y="37.2">r</tspan><tspan x="189.33" y="37.2">ase </tspan><tspan class="cls-28" x="214.54" y="37.2">t</tspan><tspan x="219.65" y="37.2">o help </tspan><tspan class="cls-35" x="263.64" y="37.2">y</tspan><tspan x="271.15" y="37.2">ou </tspan><tspan class="cls-12" x="291.35" y="37.2">r</tspan><tspan x="297.53" y="37.2">emembe</tspan><tspan class="cls-37" x="354.49" y="37.2">r</tspan><tspan x="359.39" y="37.2">. </tspan><tspan class="cls-13" x="365.98" y="37.2">F</tspan><tspan x="373.69" y="37.2">eel f</tspan><tspan class="cls-12" x="401.13" y="37.2">r</tspan><tspan x="407.31" y="37.2">ee </tspan><tspan class="cls-28" x="425.84" y="37.2">t</tspan><tspan x="430.95" y="37.2">o c</tspan><tspan class="cls-12" x="449.43" y="37.2">r</tspan><tspan x="455.61" y="37.2">ea</tspan><tspan class="cls-28" x="470.74" y="37.2">t</tspan><tspan x="475.85" y="37.2">e </tspan><tspan class="cls-35" x="486.82" y="37.2">y</tspan><tspan x="494.33" y="37.2">our </tspan><tspan class="cls-33" x="520.94" y="37.2">o</tspan><tspan x="529.09" y="37.2">wn!</tspan></text>
  <text class="cls-19" transform="translate(76.23 684.37)"><tspan x="0" y="0">Using </tspan><tspan class="cls-12" x="40.73" y="0">r</tspan><tspan class="cls-38" x="46.92" y="0">e</tspan><tspan class="cls-35" x="54.33" y="0">v</tspan><tspan x="61.83" y="0">ersals, </tspan><tspan class="cls-35" x="107.49" y="0">y</tspan><tspan x="115" y="0">ou can use compound let</tspan><tspan class="cls-28" x="278.9" y="0">t</tspan><tspan x="284.01" y="0">ers </tspan><tspan class="cls-28" x="308.05" y="0">t</tspan><tspan x="313.16" y="0">o ma</tspan><tspan class="cls-7" x="345.27" y="0">k</tspan><tspan x="353.13" y="0">e </tspan><tspan class="cls-40" x="364.11" y="0">w</tspan><tspan x="375.91" y="0">o</tspan><tspan class="cls-12" x="384.14" y="0">r</tspan><tspan x="390.32" y="0">ds such as: </tspan><tspan x="163.87" y="18.6">DK, DL, EJ, EL, FJ, FK</tspan><tspan class="cls-5" x="-18.71" y="37.2">Y</tspan><tspan x="-11.24" y="37.2">ou can also combine these with the singular let</tspan><tspan class="cls-28" x="297.61" y="37.2">t</tspan><tspan x="302.72" y="37.2">ers </tspan><tspan class="cls-28" x="326.77" y="37.2">t</tspan><tspan x="331.88" y="37.2">o ma</tspan><tspan class="cls-7" x="363.98" y="37.2">k</tspan><tspan x="371.84" y="37.2">e </tspan><tspan class="cls-40" x="382.82" y="37.2">w</tspan><tspan x="394.63" y="37.2">o</tspan><tspan class="cls-12" x="402.85" y="37.2">r</tspan><tspan x="409.04" y="37.2">ds such as:</tspan><tspan class="cls-29" x="21.9" y="55.8">A</tspan><tspan x="31.43" y="55.8">J, AK, AL, BJ, BK, BL, CJ, CK, CL, G</tspan><tspan class="cls-32" x="242.6" y="55.8">D</tspan><tspan x="252.48" y="55.8">, GE, G</tspan><tspan class="cls-30" x="293.52" y="55.8">F</tspan><tspan x="300.24" y="55.8">, H</tspan><tspan class="cls-32" x="317.48" y="55.8">D</tspan><tspan x="327.35" y="55.8">, HE, H</tspan><tspan class="cls-30" x="370.74" y="55.8">F</tspan><tspan x="377.46" y="55.8">, I</tspan><tspan class="cls-32" x="389.08" y="55.8">D</tspan><tspan x="398.96" y="55.8">, IE, IF</tspan><tspan class="cls-34" x="-6.67" y="74.4">W</tspan><tspan x="6.71" y="74.4">e will </tspan><tspan class="cls-14" x="45.82" y="74.4">e</tspan><tspan x="53.2" y="74.4">xplo</tspan><tspan class="cls-12" x="81.75" y="74.4">r</tspan><tspan x="87.93" y="74.4">e </tspan><tspan class="cls-12" x="98.9" y="74.4">r</tspan><tspan class="cls-38" x="105.09" y="74.4">e</tspan><tspan class="cls-35" x="112.5" y="74.4">v</tspan><tspan x="120" y="74.4">ersals in detail la</tspan><tspan class="cls-28" x="231.53" y="74.4">t</tspan><tspan x="236.64" y="74.4">er on, but </tspan><tspan class="cls-27" x="303.2" y="74.4">f</tspan><tspan x="307.7" y="74.4">eel f</tspan><tspan class="cls-12" x="335.13" y="74.4">r</tspan><tspan x="341.32" y="74.4">ee </tspan><tspan class="cls-28" x="359.85" y="74.4">t</tspan><tspan x="364.96" y="74.4">o try them n</tspan><tspan class="cls-33" x="445.8" y="74.4">o</tspan><tspan class="cls-25" x="453.95" y="74.4">w</tspan><tspan x="464.82" y="74.4">.</tspan></text>
  <g>
    <g>
      <path class="cls-22" d="m110.08,537.54c3.22,0,3.22-5,0-5s-3.22,5,0,5h0Z"/>
      <path class="cls-22" d="m79.67,507.14c3.22,0,3.22-5,0-5s-3.22,5,0,5h0Z"/>
      <path class="cls-22" d="m49.27,537.54c3.22,0,3.22-5,0-5s-3.22,5,0,5h0Z"/>
      <path class="cls-22" d="m79.67,567.94c3.22,0,3.22-5,0-5s-3.22,5,0,5h0Z"/>
      <path class="cls-22" d="m79.67,536.16c1.45,0,1.45-2.25,0-2.25s-1.45,2.25,0,2.25h0Z"/>
    </g>
    <g>
      <path class="cls-22" d="m290.46,537.54c3.22,0,3.22-5,0-5s-3.22,5,0,5h0Z"/>
      <path class="cls-22" d="m260.05,507.14c3.22,0,3.22-5,0-5s-3.22,5,0,5h0Z"/>
      <path class="cls-22" d="m229.65,537.54c3.22,0,3.22-5,0-5s-3.22,5,0,5h0Z"/>
      <path class="cls-22" d="m260.05,567.94c3.22,0,3.22-5,0-5s-3.22,5,0,5h0Z"/>
      <path class="cls-22" d="m260.05,536.16c1.45,0,1.45-2.25,0-2.25s-1.45,2.25,0,2.25h0Z"/>
    </g>
    <g>
      <path class="cls-22" d="m470.84,538.17c3.22,0,3.22-5,0-5s-3.22,5,0,5h0Z"/>
      <path class="cls-22" d="m440.43,507.76c3.22,0,3.22-5,0-5s-3.22,5,0,5h0Z"/>
      <path class="cls-22" d="m410.03,538.17c3.22,0,3.22-5,0-5s-3.22,5,0,5h0Z"/>
      <path class="cls-22" d="m440.43,568.57c3.22,0,3.22-5,0-5s-3.22,5,0,5h0Z"/>
      <path class="cls-22" d="m440.43,536.79c1.45,0,1.45-2.25,0-2.25s-1.45,2.25,0,2.25h0Z"/>
    </g>
    <g>
      <path class="cls-22" d="m370.46,537.54c3.22,0,3.22-5,0-5s-3.22,5,0,5h0Z"/>
      <path class="cls-22" d="m340.05,507.14c3.22,0,3.22-5,0-5s-3.22,5,0,5h0Z"/>
      <path class="cls-22" d="m309.65,537.54c3.22,0,3.22-5,0-5s-3.22,5,0,5h0Z"/>
      <path class="cls-22" d="m340.05,567.94c3.22,0,3.22-5,0-5s-3.22,5,0,5h0Z"/>
      <path class="cls-22" d="m340.05,536.16c1.45,0,1.45-2.25,0-2.25s-1.45,2.25,0,2.25h0Z"/>
    </g>
    <g>
      <path class="cls-22" d="m550.84,538.17c3.22,0,3.22-5,0-5s-3.22,5,0,5h0Z"/>
      <path class="cls-22" d="m520.43,507.76c3.22,0,3.22-5,0-5s-3.22,5,0,5h0Z"/>
      <path class="cls-22" d="m490.03,538.17c3.22,0,3.22-5,0-5s-3.22,5,0,5h0Z"/>
      <path class="cls-22" d="m520.43,568.57c3.22,0,3.22-5,0-5s-3.22,5,0,5h0Z"/>
      <path class="cls-22" d="m520.43,536.79c1.45,0,1.45-2.25,0-2.25s-1.45,2.25,0,2.25h0Z"/>
    </g>
    <g>
      <path class="cls-22" d="m190.08,537.54c3.22,0,3.22-5,0-5s-3.22,5,0,5h0Z"/>
      <path class="cls-22" d="m159.67,507.14c3.22,0,3.22-5,0-5s-3.22,5,0,5h0Z"/>
      <path class="cls-22" d="m129.27,537.54c3.22,0,3.22-5,0-5s-3.22,5,0,5h0Z"/>
      <path class="cls-22" d="m159.67,567.94c3.22,0,3.22-5,0-5s-3.22,5,0,5h0Z"/>
      <path class="cls-22" d="m159.67,536.16c1.45,0,1.45-2.25,0-2.25s-1.45,2.25,0,2.25h0Z"/>
    </g>
    <rect class="cls-36" x="81.68" y="533.71" width="25.25" height="2.59" rx=".99" ry=".99"/>
    <rect class="cls-26" x="52.41" y="533.71" width="25.25" height="2.59" rx=".99" ry=".99" transform="translate(130.08 1070.02) rotate(-180)"/>
    <rect class="cls-36" x="262.06" y="533.6" width="25.25" height="2.59" rx=".99" ry=".99"/>
    <rect class="cls-26" x="232.79" y="533.6" width="25.25" height="2.59" rx=".99" ry=".99" transform="translate(490.84 1069.78) rotate(-180)"/>
    <rect class="cls-36" x="442.27" y="534.37" width="25.25" height="2.59" rx=".99" ry=".99"/>
    <rect class="cls-26" x="413" y="534.37" width="25.25" height="2.59" rx=".99" ry=".99" transform="translate(851.25 1071.33) rotate(-180)"/>
    <rect class="cls-26" x="144.91" y="548.12" width="25.25" height="2.59" rx=".99" ry=".99" transform="translate(706.95 391.88) rotate(90)"/>
    <rect class="cls-36" x="149.19" y="548.12" width="25.25" height="2.59" rx=".99" ry=".99" transform="translate(711.23 387.6) rotate(90)"/>
    <rect class="cls-26" x="505.68" y="548.64" width="25.25" height="2.59" rx=".99" ry=".99" transform="translate(1068.24 31.63) rotate(90)"/>
    <rect class="cls-36" x="509.96" y="548.64" width="25.25" height="2.59" rx=".99" ry=".99" transform="translate(1072.52 27.35) rotate(90)"/>
    <path class="cls-22" d="m76.11,572.49c4.37-1.23,7.49.31,7.54,3.51.1,5.84-7.12,5.72-7.42,5.37-.18-.68-.8-5.16-.12-8.88Zm1.52,7.25c3.72-.43,4.82-1.95,4.47-4.26s-4.06-1.95-4.58-1.7c-.24,3.39-.19,4.11.1,5.97Z"/>
    <path class="cls-22" d="m258.34,574.7c0,.35.02.98.02.98,0,0,2.1.01,3.39.07.48.02.89-.05.92.75.02.58-.38.71-.92.75-1.23.09-3.28.04-3.28.04,0,0,.02,1.12.06,1.58.03.38.1.85.1.85,0,0,3.4.01,3.78,0,.32,0,.88.3.78.81-.07.39-.4.8-.94.84-1.43.1-3.69.32-4.65-.37-.9-.65-.76-5.24-.36-8.5.08-.65,3.83-.68,4.76-.6.43.04.62.25.64.54.03.55,0,1.09-.56,1.12-1.33.07-3.71.16-3.71.16,0,0-.03.77-.02.99Z"/>
    <path class="cls-22" d="m437.81,580.84c-.21-2.15-.27-7.22-.03-8.91,0,0,1.79-.76,5.23-.44.43.04.62.25.64.54.03.55,0,1.09-.56,1.12-1.33.07-3.71.16-3.71.16,0,0-.03.77-.02.99,0,.35.02.98.02.98,0,0,2.1.01,3.39.07.48.02.89-.05.92.75.02.58-.38.71-.92.75-1.23.09-3.28.04-3.28.04.07,1.59.19,3.22.19,3.81,0,.69-.87.79-.96.81-.31.06-.87-.44-.89-.65Z"/>
    <path class="cls-22" d="m518.56,571.79c-.19,8.85-.94,7.8,4.1,7.75.71,0,1.24.12,1.24.85,0,.33-.44.77-1.2.77-4.71,0-4.71.13-5.33-.4-.49-.41-.42-1.9-.42-2.78,0-1.17.02-5.56.1-6.19.08-.62.33-.62.75-.62.38,0,.77.09.76.62Z"/>
    <path class="cls-22" d="m160.12,574.8c-.37-1.81.32-1.55-1.99-1.55-.49,0-1.11-.24-1.1-.84.02-.69.18-1.02,1.13-1.02.29,0,3.01-.14,5.21-.13.77,0,1.31.31,1.31,1.02,0,.57-.43.91-1.33.91-1.89,0-1.64-.27-1.64,1.65s.17,3.46-.22,4.25c-2.08,4.2-6.56,2.03-6.56-1.1,0-.59.16-.9.75-.94.53-.04.66.49.77.89.76,2.75,4.76,2.13,3.68-3.15Z"/>
    <path class="cls-22" d="m339.49,577.58c0,1.55,0,2.06,0,2.96,0,.63-.27.75-.76.75s-.89-.28-.89-.83c0-1.1-.04-5.88-.04-8.17,0-.5.33-.54.62-.54.39,0,.82.14.82.55,0,.97.08,3.02.08,3.02,0,0,1.78-1.67,2.39-2.31.39-.42.96-.48,1.24-.13.29.35.44.57-.09,1.1-.81.8-.99,1.16-2.35,2.41.79.82,2.08,1.9,3.44,3.46.43.49.33,1.08.16,1.24s-.76.22-1.14-.16c-.38-.38-1.83-2-3.48-3.34Z"/>
    <text class="cls-15" transform="translate(127.49 507.12)"><tspan x="0" y="0">2</tspan></text>
    <text class="cls-15" transform="translate(47.49 507.12)"><tspan x="0" y="0">1</tspan></text>
    <rect class="cls-26" x="325.29" y="547.98" width="25.25" height="2.59" rx=".99" ry=".99" transform="translate(887.19 211.36) rotate(90)"/>
    <rect class="cls-36" x="329.57" y="547.98" width="25.25" height="2.59" rx=".99" ry=".99" transform="translate(891.47 207.08) rotate(90)"/>
    <text class="cls-15" transform="translate(307.87 507.12)"><tspan x="0" y="0">2</tspan></text>
    <text class="cls-15" transform="translate(227.87 507.12)"><tspan x="0" y="0">1</tspan></text>
    <text class="cls-15" transform="translate(488.25 507.74)"><tspan x="0" y="0">2</tspan></text>
    <text class="cls-15" transform="translate(408.25 507.74)"><tspan x="0" y="0">1</tspan></text>
    <line class="cls-1" x1="209.87" y1="500.14" x2="209.87" y2="615.55"/>
    <line class="cls-1" x1="390.24" y1="500.14" x2="390.24" y2="615.55"/>
    <text class="cls-21" transform="translate(71.9 606.88)"><tspan class="cls-41" x="0" y="0">DJ - </tspan><tspan class="cls-23" x="29.72" y="0">Disco Jam</tspan></text>
    <text class="cls-21" transform="translate(236.46 606.88)"><tspan class="cls-41" x="0" y="0">EK - </tspan><tspan class="cls-23" x="30.86" y="0">Explorer Kitten</tspan></text>
    <text class="cls-21" transform="translate(425.62 606.88)"><tspan class="cls-41" x="0" y="0">FL - </tspan><tspan class="cls-23" x="28.83" y="0">Fruity Loops</tspan></text>
    <path class="cls-36" d="m84.84,507.12c11.89,0,22.68,9.57,22.72,21.38l2.41-2.65s1.11,1.01.54,1.85c-.65.95-3.93,4.08-3.93,4.08,0,0-3.32-2.66-4.21-3.8-.63-.81.43-1.89.43-1.89l2.78,2.61c-.03-8.93-7.32-18.79-20.74-19.5-1.57-.08-1.62-2.09,0-2.08Z"/>
    <path class="cls-36" d="m189.34,539.61c0,11.89-9.57,22.68-21.38,22.72l2.65,2.41s-1.01,1.11-1.85.54c-.95-.65-4.08-3.93-4.08-3.93,0,0,2.66-3.32,3.8-4.21.81-.63,1.89.43,1.89.43l-2.61,2.78c8.93-.03,18.79-7.32,19.5-20.74.08-1.57,2.09-1.62,2.08,0Z"/>
    <path class="cls-36" d="m444.87,507.12c11.89,0,22.68,9.57,22.72,21.38l2.41-2.65s1.11,1.01.54,1.85c-.65.95-3.93,4.08-3.93,4.08,0,0-3.32-2.66-4.21-3.8-.63-.81.43-1.89.43-1.89l2.78,2.61c-.03-8.93-7.32-18.79-20.74-19.5-1.57-.08-1.62-2.09,0-2.08Z"/>
    <path class="cls-36" d="m549.36,539.61c0,11.89-9.57,22.68-21.38,22.72l2.65,2.41s-1.01,1.11-1.85.54c-.95-.65-4.08-3.93-4.08-3.93,0,0,2.66-3.32,3.8-4.21.81-.63,1.89.43,1.89.43l-2.61,2.78c8.93-.03,18.79-7.32,19.5-20.74.08-1.57,2.09-1.62,2.08,0Z"/>
    <path class="cls-26" d="m130.01,539.61c0,11.89,9.57,22.68,21.38,22.72l-2.65,2.41s1.01,1.11,1.85.54c.95-.65,4.08-3.93,4.08-3.93,0,0-2.66-3.32-3.8-4.21-.81-.63-1.89.43-1.89.43l2.61,2.78c-8.93-.03-18.79-7.32-19.5-20.74-.08-1.57-2.09-1.62-2.08,0Z"/>
    <path class="cls-26" d="m74.5,507.12c-11.89,0-22.68,9.57-22.72,21.38l-2.41-2.65s-1.11,1.01-.54,1.85c.65.95,3.93,4.08,3.93,4.08,0,0,3.32-2.66,4.21-3.8.63-.81-.43-1.89-.43-1.89l-2.78,2.61c.03-8.93,7.32-18.79,20.74-19.5,1.57-.08,1.62-2.09,0-2.08Z"/>
    <path class="cls-26" d="m256.16,507.18c0,19.4-1.3,21.27-20.15,21.27l2.72,2.66s-1.04,1.1-1.87.5c-1.18-.85-3.95-4.08-3.95-4.08,0,0,3.01-3.38,3.95-4.07.82-.6,1.87.48,1.87.48l-2.72,2.56c17.27,0,18.08-1,18.08-19.29,0-1.51,2.07-1.51,2.07-.03Z"/>
    <path class="cls-36" d="m263.95,507.18c0,19.4,1.3,21.27,20.15,21.27l-2.72,2.66s1.04,1.1,1.87.5c1.18-.85,3.95-4.08,3.95-4.08,0,0-3.01-3.38-3.95-4.07-.82-.6-1.87.48-1.87.48l2.72,2.56c-17.27,0-18.08-1-18.08-19.29,0-1.51-2.07-1.51-2.07-.03Z"/>
    <path class="cls-36" d="m369.53,539.03c-19.4,0-21.27,1.3-21.27,20.15l-2.66-2.72s-1.1,1.04-.5,1.87c.85,1.18,4.08,3.95,4.08,3.95,0,0,3.38-3.01,4.07-3.95.6-.82-.48-1.87-.48-1.87l-2.56,2.72c0-17.27,1-18.08,19.29-18.08,1.51,0,1.51-2.07.03-2.07Z"/>
    <path class="cls-26" d="m310.58,539.03c19.4,0,21.27,1.3,21.27,20.15l2.66-2.72s1.1,1.04.5,1.87c-.85,1.18-4.08,3.95-4.08,3.95,0,0-3.38-3.01-4.07-3.95-.6-.82.48-1.87.48-1.87l2.56,2.72c0-17.27-1-18.08-19.29-18.08-1.51,0-1.51-2.07-.03-2.07Z"/>
    <path class="cls-26" d="m436.26,507.37c0,19.4-1.3,21.27-20.15,21.27l2.72,2.66s-1.04,1.1-1.87.5c-1.18-.85-3.95-4.08-3.95-4.08,0,0,3.01-3.38,3.95-4.07.82-.6,1.87.48,1.87.48l-2.72,2.56c17.27,0,18.08-1,18.08-19.29,0-1.51,2.07-1.51,2.07-.03Z"/>
    <path class="cls-26" d="m490.68,539.22c19.4,0,21.27,1.3,21.27,20.15l2.66-2.72s1.1,1.04.5,1.87c-.85,1.18-4.08,3.95-4.08,3.95,0,0-3.38-3.01-4.07-3.95-.6-.82.48-1.87.48-1.87l2.56,2.72c0-17.27-1-18.08-19.29-18.08-1.51,0-1.51-2.07-.03-2.07Z"/>
  </g>
  <g>
    <g>
      <path class="cls-22" d="m93.7,267.2c4.64-1.3,7.94.33,7.99,3.72.1,6.19-7.54,6.06-7.86,5.69-.19-.72-.85-5.47-.13-9.41Zm1.61,7.69c3.94-.46,5.1-2.07,4.74-4.52-.36-2.45-4.31-2.07-4.85-1.81-.26,3.6-.2,4.36.11,6.32Z"/>
      <path class="cls-22" d="m185.76,269.75c0,.36.02,1.02.02,1.02,0,0,2.18.01,3.53.07.5.02.9-.07.95.78.04.6-.32.73-.87.77-1.28.09-3.49.05-3.49.05,0,0,.03,1.16.07,1.65.03.39.1.88.1.88,0,0,3.53.01,3.93,0,.33,0,.84,0,.81.84-.03.89-.42.83-.98.87-1.49.1-4.12,0-4.84-.38-1.02-.55-.79-5.46-.37-8.84.08-.67,3.98-.71,4.96-.62.44.04.67.53.67.82,0,.31,0,.87-.59.9-1.38.08-3.86.16-3.86.16,0,0-.03.8-.02,1.03Z"/>
      <path class="cls-22" d="m274.72,276.11c-.21-2.13-.27-7.16-.03-8.83,0,0,1.78-.75,5.18-.44.42.04.62.25.63.53.03.54,0,1.08-.55,1.11-1.32.07-3.68.15-3.68.15,0,0-.03.76-.02.98,0,.34.02.97.02.97,0,0,2.08.01,3.36.07.47.02.88-.05.91.74.02.57-.38.7-.91.74-1.22.09-3.25.04-3.25.04.07,1.57.19,3.19.19,3.78,0,.69-.57.8-.97.8-.59,0-.85-.44-.87-.65Z"/>
      <path class="cls-22" d="m275.66,387.38c-.19,8.85-.94,7.8,4.1,7.75.71,0,1.24.12,1.24.84,0,.33-.44.77-1.2.77-4.71,0-4.71.13-5.33-.4-.49-.41-.42-1.9-.42-2.78,0-1.17.02-5.56.1-6.18s.33-.62.75-.62c.38,0,.77.09.76.62Z"/>
      <path class="cls-22" d="m97.74,390.33c-.23-1.81.31-1.52-1.96-1.52-.48,0-1.1-.23-1.08-.83.02-.68.18-1,1.11-1,.29,0,2.96-.14,5.13-.13.75,0,1.29.31,1.29,1,0,.56-.42.9-1.31.9-1.86,0-1.61-.26-1.61,1.62,0,2.18.1,3.12-.28,3.9-2.04,4.14-6.19,2.28-6.19-.8,0-.58.16-.88.74-.92.52-.04.65.48.76.88.75,2.71,4.08,2.04,3.42-3.1Z"/>
      <path class="cls-22" d="m185.92,392.87c0,1.63,0,2.16,0,3.1,0,.66-.29.79-.8.79s-.93-.29-.93-.87c0-1.15-.04-6.16-.04-8.56,0-.52.34-.57.65-.57.41,0,.86.14.86.57,0,1.02.08,3.16.08,3.16,0,0,1.87-1.75,2.5-2.42.41-.44,1-.5,1.3-.14.3.36.47.6-.1,1.15-.85.84-1.04,1.21-2.46,2.53.83.86,2.18,1.99,3.61,3.62.45.51.34,1.14.17,1.3s-.8.24-1.19-.17-1.92-2.09-3.65-3.5Z"/>
      <path class="cls-36" d="m191.72,199.44c0,19.4,1.3,21.27,20.15,21.27l-2.72,2.66s1.04,1.1,1.87.5c1.18-.85,3.95-4.08,3.95-4.08,0,0-3.01-3.38-3.95-4.07-.82-.6-1.87.48-1.87.48l2.72,2.56c-17.27,0-18.08-1-18.08-19.29,0-1.45-2.07-1.48-2.07-.03Z"/>
      <path class="cls-26" d="m183.34,199.44c0,19.4-1.3,21.27-20.15,21.27l2.72,2.66s-1.04,1.1-1.87.5c-1.18-.85-3.95-4.08-3.95-4.08,0,0,3.01-3.38,3.95-4.07.82-.6,1.87.48,1.87.48l-2.72,2.56c17.27,0,18.08-1,18.08-19.29,0-1.45,2.07-1.48,2.07-.03Z"/>
      <path class="cls-26" d="m273.49,199.44c0,19.4-1.3,21.27-20.15,21.27l2.72,2.66s-1.04,1.1-1.87.5c-1.18-.85-3.95-4.08-3.95-4.08,0,0,3.01-3.38,3.95-4.07.82-.6,1.87.48,1.87.48l-2.72,2.56c17.27,0,18.08-1,18.08-19.29,0-1.45,2.07-1.48,2.07-.03Z"/>
      <path class="cls-36" d="m102.42,198.04c11.89,0,22.68,9.57,22.72,21.38l2.41-2.65s1.11,1.01.54,1.85c-.65.95-3.93,4.08-3.93,4.08,0,0-3.32-2.66-4.21-3.8-.63-.81.43-1.89.43-1.89l2.78,2.61c-.03-8.93-7.32-18.79-20.74-19.5-1.57-.08-1.62-2.09,0-2.08Z"/>
      <path class="cls-36" d="m282.42,198.04c11.89,0,22.68,9.57,22.72,21.38l2.41-2.65s1.11,1.01.54,1.85c-.65.95-3.93,4.08-3.93,4.08,0,0-3.32-2.66-4.21-3.8-.63-.81.43-1.89.43-1.89l2.78,2.61c-.03-8.93-7.32-18.79-20.74-19.5-1.57-.08-1.62-2.09,0-2.08Z"/>
      <path class="cls-26" d="m92.63,198.04c-11.89,0-22.68,9.57-22.72,21.38l-2.41-2.65s-1.11,1.01-.54,1.85c.65.95,3.93,4.08,3.93,4.08,0,0,3.32-2.66,4.21-3.8.63-.81-.43-1.89-.43-1.89l-2.78,2.61c.03-8.93,7.32-18.79,20.74-19.5,1.57-.08,1.62-2.09,0-2.08Z"/>
      <path class="cls-36" d="m216.17,351.86c-19.4,0-21.27,1.3-21.27,20.15l-2.66-2.72s-1.1,1.04-.5,1.87c.85,1.18,4.08,3.95,4.08,3.95,0,0,3.38-3.01,4.07-3.95.6-.82-.48-1.87-.48-1.87l-2.56,2.72c0-17.27,1-18.08,19.29-18.08,1.45,0,1.48-2.07.03-2.07Z"/>
      <path class="cls-26" d="m158.88,351.86c19.4,0,21.27,1.3,21.27,20.15l2.66-2.72s1.1,1.04.5,1.87c-.85,1.18-4.08,3.95-4.08,3.95,0,0-3.38-3.01-4.07-3.95-.6-.82.48-1.87.48-1.87l2.56,2.72c0-17.27-1-18.08-19.29-18.08-1.45,0-1.48-2.07-.03-2.07Z"/>
      <path class="cls-26" d="m248.88,351.86c19.4,0,21.27,1.3,21.27,20.15l2.66-2.72s1.1,1.04.5,1.87c-.85,1.18-4.08,3.95-4.08,3.95,0,0-3.38-3.01-4.07-3.95-.6-.82.48-1.87.48-1.87l2.56,2.72c0-17.27-1-18.08-19.29-18.08-1.45,0-1.48-2.07-.03-2.07Z"/>
      <path class="cls-36" d="m126.44,352.27c0,11.89-9.57,22.68-21.38,22.72l2.65,2.41s-1.01,1.11-1.85.54c-.95-.65-4.08-3.93-4.08-3.93,0,0,2.66-3.32,3.8-4.21.81-.63,1.89.43,1.89.43l-2.61,2.78c8.93-.03,18.79-7.32,19.5-20.74.08-1.57,2.09-1.62,2.08,0Z"/>
      <path class="cls-26" d="m68.61,352.27c0,11.89,9.57,22.68,21.38,22.72l-2.65,2.41s1.01,1.11,1.85.54c.95-.65,4.08-3.93,4.08-3.93,0,0-2.66-3.32-3.8-4.21-.81-.63-1.89.43-1.89.43l2.61,2.78c-8.93-.03-18.79-7.32-19.5-20.74-.08-1.57-2.09-1.62-2.08,0Z"/>
      <path class="cls-36" d="m306.15,352.94c0,11.89-9.57,22.68-21.38,22.72l2.65,2.41s-1.01,1.11-1.85.54c-.95-.65-4.08-3.93-4.08-3.93,0,0,2.66-3.32,3.8-4.21.81-.63,1.89.43,1.89.43l-2.61,2.78c8.93-.03,18.79-7.32,19.5-20.74.08-1.57,2.09-1.62,2.08,0Z"/>
      <path class="cls-22" d="m127.53,230.1c3.22,0,3.22-5,0-5s-3.22,5,0,5h0Z"/>
      <path class="cls-22" d="m97.53,200.1c3.22,0,3.22-5,0-5s-3.22,5,0,5h0Z"/>
      <path class="cls-22" d="m67.53,230.1c3.22,0,3.22-5,0-5s-3.22,5,0,5h0Z"/>
      <path class="cls-22" d="m97.53,260.1c3.22,0,3.22-5,0-5s-3.22,5,0,5h0Z"/>
      <path class="cls-22" d="m97.53,228.72c1.45,0,1.45-2.25,0-2.25s-1.45,2.25,0,2.25h0Z"/>
      <path class="cls-22" d="m217.53,230.1c3.22,0,3.22-5,0-5s-3.22,5,0,5h0Z"/>
      <path class="cls-22" d="m187.53,200.1c3.22,0,3.22-5,0-5s-3.22,5,0,5h0Z"/>
      <path class="cls-22" d="m157.53,230.1c3.22,0,3.22-5,0-5s-3.22,5,0,5h0Z"/>
      <path class="cls-22" d="m187.53,260.1c3.22,0,3.22-5,0-5s-3.22,5,0,5h0Z"/>
      <path class="cls-22" d="m187.53,228.72c1.45,0,1.45-2.25,0-2.25s-1.45,2.25,0,2.25h0Z"/>
      <path class="cls-22" d="m307.53,230.1c3.22,0,3.22-5,0-5s-3.22,5,0,5h0Z"/>
      <path class="cls-22" d="m277.53,200.1c3.22,0,3.22-5,0-5s-3.22,5,0,5h0Z"/>
      <path class="cls-22" d="m247.53,230.1c3.22,0,3.22-5,0-5s-3.22,5,0,5h0Z"/>
      <path class="cls-22" d="m277.53,260.1c3.22,0,3.22-5,0-5s-3.22,5,0,5h0Z"/>
      <path class="cls-22" d="m277.53,228.72c1.45,0,1.45-2.25,0-2.25s-1.45,2.25,0,2.25h0Z"/>
      <path class="cls-22" d="m127.53,350.1c3.22,0,3.22-5,0-5s-3.22,5,0,5h0Z"/>
      <path class="cls-22" d="m97.53,320.1c3.22,0,3.22-5,0-5s-3.22,5,0,5h0Z"/>
      <path class="cls-22" d="m67.53,350.1c3.22,0,3.22-5,0-5s-3.22,5,0,5h0Z"/>
      <path class="cls-22" d="m97.53,380.1c3.22,0,3.22-5,0-5s-3.22,5,0,5h0Z"/>
      <path class="cls-22" d="m97.53,348.72c1.45,0,1.45-2.25,0-2.25s-1.45,2.25,0,2.25h0Z"/>
      <path class="cls-22" d="m217.53,350.1c3.22,0,3.22-5,0-5s-3.22,5,0,5h0Z"/>
      <path class="cls-22" d="m187.53,320.1c3.22,0,3.22-5,0-5s-3.22,5,0,5h0Z"/>
      <path class="cls-22" d="m157.53,350.1c3.22,0,3.22-5,0-5s-3.22,5,0,5h0Z"/>
      <path class="cls-22" d="m187.53,380.1c3.22,0,3.22-5,0-5s-3.22,5,0,5h0Z"/>
      <path class="cls-22" d="m187.53,348.72c1.45,0,1.45-2.25,0-2.25s-1.45,2.25,0,2.25h0Z"/>
      <path class="cls-22" d="m307.53,350.1c3.22,0,3.22-5,0-5s-3.22,5,0,5h0Z"/>
      <path class="cls-22" d="m277.53,320.1c3.22,0,3.22-5,0-5s-3.22,5,0,5h0Z"/>
      <path class="cls-22" d="m247.53,350.1c3.22,0,3.22-5,0-5s-3.22,5,0,5h0Z"/>
      <path class="cls-22" d="m277.53,380.1c3.22,0,3.22-5,0-5s-3.22,5,0,5h0Z"/>
      <path class="cls-22" d="m277.53,348.72c1.45,0,1.45-2.25,0-2.25s-1.45,2.25,0,2.25h0Z"/>
      <line class="cls-4" x1="17.56" y1="293.41" x2="577.53" y2="293.41"/>
      <line class="cls-3" x1="323.03" y1="415.52" x2="323.03" y2="156.59"/>
      <rect class="cls-26" x="94.6" y="349.62" width="2.5" height="24.34" rx=".95" ry=".95"/>
      <rect class="cls-36" x="97.95" y="349.62" width="2.5" height="24.34" rx=".95" ry=".95"/>
      <rect class="cls-26" x="184.6" y="349.62" width="2.5" height="24.34" rx=".95" ry=".95"/>
      <rect class="cls-36" x="187.95" y="349.62" width="2.5" height="24.34" rx=".95" ry=".95"/>
      <rect class="cls-26" x="274.6" y="349.62" width="2.5" height="24.34" rx=".95" ry=".95"/>
      <rect class="cls-36" x="277.95" y="349.62" width="2.5" height="24.34" rx=".95" ry=".95"/>
      <rect class="cls-36" x="99.63" y="226.35" width="24.34" height="2.5" rx=".95" ry=".95"/>
      <rect class="cls-26" x="71.08" y="226.35" width="24.34" height="2.5" rx=".95" ry=".95"/>
      <rect class="cls-36" x="189.63" y="226.35" width="24.34" height="2.5" rx=".95" ry=".95"/>
      <rect class="cls-26" x="161.08" y="226.35" width="24.34" height="2.5" rx=".95" ry=".95"/>
      <rect class="cls-36" x="279.63" y="226.35" width="24.34" height="2.5" rx=".95" ry=".95"/>
      <rect class="cls-26" x="251.08" y="226.35" width="24.34" height="2.5" rx=".95" ry=".95"/>
      <path class="cls-22" d="m363.7,267.2c4.64-1.3,7.94.33,7.99,3.72.1,6.19-7.54,6.06-7.86,5.69-.19-.72-.85-5.47-.13-9.41Zm1.61,7.69c3.94-.46,5.1-2.07,4.74-4.52-.36-2.45-4.31-2.07-4.85-1.81-.26,3.6-.2,4.36.11,6.32Z"/>
      <path class="cls-22" d="m455.76,269.75c0,.36.02,1.02.02,1.02,0,0,2.18.01,3.53.07.5.02.9-.07.95.78.04.6-.32.73-.87.77-1.28.09-3.49.05-3.49.05,0,0,.03,1.16.07,1.65.03.39.1.88.1.88,0,0,3.53.01,3.93,0,.33,0,.84,0,.81.84-.03.89-.42.83-.98.87-1.49.1-4.12,0-4.84-.38-1.02-.55-.79-5.46-.37-8.84.08-.67,3.98-.71,4.96-.62.44.04.67.53.67.82,0,.31,0,.87-.59.9-1.38.08-3.86.16-3.86.16,0,0-.03.8-.02,1.03Z"/>
      <path class="cls-22" d="m544.72,276.11c-.21-2.13-.27-7.16-.03-8.83,0,0,1.78-.75,5.18-.44.42.04.62.25.63.53.03.54,0,1.08-.55,1.11-1.32.07-3.68.15-3.68.15,0,0-.03.76-.02.98,0,.34.02.97.02.97,0,0,2.08.01,3.36.07.47.02.88-.05.91.74.02.57-.38.7-.91.74-1.22.09-3.25.04-3.25.04.07,1.57.19,3.19.19,3.78,0,.69-.57.8-.97.8-.59,0-.85-.44-.87-.65Z"/>
      <path class="cls-22" d="m545.66,387.38c-.19,8.85-.94,7.8,4.1,7.75.71,0,1.24.12,1.24.84,0,.33-.44.77-1.2.77-4.71,0-4.71.13-5.33-.4-.49-.41-.42-1.9-.42-2.78,0-1.17.02-5.56.1-6.18.08-.62.33-.62.75-.62.38,0,.77.09.76.62Z"/>
      <path class="cls-22" d="m367.74,390.33c-.23-1.81.31-1.52-1.96-1.52-.48,0-1.1-.23-1.08-.83.02-.68.18-1,1.11-1,.29,0,2.96-.14,5.13-.13.75,0,1.29.31,1.29,1,0,.56-.42.9-1.31.9-1.86,0-1.61-.26-1.61,1.62,0,2.18.1,3.12-.28,3.9-2.04,4.14-6.19,2.28-6.19-.8,0-.58.16-.88.74-.92.52-.04.65.48.76.88.75,2.71,4.08,2.04,3.42-3.1Z"/>
      <path class="cls-22" d="m455.92,392.87c0,1.63,0,2.16,0,3.1,0,.66-.29.79-.8.79s-.93-.29-.93-.87c0-1.15-.04-6.16-.04-8.56,0-.52.34-.57.65-.57.41,0,.86.14.86.57,0,1.02.08,3.16.08,3.16,0,0,1.87-1.75,2.5-2.42.41-.44,1-.5,1.3-.14.3.36.47.6-.1,1.15-.85.84-1.04,1.21-2.46,2.53.83.86,2.18,1.99,3.61,3.62.45.51.34,1.14.17,1.3s-.8.24-1.19-.17-1.92-2.09-3.65-3.5Z"/>
      <path class="cls-36" d="m429.37,223.41c19.4,0,21.27-1.3,21.27-20.15l2.66,2.72s1.1-1.04.5-1.87c-.85-1.18-4.08-3.95-4.08-3.95,0,0-3.38,3.01-4.07,3.95-.6.82.48,1.87.48,1.87l2.56-2.72c0,17.27-1,18.08-19.29,18.08-1.45,0-1.48,2.07-.03,2.07Z"/>
      <path class="cls-26" d="m429.37,231.79c19.4,0,21.27,1.3,21.27,20.15l2.66-2.72s1.1,1.04.5,1.87c-.85,1.18-4.08,3.95-4.08,3.95,0,0-3.38-3.01-4.07-3.95-.6-.82.48-1.87.48-1.87l2.56,2.72c0-17.27-1-18.08-19.29-18.08-1.45,0-1.48-2.07-.03-2.07Z"/>
      <path class="cls-26" d="m519.37,231.63c19.4,0,21.27,1.3,21.27,20.15l2.66-2.72s1.1,1.04.5,1.87c-.85,1.18-4.08,3.95-4.08,3.95,0,0-3.38-3.01-4.07-3.95-.6-.82.48-1.87.48-1.87l2.56,2.72c0-17.27-1-18.08-19.29-18.08-1.45,0-1.48-2.07-.03-2.07Z"/>
      <path class="cls-36" d="m337.97,222.7c0-11.89,9.57-22.68,21.38-22.72l-2.65-2.41s1.01-1.11,1.85-.54c.95.65,4.08,3.93,4.08,3.93,0,0-2.66,3.32-3.8,4.21-.81.63-1.89-.43-1.89-.43l2.61-2.78c-8.93.03-18.79,7.32-19.5,20.74-.08,1.57-2.09,1.62-2.08,0Z"/>
      <path class="cls-36" d="m517.97,222.7c0-11.89,9.57-22.68,21.38-22.72l-2.65-2.41s1.01-1.11,1.85-.54c.95.65,4.08,3.93,4.08,3.93,0,0-2.66,3.32-3.8,4.21-.81.63-1.89-.43-1.89-.43l2.61-2.78c-8.93.03-18.79,7.32-19.5,20.74-.08,1.57-2.09,1.62-2.08,0Z"/>
      <path class="cls-26" d="m337.97,232.49c0,11.89,9.57,22.68,21.38,22.72l-2.65,2.41s1.01,1.11,1.85.54c.95-.65,4.08-3.93,4.08-3.93,0,0-2.66-3.32-3.8-4.21-.81-.63-1.89.43-1.89.43l2.61,2.78c-8.93-.03-18.79-7.32-19.5-20.74-.08-1.57-2.09-1.62-2.08,0Z"/>
      <path class="cls-36" d="m461.79,318.95c0,19.4,1.3,21.27,20.15,21.27l-2.72,2.66s1.04,1.1,1.87.5c1.18-.85,3.95-4.08,3.95-4.08,0,0-3.01-3.38-3.95-4.07-.82-.6-1.87.48-1.87.48l2.72,2.56c-17.27,0-18.08-1-18.08-19.29,0-1.45-2.07-1.48-2.07-.03Z"/>
      <path class="cls-26" d="m461.79,376.24c0-19.4,1.3-21.27,20.15-21.27l-2.72-2.66s1.04-1.1,1.87-.5c1.18.85,3.95,4.08,3.95,4.08,0,0-3.01,3.38-3.95,4.07-.82.6-1.87-.48-1.87-.48l2.72-2.56c-17.27,0-18.08,1-18.08,19.29,0,1.45-2.07,1.48-2.07.03Z"/>
      <path class="cls-26" d="m551.79,376.24c0-19.4,1.3-21.27,20.15-21.27l-2.72-2.66s1.04-1.1,1.87-.5c1.18.85,3.95,4.08,3.95,4.08,0,0-3.01,3.38-3.95,4.07-.82.6-1.87-.48-1.87-.48l2.72-2.56c-17.27,0-18.08,1-18.08,19.29,0,1.45-2.07,1.48-2.07.03Z"/>
      <path class="cls-36" d="m372.2,318.68c11.89,0,22.68,9.57,22.72,21.38l2.41-2.65s1.11,1.01.54,1.85c-.65.95-3.93,4.08-3.93,4.08,0,0-3.32-2.66-4.21-3.8-.63-.81.43-1.89.43-1.89l2.78,2.61c-.03-8.93-7.32-18.79-20.74-19.5-1.57-.08-1.62-2.09,0-2.08Z"/>
      <path class="cls-26" d="m372.2,376.51c11.89,0,22.68-9.57,22.72-21.38l2.41,2.65s1.11-1.01.54-1.85c-.65-.95-3.93-4.08-3.93-4.08,0,0-3.32,2.66-4.21,3.8-.63.81.43,1.89.43,1.89l2.78-2.61c-.03,8.93-7.32,18.79-20.74,19.5-1.57.08-1.62,2.09,0,2.08Z"/>
      <path class="cls-36" d="m552.87,318.98c11.89,0,22.68,9.57,22.72,21.38l2.41-2.65s1.11,1.01.54,1.85c-.65.95-3.93,4.08-3.93,4.08,0,0-3.32-2.66-4.21-3.8-.63-.81.43-1.89.43-1.89l2.78,2.61c-.03-8.93-7.32-18.79-20.74-19.5-1.57-.08-1.62-2.09,0-2.08Z"/>
      <path class="cls-22" d="m367.53,200.1c3.22,0,3.22-5,0-5s-3.22,5,0,5h0Z"/>
      <path class="cls-22" d="m337.53,230.1c3.22,0,3.22-5,0-5s-3.22,5,0,5h0Z"/>
      <path class="cls-22" d="m367.53,260.1c3.22,0,3.22-5,0-5s-3.22,5,0,5h0Z"/>
      <path class="cls-22" d="m397.53,230.1c3.22,0,3.22-5,0-5s-3.22,5,0,5h0Z"/>
      <path class="cls-22" d="m367.53,228.72c1.45,0,1.45-2.25,0-2.25s-1.45,2.25,0,2.25h0Z"/>
      <path class="cls-22" d="m457.53,200.1c3.22,0,3.22-5,0-5s-3.22,5,0,5h0Z"/>
      <path class="cls-22" d="m427.53,230.1c3.22,0,3.22-5,0-5s-3.22,5,0,5h0Z"/>
      <path class="cls-22" d="m457.53,260.1c3.22,0,3.22-5,0-5s-3.22,5,0,5h0Z"/>
      <path class="cls-22" d="m487.53,230.1c3.22,0,3.22-5,0-5s-3.22,5,0,5h0Z"/>
      <path class="cls-22" d="m457.53,228.72c1.45,0,1.45-2.25,0-2.25s-1.45,2.25,0,2.25h0Z"/>
      <path class="cls-22" d="m547.53,200.1c3.22,0,3.22-5,0-5s-3.22,5,0,5h0Z"/>
      <path class="cls-22" d="m517.53,230.1c3.22,0,3.22-5,0-5s-3.22,5,0,5h0Z"/>
      <path class="cls-22" d="m547.53,260.1c3.22,0,3.22-5,0-5s-3.22,5,0,5h0Z"/>
      <path class="cls-22" d="m577.53,230.1c3.22,0,3.22-5,0-5s-3.22,5,0,5h0Z"/>
      <path class="cls-22" d="m547.53,228.72c1.45,0,1.45-2.25,0-2.25s-1.45,2.25,0,2.25h0Z"/>
      <path class="cls-22" d="m367.53,320.1c3.22,0,3.22-5,0-5s-3.22,5,0,5h0Z"/>
      <path class="cls-22" d="m337.53,350.1c3.22,0,3.22-5,0-5s-3.22,5,0,5h0Z"/>
      <path class="cls-22" d="m367.53,380.1c3.22,0,3.22-5,0-5s-3.22,5,0,5h0Z"/>
      <path class="cls-22" d="m397.53,350.1c3.22,0,3.22-5,0-5s-3.22,5,0,5h0Z"/>
      <path class="cls-22" d="m367.53,348.72c1.45,0,1.45-2.25,0-2.25s-1.45,2.25,0,2.25h0Z"/>
      <path class="cls-22" d="m457.53,320.1c3.22,0,3.22-5,0-5s-3.22,5,0,5h0Z"/>
      <path class="cls-22" d="m427.53,350.1c3.22,0,3.22-5,0-5s-3.22,5,0,5h0Z"/>
      <path class="cls-22" d="m457.53,380.1c3.22,0,3.22-5,0-5s-3.22,5,0,5h0Z"/>
      <path class="cls-22" d="m487.53,350.1c3.22,0,3.22-5,0-5s-3.22,5,0,5h0Z"/>
      <path class="cls-22" d="m457.53,348.72c1.45,0,1.45-2.25,0-2.25s-1.45,2.25,0,2.25h0Z"/>
      <path class="cls-22" d="m547.53,320.1c3.22,0,3.22-5,0-5s-3.22,5,0,5h0Z"/>
      <path class="cls-22" d="m517.53,350.1c3.22,0,3.22-5,0-5s-3.22,5,0,5h0Z"/>
      <path class="cls-22" d="m547.53,380.1c3.22,0,3.22-5,0-5s-3.22,5,0,5h0Z"/>
      <path class="cls-22" d="m577.53,350.1c3.22,0,3.22-5,0-5s-3.22,5,0,5h0Z"/>
      <path class="cls-22" d="m547.53,348.72c1.45,0,1.45-2.25,0-2.25s-1.45,2.25,0,2.25h0Z"/>
      <rect class="cls-26" x="369.55" y="348.02" width="24.34" height="2.5" rx=".95" ry=".95"/>
      <rect class="cls-36" x="369.55" y="344.67" width="24.34" height="2.5" rx=".95" ry=".95"/>
      <rect class="cls-26" x="459.55" y="348.02" width="24.34" height="2.5" rx=".95" ry=".95"/>
      <rect class="cls-36" x="459.55" y="344.67" width="24.34" height="2.5" rx=".95" ry=".95"/>
      <rect class="cls-26" x="549.55" y="348.02" width="24.34" height="2.5" rx=".95" ry=".95"/>
      <rect class="cls-36" x="549.55" y="344.67" width="24.34" height="2.5" rx=".95" ry=".95"/>
      <rect class="cls-36" x="366.28" y="201.15" width="2.5" height="24.34" rx=".95" ry=".95"/>
      <rect class="cls-26" x="366.28" y="229.7" width="2.5" height="24.34" rx=".95" ry=".95"/>
      <rect class="cls-36" x="456.28" y="201.15" width="2.5" height="24.34" rx=".95" ry=".95"/>
      <rect class="cls-26" x="456.28" y="229.7" width="2.5" height="24.34" rx=".95" ry=".95"/>
      <rect class="cls-36" x="546.28" y="201.15" width="2.5" height="24.34" rx=".95" ry=".95"/>
      <rect class="cls-26" x="546.28" y="229.7" width="2.5" height="24.34" rx=".95" ry=".95"/>
      <path class="cls-22" d="m28.45,304.75c-.65,0-.94.25-1.28.66-.17.19-.39,1.18-.75.55-.75-1.29.02-4.57,1.06-6.02.28-.37-.11-.59-.3-.7,0,0-.42-.22-.64-.14-.29.1-.6-.12-1.39,1.64-1.19-1.37-2.58-1.19-3.53-1.15-.84.04-3.37.97-3.37,3.93,0,3.55,3.05,4.21,3.97,4.21s2.48-.6,2.88-.96c.24.72.67,1.16,1.21,1.27.84.18,1.21-.24,1.55-.71.49-.67,1.06-2.57.59-2.58Zm-6.23,1c-1.22,0-2.22-1.01-2.22-2.23s1-2.22,2.22-2.22,2.23,1.01,2.23,2.22-1.01,2.23-2.23,2.23Z"/>
      <path class="cls-22" d="m55.27,302.6c-.18-.22-.39-.42-.59-.59,3.31-3.76-4.43-6.09-4.53-1.52-.01,2.17-.02,3.88-.02,6.06-.77-.24-1.63.26-1.76,1.1-.08,2.12,2.05,1.76,2.82.83.29-.35.4-.63.5-1.7,2.9,1.54,5.17-1.67,3.58-4.18Zm-1.25,2.91c-.87.68-1.26.01-1.87-.16-.13-.04-.28-.03-.42.03,0-1.73,0-3.44.02-5.2-.15-.97,1.24-1.29,1.85-.63.51.55.42,1.49-.19,1.71-1.99-.53-1.8,2.34,0,1.62.85.25,1.48,1.74.61,2.63Z"/>
      <path class="cls-22" d="m32.03,302.78h10.69l-1.43-2.19.88-.72,2.87,3.28-.21.97-4.04,3.17-.69-.83,2.29-2.15h-10.69l.33-1.52Z"/>
      <path class="cls-22" d="m53.69,166.31c-.65,0-.94.25-1.28.66-.17.19-.39,1.18-.75.55-.75-1.29.02-4.57,1.06-6.02.28-.37-.11-.59-.3-.7,0,0-.42-.22-.64-.14-.29.1-.6-.12-1.39,1.64-1.19-1.37-2.58-1.19-3.53-1.15-.84.04-3.37.97-3.37,3.93,0,3.55,3.05,4.21,3.97,4.21s2.48-.6,2.88-.96c.24.72.67,1.16,1.21,1.27.84.18,1.21-.24,1.55-.71.49-.67,1.06-2.57.59-2.58Zm-6.23,1c-1.22,0-2.22-1.01-2.22-2.23s1-2.22,2.22-2.22,2.23,1.01,2.23,2.22-1.01,2.23-2.23,2.23Z"/>
      <path class="cls-22" d="m24.46,164.22c-.18-.22-.39-.42-.59-.59,3.31-3.76-4.43-6.09-4.53-1.52-.01,2.17-.02,3.88-.02,6.06-.77-.24-1.63.26-1.76,1.1-.08,2.12,2.05,1.76,2.82.83.29-.35.4-.63.5-1.7,2.9,1.54,5.17-1.67,3.58-4.18Zm-1.25,2.91c-.87.68-1.26.01-1.87-.16-.13-.04-.28-.03-.42.03,0-1.73,0-3.44.02-5.2-.15-.97,1.24-1.29,1.85-.63.51.55.42,1.49-.19,1.71-1.99-.53-1.8,2.34,0,1.62.85.25,1.48,1.74.61,2.63Z"/>
      <path class="cls-22" d="m27.27,164.93h10.69l-1.95-2.21.87-.83,3.45,3.32v.97l-3.45,3.32-.87-.83,1.95-2.21h-10.69v-1.52Z"/>
      <text class="cls-20" transform="translate(163.39 155.04)"><tspan class="cls-24" x="0" y="0">T</tspan><tspan x="8.6" y="0">og-Opp</tspan></text>
      <text class="cls-20" transform="translate(419.91 155.04)"><tspan class="cls-38" x="0" y="0">S</tspan><tspan x="8.02" y="0">pli</tspan><tspan class="cls-35" x="26.11" y="0">t</tspan><tspan x="31.65" y="0">-Opp</tspan></text>
    </g>
    <g>
      <text class="cls-17" transform="translate(87.74 185.84)"><tspan x="0" y="0">Iso</tspan></text>
      <text class="cls-17" transform="translate(173.44 185.84)"><tspan x="0" y="0">Anti</tspan></text>
      <text class="cls-17" transform="translate(256.27 185.84)"><tspan x="0" y="0">Hybrid</tspan></text>
    </g>
    <g>
      <text class="cls-17" transform="translate(357.78 185.84)"><tspan x="0" y="0">Iso</tspan></text>
      <text class="cls-17" transform="translate(443.49 185.84)"><tspan x="0" y="0">Anti</tspan></text>
      <text class="cls-17" transform="translate(526.31 185.84)"><tspan x="0" y="0">Hybrid</tspan></text>
    </g>
  </g>
  <line class="cls-2" x1=".89" y1="647.17" x2="612.89" y2="647.17"/>
</svg>