<?xml version="1.0" encoding="UTF-8"?>
<svg id="Layer_1" data-name="Layer 1" xmlns="http://www.w3.org/2000/svg" viewBox="0 0 612 792">
  <defs>
    <style>
      .cls-1, .cls-2, .cls-3 {
        fill: none;
        stroke: #231f20;
        stroke-miterlimit: 10;
      }

      .cls-4, .cls-5, .cls-6, .cls-7 {
        letter-spacing: -.01em;
      }

      .cls-4, .cls-8, .cls-9, .cls-10, .cls-11, .cls-12, .cls-13, .cls-14, .cls-15, .cls-16, .cls-17, .cls-18, .cls-19, .cls-20, .cls-21, .cls-22 {
        fill: #231f20;
      }

      .cls-4, .cls-8, .cls-10, .cls-23, .cls-24, .cls-25, .cls-13, .cls-14, .cls-15, .cls-26, .cls-16, .cls-17, .cls-19, .cls-6, .cls-27 {
        font-family: Cambria, Cambria;
      }

      .cls-5, .cls-28, .cls-16, .cls-29, .cls-30, .cls-31 {
        font-size: 15px;
      }

      .cls-32, .cls-25 {
        letter-spacing: -.02em;
      }

      .cls-33, .cls-18 {
        font-size: 16px;
      }

      .cls-8, .cls-34, .cls-24, .cls-35 {
        letter-spacing: -.01em;
      }

      .cls-9 {
        font-size: 14px;
      }

      .cls-9, .cls-34, .cls-12, .cls-36, .cls-18, .cls-20, .cls-37 {
        font-style: italic;
      }

      .cls-9, .cls-34, .cls-36, .cls-18 {
        font-family: Cambria-Italic, Cambria;
      }

      .cls-38, .cls-39, .cls-20, .cls-37, .cls-40, .cls-21 {
        font-weight: 700;
      }

      .cls-38, .cls-39, .cls-40, .cls-21 {
        font-family: Cambria-Bold, Cambria;
      }

      .cls-38, .cls-41, .cls-40 {
        fill: #ed1c24;
      }

      .cls-10, .cls-23, .cls-42, .cls-31 {
        letter-spacing: 0em;
      }

      .cls-43 {
        letter-spacing: -.13em;
      }

      .cls-11 {
        font-family: MonotypeCorsiva, 'Monotype Corsiva';
        font-size: 40px;
      }

      .cls-39 {
        fill: #21409a;
      }

      .cls-28, .cls-44 {
        letter-spacing: -.01em;
      }

      .cls-12 {
        font-family: Georgia-Italic, Georgia;
        font-size: 13px;
      }

      .cls-45 {
        fill: #2e3192;
      }

      .cls-13 {
        letter-spacing: -.02em;
      }

      .cls-2 {
        stroke-width: 2px;
      }

      .cls-15, .cls-46 {
        letter-spacing: 0em;
      }

      .cls-26, .cls-29, .cls-47 {
        letter-spacing: -.02em;
      }

      .cls-17 {
        letter-spacing: -.02em;
      }

      .cls-48 {
        letter-spacing: -.1em;
      }

      .cls-49 {
        letter-spacing: -.11em;
      }

      .cls-19 {
        letter-spacing: -.02em;
      }

      .cls-20 {
        font-size: 10px;
      }

      .cls-20, .cls-37 {
        font-family: Cambria-BoldItalic, Cambria;
      }

      .cls-50 {
        letter-spacing: -.02em;
      }

      .cls-51 {
        letter-spacing: -.01em;
      }

      .cls-40 {
        letter-spacing: 0em;
      }

      .cls-52 {
        letter-spacing: 0em;
      }

      .cls-3 {
        stroke-width: .5px;
      }

      .cls-53 {
        letter-spacing: -.02em;
      }
    </style>
  </defs>
  <text class="cls-11" transform="translate(198.11 38.74)"><tspan x="0" y="0">Gamma Letters</tspan></text>
  <text class="cls-14" transform="translate(55.35 64.27)"><tspan class="cls-33" x="0" y="0">Γ→Γ</tspan><tspan class="cls-30" x="30.56" y="0" xml:space="preserve"> motions can combine with a</tspan><tspan class="cls-29" x="213.43" y="0">n</tspan><tspan class="cls-30" x="221.51" y="0" xml:space="preserve">y other  </tspan><tspan class="cls-33" x="273.81" y="0">Γ→Γ</tspan><tspan class="cls-30" x="304.38" y="0" xml:space="preserve"> motion </tspan><tspan class="cls-31" x="357" y="0">t</tspan><tspan class="cls-30" x="361.95" y="0">o c</tspan><tspan class="cls-5" x="379.82" y="0">r</tspan><tspan class="cls-30" x="385.81" y="0">ea</tspan><tspan class="cls-31" x="400.45" y="0">t</tspan><tspan class="cls-30" x="405.39" y="0">e lots of </tspan><tspan class="cls-28" x="458.68" y="0">w</tspan><tspan class="cls-30" x="470.1" y="0">o</tspan><tspan class="cls-5" x="478.06" y="0">r</tspan><tspan class="cls-30" x="484.05" y="0">ds!</tspan><tspan class="cls-30"><tspan x="1.79" y="18">First let’s look at the compound let</tspan><tspan class="cls-42" x="223.51" y="18">t</tspan><tspan x="228.46" y="18">ers (V</tspan><tspan class="cls-51" x="266.5" y="18">T</tspan><tspan x="275.19" y="18">G: quar</tspan><tspan class="cls-42" x="321.63" y="18">t</tspan><tspan x="326.57" y="18">er time opposi</tspan><tspan class="cls-42" x="418.96" y="18">t</tspan><tspan x="423.9" y="18">e di</tspan><tspan class="cls-7" x="447.01" y="18">r</tspan><tspan x="452.99" y="18">ection).</tspan></tspan><tspan class="cls-30"><tspan x="251.55" y="36" xml:space="preserve">  </tspan></tspan></text>
  <text class="cls-16" transform="translate(89.11 326.87)"><tspan x="0" y="0">When combined as a continuous motion, these </tspan><tspan class="cls-35" x="300.51" y="0">f</tspan><tspan x="304.86" y="0">orm M</tspan><tspan class="cls-43" x="347.04" y="0">P</tspan><tspan x="353.66" y="0">, N</tspan><tspan class="cls-50" x="370.25" y="0">Q</tspan><tspan x="379.68" y="0">, and OR.</tspan><tspan x="70.25" y="18">He</tspan><tspan class="cls-7" x="87.87" y="18">r</tspan><tspan x="93.85" y="18">e th</tspan><tspan class="cls-52" x="117.82" y="18">e</tspan><tspan x="125" y="18">y a</tspan><tspan class="cls-7" x="143.18" y="18">r</tspan><tspan x="149.17" y="18">e along with a memo</tspan><tspan class="cls-32" x="281.54" y="18">r</tspan><tspan x="287.48" y="18">able ph</tspan><tspan class="cls-32" x="334.33" y="18">r</tspan><tspan x="340.28" y="18">ase:</tspan></text>
  <text class="cls-14" transform="translate(85.39 516.46)"><tspan class="cls-30" x="0" y="0">The final </tspan><tspan class="cls-33" x="59.57" y="0">Γ→Γ </tspan><tspan class="cls-30" x="93.65" y="0">g</tspan><tspan class="cls-5" x="101.07" y="0">r</tspan><tspan class="cls-30" x="107.05" y="0">oup (quar</tspan><tspan class="cls-31" x="170.68" y="0">t</tspan><tspan class="cls-30" x="175.63" y="0">er time same di</tspan><tspan class="cls-5" x="274.15" y="0">r</tspan><tspan class="cls-30" x="280.14" y="0">ection) has 4 ins</tspan><tspan class="cls-31" x="384.62" y="0">t</tspan><tspan class="cls-30" x="389.56" y="0">ead of 3.</tspan><tspan class="cls-30"><tspan x="-52.99" y="18">It m</tspan><tspan class="cls-47" x="-27.27" y="18">a</tspan><tspan x="-20.24" y="18">y seem li</tspan><tspan class="cls-32" x="35.73" y="18">k</tspan><tspan x="43.34" y="18">e U and V contain the same in</tspan><tspan class="cls-35" x="231.22" y="18">f</tspan><tspan x="235.58" y="18">ormation, but it’s impossible </tspan><tspan class="cls-42" x="421.6" y="18">t</tspan><tspan x="426.55" y="18">o </tspan><tspan class="cls-7" x="437.81" y="18">r</tspan><tspan x="443.8" y="18">ota</tspan><tspan class="cls-42" x="464.16" y="18">t</tspan><tspan x="469.1" y="18">e or </tspan></tspan><tspan class="cls-30"><tspan class="cls-7" x="-52.99" y="36">r</tspan><tspan x="-47.01" y="36">eflect U in o</tspan><tspan class="cls-7" x="28.06" y="36">r</tspan><tspan x="34.04" y="36">der </tspan><tspan class="cls-42" x="59.19" y="36">t</tspan><tspan x="64.13" y="36">o turn it in</tspan><tspan class="cls-42" x="131.72" y="36">t</tspan><tspan x="136.66" y="36">o </tspan><tspan class="cls-48" x="147.93" y="36">V</tspan><tspan x="155.44" y="36">, and vica-</tspan><tspan class="cls-47" x="219.78" y="36">v</tspan><tspan x="227.05" y="36">ersa, so th</tspan><tspan class="cls-52" x="291.78" y="36">e</tspan><tspan x="298.95" y="36">y must be disambigua</tspan><tspan class="cls-42" x="438.37" y="36">t</tspan><tspan x="443.31" y="36">ed.</tspan></tspan><tspan class="cls-30"><tspan x="-52.99" y="54"> </tspan></tspan></text>
  <text class="cls-18" transform="translate(251.47 477.04)"><tspan x="0" y="0">NQ - Ne</tspan><tspan class="cls-46" x="50.88" y="0">v</tspan><tspan x="58.16" y="0">er Quit</tspan></text>
  <text class="cls-18" transform="translate(435.24 477.04)"><tspan x="0" y="0">OR - Open </tspan><tspan class="cls-32" x="69.31" y="0">R</tspan><tspan x="78.48" y="0">oad</tspan></text>
  <text class="cls-18" transform="translate(48.53 477.04)"><tspan x="0" y="0">MP - Magic </tspan><tspan class="cls-7" x="77.94" y="0">P</tspan><tspan x="86.59" y="0">otion</tspan></text>
  <g>
    <path class="cls-22" d="m118.66,405.05c3.22,0,3.22-5,0-5s-3.22,5,0,5h0Z"/>
    <path class="cls-22" d="m88.26,374.64c3.22,0,3.22-5,0-5s-3.22,5,0,5h0Z"/>
    <path class="cls-22" d="m57.86,405.05c3.22,0,3.22-5,0-5s-3.22,5,0,5h0Z"/>
    <path class="cls-22" d="m88.26,435.45c3.22,0,3.22-5,0-5s-3.22,5,0,5h0Z"/>
    <path class="cls-22" d="m88.26,403.67c1.45,0,1.45-2.25,0-2.25s-1.45,2.25,0,2.25h0Z"/>
  </g>
  <g>
    <path class="cls-22" d="m168.26,435.45c3.22,0,3.22-5,0-5s-3.22,5,0,5h0Z"/>
    <path class="cls-22" d="m198.66,405.05c3.22,0,3.22-5,0-5s-3.22,5,0,5h0Z"/>
    <path class="cls-22" d="m168.26,374.64c3.22,0,3.22-5,0-5s-3.22,5,0,5h0Z"/>
    <path class="cls-22" d="m137.86,405.05c3.22,0,3.22-5,0-5s-3.22,5,0,5h0Z"/>
    <path class="cls-22" d="m168.26,403.67c1.45,0,1.45-2.25,0-2.25s-1.45,2.25,0,2.25h0Z"/>
  </g>
  <g>
    <path class="cls-22" d="m268.26,435.45c3.22,0,3.22-5,0-5s-3.22,5,0,5h0Z"/>
    <path class="cls-22" d="m298.66,405.05c3.22,0,3.22-5,0-5s-3.22,5,0,5h0Z"/>
    <path class="cls-22" d="m268.26,374.64c3.22,0,3.22-5,0-5s-3.22,5,0,5h0Z"/>
    <path class="cls-22" d="m237.86,405.05c3.22,0,3.22-5,0-5s-3.22,5,0,5h0Z"/>
    <path class="cls-22" d="m268.26,403.67c1.45,0,1.45-2.25,0-2.25s-1.45,2.25,0,2.25h0Z"/>
  </g>
  <g>
    <path class="cls-22" d="m348.26,435.45c3.22,0,3.22-5,0-5s-3.22,5,0,5h0Z"/>
    <path class="cls-22" d="m378.66,405.05c3.22,0,3.22-5,0-5s-3.22,5,0,5h0Z"/>
    <path class="cls-22" d="m348.26,374.64c3.22,0,3.22-5,0-5s-3.22,5,0,5h0Z"/>
    <path class="cls-22" d="m317.86,405.05c3.22,0,3.22-5,0-5s-3.22,5,0,5h0Z"/>
    <path class="cls-22" d="m348.26,403.67c1.45,0,1.45-2.25,0-2.25s-1.45,2.25,0,2.25h0Z"/>
  </g>
  <text class="cls-20" transform="translate(55.43 376.14)"><tspan x="0" y="0">1</tspan></text>
  <text class="cls-20" transform="translate(135.43 376.14)"><tspan x="0" y="0">2</tspan></text>
  <text class="cls-20" transform="translate(235.43 376.14)"><tspan x="0" y="0">1</tspan></text>
  <text class="cls-20" transform="translate(315.43 376.14)"><tspan x="0" y="0">2</tspan></text>
  <g>
    <path class="cls-22" d="m478.66,405.05c3.22,0,3.22-5,0-5s-3.22,5,0,5h0Z"/>
    <path class="cls-22" d="m448.26,374.64c3.22,0,3.22-5,0-5s-3.22,5,0,5h0Z"/>
    <path class="cls-22" d="m417.86,405.05c3.22,0,3.22-5,0-5s-3.22,5,0,5h0Z"/>
    <path class="cls-22" d="m448.26,435.45c3.22,0,3.22-5,0-5s-3.22,5,0,5h0Z"/>
    <path class="cls-22" d="m448.26,403.67c1.45,0,1.45-2.25,0-2.25s-1.45,2.25,0,2.25h0Z"/>
  </g>
  <g>
    <path class="cls-22" d="m528.26,435.45c3.22,0,3.22-5,0-5s-3.22,5,0,5h0Z"/>
    <path class="cls-22" d="m558.66,405.05c3.22,0,3.22-5,0-5s-3.22,5,0,5h0Z"/>
    <path class="cls-22" d="m528.26,374.64c3.22,0,3.22-5,0-5s-3.22,5,0,5h0Z"/>
    <path class="cls-22" d="m497.86,405.05c3.22,0,3.22-5,0-5s-3.22,5,0,5h0Z"/>
    <path class="cls-22" d="m528.26,403.67c1.45,0,1.45-2.25,0-2.25s-1.45,2.25,0,2.25h0Z"/>
  </g>
  <text class="cls-20" transform="translate(415.43 376.14)"><tspan x="0" y="0">1</tspan></text>
  <text class="cls-20" transform="translate(495.43 376.14)"><tspan x="0" y="0">2</tspan></text>
  <g>
    <line class="cls-1" x1="219.09" y1="355.72" x2="219.09" y2="488.74"/>
    <line class="cls-1" x1="399.19" y1="355.72" x2="399.19" y2="488.74"/>
  </g>
  <path class="cls-41" d="m93.87,431.73c11.89,0,22.68-9.57,22.72-21.38l2.41,2.65s1.11-1.01.54-1.85c-.65-.95-3.93-4.08-3.93-4.08,0,0-3.32,2.66-4.21,3.8-.63.81.43,1.89.43,1.89l2.78-2.61c-.03,8.93-7.32,18.79-20.74,19.5-1.57.08-1.62,2.09,0,2.08Z"/>
  <path class="cls-41" d="m453.36,431.73c11.89,0,22.68-9.57,22.72-21.38l2.41,2.65s1.11-1.01.54-1.85c-.65-.95-3.93-4.08-3.93-4.08,0,0-3.32,2.66-4.21,3.8-.63.81.43,1.89.43,1.89l2.78-2.61c-.03,8.93-7.32,18.79-20.74,19.5-1.57.08-1.62,2.09,0,2.08Z"/>
  <path class="cls-41" d="m198.66,393.91c0-11.89-9.57-22.68-21.38-22.72l2.65-2.41s-1.01-1.11-1.85-.54c-.95.65-4.08,3.93-4.08,3.93,0,0,2.66,3.32,3.8,4.21.81.63,1.89-.43,1.89-.43l-2.61-2.78c8.93.03,18.79,7.32,19.5,20.74.08,1.57,2.09,1.62,2.08,0Z"/>
  <path class="cls-41" d="m556.83,393.91c0-11.89-9.57-22.68-21.38-22.72l2.65-2.41s-1.01-1.11-1.85-.54c-.95.65-4.08,3.93-4.08,3.93,0,0,2.66,3.32,3.8,4.21.81.63,1.89-.43,1.89-.43l-2.61-2.78c8.93.03,18.79,7.32,19.5,20.74.08,1.57,2.09,1.62,2.08,0Z"/>
  <path class="cls-45" d="m171.38,376.14c11.89,0,22.68,9.57,22.72,21.38l2.41-2.65s1.11,1.01.54,1.85c-.65.95-3.93,4.08-3.93,4.08,0,0-3.32-2.66-4.21-3.8-.63-.81.43-1.89.43-1.89l2.78,2.61c-.03-8.93-7.32-18.79-20.74-19.5-1.57-.08-1.62-2.09,0-2.08Z"/>
  <path class="cls-45" d="m59.07,396.93c0-11.89,9.57-22.68,21.38-22.72l-2.65-2.41s1.01-1.11,1.85-.54c.95.65,4.08,3.93,4.08,3.93,0,0-2.66,3.32-3.8,4.21-.81.63-1.89-.43-1.89-.43l2.61-2.78c-8.93.03-18.79,7.32-19.5,20.74-.08,1.57-2.09,1.62-2.08,0Z"/>
  <path class="cls-45" d="m91.26,400.07h-6c-.49,0-.91-.4-.91-.89,0-.49.41-.89.91-.89h2s0-21.85,0-21.85c0-.48.4-.87.89-.87h.33c.48,0,.89.39.89.87v21.85s1.9,0,1.9,0c.5,0,.91.4.91.89,0,.49-.4.89-.91.89Z"/>
  <path class="cls-41" d="m90.73,405.55v-6c0-.49.4-.91.89-.91s.89.41.89.91v2s21.85,0,21.85,0c.48,0,.87.4.87.89v.33c0,.48-.39.89-.87.89h-21.85s0,1.9,0,1.9c0,.5-.4.91-.89.91s-.89-.4-.89-.91Z"/>
  <path class="cls-45" d="m170.73,399.54v6c0,.49.4.91.89.91s.89-.41.89-.91v-2h21.85c.48,0,.87-.4.87-.89v-.33c0-.48-.39-.89-.87-.89h-21.85s0-1.9,0-1.9c0-.5-.4-.91-.89-.91s-.89.4-.89.91Z"/>
  <path class="cls-41" d="m165.26,400.07h6c.49,0,.91-.4.91-.89s-.41-.89-.91-.89h-2v-21.85c0-.48-.4-.87-.89-.87h-.33c-.48,0-.89.39-.89.87v21.85s-1.9,0-1.9,0c-.5,0-.91.4-.91.89s.4.89.91.89Z"/>
  <path class="cls-41" d="m294.79,399.54v6c0,.49-.4.91-.89.91-.49,0-.89-.41-.89-.91v-2h-21.85c-.48,0-.87-.4-.87-.89v-.33c0-.48.39-.89.87-.89h21.85s0-1.9,0-1.9c0-.5.4-.91.89-.91s.89.4.89.91Z"/>
  <path class="cls-45" d="m265.26,376.02h6c.49,0,.91.4.91.89s-.41.89-.91.89h-2s0,21.85,0,21.85c0,.48-.4.87-.89.87h-.33c-.48,0-.89-.39-.89-.87v-21.85s-1.9,0-1.9,0c-.5,0-.91-.4-.91-.89,0-.49.4-.89.91-.89Z"/>
  <path class="cls-41" d="m351.26,376.02h-6c-.49,0-.91.4-.91.89,0,.49.41.89.91.89h2v21.85c0,.48.4.87.89.87h.33c.48,0,.89-.39.89-.87v-21.85h1.9c.5,0,.91-.4.91-.89,0-.49-.4-.89-.91-.89Z"/>
  <path class="cls-45" d="m374.79,405.55v-6c0-.49-.4-.91-.89-.91s-.89.41-.89.91v2h-21.85c-.48,0-.87.4-.87.89v.33c0,.48.39.89.87.89h21.85s0,1.9,0,1.9c0,.5.4.91.89.91s.89-.4.89-.91Z"/>
  <path class="cls-41" d="m450.29,399.54v6c0,.49.4.91.89.91s.89-.41.89-.91v-2h21.85c.48,0,.87-.4.87-.89v-.33c0-.48-.39-.89-.87-.89h-21.85s0-1.9,0-1.9c0-.5-.4-.91-.89-.91s-.89.4-.89.91Z"/>
  <path class="cls-45" d="m451.26,376.02h-6c-.49,0-.91.4-.91.89,0,.49.41.89.91.89h2v21.85c0,.48.4.87.89.87h.33c.48,0,.89-.39.89-.87v-21.85h1.9c.5,0,.91-.4.91-.89,0-.49-.4-.89-.91-.89Z"/>
  <path class="cls-41" d="m531.26,400.52h-6c-.49,0-.91-.4-.91-.89,0-.49.41-.89.91-.89h2s0-21.85,0-21.85c0-.48.4-.87.89-.87h.33c.48,0,.89.39.89.87v21.85s1.9,0,1.9,0c.5,0,.91.4.91.89,0,.49-.4.89-.91.89Z"/>
  <path class="cls-45" d="m554.79,399.54v6c0,.49-.4.91-.89.91s-.89-.41-.89-.91v-2h-21.85c-.48,0-.87-.4-.87-.89v-.33c0-.48.39-.89.87-.89h21.85s0-1.9,0-1.9c0-.5.4-.91.89-.91s.89.4.89.91Z"/>
  <path class="cls-41" d="m271.54,430.19c0-19.4,1.3-21.27,20.15-21.27l-2.72-2.66s1.04-1.1,1.87-.5c1.18.85,3.95,4.08,3.95,4.08,0,0-3.01,3.38-3.95,4.07-.82.6-1.87-.48-1.87-.48l2.72-2.56c-17.27,0-18.08,1-18.08,19.29,0,1.51-2.07,1.51-2.07.03Z"/>
  <path class="cls-41" d="m375.58,398.16c-19.4,0-21.27-1.3-21.27-20.15l-2.66,2.72s-1.1-1.04-.5-1.87c.85-1.18,4.08-3.95,4.08-3.95,0,0,3.38,3.01,4.07,3.95.6.82-.48,1.87-.48,1.87l-2.56-2.72c0,17.27,1,18.08,19.29,18.08,1.51,0,1.51,2.07.03,2.07Z"/>
  <path class="cls-45" d="m240.62,399.26c19.4,0,21.27-1.3,21.27-20.15l2.66,2.72s1.1-1.04.5-1.87c-.85-1.18-4.08-3.95-4.08-3.95,0,0-3.38,3.01-4.07,3.95-.6.82.48,1.87.48,1.87l2.56-2.72c0,17.27-1,18.08-19.29,18.08-1.51,0-1.51,2.07-.03,2.07Z"/>
  <path class="cls-45" d="m419.4,399.26c19.4,0,21.27-1.3,21.27-20.15l2.66,2.72s1.1-1.04.5-1.87c-.85-1.18-4.08-3.95-4.08-3.95,0,0-3.38,3.01-4.07,3.95-.6.82.48,1.87.48,1.87l2.56-2.72c0,17.27-1,18.08-19.29,18.08-1.51,0-1.51,2.07-.03,2.07Z"/>
  <path class="cls-45" d="m359.74,372.94c0,19.4,1.3,21.27,20.15,21.27l-2.72,2.66s1.04,1.1,1.87.5c1.18-.85,3.95-4.08,3.95-4.08,0,0-3.01-3.38-3.95-4.07-.82-.6-1.87.48-1.87.48l2.72,2.56c-17.27,0-18.08-1-18.08-19.29,0-1.51-2.07-1.51-2.07-.03Z"/>
  <path class="cls-45" d="m530.91,375.57c0,19.4,1.3,21.27,20.15,21.27l-2.72,2.66s1.04,1.1,1.87.5c1.18-.85,3.95-4.08,3.95-4.08,0,0-3.01-3.38-3.95-4.07-.82-.6-1.87.48-1.87.48l2.72,2.56c-17.27,0-18.08-1-18.08-19.29,0-1.51-2.07-1.51-2.07-.03Z"/>
  <path class="cls-22" d="m165.29,441.61c2.1-.68,4.35-.62,5.15.12,1.3,1.2,1.17,2.8.53,3.78-.96,1.47-3.93,1.42-3.93,1.42,0,0,.29,3.22.2,3.68-.02.1-.5.53-.74.53-.26,0-.84-.18-.88-.48-.61-5.29-.67-8.32-.33-9.04Zm1.64,3.84c2.37.24,3.12-.65,2.92-2-.2-1.35-2.71-1-3.01-.85-.11,1.56-.08,1.77.09,2.85Z"/>
  <path class="cls-22" d="m531.56,449.77l-2.7-3.03c.87-.25,1.47-.64,1.8-1.14.66-1.02.77-2.65-.54-3.86-.83-.76-3.04-.82-5.15-.14l-.06.02-.02.05c-.26.54-.14,2.22.07,5.27.08,1.06.16,2.26.24,3.62.02.37.41.57.79.57.3,0,.77-.17.84-.62.06-.42-.05-2.87-.08-3.48h.17l3.42,3.83c.16.18.38.27.61.27.2,0,.4-.07.55-.21.34-.3.37-.83.07-1.16Zm-5.02-4.32l-.03-.2c-.13-.82-.2-1.21-.11-2.5.38-.1,1.92-.27,2.71.15.28.14.44.34.47.59.08.5-.06.95-.38,1.3-.52.53-1.46.77-2.66.67Z"/>
  <path class="cls-22" d="m93.42,451.12c-.46.06-.96-.28-1.19-1.14-.42-1.54-.92-3.7-1.44-5.63-1.11,2.72-1.86,4.39-2.5,4.38-.01,0-.02,0-.03-.01-.01.01-.02.01-.03.01-.64.01-1.39-1.65-2.5-4.38-.51,1.93-1.02,4.09-1.44,5.63-.24.86-.73,1.2-1.19,1.14-.59-.07-.98-.49-.74-1.25.25-.81,1.84-6.07,2.3-7.72.47-1.65,1.59-.9,1.8-.49.21.41,1.36,3.67,1.8,4.59.44-.92,1.59-4.18,1.8-4.59.21-.41,1.33-1.16,1.8.49.46,1.64,2.05,6.9,2.3,7.72.24.76-.15,1.18-.74,1.25Z"/>
  <path class="cls-22" d="m272.77,442.45c-.2.78-1.37,6.55-1.58,7.33-.21.78-.44,1.33-.9,1.35s-.64-.27-1.17-1.25-1.66-3.47-2.44-5.56c-.53,1.89-.73,3.97-1.16,5.48-.25.85-.58,1.36-1.02,1.29-.1-.02-1.05-.26-.75-1.36.22-.81,1.48-6,1.96-7.62.48-1.62,1.54-.85,1.73-.44.19.41,2.31,5.6,2.67,6.53.19-.85.69-4.5,1.08-6.27.13-.6.81-.88,1.1-.76s.68.5.48,1.29Z"/>
  <path class="cls-22" d="m444.02,448.01c-.55-2.97.03-4.69,2.09-6.23,1.86-1.39,4.92-.33,5.78,1.24.73,1.31,1.54,4.09-.47,6.49-.67.8-1.59,1.4-2.62,1.57-2.46.41-4.48-1.4-4.79-3.06Zm2.23.5c1.14,1.13,3.41,1.11,4.45-.7,1.02-1.77.06-3.66-.63-4.27-.55-.49-2.53-1.19-3.76.41-1.11,1.45-.84,3.8-.07,4.56Z"/>
  <path class="cls-22" d="m352.72,449.64l-.97-.99-.02-.02c1.23-2.17.51-4.46-.12-5.62-.87-1.56-3.93-2.62-5.78-1.24-2.07,1.53-2.64,3.26-2.09,6.23.3,1.66,2.32,3.48,4.78,3.07.79-.14,1.51-.53,2.11-1.07l.84.86c.34.34.89.35,1.24,0,.35-.34.35-.9,0-1.24Zm-6.76-1.14c-.78-.77-1.05-3.12.06-4.56,1.24-1.59,3.21-.9,3.76-.41.64.58,1.52,2.26.81,3.93l-.1-.1h0s-1.02-1.04-1.02-1.04c-.34-.35-.9-.35-1.24,0-.18.16-.26.39-.26.62s.08.45.25.62l1.1,1.12.15.15c-1.14.75-2.65.55-3.51-.31Z"/>
  <text class="cls-33" transform="translate(106.47 690.22)"><tspan class="cls-22"><tspan class="cls-27" x="0" y="0">No</tspan><tspan class="cls-23" x="19.38" y="0">t</tspan><tspan class="cls-27" x="24.66" y="0">e that all </tspan><tspan class="cls-24" x="87" y="0">f</tspan><tspan class="cls-27" x="91.65" y="0">our h</tspan><tspan class="cls-26" x="127.95" y="0">av</tspan><tspan class="cls-27" x="143.2" y="0">e a </tspan><tspan class="cls-36" x="165.86" y="0">leading</tspan><tspan class="cls-27" x="215.49" y="0" xml:space="preserve"> hand and a </tspan><tspan class="cls-36" x="297.46" y="0">foll</tspan><tspan class="cls-34" x="318.78" y="0">o</tspan><tspan class="cls-36" x="326.7" y="0">wing</tspan><tspan class="cls-27" x="359.59" y="0" xml:space="preserve"> hand.</tspan></tspan><tspan class="cls-14" x="-70.35" y="19.2">He</tspan><tspan class="cls-4" x="-51.56" y="19.2">r</tspan><tspan class="cls-14" x="-45.18" y="19.2">e, the </tspan><tspan class="cls-38" x="-5" y="19.2">ri</tspan><tspan class="cls-40" x="7.41" y="19.2">g</tspan><tspan class="cls-38" x="15.62" y="19.2">ht</tspan><tspan class="cls-21" x="31.02" y="19.2"> </tspan><tspan class="cls-14" x="34.54" y="19.2">is</tspan><tspan class="cls-21" x="45.86" y="19.2"> </tspan><tspan class="cls-14" x="49.38" y="19.2">leading and </tspan><tspan class="cls-39" x="132.16" y="19.2">left </tspan><tspan class="cls-14" x="160.17" y="19.2">is </tspan><tspan class="cls-8" x="175.02" y="19.2">f</tspan><tspan class="cls-14" x="179.66" y="19.2">oll</tspan><tspan class="cls-15" x="196.84" y="19.2">o</tspan><tspan class="cls-14" x="205.26" y="19.2">wing, but it’s equal</tspan><tspan class="cls-13" x="333.61" y="19.2">l</tspan><tspan class="cls-14" x="337.63" y="19.2">y </tspan><tspan class="cls-17" x="349.22" y="19.2">v</tspan><tspan class="cls-14" x="356.94" y="19.2">alid </tspan><tspan class="cls-10" x="385.94" y="19.2">t</tspan><tspan class="cls-14" x="391.21" y="19.2">o </tspan><tspan class="cls-15" x="403.23" y="19.2">s</tspan><tspan class="cls-19" x="410.02" y="19.2">w</tspan><tspan class="cls-14" x="422.12" y="19.2">ap this.</tspan><tspan class="cls-22"><tspan class="cls-37" x="-4.29" y="38.4">U leads with an isolation </tspan><tspan class="cls-27" x="175.7" y="38.4">(a </tspan><tspan class="cls-6" x="193.14" y="38.4">r</tspan><tspan class="cls-27" x="199.52" y="38.4">ound motion li</tspan><tspan class="cls-25" x="299.58" y="38.4">k</tspan><tspan class="cls-27" x="307.7" y="38.4">e the let</tspan><tspan class="cls-23" x="362.16" y="38.4">t</tspan><tspan class="cls-27" x="367.43" y="38.4">er U).</tspan></tspan><tspan class="cls-22"><tspan class="cls-37" x=".71" y="57.6">V leads with an antispin</tspan><tspan class="cls-36" x="172.73" y="57.6"> </tspan><tspan class="cls-27" x="176.25" y="57.6">(a spiky motion li</tspan><tspan class="cls-25" x="295.29" y="57.6">k</tspan><tspan class="cls-27" x="303.41" y="57.6">e the let</tspan><tspan class="cls-23" x="357.87" y="57.6">t</tspan><tspan class="cls-27" x="363.14" y="57.6">er V).</tspan></tspan><tspan class="cls-14"><tspan x="7.66" y="76.8">These self-combine </tspan><tspan class="cls-42" x="143.48" y="76.8">t</tspan><tspan x="148.76" y="76.8">o </tspan><tspan class="cls-35" x="160.77" y="76.8">f</tspan><tspan x="165.42" y="76.8">orm the </tspan><tspan class="cls-44" x="222.94" y="76.8">w</tspan><tspan x="235.12" y="76.8">o</tspan><tspan class="cls-7" x="243.62" y="76.8">r</tspan><tspan x="250" y="76.8">ds SS, T</tspan><tspan class="cls-49" x="301.44" y="76.8">T</tspan><tspan x="309.12" y="76.8">, U</tspan><tspan class="cls-53" x="326.3" y="76.8">U</tspan><tspan x="336.28" y="76.8">, and V</tspan><tspan class="cls-48" x="381.88" y="76.8">V</tspan><tspan x="389.9" y="76.8">. </tspan></tspan></text>
  <line class="cls-2" x1=".89" y1="488.74" x2="612.89" y2="488.74"/>
  <g>
    <g>
      <path class="cls-22" d="m206.56,293.15c2.1-.68,4.35-.62,5.15.12,1.3,1.2,1.17,2.8.53,3.78-.96,1.47-3.93,1.42-3.93,1.42,0,0,.29,3.22.2,3.68-.02.1-.5.53-.74.53-.26,0-.84-.18-.88-.48-.61-5.29-.67-8.32-.33-9.04Zm1.64,3.84c2.37.24,3.12-.65,2.92-2-.2-1.35-2.71-1-3.01-.85-.11,1.56-.08,1.77.09,2.85Z"/>
      <path class="cls-22" d="m392.84,301.3l-2.7-3.03c.87-.25,1.47-.64,1.8-1.14.66-1.02.77-2.65-.54-3.86-.83-.76-3.04-.82-5.15-.14l-.06.02-.02.05c-.26.54-.14,2.22.07,5.27.08,1.06.16,2.26.24,3.62.02.37.41.57.79.57.3,0,.77-.17.84-.62.06-.42-.05-2.87-.08-3.48h.17l3.42,3.83c.16.18.38.27.61.27.2,0,.4-.07.55-.21.34-.3.37-.83.07-1.16Zm-5.02-4.32l-.03-.2c-.13-.82-.2-1.21-.11-2.5.38-.1,1.92-.27,2.71.15.28.14.44.34.47.59.08.5-.06.95-.38,1.3-.52.53-1.46.77-2.66.67Z"/>
      <path class="cls-22" d="m214.69,202.66c-.46.06-.96-.28-1.19-1.14-.42-1.54-.92-3.7-1.44-5.63-1.11,2.72-1.86,4.39-2.5,4.38-.01,0-.02,0-.03-.01-.01.01-.02.01-.03.01-.64.01-1.39-1.65-2.5-4.38-.51,1.93-1.02,4.09-1.44,5.63-.24.86-.73,1.2-1.19,1.14-.59-.07-.98-.49-.74-1.25.25-.81,1.84-6.07,2.3-7.72.47-1.65,1.59-.9,1.8-.49.21.41,1.36,3.67,1.8,4.59.44-.92,1.59-4.18,1.8-4.59.21-.41,1.33-1.16,1.8.49.46,1.64,2.05,6.9,2.3,7.72.24.76-.15,1.18-.74,1.25Z"/>
      <path class="cls-22" d="m304.04,193.99c-.2.78-1.37,6.55-1.58,7.33s-.44,1.33-.9,1.35-.64-.27-1.17-1.25-1.66-3.47-2.44-5.56c-.53,1.89-.73,3.97-1.16,5.48-.25.85-.58,1.36-1.02,1.29-.1-.02-1.05-.26-.75-1.36.22-.81,1.48-6,1.96-7.62.48-1.62,1.54-.85,1.73-.44.19.41,2.31,5.6,2.67,6.53.19-.85.69-4.5,1.08-6.27.13-.6.81-.88,1.1-.76s.68.5.48,1.29Z"/>
      <path class="cls-22" d="m385.29,199.55c-.55-2.97.03-4.69,2.09-6.23,1.86-1.39,4.92-.33,5.78,1.24.73,1.31,1.54,4.09-.47,6.49-.67.8-1.59,1.4-2.62,1.57-2.46.41-4.48-1.4-4.79-3.06Zm2.23.5c1.14,1.13,3.41,1.11,4.45-.7,1.02-1.77.06-3.66-.63-4.27-.55-.49-2.53-1.19-3.76.41-1.11,1.45-.84,3.8-.07,4.56Z"/>
      <path class="cls-22" d="m303.99,301.18l-.97-.99-.02-.02c1.23-2.17.51-4.46-.12-5.62-.87-1.56-3.93-2.62-5.78-1.24-2.07,1.53-2.64,3.26-2.09,6.23.3,1.66,2.32,3.48,4.78,3.07.79-.14,1.51-.53,2.11-1.07l.84.86c.34.34.89.35,1.24,0,.35-.34.35-.9,0-1.24Zm-6.76-1.14c-.78-.77-1.05-3.12.06-4.56,1.24-1.59,3.21-.9,3.76-.41.64.58,1.52,2.26.81,3.93l-.1-.1h0s-1.02-1.04-1.02-1.04c-.34-.35-.9-.35-1.24,0-.18.16-.26.39-.26.62s.08.45.25.62l1.1,1.12.15.15c-1.14.75-2.65.55-3.51-.31Z"/>
      <path class="cls-41" d="m215,182.83c11.89,0,22.68-9.57,22.72-21.38l2.41,2.65s1.11-1.01.54-1.85c-.65-.95-3.93-4.08-3.93-4.08,0,0-3.32,2.66-4.21,3.8-.63.81.43,1.89.43,1.89l2.78-2.61c-.03,8.93-7.32,18.79-20.74,19.5-1.57.08-1.62,2.09,0,2.08Z"/>
      <path class="cls-45" d="m180.21,148.04c0-11.89,9.57-22.68,21.38-22.72l-2.65-2.41s1.01-1.11,1.85-.54c.95.65,4.08,3.93,4.08,3.93,0,0-2.66,3.32-3.8,4.21-.81.63-1.89-.43-1.89-.43l2.61-2.78c-8.93.03-18.79,7.32-19.5,20.74-.08,1.57-2.09,1.62-2.08,0Z"/>
      <path class="cls-41" d="m394.71,182.83c11.89,0,22.68-9.57,22.72-21.38l2.41,2.65s1.11-1.01.54-1.85c-.65-.95-3.93-4.08-3.93-4.08,0,0-3.32,2.66-4.21,3.8-.63.81.43,1.89.43,1.89l2.78-2.61c-.03,8.93-7.32,18.79-20.74,19.5-1.57.08-1.62,2.09,0,2.08Z"/>
      <path class="cls-41" d="m328.46,242.43c-19.4,0-21.27-1.3-21.27-20.15l-2.66,2.72s-1.1-1.04-.5-1.87c.85-1.18,4.08-3.95,4.08-3.95,0,0,3.38,3.01,4.07,3.95.6.82-.48,1.87-.48,1.87l-2.56-2.72c0,17.27,1,18.08,19.29,18.08,1.45,0,1.48,2.07.03,2.07Z"/>
      <path class="cls-45" d="m302.77,226.55c0,19.4,1.3,21.27,20.15,21.27l-2.72,2.66s1.04,1.1,1.87.5c1.18-.85,3.95-4.08,3.95-4.08,0,0-3.01-3.38-3.95-4.07-.82-.6-1.87.48-1.87.48l2.72,2.56c-17.27,0-18.08-1-18.08-19.29,0-1.45-2.07-1.48-2.07-.03Z"/>
      <path class="cls-45" d="m393.01,226.55c0,19.4,1.3,21.27,20.15,21.27l-2.72,2.66s1.04,1.1,1.87.5c1.18-.85,3.95-4.08,3.95-4.08,0,0-3.01-3.38-3.95-4.07-.82-.6-1.87.48-1.87.48l2.72,2.56c-17.27,0-18.08-1-18.08-19.29,0-1.45-2.07-1.48-2.07-.03Z"/>
      <path class="cls-41" d="m241.07,244.69c0-11.89-9.57-22.68-21.38-22.72l2.65-2.41s-1.01-1.11-1.85-.54c-.95.65-4.08,3.93-4.08,3.93,0,0,2.66,3.32,3.8,4.21.81.63,1.89-.43,1.89-.43l-2.61-2.78c8.93.03,18.79,7.32,19.5,20.74.08,1.57,2.09,1.62,2.08,0Z"/>
      <path class="cls-45" d="m213.32,226.61c11.89,0,22.68,9.57,22.72,21.38l2.41-2.65s1.11,1.01.54,1.85c-.65.95-3.93,4.08-3.93,4.08,0,0-3.32-2.66-4.21-3.8-.63-.81.43-1.89.43-1.89l2.78,2.61c-.03-8.93-7.32-18.79-20.74-19.5-1.57-.08-1.62-2.09,0-2.08Z"/>
      <path class="cls-41" d="m420.22,247.9c0-11.89-9.57-22.68-21.38-22.72l2.65-2.41s-1.01-1.11-1.85-.54c-.95.65-4.08,3.93-4.08,3.93,0,0,2.66,3.32,3.8,4.21.81.63,1.89-.43,1.89-.43l-2.61-2.78c8.93.03,18.79,7.32,19.5,20.74.08,1.57,2.09,1.62,2.08,0Z"/>
      <g>
        <path class="cls-22" d="m239.53,156.01c3.22,0,3.22-5,0-5s-3.22,5,0,5h0Z"/>
        <path class="cls-22" d="m209.53,126.01c3.22,0,3.22-5,0-5s-3.22,5,0,5h0Z"/>
        <path class="cls-22" d="m179.53,156.01c3.22,0,3.22-5,0-5s-3.22,5,0,5h0Z"/>
        <path class="cls-22" d="m209.53,186.01c3.22,0,3.22-5,0-5s-3.22,5,0,5h0Z"/>
        <path class="cls-22" d="m209.53,154.64c1.45,0,1.45-2.25,0-2.25s-1.45,2.25,0,2.25h0Z"/>
      </g>
      <g>
        <path class="cls-22" d="m329.53,156.01c3.22,0,3.22-5,0-5s-3.22,5,0,5h0Z"/>
        <path class="cls-22" d="m299.53,126.01c3.22,0,3.22-5,0-5s-3.22,5,0,5h0Z"/>
        <path class="cls-22" d="m269.53,156.01c3.22,0,3.22-5,0-5s-3.22,5,0,5h0Z"/>
        <path class="cls-22" d="m299.53,186.01c3.22,0,3.22-5,0-5s-3.22,5,0,5h0Z"/>
        <path class="cls-22" d="m299.53,154.64c1.45,0,1.45-2.25,0-2.25s-1.45,2.25,0,2.25h0Z"/>
      </g>
      <g>
        <path class="cls-22" d="m419.53,156.01c3.22,0,3.22-5,0-5s-3.22,5,0,5h0Z"/>
        <path class="cls-22" d="m389.53,126.01c3.22,0,3.22-5,0-5s-3.22,5,0,5h0Z"/>
        <path class="cls-22" d="m359.53,156.01c3.22,0,3.22-5,0-5s-3.22,5,0,5h0Z"/>
        <path class="cls-22" d="m389.53,186.01c3.22,0,3.22-5,0-5s-3.22,5,0,5h0Z"/>
        <path class="cls-22" d="m389.53,154.64c1.45,0,1.45-2.25,0-2.25s-1.45,2.25,0,2.25h0Z"/>
      </g>
      <g>
        <path class="cls-22" d="m239.53,256.01c3.22,0,3.22-5,0-5s-3.22,5,0,5h0Z"/>
        <path class="cls-22" d="m209.53,226.01c3.22,0,3.22-5,0-5s-3.22,5,0,5h0Z"/>
        <path class="cls-22" d="m179.53,256.01c3.22,0,3.22-5,0-5s-3.22,5,0,5h0Z"/>
        <path class="cls-22" d="m209.53,286.01c3.22,0,3.22-5,0-5s-3.22,5,0,5h0Z"/>
        <path class="cls-22" d="m209.53,254.64c1.45,0,1.45-2.25,0-2.25s-1.45,2.25,0,2.25h0Z"/>
      </g>
      <g>
        <path class="cls-22" d="m329.53,256.01c3.22,0,3.22-5,0-5s-3.22,5,0,5h0Z"/>
        <path class="cls-22" d="m299.53,226.01c3.22,0,3.22-5,0-5s-3.22,5,0,5h0Z"/>
        <path class="cls-22" d="m269.53,256.01c3.22,0,3.22-5,0-5s-3.22,5,0,5h0Z"/>
        <path class="cls-22" d="m299.53,286.01c3.22,0,3.22-5,0-5s-3.22,5,0,5h0Z"/>
        <path class="cls-22" d="m299.53,254.64c1.45,0,1.45-2.25,0-2.25s-1.45,2.25,0,2.25h0Z"/>
      </g>
      <g>
        <path class="cls-22" d="m419.53,256.01c3.22,0,3.22-5,0-5s-3.22,5,0,5h0Z"/>
        <path class="cls-22" d="m389.53,226.01c3.22,0,3.22-5,0-5s-3.22,5,0,5h0Z"/>
        <path class="cls-22" d="m359.53,256.01c3.22,0,3.22-5,0-5s-3.22,5,0,5h0Z"/>
        <path class="cls-22" d="m389.53,286.01c3.22,0,3.22-5,0-5s-3.22,5,0,5h0Z"/>
        <path class="cls-22" d="m389.53,254.64c1.45,0,1.45-2.25,0-2.25s-1.45,2.25,0,2.25h0Z"/>
      </g>
      <line class="cls-3" x1="176.52" y1="211.56" x2="419.53" y2="211.56"/>
      <rect class="cls-41" x="211.63" y="152.26" width="24.34" height="2.5" rx=".95" ry=".95"/>
      <rect class="cls-45" x="208.28" y="127.07" width="2.5" height="24.34" rx=".95" ry=".95"/>
      <rect class="cls-45" x="298.28" y="127.07" width="2.5" height="24.34" rx=".95" ry=".95"/>
      <rect class="cls-45" x="388.28" y="127.07" width="2.5" height="24.34" rx=".95" ry=".95"/>
      <rect class="cls-41" x="301.63" y="152.26" width="24.34" height="2.5" rx=".95" ry=".95"/>
      <rect class="cls-41" x="391.63" y="152.26" width="24.34" height="2.5" rx=".95" ry=".95"/>
      <rect class="cls-45" x="211.63" y="252.26" width="24.34" height="2.5" rx=".95" ry=".95"/>
      <rect class="cls-41" x="208.28" y="227.07" width="2.5" height="24.34" rx=".95" ry=".95"/>
      <rect class="cls-45" x="301.63" y="252.26" width="24.34" height="2.5" rx=".95" ry=".95"/>
      <rect class="cls-41" x="298.28" y="227.07" width="2.5" height="24.34" rx=".95" ry=".95"/>
      <rect class="cls-45" x="391.63" y="252.26" width="24.34" height="2.5" rx=".95" ry=".95"/>
      <rect class="cls-41" x="388.28" y="227.07" width="2.5" height="24.34" rx=".95" ry=".95"/>
      <path d="m135.67,122.88c-.02.26-.14.59-.9.55-.76-.04-3.92.04-4.37.07,0,.56.26,3.6.43,7.28.05,1.13-.44,1.27-.64,1.27-.34,0-.92-.43-1.03-1.14-.09-.66-.16-2.16-.23-3.74-.06-1.37-.12-2.79-.21-3.75l-.95.31.03-1.02c.04-.21.25-.46.39-.47s6.42-.22,6.78-.2c.36.03.7.53.69.83Z"/>
      <path d="m160.77,122.93c-.02.26-.14.59-.9.55-.76-.04-3.92.04-4.37.07,0,.56.26,3.6.43,7.28.05,1.13-.44,1.27-.64,1.27-.34,0-.92-.43-1.03-1.14-.09-.66-.16-2.16-.23-3.74-.06-1.37-.12-2.79-.21-3.75l-.95.31.03-1.02c.04-.21.25-.46.39-.47s6.42-.22,6.78-.2.7.53.69.83Z"/>
      <path class="cls-22" d="m136.53,126.28h10.69l-1.95-2.21.87-.83,3.45,3.32v.97l-3.45,3.32-.87-.83,1.95-2.21h-10.69v-1.52Z"/>
    </g>
    <g>
      <text class="cls-12" transform="translate(197.26 108.06)"><tspan x="0" y="0">Iso</tspan></text>
      <text class="cls-12" transform="translate(282.97 108.06)"><tspan x="0" y="0">Anti</tspan></text>
      <text class="cls-12" transform="translate(365.79 108.06)"><tspan x="0" y="0">Hybrid</tspan></text>
    </g>
    <text class="cls-9" transform="translate(124.91 146.25)"><tspan x="0" y="0">(Opp)</tspan></text>
  </g>
  <g>
    <g>
      <path class="cls-22" d="m176.19,656.19c-.25,1.19-1.45,2.37-3.24,2.37h-.11c-1-.04-2.78-.26-3.51-1.25-.39-.52-.47-1.13-.19-1.44.24-.27.68-.24,1.23.08,1.08,1.06,2.52,1.08,3.42.64.52-.26.82-.65.77-1.03-.03-.33-.36-.94-2.12-1.35-2.5-.56-3.55-1.98-3.49-3.14.06-1.03,1.04-2.24,3.59-2.51.07,0,.13,0,.2,0,1.08,0,2.66.83,2.96,1.59.13.32.04.59-.26.82-.19.14-.59-.05-1.1-.3-.48-.23-1.01-.49-1.51-.55-.14-.02-.27-.03-.4-.03-.95,0-1.68.48-1.82.99-.13.47.23.9.96,1.2l2.99,1.21c1.5.62,1.82,1.8,1.62,2.7Z"/>
      <path class="cls-22" d="m446.36,649.91c-.06.29-1.97,5.54-3.02,7.94-.32.73-.61.72-.74.72s-.42,0-.74-.72c-1.05-2.4-2.96-7.64-3.02-7.94-.23-1,.08-1.16.44-1.3.28-.13.86-.02,1.12.7.16.42,2.2,5.86,2.2,5.86,0,0,2.05-5.44,2.2-5.86.25-.72.83-.82,1.12-.7.36.15.67.3.44,1.3Z"/>
      <path class="cls-22" d="m356.52,654.08c-.11.73-.3,1.42-.58,2.11-.6,1.42-1.8,2.3-3.21,2.37h-.26c-1.41-.07-2.6-.95-3.21-2.37-.28-.67-.47-1.36-.57-2.11-.19-1.31-.24-2.6-.18-4.35.02-.47.13-.8.34-.99.14-.13.32-.19.52-.19.64.04.78.66.82,1.21,0,.18,0,.48,0,.86-.05,1.51-.14,4.35.93,5.36.21.2.58.43.94.56.35.14.73.14,1.08,0,.36-.14.74-.37.95-.56,1.06-1.01.98-3.81.93-5.33,0-.4-.02-.71,0-.89.03-.5.15-1.17.8-1.21.21,0,.39.06.52.19.22.19.33.52.34.99.08,1.8.03,3.06-.16,4.35Z"/>
      <path class="cls-22" d="m266.69,649.48c-.01.49-.38.78-1.17.77h-2.09v7.47c0,.45-.37.83-.83.83s-.83-.38-.83-.83v-7.47h-2.09c-.79,0-1.16-.28-1.17-.77-.02-.62.45-.89,1.12-.91.82-.02,5.12-.02,5.94,0,.67.02,1.14.29,1.12.91Z"/>
      <path class="cls-41" d="m290.05,605.81c-19.4,0-21.27-1.3-21.27-20.15l-2.66,2.72s-1.1-1.04-.5-1.87c.85-1.18,4.08-3.95,4.08-3.95,0,0,3.38,3.01,4.07,3.95.6.82-.48,1.87-.48,1.87l-2.56-2.72c0,17.27,1,18.08,19.29,18.08,1.45,0,1.48,2.07.03,2.07Z"/>
      <path class="cls-45" d="m266.19,636.85c0-19.4,1.3-21.27,20.15-21.27l-2.72-2.66s1.04-1.1,1.87-.5c1.18.85,3.95,4.08,3.95,4.08,0,0-3.01,3.38-3.95,4.07-.82.6-1.87-.48-1.87-.48l2.72-2.56c-17.27,0-18.08,1-18.08,19.29,0,1.45-2.07,1.48-2.07.03Z"/>
      <path class="cls-45" d="m356.19,636.85c0-19.4,1.3-21.27,20.15-21.27l-2.72-2.66s1.04-1.1,1.87-.5c1.18.85,3.95,4.08,3.95,4.08,0,0-3.01,3.38-3.95,4.07-.82.6-1.87-.48-1.87-.48l2.72-2.56c-17.27,0-18.08,1-18.08,19.29,0,1.45-2.07,1.48-2.07.03Z"/>
      <path class="cls-41" d="m201.51,603.5c0-11.89-9.57-22.68-21.38-22.72l2.65-2.41s-1.01-1.11-1.85-.54c-.95.65-4.08,3.93-4.08,3.93,0,0,2.66,3.32,3.8,4.21.81.63,1.89-.43,1.89-.43l-2.61-2.78c8.93.03,18.79,7.32,19.5,20.74.08,1.57,2.09,1.62,2.08,0Z"/>
      <path class="cls-45" d="m178.5,638.31c11.89,0,22.68-9.57,22.72-21.38l2.41,2.65s1.11-1.01.54-1.85c-.65-.95-3.93-4.08-3.93-4.08,0,0-3.32,2.66-4.21,3.8-.63.81.43,1.89.43,1.89l2.78-2.61c-.03,8.93-7.32,18.79-20.74,19.5-1.57.08-1.62,2.09,0,2.08Z"/>
      <path class="cls-45" d="m448.5,638.31c11.89,0,22.68-9.57,22.72-21.38l2.41,2.65s1.11-1.01.54-1.85c-.65-.95-3.93-4.08-3.93-4.08,0,0-3.32,2.66-4.21,3.8-.63.81.43,1.89.43,1.89l2.78-2.61c-.03,8.93-7.32,18.79-20.74,19.5-1.57.08-1.62,2.09,0,2.08Z"/>
      <path class="cls-41" d="m470.89,604.5c-19.4,0-21.27-1.3-21.27-20.15l-2.66,2.72s-1.1-1.04-.5-1.87c.85-1.18,4.08-3.95,4.08-3.95,0,0,3.38,3.01,4.07,3.95.6.82-.48,1.87-.48,1.87l-2.56-2.72c0,17.27,1,18.08,19.29,18.08,1.45,0,1.48,2.07.03,2.07Z"/>
      <path class="cls-41" d="m381.05,603.5c0-11.89-9.57-22.68-21.38-22.72l2.65-2.41s-1.01-1.11-1.85-.54c-.95.65-4.08,3.93-4.08,3.93,0,0,2.66,3.32,3.8,4.21.81.63,1.89-.43,1.89-.43l-2.61-2.78c8.93.03,18.79,7.32,19.5,20.74.08,1.57,2.09,1.62,2.08,0Z"/>
      <g>
        <path class="cls-22" d="m202.6,611.9c3.22,0,3.22-5,0-5s-3.22,5,0,5h0Z"/>
        <path class="cls-22" d="m172.6,581.9c3.22,0,3.22-5,0-5s-3.22,5,0,5h0Z"/>
        <path class="cls-22" d="m142.6,611.9c3.22,0,3.22-5,0-5s-3.22,5,0,5h0Z"/>
        <path class="cls-22" d="m172.6,641.9c3.22,0,3.22-5,0-5s-3.22,5,0,5h0Z"/>
        <path class="cls-22" d="m172.6,610.52c1.45,0,1.45-2.25,0-2.25s-1.45,2.25,0,2.25h0Z"/>
      </g>
      <g>
        <path class="cls-22" d="m292.6,611.9c3.22,0,3.22-5,0-5s-3.22,5,0,5h0Z"/>
        <path class="cls-22" d="m262.6,581.9c3.22,0,3.22-5,0-5s-3.22,5,0,5h0Z"/>
        <path class="cls-22" d="m232.6,611.9c3.22,0,3.22-5,0-5s-3.22,5,0,5h0Z"/>
        <path class="cls-22" d="m262.6,641.9c3.22,0,3.22-5,0-5s-3.22,5,0,5h0Z"/>
        <path class="cls-22" d="m262.6,610.52c1.45,0,1.45-2.25,0-2.25s-1.45,2.25,0,2.25h0Z"/>
      </g>
      <g>
        <path class="cls-22" d="m382.6,611.9c3.22,0,3.22-5,0-5s-3.22,5,0,5h0Z"/>
        <path class="cls-22" d="m352.6,581.9c3.22,0,3.22-5,0-5s-3.22,5,0,5h0Z"/>
        <path class="cls-22" d="m322.6,611.9c3.22,0,3.22-5,0-5s-3.22,5,0,5h0Z"/>
        <path class="cls-22" d="m352.6,641.9c3.22,0,3.22-5,0-5s-3.22,5,0,5h0Z"/>
        <path class="cls-22" d="m352.6,610.52c1.45,0,1.45-2.25,0-2.25s-1.45,2.25,0,2.25h0Z"/>
      </g>
      <g>
        <path class="cls-22" d="m472.6,611.9c3.22,0,3.22-5,0-5s-3.22,5,0,5h0Z"/>
        <path class="cls-22" d="m442.6,581.9c3.22,0,3.22-5,0-5s-3.22,5,0,5h0Z"/>
        <path class="cls-22" d="m412.6,611.9c3.22,0,3.22-5,0-5s-3.22,5,0,5h0Z"/>
        <path class="cls-22" d="m442.6,641.9c3.22,0,3.22-5,0-5s-3.22,5,0,5h0Z"/>
        <path class="cls-22" d="m442.6,610.52c1.45,0,1.45-2.25,0-2.25s-1.45,2.25,0,2.25h0Z"/>
      </g>
      <rect class="cls-45" x="174.7" y="608.15" width="24.34" height="2.5" rx=".95" ry=".95"/>
      <rect class="cls-41" x="171.35" y="582.95" width="2.5" height="24.34" rx=".95" ry=".95"/>
      <rect class="cls-45" x="264.7" y="608.15" width="24.34" height="2.5" rx=".95" ry=".95"/>
      <rect class="cls-41" x="261.35" y="582.95" width="2.5" height="24.34" rx=".95" ry=".95"/>
      <rect class="cls-45" x="354.7" y="608.15" width="24.34" height="2.5" rx=".95" ry=".95"/>
      <rect class="cls-41" x="351.35" y="582.95" width="2.5" height="24.34" rx=".95" ry=".95"/>
      <rect class="cls-45" x="444.7" y="608.15" width="24.34" height="2.5" rx=".95" ry=".95"/>
      <rect class="cls-41" x="441.35" y="582.95" width="2.5" height="24.34" rx=".95" ry=".95"/>
    </g>
    <text class="cls-9" transform="translate(75.66 605.93)"><tspan x="0" y="0">(Same)</tspan></text>
    <path d="m89.03,583.79c-.02.26-.14.59-.9.55-.76-.04-3.92.04-4.37.07,0,.56.26,3.6.43,7.28.05,1.13-.44,1.27-.64,1.27-.34,0-.92-.43-1.03-1.14-.09-.66-.16-2.16-.23-3.74-.06-1.37-.12-2.79-.21-3.75l-.95.31.03-1.02c.04-.21.25-.46.39-.47s6.42-.22,6.78-.2.7.53.69.83Z"/>
    <path d="m114.13,583.84c-.02.26-.14.59-.9.55s-3.92.04-4.37.07c0,.56.26,3.6.43,7.28.05,1.13-.44,1.27-.64,1.27-.34,0-.92-.43-1.03-1.14-.09-.66-.16-2.16-.23-3.74-.06-1.37-.12-2.79-.21-3.75l-.95.31.03-1.02c.04-.21.25-.46.39-.47s6.42-.22,6.78-.2.7.53.69.83Z"/>
    <path class="cls-22" d="m89.9,587.2h10.69l-1.95-2.21.87-.83,3.45,3.32v.97l-3.45,3.32-.87-.83,1.95-2.21h-10.69v-1.52Z"/>
  </g>
  <path class="cls-41" d="m303.73,180.8c0-21.23-.54-21.27,20.15-21.27l-2.72-2.66s1.04-1.1,1.87-.5c1.18.85,3.95,4.08,3.95,4.08,0,0-3.01,3.38-3.95,4.07-.82.6-1.87-.48-1.87-.48l2.72-2.56c-19.11,0-18.08-.84-18.08,19.29,0,1.51-2.07,1.51-2.07.03Z"/>
  <path class="cls-45" d="m272.24,149.31c21.23,0,21.27.54,21.27-20.15l2.66,2.72s1.1-1.04.5-1.87c-.85-1.18-4.08-3.95-4.08-3.95,0,0-3.38,3.01-4.07,3.95-.6.82.48,1.87.48,1.87l2.56-2.72c0,19.11.84,18.08-19.29,18.08-1.51,0-1.51,2.07-.03,2.07Z"/>
  <path class="cls-45" d="m362.56,149.31c21.23,0,21.27.54,21.27-20.15l2.66,2.72s1.1-1.04.5-1.87c-.85-1.18-4.08-3.95-4.08-3.95,0,0-3.38,3.01-4.07,3.95-.6.82.48,1.87.48,1.87l2.56-2.72c0,19.11.84,18.08-19.29,18.08-1.51,0-1.51,2.07-.03,2.07Z"/>
</svg>