<?xml version="1.0" encoding="UTF-8"?>
<svg id="Layer_1" data-name="Layer 1" xmlns="http://www.w3.org/2000/svg" viewBox="0 0 612 792">
  <defs>
    <style>
      .cls-1, .cls-2, .cls-3, .cls-4, .cls-5, .cls-6, .cls-7, .cls-8, .cls-9, .cls-10, .cls-11, .cls-12, .cls-13 {
        fill: #231f20;
      }

      .cls-1, .cls-2, .cls-3, .cls-5, .cls-6, .cls-8, .cls-11 {
        font-family: Cambria, Cambria;
      }

      .cls-1, .cls-14 {
        letter-spacing: -.01em;
      }

      .cls-15, .cls-16, .cls-17, .cls-18, .cls-19, .cls-20, .cls-21, .cls-9, .cls-10, .cls-22, .cls-23, .cls-12 {
        font-weight: 700;
      }

      .cls-15, .cls-17 {
        fill: #00aeef;
      }

      .cls-15, .cls-17, .cls-18, .cls-19, .cls-20, .cls-21, .cls-9, .cls-10, .cls-23 {
        font-family: Cambria-BoldItalic, Cambria;
      }

      .cls-16, .cls-20, .cls-21 {
        fill: #00a14b;
      }

      .cls-16, .cls-22, .cls-12 {
        font-family: Cambria-Bold, Cambria;
      }

      .cls-17, .cls-4, .cls-24, .cls-21, .cls-10 {
        font-style: italic;
      }

      .cls-2, .cls-25 {
        letter-spacing: -.01em;
      }

      .cls-3, .cls-26 {
        letter-spacing: 0em;
      }

      .cls-18, .cls-19, .cls-22, .cls-23 {
        fill: #f26522;
      }

      .cls-19 {
        letter-spacing: 0em;
      }

      .cls-4 {
        font-family: Georgia-Italic, Georgia;
        font-size: 13px;
      }

      .cls-27 {
        fill: #2e3192;
      }

      .cls-28 {
        fill: none;
        stroke: #231f20;
        stroke-miterlimit: 10;
        stroke-width: 2px;
      }

      .cls-29 {
        letter-spacing: -.08em;
      }

      .cls-24 {
        font-size: 35px;
      }

      .cls-6 {
        letter-spacing: -.02em;
      }

      .cls-30 {
        letter-spacing: 0em;
      }

      .cls-7 {
        font-family: Cambria-Italic, Cambria;
      }

      .cls-31 {
        font-size: 15px;
      }

      .cls-8 {
        letter-spacing: .01em;
      }

      .cls-32 {
        fill: #ed1c24;
      }

      .cls-33 {
        letter-spacing: -.11em;
      }

      .cls-34 {
        letter-spacing: 0em;
      }

      .cls-23 {
        letter-spacing: 0em;
      }

      .cls-35 {
        letter-spacing: -.03em;
      }

      .cls-36 {
        letter-spacing: -.01em;
      }

      .cls-37 {
        letter-spacing: -.02em;
      }

      .cls-11 {
        letter-spacing: -.01em;
      }

      .cls-12 {
        font-size: 17px;
      }

      .cls-38 {
        letter-spacing: -.02em;
      }

      .cls-39 {
        letter-spacing: -.02em;
      }
    </style>
  </defs>
  <text class="cls-31" transform="translate(30.25 217.93)"><tspan class="cls-5" x="0" y="0">With a </tspan><tspan class="cls-16" x="45.27" y="0">Dash</tspan><tspan class="cls-5" x="79.7" y="0">, the primary hand </tspan><tspan class="cls-11" x="201.23" y="0">e</tspan><tspan class="cls-6" x="208.37" y="0">x</tspan><tspan class="cls-5" x="215.3" y="0">ecu</tspan><tspan class="cls-3" x="237.51" y="0">t</tspan><tspan class="cls-5" x="242.45" y="0">es a dash and the secondary hand </tspan><tspan class="cls-1" x="460.12" y="0">r</tspan><tspan class="cls-5" x="466.11" y="0">emains static.</tspan><tspan class="cls-5"><tspan x="104.23" y="36">“Lambd</tspan><tspan class="cls-35" x="154.25" y="36">a</tspan><tspan x="161.14" y="36">” can be further shor</tspan><tspan class="cls-26" x="292.61" y="36">t</tspan><tspan x="297.55" y="36">ened </tspan><tspan class="cls-14" x="332.18" y="36">b</tspan><tspan x="340.17" y="36">y calling it “La</tspan><tspan class="cls-35" x="429.92" y="36">m</tspan><tspan class="cls-33" x="441.96" y="36">”</tspan><tspan x="445.98" y="36">.</tspan></tspan></text>
  <text class="cls-31" transform="translate(80.23 504.81)"><tspan class="cls-5" x="0" y="0">In a </tspan><tspan class="cls-17" x="27.17" y="0">Dual</tspan><tspan class="cls-10" x="59.11" y="0">-</tspan><tspan class="cls-21" x="63.99" y="0">Dash</tspan><tspan class="cls-5" x="98.05" y="0">, both the primary and the secondary hand a</tspan><tspan class="cls-1" x="380.44" y="0">r</tspan><tspan class="cls-5" x="386.43" y="0">e dashing.</tspan><tspan class="cls-5"><tspan x="111.77" y="18">The end position </tspan><tspan class="cls-14" x="222.66" y="18">r</tspan><tspan x="228.65" y="18">emains the same. </tspan></tspan><tspan class="cls-5"><tspan x="-8.87" y="36">Notab</tspan><tspan class="cls-38" x="29.91" y="36">l</tspan><tspan class="cls-29" x="33.68" y="36">y</tspan><tspan x="39.99" y="36">, adding this secondary dash </tspan><tspan class="cls-30" x="223.95" y="36">s</tspan><tspan class="cls-37" x="230.32" y="36">w</tspan><tspan x="241.66" y="36">aps the start position </tspan><tspan class="cls-25" x="380.27" y="36">f</tspan><tspan x="384.63" y="36">or Φ and Ψ.</tspan></tspan></text>
  <text class="cls-31" transform="translate(137.48 743.63)"><tspan class="cls-5" x="0" y="0">In a </tspan><tspan class="cls-22" x="27.17" y="0">Static </tspan><tspan class="cls-5" x="68.9" y="0">motion, both hands </tspan><tspan class="cls-1" x="196.16" y="0">r</tspan><tspan class="cls-5" x="202.15" y="0">emain still </tspan><tspan class="cls-2" x="272.25" y="0">f</tspan><tspan class="cls-5" x="276.61" y="0">or a bea</tspan><tspan class="cls-8" x="327.55" y="0">t</tspan><tspan class="cls-5" x="332.85" y="0">.</tspan><tspan class="cls-5"><tspan x="3.22" y="18">These become </tspan><tspan class="cls-14" x="97.97" y="18">r</tspan><tspan x="103.95" y="18">el</tspan><tspan class="cls-34" x="115.34" y="18">e</tspan><tspan class="cls-39" x="122.51" y="18">v</tspan><tspan x="129.75" y="18">ant </tspan><tspan class="cls-34" x="153.82" y="18">w</tspan><tspan x="165.29" y="18">hen </tspan><tspan class="cls-36" x="192.56" y="18">w</tspan><tspan x="203.99" y="18">e start adding turns.</tspan></tspan></text>
  <path class="cls-27" d="m380.84,419.23c.79,1.08,4.05,3.91,4.05,3.91,0,0,3.26-2.83,4.05-3.91.59-.82-.5-1.87-.5-1.87l-2.62,2.58v-26.07c0-1.32-1.86-1.32-1.86,0v26.07s-2.62-2.58-2.62-2.58c0,0-1.09,1.05-.5,1.87Z"/>
  <g>
    <line class="cls-28" x1="60.62" y1="285.63" x2="551.38" y2="285.63"/>
    <line class="cls-28" x1="60.62" y1="560.65" x2="551.38" y2="560.65"/>
  </g>
  <g>
    <rect class="cls-32" x="200.43" y="659.75" width="25" height="2.5" rx=".99" ry=".99" transform="translate(425.85 1321.99) rotate(-180)"/>
    <rect class="cls-27" x="284.24" y="674.06" width="25" height="2.5" rx=".99" ry=".99" transform="translate(-378.57 972.05) rotate(-90)"/>
    <rect class="cls-32" x="287.99" y="674.06" width="25" height="2.5" rx=".99" ry=".99" transform="translate(-374.82 975.8) rotate(-90)"/>
    <rect class="cls-27" x="171.8" y="659.75" width="25" height="2.5" rx=".99" ry=".99"/>
    <rect class="cls-32" x="400.43" y="659.75" width="25" height="2.5" rx=".99" ry=".99" transform="translate(825.85 1321.99) rotate(-180)"/>
    <rect class="cls-27" x="386.11" y="674.06" width="25" height="2.5" rx=".99" ry=".99" transform="translate(-276.69 1073.92) rotate(-90)"/>
    <g>
      <circle class="cls-13" cx="198.61" cy="631" r="2.5"/>
      <circle class="cls-13" cx="228.61" cy="661" r="2.5"/>
      <circle class="cls-13" cx="198.61" cy="691" r="2.5"/>
      <circle class="cls-13" cx="168.61" cy="661" r="2.5"/>
      <circle class="cls-13" cx="198.61" cy="661" r="1.12"/>
      <g>
        <circle class="cls-13" cx="298.61" cy="631" r="2.5"/>
        <circle class="cls-13" cx="328.61" cy="661" r="2.5"/>
        <circle class="cls-13" cx="298.61" cy="691" r="2.5"/>
        <circle class="cls-13" cx="268.61" cy="661" r="2.5"/>
        <circle class="cls-13" cx="298.61" cy="661" r="1.12"/>
      </g>
      <g>
        <circle class="cls-13" cx="398.61" cy="631" r="2.5"/>
        <circle class="cls-13" cx="428.61" cy="661" r="2.5"/>
        <circle class="cls-13" cx="398.61" cy="691" r="2.5"/>
        <circle class="cls-13" cx="368.61" cy="661" r="2.5"/>
        <circle class="cls-13" cx="398.61" cy="661" r="1.12"/>
      </g>
    </g>
    <path d="m203.77,705.42c-.58,0-.83.22-1.14.59-.15.17-.34,1.05-.67.49-.67-1.14.02-4.06.95-5.35.25-.33-.1-.52-.27-.62,0,0-.37-.19-.57-.13-.26.09-.53-.11-1.24,1.46-1.06-1.22-2.29-1.06-3.14-1.02-.75.03-3,.86-3,3.49,0,3.16,2.71,3.75,3.53,3.75s2.21-.53,2.56-.85c.21.64.6,1.03,1.08,1.13.75.16,1.08-.21,1.38-.63.44-.6.94-2.28.52-2.29Zm-5.54.89c-1.09,0-1.97-.9-1.97-1.98s.89-1.97,1.97-1.97,1.98.9,1.98,1.97-.9,1.98-1.98,1.98Z"/>
    <path d="m301.45,703.5c-.16-.2-.34-.37-.53-.53,2.94-3.35-3.93-5.42-4.03-1.35,0,1.93-.02,3.45-.02,5.38-.68-.21-1.45.23-1.56.98-.07,1.89,1.82,1.56,2.51.74.26-.31.36-.56.44-1.51,2.58,1.37,4.6-1.49,3.18-3.71Zm-1.11,2.59c-.77.61-1.12.01-1.66-.15-.12-.04-.24-.02-.37.03,0-1.54,0-3.06.02-4.62-.13-.86,1.1-1.14,1.64-.56.45.49.37,1.33-.17,1.52-1.77-.47-1.6,2.08,0,1.44.75.22,1.32,1.55.54,2.34Z"/>
    <path d="m402.56,700.22c-.02.26-.14.59-.9.55s-3.92.04-4.37.07c0,.56.26,3.6.43,7.28.05,1.13-.44,1.27-.64,1.27-.34,0-.92-.43-1.03-1.14-.09-.66-.16-2.16-.23-3.74-.06-1.37-.12-2.79-.21-3.75l-.95.31.03-1.02c.04-.21.25-.46.39-.47s6.42-.22,6.78-.2.7.53.69.83Z"/>
  </g>
  <text class="cls-24" transform="translate(195.82 601.61)"><tspan class="cls-7" x="0" y="0">Type 6</tspan><tspan class="cls-9" x="96.81" y="0" xml:space="preserve"> - </tspan><tspan class="cls-19" x="123.61" y="0">S</tspan><tspan class="cls-23" x="140.89" y="0">t</tspan><tspan class="cls-18" x="153.38" y="0">atic</tspan></text>
  <text class="cls-24" transform="translate(205.36 51.23)"><tspan class="cls-7" x="0" y="0">Type 4</tspan><tspan class="cls-9" x="96.81" y="0" xml:space="preserve"> - </tspan><tspan class="cls-20" x="123.61" y="0">Dash</tspan></text>
  <text class="cls-24" transform="translate(152.97 329.32)"><tspan class="cls-7" x="0" y="0">Type 5</tspan><tspan class="cls-9" x="96.81" y="0" xml:space="preserve"> - </tspan><tspan class="cls-15" x="123.61" y="0">Dual</tspan><tspan class="cls-9" x="198.16" y="0">-</tspan><tspan class="cls-20" x="209.54" y="0">Dash</tspan></text>
  <text class="cls-12" transform="translate(276.55 369)"><tspan x="0" y="0">β→β</tspan></text>
  <text class="cls-12" transform="translate(376.54 369)"><tspan x="0" y="0">Γ→Γ</tspan></text>
  <rect class="cls-32" x="195.56" y="406.76" width="24.34" height="2.5" rx=".95" ry=".95"/>
  <rect class="cls-32" x="395.56" y="406.76" width="24.34" height="2.5" rx=".95" ry=".95"/>
  <rect class="cls-27" x="392.21" y="410.11" width="2.5" height="24.34" rx=".95" ry=".95"/>
  <rect class="cls-27" x="167.02" y="406.76" width="24.34" height="2.5" rx=".95" ry=".95"/>
  <rect class="cls-27" x="290.53" y="410.04" width="2.5" height="24.34" rx=".95" ry=".95"/>
  <rect class="cls-32" x="293.89" y="410.04" width="2.5" height="24.34" rx=".95" ry=".95"/>
  <text class="cls-12" transform="translate(175.62 370)"><tspan x="0" y="0">α→α</tspan></text>
  <g>
    <g>
      <circle class="cls-13" cx="193.46" cy="378.01" r="2.5"/>
      <circle class="cls-13" cx="223.46" cy="408.01" r="2.5"/>
      <circle class="cls-13" cx="193.46" cy="438.01" r="2.5"/>
      <circle class="cls-13" cx="163.46" cy="408.01" r="2.5"/>
      <circle class="cls-13" cx="193.46" cy="408.01" r="1.12"/>
    </g>
    <g>
      <circle class="cls-13" cx="293.46" cy="378.01" r="2.5"/>
      <circle class="cls-13" cx="323.46" cy="408.01" r="2.5"/>
      <circle class="cls-13" cx="293.46" cy="438.01" r="2.5"/>
      <circle class="cls-13" cx="263.46" cy="408.01" r="2.5"/>
      <circle class="cls-13" cx="293.46" cy="408.01" r="1.12"/>
    </g>
    <g>
      <circle class="cls-13" cx="393.46" cy="378.01" r="2.5"/>
      <circle class="cls-13" cx="423.46" cy="408.01" r="2.5"/>
      <circle class="cls-13" cx="393.46" cy="438.01" r="2.5"/>
      <circle class="cls-13" cx="363.46" cy="408.01" r="2.5"/>
      <circle class="cls-13" cx="393.46" cy="408.01" r="1.12"/>
    </g>
  </g>
  <path class="cls-32" d="m204.68,411.78c1.08.79,3.91,4.05,3.91,4.05,0,0-2.83,3.26-3.91,4.05-.82.59-1.87-.5-1.87-.5l2.58-2.62h-26.07c-1.32,0-1.32-1.86,0-1.86h26.07s-2.58-2.62-2.58-2.62c0,0,1.05-1.09,1.87-.5Z"/>
  <path class="cls-27" d="m182.24,404.24c-1.08-.79-3.91-4.05-3.91-4.05,0,0,2.83-3.26,3.91-4.05.82-.59,1.87.5,1.87.5l-2.58,2.62h26.07c1.32,0,1.32,1.86,0,1.86h-26.07s2.58,2.62,2.58,2.62c0,0-1.05,1.09-1.87.5Z"/>
  <path class="cls-32" d="m404.68,395.38c1.08.79,3.91,4.05,3.91,4.05,0,0-2.83,3.26-3.91,4.05-.82.59-1.87-.5-1.87-.5l2.58-2.62h-26.07c-1.32,0-1.32-1.86,0-1.86h26.07s-2.58-2.62-2.58-2.62c0,0,1.05-1.09,1.87-.5Z"/>
  <path class="cls-32" d="m306.34,419.23c-.79,1.08-4.05,3.91-4.05,3.91,0,0-3.26-2.83-4.05-3.91-.59-.82.5-1.87.5-1.87l2.62,2.58v-26.07c0-1.32,1.86-1.32,1.86,0v26.07s2.62-2.58,2.62-2.58c0,0,1.09,1.05.5,1.87Z"/>
  <path class="cls-27" d="m280.58,419.23c.79,1.08,4.05,3.91,4.05,3.91,0,0,3.26-2.83,4.05-3.91.59-.82-.5-1.87-.5-1.87l-2.62,2.58v-26.07c0-1.32-1.86-1.32-1.86,0v26.07s-2.62-2.58-2.62-2.58c0,0-1.09,1.05-.5,1.87Z"/>
  <path class="cls-13" d="m389.62,454.44c.06-.29,1.97-5.54,3.02-7.94.32-.73.61-.72.74-.72s.42,0,.74.72c1.05,2.4,2.96,7.64,3.02,7.94.23,1-.08,1.16-.44,1.3-.28.13-.86.02-1.12-.7-.16-.42-2.2-5.86-2.2-5.86,0,0-2.05,5.44-2.2,5.86-.25.72-.83.82-1.12.7-.36-.15-.67-.3-.44-1.3Z"/>
  <path class="cls-13" d="m297.78,447.46c-.5,2.51-1.03,3.37-3.39,3.82-.04,0-.07.04-.08.07v3.6c0,.22-.1.44-.25.6s-.36.24-.59.24-.43-.09-.61-.24c-.16-.16-.24-.38-.24-.6v-3.6s-.05-.06-.09-.07c-2.35-.45-2.88-1.31-3.38-3.82-.08-.36-.04-.65.12-.83.17-.21.42-.24.56-.24.24,0,.43.22.56.45.13.23.2.47.21.54.25,1.71.73,2.29,1.85,2.29h.09s.07-.02.09-.06v-3.05c.12-.28.2-.48.31-.6.07-.06.15-.1.23-.13.05-.02.1-.03.14-.04.11-.02.24-.02.33,0,.05,0,.1.02.15.04.07,0,.15.06.22.13.12.12.21.31.3.6v.03s.02.03.02.05v2.94s0,.02,0,.04c0,.03.05.05.09.05,1.2.04,1.68-.54,1.93-2.29.03-.13.28-.99.76-.99h0c.14,0,.39.03.56.24.15.19.19.47.12.83Z"/>
  <path class="cls-13" d="m196.56,448.57c-.71-.51-1.55-.82-2.45-.91v-1.11c0-.42-.34-.76-.77-.76h-.12c-.43,0-.77.34-.77.76v1.11c-.9.09-1.75.4-2.45.91-.71.48-1.09,1.08-1.14,1.75-.06.85.42,1.62.85,2.01.7.66,1.64,1.05,2.74,1.14v1.55c0,.42.34.76.77.76h.12c.43,0,.77-.34.77-.76v-1.55c1.1-.09,2.04-.48,2.74-1.14.43-.39.91-1.17.85-2.01-.05-.68-.43-1.26-1.14-1.75Zm-2.45,1.84c0-.41,0-.75.04-1.08,0-.11.1-.2.21-.21h.07c.8,0,1.4.28,1.68.79.25.45.22,1.01-.09,1.45-.34.52-.97.77-1.72.69-.1,0-.18-.1-.18-.21,0-.27,0-.56,0-.85,0-.2,0-.39,0-.59Zm-3.66-.49c.27-.51.87-.79,1.67-.79h.07c.12,0,.21.1.22.21.03.33.04.69.04,1.08,0,.2,0,.4,0,.6,0,.28,0,.57,0,.84,0,.11-.08.2-.18.21-.75.09-1.37-.17-1.72-.69-.3-.44-.33-1-.09-1.45Z"/>
  <rect class="cls-13" x="198.98" y="449.84" width="6.95" height="1.9" rx=".95" ry=".95"/>
  <rect class="cls-13" x="298.98" y="449.84" width="6.95" height="1.9" rx=".95" ry=".95"/>
  <rect class="cls-13" x="398.98" y="449.84" width="6.95" height="1.9" rx=".95" ry=".95"/>
  <g>
    <rect class="cls-32" x="208.99" y="134.25" width="24.34" height="2.5" rx=".95" ry=".95"/>
    <rect class="cls-32" x="408.99" y="134.25" width="24.34" height="2.5" rx=".95" ry=".95"/>
    <rect class="cls-27" x="405.64" y="137.6" width="2.5" height="24.34" rx=".95" ry=".95"/>
    <rect class="cls-27" x="180.45" y="134.25" width="24.34" height="2.5" rx=".95" ry=".95"/>
    <rect class="cls-27" x="303.97" y="137.53" width="2.5" height="24.34" rx=".95" ry=".95"/>
    <rect class="cls-32" x="307.32" y="137.53" width="2.5" height="24.34" rx=".95" ry=".95"/>
    <text class="cls-12" transform="translate(189.3 91.48)"><tspan x="0" y="0">β→α</tspan></text>
    <text class="cls-12" transform="translate(289.4 91.48)"><tspan x="0" y="0">α→β</tspan></text>
    <text class="cls-12" transform="translate(391.36 91.48)"><tspan x="0" y="0">Γ→Γ</tspan></text>
    <g>
      <g>
        <circle class="cls-13" cx="206.89" cy="105.5" r="2.5"/>
        <circle class="cls-13" cx="236.89" cy="135.5" r="2.5"/>
        <circle class="cls-13" cx="206.89" cy="165.5" r="2.5"/>
        <circle class="cls-13" cx="176.89" cy="135.5" r="2.5"/>
        <circle class="cls-13" cx="206.89" cy="135.5" r="1.12"/>
      </g>
      <g>
        <circle class="cls-13" cx="306.89" cy="105.5" r="2.5"/>
        <circle class="cls-13" cx="336.89" cy="135.5" r="2.5"/>
        <circle class="cls-13" cx="306.89" cy="165.5" r="2.5"/>
        <circle class="cls-13" cx="276.89" cy="135.5" r="2.5"/>
        <circle class="cls-13" cx="306.89" cy="135.5" r="1.12"/>
      </g>
      <g>
        <circle class="cls-13" cx="406.89" cy="105.5" r="2.5"/>
        <circle class="cls-13" cx="436.89" cy="135.5" r="2.5"/>
        <circle class="cls-13" cx="406.89" cy="165.5" r="2.5"/>
        <circle class="cls-13" cx="376.89" cy="135.5" r="2.5"/>
        <circle class="cls-13" cx="406.89" cy="135.5" r="1.12"/>
      </g>
    </g>
    <path class="cls-32" d="m218.11,139.28c1.08.79,3.91,4.05,3.91,4.05,0,0-2.83,3.26-3.91,4.05-.82.59-1.87-.5-1.87-.5l2.58-2.62h-26.07c-1.32,0-1.32-1.86,0-1.86h26.07s-2.58-2.62-2.58-2.62c0,0,1.05-1.09,1.87-.5Z"/>
    <path class="cls-32" d="m418.11,122.88c1.08.79,3.91,4.05,3.91,4.05,0,0-2.83,3.26-3.91,4.05-.82.59-1.87-.5-1.87-.5l2.58-2.62h-26.07c-1.32,0-1.32-1.86,0-1.86h26.07s-2.58-2.62-2.58-2.62c0,0,1.05-1.09,1.87-.5Z"/>
    <path class="cls-32" d="m319.77,146.72c-.79,1.08-4.05,3.91-4.05,3.91,0,0-3.26-2.83-4.05-3.91-.59-.82.5-1.87.5-1.87l2.62,2.58v-26.07c0-1.32,1.86-1.32,1.86,0v26.07s2.62-2.58,2.62-2.58c0,0,1.09,1.05.5,1.87Z"/>
    <path class="cls-13" d="m403.05,181.93c.06-.29,1.97-5.54,3.02-7.94.32-.73.61-.72.74-.72s.42,0,.74.72c1.05,2.4,2.96,7.64,3.02,7.94.23,1-.08,1.16-.44,1.3-.28.13-.86.02-1.12-.7-.16-.42-2.2-5.86-2.2-5.86,0,0-2.05,5.44-2.2,5.86-.25.72-.83.82-1.12.7-.36-.15-.67-.3-.44-1.3Z"/>
    <path class="cls-13" d="m311.21,174.95c-.5,2.51-1.03,3.37-3.39,3.82-.04,0-.07.04-.08.07v3.6c0,.22-.1.44-.25.6s-.36.24-.59.24-.43-.09-.61-.24c-.16-.16-.24-.38-.24-.6v-3.6s-.05-.06-.09-.07c-2.35-.45-2.88-1.31-3.38-3.82-.08-.36-.04-.65.12-.83.17-.21.42-.24.56-.24.24,0,.43.22.56.45.13.23.2.47.21.54.25,1.71.73,2.29,1.85,2.29h.09s.07-.02.09-.06v-3.05c.12-.28.2-.48.31-.6.07-.06.15-.1.23-.13.05-.02.1-.03.14-.04.11-.02.24-.02.33,0,.05,0,.1.02.15.04.07,0,.15.06.22.13.12.12.21.31.3.6v.03s.02.03.02.05v2.94s0,.02,0,.04c0,.03.05.05.09.05,1.2.04,1.68-.54,1.93-2.29.03-.13.28-.99.76-.99h0c.14,0,.39.03.56.24.15.19.19.47.12.83Z"/>
    <path class="cls-13" d="m209.99,176.07c-.71-.51-1.55-.82-2.45-.91v-1.11c0-.42-.34-.76-.77-.76h-.12c-.43,0-.77.34-.77.76v1.11c-.9.09-1.75.4-2.45.91-.71.48-1.09,1.08-1.14,1.75-.06.85.42,1.62.85,2.01.7.66,1.64,1.05,2.74,1.14v1.55c0,.42.34.76.77.76h.12c.43,0,.77-.34.77-.76v-1.55c1.1-.09,2.04-.48,2.74-1.14.43-.39.91-1.17.85-2.01-.05-.68-.43-1.26-1.14-1.75Zm-2.45,1.84c0-.41,0-.75.04-1.08,0-.11.1-.2.21-.21h.07c.8,0,1.4.28,1.68.79.25.45.22,1.01-.09,1.45-.34.52-.97.77-1.72.69-.1,0-.18-.1-.18-.21,0-.27,0-.56,0-.85,0-.2,0-.39,0-.59Zm-3.66-.49c.27-.51.87-.79,1.67-.79h.07c.12,0,.21.1.22.21.03.33.04.69.04,1.08,0,.2,0,.4,0,.6,0,.28,0,.57,0,.84,0,.11-.08.2-.18.21-.75.09-1.37-.17-1.72-.69-.3-.44-.33-1-.09-1.45Z"/>
    <text class="cls-4" transform="translate(214.91 182.57)"><tspan x="0" y="0">Phi</tspan></text>
    <text class="cls-4" transform="translate(315.26 182.57)"><tspan x="0" y="0">Psi</tspan></text>
  </g>
  <text class="cls-4" transform="translate(417.31 182.57)"><tspan x="0" y="0">Lambda</tspan></text>
  <text class="cls-4" transform="translate(163.46 472.9)"><tspan x="0" y="0">“Phi Dash”</tspan></text>
  <text class="cls-4" transform="translate(263.8 472.9)"><tspan x="0" y="0">“Psi Dash”</tspan></text>
  <text class="cls-4" transform="translate(360.96 472.9)"><tspan x="0" y="0">“Lam Dash”</tspan></text>
  <text class="cls-4" transform="translate(212.93 708.49)"><tspan x="0" y="0">Alpha</tspan></text>
  <text class="cls-4" transform="translate(312.37 708.49)"><tspan x="0" y="0">Beta</tspan></text>
  <text class="cls-4" transform="translate(408.14 708.49)"><tspan x="0" y="0">Gamma</tspan></text>
</svg>