<?xml version="1.0" encoding="UTF-8"?>
<svg id="Layer_1" data-name="Layer 1" xmlns="http://www.w3.org/2000/svg" viewBox="0 0 612 792">
  <defs>
    <style>
      .cls-1 {
        fill: none;
      }

      .cls-1, .cls-2 {
        stroke: #231f20;
        stroke-miterlimit: 10;
      }

      .cls-3, .cls-4, .cls-5, .cls-6, .cls-7, .cls-2, .cls-8, .cls-9, .cls-10, .cls-11, .cls-12, .cls-13, .cls-14, .cls-15, .cls-16 {
        fill: #231f20;
      }

      .cls-3, .cls-4, .cls-5, .cls-6, .cls-7, .cls-9, .cls-10, .cls-11, .cls-14, .cls-17 {
        font-family: Cambria, Cambria;
      }

      .cls-3, .cls-18 {
        letter-spacing: -.01em;
      }

      .cls-19, .cls-5 {
        letter-spacing: -.02em;
      }

      .cls-20 {
        letter-spacing: -.01em;
      }

      .cls-4 {
        letter-spacing: -.01em;
      }

      .cls-21, .cls-22, .cls-23, .cls-24 {
        font-weight: 700;
      }

      .cls-21, .cls-23, .cls-25 {
        fill: #ed1c24;
      }

      .cls-21, .cls-24 {
        font-family: Cambria-Bold, Cambria;
      }

      .cls-6, .cls-26 {
        letter-spacing: 0em;
      }

      .cls-22, .cls-23 {
        font-family: Georgia-Bold, Georgia;
        font-size: 9.6px;
      }

      .cls-22, .cls-27, .cls-24 {
        fill: #2e3192;
      }

      .cls-7 {
        letter-spacing: -.01em;
      }

      .cls-8 {
        font-size: 45px;
      }

      .cls-8, .cls-12 {
        font-family: MonotypeCorsiva, 'Monotype Corsiva';
      }

      .cls-28 {
        letter-spacing: 2.18em;
      }

      .cls-9, .cls-29 {
        letter-spacing: -.02em;
      }

      .cls-30 {
        letter-spacing: -.01em;
      }

      .cls-31 {
        letter-spacing: -.08em;
      }

      .cls-32, .cls-33, .cls-15 {
        font-family: Cambria-Italic, Cambria;
        font-style: italic;
      }

      .cls-11, .cls-13, .cls-34 {
        font-size: 15px;
      }

      .cls-12 {
        font-size: 30px;
      }

      .cls-33, .cls-35 {
        letter-spacing: 0em;
      }

      .cls-14, .cls-36 {
        letter-spacing: .01em;
      }

      .cls-37 {
        letter-spacing: -.01em;
      }

      .cls-38 {
        letter-spacing: -.06em;
      }

      .cls-39 {
        letter-spacing: -.02em;
      }

      .cls-40 {
        letter-spacing: -.02em;
      }

      .cls-15 {
        font-size: 12px;
      }

      .cls-41 {
        letter-spacing: -.03em;
      }

      .cls-42 {
        letter-spacing: -.02em;
      }
    </style>
  </defs>
  <text class="cls-12" transform="translate(324.79 597.83)"><tspan x="0" y="0">Full-reversal</tspan></text>
  <text class="cls-34" transform="translate(232.86 631.61)"><tspan class="cls-10"><tspan class="cls-28" x="0" y="0">	</tspan><tspan x="36" y="0">With a full-</tspan><tspan class="cls-18" x="107.22" y="0">r</tspan><tspan class="cls-35" x="113.2" y="0">e</tspan><tspan class="cls-39" x="120.38" y="0">v</tspan><tspan x="127.64" y="0">ersal, the p</tspan><tspan class="cls-18" x="197.7" y="0">r</tspan><tspan x="203.68" y="0">op and hand </tspan><tspan class="cls-18" x="286.2" y="0">r</tspan><tspan x="292.19" y="0">et</tspan><tspan class="cls-19" x="304.58" y="0">r</tspan><tspan x="310.53" y="0">ace </tspan></tspan><tspan class="cls-10"><tspan x="0" y="18">their paths and </tspan><tspan class="cls-18" x="100.43" y="18">r</tspan><tspan x="106.41" y="18">eturn </tspan><tspan class="cls-26" x="144.97" y="18">t</tspan><tspan x="149.91" y="18">o their p</tspan><tspan class="cls-18" x="203.86" y="18">r</tspan><tspan class="cls-35" x="209.85" y="18">e</tspan><tspan x="217.02" y="18">vious position, as if </tspan></tspan><tspan class="cls-10"><tspan x="0" y="36">going back</tspan><tspan class="cls-42" x="68.64" y="36">w</tspan><tspan x="79.98" y="36">a</tspan><tspan class="cls-18" x="87.3" y="36">r</tspan><tspan x="93.29" y="36">ds in time. </tspan></tspan><tspan class="cls-10"><tspan class="cls-28" x="0" y="72">	</tspan><tspan x="36" y="72">Because this contains a p</tspan><tspan class="cls-18" x="195.65" y="72">r</tspan><tspan x="201.63" y="72">op </tspan><tspan class="cls-18" x="221.24" y="72">r</tspan><tspan class="cls-35" x="227.22" y="72">e</tspan><tspan class="cls-39" x="234.39" y="72">v</tspan><tspan x="241.66" y="72">ersal, </tspan><tspan class="cls-39" x="279.4" y="72">y</tspan><tspan x="286.66" y="72">ou can </tspan></tspan><tspan class="cls-10" x="0" y="90">add an “</tspan><tspan class="cls-21" x="51.9" y="90">R</tspan><tspan class="cls-10" x="61.82" y="90">/</tspan><tspan class="cls-24" x="69.18" y="90">R</tspan><tspan class="cls-10" x="79.1" y="90">” </tspan><tspan class="cls-6" x="88.04" y="90">t</tspan><tspan class="cls-10" x="92.98" y="90">o d</tspan><tspan class="cls-5" x="112.57" y="90">r</tspan><tspan class="cls-4" x="118.51" y="90">a</tspan><tspan class="cls-10" x="125.64" y="90">w at</tspan><tspan class="cls-6" x="152.96" y="90">t</tspan><tspan class="cls-10" x="157.9" y="90">ention </tspan><tspan class="cls-6" x="202.47" y="90">t</tspan><tspan class="cls-10" x="207.41" y="90">o i</tspan><tspan class="cls-14" x="222.85" y="90">t</tspan><tspan class="cls-10" x="228.14" y="90">. This succinct</tspan><tspan class="cls-9" x="317.79" y="90">l</tspan><tspan class="cls-10" x="321.56" y="90">y </tspan><tspan class="cls-10"><tspan x="0" y="108">indica</tspan><tspan class="cls-26" x="38.96" y="108">t</tspan><tspan x="43.91" y="108">es </tspan><tspan class="cls-26" x="60.97" y="108">t</tspan><tspan x="65.92" y="108">o the per</tspan><tspan class="cls-30" x="123.02" y="108">f</tspan><tspan x="127.38" y="108">ormer that something unusual is </tspan></tspan><tspan class="cls-10"><tspan x="0" y="126">happening. </tspan></tspan></text>
  <text class="cls-11" transform="translate(188.54 186.06)"><tspan class="cls-28" x="0" y="0">	</tspan><tspan x="36" y="0">With a hand </tspan><tspan class="cls-18" x="116.87" y="0">r</tspan><tspan class="cls-35" x="122.85" y="0">e</tspan><tspan class="cls-39" x="130.02" y="0">v</tspan><tspan x="137.29" y="0">ersal, the hand </tspan><tspan class="cls-18" x="234.6" y="0">r</tspan><tspan x="240.58" y="0">eturns </tspan><tspan class="cls-26" x="285.58" y="0">t</tspan><tspan x="290.52" y="0">o the point it came </tspan><tspan x="0" y="18">f</tspan><tspan class="cls-18" x="4.54" y="18">r</tspan><tspan x="10.52" y="18">om p</tspan><tspan class="cls-18" x="42.61" y="18">r</tspan><tspan class="cls-35" x="48.6" y="18">e</tspan><tspan x="55.77" y="18">vious</tspan><tspan class="cls-29" x="90.18" y="18">l</tspan><tspan class="cls-31" x="93.96" y="18">y</tspan><tspan x="100.27" y="18">, without changing the p</tspan><tspan class="cls-18" x="253.97" y="18">r</tspan><tspan x="259.96" y="18">o</tspan><tspan class="cls-41" x="267.92" y="18">p</tspan><tspan x="275.82" y="18">’s di</tspan><tspan class="cls-18" x="301.38" y="18">r</tspan><tspan x="307.36" y="18">ection of spin. </tspan><tspan class="cls-40" x="0" y="36">R</tspan><tspan x="9.05" y="36">elat</tspan><tspan class="cls-29" x="32.83" y="36">i</tspan><tspan class="cls-39" x="36.7" y="36">v</tspan><tspan x="43.97" y="36">e </tspan><tspan class="cls-26" x="54.59" y="36">t</tspan><tspan x="59.53" y="36">o the cen</tspan><tspan class="cls-26" x="117.07" y="36">t</tspan><tspan x="122.01" y="36">er poin</tspan><tspan class="cls-36" x="167.68" y="36">t</tspan><tspan x="172.98" y="36">, this changes a p</tspan><tspan class="cls-18" x="280.66" y="36">r</tspan><tspan x="286.64" y="36">ospin </tspan><tspan class="cls-26" x="325.23" y="36">t</tspan><tspan x="330.18" y="36">o an antispin </tspan><tspan x="0" y="54">and vica-</tspan><tspan class="cls-39" x="57.96" y="54">v</tspan><tspan x="65.23" y="54">ersa. </tspan><tspan x="0" y="72"> </tspan><tspan class="cls-28" x="0" y="90">	</tspan><tspan x="36" y="90">This is the simplest and least disrupt</tspan><tspan class="cls-29" x="270.32" y="90">i</tspan><tspan class="cls-39" x="274.18" y="90">v</tspan><tspan x="281.45" y="90">e </tspan><tspan class="cls-18" x="292.07" y="90">r</tspan><tspan class="cls-35" x="298.05" y="90">e</tspan><tspan class="cls-39" x="305.22" y="90">v</tspan><tspan x="312.49" y="90">ersal. </tspan><tspan class="cls-38" x="350.23" y="90">W</tspan><tspan x="363.17" y="90">e’</tspan><tspan class="cls-39" x="373.81" y="90">v</tspan><tspan x="381.07" y="90">e </tspan><tspan x="0" y="108">al</tspan><tspan class="cls-18" x="11.4" y="108">r</tspan><tspan x="17.38" y="108">ea</tspan><tspan class="cls-29" x="32.02" y="108">d</tspan><tspan x="40.04" y="108">y used it in the p</tspan><tspan class="cls-18" x="145.28" y="108">r</tspan><tspan class="cls-35" x="151.26" y="108">e</tspan><tspan x="158.43" y="108">vious </tspan><tspan class="cls-20" x="196.15" y="108">e</tspan><tspan class="cls-37" x="203.29" y="108">x</tspan><tspan x="210.34" y="108">amples. </tspan></text>
  <text class="cls-11" transform="translate(148.75 70.76)"><tspan class="cls-40" x="0" y="0">R</tspan><tspan class="cls-35" x="9.05" y="0">e</tspan><tspan class="cls-39" x="16.22" y="0">v</tspan><tspan x="23.48" y="0">ersals open up a huge number of possibilities!</tspan><tspan x="48.98" y="18">The</tspan><tspan class="cls-18" x="73.47" y="18">r</tspan><tspan x="79.45" y="18">e a</tspan><tspan class="cls-18" x="97.39" y="18">r</tspan><tspan x="103.38" y="18">e th</tspan><tspan class="cls-18" x="127.35" y="18">r</tspan><tspan x="133.33" y="18">ee types of </tspan><tspan class="cls-18" x="205.12" y="18">r</tspan><tspan class="cls-35" x="211.1" y="18">e</tspan><tspan class="cls-39" x="218.27" y="18">v</tspan><tspan x="225.54" y="18">ersals:</tspan></text>
  <line class="cls-1" x1="9.29" y1="107.87" x2="604.76" y2="107.87"/>
  <line class="cls-1" x1="9.16" y1="558.31" x2="604.63" y2="558.31"/>
  <line class="cls-1" x1="9.16" y1="333.62" x2="604.63" y2="333.62"/>
  <g>
    <path class="cls-25" d="m73.01,152.92h-24.23c-.47,0-.85.37-.85.82v.94c0,.45.38.82.85.82h24.23c.47,0,.85-.37.85-.82v-.94c0-.45-.38-.82-.85-.82Z"/>
    <path class="cls-25" d="m137.34,127.22v24.23c0,.47-.37.85-.82.85h-.94c-.45,0-.82-.38-.82-.85v-24.23c0-.47.37-.85.82-.85h.94c.45,0,.82.38.82.85Z"/>
    <g>
      <path class="cls-16" d="m48.6,185.32c0,3.34-5.18,3.34-5.18,0s5.18-3.34,5.18,0h0Z"/>
      <path class="cls-16" d="m17.49,154.22c0,3.34-5.18,3.34-5.18,0,0-3.34,5.18-3.34,5.18,0h0Z"/>
      <path class="cls-16" d="m48.6,123.12c0,3.34-5.18,3.34-5.18,0,0-3.34,5.18-3.34,5.18,0h0Z"/>
      <path class="cls-16" d="m79.7,154.22c0,3.34-5.18,3.34-5.18,0,0-3.34,5.18-3.34,5.18,0h0Z"/>
      <path class="cls-16" d="m46.01,155.57c1.74,0,1.74-2.7,0-2.7s-1.74,2.7,0,2.7h0Z"/>
    </g>
    <g>
      <path class="cls-16" d="m138.64,185.32c0,3.34-5.18,3.34-5.18,0s5.18-3.34,5.18,0h0Z"/>
      <path class="cls-16" d="m107.53,154.22c0,3.34-5.18,3.34-5.18,0,0-3.34,5.18-3.34,5.18,0h0Z"/>
      <path class="cls-16" d="m138.64,123.12c0,3.34-5.18,3.34-5.18,0,0-3.34,5.18-3.34,5.18,0h0Z"/>
      <path class="cls-16" d="m169.74,154.22c0,3.34-5.18,3.34-5.18,0,0-3.34,5.18-3.34,5.18,0h0Z"/>
      <path class="cls-16" d="m136.05,155.57c1.74,0,1.74-2.7,0-2.7s-1.74,2.7,0,2.7h0Z"/>
    </g>
    <path class="cls-25" d="m51.43,124.99c12.33,0,23.52,9.93,23.55,22.17l2.5-2.74s1.15,1.04.56,1.92c-.67.99-4.07,4.23-4.07,4.23,0,0-3.44-2.76-4.37-3.94-.66-.84.45-1.96.45-1.96l2.88,2.71c-.03-9.26-7.58-19.48-21.5-20.22-1.63-.09-1.68-2.16,0-2.16Z"/>
    <path class="cls-25" d="m167.46,149.82c-20.11,0-22.05-1.35-22.05-20.89l-2.76,2.82s-1.14-1.08-.52-1.94c.89-1.22,4.23-4.1,4.23-4.1,0,0,3.5,3.12,4.22,4.1.63.85-.49,1.94-.49,1.94l-2.66-2.82c0,17.91,1.03,18.74,20,18.74,1.56,0,1.56,2.15.03,2.15Z"/>
  </g>
  <g>
    <path class="cls-25" d="m85.49,602.84h-24.23c-.47,0-.85.37-.85.82v.94c0,.45.38.82.85.82h24.23c.47,0,.85-.37.85-.82v-.94c0-.45-.38-.82-.85-.82Z"/>
    <path class="cls-25" d="m154.83,577.13v24.23c0,.47-.37.85-.82.85h-.94c-.45,0-.82-.38-.82-.85v-24.23c0-.47.37-.85.82-.85h.94c.45,0,.82.38.82.85Z"/>
    <g>
      <path class="cls-16" d="m61.08,635.24c0,3.34-5.18,3.34-5.18,0,0-3.34,5.18-3.34,5.18,0h0Z"/>
      <path class="cls-16" d="m29.98,604.13c0,3.34-5.18,3.34-5.18,0,0-3.34,5.18-3.34,5.18,0h0Z"/>
      <path class="cls-16" d="m61.08,573.03c0,3.34-5.18,3.34-5.18,0,0-3.34,5.18-3.34,5.18,0h0Z"/>
      <path class="cls-16" d="m92.19,604.13c0,3.34-5.18,3.34-5.18,0,0-3.34,5.18-3.34,5.18,0h0Z"/>
      <path class="cls-16" d="m58.49,605.48c1.74,0,1.74-2.7,0-2.7s-1.74,2.7,0,2.7h0Z"/>
    </g>
    <g>
      <path class="cls-16" d="m156.12,635.24c0,3.34-5.18,3.34-5.18,0,0-3.34,5.18-3.34,5.18,0h0Z"/>
      <path class="cls-16" d="m125.02,604.13c0,3.34-5.18,3.34-5.18,0,0-3.34,5.18-3.34,5.18,0h0Z"/>
      <path class="cls-16" d="m156.12,573.03c0,3.34-5.18,3.34-5.18,0,0-3.34,5.18-3.34,5.18,0h0Z"/>
      <path class="cls-16" d="m187.23,604.13c0,3.34-5.18,3.34-5.18,0,0-3.34,5.18-3.34,5.18,0h0Z"/>
      <path class="cls-16" d="m153.53,605.48c1.74,0,1.74-2.7,0-2.7s-1.74,2.7,0,2.7h0Z"/>
    </g>
    <path class="cls-25" d="m63.91,574.9c12.33,0,23.52,9.93,23.55,22.17l2.5-2.74s1.15,1.04.56,1.92c-.67.99-4.07,4.23-4.07,4.23,0,0-3.44-2.76-4.37-3.94-.66-.84.45-1.96.45-1.96l2.88,2.71c-.03-9.26-7.58-19.48-21.5-20.22-1.63-.09-1.68-2.16,0-2.16Z"/>
    <path class="cls-25" d="m182.76,598.71c0-12.33-9.93-23.52-22.17-23.55l2.74-2.5s-1.04-1.15-1.92-.56c-.99.67-4.23,4.07-4.23,4.07,0,0,2.76,3.44,3.94,4.37.84.66,1.96-.45,1.96-.45l-2.71-2.88c9.26.03,19.48,7.58,20.22,21.5.09,1.63,2.16,1.68,2.16,0Z"/>
  </g>
  <text class="cls-12" transform="translate(345.18 141.18)"><tspan x="0" y="0">Hand-reversal</tspan></text>
  <text class="cls-8" transform="translate(232.22 40.91)"><tspan x="0" y="0">Reversals </tspan></text>
  <text class="cls-13" transform="translate(79.12 665.93)"><tspan class="cls-32" x="0" y="0">P</tspan><tspan class="cls-33" x="8.33" y="0">r</tspan><tspan class="cls-32" x="14.29" y="0">o</tspan><tspan class="cls-17" x="21.89" y="0">→</tspan><tspan class="cls-32" x="34.46" y="0">P</tspan><tspan class="cls-33" x="42.79" y="0">r</tspan><tspan class="cls-32" x="48.75" y="0">o</tspan></text>
  <g>
    <g>
      <path class="cls-27" d="m154.83,741.13v-24.23c0-.47-.37-.85-.82-.85h-.94c-.45,0-.82.38-.82.85v24.23c0,.47.37.85.82.85h.94c.45,0,.82-.38.82-.85Z"/>
      <path class="cls-27" d="m31.49,715.43h24.23c.47,0,.85-.37.85-.82v-.94c0-.45-.38-.82-.85-.82h-24.23c-.47,0-.85.37-.85.82v.94c0,.45.38.82.85.82Z"/>
      <g>
        <path class="cls-16" d="m61.08,745.24c0,3.34-5.18,3.34-5.18,0,0-3.34,5.18-3.34,5.18,0h0Z"/>
        <path class="cls-16" d="m29.98,714.13c0,3.34-5.18,3.34-5.18,0,0-3.34,5.18-3.34,5.18,0h0Z"/>
        <path class="cls-16" d="m61.08,683.03c0,3.34-5.18,3.34-5.18,0,0-3.34,5.18-3.34,5.18,0h0Z"/>
        <path class="cls-16" d="m92.19,714.13c0,3.34-5.18,3.34-5.18,0,0-3.34,5.18-3.34,5.18,0h0Z"/>
        <path class="cls-16" d="m58.49,715.48c1.74,0,1.74-2.7,0-2.7s-1.74,2.7,0,2.7h0Z"/>
      </g>
      <g>
        <path class="cls-16" d="m156.12,745.24c0,3.34-5.18,3.34-5.18,0,0-3.34,5.18-3.34,5.18,0h0Z"/>
        <path class="cls-16" d="m125.02,714.13c0,3.34-5.18,3.34-5.18,0,0-3.34,5.18-3.34,5.18,0h0Z"/>
        <path class="cls-16" d="m156.12,683.03c0,3.34-5.18,3.34-5.18,0,0-3.34,5.18-3.34,5.18,0h0Z"/>
        <path class="cls-16" d="m187.23,714.13c0,3.34-5.18,3.34-5.18,0,0-3.34,5.18-3.34,5.18,0h0Z"/>
        <path class="cls-16" d="m153.53,715.48c1.74,0,1.74-2.7,0-2.7s-1.74,2.7,0,2.7h0Z"/>
      </g>
      <path class="cls-27" d="m52.97,742.77c0-20.11-1.35-22.05-20.89-22.05l2.82-2.76s-1.08-1.14-1.94-.52c-1.22.89-4.1,4.23-4.1,4.23,0,0,3.12,3.5,4.1,4.22.85.63,1.94-.49,1.94-.49l-2.82-2.66c17.91,0,18.74,1.03,18.74,20,0,1.56,2.15,1.56,2.15.03Z"/>
      <path class="cls-27" d="m124.41,718.32c20.11,0,22.05,1.35,22.05,20.89l2.76-2.82s1.14,1.08.52,1.94c-.89,1.22-4.23,4.1-4.23,4.1,0,0-3.5-3.12-4.22-4.1-.63-.85.49-1.94.49-1.94l2.66,2.82c0-17.91-1.03-18.74-20-18.74-1.56,0-1.56-2.15-.03-2.15Z"/>
    </g>
    <text class="cls-13" transform="translate(72.51 764.98)"><tspan class="cls-33" x="0" y="0">A</tspan><tspan class="cls-32" x="8.68" y="0">nti</tspan><tspan class="cls-17" x="25.95" y="0">→</tspan><tspan class="cls-33" x="38.52" y="0">A</tspan><tspan class="cls-32" x="47.2" y="0">nti</tspan></text>
  </g>
  <text class="cls-13" transform="translate(66.29 207.25)"><tspan class="cls-32" x="0" y="0">P</tspan><tspan class="cls-33" x="8.33" y="0">r</tspan><tspan class="cls-32" x="14.29" y="0">o</tspan><tspan class="cls-17" x="21.89" y="0">→</tspan><tspan class="cls-33" x="34.46" y="0">A</tspan><tspan class="cls-32" x="43.14" y="0">nti</tspan></text>
  <g>
    <g>
      <g>
        <path class="cls-16" d="m43.41,295.28c0,3.33,5.18,3.34,5.18,0s-5.18-3.34-5.18,0h0Z"/>
        <path class="cls-16" d="m74.52,264.22c0,3.33,5.18,3.34,5.18,0,0-3.33-5.18-3.34-5.18,0h0Z"/>
        <path class="cls-16" d="m43.41,233.16c0,3.33,5.18,3.34,5.18,0s-5.18-3.34-5.18,0h0Z"/>
        <path class="cls-16" d="m12.31,264.22c0,3.33,5.18,3.34,5.18,0,0-3.33-5.18-3.34-5.18,0h0Z"/>
        <path class="cls-16" d="m46.01,265.57c1.74,0,1.74-2.7,0-2.7s-1.74,2.7,0,2.7h0Z"/>
      </g>
      <g>
        <path class="cls-16" d="m133.45,295.28c0,3.33,5.18,3.34,5.18,0s-5.18-3.34-5.18,0h0Z"/>
        <path class="cls-16" d="m164.56,264.22c0,3.33,5.18,3.34,5.18,0,0-3.33-5.18-3.34-5.18,0h0Z"/>
        <path class="cls-16" d="m133.45,233.16c0,3.33,5.18,3.34,5.18,0s-5.18-3.34-5.18,0h0Z"/>
        <path class="cls-16" d="m102.35,264.22c0,3.33,5.18,3.34,5.18,0,0-3.33-5.18-3.34-5.18,0h0Z"/>
        <path class="cls-16" d="m136.05,265.57c1.74,0,1.74-2.7,0-2.7s-1.74,2.7,0,2.7h0Z"/>
      </g>
      <path class="cls-27" d="m51.52,234.08c0,20.08,1.35,22.02,20.89,22.02l-2.82,2.76s1.08,1.14,1.94.52c1.22-.88,4.1-4.23,4.1-4.23,0,0-3.12-3.5-4.1-4.21-.85-.63-1.94.49-1.94.49l2.82,2.65c-17.91,0-18.74-1.03-18.74-19.97,0-1.56-2.15-1.56-2.15-.03Z"/>
      <path class="cls-27" d="m166.85,259.01c0-12.31-9.93-23.49-22.17-23.52l2.74-2.5s-1.04-1.15-1.92-.55c-.99.67-4.23,4.07-4.23,4.07,0,0,2.76,3.44,3.94,4.36.84.65,1.96-.45,1.96-.45l-2.71-2.88c9.26.03,19.48,7.57,20.22,21.47.09,1.62,2.16,1.68,2.16,0Z"/>
      <path class="cls-27" d="m73.1,267.1v-5.76c0-.48-.4-.87-.89-.87-.49,0-.89.39-.89.87v1.92h-21.85c-.48,0-.87.38-.87.85v.32c0,.46.39.85.87.85h21.85v1.82c0,.48.4.87.89.87s.89-.39.89-.87Z"/>
      <path class="cls-27" d="m138.93,237.17h-5.76c-.48,0-.87.4-.87.89s.39.89.87.89h1.92v21.85c0,.48.38.87.85.87h.32c.46,0,.85-.39.85-.87v-21.85h1.82c.48,0,.87-.4.87-.89,0-.49-.39-.89-.87-.89Z"/>
    </g>
    <text class="cls-13" transform="translate(59.67 317.29)"><tspan class="cls-33" x="0" y="0">A</tspan><tspan class="cls-32" x="8.68" y="0">nti</tspan><tspan class="cls-17" x="25.95" y="0">→</tspan><tspan class="cls-32" x="38.52" y="0">P</tspan><tspan class="cls-33" x="46.85" y="0">r</tspan><tspan class="cls-32" x="52.81" y="0">o</tspan></text>
    <text class="cls-15" transform="translate(12.31 235.83)"><tspan x="0" y="0">1</tspan></text>
    <text class="cls-15" transform="translate(102.21 235.83)"><tspan x="0" y="0">2</tspan></text>
  </g>
  <line class="cls-2" x1="11.92" y1="216.99" x2="169.74" y2="216.99"/>
  <text class="cls-23" transform="translate(101.76 607.28)"><tspan x="0" y="0">R</tspan></text>
  <text class="cls-22" transform="translate(101.76 717.28)"><tspan x="0" y="0">R</tspan></text>
  <text class="cls-34" transform="translate(24.81 400.16)"><tspan class="cls-10"><tspan class="cls-28" x="0" y="0">	</tspan><tspan x="36" y="0">With a p</tspan><tspan class="cls-18" x="89.61" y="0">r</tspan><tspan x="95.6" y="0">op </tspan><tspan class="cls-18" x="115.2" y="0">r</tspan><tspan class="cls-35" x="121.19" y="0">e</tspan><tspan class="cls-39" x="128.36" y="0">v</tspan><tspan x="135.62" y="0">ersal, the hand continues </tspan><tspan class="cls-26" x="298.84" y="0">t</tspan><tspan x="303.79" y="0">o the n</tspan><tspan class="cls-20" x="347.4" y="0">e</tspan><tspan x="354.54" y="0">xt </tspan></tspan><tspan class="cls-10"><tspan x="0" y="18">point </tspan><tspan class="cls-35" x="37.22" y="18">w</tspan><tspan x="48.69" y="18">hile the p</tspan><tspan class="cls-18" x="108.14" y="18">r</tspan><tspan x="114.13" y="18">op </tspan><tspan class="cls-18" x="133.73" y="18">r</tspan><tspan class="cls-35" x="139.72" y="18">e</tspan><tspan class="cls-39" x="146.89" y="18">v</tspan><tspan x="154.15" y="18">erses di</tspan><tspan class="cls-18" x="203.67" y="18">r</tspan><tspan x="209.66" y="18">ection. This </tspan><tspan class="cls-18" x="286.63" y="18">r</tspan><tspan class="cls-35" x="292.61" y="18">e</tspan><tspan class="cls-39" x="299.78" y="18">v</tspan><tspan x="307.05" y="18">ersal also </tspan></tspan><tspan class="cls-10"><tspan x="0" y="36">changes a p</tspan><tspan class="cls-18" x="74.03" y="36">r</tspan><tspan x="80.02" y="36">ospin in</tspan><tspan class="cls-26" x="131.15" y="36">t</tspan><tspan x="136.09" y="36">o an antispin and vica-</tspan><tspan class="cls-39" x="279.89" y="36">v</tspan><tspan x="287.15" y="36">ersa. </tspan></tspan><tspan class="cls-10"><tspan class="cls-28" x="0" y="72">	</tspan><tspan x="36" y="72">Since a p</tspan><tspan class="cls-18" x="92.18" y="72">r</tspan><tspan x="98.17" y="72">op </tspan><tspan class="cls-18" x="117.77" y="72">r</tspan><tspan class="cls-35" x="123.76" y="72">e</tspan><tspan class="cls-39" x="130.93" y="72">v</tspan><tspan x="138.19" y="72">ersal is less intuit</tspan><tspan class="cls-29" x="249.5" y="72">i</tspan><tspan class="cls-39" x="253.37" y="72">v</tspan><tspan x="260.63" y="72">e, </tspan><tspan class="cls-39" x="274.33" y="72">y</tspan><tspan x="281.6" y="72">ou can add an </tspan></tspan><tspan class="cls-10" x="0" y="90">“</tspan><tspan class="cls-21" x="5.63" y="90">R</tspan><tspan class="cls-10" x="15.56" y="90">/</tspan><tspan class="cls-24" x="22.91" y="90">R</tspan><tspan class="cls-10" x="32.83" y="90">” in the cor</tspan><tspan class="cls-3" x="102.36" y="90">r</tspan><tspan class="cls-10" x="108.35" y="90">esponding color in bet</tspan><tspan class="cls-7" x="250.92" y="90">w</tspan><tspan class="cls-10" x="262.35" y="90">een the pic</tspan><tspan class="cls-6" x="331.75" y="90">t</tspan><tspan class="cls-10" x="336.69" y="90">og</tspan><tspan class="cls-5" x="352.07" y="90">r</tspan><tspan class="cls-10" x="358.02" y="90">aphs </tspan><tspan class="cls-10"><tspan class="cls-26" x="0" y="108">t</tspan><tspan x="4.94" y="108">o indica</tspan><tspan class="cls-26" x="55.17" y="108">t</tspan><tspan x="60.12" y="108">e i</tspan><tspan class="cls-36" x="74.9" y="108">t</tspan><tspan x="80.2" y="108">. </tspan></tspan></text>
  <text class="cls-12" transform="translate(158.86 367.25)"><tspan x="0" y="0">Prop-reversal</tspan></text>
  <g>
    <g>
      <g>
        <path class="cls-16" d="m472,411.74c0,3.34-5.18,3.34-5.18,0,0-3.34,5.18-3.34,5.18,0h0Z"/>
        <path class="cls-16" d="m440.89,380.64c0,3.34-5.18,3.34-5.18,0,0-3.34,5.18-3.34,5.18,0h0Z"/>
        <path class="cls-16" d="m472,349.53c0,3.34-5.18,3.34-5.18,0,0-3.34,5.18-3.34,5.18,0h0Z"/>
        <path class="cls-16" d="m503.1,380.64c0,3.34-5.18,3.34-5.18,0,0-3.34,5.18-3.34,5.18,0h0Z"/>
        <path class="cls-16" d="m469.41,381.99c1.74,0,1.74-2.7,0-2.7s-1.74,2.7,0,2.7h0Z"/>
      </g>
      <g>
        <path class="cls-16" d="m562.04,411.74c0,3.34-5.18,3.34-5.18,0,0-3.34,5.18-3.34,5.18,0h0Z"/>
        <path class="cls-16" d="m530.93,380.64c0,3.34-5.18,3.34-5.18,0s5.18-3.34,5.18,0h0Z"/>
        <path class="cls-16" d="m562.04,349.53c0,3.34-5.18,3.34-5.18,0,0-3.34,5.18-3.34,5.18,0h0Z"/>
        <path class="cls-16" d="m593.14,380.64c0,3.34-5.18,3.34-5.18,0,0-3.34,5.18-3.34,5.18,0h0Z"/>
        <path class="cls-16" d="m559.45,381.99c1.74,0,1.74-2.7,0-2.7s-1.74,2.7,0,2.7h0Z"/>
      </g>
      <path class="cls-25" d="m474.91,352.04c12.33,0,23.52,9.93,23.55,22.17l2.5-2.74s1.15,1.04.56,1.92c-.67.99-4.07,4.23-4.07,4.23,0,0-3.44-2.76-4.37-3.94-.66-.84.45-1.96.45-1.96l2.88,2.71c-.03-9.26-7.58-19.48-21.5-20.22-1.63-.09-1.68-2.16,0-2.16Z"/>
      <path class="cls-25" d="m587.56,384.12c-20.11,0-22.05,1.35-22.05,20.89l-2.76-2.82s-1.14,1.08-.52,1.94c.89,1.22,4.23,4.1,4.23,4.1,0,0,3.5-3.12,4.22-4.1.63-.85-.49-1.94-.49-1.94l-2.66,2.82c0-17.91,1.03-18.74,20-18.74,1.56,0,1.56-2.15.03-2.15Z"/>
      <path class="cls-25" d="m472.26,379.34h24.23c.47,0,.85.37.85.82v.94c0,.45-.38.82-.85.82h-24.23c-.47,0-.85-.37-.85-.82v-.94c0-.45.38-.82.85-.82Z"/>
      <path class="cls-25" d="m560.74,383.49v24.23c0,.47-.37.85-.82.85h-.94c-.45,0-.82-.38-.82-.85v-24.23c0-.47.37-.85.82-.85h.94c.45,0,.82.38.82.85Z"/>
    </g>
    <text class="cls-13" transform="translate(482.15 434.81)"><tspan class="cls-32" x="0" y="0">P</tspan><tspan class="cls-33" x="8.33" y="0">r</tspan><tspan class="cls-32" x="14.29" y="0">o</tspan><tspan class="cls-17" x="21.89" y="0">→</tspan><tspan class="cls-33" x="34.46" y="0">A</tspan><tspan class="cls-32" x="43.14" y="0">nti</tspan></text>
    <g>
      <g>
        <g>
          <path class="cls-16" d="m472,521.74c0,3.34-5.18,3.34-5.18,0,0-3.34,5.18-3.34,5.18,0h0Z"/>
          <path class="cls-16" d="m440.89,490.64c0,3.34-5.18,3.34-5.18,0,0-3.34,5.18-3.34,5.18,0h0Z"/>
          <path class="cls-16" d="m472,459.53c0,3.34-5.18,3.34-5.18,0,0-3.34,5.18-3.34,5.18,0h0Z"/>
          <path class="cls-16" d="m503.1,490.64c0,3.34-5.18,3.34-5.18,0,0-3.34,5.18-3.34,5.18,0h0Z"/>
          <path class="cls-16" d="m469.41,491.99c1.74,0,1.74-2.7,0-2.7s-1.74,2.7,0,2.7h0Z"/>
        </g>
        <g>
          <path class="cls-16" d="m562.04,521.74c0,3.34-5.18,3.34-5.18,0,0-3.34,5.18-3.34,5.18,0h0Z"/>
          <path class="cls-16" d="m530.93,490.64c0,3.34-5.18,3.34-5.18,0s5.18-3.34,5.18,0h0Z"/>
          <path class="cls-16" d="m562.04,459.53c0,3.34-5.18,3.34-5.18,0,0-3.34,5.18-3.34,5.18,0h0Z"/>
          <path class="cls-16" d="m593.14,490.64c0,3.34-5.18,3.34-5.18,0,0-3.34,5.18-3.34,5.18,0h0Z"/>
          <path class="cls-16" d="m559.45,491.99c1.74,0,1.74-2.7,0-2.7s-1.74,2.7,0,2.7h0Z"/>
        </g>
        <path class="cls-27" d="m472.99,460.39c0,20.11,1.35,22.05,20.89,22.05l-2.82,2.76s1.08,1.14,1.94.52c1.22-.89,4.1-4.23,4.1-4.23,0,0-3.12-3.5-4.1-4.22-.85-.63-1.94.49-1.94.49l2.82,2.66c-17.91,0-18.74-1.03-18.74-20,0-1.56-2.15-1.56-2.15-.03Z"/>
        <path class="cls-27" d="m593.28,497.75c0,12.33-9.93,23.52-22.17,23.55l2.74,2.5s-1.04,1.15-1.92.56c-.99-.67-4.23-4.07-4.23-4.07,0,0,2.76-3.44,3.94-4.37.84-.66,1.96.45,1.96.45l-2.71,2.88c9.26-.03,19.48-7.58,20.22-21.5.09-1.63,2.16-1.68,2.16,0Z"/>
        <path class="cls-27" d="m472.26,489.34h24.23c.47,0,.85.37.85.82v.94c0,.45-.38.82-.85.82h-24.23c-.47,0-.85-.37-.85-.82v-.94c0-.45.38-.82.85-.82Z"/>
        <path class="cls-27" d="m560.74,493.6v24.23c0,.47-.37.85-.82.85h-.94c-.45,0-.82-.38-.82-.85v-24.23c0-.47.37-.85.82-.85h.94c.45,0,.82.38.82.85Z"/>
      </g>
      <text class="cls-13" transform="translate(484.37 544.51)"><tspan class="cls-33" x="0" y="0">A</tspan><tspan class="cls-32" x="8.68" y="0">nti</tspan><tspan class="cls-17" x="25.95" y="0">→</tspan><tspan class="cls-32" x="38.52" y="0">P</tspan><tspan class="cls-33" x="46.85" y="0">r</tspan><tspan class="cls-32" x="52.81" y="0">o</tspan></text>
    </g>
  </g>
  <line class="cls-2" x1="436.8" y1="443.14" x2="594.62" y2="443.14"/>
  <line class="cls-2" x1="24.81" y1="673.57" x2="187.23" y2="673.57"/>
  <text class="cls-23" transform="translate(510.91 383.78)"><tspan x="0" y="0">R</tspan></text>
  <text class="cls-22" transform="translate(510.73 493.78)"><tspan x="0" y="0">R</tspan></text>
</svg>