<?xml version="1.0" encoding="UTF-8"?>
<svg id="Layer_1" data-name="Layer 1" xmlns="http://www.w3.org/2000/svg" viewBox="0 0 612 792">
  <defs>
    <style>
      .cls-1, .cls-2, .cls-3, .cls-4, .cls-5, .cls-6, .cls-7, .cls-8 {
        font-family: Cambria-Italic, Cambria;
        font-style: italic;
      }

      .cls-1, .cls-9, .cls-10 {
        letter-spacing: -.01em;
      }

      .cls-11, .cls-12 {
        letter-spacing: -.02em;
      }

      .cls-13 {
        letter-spacing: -.02em;
      }

      .cls-13, .cls-12, .cls-14, .cls-9, .cls-15 {
        font-family: Cambria, Cambria;
      }

      .cls-2, .cls-16 {
        letter-spacing: -.02em;
      }

      .cls-17 {
        letter-spacing: -.01em;
      }

      .cls-18 {
        font-family: MonotypeCorsiva, 'Monotype Corsiva';
        font-size: 40px;
      }

      .cls-18, .cls-14, .cls-3, .cls-19, .cls-20, .cls-8, .cls-21 {
        fill: #231f20;
      }

      .cls-22 {
        fill: #2e3192;
      }

      .cls-14 {
        font-size: 20px;
      }

      .cls-23 {
        stroke-width: 2px;
      }

      .cls-23, .cls-24 {
        fill: none;
        stroke: #231f20;
        stroke-miterlimit: 10;
      }

      .cls-3, .cls-20 {
        font-size: 15px;
      }

      .cls-19 {
        font-family: Cambria-Bold, Cambria;
        font-size: 14px;
        font-weight: 700;
      }

      .cls-5, .cls-25 {
        letter-spacing: 0em;
      }

      .cls-6 {
        letter-spacing: 0em;
      }

      .cls-26, .cls-7 {
        letter-spacing: 0em;
      }

      .cls-27 {
        letter-spacing: -.01em;
      }

      .cls-28 {
        fill: #ed1c24;
      }

      .cls-8 {
        font-size: 12px;
      }

      .cls-24 {
        stroke-width: .5px;
      }

      .cls-29 {
        letter-spacing: -.02em;
      }
    </style>
  </defs>
  <text class="cls-18" transform="translate(152.58 44.08)"><tspan x="0" y="0">Type 1 Permutations</tspan></text>
  <path class="cls-22" d="m468.91,273.87h-5.76c-.48,0-.87.4-.87.89,0,.49.39.89.87.89h1.92v21.85c0,.48.38.87.85.87h.32c.46,0,.85-.39.85-.87v-21.85h1.82c.48,0,.87-.4.87-.89s-.39-.89-.87-.89Z"/>
  <path class="cls-28" d="m473.76,273.87h-5.76c-.48,0-.87.4-.87.89,0,.49.39.89.87.89h1.92v21.85c0,.48.38.87.85.87h.32c.46,0,.85-.39.85-.87v-21.85h1.82c.48,0,.87-.4.87-.89s-.39-.89-.87-.89Z"/>
  <path class="cls-22" d="m290.58,672.11v-5.76c0-.48.4-.87.89-.87s.89.39.89.87v1.92s21.85,0,21.85,0c.48,0,.87.38.87.85v.32c0,.46-.39.85-.87.85h-21.85s0,1.82,0,1.82c0,.48-.4.87-.89.87s-.89-.39-.89-.87Z"/>
  <path class="cls-28" d="m470.55,674.63v-5.76c0-.48.4-.87.89-.87s.89.39.89.87v1.92h21.85c.48,0,.87.38.87.85v.32c0,.46-.39.85-.87.85h-21.85v1.82c0,.48-.4.87-.89.87s-.89-.39-.89-.87Z"/>
  <path class="cls-22" d="m466.35,668.86v5.76c0,.48-.4.87-.89.87-.49,0-.89-.39-.89-.87v-1.92h-21.85c-.48,0-.87-.38-.87-.85v-.32c0-.46.39-.85.87-.85h21.85v-1.82c0-.48.4-.87.89-.87s.89.39.89.87Z"/>
  <path class="cls-22" d="m381.33,698.34h-5.76c-.48,0-.87-.4-.87-.89,0-.49.39-.89.87-.89h1.92v-21.85c0-.48.38-.87.85-.87h.32c.46,0,.85.39.85.87v21.85h1.82c.48,0,.87.4.87.89,0,.49-.39.89-.87.89Z"/>
  <path class="cls-28" d="m381.33,669.65h-5.76c-.48,0-.87-.4-.87-.89,0-.49.39-.89.87-.89h1.92v-21.85c0-.48.38-.87.85-.87h.32c.46,0,.85.39.85.87v21.85h1.82c.48,0,.87.4.87.89s-.39.89-.87.89Z"/>
  <path class="cls-28" d="m315.08,671.38v5.76c0,.48-.4.87-.89.87s-.89-.39-.89-.87v-1.92s-21.85,0-21.85,0c-.48,0-.87-.38-.87-.85v-.32c0-.46.39-.85.87-.85h21.85s0-1.82,0-1.82c0-.48.4-.87.89-.87s.89.39.89.87Z"/>
  <path class="cls-22" d="m198.82,645.12h-5.76c-.48,0-.87.4-.87.89,0,.49.39.89.87.89h1.92v21.85c0,.48.38.87.85.87h.32c.46,0,.85-.39.85-.87v-21.85h1.82c.48,0,.87-.4.87-.89s-.39-.89-.87-.89Z"/>
  <path class="cls-28" d="m473.48,643.78c11.89,0,22.68,9.57,22.72,21.38l2.41-2.65s1.11,1.01.54,1.85c-.65.95-3.93,4.08-3.93,4.08,0,0-3.32-2.66-4.21-3.8-.63-.81.43-1.89.43-1.89l2.78,2.61c-.03-8.93-7.32-18.79-20.74-19.5-1.57-.08-1.62-2.09,0-2.08Z"/>
  <path class="cls-28" d="m297.88,637.91c11.89,0,22.68,9.57,22.72,21.38l2.41-2.65s1.11,1.01.54,1.85c-.65.95-3.93,4.08-3.93,4.08,0,0-3.32-2.66-4.21-3.8-.63-.81.43-1.89.43-1.89l2.78,2.61c-.03-8.93-7.32-18.79-20.74-19.5-1.57-.08-1.62-2.09,0-2.08Z"/>
  <path class="cls-22" d="m167.43,667.33c19.4,0,21.27-1.3,21.27-20.15l2.66,2.72s1.1-1.04.5-1.87c-.85-1.18-4.08-3.95-4.08-3.95,0,0-3.38,3.01-4.07,3.95-.6.82.48,1.87.48,1.87l2.56-2.72c0,17.27-1,18.08-19.29,18.08-1.51,0-1.51,2.07-.03,2.07Z"/>
  <path class="cls-22" d="m463.82,699.2c0-19.4-1.3-21.27-20.15-21.27l2.72-2.66s-1.04-1.1-1.87-.5c-1.18.85-3.95,4.08-3.95,4.08,0,0,3.01,3.38,3.95,4.07.82.6,1.87-.48,1.87-.48l-2.72-2.56c17.27,0,18.08,1,18.08,19.29,0,1.51,2.07,1.51,2.07.03Z"/>
  <path class="cls-28" d="m407.01,667.67c-19.4,0-21.27-1.3-21.27-20.15l-2.66,2.72s-1.1-1.04-.5-1.87c.85-1.18,4.08-3.95,4.08-3.95,0,0,3.38,3.01,4.07,3.95.6.82-.48,1.87-.48,1.87l-2.56-2.72c0,17.27,1,18.08,19.29,18.08,1.51,0,1.51,2.07.03,2.07Z"/>
  <path class="cls-22" d="m407.01,675.82c-19.4,0-21.27,1.3-21.27,20.15l-2.66-2.72s-1.1,1.04-.5,1.87c.85,1.18,4.08,3.95,4.08,3.95,0,0,3.38-3.01,4.07-3.95.6-.82-.48-1.87-.48-1.87l-2.56,2.72c0-17.27,1-18.08,19.29-18.08,1.51,0,1.51-2.07.03-2.07Z"/>
  <path class="cls-22" d="m293.8,642.62c0,19.4,1.3,21.27,20.15,21.27l-2.72,2.66s1.04,1.1,1.87.5c1.18-.85,3.95-4.08,3.95-4.08,0,0-3.01-3.38-3.95-4.07-.82-.6-1.87.48-1.87.48l2.72,2.56c-17.27,0-18.08-1-18.08-19.29,0-1.51-2.07-1.51-2.07-.03Z"/>
  <path class="cls-28" d="m229.47,667.33c-19.4,0-21.27-1.3-21.27-20.15l-2.66,2.72s-1.1-1.04-.5-1.87c.85-1.18,4.08-3.95,4.08-3.95,0,0,3.38,3.01,4.07,3.95.6.82-.48,1.87-.48,1.87l-2.56-2.72c0,17.27,1,18.08,19.29,18.08,1.51,0,1.51,2.07.03,2.07Z"/>
  <g>
    <path class="cls-21" d="m470.95,701.82c0,3.23-5,3.23-5,0,0-3.23,5-3.23,5,0h0Z"/>
    <path class="cls-21" d="m440.95,671.74c0,3.23-5,3.23-5,0,0-3.23,5-3.23,5,0h0Z"/>
    <path class="cls-21" d="m470.95,641.67c0,3.23-5,3.23-5,0,0-3.23,5-3.23,5,0h0Z"/>
    <path class="cls-21" d="m500.95,671.74c0,3.23-5,3.23-5,0,0-3.23,5-3.23,5,0h0Z"/>
    <path class="cls-21" d="m468.45,672.87c1.45,0,1.45-2.25,0-2.25s-1.45,2.25,0,2.25h0Z"/>
  </g>
  <g>
    <path class="cls-21" d="m375.95,701.82c0,3.23,5,3.23,5,0s-5-3.23-5,0h0Z"/>
    <path class="cls-21" d="m405.95,671.74c0,3.23,5,3.23,5,0s-5-3.23-5,0h0Z"/>
    <path class="cls-21" d="m375.95,641.67c0,3.23,5,3.23,5,0s-5-3.23-5,0h0Z"/>
    <path class="cls-21" d="m345.95,671.74c0,3.23,5,3.23,5,0s-5-3.23-5,0h0Z"/>
    <path class="cls-21" d="m378.45,672.87c1.45,0,1.45-2.25,0-2.25s-1.45,2.25,0,2.25h0Z"/>
  </g>
  <g>
    <path class="cls-21" d="m290.95,701.82c0,3.23-5,3.23-5,0,0-3.23,5-3.23,5,0h0Z"/>
    <path class="cls-21" d="m260.95,671.74c0,3.23-5,3.23-5,0,0-3.23,5-3.23,5,0h0Z"/>
    <path class="cls-21" d="m290.95,641.67c0,3.23-5,3.23-5,0,0-3.23,5-3.23,5,0h0Z"/>
    <path class="cls-21" d="m320.95,671.74c0,3.23-5,3.23-5,0,0-3.23,5-3.23,5,0h0Z"/>
    <path class="cls-21" d="m288.45,672.87c1.45,0,1.45-2.25,0-2.25s-1.45,2.25,0,2.25h0Z"/>
  </g>
  <g>
    <path class="cls-21" d="m195.95,701.82c0,3.23,5,3.23,5,0s-5-3.23-5,0h0Z"/>
    <path class="cls-21" d="m225.95,671.74c0,3.23,5,3.23,5,0s-5-3.23-5,0h0Z"/>
    <path class="cls-21" d="m195.95,641.67c0,3.23,5,3.23,5,0s-5-3.23-5,0h0Z"/>
    <path class="cls-21" d="m165.95,671.74c0,3.23,5,3.23,5,0s-5-3.23-5,0h0Z"/>
    <path class="cls-21" d="m198.45,672.87c1.45,0,1.45-2.25,0-2.25s-1.45,2.25,0,2.25h0Z"/>
  </g>
  <path class="cls-28" d="m203.85,645.12h-5.76c-.48,0-.87.4-.87.89,0,.49.39.89.87.89h1.92v21.85c0,.48.38.87.85.87h.32c.46,0,.85-.39.85-.87v-21.85h1.82c.48,0,.87-.4.87-.89s-.39-.89-.87-.89Z"/>
  <path class="cls-22" d="m261.82,571.38v5.76c0,.48.4.87.89.87.49,0,.89-.39.89-.87v-1.92h21.85c.48,0,.87-.38.87-.85v-.32c0-.46-.39-.85-.87-.85h-21.85v-1.82c0-.48-.4-.87-.89-.87s-.89.39-.89.87Z"/>
  <path class="cls-22" d="m466.35,574.63v-5.76c0-.48-.4-.87-.89-.87-.49,0-.89.39-.89.87v1.92h-21.85c-.48,0-.87.38-.87.85v.32c0,.46.39.85.87.85h21.85v1.82c0,.48.4.87.89.87s.89-.39.89-.87Z"/>
  <path class="cls-28" d="m470.55,568.86v5.76c0,.48.4.87.89.87s.89-.39.89-.87v-1.92h21.85c.48,0,.87-.38.87-.85v-.32c0-.46-.39-.85-.87-.85h-21.85v-1.82c0-.48-.4-.87-.89-.87s-.89.39-.89.87Z"/>
  <path class="cls-22" d="m375.57,569.65h5.76c.48,0,.87-.4.87-.89,0-.49-.39-.89-.87-.89h-1.92v-21.85c0-.48-.38-.87-.85-.87h-.32c-.46,0-.85.39-.85.87v21.85h-1.82c-.48,0-.87.4-.87.89,0,.49.39.89.87.89Z"/>
  <path class="cls-28" d="m375.57,598.34h5.76c.48,0,.87-.4.87-.89,0-.49-.39-.89-.87-.89h-1.92v-21.85c0-.48-.38-.87-.85-.87h-.32c-.46,0-.85.39-.85.87v21.85h-1.82c-.48,0-.87.4-.87.89s.39.89.87.89Z"/>
  <path class="cls-28" d="m286.32,572.11v-5.76c0-.48-.4-.87-.89-.87s-.89.39-.89.87v1.92h-21.85c-.48,0-.87.38-.87.85v.32c0,.46.39.85.87.85h21.85v1.82c0,.48.4.87.89.87s.89-.39.89-.87Z"/>
  <path class="cls-22" d="m198.82,545.12h-5.76c-.48,0-.87.4-.87.89,0,.49.39.89.87.89h1.92v21.85c0,.48.38.87.85.87h.32c.46,0,.85-.39.85-.87v-21.85h1.82c.48,0,.87-.4.87-.89s-.39-.89-.87-.89Z"/>
  <path class="cls-28" d="m351.83,471.38v5.76c0,.48.4.87.89.87s.89-.39.89-.87v-1.92h21.85c.48,0,.87-.38.87-.85v-.32c0-.46-.39-.85-.87-.85h-21.85s0-1.82,0-1.82c0-.48-.4-.87-.89-.87s-.89.39-.89.87Z"/>
  <path class="cls-22" d="m376.33,472.11v-5.76c0-.48-.4-.87-.89-.87s-.89.39-.89.87v1.92h-21.85c-.48,0-.87.38-.87.85v.32c0,.46.39.85.87.85h21.85s0,1.82,0,1.82c0,.48.4.87.89.87s.89-.39.89-.87Z"/>
  <path class="cls-28" d="m465.57,469.32h5.76c.48,0,.87-.4.87-.89,0-.49-.39-.89-.87-.89h-1.92v-21.85c0-.48-.38-.87-.85-.87h-.32c-.46,0-.85.39-.85.87v21.85h-1.82c-.48,0-.87.4-.87.89s.39.89.87.89Z"/>
  <path class="cls-22" d="m471.33,474.17h-5.76c-.48,0-.87.4-.87.89,0,.49.39.89.87.89h1.92v21.85c0,.48.38.87.85.87h.32c.46,0,.85-.39.85-.87v-21.85h1.82c.48,0,.87-.4.87-.89s-.39-.89-.87-.89Z"/>
  <path class="cls-22" d="m285.57,469.32h5.76c.48,0,.87-.4.87-.89,0-.49-.39-.89-.87-.89h-1.92v-21.85c0-.48-.38-.87-.85-.87h-.32c-.46,0-.85.39-.85.87v21.85h-1.82c-.48,0-.87.4-.87.89s.39.89.87.89Z"/>
  <path class="cls-28" d="m291.33,474.17h-5.76c-.48,0-.87.4-.87.89s.39.89.87.89h1.92v21.85c0,.48.38.87.85.87h.32c.46,0,.85-.39.85-.87v-21.85h1.82c.48,0,.87-.4.87-.89,0-.49-.39-.89-.87-.89Z"/>
  <path class="cls-28" d="m318.14,476.47c-19.4,0-21.27,1.3-21.27,20.15l-2.66-2.72s-1.1,1.04-.5,1.87c.85,1.18,4.08,3.95,4.08,3.95,0,0,3.38-3.01,4.07-3.95.6-.82-.48-1.87-.48-1.87l-2.56,2.72c0-17.27,1-18.08,19.29-18.08,1.51,0,1.51-2.07.03-2.07Z"/>
  <path class="cls-28" d="m437.05,466.87c19.4,0,21.27-1.3,21.27-20.15l2.66,2.72s1.1-1.04.5-1.87c-.85-1.18-4.08-3.95-4.08-3.95,0,0-3.38,3.01-4.07,3.95-.6.82.48,1.87.48,1.87l2.56-2.72c0,17.27-1,18.08-19.29,18.08-1.51,0-1.51,2.07-.03,2.07Z"/>
  <path class="cls-22" d="m437.66,478.41c0,11.89,9.57,22.68,21.38,22.72l-2.65,2.41s1.01,1.11,1.85.54c.95-.65,4.08-3.93,4.08-3.93,0,0-2.66-3.32-3.8-4.21-.81-.63-1.89.43-1.89.43l2.61,2.78c-8.93-.03-18.79-7.32-19.5-20.74-.08-1.57-2.09-1.62-2.08,0Z"/>
  <path class="cls-28" d="m373.57,503.14c0-19.4-1.3-21.27-20.15-21.27l2.72-2.66s-1.04-1.1-1.87-.5c-1.18.85-3.95,4.08-3.95,4.08,0,0,3.01,3.38,3.95,4.07.82.6,1.87-.48,1.87-.48l-2.72-2.56c17.27,0,18.08,1,18.08,19.29,0,1.51,2.07,1.51,2.07.03Z"/>
  <path class="cls-22" d="m258.76,467.02c19.4,0,21.27-1.3,21.27-20.15l2.66,2.72s1.1-1.04.5-1.87c-.85-1.18-4.08-3.95-4.08-3.95,0,0-3.38,3.01-4.07,3.95-.6.82.48,1.87.48,1.87l2.56-2.72c0,17.27-1,18.08-19.29,18.08-1.51,0-1.51,2.07-.03,2.07Z"/>
  <path class="cls-22" d="m171.53,468.86v5.76c0,.48.4.87.89.87s.89-.39.89-.87v-1.92h21.85c.48,0,.87-.38.87-.85v-.32c0-.46-.39-.85-.87-.85h-21.85v-1.82c0-.48-.4-.87-.89-.87s-.89.39-.89.87Z"/>
  <path class="cls-28" d="m225.37,474.63v-5.76c0-.48-.4-.87-.89-.87s-.89.39-.89.87v1.92h-21.85c-.48,0-.87.38-.87.85v.32c0,.46.39.85.87.85h21.85v1.82c0,.48.4.87.89.87s.89-.39.89-.87Z"/>
  <path class="cls-22" d="m463.42,543.78c-11.89,0-22.68,9.57-22.72,21.38l-2.41-2.65s-1.11,1.01-.54,1.85c.65.95,3.93,4.08,3.93,4.08,0,0,3.32-2.66,4.21-3.8.63-.81-.43-1.89-.43-1.89l-2.78,2.61c.03-8.93,7.32-18.79,20.74-19.5,1.57-.08,1.62-2.09,0-2.08Z"/>
  <path class="cls-22" d="m279.02,537.91c-11.89,0-22.68,9.57-22.72,21.38l-2.41-2.65s-1.11,1.01-.54,1.85c.65.95,3.93,4.08,3.93,4.08,0,0,3.32-2.66,4.21-3.8.63-.81-.43-1.89-.43-1.89l-2.78,2.61c.03-8.93,7.32-18.79,20.74-19.5,1.57-.08,1.62-2.09,0-2.08Z"/>
  <path class="cls-22" d="m371.78,440.95c-11.89,0-22.68,9.57-22.72,21.38l-2.41-2.65s-1.11,1.01-.54,1.85c.65.95,3.93,4.08,3.93,4.08,0,0,3.32-2.66,4.21-3.8.63-.81-.43-1.89-.43-1.89l-2.78,2.61c.03-8.93,7.32-18.79,20.74-19.5,1.57-.08,1.62-2.09,0-2.08Z"/>
  <path class="cls-22" d="m167.43,567.33c19.4,0,21.27-1.3,21.27-20.15l2.66,2.72s1.1-1.04.5-1.87c-.85-1.18-4.08-3.95-4.08-3.95,0,0-3.38,3.01-4.07,3.95-.6.82.48,1.87.48,1.87l2.56-2.72c0,17.27-1,18.08-19.29,18.08-1.51,0-1.51,2.07-.03,2.07Z"/>
  <path class="cls-28" d="m473.08,599.2c0-19.4,1.3-21.27,20.15-21.27l-2.72-2.66s1.04-1.1,1.87-.5c1.18.85,3.95,4.08,3.95,4.08,0,0-3.01,3.38-3.95,4.07-.82.6-1.87-.48-1.87-.48l2.72-2.56c-17.27,0-18.08,1-18.08,19.29,0,1.51-2.07,1.51-2.07.03Z"/>
  <path class="cls-28" d="m349.89,575.82c19.4,0,21.27,1.3,21.27,20.15l2.66-2.72s1.1,1.04.5,1.87c-.85,1.18-4.08,3.95-4.08,3.95,0,0-3.38-3.01-4.07-3.95-.6-.82.48-1.87.48-1.87l2.56,2.72c0-17.27-1-18.08-19.29-18.08-1.51,0-1.51-2.07-.03-2.07Z"/>
  <path class="cls-22" d="m349.89,567.67c19.4,0,21.27-1.3,21.27-20.15l2.66,2.72s1.1-1.04.5-1.87c-.85-1.18-4.08-3.95-4.08-3.95,0,0-3.38,3.01-4.07,3.95-.6.82.48,1.87.48,1.87l2.56-2.72c0,17.27-1,18.08-19.29,18.08-1.51,0-1.51,2.07-.03,2.07Z"/>
  <path class="cls-28" d="m283.1,542.62c0,19.4-1.3,21.27-20.15,21.27l2.72,2.66s-1.04,1.1-1.87.5c-1.18-.85-3.95-4.08-3.95-4.08,0,0,3.01-3.38,3.95-4.07.82-.6,1.87.48,1.87.48l-2.72,2.56c17.27,0,18.08-1,18.08-19.29,0-1.51,2.07-1.51,2.07-.03Z"/>
  <path class="cls-28" d="m229.47,567.33c-19.4,0-21.27-1.3-21.27-20.15l-2.66,2.72s-1.1-1.04-.5-1.87c.85-1.18,4.08-3.95,4.08-3.95,0,0,3.38,3.01,4.07,3.95.6.82-.48,1.87-.48,1.87l-2.56-2.72c0,17.27,1,18.08,19.29,18.08,1.51,0,1.51,2.07.03,2.07Z"/>
  <path class="cls-28" d="m203.17,442.06c0,19.4,1.3,21.27,20.15,21.27l-2.72,2.66s1.04,1.1,1.87.5c1.18-.85,3.95-4.08,3.95-4.08,0,0-3.01-3.38-3.95-4.07-.82-.6-1.87.48-1.87.48l2.72,2.56c-17.27,0-18.08-1-18.08-19.29,0-1.51-2.07-1.51-2.07-.03Z"/>
  <path class="cls-22" d="m193.73,501.43c0-19.4-1.3-21.27-20.15-21.27l2.72-2.66s-1.04-1.1-1.87-.5c-1.18.85-3.95,4.08-3.95,4.08,0,0,3.01,3.38,3.95,4.07.82.6,1.87-.48,1.87-.48l-2.72-2.56c17.27,0,18.08,1,18.08,19.29,0,1.51,2.07,1.51,2.07.03Z"/>
  <g>
    <path class="cls-21" d="m438.37,469.24c-3.23,0-3.23,5,0,5s3.23-5,0-5h0Z"/>
    <path class="cls-21" d="m468.45,499.24c-3.23,0-3.23,5,0,5s3.23-5,0-5h0Z"/>
    <path class="cls-21" d="m498.53,469.24c-3.23,0-3.23,5,0,5s3.23-5,0-5h0Z"/>
    <path class="cls-21" d="m468.45,439.24c-3.23,0-3.23,5,0,5,3.23,0,3.23-5,0-5h0Z"/>
    <path class="cls-21" d="m468.45,472.87c1.45,0,1.45-2.25,0-2.25s-1.45,2.25,0,2.25h0Z"/>
  </g>
  <g>
    <path class="cls-21" d="m408.53,474.24c3.23,0,3.23-5,0-5s-3.23,5,0,5h0Z"/>
    <path class="cls-21" d="m378.45,444.24c3.23,0,3.23-5,0-5s-3.23,5,0,5h0Z"/>
    <path class="cls-21" d="m348.37,474.24c3.23,0,3.23-5,0-5s-3.23,5,0,5h0Z"/>
    <path class="cls-21" d="m378.45,504.24c3.23,0,3.23-5,0-5s-3.23,5,0,5h0Z"/>
    <path class="cls-21" d="m378.45,472.87c1.45,0,1.45-2.25,0-2.25s-1.45,2.25,0,2.25h0Z"/>
  </g>
  <g>
    <path class="cls-21" d="m318.53,474.24c3.23,0,3.23-5,0-5s-3.23,5,0,5h0Z"/>
    <path class="cls-21" d="m288.45,444.24c3.23,0,3.23-5,0-5s-3.23,5,0,5h0Z"/>
    <path class="cls-21" d="m258.37,474.24c3.23,0,3.23-5,0-5s-3.23,5,0,5h0Z"/>
    <path class="cls-21" d="m288.45,504.24c3.23,0,3.23-5,0-5s-3.23,5,0,5h0Z"/>
    <path class="cls-21" d="m288.45,472.87c1.45,0,1.45-2.25,0-2.25s-1.45,2.25,0,2.25h0Z"/>
  </g>
  <g>
    <path class="cls-21" d="m228.53,474.24c3.23,0,3.23-5,0-5s-3.23,5,0,5h0Z"/>
    <path class="cls-21" d="m198.45,444.24c3.23,0,3.23-5,0-5s-3.23,5,0,5h0Z"/>
    <path class="cls-21" d="m168.37,474.24c3.23,0,3.23-5,0-5s-3.23,5,0,5h0Z"/>
    <path class="cls-21" d="m198.45,504.24c3.23,0,3.23-5,0-5s-3.23,5,0,5h0Z"/>
    <path class="cls-21" d="m198.45,472.87c1.45,0,1.45-2.25,0-2.25s-1.45,2.25,0,2.25h0Z"/>
  </g>
  <path class="cls-22" d="m405.07,372.11v-5.76c0-.48-.4-.87-.89-.87s-.89.39-.89.87v1.92s-21.85,0-21.85,0c-.48,0-.87.38-.87.85v.32c0,.46.39.85.87.85h21.85s0,1.82,0,1.82c0,.48.4.87.89.87s.89-.39.89-.87Z"/>
  <path class="cls-28" d="m380.57,371.38v5.76c0,.48.4.87.89.87s.89-.39.89-.87v-1.92s21.85,0,21.85,0c.48,0,.87-.38.87-.85v-.32c0-.46-.39-.85-.87-.85h-21.85s0-1.82,0-1.82c0-.48-.4-.87-.89-.87s-.89.39-.89.87Z"/>
  <path class="cls-22" d="m380.57,272.2v-5.76c0-.48.4-.87.89-.87s.89.39.89.87v1.92h21.85c.48,0,.87.38.87.85v.32c0,.46-.39.85-.87.85h-21.85s0,1.82,0,1.82c0,.48-.4.87-.89.87s-.89-.39-.89-.87Z"/>
  <path class="cls-28" d="m405.07,271.29v5.76c0,.48-.4.87-.89.87s-.89-.39-.89-.87v-1.92h-21.85c-.48,0-.87-.38-.87-.85v-.32c0-.46.39-.85.87-.85h21.85s0-1.82,0-1.82c0-.48.4-.87.89-.87s.89.39.89.87Z"/>
  <path class="cls-22" d="m288.91,269.62h-5.76c-.48,0-.87-.4-.87-.89,0-.49.39-.89.87-.89h1.92v-21.85c0-.48.38-.87.85-.87h.32c.46,0,.85.39.85.87v21.85h1.82c.48,0,.87.4.87.89s-.39.89-.87.89Z"/>
  <path class="cls-28" d="m293.76,269.62h-5.76c-.48,0-.87-.4-.87-.89,0-.49.39-.89.87-.89h1.92v-21.85c0-.48.38-.87.85-.87h.32c.46,0,.85.39.85.87v21.85h1.82c.48,0,.87.4.87.89s-.39.89-.87.89Z"/>
  <path class="cls-22" d="m196.03,274.63v-5.76c0-.48-.4-.87-.89-.87s-.89.39-.89.87v1.92h-21.85c-.48,0-.87.38-.87.85v.32c0,.46.39.85.87.85h21.85v1.82c0,.48.4.87.89.87s.89-.39.89-.87Z"/>
  <path class="cls-22" d="m471.33,374.17h-5.76c-.48,0-.87.4-.87.89,0,.49.39.89.87.89h1.92v21.85c0,.48.38.87.85.87h.32c.46,0,.85-.39.85-.87v-21.85h1.82c.48,0,.87-.4.87-.89s-.39-.89-.87-.89Z"/>
  <path class="cls-28" d="m465.57,369.32h5.76c.48,0,.87-.4.87-.89,0-.49-.39-.89-.87-.89h-1.92v-21.85c0-.48-.38-.87-.85-.87h-.32c-.46,0-.85.39-.85.87v21.85h-1.82c-.48,0-.87.4-.87.89s.39.89.87.89Z"/>
  <path class="cls-22" d="m285.57,369.32h5.76c.48,0,.87-.4.87-.89,0-.49-.39-.89-.87-.89h-1.92v-21.85c0-.48-.38-.87-.85-.87h-.32c-.46,0-.85.39-.85.87v21.85h-1.82c-.48,0-.87.4-.87.89s.39.89.87.89Z"/>
  <path class="cls-28" d="m291.33,374.17h-5.76c-.48,0-.87.4-.87.89s.39.89.87.89h1.92v21.85c0,.48.38.87.85.87h.32c.46,0,.85-.39.85-.87v-21.85h1.82c.48,0,.87-.4.87-.89,0-.49-.39-.89-.87-.89Z"/>
  <path class="cls-28" d="m318.14,376.47c-19.4,0-21.27,1.3-21.27,20.15l-2.66-2.72s-1.1,1.04-.5,1.87c.85,1.18,4.08,3.95,4.08,3.95,0,0,3.38-3.01,4.07-3.95.6-.82-.48-1.87-.48-1.87l-2.56,2.72c0-17.27,1-18.08,19.29-18.08,1.51,0,1.51-2.07.03-2.07Z"/>
  <path class="cls-22" d="m499.85,376.62c-19.4,0-21.27,1.3-21.27,20.15l-2.66-2.72s-1.1,1.04-.5,1.87c.85,1.18,4.08,3.95,4.08,3.95,0,0,3.38-3.01,4.07-3.95.6-.82-.48-1.87-.48-1.87l-2.56,2.72c0-17.27,1-18.08,19.29-18.08,1.51,0,1.51-2.07.03-2.07Z"/>
  <path class="cls-28" d="m499.24,365.08c0-11.89-9.57-22.68-21.38-22.72l2.65-2.41s-1.01-1.11-1.85-.54c-.95.65-4.08,3.93-4.08,3.93,0,0,2.66,3.32,3.8,4.21.81.63,1.89-.43,1.89-.43l-2.61-2.78c8.93.03,18.79,7.32,19.5,20.74.08,1.57,2.09,1.62,2.08,0Z"/>
  <path class="cls-22" d="m383.33,340.35c0,19.4,1.3,21.27,20.15,21.27l-2.72,2.66s1.04,1.1,1.87.5c1.18-.85,3.95-4.08,3.95-4.08,0,0-3.01-3.38-3.95-4.07-.82-.6-1.87.48-1.87.48l2.72,2.56c-17.27,0-18.08-1-18.08-19.29,0-1.51-2.07-1.51-2.07-.03Z"/>
  <path class="cls-22" d="m258.76,367.02c19.4,0,21.27-1.3,21.27-20.15l2.66,2.72s1.1-1.04.5-1.87c-.85-1.18-4.08-3.95-4.08-3.95,0,0-3.38,3.01-4.07,3.95-.6.82.48,1.87.48,1.87l2.56-2.72c0,17.27-1,18.08-19.29,18.08-1.51,0-1.51,2.07-.03,2.07Z"/>
  <path class="cls-22" d="m171.53,368.86v5.76c0,.48.4.87.89.87s.89-.39.89-.87v-1.92h21.85c.48,0,.87-.38.87-.85v-.32c0-.46-.39-.85-.87-.85h-21.85v-1.82c0-.48-.4-.87-.89-.87s-.89.39-.89.87Z"/>
  <path class="cls-28" d="m225.37,374.63v-5.76c0-.48-.4-.87-.89-.87s-.89.39-.89.87v1.92h-21.85c-.48,0-.87.38-.87.85v.32c0,.46.39.85.87.85h21.85v1.82c0,.48.4.87.89.87s.89-.39.89-.87Z"/>
  <path class="cls-28" d="m200.87,268.86v5.76c0,.48.4.87.89.87s.89-.39.89-.87v-1.92h21.85c.48,0,.87-.38.87-.85v-.32c0-.46-.39-.85-.87-.85h-21.85v-1.82c0-.48-.4-.87-.89-.87s-.89.39-.89.87Z"/>
  <path class="cls-22" d="m468.91,173.87h-5.76c-.48,0-.87.4-.87.89,0,.49.39.89.87.89h1.92v21.85c0,.48.38.87.85.87h.32c.46,0,.85-.39.85-.87v-21.85h1.82c.48,0,.87-.4.87-.89s-.39-.89-.87-.89Z"/>
  <path class="cls-28" d="m473.76,173.87h-5.76c-.48,0-.87.4-.87.89,0,.49.39.89.87.89h1.92v21.85c0,.48.38.87.85.87h.32c.46,0,.85-.39.85-.87v-21.85h1.82c.48,0,.87-.4.87-.89s-.39-.89-.87-.89Z"/>
  <path class="cls-22" d="m351.83,177.05v-5.76c0-.48.4-.87.89-.87s.89.39.89.87v1.92h21.85c.48,0,.87.38.87.85v.32c0,.46-.39.85-.87.85h-21.85v1.82c0,.48-.4.87-.89.87s-.89-.39-.89-.87Z"/>
  <path class="cls-28" d="m376.33,166.44v5.76c0,.48-.4.87-.89.87s-.89-.39-.89-.87v-1.92h-21.85c-.48,0-.87-.38-.87-.85v-.32c0-.46.39-.85.87-.85h21.85v-1.82c0-.48.4-.87.89-.87s.89.39.89.87Z"/>
  <path class="cls-22" d="m288.91,169.62h-5.76c-.48,0-.87-.4-.87-.89,0-.49.39-.89.87-.89h1.92v-21.85c0-.48.38-.87.85-.87h.32c.46,0,.85.39.85.87v21.85h1.82c.48,0,.87.4.87.89s-.39.89-.87.89Z"/>
  <path class="cls-28" d="m293.76,169.62h-5.76c-.48,0-.87-.4-.87-.89,0-.49.39-.89.87-.89h1.92v-21.85c0-.48.38-.87.85-.87h.32c.46,0,.85.39.85.87v21.85h1.82c.48,0,.87.4.87.89s-.39.89-.87.89Z"/>
  <path class="cls-22" d="m196.03,174.63v-5.76c0-.48-.4-.87-.89-.87s-.89.39-.89.87v1.92h-21.85c-.48,0-.87.38-.87.85v.32c0,.46.39.85.87.85h21.85v1.82c0,.48.4.87.89.87s.89-.39.89-.87Z"/>
  <path class="cls-28" d="m200.87,168.86v5.76c0,.48.4.87.89.87s.89-.39.89-.87v-1.92h21.85c.48,0,.87-.38.87-.85v-.32c0-.46-.39-.85-.87-.85h-21.85v-1.82c0-.48-.4-.87-.89-.87s-.89.39-.89.87Z"/>
  <path class="cls-22" d="m500.99,280.47c0,11.89-9.57,22.68-21.38,22.72l2.65,2.41s-1.01,1.11-1.85.54c-.95-.65-4.08-3.93-4.08-3.93,0,0,2.66-3.32,3.8-4.21.81-.63,1.89.43,1.89.43l-2.61,2.78c8.93-.03,18.79-7.32,19.5-20.74.08-1.57,2.09-1.62,2.08,0Z"/>
  <path class="cls-28" d="m385.12,402.54c11.89,0,22.68-9.57,22.72-21.38l2.41,2.65s1.11-1.01.54-1.85c-.65-.95-3.93-4.08-3.93-4.08,0,0-3.32,2.66-4.21,3.8-.63.81.43,1.89.43,1.89l2.78-2.61c-.03,8.93-7.32,18.79-20.74,19.5-1.57.08-1.62,2.09,0,2.08Z"/>
  <path class="cls-22" d="m387.34,237.52c11.89,0,22.68,9.57,22.72,21.38l2.41-2.65s1.11,1.01.54,1.85c-.65.95-3.93,4.08-3.93,4.08,0,0-3.32-2.66-4.21-3.8-.63-.81.43-1.89.43-1.89l2.78,2.61c-.03-8.93-7.32-18.79-20.74-19.5-1.57-.08-1.62-2.09,0-2.08Z"/>
  <path class="cls-22" d="m259.48,266.78c0-11.89,9.57-22.68,21.38-22.72l-2.65-2.41s1.01-1.11,1.85-.54c.95.65,4.08,3.93,4.08,3.93,0,0-2.66,3.32-3.8,4.21-.81.63-1.89-.43-1.89-.43l2.61-2.78c-8.93.03-18.79,7.32-19.5,20.74-.08,1.57-2.09,1.62-2.08,0Z"/>
  <path class="cls-28" d="m317.42,266.78c0-11.89-9.57-22.68-21.38-22.72l2.65-2.41s-1.01-1.11-1.85-.54c-.95.65-4.08,3.93-4.08,3.93,0,0,2.66,3.32,3.8,4.21.81.63,1.89-.43,1.89-.43l-2.61-2.78c8.93.03,18.79,7.32,19.5,20.74.08,1.57,2.09,1.62,2.08,0Z"/>
  <path class="cls-22" d="m192.53,300.18c-11.89,0-22.68-9.57-22.72-21.38l-2.41,2.65s-1.11-1.01-.54-1.85c.65-.95,3.93-4.08,3.93-4.08,0,0,3.32,2.66,4.21,3.8.63.81-.43,1.89-.43,1.89l-2.78-2.61c.03,8.93,7.32,18.79,20.74,19.5,1.57.08,1.62,2.09,0,2.08Z"/>
  <path class="cls-28" d="m204.37,300.18c11.89,0,22.68-9.57,22.72-21.38l2.41,2.65s1.11-1.01.54-1.85c-.65-.95-3.93-4.08-3.93-4.08,0,0-3.32,2.66-4.21,3.8-.63.81.43,1.89.43,1.89l2.78-2.61c-.03,8.93-7.32,18.79-20.74,19.5-1.57.08-1.62,2.09,0,2.08Z"/>
  <path class="cls-28" d="m496.69,276.47c-19.4,0-21.27,1.3-21.27,20.15l-2.66-2.72s-1.1,1.04-.5,1.87c.85,1.18,4.08,3.95,4.08,3.95,0,0,3.38-3.01,4.07-3.95.6-.82-.48-1.87-.48-1.87l-2.56,2.72c0-17.27,1-18.08,19.29-18.08,1.51,0,1.51-2.07.03-2.07Z"/>
  <path class="cls-28" d="m203.17,342.06c0,19.4,1.3,21.27,20.15,21.27l-2.72,2.66s1.04,1.1,1.87.5c1.18-.85,3.95-4.08,3.95-4.08,0,0-3.01-3.38-3.95-4.07-.82-.6-1.87.48-1.87.48l2.72,2.56c-17.27,0-18.08-1-18.08-19.29,0-1.51-2.07-1.51-2.07-.03Z"/>
  <path class="cls-22" d="m193.73,401.43c0-19.4-1.3-21.27-20.15-21.27l2.72-2.66s-1.04-1.1-1.87-.5c-1.18.85-3.95,4.08-3.95,4.08,0,0,3.01,3.38,3.95,4.07.82.6,1.87-.48,1.87-.48l-2.72-2.56c17.27,0,18.08,1,18.08,19.29,0,1.51,2.07,1.51,2.07.03Z"/>
  <path class="cls-28" d="m383.33,241.82c0,19.4,1.3,21.27,20.15,21.27l-2.72,2.66s1.04,1.1,1.87.5c1.18-.85,3.95-4.08,3.95-4.08,0,0-3.01-3.38-3.95-4.07-.82-.6-1.87.48-1.87.48l2.72,2.56c-17.27,0-18.08-1-18.08-19.29,0-1.51-2.07-1.51-2.07-.03Z"/>
  <path class="cls-28" d="m435.91,180.47c0,11.89,9.57,22.68,21.38,22.72l-2.65,2.41s1.01,1.11,1.85.54c.95-.65,4.08-3.93,4.08-3.93,0,0-2.66-3.32-3.8-4.21-.81-.63-1.89.43-1.89.43l2.61,2.78c-8.93-.03-18.79-7.32-19.5-20.74-.08-1.57-2.09-1.62-2.08,0Z"/>
  <path class="cls-28" d="m369.56,137.52c-11.89,0-22.68,9.57-22.72,21.38l-2.41-2.65s-1.11,1.01-.54,1.85c.65.95,3.93,4.08,3.93,4.08,0,0,3.32-2.66,4.21-3.8.63-.81-.43-1.89-.43-1.89l-2.78,2.61c.03-8.93,7.32-18.79,20.74-19.5,1.57-.08,1.62-2.09,0-2.08Z"/>
  <path class="cls-22" d="m259.48,166.78c0-11.89,9.57-22.68,21.38-22.72l-2.65-2.41s1.01-1.11,1.85-.54c.95.65,4.08,3.93,4.08,3.93,0,0-2.66,3.32-3.8,4.21-.81.63-1.89-.43-1.89-.43l2.61-2.78c-8.93.03-18.79,7.32-19.5,20.74-.08,1.57-2.09,1.62-2.08,0Z"/>
  <path class="cls-28" d="m317.42,166.78c0-11.89-9.57-22.68-21.38-22.72l2.65-2.41s-1.01-1.11-1.85-.54c-.95.65-4.08,3.93-4.08,3.93,0,0,2.66,3.32,3.8,4.21.81.63,1.89-.43,1.89-.43l-2.61-2.78c8.93.03,18.79,7.32,19.5,20.74.08,1.57,2.09,1.62,2.08,0Z"/>
  <path class="cls-22" d="m192.53,200.18c-11.89,0-22.68-9.57-22.72-21.38l-2.41,2.65s-1.11-1.01-.54-1.85c.65-.95,3.93-4.08,3.93-4.08,0,0,3.32,2.66,4.21,3.8.63.81-.43,1.89-.43,1.89l-2.78-2.61c.03,8.93,7.32,18.79,20.74,19.5,1.57.08,1.62,2.09,0,2.08Z"/>
  <path class="cls-28" d="m204.37,200.18c11.89,0,22.68-9.57,22.72-21.38l2.41,2.65s1.11-1.01.54-1.85c-.65-.95-3.93-4.08-3.93-4.08,0,0-3.32,2.66-4.21,3.8-.63.81.43,1.89.43,1.89l2.78-2.61c-.03,8.93-7.32,18.79-20.74,19.5-1.57.08-1.62,2.09,0,2.08Z"/>
  <path class="cls-22" d="m440.22,176.47c19.4,0,21.27,1.3,21.27,20.15l2.66-2.72s1.1,1.04.5,1.87c-.85,1.18-4.08,3.95-4.08,3.95,0,0-3.38-3.01-4.07-3.95-.6-.82.48-1.87.48-1.87l2.56,2.72c0-17.27-1-18.08-19.29-18.08-1.51,0-1.51-2.07-.03-2.07Z"/>
  <path class="cls-22" d="m373.57,141.82c0,19.4-1.3,21.27-20.15,21.27l2.72,2.66s-1.04,1.1-1.87.5c-1.18-.85-3.95-4.08-3.95-4.08,0,0,3.01-3.38,3.95-4.07.82-.6,1.87.48,1.87.48l-2.72,2.56c17.27,0,18.08-1,18.08-19.29,0-1.51,2.07-1.51,2.07-.03Z"/>
  <g>
    <path class="cls-21" d="m288.91,516.34c4.39-1.93.8-6.48-3.28-4.27-.04.02-.07.06-.07.1-.38,2.63-.16,6.19.2,8.71.02.13.12.23.24.27,6.22,1.71,7.68-3.78,2.91-4.81Zm.65-2.47c0,1.13-1.98,1.51-2.74,1.51-.13-.26-.02-2.43.07-2.53.9-.25,2.67.04,2.67,1.02Zm-2.38,6.17c-.17-1.1-.2-1.41-.14-2.54.47-.06,3.32-.1,3.29,1.38-.03,1.15-2.44,1.38-3.15,1.16Z"/>
    <path class="cls-21" d="m198.81,516.43c4.39-1.93.8-6.48-3.28-4.27-.04.02-.07.06-.07.1-.38,2.63-.16,6.19.2,8.71.02.13.12.23.24.27,6.22,1.71,7.68-3.78,2.91-4.81Zm.65-2.47c0,1.13-1.98,1.51-2.74,1.51-.13-.26-.02-2.43.07-2.53.9-.25,2.67.04,2.67,1.02Zm-2.38,6.17c-.17-1.1-.2-1.41-.14-2.54.47-.06,3.32-.1,3.29,1.38-.03,1.15-2.44,1.38-3.15,1.16Z"/>
    <path class="cls-21" d="m465.64,520.93c-.21-2.13-.27-7.16-.03-8.83,0,0,1.78-.75,5.18-.44.42.04.62.25.63.53.03.54,0,1.08-.55,1.11-1.32.07-3.68.15-3.68.15,0,0-.03.76-.02.98,0,.34.02.97.02.97,0,0,2.08.01,3.36.07.47.02.88-.05.91.74.02.57-.38.7-.91.74-1.22.09-3.25.04-3.25.04.07,1.57.19,3.19.19,3.78,0,.69-.57.8-.97.8-.59,0-.85-.44-.87-.65Z"/>
    <path class="cls-21" d="m376.58,512.2c-.19,8.85-.94,7.8,4.1,7.75.71,0,1.24.12,1.24.84,0,.33-.44.77-1.2.77-4.71,0-4.71.13-5.33-.4-.49-.41-.42-1.9-.42-2.78,0-1.17.02-5.56.1-6.18s.33-.62.75-.62c.38,0,.77.09.76.62Z"/>
    <path class="cls-21" d="m288.91,416.34c4.39-1.93.8-6.48-3.28-4.27-.04.02-.07.06-.07.1-.38,2.63-.16,6.19.2,8.71.02.13.12.23.24.27,6.22,1.71,7.68-3.78,2.91-4.81Zm.65-2.47c0,1.13-1.98,1.51-2.74,1.51-.13-.26-.02-2.43.07-2.53.9-.25,2.67.04,2.67,1.02Zm-2.38,6.17c-.17-1.1-.2-1.41-.14-2.54.47-.06,3.32-.1,3.29,1.38-.03,1.15-2.44,1.38-3.15,1.16Z"/>
    <path class="cls-21" d="m198.81,416.43c4.39-1.93.8-6.48-3.28-4.27-.04.02-.07.06-.07.1-.38,2.63-.16,6.19.2,8.71.02.13.12.23.24.27,6.22,1.71,7.68-3.78,2.91-4.81Zm.65-2.47c0,1.13-1.98,1.51-2.74,1.51-.13-.26-.02-2.43.07-2.53.9-.25,2.67.04,2.67,1.02Zm-2.38,6.17c-.17-1.1-.2-1.41-.14-2.54.47-.06,3.32-.1,3.29,1.38-.03,1.15-2.44,1.38-3.15,1.16Z"/>
    <path class="cls-21" d="m472.22,719.3c.42.55-.07,1.12-.5,1.33-9.15,4.54-8.83-9.42-3.27-9.09,1.07.06,2.05.85,2.39,1.26.25.29.44.81.12,1.16-.34.36-.8.24-1.02,0-4.33-4.56-6.65,9.06,1.11,5.25.45-.22.79-.4,1.16.09Z"/>
    <path class="cls-21" d="m377.5,714.54c0,.36.02,1.02.02,1.02,0,0,2.18.01,3.53.07.5.02.9-.07.95.78.04.6-.32.73-.87.77-1.28.09-3.49.05-3.49.05,0,0,.03,1.16.07,1.65.03.39.1.88.1.88,0,0,3.53.01,3.93,0,.33,0,.84,0,.81.84-.03.89-.42.83-.98.87-1.49.1-4.12,0-4.84-.38-1.02-.55-.79-5.46-.37-8.84.08-.67,3.98-.71,4.96-.62.44.04.67.53.67.82,0,.31,0,.87-.59.9-1.38.08-3.86.16-3.86.16,0,0-.03.8-.02,1.03Z"/>
    <path class="cls-21" d="m196.46,717.66c0,1.63,0,2.16,0,3.1,0,.66-.29.79-.8.79s-.93-.29-.93-.87c0-1.15-.04-6.16-.04-8.56,0-.52.34-.57.65-.57.41,0,.86.14.86.57,0,1.02.08,3.16.08,3.16,0,0,1.87-1.75,2.5-2.42.41-.44,1-.5,1.3-.14s.47.6-.1,1.15c-.85.84-1.04,1.21-2.46,2.53.83.86,2.18,1.99,3.61,3.62.45.51.34,1.14.17,1.3s-.8.24-1.19-.17-1.92-2.09-3.65-3.5Z"/>
    <path class="cls-21" d="m292.12,720.81c0,.65-.36.74-1.5.74h-4.33c-1.13,0-1.5-.09-1.5-.74s.49-.73,1.75-.73,1.17.32,1.17-3.55.1-3.5-2-3.5c-.49,0-.92-.16-.92-.72s.2-.75.99-.75h5.35c.79,0,.99.2.99.75s-.43.72-.92.72c-2.1,0-2-.37-2,3.5s-.14,3.55,1.17,3.55,1.75.08,1.75.73Z"/>
    <path class="cls-21" d="m472.22,619.3c.42.55-.07,1.12-.5,1.33-9.15,4.54-8.83-9.42-3.27-9.09,1.07.06,2.05.85,2.39,1.26.25.29.44.81.12,1.16-.34.36-.8.24-1.02,0-4.33-4.56-6.65,9.06,1.11,5.25.45-.22.79-.4,1.16.09Z"/>
    <path class="cls-21" d="m195.18,311.2c4.64-1.3,7.94.33,7.99,3.72.1,6.19-7.54,6.06-7.86,5.69-.19-.72-.85-5.47-.13-9.41Zm1.61,7.69c3.94-.46,5.1-2.07,4.74-4.52-.36-2.45-4.31-2.07-4.85-1.81-.26,3.6-.2,4.36.11,6.32Z"/>
    <path class="cls-21" d="m288.67,314.3c-.24-1.84.32-1.55-2-1.55-.49,0-1.12-.24-1.1-.84.02-.69.18-1.02,1.13-1.02.29,0,3.02-.14,5.22-.13.77,0,1.31.31,1.31,1.02,0,.57-.43.92-1.33.92-1.89,0-1.64-.27-1.64,1.65,0,2.22.1,3.18-.29,3.97-2.08,4.21-6.3,2.33-6.3-.82,0-.59.16-.9.75-.94.53-.04.66.49.77.9.76,2.76,4.16,2.08,3.48-3.16Z"/>
    <path class="cls-21" d="m472.12,320c0,.65-.36.74-1.5.74h-4.33c-1.13,0-1.5-.09-1.5-.74s.49-.73,1.75-.73,1.17.32,1.17-3.55.1-3.5-2-3.5c-.49,0-.92-.16-.92-.72s.2-.75.99-.75h5.35c.79,0,.99.2.99.75s-.43.72-.92.72c-2.1,0-2-.37-2,3.5s-.14,3.55,1.17,3.55,1.75.08,1.75.73Z"/>
    <path class="cls-21" d="m382.12,320c0,.65-.36.74-1.5.74h-4.33c-1.13,0-1.5-.09-1.5-.74s.49-.73,1.75-.73,1.17.32,1.17-3.55.1-3.5-2-3.5c-.49,0-.92-.16-.92-.72s.2-.75.99-.75h5.35c.79,0,.99.2.99.75s-.43.72-.92.72c-2.1,0-2-.37-2,3.5s-.14,3.55,1.17,3.55,1.75.08,1.75.73Z"/>
    <path class="cls-21" d="m195.18,211.2c4.64-1.3,7.94.33,7.99,3.72.1,6.19-7.54,6.06-7.86,5.69-.19-.72-.85-5.47-.13-9.41Zm1.61,7.69c3.94-.46,5.1-2.07,4.74-4.52-.36-2.45-4.31-2.07-4.85-1.81-.26,3.6-.2,4.36.11,6.32Z"/>
    <path class="cls-21" d="m377.5,614.54c0,.36.02,1.02.02,1.02,0,0,2.18.01,3.53.07.5.02.9-.07.95.78.04.6-.32.73-.87.77-1.28.09-3.49.05-3.49.05,0,0,.03,1.16.07,1.65.03.39.1.88.1.88,0,0,3.53.01,3.93,0,.33,0,.84,0,.81.84-.03.89-.42.83-.98.87-1.49.1-4.12,0-4.84-.38-1.02-.55-.79-5.46-.37-8.84.08-.67,3.98-.71,4.96-.62.44.04.67.53.67.82,0,.31,0,.87-.59.9-1.38.08-3.86.16-3.86.16,0,0-.03.8-.02,1.03Z"/>
    <path class="cls-21" d="m465.64,420.93c-.21-2.13-.27-7.16-.03-8.83,0,0,1.78-.75,5.18-.44.42.04.62.25.63.53.03.54,0,1.08-.55,1.11-1.32.07-3.68.15-3.68.15,0,0-.03.76-.02.98,0,.34.02.97.02.97,0,0,2.08.01,3.36.07.47.02.88-.05.91.74.02.57-.38.7-.91.74-1.22.09-3.25.04-3.25.04.07,1.57.19,3.19.19,3.78,0,.69-.57.8-.97.8-.59,0-.85-.44-.87-.65Z"/>
    <path class="cls-21" d="m376.58,412.2c-.19,8.85-.94,7.8,4.1,7.75.71,0,1.24.12,1.24.84,0,.33-.44.77-1.2.77-4.71,0-4.71.13-5.33-.4-.49-.41-.42-1.9-.42-2.78,0-1.17.02-5.56.1-6.18s.33-.62.75-.62c.38,0,.77.09.76.62Z"/>
    <path class="cls-21" d="m288.67,214.3c-.24-1.84.32-1.55-2-1.55-.49,0-1.12-.24-1.1-.84.02-.69.18-1.02,1.13-1.02.29,0,3.02-.14,5.22-.13.77,0,1.31.31,1.31,1.02,0,.57-.43.92-1.33.92-1.89,0-1.64-.27-1.64,1.65,0,2.22.1,3.18-.29,3.97-2.08,4.21-6.3,2.33-6.3-.82,0-.59.16-.9.75-.94.53-.04.66.49.77.9.76,2.76,4.16,2.08,3.48-3.16Z"/>
    <path class="cls-21" d="m196.46,617.66c0,1.63,0,2.16,0,3.1,0,.66-.29.79-.8.79s-.93-.29-.93-.87c0-1.15-.04-6.16-.04-8.56,0-.52.34-.57.65-.57.41,0,.86.14.86.57,0,1.02.08,3.16.08,3.16,0,0,1.87-1.75,2.5-2.42.41-.44,1-.5,1.3-.14s.47.6-.1,1.15c-.85.84-1.04,1.21-2.46,2.53.83.86,2.18,1.99,3.61,3.62.45.51.34,1.14.17,1.3s-.8.24-1.19-.17-1.92-2.09-3.65-3.5Z"/>
    <path class="cls-21" d="m472.12,220c0,.65-.36.74-1.5.74h-4.33c-1.13,0-1.5-.09-1.5-.74s.49-.73,1.75-.73,1.17.32,1.17-3.55.1-3.5-2-3.5c-.49,0-.92-.16-.92-.72s.2-.75.99-.75h5.35c.79,0,.99.2.99.75s-.43.72-.92.72c-2.1,0-2-.37-2,3.5s-.14,3.55,1.17,3.55,1.75.08,1.75.73Z"/>
    <path class="cls-21" d="m382.12,220c0,.65-.36.74-1.5.74h-4.33c-1.13,0-1.5-.09-1.5-.74s.49-.73,1.75-.73,1.17.32,1.17-3.55.1-3.5-2-3.5c-.49,0-.92-.16-.92-.72s.2-.75.99-.75h5.35c.79,0,.99.2.99.75s-.43.72-.92.72c-2.1,0-2-.37-2,3.5s-.14,3.55,1.17,3.55,1.75.08,1.75.73Z"/>
    <path class="cls-21" d="m292.12,620.81c0,.65-.36.74-1.5.74h-4.33c-1.13,0-1.5-.09-1.5-.74s.49-.73,1.75-.73,1.17.32,1.17-3.55.1-3.5-2-3.5c-.49,0-.92-.16-.92-.72s.2-.75.99-.75h5.35c.79,0,.99.2.99.75s-.43.72-.92.72c-2.1,0-2-.37-2,3.5s-.14,3.55,1.17,3.55,1.75.08,1.75.73Z"/>
  </g>
  <g>
    <g>
      <text class="cls-8" transform="translate(165.26 544.42)"><tspan x="0" y="0">1</tspan></text>
      <text class="cls-8" transform="translate(255.16 544.42)"><tspan x="0" y="0">2</tspan></text>
      <text class="cls-8" transform="translate(345.26 544.42)"><tspan x="0" y="0">3</tspan></text>
      <text class="cls-8" transform="translate(435.16 544.42)"><tspan x="0" y="0">4</tspan></text>
    </g>
    <g>
      <text class="cls-8" transform="translate(165.26 344.42)"><tspan x="0" y="0">1</tspan></text>
      <text class="cls-8" transform="translate(255.16 344.42)"><tspan x="0" y="0">2</tspan></text>
      <text class="cls-8" transform="translate(345.26 344.42)"><tspan x="0" y="0">3</tspan></text>
      <text class="cls-8" transform="translate(435.16 344.42)"><tspan x="0" y="0">4</tspan></text>
    </g>
    <g>
      <text class="cls-8" transform="translate(165.26 644.42)"><tspan x="0" y="0">5</tspan></text>
      <text class="cls-8" transform="translate(255.16 644.42)"><tspan x="0" y="0">6</tspan></text>
      <text class="cls-8" transform="translate(345.26 644.42)"><tspan x="0" y="0">7</tspan></text>
      <text class="cls-8" transform="translate(435.16 644.42)"><tspan x="0" y="0">8</tspan></text>
    </g>
    <g>
      <text class="cls-8" transform="translate(165.26 444.42)"><tspan x="0" y="0">5</tspan></text>
      <text class="cls-8" transform="translate(255.16 444.42)"><tspan x="0" y="0">6</tspan></text>
      <text class="cls-8" transform="translate(345.26 444.42)"><tspan x="0" y="0">7</tspan></text>
      <text class="cls-8" transform="translate(435.16 444.42)"><tspan x="0" y="0">8</tspan></text>
    </g>
    <g>
      <text class="cls-8" transform="translate(165.26 244.42)"><tspan x="0" y="0">5</tspan></text>
      <text class="cls-8" transform="translate(255.16 244.42)"><tspan x="0" y="0">6</tspan></text>
      <text class="cls-8" transform="translate(345.26 244.42)"><tspan x="0" y="0">7</tspan></text>
      <text class="cls-8" transform="translate(435.16 244.42)"><tspan x="0" y="0">8</tspan></text>
    </g>
    <g>
      <text class="cls-8" transform="translate(165.26 144.42)"><tspan x="0" y="0">1</tspan></text>
      <text class="cls-8" transform="translate(255.16 144.42)"><tspan x="0" y="0">2</tspan></text>
      <text class="cls-8" transform="translate(345.26 144.42)"><tspan x="0" y="0">3</tspan></text>
      <text class="cls-8" transform="translate(435.16 144.42)"><tspan x="0" y="0">4</tspan></text>
    </g>
  </g>
  <text class="cls-20" transform="translate(43.92 85.33)"><tspan class="cls-15"><tspan x="0" y="0" xml:space="preserve"> In this </tspan><tspan class="cls-17" x="47.11" y="0">e</tspan><tspan class="cls-27" x="54.25" y="0">x</tspan><tspan x="61.3" y="0">ample of DJII, the g</tspan><tspan class="cls-11" x="181.96" y="0">r</tspan><tspan x="187.9" y="0">aphs in the second </tspan><tspan class="cls-10" x="309.74" y="0">r</tspan><tspan x="315.73" y="0">epetition (beats 5-8) mir</tspan><tspan class="cls-10" x="473.7" y="0">r</tspan><tspan x="479.69" y="0">or the </tspan></tspan><tspan class="cls-15" x=".5" y="18">g</tspan><tspan class="cls-12" x="7.91" y="18">r</tspan><tspan class="cls-15" x="13.86" y="18">aphs in the first </tspan><tspan class="cls-9" x="117.1" y="18">r</tspan><tspan class="cls-15" x="123.08" y="18">epetition (beats 1-4), classif</tspan><tspan class="cls-13" x="300.89" y="18">i</tspan><tspan class="cls-15" x="304.76" y="18">ying it as a </tspan><tspan class="cls-4" x="375.82" y="18">Mir</tspan><tspan class="cls-6" x="397.87" y="18">r</tspan><tspan class="cls-4" x="403.84" y="18">o</tspan><tspan class="cls-6" x="411.44" y="18">r</tspan><tspan class="cls-4" x="417.4" y="18">ed </tspan><tspan class="cls-1" x="435.42" y="18">P</tspan><tspan class="cls-4" x="443.53" y="18">ermu</tspan><tspan class="cls-7" x="476.5" y="18">t</tspan><tspan class="cls-4" x="481.57" y="18">ation.</tspan></text>
  <text class="cls-20" transform="translate(118.51 751.74)"><tspan class="cls-15"><tspan x="0" y="0">In this </tspan><tspan class="cls-17" x="43.81" y="0">e</tspan><tspan class="cls-27" x="50.95" y="0">x</tspan><tspan x="57.99" y="0">ample of KIEC, the colors a</tspan><tspan class="cls-10" x="228.24" y="0">r</tspan><tspan x="234.23" y="0">e </tspan><tspan class="cls-25" x="244.85" y="0">s</tspan><tspan class="cls-29" x="251.22" y="0">w</tspan><tspan x="262.56" y="0">apped in the second half, </tspan></tspan><tspan class="cls-15" x="40.84" y="18">so it is classified as a </tspan><tspan class="cls-2" x="175.43" y="18">S</tspan><tspan class="cls-5" x="182.36" y="18">w</tspan><tspan class="cls-4" x="193.2" y="18">apped/Mir</tspan><tspan class="cls-6" x="260.65" y="18">r</tspan><tspan class="cls-4" x="266.61" y="18">o</tspan><tspan class="cls-6" x="274.22" y="18">r</tspan><tspan class="cls-4" x="280.18" y="18">ed </tspan><tspan class="cls-1" x="298.19" y="18">P</tspan><tspan class="cls-4" x="306.3" y="18">ermu</tspan><tspan class="cls-7" x="339.28" y="18">t</tspan><tspan class="cls-4" x="344.35" y="18">ation.</tspan></text>
  <text class="cls-3" transform="translate(42.54 411.18)"><tspan class="cls-16" x="0" y="0">S</tspan><tspan class="cls-25" x="6.93" y="0">w</tspan><tspan x="17.77" y="0">apped/</tspan><tspan class="cls-11" x="63.16" y="0">R</tspan><tspan x="71.76" y="0">o</tspan><tspan class="cls-26" x="79.37" y="0">t</tspan><tspan x="84.44" y="0">a</tspan><tspan class="cls-26" x="92.33" y="0">t</tspan><tspan x="97.4" y="0">ed</tspan><tspan class="cls-10" x="16.6" y="18">P</tspan><tspan x="24.71" y="18">ermu</tspan><tspan class="cls-26" x="57.68" y="18">t</tspan><tspan x="62.76" y="18">ation</tspan></text>
  <g>
    <path class="cls-21" d="m438.37,169.24c-3.23,0-3.23,5,0,5,3.23,0,3.23-5,0-5h0Z"/>
    <path class="cls-21" d="m468.45,199.24c-3.23,0-3.23,5,0,5s3.23-5,0-5h0Z"/>
    <path class="cls-21" d="m498.53,169.24c-3.23,0-3.23,5,0,5s3.23-5,0-5h0Z"/>
    <path class="cls-21" d="m468.45,139.24c-3.23,0-3.23,5,0,5,3.23,0,3.23-5,0-5h0Z"/>
    <path class="cls-21" d="m468.45,172.87c1.45,0,1.45-2.25,0-2.25s-1.45,2.25,0,2.25h0Z"/>
  </g>
  <g>
    <path class="cls-21" d="m408.53,174.24c3.23,0,3.23-5,0-5s-3.23,5,0,5h0Z"/>
    <path class="cls-21" d="m378.45,144.24c3.23,0,3.23-5,0-5s-3.23,5,0,5h0Z"/>
    <path class="cls-21" d="m348.37,174.24c3.23,0,3.23-5,0-5s-3.23,5,0,5h0Z"/>
    <path class="cls-21" d="m378.45,204.24c3.23,0,3.23-5,0-5s-3.23,5,0,5h0Z"/>
    <path class="cls-21" d="m378.45,172.87c1.45,0,1.45-2.25,0-2.25s-1.45,2.25,0,2.25h0Z"/>
  </g>
  <g>
    <path class="cls-21" d="m318.53,174.24c3.23,0,3.23-5,0-5s-3.23,5,0,5h0Z"/>
    <path class="cls-21" d="m288.45,144.24c3.23,0,3.23-5,0-5s-3.23,5,0,5h0Z"/>
    <path class="cls-21" d="m258.37,174.24c3.23,0,3.23-5,0-5s-3.23,5,0,5h0Z"/>
    <path class="cls-21" d="m288.45,204.24c3.23,0,3.23-5,0-5s-3.23,5,0,5h0Z"/>
    <path class="cls-21" d="m288.45,172.87c1.45,0,1.45-2.25,0-2.25s-1.45,2.25,0,2.25h0Z"/>
  </g>
  <g>
    <path class="cls-21" d="m228.53,174.24c3.23,0,3.23-5,0-5s-3.23,5,0,5h0Z"/>
    <path class="cls-21" d="m198.45,144.24c3.23,0,3.23-5,0-5s-3.23,5,0,5h0Z"/>
    <path class="cls-21" d="m168.37,174.24c3.23,0,3.23-5,0-5s-3.23,5,0,5h0Z"/>
    <path class="cls-21" d="m198.45,204.24c3.23,0,3.23-5,0-5s-3.23,5,0,5h0Z"/>
    <path class="cls-21" d="m198.45,172.87c1.45,0,1.45-2.25,0-2.25s-1.45,2.25,0,2.25h0Z"/>
  </g>
  <g>
    <path class="cls-21" d="m438.37,269.24c-3.23,0-3.23,5,0,5s3.23-5,0-5h0Z"/>
    <path class="cls-21" d="m468.45,299.24c-3.23,0-3.23,5,0,5s3.23-5,0-5h0Z"/>
    <path class="cls-21" d="m498.53,269.24c-3.23,0-3.23,5,0,5s3.23-5,0-5h0Z"/>
    <path class="cls-21" d="m468.45,239.24c-3.23,0-3.23,5,0,5,3.23,0,3.23-5,0-5h0Z"/>
    <path class="cls-21" d="m468.45,272.87c1.45,0,1.45-2.25,0-2.25s-1.45,2.25,0,2.25h0Z"/>
  </g>
  <g>
    <path class="cls-21" d="m408.53,274.24c3.23,0,3.23-5,0-5s-3.23,5,0,5h0Z"/>
    <path class="cls-21" d="m378.45,244.24c3.23,0,3.23-5,0-5s-3.23,5,0,5h0Z"/>
    <path class="cls-21" d="m348.37,274.24c3.23,0,3.23-5,0-5s-3.23,5,0,5h0Z"/>
    <path class="cls-21" d="m378.45,304.24c3.23,0,3.23-5,0-5s-3.23,5,0,5h0Z"/>
    <path class="cls-21" d="m378.45,272.87c1.45,0,1.45-2.25,0-2.25s-1.45,2.25,0,2.25h0Z"/>
  </g>
  <g>
    <path class="cls-21" d="m318.53,274.24c3.23,0,3.23-5,0-5s-3.23,5,0,5h0Z"/>
    <path class="cls-21" d="m288.45,244.24c3.23,0,3.23-5,0-5s-3.23,5,0,5h0Z"/>
    <path class="cls-21" d="m258.37,274.24c3.23,0,3.23-5,0-5s-3.23,5,0,5h0Z"/>
    <path class="cls-21" d="m288.45,304.24c3.23,0,3.23-5,0-5s-3.23,5,0,5h0Z"/>
    <path class="cls-21" d="m288.45,272.87c1.45,0,1.45-2.25,0-2.25s-1.45,2.25,0,2.25h0Z"/>
  </g>
  <g>
    <path class="cls-21" d="m228.53,274.24c3.23,0,3.23-5,0-5s-3.23,5,0,5h0Z"/>
    <path class="cls-21" d="m198.45,244.24c3.23,0,3.23-5,0-5s-3.23,5,0,5h0Z"/>
    <path class="cls-21" d="m168.37,274.24c3.23,0,3.23-5,0-5s-3.23,5,0,5h0Z"/>
    <path class="cls-21" d="m198.45,304.24c3.23,0,3.23-5,0-5s-3.23,5,0,5h0Z"/>
    <path class="cls-21" d="m198.45,272.87c1.45,0,1.45-2.25,0-2.25s-1.45,2.25,0,2.25h0Z"/>
  </g>
  <g>
    <path class="cls-21" d="m438.37,369.24c-3.23,0-3.23,5,0,5s3.23-5,0-5h0Z"/>
    <path class="cls-21" d="m468.45,399.24c-3.23,0-3.23,5,0,5s3.23-5,0-5h0Z"/>
    <path class="cls-21" d="m498.53,369.24c-3.23,0-3.23,5,0,5s3.23-5,0-5h0Z"/>
    <path class="cls-21" d="m468.45,339.24c-3.23,0-3.23,5,0,5,3.23,0,3.23-5,0-5h0Z"/>
    <path class="cls-21" d="m468.45,372.87c1.45,0,1.45-2.25,0-2.25s-1.45,2.25,0,2.25h0Z"/>
  </g>
  <g>
    <path class="cls-21" d="m408.53,374.24c3.23,0,3.23-5,0-5s-3.23,5,0,5h0Z"/>
    <path class="cls-21" d="m378.45,344.24c3.23,0,3.23-5,0-5s-3.23,5,0,5h0Z"/>
    <path class="cls-21" d="m348.37,374.24c3.23,0,3.23-5,0-5s-3.23,5,0,5h0Z"/>
    <path class="cls-21" d="m378.45,404.24c3.23,0,3.23-5,0-5s-3.23,5,0,5h0Z"/>
    <path class="cls-21" d="m378.45,372.87c1.45,0,1.45-2.25,0-2.25s-1.45,2.25,0,2.25h0Z"/>
  </g>
  <g>
    <path class="cls-21" d="m318.53,374.24c3.23,0,3.23-5,0-5s-3.23,5,0,5h0Z"/>
    <path class="cls-21" d="m288.45,344.24c3.23,0,3.23-5,0-5s-3.23,5,0,5h0Z"/>
    <path class="cls-21" d="m258.37,374.24c3.23,0,3.23-5,0-5s-3.23,5,0,5h0Z"/>
    <path class="cls-21" d="m288.45,404.24c3.23,0,3.23-5,0-5s-3.23,5,0,5h0Z"/>
    <path class="cls-21" d="m288.45,372.87c1.45,0,1.45-2.25,0-2.25s-1.45,2.25,0,2.25h0Z"/>
  </g>
  <g>
    <path class="cls-21" d="m228.53,374.24c3.23,0,3.23-5,0-5s-3.23,5,0,5h0Z"/>
    <path class="cls-21" d="m198.45,344.24c3.23,0,3.23-5,0-5s-3.23,5,0,5h0Z"/>
    <path class="cls-21" d="m168.37,374.24c3.23,0,3.23-5,0-5s-3.23,5,0,5h0Z"/>
    <path class="cls-21" d="m198.45,404.24c3.23,0,3.23-5,0-5s-3.23,5,0,5h0Z"/>
    <path class="cls-21" d="m198.45,372.87c1.45,0,1.45-2.25,0-2.25s-1.45,2.25,0,2.25h0Z"/>
  </g>
  <g>
    <path class="cls-21" d="m470.95,541.67c0-3.23-5-3.23-5,0,0,3.23,5,3.23,5,0h0Z"/>
    <path class="cls-21" d="m440.95,571.74c0-3.23-5-3.23-5,0,0,3.23,5,3.23,5,0h0Z"/>
    <path class="cls-21" d="m470.95,601.82c0-3.23-5-3.23-5,0,0,3.23,5,3.23,5,0h0Z"/>
    <path class="cls-21" d="m500.95,571.74c0-3.23-5-3.23-5,0,0,3.23,5,3.23,5,0h0Z"/>
    <path class="cls-21" d="m468.45,572.87c1.45,0,1.45-2.25,0-2.25s-1.45,2.25,0,2.25h0Z"/>
  </g>
  <g>
    <path class="cls-21" d="m375.95,601.82c0,3.23,5,3.23,5,0s-5-3.23-5,0h0Z"/>
    <path class="cls-21" d="m405.95,571.74c0,3.23,5,3.23,5,0s-5-3.23-5,0h0Z"/>
    <path class="cls-21" d="m375.95,541.67c0,3.23,5,3.23,5,0s-5-3.23-5,0h0Z"/>
    <path class="cls-21" d="m345.95,571.74c0,3.23,5,3.23,5,0s-5-3.23-5,0h0Z"/>
    <path class="cls-21" d="m378.45,572.87c1.45,0,1.45-2.25,0-2.25s-1.45,2.25,0,2.25h0Z"/>
  </g>
  <g>
    <path class="cls-21" d="m285.95,601.82c0,3.23,5,3.23,5,0s-5-3.23-5,0h0Z"/>
    <path class="cls-21" d="m315.95,571.74c0,3.23,5,3.23,5,0s-5-3.23-5,0h0Z"/>
    <path class="cls-21" d="m285.95,541.67c0,3.23,5,3.23,5,0s-5-3.23-5,0h0Z"/>
    <path class="cls-21" d="m255.95,571.74c0,3.23,5,3.23,5,0s-5-3.23-5,0h0Z"/>
    <path class="cls-21" d="m288.45,572.87c1.45,0,1.45-2.25,0-2.25s-1.45,2.25,0,2.25h0Z"/>
  </g>
  <g>
    <path class="cls-21" d="m195.95,601.82c0,3.23,5,3.23,5,0s-5-3.23-5,0h0Z"/>
    <path class="cls-21" d="m225.95,571.74c0,3.23,5,3.23,5,0s-5-3.23-5,0h0Z"/>
    <path class="cls-21" d="m195.95,541.67c0,3.23,5,3.23,5,0s-5-3.23-5,0h0Z"/>
    <path class="cls-21" d="m165.95,571.74c0,3.23,5,3.23,5,0s-5-3.23-5,0h0Z"/>
    <path class="cls-21" d="m198.45,572.87c1.45,0,1.45-2.25,0-2.25s-1.45,2.25,0,2.25h0Z"/>
  </g>
  <line class="cls-24" x1="165.95" y1="628.84" x2="500.95" y2="628.84"/>
  <line class="cls-24" x1="165.95" y1="428.84" x2="500.95" y2="428.84"/>
  <line class="cls-24" x1="165.95" y1="228.84" x2="500.95" y2="228.84"/>
  <line class="cls-23" x1="47.29" y1="328.92" x2="587.44" y2="328.92"/>
  <line class="cls-23" x1="47.29" y1="528.92" x2="587.44" y2="528.92"/>
  <text class="cls-19" transform="translate(606.03 252.65)"><tspan x="0" y="0"> </tspan></text>
  <path class="cls-28" d="m203.85,545.12h-5.76c-.48,0-.87.4-.87.89,0,.49.39.89.87.89h1.92v21.85c0,.48.38.87.85.87h.32c.46,0,.85-.39.85-.87v-21.85h1.82c.48,0,.87-.4.87-.89s-.39-.89-.87-.89Z"/>
  <text class="cls-14" transform="translate(79.49 163.32)"><tspan x="0" y="0">DJII</tspan></text>
  <text class="cls-14" transform="translate(79.49 363.32)"><tspan x="0" y="0">BBLF</tspan></text>
  <text class="cls-14" transform="translate(79.49 563.32)"><tspan x="0" y="0">KIEC</tspan></text>
</svg>