<?xml version="1.0" encoding="UTF-8"?>
<svg id="Layer_1" data-name="Layer 1" xmlns="http://www.w3.org/2000/svg" viewBox="0 0 612 792">
  <defs>
    <style>
      .cls-1, .cls-2, .cls-3, .cls-4, .cls-5 {
        font-family: Cambria-Italic, Cambria;
        font-style: italic;
      }

      .cls-1, .cls-6, .cls-7 {
        letter-spacing: -.01em;
      }

      .cls-8 {
        letter-spacing: 0em;
      }

      .cls-9, .cls-2 {
        letter-spacing: -.02em;
      }

      .cls-10, .cls-11 {
        letter-spacing: -.01em;
      }

      .cls-12 {
        letter-spacing: -.03em;
      }

      .cls-13 {
        font-size: 16px;
      }

      .cls-13, .cls-14, .cls-15, .cls-16, .cls-5, .cls-17 {
        fill: #231f20;
      }

      .cls-14 {
        font-family: MonotypeCorsiva, 'Monotype Corsiva';
        font-size: 40px;
      }

      .cls-18, .cls-16 {
        font-family: Cambria-Bold, Cambria;
        font-weight: 700;
      }

      .cls-19 {
        fill: #2e3192;
      }

      .cls-15 {
        font-size: 20px;
      }

      .cls-15, .cls-20, .cls-6, .cls-11, .cls-21 {
        font-family: Cambria, Cambria;
      }

      .cls-22 {
        stroke-width: 2px;
      }

      .cls-22, .cls-23 {
        fill: none;
        stroke: #231f20;
        stroke-miterlimit: 10;
      }

      .cls-24 {
        letter-spacing: 0em;
      }

      .cls-20, .cls-25 {
        letter-spacing: -.01em;
      }

      .cls-26 {
        letter-spacing: 0em;
      }

      .cls-16 {
        font-size: 14px;
      }

      .cls-4 {
        letter-spacing: 0em;
      }

      .cls-27 {
        fill: #ed1c24;
      }

      .cls-5 {
        font-size: 12px;
      }

      .cls-28 {
        letter-spacing: -.1em;
      }

      .cls-29 {
        letter-spacing: 0em;
      }

      .cls-30 {
        letter-spacing: -.01em;
      }

      .cls-23 {
        stroke-width: .75px;
      }
    </style>
  </defs>
  <line class="cls-22" x1="48.88" y1="333.42" x2="548.88" y2="333.42"/>
  <line class="cls-22" x1="48.88" y1="533.42" x2="548.88" y2="533.42"/>
  <text class="cls-16" transform="translate(566.53 254.89)"><tspan x="0" y="0"> </tspan></text>
  <text class="cls-13" transform="translate(105.08 66.65)"><tspan class="cls-18"><tspan x="0" y="0">The Γ→Γ let</tspan><tspan class="cls-25" x="85.61" y="0">t</tspan><tspan x="91.23" y="0">ers can </tspan><tspan class="cls-8" x="147.22" y="0">c</tspan><tspan x="154.62" y="0">onnect </tspan><tspan class="cls-25" x="208.4" y="0">t</tspan><tspan x="214.02" y="0">o a</tspan><tspan class="cls-12" x="235.22" y="0">n</tspan><tspan x="244.37" y="0">y other Γ→Γ let</tspan><tspan class="cls-25" x="354.1" y="0">t</tspan><tspan x="359.73" y="0">e</tspan><tspan class="cls-28" x="368.22" y="0">r</tspan><tspan x="374.04" y="0">. </tspan></tspan><tspan class="cls-21"><tspan x="-66.04" y="38.4">In these </tspan><tspan class="cls-10" x="-8.15" y="38.4">e</tspan><tspan class="cls-25" x="-.53" y="38.4">x</tspan><tspan x="6.98" y="38.4">amples, each </tspan><tspan class="cls-30" x="97.86" y="38.4">w</tspan><tspan x="110.05" y="38.4">o</tspan><tspan class="cls-7" x="118.54" y="38.4">r</tspan><tspan x="124.92" y="38.4">d ends in </tspan><tspan class="cls-26" x="190.23" y="38.4">g</tspan><tspan x="198" y="38.4">amma position on the opposi</tspan><tspan class="cls-24" x="395.91" y="38.4">t</tspan><tspan x="401.18" y="38.4">e side.</tspan></tspan><tspan class="cls-21"><tspan class="cls-29" x="-23.28" y="57.6">B</tspan><tspan x="-13.65" y="57.6">y </tspan><tspan class="cls-7" x="-2.07" y="57.6">r</tspan><tspan x="4.32" y="57.6">epeating the </tspan><tspan class="cls-30" x="92.43" y="57.6">w</tspan><tspan x="104.61" y="57.6">o</tspan><tspan class="cls-7" x="113.11" y="57.6">r</tspan><tspan x="119.49" y="57.6">d f</tspan><tspan class="cls-7" x="136.73" y="57.6">r</tspan><tspan x="143.11" y="57.6">om the</tspan><tspan class="cls-7" x="190.49" y="57.6">r</tspan><tspan x="196.87" y="57.6">e, </tspan><tspan class="cls-30" x="211.48" y="57.6">w</tspan><tspan x="223.67" y="57.6">e </tspan><tspan class="cls-7" x="235" y="57.6">r</tspan><tspan x="241.38" y="57.6">eturn </tspan><tspan class="cls-24" x="282.5" y="57.6">t</tspan><tspan x="287.78" y="57.6">o home position.</tspan></tspan></text>
  <line class="cls-23" x1="131.15" y1="233.36" x2="466.15" y2="233.36"/>
  <line class="cls-23" x1="131.15" y1="433.36" x2="466.15" y2="433.36"/>
  <line class="cls-23" x1="131.15" y1="633.36" x2="466.15" y2="633.36"/>
  <text class="cls-14" transform="translate(239.73 33.12)"><tspan x="0" y="0">Gamma</tspan></text>
  <g>
    <path class="cls-17" d="m163.88,177.38c1.45,0,1.45-2.25,0-2.25s-1.45,2.25,0,2.25h0Z"/>
    <path class="cls-17" d="m193.96,178.75c3.23,0,3.23-5,0-5s-3.23,5,0,5h0Z"/>
    <path class="cls-17" d="m163.88,148.75c3.23,0,3.23-5,0-5s-3.23,5,0,5h0Z"/>
    <path class="cls-17" d="m133.8,178.75c3.23,0,3.23-5,0-5s-3.23,5,0,5h0Z"/>
    <path class="cls-17" d="m163.88,208.75c3.23,0,3.23-5,0-5s-3.23,5,0,5h0Z"/>
  </g>
  <g>
    <path class="cls-17" d="m283.96,178.75c3.23,0,3.23-5,0-5s-3.23,5,0,5h0Z"/>
    <path class="cls-17" d="m253.88,148.75c3.23,0,3.23-5,0-5s-3.23,5,0,5h0Z"/>
    <path class="cls-17" d="m223.8,178.75c3.23,0,3.23-5,0-5s-3.23,5,0,5h0Z"/>
    <path class="cls-17" d="m253.88,208.75c3.23,0,3.23-5,0-5s-3.23,5,0,5h0Z"/>
    <path class="cls-17" d="m253.88,177.38c1.45,0,1.45-2.25,0-2.25s-1.45,2.25,0,2.25h0Z"/>
  </g>
  <g>
    <path class="cls-17" d="m373.96,178.75c3.23,0,3.23-5,0-5s-3.23,5,0,5h0Z"/>
    <path class="cls-17" d="m343.88,148.75c3.23,0,3.23-5,0-5s-3.23,5,0,5h0Z"/>
    <path class="cls-17" d="m313.8,178.75c3.23,0,3.23-5,0-5s-3.23,5,0,5h0Z"/>
    <path class="cls-17" d="m343.88,208.75c3.23,0,3.23-5,0-5s-3.23,5,0,5h0Z"/>
    <path class="cls-17" d="m343.88,177.38c1.45,0,1.45-2.25,0-2.25s-1.45,2.25,0,2.25h0Z"/>
  </g>
  <g>
    <path class="cls-17" d="m463.96,178.75c3.23,0,3.23-5,0-5s-3.23,5,0,5h0Z"/>
    <path class="cls-17" d="m433.88,148.75c3.23,0,3.23-5,0-5s-3.23,5,0,5h0Z"/>
    <path class="cls-17" d="m403.8,178.75c3.23,0,3.23-5,0-5s-3.23,5,0,5h0Z"/>
    <path class="cls-17" d="m433.88,208.75c3.23,0,3.23-5,0-5s-3.23,5,0,5h0Z"/>
    <path class="cls-17" d="m433.88,177.38c1.45,0,1.45-2.25,0-2.25s-1.45,2.25,0,2.25h0Z"/>
  </g>
  <path class="cls-17" d="m437.41,224.87l-2.7-3.03c.87-.25,1.47-.64,1.8-1.14.66-1.02.77-2.65-.54-3.86-.83-.76-3.04-.82-5.15-.14l-.06.02-.02.05c-.26.54-.14,2.22.07,5.27.08,1.06.16,2.26.24,3.62.02.37.41.57.79.57.3,0,.77-.17.84-.62.06-.42-.05-2.87-.08-3.48h.17l3.42,3.83c.16.18.38.27.61.27.2,0,.4-.07.55-.21.34-.3.37-.83.07-1.16Zm-5.02-4.32l-.03-.2c-.13-.82-.2-1.21-.11-2.5.38-.1,1.92-.27,2.71.15.28.14.44.34.47.59.08.5-.06.95-.38,1.3-.52.53-1.46.77-2.66.67Z"/>
  <path class="cls-17" d="m249.42,223.11c-.55-2.97.03-4.69,2.09-6.23,1.86-1.39,4.92-.33,5.78,1.24.73,1.31,1.54,4.09-.47,6.49-.67.8-1.59,1.4-2.62,1.57-2.46.41-4.48-1.4-4.79-3.06Zm2.23.5c1.14,1.13,3.41,1.11,4.45-.7,1.02-1.77.06-3.66-.63-4.27-.55-.49-2.53-1.19-3.76.41-1.11,1.45-.84,3.8-.07,4.56Z"/>
  <path class="cls-17" d="m167.47,223.87c-.25,1.19-1.45,2.37-3.24,2.37h-.11c-1-.04-2.78-.26-3.51-1.25-.39-.52-.47-1.13-.19-1.44.24-.27.68-.24,1.23.08,1.08,1.06,2.52,1.08,3.42.64.52-.26.82-.65.77-1.03-.03-.33-.36-.94-2.12-1.35-2.5-.56-3.55-1.98-3.49-3.14.06-1.03,1.04-2.24,3.59-2.51.07,0,.13,0,.2,0,1.08,0,2.66.83,2.96,1.59.13.32.04.59-.26.82-.19.14-.59-.05-1.1-.3-.48-.23-1.01-.49-1.51-.55-.14-.02-.27-.03-.4-.03-.95,0-1.68.48-1.82.99-.13.47.23.9.96,1.2l2.99,1.21c1.5.62,1.82,1.8,1.62,2.7Z"/>
  <path class="cls-17" d="m347.97,217.16c-.01.49-.38.78-1.17.77h-2.09v7.47c0,.45-.37.83-.83.83s-.83-.38-.83-.83v-7.47h-2.09c-.79,0-1.16-.28-1.17-.77-.02-.62.45-.89,1.12-.91.82-.02,5.12-.02,5.94,0,.67.02,1.14.29,1.12.91Z"/>
  <path class="cls-17" d="m437.41,324.87l-2.7-3.03c.87-.25,1.47-.64,1.8-1.14.66-1.02.77-2.65-.54-3.86-.83-.76-3.04-.82-5.15-.14l-.06.02-.02.05c-.26.54-.14,2.22.07,5.27.08,1.06.16,2.26.24,3.62.02.37.41.57.79.57.3,0,.77-.17.84-.62.06-.42-.05-2.87-.08-3.48h.17l3.42,3.83c.16.18.38.27.61.27.2,0,.4-.07.55-.21.34-.3.37-.83.07-1.16Zm-5.02-4.32l-.03-.2c-.13-.82-.2-1.21-.11-2.5.38-.1,1.92-.27,2.71.15.28.14.44.34.47.59.08.5-.06.95-.38,1.3-.52.53-1.46.77-2.66.67Z"/>
  <path class="cls-17" d="m249.42,323.11c-.55-2.97.03-4.69,2.09-6.23,1.86-1.39,4.92-.33,5.78,1.24.73,1.31,1.54,4.09-.47,6.49-.67.8-1.59,1.4-2.62,1.57-2.46.41-4.48-1.4-4.79-3.06Zm2.23.5c1.14,1.13,3.41,1.11,4.45-.7,1.02-1.77.06-3.66-.63-4.27-.55-.49-2.53-1.19-3.76.41-1.11,1.45-.84,3.8-.07,4.56Z"/>
  <path class="cls-17" d="m167.47,323.87c-.25,1.19-1.45,2.37-3.24,2.37h-.11c-1-.04-2.78-.26-3.51-1.25-.39-.52-.47-1.13-.19-1.44.24-.27.68-.24,1.23.08,1.08,1.06,2.52,1.08,3.42.64.52-.26.82-.65.77-1.03-.03-.33-.36-.94-2.12-1.35-2.5-.56-3.55-1.98-3.49-3.14.06-1.03,1.04-2.24,3.59-2.51.07,0,.13,0,.2,0,1.08,0,2.66.83,2.96,1.59.13.32.04.59-.26.82-.19.14-.59-.05-1.1-.3-.48-.23-1.01-.49-1.51-.55-.14-.02-.27-.03-.4-.03-.95,0-1.68.48-1.82.99-.13.47.23.9.96,1.2l2.99,1.21c1.5.62,1.82,1.8,1.62,2.7Z"/>
  <path class="cls-17" d="m347.97,317.16c-.01.49-.38.78-1.17.77h-2.09v7.47c0,.45-.37.83-.83.83s-.83-.38-.83-.83v-7.47h-2.09c-.79,0-1.16-.28-1.17-.77-.02-.62.45-.89,1.12-.91.82-.02,5.12-.02,5.94,0,.67.02,1.14.29,1.12.91Z"/>
  <path class="cls-27" d="m192.68,183.15c0,11.89-9.57,22.68-21.38,22.72l2.65,2.41s-1.01,1.11-1.85.54c-.95-.65-4.08-3.93-4.08-3.93,0,0,2.66-3.32,3.8-4.21.81-.63,1.89.43,1.89.43l-2.61,2.78c8.93-.03,18.79-7.32,19.5-20.74.08-1.57,2.09-1.62,2.08,0Z"/>
  <path class="cls-27" d="m258.09,205.01c0-19.4,1.3-21.27,20.15-21.27l-2.72-2.66s1.04-1.1,1.87-.5c1.18.85,3.95,4.08,3.95,4.08,0,0-3.01,3.38-3.95,4.07-.82.6-1.87-.48-1.87-.48l2.72-2.56c-17.27,0-18.08,1-18.08,19.29,0,1.51-2.07,1.51-2.07.03Z"/>
  <path class="cls-27" d="m166.76,178.42h-5.76c-.48,0-.87.4-.87.89,0,.49.39.89.87.89h1.92v21.85c0,.48.38.87.85.87h.32c.46,0,.85-.39.85-.87v-21.85h1.82c.48,0,.87-.4.87-.89,0-.49-.39-.89-.87-.89Z"/>
  <path class="cls-19" d="m156.98,205.06c-11.89,0-22.68-9.57-22.72-21.38l-2.41,2.65s-1.11-1.01-.54-1.85c.65-.95,3.93-4.08,3.93-4.08,0,0,3.32,2.66,4.21,3.8.63.81-.43,1.89-.43,1.89l-2.78-2.61c.03,8.93,7.32,18.79,20.74,19.5,1.57.08,1.62,2.09,0,2.08Z"/>
  <path class="cls-19" d="m161.71,179.14v-5.76c0-.48-.4-.87-.89-.87s-.89.39-.89.87v1.92h-21.85c-.48,0-.87.38-.87.85v.32c0,.46.39.85.87.85h21.85v1.82c0,.48.4.87.89.87s.89-.39.89-.87Z"/>
  <path class="cls-19" d="m225.07,169.36c0-11.89,9.57-22.68,21.38-22.72l-2.65-2.41s1.01-1.11,1.85-.54c.95.65,4.08,3.93,4.08,3.93,0,0-2.66,3.32-3.8,4.21-.81.63-1.89-.43-1.89-.43l2.61-2.78c-8.93.03-18.79,7.32-19.5,20.74-.08,1.57-2.09,1.62-2.08,0Z"/>
  <path class="cls-19" d="m251,174.09h5.76c.48,0,.87-.4.87-.89,0-.49-.39-.89-.87-.89h-1.92v-21.85c0-.48-.38-.87-.85-.87h-.32c-.46,0-.85.39-.85.87v21.85h-1.82c-.48,0-.87.4-.87.89,0,.49.39.89.87.89Z"/>
  <path class="cls-19" d="m404.71,168.94c0-11.89,9.57-22.68,21.38-22.72l-2.65-2.41s1.01-1.11,1.85-.54c.95.65,4.08,3.93,4.08,3.93,0,0-2.66,3.32-3.8,4.21-.81.63-1.89-.43-1.89-.43l2.61-2.78c-8.93.03-18.79,7.32-19.5,20.74-.08,1.57-2.09,1.62-2.08,0Z"/>
  <path class="cls-19" d="m436.76,149.59h-5.76c-.48,0-.87.4-.87.89,0,.49.39.89.87.89h1.92v21.85c0,.48.38.87.85.87h.32c.46,0,.85-.39.85-.87v-21.85h1.82c.48,0,.87-.4.87-.89,0-.49-.39-.89-.87-.89Z"/>
  <path class="cls-27" d="m280.54,179.14v-5.76c0-.48-.4-.87-.89-.87s-.89.39-.89.87v1.92h-21.85c-.48,0-.87.38-.87.85v.32c0,.46.39.85.87.85h21.85v1.82c0,.48.4.87.89.87s.89-.39.89-.87Z"/>
  <path class="cls-27" d="m372.63,172.04c-19.4,0-21.27-1.3-21.27-20.15l-2.66,2.72s-1.1-1.04-.5-1.87c.85-1.18,4.08-3.95,4.08-3.95,0,0,3.38,3.01,4.07,3.95.6.82-.48,1.87-.48,1.87l-2.56-2.72c0,17.27,1,18.08,19.29,18.08,1.51,0,1.51,2.07.03,2.07Z"/>
  <path class="cls-27" d="m341,174.09h5.76c.48,0,.87-.4.87-.89,0-.49-.39-.89-.87-.89h-1.92v-21.85c0-.48-.38-.87-.85-.87h-.32c-.46,0-.85.39-.85.87v21.85h-1.82c-.48,0-.87.4-.87.89,0,.49.39.89.87.89Z"/>
  <path class="cls-19" d="m339.67,147.5c0,19.4-1.3,21.27-20.15,21.27l2.72,2.66s-1.04,1.1-1.87.5c-1.18-.85-3.95-4.08-3.95-4.08,0,0,3.01-3.38,3.95-4.07.82-.6,1.87.48,1.87.48l-2.72,2.56c17.27,0,18.08-1,18.08-19.29,0-1.51,2.07-1.51,2.07-.03Z"/>
  <path class="cls-19" d="m317.21,173.37v5.76c0,.48.4.87.89.87s.89-.39.89-.87v-1.92h21.85c.48,0,.87-.38.87-.85v-.32c0-.46-.39-.85-.87-.85h-21.85v-1.82c0-.48-.4-.87-.89-.87s-.89.39-.89.87Z"/>
  <path class="cls-27" d="m431.29,149.48c0,19.4-1.3,21.27-20.15,21.27l2.72,2.66s-1.04,1.1-1.87.5c-1.18-.85-3.95-4.08-3.95-4.08,0,0,3.01-3.38,3.95-4.07.82-.6,1.87.48,1.87.48l-2.72,2.56c17.27,0,18.08-1,18.08-19.29,0-1.51,2.07-1.51,2.07-.03Z"/>
  <path class="cls-27" d="m407.21,173.37v5.76c0,.48.4.87.89.87s.89-.39.89-.87v-1.92h21.85c.48,0,.87-.38.87-.85v-.32c0-.46-.39-.85-.87-.85h-21.85v-1.82c0-.48-.4-.87-.89-.87s-.89.39-.89.87Z"/>
  <g>
    <path class="cls-17" d="m133.8,273.75c-3.23,0-3.23,5,0,5s3.23-5,0-5h0Z"/>
    <path class="cls-17" d="m163.88,303.75c-3.23,0-3.23,5,0,5s3.23-5,0-5h0Z"/>
    <path class="cls-17" d="m193.96,273.75c-3.23,0-3.23,5,0,5s3.23-5,0-5h0Z"/>
    <path class="cls-17" d="m163.88,243.75c-3.23,0-3.23,5,0,5s3.23-5,0-5h0Z"/>
    <path class="cls-17" d="m163.88,277.38c1.45,0,1.45-2.25,0-2.25s-1.45,2.25,0,2.25h0Z"/>
  </g>
  <g>
    <path class="cls-17" d="m223.8,273.75c-3.23,0-3.23,5,0,5s3.23-5,0-5h0Z"/>
    <path class="cls-17" d="m253.88,303.75c-3.23,0-3.23,5,0,5,3.23,0,3.23-5,0-5h0Z"/>
    <path class="cls-17" d="m283.96,273.75c-3.23,0-3.23,5,0,5,3.23,0,3.23-5,0-5h0Z"/>
    <path class="cls-17" d="m253.88,243.75c-3.23,0-3.23,5,0,5s3.23-5,0-5h0Z"/>
    <path class="cls-17" d="m253.88,277.38c1.45,0,1.45-2.25,0-2.25s-1.45,2.25,0,2.25h0Z"/>
  </g>
  <g>
    <path class="cls-17" d="m313.8,273.75c-3.23,0-3.23,5,0,5s3.23-5,0-5h0Z"/>
    <path class="cls-17" d="m343.88,303.75c-3.23,0-3.23,5,0,5s3.23-5,0-5h0Z"/>
    <path class="cls-17" d="m373.96,273.75c-3.23,0-3.23,5,0,5,3.23,0,3.23-5,0-5h0Z"/>
    <path class="cls-17" d="m343.88,243.75c-3.23,0-3.23,5,0,5s3.23-5,0-5h0Z"/>
    <path class="cls-17" d="m343.88,277.38c1.45,0,1.45-2.25,0-2.25s-1.45,2.25,0,2.25h0Z"/>
  </g>
  <g>
    <path class="cls-17" d="m403.8,273.75c-3.23,0-3.23,5,0,5s3.23-5,0-5h0Z"/>
    <path class="cls-17" d="m433.88,303.75c-3.23,0-3.23,5,0,5s3.23-5,0-5h0Z"/>
    <path class="cls-17" d="m463.96,273.75c-3.23,0-3.23,5,0,5,3.23,0,3.23-5,0-5h0Z"/>
    <path class="cls-17" d="m433.88,243.75c-3.23,0-3.23,5,0,5s3.23-5,0-5h0Z"/>
    <path class="cls-17" d="m433.88,277.38c1.45,0,1.45-2.25,0-2.25s-1.45,2.25,0,2.25h0Z"/>
  </g>
  <path class="cls-27" d="m135.07,269.36c0-11.89,9.57-22.68,21.38-22.72l-2.65-2.41s1.01-1.11,1.85-.54c.95.65,4.08,3.93,4.08,3.93,0,0-2.66,3.32-3.8,4.21-.81.63-1.89-.43-1.89-.43l2.61-2.78c-8.93.03-18.79,7.32-19.5,20.74-.08,1.57-2.09,1.62-2.08,0Z"/>
  <path class="cls-27" d="m249.67,247.5c0,19.4-1.3,21.27-20.15,21.27l2.72,2.66s-1.04,1.1-1.87.5c-1.18-.85-3.95-4.08-3.95-4.08,0,0,3.01-3.38,3.95-4.07.82-.6,1.87.48,1.87.48l-2.72,2.56c17.27,0,18.08-1,18.08-19.29,0-1.51,2.07-1.51,2.07-.03Z"/>
  <path class="cls-27" d="m166.76,249.59h-5.76c-.48,0-.87.4-.87.89,0,.49.39.89.87.89h1.92v21.85c0,.48.38.87.85.87h.32c.46,0,.85-.39.85-.87v-21.85h1.82c.48,0,.87-.4.87-.89,0-.49-.39-.89-.87-.89Z"/>
  <path class="cls-19" d="m170.77,247.45c11.89,0,22.68,9.57,22.72,21.38l2.41-2.65s1.11,1.01.54,1.85c-.65.95-3.93,4.08-3.93,4.08,0,0-3.32-2.66-4.21-3.8-.63-.81.43-1.89.43-1.89l2.78,2.61c-.03-8.93-7.32-18.79-20.74-19.5-1.57-.08-1.62-2.09,0-2.08Z"/>
  <path class="cls-19" d="m190.54,279.14v-5.76c0-.48-.4-.87-.89-.87-.49,0-.89.39-.89.87v1.92h-21.85c-.48,0-.87.38-.87.85v.32c0,.46.39.85.87.85h21.85v1.82c0,.48.4.87.89.87s.89-.39.89-.87Z"/>
  <path class="cls-19" d="m282.68,283.15c0,11.89-9.57,22.68-21.38,22.72l2.65,2.41s-1.01,1.11-1.85.54c-.95-.65-4.08-3.93-4.08-3.93,0,0,2.66-3.32,3.8-4.21.81-.63,1.89.43,1.89.43l-2.61,2.78c8.93-.03,18.79-7.32,19.5-20.74.08-1.57,2.09-1.62,2.08,0Z"/>
  <path class="cls-19" d="m251,302.92h5.76c.48,0,.87-.4.87-.89,0-.49-.39-.89-.87-.89h-1.92v-21.85c0-.48-.38-.87-.85-.87h-.32c-.46,0-.85.39-.85.87v21.85h-1.82c-.48,0-.87.4-.87.89,0,.49.39.89.87.89Z"/>
  <path class="cls-19" d="m463.05,283.57c0,11.89-9.57,22.68-21.38,22.72l2.65,2.41s-1.01,1.11-1.85.54c-.95-.65-4.08-3.93-4.08-3.93,0,0,2.66-3.32,3.8-4.21.81-.63,1.89.43,1.89.43l-2.61,2.78c8.93-.03,18.79-7.32,19.5-20.74.08-1.57,2.09-1.62,2.08,0Z"/>
  <path class="cls-19" d="m436.76,278.42h-5.76c-.48,0-.87.4-.87.89,0,.49.39.89.87.89h1.92v21.85c0,.48.38.87.85.87h.32c.46,0,.85-.39.85-.87v-21.85h1.82c.48,0,.87-.4.87-.89,0-.49-.39-.89-.87-.89Z"/>
  <path class="cls-27" d="m251.71,279.14v-5.76c0-.48-.4-.87-.89-.87s-.89.39-.89.87v1.92h-21.85c-.48,0-.87.38-.87.85v.32c0,.46.39.85.87.85h21.85v1.82c0,.48.4.87.89.87s.89-.39.89-.87Z"/>
  <path class="cls-27" d="m315.13,280.47c19.4,0,21.27,1.3,21.27,20.15l2.66-2.72s1.1,1.04.5,1.87c-.85,1.18-4.08,3.95-4.08,3.95,0,0-3.38-3.01-4.07-3.95-.6-.82.48-1.87.48-1.87l2.56,2.72c0-17.27-1-18.08-19.29-18.08-1.51,0-1.51-2.07-.03-2.07Z"/>
  <path class="cls-27" d="m346.76,278.42h-5.76c-.48,0-.87.4-.87.89s.39.89.87.89h1.92v21.85c0,.48.38.87.85.87h.32c.46,0,.85-.39.85-.87v-21.85h1.82c.48,0,.87-.4.87-.89,0-.49-.39-.89-.87-.89Z"/>
  <path class="cls-19" d="m348.09,305.01c0-19.4,1.3-21.27,20.15-21.27l-2.72-2.66s1.04-1.1,1.87-.5c1.18.85,3.95,4.08,3.95,4.08,0,0-3.01,3.38-3.95,4.07-.82.6-1.87-.48-1.87-.48l2.72-2.56c-17.27,0-18.08,1-18.08,19.29,0,1.51-2.07,1.51-2.07.03Z"/>
  <path class="cls-19" d="m346.04,273.37v5.76c0,.48.4.87.89.87s.89-.39.89-.87v-1.92h21.85c.48,0,.87-.38.87-.85v-.32c0-.46-.39-.85-.87-.85h-21.85v-1.82c0-.48-.4-.87-.89-.87s-.89.39-.89.87Z"/>
  <path class="cls-27" d="m436.47,303.03c0-19.4,1.3-21.27,20.15-21.27l-2.72-2.66s1.04-1.1,1.87-.5c1.18.85,3.95,4.08,3.95,4.08,0,0-3.01,3.38-3.95,4.07-.82.6-1.87-.48-1.87-.48l2.72-2.56c-17.27,0-18.08,1-18.08,19.29,0,1.51-2.07,1.51-2.07.03Z"/>
  <path class="cls-27" d="m436.04,273.37v5.76c0,.48.4.87.89.87s.89-.39.89-.87v-1.92h21.85c.48,0,.87-.38.87-.85v-.32c0-.46-.39-.85-.87-.85h-21.85v-1.82c0-.48-.4-.87-.89-.87s-.89.39-.89.87Z"/>
  <g>
    <path class="cls-17" d="m163.88,377.38c1.45,0,1.45-2.25,0-2.25s-1.45,2.25,0,2.25h0Z"/>
    <g>
      <path class="cls-17" d="m193.96,378.75c3.23,0,3.23-5,0-5s-3.23,5,0,5h0Z"/>
      <path class="cls-17" d="m163.88,348.75c3.23,0,3.23-5,0-5s-3.23,5,0,5h0Z"/>
      <path class="cls-17" d="m133.8,378.75c3.23,0,3.23-5,0-5s-3.23,5,0,5h0Z"/>
      <path class="cls-17" d="m163.88,408.75c3.23,0,3.23-5,0-5s-3.23,5,0,5h0Z"/>
    </g>
  </g>
  <g>
    <path class="cls-17" d="m283.96,378.75c3.23,0,3.23-5,0-5s-3.23,5,0,5h0Z"/>
    <path class="cls-17" d="m253.88,348.75c3.23,0,3.23-5,0-5s-3.23,5,0,5h0Z"/>
    <path class="cls-17" d="m223.8,378.75c3.23,0,3.23-5,0-5s-3.23,5,0,5h0Z"/>
    <path class="cls-17" d="m253.88,408.75c3.23,0,3.23-5,0-5s-3.23,5,0,5h0Z"/>
    <path class="cls-17" d="m253.88,377.38c1.45,0,1.45-2.25,0-2.25s-1.45,2.25,0,2.25h0Z"/>
  </g>
  <g>
    <path class="cls-17" d="m373.96,378.75c3.23,0,3.23-5,0-5s-3.23,5,0,5h0Z"/>
    <path class="cls-17" d="m343.88,348.75c3.23,0,3.23-5,0-5s-3.23,5,0,5h0Z"/>
    <path class="cls-17" d="m313.8,378.75c3.23,0,3.23-5,0-5s-3.23,5,0,5h0Z"/>
    <path class="cls-17" d="m343.88,408.75c3.23,0,3.23-5,0-5s-3.23,5,0,5h0Z"/>
    <path class="cls-17" d="m343.88,377.38c1.45,0,1.45-2.25,0-2.25s-1.45,2.25,0,2.25h0Z"/>
  </g>
  <g>
    <path class="cls-17" d="m463.96,378.75c3.23,0,3.23-5,0-5s-3.23,5,0,5h0Z"/>
    <path class="cls-17" d="m433.88,348.75c3.23,0,3.23-5,0-5s-3.23,5,0,5h0Z"/>
    <path class="cls-17" d="m403.8,378.75c3.23,0,3.23-5,0-5s-3.23,5,0,5h0Z"/>
    <path class="cls-17" d="m433.88,408.75c3.23,0,3.23-5,0-5s-3.23,5,0,5h0Z"/>
    <path class="cls-17" d="m433.88,377.38c1.45,0,1.45-2.25,0-2.25s-1.45,2.25,0,2.25h0Z"/>
  </g>
  <path class="cls-17" d="m250.91,416.51c2.1-.68,4.35-.62,5.15.12,1.3,1.2,1.17,2.8.53,3.78-.96,1.47-3.93,1.42-3.93,1.42,0,0,.29,3.22.2,3.68-.02.1-.5.53-.74.53-.26,0-.84-.18-.88-.48-.61-5.29-.67-8.32-.33-9.04Zm1.64,3.84c2.37.24,3.12-.65,2.92-2-.2-1.35-2.71-1-3.01-.85-.11,1.56-.08,1.77.09,2.85Z"/>
  <path class="cls-17" d="m438.34,424.54l-.97-.99-.02-.02c1.23-2.17.51-4.46-.12-5.62-.87-1.56-3.93-2.62-5.78-1.24-2.07,1.53-2.64,3.26-2.09,6.23.3,1.66,2.32,3.48,4.78,3.07.79-.14,1.51-.53,2.11-1.07l.84.86c.34.34.89.35,1.24,0,.35-.34.35-.9,0-1.24Zm-6.76-1.14c-.78-.77-1.05-3.12.06-4.56,1.24-1.59,3.21-.9,3.76-.41.64.58,1.52,2.26.81,3.93l-.1-.1h0s-1.02-1.04-1.02-1.04c-.34-.35-.9-.35-1.24,0-.18.16-.26.39-.26.62s.08.45.25.62l1.1,1.12.15.15c-1.14.75-2.65.55-3.51-.31Z"/>
  <path class="cls-17" d="m167.64,417.38c-.06.29-1.97,5.54-3.02,7.94-.32.73-.61.72-.74.72s-.42,0-.74-.72c-1.05-2.4-2.96-7.64-3.02-7.94-.23-1,.08-1.16.44-1.3.28-.13.86-.02,1.12.7.16.42,2.2,5.86,2.2,5.86,0,0,2.05-5.44,2.2-5.86.25-.72.83-.82,1.12-.7.36.15.67.3.44,1.3Z"/>
  <path class="cls-17" d="m347.8,421.56c-.11.73-.3,1.42-.58,2.11-.6,1.42-1.8,2.3-3.21,2.37h-.26c-1.41-.07-2.6-.95-3.21-2.37-.28-.67-.47-1.36-.57-2.11-.19-1.31-.24-2.6-.18-4.35.02-.47.13-.8.34-.99.14-.13.32-.19.52-.19.64.04.78.66.82,1.21,0,.18,0,.48,0,.86-.05,1.51-.14,4.35.93,5.36.21.2.58.43.94.56.35.14.73.14,1.08,0,.36-.14.74-.37.95-.56,1.06-1.01.98-3.81.93-5.33,0-.4-.02-.71,0-.89.03-.5.15-1.17.8-1.21.21,0,.39.06.52.19.22.19.33.52.34.99.08,1.8.03,3.06-.16,4.35Z"/>
  <path class="cls-19" d="m168.12,403.75c11.89,0,22.68-9.57,22.72-21.38l2.41,2.65s1.11-1.01.54-1.85c-.65-.95-3.93-4.08-3.93-4.08,0,0-3.32,2.66-4.21,3.8-.63.81.43,1.89.43,1.89l2.78-2.61c-.03,8.93-7.32,18.79-20.74,19.5-1.57.08-1.62,2.09,0,2.08Z"/>
  <path class="cls-19" d="m282.46,370.69c0-11.89-9.57-22.68-21.38-22.72l2.65-2.41s-1.01-1.11-1.85-.54c-.95.65-4.08,3.93-4.08,3.93,0,0,2.66,3.32,3.8,4.21.81.63,1.89-.43,1.89-.43l-2.61-2.78c8.93.03,18.79,7.32,19.5,20.74.08,1.57,2.09,1.62,2.08,0Z"/>
  <path class="cls-19" d="m338.09,347.26c-11.89,0-22.68,9.57-22.72,21.38l-2.41-2.65s-1.11,1.01-.54,1.85c.65.95,3.93,4.08,3.93,4.08,0,0,3.32-2.66,4.21-3.8.63-.81-.43-1.89-.43-1.89l-2.78,2.61c.03-8.93,7.32-18.79,20.74-19.5,1.57-.08,1.62-2.09,0-2.08Z"/>
  <path class="cls-27" d="m264.1,342.51c11.89,0,22.68,9.57,22.72,21.38l2.41-2.65s1.11,1.01.54,1.85c-.65.95-3.93,4.08-3.93,4.08,0,0-3.32-2.66-4.21-3.8-.63-.81.43-1.89.43-1.89l2.78,2.61c-.03-8.93-7.32-18.79-20.74-19.5-1.57-.08-1.62-2.09,0-2.08Z"/>
  <path class="cls-27" d="m192.2,371.52c-19.4,0-21.27-1.3-21.27-20.15l-2.66,2.72s-1.1-1.04-.5-1.87c.85-1.18,4.08-3.95,4.08-3.95,0,0,3.38,3.01,4.07,3.95.6.82-.48,1.87-.48,1.87l-2.56-2.72c0,17.27,1,18.08,19.29,18.08,1.51,0,1.51,2.07.03,2.07Z"/>
  <path class="cls-27" d="m372.6,369.99c-19.4,0-21.27-1.3-21.27-20.15l-2.66,2.72s-1.1-1.04-.5-1.87c.85-1.18,4.08-3.95,4.08-3.95,0,0,3.38,3.01,4.07,3.95.6.82-.48,1.87-.48,1.87l-2.56-2.72c0,17.27,1,18.08,19.29,18.08,1.51,0,1.51,2.07.03,2.07Z"/>
  <path class="cls-27" d="m429.34,347.85c0,19.4-1.3,21.27-20.15,21.27l2.72,2.66s-1.04,1.1-1.87.5c-1.18-.85-3.95-4.08-3.95-4.08,0,0,3.01-3.38,3.95-4.07.82-.6,1.87.48,1.87.48l-2.72,2.56c17.27,0,18.08-1,18.08-19.29,0-1.51,2.07-1.51,2.07-.03Z"/>
  <path class="cls-19" d="m403,362.84c19.4,0,21.27-1.3,21.27-20.15l2.66,2.72s1.1-1.04.5-1.87c-.85-1.18-4.08-3.95-4.08-3.95,0,0-3.38,3.01-4.07,3.95-.6.82.48,1.87.48,1.87l2.56-2.72c0,17.27-1,18.08-19.29,18.08-1.51,0-1.51,2.07-.03,2.07Z"/>
  <path class="cls-27" d="m166.76,349.7h-5.76c-.48,0-.87.4-.87.89,0,.49.39.89.87.89h1.92v21.85c0,.48.38.87.85.87h.32c.46,0,.85-.39.85-.87v-21.85h1.82c.48,0,.87-.4.87-.89s-.39-.89-.87-.89Z"/>
  <path class="cls-19" d="m165.93,373.37v5.76c0,.48.4.87.89.87.49,0,.89-.39.89-.87v-1.92h21.85c.48,0,.87-.38.87-.85v-.32c0-.46-.39-.85-.87-.85h-21.85v-1.82c0-.48-.4-.87-.89-.87s-.89.39-.89.87Z"/>
  <path class="cls-27" d="m256.21,373.37v5.76c0,.48.4.87.89.87.49,0,.89-.39.89-.87v-1.92h21.85c.48,0,.87-.38.87-.85v-.32c0-.46-.39-.85-.87-.85h-21.85v-1.82c0-.48-.4-.87-.89-.87s-.89.39-.89.87Z"/>
  <path class="cls-19" d="m251,373.92h5.76c.48,0,.87-.4.87-.89,0-.49-.39-.89-.87-.89h-1.92v-21.85c0-.48-.38-.87-.85-.87h-.32c-.46,0-.85.39-.85.87v21.85h-1.82c-.48,0-.87.4-.87.89,0,.49.39.89.87.89Z"/>
  <path class="cls-27" d="m346.76,349.42h-5.76c-.48,0-.87.4-.87.89,0,.49.39.89.87.89h1.92v21.85c0,.48.38.87.85.87h.32c.46,0,.85-.39.85-.87v-21.85h1.82c.48,0,.87-.4.87-.89,0-.49-.39-.89-.87-.89Z"/>
  <path class="cls-19" d="m341.54,379.14v-5.76c0-.48-.4-.87-.89-.87-.49,0-.89.39-.89.87v1.92h-21.85c-.48,0-.87.38-.87.85v.32c0,.46.39.85.87.85h21.85v1.82c0,.48.4.87.89.87s.89-.39.89-.87Z"/>
  <path class="cls-27" d="m431.54,373.37v5.76c0,.48-.4.87-.89.87s-.89-.39-.89-.87v-1.92h-21.85c-.48,0-.87-.38-.87-.85v-.32c0-.46.39-.85.87-.85h21.85v-1.82c0-.48.4-.87.89-.87s.89.39.89.87Z"/>
  <path class="cls-19" d="m436.76,373.92h-5.76c-.48,0-.87-.4-.87-.89,0-.49.39-.89.87-.89h1.92v-21.85c0-.48.38-.87.85-.87h.32c.46,0,.85.39.85.87v21.85h1.82c.48,0,.87.4.87.89,0,.49-.39.89-.87.89Z"/>
  <g>
    <path class="cls-17" d="m133.8,473.75c-3.23,0-3.23,5,0,5s3.23-5,0-5h0Z"/>
    <path class="cls-17" d="m163.88,503.75c-3.23,0-3.23,5,0,5s3.23-5,0-5h0Z"/>
    <path class="cls-17" d="m193.96,473.75c-3.23,0-3.23,5,0,5s3.23-5,0-5h0Z"/>
    <path class="cls-17" d="m163.88,443.75c-3.23,0-3.23,5,0,5s3.23-5,0-5h0Z"/>
    <path class="cls-17" d="m163.88,477.38c1.45,0,1.45-2.25,0-2.25s-1.45,2.25,0,2.25h0Z"/>
  </g>
  <g>
    <path class="cls-17" d="m223.8,473.75c-3.23,0-3.23,5,0,5s3.23-5,0-5h0Z"/>
    <path class="cls-17" d="m253.88,503.75c-3.23,0-3.23,5,0,5s3.23-5,0-5h0Z"/>
    <path class="cls-17" d="m283.96,473.75c-3.23,0-3.23,5,0,5s3.23-5,0-5h0Z"/>
    <path class="cls-17" d="m253.88,443.75c-3.23,0-3.23,5,0,5s3.23-5,0-5h0Z"/>
    <path class="cls-17" d="m253.88,477.38c1.45,0,1.45-2.25,0-2.25s-1.45,2.25,0,2.25h0Z"/>
  </g>
  <g>
    <path class="cls-17" d="m313.8,473.75c-3.23,0-3.23,5,0,5s3.23-5,0-5h0Z"/>
    <path class="cls-17" d="m343.88,503.75c-3.23,0-3.23,5,0,5s3.23-5,0-5h0Z"/>
    <path class="cls-17" d="m373.96,473.75c-3.23,0-3.23,5,0,5s3.23-5,0-5h0Z"/>
    <path class="cls-17" d="m343.88,443.75c-3.23,0-3.23,5,0,5s3.23-5,0-5h0Z"/>
    <path class="cls-17" d="m343.88,477.38c1.45,0,1.45-2.25,0-2.25s-1.45,2.25,0,2.25h0Z"/>
  </g>
  <g>
    <path class="cls-17" d="m403.8,473.75c-3.23,0-3.23,5,0,5s3.23-5,0-5h0Z"/>
    <path class="cls-17" d="m433.88,503.75c-3.23,0-3.23,5,0,5,3.23,0,3.23-5,0-5h0Z"/>
    <path class="cls-17" d="m463.96,473.75c-3.23,0-3.23,5,0,5s3.23-5,0-5h0Z"/>
    <path class="cls-17" d="m433.88,443.75c-3.23,0-3.23,5,0,5s3.23-5,0-5h0Z"/>
    <path class="cls-17" d="m433.88,477.38c1.45,0,1.45-2.25,0-2.25s-1.45,2.25,0,2.25h0Z"/>
  </g>
  <path class="cls-17" d="m250.91,516.51c2.1-.68,4.35-.62,5.15.12,1.3,1.2,1.17,2.8.53,3.78-.96,1.47-3.93,1.42-3.93,1.42,0,0,.29,3.22.2,3.68-.02.1-.5.53-.74.53-.26,0-.84-.18-.88-.48-.61-5.29-.67-8.32-.33-9.04Zm1.64,3.84c2.37.24,3.12-.65,2.92-2-.2-1.35-2.71-1-3.01-.85-.11,1.56-.08,1.77.09,2.85Z"/>
  <path class="cls-17" d="m438.34,524.54l-.97-.99-.02-.02c1.23-2.17.51-4.46-.12-5.62-.87-1.56-3.93-2.62-5.78-1.24-2.07,1.53-2.64,3.26-2.09,6.23.3,1.66,2.32,3.48,4.78,3.07.79-.14,1.51-.53,2.11-1.07l.84.86c.34.34.89.35,1.24,0,.35-.34.35-.9,0-1.24Zm-6.76-1.14c-.78-.77-1.05-3.12.06-4.56,1.24-1.59,3.21-.9,3.76-.41.64.58,1.52,2.26.81,3.93l-.1-.1h0s-1.02-1.04-1.02-1.04c-.34-.35-.9-.35-1.24,0-.18.16-.26.39-.26.62s.08.45.25.62l1.1,1.12.15.15c-1.14.75-2.65.55-3.51-.31Z"/>
  <path class="cls-17" d="m167.64,517.38c-.06.29-1.97,5.54-3.02,7.94-.32.73-.61.72-.74.72s-.42,0-.74-.72c-1.05-2.4-2.96-7.64-3.02-7.94-.23-1,.08-1.16.44-1.3.28-.13.86-.02,1.12.7.16.42,2.2,5.86,2.2,5.86,0,0,2.05-5.44,2.2-5.86.25-.72.83-.82,1.12-.7.36.15.67.3.44,1.3Z"/>
  <path class="cls-17" d="m347.8,521.56c-.11.73-.3,1.42-.58,2.11-.6,1.42-1.8,2.3-3.21,2.37h-.26c-1.41-.07-2.6-.95-3.21-2.37-.28-.67-.47-1.36-.57-2.11-.19-1.31-.24-2.6-.18-4.35.02-.47.13-.8.34-.99.14-.13.32-.19.52-.19.64.04.78.66.82,1.21,0,.18,0,.48,0,.86-.05,1.51-.14,4.35.93,5.36.21.2.58.43.94.56.35.14.73.14,1.08,0,.36-.14.74-.37.95-.56,1.06-1.01.98-3.81.93-5.33,0-.4-.02-.71,0-.89.03-.5.15-1.17.8-1.21.21,0,.39.06.52.19.22.19.33.52.34.99.08,1.8.03,3.06-.16,4.35Z"/>
  <path class="cls-19" d="m159.63,448.75c-11.89,0-22.68,9.57-22.72,21.38l-2.41-2.65s-1.11,1.01-.54,1.85c.65.95,3.93,4.08,3.93,4.08,0,0,3.32-2.66,4.21-3.8.63-.81-.43-1.89-.43-1.89l-2.78,2.61c.03-8.93,7.32-18.79,20.74-19.5,1.57-.08,1.62-2.09,0-2.08Z"/>
  <path class="cls-19" d="m225.3,481.82c0,11.89,9.57,22.68,21.38,22.72l-2.65,2.41s1.01,1.11,1.85.54c.95-.65,4.08-3.93,4.08-3.93,0,0-2.66-3.32-3.8-4.21-.81-.63-1.89.43-1.89.43l2.61,2.78c-8.93-.03-18.79-7.32-19.5-20.74-.08-1.57-2.09-1.62-2.08,0Z"/>
  <path class="cls-19" d="m349.67,505.25c11.89,0,22.68-9.57,22.72-21.38l2.41,2.65s1.11-1.01.54-1.85c-.65-.95-3.93-4.08-3.93-4.08,0,0-3.32,2.66-4.21,3.8-.63.81.43,1.89.43,1.89l2.78-2.61c-.03,8.93-7.32,18.79-20.74,19.5-1.57.08-1.62,2.09,0,2.08Z"/>
  <path class="cls-27" d="m243.66,510c-11.89,0-22.68-9.57-22.72-21.38l-2.41,2.65s-1.11-1.01-.54-1.85c.65-.95,3.93-4.08,3.93-4.08,0,0,3.32,2.66,4.21,3.8.63.81-.43,1.89-.43,1.89l-2.78-2.61c.03,8.93,7.32,18.79,20.74,19.5,1.57.08,1.62,2.09,0,2.08Z"/>
  <path class="cls-27" d="m135.56,480.99c19.4,0,21.27,1.3,21.27,20.15l2.66-2.72s1.1,1.04.5,1.87c-.85,1.18-4.08,3.95-4.08,3.95,0,0-3.38-3.01-4.07-3.95-.6-.82.48-1.87.48-1.87l2.56,2.72c0-17.27-1-18.08-19.29-18.08-1.51,0-1.51-2.07-.03-2.07Z"/>
  <path class="cls-27" d="m315.15,482.52c19.4,0,21.27,1.3,21.27,20.15l2.66-2.72s1.1,1.04.5,1.87c-.85,1.18-4.08,3.95-4.08,3.95,0,0-3.38-3.01-4.07-3.95-.6-.82.48-1.87.48-1.87l2.56,2.72c0-17.27-1-18.08-19.29-18.08-1.51,0-1.51-2.07-.03-2.07Z"/>
  <path class="cls-27" d="m438.42,504.66c0-19.4,1.3-21.27,20.15-21.27l-2.72-2.66s1.04-1.1,1.87-.5c1.18.85,3.95,4.08,3.95,4.08,0,0-3.01,3.38-3.95,4.07-.82.6-1.87-.48-1.87-.48l2.72-2.56c-17.27,0-18.08,1-18.08,19.29,0,1.51-2.07,1.51-2.07.03Z"/>
  <path class="cls-19" d="m464.76,489.67c-19.4,0-21.27,1.3-21.27,20.15l-2.66-2.72s-1.1,1.04-.5,1.87c.85,1.18,4.08,3.95,4.08,3.95,0,0,3.38-3.01,4.07-3.95.6-.82-.48-1.87-.48-1.87l-2.56,2.72c0-17.27,1-18.08,19.29-18.08,1.51,0,1.51-2.07.03-2.07Z"/>
  <path class="cls-27" d="m161,502.81h5.76c.48,0,.87-.4.87-.89,0-.49-.39-.89-.87-.89h-1.92v-21.85c0-.48-.38-.87-.85-.87h-.32c-.46,0-.85.39-.85.87v21.85h-1.82c-.48,0-.87.4-.87.89,0,.49.39.89.87.89Z"/>
  <path class="cls-19" d="m161.82,479.14v-5.76c0-.48-.4-.87-.89-.87s-.89.39-.89.87v1.92h-21.85c-.48,0-.87.38-.87.85v.32c0,.46.39.85.87.85h21.85v1.82c0,.48.4.87.89.87s.89-.39.89-.87Z"/>
  <path class="cls-27" d="m251.54,479.14v-5.76c0-.48-.4-.87-.89-.87s-.89.39-.89.87v1.92h-21.85c-.48,0-.87.38-.87.85v.32c0,.46.39.85.87.85h21.85v1.82c0,.48.4.87.89.87s.89-.39.89-.87Z"/>
  <path class="cls-19" d="m256.76,478.59h-5.76c-.48,0-.87.4-.87.89s.39.89.87.89h1.92v21.85c0,.48.38.87.85.87h.32c.46,0,.85-.39.85-.87v-21.85h1.82c.48,0,.87-.4.87-.89,0-.49-.39-.89-.87-.89Z"/>
  <path class="cls-27" d="m341,503.09h5.76c.48,0,.87-.4.87-.89s-.39-.89-.87-.89h-1.92v-21.85c0-.48-.38-.87-.85-.87h-.32c-.46,0-.85.39-.85.87v21.85h-1.82c-.48,0-.87.4-.87.89,0,.49.39.89.87.89Z"/>
  <path class="cls-19" d="m346.21,473.37v5.76c0,.48.4.87.89.87s.89-.39.89-.87v-1.92h21.85c.48,0,.87-.38.87-.85v-.32c0-.46-.39-.85-.87-.85h-21.85v-1.82c0-.48-.4-.87-.89-.87s-.89.39-.89.87Z"/>
  <path class="cls-27" d="m436.21,479.14v-5.76c0-.48.4-.87.89-.87s.89.39.89.87v1.92h21.85c.48,0,.87.38.87.85v.32c0,.46-.39.85-.87.85h-21.85s0,1.82,0,1.82c0,.48-.4.87-.89.87s-.89-.39-.89-.87Z"/>
  <path class="cls-19" d="m431,478.59h5.76c.48,0,.87.4.87.89,0,.49-.39.89-.87.89h-1.92v21.85c0,.48-.38.87-.85.87h-.32c-.46,0-.85-.39-.85-.87v-21.85h-1.82c-.48,0-.87-.4-.87-.89,0-.49.39-.89.87-.89Z"/>
  <g>
    <path class="cls-17" d="m163.88,577.38c1.45,0,1.45-2.25,0-2.25s-1.45,2.25,0,2.25h0Z"/>
    <path class="cls-17" d="m166.38,546.18c0-3.23-5-3.23-5,0s5,3.23,5,0h0Z"/>
    <path class="cls-17" d="m136.38,576.25c0-3.23-5-3.23-5,0,0,3.23,5,3.23,5,0h0Z"/>
    <path class="cls-17" d="m166.38,606.33c0-3.23-5-3.23-5,0,0,3.23,5,3.23,5,0h0Z"/>
    <path class="cls-17" d="m196.38,576.25c0-3.23-5-3.23-5,0s5,3.23,5,0h0Z"/>
  </g>
  <g>
    <path class="cls-17" d="m223.8,578.75c-3.23,0-3.23-5,0-5,3.23,0,3.23,5,0,5h0Z"/>
    <path class="cls-17" d="m253.88,548.75c-3.23,0-3.23-5,0-5,3.23,0,3.23,5,0,5h0Z"/>
    <path class="cls-17" d="m283.96,578.75c-3.23,0-3.23-5,0-5,3.23,0,3.23,5,0,5h0Z"/>
    <path class="cls-17" d="m253.88,608.75c-3.23,0-3.23-5,0-5,3.23,0,3.23,5,0,5h0Z"/>
    <path class="cls-17" d="m253.88,577.38c1.45,0,1.45-2.25,0-2.25s-1.45,2.25,0,2.25h0Z"/>
  </g>
  <g>
    <path class="cls-17" d="m341.38,606.33c0,3.23,5,3.23,5,0s-5-3.23-5,0h0Z"/>
    <path class="cls-17" d="m371.38,576.25c0,3.23,5,3.23,5,0s-5-3.23-5,0h0Z"/>
    <path class="cls-17" d="m341.38,546.18c0,3.23,5,3.23,5,0s-5-3.23-5,0h0Z"/>
    <path class="cls-17" d="m311.38,576.25c0,3.23,5,3.23,5,0s-5-3.23-5,0h0Z"/>
    <path class="cls-17" d="m343.88,577.38c1.45,0,1.45-2.25,0-2.25s-1.45,2.25,0,2.25h0Z"/>
  </g>
  <g>
    <path class="cls-17" d="m463.96,578.75c3.23,0,3.23-5,0-5s-3.23,5,0,5h0Z"/>
    <path class="cls-17" d="m433.88,548.75c3.23,0,3.23-5,0-5s-3.23,5,0,5h0Z"/>
    <path class="cls-17" d="m403.8,578.75c3.23,0,3.23-5,0-5s-3.23,5,0,5h0Z"/>
    <path class="cls-17" d="m433.88,608.75c3.23,0,3.23-5,0-5s-3.23,5,0,5h0Z"/>
    <path class="cls-17" d="m433.88,577.38c1.45,0,1.45-2.25,0-2.25s-1.45,2.25,0,2.25h0Z"/>
  </g>
  <path class="cls-17" d="m169.03,624.48c-.46.06-.96-.28-1.19-1.14-.42-1.54-.92-3.7-1.44-5.63-1.11,2.72-1.86,4.39-2.5,4.38-.01,0-.02,0-.03-.01-.01.01-.02.01-.03.01-.64.01-1.39-1.65-2.5-4.38-.51,1.93-1.02,4.09-1.44,5.63-.24.86-.73,1.2-1.19,1.14-.59-.07-.98-.49-.74-1.25.25-.81,1.84-6.07,2.3-7.72.47-1.65,1.59-.9,1.8-.49.21.41,1.36,3.67,1.8,4.59.44-.92,1.59-4.18,1.8-4.59.21-.41,1.33-1.16,1.8.49.46,1.64,2.05,6.9,2.3,7.72.24.76-.15,1.18-.74,1.25Z"/>
  <path class="cls-17" d="m348.39,615.81c-.2.78-1.37,6.55-1.58,7.33-.21.78-.44,1.33-.9,1.35s-.64-.27-1.17-1.25c-.53-.98-1.66-3.47-2.44-5.56-.53,1.89-.73,3.97-1.16,5.48-.25.85-.58,1.36-1.02,1.29-.1-.02-1.05-.26-.75-1.36.22-.81,1.48-6,1.96-7.62.48-1.62,1.54-.85,1.73-.44.19.41,2.31,5.6,2.67,6.53.19-.85.69-4.5,1.08-6.27.13-.6.81-.88,1.1-.76s.68.5.48,1.29Z"/>
  <path class="cls-17" d="m257.64,615.84c-.06.29-1.97,5.54-3.02,7.94-.32.73-.61.72-.74.72s-.42,0-.74-.72c-1.05-2.4-2.96-7.64-3.02-7.94-.23-1,.08-1.16.44-1.3.28-.13.86-.02,1.12.7.16.42,2.2,5.86,2.2,5.86,0,0,2.05-5.44,2.2-5.86.25-.72.83-.82,1.12-.7.36.15.67.3.44,1.3Z"/>
  <path class="cls-17" d="m437.8,620.01c-.11.73-.3,1.42-.58,2.11-.6,1.42-1.8,2.3-3.21,2.37h-.26c-1.41-.07-2.6-.95-3.21-2.37-.28-.67-.47-1.36-.57-2.11-.19-1.31-.24-2.6-.18-4.35.02-.47.13-.8.34-.99.14-.13.32-.19.52-.19.64.04.78.66.82,1.21,0,.18,0,.48,0,.86-.05,1.51-.14,4.35.93,5.36.21.2.58.43.94.56.35.14.73.14,1.08,0,.36-.14.74-.37.95-.56,1.06-1.01.98-3.81.93-5.33,0-.4-.02-.71,0-.89.03-.5.15-1.17.8-1.21.21,0,.39.06.52.19.22.19.33.52.34.99.08,1.8.03,3.06-.16,4.35Z"/>
  <path class="cls-19" d="m158.57,604.49c-11.89,0-22.68-9.57-22.72-21.38l-2.41,2.65s-1.11-1.01-.54-1.85c.65-.95,3.93-4.08,3.93-4.08,0,0,3.32,2.66,4.21,3.8.63.81-.43,1.89-.43,1.89l-2.78-2.61c.03,8.93,7.32,18.79,20.74,19.5,1.57.08,1.62,2.09,0,2.08Z"/>
  <path class="cls-27" d="m259.05,548.17c0,19.4,1.3,21.27,20.15,21.27l-2.72,2.66s1.04,1.1,1.87.5c1.18-.85,3.95-4.08,3.95-4.08,0,0-3.01-3.38-3.95-4.07-.82-.6-1.87.48-1.87.48l2.72,2.56c-17.27,0-18.08-1-18.08-19.29,0-1.51-2.07-1.51-2.07-.03Z"/>
  <path class="cls-19" d="m161.58,579.14v-5.76c0-.48-.4-.87-.89-.87s-.89.39-.89.87v1.92h-21.85c-.48,0-.87.38-.87.85v.32c0,.46.39.85.87.85h21.85v1.82c0,.48.4.87.89.87s.89-.39.89-.87Z"/>
  <path class="cls-27" d="m192.25,570.81c0-11.89-9.57-22.68-21.38-22.72l2.65-2.41s-1.01-1.11-1.85-.54c-.95.65-4.08,3.93-4.08,3.93,0,0,2.66,3.32,3.8,4.21.81.63,1.89-.43,1.89-.43l-2.61-2.78c8.93.03,18.79,7.32,19.5,20.74.08,1.57,2.09,1.62,2.08,0Z"/>
  <path class="cls-19" d="m226.22,572.76c0-11.89,9.57-22.68,21.38-22.72l-2.65-2.41s1.01-1.11,1.85-.54c.95.65,4.08,3.93,4.08,3.93,0,0-2.66,3.32-3.8,4.21-.81.63-1.89-.43-1.89-.43l2.61-2.78c-8.93.03-18.79,7.32-19.5,20.74-.08,1.57-2.09,1.62-2.08,0Z"/>
  <path class="cls-19" d="m404.24,570.81c0-11.89,9.57-22.68,21.38-22.72l-2.65-2.41s1.01-1.11,1.85-.54c.95.65,4.08,3.93,4.08,3.93,0,0-2.66,3.32-3.8,4.21-.81.63-1.89-.43-1.89-.43l2.61-2.78c-8.93.03-18.79,7.32-19.5,20.74-.08,1.57-2.09,1.62-2.08,0Z"/>
  <path class="cls-27" d="m166.76,573.95h-5.76c-.48,0-.87-.4-.87-.89,0-.49.39-.89.87-.89h1.92v-21.85c0-.48.38-.87.85-.87h.32c.46,0,.85.39.85.87v21.85h1.82c.48,0,.87.4.87.89s-.39.89-.87.89Z"/>
  <path class="cls-27" d="m256.18,579.14v-5.76c0-.48.4-.87.89-.87s.89.39.89.87v1.92h21.85c.48,0,.87.38.87.85v.32c0,.46-.39.85-.87.85h-21.85v1.82c0,.48-.4.87-.89.87s-.89-.39-.89-.87Z"/>
  <path class="cls-19" d="m338.71,548.17c0,19.4-1.3,21.27-20.15,21.27l2.72,2.66s-1.04,1.1-1.87.5c-1.18-.85-3.95-4.08-3.95-4.08,0,0,3.01-3.38,3.95-4.07.82-.6,1.87.48,1.87.48l-2.72,2.56c17.27,0,18.08-1,18.08-19.29,0-1.51,2.07-1.51,2.07-.03Z"/>
  <path class="cls-19" d="m317.08,573.37v5.76c0,.48.4.87.89.87s.89-.39.89-.87v-1.92h21.85c.48,0,.87-.38.87-.85v-.32c0-.46-.39-.85-.87-.85h-21.85v-1.82c0-.48-.4-.87-.89-.87s-.89.39-.89.87Z"/>
  <path class="cls-27" d="m371.96,580.51c-19.4,0-21.27,1.3-21.27,20.15l-2.66-2.72s-1.1,1.04-.5,1.87c.85,1.18,4.08,3.95,4.08,3.95,0,0,3.38-3.01,4.07-3.95.6-.82-.48-1.87-.48-1.87l-2.56,2.72c0-17.27,1-18.08,19.29-18.08,1.51,0,1.51-2.07.03-2.07Z"/>
  <path class="cls-27" d="m430.13,603.88c0-19.4-1.3-21.27-20.15-21.27l2.72-2.66s-1.04-1.1-1.87-.5c-1.18.85-3.95,4.08-3.95,4.08,0,0,3.01,3.38,3.95,4.07.82.6,1.87-.48,1.87-.48l-2.72-2.56c17.27,0,18.08,1,18.08,19.29,0,1.51,2.07,1.51,2.07.03Z"/>
  <path class="cls-27" d="m346.76,603.06h-5.76c-.48,0-.87-.4-.87-.89s.39-.89.87-.89h1.92v-21.85c0-.48.38-.87.85-.87h.32c.46,0,.85.39.85.87v21.85h1.82c.48,0,.87.4.87.89s-.39.89-.87.89Z"/>
  <path class="cls-19" d="m436.76,549.45h-5.76c-.48,0-.87.4-.87.89,0,.49.39.89.87.89h1.92v21.85c0,.48.38.87.85.87h.32c.46,0,.85-.39.85-.87v-21.85h1.82c.48,0,.87-.4.87-.89s-.39-.89-.87-.89Z"/>
  <path class="cls-27" d="m431.58,573.37v5.76c0,.48-.4.87-.89.87s-.89-.39-.89-.87v-1.92h-21.85c-.48,0-.87-.38-.87-.85v-.32c0-.46.39-.85.87-.85h21.85v-1.82c0-.48.4-.87.89-.87s.89.39.89.87Z"/>
  <path class="cls-19" d="m251,573.95h5.76c.48,0,.87-.4.87-.89,0-.49-.39-.89-.87-.89h-1.92v-21.85c0-.48-.38-.87-.85-.87h-.32c-.46,0-.85.39-.85.87v21.85h-1.82c-.48,0-.87.4-.87.89,0,.49.39.89.87.89Z"/>
  <g>
    <path class="cls-17" d="m161.38,706.33c0,3.23,5,3.23,5,0,0-3.23-5-3.23-5,0h0Z"/>
    <path class="cls-17" d="m191.38,676.25c0,3.23,5,3.23,5,0,0-3.23-5-3.23-5,0h0Z"/>
    <path class="cls-17" d="m161.38,646.18c0,3.23,5,3.23,5,0,0-3.23-5-3.23-5,0h0Z"/>
    <path class="cls-17" d="m131.38,676.25c0,3.23,5,3.23,5,0,0-3.23-5-3.23-5,0h0Z"/>
    <path class="cls-17" d="m163.88,677.38c1.45,0,1.45-2.25,0-2.25s-1.45,2.25,0,2.25h0Z"/>
  </g>
  <g>
    <path class="cls-17" d="m283.96,673.75c3.23,0,3.23,5,0,5-3.23,0-3.23-5,0-5h0Z"/>
    <path class="cls-17" d="m253.88,703.75c3.23,0,3.23,5,0,5-3.23,0-3.23-5,0-5h0Z"/>
    <path class="cls-17" d="m223.8,673.75c3.23,0,3.23,5,0,5-3.23,0-3.23-5,0-5h0Z"/>
    <path class="cls-17" d="m253.88,643.75c3.23,0,3.23,5,0,5-3.23,0-3.23-5,0-5h0Z"/>
    <path class="cls-17" d="m253.88,677.38c1.45,0,1.45-2.25,0-2.25s-1.45,2.25,0,2.25h0Z"/>
  </g>
  <g>
    <path class="cls-17" d="m346.38,646.18c0-3.23-5-3.23-5,0,0,3.23,5,3.23,5,0h0Z"/>
    <path class="cls-17" d="m316.38,676.25c0-3.23-5-3.23-5,0s5,3.23,5,0h0Z"/>
    <path class="cls-17" d="m346.38,706.33c0-3.23-5-3.23-5,0,0,3.23,5,3.23,5,0h0Z"/>
    <path class="cls-17" d="m376.38,676.25c0-3.23-5-3.23-5,0,0,3.23,5,3.23,5,0h0Z"/>
    <path class="cls-17" d="m343.88,677.38c1.45,0,1.45-2.25,0-2.25s-1.45,2.25,0,2.25h0Z"/>
  </g>
  <g>
    <path class="cls-17" d="m403.8,673.75c-3.23,0-3.23,5,0,5s3.23-5,0-5h0Z"/>
    <path class="cls-17" d="m433.88,703.75c-3.23,0-3.23,5,0,5s3.23-5,0-5h0Z"/>
    <path class="cls-17" d="m463.96,673.75c-3.23,0-3.23,5,0,5s3.23-5,0-5h0Z"/>
    <path class="cls-17" d="m433.88,643.75c-3.23,0-3.23,5,0,5s3.23-5,0-5h0Z"/>
    <path class="cls-17" d="m433.88,677.38c1.45,0,1.45-2.25,0-2.25s-1.45,2.25,0,2.25h0Z"/>
  </g>
  <path class="cls-17" d="m169.03,724.48c-.46.06-.96-.28-1.19-1.14-.42-1.54-.92-3.7-1.44-5.63-1.11,2.72-1.86,4.39-2.5,4.38-.01,0-.02,0-.03-.01-.01.01-.02.01-.03.01-.64.01-1.39-1.65-2.5-4.38-.51,1.93-1.02,4.09-1.44,5.63-.24.86-.73,1.2-1.19,1.14-.59-.07-.98-.49-.74-1.25.25-.81,1.84-6.07,2.3-7.72.47-1.65,1.59-.9,1.8-.49.21.41,1.36,3.67,1.8,4.59.44-.92,1.59-4.18,1.8-4.59.21-.41,1.33-1.16,1.8.49.46,1.64,2.05,6.9,2.3,7.72.24.76-.15,1.18-.74,1.25Z"/>
  <path class="cls-17" d="m348.39,715.81c-.2.78-1.37,6.55-1.58,7.33-.21.78-.44,1.33-.9,1.35s-.64-.27-1.17-1.25c-.53-.98-1.66-3.47-2.44-5.56-.53,1.89-.73,3.97-1.16,5.48-.25.85-.58,1.36-1.02,1.29-.1-.02-1.05-.26-.75-1.36.22-.81,1.48-6,1.96-7.62.48-1.62,1.54-.85,1.73-.44.19.41,2.31,5.6,2.67,6.53.19-.85.69-4.5,1.08-6.27.13-.6.81-.88,1.1-.76s.68.5.48,1.29Z"/>
  <path class="cls-17" d="m257.64,715.84c-.06.29-1.97,5.54-3.02,7.94-.32.73-.61.72-.74.72s-.42,0-.74-.72c-1.05-2.4-2.96-7.64-3.02-7.94-.23-1,.08-1.16.44-1.3.28-.13.86-.02,1.12.7.16.42,2.2,5.86,2.2,5.86,0,0,2.05-5.44,2.2-5.86.25-.72.83-.82,1.12-.7.36.15.67.3.44,1.3Z"/>
  <path class="cls-17" d="m437.8,720.01c-.11.73-.3,1.42-.58,2.11-.6,1.42-1.8,2.3-3.21,2.37h-.26c-1.41-.07-2.6-.95-3.21-2.37-.28-.67-.47-1.36-.57-2.11-.19-1.31-.24-2.6-.18-4.35.02-.47.13-.8.34-.99.14-.13.32-.19.52-.19.64.04.78.66.82,1.21,0,.18,0,.48,0,.86-.05,1.51-.14,4.35.93,5.36.21.2.58.43.94.56.35.14.73.14,1.08,0,.36-.14.74-.37.95-.56,1.06-1.01.98-3.81.93-5.33,0-.4-.02-.71,0-.89.03-.5.15-1.17.8-1.21.21,0,.39.06.52.19.22.19.33.52.34.99.08,1.8.03,3.06-.16,4.35Z"/>
  <path class="cls-19" d="m169.19,648.02c11.89,0,22.68,9.57,22.72,21.38l2.41-2.65s1.11,1.01.54,1.85c-.65.95-3.93,4.08-3.93,4.08,0,0-3.32-2.66-4.21-3.8-.63-.81.43-1.89.43-1.89l2.78,2.61c-.03-8.93-7.32-18.79-20.74-19.5-1.57-.08-1.62-2.09,0-2.08Z"/>
  <path class="cls-27" d="m248.71,704.34c0-19.4-1.3-21.27-20.15-21.27l2.72-2.66s-1.04-1.1-1.87-.5c-1.18.85-3.95,4.08-3.95,4.08,0,0,3.01,3.38,3.95,4.07.82.6,1.87-.48,1.87-.48l-2.72-2.56c17.27,0,18.08,1,18.08,19.29,0,1.51,2.07,1.51,2.07.03Z"/>
  <path class="cls-19" d="m190.68,679.14v-5.76c0-.48-.4-.87-.89-.87s-.89.39-.89.87v1.92h-21.85c-.48,0-.87.38-.87.85v.32c0,.46.39.85.87.85h21.85v1.82c0,.48.4.87.89.87s.89-.39.89-.87Z"/>
  <path class="cls-27" d="m135.51,681.7c0,11.89,9.57,22.68,21.38,22.72l-2.65,2.41s1.01,1.11,1.85.54c.95-.65,4.08-3.93,4.08-3.93,0,0-2.66-3.32-3.8-4.21-.81-.63-1.89.43-1.89.43l2.61,2.78c-8.93-.03-18.79-7.32-19.5-20.74-.08-1.57-2.09-1.62-2.08,0Z"/>
  <path class="cls-19" d="m283.4,681.7c0,11.89-9.57,22.68-21.38,22.72l2.65,2.41s-1.01,1.11-1.85.54c-.95-.65-4.08-3.93-4.08-3.93,0,0,2.66-3.32,3.8-4.21.81-.63,1.89.43,1.89.43l-2.61,2.78c8.93-.03,18.79-7.32,19.5-20.74.08-1.57,2.09-1.62,2.08,0Z"/>
  <path class="cls-19" d="m463.51,681.7c0,11.89-9.57,22.68-21.38,22.72l2.65,2.41s-1.01,1.11-1.85.54c-.95-.65-4.08-3.93-4.08-3.93,0,0,2.66-3.32,3.8-4.21.81-.63,1.89.43,1.89.43l-2.61,2.78c8.93-.03,18.79-7.32,19.5-20.74.08-1.57,2.09-1.62,2.08,0Z"/>
  <path class="cls-27" d="m161,678.56h5.76c.48,0,.87.4.87.89,0,.49-.39.89-.87.89h-1.92v21.85c0,.48-.38.87-.85.87h-.32c-.46,0-.85-.39-.85-.87v-21.85h-1.82c-.48,0-.87-.4-.87-.89s.39-.89.87-.89Z"/>
  <path class="cls-27" d="m251.58,673.37v5.76c0,.48-.4.87-.89.87s-.89-.39-.89-.87v-1.92h-21.85c-.48,0-.87-.38-.87-.85v-.32c0-.46.39-.85.87-.85h21.85v-1.82c0-.48.4-.87.89-.87s.89.39.89.87Z"/>
  <path class="cls-19" d="m349.05,704.34c0-19.4,1.3-21.27,20.15-21.27l-2.72-2.66s1.04-1.1,1.87-.5c1.18.85,3.95,4.08,3.95,4.08,0,0-3.01,3.38-3.95,4.07-.82.6-1.87-.48-1.87-.48l2.72-2.56c-17.27,0-18.08,1-18.08,19.29,0,1.51-2.07,1.51-2.07.03Z"/>
  <path class="cls-19" d="m346.18,673.37v5.76c0,.48.4.87.89.87s.89-.39.89-.87v-1.92h21.85c.48,0,.87-.38.87-.85v-.32c0-.46-.39-.85-.87-.85h-21.85v-1.82c0-.48-.4-.87-.89-.87s-.89.39-.89.87Z"/>
  <path class="cls-27" d="m315.8,672c19.4,0,21.27-1.3,21.27-20.15l2.66,2.72s1.1-1.04.5-1.87c-.85-1.18-4.08-3.95-4.08-3.95,0,0-3.38,3.01-4.07,3.95-.6.82.48,1.87.48,1.87l2.56-2.72c0,17.27-1,18.08-19.29,18.08-1.51,0-1.51,2.07-.03,2.07Z"/>
  <path class="cls-27" d="m437.63,648.62c0,19.4,1.3,21.27,20.15,21.27l-2.72,2.66s1.04,1.1,1.87.5c1.18-.85,3.95-4.08,3.95-4.08,0,0-3.01-3.38-3.95-4.07-.82-.6-1.87.48-1.87.48l2.72,2.56c-17.27,0-18.08-1-18.08-19.29,0-1.51-2.07-1.51-2.07-.03Z"/>
  <path class="cls-27" d="m341,649.45h5.76c.48,0,.87.4.87.89,0,.49-.39.89-.87.89h-1.92v21.85c0,.48-.38.87-.85.87h-.32c-.46,0-.85-.39-.85-.87v-21.85s-1.82,0-1.82,0c-.48,0-.87-.4-.87-.89s.39-.89.87-.89Z"/>
  <path class="cls-19" d="m436.76,678.56h-5.76c-.48,0-.87.4-.87.89,0,.49.39.89.87.89h1.92v21.85c0,.48.38.87.85.87h.32c.46,0,.85-.39.85-.87v-21.85h1.82c.48,0,.87-.4.87-.89,0-.49-.39-.89-.87-.89Z"/>
  <path class="cls-27" d="m436.18,679.14v-5.76c0-.48.4-.87.89-.87s.89.39.89.87v1.92h21.85c.48,0,.87.38.87.85v.32c0,.46-.39.85-.87.85h-21.85s0,1.82,0,1.82c0,.48-.4.87-.89.87s-.89-.39-.89-.87Z"/>
  <path class="cls-19" d="m251,703.06h5.76c.48,0,.87-.4.87-.89s-.39-.89-.87-.89h-1.92v-21.85c0-.48-.38-.87-.85-.87h-.32c-.46,0-.85.39-.85.87v21.85h-1.82c-.48,0-.87.4-.87.89,0,.49.39.89.87.89Z"/>
  <text class="cls-13" transform="translate(53.71 751.65)"><tspan class="cls-21"><tspan x="0" y="0">No</tspan><tspan class="cls-24" x="19.38" y="0">t</tspan><tspan x="24.66" y="0">e that the pic</tspan><tspan class="cls-24" x="112.95" y="0">t</tspan><tspan x="118.22" y="0">og</tspan><tspan class="cls-9" x="134.62" y="0">r</tspan><tspan x="140.96" y="0">aphs in each second </tspan><tspan class="cls-30" x="280.38" y="0">w</tspan><tspan x="292.56" y="0">o</tspan><tspan class="cls-7" x="301.05" y="0">r</tspan><tspan x="307.44" y="0">d </tspan><tspan class="cls-7" x="319.84" y="0">r</tspan><tspan x="326.22" y="0">epetition a</tspan><tspan class="cls-7" x="399.2" y="0">r</tspan><tspan x="405.59" y="0">e </tspan><tspan class="cls-7" x="416.91" y="0">r</tspan><tspan x="423.3" y="0">ota</tspan><tspan class="cls-24" x="445.02" y="0">t</tspan><tspan x="450.29" y="0">ed 180°.</tspan></tspan><tspan class="cls-21" x="14.92" y="19.2">Because of this, these </tspan><tspan class="cls-11" x="163.89" y="19.2">e</tspan><tspan class="cls-20" x="171.5" y="19.2">x</tspan><tspan class="cls-21" x="179.02" y="19.2">amples a</tspan><tspan class="cls-6" x="239.4" y="19.2">r</tspan><tspan class="cls-21" x="245.79" y="19.2">e classified as </tspan><tspan class="cls-2" x="342.22" y="19.2">R</tspan><tspan class="cls-3" x="351.39" y="19.2">o</tspan><tspan class="cls-4" x="359.5" y="19.2">t</tspan><tspan class="cls-3" x="364.92" y="19.2">a</tspan><tspan class="cls-4" x="373.33" y="19.2">t</tspan><tspan class="cls-3" x="378.75" y="19.2">ed </tspan><tspan class="cls-1" x="397.96" y="19.2">P</tspan><tspan class="cls-3" x="406.61" y="19.2">ermu</tspan><tspan class="cls-4" x="441.79" y="19.2">t</tspan><tspan class="cls-3" x="447.2" y="19.2">ations.</tspan></text>
  <g>
    <g>
      <text class="cls-5" transform="translate(131.51 150.05)"><tspan x="0" y="0">1</tspan></text>
      <text class="cls-5" transform="translate(221.41 150.05)"><tspan x="0" y="0">2</tspan></text>
      <text class="cls-5" transform="translate(311.51 150.05)"><tspan x="0" y="0">3</tspan></text>
      <text class="cls-5" transform="translate(401.41 150.05)"><tspan x="0" y="0">4</tspan></text>
    </g>
    <g>
      <text class="cls-5" transform="translate(131.51 250.05)"><tspan x="0" y="0">5</tspan></text>
      <text class="cls-5" transform="translate(221.41 250.05)"><tspan x="0" y="0">6</tspan></text>
      <text class="cls-5" transform="translate(311.51 250.05)"><tspan x="0" y="0">7</tspan></text>
      <text class="cls-5" transform="translate(401.41 250.05)"><tspan x="0" y="0">8</tspan></text>
    </g>
    <g>
      <text class="cls-5" transform="translate(131.51 350.05)"><tspan x="0" y="0">1</tspan></text>
      <text class="cls-5" transform="translate(221.41 350.05)"><tspan x="0" y="0">2</tspan></text>
      <text class="cls-5" transform="translate(311.51 350.05)"><tspan x="0" y="0">3</tspan></text>
      <text class="cls-5" transform="translate(401.41 350.05)"><tspan x="0" y="0">4</tspan></text>
    </g>
    <g>
      <text class="cls-5" transform="translate(131.51 450.05)"><tspan x="0" y="0">5</tspan></text>
      <text class="cls-5" transform="translate(221.41 450.05)"><tspan x="0" y="0">6</tspan></text>
      <text class="cls-5" transform="translate(311.51 450.05)"><tspan x="0" y="0">7</tspan></text>
      <text class="cls-5" transform="translate(401.41 450.05)"><tspan x="0" y="0">8</tspan></text>
    </g>
    <g>
      <text class="cls-5" transform="translate(131.51 550.05)"><tspan x="0" y="0">1</tspan></text>
      <text class="cls-5" transform="translate(221.41 550.05)"><tspan x="0" y="0">2</tspan></text>
      <text class="cls-5" transform="translate(311.51 550.05)"><tspan x="0" y="0">3</tspan></text>
      <text class="cls-5" transform="translate(401.41 550.05)"><tspan x="0" y="0">4</tspan></text>
    </g>
    <g>
      <text class="cls-5" transform="translate(131.51 650.05)"><tspan x="0" y="0">5</tspan></text>
      <text class="cls-5" transform="translate(221.41 650.05)"><tspan x="0" y="0">6</tspan></text>
      <text class="cls-5" transform="translate(311.51 650.05)"><tspan x="0" y="0">7</tspan></text>
      <text class="cls-5" transform="translate(401.41 650.05)"><tspan x="0" y="0">8</tspan></text>
    </g>
  </g>
  <text class="cls-15" transform="translate(58.64 165.16)"><tspan x="0" y="0">S</tspan><tspan class="cls-25" x="9.92" y="0">O</tspan><tspan x="22.71" y="0">TR</tspan></text>
  <text class="cls-15" transform="translate(58.64 365.15)"><tspan x="0" y="0">VPUQ</tspan></text>
  <text class="cls-15" transform="translate(58.64 565.15)"><tspan x="0" y="0">MVNU</tspan></text>
</svg>