<?xml version="1.0" encoding="UTF-8"?>
<svg id="Layer_1" data-name="Layer 1" xmlns="http://www.w3.org/2000/svg" viewBox="0 0 792 612">
  <defs>
    <style>
      .cls-1, .cls-2, .cls-3, .cls-4, .cls-5, .cls-6, .cls-7, .cls-8 {
        font-family: Cambria-Italic, Cambria;
        font-style: italic;
      }

      .cls-1, .cls-9, .cls-10, .cls-11 {
        letter-spacing: -.01em;
      }

      .cls-12 {
        letter-spacing: -.08em;
      }

      .cls-13, .cls-3, .cls-14 {
        letter-spacing: -.02em;
      }

      .cls-15, .cls-16, .cls-17, .cls-18, .cls-19, .cls-10, .cls-20 {
        font-size: 16px;
      }

      .cls-2, .cls-17, .cls-21 {
        letter-spacing: -.02em;
      }

      .cls-16, .cls-22, .cls-23 {
        letter-spacing: 0em;
      }

      .cls-22, .cls-14, .cls-24, .cls-25, .cls-9, .cls-26 {
        font-family: Cambria, Cambria;
      }

      .cls-27 {
        font-size: 8px;
      }

      .cls-28 {
        font-family: MonotypeCorsiva, 'Monotype Corsiva';
        font-size: 40px;
      }

      .cls-28, .cls-24, .cls-25, .cls-29, .cls-30, .cls-8, .cls-31 {
        fill: #231f20;
      }

      .cls-18, .cls-32 {
        letter-spacing: -.01em;
      }

      .cls-33 {
        fill: #2e3192;
      }

      .cls-19 {
        letter-spacing: -.02em;
      }

      .cls-24 {
        font-size: 20px;
      }

      .cls-34 {
        letter-spacing: -.02em;
      }

      .cls-29 {
        stroke-width: 2px;
      }

      .cls-29, .cls-35 {
        stroke: #231f20;
        stroke-miterlimit: 10;
      }

      .cls-5, .cls-36 {
        letter-spacing: 0em;
      }

      .cls-6, .cls-37, .cls-20 {
        letter-spacing: 0em;
      }

      .cls-30, .cls-38 {
        font-size: 15px;
      }

      .cls-7 {
        letter-spacing: 0em;
      }

      .cls-39 {
        fill: #ed1c24;
      }

      .cls-40 {
        letter-spacing: 0em;
      }

      .cls-8 {
        font-size: 12px;
      }

      .cls-41 {
        letter-spacing: .01em;
      }

      .cls-35 {
        fill: none;
        stroke-width: .5px;
      }
    </style>
  </defs>
  <text class="cls-28" transform="translate(263.47 33.75)"><tspan x="0" y="0">16-Count Sequences</tspan></text>
  <text class="cls-25" transform="translate(170.03 57.68)"><tspan class="cls-15" x="0" y="0">These 4-let</tspan><tspan class="cls-16" x="76.05" y="0">t</tspan><tspan class="cls-15" x="81.33" y="0">er </tspan><tspan class="cls-18" x="99.27" y="0">w</tspan><tspan class="cls-15" x="111.46" y="0">o</tspan><tspan class="cls-10" x="119.95" y="0">r</tspan><tspan class="cls-15" x="126.34" y="0">ds </tspan><tspan class="cls-10" x="145.61" y="0">r</tspan><tspan class="cls-15" x="151.99" y="0">epeat 4 times, g</tspan><tspan class="cls-19" x="258.2" y="0">i</tspan><tspan class="cls-15" x="262.32" y="0">ving us 16-count sequences. </tspan><tspan class="cls-38" x="457.24" y="0"> </tspan><tspan class="cls-27"><tspan x="226.86" y="9.6"> </tspan></tspan><tspan class="cls-15"><tspan x="-66.38" y="28.8">As sh</tspan><tspan class="cls-36" x="-30.31" y="28.8">o</tspan><tspan x="-21.89" y="28.8">wn he</tspan><tspan class="cls-11" x="19.58" y="28.8">r</tspan><tspan x="25.96" y="28.8">e, </tspan><tspan class="cls-21" x="40.57" y="28.8">y</tspan><tspan x="48.32" y="28.8">ou can omit the let</tspan><tspan class="cls-23" x="174.82" y="28.8">t</tspan><tspan x="180.09" y="28.8">ers </tspan><tspan class="cls-37" x="204.91" y="28.8">w</tspan><tspan x="217.14" y="28.8">hen a </tspan><tspan class="cls-32" x="257.57" y="28.8">w</tspan><tspan x="269.75" y="28.8">o</tspan><tspan class="cls-11" x="278.25" y="28.8">r</tspan><tspan x="284.63" y="28.8">d is </tspan><tspan class="cls-11" x="311.87" y="28.8">r</tspan><tspan x="318.25" y="28.8">epeating itself multiple times.</tspan></tspan><tspan class="cls-15" x="118.64" y="48">This </tspan><tspan class="cls-10" x="151.79" y="48">r</tspan><tspan class="cls-15" x="158.18" y="48">educed visual </tspan><tspan class="cls-10" x="254.85" y="48">o</tspan><tspan class="cls-17" x="263.11" y="48">v</tspan><tspan class="cls-15" x="270.86" y="48">er</tspan><tspan class="cls-20" x="285.28" y="48">w</tspan><tspan class="cls-15" x="297.51" y="48">helm. </tspan><tspan class="cls-38" x="338.61" y="48"> </tspan></text>
  <text class="cls-30" transform="translate(195.14 144.17)"><tspan class="cls-26"><tspan x="0" y="0">He</tspan><tspan class="cls-11" x="17.61" y="0">r</tspan><tspan x="23.6" y="0">e, each </tspan><tspan class="cls-11" x="70.13" y="0">r</tspan><tspan x="76.11" y="0">epetition of the </tspan><tspan class="cls-32" x="176.99" y="0">w</tspan><tspan x="188.42" y="0">o</tspan><tspan class="cls-11" x="196.38" y="0">r</tspan><tspan x="202.36" y="0">d ends in a β that is 90° f</tspan><tspan class="cls-11" x="358.9" y="0">r</tspan><tspan x="364.89" y="0">om its star</tspan><tspan class="cls-41" x="432.67" y="0">t</tspan><tspan x="437.97" y="0">. </tspan></tspan><tspan class="cls-26" x="-59.96" y="18">This means it will ta</tspan><tspan class="cls-14" x="68.54" y="18">k</tspan><tspan class="cls-26" x="76.15" y="18">e 4 </tspan><tspan class="cls-9" x="98.38" y="18">r</tspan><tspan class="cls-26" x="104.36" y="18">epetitions </tspan><tspan class="cls-22" x="171.91" y="18">t</tspan><tspan class="cls-26" x="176.85" y="18">o </tspan><tspan class="cls-9" x="188.12" y="18">r</tspan><tspan class="cls-26" x="194.1" y="18">eturn </tspan><tspan class="cls-22" x="232.65" y="18">t</tspan><tspan class="cls-26" x="237.6" y="18">o home. </tspan><tspan class="cls-4" x="291.28" y="18">(</tspan><tspan class="cls-3" x="296.85" y="18">R</tspan><tspan class="cls-4" x="305.45" y="18">o</tspan><tspan class="cls-7" x="313.05" y="18">t</tspan><tspan class="cls-4" x="318.13" y="18">a</tspan><tspan class="cls-7" x="326.02" y="18">t</tspan><tspan class="cls-4" x="331.09" y="18">ed+</tspan><tspan class="cls-2" x="353.73" y="18">S</tspan><tspan class="cls-5" x="360.66" y="18">w</tspan><tspan class="cls-4" x="371.5" y="18" xml:space="preserve">apped  </tspan><tspan class="cls-1" x="416.51" y="18">P</tspan><tspan class="cls-4" x="424.62" y="18">ermu</tspan><tspan class="cls-7" x="457.6" y="18">t</tspan><tspan class="cls-4" x="462.67" y="18" xml:space="preserve">ation)  </tspan></text>
  <text class="cls-30" transform="translate(130.87 391.5)"><tspan class="cls-26"><tspan x="0" y="0">He</tspan><tspan class="cls-11" x="17.61" y="0">r</tspan><tspan x="23.6" y="0">e, the st</tspan><tspan class="cls-21" x="72.79" y="0">av</tspan><tspan x="87.08" y="0">es </tspan><tspan class="cls-11" x="104.15" y="0">r</tspan><tspan x="110.13" y="0">eturn </tspan><tspan class="cls-23" x="148.69" y="0">t</tspan><tspan x="153.63" y="0">o home af</tspan><tspan class="cls-23" x="216.1" y="0">t</tspan><tspan x="221.04" y="0">er t</tspan><tspan class="cls-32" x="242.94" y="0">w</tspan><tspan x="254.37" y="0">o </tspan><tspan class="cls-32" x="265.63" y="0">w</tspan><tspan x="277.06" y="0">o</tspan><tspan class="cls-11" x="285.02" y="0">r</tspan><tspan x="291.01" y="0">d </tspan><tspan class="cls-11" x="302.63" y="0">r</tspan><tspan x="308.61" y="0">epetitions. </tspan><tspan class="cls-12" x="379.23" y="0">T</tspan><tspan x="386.91" y="0">o ma</tspan><tspan class="cls-13" x="417.98" y="0">k</tspan><tspan x="425.59" y="0">e it </tspan><tspan class="cls-40" x="448.75" y="0">s</tspan><tspan x="455.09" y="0">ymmetrical, </tspan></tspan><tspan class="cls-26" x="-48.96" y="18">it </tspan><tspan class="cls-9" x="-36.42" y="18">r</tspan><tspan class="cls-26" x="-30.43" y="18">epeats twice mo</tspan><tspan class="cls-9" x="73.23" y="18">r</tspan><tspan class="cls-26" x="79.21" y="18">e, filling the </tspan><tspan class="cls-9" x="156.99" y="18">r</tspan><tspan class="cls-26" x="162.97" y="18">est of the quad</tspan><tspan class="cls-14" x="257.02" y="18">r</tspan><tspan class="cls-26" x="262.97" y="18">ants. </tspan><tspan class="cls-4" x="296.56" y="18">(</tspan><tspan class="cls-3" x="302.14" y="18">R</tspan><tspan class="cls-4" x="310.74" y="18">o</tspan><tspan class="cls-7" x="318.34" y="18">t</tspan><tspan class="cls-4" x="323.42" y="18">a</tspan><tspan class="cls-7" x="331.3" y="18">t</tspan><tspan class="cls-4" x="336.38" y="18">ed + Mir</tspan><tspan class="cls-6" x="387.68" y="18">r</tspan><tspan class="cls-4" x="393.64" y="18">o</tspan><tspan class="cls-6" x="401.24" y="18">r</tspan><tspan class="cls-4" x="407.2" y="18">ed + </tspan><tspan class="cls-2" x="436.45" y="18">S</tspan><tspan class="cls-5" x="443.38" y="18">w</tspan><tspan class="cls-4" x="454.22" y="18">apped </tspan><tspan class="cls-1" x="495.93" y="18">P</tspan><tspan class="cls-4" x="504.04" y="18">ermu</tspan><tspan class="cls-7" x="537.01" y="18">t</tspan><tspan class="cls-4" x="542.09" y="18">ation)</tspan></text>
  <text class="cls-24" transform="translate(13.59 153.78)"><tspan x="0" y="0">Gθ</tspan><tspan class="cls-21" x="23.15" y="0">O</tspan><tspan x="35.83" y="0">Z</tspan></text>
  <g>
    <path class="cls-31" d="m107.2,463.25c1.45,0,1.45-2.25,0-2.25s-1.45,2.25,0,2.25h0Z"/>
    <g>
      <path class="cls-31" d="m137.28,464.62c3.23,0,3.23-5,0-5s-3.23,5,0,5h0Z"/>
      <path class="cls-31" d="m107.2,434.62c3.23,0,3.23-5,0-5s-3.23,5,0,5h0Z"/>
      <path class="cls-31" d="m77.12,464.62c3.23,0,3.23-5,0-5s-3.23,5,0,5h0Z"/>
      <path class="cls-31" d="m107.2,494.62c3.23,0,3.23-5,0-5s-3.23,5,0,5h0Z"/>
    </g>
  </g>
  <g>
    <path class="cls-31" d="m227.28,464.62c3.23,0,3.23-5,0-5s-3.23,5,0,5h0Z"/>
    <path class="cls-31" d="m197.2,434.62c3.23,0,3.23-5,0-5s-3.23,5,0,5h0Z"/>
    <path class="cls-31" d="m167.12,464.62c3.23,0,3.23-5,0-5s-3.23,5,0,5h0Z"/>
    <path class="cls-31" d="m197.2,494.62c3.23,0,3.23-5,0-5s-3.23,5,0,5h0Z"/>
    <path class="cls-31" d="m197.2,463.25c1.45,0,1.45-2.25,0-2.25s-1.45,2.25,0,2.25h0Z"/>
  </g>
  <g>
    <path class="cls-31" d="m317.28,464.62c3.23,0,3.23-5,0-5s-3.23,5,0,5h0Z"/>
    <path class="cls-31" d="m287.2,434.62c3.23,0,3.23-5,0-5s-3.23,5,0,5h0Z"/>
    <path class="cls-31" d="m257.12,464.62c3.23,0,3.23-5,0-5s-3.23,5,0,5h0Z"/>
    <path class="cls-31" d="m287.2,494.62c3.23,0,3.23-5,0-5s-3.23,5,0,5h0Z"/>
    <path class="cls-31" d="m287.2,463.25c1.45,0,1.45-2.25,0-2.25s-1.45,2.25,0,2.25h0Z"/>
  </g>
  <g>
    <path class="cls-31" d="m407.28,464.62c3.23,0,3.23-5,0-5s-3.23,5,0,5h0Z"/>
    <path class="cls-31" d="m377.2,434.62c3.23,0,3.23-5,0-5s-3.23,5,0,5h0Z"/>
    <path class="cls-31" d="m347.12,464.62c3.23,0,3.23-5,0-5s-3.23,5,0,5h0Z"/>
    <path class="cls-31" d="m377.2,494.62c3.23,0,3.23-5,0-5s-3.23,5,0,5h0Z"/>
    <path class="cls-31" d="m377.2,463.25c1.45,0,1.45-2.25,0-2.25s-1.45,2.25,0,2.25h0Z"/>
  </g>
  <path class="cls-31" d="m105.44,501.97c0,.36.02,1.02.02,1.02,0,0,2.18.01,3.53.07.5.02.9-.07.95.78.04.6-.32.73-.87.77-1.28.09-3.49.05-3.49.05,0,0,.03,1.16.07,1.65.03.39.1.88.1.88,0,0,3.53.01,3.93,0,.33,0,.84,0,.81.84-.03.89-.42.83-.98.87-1.49.1-4.12,0-4.84-.38-1.02-.55-.79-5.46-.37-8.84.08-.67,3.98-.71,4.96-.62.44.04.67.53.67.82,0,.31,0,.87-.59.9-1.38.08-3.86.16-3.86.16,0,0-.03.8-.02,1.03Z"/>
  <path class="cls-31" d="m291.66,507.05l-.97-.99-.02-.02c1.23-2.17.51-4.46-.12-5.62-.87-1.56-3.93-2.62-5.78-1.24-2.07,1.53-2.64,3.26-2.09,6.23.3,1.66,2.32,3.48,4.78,3.07.79-.14,1.51-.53,2.11-1.07l.84.86c.34.34.89.35,1.24,0,.35-.34.35-.9,0-1.24Zm-6.76-1.14c-.78-.77-1.05-3.12.06-4.56,1.24-1.59,3.21-.9,3.76-.41.64.58,1.52,2.26.81,3.93l-.1-.1h0s-1.02-1.04-1.02-1.04c-.34-.35-.9-.35-1.24,0-.18.16-.26.39-.26.62s.08.45.25.62l1.1,1.12.15.15c-1.14.75-2.65.55-3.51-.31Z"/>
  <path class="cls-31" d="m201.27,506.67c-.93-2.27-1.86-4.39-2.21-5.2-.38-.84-.67-1.52-.74-1.72-.32-.87-.6-1.18-1.12-1.22-.5.04-.79.34-1.11,1.22-.07.2-.36.87-.73,1.72-.73,1.66-1.56,3.6-2.22,5.2-.28.71-.29,1.21-.03,1.52.19.23.49.34.9.34h6.43c.41,0,.71-.12.9-.34.12-.15.18-.34.18-.58,0-.26-.07-.57-.22-.94Zm-1.67.34h-4.8c.17-.42.49-1.25.87-2.18.56-1.41,1.21-3.07,1.53-3.9.39.98,1.22,3.11,1.83,4.63l.57,1.44Z"/>
  <path class="cls-31" d="m379.73,499.78l-4.37,8.3c-.15.29-.45.46-.75.46-.13,0-.26-.04-.39-.1-.2-.11-.35-.28-.42-.5-.07-.21-.05-.45.06-.65l1.88-3.58-2.53-3.62c-.12-.11-.2-.27-.24-.47-.05-.25.03-.53.2-.71.15-.17.35-.27.58-.28.22,0,.45.07.61.21l2.2,3.29,1.65-3.14c.12-.2.29-.35.51-.42.22-.07.45-.04.65.07.22.12.38.33.43.59.03.19,0,.38-.08.55Z"/>
  <path class="cls-39" d="m347.09,454.78c0-11.89,9.57-22.68,21.38-22.72l-2.65-2.41s1.01-1.11,1.85-.54c.95.65,4.08,3.93,4.08,3.93,0,0-2.66,3.32-3.8,4.21-.81.63-1.89-.43-1.89-.43l2.61-2.78c-8.93.03-18.79,7.32-19.5,20.74-.08,1.57-2.09,1.62-2.08,0Z"/>
  <path class="cls-39" d="m110.58,489.72c0-19.4,1.3-21.27,20.15-21.27l-2.72-2.66s1.04-1.1,1.87-.5c1.18.85,3.95,4.08,3.95,4.08,0,0-3.01,3.38-3.95,4.07-.82.6-1.87-.48-1.87-.48l2.72-2.56c-17.27,0-18.08,1-18.08,19.29,0,1.51-2.07,1.51-2.07.03Z"/>
  <path class="cls-39" d="m224.8,458.74c-19.4,0-21.27-1.3-21.27-20.15l-2.66,2.72s-1.1-1.04-.5-1.87c.85-1.18,4.08-3.95,4.08-3.95,0,0,3.38,3.01,4.07,3.95.6.82-.48,1.87-.48,1.87l-2.56-2.72c0,17.27,1,18.08,19.29,18.08,1.51,0,1.51,2.07.03,2.07Z"/>
  <path class="cls-39" d="m133.83,465v-5.76c0-.48-.4-.87-.89-.87s-.89.39-.89.87v1.92h-21.85c-.48,0-.87.38-.87.85v.32c0,.46.39.85.87.85h21.85v1.82c0,.48.4.87.89.87s.89-.39.89-.87Z"/>
  <path class="cls-33" d="m103.82,489.72c0-19.4-1.3-21.27-20.15-21.27l2.72-2.66s-1.04-1.1-1.87-.5c-1.18.85-3.95,4.08-3.95,4.08,0,0,3.01,3.38,3.95,4.07.82.6,1.87-.48,1.87-.48l-2.72-2.56c17.27,0,18.08,1,18.08,19.29,0,1.51,2.07,1.51,2.07.03Z"/>
  <path class="cls-33" d="m80.57,465v-5.76c0-.48.4-.87.89-.87.49,0,.89.39.89.87v1.92h21.85c.48,0,.87.38.87.85v.32c0,.46-.39.85-.87.85h-21.85v1.82c0,.48-.4.87-.89.87s-.89-.39-.89-.87Z"/>
  <path class="cls-39" d="m194.32,459.99h5.76c.48,0,.87-.4.87-.89,0-.49-.39-.89-.87-.89h-1.92v-21.85c0-.48-.38-.87-.85-.87h-.32c-.46,0-.85.39-.85.87v21.85h-1.82c-.48,0-.87.4-.87.89s.39.89.87.89Z"/>
  <path class="cls-39" d="m283.43,433.76c0,19.4-1.3,21.27-20.15,21.27l2.72,2.66s-1.04,1.1-1.87.5c-1.18-.85-3.95-4.08-3.95-4.08,0,0,3.01-3.38,3.95-4.07.82-.6,1.87.48,1.87.48l-2.72,2.56c17.27,0,18.08-1,18.08-19.29,0-1.51,2.07-1.51,2.07-.03Z"/>
  <path class="cls-39" d="m260.57,459.24v5.76c0,.48.4.87.89.87s.89-.39.89-.87v-1.92h21.85c.48,0,.87-.38.87-.85v-.32c0-.46-.39-.85-.87-.85h-21.85v-1.82c0-.48-.4-.87-.89-.87s-.89.39-.89.87Z"/>
  <path class="cls-33" d="m258.23,449.55c19.4,0,21.27-1.3,21.27-20.15l2.66,2.72s1.1-1.04.5-1.87c-.85-1.18-4.08-3.95-4.08-3.95,0,0-3.38,3.01-4.07,3.95-.6.82.48,1.87.48,1.87l2.56-2.72c0,17.27-1,18.08-19.29,18.08-1.51,0-1.51,2.07-.03,2.07Z"/>
  <path class="cls-33" d="m290.08,459.99h-5.76c-.48,0-.87-.4-.87-.89,0-.49.39-.89.87-.89h1.92v-21.85c0-.48.38-.87.85-.87h.32c.46,0,.85.39.85.87v21.85h1.82c.48,0,.87.4.87.89,0,.49-.39.89-.87.89Z"/>
  <path class="cls-33" d="m382.52,459.99h-5.76c-.48,0-.87-.4-.87-.89s.39-.89.87-.89h1.92v-21.85c0-.48.38-.87.85-.87h.32c.46,0,.85.39.85.87v21.85h1.82c.48,0,.87.4.87.89s-.39.89-.87.89Z"/>
  <path class="cls-39" d="m371.88,435.49h5.76c.48,0,.87.4.87.89s-.39.89-.87.89h-1.92v21.85c0,.48-.38.87-.85.87h-.32c-.46,0-.85-.39-.85-.87v-21.85h-1.82c-.48,0-.87-.4-.87-.89,0-.49.39-.89.87-.89Z"/>
  <path class="cls-33" d="m170.57,465v-5.76c0-.48.4-.87.89-.87.49,0,.89.39.89.87v1.92h21.85c.48,0,.87.38.87.85v.32c0,.46-.39.85-.87.85h-21.85v1.82c0,.48-.4.87-.89.87s-.89-.39-.89-.87Z"/>
  <g>
    <path class="cls-31" d="m437.12,459.62c-3.23,0-3.23,5,0,5s3.23-5,0-5h0Z"/>
    <path class="cls-31" d="m467.2,489.62c-3.23,0-3.23,5,0,5s3.23-5,0-5h0Z"/>
    <path class="cls-31" d="m497.28,459.62c-3.23,0-3.23,5,0,5s3.23-5,0-5h0Z"/>
    <path class="cls-31" d="m467.2,429.62c-3.23,0-3.23,5,0,5s3.23-5,0-5h0Z"/>
    <path class="cls-31" d="m467.2,463.25c1.45,0,1.45-2.25,0-2.25s-1.45,2.25,0,2.25h0Z"/>
  </g>
  <g>
    <path class="cls-31" d="m527.12,459.62c-3.23,0-3.23,5,0,5s3.23-5,0-5h0Z"/>
    <path class="cls-31" d="m557.2,489.62c-3.23,0-3.23,5,0,5s3.23-5,0-5h0Z"/>
    <path class="cls-31" d="m587.28,459.62c-3.23,0-3.23,5,0,5s3.23-5,0-5h0Z"/>
    <path class="cls-31" d="m557.2,429.62c-3.23,0-3.23,5,0,5s3.23-5,0-5h0Z"/>
    <path class="cls-31" d="m557.2,463.25c1.45,0,1.45-2.25,0-2.25s-1.45,2.25,0,2.25h0Z"/>
  </g>
  <g>
    <path class="cls-31" d="m617.12,459.62c-3.23,0-3.23,5,0,5s3.23-5,0-5h0Z"/>
    <path class="cls-31" d="m647.2,489.62c-3.23,0-3.23,5,0,5s3.23-5,0-5h0Z"/>
    <path class="cls-31" d="m677.28,459.62c-3.23,0-3.23,5,0,5s3.23-5,0-5h0Z"/>
    <path class="cls-31" d="m647.2,429.62c-3.23,0-3.23,5,0,5,3.23,0,3.23-5,0-5h0Z"/>
    <path class="cls-31" d="m647.2,463.25c1.45,0,1.45-2.25,0-2.25s-1.45,2.25,0,2.25h0Z"/>
  </g>
  <g>
    <path class="cls-31" d="m707.12,459.62c-3.23,0-3.23,5,0,5s3.23-5,0-5h0Z"/>
    <path class="cls-31" d="m737.2,489.62c-3.23,0-3.23,5,0,5s3.23-5,0-5h0Z"/>
    <path class="cls-31" d="m767.28,459.62c-3.23,0-3.23,5,0,5s3.23-5,0-5h0Z"/>
    <path class="cls-31" d="m737.2,429.62c-3.23,0-3.23,5,0,5s3.23-5,0-5h0Z"/>
    <path class="cls-31" d="m737.2,463.25c1.45,0,1.45-2.25,0-2.25s-1.45,2.25,0,2.25h0Z"/>
  </g>
  <path class="cls-39" d="m765.62,467.78c0,11.89-9.57,22.68-21.38,22.72l2.65,2.41s-1.01,1.11-1.85.54c-.95-.65-4.08-3.93-4.08-3.93,0,0,2.66-3.32,3.8-4.21.81-.63,1.89.43,1.89.43l-2.61,2.78c8.93-.03,18.79-7.32,19.5-20.74.08-1.57,2.09-1.62,2.08,0Z"/>
  <path class="cls-39" d="m463.82,434.52c0,19.4-1.3,21.27-20.15,21.27l2.72,2.66s-1.04,1.1-1.87.5c-1.18-.85-3.95-4.08-3.95-4.08,0,0,3.01-3.38,3.95-4.07.82-.6,1.87.48,1.87.48l-2.72,2.56c17.27,0,18.08-1,18.08-19.29,0-1.51,2.07-1.51,2.07-.03Z"/>
  <path class="cls-39" d="m529.6,465.51c19.4,0,21.27,1.3,21.27,20.15l2.66-2.72s1.1,1.04.5,1.87c-.85,1.18-4.08,3.95-4.08,3.95,0,0-3.38-3.01-4.07-3.95-.6-.82.48-1.87.48-1.87l2.56,2.72c0-17.27-1-18.08-19.29-18.08-1.51,0-1.51-2.07-.03-2.07Z"/>
  <path class="cls-39" d="m465.07,465v-5.76c0-.48-.4-.87-.89-.87s-.89.39-.89.87v1.92h-21.85c-.48,0-.87.38-.87.85v.32c0,.46.39.85.87.85h21.85v1.82c0,.48.4.87.89.87s.89-.39.89-.87Z"/>
  <path class="cls-33" d="m470.58,434.52c0,19.4,1.3,21.27,20.15,21.27l-2.72,2.66s1.04,1.1,1.87.5c1.18-.85,3.95-4.08,3.95-4.08,0,0-3.01-3.38-3.95-4.07-.82-.6-1.87.48-1.87.48l2.72,2.56c-17.27,0-18.08-1-18.08-19.29,0-1.51-2.07-1.51-2.07-.03Z"/>
  <path class="cls-33" d="m493.83,459.24v5.76c0,.48-.4.87-.89.87s-.89-.39-.89-.87v-1.92h-21.85c-.48,0-.87-.38-.87-.85v-.32c0-.46.39-.85.87-.85h21.85v-1.82c0-.48.4-.87.89-.87s.89.39.89.87Z"/>
  <path class="cls-39" d="m554.32,488.75h5.76c.48,0,.87-.4.87-.89s-.39-.89-.87-.89h-1.92v-21.85c0-.48-.38-.87-.85-.87h-.32c-.46,0-.85.39-.85.87v21.85h-1.82c-.48,0-.87.4-.87.89s.39.89.87.89Z"/>
  <path class="cls-39" d="m651.92,488.86c0-19.4,1.3-21.27,20.15-21.27l-2.72-2.66s1.04-1.1,1.87-.5c1.18.85,3.95,4.08,3.95,4.08,0,0-3.01,3.38-3.95,4.07-.82.6-1.87-.48-1.87-.48l2.72-2.56c-17.27,0-18.08,1-18.08,19.29,0,1.51-2.07,1.51-2.07.03Z"/>
  <path class="cls-39" d="m649.33,459.24v5.76c0,.48.4.87.89.87.49,0,.89-.39.89-.87v-1.92h21.85c.48,0,.87-.38.87-.85v-.32c0-.46-.39-.85-.87-.85h-21.85v-1.82c0-.48-.4-.87-.89-.87s-.89.39-.89.87Z"/>
  <path class="cls-33" d="m677.12,473.07c-19.4,0-21.27,1.3-21.27,20.15l-2.66-2.72s-1.1,1.04-.5,1.87c.85,1.18,4.08,3.95,4.08,3.95,0,0,3.38-3.01,4.07-3.95.6-.82-.48-1.87-.48-1.87l-2.56,2.72c0-17.27,1-18.08,19.29-18.08,1.51,0,1.51-2.07.03-2.07Z"/>
  <path class="cls-33" d="m644.32,464.25h5.76c.48,0,.87.4.87.89,0,.49-.39.89-.87.89h-1.92v21.85c0,.48-.38.87-.85.87h-.32c-.46,0-.85-.39-.85-.87v-21.85h-1.82c-.48,0-.87-.4-.87-.89s.39-.89.87-.89Z"/>
  <path class="cls-33" d="m731.88,464.25h5.76c.48,0,.87.4.87.89,0,.49-.39.89-.87.89h-1.92v21.85c0,.48-.38.87-.85.87h-.32c-.46,0-.85-.39-.85-.87v-21.85h-1.82c-.48,0-.87-.4-.87-.89s.39-.89.87-.89Z"/>
  <path class="cls-39" d="m736.76,464.25h5.76c.48,0,.87.4.87.89,0,.49-.39.89-.87.89h-1.92v21.85c0,.48-.38.87-.85.87h-.32c-.46,0-.85-.39-.85-.87v-21.85h-1.82c-.48,0-.87-.4-.87-.89s.39-.89.87-.89Z"/>
  <path class="cls-33" d="m583.83,459.24v5.76c0,.48-.4.87-.89.87s-.89-.39-.89-.87v-1.92h-21.85c-.48,0-.87-.38-.87-.85v-.32c0-.46.39-.85.87-.85h21.85v-1.82c0-.48.4-.87.89-.87s.89.39.89.87Z"/>
  <g>
    <path class="cls-31" d="m107.2,563.25c1.45,0,1.45-2.25,0-2.25s-1.45,2.25,0,2.25h0Z"/>
    <g>
      <path class="cls-31" d="m137.28,564.62c3.23,0,3.23-5,0-5s-3.23,5,0,5h0Z"/>
      <path class="cls-31" d="m107.2,534.62c3.23,0,3.23-5,0-5s-3.23,5,0,5h0Z"/>
      <path class="cls-31" d="m77.12,564.62c3.23,0,3.23-5,0-5s-3.23,5,0,5h0Z"/>
      <path class="cls-31" d="m107.2,594.62c3.23,0,3.23-5,0-5s-3.23,5,0,5h0Z"/>
    </g>
  </g>
  <g>
    <path class="cls-31" d="m167.12,564.62c-3.23,0-3.23-5,0-5,3.23,0,3.23,5,0,5h0Z"/>
    <path class="cls-31" d="m197.2,534.62c-3.23,0-3.23-5,0-5,3.23,0,3.23,5,0,5h0Z"/>
    <path class="cls-31" d="m227.28,564.62c-3.23,0-3.23-5,0-5,3.23,0,3.23,5,0,5h0Z"/>
    <path class="cls-31" d="m197.2,594.62c-3.23,0-3.23-5,0-5,3.23,0,3.23,5,0,5h0Z"/>
    <path class="cls-31" d="m197.2,563.25c1.45,0,1.45-2.25,0-2.25s-1.45,2.25,0,2.25h0Z"/>
  </g>
  <g>
    <path class="cls-31" d="m257.12,564.62c-3.23,0-3.23-5,0-5,3.23,0,3.23,5,0,5h0Z"/>
    <path class="cls-31" d="m287.2,534.62c-3.23,0-3.23-5,0-5,3.23,0,3.23,5,0,5h0Z"/>
    <path class="cls-31" d="m317.28,564.62c-3.23,0-3.23-5,0-5,3.23,0,3.23,5,0,5h0Z"/>
    <path class="cls-31" d="m287.2,594.62c-3.23,0-3.23-5,0-5,3.23,0,3.23,5,0,5h0Z"/>
    <path class="cls-31" d="m287.2,563.25c1.45,0,1.45-2.25,0-2.25s-1.45,2.25,0,2.25h0Z"/>
  </g>
  <g>
    <path class="cls-31" d="m347.12,564.62c-3.23,0-3.23-5,0-5,3.23,0,3.23,5,0,5h0Z"/>
    <path class="cls-31" d="m377.2,534.62c-3.23,0-3.23-5,0-5,3.23,0,3.23,5,0,5h0Z"/>
    <path class="cls-31" d="m407.28,564.62c-3.23,0-3.23-5,0-5,3.23,0,3.23,5,0,5h0Z"/>
    <path class="cls-31" d="m377.2,594.62c-3.23,0-3.23-5,0-5,3.23,0,3.23,5,0,5h0Z"/>
    <path class="cls-31" d="m377.2,563.25c1.45,0,1.45-2.25,0-2.25s-1.45,2.25,0,2.25h0Z"/>
  </g>
  <path class="cls-33" d="m407.31,554.78c0-11.89-9.57-22.68-21.38-22.72l2.65-2.41s-1.01-1.11-1.85-.54c-.95.65-4.08,3.93-4.08,3.93,0,0,2.66,3.32,3.8,4.21.81.63,1.89-.43,1.89-.43l-2.61-2.78c8.93.03,18.79,7.32,19.5,20.74.08,1.57,2.09,1.62,2.08,0Z"/>
  <path class="cls-39" d="m110.58,589.72c0-19.4,1.3-21.27,20.15-21.27l-2.72-2.66s1.04-1.1,1.87-.5c1.18.85,3.95,4.08,3.95,4.08,0,0-3.01,3.38-3.95,4.07-.82.6-1.87-.48-1.87-.48l2.72-2.56c-17.27,0-18.08,1-18.08,19.29,0,1.51-2.07,1.51-2.07.03Z"/>
  <path class="cls-33" d="m169.6,558.74c19.4,0,21.27-1.3,21.27-20.15l2.66,2.72s1.1-1.04.5-1.87c-.85-1.18-4.08-3.95-4.08-3.95,0,0-3.38,3.01-4.07,3.95-.6.82.48,1.87.48,1.87l2.56-2.72c0,17.27-1,18.08-19.29,18.08-1.51,0-1.51,2.07-.03,2.07Z"/>
  <path class="cls-39" d="m133.83,565v-5.76c0-.48-.4-.87-.89-.87s-.89.39-.89.87v1.92h-21.85c-.48,0-.87.38-.87.85v.32c0,.46.39.85.87.85h21.85v1.82c0,.48.4.87.89.87s.89-.39.89-.87Z"/>
  <path class="cls-33" d="m103.82,589.72c0-19.4-1.3-21.27-20.15-21.27l2.72-2.66s-1.04-1.1-1.87-.5c-1.18.85-3.95,4.08-3.95,4.08,0,0,3.01,3.38,3.95,4.07.82.6,1.87-.48,1.87-.48l-2.72-2.56c17.27,0,18.08,1,18.08,19.29,0,1.51,2.07,1.51,2.07.03Z"/>
  <path class="cls-33" d="m80.57,565v-5.76c0-.48.4-.87.89-.87.49,0,.89.39.89.87v1.92h21.85c.48,0,.87.38.87.85v.32c0,.46-.39.85-.87.85h-21.85v1.82c0,.48-.4.87-.89.87s-.89-.39-.89-.87Z"/>
  <path class="cls-33" d="m200.08,559.99h-5.76c-.48,0-.87-.4-.87-.89,0-.49.39-.89.87-.89h1.92v-21.85c0-.48.38-.87.85-.87h.32c.46,0,.85.39.85.87v21.85h1.82c.48,0,.87.4.87.89,0,.49-.39.89-.87.89Z"/>
  <path class="cls-33" d="m290.97,533.76c0,19.4,1.3,21.27,20.15,21.27l-2.72,2.66s1.04,1.1,1.87.5c1.18-.85,3.95-4.08,3.95-4.08,0,0-3.01-3.38-3.95-4.07-.82-.6-1.87.48-1.87.48l2.72,2.56c-17.27,0-18.08-1-18.08-19.29,0-1.51-2.07-1.51-2.07-.03Z"/>
  <path class="cls-33" d="m313.83,559.24v5.76c0,.48-.4.87-.89.87s-.89-.39-.89-.87v-1.92h-21.85c-.48,0-.87-.38-.87-.85v-.32c0-.46.39-.85.87-.85h21.85v-1.82c0-.48.4-.87.89-.87s.89.39.89.87Z"/>
  <path class="cls-39" d="m316.18,549.55c-19.4,0-21.27-1.3-21.27-20.15l-2.66,2.72s-1.1-1.04-.5-1.87c.85-1.18,4.08-3.95,4.08-3.95,0,0,3.38,3.01,4.07,3.95.6.82-.48,1.87-.48,1.87l-2.56-2.72c0,17.27,1,18.08,19.29,18.08,1.51,0,1.51,2.07.03,2.07Z"/>
  <path class="cls-39" d="m284.32,559.99h5.76c.48,0,.87-.4.87-.89,0-.49-.39-.89-.87-.89h-1.92v-21.85c0-.48-.38-.87-.85-.87h-.32c-.46,0-.85.39-.85.87v21.85h-1.82c-.48,0-.87.4-.87.89,0,.49.39.89.87.89Z"/>
  <path class="cls-33" d="m382.52,535.49h-5.76c-.48,0-.87.4-.87.89,0,.49.39.89.87.89h1.92v21.85c0,.48.38.87.85.87h.32c.46,0,.85-.39.85-.87v-21.85h1.82c.48,0,.87-.4.87-.89s-.39-.89-.87-.89Z"/>
  <path class="cls-39" d="m371.88,559.99h5.76c.48,0,.87-.4.87-.89,0-.49-.39-.89-.87-.89h-1.92v-21.85c0-.48-.38-.87-.85-.87h-.32c-.46,0-.85.39-.85.87v21.85h-1.82c-.48,0-.87.4-.87.89s.39.89.87.89Z"/>
  <path class="cls-39" d="m223.83,565v-5.76c0-.48-.4-.87-.89-.87s-.89.39-.89.87v1.92h-21.85c-.48,0-.87.38-.87.85v.32c0,.46.39.85.87.85h21.85v1.82c0,.48.4.87.89.87s.89-.39.89-.87Z"/>
  <g>
    <path class="cls-31" d="m437.12,559.62c-3.23,0-3.23,5,0,5s3.23-5,0-5h0Z"/>
    <path class="cls-31" d="m467.2,589.62c-3.23,0-3.23,5,0,5s3.23-5,0-5h0Z"/>
    <path class="cls-31" d="m497.28,559.62c-3.23,0-3.23,5,0,5s3.23-5,0-5h0Z"/>
    <path class="cls-31" d="m467.2,529.62c-3.23,0-3.23,5,0,5s3.23-5,0-5h0Z"/>
    <path class="cls-31" d="m467.2,563.25c1.45,0,1.45-2.25,0-2.25s-1.45,2.25,0,2.25h0Z"/>
  </g>
  <g>
    <path class="cls-31" d="m587.28,559.62c3.23,0,3.23,5,0,5-3.23,0-3.23-5,0-5h0Z"/>
    <path class="cls-31" d="m557.2,589.62c3.23,0,3.23,5,0,5-3.23,0-3.23-5,0-5h0Z"/>
    <path class="cls-31" d="m527.12,559.62c3.23,0,3.23,5,0,5-3.23,0-3.23-5,0-5h0Z"/>
    <path class="cls-31" d="m557.2,529.62c3.23,0,3.23,5,0,5-3.23,0-3.23-5,0-5h0Z"/>
    <path class="cls-31" d="m557.2,563.25c1.45,0,1.45-2.25,0-2.25s-1.45,2.25,0,2.25h0Z"/>
  </g>
  <g>
    <path class="cls-31" d="m649.7,532.04c0-3.23-5-3.23-5,0,0,3.23,5,3.23,5,0h0Z"/>
    <path class="cls-31" d="m619.7,562.12c0-3.23-5-3.23-5,0,0,3.23,5,3.23,5,0h0Z"/>
    <path class="cls-31" d="m649.7,592.2c0-3.23-5-3.23-5,0s5,3.23,5,0h0Z"/>
    <path class="cls-31" d="m679.7,562.12c0-3.23-5-3.23-5,0,0,3.23,5,3.23,5,0h0Z"/>
    <path class="cls-31" d="m647.2,563.25c1.45,0,1.45-2.25,0-2.25s-1.45,2.25,0,2.25h0Z"/>
  </g>
  <g>
    <path class="cls-31" d="m767.28,559.62c3.23,0,3.23,5,0,5-3.23,0-3.23-5,0-5h0Z"/>
    <path class="cls-31" d="m737.2,589.62c3.23,0,3.23,5,0,5-3.23,0-3.23-5,0-5h0Z"/>
    <path class="cls-31" d="m707.12,559.62c3.23,0,3.23,5,0,5-3.23,0-3.23-5,0-5h0Z"/>
    <path class="cls-31" d="m737.2,529.62c3.23,0,3.23,5,0,5-3.23,0-3.23-5,0-5h0Z"/>
    <path class="cls-31" d="m737.2,563.25c1.45,0,1.45-2.25,0-2.25s-1.45,2.25,0,2.25h0Z"/>
  </g>
  <path class="cls-33" d="m708.78,567.78c0,11.89,9.57,22.68,21.38,22.72l-2.65,2.41s1.01,1.11,1.85.54c.95-.65,4.08-3.93,4.08-3.93,0,0-2.66-3.32-3.8-4.21-.81-.63-1.89.43-1.89.43l2.61,2.78c-8.93-.03-18.79-7.32-19.5-20.74-.08-1.57-2.09-1.62-2.08,0Z"/>
  <path class="cls-39" d="m463.82,534.52c0,19.4-1.3,21.27-20.15,21.27l2.72,2.66s-1.04,1.1-1.87.5c-1.18-.85-3.95-4.08-3.95-4.08,0,0,3.01-3.38,3.95-4.07.82-.6,1.87.48,1.87.48l-2.72,2.56c17.27,0,18.08-1,18.08-19.29,0-1.51,2.07-1.51,2.07-.03Z"/>
  <path class="cls-33" d="m584.8,565.51c-19.4,0-21.27,1.3-21.27,20.15l-2.66-2.72s-1.1,1.04-.5,1.87c.85,1.18,4.08,3.95,4.08,3.95,0,0,3.38-3.01,4.07-3.95.6-.82-.48-1.87-.48-1.87l-2.56,2.72c0-17.27,1-18.08,19.29-18.08,1.51,0,1.51-2.07.03-2.07Z"/>
  <path class="cls-39" d="m440.57,559.24v5.76c0,.48.4.87.89.87s.89-.39.89-.87v-1.92h21.85c.48,0,.87-.38.87-.85v-.32c0-.46-.39-.85-.87-.85h-21.85v-1.82c0-.48-.4-.87-.89-.87s-.89.39-.89.87Z"/>
  <path class="cls-33" d="m470.58,534.52c0,19.4,1.3,21.27,20.15,21.27l-2.72,2.66s1.04,1.1,1.87.5c1.18-.85,3.95-4.08,3.95-4.08,0,0-3.01-3.38-3.95-4.07-.82-.6-1.87.48-1.87.48l2.72,2.56c-17.27,0-18.08-1-18.08-19.29,0-1.51-2.07-1.51-2.07-.03Z"/>
  <path class="cls-33" d="m469.33,565v-5.76c0-.48.4-.87.89-.87s.89.39.89.87v1.92h21.85c.48,0,.87.38.87.85v.32c0,.46-.39.85-.87.85h-21.85v1.82c0,.48-.4.87-.89.87s-.89-.39-.89-.87Z"/>
  <path class="cls-33" d="m560.08,588.75h-5.76c-.48,0-.87-.4-.87-.89,0-.49.39-.89.87-.89h1.92v-21.85c0-.48.38-.87.85-.87h.32c.46,0,.85.39.85.87v21.85h1.82c.48,0,.87.4.87.89s-.39.89-.87.89Z"/>
  <path class="cls-39" d="m620.46,566.84c19.4,0,21.27,1.3,21.27,20.15l2.66-2.72s1.1,1.04.5,1.87c-.85,1.18-4.08,3.95-4.08,3.95,0,0-3.38-3.01-4.07-3.95-.6-.82.48-1.87.48-1.87l2.56,2.72c0-17.27-1-18.08-19.29-18.08-1.51,0-1.51-2.07-.03-2.07Z"/>
  <path class="cls-39" d="m650.08,564.25h-5.76c-.48,0-.87.4-.87.89s.39.89.87.89h1.92v21.85c0,.48.38.87.85.87h.32c.46,0,.85-.39.85-.87v-21.85h1.82c.48,0,.87-.4.87-.89,0-.49-.39-.89-.87-.89Z"/>
  <path class="cls-33" d="m636.25,592.04c0-19.4-1.3-21.27-20.15-21.27l2.72-2.66s-1.04-1.1-1.87-.5c-1.18.85-3.95,4.08-3.95,4.08,0,0,3.01,3.38,3.95,4.07.82.6,1.87-.48,1.87-.48l-2.72-2.56c17.27,0,18.08,1,18.08,19.29,0,1.51,2.07,1.51,2.07.03Z"/>
  <path class="cls-33" d="m645.07,559.24v5.76c0,.48-.4.87-.89.87-.49,0-.89-.39-.89-.87v-1.92h-21.85c-.48,0-.87-.38-.87-.85v-.32c0-.46.39-.85.87-.85h21.85v-1.82c0-.48.4-.87.89-.87s.89.39.89.87Z"/>
  <path class="cls-33" d="m742.52,564.25h-5.76c-.48,0-.87.4-.87.89,0,.49.39.89.87.89h1.92v21.85c0,.48.38.87.85.87h.32c.46,0,.85-.39.85-.87v-21.85h1.82c.48,0,.87-.4.87-.89,0-.49-.39-.89-.87-.89Z"/>
  <path class="cls-39" d="m737.64,564.25h-5.76c-.48,0-.87.4-.87.89,0,.49.39.89.87.89h1.92v21.85c0,.48.38.87.85.87h.32c.46,0,.85-.39.85-.87v-21.85h1.82c.48,0,.87-.4.87-.89,0-.49-.39-.89-.87-.89Z"/>
  <path class="cls-39" d="m530.57,559.24v5.76c0,.48.4.87.89.87s.89-.39.89-.87v-1.92h21.85c.48,0,.87-.38.87-.85v-.32c0-.46-.39-.85-.87-.85h-21.85v-1.82c0-.48-.4-.87-.89-.87s-.89.39-.89.87Z"/>
  <g>
    <g>
      <text class="cls-8" transform="translate(74.7 434.69)"><tspan x="0" y="0">1</tspan></text>
      <text class="cls-8" transform="translate(164.6 434.69)"><tspan x="0" y="0">2</tspan></text>
      <text class="cls-8" transform="translate(254.7 434.69)"><tspan x="0" y="0">3</tspan></text>
      <text class="cls-8" transform="translate(344.6 434.69)"><tspan x="0" y="0">4</tspan></text>
      <text class="cls-8" transform="translate(434.7 434.69)"><tspan x="0" y="0">5</tspan></text>
      <text class="cls-8" transform="translate(524.6 434.69)"><tspan x="0" y="0">6</tspan></text>
      <text class="cls-8" transform="translate(614.7 434.69)"><tspan x="0" y="0">7</tspan></text>
      <text class="cls-8" transform="translate(704.6 434.69)"><tspan x="0" y="0">8</tspan></text>
    </g>
    <g>
      <text class="cls-8" transform="translate(74.7 534.69)"><tspan x="0" y="0">1</tspan></text>
      <text class="cls-8" transform="translate(164.6 534.69)"><tspan x="0" y="0">2</tspan></text>
      <text class="cls-8" transform="translate(254.7 534.69)"><tspan x="0" y="0">3</tspan></text>
      <text class="cls-8" transform="translate(344.6 534.69)"><tspan x="0" y="0">4</tspan></text>
      <text class="cls-8" transform="translate(434.7 534.69)"><tspan x="0" y="0">5</tspan></text>
      <text class="cls-8" transform="translate(524.6 534.69)"><tspan x="0" y="0">6</tspan></text>
      <text class="cls-8" transform="translate(614.7 534.69)"><tspan x="0" y="0">7</tspan></text>
      <text class="cls-8" transform="translate(704.6 534.69)"><tspan x="0" y="0">8</tspan></text>
    </g>
  </g>
  <g>
    <g>
      <text class="cls-8" transform="translate(74.7 180.18)"><tspan x="0" y="0">1</tspan></text>
      <text class="cls-8" transform="translate(164.6 180.18)"><tspan x="0" y="0">2</tspan></text>
      <text class="cls-8" transform="translate(254.7 180.18)"><tspan x="0" y="0">3</tspan></text>
      <text class="cls-8" transform="translate(344.6 180.18)"><tspan x="0" y="0">4</tspan></text>
      <text class="cls-8" transform="translate(434.7 180.18)"><tspan x="0" y="0">5</tspan></text>
      <text class="cls-8" transform="translate(524.6 180.18)"><tspan x="0" y="0">6</tspan></text>
      <text class="cls-8" transform="translate(614.7 180.18)"><tspan x="0" y="0">7</tspan></text>
      <text class="cls-8" transform="translate(704.6 180.18)"><tspan x="0" y="0">8</tspan></text>
    </g>
    <g>
      <text class="cls-8" transform="translate(73.21 278.68)"><tspan x="0" y="0">1</tspan></text>
      <text class="cls-8" transform="translate(164.6 280.18)"><tspan x="0" y="0">2</tspan></text>
      <text class="cls-8" transform="translate(254.7 280.18)"><tspan x="0" y="0">3</tspan></text>
      <text class="cls-8" transform="translate(344.6 280.18)"><tspan x="0" y="0">4</tspan></text>
      <text class="cls-8" transform="translate(434.7 280.18)"><tspan x="0" y="0">5</tspan></text>
      <text class="cls-8" transform="translate(524.6 280.18)"><tspan x="0" y="0">6</tspan></text>
      <text class="cls-8" transform="translate(614.7 280.18)"><tspan x="0" y="0">7</tspan></text>
      <text class="cls-8" transform="translate(704.6 280.18)"><tspan x="0" y="0">8</tspan></text>
    </g>
  </g>
  <text class="cls-24" transform="translate(13.59 407.29)"><tspan x="0" y="0">EΔ</tspan><tspan class="cls-34" x="23.42" y="0">Q</tspan><tspan x="36.02" y="0">Y</tspan></text>
  <line class="cls-35" x1="74.7" y1="518.27" x2="769.7" y2="518.27"/>
  <line class="cls-29" x1="16.28" y1="368.88" x2="777.51" y2="368.88"/>
  <line class="cls-29" x1="16.28" y1="122.2" x2="777.51" y2="122.2"/>
  <line class="cls-35" x1="74.7" y1="263.29" x2="769.7" y2="263.29"/>
  <path class="cls-31" d="m282.96,254.09c-.55-2.97.03-4.69,2.09-6.23,1.86-1.39,4.92-.33,5.78,1.24.73,1.31,1.54,4.09-.47,6.49-.67.8-1.59,1.4-2.62,1.57-2.46.41-4.48-1.4-4.79-3.06Zm2.23.5c1.14,1.13,3.41,1.11,4.45-.7,1.02-1.77.06-3.66-.63-4.27-.55-.49-2.53-1.19-3.76.41-1.11,1.45-.84,3.8-.07,4.56Z"/>
  <g>
    <path class="cls-31" d="m107.2,208.26c1.45,0,1.45-2.25,0-2.25s-1.45,2.25,0,2.25h0Z"/>
    <g>
      <path class="cls-31" d="m137.28,209.64c3.23,0,3.23-5,0-5s-3.23,5,0,5h0Z"/>
      <path class="cls-31" d="m107.2,179.64c3.23,0,3.23-5,0-5s-3.23,5,0,5h0Z"/>
      <path class="cls-31" d="m77.12,209.64c3.23,0,3.23-5,0-5s-3.23,5,0,5h0Z"/>
      <path class="cls-31" d="m107.2,239.64c3.23,0,3.23-5,0-5s-3.23,5,0,5h0Z"/>
    </g>
  </g>
  <g>
    <path class="cls-31" d="m227.28,209.64c3.23,0,3.23-5,0-5s-3.23,5,0,5h0Z"/>
    <path class="cls-31" d="m197.2,179.64c3.23,0,3.23-5,0-5s-3.23,5,0,5h0Z"/>
    <path class="cls-31" d="m167.12,209.64c3.23,0,3.23-5,0-5s-3.23,5,0,5h0Z"/>
    <path class="cls-31" d="m197.2,239.64c3.23,0,3.23-5,0-5s-3.23,5,0,5h0Z"/>
    <path class="cls-31" d="m197.2,208.26c1.45,0,1.45-2.25,0-2.25s-1.45,2.25,0,2.25h0Z"/>
  </g>
  <g>
    <path class="cls-31" d="m317.28,209.64c3.23,0,3.23-5,0-5s-3.23,5,0,5h0Z"/>
    <path class="cls-31" d="m287.2,179.64c3.23,0,3.23-5,0-5s-3.23,5,0,5h0Z"/>
    <path class="cls-31" d="m257.12,209.64c3.23,0,3.23-5,0-5s-3.23,5,0,5h0Z"/>
    <path class="cls-31" d="m287.2,239.64c3.23,0,3.23-5,0-5s-3.23,5,0,5h0Z"/>
    <path class="cls-31" d="m287.2,208.26c1.45,0,1.45-2.25,0-2.25s-1.45,2.25,0,2.25h0Z"/>
  </g>
  <g>
    <path class="cls-31" d="m407.28,209.64c3.23,0,3.23-5,0-5s-3.23,5,0,5h0Z"/>
    <path class="cls-31" d="m377.2,179.64c3.23,0,3.23-5,0-5s-3.23,5,0,5h0Z"/>
    <path class="cls-31" d="m347.12,209.64c3.23,0,3.23-5,0-5s-3.23,5,0,5h0Z"/>
    <path class="cls-31" d="m377.2,239.64c3.23,0,3.23-5,0-5s-3.23,5,0,5h0Z"/>
    <path class="cls-31" d="m377.2,208.26c1.45,0,1.45-2.25,0-2.25s-1.45,2.25,0,2.25h0Z"/>
  </g>
  <path class="cls-31" d="m110.32,248.07c-.42-.02-1.11-.04-1.33-.05-2.5-.16-3.99,1.77-4.23,4.08-.08.74.07,1.24.63,1.77.96.88,2.65,1.08,3.68.33.29-.21.56-.57.67-.92.23-.7-.06-1.13-.73-1.15-.55-.02-1.11.07-1.67.1-.47.02-.98.05-1.11-.62-.11-.57.35-1.04,1.07-1.13.6-.07,1.2-.08,1.8-.13.41-.04.92,0,1.41-.03.86,1.57.93,2.45.34,3.91-.66,1.62-1.9,2.23-3.38,2.2-.76-.02-1.61-.21-2.26-.62-2.32-1.47-2.63-3.71-1.3-6.4,1.3-3.01,4.25-2.97,5.53-2.98.84,0,1.06.15.85,1.66Z"/>
  <path class="cls-31" d="m197.18,246.42c-1.33,0-3.23,1.68-3.23,5,0,2.56,1.22,5,3.23,5s3.27-2.44,3.27-5c0-3.48-1.94-5-3.27-5Zm.01,1.37c.96,0,1.64,1.13,1.7,1.93.02.3,0,.81-.55.81h-2.33c-.46,0-.51-.5-.5-.76.07-.8.81-1.98,1.69-1.98Zm0,7.26c-1.08,0-1.72-1.28-1.79-2.08-.01-.25,0-.76.5-.76h2.53c.56,0,.58.5.55.81-.06.8-.72,2.03-1.8,2.03Z"/>
  <path class="cls-31" d="m378.17,248.15h-3.64c-1.34,0-1.31-1.73,0-1.73,5.4,0,5.35.02,5.67.38.23.27.43.73.15,1.14-1.71,2.48-4.54,6.52-4.54,6.52,0,0,3.43,0,4.33,0,1.35,0,1.4,1.91.13,1.91-8.37,0-9.53,1.13-2.09-8.23Z"/>
  <path class="cls-39" d="m118.46,241.28c11.89,0,22.68-9.57,22.72-21.38l2.41,2.65s1.11-1.01.54-1.85c-.65-.95-3.93-4.08-3.93-4.08,0,0-3.32,2.66-4.21,3.8-.63.81.43,1.89.43,1.89l2.78-2.61c-.03,8.93-7.32,18.79-20.74,19.5-1.57.08-1.62,2.09,0,2.08Z"/>
  <path class="cls-33" d="m112.88,236.8c11.89,0,22.68-9.57,22.72-21.38l2.41,2.65s1.11-1.01.54-1.85c-.65-.95-3.93-4.08-3.93-4.08,0,0-3.32,2.66-4.21,3.8-.63.81.43,1.89.43,1.89l2.78-2.61c-.03,8.93-7.32,18.79-20.74,19.5-1.57.08-1.62,2.09,0,2.08Z"/>
  <path class="cls-33" d="m224.29,203.31c0-11.89-9.57-22.68-21.38-22.72l2.65-2.41s-1.01-1.11-1.85-.54c-.95.65-4.08,3.93-4.08,3.93,0,0,2.66,3.32,3.8,4.21.81.63,1.89-.43,1.89-.43l-2.61-2.78c8.93.03,18.79,7.32,19.5,20.74.08,1.57,2.09,1.62,2.08,0Z"/>
  <path class="cls-39" d="m314.23,210.04c-19.4,0-21.27,1.3-21.27,20.15l-2.66-2.72s-1.1,1.04-.5,1.87c.85,1.18,4.08,3.95,4.08,3.95,0,0,3.38-3.01,4.07-3.95.6-.82-.48-1.87-.48-1.87l-2.56,2.72c0-17.27,1-18.08,19.29-18.08,1.51,0,1.51-2.07.03-2.07Z"/>
  <path class="cls-39" d="m372.95,237.92c0-19.4-1.3-21.27-20.15-21.27l2.72-2.66s-1.04-1.1-1.87-.5c-1.18.85-3.95,4.08-3.95,4.08,0,0,3.01,3.38,3.95,4.07.82.6,1.87-.48,1.87-.48l-2.72-2.56c17.27,0,18.08,1,18.08,19.29,0,1.51,2.07,1.51,2.07.03Z"/>
  <path class="cls-33" d="m375.35,207.59v-5.76c0-.48-.4-.87-.89-.87s-.89.39-.89.87v1.92h-21.85c-.48,0-.87.38-.87.85v.32c0,.46.39.85.87.85h21.85v1.82c0,.48.4.87.89.87s.89-.39.89-.87Z"/>
  <path class="cls-39" d="m375.35,212.44v-5.76c0-.48-.4-.87-.89-.87s-.89.39-.89.87v1.92h-21.85c-.48,0-.87.38-.87.85v.32c0,.46.39.85.87.85h21.85v1.82c0,.48.4.87.89.87s.89-.39.89-.87Z"/>
  <path class="cls-33" d="m109.32,206.47v5.76c0,.48.4.87.89.87s.89-.39.89-.87v-1.92h21.85c.48,0,.87-.38.87-.85v-.32c0-.46-.39-.85-.87-.85h-21.85v-1.82c0-.48-.4-.87-.89-.87s-.89.39-.89.87Z"/>
  <path class="cls-33" d="m200.08,204.86h-5.76c-.48,0-.87-.4-.87-.89,0-.49.39-.89.87-.89h1.92v-21.85c0-.48.38-.87.85-.87h.32c.46,0,.85.39.85.87v21.85h1.82c.48,0,.87.4.87.89,0,.49-.39.89-.87.89Z"/>
  <path class="cls-33" d="m281.52,179.18c-11.89,0-22.68,9.57-22.72,21.38l-2.41-2.65s-1.11,1.01-.54,1.85c.65.95,3.93,4.08,3.93,4.08,0,0,3.32-2.66,4.21-3.8.63-.81-.43-1.89-.43-1.89l-2.78,2.61c.03-8.93,7.32-18.79,20.74-19.5,1.57-.08,1.62-2.09,0-2.08Z"/>
  <path class="cls-33" d="m284.93,204.26v5.76c0,.48-.4.87-.89.87s-.89-.39-.89-.87v-1.92h-21.85c-.48,0-.87-.38-.87-.85v-.32c0-.46.39-.85.87-.85h21.85v-1.82c0-.48.4-.87.89-.87s.89.39.89.87Z"/>
  <path class="cls-39" d="m284.32,233.91h5.76c.48,0,.87-.4.87-.89,0-.49-.39-.89-.87-.89h-1.92v-21.85c0-.48-.38-.87-.85-.87h-.32c-.46,0-.85.39-.85.87v21.85h-1.82c-.48,0-.87.4-.87.89s.39.89.87.89Z"/>
  <path class="cls-39" d="m199.48,210.02v-5.76c0-.48.4-.87.89-.87s.89.39.89.87v1.92h21.85c.48,0,.87.38.87.85v.32c0,.46-.39.85-.87.85h-21.85v1.82c0,.48-.4.87-.89.87s-.89-.39-.89-.87Z"/>
  <path class="cls-39" d="m109.32,201.62v5.76c0,.48.4.87.89.87s.89-.39.89-.87v-1.92h21.85c.48,0,.87-.38.87-.85v-.32c0-.46-.39-.85-.87-.85h-21.85v-1.82c0-.48-.4-.87-.89-.87s-.89.39-.89.87Z"/>
  <g>
    <path class="cls-31" d="m464.7,237.22c0,3.23,5,3.23,5,0s-5-3.23-5,0h0Z"/>
    <path class="cls-31" d="m494.7,207.14c0,3.23,5,3.23,5,0s-5-3.23-5,0h0Z"/>
    <path class="cls-31" d="m464.7,177.06c0,3.23,5,3.23,5,0s-5-3.23-5,0h0Z"/>
    <path class="cls-31" d="m434.7,207.14c0,3.23,5,3.23,5,0s-5-3.23-5,0h0Z"/>
    <path class="cls-31" d="m467.2,208.26c1.45,0,1.45-2.25,0-2.25s-1.45,2.25,0,2.25h0Z"/>
  </g>
  <g>
    <path class="cls-31" d="m554.7,237.22c0,3.23,5,3.23,5,0s-5-3.23-5,0h0Z"/>
    <path class="cls-31" d="m584.7,207.14c0,3.23,5,3.23,5,0s-5-3.23-5,0h0Z"/>
    <path class="cls-31" d="m554.7,177.06c0,3.23,5,3.23,5,0s-5-3.23-5,0h0Z"/>
    <path class="cls-31" d="m524.7,207.14c0,3.23,5,3.23,5,0s-5-3.23-5,0h0Z"/>
    <path class="cls-31" d="m557.2,208.26c1.45,0,1.45-2.25,0-2.25s-1.45,2.25,0,2.25h0Z"/>
  </g>
  <g>
    <path class="cls-31" d="m644.7,237.22c0,3.23,5,3.23,5,0s-5-3.23-5,0h0Z"/>
    <path class="cls-31" d="m674.7,207.14c0,3.23,5,3.23,5,0s-5-3.23-5,0h0Z"/>
    <path class="cls-31" d="m644.7,177.06c0,3.23,5,3.23,5,0s-5-3.23-5,0h0Z"/>
    <path class="cls-31" d="m614.7,207.14c0,3.23,5,3.23,5,0s-5-3.23-5,0h0Z"/>
    <path class="cls-31" d="m647.2,208.26c1.45,0,1.45-2.25,0-2.25s-1.45,2.25,0,2.25h0Z"/>
  </g>
  <g>
    <path class="cls-31" d="m734.7,237.22c0,3.23,5,3.23,5,0s-5-3.23-5,0h0Z"/>
    <path class="cls-31" d="m764.7,207.14c0,3.23,5,3.23,5,0s-5-3.23-5,0h0Z"/>
    <path class="cls-31" d="m734.7,177.06c0,3.23,5,3.23,5,0s-5-3.23-5,0h0Z"/>
    <path class="cls-31" d="m704.7,207.14c0,3.23,5,3.23,5,0s-5-3.23-5,0h0Z"/>
    <path class="cls-31" d="m737.2,208.26c1.45,0,1.45-2.25,0-2.25s-1.45,2.25,0,2.25h0Z"/>
  </g>
  <path class="cls-31" d="m557.19,247.79c.96,0,1.64,1.13,1.7,1.93.02.3,0,.81-.55.81h-2.33c-.46,0-.51-.5-.5-.76.07-.8.81-1.98,1.69-1.98Z"/>
  <path class="cls-39" d="m433.05,218.4c0,11.89,9.57,22.68,21.38,22.72l-2.65,2.41s1.01,1.11,1.85.54c.95-.65,4.08-3.93,4.08-3.93,0,0-2.66-3.32-3.8-4.21-.81-.63-1.89.43-1.89.43l2.61,2.78c-8.93-.03-18.79-7.32-19.5-20.74-.08-1.57-2.09-1.62-2.08,0Z"/>
  <path class="cls-33" d="m437.54,212.82c0,11.89,9.57,22.68,21.38,22.72l-2.65,2.41s1.01,1.11,1.85.54c.95-.65,4.08-3.93,4.08-3.93,0,0-2.66-3.32-3.8-4.21-.81-.63-1.89.43-1.89.43l2.61,2.78c-8.93-.03-18.79-7.32-19.5-20.74-.08-1.57-2.09-1.62-2.08,0Z"/>
  <path class="cls-39" d="m561.03,234.22c11.89,0,22.68-9.57,22.72-21.38l2.41,2.65s1.11-1.01.54-1.85c-.65-.95-3.93-4.08-3.93-4.08,0,0-3.32,2.66-4.21,3.8-.63.81.43,1.89.43,1.89l2.78-2.61c-.03,8.93-7.32,18.79-20.74,19.5-1.57.08-1.62,2.09,0,2.08Z"/>
  <path class="cls-33" d="m644.3,234.17c0-19.4-1.3-21.27-20.15-21.27l2.72-2.66s-1.04-1.1-1.87-.5c-1.18.85-3.95,4.08-3.95,4.08,0,0,3.01,3.38,3.95,4.07.82.6,1.87-.48,1.87-.48l-2.72-2.56c17.27,0,18.08,1,18.08,19.29,0,1.51,2.07,1.51,2.07.03Z"/>
  <path class="cls-33" d="m706.42,202.88c19.4,0,21.27-1.3,21.27-20.15l2.66,2.72s1.1-1.04.5-1.87c-.85-1.18-4.08-3.95-4.08-3.95,0,0-3.38,3.01-4.07,3.95-.6.82.48,1.87.48,1.87l2.56-2.72c0,17.27-1,18.08-19.29,18.08-1.51,0-1.51,2.07-.03,2.07Z"/>
  <path class="cls-39" d="m736.74,205.28h5.76c.48,0,.87-.4.87-.89,0-.49-.39-.89-.87-.89h-1.92v-21.85c0-.48-.38-.87-.85-.87h-.32c-.46,0-.85.39-.85.87v21.85h-1.82c-.48,0-.87.4-.87.89s.39.89.87.89Z"/>
  <path class="cls-33" d="m731.9,205.28h5.76c.48,0,.87-.4.87-.89s-.39-.89-.87-.89h-1.92v-21.85c0-.48-.38-.87-.85-.87h-.32c-.46,0-.85.39-.85.87v21.85h-1.82c-.48,0-.87.4-.87.89s.39.89.87.89Z"/>
  <path class="cls-33" d="m467.87,209.25h-5.76c-.48,0-.87.4-.87.89,0,.49.39.89.87.89h1.92v21.85c0,.48.38.87.85.87h.32c.46,0,.85-.39.85-.87v-21.85h1.82c.48,0,.87-.4.87-.89,0-.49-.39-.89-.87-.89Z"/>
  <path class="cls-39" d="m559.48,210.02v-5.76c0-.48.4-.87.89-.87s.89.39.89.87v1.92h21.85c.48,0,.87.38.87.85v.32c0,.46-.39.85-.87.85h-21.85v1.82c0,.48-.4.87-.89.87s-.89-.39-.89-.87Z"/>
  <path class="cls-39" d="m675.16,201.46c0-11.89-9.57-22.68-21.38-22.72l2.65-2.41s-1.01-1.11-1.85-.54c-.95.65-4.08,3.93-4.08,3.93,0,0,2.66,3.32,3.8,4.21.81.63,1.89-.43,1.89-.43l-2.61-2.78c8.93.03,18.79,7.32,19.5,20.74.08,1.57,2.09,1.62,2.08,0Z"/>
  <path class="cls-39" d="m650.08,204.86h-5.76c-.48,0-.87-.4-.87-.89,0-.49.39-.89.87-.89h1.92v-21.85c0-.48.38-.87.85-.87h.32c.46,0,.85.39.85.87v21.85h1.82c.48,0,.87.4.87.89,0,.49-.39.89-.87.89Z"/>
  <path class="cls-33" d="m620.43,204.26v5.76c0,.48.4.87.89.87.49,0,.89-.39.89-.87v-1.92h21.85c.48,0,.87-.38.87-.85v-.32c0-.46-.39-.85-.87-.85h-21.85v-1.82c0-.48-.4-.87-.89-.87s-.89.39-.89.87Z"/>
  <path class="cls-33" d="m554.32,209.41h5.76c.48,0,.87.4.87.89,0,.49-.39.89-.87.89h-1.92v21.85c0,.48-.38.87-.85.87h-.32c-.46,0-.85-.39-.85-.87v-21.85h-1.82c-.48,0-.87-.4-.87-.89s.39-.89.87-.89Z"/>
  <path class="cls-39" d="m472.72,209.25h-5.76c-.48,0-.87.4-.87.89s.39.89.87.89h1.92v21.85c0,.48.38.87.85.87h.32c.46,0,.85-.39.85-.87v-21.85h1.82c.48,0,.87-.4.87-.89s-.39-.89-.87-.89Z"/>
  <g>
    <path class="cls-31" d="m77.12,304.64c-3.23,0-3.23,5,0,5,3.23,0,3.23-5,0-5h0Z"/>
    <path class="cls-31" d="m107.2,334.64c-3.23,0-3.23,5,0,5s3.23-5,0-5h0Z"/>
    <path class="cls-31" d="m137.28,304.64c-3.23,0-3.23,5,0,5s3.23-5,0-5h0Z"/>
    <path class="cls-31" d="m107.2,274.64c-3.23,0-3.23,5,0,5s3.23-5,0-5h0Z"/>
    <path class="cls-31" d="m107.2,308.26c1.45,0,1.45-2.25,0-2.25s-1.45,2.25,0,2.25h0Z"/>
  </g>
  <g>
    <path class="cls-31" d="m167.12,304.64c-3.23,0-3.23,5,0,5,3.23,0,3.23-5,0-5h0Z"/>
    <path class="cls-31" d="m197.2,334.64c-3.23,0-3.23,5,0,5s3.23-5,0-5h0Z"/>
    <path class="cls-31" d="m227.28,304.64c-3.23,0-3.23,5,0,5s3.23-5,0-5h0Z"/>
    <path class="cls-31" d="m197.2,274.64c-3.23,0-3.23,5,0,5s3.23-5,0-5h0Z"/>
    <path class="cls-31" d="m197.2,308.26c1.45,0,1.45-2.25,0-2.25s-1.45,2.25,0,2.25h0Z"/>
  </g>
  <g>
    <path class="cls-31" d="m257.12,304.64c-3.23,0-3.23,5,0,5s3.23-5,0-5h0Z"/>
    <path class="cls-31" d="m287.2,334.64c-3.23,0-3.23,5,0,5s3.23-5,0-5h0Z"/>
    <path class="cls-31" d="m317.28,304.64c-3.23,0-3.23,5,0,5s3.23-5,0-5h0Z"/>
    <path class="cls-31" d="m287.2,274.64c-3.23,0-3.23,5,0,5,3.23,0,3.23-5,0-5h0Z"/>
    <path class="cls-31" d="m287.2,308.26c1.45,0,1.45-2.25,0-2.25s-1.45,2.25,0,2.25h0Z"/>
  </g>
  <g>
    <path class="cls-31" d="m347.12,304.64c-3.23,0-3.23,5,0,5s3.23-5,0-5h0Z"/>
    <path class="cls-31" d="m377.2,334.64c-3.23,0-3.23,5,0,5s3.23-5,0-5h0Z"/>
    <path class="cls-31" d="m407.28,304.64c-3.23,0-3.23,5,0,5s3.23-5,0-5h0Z"/>
    <path class="cls-31" d="m377.2,274.64c-3.23,0-3.23,5,0,5s3.23-5,0-5h0Z"/>
    <path class="cls-31" d="m377.2,308.26c1.45,0,1.45-2.25,0-2.25s-1.45,2.25,0,2.25h0Z"/>
  </g>
  <path class="cls-39" d="m95.94,272.99c-11.89,0-22.68,9.57-22.72,21.38l-2.41-2.65s-1.11,1.01-.54,1.85c.65.95,3.93,4.08,3.93,4.08,0,0,3.32-2.66,4.21-3.8.63-.81-.43-1.89-.43-1.89l-2.78,2.61c.03-8.93,7.32-18.79,20.74-19.5,1.57-.08,1.62-2.09,0-2.08Z"/>
  <path class="cls-33" d="m101.52,277.47c-11.89,0-22.68,9.57-22.72,21.38l-2.41-2.65s-1.11,1.01-.54,1.85c.65.95,3.93,4.08,3.93,4.08,0,0,3.32-2.66,4.21-3.8.63-.81-.43-1.89-.43-1.89l-2.78,2.61c.03-8.93,7.32-18.79,20.74-19.5,1.57-.08,1.62-2.09,0-2.08Z"/>
  <path class="cls-39" d="m170.12,310.97c0,11.89,9.57,22.68,21.38,22.72l-2.65,2.41s1.01,1.11,1.85.54c.95-.65,4.08-3.93,4.08-3.93,0,0-2.66-3.32-3.8-4.21-.81-.63-1.89.43-1.89.43l2.61,2.78c-8.93-.03-18.79-7.32-19.5-20.74-.08-1.57-2.09-1.62-2.08,0Z"/>
  <path class="cls-33" d="m260.17,304.24c19.4,0,21.27-1.3,21.27-20.15l2.66,2.72s1.1-1.04.5-1.87c-.85-1.18-4.08-3.95-4.08-3.95,0,0-3.38,3.01-4.07,3.95-.6.82.48,1.87.48,1.87l2.56-2.72c0,17.27-1,18.08-19.29,18.08-1.51,0-1.51,2.07-.03,2.07Z"/>
  <path class="cls-33" d="m381.46,276.35c0,19.4,1.3,21.27,20.15,21.27l-2.72,2.66s1.04,1.1,1.87.5c1.18-.85,3.95-4.08,3.95-4.08,0,0-3.01-3.38-3.95-4.07-.82-.6-1.87.48-1.87.48l2.72,2.56c-17.27,0-18.08-1-18.08-19.29,0-1.51-2.07-1.51-2.07-.03Z"/>
  <path class="cls-39" d="m379.06,306.68v5.76c0,.48.4.87.89.87.49,0,.89-.39.89-.87v-1.92h21.85c.48,0,.87-.38.87-.85v-.32c0-.46-.39-.85-.87-.85h-21.85v-1.82c0-.48-.4-.87-.89-.87s-.89.39-.89.87Z"/>
  <path class="cls-33" d="m379.06,301.83v5.76c0,.48.4.87.89.87s.89-.39.89-.87v-1.92h21.85c.48,0,.87-.38.87-.85v-.32c0-.46-.39-.85-.87-.85h-21.85v-1.82c0-.48-.4-.87-.89-.87s-.89.39-.89.87Z"/>
  <path class="cls-33" d="m105.08,307.8v-5.76c0-.48-.4-.87-.89-.87s-.89.39-.89.87v1.92h-21.85c-.48,0-.87.38-.87.85v.32c0,.46.39.85.87.85h21.85v1.82c0,.48.4.87.89.87s.89-.39.89-.87Z"/>
  <path class="cls-39" d="m194.32,309.41h5.76c.48,0,.87.4.87.89,0,.49-.39.89-.87.89h-1.92v21.85c0,.48-.38.87-.85.87h-.32c-.46,0-.85-.39-.85-.87v-21.85h-1.82c-.48,0-.87-.4-.87-.89s.39-.89.87-.89Z"/>
  <path class="cls-39" d="m292.88,335.09c11.89,0,22.68-9.57,22.72-21.38l2.41,2.65s1.11-1.01.54-1.85c-.65-.95-3.93-4.08-3.93-4.08,0,0-3.32,2.66-4.21,3.8-.63.81.43,1.89.43,1.89l2.78-2.61c-.03,8.93-7.32,18.79-20.74,19.5-1.57.08-1.62,2.09,0,2.08Z"/>
  <path class="cls-39" d="m289.48,310.02v-5.76c0-.48.4-.87.89-.87s.89.39.89.87v1.92h21.85c.48,0,.87.38.87.85v.32c0,.46-.39.85-.87.85h-21.85v1.82c0,.48-.4.87-.89.87s-.89-.39-.89-.87Z"/>
  <path class="cls-33" d="m290.08,280.36h-5.76c-.48,0-.87.4-.87.89s.39.89.87.89h1.92v21.85c0,.48.38.87.85.87h.32c.46,0,.85-.39.85-.87v-21.85h1.82c.48,0,.87-.4.87-.89s-.39-.89-.87-.89Z"/>
  <path class="cls-33" d="m194.93,304.26v5.76c0,.48-.4.87-.89.87-.49,0-.89-.39-.89-.87v-1.92h-21.85c-.48,0-.87-.38-.87-.85v-.32c0-.46.39-.85.87-.85h21.85v-1.82c0-.48.4-.87.89-.87s.89.39.89.87Z"/>
  <path class="cls-39" d="m105.08,312.65v-5.76c0-.48-.4-.87-.89-.87s-.89.39-.89.87v1.92h-21.85c-.48,0-.87.38-.87.85v.32c0,.46.39.85.87.85h21.85v1.82c0,.48.4.87.89.87s.89-.39.89-.87Z"/>
  <g>
    <path class="cls-31" d="m469.7,277.06c0-3.23-5-3.23-5,0s5,3.23,5,0h0Z"/>
    <path class="cls-31" d="m439.7,307.14c0-3.23-5-3.23-5,0,0,3.23,5,3.23,5,0h0Z"/>
    <path class="cls-31" d="m469.7,337.22c0-3.23-5-3.23-5,0s5,3.23,5,0h0Z"/>
    <path class="cls-31" d="m499.7,307.14c0-3.23-5-3.23-5,0s5,3.23,5,0h0Z"/>
    <path class="cls-31" d="m467.2,308.26c1.45,0,1.45-2.25,0-2.25s-1.45,2.25,0,2.25h0Z"/>
  </g>
  <g>
    <path class="cls-31" d="m559.7,277.06c0-3.23-5-3.23-5,0s5,3.23,5,0h0Z"/>
    <path class="cls-31" d="m529.7,307.14c0-3.23-5-3.23-5,0s5,3.23,5,0h0Z"/>
    <path class="cls-31" d="m559.7,337.22c0-3.23-5-3.23-5,0s5,3.23,5,0h0Z"/>
    <path class="cls-31" d="m589.7,307.14c0-3.23-5-3.23-5,0,0,3.23,5,3.23,5,0h0Z"/>
    <path class="cls-31" d="m557.2,308.26c1.45,0,1.45-2.25,0-2.25s-1.45,2.25,0,2.25h0Z"/>
  </g>
  <g>
    <path class="cls-31" d="m649.7,277.06c0-3.23-5-3.23-5,0,0,3.23,5,3.23,5,0h0Z"/>
    <path class="cls-31" d="m619.7,307.14c0-3.23-5-3.23-5,0,0,3.23,5,3.23,5,0h0Z"/>
    <path class="cls-31" d="m649.7,337.22c0-3.23-5-3.23-5,0s5,3.23,5,0h0Z"/>
    <path class="cls-31" d="m679.7,307.14c0-3.23-5-3.23-5,0,0,3.23,5,3.23,5,0h0Z"/>
    <path class="cls-31" d="m647.2,308.26c1.45,0,1.45-2.25,0-2.25s-1.45,2.25,0,2.25h0Z"/>
  </g>
  <g>
    <path class="cls-31" d="m739.7,277.06c0-3.23-5-3.23-5,0s5,3.23,5,0h0Z"/>
    <path class="cls-31" d="m709.7,307.14c0-3.23-5-3.23-5,0,0,3.23,5,3.23,5,0h0Z"/>
    <path class="cls-31" d="m739.7,337.22c0-3.23-5-3.23-5,0s5,3.23,5,0h0Z"/>
    <path class="cls-31" d="m769.7,307.14c0-3.23-5-3.23-5,0s5,3.23,5,0h0Z"/>
    <path class="cls-31" d="m737.2,308.26c1.45,0,1.45-2.25,0-2.25s-1.45,2.25,0,2.25h0Z"/>
  </g>
  <path class="cls-39" d="m501.35,295.87c0-11.89-9.57-22.68-21.38-22.72l2.65-2.41s-1.01-1.11-1.85-.54c-.95.65-4.08,3.93-4.08,3.93,0,0,2.66,3.32,3.8,4.21.81.63,1.89-.43,1.89-.43l-2.61-2.78c8.93.03,18.79,7.32,19.5,20.74.08,1.57,2.09,1.62,2.08,0Z"/>
  <path class="cls-33" d="m496.87,301.46c0-11.89-9.57-22.68-21.38-22.72l2.65-2.41s-1.01-1.11-1.85-.54c-.95.65-4.08,3.93-4.08,3.93,0,0,2.66,3.32,3.8,4.21.81.63,1.89-.43,1.89-.43l-2.61-2.78c8.93.03,18.79,7.32,19.5,20.74.08,1.57,2.09,1.62,2.08,0Z"/>
  <path class="cls-33" d="m553.37,280.05c-11.89,0-22.68,9.57-22.72,21.38l-2.41-2.65s-1.11,1.01-.54,1.85c.65.95,3.93,4.08,3.93,4.08,0,0,3.32-2.66,4.21-3.8.63-.81-.43-1.89-.43-1.89l-2.78,2.61c.03-8.93,7.32-18.79,20.74-19.5,1.57-.08,1.62-2.09,0-2.08Z"/>
  <path class="cls-39" d="m650.1,280.1c0,19.4,1.3,21.27,20.15,21.27l-2.72,2.66s1.04,1.1,1.87.5c1.18-.85,3.95-4.08,3.95-4.08,0,0-3.01-3.38-3.95-4.07-.82-.6-1.87.48-1.87.48l2.72,2.56c-17.27,0-18.08-1-18.08-19.29,0-1.51-2.07-1.51-2.07-.03Z"/>
  <path class="cls-39" d="m767.99,311.39c-19.4,0-21.27,1.3-21.27,20.15l-2.66-2.72s-1.1,1.04-.5,1.87c.85,1.18,4.08,3.95,4.08,3.95,0,0,3.38-3.01,4.07-3.95.6-.82-.48-1.87-.48-1.87l-2.56,2.72c0-17.27,1-18.08,19.29-18.08,1.51,0,1.51-2.07.03-2.07Z"/>
  <path class="cls-33" d="m737.66,308.99h-5.76c-.48,0-.87.4-.87.89,0,.49.39.89.87.89h1.92v21.85c0,.48.38.87.85.87h.32c.46,0,.85-.39.85-.87v-21.85h1.82c.48,0,.87-.4.87-.89s-.39-.89-.87-.89Z"/>
  <path class="cls-39" d="m742.51,308.99h-5.76c-.48,0-.87.4-.87.89s.39.89.87.89h1.92v21.85c0,.48.38.87.85.87h.32c.46,0,.85-.39.85-.87v-21.85h1.82c.48,0,.87-.4.87-.89s-.39-.89-.87-.89Z"/>
  <path class="cls-39" d="m466.53,305.02h5.76c.48,0,.87-.4.87-.89s-.39-.89-.87-.89h-1.92v-21.85c0-.48-.38-.87-.85-.87h-.32c-.46,0-.85.39-.85.87v21.85h-1.82c-.48,0-.87.4-.87.89,0,.49.39.89.87.89Z"/>
  <path class="cls-33" d="m554.93,304.26v5.76c0,.48-.4.87-.89.87s-.89-.39-.89-.87v-1.92h-21.85c-.48,0-.87-.38-.87-.85v-.32c0-.46.39-.85.87-.85h21.85v-1.82c0-.48.4-.87.89-.87s.89.39.89.87Z"/>
  <path class="cls-33" d="m619.24,312.82c0,11.89,9.57,22.68,21.38,22.72l-2.65,2.41s1.01,1.11,1.85.54c.95-.65,4.08-3.93,4.08-3.93,0,0-2.66-3.32-3.8-4.21-.81-.63-1.89.43-1.89.43l2.61,2.78c-8.93-.03-18.79-7.32-19.5-20.74-.08-1.57-2.09-1.62-2.08,0Z"/>
  <path class="cls-33" d="m644.32,309.41h5.76c.48,0,.87.4.87.89,0,.49-.39.89-.87.89h-1.92v21.85c0,.48-.38.87-.85.87h-.32c-.46,0-.85-.39-.85-.87v-21.85h-1.82c-.48,0-.87-.4-.87-.89,0-.49.39-.89.87-.89Z"/>
  <path class="cls-39" d="m673.98,310.02v-5.76c0-.48-.4-.87-.89-.87-.49,0-.89.39-.89.87v1.92h-21.85c-.48,0-.87.38-.87.85v.32c0,.46.39.85.87.85h21.85v1.82c0,.48.4.87.89.87s.89-.39.89-.87Z"/>
  <path class="cls-39" d="m560.08,304.86h-5.76c-.48,0-.87-.4-.87-.89,0-.49.39-.89.87-.89h1.92v-21.85c0-.48.38-.87.85-.87h.32c.46,0,.85.39.85.87v21.85h1.82c.48,0,.87.4.87.89,0,.49-.39.89-.87.89Z"/>
  <path class="cls-33" d="m461.69,305.02h5.76c.48,0,.87-.4.87-.89,0-.49-.39-.89-.87-.89h-1.92v-21.85c0-.48-.38-.87-.85-.87h-.32c-.46,0-.85.39-.85.87v21.85h-1.82c-.48,0-.87.4-.87.89s.39.89.87.89Z"/>
</svg>