<?xml version="1.0" encoding="UTF-8"?>
<svg id="Layer_1" data-name="Layer 1" xmlns="http://www.w3.org/2000/svg" viewBox="0 0 612 792">
  <defs>
    <style>
      .cls-1 {
        letter-spacing: .02em;
      }

      .cls-2, .cls-3 {
        letter-spacing: -.02em;
      }

      .cls-4 {
        letter-spacing: -.01em;
      }

      .cls-5 {
        font-size: 14px;
      }

      .cls-5, .cls-6, .cls-7, .cls-8, .cls-9, .cls-10, .cls-11, .cls-12 {
        fill: #231f20;
      }

      .cls-5, .cls-6, .cls-13, .cls-11 {
        font-family: Cambria-Italic, Cambria;
        font-style: italic;
      }

      .cls-6 {
        font-size: 25px;
      }

      .cls-14, .cls-15, .cls-3, .cls-16, .cls-8, .cls-17, .cls-18, .cls-19, .cls-20 {
        font-family: Cambria, Cambria;
      }

      .cls-14, .cls-21 {
        letter-spacing: 0em;
      }

      .cls-22 {
        font-family: Cambria-Bold, Cambria;
        font-weight: 700;
      }

      .cls-15, .cls-23 {
        letter-spacing: -.01em;
      }

      .cls-7 {
        font-size: 45px;
      }

      .cls-7, .cls-10 {
        font-family: MonotypeCorsiva, 'Monotype Corsiva';
      }

      .cls-24 {
        letter-spacing: 0em;
      }

      .cls-25 {
        fill: #2e3192;
      }

      .cls-26 {
        stroke-width: 2px;
      }

      .cls-26, .cls-27 {
        fill: none;
        stroke: #231f20;
        stroke-miterlimit: 10;
      }

      .cls-28 {
        letter-spacing: -.08em;
      }

      .cls-16, .cls-29 {
        letter-spacing: -.02em;
      }

      .cls-8, .cls-9 {
        font-size: 15px;
      }

      .cls-30 {
        letter-spacing: -.08em;
      }

      .cls-31 {
        letter-spacing: 0em;
      }

      .cls-17, .cls-32 {
        letter-spacing: -.01em;
      }

      .cls-33 {
        letter-spacing: 0em;
      }

      .cls-34 {
        letter-spacing: 0em;
      }

      .cls-35 {
        letter-spacing: -.01em;
      }

      .cls-36 {
        fill: #ed1c24;
      }

      .cls-18 {
        letter-spacing: 0em;
      }

      .cls-10 {
        font-size: 35px;
      }

      .cls-11 {
        font-size: 12px;
      }

      .cls-37 {
        letter-spacing: 0em;
      }

      .cls-38 {
        letter-spacing: .01em;
      }

      .cls-39 {
        letter-spacing: -.03em;
      }

      .cls-27 {
        stroke-width: .5px;
      }

      .cls-40 {
        letter-spacing: -.01em;
      }

      .cls-41, .cls-20 {
        letter-spacing: -.02em;
      }

      .cls-42 {
        letter-spacing: -.02em;
      }
    </style>
  </defs>
  <line class="cls-26" x1="3.01" y1="99.26" x2="615.01" y2="99.26"/>
  <text class="cls-8" transform="translate(138.01 84.5)"><tspan x="0" y="0">A turn is a 180</tspan><tspan x="93.35" y="0">°</tspan><tspan x="98.98" y="0"> </tspan><tspan class="cls-32" x="102.28" y="0">r</tspan><tspan x="108.27" y="0">otation that occurs during a motion. </tspan></text>
  <g>
    <text class="cls-7" transform="translate(271.25 47.49)"><tspan x="0" y="0">Turns</tspan></text>
    <g>
      <path class="cls-25" d="m108.62,70.14l-2.8-2.02c13.48-1.56,14.07-19.47-1.32-21.77-1.65-.25-1.99,1.74-.2,1.99,12.65,1.78,13.03,16.49,1.26,18.04l2.06-2.77s-1.11-.85-1.78-.19c-.92.91-2.83,3.97-3.03,4.28.28.22,3.03,2.57,4.18,3.16.83.42,1.64-.73,1.64-.73Z"/>
      <g>
        <path class="cls-12" d="m99.93,79.96c3.22,0,3.22-5,0-5s-3.22,5,0,5h0Z"/>
        <path class="cls-12" d="m135.93,43.96c3.22,0,3.22-5,0-5s-3.22,5,0,5h0Z"/>
        <path class="cls-12" d="m99.93,7.96c3.22,0,3.22-5,0-5s-3.22,5,0,5h0Z"/>
        <path class="cls-12" d="m63.93,43.96c3.22,0,3.22-5,0-5s-3.22,5,0,5h0Z"/>
        <path class="cls-12" d="m99.93,42.58c1.45,0,1.45-2.25,0-2.25s-1.45,2.25,0,2.25h0Z"/>
      </g>
      <g>
        <rect class="cls-36" x="101.97" y="39.9" width="30.3" height="3.11" rx="1.19" ry="1.19"/>
        <rect class="cls-25" x="98.37" y="43.5" width="3.11" height="30.3" rx="1.19" ry="1.19"/>
      </g>
      <path class="cls-36" d="m128.61,50.15l-2.02-2.8c-1.56,13.48-19.47,14.07-21.77-1.32-.25-1.65,1.74-1.99,1.99-.2,1.78,12.65,16.49,13.03,18.04,1.26l-2.77,2.06s-.85-1.11-.19-1.78c.91-.92,3.97-2.83,4.28-3.03.22.28,2.57,3.03,3.16,4.18.42.83-.73,1.64-.73,1.64Z"/>
      <path class="cls-25" d="m128.61,32.77l-2.02,2.8c-1.56-13.48-19.47-14.07-21.77,1.32-.25,1.65,1.74,1.99,1.99.2,1.78-12.65,16.49-13.03,18.04-1.26l-2.77-2.06s-.85,1.11-.19,1.78c.91.92,3.97,2.83,4.28,3.03.22-.28,2.57-3.03,3.16-4.18.42-.83-.73-1.64-.73-1.64Z"/>
      <g>
        <path class="cls-12" d="m135.93,43.96c3.22,0,3.22-5,0-5s-3.22,5,0,5h0Z"/>
        <path class="cls-12" d="m99.93,7.96c3.22,0,3.22-5,0-5s-3.22,5,0,5h0Z"/>
        <path class="cls-12" d="m63.93,43.96c3.22,0,3.22-5,0-5s-3.22,5,0,5h0Z"/>
        <path class="cls-12" d="m99.93,79.96c3.22,0,3.22-5,0-5s-3.22,5,0,5h0Z"/>
        <path class="cls-12" d="m99.93,42.58c1.45,0,1.45-2.25,0-2.25s-1.45,2.25,0,2.25h0Z"/>
      </g>
      <g>
        <rect class="cls-36" x="98.37" y="9.11" width="3.11" height="30.3" rx="1.19" ry="1.19"/>
        <rect class="cls-25" x="101.97" y="39.9" width="30.3" height="3.11" rx="1.19" ry="1.19"/>
      </g>
      <path class="cls-36" d="m108.62,12.77l-2.8,2.02c13.48,1.56,14.07,19.47-1.32,21.77-1.65.25-1.99-1.74-.2-1.99,12.65-1.78,13.03-16.49,1.26-18.04l2.06,2.77s-1.11.85-1.78.19c-.92-.91-2.83-3.97-3.03-4.28.28-.22,3.03-2.57,4.18-3.16.83-.42,1.64.73,1.64.73Z"/>
      <path class="cls-25" d="m91.24,12.77l2.8,2.02c-13.48,1.56-14.07,19.47,1.32,21.77,1.65.25,1.99-1.74.2-1.99-12.65-1.78-13.03-16.49-1.26-18.04l-2.06,2.77s1.11.85,1.78.19c.92-.91,2.83-3.97,3.03-4.28-.28-.22-3.03-2.57-4.18-3.16-.83-.42-1.64.73-1.64.73Z"/>
      <g>
        <path class="cls-12" d="m99.93,7.96c3.22,0,3.22-5,0-5s-3.22,5,0,5h0Z"/>
        <path class="cls-12" d="m63.93,43.96c3.22,0,3.22-5,0-5s-3.22,5,0,5h0Z"/>
        <path class="cls-12" d="m99.93,79.96c3.22,0,3.22-5,0-5s-3.22,5,0,5h0Z"/>
        <path class="cls-12" d="m135.93,43.96c3.22,0,3.22-5,0-5s-3.22,5,0,5h0Z"/>
        <path class="cls-12" d="m99.93,42.58c1.45,0,1.45-2.25,0-2.25s-1.45,2.25,0,2.25h0Z"/>
      </g>
      <g>
        <rect class="cls-36" x="67.59" y="39.9" width="30.3" height="3.11" rx="1.19" ry="1.19"/>
        <rect class="cls-25" x="98.37" y="9.11" width="3.11" height="30.3" rx="1.19" ry="1.19"/>
      </g>
      <path class="cls-36" d="m71.24,32.77l2.02,2.8c1.56-13.48,19.47-14.07,21.77,1.32.25,1.65-1.74,1.99-1.99.2-1.78-12.65-16.49-13.03-18.04-1.26l2.77-2.06s.85,1.11.19,1.78c-.91.92-3.97,2.83-4.28,3.03-.22-.28-2.57-3.03-3.16-4.18-.42-.83.73-1.64.73-1.64Z"/>
      <path class="cls-25" d="m71.24,50.15l2.02-2.8c1.56,13.48,19.47,14.07,21.77-1.32.25-1.65-1.74-1.99-1.99-.2-1.78,12.65-16.49,13.03-18.04,1.26l2.77,2.06s.85-1.11.19-1.78c-.91-.92-3.97-2.83-4.28-3.03-.22.28-2.57,3.03-3.16,4.18-.42.83.73,1.64.73,1.64Z"/>
      <g>
        <path class="cls-12" d="m63.93,43.96c3.22,0,3.22-5,0-5s-3.22,5,0,5h0Z"/>
        <path class="cls-12" d="m99.93,79.96c3.22,0,3.22-5,0-5s-3.22,5,0,5h0Z"/>
        <path class="cls-12" d="m135.93,43.96c3.22,0,3.22-5,0-5s-3.22,5,0,5h0Z"/>
        <path class="cls-12" d="m99.93,7.96c3.22,0,3.22-5,0-5s-3.22,5,0,5h0Z"/>
        <path class="cls-12" d="m99.93,42.58c1.45,0,1.45-2.25,0-2.25s-1.45,2.25,0,2.25h0Z"/>
      </g>
      <g>
        <rect class="cls-36" x="98.37" y="43.5" width="3.11" height="30.3" rx="1.19" ry="1.19"/>
        <rect class="cls-25" x="67.59" y="39.9" width="30.3" height="3.11" rx="1.19" ry="1.19"/>
      </g>
      <path class="cls-36" d="m91.24,70.14l2.8-2.02c-13.48-1.56-14.07-19.47,1.32-21.77,1.65-.25,1.99,1.74.2,1.99-12.65,1.78-13.03,16.49-1.26,18.04l-2.06-2.77s1.11-.85,1.78-.19c.92.91,2.83,3.97,3.03,4.28-.28.22-3.03,2.57-4.18,3.16-.83.42-1.64-.73-1.64-.73Z"/>
    </g>
    <g>
      <g>
        <path class="cls-12" d="m548.86,69.41c3.22,0,3.22-5,0-5s-3.22,5,0,5h0Z"/>
        <path class="cls-12" d="m548.86,18.5c3.22,0,3.22-5,0-5s-3.22,5,0,5h0Z"/>
        <path class="cls-12" d="m497.95,18.5c3.22,0,3.22-5,0-5s-3.22,5,0,5h0Z"/>
        <path class="cls-12" d="m497.95,69.41c3.22,0,3.22-5,0-5s-3.22,5,0,5h0Z"/>
        <path class="cls-12" d="m523.4,42.58c1.45,0,1.45-2.25,0-2.25s-1.45,2.25,0,2.25h0Z"/>
      </g>
      <g>
        <rect class="cls-36" x="520.41" y="27.74" width="30.3" height="3.11" rx="1.19" ry="1.19" transform="translate(136.14 387.28) rotate(-45)"/>
        <rect class="cls-25" x="534" y="38.46" width="3.11" height="30.3" rx="1.19" ry="1.19" transform="translate(118.95 394.4) rotate(-45)"/>
      </g>
      <path class="cls-36" d="m549.83,27.32l-3.41-.55c8.43,10.63-3.81,23.71-16.33,14.45-1.34-.99-.18-2.63,1.26-1.55,10.2,7.68,20.88-2.44,13.64-11.86l-.5,3.42s-1.39-.19-1.39-1.13c0-1.29.81-4.81.89-5.17.35.04,3.96.33,5.2.72.88.29.64,1.67.64,1.67Z"/>
      <path class="cls-25" d="m537.54,67.88l.55-3.41c-10.63,8.43-23.71-3.81-14.45-16.33.99-1.34,2.63-.18,1.55,1.26-7.68,10.2,2.44,20.88,11.86,13.64l-3.42-.5s.19-1.39,1.13-1.39c1.29,0,4.81.81,5.17.89-.04.35-.33,3.96-.72,5.2-.29.88-1.67.64-1.67.64Z"/>
      <g>
        <path class="cls-12" d="m497.95,69.41c3.22,0,3.22-5,0-5s-3.22,5,0,5h0Z"/>
        <path class="cls-12" d="m497.95,18.5c3.22,0,3.22-5,0-5s-3.22,5,0,5h0Z"/>
        <path class="cls-12" d="m548.86,18.5c3.22,0,3.22-5,0-5s-3.22,5,0,5h0Z"/>
        <path class="cls-12" d="m548.86,69.41c3.22,0,3.22-5,0-5s-3.22,5,0,5h0Z"/>
        <path class="cls-12" d="m523.4,42.58c1.45,0,1.45-2.25,0-2.25s-1.45,2.25,0,2.25h0Z"/>
      </g>
      <g>
        <rect class="cls-36" x="509.69" y="14.15" width="3.11" height="30.3" rx="1.19" ry="1.19" transform="translate(129.02 370.09) rotate(-45)"/>
        <rect class="cls-25" x="496.1" y="52.06" width="30.3" height="3.11" rx="1.19" ry="1.19" transform="translate(111.83 377.21) rotate(-45)"/>
      </g>
      <path class="cls-36" d="m496.98,27.32l3.41-.55c-8.43,10.63,3.81,23.71,16.33,14.45,1.34-.99.18-2.63-1.26-1.55-10.2,7.68-20.88-2.44-13.64-11.86l.5,3.42s1.39-.19,1.39-1.13c0-1.29-.81-4.81-.89-5.17-.35.04-3.96.33-5.2.72-.88.29-.64,1.67-.64,1.67Z"/>
      <path class="cls-25" d="m509.26,67.88l-.55-3.41c10.63,8.43,23.71-3.81,14.45-16.33-.99-1.34-2.63-.18-1.55,1.26,7.68,10.2-2.44,20.88-11.86,13.64l3.42-.5s-.19-1.39-1.13-1.39c-1.29,0-4.81.81-5.17.89.04.35.33,3.96.72,5.2.29.88,1.67.64,1.67.64Z"/>
      <g>
        <path class="cls-12" d="m548.86,18.5c3.22,0,3.22-5,0-5s-3.22,5,0,5h0Z"/>
        <path class="cls-12" d="m548.86,69.41c3.22,0,3.22-5,0-5s-3.22,5,0,5h0Z"/>
        <path class="cls-12" d="m497.95,69.41c3.22,0,3.22-5,0-5s-3.22,5,0,5h0Z"/>
        <path class="cls-12" d="m497.95,18.5c3.22,0,3.22-5,0-5s-3.22,5,0,5h0Z"/>
        <path class="cls-12" d="m523.4,42.58c1.45,0,1.45-2.25,0-2.25s-1.45,2.25,0,2.25h0Z"/>
      </g>
      <g>
        <rect class="cls-36" x="534" y="38.46" width="3.11" height="30.3" rx="1.19" ry="1.19" transform="translate(118.95 394.4) rotate(-45)"/>
        <rect class="cls-25" x="520.41" y="27.74" width="30.3" height="3.11" rx="1.19" ry="1.19" transform="translate(136.14 387.28) rotate(-45)"/>
      </g>
      <path class="cls-36" d="m549.83,55.6l-3.41.55c8.43-10.63-3.81-23.71-16.33-14.45-1.34.99-.18,2.63,1.26,1.55,10.2-7.68,20.88,2.44,13.64,11.86l-.5-3.42s-1.39.19-1.39,1.13c0,1.29.81,4.81.89,5.17.35-.04,3.96-.33,5.2-.72.88-.29.64-1.67.64-1.67Z"/>
      <path class="cls-25" d="m537.54,15.03l.55,3.41c-10.63-8.43-23.71,3.81-14.45,16.33.99,1.34,2.63.18,1.55-1.26-7.68-10.2,2.44-20.88,11.86-13.64l-3.42.5s.19,1.39,1.13,1.39c1.29,0,4.81-.81,5.17-.89-.04-.35-.33-3.96-.72-5.2-.29-.88-1.67-.64-1.67-.64Z"/>
      <g>
        <path class="cls-12" d="m497.95,18.5c3.22,0,3.22-5,0-5s-3.22,5,0,5h0Z"/>
        <path class="cls-12" d="m497.95,69.41c3.22,0,3.22-5,0-5s-3.22,5,0,5h0Z"/>
        <path class="cls-12" d="m548.86,69.41c3.22,0,3.22-5,0-5s-3.22,5,0,5h0Z"/>
        <path class="cls-12" d="m548.86,18.5c3.22,0,3.22-5,0-5s-3.22,5,0,5h0Z"/>
        <path class="cls-12" d="m523.4,42.58c1.45,0,1.45-2.25,0-2.25s-1.45,2.25,0,2.25h0Z"/>
      </g>
      <g>
        <rect class="cls-36" x="496.1" y="52.06" width="30.3" height="3.11" rx="1.19" ry="1.19" transform="translate(111.83 377.21) rotate(-45)"/>
        <rect class="cls-25" x="509.69" y="14.15" width="3.11" height="30.3" rx="1.19" ry="1.19" transform="translate(129.02 370.09) rotate(-45)"/>
      </g>
      <path class="cls-36" d="m496.98,55.6l3.41.55c-8.43-10.63,3.81-23.71,16.33-14.45,1.34.99.18,2.63-1.26,1.55-10.2-7.68-20.88,2.44-13.64,11.86l.5-3.42s1.39.19,1.39,1.13c0,1.29-.81,4.81-.89,5.17-.35-.04-3.96-.33-5.2-.72-.88-.29-.64-1.67-.64-1.67Z"/>
      <path class="cls-25" d="m509.26,15.03l-.55,3.41c10.63-8.43,23.71,3.81,14.45,16.33-.99,1.34-2.63.18-1.55-1.26,7.68-10.2-2.44-20.88-11.86-13.64l3.42.5s-.19,1.39-1.13,1.39c-1.29,0-4.81-.81-5.17-.89.04-.35.33-3.96.72-5.2.29-.88,1.67-.64,1.67-.64Z"/>
    </g>
  </g>
  <text class="cls-9" transform="translate(128.26 742.75)"><tspan class="cls-19"><tspan x="0" y="0">A base antispin has 1 thumb </tspan><tspan class="cls-34" x="183.41" y="0">s</tspan><tspan x="189.78" y="0">wi</tspan><tspan class="cls-21" x="205.56" y="0">t</tspan><tspan x="210.51" y="0">ch. (in </tspan><tspan x="253.34" y="0">→ out), the</tspan><tspan class="cls-32" x="323.31" y="0">r</tspan><tspan x="329.3" y="0">e</tspan><tspan class="cls-23" x="336.61" y="0">f</tspan><tspan x="340.97" y="0">o</tspan><tspan class="cls-32" x="348.93" y="0">r</tspan><tspan x="354.92" y="0">e</tspan></tspan><tspan class="cls-22"><tspan x="-27.66" y="18">An antispin with a turn has 2 thumb </tspan><tspan class="cls-34" x="222.4" y="18">s</tspan><tspan x="229.21" y="18">wi</tspan><tspan class="cls-35" x="245.9" y="18">t</tspan><tspan x="251.17" y="18">ches (in </tspan><tspan x="308.5" y="18">→ out → in)</tspan><tspan x="386.42" y="18">.</tspan></tspan></text>
  <text class="cls-9" transform="translate(193.64 563.22)"><tspan class="cls-19"><tspan x="0" y="0">N</tspan><tspan class="cls-34" x="10.21" y="0">o</tspan><tspan x="18.1" y="0">w let’s add 1 turn </tspan><tspan class="cls-21" x="132.66" y="0">t</tspan><tspan x="137.61" y="0">o an antispin. </tspan></tspan><tspan class="cls-19" x="-157.19" y="18">A</tspan><tspan class="cls-18" x="-147.85" y="18">g</tspan><tspan class="cls-19" x="-140.56" y="18">ain, ta</tspan><tspan class="cls-3" x="-101.92" y="18">k</tspan><tspan class="cls-19" x="-94.31" y="18">e no</tspan><tspan class="cls-14" x="-67.35" y="18">t</tspan><tspan class="cls-19" x="-62.41" y="18">e of the diagonal half</tspan><tspan class="cls-20" x="70.46" y="18">w</tspan><tspan class="cls-16" x="81.8" y="18">a</tspan><tspan class="cls-19" x="88.83" y="18">y position, and pause the</tspan><tspan class="cls-17" x="247.57" y="18">r</tspan><tspan class="cls-19" x="253.55" y="18">e be</tspan><tspan class="cls-15" x="279.7" y="18">f</tspan><tspan class="cls-19" x="284.06" y="18">o</tspan><tspan class="cls-17" x="292.02" y="18">r</tspan><tspan class="cls-19" x="298" y="18">e continuing</tspan><tspan class="cls-13" x="377.42" y="18">. </tspan></text>
  <text class="cls-5" transform="translate(123.02 608.65)"><tspan x="0" y="0">s</tspan><tspan class="cls-33" x="5.35" y="0">t</tspan><tspan x="10.08" y="0">art</tspan></text>
  <text class="cls-5" transform="translate(233.49 608.65)"><tspan x="0" y="0">hal</tspan><tspan class="cls-1" x="18.52" y="0">f</tspan><tspan class="cls-34" x="22.89" y="0">wa</tspan><tspan x="40.3" y="0">y</tspan></text>
  <text class="cls-5" transform="translate(365.7 608.65)"><tspan x="0" y="0">end</tspan></text>
  <text class="cls-6" transform="translate(31.84 675.63)"><tspan class="cls-37" x="0" y="0">A</tspan><tspan x="14.47" y="0">nti</tspan></text>
  <text class="cls-6" transform="translate(514.18 132.1)"><tspan x="0" y="0">V</tspan><tspan class="cls-35" x="14.38" y="0">T</tspan><tspan x="28.38" y="0">G: 1:3</tspan></text>
  <path class="cls-12" d="m430.88,669.19v-2.8h12.65v2.8h-12.65Zm0,5.98v-2.8h12.65v2.8h-12.65Z"/>
  <text class="cls-11" transform="translate(132.22 624.07)"><tspan x="0" y="0">in</tspan></text>
  <text class="cls-5" transform="translate(66.86 625.47)"><tspan x="0" y="0">thumbs:</tspan></text>
  <text class="cls-11" transform="translate(372.22 624.07)"><tspan x="0" y="0">in</tspan></text>
  <text class="cls-11" transform="translate(248.54 625.43)"><tspan x="0" y="0">out</tspan></text>
  <g>
    <path class="cls-12" d="m137.06,672.13c1.45,0,1.45-2.25,0-2.25s-1.45,2.25,0,2.25h0Z"/>
    <circle class="cls-12" cx="137.06" cy="707" r="3"/>
    <circle class="cls-12" cx="173.06" cy="671" r="3"/>
    <circle class="cls-12" cx="137.06" cy="635" r="3"/>
    <circle class="cls-12" cx="101.06" cy="671" r="3"/>
  </g>
  <path class="cls-36" d="m138.94,667.49v6.91c0,.57.48,1.04,1.07,1.04.58,0,1.07-.47,1.07-1.04v-2.3h26.22c.58,0,1.05-.46,1.05-1.02v-.38c0-.55-.47-1.02-1.05-1.02h-26.22v-2.19c0-.58-.48-1.04-1.07-1.04s-1.07.46-1.07,1.04Z"/>
  <path class="cls-36" d="m380.58,672.88h-6.91c-.57,0-1.04.48-1.04,1.07,0,.58.47,1.07,1.04,1.07h2.3v26.22c0,.58.46,1.05,1.02,1.05h.38c.55,0,1.02-.47,1.02-1.05v-26.22h2.19c.58,0,1.04-.48,1.04-1.07,0-.59-.46-1.07-1.04-1.07Z"/>
  <path class="cls-36" d="m276.78,695.52l4.89-4.89c.4-.4.4-1.07-.02-1.49-.41-.41-1.09-.42-1.49-.02l-1.63,1.63-18.54-18.54c-.41-.41-1.06-.42-1.46-.02l-.27.27c-.39.39-.39,1.05.02,1.46l18.54,18.54-1.55,1.55c-.41.41-.39,1.08.02,1.49.42.42,1.08.43,1.49.02Z"/>
  <g>
    <path class="cls-12" d="m257.06,672.13c1.45,0,1.45-2.25,0-2.25s-1.45,2.25,0,2.25h0Z"/>
    <circle class="cls-12" cx="257.06" cy="707" r="3"/>
    <circle class="cls-12" cx="293.06" cy="671" r="3"/>
    <circle class="cls-12" cx="257.06" cy="635" r="3"/>
    <circle class="cls-12" cx="221.06" cy="671" r="3"/>
  </g>
  <g>
    <path class="cls-12" d="m377.06,672.13c1.45,0,1.45-2.25,0-2.25s-1.45,2.25,0,2.25h0Z"/>
    <circle class="cls-12" cx="377.06" cy="707" r="3"/>
    <circle class="cls-12" cx="413.06" cy="671" r="3"/>
    <circle class="cls-12" cx="377.06" cy="635" r="3"/>
    <circle class="cls-12" cx="341.06" cy="671" r="3"/>
  </g>
  <g>
    <path class="cls-12" d="m497.06,672.13c1.45,0,1.45-2.25,0-2.25s-1.45,2.25,0,2.25h0Z"/>
    <circle class="cls-12" cx="497.06" cy="707" r="3"/>
    <circle class="cls-12" cx="533.06" cy="671" r="3"/>
    <circle class="cls-12" cx="497.06" cy="635" r="3"/>
    <circle class="cls-12" cx="461.06" cy="671" r="3"/>
  </g>
  <path class="cls-36" d="m500.52,673.34h-6.91c-.57,0-1.04.48-1.04,1.07s.47,1.07,1.04,1.07h2.3v26.22c0,.58.46,1.05,1.02,1.05h.38c.55,0,1.02-.47,1.02-1.05v-26.22h2.19c.58,0,1.04-.48,1.04-1.07,0-.59-.46-1.07-1.04-1.07Z"/>
  <path class="cls-36" d="m505.92,703.53s4.06-3.61,4.88-4.74c.73-.98-.56-2.24-.56-2.24l-3.18,3.24c-.4-8.77,4.95-9.49,12.35-7.53-1.72-7.61-3.48-14.16,11.03-14.16,1.62,0,1.63-2.46.01-2.46-10.06,0-16.73,3.83-14.38,13.51-7.84-1.06-10.86,2.06-11.17,10.63l-3.28-3.23s-1.32,1.26-.6,2.24c1.02,1.42,4.9,4.74,4.9,4.74Z"/>
  <path class="cls-36" d="m282.3,686.86s-4.31.3-5.63.1c-1-.16-.97-1.68-.97-1.68l3.65-.03c-11.64-11.64-10.29-11.25,8.61-11.25,1.16,0,1.22,2.22-.21,2.21-16.33,0-15.99-1.38-7.06,7.54l.03-3.49s1.51-.03,1.68.97c.21,1.32-.1,5.63-.1,5.63Z"/>
  <path class="cls-36" d="m383.82,703.41s-3.26-2.83-4.05-3.91c-.59-.82.5-1.87.5-1.87l2.6,2.56c0-16.46.68-15.23,14.04-1.87.82.82-.71,2.43-1.71,1.42-11.55-11.55-10.33-12.28-10.32.34l2.49-2.45s1.09,1.05.5,1.87c-.79,1.08-4.05,3.91-4.05,3.91Z"/>
  <polygon class="cls-12" points="184.44 669.91 202.38 669.91 202.38 666.11 208.63 671 202.38 675.89 202.38 672.09 184.44 672.09 184.44 669.91"/>
  <polygon class="cls-12" points="304.44 669.91 322.38 669.91 322.38 666.11 328.63 671 322.38 675.89 322.38 672.09 304.44 672.09 304.44 669.91"/>
  <text class="cls-10" transform="translate(24.58 133.76)"><tspan x="0" y="0">Shifts</tspan></text>
  <text class="cls-9" transform="translate(108.28 509.2)"><tspan class="cls-19"><tspan x="0" y="0">A base p</tspan><tspan class="cls-32" x="53.59" y="0">r</tspan><tspan x="59.58" y="0">ospin (</tspan><tspan class="cls-32" x="103.89" y="0">A</tspan><tspan class="cls-21" x="113.02" y="0">S</tspan><tspan x="120.33" y="0">A isolation) has 0 thumb </tspan><tspan class="cls-34" x="280.14" y="0">s</tspan><tspan x="286.52" y="0">wi</tspan><tspan class="cls-21" x="302.3" y="0">t</tspan><tspan x="307.24" y="0">ches, the</tspan><tspan class="cls-32" x="362.94" y="0">r</tspan><tspan x="368.93" y="0">e</tspan><tspan class="cls-23" x="376.25" y="0">f</tspan><tspan x="380.6" y="0">o</tspan><tspan class="cls-32" x="388.56" y="0">r</tspan><tspan x="394.55" y="0">e</tspan></tspan><tspan class="cls-22"><tspan x="23.85" y="18">A p</tspan><tspan class="cls-32" x="45.89" y="18">r</tspan><tspan x="52.6" y="18">ospin with a turn has 1 thumb </tspan><tspan class="cls-34" x="261.78" y="18">s</tspan><tspan x="268.59" y="18">wi</tspan><tspan class="cls-35" x="285.29" y="18">t</tspan><tspan x="290.56" y="18">ch (in </tspan><tspan x="333.04" y="18">→ out)</tspan></tspan></text>
  <text class="cls-11" transform="translate(141.16 400.21)"><tspan x="0" y="0">in</tspan></text>
  <path class="cls-36" d="m511.45,450.86l-2.17,3.73s-1.56-.9-1.1-2.04c.53-1.28,3.58-5.78,3.58-5.78,0,0,4.57,2.28,5.9,3.4.95.78-.02,2.33-.02,2.33l-3.79-2.23s-.08-.1-.13-.13c3.85,14.54,19.48,12.79,21.46-1.88.12-.91.86-1.61,1.54-1.46.59.13,1.14.5.96,1.68-2.82,17.98-21.92,18.76-26.21,2.4Z"/>
  <text class="cls-6" transform="translate(34.7 452.1)"><tspan x="0" y="0">P</tspan><tspan class="cls-37" x="13.88" y="0">r</tspan><tspan x="23.82" y="0">o</tspan></text>
  <path class="cls-12" d="m439.67,442.98v-2.8h12.65v2.8h-12.65Zm0,5.98v-2.8h12.65v2.8h-12.65Z"/>
  <text class="cls-5" transform="translate(131.81 383.45)"><tspan x="0" y="0">s</tspan><tspan class="cls-33" x="5.35" y="0">t</tspan><tspan x="10.08" y="0">art</tspan></text>
  <text class="cls-5" transform="translate(242.08 383.45)"><tspan x="0" y="0">hal</tspan><tspan class="cls-1" x="18.52" y="0">f</tspan><tspan class="cls-34" x="22.89" y="0">wa</tspan><tspan x="40.3" y="0">y</tspan></text>
  <text class="cls-5" transform="translate(374.49 383.45)"><tspan x="0" y="0">end</tspan></text>
  <g>
    <path class="cls-12" d="m145.85,445.92c1.45,0,1.45-2.25,0-2.25s-1.45,2.25,0,2.25h0Z"/>
    <circle class="cls-12" cx="145.85" cy="480.79" r="3"/>
    <circle class="cls-12" cx="181.85" cy="444.79" r="3"/>
    <circle class="cls-12" cx="145.85" cy="408.79" r="3"/>
    <circle class="cls-12" cx="109.85" cy="444.79" r="3"/>
  </g>
  <path class="cls-36" d="m148.19,441.34v6.91c0,.57.48,1.04,1.07,1.04s1.07-.47,1.07-1.04v-2.3h26.22c.58,0,1.05-.46,1.05-1.02v-.38c0-.55-.47-1.02-1.05-1.02h-26.22v-2.19c0-.58-.48-1.04-1.07-1.04s-1.07.46-1.07,1.04Z"/>
  <path class="cls-36" d="m288.42,446.98l-4.89-4.89c-.4-.4-1.07-.4-1.49.02-.41.41-.42,1.09-.02,1.49l1.63,1.63-18.54,18.54c-.41.41-.42,1.06-.02,1.46l.27.27c.39.39,1.05.39,1.46-.02l18.54-18.54,1.55,1.55c.41.41,1.08.39,1.49-.02s.43-1.08.02-1.49Z"/>
  <path class="cls-36" d="m382.39,476.53h6.91c.57,0,1.04-.48,1.04-1.07,0-.58-.47-1.07-1.04-1.07h-2.3v-26.22c0-.58-.46-1.05-1.02-1.05h-.38c-.55,0-1.02.47-1.02,1.05v26.22h-2.19c-.58,0-1.04.48-1.04,1.07,0,.59.46,1.07,1.04,1.07Z"/>
  <path class="cls-36" d="m502.39,476.53h6.91c.57,0,1.04-.48,1.04-1.07s-.47-1.07-1.04-1.07h-2.3v-26.22c0-.58-.46-1.05-1.02-1.05h-.38c-.55,0-1.02.47-1.02,1.05v26.22h-2.19c-.58,0-1.04.48-1.04,1.07,0,.59.46,1.07,1.04,1.07Z"/>
  <g>
    <path class="cls-12" d="m265.85,445.92c1.45,0,1.45-2.25,0-2.25s-1.45,2.25,0,2.25h0Z"/>
    <circle class="cls-12" cx="265.85" cy="480.79" r="3"/>
    <circle class="cls-12" cx="301.85" cy="444.79" r="3"/>
    <circle class="cls-12" cx="265.85" cy="408.79" r="3"/>
    <circle class="cls-12" cx="229.85" cy="444.79" r="3"/>
  </g>
  <g>
    <path class="cls-12" d="m385.85,445.92c1.45,0,1.45-2.25,0-2.25s-1.45,2.25,0,2.25h0Z"/>
    <circle class="cls-12" cx="385.85" cy="480.79" r="3"/>
    <circle class="cls-12" cx="421.85" cy="444.79" r="3"/>
    <circle class="cls-12" cx="385.85" cy="408.79" r="3"/>
    <circle class="cls-12" cx="349.85" cy="444.79" r="3"/>
  </g>
  <g>
    <path class="cls-12" d="m505.85,445.92c1.45,0,1.45-2.25,0-2.25s-1.45,2.25,0,2.25h0Z"/>
    <circle class="cls-12" cx="505.85" cy="480.79" r="3"/>
    <circle class="cls-12" cx="541.85" cy="444.79" r="3"/>
    <circle class="cls-12" cx="505.85" cy="408.79" r="3"/>
    <circle class="cls-12" cx="469.85" cy="444.79" r="3"/>
  </g>
  <text class="cls-5" transform="translate(75.8 401.61)"><tspan x="0" y="0">thumbs:</tspan></text>
  <text class="cls-11" transform="translate(377.67 400.21)"><tspan x="0" y="0">out</tspan></text>
  <text class="cls-9" transform="translate(203 153.7)"><tspan class="cls-19"><tspan x="0" y="0">Let’s app</tspan><tspan class="cls-42" x="57.52" y="0">l</tspan><tspan x="61.29" y="0">y a sin</tspan><tspan class="cls-33" x="101.76" y="0">g</tspan><tspan x="109.07" y="0">le turn </tspan><tspan class="cls-21" x="155" y="0">t</tspan><tspan x="159.95" y="0">o a shif</tspan><tspan class="cls-38" x="205.27" y="0">t</tspan><tspan x="210.56" y="0">.</tspan></tspan><tspan class="cls-19"><tspan x="-186.4" y="36">Shifts a</tspan><tspan class="cls-32" x="-139.83" y="36">r</tspan><tspan x="-133.85" y="36">e </tspan><tspan class="cls-32" x="-123.23" y="36">r</tspan><tspan x="-117.24" y="36">otating 90</tspan><tspan x="-51.94" y="36">° al</tspan><tspan class="cls-32" x="-31.61" y="36">r</tspan><tspan x="-25.62" y="36">ea</tspan><tspan class="cls-42" x="-10.98" y="36">d</tspan><tspan class="cls-28" x="-2.96" y="36">y</tspan><tspan x="3.35" y="36">, so an additional 180° turn </tspan><tspan class="cls-32" x="179.94" y="36">r</tspan><tspan x="185.92" y="36">esults in a 270° absolu</tspan><tspan class="cls-21" x="329.48" y="36">t</tspan><tspan x="334.43" y="36">e </tspan><tspan class="cls-32" x="345.05" y="36">r</tspan><tspan x="351.03" y="36">otation. </tspan></tspan><tspan class="cls-19"><tspan x="-164.95" y="54">In TKA, </tspan><tspan class="cls-40" x="-114.36" y="54">w</tspan><tspan x="-102.93" y="54">e do</tspan><tspan class="cls-39" x="-76.03" y="54">n</tspan><tspan x="-68.1" y="54">’t include the </tspan><tspan class="cls-4" x="18.02" y="54">e</tspan><tspan x="25.16" y="54">xt</tspan><tspan class="cls-2" x="37.49" y="54">r</tspan><tspan x="43.44" y="54">a 90° that comes f</tspan><tspan class="cls-32" x="157.33" y="54">r</tspan><tspan x="163.31" y="54">om the shift </tspan><tspan class="cls-37" x="242.84" y="54">w</tspan><tspan x="254.31" y="54">hen counting turns.</tspan></tspan><tspan class="cls-19"><tspan x="-85.58" y="72">Ins</tspan><tspan class="cls-21" x="-65.9" y="72">t</tspan><tspan x="-60.96" y="72">ead, </tspan><tspan class="cls-40" x="-31.61" y="72">w</tspan><tspan x="-20.19" y="72">e </tspan><tspan class="cls-23" x="-9.57" y="72">f</tspan><tspan x="-5.21" y="72">ocus on the </tspan><tspan class="cls-32" x="71" y="72">r</tspan><tspan x="76.99" y="72">otation </tspan><tspan class="cls-32" x="126.23" y="72">r</tspan><tspan x="132.21" y="72">elat</tspan><tspan class="cls-42" x="156" y="72">i</tspan><tspan class="cls-29" x="159.87" y="72">v</tspan><tspan x="167.14" y="72">e </tspan><tspan class="cls-21" x="177.76" y="72">t</tspan><tspan x="182.7" y="72">o the cen</tspan><tspan class="cls-21" x="240.24" y="72">t</tspan><tspan x="245.18" y="72">er poin</tspan><tspan class="cls-38" x="290.85" y="72">t</tspan><tspan x="296.14" y="72">, </tspan></tspan><tspan class="cls-19"><tspan x="-53.31" y="90">using the thumb orientation (in/out) as our guide.</tspan><tspan x="266.95" y="90"> </tspan></tspan><tspan class="cls-19"><tspan x="-1.38" y="126">First </tspan><tspan class="cls-40" x="31.87" y="126">w</tspan><tspan x="43.29" y="126">e’ll add 1 turn </tspan><tspan class="cls-21" x="135.49" y="126">t</tspan><tspan x="140.43" y="126">o a p</tspan><tspan class="cls-32" x="170.67" y="126">r</tspan><tspan x="176.65" y="126">ospin. </tspan></tspan><tspan class="cls-19"><tspan class="cls-30" x="-186.63" y="144">T</tspan><tspan x="-178.91" y="144">a</tspan><tspan class="cls-2" x="-171.58" y="144">k</tspan><tspan x="-163.97" y="144">e no</tspan><tspan class="cls-21" x="-137.02" y="144">t</tspan><tspan x="-132.08" y="144">e of the diagonal half</tspan><tspan class="cls-41" x=".79" y="144">w</tspan><tspan class="cls-29" x="12.13" y="144">a</tspan><tspan x="19.16" y="144">y position, and pause the</tspan><tspan class="cls-32" x="177.9" y="144">r</tspan><tspan x="183.88" y="144">e </tspan><tspan class="cls-23" x="194.5" y="144">f</tspan><tspan x="198.86" y="144">or a moment be</tspan><tspan class="cls-23" x="299.47" y="144">f</tspan><tspan x="303.83" y="144">o</tspan><tspan class="cls-32" x="311.79" y="144">r</tspan><tspan x="317.78" y="144">e continuing.</tspan></tspan><tspan class="cls-13"><tspan x="-56.53" y="162">(Th</tspan><tspan class="cls-24" x="-34.39" y="162">e</tspan><tspan x="-27.63" y="162">se ar</tspan><tspan class="cls-37" x="2.26" y="162">r</tspan><tspan class="cls-23" x="8.22" y="162">o</tspan><tspan class="cls-31" x="15.64" y="162">w</tspan><tspan x="26.48" y="162">s </tspan><tspan class="cls-37" x="35.52" y="162">r</tspan><tspan x="41.48" y="162">efer </tspan><tspan class="cls-33" x="68.99" y="162">t</tspan><tspan x="74.06" y="162">o the pinky end on the first half, </tspan></tspan><tspan class="cls-13"><tspan x="-24.03" y="180">then </tspan><tspan class="cls-33" x="7.28" y="180">t</tspan><tspan x="12.36" y="180">o the thumb end on the se</tspan><tspan class="cls-34" x="171.67" y="180">c</tspan><tspan x="178.09" y="180">ond half.)</tspan></tspan></text>
  <g>
    <polygon class="cls-12" points="193.75 443.7 211.69 443.7 211.69 439.9 217.94 444.79 211.69 449.68 211.69 445.88 193.75 445.88 193.75 443.7"/>
    <polygon class="cls-12" points="313.75 443.7 331.69 443.7 331.69 439.9 337.94 444.79 331.69 449.68 331.69 445.88 313.75 445.88 313.75 443.7"/>
  </g>
  <path class="cls-36" d="m273.91,469.73c-1.1-.78-3.97-3.99-3.97-3.99,0,0,3.4-3.76,3.85-4.1.82-.61,1.87.47,1.87.47l-2.53,2.65h0c8.01.18,21.47-3.78,22.86-15.48.04-1.65,2.23-1.45,2.07,0-1.36,12.96-15.24,17.63-24.85,17.4l2.56,2.53s-1.03,1.1-1.86.53Z"/>
  <path class="cls-36" d="m395.44,474.67c-1.34-.13-5.44-1.47-5.44-1.47,0,0,1.06-4.96,1.29-5.48.4-.94,1.86-.53,1.86-.53l-.87,3.57h0c7.02-3.85,16.7-14.01,12.05-24.84-.79-1.44,1.21-2.37,1.79-1.04,5.3,11.9-4.39,22.89-12.82,27.5l3.48.91s-.34,1.47-1.35,1.39Z"/>
  <line class="cls-27" x1="22.39" y1="539.98" x2="591.4" y2="539.98"/>
</svg>