<?xml version="1.0" encoding="UTF-8"?>
<svg id="Layer_1" data-name="Layer 1" xmlns="http://www.w3.org/2000/svg" viewBox="0 0 612 792">
  <defs>
    <style>
      .cls-1, .cls-2 {
        fill: none;
        stroke: #231f20;
        stroke-miterlimit: 10;
      }

      .cls-3, .cls-4, .cls-5, .cls-6, .cls-7, .cls-8, .cls-9, .cls-10, .cls-11 {
        font-weight: 700;
      }

      .cls-3, .cls-4, .cls-6, .cls-12, .cls-8, .cls-9, .cls-13, .cls-10, .cls-11 {
        font-style: italic;
      }

      .cls-3, .cls-4, .cls-6, .cls-8, .cls-9, .cls-10, .cls-11 {
        font-family: Cambria-BoldItalic, Cambria;
      }

      .cls-3, .cls-14, .cls-15 {
        letter-spacing: 0em;
      }

      .cls-4, .cls-16, .cls-17 {
        letter-spacing: -.01em;
      }

      .cls-18, .cls-19 {
        font-size: 16px;
      }

      .cls-20 {
        letter-spacing: -.04em;
      }

      .cls-21 {
        letter-spacing: 0em;
      }

      .cls-22 {
        letter-spacing: -.09em;
      }

      .cls-5, .cls-23 {
        font-size: 18px;
      }

      .cls-5, .cls-7 {
        font-family: Cambria-Bold, Cambria;
      }

      .cls-24 {
        font-family: MonotypeCorsiva, 'Monotype Corsiva';
        font-size: 40px;
      }

      .cls-24, .cls-23, .cls-7, .cls-25, .cls-13, .cls-26 {
        fill: #231f20;
      }

      .cls-6 {
        letter-spacing: -.03em;
      }

      .cls-23, .cls-16, .cls-14, .cls-27, .cls-19, .cls-28 {
        font-family: Cambria, Cambria;
      }

      .cls-7 {
        font-size: 20px;
      }

      .cls-29 {
        letter-spacing: 0em;
      }

      .cls-30 {
        fill: #2e3192;
      }

      .cls-31 {
        letter-spacing: -.08em;
      }

      .cls-32 {
        letter-spacing: 0em;
      }

      .cls-12, .cls-13 {
        font-family: Cambria-Italic, Cambria;
      }

      .cls-27 {
        letter-spacing: -.03em;
      }

      .cls-8, .cls-33 {
        letter-spacing: -.1em;
      }

      .cls-34 {
        letter-spacing: 0em;
      }

      .cls-35 {
        letter-spacing: -.12em;
      }

      .cls-36 {
        letter-spacing: -.02em;
      }

      .cls-25 {
        font-size: 15px;
      }

      .cls-37 {
        letter-spacing: .02em;
      }

      .cls-38, .cls-11 {
        letter-spacing: 0em;
      }

      .cls-39 {
        letter-spacing: -.01em;
      }

      .cls-40 {
        letter-spacing: -.02em;
      }

      .cls-41 {
        fill: #ed1c24;
      }

      .cls-42 {
        letter-spacing: 0em;
      }

      .cls-13 {
        font-size: 12px;
      }

      .cls-43 {
        letter-spacing: -.1em;
      }

      .cls-44 {
        letter-spacing: 0em;
      }

      .cls-45 {
        letter-spacing: -.03em;
      }

      .cls-46 {
        letter-spacing: .01em;
      }

      .cls-47 {
        letter-spacing: -.05em;
      }

      .cls-10 {
        letter-spacing: 0em;
      }

      .cls-2 {
        stroke-width: .5px;
      }

      .cls-48 {
        letter-spacing: -.01em;
      }

      .cls-49 {
        letter-spacing: -.01em;
      }

      .cls-50 {
        letter-spacing: -.02em;
      }

      .cls-51 {
        letter-spacing: -.02em;
      }
    </style>
  </defs>
  <g>
    <text class="cls-24" transform="translate(252.28 42.69)"><tspan x="0" y="0">S and T</tspan></text>
    <text class="cls-26" transform="translate(185.19 76.16)"><tspan class="cls-19"><tspan x="0" y="0">S and T a</tspan><tspan class="cls-49" x="61.42" y="0">r</tspan><tspan x="67.8" y="0">e a dif</tspan><tspan class="cls-17" x="108.63" y="0">f</tspan><tspan x="113.28" y="0">e</tspan><tspan class="cls-49" x="121.09" y="0">r</tspan><tspan x="127.47" y="0">ent type of </tspan><tspan class="cls-40" x="203.7" y="0">h</tspan><tspan class="cls-21" x="212.22" y="0">y</tspan><tspan x="220.16" y="0">brid. </tspan></tspan><tspan class="cls-19"><tspan class="cls-40" x="-149.71" y="38.4">Ev</tspan><tspan x="-133.07" y="38.4">en thou</tspan><tspan class="cls-15" x="-81.24" y="38.4">g</tspan><tspan x="-73.45" y="38.4">h their motions a</tspan><tspan class="cls-49" x="42.84" y="38.4">r</tspan><tspan x="49.22" y="38.4">e a ma</tspan><tspan class="cls-32" x="93.01" y="38.4">t</tspan><tspan x="98.28" y="38.4">ching shift type (p</tspan><tspan class="cls-49" x="221.61" y="38.4">r</tspan><tspan x="227.99" y="38.4">o|p</tspan><tspan class="cls-49" x="250.45" y="38.4">r</tspan><tspan x="256.83" y="38.4">o, anti|anti), each has </tspan></tspan><tspan class="cls-18"><tspan class="cls-28" x="-144.34" y="57.6">one hand </tspan><tspan class="cls-9" x="-77.62" y="57.6">leading</tspan><tspan class="cls-12" x="-23.41" y="57.6"> </tspan><tspan class="cls-28" x="-19.89" y="57.6">and the other </tspan><tspan class="cls-9" x="75.5" y="57.6">foll</tspan><tspan class="cls-4" x="98.77" y="57.6">o</tspan><tspan class="cls-9" x="107.21" y="57.6">wing</tspan><tspan class="cls-28" x="142.82" y="57.6">. Thou</tspan><tspan class="cls-14" x="185.27" y="57.6">g</tspan><tspan class="cls-28" x="193.06" y="57.6">h this does</tspan><tspan class="cls-27" x="266.55" y="57.6">n</tspan><tspan class="cls-28" x="275.01" y="57.6">’t af</tspan><tspan class="cls-16" x="300.14" y="57.6">f</tspan><tspan class="cls-28" x="304.79" y="57.6">ect their base </tspan></tspan><tspan class="cls-19"><tspan class="cls-17" x="-114.91" y="76.8">f</tspan><tspan x="-110.27" y="76.8">orms, it p</tspan><tspan class="cls-49" x="-45.88" y="76.8">r</tspan><tspan x="-39.5" y="76.8">oduces additional </tspan><tspan class="cls-51" x="84.93" y="76.8">v</tspan><tspan x="92.65" y="76.8">ariations </tspan><tspan class="cls-44" x="157.02" y="76.8">w</tspan><tspan x="169.25" y="76.8">hen modifying their motions.</tspan></tspan><tspan class="cls-5"><tspan x="-85.56" y="98.4">S and T a</tspan><tspan class="cls-49" x="-12.04" y="98.4">r</tspan><tspan x="-4" y="98.4">e the on</tspan><tspan class="cls-45" x="61.46" y="98.4">l</tspan><tspan x="66.53" y="98.4">y let</tspan><tspan class="cls-39" x="101.72" y="98.4">t</tspan><tspan x="108.05" y="98.4">ers with this unique qualit</tspan><tspan class="cls-22" x="325.63" y="98.4">y</tspan><tspan x="333.51" y="98.4">.</tspan></tspan><tspan class="cls-19"><tspan class="cls-20" x="-120.55" y="136.8">F</tspan><tspan x="-112.59" y="136.8">ortuna</tspan><tspan class="cls-32" x="-66.48" y="136.8">t</tspan><tspan x="-61.21" y="136.8">e</tspan><tspan class="cls-50" x="-53.41" y="136.8">l</tspan><tspan class="cls-31" x="-49.38" y="136.8">y</tspan><tspan x="-42.65" y="136.8">, </tspan><tspan class="cls-48" x="-35.84" y="136.8">w</tspan><tspan x="-23.66" y="136.8" xml:space="preserve">e  h</tspan><tspan class="cls-40" x=".02" y="136.8">av</tspan><tspan x="15.27" y="136.8">e a </tspan><tspan class="cls-32" x="37.94" y="136.8">t</tspan><tspan x="43.21" y="136.8">ool </tspan><tspan class="cls-32" x="68.06" y="136.8">t</tspan><tspan x="73.34" y="136.8">o disambigua</tspan><tspan class="cls-32" x="164.43" y="136.8">t</tspan><tspan x="169.7" y="136.8">e </tspan><tspan class="cls-40" x="181.03" y="136.8">h</tspan><tspan class="cls-21" x="189.55" y="136.8">y</tspan><tspan x="197.48" y="136.8">brids - the hi</tspan><tspan class="cls-15" x="284.26" y="136.8">g</tspan><tspan x="292.05" y="136.8">h/l</tspan><tspan class="cls-38" x="313.07" y="136.8">o</tspan><tspan x="321.48" y="136.8">w slots.</tspan></tspan></text>
    <g>
      <path class="cls-41" d="m493.88,356.82l3.11-1.81s-.75-1.3-1.7-.92c-1.07.44-4.82,2.98-4.82,2.98,0,0,1.9,3.81,2.83,4.92.65.79,1.94-.02,1.94-.02l-1.86-3.16s-.08-.07-.11-.11c12.12,3.21,10.66,16.23-1.57,17.88-.76.1-1.34.72-1.22,1.28.11.49.42.95,1.4.8,14.98-2.35,15.63-18.27,2-21.84Z"/>
      <g>
        <circle class="cls-26" cx="186.91" cy="380.99" r="2.5"/>
        <circle class="cls-26" cx="216.9" cy="350.99" r="2.5"/>
        <circle class="cls-26" cx="186.91" cy="320.99" r="2.5"/>
        <circle class="cls-26" cx="156.91" cy="350.99" r="2.5"/>
        <circle class="cls-26" cx="186.91" cy="350.99" r="1.12"/>
      </g>
      <g>
        <circle class="cls-26" cx="286.9" cy="380.99" r="2.5"/>
        <circle class="cls-26" cx="316.9" cy="350.99" r="2.5"/>
        <circle class="cls-26" cx="286.9" cy="320.99" r="2.5"/>
        <circle class="cls-26" cx="256.9" cy="350.99" r="2.5"/>
        <circle class="cls-26" cx="286.9" cy="350.99" r="1.12"/>
      </g>
      <g>
        <circle class="cls-26" cx="386.9" cy="380.99" r="2.5"/>
        <circle class="cls-26" cx="416.9" cy="350.99" r="2.5"/>
        <circle class="cls-26" cx="386.9" cy="320.99" r="2.5"/>
        <circle class="cls-26" cx="356.9" cy="350.99" r="2.5"/>
        <circle class="cls-26" cx="386.9" cy="350.99" r="1.12"/>
      </g>
      <g>
        <circle class="cls-26" cx="486.89" cy="380.99" r="2.5"/>
        <circle class="cls-26" cx="516.89" cy="350.99" r="2.5"/>
        <circle class="cls-26" cx="486.89" cy="320.99" r="2.5"/>
        <circle class="cls-26" cx="456.9" cy="350.99" r="2.5"/>
        <circle class="cls-26" cx="486.89" cy="350.99" r="1.12"/>
      </g>
      <polygon class="cls-26" points="226.39 350.08 241.34 350.08 241.34 346.91 246.55 350.99 241.34 355.06 241.34 351.89 226.39 351.89 226.39 350.08"/>
      <polygon class="cls-26" points="326.39 350.08 341.33 350.08 341.33 346.91 346.54 350.99 341.33 355.06 341.33 351.89 326.39 351.89 326.39 350.08"/>
      <path class="cls-26" d="m432.51,349.66v-2.34h10.54v2.34h-10.54Zm0,4.99v-2.34h10.54v2.34h-10.54Z"/>
      <path class="cls-30" d="m390.65,353.71c0,.5-.39.92-.87.92h-1.82s0,22.28,0,22.28c0,.49-.39.89-.85.89h-.42c-.46,0-.85-.4-.85-.89v-22.28h-1.82c-.48,0-.87-.42-.87-.92s.39-.91.87-.91h5.76c.48,0,.87.41.87.91Z"/>
      <path class="cls-41" d="m412.8,347.24c-.5,0-.92.39-.92.87v1.82s-22.28,0-22.28,0c-.49,0-.89.39-.89.85v.42c0,.46.4.85.89.85h22.28s0,1.82,0,1.82c0,.48.42.87.92.87s.91-.39.91-.87v-5.76c0-.48-.41-.87-.91-.87Z"/>
      <path class="cls-30" d="m483.14,353.71c0,.5.39.92.87.92h1.82v22.28c0,.49.39.89.85.89h.42c.46,0,.85-.4.85-.89v-22.28h1.82c.48,0,.87-.42.87-.92s-.39-.91-.87-.91h-5.76c-.48,0-.87.41-.87.91Z"/>
      <path class="cls-41" d="m512.8,354.74c-.5,0-.92-.39-.92-.87v-1.82s-22.28,0-22.28,0c-.49,0-.89-.39-.89-.85v-.42c0-.46.4-.85.89-.85h22.28s0-1.82,0-1.82c0-.48.42-.87.92-.87s.91.39.91.87v5.76c0,.48-.41.87-.91.87Z"/>
      <path class="cls-30" d="m184.19,354.74c-.5,0-.92-.39-.92-.87v-1.82s-22.28,0-22.28,0c-.49,0-.89-.39-.89-.85v-.42c0-.46.4-.85.89-.85h22.28s0-1.82,0-1.82c0-.48.42-.87.92-.87s.91.39.91.87v5.76c0,.48-.41.87-.91.87Z"/>
      <path class="cls-41" d="m190.66,353.71c0,.5-.39.92-.87.92h-1.82s0,22.28,0,22.28c0,.49-.39.89-.85.89h-.42c-.46,0-.85-.4-.85-.89v-22.28s-1.82,0-1.82,0c-.48,0-.87-.42-.87-.92,0-.5.39-.91.87-.91h5.76c.48,0,.87.41.87.91Z"/>
      <path class="cls-30" d="m287.63,355.56c-.35.35-.93.37-1.26.03l-1.29-1.29-15.76,15.76c-.35.35-.9.35-1.23.03l-.3-.3c-.33-.33-.32-.88.03-1.23l15.76-15.76-1.29-1.29c-.34-.34-.32-.91.03-1.26s.92-.37,1.26-.03l4.07,4.07c.34.34.33.9-.03,1.26Z"/>
      <path class="cls-41" d="m291.48,370.06c.35-.35.37-.93.03-1.26l-1.29-1.29,15.76-15.76c.35-.35.35-.9.03-1.23l-.3-.3c-.33-.33-.88-.32-1.23.03l-15.76,15.76-1.29-1.29c-.34-.34-.91-.32-1.26.03s-.37.92-.03,1.26l4.07,4.07c.34.34.9.33,1.26-.03Z"/>
      <text class="cls-13" transform="translate(90 386.58)"><tspan x="0" y="0">“S-High-One”</tspan></text>
      <path class="cls-30" d="m266.9,367.96s-.47-3.56-.86-4.61c-.29-.79-1.53-.51-1.53-.51l.54,2.94c-2.15-1.41-4.99-3.84-4.59-10.21,0-.35-.09-.62-.28-.81-.18-.17-.42-.26-.7-.25-.52,0-.72.35-.8.7-.05.22-.05.44-.06.57-.05,8.01,4.39,10.67,5.49,11.38l-2.87.62s.23,1.24,1.07,1.2c1.11-.04,4.57-1.02,4.57-1.02Z"/>
      <path class="cls-30" d="m383.15,378.68s-2.85-2.19-3.87-2.65c-.77-.35-1.44.72-1.44.72l2.46,1.69c-2.51.53-6.25.81-10.46-3.98-.24-.25-.51-.37-.77-.38-.25,0-.48.11-.68.32-.36.37-.26.76-.07,1.06.12.18.27.35.37.45,5.63,5.7,10.64,4.44,11.93,4.16l-1.59,2.47s1.04.71,1.61.09c.76-.82,2.52-3.95,2.52-3.95Z"/>
      <path class="cls-41" d="m413.89,359.83c-.11-1.12-1.23-4.53-1.23-4.53,0,0-4.13.88-4.57,1.07-.78.33-.44,1.55-.44,1.55l2.97-.72h0c-3.22,5.85-11.68,13.92-20.7,10.04-1.2-.66-1.98,1.01-.87,1.49,9.92,4.42,19.07-3.66,22.91-10.68l.76,2.9s1.22-.28,1.15-1.12Z"/>
      <path class="cls-41" d="m307.97,358.61c-.65-.91-3.33-3.31-3.33-3.31,0,0-3.13,2.83-3.42,3.21-.51.68.39,1.56.39,1.56l2.21-2.11h0c.14,6.67-3.16,17.89-12.91,19.05-1.37.03-1.21,1.86,0,1.73,10.8-1.13,14.69-12.7,14.5-20.71l2.11,2.14s.92-.86.44-1.55Z"/>
      <path class="cls-30" d="m459.15,354.92c0,11.89,9.57,22.68,21.38,22.72l-2.65,2.41s1.01,1.11,1.85.54c.95-.65,4.08-3.93,4.08-3.93,0,0-2.66-3.32-3.8-4.21-.81-.63-1.89.43-1.89.43l2.61,2.78c-8.93-.03-18.78-7.32-19.5-20.74-.08-1.57-2.09-1.62-2.08,0Z"/>
      <path class="cls-30" d="m481.59,456.36l1.81,3.11s1.3-.75.92-1.7c-.44-1.07-2.98-4.82-2.98-4.82,0,0-3.81,1.9-4.92,2.83-.79.65.02,1.94.02,1.94l3.16-1.86s.07-.08.11-.11c-3.21,12.12-16.23,10.66-17.88-1.57-.1-.76-.72-1.34-1.28-1.22-.49.11-.95.42-.8,1.4,2.35,14.98,18.27,15.63,21.84,2Z"/>
      <g>
        <circle class="cls-26" cx="186.91" cy="480.98" r="2.5"/>
        <circle class="cls-26" cx="216.9" cy="450.98" r="2.5"/>
        <circle class="cls-26" cx="186.91" cy="420.98" r="2.5"/>
        <circle class="cls-26" cx="156.91" cy="450.98" r="2.5"/>
        <circle class="cls-26" cx="186.91" cy="450.98" r="1.12"/>
      </g>
      <g>
        <circle class="cls-26" cx="286.9" cy="480.98" r="2.5"/>
        <circle class="cls-26" cx="316.9" cy="450.98" r="2.5"/>
        <circle class="cls-26" cx="286.9" cy="420.98" r="2.5"/>
        <circle class="cls-26" cx="256.9" cy="450.98" r="2.5"/>
        <circle class="cls-26" cx="286.9" cy="450.98" r="1.12"/>
      </g>
      <g>
        <circle class="cls-26" cx="386.9" cy="480.98" r="2.5"/>
        <circle class="cls-26" cx="416.9" cy="450.98" r="2.5"/>
        <circle class="cls-26" cx="386.9" cy="420.98" r="2.5"/>
        <circle class="cls-26" cx="356.9" cy="450.98" r="2.5"/>
        <circle class="cls-26" cx="386.9" cy="450.98" r="1.12"/>
      </g>
      <g>
        <circle class="cls-26" cx="486.89" cy="480.98" r="2.5"/>
        <circle class="cls-26" cx="516.89" cy="450.98" r="2.5"/>
        <circle class="cls-26" cx="486.89" cy="420.98" r="2.5"/>
        <circle class="cls-26" cx="456.9" cy="450.98" r="2.5"/>
        <circle class="cls-26" cx="486.89" cy="450.98" r="1.12"/>
      </g>
      <polygon class="cls-26" points="226.39 450.07 241.34 450.07 241.34 446.91 246.55 450.98 241.34 455.06 241.34 451.89 226.39 451.89 226.39 450.07"/>
      <polygon class="cls-26" points="326.39 450.07 341.33 450.07 341.33 446.91 346.54 450.98 341.33 455.06 341.33 451.89 326.39 451.89 326.39 450.07"/>
      <path class="cls-26" d="m432.51,449.66v-2.34h10.54v2.34h-10.54Zm0,4.99v-2.34h10.54v2.34h-10.54Z"/>
      <path class="cls-41" d="m389.62,447.23c.5,0,.92.39.92.87v1.82s22.28,0,22.28,0c.49,0,.89.39.89.85v.42c0,.46-.4.85-.89.85h-22.28s0,1.82,0,1.82c0,.48-.42.87-.92.87s-.91-.39-.91-.87v-5.76c0-.48.41-.87.91-.87Z"/>
      <path class="cls-30" d="m390.65,476.89c0-.5-.39-.92-.87-.92h-1.82s0-22.28,0-22.28c0-.49-.39-.89-.85-.89h-.42c-.46,0-.85.4-.85.89v22.28s-1.82,0-1.82,0c-.48,0-.87.42-.87.92s.39.91.87.91h5.76c.48,0,.87-.41.87-.91Z"/>
      <path class="cls-30" d="m490.64,476.89c0-.5-.39-.92-.87-.92h-1.82v-22.28c0-.49-.39-.89-.85-.89h-.42c-.46,0-.85.4-.85.89v22.28h-1.82c-.48,0-.87.42-.87.92,0,.5.39.91.87.91h5.76c.48,0,.87-.41.87-.91Z"/>
      <path class="cls-41" d="m489.61,447.23c.5,0,.92.39.92.87v1.82s22.28,0,22.28,0c.49,0,.89.39.89.85v.42c0,.46-.4.85-.89.85h-22.28s0,1.82,0,1.82c0,.48-.42.87-.92.87s-.91-.39-.91-.87v-5.76c0-.48.41-.87.91-.87Z"/>
      <path class="cls-30" d="m184.19,454.73c-.5,0-.92-.39-.92-.87v-1.82s-22.28,0-22.28,0c-.49,0-.89-.39-.89-.85v-.42c0-.46.4-.85.89-.85h22.28s0-1.82,0-1.82c0-.48.42-.87.92-.87s.91.39.91.87v5.76c0,.48-.41.87-.91.87Z"/>
      <path class="cls-41" d="m190.66,453.7c0,.5-.39.92-.87.92h-1.82s0,22.28,0,22.28c0,.49-.39.89-.85.89h-.42c-.46,0-.85-.4-.85-.89v-22.28s-1.82,0-1.82,0c-.48,0-.87-.42-.87-.92,0-.5.39-.91.87-.91h5.76c.48,0,.87.41.87.91Z"/>
      <path class="cls-41" d="m291.48,450.25c.35.35.37.93.03,1.26l-1.29,1.29,15.76,15.76c.35.35.35.9.03,1.23l-.3.3c-.33.33-.88.32-1.23-.03l-15.76-15.76-1.29,1.29c-.34.34-.91.32-1.26-.03s-.37-.92-.03-1.26l4.07-4.07c.34-.34.9-.33,1.26.03Z"/>
      <path class="cls-30" d="m267.83,455.56c.35.35.93.37,1.26.03l1.29-1.29,15.76,15.76c.35.35.9.35,1.23.03l.3-.3c.33-.33.32-.88-.03-1.23l-15.76-15.76,1.29-1.29c.34-.34.32-.91-.03-1.26s-.92-.37-1.26-.03l-4.07,4.07c-.34.34-.33.9.03,1.26Z"/>
      <text class="cls-13" transform="translate(90.92 486.57)"><tspan x="0" y="0">“S-L</tspan><tspan class="cls-17" x="20.28" y="0">o</tspan><tspan x="26.21" y="0">w-One”</tspan></text>
      <path class="cls-41" d="m303.88,470.98s-3.56.47-4.61.86c-.79.29-.51,1.53-.51,1.53l2.94-.54c-1.41,2.15-3.84,4.99-10.21,4.59-.35,0-.62.09-.81.28-.17.18-.26.42-.25.7,0,.52.35.72.7.8.22.05.44.05.57.06,8.01.05,10.67-4.39,11.38-5.49l.62,2.87s1.24-.23,1.2-1.07c-.04-1.11-1.02-4.57-1.02-4.57Z"/>
      <path class="cls-41" d="m414.59,454.73s-2.19,2.85-2.65,3.87c-.35.77.72,1.44.72,1.44l1.69-2.46c.53,2.51.81,6.25-3.98,10.46-.25.24-.37.51-.38.77,0,.25.11.48.32.68.37.36.76.26,1.06.07.18-.12.35-.27.45-.37,5.7-5.63,4.44-10.64,4.16-11.93l2.47,1.59s.71-1.04.09-1.61c-.82-.76-3.95-2.52-3.95-2.52Z"/>
      <path class="cls-30" d="m378.05,477.97c1.12-.11,4.53-1.23,4.53-1.23,0,0-.88-4.13-1.07-4.57-.33-.78-1.55-.44-1.55-.44l.72,2.97h0c-5.85-3.21-13.92-11.67-10.04-20.7.66-1.2-1.01-1.98-1.49-.87-4.42,9.92,3.66,19.07,10.68,22.91l-2.9.76s.28,1.22,1.12,1.15Z"/>
      <path class="cls-30" d="m279.28,472.05c.91-.65,3.31-3.33,3.31-3.33,0,0-2.83-3.13-3.21-3.42-.68-.51-1.56.39-1.56.39l2.11,2.21h0c-6.67.15-17.89-3.15-19.05-12.9-.03-1.37-1.86-1.21-1.73,0,1.13,10.8,12.7,14.69,20.71,14.5l-2.14,2.11s.86.92,1.55.44Z"/>
      <path class="cls-41" d="m492.18,480.68c11.89,0,22.68-9.57,22.72-21.38l2.41,2.65s1.11-1.01.54-1.85c-.65-.95-3.93-4.08-3.93-4.08,0,0-3.32,2.66-4.21,3.8-.63.81.43,1.89.43,1.89l2.78-2.61c-.03,8.93-7.32,18.78-20.74,19.5-1.57.08-1.62,2.09,0,2.08Z"/>
      <g>
        <circle class="cls-26" cx="186.91" cy="605.98" r="2.5"/>
        <circle class="cls-26" cx="216.9" cy="575.98" r="2.5"/>
        <circle class="cls-26" cx="186.91" cy="545.98" r="2.5"/>
        <circle class="cls-26" cx="156.91" cy="575.98" r="2.5"/>
        <circle class="cls-26" cx="186.91" cy="575.98" r="1.12"/>
      </g>
      <g>
        <circle class="cls-26" cx="286.9" cy="605.98" r="2.5"/>
        <circle class="cls-26" cx="316.9" cy="575.98" r="2.5"/>
        <circle class="cls-26" cx="286.9" cy="545.98" r="2.5"/>
        <circle class="cls-26" cx="256.9" cy="575.98" r="2.5"/>
        <circle class="cls-26" cx="286.9" cy="575.98" r="1.12"/>
      </g>
      <g>
        <circle class="cls-26" cx="386.9" cy="605.98" r="2.5"/>
        <circle class="cls-26" cx="416.9" cy="575.98" r="2.5"/>
        <circle class="cls-26" cx="386.9" cy="545.98" r="2.5"/>
        <circle class="cls-26" cx="356.9" cy="575.98" r="2.5"/>
        <circle class="cls-26" cx="386.9" cy="575.98" r="1.12"/>
      </g>
      <g>
        <circle class="cls-26" cx="486.89" cy="605.98" r="2.5"/>
        <circle class="cls-26" cx="516.89" cy="575.98" r="2.5"/>
        <circle class="cls-26" cx="486.89" cy="545.98" r="2.5"/>
        <circle class="cls-26" cx="456.9" cy="575.98" r="2.5"/>
        <circle class="cls-26" cx="486.89" cy="575.98" r="1.12"/>
      </g>
      <polygon class="cls-26" points="226.39 575.07 241.34 575.07 241.34 571.9 246.55 575.98 241.34 580.05 241.34 576.89 226.39 576.89 226.39 575.07"/>
      <polygon class="cls-26" points="326.39 575.07 341.33 575.07 341.33 571.9 346.54 575.98 341.33 580.05 341.33 576.89 326.39 576.89 326.39 575.07"/>
      <path class="cls-26" d="m432.51,574.65v-2.34h10.54v2.34h-10.54Zm0,4.99v-2.34h10.54v2.34h-10.54Z"/>
      <path class="cls-30" d="m383.15,601.88c0-.5.39-.92.87-.92h1.82s0-22.28,0-22.28c0-.49.39-.89.85-.89h.42c.46,0,.85.4.85.89v22.28s1.82,0,1.82,0c.48,0,.87.42.87.92,0,.5-.39.91-.87.91h-5.76c-.48,0-.87-.41-.87-.91Z"/>
      <path class="cls-41" d="m389.62,579.73c.5,0,.92-.39.92-.87v-1.82h22.28c.49,0,.89-.39.89-.85v-.42c0-.46-.4-.85-.89-.85h-22.28v-1.82c0-.48-.42-.87-.92-.87s-.91.39-.91.87v5.76c0,.48.41.87.91.87Z"/>
      <path class="cls-30" d="m483.14,578.7c0,.5.39.92.87.92h1.82v22.28c0,.49.39.89.85.89h.42c.46,0,.85-.4.85-.89v-22.28h1.82c.48,0,.87-.42.87-.92s-.39-.91-.87-.91h-5.76c-.48,0-.87.41-.87.91Z"/>
      <path class="cls-41" d="m512.8,579.73c-.5,0-.92-.39-.92-.87v-1.82s-22.28,0-22.28,0c-.49,0-.89-.39-.89-.85v-.42c0-.46.4-.85.89-.85h22.28s0-1.82,0-1.82c0-.48.42-.87.92-.87s.91.39.91.87v5.76c0,.48-.41.87-.91.87Z"/>
      <path class="cls-30" d="m184.19,579.73c-.5,0-.92-.39-.92-.87v-1.82s-22.28,0-22.28,0c-.49,0-.89-.39-.89-.85v-.42c0-.46.4-.85.89-.85h22.28s0-1.82,0-1.82c0-.48.42-.87.92-.87s.91.39.91.87v5.76c0,.48-.41.87-.91.87Z"/>
      <path class="cls-41" d="m190.66,578.7c0,.5-.39.92-.87.92h-1.82s0,22.28,0,22.28c0,.49-.39.89-.85.89h-.42c-.46,0-.85-.4-.85-.89v-22.28s-1.82,0-1.82,0c-.48,0-.87-.42-.87-.92,0-.5.39-.91.87-.91h5.76c.48,0,.87.41.87.91Z"/>
      <path class="cls-30" d="m282.33,595.05c-.35-.35-.37-.93-.03-1.26l1.29-1.29-15.76-15.76c-.35-.35-.35-.9-.03-1.23l.3-.3c.33-.33.88-.32,1.23.03l15.76,15.76,1.29-1.29c.34-.34.91-.32,1.26.03s.37.92.03,1.26l-4.07,4.07c-.34.34-.9.33-1.26-.03Z"/>
      <path class="cls-41" d="m307.76,591.53c-.35-.35-.93-.37-1.26-.03l-1.29,1.29-15.76-15.76c-.35-.35-.9-.35-1.23-.03l-.3.3c-.33.33-.32.88.03,1.23l15.76,15.76-1.29,1.29c-.34.34-.32.91.03,1.26s.92.37,1.26.03l4.07-4.07c.34-.34.33-.9-.03-1.26Z"/>
      <text class="cls-13" transform="translate(90 611.57)"><tspan x="0" y="0">“</tspan><tspan class="cls-33" x="4.4" y="0">T</tspan><tspan x="10.05" y="0">-High-One”</tspan></text>
      <path class="cls-30" d="m265.57,569.21c.72.53,2.62,2.71,2.62,2.71,0,0-1.87,2.16-2.59,2.68-.54.39-1.25-.34-1.25-.34l1.71-1.73-10.36-.11c-.88,0-.89-1.24,0-1.24l10.36.11-1.73-1.76s.69-.72,1.24-.32Z"/>
      <path class="cls-30" d="m383.92,599.28c-.53.72-2.71,2.62-2.71,2.62,0,0-2.16-1.87-2.68-2.59-.39-.54.34-1.25.34-1.25l1.73,1.71.11-10.36c0-.88,1.24-.89,1.24,0l-.11,10.36,1.76-1.73s.72.69.32,1.24Z"/>
      <path class="cls-30" d="m383.3,571.24c.72.53,2.62,2.71,2.62,2.71,0,0-1.87,2.16-2.59,2.68-.54.39-1.25-.34-1.25-.34l1.71-1.73-10.36-.11c-.88,0-.89-1.24,0-1.24l10.36.11-1.73-1.76s.69-.72,1.24-.32Z"/>
      <path class="cls-30" d="m286.27,584.83c-.53.72-2.71,2.62-2.71,2.62,0,0-2.16-1.87-2.68-2.59-.39-.54.34-1.25.34-1.25l1.73,1.71.11-10.36c0-.88,1.24-.89,1.24,0l-.11,10.36,1.76-1.73s.72.69.32,1.24Z"/>
      <path class="cls-41" d="m301.16,598.35s.25-3.59.08-4.69c-.14-.83-1.4-.81-1.4-.81l-.02,3.04c-9.7-9.7-9.37-8.57-9.37,7.17,0,.97,1.85,1.01,1.84-.17,0-13.61-1.4-12.98,6.28-5.88l-2.91.02s-.02,1.26.81,1.4c1.1.17,4.69-.08,4.69-.08Z"/>
      <path class="cls-41" d="m410.68,581.69s-2.36-2.72-3.26-3.37c-.68-.49-1.56.42-1.56.42l2.13,2.17c-13.72,0-12.69.57-1.56,11.7.68.68,2.02-.59,1.18-1.42-9.62-9.62-10.16-8.19.28-8.6l-2.04,2.07s.88.91,1.56.42c.9-.66,3.26-3.37,3.26-3.37Z"/>
      <path class="cls-41" d="m513.89,583.43s-3.01,3.38-3.95,4.07c-.82.61-1.87-.47-1.87-.47l2.7-2.65c-7.31-.33-7.91,4.12-6.28,10.29-6.34-1.43-11.8-2.9-11.8,9.19,0,1.35-2.05,1.36-2.05.01,0-8.38,3.19-13.94,11.26-11.98-.88-6.54,1.72-9.05,8.86-9.31l-2.69-2.73s1.05-1.1,1.87-.5c1.18.85,3.95,4.08,3.95,4.08Z"/>
      <path class="cls-30" d="m459.11,580.23c21.23,0,21.27-.54,21.27,20.15l2.66-2.72s1.1,1.04.5,1.87c-.85,1.18-4.08,3.95-4.08,3.95,0,0-3.38-3.01-4.07-3.95-.6-.82.48-1.87.48-1.87l2.56,2.72c0-19.11.84-18.08-19.29-18.08-1.51,0-1.51-2.07-.03-2.07Z"/>
      <g>
        <circle class="cls-26" cx="186.91" cy="705.97" r="2.5"/>
        <circle class="cls-26" cx="216.9" cy="675.97" r="2.5"/>
        <circle class="cls-26" cx="186.91" cy="645.98" r="2.5"/>
        <circle class="cls-26" cx="156.91" cy="675.97" r="2.5"/>
        <circle class="cls-26" cx="186.91" cy="675.97" r="1.12"/>
      </g>
      <g>
        <circle class="cls-26" cx="286.9" cy="705.97" r="2.5"/>
        <circle class="cls-26" cx="316.9" cy="675.97" r="2.5"/>
        <circle class="cls-26" cx="286.9" cy="645.98" r="2.5"/>
        <circle class="cls-26" cx="256.9" cy="675.97" r="2.5"/>
        <circle class="cls-26" cx="286.9" cy="675.97" r="1.12"/>
      </g>
      <g>
        <circle class="cls-26" cx="386.9" cy="705.97" r="2.5"/>
        <circle class="cls-26" cx="416.9" cy="675.97" r="2.5"/>
        <circle class="cls-26" cx="386.9" cy="645.98" r="2.5"/>
        <circle class="cls-26" cx="356.9" cy="675.97" r="2.5"/>
        <circle class="cls-26" cx="386.9" cy="675.97" r="1.12"/>
      </g>
      <g>
        <circle class="cls-26" cx="486.89" cy="705.97" r="2.5"/>
        <circle class="cls-26" cx="516.89" cy="675.97" r="2.5"/>
        <circle class="cls-26" cx="486.89" cy="645.98" r="2.5"/>
        <circle class="cls-26" cx="456.9" cy="675.97" r="2.5"/>
        <circle class="cls-26" cx="486.89" cy="675.97" r="1.12"/>
      </g>
      <polygon class="cls-26" points="226.39 675.07 241.34 675.07 241.34 671.9 246.55 675.97 241.34 680.05 241.34 676.88 226.39 676.88 226.39 675.07"/>
      <polygon class="cls-26" points="326.39 675.07 341.33 675.07 341.33 671.9 346.54 675.97 341.33 680.05 341.33 676.88 326.39 676.88 326.39 675.07"/>
      <path class="cls-26" d="m432.51,674.65v-2.34h10.54v2.34h-10.54Zm0,4.99v-2.34h10.54v2.34h-10.54Z"/>
      <path class="cls-41" d="m412.8,679.72c-.5,0-.92-.39-.92-.87v-1.82s-22.28,0-22.28,0c-.49,0-.89-.39-.89-.85v-.42c0-.46.4-.85.89-.85h22.28s0-1.82,0-1.82c0-.48.42-.87.92-.87s.91.39.91.87v5.76c0,.48-.41.87-.91.87Z"/>
      <path class="cls-30" d="m383.15,678.69c0,.5.39.92.87.92h1.82v22.28c0,.49.39.89.85.89h.42c.46,0,.85-.4.85-.89v-22.28h1.82c.48,0,.87-.42.87-.92s-.39-.91-.87-.91h-5.76c-.48,0-.87.41-.87.91Z"/>
      <path class="cls-41" d="m489.61,679.72c.5,0,.92-.39.92-.87v-1.82h22.28c.49,0,.89-.39.89-.85v-.42c0-.46-.4-.85-.89-.85h-22.28v-1.82c0-.48-.42-.87-.92-.87s-.91.39-.91.87v5.76c0,.48.41.87.91.87Z"/>
      <path class="cls-30" d="m483.14,701.88c0-.5.39-.92.87-.92h1.82s0-22.28,0-22.28c0-.49.39-.89.85-.89h.42c.46,0,.85.4.85.89v22.28s1.82,0,1.82,0c.48,0,.87.42.87.92,0,.5-.39.91-.87.91h-5.76c-.48,0-.87-.41-.87-.91Z"/>
      <path class="cls-30" d="m184.19,679.72c-.5,0-.92-.39-.92-.87v-1.82s-22.28,0-22.28,0c-.49,0-.89-.39-.89-.85v-.42c0-.46.4-.85.89-.85h22.28s0-1.82,0-1.82c0-.48.42-.87.92-.87s.91.39.91.87v5.76c0,.48-.41.87-.91.87Z"/>
      <path class="cls-41" d="m190.66,678.69c0,.5-.39.92-.87.92h-1.82s0,22.28,0,22.28c0,.49-.39.89-.85.89h-.42c-.46,0-.85-.4-.85-.89v-22.28s-1.82,0-1.82,0c-.48,0-.87-.42-.87-.92,0-.5.39-.91.87-.91h5.76c.48,0,.87.41.87.91Z"/>
      <path class="cls-41" d="m305.97,680.55c-.35.35-.93.37-1.26.03l-1.29-1.29-15.76,15.76c-.35.35-.9.35-1.23.03l-.3-.3c-.33-.33-.32-.88.03-1.23l15.76-15.76-1.29-1.29c-.34-.34-.32-.91.03-1.26s.92-.37,1.26-.03l4.07,4.07c.34.34.33.9-.03,1.26Z"/>
      <path class="cls-30" d="m271.35,696.83c.35-.35.37-.93.03-1.26l-1.29-1.29,15.76-15.76c.35-.35.35-.9.03-1.23l-.3-.3c-.33-.33-.88-.32-1.23.03l-15.76,15.76-1.29-1.29c-.34-.34-.91-.32-1.26.03s-.37.92-.03,1.26l4.07,4.07c.34.34.9.33,1.26-.03Z"/>
      <text class="cls-13" transform="translate(90 711.57)"><tspan x="0" y="0">“</tspan><tspan class="cls-33" x="4.4" y="0">T</tspan><tspan x="10.05" y="0">-L</tspan><tspan class="cls-17" x="20.16" y="0">o</tspan><tspan x="26.09" y="0">w-One”</tspan></text>
      <path class="cls-41" d="m279.74,695.68c.53-.72,2.71-2.62,2.71-2.62,0,0,2.16,1.87,2.68,2.59.39.54-.34,1.25-.34,1.25l-1.73-1.71-.11,10.36c0,.88-1.24.89-1.24,0l.11-10.36-1.76,1.73s-.72-.69-.32-1.24Z"/>
      <path class="cls-41" d="m410.57,667.73c.72.53,2.62,2.71,2.62,2.71,0,0-1.87,2.16-2.59,2.68-.54.39-1.25-.34-1.25-.34l1.71-1.73-10.36-.11c-.88,0-.89-1.24,0-1.24l10.36.11-1.73-1.76s.69-.72,1.24-.32Z"/>
      <path class="cls-41" d="m389.22,682.12c.53-.72,2.71-2.62,2.71-2.62,0,0,2.16,1.87,2.68,2.59.39.54-.34,1.25-.34,1.25l-1.73-1.71-.11,10.36c0,.88-1.24.89-1.24,0l.11-10.36-1.76,1.73s-.72-.69-.32-1.24Z"/>
      <path class="cls-41" d="m297.94,670.55c.72.53,2.62,2.71,2.62,2.71,0,0-1.87,2.16-2.59,2.68-.54.39-1.25-.34-1.25-.34l1.71-1.73-10.36-.11c-.88,0-.89-1.24,0-1.24l10.36.11-1.73-1.76s.69-.72,1.24-.32Z"/>
      <path class="cls-30" d="m264.53,690.23s3.59.25,4.69.08c.83-.14.81-1.4.81-1.4l-3.04-.02c9.7-9.7,8.57-9.37-7.17-9.37-.97,0-1.01,1.85.17,1.84,13.61,0,12.98-1.4,5.88,6.28l-.02-2.91s-1.26-.02-1.4.81c-.17,1.1.08,4.69.08,4.69Z"/>
      <path class="cls-30" d="m381.19,699.76s2.72-2.36,3.37-3.26c.49-.68-.42-1.56-.42-1.56l-2.17,2.13c0-13.72-.57-12.69-11.7-1.56-.68.68.59,2.02,1.42,1.18,9.62-9.62,8.19-10.16,8.6.28l-2.07-2.04s-.91.88-.42,1.56c.66.9,3.37,3.26,3.37,3.26Z"/>
      <path class="cls-30" d="m479.44,702.97s-3.38-3.01-4.07-3.95c-.61-.82.47-1.87.47-1.87l2.65,2.7c.33-7.31-4.12-7.91-10.29-6.28,1.43-6.34,2.9-11.8-9.19-11.8-1.35,0-1.36-2.05-.01-2.05,8.38,0,13.94,3.19,11.98,11.26,6.54-.88,9.05,1.72,9.31,8.86l2.73-2.69s1.1,1.05.5,1.87c-.85,1.18-4.08,3.95-4.08,3.95Z"/>
      <path class="cls-41" d="m491.15,703.76c0-21.23-.54-21.27,20.15-21.27l-2.72-2.66s1.04-1.1,1.87-.5c1.18.85,3.95,4.08,3.95,4.08,0,0-3.01,3.38-3.95,4.07-.82.6-1.87-.48-1.87-.48l2.72-2.56c-19.11,0-18.08-.84-18.08,19.29,0,1.51-2.07,1.51-2.07.03Z"/>
      <line class="cls-2" x1="154.66" y1="403.59" x2="519.64" y2="403.59"/>
      <line class="cls-1" x1="574.87" y1="519.7" x2="38.92" y2="519.7"/>
      <line class="cls-2" x1="154.66" y1="629.17" x2="519.64" y2="629.17"/>
      <g>
        <path class="cls-26" d="m126.56,357.83c-.51,2.46-3,4.91-6.71,4.91h-.23c-2.07-.08-5.77-.53-7.29-2.59-.8-1.09-.96-2.34-.39-2.98.49-.55,1.42-.49,2.55.16,2.24,2.2,5.24,2.24,7.08,1.33,1.09-.53,1.7-1.36,1.6-2.14-.06-.68-.74-1.95-4.39-2.79-5.17-1.17-7.37-4.11-7.23-6.51.12-2.14,2.16-4.64,7.45-5.21.14-.02.27-.02.41-.02,2.24,0,5.52,1.72,6.14,3.31.27.66.08,1.23-.53,1.7-.39.29-1.23-.1-2.28-.62-.99-.47-2.09-1.01-3.14-1.15-.29-.04-.55-.06-.82-.06-1.97,0-3.49.99-3.78,2.05-.27.96.47,1.87,1.99,2.48l6.2,2.5c3.1,1.29,3.78,3.74,3.37,5.6Z"/>
        <path d="m139,347.51v1.75h-6.22v-1.75h2.03v-4.98h-2.03v-1.82l.69-.07c.47-.05.77-.06,1.46-.24.71-.19,1.21-.46,1.21-.46h.83v7.58h2.03Z"/>
      </g>
      <g>
        <path class="cls-26" d="m126.56,455.41c-.51,2.46-3,4.91-6.71,4.91h-.23c-2.07-.08-5.77-.53-7.29-2.59-.8-1.09-.96-2.34-.39-2.98.49-.55,1.42-.49,2.55.16,2.24,2.2,5.24,2.24,7.08,1.33,1.09-.53,1.7-1.36,1.6-2.14-.06-.68-.74-1.95-4.39-2.79-5.17-1.17-7.37-4.11-7.23-6.51.12-2.14,2.16-4.64,7.45-5.21.14-.02.27-.02.41-.02,2.24,0,5.52,1.72,6.14,3.31.27.66.08,1.23-.53,1.7-.39.29-1.23-.1-2.28-.62-.99-.47-2.09-1.01-3.14-1.15-.29-.04-.55-.06-.82-.06-1.97,0-3.49.99-3.78,2.05-.27.96.47,1.87,1.99,2.48l6.2,2.5c3.1,1.29,3.78,3.74,3.37,5.6Z"/>
        <path d="m139,460.63v1.75h-6.22v-1.75h2.03v-4.98h-2.03v-1.82l.69-.07c.47-.05.77-.06,1.46-.24.71-.19,1.21-.46,1.21-.46h.83v7.58h2.03Z"/>
      </g>
      <g>
        <path class="cls-26" d="m128.43,567.98c-.02,1.02-.79,1.62-2.43,1.6h-4.33v15.49c0,.93-.77,1.72-1.72,1.72s-1.72-.79-1.72-1.72v-15.49h-4.33c-1.64.02-2.41-.58-2.43-1.6-.04-1.29.93-1.85,2.32-1.89,1.7-.04,10.62-.04,12.32,0,1.39.04,2.36.6,2.32,1.89Z"/>
        <path d="m139.85,571.56v1.75h-6.22v-1.75h2.03v-4.98h-2.03v-1.82l.69-.07c.47-.05.77-.06,1.46-.24.71-.19,1.21-.46,1.21-.46h.83v7.58h2.03Z"/>
      </g>
      <g>
        <path class="cls-26" d="m128.43,666.49c-.02,1.02-.79,1.62-2.43,1.6h-4.33v15.49c0,.93-.77,1.72-1.72,1.72s-1.72-.79-1.72-1.72v-15.49h-4.33c-1.64.02-2.41-.58-2.43-1.6-.04-1.29.93-1.85,2.32-1.89,1.7-.04,10.62-.04,12.32,0,1.39.04,2.36.6,2.32,1.89Z"/>
        <path d="m139.85,685.62v1.75h-6.22v-1.75h2.03v-4.98h-2.03v-1.82l.69-.07c.47-.05.77-.06,1.46-.24.71-.19,1.21-.46,1.21-.46h.83v7.58h2.03Z"/>
      </g>
      <g>
        <path class="cls-26" d="m488.36,397.78c-.25,1.19-1.45,2.37-3.24,2.37h-.11c-1-.04-2.78-.26-3.51-1.25-.39-.52-.47-1.13-.19-1.44.24-.27.68-.24,1.23.08,1.08,1.06,2.52,1.08,3.42.64.52-.26.82-.65.77-1.03-.03-.33-.36-.94-2.12-1.35-2.49-.56-3.55-1.98-3.49-3.14.06-1.03,1.04-2.24,3.59-2.51.07,0,.13,0,.2,0,1.08,0,2.66.83,2.96,1.59.13.32.04.59-.26.82-.19.14-.59-.05-1.1-.3-.48-.23-1.01-.49-1.51-.55-.14-.02-.27-.03-.4-.03-.95,0-1.68.48-1.82.99-.13.47.23.9.96,1.2l2.99,1.21c1.5.62,1.82,1.8,1.62,2.7Z"/>
        <path d="m492.69,392.8v.85h-3v-.85h.98v-2.4h-.98v-.88l.33-.03c.23-.02.37-.03.71-.12s.58-.22.58-.22h.4v3.65h.98Z"/>
      </g>
      <g>
        <path class="cls-26" d="m488,499.65c-.25,1.19-1.45,2.37-3.24,2.37h-.11c-1-.04-2.78-.26-3.51-1.25-.39-.52-.47-1.13-.19-1.44.24-.27.68-.24,1.23.08,1.08,1.06,2.52,1.08,3.42.64.52-.26.82-.65.77-1.03-.03-.33-.36-.94-2.12-1.35-2.49-.56-3.55-1.98-3.49-3.14.06-1.03,1.04-2.24,3.59-2.51.07,0,.13,0,.2,0,1.08,0,2.66.83,2.96,1.59.13.32.04.59-.26.82-.19.14-.59-.05-1.1-.3-.48-.23-1.01-.49-1.51-.55-.14-.02-.27-.03-.4-.03-.95,0-1.68.48-1.82.99-.13.47.23.9.96,1.2l2.99,1.21c1.5.62,1.82,1.8,1.62,2.7Z"/>
        <path d="m493.05,494.67v.85h-3v-.85h.98v-2.4h-.98v-.88l.33-.03c.23-.02.37-.03.71-.12s.58-.22.58-.22h.4v3.65h.98Z"/>
      </g>
      <g>
        <path class="cls-26" d="m488.24,616.72c-.01.49-.38.78-1.17.77h-2.09v7.47c0,.45-.37.83-.83.83s-.83-.38-.83-.83v-7.47h-2.09c-.79,0-1.16-.28-1.17-.77-.02-.62.45-.89,1.12-.91.82-.02,5.12-.02,5.94,0,.67.02,1.14.29,1.12.91Z"/>
        <path d="m493.75,618.44v.85h-3v-.85h.98v-2.4h-.98v-.88l.33-.03c.23-.02.37-.03.71-.12s.58-.22.58-.22h.4v3.65h.98Z"/>
      </g>
      <g>
        <path class="cls-26" d="m488.24,718c-.01.49-.38.78-1.17.77h-2.09v7.47c0,.45-.37.83-.83.83s-.83-.38-.83-.83v-7.47h-2.09c-.79,0-1.16-.28-1.17-.77-.02-.62.45-.89,1.12-.91.82-.02,5.12-.02,5.94,0,.67.02,1.14.29,1.12.91Z"/>
        <path d="m493.75,727.23v.85h-3v-.85h.98v-2.4h-.98v-.88l.33-.03c.23-.02.37-.03.71-.12s.58-.22.58-.22h.4v3.65h.98Z"/>
      </g>
    </g>
    <g>
      <text class="cls-7" transform="translate(171.3 249.35)"><tspan class="cls-47" x="0" y="0">F</tspan><tspan x="10.05" y="0">or S and </tspan><tspan class="cls-35" x="88.86" y="0">T</tspan><tspan x="99.3" y="0">, </tspan><tspan x="-104.53" y="24">hi</tspan><tspan class="cls-15" x="-86.3" y="24">g</tspan><tspan x="-76.04" y="24">h = leading and l</tspan><tspan class="cls-36" x="74.42" y="24">o</tspan><tspan x="85.39" y="24">w = foll</tspan><tspan class="cls-36" x="152.24" y="24">o</tspan><tspan x="163.21" y="24">win</tspan><tspan class="cls-46" x="197.53" y="24">g</tspan><tspan x="208.23" y="24">.</tspan></text>
      <g>
        <text class="cls-23" transform="translate(463.58 247.16)"><tspan x="0" y="0">Leading</tspan></text>
        <text class="cls-23" transform="translate(463.58 295.83)"><tspan class="cls-20" x="0" y="0">F</tspan><tspan x="8.96" y="0">oll</tspan><tspan class="cls-38" x="28.28" y="0">o</tspan><tspan x="37.75" y="0">wing</tspan></text>
        <path class="cls-26" d="m459.59,275.19c-1.17,5.63-6.85,11.21-15.33,11.21h-.52c-4.74-.19-13.18-1.22-16.65-5.91-1.83-2.49-2.2-5.35-.89-6.8,1.13-1.27,3.24-1.13,5.81.37,5.11,5.02,11.96,5.11,16.18,3.05,2.49-1.22,3.89-3.09,3.66-4.88-.14-1.55-1.69-4.45-10.03-6.38-11.82-2.67-16.83-9.38-16.51-14.86.28-4.88,4.92-10.6,17.02-11.91.33-.05.61-.05.94-.05,5.11,0,12.61,3.94,14.02,7.55.61,1.5.19,2.81-1.22,3.89-.89.66-2.81-.23-5.2-1.41-2.25-1.08-4.78-2.3-7.17-2.63-.66-.09-1.27-.14-1.88-.14-4.5,0-7.97,2.25-8.63,4.69-.61,2.2,1.08,4.27,4.55,5.67l14.16,5.72c7.08,2.95,8.63,8.53,7.69,12.8Z"/>
      </g>
    </g>
    <text class="cls-25" transform="translate(92.42 750.68)"><tspan class="cls-9" x="0" y="0">No</tspan><tspan class="cls-3" x="18.02" y="0">t</tspan><tspan class="cls-9" x="23.38" y="0">e that th</tspan><tspan class="cls-10" x="79.77" y="0">e</tspan><tspan class="cls-9" x="87.16" y="0">se leading/foll</tspan><tspan class="cls-4" x="184.4" y="0">o</tspan><tspan class="cls-9" x="192.32" y="0">wing rul</tspan><tspan class="cls-10" x="249.07" y="0">e</tspan><tspan class="cls-9" x="256.46" y="0">s do N</tspan><tspan class="cls-6" x="296.27" y="0">O</tspan><tspan class="cls-9" x="305.9" y="0">T app</tspan><tspan class="cls-11" x="343.93" y="0">l</tspan><tspan class="cls-9" x="348.31" y="0">y </tspan><tspan class="cls-3" x="359.11" y="0">t</tspan><tspan class="cls-9" x="364.47" y="0">o U and </tspan><tspan class="cls-8" x="418.16" y="0">V</tspan><tspan class="cls-9" x="425.57" y="0">.</tspan><tspan class="cls-28" x="428.94" y="0"> </tspan><tspan class="cls-28"><tspan class="cls-40" x="-16.38" y="18">Ev</tspan><tspan x="-.78" y="18">en thou</tspan><tspan class="cls-15" x="47.81" y="18">g</tspan><tspan x="55.11" y="18">h U and V h</tspan><tspan class="cls-40" x="127.67" y="18">av</tspan><tspan x="141.97" y="18">e a leader/</tspan><tspan class="cls-17" x="211.12" y="18">f</tspan><tspan x="215.48" y="18">oll</tspan><tspan class="cls-38" x="231.58" y="18">o</tspan><tspan class="cls-48" x="239.47" y="18">w</tspan><tspan x="250.9" y="18">e</tspan><tspan class="cls-43" x="258.22" y="18">r</tspan><tspan x="262.95" y="18">, their slots </tspan><tspan class="cls-49" x="336.98" y="18">r</tspan><tspan x="342.96" y="18">e</tspan><tspan class="cls-17" x="350.28" y="18">f</tspan><tspan x="354.64" y="18">er </tspan><tspan class="cls-32" x="371.46" y="18">t</tspan><tspan x="376.41" y="18">o p</tspan><tspan class="cls-49" x="396.01" y="18">r</tspan><tspan x="402" y="18">o/anti.</tspan></tspan></text>
  </g>
  <text class="cls-13" transform="translate(175.02 301.25)"><tspan x="0" y="0">s</tspan><tspan class="cls-34" x="4.58" y="0">t</tspan><tspan x="8.64" y="0">art</tspan></text>
  <text class="cls-13" transform="translate(266.86 301.25)"><tspan x="0" y="0">hal</tspan><tspan class="cls-37" x="15.87" y="0">f</tspan><tspan class="cls-29" x="19.62" y="0">wa</tspan><tspan x="34.54" y="0">y</tspan></text>
  <text class="cls-13" transform="translate(377.33 301.25)"><tspan x="0" y="0">end</tspan></text>
  <text class="cls-13" transform="translate(182.22 315.27)"><tspan x="0" y="0">in</tspan></text>
  <text class="cls-13" transform="translate(118.27 315.27)"><tspan x="0" y="0">thumbs:</tspan></text>
  <text class="cls-13" transform="translate(372.11 315.27)"><tspan x="0" y="0">mi</tspan><tspan class="cls-42" x="12.84" y="0">x</tspan><tspan x="18.11" y="0">ed</tspan></text>
  <text class="cls-13" transform="translate(182.22 414.41)"><tspan x="0" y="0">in</tspan></text>
  <text class="cls-13" transform="translate(372.11 414.41)"><tspan x="0" y="0">mi</tspan><tspan class="cls-42" x="12.84" y="0">x</tspan><tspan x="18.11" y="0">ed</tspan></text>
  <text class="cls-13" transform="translate(182.22 536.06)"><tspan x="0" y="0">in</tspan></text>
  <text class="cls-13" transform="translate(372.11 536.06)"><tspan x="0" y="0">mi</tspan><tspan class="cls-42" x="12.84" y="0">x</tspan><tspan x="18.11" y="0">ed</tspan></text>
  <text class="cls-13" transform="translate(182.22 640.52)"><tspan x="0" y="0">in</tspan></text>
  <text class="cls-13" transform="translate(372.11 640.52)"><tspan x="0" y="0">mi</tspan><tspan class="cls-42" x="12.84" y="0">x</tspan><tspan x="18.11" y="0">ed</tspan></text>
</svg>