<?xml version="1.0" encoding="UTF-8"?>
<svg id="Layer_1" data-name="Layer 1" xmlns="http://www.w3.org/2000/svg" viewBox="0 0 612 792">
  <defs>
    <style>
      .cls-1 {
        letter-spacing: -.07em;
      }

      .cls-2, .cls-3 {
        letter-spacing: .02em;
      }

      .cls-4, .cls-5, .cls-6 {
        fill: none;
        stroke: #231f20;
        stroke-miterlimit: 10;
      }

      .cls-7, .cls-8, .cls-9, .cls-10, .cls-11, .cls-12, .cls-13, .cls-14, .cls-15, .cls-16, .cls-17, .cls-18, .cls-19, .cls-20, .cls-21, .cls-3, .cls-22 {
        font-weight: 700;
      }

      .cls-7, .cls-8, .cls-9, .cls-13, .cls-14, .cls-16, .cls-17, .cls-18, .cls-19, .cls-20, .cls-3, .cls-22 {
        font-family: Cambria-BoldItalic, Cambria;
      }

      .cls-7, .cls-13, .cls-23, .cls-24, .cls-25, .cls-16, .cls-17, .cls-18, .cls-26, .cls-3, .cls-22 {
        font-style: italic;
      }

      .cls-7, .cls-27, .cls-21 {
        letter-spacing: 0em;
      }

      .cls-28 {
        letter-spacing: .08em;
      }

      .cls-28, .cls-29, .cls-9, .cls-30, .cls-31, .cls-32, .cls-33, .cls-34, .cls-24, .cls-35, .cls-25, .cls-36, .cls-37, .cls-19, .cls-26, .cls-38 {
        fill: #231f20;
      }

      .cls-28, .cls-29, .cls-30, .cls-31, .cls-32, .cls-33, .cls-39, .cls-34, .cls-35, .cls-40, .cls-41, .cls-42 {
        font-family: Cambria, Cambria;
      }

      .cls-29, .cls-43 {
        letter-spacing: -.01em;
      }

      .cls-44 {
        letter-spacing: -.02em;
      }

      .cls-8, .cls-14 {
        fill: #00a14b;
      }

      .cls-8, .cls-17, .cls-45 {
        letter-spacing: 0em;
      }

      .cls-46 {
        letter-spacing: 0em;
      }

      .cls-9 {
        letter-spacing: -.03em;
      }

      .cls-47 {
        letter-spacing: 0em;
      }

      .cls-48 {
        letter-spacing: -.01em;
      }

      .cls-10, .cls-11, .cls-12, .cls-15, .cls-21 {
        font-family: Cambria-Bold, Cambria;
      }

      .cls-10, .cls-39, .cls-49, .cls-21 {
        fill: #ed1c24;
      }

      .cls-5 {
        stroke-width: .25px;
      }

      .cls-30, .cls-50 {
        letter-spacing: 0em;
      }

      .cls-31, .cls-51 {
        letter-spacing: -.01em;
      }

      .cls-11 {
        font-size: 20px;
      }

      .cls-32 {
        font-size: 18px;
      }

      .cls-52 {
        letter-spacing: -.07em;
      }

      .cls-53 {
        letter-spacing: 0em;
      }

      .cls-12, .cls-40 {
        fill: #21409a;
      }

      .cls-13 {
        letter-spacing: -.07em;
      }

      .cls-33, .cls-41 {
        font-size: 16px;
      }

      .cls-54 {
        letter-spacing: 0em;
      }

      .cls-55 {
        fill: #2e3192;
      }

      .cls-56 {
        letter-spacing: -.01em;
      }

      .cls-23 {
        font-size: 35px;
      }

      .cls-15, .cls-26 {
        font-size: 12px;
      }

      .cls-24, .cls-35, .cls-36, .cls-57 {
        font-size: 15px;
      }

      .cls-24, .cls-25, .cls-37, .cls-26 {
        font-family: Cambria-Italic, Cambria;
      }

      .cls-25 {
        font-size: 11px;
      }

      .cls-16, .cls-58 {
        letter-spacing: 0em;
      }

      .cls-59 {
        letter-spacing: 0em;
      }

      .cls-60 {
        letter-spacing: -.01em;
      }

      .cls-61 {
        letter-spacing: 0em;
      }

      .cls-62 {
        letter-spacing: -.02em;
      }

      .cls-63 {
        letter-spacing: -.02em;
      }

      .cls-64, .cls-22 {
        letter-spacing: 0em;
      }

      .cls-65 {
        letter-spacing: -.02em;
      }

      .cls-20 {
        fill: #7f3f98;
      }

      .cls-66 {
        letter-spacing: .01em;
      }

      .cls-67 {
        letter-spacing: -.05em;
      }

      .cls-6 {
        stroke-width: .5px;
      }

      .cls-68 {
        letter-spacing: -.02em;
      }

      .cls-69 {
        letter-spacing: -.12em;
      }

      .cls-70 {
        letter-spacing: -.05em;
      }
    </style>
  </defs>
  <text class="cls-24" transform="translate(25.06 777.35)"><tspan x="0" y="0">When writing </tspan><tspan class="cls-64" x="89.08" y="0">c</tspan><tspan x="95.51" y="0">ode, put the dash af</tspan><tspan class="cls-27" x="216.83" y="0">t</tspan><tspan x="221.9" y="0">er the let</tspan><tspan class="cls-54" x="277.49" y="0">t</tspan><tspan x="282.57" y="0">er and befo</tspan><tspan class="cls-59" x="352.57" y="0">r</tspan><tspan x="358.54" y="0">e the pa</tspan><tspan class="cls-45" x="407.78" y="0">r</tspan><tspan x="413.74" y="0">enth</tspan><tspan class="cls-53" x="441.75" y="0">e</tspan><tspan class="cls-61" x="448.52" y="0">s</tspan><tspan class="cls-53" x="454.25" y="0">e</tspan><tspan class="cls-47" x="461.02" y="0">s. “E.g. Z-(s,0,1)”</tspan></text>
  <path class="cls-55" d="m384.81,535.64c0-.5.39-.92.87-.92h1.82v-22.28c0-.49.39-.89.85-.89h.42c.46,0,.85.4.85.89v22.28h1.82c.48,0,.87.42.87.92s-.39.91-.87.91h-5.76c-.48,0-.87-.41-.87-.91Z"/>
  <path class="cls-55" d="m302.66,534.61c-.5,0-.92.39-.92.87v1.82s-22.28,0-22.28,0c-.49,0-.89.39-.89.85v.42c0,.46.4.85.89.85h22.28s0,1.82,0,1.82c0,.48.42.87.92.87s.91-.39.91-.87v-5.76c0-.48-.41-.87-.91-.87Z"/>
  <text class="cls-33" transform="translate(156.12 70.51)"><tspan x="0" y="0" xml:space="preserve">  </tspan><tspan class="cls-63" x="7.05" y="0">T</tspan><tspan x="16.14" y="0">ype 3 </tspan><tspan class="cls-65" x="56.81" y="0">h</tspan><tspan class="cls-46" x="65.33" y="0">y</tspan><tspan x="73.27" y="0">brids combine a shift with a dash.</tspan><tspan x="-104.21" y="19.2">When </tspan><tspan class="cls-51" x="-60.38" y="19.2">w</tspan><tspan x="-48.2" y="19.2">e consult </tspan><tspan class="cls-1" x="16.6" y="19.2">P</tspan><tspan x="24.57" y="19.2">ADS, </tspan><tspan class="cls-51" x="59.87" y="19.2">w</tspan><tspan x="72.05" y="19.2">e find that a shift is hi</tspan><tspan class="cls-27" x="218.38" y="19.2">g</tspan><tspan x="226.17" y="19.2">her than a dash, the</tspan><tspan class="cls-43" x="360.03" y="19.2">r</tspan><tspan x="366.41" y="19.2">e</tspan><tspan class="cls-56" x="374.22" y="19.2">f</tspan><tspan x="378.87" y="19.2">o</tspan><tspan class="cls-43" x="387.36" y="19.2">r</tspan><tspan x="393.74" y="19.2">e:</tspan></text>
  <text class="cls-38" transform="translate(166.59 123.96)"><tspan class="cls-11"><tspan class="cls-67" x="0" y="0">F</tspan><tspan x="10.05" y="0">or </tspan><tspan class="cls-63" x="35.07" y="0">T</tspan><tspan x="47.36" y="0">ype 3, </tspan></tspan><tspan class="cls-11"><tspan x="-71.07" y="24">hi</tspan><tspan class="cls-27" x="-52.85" y="24">g</tspan><tspan x="-42.59" y="24">h = shift and l</tspan><tspan class="cls-62" x="80.92" y="24">o</tspan><tspan x="91.88" y="24">w = dash.</tspan></tspan><tspan class="cls-15"><tspan x="51.59" y="38.4"> </tspan></tspan><tspan class="cls-41"><tspan x="-94.85" y="57.6">This includes </tspan><tspan class="cls-70" x="-1.01" y="57.6">W</tspan><tspan x="12.88" y="57.6">-, </tspan><tspan class="cls-67" x="24.99" y="57.6">X</tspan><tspan x="33.35" y="57.6">-, </tspan><tspan class="cls-69" x="45.47" y="57.6">Y</tspan><tspan x="52.64" y="57.6">-, Z-, Σ-, </tspan><tspan class="cls-68" x="106.36" y="57.6">Δ</tspan><tspan x="115.57" y="57.6">-, θ-, and Ω-. </tspan></tspan></text>
  <text class="cls-35" transform="translate(119.25 214.73)"><tspan x="0" y="0">Firs</tspan><tspan class="cls-66" x="24.87" y="0">t</tspan><tspan x="30.16" y="0">, </tspan><tspan class="cls-51" x="36.54" y="0">w</tspan><tspan x="47.97" y="0">e’ll add 1 hi</tspan><tspan class="cls-27" x="121.37" y="0">g</tspan><tspan x="128.68" y="0">h turn </tspan><tspan class="cls-50" x="171.5" y="0">t</tspan><tspan x="176.44" y="0">o Z-, </tspan><tspan class="cls-45" x="207.13" y="0">w</tspan><tspan x="218.6" y="0">hich on</tspan><tspan class="cls-68" x="265.57" y="0">l</tspan><tspan x="269.34" y="0">y af</tspan><tspan class="cls-56" x="292.07" y="0">f</tspan><tspan x="296.43" y="0">ects the shif</tspan><tspan class="cls-66" x="372.58" y="0">t</tspan><tspan x="377.88" y="0">.</tspan></text>
  <text class="cls-57" transform="translate(124.19 367.17)"><tspan class="cls-38"><tspan class="cls-42" x="0" y="0"> </tspan><tspan class="cls-13" x="3.3" y="0">T</tspan><tspan class="cls-18" x="11.32" y="0">a</tspan><tspan class="cls-17" x="19.87" y="0">k</tspan><tspan class="cls-18" x="27.8" y="0">e no</tspan><tspan class="cls-7" x="55.46" y="0">t</tspan><tspan class="cls-18" x="60.81" y="0">e of this st</tspan><tspan class="cls-17" x="128.52" y="0">r</tspan><tspan class="cls-18" x="135.21" y="0">an</tspan><tspan class="cls-16" x="152.54" y="0">g</tspan><tspan class="cls-18" x="160.91" y="0">e position at the hal</tspan><tspan class="cls-3" x="293.64" y="0">f</tspan><tspan class="cls-22" x="298.73" y="0">wa</tspan><tspan class="cls-18" x="318.73" y="0">y poin</tspan><tspan class="cls-3" x="359.52" y="0">t</tspan><tspan class="cls-18" x="365.27" y="0">. </tspan></tspan><tspan class="cls-34" x="-100.86" y="18">The</tspan><tspan class="cls-29" x="-76.38" y="18">r</tspan><tspan class="cls-34" x="-70.39" y="18">e is a hand-</tspan><tspan class="cls-30" x="2.04" y="18">t</tspan><tspan class="cls-34" x="6.99" y="18">o-end </tspan><tspan class="cls-29" x="47.24" y="18">r</tspan><tspan class="cls-34" x="53.23" y="18">elationship bet</tspan><tspan class="cls-31" x="148.65" y="18">w</tspan><tspan class="cls-34" x="160.08" y="18">een the </tspan><tspan class="cls-12" x="210.36" y="18">left</tspan><tspan class="cls-40" x="233.31" y="18"> </tspan><tspan class="cls-34" x="236.62" y="18">hand and the </tspan><tspan class="cls-10" x="323.5" y="18">ri</tspan><tspan class="cls-21" x="335.14" y="18">g</tspan><tspan class="cls-10" x="342.84" y="18">ht</tspan><tspan class="cls-39" x="357.27" y="18"> </tspan><tspan class="cls-34" x="360.57" y="18">staf</tspan><tspan class="cls-28" x="383.96" y="18">f</tspan><tspan class="cls-34" x="389.74" y="18">’s </tspan><tspan class="cls-34" x="402.81" y="18">pinky end.</tspan><tspan class="cls-34"><tspan x="-47.84" y="36">It is important </tspan><tspan class="cls-50" x="47.62" y="36">t</tspan><tspan x="52.57" y="36">o pass th</tspan><tspan class="cls-43" x="109.04" y="36">r</tspan><tspan x="115.03" y="36">ou</tspan><tspan class="cls-27" x="131.27" y="36">g</tspan><tspan x="138.58" y="36">h this position </tspan><tspan class="cls-56" x="233.23" y="36">f</tspan><tspan x="237.58" y="36">or the timing </tspan><tspan class="cls-50" x="324" y="36">t</tspan><tspan x="328.95" y="36">o be accu</tspan><tspan class="cls-44" x="387.88" y="36">r</tspan><tspan x="393.82" y="36">a</tspan><tspan class="cls-50" x="401.15" y="36">t</tspan><tspan x="406.09" y="36">e.</tspan></tspan></text>
  <text class="cls-36" transform="translate(42.94 714.18)"><tspan class="cls-18"><tspan x="0" y="0">The hal</tspan><tspan class="cls-2" x="50.21" y="0">f</tspan><tspan class="cls-64" x="55.31" y="0">wa</tspan><tspan x="75.3" y="0">y position holds the </tspan><tspan class="cls-45" x="208.78" y="0">k</tspan><tspan x="216.71" y="0">ey for </tspan><tspan class="cls-58" x="258.04" y="0">e</tspan><tspan class="cls-45" x="265.41" y="0">x</tspan><tspan x="272.5" y="0">ecuting motions with a</tspan><tspan class="cls-64" x="426.12" y="0">c</tspan><tspan x="432.82" y="0">cu</tspan><tspan class="cls-45" x="448.37" y="0">r</tspan><tspan x="455.07" y="0">a</tspan><tspan class="cls-27" x="463.62" y="0">t</tspan><tspan x="468.97" y="0">e timing.</tspan></tspan><tspan class="cls-42"><tspan x="-19.29" y="18">Thou</tspan><tspan class="cls-27" x="14.12" y="18">g</tspan><tspan x="21.43" y="18">h un</tspan><tspan class="cls-48" x="49.67" y="18">f</tspan><tspan x="54.03" y="18">amilar n</tspan><tspan class="cls-64" x="107.28" y="18">o</tspan><tspan class="cls-52" x="115.17" y="18">w</tspan><tspan x="125.68" y="18">, these centric positions will be tho</tspan><tspan class="cls-43" x="347.08" y="18">r</tspan><tspan x="353.06" y="18">ou</tspan><tspan class="cls-27" x="369.31" y="18">g</tspan><tspan x="376.62" y="18">h</tspan><tspan class="cls-68" x="384.9" y="18">l</tspan><tspan x="388.67" y="18">y deconstruc</tspan><tspan class="cls-50" x="470.73" y="18">t</tspan><tspan x="475.68" y="18">ed la</tspan><tspan class="cls-50" x="506.02" y="18">t</tspan><tspan x="510.96" y="18">er on.</tspan></tspan></text>
  <path class="cls-55" d="m287.58,283.54c0,.5.39.92.87.92h1.82v22.28c0,.49.39.89.85.89h.42c.46,0,.85-.4.85-.89v-22.28h1.82c.48,0,.87-.42.87-.92s-.39-.91-.87-.91h-5.76c-.48,0-.87.41-.87.91Z"/>
  <g>
    <circle class="cls-38" cx="161.33" cy="295.13" r="2.5"/>
    <circle class="cls-38" cx="191.33" cy="265.13" r="2.5"/>
    <circle class="cls-38" cx="221.33" cy="295.13" r="2.5"/>
    <circle class="cls-38" cx="191.33" cy="325.13" r="2.5"/>
    <circle class="cls-38" cx="191.33" cy="295.13" r="1.12"/>
  </g>
  <g>
    <circle class="cls-38" cx="261.33" cy="295.13" r="2.5"/>
    <circle class="cls-38" cx="291.32" cy="265.13" r="2.5"/>
    <circle class="cls-38" cx="321.32" cy="295.13" r="2.5"/>
    <circle class="cls-38" cx="291.32" cy="325.13" r="2.5"/>
    <circle class="cls-38" cx="291.32" cy="295.13" r="1.12"/>
  </g>
  <g>
    <circle class="cls-38" cx="361.32" cy="295.13" r="2.5"/>
    <circle class="cls-38" cx="391.32" cy="265.13" r="2.5"/>
    <circle class="cls-38" cx="421.32" cy="295.13" r="2.5"/>
    <circle class="cls-38" cx="391.32" cy="325.13" r="2.5"/>
    <circle class="cls-38" cx="391.32" cy="295.13" r="1.12"/>
  </g>
  <g>
    <circle class="cls-38" cx="461.32" cy="295.13" r="2.5"/>
    <circle class="cls-38" cx="491.32" cy="265.13" r="2.5"/>
    <circle class="cls-38" cx="521.32" cy="295.13" r="2.5"/>
    <circle class="cls-38" cx="491.32" cy="325.13" r="2.5"/>
    <circle class="cls-38" cx="491.32" cy="295.13" r="1.12"/>
  </g>
  <polygon class="cls-38" points="230.81 294.23 245.76 294.23 245.76 291.06 250.97 295.13 245.76 299.21 245.76 296.04 230.81 296.04 230.81 294.23"/>
  <polygon class="cls-38" points="330.81 294.23 345.76 294.23 345.76 291.06 350.97 295.13 345.76 299.21 345.76 296.04 330.81 296.04 330.81 294.23"/>
  <path class="cls-38" d="m436.93,293.81v-2.34h10.54v2.34h-10.54Zm0,4.99v-2.34h10.54v2.34h-10.54Z"/>
  <path class="cls-49" d="m390.07,292.41c0-.5.39-.92.87-.92h1.82v-22.28c0-.49.39-.89.85-.89h.42c.46,0,.85.4.85.89v22.28h1.82c.48,0,.87.42.87.92s-.39.91-.87.91h-5.76c-.48,0-.87-.41-.87-.91Z"/>
  <path class="cls-55" d="m392.57,269.23c0,.5-.39.92-.87.92h-1.82v22.28c0,.49-.39.89-.85.89h-.42c-.46,0-.85-.4-.85-.89v-22.28h-1.82c-.48,0-.87-.42-.87-.92s.39-.91.87-.91h5.76c.48,0,.87.41.87.91Z"/>
  <path class="cls-49" d="m490.07,292.41c0-.5.39-.92.87-.92h1.82v-22.28c0-.49.39-.89.85-.89h.42c.46,0,.85.4.85.89v22.28h1.82c.48,0,.87.42.87.92s-.39.91-.87.91h-5.76c-.48,0-.87-.41-.87-.91Z"/>
  <path class="cls-55" d="m492.57,269.23c0,.5-.39.92-.87.92h-1.82v22.28c0,.49-.39.89-.85.89h-.42c-.46,0-.85-.4-.85-.89v-22.28h-1.82c-.48,0-.87-.42-.87-.92s.39-.91.87-.91h5.76c.48,0,.87.41.87.91Z"/>
  <path class="cls-55" d="m195.08,297.85c0,.5-.39.92-.87.92h-1.82v22.28c0,.49-.39.89-.85.89h-.42c-.46,0-.85-.4-.85-.89v-22.28h-1.82c-.48,0-.87-.42-.87-.92s.39-.91.87-.91h5.76c.48,0,.87.41.87.91Z"/>
  <path class="cls-49" d="m194.05,298.88c.5,0,.92-.39.92-.87v-1.82s22.28,0,22.28,0c.49,0,.89-.39.89-.85v-.42c0-.46-.4-.85-.89-.85h-22.28s0-1.82,0-1.82c0-.48-.42-.87-.92-.87-.5,0-.91.39-.91.87v5.76c0,.48.41.87.91.87Z"/>
  <path class="cls-49" d="m312.24,279.52c-.35.35-.93.37-1.26.03l-1.29-1.29-15.76,15.76c-.35.35-.9.35-1.23.03l-.3-.3c-.33-.33-.32-.88.03-1.23l15.76-15.76-1.29-1.29c-.34-.34-.32-.91.03-1.26s.92-.37,1.26-.03l4.07,4.07c.34.34.33.9-.03,1.26Z"/>
  <text class="cls-26" transform="translate(24.14 273.02)"><tspan x="0" y="0">“Z-Dash</tspan><tspan x="0" y="14.4">High-One”</tspan></text>
  <path d="m145.68,289.44v1.46h-5.18v-1.46h1.7v-4.15h-1.7v-1.52l.57-.06c.39-.04.64-.05,1.22-.2.59-.16,1.01-.38,1.01-.38h.69v6.31h1.7Z"/>
  <path d="m499.75,335.97v.85h-3v-.85h.98v-2.4h-.98v-.88l.33-.03c.23-.02.37-.03.71-.12s.58-.22.58-.22h.4v3.65h.98Z"/>
  <text class="cls-26" transform="translate(179.58 246.83)"><tspan x="0" y="0">s</tspan><tspan class="cls-27" x="4.58" y="0">t</tspan><tspan x="8.64" y="0">art</tspan></text>
  <text class="cls-26" transform="translate(271.41 246.83)"><tspan x="0" y="0">hal</tspan><tspan class="cls-2" x="15.87" y="0">f</tspan><tspan class="cls-64" x="19.62" y="0">wa</tspan><tspan x="34.54" y="0">y</tspan></text>
  <text class="cls-26" transform="translate(381.89 246.83)"><tspan x="0" y="0">end</tspan></text>
  <text class="cls-26" transform="translate(186.78 258.85)"><tspan x="0" y="0">in</tspan></text>
  <text class="cls-26" transform="translate(122.82 260.85)"><tspan x="0" y="0">thumbs:</tspan></text>
  <text class="cls-26" transform="translate(376.67 258.85)"><tspan x="0" y="0">mi</tspan><tspan class="cls-45" x="12.84" y="0">x</tspan><tspan x="18.11" y="0">ed</tspan></text>
  <g>
    <circle class="cls-38" cx="161.07" cy="538.36" r="2.5"/>
    <circle class="cls-38" cx="191.07" cy="508.36" r="2.5"/>
    <circle class="cls-38" cx="221.07" cy="538.36" r="2.5"/>
    <circle class="cls-38" cx="191.07" cy="568.36" r="2.5"/>
    <circle class="cls-38" cx="191.07" cy="538.36" r="1.12"/>
  </g>
  <g>
    <circle class="cls-38" cx="261.07" cy="538.36" r="2.5"/>
    <circle class="cls-38" cx="291.07" cy="508.36" r="2.5"/>
    <circle class="cls-38" cx="321.07" cy="538.36" r="2.5"/>
    <circle class="cls-38" cx="291.07" cy="568.36" r="2.5"/>
    <circle class="cls-38" cx="291.07" cy="538.36" r="1.12"/>
  </g>
  <g>
    <circle class="cls-38" cx="361.06" cy="538.36" r="2.5"/>
    <circle class="cls-38" cx="391.06" cy="508.36" r="2.5"/>
    <circle class="cls-38" cx="421.06" cy="538.36" r="2.5"/>
    <circle class="cls-38" cx="391.06" cy="568.36" r="2.5"/>
    <circle class="cls-38" cx="391.06" cy="538.36" r="1.12"/>
  </g>
  <g>
    <circle class="cls-38" cx="461.06" cy="538.36" r="2.5"/>
    <circle class="cls-38" cx="491.06" cy="508.36" r="2.5"/>
    <circle class="cls-38" cx="521.06" cy="538.36" r="2.5"/>
    <circle class="cls-38" cx="491.06" cy="568.36" r="2.5"/>
    <circle class="cls-38" cx="491.06" cy="538.36" r="1.12"/>
  </g>
  <polygon class="cls-38" points="230.56 537.45 245.5 537.45 245.5 534.29 250.71 538.36 245.5 542.43 245.5 539.27 230.56 539.27 230.56 537.45"/>
  <polygon class="cls-38" points="330.55 537.45 345.5 537.45 345.5 534.29 350.71 538.36 345.5 542.43 345.5 539.27 330.55 539.27 330.55 537.45"/>
  <path class="cls-38" d="m436.67,537.03v-2.34h10.54v2.34h-10.54Zm0,4.99v-2.34h10.54v2.34h-10.54Z"/>
  <path class="cls-49" d="m397.31,512.46c0,.5-.39.92-.87.92h-1.82s0,22.28,0,22.28c0,.49-.39.89-.85.89h-.42c-.46,0-.85-.4-.85-.89v-22.28s-1.82,0-1.82,0c-.48,0-.87-.42-.87-.92,0-.5.39-.91.87-.91h5.76c.48,0,.87.41.87.91Z"/>
  <path class="cls-55" d="m492.31,512.45c0,.5-.39.92-.87.92h-1.82s0,22.28,0,22.28c0,.49-.39.89-.85.89h-.42c-.46,0-.85-.4-.85-.89v-22.28s-1.82,0-1.82,0c-.48,0-.87-.42-.87-.92s.39-.91.87-.91h5.76c.48,0,.87.41.87.91Z"/>
  <path class="cls-49" d="m497.31,512.45c0,.5-.39.92-.87.92h-1.82s0,22.28,0,22.28c0,.49-.39.89-.85.89h-.42c-.46,0-.85-.4-.85-.89v-22.28s-1.82,0-1.82,0c-.48,0-.87-.42-.87-.92s.39-.91.87-.91h5.76c.48,0,.87.41.87.91Z"/>
  <path class="cls-55" d="m187.32,541.08c0,.5.39.92.87.92h1.82s0,22.28,0,22.28c0,.49.39.89.85.89h.42c.46,0,.85-.4.85-.89v-22.28s1.82,0,1.82,0c.48,0,.87-.42.87-.92,0-.5-.39-.91-.87-.91h-5.76c-.48,0-.87.41-.87.91Z"/>
  <path class="cls-55" d="m187.32,648.15c0,.5.39.92.87.92h1.82s0,22.28,0,22.28c0,.49.39.89.85.89h.42c.46,0,.85-.4.85-.89v-22.28s1.82,0,1.82,0c.48,0,.87-.42.87-.92,0-.5-.39-.91-.87-.91h-5.76c-.48,0-.87.41-.87.91Z"/>
  <path class="cls-49" d="m193.79,542.11c.5,0,.92-.39.92-.87v-1.82h22.28c.49,0,.89-.39.89-.85v-.42c0-.46-.4-.85-.89-.85h-22.28v-1.82c0-.48-.42-.87-.92-.87-.5,0-.91.39-.91.87v5.76c0,.48.41.87.91.87Z"/>
  <path class="cls-49" d="m193.79,649.18c.5,0,.92-.39.92-.87v-1.82h22.28c.49,0,.89-.39.89-.85v-.42c0-.46-.4-.85-.89-.85h-22.28v-1.82c0-.48-.42-.87-.92-.87s-.91.39-.91.87v5.76c0,.48.41.87.91.87Z"/>
  <path class="cls-49" d="m289.63,524.71c.35.35.93.37,1.26.03l1.29-1.29,15.76,15.76c.35.35.9.35,1.23.03l.3-.3c.33-.33.32-.88-.03-1.23l-15.76-15.76,1.29-1.29c.34-.34.32-.91-.03-1.26-.35-.35-.92-.37-1.26-.03l-4.07,4.07c-.34.34-.33.9.03,1.26Z"/>
  <text class="cls-25" transform="translate(22.82 517.88)"><tspan x="0" y="0">“Z-Dash</tspan><tspan x="0" y="13.2">Same</tspan><tspan x="0" y="26.4">L</tspan><tspan class="cls-60" x="5.75" y="26.4">o</tspan><tspan x="11.19" y="26.4">w-One”</tspan></text>
  <text class="cls-26" transform="translate(179.32 490.06)"><tspan x="0" y="0">s</tspan><tspan class="cls-27" x="4.58" y="0">t</tspan><tspan x="8.64" y="0">art</tspan></text>
  <text class="cls-26" transform="translate(271.16 490.06)"><tspan x="0" y="0">hal</tspan><tspan class="cls-2" x="15.87" y="0">f</tspan><tspan class="cls-64" x="19.62" y="0">wa</tspan><tspan x="34.54" y="0">y</tspan></text>
  <text class="cls-26" transform="translate(381.63 490.06)"><tspan x="0" y="0">end</tspan></text>
  <text class="cls-26" transform="translate(186.52 502.08)"><tspan x="0" y="0">in</tspan></text>
  <text class="cls-26" transform="translate(122.56 504.08)"><tspan x="0" y="0">thumbs:</tspan></text>
  <text class="cls-26" transform="translate(376.41 502.08)"><tspan x="0" y="0">mi</tspan><tspan class="cls-45" x="12.84" y="0">x</tspan><tspan x="18.11" y="0">ed</tspan></text>
  <g>
    <g>
      <path class="cls-55" d="m279.48,649.18c.5,0,.92-.39.92-.87v-1.82h22.28c.49,0,.89-.39.89-.85v-.42c0-.46-.4-.85-.89-.85h-22.28v-1.82c0-.48-.42-.87-.92-.87-.5,0-.91.39-.91.87v5.76c0,.48.41.87.91.87Z"/>
      <g>
        <circle class="cls-38" cx="161.07" cy="645.43" r="2.5"/>
        <circle class="cls-38" cx="191.07" cy="615.43" r="2.5"/>
        <circle class="cls-38" cx="221.07" cy="645.43" r="2.5"/>
        <circle class="cls-38" cx="191.07" cy="675.43" r="2.5"/>
        <circle class="cls-38" cx="191.07" cy="645.43" r="1.12"/>
      </g>
      <g>
        <circle class="cls-38" cx="261.07" cy="645.43" r="2.5"/>
        <circle class="cls-38" cx="291.07" cy="615.43" r="2.5"/>
        <circle class="cls-38" cx="321.07" cy="645.43" r="2.5"/>
        <circle class="cls-38" cx="291.07" cy="675.43" r="2.5"/>
        <circle class="cls-38" cx="291.07" cy="645.43" r="1.12"/>
      </g>
      <g>
        <circle class="cls-38" cx="361.06" cy="645.43" r="2.5"/>
        <circle class="cls-38" cx="391.06" cy="615.43" r="2.5"/>
        <circle class="cls-38" cx="421.06" cy="645.43" r="2.5"/>
        <circle class="cls-38" cx="391.06" cy="675.43" r="2.5"/>
        <circle class="cls-38" cx="391.06" cy="645.43" r="1.12"/>
      </g>
      <g>
        <circle class="cls-38" cx="461.06" cy="645.43" r="2.5"/>
        <circle class="cls-38" cx="491.06" cy="615.43" r="2.5"/>
        <circle class="cls-38" cx="521.06" cy="645.43" r="2.5"/>
        <circle class="cls-38" cx="491.06" cy="675.43" r="2.5"/>
        <circle class="cls-38" cx="491.06" cy="645.43" r="1.12"/>
      </g>
      <polygon class="cls-38" points="230.56 644.52 245.5 644.52 245.5 641.36 250.71 645.43 245.5 649.5 245.5 646.34 230.56 646.34 230.56 644.52"/>
      <polygon class="cls-38" points="330.55 644.52 345.5 644.52 345.5 641.36 350.71 645.43 345.5 649.5 345.5 646.34 330.55 646.34 330.55 644.52"/>
      <path class="cls-38" d="m436.67,644.11v-2.34h10.54v2.34h-10.54Zm0,4.99v-2.34h10.54v2.34h-10.54Z"/>
      <path class="cls-49" d="m389.62,620.45h1.82c.48,0,.87-.42.87-.92s-.39-.91-.87-.91h-5.76c-.48,0-.87.41-.87.91s.39.92.87.92h1.82s0,22.28,0,22.28c0,.49.39.89.85.89h.42c.46,0,.85-.4.85-.89"/>
      <path class="cls-55" d="m392.5,641.79h-1.82c-.48,0-.87.42-.87.92,0,.5.39.91.87.91h5.76c.48,0,.87-.41.87-.91,0-.5-.39-.92-.87-.92h-1.82v-22.28c0-.49-.39-.89-.85-.89h-.42c-.46,0-.85.4-.85.89"/>
      <path class="cls-49" d="m489.62,620.45h1.82c.48,0,.87-.42.87-.92,0-.5-.39-.91-.87-.91h-5.76c-.48,0-.87.41-.87.91,0,.5.39.92.87.92h1.82s0,22.28,0,22.28c0,.49.39.89.85.89h.42c.46,0,.85-.4.85-.89"/>
      <path class="cls-55" d="m492.5,641.79h-1.82c-.48,0-.87.42-.87.92s.39.91.87.91h5.76c.48,0,.87-.41.87-.91s-.39-.92-.87-.92h-1.82v-22.28c0-.49-.39-.89-.85-.89h-.42c-.46,0-.85.4-.85.89"/>
      <text class="cls-26" transform="translate(22.58 627.18)"><tspan x="0" y="0">“Z-Dash</tspan><tspan x="0" y="14.4">Opp</tspan><tspan x="0" y="28.8">L</tspan><tspan class="cls-56" x="6.28" y="28.8">o</tspan><tspan x="12.21" y="28.8">w-One”</tspan></text>
    </g>
    <text class="cls-26" transform="translate(157.1 609.15)"><tspan x="0" y="0">in</tspan></text>
    <text class="cls-26" transform="translate(353.6 609.15)"><tspan x="0" y="0">out</tspan></text>
  </g>
  <line class="cls-5" x1="87.4" y1="595.99" x2="523.56" y2="595.99"/>
  <path class="cls-49" d="m311.65,283.4s-4.31-.3-5.63-.1c-1,.16-.97,1.68-.97,1.68l3.65.03c-11.64,11.64-10.29,11.25,8.61,11.25,1.16,0,1.22-2.22-.21-2.21-16.33,0-15.57,1.68-7.06-7.54l.03,3.49s1.51.03,1.68-.97c.21-1.32-.1-5.63-.1-5.63Z"/>
  <path class="cls-49" d="m400.05,274.83s-3.26,2.83-4.05,3.91c-.59.82.5,1.87.5,1.87l2.6-2.56c0,16.46.68,15.23,14.04,1.87.82-.82-.71-2.43-1.71-1.42-11.55,11.55-9.83,12.2-10.32-.34l2.49,2.45s1.09-1.05.5-1.87c-.79-1.08-4.05-3.91-4.05-3.91Z"/>
  <path class="cls-49" d="m500.41,267.02s3.38,3.01,4.07,3.95c.61.82-.47,1.87-.47,1.87l-2.65-2.7c-.33,7.31,4.12,7.91,10.29,6.28-1.43,6.34-2.9,11.8,9.19,11.8,1.35,0,1.36,2.05.01,2.05-8.38,0-13.94-3.19-11.98-11.26-6.54.88-9.05-1.72-9.31-8.86l-2.73,2.69s-1.1-1.05-.5-1.87c.85-1.18,4.08-3.95,4.08-3.95Z"/>
  <path class="cls-55" d="m287.4,295.63c-.79-1.08-4.05-3.91-4.05-3.91,0,0-3.26,2.83-4.05,3.91-.59.82.5,1.87.5,1.87l2.62-2.58v11.72c0,1.32,1.86,1.32,1.86,0v-11.72s2.62,2.58,2.62,2.58c0,0,1.09-1.05.5-1.87Z"/>
  <path class="cls-55" d="m386.47,283.13c-.79-1.08-4.05-3.91-4.05-3.91,0,0-3.26,2.83-4.05,3.91-.59.82.5,1.87.5,1.87l2.62-2.58v11.72c0,1.32,1.86,1.32,1.86,0v-11.72s2.62,2.58,2.62,2.58c0,0,1.09-1.05.5-1.87Z"/>
  <path class="cls-55" d="m486.46,281.63c-.79-1.08-4.05-3.91-4.05-3.91,0,0-3.26,2.83-4.05,3.91-.59.82.5,1.87.5,1.87l2.62-2.58v30.74c0,1.32,1.86,1.32,1.86,0v-30.74s2.62,2.58,2.62,2.58c0,0,1.09-1.05.5-1.87Z"/>
  <text/>
  <path class="cls-38" d="m492.28,335.04h-3.64c-1.34,0-1.31-1.73,0-1.73,5.4,0,5.35.02,5.67.38.23.27.43.73.15,1.14-1.71,2.48-4.54,6.52-4.54,6.52,0,0,3.43,0,4.33,0,1.35,0,1.4,1.91.13,1.91-8.37,0-9.53,1.13-2.09-8.23Z"/>
  <g>
    <path class="cls-38" d="m109.82,279.47h-10.2c-1.05,0-1.9-.86-1.9-1.9v-.2c0-1.05.86-1.9,1.9-1.9h10.2c1.05,0,1.9.86,1.9,1.9v.2c0,1.05-.86,1.9-1.9,1.9Z"/>
    <path d="m120.46,273.05v1.75h-6.22v-1.75h2.03v-4.98h-2.03v-1.82l.69-.07c.47-.05.77-.06,1.46-.24.71-.19,1.21-.46,1.21-.46h.83v7.58h2.03Z"/>
  </g>
  <g>
    <path class="cls-38" d="m110.11,527.79h-10.2c-1.05,0-1.9-.86-1.9-1.9v-.2c0-1.05.86-1.9,1.9-1.9h10.2c1.05,0,1.9.86,1.9,1.9v.2c0,1.05-.86,1.9-1.9,1.9Z"/>
    <path d="m120.75,536.03v1.75h-6.22v-1.75h2.03v-4.98h-2.03v-1.82l.69-.07c.47-.05.77-.06,1.46-.24.71-.19,1.21-.46,1.21-.46h.83v7.58h2.03Z"/>
  </g>
  <g>
    <path class="cls-38" d="m110.11,635.8h-10.2c-1.05,0-1.9-.86-1.9-1.9v-.2c0-1.05.86-1.9,1.9-1.9h10.2c1.05,0,1.9.86,1.9,1.9v.2c0,1.05-.86,1.9-1.9,1.9Z"/>
    <path d="m120.75,644.04v1.75h-6.22v-1.75h2.03v-4.98h-2.03v-1.82l.69-.07c.47-.05.77-.06,1.46-.24.71-.19,1.21-.46,1.21-.46h.83v7.58h2.03Z"/>
  </g>
  <g>
    <g>
      <text class="cls-32" transform="translate(489.57 129.68)"><tspan x="0" y="0">Shift</tspan></text>
      <text class="cls-32" transform="translate(489.57 178.36)"><tspan x="0" y="0">Dash</tspan></text>
    </g>
    <rect class="cls-38" x="455.7" y="141.99" width="35" height="10" rx="4.75" ry="4.75"/>
  </g>
  <text class="cls-23" transform="translate(146.1 36.99)"><tspan class="cls-37" x="0" y="0">Type 3</tspan><tspan class="cls-19" x="96.81" y="0" xml:space="preserve"> - </tspan><tspan class="cls-8" x="123.61" y="0">Cr</tspan><tspan class="cls-14" x="158.2" y="0">oss</tspan><tspan class="cls-9" x="208.07" y="0">-</tspan><tspan class="cls-20" x="218.43" y="0">Shift</tspan><tspan class="cls-19" x="290.77" y="0" xml:space="preserve">    </tspan></text>
  <line class="cls-6" x1="15.76" y1="414.58" x2="598.02" y2="414.58"/>
  <text class="cls-35" transform="translate(79.62 443.66)"><tspan x="0" y="0">N</tspan><tspan class="cls-64" x="10.21" y="0">o</tspan><tspan x="18.1" y="0">w let’s add 1 turn </tspan><tspan class="cls-50" x="132.66" y="0">t</tspan><tspan x="137.61" y="0">o the dash, le</tspan><tspan class="cls-65" x="220.98" y="0">a</tspan><tspan x="228.01" y="0">ving the shifting hand unmodified. </tspan><tspan x="-43.16" y="18">This c</tspan><tspan class="cls-43" x="-5.46" y="18">r</tspan><tspan x=".52" y="18">eaties a </tspan><tspan class="cls-43" x="52.09" y="18">r</tspan><tspan x="58.08" y="18">otational </tspan><tspan class="cls-43" x="118.71" y="18">r</tspan><tspan x="124.7" y="18">elationship, so </tspan><tspan class="cls-51" x="220.31" y="18">w</tspan><tspan x="231.73" y="18">e’ll need </tspan><tspan class="cls-50" x="288.44" y="18">t</tspan><tspan x="293.39" y="18">o use Same-dots and Opp-dots.</tspan></text>
  <path class="cls-49" d="m395.99,542.39c-.78-.57-2.83-2.93-2.83-2.93,0,0,2.02-2.33,2.79-2.89.59-.42,1.35.37,1.35.37l-1.84,1.87,11.19.12c.95,0,.96,1.34,0,1.34l-11.19-.12,1.87,1.9s-.75.78-1.34.35Z"/>
  <path class="cls-49" d="m311.45,544.91c-.78-.57-2.83-2.93-2.83-2.93,0,0,2.02-2.33,2.79-2.89.59-.42,1.35.37,1.35.37l-1.84,1.87,11.19.12c.95,0,.96,1.34,0,1.34l-11.19-.12,1.87,1.9s-.75.78-1.34.35Z"/>
  <path class="cls-49" d="m395.8,515.46c.57-.78,2.93-2.83,2.93-2.83,0,0,2.33,2.02,2.89,2.79.42.59-.37,1.35-.37,1.35l-1.87-1.84-.12,11.19c0,.95-1.34.96-1.34,0l.12-11.19-1.9,1.87s-.78-.75-.35-1.34Z"/>
  <path class="cls-49" d="m388.27,650.42c-.78-.57-2.83-2.93-2.83-2.93,0,0,2.02-2.33,2.79-2.89.59-.42,1.35.37,1.35.37l-1.84,1.87,11.19.12c.95,0,.96,1.34,0,1.34l-11.19-.12,1.87,1.9s-.75.78-1.34.35Z"/>
  <path class="cls-49" d="m378.86,620.47c.57-.78,2.93-2.83,2.93-2.83,0,0,2.33,2.02,2.89,2.79.42.59-.37,1.35-.37,1.35l-1.87-1.84-.12,11.19c0,.95-1.34.96-1.34,0l.12-11.19-1.9,1.87s-.78-.75-.35-1.34Z"/>
  <path class="cls-49" d="m283.6,525.36c.57-.78,2.93-2.83,2.93-2.83,0,0,2.33,2.02,2.89,2.79.42.59-.37,1.35-.37,1.35l-1.87-1.84-.12,11.19c0,.95-1.34.96-1.34,0l.12-11.19-1.9,1.87s-.78-.75-.35-1.34Z"/>
  <path class="cls-49" d="m289.63,631.79c.35.35.93.37,1.26.03l1.29-1.29,15.76,15.76c.35.35.9.35,1.23.03l.3-.3c.33-.33.32-.88-.03-1.23l-15.76-15.76,1.29-1.29c.34-.34.32-.91-.03-1.26s-.92-.37-1.26-.03l-4.07,4.07c-.34.34-.33.9.03,1.26Z"/>
  <path class="cls-49" d="m311.45,651.98c-.78-.57-2.83-2.93-2.83-2.93,0,0,2.02-2.33,2.79-2.89.59-.42,1.35.37,1.35.37l-1.84,1.87,11.19.12c.95,0,.96,1.34,0,1.34l-11.19-.12,1.87,1.9s-.75.78-1.34.35Z"/>
  <path class="cls-49" d="m283.6,632.43c.57-.78,2.93-2.83,2.93-2.83,0,0,2.33,2.02,2.89,2.79.42.59-.37,1.35-.37,1.35l-1.87-1.84-.12,11.19c0,.95-1.34.96-1.34,0l.12-11.19-1.9,1.87s-.78-.75-.35-1.34Z"/>
  <circle class="cls-38" cx="89.76" cy="509.79" r="2.59"/>
  <circle class="cls-38" cx="89.76" cy="649.8" r="2.59"/>
  <path class="cls-38" d="m442.56,130.65h-18.19c-6.72,0-6.55-8.66,0-8.66,27.01,0,26.76.1,28.34,1.92,1.17,1.34,2.17,3.64.73,5.72-8.56,12.4-22.72,32.62-22.72,32.62,0,0,17.14,0,21.66,0,6.75,0,7.01,9.53.64,9.53-41.86,0-47.66,5.66-10.46-41.13Z"/>
  <path class="cls-38" d="m91.69,270.94h-7.28c-2.69,0-2.62-3.46,0-3.46,10.8,0,10.7.04,11.33.77.47.54.87,1.46.29,2.29-3.42,4.96-9.09,13.05-9.09,13.05,0,0,6.86,0,8.66,0,2.7,0,2.8,3.81.26,3.81-16.75,0-19.06,2.27-4.18-16.45Z"/>
  <path class="cls-38" d="m91.69,519.25h-7.28c-2.69,0-2.62-3.46,0-3.46,10.8,0,10.7.04,11.33.77.47.54.87,1.46.29,2.29-3.42,4.96-9.09,13.05-9.09,13.05,0,0,6.86,0,8.66,0,2.7,0,2.8,3.81.26,3.81-16.75,0-19.06,2.27-4.18-16.45Z"/>
  <path class="cls-38" d="m91.69,627.26h-7.28c-2.69,0-2.62-3.46,0-3.46,10.8,0,10.7.04,11.33.77.47.54.87,1.46.29,2.29-3.42,4.96-9.09,13.05-9.09,13.05,0,0,6.86,0,8.66,0,2.7,0,2.8,3.81.26,3.81-16.75,0-19.06,2.27-4.18-16.45Z"/>
  <path class="cls-49" d="m521.03,534.79c-21.23,0-21.27.54-21.27-20.15l-2.66,2.72s-1.1-1.04-.5-1.87c.85-1.18,4.08-3.95,4.08-3.95,0,0,3.38,3.01,4.07,3.95.6.82-.48,1.87-.48,1.87l-2.56-2.72c0,19.11-.84,18.08,19.29,18.08,1.51,0,1.51,2.07.03,2.07Z"/>
  <path class="cls-49" d="m525.26,640.13c-21.23,0-21.27.54-21.27-20.15l-2.66,2.72s-1.1-1.04-.5-1.87c.85-1.18,4.08-3.95,4.08-3.95,0,0,3.38,3.01,4.07,3.95.6.82-.48,1.87-.48,1.87l-2.56-2.72c0,19.11-.84,18.08,19.29,18.08,1.51,0,1.51,2.07.03,2.07Z"/>
  <path class="cls-55" d="m274.48,545.74l2.46-2.42c.04,11.61,4.79,18.64,8.98,23.06,1.25,1.32,2.87-.29,1.66-1.57-4.3-4.58-8.38-9.89-8.53-21.56l2.53,2.49s1.09-1.05.5-1.87c-.79-1.08-4.05-3.91-4.05-3.91,0,0-3.26,2.83-4.05,3.91-.59.82.5,1.87.5,1.87Z"/>
  <path class="cls-55" d="m379.69,514.12l3.45.03c-8.18,8.24-9.79,16.57-9.96,22.66-.05,1.82,2.23,1.82,2.28.06.2-6.28,1.07-12.92,9.21-21.28l.03,3.55s1.51.03,1.68-.97c.21-1.32-.1-5.63-.1-5.63,0,0-4.31-.3-5.63-.1-1,.16-.97,1.68-.97,1.68Z"/>
  <path class="cls-55" d="m307.33,652.81l-2.46-2.42c-.04,11.61-4.79,18.64-8.98,23.06-1.25,1.32-2.87-.29-1.66-1.57,4.3-4.58,8.38-9.89,8.53-21.56l-2.53,2.49s-1.09-1.05-.5-1.87c.79-1.08,4.05-3.91,4.05-3.91,0,0,3.26,2.83,4.05,3.91.59.82-.5,1.87-.5,1.87Z"/>
  <path class="cls-55" d="m402.66,619.96l-3.45.03c8.18,8.24,9.79,16.57,9.96,22.66.05,1.82-2.23,1.82-2.28.06-.2-6.28-1.07-12.92-9.21-21.28l-.03,3.55s-1.51.03-1.68-.97c-.21-1.32.1-5.63.1-5.63,0,0,4.31-.3,5.63-.1,1,.16.97,1.68.97,1.68Z"/>
  <path class="cls-55" d="m483.55,511.83s.85,4.45.82,5.61c-.02,1.02-1.52,1.19-1.52,1.19l-.38-3.28c-9.22,13.13-9.78,34.35,1.61,47.44.48.55.31,1.53-.13,1.85-.25.21-1.07.53-1.68-.25-6.07-7.77-9.1-16.49-9.1-26.03,0-8.38,2.76-17.6,7.41-24.52l-3.43.42s-.23-1.5.74-1.79c1.4-.41,5.65-.64,5.65-.64Z"/>
  <path class="cls-55" d="m496.3,622.37s-.85,4.45-.82,5.61c.02,1.02,1.52,1.19,1.52,1.19l.38-3.28c9.22,13.13,9.78,34.35-1.61,47.44-.48.55-.31,1.53.13,1.85.25.21,1.07.53,1.68-.25,6.07-7.77,9.1-16.49,9.1-26.03,0-8.38-2.76-17.6-7.41-24.52l3.43.42s.23-1.5-.74-1.79c-1.4-.41-5.65-.64-5.65-.64Z"/>
  <circle class="cls-38" cx="491.09" cy="575.22" r="1.25"/>
  <g>
    <rect class="cls-38" x="495.07" y="582.22" width="7" height="2" rx=".95" ry=".95"/>
    <path class="cls-38" d="m492.06,579.95h-3.64c-1.34,0-1.31-1.73,0-1.73,5.4,0,5.35.02,5.67.38.23.27.43.73.15,1.14-1.71,2.48-4.54,6.52-4.54,6.52,0,0,3.43,0,4.33,0,1.35,0,1.4,1.91.13,1.91-8.37,0-9.53,1.13-2.09-8.23Z"/>
    <path d="m505.57,588.37v.85h-3v-.85h.98v-2.4h-.98v-.88l.33-.03c.23-.02.37-.03.71-.12s.58-.22.58-.22h.4v3.65h.98Z"/>
  </g>
  <circle class="cls-38" cx="491.09" cy="695.19" r="1.25"/>
  <g>
    <rect class="cls-38" x="495.07" y="686.19" width="7" height="2" rx=".95" ry=".95"/>
    <path class="cls-38" d="m492.06,683.92h-3.64c-1.34,0-1.31-1.73,0-1.73,5.4,0,5.35.02,5.67.38.23.27.43.73.15,1.14-1.71,2.48-4.54,6.52-4.54,6.52,0,0,3.43,0,4.33,0,1.35,0,1.4,1.91.13,1.91-8.37,0-9.53,1.13-2.09-8.23Z"/>
    <path d="m505.57,692.34v.85h-3v-.85h.98v-2.4h-.98v-.88l.33-.03c.23-.02.37-.03.71-.12s.58-.22.58-.22h.4v3.65h.98Z"/>
  </g>
  <line class="cls-4" x1="-1.32" y1="752.1" x2="610.68" y2="752.1"/>
</svg>