<?xml version="1.0" encoding="UTF-8"?>
<svg id="Layer_1" data-name="Layer 1" xmlns="http://www.w3.org/2000/svg" viewBox="0 0 612 792">
  <defs>
    <style>
      .cls-1 {
        letter-spacing: -.07em;
      }

      .cls-2 {
        letter-spacing: .02em;
      }

      .cls-3, .cls-4 {
        fill: none;
        stroke: #231f20;
        stroke-miterlimit: 10;
      }

      .cls-5, .cls-6, .cls-7, .cls-8, .cls-9, .cls-10, .cls-11, .cls-12, .cls-13, .cls-14, .cls-15, .cls-16, .cls-17 {
        fill: #231f20;
      }

      .cls-5, .cls-6, .cls-7, .cls-8, .cls-9, .cls-18, .cls-19 {
        font-family: Cambria, Cambria;
      }

      .cls-5, .cls-20 {
        letter-spacing: -.01em;
      }

      .cls-21 {
        letter-spacing: -.02em;
      }

      .cls-22, .cls-8, .cls-12, .cls-19 {
        font-size: 16px;
      }

      .cls-23 {
        letter-spacing: 0em;
      }

      .cls-24 {
        letter-spacing: 0em;
      }

      .cls-25 {
        letter-spacing: 0em;
      }

      .cls-26 {
        letter-spacing: 0em;
      }

      .cls-27, .cls-28, .cls-29, .cls-30, .cls-31, .cls-14, .cls-32, .cls-16 {
        font-weight: 700;
      }

      .cls-27, .cls-28, .cls-29, .cls-31, .cls-32 {
        font-family: Cambria-Bold, Cambria;
      }

      .cls-27, .cls-33, .cls-32 {
        fill: #ed1c24;
      }

      .cls-6, .cls-34 {
        letter-spacing: 0em;
      }

      .cls-35 {
        letter-spacing: 0em;
      }

      .cls-28 {
        font-size: 20px;
      }

      .cls-36 {
        letter-spacing: 0em;
      }

      .cls-7 {
        font-size: 18px;
      }

      .cls-37 {
        letter-spacing: 0em;
      }

      .cls-29, .cls-18 {
        fill: #21409a;
      }

      .cls-30 {
        fill: #00a14b;
      }

      .cls-30, .cls-14, .cls-16 {
        font-family: Cambria-BoldItalic, Cambria;
      }

      .cls-38 {
        fill: #2e3192;
      }

      .cls-39 {
        letter-spacing: -.01em;
      }

      .cls-40 {
        font-size: 35px;
      }

      .cls-40, .cls-10, .cls-11, .cls-12, .cls-15, .cls-16 {
        font-style: italic;
      }

      .cls-31, .cls-15 {
        font-size: 12px;
      }

      .cls-10 {
        font-size: 15px;
      }

      .cls-10, .cls-11, .cls-12, .cls-13, .cls-15 {
        font-family: Cambria-Italic, Cambria;
      }

      .cls-41 {
        letter-spacing: 0em;
      }

      .cls-11 {
        font-size: 30px;
      }

      .cls-42 {
        letter-spacing: 0em;
      }

      .cls-43 {
        letter-spacing: 0em;
      }

      .cls-44 {
        letter-spacing: 0em;
      }

      .cls-45 {
        letter-spacing: -.02em;
      }

      .cls-46 {
        letter-spacing: -.02em;
      }

      .cls-47, .cls-32 {
        letter-spacing: 0em;
      }

      .cls-48 {
        letter-spacing: 0em;
      }

      .cls-49 {
        letter-spacing: 0em;
      }

      .cls-50 {
        letter-spacing: -.06em;
      }

      .cls-51 {
        letter-spacing: -.02em;
      }

      .cls-52 {
        letter-spacing: 0em;
      }

      .cls-53 {
        letter-spacing: .01em;
      }

      .cls-54 {
        letter-spacing: -.05em;
      }

      .cls-55 {
        letter-spacing: -.03em;
      }

      .cls-4 {
        stroke-width: .5px;
      }

      .cls-56 {
        letter-spacing: -.01em;
      }

      .cls-57 {
        letter-spacing: -.02em;
      }

      .cls-58 {
        letter-spacing: -.12em;
      }

      .cls-59 {
        letter-spacing: .04em;
      }
    </style>
  </defs>
  <text class="cls-10" transform="translate(104.94 727.01)"><tspan x="0" y="0">When </tspan><tspan class="cls-53" x="39.59" y="0">t</tspan><tspan x="44.99" y="0">yping the </tspan><tspan class="cls-48" x="106.31" y="0">w</tspan><tspan x="117.15" y="0">o</tspan><tspan class="cls-52" x="124.75" y="0">r</tspan><tspan x="130.71" y="0">ds for sequen</tspan><tspan class="cls-24" x="212.32" y="0">c</tspan><tspan class="cls-37" x="218.75" y="0">e</tspan><tspan x="225.51" y="0">s </tspan><tspan class="cls-35" x="234.54" y="0">c</tspan><tspan x="240.97" y="0">on</tspan><tspan class="cls-26" x="256.6" y="0">t</tspan><tspan x="261.67" y="0">aining g</tspan><tspan class="cls-44" x="312.72" y="0">r</tspan><tspan x="318.68" y="0">e</tspan><tspan class="cls-49" x="325.54" y="0">e</tspan><tspan x="332.29" y="0">k symbols, </tspan><tspan x="-15.36" y="18">it’s easier </tspan><tspan class="cls-47" x="46.92" y="18">t</tspan><tspan x="51.99" y="18">o just </tspan><tspan class="cls-53" x="89.12" y="18">t</tspan><tspan x="94.52" y="18">ype the </tspan><tspan class="cls-48" x="142.78" y="18">w</tspan><tspan class="cls-25" x="153.62" y="18">o</tspan><tspan class="cls-42" x="161.22" y="18">r</tspan><tspan x="167.18" y="18">d or its first th</tspan><tspan class="cls-52" x="255.53" y="18">r</tspan><tspan x="261.49" y="18">ee let</tspan><tspan class="cls-47" x="294.54" y="18">t</tspan><tspan x="299.62" y="18">ers. E.g. “phi(0,1)” </tspan><tspan x="-24.66" y="36">The </tspan><tspan class="cls-48" x="2.05" y="36">c</tspan><tspan x="8.48" y="36">or</tspan><tspan class="cls-52" x="22.19" y="36">r</tspan><tspan class="cls-37" x="28.15" y="36">e</tspan><tspan x="34.92" y="36">sponding symbol </tspan><tspan class="cls-48" x="142.6" y="36">c</tspan><tspan class="cls-25" x="149.02" y="36">an easi</tspan><tspan class="cls-48" x="192.78" y="36">l</tspan><tspan x="196.7" y="36">y be s</tspan><tspan class="cls-48" x="230.61" y="36">w</tspan><tspan class="cls-25" x="241.45" y="36">apped in with a simple scrip</tspan><tspan class="cls-2" x="415.29" y="36">t</tspan><tspan x="420.77" y="36">.</tspan><tspan x="-49.35" y="54">The short </tspan><tspan class="cls-48" x="13.24" y="54">v</tspan><tspan x="20.07" y="54">ersions of the se</tspan><tspan class="cls-48" x="118.65" y="54">v</tspan><tspan x="125.48" y="54">en g</tspan><tspan class="cls-44" x="151.5" y="54">r</tspan><tspan x="157.46" y="54">e</tspan><tspan class="cls-49" x="164.32" y="54">e</tspan><tspan x="171.06" y="54">k let</tspan><tspan class="cls-47" x="197.86" y="54">t</tspan><tspan x="202.93" y="54">ers a</tspan><tspan class="cls-42" x="232.81" y="54">r</tspan><tspan x="238.78" y="54">e “sig, d</tspan><tspan class="cls-36" x="286.22" y="54">e</tspan><tspan class="cls-43" x="292.96" y="54" xml:space="preserve">l, the, ome, phi, psi, lam”  </tspan></text>
  <text class="cls-8" transform="translate(40.98 81.77)"><tspan class="cls-46" x="0" y="0">T</tspan><tspan x="9.09" y="0">ype 4 </tspan><tspan class="cls-51" x="49.77" y="0">h</tspan><tspan class="cls-23" x="58.28" y="0">y</tspan><tspan x="66.22" y="0">brids combine a dash with a static motion. The</tspan><tspan class="cls-20" x="383.37" y="0">r</tspan><tspan x="389.75" y="0">e is no shift i</tspan><tspan class="cls-51" x="475.24" y="0">nv</tspan><tspan x="491.61" y="0">o</tspan><tspan class="cls-57" x="500.1" y="0">l</tspan><tspan class="cls-51" x="504.12" y="0">v</tspan><tspan x="511.88" y="0">ed.</tspan><tspan class="cls-23" x="75.04" y="19.2">A</tspan><tspan x="84.89" y="19.2">cco</tspan><tspan class="cls-20" x="107.49" y="19.2">r</tspan><tspan x="113.87" y="19.2">ding </tspan><tspan class="cls-34" x="147.55" y="19.2">t</tspan><tspan x="152.82" y="19.2">o </tspan><tspan class="cls-1" x="164.84" y="19.2">P</tspan><tspan x="172.81" y="19.2">ADS, a dash is hi</tspan><tspan class="cls-47" x="283.47" y="19.2">g</tspan><tspan x="291.27" y="19.2">her than a static motion.</tspan><tspan class="cls-50" x="22.73" y="38.4">W</tspan><tspan x="36.54" y="38.4">e </tspan><tspan class="cls-20" x="47.87" y="38.4">r</tspan><tspan x="54.25" y="38.4">eflect that </tspan><tspan class="cls-20" x="126.03" y="38.4">b</tspan><tspan x="134.55" y="38.4">y using the hi</tspan><tspan class="cls-47" x="225.5" y="38.4">g</tspan><tspan x="233.3" y="38.4">h slot </tspan><tspan class="cls-39" x="274.3" y="38.4">f</tspan><tspan x="278.95" y="38.4">or dash and the l</tspan><tspan class="cls-48" x="392.55" y="38.4">o</tspan><tspan x="400.96" y="38.4">w slot </tspan><tspan class="cls-39" x="445.52" y="38.4">f</tspan><tspan x="450.17" y="38.4">or static.</tspan></text>
  <text class="cls-11" transform="translate(48.31 416.33)"><tspan x="0" y="0"> </tspan></text>
  <text/>
  <text class="cls-40" transform="translate(205.36 42.15)"><tspan class="cls-13" x="0" y="0">Type 4</tspan><tspan class="cls-14" x="96.81" y="0" xml:space="preserve"> - </tspan><tspan class="cls-30" x="123.61" y="0">Dash</tspan></text>
  <line class="cls-4" x1="15.76" y1="466.58" x2="598.02" y2="466.58"/>
  <text class="cls-8" transform="translate(62.45 497.16)"><tspan x="0" y="0">N</tspan><tspan class="cls-48" x="10.89" y="0">o</tspan><tspan x="19.3" y="0">w let’s add 1 turn </tspan><tspan class="cls-34" x="141.51" y="0">t</tspan><tspan x="146.78" y="0">o the static hand, le</tspan><tspan class="cls-51" x="278.3" y="0">a</tspan><tspan x="285.8" y="0">ving the dash in its base </tspan><tspan class="cls-39" x="452.09" y="0">f</tspan><tspan x="456.73" y="0">orm.</tspan></text>
  <text class="cls-8" transform="translate(41.63 405.93)"><tspan x="0" y="0">Since on</tspan><tspan class="cls-57" x="57.12" y="0">l</tspan><tspan x="61.14" y="0">y one p</tspan><tspan class="cls-20" x="110.38" y="0">r</tspan><tspan x="116.76" y="0">op is </tspan><tspan class="cls-20" x="152.52" y="0">r</tspan><tspan x="158.9" y="0">otating, the</tspan><tspan class="cls-20" x="236.16" y="0">r</tspan><tspan x="242.55" y="0">e is no </tspan><tspan class="cls-20" x="289.66" y="0">r</tspan><tspan x="296.05" y="0">otational </tspan><tspan class="cls-20" x="360.73" y="0">r</tspan><tspan x="367.11" y="0">elationship </tspan><tspan class="cls-34" x="446.92" y="0">t</tspan><tspan x="452.2" y="0">o describe. </tspan><tspan x="35.95" y="19.2">If </tspan><tspan class="cls-56" x="49.5" y="19.2">w</tspan><tspan x="61.69" y="19.2">e </tspan><tspan class="cls-39" x="73.02" y="19.2">f</tspan><tspan x="77.66" y="19.2">oll</tspan><tspan class="cls-48" x="94.84" y="19.2">o</tspan><tspan x="103.26" y="19.2">w the same dash </tspan><tspan class="cls-52" x="219.98" y="19.2">w</tspan><tspan x="232.22" y="19.2">hile </tspan><tspan class="cls-20" x="261.16" y="19.2">r</tspan><tspan x="267.55" y="19.2">otating in the opposi</tspan><tspan class="cls-34" x="408.05" y="19.2">t</tspan><tspan x="413.33" y="19.2">e di</tspan><tspan class="cls-20" x="437.98" y="19.2">r</tspan><tspan x="444.36" y="19.2">ection, </tspan><tspan x="49.38" y="38.4">the pic</tspan><tspan class="cls-34" x="95.35" y="38.4">t</tspan><tspan x="100.62" y="38.4">og</tspan><tspan class="cls-21" x="117.02" y="38.4">r</tspan><tspan x="123.37" y="38.4">aph is a mir</tspan><tspan class="cls-20" x="202.98" y="38.4">r</tspan><tspan x="209.37" y="38.4">or image and needs no disambiguation.</tspan></text>
  <text class="cls-8" transform="translate(239.33 261.3)"><tspan x="0" y="0">First </tspan><tspan class="cls-56" x="35.46" y="0">w</tspan><tspan x="47.65" y="0">e’ll look at </tspan><tspan class="cls-58" x="121.2" y="0">Φ</tspan><tspan x="131.85" y="0">. </tspan></text>
  <text class="cls-11" transform="translate(48.31 289.39)"><tspan x="0" y="0"> </tspan></text>
  <path class="cls-38" d="m203.73,347.44c0,.5.39.92.87.92h1.82v22.28c0,.49.39.89.85.89h.42c.46,0,.85-.4.85-.89v-22.28h1.82c.48,0,.87-.42.87-.92s-.39-.91-.87-.91h-5.76c-.48,0-.87.41-.87.91Z"/>
  <path class="cls-33" d="m208.73,347.44c0,.5.39.92.87.92h1.82v22.28c0,.49.39.89.85.89h.42c.46,0,.85-.4.85-.89v-22.28h1.82c.48,0,.87-.42.87-.92s-.39-.91-.87-.91h-5.76c-.48,0-.87.41-.87.91Z"/>
  <path class="cls-38" d="m506.11,347.44c0,.5.39.92.87.92h1.82v22.28c0,.49.39.89.85.89h.42c.46,0,.85-.4.85-.89v-22.28h1.82c.48,0,.87-.42.87-.92s-.39-.91-.87-.91h-5.76c-.48,0-.87.41-.87.91Z"/>
  <path class="cls-38" d="m305.97,347.44c0,.5.39.92.87.92h1.82v22.28c0,.49.39.89.85.89h.42c.46,0,.85-.4.85-.89v-22.28h1.82c.48,0,.87-.42.87-.92s-.39-.91-.87-.91h-5.76c-.48,0-.87.41-.87.91Z"/>
  <path class="cls-38" d="m405.97,347.44c0,.5.39.92.87.92h1.82v22.28c0,.49.39.89.85.89h.42c.46,0,.85-.4.85-.89v-22.28h1.82c.48,0,.87-.42.87-.92s-.39-.91-.87-.91h-5.76c-.48,0-.87.41-.87.91Z"/>
  <path class="cls-33" d="m413.47,342.25c0-.5-.39-.92-.87-.92h-1.82v-22.28c0-.49-.39-.89-.85-.89h-.42c-.46,0-.85.4-.85.89v22.28h-1.82c-.48,0-.87.42-.87.92s.39.91.87.91h5.76c.48,0,.87-.41.87-.91Z"/>
  <path class="cls-33" d="m298.13,348.59c.5,0,.92-.39.92-.87v-1.82h22.28c.49,0,.89-.39.89-.85v-.42c0-.46-.4-.85-.89-.85h-22.28v-1.82c0-.48-.42-.87-.92-.87s-.91.39-.91.87v5.76c0,.48.41.87.91.87Z"/>
  <path class="cls-33" d="m513.31,342.25c0-.5-.39-.92-.87-.92h-1.82v-22.28c0-.49-.39-.89-.85-.89h-.42c-.46,0-.85.4-.85.89v22.28h-1.82c-.48,0-.87.42-.87.92s.39.91.87.91h5.76c.48,0,.87-.41.87-.91Z"/>
  <g>
    <circle class="cls-17" cx="209.72" cy="374.84" r="2.5"/>
    <circle class="cls-17" cx="239.72" cy="344.84" r="2.5"/>
    <circle class="cls-17" cx="209.72" cy="314.85" r="2.5"/>
    <circle class="cls-17" cx="179.72" cy="344.84" r="2.5"/>
    <circle class="cls-17" cx="209.72" cy="344.84" r="1.12"/>
  </g>
  <g>
    <circle class="cls-17" cx="309.72" cy="374.84" r="2.5"/>
    <circle class="cls-17" cx="339.72" cy="344.84" r="2.5"/>
    <circle class="cls-17" cx="309.72" cy="314.85" r="2.5"/>
    <circle class="cls-17" cx="279.72" cy="344.84" r="2.5"/>
    <circle class="cls-17" cx="309.72" cy="344.84" r="1.12"/>
  </g>
  <g>
    <circle class="cls-17" cx="409.72" cy="374.84" r="2.5"/>
    <circle class="cls-17" cx="439.71" cy="344.84" r="2.5"/>
    <circle class="cls-17" cx="409.72" cy="314.85" r="2.5"/>
    <circle class="cls-17" cx="379.72" cy="344.84" r="2.5"/>
    <circle class="cls-17" cx="409.72" cy="344.84" r="1.12"/>
  </g>
  <g>
    <circle class="cls-17" cx="509.71" cy="374.84" r="2.5"/>
    <circle class="cls-17" cx="539.71" cy="344.84" r="2.5"/>
    <circle class="cls-17" cx="509.71" cy="314.85" r="2.5"/>
    <circle class="cls-17" cx="479.71" cy="344.84" r="2.5"/>
    <circle class="cls-17" cx="509.71" cy="344.84" r="1.12"/>
  </g>
  <polygon class="cls-17" points="249.21 343.94 264.16 343.94 264.16 340.77 269.36 344.84 264.16 348.92 264.16 345.75 249.21 345.75 249.21 343.94"/>
  <polygon class="cls-17" points="349.2 343.94 364.15 343.94 364.15 340.77 369.36 344.84 364.15 348.92 364.15 345.75 349.2 345.75 349.2 343.94"/>
  <path class="cls-17" d="m455.33,343.52v-2.34h10.54v2.34h-10.54Zm0,4.99v-2.34h10.54v2.34h-10.54Z"/>
  <text class="cls-15" transform="translate(72.27 366.03)"><tspan x="0" y="0">“Phi-High-One”</tspan></text>
  <text class="cls-15" transform="translate(197.98 296.54)"><tspan x="0" y="0">s</tspan><tspan class="cls-47" x="4.58" y="0">t</tspan><tspan x="8.64" y="0">art</tspan></text>
  <text class="cls-15" transform="translate(289.81 296.54)"><tspan x="0" y="0">hal</tspan><tspan class="cls-2" x="15.87" y="0">f</tspan><tspan class="cls-48" x="19.62" y="0">wa</tspan><tspan x="34.54" y="0">y</tspan></text>
  <text class="cls-15" transform="translate(400.29 296.54)"><tspan x="0" y="0">end</tspan></text>
  <text class="cls-15" transform="translate(205.18 310.56)"><tspan x="0" y="0">in</tspan></text>
  <text class="cls-15" transform="translate(141.22 310.56)"><tspan x="0" y="0">thumbs:</tspan></text>
  <text class="cls-15" transform="translate(405.17 310.56)"><tspan x="0" y="0">in</tspan></text>
  <path class="cls-38" d="m281.52,337.48c-.21.11-.41.23-.62.35.2-.13.41-.25.61-.37,0,.01.01.01.01.02Z"/>
  <path d="m124.98,329.92v1.75h-6.22v-1.75h2.03v-4.98h-2.03v-1.82l.69-.07c.47-.05.77-.06,1.46-.24.71-.19,1.21-.46,1.21-.46h.83v7.58h2.03Z"/>
  <path class="cls-33" d="m326.42,352.31l-2.46-2.42c-.04,11.61-4.79,18.64-8.98,23.06-1.25,1.32-2.87-.29-1.66-1.57,4.3-4.58,8.38-9.89,8.53-21.56l-2.53,2.49s-1.09-1.05-.5-1.87c.79-1.08,4.05-3.91,4.05-3.91,0,0,3.26,2.83,4.05,3.91.59.82-.5,1.87-.5,1.87Z"/>
  <path class="cls-33" d="m419.68,319.09l-3.45.03c8.18,8.24,9.79,16.57,9.96,22.66.05,1.82-2.23,1.82-2.28.06-.2-6.28-1.07-12.92-9.21-21.28l-.03,3.55s-1.51.03-1.68-.97c-.21-1.32.1-5.63.1-5.63,0,0,4.31-.3,5.63-.1,1,.16.97,1.68.97,1.68Z"/>
  <path class="cls-33" d="m513.51,318.32s-.85,4.45-.82,5.61c.02,1.02,1.52,1.19,1.52,1.19l.38-3.28c9.22,13.13,9.78,34.35-1.61,47.44-.48.55-.31,1.53.13,1.85.25.21,1.07.53,1.68-.25,6.07-7.77,9.1-16.49,9.1-26.03,0-8.38-2.76-17.6-7.41-24.52l3.43.42s.23-1.5-.74-1.79c-1.4-.41-5.65-.64-5.65-.64Z"/>
  <path class="cls-17" d="m114.18,329.91c-1.41-1.02-3.1-1.65-4.9-1.82v-2.22c0-.84-.69-1.53-1.55-1.53h-.24c-.86,0-1.55.69-1.55,1.53v2.22c-1.8.18-3.49.8-4.9,1.82-1.41.96-2.18,2.16-2.27,3.51-.12,1.71.84,3.24,1.71,4.02,1.39,1.31,3.27,2.1,5.47,2.27v3.1c0,.84.69,1.53,1.55,1.53h.24c.86,0,1.55-.69,1.55-1.53v-3.1c2.2-.18,4.08-.96,5.47-2.27.86-.78,1.82-2.33,1.71-4.02-.1-1.35-.86-2.53-2.27-3.51Zm-4.9,3.69c0-.82.02-1.51.08-2.16.02-.22.2-.39.41-.41h.14c1.61,0,2.8.57,3.35,1.59.49.9.43,2.02-.18,2.9-.69,1.04-1.94,1.55-3.43,1.37-.2-.02-.35-.2-.35-.41.02-.55,0-1.12,0-1.71-.02-.39-.02-.78-.02-1.18Zm-7.31-.98c.55-1.02,1.75-1.59,3.33-1.59h.14c.24.02.41.2.43.41.06.67.08,1.37.08,2.16,0,.39,0,.8-.02,1.2,0,.57-.02,1.14,0,1.69,0,.22-.16.39-.35.41-1.49.18-2.75-.33-3.43-1.37-.61-.88-.67-2-.18-2.9Z"/>
  <g>
    <path class="cls-38" d="m203.05,574.78c0,.5.39.92.87.92h1.82v22.28c0,.49.39.89.85.89h.42c.46,0,.85-.4.85-.89v-22.28h1.82c.48,0,.87-.42.87-.92s-.39-.91-.87-.91h-5.76c-.48,0-.87.41-.87.91Z"/>
    <path class="cls-38" d="m320.63,582.62c-.5,0-.92.39-.92.87v1.82h-22.28c-.49,0-.89.39-.89.85v.42c0,.46.4.85.89.85h22.28v1.82c0,.48.42.87.92.87s.91-.39.91-.87v-5.76c0-.48-.41-.87-.91-.87Z"/>
    <path class="cls-38" d="m412.78,597.97c0-.5-.39-.92-.87-.92h-1.82v-22.28c0-.49-.39-.89-.85-.89h-.42c-.46,0-.85.4-.85.89v22.28h-1.82c-.48,0-.87.42-.87.92s.39.91.87.91h5.76c.48,0,.87-.41.87-.91Z"/>
    <path class="cls-33" d="m208.05,574.78c0,.5.39.92.87.92h1.82v22.28c0,.49.39.89.85.89h.42c.46,0,.85-.4.85-.89v-22.28h1.82c.48,0,.87-.42.87-.92s-.39-.91-.87-.91h-5.76c-.48,0-.87.41-.87.91Z"/>
    <path class="cls-33" d="m404.98,546.41c0,.5.39.92.87.92h1.82v22.28c0,.49.39.89.85.89h.42c.46,0,.85-.4.85-.89v-22.28h1.82c.48,0,.87-.42.87-.92,0-.5-.39-.91-.87-.91h-5.76c-.48,0-.87.41-.87.91Z"/>
    <path class="cls-38" d="m512.93,597.97c0-.5-.39-.92-.87-.92h-1.82v-22.28c0-.49-.39-.89-.85-.89h-.42c-.46,0-.85.4-.85.89v22.28h-1.82c-.48,0-.87.42-.87.92s.39.91.87.91h5.76c.48,0,.87-.41.87-.91Z"/>
    <path class="cls-33" d="m505.13,546.41c0,.5.39.92.87.92h1.82v22.28c0,.49.39.89.85.89h.42c.46,0,.85-.4.85-.89v-22.28h1.82c.48,0,.87-.42.87-.92s-.39-.91-.87-.91h-5.76c-.48,0-.87.41-.87.91Z"/>
    <path class="cls-33" d="m305.29,560.6c0,.5.39.92.87.92h1.82v22.28c0,.49.39.89.85.89h.42c.46,0,.85-.4.85-.89v-22.28h1.82c.48,0,.87-.42.87-.92s-.39-.91-.87-.91h-5.76c-.48,0-.87.41-.87.91Z"/>
    <g>
      <circle class="cls-17" cx="209.04" cy="602.19" r="2.5"/>
      <circle class="cls-17" cx="239.04" cy="572.19" r="2.5"/>
      <circle class="cls-17" cx="209.04" cy="542.19" r="2.5"/>
      <circle class="cls-17" cx="179.04" cy="572.19" r="2.5"/>
      <circle class="cls-17" cx="209.04" cy="572.19" r="1.12"/>
    </g>
    <g>
      <circle class="cls-17" cx="309.04" cy="602.19" r="2.5"/>
      <circle class="cls-17" cx="339.03" cy="572.19" r="2.5"/>
      <circle class="cls-17" cx="309.04" cy="542.19" r="2.5"/>
      <circle class="cls-17" cx="279.04" cy="572.19" r="2.5"/>
      <circle class="cls-17" cx="309.04" cy="572.19" r="1.12"/>
    </g>
    <g>
      <circle class="cls-17" cx="409.03" cy="602.19" r="2.5"/>
      <circle class="cls-17" cx="439.03" cy="572.19" r="2.5"/>
      <circle class="cls-17" cx="409.03" cy="542.19" r="2.5"/>
      <circle class="cls-17" cx="379.03" cy="572.19" r="2.5"/>
      <circle class="cls-17" cx="409.03" cy="572.19" r="1.12"/>
    </g>
    <g>
      <circle class="cls-17" cx="509.03" cy="602.19" r="2.5"/>
      <circle class="cls-17" cx="539.03" cy="572.19" r="2.5"/>
      <circle class="cls-17" cx="509.03" cy="542.19" r="2.5"/>
      <circle class="cls-17" cx="479.03" cy="572.19" r="2.5"/>
      <circle class="cls-17" cx="509.03" cy="572.19" r="1.12"/>
    </g>
    <polygon class="cls-17" points="248.52 571.28 263.47 571.28 263.47 568.11 268.68 572.19 263.47 576.26 263.47 573.09 248.52 573.09 248.52 571.28"/>
    <polygon class="cls-17" points="348.52 571.28 363.47 571.28 363.47 568.11 368.68 572.19 363.47 576.26 363.47 573.09 348.52 573.09 348.52 571.28"/>
    <path class="cls-17" d="m454.64,570.86v-2.34h10.54v2.34h-10.54Zm0,4.99v-2.34h10.54v2.34h-10.54Z"/>
    <text class="cls-15" transform="translate(204.49 537.9)"><tspan x="0" y="0">in</tspan></text>
    <text class="cls-15" transform="translate(401 537.9)"><tspan x="0" y="0">out</tspan></text>
    <path class="cls-38" d="m280.83,564.82c-.21.11-.41.23-.62.35.2-.13.41-.25.61-.37,0,.01.01.01.01.02Z"/>
    <path d="m124.29,571.93v1.75h-6.22v-1.75h2.03v-4.98h-2.03v-1.82l.69-.07c.47-.05.77-.06,1.46-.24.71-.19,1.21-.46,1.21-.46h.83v7.58h2.03Z"/>
    <path class="cls-38" d="m321.01,579.72c.04-5.08-2.96-9.67-9.44-9.67-1.09,0-1.23,1.52,0,1.55,6.09,0,8.1,4.15,8.01,8.12l-2.02-2.05s-.84.82-.38,1.44c.63.87,2.91,2.84,3.14,3.04.22-.2,2.5-2.17,3.14-3.04.45-.63-.39-1.44-.39-1.44l-2.06,2.05Z"/>
    <path class="cls-38" d="m414.89,601.3c5.08.04,9.67-2.96,9.67-9.44,0-1.09-1.52-1.23-1.55,0,0,6.09-4.15,8.1-8.12,8.01l2.05-2.02s-.82-.84-1.44-.38c-.87.63-2.84,2.91-3.04,3.14.2.22,2.17,2.5,3.04,3.14.63.45,1.44-.39,1.44-.39l-2.05-2.06Z"/>
    <path class="cls-33" d="m305.69,572.68c-.79-1.08-4.05-3.91-4.05-3.91,0,0-3.26,2.83-4.05,3.91-.59.82.5,1.87.5,1.87l2.62-2.58v11.72c0,1.32,1.86,1.32,1.86,0v-11.72s2.62,2.58,2.62,2.58c0,0,1.09-1.05.5-1.87Z"/>
    <path class="cls-33" d="m405.11,559.06c-.79-1.08-4.05-3.91-4.05-3.91,0,0-3.26,2.83-4.05,3.91-.59.82.5,1.87.5,1.87l2.62-2.58v11.72c0,1.32,1.86,1.32,1.86,0v-11.72s2.62,2.58,2.62,2.58c0,0,1.09-1.05.5-1.87Z"/>
    <text class="cls-15" transform="translate(71.58 595)"><tspan x="0" y="0">“Phi-L</tspan><tspan class="cls-39" x="30.78" y="0">o</tspan><tspan x="36.71" y="0">w-One”</tspan></text>
    <path class="cls-17" d="m113.49,557.26c-1.41-1.02-3.1-1.65-4.9-1.82v-2.22c0-.84-.69-1.53-1.55-1.53h-.24c-.86,0-1.55.69-1.55,1.53v2.22c-1.8.18-3.49.8-4.9,1.82-1.41.96-2.18,2.16-2.27,3.51-.12,1.71.84,3.24,1.71,4.02,1.39,1.31,3.27,2.1,5.47,2.27v3.1c0,.84.69,1.53,1.55,1.53h.24c.86,0,1.55-.69,1.55-1.53v-3.1c2.2-.18,4.08-.96,5.47-2.27.86-.78,1.82-2.33,1.71-4.02-.1-1.35-.86-2.53-2.27-3.51Zm-4.9,3.69c0-.82.02-1.51.08-2.16.02-.22.2-.39.41-.41h.14c1.61,0,2.8.57,3.35,1.59.49.9.43,2.02-.18,2.9-.69,1.04-1.94,1.55-3.43,1.37-.2-.02-.35-.2-.35-.41.02-.55,0-1.12,0-1.71-.02-.39-.02-.78-.02-1.18Zm-7.31-.98c.55-1.02,1.75-1.59,3.33-1.59h.14c.24.02.41.2.43.41.06.67.08,1.37.08,2.16,0,.39,0,.8-.02,1.2,0,.57-.02,1.14,0,1.69,0,.22-.16.39-.35.41-1.49.18-2.75-.33-3.43-1.37-.61-.88-.67-2-.18-2.9Z"/>
  </g>
  <g>
    <g>
      <text class="cls-17" transform="translate(192.77 171)"><tspan class="cls-28"><tspan class="cls-54" x="0" y="0">F</tspan><tspan x="10.05" y="0">or </tspan><tspan class="cls-46" x="35.07" y="0">T</tspan><tspan x="47.36" y="0">ype 4, </tspan></tspan><tspan class="cls-28"><tspan x="-75.54" y="24">hi</tspan><tspan class="cls-47" x="-57.31" y="24">g</tspan><tspan x="-47.05" y="24">h = dash and l</tspan><tspan class="cls-45" x="78.98" y="24">o</tspan><tspan x="89.95" y="24">w = static.</tspan></tspan><tspan class="cls-31"><tspan x="51.59" y="38.4"> </tspan></tspan><tspan class="cls-19"><tspan x="-33.78" y="57.6">This includes </tspan><tspan class="cls-58" x="60.06" y="57.6">Φ</tspan><tspan x="70.72" y="57.6">, Ψ, and </tspan><tspan class="cls-59" x="125.99" y="57.6">Λ</tspan><tspan x="136.33" y="57.6">.</tspan></tspan></text>
      <g>
        <text class="cls-7" transform="translate(454.23 176.43)"><tspan x="0" y="0">Dash</tspan></text>
        <text class="cls-7" transform="translate(453.71 225.1)"><tspan x="0" y="0">Static</tspan></text>
      </g>
    </g>
    <path class="cls-17" d="m448.98,183.94c-3.53-2.55-7.74-4.12-12.25-4.56v-5.54c0-2.11-1.72-3.82-3.87-3.82h-.59c-2.16,0-3.87,1.72-3.87,3.82v5.54c-4.51.44-8.73,2.01-12.25,4.56-3.53,2.4-5.44,5.39-5.69,8.77-.29,4.26,2.11,8.09,4.26,10.05,3.48,3.28,8.19,5.25,13.68,5.69v7.74c0,2.11,1.72,3.82,3.87,3.82h.59c2.16,0,3.87-1.72,3.87-3.82v-7.74c5.49-.44,10.2-2.4,13.68-5.69,2.16-1.96,4.56-5.83,4.26-10.05-.25-3.38-2.16-6.32-5.69-8.77Zm-12.25,9.22c0-2.06.05-3.77.2-5.39.05-.54.49-.98,1.03-1.03h.34c4.02,0,7.01,1.42,8.38,3.97,1.23,2.25,1.08,5.05-.44,7.25-1.72,2.6-4.85,3.87-8.58,3.43-.49-.05-.88-.49-.88-1.03.05-1.37,0-2.79,0-4.26-.05-.98-.05-1.96-.05-2.94Zm-18.28-2.45c1.37-2.55,4.36-3.97,8.33-3.97h.34c.59.05,1.03.49,1.08,1.03.15,1.67.2,3.43.2,5.39,0,.98,0,2.01-.05,2.99,0,1.42-.05,2.84,0,4.22,0,.54-.39.98-.88,1.03-3.73.44-6.86-.83-8.58-3.43-1.52-2.21-1.67-5-.44-7.25Z"/>
    <text class="cls-12" transform="translate(421.71 242.4)"><tspan x="0" y="0">Phi</tspan></text>
  </g>
  <text class="cls-22" transform="translate(122.83 631.24)"><tspan class="cls-16"><tspan class="cls-20" x="0" y="0">P</tspan><tspan x="9.3" y="0">ause at the hal</tspan><tspan class="cls-2" x="114.55" y="0">f</tspan><tspan class="cls-48" x="119.98" y="0">wa</tspan><tspan x="141.31" y="0">y point and </tspan><tspan class="cls-48" x="225.29" y="0">c</tspan><tspan x="232.45" y="0">he</tspan><tspan class="cls-48" x="249.7" y="0">c</tspan><tspan x="256.85" y="0">k </tspan><tspan class="cls-48" x="268.98" y="0">y</tspan><tspan x="276.91" y="0">our position.</tspan></tspan><tspan class="cls-9" x="-101.87" y="19.2">He</tspan><tspan class="cls-5" x="-83.08" y="19.2">r</tspan><tspan class="cls-9" x="-76.7" y="19.2">e, the</tspan><tspan class="cls-5" x="-40.04" y="19.2">r</tspan><tspan class="cls-9" x="-33.66" y="19.2">e is a hand-</tspan><tspan class="cls-6" x="43.61" y="19.2">t</tspan><tspan class="cls-9" x="48.88" y="19.2">o-end </tspan><tspan class="cls-5" x="91.82" y="19.2">r</tspan><tspan class="cls-9" x="98.2" y="19.2">elationship with the </tspan><tspan class="cls-29" x="238.18" y="19.2">left</tspan><tspan class="cls-18" x="262.67" y="19.2"> </tspan><tspan class="cls-9" x="266.19" y="19.2">hand and the </tspan><tspan class="cls-27" x="358.87" y="19.2">ri</tspan><tspan class="cls-32" x="371.29" y="19.2">g</tspan><tspan class="cls-27" x="379.5" y="19.2">ht </tspan><tspan class="cls-9" x="398.41" y="19.2">pinky end.</tspan><tspan class="cls-9"><tspan x="3.41" y="38.4">A</tspan><tspan class="cls-41" x="13.38" y="38.4">g</tspan><tspan x="21.15" y="38.4">ain, the</tspan><tspan class="cls-20" x="71.19" y="38.4">r</tspan><tspan x="77.57" y="38.4">e is no </tspan><tspan class="cls-20" x="124.69" y="38.4">r</tspan><tspan x="131.07" y="38.4">otational </tspan><tspan class="cls-20" x="195.75" y="38.4">r</tspan><tspan x="202.13" y="38.4">elationship </tspan><tspan class="cls-34" x="281.95" y="38.4">t</tspan><tspan x="287.22" y="38.4">o describe, </tspan></tspan><tspan class="cls-9"><tspan x="64.21" y="57.6">so </tspan><tspan class="cls-56" x="83.11" y="57.6">w</tspan><tspan x="95.29" y="57.6">e do</tspan><tspan class="cls-55" x="123.99" y="57.6">n</tspan><tspan x="132.45" y="57.6">’t need </tspan><tspan class="cls-34" x="181.86" y="57.6">t</tspan><tspan x="187.14" y="57.6">o sepa</tspan><tspan class="cls-21" x="230.54" y="57.6">r</tspan><tspan x="236.89" y="57.6">a</tspan><tspan class="cls-34" x="244.7" y="57.6">t</tspan><tspan x="249.97" y="57.6">e them. </tspan></tspan></text>
  <line class="cls-3" x1=".89" y1="705.11" x2="612.89" y2="705.11"/>
</svg>