<?xml version="1.0" encoding="UTF-8"?>
<svg id="Layer_1" data-name="Layer 1" xmlns="http://www.w3.org/2000/svg" viewBox="0 0 612 792">
  <defs>
    <style>
      .cls-1 {
        letter-spacing: .02em;
      }

      .cls-2, .cls-3 {
        fill: none;
        stroke: #231f20;
        stroke-miterlimit: 10;
      }

      .cls-4 {
        letter-spacing: -.02em;
      }

      .cls-4, .cls-5, .cls-6, .cls-7, .cls-8, .cls-9, .cls-10, .cls-11, .cls-12, .cls-13, .cls-14, .cls-15, .cls-16, .cls-17, .cls-18, .cls-19, .cls-20 {
        font-family: Cambria, Cambria;
      }

      .cls-21 {
        letter-spacing: -.02em;
      }

      .cls-5, .cls-22 {
        letter-spacing: -.01em;
      }

      .cls-23, .cls-24 {
        letter-spacing: 0em;
      }

      .cls-25, .cls-18 {
        letter-spacing: -.01em;
      }

      .cls-6 {
        letter-spacing: 0em;
      }

      .cls-26 {
        letter-spacing: -.07em;
      }

      .cls-27 {
        letter-spacing: -.11em;
      }

      .cls-28 {
        letter-spacing: 0em;
      }

      .cls-29 {
        font-size: 13px;
      }

      .cls-29, .cls-9, .cls-30, .cls-31, .cls-32, .cls-33, .cls-34, .cls-35, .cls-36 {
        fill: #231f20;
      }

      .cls-29, .cls-31, .cls-37, .cls-24, .cls-38, .cls-39, .cls-34 {
        font-family: Cambria-Italic, Cambria;
      }

      .cls-29, .cls-31, .cls-37, .cls-24, .cls-38, .cls-39, .cls-34, .cls-36 {
        font-style: italic;
      }

      .cls-7, .cls-40 {
        letter-spacing: 0em;
      }

      .cls-8 {
        letter-spacing: -.01em;
      }

      .cls-9, .cls-33, .cls-36 {
        font-size: 14px;
      }

      .cls-41 {
        letter-spacing: -.05em;
      }

      .cls-30 {
        font-family: MonotypeCorsiva, 'Monotype Corsiva';
        font-size: 40px;
      }

      .cls-42, .cls-12 {
        letter-spacing: 0em;
      }

      .cls-10 {
        letter-spacing: -.01em;
      }

      .cls-43 {
        fill: #2e3192;
      }

      .cls-44 {
        letter-spacing: -.01em;
      }

      .cls-45 {
        letter-spacing: -.08em;
      }

      .cls-31, .cls-32 {
        font-size: 15px;
      }

      .cls-11, .cls-46 {
        letter-spacing: -.02em;
      }

      .cls-13, .cls-38, .cls-47 {
        letter-spacing: 0em;
      }

      .cls-14 {
        letter-spacing: -.01em;
      }

      .cls-15 {
        letter-spacing: -.01em;
      }

      .cls-48 {
        letter-spacing: 0em;
      }

      .cls-49 {
        letter-spacing: -.08em;
      }

      .cls-16, .cls-50 {
        letter-spacing: -.01em;
      }

      .cls-39 {
        letter-spacing: -.01em;
      }

      .cls-51 {
        letter-spacing: 0em;
      }

      .cls-52 {
        letter-spacing: -.06em;
      }

      .cls-53 {
        fill: #ed1c24;
      }

      .cls-17 {
        letter-spacing: 0em;
      }

      .cls-54 {
        letter-spacing: -.02em;
      }

      .cls-55 {
        letter-spacing: 0em;
      }

      .cls-34 {
        font-size: 12px;
      }

      .cls-56 {
        letter-spacing: -.1em;
      }

      .cls-57 {
        letter-spacing: .01em;
      }

      .cls-58 {
        letter-spacing: -.03em;
      }

      .cls-3 {
        stroke-width: .5px;
      }

      .cls-20 {
        letter-spacing: -.02em;
      }

      .cls-36 {
        font-family: Cambria-BoldItalic, Cambria;
        font-weight: 700;
      }

      .cls-59 {
        letter-spacing: -.02em;
      }
    </style>
  </defs>
  <text class="cls-31" transform="translate(16.97 773.66)"><tspan class="cls-26" x="0" y="0">T</tspan><tspan x="7.59" y="0">o shor</tspan><tspan class="cls-51" x="45.89" y="0">t</tspan><tspan x="50.96" y="0">en this for </tspan><tspan class="cls-47" x="116.78" y="0">c</tspan><tspan x="123.2" y="0">ode, in</tspan><tspan class="cls-47" x="163.9" y="0">c</tspan><tspan x="170.32" y="0">lude“op” or “</tspan><tspan class="cls-28" x="249.39" y="0">c</tspan><tspan class="cls-23" x="255.81" y="0">l” as a final pa</tspan><tspan class="cls-48" x="344.19" y="0">r</tspan><tspan x="350.15" y="0">ame</tspan><tspan class="cls-51" x="376.88" y="0">t</tspan><tspan x="381.95" y="0">e</tspan><tspan class="cls-41" x="388.81" y="0">r</tspan><tspan x="394.18" y="0">. E.g. </tspan><tspan class="cls-27" x="426.12" y="0">“</tspan><tspan class="cls-23" x="430.01" y="0">Λ(0,1,op)” or </tspan><tspan class="cls-27" x="513.13" y="0">“</tspan><tspan class="cls-23" x="517.03" y="0">Λ(0,1,</tspan><tspan class="cls-28" x="553.26" y="0">c</tspan><tspan class="cls-23" x="559.68" y="0">l)” </tspan></text>
  <text class="cls-30" transform="translate(188.69 40.74)"><tspan x="0" y="0">Opening/Closing</tspan></text>
  <text class="cls-9" transform="translate(99.87 72.71)"><tspan x="0" y="0">Because of Gamm</tspan><tspan class="cls-58" x="105.49" y="0">a</tspan><tspan x="111.92" y="0">’s a</tspan><tspan class="cls-55" x="130.95" y="0">s</tspan><tspan x="136.86" y="0">ymmetr</tspan><tspan class="cls-45" x="184.57" y="0">y</tspan><tspan x="190.46" y="0">, Λ (Lam) p</tspan><tspan class="cls-50" x="255.53" y="0">r</tspan><tspan x="261.12" y="0">esents an </tspan><tspan class="cls-25" x="320.17" y="0">e</tspan><tspan x="326.84" y="0">xt</tspan><tspan class="cls-21" x="338.34" y="0">r</tspan><tspan x="343.9" y="0">a </tspan><tspan class="cls-59" x="353.81" y="0">v</tspan><tspan x="360.57" y="0">ariation.</tspan><tspan class="cls-52" x="-60.81" y="16.8">W</tspan><tspan x="-48.73" y="16.8">e ca</tspan><tspan class="cls-58" x="-25.81" y="16.8">n</tspan><tspan x="-18.41" y="16.8">’t use </tspan><tspan class="cls-50" x="16.17" y="16.8">r</tspan><tspan x="21.75" y="16.8">otational </tspan><tspan class="cls-50" x="78.35" y="16.8">r</tspan><tspan x="83.93" y="16.8">elationship </tspan><tspan class="cls-40" x="153.77" y="16.8">t</tspan><tspan x="158.38" y="16.8">o </tspan><tspan class="cls-40" x="168.9" y="16.8">t</tspan><tspan x="173.51" y="16.8">ell them apar</tspan><tspan class="cls-57" x="252.29" y="16.8">t</tspan><tspan x="257.24" y="16.8">, because the</tspan><tspan class="cls-50" x="333.64" y="16.8">r</tspan><tspan x="339.23" y="16.8">e is</tspan><tspan class="cls-58" x="359.04" y="16.8">n</tspan><tspan x="366.45" y="16.8">’t one </tspan><tspan class="cls-40" x="402.52" y="16.8">t</tspan><tspan x="407.13" y="16.8">o describe.</tspan><tspan x="34.86" y="33.6">Ins</tspan><tspan class="cls-40" x="53.23" y="33.6">t</tspan><tspan x="57.85" y="33.6">ead, </tspan><tspan class="cls-22" x="85.23" y="33.6">w</tspan><tspan x="95.89" y="33.6">e disambigua</tspan><tspan class="cls-40" x="175" y="33.6">t</tspan><tspan x="179.61" y="33.6">e them with opening and closing.</tspan><tspan x="-57.83" y="50.4">This </tspan><tspan class="cls-50" x="-28.81" y="50.4">r</tspan><tspan x="-23.23" y="50.4">e</tspan><tspan class="cls-44" x="-16.4" y="50.4">f</tspan><tspan x="-12.33" y="50.4">ers </tspan><tspan class="cls-40" x="9.38" y="50.4">t</tspan><tspan x="14" y="50.4">o the appea</tspan><tspan class="cls-21" x="82.96" y="50.4">r</tspan><tspan x="88.51" y="50.4">ance of the 90° an</tspan><tspan class="cls-51" x="194.86" y="50.4">g</tspan><tspan x="201.69" y="50.4">le if </tspan><tspan class="cls-22" x="226.61" y="50.4">w</tspan><tspan x="237.27" y="50.4">e continue the </tspan><tspan class="cls-50" x="325.06" y="50.4">r</tspan><tspan x="330.65" y="50.4">otation in</tspan><tspan class="cls-40" x="388.31" y="50.4">t</tspan><tspan x="392.92" y="50.4">o a p</tspan><tspan class="cls-50" x="421.14" y="50.4">r</tspan><tspan x="426.73" y="50.4">o-shif</tspan><tspan class="cls-57" x="460.67" y="50.4">t</tspan><tspan x="465.62" y="50.4">.</tspan><tspan class="cls-49" x="-67.54" y="84">T</tspan><tspan x="-60.33" y="84">a</tspan><tspan class="cls-21" x="-53.5" y="84">k</tspan><tspan x="-46.39" y="84">e a look at the sequences bel</tspan><tspan class="cls-47" x="122.82" y="84">o</tspan><tspan x="130.19" y="84">w and their </tspan><tspan class="cls-46" x="201.66" y="84">h</tspan><tspan x="209.11" y="84">ypothetical continuation. No</tspan><tspan class="cls-40" x="378.41" y="84">t</tspan><tspan x="383.02" y="84">e the dif</tspan><tspan class="cls-44" x="431.2" y="84">f</tspan><tspan x="435.27" y="84">e</tspan><tspan class="cls-50" x="442.1" y="84">r</tspan><tspan x="447.68" y="84">ence. </tspan></text>
  <text class="cls-33" transform="translate(93.2 414.46)"><tspan class="cls-19"><tspan x="0" y="0">N</tspan><tspan class="cls-47" x="9.53" y="0">o</tspan><tspan x="16.89" y="0">w let’s add 1 turn </tspan><tspan class="cls-40" x="123.82" y="0">t</tspan><tspan x="128.43" y="0">o the static hand, le</tspan><tspan class="cls-46" x="243.52" y="0">a</tspan><tspan x="250.08" y="0">ving the dash in its base </tspan><tspan class="cls-44" x="395.58" y="0">f</tspan><tspan x="399.64" y="0">orm.</tspan></tspan><tspan class="cls-19"><tspan x="-37.03" y="33.6">Since the dashing p</tspan><tspan class="cls-50" x="77.91" y="33.6">r</tspan><tspan x="83.5" y="33.6">op is not </tspan><tspan class="cls-50" x="137.85" y="33.6">r</tspan><tspan x="143.43" y="33.6">otating, the</tspan><tspan class="cls-50" x="211.04" y="33.6">r</tspan><tspan x="216.63" y="33.6">e is no </tspan><tspan class="cls-50" x="257.85" y="33.6">r</tspan><tspan x="263.44" y="33.6">otational </tspan><tspan class="cls-50" x="320.03" y="33.6">r</tspan><tspan x="325.62" y="33.6">elationship </tspan><tspan class="cls-40" x="395.46" y="33.6">t</tspan><tspan x="400.07" y="33.6">o describe.</tspan></tspan><tspan class="cls-19" x="-11.72" y="50.4">H</tspan><tspan class="cls-13" x="-2.11" y="50.4">o</tspan><tspan class="cls-5" x="5.25" y="50.4">w</tspan><tspan class="cls-17" x="15.92" y="50.4">e</tspan><tspan class="cls-11" x="22.61" y="50.4">v</tspan><tspan class="cls-19" x="29.39" y="50.4">er the </tspan><tspan class="cls-16" x="67.47" y="50.4">r</tspan><tspan class="cls-19" x="73.05" y="50.4">otating static p</tspan><tspan class="cls-16" x="161.75" y="50.4">r</tspan><tspan class="cls-19" x="167.34" y="50.4">op can still be identified as </tspan><tspan class="cls-37" x="329.11" y="50.4">opening </tspan><tspan class="cls-19" x="379.16" y="50.4">or </tspan><tspan class="cls-38" x="395.46" y="50.4">c</tspan><tspan class="cls-37" x="401.46" y="50.4">losing</tspan><tspan class="cls-19" x="436.23" y="50.4">.</tspan></text>
  <text class="cls-32" transform="translate(39.45 700.46)"><tspan class="cls-19"><tspan x="0" y="0">It’s not necessary </tspan><tspan class="cls-40" x="114.61" y="0">t</tspan><tspan x="119.56" y="0">o speak all of the </tspan><tspan class="cls-51" x="229.97" y="0">g</tspan><tspan class="cls-54" x="237.28" y="0">l</tspan><tspan x="241.05" y="0">yph modifications </tspan><tspan class="cls-48" x="359.43" y="0">w</tspan><tspan class="cls-23" x="370.9" y="0">hen talking about a let</tspan><tspan class="cls-42" x="513.01" y="0">t</tspan><tspan x="517.95" y="0">e</tspan><tspan class="cls-56" x="525.27" y="0">r</tspan><tspan x="530.01" y="0">.</tspan></tspan><tspan class="cls-19" x="-18.65" y="18">It </tspan><tspan class="cls-5" x="-5.41" y="18">w</tspan><tspan class="cls-19" x="6.01" y="18">ould be qui</tspan><tspan class="cls-7" x="77.44" y="18">t</tspan><tspan class="cls-19" x="82.38" y="18">e cumbersome if </tspan><tspan class="cls-11" x="191.63" y="18">y</tspan><tspan class="cls-19" x="198.89" y="18">ou </tspan><tspan class="cls-5" x="218.44" y="18">w</tspan><tspan class="cls-19" x="229.86" y="18">e</tspan><tspan class="cls-16" x="237.18" y="18">r</tspan><tspan class="cls-19" x="243.17" y="18">e a</tspan><tspan class="cls-4" x="261.11" y="18">l</tspan><tspan class="cls-20" x="264.92" y="18">w</tspan><tspan class="cls-11" x="276.26" y="18">a</tspan><tspan class="cls-8" x="283.29" y="18">y</tspan><tspan class="cls-19" x="290.69" y="18">s </tspan><tspan class="cls-10" x="300.44" y="18">r</tspan><tspan class="cls-19" x="306.42" y="18">equi</tspan><tspan class="cls-14" x="334.39" y="18">r</tspan><tspan class="cls-19" x="340.38" y="18">ed </tspan><tspan class="cls-6" x="359.32" y="18">t</tspan><tspan class="cls-19" x="364.26" y="18">o s</tspan><tspan class="cls-11" x="381.97" y="18">a</tspan><tspan class="cls-19" x="389" y="18">y </tspan><tspan class="cls-37" x="399.86" y="18">“Lam-L</tspan><tspan class="cls-39" x="445.7" y="18">o</tspan><tspan class="cls-24" x="453.12" y="18">w-One-Closing”</tspan><tspan class="cls-19" x="548.66" y="18">.</tspan><tspan class="cls-19" x="-17.58" y="36">In the con</tspan><tspan class="cls-7" x="45.87" y="36">t</tspan><tspan class="cls-18" x="50.81" y="36">e</tspan><tspan class="cls-19" x="57.96" y="36">xt of a </tspan><tspan class="cls-5" x="100.02" y="36">w</tspan><tspan class="cls-19" x="111.44" y="36">o</tspan><tspan class="cls-16" x="119.4" y="36">r</tspan><tspan class="cls-19" x="125.39" y="36">d or sequence, </tspan><tspan class="cls-11" x="220.72" y="36">y</tspan><tspan class="cls-19" x="227.99" y="36">ou could just </tspan><tspan class="cls-16" x="313.19" y="36">r</tspan><tspan class="cls-19" x="319.17" y="36">e</tspan><tspan class="cls-15" x="326.49" y="36">f</tspan><tspan class="cls-19" x="330.84" y="36">er </tspan><tspan class="cls-12" x="347.67" y="36">t</tspan><tspan class="cls-19" x="352.61" y="36">o the base let</tspan><tspan class="cls-6" x="436.91" y="36">t</tspan><tspan class="cls-19" x="441.85" y="36">er </tspan><tspan class="cls-37" x="458.68" y="36">“Lam” </tspan><tspan class="cls-19" x="500.69" y="36">ins</tspan><tspan class="cls-7" x="519.68" y="36">t</tspan><tspan class="cls-19" x="524.62" y="36">ead.</tspan></text>
  <g>
    <text class="cls-29" transform="translate(547.06 591.4)"><tspan x="0" y="0">C</tspan><tspan class="cls-46" x="6.11" y="0">L</tspan><tspan x="11.66" y="0">OSING</tspan></text>
    <text class="cls-29" transform="translate(545.72 493.43)"><tspan x="0" y="0">OPENING</tspan></text>
    <text class="cls-34" transform="translate(37.9 654.78)"><tspan x="0" y="0">C</tspan><tspan class="cls-46" x="5.64" y="0">L</tspan><tspan x="10.76" y="0">OSING</tspan></text>
    <text class="cls-34" transform="translate(36.38 555.38)"><tspan x="0" y="0">OPENING</tspan></text>
    <path d="m444.39,673.62v.85h-3v-.85h.98v-2.4h-.98v-.88l.33-.03c.23-.02.37-.03.71-.12s.58-.22.58-.22h.4v3.65h.98Z"/>
    <path d="m443.49,573.62v.85h-3v-.85h.98v-2.4h-.98v-.88l.33-.03c.23-.02.37-.03.71-.12s.58-.22.58-.22h.4v3.65h.98Z"/>
    <path class="cls-35" d="m431.44,572.12c.06-.29,1.97-5.54,3.02-7.94.32-.73.61-.72.74-.72s.42,0,.74.72c1.05,2.4,2.96,7.64,3.02,7.94.23,1-.08,1.16-.44,1.3-.28.13-.86.02-1.12-.7-.16-.42-2.2-5.86-2.2-5.86,0,0-2.05,5.44-2.2,5.86-.25.72-.83.82-1.12.7-.36-.15-.67-.3-.44-1.3Z"/>
    <path class="cls-35" d="m431.44,672.12c.06-.29,1.97-5.54,3.02-7.94.32-.73.61-.72.74-.72s.42,0,.74.72c1.05,2.4,2.96,7.64,3.02,7.94.23,1-.08,1.16-.44,1.3-.28.13-.86.02-1.12-.7-.16-.42-2.2-5.86-2.2-5.86,0,0-2.05,5.44-2.2,5.86-.25.72-.83.82-1.12.7-.36-.15-.67-.3-.44-1.3Z"/>
    <path class="cls-35" d="m539.67,664.02l-4.37,8.3c-.15.29-.45.46-.75.46-.13,0-.26-.04-.39-.1-.2-.11-.35-.28-.42-.5-.07-.21-.05-.45.06-.65l1.88-3.58-2.53-3.62c-.12-.11-.2-.27-.24-.47-.05-.25.03-.53.2-.71.15-.17.35-.27.58-.28.22,0,.45.07.61.21l2.2,3.29,1.65-3.14c.12-.2.29-.35.51-.42.22-.07.45-.04.65.07.22.12.38.33.43.59.03.19,0,.38-.08.55Z"/>
    <path class="cls-35" d="m541.48,562.78c-.46-.06-.96.28-1.19,1.14-.42,1.54-.92,3.7-1.44,5.63-1.11-2.72-1.86-4.39-2.5-4.38-.01,0-.02,0-.03.01-.01-.01-.02-.01-.03-.01-.64-.01-1.39,1.65-2.5,4.38-.51-1.93-1.02-4.09-1.44-5.63-.24-.86-.73-1.2-1.19-1.14-.59.07-.98.49-.74,1.25.25.81,1.84,6.07,2.3,7.72.47,1.65,1.59.9,1.8.49.21-.41,1.36-3.67,1.8-4.59.44.92,1.59,4.18,1.8,4.59.21.41,1.33,1.16,1.8-.49.46-1.64,2.05-6.9,2.3-7.72.24-.76-.15-1.18-.74-1.25Z"/>
    <path class="cls-53" d="m232.58,515.65c0,.5.39.92.87.92h1.82v22.28c0,.49.39.89.85.89h.42c.46,0,.85-.4.85-.89v-22.28h1.82c.48,0,.87-.42.87-.92s-.39-.91-.87-.91h-5.76c-.48,0-.87.41-.87.91Z"/>
    <path class="cls-53" d="m232.58,615.65c0,.5.39.92.87.92h1.82v22.28c0,.49.39.89.85.89h.42c.46,0,.85-.4.85-.89v-22.28h1.82c.48,0,.87-.42.87-.92s-.39-.91-.87-.91h-5.76c-.48,0-.87.41-.87.91Z"/>
    <g>
      <circle class="cls-35" cx="166.33" cy="627.24" r="2.5"/>
      <circle class="cls-35" cx="136.33" cy="597.24" r="2.5"/>
      <circle class="cls-35" cx="106.34" cy="627.24" r="2.5"/>
      <circle class="cls-35" cx="136.33" cy="657.24" r="2.5"/>
      <circle class="cls-35" cx="136.33" cy="627.24" r="1.12"/>
    </g>
    <g>
      <circle class="cls-35" cx="266.33" cy="627.24" r="2.5"/>
      <circle class="cls-35" cx="236.33" cy="597.24" r="2.5"/>
      <circle class="cls-35" cx="206.33" cy="627.24" r="2.5"/>
      <circle class="cls-35" cx="236.33" cy="657.24" r="2.5"/>
      <circle class="cls-35" cx="236.33" cy="627.24" r="1.12"/>
    </g>
    <g>
      <circle class="cls-35" cx="366.32" cy="627.24" r="2.5"/>
      <circle class="cls-35" cx="336.33" cy="597.24" r="2.5"/>
      <circle class="cls-35" cx="306.33" cy="627.24" r="2.5"/>
      <circle class="cls-35" cx="336.33" cy="657.24" r="2.5"/>
      <circle class="cls-35" cx="336.33" cy="627.24" r="1.12"/>
    </g>
    <g>
      <circle class="cls-35" cx="466.32" cy="627.24" r="2.5"/>
      <circle class="cls-35" cx="436.32" cy="597.24" r="2.5"/>
      <circle class="cls-35" cx="406.32" cy="627.24" r="2.5"/>
      <circle class="cls-35" cx="436.32" cy="657.24" r="2.5"/>
      <circle class="cls-35" cx="436.32" cy="627.24" r="1.12"/>
    </g>
    <polygon class="cls-35" points="175.82 626.33 190.77 626.33 190.77 623.17 195.98 627.24 190.77 631.32 190.77 628.15 175.82 628.15 175.82 626.33"/>
    <polygon class="cls-35" points="275.81 626.33 290.76 626.33 290.76 623.17 295.97 627.24 290.76 631.32 290.76 628.15 275.81 628.15 275.81 626.33"/>
    <path class="cls-35" d="m381.94,625.92v-2.34h10.54v2.34h-10.54Zm0,4.99v-2.34h10.54v2.34h-10.54Z"/>
    <path class="cls-43" d="m133.61,623.49c-.5,0-.92.39-.92.87v1.82h-22.28c-.49,0-.89.39-.89.85v.42c0,.46.4.85.89.85h22.28v1.82c0,.48.42.87.92.87s.91-.39.91-.87v-5.76c0-.48-.41-.87-.91-.87Z"/>
    <path class="cls-53" d="m132.58,629.96c0,.5.39.92.87.92h1.82v22.28c0,.49.39.89.85.89h.42c.46,0,.85-.4.85-.89v-22.28h1.82c.48,0,.87-.42.87-.92s-.39-.91-.87-.91h-5.76c-.48,0-.87.41-.87.91Z"/>
    <path class="cls-43" d="m310.43,630.99c.5,0,.92-.39.92-.87v-1.82h22.28c.49,0,.89-.39.89-.85v-.42c0-.46-.4-.85-.89-.85h-22.28v-1.82c0-.48-.42-.87-.92-.87s-.91.39-.91.87v5.76c0,.48.41.87.91.87Z"/>
    <path class="cls-53" d="m332.58,601.35c0,.5.39.92.87.92h1.82v22.28c0,.49.39.89.85.89h.42c.46,0,.85-.4.85-.89v-22.28h1.82c.48,0,.87-.42.87-.92s-.39-.91-.87-.91h-5.76c-.48,0-.87.41-.87.91Z"/>
    <path class="cls-43" d="m410.43,630.99c.5,0,.92-.39.92-.87v-1.82h22.28c.49,0,.89-.39.89-.85v-.42c0-.46-.4-.85-.89-.85h-22.28v-1.82c0-.48-.42-.87-.92-.87s-.91.39-.91.87v5.76c0,.48.41.87.91.87Z"/>
    <path class="cls-53" d="m432.57,601.34c0,.5.39.92.87.92h1.82v22.28c0,.49.39.89.85.89h.42c.46,0,.85-.4.85-.89v-22.28h1.82c.48,0,.87-.42.87-.92s-.39-.91-.87-.91h-5.76c-.48,0-.87.41-.87.91Z"/>
    <path class="cls-43" d="m530.07,601.34c0,.5.39.92.87.92h1.82v22.28c0,.49.39.89.85.89h.42c.46,0,.85-.4.85-.89v-22.28h1.82c.48,0,.87-.42.87-.92s-.39-.91-.87-.91h-5.76c-.48,0-.87.41-.87.91Z"/>
    <path class="cls-53" d="m535.07,601.34c0,.5.39.92.87.92h1.82v22.28c0,.49.39.89.85.89h.42c.46,0,.85-.4.85-.89v-22.28h1.82c.48,0,.87-.42.87-.92s-.39-.91-.87-.91h-5.76c-.48,0-.87.41-.87.91Z"/>
    <text class="cls-34" transform="translate(19.3 643.97)"><tspan x="0" y="0">“Lam-L</tspan><tspan class="cls-44" x="36.67" y="0">o</tspan><tspan x="42.61" y="0">w-One”</tspan></text>
    <text class="cls-34" transform="translate(131.78 590.96)"><tspan x="0" y="0">in</tspan></text>
    <text class="cls-34" transform="translate(328.29 590.96)"><tspan x="0" y="0">out</tspan></text>
    <path class="cls-35" d="m50,615.08c.12-.59,3.94-11.07,6.04-15.87.65-1.45,1.21-1.43,1.49-1.43s.84-.02,1.49,1.43c2.1,4.8,5.92,15.28,6.04,15.87.45,2-.16,2.31-.88,2.61-.57.25-1.72.04-2.23-1.39-.31-.84-4.41-11.72-4.41-11.72,0,0-4.1,10.87-4.41,11.72-.51,1.43-1.67,1.65-2.23,1.39-.72-.29-1.33-.61-.88-2.61Z"/>
    <g>
      <circle class="cls-35" cx="166.33" cy="527.24" r="2.5"/>
      <circle class="cls-35" cx="136.33" cy="497.24" r="2.5"/>
      <circle class="cls-35" cx="106.34" cy="527.24" r="2.5"/>
      <circle class="cls-35" cx="136.33" cy="557.24" r="2.5"/>
      <circle class="cls-35" cx="136.33" cy="527.24" r="1.12"/>
    </g>
    <g>
      <circle class="cls-35" cx="266.33" cy="527.24" r="2.5"/>
      <circle class="cls-35" cx="236.33" cy="497.24" r="2.5"/>
      <circle class="cls-35" cx="206.33" cy="527.24" r="2.5"/>
      <circle class="cls-35" cx="236.33" cy="557.24" r="2.5"/>
      <circle class="cls-35" cx="236.33" cy="527.24" r="1.12"/>
    </g>
    <g>
      <circle class="cls-35" cx="366.32" cy="527.24" r="2.5"/>
      <circle class="cls-35" cx="336.33" cy="497.24" r="2.5"/>
      <circle class="cls-35" cx="306.33" cy="527.24" r="2.5"/>
      <circle class="cls-35" cx="336.33" cy="557.24" r="2.5"/>
      <circle class="cls-35" cx="336.33" cy="527.24" r="1.12"/>
    </g>
    <g>
      <circle class="cls-35" cx="466.32" cy="527.24" r="2.5"/>
      <circle class="cls-35" cx="436.32" cy="497.24" r="2.5"/>
      <circle class="cls-35" cx="406.32" cy="527.24" r="2.5"/>
      <circle class="cls-35" cx="436.32" cy="557.24" r="2.5"/>
      <circle class="cls-35" cx="436.32" cy="527.24" r="1.12"/>
    </g>
    <g>
      <circle class="cls-35" cx="566.32" cy="627.24" r="2.5"/>
      <circle class="cls-35" cx="536.32" cy="597.24" r="2.5"/>
      <circle class="cls-35" cx="506.32" cy="627.24" r="2.5"/>
      <circle class="cls-35" cx="536.32" cy="657.24" r="2.5"/>
      <circle class="cls-35" cx="536.32" cy="627.24" r="1.12"/>
    </g>
    <g>
      <circle class="cls-35" cx="566.32" cy="527.24" r="2.5"/>
      <circle class="cls-35" cx="536.32" cy="497.24" r="2.5"/>
      <circle class="cls-35" cx="506.32" cy="527.24" r="2.5"/>
      <circle class="cls-35" cx="536.32" cy="557.24" r="2.5"/>
      <circle class="cls-35" cx="536.32" cy="527.24" r="1.12"/>
    </g>
    <polygon class="cls-35" points="175.82 526.33 190.77 526.33 190.77 523.17 195.98 527.24 190.77 531.32 190.77 528.15 175.82 528.15 175.82 526.33"/>
    <polygon class="cls-35" points="275.81 526.33 290.76 526.33 290.76 523.17 295.97 527.24 290.76 531.32 290.76 528.15 275.81 528.15 275.81 526.33"/>
    <path class="cls-35" d="m381.94,525.92v-2.34h10.54v2.34h-10.54Zm0,4.99v-2.34h10.54v2.34h-10.54Z"/>
    <path class="cls-43" d="m133.61,523.49c-.5,0-.92.39-.92.87v1.82h-22.28c-.49,0-.89.39-.89.85v.42c0,.46.4.85.89.85h22.28v1.82c0,.48.42.87.92.87s.91-.39.91-.87v-5.76c0-.48-.41-.87-.91-.87Z"/>
    <path class="cls-43" d="m218.27,515.65c0,.5.39.92.87.92h1.82v22.28c0,.49.39.89.85.89h.42c.46,0,.85-.4.85-.89v-22.28h1.82c.48,0,.87-.42.87-.92s-.39-.91-.87-.91h-5.76c-.48,0-.87.41-.87.91Z"/>
    <path class="cls-43" d="m225.77,638.83c0-.5-.39-.92-.87-.92h-1.82v-22.28c0-.49-.39-.89-.85-.89h-.42c-.46,0-.85.4-.85.89v22.28h-1.82c-.48,0-.87.42-.87.92s.39.91.87.91h5.76c.48,0,.87-.41.87-.91Z"/>
    <path class="cls-53" d="m132.58,529.96c0,.5.39.92.87.92h1.82v22.28c0,.49.39.89.85.89h.42c.46,0,.85-.4.85-.89v-22.28h1.82c.48,0,.87-.42.87-.92s-.39-.91-.87-.91h-5.76c-.48,0-.87.41-.87.91Z"/>
    <path class="cls-43" d="m310.43,530.99c.5,0,.92-.39.92-.87v-1.82h22.28c.49,0,.89-.39.89-.85v-.42c0-.46-.4-.85-.89-.85h-22.28v-1.82c0-.48-.42-.87-.92-.87s-.91.39-.91.87v5.76c0,.48.41.87.91.87Z"/>
    <path class="cls-53" d="m332.58,501.35c0,.5.39.92.87.92h1.82v22.28c0,.49.39.89.85.89h.42c.46,0,.85-.4.85-.89v-22.28h1.82c.48,0,.87-.42.87-.92s-.39-.91-.87-.91h-5.76c-.48,0-.87.41-.87.91Z"/>
    <path class="cls-43" d="m410.43,530.99c.5,0,.92-.39.92-.87v-1.82h22.28c.49,0,.89-.39.89-.85v-.42c0-.46-.4-.85-.89-.85h-22.28v-1.82c0-.48-.42-.87-.92-.87s-.91.39-.91.87v5.76c0,.48.41.87.91.87Z"/>
    <path class="cls-53" d="m432.57,501.34c0,.5.39.92.87.92h1.82v22.28c0,.49.39.89.85.89h.42c.46,0,.85-.4.85-.89v-22.28h1.82c.48,0,.87-.42.87-.92s-.39-.91-.87-.91h-5.76c-.48,0-.87.41-.87.91Z"/>
    <path class="cls-53" d="m532.57,501.34c0,.5.39.92.87.92h1.82v22.28c0,.49.39.89.85.89h.42c.46,0,.85-.4.85-.89v-22.28h1.82c.48,0,.87-.42.87-.92s-.39-.91-.87-.91h-5.76c-.48,0-.87.41-.87.91Z"/>
    <path class="cls-43" d="m540.07,553.14c0-.5-.39-.92-.87-.92h-1.82v-22.28c0-.49-.39-.89-.85-.89h-.42c-.46,0-.85.4-.85.89v22.28h-1.82c-.48,0-.87.42-.87.92s.39.91.87.91h5.76c.48,0,.87-.41.87-.91Z"/>
    <text class="cls-34" transform="translate(19.3 543.97)"><tspan x="0" y="0">“Lam-L</tspan><tspan class="cls-44" x="36.67" y="0">o</tspan><tspan x="42.61" y="0">w-One”</tspan></text>
    <text class="cls-34" transform="translate(131.78 490.96)"><tspan x="0" y="0">in</tspan></text>
    <text class="cls-34" transform="translate(328.29 490.96)"><tspan x="0" y="0">out</tspan></text>
    <path d="m74.61,518.08v1.69h-6v-1.69h1.96v-4.8h-1.96v-1.76l.66-.07c.46-.05.74-.05,1.41-.24.69-.19,1.17-.44,1.17-.44h.8v7.31h1.96Z"/>
    <path d="m74.61,618.08v1.69h-6v-1.69h1.96v-4.8h-1.96v-1.76l.66-.07c.46-.05.74-.05,1.41-.24.69-.19,1.17-.44,1.17-.44h.8v7.31h1.96Z"/>
    <path class="cls-35" d="m50,515.08c.12-.59,3.94-11.07,6.04-15.87.65-1.45,1.21-1.43,1.49-1.43s.84-.02,1.49,1.43c2.1,4.8,5.92,15.28,6.04,15.87.45,2-.16,2.31-.88,2.61-.57.25-1.72.04-2.23-1.39-.31-.84-4.41-11.72-4.41-11.72,0,0-4.1,10.87-4.41,11.72-.51,1.43-1.67,1.65-2.23,1.39-.72-.29-1.33-.61-.88-2.61Z"/>
    <path class="cls-53" d="m247.49,531.15c-.79-1.08-4.05-3.91-4.05-3.91,0,0-3.26,2.83-4.05,3.91-.59.82.5,1.87.5,1.87l2.62-2.58v11.72c0,1.32,1.86,1.32,1.86,0v-11.72s2.62,2.58,2.62,2.58c0,0,1.09-1.05.5-1.87Z"/>
    <path class="cls-53" d="m347.1,513.43c-.79-1.08-4.05-3.91-4.05-3.91,0,0-3.26,2.83-4.05,3.91-.59.82.5,1.87.5,1.87l2.62-2.58v11.72c0,1.32,1.86,1.32,1.86,0v-11.72s2.62,2.58,2.62,2.58c0,0,1.09-1.05.5-1.87Z"/>
    <path class="cls-53" d="m447.1,513.69c-.79-1.08-4.05-3.91-4.05-3.91,0,0-3.26,2.83-4.05,3.91-.59.82.5,1.87.5,1.87l2.62-2.58v30.74c0,1.32,1.86,1.32,1.86,0v-30.74s2.62,2.58,2.62,2.58c0,0,1.09-1.05.5-1.87Z"/>
    <path class="cls-53" d="m247.49,631.15c-.79-1.08-4.05-3.91-4.05-3.91,0,0-3.26,2.83-4.05,3.91-.59.82.5,1.87.5,1.87l2.62-2.58v11.72c0,1.32,1.86,1.32,1.86,0v-11.72s2.62,2.58,2.62,2.58c0,0,1.09-1.05.5-1.87Z"/>
    <path class="cls-53" d="m347.1,613.43c-.79-1.08-4.05-3.91-4.05-3.91,0,0-3.26,2.83-4.05,3.91-.59.82.5,1.87.5,1.87l2.62-2.58v11.72c0,1.32,1.86,1.32,1.86,0v-11.72s2.62,2.58,2.62,2.58c0,0,1.09-1.05.5-1.87Z"/>
    <path class="cls-53" d="m447.1,613.69c-.79-1.08-4.05-3.91-4.05-3.91,0,0-3.26,2.83-4.05,3.91-.59.82.5,1.87.5,1.87l2.62-2.58v30.74c0,1.32,1.86,1.32,1.86,0v-30.74s2.62,2.58,2.62,2.58c0,0,1.09-1.05.5-1.87Z"/>
    <path class="cls-43" d="m432.77,533.78l-1.68-2.34c-1.3,11.23-16.22,11.41-18.14-1.42-.19-1.28,1.46-1.56,1.66-.17,1.49,10.54,13.74,11.18,15.03,1.37l-2.31,1.72s-.71-.93-.16-1.48c.76-.76,3.31-2.36,3.57-2.52.19.23,2.14,2.53,2.64,3.48.35.69-.61,1.36-.61,1.36Z"/>
    <path class="cls-43" d="m411.37,634.07l1.68-2.34c1.3,11.23,16.22,11.41,18.14-1.42.19-1.28-1.46-1.56-1.66-.17-1.49,10.54-13.74,11.18-15.03,1.37l2.31,1.72s.71-.93.16-1.48c-.76-.76-3.31-2.36-3.57-2.52-.19.23-2.14,2.53-2.64,3.48-.35.69.61,1.36.61,1.36Z"/>
    <path class="cls-43" d="m217.41,540.57c-5.08.04-9.67-2.96-9.67-9.44,0-1.09,1.52-1.23,1.55,0,0,6.09,4.15,8.1,8.12,8.01l-2.05-2.02s.82-.84,1.44-.38c.87.63,2.84,2.91,3.04,3.14-.2.22-2.17,2.5-3.04,3.14-.63.45-1.44-.39-1.44-.39l2.05-2.06Z"/>
    <path class="cls-43" d="m224.16,644.01c5.08.04,9.67-2.96,9.67-9.44,0-1.09-1.52-1.23-1.55,0,0,6.09-4.15,8.1-8.12,8.01l2.05-2.02s-.82-.84-1.44-.38c-.87.63-2.84,2.91-3.04,3.14.2.22,2.17,2.5,3.04,3.14.63.45,1.44-.39,1.44-.39l-2.05-2.06Z"/>
    <path class="cls-43" d="m311.33,633.09c-.04,5.08,2.96,9.67,9.44,9.67,1.09,0,1.23-1.52,0-1.55-6.09,0-8.1-4.15-8.01-8.12l2.02,2.05s.84-.82.38-1.44c-.63-.87-2.91-2.84-3.14-3.04-.22.2-2.5,2.17-3.14,3.04-.45.63.39,1.44.39,1.44l2.06-2.05Z"/>
    <path class="cls-43" d="m334.87,531.29c.04,5.08-2.96,9.67-9.44,9.67-1.09,0-1.23-1.52,0-1.55,6.09,0,8.1-4.15,8.01-8.12l-2.02,2.05s-.84-.82-.38-1.44c.63-.87,2.91-2.84,3.14-3.04.22.2,2.5,2.17,3.14,3.04.45.63-.39,1.44-.39,1.44l-2.06-2.05Z"/>
    <g>
      <line class="cls-3" x1="22.05" y1="578.91" x2="567.7" y2="578.91"/>
      <line class="cls-2" x1="487.08" y1="502.54" x2="487.08" y2="675.1"/>
    </g>
    <path class="cls-43" d="m506.71,531.98c0,11.89,9.57,22.68,21.38,22.72l-2.65,2.41s1.01,1.11,1.85.54c.95-.65,4.08-3.93,4.08-3.93,0,0-2.66-3.32-3.8-4.21-.81-.63-1.89.43-1.89.43l2.61,2.78c-8.93-.03-18.79-7.32-19.5-20.74-.08-1.57-2.09-1.62-2.08,0Z"/>
    <path class="cls-43" d="m505.76,619.68c0-11.89,9.57-22.68,21.38-22.72l-2.65-2.41s1.01-1.11,1.85-.54c.95.65,4.08,3.93,4.08,3.93,0,0-2.66,3.32-3.8,4.21-.81.63-1.89-.43-1.89-.43l2.61-2.78c-8.93.03-18.79,7.32-19.5,20.74-.08,1.57-2.09,1.62-2.08,0Z"/>
  </g>
  <g>
    <path class="cls-53" d="m433.09,212.76s.85,4.45.82,5.61c-.02,1.02-1.52,1.19-1.52,1.19l-.38-3.28c-9.22,13.13-9.78,34.35,1.61,47.44.48.55.31,1.53-.13,1.85-.25.21-1.07.53-1.68-.25-6.07-7.77-9.1-16.49-9.1-26.03,0-8.38,2.76-17.6,7.41-24.52l-3.43.42s-.23-1.5.74-1.79c1.4-.41,5.65-.64,5.65-.64Z"/>
    <path class="cls-53" d="m224.83,339.87c.5,0,.92-.39.92-.87v-1.82h22.28c.49,0,.89-.39.89-.85v-.42c0-.46-.4-.85-.89-.85h-22.28v-1.82c0-.48-.42-.87-.92-.87s-.91.39-.91.87v5.76c0,.48.41.87.91.87Z"/>
    <g>
      <circle class="cls-35" cx="166.42" cy="338.62" r="2.5"/>
      <circle class="cls-35" cx="136.42" cy="308.62" r="2.5"/>
      <circle class="cls-35" cx="106.42" cy="338.62" r="2.5"/>
      <circle class="cls-35" cx="136.42" cy="368.62" r="2.5"/>
      <circle class="cls-35" cx="136.42" cy="338.62" r="1.12"/>
    </g>
    <g>
      <circle class="cls-35" cx="266.42" cy="338.62" r="2.5"/>
      <circle class="cls-35" cx="236.42" cy="308.62" r="2.5"/>
      <circle class="cls-35" cx="206.42" cy="338.62" r="2.5"/>
      <circle class="cls-35" cx="236.42" cy="368.62" r="2.5"/>
      <circle class="cls-35" cx="236.42" cy="338.62" r="1.12"/>
    </g>
    <g>
      <circle class="cls-35" cx="366.41" cy="338.62" r="2.5"/>
      <circle class="cls-35" cx="336.41" cy="308.62" r="2.5"/>
      <circle class="cls-35" cx="306.41" cy="338.62" r="2.5"/>
      <circle class="cls-35" cx="336.41" cy="368.62" r="2.5"/>
      <circle class="cls-35" cx="336.41" cy="338.62" r="1.12"/>
    </g>
    <g>
      <circle class="cls-35" cx="466.41" cy="338.62" r="2.5"/>
      <circle class="cls-35" cx="436.41" cy="308.62" r="2.5"/>
      <circle class="cls-35" cx="406.41" cy="338.62" r="2.5"/>
      <circle class="cls-35" cx="436.41" cy="368.62" r="2.5"/>
      <circle class="cls-35" cx="436.41" cy="338.62" r="1.12"/>
    </g>
    <g>
      <circle class="cls-35" cx="566.41" cy="338.62" r="2.5"/>
      <circle class="cls-35" cx="536.41" cy="308.62" r="2.5"/>
      <circle class="cls-35" cx="506.41" cy="338.62" r="2.5"/>
      <circle class="cls-35" cx="536.41" cy="368.62" r="2.5"/>
      <circle class="cls-35" cx="536.41" cy="338.62" r="1.12"/>
    </g>
    <polygon class="cls-35" points="175.91 337.71 190.85 337.71 190.85 334.55 196.06 338.62 190.85 342.7 190.85 339.53 175.91 339.53 175.91 337.71"/>
    <polygon class="cls-35" points="275.9 337.71 290.85 337.71 290.85 334.55 296.06 338.62 290.85 342.7 290.85 339.53 275.9 339.53 275.9 337.71"/>
    <path class="cls-35" d="m382.02,337.3v-2.34h10.54v2.34h-10.54Zm0,4.99v-2.34h10.54v2.34h-10.54Z"/>
    <path class="cls-43" d="m133.7,334.87c-.5,0-.92.39-.92.87v1.82h-22.28c-.49,0-.89.39-.89.85v.42c0,.46.4.85.89.85h22.28v1.82c0,.48.42.87.92.87s.91-.39.91-.87v-5.76c0-.48-.41-.87-.91-.87Z"/>
    <path class="cls-53" d="m132.67,341.34c0,.5.39.92.87.92h1.82v22.28c0,.49.39.89.85.89h.42c.46,0,.85-.4.85-.89v-22.28h1.82c.48,0,.87-.42.87-.92s-.39-.91-.87-.91h-5.76c-.48,0-.87.41-.87.91Z"/>
    <path class="cls-43" d="m233.7,337.37c-.5,0-.92.39-.92.87v1.82h-22.28c-.49,0-.89.39-.89.85v.42c0,.46.4.85.89.85h22.28v1.82c0,.48.42.87.92.87s.91-.39.91-.87v-5.76c0-.48-.41-.87-.91-.87Z"/>
    <path class="cls-43" d="m333.7,334.87c-.5,0-.92.39-.92.87v1.82h-22.28c-.49,0-.89.39-.89.85v.42c0,.46.4.85.89.85h22.28v1.82c0,.48.42.87.92.87s.91-.39.91-.87v-5.76c0-.48-.41-.87-.91-.87Z"/>
    <path class="cls-53" d="m340.16,335.91c0-.5-.39-.92-.87-.92h-1.82v-22.28c0-.49-.39-.89-.85-.89h-.42c-.46,0-.85.4-.85.89v22.28h-1.82c-.48,0-.87.42-.87.92,0,.5.39.91.87.91h5.76c.48,0,.87-.41.87-.91Z"/>
    <path class="cls-43" d="m433.7,334.87c-.5,0-.92.39-.92.87v1.82h-22.28c-.49,0-.89.39-.89.85v.42c0,.46.4.85.89.85h22.28v1.82c0,.48.42.87.92.87s.91-.39.91-.87v-5.76c0-.48-.41-.87-.91-.87Z"/>
    <path class="cls-53" d="m533.69,332.35c-.5,0-.92.39-.92.87v1.82h-22.28c-.49,0-.89.39-.89.85v.42c0,.46.4.85.89.85h22.28v1.82c0,.48.42.87.92.87s.91-.39.91-.87v-5.76c0-.48-.41-.87-.91-.87Z"/>
    <path class="cls-43" d="m533.69,337.35c-.5,0-.92.39-.92.87v1.82h-22.28c-.49,0-.89.39-.89.85v.42c0,.46.4.85.89.85h22.28v1.82c0,.48.42.87.92.87s.91-.39.91-.87v-5.76c0-.48-.41-.87-.91-.87Z"/>
    <path class="cls-53" d="m440.16,335.91c0-.5-.39-.92-.87-.92h-1.82v-22.28c0-.49-.39-.89-.85-.89h-.42c-.46,0-.85.4-.85.89v22.28h-1.82c-.48,0-.87.42-.87.92,0,.5.39.91.87.91h5.76c.48,0,.87-.41.87-.91Z"/>
    <text class="cls-34" transform="translate(17.41 349.35)"><tspan x="0" y="0">“Lam-High-One”</tspan></text>
    <text class="cls-34" transform="translate(124.67 190.32)"><tspan x="0" y="0">s</tspan><tspan class="cls-51" x="4.58" y="0">t</tspan><tspan x="8.64" y="0">art</tspan></text>
    <text class="cls-34" transform="translate(216.51 190.32)"><tspan x="0" y="0">hal</tspan><tspan class="cls-1" x="15.87" y="0">f</tspan><tspan class="cls-47" x="19.62" y="0">wa</tspan><tspan x="34.54" y="0">y</tspan></text>
    <text class="cls-34" transform="translate(326.98 190.32)"><tspan x="0" y="0">end</tspan></text>
    <text class="cls-34" transform="translate(131.87 302.34)"><tspan x="0" y="0">in</tspan></text>
    <text class="cls-34" transform="translate(84.61 202.7)"><tspan x="0" y="0">thumbs:</tspan></text>
    <text class="cls-29" transform="translate(549.25 306.58)"><tspan x="0" y="0">C</tspan><tspan class="cls-46" x="6.11" y="0">L</tspan><tspan x="11.66" y="0">OSING</tspan></text>
    <text class="cls-34" transform="translate(39.11 361.61)"><tspan x="0" y="0">C</tspan><tspan class="cls-46" x="5.64" y="0">L</tspan><tspan x="10.76" y="0">OSING</tspan></text>
    <text class="cls-29" transform="translate(546.93 203.23)"><tspan x="0" y="0">OPENING</tspan></text>
    <text class="cls-34" transform="translate(37.59 261.61)"><tspan x="0" y="0">OPENING</tspan></text>
    <text class="cls-34" transform="translate(331.86 302.34)"><tspan x="0" y="0">in</tspan></text>
    <path d="m73.06,314.46v1.69h-6v-1.69h1.96v-4.8h-1.96v-1.76l.66-.07c.46-.05.74-.05,1.41-.24.69-.19,1.17-.44,1.17-.44h.8v7.31h1.96Z"/>
    <path class="cls-53" d="m439.73,312.09s-.85,4.45-.82,5.61c.02,1.02,1.52,1.19,1.52,1.19l.38-3.28c9.22,13.13,9.78,34.35-1.61,47.44-.48.55-.31,1.53.13,1.85.25.21,1.07.53,1.68-.25,6.07-7.77,9.1-16.49,9.1-26.03,0-8.38-2.76-17.6-7.41-24.52l3.43.42s.23-1.5-.74-1.79c-1.4-.41-5.65-.64-5.65-.64Z"/>
    <path d="m445.6,377.78v.85h-3v-.85h.98v-2.4h-.98v-.88l.33-.03c.23-.02.37-.03.71-.12s.58-.22.58-.22h.4v3.65h.98Z"/>
    <path class="cls-35" d="m50.08,326.46c.12-.59,3.94-11.07,6.04-15.87.65-1.45,1.21-1.43,1.49-1.43s.84-.02,1.49,1.43c2.1,4.8,5.92,15.28,6.04,15.87.45,2-.16,2.31-.88,2.61-.57.25-1.72.04-2.23-1.39-.31-.84-4.41-11.72-4.41-11.72,0,0-4.1,10.87-4.41,11.72-.51,1.43-1.67,1.65-2.23,1.39-.72-.29-1.33-.61-.88-2.61Z"/>
    <text class="cls-36" transform="translate(498.98 183.94)"><tspan class="cls-50" x="0" y="0">C</tspan><tspan x="7.52" y="0">ontinuation</tspan></text>
    <path class="cls-53" d="m248.01,244.81c-.5,0-.92-.39-.92-.87v-1.82h-22.28c-.49,0-.89-.39-.89-.85v-.42c0-.46.4-.85.89-.85h22.28v-1.82c0-.48.42-.87.92-.87s.91.39.91.87v5.76c0,.48-.41.87-.91.87Z"/>
    <g>
      <circle class="cls-35" cx="166.42" cy="238.62" r="2.5"/>
      <circle class="cls-35" cx="136.42" cy="208.62" r="2.5"/>
      <circle class="cls-35" cx="106.42" cy="238.62" r="2.5"/>
      <circle class="cls-35" cx="136.42" cy="268.62" r="2.5"/>
      <circle class="cls-35" cx="136.42" cy="238.62" r="1.12"/>
    </g>
    <g>
      <circle class="cls-35" cx="266.42" cy="238.62" r="2.5"/>
      <circle class="cls-35" cx="236.42" cy="208.62" r="2.5"/>
      <circle class="cls-35" cx="206.42" cy="238.62" r="2.5"/>
      <circle class="cls-35" cx="236.42" cy="268.62" r="2.5"/>
      <circle class="cls-35" cx="236.42" cy="238.62" r="1.12"/>
    </g>
    <g>
      <circle class="cls-35" cx="366.41" cy="238.62" r="2.5"/>
      <circle class="cls-35" cx="336.41" cy="208.62" r="2.5"/>
      <circle class="cls-35" cx="306.41" cy="238.62" r="2.5"/>
      <circle class="cls-35" cx="336.41" cy="268.62" r="2.5"/>
      <circle class="cls-35" cx="336.41" cy="238.62" r="1.12"/>
    </g>
    <g>
      <circle class="cls-35" cx="466.41" cy="238.62" r="2.5"/>
      <circle class="cls-35" cx="436.41" cy="208.62" r="2.5"/>
      <circle class="cls-35" cx="406.41" cy="238.62" r="2.5"/>
      <circle class="cls-35" cx="436.41" cy="268.62" r="2.5"/>
      <circle class="cls-35" cx="436.41" cy="238.62" r="1.12"/>
    </g>
    <g>
      <circle class="cls-35" cx="566.41" cy="238.62" r="2.5"/>
      <circle class="cls-35" cx="536.41" cy="208.62" r="2.5"/>
      <circle class="cls-35" cx="506.41" cy="238.62" r="2.5"/>
      <circle class="cls-35" cx="536.41" cy="268.62" r="2.5"/>
      <circle class="cls-35" cx="536.41" cy="238.62" r="1.12"/>
    </g>
    <polygon class="cls-35" points="175.91 237.71 190.85 237.71 190.85 234.55 196.06 238.62 190.85 242.7 190.85 239.53 175.91 239.53 175.91 237.71"/>
    <polygon class="cls-35" points="275.9 237.71 290.85 237.71 290.85 234.55 296.06 238.62 290.85 242.7 290.85 239.53 275.9 239.53 275.9 237.71"/>
    <path class="cls-35" d="m382.02,237.3v-2.34h10.54v2.34h-10.54Zm0,4.99v-2.34h10.54v2.34h-10.54Z"/>
    <path class="cls-43" d="m133.7,234.87c-.5,0-.92.39-.92.87v1.82h-22.28c-.49,0-.89.39-.89.85v.42c0,.46.4.85.89.85h22.28v1.82c0,.48.42.87.92.87s.91-.39.91-.87v-5.76c0-.48-.41-.87-.91-.87Z"/>
    <path class="cls-53" d="m132.67,241.34c0,.5.39.92.87.92h1.82v22.28c0,.49.39.89.85.89h.42c.46,0,.85-.4.85-.89v-22.28h1.82c.48,0,.87-.42.87-.92s-.39-.91-.87-.91h-5.76c-.48,0-.87.41-.87.91Z"/>
    <path class="cls-43" d="m233.7,232.44c-.5,0-.92.39-.92.87v1.82h-22.28c-.49,0-.89.39-.89.85v.42c0,.46.4.85.89.85h22.28v1.82c0,.48.42.87.92.87s.91-.39.91-.87v-5.76c0-.48-.41-.87-.91-.87Z"/>
    <path class="cls-43" d="m333.7,234.87c-.5,0-.92.39-.92.87v1.82h-22.28c-.49,0-.89.39-.89.85v.42c0,.46.4.85.89.85h22.28v1.82c0,.48.42.87.92.87s.91-.39.91-.87v-5.76c0-.48-.41-.87-.91-.87Z"/>
    <path class="cls-53" d="m340.16,235.91c0-.5-.39-.92-.87-.92h-1.82v-22.28c0-.49-.39-.89-.85-.89h-.42c-.46,0-.85.4-.85.89v22.28h-1.82c-.48,0-.87.42-.87.92,0,.5.39.91.87.91h5.76c.48,0,.87-.41.87-.91Z"/>
    <path class="cls-43" d="m433.7,234.87c-.5,0-.92.39-.92.87v1.82h-22.28c-.49,0-.89.39-.89.85v.42c0,.46.4.85.89.85h22.28v1.82c0,.48.42.87.92.87s.91-.39.91-.87v-5.76c0-.48-.41-.87-.91-.87Z"/>
    <path class="cls-43" d="m533.7,234.87c-.5,0-.92.39-.92.87v1.82h-22.28c-.49,0-.89.39-.89.85v.42c0,.46.4.85.89.85h22.28v1.82c0,.48.42.87.92.87s.91-.39.91-.87v-5.76c0-.48-.41-.87-.91-.87Z"/>
    <path class="cls-53" d="m539.12,242.37c.5,0,.92-.39.92-.87v-1.82h22.28c.49,0,.89-.39.89-.85v-.42c0-.46-.4-.85-.89-.85h-22.28v-1.82c0-.48-.42-.87-.92-.87s-.91.39-.91.87v5.76c0,.48.41.87.91.87Z"/>
    <path class="cls-53" d="m440.16,235.91c0-.5-.39-.92-.87-.92h-1.82v-22.28c0-.49-.39-.89-.85-.89h-.42c-.46,0-.85.4-.85.89v22.28h-1.82c-.48,0-.87.42-.87.92,0,.5.39.91.87.91h5.76c.48,0,.87-.41.87-.91Z"/>
    <text class="cls-34" transform="translate(17.41 249.35)"><tspan x="0" y="0">“Lam-High-One”</tspan></text>
    <text class="cls-34" transform="translate(131.87 202.34)"><tspan x="0" y="0">in</tspan></text>
    <text class="cls-34" transform="translate(331.86 202.34)"><tspan x="0" y="0">in</tspan></text>
    <path d="m73.06,214.46v1.69h-6v-1.69h1.96v-4.8h-1.96v-1.76l.66-.07c.46-.05.74-.05,1.41-.24.69-.19,1.17-.44,1.17-.44h.8v7.31h1.96Z"/>
    <path d="m444.7,277.78v.85h-3v-.85h.98v-2.4h-.98v-.88l.33-.03c.23-.02.37-.03.71-.12s.58-.22.58-.22h.4v3.65h.98Z"/>
    <path class="cls-35" d="m50.08,226.46c.12-.59,3.94-11.07,6.04-15.87.65-1.45,1.21-1.43,1.49-1.43s.84-.02,1.49,1.43c2.1,4.8,5.92,15.28,6.04,15.87.45,2-.16,2.31-.88,2.61-.57.25-1.72.04-2.23-1.39-.31-.84-4.41-11.72-4.41-11.72,0,0-4.1,10.87-4.41,11.72-.51,1.43-1.67,1.65-2.23,1.39-.72-.29-1.33-.61-.88-2.61Z"/>
    <path class="cls-35" d="m432.65,283.77c.06-.29,1.97-5.54,3.02-7.94.32-.73.61-.72.74-.72s.42,0,.74.72c1.05,2.4,2.96,7.64,3.02,7.94.23,1-.08,1.16-.44,1.3-.28.13-.86.02-1.12-.7-.16-.42-2.2-5.86-2.2-5.86,0,0-2.05,5.44-2.2,5.86-.25.72-.83.82-1.12.7-.36-.15-.67-.3-.44-1.3Z"/>
    <path class="cls-35" d="m432.65,383.77c.06-.29,1.97-5.54,3.02-7.94.32-.73.61-.72.74-.72s.42,0,.74.72c1.05,2.4,2.96,7.64,3.02,7.94.23,1-.08,1.16-.44,1.3-.28.13-.86.02-1.12-.7-.16-.42-2.2-5.86-2.2-5.86,0,0-2.05,5.44-2.2,5.86-.25.72-.83.82-1.12.7-.36-.15-.67-.3-.44-1.3Z"/>
    <path class="cls-53" d="m531.19,308.62c-11.89,0-22.68,9.57-22.72,21.38l-2.41-2.65s-1.11,1.01-.54,1.85c.65.95,3.93,4.08,3.93,4.08,0,0,3.32-2.66,4.21-3.8.63-.81-.43-1.89-.43-1.89l-2.78,2.61c.03-8.93,7.32-18.79,20.74-19.5,1.57-.08,1.62-2.09,0-2.08Z"/>
    <path class="cls-53" d="m541.11,210.81c11.89,0,22.68,9.57,22.72,21.38l2.41-2.65s1.11,1.01.54,1.85c-.65.95-3.93,4.08-3.93,4.08,0,0-3.32-2.66-4.21-3.8-.63-.81.43-1.89.43-1.89l2.78,2.61c-.03-8.93-7.32-18.79-20.74-19.5-1.57-.08-1.62-2.09,0-2.08Z"/>
    <path class="cls-35" d="m539.75,376.37l-4.37,8.3c-.15.29-.45.46-.75.46-.13,0-.26-.04-.39-.1-.2-.11-.35-.28-.42-.5-.07-.21-.05-.45.06-.65l1.88-3.58-2.53-3.62c-.12-.11-.2-.27-.24-.47-.05-.25.03-.53.2-.71.15-.17.35-.27.58-.28.22,0,.45.07.61.21l2.2,3.29,1.65-3.14c.12-.2.29-.35.51-.42.22-.07.45-.04.65.07.22.12.38.33.43.59.03.19,0,.38-.08.55Z"/>
    <path class="cls-35" d="m541.57,275.13c-.46-.06-.96.28-1.19,1.14-.42,1.54-.92,3.7-1.44,5.63-1.11-2.72-1.86-4.39-2.5-4.38-.01,0-.02,0-.03.01-.01-.01-.02-.01-.03-.01-.64-.01-1.39,1.65-2.5,4.38-.51-1.93-1.02-4.09-1.44-5.63-.24-.86-.73-1.2-1.19-1.14-.59.07-.98.49-.74,1.25.25.81,1.84,6.07,2.3,7.72.47,1.65,1.59.9,1.8.49.21-.41,1.36-3.67,1.8-4.59.44.92,1.59,4.18,1.8,4.59.21.41,1.33,1.16,1.8-.49.46-1.64,2.05-6.9,2.3-7.72.24-.76-.15-1.18-.74-1.25Z"/>
    <g>
      <line class="cls-3" x1="23.26" y1="290.9" x2="568.91" y2="290.9"/>
      <line class="cls-2" x1="488.29" y1="177.62" x2="488.29" y2="387.08"/>
    </g>
    <path class="cls-53" d="m219.52,248.05l2.46-2.42c.04,11.61,4.79,18.64,8.98,23.06,1.25,1.32,2.87-.29,1.66-1.57-4.3-4.58-8.38-9.89-8.53-21.56l2.53,2.49s1.09-1.05.5-1.87c-.79-1.08-4.05-3.91-4.05-3.91,0,0-3.26,2.83-4.05,3.91-.59.82.5,1.87.5,1.87Z"/>
    <path class="cls-53" d="m251.07,344.11l-2.46-2.42c-.04,11.61-4.79,18.64-8.98,23.06-1.25,1.32-2.87-.29-1.66-1.57,4.3-4.58,8.38-9.89,8.53-21.56l-2.53,2.49s-1.09-1.05-.5-1.87c.79-1.08,4.05-3.91,4.05-3.91,0,0,3.26,2.83,4.05,3.91.59.82-.5,1.87-.5,1.87Z"/>
    <path class="cls-53" d="m345.68,312.87l-3.45.03c8.18,8.24,9.79,16.57,9.96,22.66.05,1.82-2.23,1.82-2.28.06-.2-6.28-1.07-12.92-9.21-21.28l-.03,3.55s-1.51.03-1.68-.97c-.21-1.32.1-5.63.1-5.63,0,0,4.31-.3,5.63-.1,1,.16.97,1.68.97,1.68Z"/>
    <path class="cls-53" d="m326.78,212.87l3.45.03c-8.18,8.24-9.79,16.57-9.96,22.66-.05,1.82,2.23,1.82,2.28.06.2-6.28,1.07-12.92,9.21-21.28l.03,3.55s1.51.03,1.68-.97c.21-1.32-.1-5.63-.1-5.63,0,0-4.31-.3-5.63-.1-1,.16-.97,1.68-.97,1.68Z"/>
  </g>
  <line class="cls-2" y1="750.12" x2="612" y2="750.12"/>
</svg>