<?xml version="1.0" encoding="UTF-8"?>
<svg id="Layer_1" data-name="Layer 1" xmlns="http://www.w3.org/2000/svg" viewBox="0 0 612 792">
  <defs>
    <style>
      .cls-1 {
        letter-spacing: .02em;
      }

      .cls-2, .cls-3 {
        fill: none;
        stroke: #231f20;
        stroke-miterlimit: 10;
      }

      .cls-4 {
        letter-spacing: -.01em;
      }

      .cls-5, .cls-6, .cls-7, .cls-8, .cls-9, .cls-10, .cls-11, .cls-12, .cls-13, .cls-14, .cls-15 {
        fill: #231f20;
      }

      .cls-5, .cls-9, .cls-10 {
        font-size: 16px;
      }

      .cls-6, .cls-16, .cls-17, .cls-12, .cls-18, .cls-15 {
        font-family: Cambria-BoldItalic, Cambria;
        font-weight: 700;
      }

      .cls-6, .cls-7, .cls-19, .cls-20, .cls-10, .cls-21, .cls-13, .cls-15 {
        font-style: italic;
      }

      .cls-6, .cls-13 {
        font-size: 12px;
      }

      .cls-16, .cls-17, .cls-18 {
        fill: #f26522;
      }

      .cls-17, .cls-22 {
        letter-spacing: 0em;
      }

      .cls-7 {
        font-size: 13px;
      }

      .cls-7, .cls-20, .cls-10, .cls-21, .cls-11, .cls-13 {
        font-family: Cambria-Italic, Cambria;
      }

      .cls-8 {
        font-size: 18px;
      }

      .cls-8, .cls-9, .cls-23, .cls-24, .cls-25 {
        font-family: Cambria, Cambria;
      }

      .cls-26 {
        fill: #2e3192;
      }

      .cls-27 {
        letter-spacing: -.01em;
      }

      .cls-28 {
        letter-spacing: -.08em;
      }

      .cls-19 {
        font-size: 35px;
      }

      .cls-29 {
        letter-spacing: 0em;
      }

      .cls-23 {
        letter-spacing: -.02em;
      }

      .cls-30 {
        letter-spacing: -.1em;
      }

      .cls-21, .cls-31 {
        letter-spacing: 0em;
      }

      .cls-32 {
        letter-spacing: -.02em;
      }

      .cls-24, .cls-33 {
        letter-spacing: -.01em;
      }

      .cls-34, .cls-18 {
        letter-spacing: 0em;
      }

      .cls-35 {
        letter-spacing: -.02em;
      }

      .cls-36 {
        fill: #ed1c24;
      }

      .cls-37 {
        letter-spacing: -.11em;
      }

      .cls-38 {
        letter-spacing: 0em;
      }

      .cls-39 {
        letter-spacing: .01em;
      }

      .cls-3 {
        stroke-width: .5px;
      }

      .cls-40 {
        letter-spacing: -.01em;
      }

      .cls-41 {
        letter-spacing: -.02em;
      }

      .cls-15 {
        font-size: 14px;
      }
    </style>
  </defs>
  <text class="cls-5" transform="translate(244.23 378.45)"><tspan class="cls-25"><tspan x="0" y="0">Ea</tspan><tspan class="cls-22" x="17.02" y="0">s</tspan><tspan x="23.77" y="0">y pea</tspan><tspan class="cls-22" x="59.88" y="0">s</tspan><tspan class="cls-28" x="66.63" y="0">y</tspan><tspan x="73.37" y="0">, ri</tspan><tspan class="cls-34" x="91.23" y="0">g</tspan><tspan x="99.03" y="0">ht?</tspan></tspan><tspan class="cls-25"><tspan x="-202.81" y="19.2">No</tspan><tspan class="cls-29" x="-183.43" y="19.2">t</tspan><tspan x="-178.16" y="19.2">e that the ar</tspan><tspan class="cls-33" x="-95.84" y="19.2">r</tspan><tspan class="cls-31" x="-89.45" y="19.2">o</tspan><tspan x="-81.04" y="19.2">w can </tspan><tspan class="cls-27" x="-37.8" y="19.2">f</tspan><tspan x="-33.16" y="19.2">oll</tspan><tspan class="cls-31" x="-15.98" y="19.2">o</tspan><tspan x="-7.56" y="19.2">w the path of either the thumb end or pinky end.</tspan></tspan><tspan class="cls-25"><tspan x="-88.66" y="38.4">The optimal placement depends on con</tspan><tspan class="cls-29" x="179.13" y="38.4">t</tspan><tspan class="cls-4" x="184.41" y="38.4">e</tspan><tspan x="192.02" y="38.4">x</tspan><tspan class="cls-39" x="199.76" y="38.4">t</tspan><tspan x="205.41" y="38.4">.</tspan></tspan><tspan class="cls-25" x="-98.09" y="76.8">Γ¹ also p</tspan><tspan class="cls-24" x="-39.52" y="76.8">r</tspan><tspan class="cls-25" x="-33.14" y="76.8">esents </tspan><tspan class="cls-23" x="14.09" y="76.8">v</tspan><tspan class="cls-25" x="21.8" y="76.8">ariations on </tspan><tspan class="cls-20" x="107.12" y="76.8">opening/</tspan><tspan class="cls-21" x="168.24" y="76.8">c</tspan><tspan class="cls-20" x="175.09" y="76.8">losing</tspan><tspan class="cls-25" x="214.84" y="76.8">.</tspan></text>
  <text class="cls-9" transform="translate(121.19 82.61)"><tspan x="0" y="0">Final</tspan><tspan class="cls-41" x="34.12" y="0">l</tspan><tspan class="cls-28" x="38.14" y="0">y</tspan><tspan x="44.88" y="0">, </tspan><tspan class="cls-32" x="51.68" y="0">T</tspan><tspan x="60.77" y="0">ype 6 let</tspan><tspan class="cls-29" x="119.01" y="0">t</tspan><tspan x="124.28" y="0">ers h</tspan><tspan class="cls-35" x="157.93" y="0">av</tspan><tspan x="173.18" y="0">e both hands </tspan><tspan class="cls-33" x="264.37" y="0">r</tspan><tspan x="270.75" y="0">emaining static.</tspan><tspan x="-99.88" y="19.2">Both types a</tspan><tspan class="cls-33" x="-15.45" y="19.2">r</tspan><tspan x="-9.06" y="19.2">e the same (static|static), so the number goes in the hi</tspan><tspan class="cls-34" x="357.87" y="19.2">g</tspan><tspan x="365.66" y="19.2">h slot </tspan><tspan class="cls-33" x="406.66" y="19.2">b</tspan><tspan x="415.19" y="19.2">y de</tspan><tspan class="cls-4" x="443.45" y="19.2">f</tspan><tspan x="448.11" y="19.2">aul</tspan><tspan class="cls-39" x="469.1" y="19.2">t</tspan><tspan x="474.75" y="19.2">.</tspan></text>
  <text class="cls-9" transform="translate(146.95 734.43)"><tspan x="0" y="0">These static sin</tspan><tspan class="cls-34" x="105.11" y="0">g</tspan><tspan x="112.91" y="0">le-turns a</tspan><tspan class="cls-33" x="178.38" y="0">r</tspan><tspan x="184.76" y="0">e </tspan><tspan class="cls-33" x="196.09" y="0">r</tspan><tspan x="202.47" y="0">elat</tspan><tspan class="cls-41" x="227.84" y="0">i</tspan><tspan class="cls-35" x="231.97" y="0">v</tspan><tspan x="239.72" y="0">e</tspan><tspan class="cls-41" x="247.52" y="0">l</tspan><tspan x="251.55" y="0">y simple. </tspan><tspan x="-81.68" y="19.2">N</tspan><tspan class="cls-4" x="-70.79" y="19.2">e</tspan><tspan x="-63.17" y="19.2">xt </tspan><tspan class="cls-40" x="-46.5" y="19.2">w</tspan><tspan x="-34.31" y="19.2">e’ll look at dual-turns, in </tspan><tspan class="cls-38" x="134.79" y="19.2">w</tspan><tspan x="147.03" y="19.2">hich both p</tspan><tspan class="cls-33" x="223.62" y="19.2">r</tspan><tspan x="230" y="19.2">ops a</tspan><tspan class="cls-33" x="265.61" y="19.2">r</tspan><tspan x="271.99" y="19.2">e </tspan><tspan class="cls-33" x="283.32" y="19.2">r</tspan><tspan x="289.7" y="19.2">ece</tspan><tspan class="cls-41" x="312.36" y="19.2">i</tspan><tspan x="316.49" y="19.2">ving a turn.</tspan></text>
  <text class="cls-9" transform="translate(165.29 168.72)"><tspan x="0" y="0">This includes α, β, and </tspan><tspan class="cls-30" x="154.66" y="0">Γ</tspan><tspan x="161.66" y="0">.</tspan></text>
  <text class="cls-19" transform="translate(200.28 45.38)"><tspan class="cls-11" x="0" y="0">Type 6</tspan><tspan class="cls-12" x="96.81" y="0" xml:space="preserve"> - </tspan><tspan class="cls-17" x="123.61" y="0">S</tspan><tspan class="cls-18" x="140.89" y="0">t</tspan><tspan class="cls-16" x="153.38" y="0">atic</tspan></text>
  <path d="m423.15,159.56c-2.88,0-4.16,1.12-5.71,2.93-.75.85-1.71,5.23-3.34,2.44-3.35-5.72.09-20.31,4.73-26.77,1.23-1.65-.48-2.61-1.33-3.09,0,0-1.87-.96-2.83-.64-1.28.43-2.67-.53-6.19,7.31-5.28-6.08-11.47-5.28-15.68-5.12-3.73.16-14.99,4.32-14.99,17.45,0,15.79,13.55,18.73,17.66,18.73s11.04-2.67,12.8-4.27c1.07,3.2,2.99,5.17,5.39,5.65,3.73.8,5.39-1.07,6.88-3.15,2.19-2.99,4.69-11.42,2.61-11.47Zm-27.69,4.43c-5.44,0-9.87-4.48-9.87-9.92s4.43-9.87,9.87-9.87,9.92,4.48,9.92,9.87-4.48,9.92-9.92,9.92Z"/>
  <path d="m131.25,310.46c-1.15,0-1.66.45-2.28,1.17-.3.34-.69,2.09-1.34.98-1.34-2.29.04-8.13,1.89-10.71.49-.66-.19-1.05-.53-1.24,0,0-.75-.38-1.13-.26-.51.17-1.07-.21-2.48,2.92-2.11-2.43-4.59-2.11-6.27-2.05-1.49.06-6,1.73-6,6.98,0,6.32,5.42,7.49,7.06,7.49s4.42-1.07,5.12-1.71c.43,1.28,1.19,2.07,2.16,2.26,1.49.32,2.16-.43,2.75-1.26.87-1.19,1.88-4.57,1.05-4.59Zm-11.08,1.77c-2.18,0-3.95-1.79-3.95-3.97s1.77-3.95,3.95-3.95,3.97,1.79,3.97,3.95-1.79,3.97-3.97,3.97Z"/>
  <text class="cls-8" transform="translate(432.8 134.36)"><tspan x="0" y="0">Static</tspan></text>
  <text class="cls-8" transform="translate(432.8 184.72)"><tspan x="0" y="0">Static</tspan></text>
  <text class="cls-10" transform="translate(380.08 199.82)"><tspan class="cls-27" x="0" y="0">A</tspan><tspan x="9.22" y="0">lpha</tspan></text>
  <g>
    <path class="cls-26" d="m201.56,321.93c-.5,0-.92-.39-.92-.87v-1.82h-22.28c-.49,0-.89-.39-.89-.85v-.42c0-.46.4-.85.89-.85h22.28v-1.82c0-.48.42-.87.92-.87s.91.39.91.87v5.76c0,.48-.41.87-.91.87Z"/>
    <path class="cls-36" d="m206.69,314.43c.5,0,.92.39.92.87v1.82h22.28c.49,0,.89.39.89.85v.42c0,.46-.4.85-.89.85h-22.28v1.82c0,.48-.42.87-.92.87s-.91-.39-.91-.87v-5.76c0-.48.41-.87.91-.87Z"/>
    <path class="cls-26" d="m301.56,321.93c-.5,0-.92-.39-.92-.87v-1.82h-22.28c-.49,0-.89-.39-.89-.85v-.42c0-.46.4-.85.89-.85h22.28v-1.82c0-.48.42-.87.92-.87s.91.39.91.87v5.76c0,.48-.41.87-.91.87Z"/>
    <path class="cls-36" d="m322.03,306.59c0,.5-.39.92-.87.92h-1.82v22.28c0,.49-.39.89-.85.89h-.42c-.46,0-.85-.4-.85-.89v-22.28h-1.82c-.48,0-.87-.42-.87-.92s.39-.91.87-.91h5.76c.48,0,.87.41.87.91Z"/>
    <path class="cls-26" d="m401.56,321.93c-.5,0-.92-.39-.92-.87v-1.82h-22.28c-.49,0-.89-.39-.89-.85v-.42c0-.46.4-.85.89-.85h22.28v-1.82c0-.48.42-.87.92-.87s.91.39.91.87v5.76c0,.48-.41.87-.91.87Z"/>
    <path class="cls-36" d="m429.87,321.93c-.5,0-.92-.39-.92-.87v-1.82h-22.28c-.49,0-.89-.39-.89-.85v-.42c0-.46.4-.85.89-.85h22.28v-1.82c0-.48.42-.87.92-.87s.91.39.91.87v5.76c0,.48-.41.87-.91.87Z"/>
    <path class="cls-26" d="m501.56,321.93c-.5,0-.92-.39-.92-.87v-1.82h-22.28c-.49,0-.89-.39-.89-.85v-.42c0-.46.4-.85.89-.85h22.28v-1.82c0-.48.42-.87.92-.87s.91.39.91.87v5.76c0,.48-.41.87-.91.87Z"/>
    <path class="cls-36" d="m529.87,321.93c-.5,0-.92-.39-.92-.87v-1.82h-22.28c-.49,0-.89-.39-.89-.85v-.42c0-.46.4-.85.89-.85h22.28v-1.82c0-.48.42-.87.92-.87s.91.39.91.87v5.76c0,.48-.41.87-.91.87Z"/>
    <g>
      <circle class="cls-14" cx="204.13" cy="348.18" r="2.5"/>
      <circle class="cls-14" cx="234.13" cy="318.18" r="2.5"/>
      <circle class="cls-14" cx="204.13" cy="288.18" r="2.5"/>
      <circle class="cls-14" cx="174.13" cy="318.18" r="2.5"/>
      <circle class="cls-14" cx="204.13" cy="318.18" r="1.12"/>
    </g>
    <g>
      <circle class="cls-14" cx="304.12" cy="348.18" r="2.5"/>
      <circle class="cls-14" cx="334.12" cy="318.18" r="2.5"/>
      <circle class="cls-14" cx="304.12" cy="288.18" r="2.5"/>
      <circle class="cls-14" cx="274.12" cy="318.18" r="2.5"/>
      <circle class="cls-14" cx="304.12" cy="318.18" r="1.12"/>
    </g>
    <g>
      <circle class="cls-14" cx="404.12" cy="348.18" r="2.5"/>
      <circle class="cls-14" cx="434.12" cy="318.18" r="2.5"/>
      <circle class="cls-14" cx="404.12" cy="288.18" r="2.5"/>
      <circle class="cls-14" cx="374.12" cy="318.18" r="2.5"/>
      <circle class="cls-14" cx="404.12" cy="318.18" r="1.12"/>
    </g>
    <g>
      <circle class="cls-14" cx="504.11" cy="348.18" r="2.5"/>
      <circle class="cls-14" cx="534.11" cy="318.18" r="2.5"/>
      <circle class="cls-14" cx="504.11" cy="288.18" r="2.5"/>
      <circle class="cls-14" cx="474.12" cy="318.18" r="2.5"/>
      <circle class="cls-14" cx="504.11" cy="318.18" r="1.12"/>
    </g>
    <polygon class="cls-14" points="243.61 317.27 258.56 317.27 258.56 314.1 263.77 318.18 258.56 322.25 258.56 319.09 243.61 319.09 243.61 317.27"/>
    <polygon class="cls-14" points="343.61 317.27 358.55 317.27 358.55 314.1 363.76 318.18 358.55 322.25 358.55 319.09 343.61 319.09 343.61 317.27"/>
    <path class="cls-14" d="m449.73,316.85v-2.34h10.54v2.34h-10.54Zm0,4.99v-2.34h10.54v2.34h-10.54Z"/>
    <text class="cls-13" transform="translate(95.93 339.61)"><tspan class="cls-37" x="0" y="0">“</tspan><tspan class="cls-27" x="3.11" y="0">A</tspan><tspan x="10.03" y="0">lpha-One”</tspan></text>
    <text class="cls-13" transform="translate(192.38 269.88)"><tspan x="0" y="0">s</tspan><tspan class="cls-34" x="4.58" y="0">t</tspan><tspan x="8.64" y="0">art</tspan></text>
    <text class="cls-13" transform="translate(284.22 269.88)"><tspan x="0" y="0">hal</tspan><tspan class="cls-1" x="15.87" y="0">f</tspan><tspan class="cls-31" x="19.62" y="0">wa</tspan><tspan x="34.54" y="0">y</tspan></text>
    <text class="cls-13" transform="translate(394.69 269.88)"><tspan x="0" y="0">end</tspan></text>
    <text class="cls-13" transform="translate(199.58 283.9)"><tspan x="0" y="0">in</tspan></text>
    <text class="cls-13" transform="translate(135.62 283.9)"><tspan x="0" y="0">thumbs:</tspan></text>
    <text class="cls-13" transform="translate(399.57 283.9)"><tspan x="0" y="0">in</tspan></text>
    <path d="m138.15,303.69v1.69h-6v-1.69h1.96v-4.8h-1.96v-1.76l.66-.07c.46-.05.74-.05,1.41-.24.69-.19,1.17-.44,1.17-.44h.8v7.31h1.96Z"/>
    <text class="cls-9" transform="translate(232.13 236.93)"><tspan x="0" y="0">Let’s b</tspan><tspan class="cls-33" x="44.5" y="0">r</tspan><tspan x="50.88" y="0">eak d</tspan><tspan class="cls-31" x="87.29" y="0">o</tspan><tspan x="95.7" y="0">wn α¹: </tspan></text>
  </g>
  <path class="cls-36" d="m312.14,303.92c-5.08-.04-9.67,2.96-9.67,9.44,0,1.09,1.52,1.23,1.55,0,0-6.09,4.15-8.1,8.12-8.01l-2.05,2.02s.82.84,1.44.38c.87-.63,2.84-2.91,3.04-3.14-.2-.22-2.17-2.5-3.04-3.14-.63-.45-1.44.39-1.44.39l2.05,2.06Z"/>
  <path class="cls-36" d="m432.84,312.38c.04-5.08-2.96-9.67-9.44-9.67-1.09,0-1.23,1.52,0,1.55,6.09,0,8.1,4.15,8.01,8.12l-2.02-2.05s-.84.82-.38,1.44c.63.87,2.91,2.84,3.14,3.04.22-.2,2.5-2.17,3.14-3.04.45-.63-.39-1.44-.39-1.44l-2.06,2.05Z"/>
  <path class="cls-36" d="m528.46,311.48l-1.68,2.34c-1.3-11.23-16.22-11.41-18.14,1.42-.19,1.28,1.46,1.56,1.66.17,1.49-10.54,13.74-11.18,15.03-1.37l-2.31-1.72s-.71.93-.16,1.48c.76.76,3.31,2.36,3.57,2.52.19-.23,2.14-2.53,2.64-3.48.35-.69-.61-1.36-.61-1.36Z"/>
  <g>
    <text class="cls-15" transform="translate(493.22 483.51)"><tspan class="cls-33" x="0" y="0">C</tspan><tspan x="7.52" y="0">ontinuation</tspan></text>
    <text class="cls-7" transform="translate(540.53 616.57)"><tspan x="0" y="0">C</tspan><tspan class="cls-35" x="6.11" y="0">L</tspan><tspan x="11.66" y="0">OSING</tspan></text>
    <text class="cls-7" transform="translate(539.19 501.41)"><tspan x="0" y="0">OPENING</tspan></text>
    <text class="cls-6" transform="translate(44.18 689.32)"><tspan x="0" y="0">C</tspan><tspan class="cls-35" x="5.7" y="0">L</tspan><tspan x="11.11" y="0">OSE</tspan></text>
    <text class="cls-6" transform="translate(45.68 578.51)"><tspan x="0" y="0">OPEN</tspan></text>
    <g>
      <line class="cls-3" x1="25.95" y1="592.96" x2="566.47" y2="592.96"/>
      <line class="cls-2" x1="485.85" y1="471.84" x2="485.85" y2="702.98"/>
    </g>
    <g>
      <path class="cls-26" d="m138,542.72c0,.5-.39.92-.87.92h-1.82v22.28c0,.49-.39.89-.85.89h-.42c-.46,0-.85-.4-.85-.89v-22.28h-1.82c-.48,0-.87-.42-.87-.92,0-.5.39-.91.87-.91h5.76c.48,0,.87.41.87.91Z"/>
      <path class="cls-36" d="m136.82,536.41c.5,0,.92.39.92.87v1.82h22.28c.49,0,.89.39.89.85v.42c0,.46-.4.85-.89.85h-22.28v1.82c0,.48-.42.87-.92.87s-.91-.39-.91-.87v-5.76c0-.48.41-.87.91-.87Z"/>
      <path class="cls-26" d="m238,542.71c0,.5-.39.92-.87.92h-1.82v22.28c0,.49-.39.89-.85.89h-.42c-.46,0-.85-.4-.85-.89v-22.28h-1.82c-.48,0-.87-.42-.87-.92,0-.5.39-.91.87-.91h5.76c.48,0,.87.41.87.91Z"/>
      <path class="cls-36" d="m244.66,551.75c0-.5.39-.92.87-.92h1.82v-22.28c0-.49.39-.89.85-.89h.42c.46,0,.85.4.85.89v22.28h1.82c.48,0,.87.42.87.92,0,.5-.39.91-.87.91h-5.76c-.48,0-.87-.41-.87-.91Z"/>
      <path class="cls-26" d="m338,542.71c0,.5-.39.92-.87.92h-1.82v22.28c0,.49-.39.89-.85.89h-.42c-.46,0-.85-.4-.85-.89v-22.28h-1.82c-.48,0-.87-.42-.87-.92s.39-.91.87-.91h5.76c.48,0,.87.41.87.91Z"/>
      <path class="cls-36" d="m360,543.91c-.5,0-.92-.39-.92-.87v-1.82h-22.28c-.49,0-.89-.39-.89-.85v-.42c0-.46.4-.85.89-.85h22.28v-1.82c0-.48.42-.87.92-.87s.91.39.91.87v5.76c0,.48-.41.87-.91.87Z"/>
      <path class="cls-26" d="m437.99,542.71c0,.5-.39.92-.87.92h-1.82v22.28c0,.49-.39.89-.85.89h-.42c-.46,0-.85-.4-.85-.89v-22.28h-1.82c-.48,0-.87-.42-.87-.92,0-.5.39-.91.87-.91h5.76c.48,0,.87.41.87.91Z"/>
      <path class="cls-36" d="m460,543.91c-.5,0-.92-.39-.92-.87v-1.82h-22.28c-.49,0-.89-.39-.89-.85v-.42c0-.46.4-.85.89-.85h22.28v-1.82c0-.48.42-.87.92-.87s.91.39.91.87v5.76c0,.48-.41.87-.91.87Z"/>
      <g>
        <circle class="cls-14" cx="134.25" cy="570.16" r="2.5"/>
        <circle class="cls-14" cx="164.25" cy="540.16" r="2.5"/>
        <circle class="cls-14" cx="134.25" cy="510.16" r="2.5"/>
        <circle class="cls-14" cx="104.25" cy="540.16" r="2.5"/>
        <circle class="cls-14" cx="134.25" cy="540.16" r="1.12"/>
      </g>
      <g>
        <circle class="cls-14" cx="234.25" cy="570.16" r="2.5"/>
        <circle class="cls-14" cx="264.25" cy="540.16" r="2.5"/>
        <circle class="cls-14" cx="234.25" cy="510.16" r="2.5"/>
        <circle class="cls-14" cx="204.25" cy="540.16" r="2.5"/>
        <circle class="cls-14" cx="234.25" cy="540.16" r="1.12"/>
      </g>
      <g>
        <circle class="cls-14" cx="334.25" cy="570.16" r="2.5"/>
        <circle class="cls-14" cx="364.24" cy="540.16" r="2.5"/>
        <circle class="cls-14" cx="334.25" cy="510.16" r="2.5"/>
        <circle class="cls-14" cx="304.25" cy="540.16" r="2.5"/>
        <circle class="cls-14" cx="334.25" cy="540.16" r="1.12"/>
      </g>
      <g>
        <circle class="cls-14" cx="434.24" cy="570.16" r="2.5"/>
        <circle class="cls-14" cx="464.24" cy="540.16" r="2.5"/>
        <circle class="cls-14" cx="434.24" cy="510.16" r="2.5"/>
        <circle class="cls-14" cx="404.24" cy="540.16" r="2.5"/>
        <circle class="cls-14" cx="434.24" cy="540.16" r="1.12"/>
      </g>
      <path class="cls-26" d="m537.99,542.71c0,.5-.39.92-.87.92h-1.82v22.28c0,.49-.39.89-.85.89h-.42c-.46,0-.85-.4-.85-.89v-22.28h-1.82c-.48,0-.87-.42-.87-.92s.39-.91.87-.91h5.76c.48,0,.87.41.87.91Z"/>
      <path class="cls-36" d="m537.99,514.4c0,.5-.39.92-.87.92h-1.82v22.28c0,.49-.39.89-.85.89h-.42c-.46,0-.85-.4-.85-.89v-22.28h-1.82c-.48,0-.87-.42-.87-.92s.39-.91.87-.91h5.76c.48,0,.87.41.87.91Z"/>
      <g>
        <circle class="cls-14" cx="534.24" cy="570.16" r="2.5"/>
        <circle class="cls-14" cx="564.24" cy="540.16" r="2.5"/>
        <circle class="cls-14" cx="534.24" cy="510.16" r="2.5"/>
        <circle class="cls-14" cx="504.24" cy="540.16" r="2.5"/>
        <circle class="cls-14" cx="534.24" cy="540.16" r="1.12"/>
      </g>
      <polygon class="cls-14" points="173.74 539.25 188.69 539.25 188.69 536.08 193.89 540.16 188.69 544.23 188.69 541.06 173.74 541.06 173.74 539.25"/>
      <polygon class="cls-14" points="273.73 539.25 288.68 539.25 288.68 536.08 293.89 540.16 288.68 544.23 288.68 541.06 273.73 541.06 273.73 539.25"/>
      <path class="cls-14" d="m379.86,538.83v-2.34h10.54v2.34h-10.54Zm0,4.99v-2.34h10.54v2.34h-10.54Z"/>
      <text class="cls-13" transform="translate(25.82 561.58)"><tspan x="0" y="0">“Gamma-One”</tspan></text>
      <text class="cls-13" transform="translate(122.51 489.86)"><tspan x="0" y="0">s</tspan><tspan class="cls-34" x="4.58" y="0">t</tspan><tspan x="8.64" y="0">art</tspan></text>
      <text class="cls-13" transform="translate(214.34 489.86)"><tspan x="0" y="0">hal</tspan><tspan class="cls-1" x="15.87" y="0">f</tspan><tspan class="cls-31" x="19.62" y="0">wa</tspan><tspan x="34.54" y="0">y</tspan></text>
      <text class="cls-13" transform="translate(324.82 489.86)"><tspan x="0" y="0">end</tspan></text>
      <text class="cls-13" transform="translate(129.71 503.87)"><tspan x="0" y="0">in</tspan></text>
      <text class="cls-13" transform="translate(74.91 503.87)"><tspan x="0" y="0">thumbs:</tspan></text>
      <text class="cls-13" transform="translate(329.7 503.87)"><tspan x="0" y="0">in</tspan></text>
      <path d="m77.44,525.67v1.69h-6v-1.69h1.96v-4.8h-1.96v-1.76l.66-.07c.46-.05.74-.05,1.41-.24.69-.19,1.17-.44,1.17-.44h.8v7.31h1.96Z"/>
    </g>
    <path class="cls-36" d="m252.96,527.58c5.08-.04,9.67,2.96,9.67,9.44,0,1.09-1.52,1.23-1.55,0,0-6.09-4.15-8.1-8.12-8.01l2.05,2.02s-.82.84-1.44.38c-.87-.63-2.84-2.91-3.04-3.14.2-.22,2.17-2.5,3.04-3.14.63-.45,1.44.39,1.44.39l-2.05,2.06Z"/>
    <path class="cls-36" d="m335.7,536.07c-.04-5.08,2.96-9.67,9.44-9.67,1.09,0,1.23,1.52,0,1.55-6.09,0-8.1,4.15-8.01,8.12l2.02-2.05s.84.82.38,1.44c-.63.87-2.91,2.84-3.14,3.04-.22-.2-2.5-2.17-3.14-3.04-.45-.63.39-1.44.39-1.44l2.06,2.05Z"/>
    <g>
      <path class="cls-26" d="m138,652.72c0,.5-.39.92-.87.92h-1.82v22.28c0,.49-.39.89-.85.89h-.42c-.46,0-.85-.4-.85-.89v-22.28h-1.82c-.48,0-.87-.42-.87-.92,0-.5.39-.91.87-.91h5.76c.48,0,.87.41.87.91Z"/>
      <path class="cls-36" d="m136.82,646.41c.5,0,.92.39.92.87v1.82h22.28c.49,0,.89.39.89.85v.42c0,.46-.4.85-.89.85h-22.28v1.82c0,.48-.42.87-.92.87s-.91-.39-.91-.87v-5.76c0-.48.41-.87.91-.87Z"/>
      <path class="cls-26" d="m238,652.71c0,.5-.39.92-.87.92h-1.82v22.28c0,.49-.39.89-.85.89h-.42c-.46,0-.85-.4-.85-.89v-22.28h-1.82c-.48,0-.87-.42-.87-.92,0-.5.39-.91.87-.91h5.76c.48,0,.87.41.87.91Z"/>
      <path class="cls-36" d="m252.16,638.57c0,.5-.39.92-.87.92h-1.82v22.28c0,.49-.39.89-.85.89h-.42c-.46,0-.85-.4-.85-.89v-22.28h-1.82c-.48,0-.87-.42-.87-.92,0-.5.39-.91.87-.91h5.76c.48,0,.87.41.87.91Z"/>
      <path class="cls-26" d="m338,652.71c0,.5-.39.92-.87.92h-1.82v22.28c0,.49-.39.89-.85.89h-.42c-.46,0-.85-.4-.85-.89v-22.28h-1.82c-.48,0-.87-.42-.87-.92s.39-.91.87-.91h5.76c.48,0,.87.41.87.91Z"/>
      <path class="cls-36" d="m360,653.91c-.5,0-.92-.39-.92-.87v-1.82h-22.28c-.49,0-.89-.39-.89-.85v-.42c0-.46.4-.85.89-.85h22.28v-1.82c0-.48.42-.87.92-.87s.91.39.91.87v5.76c0,.48-.41.87-.91.87Z"/>
      <path class="cls-26" d="m437.99,652.71c0,.5-.39.92-.87.92h-1.82v22.28c0,.49-.39.89-.85.89h-.42c-.46,0-.85-.4-.85-.89v-22.28h-1.82c-.48,0-.87-.42-.87-.92,0-.5.39-.91.87-.91h5.76c.48,0,.87.41.87.91Z"/>
      <path class="cls-36" d="m460,653.91c-.5,0-.92-.39-.92-.87v-1.82h-22.28c-.49,0-.89-.39-.89-.85v-.42c0-.46.4-.85.89-.85h22.28v-1.82c0-.48.42-.87.92-.87s.91.39.91.87v5.76c0,.48-.41.87-.91.87Z"/>
      <g>
        <circle class="cls-14" cx="134.25" cy="680.16" r="2.5"/>
        <circle class="cls-14" cx="164.25" cy="650.16" r="2.5"/>
        <circle class="cls-14" cx="134.25" cy="620.16" r="2.5"/>
        <circle class="cls-14" cx="104.25" cy="650.16" r="2.5"/>
        <circle class="cls-14" cx="134.25" cy="650.16" r="1.12"/>
      </g>
      <g>
        <circle class="cls-14" cx="234.25" cy="680.16" r="2.5"/>
        <circle class="cls-14" cx="264.25" cy="650.16" r="2.5"/>
        <circle class="cls-14" cx="234.25" cy="620.16" r="2.5"/>
        <circle class="cls-14" cx="204.25" cy="650.16" r="2.5"/>
        <circle class="cls-14" cx="234.25" cy="650.16" r="1.12"/>
      </g>
      <g>
        <circle class="cls-14" cx="334.25" cy="680.16" r="2.5"/>
        <circle class="cls-14" cx="364.24" cy="650.16" r="2.5"/>
        <circle class="cls-14" cx="334.25" cy="620.16" r="2.5"/>
        <circle class="cls-14" cx="304.25" cy="650.16" r="2.5"/>
        <circle class="cls-14" cx="334.25" cy="650.16" r="1.12"/>
      </g>
      <g>
        <circle class="cls-14" cx="434.24" cy="680.16" r="2.5"/>
        <circle class="cls-14" cx="464.24" cy="650.16" r="2.5"/>
        <circle class="cls-14" cx="434.24" cy="620.16" r="2.5"/>
        <circle class="cls-14" cx="404.24" cy="650.16" r="2.5"/>
        <circle class="cls-14" cx="434.24" cy="650.16" r="1.12"/>
      </g>
      <path class="cls-26" d="m535.49,652.71c0,.5-.39.92-.87.92h-1.82v22.28c0,.49-.39.89-.85.89h-.42c-.46,0-.85-.4-.85-.89v-22.28h-1.82c-.48,0-.87-.42-.87-.92s.39-.91.87-.91h5.76c.48,0,.87.41.87.91Z"/>
      <path class="cls-36" d="m532.99,675.89c0-.5.39-.92.87-.92h1.82v-22.28c0-.49.39-.89.85-.89h.42c.46,0,.85.4.85.89v22.28h1.82c.48,0,.87.42.87.92s-.39.91-.87.91h-5.76c-.48,0-.87-.41-.87-.91Z"/>
      <g>
        <circle class="cls-14" cx="534.24" cy="680.16" r="2.5"/>
        <circle class="cls-14" cx="564.24" cy="650.16" r="2.5"/>
        <circle class="cls-14" cx="534.24" cy="620.16" r="2.5"/>
        <circle class="cls-14" cx="504.24" cy="650.16" r="2.5"/>
        <circle class="cls-14" cx="534.24" cy="650.16" r="1.12"/>
      </g>
      <polygon class="cls-14" points="173.74 649.25 188.69 649.25 188.69 646.08 193.89 650.16 188.69 654.23 188.69 651.06 173.74 651.06 173.74 649.25"/>
      <polygon class="cls-14" points="273.73 649.25 288.68 649.25 288.68 646.08 293.89 650.16 288.68 654.23 288.68 651.06 273.73 651.06 273.73 649.25"/>
      <path class="cls-14" d="m379.86,648.83v-2.34h10.54v2.34h-10.54Zm0,4.99v-2.34h10.54v2.34h-10.54Z"/>
      <text class="cls-13" transform="translate(25.82 671.58)"><tspan x="0" y="0">“Gamma-One”</tspan></text>
      <text class="cls-13" transform="translate(129.71 613.87)"><tspan x="0" y="0">in</tspan></text>
      <text class="cls-13" transform="translate(74.91 613.87)"><tspan x="0" y="0">thumbs:</tspan></text>
      <text class="cls-13" transform="translate(329.7 613.87)"><tspan x="0" y="0">in</tspan></text>
      <path d="m77.44,635.67v1.69h-6v-1.69h1.96v-4.8h-1.96v-1.76l.66-.07c.46-.05.74-.05,1.41-.24.69-.19,1.17-.44,1.17-.44h.8v7.31h1.96Z"/>
    </g>
    <path class="cls-36" d="m241.86,638.52c-5.08-.04-9.67,2.96-9.67,9.44,0,1.09,1.52,1.23,1.55,0,0-6.09,4.15-8.1,8.12-8.01l-2.05,2.02s.82.84,1.44.38c.87-.63,2.84-2.91,3.04-3.14-.2-.22-2.17-2.5-3.04-3.14-.63-.45-1.44.39-1.44.39l2.05,2.06Z"/>
    <path class="cls-36" d="m362.68,644.54c.04-5.08-2.96-9.67-9.44-9.67-1.09,0-1.23,1.52,0,1.55,6.09,0,8.1,4.15,8.01,8.12l-2.02-2.05s-.84.82-.38,1.44c.63.87,2.91,2.84,3.14,3.04.22-.2,2.5-2.17,3.14-3.04.45-.63-.39-1.44-.39-1.44l-2.06,2.05Z"/>
    <path class="cls-14" d="m537.59,689.43l-4.37,8.3c-.15.29-.45.46-.75.46-.13,0-.26-.04-.39-.1-.2-.11-.35-.28-.42-.5-.07-.21-.05-.45.06-.65l1.88-3.58-2.53-3.62c-.12-.11-.2-.27-.24-.47-.05-.25.03-.53.2-.71.15-.17.35-.27.58-.28.22,0,.45.07.61.21l2.2,3.29,1.65-3.14c.12-.2.29-.35.51-.42.22-.07.45-.04.65.07.22.12.38.33.43.59.03.19,0,.38-.08.55Z"/>
    <path class="cls-14" d="m539.4,578.19c-.46-.06-.96.28-1.19,1.14-.42,1.54-.92,3.7-1.44,5.63-1.11-2.72-1.86-4.39-2.5-4.38-.01,0-.02,0-.03.01-.01-.01-.02-.01-.03-.01-.64-.01-1.39,1.65-2.5,4.38-.51-1.93-1.02-4.09-1.44-5.63-.24-.86-.73-1.2-1.19-1.14-.59.07-.98.49-.74,1.25.25.81,1.84,6.07,2.3,7.72.47,1.65,1.59.9,1.8.49.21-.41,1.36-3.67,1.8-4.59.44.92,1.59,4.18,1.8,4.59.21.41,1.33,1.16,1.8-.49.46-1.64,2.05-6.9,2.3-7.72.24-.76-.15-1.18-.74-1.25Z"/>
    <path class="cls-36" d="m457.98,643.65l-1.68,2.34c-1.3-11.23-16.22-11.41-18.14,1.42-.19,1.28,1.46,1.56,1.66.17,1.49-10.54,13.74-11.18,15.03-1.37l-2.31-1.72s-.71.93-.16,1.48c.76.76,3.31,2.36,3.57,2.52.19-.23,2.14-2.53,2.64-3.48.35-.69-.61-1.36-.61-1.36Z"/>
    <path class="cls-36" d="m437.68,533.66l1.68,2.34c1.3-11.23,16.22-11.41,18.14,1.42.19,1.28-1.46,1.56-1.66.17-1.49-10.54-13.74-11.18-15.03-1.37l2.31-1.72s.71.93.16,1.48c-.76.76-3.31,2.36-3.57,2.52-.19-.23-2.14-2.53-2.64-3.48-.35-.69.61-1.36.61-1.36Z"/>
    <path class="cls-36" d="m563.58,535.77c0-11.89-9.57-22.68-21.38-22.72l2.65-2.41s-1.01-1.11-1.85-.54c-.95.65-4.08,3.93-4.08,3.93,0,0,2.66,3.32,3.8,4.21.81.63,1.89-.43,1.89-.43l-2.61-2.78c8.93.03,18.79,7.32,19.5,20.74.08,1.57,2.09,1.62,2.08,0Z"/>
    <path class="cls-36" d="m565.74,655.04c0,11.89-9.57,22.68-21.38,22.72l2.65,2.41s-1.01,1.11-1.85.54c-.95-.65-4.08-3.93-4.08-3.93,0,0,2.66-3.32,3.8-4.21.81-.63,1.89.43,1.89.43l-2.61,2.78c8.93-.03,18.79-7.32,19.5-20.74.08-1.57,2.09-1.62,2.08,0Z"/>
    <path d="m68.07,522.03c-.04.53-.29,1.17-1.81,1.1-1.52-.07-7.85.08-8.73.14.02,1.12.52,7.19.86,14.56.11,2.26-.87,2.53-1.28,2.53-.67,0-1.84-.86-2.06-2.28-.18-1.31-.31-4.32-.45-7.48-.12-2.75-.24-5.57-.41-7.5l-1.9.63.06-2.04c.08-.41.5-.92.78-.94s12.83-.45,13.56-.39,1.39,1.06,1.37,1.67Z"/>
    <path d="m442.9,579.65v.85h-3v-.85h.98v-2.4h-.98v-.88l.33-.03c.23-.02.37-.03.71-.12s.58-.22.58-.22h.4v3.65h.98Z"/>
    <path d="m438.22,577.83c-.02.26-.14.59-.9.55s-3.92.04-4.37.07c0,.56.26,3.6.43,7.28.05,1.13-.44,1.27-.64,1.27-.34,0-.92-.43-1.03-1.14-.09-.66-.16-2.16-.23-3.74-.06-1.37-.12-2.79-.21-3.75l-.95.31.03-1.02c.04-.21.25-.46.39-.47s6.42-.22,6.78-.2.7.53.69.83Z"/>
    <path d="m442.9,689.51v.85h-3v-.85h.98v-2.4h-.98v-.88l.33-.03c.23-.02.37-.03.71-.12s.58-.22.58-.22h.4v3.65h.98Z"/>
    <path d="m438.22,687.69c-.02.26-.14.59-.9.55s-3.92.04-4.37.07c0,.56.26,3.6.43,7.28.05,1.13-.44,1.27-.64,1.27-.34,0-.92-.43-1.03-1.14-.09-.66-.16-2.16-.23-3.74-.06-1.37-.12-2.79-.21-3.75l-.95.31.03-1.02c.04-.21.25-.46.39-.47s6.42-.22,6.78-.2.7.53.69.83Z"/>
    <path d="m68.07,632.03c-.04.53-.29,1.17-1.81,1.1s-7.85.08-8.73.14c.02,1.12.52,7.19.86,14.56.11,2.26-.87,2.53-1.28,2.53-.67,0-1.84-.86-2.06-2.28-.18-1.31-.31-4.32-.45-7.48-.12-2.75-.24-5.57-.41-7.5l-1.9.63.06-2.04c.08-.41.5-.92.78-.94s12.83-.45,13.56-.39,1.39,1.06,1.37,1.67Z"/>
  </g>
</svg>