<?xml version="1.0" encoding="UTF-8"?>
<svg id="Layer_1" data-name="Layer 1" xmlns="http://www.w3.org/2000/svg" viewBox="0 0 612 792">
  <defs>
    <style>
      .cls-1 {
        letter-spacing: .02em;
      }

      .cls-2, .cls-3 {
        fill: none;
        stroke: #231f20;
        stroke-miterlimit: 10;
      }

      .cls-4 {
        fill: #00aeef;
      }

      .cls-4, .cls-5, .cls-6, .cls-7, .cls-8, .cls-9 {
        font-family: Cambria-BoldItalic, Cambria;
        font-weight: 700;
      }

      .cls-10 {
        letter-spacing: -.02em;
      }

      .cls-11 {
        letter-spacing: -.04em;
      }

      .cls-5 {
        letter-spacing: -.03em;
      }

      .cls-5, .cls-6, .cls-12, .cls-13, .cls-7, .cls-14, .cls-8, .cls-15, .cls-16 {
        fill: #231f20;
      }

      .cls-17 {
        letter-spacing: -.01em;
      }

      .cls-6, .cls-7, .cls-18, .cls-15 {
        font-style: italic;
      }

      .cls-6, .cls-15 {
        font-size: 12px;
      }

      .cls-19 {
        letter-spacing: -.02em;
      }

      .cls-12 {
        font-family: MonotypeCorsiva, 'Monotype Corsiva';
        font-size: 45px;
      }

      .cls-20 {
        fill: #2e3192;
      }

      .cls-21 {
        letter-spacing: -.01em;
      }

      .cls-3 {
        stroke-width: 2px;
      }

      .cls-22 {
        letter-spacing: 0em;
      }

      .cls-13 {
        font-family: Cambria, Cambria;
        font-size: 15px;
      }

      .cls-23 {
        letter-spacing: -.06em;
      }

      .cls-24 {
        letter-spacing: 0em;
      }

      .cls-25 {
        letter-spacing: -.02em;
      }

      .cls-26 {
        letter-spacing: 0em;
      }

      .cls-27 {
        letter-spacing: 0em;
      }

      .cls-7 {
        font-size: 9.67px;
      }

      .cls-14, .cls-15 {
        font-family: Cambria-Italic, Cambria;
      }

      .cls-28 {
        letter-spacing: -.01em;
      }

      .cls-29 {
        letter-spacing: -.02em;
      }

      .cls-18 {
        font-size: 25px;
      }

      .cls-30 {
        fill: #ed1c24;
      }

      .cls-9 {
        fill: #7f3f98;
      }

      .cls-31 {
        letter-spacing: 0em;
      }

      .cls-32 {
        letter-spacing: .01em;
      }

      .cls-33 {
        letter-spacing: -.02em;
      }

      .cls-34 {
        letter-spacing: -.01em;
      }

      .cls-35 {
        letter-spacing: -.02em;
      }
    </style>
  </defs>
  <text class="cls-12" transform="translate(232.73 42.69)"><tspan x="0" y="0">1|1 Turns</tspan></text>
  <text class="cls-13" transform="translate(90.65 74.92)"><tspan class="cls-11" x="0" y="0">F</tspan><tspan x="7.46" y="0">or a turn on both p</tspan><tspan class="cls-34" x="127.6" y="0">r</tspan><tspan x="133.59" y="0">ops, add a “1” in both the hi</tspan><tspan class="cls-26" x="308.57" y="0">g</tspan><tspan x="315.88" y="0">h and the l</tspan><tspan class="cls-27" x="382.82" y="0">o</tspan><tspan x="390.71" y="0">w slo</tspan><tspan class="cls-32" x="424.11" y="0">t</tspan><tspan x="429.4" y="0">. </tspan><tspan x="117.67" y="18">This can also be writ</tspan><tspan class="cls-22" x="249.37" y="18">t</tspan><tspan x="254.31" y="18">en as 1|1.</tspan><tspan x="28.54" y="54">He</tspan><tspan class="cls-34" x="46.15" y="54">r</tspan><tspan x="52.13" y="54">e a</tspan><tspan class="cls-34" x="70.08" y="54">r</tspan><tspan x="76.06" y="54">e a </tspan><tspan class="cls-21" x="97.31" y="54">f</tspan><tspan x="101.67" y="54">ew cherr</tspan><tspan class="cls-34" x="158.52" y="54">y</tspan><tspan x="165.86" y="54">-pic</tspan><tspan class="cls-10" x="189.96" y="54">k</tspan><tspan x="197.57" y="54">ed </tspan><tspan class="cls-17" x="216.51" y="54">e</tspan><tspan class="cls-28" x="223.65" y="54">x</tspan><tspan x="230.7" y="54">amples of 1|1 in each </tspan><tspan class="cls-25" x="369.13" y="54">T</tspan><tspan x="377.65" y="54">ype.</tspan><tspan x="-36.85" y="72">Since </tspan><tspan class="cls-29" x=".36" y="72">y</tspan><tspan x="7.63" y="72">ou kn</tspan><tspan class="cls-27" x="43.41" y="72">o</tspan><tspan x="51.3" y="72">w all the mechanisms i</tspan><tspan class="cls-29" x="196.36" y="72">nv</tspan><tspan x="211.7" y="72">o</tspan><tspan class="cls-35" x="219.66" y="72">l</tspan><tspan class="cls-29" x="223.44" y="72">v</tspan><tspan x="230.7" y="72">ed, </tspan><tspan class="cls-17" x="252.72" y="72">e</tspan><tspan x="259.86" y="72">xplanation is </tspan><tspan class="cls-10" x="345.34" y="72">k</tspan><tspan x="352.95" y="72">ept </tspan><tspan class="cls-22" x="376.99" y="72">t</tspan><tspan x="381.93" y="72">o a minimum.</tspan></text>
  <path class="cls-30" d="m530.85,275.22l3.11,1.81s-.75,1.3-1.7.92c-1.07-.44-4.82-2.98-4.82-2.98,0,0,1.9-3.81,2.83-4.92.65-.79,1.94.02,1.94.02l-1.86,3.16s-.08.07-.11.11c12.12-3.21,10.66-16.23-1.57-17.88-.76-.1-1.34-.72-1.22-1.28.11-.49.42-.95,1.4-.8,14.98,2.35,15.63,18.27,2,21.84Z"/>
  <path class="cls-20" d="m518.47,275.22l-3.11,1.81s.75,1.3,1.7.92c1.07-.44,4.82-2.98,4.82-2.98,0,0-1.9-3.81-2.83-4.92-.65-.79-1.94.02-1.94.02l1.86,3.16s.08.07.11.11c-12.12-3.21-10.66-16.23,1.57-17.88.76-.1,1.34-.72,1.22-1.28-.11-.49-.42-.95-1.4-.8-14.98,2.35-15.63,18.27-2,21.84Z"/>
  <g>
    <circle class="cls-16" cx="224.66" cy="310.52" r="2.5"/>
    <circle class="cls-16" cx="254.66" cy="280.52" r="2.5"/>
    <circle class="cls-16" cx="224.66" cy="250.52" r="2.5"/>
    <circle class="cls-16" cx="194.66" cy="280.52" r="2.5"/>
    <circle class="cls-16" cx="224.66" cy="280.52" r="1.12"/>
  </g>
  <g>
    <circle class="cls-16" cx="324.66" cy="310.52" r="2.5"/>
    <circle class="cls-16" cx="354.66" cy="280.52" r="2.5"/>
    <circle class="cls-16" cx="324.66" cy="250.52" r="2.5"/>
    <circle class="cls-16" cx="294.66" cy="280.52" r="2.5"/>
    <circle class="cls-16" cx="324.66" cy="280.52" r="1.12"/>
  </g>
  <g>
    <circle class="cls-16" cx="424.66" cy="310.52" r="2.5"/>
    <circle class="cls-16" cx="454.66" cy="280.52" r="2.5"/>
    <circle class="cls-16" cx="424.66" cy="250.52" r="2.5"/>
    <circle class="cls-16" cx="394.66" cy="280.52" r="2.5"/>
    <circle class="cls-16" cx="424.66" cy="280.52" r="1.12"/>
  </g>
  <g>
    <circle class="cls-16" cx="524.66" cy="310.52" r="2.5"/>
    <circle class="cls-16" cx="554.66" cy="280.52" r="2.5"/>
    <circle class="cls-16" cx="524.66" cy="250.52" r="2.5"/>
    <circle class="cls-16" cx="494.66" cy="280.52" r="2.5"/>
    <circle class="cls-16" cx="524.66" cy="280.52" r="1.12"/>
  </g>
  <text class="cls-6" transform="translate(211.13 229.02)"><tspan x="0" y="0">s</tspan><tspan class="cls-26" x="5.31" y="0">t</tspan><tspan x="9.59" y="0">art</tspan></text>
  <text class="cls-6" transform="translate(302.43 229.02)"><tspan x="0" y="0">hal</tspan><tspan class="cls-1" x="17.36" y="0">f</tspan><tspan class="cls-27" x="21.43" y="0">wa</tspan><tspan x="37.43" y="0">y</tspan></text>
  <text class="cls-6" transform="translate(413.77 229.02)"><tspan x="0" y="0">end</tspan></text>
  <text class="cls-15" transform="translate(219.48 241.87)"><tspan x="0" y="0">in</tspan></text>
  <text class="cls-7" transform="translate(157.98 243.04)"><tspan x="0" y="0">thumbs:</tspan></text>
  <text class="cls-15" transform="translate(415.99 241.87)"><tspan x="0" y="0">out</tspan></text>
  <polygon class="cls-16" points="264.15 279.61 279.1 279.61 279.1 276.44 284.31 280.52 279.1 284.59 279.1 281.43 264.15 281.43 264.15 279.61"/>
  <polygon class="cls-16" points="364.15 279.61 379.1 279.61 379.1 276.44 384.31 280.52 379.1 284.59 379.1 281.43 364.15 281.43 364.15 279.61"/>
  <path class="cls-16" d="m470.27,279.19v-2.34h10.55v2.34h-10.55Zm0,4.99v-2.34h10.55v2.34h-10.55Z"/>
  <path class="cls-30" d="m450.57,284.27c-.5,0-.92-.39-.92-.87v-1.82s-22.29,0-22.29,0c-.49,0-.89-.39-.89-.85v-.42c0-.46.4-.85.89-.85h22.29s0-1.82,0-1.82c0-.48.42-.87.92-.87s.91.39.91.87v5.76c0,.48-.41.87-.91.87Z"/>
  <path class="cls-20" d="m498.76,276.77c.5,0,.92.39.92.87v1.82s22.29,0,22.29,0c.49,0,.89.39.89.85v.42c0,.46-.4.85-.89.85h-22.29s0,1.82,0,1.82c0,.48-.42.87-.92.87s-.91-.39-.91-.87v-5.76c0-.48.41-.87.91-.87Z"/>
  <path class="cls-30" d="m550.57,284.27c-.5,0-.92-.39-.92-.87v-1.82s-22.29,0-22.29,0c-.49,0-.89-.39-.89-.85v-.42c0-.46.4-.85.89-.85h22.29s0-1.82,0-1.82c0-.48.42-.87.92-.87s.91.39.91.87v5.76c0,.48-.41.87-.91.87Z"/>
  <path class="cls-20" d="m218.41,277.8c0-.5.39-.92.87-.92h1.82s0-22.29,0-22.29c0-.49.39-.89.85-.89h.42c.46,0,.85.4.85.89v22.29s1.82,0,1.82,0c.48,0,.87.42.87.92,0,.5-.39.91-.87.91h-5.76c-.48,0-.87-.41-.87-.91Z"/>
  <path class="cls-30" d="m223.41,277.8c0-.5.39-.92.87-.92h1.82s0-22.29,0-22.29c0-.49.39-.89.85-.89h.42c.46,0,.85.4.85.89v22.29s1.82,0,1.82,0c.48,0,.87.42.87.92,0,.5-.39.91-.87.91h-5.76c-.48,0-.87-.41-.87-.91Z"/>
  <path class="cls-30" d="m329.24,261.44c.35.35.37.93.03,1.26l-1.29,1.29,15.76,15.76c.35.35.35.9.03,1.23l-.3.3c-.33.33-.88.32-1.23-.03l-15.76-15.76-1.29,1.29c-.34.34-.91.32-1.26-.03s-.37-.92-.03-1.26l4.07-4.07c.34-.34.9-.33,1.26.03Z"/>
  <text class="cls-15" transform="translate(40.08 284.71)"><tspan x="0" y="0">“D-One-One”</tspan></text>
  <path d="m533.13,320.97v.85h-3v-.85h.98v-2.4h-.98v-.88l.33-.03c.23-.02.37-.03.71-.12s.58-.22.58-.22h.4v3.65h.98Z"/>
  <path d="m533.13,328.47v.85h-3v-.85h.98v-2.4h-.98v-.88l.33-.03c.23-.02.37-.03.71-.12s.58-.22.58-.22h.4v3.65h.98Z"/>
  <path class="cls-20" d="m320.09,261.44c-.35.35-.37.93-.03,1.26l1.29,1.29-15.76,15.76c-.35.35-.35.9-.03,1.23l.3.3c.33.33.88.32,1.23-.03l15.76-15.76,1.29,1.29c.34.34.91.32,1.26-.03s.37-.92.03-1.26l-4.07-4.07c-.34-.34-.9-.33-1.26.03Z"/>
  <path class="cls-20" d="m398.76,284.27c.5,0,.92-.39.92-.87v-1.82s22.29,0,22.29,0c.49,0,.89-.39.89-.85v-.42c0-.46-.4-.85-.89-.85h-22.29s0-1.82,0-1.82c0-.48-.42-.87-.92-.87s-.91.39-.91.87v5.76c0,.48.41.87.91.87Z"/>
  <g>
    <path d="m149.27,275.07v1.69h-6v-1.69h1.96v-4.8h-1.96v-1.76l.66-.07c.46-.05.74-.05,1.41-.24.69-.19,1.17-.44,1.17-.44h.8v7.31h1.96Z"/>
    <path d="m149.27,290.07v1.69h-6v-1.69h1.96v-4.8h-1.96v-1.76l.66-.07c.46-.05.74-.05,1.41-.24.69-.19,1.17-.44,1.17-.44h.8v7.31h1.96Z"/>
  </g>
  <text class="cls-18" transform="translate(33.24 196.88)"><tspan class="cls-14" x="0" y="0">Type 1</tspan><tspan class="cls-8" x="69.15" y="0" xml:space="preserve"> - </tspan><tspan class="cls-4" x="88.29" y="0">Dual</tspan><tspan class="cls-5" x="141.54" y="0">-</tspan><tspan class="cls-9" x="148.94" y="0">Shift</tspan><tspan class="cls-8" x="200.61" y="0" xml:space="preserve">    </tspan></text>
  <path class="cls-30" d="m347.47,275.32c-.8.79-3.85,2.69-3.85,2.69,0,0-2.6-3.33-2.82-3.75-.38-.76.65-1.47.65-1.47l1.82,2.46h0c1.27-8.51-4.66-15.45-16.53-18.05-1.37-.03-1.2-1.95,0-1.73,13.66,2.57,19.74,11.75,18.11,19.98l2.44-1.74s.76,1,.17,1.6Z"/>
  <path class="cls-30" d="m455.58,272.19c-.3,1.08-1.98,4.25-1.98,4.25,0,0-3.92-1.58-4.32-1.84-.71-.46-.17-1.6-.17-1.6l2.8,1.22h0c-3.15-8.01-11.76-11.06-23.34-7.37-1.2.66-2.01-1.09-.87-1.49,13.12-4.6,22.97.31,25.67,8.25l1.24-2.73s1.16.49.95,1.3Z"/>
  <path class="cls-20" d="m393.75,272.19c.3,1.08,1.98,4.25,1.98,4.25,0,0,3.92-1.58,4.32-1.84.71-.46.17-1.6.17-1.6l-2.8,1.22h0c3.15-8.01,11.76-11.06,23.34-7.37,1.2.66,2.01-1.09.87-1.49-13.12-4.6-22.97.31-25.67,8.25l-1.24-2.73s-1.16.49-.95,1.3Z"/>
  <path class="cls-20" d="m301.86,275.32c.8.79,3.85,2.69,3.85,2.69,0,0,2.6-3.33,2.82-3.75.38-.76-.65-1.47-.65-1.47l-1.82,2.46h0c-1.27-8.51,4.66-15.45,16.53-18.05,1.37-.03,1.2-1.95,0-1.73-13.66,2.57-19.74,11.75-18.11,19.98l-2.44-1.74s-.76,1-.17,1.6Z"/>
  <path class="cls-16" d="m123.19,269.91c9.27-2.6,15.87.65,15.99,7.43.21,12.38-15.09,12.12-15.73,11.39-.38-1.44-1.7-10.94-.26-18.82Zm3.21,15.38c7.88-.91,10.21-4.14,9.48-9.03-.72-4.89-8.61-4.14-9.7-3.61-.52,7.19-.39,8.72.22,12.65Z"/>
  <path class="cls-16" d="m520.83,318.89c4.64-1.3,7.94.33,7.99,3.72.1,6.19-7.54,6.06-7.86,5.69-.19-.72-.85-5.47-.13-9.41Zm1.61,7.69c3.94-.46,5.1-2.07,4.74-4.52-.36-2.45-4.31-2.07-4.85-1.81-.26,3.6-.2,4.36.11,6.32Z"/>
  <g>
    <g>
      <path class="cls-30" d="m551.47,548.85s-3.01,3.38-3.95,4.07c-.82.61-1.87-.47-1.87-.47l2.7-2.65c-7.31-.33-7.91,4.12-6.28,10.29-6.34-1.43-11.8-2.9-11.8,9.19,0,1.35-2.05,1.36-2.05.01,0-8.38,3.19-13.94,11.26-11.98-.88-6.54,1.72-9.05,8.86-9.31l-2.69-2.73s1.05-1.1,1.87-.5c1.18.85,3.95,4.08,3.95,4.08Z"/>
      <g>
        <circle class="cls-16" cx="224.66" cy="570.52" r="2.5"/>
        <circle class="cls-16" cx="254.66" cy="540.52" r="2.5"/>
        <circle class="cls-16" cx="224.66" cy="510.52" r="2.5"/>
        <circle class="cls-16" cx="194.66" cy="540.52" r="2.5"/>
        <circle class="cls-16" cx="224.66" cy="540.52" r="1.12"/>
      </g>
      <g>
        <circle class="cls-16" cx="324.66" cy="570.52" r="2.5"/>
        <circle class="cls-16" cx="354.66" cy="540.52" r="2.5"/>
        <circle class="cls-16" cx="324.66" cy="510.52" r="2.5"/>
        <circle class="cls-16" cx="294.66" cy="540.52" r="2.5"/>
        <circle class="cls-16" cx="324.66" cy="540.52" r="1.12"/>
      </g>
      <g>
        <circle class="cls-16" cx="424.66" cy="570.52" r="2.5"/>
        <circle class="cls-16" cx="454.66" cy="540.52" r="2.5"/>
        <circle class="cls-16" cx="424.66" cy="510.52" r="2.5"/>
        <circle class="cls-16" cx="394.66" cy="540.52" r="2.5"/>
        <circle class="cls-16" cx="424.66" cy="540.52" r="1.12"/>
      </g>
      <g>
        <circle class="cls-16" cx="524.66" cy="570.52" r="2.5"/>
        <circle class="cls-16" cx="554.66" cy="540.52" r="2.5"/>
        <circle class="cls-16" cx="524.66" cy="510.52" r="2.5"/>
        <circle class="cls-16" cx="494.66" cy="540.52" r="2.5"/>
        <circle class="cls-16" cx="524.66" cy="540.52" r="1.12"/>
      </g>
      <text class="cls-15" transform="translate(219.48 501.87)"><tspan x="0" y="0">in</tspan></text>
      <text class="cls-15" transform="translate(419.82 501.87)"><tspan x="0" y="0">in</tspan></text>
      <text class="cls-15" transform="translate(316.49 501.87)"><tspan x="0" y="0">out</tspan></text>
      <polygon class="cls-16" points="264.15 539.61 279.1 539.61 279.1 536.44 284.31 540.52 279.1 544.59 279.1 541.43 264.15 541.43 264.15 539.61"/>
      <polygon class="cls-16" points="364.15 539.61 379.1 539.61 379.1 536.44 384.31 540.52 379.1 544.59 379.1 541.43 364.15 541.43 364.15 539.61"/>
      <path class="cls-16" d="m470.27,539.19v-2.34h10.55v2.34h-10.55Zm0,4.99v-2.34h10.55v2.34h-10.55Z"/>
      <path class="cls-30" d="m427.38,536.77c.5,0,.92.39.92.87v1.82s22.29,0,22.29,0c.49,0,.89.39.89.85v.42c0,.46-.4.85-.89.85h-22.29s0,1.82,0,1.82c0,.48-.42.87-.92.87s-.91-.39-.91-.87v-5.76c0-.48.41-.87.91-.87Z"/>
      <path class="cls-30" d="m550.57,544.27c-.5,0-.92-.39-.92-.87v-1.82s-22.29,0-22.29,0c-.49,0-.89-.39-.89-.85v-.42c0-.46.4-.85.89-.85h22.29s0-1.82,0-1.82c0-.48.42-.87.92-.87s.91.39.91.87v5.76c0,.48-.41.87-.91.87Z"/>
      <path class="cls-20" d="m516.33,513.71s-3.38,3.01-4.07,3.95c-.61.82.47,1.87.47,1.87l2.65-2.7c.33,7.31-4.12,7.91-10.29,6.28,1.43,6.34,2.9,11.8-9.19,11.8-1.35,0-1.36,2.05-.01,2.05,8.38,0,13.94-3.19,11.98-11.26,6.54.88,9.05-1.72,9.31-8.86l2.73,2.69s1.1-1.05.5-1.87c-.85-1.18-4.08-3.95-4.08-3.95Z"/>
      <path class="cls-20" d="m520.91,514.61c0,.5.39.92.87.92h1.82v22.29c0,.49.39.89.85.89h.42c.46,0,.85-.4.85-.89v-22.29h1.82c.48,0,.87-.42.87-.92s-.39-.91-.87-.91h-5.76c-.48,0-.87.41-.87.91Z"/>
      <path class="cls-30" d="m345.68,556.24c-.35-.35-.93-.37-1.26-.03l-1.29,1.29-15.76-15.76c-.35-.35-.9-.35-1.23-.03l-.3.3c-.33.33-.32.88.03,1.23l15.76,15.76-1.29,1.29c-.34.34-.32.91.03,1.26s.92.37,1.26.03l4.07-4.07c.34-.34.33-.9-.03-1.26Z"/>
      <text class="cls-15" transform="translate(39.93 543.76)"><tspan x="0" y="0">“N-One-One”</tspan></text>
      <path d="m533.79,580.87v.85h-3v-.85h.98v-2.4h-.98v-.88l.33-.03c.23-.02.37-.03.71-.12s.58-.22.58-.22h.4v3.65h.98Z"/>
      <path d="m533.79,588.37v.85h-3v-.85h.98v-2.4h-.98v-.88l.33-.03c.23-.02.37-.03.71-.12s.58-.22.58-.22h.4v3.65h.98Z"/>
      <path class="cls-30" d="m338.75,563.22s.25-3.59.08-4.69c-.14-.83-1.4-.81-1.4-.81l-.02,3.04c-9.7-9.7-9.38-8.57-9.38,7.17,0,.97,1.85,1.01,1.84-.17,0-13.61-1.15-13.32,6.28-5.88l-2.91.02s-.02,1.26.81,1.4c1.1.17,4.69-.08,4.69-.08Z"/>
      <path class="cls-20" d="m303.64,524.8c.35.35.93.37,1.26.03l1.29-1.29,15.76,15.76c.35.35.9.35,1.23.03l.3-.3c.33-.33.32-.88-.03-1.23l-15.76-15.76,1.29-1.29c.34-.34.32-.91-.03-1.26s-.92-.37-1.26-.03l-4.07,4.07c-.34.34-.33.9.03,1.26Z"/>
      <path class="cls-20" d="m301.96,526.43s3.59-.25,4.69-.08c.83.14.81,1.4.81,1.4l-3.04.02c9.7,9.7,8.57,9.38-7.17,9.38-.97,0-1.01-1.85.17-1.84,13.61,0,13.32,1.15,5.88-6.28l-.02,2.91s-1.26.02-1.4-.81c-.17-1.1.08-4.69.08-4.69Z"/>
      <path class="cls-30" d="m451.76,546.26s-2.36-2.72-3.26-3.37c-.68-.49-1.56.42-1.56.42l2.13,2.17c-13.72,0-12.69.57-1.56,11.7.68.68,2.03-.59,1.18-1.43-9.62-9.62-10.23-8.61.28-8.6l-2.04,2.07s.88.91,1.56.42c.9-.66,3.26-3.37,3.26-3.37Z"/>
      <path class="cls-20" d="m418.92,513.42s2.72,2.36,3.37,3.26c.49.68-.42,1.56-.42,1.56l-2.17-2.13c0,13.72-.57,12.69-11.7,1.56-.68-.68.59-2.03,1.43-1.18,9.62,9.62,8.61,10.23,8.6-.28l-2.07,2.04s-.91-.88-.42-1.56c.66-.9,3.37-3.26,3.37-3.26Z"/>
      <path class="cls-20" d="m428.41,537.8c0-.5-.39-.92-.87-.92h-1.82s0-22.29,0-22.29c0-.49-.39-.89-.85-.89h-.42c-.46,0-.85.4-.85.89v22.29s-1.82,0-1.82,0c-.48,0-.87.42-.87.92,0,.5.39.91.87.91h5.76c.48,0,.87-.41.87-.91Z"/>
      <path class="cls-20" d="m221.94,536.77c-.5,0-.92.39-.92.87v1.82h-22.29c-.49,0-.89.39-.89.85v.42c0,.46.4.85.89.85h22.29v1.82c0,.48.42.87.92.87.5,0,.91-.39.91-.87v-5.76c0-.48-.41-.87-.91-.87Z"/>
      <path class="cls-30" d="m220.91,543.24c0,.5.39.92.87.92h1.82v22.29c0,.49.39.89.85.89h.42c.46,0,.85-.4.85-.89v-22.29h1.82c.48,0,.87-.42.87-.92,0-.5-.39-.91-.87-.91h-5.76c-.48,0-.87.41-.87.91Z"/>
    </g>
    <g>
      <path d="m148.98,535.51v1.69h-6v-1.69h1.96v-4.8h-1.96v-1.76l.66-.07c.46-.05.74-.05,1.41-.24.69-.19,1.17-.44,1.17-.44h.8v7.31h1.96Z"/>
      <path d="m148.98,550.51v1.69h-6v-1.69h1.96v-4.8h-1.96v-1.76l.66-.07c.46-.05.74-.05,1.41-.24.69-.19,1.17-.44,1.17-.44h.8v7.31h1.96Z"/>
    </g>
  </g>
  <g>
    <path class="cls-20" d="m533.85,430.75s3.38-3.01,4.07-3.95c.61-.82-.47-1.87-.47-1.87l-2.65,2.7c-.33-7.31,4.12-7.91,10.29-6.28-1.43-6.34-2.9-11.8,9.19-11.8,1.35,0,1.36-2.05.01-2.05-8.38,0-13.94,3.19-11.98,11.26-6.54-.88-9.05,1.72-9.31,8.86l-2.73-2.69s-1.1,1.05-.5,1.87c.85,1.18,4.08,3.95,4.08,3.95Z"/>
    <path class="cls-30" d="m532.39,406.99l-1.81,3.11s-1.3-.75-.92-1.7c.44-1.07,2.98-4.82,2.98-4.82,0,0,3.81,1.9,4.92,2.83.79.65-.02,1.94-.02,1.94l-3.16-1.86s-.07-.08-.11-.11c3.21,12.12,16.23,10.66,17.88-1.57.1-.76.72-1.34,1.28-1.22.49.11.95.42.8,1.4-2.35,14.98-18.27,15.63-21.84,2Z"/>
    <g>
      <circle class="cls-16" cx="224.66" cy="430.52" r="2.5"/>
      <circle class="cls-16" cx="254.66" cy="400.52" r="2.5"/>
      <circle class="cls-16" cx="224.66" cy="370.52" r="2.5"/>
      <circle class="cls-16" cx="194.66" cy="400.52" r="2.5"/>
      <circle class="cls-16" cx="224.66" cy="400.52" r="1.12"/>
    </g>
    <g>
      <circle class="cls-16" cx="324.66" cy="430.52" r="2.5"/>
      <circle class="cls-16" cx="354.66" cy="400.52" r="2.5"/>
      <circle class="cls-16" cx="324.66" cy="370.52" r="2.5"/>
      <circle class="cls-16" cx="294.66" cy="400.52" r="2.5"/>
      <circle class="cls-16" cx="324.66" cy="400.52" r="1.12"/>
    </g>
    <g>
      <circle class="cls-16" cx="424.66" cy="430.52" r="2.5"/>
      <circle class="cls-16" cx="454.66" cy="400.52" r="2.5"/>
      <circle class="cls-16" cx="424.66" cy="370.52" r="2.5"/>
      <circle class="cls-16" cx="394.66" cy="400.52" r="2.5"/>
      <circle class="cls-16" cx="424.66" cy="400.52" r="1.12"/>
    </g>
    <g>
      <circle class="cls-16" cx="524.66" cy="430.52" r="2.5"/>
      <circle class="cls-16" cx="554.66" cy="400.52" r="2.5"/>
      <circle class="cls-16" cx="524.66" cy="370.52" r="2.5"/>
      <circle class="cls-16" cx="494.66" cy="400.52" r="2.5"/>
      <circle class="cls-16" cx="524.66" cy="400.52" r="1.12"/>
    </g>
    <text class="cls-15" transform="translate(219.48 361.87)"><tspan x="0" y="0">in</tspan></text>
    <text class="cls-15" transform="translate(409.37 361.87)"><tspan x="0" y="0">mi</tspan><tspan class="cls-31" x="12.84" y="0">x</tspan><tspan x="18.11" y="0">ed</tspan></text>
    <polygon class="cls-16" points="264.15 399.61 279.1 399.61 279.1 396.44 284.31 400.52 279.1 404.59 279.1 401.43 264.15 401.43 264.15 399.61"/>
    <polygon class="cls-16" points="364.15 399.61 379.1 399.61 379.1 396.44 384.31 400.52 379.1 404.59 379.1 401.43 364.15 401.43 364.15 399.61"/>
    <path class="cls-16" d="m470.27,399.19v-2.34h10.55v2.34h-10.55Zm0,4.99v-2.34h10.55v2.34h-10.55Z"/>
    <path class="cls-30" d="m418.41,426.42c0-.5.39-.92.87-.92h1.82s0-22.29,0-22.29c0-.49.39-.89.85-.89h.42c.46,0,.85.4.85.89v22.29s1.82,0,1.82,0c.48,0,.87.42.87.92,0,.5-.39.91-.87.91h-5.76c-.48,0-.87-.41-.87-.91Z"/>
    <path class="cls-20" d="m430.91,403.24c0,.5-.39.92-.87.92h-1.82s0,22.29,0,22.29c0,.49-.39.89-.85.89h-.42c-.46,0-.85-.4-.85-.89v-22.29s-1.82,0-1.82,0c-.48,0-.87-.42-.87-.92,0-.5.39-.91.87-.91h5.76c.48,0,.87.41.87.91Z"/>
    <path class="cls-30" d="m518.41,426.42c0-.5.39-.92.87-.92h1.82s0-22.29,0-22.29c0-.49.39-.89.85-.89h.42c.46,0,.85.4.85.89v22.29s1.82,0,1.82,0c.48,0,.87.42.87.92,0,.5-.39.91-.87.91h-5.76c-.48,0-.87-.41-.87-.91Z"/>
    <path class="cls-20" d="m530.91,403.24c0,.5-.39.92-.87.92h-1.82s0,22.29,0,22.29c0,.49-.39.89-.85.89h-.42c-.46,0-.85-.4-.85-.89v-22.29s-1.82,0-1.82,0c-.48,0-.87-.42-.87-.92,0-.5.39-.91.87-.91h5.76c.48,0,.87.41.87.91Z"/>
    <path class="cls-20" d="m227.38,401.77c.5,0,.92-.39.92-.87v-1.82s22.29,0,22.29,0c.49,0,.89-.39.89-.85v-.42c0-.46-.4-.85-.89-.85h-22.29s0-1.82,0-1.82c0-.48-.42-.87-.92-.87s-.91.39-.91.87v5.76c0,.48.41.87.91.87Z"/>
    <path class="cls-30" d="m227.38,406.77c.5,0,.92-.39.92-.87v-1.82s22.29,0,22.29,0c.49,0,.89-.39.89-.85v-.42c0-.46-.4-.85-.89-.85h-22.29s0-1.82,0-1.82c0-.48-.42-.87-.92-.87s-.91.39-.91.87v5.76c0,.48.41.87.91.87Z"/>
    <text class="cls-15" transform="translate(42.04 405.21)"><tspan x="0" y="0">“I-One-One”</tspan></text>
    <g>
      <path d="m148.26,395.65v1.65h-5.85v-1.65h1.91v-4.69h-1.91v-1.72l.65-.07c.45-.04.72-.05,1.38-.23.67-.18,1.14-.43,1.14-.43h.78v7.13h1.91Z"/>
      <path d="m148.26,410.87v1.65h-5.85v-1.65h1.91v-4.69h-1.91v-1.72l.65-.07c.45-.04.72-.05,1.38-.23.67-.18,1.14-.43,1.14-.43h.78v7.13h1.91Z"/>
    </g>
    <path d="m533.1,441.36v.85h-3v-.85h.98v-2.4h-.98v-.88l.33-.03c.23-.02.37-.03.71-.12s.58-.22.58-.22h.4v3.65h.98Z"/>
    <path d="m533.1,448.86v.85h-3v-.85h.98v-2.4h-.98v-.88l.33-.03c.23-.02.37-.03.71-.12s.58-.22.58-.22h.4v3.65h.98Z"/>
    <path class="cls-20" d="m350.57,415.79s-3.59.25-4.69.08c-.83-.14-.81-1.4-.81-1.4l3.04-.02c-9.7-9.7-8.57-9.38,7.17-9.38.97,0,1.01,1.85-.17,1.84-13.61,0-13.32-1.15-5.88,6.28l.02-2.91s1.26-.02,1.4.81c.17,1.1-.08,4.69-.08,4.69Z"/>
    <path class="cls-20" d="m433.37,420.29s-2.72-2.36-3.37-3.26c-.49-.68.42-1.56.42-1.56l2.17,2.13c0-13.72.57-12.69,11.7-1.56.68.68-.59,2.03-1.43,1.18-9.62-9.62-8.61-10.23-8.6.28l2.07-2.04s.91.88.42,1.56c-.66.9-3.37,3.26-3.37,3.26Z"/>
    <path class="cls-30" d="m434.02,426.12c-1.11-.14-4.49-1.37-4.49-1.37,0,0,1.02-4.1,1.22-4.53.36-.77,1.56-.39,1.56-.39l-.82,2.95h0c5.95-3.02,14.28-11.23,10.69-20.37-.62-1.22,1.07-1.94,1.52-.82,4.1,10.05-4.26,18.95-11.4,22.56l2.88.85s-.32,1.21-1.16,1.12Z"/>
    <path class="cls-30" d="m334.08,422.48c-1.04-.42-3.98-2.49-3.98-2.49,0,0,2.04-3.7,2.35-4.06.55-.65,1.61.03,1.61.03l-1.55,2.64h0c6.53-1.38,16.7-7.15,15.6-16.91-.28-1.34,1.53-1.6,1.68-.4,1.36,10.77-9.02,17.2-16.86,18.84l2.56,1.57s-.63,1.09-1.41.78Z"/>
    <path class="cls-20" d="m340.06,421.77c-.35-.35-.37-.93-.03-1.26l1.29-1.29-15.76-15.76c-.35-.35-.35-.9-.03-1.23l.3-.3c.33-.33.88-.32,1.23.03l15.76,15.76,1.29-1.29c.34-.34.91-.32,1.26.03s.37.92.03,1.26l-4.07,4.07c-.34.34-.9.33-1.26-.03Z"/>
    <path class="cls-30" d="m343.73,405.09c-.35.35-.93.37-1.26.03l-1.29-1.29-15.76,15.76c-.35.35-.9.35-1.23.03l-.3-.3c-.33-.33-.32-.88.03-1.23l15.76-15.76-1.29-1.29c-.34-.34-.32-.91.03-1.26s.92-.37,1.26-.03l4.07,4.07c.34.34.33.9-.03,1.26Z"/>
  </g>
  <g>
    <path class="cls-20" d="m519.36,667.24l1.81,3.11s1.3-.75.92-1.7c-.44-1.07-2.98-4.82-2.98-4.82,0,0-3.81,1.9-4.92,2.83-.79.65.02,1.94.02,1.94l3.16-1.86s.07-.08.11-.11c-3.21,12.12-16.23,10.66-17.88-1.57-.1-.76-.72-1.34-1.28-1.22-.49.11-.95.42-.8,1.4,2.35,14.98,18.27,15.63,21.84,2Z"/>
    <g>
      <circle class="cls-16" cx="224.66" cy="690.52" r="2.5"/>
      <circle class="cls-16" cx="254.66" cy="660.52" r="2.5"/>
      <circle class="cls-16" cx="224.66" cy="630.52" r="2.5"/>
      <circle class="cls-16" cx="194.66" cy="660.52" r="2.5"/>
      <circle class="cls-16" cx="224.66" cy="660.52" r="1.12"/>
    </g>
    <g>
      <circle class="cls-16" cx="324.66" cy="690.52" r="2.5"/>
      <circle class="cls-16" cx="354.66" cy="660.52" r="2.5"/>
      <circle class="cls-16" cx="324.66" cy="630.52" r="2.5"/>
      <circle class="cls-16" cx="294.66" cy="660.52" r="2.5"/>
      <circle class="cls-16" cx="324.66" cy="660.52" r="1.12"/>
    </g>
    <g>
      <circle class="cls-16" cx="424.66" cy="690.52" r="2.5"/>
      <circle class="cls-16" cx="454.66" cy="660.52" r="2.5"/>
      <circle class="cls-16" cx="424.66" cy="630.52" r="2.5"/>
      <circle class="cls-16" cx="394.66" cy="660.52" r="2.5"/>
      <circle class="cls-16" cx="424.66" cy="660.52" r="1.12"/>
    </g>
    <g>
      <circle class="cls-16" cx="524.66" cy="690.52" r="2.5"/>
      <circle class="cls-16" cx="554.66" cy="660.52" r="2.5"/>
      <circle class="cls-16" cx="524.66" cy="630.52" r="2.5"/>
      <circle class="cls-16" cx="494.66" cy="660.52" r="2.5"/>
      <circle class="cls-16" cx="524.66" cy="660.52" r="1.12"/>
    </g>
    <text class="cls-15" transform="translate(219.48 623.26)"><tspan x="0" y="0">in</tspan></text>
    <text class="cls-15" transform="translate(409.37 623.26)"><tspan x="0" y="0">mi</tspan><tspan class="cls-31" x="12.84" y="0">x</tspan><tspan x="18.11" y="0">ed</tspan></text>
    <polygon class="cls-16" points="264.15 659.61 279.1 659.61 279.1 656.44 284.31 660.52 279.1 664.59 279.1 661.43 264.15 661.43 264.15 659.61"/>
    <polygon class="cls-16" points="364.15 659.61 379.1 659.61 379.1 656.44 384.31 660.52 379.1 664.59 379.1 661.43 364.15 661.43 364.15 659.61"/>
    <path class="cls-16" d="m470.27,659.19v-2.34h10.55v2.34h-10.55Zm0,4.99v-2.34h10.55v2.34h-10.55Z"/>
    <path class="cls-20" d="m420.91,686.42c0-.5.39-.92.87-.92h1.82s0-22.29,0-22.29c0-.49.39-.89.85-.89h.42c.46,0,.85.4.85.89v22.29s1.82,0,1.82,0c.48,0,.87.42.87.92,0,.5-.39.91-.87.91h-5.76c-.48,0-.87-.41-.87-.91Z"/>
    <path class="cls-30" d="m427.38,656.77c.5,0,.92.39.92.87v1.82s22.29,0,22.29,0c.49,0,.89.39.89.85v.42c0,.46-.4.85-.89.85h-22.29s0,1.82,0,1.82c0,.48-.42.87-.92.87s-.91-.39-.91-.87v-5.76c0-.48.41-.87.91-.87Z"/>
    <path class="cls-30" d="m220.91,663.24c0,.5.39.92.87.92h1.82v22.29c0,.49.39.89.85.89h.42c.46,0,.85-.4.85-.89v-22.29h1.82c.48,0,.87-.42.87-.92s-.39-.91-.87-.91h-5.76c-.48,0-.87.41-.87.91Z"/>
    <path class="cls-20" d="m221.94,656.77c-.5,0-.92.39-.92.87v1.82h-22.29c-.49,0-.89.39-.89.85v.42c0,.46.4.85.89.85h22.29v1.82c0,.48.42.87.92.87.5,0,.91-.39.91-.87v-5.76c0-.48-.41-.87-.91-.87Z"/>
    <path class="cls-30" d="m527.38,656.77c.5,0,.92.39.92.87v1.82s22.29,0,22.29,0c.49,0,.89.39.89.85v.42c0,.46-.4.85-.89.85h-22.29s0,1.82,0,1.82c0,.48-.42.87-.92.87s-.91-.39-.91-.87v-5.76c0-.48.41-.87.91-.87Z"/>
    <path class="cls-20" d="m528.41,686.42c0-.5-.39-.92-.87-.92h-1.82v-22.29c0-.49-.39-.89-.85-.89h-.42c-.46,0-.85.4-.85.89v22.29h-1.82c-.48,0-.87.42-.87.92,0,.5.39.91.87.91h5.76c.48,0,.87-.41.87-.91Z"/>
    <path class="cls-30" d="m340.06,681.77c-.35-.35-.37-.93-.03-1.26l1.29-1.29-15.76-15.76c-.35-.35-.35-.9-.03-1.23l.3-.3c.33-.33.88-.32,1.23.03l15.76,15.76,1.29-1.29c.34-.34.91-.32,1.26.03s.37.92.03,1.26l-4.07,4.07c-.34.34-.9.33-1.26-.03Z"/>
    <path class="cls-20" d="m305.59,665.09c.35.35.93.37,1.26.03l1.29-1.29,15.76,15.76c.35.35.9.35,1.23.03l.3-.3c.33-.33.32-.88-.03-1.23l-15.76-15.76,1.29-1.29c.34-.34.32-.91-.03-1.26-.35-.35-.92-.37-1.26-.03l-4.07,4.07c-.34.34-.33.9.03,1.26Z"/>
    <text class="cls-15" transform="translate(40.89 664.71)"><tspan x="0" y="0">“</tspan><tspan class="cls-23" x="4.4" y="0">V</tspan><tspan x="10.54" y="0">-One-One”</tspan></text>
    <g>
      <path d="m148.26,655.65v1.65h-5.85v-1.65h1.91v-4.69h-1.91v-1.72l.65-.07c.45-.04.72-.05,1.38-.23.67-.18,1.14-.43,1.14-.43h.78v7.13h1.91Z"/>
      <path d="m148.26,670.87v1.65h-5.85v-1.65h1.91v-4.69h-1.91v-1.72l.65-.07c.45-.04.72-.05,1.38-.23.67-.18,1.14-.43,1.14-.43h.78v7.13h1.91Z"/>
    </g>
    <path d="m532.23,701.61v.85h-3v-.85h.98v-2.4h-.98v-.88l.33-.03c.23-.02.37-.03.71-.12s.58-.22.58-.22h.4v3.65h.98Z"/>
    <path d="m532.23,709.11v.85h-3v-.85h.98v-2.4h-.98v-.88l.33-.03c.23-.02.37-.03.71-.12s.58-.22.58-.22h.4v3.65h.98Z"/>
    <path class="cls-30" d="m338.03,683.11s.25-3.59.08-4.69c-.14-.83-1.4-.81-1.4-.81l-.02,3.04c-9.7-9.7-9.38-8.57-9.38,7.17,0,.97,1.85,1.01,1.84-.17,0-13.61-1.15-13.32,6.28-5.88l-2.91.02s-.02,1.26.81,1.4c1.1.17,4.69-.08,4.69-.08Z"/>
    <path class="cls-30" d="m451.14,666.08s-2.36-2.72-3.26-3.37c-.68-.49-1.56.42-1.56.42l2.13,2.17c-13.72,0-12.69.57-1.56,11.7.68.68,2.03-.59,1.18-1.43-9.62-9.62-10.23-8.61.28-8.6l-2.04,2.07s.88.91,1.56.42c.9-.66,3.26-3.37,3.26-3.37Z"/>
    <path class="cls-30" d="m553.71,667.61s-3.01,3.38-3.95,4.07c-.82.61-1.87-.47-1.87-.47l2.7-2.65c-7.31-.33-7.91,4.12-6.28,10.29-6.34-1.43-11.8-2.9-11.8,9.19,0,1.35-2.05,1.36-2.05.01,0-8.38,3.19-13.94,11.26-11.98-.88-6.54,1.72-9.05,8.86-9.31l-2.69-2.73s1.05-1.1,1.87-.5c1.18.85,3.95,4.08,3.95,4.08Z"/>
    <path class="cls-20" d="m416.1,687.12c1.11-.14,4.49-1.37,4.49-1.37,0,0-1.02-4.1-1.22-4.53-.36-.77-1.56-.39-1.56-.39l.82,2.95h0c-5.95-3.02-14.28-11.23-10.69-20.37.62-1.22-1.07-1.94-1.52-.82-4.1,10.05,4.26,18.95,11.4,22.56l-2.88.85s.32,1.21,1.16,1.12Z"/>
    <path class="cls-20" d="m315.25,682.48c1.04-.42,3.98-2.49,3.98-2.49,0,0-2.04-3.7-2.35-4.06-.55-.65-1.61.03-1.61.03l1.55,2.64h0c-6.53-1.38-16.7-7.15-15.6-16.91.28-1.34-1.53-1.6-1.68-.4-1.36,10.77,9.02,17.2,16.86,18.84l-2.56,1.57s.63,1.09,1.41.78Z"/>
  </g>
  <path class="cls-16" d="m138.48,533.16c-.39,1.57-2.73,13.1-3.15,14.66-.42,1.56-.87,2.67-1.81,2.69-.98.02-1.28-.55-2.33-2.5-1.06-1.95-3.31-6.94-4.87-11.12-1.06,3.79-1.45,7.94-2.33,10.97-.49,1.7-1.16,2.72-2.04,2.58-.2-.03-2.09-.52-1.5-2.72.44-1.61,2.95-12,3.92-15.23.97-3.23,3.08-1.71,3.46-.88.38.82,4.62,11.2,5.33,13.06.38-1.7,1.38-9.01,2.17-12.55.27-1.2,1.63-1.76,2.2-1.53.57.24,1.35,1,.96,2.57Z"/>
  <path class="cls-16" d="m529.17,580.31c-.2.78-1.37,6.55-1.58,7.33s-.44,1.33-.9,1.35c-.49.01-.64-.27-1.17-1.25s-1.66-3.47-2.44-5.56c-.53,1.89-.73,3.97-1.16,5.48-.25.85-.58,1.36-1.02,1.29-.1-.02-1.05-.26-.75-1.36.22-.81,1.48-6,1.96-7.62.48-1.62,1.54-.85,1.73-.44.19.41,2.31,5.6,2.67,6.53.19-.85.69-4.5,1.08-6.27.13-.6.81-.88,1.1-.76s.68.5.48,1.29Z"/>
  <path class="cls-16" d="m527.3,700.3c-.06.29-1.97,5.54-3.02,7.94-.32.73-.61.72-.74.72s-.42,0-.74-.72c-1.05-2.4-2.96-7.64-3.02-7.94-.23-1,.08-1.16.44-1.3.28-.13.86-.02,1.12.7.16.42,2.2,5.86,2.2,5.86,0,0,2.05-5.44,2.2-5.86.25-.72.83-.82,1.12-.7.36.15.67.3.44,1.3Z"/>
  <path class="cls-16" d="m139.73,653.22c-.12.59-3.94,11.07-6.04,15.87-.65,1.45-1.21,1.43-1.49,1.43s-.84.02-1.49-1.43c-2.1-4.8-5.92-15.28-6.04-15.87-.45-2,.16-2.31.88-2.61.57-.25,1.72-.04,2.23,1.39.31.84,4.41,11.72,4.41,11.72,0,0,4.1-10.87,4.41-11.72.51-1.43,1.67-1.65,2.23-1.39.72.29,1.33.61.88,2.61Z"/>
  <line class="cls-2" x1="122.53" y1="342.54" x2="557.16" y2="342.54"/>
  <line class="cls-3" x1="33.24" y1="472.54" x2="557.16" y2="472.54"/>
  <line class="cls-2" x1="122.53" y1="602.54" x2="557.16" y2="602.54"/>
  <path class="cls-16" d="m137.71,409.04c0,1.3-.72,1.48-3,1.48h-8.66c-2.26,0-3-.18-3-1.48s.98-1.46,3.5-1.46,2.34.64,2.34-7.11.2-7.01-4-7.01c-.98,0-1.84-.32-1.84-1.44s.4-1.5,1.98-1.5h10.7c1.58,0,1.98.4,1.98,1.5s-.86,1.44-1.84,1.44c-4.2,0-4-.74-4,7.01s-.28,7.11,2.34,7.11,3.5.16,3.5,1.46Z"/>
  <path class="cls-16" d="m528.33,447.97c0,.65-.36.74-1.5.74h-4.33c-1.13,0-1.5-.09-1.5-.74s.49-.73,1.75-.73,1.17.32,1.17-3.55.1-3.5-2-3.5c-.49,0-.92-.16-.92-.72s.2-.75.99-.75h5.35c.79,0,.99.2.99.75s-.43.72-.92.72c-2.1,0-2-.37-2,3.5s-.14,3.55,1.17,3.55,1.75.08,1.75.73Z"/>
  <text class="cls-13" transform="translate(66.88 755.02)"><tspan class="cls-29" x="0" y="0">P</tspan><tspan x="8.22" y="0">ause at the half</tspan><tspan class="cls-33" x="104.79" y="0">w</tspan><tspan class="cls-29" x="116.12" y="0">a</tspan><tspan x="123.16" y="0">y point of each motion. This will ensu</tspan><tspan class="cls-34" x="361" y="0">r</tspan><tspan x="366.99" y="0">e accu</tspan><tspan class="cls-19" x="406.44" y="0">r</tspan><tspan x="412.39" y="0">a</tspan><tspan class="cls-24" x="419.71" y="0">t</tspan><tspan x="424.65" y="0">e timing.</tspan></text>
</svg>