<?xml version="1.0" encoding="UTF-8"?>
<svg id="Layer_1" data-name="Layer 1" xmlns="http://www.w3.org/2000/svg" viewBox="0 0 792 612">
  <defs>
    <style>
      .cls-1 {
        letter-spacing: 0em;
      }

      .cls-1, .cls-2, .cls-3, .cls-4, .cls-5 {
        font-family: Cambria-BoldItalic, Cambria;
        font-weight: 700;
      }

      .cls-1, .cls-3 {
        fill: #00a14b;
      }

      .cls-2 {
        letter-spacing: -.03em;
      }

      .cls-2, .cls-6, .cls-7, .cls-8, .cls-9, .cls-4, .cls-10 {
        fill: #231f20;
      }

      .cls-6 {
        stroke-width: .5px;
      }

      .cls-6, .cls-8 {
        stroke: #231f20;
        stroke-miterlimit: 10;
      }

      .cls-11 {
        fill: #2e3192;
      }

      .cls-7 {
        font-family: Cambria, Cambria;
      }

      .cls-7, .cls-12 {
        font-size: 30px;
      }

      .cls-12 {
        font-style: italic;
      }

      .cls-8 {
        stroke-width: 2px;
      }

      .cls-9 {
        font-family: Cambria-Italic, Cambria;
      }

      .cls-13 {
        fill: #ed1c24;
      }

      .cls-5 {
        fill: #7f3f98;
      }
    </style>
  </defs>
  <path class="cls-13" d="m89.33,435.08l3.11-1.81s-.75-1.3-1.7-.92c-1.07.44-4.82,2.98-4.82,2.98,0,0,1.9,3.81,2.83,4.92.65.79,1.94-.02,1.94-.02l-1.86-3.16s-.08-.07-.11-.11c12.12,3.21,10.66,16.23-1.57,17.88-.76.1-1.34.72-1.22,1.28.11.49.42.95,1.4.8,14.98-2.35,15.63-18.27,2-21.84Z"/>
  <rect class="cls-13" x="83.41" y="427.8" width="25.25" height="2.59" rx=".99" ry=".99"/>
  <rect class="cls-11" x="54.98" y="427.8" width="25.25" height="2.59" rx=".99" ry=".99"/>
  <path class="cls-13" d="m198.35,435.94s-3.01,3.38-3.95,4.07c-.82.61-1.87-.47-1.87-.47l2.7-2.65c-7.31-.33-7.91,4.12-6.28,10.29-6.34-1.43-11.8-2.9-11.8,9.19,0,1.35-2.05,1.36-2.05.01,0-8.38,3.19-13.94,11.26-11.98-.88-6.54,1.72-9.05,8.86-9.31l-2.69-2.73s1.05-1.1,1.87-.5c1.18.85,3.95,4.08,3.95,4.08Z"/>
  <path class="cls-13" d="m268.6,435.42l-1.81,3.11s-1.3-.75-.92-1.7c.44-1.07,2.98-4.82,2.98-4.82,0,0,3.81,1.9,4.92,2.83.79.65-.02,1.94-.02,1.94l-3.16-1.86s-.07-.08-.11-.11c3.21,12.12,16.23,10.66,17.88-1.57.1-.76.72-1.34,1.28-1.22.49.11.95.42.8,1.4-2.35,14.98-18.27,15.63-21.84,2Z"/>
  <path class="cls-13" d="m360.53,456.09s3.38-3.01,4.07-3.95c.61-.82-.47-1.87-.47-1.87l-2.65,2.7c-.33-7.31,4.12-7.91,10.29-6.28-1.43-6.34-2.9-11.8,9.19-11.8,1.35,0,1.36-2.05.01-2.05-8.38,0-13.94,3.19-11.98,11.26-6.54-.88-9.05,1.72-9.31,8.86l-2.73-2.69s-1.1,1.05-.5,1.87c.85,1.18,4.08,3.95,4.08,3.95Z"/>
  <path class="cls-13" d="m87.09,284.4l-1.81,3.11s-1.3-.75-.92-1.7c.44-1.07,2.98-4.82,2.98-4.82,0,0,3.81,1.9,4.92,2.83.79.65-.02,1.94-.02,1.94l-3.16-1.86s-.07-.08-.11-.11c3.21,12.12,16.23,10.66,17.88-1.57.1-.76.72-1.34,1.28-1.22.49.11.95.42.8,1.4-2.35,14.98-18.27,15.63-21.84,2Z"/>
  <path class="cls-13" d="m87.11,535.42l-1.81,3.11s-1.3-.75-.92-1.7c.44-1.07,2.98-4.82,2.98-4.82,0,0,3.81,1.9,4.92,2.83.79.65-.02,1.94-.02,1.94l-3.16-1.86s-.07-.08-.11-.11c3.21,12.12,16.23,10.66,17.88-1.57.1-.76.72-1.34,1.28-1.22.49.11.95.42.8,1.4-2.35,14.98-18.27,15.63-21.84,2Z"/>
  <path class="cls-13" d="m180.53,306.09s3.38-3.01,4.07-3.95c.61-.82-.47-1.87-.47-1.87l-2.65,2.7c-.33-7.31,4.12-7.91,10.29-6.28-1.43-6.34-2.9-11.8,9.19-11.8,1.35,0,1.36-2.05.01-2.05-8.38,0-13.94,3.19-11.98,11.26-6.54-.88-9.05,1.72-9.31,8.86l-2.73-2.69s-1.1,1.05-.5,1.87c.85,1.18,4.08,3.95,4.08,3.95Z"/>
  <path class="cls-13" d="m180.53,556.09s3.38-3.01,4.07-3.95c.61-.82-.47-1.87-.47-1.87l-2.65,2.7c-.33-7.31,4.12-7.91,10.29-6.28-1.43-6.34-2.9-11.8,9.19-11.8,1.35,0,1.36-2.05.01-2.05-8.38,0-13.94,3.19-11.98,11.26-6.54-.88-9.05,1.72-9.31,8.86l-2.73-2.69s-1.1,1.05-.5,1.87c.85,1.18,4.08,3.95,4.08,3.95Z"/>
  <path class="cls-13" d="m256.31,285.47l1.81,3.11s1.3-.75.92-1.7c-.44-1.07-2.98-4.82-2.98-4.82,0,0-3.81,1.9-4.92,2.83-.79.65.02,1.94.02,1.94l3.16-1.86s.07-.08.11-.11c-3.21,12.12-16.23,10.66-17.88-1.57-.1-.76-.72-1.34-1.28-1.22-.49.11-.95.42-.8,1.4,2.35,14.98,18.27,15.63,21.84,2Z"/>
  <path class="cls-13" d="m256.18,535.47l1.81,3.11s1.3-.75.92-1.7c-.44-1.07-2.98-4.82-2.98-4.82,0,0-3.81,1.9-4.92,2.83-.79.65.02,1.94.02,1.94l3.16-1.86s.07-.08.11-.11c-3.21,12.12-16.23,10.66-17.88-1.57-.1-.76-.72-1.34-1.28-1.22-.49.11-.95.42-.8,1.4,2.35,14.98,18.27,15.63,21.84,2Z"/>
  <path class="cls-13" d="m344.85,306.14s-3.38-3.01-4.07-3.95c-.61-.82.47-1.87.47-1.87l2.65,2.7c.33-7.31-4.12-7.91-10.29-6.28,1.43-6.34,2.9-11.8-9.19-11.8-1.35,0-1.36-2.05-.01-2.05,8.38,0,13.94,3.19,11.98,11.26,6.54-.88,9.05,1.72,9.31,8.86l2.73-2.69s1.1,1.05.5,1.87c-.85,1.18-4.08,3.95-4.08,3.95Z"/>
  <path class="cls-13" d="m344.85,556.14s-3.38-3.01-4.07-3.95c-.61-.82.47-1.87.47-1.87l2.65,2.7c.33-7.31-4.12-7.91-10.29-6.28,1.43-6.34,2.9-11.8-9.19-11.8-1.35,0-1.36-2.05-.01-2.05,8.38,0,13.94,3.19,11.98,11.26,6.54-.88,9.05,1.72,9.31,8.86l2.73-2.69s1.1,1.05.5,1.87c-.85,1.18-4.08,3.95-4.08,3.95Z"/>
  <rect class="cls-13" x="80.53" y="280.68" width="2.59" height="25.25" rx=".99" ry=".99"/>
  <rect class="cls-11" x="54.98" y="277.8" width="25.25" height="2.59" rx=".99" ry=".99"/>
  <rect class="cls-13" x="80.53" y="530.68" width="2.59" height="25.25" rx=".99" ry=".99"/>
  <rect class="cls-11" x="54.98" y="527.8" width="25.25" height="2.59" rx=".99" ry=".99"/>
  <rect class="cls-13" x="170.53" y="280.68" width="2.59" height="25.25" rx=".99" ry=".99"/>
  <rect class="cls-11" x="144.98" y="277.8" width="25.25" height="2.59" rx=".99" ry=".99"/>
  <rect class="cls-13" x="170.53" y="530.68" width="2.59" height="25.25" rx=".99" ry=".99"/>
  <rect class="cls-11" x="144.98" y="527.8" width="25.25" height="2.59" rx=".99" ry=".99"/>
  <rect class="cls-13" x="260.53" y="280.68" width="2.59" height="25.25" rx=".99" ry=".99"/>
  <rect class="cls-11" x="234.98" y="277.8" width="25.25" height="2.59" rx=".99" ry=".99"/>
  <rect class="cls-13" x="260.53" y="530.68" width="2.59" height="25.25" rx=".99" ry=".99"/>
  <rect class="cls-11" x="234.98" y="527.8" width="25.25" height="2.59" rx=".99" ry=".99"/>
  <rect class="cls-13" x="350.53" y="280.68" width="2.59" height="25.25" rx=".99" ry=".99"/>
  <rect class="cls-11" x="324.98" y="277.8" width="25.25" height="2.59" rx=".99" ry=".99"/>
  <rect class="cls-13" x="350.53" y="530.68" width="2.59" height="25.25" rx=".99" ry=".99"/>
  <rect class="cls-11" x="324.98" y="527.8" width="25.25" height="2.59" rx=".99" ry=".99"/>
  <rect class="cls-13" x="173.41" y="427.8" width="25.25" height="2.59" rx=".99" ry=".99"/>
  <rect class="cls-11" x="144.98" y="427.8" width="25.25" height="2.59" rx=".99" ry=".99"/>
  <rect class="cls-11" x="258.54" y="430.73" width="2.59" height="25.25" rx=".99" ry=".99"/>
  <rect class="cls-13" x="262.51" y="430.73" width="2.59" height="25.25" rx=".99" ry=".99"/>
  <rect class="cls-11" x="348.54" y="430.73" width="2.59" height="25.25" rx=".99" ry=".99"/>
  <rect class="cls-13" x="352.51" y="430.73" width="2.59" height="25.25" rx=".99" ry=".99"/>
  <path class="cls-11" d="m147.88,272.07l1.68,2.34c1.3-11.23,16.22-11.73,18.14,1.1.21,1.37-1.45,1.66-1.66.17-1.49-10.54-13.74-10.86-15.03-1.05l2.31-1.72s.71.93.16,1.48c-.76.76-3.31,2.36-3.57,2.52-.19-.23-2.14-2.53-2.64-3.48-.35-.69.61-1.36.61-1.36Z"/>
  <path class="cls-11" d="m148.03,535.66l1.68-2.34c1.3,11.23,16.22,11.73,18.14-1.1.21-1.37-1.45-1.66-1.66-.17-1.49,10.54-13.74,10.86-15.03,1.05l2.31,1.72s.71-.93.16-1.48c-.76-.76-3.31-2.36-3.57-2.52-.19.23-2.14,2.53-2.64,3.48-.35.69.61,1.36.61,1.36Z"/>
  <path class="cls-11" d="m347.89,272.06l-1.68,2.34c-1.3-11.23-16.22-11.73-18.14,1.1-.21,1.37,1.45,1.66,1.66.17,1.49-10.54,13.74-10.86,15.03-1.05l-2.31-1.72s-.71.93-.16,1.48c.76.76,3.31,2.36,3.57,2.52.19-.23,2.14-2.53,2.64-3.48.35-.69-.61-1.36-.61-1.36Z"/>
  <path class="cls-11" d="m328.03,522.06l1.68,2.34c1.3-11.23,16.22-11.73,18.14,1.1.21,1.37-1.45,1.66-1.66.17-1.49-10.54-13.74-10.86-15.03-1.05l2.31-1.72s.71.93.16,1.48c-.76.76-3.31,2.36-3.57,2.52-.19-.23-2.14-2.53-2.64-3.48-.35-.69.61-1.36.61-1.36Z"/>
  <path class="cls-11" d="m257.53,522.07l-1.68,2.34c-1.3-11.23-16.22-11.73-18.14,1.1-.21,1.37,1.45,1.66,1.66.17,1.49-10.54,13.74-10.86,15.03-1.05l-2.31-1.72s-.71.93-.16,1.48c.76.76,3.31,2.36,3.57,2.52.19-.23,2.14-2.53,2.64-3.48.35-.69-.61-1.36-.61-1.36Z"/>
  <path class="cls-11" d="m237.88,272.07l1.68,2.34c1.3-11.23,16.22-11.73,18.14,1.1.21,1.37-1.45,1.66-1.66.17-1.49-10.54-13.74-10.86-15.03-1.05l2.31-1.72s.71.93.16,1.48c-.76.76-3.31,2.36-3.57,2.52-.19-.23-2.14-2.53-2.64-3.48-.35-.69.61-1.36.61-1.36Z"/>
  <path class="cls-11" d="m57.67,285.83l1.68-2.34c1.3,11.23,16.22,11.73,18.14-1.1.21-1.37-1.45-1.66-1.66-.17-1.49,10.54-13.74,10.86-15.03,1.05l2.31,1.72s.71-.93.16-1.48c-.76-.76-3.31-2.36-3.57-2.52-.19.23-2.14,2.53-2.64,3.48-.35.69.61,1.36.61,1.36Z"/>
  <path class="cls-11" d="m58.03,522.35l1.68,2.34c1.3-11.23,16.22-11.73,18.14,1.1.21,1.37-1.45,1.66-1.66.17-1.49-10.54-13.74-10.86-15.03-1.05l2.31-1.72s.71.93.16,1.48c-.76.76-3.31,2.36-3.57,2.52-.19-.23-2.14-2.53-2.64-3.48-.35-.69.61-1.36.61-1.36Z"/>
  <path class="cls-11" d="m342.88,434.89l2.34,1.68c-11.23,1.3-11.73,16.22,1.1,18.14,1.37.21,1.66-1.45.17-1.66-10.54-1.49-10.86-13.74-1.05-15.03l-1.72,2.31s.93.71,1.48.16c.76-.76,2.36-3.31,2.52-3.57-.23-.19-2.53-2.14-3.48-2.64-.69-.35-1.36.61-1.36.61Z"/>
  <path class="cls-11" d="m252.88,452.94l2.34-1.68c-11.23-1.3-11.73-16.22,1.1-18.14,1.37-.21,1.66,1.45.17,1.66-10.54,1.49-10.86,13.74-1.05,15.03l-1.72-2.31s.93-.71,1.48-.16c.76.76,2.36,3.31,2.52,3.57-.23.19-2.53,2.14-3.48,2.64-.69.35-1.36-.61-1.36-.61Z"/>
  <path class="cls-11" d="m147.68,422.34l1.68,2.34c1.3-11.23,16.22-11.73,18.14,1.1.21,1.37-1.45,1.66-1.66.17-1.49-10.54-13.74-10.86-15.03-1.05l2.31-1.72s.71.93.16,1.48c-.76.76-3.31,2.36-3.57,2.52-.19-.23-2.14-2.53-2.64-3.48-.35-.69.61-1.36.61-1.36Z"/>
  <path class="cls-11" d="m58.03,435.85l1.68-2.34c1.3,11.23,16.22,11.73,18.14-1.1.21-1.37-1.45-1.66-1.66-.17-1.49,10.54-13.74,10.86-15.03,1.05l2.31,1.72s.71-.93.16-1.48c-.76-.76-3.31-2.36-3.57-2.52-.19.23-2.14,2.53-2.64,3.48-.35.69.61,1.36.61,1.36Z"/>
  <path class="cls-13" d="m88.68,185.08l3.11-1.81s-.75-1.3-1.7-.92c-1.07.44-4.82,2.98-4.82,2.98,0,0,1.9,3.81,2.83,4.92.65.79,1.94-.02,1.94-.02l-1.86-3.16s-.08-.07-.11-.11c12.12,3.21,10.66,16.23-1.57,17.88-.76.1-1.34.72-1.22,1.28.11.49.42.95,1.4.8,14.98-2.35,15.63-18.27,2-21.84Z"/>
  <rect class="cls-13" x="83.41" y="177.8" width="25.25" height="2.59" rx=".99" ry=".99"/>
  <rect class="cls-11" x="54.98" y="177.8" width="25.25" height="2.59" rx=".99" ry=".99"/>
  <path class="cls-13" d="m198.35,185.94s-3.01,3.38-3.95,4.07c-.82.61-1.87-.47-1.87-.47l2.7-2.65c-7.31-.33-7.91,4.12-6.28,10.29-6.34-1.43-11.8-2.9-11.8,9.19,0,1.35-2.05,1.36-2.05.01,0-8.38,3.19-13.94,11.26-11.98-.88-6.54,1.72-9.05,8.86-9.31l-2.69-2.73s1.05-1.1,1.87-.5c1.18.85,3.95,4.08,3.95,4.08Z"/>
  <path class="cls-13" d="m268.73,185.42l-1.81,3.11s-1.3-.75-.92-1.7c.44-1.07,2.98-4.82,2.98-4.82,0,0,3.81,1.9,4.92,2.83.79.65-.02,1.94-.02,1.94l-3.16-1.86s-.07-.08-.11-.11c3.21,12.12,16.23,10.66,17.88-1.57.1-.76.72-1.34,1.28-1.22.49.11.95.42.8,1.4-2.35,14.98-18.27,15.63-21.84,2Z"/>
  <path class="cls-13" d="m360.53,206.09s3.38-3.01,4.07-3.95c.61-.82-.47-1.87-.47-1.87l-2.65,2.7c-.33-7.31,4.12-7.91,10.29-6.28-1.43-6.34-2.9-11.8,9.19-11.8,1.35,0,1.36-2.05.01-2.05-8.38,0-13.94,3.19-11.98,11.26-6.54-.88-9.05,1.72-9.31,8.86l-2.73-2.69s-1.1,1.05-.5,1.87c.85,1.18,4.08,3.95,4.08,3.95Z"/>
  <rect class="cls-13" x="173.41" y="177.8" width="25.25" height="2.59" rx=".99" ry=".99"/>
  <rect class="cls-11" x="144.98" y="177.8" width="25.25" height="2.59" rx=".99" ry=".99"/>
  <rect class="cls-11" x="258.54" y="180.73" width="2.59" height="25.25" rx=".99" ry=".99"/>
  <rect class="cls-13" x="262.51" y="180.73" width="2.59" height="25.25" rx=".99" ry=".99"/>
  <rect class="cls-11" x="348.54" y="180.73" width="2.59" height="25.25" rx=".99" ry=".99"/>
  <rect class="cls-13" x="352.51" y="180.73" width="2.59" height="25.25" rx=".99" ry=".99"/>
  <path class="cls-11" d="m342.88,204.05l2.34-1.68c-11.23-1.3-11.73-16.22,1.1-18.14,1.37-.21,1.66,1.45.17,1.66-10.54,1.49-10.86,13.74-1.05,15.03l-1.72-2.31s.93-.71,1.48-.16c.76.76,2.36,3.31,2.52,3.57-.23.19-2.53,2.14-3.48,2.64-.69.35-1.36-.61-1.36-.61Z"/>
  <path class="cls-11" d="m252.88,183.78l2.34,1.68c-11.23,1.3-11.73,16.22,1.1,18.14,1.37.21,1.66-1.45.17-1.66-10.54-1.49-10.86-13.74-1.05-15.03l-1.72,2.31s.93.71,1.48.16c.76-.76,2.36-3.31,2.52-3.57-.23-.19-2.53-2.14-3.48-2.64-.69-.35-1.36.61-1.36.61Z"/>
  <path class="cls-11" d="m57.68,172.34l1.68,2.34c1.3-11.23,16.22-11.73,18.14,1.1.21,1.37-1.45,1.66-1.66.17-1.49-10.54-13.74-10.86-15.03-1.05l2.31-1.72s.71.93.16,1.48c-.76.76-3.31,2.36-3.57,2.52-.19-.23-2.14-2.53-2.64-3.48-.35-.69.61-1.36.61-1.36Z"/>
  <path class="cls-11" d="m148.03,185.85l1.68-2.34c1.3,11.23,16.22,11.73,18.14-1.1.21-1.37-1.45-1.66-1.66-.17-1.49,10.54-13.74,10.86-15.03,1.05l2.31,1.72s.71-.93.16-1.48c-.76-.76-3.31-2.36-3.57-2.52-.19.23-2.14,2.53-2.64,3.48-.35.69.61,1.36.61,1.36Z"/>
  <path class="cls-11" d="m505.6,531.57s4.45-.85,5.61-.82c1.02.02,1.19,1.52,1.19,1.52l-3.28.38c13.96,9.35,33.36,8.78,47.44-1.94.58-.44,1.53-.43,1.85,0,.21.25.53,1.07-.25,1.68-7.77,6.07-17.41,9.1-26.95,9.1-8.38,0-16.68-2.32-23.6-6.97l.42,3.43s-1.5.23-1.79-.74c-.41-1.4-.64-5.65-.64-5.65Z"/>
  <path class="cls-11" d="m415.29,525.46s4.45.85,5.61.82c1.02-.02,1.19-1.52,1.19-1.52l-3.28-.38c13.96-9.35,33.36-8.78,47.44,1.94.58.44,1.53.43,1.85,0,.21-.25.53-1.07-.25-1.68-7.77-6.07-17.41-9.1-26.95-9.1-8.38,0-16.68,2.32-23.6,6.97l.42-3.43s-1.5-.23-1.79.74c-.41,1.4-.64,5.65-.64,5.65Z"/>
  <path class="cls-11" d="m627.17,205.46s-.85-4.45-.82-5.61c.02-1.02,1.52-1.19,1.52-1.19l.38,3.28c9.35-13.96,8.78-33.36-1.94-47.44-.44-.58-.43-1.53,0-1.85.25-.21,1.07-.53,1.68.25,6.07,7.77,9.1,17.41,9.1,26.95,0,8.38-2.32,16.68-6.97,23.6l3.43-.42s.23,1.5-.74,1.79c-1.4.41-5.65.64-5.65.64Z"/>
  <g>
    <rect class="cls-13" x="443.52" y="177.63" width="25.25" height="2.59" rx=".99" ry=".99"/>
    <rect class="cls-11" x="414.87" y="177.63" width="25.25" height="2.59" rx=".99" ry=".99"/>
  </g>
  <g>
    <rect class="cls-13" x="533.52" y="177.63" width="25.25" height="2.59" rx=".99" ry=".99"/>
    <rect class="cls-11" x="504.87" y="177.63" width="25.25" height="2.59" rx=".99" ry=".99"/>
  </g>
  <g>
    <rect class="cls-11" x="618.54" y="180.54" width="2.59" height="25.25" rx=".99" ry=".99"/>
    <rect class="cls-13" x="622.51" y="180.54" width="2.59" height="25.25" rx=".99" ry=".99"/>
  </g>
  <g>
    <rect class="cls-11" x="708.54" y="180.54" width="2.59" height="25.25" rx=".99" ry=".99"/>
    <rect class="cls-13" x="712.51" y="180.54" width="2.59" height="25.25" rx=".99" ry=".99"/>
  </g>
  <path class="cls-13" d="m561.08,188.74s-3.01,3.38-3.95,4.07c-.82.61-1.87-.47-1.87-.47l2.7-2.65c-7.31-.33-7.91,4.12-6.28,10.29-6.34-1.43-11.8-2.9-11.8,9.19,0,1.35-2.05,1.36-2.05.01,0-8.38,3.19-13.94,11.26-11.98-.88-6.54,1.72-9.05,8.86-9.31l-.34-.35c-.04-.06-.09-.11-.15-.15l-2.2-2.23s1.05-1.1,1.87-.5c1.18.85,3.95,4.08,3.95,4.08Z"/>
  <path class="cls-13" d="m447.25,183.94l3.11-1.81s-.75-1.3-1.7-.92c-1.07.44-4.82,2.98-4.82,2.98,0,0,1.9,3.81,2.83,4.92.65.79,1.94-.02,1.94-.02l-1.86-3.16s-.08-.07-.11-.11c12.12,3.21,10.66,16.23-1.57,17.88-.76.1-1.34.72-1.22,1.28.11.49.42.95,1.4.8,14.98-2.35,15.63-18.27,2-21.84Z"/>
  <path class="cls-13" d="m720.57,207.05s3.38-3.01,4.07-3.95c.61-.82-.47-1.87-.47-1.87l-2.65,2.7c-.33-7.31,4.12-7.91,10.29-6.28-1.43-6.34-2.9-11.8,9.19-11.8,1.35,0,1.36-2.05.01-2.05-8.38,0-13.94,3.19-11.98,11.26-6.54-.88-9.05,1.72-9.31,8.86l-.35-.34c-.06-.04-.11-.09-.15-.15l-2.23-2.2s-1.1,1.05-.5,1.87c.85,1.18,4.08,3.95,4.08,3.95Z"/>
  <path class="cls-13" d="m628.86,184.5l-1.81,3.11s-1.3-.75-.92-1.7c.44-1.07,2.98-4.82,2.98-4.82,0,0,3.81,1.9,4.92,2.83.79.65-.02,1.94-.02,1.94l-3.16-1.86s-.07-.08-.11-.11c3.21,12.12,16.23,10.66,17.88-1.57.1-.76.72-1.34,1.28-1.22.49.11.95.42.8,1.4-2.35,14.98-18.27,15.63-21.84,2Z"/>
  <g>
    <rect class="cls-13" x="440.53" y="280.63" width="2.59" height="25.25" rx=".99" ry=".99"/>
    <rect class="cls-11" x="414.87" y="277.63" width="25.25" height="2.59" rx=".99" ry=".99"/>
  </g>
  <g>
    <rect class="cls-13" x="530.53" y="280.63" width="2.59" height="25.25" rx=".99" ry=".99"/>
    <rect class="cls-11" x="504.87" y="277.63" width="25.25" height="2.59" rx=".99" ry=".99"/>
  </g>
  <g>
    <rect class="cls-13" x="620.53" y="280.63" width="2.59" height="25.25" rx=".99" ry=".99"/>
    <rect class="cls-11" x="594.87" y="277.63" width="25.25" height="2.59" rx=".99" ry=".99"/>
  </g>
  <g>
    <rect class="cls-13" x="710.53" y="280.63" width="2.59" height="25.25" rx=".99" ry=".99"/>
    <rect class="cls-11" x="684.87" y="277.63" width="25.25" height="2.59" rx=".99" ry=".99"/>
  </g>
  <path class="cls-13" d="m538.49,305.35s3.38-3.01,4.07-3.95c.61-.82-.47-1.87-.47-1.87l-2.65,2.7c-.33-7.31,4.12-7.91,10.29-6.28-1.43-6.34-2.9-11.8,9.19-11.8,1.35,0,1.36-2.05.01-2.05-8.38,0-13.94,3.19-11.98,11.26-6.54-.88-9.05,1.72-9.31,8.86l-.35-.34c-.06-.04-.11-.09-.15-.15l-2.23-2.2s-1.1,1.05-.5,1.87c.85,1.18,4.08,3.95,4.08,3.95Z"/>
  <path class="cls-13" d="m616.53,284.66l1.81,3.11s1.3-.75.92-1.7c-.44-1.07-2.98-4.82-2.98-4.82,0,0-3.81,1.9-4.92,2.83-.79.65.02,1.94.02,1.94l3.16-1.86s.07-.08.11-.11c-3.21,12.12-16.23,10.66-17.88-1.57-.1-.76-.72-1.34-1.28-1.22-.49.11-.95.42-.8,1.4,2.35,14.98,18.27,15.63,21.84,2Z"/>
  <path class="cls-11" d="m415.29,175.46s4.45.85,5.61.82c1.02-.02,1.19-1.52,1.19-1.52l-3.28-.38c13.96-9.35,33.36-8.78,47.44,1.94.58.44,1.53.43,1.85,0,.21-.25.53-1.07-.25-1.68-7.77-6.07-17.41-9.1-26.95-9.1-8.38,0-16.68,2.32-23.6,6.97l.42-3.43s-1.5-.23-1.79.74c-.41,1.4-.64,5.65-.64,5.65Z"/>
  <path class="cls-11" d="m505.29,181.72s4.45-.85,5.61-.82c1.02.02,1.19,1.52,1.19,1.52l-3.28.38c13.96,9.35,33.36,8.78,47.44-1.94.58-.44,1.53-.43,1.85,0,.21.25.53,1.07-.25,1.68-7.77,6.07-17.41,9.1-26.95,9.1-8.38,0-16.68-2.32-23.6-6.97l.42,3.43s-1.5.23-1.79-.74c-.41-1.4-.64-5.65-.64-5.65Z"/>
  <path class="cls-11" d="m706.21,205.46s.85-4.45.82-5.61c-.02-1.02-1.52-1.19-1.52-1.19l-.38,3.28c-9.35-13.96-8.78-33.36,1.94-47.44.44-.58.43-1.53,0-1.85-.25-.21-1.07-.53-1.68.25-6.07,7.77-9.1,17.41-9.1,26.95,0,8.38,2.32,16.68,6.97,23.6l-3.43-.42s-.23,1.5.74,1.79c1.4.41,5.65.64,5.65.64Z"/>
  <path class="cls-11" d="m595.21,275.46s4.45.85,5.61.82c1.02-.02,1.19-1.52,1.19-1.52l-3.28-.38c13.96-9.35,33.36-8.78,47.44,1.94.58.44,1.53.43,1.85,0,.21-.25.53-1.07-.25-1.68-7.77-6.07-17.41-9.1-26.95-9.1-8.38,0-16.68,2.32-23.6,6.97l.42-3.43s-1.5-.23-1.79.74c-.41,1.4-.64,5.65-.64,5.65Z"/>
  <path class="cls-11" d="m685.6,281.41s4.45-.85,5.61-.82c1.02.02,1.19,1.52,1.19,1.52l-3.28.38c13.96,9.35,33.36,8.78,47.44-1.94.58-.44,1.53-.43,1.85,0,.21.25.53,1.07-.25,1.68-7.77,6.07-17.41,9.1-26.95,9.1-8.38,0-16.68-2.32-23.6-6.97l.42,3.43s-1.5.23-1.79-.74c-.41-1.4-.64-5.65-.64-5.65Z"/>
  <path class="cls-11" d="m413.74,282.39s4.45-.85,5.61-.82c1.02.02,1.19,1.52,1.19,1.52l-3.28.38c13.96,9.35,33.36,8.78,47.44-1.94.58-.44,1.53-.43,1.85,0,.21.25.53,1.07-.25,1.68-7.77,6.07-17.41,9.1-26.95,9.1-8.38,0-16.68-2.32-23.6-6.97l.42,3.43s-1.5.23-1.79-.74c-.41-1.4-.64-5.65-.64-5.65Z"/>
  <path class="cls-11" d="m505.6,275.73s4.45.85,5.61.82c1.02-.02,1.19-1.52,1.19-1.52l-3.28-.38c13.96-9.35,33.36-8.78,47.44,1.94.58.44,1.53.43,1.85,0,.21-.25.53-1.07-.25-1.68-7.77-6.07-17.41-9.1-26.95-9.1-8.38,0-16.68,2.32-23.6,6.97l.42-3.43s-1.5-.23-1.79.74c-.41,1.4-.64,5.65-.64,5.65Z"/>
  <path class="cls-13" d="m700.47,310.36s-3.38-3.01-4.07-3.95c-.61-.82.47-1.87.47-1.87l2.65,2.7c.33-7.31-4.12-7.91-10.29-6.28,1.43-6.34,2.9-11.8-9.19-11.8-1.35,0-1.36-2.05-.01-2.05,8.38,0,13.94,3.19,11.98,11.26,6.54-.88,9.05,1.72,9.31,8.86l.35-.34c.06-.04.11-.09.15-.15l2.23-2.2s1.1,1.05.5,1.87c-.85,1.18-4.08,3.95-4.08,3.95Z"/>
  <path class="cls-13" d="m448.04,284.41l-1.81,3.11s-1.3-.75-.92-1.7c.44-1.07,2.98-4.82,2.98-4.82,0,0,3.81,1.9,4.92,2.83.79.65-.02,1.94-.02,1.94l-3.16-1.86s-.07-.08-.11-.11c3.21,12.12,16.23,10.66,17.88-1.57.1-.76.72-1.34,1.28-1.22.49.11.95.42.8,1.4-2.35,14.98-18.27,15.63-21.84,2Z"/>
  <path class="cls-11" d="m616.48,455.46s.85-4.45.82-5.61c-.02-1.02-1.52-1.19-1.52-1.19l-.38,3.28c-9.35-13.96-8.78-33.36,1.94-47.44.44-.58.43-1.53,0-1.85-.25-.21-1.07-.53-1.68.25-6.07,7.77-9.1,17.41-9.1,26.95,0,8.38,2.32,16.68,6.97,23.6l-3.43-.42s-.23,1.5.74,1.79c1.4.41,5.65.64,5.65.64Z"/>
  <g>
    <rect class="cls-13" x="443.52" y="427.63" width="25.25" height="2.59" rx=".99" ry=".99"/>
    <rect class="cls-11" x="414.87" y="427.63" width="25.25" height="2.59" rx=".99" ry=".99"/>
  </g>
  <g>
    <rect class="cls-13" x="533.52" y="427.63" width="25.25" height="2.59" rx=".99" ry=".99"/>
    <rect class="cls-11" x="504.87" y="427.63" width="25.25" height="2.59" rx=".99" ry=".99"/>
  </g>
  <g>
    <rect class="cls-11" x="618.54" y="430.54" width="2.59" height="25.25" rx=".99" ry=".99"/>
    <rect class="cls-13" x="622.51" y="430.54" width="2.59" height="25.25" rx=".99" ry=".99"/>
  </g>
  <g>
    <rect class="cls-11" x="708.54" y="430.54" width="2.59" height="25.25" rx=".99" ry=".99"/>
    <rect class="cls-13" x="712.51" y="430.54" width="2.59" height="25.25" rx=".99" ry=".99"/>
  </g>
  <path class="cls-13" d="m561.08,438.74s-3.01,3.38-3.95,4.07c-.82.61-1.87-.47-1.87-.47l2.7-2.65c-7.31-.33-7.91,4.12-6.28,10.29-6.34-1.43-11.8-2.9-11.8,9.19,0,1.35-2.05,1.36-2.05.01,0-8.38,3.19-13.94,11.26-11.98-.88-6.54,1.72-9.05,8.86-9.31l-.34-.35c-.04-.06-.09-.11-.15-.15l-2.2-2.23s1.05-1.1,1.87-.5c1.18.85,3.95,4.08,3.95,4.08Z"/>
  <path class="cls-13" d="m723.02,457.66s3.38-3.01,4.07-3.95c.61-.82-.47-1.87-.47-1.87l-2.65,2.7c-.33-7.31,4.12-7.91,10.29-6.28-1.43-6.34-2.9-11.8,9.19-11.8,1.35,0,1.36-2.05.01-2.05-8.38,0-13.94,3.19-11.98,11.26-6.54-.88-9.05,1.72-9.31,8.86l-.35-.34c-.06-.04-.11-.09-.15-.15l-2.23-2.2s-1.1,1.05-.5,1.87c.85,1.18,4.08,3.95,4.08,3.95Z"/>
  <path class="cls-13" d="m628.86,434.5l-1.81,3.11s-1.3-.75-.92-1.7c.44-1.07,2.98-4.82,2.98-4.82,0,0,3.81,1.9,4.92,2.83.79.65-.02,1.94-.02,1.94l-3.16-1.86s-.07-.08-.11-.11c3.21,12.12,16.23,10.66,17.88-1.57.1-.76.72-1.34,1.28-1.22.49.11.95.42.8,1.4-2.35,14.98-18.27,15.63-21.84,2Z"/>
  <g>
    <rect class="cls-13" x="440.53" y="530.63" width="2.59" height="25.25" rx=".99" ry=".99"/>
    <rect class="cls-11" x="414.87" y="527.63" width="25.25" height="2.59" rx=".99" ry=".99"/>
  </g>
  <g>
    <rect class="cls-13" x="530.53" y="530.63" width="2.59" height="25.25" rx=".99" ry=".99"/>
    <rect class="cls-11" x="504.87" y="527.63" width="25.25" height="2.59" rx=".99" ry=".99"/>
  </g>
  <g>
    <rect class="cls-13" x="620.53" y="530.63" width="2.59" height="25.25" rx=".99" ry=".99"/>
    <rect class="cls-11" x="594.87" y="527.63" width="25.25" height="2.59" rx=".99" ry=".99"/>
  </g>
  <g>
    <rect class="cls-13" x="710.53" y="530.63" width="2.59" height="25.25" rx=".99" ry=".99"/>
    <rect class="cls-11" x="684.87" y="527.63" width="25.25" height="2.59" rx=".99" ry=".99"/>
  </g>
  <path class="cls-13" d="m540.98,557.84s3.38-3.01,4.07-3.95c.61-.82-.47-1.87-.47-1.87l-2.65,2.7c-.33-7.31,4.12-7.91,10.29-6.28-1.43-6.34-2.9-11.8,9.19-11.8,1.35,0,1.36-2.05.01-2.05-8.38,0-13.94,3.19-11.98,11.26-6.54-.88-9.05,1.72-9.31,8.86l-.35-.34c-.06-.04-.11-.09-.15-.15l-2.23-2.2s-1.1,1.05-.5,1.87c.85,1.18,4.08,3.95,4.08,3.95Z"/>
  <path class="cls-13" d="m616.16,534.82l1.81,3.11s1.3-.75.92-1.7c-.44-1.07-2.98-4.82-2.98-4.82,0,0-3.81,1.9-4.92,2.83-.79.65.02,1.94.02,1.94l3.16-1.86s.07-.08.11-.11c-3.21,12.12-16.23,10.66-17.88-1.57-.1-.76-.72-1.34-1.28-1.22-.49.11-.95.42-.8,1.4,2.35,14.98,18.27,15.63,21.84,2Z"/>
  <path class="cls-11" d="m415.29,432.39s4.45-.85,5.61-.82c1.02.02,1.19,1.52,1.19,1.52l-3.28.38c13.96,9.35,33.36,8.78,47.44-1.94.58-.44,1.53-.43,1.85,0,.21.25.53,1.07-.25,1.68-7.77,6.07-17.41,9.1-26.95,9.1-8.38,0-16.68-2.32-23.6-6.97l.42,3.43s-1.5.23-1.79-.74c-.41-1.4-.64-5.65-.64-5.65Z"/>
  <path class="cls-11" d="m505.29,426.14s4.45.85,5.61.82c1.02-.02,1.19-1.52,1.19-1.52l-3.28-.38c13.96-9.35,33.36-8.78,47.44,1.94.58.44,1.53.43,1.85,0,.21-.25.53-1.07-.25-1.68-7.77-6.07-17.41-9.1-26.95-9.1-8.38,0-16.68,2.32-23.6,6.97l.42-3.43s-1.5-.23-1.79.74c-.41,1.4-.64,5.65-.64,5.65Z"/>
  <path class="cls-11" d="m716.45,450.78s-.85-4.45-.82-5.61c.02-1.02,1.52-1.19,1.52-1.19l.38,3.28c9.35-13.96,8.78-33.36-1.94-47.44-.44-.58-.43-1.53,0-1.85.25-.21,1.07-.53,1.68.25,6.07,7.77,9.1,17.41,9.1,26.95,0,8.38-2.32,16.68-6.97,23.6l3.43-.42s.23,1.5-.74,1.79c-1.4.41-5.65.64-5.65.64Z"/>
  <path class="cls-11" d="m597.67,532.28s4.45-.85,5.61-.82c1.02.02,1.19,1.52,1.19,1.52l-3.28.38c13.96,9.35,33.36,8.78,47.44-1.94.58-.44,1.53-.43,1.85,0,.21.25.53,1.07-.25,1.68-7.77,6.07-17.41,9.1-26.95,9.1-8.38,0-16.68-2.32-23.6-6.97l.42,3.43s-1.5.23-1.79-.74c-.41-1.4-.64-5.65-.64-5.65Z"/>
  <path class="cls-11" d="m685.6,526.45s4.45.85,5.61.82c1.02-.02,1.19-1.52,1.19-1.52l-3.28-.38c13.96-9.35,33.36-8.78,47.44,1.94.58.44,1.53.43,1.85,0,.21-.25.53-1.07-.25-1.68-7.77-6.07-17.41-9.1-26.95-9.1-8.38,0-16.68,2.32-23.6,6.97l.42-3.43s-1.5-.23-1.79.74c-.41,1.4-.64,5.65-.64,5.65Z"/>
  <path class="cls-13" d="m705.44,555.56s-3.38-3.01-4.07-3.95c-.61-.82.47-1.87.47-1.87l2.65,2.7c.33-7.31-4.12-7.91-10.29-6.28,1.43-6.34,2.9-11.8-9.19-11.8-1.35,0-1.36-2.05-.01-2.05,8.38,0,13.94,3.19,11.98,11.26,6.54-.88,9.05,1.72,9.31,8.86l.35-.34c.06-.04.11-.09.15-.15l2.23-2.2s1.1,1.05.5,1.87c-.85,1.18-4.08,3.95-4.08,3.95Z"/>
  <path class="cls-13" d="m448.04,534.41l-1.81,3.11s-1.3-.75-.92-1.7c.44-1.07,2.98-4.82,2.98-4.82,0,0,3.81,1.9,4.92,2.83.79.65-.02,1.94-.02,1.94l-3.16-1.86s-.07-.08-.11-.11c3.21,12.12,16.23,10.66,17.88-1.57.1-.76.72-1.34,1.28-1.22.49.11.95.42.8,1.4-2.35,14.98-18.27,15.63-21.84,2Z"/>
  <path class="cls-13" d="m447.25,433.94l3.11-1.81s-.75-1.3-1.7-.92c-1.07.44-4.82,2.98-4.82,2.98,0,0,1.9,3.81,2.83,4.92.65.79,1.94-.02,1.94-.02l-1.86-3.16s-.08-.07-.11-.11c12.12,3.21,10.66,16.23-1.57,17.88-.76.1-1.34.72-1.22,1.28.11.49.42.95,1.4.8,14.98-2.35,15.63-18.27,2-21.84Z"/>
  <g>
    <path class="cls-10" d="m441.82,180.05c1.45,0,1.45-2.25,0-2.25s-1.45,2.25,0,2.25h0Z"/>
    <circle class="cls-10" cx="441.82" cy="148.93" r="2.5"/>
    <circle class="cls-10" cx="471.82" cy="178.93" r="2.5"/>
    <circle class="cls-10" cx="441.82" cy="208.93" r="2.5"/>
    <circle class="cls-10" cx="411.82" cy="178.93" r="2.5"/>
  </g>
  <g>
    <path class="cls-10" d="m531.82,180.05c1.45,0,1.45-2.25,0-2.25s-1.45,2.25,0,2.25h0Z"/>
    <circle class="cls-10" cx="531.82" cy="148.93" r="2.5"/>
    <circle class="cls-10" cx="561.82" cy="178.93" r="2.5"/>
    <circle class="cls-10" cx="531.82" cy="208.93" r="2.5"/>
    <circle class="cls-10" cx="501.82" cy="178.93" r="2.5"/>
  </g>
  <g>
    <path class="cls-10" d="m621.82,180.05c1.45,0,1.45-2.25,0-2.25s-1.45,2.25,0,2.25h0Z"/>
    <circle class="cls-10" cx="621.82" cy="208.93" r="2.5"/>
    <circle class="cls-10" cx="651.82" cy="178.93" r="2.5"/>
    <circle class="cls-10" cx="621.82" cy="148.93" r="2.5"/>
    <circle class="cls-10" cx="591.82" cy="178.93" r="2.5"/>
  </g>
  <g>
    <path class="cls-10" d="m711.82,180.05c1.45,0,1.45-2.25,0-2.25s-1.45,2.25,0,2.25h0Z"/>
    <circle class="cls-10" cx="711.82" cy="208.93" r="2.5"/>
    <circle class="cls-10" cx="741.82" cy="178.93" r="2.5"/>
    <circle class="cls-10" cx="711.82" cy="148.93" r="2.5"/>
    <circle class="cls-10" cx="681.82" cy="178.93" r="2.5"/>
  </g>
  <g>
    <path class="cls-10" d="m441.82,280.05c1.45,0,1.45-2.25,0-2.25s-1.45,2.25,0,2.25h0Z"/>
    <circle class="cls-10" cx="441.82" cy="308.93" r="2.5"/>
    <circle class="cls-10" cx="471.82" cy="278.93" r="2.5"/>
    <circle class="cls-10" cx="441.82" cy="248.93" r="2.5"/>
    <circle class="cls-10" cx="411.82" cy="278.93" r="2.5"/>
  </g>
  <g>
    <path class="cls-10" d="m531.82,280.05c1.45,0,1.45-2.25,0-2.25s-1.45,2.25,0,2.25h0Z"/>
    <circle class="cls-10" cx="531.82" cy="308.93" r="2.5"/>
    <circle class="cls-10" cx="561.82" cy="278.93" r="2.5"/>
    <circle class="cls-10" cx="531.82" cy="248.93" r="2.5"/>
    <circle class="cls-10" cx="501.82" cy="278.93" r="2.5"/>
  </g>
  <g>
    <path class="cls-10" d="m621.82,280.05c1.45,0,1.45-2.25,0-2.25s-1.45,2.25,0,2.25h0Z"/>
    <circle class="cls-10" cx="621.82" cy="308.93" r="2.5"/>
    <circle class="cls-10" cx="651.82" cy="278.93" r="2.5"/>
    <circle class="cls-10" cx="621.82" cy="248.93" r="2.5"/>
    <circle class="cls-10" cx="591.82" cy="278.93" r="2.5"/>
  </g>
  <g>
    <path class="cls-10" d="m711.82,280.05c1.45,0,1.45-2.25,0-2.25s-1.45,2.25,0,2.25h0Z"/>
    <circle class="cls-10" cx="711.82" cy="308.93" r="2.5"/>
    <circle class="cls-10" cx="741.82" cy="278.93" r="2.5"/>
    <circle class="cls-10" cx="711.82" cy="248.93" r="2.5"/>
    <circle class="cls-10" cx="681.82" cy="278.93" r="2.5"/>
  </g>
  <g>
    <path class="cls-10" d="m441.82,430.05c1.45,0,1.45-2.25,0-2.25s-1.45,2.25,0,2.25h0Z"/>
    <circle class="cls-10" cx="441.82" cy="398.93" r="2.5"/>
    <circle class="cls-10" cx="471.82" cy="428.93" r="2.5"/>
    <circle class="cls-10" cx="441.82" cy="458.93" r="2.5"/>
    <circle class="cls-10" cx="411.82" cy="428.93" r="2.5"/>
  </g>
  <g>
    <path class="cls-10" d="m531.82,430.05c1.45,0,1.45-2.25,0-2.25s-1.45,2.25,0,2.25h0Z"/>
    <circle class="cls-10" cx="531.82" cy="398.93" r="2.5"/>
    <circle class="cls-10" cx="561.82" cy="428.93" r="2.5"/>
    <circle class="cls-10" cx="531.82" cy="458.93" r="2.5"/>
    <circle class="cls-10" cx="501.82" cy="428.93" r="2.5"/>
  </g>
  <g>
    <path class="cls-10" d="m621.82,430.05c1.45,0,1.45-2.25,0-2.25s-1.45,2.25,0,2.25h0Z"/>
    <circle class="cls-10" cx="621.82" cy="458.93" r="2.5"/>
    <circle class="cls-10" cx="651.82" cy="428.93" r="2.5"/>
    <circle class="cls-10" cx="621.82" cy="398.93" r="2.5"/>
    <circle class="cls-10" cx="591.82" cy="428.93" r="2.5"/>
  </g>
  <g>
    <path class="cls-10" d="m711.82,430.05c1.45,0,1.45-2.25,0-2.25s-1.45,2.25,0,2.25h0Z"/>
    <circle class="cls-10" cx="711.82" cy="458.93" r="2.5"/>
    <circle class="cls-10" cx="741.82" cy="428.93" r="2.5"/>
    <circle class="cls-10" cx="711.82" cy="398.93" r="2.5"/>
    <circle class="cls-10" cx="681.82" cy="428.93" r="2.5"/>
  </g>
  <g>
    <path class="cls-10" d="m441.82,530.05c1.45,0,1.45-2.25,0-2.25s-1.45,2.25,0,2.25h0Z"/>
    <circle class="cls-10" cx="441.82" cy="558.93" r="2.5"/>
    <circle class="cls-10" cx="471.82" cy="528.93" r="2.5"/>
    <circle class="cls-10" cx="441.82" cy="498.93" r="2.5"/>
    <circle class="cls-10" cx="411.82" cy="528.93" r="2.5"/>
  </g>
  <g>
    <path class="cls-10" d="m531.82,530.05c1.45,0,1.45-2.25,0-2.25s-1.45,2.25,0,2.25h0Z"/>
    <circle class="cls-10" cx="531.82" cy="558.93" r="2.5"/>
    <circle class="cls-10" cx="561.82" cy="528.93" r="2.5"/>
    <circle class="cls-10" cx="531.82" cy="498.93" r="2.5"/>
    <circle class="cls-10" cx="501.82" cy="528.93" r="2.5"/>
  </g>
  <g>
    <path class="cls-10" d="m621.82,530.05c1.45,0,1.45-2.25,0-2.25s-1.45,2.25,0,2.25h0Z"/>
    <circle class="cls-10" cx="621.82" cy="558.93" r="2.5"/>
    <circle class="cls-10" cx="651.82" cy="528.93" r="2.5"/>
    <circle class="cls-10" cx="621.82" cy="498.93" r="2.5"/>
    <circle class="cls-10" cx="591.82" cy="528.93" r="2.5"/>
  </g>
  <g>
    <path class="cls-10" d="m711.82,530.05c1.45,0,1.45-2.25,0-2.25s-1.45,2.25,0,2.25h0Z"/>
    <circle class="cls-10" cx="711.82" cy="558.93" r="2.5"/>
    <circle class="cls-10" cx="741.82" cy="528.93" r="2.5"/>
    <circle class="cls-10" cx="711.82" cy="498.93" r="2.5"/>
    <circle class="cls-10" cx="681.82" cy="528.93" r="2.5"/>
  </g>
  <g>
    <path class="cls-10" d="m81.82,180.22c1.45,0,1.45-2.25,0-2.25s-1.45,2.25,0,2.25h0Z"/>
    <circle class="cls-10" cx="81.82" cy="149.1" r="2.5"/>
    <circle class="cls-10" cx="111.82" cy="179.1" r="2.5"/>
    <circle class="cls-10" cx="81.82" cy="209.1" r="2.5"/>
    <circle class="cls-10" cx="51.82" cy="179.1" r="2.5"/>
  </g>
  <g>
    <path class="cls-10" d="m171.82,180.22c1.45,0,1.45-2.25,0-2.25s-1.45,2.25,0,2.25h0Z"/>
    <circle class="cls-10" cx="171.82" cy="149.1" r="2.5"/>
    <circle class="cls-10" cx="201.82" cy="179.1" r="2.5"/>
    <circle class="cls-10" cx="171.82" cy="209.1" r="2.5"/>
    <circle class="cls-10" cx="141.82" cy="179.1" r="2.5"/>
  </g>
  <g>
    <path class="cls-10" d="m261.82,180.22c1.45,0,1.45-2.25,0-2.25s-1.45,2.25,0,2.25h0Z"/>
    <circle class="cls-10" cx="261.82" cy="209.1" r="2.5"/>
    <circle class="cls-10" cx="291.82" cy="179.1" r="2.5"/>
    <circle class="cls-10" cx="261.82" cy="149.1" r="2.5"/>
    <circle class="cls-10" cx="231.82" cy="179.1" r="2.5"/>
  </g>
  <g>
    <path class="cls-10" d="m351.82,180.22c1.45,0,1.45-2.25,0-2.25s-1.45,2.25,0,2.25h0Z"/>
    <circle class="cls-10" cx="351.82" cy="209.1" r="2.5"/>
    <circle class="cls-10" cx="381.82" cy="179.1" r="2.5"/>
    <circle class="cls-10" cx="351.82" cy="149.1" r="2.5"/>
    <circle class="cls-10" cx="321.82" cy="179.1" r="2.5"/>
  </g>
  <g>
    <path class="cls-10" d="m81.82,280.22c1.45,0,1.45-2.25,0-2.25s-1.45,2.25,0,2.25h0Z"/>
    <circle class="cls-10" cx="81.82" cy="309.1" r="2.5"/>
    <circle class="cls-10" cx="111.82" cy="279.1" r="2.5"/>
    <circle class="cls-10" cx="81.82" cy="249.1" r="2.5"/>
    <circle class="cls-10" cx="51.82" cy="279.1" r="2.5"/>
  </g>
  <g>
    <path class="cls-10" d="m171.82,280.22c1.45,0,1.45-2.25,0-2.25s-1.45,2.25,0,2.25h0Z"/>
    <circle class="cls-10" cx="171.82" cy="309.1" r="2.5"/>
    <circle class="cls-10" cx="201.82" cy="279.1" r="2.5"/>
    <circle class="cls-10" cx="171.82" cy="249.1" r="2.5"/>
    <circle class="cls-10" cx="141.82" cy="279.1" r="2.5"/>
  </g>
  <g>
    <path class="cls-10" d="m261.82,280.22c1.45,0,1.45-2.25,0-2.25s-1.45,2.25,0,2.25h0Z"/>
    <circle class="cls-10" cx="261.82" cy="309.1" r="2.5"/>
    <circle class="cls-10" cx="291.82" cy="279.1" r="2.5"/>
    <circle class="cls-10" cx="261.82" cy="249.1" r="2.5"/>
    <circle class="cls-10" cx="231.82" cy="279.1" r="2.5"/>
  </g>
  <g>
    <path class="cls-10" d="m351.82,280.22c1.45,0,1.45-2.25,0-2.25s-1.45,2.25,0,2.25h0Z"/>
    <circle class="cls-10" cx="351.82" cy="309.1" r="2.5"/>
    <circle class="cls-10" cx="381.82" cy="279.1" r="2.5"/>
    <circle class="cls-10" cx="351.82" cy="249.1" r="2.5"/>
    <circle class="cls-10" cx="321.82" cy="279.1" r="2.5"/>
  </g>
  <g>
    <path class="cls-10" d="m81.82,430.22c1.45,0,1.45-2.25,0-2.25s-1.45,2.25,0,2.25h0Z"/>
    <circle class="cls-10" cx="81.82" cy="399.1" r="2.5"/>
    <circle class="cls-10" cx="111.82" cy="429.1" r="2.5"/>
    <circle class="cls-10" cx="81.82" cy="459.1" r="2.5"/>
    <circle class="cls-10" cx="51.82" cy="429.1" r="2.5"/>
  </g>
  <g>
    <path class="cls-10" d="m171.82,430.22c1.45,0,1.45-2.25,0-2.25s-1.45,2.25,0,2.25h0Z"/>
    <circle class="cls-10" cx="171.82" cy="399.1" r="2.5"/>
    <circle class="cls-10" cx="201.82" cy="429.1" r="2.5"/>
    <circle class="cls-10" cx="171.82" cy="459.1" r="2.5"/>
    <circle class="cls-10" cx="141.82" cy="429.1" r="2.5"/>
  </g>
  <g>
    <path class="cls-10" d="m261.82,430.22c1.45,0,1.45-2.25,0-2.25s-1.45,2.25,0,2.25h0Z"/>
    <circle class="cls-10" cx="261.82" cy="459.1" r="2.5"/>
    <circle class="cls-10" cx="291.82" cy="429.1" r="2.5"/>
    <circle class="cls-10" cx="261.82" cy="399.1" r="2.5"/>
    <circle class="cls-10" cx="231.82" cy="429.1" r="2.5"/>
  </g>
  <g>
    <path class="cls-10" d="m351.82,430.22c1.45,0,1.45-2.25,0-2.25s-1.45,2.25,0,2.25h0Z"/>
    <circle class="cls-10" cx="351.82" cy="459.1" r="2.5"/>
    <circle class="cls-10" cx="381.82" cy="429.1" r="2.5"/>
    <circle class="cls-10" cx="351.82" cy="399.1" r="2.5"/>
    <circle class="cls-10" cx="321.82" cy="429.1" r="2.5"/>
  </g>
  <g>
    <path class="cls-10" d="m81.82,530.22c1.45,0,1.45-2.25,0-2.25s-1.45,2.25,0,2.25h0Z"/>
    <circle class="cls-10" cx="81.82" cy="559.1" r="2.5"/>
    <circle class="cls-10" cx="111.82" cy="529.1" r="2.5"/>
    <circle class="cls-10" cx="81.82" cy="499.1" r="2.5"/>
    <circle class="cls-10" cx="51.82" cy="529.1" r="2.5"/>
  </g>
  <g>
    <path class="cls-10" d="m171.82,530.22c1.45,0,1.45-2.25,0-2.25s-1.45,2.25,0,2.25h0Z"/>
    <circle class="cls-10" cx="171.82" cy="559.1" r="2.5"/>
    <circle class="cls-10" cx="201.82" cy="529.1" r="2.5"/>
    <circle class="cls-10" cx="171.82" cy="499.1" r="2.5"/>
    <circle class="cls-10" cx="141.82" cy="529.1" r="2.5"/>
  </g>
  <g>
    <path class="cls-10" d="m261.82,530.22c1.45,0,1.45-2.25,0-2.25s-1.45,2.25,0,2.25h0Z"/>
    <circle class="cls-10" cx="261.82" cy="559.1" r="2.5"/>
    <circle class="cls-10" cx="291.82" cy="529.1" r="2.5"/>
    <circle class="cls-10" cx="261.82" cy="499.1" r="2.5"/>
    <circle class="cls-10" cx="231.82" cy="529.1" r="2.5"/>
  </g>
  <g>
    <path class="cls-10" d="m351.82,530.22c1.45,0,1.45-2.25,0-2.25s-1.45,2.25,0,2.25h0Z"/>
    <circle class="cls-10" cx="351.82" cy="559.1" r="2.5"/>
    <circle class="cls-10" cx="381.82" cy="529.1" r="2.5"/>
    <circle class="cls-10" cx="351.82" cy="499.1" r="2.5"/>
    <circle class="cls-10" cx="321.82" cy="529.1" r="2.5"/>
  </g>
  <g>
    <line class="cls-8" x1="396.89" y1="144.96" x2="396.89" y2="337.44"/>
    <line class="cls-6" x1="49.39" y1="237.44" x2="744.39" y2="237.44"/>
    <line class="cls-6" x1="49.39" y1="487.44" x2="744.39" y2="487.44"/>
    <line class="cls-8" x1="396.89" y1="391.2" x2="396.89" y2="583.68"/>
  </g>
  <text class="cls-7" transform="translate(360.42 67.54)"><tspan x="0" y="0">1 / 1</tspan></text>
  <g>
    <g>
      <g>
        <path d="m92.87,229.13v.85h-3v-.85h.98v-2.4h-.98v-.88l.33-.03c.23-.02.37-.03.71-.12s.58-.22.58-.22h.4v3.65h.98Z"/>
        <path d="m92.87,221.63v.85h-3v-.85h.98v-2.4h-.98v-.88l.33-.03c.23-.02.37-.03.71-.12s.58-.22.58-.22h.4v3.65h.98Z"/>
      </g>
      <g>
        <path d="m181.87,229.13v.85h-3v-.85h.98v-2.4h-.98v-.88l.33-.03c.23-.02.37-.03.71-.12s.58-.22.58-.22h.4v3.65h.98Z"/>
        <path d="m181.87,221.63v.85h-3v-.85h.98v-2.4h-.98v-.88l.33-.03c.23-.02.37-.03.71-.12s.58-.22.58-.22h.4v3.65h.98Z"/>
      </g>
      <g>
        <path d="m271.87,229.13v.85h-3v-.85h.98v-2.4h-.98v-.88l.33-.03c.23-.02.37-.03.71-.12s.58-.22.58-.22h.4v3.65h.98Z"/>
        <path d="m271.87,221.63v.85h-3v-.85h.98v-2.4h-.98v-.88l.33-.03c.23-.02.37-.03.71-.12s.58-.22.58-.22h.4v3.65h.98Z"/>
      </g>
      <g>
        <path d="m361.87,229.13v.85h-3v-.85h.98v-2.4h-.98v-.88l.33-.03c.23-.02.37-.03.71-.12s.58-.22.58-.22h.4v3.65h.98Z"/>
        <path d="m361.87,221.63v.85h-3v-.85h.98v-2.4h-.98v-.88l.33-.03c.23-.02.37-.03.71-.12s.58-.22.58-.22h.4v3.65h.98Z"/>
      </g>
      <g>
        <path d="m459.24,229.13v.85h-3v-.85h.98v-2.4h-.98v-.88l.33-.03c.23-.02.37-.03.71-.12s.58-.22.58-.22h.4v3.65h.98Z"/>
        <path d="m459.24,221.63v.85h-3v-.85h.98v-2.4h-.98v-.88l.33-.03c.23-.02.37-.03.71-.12s.58-.22.58-.22h.4v3.65h.98Z"/>
      </g>
      <g>
        <path d="m547.74,229.13v.85h-3v-.85h.98v-2.4h-.98v-.88l.33-.03c.23-.02.37-.03.71-.12s.58-.22.58-.22h.4v3.65h.98Z"/>
        <path d="m547.74,221.63v.85h-3v-.85h.98v-2.4h-.98v-.88l.33-.03c.23-.02.37-.03.71-.12s.58-.22.58-.22h.4v3.65h.98Z"/>
      </g>
      <g>
        <path d="m637.06,229.13v.85h-3v-.85h.98v-2.4h-.98v-.88l.33-.03c.23-.02.37-.03.71-.12s.58-.22.58-.22h.4v3.65h.98Z"/>
        <path d="m637.06,221.63v.85h-3v-.85h.98v-2.4h-.98v-.88l.33-.03c.23-.02.37-.03.71-.12s.58-.22.58-.22h.4v3.65h.98Z"/>
      </g>
      <g>
        <path d="m728.63,229.13v.85h-3v-.85h.98v-2.4h-.98v-.88l.33-.03c.23-.02.37-.03.71-.12s.58-.22.58-.22h.4v3.65h.98Z"/>
        <path d="m728.63,221.63v.85h-3v-.85h.98v-2.4h-.98v-.88l.33-.03c.23-.02.37-.03.71-.12s.58-.22.58-.22h.4v3.65h.98Z"/>
      </g>
      <g>
        <path d="m91.87,329.13v.85h-3v-.85h.98v-2.4h-.98v-.88l.33-.03c.23-.02.37-.03.71-.12s.58-.22.58-.22h.4v3.65h.98Z"/>
        <path d="m91.87,321.63v.85h-3v-.85h.98v-2.4h-.98v-.88l.33-.03c.23-.02.37-.03.71-.12s.58-.22.58-.22h.4v3.65h.98Z"/>
      </g>
      <g>
        <path d="m181.87,329.13v.85h-3v-.85h.98v-2.4h-.98v-.88l.33-.03c.23-.02.37-.03.71-.12s.58-.22.58-.22h.4v3.65h.98Z"/>
        <path d="m181.87,321.63v.85h-3v-.85h.98v-2.4h-.98v-.88l.33-.03c.23-.02.37-.03.71-.12s.58-.22.58-.22h.4v3.65h.98Z"/>
      </g>
      <g>
        <path d="m271.87,329.13v.85h-3v-.85h.98v-2.4h-.98v-.88l.33-.03c.23-.02.37-.03.71-.12s.58-.22.58-.22h.4v3.65h.98Z"/>
        <path d="m271.87,321.63v.85h-3v-.85h.98v-2.4h-.98v-.88l.33-.03c.23-.02.37-.03.71-.12s.58-.22.58-.22h.4v3.65h.98Z"/>
      </g>
      <g>
        <path d="m361.87,329.13v.85h-3v-.85h.98v-2.4h-.98v-.88l.33-.03c.23-.02.37-.03.71-.12s.58-.22.58-.22h.4v3.65h.98Z"/>
        <path d="m361.87,321.63v.85h-3v-.85h.98v-2.4h-.98v-.88l.33-.03c.23-.02.37-.03.71-.12s.58-.22.58-.22h.4v3.65h.98Z"/>
      </g>
      <g>
        <path d="m457.16,329.13v.85h-3v-.85h.98v-2.4h-.98v-.88l.33-.03c.23-.02.37-.03.71-.12s.58-.22.58-.22h.4v3.65h.98Z"/>
        <path d="m457.16,321.63v.85h-3v-.85h.98v-2.4h-.98v-.88l.33-.03c.23-.02.37-.03.71-.12s.58-.22.58-.22h.4v3.65h.98Z"/>
      </g>
      <g>
        <path d="m547.74,329.13v.85h-3v-.85h.98v-2.4h-.98v-.88l.33-.03c.23-.02.37-.03.71-.12s.58-.22.58-.22h.4v3.65h.98Z"/>
        <path d="m547.74,321.63v.85h-3v-.85h.98v-2.4h-.98v-.88l.33-.03c.23-.02.37-.03.71-.12s.58-.22.58-.22h.4v3.65h.98Z"/>
      </g>
      <g>
        <path d="m637.06,329.13v.85h-3v-.85h.98v-2.4h-.98v-.88l.33-.03c.23-.02.37-.03.71-.12s.58-.22.58-.22h.4v3.65h.98Z"/>
        <path d="m637.06,321.63v.85h-3v-.85h.98v-2.4h-.98v-.88l.33-.03c.23-.02.37-.03.71-.12s.58-.22.58-.22h.4v3.65h.98Z"/>
      </g>
      <g>
        <path d="m728.82,329.13v.85h-3v-.85h.98v-2.4h-.98v-.88l.33-.03c.23-.02.37-.03.71-.12s.58-.22.58-.22h.4v3.65h.98Z"/>
        <path d="m728.82,321.63v.85h-3v-.85h.98v-2.4h-.98v-.88l.33-.03c.23-.02.37-.03.71-.12s.58-.22.58-.22h.4v3.65h.98Z"/>
      </g>
      <g>
        <path d="m92.87,479.13v.85h-3v-.85h.98v-2.4h-.98v-.88l.33-.03c.23-.02.37-.03.71-.12s.58-.22.58-.22h.4v3.65h.98Z"/>
        <path d="m92.87,471.63v.85h-3v-.85h.98v-2.4h-.98v-.88l.33-.03c.23-.02.37-.03.71-.12s.58-.22.58-.22h.4v3.65h.98Z"/>
      </g>
      <g>
        <path d="m181.87,479.13v.85h-3v-.85h.98v-2.4h-.98v-.88l.33-.03c.23-.02.37-.03.71-.12s.58-.22.58-.22h.4v3.65h.98Z"/>
        <path d="m181.87,471.63v.85h-3v-.85h.98v-2.4h-.98v-.88l.33-.03c.23-.02.37-.03.71-.12s.58-.22.58-.22h.4v3.65h.98Z"/>
      </g>
      <g>
        <path d="m271.87,479.13v.85h-3v-.85h.98v-2.4h-.98v-.88l.33-.03c.23-.02.37-.03.71-.12s.58-.22.58-.22h.4v3.65h.98Z"/>
        <path d="m271.87,471.63v.85h-3v-.85h.98v-2.4h-.98v-.88l.33-.03c.23-.02.37-.03.71-.12s.58-.22.58-.22h.4v3.65h.98Z"/>
      </g>
      <g>
        <path d="m361.87,479.13v.85h-3v-.85h.98v-2.4h-.98v-.88l.33-.03c.23-.02.37-.03.71-.12s.58-.22.58-.22h.4v3.65h.98Z"/>
        <path d="m361.87,471.63v.85h-3v-.85h.98v-2.4h-.98v-.88l.33-.03c.23-.02.37-.03.71-.12s.58-.22.58-.22h.4v3.65h.98Z"/>
      </g>
      <g>
        <path d="m459.24,479.13v.85h-3v-.85h.98v-2.4h-.98v-.88l.33-.03c.23-.02.37-.03.71-.12s.58-.22.58-.22h.4v3.65h.98Z"/>
        <path d="m459.24,471.63v.85h-3v-.85h.98v-2.4h-.98v-.88l.33-.03c.23-.02.37-.03.71-.12s.58-.22.58-.22h.4v3.65h.98Z"/>
      </g>
      <g>
        <path d="m547.74,479.13v.85h-3v-.85h.98v-2.4h-.98v-.88l.33-.03c.23-.02.37-.03.71-.12s.58-.22.58-.22h.4v3.65h.98Z"/>
        <path d="m547.74,471.63v.85h-3v-.85h.98v-2.4h-.98v-.88l.33-.03c.23-.02.37-.03.71-.12s.58-.22.58-.22h.4v3.65h.98Z"/>
      </g>
      <g>
        <path d="m637.06,479.13v.85h-3v-.85h.98v-2.4h-.98v-.88l.33-.03c.23-.02.37-.03.71-.12s.58-.22.58-.22h.4v3.65h.98Z"/>
        <path d="m637.06,471.63v.85h-3v-.85h.98v-2.4h-.98v-.88l.33-.03c.23-.02.37-.03.71-.12s.58-.22.58-.22h.4v3.65h.98Z"/>
      </g>
      <g>
        <path d="m728.63,479.13v.85h-3v-.85h.98v-2.4h-.98v-.88l.33-.03c.23-.02.37-.03.71-.12s.58-.22.58-.22h.4v3.65h.98Z"/>
        <path d="m728.63,471.63v.85h-3v-.85h.98v-2.4h-.98v-.88l.33-.03c.23-.02.37-.03.71-.12s.58-.22.58-.22h.4v3.65h.98Z"/>
      </g>
      <g>
        <path d="m91.87,579.13v.85h-3v-.85h.98v-2.4h-.98v-.88l.33-.03c.23-.02.37-.03.71-.12s.58-.22.58-.22h.4v3.65h.98Z"/>
        <path d="m91.87,571.63v.85h-3v-.85h.98v-2.4h-.98v-.88l.33-.03c.23-.02.37-.03.71-.12s.58-.22.58-.22h.4v3.65h.98Z"/>
      </g>
      <g>
        <path d="m181.87,579.13v.85h-3v-.85h.98v-2.4h-.98v-.88l.33-.03c.23-.02.37-.03.71-.12s.58-.22.58-.22h.4v3.65h.98Z"/>
        <path d="m181.87,571.63v.85h-3v-.85h.98v-2.4h-.98v-.88l.33-.03c.23-.02.37-.03.71-.12s.58-.22.58-.22h.4v3.65h.98Z"/>
      </g>
      <g>
        <path d="m271.87,579.13v.85h-3v-.85h.98v-2.4h-.98v-.88l.33-.03c.23-.02.37-.03.71-.12s.58-.22.58-.22h.4v3.65h.98Z"/>
        <path d="m271.87,571.63v.85h-3v-.85h.98v-2.4h-.98v-.88l.33-.03c.23-.02.37-.03.71-.12s.58-.22.58-.22h.4v3.65h.98Z"/>
      </g>
      <g>
        <path d="m361.87,579.13v.85h-3v-.85h.98v-2.4h-.98v-.88l.33-.03c.23-.02.37-.03.71-.12s.58-.22.58-.22h.4v3.65h.98Z"/>
        <path d="m361.87,571.63v.85h-3v-.85h.98v-2.4h-.98v-.88l.33-.03c.23-.02.37-.03.71-.12s.58-.22.58-.22h.4v3.65h.98Z"/>
      </g>
      <g>
        <path d="m457.16,579.13v.85h-3v-.85h.98v-2.4h-.98v-.88l.33-.03c.23-.02.37-.03.71-.12s.58-.22.58-.22h.4v3.65h.98Z"/>
        <path d="m457.16,571.63v.85h-3v-.85h.98v-2.4h-.98v-.88l.33-.03c.23-.02.37-.03.71-.12s.58-.22.58-.22h.4v3.65h.98Z"/>
      </g>
      <g>
        <path d="m547.74,579.13v.85h-3v-.85h.98v-2.4h-.98v-.88l.33-.03c.23-.02.37-.03.71-.12s.58-.22.58-.22h.4v3.65h.98Z"/>
        <path d="m547.74,571.63v.85h-3v-.85h.98v-2.4h-.98v-.88l.33-.03c.23-.02.37-.03.71-.12s.58-.22.58-.22h.4v3.65h.98Z"/>
      </g>
      <g>
        <path d="m637.06,579.13v.85h-3v-.85h.98v-2.4h-.98v-.88l.33-.03c.23-.02.37-.03.71-.12s.58-.22.58-.22h.4v3.65h.98Z"/>
        <path d="m637.06,571.63v.85h-3v-.85h.98v-2.4h-.98v-.88l.33-.03c.23-.02.37-.03.71-.12s.58-.22.58-.22h.4v3.65h.98Z"/>
      </g>
      <g>
        <path d="m728.82,579.13v.85h-3v-.85h.98v-2.4h-.98v-.88l.33-.03c.23-.02.37-.03.71-.12s.58-.22.58-.22h.4v3.65h.98Z"/>
        <path d="m728.82,571.63v.85h-3v-.85h.98v-2.4h-.98v-.88l.33-.03c.23-.02.37-.03.71-.12s.58-.22.58-.22h.4v3.65h.98Z"/>
      </g>
    </g>
    <g>
      <g>
        <g>
          <path class="cls-10" d="m265.17,220.22l-4.37,8.3c-.15.29-.45.46-.75.46-.13,0-.26-.04-.39-.1-.2-.11-.35-.28-.42-.5-.07-.21-.05-.45.06-.65l1.88-3.58-2.53-3.62c-.12-.11-.2-.27-.24-.47-.05-.25.03-.53.2-.71.15-.17.35-.27.58-.28.22,0,.45.07.61.21l2.2,3.29,1.65-3.14c.12-.2.29-.35.51-.42.22-.07.45-.04.65.07.22.12.38.33.43.59.03.19,0,.38-.08.55Z"/>
          <path class="cls-10" d="m175.72,227.49c.16.19.21.44.19.68-.03.24-.16.46-.34.61-.4.3-.98.23-1.3-.17l-2.45-3.14-2.45,3.14c-.18.23-.45.36-.72.36-.19,0-.4-.07-.57-.19-.19-.15-.32-.37-.35-.61-.03-.24.03-.49.19-.68l2.73-3.51-2.73-3.51c-.13-.17-.19-.36-.19-.57,0-.28.14-.56.36-.73.19-.15.42-.21.67-.19.24.03.47.16.61.35l2.45,3.14,2.44-3.14c.33-.41.91-.48,1.31-.16.22.17.35.43.35.72,0,.2-.07.4-.19.57l-2.73,3.51,2.73,3.51Z"/>
          <path class="cls-10" d="m352.79,220.71h-3.64c-1.34,0-1.31-1.73,0-1.73,5.4,0,5.35.02,5.67.38.23.27.43.73.15,1.14-1.71,2.48-4.54,6.52-4.54,6.52,0,0,3.43,0,4.33,0,1.35,0,1.4,1.91.13,1.91-8.37,0-9.53,1.13-2.09-8.23Z"/>
          <path class="cls-10" d="m86.98,218.98c-.46-.06-.96.28-1.19,1.14-.42,1.54-.92,3.7-1.44,5.63-1.11-2.72-1.86-4.39-2.5-4.38-.01,0-.02,0-.03.01-.01-.01-.02-.01-.03-.01-.64-.01-1.39,1.65-2.5,4.38-.51-1.93-1.02-4.09-1.44-5.63-.24-.86-.73-1.2-1.19-1.14-.59.07-.98.49-.74,1.25.25.81,1.84,6.07,2.3,7.72.47,1.65,1.59.9,1.8.49.21-.41,1.36-3.67,1.8-4.59.44.92,1.59,4.18,1.8,4.59.21.41,1.33,1.16,1.8-.49.46-1.64,2.05-6.9,2.3-7.72.24-.76-.15-1.18-.74-1.25Z"/>
          <path class="cls-10" d="m625.17,220.22l-4.37,8.3c-.15.29-.45.46-.75.46-.13,0-.26-.04-.39-.1-.2-.11-.35-.28-.42-.5-.07-.21-.05-.45.06-.65l1.88-3.58-2.53-3.62c-.12-.11-.2-.27-.24-.47-.05-.25.03-.53.2-.71.15-.17.35-.27.58-.28.22,0,.45.07.61.21l2.2,3.29,1.65-3.14c.12-.2.29-.35.51-.42.22-.07.45-.04.65.07.22.12.38.33.43.59.03.19,0,.38-.08.55Z"/>
          <path class="cls-10" d="m535.72,227.49c.16.19.21.44.19.68-.03.24-.16.46-.34.61-.4.3-.98.23-1.3-.17l-2.45-3.14-2.45,3.14c-.18.23-.45.36-.72.36-.19,0-.4-.07-.57-.19-.19-.15-.32-.37-.35-.61-.03-.24.03-.49.19-.68l2.73-3.51-2.73-3.51c-.13-.17-.19-.36-.19-.57,0-.28.14-.56.36-.73.19-.15.42-.21.67-.19.24.03.47.16.61.35l2.45,3.14,2.44-3.14c.33-.41.91-.48,1.31-.16.22.17.35.43.35.72,0,.2-.07.4-.19.57l-2.73,3.51,2.73,3.51Z"/>
          <path class="cls-10" d="m712.79,220.71h-3.64c-1.34,0-1.31-1.73,0-1.73,5.4,0,5.35.02,5.67.38.23.27.43.73.15,1.14-1.71,2.48-4.54,6.52-4.54,6.52,0,0,3.43,0,4.33,0,1.35,0,1.4,1.91.13,1.91-8.37,0-9.53,1.13-2.09-8.23Z"/>
          <path class="cls-10" d="m446.98,218.98c-.46-.06-.96.28-1.19,1.14-.42,1.54-.92,3.7-1.44,5.63-1.11-2.72-1.86-4.39-2.5-4.38-.01,0-.02,0-.03.01-.01-.01-.02-.01-.03-.01-.64-.01-1.39,1.65-2.5,4.38-.51-1.93-1.02-4.09-1.44-5.63-.24-.86-.73-1.2-1.19-1.14-.59.07-.98.49-.74,1.25.25.81,1.84,6.07,2.3,7.72.47,1.65,1.59.9,1.8.49.21-.41,1.36-3.67,1.8-4.59.44.92,1.59,4.18,1.8,4.59.21.41,1.33,1.16,1.8-.49.46-1.64,2.05-6.9,2.3-7.72.24-.76-.15-1.18-.74-1.25Z"/>
          <g>
            <rect class="cls-10" x="448.02" y="223.03" width="6.95" height="1.9" rx=".95" ry=".95"/>
            <rect class="cls-10" x="535.92" y="223.03" width="6.95" height="1.9" rx=".95" ry=".95"/>
            <rect class="cls-10" x="625.41" y="223.03" width="6.95" height="1.9" rx=".95" ry=".95"/>
            <rect class="cls-10" x="716.82" y="223.03" width="6.95" height="1.9" rx=".95" ry=".95"/>
          </g>
        </g>
        <g>
          <path class="cls-10" d="m357.04,328.98h-3.54c-.32,0-.53-.32-.41-.62,2.67-6.29.99-7.71-1.08-7.85-.04,0-.08,0-.12,0h-.02s-.09,0-.13,0c-.04,0-.08,0-.12,0-2.07.14-3.75,1.56-1.08,7.85.12.29-.09.62-.41.62h-3.54c-.14,0-.66-1.27.12-1.73.69-.41.99.09,1.81.11-2.24-4.96.04-7.96,2.78-8.36.08-.02.94-.02,1.02,0,2.74.41,5.02,3.4,2.78,8.36.82-.02,1.12-.51,1.81-.11.78.46.26,1.73.12,1.73Z"/>
          <path class="cls-10" d="m175.89,327.11c-.93-2.27-1.86-4.39-2.21-5.2-.38-.84-.67-1.52-.74-1.72-.32-.87-.6-1.18-1.12-1.22-.5.04-.79.34-1.11,1.22-.07.2-.36.87-.73,1.72-.73,1.66-1.56,3.6-2.22,5.2-.28.71-.29,1.21-.03,1.52.19.23.49.34.9.34h6.43c.41,0,.71-.12.9-.34.12-.15.18-.34.18-.58,0-.26-.07-.57-.22-.94Zm-1.67.34h-4.8c.17-.42.49-1.25.87-2.18.56-1.41,1.21-3.07,1.53-3.9.39.98,1.22,3.11,1.83,4.63l.57,1.44Z"/>
          <path class="cls-10" d="m83.57,323.16c.48.44.43.65.44.96s-.23.47-.53.71c-1.75,1.43-2.78,2.44-2.78,2.44,0,0,.42.05,4.42.05.4,0,.79.33.79.78,0,.48-.22.88-.64.88-2.35,0-4.02-.05-5.97-.05-.79,0-1.34-.19-1.52-.57-.17-.36-.12-.9.55-1.52,1.91-1.72,3.47-2.88,3.47-2.88,0,0-2.17-1.97-3.75-3.56-.33-.33-.43-.62-.31-.85.11-.2.55-.57.92-.57h6.71c.74,0,.77,1.31,0,1.31-3.37,0-5.2.02-5.2.02l3.38,2.85Z"/>
          <path class="cls-10" d="m261.8,318.98c-1.33,0-3.23,1.68-3.23,5,0,2.56,1.22,5,3.23,5s3.27-2.44,3.27-5c0-3.48-1.94-5-3.27-5Zm.01,1.37c.96,0,1.64,1.13,1.7,1.93.02.3,0,.81-.55.81h-2.33c-.46,0-.51-.5-.5-.76.07-.8.81-1.98,1.69-1.98Zm0,7.26c-1.08,0-1.72-1.28-1.79-2.08-.01-.25,0-.76.5-.76h2.53c.56,0,.58.5.55.81-.06.8-.72,2.03-1.8,2.03Z"/>
          <path class="cls-10" d="m717.04,328.98h-3.54c-.32,0-.53-.32-.41-.62,2.67-6.29.99-7.71-1.08-7.85-.04,0-.08,0-.12,0h-.02s-.09,0-.13,0c-.04,0-.08,0-.12,0-2.07.14-3.75,1.56-1.08,7.85.12.29-.09.62-.41.62h-3.54c-.14,0-.66-1.27.12-1.73.69-.41.99.09,1.81.11-2.24-4.96.04-7.96,2.78-8.36.08-.02.94-.02,1.02,0,2.74.41,5.02,3.4,2.78,8.36.82-.02,1.12-.51,1.81-.11.78.46.26,1.73.12,1.73Z"/>
          <path class="cls-10" d="m535.89,327.11c-.93-2.27-1.86-4.39-2.21-5.2-.38-.84-.67-1.52-.74-1.72-.32-.87-.6-1.18-1.12-1.22-.5.04-.79.34-1.11,1.22-.07.2-.36.87-.73,1.72-.73,1.66-1.56,3.6-2.22,5.2-.28.71-.29,1.21-.03,1.52.19.23.49.34.9.34h6.43c.41,0,.71-.12.9-.34.12-.15.18-.34.18-.58,0-.26-.07-.57-.22-.94Zm-1.67.34h-4.8c.17-.42.49-1.25.87-2.18.56-1.41,1.21-3.07,1.53-3.9.39.98,1.22,3.11,1.83,4.63l.57,1.44Z"/>
          <path class="cls-10" d="m443.57,323.16c.48.44.43.65.44.96s-.23.47-.53.71c-1.75,1.43-2.78,2.44-2.78,2.44,0,0,.42.05,4.42.05.4,0,.79.33.79.78,0,.48-.22.88-.64.88-2.35,0-4.02-.05-5.97-.05-.79,0-1.34-.19-1.52-.57-.17-.36-.12-.9.55-1.52,1.91-1.72,3.47-2.88,3.47-2.88,0,0-2.17-1.97-3.75-3.56-.33-.33-.43-.62-.31-.85.11-.2.55-.57.92-.57h6.71c.74,0,.77,1.31,0,1.31-3.37,0-5.2.02-5.2.02l3.38,2.85Z"/>
          <path class="cls-10" d="m621.8,318.98c-1.33,0-3.23,1.68-3.23,5,0,2.56,1.22,5,3.23,5s3.27-2.44,3.27-5c0-3.48-1.94-5-3.27-5Zm.01,1.37c.96,0,1.64,1.13,1.7,1.93.02.3,0,.81-.55.81h-2.33c-.46,0-.51-.5-.5-.76.07-.8.81-1.98,1.69-1.98Zm0,7.26c-1.08,0-1.72-1.28-1.79-2.08-.01-.25,0-.76.5-.76h2.53c.56,0,.58.5.55.81-.06.8-.72,2.03-1.8,2.03Z"/>
          <g>
            <rect class="cls-10" x="446.13" y="323.03" width="6.95" height="1.9" rx=".95" ry=".95"/>
            <rect class="cls-10" x="536.86" y="323.03" width="6.95" height="1.9" rx=".95" ry=".95"/>
            <rect class="cls-10" x="626.26" y="323.03" width="6.95" height="1.9" rx=".95" ry=".95"/>
            <rect class="cls-10" x="718.22" y="323.03" width="6.95" height="1.9" rx=".95" ry=".95"/>
          </g>
        </g>
        <g>
          <path class="cls-10" d="m265.17,470.22l-4.37,8.3c-.15.29-.45.46-.75.46-.13,0-.26-.04-.39-.1-.2-.11-.35-.28-.42-.5-.07-.21-.05-.45.06-.65l1.88-3.58-2.53-3.62c-.12-.11-.2-.27-.24-.47-.05-.25.03-.53.2-.71.15-.17.35-.27.58-.28.22,0,.45.07.61.21l2.2,3.29,1.65-3.14c.12-.2.29-.35.51-.42.22-.07.45-.04.65.07.22.12.38.33.43.59.03.19,0,.38-.08.55Z"/>
          <path class="cls-10" d="m175.72,477.49c.16.19.21.44.19.68-.03.24-.16.46-.34.61-.4.3-.98.23-1.3-.17l-2.45-3.14-2.45,3.14c-.18.23-.45.36-.72.36-.19,0-.4-.07-.57-.19-.19-.15-.32-.37-.35-.61-.03-.24.03-.49.19-.68l2.73-3.51-2.73-3.51c-.13-.17-.19-.36-.19-.57,0-.28.14-.56.36-.73.19-.15.42-.21.67-.19.24.03.47.16.61.35l2.45,3.14,2.44-3.14c.33-.41.91-.48,1.31-.16.22.17.35.43.35.72,0,.2-.07.4-.19.57l-2.73,3.51,2.73,3.51Z"/>
          <path class="cls-10" d="m352.79,470.71h-3.64c-1.34,0-1.31-1.73,0-1.73,5.4,0,5.35.02,5.67.38.23.27.43.73.15,1.14-1.71,2.48-4.54,6.52-4.54,6.52,0,0,3.43,0,4.33,0,1.35,0,1.4,1.91.13,1.91-8.37,0-9.53,1.13-2.09-8.23Z"/>
          <path class="cls-10" d="m86.98,468.98c-.46-.06-.96.28-1.19,1.14-.42,1.54-.92,3.7-1.44,5.63-1.11-2.72-1.86-4.39-2.5-4.38-.01,0-.02,0-.03.01-.01-.01-.02-.01-.03-.01-.64-.01-1.39,1.65-2.5,4.38-.51-1.93-1.02-4.09-1.44-5.63-.24-.86-.73-1.2-1.19-1.14-.59.07-.98.49-.74,1.25.25.81,1.84,6.07,2.3,7.72.47,1.65,1.59.9,1.8.49.21-.41,1.36-3.67,1.8-4.59.44.92,1.59,4.18,1.8,4.59.21.41,1.33,1.16,1.8-.49.46-1.64,2.05-6.9,2.3-7.72.24-.76-.15-1.18-.74-1.25Z"/>
          <path class="cls-10" d="m625.17,470.22l-4.37,8.3c-.15.29-.45.46-.75.46-.13,0-.26-.04-.39-.1-.2-.11-.35-.28-.42-.5-.07-.21-.05-.45.06-.65l1.88-3.58-2.53-3.62c-.12-.11-.2-.27-.24-.47-.05-.25.03-.53.2-.71.15-.17.35-.27.58-.28.22,0,.45.07.61.21l2.2,3.29,1.65-3.14c.12-.2.29-.35.51-.42.22-.07.45-.04.65.07.22.12.38.33.43.59.03.19,0,.38-.08.55Z"/>
          <path class="cls-10" d="m535.72,477.49c.16.19.21.44.19.68-.03.24-.16.46-.34.61-.4.3-.98.23-1.3-.17l-2.45-3.14-2.45,3.14c-.18.23-.45.36-.72.36-.19,0-.4-.07-.57-.19-.19-.15-.32-.37-.35-.61-.03-.24.03-.49.19-.68l2.73-3.51-2.73-3.51c-.13-.17-.19-.36-.19-.57,0-.28.14-.56.36-.73.19-.15.42-.21.67-.19.24.03.47.16.61.35l2.45,3.14,2.44-3.14c.33-.41.91-.48,1.31-.16.22.17.35.43.35.72,0,.2-.07.4-.19.57l-2.73,3.51,2.73,3.51Z"/>
          <path class="cls-10" d="m712.79,470.71h-3.64c-1.34,0-1.31-1.73,0-1.73,5.4,0,5.35.02,5.67.38.23.27.43.73.15,1.14-1.71,2.48-4.54,6.52-4.54,6.52,0,0,3.43,0,4.33,0,1.35,0,1.4,1.91.13,1.91-8.37,0-9.53,1.13-2.09-8.23Z"/>
          <path class="cls-10" d="m446.98,468.98c-.46-.06-.96.28-1.19,1.14-.42,1.54-.92,3.7-1.44,5.63-1.11-2.72-1.86-4.39-2.5-4.38-.01,0-.02,0-.03.01-.01-.01-.02-.01-.03-.01-.64-.01-1.39,1.65-2.5,4.38-.51-1.93-1.02-4.09-1.44-5.63-.24-.86-.73-1.2-1.19-1.14-.59.07-.98.49-.74,1.25.25.81,1.84,6.07,2.3,7.72.47,1.65,1.59.9,1.8.49.21-.41,1.36-3.67,1.8-4.59.44.92,1.59,4.18,1.8,4.59.21.41,1.33,1.16,1.8-.49.46-1.64,2.05-6.9,2.3-7.72.24-.76-.15-1.18-.74-1.25Z"/>
          <g>
            <rect class="cls-10" x="448.02" y="473.03" width="6.95" height="1.9" rx=".95" ry=".95"/>
            <rect class="cls-10" x="535.92" y="473.03" width="6.95" height="1.9" rx=".95" ry=".95"/>
            <rect class="cls-10" x="625.41" y="473.03" width="6.95" height="1.9" rx=".95" ry=".95"/>
            <rect class="cls-10" x="716.82" y="473.03" width="6.95" height="1.9" rx=".95" ry=".95"/>
          </g>
        </g>
        <g>
          <path class="cls-10" d="m357.04,578.98h-3.54c-.32,0-.53-.32-.41-.62,2.67-6.29.99-7.71-1.08-7.85-.04,0-.08,0-.12,0h-.02s-.09,0-.13,0c-.04,0-.08,0-.12,0-2.07.14-3.75,1.56-1.08,7.85.12.29-.09.62-.41.62h-3.54c-.14,0-.66-1.27.12-1.73.69-.41.99.09,1.81.11-2.24-4.96.04-7.96,2.78-8.36.08-.02.94-.02,1.02,0,2.74.41,5.02,3.4,2.78,8.36.82-.02,1.12-.51,1.81-.11.78.46.26,1.73.12,1.73Z"/>
          <path class="cls-10" d="m175.89,577.11c-.93-2.27-1.86-4.39-2.21-5.2-.38-.84-.67-1.52-.74-1.72-.32-.87-.6-1.18-1.12-1.22-.5.04-.79.34-1.11,1.22-.07.2-.36.87-.73,1.72-.73,1.66-1.56,3.6-2.22,5.2-.28.71-.29,1.21-.03,1.52.19.23.49.34.9.34h6.43c.41,0,.71-.12.9-.34.12-.15.18-.34.18-.58,0-.26-.07-.57-.22-.94Zm-1.67.34h-4.8c.17-.42.49-1.25.87-2.18.56-1.41,1.21-3.07,1.53-3.9.39.98,1.22,3.11,1.83,4.63l.57,1.44Z"/>
          <path class="cls-10" d="m83.57,573.16c.48.44.43.65.44.96s-.23.47-.53.71c-1.75,1.43-2.78,2.44-2.78,2.44,0,0,.42.05,4.42.05.4,0,.79.33.79.78,0,.48-.22.88-.64.88-2.35,0-4.02-.05-5.97-.05-.79,0-1.34-.19-1.52-.57-.17-.36-.12-.9.55-1.52,1.91-1.72,3.47-2.88,3.47-2.88,0,0-2.17-1.97-3.75-3.56-.33-.33-.43-.62-.31-.85.11-.2.55-.57.92-.57h6.71c.74,0,.77,1.31,0,1.31-3.37,0-5.2.02-5.2.02l3.38,2.85Z"/>
          <path class="cls-10" d="m261.8,568.98c-1.33,0-3.23,1.68-3.23,5,0,2.56,1.22,5,3.23,5s3.27-2.44,3.27-5c0-3.48-1.94-5-3.27-5Zm.01,1.37c.96,0,1.64,1.13,1.7,1.93.02.3,0,.81-.55.81h-2.33c-.46,0-.51-.5-.5-.76.07-.8.81-1.98,1.69-1.98Zm0,7.26c-1.08,0-1.72-1.28-1.79-2.08-.01-.25,0-.76.5-.76h2.53c.56,0,.58.5.55.81-.06.8-.72,2.03-1.8,2.03Z"/>
          <path class="cls-10" d="m717.04,578.98h-3.54c-.32,0-.53-.32-.41-.62,2.67-6.29.99-7.71-1.08-7.85-.04,0-.08,0-.12,0h-.02s-.09,0-.13,0c-.04,0-.08,0-.12,0-2.07.14-3.75,1.56-1.08,7.85.12.29-.09.62-.41.62h-3.54c-.14,0-.66-1.27.12-1.73.69-.41.99.09,1.81.11-2.24-4.96.04-7.96,2.78-8.36.08-.02.94-.02,1.02,0,2.74.41,5.02,3.4,2.78,8.36.82-.02,1.12-.51,1.81-.11.78.46.26,1.73.12,1.73Z"/>
          <path class="cls-10" d="m535.89,577.11c-.93-2.27-1.86-4.39-2.21-5.2-.38-.84-.67-1.52-.74-1.72-.32-.87-.6-1.18-1.12-1.22-.5.04-.79.34-1.11,1.22-.07.2-.36.87-.73,1.72-.73,1.66-1.56,3.6-2.22,5.2-.28.71-.29,1.21-.03,1.52.19.23.49.34.9.34h6.43c.41,0,.71-.12.9-.34.12-.15.18-.34.18-.58,0-.26-.07-.57-.22-.94Zm-1.67.34h-4.8c.17-.42.49-1.25.87-2.18.56-1.41,1.21-3.07,1.53-3.9.39.98,1.22,3.11,1.83,4.63l.57,1.44Z"/>
          <path class="cls-10" d="m443.57,573.16c.48.44.43.65.44.96s-.23.47-.53.71c-1.75,1.43-2.78,2.44-2.78,2.44,0,0,.42.05,4.42.05.4,0,.79.33.79.78,0,.48-.22.88-.64.88-2.35,0-4.02-.05-5.97-.05-.79,0-1.34-.19-1.52-.57-.17-.36-.12-.9.55-1.52,1.91-1.72,3.47-2.88,3.47-2.88,0,0-2.17-1.97-3.75-3.56-.33-.33-.43-.62-.31-.85.11-.2.55-.57.92-.57h6.71c.74,0,.77,1.31,0,1.31-3.37,0-5.2.02-5.2.02l3.38,2.85Z"/>
          <path class="cls-10" d="m621.8,568.98c-1.33,0-3.23,1.68-3.23,5,0,2.56,1.22,5,3.23,5s3.27-2.44,3.27-5c0-3.48-1.94-5-3.27-5Zm.01,1.37c.96,0,1.64,1.13,1.7,1.93.02.3,0,.81-.55.81h-2.33c-.46,0-.51-.5-.5-.76.07-.8.81-1.98,1.69-1.98Zm0,7.26c-1.08,0-1.72-1.28-1.79-2.08-.01-.25,0-.76.5-.76h2.53c.56,0,.58.5.55.81-.06.8-.72,2.03-1.8,2.03Z"/>
          <g>
            <rect class="cls-10" x="446.13" y="573.03" width="6.95" height="1.9" rx=".95" ry=".95"/>
            <rect class="cls-10" x="536.86" y="573.03" width="6.95" height="1.9" rx=".95" ry=".95"/>
            <rect class="cls-10" x="626.26" y="573.03" width="6.95" height="1.9" rx=".95" ry=".95"/>
            <rect class="cls-10" x="718.22" y="573.03" width="6.95" height="1.9" rx=".95" ry=".95"/>
          </g>
        </g>
      </g>
      <g>
        <g>
          <g>
            <circle class="cls-10" cx="81.82" cy="216.1" r="1.25"/>
            <circle class="cls-10" cx="171.82" cy="216.1" r="1.25"/>
            <circle class="cls-10" cx="261.82" cy="216.1" r="1.25"/>
            <circle class="cls-10" cx="351.82" cy="216.1" r="1.25"/>
            <circle class="cls-10" cx="441.82" cy="216.1" r="1.25"/>
            <circle class="cls-10" cx="531.82" cy="216.1" r="1.25"/>
            <circle class="cls-10" cx="621.82" cy="216.1" r="1.25"/>
            <circle class="cls-10" cx="711.82" cy="216.1" r="1.25"/>
          </g>
          <g>
            <circle class="cls-10" cx="81.82" cy="316.1" r="1.25"/>
            <circle class="cls-10" cx="171.82" cy="316.1" r="1.25"/>
            <circle class="cls-10" cx="261.82" cy="316.1" r="1.25"/>
            <circle class="cls-10" cx="351.82" cy="316.1" r="1.25"/>
            <circle class="cls-10" cx="441.82" cy="316.1" r="1.25"/>
            <circle class="cls-10" cx="531.82" cy="316.1" r="1.25"/>
            <circle class="cls-10" cx="621.82" cy="316.1" r="1.25"/>
            <circle class="cls-10" cx="711.82" cy="316.1" r="1.25"/>
          </g>
        </g>
        <g>
          <g>
            <circle class="cls-10" cx="81.82" cy="482.1" r="1.25"/>
            <circle class="cls-10" cx="171.82" cy="482.1" r="1.25"/>
            <circle class="cls-10" cx="261.82" cy="482.1" r="1.25"/>
            <circle class="cls-10" cx="351.82" cy="482.1" r="1.25"/>
            <circle class="cls-10" cx="441.82" cy="482.1" r="1.25"/>
            <circle class="cls-10" cx="531.82" cy="482.1" r="1.25"/>
            <circle class="cls-10" cx="621.82" cy="482.1" r="1.25"/>
            <circle class="cls-10" cx="711.82" cy="482.1" r="1.25"/>
          </g>
          <g>
            <circle class="cls-10" cx="81.82" cy="582.1" r="1.25"/>
            <circle class="cls-10" cx="171.82" cy="582.1" r="1.25"/>
            <circle class="cls-10" cx="261.82" cy="582.1" r="1.25"/>
            <circle class="cls-10" cx="351.82" cy="582.1" r="1.25"/>
            <circle class="cls-10" cx="441.82" cy="582.1" r="1.25"/>
            <circle class="cls-10" cx="531.82" cy="582.1" r="1.25"/>
            <circle class="cls-10" cx="621.82" cy="582.1" r="1.25"/>
            <circle class="cls-10" cx="711.82" cy="582.1" r="1.25"/>
          </g>
        </g>
      </g>
    </g>
  </g>
  <text class="cls-12" transform="translate(146.12 111.96)"><tspan class="cls-9" x="0" y="0">Type 2</tspan><tspan class="cls-4" x="82.98" y="0" xml:space="preserve"> - </tspan><tspan class="cls-5" x="105.95" y="0">Shift</tspan><tspan class="cls-4" x="167.96" y="0" xml:space="preserve">    </tspan></text>
  <text class="cls-12" transform="translate(456.4 111.97)"><tspan class="cls-9" x="0" y="0">Type 3</tspan><tspan class="cls-4" x="82.98" y="0" xml:space="preserve"> - </tspan><tspan class="cls-1" x="105.95" y="0">Cr</tspan><tspan class="cls-3" x="135.6" y="0">oss</tspan><tspan class="cls-2" x="178.34" y="0">-</tspan><tspan class="cls-5" x="187.22" y="0">Shift</tspan><tspan class="cls-4" x="249.23" y="0" xml:space="preserve">    </tspan></text>
</svg>