<?xml version="1.0" encoding="UTF-8"?>
<svg id="Layer_1" data-name="Layer 1" xmlns="http://www.w3.org/2000/svg" viewBox="0 0 612 792">
  <defs>
    <style>
      .cls-1 {
        letter-spacing: .02em;
      }

      .cls-2 {
        letter-spacing: -.02em;
      }

      .cls-3 {
        letter-spacing: .04em;
      }

      .cls-4 {
        letter-spacing: -.01em;
      }

      .cls-5, .cls-6, .cls-7, .cls-8, .cls-9, .cls-10, .cls-11, .cls-12, .cls-13 {
        fill: #231f20;
      }

      .cls-5, .cls-6, .cls-14, .cls-12 {
        font-family: Cambria-Italic, Cambria;
        font-style: italic;
      }

      .cls-5, .cls-7, .cls-10 {
        font-size: 14px;
      }

      .cls-6 {
        font-size: 25px;
      }

      .cls-15 {
        letter-spacing: -.03em;
      }

      .cls-7, .cls-8, .cls-16 {
        font-family: Cambria, Cambria;
      }

      .cls-17 {
        font-family: Cambria-Bold, Cambria;
        font-weight: 700;
      }

      .cls-18 {
        letter-spacing: 0em;
      }

      .cls-19 {
        letter-spacing: -.01em;
      }

      .cls-20 {
        fill: none;
        stroke: #231f20;
        stroke-miterlimit: 10;
        stroke-width: 2px;
      }

      .cls-21 {
        letter-spacing: -.08em;
      }

      .cls-22 {
        letter-spacing: 0em;
      }

      .cls-8, .cls-9 {
        font-size: 15px;
      }

      .cls-23 {
        letter-spacing: 0em;
      }

      .cls-24 {
        letter-spacing: 0em;
      }

      .cls-25 {
        letter-spacing: -.02em;
      }

      .cls-26 {
        letter-spacing: 0em;
      }

      .cls-27 {
        letter-spacing: 0em;
      }

      .cls-28 {
        letter-spacing: -.01em;
      }

      .cls-29 {
        letter-spacing: -.02em;
      }

      .cls-30 {
        fill: #ed1c24;
      }

      .cls-11 {
        font-family: MonotypeCorsiva, 'Monotype Corsiva';
        font-size: 35px;
      }

      .cls-31 {
        letter-spacing: 0em;
      }

      .cls-12 {
        font-size: 12px;
      }

      .cls-32 {
        letter-spacing: 0em;
      }

      .cls-33 {
        letter-spacing: .01em;
      }

      .cls-34 {
        letter-spacing: -.05em;
      }

      .cls-35 {
        letter-spacing: -.01em;
      }

      .cls-36 {
        letter-spacing: -.01em;
      }

      .cls-37 {
        letter-spacing: -.02em;
      }
    </style>
  </defs>
  <g>
    <path class="cls-30" d="m293.51,666.75l-2.02,2.8c-1.56-13.48-19.47-14.07-21.77,1.32-.25,1.65,1.74,1.99,1.99.2,1.78-12.65,16.49-13.03,18.04-1.26l-2.77-2.06s-.85,1.11-.19,1.78c.91.92,3.97,2.83,4.28,3.03.22-.28,2.57-3.03,3.16-4.18.42-.83-.73-1.64-.73-1.64Z"/>
    <path class="cls-13" d="m438.8,672.73v-2.8h12.65v2.8h-12.65Zm0,5.98v-2.8h12.65v2.8h-12.65Z"/>
    <g>
      <path class="cls-13" d="m144.98,675.9c1.74,0,1.74-2.7,0-2.7s-1.74,2.7,0,2.7h0Z"/>
      <circle class="cls-13" cx="144.98" cy="710.55" r="3"/>
      <circle class="cls-13" cx="180.98" cy="674.55" r="3"/>
      <circle class="cls-13" cx="144.98" cy="638.55" r="3"/>
      <circle class="cls-13" cx="108.98" cy="674.55" r="3"/>
    </g>
    <path class="cls-30" d="m147.32,671.09v6.91c0,.57.48,1.04,1.07,1.04s1.07-.47,1.07-1.04v-2.3h26.22c.58,0,1.05-.46,1.05-1.02v-.38c0-.55-.47-1.02-1.05-1.02h-26.22v-2.19c0-.58-.48-1.04-1.07-1.04-.59,0-1.07.46-1.07,1.04Z"/>
    <g>
      <path class="cls-13" d="m264.98,675.9c1.74,0,1.74-2.7,0-2.7s-1.74,2.7,0,2.7h0Z"/>
      <circle class="cls-13" cx="264.98" cy="710.55" r="3"/>
      <circle class="cls-13" cx="300.98" cy="674.55" r="3"/>
      <circle class="cls-13" cx="264.98" cy="638.55" r="3"/>
      <circle class="cls-13" cx="228.98" cy="674.55" r="3"/>
    </g>
    <g>
      <path class="cls-13" d="m384.98,675.9c1.74,0,1.74-2.7,0-2.7s-1.74,2.7,0,2.7h0Z"/>
      <circle class="cls-13" cx="384.98" cy="710.55" r="3"/>
      <circle class="cls-13" cx="420.98" cy="674.55" r="3"/>
      <circle class="cls-13" cx="384.98" cy="638.55" r="3"/>
      <circle class="cls-13" cx="348.98" cy="674.55" r="3"/>
    </g>
    <g>
      <path class="cls-13" d="m504.98,675.9c1.74,0,1.74-2.7,0-2.7s-1.74,2.7,0,2.7h0Z"/>
      <circle class="cls-13" cx="504.98" cy="710.55" r="3"/>
      <circle class="cls-13" cx="540.98" cy="674.55" r="3"/>
      <circle class="cls-13" cx="504.98" cy="638.55" r="3"/>
      <circle class="cls-13" cx="468.98" cy="674.55" r="3"/>
    </g>
    <path class="cls-30" d="m296.72,678v-6.91c0-.57-.48-1.04-1.07-1.04-.58,0-1.07.47-1.07,1.04v2.3h-26.22c-.58,0-1.05.46-1.05,1.02v.38c0,.55.47,1.02,1.05,1.02h26.22v2.19c0,.58.48,1.04,1.07,1.04s1.07-.46,1.07-1.04Z"/>
    <path class="cls-30" d="m390.52,682.68l2.02-2.8c1.56,13.48,19.47,14.07,21.77-1.32.25-1.65-1.74-1.99-1.99-.2-1.78,12.65-16.49,13.03-18.04,1.26l2.77,2.06s.85-1.11.19-1.78c-.91-.92-3.97-2.83-4.28-3.03-.22.28-2.57,3.03-3.16,4.18-.42.83.73,1.64.73,1.64Z"/>
    <path class="cls-30" d="m387.32,671.09v6.91c0,.57.48,1.04,1.07,1.04.58,0,1.07-.47,1.07-1.04v-2.3h26.22c.58,0,1.05-.46,1.05-1.02v-.38c0-.55-.47-1.02-1.05-1.02h-26.22v-2.19c0-.58-.48-1.04-1.07-1.04s-1.07.46-1.07,1.04Z"/>
    <path class="cls-30" d="m507.32,671.09v6.91c0,.57.48,1.04,1.07,1.04.58,0,1.07-.47,1.07-1.04v-2.3h26.22c.58,0,1.05-.46,1.05-1.02v-.38c0-.55-.47-1.02-1.05-1.02h-26.22v-2.19c0-.58-.48-1.04-1.07-1.04s-1.07.46-1.07,1.04Z"/>
  </g>
  <text class="cls-6" transform="translate(22.79 550.18)"><tspan class="cls-31" x="0" y="0">S</tspan><tspan class="cls-26" x="11.85" y="0">t</tspan><tspan x="20.31" y="0">atic</tspan></text>
  <text class="cls-12" transform="translate(140.14 629.66)"><tspan x="0" y="0">in</tspan></text>
  <text class="cls-12" transform="translate(256.66 629.66)"><tspan x="0" y="0">out</tspan></text>
  <text class="cls-5" transform="translate(133.89 612.9)"><tspan x="0" y="0">s</tspan><tspan class="cls-26" x="5.35" y="0">t</tspan><tspan x="10.08" y="0">art</tspan></text>
  <text class="cls-5" transform="translate(244.16 612.9)"><tspan x="0" y="0">hal</tspan><tspan class="cls-1" x="18.52" y="0">f</tspan><tspan class="cls-27" x="22.89" y="0">wa</tspan><tspan x="40.3" y="0">y</tspan></text>
  <text class="cls-5" transform="translate(376.57 612.9)"><tspan x="0" y="0">end</tspan></text>
  <text class="cls-5" transform="translate(77.88 631.06)"><tspan x="0" y="0">thumbs:</tspan></text>
  <text class="cls-12" transform="translate(383.24 629.66)"><tspan x="0" y="0">in</tspan></text>
  <path class="cls-30" d="m517.57,678.77c-1.1-.81-4.61-2.35-4.96-2.52-.2.33-2.23,3.59-2.68,4.88-.31.93,1.01,1.6,1.01,1.6l1.7-3.24c1.84,6.23,8.24,6.64,9.83,6.64,6.89,0,11.67-5.14,11.67-11.47,0-6.66-5.17-11.7-11.82-11.7-5.03,0-9.21,3.31-10.66,8.14-.48,1.66,1.45,2.16,1.96.53,1.24-4.01,4.56-6.64,8.71-6.64,5.54,0,9.79,4.12,9.79,9.66,0,5.21-4.42,9.56-9.63,9.56-1.59,0-6.12-.26-8.06-5.28l3.23,1.72s.72-1.3-.07-1.9Z"/>
  <line class="cls-20" x1="20.88" y1="515.08" x2="591.12" y2="515.08"/>
  <text class="cls-10" transform="translate(170.74 747.63)"><tspan class="cls-16"><tspan x="0" y="0">A static motion has 0 thumb </tspan><tspan class="cls-27" x="170.39" y="0">s</tspan><tspan x="176.34" y="0">wi</tspan><tspan class="cls-22" x="191.07" y="0">t</tspan><tspan x="195.69" y="0">ches</tspan><tspan x="222.43" y="0">, the</tspan><tspan class="cls-36" x="247.67" y="0">r</tspan><tspan x="253.26" y="0">e</tspan><tspan class="cls-19" x="260.09" y="0">f</tspan><tspan x="264.15" y="0">o</tspan><tspan class="cls-36" x="271.58" y="0">r</tspan><tspan x="277.17" y="0">e</tspan></tspan><tspan class="cls-17"><tspan x="-67.98" y="16.8">A static motion with 2 turns has 2 thumb </tspan><tspan class="cls-27" x="195.65" y="16.8">s</tspan><tspan x="202" y="16.8">wi</tspan><tspan class="cls-28" x="217.58" y="16.8">t</tspan><tspan x="222.51" y="16.8">ches (in </tspan><tspan x="276.01" y="16.8">→ out → in)</tspan><tspan x="348.73" y="16.8">.</tspan></tspan></text>
  <g>
    <path class="cls-30" d="m254.09,222.51h6.91c.57,0,1.04-.48,1.04-1.07,0-.58-.47-1.07-1.04-1.07h-2.3v-26.22c0-.58-.46-1.05-1.02-1.05h-.38c-.55,0-1.02.47-1.02,1.05v26.22h-2.19c-.58,0-1.04.48-1.04,1.07s.46,1.07,1.04,1.07Z"/>
    <path class="cls-30" d="m142.85,212.97v6.91c0,.57.48,1.04,1.07,1.04.58,0,1.07-.47,1.07-1.04v-2.3h26.22c.58,0,1.05-.46,1.05-1.02v-.38c0-.55-.47-1.02-1.05-1.02h-26.22v-2.19c0-.58-.48-1.04-1.07-1.04s-1.07.46-1.07,1.04Z"/>
    <g>
      <circle class="cls-13" cx="57.55" cy="243.81" r="3"/>
      <circle class="cls-13" cx="93.55" cy="207.81" r="3"/>
      <circle class="cls-13" cx="57.55" cy="171.81" r="3"/>
      <circle class="cls-13" cx="21.55" cy="207.81" r="3"/>
      <circle class="cls-13" cx="57.55" cy="207.81" r="1.35"/>
    </g>
    <g>
      <circle class="cls-13" cx="157.55" cy="243.81" r="3"/>
      <circle class="cls-13" cx="193.55" cy="207.81" r="3"/>
      <circle class="cls-13" cx="157.55" cy="171.81" r="3"/>
      <circle class="cls-13" cx="121.55" cy="207.81" r="3"/>
      <circle class="cls-13" cx="157.55" cy="207.81" r="1.35"/>
    </g>
    <g>
      <circle class="cls-13" cx="257.55" cy="243.81" r="3"/>
      <circle class="cls-13" cx="293.55" cy="207.81" r="3"/>
      <circle class="cls-13" cx="257.55" cy="171.81" r="3"/>
      <circle class="cls-13" cx="221.55" cy="207.81" r="3"/>
      <circle class="cls-13" cx="257.55" cy="207.81" r="1.35"/>
    </g>
    <g>
      <circle class="cls-13" cx="357.55" cy="243.81" r="3"/>
      <circle class="cls-13" cx="393.55" cy="207.81" r="3"/>
      <circle class="cls-13" cx="357.55" cy="171.81" r="3"/>
      <circle class="cls-13" cx="321.55" cy="207.81" r="3"/>
      <circle class="cls-13" cx="357.55" cy="207.81" r="1.35"/>
    </g>
    <path class="cls-30" d="m61.01,210.33h-6.91c-.57,0-1.04.48-1.04,1.07,0,.58.47,1.07,1.04,1.07h2.3v26.22c0,.58.46,1.05,1.02,1.05h.38c.55,0,1.02-.47,1.02-1.05v-26.22h2.19c.58,0,1.04-.48,1.04-1.07,0-.59-.46-1.07-1.04-1.07Z"/>
    <path class="cls-30" d="m372.25,202.66v-6.91c0-.57-.48-1.04-1.07-1.04-.58,0-1.07.47-1.07,1.04v2.3h-26.22c-.58,0-1.05.46-1.05,1.02v.38c0,.55.47,1.02,1.05,1.02h26.22v2.19c0,.58.48,1.04,1.07,1.04s1.07-.46,1.07-1.04Z"/>
    <text class="cls-5" transform="translate(43.09 147.69)"><tspan x="0" y="0">s</tspan><tspan class="cls-26" x="5.35" y="0">t</tspan><tspan x="10.08" y="0">art</tspan></text>
    <text class="cls-5" transform="translate(234.18 147.69)"><tspan x="0" y="0">hal</tspan><tspan class="cls-1" x="18.52" y="0">f</tspan><tspan class="cls-27" x="22.89" y="0">wa</tspan><tspan x="40.3" y="0">y</tspan></text>
    <text class="cls-5" transform="translate(446.93 148.89)"><tspan x="0" y="0">end</tspan></text>
    <text class="cls-12" transform="translate(52.29 163.11)"><tspan x="0" y="0">in</tspan></text>
    <text class="cls-12" transform="translate(449.22 163.11)"><tspan x="0" y="0">out</tspan></text>
  </g>
  <text class="cls-11" transform="translate(267 36.72)"><tspan x="0" y="0">Dashes</tspan></text>
  <text class="cls-10" transform="translate(195.16 65.02)"><tspan class="cls-16"><tspan x="0" y="0">N</tspan><tspan class="cls-27" x="9.53" y="0">o</tspan><tspan x="16.89" y="0">w let’s add a double turn </tspan><tspan class="cls-22" x="167.21" y="0">t</tspan><tspan x="171.82" y="0">o a dash.</tspan></tspan><tspan class="cls-16"><tspan x="-67.79" y="16.8">It’s </tspan><tspan class="cls-36" x="-46.32" y="16.8">r</tspan><tspan x="-40.74" y="16.8">elat</tspan><tspan class="cls-37" x="-18.53" y="16.8">i</tspan><tspan class="cls-29" x="-14.92" y="16.8">v</tspan><tspan x="-8.14" y="16.8">e</tspan><tspan class="cls-37" x="-1.31" y="16.8">l</tspan><tspan x="2.21" y="16.8">y compl</tspan><tspan class="cls-4" x="49.18" y="16.8">e</tspan><tspan x="55.85" y="16.8">x, so </tspan><tspan class="cls-35" x="85.1" y="16.8">w</tspan><tspan x="95.76" y="16.8">e’ll b</tspan><tspan class="cls-36" x="124.04" y="16.8">r</tspan><tspan x="129.62" y="16.8">eak it d</tspan><tspan class="cls-27" x="173.19" y="16.8">o</tspan><tspan x="180.55" y="16.8">wn in</tspan><tspan class="cls-22" x="213.99" y="16.8">t</tspan><tspan x="218.61" y="16.8">o </tspan><tspan class="cls-19" x="229.12" y="16.8">f</tspan><tspan x="233.19" y="16.8">our parts.</tspan></tspan><tspan class="cls-14"><tspan x="-40.73" y="33.6">(Th</tspan><tspan class="cls-18" x="-20.07" y="33.6">e</tspan><tspan x="-13.75" y="33.6">se ar</tspan><tspan class="cls-32" x="14.14" y="33.6">r</tspan><tspan class="cls-19" x="19.7" y="33.6">o</tspan><tspan class="cls-24" x="26.63" y="33.6">w</tspan><tspan x="36.75" y="33.6">s </tspan><tspan class="cls-32" x="45.18" y="33.6">r</tspan><tspan x="50.75" y="33.6">efer </tspan><tspan class="cls-26" x="76.42" y="33.6">t</tspan><tspan x="81.16" y="33.6">o the pinky end on the first half, </tspan></tspan><tspan class="cls-14"><tspan x="-10.4" y="50.4">then </tspan><tspan class="cls-26" x="18.83" y="50.4">t</tspan><tspan x="23.57" y="50.4">o the thumb end on the se</tspan><tspan class="cls-27" x="172.26" y="50.4">c</tspan><tspan x="178.25" y="50.4">ond half.)</tspan></tspan></text>
  <text class="cls-9" transform="translate(93.21 458.77)"><tspan class="cls-16"><tspan x="0" y="0">A base dash starting f</tspan><tspan class="cls-36" x="136.84" y="0">r</tspan><tspan x="142.82" y="0">om thumb in ends with thumb ou</tspan><tspan class="cls-33" x="356.11" y="0">t</tspan><tspan x="361.41" y="0">, the</tspan><tspan class="cls-36" x="388.45" y="0">r</tspan><tspan x="394.44" y="0">e</tspan><tspan class="cls-19" x="401.76" y="0">f</tspan><tspan x="406.11" y="0">o</tspan><tspan class="cls-36" x="414.07" y="0">r</tspan><tspan x="420.06" y="0">e</tspan></tspan><tspan class="cls-17"><tspan x="20.97" y="18">A dash with 2 turns also ends with thumb ou</tspan><tspan class="cls-33" x="325.76" y="18">t</tspan><tspan x="331.45" y="18">. (in </tspan><tspan x="361.43" y="18">→ out)</tspan></tspan><tspan class="cls-17"><tspan class="cls-34" x="-78.88" y="36">F</tspan><tspan x="-71.34" y="36">or a </tspan><tspan class="cls-15" x="-41.25" y="36">v</tspan><tspan x="-33.71" y="36">ertical dash such as this, </tspan><tspan class="cls-15" x="136.63" y="36">y</tspan><tspan x="144.17" y="36">ou can use up/d</tspan><tspan class="cls-25" x="253.94" y="36">o</tspan><tspan x="262.17" y="36">wn as indica</tspan><tspan class="cls-28" x="347.22" y="36">t</tspan><tspan x="352.49" y="36">ors. (up → d</tspan><tspan class="cls-25" x="433.79" y="36">o</tspan><tspan x="442.01" y="36">wn → up)</tspan></tspan></text>
  <text class="cls-8" transform="translate(111.65 556.32)"><tspan x="0" y="0">Final</tspan><tspan class="cls-37" x="31.98" y="0">l</tspan><tspan class="cls-21" x="35.76" y="0">y</tspan><tspan x="42.07" y="0">, a static motion with 2 turns is simp</tspan><tspan class="cls-37" x="273.49" y="0">l</tspan><tspan x="277.26" y="0">y a 36</tspan><tspan class="cls-3" x="315.36" y="0">0</tspan><tspan x="324.26" y="0">° turn in place.</tspan><tspan x="17.23" y="18">It’s necessary </tspan><tspan class="cls-22" x="107.14" y="18">t</tspan><tspan x="112.08" y="18">o use ne</tspan><tspan class="cls-23" x="164.38" y="18">g</tspan><tspan x="171.67" y="18">at</tspan><tspan class="cls-37" x="184.07" y="18">i</tspan><tspan class="cls-29" x="187.94" y="18">v</tspan><tspan x="195.21" y="18">e space or a turn </tspan><tspan class="cls-22" x="304.5" y="18">t</tspan><tspan x="309.45" y="18">o achi</tspan><tspan class="cls-32" x="347.09" y="18">e</tspan><tspan class="cls-29" x="354.27" y="18">v</tspan><tspan x="361.53" y="18">e this.</tspan></text>
  <text class="cls-6" transform="translate(503.86 77.35)"><tspan x="0" y="0">V</tspan><tspan class="cls-28" x="14.38" y="0">T</tspan><tspan x="28.38" y="0">G: 2:1</tspan></text>
  <polygon class="cls-13" points="93.55 235.47 111.49 235.47 111.49 231.67 117.74 236.56 111.49 241.45 111.49 237.65 93.55 237.65 93.55 235.47"/>
  <polygon class="cls-13" points="193.55 235.47 211.49 235.47 211.49 231.67 217.74 236.56 211.49 241.45 211.49 237.65 193.55 237.65 193.55 235.47"/>
  <polygon class="cls-13" points="293.55 235.47 311.49 235.47 311.49 231.67 317.74 236.56 311.49 241.45 311.49 237.65 293.55 237.65 293.55 235.47"/>
  <polygon class="cls-13" points="393.55 235.47 411.49 235.47 411.49 231.67 417.74 236.56 411.49 241.45 411.49 237.65 393.55 237.65 393.55 235.47"/>
  <g>
    <circle class="cls-13" cx="457.55" cy="243.81" r="3"/>
    <circle class="cls-13" cx="493.55" cy="207.81" r="3"/>
    <circle class="cls-13" cx="457.55" cy="171.81" r="3"/>
    <circle class="cls-13" cx="421.55" cy="207.81" r="3"/>
    <circle class="cls-13" cx="457.55" cy="207.81" r="1.35"/>
  </g>
  <path class="cls-30" d="m461.01,175.9h-6.91c-.57,0-1.04.48-1.04,1.07,0,.58.47,1.07,1.04,1.07h2.3v26.22c0,.58.46,1.05,1.02,1.05h.38c.55,0,1.02-.47,1.02-1.05v-26.22h2.19c.58,0,1.04-.48,1.04-1.07s-.46-1.07-1.04-1.07Z"/>
  <g>
    <circle class="cls-13" cx="557.55" cy="243.81" r="3"/>
    <circle class="cls-13" cx="593.55" cy="207.81" r="3"/>
    <circle class="cls-13" cx="557.55" cy="171.81" r="3"/>
    <circle class="cls-13" cx="521.55" cy="207.81" r="3"/>
    <circle class="cls-13" cx="557.55" cy="207.81" r="1.35"/>
  </g>
  <path class="cls-30" d="m561.01,175.9h-6.91c-.57,0-1.04.48-1.04,1.07,0,.58.47,1.07,1.04,1.07h2.3v26.22c0,.58.46,1.05,1.02,1.05h.38c.55,0,1.02-.47,1.02-1.05v-26.22h2.19c.58,0,1.04-.48,1.04-1.07s-.46-1.07-1.04-1.07Z"/>
  <path class="cls-30" d="m562.68,196.4s-1.82-.04-2.02,1.16c-.28,1.73.12,6.82.12,6.82,0,0,5.42.31,6.79.1,1.21-.18,1.19-1.99,1.19-1.99,0,0-4.58.01-4.6,0,10.03-12.45,9.92,15.35-3.27,35.38-1.21,1.84.98,3.45,1.97,1.8,17.62-29.58,11.13-52.12-.09-38.82l-.1-4.44Z"/>
  <path class="cls-30" d="m162.91,239.24c2.2-2.09,8.36-11.26,8.36-17.38l2.49,2.45s1.09-1.05.5-1.87c-.79-1.08-4.05-3.91-4.05-3.91,0,0-3.26,2.83-4.05,3.91-.59.82.5,1.87.5,1.87l2.51-2.47c0,6.46-5.72,13.69-7.75,16.01-1.33,1.52.28,2.54,1.49,1.4Z"/>
  <path class="cls-30" d="m271.94,214.77c.08-3.04-2.05-13.87-6.38-18.2l3.49-.03s.03-1.51-.97-1.68c-1.32-.21-5.63.1-5.63.1,0,0-.3,4.31-.1,5.63.16,1,1.68.97,1.68.97l.03-3.52c4.57,4.57,5.64,13.73,5.84,16.8.13,2.01,1.99,1.6,2.04-.06Z"/>
  <path class="cls-30" d="m362.28,224.79c2.2-2.09,8.36-11.26,8.36-17.38l2.49,2.45s1.09-1.05.5-1.87c-.79-1.08-4.05-3.91-4.05-3.91,0,0-3.26,2.83-4.05,3.91-.59.82.5,1.87.5,1.87l2.51-2.47c0,6.46-5.72,13.69-7.75,16.01-1.33,1.52.28,2.54,1.49,1.4Z"/>
  <path class="cls-30" d="m472.56,196.75c.08-3.04-2.05-13.87-6.38-18.2l3.49-.03s.03-1.51-.97-1.68c-1.32-.21-5.63.1-5.63.1,0,0-.3,4.31-.1,5.63.16,1,1.68.97,1.68.97l.03-3.52c4.57,4.57,5.64,13.73,5.84,16.8.13,2.01,1.99,1.6,2.04-.06Z"/>
  <path class="cls-13" d="m501.32,234.97v-2.8h12.65v2.8h-12.65Zm0,5.98v-2.8h12.65v2.8h-12.65Z"/>
  <text class="cls-7" transform="translate(17.64 284.04)"><tspan x="0" y="0">As with all dashes, it’s important </tspan><tspan class="cls-22" x="197.33" y="0">t</tspan><tspan x="201.95" y="0">o t</tspan><tspan class="cls-2" x="217.2" y="0">r</tspan><tspan class="cls-29" x="222.75" y="0">av</tspan><tspan x="236.09" y="0">el in a st</tspan><tspan class="cls-2" x="285.26" y="0">r</tspan><tspan x="290.81" y="0">ai</tspan><tspan class="cls-26" x="301.54" y="0">g</tspan><tspan x="308.36" y="0">ht handpath </tspan><tspan class="cls-32" x="384.21" y="0">e</tspan><tspan class="cls-29" x="390.91" y="0">v</tspan><tspan x="397.69" y="0">en thou</tspan><tspan class="cls-26" x="443.04" y="0">g</tspan><tspan x="449.86" y="0">h the p</tspan><tspan class="cls-36" x="490.83" y="0">r</tspan><tspan x="496.41" y="0">op is </tspan><tspan class="cls-36" x="527.7" y="0">r</tspan><tspan x="533.29" y="0">otating.</tspan><tspan x="172.09" y="16.8">He</tspan><tspan class="cls-36" x="188.54" y="16.8">r</tspan><tspan x="194.12" y="16.8">e is the same motion b</tspan><tspan class="cls-36" x="327.5" y="16.8">r</tspan><tspan x="333.09" y="16.8">o</tspan><tspan class="cls-2" x="340.52" y="16.8">k</tspan><tspan x="347.62" y="16.8">en in half:</tspan></text>
  <g>
    <path class="cls-30" d="m492.03,382.11s-1.82-.04-2.02,1.16c-.28,1.73.12,6.82.12,6.82,0,0,5.42.31,6.79.1,1.21-.18,1.19-1.99,1.19-1.99,0,0-4.58.01-4.6,0,10.03-12.45,9.92,15.35-3.27,35.38-1.21,1.84.98,3.45,1.97,1.8,17.62-29.58,11.13-52.12-.09-38.82l-.1-4.44Z"/>
    <g>
      <text class="cls-12" transform="translate(122.21 348.47)"><tspan x="0" y="0">in</tspan></text>
      <path class="cls-13" d="m420.71,391.25v-2.8h12.65v2.8h-12.65Zm0,5.98v-2.8h12.65v2.8h-12.65Z"/>
      <text class="cls-5" transform="translate(112.85 331.71)"><tspan x="0" y="0">s</tspan><tspan class="cls-26" x="5.35" y="0">t</tspan><tspan x="10.08" y="0">art</tspan></text>
      <text class="cls-5" transform="translate(223.12 331.71)"><tspan x="0" y="0">hal</tspan><tspan class="cls-1" x="18.52" y="0">f</tspan><tspan class="cls-27" x="22.89" y="0">wa</tspan><tspan x="40.3" y="0">y</tspan></text>
      <text class="cls-5" transform="translate(355.53 331.71)"><tspan x="0" y="0">end</tspan></text>
      <g>
        <path class="cls-13" d="m126.89,394.19c1.45,0,1.45-2.25,0-2.25s-1.45,2.25,0,2.25h0Z"/>
        <circle class="cls-13" cx="126.89" cy="429.06" r="3"/>
        <circle class="cls-13" cx="162.89" cy="393.06" r="3"/>
        <circle class="cls-13" cx="126.89" cy="357.06" r="3"/>
        <circle class="cls-13" cx="90.89" cy="393.06" r="3"/>
      </g>
      <path class="cls-30" d="m130.35,395.4h-6.91c-.57,0-1.04.48-1.04,1.07,0,.58.47,1.07,1.04,1.07h2.3v26.22c0,.58.46,1.05,1.02,1.05h.38c.55,0,1.02-.47,1.02-1.05v-26.22h2.19c.58,0,1.04-.48,1.04-1.07s-.46-1.07-1.04-1.07Z"/>
      <path class="cls-30" d="m243.45,407.77h6.91c.57,0,1.04-.48,1.04-1.07,0-.58-.47-1.07-1.04-1.07h-2.3v-26.22c0-.58-.46-1.05-1.02-1.05h-.38c-.55,0-1.02.47-1.02,1.05v26.22h-2.19c-.58,0-1.04.48-1.04,1.07s.46,1.07,1.04,1.07Z"/>
      <path class="cls-30" d="m370.35,361.32h-6.91c-.57,0-1.04.48-1.04,1.07s.47,1.07,1.04,1.07h2.3v26.22c0,.58.46,1.05,1.02,1.05h.38c.55,0,1.02-.47,1.02-1.05v-26.22h2.19c.58,0,1.04-.48,1.04-1.07s-.46-1.07-1.04-1.07Z"/>
      <path class="cls-30" d="m490.35,361.32h-6.91c-.57,0-1.04.48-1.04,1.07s.47,1.07,1.04,1.07h2.3v26.22c0,.58.46,1.05,1.02,1.05h.38c.55,0,1.02-.47,1.02-1.05v-26.22h2.19c.58,0,1.04-.48,1.04-1.07s-.46-1.07-1.04-1.07Z"/>
      <g>
        <path class="cls-13" d="m246.89,394.19c1.45,0,1.45-2.25,0-2.25s-1.45,2.25,0,2.25h0Z"/>
        <circle class="cls-13" cx="246.89" cy="429.06" r="3"/>
        <circle class="cls-13" cx="282.89" cy="393.06" r="3"/>
        <circle class="cls-13" cx="246.89" cy="357.06" r="3"/>
        <circle class="cls-13" cx="210.89" cy="393.06" r="3"/>
      </g>
      <g>
        <path class="cls-13" d="m366.89,394.19c1.45,0,1.45-2.25,0-2.25s-1.45,2.25,0,2.25h0Z"/>
        <circle class="cls-13" cx="366.89" cy="429.06" r="3"/>
        <circle class="cls-13" cx="402.89" cy="393.06" r="3"/>
        <circle class="cls-13" cx="366.89" cy="357.06" r="3"/>
        <circle class="cls-13" cx="330.89" cy="393.06" r="3"/>
      </g>
      <g>
        <path class="cls-13" d="m486.89,394.19c1.45,0,1.45-2.25,0-2.25s-1.45,2.25,0,2.25h0Z"/>
        <circle class="cls-13" cx="486.89" cy="429.06" r="3"/>
        <circle class="cls-13" cx="522.89" cy="393.06" r="3"/>
        <circle class="cls-13" cx="486.89" cy="357.06" r="3"/>
        <circle class="cls-13" cx="450.89" cy="393.06" r="3"/>
      </g>
      <text class="cls-12" transform="translate(358.72 348.47)"><tspan x="0" y="0">out</tspan></text>
    </g>
    <path class="cls-30" d="m250.29,380.59s-1.02,5.34-.98,6.73c.02,1.22,1.82,1.43,1.82,1.43l.46-3.94c9.6,11.84,8.68,27.57-1.93,38.54-1.24,1.28.81,3.47,2.17,1.92,11.92-13.65,12.32-28.62,2.02-42.27l4.12.5s.28-1.8-.89-2.15c-1.68-.49-6.78-.77-6.78-.77Z"/>
    <path class="cls-30" d="m371.98,362.83s-1.02,5.34-.98,6.73c.02,1.22,1.82,1.43,1.82,1.43l.46-3.94c9.6,11.84,8.68,27.57-1.93,38.54-1.24,1.28.81,3.47,2.17,1.92,11.92-13.65,12.32-28.62,2.02-42.27l4.12.5s.28-1.8-.89-2.15c-1.68-.49-6.78-.77-6.78-.77Z"/>
  </g>
  <polygon class="cls-13" points="174.81 391.98 192.75 391.98 192.75 388.18 199 393.07 192.75 397.96 192.75 394.16 174.81 394.16 174.81 391.98"/>
  <polygon class="cls-13" points="294.81 391.98 312.75 391.98 312.75 388.18 319 393.07 312.75 397.96 312.75 394.16 294.81 394.16 294.81 391.98"/>
</svg>