<?xml version="1.0" encoding="UTF-8"?>
<svg id="Layer_1" data-name="Layer 1" xmlns="http://www.w3.org/2000/svg" viewBox="0 0 792 612">
  <defs>
    <style>
      .cls-1 {
        fill: #00aeef;
      }

      .cls-1, .cls-2, .cls-3, .cls-4 {
        font-family: Cambria-BoldItalic, Cambria;
        font-weight: 700;
      }

      .cls-2 {
        letter-spacing: -.03em;
      }

      .cls-2, .cls-5, .cls-6, .cls-3, .cls-7 {
        fill: #231f20;
      }

      .cls-8 {
        fill: #2e3192;
      }

      .cls-5 {
        font-family: Cambria, Cambria;
        font-size: 50px;
      }

      .cls-9 {
        font-size: 30px;
        font-style: italic;
      }

      .cls-6 {
        font-family: Cambria-Italic, Cambria;
      }

      .cls-10 {
        fill: #ed1c24;
      }

      .cls-4 {
        fill: #7f3f98;
      }

      .cls-11 {
        fill: none;
        stroke: #231f20;
        stroke-miterlimit: 10;
        stroke-width: .5px;
      }
    </style>
  </defs>
  <g>
    <g>
      <path class="cls-7" d="m274.86,50.22c3.22,0,3.22-5,0-5s-3.22,5,0,5h0Z"/>
      <path class="cls-7" d="m244.86,20.22c3.22,0,3.22-5,0-5s-3.22,5,0,5h0Z"/>
      <path class="cls-7" d="m214.86,50.22c3.22,0,3.22-5,0-5s-3.22,5,0,5h0Z"/>
      <path class="cls-7" d="m244.86,80.22c3.22,0,3.22-5,0-5s-3.22,5,0,5h0Z"/>
      <path class="cls-7" d="m244.86,48.84c1.45,0,1.45-2.25,0-2.25s-1.45,2.25,0,2.25h0Z"/>
    </g>
    <path class="cls-10" d="m252.02,53.6l3.11-1.81s-.75-1.3-1.7-.92c-1.07.44-4.82,2.98-4.82,2.98,0,0,1.9,3.81,2.83,4.92.65.79,1.94-.02,1.94-.02l-1.86-3.16s-.08-.07-.11-.11c12.12,3.21,10.66,16.23-1.57,17.88-.76.1-1.34.72-1.22,1.28.11.49.42.95,1.4.8,14.98-2.35,15.63-18.27,2-21.84Z"/>
    <path class="cls-8" d="m238.97,54.88l1.81,3.11s1.3-.75.92-1.7c-.44-1.07-2.98-4.82-2.98-4.82,0,0-3.81,1.9-4.92,2.83-.79.65.02,1.94.02,1.94l3.16-1.86s.07-.08.11-.11c-3.21,12.12-16.23,10.66-17.88-1.57-.1-.76-.72-1.34-1.28-1.22-.49.11-.95.42-.8,1.4,2.35,14.98,18.27,15.63,21.84,2Z"/>
    <path class="cls-10" d="m237.69,53.6l-3.11-1.81s.75-1.3,1.7-.92c1.07.44,4.82,2.98,4.82,2.98,0,0-1.9,3.81-2.83,4.92-.65.79-1.94-.02-1.94-.02l1.86-3.16s.08-.07.11-.11c-12.12,3.21-10.66,16.23,1.57,17.88.76.1,1.34.72,1.22,1.28-.11.49-.42.95-1.4.8-14.98-2.35-15.63-18.27-2-21.84Z"/>
    <path class="cls-8" d="m250.74,54.88l-1.81,3.11s-1.3-.75-.92-1.7c.44-1.07,2.98-4.82,2.98-4.82,0,0,3.81,1.9,4.92,2.83.79.65-.02,1.94-.02,1.94l-3.16-1.86s-.07-.08-.11-.11c3.21,12.12,16.23,10.66,17.88-1.57.1-.76.72-1.34,1.28-1.22.49.11.95.42.8,1.4-2.35,14.98-18.27,15.63-21.84,2Z"/>
    <path class="cls-10" d="m237.69,41.83l-3.11,1.81s.75,1.3,1.7.92c1.07-.44,4.82-2.98,4.82-2.98,0,0-1.9-3.81-2.83-4.92-.65-.79-1.94.02-1.94.02l1.86,3.16s.08.07.11.11c-12.12-3.21-10.66-16.23,1.57-17.88.76-.1,1.34-.72,1.22-1.28-.11-.49-.42-.95-1.4-.8-14.98,2.35-15.63,18.27-2,21.84Z"/>
    <path class="cls-8" d="m250.74,40.55l-1.81-3.11s-1.3.75-.92,1.7c.44,1.07,2.98,4.82,2.98,4.82,0,0,3.81-1.9,4.92-2.83.79-.65-.02-1.94-.02-1.94l-3.16,1.86s-.07.08-.11.11c3.21-12.12,16.23-10.66,17.88,1.57.1.76.72,1.34,1.28,1.22.49-.11.95-.42.8-1.4-2.35-14.98-18.27-15.63-21.84-2Z"/>
    <path class="cls-10" d="m252.02,41.83l3.11,1.81s-.75,1.3-1.7.92c-1.07-.44-4.82-2.98-4.82-2.98,0,0,1.9-3.81,2.83-4.92.65-.79,1.94.02,1.94.02l-1.86,3.16s-.08.07-.11.11c12.12-3.21,10.66-16.23-1.57-17.88-.76-.1-1.34-.72-1.22-1.28.11-.49.42-.95,1.4-.8,14.98,2.35,15.63,18.27,2,21.84Z"/>
    <path class="cls-8" d="m238.97,40.55l1.81-3.11s1.3.75.92,1.7c-.44,1.07-2.98,4.82-2.98,4.82,0,0-3.81-1.9-4.92-2.83-.79-.65.02-1.94.02-1.94l3.16,1.86s.07.08.11.11c-3.21-12.12-16.23-10.66-17.88,1.57-.1.76-.72,1.34-1.28,1.22-.49-.11-.95-.42-.8-1.4,2.35-14.98,18.27-15.63,21.84-2Z"/>
  </g>
  <g>
    <g>
      <path class="cls-7" d="m573.47,50.96c3.22,0,3.22-5,0-5s-3.22,5,0,5h0Z"/>
      <path class="cls-7" d="m543.47,20.96c3.22,0,3.22-5,0-5s-3.22,5,0,5h0Z"/>
      <path class="cls-7" d="m513.47,50.96c3.22,0,3.22-5,0-5s-3.22,5,0,5h0Z"/>
      <path class="cls-7" d="m543.47,80.96c3.22,0,3.22-5,0-5s-3.22,5,0,5h0Z"/>
      <path class="cls-7" d="m543.47,49.58c1.45,0,1.45-2.25,0-2.25s-1.45,2.25,0,2.25h0Z"/>
    </g>
    <path class="cls-10" d="m574.22,38.45s-3.01-3.38-3.95-4.07c-.82-.61-1.87.47-1.87.47l2.7,2.65c-7.31.33-7.91-4.12-6.28-10.29-6.34,1.43-11.8,2.9-11.8-9.19,0-1.35-2.05-1.36-2.05-.01,0,8.38,3.19,13.94,11.26,11.98-.88,6.54,1.72,9.05,8.86,9.31l-2.69,2.73s1.05,1.1,1.87.5c1.18-.85,3.95-4.08,3.95-4.08Z"/>
    <path class="cls-8" d="m547.77,24.47s3.38,3.01,4.07,3.95c.61.82-.47,1.87-.47,1.87l-2.65-2.7c-.33,7.31,4.12,7.91,10.29,6.28-1.43,6.34-2.9,11.8,9.19,11.8,1.35,0,1.36,2.05.01,2.05-8.38,0-13.94-3.19-11.98-11.26-6.54.88-9.05-1.72-9.31-8.86l-2.73,2.69s-1.1-1.05-.5-1.87c.85-1.18,4.08-3.95,4.08-3.95Z"/>
    <path class="cls-8" d="m574.22,58.47s-3.01,3.38-3.95,4.07c-.82.61-1.87-.47-1.87-.47l2.7-2.65c-7.31-.33-7.91,4.12-6.28,10.29-6.34-1.43-11.8-2.9-11.8,9.19,0,1.35-2.05,1.36-2.05.01,0-8.38,3.19-13.94,11.26-11.98-.88-6.54,1.72-9.05,8.86-9.31l-2.69-2.73s1.05-1.1,1.87-.5c1.18.85,3.95,4.08,3.95,4.08Z"/>
    <path class="cls-10" d="m547.77,72.45s3.38-3.01,4.07-3.95c.61-.82-.47-1.87-.47-1.87l-2.65,2.7c-.33-7.31,4.12-7.91,10.29-6.28-1.43-6.34-2.9-11.8,9.19-11.8,1.35,0,1.36-2.05.01-2.05-8.38,0-13.94,3.19-11.98,11.26-6.54-.88-9.05,1.72-9.31,8.86l-2.73-2.69s-1.1,1.05-.5,1.87c.85,1.18,4.08,3.95,4.08,3.95Z"/>
    <path class="cls-8" d="m512.71,38.45s3.01-3.38,3.95-4.07c.82-.61,1.87.47,1.87.47l-2.7,2.65c7.31.33,7.91-4.12,6.28-10.29,6.34,1.43,11.8,2.9,11.8-9.19,0-1.35,2.05-1.36,2.05-.01,0,8.38-3.19,13.94-11.26,11.98.88,6.54-1.72,9.05-8.86,9.31l2.69,2.73s-1.05,1.1-1.87.5c-1.18-.85-3.95-4.08-3.95-4.08Z"/>
    <path class="cls-10" d="m539.17,24.47s-3.38,3.01-4.07,3.95c-.61.82.47,1.87.47,1.87l2.65-2.7c.33,7.31-4.12,7.91-10.29,6.28,1.43,6.34,2.9,11.8-9.19,11.8-1.35,0-1.36,2.05-.01,2.05,8.38,0,13.94-3.19,11.98-11.26,6.54.88,9.05-1.72,9.31-8.86l2.73,2.69s1.1-1.05.5-1.87c-.85-1.18-4.08-3.95-4.08-3.95Z"/>
    <path class="cls-10" d="m512.71,58.47s3.01,3.38,3.95,4.07c.82.61,1.87-.47,1.87-.47l-2.7-2.65c7.31-.33,7.91,4.12,6.28,10.29,6.34-1.43,11.8-2.9,11.8,9.19,0,1.35,2.05,1.36,2.05.01,0-8.38-3.19-13.94-11.26-11.98.88-6.54-1.72-9.05-8.86-9.31l2.69-2.73s-1.05-1.1-1.87-.5c-1.18.85-3.95,4.08-3.95,4.08Z"/>
    <path class="cls-8" d="m539.17,72.45s-3.38-3.01-4.07-3.95c-.61-.82.47-1.87.47-1.87l2.65,2.7c.33-7.31-4.12-7.91-10.29-6.28,1.43-6.34,2.9-11.8-9.19-11.8-1.35,0-1.36-2.05-.01-2.05,8.38,0,13.94,3.19,11.98,11.26,6.54-.88,9.05,1.72,9.31,8.86l2.73-2.69s1.1,1.05.5,1.87c-.85,1.18-4.08,3.95-4.08,3.95Z"/>
  </g>
  <g>
    <path class="cls-7" d="m125.16,208.82c3.22,0,3.22-5,0-5s-3.22,5,0,5h0Z"/>
    <path class="cls-7" d="m95.16,178.82c3.22,0,3.22-5,0-5s-3.22,5,0,5h0Z"/>
    <path class="cls-7" d="m65.16,208.82c3.22,0,3.22-5,0-5s-3.22,5,0,5h0Z"/>
    <path class="cls-7" d="m95.16,238.82c3.22,0,3.22-5,0-5s-3.22,5,0,5h0Z"/>
    <path class="cls-7" d="m95.16,207.44c1.45,0,1.45-2.25,0-2.25s-1.45,2.25,0,2.25h0Z"/>
  </g>
  <g>
    <path class="cls-7" d="m215.16,208.82c3.22,0,3.22-5,0-5s-3.22,5,0,5h0Z"/>
    <path class="cls-7" d="m185.16,178.82c3.22,0,3.22-5,0-5s-3.22,5,0,5h0Z"/>
    <path class="cls-7" d="m155.16,208.82c3.22,0,3.22-5,0-5s-3.22,5,0,5h0Z"/>
    <path class="cls-7" d="m185.16,238.82c3.22,0,3.22-5,0-5s-3.22,5,0,5h0Z"/>
    <path class="cls-7" d="m185.16,207.44c1.45,0,1.45-2.25,0-2.25s-1.45,2.25,0,2.25h0Z"/>
  </g>
  <g>
    <path class="cls-7" d="m305.16,208.82c3.22,0,3.22-5,0-5s-3.22,5,0,5h0Z"/>
    <path class="cls-7" d="m275.16,178.82c3.22,0,3.22-5,0-5s-3.22,5,0,5h0Z"/>
    <path class="cls-7" d="m245.16,208.82c3.22,0,3.22-5,0-5s-3.22,5,0,5h0Z"/>
    <path class="cls-7" d="m275.16,238.82c3.22,0,3.22-5,0-5s-3.22,5,0,5h0Z"/>
    <path class="cls-7" d="m275.16,207.44c1.45,0,1.45-2.25,0-2.25s-1.45,2.25,0,2.25h0Z"/>
  </g>
  <g>
    <path class="cls-7" d="m395.16,208.82c3.22,0,3.22-5,0-5s-3.22,5,0,5h0Z"/>
    <path class="cls-7" d="m365.16,178.82c3.22,0,3.22-5,0-5s-3.22,5,0,5h0Z"/>
    <path class="cls-7" d="m335.16,208.82c3.22,0,3.22-5,0-5s-3.22,5,0,5h0Z"/>
    <path class="cls-7" d="m365.16,238.82c3.22,0,3.22-5,0-5s-3.22,5,0,5h0Z"/>
    <path class="cls-7" d="m365.16,207.44c1.45,0,1.45-2.25,0-2.25s-1.45,2.25,0,2.25h0Z"/>
  </g>
  <g>
    <path class="cls-7" d="m485.16,208.82c3.22,0,3.22-5,0-5s-3.22,5,0,5h0Z"/>
    <path class="cls-7" d="m455.16,178.82c3.22,0,3.22-5,0-5s-3.22,5,0,5h0Z"/>
    <path class="cls-7" d="m425.16,208.82c3.22,0,3.22-5,0-5s-3.22,5,0,5h0Z"/>
    <path class="cls-7" d="m455.16,238.82c3.22,0,3.22-5,0-5s-3.22,5,0,5h0Z"/>
    <path class="cls-7" d="m455.16,207.44c1.45,0,1.45-2.25,0-2.25s-1.45,2.25,0,2.25h0Z"/>
  </g>
  <g>
    <path class="cls-7" d="m575.16,208.82c3.22,0,3.22-5,0-5s-3.22,5,0,5h0Z"/>
    <path class="cls-7" d="m545.16,178.82c3.22,0,3.22-5,0-5s-3.22,5,0,5h0Z"/>
    <path class="cls-7" d="m515.16,208.82c3.22,0,3.22-5,0-5s-3.22,5,0,5h0Z"/>
    <path class="cls-7" d="m545.16,238.82c3.22,0,3.22-5,0-5s-3.22,5,0,5h0Z"/>
    <path class="cls-7" d="m545.16,207.44c1.45,0,1.45-2.25,0-2.25s-1.45,2.25,0,2.25h0Z"/>
  </g>
  <g>
    <path class="cls-7" d="m665.16,208.82c3.22,0,3.22-5,0-5s-3.22,5,0,5h0Z"/>
    <path class="cls-7" d="m635.16,178.82c3.22,0,3.22-5,0-5s-3.22,5,0,5h0Z"/>
    <path class="cls-7" d="m605.16,208.82c3.22,0,3.22-5,0-5s-3.22,5,0,5h0Z"/>
    <path class="cls-7" d="m635.16,238.82c3.22,0,3.22-5,0-5s-3.22,5,0,5h0Z"/>
    <path class="cls-7" d="m635.16,207.44c1.45,0,1.45-2.25,0-2.25s-1.45,2.25,0,2.25h0Z"/>
  </g>
  <g>
    <path class="cls-7" d="m755.16,208.82c3.22,0,3.22-5,0-5s-3.22,5,0,5h0Z"/>
    <path class="cls-7" d="m725.16,178.82c3.22,0,3.22-5,0-5s-3.22,5,0,5h0Z"/>
    <path class="cls-7" d="m695.16,208.82c3.22,0,3.22-5,0-5s-3.22,5,0,5h0Z"/>
    <path class="cls-7" d="m725.16,238.82c3.22,0,3.22-5,0-5s-3.22,5,0,5h0Z"/>
    <path class="cls-7" d="m725.16,207.44c1.45,0,1.45-2.25,0-2.25s-1.45,2.25,0,2.25h0Z"/>
  </g>
  <g>
    <path class="cls-7" d="m125.16,308.82c3.22,0,3.22-5,0-5s-3.22,5,0,5h0Z"/>
    <path class="cls-7" d="m95.16,278.82c3.22,0,3.22-5,0-5s-3.22,5,0,5h0Z"/>
    <path class="cls-7" d="m65.16,308.82c3.22,0,3.22-5,0-5s-3.22,5,0,5h0Z"/>
    <path class="cls-7" d="m95.16,338.82c3.22,0,3.22-5,0-5s-3.22,5,0,5h0Z"/>
    <path class="cls-7" d="m95.16,307.44c1.45,0,1.45-2.25,0-2.25s-1.45,2.25,0,2.25h0Z"/>
  </g>
  <g>
    <path class="cls-7" d="m215.16,308.82c3.22,0,3.22-5,0-5s-3.22,5,0,5h0Z"/>
    <path class="cls-7" d="m185.16,278.82c3.22,0,3.22-5,0-5s-3.22,5,0,5h0Z"/>
    <path class="cls-7" d="m155.16,308.82c3.22,0,3.22-5,0-5s-3.22,5,0,5h0Z"/>
    <path class="cls-7" d="m185.16,338.82c3.22,0,3.22-5,0-5s-3.22,5,0,5h0Z"/>
    <path class="cls-7" d="m185.16,307.44c1.45,0,1.45-2.25,0-2.25s-1.45,2.25,0,2.25h0Z"/>
  </g>
  <g>
    <path class="cls-7" d="m305.16,308.82c3.22,0,3.22-5,0-5s-3.22,5,0,5h0Z"/>
    <path class="cls-7" d="m275.16,278.82c3.22,0,3.22-5,0-5s-3.22,5,0,5h0Z"/>
    <path class="cls-7" d="m245.16,308.82c3.22,0,3.22-5,0-5s-3.22,5,0,5h0Z"/>
    <path class="cls-7" d="m275.16,338.82c3.22,0,3.22-5,0-5s-3.22,5,0,5h0Z"/>
    <path class="cls-7" d="m275.16,307.44c1.45,0,1.45-2.25,0-2.25s-1.45,2.25,0,2.25h0Z"/>
  </g>
  <g>
    <path class="cls-7" d="m395.16,308.82c3.22,0,3.22-5,0-5s-3.22,5,0,5h0Z"/>
    <path class="cls-7" d="m365.16,278.82c3.22,0,3.22-5,0-5s-3.22,5,0,5h0Z"/>
    <path class="cls-7" d="m335.16,308.82c3.22,0,3.22-5,0-5s-3.22,5,0,5h0Z"/>
    <path class="cls-7" d="m365.16,338.82c3.22,0,3.22-5,0-5s-3.22,5,0,5h0Z"/>
    <path class="cls-7" d="m365.16,307.44c1.45,0,1.45-2.25,0-2.25s-1.45,2.25,0,2.25h0Z"/>
  </g>
  <g>
    <path class="cls-7" d="m485.16,308.82c3.22,0,3.22-5,0-5s-3.22,5,0,5h0Z"/>
    <path class="cls-7" d="m455.16,278.82c3.22,0,3.22-5,0-5s-3.22,5,0,5h0Z"/>
    <path class="cls-7" d="m425.16,308.82c3.22,0,3.22-5,0-5s-3.22,5,0,5h0Z"/>
    <path class="cls-7" d="m455.16,338.82c3.22,0,3.22-5,0-5s-3.22,5,0,5h0Z"/>
    <path class="cls-7" d="m455.16,307.44c1.45,0,1.45-2.25,0-2.25s-1.45,2.25,0,2.25h0Z"/>
  </g>
  <g>
    <path class="cls-7" d="m575.16,308.82c3.22,0,3.22-5,0-5s-3.22,5,0,5h0Z"/>
    <path class="cls-7" d="m545.16,278.82c3.22,0,3.22-5,0-5s-3.22,5,0,5h0Z"/>
    <path class="cls-7" d="m515.16,308.82c3.22,0,3.22-5,0-5s-3.22,5,0,5h0Z"/>
    <path class="cls-7" d="m545.16,338.82c3.22,0,3.22-5,0-5s-3.22,5,0,5h0Z"/>
    <path class="cls-7" d="m545.16,307.44c1.45,0,1.45-2.25,0-2.25s-1.45,2.25,0,2.25h0Z"/>
  </g>
  <g>
    <path class="cls-7" d="m665.16,308.82c3.22,0,3.22-5,0-5s-3.22,5,0,5h0Z"/>
    <path class="cls-7" d="m635.16,278.82c3.22,0,3.22-5,0-5s-3.22,5,0,5h0Z"/>
    <path class="cls-7" d="m605.16,308.82c3.22,0,3.22-5,0-5s-3.22,5,0,5h0Z"/>
    <path class="cls-7" d="m635.16,338.82c3.22,0,3.22-5,0-5s-3.22,5,0,5h0Z"/>
    <path class="cls-7" d="m635.16,307.44c1.45,0,1.45-2.25,0-2.25s-1.45,2.25,0,2.25h0Z"/>
  </g>
  <g>
    <path class="cls-7" d="m755.16,308.82c3.22,0,3.22-5,0-5s-3.22,5,0,5h0Z"/>
    <path class="cls-7" d="m725.16,278.82c3.22,0,3.22-5,0-5s-3.22,5,0,5h0Z"/>
    <path class="cls-7" d="m695.16,308.82c3.22,0,3.22-5,0-5s-3.22,5,0,5h0Z"/>
    <path class="cls-7" d="m725.16,338.82c3.22,0,3.22-5,0-5s-3.22,5,0,5h0Z"/>
    <path class="cls-7" d="m725.16,307.44c1.45,0,1.45-2.25,0-2.25s-1.45,2.25,0,2.25h0Z"/>
  </g>
  <g>
    <path class="cls-7" d="m125.16,408.82c3.22,0,3.22-5,0-5s-3.22,5,0,5h0Z"/>
    <path class="cls-7" d="m95.16,378.82c3.22,0,3.22-5,0-5s-3.22,5,0,5h0Z"/>
    <path class="cls-7" d="m65.16,408.82c3.22,0,3.22-5,0-5s-3.22,5,0,5h0Z"/>
    <path class="cls-7" d="m95.16,438.82c3.22,0,3.22-5,0-5s-3.22,5,0,5h0Z"/>
    <path class="cls-7" d="m95.16,407.44c1.45,0,1.45-2.25,0-2.25s-1.45,2.25,0,2.25h0Z"/>
  </g>
  <g>
    <path class="cls-7" d="m215.16,408.82c3.22,0,3.22-5,0-5s-3.22,5,0,5h0Z"/>
    <path class="cls-7" d="m185.16,378.82c3.22,0,3.22-5,0-5s-3.22,5,0,5h0Z"/>
    <path class="cls-7" d="m155.16,408.82c3.22,0,3.22-5,0-5s-3.22,5,0,5h0Z"/>
    <path class="cls-7" d="m185.16,438.82c3.22,0,3.22-5,0-5s-3.22,5,0,5h0Z"/>
    <path class="cls-7" d="m185.16,407.44c1.45,0,1.45-2.25,0-2.25s-1.45,2.25,0,2.25h0Z"/>
  </g>
  <g>
    <path class="cls-7" d="m305.16,408.82c3.22,0,3.22-5,0-5s-3.22,5,0,5h0Z"/>
    <path class="cls-7" d="m275.16,378.82c3.22,0,3.22-5,0-5s-3.22,5,0,5h0Z"/>
    <path class="cls-7" d="m245.16,408.82c3.22,0,3.22-5,0-5s-3.22,5,0,5h0Z"/>
    <path class="cls-7" d="m275.16,438.82c3.22,0,3.22-5,0-5s-3.22,5,0,5h0Z"/>
    <path class="cls-7" d="m275.16,407.44c1.45,0,1.45-2.25,0-2.25s-1.45,2.25,0,2.25h0Z"/>
  </g>
  <g>
    <path class="cls-7" d="m395.16,408.82c3.22,0,3.22-5,0-5s-3.22,5,0,5h0Z"/>
    <path class="cls-7" d="m365.16,378.82c3.22,0,3.22-5,0-5s-3.22,5,0,5h0Z"/>
    <path class="cls-7" d="m335.16,408.82c3.22,0,3.22-5,0-5s-3.22,5,0,5h0Z"/>
    <path class="cls-7" d="m365.16,438.82c3.22,0,3.22-5,0-5s-3.22,5,0,5h0Z"/>
    <path class="cls-7" d="m365.16,407.44c1.45,0,1.45-2.25,0-2.25s-1.45,2.25,0,2.25h0Z"/>
  </g>
  <g>
    <path class="cls-7" d="m485.16,408.82c3.22,0,3.22-5,0-5s-3.22,5,0,5h0Z"/>
    <path class="cls-7" d="m455.16,378.82c3.22,0,3.22-5,0-5s-3.22,5,0,5h0Z"/>
    <path class="cls-7" d="m425.16,408.82c3.22,0,3.22-5,0-5s-3.22,5,0,5h0Z"/>
    <path class="cls-7" d="m455.16,438.82c3.22,0,3.22-5,0-5s-3.22,5,0,5h0Z"/>
    <path class="cls-7" d="m455.16,407.44c1.45,0,1.45-2.25,0-2.25s-1.45,2.25,0,2.25h0Z"/>
  </g>
  <g>
    <path class="cls-7" d="m575.16,408.82c3.22,0,3.22-5,0-5s-3.22,5,0,5h0Z"/>
    <path class="cls-7" d="m545.16,378.82c3.22,0,3.22-5,0-5s-3.22,5,0,5h0Z"/>
    <path class="cls-7" d="m515.16,408.82c3.22,0,3.22-5,0-5s-3.22,5,0,5h0Z"/>
    <path class="cls-7" d="m545.16,438.82c3.22,0,3.22-5,0-5s-3.22,5,0,5h0Z"/>
    <path class="cls-7" d="m545.16,407.44c1.45,0,1.45-2.25,0-2.25s-1.45,2.25,0,2.25h0Z"/>
  </g>
  <g>
    <path class="cls-7" d="m665.16,408.82c3.22,0,3.22-5,0-5s-3.22,5,0,5h0Z"/>
    <path class="cls-7" d="m635.16,378.82c3.22,0,3.22-5,0-5s-3.22,5,0,5h0Z"/>
    <path class="cls-7" d="m605.16,408.82c3.22,0,3.22-5,0-5s-3.22,5,0,5h0Z"/>
    <path class="cls-7" d="m635.16,438.82c3.22,0,3.22-5,0-5s-3.22,5,0,5h0Z"/>
    <path class="cls-7" d="m635.16,407.44c1.45,0,1.45-2.25,0-2.25s-1.45,2.25,0,2.25h0Z"/>
  </g>
  <g>
    <path class="cls-7" d="m755.16,408.82c3.22,0,3.22-5,0-5s-3.22,5,0,5h0Z"/>
    <path class="cls-7" d="m725.16,378.82c3.22,0,3.22-5,0-5s-3.22,5,0,5h0Z"/>
    <path class="cls-7" d="m695.16,408.82c3.22,0,3.22-5,0-5s-3.22,5,0,5h0Z"/>
    <path class="cls-7" d="m725.16,438.82c3.22,0,3.22-5,0-5s-3.22,5,0,5h0Z"/>
    <path class="cls-7" d="m725.16,407.44c1.45,0,1.45-2.25,0-2.25s-1.45,2.25,0,2.25h0Z"/>
  </g>
  <g>
    <path class="cls-7" d="m125.16,508.82c3.22,0,3.22-5,0-5s-3.22,5,0,5h0Z"/>
    <path class="cls-7" d="m95.16,478.82c3.22,0,3.22-5,0-5s-3.22,5,0,5h0Z"/>
    <path class="cls-7" d="m65.16,508.82c3.22,0,3.22-5,0-5s-3.22,5,0,5h0Z"/>
    <path class="cls-7" d="m95.16,538.82c3.22,0,3.22-5,0-5s-3.22,5,0,5h0Z"/>
    <path class="cls-7" d="m95.16,507.44c1.45,0,1.45-2.25,0-2.25s-1.45,2.25,0,2.25h0Z"/>
  </g>
  <g>
    <path class="cls-7" d="m215.16,508.82c3.22,0,3.22-5,0-5s-3.22,5,0,5h0Z"/>
    <path class="cls-7" d="m185.16,478.82c3.22,0,3.22-5,0-5s-3.22,5,0,5h0Z"/>
    <path class="cls-7" d="m155.16,508.82c3.22,0,3.22-5,0-5s-3.22,5,0,5h0Z"/>
    <path class="cls-7" d="m185.16,538.82c3.22,0,3.22-5,0-5s-3.22,5,0,5h0Z"/>
    <path class="cls-7" d="m185.16,507.44c1.45,0,1.45-2.25,0-2.25s-1.45,2.25,0,2.25h0Z"/>
  </g>
  <g>
    <path class="cls-7" d="m305.16,508.82c3.22,0,3.22-5,0-5s-3.22,5,0,5h0Z"/>
    <path class="cls-7" d="m275.16,478.82c3.22,0,3.22-5,0-5s-3.22,5,0,5h0Z"/>
    <path class="cls-7" d="m245.16,508.82c3.22,0,3.22-5,0-5s-3.22,5,0,5h0Z"/>
    <path class="cls-7" d="m275.16,538.82c3.22,0,3.22-5,0-5s-3.22,5,0,5h0Z"/>
    <path class="cls-7" d="m275.16,507.44c1.45,0,1.45-2.25,0-2.25s-1.45,2.25,0,2.25h0Z"/>
  </g>
  <g>
    <path class="cls-7" d="m395.16,508.82c3.22,0,3.22-5,0-5s-3.22,5,0,5h0Z"/>
    <path class="cls-7" d="m365.16,478.82c3.22,0,3.22-5,0-5s-3.22,5,0,5h0Z"/>
    <path class="cls-7" d="m335.16,508.82c3.22,0,3.22-5,0-5s-3.22,5,0,5h0Z"/>
    <path class="cls-7" d="m365.16,538.82c3.22,0,3.22-5,0-5s-3.22,5,0,5h0Z"/>
    <path class="cls-7" d="m365.16,507.44c1.45,0,1.45-2.25,0-2.25s-1.45,2.25,0,2.25h0Z"/>
  </g>
  <g>
    <path class="cls-7" d="m485.16,508.82c3.22,0,3.22-5,0-5s-3.22,5,0,5h0Z"/>
    <path class="cls-7" d="m455.16,478.82c3.22,0,3.22-5,0-5s-3.22,5,0,5h0Z"/>
    <path class="cls-7" d="m425.16,508.82c3.22,0,3.22-5,0-5s-3.22,5,0,5h0Z"/>
    <path class="cls-7" d="m455.16,538.82c3.22,0,3.22-5,0-5s-3.22,5,0,5h0Z"/>
    <path class="cls-7" d="m455.16,507.44c1.45,0,1.45-2.25,0-2.25s-1.45,2.25,0,2.25h0Z"/>
  </g>
  <g>
    <path class="cls-7" d="m575.16,508.82c3.22,0,3.22-5,0-5s-3.22,5,0,5h0Z"/>
    <path class="cls-7" d="m545.16,478.82c3.22,0,3.22-5,0-5s-3.22,5,0,5h0Z"/>
    <path class="cls-7" d="m515.16,508.82c3.22,0,3.22-5,0-5s-3.22,5,0,5h0Z"/>
    <path class="cls-7" d="m545.16,538.82c3.22,0,3.22-5,0-5s-3.22,5,0,5h0Z"/>
    <path class="cls-7" d="m545.16,507.44c1.45,0,1.45-2.25,0-2.25s-1.45,2.25,0,2.25h0Z"/>
  </g>
  <g>
    <path class="cls-7" d="m665.16,508.82c3.22,0,3.22-5,0-5s-3.22,5,0,5h0Z"/>
    <path class="cls-7" d="m635.16,478.82c3.22,0,3.22-5,0-5s-3.22,5,0,5h0Z"/>
    <path class="cls-7" d="m605.16,508.82c3.22,0,3.22-5,0-5s-3.22,5,0,5h0Z"/>
    <path class="cls-7" d="m635.16,538.82c3.22,0,3.22-5,0-5s-3.22,5,0,5h0Z"/>
    <path class="cls-7" d="m635.16,507.44c1.45,0,1.45-2.25,0-2.25s-1.45,2.25,0,2.25h0Z"/>
  </g>
  <g>
    <path class="cls-7" d="m755.16,508.82c3.22,0,3.22-5,0-5s-3.22,5,0,5h0Z"/>
    <path class="cls-7" d="m725.16,478.82c3.22,0,3.22-5,0-5s-3.22,5,0,5h0Z"/>
    <path class="cls-7" d="m695.16,508.82c3.22,0,3.22-5,0-5s-3.22,5,0,5h0Z"/>
    <path class="cls-7" d="m725.16,538.82c3.22,0,3.22-5,0-5s-3.22,5,0,5h0Z"/>
    <path class="cls-7" d="m725.16,507.44c1.45,0,1.45-2.25,0-2.25s-1.45,2.25,0,2.25h0Z"/>
  </g>
  <rect class="cls-10" x="96.86" y="205.02" width="25.25" height="2.59" rx=".99" ry=".99"/>
  <rect class="cls-8" x="68.21" y="205.02" width="25.25" height="2.59" rx=".99" ry=".99"/>
  <rect class="cls-10" x="186.86" y="205.02" width="25.25" height="2.59" rx=".99" ry=".99"/>
  <rect class="cls-8" x="158.21" y="205.02" width="25.25" height="2.59" rx=".99" ry=".99"/>
  <rect class="cls-10" x="276.86" y="205.02" width="25.25" height="2.59" rx=".99" ry=".99"/>
  <rect class="cls-8" x="248.21" y="205.02" width="25.25" height="2.59" rx=".99" ry=".99"/>
  <rect class="cls-10" x="366.86" y="205.02" width="25.25" height="2.59" rx=".99" ry=".99"/>
  <rect class="cls-8" x="338.21" y="205.02" width="25.25" height="2.59" rx=".99" ry=".99"/>
  <rect class="cls-10" x="456.86" y="205.02" width="25.25" height="2.59" rx=".99" ry=".99"/>
  <rect class="cls-8" x="428.21" y="205.02" width="25.25" height="2.59" rx=".99" ry=".99"/>
  <rect class="cls-8" x="91.89" y="308.02" width="2.59" height="25.25" rx=".99" ry=".99"/>
  <rect class="cls-10" x="95.86" y="308.02" width="2.59" height="25.25" rx=".99" ry=".99"/>
  <rect class="cls-8" x="181.89" y="308.02" width="2.59" height="25.25" rx=".99" ry=".99"/>
  <rect class="cls-10" x="185.86" y="308.02" width="2.59" height="25.25" rx=".99" ry=".99"/>
  <rect class="cls-8" x="271.89" y="308.02" width="2.59" height="25.25" rx=".99" ry=".99"/>
  <rect class="cls-10" x="275.86" y="308.02" width="2.59" height="25.25" rx=".99" ry=".99"/>
  <rect class="cls-8" x="361.89" y="308.02" width="2.59" height="25.25" rx=".99" ry=".99"/>
  <rect class="cls-10" x="365.86" y="308.02" width="2.59" height="25.25" rx=".99" ry=".99"/>
  <rect class="cls-8" x="451.89" y="308.02" width="2.59" height="25.25" rx=".99" ry=".99"/>
  <rect class="cls-10" x="455.86" y="308.02" width="2.59" height="25.25" rx=".99" ry=".99"/>
  <rect class="cls-8" x="541.89" y="308.01" width="2.59" height="25.25" rx=".99" ry=".99"/>
  <rect class="cls-10" x="545.86" y="308.01" width="2.59" height="25.25" rx=".99" ry=".99"/>
  <rect class="cls-8" x="631.89" y="308.02" width="2.59" height="25.25" rx=".99" ry=".99"/>
  <rect class="cls-10" x="635.86" y="308.02" width="2.59" height="25.25" rx=".99" ry=".99"/>
  <rect class="cls-8" x="721.89" y="308.02" width="2.59" height="25.25" rx=".99" ry=".99"/>
  <rect class="cls-10" x="725.86" y="308.02" width="2.59" height="25.25" rx=".99" ry=".99"/>
  <rect class="cls-10" x="546.86" y="205.02" width="25.25" height="2.59" rx=".99" ry=".99"/>
  <rect class="cls-8" x="518.21" y="205.02" width="25.25" height="2.59" rx=".99" ry=".99"/>
  <rect class="cls-10" x="636.86" y="205.02" width="25.25" height="2.59" rx=".99" ry=".99"/>
  <rect class="cls-8" x="608.21" y="205.02" width="25.25" height="2.59" rx=".99" ry=".99"/>
  <rect class="cls-10" x="726.86" y="205.02" width="25.25" height="2.59" rx=".99" ry=".99"/>
  <rect class="cls-8" x="698.21" y="205.02" width="25.25" height="2.59" rx=".99" ry=".99"/>
  <rect class="cls-10" x="96.86" y="405.02" width="25.25" height="2.59" rx=".99" ry=".99"/>
  <rect class="cls-8" x="93.87" y="379.37" width="2.59" height="25.25" rx=".99" ry=".99"/>
  <rect class="cls-10" x="276.86" y="405.02" width="25.25" height="2.59" rx=".99" ry=".99"/>
  <rect class="cls-8" x="273.87" y="379.37" width="2.59" height="25.25" rx=".99" ry=".99"/>
  <rect class="cls-10" x="366.86" y="405.02" width="25.25" height="2.59" rx=".99" ry=".99"/>
  <rect class="cls-8" x="363.87" y="379.37" width="2.59" height="25.25" rx=".99" ry=".99"/>
  <rect class="cls-10" x="543.87" y="379.37" width="2.59" height="25.25" rx=".99" ry=".99"/>
  <rect class="cls-8" x="546.86" y="405.02" width="25.25" height="2.59" rx=".99" ry=".99"/>
  <rect class="cls-10" x="96.86" y="505.02" width="25.25" height="2.59" rx=".99" ry=".99"/>
  <rect class="cls-8" x="93.87" y="508.02" width="2.59" height="25.25" rx=".99" ry=".99"/>
  <rect class="cls-10" x="186.86" y="505.02" width="25.25" height="2.59" rx=".99" ry=".99"/>
  <rect class="cls-8" x="183.87" y="508.02" width="2.59" height="25.25" rx=".99" ry=".99"/>
  <rect class="cls-10" x="276.86" y="505.02" width="25.25" height="2.59" rx=".99" ry=".99"/>
  <rect class="cls-8" x="273.87" y="508.02" width="2.59" height="25.25" rx=".99" ry=".99"/>
  <rect class="cls-10" x="366.86" y="505.02" width="25.25" height="2.59" rx=".99" ry=".99"/>
  <rect class="cls-8" x="363.87" y="508.02" width="2.59" height="25.25" rx=".99" ry=".99"/>
  <rect class="cls-10" x="633.87" y="379.37" width="2.59" height="25.25" rx=".99" ry=".99"/>
  <rect class="cls-8" x="636.86" y="405.02" width="25.25" height="2.59" rx=".99" ry=".99"/>
  <rect class="cls-10" x="723.87" y="379.37" width="2.59" height="25.25" rx=".99" ry=".99"/>
  <rect class="cls-8" x="726.86" y="405.02" width="25.25" height="2.59" rx=".99" ry=".99"/>
  <rect class="cls-10" x="453.87" y="379.37" width="2.59" height="25.25" rx=".99" ry=".99"/>
  <rect class="cls-8" x="456.86" y="405.02" width="25.25" height="2.59" rx=".99" ry=".99"/>
  <rect class="cls-10" x="186.86" y="405.02" width="25.25" height="2.59" rx=".99" ry=".99"/>
  <rect class="cls-8" x="183.87" y="379.37" width="2.59" height="25.25" rx=".99" ry=".99"/>
  <rect class="cls-10" x="456.86" y="505.02" width="25.25" height="2.59" rx=".99" ry=".99"/>
  <rect class="cls-8" x="453.87" y="508.02" width="2.59" height="25.25" rx=".99" ry=".99"/>
  <rect class="cls-10" x="546.86" y="505.02" width="25.25" height="2.59" rx=".99" ry=".99"/>
  <rect class="cls-8" x="543.87" y="508.02" width="2.59" height="25.25" rx=".99" ry=".99"/>
  <rect class="cls-10" x="726.86" y="505.02" width="25.25" height="2.59" rx=".99" ry=".99"/>
  <rect class="cls-8" x="723.87" y="508.02" width="2.59" height="25.25" rx=".99" ry=".99"/>
  <rect class="cls-10" x="636.86" y="505.02" width="25.25" height="2.59" rx=".99" ry=".99"/>
  <rect class="cls-8" x="633.87" y="508.02" width="2.59" height="25.25" rx=".99" ry=".99"/>
  <g>
    <line class="cls-11" x1="62.75" y1="262.34" x2="757.58" y2="262.34"/>
    <line class="cls-11" x1="62.75" y1="462.34" x2="757.58" y2="462.34"/>
  </g>
  <text class="cls-5" transform="translate(360.89 55.87)"><tspan x="0" y="0">2 | 0</tspan></text>
  <g>
    <path class="cls-8" d="m540.61,178.56c0,19.4-1.3,21.27-20.15,21.27l2.72,2.66s-1.04,1.1-1.87.5c-1.18-.85-3.95-4.08-3.95-4.08,0,0,3.01-3.38,3.95-4.07.82-.6,1.87.48,1.87.48l-2.72,2.56c17.27,0,18.08-1,18.08-19.29,0-1.51,2.07-1.51,2.07-.03Z"/>
    <path class="cls-8" d="m630.61,178.56c0,19.4-1.3,21.27-20.15,21.27l2.72,2.66s-1.04,1.1-1.87.5c-1.18-.85-3.95-4.08-3.95-4.08,0,0,3.01-3.38,3.95-4.07.82-.6,1.87.48,1.87.48l-2.72,2.56c17.27,0,18.08-1,18.08-19.29,0-1.51,2.07-1.51,2.07-.03Z"/>
    <path class="cls-8" d="m515.87,310.71c19.4,0,21.27,1.3,21.27,20.15l2.66-2.72s1.1,1.04.5,1.87c-.85,1.18-4.08,3.95-4.08,3.95,0,0-3.38-3.01-4.07-3.95-.6-.82.48-1.87.48-1.87l2.56,2.72c0-17.27-1-18.08-19.29-18.08-1.45,0-1.48-2.07-.03-2.07Z"/>
    <path class="cls-8" d="m605.88,309.79c19.4,0,21.27,1.3,21.27,20.15l2.66-2.72s1.1,1.04.5,1.87c-.85,1.18-4.08,3.95-4.08,3.95,0,0-3.38-3.01-4.07-3.95-.6-.82.48-1.87.48-1.87l2.56,2.72c0-17.27-1-18.08-19.29-18.08-1.45,0-1.48-2.07-.03-2.07Z"/>
    <path class="cls-8" d="m306.1,310.88c-19.4,0-21.27,1.3-21.27,20.15l-2.66-2.72s-1.1,1.04-.5,1.87c.85,1.18,4.08,3.95,4.08,3.95,0,0,3.38-3.01,4.07-3.95.6-.82-.48-1.87-.48-1.87l-2.56,2.72c0-17.27,1-18.08,19.29-18.08,1.45,0,1.48-2.07.03-2.07Z"/>
    <path class="cls-8" d="m213.92,309.26c-19.4,0-21.27,1.3-21.27,20.15l-2.66-2.72s-1.1,1.04-.5,1.87c.85,1.18,4.08,3.95,4.08,3.95,0,0,3.38-3.01,4.07-3.95.6-.82-.48-1.87-.48-1.87l-2.56,2.72c0-17.27,1-18.08,19.29-18.08,1.45,0,1.48-2.07.03-2.07Z"/>
    <path class="cls-8" d="m269.38,234.8c0-19.4-1.3-21.27-20.15-21.27l2.72-2.66s-1.04-1.1-1.87-.5c-1.18.85-3.95,4.08-3.95,4.08,0,0,3.01,3.38,3.95,4.07.82.6,1.87-.48,1.87-.48l-2.72-2.56c17.27,0,18.08,1,18.08,19.29,0,1.45,2.07,1.48,2.07.03Z"/>
    <path class="cls-8" d="m180.54,234.61c0-19.4-1.3-21.27-20.15-21.27l2.72-2.66s-1.04-1.1-1.87-.5c-1.18.85-3.95,4.08-3.95,4.08,0,0,3.01,3.38,3.95,4.07.82.6,1.87-.48,1.87-.48l-2.72-2.56c17.27,0,18.08,1,18.08,19.29,0,1.45,2.07,1.48,2.07.03Z"/>
    <path class="cls-8" d="m450.04,177.47c-11.89,0-22.68,9.57-22.72,21.38l-2.41-2.65s-1.11,1.01-.54,1.85c.65.95,3.93,4.08,3.93,4.08,0,0,3.32-2.66,4.21-3.8.63-.81-.43-1.89-.43-1.89l-2.78,2.61c.03-8.93,7.32-18.79,20.74-19.5,1.57-.08,1.62-2.09,0-2.08Z"/>
    <path class="cls-8" d="m128.07,311.91c0,11.89-9.57,22.68-21.38,22.72l2.65,2.41s-1.01,1.11-1.85.54c-.95-.65-4.08-3.93-4.08-3.93,0,0,2.66-3.32,3.8-4.21.81-.63,1.89.43,1.89.43l-2.61,2.78c8.93-.03,18.79-7.32,19.5-20.74.08-1.57,2.09-1.62,2.08,0Z"/>
    <path class="cls-8" d="m399.76,315.02c0,11.89-9.57,22.68-21.38,22.72l2.65,2.41s-1.01,1.11-1.85.54c-.95-.65-4.08-3.93-4.08-3.93,0,0,2.66-3.32,3.8-4.21.81-.63,1.89.43,1.89.43l-2.61,2.78c8.93-.03,18.79-7.32,19.5-20.74.08-1.57,2.09-1.62,2.08,0Z"/>
    <path class="cls-8" d="m424.54,312.61c0,11.89,9.57,22.68,21.38,22.72l-2.65,2.41s1.01,1.11,1.85.54c.95-.65,4.08-3.93,4.08-3.93,0,0-2.66-3.32-3.8-4.21-.81-.63-1.89.43-1.89.43l2.61,2.78c-8.93-.03-18.79-7.32-19.5-20.74-.08-1.57-2.09-1.62-2.08,0Z"/>
    <path class="cls-8" d="m696.45,310.94c0,11.89,9.57,22.68,21.38,22.72l-2.65,2.41s1.01,1.11,1.85.54c.95-.65,4.08-3.93,4.08-3.93,0,0-2.66-3.32-3.8-4.21-.81-.63-1.89.43-1.89.43l2.61,2.78c-8.93-.03-18.79-7.32-19.5-20.74-.08-1.57-2.09-1.62-2.08,0Z"/>
    <path class="cls-8" d="m90.04,235.17c-11.89,0-22.68-9.57-22.72-21.38l-2.41,2.65s-1.11-1.01-.54-1.85c.65-.95,3.93-4.08,3.93-4.08,0,0,3.32,2.66,4.21,3.8.63.81-.43,1.89-.43,1.89l-2.78-2.61c.03,8.93,7.32,18.79,20.74,19.5,1.57.08,1.62,2.09,0,2.08Z"/>
    <path class="cls-8" d="m360.99,235.17c-11.89,0-22.68-9.57-22.72-21.38l-2.41,2.65s-1.11-1.01-.54-1.85c.65-.95,3.93-4.08,3.93-4.08,0,0,3.32,2.66,4.21,3.8.63.81-.43,1.89-.43,1.89l-2.78-2.61c.03,8.93,7.32,18.79,20.74,19.5,1.57.08,1.62,2.09,0,2.08Z"/>
    <path class="cls-8" d="m719.97,177.47c-11.89,0-22.68,9.57-22.72,21.38l-2.41-2.65s-1.11,1.01-.54,1.85c.65.95,3.93,4.08,3.93,4.08,0,0,3.32-2.66,4.21-3.8.63-.81-.43-1.89-.43-1.89l-2.78,2.61c.03-8.93,7.32-18.79,20.74-19.5,1.57-.08,1.62-2.09,0-2.08Z"/>
    <path class="cls-8" d="m67.59,402.26c0-11.89,9.57-22.68,21.38-22.72l-2.65-2.41s1.01-1.11,1.85-.54c.95.65,4.08,3.93,4.08,3.93,0,0-2.66,3.32-3.8,4.21-.81.63-1.89-.43-1.89-.43l2.61-2.78c-8.93.03-18.79,7.32-19.5,20.74-.08,1.57-2.09,1.62-2.08,0Z"/>
    <path class="cls-8" d="m338.08,402.26c0-11.89,9.57-22.68,21.38-22.72l-2.65-2.41s1.01-1.11,1.85-.54c.95.65,4.08,3.93,4.08,3.93,0,0-2.66,3.32-3.8,4.21-.81.63-1.89-.43-1.89-.43l2.61-2.78c-8.93.03-18.79,7.32-19.5,20.74-.08,1.57-2.09,1.62-2.08,0Z"/>
    <path class="cls-10" d="m189.36,533.58c11.89,0,22.68-9.57,22.72-21.38l2.41,2.65s1.11-1.01.54-1.85c-.65-.95-3.93-4.08-3.93-4.08,0,0-3.32,2.66-4.21,3.8-.63.81.43,1.89.43,1.89l2.78-2.61c-.03,8.93-7.32,18.79-20.74,19.5-1.57.08-1.62,2.09,0,2.08Z"/>
    <path class="cls-8" d="m67.59,511.16c0,11.89,9.57,22.68,21.38,22.72l-2.65,2.41s1.01,1.11,1.85.54c.95-.65,4.08-3.93,4.08-3.93,0,0-2.66-3.32-3.8-4.21-.81-.63-1.89.43-1.89.43l2.61,2.78c-8.93-.03-18.79-7.32-19.5-20.74-.08-1.57-2.09-1.62-2.08,0Z"/>
    <path class="cls-8" d="m462.55,375.3c11.89,0,22.68,9.57,22.72,21.38l2.41-2.65s1.11,1.01.54,1.85c-.65.95-3.93,4.08-3.93,4.08,0,0-3.32-2.66-4.21-3.8-.63-.81.43-1.89.43-1.89l2.78,2.61c-.03-8.93-7.32-18.79-20.74-19.5-1.57-.08-1.62-2.09,0-2.08Z"/>
    <path class="cls-8" d="m731.18,375.08c11.89,0,22.68,9.57,22.72,21.38l2.41-2.65s1.11,1.01.54,1.85c-.65.95-3.93,4.08-3.93,4.08,0,0-3.32-2.66-4.21-3.8-.63-.81.43-1.89.43-1.89l2.78,2.61c-.03-8.93-7.32-18.79-20.74-19.5-1.57-.08-1.62-2.09,0-2.08Z"/>
    <path class="cls-8" d="m638.07,379.87c0,19.4,1.3,21.27,20.15,21.27l-2.72,2.66s1.04,1.1,1.87.5c1.18-.85,3.95-4.08,3.95-4.08,0,0-3.01-3.38-3.95-4.07-.82-.6-1.87.48-1.87.48l2.72,2.56c-17.27,0-18.08-1-18.08-19.29,0-1.45-2.07-1.48-2.07-.03Z"/>
    <path class="cls-8" d="m548.47,379.64c0,19.4,1.3,21.27,20.15,21.27l-2.72,2.66s1.04,1.1,1.87.5c1.18-.85,3.95-4.08,3.95-4.08,0,0-3.01-3.38-3.95-4.07-.82-.6-1.87.48-1.87.48l2.72,2.56c-17.27,0-18.08-1-18.08-19.29,0-1.45-2.07-1.48-2.07-.03Z"/>
    <path class="cls-8" d="m248.15,510.02c19.4,0,21.27,1.3,21.27,20.15l2.66-2.72s1.1,1.04.5,1.87c-.85,1.18-4.08,3.95-4.08,3.95,0,0-3.38-3.01-4.07-3.95-.6-.82.48-1.87.48-1.87l2.56,2.72c0-17.27-1-18.08-19.29-18.08-1.45,0-1.48-2.07-.03-2.07Z"/>
    <path class="cls-8" d="m428.15,510.02c19.4,0,21.27,1.3,21.27,20.15l2.66-2.72s1.1,1.04.5,1.87c-.85,1.18-4.08,3.95-4.08,3.95,0,0-3.38-3.01-4.07-3.95-.6-.82.48-1.87.48-1.87l2.56,2.72c0-17.27-1-18.08-19.29-18.08-1.45,0-1.48-2.07-.03-2.07Z"/>
    <path class="cls-10" d="m370.06,533.97c0-19.4,1.3-21.27,20.15-21.27l-2.72-2.66s1.04-1.1,1.87-.5c1.18.85,3.95,4.08,3.95,4.08,0,0-3.01,3.38-3.95,4.07-.82.6-1.87-.48-1.87-.48l2.72-2.56c-17.27,0-18.08,1-18.08,19.29,0,1.45-2.07,1.48-2.07.03Z"/>
    <path class="cls-10" d="m640.06,533.97c0-19.4,1.3-21.27,20.15-21.27l-2.72-2.66s1.04-1.1,1.87-.5c1.18.85,3.95,4.08,3.95,4.08,0,0-3.01,3.38-3.95,4.07-.82.6-1.87-.48-1.87-.48l2.72-2.56c-17.27,0-18.08,1-18.08,19.29,0,1.45-2.07,1.48-2.07.03Z"/>
    <path class="cls-8" d="m247.18,401.88c19.4,0,21.27-1.3,21.27-20.15l2.66,2.72s1.1-1.04.5-1.87c-.85-1.18-4.08-3.95-4.08-3.95,0,0-3.38,3.01-4.07,3.95-.6.82.48,1.87.48,1.87l2.56-2.72c0,17.27-1,18.08-19.29,18.08-1.45,0-1.48,2.07-.03,2.07Z"/>
    <path class="cls-8" d="m157.95,402.61c19.4,0,21.27-1.3,21.27-20.15l2.66,2.72s1.1-1.04.5-1.87c-.85-1.18-4.08-3.95-4.08-3.95,0,0-3.38,3.01-4.07,3.95-.6.82.48,1.87.48,1.87l2.56-2.72c0,17.27-1,18.08-19.29,18.08-1.45,0-1.48,2.07-.03,2.07Z"/>
    <path class="cls-10" d="m549.36,534.52c11.89,0,22.68-9.57,22.72-21.38l2.41,2.65s1.11-1.01.54-1.85c-.65-.95-3.93-4.08-3.93-4.08,0,0-3.32,2.66-4.21,3.8-.63.81.43,1.89.43,1.89l2.78-2.61c-.03,8.93-7.32,18.79-20.74,19.5-1.57.08-1.62,2.09,0,2.08Z"/>
    <path class="cls-8" d="m697.59,511.16c0,11.89,9.57,22.68,21.38,22.72l-2.65,2.41s1.01,1.11,1.85.54c.95-.65,4.08-3.93,4.08-3.93,0,0-2.66-3.32-3.8-4.21-.81-.63-1.89.43-1.89.43l2.61,2.78c-8.93-.03-18.79-7.32-19.5-20.74-.08-1.57-2.09-1.62-2.08,0Z"/>
    <path class="cls-10" d="m123.36,197.68l-2.59,2.55c-.57-4.93-3.18-10.95-8.68-11.93-.74-6.04-7.46-9.06-13.8-8.92-.34-.01-1.02.16-1.12.9,0,.05-.01.09-.01.13,0,.65.65.99,1.02,1.08,6.93.38,10.67,2.49,11.76,6.64-2-.15-4.24,1.02-5.24,2.8-.81,1.44-.64,2.99.45,4.26,1.19,1.2,2.68,1.47,4.12.75,1.87-.94,3.19-3.3,3.05-5.39,4.46,1.15,5.96,6.93,6.42,9.59l-2.49-2.46s-1.09,1.05-.5,1.87c.79,1.08,4.05,3.91,4.05,3.91,0,0,3.26-2.83,4.05-3.91.59-.82-.5-1.87-.5-1.87Zm-14.17-4.07c-1.24,1.11-2.37.8-2.77.33-.55-.65-.1-2.29.73-3,.7-.6,1.49-1.2,3.11-.93.23,1.47-.14,2.77-1.07,3.61Z"/>
    <path class="cls-10" d="m189.99,176.7c.7.03.91.61.87,1.41-.03.8-.32,3.41,1.06,5,1.37,1.59,4.94.62,7.08.09l.48-.13-.19.46c-1.38,3.32-1.52,5.55-.44,6.61,1.86,1.84,6.83-.27,6.88-.29l.62-.27-.29.61c-1.22,2.55-1.63,4.68-.85,5.97.64,1.07,2.12,1.71,4.1,1.71.27-.01.99.02,1.4.01l-2.59-2.54s1.05-1.08,1.87-.47c.94.69,3.95,4.07,3.95,4.07,0,0-2.77,3.23-3.95,4.08-.82.6-1.87-.5-1.87-.5l2.2-2.23c.06-.04.11-.09.15-.15l.22-.23c-3,.11-5.44-.56-6.86-2.41-1.31-1.7-.98-4.1-.8-4.97-1.03.21-3.84.88-5.54-.78-1.74-1.7-1.35-4.77-1.2-5.82-.96.14-3.75.49-5.56-1.28-1.8-1.77-1.98-2.72-1.81-6.73.03-.88.37-1.25,1.07-1.22Z"/>
    <path class="cls-10" d="m303.47,197.68l-2.59,2.55c-.57-4.93-3.18-10.95-8.68-11.93-.74-6.04-7.46-9.06-13.8-8.92-.34-.01-1.02.16-1.12.9,0,.05-.01.09-.01.13,0,.65.65.99,1.02,1.08,6.93.38,10.67,2.49,11.76,6.64-2-.15-4.24,1.02-5.24,2.8-.81,1.44-.64,2.99.45,4.26,1.19,1.2,2.68,1.47,4.12.75,1.87-.94,3.19-3.3,3.05-5.39,4.46,1.15,5.96,6.93,6.42,9.59l-2.49-2.46s-1.09,1.05-.5,1.87c.79,1.08,4.05,3.91,4.05,3.91,0,0,3.26-2.83,4.05-3.91.59-.82-.5-1.87-.5-1.87Zm-14.17-4.07c-1.24,1.11-2.37.8-2.77.33-.55-.65-.1-2.29.73-3,.7-.6,1.49-1.2,3.11-.93.23,1.47-.14,2.77-1.07,3.61Z"/>
    <path class="cls-10" d="m370.11,176.7c.7.03.91.61.87,1.41-.03.8-.32,3.41,1.06,5,1.37,1.59,4.94.62,7.08.09l.48-.13-.19.46c-1.38,3.32-1.52,5.55-.44,6.61,1.86,1.84,6.83-.27,6.88-.29l.62-.27-.29.61c-1.22,2.55-1.63,4.68-.85,5.97.64,1.07,2.12,1.71,4.1,1.71.27-.01.99.02,1.4.01l-2.59-2.54s1.05-1.08,1.87-.47c.94.69,3.95,4.07,3.95,4.07,0,0-2.77,3.23-3.95,4.08-.82.6-1.87-.5-1.87-.5l2.2-2.23c.06-.04.11-.09.15-.15l.22-.23c-3,.11-5.44-.56-6.86-2.41-1.31-1.7-.98-4.1-.8-4.97-1.03.21-3.84.88-5.54-.78-1.74-1.7-1.35-4.77-1.2-5.82-.96.14-3.75.49-5.56-1.28-1.8-1.77-1.98-2.72-1.81-6.73.03-.88.37-1.25,1.07-1.22Z"/>
    <path class="cls-10" d="m483.59,197.68l-2.59,2.55c-.57-4.93-3.18-10.95-8.68-11.93-.74-6.04-7.46-9.06-13.8-8.92-.34-.01-1.02.16-1.12.9,0,.05-.01.09-.01.13,0,.65.65.99,1.02,1.08,6.93.38,10.67,2.49,11.76,6.64-2-.15-4.24,1.02-5.24,2.8-.81,1.44-.64,2.99.45,4.26,1.19,1.2,2.68,1.47,4.12.75,1.87-.94,3.19-3.3,3.05-5.39,4.46,1.15,5.96,6.93,6.42,9.59l-2.49-2.46s-1.09,1.05-.5,1.87c.79,1.08,4.05,3.91,4.05,3.91,0,0,3.26-2.83,4.05-3.91.59-.82-.5-1.87-.5-1.87Zm-14.17-4.07c-1.24,1.11-2.37.8-2.77.33-.55-.65-.1-2.29.73-3,.7-.6,1.49-1.2,3.11-.93.23,1.47-.14,2.77-1.07,3.61Z"/>
    <path class="cls-10" d="m550.22,176.7c.7.03.91.61.87,1.41-.03.8-.32,3.41,1.06,5,1.37,1.59,4.94.62,7.08.09l.48-.13-.19.46c-1.38,3.32-1.52,5.55-.44,6.61,1.86,1.84,6.83-.27,6.88-.29l.62-.27-.29.61c-1.22,2.55-1.63,4.68-.85,5.97.64,1.07,2.12,1.71,4.1,1.71.27-.01.99.02,1.4.01l-2.59-2.54s1.05-1.08,1.87-.47c.94.69,3.95,4.07,3.95,4.07,0,0-2.77,3.23-3.95,4.08-.82.6-1.87-.5-1.87-.5l2.2-2.23c.06-.04.11-.09.15-.15l.22-.23c-3,.11-5.44-.56-6.86-2.41-1.31-1.7-.98-4.1-.8-4.97-1.03.21-3.84.88-5.54-.78-1.74-1.7-1.35-4.77-1.2-5.82-.96.14-3.75.49-5.56-1.28-1.8-1.77-1.98-2.72-1.81-6.73.03-.88.37-1.25,1.07-1.22Z"/>
    <path class="cls-10" d="m663.7,197.68l-2.59,2.55c-.57-4.93-3.18-10.95-8.68-11.93-.74-6.04-7.46-9.06-13.8-8.92-.34-.01-1.02.16-1.12.9,0,.05-.01.09-.01.13,0,.65.65.99,1.02,1.08,6.93.38,10.67,2.49,11.76,6.64-2-.15-4.24,1.02-5.24,2.8-.81,1.44-.64,2.99.45,4.26,1.19,1.2,2.68,1.47,4.12.75,1.87-.94,3.19-3.3,3.05-5.39,4.46,1.15,5.96,6.93,6.42,9.59l-2.49-2.46s-1.09,1.05-.5,1.87c.79,1.08,4.05,3.91,4.05,3.91,0,0,3.26-2.83,4.05-3.91.59-.82-.5-1.87-.5-1.87Zm-14.17-4.07c-1.24,1.11-2.37.8-2.77.33-.55-.65-.1-2.29.73-3,.7-.6,1.49-1.2,3.11-.93.23,1.47-.14,2.77-1.07,3.61Z"/>
    <path class="cls-10" d="m730.34,176.7c.7.03.91.61.87,1.41-.03.8-.32,3.41,1.06,5,1.37,1.59,4.94.62,7.08.09l.48-.13-.19.46c-1.38,3.32-1.52,5.55-.44,6.61,1.86,1.84,6.83-.27,6.88-.29l.62-.27-.29.61c-1.22,2.55-1.63,4.68-.85,5.97.64,1.07,2.12,1.71,4.1,1.71.27-.01.99.02,1.4.01l-2.59-2.54s1.05-1.08,1.87-.47c.94.69,3.95,4.07,3.95,4.07,0,0-2.77,3.23-3.95,4.08-.82.6-1.87-.5-1.87-.5l2.2-2.23c.06-.04.11-.09.15-.15l.22-.23c-3,.11-5.44-.56-6.86-2.41-1.31-1.7-.98-4.1-.8-4.97-1.03.21-3.84.88-5.54-.78-1.74-1.7-1.35-4.77-1.2-5.82-.96.14-3.75.49-5.56-1.28-1.8-1.77-1.98-2.72-1.81-6.73.03-.88.37-1.25,1.07-1.22Z"/>
    <path class="cls-10" d="m104.24,332.17l-2.55-2.59c4.93-.57,10.95-3.18,11.93-8.68,6.04-.74,9.06-7.46,8.92-13.8.01-.34-.16-1.02-.9-1.12-.05,0-.09-.01-.13-.01-.65,0-.99.65-1.08,1.02-.38,6.93-2.49,10.67-6.64,11.76.15-2-1.02-4.24-2.8-5.24-1.44-.81-2.99-.64-4.26.45-1.2,1.19-1.47,2.68-.75,4.12.94,1.87,3.3,3.19,5.39,3.05-1.15,4.46-6.93,5.96-9.59,6.42l2.46-2.49s-1.05-1.09-1.87-.5c-1.08.79-3.91,4.05-3.91,4.05,0,0,2.83,3.26,3.91,4.05.82.59,1.87-.5,1.87-.5Zm4.07-14.17c-1.11-1.24-.8-2.37-.33-2.77.65-.55,2.29-.1,3,.73.6.7,1.2,1.49.93,3.11-1.47.23-2.77-.14-3.61-1.07Z"/>
    <path class="cls-10" d="m220.11,314.13c-.03.7-.61.91-1.41.87-.8-.03-3.41-.32-5,1.06-1.59,1.37-.62,4.94-.09,7.08l.13.48-.46-.19c-3.32-1.38-5.55-1.52-6.61-.44-1.84,1.86.27,6.83.29,6.88l.27.62-.61-.29c-2.55-1.22-4.68-1.63-5.97-.85-1.07.64-1.71,2.12-1.71,4.1.01.27-.02.99-.01,1.4l2.54-2.59s1.08,1.05.47,1.87c-.69.94-4.07,3.95-4.07,3.95,0,0-3.23-2.77-4.08-3.95-.6-.82.5-1.87.5-1.87l2.23,2.2c.04.06.09.11.15.15l.23.22c-.11-3,.56-5.44,2.41-6.86,1.7-1.31,4.1-.98,4.97-.8-.21-1.03-.88-3.84.78-5.54,1.7-1.74,4.77-1.35,5.82-1.2-.14-.96-.49-3.75,1.28-5.56,1.77-1.8,2.72-1.98,6.73-1.81.88.03,1.25.37,1.22,1.07Z"/>
    <path class="cls-10" d="m290.96,340.1l-2.55-2.59c4.93-.57,10.95-3.18,11.93-8.68,6.04-.74,9.06-7.46,8.92-13.8.01-.34-.16-1.02-.9-1.12-.05,0-.09-.01-.13-.01-.65,0-.99.65-1.08,1.02-.38,6.93-2.49,10.67-6.64,11.76.15-2-1.02-4.24-2.8-5.24-1.44-.81-2.99-.64-4.26.45-1.2,1.19-1.47,2.68-.75,4.12.94,1.87,3.3,3.19,5.39,3.05-1.15,4.46-6.93,5.96-9.59,6.42l2.46-2.49s-1.05-1.09-1.87-.5c-1.08.79-3.91,4.05-3.91,4.05,0,0,2.83,3.26,3.91,4.05.82.59,1.87-.5,1.87-.5Zm4.07-14.17c-1.11-1.24-.8-2.37-.33-2.77.65-.55,2.29-.1,3,.73.6.7,1.2,1.49.93,3.11-1.47.23-2.77-.14-3.61-1.07Z"/>
    <path class="cls-10" d="m395.84,311.84c-.03.7-.61.91-1.41.87-.8-.03-3.41-.32-5,1.06-1.59,1.37-.62,4.94-.09,7.08l.13.48-.46-.19c-3.32-1.38-5.55-1.52-6.61-.44-1.84,1.86.27,6.83.29,6.88l.27.62-.61-.29c-2.55-1.22-4.68-1.63-5.97-.85-1.07.64-1.71,2.12-1.71,4.1.01.27-.02.99-.01,1.4l2.54-2.59s1.08,1.05.47,1.87c-.69.94-4.07,3.95-4.07,3.95,0,0-3.23-2.77-4.08-3.95-.6-.82.5-1.87.5-1.87l2.23,2.2c.04.06.09.11.15.15l.23.22c-.11-3,.56-5.44,2.41-6.86,1.7-1.31,4.1-.98,4.97-.8-.21-1.03-.88-3.84.78-5.54,1.7-1.74,4.77-1.35,5.82-1.2-.14-.96-.49-3.75,1.28-5.56,1.77-1.8,2.72-1.98,6.73-1.81.88.03,1.25.37,1.22,1.07Z"/>
    <path class="cls-10" d="m466.04,336.02l-2.55-2.59c4.93-.57,10.95-3.18,11.93-8.68,6.04-.74,9.06-7.46,8.92-13.8.01-.34-.16-1.02-.9-1.12-.05,0-.09-.01-.13-.01-.65,0-.99.65-1.08,1.02-.38,6.93-2.49,10.67-6.64,11.76.15-2-1.02-4.24-2.8-5.24-1.44-.81-2.99-.64-4.26.45-1.2,1.19-1.47,2.68-.75,4.12.94,1.87,3.3,3.19,5.39,3.05-1.15,4.46-6.93,5.96-9.59,6.42l2.46-2.49s-1.05-1.09-1.87-.5c-1.08.79-3.91,4.05-3.91,4.05,0,0,2.83,3.26,3.91,4.05.82.59,1.87-.5,1.87-.5Zm4.07-14.17c-1.11-1.24-.8-2.37-.33-2.77.65-.55,2.29-.1,3,.73.6.7,1.2,1.49.93,3.11-1.47.23-2.77-.14-3.61-1.07Z"/>
    <path class="cls-10" d="m576.38,310.91c-.03.7-.61.91-1.41.87-.8-.03-3.41-.32-5,1.06-1.59,1.37-.62,4.94-.09,7.08l.13.48-.46-.19c-3.32-1.38-5.55-1.52-6.61-.44-1.84,1.86.27,6.83.29,6.88l.27.62-.61-.29c-2.55-1.22-4.68-1.63-5.97-.85-1.07.64-1.71,2.12-1.71,4.1.01.27-.02.99-.01,1.4l2.54-2.59s1.08,1.05.47,1.87c-.69.94-4.07,3.95-4.07,3.95,0,0-3.23-2.77-4.08-3.95-.6-.82.5-1.87.5-1.87l2.23,2.2c.04.06.09.11.15.15l.23.22c-.11-3,.56-5.44,2.41-6.86,1.7-1.31,4.1-.98,4.97-.8-.21-1.03-.88-3.84.78-5.54,1.7-1.74,4.77-1.35,5.82-1.2-.14-.96-.49-3.75,1.28-5.56,1.77-1.8,2.72-1.98,6.73-1.81.88.03,1.25.37,1.22,1.07Z"/>
    <path class="cls-10" d="m646.15,336.02l-2.55-2.59c4.93-.57,10.95-3.18,11.93-8.68,6.04-.74,9.06-7.46,8.92-13.8.01-.34-.16-1.02-.9-1.12-.05,0-.09-.01-.13-.01-.65,0-.99.65-1.08,1.02-.38,6.93-2.49,10.67-6.64,11.76.15-2-1.02-4.24-2.8-5.24-1.44-.81-2.99-.64-4.26.45-1.2,1.19-1.47,2.68-.75,4.12.94,1.87,3.3,3.19,5.39,3.05-1.15,4.46-6.93,5.96-9.59,6.42l2.46-2.49s-1.05-1.09-1.87-.5c-1.08.79-3.91,4.05-3.91,4.05,0,0,2.83,3.26,3.91,4.05.82.59,1.87-.5,1.87-.5Zm4.07-14.17c-1.11-1.24-.8-2.37-.33-2.77.65-.55,2.29-.1,3,.73.6.7,1.2,1.49.93,3.11-1.47.23-2.77-.14-3.61-1.07Z"/>
    <path class="cls-10" d="m755.79,310.94c-.03.7-.61.91-1.41.87-.8-.03-3.41-.32-5,1.06-1.59,1.37-.62,4.94-.09,7.08l.13.48-.46-.19c-3.32-1.38-5.55-1.52-6.61-.44-1.84,1.86.27,6.83.29,6.88l.27.62-.61-.29c-2.55-1.22-4.68-1.63-5.97-.85-1.07.64-1.71,2.12-1.71,4.1.01.27-.02.99-.01,1.4l2.54-2.59s1.08,1.05.47,1.87c-.69.94-4.07,3.95-4.07,3.95,0,0-3.23-2.77-4.08-3.95-.6-.82.5-1.87.5-1.87l2.23,2.2c.04.06.09.11.15.15l.23.22c-.11-3,.56-5.44,2.41-6.86,1.7-1.31,4.1-.98,4.97-.8-.21-1.03-.88-3.84.78-5.54,1.7-1.74,4.77-1.35,5.82-1.2-.14-.96-.49-3.75,1.28-5.56,1.77-1.8,2.72-1.98,6.73-1.81.88.03,1.25.37,1.22,1.07Z"/>
    <path class="cls-10" d="m123.86,413.09c-.79-1.08-4.05-3.91-4.05-3.91,0,0-3.26,2.83-4.05,3.91-.59.82.5,1.87.5,1.87l2.49-2.46c-.46,2.66-1.96,8.44-6.42,9.59.14-2.09-1.18-4.45-3.05-5.39-1.44-.72-2.93-.45-4.12.75-1.09,1.27-1.26,2.82-.45,4.26,1,1.78,3.24,2.95,5.24,2.8-1.09,4.15-4.82,6.26-11.76,6.64-.37.09-1.02.43-1.02,1.08,0,.04.01.08.01.13.1.74.78.91,1.12.9,6.33.14,13.06-2.88,13.8-8.92,5.49-.98,8.11-7,8.68-11.93l2.59,2.55s1.09-1.05.5-1.87Zm-13.6,9.54c-1.62.26-2.41-.33-3.11-.93-.83-.71-1.28-2.35-.73-3,.4-.47,1.52-.78,2.77.33.93.83,1.3,2.14,1.07,3.61Z"/>
    <path class="cls-10" d="m123.86,513.52c-.79-1.08-4.05-3.91-4.05-3.91,0,0-3.26,2.83-4.05,3.91-.59.82.5,1.87.5,1.87l2.49-2.46c-.46,2.66-1.96,8.44-6.42,9.59.14-2.09-1.18-4.45-3.05-5.39-1.44-.72-2.93-.45-4.12.75-1.09,1.27-1.26,2.82-.45,4.26,1,1.78,3.24,2.95,5.24,2.8-1.09,4.15-4.82,6.26-11.76,6.64-.37.09-1.02.43-1.02,1.08,0,.04.01.08.01.13.1.74.78.91,1.12.9,6.33.14,13.06-2.88,13.8-8.92,5.49-.98,8.11-7,8.68-11.93l2.59,2.55s1.09-1.05.5-1.87Zm-13.6,9.54c-1.62.26-2.41-.33-3.11-.93-.83-.71-1.28-2.35-.73-3,.4-.47,1.52-.78,2.77.33.93.83,1.3,2.14,1.07,3.61Z"/>
    <path class="cls-10" d="m485.56,513.52c-.79-1.08-4.05-3.91-4.05-3.91,0,0-3.26,2.83-4.05,3.91-.59.82.5,1.87.5,1.87l2.49-2.46c-.46,2.66-1.96,8.44-6.42,9.59.14-2.09-1.18-4.45-3.05-5.39-1.44-.72-2.93-.45-4.12.75-1.09,1.27-1.26,2.82-.45,4.26,1,1.78,3.24,2.95,5.24,2.8-1.09,4.15-4.82,6.26-11.76,6.64-.37.09-1.02.43-1.02,1.08,0,.04.01.08.01.13.1.74.78.91,1.12.9,6.33.14,13.06-2.88,13.8-8.92,5.49-.98,8.11-7,8.68-11.93l2.59,2.55s1.09-1.05.5-1.87Zm-13.6,9.54c-1.62.26-2.41-.33-3.11-.93-.83-.71-1.28-2.35-.73-3,.4-.47,1.52-.78,2.77.33.93.83,1.3,2.14,1.07,3.61Z"/>
    <path class="cls-8" d="m178.14,536.14c1.08-.79,3.91-4.05,3.91-4.05,0,0-2.83-3.26-3.91-4.05-.82-.59-1.87.5-1.87.5l2.46,2.49c-2.66-.46-8.44-1.96-9.59-6.42,2.09.14,4.45-1.18,5.39-3.05.72-1.44.45-2.93-.75-4.12-1.27-1.09-2.82-1.26-4.26-.45-1.78,1-2.95,3.24-2.8,5.24-4.15-1.09-6.26-4.82-6.64-11.76-.09-.37-.43-1.02-1.08-1.02-.04,0-.08.01-.13.01-.74.1-.91.78-.9,1.12-.14,6.33,2.88,13.06,8.92,13.8.98,5.49,7,8.11,11.93,8.68l-2.55,2.59s1.05,1.09,1.87.5Zm-9.54-13.6c-.26-1.62.33-2.41.93-3.11.71-.83,2.35-1.28,3-.73.47.4.78,1.52-.33,2.77-.83.93-2.14,1.3-3.61,1.07Z"/>
    <path class="cls-8" d="m627.73,536.14c1.08-.79,3.91-4.05,3.91-4.05,0,0-2.83-3.26-3.91-4.05-.82-.59-1.87.5-1.87.5l2.46,2.49c-2.66-.46-8.44-1.96-9.59-6.42,2.09.14,4.45-1.18,5.39-3.05.72-1.44.45-2.93-.75-4.12-1.27-1.09-2.82-1.26-4.26-.45-1.78,1-2.95,3.24-2.8,5.24-4.15-1.09-6.26-4.82-6.64-11.76-.09-.37-.43-1.02-1.08-1.02-.04,0-.08.01-.13.01-.74.1-.91.78-.9,1.12-.14,6.33,2.88,13.06,8.92,13.8.98,5.49,7,8.11,11.93,8.68l-2.55,2.59s1.05,1.09,1.87.5Zm-9.54-13.6c-.26-1.62.33-2.41.93-3.11.71-.83,2.35-1.28,3-.73.47.4.78,1.52-.33,2.77-.83.93-2.14,1.3-3.61,1.07Z"/>
    <path class="cls-10" d="m189.99,435.94c.7-.03.91-.61.87-1.41-.03-.8-.32-3.41,1.06-5,1.37-1.59,4.94-.62,7.08-.09l.48.13-.19-.46c-1.38-3.32-1.52-5.55-.44-6.61,1.86-1.84,6.83.27,6.88.29l.62.27-.29-.61c-1.22-2.55-1.63-4.68-.85-5.97.64-1.07,2.12-1.71,4.1-1.71.27.01.99-.02,1.4-.01l-2.59,2.54s1.05,1.08,1.87.47c.94-.69,3.95-4.07,3.95-4.07,0,0-2.77-3.23-3.95-4.08-.82-.6-1.87.5-1.87.5l2.2,2.23c.06.04.11.09.15.15l.22.23c-3-.11-5.44.56-6.86,2.41-1.31,1.7-.98,4.1-.8,4.97-1.03-.21-3.84-.88-5.54.78-1.74,1.7-1.35,4.77-1.2,5.82-.96-.14-3.75-.49-5.56,1.28-1.8,1.77-1.98,2.72-1.81,6.73.03.88.37,1.25,1.07,1.22Z"/>
    <path class="cls-10" d="m280.74,535.86c.7-.03.91-.61.87-1.41-.03-.8-.32-3.41,1.06-5,1.37-1.59,4.94-.62,7.08-.09l.48.13-.19-.46c-1.38-3.32-1.52-5.55-.44-6.61,1.86-1.84,6.83.27,6.88.29l.62.27-.29-.61c-1.22-2.55-1.63-4.68-.85-5.97.64-1.07,2.12-1.71,4.1-1.71.27.01.99-.02,1.4-.01l-2.59,2.54s1.05,1.08,1.87.47c.94-.69,3.95-4.07,3.95-4.07,0,0-2.77-3.23-3.95-4.08-.82-.6-1.87.5-1.87.5l2.2,2.23c.06.04.11.09.15.15l.22.23c-3-.11-5.44.56-6.86,2.41-1.31,1.7-.98,4.1-.8,4.97-1.03-.21-3.84-.88-5.54.78-1.74,1.7-1.35,4.77-1.2,5.82-.96-.14-3.75-.49-5.56,1.28-1.8,1.77-1.98,2.72-1.81,6.73.03.88.37,1.25,1.07,1.22Z"/>
    <path class="cls-10" d="m731.12,535.86c.7-.03.91-.61.87-1.41-.03-.8-.32-3.41,1.06-5,1.37-1.59,4.94-.62,7.08-.09l.48.13-.19-.46c-1.38-3.32-1.52-5.55-.44-6.61,1.86-1.84,6.83.27,6.88.29l.62.27-.29-.61c-1.22-2.55-1.63-4.68-.85-5.97.64-1.07,2.12-1.71,4.1-1.71.27.01.99-.02,1.4-.01l-2.59,2.54s1.05,1.08,1.87.47c.94-.69,3.95-4.07,3.95-4.07,0,0-2.77-3.23-3.95-4.08-.82-.6-1.87.5-1.87.5l2.2,2.23c.06.04.11.09.15.15l.22.23c-3-.11-5.44.56-6.86,2.41-1.31,1.7-.98,4.1-.8,4.97-1.03-.21-3.84-.88-5.54.78-1.74,1.7-1.35,4.77-1.2,5.82-.96-.14-3.75-.49-5.56,1.28-1.8,1.77-1.98,2.72-1.81,6.73.03.88.37,1.25,1.07,1.22Z"/>
    <path class="cls-8" d="m336.07,511.19c.03.7.61.91,1.41.87.8-.03,3.41-.32,5,1.06,1.59,1.37.62,4.94.09,7.08l-.13.48.46-.19c3.32-1.38,5.55-1.52,6.61-.44,1.84,1.86-.27,6.83-.29,6.88l-.27.62.61-.29c2.55-1.22,4.68-1.63,5.97-.85,1.07.64,1.71,2.12,1.71,4.1-.01.27.02.99.01,1.4l-2.54-2.59s-1.08,1.05-.47,1.87c.69.94,4.07,3.95,4.07,3.95,0,0,3.23-2.77,4.08-3.95.6-.82-.5-1.87-.5-1.87l-2.23,2.2c-.04.06-.09.11-.15.15l-.23.22c.11-3-.56-5.44-2.41-6.86-1.7-1.31-4.1-.98-4.97-.8.21-1.03.88-3.84-.78-5.54-1.7-1.74-4.77-1.35-5.82-1.2.14-.96.49-3.75-1.28-5.56-1.77-1.8-2.72-1.98-6.73-1.81-.88.03-1.25.37-1.22,1.07Z"/>
    <path class="cls-8" d="m516.35,511.19c.03.7.61.91,1.41.87.8-.03,3.41-.32,5,1.06,1.59,1.37.62,4.94.09,7.08l-.13.48.46-.19c3.32-1.38,5.55-1.52,6.61-.44,1.84,1.86-.27,6.83-.29,6.88l-.27.62.61-.29c2.55-1.22,4.68-1.63,5.97-.85,1.07.64,1.71,2.12,1.71,4.1-.01.27.02.99.01,1.4l-2.54-2.59s-1.08,1.05-.47,1.87c.69.94,4.07,3.95,4.07,3.95,0,0,3.23-2.77,4.08-3.95.6-.82-.5-1.87-.5-1.87l-2.23,2.2c-.04.06-.09.11-.15.15l-.23.22c.11-3-.56-5.44-2.41-6.86-1.7-1.31-4.1-.98-4.97-.8.21-1.03.88-3.84-.78-5.54-1.7-1.74-4.77-1.35-5.82-1.2.14-.96.49-3.75-1.28-5.56-1.77-1.8-2.72-1.98-6.73-1.81-.88.03-1.25.37-1.22,1.07Z"/>
    <path class="cls-10" d="m303.97,413.09c-.79-1.08-4.05-3.91-4.05-3.91,0,0-3.26,2.83-4.05,3.91-.59.82.5,1.87.5,1.87l2.49-2.46c-.46,2.66-1.96,8.44-6.42,9.59.14-2.09-1.18-4.45-3.05-5.39-1.44-.72-2.93-.45-4.12.75-1.09,1.27-1.26,2.82-.45,4.26,1,1.78,3.24,2.95,5.24,2.8-1.09,4.15-4.82,6.26-11.76,6.64-.37.09-1.02.43-1.02,1.08,0,.04.01.08.01.13.1.74.78.91,1.12.9,6.33.14,13.06-2.88,13.8-8.92,5.49-.98,8.11-7,8.68-11.93l2.59,2.55s1.09-1.05.5-1.87Zm-13.6,9.54c-1.62.26-2.41-.33-3.11-.93-.83-.71-1.28-2.35-.73-3,.4-.47,1.52-.78,2.77.33.93.83,1.3,2.14,1.07,3.61Z"/>
    <path class="cls-10" d="m370.11,435.94c.7-.03.91-.61.87-1.41-.03-.8-.32-3.41,1.06-5,1.37-1.59,4.94-.62,7.08-.09l.48.13-.19-.46c-1.38-3.32-1.52-5.55-.44-6.61,1.86-1.84,6.83.27,6.88.29l.62.27-.29-.61c-1.22-2.55-1.63-4.68-.85-5.97.64-1.07,2.12-1.71,4.1-1.71.27.01.99-.02,1.4-.01l-2.59,2.54s1.05,1.08,1.87.47c.94-.69,3.95-4.07,3.95-4.07,0,0-2.77-3.23-3.95-4.08-.82-.6-1.87.5-1.87.5l2.2,2.23c.06.04.11.09.15.15l.22.23c-3-.11-5.44.56-6.86,2.41-1.31,1.7-.98,4.1-.8,4.97-1.03-.21-3.84-.88-5.54.78-1.74,1.7-1.35,4.77-1.2,5.82-.96-.14-3.75-.49-5.56,1.28-1.8,1.77-1.98,2.72-1.81,6.73.03.88.37,1.25,1.07,1.22Z"/>
    <path class="cls-10" d="m460.77,377.92c-1.08.79-3.91,4.05-3.91,4.05,0,0,2.83,3.26,3.91,4.05.82.59,1.87-.5,1.87-.5l-2.46-2.49c2.66.46,8.44,1.96,9.59,6.42-2.09-.14-4.45,1.18-5.39,3.05-.72,1.44-.45,2.93.75,4.12,1.27,1.09,2.82,1.26,4.26.45,1.78-1,2.95-3.24,2.8-5.24,4.15,1.09,6.26,4.82,6.64,11.76.09.37.43,1.02,1.08,1.02.04,0,.08-.01.13-.01.74-.1.91-.78.9-1.12.14-6.33-2.88-13.06-8.92-13.8-.98-5.49-7-8.11-11.93-8.68l2.55-2.59s-1.05-1.09-1.87-.5Zm9.54,13.6c.26,1.62-.33,2.41-.93,3.11-.71.83-2.35,1.28-3,.73-.47-.4-.78-1.52.33-2.77.83-.93,2.14-1.3,3.61-1.07Z"/>
    <path class="cls-10" d="m576.42,396.34c-.03-.7-.61-.91-1.41-.87-.8.03-3.41.32-5-1.06-1.59-1.37-.62-4.94-.09-7.08l.13-.48-.46.19c-3.32,1.38-5.55,1.52-6.61.44-1.84-1.86.27-6.83.29-6.88l.27-.62-.61.29c-2.55,1.22-4.68,1.63-5.97.85-1.07-.64-1.71-2.12-1.71-4.1.01-.27-.02-.99-.01-1.4l2.54,2.59s1.08-1.05.47-1.87c-.69-.94-4.07-3.95-4.07-3.95,0,0-3.23,2.77-4.08,3.95-.6.82.5,1.87.5,1.87l2.23-2.2c.04-.06.09-.11.15-.15l.23-.22c-.11,3,.56,5.44,2.41,6.86,1.7,1.31,4.1.98,4.97.8-.21,1.03-.88,3.84.78,5.54,1.7,1.74,4.77,1.35,5.82,1.2-.14.96-.49,3.75,1.28,5.56,1.77,1.8,2.72,1.98,6.73,1.81.88-.03,1.25-.37,1.22-1.07Z"/>
    <path class="cls-10" d="m643.94,374.37c-1.08.79-3.91,4.05-3.91,4.05,0,0,2.83,3.26,3.91,4.05.82.59,1.87-.5,1.87-.5l-2.46-2.49c2.66.46,8.44,1.96,9.59,6.42-2.09-.14-4.45,1.18-5.39,3.05-.72,1.44-.45,2.93.75,4.12,1.27,1.09,2.82,1.26,4.26.45,1.78-1,2.95-3.24,2.8-5.24,4.15,1.09,6.26,4.82,6.64,11.76.09.37.43,1.02,1.08,1.02.04,0,.08-.01.13-.01.74-.1.91-.78.9-1.12.14-6.33-2.88-13.06-8.92-13.8-.98-5.49-7-8.11-11.93-8.68l2.55-2.59s-1.05-1.09-1.87-.5Zm9.54,13.6c.26,1.62-.33,2.41-.93,3.11-.71.83-2.35,1.28-3,.73-.47-.4-.78-1.52.33-2.77.83-.93,2.14-1.3,3.61-1.07Z"/>
    <path class="cls-10" d="m728.3,378.12c.7.03.91.61.87,1.41-.03.8-.32,3.41,1.06,5,1.37,1.59,4.94.62,7.08.09l.48-.13-.19.46c-1.38,3.32-1.52,5.55-.44,6.61,1.86,1.84,6.83-.27,6.88-.29l.62-.27-.29.61c-1.22,2.55-1.63,4.68-.85,5.97.64,1.07,2.12,1.71,4.1,1.71.27-.01.99.02,1.4.01l-2.59-2.54s1.05-1.08,1.87-.47c.94.69,3.95,4.07,3.95,4.07,0,0-2.77,3.23-3.95,4.08-.82.6-1.87-.5-1.87-.5l2.2-2.23c.06-.04.11-.09.15-.15l.22-.23c-3,.11-5.44-.56-6.86-2.41-1.31-1.7-.98-4.1-.8-4.97-1.03.21-3.84.88-5.54-.78-1.74-1.7-1.35-4.77-1.2-5.82-.96.14-3.75.49-5.56-1.28-1.8-1.77-1.98-2.72-1.81-6.73.03-.88.37-1.25,1.07-1.22Z"/>
  </g>
  <g>
    <path class="cls-7" d="m185.52,248.48c4.39-1.93.8-6.48-3.28-4.27-.04.02-.07.06-.07.1-.38,2.63-.16,6.19.2,8.71.02.13.12.23.24.27,6.22,1.71,7.68-3.78,2.91-4.81Zm.65-2.47c0,1.13-1.98,1.51-2.74,1.51-.13-.26-.02-2.43.07-2.53.9-.25,2.67.04,2.67,1.02Zm-2.38,6.17c-.17-1.1-.2-1.41-.14-2.54.47-.06,3.32-.1,3.29,1.38-.03,1.15-2.44,1.38-3.15,1.16Z"/>
    <path class="cls-7" d="m278.93,251.38c.42.55-.07,1.12-.5,1.33-9.15,4.54-8.83-9.42-3.27-9.09,1.07.06,2.05.85,2.39,1.26.25.29.44.81.12,1.16-.34.36-.8.24-1.02,0-4.33-4.56-6.65,9.06,1.11,5.25.45-.22.79-.4,1.16.09Z"/>
    <path class="cls-7" d="m368.93,251.38c.42.55-.07,1.12-.5,1.33-9.15,4.54-8.83-9.42-3.27-9.09,1.07.06,2.05.85,2.39,1.26.25.29.44.81.12,1.16-.34.36-.8.24-1.02,0-4.33-4.56-6.65,9.06,1.11,5.25.45-.22.79-.4,1.16.09Z"/>
    <path class="cls-7" d="m450.94,244.06c4.64-1.3,7.94.33,7.99,3.72.1,6.19-7.54,6.06-7.86,5.69-.19-.72-.85-5.47-.13-9.41Zm1.61,7.69c3.94-.46,5.1-2.07,4.74-4.52-.36-2.45-4.31-2.07-4.85-1.81-.26,3.6-.2,4.36.11,6.32Z"/>
    <path class="cls-7" d="m543.4,246.61c0,.36.02,1.02.02,1.02,0,0,2.18.01,3.53.07.5.02.9-.07.95.78.04.6-.32.73-.87.77-1.28.09-3.49.05-3.49.05,0,0,.03,1.16.07,1.65.03.39.1.88.1.88,0,0,3.53.01,3.93,0,.33,0,.84,0,.81.84-.03.89-.42.83-.98.87-1.49.1-4.12,0-4.84-.38-1.02-.55-.79-5.46-.37-8.84.08-.67,3.98-.71,4.96-.62.44.04.67.53.67.82,0,.31,0,.87-.59.9-1.38.08-3.86.16-3.86.16,0,0-.03.8-.02,1.03Z"/>
    <path class="cls-7" d="m633.03,252.97c-.21-2.13-.27-7.16-.03-8.83,0,0,1.78-.75,5.18-.44.42.04.62.25.63.53.03.54,0,1.08-.55,1.11-1.32.07-3.68.15-3.68.15,0,0-.03.76-.02.98,0,.34.02.97.02.97,0,0,2.08.01,3.36.07.47.02.88-.05.91.74.02.57-.38.7-.91.74-1.22.09-3.25.04-3.25.04.07,1.57.19,3.19.19,3.78,0,.69-.57.8-.97.8-.59,0-.85-.44-.87-.65Z"/>
    <path class="cls-7" d="m723.03,252.97c-.21-2.13-.27-7.16-.03-8.83,0,0,1.78-.75,5.18-.44.42.04.62.25.63.53.03.54,0,1.08-.55,1.11-1.32.07-3.68.15-3.68.15,0,0-.03.76-.02.98,0,.34.02.97.02.97,0,0,2.08.01,3.36.07.47.02.88-.05.91.74.02.57-.38.7-.91.74-1.22.09-3.25.04-3.25.04.07,1.57.19,3.19.19,3.78,0,.69-.57.8-.97.8-.59,0-.85-.44-.87-.65Z"/>
    <path class="cls-7" d="m98.82,252.63c-.87-2.99-2.3-6.84-2.48-7.31-.18-.46-.77-1.7-1.18-1.7s-1,1.24-1.18,1.7c-.18.47-1.61,4.32-2.48,7.31-.24.84.06.91.18.94,1.61.21,1.32-.3,1.57-1.4.23-1,.22-1.46,1-1.46.38,0,.56.01.91.01s.54-.01.91-.01c.78,0,.77.46,1,1.46.25,1.1-.04,1.61,1.57,1.4.12-.03.42-.1.18-.94Zm-2.91-3.37h-1.51c-.14,0-.23-.07-.19-.23l.94-3.44.94,3.44c.04.16-.05.23-.19.23Z"/>
  </g>
  <g>
    <path class="cls-7" d="m455.38,347.12c-.24-1.84.32-1.55-2-1.55-.49,0-1.12-.24-1.1-.84.02-.69.18-1.02,1.13-1.02.29,0,3.02-.14,5.22-.13.77,0,1.31.31,1.31,1.02,0,.57-.43.92-1.33.92-1.89,0-1.64-.27-1.64,1.65,0,2.22.1,3.18-.29,3.97-2.08,4.21-6.3,2.33-6.3-.82,0-.59.16-.9.75-.94.53-.04.66.49.77.9.76,2.76,4.16,2.08,3.48-3.16Z"/>
    <path class="cls-7" d="m98.28,345.31c-.42-.02-1.11-.04-1.33-.05-2.5-.16-3.99,1.77-4.23,4.08-.08.74.07,1.24.63,1.77.96.88,2.65,1.08,3.68.33.29-.21.56-.57.67-.92.23-.7-.06-1.13-.73-1.15-.55-.02-1.11.07-1.67.1-.47.02-.98.05-1.11-.62-.11-.57.35-1.04,1.07-1.13.6-.07,1.2-.08,1.8-.13.41-.04.92,0,1.41-.03.86,1.57.93,2.45.34,3.91-.66,1.62-1.9,2.23-3.38,2.2-.76-.02-1.61-.21-2.26-.62-2.32-1.47-2.63-3.71-1.3-6.4,1.3-3.01,4.25-2.97,5.53-2.98.84,0,1.06.15.85,1.66Z"/>
    <path class="cls-7" d="m278.83,352.91c0,.65-.36.74-1.5.74h-4.33c-1.13,0-1.5-.09-1.5-.74s.49-.73,1.75-.73,1.17.32,1.17-3.55.1-3.5-2-3.5c-.49,0-.92-.16-.92-.72s.2-.75.99-.75h5.35c.79,0,.99.2.99.75s-.43.72-.92.72c-2.1,0-2-.37-2,3.5s-.14,3.55,1.17,3.55,1.75.08,1.75.73Z"/>
    <path class="cls-7" d="m368.83,352.91c0,.65-.36.74-1.5.74h-4.33c-1.13,0-1.5-.09-1.5-.74s.49-.73,1.75-.73,1.17.32,1.17-3.55.1-3.5-2-3.5c-.49,0-.92-.16-.92-.72s.2-.75.99-.75h5.35c.79,0,.99.2.99.75s-.43.72-.92.72c-2.1,0-2-.37-2,3.5s-.14,3.55,1.17,3.55,1.75.08,1.75.73Z"/>
    <path class="cls-7" d="m188.48,344.73v7.97c0,.82-.23.95-.84.95-.67,0-.75-.2-.75-.9,0-2.75.12-3.14-.89-3.17-.34-.02-1.3-.02-1.68,0-1.01.03-.89.42-.89,3.17,0,.7-.08.9-.75.9-.61,0-.84-.13-.84-.95v-7.97c0-.96.39-1.07.88-1.07s.71.2.71,1.04c0,2.76.11,3.25.76,3.25h1.94c.65,0,.76-.49.76-3.25,0-.84.22-1.04.71-1.04s.88.11.88,1.07Z"/>
    <path class="cls-7" d="m633.3,344.26c-.19,8.85-.94,7.8,4.1,7.75.71,0,1.24.12,1.24.84,0,.33-.44.77-1.2.77-4.71,0-4.71.13-5.33-.4-.49-.41-.42-1.9-.42-2.78,0-1.17.02-5.56.1-6.18s.33-.62.75-.62c.38,0,.77.09.76.62Z"/>
    <path class="cls-7" d="m543.57,349.75c0,1.63,0,2.16,0,3.1,0,.66-.29.79-.8.79s-.93-.29-.93-.87c0-1.15-.04-6.16-.04-8.56,0-.52.34-.57.65-.57.41,0,.86.14.86.57,0,1.02.08,3.16.08,3.16,0,0,1.87-1.75,2.5-2.42.41-.44,1-.5,1.3-.14.3.36.47.6-.1,1.15-.85.84-1.04,1.21-2.46,2.53.83.86,2.18,1.99,3.61,3.62.45.51.34,1.14.17,1.3s-.8.24-1.19-.17c-.39-.4-1.92-2.09-3.65-3.5Z"/>
    <path class="cls-7" d="m723.3,344.26c-.19,8.85-.94,7.8,4.1,7.75.71,0,1.24.12,1.24.84,0,.33-.44.77-1.2.77-4.71,0-4.71.13-5.33-.4-.49-.41-.42-1.9-.42-2.78,0-1.17.02-5.56.1-6.18s.33-.62.75-.62c.38,0,.77.09.76.62Z"/>
  </g>
  <g>
    <path class="cls-7" d="m452.12,444.09c2.1-.68,4.35-.62,5.15.12,1.3,1.2,1.17,2.8.53,3.78-.96,1.47-3.93,1.42-3.93,1.42,0,0,.29,3.22.2,3.68-.02.1-.5.53-.74.53-.26,0-.84-.18-.88-.48-.61-5.29-.67-8.32-.33-9.04Zm1.64,3.84c2.37.24,3.12-.65,2.92-2-.2-1.35-2.71-1-3.01-.85-.11,1.56-.08,1.77.09,2.85Z"/>
    <path class="cls-7" d="m638.47,452.23l-2.7-3.03c.87-.25,1.47-.64,1.8-1.14.66-1.02.77-2.65-.54-3.86-.83-.76-3.04-.82-5.15-.14l-.06.02-.02.05c-.26.54-.14,2.22.07,5.27.08,1.06.16,2.26.24,3.62.02.37.41.57.79.57.3,0,.77-.17.84-.62.06-.42-.05-2.87-.08-3.48h.17l3.42,3.83c.16.18.38.27.61.27.2,0,.4-.07.55-.21.34-.3.37-.83.07-1.16Zm-5.02-4.32l-.03-.2c-.13-.82-.2-1.21-.11-2.5.38-.1,1.92-.27,2.71.15.28.14.44.34.47.59.08.5-.06.95-.38,1.3-.52.53-1.46.77-2.66.67Z"/>
    <path class="cls-7" d="m728.47,452.23l-2.7-3.03c.87-.25,1.47-.64,1.8-1.14.66-1.02.77-2.65-.54-3.86-.83-.76-3.04-.82-5.15-.14l-.06.02-.02.05c-.26.54-.14,2.22.07,5.27.08,1.06.16,2.26.24,3.62.02.37.41.57.79.57.3,0,.77-.17.84-.62.06-.42-.05-2.87-.08-3.48h.17l3.42,3.83c.16.18.38.27.61.27.2,0,.4-.07.55-.21.34-.3.37-.83.07-1.16Zm-5.02-4.32l-.03-.2c-.13-.82-.2-1.21-.11-2.5.38-.1,1.92-.27,2.71.15.28.14.44.34.47.59.08.5-.06.95-.38,1.3-.52.53-1.46.77-2.66.67Z"/>
    <path class="cls-7" d="m549.53,452.13l-.97-.99-.02-.02c1.23-2.17.51-4.46-.12-5.62-.87-1.56-3.93-2.62-5.78-1.24-2.07,1.53-2.64,3.26-2.09,6.23.3,1.66,2.32,3.48,4.78,3.07.79-.14,1.51-.53,2.11-1.07l.84.86c.34.34.89.35,1.24,0,.35-.34.35-.9,0-1.24Zm-6.76-1.14c-.78-.77-1.05-3.12.06-4.56,1.24-1.59,3.21-.9,3.76-.41.64.58,1.52,2.26.81,3.93l-.1-.1h0s-1.02-1.04-1.02-1.04c-.34-.35-.9-.35-1.24,0-.18.16-.26.39-.26.62s.08.45.25.62l1.1,1.12.15.15c-1.14.75-2.65.55-3.51-.31Z"/>
    <path class="cls-7" d="m100.22,453.63c-.46.06-.96-.28-1.19-1.14-.42-1.54-.92-3.7-1.44-5.63-1.11,2.72-1.86,4.39-2.5,4.38-.01,0-.02,0-.03-.01-.01.01-.02.01-.03.01-.64.01-1.39-1.65-2.5-4.38-.51,1.93-1.02,4.09-1.44,5.63-.24.86-.73,1.2-1.19,1.14-.59-.07-.98-.49-.74-1.25.25-.81,1.84-6.07,2.3-7.72.47-1.65,1.59-.9,1.8-.49.21.41,1.36,3.67,1.8,4.59.44-.92,1.59-4.18,1.8-4.59.21-.41,1.33-1.16,1.8.49.46,1.64,2.05,6.9,2.3,7.72.24.76-.15,1.18-.74,1.25Z"/>
    <path class="cls-7" d="m189.57,444.96c-.2.78-1.37,6.55-1.58,7.33-.21.78-.44,1.33-.9,1.35s-.64-.27-1.17-1.25c-.53-.98-1.66-3.47-2.44-5.56-.53,1.89-.73,3.97-1.16,5.48-.25.85-.58,1.36-1.02,1.29-.1-.02-1.05-.26-.75-1.36.22-.81,1.48-6,1.96-7.62.48-1.62,1.54-.85,1.73-.44.19.41,2.31,5.6,2.67,6.53.19-.85.69-4.5,1.08-6.27.13-.6.81-.88,1.1-.76.29.12.68.5.48,1.29Z"/>
    <path class="cls-7" d="m270.85,450.49c-.55-2.97.03-4.69,2.09-6.23,1.86-1.39,4.92-.33,5.78,1.24.73,1.31,1.54,4.09-.47,6.49-.67.8-1.59,1.4-2.62,1.57-2.46.41-4.48-1.4-4.79-3.06Zm2.23.5c1.14,1.13,3.41,1.11,4.45-.7,1.02-1.77.06-3.66-.63-4.27-.55-.49-2.53-1.19-3.76.41-1.11,1.45-.84,3.8-.07,4.56Z"/>
    <path class="cls-7" d="m360.85,450.49c-.55-2.97.03-4.69,2.09-6.23,1.86-1.39,4.92-.33,5.78,1.24.73,1.31,1.54,4.09-.47,6.49-.67.8-1.59,1.4-2.62,1.57-2.46.41-4.48-1.4-4.79-3.06Zm2.23.5c1.14,1.13,3.41,1.11,4.45-.7,1.02-1.77.06-3.66-.63-4.27-.55-.49-2.53-1.19-3.76.41-1.11,1.45-.84,3.8-.07,4.56Z"/>
  </g>
  <g>
    <path class="cls-7" d="m279.25,544.59c-.01.49-.38.78-1.17.77h-2.09v7.47c0,.45-.37.83-.83.83s-.83-.38-.83-.83v-7.47h-2.09c-.79,0-1.16-.28-1.17-.77-.02-.62.45-.89,1.12-.91.82-.02,5.12-.02,5.94,0,.67.02,1.14.29,1.12.91Z"/>
    <path class="cls-7" d="m369.25,544.59c-.01.49-.38.78-1.17.77h-2.09v7.47c0,.45-.37.83-.83.83s-.83-.38-.83-.83v-7.47h-2.09c-.79,0-1.16-.28-1.17-.77-.02-.62.45-.89,1.12-.91.82-.02,5.12-.02,5.94,0,.67.02,1.14.29,1.12.91Z"/>
    <path class="cls-7" d="m728.92,545.01c-.06.29-1.97,5.54-3.02,7.94-.32.73-.61.72-.74.72s-.42,0-.74-.72c-1.05-2.4-2.96-7.64-3.02-7.94-.23-1,.08-1.16.44-1.3.28-.13.86-.02,1.12.7.16.42,2.2,5.86,2.2,5.86,0,0,2.05-5.44,2.2-5.86.25-.72.83-.82,1.12-.7.36.15.67.3.44,1.3Z"/>
    <path class="cls-7" d="m638.92,545.01c-.06.29-1.97,5.54-3.02,7.94-.32.73-.61.72-.74.72s-.42,0-.74-.72c-1.05-2.4-2.96-7.64-3.02-7.94-.23-1,.08-1.16.44-1.3.28-.13.86-.02,1.12.7.16.42,2.2,5.86,2.2,5.86,0,0,2.05-5.44,2.2-5.86.25-.72.83-.82,1.12-.7.36.15.67.3.44,1.3Z"/>
    <path class="cls-7" d="m459.08,549.19c-.11.73-.3,1.42-.58,2.11-.6,1.42-1.8,2.3-3.21,2.37h-.26c-1.41-.07-2.6-.95-3.21-2.37-.28-.67-.47-1.36-.57-2.11-.19-1.31-.24-2.6-.18-4.35.02-.47.13-.8.34-.99.14-.13.32-.19.52-.19.64.04.78.66.82,1.21,0,.18,0,.48,0,.86-.05,1.51-.14,4.35.93,5.36.21.2.58.43.94.56.35.14.73.14,1.08,0,.36-.14.74-.37.95-.56,1.06-1.01.98-3.81.93-5.33,0-.4-.02-.71,0-.89.03-.5.15-1.17.8-1.21.21,0,.39.06.52.19.22.19.33.52.34.99.08,1.8.03,3.06-.16,4.35Z"/>
    <path class="cls-7" d="m549.08,549.19c-.11.73-.3,1.42-.58,2.11-.6,1.42-1.8,2.3-3.21,2.37h-.26c-1.41-.07-2.6-.95-3.21-2.37-.28-.67-.47-1.36-.57-2.11-.19-1.31-.24-2.6-.18-4.35.02-.47.13-.8.34-.99.14-.13.32-.19.52-.19.64.04.78.66.82,1.21,0,.18,0,.48,0,.86-.05,1.51-.14,4.35.93,5.36.21.2.58.43.94.56.35.14.73.14,1.08,0,.36-.14.74-.37.95-.56,1.06-1.01.98-3.81.93-5.33,0-.4-.02-.71,0-.89.03-.5.15-1.17.8-1.21.21,0,.39.06.52.19.22.19.33.52.34.99.08,1.8.03,3.06-.16,4.35Z"/>
    <path class="cls-7" d="m98.76,551.31c-.25,1.19-1.45,2.37-3.24,2.37h-.11c-1-.04-2.78-.26-3.51-1.25-.39-.52-.47-1.13-.19-1.44.24-.27.68-.24,1.23.08,1.08,1.06,2.52,1.08,3.42.64.52-.26.82-.65.77-1.03-.03-.33-.36-.94-2.12-1.35-2.5-.56-3.55-1.98-3.49-3.14.06-1.03,1.04-2.24,3.59-2.51.07,0,.13,0,.2,0,1.08,0,2.66.83,2.96,1.59.13.32.04.59-.26.82-.19.14-.59-.05-1.1-.3-.48-.23-1.01-.49-1.51-.55-.14-.02-.27-.03-.4-.03-.95,0-1.68.48-1.82.99-.13.47.23.9.96,1.2l2.99,1.21c1.5.62,1.82,1.8,1.62,2.7Z"/>
    <path class="cls-7" d="m188.76,551.31c-.25,1.19-1.45,2.37-3.24,2.37h-.11c-1-.04-2.78-.26-3.51-1.25-.39-.52-.47-1.13-.19-1.44.24-.27.68-.24,1.23.08,1.08,1.06,2.52,1.08,3.42.64.52-.26.82-.65.77-1.03-.03-.33-.36-.94-2.12-1.35-2.5-.56-3.55-1.98-3.49-3.14.06-1.03,1.04-2.24,3.59-2.51.07,0,.13,0,.2,0,1.08,0,2.66.83,2.96,1.59.13.32.04.59-.26.82-.19.14-.59-.05-1.1-.3-.48-.23-1.01-.49-1.51-.55-.14-.02-.27-.03-.4-.03-.95,0-1.68.48-1.82.99-.13.47.23.9.96,1.2l2.99,1.21c1.5.62,1.82,1.8,1.62,2.7Z"/>
  </g>
  <g>
    <g>
      <g>
        <path d="m104.64,247.06l-.03.05h-2.95v-.16c.01-.05.01-.09.02-.11.01-.08.02-.14.05-.21.07-.24.18-.46.32-.66.08-.12.19-.24.28-.34.16-.17.32-.34.49-.5l.04-.04c.15-.14.28-.27.42-.41.02-.03.06-.06.09-.11.03-.03.06-.06.08-.11.09-.12.15-.23.17-.33v-.02c.01-.06.02-.11.02-.17,0,0,0-.02-.01-.04,0-.04,0-.06-.01-.11-.05-.13-.13-.21-.26-.25-.08-.03-.22-.03-.35.01-.1.04-.18.11-.22.21-.02.05-.03.12-.04.17s-.02.1-.02.13v.12h-.11c-.14-.02-.27-.03-.4-.04-.14-.01-.26-.03-.39-.04h-.09v-.14c.01-.11.02-.21.06-.31.03-.15.07-.27.14-.38.08-.16.21-.29.4-.41.13-.09.27-.15.45-.19.07-.02.15-.03.24-.04.11-.01.22-.01.33,0,.1,0,.23.02.33.04.19.05.34.13.48.24.17.13.29.29.39.5.04.09.07.18.08.31.01.1.02.18.01.27,0,.21-.05.44-.16.64-.07.15-.17.29-.24.4-.09.11-.18.2-.26.29-.11.13-.24.25-.37.35-.11.12-.24.23-.35.35-.04.04-.07.08-.1.12h1.48v.11c.01.77,0,.78-.01.81Z"/>
        <path d="m194.64,247.06l-.03.05h-2.95v-.16c.01-.05.01-.09.02-.11.01-.08.02-.14.05-.21.07-.24.18-.46.32-.66.08-.12.19-.24.28-.34.16-.17.32-.34.49-.5l.04-.04c.15-.14.28-.27.42-.41.02-.03.06-.06.09-.11.03-.03.06-.06.08-.11.09-.12.15-.23.17-.33v-.02c.01-.06.02-.11.02-.17,0,0,0-.02-.01-.04,0-.04,0-.06-.01-.11-.05-.13-.13-.21-.26-.25-.08-.03-.22-.03-.35.01-.1.04-.18.11-.22.21-.02.05-.03.12-.04.17s-.02.1-.02.13v.12h-.11c-.14-.02-.27-.03-.4-.04-.14-.01-.26-.03-.39-.04h-.09v-.14c.01-.11.02-.21.06-.31.03-.15.07-.27.14-.38.08-.16.21-.29.4-.41.13-.09.27-.15.45-.19.07-.02.15-.03.24-.04.11-.01.22-.01.33,0,.1,0,.23.02.33.04.19.05.34.13.48.24.17.13.29.29.39.5.04.09.07.18.08.31.01.1.02.18.01.27,0,.21-.05.44-.16.64-.07.15-.17.29-.24.4-.09.11-.18.2-.26.29-.11.13-.24.25-.37.35-.11.12-.24.23-.35.35-.04.04-.07.08-.1.12h1.48v.11c.01.77,0,.78-.01.81Z"/>
        <path d="m284.14,247.06l-.03.05h-2.95v-.16c.01-.05.01-.09.02-.11.01-.08.02-.14.05-.21.07-.24.18-.46.32-.66.08-.12.19-.24.28-.34.16-.17.32-.34.49-.5l.04-.04c.15-.14.28-.27.42-.41.02-.03.06-.06.09-.11.03-.03.06-.06.08-.11.09-.12.15-.23.17-.33v-.02c.01-.06.02-.11.02-.17,0,0,0-.02-.01-.04,0-.04,0-.06-.01-.11-.05-.13-.13-.21-.26-.25-.08-.03-.22-.03-.35.01-.1.04-.18.11-.22.21-.02.05-.03.12-.04.17s-.02.1-.02.13v.12h-.11c-.14-.02-.27-.03-.4-.04-.14-.01-.26-.03-.39-.04h-.09v-.14c.01-.11.02-.21.06-.31.03-.15.07-.27.14-.38.08-.16.21-.29.4-.41.13-.09.27-.15.45-.19.07-.02.15-.03.24-.04.11-.01.22-.01.33,0,.1,0,.23.02.33.04.19.05.34.13.48.24.17.13.29.29.39.5.04.09.07.18.08.31.01.1.02.18.01.27,0,.21-.05.44-.16.64-.07.15-.17.29-.24.4-.09.11-.18.2-.26.29-.11.13-.24.25-.37.35-.11.12-.24.23-.35.35-.04.04-.07.08-.1.12h1.48v.11c.01.77,0,.78-.01.81Z"/>
        <path d="m374.52,254.56l-.03.05h-2.95v-.16c.01-.05.01-.09.02-.11.01-.08.02-.14.05-.21.07-.24.18-.46.32-.66.08-.12.19-.24.28-.34.16-.17.32-.34.49-.5l.04-.04c.15-.14.28-.27.42-.41.02-.03.06-.06.09-.11.03-.03.06-.06.08-.11.09-.12.15-.23.17-.33v-.02c.01-.06.02-.11.02-.17,0,0,0-.02-.01-.04,0-.04,0-.06-.01-.11-.05-.13-.13-.21-.26-.25-.08-.03-.22-.03-.35.01-.1.04-.18.11-.22.21-.02.05-.03.12-.04.17s-.02.1-.02.13v.12h-.11c-.14-.02-.27-.03-.4-.04-.14-.01-.26-.03-.39-.04h-.09v-.14c.01-.11.02-.21.06-.31.03-.15.07-.27.14-.38.08-.16.21-.29.4-.41.13-.09.27-.15.45-.19.07-.02.15-.03.24-.04.11-.01.22-.01.33,0,.1,0,.23.02.33.04.19.05.34.13.48.24.17.13.29.29.39.5.04.09.07.18.08.31.01.1.02.18.01.27,0,.21-.05.44-.16.64-.07.15-.17.29-.24.4-.09.11-.18.2-.26.29-.11.13-.24.25-.37.35-.11.12-.24.23-.35.35-.04.04-.07.08-.1.12h1.48v.11c.01.77,0,.78-.01.81Z"/>
      </g>
      <g>
        <path d="m464.64,247.06l-.03.05h-2.95v-.16c.01-.05.01-.09.02-.11.01-.08.02-.14.05-.21.07-.24.18-.46.32-.66.08-.12.19-.24.28-.34.16-.17.32-.34.49-.5l.04-.04c.15-.14.28-.27.42-.41.02-.03.06-.06.09-.11.03-.03.06-.06.08-.11.09-.12.15-.23.17-.33v-.02c.01-.06.02-.11.02-.17,0,0,0-.02-.01-.04,0-.04,0-.06-.01-.11-.05-.13-.13-.21-.26-.25-.08-.03-.22-.03-.35.01-.1.04-.18.11-.22.21-.02.05-.03.12-.04.17s-.02.1-.02.13v.12h-.11c-.14-.02-.27-.03-.4-.04-.14-.01-.26-.03-.39-.04h-.09v-.14c.01-.11.02-.21.06-.31.03-.15.07-.27.14-.38.08-.16.21-.29.4-.41.13-.09.27-.15.45-.19.07-.02.15-.03.24-.04.11-.01.22-.01.33,0,.1,0,.23.02.33.04.19.05.34.13.48.24.17.13.29.29.39.5.04.09.07.18.08.31.01.1.02.18.01.27,0,.21-.05.44-.16.64-.07.15-.17.29-.24.4-.09.11-.18.2-.26.29-.11.13-.24.25-.37.35-.11.12-.24.23-.35.35-.04.04-.07.08-.1.12h1.48v.11c.01.77,0,.78-.01.81Z"/>
        <path d="m554.64,247.06l-.03.05h-2.95v-.16c.01-.05.01-.09.02-.11.01-.08.02-.14.05-.21.07-.24.18-.46.32-.66.08-.12.19-.24.28-.34.16-.17.32-.34.49-.5l.04-.04c.15-.14.28-.27.42-.41.02-.03.06-.06.09-.11.03-.03.06-.06.08-.11.09-.12.15-.23.17-.33v-.02c.01-.06.02-.11.02-.17,0,0,0-.02-.01-.04,0-.04,0-.06-.01-.11-.05-.13-.13-.21-.26-.25-.08-.03-.22-.03-.35.01-.1.04-.18.11-.22.21-.02.05-.03.12-.04.17s-.02.1-.02.13v.12h-.11c-.14-.02-.27-.03-.4-.04-.14-.01-.26-.03-.39-.04h-.09v-.14c.01-.11.02-.21.06-.31.03-.15.07-.27.14-.38.08-.16.21-.29.4-.41.13-.09.27-.15.45-.19.07-.02.15-.03.24-.04.11-.01.22-.01.33,0,.1,0,.23.02.33.04.19.05.34.13.48.24.17.13.29.29.39.5.04.09.07.18.08.31.01.1.02.18.01.27,0,.21-.05.44-.16.64-.07.15-.17.29-.24.4-.09.11-.18.2-.26.29-.11.13-.24.25-.37.35-.11.12-.24.23-.35.35-.04.04-.07.08-.1.12h1.48v.11c.01.77,0,.78-.01.81Z"/>
        <path d="m644.14,247.06l-.03.05h-2.95v-.16c.01-.05.01-.09.02-.11.01-.08.02-.14.05-.21.07-.24.18-.46.32-.66.08-.12.19-.24.28-.34.16-.17.32-.34.49-.5l.04-.04c.15-.14.28-.27.42-.41.02-.03.06-.06.09-.11.03-.03.06-.06.08-.11.09-.12.15-.23.17-.33v-.02c.01-.06.02-.11.02-.17,0,0,0-.02-.01-.04,0-.04,0-.06-.01-.11-.05-.13-.13-.21-.26-.25-.08-.03-.22-.03-.35.01-.1.04-.18.11-.22.21-.02.05-.03.12-.04.17s-.02.1-.02.13v.12h-.11c-.14-.02-.27-.03-.4-.04-.14-.01-.26-.03-.39-.04h-.09v-.14c.01-.11.02-.21.06-.31.03-.15.07-.27.14-.38.08-.16.21-.29.4-.41.13-.09.27-.15.45-.19.07-.02.15-.03.24-.04.11-.01.22-.01.33,0,.1,0,.23.02.33.04.19.05.34.13.48.24.17.13.29.29.39.5.04.09.07.18.08.31.01.1.02.18.01.27,0,.21-.05.44-.16.64-.07.15-.17.29-.24.4-.09.11-.18.2-.26.29-.11.13-.24.25-.37.35-.11.12-.24.23-.35.35-.04.04-.07.08-.1.12h1.48v.11c.01.77,0,.78-.01.81Z"/>
        <path d="m733.52,254.56l-.03.05h-2.95v-.16c.01-.05.01-.09.02-.11.01-.08.02-.14.05-.21.07-.24.18-.46.32-.66.08-.12.19-.24.28-.34.16-.17.32-.34.49-.5l.04-.04c.15-.14.28-.27.42-.41.02-.03.06-.06.09-.11.03-.03.06-.06.08-.11.09-.12.15-.23.17-.33v-.02c.01-.06.02-.11.02-.17,0,0,0-.02-.01-.04,0-.04,0-.06-.01-.11-.05-.13-.13-.21-.26-.25-.08-.03-.22-.03-.35.01-.1.04-.18.11-.22.21-.02.05-.03.12-.04.17s-.02.1-.02.13v.12h-.11c-.14-.02-.27-.03-.4-.04-.14-.01-.26-.03-.39-.04h-.09v-.14c.01-.11.02-.21.06-.31.03-.15.07-.27.14-.38.08-.16.21-.29.4-.41.13-.09.27-.15.45-.19.07-.02.15-.03.24-.04.11-.01.22-.01.33,0,.1,0,.23.02.33.04.19.05.34.13.48.24.17.13.29.29.39.5.04.09.07.18.08.31.01.1.02.18.01.27,0,.21-.05.44-.16.64-.07.15-.17.29-.24.4-.09.11-.18.2-.26.29-.11.13-.24.25-.37.35-.11.12-.24.23-.35.35-.04.04-.07.08-.1.12h1.48v.11c.01.77,0,.78-.01.81Z"/>
      </g>
    </g>
    <g>
      <g>
        <path d="m104.64,347.06l-.03.05h-2.95v-.16c.01-.05.01-.09.02-.11.01-.08.02-.14.05-.21.07-.24.18-.46.32-.66.08-.12.19-.24.28-.34.16-.17.32-.34.49-.5l.04-.04c.15-.14.28-.27.42-.41.02-.03.06-.06.09-.11.03-.03.06-.06.08-.11.09-.12.15-.23.17-.33v-.02c.01-.06.02-.11.02-.17,0,0,0-.02-.01-.04,0-.04,0-.06-.01-.11-.05-.13-.13-.21-.26-.25-.08-.03-.22-.03-.35.01-.1.04-.18.11-.22.21-.02.05-.03.12-.04.17s-.02.1-.02.13v.12h-.11c-.14-.02-.27-.03-.4-.04-.14-.01-.26-.03-.39-.04h-.09v-.14c.01-.11.02-.21.06-.31.03-.15.07-.27.14-.38.08-.16.21-.29.4-.41.13-.09.27-.15.45-.19.07-.02.15-.03.24-.04.11-.01.22-.01.33,0,.1,0,.23.02.33.04.19.05.34.13.48.24.17.13.29.29.39.5.04.09.07.18.08.31.01.1.02.18.01.27,0,.21-.05.44-.16.64-.07.15-.17.29-.24.4-.09.11-.18.2-.26.29-.11.13-.24.25-.37.35-.11.12-.24.23-.35.35-.04.04-.07.08-.1.12h1.48v.11c.01.77,0,.78-.01.81Z"/>
        <path d="m194.64,347.06l-.03.05h-2.95v-.16c.01-.05.01-.09.02-.11.01-.08.02-.14.05-.21.07-.24.18-.46.32-.66.08-.12.19-.24.28-.34.16-.17.32-.34.49-.5l.04-.04c.15-.14.28-.27.42-.41.02-.03.06-.06.09-.11.03-.03.06-.06.08-.11.09-.12.15-.23.17-.33v-.02c.01-.06.02-.11.02-.17,0,0,0-.02-.01-.04,0-.04,0-.06-.01-.11-.05-.13-.13-.21-.26-.25-.08-.03-.22-.03-.35.01-.1.04-.18.11-.22.21-.02.05-.03.12-.04.17s-.02.1-.02.13v.12h-.11c-.14-.02-.27-.03-.4-.04-.14-.01-.26-.03-.39-.04h-.09v-.14c.01-.11.02-.21.06-.31.03-.15.07-.27.14-.38.08-.16.21-.29.4-.41.13-.09.27-.15.45-.19.07-.02.15-.03.24-.04.11-.01.22-.01.33,0,.1,0,.23.02.33.04.19.05.34.13.48.24.17.13.29.29.39.5.04.09.07.18.08.31.01.1.02.18.01.27,0,.21-.05.44-.16.64-.07.15-.17.29-.24.4-.09.11-.18.2-.26.29-.11.13-.24.25-.37.35-.11.12-.24.23-.35.35-.04.04-.07.08-.1.12h1.48v.11c.01.77,0,.78-.01.81Z"/>
        <path d="m284.14,347.06l-.03.05h-2.95v-.16c.01-.05.01-.09.02-.11.01-.08.02-.14.05-.21.07-.24.18-.46.32-.66.08-.12.19-.24.28-.34.16-.17.32-.34.49-.5l.04-.04c.15-.14.28-.27.42-.41.02-.03.06-.06.09-.11.03-.03.06-.06.08-.11.09-.12.15-.23.17-.33v-.02c.01-.06.02-.11.02-.17,0,0,0-.02-.01-.04,0-.04,0-.06-.01-.11-.05-.13-.13-.21-.26-.25-.08-.03-.22-.03-.35.01-.1.04-.18.11-.22.21-.02.05-.03.12-.04.17s-.02.1-.02.13v.12h-.11c-.14-.02-.27-.03-.4-.04-.14-.01-.26-.03-.39-.04h-.09v-.14c.01-.11.02-.21.06-.31.03-.15.07-.27.14-.38.08-.16.21-.29.4-.41.13-.09.27-.15.45-.19.07-.02.15-.03.24-.04.11-.01.22-.01.33,0,.1,0,.23.02.33.04.19.05.34.13.48.24.17.13.29.29.39.5.04.09.07.18.08.31.01.1.02.18.01.27,0,.21-.05.44-.16.64-.07.15-.17.29-.24.4-.09.11-.18.2-.26.29-.11.13-.24.25-.37.35-.11.12-.24.23-.35.35-.04.04-.07.08-.1.12h1.48v.11c.01.77,0,.78-.01.81Z"/>
        <path d="m374.52,354.56l-.03.05h-2.95v-.16c.01-.05.01-.09.02-.11.01-.08.02-.14.05-.21.07-.24.18-.46.32-.66.08-.12.19-.24.28-.34.16-.17.32-.34.49-.5l.04-.04c.15-.14.28-.27.42-.41.02-.03.06-.06.09-.11.03-.03.06-.06.08-.11.09-.12.15-.23.17-.33v-.02c.01-.06.02-.11.02-.17,0,0,0-.02-.01-.04,0-.04,0-.06-.01-.11-.05-.13-.13-.21-.26-.25-.08-.03-.22-.03-.35.01-.1.04-.18.11-.22.21-.02.05-.03.12-.04.17s-.02.1-.02.13v.12h-.11c-.14-.02-.27-.03-.4-.04-.14-.01-.26-.03-.39-.04h-.09v-.14c.01-.11.02-.21.06-.31.03-.15.07-.27.14-.38.08-.16.21-.29.4-.41.13-.09.27-.15.45-.19.07-.02.15-.03.24-.04.11-.01.22-.01.33,0,.1,0,.23.02.33.04.19.05.34.13.48.24.17.13.29.29.39.5.04.09.07.18.08.31.01.1.02.18.01.27,0,.21-.05.44-.16.64-.07.15-.17.29-.24.4-.09.11-.18.2-.26.29-.11.13-.24.25-.37.35-.11.12-.24.23-.35.35-.04.04-.07.08-.1.12h1.48v.11c.01.77,0,.78-.01.81Z"/>
      </g>
      <g>
        <path d="m465.64,347.06l-.03.05h-2.95v-.16c.01-.05.01-.09.02-.11.01-.08.02-.14.05-.21.07-.24.18-.46.32-.66.08-.12.19-.24.28-.34.16-.17.32-.34.49-.5l.04-.04c.15-.14.28-.27.42-.41.02-.03.06-.06.09-.11.03-.03.06-.06.08-.11.09-.12.15-.23.17-.33v-.02c.01-.06.02-.11.02-.17,0,0,0-.02-.01-.04,0-.04,0-.06-.01-.11-.05-.13-.13-.21-.26-.25-.08-.03-.22-.03-.35.01-.1.04-.18.11-.22.21-.02.05-.03.12-.04.17s-.02.1-.02.13v.12h-.11c-.14-.02-.27-.03-.4-.04-.14-.01-.26-.03-.39-.04h-.09v-.14c.01-.11.02-.21.06-.31.03-.15.07-.27.14-.38.08-.16.21-.29.4-.41.13-.09.27-.15.45-.19.07-.02.15-.03.24-.04.11-.01.22-.01.33,0,.1,0,.23.02.33.04.19.05.34.13.48.24.17.13.29.29.39.5.04.09.07.18.08.31.01.1.02.18.01.27,0,.21-.05.44-.16.64-.07.15-.17.29-.24.4-.09.11-.18.2-.26.29-.11.13-.24.25-.37.35-.11.12-.24.23-.35.35-.04.04-.07.08-.1.12h1.48v.11c.01.77,0,.78-.01.81Z"/>
        <path d="m554.64,347.06l-.03.05h-2.95v-.16c.01-.05.01-.09.02-.11.01-.08.02-.14.05-.21.07-.24.18-.46.32-.66.08-.12.19-.24.28-.34.16-.17.32-.34.49-.5l.04-.04c.15-.14.28-.27.42-.41.02-.03.06-.06.09-.11.03-.03.06-.06.08-.11.09-.12.15-.23.17-.33v-.02c.01-.06.02-.11.02-.17,0,0,0-.02-.01-.04,0-.04,0-.06-.01-.11-.05-.13-.13-.21-.26-.25-.08-.03-.22-.03-.35.01-.1.04-.18.11-.22.21-.02.05-.03.12-.04.17s-.02.1-.02.13v.12h-.11c-.14-.02-.27-.03-.4-.04-.14-.01-.26-.03-.39-.04h-.09v-.14c.01-.11.02-.21.06-.31.03-.15.07-.27.14-.38.08-.16.21-.29.4-.41.13-.09.27-.15.45-.19.07-.02.15-.03.24-.04.11-.01.22-.01.33,0,.1,0,.23.02.33.04.19.05.34.13.48.24.17.13.29.29.39.5.04.09.07.18.08.31.01.1.02.18.01.27,0,.21-.05.44-.16.64-.07.15-.17.29-.24.4-.09.11-.18.2-.26.29-.11.13-.24.25-.37.35-.11.12-.24.23-.35.35-.04.04-.07.08-.1.12h1.48v.11c.01.77,0,.78-.01.81Z"/>
        <path d="m644.14,347.06l-.03.05h-2.95v-.16c.01-.05.01-.09.02-.11.01-.08.02-.14.05-.21.07-.24.18-.46.32-.66.08-.12.19-.24.28-.34.16-.17.32-.34.49-.5l.04-.04c.15-.14.28-.27.42-.41.02-.03.06-.06.09-.11.03-.03.06-.06.08-.11.09-.12.15-.23.17-.33v-.02c.01-.06.02-.11.02-.17,0,0,0-.02-.01-.04,0-.04,0-.06-.01-.11-.05-.13-.13-.21-.26-.25-.08-.03-.22-.03-.35.01-.1.04-.18.11-.22.21-.02.05-.03.12-.04.17s-.02.1-.02.13v.12h-.11c-.14-.02-.27-.03-.4-.04-.14-.01-.26-.03-.39-.04h-.09v-.14c.01-.11.02-.21.06-.31.03-.15.07-.27.14-.38.08-.16.21-.29.4-.41.13-.09.27-.15.45-.19.07-.02.15-.03.24-.04.11-.01.22-.01.33,0,.1,0,.23.02.33.04.19.05.34.13.48.24.17.13.29.29.39.5.04.09.07.18.08.31.01.1.02.18.01.27,0,.21-.05.44-.16.64-.07.15-.17.29-.24.4-.09.11-.18.2-.26.29-.11.13-.24.25-.37.35-.11.12-.24.23-.35.35-.04.04-.07.08-.1.12h1.48v.11c.01.77,0,.78-.01.81Z"/>
        <path d="m733.52,354.56l-.03.05h-2.95v-.16c.01-.05.01-.09.02-.11.01-.08.02-.14.05-.21.07-.24.18-.46.32-.66.08-.12.19-.24.28-.34.16-.17.32-.34.49-.5l.04-.04c.15-.14.28-.27.42-.41.02-.03.06-.06.09-.11.03-.03.06-.06.08-.11.09-.12.15-.23.17-.33v-.02c.01-.06.02-.11.02-.17,0,0,0-.02-.01-.04,0-.04,0-.06-.01-.11-.05-.13-.13-.21-.26-.25-.08-.03-.22-.03-.35.01-.1.04-.18.11-.22.21-.02.05-.03.12-.04.17s-.02.1-.02.13v.12h-.11c-.14-.02-.27-.03-.4-.04-.14-.01-.26-.03-.39-.04h-.09v-.14c.01-.11.02-.21.06-.31.03-.15.07-.27.14-.38.08-.16.21-.29.4-.41.13-.09.27-.15.45-.19.07-.02.15-.03.24-.04.11-.01.22-.01.33,0,.1,0,.23.02.33.04.19.05.34.13.48.24.17.13.29.29.39.5.04.09.07.18.08.31.01.1.02.18.01.27,0,.21-.05.44-.16.64-.07.15-.17.29-.24.4-.09.11-.18.2-.26.29-.11.13-.24.25-.37.35-.11.12-.24.23-.35.35-.04.04-.07.08-.1.12h1.48v.11c.01.77,0,.78-.01.81Z"/>
      </g>
    </g>
    <g>
      <g>
        <path d="m105.64,447.06l-.03.05h-2.95v-.16c.01-.05.01-.09.02-.11.01-.08.02-.14.05-.21.07-.24.18-.46.32-.66.08-.12.19-.24.28-.34.16-.17.32-.34.49-.5l.04-.04c.15-.14.28-.27.42-.41.02-.03.06-.06.09-.11.03-.03.06-.06.08-.11.09-.12.15-.23.17-.33v-.02c.01-.06.02-.11.02-.17,0,0,0-.02-.01-.04,0-.04,0-.06-.01-.11-.05-.13-.13-.21-.26-.25-.08-.03-.22-.03-.35.01-.1.04-.18.11-.22.21-.02.05-.03.12-.04.17s-.02.1-.02.13v.12h-.11c-.14-.02-.27-.03-.4-.04-.14-.01-.26-.03-.39-.04h-.09v-.14c.01-.11.02-.21.06-.31.03-.15.07-.27.14-.38.08-.16.21-.29.4-.41.13-.09.27-.15.45-.19.07-.02.15-.03.24-.04.11-.01.22-.01.33,0,.1,0,.23.02.33.04.19.05.34.13.48.24.17.13.29.29.39.5.04.09.07.18.08.31.01.1.02.18.01.27,0,.21-.05.44-.16.64-.07.15-.17.29-.24.4-.09.11-.18.2-.26.29-.11.13-.24.25-.37.35-.11.12-.24.23-.35.35-.04.04-.07.08-.1.12h1.48v.11c.01.77,0,.78-.01.81Z"/>
        <path d="m195.64,447.06l-.03.05h-2.95v-.16c.01-.05.01-.09.02-.11.01-.08.02-.14.05-.21.07-.24.18-.46.32-.66.08-.12.19-.24.28-.34.16-.17.32-.34.49-.5l.04-.04c.15-.14.28-.27.42-.41.02-.03.06-.06.09-.11.03-.03.06-.06.08-.11.09-.12.15-.23.17-.33v-.02c.01-.06.02-.11.02-.17,0,0,0-.02-.01-.04,0-.04,0-.06-.01-.11-.05-.13-.13-.21-.26-.25-.08-.03-.22-.03-.35.01-.1.04-.18.11-.22.21-.02.05-.03.12-.04.17s-.02.1-.02.13v.12h-.11c-.14-.02-.27-.03-.4-.04-.14-.01-.26-.03-.39-.04h-.09v-.14c.01-.11.02-.21.06-.31.03-.15.07-.27.14-.38.08-.16.21-.29.4-.41.13-.09.27-.15.45-.19.07-.02.15-.03.24-.04.11-.01.22-.01.33,0,.1,0,.23.02.33.04.19.05.34.13.48.24.17.13.29.29.39.5.04.09.07.18.08.31.01.1.02.18.01.27,0,.21-.05.44-.16.64-.07.15-.17.29-.24.4-.09.11-.18.2-.26.29-.11.13-.24.25-.37.35-.11.12-.24.23-.35.35-.04.04-.07.08-.1.12h1.48v.11c.01.77,0,.78-.01.81Z"/>
        <path d="m285.14,447.06l-.03.05h-2.95v-.16c.01-.05.01-.09.02-.11.01-.08.02-.14.05-.21.07-.24.18-.46.32-.66.08-.12.19-.24.28-.34.16-.17.32-.34.49-.5l.04-.04c.15-.14.28-.27.42-.41.02-.03.06-.06.09-.11.03-.03.06-.06.08-.11.09-.12.15-.23.17-.33v-.02c.01-.06.02-.11.02-.17,0,0,0-.02-.01-.04,0-.04,0-.06-.01-.11-.05-.13-.13-.21-.26-.25-.08-.03-.22-.03-.35.01-.1.04-.18.11-.22.21-.02.05-.03.12-.04.17s-.02.1-.02.13v.12h-.11c-.14-.02-.27-.03-.4-.04-.14-.01-.26-.03-.39-.04h-.09v-.14c.01-.11.02-.21.06-.31.03-.15.07-.27.14-.38.08-.16.21-.29.4-.41.13-.09.27-.15.45-.19.07-.02.15-.03.24-.04.11-.01.22-.01.33,0,.1,0,.23.02.33.04.19.05.34.13.48.24.17.13.29.29.39.5.04.09.07.18.08.31.01.1.02.18.01.27,0,.21-.05.44-.16.64-.07.15-.17.29-.24.4-.09.11-.18.2-.26.29-.11.13-.24.25-.37.35-.11.12-.24.23-.35.35-.04.04-.07.08-.1.12h1.48v.11c.01.77,0,.78-.01.81Z"/>
        <path d="m374.52,454.56l-.03.05h-2.95v-.16c.01-.05.01-.09.02-.11.01-.08.02-.14.05-.21.07-.24.18-.46.32-.66.08-.12.19-.24.28-.34.16-.17.32-.34.49-.5l.04-.04c.15-.14.28-.27.42-.41.02-.03.06-.06.09-.11.03-.03.06-.06.08-.11.09-.12.15-.23.17-.33v-.02c.01-.06.02-.11.02-.17,0,0,0-.02-.01-.04,0-.04,0-.06-.01-.11-.05-.13-.13-.21-.26-.25-.08-.03-.22-.03-.35.01-.1.04-.18.11-.22.21-.02.05-.03.12-.04.17s-.02.1-.02.13v.12h-.11c-.14-.02-.27-.03-.4-.04-.14-.01-.26-.03-.39-.04h-.09v-.14c.01-.11.02-.21.06-.31.03-.15.07-.27.14-.38.08-.16.21-.29.4-.41.13-.09.27-.15.45-.19.07-.02.15-.03.24-.04.11-.01.22-.01.33,0,.1,0,.23.02.33.04.19.05.34.13.48.24.17.13.29.29.39.5.04.09.07.18.08.31.01.1.02.18.01.27,0,.21-.05.44-.16.64-.07.15-.17.29-.24.4-.09.11-.18.2-.26.29-.11.13-.24.25-.37.35-.11.12-.24.23-.35.35-.04.04-.07.08-.1.12h1.48v.11c.01.77,0,.78-.01.81Z"/>
      </g>
      <g>
        <path d="m464.64,447.06l-.03.05h-2.95v-.16c.01-.05.01-.09.02-.11.01-.08.02-.14.05-.21.07-.24.18-.46.32-.66.08-.12.19-.24.28-.34.16-.17.32-.34.49-.5l.04-.04c.15-.14.28-.27.42-.41.02-.03.06-.06.09-.11.03-.03.06-.06.08-.11.09-.12.15-.23.17-.33v-.02c.01-.06.02-.11.02-.17,0,0,0-.02-.01-.04,0-.04,0-.06-.01-.11-.05-.13-.13-.21-.26-.25-.08-.03-.22-.03-.35.01-.1.04-.18.11-.22.21-.02.05-.03.12-.04.17s-.02.1-.02.13v.12h-.11c-.14-.02-.27-.03-.4-.04-.14-.01-.26-.03-.39-.04h-.09v-.14c.01-.11.02-.21.06-.31.03-.15.07-.27.14-.38.08-.16.21-.29.4-.41.13-.09.27-.15.45-.19.07-.02.15-.03.24-.04.11-.01.22-.01.33,0,.1,0,.23.02.33.04.19.05.34.13.48.24.17.13.29.29.39.5.04.09.07.18.08.31.01.1.02.18.01.27,0,.21-.05.44-.16.64-.07.15-.17.29-.24.4-.09.11-.18.2-.26.29-.11.13-.24.25-.37.35-.11.12-.24.23-.35.35-.04.04-.07.08-.1.12h1.48v.11c.01.77,0,.78-.01.81Z"/>
        <path d="m555.64,447.06l-.03.05h-2.95v-.16c.01-.05.01-.09.02-.11.01-.08.02-.14.05-.21.07-.24.18-.46.32-.66.08-.12.19-.24.28-.34.16-.17.32-.34.49-.5l.04-.04c.15-.14.28-.27.42-.41.02-.03.06-.06.09-.11.03-.03.06-.06.08-.11.09-.12.15-.23.17-.33v-.02c.01-.06.02-.11.02-.17,0,0,0-.02-.01-.04,0-.04,0-.06-.01-.11-.05-.13-.13-.21-.26-.25-.08-.03-.22-.03-.35.01-.1.04-.18.11-.22.21-.02.05-.03.12-.04.17s-.02.1-.02.13v.12h-.11c-.14-.02-.27-.03-.4-.04-.14-.01-.26-.03-.39-.04h-.09v-.14c.01-.11.02-.21.06-.31.03-.15.07-.27.14-.38.08-.16.21-.29.4-.41.13-.09.27-.15.45-.19.07-.02.15-.03.24-.04.11-.01.22-.01.33,0,.1,0,.23.02.33.04.19.05.34.13.48.24.17.13.29.29.39.5.04.09.07.18.08.31.01.1.02.18.01.27,0,.21-.05.44-.16.64-.07.15-.17.29-.24.4-.09.11-.18.2-.26.29-.11.13-.24.25-.37.35-.11.12-.24.23-.35.35-.04.04-.07.08-.1.12h1.48v.11c.01.77,0,.78-.01.81Z"/>
        <path d="m644.14,447.06l-.03.05h-2.95v-.16c.01-.05.01-.09.02-.11.01-.08.02-.14.05-.21.07-.24.18-.46.32-.66.08-.12.19-.24.28-.34.16-.17.32-.34.49-.5l.04-.04c.15-.14.28-.27.42-.41.02-.03.06-.06.09-.11.03-.03.06-.06.08-.11.09-.12.15-.23.17-.33v-.02c.01-.06.02-.11.02-.17,0,0,0-.02-.01-.04,0-.04,0-.06-.01-.11-.05-.13-.13-.21-.26-.25-.08-.03-.22-.03-.35.01-.1.04-.18.11-.22.21-.02.05-.03.12-.04.17s-.02.1-.02.13v.12h-.11c-.14-.02-.27-.03-.4-.04-.14-.01-.26-.03-.39-.04h-.09v-.14c.01-.11.02-.21.06-.31.03-.15.07-.27.14-.38.08-.16.21-.29.4-.41.13-.09.27-.15.45-.19.07-.02.15-.03.24-.04.11-.01.22-.01.33,0,.1,0,.23.02.33.04.19.05.34.13.48.24.17.13.29.29.39.5.04.09.07.18.08.31.01.1.02.18.01.27,0,.21-.05.44-.16.64-.07.15-.17.29-.24.4-.09.11-.18.2-.26.29-.11.13-.24.25-.37.35-.11.12-.24.23-.35.35-.04.04-.07.08-.1.12h1.48v.11c.01.77,0,.78-.01.81Z"/>
        <path d="m734.52,454.56l-.03.05h-2.95v-.16c.01-.05.01-.09.02-.11.01-.08.02-.14.05-.21.07-.24.18-.46.32-.66.08-.12.19-.24.28-.34.16-.17.32-.34.49-.5l.04-.04c.15-.14.28-.27.42-.41.02-.03.06-.06.09-.11.03-.03.06-.06.08-.11.09-.12.15-.23.17-.33v-.02c.01-.06.02-.11.02-.17,0,0,0-.02-.01-.04,0-.04,0-.06-.01-.11-.05-.13-.13-.21-.26-.25-.08-.03-.22-.03-.35.01-.1.04-.18.11-.22.21-.02.05-.03.12-.04.17s-.02.1-.02.13v.12h-.11c-.14-.02-.27-.03-.4-.04-.14-.01-.26-.03-.39-.04h-.09v-.14c.01-.11.02-.21.06-.31.03-.15.07-.27.14-.38.08-.16.21-.29.4-.41.13-.09.27-.15.45-.19.07-.02.15-.03.24-.04.11-.01.22-.01.33,0,.1,0,.23.02.33.04.19.05.34.13.48.24.17.13.29.29.39.5.04.09.07.18.08.31.01.1.02.18.01.27,0,.21-.05.44-.16.64-.07.15-.17.29-.24.4-.09.11-.18.2-.26.29-.11.13-.24.25-.37.35-.11.12-.24.23-.35.35-.04.04-.07.08-.1.12h1.48v.11c.01.77,0,.78-.01.81Z"/>
      </g>
    </g>
    <g>
      <g>
        <path d="m104.64,547.06l-.03.05h-2.95v-.16c.01-.05.01-.09.02-.11.01-.08.02-.14.05-.21.07-.24.18-.46.32-.66.08-.12.19-.24.28-.34.16-.17.32-.34.49-.5l.04-.04c.15-.14.28-.27.42-.41.02-.03.06-.06.09-.11.03-.03.06-.06.08-.11.09-.12.15-.23.17-.33v-.02c.01-.06.02-.11.02-.17,0,0,0-.02-.01-.04,0-.04,0-.06-.01-.11-.05-.13-.13-.21-.26-.25-.08-.03-.22-.03-.35.01-.1.04-.18.11-.22.21-.02.05-.03.12-.04.17s-.02.1-.02.13v.12h-.11c-.14-.02-.27-.03-.4-.04-.14-.01-.26-.03-.39-.04h-.09v-.14c.01-.11.02-.21.06-.31.03-.15.07-.27.14-.38.08-.16.21-.29.4-.41.13-.09.27-.15.45-.19.07-.02.15-.03.24-.04.11-.01.22-.01.33,0,.1,0,.23.02.33.04.19.05.34.13.48.24.17.13.29.29.39.5.04.09.07.18.08.31.01.1.02.18.01.27,0,.21-.05.44-.16.64-.07.15-.17.29-.24.4-.09.11-.18.2-.26.29-.11.13-.24.25-.37.35-.11.12-.24.23-.35.35-.04.04-.07.08-.1.12h1.48v.11c.01.77,0,.78-.01.81Z"/>
        <path d="m194.64,554.56l-.03.05h-2.95v-.16c.01-.05.01-.09.02-.11.01-.08.02-.14.05-.21.07-.24.18-.46.32-.66.08-.12.19-.24.28-.34.16-.17.32-.34.49-.5l.04-.04c.15-.14.28-.27.42-.41.02-.03.06-.06.09-.11.03-.03.06-.06.08-.11.09-.12.15-.23.17-.33v-.02c.01-.06.02-.11.02-.17,0,0,0-.02-.01-.04,0-.04,0-.06-.01-.11-.05-.13-.13-.21-.26-.25-.08-.03-.22-.03-.35.01-.1.04-.18.11-.22.21-.02.05-.03.12-.04.17s-.02.1-.02.13v.12h-.11c-.14-.02-.27-.03-.4-.04-.14-.01-.26-.03-.39-.04h-.09v-.14c.01-.11.02-.21.06-.31.03-.15.07-.27.14-.38.08-.16.21-.29.4-.41.13-.09.27-.15.45-.19.07-.02.15-.03.24-.04.11-.01.22-.01.33,0,.1,0,.23.02.33.04.19.05.34.13.48.24.17.13.29.29.39.5.04.09.07.18.08.31.01.1.02.18.01.27,0,.21-.05.44-.16.64-.07.15-.17.29-.24.4-.09.11-.18.2-.26.29-.11.13-.24.25-.37.35-.11.12-.24.23-.35.35-.04.04-.07.08-.1.12h1.48v.11c.01.77,0,.78-.01.81Z"/>
        <path d="m285.14,547.06l-.03.05h-2.95v-.16c.01-.05.01-.09.02-.11.01-.08.02-.14.05-.21.07-.24.18-.46.32-.66.08-.12.19-.24.28-.34.16-.17.32-.34.49-.5l.04-.04c.15-.14.28-.27.42-.41.02-.03.06-.06.09-.11.03-.03.06-.06.08-.11.09-.12.15-.23.17-.33v-.02c.01-.06.02-.11.02-.17,0,0,0-.02-.01-.04,0-.04,0-.06-.01-.11-.05-.13-.13-.21-.26-.25-.08-.03-.22-.03-.35.01-.1.04-.18.11-.22.21-.02.05-.03.12-.04.17s-.02.1-.02.13v.12h-.11c-.14-.02-.27-.03-.4-.04-.14-.01-.26-.03-.39-.04h-.09v-.14c.01-.11.02-.21.06-.31.03-.15.07-.27.14-.38.08-.16.21-.29.4-.41.13-.09.27-.15.45-.19.07-.02.15-.03.24-.04.11-.01.22-.01.33,0,.1,0,.23.02.33.04.19.05.34.13.48.24.17.13.29.29.39.5.04.09.07.18.08.31.01.1.02.18.01.27,0,.21-.05.44-.16.64-.07.15-.17.29-.24.4-.09.11-.18.2-.26.29-.11.13-.24.25-.37.35-.11.12-.24.23-.35.35-.04.04-.07.08-.1.12h1.48v.11c.01.77,0,.78-.01.81Z"/>
        <path d="m374.52,554.56l-.03.05h-2.95v-.16c.01-.05.01-.09.02-.11.01-.08.02-.14.05-.21.07-.24.18-.46.32-.66.08-.12.19-.24.28-.34.16-.17.32-.34.49-.5l.04-.04c.15-.14.28-.27.42-.41.02-.03.06-.06.09-.11.03-.03.06-.06.08-.11.09-.12.15-.23.17-.33v-.02c.01-.06.02-.11.02-.17,0,0,0-.02-.01-.04,0-.04,0-.06-.01-.11-.05-.13-.13-.21-.26-.25-.08-.03-.22-.03-.35.01-.1.04-.18.11-.22.21-.02.05-.03.12-.04.17s-.02.1-.02.13v.12h-.11c-.14-.02-.27-.03-.4-.04-.14-.01-.26-.03-.39-.04h-.09v-.14c.01-.11.02-.21.06-.31.03-.15.07-.27.14-.38.08-.16.21-.29.4-.41.13-.09.27-.15.45-.19.07-.02.15-.03.24-.04.11-.01.22-.01.33,0,.1,0,.23.02.33.04.19.05.34.13.48.24.17.13.29.29.39.5.04.09.07.18.08.31.01.1.02.18.01.27,0,.21-.05.44-.16.64-.07.15-.17.29-.24.4-.09.11-.18.2-.26.29-.11.13-.24.25-.37.35-.11.12-.24.23-.35.35-.04.04-.07.08-.1.12h1.48v.11c.01.77,0,.78-.01.81Z"/>
      </g>
      <g>
        <path d="m465.64,547.06l-.03.05h-2.95v-.16c.01-.05.01-.09.02-.11.01-.08.02-.14.05-.21.07-.24.18-.46.32-.66.08-.12.19-.24.28-.34.16-.17.32-.34.49-.5l.04-.04c.15-.14.28-.27.42-.41.02-.03.06-.06.09-.11.03-.03.06-.06.08-.11.09-.12.15-.23.17-.33v-.02c.01-.06.02-.11.02-.17,0,0,0-.02-.01-.04,0-.04,0-.06-.01-.11-.05-.13-.13-.21-.26-.25-.08-.03-.22-.03-.35.01-.1.04-.18.11-.22.21-.02.05-.03.12-.04.17s-.02.1-.02.13v.12h-.11c-.14-.02-.27-.03-.4-.04-.14-.01-.26-.03-.39-.04h-.09v-.14c.01-.11.02-.21.06-.31.03-.15.07-.27.14-.38.08-.16.21-.29.4-.41.13-.09.27-.15.45-.19.07-.02.15-.03.24-.04.11-.01.22-.01.33,0,.1,0,.23.02.33.04.19.05.34.13.48.24.17.13.29.29.39.5.04.09.07.18.08.31.01.1.02.18.01.27,0,.21-.05.44-.16.64-.07.15-.17.29-.24.4-.09.11-.18.2-.26.29-.11.13-.24.25-.37.35-.11.12-.24.23-.35.35-.04.04-.07.08-.1.12h1.48v.11c.01.77,0,.78-.01.81Z"/>
        <path d="m555.64,554.56l-.03.05h-2.95v-.16c.01-.05.01-.09.02-.11.01-.08.02-.14.05-.21.07-.24.18-.46.32-.66.08-.12.19-.24.28-.34.16-.17.32-.34.49-.5l.04-.04c.15-.14.28-.27.42-.41.02-.03.06-.06.09-.11.03-.03.06-.06.08-.11.09-.12.15-.23.17-.33v-.02c.01-.06.02-.11.02-.17,0,0,0-.02-.01-.04,0-.04,0-.06-.01-.11-.05-.13-.13-.21-.26-.25-.08-.03-.22-.03-.35.01-.1.04-.18.11-.22.21-.02.05-.03.12-.04.17s-.02.1-.02.13v.12h-.11c-.14-.02-.27-.03-.4-.04-.14-.01-.26-.03-.39-.04h-.09v-.14c.01-.11.02-.21.06-.31.03-.15.07-.27.14-.38.08-.16.21-.29.4-.41.13-.09.27-.15.45-.19.07-.02.15-.03.24-.04.11-.01.22-.01.33,0,.1,0,.23.02.33.04.19.05.34.13.48.24.17.13.29.29.39.5.04.09.07.18.08.31.01.1.02.18.01.27,0,.21-.05.44-.16.64-.07.15-.17.29-.24.4-.09.11-.18.2-.26.29-.11.13-.24.25-.37.35-.11.12-.24.23-.35.35-.04.04-.07.08-.1.12h1.48v.11c.01.77,0,.78-.01.81Z"/>
        <path d="m645.14,547.06l-.03.05h-2.95v-.16c.01-.05.01-.09.02-.11.01-.08.02-.14.05-.21.07-.24.18-.46.32-.66.08-.12.19-.24.28-.34.16-.17.32-.34.49-.5l.04-.04c.15-.14.28-.27.42-.41.02-.03.06-.06.09-.11.03-.03.06-.06.08-.11.09-.12.15-.23.17-.33v-.02c.01-.06.02-.11.02-.17,0,0,0-.02-.01-.04,0-.04,0-.06-.01-.11-.05-.13-.13-.21-.26-.25-.08-.03-.22-.03-.35.01-.1.04-.18.11-.22.21-.02.05-.03.12-.04.17s-.02.1-.02.13v.12h-.11c-.14-.02-.27-.03-.4-.04-.14-.01-.26-.03-.39-.04h-.09v-.14c.01-.11.02-.21.06-.31.03-.15.07-.27.14-.38.08-.16.21-.29.4-.41.13-.09.27-.15.45-.19.07-.02.15-.03.24-.04.11-.01.22-.01.33,0,.1,0,.23.02.33.04.19.05.34.13.48.24.17.13.29.29.39.5.04.09.07.18.08.31.01.1.02.18.01.27,0,.21-.05.44-.16.64-.07.15-.17.29-.24.4-.09.11-.18.2-.26.29-.11.13-.24.25-.37.35-.11.12-.24.23-.35.35-.04.04-.07.08-.1.12h1.48v.11c.01.77,0,.78-.01.81Z"/>
        <path d="m734.52,554.56l-.03.05h-2.95v-.16c.01-.05.01-.09.02-.11.01-.08.02-.14.05-.21.07-.24.18-.46.32-.66.08-.12.19-.24.28-.34.16-.17.32-.34.49-.5l.04-.04c.15-.14.28-.27.42-.41.02-.03.06-.06.09-.11.03-.03.06-.06.08-.11.09-.12.15-.23.17-.33v-.02c.01-.06.02-.11.02-.17,0,0,0-.02-.01-.04,0-.04,0-.06-.01-.11-.05-.13-.13-.21-.26-.25-.08-.03-.22-.03-.35.01-.1.04-.18.11-.22.21-.02.05-.03.12-.04.17s-.02.1-.02.13v.12h-.11c-.14-.02-.27-.03-.4-.04-.14-.01-.26-.03-.39-.04h-.09v-.14c.01-.11.02-.21.06-.31.03-.15.07-.27.14-.38.08-.16.21-.29.4-.41.13-.09.27-.15.45-.19.07-.02.15-.03.24-.04.11-.01.22-.01.33,0,.1,0,.23.02.33.04.19.05.34.13.48.24.17.13.29.29.39.5.04.09.07.18.08.31.01.1.02.18.01.27,0,.21-.05.44-.16.64-.07.15-.17.29-.24.4-.09.11-.18.2-.26.29-.11.13-.24.25-.37.35-.11.12-.24.23-.35.35-.04.04-.07.08-.1.12h1.48v.11c.01.77,0,.78-.01.81Z"/>
      </g>
    </g>
  </g>
  <text class="cls-9" transform="translate(289.17 121.71)"><tspan class="cls-6" x="0" y="0">Type 1</tspan><tspan class="cls-3" x="82.98" y="0" xml:space="preserve"> - </tspan><tspan class="cls-1" x="105.95" y="0">Dual</tspan><tspan class="cls-2" x="169.85" y="0">-</tspan><tspan class="cls-4" x="178.73" y="0">Shift</tspan><tspan class="cls-3" x="240.73" y="0" xml:space="preserve">    </tspan></text>
</svg>