<?xml version="1.0" encoding="UTF-8"?>
<svg id="Layer_1" data-name="Layer 1" xmlns="http://www.w3.org/2000/svg" viewBox="0 0 792 612">
  <defs>
    <style>
      .cls-1 {
        letter-spacing: 0em;
      }

      .cls-1, .cls-2, .cls-3, .cls-4, .cls-5 {
        font-family: Cambria-BoldItalic, Cambria;
        font-weight: 700;
      }

      .cls-1, .cls-3 {
        fill: #00a14b;
      }

      .cls-2 {
        letter-spacing: -.03em;
      }

      .cls-2, .cls-6, .cls-7, .cls-8, .cls-9, .cls-4, .cls-10 {
        fill: #231f20;
      }

      .cls-6 {
        stroke-width: .5px;
      }

      .cls-6, .cls-8 {
        stroke: #231f20;
        stroke-miterlimit: 10;
      }

      .cls-11 {
        fill: #2e3192;
      }

      .cls-7 {
        font-family: Cambria, Cambria;
      }

      .cls-7, .cls-12 {
        font-size: 30px;
      }

      .cls-12 {
        font-style: italic;
      }

      .cls-8 {
        stroke-width: 2px;
      }

      .cls-9 {
        font-family: Cambria-Italic, Cambria;
      }

      .cls-13 {
        fill: #ed1c24;
      }

      .cls-5 {
        fill: #7f3f98;
      }
    </style>
  </defs>
  <path class="cls-10" d="m166.3,160.41c1.45,0,1.45-2.25,0-2.25s-1.45,2.25,0,2.25h0Z"/>
  <rect class="cls-13" x="78" y="157.99" width="25.25" height="2.59" rx=".99" ry=".99"/>
  <rect class="cls-11" x="49.34" y="157.99" width="25.25" height="2.59" rx=".99" ry=".99"/>
  <rect class="cls-13" x="78" y="407.99" width="25.25" height="2.59" rx=".99" ry=".99"/>
  <rect class="cls-11" x="49.34" y="407.99" width="25.25" height="2.59" rx=".99" ry=".99"/>
  <rect class="cls-13" x="168" y="157.99" width="25.25" height="2.59" rx=".99" ry=".99"/>
  <rect class="cls-11" x="139.34" y="157.99" width="25.25" height="2.59" rx=".99" ry=".99"/>
  <rect class="cls-13" x="168" y="407.99" width="25.25" height="2.59" rx=".99" ry=".99"/>
  <rect class="cls-11" x="139.34" y="407.99" width="25.25" height="2.59" rx=".99" ry=".99"/>
  <path class="cls-13" d="m80.46,187.4c11.89,0,22.68-9.57,22.72-21.38l2.41,2.65s1.11-1.01.54-1.85c-.65-.95-3.93-4.08-3.93-4.08,0,0-3.32,2.66-4.21,3.8-.63.81.43,1.89.43,1.89l2.78-2.61c-.03,8.93-7.32,18.79-20.74,19.5-1.57.08-1.62,2.09,0,2.08Z"/>
  <path class="cls-13" d="m80.46,437.4c11.89,0,22.68-9.57,22.72-21.38l2.41,2.65s1.11-1.01.54-1.85c-.65-.95-3.93-4.08-3.93-4.08,0,0-3.32,2.66-4.21,3.8-.63.81.43,1.89.43,1.89l2.78-2.61c-.03,8.93-7.32,18.79-20.74,19.5-1.57.08-1.62,2.09,0,2.08Z"/>
  <path class="cls-13" d="m170.39,187.06c0-19.4,1.3-21.27,20.15-21.27l-2.72-2.66s1.04-1.1,1.87-.5c1.18.85,3.95,4.08,3.95,4.08,0,0-3.01,3.38-3.95,4.07-.82.6-1.87-.48-1.87-.48l2.72-2.56c-17.27,0-18.08,1-18.08,19.29,0,1.51-2.07,1.51-2.07.03Z"/>
  <path class="cls-13" d="m170.39,437.06c0-19.4,1.3-21.27,20.15-21.27l-2.72-2.66s1.04-1.1,1.87-.5c1.18.85,3.95,4.08,3.95,4.08,0,0-3.01,3.38-3.95,4.07-.82.6-1.87-.48-1.87-.48l2.72-2.56c-17.27,0-18.08,1-18.08,19.29,0,1.51-2.07,1.51-2.07.03Z"/>
  <path class="cls-13" d="m287.56,165.73c0,11.89-9.57,22.68-21.38,22.72l2.65,2.41s-1.01,1.11-1.85.54c-.95-.65-4.08-3.93-4.08-3.93,0,0,2.66-3.32,3.8-4.21.81-.63,1.89.43,1.89.43l-2.61,2.78c8.93-.03,18.79-7.32,19.5-20.74.08-1.57,2.09-1.62,2.08,0Z"/>
  <path class="cls-13" d="m289.06,414.4c0,11.89-9.57,22.68-21.38,22.72l2.65,2.41s-1.01,1.11-1.85.54c-.95-.65-4.08-3.93-4.08-3.93,0,0,2.66-3.32,3.8-4.21.81-.63,1.89.43,1.89.43l-2.61,2.78c8.93-.03,18.79-7.32,19.5-20.74.08-1.57,2.09-1.62,2.08,0Z"/>
  <path class="cls-13" d="m379.74,164.16c-19.4,0-21.27,1.3-21.27,20.15l-2.66-2.72s-1.1,1.04-.5,1.87c.85,1.18,4.08,3.95,4.08,3.95,0,0,3.38-3.01,4.07-3.95.6-.82-.48-1.87-.48-1.87l-2.56,2.72c0-17.27,1-18.08,19.29-18.08,1.51,0,1.51-2.07.03-2.07Z"/>
  <path class="cls-13" d="m379.74,414.16c-19.4,0-21.27,1.3-21.27,20.15l-2.66-2.72s-1.1,1.04-.5,1.87c.85,1.18,4.08,3.95,4.08,3.95,0,0,3.38-3.01,4.07-3.95.6-.82-.48-1.87-.48-1.87l-2.56,2.72c0-17.27,1-18.08,19.29-18.08,1.51,0,1.51-2.07.03-2.07Z"/>
  <path class="cls-11" d="m58.32,154.19l-2.69,1.44c1.61-4.18,5.39-4.4,6.72-4.4,4.34,0,8.03,3.62,8.03,7.96,0,4.61-3.54,8.05-8.16,8.05-3.46,0-6.22-2.19-7.25-5.53-.42-1.35-2.03-.94-1.63.45,1.21,4.03,4.7,6.79,8.89,6.79,5.55,0,9.85-4.2,9.85-9.75,0-5.27-3.99-9.56-9.73-9.56-1.33,0-6.66.34-8.19,5.53l-1.42-2.7s-1.1.55-.84,1.33c.37,1.08,2.06,3.79,2.23,4.07.29-.14,3.22-1.43,4.13-2.1.66-.5.06-1.58.06-1.58Z"/>
  <path class="cls-11" d="m58.26,412.8c-.91-.67-3.84-1.96-4.13-2.1-.16.28-1.86,2.99-2.23,4.07-.26.78.84,1.33.84,1.33l1.42-2.7c1.53,5.19,6.87,5.53,8.19,5.53,5.74,0,9.73-4.28,9.73-9.56,0-5.55-4.31-9.75-9.85-9.75-4.19,0-7.68,2.75-8.89,6.79-.4,1.39,1.21,1.8,1.63.45,1.03-3.34,3.8-5.53,7.25-5.53,4.61,0,8.16,3.44,8.16,8.05,0,4.34-3.69,7.96-8.03,7.96-1.32,0-5.1-.22-6.72-4.4l2.69,1.44s.6-1.08-.06-1.58Z"/>
  <path class="cls-11" d="m254.2,177.27c-.67.91-1.96,3.84-2.1,4.13.28.16,2.99,1.86,4.07,2.23.78.26,1.33-.84,1.33-.84l-2.7-1.42c5.19-1.53,5.53-6.87,5.53-8.19,0-5.74-4.28-9.73-9.56-9.73-5.55,0-9.75,4.31-9.75,9.85,0,4.19,2.75,7.68,6.79,8.89,1.39.4,1.8-1.21.45-1.63-3.34-1.03-5.53-3.8-5.53-7.25,0-4.61,3.44-8.16,8.05-8.16,4.34,0,7.96,3.69,7.96,8.03,0,1.32-.22,5.1-4.4,6.72l1.44-2.69s-1.08-.6-1.58.06Z"/>
  <path class="cls-11" d="m245.58,427.21l1.44,2.69c-4.18-1.61-4.4-5.39-4.4-6.72,0-4.34,3.62-8.03,7.96-8.03,4.61,0,8.05,3.54,8.05,8.16,0,3.46-2.19,6.22-5.53,7.25-1.35.42-.94,2.03.45,1.63,4.03-1.21,6.79-4.7,6.79-8.89,0-5.55-4.2-9.85-9.75-9.85-5.27,0-9.56,3.99-9.56,9.73,0,1.33.34,6.66,5.53,8.19l-2.7,1.42s.55,1.1,1.33.84c1.08-.37,3.79-2.06,4.07-2.23-.14-.29-1.43-3.22-2.1-4.13-.5-.66-1.58-.06-1.58-.06Z"/>
  <path class="cls-11" d="m337.16,177.27c.67.91,1.96,3.84,2.1,4.13-.28.16-2.99,1.86-4.07,2.23-.78.26-1.33-.84-1.33-.84l2.7-1.42c-5.19-1.53-5.53-6.87-5.53-8.19,0-5.74,4.28-9.73,9.56-9.73,5.55,0,9.75,4.31,9.75,9.85,0,4.19-2.75,7.68-6.79,8.89-1.39.4-1.8-1.21-.45-1.63,3.34-1.03,5.53-3.8,5.53-7.25,0-4.61-3.44-8.16-8.05-8.16-4.34,0-7.96,3.69-7.96,8.03,0,1.32.22,5.1,4.4,6.72l-1.44-2.69s1.08-.6,1.58.06Z"/>
  <path class="cls-11" d="m345.78,427.21l-1.44,2.69c4.18-1.61,4.4-5.39,4.4-6.72,0-4.34-3.62-8.03-7.96-8.03-4.61,0-8.05,3.54-8.05,8.16,0,3.46,2.19,6.22,5.53,7.25,1.35.42.94,2.03-.45,1.63-4.03-1.21-6.79-4.7-6.79-8.89,0-5.55,4.2-9.85,9.75-9.85,5.27,0,9.56,3.99,9.56,9.73,0,1.33-.34,6.66-5.53,8.19l2.7,1.42s-.55,1.1-1.33.84c-1.08-.37-3.79-2.06-4.07-2.23.14-.29,1.43-3.22,2.1-4.13.5-.66,1.58-.06,1.58-.06Z"/>
  <path class="cls-11" d="m148.32,164.38l-2.69-1.44c1.61,4.18,5.39,4.4,6.72,4.4,4.34,0,8.03-3.62,8.03-7.96,0-4.61-3.54-8.05-8.16-8.05-3.46,0-6.22,2.19-7.25,5.53-.42,1.35-2.03.94-1.63-.45,1.21-4.03,4.7-6.79,8.89-6.79,5.55,0,9.85,4.2,9.85,9.75,0,5.27-3.99,9.56-9.73,9.56-1.33,0-6.66-.34-8.19-5.53l-1.42,2.7s-1.1-.55-.84-1.33c.37-1.08,2.06-3.79,2.23-4.07.29.14,3.22,1.43,4.13,2.1.66.5.06,1.58.06,1.58Z"/>
  <path class="cls-11" d="m148.26,405.76c-.91.67-3.84,1.96-4.13,2.1-.16-.28-1.86-2.99-2.23-4.07-.26-.78.84-1.33.84-1.33l1.42,2.7c1.53-5.19,6.87-5.53,8.19-5.53,5.74,0,9.73,4.28,9.73,9.56,0,5.55-4.31,9.75-9.85,9.75-4.19,0-7.68-2.75-8.89-6.79-.4-1.39,1.21-1.8,1.63-.45,1.03,3.34,3.8,5.53,7.25,5.53,4.61,0,8.16-3.44,8.16-8.05,0-4.34-3.69-7.96-8.03-7.96-1.32,0-5.1.22-6.72,4.4l2.69-1.44s.6,1.08-.06,1.58Z"/>
  <rect class="cls-13" x="260.62" y="160.94" width="2.59" height="25.25" rx=".99" ry=".99"/>
  <rect class="cls-11" x="249.38" y="160.94" width="2.59" height="25.25" rx=".99" ry=".99"/>
  <rect class="cls-13" x="260.62" y="410.94" width="2.59" height="25.25" rx=".99" ry=".99"/>
  <rect class="cls-11" x="249.38" y="410.94" width="2.59" height="25.25" rx=".99" ry=".99"/>
  <rect class="cls-13" x="350.62" y="160.94" width="2.59" height="25.25" rx=".99" ry=".99"/>
  <rect class="cls-11" x="339.38" y="160.94" width="2.59" height="25.25" rx=".99" ry=".99"/>
  <rect class="cls-13" x="350.62" y="410.94" width="2.59" height="25.25" rx=".99" ry=".99"/>
  <rect class="cls-11" x="339.38" y="410.94" width="2.59" height="25.25" rx=".99" ry=".99"/>
  <rect class="cls-13" x="75" y="260.98" width="2.59" height="25.25" rx=".99" ry=".99"/>
  <rect class="cls-11" x="49.34" y="257.99" width="25.25" height="2.59" rx=".99" ry=".99"/>
  <rect class="cls-13" x="75" y="510.98" width="2.59" height="25.25" rx=".99" ry=".99"/>
  <rect class="cls-11" x="49.34" y="507.99" width="25.25" height="2.59" rx=".99" ry=".99"/>
  <rect class="cls-13" x="165" y="260.98" width="2.59" height="25.25" rx=".99" ry=".99"/>
  <rect class="cls-11" x="139.34" y="257.99" width="25.25" height="2.59" rx=".99" ry=".99"/>
  <rect class="cls-13" x="165" y="510.98" width="2.59" height="25.25" rx=".99" ry=".99"/>
  <rect class="cls-11" x="139.34" y="507.99" width="25.25" height="2.59" rx=".99" ry=".99"/>
  <rect class="cls-13" x="255" y="260.98" width="2.59" height="25.25" rx=".99" ry=".99"/>
  <rect class="cls-11" x="229.34" y="257.99" width="25.25" height="2.59" rx=".99" ry=".99"/>
  <rect class="cls-13" x="255" y="510.98" width="2.59" height="25.25" rx=".99" ry=".99"/>
  <rect class="cls-11" x="229.34" y="507.99" width="25.25" height="2.59" rx=".99" ry=".99"/>
  <rect class="cls-13" x="345" y="260.98" width="2.59" height="25.25" rx=".99" ry=".99"/>
  <rect class="cls-11" x="319.34" y="257.99" width="25.25" height="2.59" rx=".99" ry=".99"/>
  <rect class="cls-13" x="345" y="510.98" width="2.59" height="25.25" rx=".99" ry=".99"/>
  <rect class="cls-11" x="319.34" y="507.99" width="25.25" height="2.59" rx=".99" ry=".99"/>
  <path class="cls-13" d="m105.6,263.32c0,11.89-9.57,22.68-21.38,22.72l2.65,2.41s-1.01,1.11-1.85.54c-.95-.65-4.08-3.93-4.08-3.93,0,0,2.66-3.32,3.8-4.21.81-.63,1.89.43,1.89.43l-2.61,2.78c8.93-.03,18.79-7.32,19.5-20.74.08-1.57,2.09-1.62,2.08,0Z"/>
  <path class="cls-13" d="m105.6,513.32c0,11.89-9.57,22.68-21.38,22.72l2.65,2.41s-1.01,1.11-1.85.54c-.95-.65-4.08-3.93-4.08-3.93,0,0,2.66-3.32,3.8-4.21.81-.63,1.89.43,1.89.43l-2.61,2.78c8.93-.03,18.79-7.32,19.5-20.74.08-1.57,2.09-1.62,2.08,0Z"/>
  <path class="cls-13" d="m194.25,263.78c-19.4,0-21.27,1.3-21.27,20.15l-2.66-2.72s-1.1,1.04-.5,1.87c.85,1.18,4.08,3.95,4.08,3.95,0,0,3.38-3.01,4.07-3.95.6-.82-.48-1.87-.48-1.87l-2.56,2.72c0-17.27,1-18.08,19.29-18.08,1.51,0,1.51-2.07.03-2.07Z"/>
  <path class="cls-13" d="m194.25,513.78c-19.4,0-21.27,1.3-21.27,20.15l-2.66-2.72s-1.1,1.04-.5,1.87c.85,1.18,4.08,3.95,4.08,3.95,0,0,3.38-3.01,4.07-3.95.6-.82-.48-1.87-.48-1.87l-2.56,2.72c0-17.27,1-18.08,19.29-18.08,1.51,0,1.51-2.07.03-2.07Z"/>
  <path class="cls-13" d="m227.55,264.12c0,11.89,9.57,22.68,21.38,22.72l-2.65,2.41s1.01,1.11,1.85.54c.95-.65,4.08-3.93,4.08-3.93,0,0-2.66-3.32-3.8-4.21-.81-.63-1.89.43-1.89.43l2.61,2.78c-8.93-.03-18.79-7.32-19.5-20.74-.08-1.57-2.09-1.62-2.08,0Z"/>
  <path class="cls-13" d="m227.55,514.12c0,11.89,9.57,22.68,21.38,22.72l-2.65,2.41s1.01,1.11,1.85.54c.95-.65,4.08-3.93,4.08-3.93,0,0-2.66-3.32-3.8-4.21-.81-.63-1.89.43-1.89.43l2.61,2.78c-8.93-.03-18.79-7.32-19.5-20.74-.08-1.57-2.09-1.62-2.08,0Z"/>
  <path class="cls-13" d="m314.41,267.85c19.4,0,21.27,1.3,21.27,20.15l2.66-2.72s1.1,1.04.5,1.87c-.85,1.18-4.08,3.95-4.08,3.95,0,0-3.38-3.01-4.07-3.95-.6-.82.48-1.87.48-1.87l2.56,2.72c0-17.27-1-18.08-19.29-18.08-1.51,0-1.51-2.07-.03-2.07Z"/>
  <path class="cls-13" d="m314.07,517.37c19.4,0,21.27,1.3,21.27,20.15l2.66-2.72s1.1,1.04.5,1.87c-.85,1.18-4.08,3.95-4.08,3.95,0,0-3.38-3.01-4.07-3.95-.6-.82.48-1.87.48-1.87l2.56,2.72c0-17.27-1-18.08-19.29-18.08-1.51,0-1.51-2.07-.03-2.07Z"/>
  <path class="cls-11" d="m58.26,262.8c-.91-.67-3.84-1.96-4.13-2.1-.16.28-1.86,2.99-2.23,4.07-.26.78.84,1.33.84,1.33l1.42-2.7c1.53,5.19,6.87,5.53,8.19,5.53,5.74,0,9.73-4.28,9.73-9.56,0-5.55-4.31-9.75-9.85-9.75-4.19,0-7.68,2.75-8.89,6.79-.4,1.39,1.21,1.8,1.63.45,1.03-3.34,3.8-5.53,7.25-5.53,4.61,0,8.16,3.44,8.16,8.05,0,4.34-3.69,7.96-8.03,7.96-1.32,0-5.1-.22-6.72-4.4l2.69,1.44s.6-1.08-.06-1.58Z"/>
  <path class="cls-11" d="m58.32,504.19l-2.69,1.44c1.61-4.18,5.39-4.4,6.72-4.4,4.34,0,8.03,3.62,8.03,7.96,0,4.61-3.54,8.05-8.16,8.05-3.46,0-6.22-2.19-7.25-5.53-.42-1.35-2.03-.94-1.63.45,1.21,4.03,4.7,6.79,8.89,6.79,5.55,0,9.85-4.2,9.85-9.75,0-5.27-3.99-9.56-9.73-9.56-1.33,0-6.66.34-8.19,5.53l-1.42-2.7s-1.1.55-.84,1.33c.37,1.08,2.06,3.79,2.23,4.07.29-.14,3.22-1.43,4.13-2.1.66-.5.06-1.58.06-1.58Z"/>
  <path class="cls-11" d="m148.26,255.76c-.91.67-3.84,1.96-4.13,2.1-.16-.28-1.86-2.99-2.23-4.07-.26-.78.84-1.33.84-1.33l1.42,2.7c1.53-5.19,6.87-5.53,8.19-5.53,5.74,0,9.73,4.28,9.73,9.56,0,5.55-4.31,9.75-9.85,9.75-4.19,0-7.68-2.75-8.89-6.79-.4-1.39,1.21-1.8,1.63-.45,1.03,3.34,3.8,5.53,7.25,5.53,4.61,0,8.16-3.44,8.16-8.05,0-4.34-3.69-7.96-8.03-7.96-1.32,0-5.1.22-6.72,4.4l2.69-1.44s.6,1.08-.06,1.58Z"/>
  <path class="cls-11" d="m148.32,514.38l-2.69-1.44c1.61,4.18,5.39,4.4,6.72,4.4,4.34,0,8.03-3.62,8.03-7.96,0-4.61-3.54-8.05-8.16-8.05-3.46,0-6.22,2.19-7.25,5.53-.42,1.35-2.03.94-1.63-.45,1.21-4.03,4.7-6.79,8.89-6.79,5.55,0,9.85,4.2,9.85,9.75,0,5.27-3.99,9.56-9.73,9.56-1.33,0-6.66-.34-8.19-5.53l-1.42,2.7s-1.1-.55-.84-1.33c.37-1.08,2.06-3.79,2.23-4.07.29.14,3.22,1.43,4.13,2.1.66.5.06,1.58.06,1.58Z"/>
  <path class="cls-11" d="m238.32,254.19l-2.69,1.44c1.61-4.18,5.39-4.4,6.72-4.4,4.34,0,8.03,3.62,8.03,7.96,0,4.61-3.54,8.05-8.16,8.05-3.46,0-6.22-2.19-7.25-5.53-.42-1.35-2.03-.94-1.63.45,1.21,4.03,4.7,6.79,8.89,6.79,5.55,0,9.85-4.2,9.85-9.75,0-5.27-3.99-9.56-9.73-9.56-1.33,0-6.66.34-8.19,5.53l-1.42-2.7s-1.1.55-.84,1.33c.37,1.08,2.06,3.79,2.23,4.07.29-.14,3.22-1.43,4.13-2.1.66-.5.06-1.58.06-1.58Z"/>
  <path class="cls-11" d="m245.62,514.38l2.69-1.44c-1.61,4.18-5.39,4.4-6.72,4.4-4.34,0-8.03-3.62-8.03-7.96,0-4.61,3.54-8.05,8.16-8.05,3.46,0,6.22,2.19,7.25,5.53.42,1.35,2.03.94,1.63-.45-1.21-4.03-4.7-6.79-8.89-6.79-5.55,0-9.85,4.2-9.85,9.75,0,5.27,3.99,9.56,9.73,9.56,1.33,0,6.66-.34,8.19-5.53l1.42,2.7s1.1-.55.84-1.33c-.37-1.08-2.06-3.79-2.23-4.07-.29.14-3.22,1.43-4.13,2.1-.66.5-.06,1.58-.06,1.58Z"/>
  <path class="cls-11" d="m335.62,254.19l2.69,1.44c-1.61-4.18-5.39-4.4-6.72-4.4-4.34,0-8.03,3.62-8.03,7.96,0,4.61,3.54,8.05,8.16,8.05,3.46,0,6.22-2.19,7.25-5.53.42-1.35,2.03-.94,1.63.45-1.21,4.03-4.7,6.79-8.89,6.79-5.55,0-9.85-4.2-9.85-9.75s3.99-9.56,9.73-9.56c1.33,0,6.66.34,8.19,5.53l1.42-2.7s1.1.55.84,1.33c-.37,1.08-2.06,3.79-2.23,4.07-.29-.14-3.22-1.43-4.13-2.1-.66-.5-.06-1.58-.06-1.58Z"/>
  <path class="cls-11" d="m335.62,504.19l2.69,1.44c-1.61-4.18-5.39-4.4-6.72-4.4-4.34,0-8.03,3.62-8.03,7.96,0,4.61,3.54,8.05,8.16,8.05,3.46,0,6.22-2.19,7.25-5.53.42-1.35,2.03-.94,1.63.45-1.21,4.03-4.7,6.79-8.89,6.79-5.55,0-9.85-4.2-9.85-9.75,0-5.27,3.99-9.56,9.73-9.56,1.33,0,6.66.34,8.19,5.53l1.42-2.7s1.1.55.84,1.33c-.37,1.08-2.06,3.79-2.23,4.07-.29-.14-3.22-1.43-4.13-2.1-.66-.5-.06-1.58-.06-1.58Z"/>
  <g>
    <path class="cls-10" d="m76.3,160.41c1.45,0,1.45-2.25,0-2.25s-1.45,2.25,0,2.25h0Z"/>
    <circle class="cls-10" cx="76.3" cy="129.28" r="2.5"/>
    <circle class="cls-10" cx="106.3" cy="159.28" r="2.5"/>
    <circle class="cls-10" cx="76.3" cy="189.28" r="2.5"/>
    <circle class="cls-10" cx="46.3" cy="159.28" r="2.5"/>
  </g>
  <g>
    <path class="cls-10" d="m76.3,410.41c1.45,0,1.45-2.25,0-2.25s-1.45,2.25,0,2.25h0Z"/>
    <circle class="cls-10" cx="76.3" cy="379.28" r="2.5"/>
    <circle class="cls-10" cx="106.3" cy="409.28" r="2.5"/>
    <circle class="cls-10" cx="76.3" cy="439.28" r="2.5"/>
    <circle class="cls-10" cx="46.3" cy="409.28" r="2.5"/>
  </g>
  <g>
    <path class="cls-10" d="m76.3,260.41c1.45,0,1.45-2.25,0-2.25s-1.45,2.25,0,2.25h0Z"/>
    <circle class="cls-10" cx="76.3" cy="289.28" r="2.5"/>
    <circle class="cls-10" cx="106.3" cy="259.28" r="2.5"/>
    <circle class="cls-10" cx="76.3" cy="229.28" r="2.5"/>
    <circle class="cls-10" cx="46.3" cy="259.28" r="2.5"/>
  </g>
  <g>
    <path class="cls-10" d="m76.3,510.41c1.45,0,1.45-2.25,0-2.25s-1.45,2.25,0,2.25h0Z"/>
    <circle class="cls-10" cx="76.3" cy="539.28" r="2.5"/>
    <circle class="cls-10" cx="106.3" cy="509.28" r="2.5"/>
    <circle class="cls-10" cx="76.3" cy="479.28" r="2.5"/>
    <circle class="cls-10" cx="46.3" cy="509.28" r="2.5"/>
  </g>
  <g>
    <path class="cls-10" d="m166.3,160.41c1.45,0,1.45-2.25,0-2.25s-1.45,2.25,0,2.25h0Z"/>
    <circle class="cls-10" cx="166.3" cy="129.28" r="2.5"/>
    <circle class="cls-10" cx="196.3" cy="159.28" r="2.5"/>
    <circle class="cls-10" cx="166.3" cy="189.28" r="2.5"/>
    <circle class="cls-10" cx="136.3" cy="159.28" r="2.5"/>
  </g>
  <g>
    <path class="cls-10" d="m166.3,410.41c1.45,0,1.45-2.25,0-2.25s-1.45,2.25,0,2.25h0Z"/>
    <circle class="cls-10" cx="166.3" cy="379.28" r="2.5"/>
    <circle class="cls-10" cx="196.3" cy="409.28" r="2.5"/>
    <circle class="cls-10" cx="166.3" cy="439.28" r="2.5"/>
    <circle class="cls-10" cx="136.3" cy="409.28" r="2.5"/>
  </g>
  <g>
    <path class="cls-10" d="m166.3,260.41c1.45,0,1.45-2.25,0-2.25s-1.45,2.25,0,2.25h0Z"/>
    <circle class="cls-10" cx="166.3" cy="289.28" r="2.5"/>
    <circle class="cls-10" cx="196.3" cy="259.28" r="2.5"/>
    <circle class="cls-10" cx="166.3" cy="229.28" r="2.5"/>
    <circle class="cls-10" cx="136.3" cy="259.28" r="2.5"/>
  </g>
  <g>
    <path class="cls-10" d="m166.3,510.41c1.45,0,1.45-2.25,0-2.25s-1.45,2.25,0,2.25h0Z"/>
    <circle class="cls-10" cx="166.3" cy="539.28" r="2.5"/>
    <circle class="cls-10" cx="196.3" cy="509.28" r="2.5"/>
    <circle class="cls-10" cx="166.3" cy="479.28" r="2.5"/>
    <circle class="cls-10" cx="136.3" cy="509.28" r="2.5"/>
  </g>
  <g>
    <path class="cls-10" d="m256.3,160.41c1.45,0,1.45-2.25,0-2.25s-1.45,2.25,0,2.25h0Z"/>
    <circle class="cls-10" cx="256.3" cy="189.28" r="2.5"/>
    <circle class="cls-10" cx="286.3" cy="159.28" r="2.5"/>
    <circle class="cls-10" cx="256.3" cy="129.28" r="2.5"/>
    <circle class="cls-10" cx="226.3" cy="159.28" r="2.5"/>
  </g>
  <g>
    <path class="cls-10" d="m256.3,410.41c1.45,0,1.45-2.25,0-2.25s-1.45,2.25,0,2.25h0Z"/>
    <circle class="cls-10" cx="256.3" cy="439.28" r="2.5"/>
    <circle class="cls-10" cx="286.3" cy="409.28" r="2.5"/>
    <circle class="cls-10" cx="256.3" cy="379.28" r="2.5"/>
    <circle class="cls-10" cx="226.3" cy="409.28" r="2.5"/>
  </g>
  <g>
    <path class="cls-10" d="m256.3,260.41c1.45,0,1.45-2.25,0-2.25s-1.45,2.25,0,2.25h0Z"/>
    <circle class="cls-10" cx="256.3" cy="289.28" r="2.5"/>
    <circle class="cls-10" cx="286.3" cy="259.28" r="2.5"/>
    <circle class="cls-10" cx="256.3" cy="229.28" r="2.5"/>
    <circle class="cls-10" cx="226.3" cy="259.28" r="2.5"/>
  </g>
  <g>
    <path class="cls-10" d="m256.3,510.41c1.45,0,1.45-2.25,0-2.25s-1.45,2.25,0,2.25h0Z"/>
    <circle class="cls-10" cx="256.3" cy="539.28" r="2.5"/>
    <circle class="cls-10" cx="286.3" cy="509.28" r="2.5"/>
    <circle class="cls-10" cx="256.3" cy="479.28" r="2.5"/>
    <circle class="cls-10" cx="226.3" cy="509.28" r="2.5"/>
  </g>
  <g>
    <path class="cls-10" d="m346.3,160.41c1.45,0,1.45-2.25,0-2.25s-1.45,2.25,0,2.25h0Z"/>
    <circle class="cls-10" cx="346.3" cy="189.28" r="2.5"/>
    <circle class="cls-10" cx="376.3" cy="159.28" r="2.5"/>
    <circle class="cls-10" cx="346.3" cy="129.28" r="2.5"/>
    <circle class="cls-10" cx="316.3" cy="159.28" r="2.5"/>
  </g>
  <g>
    <path class="cls-10" d="m346.3,410.41c1.45,0,1.45-2.25,0-2.25s-1.45,2.25,0,2.25h0Z"/>
    <circle class="cls-10" cx="346.3" cy="439.28" r="2.5"/>
    <circle class="cls-10" cx="376.3" cy="409.28" r="2.5"/>
    <circle class="cls-10" cx="346.3" cy="379.28" r="2.5"/>
    <circle class="cls-10" cx="316.3" cy="409.28" r="2.5"/>
  </g>
  <g>
    <path class="cls-10" d="m346.3,260.41c1.45,0,1.45-2.25,0-2.25s-1.45,2.25,0,2.25h0Z"/>
    <circle class="cls-10" cx="346.3" cy="289.28" r="2.5"/>
    <circle class="cls-10" cx="376.3" cy="259.28" r="2.5"/>
    <circle class="cls-10" cx="346.3" cy="229.28" r="2.5"/>
    <circle class="cls-10" cx="316.3" cy="259.28" r="2.5"/>
  </g>
  <g>
    <path class="cls-10" d="m346.3,510.41c1.45,0,1.45-2.25,0-2.25s-1.45,2.25,0,2.25h0Z"/>
    <circle class="cls-10" cx="346.3" cy="539.28" r="2.5"/>
    <circle class="cls-10" cx="376.3" cy="509.28" r="2.5"/>
    <circle class="cls-10" cx="346.3" cy="479.28" r="2.5"/>
    <circle class="cls-10" cx="316.3" cy="509.28" r="2.5"/>
  </g>
  <g>
    <rect class="cls-13" x="438" y="158.09" width="25.25" height="2.59" rx=".99" ry=".99"/>
    <rect class="cls-11" x="409.34" y="158.09" width="25.25" height="2.59" rx=".99" ry=".99"/>
  </g>
  <g>
    <rect class="cls-13" x="438" y="408.09" width="25.25" height="2.59" rx=".99" ry=".99"/>
    <rect class="cls-11" x="409.34" y="408.09" width="25.25" height="2.59" rx=".99" ry=".99"/>
  </g>
  <g>
    <rect class="cls-13" x="528" y="158.09" width="25.25" height="2.59" rx=".99" ry=".99"/>
    <rect class="cls-11" x="499.34" y="158.09" width="25.25" height="2.59" rx=".99" ry=".99"/>
  </g>
  <g>
    <rect class="cls-13" x="528" y="408.09" width="25.25" height="2.59" rx=".99" ry=".99"/>
    <rect class="cls-11" x="499.34" y="408.09" width="25.25" height="2.59" rx=".99" ry=".99"/>
  </g>
  <g>
    <rect class="cls-11" x="613.01" y="160.8" width="2.59" height="25.25" rx=".99" ry=".99"/>
    <rect class="cls-13" x="616.98" y="160.8" width="2.59" height="25.25" rx=".99" ry=".99"/>
  </g>
  <g>
    <rect class="cls-11" x="613.01" y="410.8" width="2.59" height="25.25" rx=".99" ry=".99"/>
    <rect class="cls-13" x="616.98" y="410.8" width="2.59" height="25.25" rx=".99" ry=".99"/>
  </g>
  <g>
    <rect class="cls-11" x="703.01" y="160.8" width="2.59" height="25.25" rx=".99" ry=".99"/>
    <rect class="cls-13" x="706.98" y="160.8" width="2.59" height="25.25" rx=".99" ry=".99"/>
  </g>
  <g>
    <rect class="cls-11" x="703.01" y="410.8" width="2.59" height="25.25" rx=".99" ry=".99"/>
    <rect class="cls-13" x="706.98" y="410.8" width="2.59" height="25.25" rx=".99" ry=".99"/>
  </g>
  <path class="cls-13" d="m440.38,187.5c11.89,0,22.68-9.57,22.72-21.38l2.41,2.65s1.11-1.01.54-1.85c-.65-.95-3.93-4.08-3.93-4.08,0,0-3.32,2.66-4.21,3.8-.63.81.43,1.89.43,1.89l2.78-2.61c-.03,8.93-7.32,18.79-20.74,19.5-1.57.08-1.62,2.09,0,2.08Z"/>
  <path class="cls-13" d="m441.95,439.38c11.89,0,22.68-9.57,22.72-21.38l2.41,2.65s1.11-1.01.54-1.85c-.65-.95-3.93-4.08-3.93-4.08,0,0-3.32,2.66-4.21,3.8-.63.81.43,1.89.43,1.89l2.78-2.61c-.03,8.93-7.32,18.79-20.74,19.5-1.57.08-1.62,2.09,0,2.08Z"/>
  <path class="cls-13" d="m533.64,190.49c0-19.4,1.3-21.27,20.15-21.27l-2.72-2.66s1.04-1.1,1.87-.5c1.18.85,3.95,4.08,3.95,4.08,0,0-3.01,3.38-3.95,4.07-.82.6-1.87-.48-1.87-.48l2.72-2.56c-17.27,0-18.08,1-18.08,19.29,0,1.51-2.07,1.51-2.07.03Z"/>
  <path class="cls-13" d="m530.31,437.16c0-19.4,1.3-21.27,20.15-21.27l-2.72-2.66s1.04-1.1,1.87-.5c1.18.85,3.95,4.08,3.95,4.08,0,0-3.01,3.38-3.95,4.07-.82.6-1.87-.48-1.87-.48l2.72-2.56c-17.27,0-18.08,1-18.08,19.29,0,1.51-2.07,1.51-2.07.03Z"/>
  <path class="cls-13" d="m645.84,164.57c0,11.89-9.57,22.68-21.38,22.72l2.65,2.41s-1.01,1.11-1.85.54c-.95-.65-4.08-3.93-4.08-3.93,0,0,2.66-3.32,3.8-4.21.81-.63,1.89.43,1.89.43l-2.61,2.78c8.93-.03,18.79-7.32,19.5-20.74.08-1.57,2.09-1.62,2.08,0Z"/>
  <path class="cls-13" d="m645.84,414.57c0,11.89-9.57,22.68-21.38,22.72l2.65,2.41s-1.01,1.11-1.85.54c-.95-.65-4.08-3.93-4.08-3.93,0,0,2.66-3.32,3.8-4.21.81-.63,1.89.43,1.89.43l-2.61,2.78c8.93-.03,18.79-7.32,19.5-20.74.08-1.57,2.09-1.62,2.08,0Z"/>
  <path class="cls-13" d="m735.78,164.06c-19.4,0-21.27,1.3-21.27,20.15l-2.66-2.72s-1.1,1.04-.5,1.87c.85,1.18,4.08,3.95,4.08,3.95,0,0,3.38-3.01,4.07-3.95.6-.82-.48-1.87-.48-1.87l-2.56,2.72c0-17.27,1-18.08,19.29-18.08,1.51,0,1.51-2.07.03-2.07Z"/>
  <path class="cls-13" d="m737.73,416c-19.4,0-21.27,1.3-21.27,20.15l-2.66-2.72s-1.1,1.04-.5,1.87c.85,1.18,4.08,3.95,4.08,3.95,0,0,3.38-3.01,4.07-3.95.6-.82-.48-1.87-.48-1.87l-2.56,2.72c0-17.27,1-18.08,19.29-18.08,1.51,0,1.51-2.07.03-2.07Z"/>
  <path class="cls-11" d="m426.49,154.75s-.03,1.52.97,1.68c1.44.23,5.68-.1,5.68-.1,0,0,.26-4.52.08-5.66-.15-1.01-1.66-.99-1.66-.99,0,0,.01,3.82,0,3.83-9.48-8.46,7.89-10.68,29.48,2.72,1.56.97,2.88-.82,1.5-1.64-27.48-16.29-44.12-9.59-32.35.08l-3.7.08Z"/>
  <path class="cls-11" d="m426.49,414.02s-.03-1.52.97-1.68c1.44-.23,5.68.1,5.68.1,0,0,.26,4.52.08,5.66-.15,1.01-1.66.99-1.66.99,0,0,.01-3.82,0-3.83-9.48,8.46,7.89,10.68,29.48-2.72,1.56-.97,2.88.82,1.5,1.64-27.48,16.29-44.12,9.59-32.35-.08l-3.7-.08Z"/>
  <path class="cls-11" d="m622.15,168.36s-1.52.03-1.68-.97c-.23-1.44.1-5.68.1-5.68,0,0,4.52-.26,5.66-.08,1.01.15.99,1.66.99,1.66,0,0-3.82-.01-3.83,0,8.46,9.48,10.68-7.89-2.72-29.48-.97-1.56.82-2.88,1.64-1.5,16.29,27.48,9.59,44.12-.08,32.35l-.08,3.7Z"/>
  <path class="cls-11" d="m610.16,418.7s1.52.03,1.68-.97c.23-1.44-.1-5.68-.1-5.68,0,0-4.52-.26-5.66-.08-1.01.15-.99,1.66-.99,1.66,0,0,3.82-.01,3.83,0-8.46,9.48-10.68-7.89,2.72-29.48.97-1.56-.82-2.88-1.64-1.5-16.29,27.48-9.59,44.12.08,32.35l.08,3.7Z"/>
  <path class="cls-11" d="m516.49,163.72s-.03-1.52.97-1.68c1.44-.23,5.68.1,5.68.1,0,0,.26,4.52.08,5.66-.15,1.01-1.66.99-1.66.99,0,0,.01-3.82,0-3.83-9.48,8.46,7.89,10.68,29.48-2.72,1.56-.97,2.88.82,1.5,1.64-27.48,16.29-44.12,9.59-32.35-.08l-3.7-.08Z"/>
  <path class="cls-11" d="m516.49,405.31s-.03,1.52.97,1.68c1.44.23,5.68-.1,5.68-.1,0,0,.26-4.52.08-5.66-.15-1.01-1.66-.99-1.66-.99,0,0,.01,3.82,0,3.83-9.48-8.46,7.89-10.68,29.48,2.72,1.56.97,2.88-.82,1.5-1.64-27.48-16.29-44.12-9.59-32.35.08l-3.7.08Z"/>
  <path class="cls-11" d="m699.93,168.63s1.52.03,1.68-.97c.23-1.44-.1-5.68-.1-5.68,0,0-4.52-.26-5.66-.08-1.01.15-.99,1.66-.99,1.66,0,0,3.82-.01,3.83,0-8.46,9.48-10.68-7.89,2.72-29.48.97-1.56-.82-2.88-1.64-1.5-16.29,27.48-9.59,44.12.08,32.35l.08,3.7Z"/>
  <path class="cls-11" d="m713.09,418.63s-1.52.03-1.68-.97c-.23-1.44.1-5.68.1-5.68,0,0,4.52-.26,5.66-.08,1.01.15.99,1.66.99,1.66,0,0-3.82-.01-3.83,0,8.46,9.48,10.68-7.89-2.72-29.48-.97-1.56.82-2.88,1.64-1.5,16.29,27.48,9.59,44.12-.08,32.35l-.08,3.7Z"/>
  <path class="cls-11" d="m607.46,254.84s-.03,1.52.97,1.68c1.44.23,5.68-.1,5.68-.1,0,0,.26-4.52.08-5.66-.15-1.01-1.66-.99-1.66-.99,0,0,.01,3.82,0,3.83-9.48-8.46,7.89-10.68,29.48,2.72,1.56.97,2.88-.82,1.5-1.64-27.48-16.29-44.12-9.59-32.35.08l-3.7.08Z"/>
  <path class="cls-11" d="m606.4,513.82s-.03-1.52.97-1.68c1.44-.23,5.68.1,5.68.1,0,0,.26,4.52.08,5.66-.15,1.01-1.66.99-1.66.99,0,0,.01-3.82,0-3.83-9.48,8.46,7.89,10.68,29.48-2.72,1.56-.97,2.88.82,1.5,1.64-27.48,16.29-44.12,9.59-32.35-.08l-3.7-.08Z"/>
  <path class="cls-11" d="m696.4,263.52s-.03-1.52.97-1.68c1.44-.23,5.68.1,5.68.1,0,0,.26,4.52.08,5.66-.15,1.01-1.66.99-1.66.99,0,0,.01-3.82,0-3.83-9.48,8.46,7.89,10.68,29.48-2.72,1.56-.97,2.88.82,1.5,1.64-27.48,16.29-44.12,9.59-32.35-.08l-3.7-.08Z"/>
  <path class="cls-11" d="m696.4,505.11s-.03,1.52.97,1.68c1.44.23,5.68-.1,5.68-.1,0,0,.26-4.52.08-5.66-.15-1.01-1.66-.99-1.66-.99,0,0,.01,3.82,0,3.83-9.48-8.46,7.89-10.68,29.48,2.72,1.56.97,2.88-.82,1.5-1.64-27.48-16.29-44.12-9.59-32.35.08l-3.7.08Z"/>
  <path class="cls-11" d="m426.4,263.82s-.03-1.52.97-1.68c1.44-.23,5.68.1,5.68.1,0,0,.26,4.52.08,5.66-.15,1.01-1.66.99-1.66.99,0,0,.01-3.82,0-3.83-9.48,8.46,7.89,10.68,29.48-2.72,1.56-.97,2.88.82,1.5,1.64-27.48,16.29-44.12,9.59-32.35-.08l-3.7-.08Z"/>
  <path class="cls-11" d="m426.4,504.55s-.03,1.52.97,1.68c1.44.23,5.68-.1,5.68-.1,0,0,.26-4.52.08-5.66-.15-1.01-1.66-.99-1.66-.99,0,0,.01,3.82,0,3.83-9.48-8.46,7.89-10.68,29.48,2.72,1.56.97,2.88-.82,1.5-1.64-27.48-16.29-44.12-9.59-32.35.08l-3.7.08Z"/>
  <path class="cls-11" d="m516.4,254.84s-.03,1.52.97,1.68c1.44.23,5.68-.1,5.68-.1,0,0,.26-4.52.08-5.66-.15-1.01-1.66-.99-1.66-.99,0,0,.01,3.82,0,3.83-9.48-8.46,7.89-10.68,29.48,2.72,1.56.97,2.88-.82,1.5-1.64-27.48-16.29-44.12-9.59-32.35.08l-3.7.08Z"/>
  <path class="cls-11" d="m516.4,513.26s-.03-1.52.97-1.68c1.44-.23,5.68.1,5.68.1,0,0,.26,4.52.08,5.66-.15,1.01-1.66.99-1.66.99,0,0,.01-3.82,0-3.83-9.48,8.46,7.89,10.68,29.48-2.72,1.56-.97,2.88.82,1.5,1.64-27.48,16.29-44.12,9.59-32.35-.08l-3.7-.08Z"/>
  <g>
    <rect class="cls-13" x="435" y="260.88" width="2.59" height="25.25" rx=".99" ry=".99"/>
    <rect class="cls-11" x="409.34" y="257.89" width="25.25" height="2.59" rx=".99" ry=".99"/>
  </g>
  <g>
    <rect class="cls-13" x="435" y="510.88" width="2.59" height="25.25" rx=".99" ry=".99"/>
    <rect class="cls-11" x="409.34" y="507.89" width="25.25" height="2.59" rx=".99" ry=".99"/>
  </g>
  <g>
    <rect class="cls-13" x="525" y="260.88" width="2.59" height="25.25" rx=".99" ry=".99"/>
    <rect class="cls-11" x="499.34" y="257.89" width="25.25" height="2.59" rx=".99" ry=".99"/>
  </g>
  <g>
    <rect class="cls-13" x="525" y="510.88" width="2.59" height="25.25" rx=".99" ry=".99"/>
    <rect class="cls-11" x="499.34" y="507.89" width="25.25" height="2.59" rx=".99" ry=".99"/>
  </g>
  <g>
    <rect class="cls-13" x="615" y="260.88" width="2.59" height="25.25" rx=".99" ry=".99"/>
    <rect class="cls-11" x="589.34" y="257.89" width="25.25" height="2.59" rx=".99" ry=".99"/>
  </g>
  <g>
    <rect class="cls-13" x="615" y="510.88" width="2.59" height="25.25" rx=".99" ry=".99"/>
    <rect class="cls-11" x="589.34" y="507.89" width="25.25" height="2.59" rx=".99" ry=".99"/>
  </g>
  <g>
    <rect class="cls-13" x="705" y="260.88" width="2.59" height="25.25" rx=".99" ry=".99"/>
    <rect class="cls-11" x="679.34" y="257.89" width="25.25" height="2.59" rx=".99" ry=".99"/>
  </g>
  <g>
    <rect class="cls-13" x="705" y="510.88" width="2.59" height="25.25" rx=".99" ry=".99"/>
    <rect class="cls-11" x="679.34" y="507.89" width="25.25" height="2.59" rx=".99" ry=".99"/>
  </g>
  <path class="cls-13" d="m465.13,263.93c0,11.89-9.57,22.68-21.38,22.72l2.65,2.41s-1.01,1.11-1.85.54c-.95-.65-4.08-3.93-4.08-3.93,0,0,2.66-3.32,3.8-4.21.81-.63,1.89.43,1.89.43l-2.61,2.78c8.93-.03,18.79-7.32,19.5-20.74.08-1.57,2.09-1.62,2.08,0Z"/>
  <path class="cls-13" d="m465.13,513.93c0,11.89-9.57,22.68-21.38,22.72l2.65,2.41s-1.01,1.11-1.85.54c-.95-.65-4.08-3.93-4.08-3.93,0,0,2.66-3.32,3.8-4.21.81-.63,1.89.43,1.89.43l-2.61,2.78c8.93-.03,18.79-7.32,19.5-20.74.08-1.57,2.09-1.62,2.08,0Z"/>
  <path class="cls-13" d="m554.08,263.76c-19.4,0-21.27,1.3-21.27,20.15l-2.66-2.72s-1.1,1.04-.5,1.87c.85,1.18,4.08,3.95,4.08,3.95,0,0,3.38-3.01,4.07-3.95.6-.82-.48-1.87-.48-1.87l-2.56,2.72c0-17.27,1-18.08,19.29-18.08,1.51,0,1.51-2.07.03-2.07Z"/>
  <path class="cls-13" d="m557.63,517.38c-19.4,0-21.27,1.3-21.27,20.15l-2.66-2.72s-1.1,1.04-.5,1.87c.85,1.18,4.08,3.95,4.08,3.95,0,0,3.38-3.01,4.07-3.95.6-.82-.48-1.87-.48-1.87l-2.56,2.72c0-17.27,1-18.08,19.29-18.08,1.51,0,1.51-2.07.03-2.07Z"/>
  <path class="cls-13" d="m588.38,263.65c0,11.89,9.57,22.68,21.38,22.72l-2.65,2.41s1.01,1.11,1.85.54c.95-.65,4.08-3.93,4.08-3.93,0,0-2.66-3.32-3.8-4.21-.81-.63-1.89.43-1.89.43l2.61,2.78c-8.93-.03-18.79-7.32-19.5-20.74-.08-1.57-2.09-1.62-2.08,0Z"/>
  <path class="cls-13" d="m588.27,514.1c0,11.89,9.57,22.68,21.38,22.72l-2.65,2.41s1.01,1.11,1.85.54c.95-.65,4.08-3.93,4.08-3.93,0,0-2.66-3.32-3.8-4.21-.81-.63-1.89.43-1.89.43l2.61,2.78c-8.93-.03-18.79-7.32-19.5-20.74-.08-1.57-2.09-1.62-2.08,0Z"/>
  <path class="cls-13" d="m676.87,265.63c19.4,0,21.27,1.3,21.27,20.15l2.66-2.72s1.1,1.04.5,1.87c-.85,1.18-4.08,3.95-4.08,3.95,0,0-3.38-3.01-4.07-3.95-.6-.82.48-1.87.48-1.87l2.56,2.72c0-17.27-1-18.08-19.29-18.08-1.51,0-1.51-2.07-.03-2.07Z"/>
  <path class="cls-13" d="m679.29,513.59c19.4,0,21.27,1.3,21.27,20.15l2.66-2.72s1.1,1.04.5,1.87c-.85,1.18-4.08,3.95-4.08,3.95,0,0-3.38-3.01-4.07-3.95-.6-.82.48-1.87.48-1.87l2.56,2.72c0-17.27-1-18.08-19.29-18.08-1.51,0-1.51-2.07-.03-2.07Z"/>
  <g>
    <path class="cls-10" d="m436.3,160.41c1.45,0,1.45-2.25,0-2.25s-1.45,2.25,0,2.25h0Z"/>
    <circle class="cls-10" cx="436.3" cy="129.28" r="2.5"/>
    <circle class="cls-10" cx="466.3" cy="159.28" r="2.5"/>
    <circle class="cls-10" cx="436.3" cy="189.28" r="2.5"/>
    <circle class="cls-10" cx="406.3" cy="159.28" r="2.5"/>
  </g>
  <g>
    <path class="cls-10" d="m526.3,160.41c1.45,0,1.45-2.25,0-2.25s-1.45,2.25,0,2.25h0Z"/>
    <circle class="cls-10" cx="526.3" cy="129.28" r="2.5"/>
    <circle class="cls-10" cx="556.3" cy="159.28" r="2.5"/>
    <circle class="cls-10" cx="526.3" cy="189.28" r="2.5"/>
    <circle class="cls-10" cx="496.3" cy="159.28" r="2.5"/>
  </g>
  <g>
    <path class="cls-10" d="m616.3,160.41c1.45,0,1.45-2.25,0-2.25s-1.45,2.25,0,2.25h0Z"/>
    <circle class="cls-10" cx="616.3" cy="189.28" r="2.5"/>
    <circle class="cls-10" cx="646.3" cy="159.28" r="2.5"/>
    <circle class="cls-10" cx="616.3" cy="129.28" r="2.5"/>
    <circle class="cls-10" cx="586.3" cy="159.28" r="2.5"/>
  </g>
  <g>
    <path class="cls-10" d="m706.3,160.41c1.45,0,1.45-2.25,0-2.25s-1.45,2.25,0,2.25h0Z"/>
    <circle class="cls-10" cx="706.3" cy="189.28" r="2.5"/>
    <circle class="cls-10" cx="736.3" cy="159.28" r="2.5"/>
    <circle class="cls-10" cx="706.3" cy="129.28" r="2.5"/>
    <circle class="cls-10" cx="676.3" cy="159.28" r="2.5"/>
  </g>
  <g>
    <path class="cls-10" d="m436.3,260.41c1.45,0,1.45-2.25,0-2.25s-1.45,2.25,0,2.25h0Z"/>
    <circle class="cls-10" cx="436.3" cy="289.28" r="2.5"/>
    <circle class="cls-10" cx="466.3" cy="259.28" r="2.5"/>
    <circle class="cls-10" cx="436.3" cy="229.28" r="2.5"/>
    <circle class="cls-10" cx="406.3" cy="259.28" r="2.5"/>
  </g>
  <g>
    <path class="cls-10" d="m526.3,260.41c1.45,0,1.45-2.25,0-2.25s-1.45,2.25,0,2.25h0Z"/>
    <circle class="cls-10" cx="526.3" cy="289.28" r="2.5"/>
    <circle class="cls-10" cx="556.3" cy="259.28" r="2.5"/>
    <circle class="cls-10" cx="526.3" cy="229.28" r="2.5"/>
    <circle class="cls-10" cx="496.3" cy="259.28" r="2.5"/>
  </g>
  <g>
    <path class="cls-10" d="m616.3,260.41c1.45,0,1.45-2.25,0-2.25s-1.45,2.25,0,2.25h0Z"/>
    <circle class="cls-10" cx="616.3" cy="289.28" r="2.5"/>
    <circle class="cls-10" cx="646.3" cy="259.28" r="2.5"/>
    <circle class="cls-10" cx="616.3" cy="229.28" r="2.5"/>
    <circle class="cls-10" cx="586.3" cy="259.28" r="2.5"/>
  </g>
  <g>
    <path class="cls-10" d="m706.3,260.41c1.45,0,1.45-2.25,0-2.25s-1.45,2.25,0,2.25h0Z"/>
    <circle class="cls-10" cx="706.3" cy="289.28" r="2.5"/>
    <circle class="cls-10" cx="736.3" cy="259.28" r="2.5"/>
    <circle class="cls-10" cx="706.3" cy="229.28" r="2.5"/>
    <circle class="cls-10" cx="676.3" cy="259.28" r="2.5"/>
  </g>
  <g>
    <path class="cls-10" d="m436.3,410.41c1.45,0,1.45-2.25,0-2.25s-1.45,2.25,0,2.25h0Z"/>
    <circle class="cls-10" cx="436.3" cy="379.28" r="2.5"/>
    <circle class="cls-10" cx="466.3" cy="409.28" r="2.5"/>
    <circle class="cls-10" cx="436.3" cy="439.28" r="2.5"/>
    <circle class="cls-10" cx="406.3" cy="409.28" r="2.5"/>
  </g>
  <g>
    <path class="cls-10" d="m526.3,410.41c1.45,0,1.45-2.25,0-2.25s-1.45,2.25,0,2.25h0Z"/>
    <circle class="cls-10" cx="526.3" cy="379.28" r="2.5"/>
    <circle class="cls-10" cx="556.3" cy="409.28" r="2.5"/>
    <circle class="cls-10" cx="526.3" cy="439.28" r="2.5"/>
    <circle class="cls-10" cx="496.3" cy="409.28" r="2.5"/>
  </g>
  <g>
    <path class="cls-10" d="m616.3,410.41c1.45,0,1.45-2.25,0-2.25s-1.45,2.25,0,2.25h0Z"/>
    <circle class="cls-10" cx="616.3" cy="439.28" r="2.5"/>
    <circle class="cls-10" cx="646.3" cy="409.28" r="2.5"/>
    <circle class="cls-10" cx="616.3" cy="379.28" r="2.5"/>
    <circle class="cls-10" cx="586.3" cy="409.28" r="2.5"/>
  </g>
  <g>
    <path class="cls-10" d="m706.3,410.41c1.45,0,1.45-2.25,0-2.25s-1.45,2.25,0,2.25h0Z"/>
    <circle class="cls-10" cx="706.3" cy="439.28" r="2.5"/>
    <circle class="cls-10" cx="736.3" cy="409.28" r="2.5"/>
    <circle class="cls-10" cx="706.3" cy="379.28" r="2.5"/>
    <circle class="cls-10" cx="676.3" cy="409.28" r="2.5"/>
  </g>
  <g>
    <path class="cls-10" d="m436.3,510.41c1.45,0,1.45-2.25,0-2.25s-1.45,2.25,0,2.25h0Z"/>
    <circle class="cls-10" cx="436.3" cy="539.28" r="2.5"/>
    <circle class="cls-10" cx="466.3" cy="509.28" r="2.5"/>
    <circle class="cls-10" cx="436.3" cy="479.28" r="2.5"/>
    <circle class="cls-10" cx="406.3" cy="509.28" r="2.5"/>
  </g>
  <g>
    <path class="cls-10" d="m526.3,510.41c1.45,0,1.45-2.25,0-2.25s-1.45,2.25,0,2.25h0Z"/>
    <circle class="cls-10" cx="526.3" cy="539.28" r="2.5"/>
    <circle class="cls-10" cx="556.3" cy="509.28" r="2.5"/>
    <circle class="cls-10" cx="526.3" cy="479.28" r="2.5"/>
    <circle class="cls-10" cx="496.3" cy="509.28" r="2.5"/>
  </g>
  <g>
    <path class="cls-10" d="m616.3,510.41c1.45,0,1.45-2.25,0-2.25s-1.45,2.25,0,2.25h0Z"/>
    <circle class="cls-10" cx="616.3" cy="539.28" r="2.5"/>
    <circle class="cls-10" cx="646.3" cy="509.28" r="2.5"/>
    <circle class="cls-10" cx="616.3" cy="479.28" r="2.5"/>
    <circle class="cls-10" cx="586.3" cy="509.28" r="2.5"/>
  </g>
  <g>
    <path class="cls-10" d="m706.3,510.41c1.45,0,1.45-2.25,0-2.25s-1.45,2.25,0,2.25h0Z"/>
    <circle class="cls-10" cx="706.3" cy="539.28" r="2.5"/>
    <circle class="cls-10" cx="736.3" cy="509.28" r="2.5"/>
    <circle class="cls-10" cx="706.3" cy="479.28" r="2.5"/>
    <circle class="cls-10" cx="676.3" cy="509.28" r="2.5"/>
  </g>
  <g>
    <line class="cls-8" x1="391.3" y1="126.78" x2="391.3" y2="319.26"/>
    <line class="cls-6" x1="43.8" y1="219.26" x2="738.8" y2="219.26"/>
    <line class="cls-6" x1="43.8" y1="469.26" x2="738.8" y2="469.26"/>
    <line class="cls-8" x1="391.3" y1="373.02" x2="391.3" y2="565.5"/>
  </g>
  <g>
    <g>
      <path class="cls-10" d="m81.45,199.03c-.46-.06-.96.28-1.19,1.14-.42,1.54-.92,3.7-1.44,5.63-1.11-2.72-1.86-4.39-2.5-4.38-.01,0-.02,0-.03.01-.01-.01-.02-.01-.03-.01-.64-.01-1.39,1.65-2.5,4.38-.51-1.93-1.02-4.09-1.44-5.63-.24-.86-.73-1.2-1.19-1.14-.59.07-.98.49-.74,1.25.25.81,1.84,6.07,2.3,7.72.47,1.65,1.59.9,1.8.49.21-.41,1.36-3.67,1.8-4.59.44.92,1.59,4.18,1.8,4.59.21.41,1.33,1.16,1.8-.49.46-1.64,2.05-6.9,2.3-7.72.24-.76-.15-1.18-.74-1.25Z"/>
      <path class="cls-10" d="m259.64,200.27l-4.37,8.3c-.15.29-.45.46-.75.46-.13,0-.26-.04-.39-.1-.2-.11-.35-.28-.42-.5-.07-.21-.05-.45.06-.65l1.88-3.58-2.53-3.62c-.12-.11-.2-.27-.24-.47-.05-.25.03-.53.2-.71.15-.17.35-.27.58-.28.22,0,.45.07.61.21l2.2,3.29,1.65-3.14c.12-.2.29-.35.51-.42.22-.07.45-.04.65.07.22.12.38.33.43.59.03.19,0,.38-.08.55Z"/>
      <path class="cls-10" d="m170.2,207.54c.16.19.21.44.19.68-.03.24-.16.46-.34.61-.4.3-.98.23-1.3-.17l-2.45-3.14-2.45,3.14c-.18.23-.45.36-.72.36-.19,0-.4-.07-.57-.19-.19-.15-.32-.37-.35-.61-.03-.24.03-.49.19-.68l2.73-3.51-2.73-3.51c-.13-.17-.19-.36-.19-.57,0-.28.14-.56.36-.73.19-.15.42-.21.67-.19.24.03.47.16.61.35l2.45,3.14,2.44-3.14c.33-.41.91-.48,1.31-.16.22.17.35.43.35.72,0,.2-.07.4-.19.57l-2.73,3.51,2.73,3.51Z"/>
      <path class="cls-10" d="m347.26,200.76h-3.64c-1.34,0-1.31-1.73,0-1.73,5.4,0,5.35.02,5.67.38.23.27.43.73.15,1.14-1.71,2.48-4.54,6.52-4.54,6.52,0,0,3.43,0,4.33,0,1.35,0,1.4,1.91.13,1.91-8.37,0-9.53,1.13-2.09-8.23Z"/>
      <path class="cls-10" d="m81.45,449.03c-.46-.06-.96.28-1.19,1.14-.42,1.54-.92,3.7-1.44,5.63-1.11-2.72-1.86-4.39-2.5-4.38-.01,0-.02,0-.03.01-.01-.01-.02-.01-.03-.01-.64-.01-1.39,1.65-2.5,4.38-.51-1.93-1.02-4.09-1.44-5.63-.24-.86-.73-1.2-1.19-1.14-.59.07-.98.49-.74,1.25.25.81,1.84,6.07,2.3,7.72.47,1.65,1.59.9,1.8.49.21-.41,1.36-3.67,1.8-4.59.44.92,1.59,4.18,1.8,4.59.21.41,1.33,1.16,1.8-.49.46-1.64,2.05-6.9,2.3-7.72.24-.76-.15-1.18-.74-1.25Z"/>
      <path class="cls-10" d="m259.64,450.27l-4.37,8.3c-.15.29-.45.46-.75.46-.13,0-.26-.04-.39-.1-.2-.11-.35-.28-.42-.5-.07-.21-.05-.45.06-.65l1.88-3.58-2.53-3.62c-.12-.11-.2-.27-.24-.47-.05-.25.03-.53.2-.71.15-.17.35-.27.58-.28.22,0,.45.07.61.21l2.2,3.29,1.65-3.14c.12-.2.29-.35.51-.42.22-.07.45-.04.65.07.22.12.38.33.43.59.03.19,0,.38-.08.55Z"/>
      <path class="cls-10" d="m170.2,457.54c.16.19.21.44.19.68-.03.24-.16.46-.34.61-.4.3-.98.23-1.3-.17l-2.45-3.14-2.45,3.14c-.18.23-.45.36-.72.36-.19,0-.4-.07-.57-.19-.19-.15-.32-.37-.35-.61-.03-.24.03-.49.19-.68l2.73-3.51-2.73-3.51c-.13-.17-.19-.36-.19-.57,0-.28.14-.56.36-.73.19-.15.42-.21.67-.19.24.03.47.16.61.35l2.45,3.14,2.44-3.14c.33-.41.91-.48,1.31-.16.22.17.35.43.35.72,0,.2-.07.4-.19.57l-2.73,3.51,2.73,3.51Z"/>
      <path class="cls-10" d="m347.26,450.76h-3.64c-1.34,0-1.31-1.73,0-1.73,5.4,0,5.35.02,5.67.38.23.27.43.73.15,1.14-1.71,2.48-4.54,6.52-4.54,6.52,0,0,3.43,0,4.33,0,1.35,0,1.4,1.91.13,1.91-8.37,0-9.53,1.13-2.09-8.23Z"/>
      <path class="cls-10" d="m351.51,309.03h-3.54c-.32,0-.53-.32-.41-.62,2.67-6.29.99-7.71-1.08-7.85-.04,0-.08,0-.12,0h-.02s-.09,0-.13,0c-.04,0-.08,0-.12,0-2.07.14-3.75,1.56-1.08,7.85.12.29-.09.62-.41.62h-3.54c-.14,0-.66-1.27.12-1.73.69-.41.99.09,1.81.11-2.24-4.96.04-7.96,2.78-8.36.08-.02.94-.02,1.02,0,2.74.41,5.02,3.4,2.78,8.36.82-.02,1.12-.51,1.81-.11.78.46.26,1.73.12,1.73Z"/>
      <path class="cls-10" d="m170.37,307.16c-.93-2.27-1.86-4.39-2.21-5.2-.38-.84-.67-1.52-.74-1.72-.32-.87-.6-1.18-1.12-1.22-.5.04-.79.34-1.11,1.22-.07.2-.36.87-.73,1.72-.73,1.66-1.56,3.6-2.22,5.2-.28.71-.29,1.21-.03,1.52.19.23.49.34.9.34h6.43c.41,0,.71-.12.9-.34.12-.15.18-.34.18-.58,0-.26-.07-.57-.22-.94Zm-1.67.34h-4.8c.17-.42.49-1.25.87-2.18.56-1.41,1.21-3.07,1.53-3.9.39.98,1.22,3.11,1.83,4.63l.57,1.44Z"/>
      <path class="cls-10" d="m78.05,303.21c.48.44.43.65.44.96s-.23.47-.53.71c-1.75,1.43-2.78,2.44-2.78,2.44,0,0,.42.05,4.42.05.4,0,.79.33.79.78,0,.48-.22.88-.64.88-2.35,0-4.02-.05-5.97-.05-.79,0-1.34-.19-1.52-.57-.17-.36-.12-.9.55-1.52,1.91-1.72,3.47-2.88,3.47-2.88,0,0-2.17-1.97-3.75-3.56-.33-.33-.43-.62-.31-.85.11-.2.55-.57.92-.57h6.71c.74,0,.77,1.31,0,1.31-3.37,0-5.2.02-5.2.02l3.38,2.85Z"/>
      <path class="cls-10" d="m256.27,299.03c-1.33,0-3.23,1.68-3.23,5,0,2.56,1.22,5,3.23,5s3.27-2.44,3.27-5c0-3.48-1.94-5-3.27-5Zm.01,1.37c.96,0,1.64,1.13,1.7,1.93.02.3,0,.81-.55.81h-2.33c-.46,0-.51-.5-.5-.76.07-.8.81-1.98,1.69-1.98Zm0,7.26c-1.08,0-1.72-1.28-1.79-2.08-.01-.25,0-.76.5-.76h2.53c.56,0,.58.5.55.81-.06.8-.72,2.03-1.8,2.03Z"/>
      <path class="cls-10" d="m351.51,559.03h-3.54c-.32,0-.53-.32-.41-.62,2.67-6.29.99-7.71-1.08-7.85-.04,0-.08,0-.12,0h-.02s-.09,0-.13,0c-.04,0-.08,0-.12,0-2.07.14-3.75,1.56-1.08,7.85.12.29-.09.62-.41.62h-3.54c-.14,0-.66-1.27.12-1.73.69-.41.99.09,1.81.11-2.24-4.96.04-7.96,2.78-8.36.08-.02.94-.02,1.02,0,2.74.41,5.02,3.4,2.78,8.36.82-.02,1.12-.51,1.81-.11.78.46.26,1.73.12,1.73Z"/>
      <path class="cls-10" d="m170.37,557.16c-.93-2.27-1.86-4.39-2.21-5.2-.38-.84-.67-1.52-.74-1.72-.32-.87-.6-1.18-1.12-1.22-.5.04-.79.34-1.11,1.22-.07.2-.36.87-.73,1.72-.73,1.66-1.56,3.6-2.22,5.2-.28.71-.29,1.21-.03,1.52.19.23.49.34.9.34h6.43c.41,0,.71-.12.9-.34.12-.15.18-.34.18-.58,0-.26-.07-.57-.22-.94Zm-1.67.34h-4.8c.17-.42.49-1.25.87-2.18.56-1.41,1.21-3.07,1.53-3.9.39.98,1.22,3.11,1.83,4.63l.57,1.44Z"/>
      <path class="cls-10" d="m78.05,553.21c.48.44.43.65.44.96s-.23.47-.53.71c-1.75,1.43-2.78,2.44-2.78,2.44,0,0,.42.05,4.42.05.4,0,.79.33.79.78,0,.48-.22.88-.64.88-2.35,0-4.02-.05-5.97-.05-.79,0-1.34-.19-1.52-.57-.17-.36-.12-.9.55-1.52,1.91-1.72,3.47-2.88,3.47-2.88,0,0-2.17-1.97-3.75-3.56-.33-.33-.43-.62-.31-.85.11-.2.55-.57.92-.57h6.71c.74,0,.77,1.31,0,1.31-3.37,0-5.2.02-5.2.02l3.38,2.85Z"/>
      <path class="cls-10" d="m256.27,549.03c-1.33,0-3.23,1.68-3.23,5,0,2.56,1.22,5,3.23,5s3.27-2.44,3.27-5c0-3.48-1.94-5-3.27-5Zm.01,1.37c.96,0,1.64,1.13,1.7,1.93.02.3,0,.81-.55.81h-2.33c-.46,0-.51-.5-.5-.76.07-.8.81-1.98,1.69-1.98Zm0,7.26c-1.08,0-1.72-1.28-1.79-2.08-.01-.25,0-.76.5-.76h2.53c.56,0,.58.5.55.81-.06.8-.72,2.03-1.8,2.03Z"/>
      <path class="cls-10" d="m441.45,198.93c-.46-.06-.96.28-1.19,1.14-.42,1.54-.92,3.7-1.44,5.63-1.11-2.72-1.86-4.39-2.5-4.38-.01,0-.02,0-.03.01-.01-.01-.02-.01-.03-.01-.64-.01-1.39,1.65-2.5,4.38-.51-1.93-1.02-4.09-1.44-5.63-.24-.86-.73-1.2-1.19-1.14-.59.07-.98.49-.74,1.25.25.81,1.84,6.07,2.3,7.72.47,1.65,1.59.9,1.8.49.21-.41,1.36-3.67,1.8-4.59.44.92,1.59,4.18,1.8,4.59.21.41,1.33,1.16,1.8-.49.46-1.64,2.05-6.9,2.3-7.72.24-.76-.15-1.18-.74-1.25Z"/>
      <path class="cls-10" d="m619.64,200.17l-4.37,8.3c-.15.29-.45.46-.75.46-.13,0-.26-.04-.39-.1-.2-.11-.35-.28-.42-.5-.07-.21-.05-.45.06-.65l1.88-3.58-2.53-3.62c-.12-.11-.2-.27-.24-.47-.05-.25.03-.53.2-.71.15-.17.35-.27.58-.28.22,0,.45.07.61.21l2.2,3.29,1.65-3.14c.12-.2.29-.35.51-.42.22-.07.45-.04.65.07.22.12.38.33.43.59.03.19,0,.38-.08.55Z"/>
      <path class="cls-10" d="m530.2,207.44c.16.19.21.44.19.68-.03.24-.16.46-.34.61-.4.3-.98.23-1.3-.17l-2.45-3.14-2.45,3.14c-.18.23-.45.36-.72.36-.19,0-.4-.07-.57-.19-.19-.15-.32-.37-.35-.61-.03-.24.03-.49.19-.68l2.73-3.51-2.73-3.51c-.13-.17-.19-.36-.19-.57,0-.28.14-.56.36-.73.19-.15.42-.21.67-.19.24.03.47.16.61.35l2.45,3.14,2.44-3.14c.33-.41.91-.48,1.31-.16.22.17.35.43.35.72,0,.2-.07.4-.19.57l-2.73,3.51,2.73,3.51Z"/>
      <path class="cls-10" d="m707.26,200.66h-3.64c-1.34,0-1.31-1.73,0-1.73,5.4,0,5.35.02,5.67.38.23.27.43.73.15,1.14-1.71,2.48-4.54,6.52-4.54,6.52,0,0,3.43,0,4.33,0,1.35,0,1.4,1.91.13,1.91-8.37,0-9.53,1.13-2.09-8.23Z"/>
      <path class="cls-10" d="m441.45,448.93c-.46-.06-.96.28-1.19,1.14-.42,1.54-.92,3.7-1.44,5.63-1.11-2.72-1.86-4.39-2.5-4.38-.01,0-.02,0-.03.01-.01-.01-.02-.01-.03-.01-.64-.01-1.39,1.65-2.5,4.38-.51-1.93-1.02-4.09-1.44-5.63-.24-.86-.73-1.2-1.19-1.14-.59.07-.98.49-.74,1.25.25.81,1.84,6.07,2.3,7.72.47,1.65,1.59.9,1.8.49.21-.41,1.36-3.67,1.8-4.59.44.92,1.59,4.18,1.8,4.59.21.41,1.33,1.16,1.8-.49.46-1.64,2.05-6.9,2.3-7.72.24-.76-.15-1.18-.74-1.25Z"/>
      <path class="cls-10" d="m619.64,450.17l-4.37,8.3c-.15.29-.45.46-.75.46-.13,0-.26-.04-.39-.1-.2-.11-.35-.28-.42-.5-.07-.21-.05-.45.06-.65l1.88-3.58-2.53-3.62c-.12-.11-.2-.27-.24-.47-.05-.25.03-.53.2-.71.15-.17.35-.27.58-.28.22,0,.45.07.61.21l2.2,3.29,1.65-3.14c.12-.2.29-.35.51-.42.22-.07.45-.04.65.07.22.12.38.33.43.59.03.19,0,.38-.08.55Z"/>
      <path class="cls-10" d="m530.2,457.44c.16.19.21.44.19.68-.03.24-.16.46-.34.61-.4.3-.98.23-1.3-.17l-2.45-3.14-2.45,3.14c-.18.23-.45.36-.72.36-.19,0-.4-.07-.57-.19-.19-.15-.32-.37-.35-.61-.03-.24.03-.49.19-.68l2.73-3.51-2.73-3.51c-.13-.17-.19-.36-.19-.57,0-.28.14-.56.36-.73.19-.15.42-.21.67-.19.24.03.47.16.61.35l2.45,3.14,2.44-3.14c.33-.41.91-.48,1.31-.16.22.17.35.43.35.72,0,.2-.07.4-.19.57l-2.73,3.51,2.73,3.51Z"/>
      <path class="cls-10" d="m707.26,450.66h-3.64c-1.34,0-1.31-1.73,0-1.73,5.4,0,5.35.02,5.67.38.23.27.43.73.15,1.14-1.71,2.48-4.54,6.52-4.54,6.52,0,0,3.43,0,4.33,0,1.35,0,1.4,1.91.13,1.91-8.37,0-9.53,1.13-2.09-8.23Z"/>
      <g>
        <path class="cls-10" d="m711.51,308.93h-3.54c-.32,0-.53-.32-.41-.62,2.67-6.29.99-7.71-1.08-7.85-.04,0-.08,0-.12,0h-.02s-.09,0-.13,0c-.04,0-.08,0-.12,0-2.07.14-3.75,1.56-1.08,7.85.12.29-.09.62-.41.62h-3.54c-.14,0-.66-1.27.12-1.73.69-.41.99.09,1.81.11-2.24-4.96.04-7.96,2.78-8.36.08-.02.94-.02,1.02,0,2.74.41,5.02,3.4,2.78,8.36.82-.02,1.12-.51,1.81-.11.78.46.26,1.73.12,1.73Z"/>
        <path class="cls-10" d="m530.37,307.06c-.93-2.27-1.86-4.39-2.21-5.2-.38-.84-.67-1.52-.74-1.72-.32-.87-.6-1.18-1.12-1.22-.5.04-.79.34-1.11,1.22-.07.2-.36.87-.73,1.72-.73,1.66-1.56,3.6-2.22,5.2-.28.71-.29,1.21-.03,1.52.19.23.49.34.9.34h6.43c.41,0,.71-.12.9-.34.12-.15.18-.34.18-.58,0-.26-.07-.57-.22-.94Zm-1.67.34h-4.8c.17-.42.49-1.25.87-2.18.56-1.41,1.21-3.07,1.53-3.9.39.98,1.22,3.11,1.83,4.63l.57,1.44Z"/>
        <path class="cls-10" d="m438.05,303.11c.48.44.43.65.44.96s-.23.47-.53.71c-1.75,1.43-2.78,2.44-2.78,2.44,0,0,.42.05,4.42.05.4,0,.79.33.79.78,0,.48-.22.88-.64.88-2.35,0-4.02-.05-5.97-.05-.79,0-1.34-.19-1.52-.57-.17-.36-.12-.9.55-1.52,1.91-1.72,3.47-2.88,3.47-2.88,0,0-2.17-1.97-3.75-3.56-.33-.33-.43-.62-.31-.85.11-.2.55-.57.92-.57h6.71c.74,0,.77,1.31,0,1.31-3.37,0-5.2.02-5.2.02l3.38,2.85Z"/>
        <path class="cls-10" d="m616.27,298.93c-1.33,0-3.23,1.68-3.23,5,0,2.56,1.22,5,3.23,5s3.27-2.44,3.27-5c0-3.48-1.94-5-3.27-5Zm.01,1.37c.96,0,1.64,1.13,1.7,1.93.02.3,0,.81-.55.81h-2.33c-.46,0-.51-.5-.5-.76.07-.8.81-1.98,1.69-1.98Zm0,7.26c-1.08,0-1.72-1.28-1.79-2.08-.01-.25,0-.76.5-.76h2.53c.56,0,.58.5.55.81-.06.8-.72,2.03-1.8,2.03Z"/>
      </g>
      <g>
        <path class="cls-10" d="m711.51,558.93h-3.54c-.32,0-.53-.32-.41-.62,2.67-6.29.99-7.71-1.08-7.85-.04,0-.08,0-.12,0h-.02s-.09,0-.13,0c-.04,0-.08,0-.12,0-2.07.14-3.75,1.56-1.08,7.85.12.29-.09.62-.41.62h-3.54c-.14,0-.66-1.27.12-1.73.69-.41.99.09,1.81.11-2.24-4.96.04-7.96,2.78-8.36.08-.02.94-.02,1.02,0,2.74.41,5.02,3.4,2.78,8.36.82-.02,1.12-.51,1.81-.11.78.46.26,1.73.12,1.73Z"/>
        <path class="cls-10" d="m530.37,557.06c-.93-2.27-1.86-4.39-2.21-5.2-.38-.84-.67-1.52-.74-1.72-.32-.87-.6-1.18-1.12-1.22-.5.04-.79.34-1.11,1.22-.07.2-.36.87-.73,1.72-.73,1.66-1.56,3.6-2.22,5.2-.28.71-.29,1.21-.03,1.52.19.23.49.34.9.34h6.43c.41,0,.71-.12.9-.34.12-.15.18-.34.18-.58,0-.26-.07-.57-.22-.94Zm-1.67.34h-4.8c.17-.42.49-1.25.87-2.18.56-1.41,1.21-3.07,1.53-3.9.39.98,1.22,3.11,1.83,4.63l.57,1.44Z"/>
        <path class="cls-10" d="m438.05,553.11c.48.44.43.65.44.96s-.23.47-.53.71c-1.75,1.43-2.78,2.44-2.78,2.44,0,0,.42.05,4.42.05.4,0,.79.33.79.78,0,.48-.22.88-.64.88-2.35,0-4.02-.05-5.97-.05-.79,0-1.34-.19-1.52-.57-.17-.36-.12-.9.55-1.52,1.91-1.72,3.47-2.88,3.47-2.88,0,0-2.17-1.97-3.75-3.56-.33-.33-.43-.62-.31-.85.11-.2.55-.57.92-.57h6.71c.74,0,.77,1.31,0,1.31-3.37,0-5.2.02-5.2.02l3.38,2.85Z"/>
        <path class="cls-10" d="m616.27,548.93c-1.33,0-3.23,1.68-3.23,5,0,2.56,1.22,5,3.23,5s3.27-2.44,3.27-5c0-3.48-1.94-5-3.27-5Zm.01,1.37c.96,0,1.64,1.13,1.7,1.93.02.3,0,.81-.55.81h-2.33c-.46,0-.51-.5-.5-.76.07-.8.81-1.98,1.69-1.98Zm0,7.26c-1.08,0-1.72-1.28-1.79-2.08-.01-.25,0-.76.5-.76h2.53c.56,0,.58.5.55.81-.06.8-.72,2.03-1.8,2.03Z"/>
      </g>
      <g>
        <g>
          <rect class="cls-10" x="443.31" y="202.98" width="6.95" height="1.9" rx=".95" ry=".95"/>
          <rect class="cls-10" x="531.24" y="202.98" width="6.95" height="1.9" rx=".95" ry=".95"/>
          <rect class="cls-10" x="620.65" y="202.98" width="6.95" height="1.9" rx=".95" ry=".95"/>
          <rect class="cls-10" x="710.91" y="202.98" width="6.95" height="1.9" rx=".95" ry=".95"/>
          <rect class="cls-10" x="443.31" y="302.98" width="6.95" height="1.9" rx=".95" ry=".95"/>
          <rect class="cls-10" x="531.24" y="302.98" width="6.95" height="1.9" rx=".95" ry=".95"/>
          <rect class="cls-10" x="712.58" y="302.98" width="6.95" height="1.9" rx=".95" ry=".95"/>
        </g>
        <g>
          <rect class="cls-10" x="443.31" y="452.98" width="6.95" height="1.9" rx=".95" ry=".95"/>
          <rect class="cls-10" x="531.24" y="452.98" width="6.95" height="1.9" rx=".95" ry=".95"/>
          <rect class="cls-10" x="620.35" y="452.98" width="6.95" height="1.9" rx=".95" ry=".95"/>
          <rect class="cls-10" x="711.33" y="452.98" width="6.95" height="1.9" rx=".95" ry=".95"/>
          <rect class="cls-10" x="443.31" y="552.98" width="6.95" height="1.9" rx=".95" ry=".95"/>
          <rect class="cls-10" x="531.24" y="552.98" width="6.95" height="1.9" rx=".95" ry=".95"/>
          <rect class="cls-10" x="621.24" y="302.98" width="6.95" height="1.9" rx=".95" ry=".95"/>
          <rect class="cls-10" x="621.24" y="552.98" width="6.95" height="1.9" rx=".95" ry=".95"/>
          <rect class="cls-10" x="712.58" y="552.98" width="6.95" height="1.9" rx=".95" ry=".95"/>
        </g>
      </g>
    </g>
    <g>
      <g>
        <g>
          <circle class="cls-10" cx="76.41" cy="195.93" r="1.25"/>
          <circle class="cls-10" cx="166.41" cy="195.93" r="1.25"/>
          <circle class="cls-10" cx="256.41" cy="195.93" r="1.25"/>
          <circle class="cls-10" cx="346.41" cy="195.93" r="1.25"/>
          <circle class="cls-10" cx="436.41" cy="195.93" r="1.25"/>
          <circle class="cls-10" cx="526.41" cy="195.93" r="1.25"/>
          <circle class="cls-10" cx="616.41" cy="195.93" r="1.25"/>
          <circle class="cls-10" cx="706.41" cy="195.93" r="1.25"/>
        </g>
        <g>
          <circle class="cls-10" cx="76.41" cy="295.93" r="1.25"/>
          <circle class="cls-10" cx="166.41" cy="295.93" r="1.25"/>
          <circle class="cls-10" cx="256.41" cy="295.93" r="1.25"/>
          <circle class="cls-10" cx="346.41" cy="295.93" r="1.25"/>
          <circle class="cls-10" cx="436.41" cy="295.93" r="1.25"/>
          <circle class="cls-10" cx="526.41" cy="295.93" r="1.25"/>
          <circle class="cls-10" cx="616.41" cy="295.93" r="1.25"/>
          <circle class="cls-10" cx="706.41" cy="295.93" r="1.25"/>
        </g>
      </g>
      <g>
        <g>
          <circle class="cls-10" cx="76.41" cy="461.93" r="1.25"/>
          <circle class="cls-10" cx="166.41" cy="461.93" r="1.25"/>
          <circle class="cls-10" cx="256.41" cy="461.93" r="1.25"/>
          <circle class="cls-10" cx="346.41" cy="461.93" r="1.25"/>
          <circle class="cls-10" cx="436.41" cy="461.93" r="1.25"/>
          <circle class="cls-10" cx="526.41" cy="461.93" r="1.25"/>
          <circle class="cls-10" cx="616.41" cy="461.93" r="1.25"/>
          <circle class="cls-10" cx="706.41" cy="461.93" r="1.25"/>
        </g>
        <g>
          <circle class="cls-10" cx="76.41" cy="561.93" r="1.25"/>
          <circle class="cls-10" cx="166.41" cy="561.93" r="1.25"/>
          <circle class="cls-10" cx="256.41" cy="561.93" r="1.25"/>
          <circle class="cls-10" cx="346.41" cy="561.93" r="1.25"/>
          <circle class="cls-10" cx="436.41" cy="561.93" r="1.25"/>
          <circle class="cls-10" cx="526.41" cy="561.93" r="1.25"/>
          <circle class="cls-10" cx="616.41" cy="561.93" r="1.25"/>
          <circle class="cls-10" cx="706.41" cy="561.93" r="1.25"/>
        </g>
      </g>
    </g>
    <path d="m86.94,209.97l-.03.05h-2.95v-.16c.01-.05.01-.09.02-.11.01-.08.02-.14.05-.21.07-.24.18-.46.32-.66.08-.12.19-.24.28-.34.16-.17.32-.34.49-.5l.04-.04c.15-.14.28-.27.42-.41.02-.03.06-.06.09-.11.03-.03.06-.06.08-.11.09-.12.15-.23.17-.33v-.02c.01-.06.02-.11.02-.17,0,0,0-.02-.01-.04,0-.04,0-.06-.01-.11-.05-.13-.13-.21-.26-.25-.08-.03-.22-.03-.35.01-.1.04-.18.11-.22.21-.02.05-.03.12-.04.17s-.02.1-.02.13v.12h-.11c-.14-.02-.27-.03-.4-.04-.14-.01-.26-.03-.39-.04h-.09v-.14c.01-.11.02-.21.06-.31.03-.15.07-.27.14-.38.08-.16.21-.29.4-.41.13-.09.27-.15.45-.19.07-.02.15-.03.24-.04.11-.01.22-.01.33,0,.1,0,.23.02.33.04.19.05.34.13.48.24.17.13.29.29.39.5.04.09.07.18.08.31.01.1.02.18.01.27,0,.21-.05.44-.16.64-.07.15-.17.29-.24.4-.09.11-.18.2-.26.29-.11.13-.24.25-.37.35-.11.12-.24.23-.35.35-.04.04-.07.08-.1.12h1.48v.11c.01.77,0,.78-.01.81Z"/>
    <path d="m175.94,209.97l-.03.05h-2.95v-.16c.01-.05.01-.09.02-.11.01-.08.02-.14.05-.21.07-.24.18-.46.32-.66.08-.12.19-.24.28-.34.16-.17.32-.34.49-.5l.04-.04c.15-.14.28-.27.42-.41.02-.03.06-.06.09-.11.03-.03.06-.06.08-.11.09-.12.15-.23.17-.33v-.02c.01-.06.02-.11.02-.17,0,0,0-.02-.01-.04,0-.04,0-.06-.01-.11-.05-.13-.13-.21-.26-.25-.08-.03-.22-.03-.35.01-.1.04-.18.11-.22.21-.02.05-.03.12-.04.17s-.02.1-.02.13v.12h-.11c-.14-.02-.27-.03-.4-.04-.14-.01-.26-.03-.39-.04h-.09v-.14c.01-.11.02-.21.06-.31.03-.15.07-.27.14-.38.08-.16.21-.29.4-.41.13-.09.27-.15.45-.19.07-.02.15-.03.24-.04.11-.01.22-.01.33,0,.1,0,.23.02.33.04.19.05.34.13.48.24.17.13.29.29.39.5.04.09.07.18.08.31.01.1.02.18.01.27,0,.21-.05.44-.16.64-.07.15-.17.29-.24.4-.09.11-.18.2-.26.29-.11.13-.24.25-.37.35-.11.12-.24.23-.35.35-.04.04-.07.08-.1.12h1.48v.11c.01.77,0,.78-.01.81Z"/>
    <path d="m265.94,209.97l-.03.05h-2.95v-.16c.01-.05.01-.09.02-.11.01-.08.02-.14.05-.21.07-.24.18-.46.32-.66.08-.12.19-.24.28-.34.16-.17.32-.34.49-.5l.04-.04c.15-.14.28-.27.42-.41.02-.03.06-.06.09-.11.03-.03.06-.06.08-.11.09-.12.15-.23.17-.33v-.02c.01-.06.02-.11.02-.17,0,0,0-.02-.01-.04,0-.04,0-.06-.01-.11-.05-.13-.13-.21-.26-.25-.08-.03-.22-.03-.35.01-.1.04-.18.11-.22.21-.02.05-.03.12-.04.17s-.02.1-.02.13v.12h-.11c-.14-.02-.27-.03-.4-.04-.14-.01-.26-.03-.39-.04h-.09v-.14c.01-.11.02-.21.06-.31.03-.15.07-.27.14-.38.08-.16.21-.29.4-.41.13-.09.27-.15.45-.19.07-.02.15-.03.24-.04.11-.01.22-.01.33,0,.1,0,.23.02.33.04.19.05.34.13.48.24.17.13.29.29.39.5.04.09.07.18.08.31.01.1.02.18.01.27,0,.21-.05.44-.16.64-.07.15-.17.29-.24.4-.09.11-.18.2-.26.29-.11.13-.24.25-.37.35-.11.12-.24.23-.35.35-.04.04-.07.08-.1.12h1.48v.11c.01.77,0,.78-.01.81Z"/>
    <path d="m355.94,209.97l-.03.05h-2.95v-.16c.01-.05.01-.09.02-.11.01-.08.02-.14.05-.21.07-.24.18-.46.32-.66.08-.12.19-.24.28-.34.16-.17.32-.34.49-.5l.04-.04c.15-.14.28-.27.42-.41.02-.03.06-.06.09-.11.03-.03.06-.06.08-.11.09-.12.15-.23.17-.33v-.02c.01-.06.02-.11.02-.17,0,0,0-.02-.01-.04,0-.04,0-.06-.01-.11-.05-.13-.13-.21-.26-.25-.08-.03-.22-.03-.35.01-.1.04-.18.11-.22.21-.02.05-.03.12-.04.17s-.02.1-.02.13v.12h-.11c-.14-.02-.27-.03-.4-.04-.14-.01-.26-.03-.39-.04h-.09v-.14c.01-.11.02-.21.06-.31.03-.15.07-.27.14-.38.08-.16.21-.29.4-.41.13-.09.27-.15.45-.19.07-.02.15-.03.24-.04.11-.01.22-.01.33,0,.1,0,.23.02.33.04.19.05.34.13.48.24.17.13.29.29.39.5.04.09.07.18.08.31.01.1.02.18.01.27,0,.21-.05.44-.16.64-.07.15-.17.29-.24.4-.09.11-.18.2-.26.29-.11.13-.24.25-.37.35-.11.12-.24.23-.35.35-.04.04-.07.08-.1.12h1.48v.11c.01.77,0,.78-.01.81Z"/>
    <path d="m454.04,209.97l-.03.05h-2.95v-.16c.01-.05.01-.09.02-.11.01-.08.02-.14.05-.21.07-.24.18-.46.32-.66.08-.12.19-.24.28-.34.16-.17.32-.34.49-.5l.04-.04c.15-.14.28-.27.42-.41.02-.03.06-.06.09-.11.03-.03.06-.06.08-.11.09-.12.15-.23.17-.33v-.02c.01-.06.02-.11.02-.17,0,0,0-.02-.01-.04,0-.04,0-.06-.01-.11-.05-.13-.13-.21-.26-.25-.08-.03-.22-.03-.35.01-.1.04-.18.11-.22.21-.02.05-.03.12-.04.17s-.02.1-.02.13v.12h-.11c-.14-.02-.27-.03-.4-.04-.14-.01-.26-.03-.39-.04h-.09v-.14c.01-.11.02-.21.06-.31.03-.15.07-.27.14-.38.08-.16.21-.29.4-.41.13-.09.27-.15.45-.19.07-.02.15-.03.24-.04.11-.01.22-.01.33,0,.1,0,.23.02.33.04.19.05.34.13.48.24.17.13.29.29.39.5.04.09.07.18.08.31.01.1.02.18.01.27,0,.21-.05.44-.16.64-.07.15-.17.29-.24.4-.09.11-.18.2-.26.29-.11.13-.24.25-.37.35-.11.12-.24.23-.35.35-.04.04-.07.08-.1.12h1.48v.11c.01.77,0,.78-.01.81Z"/>
    <path d="m542.04,209.97l-.03.05h-2.95v-.16c.01-.05.01-.09.02-.11.01-.08.02-.14.05-.21.07-.24.18-.46.32-.66.08-.12.19-.24.28-.34.16-.17.32-.34.49-.5l.04-.04c.15-.14.28-.27.42-.41.02-.03.06-.06.09-.11.03-.03.06-.06.08-.11.09-.12.15-.23.17-.33v-.02c.01-.06.02-.11.02-.17,0,0,0-.02-.01-.04,0-.04,0-.06-.01-.11-.05-.13-.13-.21-.26-.25-.08-.03-.22-.03-.35.01-.1.04-.18.11-.22.21-.02.05-.03.12-.04.17s-.02.1-.02.13v.12h-.11c-.14-.02-.27-.03-.4-.04-.14-.01-.26-.03-.39-.04h-.09v-.14c.01-.11.02-.21.06-.31.03-.15.07-.27.14-.38.08-.16.21-.29.4-.41.13-.09.27-.15.45-.19.07-.02.15-.03.24-.04.11-.01.22-.01.33,0,.1,0,.23.02.33.04.19.05.34.13.48.24.17.13.29.29.39.5.04.09.07.18.08.31.01.1.02.18.01.27,0,.21-.05.44-.16.64-.07.15-.17.29-.24.4-.09.11-.18.2-.26.29-.11.13-.24.25-.37.35-.11.12-.24.23-.35.35-.04.04-.07.08-.1.12h1.48v.11c.01.77,0,.78-.01.81Z"/>
    <path d="m632.04,209.97l-.03.05h-2.95v-.16c.01-.05.01-.09.02-.11.01-.08.02-.14.05-.21.07-.24.18-.46.32-.66.08-.12.19-.24.28-.34.16-.17.32-.34.49-.5l.04-.04c.15-.14.28-.27.42-.41.02-.03.06-.06.09-.11.03-.03.06-.06.08-.11.09-.12.15-.23.17-.33v-.02c.01-.06.02-.11.02-.17,0,0,0-.02-.01-.04,0-.04,0-.06-.01-.11-.05-.13-.13-.21-.26-.25-.08-.03-.22-.03-.35.01-.1.04-.18.11-.22.21-.02.05-.03.12-.04.17s-.02.1-.02.13v.12h-.11c-.14-.02-.27-.03-.4-.04-.14-.01-.26-.03-.39-.04h-.09v-.14c.01-.11.02-.21.06-.31.03-.15.07-.27.14-.38.08-.16.21-.29.4-.41.13-.09.27-.15.45-.19.07-.02.15-.03.24-.04.11-.01.22-.01.33,0,.1,0,.23.02.33.04.19.05.34.13.48.24.17.13.29.29.39.5.04.09.07.18.08.31.01.1.02.18.01.27,0,.21-.05.44-.16.64-.07.15-.17.29-.24.4-.09.11-.18.2-.26.29-.11.13-.24.25-.37.35-.11.12-.24.23-.35.35-.04.04-.07.08-.1.12h1.48v.11c.01.77,0,.78-.01.81Z"/>
    <path d="m722.04,209.97l-.03.05h-2.95v-.16c.01-.05.01-.09.02-.11.01-.08.02-.14.05-.21.07-.24.18-.46.32-.66.08-.12.19-.24.28-.34.16-.17.32-.34.49-.5l.04-.04c.15-.14.28-.27.42-.41.02-.03.06-.06.09-.11.03-.03.06-.06.08-.11.09-.12.15-.23.17-.33v-.02c.01-.06.02-.11.02-.17,0,0,0-.02-.01-.04,0-.04,0-.06-.01-.11-.05-.13-.13-.21-.26-.25-.08-.03-.22-.03-.35.01-.1.04-.18.11-.22.21-.02.05-.03.12-.04.17s-.02.1-.02.13v.12h-.11c-.14-.02-.27-.03-.4-.04-.14-.01-.26-.03-.39-.04h-.09v-.14c.01-.11.02-.21.06-.31.03-.15.07-.27.14-.38.08-.16.21-.29.4-.41.13-.09.27-.15.45-.19.07-.02.15-.03.24-.04.11-.01.22-.01.33,0,.1,0,.23.02.33.04.19.05.34.13.48.24.17.13.29.29.39.5.04.09.07.18.08.31.01.1.02.18.01.27,0,.21-.05.44-.16.64-.07.15-.17.29-.24.4-.09.11-.18.2-.26.29-.11.13-.24.25-.37.35-.11.12-.24.23-.35.35-.04.04-.07.08-.1.12h1.48v.11c.01.77,0,.78-.01.81Z"/>
    <path d="m86.94,309.97l-.03.05h-2.95v-.16c.01-.05.01-.09.02-.11.01-.08.02-.14.05-.21.07-.24.18-.46.32-.66.08-.12.19-.24.28-.34.16-.17.32-.34.49-.5l.04-.04c.15-.14.28-.27.42-.41.02-.03.06-.06.09-.11.03-.03.06-.06.08-.11.09-.12.15-.23.17-.33v-.02c.01-.06.02-.11.02-.17,0,0,0-.02-.01-.04,0-.04,0-.06-.01-.11-.05-.13-.13-.21-.26-.25-.08-.03-.22-.03-.35.01-.1.04-.18.11-.22.21-.02.05-.03.12-.04.17s-.02.1-.02.13v.12h-.11c-.14-.02-.27-.03-.4-.04-.14-.01-.26-.03-.39-.04h-.09v-.14c.01-.11.02-.21.06-.31.03-.15.07-.27.14-.38.08-.16.21-.29.4-.41.13-.09.27-.15.45-.19.07-.02.15-.03.24-.04.11-.01.22-.01.33,0,.1,0,.23.02.33.04.19.05.34.13.48.24.17.13.29.29.39.5.04.09.07.18.08.31.01.1.02.18.01.27,0,.21-.05.44-.16.64-.07.15-.17.29-.24.4-.09.11-.18.2-.26.29-.11.13-.24.25-.37.35-.11.12-.24.23-.35.35-.04.04-.07.08-.1.12h1.48v.11c.01.77,0,.78-.01.81Z"/>
    <path d="m175.94,309.97l-.03.05h-2.95v-.16c.01-.05.01-.09.02-.11.01-.08.02-.14.05-.21.07-.24.18-.46.32-.66.08-.12.19-.24.28-.34.16-.17.32-.34.49-.5l.04-.04c.15-.14.28-.27.42-.41.02-.03.06-.06.09-.11.03-.03.06-.06.08-.11.09-.12.15-.23.17-.33v-.02c.01-.06.02-.11.02-.17,0,0,0-.02-.01-.04,0-.04,0-.06-.01-.11-.05-.13-.13-.21-.26-.25-.08-.03-.22-.03-.35.01-.1.04-.18.11-.22.21-.02.05-.03.12-.04.17s-.02.1-.02.13v.12h-.11c-.14-.02-.27-.03-.4-.04-.14-.01-.26-.03-.39-.04h-.09v-.14c.01-.11.02-.21.06-.31.03-.15.07-.27.14-.38.08-.16.21-.29.4-.41.13-.09.27-.15.45-.19.07-.02.15-.03.24-.04.11-.01.22-.01.33,0,.1,0,.23.02.33.04.19.05.34.13.48.24.17.13.29.29.39.5.04.09.07.18.08.31.01.1.02.18.01.27,0,.21-.05.44-.16.64-.07.15-.17.29-.24.4-.09.11-.18.2-.26.29-.11.13-.24.25-.37.35-.11.12-.24.23-.35.35-.04.04-.07.08-.1.12h1.48v.11c.01.77,0,.78-.01.81Z"/>
    <path d="m265.94,309.97l-.03.05h-2.95v-.16c.01-.05.01-.09.02-.11.01-.08.02-.14.05-.21.07-.24.18-.46.32-.66.08-.12.19-.24.28-.34.16-.17.32-.34.49-.5l.04-.04c.15-.14.28-.27.42-.41.02-.03.06-.06.09-.11.03-.03.06-.06.08-.11.09-.12.15-.23.17-.33v-.02c.01-.06.02-.11.02-.17,0,0,0-.02-.01-.04,0-.04,0-.06-.01-.11-.05-.13-.13-.21-.26-.25-.08-.03-.22-.03-.35.01-.1.04-.18.11-.22.21-.02.05-.03.12-.04.17s-.02.1-.02.13v.12h-.11c-.14-.02-.27-.03-.4-.04-.14-.01-.26-.03-.39-.04h-.09v-.14c.01-.11.02-.21.06-.31.03-.15.07-.27.14-.38.08-.16.21-.29.4-.41.13-.09.27-.15.45-.19.07-.02.15-.03.24-.04.11-.01.22-.01.33,0,.1,0,.23.02.33.04.19.05.34.13.48.24.17.13.29.29.39.5.04.09.07.18.08.31.01.1.02.18.01.27,0,.21-.05.44-.16.64-.07.15-.17.29-.24.4-.09.11-.18.2-.26.29-.11.13-.24.25-.37.35-.11.12-.24.23-.35.35-.04.04-.07.08-.1.12h1.48v.11c.01.77,0,.78-.01.81Z"/>
    <path d="m356.94,309.97l-.03.05h-2.95v-.16c.01-.05.01-.09.02-.11.01-.08.02-.14.05-.21.07-.24.18-.46.32-.66.08-.12.19-.24.28-.34.16-.17.32-.34.49-.5l.04-.04c.15-.14.28-.27.42-.41.02-.03.06-.06.09-.11.03-.03.06-.06.08-.11.09-.12.15-.23.17-.33v-.02c.01-.06.02-.11.02-.17,0,0,0-.02-.01-.04,0-.04,0-.06-.01-.11-.05-.13-.13-.21-.26-.25-.08-.03-.22-.03-.35.01-.1.04-.18.11-.22.21-.02.05-.03.12-.04.17s-.02.1-.02.13v.12h-.11c-.14-.02-.27-.03-.4-.04-.14-.01-.26-.03-.39-.04h-.09v-.14c.01-.11.02-.21.06-.31.03-.15.07-.27.14-.38.08-.16.21-.29.4-.41.13-.09.27-.15.45-.19.07-.02.15-.03.24-.04.11-.01.22-.01.33,0,.1,0,.23.02.33.04.19.05.34.13.48.24.17.13.29.29.39.5.04.09.07.18.08.31.01.1.02.18.01.27,0,.21-.05.44-.16.64-.07.15-.17.29-.24.4-.09.11-.18.2-.26.29-.11.13-.24.25-.37.35-.11.12-.24.23-.35.35-.04.04-.07.08-.1.12h1.48v.11c.01.77,0,.78-.01.81Z"/>
    <path d="m454.04,309.97l-.03.05h-2.95v-.16c.01-.05.01-.09.02-.11.01-.08.02-.14.05-.21.07-.24.18-.46.32-.66.08-.12.19-.24.28-.34.16-.17.32-.34.49-.5l.04-.04c.15-.14.28-.27.42-.41.02-.03.06-.06.09-.11.03-.03.06-.06.08-.11.09-.12.15-.23.17-.33v-.02c.01-.06.02-.11.02-.17,0,0,0-.02-.01-.04,0-.04,0-.06-.01-.11-.05-.13-.13-.21-.26-.25-.08-.03-.22-.03-.35.01-.1.04-.18.11-.22.21-.02.05-.03.12-.04.17s-.02.1-.02.13v.12h-.11c-.14-.02-.27-.03-.4-.04-.14-.01-.26-.03-.39-.04h-.09v-.14c.01-.11.02-.21.06-.31.03-.15.07-.27.14-.38.08-.16.21-.29.4-.41.13-.09.27-.15.45-.19.07-.02.15-.03.24-.04.11-.01.22-.01.33,0,.1,0,.23.02.33.04.19.05.34.13.48.24.17.13.29.29.39.5.04.09.07.18.08.31.01.1.02.18.01.27,0,.21-.05.44-.16.64-.07.15-.17.29-.24.4-.09.11-.18.2-.26.29-.11.13-.24.25-.37.35-.11.12-.24.23-.35.35-.04.04-.07.08-.1.12h1.48v.11c.01.77,0,.78-.01.81Z"/>
    <path d="m542.04,309.97l-.03.05h-2.95v-.16c.01-.05.01-.09.02-.11.01-.08.02-.14.05-.21.07-.24.18-.46.32-.66.08-.12.19-.24.28-.34.16-.17.32-.34.49-.5l.04-.04c.15-.14.28-.27.42-.41.02-.03.06-.06.09-.11.03-.03.06-.06.08-.11.09-.12.15-.23.17-.33v-.02c.01-.06.02-.11.02-.17,0,0,0-.02-.01-.04,0-.04,0-.06-.01-.11-.05-.13-.13-.21-.26-.25-.08-.03-.22-.03-.35.01-.1.04-.18.11-.22.21-.02.05-.03.12-.04.17s-.02.1-.02.13v.12h-.11c-.14-.02-.27-.03-.4-.04-.14-.01-.26-.03-.39-.04h-.09v-.14c.01-.11.02-.21.06-.31.03-.15.07-.27.14-.38.08-.16.21-.29.4-.41.13-.09.27-.15.45-.19.07-.02.15-.03.24-.04.11-.01.22-.01.33,0,.1,0,.23.02.33.04.19.05.34.13.48.24.17.13.29.29.39.5.04.09.07.18.08.31.01.1.02.18.01.27,0,.21-.05.44-.16.64-.07.15-.17.29-.24.4-.09.11-.18.2-.26.29-.11.13-.24.25-.37.35-.11.12-.24.23-.35.35-.04.04-.07.08-.1.12h1.48v.11c.01.77,0,.78-.01.81Z"/>
    <path d="m632.04,309.97l-.03.05h-2.95v-.16c.01-.05.01-.09.02-.11.01-.08.02-.14.05-.21.07-.24.18-.46.32-.66.08-.12.19-.24.28-.34.16-.17.32-.34.49-.5l.04-.04c.15-.14.28-.27.42-.41.02-.03.06-.06.09-.11.03-.03.06-.06.08-.11.09-.12.15-.23.17-.33v-.02c.01-.06.02-.11.02-.17,0,0,0-.02-.01-.04,0-.04,0-.06-.01-.11-.05-.13-.13-.21-.26-.25-.08-.03-.22-.03-.35.01-.1.04-.18.11-.22.21-.02.05-.03.12-.04.17s-.02.1-.02.13v.12h-.11c-.14-.02-.27-.03-.4-.04-.14-.01-.26-.03-.39-.04h-.09v-.14c.01-.11.02-.21.06-.31.03-.15.07-.27.14-.38.08-.16.21-.29.4-.41.13-.09.27-.15.45-.19.07-.02.15-.03.24-.04.11-.01.22-.01.33,0,.1,0,.23.02.33.04.19.05.34.13.48.24.17.13.29.29.39.5.04.09.07.18.08.31.01.1.02.18.01.27,0,.21-.05.44-.16.64-.07.15-.17.29-.24.4-.09.11-.18.2-.26.29-.11.13-.24.25-.37.35-.11.12-.24.23-.35.35-.04.04-.07.08-.1.12h1.48v.11c.01.77,0,.78-.01.81Z"/>
    <path d="m722.04,309.97l-.03.05h-2.95v-.16c.01-.05.01-.09.02-.11.01-.08.02-.14.05-.21.07-.24.18-.46.32-.66.08-.12.19-.24.28-.34.16-.17.32-.34.49-.5l.04-.04c.15-.14.28-.27.42-.41.02-.03.06-.06.09-.11.03-.03.06-.06.08-.11.09-.12.15-.23.17-.33v-.02c.01-.06.02-.11.02-.17,0,0,0-.02-.01-.04,0-.04,0-.06-.01-.11-.05-.13-.13-.21-.26-.25-.08-.03-.22-.03-.35.01-.1.04-.18.11-.22.21-.02.05-.03.12-.04.17s-.02.1-.02.13v.12h-.11c-.14-.02-.27-.03-.4-.04-.14-.01-.26-.03-.39-.04h-.09v-.14c.01-.11.02-.21.06-.31.03-.15.07-.27.14-.38.08-.16.21-.29.4-.41.13-.09.27-.15.45-.19.07-.02.15-.03.24-.04.11-.01.22-.01.33,0,.1,0,.23.02.33.04.19.05.34.13.48.24.17.13.29.29.39.5.04.09.07.18.08.31.01.1.02.18.01.27,0,.21-.05.44-.16.64-.07.15-.17.29-.24.4-.09.11-.18.2-.26.29-.11.13-.24.25-.37.35-.11.12-.24.23-.35.35-.04.04-.07.08-.1.12h1.48v.11c.01.77,0,.78-.01.81Z"/>
    <path d="m86.94,459.97l-.03.05h-2.95v-.16c.01-.05.01-.09.02-.11.01-.08.02-.14.05-.21.07-.24.18-.46.32-.66.08-.12.19-.24.28-.34.16-.17.32-.34.49-.5l.04-.04c.15-.14.28-.27.42-.41.02-.03.06-.06.09-.11.03-.03.06-.06.08-.11.09-.12.15-.23.17-.33v-.02c.01-.06.02-.11.02-.17,0,0,0-.02-.01-.04,0-.04,0-.06-.01-.11-.05-.13-.13-.21-.26-.25-.08-.03-.22-.03-.35.01-.1.04-.18.11-.22.21-.02.05-.03.12-.04.17s-.02.1-.02.13v.12h-.11c-.14-.02-.27-.03-.4-.04-.14-.01-.26-.03-.39-.04h-.09v-.14c.01-.11.02-.21.06-.31.03-.15.07-.27.14-.38.08-.16.21-.29.4-.41.13-.09.27-.15.45-.19.07-.02.15-.03.24-.04.11-.01.22-.01.33,0,.1,0,.23.02.33.04.19.05.34.13.48.24.17.13.29.29.39.5.04.09.07.18.08.31.01.1.02.18.01.27,0,.21-.05.44-.16.64-.07.15-.17.29-.24.4-.09.11-.18.2-.26.29-.11.13-.24.25-.37.35-.11.12-.24.23-.35.35-.04.04-.07.08-.1.12h1.48v.11c.01.77,0,.78-.01.81Z"/>
    <path d="m175.94,459.97l-.03.05h-2.95v-.16c.01-.05.01-.09.02-.11.01-.08.02-.14.05-.21.07-.24.18-.46.32-.66.08-.12.19-.24.28-.34.16-.17.32-.34.49-.5l.04-.04c.15-.14.28-.27.42-.41.02-.03.06-.06.09-.11.03-.03.06-.06.08-.11.09-.12.15-.23.17-.33v-.02c.01-.06.02-.11.02-.17,0,0,0-.02-.01-.04,0-.04,0-.06-.01-.11-.05-.13-.13-.21-.26-.25-.08-.03-.22-.03-.35.01-.1.04-.18.11-.22.21-.02.05-.03.12-.04.17s-.02.1-.02.13v.12h-.11c-.14-.02-.27-.03-.4-.04-.14-.01-.26-.03-.39-.04h-.09v-.14c.01-.11.02-.21.06-.31.03-.15.07-.27.14-.38.08-.16.21-.29.4-.41.13-.09.27-.15.45-.19.07-.02.15-.03.24-.04.11-.01.22-.01.33,0,.1,0,.23.02.33.04.19.05.34.13.48.24.17.13.29.29.39.5.04.09.07.18.08.31.01.1.02.18.01.27,0,.21-.05.44-.16.64-.07.15-.17.29-.24.4-.09.11-.18.2-.26.29-.11.13-.24.25-.37.35-.11.12-.24.23-.35.35-.04.04-.07.08-.1.12h1.48v.11c.01.77,0,.78-.01.81Z"/>
    <path d="m265.94,459.97l-.03.05h-2.95v-.16c.01-.05.01-.09.02-.11.01-.08.02-.14.05-.21.07-.24.18-.46.32-.66.08-.12.19-.24.28-.34.16-.17.32-.34.49-.5l.04-.04c.15-.14.28-.27.42-.41.02-.03.06-.06.09-.11.03-.03.06-.06.08-.11.09-.12.15-.23.17-.33v-.02c.01-.06.02-.11.02-.17,0,0,0-.02-.01-.04,0-.04,0-.06-.01-.11-.05-.13-.13-.21-.26-.25-.08-.03-.22-.03-.35.01-.1.04-.18.11-.22.21-.02.05-.03.12-.04.17s-.02.1-.02.13v.12h-.11c-.14-.02-.27-.03-.4-.04-.14-.01-.26-.03-.39-.04h-.09v-.14c.01-.11.02-.21.06-.31.03-.15.07-.27.14-.38.08-.16.21-.29.4-.41.13-.09.27-.15.45-.19.07-.02.15-.03.24-.04.11-.01.22-.01.33,0,.1,0,.23.02.33.04.19.05.34.13.48.24.17.13.29.29.39.5.04.09.07.18.08.31.01.1.02.18.01.27,0,.21-.05.44-.16.64-.07.15-.17.29-.24.4-.09.11-.18.2-.26.29-.11.13-.24.25-.37.35-.11.12-.24.23-.35.35-.04.04-.07.08-.1.12h1.48v.11c.01.77,0,.78-.01.81Z"/>
    <path d="m355.94,459.97l-.03.05h-2.95v-.16c.01-.05.01-.09.02-.11.01-.08.02-.14.05-.21.07-.24.18-.46.32-.66.08-.12.19-.24.28-.34.16-.17.32-.34.49-.5l.04-.04c.15-.14.28-.27.42-.41.02-.03.06-.06.09-.11.03-.03.06-.06.08-.11.09-.12.15-.23.17-.33v-.02c.01-.06.02-.11.02-.17,0,0,0-.02-.01-.04,0-.04,0-.06-.01-.11-.05-.13-.13-.21-.26-.25-.08-.03-.22-.03-.35.01-.1.04-.18.11-.22.21-.02.05-.03.12-.04.17s-.02.1-.02.13v.12h-.11c-.14-.02-.27-.03-.4-.04-.14-.01-.26-.03-.39-.04h-.09v-.14c.01-.11.02-.21.06-.31.03-.15.07-.27.14-.38.08-.16.21-.29.4-.41.13-.09.27-.15.45-.19.07-.02.15-.03.24-.04.11-.01.22-.01.33,0,.1,0,.23.02.33.04.19.05.34.13.48.24.17.13.29.29.39.5.04.09.07.18.08.31.01.1.02.18.01.27,0,.21-.05.44-.16.64-.07.15-.17.29-.24.4-.09.11-.18.2-.26.29-.11.13-.24.25-.37.35-.11.12-.24.23-.35.35-.04.04-.07.08-.1.12h1.48v.11c.01.77,0,.78-.01.81Z"/>
    <path d="m454.04,459.97l-.03.05h-2.95v-.16c.01-.05.01-.09.02-.11.01-.08.02-.14.05-.21.07-.24.18-.46.32-.66.08-.12.19-.24.28-.34.16-.17.32-.34.49-.5l.04-.04c.15-.14.28-.27.42-.41.02-.03.06-.06.09-.11.03-.03.06-.06.08-.11.09-.12.15-.23.17-.33v-.02c.01-.06.02-.11.02-.17,0,0,0-.02-.01-.04,0-.04,0-.06-.01-.11-.05-.13-.13-.21-.26-.25-.08-.03-.22-.03-.35.01-.1.04-.18.11-.22.21-.02.05-.03.12-.04.17s-.02.1-.02.13v.12h-.11c-.14-.02-.27-.03-.4-.04-.14-.01-.26-.03-.39-.04h-.09v-.14c.01-.11.02-.21.06-.31.03-.15.07-.27.14-.38.08-.16.21-.29.4-.41.13-.09.27-.15.45-.19.07-.02.15-.03.24-.04.11-.01.22-.01.33,0,.1,0,.23.02.33.04.19.05.34.13.48.24.17.13.29.29.39.5.04.09.07.18.08.31.01.1.02.18.01.27,0,.21-.05.44-.16.64-.07.15-.17.29-.24.4-.09.11-.18.2-.26.29-.11.13-.24.25-.37.35-.11.12-.24.23-.35.35-.04.04-.07.08-.1.12h1.48v.11c.01.77,0,.78-.01.81Z"/>
    <path d="m542.04,459.97l-.03.05h-2.95v-.16c.01-.05.01-.09.02-.11.01-.08.02-.14.05-.21.07-.24.18-.46.32-.66.08-.12.19-.24.28-.34.16-.17.32-.34.49-.5l.04-.04c.15-.14.28-.27.42-.41.02-.03.06-.06.09-.11.03-.03.06-.06.08-.11.09-.12.15-.23.17-.33v-.02c.01-.06.02-.11.02-.17,0,0,0-.02-.01-.04,0-.04,0-.06-.01-.11-.05-.13-.13-.21-.26-.25-.08-.03-.22-.03-.35.01-.1.04-.18.11-.22.21-.02.05-.03.12-.04.17s-.02.1-.02.13v.12h-.11c-.14-.02-.27-.03-.4-.04-.14-.01-.26-.03-.39-.04h-.09v-.14c.01-.11.02-.21.06-.31.03-.15.07-.27.14-.38.08-.16.21-.29.4-.41.13-.09.27-.15.45-.19.07-.02.15-.03.24-.04.11-.01.22-.01.33,0,.1,0,.23.02.33.04.19.05.34.13.48.24.17.13.29.29.39.5.04.09.07.18.08.31.01.1.02.18.01.27,0,.21-.05.44-.16.64-.07.15-.17.29-.24.4-.09.11-.18.2-.26.29-.11.13-.24.25-.37.35-.11.12-.24.23-.35.35-.04.04-.07.08-.1.12h1.48v.11c.01.77,0,.78-.01.81Z"/>
    <path d="m632.04,459.97l-.03.05h-2.95v-.16c.01-.05.01-.09.02-.11.01-.08.02-.14.05-.21.07-.24.18-.46.32-.66.08-.12.19-.24.28-.34.16-.17.32-.34.49-.5l.04-.04c.15-.14.28-.27.42-.41.02-.03.06-.06.09-.11.03-.03.06-.06.08-.11.09-.12.15-.23.17-.33v-.02c.01-.06.02-.11.02-.17,0,0,0-.02-.01-.04,0-.04,0-.06-.01-.11-.05-.13-.13-.21-.26-.25-.08-.03-.22-.03-.35.01-.1.04-.18.11-.22.21-.02.05-.03.12-.04.17s-.02.1-.02.13v.12h-.11c-.14-.02-.27-.03-.4-.04-.14-.01-.26-.03-.39-.04h-.09v-.14c.01-.11.02-.21.06-.31.03-.15.07-.27.14-.38.08-.16.21-.29.4-.41.13-.09.27-.15.45-.19.07-.02.15-.03.24-.04.11-.01.22-.01.33,0,.1,0,.23.02.33.04.19.05.34.13.48.24.17.13.29.29.39.5.04.09.07.18.08.31.01.1.02.18.01.27,0,.21-.05.44-.16.64-.07.15-.17.29-.24.4-.09.11-.18.2-.26.29-.11.13-.24.25-.37.35-.11.12-.24.23-.35.35-.04.04-.07.08-.1.12h1.48v.11c.01.77,0,.78-.01.81Z"/>
    <path d="m722.04,459.97l-.03.05h-2.95v-.16c.01-.05.01-.09.02-.11.01-.08.02-.14.05-.21.07-.24.18-.46.32-.66.08-.12.19-.24.28-.34.16-.17.32-.34.49-.5l.04-.04c.15-.14.28-.27.42-.41.02-.03.06-.06.09-.11.03-.03.06-.06.08-.11.09-.12.15-.23.17-.33v-.02c.01-.06.02-.11.02-.17,0,0,0-.02-.01-.04,0-.04,0-.06-.01-.11-.05-.13-.13-.21-.26-.25-.08-.03-.22-.03-.35.01-.1.04-.18.11-.22.21-.02.05-.03.12-.04.17s-.02.1-.02.13v.12h-.11c-.14-.02-.27-.03-.4-.04-.14-.01-.26-.03-.39-.04h-.09v-.14c.01-.11.02-.21.06-.31.03-.15.07-.27.14-.38.08-.16.21-.29.4-.41.13-.09.27-.15.45-.19.07-.02.15-.03.24-.04.11-.01.22-.01.33,0,.1,0,.23.02.33.04.19.05.34.13.48.24.17.13.29.29.39.5.04.09.07.18.08.31.01.1.02.18.01.27,0,.21-.05.44-.16.64-.07.15-.17.29-.24.4-.09.11-.18.2-.26.29-.11.13-.24.25-.37.35-.11.12-.24.23-.35.35-.04.04-.07.08-.1.12h1.48v.11c.01.77,0,.78-.01.81Z"/>
    <path d="m86.94,559.97l-.03.05h-2.95v-.16c.01-.05.01-.09.02-.11.01-.08.02-.14.05-.21.07-.24.18-.46.32-.66.08-.12.19-.24.28-.34.16-.17.32-.34.49-.5l.04-.04c.15-.14.28-.27.42-.41.02-.03.06-.06.09-.11.03-.03.06-.06.08-.11.09-.12.15-.23.17-.33v-.02c.01-.06.02-.11.02-.17,0,0,0-.02-.01-.04,0-.04,0-.06-.01-.11-.05-.13-.13-.21-.26-.25-.08-.03-.22-.03-.35.01-.1.04-.18.11-.22.21-.02.05-.03.12-.04.17s-.02.1-.02.13v.12h-.11c-.14-.02-.27-.03-.4-.04-.14-.01-.26-.03-.39-.04h-.09v-.14c.01-.11.02-.21.06-.31.03-.15.07-.27.14-.38.08-.16.21-.29.4-.41.13-.09.27-.15.45-.19.07-.02.15-.03.24-.04.11-.01.22-.01.33,0,.1,0,.23.02.33.04.19.05.34.13.48.24.17.13.29.29.39.5.04.09.07.18.08.31.01.1.02.18.01.27,0,.21-.05.44-.16.64-.07.15-.17.29-.24.4-.09.11-.18.2-.26.29-.11.13-.24.25-.37.35-.11.12-.24.23-.35.35-.04.04-.07.08-.1.12h1.48v.11c.01.77,0,.78-.01.81Z"/>
    <path d="m175.94,559.97l-.03.05h-2.95v-.16c.01-.05.01-.09.02-.11.01-.08.02-.14.05-.21.07-.24.18-.46.32-.66.08-.12.19-.24.28-.34.16-.17.32-.34.49-.5l.04-.04c.15-.14.28-.27.42-.41.02-.03.06-.06.09-.11.03-.03.06-.06.08-.11.09-.12.15-.23.17-.33v-.02c.01-.06.02-.11.02-.17,0,0,0-.02-.01-.04,0-.04,0-.06-.01-.11-.05-.13-.13-.21-.26-.25-.08-.03-.22-.03-.35.01-.1.04-.18.11-.22.21-.02.05-.03.12-.04.17s-.02.1-.02.13v.12h-.11c-.14-.02-.27-.03-.4-.04-.14-.01-.26-.03-.39-.04h-.09v-.14c.01-.11.02-.21.06-.31.03-.15.07-.27.14-.38.08-.16.21-.29.4-.41.13-.09.27-.15.45-.19.07-.02.15-.03.24-.04.11-.01.22-.01.33,0,.1,0,.23.02.33.04.19.05.34.13.48.24.17.13.29.29.39.5.04.09.07.18.08.31.01.1.02.18.01.27,0,.21-.05.44-.16.64-.07.15-.17.29-.24.4-.09.11-.18.2-.26.29-.11.13-.24.25-.37.35-.11.12-.24.23-.35.35-.04.04-.07.08-.1.12h1.48v.11c.01.77,0,.78-.01.81Z"/>
    <path d="m265.94,559.97l-.03.05h-2.95v-.16c.01-.05.01-.09.02-.11.01-.08.02-.14.05-.21.07-.24.18-.46.32-.66.08-.12.19-.24.28-.34.16-.17.32-.34.49-.5l.04-.04c.15-.14.28-.27.42-.41.02-.03.06-.06.09-.11.03-.03.06-.06.08-.11.09-.12.15-.23.17-.33v-.02c.01-.06.02-.11.02-.17,0,0,0-.02-.01-.04,0-.04,0-.06-.01-.11-.05-.13-.13-.21-.26-.25-.08-.03-.22-.03-.35.01-.1.04-.18.11-.22.21-.02.05-.03.12-.04.17s-.02.1-.02.13v.12h-.11c-.14-.02-.27-.03-.4-.04-.14-.01-.26-.03-.39-.04h-.09v-.14c.01-.11.02-.21.06-.31.03-.15.07-.27.14-.38.08-.16.21-.29.4-.41.13-.09.27-.15.45-.19.07-.02.15-.03.24-.04.11-.01.22-.01.33,0,.1,0,.23.02.33.04.19.05.34.13.48.24.17.13.29.29.39.5.04.09.07.18.08.31.01.1.02.18.01.27,0,.21-.05.44-.16.64-.07.15-.17.29-.24.4-.09.11-.18.2-.26.29-.11.13-.24.25-.37.35-.11.12-.24.23-.35.35-.04.04-.07.08-.1.12h1.48v.11c.01.77,0,.78-.01.81Z"/>
    <path d="m356.94,559.97l-.03.05h-2.95v-.16c.01-.05.01-.09.02-.11.01-.08.02-.14.05-.21.07-.24.18-.46.32-.66.08-.12.19-.24.28-.34.16-.17.32-.34.49-.5l.04-.04c.15-.14.28-.27.42-.41.02-.03.06-.06.09-.11.03-.03.06-.06.08-.11.09-.12.15-.23.17-.33v-.02c.01-.06.02-.11.02-.17,0,0,0-.02-.01-.04,0-.04,0-.06-.01-.11-.05-.13-.13-.21-.26-.25-.08-.03-.22-.03-.35.01-.1.04-.18.11-.22.21-.02.05-.03.12-.04.17s-.02.1-.02.13v.12h-.11c-.14-.02-.27-.03-.4-.04-.14-.01-.26-.03-.39-.04h-.09v-.14c.01-.11.02-.21.06-.31.03-.15.07-.27.14-.38.08-.16.21-.29.4-.41.13-.09.27-.15.45-.19.07-.02.15-.03.24-.04.11-.01.22-.01.33,0,.1,0,.23.02.33.04.19.05.34.13.48.24.17.13.29.29.39.5.04.09.07.18.08.31.01.1.02.18.01.27,0,.21-.05.44-.16.64-.07.15-.17.29-.24.4-.09.11-.18.2-.26.29-.11.13-.24.25-.37.35-.11.12-.24.23-.35.35-.04.04-.07.08-.1.12h1.48v.11c.01.77,0,.78-.01.81Z"/>
    <path d="m454.04,559.97l-.03.05h-2.95v-.16c.01-.05.01-.09.02-.11.01-.08.02-.14.05-.21.07-.24.18-.46.32-.66.08-.12.19-.24.28-.34.16-.17.32-.34.49-.5l.04-.04c.15-.14.28-.27.42-.41.02-.03.06-.06.09-.11.03-.03.06-.06.08-.11.09-.12.15-.23.17-.33v-.02c.01-.06.02-.11.02-.17,0,0,0-.02-.01-.04,0-.04,0-.06-.01-.11-.05-.13-.13-.21-.26-.25-.08-.03-.22-.03-.35.01-.1.04-.18.11-.22.21-.02.05-.03.12-.04.17s-.02.1-.02.13v.12h-.11c-.14-.02-.27-.03-.4-.04-.14-.01-.26-.03-.39-.04h-.09v-.14c.01-.11.02-.21.06-.31.03-.15.07-.27.14-.38.08-.16.21-.29.4-.41.13-.09.27-.15.45-.19.07-.02.15-.03.24-.04.11-.01.22-.01.33,0,.1,0,.23.02.33.04.19.05.34.13.48.24.17.13.29.29.39.5.04.09.07.18.08.31.01.1.02.18.01.27,0,.21-.05.44-.16.64-.07.15-.17.29-.24.4-.09.11-.18.2-.26.29-.11.13-.24.25-.37.35-.11.12-.24.23-.35.35-.04.04-.07.08-.1.12h1.48v.11c.01.77,0,.78-.01.81Z"/>
    <path d="m542.04,559.97l-.03.05h-2.95v-.16c.01-.05.01-.09.02-.11.01-.08.02-.14.05-.21.07-.24.18-.46.32-.66.08-.12.19-.24.28-.34.16-.17.32-.34.49-.5l.04-.04c.15-.14.28-.27.42-.41.02-.03.06-.06.09-.11.03-.03.06-.06.08-.11.09-.12.15-.23.17-.33v-.02c.01-.06.02-.11.02-.17,0,0,0-.02-.01-.04,0-.04,0-.06-.01-.11-.05-.13-.13-.21-.26-.25-.08-.03-.22-.03-.35.01-.1.04-.18.11-.22.21-.02.05-.03.12-.04.17s-.02.1-.02.13v.12h-.11c-.14-.02-.27-.03-.4-.04-.14-.01-.26-.03-.39-.04h-.09v-.14c.01-.11.02-.21.06-.31.03-.15.07-.27.14-.38.08-.16.21-.29.4-.41.13-.09.27-.15.45-.19.07-.02.15-.03.24-.04.11-.01.22-.01.33,0,.1,0,.23.02.33.04.19.05.34.13.48.24.17.13.29.29.39.5.04.09.07.18.08.31.01.1.02.18.01.27,0,.21-.05.44-.16.64-.07.15-.17.29-.24.4-.09.11-.18.2-.26.29-.11.13-.24.25-.37.35-.11.12-.24.23-.35.35-.04.04-.07.08-.1.12h1.48v.11c.01.77,0,.78-.01.81Z"/>
    <path d="m632.04,559.97l-.03.05h-2.95v-.16c.01-.05.01-.09.02-.11.01-.08.02-.14.05-.21.07-.24.18-.46.32-.66.08-.12.19-.24.28-.34.16-.17.32-.34.49-.5l.04-.04c.15-.14.28-.27.42-.41.02-.03.06-.06.09-.11.03-.03.06-.06.08-.11.09-.12.15-.23.17-.33v-.02c.01-.06.02-.11.02-.17,0,0,0-.02-.01-.04,0-.04,0-.06-.01-.11-.05-.13-.13-.21-.26-.25-.08-.03-.22-.03-.35.01-.1.04-.18.11-.22.21-.02.05-.03.12-.04.17s-.02.1-.02.13v.12h-.11c-.14-.02-.27-.03-.4-.04-.14-.01-.26-.03-.39-.04h-.09v-.14c.01-.11.02-.21.06-.31.03-.15.07-.27.14-.38.08-.16.21-.29.4-.41.13-.09.27-.15.45-.19.07-.02.15-.03.24-.04.11-.01.22-.01.33,0,.1,0,.23.02.33.04.19.05.34.13.48.24.17.13.29.29.39.5.04.09.07.18.08.31.01.1.02.18.01.27,0,.21-.05.44-.16.64-.07.15-.17.29-.24.4-.09.11-.18.2-.26.29-.11.13-.24.25-.37.35-.11.12-.24.23-.35.35-.04.04-.07.08-.1.12h1.48v.11c.01.77,0,.78-.01.81Z"/>
    <path d="m722.04,559.97l-.03.05h-2.95v-.16c.01-.05.01-.09.02-.11.01-.08.02-.14.05-.21.07-.24.18-.46.32-.66.08-.12.19-.24.28-.34.16-.17.32-.34.49-.5l.04-.04c.15-.14.28-.27.42-.41.02-.03.06-.06.09-.11.03-.03.06-.06.08-.11.09-.12.15-.23.17-.33v-.02c.01-.06.02-.11.02-.17,0,0,0-.02-.01-.04,0-.04,0-.06-.01-.11-.05-.13-.13-.21-.26-.25-.08-.03-.22-.03-.35.01-.1.04-.18.11-.22.21-.02.05-.03.12-.04.17s-.02.1-.02.13v.12h-.11c-.14-.02-.27-.03-.4-.04-.14-.01-.26-.03-.39-.04h-.09v-.14c.01-.11.02-.21.06-.31.03-.15.07-.27.14-.38.08-.16.21-.29.4-.41.13-.09.27-.15.45-.19.07-.02.15-.03.24-.04.11-.01.22-.01.33,0,.1,0,.23.02.33.04.19.05.34.13.48.24.17.13.29.29.39.5.04.09.07.18.08.31.01.1.02.18.01.27,0,.21-.05.44-.16.64-.07.15-.17.29-.24.4-.09.11-.18.2-.26.29-.11.13-.24.25-.37.35-.11.12-.24.23-.35.35-.04.04-.07.08-.1.12h1.48v.11c.01.77,0,.78-.01.81Z"/>
  </g>
  <text class="cls-7" transform="translate(360.73 43.36)"><tspan x="0" y="0">0 / 2</tspan></text>
  <text class="cls-12" transform="translate(132.42 89.96)"><tspan class="cls-9" x="0" y="0">Type 2</tspan><tspan class="cls-4" x="82.98" y="0" xml:space="preserve"> - </tspan><tspan class="cls-5" x="105.95" y="0">Shift</tspan><tspan class="cls-4" x="167.96" y="0" xml:space="preserve">    </tspan></text>
  <text class="cls-12" transform="translate(442.7 89.96)"><tspan class="cls-9" x="0" y="0">Type 3</tspan><tspan class="cls-4" x="82.98" y="0" xml:space="preserve"> - </tspan><tspan class="cls-1" x="105.95" y="0">Cr</tspan><tspan class="cls-3" x="135.6" y="0">oss</tspan><tspan class="cls-2" x="178.34" y="0">-</tspan><tspan class="cls-5" x="187.22" y="0">Shift</tspan><tspan class="cls-4" x="249.23" y="0" xml:space="preserve">    </tspan></text>
</svg>