<?xml version="1.0" encoding="UTF-8"?>
<svg id="Layer_1" data-name="Layer 1" xmlns="http://www.w3.org/2000/svg" viewBox="0 0 792 612">
  <defs>
    <style>
      .cls-1 {
        fill: #00aeef;
      }

      .cls-1, .cls-2, .cls-3, .cls-4, .cls-5, .cls-6, .cls-7, .cls-8, .cls-9, .cls-10 {
        font-weight: 700;
      }

      .cls-1, .cls-2, .cls-3, .cls-4, .cls-5, .cls-6, .cls-8, .cls-9, .cls-10 {
        font-family: Cambria-BoldItalic, Cambria;
      }

      .cls-2 {
        letter-spacing: 0em;
      }

      .cls-2, .cls-6 {
        fill: #00a14b;
      }

      .cls-3 {
        letter-spacing: -.03em;
      }

      .cls-3, .cls-11, .cls-12, .cls-13, .cls-14, .cls-7, .cls-8, .cls-15 {
        fill: #231f20;
      }

      .cls-11 {
        stroke-width: .5px;
      }

      .cls-11, .cls-13 {
        stroke: #231f20;
        stroke-miterlimit: 10;
      }

      .cls-4, .cls-5, .cls-10 {
        fill: #f26522;
      }

      .cls-5 {
        letter-spacing: 0em;
      }

      .cls-16 {
        fill: #2e3192;
      }

      .cls-12 {
        font-family: Cambria, Cambria;
        font-size: 30px;
      }

      .cls-13 {
        stroke-width: 2px;
      }

      .cls-14 {
        font-family: Cambria-Italic, Cambria;
      }

      .cls-17 {
        font-size: 25px;
      }

      .cls-17, .cls-7 {
        font-style: italic;
      }

      .cls-7 {
        font-family: Georgia-BoldItalic, Georgia;
        font-size: 9px;
      }

      .cls-18 {
        fill: #ed1c24;
      }

      .cls-9 {
        fill: #7f3f98;
      }

      .cls-10 {
        letter-spacing: 0em;
      }
    </style>
  </defs>
  <g>
    <path class="cls-15" d="m81.44,96.37c3.22,0,3.22-5,0-5s-3.22,5,0,5h0Z"/>
    <path class="cls-15" d="m111.44,126.37c3.22,0,3.22-5,0-5s-3.22,5,0,5h0Z"/>
    <path class="cls-15" d="m81.44,156.37c3.22,0,3.22-5,0-5s-3.22,5,0,5h0Z"/>
    <path class="cls-15" d="m51.44,126.37c3.22,0,3.22-5,0-5s-3.22,5,0,5h0Z"/>
    <path class="cls-15" d="m81.44,125c1.45,0,1.45-2.25,0-2.25s-1.45,2.25,0,2.25h0Z"/>
  </g>
  <g>
    <path class="cls-15" d="m171.44,96.37c3.22,0,3.22-5,0-5s-3.22,5,0,5h0Z"/>
    <path class="cls-15" d="m201.44,126.37c3.22,0,3.22-5,0-5s-3.22,5,0,5h0Z"/>
    <path class="cls-15" d="m171.44,156.37c3.22,0,3.22-5,0-5s-3.22,5,0,5h0Z"/>
    <path class="cls-15" d="m141.44,126.37c3.22,0,3.22-5,0-5s-3.22,5,0,5h0Z"/>
    <path class="cls-15" d="m171.44,125c1.45,0,1.45-2.25,0-2.25s-1.45,2.25,0,2.25h0Z"/>
  </g>
  <g>
    <path class="cls-15" d="m261.44,156.37c3.22,0,3.22-5,0-5s-3.22,5,0,5h0Z"/>
    <path class="cls-15" d="m291.44,126.37c3.22,0,3.22-5,0-5s-3.22,5,0,5h0Z"/>
    <path class="cls-15" d="m261.44,96.37c3.22,0,3.22-5,0-5s-3.22,5,0,5h0Z"/>
    <path class="cls-15" d="m231.44,126.37c3.22,0,3.22-5,0-5s-3.22,5,0,5h0Z"/>
    <path class="cls-15" d="m261.44,125c1.45,0,1.45-2.25,0-2.25s-1.45,2.25,0,2.25h0Z"/>
  </g>
  <g>
    <path class="cls-15" d="m351.44,156.37c3.22,0,3.22-5,0-5s-3.22,5,0,5h0Z"/>
    <path class="cls-15" d="m381.44,126.37c3.22,0,3.22-5,0-5s-3.22,5,0,5h0Z"/>
    <path class="cls-15" d="m351.44,96.37c3.22,0,3.22-5,0-5s-3.22,5,0,5h0Z"/>
    <path class="cls-15" d="m321.44,126.37c3.22,0,3.22-5,0-5s-3.22,5,0,5h0Z"/>
    <path class="cls-15" d="m351.44,125c1.45,0,1.45-2.25,0-2.25s-1.45,2.25,0,2.25h0Z"/>
  </g>
  <path class="cls-15" d="m86.6,163.62c-.46-.06-.96.28-1.19,1.14-.42,1.54-.92,3.7-1.44,5.63-1.11-2.72-1.86-4.39-2.5-4.38-.01,0-.02,0-.03.01-.01-.01-.02-.01-.03-.01-.64-.01-1.39,1.65-2.5,4.38-.51-1.93-1.02-4.09-1.44-5.63-.24-.86-.73-1.2-1.19-1.14-.59.07-.98.49-.74,1.25.25.81,1.84,6.07,2.3,7.72.47,1.65,1.59.9,1.8.49.21-.41,1.36-3.67,1.8-4.59.44.92,1.59,4.18,1.8,4.59.21.41,1.33,1.16,1.8-.49.46-1.64,2.05-6.9,2.3-7.72.24-.76-.15-1.18-.74-1.25Z"/>
  <path class="cls-15" d="m264.79,164.86l-4.37,8.3c-.15.29-.45.46-.75.46-.13,0-.26-.04-.39-.1-.2-.11-.35-.28-.42-.5-.07-.21-.05-.45.06-.65l1.88-3.58-2.53-3.62c-.12-.11-.2-.27-.24-.47-.05-.25.03-.53.2-.71.15-.17.35-.27.58-.28.22,0,.45.07.61.21l2.2,3.29,1.65-3.14c.12-.2.29-.35.51-.42.22-.07.45-.04.65.07.22.12.38.33.43.59.03.19,0,.38-.08.55Z"/>
  <path class="cls-15" d="m175.34,172.12c.16.19.21.44.19.68-.03.24-.16.46-.34.61-.4.3-.98.23-1.3-.17l-2.45-3.14-2.45,3.14c-.18.23-.45.36-.72.36-.19,0-.4-.07-.57-.19-.19-.15-.32-.37-.35-.61-.03-.24.03-.49.19-.68l2.73-3.51-2.73-3.51c-.13-.17-.19-.36-.19-.57,0-.28.14-.56.36-.73.19-.15.42-.21.67-.19.24.03.47.16.61.35l2.45,3.14,2.44-3.14c.33-.41.91-.48,1.31-.16.22.17.35.43.35.72,0,.2-.07.4-.19.57l-2.73,3.51,2.73,3.51Z"/>
  <path class="cls-15" d="m352.41,165.35h-3.64c-1.34,0-1.31-1.73,0-1.73,5.4,0,5.35.02,5.67.38.23.27.43.73.15,1.14-1.71,2.48-4.54,6.52-4.54,6.52,0,0,3.43,0,4.33,0,1.35,0,1.4,1.91.13,1.91-8.37,0-9.53,1.13-2.09-8.23Z"/>
  <g>
    <rect class="cls-18" x="83.14" y="122.57" width="25.25" height="2.59" rx=".99" ry=".99"/>
    <rect class="cls-16" x="54.49" y="122.57" width="25.25" height="2.59" rx=".99" ry=".99"/>
  </g>
  <g>
    <rect class="cls-18" x="173.14" y="122.57" width="25.25" height="2.59" rx=".99" ry=".99"/>
    <rect class="cls-16" x="144.49" y="122.57" width="25.25" height="2.59" rx=".99" ry=".99"/>
  </g>
  <g>
    <rect class="cls-16" x="258.16" y="125.49" width="2.59" height="25.25" rx=".99" ry=".99"/>
    <rect class="cls-18" x="262.13" y="125.49" width="2.59" height="25.25" rx=".99" ry=".99"/>
  </g>
  <g>
    <rect class="cls-16" x="348.16" y="125.49" width="2.59" height="25.25" rx=".99" ry=".99"/>
    <rect class="cls-18" x="352.13" y="125.49" width="2.59" height="25.25" rx=".99" ry=".99"/>
  </g>
  <path class="cls-18" d="m111.36,133.18l-2.51-2.58c.81,5.96-3.35,12.57-8.87,13.56-.74,6.04-7.46,9.06-13.79,8.92-.34.01-1.02-.16-1.12-.9,0-.05-.01-.09-.01-.13,0-.65.65-.99,1.02-1.08,6.93-.38,10.66-2.49,11.75-6.64-2,.15-4.24-1.02-5.24-2.8-.81-1.44-.64-2.99.45-4.26,1.19-1.2,2.68-1.47,4.12-.75,1.87.94,3.19,3.3,3.05,5.39,4.55-1.17,6.99-5.73,6.6-11.31l-2.63,2.58s-1.1-1.05-.49-1.87c.85-1.17,4.07-3.94,4.07-3.94,0,0,3.39,3.01,4.07,3.94.61.82-.47,1.86-.47,1.86Zm-13.2,8.57c0-1.77-.89-2.81-1.81-3.22-.78-.34-1.5-.36-1.9.11-.44.53-.37,1.55.35,2.64.74.78,1.69,1.07,3.33,1.03.02-.2.03-.38.03-.56Z"/>
  <path class="cls-18" d="m175.76,153.14c.7-.03.91-.61.87-1.41-.03-.8-.32-3.41,1.06-5,1.37-1.59,4.94-.62,7.08-.09l.48.13-.19-.46c-1.38-3.32-1.52-5.55-.44-6.61,1.86-1.84,6.83.27,6.88.29l.62.27-.29-.61c-1.22-2.55-1.63-4.68-.85-5.97.64-1.07,2.12-1.71,4.1-1.71.27.01.99-.02,1.4-.01l-2.59,2.54s1.05,1.08,1.87.47c.94-.69,3.95-4.07,3.95-4.07,0,0-2.77-3.23-3.95-4.08-.82-.6-1.87.5-1.87.5l2.2,2.23c.06.04.11.09.15.15l.22.23c-3-.11-5.44.56-6.86,2.41-1.31,1.7-.98,4.1-.8,4.97-1.03-.21-3.84-.88-5.54.78-1.74,1.7-1.35,4.77-1.2,5.82-.96-.14-3.75-.49-5.56,1.28-1.8,1.77-1.98,2.72-1.81,6.73.03.88.37,1.25,1.07,1.22Z"/>
  <path class="cls-18" d="m270.43,154.29c-.93-.68-3.94-4.07-3.94-4.07,0,0,2.76-3.22,3.94-4.07.82-.6,1.87.49,1.87.49l-2.58,2.63c5.58.39,10.14-2.05,11.31-6.6-2.09.14-4.45-1.18-5.39-3.05-.72-1.44-.45-2.93.75-4.12,1.27-1.09,2.82-1.26,4.26-.45,1.78,1,2.95,3.24,2.8,5.24,4.15-1.09,6.26-4.82,6.64-11.75.09-.37.43-1.02,1.08-1.02.04,0,.08.01.13.01.74.1.91.78.9,1.12.14,6.33-2.88,13.05-8.92,13.79-.99,5.52-7.61,9.67-13.56,8.87l2.58,2.51s-1.04,1.08-1.86.47Zm10.99-13.7c.04-1.64-.25-2.59-1.03-3.33-1.09-.72-2.11-.79-2.64-.35-.47.4-.45,1.12-.11,1.9.41.92,1.45,1.81,3.22,1.81.18,0,.36-.01.56-.03Z"/>
  <path class="cls-18" d="m382.52,128.95c-.03.7-.61.91-1.41.87-.8-.03-3.41-.32-5,1.06-1.59,1.37-.62,4.94-.09,7.08l.13.48-.46-.19c-3.32-1.38-5.55-1.52-6.61-.44-1.84,1.86.27,6.83.29,6.88l.27.62-.61-.29c-2.55-1.22-4.68-1.63-5.97-.85-1.07.64-1.71,2.12-1.71,4.1.01.27-.02.99-.01,1.4l2.54-2.59s1.08,1.05.47,1.87c-.69.94-4.07,3.95-4.07,3.95,0,0-3.23-2.77-4.08-3.95-.6-.82.5-1.87.5-1.87l2.23,2.2c.04.06.09.11.15.15l.23.22c-.11-3,.56-5.44,2.41-6.86,1.7-1.31,4.1-.98,4.97-.8-.21-1.03-.88-3.84.78-5.54,1.7-1.74,4.77-1.35,5.82-1.2-.14-.96-.49-3.75,1.28-5.56,1.77-1.8,2.72-1.98,6.73-1.81.88.03,1.25.37,1.22,1.07Z"/>
  <g>
    <path class="cls-15" d="m81.44,256.37c3.22,0,3.22-5,0-5s-3.22,5,0,5h0Z"/>
    <path class="cls-15" d="m111.44,226.37c3.22,0,3.22-5,0-5s-3.22,5,0,5h0Z"/>
    <path class="cls-15" d="m81.44,196.37c3.22,0,3.22-5,0-5s-3.22,5,0,5h0Z"/>
    <path class="cls-15" d="m51.44,226.37c3.22,0,3.22-5,0-5s-3.22,5,0,5h0Z"/>
    <path class="cls-15" d="m81.44,225c1.45,0,1.45-2.25,0-2.25s-1.45,2.25,0,2.25h0Z"/>
  </g>
  <g>
    <path class="cls-15" d="m171.44,256.37c3.22,0,3.22-5,0-5s-3.22,5,0,5h0Z"/>
    <path class="cls-15" d="m201.44,226.37c3.22,0,3.22-5,0-5s-3.22,5,0,5h0Z"/>
    <path class="cls-15" d="m171.44,196.37c3.22,0,3.22-5,0-5s-3.22,5,0,5h0Z"/>
    <path class="cls-15" d="m141.44,226.37c3.22,0,3.22-5,0-5s-3.22,5,0,5h0Z"/>
    <path class="cls-15" d="m171.44,225c1.45,0,1.45-2.25,0-2.25s-1.45,2.25,0,2.25h0Z"/>
  </g>
  <g>
    <path class="cls-15" d="m261.44,256.37c3.22,0,3.22-5,0-5s-3.22,5,0,5h0Z"/>
    <path class="cls-15" d="m291.44,226.37c3.22,0,3.22-5,0-5s-3.22,5,0,5h0Z"/>
    <path class="cls-15" d="m261.44,196.37c3.22,0,3.22-5,0-5s-3.22,5,0,5h0Z"/>
    <path class="cls-15" d="m231.44,226.37c3.22,0,3.22-5,0-5s-3.22,5,0,5h0Z"/>
    <path class="cls-15" d="m261.44,225c1.45,0,1.45-2.25,0-2.25s-1.45,2.25,0,2.25h0Z"/>
  </g>
  <g>
    <path class="cls-15" d="m351.44,256.37c3.22,0,3.22-5,0-5s-3.22,5,0,5h0Z"/>
    <path class="cls-15" d="m381.44,226.37c3.22,0,3.22-5,0-5s-3.22,5,0,5h0Z"/>
    <path class="cls-15" d="m351.44,196.37c3.22,0,3.22-5,0-5s-3.22,5,0,5h0Z"/>
    <path class="cls-15" d="m321.44,226.37c3.22,0,3.22-5,0-5s-3.22,5,0,5h0Z"/>
    <path class="cls-15" d="m351.44,225c1.45,0,1.45-2.25,0-2.25s-1.45,2.25,0,2.25h0Z"/>
  </g>
  <g>
    <path class="cls-15" d="m356.66,273.61h-3.54c-.32,0-.53-.32-.41-.62,2.67-6.29.99-7.71-1.08-7.85-.04,0-.08,0-.12,0h-.02s-.09,0-.13,0c-.04,0-.08,0-.12,0-2.07.14-3.75,1.56-1.08,7.85.12.29-.09.62-.41.62h-3.54c-.14,0-.66-1.27.12-1.73.69-.41.99.09,1.81.11-2.24-4.96.04-7.96,2.78-8.36.08-.02.94-.02,1.02,0,2.74.41,5.02,3.4,2.78,8.36.82-.02,1.12-.51,1.81-.11.78.46.26,1.73.12,1.73Z"/>
    <path class="cls-15" d="m175.52,271.75c-.93-2.27-1.86-4.39-2.21-5.2-.38-.84-.67-1.52-.74-1.72-.32-.87-.6-1.18-1.12-1.22-.5.04-.79.34-1.11,1.22-.07.2-.36.87-.73,1.72-.73,1.66-1.56,3.6-2.22,5.2-.28.71-.29,1.21-.03,1.52.19.23.49.34.9.34h6.43c.41,0,.71-.12.9-.34.12-.15.18-.34.18-.58,0-.26-.07-.57-.22-.94Zm-1.67.34h-4.8c.17-.42.49-1.25.87-2.18.56-1.41,1.21-3.07,1.53-3.9.39.98,1.22,3.11,1.83,4.63l.57,1.44Z"/>
    <path class="cls-15" d="m83.19,267.8c.48.44.43.65.44.96s-.23.47-.53.71c-1.75,1.43-2.78,2.44-2.78,2.44,0,0,.42.05,4.42.05.4,0,.79.33.79.78,0,.48-.22.88-.64.88-2.35,0-4.02-.05-5.97-.05-.79,0-1.34-.19-1.52-.57-.17-.36-.12-.9.55-1.52,1.91-1.72,3.47-2.88,3.47-2.88,0,0-2.17-1.97-3.75-3.56-.33-.33-.43-.62-.31-.85.11-.2.55-.57.92-.57h6.71c.74,0,.77,1.31,0,1.31-3.37,0-5.2.02-5.2.02l3.38,2.85Z"/>
    <path class="cls-15" d="m261.42,263.61c-1.33,0-3.23,1.68-3.23,5,0,2.56,1.22,5,3.23,5s3.27-2.44,3.27-5c0-3.48-1.94-5-3.27-5Zm.01,1.37c.96,0,1.64,1.13,1.7,1.93.02.3,0,.81-.55.81h-2.33c-.46,0-.51-.5-.5-.76.07-.8.81-1.98,1.69-1.98Zm0,7.26c-1.08,0-1.72-1.28-1.79-2.08-.01-.25,0-.76.5-.76h2.53c.56,0,.58.5.55.81-.06.8-.72,2.03-1.8,2.03Z"/>
  </g>
  <g>
    <rect class="cls-18" x="80.14" y="225.57" width="2.59" height="25.25" rx=".99" ry=".99"/>
    <rect class="cls-16" x="54.49" y="222.57" width="25.25" height="2.59" rx=".99" ry=".99"/>
  </g>
  <g>
    <rect class="cls-18" x="170.14" y="225.57" width="2.59" height="25.25" rx=".99" ry=".99"/>
    <rect class="cls-16" x="144.49" y="222.57" width="25.25" height="2.59" rx=".99" ry=".99"/>
  </g>
  <g>
    <rect class="cls-18" x="260.14" y="225.57" width="2.59" height="25.25" rx=".99" ry=".99"/>
    <rect class="cls-16" x="234.49" y="222.57" width="25.25" height="2.59" rx=".99" ry=".99"/>
  </g>
  <g>
    <rect class="cls-18" x="350.14" y="225.57" width="2.59" height="25.25" rx=".99" ry=".99"/>
    <rect class="cls-16" x="324.49" y="222.57" width="25.25" height="2.59" rx=".99" ry=".99"/>
  </g>
  <path class="cls-18" d="m88.41,254.14c-.93-.68-3.94-4.07-3.94-4.07,0,0,2.76-3.22,3.94-4.07.82-.6,1.87.49,1.87.49l-2.58,2.63c5.58.39,10.14-2.05,11.31-6.6-2.09.14-4.45-1.18-5.39-3.05-.72-1.44-.45-2.93.75-4.12,1.27-1.09,2.82-1.26,4.26-.45,1.78,1,2.95,3.24,2.8,5.24,4.15-1.09,6.26-4.82,6.64-11.75.09-.37.43-1.02,1.08-1.02.04,0,.08.01.13.01.74.1.91.78.9,1.12.14,6.33-2.88,13.05-8.92,13.79-.99,5.52-7.61,9.67-13.56,8.87l2.58,2.51s-1.04,1.08-1.86.47Zm10.99-13.7c.04-1.64-.25-2.59-1.03-3.33-1.09-.72-2.11-.79-2.64-.35-.47.4-.45,1.12-.11,1.9.41.92,1.45,1.81,3.22,1.81.18,0,.36-.01.56-.03Z"/>
  <path class="cls-18" d="m200.82,228.66c-.03.7-.61.91-1.41.87-.8-.03-3.41-.32-5,1.06-1.59,1.37-.62,4.94-.09,7.08l.13.48-.46-.19c-3.32-1.38-5.55-1.52-6.61-.44-1.84,1.86.27,6.83.29,6.88l.27.62-.61-.29c-2.55-1.22-4.68-1.63-5.97-.85-1.07.64-1.71,2.12-1.71,4.1.01.27-.02.99-.01,1.4l2.54-2.59s1.08,1.05.47,1.87c-.69.94-4.07,3.95-4.07,3.95,0,0-3.23-2.77-4.08-3.95-.6-.82.5-1.87.5-1.87l2.23,2.2c.04.06.09.11.15.15l.23.22c-.11-3,.56-5.44,2.41-6.86,1.7-1.31,4.1-.98,4.97-.8-.21-1.03-.88-3.84.78-5.54,1.7-1.74,4.77-1.35,5.82-1.2-.14-.96-.49-3.75,1.28-5.56,1.77-1.8,2.72-1.98,6.73-1.81.88.03,1.25.37,1.22,1.07Z"/>
  <path class="cls-18" d="m252.1,253.35l2.58-2.51c-5.96.81-12.57-3.35-13.56-8.87-6.04-.74-9.06-7.46-8.92-13.79-.01-.34.16-1.02.9-1.12.05,0,.09-.01.13-.01.65,0,.99.65,1.08,1.02.38,6.93,2.49,10.66,6.64,11.75-.15-2,1.02-4.24,2.8-5.24,1.44-.81,2.99-.64,4.26.45,1.2,1.19,1.47,2.68.75,4.12-.94,1.87-3.3,3.19-5.39,3.05,1.17,4.55,5.73,6.99,11.31,6.6l-2.58-2.63s1.05-1.1,1.87-.49c1.17.85,3.94,4.07,3.94,4.07,0,0-3.01,3.39-3.94,4.07-.82.61-1.86-.47-1.86-.47Zm-8.57-13.2c1.77,0,2.81-.89,3.22-1.81.34-.78.36-1.5-.11-1.9-.53-.44-1.55-.37-2.64.35-.78.74-1.07,1.69-1.03,3.33.2.02.38.03.56.03Z"/>
  <path class="cls-18" d="m321.88,228.49c.03.7.61.91,1.41.87.8-.03,3.41-.32,5,1.06,1.59,1.37.62,4.94.09,7.08l-.13.48.46-.19c3.32-1.38,5.55-1.52,6.61-.44,1.84,1.86-.27,6.83-.29,6.88l-.27.62.61-.29c2.55-1.22,4.68-1.63,5.97-.85,1.07.64,1.71,2.12,1.71,4.1-.01.27.02.99.01,1.4l-2.54-2.59s-1.08,1.05-.47,1.87c.69.94,4.07,3.95,4.07,3.95,0,0,3.23-2.77,4.08-3.95.6-.82-.5-1.87-.5-1.87l-2.23,2.2c-.04.06-.09.11-.15.15l-.23.22c.11-3-.56-5.44-2.41-6.86-1.7-1.31-4.1-.98-4.97-.8.21-1.03.88-3.84-.78-5.54-1.7-1.74-4.77-1.35-5.82-1.2.14-.96.49-3.75-1.28-5.56-1.77-1.8-2.72-1.98-6.73-1.81-.88.03-1.25.37-1.22,1.07Z"/>
  <path class="cls-18" d="m612.1,253.35l2.58-2.51c-5.96.81-12.57-3.35-13.56-8.87-6.04-.74-9.06-7.46-8.92-13.79-.01-.34.16-1.02.9-1.12.05,0,.09-.01.13-.01.65,0,.99.65,1.08,1.02.38,6.93,2.49,10.66,6.64,11.75-.15-2,1.02-4.24,2.8-5.24,1.44-.81,2.99-.64,4.26.45,1.2,1.19,1.47,2.68.75,4.12-.94,1.87-3.3,3.19-5.39,3.05,1.17,4.55,5.73,6.99,11.31,6.6l-2.58-2.63s1.05-1.1,1.87-.49c1.17.85,3.94,4.07,3.94,4.07,0,0-3.01,3.39-3.94,4.07-.82.61-1.86-.47-1.86-.47Zm-8.57-13.2c1.77,0,2.81-.89,3.22-1.81.34-.78.36-1.5-.11-1.9-.53-.44-1.55-.37-2.64.35-.78.74-1.07,1.69-1.03,3.33.2.02.38.03.56.03Z"/>
  <path class="cls-18" d="m691.88,228.49c.03.7.61.91,1.41.87.8-.03,3.41-.32,5,1.06,1.59,1.37.62,4.94.09,7.08l-.13.48.46-.19c3.32-1.38,5.55-1.52,6.61-.44,1.84,1.86-.27,6.83-.29,6.88l-.27.62.61-.29c2.55-1.22,4.68-1.63,5.97-.85,1.07.64,1.71,2.12,1.71,4.1-.01.27.02.99.01,1.4l-2.54-2.59s-1.08,1.05-.47,1.87c.69.94,4.07,3.95,4.07,3.95,0,0,3.23-2.77,4.08-3.95.6-.82-.5-1.87-.5-1.87l-2.23,2.2c-.04.06-.09.11-.15.15l-.23.22c.11-3-.56-5.44-2.41-6.86-1.7-1.31-4.1-.98-4.97-.8.21-1.03.88-3.84-.78-5.54-1.7-1.74-4.77-1.35-5.82-1.2.14-.96.49-3.75-1.28-5.56-1.77-1.8-2.72-1.98-6.73-1.81-.88.03-1.25.37-1.22,1.07Z"/>
  <g>
    <path class="cls-15" d="m441.44,96.37c3.22,0,3.22-5,0-5s-3.22,5,0,5h0Z"/>
    <path class="cls-15" d="m471.44,126.37c3.22,0,3.22-5,0-5s-3.22,5,0,5h0Z"/>
    <path class="cls-15" d="m441.44,156.37c3.22,0,3.22-5,0-5s-3.22,5,0,5h0Z"/>
    <path class="cls-15" d="m411.44,126.37c3.22,0,3.22-5,0-5s-3.22,5,0,5h0Z"/>
    <path class="cls-15" d="m441.44,125c1.45,0,1.45-2.25,0-2.25s-1.45,2.25,0,2.25h0Z"/>
  </g>
  <g>
    <path class="cls-15" d="m531.44,96.37c3.22,0,3.22-5,0-5s-3.22,5,0,5h0Z"/>
    <path class="cls-15" d="m561.44,126.37c3.22,0,3.22-5,0-5s-3.22,5,0,5h0Z"/>
    <path class="cls-15" d="m531.44,156.37c3.22,0,3.22-5,0-5s-3.22,5,0,5h0Z"/>
    <path class="cls-15" d="m501.44,126.37c3.22,0,3.22-5,0-5s-3.22,5,0,5h0Z"/>
    <path class="cls-15" d="m531.44,125c1.45,0,1.45-2.25,0-2.25s-1.45,2.25,0,2.25h0Z"/>
  </g>
  <g>
    <path class="cls-15" d="m621.44,156.37c3.22,0,3.22-5,0-5s-3.22,5,0,5h0Z"/>
    <path class="cls-15" d="m651.44,126.37c3.22,0,3.22-5,0-5s-3.22,5,0,5h0Z"/>
    <path class="cls-15" d="m621.44,96.37c3.22,0,3.22-5,0-5s-3.22,5,0,5h0Z"/>
    <path class="cls-15" d="m591.44,126.37c3.22,0,3.22-5,0-5s-3.22,5,0,5h0Z"/>
    <path class="cls-15" d="m621.44,125c1.45,0,1.45-2.25,0-2.25s-1.45,2.25,0,2.25h0Z"/>
  </g>
  <g>
    <path class="cls-15" d="m721.44,156.37c3.22,0,3.22-5,0-5s-3.22,5,0,5h0Z"/>
    <path class="cls-15" d="m751.44,126.37c3.22,0,3.22-5,0-5s-3.22,5,0,5h0Z"/>
    <path class="cls-15" d="m721.44,96.37c3.22,0,3.22-5,0-5s-3.22,5,0,5h0Z"/>
    <path class="cls-15" d="m691.44,126.37c3.22,0,3.22-5,0-5s-3.22,5,0,5h0Z"/>
    <path class="cls-15" d="m721.44,125c1.45,0,1.45-2.25,0-2.25s-1.45,2.25,0,2.25h0Z"/>
  </g>
  <path class="cls-15" d="m446.6,163.62c-.46-.06-.96.28-1.19,1.14-.42,1.54-.92,3.7-1.44,5.63-1.11-2.72-1.86-4.39-2.5-4.38-.01,0-.02,0-.03.01-.01-.01-.02-.01-.03-.01-.64-.01-1.39,1.65-2.5,4.38-.51-1.93-1.02-4.09-1.44-5.63-.24-.86-.73-1.2-1.19-1.14-.59.07-.98.49-.74,1.25.25.81,1.84,6.07,2.3,7.72.47,1.65,1.59.9,1.8.49.21-.41,1.36-3.67,1.8-4.59.44.92,1.59,4.18,1.8,4.59.21.41,1.33,1.16,1.8-.49.46-1.64,2.05-6.9,2.3-7.72.24-.76-.15-1.18-.74-1.25Z"/>
  <path class="cls-15" d="m624.79,164.86l-4.37,8.3c-.15.29-.45.46-.75.46-.13,0-.26-.04-.39-.1-.2-.11-.35-.28-.42-.5-.07-.21-.05-.45.06-.65l1.88-3.58-2.53-3.62c-.12-.11-.2-.27-.24-.47-.05-.25.03-.53.2-.71.15-.17.35-.27.58-.28.22,0,.45.07.61.21l2.2,3.29,1.65-3.14c.12-.2.29-.35.51-.42.22-.07.45-.04.65.07.22.12.38.33.43.59.03.19,0,.38-.08.55Z"/>
  <path class="cls-15" d="m535.34,172.12c.16.19.21.44.19.68-.03.24-.16.46-.34.61-.4.3-.98.23-1.3-.17l-2.45-3.14-2.45,3.14c-.18.23-.45.36-.72.36-.19,0-.4-.07-.57-.19-.19-.15-.32-.37-.35-.61-.03-.24.03-.49.19-.68l2.73-3.51-2.73-3.51c-.13-.17-.19-.36-.19-.57,0-.28.14-.56.36-.73.19-.15.42-.21.67-.19.24.03.47.16.61.35l2.45,3.14,2.44-3.14c.33-.41.91-.48,1.31-.16.22.17.35.43.35.72,0,.2-.07.4-.19.57l-2.73,3.51,2.73,3.51Z"/>
  <path class="cls-15" d="m722.41,165.35h-3.64c-1.34,0-1.31-1.73,0-1.73,5.4,0,5.35.02,5.67.38.23.27.43.73.15,1.14-1.71,2.48-4.54,6.52-4.54,6.52,0,0,3.43,0,4.33,0,1.35,0,1.4,1.91.13,1.91-8.37,0-9.53,1.13-2.09-8.23Z"/>
  <g>
    <rect class="cls-18" x="443.14" y="122.57" width="25.25" height="2.59" rx=".99" ry=".99"/>
    <rect class="cls-16" x="414.49" y="122.57" width="25.25" height="2.59" rx=".99" ry=".99"/>
  </g>
  <g>
    <rect class="cls-18" x="533.14" y="122.57" width="25.25" height="2.59" rx=".99" ry=".99"/>
    <rect class="cls-16" x="504.49" y="122.57" width="25.25" height="2.59" rx=".99" ry=".99"/>
  </g>
  <g>
    <rect class="cls-16" x="618.16" y="125.49" width="2.59" height="25.25" rx=".99" ry=".99"/>
    <rect class="cls-18" x="622.13" y="125.49" width="2.59" height="25.25" rx=".99" ry=".99"/>
  </g>
  <g>
    <rect class="cls-16" x="718.16" y="125.49" width="2.59" height="25.25" rx=".99" ry=".99"/>
    <rect class="cls-18" x="722.13" y="125.49" width="2.59" height="25.25" rx=".99" ry=".99"/>
  </g>
  <path class="cls-18" d="m471.36,133.18l-2.51-2.58c.81,5.96-3.35,12.57-8.87,13.56-.74,6.04-7.46,9.06-13.79,8.92-.34.01-1.02-.16-1.12-.9,0-.05-.01-.09-.01-.13,0-.65.65-.99,1.02-1.08,6.93-.38,10.66-2.49,11.75-6.64-2,.15-4.24-1.02-5.24-2.8-.81-1.44-.64-2.99.45-4.26,1.19-1.2,2.68-1.47,4.12-.75,1.87.94,3.19,3.3,3.05,5.39,4.55-1.17,6.99-5.73,6.6-11.31l-2.63,2.58s-1.1-1.05-.49-1.87c.85-1.17,4.07-3.94,4.07-3.94,0,0,3.39,3.01,4.07,3.94.61.82-.47,1.86-.47,1.86Zm-13.2,8.57c0-1.77-.89-2.81-1.81-3.22-.78-.34-1.5-.36-1.9.11-.44.53-.37,1.55.35,2.64.74.78,1.69,1.07,3.33,1.03.02-.2.03-.38.03-.56Z"/>
  <path class="cls-18" d="m535.76,153.14c.7-.03.91-.61.87-1.41-.03-.8-.32-3.41,1.06-5,1.37-1.59,4.94-.62,7.08-.09l.48.13-.19-.46c-1.38-3.32-1.52-5.55-.44-6.61,1.86-1.84,6.83.27,6.88.29l.62.27-.29-.61c-1.22-2.55-1.63-4.68-.85-5.97.64-1.07,2.12-1.71,4.1-1.71.27.01.99-.02,1.4-.01l-2.59,2.54s1.05,1.08,1.87.47c.94-.69,3.95-4.07,3.95-4.07,0,0-2.77-3.23-3.95-4.08-.82-.6-1.87.5-1.87.5l2.2,2.23c.06.04.11.09.15.15l.22.23c-3-.11-5.44.56-6.86,2.41-1.31,1.7-.98,4.1-.8,4.97-1.03-.21-3.84-.88-5.54.78-1.74,1.7-1.35,4.77-1.2,5.82-.96-.14-3.75-.49-5.56,1.28-1.8,1.77-1.98,2.72-1.81,6.73.03.88.37,1.25,1.07,1.22Z"/>
  <path class="cls-18" d="m630.43,154.29c-.93-.68-3.94-4.07-3.94-4.07,0,0,2.76-3.22,3.94-4.07.82-.6,1.87.49,1.87.49l-2.58,2.63c5.58.39,10.14-2.05,11.31-6.6-2.09.14-4.45-1.18-5.39-3.05-.72-1.44-.45-2.93.75-4.12,1.27-1.09,2.82-1.26,4.26-.45,1.78,1,2.95,3.24,2.8,5.24,4.15-1.09,6.26-4.82,6.64-11.75.09-.37.43-1.02,1.08-1.02.04,0,.08.01.13.01.74.1.91.78.9,1.12.14,6.33-2.88,13.05-8.92,13.79-.99,5.52-7.61,9.67-13.56,8.87l2.58,2.51s-1.04,1.08-1.86.47Zm10.99-13.7c.04-1.64-.25-2.59-1.03-3.33-1.09-.72-2.11-.79-2.64-.35-.47.4-.45,1.12-.11,1.9.41.92,1.45,1.81,3.22,1.81.18,0,.36-.01.56-.03Z"/>
  <path class="cls-18" d="m752.52,128.95c-.03.7-.61.91-1.41.87-.8-.03-3.41-.32-5,1.06-1.59,1.37-.62,4.94-.09,7.08l.13.48-.46-.19c-3.32-1.38-5.55-1.52-6.61-.44-1.84,1.86.27,6.83.29,6.88l.27.62-.61-.29c-2.55-1.22-4.68-1.63-5.97-.85-1.07.64-1.71,2.12-1.71,4.1.01.27-.02.99-.01,1.4l2.54-2.59s1.08,1.05.47,1.87c-.69.94-4.07,3.95-4.07,3.95,0,0-3.23-2.77-4.08-3.95-.6-.82.5-1.87.5-1.87l2.23,2.2c.04.06.09.11.15.15l.23.22c-.11-3,.56-5.44,2.41-6.86,1.7-1.31,4.1-.98,4.97-.8-.21-1.03-.88-3.84.78-5.54,1.7-1.74,4.77-1.35,5.82-1.2-.14-.96-.49-3.75,1.28-5.56,1.77-1.8,2.72-1.98,6.73-1.81.88.03,1.25.37,1.22,1.07Z"/>
  <g>
    <path class="cls-15" d="m441.44,256.37c3.22,0,3.22-5,0-5s-3.22,5,0,5h0Z"/>
    <path class="cls-15" d="m471.44,226.37c3.22,0,3.22-5,0-5s-3.22,5,0,5h0Z"/>
    <path class="cls-15" d="m441.44,196.37c3.22,0,3.22-5,0-5s-3.22,5,0,5h0Z"/>
    <path class="cls-15" d="m411.44,226.37c3.22,0,3.22-5,0-5s-3.22,5,0,5h0Z"/>
    <path class="cls-15" d="m441.44,225c1.45,0,1.45-2.25,0-2.25s-1.45,2.25,0,2.25h0Z"/>
  </g>
  <g>
    <path class="cls-15" d="m531.44,256.37c3.22,0,3.22-5,0-5s-3.22,5,0,5h0Z"/>
    <path class="cls-15" d="m561.44,226.37c3.22,0,3.22-5,0-5s-3.22,5,0,5h0Z"/>
    <path class="cls-15" d="m531.44,196.37c3.22,0,3.22-5,0-5s-3.22,5,0,5h0Z"/>
    <path class="cls-15" d="m501.44,226.37c3.22,0,3.22-5,0-5s-3.22,5,0,5h0Z"/>
    <path class="cls-15" d="m531.44,225c1.45,0,1.45-2.25,0-2.25s-1.45,2.25,0,2.25h0Z"/>
  </g>
  <g>
    <path class="cls-15" d="m621.44,256.37c3.22,0,3.22-5,0-5s-3.22,5,0,5h0Z"/>
    <path class="cls-15" d="m651.44,226.37c3.22,0,3.22-5,0-5s-3.22,5,0,5h0Z"/>
    <path class="cls-15" d="m621.44,196.37c3.22,0,3.22-5,0-5s-3.22,5,0,5h0Z"/>
    <path class="cls-15" d="m591.44,226.37c3.22,0,3.22-5,0-5s-3.22,5,0,5h0Z"/>
    <path class="cls-15" d="m621.44,225c1.45,0,1.45-2.25,0-2.25s-1.45,2.25,0,2.25h0Z"/>
  </g>
  <g>
    <path class="cls-15" d="m721.44,256.37c3.22,0,3.22-5,0-5s-3.22,5,0,5h0Z"/>
    <path class="cls-15" d="m751.44,226.37c3.22,0,3.22-5,0-5s-3.22,5,0,5h0Z"/>
    <path class="cls-15" d="m721.44,196.37c3.22,0,3.22-5,0-5s-3.22,5,0,5h0Z"/>
    <path class="cls-15" d="m691.44,226.37c3.22,0,3.22-5,0-5s-3.22,5,0,5h0Z"/>
    <path class="cls-15" d="m721.44,225c1.45,0,1.45-2.25,0-2.25s-1.45,2.25,0,2.25h0Z"/>
  </g>
  <g>
    <path class="cls-15" d="m726.66,273.61h-3.54c-.32,0-.53-.32-.41-.62,2.67-6.29.99-7.71-1.08-7.85-.04,0-.08,0-.12,0h-.02s-.09,0-.13,0c-.04,0-.08,0-.12,0-2.07.14-3.75,1.56-1.08,7.85.12.29-.09.62-.41.62h-3.54c-.14,0-.66-1.27.12-1.73.69-.41.99.09,1.81.11-2.24-4.96.04-7.96,2.78-8.36.08-.02.94-.02,1.02,0,2.74.41,5.02,3.4,2.78,8.36.82-.02,1.12-.51,1.81-.11.78.46.26,1.73.12,1.73Z"/>
    <path class="cls-15" d="m535.52,271.75c-.93-2.27-1.86-4.39-2.21-5.2-.38-.84-.67-1.52-.74-1.72-.32-.87-.6-1.18-1.12-1.22-.5.04-.79.34-1.11,1.22-.07.2-.36.87-.73,1.72-.73,1.66-1.56,3.6-2.22,5.2-.28.71-.29,1.21-.03,1.52.19.23.49.34.9.34h6.43c.41,0,.71-.12.9-.34.12-.15.18-.34.18-.58,0-.26-.07-.57-.22-.94Zm-1.67.34h-4.8c.17-.42.49-1.25.87-2.18.56-1.41,1.21-3.07,1.53-3.9.39.98,1.22,3.11,1.83,4.63l.57,1.44Z"/>
    <path class="cls-15" d="m443.19,267.8c.48.44.43.65.44.96s-.23.47-.53.71c-1.75,1.43-2.78,2.44-2.78,2.44,0,0,.42.05,4.42.05.4,0,.79.33.79.78,0,.48-.22.88-.64.88-2.35,0-4.02-.05-5.97-.05-.79,0-1.34-.19-1.52-.57-.17-.36-.12-.9.55-1.52,1.91-1.72,3.47-2.88,3.47-2.88,0,0-2.17-1.97-3.75-3.56-.33-.33-.43-.62-.31-.85.11-.2.55-.57.92-.57h6.71c.74,0,.77,1.31,0,1.31-3.37,0-5.2.02-5.2.02l3.38,2.85Z"/>
    <path class="cls-15" d="m621.42,263.61c-1.33,0-3.23,1.68-3.23,5,0,2.56,1.22,5,3.23,5s3.27-2.44,3.27-5c0-3.48-1.94-5-3.27-5Zm.01,1.37c.96,0,1.64,1.13,1.7,1.93.02.3,0,.81-.55.81h-2.33c-.46,0-.51-.5-.5-.76.07-.8.81-1.98,1.69-1.98Zm0,7.26c-1.08,0-1.72-1.28-1.79-2.08-.01-.25,0-.76.5-.76h2.53c.56,0,.58.5.55.81-.06.8-.72,2.03-1.8,2.03Z"/>
  </g>
  <g>
    <rect class="cls-18" x="440.14" y="225.57" width="2.59" height="25.25" rx=".99" ry=".99"/>
    <rect class="cls-16" x="414.49" y="222.57" width="25.25" height="2.59" rx=".99" ry=".99"/>
  </g>
  <g>
    <rect class="cls-18" x="530.14" y="225.57" width="2.59" height="25.25" rx=".99" ry=".99"/>
    <rect class="cls-16" x="504.49" y="222.57" width="25.25" height="2.59" rx=".99" ry=".99"/>
  </g>
  <g>
    <rect class="cls-18" x="620.14" y="225.57" width="2.59" height="25.25" rx=".99" ry=".99"/>
    <rect class="cls-16" x="594.49" y="222.57" width="25.25" height="2.59" rx=".99" ry=".99"/>
  </g>
  <g>
    <rect class="cls-18" x="720.14" y="225.57" width="2.59" height="25.25" rx=".99" ry=".99"/>
    <rect class="cls-16" x="694.49" y="222.57" width="25.25" height="2.59" rx=".99" ry=".99"/>
  </g>
  <path class="cls-18" d="m448.41,254.14c-.93-.68-3.94-4.07-3.94-4.07,0,0,2.76-3.22,3.94-4.07.82-.6,1.87.49,1.87.49l-2.58,2.63c5.58.39,10.14-2.05,11.31-6.6-2.09.14-4.45-1.18-5.39-3.05-.72-1.44-.45-2.93.75-4.12,1.27-1.09,2.82-1.26,4.26-.45,1.78,1,2.95,3.24,2.8,5.24,4.15-1.09,6.26-4.82,6.64-11.75.09-.37.43-1.02,1.08-1.02.04,0,.08.01.13.01.74.1.91.78.9,1.12.14,6.33-2.88,13.05-8.92,13.79-.99,5.52-7.61,9.67-13.56,8.87l2.58,2.51s-1.04,1.08-1.86.47Zm10.99-13.7c.04-1.64-.25-2.59-1.03-3.33-1.09-.72-2.11-.79-2.64-.35-.47.4-.45,1.12-.11,1.9.41.92,1.45,1.81,3.22,1.81.18,0,.36-.01.56-.03Z"/>
  <path class="cls-18" d="m560.82,228.66c-.03.7-.61.91-1.41.87-.8-.03-3.41-.32-5,1.06-1.59,1.37-.62,4.94-.09,7.08l.13.48-.46-.19c-3.32-1.38-5.55-1.52-6.61-.44-1.84,1.86.27,6.83.29,6.88l.27.62-.61-.29c-2.55-1.22-4.68-1.63-5.97-.85-1.07.64-1.71,2.12-1.71,4.1.01.27-.02.99-.01,1.4l2.54-2.59s1.08,1.05.47,1.87c-.69.94-4.07,3.95-4.07,3.95,0,0-3.23-2.77-4.08-3.95-.6-.82.5-1.87.5-1.87l2.23,2.2c.04.06.09.11.15.15l.23.22c-.11-3,.56-5.44,2.41-6.86,1.7-1.31,4.1-.98,4.97-.8-.21-1.03-.88-3.84.78-5.54,1.7-1.74,4.77-1.35,5.82-1.2-.14-.96-.49-3.75,1.28-5.56,1.77-1.8,2.72-1.98,6.73-1.81.88.03,1.25.37,1.22,1.07Z"/>
  <path class="cls-18" d="m617.34,383.06s1.52.03,1.68-.97c.23-1.44-.1-5.68-.1-5.68,0,0-4.52-.26-5.66-.08-1.01.15-.99,1.66-.99,1.66,0,0,3.82-.01,3.83,0-8.46,9.48-10.68-7.89,2.72-29.48.97-1.56-.82-2.88-1.64-1.5-16.29,27.48-9.59,44.12.08,32.35l.08,3.7Z"/>
  <g>
    <path class="cls-15" d="m441.44,406.37c3.22,0,3.22-5,0-5s-3.22,5,0,5h0Z"/>
    <path class="cls-15" d="m471.44,376.37c3.22,0,3.22-5,0-5s-3.22,5,0,5h0Z"/>
    <path class="cls-15" d="m441.44,346.37c3.22,0,3.22-5,0-5s-3.22,5,0,5h0Z"/>
    <path class="cls-15" d="m411.44,376.37c3.22,0,3.22-5,0-5s-3.22,5,0,5h0Z"/>
    <path class="cls-15" d="m441.44,375c1.45,0,1.45-2.25,0-2.25s-1.45,2.25,0,2.25h0Z"/>
  </g>
  <g>
    <path class="cls-15" d="m531.44,406.37c3.22,0,3.22-5,0-5s-3.22,5,0,5h0Z"/>
    <path class="cls-15" d="m561.44,376.37c3.22,0,3.22-5,0-5s-3.22,5,0,5h0Z"/>
    <path class="cls-15" d="m531.44,346.37c3.22,0,3.22-5,0-5s-3.22,5,0,5h0Z"/>
    <path class="cls-15" d="m501.44,376.37c3.22,0,3.22-5,0-5s-3.22,5,0,5h0Z"/>
    <path class="cls-15" d="m531.44,375c1.45,0,1.45-2.25,0-2.25s-1.45,2.25,0,2.25h0Z"/>
  </g>
  <g>
    <path class="cls-15" d="m621.44,406.37c3.22,0,3.22-5,0-5s-3.22,5,0,5h0Z"/>
    <path class="cls-15" d="m651.44,376.37c3.22,0,3.22-5,0-5s-3.22,5,0,5h0Z"/>
    <path class="cls-15" d="m621.44,346.37c3.22,0,3.22-5,0-5s-3.22,5,0,5h0Z"/>
    <path class="cls-15" d="m591.44,376.37c3.22,0,3.22-5,0-5s-3.22,5,0,5h0Z"/>
    <path class="cls-15" d="m621.44,375c1.45,0,1.45-2.25,0-2.25s-1.45,2.25,0,2.25h0Z"/>
  </g>
  <g>
    <path class="cls-15" d="m721.44,406.37c3.22,0,3.22-5,0-5s-3.22,5,0,5h0Z"/>
    <path class="cls-15" d="m751.44,376.37c3.22,0,3.22-5,0-5s-3.22,5,0,5h0Z"/>
    <path class="cls-15" d="m721.44,346.37c3.22,0,3.22-5,0-5s-3.22,5,0,5h0Z"/>
    <path class="cls-15" d="m691.44,376.37c3.22,0,3.22-5,0-5s-3.22,5,0,5h0Z"/>
    <path class="cls-15" d="m721.44,375c1.45,0,1.45-2.25,0-2.25s-1.45,2.25,0,2.25h0Z"/>
  </g>
  <g>
    <rect class="cls-18" x="620.14" y="375.57" width="2.59" height="25.25" rx=".99" ry=".99"/>
    <rect class="cls-16" x="594.49" y="372.57" width="25.25" height="2.59" rx=".99" ry=".99"/>
  </g>
  <g>
    <rect class="cls-18" x="720.14" y="375.57" width="2.59" height="25.25" rx=".99" ry=".99"/>
    <rect class="cls-16" x="694.49" y="372.57" width="25.25" height="2.59" rx=".99" ry=".99"/>
  </g>
  <g>
    <rect class="cls-18" x="443.14" y="372.57" width="25.25" height="2.59" rx=".99" ry=".99"/>
    <rect class="cls-16" x="414.49" y="372.57" width="25.25" height="2.59" rx=".99" ry=".99"/>
  </g>
  <g>
    <rect class="cls-16" x="528.16" y="375.36" width="2.59" height="25.25" rx=".99" ry=".99"/>
    <rect class="cls-18" x="532.13" y="375.36" width="2.59" height="25.25" rx=".99" ry=".99"/>
  </g>
  <path class="cls-16" d="m430.22,385.2c-1.08-.79-3.91-4.05-3.91-4.05,0,0,2.83-3.26,3.91-4.05.82-.59,1.87.5,1.87.5l-2.58,2.62h26.07c1.32,0,1.32,1.86,0,1.86h-26.07l2.58,2.62s-1.05,1.09-1.87.5Z"/>
  <path class="cls-18" d="m451.12,368.94s.03,1.52-.97,1.68c-1.44.23-5.68-.1-5.68-.1,0,0-.26-4.52-.08-5.66.15-1.01,1.66-.99,1.66-.99,0,0-.01,3.82,0,3.83,9.48-8.46-7.89-10.68-29.48,2.72-1.56.97-2.88-.82-1.5-1.64,27.48-16.29,44.12-9.59,32.35.08l3.7.08Z"/>
  <path class="cls-18" d="m537.63,383.49s-1.52.03-1.68-.97c-.23-1.44.1-5.68.1-5.68,0,0,4.52-.26,5.66-.08,1.01.15.99,1.66.99,1.66,0,0-3.82-.01-3.83,0,8.46,9.48,10.68-7.89-2.72-29.48-.97-1.56.82-2.88,1.64-1.5,16.29,27.48,9.59,44.12-.08,32.35l-.08,3.7Z"/>
  <path class="cls-18" d="m725.73,383.12s-1.52.03-1.68-.97c-.23-1.44.1-5.68.1-5.68,0,0,4.52-.26,5.66-.08,1.01.15.99,1.66.99,1.66,0,0-3.82-.01-3.83,0,8.46,9.48,10.68-7.89-2.72-29.48-.97-1.56.82-2.88,1.64-1.5,16.29,27.48,9.59,44.12-.08,32.35l-.08,3.7Z"/>
  <path class="cls-16" d="m517.27,383.09c.79,1.08,4.05,3.91,4.05,3.91,0,0,3.26-2.83,4.05-3.91.59-.82-.5-1.87-.5-1.87l-2.62,2.58v-26.07c0-1.32-1.86-1.32-1.86,0v26.07l-2.62-2.58s-1.09,1.05-.5,1.87Z"/>
  <path class="cls-16" d="m604.93,370.41c-1.08-.79-3.91-4.05-3.91-4.05,0,0,2.83-3.26,3.91-4.05.82-.59,1.87.5,1.87.5l-2.58,2.62h26.07c1.32,0,1.32,1.86,0,1.86h-26.07l2.58,2.62s-1.05,1.09-1.87.5Z"/>
  <path class="cls-16" d="m704.11,370.28c-1.08-.79-3.91-4.05-3.91-4.05,0,0,2.83-3.26,3.91-4.05.82-.59,1.87.5,1.87.5l-2.58,2.62h26.07c1.32,0,1.32,1.86,0,1.86h-26.07l2.58,2.62s-1.05,1.09-1.87.5Z"/>
  <path class="cls-16" d="m340.82,527.26c.91-.67,3.84-1.96,4.13-2.1.17.28,1.86,2.99,2.23,4.07.26.78-.84,1.33-.84,1.33l-1.42-2.7c-1.53,5.19-6.86,5.54-8.19,5.54-5.74,0-9.73-4.27-9.73-9.55,0-5.55,4.3-9.75,9.84-9.75,4.19,0,7.68,2.75,8.89,6.78.4,1.39-1.21,1.8-1.63.45-1.04-3.34-3.8-5.53-7.26-5.53-4.61,0-8.15,3.44-8.15,8.06,0,4.34,3.69,7.96,8.03,7.96,1.32,0,5.1-.22,6.71-4.41l-2.69,1.44s-.6-1.08.06-1.58Z"/>
  <path class="cls-18" d="m354.55,535.51c.79,1.08,4.05,3.91,4.05,3.91,0,0,3.26-2.83,4.05-3.91.59-.82-.5-1.87-.5-1.87l-2.62,2.58v-26.07c0-1.32-1.86-1.32-1.86,0v26.07s-2.62-2.58-2.62-2.58c0,0-1.09,1.05-.5,1.87Z"/>
  <path class="cls-18" d="m92.66,507.41c1.08.79,3.91,4.05,3.91,4.05,0,0-2.83,3.26-3.91,4.05-.82.59-1.87-.5-1.87-.5l2.58-2.62h-26.07c-1.32,0-1.32-1.86,0-1.86h26.07s-2.58-2.62-2.58-2.62c0,0,1.05-1.09,1.87-.5Z"/>
  <path class="cls-18" d="m188.25,535.09c-.79,1.08-4.05,3.91-4.05,3.91,0,0-3.26-2.83-4.05-3.91-.59-.82.5-1.87.5-1.87l2.62,2.58v-26.07c0-1.32,1.86-1.32,1.86,0v26.07s2.62-2.58,2.62-2.58c0,0,1.09,1.05.5,1.87Z"/>
  <path class="cls-18" d="m273.99,535.51c-.79,1.08-4.05,3.91-4.05,3.91,0,0-3.26-2.83-4.05-3.91-.59-.82.5-1.87.5-1.87l2.62,2.58v-26.07c0-1.32,1.86-1.32,1.86,0v26.07s2.62-2.58,2.62-2.58c0,0,1.09,1.05.5,1.87Z"/>
  <path class="cls-18" d="m91.12,369.17s.03,1.52-.97,1.68c-1.44.23-5.68-.1-5.68-.1,0,0-.26-4.52-.08-5.66.15-1.01,1.66-.99,1.66-.99,0,0-.01,3.82,0,3.83,9.48-8.46-7.89-10.68-29.48,2.72-1.56.97-2.88-.82-1.5-1.64,27.48-16.29,44.12-9.59,32.35.08l3.7.08Z"/>
  <path class="cls-18" d="m178.42,383.3s-1.52.03-1.68-.97c-.23-1.44.1-5.68.1-5.68,0,0,4.52-.26,5.66-.08,1.01.15.99,1.66.99,1.66,0,0-3.82-.01-3.83,0,8.46,9.48,10.68-7.89-2.72-29.48-.97-1.56.82-2.88,1.64-1.5,16.29,27.48,9.59,44.12-.08,32.35l-.08,3.7Z"/>
  <path class="cls-18" d="m265.92,383.3s-1.52.03-1.68-.97c-.23-1.44.1-5.68.1-5.68,0,0,4.52-.26,5.66-.08,1.01.15.99,1.66.99,1.66,0,0-3.82-.01-3.83,0,8.46,9.48,10.68-7.89-2.72-29.48-.97-1.56.82-2.88,1.64-1.5,16.29,27.48,9.59,44.12-.08,32.35l-.08,3.7Z"/>
  <path class="cls-18" d="m347.13,383.3s1.52.03,1.68-.97c.23-1.44-.1-5.68-.1-5.68,0,0-4.52-.26-5.66-.08-1.01.15-.99,1.66-.99,1.66,0,0,3.82-.01,3.83,0-8.46,9.48-10.68-7.89,2.72-29.48.97-1.56-.82-2.88-1.64-1.5-16.29,27.48-9.59,44.12.08,32.35l.08,3.7Z"/>
  <g>
    <path class="cls-15" d="m81.44,556.37c3.22,0,3.22-5,0-5s-3.22,5,0,5h0Z"/>
    <path class="cls-15" d="m111.44,526.37c3.22,0,3.22-5,0-5s-3.22,5,0,5h0Z"/>
    <path class="cls-15" d="m81.44,496.37c3.22,0,3.22-5,0-5s-3.22,5,0,5h0Z"/>
    <path class="cls-15" d="m51.44,526.37c3.22,0,3.22-5,0-5s-3.22,5,0,5h0Z"/>
    <path class="cls-15" d="m81.44,525c1.45,0,1.45-2.25,0-2.25s-1.45,2.25,0,2.25h0Z"/>
  </g>
  <g>
    <path class="cls-15" d="m81.44,406.37c3.22,0,3.22-5,0-5s-3.22,5,0,5h0Z"/>
    <path class="cls-15" d="m111.44,376.37c3.22,0,3.22-5,0-5s-3.22,5,0,5h0Z"/>
    <path class="cls-15" d="m81.44,346.37c3.22,0,3.22-5,0-5s-3.22,5,0,5h0Z"/>
    <path class="cls-15" d="m51.44,376.37c3.22,0,3.22-5,0-5s-3.22,5,0,5h0Z"/>
    <path class="cls-15" d="m81.44,375c1.45,0,1.45-2.25,0-2.25s-1.45,2.25,0,2.25h0Z"/>
  </g>
  <g>
    <path class="cls-15" d="m171.44,556.37c3.22,0,3.22-5,0-5s-3.22,5,0,5h0Z"/>
    <path class="cls-15" d="m201.44,526.37c3.22,0,3.22-5,0-5s-3.22,5,0,5h0Z"/>
    <path class="cls-15" d="m171.44,496.37c3.22,0,3.22-5,0-5s-3.22,5,0,5h0Z"/>
    <path class="cls-15" d="m141.44,526.37c3.22,0,3.22-5,0-5s-3.22,5,0,5h0Z"/>
    <path class="cls-15" d="m171.44,525c1.45,0,1.45-2.25,0-2.25s-1.45,2.25,0,2.25h0Z"/>
  </g>
  <g>
    <path class="cls-15" d="m171.44,406.37c3.22,0,3.22-5,0-5s-3.22,5,0,5h0Z"/>
    <path class="cls-15" d="m201.44,376.37c3.22,0,3.22-5,0-5s-3.22,5,0,5h0Z"/>
    <path class="cls-15" d="m171.44,346.37c3.22,0,3.22-5,0-5s-3.22,5,0,5h0Z"/>
    <path class="cls-15" d="m141.44,376.37c3.22,0,3.22-5,0-5s-3.22,5,0,5h0Z"/>
    <path class="cls-15" d="m171.44,375c1.45,0,1.45-2.25,0-2.25s-1.45,2.25,0,2.25h0Z"/>
  </g>
  <g>
    <path class="cls-15" d="m261.44,556.37c3.22,0,3.22-5,0-5s-3.22,5,0,5h0Z"/>
    <path class="cls-15" d="m291.44,526.37c3.22,0,3.22-5,0-5s-3.22,5,0,5h0Z"/>
    <path class="cls-15" d="m261.44,496.37c3.22,0,3.22-5,0-5s-3.22,5,0,5h0Z"/>
    <path class="cls-15" d="m231.44,526.37c3.22,0,3.22-5,0-5s-3.22,5,0,5h0Z"/>
    <path class="cls-15" d="m261.44,525c1.45,0,1.45-2.25,0-2.25s-1.45,2.25,0,2.25h0Z"/>
  </g>
  <g>
    <path class="cls-15" d="m261.44,406.37c3.22,0,3.22-5,0-5s-3.22,5,0,5h0Z"/>
    <path class="cls-15" d="m291.44,376.37c3.22,0,3.22-5,0-5s-3.22,5,0,5h0Z"/>
    <path class="cls-15" d="m261.44,346.37c3.22,0,3.22-5,0-5s-3.22,5,0,5h0Z"/>
    <path class="cls-15" d="m231.44,376.37c3.22,0,3.22-5,0-5s-3.22,5,0,5h0Z"/>
    <path class="cls-15" d="m261.44,375c1.45,0,1.45-2.25,0-2.25s-1.45,2.25,0,2.25h0Z"/>
  </g>
  <g>
    <path class="cls-15" d="m351.44,556.37c3.22,0,3.22-5,0-5s-3.22,5,0,5h0Z"/>
    <path class="cls-15" d="m381.44,526.37c3.22,0,3.22-5,0-5s-3.22,5,0,5h0Z"/>
    <path class="cls-15" d="m351.44,496.37c3.22,0,3.22-5,0-5s-3.22,5,0,5h0Z"/>
    <path class="cls-15" d="m321.44,526.37c3.22,0,3.22-5,0-5s-3.22,5,0,5h0Z"/>
    <path class="cls-15" d="m351.44,525c1.45,0,1.45-2.25,0-2.25s-1.45,2.25,0,2.25h0Z"/>
  </g>
  <g>
    <path class="cls-15" d="m351.44,406.37c3.22,0,3.22-5,0-5s-3.22,5,0,5h0Z"/>
    <path class="cls-15" d="m381.44,376.37c3.22,0,3.22-5,0-5s-3.22,5,0,5h0Z"/>
    <path class="cls-15" d="m351.44,346.37c3.22,0,3.22-5,0-5s-3.22,5,0,5h0Z"/>
    <path class="cls-15" d="m321.44,376.37c3.22,0,3.22-5,0-5s-3.22,5,0,5h0Z"/>
    <path class="cls-15" d="m351.44,375c1.45,0,1.45-2.25,0-2.25s-1.45,2.25,0,2.25h0Z"/>
  </g>
  <g>
    <rect class="cls-18" x="83.14" y="522.57" width="25.25" height="2.59" rx=".99" ry=".99"/>
    <rect class="cls-16" x="54.49" y="522.57" width="25.25" height="2.59" rx=".99" ry=".99"/>
  </g>
  <g>
    <rect class="cls-18" x="260.14" y="525.57" width="2.59" height="25.25" rx=".99" ry=".99"/>
    <rect class="cls-16" x="234.49" y="522.57" width="25.25" height="2.59" rx=".99" ry=".99"/>
  </g>
  <g>
    <rect class="cls-18" x="260.14" y="375.57" width="2.59" height="25.25" rx=".99" ry=".99"/>
    <rect class="cls-16" x="234.49" y="372.57" width="25.25" height="2.59" rx=".99" ry=".99"/>
  </g>
  <g>
    <rect class="cls-18" x="350.14" y="525.57" width="2.59" height="25.25" rx=".99" ry=".99"/>
    <rect class="cls-16" x="324.49" y="522.57" width="25.25" height="2.59" rx=".99" ry=".99"/>
  </g>
  <g>
    <rect class="cls-18" x="350.14" y="375.57" width="2.59" height="25.25" rx=".99" ry=".99"/>
    <rect class="cls-16" x="324.49" y="372.57" width="25.25" height="2.59" rx=".99" ry=".99"/>
  </g>
  <g>
    <rect class="cls-18" x="83.14" y="372.57" width="25.25" height="2.59" rx=".99" ry=".99"/>
    <rect class="cls-16" x="54.49" y="372.57" width="25.25" height="2.59" rx=".99" ry=".99"/>
  </g>
  <g>
    <rect class="cls-16" x="168.16" y="375.36" width="2.59" height="25.25" rx=".99" ry=".99"/>
    <rect class="cls-18" x="172.13" y="375.36" width="2.59" height="25.25" rx=".99" ry=".99"/>
  </g>
  <g>
    <rect class="cls-18" x="175.76" y="525.36" width="2.59" height="25.25" rx=".99" ry=".99"/>
    <rect class="cls-16" x="164.53" y="525.36" width="2.59" height="25.25" rx=".99" ry=".99"/>
  </g>
  <path class="cls-16" d="m63.41,527.39c-.91-.67-3.84-1.96-4.13-2.1-.16.28-1.86,2.99-2.23,4.07-.26.78.84,1.33.84,1.33l1.42-2.7c1.53,5.19,6.87,5.53,8.19,5.53,5.74,0,9.73-4.28,9.73-9.56,0-5.55-4.31-9.75-9.85-9.75-4.19,0-7.68,2.75-8.89,6.79-.4,1.39,1.21,1.8,1.63.45,1.03-3.34,3.8-5.53,7.25-5.53,4.61,0,8.16,3.44,8.16,8.05,0,4.34-3.69,7.96-8.03,7.96-1.32,0-5.1-.22-6.72-4.4l2.69,1.44s.6-1.08-.06-1.58Z"/>
  <path class="cls-16" d="m243.41,527.39c-.91-.67-3.84-1.96-4.13-2.1-.16.28-1.86,2.99-2.23,4.07-.26.78.84,1.33.84,1.33l1.42-2.7c1.53,5.19,6.87,5.53,8.19,5.53,5.74,0,9.73-4.28,9.73-9.56,0-5.55-4.31-9.75-9.85-9.75-4.19,0-7.68,2.75-8.89,6.79-.4,1.39,1.21,1.8,1.63.45,1.03-3.34,3.8-5.53,7.25-5.53,4.61,0,8.16,3.44,8.16,8.05,0,4.34-3.69,7.96-8.03,7.96-1.32,0-5.1-.22-6.72-4.4l2.69,1.44s.6-1.08-.06-1.58Z"/>
  <path class="cls-16" d="m162.3,534.28c.67-.91,1.96-3.84,2.1-4.13-.28-.16-2.99-1.86-4.07-2.23-.78-.26-1.33.84-1.33.84l2.7,1.42c-5.19,1.53-5.53,6.87-5.53,8.19,0,5.74,4.28,9.73,9.56,9.73,5.55,0,9.75-4.31,9.75-9.85,0-4.19-2.75-7.68-6.79-8.89-1.39-.4-1.8,1.21-.45,1.63,3.34,1.03,5.53,3.8,5.53,7.25,0,4.61-3.44,8.16-8.05,8.16-4.34,0-7.96-3.69-7.96-8.03,0-1.32.22-5.1,4.4-6.72l-1.44,2.69s1.08.6,1.58-.06Z"/>
  <path class="cls-15" d="m617.68,422.27c.06-.29,1.97-5.54,3.02-7.94.32-.73.61-.72.74-.72s.42,0,.74.72c1.05,2.4,2.96,7.64,3.02,7.94.23,1-.08,1.16-.44,1.3-.28.13-.86.02-1.12-.7-.16-.42-2.2-5.86-2.2-5.86,0,0-2.05,5.44-2.2,5.86-.25.72-.83.82-1.12.7-.36-.15-.67-.3-.44-1.3Z"/>
  <path class="cls-15" d="m717.68,422.27c.06-.29,1.97-5.54,3.02-7.94.32-.73.61-.72.74-.72s.42,0,.74.72c1.05,2.4,2.96,7.64,3.02,7.94.23,1-.08,1.16-.44,1.3-.28.13-.86.02-1.12-.7-.16-.42-2.2-5.86-2.2-5.86,0,0-2.05,5.44-2.2,5.86-.25.72-.83.82-1.12.7-.36-.15-.67-.3-.44-1.3Z"/>
  <path class="cls-15" d="m535.76,415.29c-.5,2.51-1.03,3.37-3.39,3.82-.04,0-.07.04-.08.07v3.6c0,.22-.1.44-.25.6s-.36.24-.59.24-.43-.09-.61-.24c-.16-.16-.24-.38-.24-.6v-3.6s-.05-.06-.09-.07c-2.35-.45-2.88-1.31-3.38-3.82-.08-.36-.04-.65.12-.83.17-.21.42-.24.56-.24.24,0,.43.22.56.45.13.23.2.47.21.54.25,1.71.73,2.29,1.85,2.29h.09s.07-.02.09-.06v-3.05c.12-.28.2-.48.31-.6.07-.06.15-.1.23-.13.05-.02.1-.03.14-.04.11-.02.24-.02.33,0,.05,0,.1.02.15.04.07,0,.15.06.22.13.12.12.21.31.3.6v.03s.02.03.02.05v2.94s0,.02,0,.04c0,.03.05.05.09.05,1.2.04,1.68-.54,1.93-2.29.03-.13.28-.99.76-.99h0c.14,0,.39.03.56.24.15.19.19.47.12.83Z"/>
  <path class="cls-15" d="m444.72,416.4c-.71-.51-1.55-.82-2.45-.91v-1.11c0-.42-.34-.76-.77-.76h-.12c-.43,0-.77.34-.77.76v1.11c-.9.09-1.75.4-2.45.91-.71.48-1.09,1.08-1.14,1.75-.06.85.42,1.62.85,2.01.7.66,1.64,1.05,2.74,1.14v1.55c0,.42.34.76.77.76h.12c.43,0,.77-.34.77-.76v-1.55c1.1-.09,2.04-.48,2.74-1.14.43-.39.91-1.17.85-2.01-.05-.68-.43-1.26-1.14-1.75Zm-2.45,1.84c0-.41,0-.75.04-1.08,0-.11.1-.2.21-.21h.07c.8,0,1.4.28,1.68.79.25.45.22,1.01-.09,1.45-.34.52-.97.77-1.72.69-.1,0-.18-.1-.18-.21,0-.27,0-.56,0-.85,0-.2,0-.39,0-.59Zm-3.66-.49c.27-.51.87-.79,1.67-.79h.07c.12,0,.21.1.22.21.03.33.04.69.04,1.08,0,.2,0,.4,0,.6,0,.28,0,.57,0,.84,0,.11-.08.2-.18.21-.75.09-1.37-.17-1.72-.69-.3-.44-.33-1-.09-1.45Z"/>
  <path class="cls-15" d="m257.68,572.27c.06-.29,1.97-5.54,3.02-7.94.32-.73.61-.72.74-.72s.42,0,.74.72c1.05,2.4,2.96,7.64,3.02,7.94.23,1-.08,1.16-.44,1.3-.28.13-.86.02-1.12-.7-.16-.42-2.2-5.86-2.2-5.86,0,0-2.05,5.44-2.2,5.86-.25.72-.83.82-1.12.7-.36-.15-.67-.3-.44-1.3Z"/>
  <path class="cls-15" d="m347.68,572.27c.06-.29,1.97-5.54,3.02-7.94.32-.73.61-.72.74-.72s.42,0,.74.72c1.05,2.4,2.96,7.64,3.02,7.94.23,1-.08,1.16-.44,1.3-.28.13-.86.02-1.12-.7-.16-.42-2.2-5.86-2.2-5.86,0,0-2.05,5.44-2.2,5.86-.25.72-.83.82-1.12.7-.36-.15-.67-.3-.44-1.3Z"/>
  <path class="cls-15" d="m175.76,565.29c-.5,2.51-1.03,3.37-3.39,3.82-.04,0-.07.04-.08.07v3.6c0,.22-.1.44-.25.6s-.36.24-.59.24-.43-.09-.61-.24c-.16-.16-.24-.38-.24-.6v-3.6s-.05-.06-.09-.07c-2.35-.45-2.88-1.31-3.38-3.82-.08-.36-.04-.65.12-.83.17-.21.42-.24.56-.24.24,0,.43.22.56.45.13.23.2.47.21.54.25,1.71.73,2.29,1.85,2.29h.09s.07-.02.09-.06v-3.05c.12-.28.2-.48.31-.6.07-.06.15-.1.23-.13.05-.02.1-.03.14-.04.11-.02.24-.02.33,0,.05,0,.1.02.15.04.07,0,.15.06.22.13.12.12.21.31.3.6v.03s.02.03.02.05v2.94s0,.02,0,.04c0,.03.05.05.09.05,1.2.04,1.68-.54,1.93-2.29.03-.13.28-.99.76-.99h0c.14,0,.39.03.56.24.15.19.19.47.12.83Z"/>
  <path class="cls-15" d="m84.72,566.4c-.71-.51-1.55-.82-2.45-.91v-1.11c0-.42-.34-.76-.77-.76h-.12c-.43,0-.77.34-.77.76v1.11c-.9.09-1.75.4-2.45.91-.71.48-1.09,1.08-1.14,1.75-.06.85.42,1.62.85,2.01.7.66,1.64,1.05,2.74,1.14v1.55c0,.42.34.76.77.76h.12c.43,0,.77-.34.77-.76v-1.55c1.1-.09,2.04-.48,2.74-1.14.43-.39.91-1.17.85-2.01-.05-.68-.43-1.26-1.14-1.75Zm-2.45,1.84c0-.41,0-.75.04-1.08,0-.11.1-.2.21-.21h.07c.8,0,1.4.28,1.68.79.25.45.22,1.01-.09,1.45-.34.52-.97.77-1.72.69-.1,0-.18-.1-.18-.21,0-.27,0-.56,0-.85,0-.2,0-.39,0-.59Zm-3.66-.49c.27-.51.87-.79,1.67-.79h.07c.12,0,.21.1.22.21.03.33.04.69.04,1.08,0,.2,0,.4,0,.6,0,.28,0,.57,0,.84,0,.11-.08.2-.18.21-.75.09-1.37-.17-1.72-.69-.3-.44-.33-1-.09-1.45Z"/>
  <path class="cls-15" d="m257.68,422.27c.06-.29,1.97-5.54,3.02-7.94.32-.73.61-.72.74-.72s.42,0,.74.72c1.05,2.4,2.96,7.64,3.02,7.94.23,1-.08,1.16-.44,1.3-.28.13-.86.02-1.12-.7-.16-.42-2.2-5.86-2.2-5.86,0,0-2.05,5.44-2.2,5.86-.25.72-.83.82-1.12.7-.36-.15-.67-.3-.44-1.3Z"/>
  <path class="cls-15" d="m347.68,422.27c.06-.29,1.97-5.54,3.02-7.94.32-.73.61-.72.74-.72s.42,0,.74.72c1.05,2.4,2.96,7.64,3.02,7.94.23,1-.08,1.16-.44,1.3-.28.13-.86.02-1.12-.7-.16-.42-2.2-5.86-2.2-5.86,0,0-2.05,5.44-2.2,5.86-.25.72-.83.82-1.12.7-.36-.15-.67-.3-.44-1.3Z"/>
  <path class="cls-15" d="m175.76,415.29c-.5,2.51-1.03,3.37-3.39,3.82-.04,0-.07.04-.08.07v3.6c0,.22-.1.44-.25.6s-.36.24-.59.24-.43-.09-.61-.24c-.16-.16-.24-.38-.24-.6v-3.6s-.05-.06-.09-.07c-2.35-.45-2.88-1.31-3.38-3.82-.08-.36-.04-.65.12-.83.17-.21.42-.24.56-.24.24,0,.43.22.56.45.13.23.2.47.21.54.25,1.71.73,2.29,1.85,2.29h.09s.07-.02.09-.06v-3.05c.12-.28.2-.48.31-.6.07-.06.15-.1.23-.13.05-.02.1-.03.14-.04.11-.02.24-.02.33,0,.05,0,.1.02.15.04.07,0,.15.06.22.13.12.12.21.31.3.6v.03s.02.03.02.05v2.94s0,.02,0,.04c0,.03.05.05.09.05,1.2.04,1.68-.54,1.93-2.29.03-.13.28-.99.76-.99h0c.14,0,.39.03.56.24.15.19.19.47.12.83Z"/>
  <path class="cls-15" d="m84.72,416.4c-.71-.51-1.55-.82-2.45-.91v-1.11c0-.42-.34-.76-.77-.76h-.12c-.43,0-.77.34-.77.76v1.11c-.9.09-1.75.4-2.45.91-.71.48-1.09,1.08-1.14,1.75-.06.85.42,1.62.85,2.01.7.66,1.64,1.05,2.74,1.14v1.55c0,.42.34.76.77.76h.12c.43,0,.77-.34.77-.76v-1.55c1.1-.09,2.04-.48,2.74-1.14.43-.39.91-1.17.85-2.01-.05-.68-.43-1.26-1.14-1.75Zm-2.45,1.84c0-.41,0-.75.04-1.08,0-.11.1-.2.21-.21h.07c.8,0,1.4.28,1.68.79.25.45.22,1.01-.09,1.45-.34.52-.97.77-1.72.69-.1,0-.18-.1-.18-.21,0-.27,0-.56,0-.85,0-.2,0-.39,0-.59Zm-3.66-.49c.27-.51.87-.79,1.67-.79h.07c.12,0,.21.1.22.21.03.33.04.69.04,1.08,0,.2,0,.4,0,.6,0,.28,0,.57,0,.84,0,.11-.08.2-.18.21-.75.09-1.37-.17-1.72-.69-.3-.44-.33-1-.09-1.45Z"/>
  <g>
    <rect class="cls-15" x="447.39" y="417.66" width="6.95" height="1.9" rx=".95" ry=".95"/>
    <rect class="cls-15" x="536.44" y="417.66" width="6.95" height="1.9" rx=".95" ry=".95"/>
    <rect class="cls-15" x="625.95" y="417.66" width="6.95" height="1.9" rx=".95" ry=".95"/>
    <rect class="cls-15" x="726.01" y="417.66" width="6.95" height="1.9" rx=".95" ry=".95"/>
  </g>
  <g>
    <rect class="cls-15" x="446.77" y="267.66" width="6.95" height="1.9" rx=".95" ry=".95"/>
    <rect class="cls-15" x="536.33" y="267.66" width="6.95" height="1.9" rx=".95" ry=".95"/>
    <rect class="cls-15" x="626.72" y="267.66" width="6.95" height="1.9" rx=".95" ry=".95"/>
    <rect class="cls-15" x="727.39" y="267.66" width="6.95" height="1.9" rx=".95" ry=".95"/>
  </g>
  <g>
    <rect class="cls-15" x="447.39" y="167.66" width="6.95" height="1.9" rx=".95" ry=".95"/>
    <rect class="cls-15" x="536.4" y="167.66" width="6.95" height="1.9" rx=".95" ry=".95"/>
    <rect class="cls-15" x="625.89" y="167.66" width="6.95" height="1.9" rx=".95" ry=".95"/>
    <rect class="cls-15" x="725.54" y="167.66" width="6.95" height="1.9" rx=".95" ry=".95"/>
  </g>
  <path class="cls-16" d="m430.22,113.44c-1.08.79-3.91,4.05-3.91,4.05,0,0,2.83,3.26,3.91,4.05.82.59,1.87-.5,1.87-.5l-2.58-2.62h26.07c1.32,0,1.32-1.86,0-1.86h-26.07s2.58-2.62,2.58-2.62c0,0-1.05-1.09-1.87-.5Z"/>
  <path class="cls-16" d="m520.22,113.44c-1.08.79-3.91,4.05-3.91,4.05,0,0,2.83,3.26,3.91,4.05.82.59,1.87-.5,1.87-.5l-2.58-2.62h26.07c1.32,0,1.32-1.86,0-1.86h-26.07s2.58-2.62,2.58-2.62c0,0-1.05-1.09-1.87-.5Z"/>
  <path class="cls-16" d="m430.22,219.72c-1.08-.79-3.91-4.05-3.91-4.05,0,0,2.83-3.26,3.91-4.05.82-.59,1.87.5,1.87.5l-2.58,2.62h26.07c1.32,0,1.32,1.86,0,1.86h-26.07s2.58,2.62,2.58,2.62c0,0-1.05,1.09-1.87.5Z"/>
  <path class="cls-16" d="m520.22,219.72c-1.08-.79-3.91-4.05-3.91-4.05,0,0,2.83-3.26,3.91-4.05.82-.59,1.87.5,1.87.5l-2.58,2.62h26.07c1.32,0,1.32,1.86,0,1.86h-26.07s2.58,2.62,2.58,2.62c0,0-1.05,1.09-1.87.5Z"/>
  <path class="cls-16" d="m610.22,219.72c-1.08-.79-3.91-4.05-3.91-4.05,0,0,2.83-3.26,3.91-4.05.82-.59,1.87.5,1.87.5l-2.58,2.62h26.07c1.32,0,1.32,1.86,0,1.86h-26.07s2.58,2.62,2.58,2.62c0,0-1.05,1.09-1.87.5Z"/>
  <path class="cls-16" d="m710.22,219.72c-1.08-.79-3.91-4.05-3.91-4.05,0,0,2.83-3.26,3.91-4.05.82-.59,1.87.5,1.87.5l-2.58,2.62h26.07c1.32,0,1.32,1.86,0,1.86h-26.07s2.58,2.62,2.58,2.62c0,0-1.05,1.09-1.87.5Z"/>
  <path class="cls-16" d="m608.55,135.09c.79,1.08,4.05,3.91,4.05,3.91,0,0,3.26-2.83,4.05-3.91.59-.82-.5-1.87-.5-1.87l-2.62,2.58v-26.07c0-1.32-1.86-1.32-1.86,0v26.07s-2.62-2.58-2.62-2.58c0,0-1.09,1.05-.5,1.87Z"/>
  <path class="cls-16" d="m708.55,135.09c.79,1.08,4.05,3.91,4.05,3.91,0,0,3.26-2.83,4.05-3.91.59-.82-.5-1.87-.5-1.87l-2.62,2.58v-26.07c0-1.32-1.86-1.32-1.86,0v26.07s-2.62-2.58-2.62-2.58c0,0-1.09,1.05-.5,1.87Z"/>
  <g>
    <line class="cls-13" x1="396.42" y1="89.96" x2="396.42" y2="574.61"/>
    <line class="cls-13" x1="24.61" y1="289.39" x2="772.39" y2="289.39"/>
    <line class="cls-11" x1="48.92" y1="182.43" x2="743.92" y2="182.43"/>
    <line class="cls-11" x1="48.92" y1="432.37" x2="743.92" y2="432.37"/>
  </g>
  <text class="cls-12" transform="translate(365.43 42.09)"><tspan x="0" y="0">2 / 0</tspan></text>
  <text class="cls-12" transform="translate(193.53 467.99)"><tspan x="0" y="0">0 / 2</tspan></text>
  <g>
    <path d="m92.08,167.06l-.03.05h-2.95v-.16c.01-.05.01-.09.02-.11.01-.08.02-.14.05-.21.07-.24.18-.46.32-.66.08-.12.19-.24.28-.34.16-.17.32-.34.49-.5l.04-.04c.15-.14.28-.27.42-.41.02-.03.06-.06.09-.11.03-.03.06-.06.08-.11.09-.12.15-.23.17-.33v-.02c.01-.06.02-.11.02-.17,0,0,0-.02-.01-.04,0-.04,0-.06-.01-.11-.05-.13-.13-.21-.26-.25-.08-.03-.22-.03-.35.01-.1.04-.18.11-.22.21-.02.05-.03.12-.04.17s-.02.1-.02.13v.12h-.11c-.14-.02-.27-.03-.4-.04-.14-.01-.26-.03-.39-.04h-.09v-.14c.01-.11.02-.21.06-.31.03-.15.07-.27.14-.38.08-.16.21-.29.4-.41.13-.09.27-.15.45-.19.07-.02.15-.03.24-.04.11-.01.22-.01.33,0,.1,0,.23.02.33.04.19.05.34.13.48.24.17.13.29.29.39.5.04.09.07.18.08.31.01.1.02.18.01.27,0,.21-.05.44-.16.64-.07.15-.17.29-.24.4-.09.11-.18.2-.26.29-.11.13-.24.25-.37.35-.11.12-.24.23-.35.35-.04.04-.07.08-.1.12h1.48v.11c.01.77,0,.78-.01.81Z"/>
    <path d="m181.08,167.06l-.03.05h-2.95v-.16c.01-.05.01-.09.02-.11.01-.08.02-.14.05-.21.07-.24.18-.46.32-.66.08-.12.19-.24.28-.34.16-.17.32-.34.49-.5l.04-.04c.15-.14.28-.27.42-.41.02-.03.06-.06.09-.11.03-.03.06-.06.08-.11.09-.12.15-.23.17-.33v-.02c.01-.06.02-.11.02-.17,0,0,0-.02-.01-.04,0-.04,0-.06-.01-.11-.05-.13-.13-.21-.26-.25-.08-.03-.22-.03-.35.01-.1.04-.18.11-.22.21-.02.05-.03.12-.04.17s-.02.1-.02.13v.12h-.11c-.14-.02-.27-.03-.4-.04-.14-.01-.26-.03-.39-.04h-.09v-.14c.01-.11.02-.21.06-.31.03-.15.07-.27.14-.38.08-.16.21-.29.4-.41.13-.09.27-.15.45-.19.07-.02.15-.03.24-.04.11-.01.22-.01.33,0,.1,0,.23.02.33.04.19.05.34.13.48.24.17.13.29.29.39.5.04.09.07.18.08.31.01.1.02.18.01.27,0,.21-.05.44-.16.64-.07.15-.17.29-.24.4-.09.11-.18.2-.26.29-.11.13-.24.25-.37.35-.11.12-.24.23-.35.35-.04.04-.07.08-.1.12h1.48v.11c.01.77,0,.78-.01.81Z"/>
    <path d="m271.08,167.06l-.03.05h-2.95v-.16c.01-.05.01-.09.02-.11.01-.08.02-.14.05-.21.07-.24.18-.46.32-.66.08-.12.19-.24.28-.34.16-.17.32-.34.49-.5l.04-.04c.15-.14.28-.27.42-.41.02-.03.06-.06.09-.11.03-.03.06-.06.08-.11.09-.12.15-.23.17-.33v-.02c.01-.06.02-.11.02-.17,0,0,0-.02-.01-.04,0-.04,0-.06-.01-.11-.05-.13-.13-.21-.26-.25-.08-.03-.22-.03-.35.01-.1.04-.18.11-.22.21-.02.05-.03.12-.04.17s-.02.1-.02.13v.12h-.11c-.14-.02-.27-.03-.4-.04-.14-.01-.26-.03-.39-.04h-.09v-.14c.01-.11.02-.21.06-.31.03-.15.07-.27.14-.38.08-.16.21-.29.4-.41.13-.09.27-.15.45-.19.07-.02.15-.03.24-.04.11-.01.22-.01.33,0,.1,0,.23.02.33.04.19.05.34.13.48.24.17.13.29.29.39.5.04.09.07.18.08.31.01.1.02.18.01.27,0,.21-.05.44-.16.64-.07.15-.17.29-.24.4-.09.11-.18.2-.26.29-.11.13-.24.25-.37.35-.11.12-.24.23-.35.35-.04.04-.07.08-.1.12h1.48v.11c.01.77,0,.78-.01.81Z"/>
    <path d="m361.08,167.06l-.03.05h-2.95v-.16c.01-.05.01-.09.02-.11.01-.08.02-.14.05-.21.07-.24.18-.46.32-.66.08-.12.19-.24.28-.34.16-.17.32-.34.49-.5l.04-.04c.15-.14.28-.27.42-.41.02-.03.06-.06.09-.11.03-.03.06-.06.08-.11.09-.12.15-.23.17-.33v-.02c.01-.06.02-.11.02-.17,0,0,0-.02-.01-.04,0-.04,0-.06-.01-.11-.05-.13-.13-.21-.26-.25-.08-.03-.22-.03-.35.01-.1.04-.18.11-.22.21-.02.05-.03.12-.04.17s-.02.1-.02.13v.12h-.11c-.14-.02-.27-.03-.4-.04-.14-.01-.26-.03-.39-.04h-.09v-.14c.01-.11.02-.21.06-.31.03-.15.07-.27.14-.38.08-.16.21-.29.4-.41.13-.09.27-.15.45-.19.07-.02.15-.03.24-.04.11-.01.22-.01.33,0,.1,0,.23.02.33.04.19.05.34.13.48.24.17.13.29.29.39.5.04.09.07.18.08.31.01.1.02.18.01.27,0,.21-.05.44-.16.64-.07.15-.17.29-.24.4-.09.11-.18.2-.26.29-.11.13-.24.25-.37.35-.11.12-.24.23-.35.35-.04.04-.07.08-.1.12h1.48v.11c.01.77,0,.78-.01.81Z"/>
    <path d="m459.18,167.06l-.03.05h-2.95v-.16c.01-.05.01-.09.02-.11.01-.08.02-.14.05-.21.07-.24.18-.46.32-.66.08-.12.19-.24.28-.34.16-.17.32-.34.49-.5l.04-.04c.15-.14.28-.27.42-.41.02-.03.06-.06.09-.11.03-.03.06-.06.08-.11.09-.12.15-.23.17-.33v-.02c.01-.06.02-.11.02-.17,0,0,0-.02-.01-.04,0-.04,0-.06-.01-.11-.05-.13-.13-.21-.26-.25-.08-.03-.22-.03-.35.01-.1.04-.18.11-.22.21-.02.05-.03.12-.04.17s-.02.1-.02.13v.12h-.11c-.14-.02-.27-.03-.4-.04-.14-.01-.26-.03-.39-.04h-.09v-.14c.01-.11.02-.21.06-.31.03-.15.07-.27.14-.38.08-.16.21-.29.4-.41.13-.09.27-.15.45-.19.07-.02.15-.03.24-.04.11-.01.22-.01.33,0,.1,0,.23.02.33.04.19.05.34.13.48.24.17.13.29.29.39.5.04.09.07.18.08.31.01.1.02.18.01.27,0,.21-.05.44-.16.64-.07.15-.17.29-.24.4-.09.11-.18.2-.26.29-.11.13-.24.25-.37.35-.11.12-.24.23-.35.35-.04.04-.07.08-.1.12h1.48v.11c.01.77,0,.78-.01.81Z"/>
    <path d="m547.18,167.06l-.03.05h-2.95v-.16c.01-.05.01-.09.02-.11.01-.08.02-.14.05-.21.07-.24.18-.46.32-.66.08-.12.19-.24.28-.34.16-.17.32-.34.49-.5l.04-.04c.15-.14.28-.27.42-.41.02-.03.06-.06.09-.11.03-.03.06-.06.08-.11.09-.12.15-.23.17-.33v-.02c.01-.06.02-.11.02-.17,0,0,0-.02-.01-.04,0-.04,0-.06-.01-.11-.05-.13-.13-.21-.26-.25-.08-.03-.22-.03-.35.01-.1.04-.18.11-.22.21-.02.05-.03.12-.04.17s-.02.1-.02.13v.12h-.11c-.14-.02-.27-.03-.4-.04-.14-.01-.26-.03-.39-.04h-.09v-.14c.01-.11.02-.21.06-.31.03-.15.07-.27.14-.38.08-.16.21-.29.4-.41.13-.09.27-.15.45-.19.07-.02.15-.03.24-.04.11-.01.22-.01.33,0,.1,0,.23.02.33.04.19.05.34.13.48.24.17.13.29.29.39.5.04.09.07.18.08.31.01.1.02.18.01.27,0,.21-.05.44-.16.64-.07.15-.17.29-.24.4-.09.11-.18.2-.26.29-.11.13-.24.25-.37.35-.11.12-.24.23-.35.35-.04.04-.07.08-.1.12h1.48v.11c.01.77,0,.78-.01.81Z"/>
    <path d="m637.18,167.06l-.03.05h-2.95v-.16c.01-.05.01-.09.02-.11.01-.08.02-.14.05-.21.07-.24.18-.46.32-.66.08-.12.19-.24.28-.34.16-.17.32-.34.49-.5l.04-.04c.15-.14.28-.27.42-.41.02-.03.06-.06.09-.11.03-.03.06-.06.08-.11.09-.12.15-.23.17-.33v-.02c.01-.06.02-.11.02-.17,0,0,0-.02-.01-.04,0-.04,0-.06-.01-.11-.05-.13-.13-.21-.26-.25-.08-.03-.22-.03-.35.01-.1.04-.18.11-.22.21-.02.05-.03.12-.04.17s-.02.1-.02.13v.12h-.11c-.14-.02-.27-.03-.4-.04-.14-.01-.26-.03-.39-.04h-.09v-.14c.01-.11.02-.21.06-.31.03-.15.07-.27.14-.38.08-.16.21-.29.4-.41.13-.09.27-.15.45-.19.07-.02.15-.03.24-.04.11-.01.22-.01.33,0,.1,0,.23.02.33.04.19.05.34.13.48.24.17.13.29.29.39.5.04.09.07.18.08.31.01.1.02.18.01.27,0,.21-.05.44-.16.64-.07.15-.17.29-.24.4-.09.11-.18.2-.26.29-.11.13-.24.25-.37.35-.11.12-.24.23-.35.35-.04.04-.07.08-.1.12h1.48v.11c.01.77,0,.78-.01.81Z"/>
    <path d="m727.18,167.06l-.03.05h-2.95v-.16c.01-.05.01-.09.02-.11.01-.08.02-.14.05-.21.07-.24.18-.46.32-.66.08-.12.19-.24.28-.34.16-.17.32-.34.49-.5l.04-.04c.15-.14.28-.27.42-.41.02-.03.06-.06.09-.11.03-.03.06-.06.08-.11.09-.12.15-.23.17-.33v-.02c.01-.06.02-.11.02-.17,0,0,0-.02-.01-.04,0-.04,0-.06-.01-.11-.05-.13-.13-.21-.26-.25-.08-.03-.22-.03-.35.01-.1.04-.18.11-.22.21-.02.05-.03.12-.04.17s-.02.1-.02.13v.12h-.11c-.14-.02-.27-.03-.4-.04-.14-.01-.26-.03-.39-.04h-.09v-.14c.01-.11.02-.21.06-.31.03-.15.07-.27.14-.38.08-.16.21-.29.4-.41.13-.09.27-.15.45-.19.07-.02.15-.03.24-.04.11-.01.22-.01.33,0,.1,0,.23.02.33.04.19.05.34.13.48.24.17.13.29.29.39.5.04.09.07.18.08.31.01.1.02.18.01.27,0,.21-.05.44-.16.64-.07.15-.17.29-.24.4-.09.11-.18.2-.26.29-.11.13-.24.25-.37.35-.11.12-.24.23-.35.35-.04.04-.07.08-.1.12h1.48v.11c.01.77,0,.78-.01.81Z"/>
    <path d="m92.08,267.06l-.03.05h-2.95v-.16c.01-.05.01-.09.02-.11.01-.08.02-.14.05-.21.07-.24.18-.46.32-.66.08-.12.19-.24.28-.34.16-.17.32-.34.49-.5l.04-.04c.15-.14.28-.27.42-.41.02-.03.06-.06.09-.11.03-.03.06-.06.08-.11.09-.12.15-.23.17-.33v-.02c.01-.06.02-.11.02-.17,0,0,0-.02-.01-.04,0-.04,0-.06-.01-.11-.05-.13-.13-.21-.26-.25-.08-.03-.22-.03-.35.01-.1.04-.18.11-.22.21-.02.05-.03.12-.04.17s-.02.1-.02.13v.12h-.11c-.14-.02-.27-.03-.4-.04-.14-.01-.26-.03-.39-.04h-.09v-.14c.01-.11.02-.21.06-.31.03-.15.07-.27.14-.38.08-.16.21-.29.4-.41.13-.09.27-.15.45-.19.07-.02.15-.03.24-.04.11-.01.22-.01.33,0,.1,0,.23.02.33.04.19.05.34.13.48.24.17.13.29.29.39.5.04.09.07.18.08.31.01.1.02.18.01.27,0,.21-.05.44-.16.64-.07.15-.17.29-.24.4-.09.11-.18.2-.26.29-.11.13-.24.25-.37.35-.11.12-.24.23-.35.35-.04.04-.07.08-.1.12h1.48v.11c.01.77,0,.78-.01.81Z"/>
    <path d="m181.08,267.06l-.03.05h-2.95v-.16c.01-.05.01-.09.02-.11.01-.08.02-.14.05-.21.07-.24.18-.46.32-.66.08-.12.19-.24.28-.34.16-.17.32-.34.49-.5l.04-.04c.15-.14.28-.27.42-.41.02-.03.06-.06.09-.11.03-.03.06-.06.08-.11.09-.12.15-.23.17-.33v-.02c.01-.06.02-.11.02-.17,0,0,0-.02-.01-.04,0-.04,0-.06-.01-.11-.05-.13-.13-.21-.26-.25-.08-.03-.22-.03-.35.01-.1.04-.18.11-.22.21-.02.05-.03.12-.04.17s-.02.1-.02.13v.12h-.11c-.14-.02-.27-.03-.4-.04-.14-.01-.26-.03-.39-.04h-.09v-.14c.01-.11.02-.21.06-.31.03-.15.07-.27.14-.38.08-.16.21-.29.4-.41.13-.09.27-.15.45-.19.07-.02.15-.03.24-.04.11-.01.22-.01.33,0,.1,0,.23.02.33.04.19.05.34.13.48.24.17.13.29.29.39.5.04.09.07.18.08.31.01.1.02.18.01.27,0,.21-.05.44-.16.64-.07.15-.17.29-.24.4-.09.11-.18.2-.26.29-.11.13-.24.25-.37.35-.11.12-.24.23-.35.35-.04.04-.07.08-.1.12h1.48v.11c.01.77,0,.78-.01.81Z"/>
    <path d="m271.08,267.06l-.03.05h-2.95v-.16c.01-.05.01-.09.02-.11.01-.08.02-.14.05-.21.07-.24.18-.46.32-.66.08-.12.19-.24.28-.34.16-.17.32-.34.49-.5l.04-.04c.15-.14.28-.27.42-.41.02-.03.06-.06.09-.11.03-.03.06-.06.08-.11.09-.12.15-.23.17-.33v-.02c.01-.06.02-.11.02-.17,0,0,0-.02-.01-.04,0-.04,0-.06-.01-.11-.05-.13-.13-.21-.26-.25-.08-.03-.22-.03-.35.01-.1.04-.18.11-.22.21-.02.05-.03.12-.04.17s-.02.1-.02.13v.12h-.11c-.14-.02-.27-.03-.4-.04-.14-.01-.26-.03-.39-.04h-.09v-.14c.01-.11.02-.21.06-.31.03-.15.07-.27.14-.38.08-.16.21-.29.4-.41.13-.09.27-.15.45-.19.07-.02.15-.03.24-.04.11-.01.22-.01.33,0,.1,0,.23.02.33.04.19.05.34.13.48.24.17.13.29.29.39.5.04.09.07.18.08.31.01.1.02.18.01.27,0,.21-.05.44-.16.64-.07.15-.17.29-.24.4-.09.11-.18.2-.26.29-.11.13-.24.25-.37.35-.11.12-.24.23-.35.35-.04.04-.07.08-.1.12h1.48v.11c.01.77,0,.78-.01.81Z"/>
    <path d="m362.08,267.06l-.03.05h-2.95v-.16c.01-.05.01-.09.02-.11.01-.08.02-.14.05-.21.07-.24.18-.46.32-.66.08-.12.19-.24.28-.34.16-.17.32-.34.49-.5l.04-.04c.15-.14.28-.27.42-.41.02-.03.06-.06.09-.11.03-.03.06-.06.08-.11.09-.12.15-.23.17-.33v-.02c.01-.06.02-.11.02-.17,0,0,0-.02-.01-.04,0-.04,0-.06-.01-.11-.05-.13-.13-.21-.26-.25-.08-.03-.22-.03-.35.01-.1.04-.18.11-.22.21-.02.05-.03.12-.04.17s-.02.1-.02.13v.12h-.11c-.14-.02-.27-.03-.4-.04-.14-.01-.26-.03-.39-.04h-.09v-.14c.01-.11.02-.21.06-.31.03-.15.07-.27.14-.38.08-.16.21-.29.4-.41.13-.09.27-.15.45-.19.07-.02.15-.03.24-.04.11-.01.22-.01.33,0,.1,0,.23.02.33.04.19.05.34.13.48.24.17.13.29.29.39.5.04.09.07.18.08.31.01.1.02.18.01.27,0,.21-.05.44-.16.64-.07.15-.17.29-.24.4-.09.11-.18.2-.26.29-.11.13-.24.25-.37.35-.11.12-.24.23-.35.35-.04.04-.07.08-.1.12h1.48v.11c.01.77,0,.78-.01.81Z"/>
    <path d="m459.18,267.06l-.03.05h-2.95v-.16c.01-.05.01-.09.02-.11.01-.08.02-.14.05-.21.07-.24.18-.46.32-.66.08-.12.19-.24.28-.34.16-.17.32-.34.49-.5l.04-.04c.15-.14.28-.27.42-.41.02-.03.06-.06.09-.11.03-.03.06-.06.08-.11.09-.12.15-.23.17-.33v-.02c.01-.06.02-.11.02-.17,0,0,0-.02-.01-.04,0-.04,0-.06-.01-.11-.05-.13-.13-.21-.26-.25-.08-.03-.22-.03-.35.01-.1.04-.18.11-.22.21-.02.05-.03.12-.04.17s-.02.1-.02.13v.12h-.11c-.14-.02-.27-.03-.4-.04-.14-.01-.26-.03-.39-.04h-.09v-.14c.01-.11.02-.21.06-.31.03-.15.07-.27.14-.38.08-.16.21-.29.4-.41.13-.09.27-.15.45-.19.07-.02.15-.03.24-.04.11-.01.22-.01.33,0,.1,0,.23.02.33.04.19.05.34.13.48.24.17.13.29.29.39.5.04.09.07.18.08.31.01.1.02.18.01.27,0,.21-.05.44-.16.64-.07.15-.17.29-.24.4-.09.11-.18.2-.26.29-.11.13-.24.25-.37.35-.11.12-.24.23-.35.35-.04.04-.07.08-.1.12h1.48v.11c.01.77,0,.78-.01.81Z"/>
    <path d="m547.18,267.06l-.03.05h-2.95v-.16c.01-.05.01-.09.02-.11.01-.08.02-.14.05-.21.07-.24.18-.46.32-.66.08-.12.19-.24.28-.34.16-.17.32-.34.49-.5l.04-.04c.15-.14.28-.27.42-.41.02-.03.06-.06.09-.11.03-.03.06-.06.08-.11.09-.12.15-.23.17-.33v-.02c.01-.06.02-.11.02-.17,0,0,0-.02-.01-.04,0-.04,0-.06-.01-.11-.05-.13-.13-.21-.26-.25-.08-.03-.22-.03-.35.01-.1.04-.18.11-.22.21-.02.05-.03.12-.04.17s-.02.1-.02.13v.12h-.11c-.14-.02-.27-.03-.4-.04-.14-.01-.26-.03-.39-.04h-.09v-.14c.01-.11.02-.21.06-.31.03-.15.07-.27.14-.38.08-.16.21-.29.4-.41.13-.09.27-.15.45-.19.07-.02.15-.03.24-.04.11-.01.22-.01.33,0,.1,0,.23.02.33.04.19.05.34.13.48.24.17.13.29.29.39.5.04.09.07.18.08.31.01.1.02.18.01.27,0,.21-.05.44-.16.64-.07.15-.17.29-.24.4-.09.11-.18.2-.26.29-.11.13-.24.25-.37.35-.11.12-.24.23-.35.35-.04.04-.07.08-.1.12h1.48v.11c.01.77,0,.78-.01.81Z"/>
    <path d="m637.18,267.06l-.03.05h-2.95v-.16c.01-.05.01-.09.02-.11.01-.08.02-.14.05-.21.07-.24.18-.46.32-.66.08-.12.19-.24.28-.34.16-.17.32-.34.49-.5l.04-.04c.15-.14.28-.27.42-.41.02-.03.06-.06.09-.11.03-.03.06-.06.08-.11.09-.12.15-.23.17-.33v-.02c.01-.06.02-.11.02-.17,0,0,0-.02-.01-.04,0-.04,0-.06-.01-.11-.05-.13-.13-.21-.26-.25-.08-.03-.22-.03-.35.01-.1.04-.18.11-.22.21-.02.05-.03.12-.04.17s-.02.1-.02.13v.12h-.11c-.14-.02-.27-.03-.4-.04-.14-.01-.26-.03-.39-.04h-.09v-.14c.01-.11.02-.21.06-.31.03-.15.07-.27.14-.38.08-.16.21-.29.4-.41.13-.09.27-.15.45-.19.07-.02.15-.03.24-.04.11-.01.22-.01.33,0,.1,0,.23.02.33.04.19.05.34.13.48.24.17.13.29.29.39.5.04.09.07.18.08.31.01.1.02.18.01.27,0,.21-.05.44-.16.64-.07.15-.17.29-.24.4-.09.11-.18.2-.26.29-.11.13-.24.25-.37.35-.11.12-.24.23-.35.35-.04.04-.07.08-.1.12h1.48v.11c.01.77,0,.78-.01.81Z"/>
    <text/>
    <path d="m92.08,417.06l-.03.05h-2.95v-.16c.01-.05.01-.09.02-.11.01-.08.02-.14.05-.21.07-.24.18-.46.32-.66.08-.12.19-.24.28-.34.16-.17.32-.34.49-.5l.04-.04c.15-.14.28-.27.42-.41.02-.03.06-.06.09-.11.03-.03.06-.06.08-.11.09-.12.15-.23.17-.33v-.02c.01-.06.02-.11.02-.17,0,0,0-.02-.01-.04,0-.04,0-.06-.01-.11-.05-.13-.13-.21-.26-.25-.08-.03-.22-.03-.35.01-.1.04-.18.11-.22.21-.02.05-.03.12-.04.17s-.02.1-.02.13v.12h-.11c-.14-.02-.27-.03-.4-.04-.14-.01-.26-.03-.39-.04h-.09v-.14c.01-.11.02-.21.06-.31.03-.15.07-.27.14-.38.08-.16.21-.29.4-.41.13-.09.27-.15.45-.19.07-.02.15-.03.24-.04.11-.01.22-.01.33,0,.1,0,.23.02.33.04.19.05.34.13.48.24.17.13.29.29.39.5.04.09.07.18.08.31.01.1.02.18.01.27,0,.21-.05.44-.16.64-.07.15-.17.29-.24.4-.09.11-.18.2-.26.29-.11.13-.24.25-.37.35-.11.12-.24.23-.35.35-.04.04-.07.08-.1.12h1.48v.11c.01.77,0,.78-.01.81Z"/>
    <path d="m181.08,417.06l-.03.05h-2.95v-.16c.01-.05.01-.09.02-.11.01-.08.02-.14.05-.21.07-.24.18-.46.32-.66.08-.12.19-.24.28-.34.16-.17.32-.34.49-.5l.04-.04c.15-.14.28-.27.42-.41.02-.03.06-.06.09-.11.03-.03.06-.06.08-.11.09-.12.15-.23.17-.33v-.02c.01-.06.02-.11.02-.17,0,0,0-.02-.01-.04,0-.04,0-.06-.01-.11-.05-.13-.13-.21-.26-.25-.08-.03-.22-.03-.35.01-.1.04-.18.11-.22.21-.02.05-.03.12-.04.17s-.02.1-.02.13v.12h-.11c-.14-.02-.27-.03-.4-.04-.14-.01-.26-.03-.39-.04h-.09v-.14c.01-.11.02-.21.06-.31.03-.15.07-.27.14-.38.08-.16.21-.29.4-.41.13-.09.27-.15.45-.19.07-.02.15-.03.24-.04.11-.01.22-.01.33,0,.1,0,.23.02.33.04.19.05.34.13.48.24.17.13.29.29.39.5.04.09.07.18.08.31.01.1.02.18.01.27,0,.21-.05.44-.16.64-.07.15-.17.29-.24.4-.09.11-.18.2-.26.29-.11.13-.24.25-.37.35-.11.12-.24.23-.35.35-.04.04-.07.08-.1.12h1.48v.11c.01.77,0,.78-.01.81Z"/>
    <path d="m271.08,417.06l-.03.05h-2.95v-.16c.01-.05.01-.09.02-.11.01-.08.02-.14.05-.21.07-.24.18-.46.32-.66.08-.12.19-.24.28-.34.16-.17.32-.34.49-.5l.04-.04c.15-.14.28-.27.42-.41.02-.03.06-.06.09-.11.03-.03.06-.06.08-.11.09-.12.15-.23.17-.33v-.02c.01-.06.02-.11.02-.17,0,0,0-.02-.01-.04,0-.04,0-.06-.01-.11-.05-.13-.13-.21-.26-.25-.08-.03-.22-.03-.35.01-.1.04-.18.11-.22.21-.02.05-.03.12-.04.17s-.02.1-.02.13v.12h-.11c-.14-.02-.27-.03-.4-.04-.14-.01-.26-.03-.39-.04h-.09v-.14c.01-.11.02-.21.06-.31.03-.15.07-.27.14-.38.08-.16.21-.29.4-.41.13-.09.27-.15.45-.19.07-.02.15-.03.24-.04.11-.01.22-.01.33,0,.1,0,.23.02.33.04.19.05.34.13.48.24.17.13.29.29.39.5.04.09.07.18.08.31.01.1.02.18.01.27,0,.21-.05.44-.16.64-.07.15-.17.29-.24.4-.09.11-.18.2-.26.29-.11.13-.24.25-.37.35-.11.12-.24.23-.35.35-.04.04-.07.08-.1.12h1.48v.11c.01.77,0,.78-.01.81Z"/>
    <path d="m361.08,417.06l-.03.05h-2.95v-.16c.01-.05.01-.09.02-.11.01-.08.02-.14.05-.21.07-.24.18-.46.32-.66.08-.12.19-.24.28-.34.16-.17.32-.34.49-.5l.04-.04c.15-.14.28-.27.42-.41.02-.03.06-.06.09-.11.03-.03.06-.06.08-.11.09-.12.15-.23.17-.33v-.02c.01-.06.02-.11.02-.17,0,0,0-.02-.01-.04,0-.04,0-.06-.01-.11-.05-.13-.13-.21-.26-.25-.08-.03-.22-.03-.35.01-.1.04-.18.11-.22.21-.02.05-.03.12-.04.17s-.02.1-.02.13v.12h-.11c-.14-.02-.27-.03-.4-.04-.14-.01-.26-.03-.39-.04h-.09v-.14c.01-.11.02-.21.06-.31.03-.15.07-.27.14-.38.08-.16.21-.29.4-.41.13-.09.27-.15.45-.19.07-.02.15-.03.24-.04.11-.01.22-.01.33,0,.1,0,.23.02.33.04.19.05.34.13.48.24.17.13.29.29.39.5.04.09.07.18.08.31.01.1.02.18.01.27,0,.21-.05.44-.16.64-.07.15-.17.29-.24.4-.09.11-.18.2-.26.29-.11.13-.24.25-.37.35-.11.12-.24.23-.35.35-.04.04-.07.08-.1.12h1.48v.11c.01.77,0,.78-.01.81Z"/>
    <path d="m459.18,417.06l-.03.05h-2.95v-.16c.01-.05.01-.09.02-.11.01-.08.02-.14.05-.21.07-.24.18-.46.32-.66.08-.12.19-.24.28-.34.16-.17.32-.34.49-.5l.04-.04c.15-.14.28-.27.42-.41.02-.03.06-.06.09-.11.03-.03.06-.06.08-.11.09-.12.15-.23.17-.33v-.02c.01-.06.02-.11.02-.17,0,0,0-.02-.01-.04,0-.04,0-.06-.01-.11-.05-.13-.13-.21-.26-.25-.08-.03-.22-.03-.35.01-.1.04-.18.11-.22.21-.02.05-.03.12-.04.17s-.02.1-.02.13v.12h-.11c-.14-.02-.27-.03-.4-.04-.14-.01-.26-.03-.39-.04h-.09v-.14c.01-.11.02-.21.06-.31.03-.15.07-.27.14-.38.08-.16.21-.29.4-.41.13-.09.27-.15.45-.19.07-.02.15-.03.24-.04.11-.01.22-.01.33,0,.1,0,.23.02.33.04.19.05.34.13.48.24.17.13.29.29.39.5.04.09.07.18.08.31.01.1.02.18.01.27,0,.21-.05.44-.16.64-.07.15-.17.29-.24.4-.09.11-.18.2-.26.29-.11.13-.24.25-.37.35-.11.12-.24.23-.35.35-.04.04-.07.08-.1.12h1.48v.11c.01.77,0,.78-.01.81Z"/>
    <path d="m547.18,417.06l-.03.05h-2.95v-.16c.01-.05.01-.09.02-.11.01-.08.02-.14.05-.21.07-.24.18-.46.32-.66.08-.12.19-.24.28-.34.16-.17.32-.34.49-.5l.04-.04c.15-.14.28-.27.42-.41.02-.03.06-.06.09-.11.03-.03.06-.06.08-.11.09-.12.15-.23.17-.33v-.02c.01-.06.02-.11.02-.17,0,0,0-.02-.01-.04,0-.04,0-.06-.01-.11-.05-.13-.13-.21-.26-.25-.08-.03-.22-.03-.35.01-.1.04-.18.11-.22.21-.02.05-.03.12-.04.17s-.02.1-.02.13v.12h-.11c-.14-.02-.27-.03-.4-.04-.14-.01-.26-.03-.39-.04h-.09v-.14c.01-.11.02-.21.06-.31.03-.15.07-.27.14-.38.08-.16.21-.29.4-.41.13-.09.27-.15.45-.19.07-.02.15-.03.24-.04.11-.01.22-.01.33,0,.1,0,.23.02.33.04.19.05.34.13.48.24.17.13.29.29.39.5.04.09.07.18.08.31.01.1.02.18.01.27,0,.21-.05.44-.16.64-.07.15-.17.29-.24.4-.09.11-.18.2-.26.29-.11.13-.24.25-.37.35-.11.12-.24.23-.35.35-.04.04-.07.08-.1.12h1.48v.11c.01.77,0,.78-.01.81Z"/>
    <path d="m637.18,417.06l-.03.05h-2.95v-.16c.01-.05.01-.09.02-.11.01-.08.02-.14.05-.21.07-.24.18-.46.32-.66.08-.12.19-.24.28-.34.16-.17.32-.34.49-.5l.04-.04c.15-.14.28-.27.42-.41.02-.03.06-.06.09-.11.03-.03.06-.06.08-.11.09-.12.15-.23.17-.33v-.02c.01-.06.02-.11.02-.17,0,0,0-.02-.01-.04,0-.04,0-.06-.01-.11-.05-.13-.13-.21-.26-.25-.08-.03-.22-.03-.35.01-.1.04-.18.11-.22.21-.02.05-.03.12-.04.17s-.02.1-.02.13v.12h-.11c-.14-.02-.27-.03-.4-.04-.14-.01-.26-.03-.39-.04h-.09v-.14c.01-.11.02-.21.06-.31.03-.15.07-.27.14-.38.08-.16.21-.29.4-.41.13-.09.27-.15.45-.19.07-.02.15-.03.24-.04.11-.01.22-.01.33,0,.1,0,.23.02.33.04.19.05.34.13.48.24.17.13.29.29.39.5.04.09.07.18.08.31.01.1.02.18.01.27,0,.21-.05.44-.16.64-.07.15-.17.29-.24.4-.09.11-.18.2-.26.29-.11.13-.24.25-.37.35-.11.12-.24.23-.35.35-.04.04-.07.08-.1.12h1.48v.11c.01.77,0,.78-.01.81Z"/>
    <path d="m727.18,417.06l-.03.05h-2.95v-.16c.01-.05.01-.09.02-.11.01-.08.02-.14.05-.21.07-.24.18-.46.32-.66.08-.12.19-.24.28-.34.16-.17.32-.34.49-.5l.04-.04c.15-.14.28-.27.42-.41.02-.03.06-.06.09-.11.03-.03.06-.06.08-.11.09-.12.15-.23.17-.33v-.02c.01-.06.02-.11.02-.17,0,0,0-.02-.01-.04,0-.04,0-.06-.01-.11-.05-.13-.13-.21-.26-.25-.08-.03-.22-.03-.35.01-.1.04-.18.11-.22.21-.02.05-.03.12-.04.17s-.02.1-.02.13v.12h-.11c-.14-.02-.27-.03-.4-.04-.14-.01-.26-.03-.39-.04h-.09v-.14c.01-.11.02-.21.06-.31.03-.15.07-.27.14-.38.08-.16.21-.29.4-.41.13-.09.27-.15.45-.19.07-.02.15-.03.24-.04.11-.01.22-.01.33,0,.1,0,.23.02.33.04.19.05.34.13.48.24.17.13.29.29.39.5.04.09.07.18.08.31.01.1.02.18.01.27,0,.21-.05.44-.16.64-.07.15-.17.29-.24.4-.09.11-.18.2-.26.29-.11.13-.24.25-.37.35-.11.12-.24.23-.35.35-.04.04-.07.08-.1.12h1.48v.11c.01.77,0,.78-.01.81Z"/>
    <path d="m92.08,574.56l-.03.05h-2.95v-.16c.01-.05.01-.09.02-.11.01-.08.02-.14.05-.21.07-.24.18-.46.32-.66.08-.12.19-.24.28-.34.16-.17.32-.34.49-.5l.04-.04c.15-.14.28-.27.42-.41.02-.03.06-.06.09-.11.03-.03.06-.06.08-.11.09-.12.15-.23.17-.33v-.02c.01-.06.02-.11.02-.17,0,0,0-.02-.01-.04,0-.04,0-.06-.01-.11-.05-.13-.13-.21-.26-.25-.08-.03-.22-.03-.35.01-.1.04-.18.11-.22.21-.02.05-.03.12-.04.17s-.02.1-.02.13v.12h-.11c-.14-.02-.27-.03-.4-.04-.14-.01-.26-.03-.39-.04h-.09v-.14c.01-.11.02-.21.06-.31.03-.15.07-.27.14-.38.08-.16.21-.29.4-.41.13-.09.27-.15.45-.19.07-.02.15-.03.24-.04.11-.01.22-.01.33,0,.1,0,.23.02.33.04.19.05.34.13.48.24.17.13.29.29.39.5.04.09.07.18.08.31.01.1.02.18.01.27,0,.21-.05.44-.16.64-.07.15-.17.29-.24.4-.09.11-.18.2-.26.29-.11.13-.24.25-.37.35-.11.12-.24.23-.35.35-.04.04-.07.08-.1.12h1.48v.11c.01.77,0,.78-.01.81Z"/>
    <path d="m181.08,574.56l-.03.05h-2.95v-.16c.01-.05.01-.09.02-.11.01-.08.02-.14.05-.21.07-.24.18-.46.32-.66.08-.12.19-.24.28-.34.16-.17.32-.34.49-.5l.04-.04c.15-.14.28-.27.42-.41.02-.03.06-.06.09-.11.03-.03.06-.06.08-.11.09-.12.15-.23.17-.33v-.02c.01-.06.02-.11.02-.17,0,0,0-.02-.01-.04,0-.04,0-.06-.01-.11-.05-.13-.13-.21-.26-.25-.08-.03-.22-.03-.35.01-.1.04-.18.11-.22.21-.02.05-.03.12-.04.17s-.02.1-.02.13v.12h-.11c-.14-.02-.27-.03-.4-.04-.14-.01-.26-.03-.39-.04h-.09v-.14c.01-.11.02-.21.06-.31.03-.15.07-.27.14-.38.08-.16.21-.29.4-.41.13-.09.27-.15.45-.19.07-.02.15-.03.24-.04.11-.01.22-.01.33,0,.1,0,.23.02.33.04.19.05.34.13.48.24.17.13.29.29.39.5.04.09.07.18.08.31.01.1.02.18.01.27,0,.21-.05.44-.16.64-.07.15-.17.29-.24.4-.09.11-.18.2-.26.29-.11.13-.24.25-.37.35-.11.12-.24.23-.35.35-.04.04-.07.08-.1.12h1.48v.11c.01.77,0,.78-.01.81Z"/>
    <path d="m271.08,574.56l-.03.05h-2.95v-.16c.01-.05.01-.09.02-.11.01-.08.02-.14.05-.21.07-.24.18-.46.32-.66.08-.12.19-.24.28-.34.16-.17.32-.34.49-.5l.04-.04c.15-.14.28-.27.42-.41.02-.03.06-.06.09-.11.03-.03.06-.06.08-.11.09-.12.15-.23.17-.33v-.02c.01-.06.02-.11.02-.17,0,0,0-.02-.01-.04,0-.04,0-.06-.01-.11-.05-.13-.13-.21-.26-.25-.08-.03-.22-.03-.35.01-.1.04-.18.11-.22.21-.02.05-.03.12-.04.17s-.02.1-.02.13v.12h-.11c-.14-.02-.27-.03-.4-.04-.14-.01-.26-.03-.39-.04h-.09v-.14c.01-.11.02-.21.06-.31.03-.15.07-.27.14-.38.08-.16.21-.29.4-.41.13-.09.27-.15.45-.19.07-.02.15-.03.24-.04.11-.01.22-.01.33,0,.1,0,.23.02.33.04.19.05.34.13.48.24.17.13.29.29.39.5.04.09.07.18.08.31.01.1.02.18.01.27,0,.21-.05.44-.16.64-.07.15-.17.29-.24.4-.09.11-.18.2-.26.29-.11.13-.24.25-.37.35-.11.12-.24.23-.35.35-.04.04-.07.08-.1.12h1.48v.11c.01.77,0,.78-.01.81Z"/>
    <path d="m362.08,574.56l-.03.05h-2.95v-.16c.01-.05.01-.09.02-.11.01-.08.02-.14.05-.21.07-.24.18-.46.32-.66.08-.12.19-.24.28-.34.16-.17.32-.34.49-.5l.04-.04c.15-.14.28-.27.42-.41.02-.03.06-.06.09-.11.03-.03.06-.06.08-.11.09-.12.15-.23.17-.33v-.02c.01-.06.02-.11.02-.17,0,0,0-.02-.01-.04,0-.04,0-.06-.01-.11-.05-.13-.13-.21-.26-.25-.08-.03-.22-.03-.35.01-.1.04-.18.11-.22.21-.02.05-.03.12-.04.17s-.02.1-.02.13v.12h-.11c-.14-.02-.27-.03-.4-.04-.14-.01-.26-.03-.39-.04h-.09v-.14c.01-.11.02-.21.06-.31.03-.15.07-.27.14-.38.08-.16.21-.29.4-.41.13-.09.27-.15.45-.19.07-.02.15-.03.24-.04.11-.01.22-.01.33,0,.1,0,.23.02.33.04.19.05.34.13.48.24.17.13.29.29.39.5.04.09.07.18.08.31.01.1.02.18.01.27,0,.21-.05.44-.16.64-.07.15-.17.29-.24.4-.09.11-.18.2-.26.29-.11.13-.24.25-.37.35-.11.12-.24.23-.35.35-.04.04-.07.08-.1.12h1.48v.11c.01.77,0,.78-.01.81Z"/>
  </g>
  <text/>
  <g>
    <path class="cls-15" d="m441.44,496.24c3.22,0,3.22-5,0-5s-3.22,5,0,5h0Z"/>
    <path class="cls-15" d="m531.44,496.24c3.22,0,3.22-5,0-5s-3.22,5,0,5h0Z"/>
    <path class="cls-15" d="m621.44,496.24c3.22,0,3.22-5,0-5s-3.22,5,0,5h0Z"/>
    <rect class="cls-16" x="710.09" y="525.44" width="2.59" height="25.25" rx=".99" ry=".99"/>
    <rect class="cls-18" x="713.14" y="522.44" width="25.25" height="2.59" rx=".99" ry=".99"/>
    <path class="cls-18" d="m729.93,520.04c.88.72,3.73,2.16,4.01,2.32.18-.27,2.01-2.89,2.44-3.95.3-.76-.77-1.38-.77-1.38l-1.56,2.62c-2.61-8.25-17.28-6.9-17.28,4.13,0,10.78,14.96,12.82,18.09,2.93.4-1.25-.88-1.91-1.52-.51-4.15,9.02-15.14,5.05-14.86-2.64.32-8.56,11.63-9.64,14.08-3.54l-2.61-1.58s-.65,1.05-.02,1.58Z"/>
    <g>
      <path class="cls-15" d="m711.44,556.23c3.22,0,3.22-5,0-5s-3.22,5,0,5h0Z"/>
      <path class="cls-15" d="m741.44,526.23c3.22,0,3.22-5,0-5s-3.22,5,0,5h0Z"/>
      <path class="cls-15" d="m711.44,496.23c3.22,0,3.22-5,0-5s-3.22,5,0,5h0Z"/>
      <path class="cls-15" d="m681.44,526.23c3.22,0,3.22-5,0-5s-3.22,5,0,5h0Z"/>
      <path class="cls-15" d="m711.44,524.86c1.45,0,1.45-2.25,0-2.25s-1.45,2.25,0,2.25h0Z"/>
    </g>
    <rect class="cls-18" x="443.14" y="522.45" width="25.25" height="2.59" rx=".99" ry=".99"/>
    <rect class="cls-16" x="414.49" y="522.45" width="25.25" height="2.59" rx=".99" ry=".99"/>
    <path class="cls-15" d="m441.44,556.24c3.22,0,3.22-5,0-5s-3.22,5,0,5h0Z"/>
    <path class="cls-15" d="m471.44,526.24c3.22,0,3.22-5,0-5s-3.22,5,0,5h0Z"/>
    <path class="cls-15" d="m411.44,526.24c3.22,0,3.22-5,0-5s-3.22,5,0,5h0Z"/>
    <path class="cls-15" d="m441.44,524.87c1.45,0,1.45-2.25,0-2.25s-1.45,2.25,0,2.25h0Z"/>
    <path class="cls-18" d="m459.97,520.11c.9.69,3.82,2.01,4.1,2.15.17-.28,1.89-2.97,2.28-4.04.27-.78-.82-1.34-.82-1.34l-1.45,2.68c-2.94-8.14-17.28-6.76-17.28,4.27,0,10.78,14.84,12.78,18.09,2.93.53-1.61-.83-2.15-1.52-.51-3.86,9.14-15.33,5.07-15.01-2.62.36-8.85,11.61-10.4,14.25-3.63l-2.67-1.47s-.61,1.07.04,1.58Z"/>
    <rect class="cls-16" x="620.14" y="525.44" width="2.59" height="25.25" rx=".99" ry=".99"/>
    <rect class="cls-18" x="623.14" y="522.45" width="25.25" height="2.59" rx=".99" ry=".99"/>
    <rect class="cls-18" x="535.35" y="525.44" width="2.59" height="25.25" rx=".99" ry=".99"/>
    <rect class="cls-16" x="524.14" y="525.44" width="2.59" height="25.25" rx=".99" ry=".99"/>
    <path class="cls-15" d="m501.44,526.24c3.22,0,3.22-5,0-5s-3.22,5,0,5h0Z"/>
    <path class="cls-15" d="m531.44,556.24c3.22,0,3.22-5,0-5s-3.22,5,0,5h0Z"/>
    <path class="cls-15" d="m561.44,526.24c3.22,0,3.22-5,0-5s-3.22,5,0,5h0Z"/>
    <path class="cls-15" d="m531.44,524.87c1.45,0,1.45-2.25,0-2.25s-1.45,2.25,0,2.25h0Z"/>
    <path class="cls-15" d="m651.44,526.24c3.22,0,3.22-5,0-5s-3.22,5,0,5h0Z"/>
    <path class="cls-15" d="m621.44,556.24c3.22,0,3.22-5,0-5s-3.22,5,0,5h0Z"/>
    <path class="cls-15" d="m591.44,526.24c3.22,0,3.22-5,0-5s-3.22,5,0,5h0Z"/>
    <path class="cls-15" d="m621.44,524.87c1.45,0,1.45-2.25,0-2.25s-1.45,2.25,0,2.25h0Z"/>
    <path class="cls-18" d="m639.1,528.95l2.67-1.47c-2.63,6.77-13.89,5.22-14.25-3.63-.31-7.69,11.15-11.76,15.01-2.62.69,1.64,2.05,1.1,1.52-.51-3.25-9.85-18.09-7.85-18.09,2.93,0,11.03,14.34,12.41,17.28,4.27l1.45,2.68s1.1-.57.82-1.34c-.39-1.07-2.11-3.76-2.28-4.04-.29.15-3.2,1.47-4.1,2.15-.65.51-.04,1.58-.04,1.58Z"/>
    <path class="cls-18" d="m540.33,541.44c-.69.9-2.01,3.82-2.15,4.1.28.17,2.97,1.89,4.04,2.28.78.27,1.34-.82,1.34-.82l-2.68-1.45c8.14-2.94,6.76-17.28-4.27-17.28-10.78,0-12.78,14.84-2.93,18.09,1.61.53,2.15-.83.51-1.52-9.14-3.86-5.07-15.33,2.62-15.01,8.85.36,10.4,11.61,3.63,14.25l1.47-2.67s-1.07-.61-1.58.04Z"/>
    <path d="m714.09,562.76c-.02.26-.14.59-.9.55-.76-.04-3.92.04-4.37.07,0,.56.26,3.6.43,7.28.05,1.13-.44,1.27-.64,1.27-.34,0-.92-.43-1.03-1.14-.09-.66-.16-2.16-.23-3.74-.06-1.37-.12-2.79-.21-3.75l-.95.31.03-1.02c.04-.21.25-.46.39-.47s6.42-.22,6.78-.2.7.53.69.83Z"/>
    <text class="cls-7" transform="translate(723.87 571.39)"><tspan x="0" y="0">close</tspan></text>
    <path d="m445.9,568.05c-.58,0-.83.22-1.14.59-.15.17-.34,1.05-.67.49-.67-1.14.02-4.06.95-5.35.25-.33-.1-.52-.27-.62,0,0-.37-.19-.57-.13-.26.09-.53-.11-1.24,1.46-1.06-1.22-2.29-1.06-3.14-1.02-.75.03-3,.86-3,3.49,0,3.16,2.71,3.75,3.53,3.75s2.21-.53,2.56-.85c.21.64.6,1.03,1.08,1.13.75.16,1.08-.21,1.38-.63.44-.6.94-2.28.52-2.29Zm-5.54.89c-1.09,0-1.97-.9-1.97-1.98s.89-1.97,1.97-1.97,1.98.9,1.98,1.97-.9,1.98-1.98,1.98Z"/>
    <path d="m534.23,566.13c-.16-.2-.34-.37-.53-.53,2.94-3.35-3.93-5.42-4.03-1.35,0,1.93-.02,3.45-.02,5.38-.68-.21-1.45.23-1.56.98-.07,1.89,1.82,1.56,2.51.74.26-.31.36-.56.44-1.51,2.58,1.37,4.6-1.49,3.18-3.71Zm-1.11,2.59c-.77.61-1.12.01-1.66-.15-.12-.04-.24-.02-.37.03,0-1.54,0-3.06.02-4.62-.13-.86,1.1-1.14,1.64-.56.45.49.37,1.33-.17,1.52-1.77-.47-1.6,2.08,0,1.44.75.22,1.32,1.55.54,2.34Z"/>
    <path d="m625.33,562.84c-.02.26-.14.59-.9.55s-3.92.04-4.37.07c0,.56.26,3.6.43,7.28.05,1.13-.44,1.27-.64,1.27-.34,0-.92-.43-1.03-1.14-.09-.66-.16-2.16-.23-3.74-.06-1.37-.12-2.79-.21-3.75l-.95.31.03-1.02c.04-.21.25-.46.39-.47s6.42-.22,6.78-.2.7.53.69.83Z"/>
    <text class="cls-7" transform="translate(632.76 572.13)"><tspan x="0" y="0">open</tspan></text>
    <g>
      <path d="m451.52,565.45l-.03.05h-2.95v-.16c.01-.05.01-.09.02-.11.01-.08.02-.14.05-.21.07-.24.18-.46.32-.66.08-.12.19-.24.28-.34.16-.17.32-.34.49-.5l.04-.04c.15-.14.28-.27.42-.41.02-.03.06-.06.09-.11.03-.03.06-.06.08-.11.09-.12.15-.23.17-.33v-.02c.01-.06.02-.11.02-.17,0,0,0-.02-.01-.04,0-.04,0-.06-.01-.11-.05-.13-.13-.21-.26-.25-.08-.03-.22-.03-.35.01-.1.04-.18.11-.22.21-.02.05-.03.12-.04.17s-.02.1-.02.13v.12h-.11c-.14-.02-.27-.03-.4-.04-.14-.01-.26-.03-.39-.04h-.09v-.14c.01-.11.02-.21.06-.31.03-.15.07-.27.14-.38.08-.16.21-.29.4-.41.13-.09.27-.15.45-.19.07-.02.15-.03.24-.04.11-.01.22-.01.33,0,.1,0,.23.02.33.04.19.05.34.13.48.24.17.13.29.29.39.5.04.09.07.18.08.31.01.1.02.18.01.27,0,.21-.05.44-.16.64-.07.15-.17.29-.24.4-.09.11-.18.2-.26.29-.11.13-.24.25-.37.35-.11.12-.24.23-.35.35-.04.04-.07.08-.1.12h1.48v.11c.01.77,0,.78-.01.81Z"/>
      <path d="m540.56,565.45l-.03.05h-2.95v-.16c.01-.05.01-.09.02-.11.01-.08.02-.14.05-.21.07-.24.18-.46.32-.66.08-.12.19-.24.28-.34.16-.17.32-.34.49-.5l.04-.04c.15-.14.28-.27.42-.41.02-.03.06-.06.09-.11.03-.03.06-.06.08-.11.09-.12.15-.23.17-.33v-.02c.01-.06.02-.11.02-.17,0,0,0-.02-.01-.04,0-.04,0-.06-.01-.11-.05-.13-.13-.21-.26-.25-.08-.03-.22-.03-.35.01-.1.04-.18.11-.22.21-.02.05-.03.12-.04.17s-.02.1-.02.13v.12h-.11c-.14-.02-.27-.03-.4-.04-.14-.01-.26-.03-.39-.04h-.09v-.14c.01-.11.02-.21.06-.31.03-.15.07-.27.14-.38.08-.16.21-.29.4-.41.13-.09.27-.15.45-.19.07-.02.15-.03.24-.04.11-.01.22-.01.33,0,.1,0,.23.02.33.04.19.05.34.13.48.24.17.13.29.29.39.5.04.09.07.18.08.31.01.1.02.18.01.27,0,.21-.05.44-.16.64-.07.15-.17.29-.24.4-.09.11-.18.2-.26.29-.11.13-.24.25-.37.35-.11.12-.24.23-.35.35-.04.04-.07.08-.1.12h1.48v.11c.01.77,0,.78-.01.81Z"/>
      <path d="m630.2,565.45l-.03.05h-2.95v-.16c.01-.05.01-.09.02-.11.01-.08.02-.14.05-.21.07-.24.18-.46.32-.66.08-.12.19-.24.28-.34.16-.17.32-.34.49-.5l.04-.04c.15-.14.28-.27.42-.41.02-.03.06-.06.09-.11.03-.03.06-.06.08-.11.09-.12.15-.23.17-.33v-.02c.01-.06.02-.11.02-.17,0,0,0-.02-.01-.04,0-.04,0-.06-.01-.11-.05-.13-.13-.21-.26-.25-.08-.03-.22-.03-.35.01-.1.04-.18.11-.22.21-.02.05-.03.12-.04.17s-.02.1-.02.13v.12h-.11c-.14-.02-.27-.03-.4-.04-.14-.01-.26-.03-.39-.04h-.09v-.14c.01-.11.02-.21.06-.31.03-.15.07-.27.14-.38.08-.16.21-.29.4-.41.13-.09.27-.15.45-.19.07-.02.15-.03.24-.04.11-.01.22-.01.33,0,.1,0,.23.02.33.04.19.05.34.13.48.24.17.13.29.29.39.5.04.09.07.18.08.31.01.1.02.18.01.27,0,.21-.05.44-.16.64-.07.15-.17.29-.24.4-.09.11-.18.2-.26.29-.11.13-.24.25-.37.35-.11.12-.24.23-.35.35-.04.04-.07.08-.1.12h1.48v.11c.01.77,0,.78-.01.81Z"/>
      <path d="m719.58,565.45l-.03.05h-2.95v-.16c.01-.05.01-.09.02-.11.01-.08.02-.14.05-.21.07-.24.18-.46.32-.66.08-.12.19-.24.28-.34.16-.17.32-.34.49-.5l.04-.04c.15-.14.28-.27.42-.41.02-.03.06-.06.09-.11.03-.03.06-.06.08-.11.09-.12.15-.23.17-.33v-.02c.01-.06.02-.11.02-.17,0,0,0-.02-.01-.04,0-.04,0-.06-.01-.11-.05-.13-.13-.21-.26-.25-.08-.03-.22-.03-.35.01-.1.04-.18.11-.22.21-.02.05-.03.12-.04.17s-.02.1-.02.13v.12h-.11c-.14-.02-.27-.03-.4-.04-.14-.01-.26-.03-.39-.04h-.09v-.14c.01-.11.02-.21.06-.31.03-.15.07-.27.14-.38.08-.16.21-.29.4-.41.13-.09.27-.15.45-.19.07-.02.15-.03.24-.04.11-.01.22-.01.33,0,.1,0,.23.02.33.04.19.05.34.13.48.24.17.13.29.29.39.5.04.09.07.18.08.31.01.1.02.18.01.27,0,.21-.05.44-.16.64-.07.15-.17.29-.24.4-.09.11-.18.2-.26.29-.11.13-.24.25-.37.35-.11.12-.24.23-.35.35-.04.04-.07.08-.1.12h1.48v.11c.01.77,0,.78-.01.81Z"/>
    </g>
  </g>
  <text class="cls-17" transform="translate(506.77 467.3)"><tspan class="cls-14" x="0" y="0">Type 6</tspan><tspan class="cls-8" x="69.15" y="0" xml:space="preserve"> - </tspan><tspan class="cls-5" x="88.29" y="0">S</tspan><tspan class="cls-10" x="100.63" y="0">t</tspan><tspan class="cls-4" x="109.56" y="0">atic</tspan></text>
  <text class="cls-17" transform="translate(152.44 71.14)"><tspan class="cls-14" x="0" y="0">Type 2</tspan><tspan class="cls-8" x="69.15" y="0" xml:space="preserve"> - </tspan><tspan class="cls-9" x="88.29" y="0">Shift</tspan><tspan class="cls-8" x="139.97" y="0" xml:space="preserve">    </tspan></text>
  <text class="cls-17" transform="translate(482.66 71.14)"><tspan class="cls-14" x="0" y="0">Type 3</tspan><tspan class="cls-8" x="69.15" y="0" xml:space="preserve"> - </tspan><tspan class="cls-2" x="88.29" y="0">Cr</tspan><tspan class="cls-6" x="113" y="0">oss</tspan><tspan class="cls-3" x="148.62" y="0">-</tspan><tspan class="cls-9" x="156.02" y="0">Shift</tspan><tspan class="cls-8" x="207.69" y="0" xml:space="preserve">    </tspan></text>
  <text class="cls-17" transform="translate(140.9 323.88)"><tspan class="cls-14" x="0" y="0">Type 4</tspan><tspan class="cls-8" x="69.15" y="0" xml:space="preserve"> - </tspan><tspan class="cls-6" x="88.29" y="0">Dash</tspan></text>
  <text class="cls-17" transform="translate(493.45 323.88)"><tspan class="cls-14" x="0" y="0">Type 5</tspan><tspan class="cls-8" x="69.15" y="0" xml:space="preserve"> - </tspan><tspan class="cls-1" x="88.29" y="0">Dual</tspan><tspan class="cls-8" x="141.54" y="0">-</tspan><tspan class="cls-6" x="149.67" y="0">Dash</tspan></text>
</svg>