<?xml version="1.0" encoding="UTF-8"?>
<svg id="Layer_1" data-name="Layer 1" xmlns="http://www.w3.org/2000/svg" viewBox="0 0 792 612">
  <defs>
    <style>
      .cls-1 {
        letter-spacing: 0em;
      }

      .cls-1, .cls-2, .cls-3, .cls-4, .cls-5 {
        font-family: Cambria-BoldItalic, Cambria;
        font-weight: 700;
      }

      .cls-1, .cls-3 {
        fill: #00a14b;
      }

      .cls-2 {
        letter-spacing: -.03em;
      }

      .cls-2, .cls-6, .cls-7, .cls-8, .cls-9, .cls-4, .cls-10 {
        fill: #231f20;
      }

      .cls-6 {
        stroke-width: .5px;
      }

      .cls-6, .cls-8 {
        stroke: #231f20;
        stroke-miterlimit: 10;
      }

      .cls-11 {
        fill: #2e3192;
      }

      .cls-7 {
        font-family: Cambria, Cambria;
      }

      .cls-7, .cls-12 {
        font-size: 30px;
      }

      .cls-12, .cls-13 {
        font-style: italic;
      }

      .cls-8 {
        stroke-width: 2px;
      }

      .cls-9 {
        font-family: Cambria-Italic, Cambria;
      }

      .cls-13 {
        font-size: 25px;
      }

      .cls-14 {
        fill: #ed1c24;
      }

      .cls-5 {
        fill: #7f3f98;
      }
    </style>
  </defs>
  <g>
    <g>
      <rect class="cls-14" x="443.34" y="160.07" width="25.25" height="2.59" rx=".99" ry=".99"/>
      <rect class="cls-11" x="414.69" y="160.07" width="25.25" height="2.59" rx=".99" ry=".99"/>
    </g>
    <g>
      <rect class="cls-14" x="533.34" y="160.07" width="25.25" height="2.59" rx=".99" ry=".99"/>
      <rect class="cls-11" x="504.69" y="160.07" width="25.25" height="2.59" rx=".99" ry=".99"/>
    </g>
    <g>
      <rect class="cls-11" x="618.36" y="162.98" width="2.59" height="25.25" rx=".99" ry=".99"/>
      <rect class="cls-14" x="622.33" y="162.98" width="2.59" height="25.25" rx=".99" ry=".99"/>
    </g>
    <g>
      <rect class="cls-11" x="708.36" y="162.98" width="2.59" height="25.25" rx=".99" ry=".99"/>
      <rect class="cls-14" x="712.33" y="162.98" width="2.59" height="25.25" rx=".99" ry=".99"/>
    </g>
    <path class="cls-14" d="m472.83,172.24l-2.51-2.58c.81,5.96-3.35,12.57-8.87,13.56-.74,6.04-7.46,9.06-13.79,8.92-.34.01-1.02-.16-1.12-.9,0-.05-.01-.09-.01-.13,0-.65.65-.99,1.02-1.08,6.93-.38,10.66-2.49,11.75-6.64-2,.15-4.24-1.02-5.24-2.8-.81-1.44-.64-2.99.45-4.26,1.19-1.2,2.68-1.47,4.12-.75,1.87.94,3.19,3.3,3.05,5.39,4.55-1.17,6.99-5.73,6.6-11.31l-2.63,2.58s-1.1-1.05-.49-1.87c.85-1.17,4.07-3.94,4.07-3.94,0,0,3.39,3.01,4.07,3.94.61.82-.47,1.86-.47,1.86Zm-13.2,8.57c0-1.77-.89-2.81-1.81-3.22-.78-.34-1.5-.36-1.9.11-.44.53-.37,1.55.35,2.64.74.78,1.69,1.07,3.33,1.03.02-.2.03-.38.03-.56Z"/>
    <path class="cls-14" d="m538.14,192.82c.7-.03.91-.61.87-1.41-.03-.8-.32-3.41,1.06-5,1.37-1.59,4.94-.62,7.08-.09l.48.13-.19-.46c-1.38-3.32-1.52-5.55-.44-6.61,1.86-1.84,6.83.27,6.88.29l.62.27-.29-.61c-1.22-2.55-1.63-4.68-.85-5.97.64-1.07,2.12-1.71,4.1-1.71.27.01.99-.02,1.4-.01l-2.59,2.54s1.05,1.08,1.87.47c.94-.69,3.95-4.07,3.95-4.07,0,0-2.77-3.23-3.95-4.08-.82-.6-1.87.5-1.87.5l2.2,2.23c.06.04.11.09.15.15l.22.23c-3-.11-5.44.56-6.86,2.41-1.31,1.7-.98,4.1-.8,4.97-1.03-.21-3.84-.88-5.54.78-1.74,1.7-1.35,4.77-1.2,5.82-.96-.14-3.75-.49-5.56,1.28-1.8,1.77-1.98,2.72-1.81,6.73.03.88.37,1.25,1.07,1.22Z"/>
    <path class="cls-14" d="m630.63,194.46c-.93-.68-3.94-4.07-3.94-4.07,0,0,2.76-3.22,3.94-4.07.82-.6,1.87.49,1.87.49l-2.58,2.63c5.58.39,10.14-2.05,11.31-6.6-2.09.14-4.45-1.18-5.39-3.05-.72-1.44-.45-2.93.75-4.12,1.27-1.09,2.82-1.26,4.26-.45,1.78,1,2.95,3.24,2.8,5.24,4.15-1.09,6.26-4.82,6.64-11.75.09-.37.43-1.02,1.08-1.02.04,0,.08.01.13.01.74.1.91.78.9,1.12.14,6.33-2.88,13.05-8.92,13.79-.99,5.52-7.61,9.67-13.56,8.87l2.58,2.51s-1.04,1.08-1.86.47Zm10.99-13.7c.04-1.64-.25-2.59-1.03-3.33-1.09-.72-2.11-.79-2.64-.35-.47.4-.45,1.12-.11,1.9.41.92,1.45,1.81,3.22,1.81.18,0,.36-.01.56-.03Z"/>
    <path class="cls-14" d="m742.43,166.33c-.03.7-.61.91-1.41.87-.8-.03-3.41-.32-5,1.06-1.59,1.37-.62,4.94-.09,7.08l.13.48-.46-.19c-3.32-1.38-5.55-1.52-6.61-.44-1.84,1.86.27,6.83.29,6.88l.27.62-.61-.29c-2.55-1.22-4.68-1.63-5.97-.85-1.07.64-1.71,2.12-1.71,4.1.01.27-.02.99-.01,1.4l2.54-2.59s1.08,1.05.47,1.87c-.69.94-4.07,3.95-4.07,3.95,0,0-3.23-2.77-4.08-3.95-.6-.82.5-1.87.5-1.87l2.23,2.2c.04.06.09.11.15.15l.23.22c-.11-3,.56-5.44,2.41-6.86,1.7-1.31,4.1-.98,4.97-.8-.21-1.03-.88-3.84.78-5.54,1.7-1.74,4.77-1.35,5.82-1.2-.14-.96-.49-3.75,1.28-5.56,1.77-1.8,2.72-1.98,6.73-1.81.88.03,1.25.37,1.22,1.07Z"/>
    <path class="cls-11" d="m415.11,157.9s4.45.85,5.61.82c1.02-.02,1.19-1.52,1.19-1.52l-3.28-.38c13.96-9.35,33.36-8.78,47.44,1.94.58.44,1.53.43,1.85,0,.21-.25.53-1.07-.25-1.68-7.77-6.07-17.41-9.1-26.95-9.1-8.38,0-16.68,2.32-23.6,6.97l.42-3.43s-1.5-.23-1.79.74c-.41,1.4-.64,5.65-.64,5.65Z"/>
    <path class="cls-11" d="m626.92,185.94s-.85-4.45-.82-5.61c.02-1.02,1.52-1.19,1.52-1.19l.38,3.28c9.35-13.96,8.78-33.36-1.94-47.44-.44-.58-.43-1.53,0-1.85.25-.21,1.07-.53,1.68.25,6.07,7.77,9.1,17.41,9.1,26.95,0,8.38-2.32,16.68-6.97,23.6l3.43-.42s.23,1.5-.74,1.79c-1.4.41-5.65.64-5.65.64Z"/>
    <path class="cls-11" d="m505.11,164.5s4.45-.85,5.61-.82c1.02.02,1.19,1.52,1.19,1.52l-3.28.38c13.96,9.35,33.36,8.78,47.44-1.94.58-.44,1.53-.43,1.85,0,.21.25.53,1.07-.25,1.68-7.77,6.07-17.41,9.1-26.95,9.1-8.38,0-16.68-2.32-23.6-6.97l.42,3.43s-1.5.23-1.79-.74c-.41-1.4-.64-5.65-.64-5.65Z"/>
    <path class="cls-11" d="m706.77,187.89s.85-4.45.82-5.61c-.02-1.02-1.52-1.19-1.52-1.19l-.38,3.28c-9.35-13.96-8.78-33.36,1.94-47.44.44-.58.43-1.53,0-1.85-.25-.21-1.07-.53-1.68.25-6.07,7.77-9.1,17.41-9.1,26.95,0,8.38,2.32,16.68,6.97,23.6l-3.43-.42s-.23,1.5.74,1.79c1.4.41,5.65.64,5.65.64Z"/>
    <path class="cls-11" d="m595.02,257.9s4.45.85,5.61.82c1.02-.02,1.19-1.52,1.19-1.52l-3.28-.38c13.96-9.35,33.36-8.78,47.44,1.94.58.44,1.53.43,1.85,0,.21-.25.53-1.07-.25-1.68-7.77-6.07-17.41-9.1-26.95-9.1-8.38,0-16.68,2.32-23.6,6.97l.42-3.43s-1.5-.23-1.79.74c-.41,1.4-.64,5.65-.64,5.65Z"/>
    <path class="cls-11" d="m686.41,264.25s4.45-.85,5.61-.82c1.02.02,1.19,1.52,1.19,1.52l-3.28.38c13.96,9.35,33.36,8.78,47.44-1.94.58-.44,1.53-.43,1.85,0,.21.25.53,1.07-.25,1.68-7.77,6.07-17.41,9.1-26.95,9.1-8.38,0-16.68-2.32-23.6-6.97l.42,3.43s-1.5.23-1.79-.74c-.41-1.4-.64-5.65-.64-5.65Z"/>
    <path class="cls-11" d="m415.02,263.85s4.45-.85,5.61-.82c1.02.02,1.19,1.52,1.19,1.52l-3.28.38c13.96,9.35,33.36,8.78,47.44-1.94.58-.44,1.53-.43,1.85,0,.21.25.53,1.07-.25,1.68-7.77,6.07-17.41,9.1-26.95,9.1-8.38,0-16.68-2.32-23.6-6.97l.42,3.43s-1.5.23-1.79-.74c-.41-1.4-.64-5.65-.64-5.65Z"/>
    <path class="cls-11" d="m505.02,258.12s4.45.85,5.61.82c1.02-.02,1.19-1.52,1.19-1.52l-3.28-.38c13.96-9.35,33.36-8.78,47.44,1.94.58.44,1.53.43,1.85,0,.21-.25.53-1.07-.25-1.68-7.77-6.07-17.41-9.1-26.95-9.1-8.38,0-16.68,2.32-23.6,6.97l.42-3.43s-1.5-.23-1.79.74c-.41,1.4-.64,5.65-.64,5.65Z"/>
    <g>
      <rect class="cls-14" x="440.34" y="263.06" width="2.59" height="25.25" rx=".99" ry=".99"/>
      <rect class="cls-11" x="414.69" y="260.07" width="25.25" height="2.59" rx=".99" ry=".99"/>
    </g>
    <g>
      <rect class="cls-14" x="530.34" y="263.06" width="2.59" height="25.25" rx=".99" ry=".99"/>
      <rect class="cls-11" x="504.69" y="260.07" width="25.25" height="2.59" rx=".99" ry=".99"/>
    </g>
    <g>
      <rect class="cls-14" x="620.34" y="263.06" width="2.59" height="25.25" rx=".99" ry=".99"/>
      <rect class="cls-11" x="594.69" y="260.07" width="25.25" height="2.59" rx=".99" ry=".99"/>
    </g>
    <g>
      <rect class="cls-14" x="710.34" y="263.06" width="2.59" height="25.25" rx=".99" ry=".99"/>
      <rect class="cls-11" x="684.69" y="260.07" width="25.25" height="2.59" rx=".99" ry=".99"/>
    </g>
    <path class="cls-14" d="m448.61,291.63c-.93-.68-3.94-4.07-3.94-4.07,0,0,2.76-3.22,3.94-4.07.82-.6,1.87.49,1.87.49l-2.58,2.63c5.58.39,10.14-2.05,11.31-6.6-2.09.14-4.45-1.18-5.39-3.05-.72-1.44-.45-2.93.75-4.12,1.27-1.09,2.82-1.26,4.26-.45,1.78,1,2.95,3.24,2.8,5.24,4.15-1.09,6.26-4.82,6.64-11.75.09-.37.43-1.02,1.08-1.02.04,0,.08.01.13.01.74.1.91.78.9,1.12.14,6.33-2.88,13.05-8.92,13.79-.99,5.52-7.61,9.67-13.56,8.87l2.58,2.51s-1.04,1.08-1.86.47Zm10.99-13.7c.04-1.64-.25-2.59-1.03-3.33-1.09-.72-2.11-.79-2.64-.35-.47.4-.45,1.12-.11,1.9.41.92,1.45,1.81,3.22,1.81.18,0,.36-.01.56-.03Z"/>
    <path class="cls-14" d="m562.61,267.63c-.03.7-.61.91-1.41.87-.8-.03-3.41-.32-5,1.06-1.59,1.37-.62,4.94-.09,7.08l.13.48-.46-.19c-3.32-1.38-5.55-1.52-6.61-.44-1.84,1.86.27,6.83.29,6.88l.27.62-.61-.29c-2.55-1.22-4.68-1.63-5.97-.85-1.07.64-1.71,2.12-1.71,4.1.01.27-.02.99-.01,1.4l2.54-2.59s1.08,1.05.47,1.87c-.69.94-4.07,3.95-4.07,3.95,0,0-3.23-2.77-4.08-3.95-.6-.82.5-1.87.5-1.87l2.23,2.2c.04.06.09.11.15.15l.23.22c-.11-3,.56-5.44,2.41-6.86,1.7-1.31,4.1-.98,4.97-.8-.21-1.03-.88-3.84.78-5.54,1.7-1.74,4.77-1.35,5.82-1.2-.14-.96-.49-3.75,1.28-5.56,1.77-1.8,2.72-1.98,6.73-1.81.88.03,1.25.37,1.22,1.07Z"/>
    <path class="cls-14" d="m612.3,290.85l2.58-2.51c-5.96.81-12.57-3.35-13.56-8.87-6.04-.74-9.06-7.46-8.92-13.79-.01-.34.16-1.02.9-1.12.05,0,.09-.01.13-.01.65,0,.99.65,1.08,1.02.38,6.93,2.49,10.66,6.64,11.75-.15-2,1.02-4.24,2.8-5.24,1.44-.81,2.99-.64,4.26.45,1.2,1.19,1.47,2.68.75,4.12-.94,1.87-3.3,3.19-5.39,3.05,1.17,4.55,5.73,6.99,11.31,6.6l-2.58-2.63s1.05-1.1,1.87-.49c1.17.85,3.94,4.07,3.94,4.07,0,0-3.01,3.39-3.94,4.07-.82.61-1.86-.47-1.86-.47Zm-8.57-13.2c1.77,0,2.81-.89,3.22-1.81.34-.78.36-1.5-.11-1.9-.53-.44-1.55-.37-2.64.35-.78.74-1.07,1.69-1.03,3.33.2.02.38.03.56.03Z"/>
    <path class="cls-14" d="m678.33,268.55c.03.7.61.91,1.41.87.8-.03,3.41-.32,5,1.06,1.59,1.37.62,4.94.09,7.08l-.13.48.46-.19c3.32-1.38,5.55-1.52,6.61-.44,1.84,1.86-.27,6.83-.29,6.88l-.27.62.61-.29c2.55-1.22,4.68-1.63,5.97-.85,1.07.64,1.71,2.12,1.71,4.1-.01.27.02.99.01,1.4l-2.54-2.59s-1.08,1.05-.47,1.87c.69.94,4.07,3.95,4.07,3.95,0,0,3.23-2.77,4.08-3.95.6-.82-.5-1.87-.5-1.87l-2.23,2.2c-.04.06-.09.11-.15.15l-.23.22c.11-3-.56-5.44-2.41-6.86-1.7-1.31-4.1-.98-4.97-.8.21-1.03.88-3.84-.78-5.54-1.7-1.74-4.77-1.35-5.82-1.2.14-.96.49-3.75-1.28-5.56-1.77-1.8-2.72-1.98-6.73-1.81-.88.03-1.25.37-1.22,1.07Z"/>
    <g>
      <rect class="cls-14" x="443.34" y="410.07" width="25.25" height="2.59" rx=".99" ry=".99"/>
      <rect class="cls-11" x="414.69" y="410.07" width="25.25" height="2.59" rx=".99" ry=".99"/>
    </g>
    <g>
      <rect class="cls-14" x="533.34" y="410.07" width="25.25" height="2.59" rx=".99" ry=".99"/>
      <rect class="cls-11" x="504.69" y="410.07" width="25.25" height="2.59" rx=".99" ry=".99"/>
    </g>
    <g>
      <rect class="cls-11" x="618.36" y="412.98" width="2.59" height="25.25" rx=".99" ry=".99"/>
      <rect class="cls-14" x="622.33" y="412.98" width="2.59" height="25.25" rx=".99" ry=".99"/>
    </g>
    <g>
      <rect class="cls-11" x="708.36" y="412.98" width="2.59" height="25.25" rx=".99" ry=".99"/>
      <rect class="cls-14" x="712.33" y="412.98" width="2.59" height="25.25" rx=".99" ry=".99"/>
    </g>
    <path class="cls-14" d="m472.83,422.24l-2.51-2.58c.81,5.96-3.35,12.57-8.87,13.56-.74,6.04-7.46,9.06-13.79,8.92-.34.01-1.02-.16-1.12-.9,0-.05-.01-.09-.01-.13,0-.65.65-.99,1.02-1.08,6.93-.38,10.66-2.49,11.75-6.64-2,.15-4.24-1.02-5.24-2.8-.81-1.44-.64-2.99.45-4.26,1.19-1.2,2.68-1.47,4.12-.75,1.87.94,3.19,3.3,3.05,5.39,4.55-1.17,6.99-5.73,6.6-11.31l-2.63,2.58s-1.1-1.05-.49-1.87c.85-1.17,4.07-3.94,4.07-3.94,0,0,3.39,3.01,4.07,3.94.61.82-.47,1.86-.47,1.86Zm-13.2,8.57c0-1.77-.89-2.81-1.81-3.22-.78-.34-1.5-.36-1.9.11-.44.53-.37,1.55.35,2.64.74.78,1.69,1.07,3.33,1.03.02-.2.03-.38.03-.56Z"/>
    <path class="cls-14" d="m535.96,440.64c.7-.03.91-.61.87-1.41-.03-.8-.32-3.41,1.06-5,1.37-1.59,4.94-.62,7.08-.09l.48.13-.19-.46c-1.38-3.32-1.52-5.55-.44-6.61,1.86-1.84,6.83.27,6.88.29l.62.27-.29-.61c-1.22-2.55-1.63-4.68-.85-5.97.64-1.07,2.12-1.71,4.1-1.71.27.01.99-.02,1.4-.01l-2.59,2.54s1.05,1.08,1.87.47c.94-.69,3.95-4.07,3.95-4.07,0,0-2.77-3.23-3.95-4.08-.82-.6-1.87.5-1.87.5l2.2,2.23c.06.04.11.09.15.15l.22.23c-3-.11-5.44.56-6.86,2.41-1.31,1.7-.98,4.1-.8,4.97-1.03-.21-3.84-.88-5.54.78-1.74,1.7-1.35,4.77-1.2,5.82-.96-.14-3.75-.49-5.56,1.28-1.8,1.77-1.98,2.72-1.81,6.73.03.88.37,1.25,1.07,1.22Z"/>
    <path class="cls-14" d="m630.63,441.78c-.93-.68-3.94-4.07-3.94-4.07,0,0,2.76-3.22,3.94-4.07.82-.6,1.87.49,1.87.49l-2.58,2.63c5.58.39,10.14-2.05,11.31-6.6-2.09.14-4.45-1.18-5.39-3.05-.72-1.44-.45-2.93.75-4.12,1.27-1.09,2.82-1.26,4.26-.45,1.78,1,2.95,3.24,2.8,5.24,4.15-1.09,6.26-4.82,6.64-11.75.09-.37.43-1.02,1.08-1.02.04,0,.08.01.13.01.74.1.91.78.9,1.12.14,6.33-2.88,13.05-8.92,13.79-.99,5.52-7.61,9.67-13.56,8.87l2.58,2.51s-1.04,1.08-1.86.47Zm10.99-13.7c.04-1.64-.25-2.59-1.03-3.33-1.09-.72-2.11-.79-2.64-.35-.47.4-.45,1.12-.11,1.9.41.92,1.45,1.81,3.22,1.81.18,0,.36-.01.56-.03Z"/>
    <path class="cls-14" d="m747.19,420.02c-.03.7-.61.91-1.41.87-.8-.03-3.41-.32-5,1.06-1.59,1.37-.62,4.94-.09,7.08l.13.48-.46-.19c-3.32-1.38-5.55-1.52-6.61-.44-1.84,1.86.27,6.83.29,6.88l.27.62-.61-.29c-2.55-1.22-4.68-1.63-5.97-.85-1.07.64-1.71,2.12-1.71,4.1.01.27-.02.99-.01,1.4l2.54-2.59s1.08,1.05.47,1.87c-.69.94-4.07,3.95-4.07,3.95,0,0-3.23-2.77-4.08-3.95-.6-.82.5-1.87.5-1.87l2.23,2.2c.04.06.09.11.15.15l.23.22c-.11-3,.56-5.44,2.41-6.86,1.7-1.31,4.1-.98,4.97-.8-.21-1.03-.88-3.84.78-5.54,1.7-1.74,4.77-1.35,5.82-1.2-.14-.96-.49-3.75,1.28-5.56,1.77-1.8,2.72-1.98,6.73-1.81.88.03,1.25.37,1.22,1.07Z"/>
    <path class="cls-11" d="m415.11,414.83s4.45-.85,5.61-.82c1.02.02,1.19,1.52,1.19,1.52l-3.28.38c13.96,9.35,33.36,8.78,47.44-1.94.58-.44,1.53-.43,1.85,0,.21.25.53,1.07-.25,1.68-7.77,6.07-17.41,9.1-26.95,9.1-8.38,0-16.68-2.32-23.6-6.97l.42,3.43s-1.5.23-1.79-.74c-.41-1.4-.64-5.65-.64-5.65Z"/>
    <path class="cls-11" d="m616.36,437.89s.85-4.45.82-5.61c-.02-1.02-1.52-1.19-1.52-1.19l-.38,3.28c-9.35-13.96-8.78-33.36,1.94-47.44.44-.58.43-1.53,0-1.85-.25-.21-1.07-.53-1.68.25-6.07,7.77-9.1,17.41-9.1,26.95,0,8.38,2.32,16.68,6.97,23.6l-3.43-.42s-.23,1.5.74,1.79c1.4.41,5.65.64,5.65.64Z"/>
    <path class="cls-11" d="m505.11,406.61s4.45.85,5.61.82c1.02-.02,1.19-1.52,1.19-1.52l-3.28-.38c13.96-9.35,33.36-8.78,47.44,1.94.58.44,1.53.43,1.85,0,.21-.25.53-1.07-.25-1.68-7.77-6.07-17.41-9.1-26.95-9.1-8.38,0-16.68,2.32-23.6,6.97l.42-3.43s-1.5-.23-1.79.74c-.41,1.4-.64,5.65-.64,5.65Z"/>
    <path class="cls-11" d="m717.4,437.89s-.85-4.45-.82-5.61c.02-1.02,1.52-1.19,1.52-1.19l.38,3.28c9.35-13.96,8.78-33.36-1.94-47.44-.44-.58-.43-1.53,0-1.85.25-.21,1.07-.53,1.68.25,6.07,7.77,9.1,17.41,9.1,26.95,0,8.38-2.32,16.68-6.97,23.6l3.43-.42s.23,1.5-.74,1.79c-1.4.41-5.65.64-5.65.64Z"/>
    <path class="cls-11" d="m595.02,513.85s4.45-.85,5.61-.82c1.02.02,1.19,1.52,1.19,1.52l-3.28.38c13.96,9.35,33.36,8.78,47.44-1.94.58-.44,1.53-.43,1.85,0,.21.25.53,1.07-.25,1.68-7.77,6.07-17.41,9.1-26.95,9.1-8.38,0-16.68-2.32-23.6-6.97l.42,3.43s-1.5.23-1.79-.74c-.41-1.4-.64-5.65-.64-5.65Z"/>
    <path class="cls-11" d="m685.11,508.17s4.45.85,5.61.82c1.02-.02,1.19-1.52,1.19-1.52l-3.28-.38c13.96-9.35,33.36-8.78,47.44,1.94.58.44,1.53.43,1.85,0,.21-.25.53-1.07-.25-1.68-7.77-6.07-17.41-9.1-26.95-9.1-8.38,0-16.68,2.32-23.6,6.97l.42-3.43s-1.5-.23-1.79.74c-.41,1.4-.64,5.65-.64,5.65Z"/>
    <path class="cls-11" d="m415.02,507.9s4.45.85,5.61.82c1.02-.02,1.19-1.52,1.19-1.52l-3.28-.38c13.96-9.35,33.36-8.78,47.44,1.94.58.44,1.53.43,1.85,0,.21-.25.53-1.07-.25-1.68-7.77-6.07-17.41-9.1-26.95-9.1-8.38,0-16.68,2.32-23.6,6.97l.42-3.43s-1.5-.23-1.79.74c-.41,1.4-.64,5.65-.64,5.65Z"/>
    <path class="cls-11" d="m505.02,514.61s4.45-.85,5.61-.82c1.02.02,1.19,1.52,1.19,1.52l-3.28.38c13.96,9.35,33.36,8.78,47.44-1.94.58-.44,1.53-.43,1.85,0,.21.25.53,1.07-.25,1.68-7.77,6.07-17.41,9.1-26.95,9.1-8.38,0-16.68-2.32-23.6-6.97l.42,3.43s-1.5.23-1.79-.74c-.41-1.4-.64-5.65-.64-5.65Z"/>
    <g>
      <rect class="cls-14" x="440.34" y="513.06" width="2.59" height="25.25" rx=".99" ry=".99"/>
      <rect class="cls-11" x="414.69" y="510.07" width="25.25" height="2.59" rx=".99" ry=".99"/>
    </g>
    <g>
      <rect class="cls-14" x="530.34" y="513.06" width="2.59" height="25.25" rx=".99" ry=".99"/>
      <rect class="cls-11" x="504.69" y="510.07" width="25.25" height="2.59" rx=".99" ry=".99"/>
    </g>
    <g>
      <rect class="cls-14" x="620.34" y="513.06" width="2.59" height="25.25" rx=".99" ry=".99"/>
      <rect class="cls-11" x="594.69" y="510.07" width="25.25" height="2.59" rx=".99" ry=".99"/>
    </g>
    <g>
      <rect class="cls-14" x="710.34" y="513.06" width="2.59" height="25.25" rx=".99" ry=".99"/>
      <rect class="cls-11" x="684.69" y="510.07" width="25.25" height="2.59" rx=".99" ry=".99"/>
    </g>
    <path class="cls-14" d="m448.61,541.63c-.93-.68-3.94-4.07-3.94-4.07,0,0,2.76-3.22,3.94-4.07.82-.6,1.87.49,1.87.49l-2.58,2.63c5.58.39,10.14-2.05,11.31-6.6-2.09.14-4.45-1.18-5.39-3.05-.72-1.44-.45-2.93.75-4.12,1.27-1.09,2.82-1.26,4.26-.45,1.78,1,2.95,3.24,2.8,5.24,4.15-1.09,6.26-4.82,6.64-11.75.09-.37.43-1.02,1.08-1.02.04,0,.08.01.13.01.74.1.91.78.9,1.12.14,6.33-2.88,13.05-8.92,13.79-.99,5.52-7.61,9.67-13.56,8.87l2.58,2.51s-1.04,1.08-1.86.47Zm10.99-13.7c.04-1.64-.25-2.59-1.03-3.33-1.09-.72-2.11-.79-2.64-.35-.47.4-.45,1.12-.11,1.9.41.92,1.45,1.81,3.22,1.81.18,0,.36-.01.56-.03Z"/>
    <path class="cls-14" d="m562.61,517.63c-.03.7-.61.91-1.41.87-.8-.03-3.41-.32-5,1.06-1.59,1.37-.62,4.94-.09,7.08l.13.48-.46-.19c-3.32-1.38-5.55-1.52-6.61-.44-1.84,1.86.27,6.83.29,6.88l.27.62-.61-.29c-2.55-1.22-4.68-1.63-5.97-.85-1.07.64-1.71,2.12-1.71,4.1.01.27-.02.99-.01,1.4l2.54-2.59s1.08,1.05.47,1.87c-.69.94-4.07,3.95-4.07,3.95,0,0-3.23-2.77-4.08-3.95-.6-.82.5-1.87.5-1.87l2.23,2.2c.04.06.09.11.15.15l.23.22c-.11-3,.56-5.44,2.41-6.86,1.7-1.31,4.1-.98,4.97-.8-.21-1.03-.88-3.84.78-5.54,1.7-1.74,4.77-1.35,5.82-1.2-.14-.96-.49-3.75,1.28-5.56,1.77-1.8,2.72-1.98,6.73-1.81.88.03,1.25.37,1.22,1.07Z"/>
    <path class="cls-14" d="m612.3,541.23l2.58-2.51c-5.96.81-12.57-3.35-13.56-8.87-6.04-.74-9.06-7.46-8.92-13.79-.01-.34.16-1.02.9-1.12.05,0,.09-.01.13-.01.65,0,.99.65,1.08,1.02.38,6.93,2.49,10.66,6.64,11.75-.15-2,1.02-4.24,2.8-5.24,1.44-.81,2.99-.64,4.26.45,1.2,1.19,1.47,2.68.75,4.12-.94,1.87-3.3,3.19-5.39,3.05,1.17,4.55,5.73,6.99,11.31,6.6l-2.58-2.63s1.05-1.1,1.87-.49c1.17.85,3.94,4.07,3.94,4.07,0,0-3.01,3.39-3.94,4.07-.82.61-1.86-.47-1.86-.47Zm-8.57-13.2c1.77,0,2.81-.89,3.22-1.81.34-.78.36-1.5-.11-1.9-.53-.44-1.55-.37-2.64.35-.78.74-1.07,1.69-1.03,3.33.2.02.38.03.56.03Z"/>
    <path class="cls-14" d="m682.08,515.98c.03.7.61.91,1.41.87.8-.03,3.41-.32,5,1.06,1.59,1.37.62,4.94.09,7.08l-.13.48.46-.19c3.32-1.38,5.55-1.52,6.61-.44,1.84,1.86-.27,6.83-.29,6.88l-.27.62.61-.29c2.55-1.22,4.68-1.63,5.97-.85,1.07.64,1.71,2.12,1.71,4.1-.01.27.02.99.01,1.4l-2.54-2.59s-1.08,1.05-.47,1.87c.69.94,4.07,3.95,4.07,3.95,0,0,3.23-2.77,4.08-3.95.6-.82-.5-1.87-.5-1.87l-2.23,2.2c-.04.06-.09.11-.15.15l-.23.22c.11-3-.56-5.44-2.41-6.86-1.7-1.31-4.1-.98-4.97-.8.21-1.03.88-3.84-.78-5.54-1.7-1.74-4.77-1.35-5.82-1.2.14-.96.49-3.75-1.28-5.56-1.77-1.8-2.72-1.98-6.73-1.81-.88.03-1.25.37-1.22,1.07Z"/>
    <g>
      <rect class="cls-14" x="83.34" y="160.07" width="25.25" height="2.59" rx=".99" ry=".99"/>
      <rect class="cls-11" x="54.69" y="160.07" width="25.25" height="2.59" rx=".99" ry=".99"/>
    </g>
    <g>
      <rect class="cls-14" x="173.34" y="160.07" width="25.25" height="2.59" rx=".99" ry=".99"/>
      <rect class="cls-11" x="144.69" y="160.07" width="25.25" height="2.59" rx=".99" ry=".99"/>
    </g>
    <g>
      <rect class="cls-11" x="258.36" y="162.98" width="2.59" height="25.25" rx=".99" ry=".99"/>
      <rect class="cls-14" x="262.33" y="162.98" width="2.59" height="25.25" rx=".99" ry=".99"/>
    </g>
    <g>
      <rect class="cls-11" x="348.36" y="162.98" width="2.59" height="25.25" rx=".99" ry=".99"/>
      <rect class="cls-14" x="352.33" y="162.98" width="2.59" height="25.25" rx=".99" ry=".99"/>
    </g>
    <path class="cls-14" d="m110.98,169.67l-2.51-2.58c.81,5.96-3.35,12.57-8.87,13.56-.74,6.04-7.46,9.06-13.79,8.92-.34.01-1.02-.16-1.12-.9,0-.05-.01-.09-.01-.13,0-.65.65-.99,1.02-1.08,6.93-.38,10.66-2.49,11.75-6.64-2,.15-4.24-1.02-5.24-2.8-.81-1.44-.64-2.99.45-4.26,1.19-1.2,2.68-1.47,4.12-.75,1.87.94,3.19,3.3,3.05,5.39,4.55-1.17,6.99-5.73,6.6-11.31l-2.63,2.58s-1.1-1.05-.49-1.87c.85-1.17,4.07-3.94,4.07-3.94,0,0,3.39,3.01,4.07,3.94.61.82-.47,1.86-.47,1.86Zm-13.2,8.57c0-1.77-.89-2.81-1.81-3.22-.78-.34-1.5-.36-1.9.11-.44.53-.37,1.55.35,2.64.74.78,1.69,1.07,3.33,1.03.02-.2.03-.38.03-.56Z"/>
    <path class="cls-14" d="m176.32,190.36c.7-.03.91-.61.87-1.41-.03-.8-.32-3.41,1.06-5,1.37-1.59,4.94-.62,7.08-.09l.48.13-.19-.46c-1.38-3.32-1.52-5.55-.44-6.61,1.86-1.84,6.83.27,6.88.29l.62.27-.29-.61c-1.22-2.55-1.63-4.68-.85-5.97.64-1.07,2.12-1.71,4.1-1.71.27.01.99-.02,1.4-.01l-2.59,2.54s1.05,1.08,1.87.47c.94-.69,3.95-4.07,3.95-4.07,0,0-2.77-3.23-3.95-4.08-.82-.6-1.87.5-1.87.5l2.2,2.23c.06.04.11.09.15.15l.22.23c-3-.11-5.44.56-6.86,2.41-1.31,1.7-.98,4.1-.8,4.97-1.03-.21-3.84-.88-5.54.78-1.74,1.7-1.35,4.77-1.2,5.82-.96-.14-3.75-.49-5.56,1.28-1.8,1.77-1.98,2.72-1.81,6.73.03.88.37,1.25,1.07,1.22Z"/>
    <path class="cls-14" d="m270.81,192.76c-.93-.68-3.94-4.07-3.94-4.07,0,0,2.76-3.22,3.94-4.07.82-.6,1.87.49,1.87.49l-2.58,2.63c5.58.39,10.14-2.05,11.31-6.6-2.09.14-4.45-1.18-5.39-3.05-.72-1.44-.45-2.93.75-4.12,1.27-1.09,2.82-1.26,4.26-.45,1.78,1,2.95,3.24,2.8,5.24,4.15-1.09,6.26-4.82,6.64-11.75.09-.37.43-1.02,1.08-1.02.04,0,.08.01.13.01.74.1.91.78.9,1.12.14,6.33-2.88,13.05-8.92,13.79-.99,5.52-7.61,9.67-13.56,8.87l2.58,2.51s-1.04,1.08-1.86.47Zm10.99-13.7c.04-1.64-.25-2.59-1.03-3.33-1.09-.72-2.11-.79-2.64-.35-.47.4-.45,1.12-.11,1.9.41.92,1.45,1.81,3.22,1.81.18,0,.36-.01.56-.03Z"/>
    <path class="cls-14" d="m382.12,165.76c-.03.7-.61.91-1.41.87-.8-.03-3.41-.32-5,1.06-1.59,1.37-.62,4.94-.09,7.08l.13.48-.46-.19c-3.32-1.38-5.55-1.52-6.61-.44-1.84,1.86.27,6.83.29,6.88l.27.62-.61-.29c-2.55-1.22-4.68-1.63-5.97-.85-1.07.64-1.71,2.12-1.71,4.1.01.27-.02.99-.01,1.4l2.54-2.59s1.08,1.05.47,1.87c-.69.94-4.07,3.95-4.07,3.95,0,0-3.23-2.77-4.08-3.95-.6-.82.5-1.87.5-1.87l2.23,2.2c.04.06.09.11.15.15l.23.22c-.11-3,.56-5.44,2.41-6.86,1.7-1.31,4.1-.98,4.97-.8-.21-1.03-.88-3.84.78-5.54,1.7-1.74,4.77-1.35,5.82-1.2-.14-.96-.49-3.75,1.28-5.56,1.77-1.8,2.72-1.98,6.73-1.81.88.03,1.25.37,1.22,1.07Z"/>
    <g>
      <rect class="cls-14" x="80.34" y="263.06" width="2.59" height="25.25" rx=".99" ry=".99"/>
      <rect class="cls-11" x="54.69" y="260.07" width="25.25" height="2.59" rx=".99" ry=".99"/>
    </g>
    <g>
      <rect class="cls-14" x="170.34" y="263.06" width="2.59" height="25.25" rx=".99" ry=".99"/>
      <rect class="cls-11" x="144.69" y="260.07" width="25.25" height="2.59" rx=".99" ry=".99"/>
    </g>
    <g>
      <rect class="cls-14" x="260.34" y="263.06" width="2.59" height="25.25" rx=".99" ry=".99"/>
      <rect class="cls-11" x="234.69" y="260.07" width="25.25" height="2.59" rx=".99" ry=".99"/>
    </g>
    <g>
      <rect class="cls-14" x="350.34" y="263.06" width="2.59" height="25.25" rx=".99" ry=".99"/>
      <rect class="cls-11" x="324.69" y="260.07" width="25.25" height="2.59" rx=".99" ry=".99"/>
    </g>
    <path class="cls-14" d="m88.61,291.63c-.93-.68-3.94-4.07-3.94-4.07,0,0,2.76-3.22,3.94-4.07.82-.6,1.87.49,1.87.49l-2.58,2.63c5.58.39,10.14-2.05,11.31-6.6-2.09.14-4.45-1.18-5.39-3.05-.72-1.44-.45-2.93.75-4.12,1.27-1.09,2.82-1.26,4.26-.45,1.78,1,2.95,3.24,2.8,5.24,4.15-1.09,6.26-4.82,6.64-11.75.09-.37.43-1.02,1.08-1.02.04,0,.08.01.13.01.74.1.91.78.9,1.12.14,6.33-2.88,13.05-8.92,13.79-.99,5.52-7.61,9.67-13.56,8.87l2.58,2.51s-1.04,1.08-1.86.47Zm10.99-13.7c.04-1.64-.25-2.59-1.03-3.33-1.09-.72-2.11-.79-2.64-.35-.47.4-.45,1.12-.11,1.9.41.92,1.45,1.81,3.22,1.81.18,0,.36-.01.56-.03Z"/>
    <path class="cls-14" d="m201.02,266.15c-.03.7-.61.91-1.41.87-.8-.03-3.41-.32-5,1.06-1.59,1.37-.62,4.94-.09,7.08l.13.48-.46-.19c-3.32-1.38-5.55-1.52-6.61-.44-1.84,1.86.27,6.83.29,6.88l.27.62-.61-.29c-2.55-1.22-4.68-1.63-5.97-.85-1.07.64-1.71,2.12-1.71,4.1.01.27-.02.99-.01,1.4l2.54-2.59s1.08,1.05.47,1.87c-.69.94-4.07,3.95-4.07,3.95,0,0-3.23-2.77-4.08-3.95-.6-.82.5-1.87.5-1.87l2.23,2.2c.04.06.09.11.15.15l.23.22c-.11-3,.56-5.44,2.41-6.86,1.7-1.31,4.1-.98,4.97-.8-.21-1.03-.88-3.84.78-5.54,1.7-1.74,4.77-1.35,5.82-1.2-.14-.96-.49-3.75,1.28-5.56,1.77-1.8,2.72-1.98,6.73-1.81.88.03,1.25.37,1.22,1.07Z"/>
    <path class="cls-14" d="m253.31,290.38l2.58-2.51c-5.96.81-12.57-3.35-13.56-8.87-6.04-.74-9.06-7.46-8.92-13.79-.01-.34.16-1.02.9-1.12.05,0,.09-.01.13-.01.65,0,.99.65,1.08,1.02.38,6.93,2.49,10.66,6.64,11.75-.15-2,1.02-4.24,2.8-5.24,1.44-.81,2.99-.64,4.26.45,1.2,1.19,1.47,2.68.75,4.12-.94,1.87-3.3,3.19-5.39,3.05,1.17,4.55,5.73,6.99,11.31,6.6l-2.58-2.63s1.05-1.1,1.87-.49c1.17.85,3.94,4.07,3.94,4.07,0,0-3.01,3.39-3.94,4.07-.82.61-1.86-.47-1.86-.47Zm-8.57-13.2c1.77,0,2.81-.89,3.22-1.81.34-.78.36-1.5-.11-1.9-.53-.44-1.55-.37-2.64.35-.78.74-1.07,1.69-1.03,3.33.2.02.38.03.56.03Z"/>
    <path class="cls-14" d="m322.08,265.98c.03.7.61.91,1.41.87.8-.03,3.41-.32,5,1.06,1.59,1.37.62,4.94.09,7.08l-.13.48.46-.19c3.32-1.38,5.55-1.52,6.61-.44,1.84,1.86-.27,6.83-.29,6.88l-.27.62.61-.29c2.55-1.22,4.68-1.63,5.97-.85,1.07.64,1.71,2.12,1.71,4.1-.01.27.02.99.01,1.4l-2.54-2.59s-1.08,1.05-.47,1.87c.69.94,4.07,3.95,4.07,3.95,0,0,3.23-2.77,4.08-3.95.6-.82-.5-1.87-.5-1.87l-2.23,2.2c-.04.06-.09.11-.15.15l-.23.22c.11-3-.56-5.44-2.41-6.86-1.7-1.31-4.1-.98-4.97-.8.21-1.03.88-3.84-.78-5.54-1.7-1.74-4.77-1.35-5.82-1.2.14-.96.49-3.75-1.28-5.56-1.77-1.8-2.72-1.98-6.73-1.81-.88.03-1.25.37-1.22,1.07Z"/>
    <path class="cls-11" d="m58.32,154.5l1.68,2.34c1.3-11.23,16.22-11.41,18.14,1.42.19,1.28-1.46,1.56-1.66.17-1.49-10.54-13.74-11.18-15.03-1.37l2.31-1.72s.71.93.16,1.48c-.76.76-3.31,2.36-3.57,2.52-.19-.23-2.14-2.53-2.64-3.48-.35-.69.61-1.36.61-1.36Z"/>
    <path class="cls-11" d="m146.74,167.88l1.68-2.34c1.3,11.23,16.22,11.41,18.14-1.42.19-1.28-1.46-1.56-1.66-.17-1.49,10.54-13.74,11.18-15.03,1.37l2.31,1.72s.71-.93.16-1.48c-.76-.76-3.31-2.36-3.57-2.52-.19.23-2.14,2.53-2.64,3.48-.35.69.61,1.36.61,1.36Z"/>
    <path class="cls-11" d="m253.03,165.44l2.34,1.68c-11.23,1.3-11.41,16.22,1.42,18.14,1.28.19,1.56-1.46.17-1.66-10.54-1.49-11.18-13.74-1.37-15.03l-1.72,2.31s.93.71,1.48.16c.76-.76,2.36-3.31,2.52-3.57-.23-.19-2.53-2.14-3.48-2.64-.69-.35-1.36.61-1.36.61Z"/>
    <path class="cls-11" d="m342.3,186.23l2.34-1.68c-11.23-1.3-11.41-16.22,1.42-18.14,1.28-.19,1.56,1.46.17,1.66-10.54,1.49-11.18,13.74-1.37,15.03l-1.72-2.31s.93-.71,1.48-.16c.76.76,2.36,3.31,2.52,3.57-.23.19-2.53,2.14-3.48,2.64-.69.35-1.36-.61-1.36-.61Z"/>
    <path class="cls-11" d="m57.74,268.05l1.68-2.34c1.3,11.23,16.22,11.41,18.14-1.42.19-1.28-1.46-1.56-1.66-.17-1.49,10.54-13.74,11.18-15.03,1.37l2.31,1.72s.71-.93.16-1.48c-.76-.76-3.31-2.36-3.57-2.52-.19.23-2.14,2.53-2.64,3.48-.35.69.61,1.36.61,1.36Z"/>
    <path class="cls-11" d="m146.74,254.45l1.68,2.34c1.3-11.23,16.22-11.41,18.14,1.42.19,1.28-1.46,1.56-1.66.17-1.49-10.54-13.74-11.18-15.03-1.37l2.31-1.72s.71.93.16,1.48c-.76.76-3.31,2.36-3.57,2.52-.19-.23-2.14-2.53-2.64-3.48-.35-.69.61-1.36.61-1.36Z"/>
    <path class="cls-11" d="m237.74,254.45l1.68,2.34c1.3-11.23,16.22-11.41,18.14,1.42.19,1.28-1.46,1.56-1.66.17-1.49-10.54-13.74-11.18-15.03-1.37l2.31-1.72s.71.93.16,1.48c-.76.76-3.31,2.36-3.57,2.52-.19-.23-2.14-2.53-2.64-3.48-.35-.69.61-1.36.61-1.36Z"/>
    <path class="cls-11" d="m346.89,254.34l-1.68,2.34c-1.3-11.23-16.22-11.41-18.14,1.42-.19,1.28,1.46,1.56,1.66.17,1.49-10.54,13.74-11.18,15.03-1.37l-2.31-1.72s-.71.93-.16,1.48c.76.76,3.31,2.36,3.57,2.52.19-.23,2.14-2.53,2.64-3.48.35-.69-.61-1.36-.61-1.36Z"/>
    <g>
      <rect class="cls-14" x="83.34" y="410.07" width="25.25" height="2.59" rx=".99" ry=".99"/>
      <rect class="cls-11" x="54.69" y="410.07" width="25.25" height="2.59" rx=".99" ry=".99"/>
    </g>
    <g>
      <rect class="cls-14" x="173.34" y="410.07" width="25.25" height="2.59" rx=".99" ry=".99"/>
      <rect class="cls-11" x="144.69" y="410.07" width="25.25" height="2.59" rx=".99" ry=".99"/>
    </g>
    <g>
      <rect class="cls-11" x="258.36" y="412.98" width="2.59" height="25.25" rx=".99" ry=".99"/>
      <rect class="cls-14" x="262.33" y="412.98" width="2.59" height="25.25" rx=".99" ry=".99"/>
    </g>
    <g>
      <rect class="cls-11" x="348.36" y="412.98" width="2.59" height="25.25" rx=".99" ry=".99"/>
      <rect class="cls-14" x="352.33" y="412.98" width="2.59" height="25.25" rx=".99" ry=".99"/>
    </g>
    <path class="cls-14" d="m110.98,419.67l-2.51-2.58c.81,5.96-3.35,12.57-8.87,13.56-.74,6.04-7.46,9.06-13.79,8.92-.34.01-1.02-.16-1.12-.9,0-.05-.01-.09-.01-.13,0-.65.65-.99,1.02-1.08,6.93-.38,10.66-2.49,11.75-6.64-2,.15-4.24-1.02-5.24-2.8-.81-1.44-.64-2.99.45-4.26,1.19-1.2,2.68-1.47,4.12-.75,1.87.94,3.19,3.3,3.05,5.39,4.55-1.17,6.99-5.73,6.6-11.31l-2.63,2.58s-1.1-1.05-.49-1.87c.85-1.17,4.07-3.94,4.07-3.94,0,0,3.39,3.01,4.07,3.94.61.82-.47,1.86-.47,1.86Zm-13.2,8.57c0-1.77-.89-2.81-1.81-3.22-.78-.34-1.5-.36-1.9.11-.44.53-.37,1.55.35,2.64.74.78,1.69,1.07,3.33,1.03.02-.2.03-.38.03-.56Z"/>
    <path class="cls-14" d="m176.32,440.36c.7-.03.91-.61.87-1.41-.03-.8-.32-3.41,1.06-5,1.37-1.59,4.94-.62,7.08-.09l.48.13-.19-.46c-1.38-3.32-1.52-5.55-.44-6.61,1.86-1.84,6.83.27,6.88.29l.62.27-.29-.61c-1.22-2.55-1.63-4.68-.85-5.97.64-1.07,2.12-1.71,4.1-1.71.27.01.99-.02,1.4-.01l-2.59,2.54s1.05,1.08,1.87.47c.94-.69,3.95-4.07,3.95-4.07,0,0-2.77-3.23-3.95-4.08-.82-.6-1.87.5-1.87.5l2.2,2.23c.06.04.11.09.15.15l.22.23c-3-.11-5.44.56-6.86,2.41-1.31,1.7-.98,4.1-.8,4.97-1.03-.21-3.84-.88-5.54.78-1.74,1.7-1.35,4.77-1.2,5.82-.96-.14-3.75-.49-5.56,1.28-1.8,1.77-1.98,2.72-1.81,6.73.03.88.37,1.25,1.07,1.22Z"/>
    <path class="cls-14" d="m273.4,445.44c-.93-.68-3.94-4.07-3.94-4.07,0,0,2.76-3.22,3.94-4.07.82-.6,1.87.49,1.87.49l-2.58,2.63c5.58.39,10.14-2.05,11.31-6.6-2.09.14-4.45-1.18-5.39-3.05-.72-1.44-.45-2.93.75-4.12,1.27-1.09,2.82-1.26,4.26-.45,1.78,1,2.95,3.24,2.8,5.24,4.15-1.09,6.26-4.82,6.64-11.75.09-.37.43-1.02,1.08-1.02.04,0,.08.01.13.01.74.1.91.78.9,1.12.14,6.33-2.88,13.05-8.92,13.79-.99,5.52-7.61,9.67-13.56,8.87l2.58,2.51s-1.04,1.08-1.86.47Zm10.99-13.7c.04-1.64-.25-2.59-1.03-3.33-1.09-.72-2.11-.79-2.64-.35-.47.4-.45,1.12-.11,1.9.41.92,1.45,1.81,3.22,1.81.18,0,.36-.01.56-.03Z"/>
    <path class="cls-14" d="m382.72,416.45c-.03.7-.61.91-1.41.87-.8-.03-3.41-.32-5,1.06-1.59,1.37-.62,4.94-.09,7.08l.13.48-.46-.19c-3.32-1.38-5.55-1.52-6.61-.44-1.84,1.86.27,6.83.29,6.88l.27.62-.61-.29c-2.55-1.22-4.68-1.63-5.97-.85-1.07.64-1.71,2.12-1.71,4.1.01.27-.02.99-.01,1.4l2.54-2.59s1.08,1.05.47,1.87c-.69.94-4.07,3.95-4.07,3.95,0,0-3.23-2.77-4.08-3.95-.6-.82.5-1.87.5-1.87l2.23,2.2c.04.06.09.11.15.15l.23.22c-.11-3,.56-5.44,2.41-6.86,1.7-1.31,4.1-.98,4.97-.8-.21-1.03-.88-3.84.78-5.54,1.7-1.74,4.77-1.35,5.82-1.2-.14-.96-.49-3.75,1.28-5.56,1.77-1.8,2.72-1.98,6.73-1.81.88.03,1.25.37,1.22,1.07Z"/>
    <g>
      <rect class="cls-14" x="80.34" y="513.06" width="2.59" height="25.25" rx=".99" ry=".99"/>
      <rect class="cls-11" x="54.69" y="510.07" width="25.25" height="2.59" rx=".99" ry=".99"/>
    </g>
    <g>
      <rect class="cls-14" x="170.34" y="513.06" width="2.59" height="25.25" rx=".99" ry=".99"/>
      <rect class="cls-11" x="144.69" y="510.07" width="25.25" height="2.59" rx=".99" ry=".99"/>
    </g>
    <g>
      <rect class="cls-14" x="260.34" y="513.06" width="2.59" height="25.25" rx=".99" ry=".99"/>
      <rect class="cls-11" x="234.69" y="510.07" width="25.25" height="2.59" rx=".99" ry=".99"/>
    </g>
    <g>
      <rect class="cls-14" x="350.34" y="513.06" width="2.59" height="25.25" rx=".99" ry=".99"/>
      <rect class="cls-11" x="324.69" y="510.07" width="25.25" height="2.59" rx=".99" ry=".99"/>
    </g>
    <path class="cls-14" d="m88.61,541.63c-.93-.68-3.94-4.07-3.94-4.07,0,0,2.76-3.22,3.94-4.07.82-.6,1.87.49,1.87.49l-2.58,2.63c5.58.39,10.14-2.05,11.31-6.6-2.09.14-4.45-1.18-5.39-3.05-.72-1.44-.45-2.93.75-4.12,1.27-1.09,2.82-1.26,4.26-.45,1.78,1,2.95,3.24,2.8,5.24,4.15-1.09,6.26-4.82,6.64-11.75.09-.37.43-1.02,1.08-1.02.04,0,.08.01.13.01.74.1.91.78.9,1.12.14,6.33-2.88,13.05-8.92,13.79-.99,5.52-7.61,9.67-13.56,8.87l2.58,2.51s-1.04,1.08-1.86.47Zm10.99-13.7c.04-1.64-.25-2.59-1.03-3.33-1.09-.72-2.11-.79-2.64-.35-.47.4-.45,1.12-.11,1.9.41.92,1.45,1.81,3.22,1.81.18,0,.36-.01.56-.03Z"/>
    <path class="cls-14" d="m201.02,516.15c-.03.7-.61.91-1.41.87-.8-.03-3.41-.32-5,1.06-1.59,1.37-.62,4.94-.09,7.08l.13.48-.46-.19c-3.32-1.38-5.55-1.52-6.61-.44-1.84,1.86.27,6.83.29,6.88l.27.62-.61-.29c-2.55-1.22-4.68-1.63-5.97-.85-1.07.64-1.71,2.12-1.71,4.1.01.27-.02.99-.01,1.4l2.54-2.59s1.08,1.05.47,1.87c-.69.94-4.07,3.95-4.07,3.95,0,0-3.23-2.77-4.08-3.95-.6-.82.5-1.87.5-1.87l2.23,2.2c.04.06.09.11.15.15l.23.22c-.11-3,.56-5.44,2.41-6.86,1.7-1.31,4.1-.98,4.97-.8-.21-1.03-.88-3.84.78-5.54,1.7-1.74,4.77-1.35,5.82-1.2-.14-.96-.49-3.75,1.28-5.56,1.77-1.8,2.72-1.98,6.73-1.81.88.03,1.25.37,1.22,1.07Z"/>
    <path class="cls-14" d="m252.3,540.85l2.58-2.51c-5.96.81-12.57-3.35-13.56-8.87-6.04-.74-9.06-7.46-8.92-13.79-.01-.34.16-1.02.9-1.12.05,0,.09-.01.13-.01.65,0,.99.65,1.08,1.02.38,6.93,2.49,10.66,6.64,11.75-.15-2,1.02-4.24,2.8-5.24,1.44-.81,2.99-.64,4.26.45,1.2,1.19,1.47,2.68.75,4.12-.94,1.87-3.3,3.19-5.39,3.05,1.17,4.55,5.73,6.99,11.31,6.6l-2.58-2.63s1.05-1.1,1.87-.49c1.17.85,3.94,4.07,3.94,4.07,0,0-3.01,3.39-3.94,4.07-.82.61-1.86-.47-1.86-.47Zm-8.57-13.2c1.77,0,2.81-.89,3.22-1.81.34-.78.36-1.5-.11-1.9-.53-.44-1.55-.37-2.64.35-.78.74-1.07,1.69-1.03,3.33.2.02.38.03.56.03Z"/>
    <path class="cls-14" d="m319.46,518.59c.03.7.61.91,1.41.87.8-.03,3.41-.32,5,1.06,1.59,1.37.62,4.94.09,7.08l-.13.48.46-.19c3.32-1.38,5.55-1.52,6.61-.44,1.84,1.86-.27,6.83-.29,6.88l-.27.62.61-.29c2.55-1.22,4.68-1.63,5.97-.85,1.07.64,1.71,2.12,1.71,4.1-.01.27.02.99.01,1.4l-2.54-2.59s-1.08,1.05-.47,1.87c.69.94,4.07,3.95,4.07,3.95,0,0,3.23-2.77,4.08-3.95.6-.82-.5-1.87-.5-1.87l-2.23,2.2c-.04.06-.09.11-.15.15l-.23.22c.11-3-.56-5.44-2.41-6.86-1.7-1.31-4.1-.98-4.97-.8.21-1.03.88-3.84-.78-5.54-1.7-1.74-4.77-1.35-5.82-1.2.14-.96.49-3.75-1.28-5.56-1.77-1.8-2.72-1.98-6.73-1.81-.88.03-1.25.37-1.22,1.07Z"/>
    <path class="cls-11" d="m58.32,418.37l1.68-2.34c1.3,11.23,16.22,11.41,18.14-1.42.19-1.28-1.46-1.56-1.66-.17-1.49,10.54-13.74,11.18-15.03,1.37l2.31,1.72s.71-.93.16-1.48c-.76-.76-3.31-2.36-3.57-2.52-.19.23-2.14,2.53-2.64,3.48-.35.69.61,1.36.61,1.36Z"/>
    <path class="cls-11" d="m146.74,404.02l1.68,2.34c1.3-11.23,16.22-11.41,18.14,1.42.19,1.28-1.46,1.56-1.66.17-1.49-10.54-13.74-11.18-15.03-1.37l2.31-1.72s.71.93.16,1.48c-.76.76-3.31,2.36-3.57,2.52-.19-.23-2.14-2.53-2.64-3.48-.35-.69.61-1.36.61-1.36Z"/>
    <path class="cls-11" d="m237.74,504.71l1.68,2.34c1.3-11.23,16.22-11.41,18.14,1.42.19,1.28-1.46,1.56-1.66.17-1.49-10.54-13.74-11.18-15.03-1.37l2.31-1.72s.71.93.16,1.48c-.76.76-3.31,2.36-3.57,2.52-.19-.23-2.14-2.53-2.64-3.48-.35-.69.61-1.36.61-1.36Z"/>
    <path class="cls-11" d="m342.81,415.44l2.34,1.68c-11.23,1.3-11.41,16.22,1.42,18.14,1.28.19,1.56-1.46.17-1.66-10.54-1.49-11.18-13.74-1.37-15.03l-1.72,2.31s.93.71,1.48.16c.76-.76,2.36-3.31,2.52-3.57-.23-.19-2.53-2.14-3.48-2.64-.69-.35-1.36.61-1.36.61Z"/>
    <path class="cls-11" d="m58.14,504.55l1.68,2.34c1.3-11.23,16.22-11.41,18.14,1.42.19,1.28-1.46,1.56-1.66.17-1.49-10.54-13.74-11.18-15.03-1.37l2.31-1.72s.71.93.16,1.48c-.76.76-3.31,2.36-3.57,2.52-.19-.23-2.14-2.53-2.64-3.48-.35-.69.61-1.36.61-1.36Z"/>
    <path class="cls-11" d="m147.27,518.07l1.68-2.34c1.3,11.23,16.22,11.41,18.14-1.42.19-1.28-1.46-1.56-1.66-.17-1.49,10.54-13.74,11.18-15.03,1.37l2.31,1.72s.71-.93.16-1.48c-.76-.76-3.31-2.36-3.57-2.52-.19.23-2.14,2.53-2.64,3.48-.35.69.61,1.36.61,1.36Z"/>
    <path class="cls-11" d="m253.03,434.59l2.34-1.68c-11.23-1.3-11.41-16.22,1.42-18.14,1.28-.19,1.56,1.46.17,1.66-10.54,1.49-11.18,13.74-1.37,15.03l-1.72-2.31s.93-.71,1.48-.16c.76.76,2.36,3.31,2.52,3.57-.23.19-2.53,2.14-3.48,2.64-.69.35-1.36-.61-1.36-.61Z"/>
    <path class="cls-11" d="m327.02,518.05l1.68-2.34c1.3,11.23,16.22,11.41,18.14-1.42.19-1.28-1.46-1.56-1.66-.17-1.49,10.54-13.74,11.18-15.03,1.37l2.31,1.72s.71-.93.16-1.48c-.76-.76-3.31-2.36-3.57-2.52-.19.23-2.14,2.53-2.64,3.48-.35.69.61,1.36.61,1.36Z"/>
    <g>
      <line class="cls-8" x1="396.33" y1="128.77" x2="396.33" y2="321.24"/>
      <line class="cls-6" x1="48.83" y1="221.24" x2="743.83" y2="221.24"/>
      <line class="cls-6" x1="48.83" y1="471.24" x2="743.83" y2="471.24"/>
      <line class="cls-8" x1="396.33" y1="375.01" x2="396.33" y2="567.48"/>
    </g>
    <g>
      <g>
        <path class="cls-10" d="m81.64,162.49c1.45,0,1.45-2.25,0-2.25s-1.45,2.25,0,2.25h0Z"/>
        <circle class="cls-10" cx="81.64" cy="131.37" r="2.5"/>
        <circle class="cls-10" cx="111.64" cy="161.37" r="2.5"/>
        <circle class="cls-10" cx="81.64" cy="191.37" r="2.5"/>
        <circle class="cls-10" cx="51.64" cy="161.37" r="2.5"/>
      </g>
      <g>
        <path class="cls-10" d="m171.64,162.49c1.45,0,1.45-2.25,0-2.25s-1.45,2.25,0,2.25h0Z"/>
        <circle class="cls-10" cx="171.64" cy="131.37" r="2.5"/>
        <circle class="cls-10" cx="201.64" cy="161.37" r="2.5"/>
        <circle class="cls-10" cx="171.64" cy="191.37" r="2.5"/>
        <circle class="cls-10" cx="141.64" cy="161.37" r="2.5"/>
      </g>
      <g>
        <path class="cls-10" d="m261.64,162.49c1.45,0,1.45-2.25,0-2.25s-1.45,2.25,0,2.25h0Z"/>
        <circle class="cls-10" cx="261.64" cy="191.37" r="2.5"/>
        <circle class="cls-10" cx="291.64" cy="161.37" r="2.5"/>
        <circle class="cls-10" cx="261.64" cy="131.37" r="2.5"/>
        <circle class="cls-10" cx="231.64" cy="161.37" r="2.5"/>
      </g>
      <g>
        <path class="cls-10" d="m351.64,162.49c1.45,0,1.45-2.25,0-2.25s-1.45,2.25,0,2.25h0Z"/>
        <circle class="cls-10" cx="351.64" cy="191.37" r="2.5"/>
        <circle class="cls-10" cx="381.64" cy="161.37" r="2.5"/>
        <circle class="cls-10" cx="351.64" cy="131.37" r="2.5"/>
        <circle class="cls-10" cx="321.64" cy="161.37" r="2.5"/>
      </g>
      <g>
        <path class="cls-10" d="m441.64,162.49c1.45,0,1.45-2.25,0-2.25s-1.45,2.25,0,2.25h0Z"/>
        <circle class="cls-10" cx="441.64" cy="131.37" r="2.5"/>
        <circle class="cls-10" cx="471.64" cy="161.37" r="2.5"/>
        <circle class="cls-10" cx="441.64" cy="191.37" r="2.5"/>
        <circle class="cls-10" cx="411.64" cy="161.37" r="2.5"/>
      </g>
      <g>
        <path class="cls-10" d="m531.64,162.49c1.45,0,1.45-2.25,0-2.25s-1.45,2.25,0,2.25h0Z"/>
        <circle class="cls-10" cx="531.64" cy="131.37" r="2.5"/>
        <circle class="cls-10" cx="561.64" cy="161.37" r="2.5"/>
        <circle class="cls-10" cx="531.64" cy="191.37" r="2.5"/>
        <circle class="cls-10" cx="501.64" cy="161.37" r="2.5"/>
      </g>
      <g>
        <path class="cls-10" d="m621.64,162.49c1.45,0,1.45-2.25,0-2.25s-1.45,2.25,0,2.25h0Z"/>
        <circle class="cls-10" cx="621.64" cy="191.37" r="2.5"/>
        <circle class="cls-10" cx="651.64" cy="161.37" r="2.5"/>
        <circle class="cls-10" cx="621.64" cy="131.37" r="2.5"/>
        <circle class="cls-10" cx="591.64" cy="161.37" r="2.5"/>
      </g>
      <g>
        <path class="cls-10" d="m711.64,162.49c1.45,0,1.45-2.25,0-2.25s-1.45,2.25,0,2.25h0Z"/>
        <circle class="cls-10" cx="711.64" cy="191.37" r="2.5"/>
        <circle class="cls-10" cx="741.64" cy="161.37" r="2.5"/>
        <circle class="cls-10" cx="711.64" cy="131.37" r="2.5"/>
        <circle class="cls-10" cx="681.64" cy="161.37" r="2.5"/>
      </g>
      <g>
        <path class="cls-10" d="m81.64,262.49c1.45,0,1.45-2.25,0-2.25s-1.45,2.25,0,2.25h0Z"/>
        <circle class="cls-10" cx="81.64" cy="291.37" r="2.5"/>
        <circle class="cls-10" cx="111.64" cy="261.37" r="2.5"/>
        <circle class="cls-10" cx="81.64" cy="231.37" r="2.5"/>
        <circle class="cls-10" cx="51.64" cy="261.37" r="2.5"/>
      </g>
      <g>
        <path class="cls-10" d="m171.64,262.49c1.45,0,1.45-2.25,0-2.25s-1.45,2.25,0,2.25h0Z"/>
        <circle class="cls-10" cx="171.64" cy="291.37" r="2.5"/>
        <circle class="cls-10" cx="201.64" cy="261.37" r="2.5"/>
        <circle class="cls-10" cx="171.64" cy="231.37" r="2.5"/>
        <circle class="cls-10" cx="141.64" cy="261.37" r="2.5"/>
      </g>
      <g>
        <path class="cls-10" d="m261.64,262.49c1.45,0,1.45-2.25,0-2.25s-1.45,2.25,0,2.25h0Z"/>
        <circle class="cls-10" cx="261.64" cy="291.37" r="2.5"/>
        <circle class="cls-10" cx="291.64" cy="261.37" r="2.5"/>
        <circle class="cls-10" cx="261.64" cy="231.37" r="2.5"/>
        <circle class="cls-10" cx="231.64" cy="261.37" r="2.5"/>
      </g>
      <g>
        <path class="cls-10" d="m351.64,262.49c1.45,0,1.45-2.25,0-2.25s-1.45,2.25,0,2.25h0Z"/>
        <circle class="cls-10" cx="351.64" cy="291.37" r="2.5"/>
        <circle class="cls-10" cx="381.64" cy="261.37" r="2.5"/>
        <circle class="cls-10" cx="351.64" cy="231.37" r="2.5"/>
        <circle class="cls-10" cx="321.64" cy="261.37" r="2.5"/>
      </g>
      <g>
        <path class="cls-10" d="m441.64,262.49c1.45,0,1.45-2.25,0-2.25s-1.45,2.25,0,2.25h0Z"/>
        <circle class="cls-10" cx="441.64" cy="291.37" r="2.5"/>
        <circle class="cls-10" cx="471.64" cy="261.37" r="2.5"/>
        <circle class="cls-10" cx="441.64" cy="231.37" r="2.5"/>
        <circle class="cls-10" cx="411.64" cy="261.37" r="2.5"/>
      </g>
      <g>
        <path class="cls-10" d="m531.64,262.49c1.45,0,1.45-2.25,0-2.25s-1.45,2.25,0,2.25h0Z"/>
        <circle class="cls-10" cx="531.64" cy="291.37" r="2.5"/>
        <circle class="cls-10" cx="561.64" cy="261.37" r="2.5"/>
        <circle class="cls-10" cx="531.64" cy="231.37" r="2.5"/>
        <circle class="cls-10" cx="501.64" cy="261.37" r="2.5"/>
      </g>
      <g>
        <path class="cls-10" d="m621.64,262.49c1.45,0,1.45-2.25,0-2.25s-1.45,2.25,0,2.25h0Z"/>
        <circle class="cls-10" cx="621.64" cy="291.37" r="2.5"/>
        <circle class="cls-10" cx="651.64" cy="261.37" r="2.5"/>
        <circle class="cls-10" cx="621.64" cy="231.37" r="2.5"/>
        <circle class="cls-10" cx="591.64" cy="261.37" r="2.5"/>
      </g>
      <g>
        <path class="cls-10" d="m711.64,262.49c1.45,0,1.45-2.25,0-2.25s-1.45,2.25,0,2.25h0Z"/>
        <circle class="cls-10" cx="711.64" cy="291.37" r="2.5"/>
        <circle class="cls-10" cx="741.64" cy="261.37" r="2.5"/>
        <circle class="cls-10" cx="711.64" cy="231.37" r="2.5"/>
        <circle class="cls-10" cx="681.64" cy="261.37" r="2.5"/>
      </g>
      <g>
        <path class="cls-10" d="m81.64,412.49c1.45,0,1.45-2.25,0-2.25s-1.45,2.25,0,2.25h0Z"/>
        <circle class="cls-10" cx="81.64" cy="381.37" r="2.5"/>
        <circle class="cls-10" cx="111.64" cy="411.37" r="2.5"/>
        <circle class="cls-10" cx="81.64" cy="441.37" r="2.5"/>
        <circle class="cls-10" cx="51.64" cy="411.37" r="2.5"/>
      </g>
      <g>
        <path class="cls-10" d="m171.64,412.49c1.45,0,1.45-2.25,0-2.25s-1.45,2.25,0,2.25h0Z"/>
        <circle class="cls-10" cx="171.64" cy="381.37" r="2.5"/>
        <circle class="cls-10" cx="201.64" cy="411.37" r="2.5"/>
        <circle class="cls-10" cx="171.64" cy="441.37" r="2.5"/>
        <circle class="cls-10" cx="141.64" cy="411.37" r="2.5"/>
      </g>
      <g>
        <path class="cls-10" d="m261.64,412.49c1.45,0,1.45-2.25,0-2.25s-1.45,2.25,0,2.25h0Z"/>
        <circle class="cls-10" cx="261.64" cy="441.37" r="2.5"/>
        <circle class="cls-10" cx="291.64" cy="411.37" r="2.5"/>
        <circle class="cls-10" cx="261.64" cy="381.37" r="2.5"/>
        <circle class="cls-10" cx="231.64" cy="411.37" r="2.5"/>
      </g>
      <g>
        <path class="cls-10" d="m351.64,412.49c1.45,0,1.45-2.25,0-2.25s-1.45,2.25,0,2.25h0Z"/>
        <circle class="cls-10" cx="351.64" cy="441.37" r="2.5"/>
        <circle class="cls-10" cx="381.64" cy="411.37" r="2.5"/>
        <circle class="cls-10" cx="351.64" cy="381.37" r="2.5"/>
        <circle class="cls-10" cx="321.64" cy="411.37" r="2.5"/>
      </g>
      <g>
        <path class="cls-10" d="m441.64,412.49c1.45,0,1.45-2.25,0-2.25s-1.45,2.25,0,2.25h0Z"/>
        <circle class="cls-10" cx="441.64" cy="381.37" r="2.5"/>
        <circle class="cls-10" cx="471.64" cy="411.37" r="2.5"/>
        <circle class="cls-10" cx="441.64" cy="441.37" r="2.5"/>
        <circle class="cls-10" cx="411.64" cy="411.37" r="2.5"/>
      </g>
      <g>
        <path class="cls-10" d="m531.64,412.49c1.45,0,1.45-2.25,0-2.25s-1.45,2.25,0,2.25h0Z"/>
        <circle class="cls-10" cx="531.64" cy="381.37" r="2.5"/>
        <circle class="cls-10" cx="561.64" cy="411.37" r="2.5"/>
        <circle class="cls-10" cx="531.64" cy="441.37" r="2.5"/>
        <circle class="cls-10" cx="501.64" cy="411.37" r="2.5"/>
      </g>
      <g>
        <path class="cls-10" d="m621.64,412.49c1.45,0,1.45-2.25,0-2.25s-1.45,2.25,0,2.25h0Z"/>
        <circle class="cls-10" cx="621.64" cy="441.37" r="2.5"/>
        <circle class="cls-10" cx="651.64" cy="411.37" r="2.5"/>
        <circle class="cls-10" cx="621.64" cy="381.37" r="2.5"/>
        <circle class="cls-10" cx="591.64" cy="411.37" r="2.5"/>
      </g>
      <g>
        <path class="cls-10" d="m711.64,412.49c1.45,0,1.45-2.25,0-2.25s-1.45,2.25,0,2.25h0Z"/>
        <circle class="cls-10" cx="711.64" cy="441.37" r="2.5"/>
        <circle class="cls-10" cx="741.64" cy="411.37" r="2.5"/>
        <circle class="cls-10" cx="711.64" cy="381.37" r="2.5"/>
        <circle class="cls-10" cx="681.64" cy="411.37" r="2.5"/>
      </g>
      <g>
        <path class="cls-10" d="m81.64,512.49c1.45,0,1.45-2.25,0-2.25s-1.45,2.25,0,2.25h0Z"/>
        <circle class="cls-10" cx="81.64" cy="541.37" r="2.5"/>
        <circle class="cls-10" cx="111.64" cy="511.37" r="2.5"/>
        <circle class="cls-10" cx="81.64" cy="481.37" r="2.5"/>
        <circle class="cls-10" cx="51.64" cy="511.37" r="2.5"/>
      </g>
      <g>
        <path class="cls-10" d="m171.64,512.49c1.45,0,1.45-2.25,0-2.25s-1.45,2.25,0,2.25h0Z"/>
        <circle class="cls-10" cx="171.64" cy="541.37" r="2.5"/>
        <circle class="cls-10" cx="201.64" cy="511.37" r="2.5"/>
        <circle class="cls-10" cx="171.64" cy="481.37" r="2.5"/>
        <circle class="cls-10" cx="141.64" cy="511.37" r="2.5"/>
      </g>
      <g>
        <path class="cls-10" d="m261.64,512.49c1.45,0,1.45-2.25,0-2.25s-1.45,2.25,0,2.25h0Z"/>
        <circle class="cls-10" cx="261.64" cy="541.37" r="2.5"/>
        <circle class="cls-10" cx="291.64" cy="511.37" r="2.5"/>
        <circle class="cls-10" cx="261.64" cy="481.37" r="2.5"/>
        <circle class="cls-10" cx="231.64" cy="511.37" r="2.5"/>
      </g>
      <g>
        <path class="cls-10" d="m351.64,512.49c1.45,0,1.45-2.25,0-2.25s-1.45,2.25,0,2.25h0Z"/>
        <circle class="cls-10" cx="351.64" cy="541.37" r="2.5"/>
        <circle class="cls-10" cx="381.64" cy="511.37" r="2.5"/>
        <circle class="cls-10" cx="351.64" cy="481.37" r="2.5"/>
        <circle class="cls-10" cx="321.64" cy="511.37" r="2.5"/>
      </g>
      <g>
        <path class="cls-10" d="m441.64,512.49c1.45,0,1.45-2.25,0-2.25s-1.45,2.25,0,2.25h0Z"/>
        <circle class="cls-10" cx="441.64" cy="541.37" r="2.5"/>
        <circle class="cls-10" cx="471.64" cy="511.37" r="2.5"/>
        <circle class="cls-10" cx="441.64" cy="481.37" r="2.5"/>
        <circle class="cls-10" cx="411.64" cy="511.37" r="2.5"/>
      </g>
      <g>
        <path class="cls-10" d="m531.64,512.49c1.45,0,1.45-2.25,0-2.25s-1.45,2.25,0,2.25h0Z"/>
        <circle class="cls-10" cx="531.64" cy="541.37" r="2.5"/>
        <circle class="cls-10" cx="561.64" cy="511.37" r="2.5"/>
        <circle class="cls-10" cx="531.64" cy="481.37" r="2.5"/>
        <circle class="cls-10" cx="501.64" cy="511.37" r="2.5"/>
      </g>
      <g>
        <path class="cls-10" d="m621.64,512.49c1.45,0,1.45-2.25,0-2.25s-1.45,2.25,0,2.25h0Z"/>
        <circle class="cls-10" cx="621.64" cy="541.37" r="2.5"/>
        <circle class="cls-10" cx="651.64" cy="511.37" r="2.5"/>
        <circle class="cls-10" cx="621.64" cy="481.37" r="2.5"/>
        <circle class="cls-10" cx="591.64" cy="511.37" r="2.5"/>
      </g>
      <g>
        <path class="cls-10" d="m711.64,512.49c1.45,0,1.45-2.25,0-2.25s-1.45,2.25,0,2.25h0Z"/>
        <circle class="cls-10" cx="711.64" cy="541.37" r="2.5"/>
        <circle class="cls-10" cx="741.64" cy="511.37" r="2.5"/>
        <circle class="cls-10" cx="711.64" cy="481.37" r="2.5"/>
        <circle class="cls-10" cx="681.64" cy="511.37" r="2.5"/>
      </g>
    </g>
  </g>
  <text class="cls-7" transform="translate(365.86 84.18)"><tspan x="0" y="0">2 / 1</tspan></text>
  <g>
    <path class="cls-10" d="m446.8,201.22c-.46-.06-.96.28-1.19,1.14-.42,1.54-.92,3.7-1.44,5.63-1.11-2.72-1.86-4.39-2.5-4.38-.01,0-.02,0-.03.01-.01-.01-.02-.01-.03-.01-.64-.01-1.39,1.65-2.5,4.38-.51-1.93-1.02-4.09-1.44-5.63-.24-.86-.73-1.2-1.19-1.14-.59.07-.98.49-.74,1.25.25.81,1.84,6.07,2.3,7.72.47,1.65,1.59.9,1.8.49.21-.41,1.36-3.67,1.8-4.59.44.92,1.59,4.18,1.8,4.59.21.41,1.33,1.16,1.8-.49.46-1.64,2.05-6.9,2.3-7.72.24-.76-.15-1.18-.74-1.25Z"/>
    <path class="cls-10" d="m624.98,202.45l-4.37,8.3c-.15.29-.45.46-.75.46-.13,0-.26-.04-.39-.1-.2-.11-.35-.28-.42-.5-.07-.21-.05-.45.06-.65l1.88-3.58-2.53-3.62c-.12-.11-.2-.27-.24-.47-.05-.25.03-.53.2-.71.15-.17.35-.27.58-.28.22,0,.45.07.61.21l2.2,3.29,1.65-3.14c.12-.2.29-.35.51-.42.22-.07.45-.04.65.07.22.12.38.33.43.59.03.19,0,.38-.08.55Z"/>
    <path class="cls-10" d="m535.54,209.72c.16.19.21.44.19.68-.03.24-.16.46-.34.61-.4.3-.98.23-1.3-.17l-2.45-3.14-2.45,3.14c-.18.23-.45.36-.72.36-.19,0-.4-.07-.57-.19-.19-.15-.32-.37-.35-.61-.03-.24.03-.49.19-.68l2.73-3.51-2.73-3.51c-.13-.17-.19-.36-.19-.57,0-.28.14-.56.36-.73.19-.15.42-.21.67-.19.24.03.47.16.61.35l2.45,3.14,2.44-3.14c.33-.41.91-.48,1.31-.16.22.17.35.43.35.72,0,.2-.07.4-.19.57l-2.73,3.51,2.73,3.51Z"/>
    <path class="cls-10" d="m712.61,202.94h-3.64c-1.34,0-1.31-1.73,0-1.73,5.4,0,5.35.02,5.67.38.23.27.43.73.15,1.14-1.71,2.48-4.54,6.52-4.54,6.52,0,0,3.43,0,4.33,0,1.35,0,1.4,1.91.13,1.91-8.37,0-9.53,1.13-2.09-8.23Z"/>
    <path class="cls-10" d="m446.8,451.22c-.46-.06-.96.28-1.19,1.14-.42,1.54-.92,3.7-1.44,5.63-1.11-2.72-1.86-4.39-2.5-4.38-.01,0-.02,0-.03.01-.01-.01-.02-.01-.03-.01-.64-.01-1.39,1.65-2.5,4.38-.51-1.93-1.02-4.09-1.44-5.63-.24-.86-.73-1.2-1.19-1.14-.59.07-.98.49-.74,1.25.25.81,1.84,6.07,2.3,7.72.47,1.65,1.59.9,1.8.49.21-.41,1.36-3.67,1.8-4.59.44.92,1.59,4.18,1.8,4.59.21.41,1.33,1.16,1.8-.49.46-1.64,2.05-6.9,2.3-7.72.24-.76-.15-1.18-.74-1.25Z"/>
    <path class="cls-10" d="m624.98,452.45l-4.37,8.3c-.15.29-.45.46-.75.46-.13,0-.26-.04-.39-.1-.2-.11-.35-.28-.42-.5-.07-.21-.05-.45.06-.65l1.88-3.58-2.53-3.62c-.12-.11-.2-.27-.24-.47-.05-.25.03-.53.2-.71.15-.17.35-.27.58-.28.22,0,.45.07.61.21l2.2,3.29,1.65-3.14c.12-.2.29-.35.51-.42.22-.07.45-.04.65.07.22.12.38.33.43.59.03.19,0,.38-.08.55Z"/>
    <path class="cls-10" d="m535.54,459.72c.16.19.21.44.19.68-.03.24-.16.46-.34.61-.4.3-.98.23-1.3-.17l-2.45-3.14-2.45,3.14c-.18.23-.45.36-.72.36-.19,0-.4-.07-.57-.19-.19-.15-.32-.37-.35-.61-.03-.24.03-.49.19-.68l2.73-3.51-2.73-3.51c-.13-.17-.19-.36-.19-.57,0-.28.14-.56.36-.73.19-.15.42-.21.67-.19.24.03.47.16.61.35l2.45,3.14,2.44-3.14c.33-.41.91-.48,1.31-.16.22.17.35.43.35.72,0,.2-.07.4-.19.57l-2.73,3.51,2.73,3.51Z"/>
    <path class="cls-10" d="m712.61,452.94h-3.64c-1.34,0-1.31-1.73,0-1.73,5.4,0,5.35.02,5.67.38.23.27.43.73.15,1.14-1.71,2.48-4.54,6.52-4.54,6.52,0,0,3.43,0,4.33,0,1.35,0,1.4,1.91.13,1.91-8.37,0-9.53,1.13-2.09-8.23Z"/>
    <g>
      <path class="cls-10" d="m716.86,311.21h-3.54c-.32,0-.53-.32-.41-.62,2.67-6.29.99-7.71-1.08-7.85-.04,0-.08,0-.12,0h-.02s-.09,0-.13,0c-.04,0-.08,0-.12,0-2.07.14-3.75,1.56-1.08,7.85.12.29-.09.62-.41.62h-3.54c-.14,0-.66-1.27.12-1.73.69-.41.99.09,1.81.11-2.24-4.96.04-7.96,2.78-8.36.08-.02.94-.02,1.02,0,2.74.41,5.02,3.4,2.78,8.36.82-.02,1.12-.51,1.81-.11.78.46.26,1.73.12,1.73Z"/>
      <path class="cls-10" d="m535.72,309.34c-.93-2.27-1.86-4.39-2.21-5.2-.38-.84-.67-1.52-.74-1.72-.32-.87-.6-1.18-1.12-1.22-.5.04-.79.34-1.11,1.22-.07.2-.36.87-.73,1.72-.73,1.66-1.56,3.6-2.22,5.2-.28.71-.29,1.21-.03,1.52.19.23.49.34.9.34h6.43c.41,0,.71-.12.9-.34.12-.15.18-.34.18-.58,0-.26-.07-.57-.22-.94Zm-1.67.34h-4.8c.17-.42.49-1.25.87-2.18.56-1.41,1.21-3.07,1.53-3.9.39.98,1.22,3.11,1.83,4.63l.57,1.44Z"/>
      <path class="cls-10" d="m443.39,305.39c.48.44.43.65.44.96s-.23.47-.53.71c-1.75,1.43-2.78,2.44-2.78,2.44,0,0,.42.05,4.42.05.4,0,.79.33.79.78,0,.48-.22.88-.64.88-2.35,0-4.02-.05-5.97-.05-.79,0-1.34-.19-1.52-.57-.17-.36-.12-.9.55-1.52,1.91-1.72,3.47-2.88,3.47-2.88,0,0-2.17-1.97-3.75-3.56-.33-.33-.43-.62-.31-.85.11-.2.55-.57.92-.57h6.71c.74,0,.77,1.31,0,1.31-3.37,0-5.2.02-5.2.02l3.38,2.85Z"/>
      <path class="cls-10" d="m621.62,301.21c-1.33,0-3.23,1.68-3.23,5,0,2.56,1.22,5,3.23,5s3.27-2.44,3.27-5c0-3.48-1.94-5-3.27-5Zm.01,1.37c.96,0,1.64,1.13,1.7,1.93.02.3,0,.81-.55.81h-2.33c-.46,0-.51-.5-.5-.76.07-.8.81-1.98,1.69-1.98Zm0,7.26c-1.08,0-1.72-1.28-1.79-2.08-.01-.25,0-.76.5-.76h2.53c.56,0,.58.5.55.81-.06.8-.72,2.03-1.8,2.03Z"/>
    </g>
    <g>
      <path class="cls-10" d="m716.86,561.21h-3.54c-.32,0-.53-.32-.41-.62,2.67-6.29.99-7.71-1.08-7.85-.04,0-.08,0-.12,0h-.02s-.09,0-.13,0c-.04,0-.08,0-.12,0-2.07.14-3.75,1.56-1.08,7.85.12.29-.09.62-.41.62h-3.54c-.14,0-.66-1.27.12-1.73.69-.41.99.09,1.81.11-2.24-4.96.04-7.96,2.78-8.36.08-.02.94-.02,1.02,0,2.74.41,5.02,3.4,2.78,8.36.82-.02,1.12-.51,1.81-.11.78.46.26,1.73.12,1.73Z"/>
      <path class="cls-10" d="m535.72,559.34c-.93-2.27-1.86-4.39-2.21-5.2-.38-.84-.67-1.52-.74-1.72-.32-.87-.6-1.18-1.12-1.22-.5.04-.79.34-1.11,1.22-.07.2-.36.87-.73,1.72-.73,1.66-1.56,3.6-2.22,5.2-.28.71-.29,1.21-.03,1.52.19.23.49.34.9.34h6.43c.41,0,.71-.12.9-.34.12-.15.18-.34.18-.58,0-.26-.07-.57-.22-.94Zm-1.67.34h-4.8c.17-.42.49-1.25.87-2.18.56-1.41,1.21-3.07,1.53-3.9.39.98,1.22,3.11,1.83,4.63l.57,1.44Z"/>
      <path class="cls-10" d="m443.39,555.39c.48.44.43.65.44.96s-.23.47-.53.71c-1.75,1.43-2.78,2.44-2.78,2.44,0,0,.42.05,4.42.05.4,0,.79.33.79.78,0,.48-.22.88-.64.88-2.35,0-4.02-.05-5.97-.05-.79,0-1.34-.19-1.52-.57-.17-.36-.12-.9.55-1.52,1.91-1.72,3.47-2.88,3.47-2.88,0,0-2.17-1.97-3.75-3.56-.33-.33-.43-.62-.31-.85.11-.2.55-.57.92-.57h6.71c.74,0,.77,1.31,0,1.31-3.37,0-5.2.02-5.2.02l3.38,2.85Z"/>
      <path class="cls-10" d="m621.62,551.21c-1.33,0-3.23,1.68-3.23,5,0,2.56,1.22,5,3.23,5s3.27-2.44,3.27-5c0-3.48-1.94-5-3.27-5Zm.01,1.37c.96,0,1.64,1.13,1.7,1.93.02.3,0,.81-.55.81h-2.33c-.46,0-.51-.5-.5-.76.07-.8.81-1.98,1.69-1.98Zm0,7.26c-1.08,0-1.72-1.28-1.79-2.08-.01-.25,0-.76.5-.76h2.53c.56,0,.58.5.55.81-.06.8-.72,2.03-1.8,2.03Z"/>
    </g>
    <rect class="cls-10" x="448.17" y="205.26" width="6.95" height="1.9" rx=".95" ry=".95"/>
    <rect class="cls-10" x="536.59" y="205.26" width="6.95" height="1.9" rx=".95" ry=".95"/>
    <rect class="cls-10" x="626.59" y="205.26" width="6.95" height="1.9" rx=".95" ry=".95"/>
    <rect class="cls-10" x="626.59" y="305.26" width="6.95" height="1.9" rx=".95" ry=".95"/>
    <rect class="cls-10" x="626.59" y="555.26" width="6.95" height="1.9" rx=".95" ry=".95"/>
    <rect class="cls-10" x="717.93" y="205.26" width="6.95" height="1.9" rx=".95" ry=".95"/>
    <rect class="cls-10" x="447.39" y="305.26" width="6.95" height="1.9" rx=".95" ry=".95"/>
    <rect class="cls-10" x="536.59" y="305.26" width="6.95" height="1.9" rx=".95" ry=".95"/>
    <rect class="cls-10" x="717.93" y="305.26" width="6.95" height="1.9" rx=".95" ry=".95"/>
    <g>
      <rect class="cls-10" x="448.65" y="455.26" width="6.95" height="1.9" rx=".95" ry=".95"/>
      <rect class="cls-10" x="536.59" y="455.26" width="6.95" height="1.9" rx=".95" ry=".95"/>
      <rect class="cls-10" x="626.59" y="455.26" width="6.95" height="1.9" rx=".95" ry=".95"/>
      <rect class="cls-10" x="717.93" y="455.26" width="6.95" height="1.9" rx=".95" ry=".95"/>
      <rect class="cls-10" x="448.65" y="555.26" width="6.95" height="1.9" rx=".95" ry=".95"/>
      <rect class="cls-10" x="536.59" y="555.26" width="6.95" height="1.9" rx=".95" ry=".95"/>
      <rect class="cls-10" x="717.93" y="555.26" width="6.95" height="1.9" rx=".95" ry=".95"/>
    </g>
    <path class="cls-10" d="m86.8,201.22c-.46-.06-.96.28-1.19,1.14-.42,1.54-.92,3.7-1.44,5.63-1.11-2.72-1.86-4.39-2.5-4.38-.01,0-.02,0-.03.01-.01-.01-.02-.01-.03-.01-.64-.01-1.39,1.65-2.5,4.38-.51-1.93-1.02-4.09-1.44-5.63-.24-.86-.73-1.2-1.19-1.14-.59.07-.98.49-.74,1.25.25.81,1.84,6.07,2.3,7.72.47,1.65,1.59.9,1.8.49.21-.41,1.36-3.67,1.8-4.59.44.92,1.59,4.18,1.8,4.59.21.41,1.33,1.16,1.8-.49.46-1.64,2.05-6.9,2.3-7.72.24-.76-.15-1.18-.74-1.25Z"/>
    <path class="cls-10" d="m264.98,202.45l-4.37,8.3c-.15.29-.45.46-.75.46-.13,0-.26-.04-.39-.1-.2-.11-.35-.28-.42-.5-.07-.21-.05-.45.06-.65l1.88-3.58-2.53-3.62c-.12-.11-.2-.27-.24-.47-.05-.25.03-.53.2-.71.15-.17.35-.27.58-.28.22,0,.45.07.61.21l2.2,3.29,1.65-3.14c.12-.2.29-.35.51-.42.22-.07.45-.04.65.07.22.12.38.33.43.59.03.19,0,.38-.08.55Z"/>
    <path class="cls-10" d="m175.54,209.72c.16.19.21.44.19.68-.03.24-.16.46-.34.61-.4.3-.98.23-1.3-.17l-2.45-3.14-2.45,3.14c-.18.23-.45.36-.72.36-.19,0-.4-.07-.57-.19-.19-.15-.32-.37-.35-.61-.03-.24.03-.49.19-.68l2.73-3.51-2.73-3.51c-.13-.17-.19-.36-.19-.57,0-.28.14-.56.36-.73.19-.15.42-.21.67-.19.24.03.47.16.61.35l2.45,3.14,2.44-3.14c.33-.41.91-.48,1.31-.16.22.17.35.43.35.72,0,.2-.07.4-.19.57l-2.73,3.51,2.73,3.51Z"/>
    <path class="cls-10" d="m352.61,202.94h-3.64c-1.34,0-1.31-1.73,0-1.73,5.4,0,5.35.02,5.67.38.23.27.43.73.15,1.14-1.71,2.48-4.54,6.52-4.54,6.52,0,0,3.43,0,4.33,0,1.35,0,1.4,1.91.13,1.91-8.37,0-9.53,1.13-2.09-8.23Z"/>
    <g>
      <path class="cls-10" d="m356.86,311.21h-3.54c-.32,0-.53-.32-.41-.62,2.67-6.29.99-7.71-1.08-7.85-.04,0-.08,0-.12,0h-.02s-.09,0-.13,0c-.04,0-.08,0-.12,0-2.07.14-3.75,1.56-1.08,7.85.12.29-.09.62-.41.62h-3.54c-.14,0-.66-1.27.12-1.73.69-.41.99.09,1.81.11-2.24-4.96.04-7.96,2.78-8.36.08-.02.94-.02,1.02,0,2.74.41,5.02,3.4,2.78,8.36.82-.02,1.12-.51,1.81-.11.78.46.26,1.73.12,1.73Z"/>
      <path class="cls-10" d="m175.72,309.34c-.93-2.27-1.86-4.39-2.21-5.2-.38-.84-.67-1.52-.74-1.72-.32-.87-.6-1.18-1.12-1.22-.5.04-.79.34-1.11,1.22-.07.2-.36.87-.73,1.72-.73,1.66-1.56,3.6-2.22,5.2-.28.71-.29,1.21-.03,1.52.19.23.49.34.9.34h6.43c.41,0,.71-.12.9-.34.12-.15.18-.34.18-.58,0-.26-.07-.57-.22-.94Zm-1.67.34h-4.8c.17-.42.49-1.25.87-2.18.56-1.41,1.21-3.07,1.53-3.9.39.98,1.22,3.11,1.83,4.63l.57,1.44Z"/>
      <path class="cls-10" d="m83.39,305.39c.48.44.43.65.44.96s-.23.47-.53.71c-1.75,1.43-2.78,2.44-2.78,2.44,0,0,.42.05,4.42.05.4,0,.79.33.79.78,0,.48-.22.88-.64.88-2.35,0-4.02-.05-5.97-.05-.79,0-1.34-.19-1.52-.57-.17-.36-.12-.9.55-1.52,1.91-1.72,3.47-2.88,3.47-2.88,0,0-2.17-1.97-3.75-3.56-.33-.33-.43-.62-.31-.85.11-.2.55-.57.92-.57h6.71c.74,0,.77,1.31,0,1.31-3.37,0-5.2.02-5.2.02l3.38,2.85Z"/>
      <path class="cls-10" d="m261.62,301.21c-1.33,0-3.23,1.68-3.23,5,0,2.56,1.22,5,3.23,5s3.27-2.44,3.27-5c0-3.48-1.94-5-3.27-5Zm.01,1.37c.96,0,1.64,1.13,1.7,1.93.02.3,0,.81-.55.81h-2.33c-.46,0-.51-.5-.5-.76.07-.8.81-1.98,1.69-1.98Zm0,7.26c-1.08,0-1.72-1.28-1.79-2.08-.01-.25,0-.76.5-.76h2.53c.56,0,.58.5.55.81-.06.8-.72,2.03-1.8,2.03Z"/>
    </g>
    <path class="cls-10" d="m86.8,451.22c-.46-.06-.96.28-1.19,1.14-.42,1.54-.92,3.7-1.44,5.63-1.11-2.72-1.86-4.39-2.5-4.38-.01,0-.02,0-.03.01-.01-.01-.02-.01-.03-.01-.64-.01-1.39,1.65-2.5,4.38-.51-1.93-1.02-4.09-1.44-5.63-.24-.86-.73-1.2-1.19-1.14-.59.07-.98.49-.74,1.25.25.81,1.84,6.07,2.3,7.72.47,1.65,1.59.9,1.8.49.21-.41,1.36-3.67,1.8-4.59.44.92,1.59,4.18,1.8,4.59.21.41,1.33,1.16,1.8-.49.46-1.64,2.05-6.9,2.3-7.72.24-.76-.15-1.18-.74-1.25Z"/>
    <path class="cls-10" d="m264.98,452.45l-4.37,8.3c-.15.29-.45.46-.75.46-.13,0-.26-.04-.39-.1-.2-.11-.35-.28-.42-.5-.07-.21-.05-.45.06-.65l1.88-3.58-2.53-3.62c-.12-.11-.2-.27-.24-.47-.05-.25.03-.53.2-.71.15-.17.35-.27.58-.28.22,0,.45.07.61.21l2.2,3.29,1.65-3.14c.12-.2.29-.35.51-.42.22-.07.45-.04.65.07.22.12.38.33.43.59.03.19,0,.38-.08.55Z"/>
    <path class="cls-10" d="m175.54,459.72c.16.19.21.44.19.68-.03.24-.16.46-.34.61-.4.3-.98.23-1.3-.17l-2.45-3.14-2.45,3.14c-.18.23-.45.36-.72.36-.19,0-.4-.07-.57-.19-.19-.15-.32-.37-.35-.61-.03-.24.03-.49.19-.68l2.73-3.51-2.73-3.51c-.13-.17-.19-.36-.19-.57,0-.28.14-.56.36-.73.19-.15.42-.21.67-.19.24.03.47.16.61.35l2.45,3.14,2.44-3.14c.33-.41.91-.48,1.31-.16.22.17.35.43.35.72,0,.2-.07.4-.19.57l-2.73,3.51,2.73,3.51Z"/>
    <path class="cls-10" d="m352.61,452.94h-3.64c-1.34,0-1.31-1.73,0-1.73,5.4,0,5.35.02,5.67.38.23.27.43.73.15,1.14-1.71,2.48-4.54,6.52-4.54,6.52,0,0,3.43,0,4.33,0,1.35,0,1.4,1.91.13,1.91-8.37,0-9.53,1.13-2.09-8.23Z"/>
    <g>
      <path class="cls-10" d="m356.86,561.21h-3.54c-.32,0-.53-.32-.41-.62,2.67-6.29.99-7.71-1.08-7.85-.04,0-.08,0-.12,0h-.02s-.09,0-.13,0c-.04,0-.08,0-.12,0-2.07.14-3.75,1.56-1.08,7.85.12.29-.09.62-.41.62h-3.54c-.14,0-.66-1.27.12-1.73.69-.41.99.09,1.81.11-2.24-4.96.04-7.96,2.78-8.36.08-.02.94-.02,1.02,0,2.74.41,5.02,3.4,2.78,8.36.82-.02,1.12-.51,1.81-.11.78.46.26,1.73.12,1.73Z"/>
      <path class="cls-10" d="m175.72,559.34c-.93-2.27-1.86-4.39-2.21-5.2-.38-.84-.67-1.52-.74-1.72-.32-.87-.6-1.18-1.12-1.22-.5.04-.79.34-1.11,1.22-.07.2-.36.87-.73,1.72-.73,1.66-1.56,3.6-2.22,5.2-.28.71-.29,1.21-.03,1.52.19.23.49.34.9.34h6.43c.41,0,.71-.12.9-.34.12-.15.18-.34.18-.58,0-.26-.07-.57-.22-.94Zm-1.67.34h-4.8c.17-.42.49-1.25.87-2.18.56-1.41,1.21-3.07,1.53-3.9.39.98,1.22,3.11,1.83,4.63l.57,1.44Z"/>
      <path class="cls-10" d="m83.39,555.39c.48.44.43.65.44.96s-.23.47-.53.71c-1.75,1.43-2.78,2.44-2.78,2.44,0,0,.42.05,4.42.05.4,0,.79.33.79.78,0,.48-.22.88-.64.88-2.35,0-4.02-.05-5.97-.05-.79,0-1.34-.19-1.52-.57-.17-.36-.12-.9.55-1.52,1.91-1.72,3.47-2.88,3.47-2.88,0,0-2.17-1.97-3.75-3.56-.33-.33-.43-.62-.31-.85.11-.2.55-.57.92-.57h6.71c.74,0,.77,1.31,0,1.31-3.37,0-5.2.02-5.2.02l3.38,2.85Z"/>
      <path class="cls-10" d="m261.62,551.21c-1.33,0-3.23,1.68-3.23,5,0,2.56,1.22,5,3.23,5s3.27-2.44,3.27-5c0-3.48-1.94-5-3.27-5Zm.01,1.37c.96,0,1.64,1.13,1.7,1.93.02.3,0,.81-.55.81h-2.33c-.46,0-.51-.5-.5-.76.07-.8.81-1.98,1.69-1.98Zm0,7.26c-1.08,0-1.72-1.28-1.79-2.08-.01-.25,0-.76.5-.76h2.53c.56,0,.58.5.55.81-.06.8-.72,2.03-1.8,2.03Z"/>
    </g>
    <g>
      <g>
        <path d="m92.9,211.36v.85h-3v-.85h.98v-2.4h-.98v-.88l.33-.03c.23-.02.37-.03.71-.12s.58-.22.58-.22h.4v3.65h.98Z"/>
        <path d="m92.88,204.65l-.03.05h-2.95v-.16c.01-.05.01-.09.02-.11.01-.08.02-.14.05-.21.07-.24.18-.46.32-.66.08-.12.19-.24.28-.34.16-.17.32-.34.49-.5l.04-.04c.15-.14.28-.27.42-.41.02-.03.06-.06.09-.11.03-.03.06-.06.08-.11.09-.12.15-.23.17-.33v-.02c.01-.06.02-.11.02-.17,0,0,0-.02-.01-.04,0-.04,0-.06-.01-.11-.05-.13-.13-.21-.26-.25-.08-.03-.22-.03-.35.01-.1.04-.18.11-.22.21-.02.05-.03.12-.04.17s-.02.1-.02.13v.12h-.11c-.14-.02-.27-.03-.4-.04-.14-.01-.26-.03-.39-.04h-.09v-.14c.01-.11.02-.21.06-.31.03-.15.07-.27.14-.38.08-.16.21-.29.4-.41.13-.09.27-.15.45-.19.07-.02.15-.03.24-.04.11-.01.22-.01.33,0,.1,0,.23.02.33.04.19.05.34.13.48.24.17.13.29.29.39.5.04.09.07.18.08.31.01.1.02.18.01.27,0,.21-.05.44-.16.64-.07.15-.17.29-.24.4-.09.11-.18.2-.26.29-.11.13-.24.25-.37.35-.11.12-.24.23-.35.35-.04.04-.07.08-.1.12h1.48v.11c.01.77,0,.78-.01.81Z"/>
      </g>
      <g>
        <path d="m182.9,211.36v.85h-3v-.85h.98v-2.4h-.98v-.88l.33-.03c.23-.02.37-.03.71-.12s.58-.22.58-.22h.4v3.65h.98Z"/>
        <path d="m182.88,204.65l-.03.05h-2.95v-.16c.01-.05.01-.09.02-.11.01-.08.02-.14.05-.21.07-.24.18-.46.32-.66.08-.12.19-.24.28-.34.16-.17.32-.34.49-.5l.04-.04c.15-.14.28-.27.42-.41.02-.03.06-.06.09-.11.03-.03.06-.06.08-.11.09-.12.15-.23.17-.33v-.02c.01-.06.02-.11.02-.17,0,0,0-.02-.01-.04,0-.04,0-.06-.01-.11-.05-.13-.13-.21-.26-.25-.08-.03-.22-.03-.35.01-.1.04-.18.11-.22.21-.02.05-.03.12-.04.17s-.02.1-.02.13v.12h-.11c-.14-.02-.27-.03-.4-.04-.14-.01-.26-.03-.39-.04h-.09v-.14c.01-.11.02-.21.06-.31.03-.15.07-.27.14-.38.08-.16.21-.29.4-.41.13-.09.27-.15.45-.19.07-.02.15-.03.24-.04.11-.01.22-.01.33,0,.1,0,.23.02.33.04.19.05.34.13.48.24.17.13.29.29.39.5.04.09.07.18.08.31.01.1.02.18.01.27,0,.21-.05.44-.16.64-.07.15-.17.29-.24.4-.09.11-.18.2-.26.29-.11.13-.24.25-.37.35-.11.12-.24.23-.35.35-.04.04-.07.08-.1.12h1.48v.11c.01.77,0,.78-.01.81Z"/>
      </g>
      <g>
        <path d="m272.9,211.36v.85h-3v-.85h.98v-2.4h-.98v-.88l.33-.03c.23-.02.37-.03.71-.12s.58-.22.58-.22h.4v3.65h.98Z"/>
        <path d="m272.88,204.65l-.03.05h-2.95v-.16c.01-.05.01-.09.02-.11.01-.08.02-.14.05-.21.07-.24.18-.46.32-.66.08-.12.19-.24.28-.34.16-.17.32-.34.49-.5l.04-.04c.15-.14.28-.27.42-.41.02-.03.06-.06.09-.11.03-.03.06-.06.08-.11.09-.12.15-.23.17-.33v-.02c.01-.06.02-.11.02-.17,0,0,0-.02-.01-.04,0-.04,0-.06-.01-.11-.05-.13-.13-.21-.26-.25-.08-.03-.22-.03-.35.01-.1.04-.18.11-.22.21-.02.05-.03.12-.04.17s-.02.1-.02.13v.12h-.11c-.14-.02-.27-.03-.4-.04-.14-.01-.26-.03-.39-.04h-.09v-.14c.01-.11.02-.21.06-.31.03-.15.07-.27.14-.38.08-.16.21-.29.4-.41.13-.09.27-.15.45-.19.07-.02.15-.03.24-.04.11-.01.22-.01.33,0,.1,0,.23.02.33.04.19.05.34.13.48.24.17.13.29.29.39.5.04.09.07.18.08.31.01.1.02.18.01.27,0,.21-.05.44-.16.64-.07.15-.17.29-.24.4-.09.11-.18.2-.26.29-.11.13-.24.25-.37.35-.11.12-.24.23-.35.35-.04.04-.07.08-.1.12h1.48v.11c.01.77,0,.78-.01.81Z"/>
      </g>
      <g>
        <path d="m362.9,211.36v.85h-3v-.85h.98v-2.4h-.98v-.88l.33-.03c.23-.02.37-.03.71-.12s.58-.22.58-.22h.4v3.65h.98Z"/>
        <path d="m362.88,204.65l-.03.05h-2.95v-.16c.01-.05.01-.09.02-.11.01-.08.02-.14.05-.21.07-.24.18-.46.32-.66.08-.12.19-.24.28-.34.16-.17.32-.34.49-.5l.04-.04c.15-.14.28-.27.42-.41.02-.03.06-.06.09-.11.03-.03.06-.06.08-.11.09-.12.15-.23.17-.33v-.02c.01-.06.02-.11.02-.17,0,0,0-.02-.01-.04,0-.04,0-.06-.01-.11-.05-.13-.13-.21-.26-.25-.08-.03-.22-.03-.35.01-.1.04-.18.11-.22.21-.02.05-.03.12-.04.17s-.02.1-.02.13v.12h-.11c-.14-.02-.27-.03-.4-.04-.14-.01-.26-.03-.39-.04h-.09v-.14c.01-.11.02-.21.06-.31.03-.15.07-.27.14-.38.08-.16.21-.29.4-.41.13-.09.27-.15.45-.19.07-.02.15-.03.24-.04.11-.01.22-.01.33,0,.1,0,.23.02.33.04.19.05.34.13.48.24.17.13.29.29.39.5.04.09.07.18.08.31.01.1.02.18.01.27,0,.21-.05.44-.16.64-.07.15-.17.29-.24.4-.09.11-.18.2-.26.29-.11.13-.24.25-.37.35-.11.12-.24.23-.35.35-.04.04-.07.08-.1.12h1.48v.11c.01.77,0,.78-.01.81Z"/>
      </g>
      <g>
        <path d="m458.74,211.36v.85h-3v-.85h.98v-2.4h-.98v-.88l.33-.03c.23-.02.37-.03.71-.12s.58-.22.58-.22h.4v3.65h.98Z"/>
        <path d="m458.72,204.65l-.03.05h-2.95v-.16c.01-.05.01-.09.02-.11.01-.08.02-.14.05-.21.07-.24.18-.46.32-.66.08-.12.19-.24.28-.34.16-.17.32-.34.49-.5l.04-.04c.15-.14.28-.27.42-.41.02-.03.06-.06.09-.11.03-.03.06-.06.08-.11.09-.12.15-.23.17-.33v-.02c.01-.06.02-.11.02-.17,0,0,0-.02-.01-.04,0-.04,0-.06-.01-.11-.05-.13-.13-.21-.26-.25-.08-.03-.22-.03-.35.01-.1.04-.18.11-.22.21-.02.05-.03.12-.04.17s-.02.1-.02.13v.12h-.11c-.14-.02-.27-.03-.4-.04-.14-.01-.26-.03-.39-.04h-.09v-.14c.01-.11.02-.21.06-.31.03-.15.07-.27.14-.38.08-.16.21-.29.4-.41.13-.09.27-.15.45-.19.07-.02.15-.03.24-.04.11-.01.22-.01.33,0,.1,0,.23.02.33.04.19.05.34.13.48.24.17.13.29.29.39.5.04.09.07.18.08.31.01.1.02.18.01.27,0,.21-.05.44-.16.64-.07.15-.17.29-.24.4-.09.11-.18.2-.26.29-.11.13-.24.25-.37.35-.11.12-.24.23-.35.35-.04.04-.07.08-.1.12h1.48v.11c.01.77,0,.78-.01.81Z"/>
      </g>
      <g>
        <path d="m547.93,211.36v.85h-3v-.85h.98v-2.4h-.98v-.88l.33-.03c.23-.02.37-.03.71-.12s.58-.22.58-.22h.4v3.65h.98Z"/>
        <path d="m547.91,204.65l-.03.05h-2.95v-.16c.01-.05.01-.09.02-.11.01-.08.02-.14.05-.21.07-.24.18-.46.32-.66.08-.12.19-.24.28-.34.16-.17.32-.34.49-.5l.04-.04c.15-.14.28-.27.42-.41.02-.03.06-.06.09-.11.03-.03.06-.06.08-.11.09-.12.15-.23.17-.33v-.02c.01-.06.02-.11.02-.17,0,0,0-.02-.01-.04,0-.04,0-.06-.01-.11-.05-.13-.13-.21-.26-.25-.08-.03-.22-.03-.35.01-.1.04-.18.11-.22.21-.02.05-.03.12-.04.17s-.02.1-.02.13v.12h-.11c-.14-.02-.27-.03-.4-.04-.14-.01-.26-.03-.39-.04h-.09v-.14c.01-.11.02-.21.06-.31.03-.15.07-.27.14-.38.08-.16.21-.29.4-.41.13-.09.27-.15.45-.19.07-.02.15-.03.24-.04.11-.01.22-.01.33,0,.1,0,.23.02.33.04.19.05.34.13.48.24.17.13.29.29.39.5.04.09.07.18.08.31.01.1.02.18.01.27,0,.21-.05.44-.16.64-.07.15-.17.29-.24.4-.09.11-.18.2-.26.29-.11.13-.24.25-.37.35-.11.12-.24.23-.35.35-.04.04-.07.08-.1.12h1.48v.11c.01.77,0,.78-.01.81Z"/>
      </g>
      <g>
        <path d="m638.36,211.36v.85h-3v-.85h.98v-2.4h-.98v-.88l.33-.03c.23-.02.37-.03.71-.12s.58-.22.58-.22h.4v3.65h.98Z"/>
        <path d="m638.35,204.65l-.03.05h-2.95v-.16c.01-.05.01-.09.02-.11.01-.08.02-.14.05-.21.07-.24.18-.46.32-.66.08-.12.19-.24.28-.34.16-.17.32-.34.49-.5l.04-.04c.15-.14.28-.27.42-.41.02-.03.06-.06.09-.11.03-.03.06-.06.08-.11.09-.12.15-.23.17-.33v-.02c.01-.06.02-.11.02-.17,0,0,0-.02-.01-.04,0-.04,0-.06-.01-.11-.05-.13-.13-.21-.26-.25-.08-.03-.22-.03-.35.01-.1.04-.18.11-.22.21-.02.05-.03.12-.04.17s-.02.1-.02.13v.12h-.11c-.14-.02-.27-.03-.4-.04-.14-.01-.26-.03-.39-.04h-.09v-.14c.01-.11.02-.21.06-.31.03-.15.07-.27.14-.38.08-.16.21-.29.4-.41.13-.09.27-.15.45-.19.07-.02.15-.03.24-.04.11-.01.22-.01.33,0,.1,0,.23.02.33.04.19.05.34.13.48.24.17.13.29.29.39.5.04.09.07.18.08.31.01.1.02.18.01.27,0,.21-.05.44-.16.64-.07.15-.17.29-.24.4-.09.11-.18.2-.26.29-.11.13-.24.25-.37.35-.11.12-.24.23-.35.35-.04.04-.07.08-.1.12h1.48v.11c.01.77,0,.78-.01.81Z"/>
      </g>
      <g>
        <path d="m728.74,211.36v.85h-3v-.85h.98v-2.4h-.98v-.88l.33-.03c.23-.02.37-.03.71-.12s.58-.22.58-.22h.4v3.65h.98Z"/>
        <path d="m728.72,204.65l-.03.05h-2.95v-.16c.01-.05.01-.09.02-.11.01-.08.02-.14.05-.21.07-.24.18-.46.32-.66.08-.12.19-.24.28-.34.16-.17.32-.34.49-.5l.04-.04c.15-.14.28-.27.42-.41.02-.03.06-.06.09-.11.03-.03.06-.06.08-.11.09-.12.15-.23.17-.33v-.02c.01-.06.02-.11.02-.17,0,0,0-.02-.01-.04,0-.04,0-.06-.01-.11-.05-.13-.13-.21-.26-.25-.08-.03-.22-.03-.35.01-.1.04-.18.11-.22.21-.02.05-.03.12-.04.17s-.02.1-.02.13v.12h-.11c-.14-.02-.27-.03-.4-.04-.14-.01-.26-.03-.39-.04h-.09v-.14c.01-.11.02-.21.06-.31.03-.15.07-.27.14-.38.08-.16.21-.29.4-.41.13-.09.27-.15.45-.19.07-.02.15-.03.24-.04.11-.01.22-.01.33,0,.1,0,.23.02.33.04.19.05.34.13.48.24.17.13.29.29.39.5.04.09.07.18.08.31.01.1.02.18.01.27,0,.21-.05.44-.16.64-.07.15-.17.29-.24.4-.09.11-.18.2-.26.29-.11.13-.24.25-.37.35-.11.12-.24.23-.35.35-.04.04-.07.08-.1.12h1.48v.11c.01.77,0,.78-.01.81Z"/>
      </g>
      <g>
        <path d="m92.9,311.36v.85h-3v-.85h.98v-2.4h-.98v-.88l.33-.03c.23-.02.37-.03.71-.12s.58-.22.58-.22h.4v3.65h.98Z"/>
        <path d="m92.88,304.65l-.03.05h-2.95v-.16c.01-.05.01-.09.02-.11.01-.08.02-.14.05-.21.07-.24.18-.46.32-.66.08-.12.19-.24.28-.34.16-.17.32-.34.49-.5l.04-.04c.15-.14.28-.27.42-.41.02-.03.06-.06.09-.11.03-.03.06-.06.08-.11.09-.12.15-.23.17-.33v-.02c.01-.06.02-.11.02-.17,0,0,0-.02-.01-.04,0-.04,0-.06-.01-.11-.05-.13-.13-.21-.26-.25-.08-.03-.22-.03-.35.01-.1.04-.18.11-.22.21-.02.05-.03.12-.04.17s-.02.1-.02.13v.12h-.11c-.14-.02-.27-.03-.4-.04-.14-.01-.26-.03-.39-.04h-.09v-.14c.01-.11.02-.21.06-.31.03-.15.07-.27.14-.38.08-.16.21-.29.4-.41.13-.09.27-.15.45-.19.07-.02.15-.03.24-.04.11-.01.22-.01.33,0,.1,0,.23.02.33.04.19.05.34.13.48.24.17.13.29.29.39.5.04.09.07.18.08.31.01.1.02.18.01.27,0,.21-.05.44-.16.64-.07.15-.17.29-.24.4-.09.11-.18.2-.26.29-.11.13-.24.25-.37.35-.11.12-.24.23-.35.35-.04.04-.07.08-.1.12h1.48v.11c.01.77,0,.78-.01.81Z"/>
      </g>
      <g>
        <path d="m182.9,311.36v.85h-3v-.85h.98v-2.4h-.98v-.88l.33-.03c.23-.02.37-.03.71-.12s.58-.22.58-.22h.4v3.65h.98Z"/>
        <path d="m182.88,304.65l-.03.05h-2.95v-.16c.01-.05.01-.09.02-.11.01-.08.02-.14.05-.21.07-.24.18-.46.32-.66.08-.12.19-.24.28-.34.16-.17.32-.34.49-.5l.04-.04c.15-.14.28-.27.42-.41.02-.03.06-.06.09-.11.03-.03.06-.06.08-.11.09-.12.15-.23.17-.33v-.02c.01-.06.02-.11.02-.17,0,0,0-.02-.01-.04,0-.04,0-.06-.01-.11-.05-.13-.13-.21-.26-.25-.08-.03-.22-.03-.35.01-.1.04-.18.11-.22.21-.02.05-.03.12-.04.17s-.02.1-.02.13v.12h-.11c-.14-.02-.27-.03-.4-.04-.14-.01-.26-.03-.39-.04h-.09v-.14c.01-.11.02-.21.06-.31.03-.15.07-.27.14-.38.08-.16.21-.29.4-.41.13-.09.27-.15.45-.19.07-.02.15-.03.24-.04.11-.01.22-.01.33,0,.1,0,.23.02.33.04.19.05.34.13.48.24.17.13.29.29.39.5.04.09.07.18.08.31.01.1.02.18.01.27,0,.21-.05.44-.16.64-.07.15-.17.29-.24.4-.09.11-.18.2-.26.29-.11.13-.24.25-.37.35-.11.12-.24.23-.35.35-.04.04-.07.08-.1.12h1.48v.11c.01.77,0,.78-.01.81Z"/>
      </g>
      <g>
        <path d="m272.9,311.36v.85h-3v-.85h.98v-2.4h-.98v-.88l.33-.03c.23-.02.37-.03.71-.12s.58-.22.58-.22h.4v3.65h.98Z"/>
        <path d="m272.88,304.65l-.03.05h-2.95v-.16c.01-.05.01-.09.02-.11.01-.08.02-.14.05-.21.07-.24.18-.46.32-.66.08-.12.19-.24.28-.34.16-.17.32-.34.49-.5l.04-.04c.15-.14.28-.27.42-.41.02-.03.06-.06.09-.11.03-.03.06-.06.08-.11.09-.12.15-.23.17-.33v-.02c.01-.06.02-.11.02-.17,0,0,0-.02-.01-.04,0-.04,0-.06-.01-.11-.05-.13-.13-.21-.26-.25-.08-.03-.22-.03-.35.01-.1.04-.18.11-.22.21-.02.05-.03.12-.04.17s-.02.1-.02.13v.12h-.11c-.14-.02-.27-.03-.4-.04-.14-.01-.26-.03-.39-.04h-.09v-.14c.01-.11.02-.21.06-.31.03-.15.07-.27.14-.38.08-.16.21-.29.4-.41.13-.09.27-.15.45-.19.07-.02.15-.03.24-.04.11-.01.22-.01.33,0,.1,0,.23.02.33.04.19.05.34.13.48.24.17.13.29.29.39.5.04.09.07.18.08.31.01.1.02.18.01.27,0,.21-.05.44-.16.64-.07.15-.17.29-.24.4-.09.11-.18.2-.26.29-.11.13-.24.25-.37.35-.11.12-.24.23-.35.35-.04.04-.07.08-.1.12h1.48v.11c.01.77,0,.78-.01.81Z"/>
      </g>
      <g>
        <path d="m362.9,311.36v.85h-3v-.85h.98v-2.4h-.98v-.88l.33-.03c.23-.02.37-.03.71-.12s.58-.22.58-.22h.4v3.65h.98Z"/>
        <path d="m362.88,304.65l-.03.05h-2.95v-.16c.01-.05.01-.09.02-.11.01-.08.02-.14.05-.21.07-.24.18-.46.32-.66.08-.12.19-.24.28-.34.16-.17.32-.34.49-.5l.04-.04c.15-.14.28-.27.42-.41.02-.03.06-.06.09-.11.03-.03.06-.06.08-.11.09-.12.15-.23.17-.33v-.02c.01-.06.02-.11.02-.17,0,0,0-.02-.01-.04,0-.04,0-.06-.01-.11-.05-.13-.13-.21-.26-.25-.08-.03-.22-.03-.35.01-.1.04-.18.11-.22.21-.02.05-.03.12-.04.17s-.02.1-.02.13v.12h-.11c-.14-.02-.27-.03-.4-.04-.14-.01-.26-.03-.39-.04h-.09v-.14c.01-.11.02-.21.06-.31.03-.15.07-.27.14-.38.08-.16.21-.29.4-.41.13-.09.27-.15.45-.19.07-.02.15-.03.24-.04.11-.01.22-.01.33,0,.1,0,.23.02.33.04.19.05.34.13.48.24.17.13.29.29.39.5.04.09.07.18.08.31.01.1.02.18.01.27,0,.21-.05.44-.16.64-.07.15-.17.29-.24.4-.09.11-.18.2-.26.29-.11.13-.24.25-.37.35-.11.12-.24.23-.35.35-.04.04-.07.08-.1.12h1.48v.11c.01.77,0,.78-.01.81Z"/>
      </g>
      <g>
        <path d="m458.74,311.36v.85h-3v-.85h.98v-2.4h-.98v-.88l.33-.03c.23-.02.37-.03.71-.12s.58-.22.58-.22h.4v3.65h.98Z"/>
        <path d="m458.72,304.65l-.03.05h-2.95v-.16c.01-.05.01-.09.02-.11.01-.08.02-.14.05-.21.07-.24.18-.46.32-.66.08-.12.19-.24.28-.34.16-.17.32-.34.49-.5l.04-.04c.15-.14.28-.27.42-.41.02-.03.06-.06.09-.11.03-.03.06-.06.08-.11.09-.12.15-.23.17-.33v-.02c.01-.06.02-.11.02-.17,0,0,0-.02-.01-.04,0-.04,0-.06-.01-.11-.05-.13-.13-.21-.26-.25-.08-.03-.22-.03-.35.01-.1.04-.18.11-.22.21-.02.05-.03.12-.04.17s-.02.1-.02.13v.12h-.11c-.14-.02-.27-.03-.4-.04-.14-.01-.26-.03-.39-.04h-.09v-.14c.01-.11.02-.21.06-.31.03-.15.07-.27.14-.38.08-.16.21-.29.4-.41.13-.09.27-.15.45-.19.07-.02.15-.03.24-.04.11-.01.22-.01.33,0,.1,0,.23.02.33.04.19.05.34.13.48.24.17.13.29.29.39.5.04.09.07.18.08.31.01.1.02.18.01.27,0,.21-.05.44-.16.64-.07.15-.17.29-.24.4-.09.11-.18.2-.26.29-.11.13-.24.25-.37.35-.11.12-.24.23-.35.35-.04.04-.07.08-.1.12h1.48v.11c.01.77,0,.78-.01.81Z"/>
      </g>
      <g>
        <path d="m547.93,311.36v.85h-3v-.85h.98v-2.4h-.98v-.88l.33-.03c.23-.02.37-.03.71-.12s.58-.22.58-.22h.4v3.65h.98Z"/>
        <path d="m547.91,304.65l-.03.05h-2.95v-.16c.01-.05.01-.09.02-.11.01-.08.02-.14.05-.21.07-.24.18-.46.32-.66.08-.12.19-.24.28-.34.16-.17.32-.34.49-.5l.04-.04c.15-.14.28-.27.42-.41.02-.03.06-.06.09-.11.03-.03.06-.06.08-.11.09-.12.15-.23.17-.33v-.02c.01-.06.02-.11.02-.17,0,0,0-.02-.01-.04,0-.04,0-.06-.01-.11-.05-.13-.13-.21-.26-.25-.08-.03-.22-.03-.35.01-.1.04-.18.11-.22.21-.02.05-.03.12-.04.17s-.02.1-.02.13v.12h-.11c-.14-.02-.27-.03-.4-.04-.14-.01-.26-.03-.39-.04h-.09v-.14c.01-.11.02-.21.06-.31.03-.15.07-.27.14-.38.08-.16.21-.29.4-.41.13-.09.27-.15.45-.19.07-.02.15-.03.24-.04.11-.01.22-.01.33,0,.1,0,.23.02.33.04.19.05.34.13.48.24.17.13.29.29.39.5.04.09.07.18.08.31.01.1.02.18.01.27,0,.21-.05.44-.16.64-.07.15-.17.29-.24.4-.09.11-.18.2-.26.29-.11.13-.24.25-.37.35-.11.12-.24.23-.35.35-.04.04-.07.08-.1.12h1.48v.11c.01.77,0,.78-.01.81Z"/>
      </g>
      <g>
        <path d="m638.36,311.36v.85h-3v-.85h.98v-2.4h-.98v-.88l.33-.03c.23-.02.37-.03.71-.12s.58-.22.58-.22h.4v3.65h.98Z"/>
        <path d="m638.35,304.65l-.03.05h-2.95v-.16c.01-.05.01-.09.02-.11.01-.08.02-.14.05-.21.07-.24.18-.46.32-.66.08-.12.19-.24.28-.34.16-.17.32-.34.49-.5l.04-.04c.15-.14.28-.27.42-.41.02-.03.06-.06.09-.11.03-.03.06-.06.08-.11.09-.12.15-.23.17-.33v-.02c.01-.06.02-.11.02-.17,0,0,0-.02-.01-.04,0-.04,0-.06-.01-.11-.05-.13-.13-.21-.26-.25-.08-.03-.22-.03-.35.01-.1.04-.18.11-.22.21-.02.05-.03.12-.04.17s-.02.1-.02.13v.12h-.11c-.14-.02-.27-.03-.4-.04-.14-.01-.26-.03-.39-.04h-.09v-.14c.01-.11.02-.21.06-.31.03-.15.07-.27.14-.38.08-.16.21-.29.4-.41.13-.09.27-.15.45-.19.07-.02.15-.03.24-.04.11-.01.22-.01.33,0,.1,0,.23.02.33.04.19.05.34.13.48.24.17.13.29.29.39.5.04.09.07.18.08.31.01.1.02.18.01.27,0,.21-.05.44-.16.64-.07.15-.17.29-.24.4-.09.11-.18.2-.26.29-.11.13-.24.25-.37.35-.11.12-.24.23-.35.35-.04.04-.07.08-.1.12h1.48v.11c.01.77,0,.78-.01.81Z"/>
      </g>
      <g>
        <path d="m728.74,311.36v.85h-3v-.85h.98v-2.4h-.98v-.88l.33-.03c.23-.02.37-.03.71-.12s.58-.22.58-.22h.4v3.65h.98Z"/>
        <path d="m728.72,304.65l-.03.05h-2.95v-.16c.01-.05.01-.09.02-.11.01-.08.02-.14.05-.21.07-.24.18-.46.32-.66.08-.12.19-.24.28-.34.16-.17.32-.34.49-.5l.04-.04c.15-.14.28-.27.42-.41.02-.03.06-.06.09-.11.03-.03.06-.06.08-.11.09-.12.15-.23.17-.33v-.02c.01-.06.02-.11.02-.17,0,0,0-.02-.01-.04,0-.04,0-.06-.01-.11-.05-.13-.13-.21-.26-.25-.08-.03-.22-.03-.35.01-.1.04-.18.11-.22.21-.02.05-.03.12-.04.17s-.02.1-.02.13v.12h-.11c-.14-.02-.27-.03-.4-.04-.14-.01-.26-.03-.39-.04h-.09v-.14c.01-.11.02-.21.06-.31.03-.15.07-.27.14-.38.08-.16.21-.29.4-.41.13-.09.27-.15.45-.19.07-.02.15-.03.24-.04.11-.01.22-.01.33,0,.1,0,.23.02.33.04.19.05.34.13.48.24.17.13.29.29.39.5.04.09.07.18.08.31.01.1.02.18.01.27,0,.21-.05.44-.16.64-.07.15-.17.29-.24.4-.09.11-.18.2-.26.29-.11.13-.24.25-.37.35-.11.12-.24.23-.35.35-.04.04-.07.08-.1.12h1.48v.11c.01.77,0,.78-.01.81Z"/>
      </g>
      <g>
        <path d="m92.9,461.36v.85h-3v-.85h.98v-2.4h-.98v-.88l.33-.03c.23-.02.37-.03.71-.12s.58-.22.58-.22h.4v3.65h.98Z"/>
        <path d="m92.88,454.65l-.03.05h-2.95v-.16c.01-.05.01-.09.02-.11.01-.08.02-.14.05-.21.07-.24.18-.46.32-.66.08-.12.19-.24.28-.34.16-.17.32-.34.49-.5l.04-.04c.15-.14.28-.27.42-.41.02-.03.06-.06.09-.11.03-.03.06-.06.08-.11.09-.12.15-.23.17-.33v-.02c.01-.06.02-.11.02-.17,0,0,0-.02-.01-.04,0-.04,0-.06-.01-.11-.05-.13-.13-.21-.26-.25-.08-.03-.22-.03-.35.01-.1.04-.18.11-.22.21-.02.05-.03.12-.04.17s-.02.1-.02.13v.12h-.11c-.14-.02-.27-.03-.4-.04-.14-.01-.26-.03-.39-.04h-.09v-.14c.01-.11.02-.21.06-.31.03-.15.07-.27.14-.38.08-.16.21-.29.4-.41.13-.09.27-.15.45-.19.07-.02.15-.03.24-.04.11-.01.22-.01.33,0,.1,0,.23.02.33.04.19.05.34.13.48.24.17.13.29.29.39.5.04.09.07.18.08.31.01.1.02.18.01.27,0,.21-.05.44-.16.64-.07.15-.17.29-.24.4-.09.11-.18.2-.26.29-.11.13-.24.25-.37.35-.11.12-.24.23-.35.35-.04.04-.07.08-.1.12h1.48v.11c.01.77,0,.78-.01.81Z"/>
      </g>
      <g>
        <path d="m182.9,461.36v.85h-3v-.85h.98v-2.4h-.98v-.88l.33-.03c.23-.02.37-.03.71-.12s.58-.22.58-.22h.4v3.65h.98Z"/>
        <path d="m182.88,454.65l-.03.05h-2.95v-.16c.01-.05.01-.09.02-.11.01-.08.02-.14.05-.21.07-.24.18-.46.32-.66.08-.12.19-.24.28-.34.16-.17.32-.34.49-.5l.04-.04c.15-.14.28-.27.42-.41.02-.03.06-.06.09-.11.03-.03.06-.06.08-.11.09-.12.15-.23.17-.33v-.02c.01-.06.02-.11.02-.17,0,0,0-.02-.01-.04,0-.04,0-.06-.01-.11-.05-.13-.13-.21-.26-.25-.08-.03-.22-.03-.35.01-.1.04-.18.11-.22.21-.02.05-.03.12-.04.17s-.02.1-.02.13v.12h-.11c-.14-.02-.27-.03-.4-.04-.14-.01-.26-.03-.39-.04h-.09v-.14c.01-.11.02-.21.06-.31.03-.15.07-.27.14-.38.08-.16.21-.29.4-.41.13-.09.27-.15.45-.19.07-.02.15-.03.24-.04.11-.01.22-.01.33,0,.1,0,.23.02.33.04.19.05.34.13.48.24.17.13.29.29.39.5.04.09.07.18.08.31.01.1.02.18.01.27,0,.21-.05.44-.16.64-.07.15-.17.29-.24.4-.09.11-.18.2-.26.29-.11.13-.24.25-.37.35-.11.12-.24.23-.35.35-.04.04-.07.08-.1.12h1.48v.11c.01.77,0,.78-.01.81Z"/>
      </g>
      <g>
        <path d="m272.9,461.36v.85h-3v-.85h.98v-2.4h-.98v-.88l.33-.03c.23-.02.37-.03.71-.12s.58-.22.58-.22h.4v3.65h.98Z"/>
        <path d="m272.88,454.65l-.03.05h-2.95v-.16c.01-.05.01-.09.02-.11.01-.08.02-.14.05-.21.07-.24.18-.46.32-.66.08-.12.19-.24.28-.34.16-.17.32-.34.49-.5l.04-.04c.15-.14.28-.27.42-.41.02-.03.06-.06.09-.11.03-.03.06-.06.08-.11.09-.12.15-.23.17-.33v-.02c.01-.06.02-.11.02-.17,0,0,0-.02-.01-.04,0-.04,0-.06-.01-.11-.05-.13-.13-.21-.26-.25-.08-.03-.22-.03-.35.01-.1.04-.18.11-.22.21-.02.05-.03.12-.04.17s-.02.1-.02.13v.12h-.11c-.14-.02-.27-.03-.4-.04-.14-.01-.26-.03-.39-.04h-.09v-.14c.01-.11.02-.21.06-.31.03-.15.07-.27.14-.38.08-.16.21-.29.4-.41.13-.09.27-.15.45-.19.07-.02.15-.03.24-.04.11-.01.22-.01.33,0,.1,0,.23.02.33.04.19.05.34.13.48.24.17.13.29.29.39.5.04.09.07.18.08.31.01.1.02.18.01.27,0,.21-.05.44-.16.64-.07.15-.17.29-.24.4-.09.11-.18.2-.26.29-.11.13-.24.25-.37.35-.11.12-.24.23-.35.35-.04.04-.07.08-.1.12h1.48v.11c.01.77,0,.78-.01.81Z"/>
      </g>
      <g>
        <path d="m362.9,461.36v.85h-3v-.85h.98v-2.4h-.98v-.88l.33-.03c.23-.02.37-.03.71-.12s.58-.22.58-.22h.4v3.65h.98Z"/>
        <path d="m362.88,454.65l-.03.05h-2.95v-.16c.01-.05.01-.09.02-.11.01-.08.02-.14.05-.21.07-.24.18-.46.32-.66.08-.12.19-.24.28-.34.16-.17.32-.34.49-.5l.04-.04c.15-.14.28-.27.42-.41.02-.03.06-.06.09-.11.03-.03.06-.06.08-.11.09-.12.15-.23.17-.33v-.02c.01-.06.02-.11.02-.17,0,0,0-.02-.01-.04,0-.04,0-.06-.01-.11-.05-.13-.13-.21-.26-.25-.08-.03-.22-.03-.35.01-.1.04-.18.11-.22.21-.02.05-.03.12-.04.17s-.02.1-.02.13v.12h-.11c-.14-.02-.27-.03-.4-.04-.14-.01-.26-.03-.39-.04h-.09v-.14c.01-.11.02-.21.06-.31.03-.15.07-.27.14-.38.08-.16.21-.29.4-.41.13-.09.27-.15.45-.19.07-.02.15-.03.24-.04.11-.01.22-.01.33,0,.1,0,.23.02.33.04.19.05.34.13.48.24.17.13.29.29.39.5.04.09.07.18.08.31.01.1.02.18.01.27,0,.21-.05.44-.16.64-.07.15-.17.29-.24.4-.09.11-.18.2-.26.29-.11.13-.24.25-.37.35-.11.12-.24.23-.35.35-.04.04-.07.08-.1.12h1.48v.11c.01.77,0,.78-.01.81Z"/>
      </g>
      <g>
        <path d="m458.74,461.36v.85h-3v-.85h.98v-2.4h-.98v-.88l.33-.03c.23-.02.37-.03.71-.12s.58-.22.58-.22h.4v3.65h.98Z"/>
        <path d="m458.72,454.65l-.03.05h-2.95v-.16c.01-.05.01-.09.02-.11.01-.08.02-.14.05-.21.07-.24.18-.46.32-.66.08-.12.19-.24.28-.34.16-.17.32-.34.49-.5l.04-.04c.15-.14.28-.27.42-.41.02-.03.06-.06.09-.11.03-.03.06-.06.08-.11.09-.12.15-.23.17-.33v-.02c.01-.06.02-.11.02-.17,0,0,0-.02-.01-.04,0-.04,0-.06-.01-.11-.05-.13-.13-.21-.26-.25-.08-.03-.22-.03-.35.01-.1.04-.18.11-.22.21-.02.05-.03.12-.04.17s-.02.1-.02.13v.12h-.11c-.14-.02-.27-.03-.4-.04-.14-.01-.26-.03-.39-.04h-.09v-.14c.01-.11.02-.21.06-.31.03-.15.07-.27.14-.38.08-.16.21-.29.4-.41.13-.09.27-.15.45-.19.07-.02.15-.03.24-.04.11-.01.22-.01.33,0,.1,0,.23.02.33.04.19.05.34.13.48.24.17.13.29.29.39.5.04.09.07.18.08.31.01.1.02.18.01.27,0,.21-.05.44-.16.64-.07.15-.17.29-.24.4-.09.11-.18.2-.26.29-.11.13-.24.25-.37.35-.11.12-.24.23-.35.35-.04.04-.07.08-.1.12h1.48v.11c.01.77,0,.78-.01.81Z"/>
      </g>
      <g>
        <path d="m547.93,461.36v.85h-3v-.85h.98v-2.4h-.98v-.88l.33-.03c.23-.02.37-.03.71-.12s.58-.22.58-.22h.4v3.65h.98Z"/>
        <path d="m547.91,454.65l-.03.05h-2.95v-.16c.01-.05.01-.09.02-.11.01-.08.02-.14.05-.21.07-.24.18-.46.32-.66.08-.12.19-.24.28-.34.16-.17.32-.34.49-.5l.04-.04c.15-.14.28-.27.42-.41.02-.03.06-.06.09-.11.03-.03.06-.06.08-.11.09-.12.15-.23.17-.33v-.02c.01-.06.02-.11.02-.17,0,0,0-.02-.01-.04,0-.04,0-.06-.01-.11-.05-.13-.13-.21-.26-.25-.08-.03-.22-.03-.35.01-.1.04-.18.11-.22.21-.02.05-.03.12-.04.17s-.02.1-.02.13v.12h-.11c-.14-.02-.27-.03-.4-.04-.14-.01-.26-.03-.39-.04h-.09v-.14c.01-.11.02-.21.06-.31.03-.15.07-.27.14-.38.08-.16.21-.29.4-.41.13-.09.27-.15.45-.19.07-.02.15-.03.24-.04.11-.01.22-.01.33,0,.1,0,.23.02.33.04.19.05.34.13.48.24.17.13.29.29.39.5.04.09.07.18.08.31.01.1.02.18.01.27,0,.21-.05.44-.16.64-.07.15-.17.29-.24.4-.09.11-.18.2-.26.29-.11.13-.24.25-.37.35-.11.12-.24.23-.35.35-.04.04-.07.08-.1.12h1.48v.11c.01.77,0,.78-.01.81Z"/>
      </g>
      <g>
        <path d="m638.36,461.36v.85h-3v-.85h.98v-2.4h-.98v-.88l.33-.03c.23-.02.37-.03.71-.12s.58-.22.58-.22h.4v3.65h.98Z"/>
        <path d="m638.35,454.65l-.03.05h-2.95v-.16c.01-.05.01-.09.02-.11.01-.08.02-.14.05-.21.07-.24.18-.46.32-.66.08-.12.19-.24.28-.34.16-.17.32-.34.49-.5l.04-.04c.15-.14.28-.27.42-.41.02-.03.06-.06.09-.11.03-.03.06-.06.08-.11.09-.12.15-.23.17-.33v-.02c.01-.06.02-.11.02-.17,0,0,0-.02-.01-.04,0-.04,0-.06-.01-.11-.05-.13-.13-.21-.26-.25-.08-.03-.22-.03-.35.01-.1.04-.18.11-.22.21-.02.05-.03.12-.04.17s-.02.1-.02.13v.12h-.11c-.14-.02-.27-.03-.4-.04-.14-.01-.26-.03-.39-.04h-.09v-.14c.01-.11.02-.21.06-.31.03-.15.07-.27.14-.38.08-.16.21-.29.4-.41.13-.09.27-.15.45-.19.07-.02.15-.03.24-.04.11-.01.22-.01.33,0,.1,0,.23.02.33.04.19.05.34.13.48.24.17.13.29.29.39.5.04.09.07.18.08.31.01.1.02.18.01.27,0,.21-.05.44-.16.64-.07.15-.17.29-.24.4-.09.11-.18.2-.26.29-.11.13-.24.25-.37.35-.11.12-.24.23-.35.35-.04.04-.07.08-.1.12h1.48v.11c.01.77,0,.78-.01.81Z"/>
      </g>
      <g>
        <path d="m728.74,461.36v.85h-3v-.85h.98v-2.4h-.98v-.88l.33-.03c.23-.02.37-.03.71-.12s.58-.22.58-.22h.4v3.65h.98Z"/>
        <path d="m728.72,454.65l-.03.05h-2.95v-.16c.01-.05.01-.09.02-.11.01-.08.02-.14.05-.21.07-.24.18-.46.32-.66.08-.12.19-.24.28-.34.16-.17.32-.34.49-.5l.04-.04c.15-.14.28-.27.42-.41.02-.03.06-.06.09-.11.03-.03.06-.06.08-.11.09-.12.15-.23.17-.33v-.02c.01-.06.02-.11.02-.17,0,0,0-.02-.01-.04,0-.04,0-.06-.01-.11-.05-.13-.13-.21-.26-.25-.08-.03-.22-.03-.35.01-.1.04-.18.11-.22.21-.02.05-.03.12-.04.17s-.02.1-.02.13v.12h-.11c-.14-.02-.27-.03-.4-.04-.14-.01-.26-.03-.39-.04h-.09v-.14c.01-.11.02-.21.06-.31.03-.15.07-.27.14-.38.08-.16.21-.29.4-.41.13-.09.27-.15.45-.19.07-.02.15-.03.24-.04.11-.01.22-.01.33,0,.1,0,.23.02.33.04.19.05.34.13.48.24.17.13.29.29.39.5.04.09.07.18.08.31.01.1.02.18.01.27,0,.21-.05.44-.16.64-.07.15-.17.29-.24.4-.09.11-.18.2-.26.29-.11.13-.24.25-.37.35-.11.12-.24.23-.35.35-.04.04-.07.08-.1.12h1.48v.11c.01.77,0,.78-.01.81Z"/>
      </g>
      <g>
        <path d="m91.9,561.36v.85h-3v-.85h.98v-2.4h-.98v-.88l.33-.03c.23-.02.37-.03.71-.12s.58-.22.58-.22h.4v3.65h.98Z"/>
        <path d="m91.88,554.65l-.03.05h-2.95v-.16c.01-.05.01-.09.02-.11.01-.08.02-.14.05-.21.07-.24.18-.46.32-.66.08-.12.19-.24.28-.34.16-.17.32-.34.49-.5l.04-.04c.15-.14.28-.27.42-.41.02-.03.06-.06.09-.11.03-.03.06-.06.08-.11.09-.12.15-.23.17-.33v-.02c.01-.06.02-.11.02-.17,0,0,0-.02-.01-.04,0-.04,0-.06-.01-.11-.05-.13-.13-.21-.26-.25-.08-.03-.22-.03-.35.01-.1.04-.18.11-.22.21-.02.05-.03.12-.04.17s-.02.1-.02.13v.12h-.11c-.14-.02-.27-.03-.4-.04-.14-.01-.26-.03-.39-.04h-.09v-.14c.01-.11.02-.21.06-.31.03-.15.07-.27.14-.38.08-.16.21-.29.4-.41.13-.09.27-.15.45-.19.07-.02.15-.03.24-.04.11-.01.22-.01.33,0,.1,0,.23.02.33.04.19.05.34.13.48.24.17.13.29.29.39.5.04.09.07.18.08.31.01.1.02.18.01.27,0,.21-.05.44-.16.64-.07.15-.17.29-.24.4-.09.11-.18.2-.26.29-.11.13-.24.25-.37.35-.11.12-.24.23-.35.35-.04.04-.07.08-.1.12h1.48v.11c.01.77,0,.78-.01.81Z"/>
      </g>
      <g>
        <path d="m181.9,561.36v.85h-3v-.85h.98v-2.4h-.98v-.88l.33-.03c.23-.02.37-.03.71-.12s.58-.22.58-.22h.4v3.65h.98Z"/>
        <path d="m181.88,554.65l-.03.05h-2.95v-.16c.01-.05.01-.09.02-.11.01-.08.02-.14.05-.21.07-.24.18-.46.32-.66.08-.12.19-.24.28-.34.16-.17.32-.34.49-.5l.04-.04c.15-.14.28-.27.42-.41.02-.03.06-.06.09-.11.03-.03.06-.06.08-.11.09-.12.15-.23.17-.33v-.02c.01-.06.02-.11.02-.17,0,0,0-.02-.01-.04,0-.04,0-.06-.01-.11-.05-.13-.13-.21-.26-.25-.08-.03-.22-.03-.35.01-.1.04-.18.11-.22.21-.02.05-.03.12-.04.17s-.02.1-.02.13v.12h-.11c-.14-.02-.27-.03-.4-.04-.14-.01-.26-.03-.39-.04h-.09v-.14c.01-.11.02-.21.06-.31.03-.15.07-.27.14-.38.08-.16.21-.29.4-.41.13-.09.27-.15.45-.19.07-.02.15-.03.24-.04.11-.01.22-.01.33,0,.1,0,.23.02.33.04.19.05.34.13.48.24.17.13.29.29.39.5.04.09.07.18.08.31.01.1.02.18.01.27,0,.21-.05.44-.16.64-.07.15-.17.29-.24.4-.09.11-.18.2-.26.29-.11.13-.24.25-.37.35-.11.12-.24.23-.35.35-.04.04-.07.08-.1.12h1.48v.11c.01.77,0,.78-.01.81Z"/>
      </g>
      <g>
        <path d="m271.9,561.36v.85h-3v-.85h.98v-2.4h-.98v-.88l.33-.03c.23-.02.37-.03.71-.12s.58-.22.58-.22h.4v3.65h.98Z"/>
        <path d="m271.88,554.65l-.03.05h-2.95v-.16c.01-.05.01-.09.02-.11.01-.08.02-.14.05-.21.07-.24.18-.46.32-.66.08-.12.19-.24.28-.34.16-.17.32-.34.49-.5l.04-.04c.15-.14.28-.27.42-.41.02-.03.06-.06.09-.11.03-.03.06-.06.08-.11.09-.12.15-.23.17-.33v-.02c.01-.06.02-.11.02-.17,0,0,0-.02-.01-.04,0-.04,0-.06-.01-.11-.05-.13-.13-.21-.26-.25-.08-.03-.22-.03-.35.01-.1.04-.18.11-.22.21-.02.05-.03.12-.04.17s-.02.1-.02.13v.12h-.11c-.14-.02-.27-.03-.4-.04-.14-.01-.26-.03-.39-.04h-.09v-.14c.01-.11.02-.21.06-.31.03-.15.07-.27.14-.38.08-.16.21-.29.4-.41.13-.09.27-.15.45-.19.07-.02.15-.03.24-.04.11-.01.22-.01.33,0,.1,0,.23.02.33.04.19.05.34.13.48.24.17.13.29.29.39.5.04.09.07.18.08.31.01.1.02.18.01.27,0,.21-.05.44-.16.64-.07.15-.17.29-.24.4-.09.11-.18.2-.26.29-.11.13-.24.25-.37.35-.11.12-.24.23-.35.35-.04.04-.07.08-.1.12h1.48v.11c.01.77,0,.78-.01.81Z"/>
      </g>
      <g>
        <path d="m362.9,561.36v.85h-3v-.85h.98v-2.4h-.98v-.88l.33-.03c.23-.02.37-.03.71-.12s.58-.22.58-.22h.4v3.65h.98Z"/>
        <path d="m362.88,554.65l-.03.05h-2.95v-.16c.01-.05.01-.09.02-.11.01-.08.02-.14.05-.21.07-.24.18-.46.32-.66.08-.12.19-.24.28-.34.16-.17.32-.34.49-.5l.04-.04c.15-.14.28-.27.42-.41.02-.03.06-.06.09-.11.03-.03.06-.06.08-.11.09-.12.15-.23.17-.33v-.02c.01-.06.02-.11.02-.17,0,0,0-.02-.01-.04,0-.04,0-.06-.01-.11-.05-.13-.13-.21-.26-.25-.08-.03-.22-.03-.35.01-.1.04-.18.11-.22.21-.02.05-.03.12-.04.17s-.02.1-.02.13v.12h-.11c-.14-.02-.27-.03-.4-.04-.14-.01-.26-.03-.39-.04h-.09v-.14c.01-.11.02-.21.06-.31.03-.15.07-.27.14-.38.08-.16.21-.29.4-.41.13-.09.27-.15.45-.19.07-.02.15-.03.24-.04.11-.01.22-.01.33,0,.1,0,.23.02.33.04.19.05.34.13.48.24.17.13.29.29.39.5.04.09.07.18.08.31.01.1.02.18.01.27,0,.21-.05.44-.16.64-.07.15-.17.29-.24.4-.09.11-.18.2-.26.29-.11.13-.24.25-.37.35-.11.12-.24.23-.35.35-.04.04-.07.08-.1.12h1.48v.11c.01.77,0,.78-.01.81Z"/>
      </g>
      <g>
        <path d="m458.74,561.36v.85h-3v-.85h.98v-2.4h-.98v-.88l.33-.03c.23-.02.37-.03.71-.12s.58-.22.58-.22h.4v3.65h.98Z"/>
        <path d="m458.72,554.65l-.03.05h-2.95v-.16c.01-.05.01-.09.02-.11.01-.08.02-.14.05-.21.07-.24.18-.46.32-.66.08-.12.19-.24.28-.34.16-.17.32-.34.49-.5l.04-.04c.15-.14.28-.27.42-.41.02-.03.06-.06.09-.11.03-.03.06-.06.08-.11.09-.12.15-.23.17-.33v-.02c.01-.06.02-.11.02-.17,0,0,0-.02-.01-.04,0-.04,0-.06-.01-.11-.05-.13-.13-.21-.26-.25-.08-.03-.22-.03-.35.01-.1.04-.18.11-.22.21-.02.05-.03.12-.04.17s-.02.1-.02.13v.12h-.11c-.14-.02-.27-.03-.4-.04-.14-.01-.26-.03-.39-.04h-.09v-.14c.01-.11.02-.21.06-.31.03-.15.07-.27.14-.38.08-.16.21-.29.4-.41.13-.09.27-.15.45-.19.07-.02.15-.03.24-.04.11-.01.22-.01.33,0,.1,0,.23.02.33.04.19.05.34.13.48.24.17.13.29.29.39.5.04.09.07.18.08.31.01.1.02.18.01.27,0,.21-.05.44-.16.64-.07.15-.17.29-.24.4-.09.11-.18.2-.26.29-.11.13-.24.25-.37.35-.11.12-.24.23-.35.35-.04.04-.07.08-.1.12h1.48v.11c.01.77,0,.78-.01.81Z"/>
      </g>
      <g>
        <path d="m547.93,561.36v.85h-3v-.85h.98v-2.4h-.98v-.88l.33-.03c.23-.02.37-.03.71-.12s.58-.22.58-.22h.4v3.65h.98Z"/>
        <path d="m547.91,554.65l-.03.05h-2.95v-.16c.01-.05.01-.09.02-.11.01-.08.02-.14.05-.21.07-.24.18-.46.32-.66.08-.12.19-.24.28-.34.16-.17.32-.34.49-.5l.04-.04c.15-.14.28-.27.42-.41.02-.03.06-.06.09-.11.03-.03.06-.06.08-.11.09-.12.15-.23.17-.33v-.02c.01-.06.02-.11.02-.17,0,0,0-.02-.01-.04,0-.04,0-.06-.01-.11-.05-.13-.13-.21-.26-.25-.08-.03-.22-.03-.35.01-.1.04-.18.11-.22.21-.02.05-.03.12-.04.17s-.02.1-.02.13v.12h-.11c-.14-.02-.27-.03-.4-.04-.14-.01-.26-.03-.39-.04h-.09v-.14c.01-.11.02-.21.06-.31.03-.15.07-.27.14-.38.08-.16.21-.29.4-.41.13-.09.27-.15.45-.19.07-.02.15-.03.24-.04.11-.01.22-.01.33,0,.1,0,.23.02.33.04.19.05.34.13.48.24.17.13.29.29.39.5.04.09.07.18.08.31.01.1.02.18.01.27,0,.21-.05.44-.16.64-.07.15-.17.29-.24.4-.09.11-.18.2-.26.29-.11.13-.24.25-.37.35-.11.12-.24.23-.35.35-.04.04-.07.08-.1.12h1.48v.11c.01.77,0,.78-.01.81Z"/>
      </g>
      <g>
        <path d="m638.36,561.36v.85h-3v-.85h.98v-2.4h-.98v-.88l.33-.03c.23-.02.37-.03.71-.12s.58-.22.58-.22h.4v3.65h.98Z"/>
        <path d="m638.35,554.65l-.03.05h-2.95v-.16c.01-.05.01-.09.02-.11.01-.08.02-.14.05-.21.07-.24.18-.46.32-.66.08-.12.19-.24.28-.34.16-.17.32-.34.49-.5l.04-.04c.15-.14.28-.27.42-.41.02-.03.06-.06.09-.11.03-.03.06-.06.08-.11.09-.12.15-.23.17-.33v-.02c.01-.06.02-.11.02-.17,0,0,0-.02-.01-.04,0-.04,0-.06-.01-.11-.05-.13-.13-.21-.26-.25-.08-.03-.22-.03-.35.01-.1.04-.18.11-.22.21-.02.05-.03.12-.04.17s-.02.1-.02.13v.12h-.11c-.14-.02-.27-.03-.4-.04-.14-.01-.26-.03-.39-.04h-.09v-.14c.01-.11.02-.21.06-.31.03-.15.07-.27.14-.38.08-.16.21-.29.4-.41.13-.09.27-.15.45-.19.07-.02.15-.03.24-.04.11-.01.22-.01.33,0,.1,0,.23.02.33.04.19.05.34.13.48.24.17.13.29.29.39.5.04.09.07.18.08.31.01.1.02.18.01.27,0,.21-.05.44-.16.64-.07.15-.17.29-.24.4-.09.11-.18.2-.26.29-.11.13-.24.25-.37.35-.11.12-.24.23-.35.35-.04.04-.07.08-.1.12h1.48v.11c.01.77,0,.78-.01.81Z"/>
      </g>
      <g>
        <path d="m728.74,561.36v.85h-3v-.85h.98v-2.4h-.98v-.88l.33-.03c.23-.02.37-.03.71-.12s.58-.22.58-.22h.4v3.65h.98Z"/>
        <path d="m728.72,554.65l-.03.05h-2.95v-.16c.01-.05.01-.09.02-.11.01-.08.02-.14.05-.21.07-.24.18-.46.32-.66.08-.12.19-.24.28-.34.16-.17.32-.34.49-.5l.04-.04c.15-.14.28-.27.42-.41.02-.03.06-.06.09-.11.03-.03.06-.06.08-.11.09-.12.15-.23.17-.33v-.02c.01-.06.02-.11.02-.17,0,0,0-.02-.01-.04,0-.04,0-.06-.01-.11-.05-.13-.13-.21-.26-.25-.08-.03-.22-.03-.35.01-.1.04-.18.11-.22.21-.02.05-.03.12-.04.17s-.02.1-.02.13v.12h-.11c-.14-.02-.27-.03-.4-.04-.14-.01-.26-.03-.39-.04h-.09v-.14c.01-.11.02-.21.06-.31.03-.15.07-.27.14-.38.08-.16.21-.29.4-.41.13-.09.27-.15.45-.19.07-.02.15-.03.24-.04.11-.01.22-.01.33,0,.1,0,.23.02.33.04.19.05.34.13.48.24.17.13.29.29.39.5.04.09.07.18.08.31.01.1.02.18.01.27,0,.21-.05.44-.16.64-.07.15-.17.29-.24.4-.09.11-.18.2-.26.29-.11.13-.24.25-.37.35-.11.12-.24.23-.35.35-.04.04-.07.08-.1.12h1.48v.11c.01.77,0,.78-.01.81Z"/>
      </g>
    </g>
    <g>
      <g>
        <circle class="cls-10" cx="81.64" cy="198.21" r="1.25"/>
        <circle class="cls-10" cx="171.64" cy="198.21" r="1.25"/>
        <circle class="cls-10" cx="261.64" cy="198.21" r="1.25"/>
        <circle class="cls-10" cx="351.64" cy="198.21" r="1.25"/>
        <circle class="cls-10" cx="441.64" cy="198.21" r="1.25"/>
        <circle class="cls-10" cx="531.64" cy="198.21" r="1.25"/>
        <circle class="cls-10" cx="621.64" cy="198.21" r="1.25"/>
        <circle class="cls-10" cx="711.64" cy="198.21" r="1.25"/>
      </g>
      <g>
        <circle class="cls-10" cx="81.64" cy="298.21" r="1.25"/>
        <circle class="cls-10" cx="171.64" cy="298.21" r="1.25"/>
        <circle class="cls-10" cx="261.64" cy="298.21" r="1.25"/>
        <circle class="cls-10" cx="351.64" cy="298.21" r="1.25"/>
        <circle class="cls-10" cx="441.64" cy="298.21" r="1.25"/>
        <circle class="cls-10" cx="531.64" cy="298.21" r="1.25"/>
        <circle class="cls-10" cx="621.64" cy="298.21" r="1.25"/>
        <circle class="cls-10" cx="711.64" cy="298.21" r="1.25"/>
      </g>
      <g>
        <circle class="cls-10" cx="81.64" cy="464.21" r="1.25"/>
        <circle class="cls-10" cx="171.64" cy="464.21" r="1.25"/>
        <circle class="cls-10" cx="261.64" cy="464.21" r="1.25"/>
        <circle class="cls-10" cx="351.64" cy="464.21" r="1.25"/>
        <circle class="cls-10" cx="441.64" cy="464.21" r="1.25"/>
        <circle class="cls-10" cx="531.64" cy="464.21" r="1.25"/>
        <circle class="cls-10" cx="621.64" cy="464.21" r="1.25"/>
        <circle class="cls-10" cx="711.64" cy="464.21" r="1.25"/>
      </g>
      <g>
        <circle class="cls-10" cx="81.64" cy="564.21" r="1.25"/>
        <circle class="cls-10" cx="171.64" cy="564.21" r="1.25"/>
        <circle class="cls-10" cx="261.64" cy="564.21" r="1.25"/>
        <circle class="cls-10" cx="351.64" cy="564.21" r="1.25"/>
        <circle class="cls-10" cx="441.64" cy="564.21" r="1.25"/>
        <circle class="cls-10" cx="531.64" cy="564.21" r="1.25"/>
        <circle class="cls-10" cx="621.64" cy="564.21" r="1.25"/>
        <circle class="cls-10" cx="711.64" cy="564.21" r="1.25"/>
      </g>
    </g>
  </g>
  <text class="cls-12" transform="translate(475.75 97.14)"><tspan class="cls-9" x="0" y="0">Type 3</tspan><tspan class="cls-4" x="82.98" y="0" xml:space="preserve"> - </tspan><tspan class="cls-1" x="105.95" y="0">Cr</tspan><tspan class="cls-3" x="135.6" y="0">oss</tspan><tspan class="cls-2" x="178.34" y="0">-</tspan><tspan class="cls-5" x="187.22" y="0">Shift</tspan><tspan class="cls-4" x="249.23" y="0" xml:space="preserve">    </tspan></text>
  <text class="cls-13" transform="translate(146.06 95.8)"><tspan class="cls-9" x="0" y="0">Type 2</tspan><tspan class="cls-4" x="69.15" y="0" xml:space="preserve"> - </tspan><tspan class="cls-5" x="88.29" y="0">Shift</tspan><tspan class="cls-4" x="139.97" y="0" xml:space="preserve">    </tspan></text>
</svg>