<?xml version="1.0" encoding="UTF-8"?>
<svg id="Layer_1" data-name="Layer 1" xmlns="http://www.w3.org/2000/svg" viewBox="0 0 792 612">
  <defs>
    <style>
      .cls-1 {
        fill: #00aeef;
      }

      .cls-1, .cls-2, .cls-3, .cls-4, .cls-5, .cls-6, .cls-7 {
        font-weight: 700;
      }

      .cls-1, .cls-2, .cls-3, .cls-4, .cls-6, .cls-7 {
        font-family: Cambria-BoldItalic, Cambria;
      }

      .cls-8 {
        fill: #21409a;
      }

      .cls-9 {
        font-size: 14px;
      }

      .cls-9, .cls-10, .cls-11, .cls-12, .cls-13, .cls-14, .cls-6, .cls-15 {
        fill: #231f20;
      }

      .cls-9, .cls-12, .cls-14 {
        font-family: Cambria-Italic, Cambria;
      }

      .cls-9, .cls-12, .cls-16, .cls-5 {
        font-style: italic;
      }

      .cls-10 {
        stroke-width: .5px;
      }

      .cls-10, .cls-13 {
        stroke: #231f20;
        stroke-miterlimit: 10;
      }

      .cls-2, .cls-3, .cls-7 {
        fill: #f26522;
      }

      .cls-3 {
        letter-spacing: 0em;
      }

      .cls-4 {
        fill: #00a14b;
      }

      .cls-17 {
        fill: #2e3192;
      }

      .cls-11 {
        font-family: Cambria, Cambria;
      }

      .cls-11, .cls-12 {
        font-size: 30px;
      }

      .cls-13 {
        stroke-width: 2px;
      }

      .cls-18 {
        fill: none;
      }

      .cls-16 {
        font-size: 25px;
      }

      .cls-5 {
        font-family: Georgia-BoldItalic, Georgia;
        font-size: 10px;
      }

      .cls-19 {
        fill: #ed1c24;
      }

      .cls-7 {
        letter-spacing: 0em;
      }
    </style>
  </defs>
  <path class="cls-19" d="m627.9,229.54s1.52.03,1.68-.97c.23-1.44-.1-5.68-.1-5.68,0,0-4.52-.26-5.66-.08-1.01.15-.99,1.66-.99,1.66,0,0,3.82-.01,3.83,0-8.46,9.48-10.68-7.89,2.72-29.48.97-1.56-.82-2.88-1.64-1.5-16.29,27.48-9.59,44.12.08,32.35l.08,3.7Z"/>
  <path class="cls-19" d="m627.9,129.54s1.52.03,1.68-.97c.23-1.44-.1-5.68-.1-5.68,0,0-4.52-.26-5.66-.08-1.01.15-.99,1.66-.99,1.66,0,0,3.82-.01,3.83,0-8.46,9.48-10.68-7.89,2.72-29.48.97-1.56-.82-2.88-1.64-1.5-16.29,27.48-9.59,44.12.08,32.35l.08,3.7Z"/>
  <g>
    <path class="cls-15" d="m452,152.86c3.22,0,3.22-5,0-5s-3.22,5,0,5h0Z"/>
    <path class="cls-15" d="m482,122.86c3.22,0,3.22-5,0-5s-3.22,5,0,5h0Z"/>
    <path class="cls-15" d="m452,92.86c3.22,0,3.22-5,0-5s-3.22,5,0,5h0Z"/>
    <path class="cls-15" d="m422,122.86c3.22,0,3.22-5,0-5s-3.22,5,0,5h0Z"/>
    <path class="cls-15" d="m452,121.48c1.45,0,1.45-2.25,0-2.25s-1.45,2.25,0,2.25h0Z"/>
  </g>
  <g>
    <path class="cls-15" d="m452,252.86c3.22,0,3.22-5,0-5s-3.22,5,0,5h0Z"/>
    <path class="cls-15" d="m482,222.86c3.22,0,3.22-5,0-5s-3.22,5,0,5h0Z"/>
    <path class="cls-15" d="m452,192.86c3.22,0,3.22-5,0-5s-3.22,5,0,5h0Z"/>
    <path class="cls-15" d="m422,222.86c3.22,0,3.22-5,0-5s-3.22,5,0,5h0Z"/>
    <path class="cls-15" d="m452,221.48c1.45,0,1.45-2.25,0-2.25s-1.45,2.25,0,2.25h0Z"/>
  </g>
  <g>
    <path class="cls-15" d="m542,152.86c3.22,0,3.22-5,0-5s-3.22,5,0,5h0Z"/>
    <path class="cls-15" d="m572,122.86c3.22,0,3.22-5,0-5s-3.22,5,0,5h0Z"/>
    <path class="cls-15" d="m542,92.86c3.22,0,3.22-5,0-5s-3.22,5,0,5h0Z"/>
    <path class="cls-15" d="m512,122.86c3.22,0,3.22-5,0-5s-3.22,5,0,5h0Z"/>
    <path class="cls-15" d="m542,121.48c1.45,0,1.45-2.25,0-2.25s-1.45,2.25,0,2.25h0Z"/>
  </g>
  <g>
    <path class="cls-15" d="m542,252.86c3.22,0,3.22-5,0-5s-3.22,5,0,5h0Z"/>
    <path class="cls-15" d="m572,222.86c3.22,0,3.22-5,0-5s-3.22,5,0,5h0Z"/>
    <path class="cls-15" d="m542,192.86c3.22,0,3.22-5,0-5s-3.22,5,0,5h0Z"/>
    <path class="cls-15" d="m512,222.86c3.22,0,3.22-5,0-5s-3.22,5,0,5h0Z"/>
    <path class="cls-15" d="m542,221.48c1.45,0,1.45-2.25,0-2.25s-1.45,2.25,0,2.25h0Z"/>
  </g>
  <g>
    <path class="cls-15" d="m632,152.86c3.22,0,3.22-5,0-5s-3.22,5,0,5h0Z"/>
    <path class="cls-15" d="m662,122.86c3.22,0,3.22-5,0-5s-3.22,5,0,5h0Z"/>
    <path class="cls-15" d="m632,92.86c3.22,0,3.22-5,0-5s-3.22,5,0,5h0Z"/>
    <path class="cls-15" d="m602,122.86c3.22,0,3.22-5,0-5s-3.22,5,0,5h0Z"/>
    <path class="cls-15" d="m632,121.48c1.45,0,1.45-2.25,0-2.25s-1.45,2.25,0,2.25h0Z"/>
  </g>
  <g>
    <path class="cls-15" d="m632,252.86c3.22,0,3.22-5,0-5s-3.22,5,0,5h0Z"/>
    <path class="cls-15" d="m662,222.86c3.22,0,3.22-5,0-5s-3.22,5,0,5h0Z"/>
    <path class="cls-15" d="m632,192.86c3.22,0,3.22-5,0-5s-3.22,5,0,5h0Z"/>
    <path class="cls-15" d="m602,222.86c3.22,0,3.22-5,0-5s-3.22,5,0,5h0Z"/>
    <path class="cls-15" d="m632,221.48c1.45,0,1.45-2.25,0-2.25s-1.45,2.25,0,2.25h0Z"/>
  </g>
  <g>
    <path class="cls-15" d="m722,152.86c3.22,0,3.22-5,0-5s-3.22,5,0,5h0Z"/>
    <path class="cls-15" d="m752,122.86c3.22,0,3.22-5,0-5s-3.22,5,0,5h0Z"/>
    <path class="cls-15" d="m722,92.86c3.22,0,3.22-5,0-5s-3.22,5,0,5h0Z"/>
    <path class="cls-15" d="m692,122.86c3.22,0,3.22-5,0-5s-3.22,5,0,5h0Z"/>
    <path class="cls-15" d="m722,121.48c1.45,0,1.45-2.25,0-2.25s-1.45,2.25,0,2.25h0Z"/>
  </g>
  <g>
    <path class="cls-15" d="m722,252.86c3.22,0,3.22-5,0-5s-3.22,5,0,5h0Z"/>
    <path class="cls-15" d="m752,222.86c3.22,0,3.22-5,0-5s-3.22,5,0,5h0Z"/>
    <path class="cls-15" d="m722,192.86c3.22,0,3.22-5,0-5s-3.22,5,0,5h0Z"/>
    <path class="cls-15" d="m692,222.86c3.22,0,3.22-5,0-5s-3.22,5,0,5h0Z"/>
    <path class="cls-15" d="m722,221.48c1.45,0,1.45-2.25,0-2.25s-1.45,2.25,0,2.25h0Z"/>
  </g>
  <g>
    <rect class="cls-19" x="630.7" y="122.05" width="2.59" height="25.25" rx=".99" ry=".99"/>
    <rect class="cls-17" x="605.05" y="119.06" width="25.25" height="2.59" rx=".99" ry=".99"/>
  </g>
  <g>
    <rect class="cls-19" x="630.7" y="222.05" width="2.59" height="25.25" rx=".99" ry=".99"/>
    <rect class="cls-17" x="605.05" y="219.06" width="25.25" height="2.59" rx=".99" ry=".99"/>
  </g>
  <g>
    <rect class="cls-19" x="720.7" y="122.05" width="2.59" height="25.25" rx=".99" ry=".99"/>
    <rect class="cls-17" x="695.05" y="119.06" width="25.25" height="2.59" rx=".99" ry=".99"/>
  </g>
  <g>
    <rect class="cls-19" x="720.7" y="222.05" width="2.59" height="25.25" rx=".99" ry=".99"/>
    <rect class="cls-17" x="695.05" y="219.06" width="25.25" height="2.59" rx=".99" ry=".99"/>
  </g>
  <g>
    <rect class="cls-19" x="453.7" y="119.06" width="25.25" height="2.59" rx=".99" ry=".99"/>
    <rect class="cls-17" x="425.05" y="119.06" width="25.25" height="2.59" rx=".99" ry=".99"/>
  </g>
  <g>
    <rect class="cls-19" x="453.7" y="219.06" width="25.25" height="2.59" rx=".99" ry=".99"/>
    <rect class="cls-17" x="425.05" y="219.06" width="25.25" height="2.59" rx=".99" ry=".99"/>
  </g>
  <g>
    <rect class="cls-17" x="538.72" y="121.84" width="2.59" height="25.25" rx=".99" ry=".99"/>
    <rect class="cls-19" x="542.69" y="121.84" width="2.59" height="25.25" rx=".99" ry=".99"/>
  </g>
  <g>
    <rect class="cls-17" x="538.72" y="221.84" width="2.59" height="25.25" rx=".99" ry=".99"/>
    <rect class="cls-19" x="542.69" y="221.84" width="2.59" height="25.25" rx=".99" ry=".99"/>
  </g>
  <path class="cls-17" d="m425.47,124.87s4.45-.85,5.61-.82c1.02.02,1.19,1.52,1.19,1.52l-3.28.38c13.96,9.35,33.36,8.78,47.44-1.94.58-.44,1.53-.43,1.85,0,.21.25.53,1.07-.25,1.68-7.77,6.07-17.41,9.1-26.95,9.1-8.38,0-16.68-2.32-23.6-6.97l.42,3.43s-1.5.23-1.79-.74c-.41-1.4-.64-5.65-.64-5.65Z"/>
  <path class="cls-19" d="m461.68,116.43s.03,1.52-.97,1.68c-1.44.23-5.68-.1-5.68-.1,0,0-.26-4.52-.08-5.66.15-1.01,1.66-.99,1.66-.99,0,0-.01,3.82,0,3.83,9.48-8.46-7.89-10.68-29.48,2.72-1.56.97-2.88-.82-1.5-1.64,27.48-16.29,44.12-9.59,32.35.08l3.7.08Z"/>
  <path class="cls-19" d="m461.68,216.43s.03,1.52-.97,1.68c-1.44.23-5.68-.1-5.68-.1,0,0-.26-4.52-.08-5.66.15-1.01,1.66-.99,1.66-.99,0,0-.01,3.82,0,3.83,9.48-8.46-7.89-10.68-29.48,2.72-1.56.97-2.88-.82-1.5-1.64,27.48-16.29,44.12-9.59,32.35.08l3.7.08Z"/>
  <path class="cls-19" d="m548.19,129.98s-1.52.03-1.68-.97c-.23-1.44.1-5.68.1-5.68,0,0,4.52-.26,5.66-.08,1.01.15.99,1.66.99,1.66,0,0-3.82-.01-3.83,0,8.46,9.48,10.68-7.89-2.72-29.48-.97-1.56.82-2.88,1.64-1.5,16.29,27.48,9.59,44.12-.08,32.35l-.08,3.7Z"/>
  <path class="cls-19" d="m548.19,229.98s-1.52.03-1.68-.97c-.23-1.44.1-5.68.1-5.68,0,0,4.52-.26,5.66-.08,1.01.15.99,1.66.99,1.66,0,0-3.82-.01-3.83,0,8.46,9.48,10.68-7.89-2.72-29.48-.97-1.56.82-2.88,1.64-1.5,16.29,27.48,9.59,44.12-.08,32.35l-.08,3.7Z"/>
  <path class="cls-19" d="m726.34,129.98s-1.52.03-1.68-.97c-.23-1.44.1-5.68.1-5.68,0,0,4.52-.26,5.66-.08,1.01.15.99,1.66.99,1.66,0,0-3.82-.01-3.83,0,8.46,9.48,10.68-7.89-2.72-29.48-.97-1.56.82-2.88,1.64-1.5,16.29,27.48,9.59,44.12-.08,32.35l-.08,3.7Z"/>
  <path class="cls-19" d="m726.75,229.98s-1.52.03-1.68-.97c-.23-1.44.1-5.68.1-5.68,0,0,4.52-.26,5.66-.08,1.01.15.99,1.66.99,1.66,0,0-3.82-.01-3.83,0,8.46,9.48,10.68-7.89-2.72-29.48-.97-1.56.82-2.88,1.64-1.5,16.29,27.48,9.59,44.12-.08,32.35l-.08,3.7Z"/>
  <path class="cls-17" d="m427.17,212.86s4.45.85,5.61.82c1.02-.02,1.19-1.52,1.19-1.52l-3.28-.38c13.96-9.35,33.36-8.78,47.44,1.94.58.44,1.53.43,1.85,0,.21-.25.53-1.07-.25-1.68-7.77-6.07-17.41-9.1-26.95-9.1-8.38,0-16.68,2.32-23.6,6.97l.42-3.43s-1.5-.23-1.79.74c-.41,1.4-.64,5.65-.64,5.65Z"/>
  <path class="cls-17" d="m536.25,146.49s.85-4.45.82-5.61c-.02-1.02-1.52-1.19-1.52-1.19l-.38,3.28c-9.35-13.96-8.78-33.36,1.94-47.44.44-.58.43-1.53,0-1.85-.25-.21-1.07-.53-1.68.25-6.07,7.77-9.1,17.41-9.1,26.95,0,8.38,2.32,16.68,6.97,23.6l-3.43-.42s-.23,1.5.74,1.79c1.4.41,5.65.64,5.65.64Z"/>
  <path class="cls-17" d="m551.23,245.86s-.85-4.45-.82-5.61c.02-1.02,1.52-1.19,1.52-1.19l.38,3.28c9.35-13.96,8.78-33.36-1.94-47.44-.44-.58-.43-1.53,0-1.85.25-.21,1.07-.53,1.68.25,6.07,7.77,9.1,17.41,9.1,26.95,0,8.38-2.32,16.68-6.97,23.6l3.43-.42s.23,1.5-.74,1.79c-1.4.41-5.65.64-5.65.64Z"/>
  <path class="cls-17" d="m605.47,116.29s4.45.85,5.61.82c1.02-.02,1.19-1.52,1.19-1.52l-3.28-.38c13.96-9.35,33.36-8.78,47.44,1.94.58.44,1.53.43,1.85,0,.21-.25.53-1.07-.25-1.68-7.77-6.07-17.41-9.1-26.95-9.1-8.38,0-16.68,2.32-23.6,6.97l.42-3.43s-1.5-.23-1.79.74c-.41,1.4-.64,5.65-.64,5.65Z"/>
  <path class="cls-17" d="m607.17,224.37s4.45-.85,5.61-.82c1.02.02,1.19,1.52,1.19,1.52l-3.28.38c13.96,9.35,33.36,8.78,47.44-1.94.58-.44,1.53-.43,1.85,0,.21.25.53,1.07-.25,1.68-7.77,6.07-17.41,9.1-26.95,9.1-8.38,0-16.68-2.32-23.6-6.97l.42,3.43s-1.5.23-1.79-.74c-.41-1.4-.64-5.65-.64-5.65Z"/>
  <path class="cls-17" d="m696.72,124.87s4.45-.85,5.61-.82c1.02.02,1.19,1.52,1.19,1.52l-3.28.38c13.96,9.35,33.36,8.78,47.44-1.94.58-.44,1.53-.43,1.85,0,.21.25.53,1.07-.25,1.68-7.77,6.07-17.41,9.1-26.95,9.1-8.38,0-16.68-2.32-23.6-6.97l.42,3.43s-1.5.23-1.79-.74c-.41-1.4-.64-5.65-.64-5.65Z"/>
  <path class="cls-17" d="m697.17,216.55s4.45.85,5.61.82c1.02-.02,1.19-1.52,1.19-1.52l-3.28-.38c13.96-9.35,33.36-8.78,47.44,1.94.58.44,1.53.43,1.85,0,.21-.25.53-1.07-.25-1.68-7.77-6.07-17.41-9.1-26.95-9.1-8.38,0-16.68,2.32-23.6,6.97l.42-3.43s-1.5-.23-1.79.74c-.41,1.4-.64,5.65-.64,5.65Z"/>
  <path class="cls-17" d="m261.38,423.81c.91-.67,3.84-1.96,4.13-2.1.17.28,1.86,2.99,2.23,4.07.26.78-.84,1.33-.84,1.33l-1.42-2.7c-1.53,5.19-6.86,5.54-8.19,5.54-5.74,0-9.73-4.27-9.73-9.55,0-5.55,4.3-9.75,9.84-9.75,4.19,0,7.68,2.75,8.89,6.78.4,1.39-1.21,1.8-1.63.45-1.04-3.34-3.8-5.53-7.26-5.53-4.61,0-8.15,3.44-8.15,8.06,0,4.34,3.69,7.96,8.03,7.96,1.32,0,5.1-.22,6.71-4.41l-2.69,1.44s-.6-1.08.06-1.58Z"/>
  <path class="cls-17" d="m254.03,525.46l-2.69-1.44c1.62,4.18,5.39,4.4,6.72,4.39,4.34,0,8.03-3.63,8.02-7.97,0-4.61-3.55-8.05-8.16-8.04-3.46,0-6.22,2.2-7.25,5.54-.42,1.35-2.03.94-1.63-.44,1.21-4.03,4.69-6.79,8.88-6.79,5.55,0,9.86,4.19,9.86,9.74,0,5.27-3.98,9.56-9.72,9.56-1.33,0-6.66-.33-8.2-5.52l-1.41,2.7s-1.1-.55-.84-1.33c.37-1.08,2.06-3.79,2.23-4.07.29.14,3.22,1.43,4.13,2.1.66.5.06,1.58.06,1.58Z"/>
  <path class="cls-17" d="m248.09,113.76l1.68,2.33c1.29-11.23,16.21-11.74,18.14,1.09.19,1.28-1.46,1.56-1.66.17-1.49-10.54-13.75-10.85-15.03-1.04l2.31-1.72s.71.93.16,1.48c-.76.76-3.31,2.36-3.57,2.53-.19-.23-2.14-2.53-2.64-3.48-.35-.69.6-1.36.6-1.36Z"/>
  <path class="cls-17" d="m267.25,213.49l-1.68,2.34c-1.3-11.23-16.23-11.71-18.14,1.12-.19,1.28,1.46,1.56,1.66.17,1.48-10.54,13.73-10.87,15.03-1.06l-2.31-1.71s-.71.93-.15,1.48c.76.76,3.31,2.36,3.57,2.52.19-.23,2.14-2.53,2.63-3.49.35-.69-.61-1.36-.61-1.36Z"/>
  <g>
    <path class="cls-19" d="m267.91,447.31s.85-4.45.82-5.61c-.02-1.02-1.52-1.19-1.52-1.19l-.38,3.28c-9.35-13.96-8.78-33.36,1.94-47.44.44-.58.43-1.53,0-1.85-.25-.21-1.07-.53-1.68.25-6.07,7.77-9.1,17.41-9.1,26.95,0,8.38,2.32,16.68,6.97,23.6l-3.43-.42s-.23,1.5.74,1.79c1.4.41,5.65.64,5.65.64Z"/>
    <path class="cls-19" d="m267.91,547.31s.85-4.45.82-5.61c-.02-1.02-1.52-1.19-1.52-1.19l-.38,3.28c-9.35-13.96-8.78-33.36,1.94-47.44.44-.58.43-1.53,0-1.85-.25-.21-1.07-.53-1.68.25-6.07,7.77-9.1,17.41-9.1,26.95,0,8.38,2.32,16.68,6.97,23.6l-3.43-.42s-.23,1.5.74,1.79c1.4.41,5.65.64,5.65.64Z"/>
  </g>
  <g>
    <path class="cls-19" d="m118.53,414.17s-4.45.85-5.61.82c-1.02-.02-1.19-1.52-1.19-1.52l3.28-.38c-13.96-9.35-33.36-8.78-47.44,1.94-.58.44-1.53.43-1.85,0-.21-.25-.53-1.07.25-1.68,7.77-6.07,17.41-9.1,26.95-9.1,8.38,0,16.68,2.32,23.6,6.97l-.42-3.43s1.5-.23,1.79.74c.41,1.4.64,5.65.64,5.65Z"/>
    <path class="cls-19" d="m118.53,514.17s-4.45.85-5.61.82c-1.02-.02-1.19-1.52-1.19-1.52l3.28-.38c-13.96-9.35-33.36-8.78-47.44,1.94-.58.44-1.53.43-1.85,0-.21-.25-.53-1.07.25-1.68,7.77-6.07,17.41-9.1,26.95-9.1,8.38,0,16.68,2.32,23.6,6.97l-.42-3.43s1.5-.23,1.79.74c.41,1.4.64,5.65.64,5.65Z"/>
  </g>
  <g>
    <path class="cls-19" d="m191.95,446.88s-.85-4.45-.82-5.61c.02-1.02,1.52-1.19,1.52-1.19l.38,3.28c9.35-13.96,8.78-33.36-1.94-47.44-.44-.58-.43-1.53,0-1.85.25-.21,1.07-.53,1.68.25,6.07,7.77,9.1,17.41,9.1,26.95,0,8.38-2.32,16.68-6.97,23.6l3.43-.42s.23,1.5-.74,1.79c-1.4.41-5.65.64-5.65.64Z"/>
    <path class="cls-19" d="m191.95,546.88s-.85-4.45-.82-5.61c.02-1.02,1.52-1.19,1.52-1.19l.38,3.28c9.35-13.96,8.78-33.36-1.94-47.44-.44-.58-.43-1.53,0-1.85.25-.21,1.07-.53,1.68.25,6.07,7.77,9.1,17.41,9.1,26.95,0,8.38-2.32,16.68-6.97,23.6l3.43-.42s.23,1.5-.74,1.79c-1.4.41-5.65.64-5.65.64Z"/>
  </g>
  <g>
    <path class="cls-19" d="m366.16,447.31s-.85-4.45-.82-5.61c.02-1.02,1.52-1.19,1.52-1.19l.38,3.28c9.35-13.96,8.78-33.36-1.94-47.44-.44-.58-.43-1.53,0-1.85.25-.21,1.07-.53,1.68.25,6.07,7.77,9.1,17.41,9.1,26.95,0,8.38-2.32,16.68-6.97,23.6l3.43-.42s.23,1.5-.74,1.79c-1.4.41-5.65.64-5.65.64Z"/>
    <path class="cls-19" d="m366.16,547.31s-.85-4.45-.82-5.61c.02-1.02,1.52-1.19,1.52-1.19l.38,3.28c9.35-13.96,8.78-33.36-1.94-47.44-.44-.58-.43-1.53,0-1.85.25-.21,1.07-.53,1.68.25,6.07,7.77,9.1,17.41,9.1,26.95,0,8.38-2.32,16.68-6.97,23.6l3.43-.42s.23,1.5-.74,1.79c-1.4.41-5.65.64-5.65.64Z"/>
  </g>
  <path class="cls-19" d="m101.68,115.66s.03,1.52-.97,1.68c-1.44.23-5.68-.1-5.68-.1,0,0-.26-4.52-.08-5.66.15-1.01,1.66-.99,1.66-.99,0,0-.01,3.82,0,3.83,9.48-8.46-7.89-10.68-29.48,2.72-1.56.97-2.88-.82-1.5-1.64,27.48-16.29,44.12-9.59,32.35.08l3.7.08Z"/>
  <path class="cls-19" d="m101.68,215.66s.03,1.52-.97,1.68c-1.44.23-5.68-.1-5.68-.1,0,0-.26-4.52-.08-5.66.15-1.01,1.66-.99,1.66-.99,0,0-.01,3.82,0,3.83,9.48-8.46-7.89-10.68-29.48,2.72-1.56.97-2.88-.82-1.5-1.64,27.48-16.29,44.12-9.59,32.35.08l3.7.08Z"/>
  <path class="cls-19" d="m188.53,129.78s-1.52.03-1.68-.97c-.23-1.44.1-5.68.1-5.68,0,0,4.52-.26,5.66-.08,1.01.15.99,1.66.99,1.66,0,0-3.82-.01-3.83,0,8.46,9.48,10.68-7.89-2.72-29.48-.97-1.56.82-2.88,1.64-1.5,16.29,27.48,9.59,44.12-.08,32.35l-.08,3.7Z"/>
  <path class="cls-19" d="m188.53,229.78s-1.52.03-1.68-.97c-.23-1.44.1-5.68.1-5.68,0,0,4.52-.26,5.66-.08,1.01.15.99,1.66.99,1.66,0,0-3.82-.01-3.83,0,8.46,9.48,10.68-7.89-2.72-29.48-.97-1.56.82-2.88,1.64-1.5,16.29,27.48,9.59,44.12-.08,32.35l-.08,3.7Z"/>
  <path class="cls-19" d="m366.48,129.78s-1.52.03-1.68-.97c-.23-1.44.1-5.68.1-5.68,0,0,4.52-.26,5.66-.08,1.01.15.99,1.66.99,1.66,0,0-3.82-.01-3.83,0,8.46,9.48,10.68-7.89-2.72-29.48-.97-1.56.82-2.88,1.64-1.5,16.29,27.48,9.59,44.12-.08,32.35l-.08,3.7Z"/>
  <path class="cls-19" d="m366.48,229.78s-1.52.03-1.68-.97c-.23-1.44.1-5.68.1-5.68,0,0,4.52-.26,5.66-.08,1.01.15.99,1.66.99,1.66,0,0-3.82-.01-3.83,0,8.46,9.48,10.68-7.89-2.72-29.48-.97-1.56.82-2.88,1.64-1.5,16.29,27.48,9.59,44.12-.08,32.35l-.08,3.7Z"/>
  <path class="cls-19" d="m267.69,229.78s1.52.03,1.68-.97c.23-1.44-.1-5.68-.1-5.68,0,0-4.52-.26-5.66-.08-1.01.15-.99,1.66-.99,1.66,0,0,3.82-.01,3.83,0-8.46,9.48-10.68-7.89,2.72-29.48.97-1.56-.82-2.88-1.64-1.5-16.29,27.48-9.59,44.12.08,32.35l.08,3.7Z"/>
  <path class="cls-19" d="m267.69,129.78s1.52.03,1.68-.97c.23-1.44-.1-5.68-.1-5.68,0,0-4.52-.26-5.66-.08-1.01.15-.99,1.66-.99,1.66,0,0,3.82-.01,3.83,0-8.46,9.48-10.68-7.89,2.72-29.48.97-1.56-.82-2.88-1.64-1.5-16.29,27.48-9.59,44.12.08,32.35l.08,3.7Z"/>
  <g>
    <path class="cls-15" d="m92,452.86c3.22,0,3.22-5,0-5s-3.22,5,0,5h0Z"/>
    <path class="cls-15" d="m122,422.86c3.22,0,3.22-5,0-5s-3.22,5,0,5h0Z"/>
    <path class="cls-15" d="m92,392.86c3.22,0,3.22-5,0-5s-3.22,5,0,5h0Z"/>
    <path class="cls-15" d="m62,422.86c3.22,0,3.22-5,0-5s-3.22,5,0,5h0Z"/>
    <path class="cls-15" d="m92,421.48c1.45,0,1.45-2.25,0-2.25s-1.45,2.25,0,2.25h0Z"/>
  </g>
  <g>
    <path class="cls-15" d="m92,552.86c3.22,0,3.22-5,0-5s-3.22,5,0,5h0Z"/>
    <path class="cls-15" d="m122,522.86c3.22,0,3.22-5,0-5s-3.22,5,0,5h0Z"/>
    <path class="cls-15" d="m92,492.86c3.22,0,3.22-5,0-5s-3.22,5,0,5h0Z"/>
    <path class="cls-15" d="m62,522.86c3.22,0,3.22-5,0-5s-3.22,5,0,5h0Z"/>
    <path class="cls-15" d="m92,521.48c1.45,0,1.45-2.25,0-2.25s-1.45,2.25,0,2.25h0Z"/>
  </g>
  <g>
    <path class="cls-15" d="m92,152.86c3.22,0,3.22-5,0-5s-3.22,5,0,5h0Z"/>
    <path class="cls-15" d="m122,122.86c3.22,0,3.22-5,0-5s-3.22,5,0,5h0Z"/>
    <path class="cls-15" d="m92,92.86c3.22,0,3.22-5,0-5s-3.22,5,0,5h0Z"/>
    <path class="cls-15" d="m62,122.86c3.22,0,3.22-5,0-5s-3.22,5,0,5h0Z"/>
    <path class="cls-15" d="m92,121.48c1.45,0,1.45-2.25,0-2.25s-1.45,2.25,0,2.25h0Z"/>
  </g>
  <g>
    <path class="cls-15" d="m92,252.86c3.22,0,3.22-5,0-5s-3.22,5,0,5h0Z"/>
    <path class="cls-15" d="m122,222.86c3.22,0,3.22-5,0-5s-3.22,5,0,5h0Z"/>
    <path class="cls-15" d="m92,192.86c3.22,0,3.22-5,0-5s-3.22,5,0,5h0Z"/>
    <path class="cls-15" d="m62,222.86c3.22,0,3.22-5,0-5s-3.22,5,0,5h0Z"/>
    <path class="cls-15" d="m92,221.48c1.45,0,1.45-2.25,0-2.25s-1.45,2.25,0,2.25h0Z"/>
  </g>
  <g>
    <path class="cls-15" d="m182,452.86c3.22,0,3.22-5,0-5s-3.22,5,0,5h0Z"/>
    <path class="cls-15" d="m212,422.86c3.22,0,3.22-5,0-5s-3.22,5,0,5h0Z"/>
    <path class="cls-15" d="m182,392.86c3.22,0,3.22-5,0-5s-3.22,5,0,5h0Z"/>
    <path class="cls-15" d="m152,422.86c3.22,0,3.22-5,0-5s-3.22,5,0,5h0Z"/>
    <path class="cls-15" d="m182,421.48c1.45,0,1.45-2.25,0-2.25s-1.45,2.25,0,2.25h0Z"/>
  </g>
  <g>
    <path class="cls-15" d="m182,552.86c3.22,0,3.22-5,0-5s-3.22,5,0,5h0Z"/>
    <path class="cls-15" d="m212,522.86c3.22,0,3.22-5,0-5s-3.22,5,0,5h0Z"/>
    <path class="cls-15" d="m182,492.86c3.22,0,3.22-5,0-5s-3.22,5,0,5h0Z"/>
    <path class="cls-15" d="m152,522.86c3.22,0,3.22-5,0-5s-3.22,5,0,5h0Z"/>
    <path class="cls-15" d="m182,521.48c1.45,0,1.45-2.25,0-2.25s-1.45,2.25,0,2.25h0Z"/>
  </g>
  <g>
    <path class="cls-15" d="m182,152.86c3.22,0,3.22-5,0-5s-3.22,5,0,5h0Z"/>
    <path class="cls-15" d="m212,122.86c3.22,0,3.22-5,0-5s-3.22,5,0,5h0Z"/>
    <path class="cls-15" d="m182,92.86c3.22,0,3.22-5,0-5s-3.22,5,0,5h0Z"/>
    <path class="cls-15" d="m152,122.86c3.22,0,3.22-5,0-5s-3.22,5,0,5h0Z"/>
    <path class="cls-15" d="m182,121.48c1.45,0,1.45-2.25,0-2.25s-1.45,2.25,0,2.25h0Z"/>
  </g>
  <g>
    <path class="cls-15" d="m182,252.86c3.22,0,3.22-5,0-5s-3.22,5,0,5h0Z"/>
    <path class="cls-15" d="m212,222.86c3.22,0,3.22-5,0-5s-3.22,5,0,5h0Z"/>
    <path class="cls-15" d="m182,192.86c3.22,0,3.22-5,0-5s-3.22,5,0,5h0Z"/>
    <path class="cls-15" d="m152,222.86c3.22,0,3.22-5,0-5s-3.22,5,0,5h0Z"/>
    <path class="cls-15" d="m182,221.48c1.45,0,1.45-2.25,0-2.25s-1.45,2.25,0,2.25h0Z"/>
  </g>
  <g>
    <path class="cls-15" d="m362,452.86c3.22,0,3.22-5,0-5s-3.22,5,0,5h0Z"/>
    <path class="cls-15" d="m392,422.86c3.22,0,3.22-5,0-5s-3.22,5,0,5h0Z"/>
    <path class="cls-15" d="m362,392.86c3.22,0,3.22-5,0-5s-3.22,5,0,5h0Z"/>
    <path class="cls-15" d="m332,422.86c3.22,0,3.22-5,0-5s-3.22,5,0,5h0Z"/>
    <path class="cls-15" d="m362,421.48c1.45,0,1.45-2.25,0-2.25s-1.45,2.25,0,2.25h0Z"/>
  </g>
  <g>
    <path class="cls-15" d="m362,552.86c3.22,0,3.22-5,0-5s-3.22,5,0,5h0Z"/>
    <path class="cls-15" d="m392,522.86c3.22,0,3.22-5,0-5s-3.22,5,0,5h0Z"/>
    <path class="cls-15" d="m362,492.86c3.22,0,3.22-5,0-5s-3.22,5,0,5h0Z"/>
    <path class="cls-15" d="m332,522.86c3.22,0,3.22-5,0-5s-3.22,5,0,5h0Z"/>
    <path class="cls-15" d="m362,521.48c1.45,0,1.45-2.25,0-2.25s-1.45,2.25,0,2.25h0Z"/>
  </g>
  <g>
    <path class="cls-15" d="m362,152.86c3.22,0,3.22-5,0-5s-3.22,5,0,5h0Z"/>
    <path class="cls-15" d="m392,122.86c3.22,0,3.22-5,0-5s-3.22,5,0,5h0Z"/>
    <path class="cls-15" d="m362,92.86c3.22,0,3.22-5,0-5s-3.22,5,0,5h0Z"/>
    <path class="cls-15" d="m332,122.86c3.22,0,3.22-5,0-5s-3.22,5,0,5h0Z"/>
    <path class="cls-15" d="m362,121.48c1.45,0,1.45-2.25,0-2.25s-1.45,2.25,0,2.25h0Z"/>
  </g>
  <g>
    <path class="cls-15" d="m362,252.86c3.22,0,3.22-5,0-5s-3.22,5,0,5h0Z"/>
    <path class="cls-15" d="m392,222.86c3.22,0,3.22-5,0-5s-3.22,5,0,5h0Z"/>
    <path class="cls-15" d="m362,192.86c3.22,0,3.22-5,0-5s-3.22,5,0,5h0Z"/>
    <path class="cls-15" d="m332,222.86c3.22,0,3.22-5,0-5s-3.22,5,0,5h0Z"/>
    <path class="cls-15" d="m362,221.48c1.45,0,1.45-2.25,0-2.25s-1.45,2.25,0,2.25h0Z"/>
  </g>
  <g>
    <path class="cls-15" d="m272,452.86c3.22,0,3.22-5,0-5s-3.22,5,0,5h0Z"/>
    <path class="cls-15" d="m302,422.86c3.22,0,3.22-5,0-5s-3.22,5,0,5h0Z"/>
    <path class="cls-15" d="m272,392.86c3.22,0,3.22-5,0-5s-3.22,5,0,5h0Z"/>
    <path class="cls-15" d="m242,422.86c3.22,0,3.22-5,0-5s-3.22,5,0,5h0Z"/>
    <path class="cls-15" d="m272,421.48c1.45,0,1.45-2.25,0-2.25s-1.45,2.25,0,2.25h0Z"/>
  </g>
  <g>
    <path class="cls-15" d="m272,552.86c3.22,0,3.22-5,0-5s-3.22,5,0,5h0Z"/>
    <path class="cls-15" d="m302,522.86c3.22,0,3.22-5,0-5s-3.22,5,0,5h0Z"/>
    <path class="cls-15" d="m272,492.86c3.22,0,3.22-5,0-5s-3.22,5,0,5h0Z"/>
    <path class="cls-15" d="m242,522.86c3.22,0,3.22-5,0-5s-3.22,5,0,5h0Z"/>
    <path class="cls-15" d="m272,521.48c1.45,0,1.45-2.25,0-2.25s-1.45,2.25,0,2.25h0Z"/>
  </g>
  <g>
    <path class="cls-15" d="m272,152.86c3.22,0,3.22-5,0-5s-3.22,5,0,5h0Z"/>
    <path class="cls-15" d="m302,122.86c3.22,0,3.22-5,0-5s-3.22,5,0,5h0Z"/>
    <path class="cls-15" d="m272,92.86c3.22,0,3.22-5,0-5s-3.22,5,0,5h0Z"/>
    <path class="cls-15" d="m242,122.86c3.22,0,3.22-5,0-5s-3.22,5,0,5h0Z"/>
    <path class="cls-15" d="m272,121.48c1.45,0,1.45-2.25,0-2.25s-1.45,2.25,0,2.25h0Z"/>
  </g>
  <g>
    <path class="cls-15" d="m272,252.86c3.22,0,3.22-5,0-5s-3.22,5,0,5h0Z"/>
    <path class="cls-15" d="m302,222.86c3.22,0,3.22-5,0-5s-3.22,5,0,5h0Z"/>
    <path class="cls-15" d="m272,192.86c3.22,0,3.22-5,0-5s-3.22,5,0,5h0Z"/>
    <path class="cls-15" d="m242,222.86c3.22,0,3.22-5,0-5s-3.22,5,0,5h0Z"/>
    <path class="cls-15" d="m272,221.48c1.45,0,1.45-2.25,0-2.25s-1.45,2.25,0,2.25h0Z"/>
  </g>
  <g>
    <rect class="cls-19" x="360.7" y="422.05" width="2.59" height="25.25" rx=".99" ry=".99"/>
    <rect class="cls-17" x="335.05" y="419.06" width="25.25" height="2.59" rx=".99" ry=".99"/>
  </g>
  <g>
    <rect class="cls-19" x="360.7" y="522.05" width="2.59" height="25.25" rx=".99" ry=".99"/>
    <rect class="cls-17" x="335.05" y="519.06" width="25.25" height="2.59" rx=".99" ry=".99"/>
  </g>
  <g>
    <rect class="cls-19" x="360.7" y="122.05" width="2.59" height="25.25" rx=".99" ry=".99"/>
    <rect class="cls-17" x="335.05" y="119.06" width="25.25" height="2.59" rx=".99" ry=".99"/>
  </g>
  <g>
    <rect class="cls-19" x="360.7" y="222.05" width="2.59" height="25.25" rx=".99" ry=".99"/>
    <rect class="cls-17" x="335.05" y="219.06" width="25.25" height="2.59" rx=".99" ry=".99"/>
  </g>
  <g>
    <rect class="cls-19" x="270.7" y="422.05" width="2.59" height="25.25" rx=".99" ry=".99"/>
    <rect class="cls-17" x="245.05" y="419.06" width="25.25" height="2.59" rx=".99" ry=".99"/>
  </g>
  <g>
    <rect class="cls-19" x="270.7" y="522.05" width="2.59" height="25.25" rx=".99" ry=".99"/>
    <rect class="cls-17" x="245.05" y="519.06" width="25.25" height="2.59" rx=".99" ry=".99"/>
  </g>
  <g>
    <rect class="cls-19" x="270.7" y="122.05" width="2.59" height="25.25" rx=".99" ry=".99"/>
    <rect class="cls-17" x="245.05" y="119.06" width="25.25" height="2.59" rx=".99" ry=".99"/>
  </g>
  <g>
    <rect class="cls-19" x="270.7" y="222.05" width="2.59" height="25.25" rx=".99" ry=".99"/>
    <rect class="cls-17" x="245.05" y="219.06" width="25.25" height="2.59" rx=".99" ry=".99"/>
  </g>
  <g>
    <rect class="cls-19" x="93.7" y="419.06" width="25.25" height="2.59" rx=".99" ry=".99"/>
    <rect class="cls-17" x="65.05" y="419.06" width="25.25" height="2.59" rx=".99" ry=".99"/>
  </g>
  <g>
    <rect class="cls-19" x="93.7" y="519.06" width="25.25" height="2.59" rx=".99" ry=".99"/>
    <rect class="cls-17" x="65.05" y="519.06" width="25.25" height="2.59" rx=".99" ry=".99"/>
  </g>
  <g>
    <rect class="cls-19" x="93.7" y="119.06" width="25.25" height="2.59" rx=".99" ry=".99"/>
    <rect class="cls-17" x="65.05" y="119.06" width="25.25" height="2.59" rx=".99" ry=".99"/>
  </g>
  <g>
    <rect class="cls-19" x="93.7" y="219.06" width="25.25" height="2.59" rx=".99" ry=".99"/>
    <rect class="cls-17" x="65.05" y="219.06" width="25.25" height="2.59" rx=".99" ry=".99"/>
  </g>
  <g>
    <rect class="cls-17" x="178.72" y="121.84" width="2.59" height="25.25" rx=".99" ry=".99"/>
    <rect class="cls-19" x="182.69" y="121.84" width="2.59" height="25.25" rx=".99" ry=".99"/>
  </g>
  <g>
    <rect class="cls-17" x="178.72" y="221.84" width="2.59" height="25.25" rx=".99" ry=".99"/>
    <rect class="cls-19" x="182.69" y="221.84" width="2.59" height="25.25" rx=".99" ry=".99"/>
  </g>
  <g>
    <rect class="cls-19" x="186.32" y="421.84" width="2.59" height="25.25" rx=".99" ry=".99"/>
    <rect class="cls-17" x="175.08" y="421.84" width="2.59" height="25.25" rx=".99" ry=".99"/>
  </g>
  <g>
    <rect class="cls-19" x="186.32" y="521.84" width="2.59" height="25.25" rx=".99" ry=".99"/>
    <rect class="cls-17" x="175.08" y="521.84" width="2.59" height="25.25" rx=".99" ry=".99"/>
  </g>
  <path class="cls-17" d="m73.97,423.87c-.91-.67-3.84-1.96-4.13-2.1-.16.28-1.86,2.99-2.23,4.07-.26.78.84,1.33.84,1.33l1.42-2.7c1.53,5.19,6.87,5.53,8.19,5.53,5.74,0,9.73-4.28,9.73-9.56,0-5.55-4.31-9.75-9.85-9.75-4.19,0-7.68,2.75-8.89,6.79-.4,1.39,1.21,1.8,1.63.45,1.03-3.34,3.8-5.53,7.25-5.53,4.61,0,8.16,3.44,8.16,8.05,0,4.34-3.69,7.96-8.03,7.96-1.32,0-5.1-.22-6.72-4.4l2.69,1.44s.6-1.08-.06-1.58Z"/>
  <path class="cls-17" d="m81.32,525.45l2.69-1.44c-1.61,4.18-5.39,4.4-6.72,4.4-4.34,0-8.03-3.62-8.03-7.96,0-4.61,3.54-8.05,8.16-8.05,3.46,0,6.22,2.19,7.25,5.53.42,1.35,2.03.94,1.63-.45-1.21-4.03-4.7-6.79-8.89-6.79-5.55,0-9.85,4.2-9.85,9.75,0,5.27,3.99,9.56,9.73,9.56,1.33,0,6.66-.34,8.19-5.53l1.42,2.7s1.1-.55.84-1.33c-.37-1.08-2.06-3.79-2.23-4.07-.29.14-3.22,1.43-4.13,2.1-.66.5-.06,1.58-.06,1.58Z"/>
  <path class="cls-17" d="m68.1,127.43l1.68-2.34c1.3,11.23,16.22,11.73,18.14-1.1.19-1.28-1.46-1.56-1.66-.17-1.49,10.54-13.74,10.86-15.03,1.05l2.31,1.72s.71-.93.16-1.48c-.76-.76-3.31-2.36-3.57-2.52-.19.23-2.14,2.53-2.64,3.48-.35.69.61,1.36.61,1.36Z"/>
  <path class="cls-17" d="m87.25,227.43l-1.68-2.34c-1.3,11.23-16.22,11.73-18.14-1.1-.19-1.28,1.46-1.56,1.66-.17,1.49,10.54,13.74,10.86,15.03,1.05l-2.31,1.72s-.71-.93-.16-1.48c.76-.76,3.31-2.36,3.57-2.52.19.23,2.14,2.53,2.64,3.48.35.69-.61,1.36-.61,1.36Z"/>
  <path class="cls-17" d="m343.97,423.87c-.91-.67-3.84-1.96-4.13-2.1-.16.28-1.86,2.99-2.23,4.07-.26.78.84,1.33.84,1.33l1.42-2.7c1.53,5.19,6.87,5.53,8.19,5.53,5.74,0,9.73-4.28,9.73-9.56,0-5.55-4.31-9.75-9.85-9.75-4.19,0-7.68,2.75-8.89,6.79-.4,1.39,1.21,1.8,1.63.45,1.03-3.34,3.8-5.53,7.25-5.53,4.61,0,8.16,3.44,8.16,8.05,0,4.34-3.69,7.96-8.03,7.96-1.32,0-5.1-.22-6.72-4.4l2.69,1.44s.6-1.08-.06-1.58Z"/>
  <path class="cls-17" d="m351.32,525.45l2.69-1.44c-1.61,4.18-5.39,4.4-6.72,4.4-4.34,0-8.03-3.62-8.03-7.96,0-4.61,3.54-8.05,8.16-8.05,3.46,0,6.22,2.19,7.25,5.53.42,1.35,2.03.94,1.63-.45-1.21-4.03-4.7-6.79-8.89-6.79-5.55,0-9.85,4.2-9.85,9.75,0,5.27,3.99,9.56,9.73,9.56,1.33,0,6.66-.34,8.19-5.53l1.42,2.7s1.1-.55.84-1.33c-.37-1.08-2.06-3.79-2.23-4.07-.29.14-3.22,1.43-4.13,2.1-.66.5-.06,1.58-.06,1.58Z"/>
  <path class="cls-17" d="m338.1,127.43l1.68-2.34c1.3,11.23,16.22,11.73,18.14-1.1.19-1.28-1.46-1.56-1.66-.17-1.49,10.54-13.74,10.86-15.03,1.05l2.31,1.72s.71-.93.16-1.48c-.76-.76-3.31-2.36-3.57-2.52-.19.23-2.14,2.53-2.64,3.48-.35.69.61,1.36.61,1.36Z"/>
  <path class="cls-17" d="m357.25,227.43l-1.68-2.34c-1.3,11.23-16.22,11.73-18.14-1.1-.19-1.28,1.46-1.56,1.66-.17,1.49,10.54,13.74,10.86,15.03,1.05l-2.31,1.72s-.71-.93-.16-1.48c.76-.76,3.31-2.36,3.57-2.52.19.23,2.14,2.53,2.64,3.48.35.69-.61,1.36-.61,1.36Z"/>
  <path class="cls-17" d="m172.86,430.77c.67-.91,1.96-3.84,2.1-4.13-.28-.16-2.99-1.86-4.07-2.23-.78-.26-1.33.84-1.33.84l2.7,1.42c-5.19,1.53-5.53,6.87-5.53,8.19,0,5.74,4.28,9.73,9.56,9.73,5.55,0,9.75-4.31,9.75-9.85,0-4.19-2.75-7.68-6.79-8.89-1.39-.4-1.8,1.21-.45,1.63,3.34,1.03,5.53,3.8,5.53,7.25,0,4.61-3.44,8.16-8.05,8.16-4.34,0-7.96-3.69-7.96-8.03,0-1.32.22-5.1,4.4-6.72l-1.44,2.69s1.08.6,1.58-.06Z"/>
  <path class="cls-17" d="m171.28,538.12l1.44,2.69c-4.18-1.61-4.4-5.39-4.4-6.72,0-4.34,3.62-8.03,7.96-8.03,4.61,0,8.05,3.54,8.05,8.16,0,3.46-2.19,6.22-5.53,7.25-1.35.42-.94,2.03.45,1.63,4.03-1.21,6.79-4.7,6.79-8.89,0-5.55-4.2-9.85-9.75-9.85-5.27,0-9.56,3.99-9.56,9.73,0,1.33.34,6.66,5.53,8.19l-2.7,1.42s.55,1.1,1.33.84c1.08-.37,3.79-2.06,4.07-2.23-.14-.29-1.43-3.22-2.1-4.13-.5-.66-1.58-.06-1.58-.06Z"/>
  <path class="cls-17" d="m173.08,124.89l2.34,1.68c-11.23,1.3-11.73,16.22,1.1,18.14,1.28.19,1.56-1.46.17-1.66-10.54-1.49-10.86-13.74-1.05-15.03l-1.72,2.31s.93.71,1.48.16c.76-.76,2.36-3.31,2.52-3.57-.23-.19-2.53-2.14-3.48-2.64-.69-.35-1.36.61-1.36.61Z"/>
  <path class="cls-17" d="m173.08,244.05l2.34-1.68c-11.23-1.3-11.73-16.22,1.1-18.14,1.28-.19,1.56,1.46.17,1.66-10.54,1.49-10.86,13.74-1.05,15.03l-1.72-2.31s.93-.71,1.48-.16c.76.76,2.36,3.31,2.52,3.57-.23.19-2.53,2.14-3.48,2.64-.69.35-1.36-.61-1.36-.61Z"/>
  <path class="cls-15" d="m628.24,168.75c.06-.29,1.97-5.54,3.02-7.94.32-.73.61-.72.74-.72s.42,0,.74.72c1.05,2.4,2.96,7.64,3.02,7.94.23,1-.08,1.16-.44,1.3-.28.13-.86.02-1.12-.7-.16-.42-2.2-5.86-2.2-5.86,0,0-2.05,5.44-2.2,5.86-.25.72-.83.82-1.12.7-.36-.15-.67-.3-.44-1.3Z"/>
  <path class="cls-15" d="m718.24,168.75c.06-.29,1.97-5.54,3.02-7.94.32-.73.61-.72.74-.72s.42,0,.74.72c1.05,2.4,2.96,7.64,3.02,7.94.23,1-.08,1.16-.44,1.3-.28.13-.86.02-1.12-.7-.16-.42-2.2-5.86-2.2-5.86,0,0-2.05,5.44-2.2,5.86-.25.72-.83.82-1.12.7-.36-.15-.67-.3-.44-1.3Z"/>
  <path class="cls-15" d="m546.32,161.77c-.5,2.51-1.03,3.37-3.39,3.82-.04,0-.07.04-.08.07v3.6c0,.22-.1.44-.25.6s-.36.24-.59.24-.43-.09-.61-.24c-.16-.16-.24-.38-.24-.6v-3.6s-.05-.06-.09-.07c-2.35-.45-2.88-1.31-3.38-3.82-.08-.36-.04-.65.12-.83.17-.21.42-.24.56-.24.24,0,.43.22.56.45.13.23.2.47.21.54.25,1.71.73,2.29,1.85,2.29h.09s.07-.02.09-.06v-3.05c.12-.28.2-.48.31-.6.07-.06.15-.1.23-.13.05-.02.1-.03.14-.04.11-.02.24-.02.33,0,.05,0,.1.02.15.04.07,0,.15.06.22.13.12.12.21.31.3.6v.03s.02.03.02.05v2.94s0,.02,0,.04c0,.03.05.05.09.05,1.2.04,1.68-.54,1.93-2.29.03-.13.28-.99.76-.99h0c.14,0,.39.03.56.24.15.19.19.47.12.83Z"/>
  <path class="cls-15" d="m455.28,162.88c-.71-.51-1.55-.82-2.45-.91v-1.11c0-.42-.34-.76-.77-.76h-.12c-.43,0-.77.34-.77.76v1.11c-.9.09-1.75.4-2.45.91-.71.48-1.09,1.08-1.14,1.75-.06.85.42,1.62.85,2.01.7.66,1.64,1.05,2.74,1.14v1.55c0,.42.34.76.77.76h.12c.43,0,.77-.34.77-.76v-1.55c1.1-.09,2.04-.48,2.74-1.14.43-.39.91-1.17.85-2.01-.05-.68-.43-1.26-1.14-1.75Zm-2.45,1.84c0-.41,0-.75.04-1.08,0-.11.1-.2.21-.21h.07c.8,0,1.4.28,1.68.79.25.45.22,1.01-.09,1.45-.34.52-.97.77-1.72.69-.1,0-.18-.1-.18-.21,0-.27,0-.56,0-.85,0-.2,0-.39,0-.59Zm-3.66-.49c.27-.51.87-.79,1.67-.79h.07c.12,0,.21.1.22.21.03.33.04.69.04,1.08,0,.2,0,.4,0,.6,0,.28,0,.57,0,.84,0,.11-.08.2-.18.21-.75.09-1.37-.17-1.72-.69-.3-.44-.33-1-.09-1.45Z"/>
  <path class="cls-15" d="m628.24,268.75c.06-.29,1.97-5.54,3.02-7.94.32-.73.61-.72.74-.72s.42,0,.74.72c1.05,2.4,2.96,7.64,3.02,7.94.23,1-.08,1.16-.44,1.3-.28.13-.86.02-1.12-.7-.16-.42-2.2-5.86-2.2-5.86,0,0-2.05,5.44-2.2,5.86-.25.72-.83.82-1.12.7-.36-.15-.67-.3-.44-1.3Z"/>
  <path class="cls-15" d="m718.24,268.75c.06-.29,1.97-5.54,3.02-7.94.32-.73.61-.72.74-.72s.42,0,.74.72c1.05,2.4,2.96,7.64,3.02,7.94.23,1-.08,1.16-.44,1.3-.28.13-.86.02-1.12-.7-.16-.42-2.2-5.86-2.2-5.86,0,0-2.05,5.44-2.2,5.86-.25.72-.83.82-1.12.7-.36-.15-.67-.3-.44-1.3Z"/>
  <path class="cls-15" d="m546.32,261.77c-.5,2.51-1.03,3.37-3.39,3.82-.04,0-.07.04-.08.07v3.6c0,.22-.1.44-.25.6s-.36.24-.59.24-.43-.09-.61-.24c-.16-.16-.24-.38-.24-.6v-3.6s-.05-.06-.09-.07c-2.35-.45-2.88-1.31-3.38-3.82-.08-.36-.04-.65.12-.83.17-.21.42-.24.56-.24.24,0,.43.22.56.45.13.23.2.47.21.54.25,1.71.73,2.29,1.85,2.29h.09s.07-.02.09-.06v-3.05c.12-.28.2-.48.31-.6.07-.06.15-.1.23-.13.05-.02.1-.03.14-.04.11-.02.24-.02.33,0,.05,0,.1.02.15.04.07,0,.15.06.22.13.12.12.21.31.3.6v.03s.02.03.02.05v2.94s0,.02,0,.04c0,.03.05.05.09.05,1.2.04,1.68-.54,1.93-2.29.03-.13.28-.99.76-.99h0c.14,0,.39.03.56.24.15.19.19.47.12.83Z"/>
  <path class="cls-15" d="m455.28,262.88c-.71-.51-1.55-.82-2.45-.91v-1.11c0-.42-.34-.76-.77-.76h-.12c-.43,0-.77.34-.77.76v1.11c-.9.09-1.75.4-2.45.91-.71.48-1.09,1.08-1.14,1.75-.06.85.42,1.62.85,2.01.7.66,1.64,1.05,2.74,1.14v1.55c0,.42.34.76.77.76h.12c.43,0,.77-.34.77-.76v-1.55c1.1-.09,2.04-.48,2.74-1.14.43-.39.91-1.17.85-2.01-.05-.68-.43-1.26-1.14-1.75Zm-2.45,1.84c0-.41,0-.75.04-1.08,0-.11.1-.2.21-.21h.07c.8,0,1.4.28,1.68.79.25.45.22,1.01-.09,1.45-.34.52-.97.77-1.72.69-.1,0-.18-.1-.18-.21,0-.27,0-.56,0-.85,0-.2,0-.39,0-.59Zm-3.66-.49c.27-.51.87-.79,1.67-.79h.07c.12,0,.21.1.22.21.03.33.04.69.04,1.08,0,.2,0,.4,0,.6,0,.28,0,.57,0,.84,0,.11-.08.2-.18.21-.75.09-1.37-.17-1.72-.69-.3-.44-.33-1-.09-1.45Z"/>
  <path class="cls-15" d="m358.24,468.75c.06-.29,1.97-5.54,3.02-7.94.32-.73.61-.72.74-.72s.42,0,.74.72c1.05,2.4,2.96,7.64,3.02,7.94.23,1-.08,1.16-.44,1.3-.28.13-.86.02-1.12-.7-.16-.42-2.2-5.86-2.2-5.86,0,0-2.05,5.44-2.2,5.86-.25.72-.83.82-1.12.7-.36-.15-.67-.3-.44-1.3Z"/>
  <path class="cls-15" d="m268.24,468.75c.06-.29,1.97-5.54,3.02-7.94.32-.73.61-.72.74-.72s.42,0,.74.72c1.05,2.4,2.96,7.64,3.02,7.94.23,1-.08,1.16-.44,1.3-.28.13-.86.02-1.12-.7-.16-.42-2.2-5.86-2.2-5.86,0,0-2.05,5.44-2.2,5.86-.25.72-.83.82-1.12.7-.36-.15-.67-.3-.44-1.3Z"/>
  <path class="cls-15" d="m186.32,461.77c-.5,2.51-1.03,3.37-3.39,3.82-.04,0-.07.04-.08.07v3.6c0,.22-.1.44-.25.6s-.36.24-.59.24-.43-.09-.61-.24c-.16-.16-.24-.38-.24-.6v-3.6s-.05-.06-.09-.07c-2.35-.45-2.88-1.31-3.38-3.82-.08-.36-.04-.65.12-.83.17-.21.42-.24.56-.24.24,0,.43.22.56.45.13.23.2.47.21.54.25,1.71.73,2.29,1.85,2.29h.09s.07-.02.09-.06v-3.05c.12-.28.2-.48.31-.6.07-.06.15-.1.23-.13.05-.02.1-.03.14-.04.11-.02.24-.02.33,0,.05,0,.1.02.15.04.07,0,.15.06.22.13.12.12.21.31.3.6v.03s.02.03.02.05v2.94s0,.02,0,.04c0,.03.05.05.09.05,1.2.04,1.68-.54,1.93-2.29.03-.13.28-.99.76-.99h0c.14,0,.39.03.56.24.15.19.19.47.12.83Z"/>
  <path class="cls-15" d="m95.28,462.88c-.71-.51-1.55-.82-2.45-.91v-1.11c0-.42-.34-.76-.77-.76h-.12c-.43,0-.77.34-.77.76v1.11c-.9.09-1.75.4-2.45.91-.71.48-1.09,1.08-1.14,1.75-.06.85.42,1.62.85,2.01.7.66,1.64,1.05,2.74,1.14v1.55c0,.42.34.76.77.76h.12c.43,0,.77-.34.77-.76v-1.55c1.1-.09,2.04-.48,2.74-1.14.43-.39.91-1.17.85-2.01-.05-.68-.43-1.26-1.14-1.75Zm-2.45,1.84c0-.41,0-.75.04-1.08,0-.11.1-.2.21-.21h.07c.8,0,1.4.28,1.68.79.25.45.22,1.01-.09,1.45-.34.52-.97.77-1.72.69-.1,0-.18-.1-.18-.21,0-.27,0-.56,0-.85,0-.2,0-.39,0-.59Zm-3.66-.49c.27-.51.87-.79,1.67-.79h.07c.12,0,.21.1.22.21.03.33.04.69.04,1.08,0,.2,0,.4,0,.6,0,.28,0,.57,0,.84,0,.11-.08.2-.18.21-.75.09-1.37-.17-1.72-.69-.3-.44-.33-1-.09-1.45Z"/>
  <path class="cls-15" d="m358.24,568.75c.06-.29,1.97-5.54,3.02-7.94.32-.73.61-.72.74-.72s.42,0,.74.72c1.05,2.4,2.96,7.64,3.02,7.94.23,1-.08,1.16-.44,1.3-.28.13-.86.02-1.12-.7-.16-.42-2.2-5.86-2.2-5.86,0,0-2.05,5.44-2.2,5.86-.25.72-.83.82-1.12.7-.36-.15-.67-.3-.44-1.3Z"/>
  <path class="cls-15" d="m268.24,568.75c.06-.29,1.97-5.54,3.02-7.94.32-.73.61-.72.74-.72s.42,0,.74.72c1.05,2.4,2.96,7.64,3.02,7.94.23,1-.08,1.16-.44,1.3-.28.13-.86.02-1.12-.7-.16-.42-2.2-5.86-2.2-5.86,0,0-2.05,5.44-2.2,5.86-.25.72-.83.82-1.12.7-.36-.15-.67-.3-.44-1.3Z"/>
  <path class="cls-15" d="m186.32,561.77c-.5,2.51-1.03,3.37-3.39,3.82-.04,0-.07.04-.08.07v3.6c0,.22-.1.44-.25.6s-.36.24-.59.24-.43-.09-.61-.24c-.16-.16-.24-.38-.24-.6v-3.6s-.05-.06-.09-.07c-2.35-.45-2.88-1.31-3.38-3.82-.08-.36-.04-.65.12-.83.17-.21.42-.24.56-.24.24,0,.43.22.56.45.13.23.2.47.21.54.25,1.71.73,2.29,1.85,2.29h.09s.07-.02.09-.06v-3.05c.12-.28.2-.48.31-.6.07-.06.15-.1.23-.13.05-.02.1-.03.14-.04.11-.02.24-.02.33,0,.05,0,.1.02.15.04.07,0,.15.06.22.13.12.12.21.31.3.6v.03s.02.03.02.05v2.94s0,.02,0,.04c0,.03.05.05.09.05,1.2.04,1.68-.54,1.93-2.29.03-.13.28-.99.76-.99h0c.14,0,.39.03.56.24.15.19.19.47.12.83Z"/>
  <path class="cls-15" d="m95.28,562.88c-.71-.51-1.55-.82-2.45-.91v-1.11c0-.42-.34-.76-.77-.76h-.12c-.43,0-.77.34-.77.76v1.11c-.9.09-1.75.4-2.45.91-.71.48-1.09,1.08-1.14,1.75-.06.85.42,1.62.85,2.01.7.66,1.64,1.05,2.74,1.14v1.55c0,.42.34.76.77.76h.12c.43,0,.77-.34.77-.76v-1.55c1.1-.09,2.04-.48,2.74-1.14.43-.39.91-1.17.85-2.01-.05-.68-.43-1.26-1.14-1.75Zm-2.45,1.84c0-.41,0-.75.04-1.08,0-.11.1-.2.21-.21h.07c.8,0,1.4.28,1.68.79.25.45.22,1.01-.09,1.45-.34.52-.97.77-1.72.69-.1,0-.18-.1-.18-.21,0-.27,0-.56,0-.85,0-.2,0-.39,0-.59Zm-3.66-.49c.27-.51.87-.79,1.67-.79h.07c.12,0,.21.1.22.21.03.33.04.69.04,1.08,0,.2,0,.4,0,.6,0,.28,0,.57,0,.84,0,.11-.08.2-.18.21-.75.09-1.37-.17-1.72-.69-.3-.44-.33-1-.09-1.45Z"/>
  <path class="cls-15" d="m358.24,168.75c.06-.29,1.97-5.54,3.02-7.94.32-.73.61-.72.74-.72s.42,0,.74.72c1.05,2.4,2.96,7.64,3.02,7.94.23,1-.08,1.16-.44,1.3-.28.13-.86.02-1.12-.7-.16-.42-2.2-5.86-2.2-5.86,0,0-2.05,5.44-2.2,5.86-.25.72-.83.82-1.12.7-.36-.15-.67-.3-.44-1.3Z"/>
  <path class="cls-15" d="m268.24,168.75c.06-.29,1.97-5.54,3.02-7.94.32-.73.61-.72.74-.72s.42,0,.74.72c1.05,2.4,2.96,7.64,3.02,7.94.23,1-.08,1.16-.44,1.3-.28.13-.86.02-1.12-.7-.16-.42-2.2-5.86-2.2-5.86,0,0-2.05,5.44-2.2,5.86-.25.72-.83.82-1.12.7-.36-.15-.67-.3-.44-1.3Z"/>
  <path class="cls-15" d="m186.32,161.77c-.5,2.51-1.03,3.37-3.39,3.82-.04,0-.07.04-.08.07v3.6c0,.22-.1.44-.25.6s-.36.24-.59.24-.43-.09-.61-.24c-.16-.16-.24-.38-.24-.6v-3.6s-.05-.06-.09-.07c-2.35-.45-2.88-1.31-3.38-3.82-.08-.36-.04-.65.12-.83.17-.21.42-.24.56-.24.24,0,.43.22.56.45.13.23.2.47.21.54.25,1.71.73,2.29,1.85,2.29h.09s.07-.02.09-.06v-3.05c.12-.28.2-.48.31-.6.07-.06.15-.1.23-.13.05-.02.1-.03.14-.04.11-.02.24-.02.33,0,.05,0,.1.02.15.04.07,0,.15.06.22.13.12.12.21.31.3.6v.03s.02.03.02.05v2.94s0,.02,0,.04c0,.03.05.05.09.05,1.2.04,1.68-.54,1.93-2.29.03-.13.28-.99.76-.99h0c.14,0,.39.03.56.24.15.19.19.47.12.83Z"/>
  <path class="cls-15" d="m95.28,162.88c-.71-.51-1.55-.82-2.45-.91v-1.11c0-.42-.34-.76-.77-.76h-.12c-.43,0-.77.34-.77.76v1.11c-.9.09-1.75.4-2.45.91-.71.48-1.09,1.08-1.14,1.75-.06.85.42,1.62.85,2.01.7.66,1.64,1.05,2.74,1.14v1.55c0,.42.34.76.77.76h.12c.43,0,.77-.34.77-.76v-1.55c1.1-.09,2.04-.48,2.74-1.14.43-.39.91-1.17.85-2.01-.05-.68-.43-1.26-1.14-1.75Zm-2.45,1.84c0-.41,0-.75.04-1.08,0-.11.1-.2.21-.21h.07c.8,0,1.4.28,1.68.79.25.45.22,1.01-.09,1.45-.34.52-.97.77-1.72.69-.1,0-.18-.1-.18-.21,0-.27,0-.56,0-.85,0-.2,0-.39,0-.59Zm-3.66-.49c.27-.51.87-.79,1.67-.79h.07c.12,0,.21.1.22.21.03.33.04.69.04,1.08,0,.2,0,.4,0,.6,0,.28,0,.57,0,.84,0,.11-.08.2-.18.21-.75.09-1.37-.17-1.72-.69-.3-.44-.33-1-.09-1.45Z"/>
  <path class="cls-15" d="m358.24,268.75c.06-.29,1.97-5.54,3.02-7.94.32-.73.61-.72.74-.72s.42,0,.74.72c1.05,2.4,2.96,7.64,3.02,7.94.23,1-.08,1.16-.44,1.3-.28.13-.86.02-1.12-.7-.16-.42-2.2-5.86-2.2-5.86,0,0-2.05,5.44-2.2,5.86-.25.72-.83.82-1.12.7-.36-.15-.67-.3-.44-1.3Z"/>
  <path class="cls-15" d="m268.24,268.75c.06-.29,1.97-5.54,3.02-7.94.32-.73.61-.72.74-.72s.42,0,.74.72c1.05,2.4,2.96,7.64,3.02,7.94.23,1-.08,1.16-.44,1.3-.28.13-.86.02-1.12-.7-.16-.42-2.2-5.86-2.2-5.86,0,0-2.05,5.44-2.2,5.86-.25.72-.83.82-1.12.7-.36-.15-.67-.3-.44-1.3Z"/>
  <path class="cls-15" d="m186.32,261.77c-.5,2.51-1.03,3.37-3.39,3.82-.04,0-.07.04-.08.07v3.6c0,.22-.1.44-.25.6s-.36.24-.59.24-.43-.09-.61-.24c-.16-.16-.24-.38-.24-.6v-3.6s-.05-.06-.09-.07c-2.35-.45-2.88-1.31-3.38-3.82-.08-.36-.04-.65.12-.83.17-.21.42-.24.56-.24.24,0,.43.22.56.45.13.23.2.47.21.54.25,1.71.73,2.29,1.85,2.29h.09s.07-.02.09-.06v-3.05c.12-.28.2-.48.31-.6.07-.06.15-.1.23-.13.05-.02.1-.03.14-.04.11-.02.24-.02.33,0,.05,0,.1.02.15.04.07,0,.15.06.22.13.12.12.21.31.3.6v.03s.02.03.02.05v2.94s0,.02,0,.04c0,.03.05.05.09.05,1.2.04,1.68-.54,1.93-2.29.03-.13.28-.99.76-.99h0c.14,0,.39.03.56.24.15.19.19.47.12.83Z"/>
  <path class="cls-15" d="m95.28,262.88c-.71-.51-1.55-.82-2.45-.91v-1.11c0-.42-.34-.76-.77-.76h-.12c-.43,0-.77.34-.77.76v1.11c-.9.09-1.75.4-2.45.91-.71.48-1.09,1.08-1.14,1.75-.06.85.42,1.62.85,2.01.7.66,1.64,1.05,2.74,1.14v1.55c0,.42.34.76.77.76h.12c.43,0,.77-.34.77-.76v-1.55c1.1-.09,2.04-.48,2.74-1.14.43-.39.91-1.17.85-2.01-.05-.68-.43-1.26-1.14-1.75Zm-2.45,1.84c0-.41,0-.75.04-1.08,0-.11.1-.2.21-.21h.07c.8,0,1.4.28,1.68.79.25.45.22,1.01-.09,1.45-.34.52-.97.77-1.72.69-.1,0-.18-.1-.18-.21,0-.27,0-.56,0-.85,0-.2,0-.39,0-.59Zm-3.66-.49c.27-.51.87-.79,1.67-.79h.07c.12,0,.21.1.22.21.03.33.04.69.04,1.08,0,.2,0,.4,0,.6,0,.28,0,.57,0,.84,0,.11-.08.2-.18.21-.75.09-1.37-.17-1.72-.69-.3-.44-.33-1-.09-1.45Z"/>
  <g>
    <rect class="cls-15" x="457.94" y="164.15" width="6.95" height="1.9" rx=".95" ry=".95"/>
    <rect class="cls-15" x="547.94" y="164.15" width="6.95" height="1.9" rx=".95" ry=".95"/>
    <rect class="cls-15" x="637.94" y="164.15" width="6.95" height="1.9" rx=".95" ry=".95"/>
    <rect class="cls-15" x="727.94" y="164.15" width="6.95" height="1.9" rx=".95" ry=".95"/>
  </g>
  <g>
    <rect class="cls-15" x="457.94" y="264.15" width="6.95" height="1.9" rx=".95" ry=".95"/>
    <rect class="cls-15" x="547.94" y="264.15" width="6.95" height="1.9" rx=".95" ry=".95"/>
    <rect class="cls-15" x="637.94" y="264.15" width="6.95" height="1.9" rx=".95" ry=".95"/>
    <rect class="cls-15" x="727.94" y="264.15" width="6.95" height="1.9" rx=".95" ry=".95"/>
  </g>
  <g>
    <text class="cls-11" transform="translate(377.23 53.08)"><tspan x="0" y="0">2 / 1</tspan></text>
    <text class="cls-11" transform="translate(196.01 339.14)"><tspan x="0" y="0">1 / 2</tspan></text>
    <text class="cls-9" transform="translate(9.1 93.75)"><tspan x="0" y="0">Same</tspan></text>
    <text class="cls-9" transform="translate(9.1 194)"><tspan x="0" y="0">Opp</tspan></text>
    <text class="cls-9" transform="translate(9.1 393.75)"><tspan x="0" y="0">Same</tspan></text>
    <text class="cls-9" transform="translate(9.1 494)"><tspan x="0" y="0">Opp</tspan></text>
    <line class="cls-13" x1="407.8" y1="82.83" x2="407.8" y2="582.41"/>
    <line class="cls-10" x1="60.3" y1="179.59" x2="756.46" y2="179.59"/>
    <line class="cls-10" x1="60.3" y1="479.59" x2="762.29" y2="479.59"/>
  </g>
  <g>
    <g>
      <path d="m100.76,170.25v.85h-3v-.85h.98v-2.4h-.98v-.88l.33-.03c.23-.02.37-.03.71-.12s.58-.22.58-.22h.4v3.65h.98Z"/>
      <path d="m100.74,163.55l-.03.05h-2.95v-.16c.01-.05.01-.09.02-.11.01-.08.02-.14.05-.21.07-.24.18-.46.32-.66.08-.12.19-.24.28-.34.16-.17.32-.34.49-.5l.04-.04c.15-.14.28-.27.42-.41.02-.03.06-.06.09-.11.03-.03.06-.06.08-.11.09-.12.15-.23.17-.33v-.02c.01-.06.02-.11.02-.17,0,0,0-.02-.01-.04,0-.04,0-.06-.01-.11-.05-.13-.13-.21-.26-.25-.08-.03-.22-.03-.35.01-.1.04-.18.11-.22.21-.02.05-.03.12-.04.17s-.02.1-.02.13v.12h-.11c-.14-.02-.27-.03-.4-.04-.14-.01-.26-.03-.39-.04h-.09v-.14c.01-.11.02-.21.06-.31.03-.15.07-.27.14-.38.08-.16.21-.29.4-.41.13-.09.27-.15.45-.19.07-.02.15-.03.24-.04.11-.01.22-.01.33,0,.1,0,.23.02.33.04.19.05.34.13.48.24.17.13.29.29.39.5.04.09.07.18.08.31.01.1.02.18.01.27,0,.21-.05.44-.16.64-.07.15-.17.29-.24.4-.09.11-.18.2-.26.29-.11.13-.24.25-.37.35-.11.12-.24.23-.35.35-.04.04-.07.08-.1.12h1.48v.11c.01.77,0,.78-.01.81Z"/>
    </g>
    <g>
      <path d="m190.76,170.25v.85h-3v-.85h.98v-2.4h-.98v-.88l.33-.03c.23-.02.37-.03.71-.12s.58-.22.58-.22h.4v3.65h.98Z"/>
      <path d="m190.74,163.55l-.03.05h-2.95v-.16c.01-.05.01-.09.02-.11.01-.08.02-.14.05-.21.07-.24.18-.46.32-.66.08-.12.19-.24.28-.34.16-.17.32-.34.49-.5l.04-.04c.15-.14.28-.27.42-.41.02-.03.06-.06.09-.11.03-.03.06-.06.08-.11.09-.12.15-.23.17-.33v-.02c.01-.06.02-.11.02-.17,0,0,0-.02-.01-.04,0-.04,0-.06-.01-.11-.05-.13-.13-.21-.26-.25-.08-.03-.22-.03-.35.01-.1.04-.18.11-.22.21-.02.05-.03.12-.04.17s-.02.1-.02.13v.12h-.11c-.14-.02-.27-.03-.4-.04-.14-.01-.26-.03-.39-.04h-.09v-.14c.01-.11.02-.21.06-.31.03-.15.07-.27.14-.38.08-.16.21-.29.4-.41.13-.09.27-.15.45-.19.07-.02.15-.03.24-.04.11-.01.22-.01.33,0,.1,0,.23.02.33.04.19.05.34.13.48.24.17.13.29.29.39.5.04.09.07.18.08.31.01.1.02.18.01.27,0,.21-.05.44-.16.64-.07.15-.17.29-.24.4-.09.11-.18.2-.26.29-.11.13-.24.25-.37.35-.11.12-.24.23-.35.35-.04.04-.07.08-.1.12h1.48v.11c.01.77,0,.78-.01.81Z"/>
    </g>
    <g>
      <path d="m370.76,170.25v.85h-3v-.85h.98v-2.4h-.98v-.88l.33-.03c.23-.02.37-.03.71-.12s.58-.22.58-.22h.4v3.65h.98Z"/>
      <path d="m370.74,163.55l-.03.05h-2.95v-.16c.01-.05.01-.09.02-.11.01-.08.02-.14.05-.21.07-.24.18-.46.32-.66.08-.12.19-.24.28-.34.16-.17.32-.34.49-.5l.04-.04c.15-.14.28-.27.42-.41.02-.03.06-.06.09-.11.03-.03.06-.06.08-.11.09-.12.15-.23.17-.33v-.02c.01-.06.02-.11.02-.17,0,0,0-.02-.01-.04,0-.04,0-.06-.01-.11-.05-.13-.13-.21-.26-.25-.08-.03-.22-.03-.35.01-.1.04-.18.11-.22.21-.02.05-.03.12-.04.17s-.02.1-.02.13v.12h-.11c-.14-.02-.27-.03-.4-.04-.14-.01-.26-.03-.39-.04h-.09v-.14c.01-.11.02-.21.06-.31.03-.15.07-.27.14-.38.08-.16.21-.29.4-.41.13-.09.27-.15.45-.19.07-.02.15-.03.24-.04.11-.01.22-.01.33,0,.1,0,.23.02.33.04.19.05.34.13.48.24.17.13.29.29.39.5.04.09.07.18.08.31.01.1.02.18.01.27,0,.21-.05.44-.16.64-.07.15-.17.29-.24.4-.09.11-.18.2-.26.29-.11.13-.24.25-.37.35-.11.12-.24.23-.35.35-.04.04-.07.08-.1.12h1.48v.11c.01.77,0,.78-.01.81Z"/>
    </g>
    <g>
      <path d="m280.76,170.25v.85h-3v-.85h.98v-2.4h-.98v-.88l.33-.03c.23-.02.37-.03.71-.12s.58-.22.58-.22h.4v3.65h.98Z"/>
      <path d="m280.74,163.55l-.03.05h-2.95v-.16c.01-.05.01-.09.02-.11.01-.08.02-.14.05-.21.07-.24.18-.46.32-.66.08-.12.19-.24.28-.34.16-.17.32-.34.49-.5l.04-.04c.15-.14.28-.27.42-.41.02-.03.06-.06.09-.11.03-.03.06-.06.08-.11.09-.12.15-.23.17-.33v-.02c.01-.06.02-.11.02-.17,0,0,0-.02-.01-.04,0-.04,0-.06-.01-.11-.05-.13-.13-.21-.26-.25-.08-.03-.22-.03-.35.01-.1.04-.18.11-.22.21-.02.05-.03.12-.04.17s-.02.1-.02.13v.12h-.11c-.14-.02-.27-.03-.4-.04-.14-.01-.26-.03-.39-.04h-.09v-.14c.01-.11.02-.21.06-.31.03-.15.07-.27.14-.38.08-.16.21-.29.4-.41.13-.09.27-.15.45-.19.07-.02.15-.03.24-.04.11-.01.22-.01.33,0,.1,0,.23.02.33.04.19.05.34.13.48.24.17.13.29.29.39.5.04.09.07.18.08.31.01.1.02.18.01.27,0,.21-.05.44-.16.64-.07.15-.17.29-.24.4-.09.11-.18.2-.26.29-.11.13-.24.25-.37.35-.11.12-.24.23-.35.35-.04.04-.07.08-.1.12h1.48v.11c.01.77,0,.78-.01.81Z"/>
    </g>
    <g>
      <path d="m468.4,170.25v.85h-3v-.85h.98v-2.4h-.98v-.88l.33-.03c.23-.02.37-.03.71-.12s.58-.22.58-.22h.4v3.65h.98Z"/>
      <path d="m468.38,163.55l-.03.05h-2.95v-.16c.01-.05.01-.09.02-.11.01-.08.02-.14.05-.21.07-.24.18-.46.32-.66.08-.12.19-.24.28-.34.16-.17.32-.34.49-.5l.04-.04c.15-.14.28-.27.42-.41.02-.03.06-.06.09-.11.03-.03.06-.06.08-.11.09-.12.15-.23.17-.33v-.02c.01-.06.02-.11.02-.17,0,0,0-.02-.01-.04,0-.04,0-.06-.01-.11-.05-.13-.13-.21-.26-.25-.08-.03-.22-.03-.35.01-.1.04-.18.11-.22.21-.02.05-.03.12-.04.17s-.02.1-.02.13v.12h-.11c-.14-.02-.27-.03-.4-.04-.14-.01-.26-.03-.39-.04h-.09v-.14c.01-.11.02-.21.06-.31.03-.15.07-.27.14-.38.08-.16.21-.29.4-.41.13-.09.27-.15.45-.19.07-.02.15-.03.24-.04.11-.01.22-.01.33,0,.1,0,.23.02.33.04.19.05.34.13.48.24.17.13.29.29.39.5.04.09.07.18.08.31.01.1.02.18.01.27,0,.21-.05.44-.16.64-.07.15-.17.29-.24.4-.09.11-.18.2-.26.29-.11.13-.24.25-.37.35-.11.12-.24.23-.35.35-.04.04-.07.08-.1.12h1.48v.11c.01.77,0,.78-.01.81Z"/>
    </g>
    <g>
      <path d="m558.4,170.25v.85h-3v-.85h.98v-2.4h-.98v-.88l.33-.03c.23-.02.37-.03.71-.12s.58-.22.58-.22h.4v3.65h.98Z"/>
      <path d="m558.38,163.55l-.03.05h-2.95v-.16c.01-.05.01-.09.02-.11.01-.08.02-.14.05-.21.07-.24.18-.46.32-.66.08-.12.19-.24.28-.34.16-.17.32-.34.49-.5l.04-.04c.15-.14.28-.27.42-.41.02-.03.06-.06.09-.11.03-.03.06-.06.08-.11.09-.12.15-.23.17-.33v-.02c.01-.06.02-.11.02-.17,0,0,0-.02-.01-.04,0-.04,0-.06-.01-.11-.05-.13-.13-.21-.26-.25-.08-.03-.22-.03-.35.01-.1.04-.18.11-.22.21-.02.05-.03.12-.04.17s-.02.1-.02.13v.12h-.11c-.14-.02-.27-.03-.4-.04-.14-.01-.26-.03-.39-.04h-.09v-.14c.01-.11.02-.21.06-.31.03-.15.07-.27.14-.38.08-.16.21-.29.4-.41.13-.09.27-.15.45-.19.07-.02.15-.03.24-.04.11-.01.22-.01.33,0,.1,0,.23.02.33.04.19.05.34.13.48.24.17.13.29.29.39.5.04.09.07.18.08.31.01.1.02.18.01.27,0,.21-.05.44-.16.64-.07.15-.17.29-.24.4-.09.11-.18.2-.26.29-.11.13-.24.25-.37.35-.11.12-.24.23-.35.35-.04.04-.07.08-.1.12h1.48v.11c.01.77,0,.78-.01.81Z"/>
    </g>
    <g>
      <path d="m648.4,170.25v.85h-3v-.85h.98v-2.4h-.98v-.88l.33-.03c.23-.02.37-.03.71-.12s.58-.22.58-.22h.4v3.65h.98Z"/>
      <path d="m648.38,163.55l-.03.05h-2.95v-.16c.01-.05.01-.09.02-.11.01-.08.02-.14.05-.21.07-.24.18-.46.32-.66.08-.12.19-.24.28-.34.16-.17.32-.34.49-.5l.04-.04c.15-.14.28-.27.42-.41.02-.03.06-.06.09-.11.03-.03.06-.06.08-.11.09-.12.15-.23.17-.33v-.02c.01-.06.02-.11.02-.17,0,0,0-.02-.01-.04,0-.04,0-.06-.01-.11-.05-.13-.13-.21-.26-.25-.08-.03-.22-.03-.35.01-.1.04-.18.11-.22.21-.02.05-.03.12-.04.17s-.02.1-.02.13v.12h-.11c-.14-.02-.27-.03-.4-.04-.14-.01-.26-.03-.39-.04h-.09v-.14c.01-.11.02-.21.06-.31.03-.15.07-.27.14-.38.08-.16.21-.29.4-.41.13-.09.27-.15.45-.19.07-.02.15-.03.24-.04.11-.01.22-.01.33,0,.1,0,.23.02.33.04.19.05.34.13.48.24.17.13.29.29.39.5.04.09.07.18.08.31.01.1.02.18.01.27,0,.21-.05.44-.16.64-.07.15-.17.29-.24.4-.09.11-.18.2-.26.29-.11.13-.24.25-.37.35-.11.12-.24.23-.35.35-.04.04-.07.08-.1.12h1.48v.11c.01.77,0,.78-.01.81Z"/>
    </g>
    <g>
      <path d="m738.4,170.25v.85h-3v-.85h.98v-2.4h-.98v-.88l.33-.03c.23-.02.37-.03.71-.12s.58-.22.58-.22h.4v3.65h.98Z"/>
      <path d="m738.38,163.55l-.03.05h-2.95v-.16c.01-.05.01-.09.02-.11.01-.08.02-.14.05-.21.07-.24.18-.46.32-.66.08-.12.19-.24.28-.34.16-.17.32-.34.49-.5l.04-.04c.15-.14.28-.27.42-.41.02-.03.06-.06.09-.11.03-.03.06-.06.08-.11.09-.12.15-.23.17-.33v-.02c.01-.06.02-.11.02-.17,0,0,0-.02-.01-.04,0-.04,0-.06-.01-.11-.05-.13-.13-.21-.26-.25-.08-.03-.22-.03-.35.01-.1.04-.18.11-.22.21-.02.05-.03.12-.04.17s-.02.1-.02.13v.12h-.11c-.14-.02-.27-.03-.4-.04-.14-.01-.26-.03-.39-.04h-.09v-.14c.01-.11.02-.21.06-.31.03-.15.07-.27.14-.38.08-.16.21-.29.4-.41.13-.09.27-.15.45-.19.07-.02.15-.03.24-.04.11-.01.22-.01.33,0,.1,0,.23.02.33.04.19.05.34.13.48.24.17.13.29.29.39.5.04.09.07.18.08.31.01.1.02.18.01.27,0,.21-.05.44-.16.64-.07.15-.17.29-.24.4-.09.11-.18.2-.26.29-.11.13-.24.25-.37.35-.11.12-.24.23-.35.35-.04.04-.07.08-.1.12h1.48v.11c.01.77,0,.78-.01.81Z"/>
    </g>
  </g>
  <g>
    <g>
      <path d="m100.76,270.25v.85h-3v-.85h.98v-2.4h-.98v-.88l.33-.03c.23-.02.37-.03.71-.12s.58-.22.58-.22h.4v3.65h.98Z"/>
      <path d="m100.74,263.55l-.03.05h-2.95v-.16c.01-.05.01-.09.02-.11.01-.08.02-.14.05-.21.07-.24.18-.46.32-.66.08-.12.19-.24.28-.34.16-.17.32-.34.49-.5l.04-.04c.15-.14.28-.27.42-.41.02-.03.06-.06.09-.11.03-.03.06-.06.08-.11.09-.12.15-.23.17-.33v-.02c.01-.06.02-.11.02-.17,0,0,0-.02-.01-.04,0-.04,0-.06-.01-.11-.05-.13-.13-.21-.26-.25-.08-.03-.22-.03-.35.01-.1.04-.18.11-.22.21-.02.05-.03.12-.04.17s-.02.1-.02.13v.12h-.11c-.14-.02-.27-.03-.4-.04-.14-.01-.26-.03-.39-.04h-.09v-.14c.01-.11.02-.21.06-.31.03-.15.07-.27.14-.38.08-.16.21-.29.4-.41.13-.09.27-.15.45-.19.07-.02.15-.03.24-.04.11-.01.22-.01.33,0,.1,0,.23.02.33.04.19.05.34.13.48.24.17.13.29.29.39.5.04.09.07.18.08.31.01.1.02.18.01.27,0,.21-.05.44-.16.64-.07.15-.17.29-.24.4-.09.11-.18.2-.26.29-.11.13-.24.25-.37.35-.11.12-.24.23-.35.35-.04.04-.07.08-.1.12h1.48v.11c.01.77,0,.78-.01.81Z"/>
    </g>
    <g>
      <path d="m190.76,270.25v.85h-3v-.85h.98v-2.4h-.98v-.88l.33-.03c.23-.02.37-.03.71-.12s.58-.22.58-.22h.4v3.65h.98Z"/>
      <path d="m190.74,263.55l-.03.05h-2.95v-.16c.01-.05.01-.09.02-.11.01-.08.02-.14.05-.21.07-.24.18-.46.32-.66.08-.12.19-.24.28-.34.16-.17.32-.34.49-.5l.04-.04c.15-.14.28-.27.42-.41.02-.03.06-.06.09-.11.03-.03.06-.06.08-.11.09-.12.15-.23.17-.33v-.02c.01-.06.02-.11.02-.17,0,0,0-.02-.01-.04,0-.04,0-.06-.01-.11-.05-.13-.13-.21-.26-.25-.08-.03-.22-.03-.35.01-.1.04-.18.11-.22.21-.02.05-.03.12-.04.17s-.02.1-.02.13v.12h-.11c-.14-.02-.27-.03-.4-.04-.14-.01-.26-.03-.39-.04h-.09v-.14c.01-.11.02-.21.06-.31.03-.15.07-.27.14-.38.08-.16.21-.29.4-.41.13-.09.27-.15.45-.19.07-.02.15-.03.24-.04.11-.01.22-.01.33,0,.1,0,.23.02.33.04.19.05.34.13.48.24.17.13.29.29.39.5.04.09.07.18.08.31.01.1.02.18.01.27,0,.21-.05.44-.16.64-.07.15-.17.29-.24.4-.09.11-.18.2-.26.29-.11.13-.24.25-.37.35-.11.12-.24.23-.35.35-.04.04-.07.08-.1.12h1.48v.11c.01.77,0,.78-.01.81Z"/>
    </g>
    <g>
      <path d="m370.76,270.25v.85h-3v-.85h.98v-2.4h-.98v-.88l.33-.03c.23-.02.37-.03.71-.12s.58-.22.58-.22h.4v3.65h.98Z"/>
      <path d="m370.74,263.55l-.03.05h-2.95v-.16c.01-.05.01-.09.02-.11.01-.08.02-.14.05-.21.07-.24.18-.46.32-.66.08-.12.19-.24.28-.34.16-.17.32-.34.49-.5l.04-.04c.15-.14.28-.27.42-.41.02-.03.06-.06.09-.11.03-.03.06-.06.08-.11.09-.12.15-.23.17-.33v-.02c.01-.06.02-.11.02-.17,0,0,0-.02-.01-.04,0-.04,0-.06-.01-.11-.05-.13-.13-.21-.26-.25-.08-.03-.22-.03-.35.01-.1.04-.18.11-.22.21-.02.05-.03.12-.04.17s-.02.1-.02.13v.12h-.11c-.14-.02-.27-.03-.4-.04-.14-.01-.26-.03-.39-.04h-.09v-.14c.01-.11.02-.21.06-.31.03-.15.07-.27.14-.38.08-.16.21-.29.4-.41.13-.09.27-.15.45-.19.07-.02.15-.03.24-.04.11-.01.22-.01.33,0,.1,0,.23.02.33.04.19.05.34.13.48.24.17.13.29.29.39.5.04.09.07.18.08.31.01.1.02.18.01.27,0,.21-.05.44-.16.64-.07.15-.17.29-.24.4-.09.11-.18.2-.26.29-.11.13-.24.25-.37.35-.11.12-.24.23-.35.35-.04.04-.07.08-.1.12h1.48v.11c.01.77,0,.78-.01.81Z"/>
    </g>
    <g>
      <path d="m280.76,270.25v.85h-3v-.85h.98v-2.4h-.98v-.88l.33-.03c.23-.02.37-.03.71-.12s.58-.22.58-.22h.4v3.65h.98Z"/>
      <path d="m280.74,263.55l-.03.05h-2.95v-.16c.01-.05.01-.09.02-.11.01-.08.02-.14.05-.21.07-.24.18-.46.32-.66.08-.12.19-.24.28-.34.16-.17.32-.34.49-.5l.04-.04c.15-.14.28-.27.42-.41.02-.03.06-.06.09-.11.03-.03.06-.06.08-.11.09-.12.15-.23.17-.33v-.02c.01-.06.02-.11.02-.17,0,0,0-.02-.01-.04,0-.04,0-.06-.01-.11-.05-.13-.13-.21-.26-.25-.08-.03-.22-.03-.35.01-.1.04-.18.11-.22.21-.02.05-.03.12-.04.17s-.02.1-.02.13v.12h-.11c-.14-.02-.27-.03-.4-.04-.14-.01-.26-.03-.39-.04h-.09v-.14c.01-.11.02-.21.06-.31.03-.15.07-.27.14-.38.08-.16.21-.29.4-.41.13-.09.27-.15.45-.19.07-.02.15-.03.24-.04.11-.01.22-.01.33,0,.1,0,.23.02.33.04.19.05.34.13.48.24.17.13.29.29.39.5.04.09.07.18.08.31.01.1.02.18.01.27,0,.21-.05.44-.16.64-.07.15-.17.29-.24.4-.09.11-.18.2-.26.29-.11.13-.24.25-.37.35-.11.12-.24.23-.35.35-.04.04-.07.08-.1.12h1.48v.11c.01.77,0,.78-.01.81Z"/>
    </g>
    <g>
      <path d="m468.4,270.25v.85h-3v-.85h.98v-2.4h-.98v-.88l.33-.03c.23-.02.37-.03.71-.12s.58-.22.58-.22h.4v3.65h.98Z"/>
      <path d="m468.38,263.55l-.03.05h-2.95v-.16c.01-.05.01-.09.02-.11.01-.08.02-.14.05-.21.07-.24.18-.46.32-.66.08-.12.19-.24.28-.34.16-.17.32-.34.49-.5l.04-.04c.15-.14.28-.27.42-.41.02-.03.06-.06.09-.11.03-.03.06-.06.08-.11.09-.12.15-.23.17-.33v-.02c.01-.06.02-.11.02-.17,0,0,0-.02-.01-.04,0-.04,0-.06-.01-.11-.05-.13-.13-.21-.26-.25-.08-.03-.22-.03-.35.01-.1.04-.18.11-.22.21-.02.05-.03.12-.04.17s-.02.1-.02.13v.12h-.11c-.14-.02-.27-.03-.4-.04-.14-.01-.26-.03-.39-.04h-.09v-.14c.01-.11.02-.21.06-.31.03-.15.07-.27.14-.38.08-.16.21-.29.4-.41.13-.09.27-.15.45-.19.07-.02.15-.03.24-.04.11-.01.22-.01.33,0,.1,0,.23.02.33.04.19.05.34.13.48.24.17.13.29.29.39.5.04.09.07.18.08.31.01.1.02.18.01.27,0,.21-.05.44-.16.64-.07.15-.17.29-.24.4-.09.11-.18.2-.26.29-.11.13-.24.25-.37.35-.11.12-.24.23-.35.35-.04.04-.07.08-.1.12h1.48v.11c.01.77,0,.78-.01.81Z"/>
    </g>
    <g>
      <path d="m558.4,270.25v.85h-3v-.85h.98v-2.4h-.98v-.88l.33-.03c.23-.02.37-.03.71-.12s.58-.22.58-.22h.4v3.65h.98Z"/>
      <path d="m558.38,263.55l-.03.05h-2.95v-.16c.01-.05.01-.09.02-.11.01-.08.02-.14.05-.21.07-.24.18-.46.32-.66.08-.12.19-.24.28-.34.16-.17.32-.34.49-.5l.04-.04c.15-.14.28-.27.42-.41.02-.03.06-.06.09-.11.03-.03.06-.06.08-.11.09-.12.15-.23.17-.33v-.02c.01-.06.02-.11.02-.17,0,0,0-.02-.01-.04,0-.04,0-.06-.01-.11-.05-.13-.13-.21-.26-.25-.08-.03-.22-.03-.35.01-.1.04-.18.11-.22.21-.02.05-.03.12-.04.17s-.02.1-.02.13v.12h-.11c-.14-.02-.27-.03-.4-.04-.14-.01-.26-.03-.39-.04h-.09v-.14c.01-.11.02-.21.06-.31.03-.15.07-.27.14-.38.08-.16.21-.29.4-.41.13-.09.27-.15.45-.19.07-.02.15-.03.24-.04.11-.01.22-.01.33,0,.1,0,.23.02.33.04.19.05.34.13.48.24.17.13.29.29.39.5.04.09.07.18.08.31.01.1.02.18.01.27,0,.21-.05.44-.16.64-.07.15-.17.29-.24.4-.09.11-.18.2-.26.29-.11.13-.24.25-.37.35-.11.12-.24.23-.35.35-.04.04-.07.08-.1.12h1.48v.11c.01.77,0,.78-.01.81Z"/>
    </g>
    <g>
      <path d="m648.4,270.25v.85h-3v-.85h.98v-2.4h-.98v-.88l.33-.03c.23-.02.37-.03.71-.12s.58-.22.58-.22h.4v3.65h.98Z"/>
      <path d="m648.38,263.55l-.03.05h-2.95v-.16c.01-.05.01-.09.02-.11.01-.08.02-.14.05-.21.07-.24.18-.46.32-.66.08-.12.19-.24.28-.34.16-.17.32-.34.49-.5l.04-.04c.15-.14.28-.27.42-.41.02-.03.06-.06.09-.11.03-.03.06-.06.08-.11.09-.12.15-.23.17-.33v-.02c.01-.06.02-.11.02-.17,0,0,0-.02-.01-.04,0-.04,0-.06-.01-.11-.05-.13-.13-.21-.26-.25-.08-.03-.22-.03-.35.01-.1.04-.18.11-.22.21-.02.05-.03.12-.04.17s-.02.1-.02.13v.12h-.11c-.14-.02-.27-.03-.4-.04-.14-.01-.26-.03-.39-.04h-.09v-.14c.01-.11.02-.21.06-.31.03-.15.07-.27.14-.38.08-.16.21-.29.4-.41.13-.09.27-.15.45-.19.07-.02.15-.03.24-.04.11-.01.22-.01.33,0,.1,0,.23.02.33.04.19.05.34.13.48.24.17.13.29.29.39.5.04.09.07.18.08.31.01.1.02.18.01.27,0,.21-.05.44-.16.64-.07.15-.17.29-.24.4-.09.11-.18.2-.26.29-.11.13-.24.25-.37.35-.11.12-.24.23-.35.35-.04.04-.07.08-.1.12h1.48v.11c.01.77,0,.78-.01.81Z"/>
    </g>
    <g>
      <path d="m738.4,270.25v.85h-3v-.85h.98v-2.4h-.98v-.88l.33-.03c.23-.02.37-.03.71-.12s.58-.22.58-.22h.4v3.65h.98Z"/>
      <path d="m738.38,263.55l-.03.05h-2.95v-.16c.01-.05.01-.09.02-.11.01-.08.02-.14.05-.21.07-.24.18-.46.32-.66.08-.12.19-.24.28-.34.16-.17.32-.34.49-.5l.04-.04c.15-.14.28-.27.42-.41.02-.03.06-.06.09-.11.03-.03.06-.06.08-.11.09-.12.15-.23.17-.33v-.02c.01-.06.02-.11.02-.17,0,0,0-.02-.01-.04,0-.04,0-.06-.01-.11-.05-.13-.13-.21-.26-.25-.08-.03-.22-.03-.35.01-.1.04-.18.11-.22.21-.02.05-.03.12-.04.17s-.02.1-.02.13v.12h-.11c-.14-.02-.27-.03-.4-.04-.14-.01-.26-.03-.39-.04h-.09v-.14c.01-.11.02-.21.06-.31.03-.15.07-.27.14-.38.08-.16.21-.29.4-.41.13-.09.27-.15.45-.19.07-.02.15-.03.24-.04.11-.01.22-.01.33,0,.1,0,.23.02.33.04.19.05.34.13.48.24.17.13.29.29.39.5.04.09.07.18.08.31.01.1.02.18.01.27,0,.21-.05.44-.16.64-.07.15-.17.29-.24.4-.09.11-.18.2-.26.29-.11.13-.24.25-.37.35-.11.12-.24.23-.35.35-.04.04-.07.08-.1.12h1.48v.11c.01.77,0,.78-.01.81Z"/>
    </g>
  </g>
  <g>
    <g>
      <path d="m100.76,462.75v.85h-3v-.85h.98v-2.4h-.98v-.88l.33-.03c.23-.02.37-.03.71-.12s.58-.22.58-.22h.4v3.65h.98Z"/>
      <path d="m100.74,471.05l-.03.05h-2.95v-.16c.01-.05.01-.09.02-.11.01-.08.02-.14.05-.21.07-.24.18-.46.32-.66.08-.12.19-.24.28-.34.16-.17.32-.34.49-.5l.04-.04c.15-.14.28-.27.42-.41.02-.03.06-.06.09-.11.03-.03.06-.06.08-.11.09-.12.15-.23.17-.33v-.02c.01-.06.02-.11.02-.17,0,0,0-.02-.01-.04,0-.04,0-.06-.01-.11-.05-.13-.13-.21-.26-.25-.08-.03-.22-.03-.35.01-.1.04-.18.11-.22.21-.02.05-.03.12-.04.17s-.02.1-.02.13v.12h-.11c-.14-.02-.27-.03-.4-.04-.14-.01-.26-.03-.39-.04h-.09v-.14c.01-.11.02-.21.06-.31.03-.15.07-.27.14-.38.08-.16.21-.29.4-.41.13-.09.27-.15.45-.19.07-.02.15-.03.24-.04.11-.01.22-.01.33,0,.1,0,.23.02.33.04.19.05.34.13.48.24.17.13.29.29.39.5.04.09.07.18.08.31.01.1.02.18.01.27,0,.21-.05.44-.16.64-.07.15-.17.29-.24.4-.09.11-.18.2-.26.29-.11.13-.24.25-.37.35-.11.12-.24.23-.35.35-.04.04-.07.08-.1.12h1.48v.11c.01.77,0,.78-.01.81Z"/>
    </g>
    <g>
      <path d="m190.76,462.75v.85h-3v-.85h.98v-2.4h-.98v-.88l.33-.03c.23-.02.37-.03.71-.12s.58-.22.58-.22h.4v3.65h.98Z"/>
      <path d="m190.74,471.05l-.03.05h-2.95v-.16c.01-.05.01-.09.02-.11.01-.08.02-.14.05-.21.07-.24.18-.46.32-.66.08-.12.19-.24.28-.34.16-.17.32-.34.49-.5l.04-.04c.15-.14.28-.27.42-.41.02-.03.06-.06.09-.11.03-.03.06-.06.08-.11.09-.12.15-.23.17-.33v-.02c.01-.06.02-.11.02-.17,0,0,0-.02-.01-.04,0-.04,0-.06-.01-.11-.05-.13-.13-.21-.26-.25-.08-.03-.22-.03-.35.01-.1.04-.18.11-.22.21-.02.05-.03.12-.04.17s-.02.1-.02.13v.12h-.11c-.14-.02-.27-.03-.4-.04-.14-.01-.26-.03-.39-.04h-.09v-.14c.01-.11.02-.21.06-.31.03-.15.07-.27.14-.38.08-.16.21-.29.4-.41.13-.09.27-.15.45-.19.07-.02.15-.03.24-.04.11-.01.22-.01.33,0,.1,0,.23.02.33.04.19.05.34.13.48.24.17.13.29.29.39.5.04.09.07.18.08.31.01.1.02.18.01.27,0,.21-.05.44-.16.64-.07.15-.17.29-.24.4-.09.11-.18.2-.26.29-.11.13-.24.25-.37.35-.11.12-.24.23-.35.35-.04.04-.07.08-.1.12h1.48v.11c.01.77,0,.78-.01.81Z"/>
    </g>
    <g>
      <path d="m370.76,462.75v.85h-3v-.85h.98v-2.4h-.98v-.88l.33-.03c.23-.02.37-.03.71-.12s.58-.22.58-.22h.4v3.65h.98Z"/>
      <path d="m370.74,471.05l-.03.05h-2.95v-.16c.01-.05.01-.09.02-.11.01-.08.02-.14.05-.21.07-.24.18-.46.32-.66.08-.12.19-.24.28-.34.16-.17.32-.34.49-.5l.04-.04c.15-.14.28-.27.42-.41.02-.03.06-.06.09-.11.03-.03.06-.06.08-.11.09-.12.15-.23.17-.33v-.02c.01-.06.02-.11.02-.17,0,0,0-.02-.01-.04,0-.04,0-.06-.01-.11-.05-.13-.13-.21-.26-.25-.08-.03-.22-.03-.35.01-.1.04-.18.11-.22.21-.02.05-.03.12-.04.17s-.02.1-.02.13v.12h-.11c-.14-.02-.27-.03-.4-.04-.14-.01-.26-.03-.39-.04h-.09v-.14c.01-.11.02-.21.06-.31.03-.15.07-.27.14-.38.08-.16.21-.29.4-.41.13-.09.27-.15.45-.19.07-.02.15-.03.24-.04.11-.01.22-.01.33,0,.1,0,.23.02.33.04.19.05.34.13.48.24.17.13.29.29.39.5.04.09.07.18.08.31.01.1.02.18.01.27,0,.21-.05.44-.16.64-.07.15-.17.29-.24.4-.09.11-.18.2-.26.29-.11.13-.24.25-.37.35-.11.12-.24.23-.35.35-.04.04-.07.08-.1.12h1.48v.11c.01.77,0,.78-.01.81Z"/>
    </g>
    <g>
      <path d="m280.76,462.75v.85h-3v-.85h.98v-2.4h-.98v-.88l.33-.03c.23-.02.37-.03.71-.12s.58-.22.58-.22h.4v3.65h.98Z"/>
      <path d="m280.74,471.05l-.03.05h-2.95v-.16c.01-.05.01-.09.02-.11.01-.08.02-.14.05-.21.07-.24.18-.46.32-.66.08-.12.19-.24.28-.34.16-.17.32-.34.49-.5l.04-.04c.15-.14.28-.27.42-.41.02-.03.06-.06.09-.11.03-.03.06-.06.08-.11.09-.12.15-.23.17-.33v-.02c.01-.06.02-.11.02-.17,0,0,0-.02-.01-.04,0-.04,0-.06-.01-.11-.05-.13-.13-.21-.26-.25-.08-.03-.22-.03-.35.01-.1.04-.18.11-.22.21-.02.05-.03.12-.04.17s-.02.1-.02.13v.12h-.11c-.14-.02-.27-.03-.4-.04-.14-.01-.26-.03-.39-.04h-.09v-.14c.01-.11.02-.21.06-.31.03-.15.07-.27.14-.38.08-.16.21-.29.4-.41.13-.09.27-.15.45-.19.07-.02.15-.03.24-.04.11-.01.22-.01.33,0,.1,0,.23.02.33.04.19.05.34.13.48.24.17.13.29.29.39.5.04.09.07.18.08.31.01.1.02.18.01.27,0,.21-.05.44-.16.64-.07.15-.17.29-.24.4-.09.11-.18.2-.26.29-.11.13-.24.25-.37.35-.11.12-.24.23-.35.35-.04.04-.07.08-.1.12h1.48v.11c.01.77,0,.78-.01.81Z"/>
    </g>
  </g>
  <g>
    <g>
      <path d="m100.76,562.75v.85h-3v-.85h.98v-2.4h-.98v-.88l.33-.03c.23-.02.37-.03.71-.12s.58-.22.58-.22h.4v3.65h.98Z"/>
      <path d="m100.74,571.05l-.03.05h-2.95v-.16c.01-.05.01-.09.02-.11.01-.08.02-.14.05-.21.07-.24.18-.46.32-.66.08-.12.19-.24.28-.34.16-.17.32-.34.49-.5l.04-.04c.15-.14.28-.27.42-.41.02-.03.06-.06.09-.11.03-.03.06-.06.08-.11.09-.12.15-.23.17-.33v-.02c.01-.06.02-.11.02-.17,0,0,0-.02-.01-.04,0-.04,0-.06-.01-.11-.05-.13-.13-.21-.26-.25-.08-.03-.22-.03-.35.01-.1.04-.18.11-.22.21-.02.05-.03.12-.04.17s-.02.1-.02.13v.12h-.11c-.14-.02-.27-.03-.4-.04-.14-.01-.26-.03-.39-.04h-.09v-.14c.01-.11.02-.21.06-.31.03-.15.07-.27.14-.38.08-.16.21-.29.4-.41.13-.09.27-.15.45-.19.07-.02.15-.03.24-.04.11-.01.22-.01.33,0,.1,0,.23.02.33.04.19.05.34.13.48.24.17.13.29.29.39.5.04.09.07.18.08.31.01.1.02.18.01.27,0,.21-.05.44-.16.64-.07.15-.17.29-.24.4-.09.11-.18.2-.26.29-.11.13-.24.25-.37.35-.11.12-.24.23-.35.35-.04.04-.07.08-.1.12h1.48v.11c.01.77,0,.78-.01.81Z"/>
    </g>
    <g>
      <path d="m190.76,562.75v.85h-3v-.85h.98v-2.4h-.98v-.88l.33-.03c.23-.02.37-.03.71-.12s.58-.22.58-.22h.4v3.65h.98Z"/>
      <path d="m190.74,571.05l-.03.05h-2.95v-.16c.01-.05.01-.09.02-.11.01-.08.02-.14.05-.21.07-.24.18-.46.32-.66.08-.12.19-.24.28-.34.16-.17.32-.34.49-.5l.04-.04c.15-.14.28-.27.42-.41.02-.03.06-.06.09-.11.03-.03.06-.06.08-.11.09-.12.15-.23.17-.33v-.02c.01-.06.02-.11.02-.17,0,0,0-.02-.01-.04,0-.04,0-.06-.01-.11-.05-.13-.13-.21-.26-.25-.08-.03-.22-.03-.35.01-.1.04-.18.11-.22.21-.02.05-.03.12-.04.17s-.02.1-.02.13v.12h-.11c-.14-.02-.27-.03-.4-.04-.14-.01-.26-.03-.39-.04h-.09v-.14c.01-.11.02-.21.06-.31.03-.15.07-.27.14-.38.08-.16.21-.29.4-.41.13-.09.27-.15.45-.19.07-.02.15-.03.24-.04.11-.01.22-.01.33,0,.1,0,.23.02.33.04.19.05.34.13.48.24.17.13.29.29.39.5.04.09.07.18.08.31.01.1.02.18.01.27,0,.21-.05.44-.16.64-.07.15-.17.29-.24.4-.09.11-.18.2-.26.29-.11.13-.24.25-.37.35-.11.12-.24.23-.35.35-.04.04-.07.08-.1.12h1.48v.11c.01.77,0,.78-.01.81Z"/>
    </g>
    <g>
      <path d="m370.76,562.75v.85h-3v-.85h.98v-2.4h-.98v-.88l.33-.03c.23-.02.37-.03.71-.12s.58-.22.58-.22h.4v3.65h.98Z"/>
      <path d="m370.74,571.05l-.03.05h-2.95v-.16c.01-.05.01-.09.02-.11.01-.08.02-.14.05-.21.07-.24.18-.46.32-.66.08-.12.19-.24.28-.34.16-.17.32-.34.49-.5l.04-.04c.15-.14.28-.27.42-.41.02-.03.06-.06.09-.11.03-.03.06-.06.08-.11.09-.12.15-.23.17-.33v-.02c.01-.06.02-.11.02-.17,0,0,0-.02-.01-.04,0-.04,0-.06-.01-.11-.05-.13-.13-.21-.26-.25-.08-.03-.22-.03-.35.01-.1.04-.18.11-.22.21-.02.05-.03.12-.04.17s-.02.1-.02.13v.12h-.11c-.14-.02-.27-.03-.4-.04-.14-.01-.26-.03-.39-.04h-.09v-.14c.01-.11.02-.21.06-.31.03-.15.07-.27.14-.38.08-.16.21-.29.4-.41.13-.09.27-.15.45-.19.07-.02.15-.03.24-.04.11-.01.22-.01.33,0,.1,0,.23.02.33.04.19.05.34.13.48.24.17.13.29.29.39.5.04.09.07.18.08.31.01.1.02.18.01.27,0,.21-.05.44-.16.64-.07.15-.17.29-.24.4-.09.11-.18.2-.26.29-.11.13-.24.25-.37.35-.11.12-.24.23-.35.35-.04.04-.07.08-.1.12h1.48v.11c.01.77,0,.78-.01.81Z"/>
    </g>
    <g>
      <path d="m280.76,562.75v.85h-3v-.85h.98v-2.4h-.98v-.88l.33-.03c.23-.02.37-.03.71-.12s.58-.22.58-.22h.4v3.65h.98Z"/>
      <path d="m280.74,571.05l-.03.05h-2.95v-.16c.01-.05.01-.09.02-.11.01-.08.02-.14.05-.21.07-.24.18-.46.32-.66.08-.12.19-.24.28-.34.16-.17.32-.34.49-.5l.04-.04c.15-.14.28-.27.42-.41.02-.03.06-.06.09-.11.03-.03.06-.06.08-.11.09-.12.15-.23.17-.33v-.02c.01-.06.02-.11.02-.17,0,0,0-.02-.01-.04,0-.04,0-.06-.01-.11-.05-.13-.13-.21-.26-.25-.08-.03-.22-.03-.35.01-.1.04-.18.11-.22.21-.02.05-.03.12-.04.17s-.02.1-.02.13v.12h-.11c-.14-.02-.27-.03-.4-.04-.14-.01-.26-.03-.39-.04h-.09v-.14c.01-.11.02-.21.06-.31.03-.15.07-.27.14-.38.08-.16.21-.29.4-.41.13-.09.27-.15.45-.19.07-.02.15-.03.24-.04.11-.01.22-.01.33,0,.1,0,.23.02.33.04.19.05.34.13.48.24.17.13.29.29.39.5.04.09.07.18.08.31.01.1.02.18.01.27,0,.21-.05.44-.16.64-.07.15-.17.29-.24.4-.09.11-.18.2-.26.29-.11.13-.24.25-.37.35-.11.12-.24.23-.35.35-.04.04-.07.08-.1.12h1.48v.11c.01.77,0,.78-.01.81Z"/>
    </g>
  </g>
  <g>
    <g>
      <circle class="cls-15" cx="92" cy="157.1" r="1.25"/>
      <circle class="cls-15" cx="182" cy="157.1" r="1.25"/>
      <circle class="cls-15" cx="362" cy="157.1" r="1.25"/>
      <circle class="cls-15" cx="272" cy="157.1" r="1.25"/>
      <circle class="cls-15" cx="452" cy="157.1" r="1.25"/>
      <circle class="cls-15" cx="542" cy="157.1" r="1.25"/>
      <circle class="cls-15" cx="632" cy="157.1" r="1.25"/>
      <circle class="cls-15" cx="722" cy="157.1" r="1.25"/>
    </g>
    <g>
      <circle class="cls-15" cx="92" cy="273.1" r="1.25"/>
      <circle class="cls-15" cx="182" cy="273.1" r="1.25"/>
      <circle class="cls-15" cx="362" cy="273.1" r="1.25"/>
      <circle class="cls-15" cx="272" cy="273.1" r="1.25"/>
      <circle class="cls-15" cx="92" cy="457.1" r="1.25"/>
      <circle class="cls-15" cx="182" cy="457.1" r="1.25"/>
      <circle class="cls-15" cx="362" cy="457.1" r="1.25"/>
      <circle class="cls-15" cx="272" cy="457.1" r="1.25"/>
      <circle class="cls-15" cx="92" cy="573.1" r="1.25"/>
      <circle class="cls-15" cx="182" cy="573.1" r="1.25"/>
      <circle class="cls-15" cx="362" cy="573.1" r="1.25"/>
      <circle class="cls-15" cx="272" cy="573.1" r="1.25"/>
      <circle class="cls-15" cx="452" cy="273.1" r="1.25"/>
      <circle class="cls-15" cx="542" cy="273.1" r="1.25"/>
      <circle class="cls-15" cx="632" cy="273.1" r="1.25"/>
      <circle class="cls-15" cx="722" cy="273.1" r="1.25"/>
    </g>
  </g>
  <rect class="cls-17" x="637.41" y="395.78" width="2.59" height="25.25" rx=".99" ry=".99"/>
  <rect class="cls-19" x="640.41" y="421.44" width="25.25" height="2.59" rx=".99" ry=".99"/>
  <rect class="cls-17" x="637.41" y="495.78" width="2.59" height="25.25" rx=".99" ry=".99"/>
  <rect class="cls-19" x="640.41" y="521.44" width="25.25" height="2.59" rx=".99" ry=".99"/>
  <rect class="cls-17" x="727.41" y="395.78" width="2.59" height="25.25" rx=".99" ry=".99"/>
  <rect class="cls-19" x="730.41" y="421.44" width="25.25" height="2.59" rx=".99" ry=".99"/>
  <rect class="cls-17" x="727.41" y="495.78" width="2.59" height="25.25" rx=".99" ry=".99"/>
  <rect class="cls-19" x="730.41" y="521.44" width="25.25" height="2.59" rx=".99" ry=".99"/>
  <rect class="cls-19" x="460.41" y="421.44" width="25.25" height="2.59" rx=".99" ry=".99"/>
  <rect class="cls-17" x="431.75" y="421.44" width="25.25" height="2.59" rx=".99" ry=".99"/>
  <rect class="cls-19" x="460.41" y="521.44" width="25.25" height="2.59" rx=".99" ry=".99"/>
  <rect class="cls-17" x="431.75" y="521.44" width="25.25" height="2.59" rx=".99" ry=".99"/>
  <g>
    <path class="cls-15" d="m638.71,555.23c3.22,0,3.22-5,0-5s-3.22,5,0,5h0Z"/>
    <path class="cls-15" d="m668.71,525.23c3.22,0,3.22-5,0-5s-3.22,5,0,5h0Z"/>
    <path class="cls-15" d="m638.71,495.23c3.22,0,3.22-5,0-5s-3.22,5,0,5h0Z"/>
    <path class="cls-15" d="m608.71,525.23c3.22,0,3.22-5,0-5s-3.22,5,0,5h0Z"/>
    <path class="cls-15" d="m638.71,523.86c1.45,0,1.45-2.25,0-2.25s-1.45,2.25,0,2.25h0Z"/>
  </g>
  <g>
    <path class="cls-15" d="m728.71,555.23c3.22,0,3.22-5,0-5s-3.22,5,0,5h0Z"/>
    <path class="cls-15" d="m758.71,525.23c3.22,0,3.22-5,0-5s-3.22,5,0,5h0Z"/>
    <path class="cls-15" d="m728.71,495.23c3.22,0,3.22-5,0-5s-3.22,5,0,5h0Z"/>
    <path class="cls-15" d="m698.71,525.23c3.22,0,3.22-5,0-5s-3.22,5,0,5h0Z"/>
    <path class="cls-15" d="m728.71,523.86c1.45,0,1.45-2.25,0-2.25s-1.45,2.25,0,2.25h0Z"/>
  </g>
  <g>
    <path class="cls-15" d="m728.71,455.23c3.22,0,3.22-5,0-5s-3.22,5,0,5h0Z"/>
    <path class="cls-15" d="m758.71,425.23c3.22,0,3.22-5,0-5s-3.22,5,0,5h0Z"/>
    <path class="cls-15" d="m728.71,395.23c3.22,0,3.22-5,0-5s-3.22,5,0,5h0Z"/>
    <path class="cls-15" d="m698.71,425.23c3.22,0,3.22-5,0-5s-3.22,5,0,5h0Z"/>
    <path class="cls-15" d="m728.71,423.86c1.45,0,1.45-2.25,0-2.25s-1.45,2.25,0,2.25h0Z"/>
  </g>
  <g>
    <path class="cls-15" d="m638.71,455.23c3.22,0,3.22-5,0-5s-3.22,5,0,5h0Z"/>
    <path class="cls-15" d="m668.71,425.23c3.22,0,3.22-5,0-5s-3.22,5,0,5h0Z"/>
    <path class="cls-15" d="m638.71,395.23c3.22,0,3.22-5,0-5s-3.22,5,0,5h0Z"/>
    <path class="cls-15" d="m608.71,425.23c3.22,0,3.22-5,0-5s-3.22,5,0,5h0Z"/>
    <path class="cls-15" d="m638.71,423.86c1.45,0,1.45-2.25,0-2.25s-1.45,2.25,0,2.25h0Z"/>
  </g>
  <g>
    <path class="cls-15" d="m548.71,555.23c3.22,0,3.22-5,0-5s-3.22,5,0,5h0Z"/>
    <path class="cls-15" d="m578.71,525.23c3.22,0,3.22-5,0-5s-3.22,5,0,5h0Z"/>
    <path class="cls-15" d="m548.71,495.23c3.22,0,3.22-5,0-5s-3.22,5,0,5h0Z"/>
    <path class="cls-15" d="m518.71,525.23c3.22,0,3.22-5,0-5s-3.22,5,0,5h0Z"/>
    <path class="cls-15" d="m548.71,523.86c1.45,0,1.45-2.25,0-2.25s-1.45,2.25,0,2.25h0Z"/>
  </g>
  <g>
    <path class="cls-15" d="m458.71,555.23c3.22,0,3.22-5,0-5s-3.22,5,0,5h0Z"/>
    <path class="cls-15" d="m488.71,525.23c3.22,0,3.22-5,0-5s-3.22,5,0,5h0Z"/>
    <path class="cls-15" d="m458.71,495.23c3.22,0,3.22-5,0-5s-3.22,5,0,5h0Z"/>
    <path class="cls-15" d="m428.71,525.23c3.22,0,3.22-5,0-5s-3.22,5,0,5h0Z"/>
    <path class="cls-15" d="m458.71,523.86c1.45,0,1.45-2.25,0-2.25s-1.45,2.25,0,2.25h0Z"/>
  </g>
  <g>
    <path class="cls-15" d="m548.71,455.23c3.22,0,3.22-5,0-5s-3.22,5,0,5h0Z"/>
    <path class="cls-15" d="m578.71,425.23c3.22,0,3.22-5,0-5s-3.22,5,0,5h0Z"/>
    <path class="cls-15" d="m548.71,395.23c3.22,0,3.22-5,0-5s-3.22,5,0,5h0Z"/>
    <path class="cls-15" d="m518.71,425.23c3.22,0,3.22-5,0-5s-3.22,5,0,5h0Z"/>
    <path class="cls-15" d="m548.71,423.86c1.45,0,1.45-2.25,0-2.25s-1.45,2.25,0,2.25h0Z"/>
  </g>
  <g>
    <path class="cls-15" d="m458.71,455.23c3.22,0,3.22-5,0-5s-3.22,5,0,5h0Z"/>
    <path class="cls-15" d="m488.71,425.23c3.22,0,3.22-5,0-5s-3.22,5,0,5h0Z"/>
    <path class="cls-15" d="m458.71,395.23c3.22,0,3.22-5,0-5s-3.22,5,0,5h0Z"/>
    <path class="cls-15" d="m428.71,425.23c3.22,0,3.22-5,0-5s-3.22,5,0,5h0Z"/>
    <path class="cls-15" d="m458.71,423.86c1.45,0,1.45-2.25,0-2.25s-1.45,2.25,0,2.25h0Z"/>
  </g>
  <path class="cls-19" d="m747.22,428l2.61-1.58c-2.45,6.1-13.76,5.03-14.08-3.54-.29-7.69,10.71-11.65,14.86-2.64.64,1.4,1.92.74,1.52-.51-3.13-9.89-18.09-7.85-18.09,2.93,0,11.03,14.68,12.38,17.28,4.13l1.56,2.62s1.07-.61.77-1.38c-.43-1.06-2.26-3.68-2.44-3.95-.28.16-3.14,1.6-4.01,2.32-.63.53.02,1.58.02,1.58Z"/>
  <path class="cls-19" d="m747.22,528l2.61-1.58c-2.45,6.1-13.76,5.03-14.08-3.54-.29-7.69,10.71-11.65,14.86-2.64.64,1.4,1.92.74,1.52-.51-3.13-9.89-18.09-7.85-18.09,2.93,0,11.03,14.68,12.38,17.28,4.13l1.56,2.62s1.07-.61.77-1.38c-.43-1.06-2.26-3.68-2.44-3.95-.28.16-3.14,1.6-4.01,2.32-.63.53.02,1.58.02,1.58Z"/>
  <path class="cls-19" d="m476.4,419.09c.9.69,3.82,2.01,4.1,2.15.17-.28,1.89-2.97,2.28-4.04.27-.78-.82-1.34-.82-1.34l-1.45,2.68c-2.94-8.14-17.28-6.76-17.28,4.27,0,10.78,14.84,12.78,18.09,2.93.53-1.61-.83-2.15-1.52-.51-3.86,9.14-15.33,5.07-15.01-2.62.36-8.85,11.61-10.4,14.25-3.63l-2.67-1.47s-.61,1.07.04,1.58Z"/>
  <path class="cls-19" d="m476.4,519.09c.9.69,3.82,2.01,4.1,2.15.17-.28,1.89-2.97,2.28-4.04.27-.78-.82-1.34-.82-1.34l-1.45,2.68c-2.94-8.14-17.28-6.76-17.28,4.27,0,10.78,14.84,12.78,18.09,2.93.53-1.61-.83-2.15-1.52-.51-3.86,9.14-15.33,5.07-15.01-2.62.36-8.85,11.61-10.4,14.25-3.63l-2.67-1.47s-.61,1.07.04,1.58Z"/>
  <path class="cls-19" d="m656.4,419.1c.9.69,3.82,2.01,4.1,2.15.17-.28,1.89-2.97,2.28-4.04.27-.78-.82-1.34-.82-1.34l-1.45,2.68c-2.94-8.14-17.28-6.76-17.28,4.27,0,10.78,14.84,12.78,18.09,2.93.53-1.61-.83-2.15-1.52-.51-3.86,9.14-15.33,5.07-15.01-2.62.36-8.85,11.61-10.4,14.25-3.63l-2.67-1.47s-.61,1.07.04,1.58Z"/>
  <path class="cls-19" d="m656.4,519.1c.9.69,3.82,2.01,4.1,2.15.17-.28,1.89-2.97,2.28-4.04.27-.78-.82-1.34-.82-1.34l-1.45,2.68c-2.94-8.14-17.28-6.76-17.28,4.27,0,10.78,14.84,12.78,18.09,2.93.53-1.61-.83-2.15-1.52-.51-3.86,9.14-15.33,5.07-15.01-2.62.36-8.85,11.61-10.4,14.25-3.63l-2.67-1.47s-.61,1.07.04,1.58Z"/>
  <path class="cls-17" d="m434.26,429.77l1.68-2.34c1.3,11.23,16.22,11.73,18.14-1.1.19-1.28-1.46-1.56-1.66-.17-1.49,10.54-13.74,10.86-15.03,1.05l2.31,1.72s.71-.93.16-1.48c-.76-.76-3.31-2.36-3.57-2.52-.19.23-2.14,2.53-2.64,3.48-.35.69.61,1.36.61,1.36Z"/>
  <path class="cls-17" d="m631.91,398.83l2.34,1.68c-11.23,1.3-11.73,16.22,1.1,18.14,1.28.19,1.56-1.46.17-1.66-10.54-1.49-10.86-13.74-1.05-15.03l-1.72,2.31s.93.71,1.48.16c.76-.76,2.36-3.31,2.52-3.57-.23-.19-2.53-2.14-3.48-2.64-.69-.35-1.36.61-1.36.61Z"/>
  <path class="cls-17" d="m722.09,498.83l2.34,1.68c-11.23,1.3-11.73,16.22,1.1,18.14,1.28.19,1.56-1.46.17-1.66-10.54-1.49-10.86-13.74-1.05-15.03l-1.72,2.31s.93.71,1.48.16c.76-.76,2.36-3.31,2.52-3.57-.23-.19-2.53-2.14-3.48-2.64-.69-.35-1.36.61-1.36.61Z"/>
  <path class="cls-17" d="m735.25,396.46l-2.34,1.68c11.23,1.3,11.73,16.22-1.1,18.14-1.28.19-1.56-1.46-.17-1.66,10.54-1.49,10.86-13.74,1.05-15.03l1.72,2.31s-.93.71-1.48.16c-.76-.76-2.36-3.31-2.52-3.57.23-.19,2.53-2.14,3.48-2.64.69-.35,1.36.61,1.36.61Z"/>
  <path class="cls-17" d="m645.03,496.76l-2.34,1.68c11.23,1.3,11.73,16.22-1.1,18.14-1.28.19-1.56-1.46-.17-1.66,10.54-1.49,10.86-13.74,1.05-15.03l1.72,2.31s-.93.71-1.48.16c-.76-.76-2.36-3.31-2.52-3.57.23-.19,2.53-2.14,3.48-2.64.69-.35,1.36.61,1.36.61Z"/>
  <path class="cls-17" d="m435.77,515.8l1.68,2.34c1.3-11.23,16.22-11.73,18.14,1.1.19,1.28-1.46,1.56-1.66.17-1.49-10.54-13.74-10.86-15.03-1.05l2.31-1.72s.71.93.16,1.48c-.76.76-3.31,2.36-3.57,2.52-.19-.23-2.14-2.53-2.64-3.48-.35-.69.61-1.36.61-1.36Z"/>
  <path class="cls-17" d="m535.63,428.06l2.34,1.68c-11.23,1.3-11.73,16.22,1.1,18.14,1.28.19,1.56-1.46.17-1.66-10.54-1.49-10.86-13.74-1.05-15.03l-1.72,2.31s.93.71,1.48.16c.76-.76,2.36-3.31,2.52-3.57-.23-.19-2.53-2.14-3.48-2.64-.69-.35-1.36.61-1.36.61Z"/>
  <path class="cls-17" d="m535.63,547l2.34-1.68c-11.23-1.3-11.73-16.22,1.1-18.14,1.28-.19,1.56,1.46.17,1.66-10.54,1.49-10.86,13.74-1.05,15.03l-1.72-2.31s.93-.71,1.48-.16c.76.76,2.36,3.31,2.52,3.57-.23.19-2.53,2.14-3.48,2.64-.69.35-1.36-.61-1.36-.61Z"/>
  <path d="m463.16,467.03c-.58,0-.83.22-1.14.59-.15.17-.34,1.05-.67.49-.67-1.14.02-4.06.95-5.35.25-.33-.1-.52-.27-.62,0,0-.37-.19-.57-.13-.26.09-.53-.11-1.24,1.46-1.06-1.22-2.29-1.06-3.14-1.02-.75.03-3,.86-3,3.49,0,3.16,2.71,3.75,3.53,3.75s2.21-.53,2.56-.85c.21.64.6,1.03,1.08,1.13.75.16,1.08-.21,1.38-.63.44-.6.94-2.28.52-2.29Zm-5.54.89c-1.09,0-1.97-.9-1.97-1.98s.89-1.97,1.97-1.97,1.98.9,1.98,1.97-.9,1.98-1.98,1.98Z"/>
  <path d="m551.49,465.11c-.16-.2-.34-.37-.53-.53,2.94-3.35-3.93-5.42-4.03-1.35,0,1.93-.02,3.45-.02,5.38-.68-.21-1.45.23-1.56.98-.07,1.89,1.82,1.56,2.51.74.26-.31.36-.56.44-1.51,2.58,1.37,4.6-1.49,3.18-3.71Zm-1.11,2.59c-.77.61-1.12.01-1.66-.15-.12-.04-.24-.02-.37.03,0-1.54,0-3.06.02-4.62-.13-.86,1.1-1.14,1.64-.56.45.49.37,1.33-.17,1.52-1.77-.47-1.6,2.08,0,1.44.75.22,1.32,1.55.54,2.34Z"/>
  <path d="m642.6,461.83c-.02.26-.14.59-.9.55s-3.92.04-4.37.07c0,.56.26,3.6.43,7.28.05,1.13-.44,1.27-.64,1.27-.34,0-.92-.43-1.03-1.14-.09-.66-.16-2.16-.23-3.74-.06-1.37-.12-2.79-.21-3.75l-.95.31.03-1.02c.04-.21.25-.46.39-.47s6.42-.22,6.78-.2.7.53.69.83Z"/>
  <path d="m732.6,461.83c-.02.26-.14.59-.9.55s-3.92.04-4.37.07c0,.56.26,3.6.43,7.28.05,1.13-.44,1.27-.64,1.27-.34,0-.92-.43-1.03-1.14-.09-.66-.16-2.16-.23-3.74-.06-1.37-.12-2.79-.21-3.75l-.95.31.03-1.02c.04-.21.25-.46.39-.47s6.42-.22,6.78-.2.7.53.69.83Z"/>
  <path d="m463.16,567.03c-.58,0-.83.22-1.14.59-.15.17-.34,1.05-.67.49-.67-1.14.02-4.06.95-5.35.25-.33-.1-.52-.27-.62,0,0-.37-.19-.57-.13-.26.09-.53-.11-1.24,1.46-1.06-1.22-2.29-1.06-3.14-1.02-.75.03-3,.86-3,3.49,0,3.16,2.71,3.75,3.53,3.75s2.21-.53,2.56-.85c.21.64.6,1.03,1.08,1.13.75.16,1.08-.21,1.38-.63.44-.6.94-2.28.52-2.29Zm-5.54.89c-1.09,0-1.97-.9-1.97-1.98s.89-1.97,1.97-1.97,1.98.9,1.98,1.97-.9,1.98-1.98,1.98Z"/>
  <path d="m551.49,565.11c-.16-.2-.34-.37-.53-.53,2.94-3.35-3.93-5.42-4.03-1.35,0,1.93-.02,3.45-.02,5.38-.68-.21-1.45.23-1.56.98-.07,1.89,1.82,1.56,2.51.74.26-.31.36-.56.44-1.51,2.58,1.37,4.6-1.49,3.18-3.71Zm-1.11,2.59c-.77.61-1.12.01-1.66-.15-.12-.04-.24-.02-.37.03,0-1.54,0-3.06.02-4.62-.13-.86,1.1-1.14,1.64-.56.45.49.37,1.33-.17,1.52-1.77-.47-1.6,2.08,0,1.44.75.22,1.32,1.55.54,2.34Z"/>
  <path d="m642.6,561.83c-.02.26-.14.59-.9.55-.76-.04-3.92.04-4.37.07,0,.56.26,3.6.43,7.28.05,1.13-.44,1.27-.64,1.27-.34,0-.92-.43-1.03-1.14-.09-.66-.16-2.16-.23-3.74-.06-1.37-.12-2.79-.21-3.75l-.95.31.03-1.02c.04-.21.25-.46.39-.47s6.42-.22,6.78-.2.7.53.69.83Z"/>
  <path d="m732.6,561.83c-.02.26-.14.59-.9.55-.76-.04-3.92.04-4.37.07,0,.56.26,3.6.43,7.28.05,1.13-.44,1.27-.64,1.27-.34,0-.92-.43-1.03-1.14-.09-.66-.16-2.16-.23-3.74-.06-1.37-.12-2.79-.21-3.75l-.95.31.03-1.02c.04-.21.25-.46.39-.47s6.42-.22,6.78-.2.7.53.69.83Z"/>
  <path d="m548.71,459.5c-.69,0-1.25-.56-1.25-1.25,0-.69.56-1.25,1.25-1.25s1.25.56,1.25,1.25c0,.69-.56,1.25-1.25,1.25Z"/>
  <path d="m638.71,459.5c-.69,0-1.25-.56-1.25-1.25,0-.69.56-1.25,1.25-1.25s1.25.56,1.25,1.25c0,.69-.56,1.25-1.25,1.25Z"/>
  <path d="m458.71,459.5c-.69,0-1.25-.56-1.25-1.25,0-.69.56-1.25,1.25-1.25s1.25.56,1.25,1.25c0,.69-.56,1.25-1.25,1.25Z"/>
  <path d="m458.71,575c-.69,0-1.25-.56-1.25-1.25s.56-1.25,1.25-1.25,1.25.56,1.25,1.25-.56,1.25-1.25,1.25Z"/>
  <path d="m548.71,575c-.69,0-1.25-.56-1.25-1.25s.56-1.25,1.25-1.25,1.25.56,1.25,1.25-.56,1.25-1.25,1.25Z"/>
  <path d="m638.71,575c-.69,0-1.25-.56-1.25-1.25s.56-1.25,1.25-1.25,1.25.56,1.25,1.25-.56,1.25-1.25,1.25Z"/>
  <path d="m728.71,459.5c-.69,0-1.25-.56-1.25-1.25,0-.69.56-1.25,1.25-1.25s1.25.56,1.25,1.25c0,.69-.56,1.25-1.25,1.25Z"/>
  <path d="m728.71,575c-.69,0-1.25-.56-1.25-1.25s.56-1.25,1.25-1.25,1.25.56,1.25,1.25-.56,1.25-1.25,1.25Z"/>
  <rect class="cls-19" x="552.61" y="424.8" width="2.59" height="25.25" rx=".99" ry=".99"/>
  <rect class="cls-17" x="541.41" y="424.8" width="2.59" height="25.25" rx=".99" ry=".99"/>
  <path class="cls-19" d="m557.59,440.8c-.69.9-2.01,3.82-2.15,4.1.28.17,2.97,1.89,4.04,2.28.78.27,1.34-.82,1.34-.82l-2.68-1.45c8.14-2.94,6.76-17.28-4.27-17.28-10.78,0-12.78,14.84-2.93,18.09,1.61.53,2.15-.83.51-1.52-9.14-3.86-5.07-15.33,2.62-15.01,8.85.36,10.4,11.61,3.63,14.25l1.47-2.67s-1.07-.61-1.58.04Z"/>
  <rect class="cls-19" x="552.61" y="524.8" width="2.59" height="25.25" rx=".99" ry=".99"/>
  <rect class="cls-17" x="541.41" y="524.8" width="2.59" height="25.25" rx=".99" ry=".99"/>
  <path class="cls-19" d="m557.59,540.8c-.69.9-2.01,3.82-2.15,4.1.28.17,2.97,1.89,4.04,2.28.78.27,1.34-.82,1.34-.82l-2.68-1.45c8.14-2.94,6.76-17.28-4.27-17.28-10.78,0-12.78,14.84-2.93,18.09,1.61.53,2.15-.83.51-1.52-9.14-3.86-5.07-15.33,2.62-15.01,8.85.36,10.4,11.61,3.63,14.25l1.47-2.67s-1.07-.61-1.58.04Z"/>
  <rect class="cls-18" x="649.7" y="264.53" width="18.07" height="9.61"/>
  <g>
    <text class="cls-5" transform="translate(742.23 471.69)"><tspan class="cls-19" x="0" y="0">c</tspan><tspan class="cls-15" x="5.36" y="0">/</tspan><tspan class="cls-8" x="10.07" y="0">o</tspan></text>
    <text class="cls-5" transform="translate(740.99 571.69)"><tspan class="cls-19" x="0" y="0">c</tspan><tspan class="cls-15" x="5.36" y="0">/</tspan><tspan class="cls-8" x="10.07" y="0">o</tspan></text>
    <text class="cls-5" transform="translate(650.79 471.69)"><tspan class="cls-19" x="0" y="0">o</tspan><tspan class="cls-15" x="6.36" y="0">/</tspan><tspan class="cls-8" x="11.07" y="0">c</tspan></text>
    <text class="cls-5" transform="translate(649.7 571.69)"><tspan class="cls-19" x="0" y="0">o</tspan><tspan class="cls-15" x="6.36" y="0">/</tspan><tspan class="cls-8" x="11.07" y="0">c</tspan></text>
    <text class="cls-5" transform="translate(373.93 471.69)"><tspan class="cls-19" x="0" y="0">c</tspan><tspan class="cls-15" x="5.36" y="0">/</tspan><tspan class="cls-8" x="10.07" y="0">o</tspan></text>
    <text class="cls-5" transform="translate(372.69 571.69)"><tspan class="cls-19" x="0" y="0">c</tspan><tspan class="cls-15" x="5.36" y="0">/</tspan><tspan class="cls-8" x="10.07" y="0">o</tspan></text>
    <text class="cls-5" transform="translate(282.48 471.69)"><tspan class="cls-19" x="0" y="0">o</tspan><tspan class="cls-15" x="6.36" y="0">/</tspan><tspan class="cls-8" x="11.07" y="0">c</tspan></text>
    <text class="cls-5" transform="translate(281.4 571.69)"><tspan class="cls-19" x="0" y="0">o</tspan><tspan class="cls-15" x="6.36" y="0">/</tspan><tspan class="cls-8" x="11.07" y="0">c</tspan></text>
    <text class="cls-5" transform="translate(742.23 172.09)"><tspan class="cls-19" x="0" y="0">c</tspan><tspan class="cls-15" x="5.36" y="0">/</tspan><tspan class="cls-8" x="10.07" y="0">o</tspan></text>
    <text class="cls-5" transform="translate(740.99 272.09)"><tspan class="cls-19" x="0" y="0">c</tspan><tspan class="cls-15" x="5.36" y="0">/</tspan><tspan class="cls-8" x="10.07" y="0">o</tspan></text>
    <text class="cls-5" transform="translate(650.79 172.09)"><tspan class="cls-19" x="0" y="0">o</tspan><tspan class="cls-15" x="6.36" y="0">/</tspan><tspan class="cls-8" x="11.07" y="0">c</tspan></text>
    <text class="cls-5" transform="translate(650.79 272.85)"><tspan class="cls-19" x="0" y="0">o</tspan><tspan class="cls-15" x="6.36" y="0">/</tspan><tspan class="cls-8" x="11.07" y="0">c</tspan></text>
    <text class="cls-5" transform="translate(373.93 172.09)"><tspan class="cls-19" x="0" y="0">c</tspan><tspan class="cls-15" x="5.36" y="0">/</tspan><tspan class="cls-8" x="10.07" y="0">o</tspan></text>
    <text class="cls-5" transform="translate(372.69 272.09)"><tspan class="cls-19" x="0" y="0">c</tspan><tspan class="cls-15" x="5.36" y="0">/</tspan><tspan class="cls-8" x="10.07" y="0">o</tspan></text>
    <text class="cls-5" transform="translate(282.48 172.09)"><tspan class="cls-19" x="0" y="0">o</tspan><tspan class="cls-15" x="6.36" y="0">/</tspan><tspan class="cls-8" x="11.07" y="0">c</tspan></text>
    <text class="cls-5" transform="translate(281.4 272.09)"><tspan class="cls-19" x="0" y="0">o</tspan><tspan class="cls-15" x="6.36" y="0">/</tspan><tspan class="cls-8" x="11.07" y="0">c</tspan></text>
  </g>
  <g>
    <path d="m467.99,471.09v.85h-3v-.85h.98v-2.4h-.98v-.88l.33-.03c.23-.02.37-.03.71-.12s.58-.22.58-.22h.4v3.65h.98Z"/>
    <path d="m467.97,464.39l-.03.05h-2.95v-.16c.01-.05.01-.09.02-.11.01-.08.02-.14.05-.21.07-.24.18-.46.32-.66.08-.12.19-.24.28-.34.16-.17.32-.34.49-.5l.04-.04c.15-.14.28-.27.42-.41.02-.03.06-.06.09-.11.03-.03.06-.06.08-.11.09-.12.15-.23.17-.33v-.02c.01-.06.02-.11.02-.17,0,0,0-.02-.01-.04,0-.04,0-.06-.01-.11-.05-.13-.13-.21-.26-.25-.08-.03-.22-.03-.35.01-.1.04-.18.11-.22.21-.02.05-.03.12-.04.17s-.02.1-.02.13v.12h-.11c-.14-.02-.27-.03-.4-.04-.14-.01-.26-.03-.39-.04h-.09v-.14c.01-.11.02-.21.06-.31.03-.15.07-.27.14-.38.08-.16.21-.29.4-.41.13-.09.27-.15.45-.19.07-.02.15-.03.24-.04.11-.01.22-.01.33,0,.1,0,.23.02.33.04.19.05.34.13.48.24.17.13.29.29.39.5.04.09.07.18.08.31.01.1.02.18.01.27,0,.21-.05.44-.16.64-.07.15-.17.29-.24.4-.09.11-.18.2-.26.29-.11.13-.24.25-.37.35-.11.12-.24.23-.35.35-.04.04-.07.08-.1.12h1.48v.11c.01.77,0,.78-.01.81Z"/>
  </g>
  <g>
    <path d="m557.99,471.09v.85h-3v-.85h.98v-2.4h-.98v-.88l.33-.03c.23-.02.37-.03.71-.12s.58-.22.58-.22h.4v3.65h.98Z"/>
    <path d="m557.97,464.39l-.03.05h-2.95v-.16c.01-.05.01-.09.02-.11.01-.08.02-.14.05-.21.07-.24.18-.46.32-.66.08-.12.19-.24.28-.34.16-.17.32-.34.49-.5l.04-.04c.15-.14.28-.27.42-.41.02-.03.06-.06.09-.11.03-.03.06-.06.08-.11.09-.12.15-.23.17-.33v-.02c.01-.06.02-.11.02-.17,0,0,0-.02-.01-.04,0-.04,0-.06-.01-.11-.05-.13-.13-.21-.26-.25-.08-.03-.22-.03-.35.01-.1.04-.18.11-.22.21-.02.05-.03.12-.04.17s-.02.1-.02.13v.12h-.11c-.14-.02-.27-.03-.4-.04-.14-.01-.26-.03-.39-.04h-.09v-.14c.01-.11.02-.21.06-.31.03-.15.07-.27.14-.38.08-.16.21-.29.4-.41.13-.09.27-.15.45-.19.07-.02.15-.03.24-.04.11-.01.22-.01.33,0,.1,0,.23.02.33.04.19.05.34.13.48.24.17.13.29.29.39.5.04.09.07.18.08.31.01.1.02.18.01.27,0,.21-.05.44-.16.64-.07.15-.17.29-.24.4-.09.11-.18.2-.26.29-.11.13-.24.25-.37.35-.11.12-.24.23-.35.35-.04.04-.07.08-.1.12h1.48v.11c.01.77,0,.78-.01.81Z"/>
  </g>
  <g>
    <path d="m647.99,471.09v.85h-3v-.85h.98v-2.4h-.98v-.88l.33-.03c.23-.02.37-.03.71-.12s.58-.22.58-.22h.4v3.65h.98Z"/>
    <path d="m647.97,464.39l-.03.05h-2.95v-.16c.01-.05.01-.09.02-.11.01-.08.02-.14.05-.21.07-.24.18-.46.32-.66.08-.12.19-.24.28-.34.16-.17.32-.34.49-.5l.04-.04c.15-.14.28-.27.42-.41.02-.03.06-.06.09-.11.03-.03.06-.06.08-.11.09-.12.15-.23.17-.33v-.02c.01-.06.02-.11.02-.17,0,0,0-.02-.01-.04,0-.04,0-.06-.01-.11-.05-.13-.13-.21-.26-.25-.08-.03-.22-.03-.35.01-.1.04-.18.11-.22.21-.02.05-.03.12-.04.17s-.02.1-.02.13v.12h-.11c-.14-.02-.27-.03-.4-.04-.14-.01-.26-.03-.39-.04h-.09v-.14c.01-.11.02-.21.06-.31.03-.15.07-.27.14-.38.08-.16.21-.29.4-.41.13-.09.27-.15.45-.19.07-.02.15-.03.24-.04.11-.01.22-.01.33,0,.1,0,.23.02.33.04.19.05.34.13.48.24.17.13.29.29.39.5.04.09.07.18.08.31.01.1.02.18.01.27,0,.21-.05.44-.16.64-.07.15-.17.29-.24.4-.09.11-.18.2-.26.29-.11.13-.24.25-.37.35-.11.12-.24.23-.35.35-.04.04-.07.08-.1.12h1.48v.11c.01.77,0,.78-.01.81Z"/>
  </g>
  <g>
    <path d="m737.99,471.09v.85h-3v-.85h.98v-2.4h-.98v-.88l.33-.03c.23-.02.37-.03.71-.12s.58-.22.58-.22h.4v3.65h.98Z"/>
    <path d="m737.97,464.39l-.03.05h-2.95v-.16c.01-.05.01-.09.02-.11.01-.08.02-.14.05-.21.07-.24.18-.46.32-.66.08-.12.19-.24.28-.34.16-.17.32-.34.49-.5l.04-.04c.15-.14.28-.27.42-.41.02-.03.06-.06.09-.11.03-.03.06-.06.08-.11.09-.12.15-.23.17-.33v-.02c.01-.06.02-.11.02-.17,0,0,0-.02-.01-.04,0-.04,0-.06-.01-.11-.05-.13-.13-.21-.26-.25-.08-.03-.22-.03-.35.01-.1.04-.18.11-.22.21-.02.05-.03.12-.04.17s-.02.1-.02.13v.12h-.11c-.14-.02-.27-.03-.4-.04-.14-.01-.26-.03-.39-.04h-.09v-.14c.01-.11.02-.21.06-.31.03-.15.07-.27.14-.38.08-.16.21-.29.4-.41.13-.09.27-.15.45-.19.07-.02.15-.03.24-.04.11-.01.22-.01.33,0,.1,0,.23.02.33.04.19.05.34.13.48.24.17.13.29.29.39.5.04.09.07.18.08.31.01.1.02.18.01.27,0,.21-.05.44-.16.64-.07.15-.17.29-.24.4-.09.11-.18.2-.26.29-.11.13-.24.25-.37.35-.11.12-.24.23-.35.35-.04.04-.07.08-.1.12h1.48v.11c.01.77,0,.78-.01.81Z"/>
  </g>
  <g>
    <path d="m467.99,571.09v.85h-3v-.85h.98v-2.4h-.98v-.88l.33-.03c.23-.02.37-.03.71-.12s.58-.22.58-.22h.4v3.65h.98Z"/>
    <path d="m467.97,564.39l-.03.05h-2.95v-.16c.01-.05.01-.09.02-.11.01-.08.02-.14.05-.21.07-.24.18-.46.32-.66.08-.12.19-.24.28-.34.16-.17.32-.34.49-.5l.04-.04c.15-.14.28-.27.42-.41.02-.03.06-.06.09-.11.03-.03.06-.06.08-.11.09-.12.15-.23.17-.33v-.02c.01-.06.02-.11.02-.17,0,0,0-.02-.01-.04,0-.04,0-.06-.01-.11-.05-.13-.13-.21-.26-.25-.08-.03-.22-.03-.35.01-.1.04-.18.11-.22.21-.02.05-.03.12-.04.17s-.02.1-.02.13v.12h-.11c-.14-.02-.27-.03-.4-.04-.14-.01-.26-.03-.39-.04h-.09v-.14c.01-.11.02-.21.06-.31.03-.15.07-.27.14-.38.08-.16.21-.29.4-.41.13-.09.27-.15.45-.19.07-.02.15-.03.24-.04.11-.01.22-.01.33,0,.1,0,.23.02.33.04.19.05.34.13.48.24.17.13.29.29.39.5.04.09.07.18.08.31.01.1.02.18.01.27,0,.21-.05.44-.16.64-.07.15-.17.29-.24.4-.09.11-.18.2-.26.29-.11.13-.24.25-.37.35-.11.12-.24.23-.35.35-.04.04-.07.08-.1.12h1.48v.11c.01.77,0,.78-.01.81Z"/>
  </g>
  <g>
    <path d="m557.99,571.09v.85h-3v-.85h.98v-2.4h-.98v-.88l.33-.03c.23-.02.37-.03.71-.12s.58-.22.58-.22h.4v3.65h.98Z"/>
    <path d="m557.97,564.39l-.03.05h-2.95v-.16c.01-.05.01-.09.02-.11.01-.08.02-.14.05-.21.07-.24.18-.46.32-.66.08-.12.19-.24.28-.34.16-.17.32-.34.49-.5l.04-.04c.15-.14.28-.27.42-.41.02-.03.06-.06.09-.11.03-.03.06-.06.08-.11.09-.12.15-.23.17-.33v-.02c.01-.06.02-.11.02-.17,0,0,0-.02-.01-.04,0-.04,0-.06-.01-.11-.05-.13-.13-.21-.26-.25-.08-.03-.22-.03-.35.01-.1.04-.18.11-.22.21-.02.05-.03.12-.04.17s-.02.1-.02.13v.12h-.11c-.14-.02-.27-.03-.4-.04-.14-.01-.26-.03-.39-.04h-.09v-.14c.01-.11.02-.21.06-.31.03-.15.07-.27.14-.38.08-.16.21-.29.4-.41.13-.09.27-.15.45-.19.07-.02.15-.03.24-.04.11-.01.22-.01.33,0,.1,0,.23.02.33.04.19.05.34.13.48.24.17.13.29.29.39.5.04.09.07.18.08.31.01.1.02.18.01.27,0,.21-.05.44-.16.64-.07.15-.17.29-.24.4-.09.11-.18.2-.26.29-.11.13-.24.25-.37.35-.11.12-.24.23-.35.35-.04.04-.07.08-.1.12h1.48v.11c.01.77,0,.78-.01.81Z"/>
  </g>
  <g>
    <path d="m647.99,571.09v.85h-3v-.85h.98v-2.4h-.98v-.88l.33-.03c.23-.02.37-.03.71-.12s.58-.22.58-.22h.4v3.65h.98Z"/>
    <path d="m647.97,564.39l-.03.05h-2.95v-.16c.01-.05.01-.09.02-.11.01-.08.02-.14.05-.21.07-.24.18-.46.32-.66.08-.12.19-.24.28-.34.16-.17.32-.34.49-.5l.04-.04c.15-.14.28-.27.42-.41.02-.03.06-.06.09-.11.03-.03.06-.06.08-.11.09-.12.15-.23.17-.33v-.02c.01-.06.02-.11.02-.17,0,0,0-.02-.01-.04,0-.04,0-.06-.01-.11-.05-.13-.13-.21-.26-.25-.08-.03-.22-.03-.35.01-.1.04-.18.11-.22.21-.02.05-.03.12-.04.17s-.02.1-.02.13v.12h-.11c-.14-.02-.27-.03-.4-.04-.14-.01-.26-.03-.39-.04h-.09v-.14c.01-.11.02-.21.06-.31.03-.15.07-.27.14-.38.08-.16.21-.29.4-.41.13-.09.27-.15.45-.19.07-.02.15-.03.24-.04.11-.01.22-.01.33,0,.1,0,.23.02.33.04.19.05.34.13.48.24.17.13.29.29.39.5.04.09.07.18.08.31.01.1.02.18.01.27,0,.21-.05.44-.16.64-.07.15-.17.29-.24.4-.09.11-.18.2-.26.29-.11.13-.24.25-.37.35-.11.12-.24.23-.35.35-.04.04-.07.08-.1.12h1.48v.11c.01.77,0,.78-.01.81Z"/>
  </g>
  <g>
    <path d="m737.99,571.09v.85h-3v-.85h.98v-2.4h-.98v-.88l.33-.03c.23-.02.37-.03.71-.12s.58-.22.58-.22h.4v3.65h.98Z"/>
    <path d="m737.97,564.39l-.03.05h-2.95v-.16c.01-.05.01-.09.02-.11.01-.08.02-.14.05-.21.07-.24.18-.46.32-.66.08-.12.19-.24.28-.34.16-.17.32-.34.49-.5l.04-.04c.15-.14.28-.27.42-.41.02-.03.06-.06.09-.11.03-.03.06-.06.08-.11.09-.12.15-.23.17-.33v-.02c.01-.06.02-.11.02-.17,0,0,0-.02-.01-.04,0-.04,0-.06-.01-.11-.05-.13-.13-.21-.26-.25-.08-.03-.22-.03-.35.01-.1.04-.18.11-.22.21-.02.05-.03.12-.04.17s-.02.1-.02.13v.12h-.11c-.14-.02-.27-.03-.4-.04-.14-.01-.26-.03-.39-.04h-.09v-.14c.01-.11.02-.21.06-.31.03-.15.07-.27.14-.38.08-.16.21-.29.4-.41.13-.09.27-.15.45-.19.07-.02.15-.03.24-.04.11-.01.22-.01.33,0,.1,0,.23.02.33.04.19.05.34.13.48.24.17.13.29.29.39.5.04.09.07.18.08.31.01.1.02.18.01.27,0,.21-.05.44-.16.64-.07.15-.17.29-.24.4-.09.11-.18.2-.26.29-.11.13-.24.25-.37.35-.11.12-.24.23-.35.35-.04.04-.07.08-.1.12h1.48v.11c.01.77,0,.78-.01.81Z"/>
  </g>
  <text class="cls-16" transform="translate(503.09 357.91)"><tspan class="cls-14" x="0" y="0">Type 6</tspan><tspan class="cls-6" x="69.15" y="0" xml:space="preserve"> - </tspan><tspan class="cls-3" x="88.29" y="0">S</tspan><tspan class="cls-7" x="100.63" y="0">t</tspan><tspan class="cls-2" x="109.56" y="0">atic</tspan></text>
  <text class="cls-16" transform="translate(136.95 58.29)"><tspan class="cls-14" x="0" y="0">Type 4</tspan><tspan class="cls-6" x="69.15" y="0" xml:space="preserve"> - </tspan><tspan class="cls-4" x="88.29" y="0">Dash</tspan></text>
  <text class="cls-16" transform="translate(485.66 66.89)"><tspan class="cls-14" x="0" y="0">Type 5</tspan><tspan class="cls-6" x="69.15" y="0" xml:space="preserve"> - </tspan><tspan class="cls-1" x="88.29" y="0">Dual</tspan><tspan class="cls-6" x="141.54" y="0">-</tspan><tspan class="cls-4" x="149.67" y="0">Dash</tspan></text>
  <text class="cls-12" transform="translate(62.49 27.48)"><tspan x="0" y="0"> </tspan></text>
</svg>