<?xml version="1.0" encoding="UTF-8"?>
<svg id="Layer_1" data-name="Layer 1" xmlns="http://www.w3.org/2000/svg" viewBox="0 0 612 792">
  <defs>
    <style>
      .cls-1, .cls-2, .cls-3, .cls-4 {
        fill: none;
        stroke-miterlimit: 10;
      }

      .cls-1, .cls-3 {
        stroke: #231f20;
      }

      .cls-5 {
        letter-spacing: -.08em;
      }

      .cls-6 {
        fill: #21409a;
      }

      .cls-7, .cls-8, .cls-9 {
        letter-spacing: -.02em;
      }

      .cls-10, .cls-11, .cls-12, .cls-13, .cls-14, .cls-8, .cls-15, .cls-16, .cls-17, .cls-18, .cls-19, .cls-20, .cls-21, .cls-22, .cls-23 {
        font-family: Cambria, Cambria;
      }

      .cls-10, .cls-24 {
        letter-spacing: -.01em;
      }

      .cls-11 {
        letter-spacing: -.02em;
      }

      .cls-2, .cls-4 {
        stroke: #000;
      }

      .cls-25, .cls-26, .cls-27, .cls-28, .cls-29 {
        font-style: italic;
      }

      .cls-25, .cls-27, .cls-28, .cls-29 {
        font-family: Cambria-Italic, Cambria;
      }

      .cls-25, .cls-17 {
        letter-spacing: .01em;
      }

      .cls-30, .cls-21 {
        letter-spacing: -.01em;
      }

      .cls-12, .cls-31 {
        letter-spacing: 0em;
      }

      .cls-13, .cls-26, .cls-32, .cls-33, .cls-34, .cls-35, .cls-36 {
        fill: #231f20;
      }

      .cls-13, .cls-26, .cls-34 {
        font-size: 14px;
      }

      .cls-26 {
        font-family: Georgia-Italic, Georgia;
      }

      .cls-37, .cls-38, .cls-33, .cls-9 {
        font-family: Cambria-Bold, Cambria;
        font-weight: 700;
      }

      .cls-14, .cls-39 {
        letter-spacing: -.01em;
      }

      .cls-32 {
        font-size: 45px;
      }

      .cls-32, .cls-36 {
        font-family: MonotypeCorsiva, 'Monotype Corsiva';
      }

      .cls-40 {
        fill: #2e3192;
      }

      .cls-41 {
        letter-spacing: -.03em;
      }

      .cls-3, .cls-4 {
        stroke-width: 2px;
      }

      .cls-15, .cls-42 {
        letter-spacing: -.02em;
      }

      .cls-38 {
        letter-spacing: -.03em;
      }

      .cls-43, .cls-20 {
        letter-spacing: 0em;
      }

      .cls-33 {
        font-size: 18px;
      }

      .cls-44 {
        letter-spacing: -.08em;
      }

      .cls-16 {
        letter-spacing: -.02em;
      }

      .cls-18, .cls-45 {
        letter-spacing: -.01em;
      }

      .cls-28, .cls-19, .cls-46 {
        letter-spacing: 0em;
      }

      .cls-47 {
        letter-spacing: 0em;
      }

      .cls-48, .cls-23 {
        letter-spacing: -.06em;
      }

      .cls-49 {
        fill: #ed1c24;
      }

      .cls-29 {
        letter-spacing: -.04em;
      }

      .cls-50 {
        letter-spacing: -.1em;
      }

      .cls-51 {
        letter-spacing: -.02em;
      }

      .cls-36 {
        font-size: 15px;
      }

      .cls-52 {
        fill: #010101;
      }
    </style>
  </defs>
  <path class="cls-49" d="m205.56,641.13c11.89,0,22.68,9.57,22.72,21.38l2.41-2.65s1.11,1.01.54,1.85c-.65.95-3.93,4.08-3.93,4.08,0,0-3.32-2.66-4.21-3.8-.63-.81.43-1.89.43-1.89l2.78,2.61c-.03-8.93-7.32-18.79-20.74-19.5-1.57-.08-1.62-2.09,0-2.08Z"/>
  <text class="cls-13" transform="translate(154.85 68.37)"><tspan x="0" y="0">Cong</tspan><tspan class="cls-7" x="30.04" y="0">r</tspan><tspan x="35.59" y="0">atulations </tspan><tspan class="cls-39" x="98.5" y="0">f</tspan><tspan x="102.57" y="0">or making it </tspan><tspan class="cls-31" x="178.11" y="0">t</tspan><tspan x="182.72" y="0">o the end of L</tspan><tspan class="cls-46" x="263.37" y="0">e</tspan><tspan class="cls-42" x="270.06" y="0">v</tspan><tspan x="276.84" y="0">el 1! </tspan><tspan x="-43.77" y="16.8">The quest is </tspan><tspan class="cls-30" x="31.2" y="16.8">f</tspan><tspan x="35.28" y="16.8">ar f</tspan><tspan class="cls-45" x="55.22" y="16.8">r</tspan><tspan x="60.81" y="16.8">om </tspan><tspan class="cls-45" x="82.97" y="16.8">o</tspan><tspan class="cls-42" x="90.2" y="16.8">v</tspan><tspan x="96.98" y="16.8">e</tspan><tspan class="cls-50" x="103.81" y="16.8">r</tspan><tspan x="108.23" y="16.8">. He</tspan><tspan class="cls-45" x="130.62" y="16.8">r</tspan><tspan x="136.21" y="16.8">e’s a sneak peek of </tspan><tspan class="cls-46" x="249.69" y="16.8">w</tspan><tspan x="260.4" y="16.8">hat lies ahead:</tspan><tspan x="151.15" y="33.6"> </tspan></text>
  <text class="cls-32" transform="translate(108.08 43.59)"><tspan x="0" y="0">You did it! What’s next?</tspan></text>
  <text class="cls-34" transform="translate(337.11 761.05)"><tspan class="cls-22" x="0" y="0">In </tspan><tspan class="cls-37" x="15.44" y="0">L</tspan><tspan class="cls-9" x="23.15" y="0">e</tspan><tspan class="cls-38" x="30.34" y="0">v</tspan><tspan class="cls-37" x="37.37" y="0">el 6</tspan><tspan class="cls-22" x="60.49" y="0">, </tspan><tspan class="cls-10" x="66.45" y="0">w</tspan><tspan class="cls-22" x="77.11" y="0">e’ll look at multi-grid </tspan><tspan class="cls-16" x="205.37" y="0">v</tspan><tspan class="cls-22" x="212.12" y="0">ariations </tspan><tspan class="cls-22"><tspan x=".29" y="16.8">such as </tspan><tspan class="cls-45" x="46.96" y="16.8">A</tspan><tspan class="cls-31" x="55.47" y="16.8">t</tspan><tspan x="60.09" y="16.8">omic motions and conjoined grids.</tspan></tspan></text>
  <text class="cls-34" transform="translate(17.39 747.87)"><tspan class="cls-22" x="0" y="0">In </tspan><tspan class="cls-37" x="15.44" y="0">L</tspan><tspan class="cls-9" x="23.15" y="0">e</tspan><tspan class="cls-38" x="30.34" y="0">v</tspan><tspan class="cls-37" x="37.37" y="0">el 5</tspan><tspan class="cls-22" x="60.49" y="0">, </tspan><tspan class="cls-10" x="66.45" y="0">w</tspan><tspan class="cls-22" x="77.11" y="0">e’ll learn half-shifts and half-dashes, </tspan><tspan class="cls-22"><tspan class="cls-46" x="-.66" y="16.8">w</tspan><tspan x="10.04" y="16.8">hich will </tspan><tspan class="cls-45" x="64.05" y="16.8">r</tspan><tspan class="cls-46" x="69.64" y="16.8">e</tspan><tspan class="cls-42" x="76.33" y="16.8">v</tspan><tspan x="83.11" y="16.8">eal the centric positions </tspan><tspan class="cls-5" x="228.61" y="16.8">T</tspan><tspan x="235.78" y="16.8">er</tspan><tspan class="cls-7" x="248.4" y="16.8">r</tspan><tspan x="253.95" y="16.8">a/</tspan><tspan class="cls-44" x="267.65" y="16.8">T</tspan><tspan x="274.85" y="16.8">au, </tspan></tspan><tspan class="cls-22"><tspan x="4.25" y="33.6">and the motions Mu/Nu, completing the let</tspan><tspan class="cls-31" x="261.25" y="33.6">t</tspan><tspan x="265.87" y="33.6">ers.</tspan></tspan></text>
  <text class="cls-34" transform="translate(20.06 235.2)"><tspan class="cls-22" x="0" y="0">In </tspan><tspan class="cls-37" x="15.44" y="0">L</tspan><tspan class="cls-9" x="23.15" y="0">e</tspan><tspan class="cls-38" x="30.34" y="0">v</tspan><tspan class="cls-37" x="37.37" y="0">el 2</tspan><tspan class="cls-22" x="60.49" y="0">, </tspan><tspan class="cls-10" x="66.45" y="0">w</tspan><tspan class="cls-22" x="77.11" y="0">e’ll c</tspan><tspan class="cls-18" x="103.89" y="0">o</tspan><tspan class="cls-15" x="111.12" y="0">v</tspan><tspan class="cls-22" x="117.9" y="0">er the D</tspan><tspan class="cls-16" x="165.24" y="0">y</tspan><tspan class="cls-22" x="171.99" y="0">ads - pic</tspan><tspan class="cls-12" x="221.27" y="0">t</tspan><tspan class="cls-22" x="225.89" y="0">og</tspan><tspan class="cls-8" x="240.24" y="0">r</tspan><tspan class="cls-22" x="245.79" y="0">aphs containing </tspan><tspan class="cls-19" x="343.63" y="0">e</tspan><tspan class="cls-15" x="350.32" y="0">v</tspan><tspan class="cls-22" x="357.1" y="0">ery t</tspan><tspan class="cls-10" x="384.6" y="0">w</tspan><tspan class="cls-22" x="395.26" y="0">o-let</tspan><tspan class="cls-12" x="422.71" y="0">t</tspan><tspan class="cls-22" x="427.32" y="0">er </tspan><tspan class="cls-10" x="443.02" y="0">w</tspan><tspan class="cls-22" x="453.69" y="0">o</tspan><tspan class="cls-18" x="461.12" y="0">r</tspan><tspan class="cls-22" x="466.7" y="0">d in the Alphabe</tspan><tspan class="cls-17" x="564.07" y="0">t</tspan><tspan class="cls-22" x="569.02" y="0">. </tspan><tspan class="cls-23" x="23.95" y="16.8">W</tspan><tspan class="cls-22" x="36.03" y="16.8">e’ll also learn about stagge</tspan><tspan class="cls-18" x="193.69" y="16.8">r</tspan><tspan class="cls-22" x="199.27" y="16.8">ed motions. This </tspan><tspan class="cls-14" x="300.88" y="16.8">f</tspan><tspan class="cls-22" x="304.95" y="16.8">orms the basis </tspan><tspan class="cls-14" x="394.8" y="16.8">f</tspan><tspan class="cls-22" x="398.86" y="16.8">or </tspan><tspan class="cls-27" x="415.17" y="16.8">The </tspan><tspan class="cls-28" x="440.1" y="16.8">K</tspan><tspan class="cls-27" x="448.41" y="16.8">inetic Dictiona</tspan><tspan class="cls-25" x="533.35" y="16.8">r</tspan><tspan class="cls-29" x="539.26" y="16.8">y</tspan><tspan class="cls-27" x="545.15" y="16.8">. </tspan></text>
  <line class="cls-4" x1="-.3" y1="99.07" x2="611.47" y2="99.07"/>
  <line class="cls-4" x1=".11" y1="269.42" x2="611.89" y2="269.42"/>
  <line class="cls-4" x1=".11" y1="424.07" x2="611.89" y2="424.07"/>
  <line class="cls-4" x1=".11" y1="603.26" x2="611.89" y2="603.26"/>
  <text class="cls-34" transform="translate(23.8 395.43)"><tspan class="cls-22" x="0" y="0">In </tspan><tspan class="cls-37" x="15.44" y="0">L</tspan><tspan class="cls-9" x="23.15" y="0">e</tspan><tspan class="cls-38" x="30.34" y="0">v</tspan><tspan class="cls-37" x="37.37" y="0">el 3</tspan><tspan class="cls-22" x="60.49" y="0">, </tspan><tspan class="cls-10" x="66.45" y="0">w</tspan><tspan class="cls-22" x="77.11" y="0">e’ll </tspan><tspan class="cls-21" x="97.72" y="0">e</tspan><tspan class="cls-22" x="104.38" y="0">xplo</tspan><tspan class="cls-18" x="130.17" y="0">r</tspan><tspan class="cls-22" x="135.75" y="0">e L</tspan><tspan class="cls-15" x="153.18" y="0">ay</tspan><tspan class="cls-22" x="166.52" y="0">ers 2 and 3, multip</tspan><tspan class="cls-11" x="277.87" y="0">l</tspan><tspan class="cls-22" x="281.39" y="0">ying the possibilties </tspan><tspan class="cls-18" x="403.57" y="0">b</tspan><tspan class="cls-22" x="411.03" y="0">y adding </tspan><tspan class="cls-16" x="465.24" y="0">v</tspan><tspan class="cls-22" x="471.99" y="0">ariations </tspan><tspan class="cls-12" x="528.32" y="0">t</tspan><tspan class="cls-22" x="532.93" y="0">o our </tspan><tspan class="cls-22"><tspan x="52.32" y="16.8">base positions. </tspan><tspan class="cls-48" x="143.71" y="16.8">W</tspan><tspan x="155.79" y="16.8">e’ll learn h</tspan><tspan class="cls-47" x="218.27" y="16.8">o</tspan><tspan x="225.64" y="16.8">w </tspan><tspan class="cls-31" x="239.56" y="16.8">t</tspan><tspan x="244.18" y="16.8">o use floats and half-turns </tspan><tspan class="cls-31" x="402.41" y="16.8">t</tspan><tspan x="407.02" y="16.8">o t</tspan><tspan class="cls-7" x="422.27" y="16.8">r</tspan><tspan class="cls-42" x="427.82" y="16.8">av</tspan><tspan x="441.17" y="16.8">erse L</tspan><tspan class="cls-42" x="477.23" y="16.8">ay</tspan><tspan x="490.57" y="16.8">ers.</tspan></tspan></text>
  <g>
    <rect class="cls-49" x="90.48" y="339.01" width="25" height="2.5" rx=".99" ry=".99" transform="translate(205.97 680.51) rotate(-180)"/>
    <rect class="cls-40" x="61.86" y="339.01" width="25" height="2.5" rx=".99" ry=".99"/>
    <rect class="cls-49" x="170.48" y="339.01" width="25" height="2.5" rx=".99" ry=".99" transform="translate(523.24 157.27) rotate(90)"/>
    <rect class="cls-49" x="250.48" y="339.01" width="25" height="2.5" rx=".99" ry=".99" transform="translate(603.24 77.27) rotate(90)"/>
    <rect class="cls-40" x="141.86" y="339.01" width="25" height="2.5" rx=".99" ry=".99" transform="translate(-185.9 494.61) rotate(-90)"/>
    <rect class="cls-40" x="221.86" y="339.01" width="25" height="2.5" rx=".99" ry=".99"/>
    <path d="m37.56,342.33c-1.15,0-1.66.45-2.28,1.17-.3.34-.69,2.09-1.34.98-1.34-2.29.04-8.13,1.89-10.71.49-.66-.19-1.05-.53-1.24,0,0-.75-.38-1.13-.26-.51.17-1.07-.21-2.48,2.92-2.11-2.43-4.59-2.11-6.27-2.05-1.49.06-6,1.73-6,6.98,0,6.32,5.42,7.49,7.06,7.49s4.42-1.07,5.12-1.71c.43,1.28,1.19,2.07,2.16,2.26,1.49.32,2.16-.43,2.75-1.26.87-1.19,1.88-4.57,1.05-4.59Zm-11.08,1.77c-2.18,0-3.95-1.79-3.95-3.97s1.77-3.95,3.95-3.95,3.97,1.79,3.97,3.95-1.79,3.97-3.97,3.97Z"/>
    <text class="cls-33" transform="translate(78.38 294.53)"><tspan x="0" y="0">L1</tspan></text>
    <text class="cls-33" transform="translate(158.38 294.53)"><tspan x="0" y="0">L2</tspan></text>
    <text class="cls-33" transform="translate(238.38 294.53)"><tspan x="0" y="0">L3</tspan></text>
    <g>
      <path class="cls-35" d="m88.67,341.38c1.45,0,1.45-2.25,0-2.25s-1.45,2.25,0,2.25h0Z"/>
      <g>
        <path class="cls-35" d="m74.36,326.94c1.28,0,1.29-1.99,0-1.99s-1.29,1.99,0,1.99h0Z"/>
        <path class="cls-35" d="m74.36,355.56c1.28,0,1.29-1.99,0-1.99s-1.29,1.99,0,1.99h0Z"/>
        <path class="cls-35" d="m74.36,340.71c.58,0,.58-.9,0-.9s-.58.9,0,.9h0Z"/>
      </g>
      <g>
        <path class="cls-35" d="m75.36,354.56c0-1.28-1.99-1.29-1.99,0s1.99,1.29,1.99,0h0Z"/>
        <path class="cls-35" d="m103.98,354.56c0-1.28-1.99-1.29-1.99,0s1.99,1.29,1.99,0h0Z"/>
        <path class="cls-35" d="m88.67,355.01c.58,0,.58-.9,0-.9s-.58.9,0,.9h0Z"/>
      </g>
      <g>
        <path class="cls-35" d="m102.98,353.57c-1.28,0-1.29,1.99,0,1.99,1.28,0,1.29-1.99,0-1.99h0Z"/>
        <path class="cls-35" d="m102.98,324.95c-1.28,0-1.29,1.99,0,1.99,1.28,0,1.29-1.99,0-1.99h0Z"/>
        <path class="cls-35" d="m102.98,340.71c.58,0,.58-.9,0-.9s-.58.9,0,.9h0Z"/>
      </g>
      <g>
        <path class="cls-35" d="m101.98,325.95c0,1.28,1.99,1.29,1.99,0,0-1.28-1.99-1.29-1.99,0h0Z"/>
        <path class="cls-35" d="m73.36,325.95c0,1.28,1.99,1.29,1.99,0,0-1.28-1.99-1.29-1.99,0h0Z"/>
        <path class="cls-35" d="m88.67,326.4c.58,0,.58-.9,0-.9s-.58.9,0,.9h0Z"/>
      </g>
      <circle class="cls-35" cx="88.67" cy="310.26" r="2.5"/>
      <circle class="cls-35" cx="118.67" cy="340.26" r="2.5"/>
      <circle class="cls-35" cx="88.67" cy="370.26" r="2.5"/>
      <circle class="cls-35" cx="58.67" cy="340.26" r="2.5"/>
    </g>
    <g>
      <path class="cls-35" d="m168.67,341.38c1.45,0,1.45-2.25,0-2.25s-1.45,2.25,0,2.25h0Z"/>
      <g>
        <path class="cls-35" d="m154.36,326.94c1.28,0,1.29-1.99,0-1.99s-1.29,1.99,0,1.99h0Z"/>
        <path class="cls-35" d="m154.36,355.56c1.28,0,1.29-1.99,0-1.99s-1.29,1.99,0,1.99h0Z"/>
        <path class="cls-35" d="m154.36,340.71c.58,0,.58-.9,0-.9s-.58.9,0,.9h0Z"/>
      </g>
      <g>
        <path class="cls-35" d="m155.36,354.56c0-1.28-1.99-1.29-1.99,0s1.99,1.29,1.99,0h0Z"/>
        <path class="cls-35" d="m183.98,354.56c0-1.28-1.99-1.29-1.99,0s1.99,1.29,1.99,0h0Z"/>
        <path class="cls-35" d="m168.67,355.01c.58,0,.58-.9,0-.9s-.58.9,0,.9h0Z"/>
      </g>
      <g>
        <path class="cls-35" d="m182.98,353.57c-1.28,0-1.29,1.99,0,1.99,1.28,0,1.29-1.99,0-1.99h0Z"/>
        <path class="cls-35" d="m182.98,324.95c-1.28,0-1.29,1.99,0,1.99,1.28,0,1.29-1.99,0-1.99h0Z"/>
        <path class="cls-35" d="m182.98,340.71c.58,0,.58-.9,0-.9s-.58.9,0,.9h0Z"/>
      </g>
      <g>
        <path class="cls-35" d="m181.98,325.95c0,1.28,1.99,1.29,1.99,0,0-1.28-1.99-1.29-1.99,0h0Z"/>
        <path class="cls-35" d="m153.36,325.95c0,1.28,1.99,1.29,1.99,0,0-1.28-1.99-1.29-1.99,0h0Z"/>
        <path class="cls-35" d="m168.67,326.4c.58,0,.58-.9,0-.9s-.58.9,0,.9h0Z"/>
      </g>
      <circle class="cls-35" cx="168.67" cy="310.26" r="2.5"/>
      <circle class="cls-35" cx="198.67" cy="340.26" r="2.5"/>
      <circle class="cls-35" cx="168.67" cy="370.26" r="2.5"/>
      <circle class="cls-35" cx="138.67" cy="340.26" r="2.5"/>
    </g>
    <g>
      <path class="cls-35" d="m248.67,341.38c1.45,0,1.45-2.25,0-2.25s-1.45,2.25,0,2.25h0Z"/>
      <g>
        <path class="cls-35" d="m234.36,326.94c1.28,0,1.29-1.99,0-1.99s-1.29,1.99,0,1.99h0Z"/>
        <path class="cls-35" d="m234.36,355.56c1.28,0,1.29-1.99,0-1.99s-1.29,1.99,0,1.99h0Z"/>
        <path class="cls-35" d="m234.36,340.71c.58,0,.58-.9,0-.9s-.58.9,0,.9h0Z"/>
      </g>
      <g>
        <path class="cls-35" d="m235.36,354.56c0-1.28-1.99-1.29-1.99,0s1.99,1.29,1.99,0h0Z"/>
        <path class="cls-35" d="m263.98,354.56c0-1.28-1.99-1.29-1.99,0s1.99,1.29,1.99,0h0Z"/>
        <path class="cls-35" d="m248.67,355.01c.58,0,.58-.9,0-.9s-.58.9,0,.9h0Z"/>
      </g>
      <g>
        <path class="cls-35" d="m262.98,353.57c-1.28,0-1.29,1.99,0,1.99,1.28,0,1.29-1.99,0-1.99h0Z"/>
        <path class="cls-35" d="m262.98,324.95c-1.28,0-1.29,1.99,0,1.99,1.28,0,1.29-1.99,0-1.99h0Z"/>
        <path class="cls-35" d="m262.98,340.71c.58,0,.58-.9,0-.9s-.58.9,0,.9h0Z"/>
      </g>
      <g>
        <path class="cls-35" d="m261.98,325.95c0,1.28,1.99,1.29,1.99,0,0-1.28-1.99-1.29-1.99,0h0Z"/>
        <path class="cls-35" d="m233.36,325.95c0,1.28,1.99,1.29,1.99,0,0-1.28-1.99-1.29-1.99,0h0Z"/>
        <path class="cls-35" d="m248.67,326.4c.58,0,.58-.9,0-.9s-.58.9,0,.9h0Z"/>
      </g>
      <circle class="cls-35" cx="248.67" cy="310.26" r="2.5"/>
      <circle class="cls-35" cx="278.67" cy="340.26" r="2.5"/>
      <circle class="cls-35" cx="248.67" cy="370.26" r="2.5"/>
      <circle class="cls-35" cx="218.67" cy="340.26" r="2.5"/>
    </g>
  </g>
  <text class="cls-34" transform="translate(58.42 575.03)"><tspan class="cls-22" x="0" y="0">In </tspan><tspan class="cls-37" x="15.44" y="0">L</tspan><tspan class="cls-9" x="23.15" y="0">e</tspan><tspan class="cls-38" x="30.34" y="0">v</tspan><tspan class="cls-37" x="37.37" y="0">el 4</tspan><tspan class="cls-22" x="60.49" y="0">, </tspan><tspan class="cls-10" x="66.45" y="0">w</tspan><tspan class="cls-22" x="77.11" y="0">e’ll c</tspan><tspan class="cls-18" x="103.89" y="0">o</tspan><tspan class="cls-15" x="111.12" y="0">v</tspan><tspan class="cls-22" x="117.9" y="0">er s</tspan><tspan class="cls-8" x="139.62" y="0">k</tspan><tspan class="cls-22" x="146.72" y="0">e</tspan><tspan class="cls-20" x="153.55" y="0">w</tspan><tspan class="cls-22" x="164.27" y="0">s, </tspan><tspan class="cls-19" x="176.24" y="0">w</tspan><tspan class="cls-22" x="186.95" y="0">he</tspan><tspan class="cls-18" x="201.5" y="0">r</tspan><tspan class="cls-22" x="207.09" y="0">e one hand is in b</tspan><tspan class="cls-18" x="310.82" y="0">o</tspan><tspan class="cls-22" x="318.04" y="0">x and the other is in diamond. </tspan><tspan class="cls-22"><tspan class="cls-48" x="-26.2" y="16.8">W</tspan><tspan x="-14.12" y="16.8">e’ll </tspan><tspan class="cls-43" x="6.49" y="16.8">g</tspan><tspan x="13.3" y="16.8">ain t</tspan><tspan class="cls-24" x="39.66" y="16.8">w</tspan><tspan x="50.32" y="16.8">o new positions - Zeta/</tspan><tspan class="cls-47" x="188.02" y="16.8">E</tspan><tspan x="196" y="16.8">ta. </tspan><tspan class="cls-48" x="213.53" y="16.8">W</tspan><tspan x="225.61" y="16.8">e’ll also learn about the </tspan><tspan class="cls-41" x="367.39" y="16.8">T</tspan><tspan x="375.21" y="16.8">rigrid and the </tspan><tspan class="cls-51" x="460.21" y="16.8">P</tspan><tspan x="467.9" y="16.8">entagrid.</tspan></tspan></text>
  <line class="cls-2" x1="455.91" y1="269.27" x2="455.91" y2="377.53"/>
  <text class="cls-36" transform="translate(380.13 623.78)"><tspan x="0" y="0">Atomics</tspan></text>
  <text class="cls-36" transform="translate(123.53 622.21)"><tspan x="0" y="0">Centric Letters</tspan></text>
  <text class="cls-36" transform="translate(11.86 290.09)"><tspan x="0" y="0">Layers</tspan></text>
  <text class="cls-36" transform="translate(179.43 117.35)"><tspan x="0" y="0">Dyads</tspan></text>
  <text class="cls-36" transform="translate(470.03 117.35)"><tspan x="0" y="0">Staggers</tspan></text>
  <text class="cls-36" transform="translate(330.56 288.61)"><tspan x="0" y="0">Floats</tspan></text>
  <text class="cls-36" transform="translate(471 288.61)"><tspan x="0" y="0">Half-turns</tspan></text>
  <text class="cls-36" transform="translate(448.38 453.87)"><tspan x="0" y="0">Trigrid</tspan></text>
  <text class="cls-36" transform="translate(526.52 453.87)"><tspan x="0" y="0">Pentagrid</tspan></text>
  <text class="cls-36" transform="translate(512.72 624.77)"><tspan x="0" y="0">Conjoined Grids</tspan></text>
  <g>
    <rect class="cls-6" x="120.39" y="493.91" width="24.34" height="2.5" rx=".95" ry=".95"/>
    <rect class="cls-49" x="135.53" y="472.79" width="2.5" height="24.34" rx=".95" ry=".95" transform="translate(-302.85 238.76) rotate(-45)"/>
    <rect class="cls-49" x="55.01" y="483.71" width="24.34" height="2.5" rx=".95" ry=".95" transform="translate(-323.24 189.54) rotate(-45)"/>
    <rect class="cls-6" x="30.39" y="493.91" width="24.34" height="2.5" rx=".95" ry=".95"/>
    <g>
      <circle class="cls-35" cx="146.98" cy="465.16" r="2.5"/>
      <circle class="cls-35" cx="176.98" cy="495.16" r="2.5"/>
      <circle class="cls-35" cx="146.98" cy="525.16" r="2.5"/>
      <circle class="cls-35" cx="116.98" cy="495.16" r="2.5"/>
      <circle class="cls-35" cx="146.98" cy="495.16" r="1.12"/>
      <path class="cls-35" d="m125.77,472.44c.83,0,1.5.67,1.5,1.5s-.67,1.5-1.5,1.5-1.5-.67-1.5-1.5.67-1.5,1.5-1.5m0-1c-1.38,0-2.5,1.12-2.5,2.5s1.12,2.5,2.5,2.5,2.5-1.12,2.5-2.5-1.12-2.5-2.5-2.5h0Z"/>
      <path class="cls-35" d="m168.19,472.44c.83,0,1.5.67,1.5,1.5s-.67,1.5-1.5,1.5-1.5-.67-1.5-1.5.67-1.5,1.5-1.5m0-1c-1.38,0-2.5,1.12-2.5,2.5s1.12,2.5,2.5,2.5,2.5-1.12,2.5-2.5-1.12-2.5-2.5-2.5h0Z"/>
      <path class="cls-35" d="m168.19,514.87c.83,0,1.5.67,1.5,1.5s-.67,1.5-1.5,1.5-1.5-.67-1.5-1.5.67-1.5,1.5-1.5m0-1c-1.38,0-2.5,1.12-2.5,2.5s1.12,2.5,2.5,2.5,2.5-1.12,2.5-2.5-1.12-2.5-2.5-2.5h0Z"/>
      <path class="cls-35" d="m125.77,514.87c.83,0,1.5.67,1.5,1.5s-.67,1.5-1.5,1.5-1.5-.67-1.5-1.5.67-1.5,1.5-1.5m0-1c-1.38,0-2.5,1.12-2.5,2.5s1.12,2.5,2.5,2.5,2.5-1.12,2.5-2.5-1.12-2.5-2.5-2.5h0Z"/>
    </g>
    <g>
      <circle class="cls-35" cx="56.98" cy="465.16" r="2.5"/>
      <circle class="cls-35" cx="86.98" cy="495.16" r="2.5"/>
      <circle class="cls-35" cx="56.98" cy="525.16" r="2.5"/>
      <circle class="cls-35" cx="26.98" cy="495.16" r="2.5"/>
      <circle class="cls-35" cx="56.98" cy="495.16" r="1.12"/>
      <path class="cls-35" d="m35.77,472.44c.83,0,1.5.67,1.5,1.5s-.67,1.5-1.5,1.5-1.5-.67-1.5-1.5.67-1.5,1.5-1.5m0-1c-1.38,0-2.5,1.12-2.5,2.5s1.12,2.5,2.5,2.5,2.5-1.12,2.5-2.5-1.12-2.5-2.5-2.5h0Z"/>
      <path class="cls-35" d="m78.19,472.44c.83,0,1.5.67,1.5,1.5s-.67,1.5-1.5,1.5-1.5-.67-1.5-1.5.67-1.5,1.5-1.5m0-1c-1.38,0-2.5,1.12-2.5,2.5s1.12,2.5,2.5,2.5,2.5-1.12,2.5-2.5-1.12-2.5-2.5-2.5h0Z"/>
      <path class="cls-35" d="m78.19,514.87c.83,0,1.5.67,1.5,1.5s-.67,1.5-1.5,1.5-1.5-.67-1.5-1.5.67-1.5,1.5-1.5m0-1c-1.38,0-2.5,1.12-2.5,2.5s1.12,2.5,2.5,2.5,2.5-1.12,2.5-2.5-1.12-2.5-2.5-2.5h0Z"/>
      <path class="cls-35" d="m35.77,514.87c.83,0,1.5.67,1.5,1.5s-.67,1.5-1.5,1.5-1.5-.67-1.5-1.5.67-1.5,1.5-1.5m0-1c-1.38,0-2.5,1.12-2.5,2.5s1.12,2.5,2.5,2.5,2.5-1.12,2.5-2.5-1.12-2.5-2.5-2.5h0Z"/>
    </g>
    <path d="m58.6,544.87c-.34.38-.83.61-1.23.61-.07,0-.14,0-.19-.02-.24-.05-.41-.2-.48-.44-.06-.21.24-.53.74-.99.21-.21.52-.5.53-.57-.03-.03-.29-.08-.51-.12-.43-.07-1.02-.17-1.62-.46-1.09-.54-1.66-1.96-1.28-3.16.29-.89,1.16-1.69,1.92-2.4.18-.18.37-.34.54-.51-.17,0-.35,0-.55,0-.78.02-1.67.04-1.99-.39-.14-.18-.16-.42-.06-.72.04-.11.14-.18.25-.18.15,0,.4,0,.71,0,1.07-.02,2.84-.06,3.51-.03.14,0,.26.11.3.23.18.51-.03,1.01-.61,1.53-.24.25-.55.52-.88.8-.81.7-1.72,1.49-1.81,2.4-.11,1.13.97,1.35,2.02,1.58.76.17,1.47.32,1.64.83.15.45-.16,1.08-.96,2.01Z"/>
    <path d="m150.69,545.48h-1.47l-.04-.11s-.02-.04-.03-.08c-.06-.17-.18-.51-.29-.87-.19-.57-.23-2.8-.25-4.96v-.92c-.04-1.3-.6-1.76-1.11-1.76-.59,0-1.23.56-1.23,1.37v3.35c0,.53-.16.68-.74.68s-.75-.18-.75-.68c0-.03,0-.11,0-.23.12-3.49-.06-4.07-.15-4.16-.02-.03-.05-.06-.13-.04-.1.02-.29.15-.4.51-.02.07-.03.13-.04.2,0,.09-.02.21-.12.27-.1.04-.2.03-.35-.04-.43-.2-.33-.55-.25-.86v-.03s.03-.08.04-.11c.19-.73.61-1.2,1.15-1.3.49-.11,1.02.11,1.44.57.37-.61,1.26-.92,2.19-.76.87.15,1.81.76,1.85,2.06.02.59.02,1.32,0,2.25v.19c0,1.64,0,3.33.21,4.33.06.26.34.87.36.92l.1.21Z"/>
    <text class="cls-26" transform="translate(156.65 544.03)"><tspan x="0" y="0">eta</tspan></text>
    <text class="cls-36" transform="translate(56.98 447.76)"><tspan x="0" y="0">Skewed Positions</tspan></text>
    <text class="cls-26" transform="translate(66.02 544.22)"><tspan x="0" y="0">zeta</tspan></text>
  </g>
  <text class="cls-26" transform="translate(52.31 716.55)"><tspan x="0" y="0">terra</tspan></text>
  <text class="cls-26" transform="translate(209.43 716.55)"><tspan x="0" y="0">mu</tspan></text>
  <text class="cls-26" transform="translate(290.7 716.55)"><tspan x="0" y="0">nu</tspan></text>
  <text class="cls-26" transform="translate(130.47 716.55)"><tspan x="0" y="0">tau</tspan></text>
  <path class="cls-49" d="m285.65,640.95c0,21.23-.54,21.27,20.15,21.27l-2.72,2.66s1.04,1.1,1.87.5c1.18-.85,3.95-4.08,3.95-4.08,0,0-3.01-3.38-3.95-4.07-.82-.6-1.87.48-1.87.48l2.72,2.56c-19.11,0-18.08.84-18.08-19.29,0-1.51-2.07-1.51-2.07-.03Z"/>
  <g>
    <rect class="cls-49" x="123.53" y="667.85" width="24.34" height="2.5" rx=".95" ry=".95"/>
    <rect class="cls-49" x="203.53" y="667.85" width="24.34" height="2.5" rx=".95" ry=".95"/>
    <rect class="cls-49" x="283.53" y="667.85" width="24.34" height="2.5" rx=".95" ry=".95"/>
    <rect class="cls-6" x="29.35" y="667.85" width="24.34" height="2.5" rx=".95" ry=".95"/>
    <path d="m44.52,708.71c-.83-.75-1.9-1.15-3.01-1.15-.24,0-.48.03-.72.06-1.77.28-3.24,1.64-3.65,3.38-.34,1.48.04,2.97,1.04,4.08.87.94,2.08,1.48,3.35,1.48.2,0,.39-.02.59-.04,2.11-.28,3.78-2.1,3.89-4.23.06-1.36-.48-2.66-1.49-3.57Zm-3.62,6.57c-1.28-.23-2.38-1.32-2.6-2.6h2.6v2.6Zm0-3.84h-2.6c.23-1.28,1.32-2.37,2.6-2.6v2.6Zm1.24,3.84v-2.6h2.6c-.23,1.28-1.32,2.37-2.6,2.6Zm0-6.44c1.29.23,2.36,1.31,2.6,2.6h-2.6v-2.6Z"/>
    <path d="m203.63,714.27c-.51.1-1.16-.5-1.47-1.28-.67.99-2.11.99-2.81.05.03.35.16,1.7.19,1.93h0c.13.63.26,1.34-.06,1.75-.16.2-.43.32-.79.34h-.02l-.03-.02c-1.14-.33-.93-1.97-.63-3.37.1-.47.18-.9.18-1.25v-4.73c0-.86,1.4-.83,1.4,0,0,2.75-.17,4.65,1.1,4.65s1.35-1.77,1.35-4.65c0-.79,1.4-.78,1.4,0,0,1.98-.51,6.28.44,5.11.03-.07.19-.97.19-.97l.9-.04c0,1.64-.67,2.37-1.37,2.48Z"/>
    <path d="m285.38,708.03v.1c0,.32-.07.61-.15.87-.26.8-.63,1.54-.99,2.22-.93,1.78-2.86,4.37-4.22,5.68-.1.1-.2.15-.32.15-.06,0-.13-.02-.19-.05-.46-.15-.52-.24-.53-.73v-4.84c0-.5-.03-.91-.05-1.39l-.02-.33c0-.18-.05-.36-.09-.56-.12-.56-.28-.78-1.4-.79l.13-.4c.02-.07.05-.15.06-.23.05-.14.2-.16.26-.18.45-.05,1.94-.19,2.32-.19s.6.17.6.51v6.04c.33-.41.96-1.16,1.54-2.01.71-1.01.93-1.5.98-1.74.1-.46.05-.94-.17-1.45-.14-.3-.14-.64,0-.98.1-.27.3-.48.6-.6.3-.11.58-.12.87-.05.46.11.74.46.77.93Z"/>
    <path d="m125.69,707.93c0,.67-.15,1.01-.74,1.01s-2.22.06-2.22.06c-.73,1.66-1.16,2.7-1.54,4.38-.34,1.54.59,2.41,1.62,1.25.34-.38.64-.69.9-.61s.63.71,0,1.73-1.5,1.44-2.34,1.27c-3.41-.71-1.64-4.8-.34-8.02-.27-.06-1.43-.1-1.92.13-.35.16-.72.49-.9.88-.24.51-.41.41-.99.28-.35-.08.07-.9.37-1.43.64-1.11,1.35-1.86,2.68-1.8,0,0,4.27,0,4.66,0,.61,0,.74.2.74.87Z"/>
    <rect class="cls-6" x="120.14" y="656.93" width="2.5" height="24.34" rx=".95" ry=".95"/>
    <rect class="cls-6" x="200.14" y="656.93" width="2.5" height="24.34" rx=".95" ry=".95"/>
    <rect class="cls-6" x="280.14" y="656.93" width="2.5" height="24.34" rx=".95" ry=".95"/>
    <rect class="cls-49" x="40.27" y="656.93" width="2.5" height="24.34" rx=".95" ry=".95"/>
    <g>
      <circle class="cls-35" cx="201.39" cy="699.1" r="2.5"/>
      <circle class="cls-35" cx="171.39" cy="669.1" r="2.5"/>
      <circle class="cls-35" cx="201.39" cy="639.1" r="2.5"/>
      <circle class="cls-35" cx="231.39" cy="669.1" r="2.5"/>
      <circle class="cls-35" cx="201.39" cy="669.1" r="1.12"/>
    </g>
    <g>
      <circle class="cls-35" cx="281.39" cy="699.1" r="2.5"/>
      <circle class="cls-35" cx="251.39" cy="669.1" r="2.5"/>
      <circle class="cls-35" cx="281.39" cy="639.1" r="2.5"/>
      <circle class="cls-35" cx="311.39" cy="669.1" r="2.5"/>
      <circle class="cls-35" cx="281.39" cy="669.1" r="1.12"/>
    </g>
    <g>
      <circle class="cls-35" cx="121.39" cy="699.1" r="2.5"/>
      <circle class="cls-35" cx="91.39" cy="669.1" r="2.5"/>
      <circle class="cls-35" cx="121.39" cy="639.1" r="2.5"/>
      <circle class="cls-35" cx="151.39" cy="669.1" r="2.5"/>
      <circle class="cls-35" cx="121.39" cy="669.1" r="1.12"/>
    </g>
    <g>
      <circle class="cls-35" cx="41.52" cy="639.1" r="2.5"/>
      <circle class="cls-35" cx="71.52" cy="669.1" r="2.5"/>
      <circle class="cls-35" cx="41.52" cy="699.1" r="2.5"/>
      <circle class="cls-35" cx="11.52" cy="669.1" r="2.5"/>
      <circle class="cls-35" cx="41.52" cy="669.1" r="1.12"/>
    </g>
  </g>
  <line class="cls-3" x1="325.35" y1="603.71" x2="325.35" y2="792"/>
  <rect class="cls-40" x="434.39" y="660.93" width="24.84" height="2.4" rx=".95" ry=".95" transform="translate(1108.94 215.32) rotate(90)"/>
  <rect class="cls-49" x="434.39" y="689.55" width="24.84" height="2.4" rx=".95" ry=".95" transform="translate(1137.56 243.94) rotate(90)"/>
  <path d="m371.59,720.43v-1.08c.05,0,.11,0,.16,0,.27,0,.53,0,.8,0,.1,0,.21-.01.31-.03.16-.03.26-.16.29-.35.01-.11.02-.22.02-.32,0-1.45,0-2.91,0-4.36,0-.02,0-.04,0-.07h-1.57v-1.1c.12-.01.24-.03.37-.04.46-.05.92-.14,1.37-.27.36-.1.72-.2,1.05-.36.01,0,.02,0,.04,0,.17,0,.35,0,.53,0,0,.04,0,.07,0,.1,0,2.01,0,4.02,0,6.03,0,.14,0,.28.01.41.01.21.14.34.39.36.31.02.63.01.94.02.05,0,.09,0,.14,0,0,.02,0,.04,0,.06,0,.32,0,.64,0,.95,0,.06-.02.07-.07.07-1.58,0-3.16,0-4.74,0-.01,0-.02,0-.04,0Z"/>
  <g>
    <path class="cls-35" d="m476.81,678.91c3.22,0,3.22-5,0-5s-3.22,5,0,5h0Z"/>
    <path class="cls-35" d="m446.81,648.91c3.22,0,3.22-5,0-5s-3.22,5,0,5h0Z"/>
    <path class="cls-35" d="m416.81,678.91c3.22,0,3.22-5,0-5s-3.22,5,0,5h0Z"/>
    <path class="cls-35" d="m446.81,708.91c3.22,0,3.22-5,0-5s-3.22,5,0,5h0Z"/>
    <path class="cls-35" d="m446.81,677.53c1.45,0,1.45-2.25,0-2.25s-1.45,2.25,0,2.25h0Z"/>
  </g>
  <path class="cls-35" d="m367.17,716.74c4.39-1.93.8-6.48-3.28-4.27-.04.02-.07.06-.07.1-.38,2.63-.16,6.19.2,8.71.02.13.12.23.24.27,6.22,1.71,7.68-3.78,2.91-4.81Zm.65-2.47c0,1.13-1.98,1.51-2.74,1.51-.13-.26-.02-2.43.07-2.53.9-.25,2.67.04,2.67,1.02Zm-2.38,6.17c-.17-1.1-.2-1.41-.14-2.54.47-.06,3.32-.1,3.29,1.38-.03,1.15-2.44,1.38-3.15,1.16Z"/>
  <path class="cls-40" d="m344.55,680.26s-1.04-1.1-1.87-.5c-1.18.85-3.95,4.08-3.95,4.08,0,0,3.01,3.38,3.95,4.07.82.6,1.87-.48,1.87-.48l-2.72-2.66c15.48-.38,18.57,2.87,18.28,19.39,0,.42.37.83,1.07.83.61,0,1-.33,1-.8.41-18.04-4.63-21.82-20.35-21.17"/>
  <path class="cls-40" d="m443.7,655.23s1.1-1.04.5-1.87c-.85-1.18-4.08-3.95-4.08-3.95,0,0-3.38,3.01-4.07,3.95-.6.82.48,1.87.48,1.87l2.66-2.72c.38,15.48-2.87,18.57-19.39,18.28-.42,0-.83.37-.83,1.07s.33,1,.8,1c18.04.41,21.82-4.63,21.17-20.35"/>
  <path class="cls-49" d="m373.77,670.86l-5.72,5.75s-.72.54-1.36-.08c-.64-.61-.05-1.34-.05-1.34l5.72-5.75s.72-.54,1.36.08c.64.61.05,1.34.05,1.34Z"/>
  <rect class="cls-40" x="339.96" y="675.21" width="24.84" height="2.4" rx=".95" ry=".95"/>
  <g>
    <path class="cls-49" d="m367.68,649.93c-.48,0-.87.38-.87.86v18.96c0,.09.04.16.07.24,0,0,0,.01,0,.02.15.35.55.6.79.61.31,0,.57-.27.73-.4.11-.1,2.74-2.73,4.24-4.23.02-.01.04-.03.05-.04l.19-.19.81-.86v.05s0,.01,0,.01l-.34,3.45c.54-.1,1.14-.27,1.39-.58.67-.89.5-2.93.48-3.51-.04-.58-.17-1.76-.17-1.92h-.02v-.02c-.16,0-1.33-.13-1.92-.17-.58-.02-2.62-.19-3.51.49-.31.24-.48.84-.58,1.38l3.45-.34h.01s.05-.01.05-.01l-.92.87-.18.17-2.9,2.91c.01-4.96.01-16.88.01-16.88,0-.49-.39-.87-.86-.87Z"/>
    <path class="cls-49" d="m372.7,665.95s-.03.03-.05.04c0,0,.01,0,.01,0l.04-.05Z"/>
  </g>
  <path class="cls-49" d="m457.05,672.54l-.07.07-3.16,3.02-.67.66c0,1-.04,7.59-.07,11.8v3.24l-.03,1.18.03-.04h0s2.2-2.69,2.2-2.69c.31.45.63,1.01.58,1.4-.16,1.11-1.71,2.43-2.15,2.82s-1.36,1.12-1.48,1.24h0s-.01-.01-.01-.01c-.12-.1-1.03-.84-1.48-1.23-.43-.39-1.99-1.71-2.14-2.82-.05-.39.26-.95.57-1.4l2.2,2.7h0s.03.04.03.04v-.51s-.03-.71-.03-.71v-.3s0-3.38,0-3.38v-2.55s.07-9.1.07-9.1c0-.21.09-.44.26-.61t.02-.01s0,0,.01,0c.06-.08.12-.15.17-.21.04-.04.41-.41.94-.95.13-.13.31-.3.51-.5.1-.11.22-.21.33-.33,1.47-1.43,1.89-1.77,2.07-1.95h.01c.05-.06.07-.08.07-.08.35-.34.89-.34,1.22,0,.34.34.35.88,0,1.22Z"/>
  <path d="m357.43,716.87c.11.11.21.22.31.32,1.06,1.07,2.13,2.13,3.19,3.2.09.09.17.17.26.26.19.2.19.5,0,.7-.12.13-.25.26-.39.39-.21.19-.51.18-.72-.02-.24-.24-.48-.48-.72-.72-1.25-1.25-2.5-2.5-3.75-3.75-.22-.22-.22-.53,0-.75,1.18-1.18,2.35-2.35,3.53-3.53.31-.31.62-.62.93-.93.11-.11.25-.17.41-.16.13,0,.24.06.34.16.11.11.23.23.34.34.22.22.21.53,0,.75-.92.92-1.85,1.85-2.77,2.77-.23.23-.47.47-.7.71-.08.08-.16.15-.24.23,0,0-.02.02-.02.02Z"/>
  <path d="m381.02,716.89c-.11-.11-.21-.22-.31-.32-1.06-1.07-2.13-2.13-3.19-3.2-.09-.09-.17-.17-.26-.26-.19-.2-.19-.5,0-.7.12-.13.25-.26.39-.39.21-.19.51-.18.72.02.24.24.48.48.72.72,1.25,1.25,2.5,2.5,3.75,3.75.22.22.22.53,0,.75-1.18,1.18-2.35,2.35-3.53,3.53-.31.31-.62.62-.93.93-.11.11-.25.17-.41.16-.13,0-.24-.06-.34-.16-.11-.11-.23-.23-.34-.34-.22-.22-.21-.53,0-.75.92-.92,1.85-1.85,2.77-2.77.23-.23.47-.47.7-.71.08-.08.16-.15.24-.23,0,0,.02-.02.02-.02Z"/>
  <path class="cls-35" d="m447.17,716.74c4.39-1.93.8-6.48-3.28-4.27-.04.02-.07.06-.07.1-.38,2.63-.16,6.19.2,8.71.02.13.12.23.24.27,6.22,1.71,7.68-3.78,2.91-4.81Zm.65-2.47c0,1.13-1.98,1.51-2.74,1.51-.13-.26-.02-2.43.07-2.53.9-.25,2.67.04,2.67,1.02Zm-2.38,6.17c-.17-1.1-.2-1.41-.14-2.54.47-.06,3.32-.1,3.29,1.38-.03,1.15-2.44,1.38-3.15,1.16Z"/>
  <path d="m437.43,716.87c.11.11.21.22.31.32,1.06,1.07,2.13,2.13,3.19,3.2.09.09.17.17.26.26.19.2.19.5,0,.7-.12.13-.25.26-.39.39-.21.19-.51.18-.72-.02-.24-.24-.48-.48-.72-.72-1.25-1.25-2.5-2.5-3.75-3.75-.22-.22-.22-.53,0-.75,1.18-1.18,2.35-2.35,3.53-3.53.31-.31.62-.62.93-.93.11-.11.25-.17.41-.16.13,0,.24.06.34.16.11.11.23.23.34.34.22.22.21.53,0,.75-.92.92-1.85,1.85-2.77,2.77-.23.23-.47.47-.7.71-.08.08-.16.15-.24.23,0,0-.02.02-.02.02Z"/>
  <path d="m461.02,716.89c-.11-.11-.21-.22-.31-.32-1.06-1.07-2.13-2.13-3.19-3.2-.09-.09-.17-.17-.26-.26-.19-.2-.19-.5,0-.7.12-.13.25-.26.39-.39.21-.19.51-.18.72.02.24.24.48.48.72.72,1.25,1.25,2.5,2.5,3.75,3.75.22.22.22.53,0,.75-1.18,1.18-2.35,2.35-3.53,3.53-.31.31-.62.62-.93.93-.11.11-.25.17-.41.16-.13,0-.24-.06-.34-.16-.11-.11-.23-.23-.34-.34-.22-.22-.21-.53,0-.75.92-.92,1.85-1.85,2.77-2.77.23-.23.47-.47.7-.71.08-.08.16-.15.24-.23,0,0,.02-.02.02-.02Z"/>
  <path d="m450.88,721.07s0-.07.01-.1c.03-.18.06-.36.12-.54.13-.44.33-.83.6-1.2.16-.21.33-.42.51-.61.3-.33.62-.64.94-.94.3-.28.59-.55.88-.85.13-.13.25-.26.37-.4.17-.21.29-.45.36-.72.03-.13.04-.26.04-.4,0-.12-.02-.23-.06-.34-.1-.31-.31-.51-.62-.6-.13-.04-.26-.05-.39-.05-.14,0-.27.02-.4.06-.26.09-.45.27-.55.53-.05.11-.08.23-.1.35-.02.09-.03.19-.03.28,0,0,0,.01,0,.02-.5-.05-1-.1-1.51-.15,0-.02,0-.04,0-.07.02-.18.05-.35.1-.52.06-.23.15-.46.27-.66.17-.29.39-.51.67-.69.25-.16.52-.26.81-.33.14-.03.29-.06.43-.07.2-.02.4-.02.6-.01.21.01.42.04.62.09.3.08.59.2.84.39.3.23.53.51.68.86.07.17.12.34.15.52.02.16.03.31.02.47-.02.39-.11.77-.29,1.12-.12.25-.28.49-.45.71-.14.19-.3.36-.47.53-.22.22-.45.43-.68.64-.24.22-.48.44-.71.67-.16.16-.3.32-.42.51-.01.02-.02.04-.04.06h3.05s0,1.38,0,1.42h-5.35Z"/>
  <g>
    <path class="cls-35" d="m373.42,670.92c1.45,0,1.45-2.25,0-2.25s-1.45,2.25,0,2.25h0Z"/>
    <path class="cls-35" d="m360.2,684.14c1.45,0,1.45-2.25,0-2.25s-1.45,2.25,0,2.25h0Z"/>
  </g>
  <g>
    <path class="cls-35" d="m453.42,670.92c1.45,0,1.45-2.25,0-2.25s-1.45,2.25,0,2.25h0Z"/>
    <path class="cls-35" d="m440.2,684.14c1.45,0,1.45-2.25,0-2.25s-1.45,2.25,0,2.25h0Z"/>
  </g>
  <g>
    <path class="cls-35" d="m396.81,678.91c3.22,0,3.22-5,0-5s-3.22,5,0,5h0Z"/>
    <path class="cls-35" d="m366.81,648.91c3.22,0,3.22-5,0-5s-3.22,5,0,5h0Z"/>
    <path class="cls-35" d="m336.81,678.91c3.22,0,3.22-5,0-5s-3.22,5,0,5h0Z"/>
    <path class="cls-35" d="m366.81,708.91c3.22,0,3.22-5,0-5s-3.22,5,0,5h0Z"/>
    <path class="cls-35" d="m366.81,677.53c1.45,0,1.45-2.25,0-2.25s-1.45,2.25,0,2.25h0Z"/>
  </g>
  <line class="cls-1" x1="490.07" y1="612.95" x2="490.07" y2="746.37"/>
  <g>
    <path class="cls-35" d="m504.97,704.11c3.22,0,3.22-5,0-5s-3.22,5,0,5h0Z"/>
    <path class="cls-35" d="m534.97,734.11c3.22,0,3.22-5,0-5s-3.22,5,0,5h0Z"/>
    <path class="cls-35" d="m534.97,702.73c1.45,0,1.45-2.25,0-2.25s-1.45,2.25,0,2.25h0Z"/>
  </g>
  <g>
    <path class="cls-35" d="m594.97,704.11c3.22,0,3.22-5,0-5s-3.22,5,0,5h0Z"/>
    <path class="cls-35" d="m564.97,734.11c3.22,0,3.22-5,0-5s-3.22,5,0,5h0Z"/>
    <path class="cls-35" d="m564.97,702.73c1.45,0,1.45-2.25,0-2.25s-1.45,2.25,0,2.25h0Z"/>
  </g>
  <g>
    <path class="cls-35" d="m534.97,644.11c3.22,0,3.22-5,0-5s-3.22,5,0,5h0Z"/>
    <path class="cls-35" d="m504.97,674.11c3.22,0,3.22-5,0-5s-3.22,5,0,5h0Z"/>
    <path class="cls-35" d="m534.97,672.73c1.45,0,1.45-2.25,0-2.25s-1.45,2.25,0,2.25h0Z"/>
  </g>
  <g>
    <path class="cls-35" d="m594.97,674.11c3.22,0,3.22-5,0-5s-3.22,5,0,5h0Z"/>
    <path class="cls-35" d="m564.97,644.11c3.22,0,3.22-5,0-5s-3.22,5,0,5h0Z"/>
    <path class="cls-35" d="m564.97,672.73c1.45,0,1.45-2.25,0-2.25s-1.45,2.25,0,2.25h0Z"/>
  </g>
  <line class="cls-2" x1="317.29" y1="269.2" x2="317.29" y2="370.26"/>
  <line class="cls-2" x1="382.37" y1="99.07" x2="382.37" y2="207.97"/>
  <rect class="cls-49" x="394.91" y="319.86" width="25" height="2.5" rx=".99" ry=".99" transform="translate(86.3 728.52) rotate(-90)"/>
  <rect class="cls-40" x="366.29" y="319.86" width="25" height="2.5" rx=".99" ry=".99" transform="translate(57.68 699.9) rotate(-90)"/>
  <g>
    <path class="cls-35" d="m393.1,322.23c1.45,0,1.45-2.25,0-2.25s-1.45,2.25,0,2.25h0Z"/>
    <g>
      <path class="cls-35" d="m378.79,307.8c1.28,0,1.29-1.99,0-1.99s-1.29,1.99,0,1.99h0Z"/>
      <path class="cls-35" d="m378.79,336.42c1.28,0,1.29-1.99,0-1.99s-1.29,1.99,0,1.99h0Z"/>
      <path class="cls-35" d="m378.79,321.56c.58,0,.58-.9,0-.9s-.58.9,0,.9h0Z"/>
    </g>
    <g>
      <path class="cls-35" d="m379.79,335.42c0-1.28-1.99-1.29-1.99,0s1.99,1.29,1.99,0h0Z"/>
      <path class="cls-35" d="m408.41,335.42c0-1.28-1.99-1.29-1.99,0s1.99,1.29,1.99,0h0Z"/>
      <path class="cls-35" d="m393.1,335.87c.58,0,.58-.9,0-.9s-.58.9,0,.9h0Z"/>
    </g>
    <g>
      <path class="cls-35" d="m407.41,334.42c-1.28,0-1.29,1.99,0,1.99,1.28,0,1.29-1.99,0-1.99h0Z"/>
      <path class="cls-35" d="m407.41,305.8c-1.28,0-1.29,1.99,0,1.99,1.28,0,1.29-1.99,0-1.99h0Z"/>
      <path class="cls-35" d="m407.41,321.56c.58,0,.58-.9,0-.9s-.58.9,0,.9h0Z"/>
    </g>
    <g>
      <path class="cls-35" d="m406.41,306.8c0,1.28,1.99,1.29,1.99,0,0-1.28-1.99-1.29-1.99,0h0Z"/>
      <path class="cls-35" d="m377.79,306.8c0,1.28,1.99,1.29,1.99,0,0-1.28-1.99-1.29-1.99,0h0Z"/>
      <path class="cls-35" d="m393.1,307.25c.58,0,.58-.9,0-.9s-.58.9,0,.9h0Z"/>
    </g>
    <circle class="cls-35" cx="393.1" cy="291.11" r="2.5"/>
    <circle class="cls-35" cx="423.1" cy="321.11" r="2.5"/>
    <circle class="cls-35" cx="393.1" cy="351.11" r="2.5"/>
    <circle class="cls-35" cx="363.1" cy="321.11" r="2.5"/>
  </g>
  <path class="cls-49" d="m414.71,314.84c1.32.21,5.63-.1,5.63-.1,0,0,.3-4.31.1-5.63-.16-1-1.68-.97-1.68-.97l-.03,3.68-18.43-18.43c-.93-.93-2.25.38-1.32,1.32l18.43,18.43-3.68.03s-.03,1.51.97,1.68Z"/>
  <path class="cls-40" d="m371.49,327.38c-1.32-.21-5.63.1-5.63.1,0,0-.3,4.31-.1,5.63.16,1,1.68.97,1.68.97l.03-3.68,18.43,18.43c.93.93,2.25-.38,1.32-1.32l-18.43-18.43,3.68-.03s.03-1.51-.97-1.68Z"/>
  <path class="cls-35" d="m391.15,366.85c4.39-1.93.8-6.48-3.28-4.27-.04.02-.07.06-.07.1-.38,2.63-.16,6.19.2,8.71.02.13.12.23.24.27,6.22,1.71,7.68-3.78,2.91-4.81Zm.65-2.47c0,1.13-1.98,1.51-2.74,1.51-.13-.26-.02-2.43.07-2.53.9-.25,2.67.04,2.67,1.02Zm-2.38,6.17c-.17-1.1-.2-1.41-.14-2.54.47-.06,3.32-.1,3.29,1.38-.03,1.15-2.44,1.38-3.15,1.16Z"/>
  <path class="cls-35" d="m406.72,369.74c.42.55-.07,1.12-.5,1.33-9.15,4.54-8.83-9.42-3.27-9.09,1.07.06,2.05.85,2.39,1.26.25.29.44.81.12,1.16-.34.36-.8.24-1.02,0-4.33-4.56-6.65,9.06,1.11,5.25.45-.22.79-.4,1.16.09Z"/>
  <path class="cls-35" d="m381.45,371c-.87-2.99-2.3-6.84-2.48-7.31-.18-.46-.77-1.7-1.18-1.7s-1,1.24-1.18,1.7c-.18.47-1.61,4.32-2.48,7.31-.24.84.06.91.18.94,1.61.21,1.32-.3,1.57-1.4.23-1,.22-1.46,1-1.46.38,0,.56.01.91.01s.54-.01.91-.01c.78,0,.77.46,1,1.46.25,1.1-.04,1.61,1.57,1.4.12-.03.42-.1.18-.94Zm-2.91-3.37h-1.51c-.14,0-.23-.07-.19-.23l.94-3.44.94,3.44c.04.16-.05.23-.19.23Z"/>
  <path class="cls-35" d="m550.71,371c-.87-2.99-2.3-6.84-2.48-7.31-.18-.46-.77-1.7-1.18-1.7s-1,1.24-1.18,1.7c-.18.47-1.61,4.32-2.48,7.31-.24.84.06.91.18.94,1.61.21,1.32-.3,1.57-1.4.23-1,.22-1.46,1-1.46.38,0,.56.01.91.01s.54-.01.91-.01c.78,0,.77.46,1,1.46.25,1.1-.04,1.61,1.57,1.4.12-.03.42-.1.18-.94Zm-2.91-3.37h-1.51c-.14,0-.23-.07-.19-.23l.94-3.44.94,3.44c.04.16-.05.23-.19.23Z"/>
  <g>
    <path class="cls-52" d="m410.74,366.99c0,1.74-.62,3.42-1.75,4.74-.12.15-.29.24-.48.25-.02,0-.04,0-.06,0-.17,0-.33-.07-.46-.18-.14-.12-.24-.3-.25-.49-.02-.2.05-.38.17-.53.9-1.06,1.39-2.4,1.39-3.8s-.5-2.75-1.39-3.81c-.12-.14-.19-.33-.17-.53,0-.19.1-.37.25-.49.29-.26.75-.23,1.01.08,1.13,1.32,1.75,3,1.75,4.75Z"/>
    <path class="cls-52" d="m370.19,366.99c0-1.74.62-3.42,1.75-4.74.12-.15.29-.24.48-.25.02,0,.04,0,.06,0,.17,0,.33.07.46.18.14.12.24.3.25.49.02.2-.05.38-.17.53-.9,1.06-1.39,2.4-1.39,3.8,0,1.4.5,2.75,1.39,3.81.12.14.19.33.17.53,0,.19-.1.37-.25.49-.29.26-.75.23-1.01-.08-1.13-1.32-1.75-3-1.75-4.75Z"/>
  </g>
  <path class="cls-35" d="m383.67,371.8l3-9.2c.06-.18-.08-.38-.3-.45l-.47-.15c-.22-.07-.46.01-.51.19l-3,9.2c-.06.18.08.38.3.45l.47.15c.22.07.46-.01.51-.19Z"/>
  <path class="cls-35" d="m395.8,371.8l3-9.2c.06-.18-.08-.38-.3-.45l-.47-.15c-.22-.07-.46.01-.51.19l-3,9.2c-.06.18.08.38.3.45l.47.15c.22.07.46-.01.51-.19Z"/>
  <circle class="cls-35" cx="414.36" cy="363.49" r="1.5"/>
  <circle class="cls-35" cx="414.36" cy="370.49" r="1.5"/>
  <path class="cls-49" d="m564.83,333.07s-.99-4.41-1-5.58c-.01-1.02,1.48-1.24,1.48-1.24l.54,3.68c7.51-11.75-2.9-26.52-16.68-30.72-.73-.23-1.19-.95-.96-1.48.19-.46.57-.81,1.52-.53,16.19,4.94,25.89,21.7,17.8,33.81l3.61-.57s.28,1.49-.68,1.81c-1.39.46-5.63.82-5.63.82Z"/>
  <path class="cls-40" d="m529.27,312.9s.99,4.41,1,5.58c.01,1.02-1.48,1.24-1.48,1.24l-.54-3.68c-7.51,11.75,2.9,26.52,16.68,30.72.73.23,1.19.95.96,1.48-.19.46-.57.81-1.52.53-16.19-4.94-25.89-21.7-17.8-33.81l-3.61.57s-.28-1.49.68-1.81c1.39-.46,5.63-.82,5.63-.82Z"/>
  <rect class="cls-40" x="531.44" y="310.24" width="2.59" height="25.25" rx=".99" ry=".99"/>
  <rect class="cls-49" x="560.06" y="310.24" width="2.59" height="25.25" rx=".99" ry=".99"/>
  <g>
    <path class="cls-35" d="m547.05,323.99c1.45,0,1.45-2.25,0-2.25s-1.45,2.25,0,2.25h0Z"/>
    <g>
      <path class="cls-35" d="m532.74,309.56c1.28,0,1.29-1.99,0-1.99s-1.29,1.99,0,1.99h0Z"/>
      <path class="cls-35" d="m532.74,338.18c1.28,0,1.29-1.99,0-1.99s-1.29,1.99,0,1.99h0Z"/>
      <path class="cls-35" d="m532.74,323.32c.58,0,.58-.9,0-.9s-.58.9,0,.9h0Z"/>
    </g>
    <g>
      <path class="cls-35" d="m533.74,337.18c0-1.28-1.99-1.29-1.99,0s1.99,1.29,1.99,0h0Z"/>
      <path class="cls-35" d="m562.36,337.18c0-1.28-1.99-1.29-1.99,0s1.99,1.29,1.99,0h0Z"/>
      <path class="cls-35" d="m547.05,337.63c.58,0,.58-.9,0-.9s-.58.9,0,.9h0Z"/>
    </g>
    <g>
      <path class="cls-35" d="m561.36,336.18c-1.28,0-1.29,1.99,0,1.99,1.28,0,1.29-1.99,0-1.99h0Z"/>
      <path class="cls-35" d="m561.36,307.56c-1.28,0-1.29,1.99,0,1.99,1.28,0,1.29-1.99,0-1.99h0Z"/>
      <path class="cls-35" d="m561.36,323.32c.58,0,.58-.9,0-.9s-.58.9,0,.9h0Z"/>
    </g>
    <g>
      <path class="cls-35" d="m560.36,308.56c0,1.28,1.99,1.29,1.99,0,0-1.28-1.99-1.29-1.99,0h0Z"/>
      <path class="cls-35" d="m531.74,308.56c0,1.28,1.99,1.29,1.99,0,0-1.28-1.99-1.29-1.99,0h0Z"/>
      <path class="cls-35" d="m547.05,309.01c.58,0,.58-.9,0-.9s-.58.9,0,.9h0Z"/>
    </g>
    <circle class="cls-35" cx="547.05" cy="292.87" r="2.5"/>
    <circle class="cls-35" cx="577.05" cy="322.87" r="2.5"/>
    <circle class="cls-35" cx="547.05" cy="352.87" r="2.5"/>
    <circle class="cls-35" cx="517.05" cy="322.87" r="2.5"/>
  </g>
  <g>
    <path class="cls-35" d="m554.14,361.62c-.36,0-1.59.16-1.59,2.26s1.23,2.24,1.59,2.24,1.56-.16,1.56-2.24-1.19-2.26-1.56-2.26Zm0,3.81c-.14,0-.6,0-.6-1.55s.46-1.56.6-1.56c.47,0,.57.85.57,1.56s-.1,1.55-.57,1.55Z"/>
    <path class="cls-35" d="m560.9,364.55c0,.91-.77,1.57-1.82,1.57-.55,0-.98-.14-1.2-.27l-.13-.08.28-.78.21.12c.19.09.51.2.84.2.42,0,.84-.24.84-.69-.01-.59-.58-.71-1.06-.71-.22,0-.4.02-.54.03l-.31.03.35-2.35h2.46v.83h-1.7l-.11.65h.13c.37,0,.75.09,1.05.24.45.24.72.68.72,1.21Z"/>
    <path class="cls-35" d="m556.62,366.12c.89,0,.89-1.35,0-1.35s-.89,1.35,0,1.35h0Z"/>
  </g>
  <g>
    <path class="cls-35" d="m554.14,369.12c-.36,0-1.59.16-1.59,2.26s1.23,2.24,1.59,2.24,1.56-.16,1.56-2.24-1.19-2.26-1.56-2.26Zm0,3.81c-.14,0-.6,0-.6-1.55s.46-1.56.6-1.56c.47,0,.57.85.57,1.56s-.1,1.55-.57,1.55Z"/>
    <path class="cls-35" d="m560.9,372.05c0,.91-.77,1.57-1.82,1.57-.55,0-.98-.14-1.2-.27l-.13-.08.28-.78.21.12c.19.09.51.2.84.2.42,0,.84-.24.84-.69-.01-.59-.58-.71-1.06-.71-.22,0-.4.02-.54.03l-.31.03.35-2.35h2.46v.83h-1.7l-.11.65h.13c.37,0,.75.09,1.05.24.45.24.72.68.72,1.21Z"/>
    <path class="cls-35" d="m556.62,373.62c.89,0,.89-1.35,0-1.35s-.89,1.35,0,1.35h0Z"/>
  </g>
  <path class="cls-49" d="m86.38,184.26l2.64-2.65s-1.05-1.08-1.87-.47c-.94.68-3.95,4.06-3.95,4.06,0,0,2.77,3.23,3.95,4.09.82.59,1.87-.5,1.87-.5l-2.64-2.61c32.86,0,32.43-52.45-1.76-52.45-1.92,0-1.86,2.24,0,2.23,31.49-.1,31.03,48.2,1.76,48.3Z"/>
  <path class="cls-40" d="m74.12,136.4l-2.64,2.65s1.05,1.08,1.87.47c.94-.68,3.95-4.06,3.95-4.06,0,0-2.77-3.23-3.95-4.09-.82-.59-1.87.5-1.87.5l2.64,2.61c-32.86,0-32.43,52.45,1.76,52.45,1.92,0,1.86-2.24,0-2.23-31.49.1-31.03-48.2-1.76-48.3Z"/>
  <path class="cls-35" d="m79.33,204.89c-.87-2.99-2.3-6.84-2.48-7.31-.18-.46-.77-1.7-1.18-1.7s-1,1.24-1.18,1.7c-.18.47-1.61,4.32-2.48,7.31-.24.84.06.91.18.94,1.61.21,1.32-.3,1.57-1.4.23-1,.22-1.46,1-1.46.38,0,.56.01.91.01s.54-.01.91-.01c.78,0,.77.46,1,1.46.25,1.1-.04,1.61,1.57,1.4.12-.03.42-.1.18-.94Zm-2.91-3.37h-1.51c-.14,0-.23-.07-.19-.23l.94-3.44.94,3.44c.04.16-.05.23-.19.23Z"/>
  <path class="cls-35" d="m88.42,204.89c-.87-2.99-2.3-6.84-2.48-7.31-.18-.46-.77-1.7-1.18-1.7s-1,1.24-1.18,1.7c-.18.47-1.61,4.32-2.48,7.31-.24.84.06.91.18.94,1.61.21,1.32-.3,1.57-1.4.23-1,.22-1.46,1-1.46.38,0,.56.01.91.01s.54-.01.91-.01c.78,0,.77.46,1,1.46.25,1.1-.04,1.61,1.57,1.4.12-.03.42-.1.18-.94Zm-2.91-3.37h-1.51c-.14,0-.23-.07-.19-.23l.94-3.44.94,3.44c.04.16-.05.23-.19.23Z"/>
  <g>
    <circle class="cls-35" cx="80.25" cy="190.06" r="2.5"/>
    <circle class="cls-35" cx="110.25" cy="160.06" r="2.5"/>
    <circle class="cls-35" cx="80.25" cy="130.06" r="2.5"/>
    <circle class="cls-35" cx="50.25" cy="160.06" r="2.5"/>
    <circle class="cls-35" cx="80.25" cy="160.06" r="1.12"/>
  </g>
  <rect class="cls-40" x="67.75" y="144.5" width="25" height="2.5" rx=".99" ry=".99" transform="translate(226 65.5) rotate(90)"/>
  <rect class="cls-49" x="67.75" y="173.13" width="25" height="2.5" rx=".99" ry=".99" transform="translate(-94.12 254.63) rotate(-90)"/>
  <g>
    <circle class="cls-35" cx="160.25" cy="190.06" r="2.5"/>
    <circle class="cls-35" cx="190.25" cy="160.06" r="2.5"/>
    <circle class="cls-35" cx="160.25" cy="130.06" r="2.5"/>
    <circle class="cls-35" cx="130.25" cy="160.06" r="2.5"/>
    <circle class="cls-35" cx="160.25" cy="160.06" r="1.12"/>
  </g>
  <g>
    <path class="cls-35" d="m168.67,206.55c-.87-2.99-2.3-6.84-2.48-7.31-.18-.46-.77-1.7-1.18-1.7s-1,1.24-1.18,1.7c-.18.47-1.61,4.32-2.48,7.31-.24.84.06.91.18.94,1.61.21,1.32-.3,1.57-1.4.23-1,.22-1.46,1-1.46.38,0,.56.01.91.01s.54-.01.91-.01c.78,0,.77.46,1,1.46.25,1.1-.04,1.61,1.57,1.4.12-.03.42-.1.18-.94Zm-2.91-3.37h-1.51c-.14,0-.23-.07-.19-.23l.94-3.44.94,3.44c.04.16-.05.23-.19.23Z"/>
    <path class="cls-35" d="m159.22,206.55c-.87-2.99-2.3-6.84-2.48-7.31-.18-.46-.77-1.7-1.18-1.7s-1,1.24-1.18,1.7c-.18.47-1.61,4.32-2.48,7.31-.24.84.06.91.18.94,1.61.21,1.32-.3,1.57-1.4.23-1,.22-1.46,1-1.46.38,0,.56.01.91.01s.54-.01.91-.01c.78,0,.77.46,1,1.46.25,1.1-.04,1.61,1.57,1.4.12-.03.42-.1.18-.94Zm-2.91-3.37h-1.51c-.14,0-.23-.07-.19-.23l.94-3.44.94,3.44c.04.16-.05.23-.19.23Z"/>
  </g>
  <path class="cls-49" d="m164.06,133.15s2.95-3.4,3.93-4.07c.84-.58,1.91.51,1.91.51l-2.47,2.57c7.25,0,21.19,5.72,20.39,22.44-.14,3-1.63,3.46-2.43,3.46s-2.12-.55-2.21-3.02c-.3-8.74-8.63-15.29-17.62-15.29-1.54.04-1.59-2.03,0-2.03,10.39,0,19.83,7.91,19.93,17.85,1.82-14.27-10.29-21.32-18.05-21.32l2.45,2.51s-1.05,1.09-1.87.5c-1.18-.86-3.97-4.12-3.97-4.12Z"/>
  <path class="cls-40" d="m156.45,187.14s-2.95,3.4-3.93,4.07c-.84.58-1.91-.51-1.91-.51l2.47-2.57c-7.25,0-21.19-5.72-20.39-22.44.14-3,1.63-3.46,2.43-3.46s2.12.55,2.21,3.02c.3,8.74,8.63,15.29,17.62,15.29,1.54-.04,1.59,2.03,0,2.03-10.39,0-19.83-7.91-19.93-17.85-1.82,14.27,10.29,21.32,18.05,21.32l-2.45-2.51s1.05-1.09,1.87-.5c1.18.86,3.97,4.12,3.97,4.12Z"/>
  <rect class="cls-40" x="147.75" y="173.13" width="25" height="2.5" rx=".99" ry=".99" transform="translate(-14.12 334.63) rotate(-90)"/>
  <rect class="cls-49" x="147.75" y="144.5" width="25" height="2.5" rx=".99" ry=".99" transform="translate(306 -14.5) rotate(90)"/>
  <path class="cls-35" d="m237.94,205.35c-.87-2.99-2.3-6.84-2.48-7.31-.18-.46-.77-1.7-1.18-1.7s-1,1.24-1.18,1.7c-.18.47-1.61,4.32-2.48,7.31-.24.84.06.91.18.94,1.61.21,1.32-.3,1.57-1.4.23-1,.22-1.46,1-1.46.38,0,.56.01.91.01s.54-.01.91-.01c.78,0,.77.46,1,1.46.25,1.1-.04,1.61,1.57,1.4.12-.03.42-.1.18-.94Zm-2.91-3.37h-1.51c-.14,0-.23-.07-.19-.23l.94-3.44.94,3.44c.04.16-.05.23-.19.23Z"/>
  <path class="cls-35" d="m244.26,201.2c4.39-1.93.8-6.48-3.28-4.27-.04.02-.07.06-.07.1-.38,2.63-.16,6.19.2,8.71.02.13.12.23.24.27,6.22,1.71,7.68-3.78,2.91-4.81Zm.65-2.47c0,1.13-1.98,1.51-2.74,1.51-.13-.26-.02-2.43.07-2.53.9-.25,2.67.04,2.67,1.02Zm-2.38,6.17c-.17-1.1-.2-1.41-.14-2.54.47-.06,3.32-.1,3.29,1.38-.03,1.15-2.44,1.38-3.15,1.16Z"/>
  <path class="cls-49" d="m270.51,155.05c-.04,1.54-1.06,2.18-1.86,2.18-22.66,0-22.75.55-22.87-19.65l-2.74,2.45s-1.1-1.04-.5-1.87c.82-1.11,3.87-3.59,4.16-3.84.29.25,3.16,2.73,3.98,3.84.6.83-.5,1.87-.5,1.87l-2.55-2.45c.81,17.85-1.36,17.46,20.81,17.46,0-14.23-2.17-21.69-19.14-21.69-1.42,0-1.47-2.06-.05-2.06,19.11,0,21.65,10.35,21.26,23.76Z"/>
  <path class="cls-40" d="m209.99,165.08c.04-1.54,1.06-2.18,1.86-2.18,22.66,0,22.75-.55,22.87,19.65l2.74-2.45s1.1,1.04.5,1.87c-.82,1.11-3.87,3.59-4.16,3.84-.29-.25-3.16-2.73-3.98-3.84-.6-.83.5-1.87.5-1.87l2.55,2.45c-.81-17.85,1.36-17.46-20.81-17.46,0,14.23,2.17,21.69,19.14,21.69,1.42,0,1.47,2.06.05,2.06-19.11,0-21.65-10.35-21.26-23.76Z"/>
  <g>
    <circle class="cls-35" cx="240.25" cy="190.06" r="2.5"/>
    <circle class="cls-35" cx="270.25" cy="160.06" r="2.5"/>
    <circle class="cls-35" cx="240.25" cy="130.06" r="2.5"/>
    <circle class="cls-35" cx="210.25" cy="160.06" r="2.5"/>
    <circle class="cls-35" cx="240.25" cy="160.06" r="1.12"/>
  </g>
  <rect class="cls-40" x="227.75" y="173.13" width="25" height="2.5" rx=".99" ry=".99" transform="translate(65.88 414.63) rotate(-90)"/>
  <rect class="cls-49" x="227.75" y="144.5" width="25" height="2.5" rx=".99" ry=".99" transform="translate(386 -94.5) rotate(90)"/>
  <path class="cls-49" d="m326.31,131.59c14.38,0,25.25,12.31,25.62,28.35.03.94-.7,1.88-1.65,1.88-22.21,0-20.92-.73-20.92,18.27l2.62-2.58s1.09,1.05.5,1.87c-.79,1.08-4.05,3.91-4.05,3.91,0,0-3.26-2.83-4.05-3.91-.59-.82.5-1.87.5-1.87l2.62,2.58c0-10.06-.15-15.03,2.22-17.4,2.38-2.38,7.3-2.92,18.86-2.92.6,0,1.08-.31,1.06-.9-.24-12.68-9.74-24.94-23.54-24.98-1.61,0-1.64-2.3.21-2.3Z"/>
  <path class="cls-40" d="m314.19,188.53c-14.38,0-25.25-12.31-25.62-28.35-.03-.94.7-1.88,1.65-1.88,22.21,0,20.92.73,20.92-18.27l-2.62,2.58s-1.09-1.05-.5-1.87c.79-1.08,4.05-3.91,4.05-3.91,0,0,3.26,2.83,4.05,3.91.59.82-.5,1.87-.5,1.87l-2.62-2.58c0,10.06.15,15.03-2.22,17.4s-7.3,2.92-18.86,2.92c-.6,0-1.08.31-1.06.9.24,12.68,9.74,24.94,23.54,24.98,1.61,0,1.64,2.3-.21,2.3Z"/>
  <g>
    <path class="cls-35" d="m319.53,207.43c-.87-2.99-2.3-6.84-2.48-7.31-.18-.46-.77-1.7-1.18-1.7s-1,1.24-1.18,1.7c-.18.47-1.61,4.32-2.48,7.31-.24.84.06.91.18.94,1.61.21,1.32-.3,1.57-1.4.23-1,.22-1.46,1-1.46.38,0,.56.01.91.01s.54-.01.91-.01c.78,0,.77.46,1,1.46.25,1.1-.04,1.61,1.57,1.4.12-.03.42-.1.18-.94Zm-2.91-3.37h-1.51c-.14,0-.23-.07-.19-.23l.94-3.44.94,3.44c.04.16-.05.23-.19.23Z"/>
    <path class="cls-35" d="m325.04,203.28c4.39-1.93.8-6.48-3.28-4.27-.04.02-.07.06-.07.1-.38,2.63-.16,6.19.2,8.71.02.13.12.23.24.27,6.22,1.71,7.68-3.78,2.91-4.81Zm.65-2.47c0,1.13-1.98,1.51-2.74,1.51-.13-.26-.02-2.43.07-2.53.9-.25,2.67.04,2.67,1.02Zm-2.38,6.17c-.17-1.1-.2-1.41-.14-2.54.47-.06,3.32-.1,3.29,1.38-.03,1.15-2.44,1.38-3.15,1.16Z"/>
  </g>
  <g>
    <circle class="cls-35" cx="320.25" cy="190.06" r="2.5"/>
    <circle class="cls-35" cx="350.25" cy="160.06" r="2.5"/>
    <circle class="cls-35" cx="320.25" cy="130.06" r="2.5"/>
    <circle class="cls-35" cx="290.25" cy="160.06" r="2.5"/>
    <circle class="cls-35" cx="320.25" cy="160.06" r="1.12"/>
  </g>
  <rect class="cls-40" x="307.75" y="144.5" width="25" height="2.5" rx=".99" ry=".99" transform="translate(466 -174.5) rotate(90)"/>
  <rect class="cls-49" x="307.75" y="173.13" width="25" height="2.5" rx=".99" ry=".99" transform="translate(145.88 494.63) rotate(-90)"/>
  <path class="cls-49" d="m458.44,189.2c-.95-.64-4.08-3.93-4.08-3.93,0,0,2.66-3.31,3.8-4.21.8-.63,1.89.44,1.89.44l-2.61,2.78c8.61-.03,18.1-6.85,19.39-19.4h-2.79c-.6,0-1.09-.49-1.09-1.08,0-.6.49-1.08,1.09-1.08h7.56c.6,0,1.09.48,1.09,1.08s-.49,1.08-1.09,1.08h-2.63c-.66,11.36-9.96,21.34-21.33,21.37l2.65,2.42s-1.01,1.11-1.85.53Z"/>
  <path class="cls-35" d="m451.72,198.71c-.46-.06-.96.28-1.19,1.14-.42,1.54-.92,3.7-1.44,5.63-1.11-2.72-1.86-4.39-2.5-4.38-.01,0-.02,0-.03.01-.01-.01-.02-.01-.03-.01-.64-.01-1.39,1.65-2.5,4.38-.51-1.93-1.02-4.09-1.44-5.63-.24-.86-.73-1.2-1.19-1.14-.59.07-.98.49-.74,1.25.25.81,1.84,6.07,2.3,7.72.47,1.65,1.59.9,1.8.49.21-.41,1.36-3.67,1.8-4.59.44.92,1.59,4.18,1.8,4.59.21.41,1.33,1.16,1.8-.49.46-1.64,2.05-6.9,2.3-7.72.24-.76-.15-1.18-.74-1.25Z"/>
  <path class="cls-35" d="m460.39,207.71c-.87-2.99-2.3-6.84-2.48-7.31-.18-.46-.77-1.7-1.18-1.7s-1,1.24-1.18,1.7c-.18.47-1.61,4.32-2.48,7.31-.24.84.06.91.18.94,1.61.21,1.32-.3,1.57-1.4.23-1,.22-1.46,1-1.46.38,0,.56.01.91.01s.54-.01.91-.01c.78,0,.77.46,1,1.46.25,1.1-.04,1.61,1.57,1.4.12-.03.42-.1.18-.94Zm-2.91-3.37h-1.51c-.14,0-.23-.07-.19-.23l.94-3.44.94,3.44c.04.16-.05.23-.19.23Z"/>
  <path class="cls-40" d="m445.86,189.66c-17.71,0-26.75-13.27-27.29-26.83h-2.76c-.58,0-1.06-.48-1.06-1.07s.48-1.06,1.06-1.06h2.75c.34-13.44,9.04-26.49,25.96-26.49l-2.64-2.61s1.05-1.09,1.87-.5c1.18.86,3.95,4.09,3.95,4.09,0,0-3.01,3.38-3.95,4.06-.82.61-1.87-.47-1.87-.47l2.64-2.65c-15.4,0-23.48,12.12-23.83,24.57h2.72c.59,0,1.07.48,1.07,1.06s-.48,1.07-1.07,1.07h-2.7c.53,12.46,8.84,24.6,25.34,24.6,1.26,0,1.13,2.23-.19,2.23Z"/>
  <g>
    <circle class="cls-35" cx="450.56" cy="189.06" r="2.5"/>
    <circle class="cls-35" cx="480.56" cy="159.06" r="2.5"/>
    <circle class="cls-35" cx="450.56" cy="129.06" r="2.5"/>
    <circle class="cls-35" cx="420.56" cy="159.06" r="2.5"/>
    <circle class="cls-35" cx="450.56" cy="159.06" r="1.12"/>
  </g>
  <rect class="cls-49" x="438.06" y="172.06" width="25" height="2.5" rx=".99" ry=".99" transform="translate(277.26 623.87) rotate(-90)"/>
  <rect class="cls-40" x="438.06" y="143.56" width="25" height="2.5" rx=".99" ry=".99" transform="translate(595.37 -305.75) rotate(90)"/>
  <path class="cls-49" d="m537.24,188.07s-3.23-2.77-4.08-3.95c-.6-.82.5-1.87.5-1.87l2.66,2.73c0-18.49,1.8-20.09,20.18-20.15v-2.74c0-.6.49-1.09,1.08-1.09s1.08.49,1.08,1.09v7.56c0,.6-.48,1.09-1.08,1.09-.59,0-1.08-.49-1.08-1.09v-2.75c-17.27.04-18.23,1.15-18.23,18.08l2.56-2.73s1.08,1.05.48,1.87c-.69.94-4.07,3.95-4.07,3.95Z"/>
  <path class="cls-35" d="m536.34,203.56c4.39-1.93.8-6.48-3.28-4.27-.04.02-.07.06-.07.1-.38,2.63-.16,6.19.2,8.71.02.13.12.23.24.27,6.22,1.71,7.68-3.78,2.91-4.81Zm.65-2.47c0,1.13-1.98,1.51-2.74,1.51-.13-.26-.02-2.43.07-2.53.9-.25,2.67.04,2.67,1.02Zm-2.38,6.17c-.17-1.1-.2-1.41-.14-2.54.47-.06,3.32-.1,3.29,1.38-.03,1.15-2.44,1.38-3.15,1.16Z"/>
  <path class="cls-35" d="m530.09,207.21c.16.19.21.44.19.68-.03.24-.16.46-.34.61-.4.3-.98.23-1.3-.17l-2.45-3.14-2.45,3.14c-.18.23-.45.36-.72.36-.19,0-.4-.07-.57-.19-.19-.15-.32-.37-.35-.61-.03-.24.03-.49.19-.68l2.73-3.51-2.73-3.51c-.13-.17-.19-.36-.19-.57,0-.28.14-.56.36-.73.19-.15.42-.21.67-.19.24.03.47.16.61.35l2.45,3.14,2.44-3.14c.33-.41.91-.48,1.31-.16.22.17.35.43.35.72,0,.2-.07.4-.19.57l-2.73,3.51,2.73,3.51Z"/>
  <path class="cls-40" d="m514.2,159.02c9.28,2.36,10.07,7.32,10.07,21.33,0,1.39-2.07,1.43-2.01,0,.62-16.81-3.76-20.19-16.64-20.35v2.76c0,.59-.48,1.07-1.07,1.07-.58,0-1.06-.48-1.06-1.07v-7.6c0-.58.48-1.06,1.06-1.06.59,0,1.07.48,1.07,1.06v2.61c12.87-.18,17.04-3.74,16.53-17.94l-2.83,2.9s-1.16-1.11-.51-1.98c.74-1.01,4.34-4.23,4.34-4.23,0,0,3.44,2.97,4.36,4.23.64.87-.53,1.98-.53,1.98l-2.95-2.9c0,10.61-.41,16.21-9.83,19.19Z"/>
  <g>
    <circle class="cls-35" cx="530.56" cy="189.06" r="2.5"/>
    <circle class="cls-35" cx="560.56" cy="159.06" r="2.5"/>
    <circle class="cls-35" cx="530.56" cy="129.06" r="2.5"/>
    <circle class="cls-35" cx="500.56" cy="159.06" r="2.5"/>
    <circle class="cls-35" cx="530.56" cy="159.06" r="1.12"/>
  </g>
  <rect class="cls-49" x="518.06" y="172.06" width="25" height="2.5" rx=".99" ry=".99" transform="translate(357.26 703.87) rotate(-90)"/>
  <rect class="cls-40" x="518.06" y="143.56" width="25" height="2.5" rx=".99" ry=".99" transform="translate(675.37 -385.75) rotate(90)"/>
  <g>
    <g>
      <circle class="cls-35" cx="552.54" cy="499.95" r="1.12"/>
      <g>
        <path class="cls-35" d="m552.56,471.95c-.71,0-1.38-.38-1.73-1-.27-.46-.34-1-.2-1.52.14-.52.47-.95.93-1.21.3-.17.65-.27,1-.27.71,0,1.38.38,1.73,1,.55.96.22,2.18-.73,2.73-.3.17-.65.27-1,.27Z"/>
        <path class="cls-35" d="m552.55,468.45c.54,0,1.03.29,1.3.75.41.72.17,1.64-.55,2.05-.23.13-.49.2-.75.2-.54,0-1.03-.29-1.3-.75-.41-.72-.17-1.64.55-2.05.23-.13.49-.2.75-.2m0-1c-.42,0-.85.11-1.25.34-1.2.69-1.61,2.22-.92,3.42.46.8,1.3,1.25,2.17,1.25.42,0,.85-.11,1.25-.34,1.2-.69,1.61-2.22.92-3.42-.46-.8-1.3-1.25-2.17-1.25h0Z"/>
      </g>
      <g>
        <path class="cls-35" d="m534.92,526.22c-.07,0-.14,0-.21-.01-.53-.06-1.01-.32-1.35-.73-.34-.42-.49-.94-.44-1.47.11-1.02.96-1.79,1.99-1.79.07,0,.14,0,.21.01.53.06,1.01.32,1.35.73.34.42.49.94.43,1.47-.11,1.02-.96,1.79-1.99,1.79Z"/>
        <path class="cls-35" d="m534.92,522.72h0c.05,0,.11,0,.16,0,.4.04.76.24,1.01.55.25.31.37.7.33,1.1-.08.77-.72,1.34-1.49,1.34-.05,0-.11,0-.16,0-.82-.09-1.42-.83-1.33-1.65.08-.77.72-1.34,1.49-1.34m0-1c-1.26,0-2.35.95-2.48,2.24-.14,1.37.85,2.6,2.22,2.75.09,0,.18.01.26.01,1.26,0,2.35-.95,2.48-2.24.14-1.37-.85-2.6-2.22-2.75-.09,0-.18-.01-.26-.01h0Z"/>
      </g>
      <g>
        <path class="cls-35" d="m581.08,492.67c-.49,0-.97-.18-1.34-.51-.4-.36-.63-.85-.66-1.38-.03-.53.15-1.05.51-1.44.38-.42.92-.66,1.49-.66.49,0,.97.18,1.34.51.4.36.63.85.66,1.38.03.53-.15,1.05-.51,1.44-.38.42-.92.66-1.49.66Z"/>
        <path class="cls-35" d="m581.09,489.18c.37,0,.73.14,1,.39.3.27.47.64.49,1.04s-.12.78-.38,1.08c-.28.32-.69.5-1.12.5-.37,0-.73-.14-1-.39-.3-.27-.47-.64-.49-1.04s.11-.78.38-1.08c.28-.32.69-.5,1.12-.5m0-1c-.68,0-1.36.28-1.86.83-.92,1.03-.84,2.61.19,3.53.48.43,1.08.64,1.67.64.68,0,1.36-.28,1.86-.83.92-1.03.84-2.61-.19-3.53-.48-.43-1.08-.64-1.67-.64h0Z"/>
      </g>
      <g>
        <path class="cls-35" d="m524.02,492.68c-.94,0-1.76-.67-1.95-1.58-.11-.52-.01-1.06.28-1.51.29-.45.74-.76,1.26-.87.14-.03.28-.04.42-.04.94,0,1.76.67,1.95,1.58.11.52.01,1.06-.28,1.51s-.74.76-1.26.87c-.14.03-.28.04-.42.04Z"/>
        <path class="cls-35" d="m524.02,489.17c.7,0,1.32.5,1.46,1.19.08.39,0,.79-.21,1.13s-.55.57-.95.65c-.1.02-.21.03-.31.03-.7,0-1.32-.5-1.46-1.19-.17-.81.35-1.61,1.16-1.78.1-.02.21-.03.31-.03m0-1c-.17,0-.35.02-.52.06-1.35.29-2.21,1.61-1.93,2.97.25,1.18,1.29,1.98,2.44,1.98.17,0,.35-.02.52-.06,1.35-.29,2.21-1.61,1.93-2.97-.25-1.18-1.29-1.98-2.44-1.98h0Z"/>
      </g>
      <g>
        <path class="cls-35" d="m570.18,526.22c-.28,0-.55-.06-.81-.17-1.01-.45-1.46-1.63-1.01-2.64.32-.72,1.04-1.19,1.83-1.19.28,0,.55.06.81.17,1.01.45,1.46,1.63,1.01,2.64-.32.72-1.04,1.19-1.83,1.19Z"/>
        <path class="cls-35" d="m570.19,522.72h0c.21,0,.41.04.61.13.37.16.65.46.79.83s.13.78-.03,1.15c-.24.54-.78.89-1.37.89-.21,0-.41-.04-.61-.13-.37-.16-.65-.46-.79-.83s-.13-.78.03-1.15c.24-.54.78-.89,1.37-.89m0-1c-.96,0-1.87.55-2.29,1.48-.56,1.26,0,2.74,1.27,3.3.33.15.68.22,1.02.22.96,0,1.87-.55,2.29-1.48.56-1.26,0-2.74-1.27-3.3-.33-.15-.68-.22-1.02-.22h0Z"/>
      </g>
    </g>
    <g>
      <path d="m570.17,474.18h0c.05,0,.11,0,.16,0,.82.09,1.42.83,1.34,1.65-.08.77-.72,1.34-1.49,1.34-.05,0-.11,0-.16,0-.4-.04-.76-.24-1.01-.55-.25-.31-.37-.7-.33-1.1.08-.77.72-1.34,1.49-1.34m0-1c-1.26,0-2.35.95-2.48,2.24-.14,1.37.85,2.6,2.23,2.75.09,0,.18.01.26.01,1.26,0,2.35-.95,2.48-2.24.14-1.37-.85-2.6-2.23-2.75-.09,0-.18-.01-.26-.01h0Z"/>
      <path d="m524.01,507.72h0c.37,0,.73.14,1,.39.61.55.66,1.5.11,2.12-.28.32-.69.5-1.12.5-.37,0-.73-.14-1-.39-.61-.55-.66-1.5-.11-2.12.28-.32.69-.5,1.12-.5m0-1c-.68,0-1.37.28-1.86.83-.92,1.03-.84,2.61.19,3.53.48.43,1.08.64,1.67.64.68,0,1.36-.28,1.86-.83.92-1.03.84-2.61-.19-3.53-.48-.43-1.08-.64-1.67-.64h0Z"/>
      <path d="m581.07,507.72c.7,0,1.32.5,1.46,1.19.17.81-.35,1.61-1.16,1.78-.1.02-.21.03-.31.03-.7,0-1.32-.5-1.47-1.19-.17-.81.35-1.61,1.16-1.78.1-.02.21-.03.31-.03m0-1c-.17,0-.35.02-.52.06-1.35.29-2.21,1.61-1.93,2.97.25,1.18,1.29,1.98,2.44,1.98.17,0,.35-.02.52-.06,1.35-.29,2.21-1.61,1.93-2.97-.25-1.18-1.29-1.98-2.44-1.98h0Z"/>
      <path d="m534.91,474.18h0c.21,0,.41.04.61.13.37.16.65.46.79.83s.13.78-.03,1.15c-.24.54-.78.89-1.37.89-.21,0-.41-.04-.61-.13-.76-.34-1.1-1.22-.76-1.98.24-.54.78-.89,1.37-.89m0-1c-.96,0-1.87.55-2.29,1.48-.56,1.26,0,2.74,1.27,3.3.33.15.68.22,1.02.22.96,0,1.87-.55,2.29-1.48.56-1.26,0-2.74-1.27-3.3-.33-.15-.68-.22-1.02-.22h0Z"/>
      <path d="m552.54,528.45c.54,0,1.03.29,1.3.75.2.35.25.75.15,1.14-.1.39-.35.71-.7.91-.23.13-.49.2-.75.2-.54,0-1.03-.29-1.3-.75-.2-.35-.25-.75-.15-1.14s.35-.71.7-.91c.23-.13.49-.2.75-.2m0-1c-.42,0-.85.11-1.25.34-1.2.69-1.61,2.22-.92,3.42.46.8,1.3,1.25,2.17,1.25.42,0,.85-.11,1.25-.34,1.2-.69,1.61-2.22.92-3.42-.46-.8-1.3-1.25-2.17-1.25h0Z"/>
    </g>
  </g>
  <rect class="cls-49" x="553.65" y="494.11" width="25.25" height="2.59" rx=".99" ry=".99" transform="translate(1257.92 791.57) rotate(162)"/>
  <rect class="cls-49" x="548.41" y="510.24" width="25.25" height="2.59" rx=".99" ry=".99" transform="translate(476.96 1266.1) rotate(-126)"/>
  <rect class="cls-49" x="531.49" y="510.18" width="25.25" height="2.59" rx=".99" ry=".99" transform="translate(-189.5 651.04) rotate(-54)"/>
  <rect class="cls-49" x="526.17" y="494.1" width="25.25" height="2.59" rx=".99" ry=".99" transform="translate(179.46 -142.25) rotate(18)"/>
  <rect class="cls-49" x="539.93" y="484.11" width="25.25" height="2.59" rx=".99" ry=".99" transform="translate(1037.96 -67.15) rotate(90)"/>
  <g>
    <path d="m496.01,483.45c.83,0,1.5.67,1.5,1.5s-.67,1.5-1.5,1.5-1.5-.67-1.5-1.5.67-1.5,1.5-1.5m0-1c-1.38,0-2.5,1.12-2.5,2.5s1.12,2.5,2.5,2.5,2.5-1.12,2.5-2.5-1.12-2.5-2.5-2.5h0Z"/>
    <g>
      <circle class="cls-35" cx="444.05" cy="514.95" r="2"/>
      <path class="cls-35" d="m444.05,513.45c.83,0,1.5.67,1.5,1.5s-.67,1.5-1.5,1.5-1.5-.67-1.5-1.5.67-1.5,1.5-1.5m0-1c-1.38,0-2.5,1.12-2.5,2.5s1.12,2.5,2.5,2.5,2.5-1.12,2.5-2.5-1.12-2.5-2.5-2.5h0Z"/>
    </g>
    <g>
      <path class="cls-35" d="m496.01,516.95c-.71,0-1.38-.38-1.73-1-.55-.96-.22-2.18.73-2.73.3-.18.65-.27,1-.27.71,0,1.38.38,1.73,1,.55.96.22,2.18-.73,2.73-.3.17-.65.27-1,.27Z"/>
      <path class="cls-35" d="m496.01,513.45c.54,0,1.03.29,1.3.75.2.35.25.75.15,1.14-.1.39-.35.71-.7.91-.23.13-.49.2-.75.2-.54,0-1.03-.29-1.3-.75-.41-.72-.17-1.64.55-2.05.23-.13.49-.2.75-.2m0-1c-.42,0-.85.11-1.25.34-1.2.69-1.61,2.22-.92,3.42.46.8,1.3,1.25,2.17,1.25.42,0,.85-.11,1.25-.34,1.2-.69,1.61-2.22.92-3.42-.46-.8-1.3-1.25-2.17-1.25h0Z"/>
    </g>
    <path d="m444.05,483.45h0c.54,0,1.03.29,1.3.75.2.35.25.75.15,1.14-.1.39-.35.71-.7.91-.23.13-.49.2-.75.2-.54,0-1.03-.29-1.3-.75-.2-.35-.25-.75-.15-1.14s.35-.71.7-.91c.23-.13.49-.2.75-.2m0-1c-.42,0-.85.11-1.25.34-1.2.69-1.61,2.22-.92,3.42.46.8,1.3,1.25,2.17,1.25.42,0,.85-.11,1.25-.34,1.2-.69,1.61-2.22.92-3.42-.46-.8-1.3-1.25-2.17-1.25h0Z"/>
    <path d="m470.03,528.45h0c.26,0,.52.07.75.2.35.2.6.52.7.91.1.39.05.79-.15,1.14-.27.46-.77.75-1.3.75-.26,0-.52-.07-.75-.2-.72-.41-.96-1.33-.55-2.05.27-.46.77-.75,1.3-.75m0-1c-.86,0-1.7.45-2.17,1.25-.69,1.2-.28,2.72.92,3.42.39.23.82.34,1.25.34.86,0,1.7-.45,2.17-1.25.69-1.2.28-2.72-.92-3.42-.39-.23-.82-.34-1.25-.34h0Z"/>
    <g>
      <path class="cls-35" d="m470.03,471.95c-.35,0-.69-.09-1-.27-.46-.27-.79-.7-.93-1.21-.14-.52-.07-1.05.2-1.52.36-.62,1.02-1,1.73-1,.35,0,.69.09,1,.27.96.55,1.28,1.78.73,2.73-.36.62-1.02,1-1.73,1Z"/>
      <path class="cls-35" d="m470.03,468.45h0c.26,0,.52.07.75.2.72.41.96,1.33.55,2.05-.27.46-.77.75-1.3.75-.26,0-.52-.07-.75-.2-.35-.2-.6-.52-.7-.91-.1-.39-.05-.79.15-1.14.27-.46.77-.75,1.3-.75m0-1c-.86,0-1.7.45-2.17,1.25-.69,1.2-.28,2.72.92,3.42.39.23.82.34,1.25.34.86,0,1.7-.45,2.17-1.25.69-1.2.28-2.72-.92-3.42-.39-.23-.82-.34-1.25-.34h0Z"/>
    </g>
    <circle class="cls-35" cx="470.03" cy="499.95" r="1.12"/>
  </g>
  <rect class="cls-6" x="457.53" y="484.43" width="25" height="2.5" rx=".99" ry=".99" transform="translate(955.71 15.65) rotate(90)"/>
  <rect class="cls-6" x="445.17" y="505.83" width="25" height="2.5" rx=".99" ry=".99" transform="translate(-192.23 296.77) rotate(-30)"/>
  <rect class="cls-6" x="469.9" y="505.81" width="25" height="2.5" rx=".99" ry=".99" transform="translate(647.87 1187.09) rotate(-150.1)"/>
  <g>
    <line class="cls-2" x1="205" y1="424.16" x2="205" y2="548.93"/>
    <line class="cls-2" x1="414.09" y1="424.16" x2="414.09" y2="548.93"/>
  </g>
  <rect class="cls-6" x="522.47" y="685.36" width="25" height="2.5" rx=".99" ry=".99" transform="translate(-151.64 1221.58) rotate(-90)"/>
  <rect class="cls-49" x="537.47" y="670.36" width="25" height="2.5" rx=".99" ry=".99" transform="translate(1099.94 1343.22) rotate(-180)"/>
  <rect class="cls-6" x="552.47" y="655.36" width="25" height="2.5" rx=".99" ry=".99" transform="translate(-91.64 1221.58) rotate(-90)"/>
  <rect class="cls-49" x="567.47" y="670.36" width="25" height="2.5" rx=".99" ry=".99"/>
  <rect class="cls-6" x="552.47" y="685.36" width="25" height="2.5" rx=".99" ry=".99" transform="translate(1251.58 121.64) rotate(90)"/>
  <rect class="cls-49" x="567.47" y="700.36" width="25" height="2.5" rx=".99" ry=".99" transform="translate(1159.94 1403.22) rotate(-180)"/>
  <rect class="cls-6" x="552.47" y="715.36" width="25" height="2.5" rx=".99" ry=".99" transform="translate(-151.64 1281.58) rotate(-90)"/>
  <rect class="cls-49" x="537.47" y="700.36" width="25" height="2.5" rx=".99" ry=".99"/>
  <rect class="cls-6" x="522.47" y="715.36" width="25" height="2.5" rx=".99" ry=".99" transform="translate(1251.58 181.64) rotate(90)"/>
  <rect class="cls-49" x="507.47" y="700.36" width="25" height="2.5" rx=".99" ry=".99" transform="translate(1039.94 1403.22) rotate(-180)"/>
  <rect class="cls-6" x="522.47" y="655.36" width="25" height="2.5" rx=".99" ry=".99" transform="translate(1191.58 121.64) rotate(90)"/>
  <rect class="cls-49" x="507.47" y="670.36" width="25" height="2.5" rx=".99" ry=".99"/>
  <g>
    <g>
      <path class="cls-35" d="m291.4,498.06c3.22,0,3.22-5,0-5s-3.22,5,0,5h0Z"/>
      <path class="cls-35" d="m261,467.66c3.22,0,3.22-5,0-5s-3.22,5,0,5h0Z"/>
      <path class="cls-35" d="m230.6,498.06c3.22,0,3.22-5,0-5s-3.22,5,0,5h0Z"/>
      <path class="cls-35" d="m261,528.46c3.22,0,3.22-5,0-5s-3.22,5,0,5h0Z"/>
      <path class="cls-35" d="m261,496.69c1.45,0,1.45-2.25,0-2.25s-1.45,2.25,0,2.25h0Z"/>
    </g>
    <g>
      <path class="cls-35" d="m381.4,498.06c3.22,0,3.22-5,0-5s-3.22,5,0,5h0Z"/>
      <path class="cls-35" d="m351,467.66c3.22,0,3.22-5,0-5s-3.22,5,0,5h0Z"/>
      <path class="cls-35" d="m320.6,498.06c3.22,0,3.22-5,0-5s-3.22,5,0,5h0Z"/>
      <path class="cls-35" d="m351,528.46c3.22,0,3.22-5,0-5s-3.22,5,0,5h0Z"/>
      <path class="cls-35" d="m351,496.69c1.45,0,1.45-2.25,0-2.25s-1.45,2.25,0,2.25h0Z"/>
    </g>
    <path class="cls-35" d="m264.75,541.96c.28.78.05.89-.2.91-1.48.13-1.32-.32-1.61-1.52-.25-1.05-.2-1.46-1.05-1.44-1.1,0-1.22-.02-1.83-.02-.81,0-.8.48-1.03,1.5-.26,1.13.04,1.66-1.63,1.45-.12-.03-.43-.11-.19-.97.91-3.07,2.39-7.02,2.57-7.5s.8-1.76,1.22-1.76c.45,0,.95,1.18,1.21,1.83m-2.18,3.73c-.05.16.05.23.19.23h1.57c.21,0,.25-.1.18-.27l-.97-3.5"/>
    <path class="cls-35" d="m351.38,537.6c4.52-1.99.82-6.66-3.37-4.39-.04.02-.07.06-.08.11-.39,2.7-.16,6.36.21,8.95.02.13.12.24.25.28,6.4,1.76,7.9-3.89,2.99-4.95Zm.67-2.54c0,1.17-2.03,1.55-2.82,1.55-.13-.27-.02-2.49.07-2.6.92-.26,2.75.04,2.75,1.05Zm-2.45,6.34c-.18-1.13-.21-1.45-.15-2.61.49-.06,3.41-.1,3.38,1.42-.03,1.19-2.51,1.42-3.24,1.19Z"/>
    <path class="cls-40" d="m329.47,499.73s-1.04-1.1-1.87-.5c-1.18.85-3.95,4.08-3.95,4.08,0,0,2.82,3.43,3.75,4.13.57.43,1.64-.53,1.64-.53l-2.21-2.73c14.88.05,17.4,2.87,17.11,19.39,0,.61.44.82.98.82.44,0,1.04-.22,1.04-.81.41-18.04-3.43-21.74-19.14-21.1"/>
    <path class="cls-49" d="m366.16,502.75s.08,1.51,1.1,1.59c1.45.11,5.66-.54,5.66-.54,0,0,.08-4.44-.16-5.57-.15-.7-1.59-.66-1.59-.66l-.1,3.51c-13.63-12.4-12.38-14.17-12.59-33.33,0-.59-.3-1.04-.97-1.03-.57,0-.99.33-.98.98.28,21.94.06,22.7,13.45,34.68"/>
    <rect class="cls-40" x="233.74" y="494.26" width="25.25" height="2.59" rx=".99" ry=".99" transform="translate(492.74 991.12) rotate(-180)"/>
    <rect class="cls-49" x="258.67" y="504.66" width="25.25" height="2.59" rx=".99" ry=".99" transform="translate(439.91 -42.83) rotate(45.28)"/>
    <rect class="cls-40" x="323.74" y="494.26" width="25.25" height="2.59" rx=".99" ry=".99" transform="translate(672.74 991.12) rotate(-180)"/>
    <rect class="cls-49" x="348.72" y="504.61" width="25.25" height="2.59" rx=".99" ry=".99" transform="translate(463.56 -107.33) rotate(45)"/>
    <path class="cls-40" d="m236.74,500.19c.68.59,2.66,1.97,3.09,3.12.18.48-.31,1.07-.34,1.62l-3.45-2.87c.27,8.92,7.83,18.97,20.44,19.77.75.1,1.25.53,1.16,1.44-.09.96-.47.96-1.45.87-11.95-1.13-22.05-9.85-22.05-22.1l-2.76,3.37c-.32-.52-.61-1.08-.53-1.51.24-1.22,2.06-3.11,2.54-3.54s1.46-1.18,1.59-1.28"/>
    <path class="cls-49" d="m279.53,508.6c-.14-.89-.78-3.22-.36-4.38.17-.49.92-.62,1.3-1.02l.81,4.41c8.05-12,5.25-36.55-14.15-39.24-.85-.21-1.18-.76-1.04-1.28s.51-.93,1.49-.79c21.71,3.16,24.58,30.5,15.15,42.55l4.28-.81c-.09.6-.22,1.22-.56,1.5-.97.78-3.58,1.06-4.22,1.08s-1.87-.03-2.04-.04"/>
    <g>
      <rect class="cls-35" x="265.84" y="533.26" width="4.28" height=".98"/>
      <rect class="cls-35" x="265.84" y="533.26" width="4.28" height=".98" transform="translate(801.73 265.76) rotate(90)"/>
    </g>
    <g>
      <rect class="cls-35" x="355.24" y="533.26" width="4.28" height=".98"/>
      <rect class="cls-35" x="355.24" y="533.26" width="4.28" height=".98" transform="translate(891.13 176.36) rotate(90)"/>
    </g>
    <g>
      <path class="cls-35" d="m282.5,515.56c.45,0,.81.15,1.05.43.23.27.36.66.36,1.07,0,.15-.04,1.5-1.41,1.5-.45,0-.81-.15-1.05-.43-.23-.27-.36-.66-.36-1.07,0-.15.04-1.5,1.42-1.5m0-1c-3.22,0-3.22,5,0,5s3.22-5,0-5h0Z"/>
      <path class="cls-35" d="m282.5,472.56c.45,0,.81.15,1.05.43.23.27.36.66.36,1.07,0,.15-.04,1.5-1.41,1.5-.45,0-.81-.15-1.05-.43-.23-.27-.36-.66-.36-1.07,0-.15.04-1.5,1.42-1.5m0-1c-3.22,0-3.22,5,0,5s3.22-5,0-5h0Z"/>
      <path class="cls-35" d="m239.5,472.56c1.38,0,1.42,1.34,1.42,1.5s-.04,1.5-1.42,1.5c-.45,0-.81-.15-1.05-.43-.23-.27-.36-.66-.36-1.07,0-.15.04-1.5,1.42-1.5m0-1c-3.22,0-3.22,5,0,5s3.22-5,0-5h0Z"/>
      <path class="cls-35" d="m239.5,515.56c1.38,0,1.42,1.34,1.42,1.5s-.04,1.5-1.42,1.5c-.45,0-.81-.15-1.05-.43-.23-.27-.36-.66-.36-1.07,0-.15.04-1.5,1.42-1.5m0-1c-3.22,0-3.22,5,0,5s3.22-5,0-5h0Z"/>
      <path class="cls-35" d="m261,495.44s.05,0,.06,0c0,0,0,0,0,0,.04.04.04.2,0,.24,0,0-.02,0-.06,0-.03,0-.05,0-.06,0,0,0,0,0,0,0-.04-.04-.04-.2,0-.24,0,0,.02,0,.06,0m0-1c-1.45,0-1.45,2.25,0,2.25s1.45-2.25,0-2.25h0Z"/>
    </g>
    <g>
      <path class="cls-35" d="m372.5,515.56c.45,0,.81.15,1.05.43.23.27.36.66.36,1.07,0,.15-.04,1.5-1.41,1.5-.45,0-.81-.15-1.05-.43-.23-.27-.36-.66-.36-1.07,0-.15.04-1.5,1.42-1.5m0-1c-3.22,0-3.22,5,0,5s3.22-5,0-5h0Z"/>
      <path class="cls-35" d="m372.5,472.56c.45,0,.81.15,1.05.43.23.27.36.66.36,1.07,0,.15-.04,1.5-1.41,1.5-.45,0-.81-.15-1.05-.43-.23-.27-.36-.66-.36-1.07,0-.15.04-1.5,1.42-1.5m0-1c-3.22,0-3.22,5,0,5s3.22-5,0-5h0Z"/>
      <path class="cls-35" d="m329.5,472.56c1.38,0,1.42,1.34,1.42,1.5s-.04,1.5-1.42,1.5c-.45,0-.81-.15-1.05-.43-.23-.27-.36-.66-.36-1.07,0-.15.04-1.5,1.42-1.5m0-1c-3.22,0-3.22,5,0,5s3.22-5,0-5h0Z"/>
      <path class="cls-35" d="m329.5,515.56c1.38,0,1.42,1.34,1.42,1.5s-.04,1.5-1.42,1.5c-.45,0-.81-.15-1.05-.43-.23-.27-.36-.66-.36-1.07,0-.15.04-1.5,1.42-1.5m0-1c-3.22,0-3.22,5,0,5s3.22-5,0-5h0Z"/>
      <path class="cls-35" d="m351,495.44s.05,0,.06,0c0,0,0,0,0,0,.04.04.04.2,0,.24,0,0-.02,0-.06,0-.03,0-.05,0-.06,0,0,0,0,0,0,0-.04-.04-.04-.2,0-.24,0,0,.02,0,.06,0m0-1c-1.45,0-1.45,2.25,0,2.25s1.45-2.25,0-2.25h0Z"/>
    </g>
  </g>
  <text class="cls-36" transform="translate(271.29 447.76)"><tspan x="0" y="0">Skewed Motions</tspan></text>
</svg>