<?xml version="1.0" encoding="UTF-8"?>
<svg id="Layer_1" data-name="Layer 1" xmlns="http://www.w3.org/2000/svg" viewBox="0 0 612 792">
  <defs>
    <style>
      .cls-1 {
        stroke: #231f20;
      }

      .cls-1, .cls-2, .cls-3 {
        fill: none;
        stroke-miterlimit: 10;
      }

      .cls-4 {
        letter-spacing: -.02em;
      }

      .cls-2, .cls-3 {
        stroke: #000;
      }

      .cls-5 {
        letter-spacing: -.01em;
      }

      .cls-6, .cls-7, .cls-8, .cls-9 {
        font-family: Cambria-Italic, Cambria;
        font-style: italic;
      }

      .cls-6, .cls-8 {
        font-size: 16.8px;
      }

      .cls-10 {
        font-size: 15.5px;
      }

      .cls-10, .cls-11 {
        font-family: Cambria, Cambria;
      }

      .cls-12 {
        font-family: MonotypeCorsiva, 'Monotype Corsiva';
        font-size: 40px;
      }

      .cls-12, .cls-11, .cls-7, .cls-9, .cls-13 {
        fill: #231f20;
      }

      .cls-11 {
        font-size: 16px;
      }

      .cls-14 {
        fill: #2e3192;
      }

      .cls-3 {
        stroke-width: 3px;
      }

      .cls-15 {
        letter-spacing: -.01em;
      }

      .cls-16 {
        letter-spacing: 0em;
      }

      .cls-7 {
        font-size: 14.4px;
      }

      .cls-8 {
        letter-spacing: 0em;
      }

      .cls-17 {
        letter-spacing: 0em;
      }

      .cls-18 {
        letter-spacing: -.01em;
      }

      .cls-19 {
        letter-spacing: -.02em;
      }

      .cls-20 {
        fill: #ed1c24;
      }

      .cls-9 {
        font-size: 12px;
      }

      .cls-21 {
        letter-spacing: 0em;
      }

      .cls-22 {
        letter-spacing: .01em;
      }

      .cls-23 {
        letter-spacing: -.01em;
      }

      .cls-24 {
        letter-spacing: -.01em;
      }

      .cls-25 {
        letter-spacing: -.02em;
      }

      .cls-26 {
        fill: #010101;
      }

      .cls-27 {
        letter-spacing: -.02em;
      }
    </style>
  </defs>
  <line class="cls-1" x1="80.99" y1="258.39" x2="492.9" y2="258.39"/>
  <text class="cls-11" transform="translate(135.06 95.02)"><tspan x="0" y="0">A </tspan><tspan class="cls-25" x="13.49" y="0">d</tspan><tspan class="cls-27" x="22.05" y="0">y</tspan><tspan x="29.77" y="0">ad is something that consists of t</tspan><tspan class="cls-23" x="252.1" y="0">w</tspan><tspan x="264.29" y="0">o elements. </tspan><tspan x="-85.46" y="19.2">In the Alphabe</tspan><tspan class="cls-22" x="14.16" y="19.2">t</tspan><tspan x="19.81" y="19.2">, a </tspan><tspan class="cls-25" x="37.95" y="19.2">d</tspan><tspan class="cls-27" x="46.5" y="19.2">y</tspan><tspan x="54.22" y="19.2">ad </tspan><tspan class="cls-24" x="74.43" y="19.2">r</tspan><tspan x="80.82" y="19.2">e</tspan><tspan class="cls-15" x="88.62" y="19.2">f</tspan><tspan x="93.27" y="19.2">ers </tspan><tspan class="cls-16" x="118.09" y="19.2">t</tspan><tspan x="123.36" y="19.2">o a pic</tspan><tspan class="cls-16" x="167.11" y="19.2">t</tspan><tspan x="172.39" y="19.2">og</tspan><tspan class="cls-4" x="188.79" y="19.2">r</tspan><tspan x="195.13" y="19.2">aph depicting t</tspan><tspan class="cls-23" x="296.9" y="19.2">w</tspan><tspan x="309.09" y="19.2">o let</tspan><tspan class="cls-16" x="338.67" y="19.2">t</tspan><tspan x="343.94" y="19.2">ers or beats.</tspan><tspan x="-86.67" y="38.4">D</tspan><tspan class="cls-27" x="-76.09" y="38.4">y</tspan><tspan x="-68.37" y="38.4">ads condense the language, displ</tspan><tspan class="cls-19" x="154.17" y="38.4">a</tspan><tspan x="161.67" y="38.4">ying mo</tspan><tspan class="cls-24" x="216.34" y="38.4">r</tspan><tspan x="222.73" y="38.4">e in</tspan><tspan class="cls-15" x="247.43" y="38.4">f</tspan><tspan x="252.08" y="38.4">ormation in </tspan><tspan class="cls-15" x="336.02" y="38.4">f</tspan><tspan x="340.66" y="38.4">e</tspan><tspan class="cls-23" x="348.47" y="38.4">w</tspan><tspan x="360.66" y="38.4">er g</tspan><tspan class="cls-4" x="386.51" y="38.4">r</tspan><tspan x="392.85" y="38.4">aphs.</tspan></text>
  <text class="cls-12" transform="translate(177.74 43.78)"><tspan x="0" y="0">Continuous Dyads</tspan></text>
  <text class="cls-11" transform="translate(75.35 392.21)"><tspan x="0" y="0">He</tspan><tspan class="cls-24" x="18.79" y="0">r</tspan><tspan x="25.17" y="0">e a</tspan><tspan class="cls-24" x="44.31" y="0">r</tspan><tspan x="50.7" y="0">e the same-di</tspan><tspan class="cls-24" x="142.03" y="0">r</tspan><tspan x="148.41" y="0">ection t</tspan><tspan class="cls-23" x="199.49" y="0">w</tspan><tspan x="211.68" y="0">o-let</tspan><tspan class="cls-16" x="243.05" y="0">t</tspan><tspan x="248.32" y="0">er sequences depic</tspan><tspan class="cls-16" x="377.6" y="0">t</tspan><tspan x="382.88" y="0">ed as </tspan><tspan class="cls-25" x="421.29" y="0">d</tspan><tspan class="cls-27" x="429.84" y="0">y</tspan><tspan x="437.56" y="0">ads.</tspan><tspan x="-38.34" y="19.2">These </tspan><tspan class="cls-5" x="5.98" y="19.2">e</tspan><tspan class="cls-18" x="13.6" y="19.2">x</tspan><tspan x="21.11" y="19.2">amples start thumbs in, thou</tspan><tspan class="cls-17" x="216.64" y="19.2">g</tspan><tspan x="224.43" y="19.2">h th</tspan><tspan class="cls-21" x="251.03" y="19.2">e</tspan><tspan x="258.68" y="19.2">y can also be done with thumbs ou</tspan><tspan class="cls-22" x="493.82" y="19.2">t</tspan><tspan x="499.46" y="19.2">. </tspan></text>
  <g>
    <g>
      <text class="cls-7" transform="translate(162.9 166.67)"><tspan x="0" y="0">1</tspan></text>
      <text class="cls-7" transform="translate(270.78 166.67)"><tspan x="0" y="0">2</tspan></text>
    </g>
    <text class="cls-7" transform="translate(414.9 166.67)"><tspan x="0" y="0">1/2</tspan></text>
    <g>
      <g>
        <text class="cls-7" transform="translate(162.9 286.67)"><tspan x="0" y="0">1</tspan></text>
        <text class="cls-7" transform="translate(270.78 286.67)"><tspan x="0" y="0">2</tspan></text>
      </g>
      <text class="cls-7" transform="translate(414.9 286.67)"><tspan x="0" y="0">1/2</tspan></text>
    </g>
  </g>
  <g>
    <path class="cls-14" d="m445.87,294.35c0,13.57-.94,23.13-12.08,25.96,11.31,3.58,11.8,9.94,11.8,22.67l3.53-3.48s1.41,1.33.64,2.38c-1.1,1.51-5.24,5.07-5.24,5.07,0,0-4.31-3.87-5.2-5.07-.78-1.05.6-2.38.6-2.38l3.41,3.48c.62-17.51-4.68-21.3-21.15-21.3-1.68,0-1.66-3.13,0-3.13,16.33,0,20.91-2.61,20.91-24.2,0-1.71,2.77-1.67,2.77,0Z"/>
    <path class="cls-20" d="m463.17,227.21l3.17-3.18s-1.26-1.3-2.24-.56c-1.13.82-4.74,4.87-4.74,4.87,0,0,3.32,3.88,4.74,4.91.98.71,2.24-.6,2.24-.6l-3.17-3.13c39.43,0,38.92-62.94-2.12-62.94-2.3,0-2.23,2.68,0,2.68,37.79-.12,37.24,57.84,2.11,57.96Z"/>
    <path class="cls-14" d="m445.87,294.35c0,13.57-.94,23.13-12.08,25.96,11.31,3.58,11.8,9.94,11.8,22.67l3.53-3.48s1.41,1.33.64,2.38c-1.1,1.51-5.24,5.07-5.24,5.07,0,0-4.31-3.87-5.2-5.07-.78-1.05.6-2.38.6-2.38l3.41,3.48c.62-17.51-4.68-21.3-21.15-21.3-1.68,0-1.66-3.13,0-3.13,16.33,0,20.91-2.61,20.91-24.2,0-1.71,2.77-1.67,2.77,0Z"/>
    <path class="cls-20" d="m463.17,227.21l3.17-3.18s-1.26-1.3-2.24-.56c-1.13.82-4.74,4.87-4.74,4.87,0,0,3.32,3.88,4.74,4.91.98.71,2.24-.6,2.24-.6l-3.17-3.13c39.43,0,38.92-62.94-2.12-62.94-2.3,0-2.23,2.68,0,2.68,37.79-.12,37.24,57.84,2.11,57.96Z"/>
    <path class="cls-20" d="m210.56,164.2c14.27,0,27.22,11.49,27.26,25.66l2.89-3.18s1.34,1.21.64,2.22c-.78,1.14-4.71,4.9-4.71,4.9,0,0-3.98-3.19-5.05-4.56-.76-.97.52-2.27.52-2.27l3.33,3.13c-.03-10.71-8.78-22.54-24.89-23.4-1.88-.1-1.94-2.5,0-2.5Z"/>
    <path class="cls-20" d="m345.71,208.67c0,14.27-11.49,27.22-25.66,27.26l3.18,2.89s-1.21,1.34-2.22.64c-1.14-.78-4.9-4.71-4.9-4.71,0,0,3.19-3.98,4.56-5.05.97-.76,2.27.52,2.27.52l-3.13,3.33c10.71-.03,22.54-8.78,23.4-24.89.1-1.88,2.5-1.94,2.5,0Z"/>
    <g>
      <g>
        <path class="cls-13" d="m237.99,203.02c3.87,0,3.88-6,0-6s-3.88,6,0,6h0Z"/>
        <path class="cls-13" d="m201.9,167.02c3.87,0,3.88-6,0-6s-3.88,6,0,6h0Z"/>
        <path class="cls-13" d="m165.8,203.02c3.87,0,3.88-6,0-6s-3.88,6,0,6h0Z"/>
        <path class="cls-13" d="m201.9,239.02c3.87,0,3.88-6,0-6s-3.88,6,0,6h0Z"/>
        <path class="cls-13" d="m201.9,201.14c1.45,0,1.45-2.25,0-2.25s-1.45,2.25,0,2.25h0Z"/>
      </g>
      <g>
        <path class="cls-13" d="m237.99,323.02c3.87,0,3.88-6,0-6s-3.88,6,0,6h0Z"/>
        <path class="cls-13" d="m201.9,287.02c3.87,0,3.88-6,0-6s-3.88,6,0,6h0Z"/>
        <path class="cls-13" d="m165.8,323.02c3.87,0,3.88-6,0-6s-3.88,6,0,6h0Z"/>
        <path class="cls-13" d="m201.9,359.02c3.87,0,3.88-6,0-6s-3.88,6,0,6h0Z"/>
        <path class="cls-13" d="m201.9,321.14c1.45,0,1.45-2.25,0-2.25s-1.45,2.25,0,2.25h0Z"/>
      </g>
      <g>
        <path class="cls-13" d="m345.99,203.02c3.87,0,3.88-6,0-6s-3.88,6,0,6h0Z"/>
        <path class="cls-13" d="m309.9,167.02c3.87,0,3.88-6,0-6s-3.88,6,0,6h0Z"/>
        <path class="cls-13" d="m273.8,203.02c3.87,0,3.88-6,0-6s-3.88,6,0,6h0Z"/>
        <path class="cls-13" d="m309.9,239.02c3.87,0,3.88-6,0-6s-3.88,6,0,6h0Z"/>
        <path class="cls-13" d="m309.9,201.14c1.45,0,1.45-2.25,0-2.25s-1.45,2.25,0,2.25h0Z"/>
      </g>
      <g>
        <path class="cls-13" d="m345.99,323.02c3.87,0,3.88-6,0-6s-3.88,6,0,6h0Z"/>
        <path class="cls-13" d="m309.9,287.02c3.87,0,3.88-6,0-6s-3.88,6,0,6h0Z"/>
        <path class="cls-13" d="m273.8,323.02c3.87,0,3.88-6,0-6s-3.88,6,0,6h0Z"/>
        <path class="cls-13" d="m309.9,359.02c3.87,0,3.88-6,0-6s-3.88,6,0,6h0Z"/>
        <path class="cls-13" d="m309.9,321.14c1.45,0,1.45-2.25,0-2.25s-1.45,2.25,0,2.25h0Z"/>
      </g>
      <g>
        <path class="cls-13" d="m489.99,203.02c3.87,0,3.88-6,0-6s-3.88,6,0,6h0Z"/>
        <path class="cls-13" d="m453.9,167.02c3.87,0,3.88-6,0-6s-3.88,6,0,6h0Z"/>
        <path class="cls-13" d="m417.8,203.02c3.87,0,3.88-6,0-6s-3.88,6,0,6h0Z"/>
        <path class="cls-13" d="m453.9,239.02c3.87,0,3.88-6,0-6s-3.88,6,0,6h0Z"/>
        <path class="cls-13" d="m453.9,201.14c1.45,0,1.45-2.25,0-2.25s-1.45,2.25,0,2.25h0Z"/>
      </g>
      <g>
        <path class="cls-13" d="m489.99,323.02c3.87,0,3.88-6,0-6s-3.88,6,0,6h0Z"/>
        <path class="cls-13" d="m453.9,287.02c3.87,0,3.88-6,0-6s-3.88,6,0,6h0Z"/>
        <path class="cls-13" d="m417.8,323.02c3.87,0,3.88-6,0-6s-3.88,6,0,6h0Z"/>
        <path class="cls-13" d="m453.9,359.02c3.87,0,3.88-6,0-6s-3.88,6,0,6h0Z"/>
        <path class="cls-13" d="m453.9,321.14c1.45,0,1.45-2.25,0-2.25s-1.45,2.25,0,2.25h0Z"/>
      </g>
    </g>
    <path class="cls-14" d="m195.38,284.62c0,23.28-1.56,25.52-24.18,25.52l3.27,3.19s-1.25,1.32-2.24.6c-1.41-1.03-4.74-4.9-4.74-4.9,0,0,3.61-4.05,4.74-4.88.99-.73,2.24.57,2.24.57l-3.27,3.07c20.73,0,21.69-1.2,21.69-23.14,0-1.81,2.49-1.81,2.49-.04Z"/>
    <path class="cls-14" d="m274.5,326.53c23.28,0,25.52,1.56,25.52,24.18l3.19-3.27s1.32,1.25.6,2.24c-1.03,1.41-4.9,4.74-4.9,4.74,0,0-4.05-3.61-4.88-4.74-.73-.99.57-2.24.57-2.24l3.07,3.27c0-20.73-1.2-21.69-23.14-21.69-1.81,0-1.81-2.49-.04-2.49Z"/>
    <path class="cls-20" d="m204.64,196.56v6.91c0,.57.48,1.04,1.07,1.04s1.07-.47,1.07-1.04v-2.3h26.22c.58,0,1.05-.46,1.05-1.02v-.38c0-.55-.47-1.02-1.05-1.02h-26.22v-2.19c0-.58-.48-1.04-1.07-1.04-.59,0-1.07.46-1.07,1.04Z"/>
    <path class="cls-14" d="m169.93,316.56v6.91c0,.57.48,1.04,1.07,1.04s1.07-.47,1.07-1.04v-2.3h26.22c.58,0,1.05-.46,1.05-1.02v-.38c0-.55-.47-1.02-1.05-1.02h-26.22v-2.19c0-.58-.48-1.04-1.07-1.04-.59,0-1.07.46-1.07,1.04Z"/>
    <path class="cls-14" d="m313.36,322.59h-6.91c-.57,0-1.04.48-1.04,1.07,0,.58.47,1.07,1.04,1.07h2.3v26.22c0,.58.46,1.05,1.02,1.05h.38c.55,0,1.02-.47,1.02-1.05v-26.22h2.19c.58,0,1.04-.48,1.04-1.07,0-.59-.46-1.07-1.04-1.07Z"/>
    <path class="cls-14" d="m457.36,322.59h-6.91c-.57,0-1.04.48-1.04,1.07,0,.58.47,1.07,1.04,1.07h2.3v26.22c0,.58.46,1.05,1.02,1.05h.38c.55,0,1.02-.47,1.02-1.05v-26.22h2.19c.58,0,1.04-.48,1.04-1.07,0-.59-.46-1.07-1.04-1.07Z"/>
    <path class="cls-20" d="m313.36,202.75h-6.91c-.57,0-1.04.48-1.04,1.07s.47,1.07,1.04,1.07h2.3v26.22c0,.58.46,1.05,1.02,1.05h.38c.55,0,1.02-.47,1.02-1.05v-26.22h2.19c.58,0,1.04-.48,1.04-1.07,0-.59-.46-1.07-1.04-1.07Z"/>
    <path class="cls-20" d="m457.36,202.75h-6.91c-.57,0-1.04.48-1.04,1.07s.47,1.07,1.04,1.07h2.3v26.22c0,.58.46,1.05,1.02,1.05h.38c.55,0,1.02-.47,1.02-1.05v-26.22h2.19c.58,0,1.04-.48,1.04-1.07,0-.59-.46-1.07-1.04-1.07Z"/>
    <rect class="cls-13" x="368.77" y="193.78" width="26.25" height="3.82"/>
    <rect class="cls-13" x="368.77" y="202.43" width="26.25" height="3.82"/>
    <rect class="cls-13" x="368.77" y="313.78" width="26.25" height="3.82"/>
    <rect class="cls-13" x="368.77" y="322.43" width="26.25" height="3.82"/>
  </g>
  <text class="cls-13" transform="translate(81.76 165.68)"><tspan class="cls-6" x="0" y="0">P</tspan><tspan class="cls-8" x="9.33" y="0">r</tspan><tspan class="cls-6" x="16" y="0">o</tspan><tspan class="cls-10" x="24.52" y="0">→</tspan><tspan class="cls-6" x="37.51" y="0">P</tspan><tspan class="cls-8" x="46.83" y="0">r</tspan><tspan class="cls-6" x="53.51" y="0">o</tspan></text>
  <text class="cls-13" transform="translate(81.76 287.58)"><tspan class="cls-8" x="0" y="0">A</tspan><tspan class="cls-6" x="9.72" y="0">nti</tspan><tspan class="cls-10" x="29.06" y="0">→</tspan><tspan class="cls-8" x="42.05" y="0">A</tspan><tspan class="cls-6" x="51.77" y="0">nti</tspan></text>
  <g>
    <path class="cls-14" d="m568.86,498.62l2.64-2.65s-1.05-1.08-1.87-.47c-.94.68-3.95,4.06-3.95,4.06,0,0,2.77,3.23,3.95,4.09.82.59,1.87-.5,1.87-.5l-2.64-2.61c32.86,0,32.43-52.45-1.76-52.45-1.92,0-1.86,2.24,0,2.23,31.49-.1,31.03,48.2,1.76,48.3Z"/>
    <path class="cls-20" d="m568.86,507.33l2.64-2.65s-1.05-1.08-1.87-.47c-.94.68-3.95,4.06-3.95,4.06,0,0,2.77,3.23,3.95,4.09.82.59,1.87-.5,1.87-.5l-2.64-2.61c32.86,0,32.43-52.45-1.76-52.45-1.92,0-1.86,2.24,0,2.23,31.49-.1,31.03,48.2,1.76,48.3Z"/>
    <path class="cls-20" d="m572.07,743.85l2.64-2.65s-1.05-1.08-1.87-.47c-.94.68-3.95,4.06-3.95,4.06,0,0,2.77,3.23,3.95,4.09.82.59,1.87-.5,1.87-.5l-2.64-2.61c32.86,0,32.43-52.45-1.76-52.45-1.92,0-1.86,2.24,0,2.23,31.49-.1,31.03,48.2,1.76,48.3Z"/>
    <path class="cls-20" d="m266.6,504.87l2.64-2.65s-1.05-1.08-1.87-.47c-.94.68-3.95,4.06-3.95,4.06,0,0,2.77,3.23,3.95,4.09.82.59,1.87-.5,1.87-.5l-2.64-2.61c32.86,0,32.43-52.45-1.76-52.45-1.92,0-1.86,2.24,0,2.23,31.49-.1,31.03,48.2,1.76,48.3Z"/>
    <path class="cls-14" d="m255.4,455.75l-2.64,2.65s1.05,1.08,1.87.47c.94-.68,3.95-4.06,3.95-4.06,0,0-2.77-3.23-3.95-4.09-.82-.59-1.87.5-1.87.5l2.64,2.61c-32.86,0-32.43,52.45,1.76,52.45,1.92,0,1.86-2.24,0-2.23-31.49.1-31.03-48.2-1.76-48.3Z"/>
    <path class="cls-20" d="m55.73,452.07c11.89,0,22.68,9.57,22.72,21.38l2.41-2.65s1.11,1.01.54,1.85c-.65.95-3.93,4.08-3.93,4.08,0,0-3.32-2.66-4.21-3.8-.63-.81.43-1.89.43-1.89l2.78,2.61c-.03-8.93-7.32-18.79-20.74-19.5-1.57-.08-1.62-2.09,0-2.08Z"/>
    <path class="cls-14" d="m46.27,508.55c-11.89,0-22.68-9.57-22.72-21.38l-2.41,2.65s-1.11-1.01-.54-1.85c.65-.95,3.93-4.08,3.93-4.08,0,0,3.32,2.66,4.21,3.8.63.81-.43,1.89-.43,1.89l-2.78-2.61c.03,8.93,7.32,18.79,20.74,19.5,1.57.08,1.62,2.09,0,2.08Z"/>
    <path class="cls-20" d="m169.24,485.04c0,11.89-9.57,22.68-21.38,22.72l2.65,2.41s-1.01,1.11-1.85.54c-.95-.65-4.08-3.93-4.08-3.93,0,0,2.66-3.32,3.8-4.21.81-.63,1.89.43,1.89.43l-2.61,2.78c8.93-.03,18.79-7.32,19.5-20.74.08-1.57,2.09-1.62,2.08,0Z"/>
    <path class="cls-14" d="m112.76,475.58c0-11.89,9.57-22.68,21.38-22.72l-2.65-2.41s1.01-1.11,1.85-.54c.95.65,4.08,3.93,4.08,3.93,0,0-2.66,3.32-3.8,4.21-.81.63-1.89-.43-1.89-.43l2.61-2.78c-8.93.03-18.79,7.32-19.5,20.74-.08,1.57-2.09,1.62-2.08,0Z"/>
    <g>
      <path class="cls-13" d="m81.08,482.81c3.23,0,3.23-5,0-5s-3.23,5,0,5h0Z"/>
      <path class="cls-13" d="m51,452.81c3.23,0,3.23-5,0-5s-3.23,5,0,5h0Z"/>
      <path class="cls-13" d="m20.92,482.81c3.23,0,3.23-5,0-5s-3.23,5,0,5h0Z"/>
      <path class="cls-13" d="m51,512.81c3.23,0,3.23-5,0-5s-3.23,5,0,5h0Z"/>
      <path class="cls-13" d="m51,481.44c1.45,0,1.45-2.25,0-2.25s-1.45,2.25,0,2.25h0Z"/>
    </g>
    <g>
      <path class="cls-13" d="m171.08,482.81c3.23,0,3.23-5,0-5s-3.23,5,0,5h0Z"/>
      <path class="cls-13" d="m141,452.81c3.23,0,3.23-5,0-5s-3.23,5,0,5h0Z"/>
      <path class="cls-13" d="m110.92,482.81c3.23,0,3.23-5,0-5s-3.23,5,0,5h0Z"/>
      <path class="cls-13" d="m141,512.81c3.23,0,3.23-5,0-5s-3.23,5,0,5h0Z"/>
      <path class="cls-13" d="m141,481.44c1.45,0,1.45-2.25,0-2.25s-1.45,2.25,0,2.25h0Z"/>
    </g>
    <g>
      <path class="cls-13" d="m81.08,602.81c3.23,0,3.23-5,0-5s-3.23,5,0,5h0Z"/>
      <path class="cls-13" d="m51,572.81c3.23,0,3.23-5,0-5s-3.23,5,0,5h0Z"/>
      <path class="cls-13" d="m20.92,602.81c3.23,0,3.23-5,0-5s-3.23,5,0,5h0Z"/>
      <path class="cls-13" d="m51,632.81c3.23,0,3.23-5,0-5s-3.23,5,0,5h0Z"/>
      <path class="cls-13" d="m51,601.44c1.45,0,1.45-2.25,0-2.25s-1.45,2.25,0,2.25h0Z"/>
    </g>
    <g>
      <path class="cls-13" d="m171.08,602.81c3.23,0,3.23-5,0-5s-3.23,5,0,5h0Z"/>
      <path class="cls-13" d="m141,572.81c3.23,0,3.23-5,0-5s-3.23,5,0,5h0Z"/>
      <path class="cls-13" d="m110.92,602.81c3.23,0,3.23-5,0-5s-3.23,5,0,5h0Z"/>
      <path class="cls-13" d="m141,632.81c3.23,0,3.23-5,0-5s-3.23,5,0,5h0Z"/>
      <path class="cls-13" d="m141,601.44c1.45,0,1.45-2.25,0-2.25s-1.45,2.25,0,2.25h0Z"/>
    </g>
    <g>
      <g>
        <path class="cls-13" d="m81.08,722.81c3.23,0,3.23-5,0-5s-3.23,5,0,5h0Z"/>
        <path class="cls-13" d="m51,692.81c3.23,0,3.23-5,0-5s-3.23,5,0,5h0Z"/>
        <path class="cls-13" d="m20.92,722.81c3.23,0,3.23-5,0-5s-3.23,5,0,5h0Z"/>
        <path class="cls-13" d="m51,752.81c3.23,0,3.23-5,0-5s-3.23,5,0,5h0Z"/>
        <path class="cls-13" d="m51,721.44c1.45,0,1.45-2.25,0-2.25s-1.45,2.25,0,2.25h0Z"/>
      </g>
      <g>
        <path class="cls-13" d="m171.08,722.81c3.23,0,3.23-5,0-5s-3.23,5,0,5h0Z"/>
        <path class="cls-13" d="m141,692.81c3.23,0,3.23-5,0-5s-3.23,5,0,5h0Z"/>
        <path class="cls-13" d="m110.92,722.81c3.23,0,3.23-5,0-5s-3.23,5,0,5h0Z"/>
        <path class="cls-13" d="m141,752.81c3.23,0,3.23-5,0-5s-3.23,5,0,5h0Z"/>
        <path class="cls-13" d="m141,721.44c1.45,0,1.45-2.25,0-2.25s-1.45,2.25,0,2.25h0Z"/>
      </g>
    </g>
    <g>
      <path class="cls-13" d="m381.08,722.81c3.23,0,3.23-5,0-5s-3.23,5,0,5h0Z"/>
      <path class="cls-13" d="m351,692.81c3.23,0,3.23-5,0-5s-3.23,5,0,5h0Z"/>
      <path class="cls-13" d="m320.92,722.81c3.23,0,3.23-5,0-5s-3.23,5,0,5h0Z"/>
      <path class="cls-13" d="m351,752.81c3.23,0,3.23-5,0-5s-3.23,5,0,5h0Z"/>
      <path class="cls-13" d="m351,721.44c1.45,0,1.45-2.25,0-2.25s-1.45,2.25,0,2.25h0Z"/>
    </g>
    <g>
      <path class="cls-13" d="m471.08,722.81c3.23,0,3.23-5,0-5s-3.23,5,0,5h0Z"/>
      <path class="cls-13" d="m441,692.81c3.23,0,3.23-5,0-5s-3.23,5,0,5h0Z"/>
      <path class="cls-13" d="m410.92,722.81c3.23,0,3.23-5,0-5s-3.23,5,0,5h0Z"/>
      <path class="cls-13" d="m441,752.81c3.23,0,3.23-5,0-5s-3.23,5,0,5h0Z"/>
      <path class="cls-13" d="m441,721.44c1.45,0,1.45-2.25,0-2.25s-1.45,2.25,0,2.25h0Z"/>
    </g>
    <g>
      <path class="cls-13" d="m381.08,602.81c3.23,0,3.23-5,0-5s-3.23,5,0,5h0Z"/>
      <path class="cls-13" d="m351,572.81c3.23,0,3.23-5,0-5s-3.23,5,0,5h0Z"/>
      <path class="cls-13" d="m320.92,602.81c3.23,0,3.23-5,0-5s-3.23,5,0,5h0Z"/>
      <path class="cls-13" d="m351,632.81c3.23,0,3.23-5,0-5s-3.23,5,0,5h0Z"/>
      <path class="cls-13" d="m351,601.44c1.45,0,1.45-2.25,0-2.25s-1.45,2.25,0,2.25h0Z"/>
    </g>
    <g>
      <path class="cls-13" d="m471.08,602.81c3.23,0,3.23-5,0-5s-3.23,5,0,5h0Z"/>
      <path class="cls-13" d="m441,572.81c3.23,0,3.23-5,0-5s-3.23,5,0,5h0Z"/>
      <path class="cls-13" d="m410.92,602.81c3.23,0,3.23-5,0-5s-3.23,5,0,5h0Z"/>
      <path class="cls-13" d="m441,632.81c3.23,0,3.23-5,0-5s-3.23,5,0,5h0Z"/>
      <path class="cls-13" d="m441,601.44c1.45,0,1.45-2.25,0-2.25s-1.45,2.25,0,2.25h0Z"/>
    </g>
    <g>
      <path class="cls-13" d="m381.08,482.81c3.23,0,3.23-5,0-5s-3.23,5,0,5h0Z"/>
      <path class="cls-13" d="m351,452.81c3.23,0,3.23-5,0-5s-3.23,5,0,5h0Z"/>
      <path class="cls-13" d="m320.92,482.81c3.23,0,3.23-5,0-5s-3.23,5,0,5h0Z"/>
      <path class="cls-13" d="m351,512.81c3.23,0,3.23-5,0-5s-3.23,5,0,5h0Z"/>
      <path class="cls-13" d="m351,481.44c1.45,0,1.45-2.25,0-2.25s-1.45,2.25,0,2.25h0Z"/>
    </g>
    <g>
      <path class="cls-13" d="m471.08,482.81c3.23,0,3.23-5,0-5s-3.23,5,0,5h0Z"/>
      <path class="cls-13" d="m441,452.81c3.23,0,3.23-5,0-5s-3.23,5,0,5h0Z"/>
      <path class="cls-13" d="m410.92,482.81c3.23,0,3.23-5,0-5s-3.23,5,0,5h0Z"/>
      <path class="cls-13" d="m441,512.81c3.23,0,3.23-5,0-5s-3.23,5,0,5h0Z"/>
      <path class="cls-13" d="m441,481.44c1.45,0,1.45-2.25,0-2.25s-1.45,2.25,0,2.25h0Z"/>
    </g>
    <path class="cls-20" d="m57.42,570.85c0,19.4,1.3,21.27,20.15,21.27l-2.72,2.66s1.04,1.1,1.87.5c1.18-.85,3.95-4.08,3.95-4.08,0,0-3.01-3.38-3.95-4.07-.82-.6-1.87.48-1.87.48l2.72,2.56c-17.27,0-18.08-1-18.08-19.29,0-1.51-2.07-1.51-2.07-.03Z"/>
    <path class="cls-14" d="m44.58,629.77c0-19.4-1.3-21.27-20.15-21.27l2.72-2.66s-1.04-1.1-1.87-.5c-1.18.85-3.95,4.08-3.95,4.08,0,0,3.01,3.38,3.95,4.07.82.6,1.87-.48,1.87-.48l-2.72-2.56c17.27,0,18.08,1,18.08,19.29,0,1.51,2.07,1.51,2.07.03Z"/>
    <path class="cls-20" d="m170.46,606.73c-19.4,0-21.27,1.3-21.27,20.15l-2.66-2.72s-1.1,1.04-.5,1.87c.85,1.18,4.08,3.95,4.08,3.95,0,0,3.38-3.01,4.07-3.95.6-.82-.48-1.87-.48-1.87l-2.56,2.72c0-17.27,1-18.08,19.29-18.08,1.51,0,1.51-2.07.03-2.07Z"/>
    <path class="cls-14" d="m111.54,593.89c19.4,0,21.27-1.3,21.27-20.15l2.66,2.72s1.1-1.04.5-1.87c-.85-1.18-4.08-3.95-4.08-3.95,0,0-3.38,3.01-4.07,3.95-.6.82.48,1.87.48,1.87l2.56-2.72c0,17.27-1,18.08-19.29,18.08-1.51,0-1.51,2.07-.03,2.07Z"/>
    <path class="cls-14" d="m48.58,483.19v-5.76c0-.48-.4-.87-.89-.87s-.89.39-.89.87v1.92h-21.85c-.48,0-.87.38-.87.85v.32c0,.46.39.85.87.85h21.85v1.82c0,.48.4.87.89.87s.89-.39.89-.87Z"/>
    <path class="cls-20" d="m53.42,477.43v5.76c0,.48.4.87.89.87s.89-.39.89-.87v-1.92h21.85c.48,0,.87-.38.87-.85v-.32c0-.46-.39-.85-.87-.85h-21.85v-1.82c0-.48-.4-.87-.89-.87s-.89.39-.89.87Z"/>
    <path class="cls-14" d="m138.12,477.89h5.76c.48,0,.87-.4.87-.89s-.39-.89-.87-.89h-1.92v-21.85c0-.48-.38-.87-.85-.87h-.32c-.46,0-.85.39-.85.87v21.85h-1.82c-.48,0-.87.4-.87.89,0,.49.39.89.87.89Z"/>
    <path class="cls-20" d="m143.88,482.73h-5.76c-.48,0-.87.4-.87.89,0,.49.39.89.87.89h1.92v21.85c0,.48.38.87.85.87h.32c.46,0,.85-.39.85-.87v-21.85h1.82c.48,0,.87-.4.87-.89,0-.49-.39-.89-.87-.89Z"/>
    <path class="cls-20" d="m55.73,692.07c11.89,0,22.68,9.57,22.72,21.38l2.41-2.65s1.11,1.01.54,1.85c-.65.95-3.93,4.08-3.93,4.08,0,0-3.32-2.66-4.21-3.8-.63-.81.43-1.89.43-1.89l2.78,2.61c-.03-8.93-7.32-18.79-20.74-19.5-1.57-.08-1.62-2.09,0-2.08Z"/>
    <path class="cls-20" d="m169.24,725.04c0,11.89-9.57,22.68-21.38,22.72l2.65,2.41s-1.01,1.11-1.85.54c-.95-.65-4.08-3.93-4.08-3.93,0,0,2.66-3.32,3.8-4.21.81-.63,1.89.43,1.89.43l-2.61,2.78c8.93-.03,18.79-7.32,19.5-20.74.08-1.57,2.09-1.62,2.08,0Z"/>
    <path class="cls-20" d="m53.42,717.43v5.76c0,.48.4.87.89.87s.89-.39.89-.87v-1.92h21.85c.48,0,.87-.38.87-.85v-.32c0-.46-.39-.85-.87-.85h-21.85v-1.82c0-.48-.4-.87-.89-.87s-.89.39-.89.87Z"/>
    <path class="cls-20" d="m143.88,722.73h-5.76c-.48,0-.87.4-.87.89,0,.49.39.89.87.89h1.92v21.85c0,.48.38.87.85.87h.32c.46,0,.85-.39.85-.87v-21.85h1.82c.48,0,.87-.4.87-.89,0-.49-.39-.89-.87-.89Z"/>
    <path class="cls-14" d="m24.08,597.43v5.76c0,.48.4.87.89.87.49,0,.89-.39.89-.87v-1.92h21.85c.48,0,.87-.38.87-.85v-.32c0-.46-.39-.85-.87-.85h-21.85v-1.82c0-.48-.4-.87-.89-.87s-.89.39-.89.87Z"/>
    <path class="cls-20" d="m77.92,603.19v-5.76c0-.48-.4-.87-.89-.87s-.89.39-.89.87v1.92h-21.85c-.48,0-.87.38-.87.85v.32c0,.46.39.85.87.85h21.85v1.82c0,.48.4.87.89.87s.89-.39.89-.87Z"/>
    <path class="cls-14" d="m138.12,597.89h5.76c.48,0,.87-.4.87-.89s-.39-.89-.87-.89h-1.92v-21.85c0-.48-.38-.87-.85-.87h-.32c-.46,0-.85.39-.85.87v21.85h-1.82c-.48,0-.87.4-.87.89,0,.49.39.89.87.89Z"/>
    <path class="cls-20" d="m143.88,602.4h-5.76c-.48,0-.87.4-.87.89,0,.49.39.89.87.89h1.92v21.85c0,.48.38.87.85.87h.32c.46,0,.85-.39.85-.87v-21.85h1.82c.48,0,.87-.4.87-.89,0-.49-.39-.89-.87-.89Z"/>
    <path class="cls-14" d="m44.58,749.77c0-19.4-1.3-21.27-20.15-21.27l2.72-2.66s-1.04-1.1-1.87-.5c-1.18.85-3.95,4.08-3.95,4.08,0,0,3.01,3.38,3.95,4.07.82.6,1.87-.48,1.87-.48l-2.72-2.56c17.27,0,18.08,1,18.08,19.29,0,1.51,2.07,1.51,2.07.03Z"/>
    <path class="cls-14" d="m111.54,713.89c19.4,0,21.27-1.3,21.27-20.15l2.66,2.72s1.1-1.04.5-1.87c-.85-1.18-4.08-3.95-4.08-3.95,0,0-3.38,3.01-4.07,3.95-.6.82.48,1.87.48,1.87l2.56-2.72c0,17.27-1,18.08-19.29,18.08-1.51,0-1.51,2.07-.03,2.07Z"/>
    <path class="cls-14" d="m24.08,717.43v5.76c0,.48.4.87.89.87.49,0,.89-.39.89-.87v-1.92h21.85c.48,0,.87-.38.87-.85v-.32c0-.46-.39-.85-.87-.85h-21.85v-1.82c0-.48-.4-.87-.89-.87s-.89.39-.89.87Z"/>
    <path class="cls-14" d="m138.12,717.89h5.76c.48,0,.87-.4.87-.89s-.39-.89-.87-.89h-1.92v-21.85c0-.48-.38-.87-.85-.87h-.32c-.46,0-.85.39-.85.87v21.85h-1.82c-.48,0-.87.4-.87.89,0,.49.39.89.87.89Z"/>
    <path class="cls-13" d="m51.36,647.45c4.39-1.93.8-6.48-3.28-4.27-.04.02-.07.06-.07.1-.38,2.63-.16,6.19.2,8.71.02.13.12.23.24.27,6.22,1.71,7.68-3.78,2.91-4.81Zm.65-2.47c0,1.13-1.98,1.51-2.74,1.51-.13-.26-.02-2.43.07-2.53.9-.25,2.67.04,2.67,1.02Zm-2.38,6.17c-.17-1.1-.2-1.41-.14-2.54.47-.06,3.32-.1,3.29,1.38-.03,1.15-2.44,1.38-3.15,1.16Z"/>
    <path class="cls-13" d="m141.36,647.45c4.39-1.93.8-6.48-3.28-4.27-.04.02-.07.06-.07.1-.38,2.63-.16,6.19.2,8.71.02.13.12.23.24.27,6.22,1.71,7.68-3.78,2.91-4.81Zm.65-2.47c0,1.13-1.98,1.51-2.74,1.51-.13-.26-.02-2.43.07-2.53.9-.25,2.67.04,2.67,1.02Zm-2.38,6.17c-.17-1.1-.2-1.41-.14-2.54.47-.06,3.32-.1,3.29,1.38-.03,1.15-2.44,1.38-3.15,1.16Z"/>
    <path class="cls-13" d="m54.77,770.35c.42.55-.07,1.12-.5,1.33-9.15,4.54-8.83-9.42-3.27-9.09,1.07.06,2.05.85,2.39,1.26.25.29.44.81.12,1.16-.34.36-.8.24-1.02,0-4.33-4.56-6.65,9.06,1.11,5.25.45-.22.79-.4,1.16.09Z"/>
    <path class="cls-13" d="m144.77,770.35c.42.55-.07,1.12-.5,1.33-9.15,4.54-8.83-9.42-3.27-9.09,1.07.06,2.05.85,2.39,1.26.25.29.44.81.12,1.16-.34.36-.8.24-1.02,0-4.33-4.56-6.65,9.06,1.11,5.25.45-.22.79-.4,1.16.09Z"/>
    <path class="cls-13" d="m354.12,524.24c-.42-.02-1.11-.04-1.33-.05-2.5-.16-3.99,1.77-4.23,4.08-.08.74.07,1.24.63,1.77.96.88,2.65,1.08,3.68.33.29-.21.56-.57.67-.92.23-.7-.06-1.13-.73-1.15-.55-.02-1.11.07-1.67.1-.47.02-.98.05-1.11-.62-.11-.57.35-1.04,1.07-1.13.6-.07,1.2-.08,1.8-.13.41-.04.92,0,1.41-.03.86,1.57.93,2.45.34,3.91-.66,1.62-1.9,2.23-3.38,2.2-.76-.02-1.61-.21-2.26-.62-2.32-1.47-2.63-3.71-1.3-6.4,1.3-3.01,4.25-2.97,5.53-2.98.84,0,1.06.15.85,1.66Z"/>
    <path class="cls-13" d="m54.66,531.6c-.87-2.99-2.3-6.84-2.48-7.31-.18-.46-.77-1.7-1.18-1.7s-1,1.24-1.18,1.7c-.18.47-1.61,4.32-2.48,7.31-.24.84.06.91.18.94,1.61.21,1.32-.3,1.57-1.4.23-1,.22-1.46,1-1.46.38,0,.56.01.91.01s.54-.01.91-.01c.78,0,.77.46,1,1.46.25,1.1-.04,1.61,1.57,1.4.12-.03.42-.1.18-.94Zm-2.91-3.37h-1.51c-.14,0-.23-.07-.19-.23l.94-3.44.94,3.44c.04.16-.05.23-.19.23Z"/>
    <path class="cls-13" d="m144.66,531.6c-.87-2.99-2.3-6.84-2.48-7.31-.18-.46-.77-1.7-1.18-1.7s-1,1.24-1.18,1.7c-.18.47-1.61,4.32-2.48,7.31-.24.84.06.91.18.94,1.61.21,1.32-.3,1.57-1.4.23-1,.22-1.46,1-1.46.38,0,.56.01.91.01s.54-.01.91-.01c.78,0,.77.46,1,1.46.25,1.1-.04,1.61,1.57,1.4.12-.03.42-.1.18-.94Zm-2.91-3.37h-1.51c-.14,0-.23-.07-.19-.23l.94-3.44.94,3.44c.04.16-.05.23-.19.23Z"/>
    <path class="cls-13" d="m354.66,771.84c0,.65-.36.74-1.5.74h-4.33c-1.13,0-1.5-.09-1.5-.74s.49-.73,1.75-.73,1.17.32,1.17-3.55.1-3.5-2-3.5c-.49,0-.92-.16-.92-.72s.2-.75.99-.75h5.35c.79,0,.99.2.99.75s-.43.72-.92.72c-2.1,0-2-.37-2,3.5s-.14,3.55,1.17,3.55,1.75.08,1.75.73Z"/>
    <path class="cls-13" d="m354.32,643.66v7.97c0,.82-.23.95-.84.95-.67,0-.75-.2-.75-.9,0-2.75.12-3.14-.89-3.17-.34-.02-1.3-.02-1.68,0-1.01.03-.89.42-.89,3.17,0,.7-.08.9-.75.9-.61,0-.84-.13-.84-.95v-7.97c0-.96.39-1.07.88-1.07s.71.2.71,1.04c0,2.76.11,3.25.76,3.25h1.94c.65,0,.76-.49.76-3.25,0-.84.22-1.04.71-1.04s.88.11.88,1.07Z"/>
    <path class="cls-13" d="m444.12,524.24c-.42-.02-1.11-.04-1.33-.05-2.5-.16-3.99,1.77-4.23,4.08-.08.74.07,1.24.63,1.77.96.88,2.65,1.08,3.68.33.29-.21.56-.57.67-.92.23-.7-.06-1.13-.73-1.15-.55-.02-1.11.07-1.67.1-.47.02-.98.05-1.11-.62-.11-.57.35-1.04,1.07-1.13.6-.07,1.2-.08,1.8-.13.41-.04.92,0,1.41-.03.86,1.57.93,2.45.34,3.91-.66,1.62-1.9,2.23-3.38,2.2-.76-.02-1.61-.21-2.26-.62-2.32-1.47-2.63-3.71-1.3-6.4,1.3-3.01,4.25-2.97,5.53-2.98.84,0,1.06.15.85,1.66Z"/>
    <path class="cls-13" d="m559.43,524.24c-.42-.02-1.11-.04-1.33-.05-2.5-.16-3.99,1.77-4.23,4.08-.08.74.07,1.24.63,1.77.96.88,2.65,1.08,3.68.33.29-.21.56-.57.67-.92.23-.7-.06-1.13-.73-1.15-.55-.02-1.11.07-1.67.1-.47.02-.98.05-1.11-.62-.11-.57.35-1.04,1.07-1.13.6-.07,1.2-.08,1.8-.13.41-.04.92,0,1.41-.03.86,1.57.93,2.45.34,3.91-.66,1.62-1.9,2.23-3.38,2.2-.76-.02-1.61-.21-2.26-.62-2.32-1.47-2.63-3.71-1.3-6.4,1.3-3.01,4.25-2.97,5.53-2.98.84,0,1.06.15.85,1.66Z"/>
    <path class="cls-13" d="m568.8,524.24c-.42-.02-1.11-.04-1.33-.05-2.5-.16-3.99,1.77-4.23,4.08-.08.74.07,1.24.63,1.77.96.88,2.65,1.08,3.68.33.29-.21.56-.57.67-.92.23-.7-.06-1.13-.73-1.15-.55-.02-1.11.07-1.67.1-.47.02-.98.05-1.11-.62-.11-.57.35-1.04,1.07-1.13.6-.07,1.2-.08,1.8-.13.41-.04.92,0,1.41-.03.86,1.57.93,2.45.34,3.91-.66,1.62-1.9,2.23-3.38,2.2-.76-.02-1.61-.21-2.26-.62-2.32-1.47-2.63-3.71-1.3-6.4,1.3-3.01,4.25-2.97,5.53-2.98.84,0,1.06.15.85,1.66Z"/>
    <path class="cls-13" d="m444.66,771.84c0,.65-.36.74-1.5.74h-4.33c-1.13,0-1.5-.09-1.5-.74s.49-.73,1.75-.73,1.17.32,1.17-3.55.1-3.5-2-3.5c-.49,0-.92-.16-.92-.72s.2-.75.99-.75h5.35c.79,0,.99.2.99.75s-.43.72-.92.72c-2.1,0-2-.37-2,3.5s-.14,3.55,1.17,3.55,1.75.08,1.75.73Z"/>
    <path class="cls-13" d="m560.44,771.84c0,.65-.36.74-1.5.74h-4.33c-1.13,0-1.5-.09-1.5-.74s.49-.73,1.75-.73,1.17.32,1.17-3.55.1-3.5-2-3.5c-.49,0-.92-.16-.92-.72s.2-.75.99-.75h5.35c.79,0,.99.2.99.75s-.43.72-.92.72c-2.1,0-2-.37-2,3.5s-.14,3.55,1.17,3.55,1.75.08,1.75.73Z"/>
    <path class="cls-13" d="m568.89,771.84c0,.65-.36.74-1.5.74h-4.33c-1.13,0-1.5-.09-1.5-.74s.49-.73,1.75-.73,1.17.32,1.17-3.55.1-3.5-2-3.5c-.49,0-.92-.16-.92-.72s.2-.75.99-.75h5.35c.79,0,.99.2.99.75s-.43.72-.92.72c-2.1,0-2-.37-2,3.5s-.14,3.55,1.17,3.55,1.75.08,1.75.73Z"/>
    <path class="cls-13" d="m444.32,643.66v7.97c0,.82-.23.95-.84.95-.67,0-.75-.2-.75-.9,0-2.75.12-3.14-.89-3.17-.34-.02-1.3-.02-1.68,0-1.01.03-.89.42-.89,3.17,0,.7-.08.9-.75.9-.61,0-.84-.13-.84-.95v-7.97c0-.96.39-1.07.88-1.07s.71.2.71,1.04c0,2.76.11,3.25.76,3.25h1.94c.65,0,.76-.49.76-3.25,0-.84.22-1.04.71-1.04s.88.11.88,1.07Z"/>
    <path class="cls-13" d="m559.7,643.66v7.97c0,.82-.23.95-.84.95-.67,0-.75-.2-.75-.9,0-2.75.12-3.14-.89-3.17-.34-.02-1.3-.02-1.68,0-1.01.03-.89.42-.89,3.17,0,.7-.08.9-.75.9-.61,0-.84-.13-.84-.95v-7.97c0-.96.39-1.07.88-1.07s.71.2.71,1.04c0,2.76.11,3.25.76,3.25h1.94c.65,0,.76-.49.76-3.25,0-.84.22-1.04.71-1.04s.88.11.88,1.07Z"/>
    <path class="cls-13" d="m568.94,643.66v7.97c0,.82-.23.95-.84.95-.67,0-.75-.2-.75-.9,0-2.75.12-3.14-.89-3.17-.34-.02-1.3-.02-1.68,0-1.01.03-.89.42-.89,3.17,0,.7-.08.9-.75.9-.61,0-.84-.13-.84-.95v-7.97c0-.96.39-1.07.88-1.07s.71.2.71,1.04c0,2.76.11,3.25.76,3.25h1.94c.65,0,.76-.49.76-3.25,0-.84.22-1.04.71-1.04s.88.11.88,1.07Z"/>
    <g>
      <text class="cls-9" transform="translate(18.87 452.43)"><tspan x="0" y="0">1</tspan></text>
      <text class="cls-9" transform="translate(108.77 452.43)"><tspan x="0" y="0">2</tspan></text>
    </g>
    <g>
      <text class="cls-9" transform="translate(18.87 572.43)"><tspan x="0" y="0">1</tspan></text>
      <text class="cls-9" transform="translate(108.77 572.43)"><tspan x="0" y="0">2</tspan></text>
    </g>
    <g>
      <text class="cls-9" transform="translate(18.87 692.43)"><tspan x="0" y="0">1</tspan></text>
      <text class="cls-9" transform="translate(108.77 692.43)"><tspan x="0" y="0">2</tspan></text>
    </g>
    <g>
      <text class="cls-9" transform="translate(318.87 452.43)"><tspan x="0" y="0">1</tspan></text>
      <text class="cls-9" transform="translate(408.77 452.43)"><tspan x="0" y="0">2</tspan></text>
    </g>
    <g>
      <text class="cls-9" transform="translate(318.87 572.43)"><tspan x="0" y="0">1</tspan></text>
      <text class="cls-9" transform="translate(408.77 572.43)"><tspan x="0" y="0">2</tspan></text>
    </g>
    <g>
      <text class="cls-9" transform="translate(318.87 692.43)"><tspan x="0" y="0">1</tspan></text>
      <text class="cls-9" transform="translate(408.77 692.43)"><tspan x="0" y="0">2</tspan></text>
    </g>
    <g>
      <path class="cls-13" d="m591.08,722.81c3.23,0,3.23-5,0-5s-3.23,5,0,5h0Z"/>
      <path class="cls-13" d="m561,692.81c3.23,0,3.23-5,0-5s-3.23,5,0,5h0Z"/>
      <path class="cls-13" d="m530.92,722.81c3.23,0,3.23-5,0-5s-3.23,5,0,5h0Z"/>
      <path class="cls-13" d="m561,752.81c3.23,0,3.23-5,0-5s-3.23,5,0,5h0Z"/>
      <path class="cls-13" d="m561,721.44c1.45,0,1.45-2.25,0-2.25s-1.45,2.25,0,2.25h0Z"/>
    </g>
    <g>
      <path class="cls-13" d="m591.08,602.81c3.23,0,3.23-5,0-5s-3.23,5,0,5h0Z"/>
      <path class="cls-13" d="m561,572.81c3.23,0,3.23-5,0-5s-3.23,5,0,5h0Z"/>
      <path class="cls-13" d="m530.92,602.81c3.23,0,3.23-5,0-5s-3.23,5,0,5h0Z"/>
      <path class="cls-13" d="m561,632.81c3.23,0,3.23-5,0-5s-3.23,5,0,5h0Z"/>
      <path class="cls-13" d="m561,601.44c1.45,0,1.45-2.25,0-2.25s-1.45,2.25,0,2.25h0Z"/>
    </g>
    <g>
      <path class="cls-13" d="m591.08,482.81c3.23,0,3.23-5,0-5s-3.23,5,0,5h0Z"/>
      <path class="cls-13" d="m561,452.81c3.23,0,3.23-5,0-5s-3.23,5,0,5h0Z"/>
      <path class="cls-13" d="m530.92,482.81c3.23,0,3.23-5,0-5s-3.23,5,0,5h0Z"/>
      <path class="cls-13" d="m561,512.81c3.23,0,3.23-5,0-5s-3.23,5,0,5h0Z"/>
      <path class="cls-13" d="m561,481.44c1.45,0,1.45-2.25,0-2.25s-1.45,2.25,0,2.25h0Z"/>
    </g>
    <path class="cls-20" d="m359.58,445.31c11.89,0,22.68,9.57,22.72,21.38l2.41-2.65s1.11,1.01.54,1.85c-.65.95-3.93,4.08-3.93,4.08,0,0-3.32-2.66-4.21-3.8-.63-.81.43-1.89.43-1.89l2.78,2.61c-.03-8.93-7.32-18.79-20.74-19.5-1.57-.08-1.62-2.09,0-2.08Z"/>
    <path class="cls-14" d="m354.95,451.08c11.89,0,22.68,9.57,22.72,21.38l2.41-2.65s1.11,1.01.54,1.85c-.65.95-3.93,4.08-3.93,4.08,0,0-3.32-2.66-4.21-3.8-.63-.81.43-1.89.43-1.89l2.78,2.61c-.03-8.93-7.32-18.79-20.74-19.5-1.57-.08-1.62-2.09,0-2.08Z"/>
    <path class="cls-14" d="m352.92,479.85v5.76c0,.48.4.87.89.87s.89-.39.89-.87v-1.92h21.85c.48,0,.87-.38.87-.85v-.32c0-.46-.39-.85-.87-.85h-21.85v-1.82c0-.48-.4-.87-.89-.87s-.89.39-.89.87Z"/>
    <path class="cls-20" d="m352.92,475.01v5.76c0,.48.4.87.89.87s.89-.39.89-.87v-1.92h21.85c.48,0,.87-.38.87-.85v-.32c0-.46-.39-.85-.87-.85h-21.85v-1.82c0-.48-.4-.87-.89-.87s-.89.39-.89.87Z"/>
    <path class="cls-20" d="m476,488.89c0,11.89-9.57,22.68-21.38,22.72l2.65,2.41s-1.01,1.11-1.85.54c-.95-.65-4.08-3.93-4.08-3.93,0,0,2.66-3.32,3.8-4.21.81-.63,1.89.43,1.89.43l-2.61,2.78c8.93-.03,18.79-7.32,19.5-20.74.08-1.57,2.09-1.62,2.08,0Z"/>
    <path class="cls-20" d="m357.05,685.95c11.89,0,22.68,9.57,22.72,21.38l2.41-2.65s1.11,1.01.54,1.85c-.65.95-3.93,4.08-3.93,4.08,0,0-3.32-2.66-4.21-3.8-.63-.81.43-1.89.43-1.89l2.78,2.61c-.03-8.93-7.32-18.79-20.74-19.5-1.57-.08-1.62-2.09,0-2.08Z"/>
    <path class="cls-20" d="m475.31,726.08c0,11.89-9.57,22.68-21.38,22.72l2.65,2.41s-1.01,1.11-1.85.54c-.95-.65-4.08-3.93-4.08-3.93,0,0,2.66-3.32,3.8-4.21.81-.63,1.89.43,1.89.43l-2.61,2.78c8.93-.03,18.79-7.32,19.5-20.74.08-1.57,2.09-1.62,2.08,0Z"/>
    <path class="cls-14" d="m470.23,484.26c0,11.89-9.57,22.68-21.38,22.72l2.65,2.41s-1.01,1.11-1.85.54c-.95-.65-4.08-3.93-4.08-3.93,0,0,2.66-3.32,3.8-4.21.81-.63,1.89.43,1.89.43l-2.61,2.78c8.93-.03,18.79-7.32,19.5-20.74.08-1.57,2.09-1.62,2.08,0Z"/>
    <path class="cls-14" d="m441.46,482.23h-5.76c-.48,0-.87.4-.87.89s.39.89.87.89h1.92v21.85c0,.48.38.87.85.87h.32c.46,0,.85-.39.85-.87v-21.85h1.82c.48,0,.87-.4.87-.89,0-.49-.39-.89-.87-.89Z"/>
    <path class="cls-20" d="m446.31,482.23h-5.76c-.48,0-.87.4-.87.89s.39.89.87.89h1.92v21.85c0,.48.38.87.85.87h.32c.46,0,.85-.39.85-.87v-21.85h1.82c.48,0,.87-.4.87-.89,0-.49-.39-.89-.87-.89Z"/>
    <path class="cls-14" d="m561.46,482.23h-5.76c-.48,0-.87.4-.87.89,0,.49.39.89.87.89h1.92v21.85c0,.48.38.87.85.87h.32c.46,0,.85-.39.85-.87v-21.85h1.82c.48,0,.87-.4.87-.89,0-.49-.39-.89-.87-.89Z"/>
    <path class="cls-20" d="m566.31,482.23h-5.76c-.48,0-.87.4-.87.89,0,.49.39.89.87.89h1.92v21.85c0,.48.38.87.85.87h.32c.46,0,.85-.39.85-.87v-21.85h1.82c.48,0,.87-.4.87-.89s-.39-.89-.87-.89Z"/>
    <path class="cls-14" d="m377.42,605.62v-5.76c0-.48-.4-.87-.89-.87s-.89.39-.89.87v1.92h-21.85c-.48,0-.87.38-.87.85v.32c0,.46.39.85.87.85h21.85v1.82c0,.48.4.87.89.87s.89-.39.89-.87Z"/>
    <path class="cls-20" d="m377.42,600.77v-5.76c0-.48-.4-.87-.89-.87-.49,0-.89.39-.89.87v1.92h-21.85c-.48,0-.87.38-.87.85v.32c0,.46.39.85.87.85h21.85v1.82c0,.48.4.87.89.87s.89-.39.89-.87Z"/>
    <path class="cls-14" d="m441.46,602.23h-5.76c-.48,0-.87.4-.87.89s.39.89.87.89h1.92v21.85c0,.48.38.87.85.87h.32c.46,0,.85-.39.85-.87v-21.85h1.82c.48,0,.87-.4.87-.89,0-.49-.39-.89-.87-.89Z"/>
    <path class="cls-20" d="m446.31,602.23h-5.76c-.48,0-.87.4-.87.89s.39.89.87.89h1.92v21.85c0,.48.38.87.85.87h.32c.46,0,.85-.39.85-.87v-21.85h1.82c.48,0,.87-.4.87-.89,0-.49-.39-.89-.87-.89Z"/>
    <path class="cls-14" d="m561.46,602.23h-5.76c-.48,0-.87.4-.87.89,0,.49.39.89.87.89h1.92v21.85c0,.48.38.87.85.87h.32c.46,0,.85-.39.85-.87v-21.85h1.82c.48,0,.87-.4.87-.89,0-.49-.39-.89-.87-.89Z"/>
    <path class="cls-20" d="m566.31,602.23h-5.76c-.48,0-.87.4-.87.89,0,.49.39.89.87.89h1.92v21.85c0,.48.38.87.85.87h.32c.46,0,.85-.39.85-.87v-21.85h1.82c.48,0,.87-.4.87-.89s-.39-.89-.87-.89Z"/>
    <path class="cls-14" d="m377.42,725.62v-5.76c0-.48-.4-.87-.89-.87s-.89.39-.89.87v1.92h-21.85c-.48,0-.87.38-.87.85v.32c0,.46.39.85.87.85h21.85v1.82c0,.48.4.87.89.87s.89-.39.89-.87Z"/>
    <path class="cls-20" d="m352.92,715.01v5.76c0,.48.4.87.89.87s.89-.39.89-.87v-1.92h21.85c.48,0,.87-.38.87-.85v-.32c0-.46-.39-.85-.87-.85h-21.85v-1.82c0-.48-.4-.87-.89-.87s-.89.39-.89.87Z"/>
    <path class="cls-14" d="m441.46,722.23h-5.76c-.48,0-.87.4-.87.89s.39.89.87.89h1.92v21.85c0,.48.38.87.85.87h.32c.46,0,.85-.39.85-.87v-21.85h1.82c.48,0,.87-.4.87-.89,0-.49-.39-.89-.87-.89Z"/>
    <path class="cls-20" d="m446.31,722.23h-5.76c-.48,0-.87.4-.87.89s.39.89.87.89h1.92v21.85c0,.48.38.87.85.87h.32c.46,0,.85-.39.85-.87v-21.85h1.82c.48,0,.87-.4.87-.89,0-.49-.39-.89-.87-.89Z"/>
    <path class="cls-14" d="m561.46,722.23h-5.76c-.48,0-.87.4-.87.89,0,.49.39.89.87.89h1.92v21.85c0,.48.38.87.85.87h.32c.46,0,.85-.39.85-.87v-21.85h1.82c.48,0,.87-.4.87-.89,0-.49-.39-.89-.87-.89Z"/>
    <path class="cls-20" d="m566.31,722.23h-5.76c-.48,0-.87.4-.87.89,0,.49.39.89.87.89h1.92v21.85c0,.48.38.87.85.87h.32c.46,0,.85-.39.85-.87v-21.85h1.82c.48,0,.87-.4.87-.89s-.39-.89-.87-.89Z"/>
    <path class="cls-20" d="m266.81,744.65l2.64-2.65s-1.05-1.08-1.87-.47c-.94.68-3.95,4.06-3.95,4.06,0,0,2.77,3.23,3.95,4.09.82.59,1.87-.5,1.87-.5l-2.64-2.61c32.86,0,32.43-52.45-1.76-52.45-1.92,0-1.86,2.24,0,2.23,31.49-.1,31.03,48.2,1.76,48.3Z"/>
    <g>
      <path class="cls-13" d="m291.08,482.81c3.23,0,3.23-5,0-5s-3.23,5,0,5h0Z"/>
      <path class="cls-13" d="m261,452.81c3.23,0,3.23-5,0-5s-3.23,5,0,5h0Z"/>
      <path class="cls-13" d="m230.92,482.81c3.23,0,3.23-5,0-5s-3.23,5,0,5h0Z"/>
      <path class="cls-13" d="m261,512.81c3.23,0,3.23-5,0-5s-3.23,5,0,5h0Z"/>
      <path class="cls-13" d="m261,481.44c1.45,0,1.45-2.25,0-2.25s-1.45,2.25,0,2.25h0Z"/>
    </g>
    <g>
      <path class="cls-13" d="m291.08,602.81c3.23,0,3.23-5,0-5s-3.23,5,0,5h0Z"/>
      <path class="cls-13" d="m261,572.81c3.23,0,3.23-5,0-5s-3.23,5,0,5h0Z"/>
      <path class="cls-13" d="m230.92,602.81c3.23,0,3.23-5,0-5s-3.23,5,0,5h0Z"/>
      <path class="cls-13" d="m261,632.81c3.23,0,3.23-5,0-5s-3.23,5,0,5h0Z"/>
      <path class="cls-13" d="m261,601.44c1.45,0,1.45-2.25,0-2.25s-1.45,2.25,0,2.25h0Z"/>
    </g>
    <g>
      <path class="cls-13" d="m291.08,722.81c3.23,0,3.23-5,0-5s-3.23,5,0,5h0Z"/>
      <path class="cls-13" d="m261,692.81c3.23,0,3.23-5,0-5s-3.23,5,0,5h0Z"/>
      <path class="cls-13" d="m230.92,722.81c3.23,0,3.23-5,0-5s-3.23,5,0,5h0Z"/>
      <path class="cls-13" d="m261,752.81c3.23,0,3.23-5,0-5s-3.23,5,0,5h0Z"/>
      <path class="cls-13" d="m261,721.44c1.45,0,1.45-2.25,0-2.25s-1.45,2.25,0,2.25h0Z"/>
    </g>
    <path class="cls-14" d="m258.12,477.89h5.76c.48,0,.87-.4.87-.89,0-.49-.39-.89-.87-.89h-1.92v-21.85c0-.48-.38-.87-.85-.87h-.32c-.46,0-.85.39-.85.87v21.85h-1.82c-.48,0-.87.4-.87.89s.39.89.87.89Z"/>
    <path class="cls-20" d="m263.88,482.73h-5.76c-.48,0-.87.4-.87.89,0,.49.39.89.87.89h1.92v21.85c0,.48.38.87.85.87h.32c.46,0,.85-.39.85-.87v-21.85h1.82c.48,0,.87-.4.87-.89s-.39-.89-.87-.89Z"/>
    <path class="cls-20" d="m263.88,722.73h-5.76c-.48,0-.87.4-.87.89,0,.49.39.89.87.89h1.92v21.85c0,.48.38.87.85.87h.32c.46,0,.85-.39.85-.87v-21.85h1.82c.48,0,.87-.4.87-.89s-.39-.89-.87-.89Z"/>
    <path class="cls-14" d="m258.12,597.89h5.76c.48,0,.87-.4.87-.89,0-.49-.39-.89-.87-.89h-1.92v-21.85c0-.48-.38-.87-.85-.87h-.32c-.46,0-.85.39-.85.87v21.85h-1.82c-.48,0-.87.4-.87.89s.39.89.87.89Z"/>
    <path class="cls-20" d="m263.88,602.4h-5.76c-.48,0-.87.4-.87.89,0,.49.39.89.87.89h1.92v21.85c0,.48.38.87.85.87h.32c.46,0,.85-.39.85-.87v-21.85h1.82c.48,0,.87-.4.87-.89s-.39-.89-.87-.89Z"/>
    <path class="cls-13" d="m257.38,647.45c4.39-1.93.8-6.48-3.28-4.27-.04.02-.07.06-.07.1-.38,2.63-.16,6.19.2,8.71.02.13.12.23.24.27,6.22,1.71,7.68-3.78,2.91-4.81Zm.65-2.47c0,1.13-1.98,1.51-2.74,1.51-.13-.26-.02-2.43.07-2.53.9-.25,2.67.04,2.67,1.02Zm-2.38,6.17c-.17-1.1-.2-1.41-.14-2.54.47-.06,3.32-.1,3.29,1.38-.03,1.15-2.44,1.38-3.15,1.16Z"/>
    <path class="cls-13" d="m265.34,647.45c4.39-1.93.8-6.48-3.28-4.27-.04.02-.07.06-.07.1-.38,2.63-.16,6.19.2,8.71.02.13.12.23.24.27,6.22,1.71,7.68-3.78,2.91-4.81Zm.65-2.47c0,1.13-1.98,1.51-2.74,1.51-.13-.26-.02-2.43.07-2.53.9-.25,2.67.04,2.67,1.02Zm-2.38,6.17c-.17-1.1-.2-1.41-.14-2.54.47-.06,3.32-.1,3.29,1.38-.03,1.15-2.44,1.38-3.15,1.16Z"/>
    <path class="cls-13" d="m260.43,770.35c.42.55-.07,1.12-.5,1.33-9.15,4.54-8.83-9.42-3.27-9.09,1.07.06,2.05.85,2.39,1.26.25.29.44.81.12,1.16-.34.36-.8.24-1.02,0-4.33-4.56-6.65,9.06,1.11,5.25.45-.22.79-.4,1.16.09Z"/>
    <path class="cls-13" d="m269.11,770.35c.42.55-.07,1.12-.5,1.33-9.15,4.54-8.83-9.42-3.27-9.09,1.07.06,2.05.85,2.39,1.26.25.29.44.81.12,1.16-.34.36-.8.24-1.02,0-4.33-4.56-6.65,9.06,1.11,5.25.45-.22.79-.4,1.16.09Z"/>
    <path class="cls-13" d="m260.13,531.6c-.87-2.99-2.3-6.84-2.48-7.31-.18-.46-.77-1.7-1.18-1.7s-1,1.24-1.18,1.7c-.18.47-1.61,4.32-2.48,7.31-.24.84.06.91.18.94,1.61.21,1.32-.3,1.57-1.4.23-1,.22-1.46,1-1.46.38,0,.56.01.91.01s.54-.01.91-.01c.78,0,.77.46,1,1.46.25,1.1-.04,1.61,1.57,1.4.12-.03.42-.1.18-.94Zm-2.91-3.37h-1.51c-.14,0-.23-.07-.19-.23l.94-3.44.94,3.44c.04.16-.05.23-.19.23Z"/>
    <path class="cls-13" d="m269.19,531.6c-.87-2.99-2.3-6.84-2.48-7.31-.18-.46-.77-1.7-1.18-1.7s-1,1.24-1.18,1.7c-.18.47-1.61,4.32-2.48,7.31-.24.84.06.91.18.94,1.61.21,1.32-.3,1.57-1.4.23-1,.22-1.46,1-1.46.38,0,.56.01.91.01s.54-.01.91-.01c.78,0,.77.46,1,1.46.25,1.1-.04,1.61,1.57,1.4.12-.03.42-.1.18-.94Zm-2.91-3.37h-1.51c-.14,0-.23-.07-.19-.23l.94-3.44.94,3.44c.04.16-.05.23-.19.23Z"/>
    <path class="cls-14" d="m254.67,621.7c0-11.31-.78-19.27-10.07-21.63,9.43-2.98,9.84-8.29,9.84-18.89l2.94,2.9s1.17-1.11.53-1.98c-.92-1.26-4.36-4.22-4.36-4.22,0,0-3.6,3.22-4.33,4.22-.65.87.5,1.98.5,1.98l2.84-2.9c.52,14.59-3.9,17.75-17.62,17.75-1.4,0-1.38,2.61,0,2.61,13.61,0,17.43,2.18,17.43,20.17,0,1.42,2.31,1.39,2.31,0Z"/>
    <path class="cls-20" d="m267.33,578.92c0,11.31.78,19.27,10.07,21.63-9.43,2.98-9.84,8.29-9.84,18.89l-2.94-2.9s-1.17,1.11-.53,1.98c.92,1.26,4.36,4.22,4.36,4.22,0,0,3.6-3.22,4.33-4.22.65-.87-.5-1.98-.5-1.98l-2.84,2.9c-.52-14.59,3.9-17.75,17.62-17.75,1.4,0,1.38-2.61,0-2.61-13.61,0-17.43-2.18-17.43-20.17,0-1.42-2.31-1.39-2.31,0Z"/>
    <path class="cls-20" d="m569.06,582.86c0,11.31.78,19.27,10.07,21.63-9.43,2.98-9.84,8.29-9.84,18.89l-2.94-2.9s-1.17,1.11-.53,1.98c.92,1.26,4.36,4.22,4.36,4.22,0,0,3.6-3.22,4.33-4.22.65-.87-.5-1.98-.5-1.98l-2.84,2.9c-.52-14.59,3.9-17.75,17.62-17.75,1.4,0,1.38-2.61,0-2.61-13.61,0-17.43-2.18-17.43-20.17,0-1.42-2.31-1.39-2.31,0Z"/>
    <path class="cls-14" d="m569.06,576.42c0,11.31.78,19.27,10.07,21.63-9.43,2.98-9.84,8.29-9.84,18.89l-2.94-2.9s-1.17,1.11-.53,1.98c.92,1.26,4.36,4.22,4.36,4.22,0,0,3.6-3.22,4.33-4.22.65-.87-.5-1.98-.5-1.98l-2.84,2.9c-.52-14.59,3.9-17.75,17.62-17.75,1.4,0,1.38-2.61,0-2.61-13.61,0-17.43-2.18-17.43-20.17,0-1.42-2.31-1.39-2.31,0Z"/>
    <path class="cls-14" d="m568.65,697.78c0,11.31.78,19.27,10.07,21.63-9.43,2.98-9.84,8.29-9.84,18.89l-2.94-2.9s-1.17,1.11-.53,1.98c.92,1.26,4.36,4.22,4.36,4.22,0,0,3.6-3.22,4.33-4.22.65-.87-.5-1.98-.5-1.98l-2.84,2.9c-.52-14.59,3.9-17.75,17.62-17.75,1.4,0,1.38-2.61,0-2.61-13.61,0-17.43-2.18-17.43-20.17,0-1.42-2.31-1.39-2.31,0Z"/>
    <path class="cls-14" d="m258.12,717.89h5.76c.48,0,.87-.4.87-.89,0-.49-.39-.89-.87-.89h-1.92v-21.85c0-.48-.38-.87-.85-.87h-.32c-.46,0-.85.39-.85.87v21.85h-1.82c-.48,0-.87.4-.87.89s.39.89.87.89Z"/>
    <path class="cls-14" d="m254.67,741.7c0-11.31-.78-19.27-10.07-21.63,9.43-2.98,9.84-8.29,9.84-18.89l2.94,2.9s1.17-1.11.53-1.98c-.92-1.26-4.36-4.22-4.36-4.22,0,0-3.6,3.22-4.33,4.22-.65.87.5,1.98.5,1.98l2.84-2.9c.52,14.59-3.9,17.75-17.62,17.75-1.4,0-1.38,2.61,0,2.61,13.61,0,17.43,2.18,17.43,20.17,0,1.42,2.31,1.39,2.31,0Z"/>
    <rect class="cls-13" x="191.3" y="595.11" width="21.88" height="3.19"/>
    <rect class="cls-13" x="191.3" y="602.32" width="21.88" height="3.19"/>
    <rect class="cls-13" x="191.3" y="475.11" width="21.88" height="3.19"/>
    <rect class="cls-13" x="191.3" y="482.32" width="21.88" height="3.19"/>
    <rect class="cls-13" x="191.3" y="715.11" width="21.88" height="3.19"/>
    <rect class="cls-13" x="191.3" y="722.32" width="21.88" height="3.19"/>
    <rect class="cls-13" x="491.3" y="475.11" width="21.88" height="3.19"/>
    <rect class="cls-13" x="491.3" y="482.32" width="21.88" height="3.19"/>
    <rect class="cls-13" x="491.3" y="595.11" width="21.88" height="3.19"/>
    <rect class="cls-13" x="491.3" y="602.32" width="21.88" height="3.19"/>
    <rect class="cls-13" x="491.3" y="715.11" width="21.88" height="3.19"/>
    <rect class="cls-13" x="491.3" y="722.32" width="21.88" height="3.19"/>
    <path class="cls-14" d="m354.93,569.75c0,19.4,1.3,21.27,20.15,21.27l-2.72,2.66s1.04,1.1,1.87.5c1.18-.85,3.95-4.08,3.95-4.08,0,0-3.01-3.38-3.95-4.07-.82-.6-1.87.48-1.87.48l2.72,2.56c-17.27,0-18.08-1-18.08-19.29,0-1.51-2.07-1.51-2.07-.03Z"/>
    <path class="cls-14" d="m354.66,690.85c0,19.4,1.3,21.27,20.15,21.27l-2.72,2.66s1.04,1.1,1.87.5c1.18-.85,3.95-4.08,3.95-4.08,0,0-3.01-3.38-3.95-4.07-.82-.6-1.87.48-1.87.48l2.72,2.56c-17.27,0-18.08-1-18.08-19.29,0-1.51-2.07-1.51-2.07-.03Z"/>
    <path class="cls-14" d="m470.05,723.93c-19.4,0-21.27,1.3-21.27,20.15l-2.66-2.72s-1.1,1.04-.5,1.87c.85,1.18,4.08,3.95,4.08,3.95,0,0,3.38-3.01,4.07-3.95.6-.82-.48-1.87-.48-1.87l-2.56,2.72c0-17.27,1-18.08,19.29-18.08,1.51,0,1.51-2.07.03-2.07Z"/>
    <path class="cls-20" d="m360.41,564.27c0,19.4,1.3,21.27,20.15,21.27l-2.72,2.66s1.04,1.1,1.87.5c1.18-.85,3.95-4.08,3.95-4.08,0,0-3.01-3.38-3.95-4.07-.82-.6-1.87.48-1.87.48l2.72,2.56c-17.27,0-18.08-1-18.08-19.29,0-1.51-2.07-1.51-2.07-.03Z"/>
    <path class="cls-14" d="m471.56,604.24c-19.4,0-21.27,1.3-21.27,20.15l-2.66-2.72s-1.1,1.04-.5,1.87c.85,1.18,4.08,3.95,4.08,3.95,0,0,3.38-3.01,4.07-3.95.6-.82-.48-1.87-.48-1.87l-2.56,2.72c0-17.27,1-18.08,19.29-18.08,1.51,0,1.51-2.07.03-2.07Z"/>
    <path class="cls-20" d="m477.04,609.72c-19.4,0-21.27,1.3-21.27,20.15l-2.66-2.72s-1.1,1.04-.5,1.87c.85,1.18,4.08,3.95,4.08,3.95,0,0,3.38-3.01,4.07-3.95.6-.82-.48-1.87-.48-1.87l-2.56,2.72c0-17.27,1-18.08,19.29-18.08,1.51,0,1.51-2.07.03-2.07Z"/>
    <line class="cls-2" x1="18.5" y1="667.27" x2="593.5" y2="667.27"/>
    <line class="cls-2" x1="18.5" y1="547.27" x2="593.5" y2="547.27"/>
    <line class="cls-3" x1="306" y1="464.05" x2="306" y2="748.96"/>
  </g>
  <path class="cls-14" d="m168.03,11.78c0,13.57-.94,23.13-12.08,25.96,11.31,3.58,11.8,9.94,11.8,22.67l3.53-3.48s1.41,1.33.64,2.38c-1.1,1.51-5.24,5.07-5.24,5.07,0,0-4.31-3.87-5.2-5.07-.78-1.05.6-2.38.6-2.38l3.41,3.48c.62-17.51-4.68-21.3-21.15-21.3-1.68,0-1.66-3.13,0-3.13,16.33,0,20.91-2.61,20.91-24.2,0-1.71,2.77-1.67,2.77,0Z"/>
  <path class="cls-20" d="m457.71,64.64l3.17-3.18s-1.26-1.3-2.24-.56c-1.13.82-4.74,4.87-4.74,4.87,0,0,3.32,3.88,4.74,4.91.98.71,2.24-.6,2.24-.6l-3.17-3.13c39.43,0,38.92-62.94-2.12-62.94-2.3,0-2.23,2.68,0,2.68,37.79-.12,37.24,57.84,2.11,57.96Z"/>
  <polygon class="cls-26" points="86.72 479.22 98.54 479.22 98.54 475.42 104.8 480.31 98.54 485.2 98.54 481.4 86.72 481.4 86.72 479.22"/>
  <polygon class="cls-26" points="86.72 599.22 98.54 599.22 98.54 595.42 104.8 600.31 98.54 605.2 98.54 601.4 86.72 601.4 86.72 599.22"/>
  <polygon class="cls-26" points="86.72 719.22 98.54 719.22 98.54 715.42 104.8 720.31 98.54 725.2 98.54 721.4 86.72 721.4 86.72 719.22"/>
  <polygon class="cls-26" points="386.94 479.22 398.77 479.22 398.77 475.42 405.02 480.31 398.77 485.2 398.77 481.4 386.94 481.4 386.94 479.22"/>
  <polygon class="cls-26" points="386.94 599.22 398.77 599.22 398.77 595.42 405.02 600.31 398.77 605.2 398.77 601.4 386.94 601.4 386.94 599.22"/>
  <polygon class="cls-26" points="386.94 719.22 398.77 719.22 398.77 715.42 405.02 720.31 398.77 725.2 398.77 721.4 386.94 721.4 386.94 719.22"/>
</svg>