<?xml version="1.0" encoding="UTF-8"?>
<svg id="Layer_1" data-name="Layer 1" xmlns="http://www.w3.org/2000/svg" viewBox="0 0 612 792">
  <defs>
    <style>
      .cls-1 {
        fill: none;
        stroke: #231f20;
        stroke-miterlimit: 10;
      }

      .cls-2, .cls-3, .cls-4, .cls-5, .cls-6, .cls-7, .cls-8, .cls-9, .cls-10, .cls-11 {
        fill: #231f20;
      }

      .cls-2, .cls-12, .cls-5, .cls-6, .cls-7, .cls-8, .cls-13, .cls-10 {
        font-family: Cambria, Cambria;
      }

      .cls-2, .cls-14 {
        letter-spacing: -.01em;
      }

      .cls-15, .cls-10 {
        letter-spacing: -.01em;
      }

      .cls-16 {
        letter-spacing: 0em;
      }

      .cls-17, .cls-18, .cls-19 {
        font-family: Cambria-Bold, Cambria;
        font-weight: 700;
      }

      .cls-17, .cls-20, .cls-19 {
        fill: #ed1c24;
      }

      .cls-3 {
        font-size: 27px;
      }

      .cls-3, .cls-4 {
        font-family: MonotypeCorsiva, 'Monotype Corsiva';
      }

      .cls-21 {
        letter-spacing: 0em;
      }

      .cls-22, .cls-23, .cls-24 {
        font-family: Cambria-Italic, Cambria;
        font-style: italic;
      }

      .cls-22, .cls-24 {
        font-size: 16.8px;
      }

      .cls-12 {
        font-size: 15.5px;
      }

      .cls-25 {
        letter-spacing: 2.94em;
      }

      .cls-4 {
        font-size: 45px;
      }

      .cls-26 {
        letter-spacing: 0em;
      }

      .cls-18 {
        fill: #21409a;
      }

      .cls-27 {
        fill: #2e3192;
      }

      .cls-28 {
        letter-spacing: -.01em;
      }

      .cls-29 {
        letter-spacing: -.08em;
      }

      .cls-6, .cls-30 {
        letter-spacing: 0em;
      }

      .cls-31 {
        letter-spacing: 0em;
      }

      .cls-32 {
        letter-spacing: 0em;
      }

      .cls-7 {
        letter-spacing: -.02em;
      }

      .cls-33 {
        letter-spacing: -.01em;
      }

      .cls-8 {
        letter-spacing: -.01em;
      }

      .cls-24 {
        letter-spacing: 0em;
      }

      .cls-9, .cls-34 {
        font-size: 15px;
      }

      .cls-35, .cls-19 {
        letter-spacing: 0em;
      }

      .cls-36 {
        letter-spacing: -.01em;
      }

      .cls-37 {
        letter-spacing: -.02em;
      }

      .cls-38 {
        letter-spacing: 0em;
      }

      .cls-39 {
        letter-spacing: 0em;
      }

      .cls-40 {
        letter-spacing: 0em;
      }

      .cls-41 {
        letter-spacing: -.01em;
      }

      .cls-42 {
        letter-spacing: -.02em;
      }

      .cls-43 {
        letter-spacing: -.02em;
      }

      .cls-44 {
        letter-spacing: 0em;
      }

      .cls-45 {
        letter-spacing: -.02em;
      }
    </style>
  </defs>
  <text/>
  <line class="cls-1" x1="309.88" y1="246.26" x2="309.88" y2="358.11"/>
  <line class="cls-1" x1="307.45" y1="675.21" x2="307.45" y2="787.06"/>
  <line class="cls-1" x1="307.45" y1="467.5" x2="307.45" y2="579.35"/>
  <text class="cls-3" transform="translate(8.26 185.24)"><tspan x="0" y="0">Full-verse</tspan></text>
  <g>
    <path class="cls-11" d="m124.49,207.38l-2.34,8.18h-1.19l-2.13-7.95c-.09-.33-.17-.6-.24-.81s-.15-.37-.22-.49-.15-.21-.24-.27c-.09-.06-.21-.11-.37-.16v-.36h3.13v.36c-.3.06-.51.15-.63.26s-.18.28-.18.49c0,.17.02.37.07.61s.1.5.18.8l1.47,5.79,2.36-8.31h1.23l1.91,8.31,1.73-5.59c.21-.68.31-1.16.31-1.45s-.06-.51-.19-.64c-.12-.13-.33-.22-.62-.27v-.36h2.89v.36c-.15.05-.26.1-.35.17s-.17.14-.25.25c-.08.1-.17.27-.26.49-.09.22-.21.52-.33.89l-2.67,7.9h-1.05l-2.02-8.18Z"/>
    <path class="cls-11" d="m132.13,215.15c.19-.06.33-.11.41-.15.08-.04.15-.1.21-.18.06-.08.1-.2.13-.36.03-.16.05-.41.05-.75v-3.19c0-.31,0-.56-.01-.75s-.04-.34-.1-.46-.15-.2-.27-.26c-.12-.06-.29-.1-.51-.14v-.39l1.71-.07h.45v5.24c0,.42.02.71.06.88s.11.29.22.37c.11.09.29.16.54.22v.36h-2.87v-.36Zm2.09-9.51v1.42h-1.35v-1.42h1.35Z"/>
    <path class="cls-11" d="m135.86,208.88c.24-.04.44-.11.59-.21s.27-.22.36-.38c.08-.15.15-.35.2-.58s.1-.57.15-1.01h1.04v1.81h2.37v.74h-2.37v3.26c0,.47.02.85.06,1.13s.11.5.22.66.23.27.37.34.31.1.53.1c.2,0,.38-.04.55-.12s.34-.2.51-.35l.33.4c-.35.34-.68.58-.99.73s-.63.23-.96.23c-.63,0-1.1-.19-1.41-.56s-.46-.96-.46-1.75v-4.06h-1.08v-.37Z"/>
    <path class="cls-11" d="m143.34,209.66h.03c.38-.38.68-.65.9-.8.22-.15.44-.27.66-.35.22-.08.45-.12.7-.12.27,0,.51.03.72.1s.39.16.55.29.29.29.39.48c.1.19.17.41.22.67s.07.59.07.99v2.76c0,.42.02.71.06.87.04.15.1.27.2.36.1.09.29.17.58.25v.36h-2.89v-.36c.19-.06.33-.11.41-.15s.15-.1.21-.18c.06-.08.1-.2.13-.36.03-.16.05-.41.05-.74v-1.92c0-.65-.03-1.15-.1-1.49-.07-.34-.2-.6-.39-.77-.19-.17-.46-.26-.81-.26-.2,0-.37.03-.53.1s-.34.19-.54.37-.36.36-.46.54c-.11.19-.16.38-.16.59v2.81c0,.33,0,.57.03.71.02.14.05.26.1.36s.12.17.22.23c.1.06.25.12.46.17v.36h-2.9v-.36c.21-.06.37-.11.46-.17s.16-.12.22-.21c.05-.08.09-.2.11-.36s.04-.4.04-.74v-6.13c0-.47,0-.8-.01-.98,0-.19-.03-.34-.06-.47s-.08-.23-.13-.3-.13-.13-.23-.18c-.1-.04-.27-.09-.52-.13v-.38l1.77-.07h.44v4.63Z"/>
    <path class="cls-11" d="m157.19,214.47l-.11-.03c-.42.43-.82.74-1.2.92-.37.18-.77.27-1.19.27-.37,0-.7-.07-.98-.22s-.5-.35-.65-.61-.23-.56-.23-.9c0-.71.35-1.26,1.06-1.65.71-.39,1.76-.61,3.17-.68v-.48c0-.51-.05-.91-.15-1.2s-.25-.51-.46-.64-.49-.21-.84-.21c-.38,0-.69.1-.92.3-.23.2-.41.5-.52.9h-.96v-.95c.47-.24.86-.42,1.17-.54s.62-.21.94-.27.63-.1.95-.1c.48,0,.87.08,1.16.23s.51.39.66.71.22.8.22,1.44v2.55c0,.36,0,.62,0,.77s.02.29.04.41.06.23.11.3.12.14.22.19c.09.05.25.11.46.17v.36h-2.01l.04-1.05Zm-.12-2.29c-.99,0-1.73.14-2.23.4s-.74.64-.74,1.15c0,.28.06.5.17.66s.25.27.42.33.37.09.61.09c.33,0,.63-.08.9-.24.27-.16.48-.37.63-.62s.23-.5.23-.74v-1.03Z"/>
    <path class="cls-11" d="m167.35,209.25h-1.75v4.43c0,.33.02.57.05.74.03.17.08.29.14.38s.14.15.24.21c.1.05.26.1.48.15v.36h-3v-.36c.21-.06.37-.11.46-.17s.17-.12.22-.21c.05-.08.09-.2.11-.36s.04-.4.04-.74v-4.43h-.89v-.37c.19-.03.31-.05.37-.07s.12-.04.18-.08.1-.08.15-.15.08-.16.11-.28c.03-.12.06-.3.08-.52.04-.53.14-.96.29-1.3.15-.33.37-.62.65-.85.29-.23.59-.4.92-.49.32-.1.71-.14,1.15-.14.39,0,.71.03.98.08v1.33h-.73c-.09-.29-.2-.49-.33-.61-.12-.12-.3-.18-.52-.18-.16,0-.3.02-.41.07-.11.04-.21.11-.3.21s-.17.22-.24.37c-.07.16-.12.35-.15.58-.03.23-.05.53-.05.9v.77h1.75v.74Z"/>
    <path class="cls-11" d="m167.95,208.51h2.09v3.73c0,.57.02,1.01.07,1.3s.11.52.2.67.21.28.37.38.38.15.67.15c.19,0,.36-.04.53-.11s.36-.2.57-.38.36-.37.45-.55c.09-.18.14-.39.14-.63v-2.75c0-.28,0-.49-.02-.63s-.04-.25-.07-.34-.07-.16-.12-.21-.11-.1-.2-.15c-.09-.04-.22-.09-.41-.14v-.36h2.09v5c0,.38,0,.65.02.81s.05.3.1.4.12.18.23.24.29.12.55.17v.38l-1.68.07h-.45l.04-1.2-.11-.03c-.41.44-.79.76-1.16.97s-.74.31-1.11.31c-.44,0-.81-.09-1.1-.26s-.5-.44-.64-.79-.21-.84-.21-1.48v-2.77c0-.41-.02-.69-.05-.85-.03-.15-.09-.28-.18-.37s-.29-.17-.59-.25v-.36Z"/>
    <path class="cls-11" d="m178.36,213.68c0,.42.02.71.06.88s.11.29.22.37c.11.09.29.16.54.22v.36h-2.91v-.36c.24-.06.41-.13.51-.2.09-.07.16-.15.21-.25.04-.1.07-.22.09-.39.02-.16.03-.38.03-.64v-6.13c0-.47,0-.8-.01-.98,0-.19-.03-.34-.06-.47-.03-.13-.08-.23-.13-.3-.06-.07-.13-.13-.23-.18-.09-.04-.27-.09-.52-.13v-.38l1.77-.07h.44v8.65Z"/>
    <path class="cls-11" d="m182.43,213.68c0,.42.02.71.06.88s.11.29.22.37c.11.09.29.16.54.22v.36h-2.91v-.36c.24-.06.41-.13.51-.2.09-.07.16-.15.21-.25.04-.1.07-.22.09-.39.02-.16.03-.38.03-.64v-6.13c0-.47,0-.8-.01-.98,0-.19-.03-.34-.06-.47-.03-.13-.08-.23-.13-.3-.06-.07-.13-.13-.23-.18-.09-.04-.27-.09-.52-.13v-.38l1.77-.07h.44v8.65Z"/>
    <path class="cls-11" d="m188.03,212.22h-3.4v-1.14h3.4v1.14Z"/>
    <path class="cls-11" d="m191.51,209.73l.1.02c.27-.33.52-.58.75-.77s.48-.33.74-.44c.27-.1.57-.15.9-.15.28,0,.54.01.77.04v1.68h-.83c-.12-.26-.24-.46-.37-.57s-.31-.18-.54-.18c-.18,0-.35.05-.52.15s-.34.25-.5.45-.27.38-.33.55-.09.37-.09.61v2.56c0,.44.03.75.08.92s.14.29.27.37c.12.08.31.14.56.18v.36h-2.95v-.36c.19-.06.32-.11.4-.15.08-.04.15-.1.21-.18s.1-.2.13-.36.04-.41.04-.75v-3.19c0-.31,0-.56-.01-.75s-.04-.34-.1-.46-.15-.2-.27-.26c-.12-.06-.29-.1-.51-.14v-.38l1.71-.07h.45l-.08,1.28Z"/>
    <path class="cls-11" d="m201.37,214.27c-.31.33-.6.58-.86.77-.26.19-.55.33-.86.44s-.66.16-1.03.16c-1.01,0-1.77-.3-2.28-.9s-.77-1.49-.77-2.67c0-.73.13-1.37.39-1.93s.63-.99,1.12-1.29,1.04-.45,1.67-.45c.49,0,.91.08,1.26.23s.62.37.83.64.37.61.48,1.03.18.95.19,1.61h-4.61v.13c0,.58.06,1.06.19,1.45.13.39.34.7.64.92s.68.33,1.15.33c.4,0,.76-.07,1.08-.22.32-.15.64-.39.96-.73l.45.48Zm-1.23-2.97c-.03-.53-.1-.96-.2-1.29s-.26-.59-.46-.77-.47-.27-.81-.27c-.5,0-.9.2-1.21.6-.3.4-.48.98-.53,1.72h3.2Z"/>
    <path class="cls-11" d="m205.1,208.51v.36c-.22.05-.38.1-.48.15s-.16.11-.21.19-.07.18-.07.31.02.27.05.41c.03.14.08.31.15.5l1.27,3.71,1.49-3.55c.1-.23.17-.43.21-.58s.06-.29.06-.42c0-.21-.06-.36-.16-.47-.11-.11-.31-.19-.6-.26v-.36h2.74v.36c-.19.04-.34.1-.44.18s-.21.21-.31.38-.22.42-.37.73l-2.47,5.43h-.86l-1.98-5.47c-.14-.38-.25-.63-.33-.77-.08-.14-.17-.24-.26-.31-.09-.07-.23-.12-.41-.16v-.36h2.99Z"/>
    <path class="cls-11" d="m215.8,214.27c-.31.33-.6.58-.86.77-.26.19-.55.33-.86.44s-.66.16-1.03.16c-1.01,0-1.77-.3-2.28-.9s-.77-1.49-.77-2.67c0-.73.13-1.37.39-1.93s.63-.99,1.12-1.29,1.04-.45,1.67-.45c.49,0,.91.08,1.26.23s.62.37.83.64.37.61.48,1.03.18.95.19,1.61h-4.61v.13c0,.58.06,1.06.19,1.45.13.39.34.7.64.92s.68.33,1.15.33c.4,0,.76-.07,1.08-.22.32-.15.64-.39.96-.73l.45.48Zm-1.23-2.97c-.03-.53-.1-.96-.2-1.29s-.26-.59-.46-.77-.47-.27-.81-.27c-.5,0-.9.2-1.21.6-.3.4-.48.98-.53,1.72h3.2Z"/>
    <path class="cls-11" d="m219.25,209.73l.1.02c.27-.33.52-.58.75-.77s.48-.33.74-.44c.27-.1.57-.15.9-.15.28,0,.54.01.77.04v1.68h-.83c-.12-.26-.24-.46-.37-.57s-.31-.18-.54-.18c-.18,0-.35.05-.52.15s-.34.25-.5.45-.27.38-.33.55-.09.37-.09.61v2.56c0,.44.03.75.08.92s.14.29.27.37c.12.08.31.14.56.18v.36h-2.95v-.36c.19-.06.32-.11.4-.15.08-.04.15-.1.21-.18s.1-.2.13-.36.04-.41.04-.75v-3.19c0-.31,0-.56-.01-.75s-.04-.34-.1-.46-.15-.2-.27-.26c-.12-.06-.29-.1-.51-.14v-.38l1.71-.07h.45l-.08,1.28Z"/>
    <path class="cls-11" d="m228.38,210.11h-.7c-.11-.29-.23-.52-.38-.69s-.31-.29-.5-.36-.41-.1-.68-.1c-.39,0-.7.09-.93.27-.23.18-.35.43-.35.75,0,.22.05.41.14.56s.24.28.43.41.54.3,1.03.51c.5.21.88.41,1.15.59.27.18.48.39.64.63.15.24.23.52.23.86,0,.39-.07.71-.2.97s-.32.48-.56.64-.52.29-.85.36c-.33.07-.69.11-1.08.11-.41,0-.81-.03-1.19-.09s-.76-.14-1.13-.24v-1.53h.72c.13.45.33.78.59.98s.62.3,1.07.3c.18,0,.35-.02.52-.05.17-.04.32-.1.45-.18s.24-.2.31-.35.12-.33.12-.55c0-.25-.05-.45-.15-.61s-.25-.3-.45-.43-.57-.3-1.08-.52c-.44-.19-.8-.37-1.07-.54s-.48-.38-.63-.62c-.15-.24-.23-.52-.23-.85,0-.4.11-.75.33-1.04s.53-.52.94-.68.89-.23,1.44-.23c.32,0,.63.02.93.05.3.03.68.09,1.13.19v1.49Z"/>
    <path class="cls-11" d="m234.15,214.47l-.11-.03c-.42.43-.82.74-1.2.92-.37.18-.77.27-1.19.27-.37,0-.7-.07-.98-.22s-.5-.35-.65-.61-.23-.56-.23-.9c0-.71.35-1.26,1.06-1.65.71-.39,1.76-.61,3.17-.68v-.48c0-.51-.05-.91-.15-1.2s-.25-.51-.46-.64-.49-.21-.84-.21c-.38,0-.69.1-.92.3-.23.2-.41.5-.52.9h-.96v-.95c.47-.24.86-.42,1.17-.54s.62-.21.94-.27.63-.1.95-.1c.48,0,.87.08,1.16.23s.51.39.66.71.22.8.22,1.44v2.55c0,.36,0,.62,0,.77s.02.29.04.41.06.23.11.3.12.14.22.19c.09.05.25.11.46.17v.36h-2.01l.04-1.05Zm-.12-2.29c-.99,0-1.73.14-2.23.4s-.74.64-.74,1.15c0,.28.06.5.17.66s.25.27.42.33.37.09.61.09c.33,0,.63-.08.9-.24.27-.16.48-.37.63-.62s.23-.5.23-.74v-1.03Z"/>
    <path class="cls-11" d="m239.2,213.68c0,.42.02.71.06.88s.11.29.22.37c.11.09.29.16.54.22v.36h-2.91v-.36c.24-.06.41-.13.51-.2.09-.07.16-.15.21-.25.04-.1.07-.22.09-.39.02-.16.03-.38.03-.64v-6.13c0-.47,0-.8-.01-.98,0-.19-.03-.34-.06-.47-.03-.13-.08-.23-.13-.3-.06-.07-.13-.13-.23-.18-.09-.04-.27-.09-.52-.13v-.38l1.77-.07h.44v8.65Z"/>
    <path class="cls-11" d="m242.87,213.81c.07.34.1.68.1,1.01s-.06.65-.18.94-.3.57-.56.85c-.26.28-.61.59-1.06.93l-.4-.45c.25-.23.43-.45.54-.63s.19-.4.24-.64.07-.54.07-.9-.02-.74-.05-1.1h1.28Z"/>
    <path class="cls-11" d="m247.25,208.88c.24-.04.44-.11.59-.21s.27-.22.36-.38c.08-.15.15-.35.2-.58s.1-.57.15-1.01h1.04v1.81h2.37v.74h-2.37v3.26c0,.47.02.85.06,1.13s.11.5.22.66.23.27.37.34.31.1.53.1c.2,0,.38-.04.55-.12s.34-.2.51-.35l.33.4c-.35.34-.68.58-.99.73s-.63.23-.96.23c-.63,0-1.1-.19-1.41-.56s-.46-.96-.46-1.75v-4.06h-1.08v-.37Z"/>
    <path class="cls-11" d="m254.73,209.66h.03c.38-.38.68-.65.9-.8.22-.15.44-.27.66-.35.22-.08.45-.12.7-.12.27,0,.51.03.72.1s.39.16.55.29.29.29.39.48c.1.19.17.41.22.67s.07.59.07.99v2.76c0,.42.02.71.06.87.04.15.1.27.2.36.1.09.29.17.58.25v.36h-2.89v-.36c.19-.06.33-.11.41-.15s.15-.1.21-.18c.06-.08.1-.2.13-.36.03-.16.05-.41.05-.74v-1.92c0-.65-.03-1.15-.1-1.49-.07-.34-.2-.6-.39-.77-.19-.17-.46-.26-.81-.26-.2,0-.37.03-.53.1s-.34.19-.54.37-.36.36-.46.54c-.11.19-.16.38-.16.59v2.81c0,.33,0,.57.03.71.02.14.05.26.1.36s.12.17.22.23c.1.06.25.12.46.17v.36h-2.9v-.36c.21-.06.37-.11.46-.17s.16-.12.22-.21c.05-.08.09-.2.11-.36s.04-.4.04-.74v-6.13c0-.47,0-.8-.01-.98,0-.19-.03-.34-.06-.47s-.08-.23-.13-.3-.13-.13-.23-.18c-.1-.04-.27-.09-.52-.13v-.38l1.77-.07h.44v4.63Z"/>
    <path class="cls-11" d="m266.9,214.27c-.31.33-.6.58-.86.77-.26.19-.55.33-.86.44s-.66.16-1.03.16c-1.01,0-1.77-.3-2.28-.9s-.77-1.49-.77-2.67c0-.73.13-1.37.39-1.93s.63-.99,1.12-1.29,1.04-.45,1.67-.45c.49,0,.91.08,1.26.23s.62.37.83.64.37.61.48,1.03.18.95.19,1.61h-4.61v.13c0,.58.06,1.06.19,1.45.13.39.34.7.64.92s.68.33,1.15.33c.4,0,.76-.07,1.08-.22.32-.15.64-.39.96-.73l.45.48Zm-1.23-2.97c-.03-.53-.1-.96-.2-1.29s-.26-.59-.46-.77-.47-.27-.81-.27c-.5,0-.9.2-1.21.6-.3.4-.48.98-.53,1.72h3.2Z"/>
    <path class="cls-11" d="m273.65,215.29v1.55c0,.32.01.55.03.71.02.16.06.28.12.37.06.09.14.16.24.22s.27.11.51.16v.36h-2.99v-.36c.18-.05.32-.1.43-.15.11-.05.19-.13.25-.23s.1-.24.12-.41.03-.4.03-.68v-6.28c0-.35,0-.6-.01-.75s-.03-.27-.06-.37-.07-.18-.13-.24c-.06-.06-.13-.12-.23-.16-.09-.04-.25-.09-.47-.13v-.39l1.72-.07h.45l-.1,1.19.11.03c.3-.31.54-.53.72-.67s.36-.26.55-.35.37-.16.54-.2.36-.06.55-.06c.81,0,1.42.3,1.86.9.43.6.65,1.49.65,2.65,0,.81-.12,1.48-.37,2.03s-.6.96-1.07,1.24-1.02.41-1.67.41c-.36,0-.69-.03-.98-.09s-.56-.14-.81-.25Zm0-2.42c0,.47.03.83.09,1.08s.16.46.31.62c.15.16.32.28.53.35.2.08.47.12.8.12.59,0,1.04-.25,1.33-.74s.45-1.21.45-2.17c0-1.91-.56-2.87-1.68-2.87-.27,0-.51.04-.71.13-.2.09-.39.22-.59.41s-.33.38-.41.55c-.08.18-.12.37-.12.57v1.93Z"/>
    <path class="cls-11" d="m281.99,209.73l.1.02c.27-.33.52-.58.75-.77s.48-.33.74-.44c.27-.1.57-.15.9-.15.28,0,.54.01.77.04v1.68h-.83c-.12-.26-.24-.46-.37-.57s-.31-.18-.54-.18c-.18,0-.35.05-.52.15s-.34.25-.5.45-.27.38-.33.55-.09.37-.09.61v2.56c0,.44.03.75.08.92s.14.29.27.37c.12.08.31.14.56.18v.36h-2.95v-.36c.19-.06.32-.11.4-.15.08-.04.15-.1.21-.18s.1-.2.13-.36.04-.41.04-.75v-3.19c0-.31,0-.56-.01-.75s-.04-.34-.1-.46-.15-.2-.27-.26c-.12-.06-.29-.1-.51-.14v-.38l1.71-.07h.45l-.08,1.28Z"/>
    <path class="cls-11" d="m289.18,215.63c-1.02,0-1.79-.3-2.33-.9-.54-.6-.8-1.48-.8-2.66,0-.81.14-1.49.42-2.04.28-.56.67-.97,1.15-1.24s1.04-.41,1.67-.41c1.04,0,1.84.3,2.37.91s.81,1.48.81,2.62c0,.81-.13,1.49-.4,2.05s-.65.97-1.14,1.25-1.08.41-1.75.41Zm-1.74-3.71c0,1.01.16,1.78.48,2.32s.78.81,1.37.81c.33,0,.61-.08.83-.24s.42-.37.56-.64.25-.58.31-.93.1-.72.1-1.11c0-.72-.08-1.31-.24-1.79-.16-.47-.38-.82-.65-1.04s-.59-.33-.94-.33c-.59,0-1.04.26-1.36.77-.32.51-.47,1.24-.47,2.19Z"/>
    <path class="cls-11" d="m295.94,215.29v1.55c0,.32.01.55.03.71.02.16.06.28.12.37.06.09.14.16.24.22s.27.11.51.16v.36h-2.99v-.36c.18-.05.32-.1.43-.15.11-.05.19-.13.25-.23s.1-.24.12-.41.03-.4.03-.68v-6.28c0-.35,0-.6-.01-.75s-.03-.27-.06-.37-.07-.18-.13-.24c-.06-.06-.13-.12-.23-.16-.09-.04-.25-.09-.47-.13v-.39l1.72-.07h.45l-.1,1.19.11.03c.3-.31.54-.53.72-.67s.36-.26.55-.35.37-.16.54-.2.36-.06.55-.06c.81,0,1.42.3,1.86.9.43.6.65,1.49.65,2.65,0,.81-.12,1.48-.37,2.03s-.6.96-1.07,1.24-1.02.41-1.67.41c-.36,0-.69-.03-.98-.09s-.56-.14-.81-.25Zm0-2.42c0,.47.03.83.09,1.08s.16.46.31.62c.15.16.32.28.53.35.2.08.47.12.8.12.59,0,1.04-.25,1.33-.74s.45-1.21.45-2.17c0-1.91-.56-2.87-1.68-2.87-.27,0-.51.04-.71.13-.2.09-.39.22-.59.41s-.33.38-.41.55c-.08.18-.12.37-.12.57v1.93Z"/>
    <path class="cls-11" d="m307.58,209.73l.1.02c.27-.33.52-.58.75-.77s.48-.33.74-.44c.27-.1.57-.15.9-.15.28,0,.54.01.77.04v1.68h-.83c-.12-.26-.24-.46-.37-.57s-.31-.18-.54-.18c-.18,0-.35.05-.52.15s-.34.25-.5.45-.27.38-.33.55-.09.37-.09.61v2.56c0,.44.03.75.08.92s.14.29.27.37c.12.08.31.14.56.18v.36h-2.95v-.36c.19-.06.32-.11.4-.15.08-.04.15-.1.21-.18s.1-.2.13-.36.04-.41.04-.75v-3.19c0-.31,0-.56-.01-.75s-.04-.34-.1-.46-.15-.2-.27-.26c-.12-.06-.29-.1-.51-.14v-.38l1.71-.07h.45l-.08,1.28Z"/>
    <path class="cls-11" d="m314.77,215.63c-1.02,0-1.79-.3-2.33-.9-.54-.6-.8-1.48-.8-2.66,0-.81.14-1.49.42-2.04.28-.56.67-.97,1.15-1.24s1.04-.41,1.67-.41c1.04,0,1.84.3,2.37.91s.81,1.48.81,2.62c0,.81-.13,1.49-.4,2.05s-.65.97-1.14,1.25-1.08.41-1.75.41Zm-1.74-3.71c0,1.01.16,1.78.48,2.32s.78.81,1.37.81c.33,0,.61-.08.83-.24s.42-.37.56-.64.25-.58.31-.93.1-.72.1-1.11c0-.72-.08-1.31-.24-1.79-.16-.47-.38-.82-.65-1.04s-.59-.33-.94-.33c-.59,0-1.04.26-1.36.77-.32.51-.47,1.24-.47,2.19Z"/>
    <path class="cls-11" d="m319.1,208.88c.24-.04.44-.11.59-.21s.27-.22.36-.38c.08-.15.15-.35.2-.58s.1-.57.15-1.01h1.04v1.81h2.37v.74h-2.37v3.26c0,.47.02.85.06,1.13s.11.5.22.66.23.27.37.34.31.1.53.1c.2,0,.38-.04.55-.12s.34-.2.51-.35l.33.4c-.35.34-.68.58-.99.73s-.63.23-.96.23c-.63,0-1.1-.19-1.41-.56s-.46-.96-.46-1.75v-4.06h-1.08v-.37Z"/>
    <path class="cls-11" d="m328.85,214.47l-.11-.03c-.42.43-.82.74-1.2.92-.37.18-.77.27-1.19.27-.37,0-.7-.07-.98-.22s-.5-.35-.65-.61-.23-.56-.23-.9c0-.71.35-1.26,1.06-1.65.71-.39,1.76-.61,3.17-.68v-.48c0-.51-.05-.91-.15-1.2s-.25-.51-.46-.64-.49-.21-.84-.21c-.38,0-.69.1-.92.3-.23.2-.41.5-.52.9h-.96v-.95c.47-.24.86-.42,1.17-.54s.62-.21.94-.27.63-.1.95-.1c.48,0,.87.08,1.16.23s.51.39.66.71.22.8.22,1.44v2.55c0,.36,0,.62,0,.77s.02.29.04.41.06.23.11.3.12.14.22.19c.09.05.25.11.46.17v.36h-2.01l.04-1.05Zm-.12-2.29c-.99,0-1.73.14-2.23.4s-.74.64-.74,1.15c0,.28.06.5.17.66s.25.27.42.33.37.09.61.09c.33,0,.63-.08.9-.24.27-.16.48-.37.63-.62s.23-.5.23-.74v-1.03Z"/>
    <path class="cls-11" d="m331.5,208.88c.24-.04.44-.11.59-.21s.27-.22.36-.38c.08-.15.15-.35.2-.58s.1-.57.15-1.01h1.04v1.81h2.37v.74h-2.37v3.26c0,.47.02.85.06,1.13s.11.5.22.66.23.27.37.34.31.1.53.1c.2,0,.38-.04.55-.12s.34-.2.51-.35l.33.4c-.35.34-.68.58-.99.73s-.63.23-.96.23c-.63,0-1.1-.19-1.41-.56s-.46-.96-.46-1.75v-4.06h-1.08v-.37Z"/>
    <path class="cls-11" d="m337.02,215.15c.19-.06.33-.11.41-.15.08-.04.15-.1.21-.18.06-.08.1-.2.13-.36.03-.16.05-.41.05-.75v-3.19c0-.31,0-.56-.01-.75s-.04-.34-.1-.46-.15-.2-.27-.26c-.12-.06-.29-.1-.51-.14v-.39l1.71-.07h.45v5.24c0,.42.02.71.06.88s.11.29.22.37c.11.09.29.16.54.22v.36h-2.87v-.36Zm2.09-9.51v1.42h-1.35v-1.42h1.35Z"/>
    <path class="cls-11" d="m344.37,215.63c-1.02,0-1.79-.3-2.33-.9-.54-.6-.8-1.48-.8-2.66,0-.81.14-1.49.42-2.04.28-.56.67-.97,1.15-1.24s1.04-.41,1.67-.41c1.04,0,1.84.3,2.37.91s.81,1.48.81,2.62c0,.81-.13,1.49-.4,2.05s-.65.97-1.14,1.25-1.08.41-1.75.41Zm-1.74-3.71c0,1.01.16,1.78.48,2.32s.78.81,1.37.81c.33,0,.61-.08.83-.24s.42-.37.56-.64.25-.58.31-.93.1-.72.1-1.11c0-.72-.08-1.31-.24-1.79-.16-.47-.38-.82-.65-1.04s-.59-.33-.94-.33c-.59,0-1.04.26-1.36.77-.32.51-.47,1.24-.47,2.19Z"/>
    <path class="cls-11" d="m356.28,215.51h-2.89v-.36c.19-.06.33-.11.41-.15s.15-.1.21-.18.1-.2.13-.36.05-.41.05-.74v-1.92c0-.34,0-.65-.03-.93s-.05-.51-.1-.68c-.05-.18-.1-.32-.17-.42-.07-.1-.14-.19-.23-.26s-.19-.13-.31-.17-.27-.06-.46-.06-.37.04-.54.11-.36.21-.56.39-.35.37-.45.55-.14.39-.14.62v2.73c0,.42.02.71.06.88s.11.29.22.37c.11.09.29.16.54.22v.36h-2.87v-.36c.19-.06.33-.11.41-.15.08-.04.15-.1.21-.18.06-.08.1-.2.13-.36.03-.16.05-.41.05-.75v-3.19c0-.31,0-.56-.01-.75s-.04-.34-.1-.46-.15-.2-.27-.26c-.12-.06-.29-.1-.51-.14v-.39l1.71-.07h.45l-.08,1.19.1.03c.36-.37.65-.63.88-.78.22-.16.45-.28.67-.36.23-.09.47-.13.72-.13s.5.03.71.09.39.15.55.28c.16.13.29.28.39.47s.18.41.23.68c.05.26.08.6.08,1v2.76c0,.34,0,.58.03.73s.05.27.1.35.12.15.21.21.25.12.48.18v.36Z"/>
    <path class="cls-11" d="m365.06,214.47l-.11-.03c-.42.43-.82.74-1.2.92-.37.18-.77.27-1.19.27-.37,0-.7-.07-.98-.22s-.5-.35-.65-.61-.23-.56-.23-.9c0-.71.35-1.26,1.06-1.65.71-.39,1.76-.61,3.17-.68v-.48c0-.51-.05-.91-.15-1.2s-.25-.51-.46-.64-.49-.21-.84-.21c-.38,0-.69.1-.92.3-.23.2-.41.5-.52.9h-.96v-.95c.47-.24.86-.42,1.17-.54s.62-.21.94-.27.63-.1.95-.1c.48,0,.87.08,1.16.23s.51.39.66.71.22.8.22,1.44v2.55c0,.36,0,.62,0,.77s.02.29.04.41.06.23.11.3.12.14.22.19c.09.05.25.11.46.17v.36h-2.01l.04-1.05Zm-.12-2.29c-.99,0-1.73.14-2.23.4s-.74.64-.74,1.15c0,.28.06.5.17.66s.25.27.42.33.37.09.61.09c.33,0,.63-.08.9-.24.27-.16.48-.37.63-.62s.23-.5.23-.74v-1.03Z"/>
    <path class="cls-11" d="m375.28,215.51h-2.89v-.36c.19-.06.33-.11.41-.15s.15-.1.21-.18.1-.2.13-.36.05-.41.05-.74v-1.92c0-.34,0-.65-.03-.93s-.05-.51-.1-.68c-.05-.18-.1-.32-.17-.42-.07-.1-.14-.19-.23-.26s-.19-.13-.31-.17-.27-.06-.46-.06-.37.04-.54.11-.36.21-.56.39-.35.37-.45.55-.14.39-.14.62v2.73c0,.42.02.71.06.88s.11.29.22.37c.11.09.29.16.54.22v.36h-2.87v-.36c.19-.06.33-.11.41-.15.08-.04.15-.1.21-.18.06-.08.1-.2.13-.36.03-.16.05-.41.05-.75v-3.19c0-.31,0-.56-.01-.75s-.04-.34-.1-.46-.15-.2-.27-.26c-.12-.06-.29-.1-.51-.14v-.39l1.71-.07h.45l-.08,1.19.1.03c.36-.37.65-.63.88-.78.22-.16.45-.28.67-.36.23-.09.47-.13.72-.13s.5.03.71.09.39.15.55.28c.16.13.29.28.39.47s.18.41.23.68c.05.26.08.6.08,1v2.76c0,.34,0,.58.03.73s.05.27.1.35.12.15.21.21.25.12.48.18v.36Z"/>
    <path class="cls-11" d="m381.46,207.55c0-.47,0-.8-.01-.98,0-.19-.03-.34-.06-.47-.03-.13-.08-.23-.13-.3-.06-.07-.13-.13-.23-.18-.09-.04-.27-.09-.52-.13v-.38l1.77-.07h.43v8.48c0,.38,0,.65.02.82s.05.29.1.39.13.18.23.24.29.12.55.17v.38l-1.73.07h-.44l.09-1.2-.11-.03c-.31.33-.58.57-.8.74-.23.16-.47.29-.73.39-.26.1-.53.15-.82.15-.8,0-1.42-.3-1.85-.91s-.65-1.49-.65-2.63c0-.8.14-1.48.42-2.04s.67-.98,1.15-1.25,1.02-.41,1.62-.41c.32,0,.62.03.88.08s.53.14.81.25v-1.16Zm0,3.62c0-.38-.02-.69-.05-.92s-.09-.42-.17-.58c-.08-.16-.19-.29-.33-.4s-.29-.19-.45-.23-.36-.07-.59-.07c-.62,0-1.1.25-1.43.75s-.49,1.22-.49,2.16.13,1.65.4,2.14.68.73,1.22.73c.21,0,.39-.02.53-.05s.28-.1.42-.18.28-.19.42-.33.25-.27.31-.39c.07-.12.12-.25.15-.4s.05-.35.05-.59v-1.64Z"/>
    <path class="cls-11" d="m390.11,209.66h.03c.38-.38.68-.65.9-.8.22-.15.44-.27.66-.35.22-.08.45-.12.7-.12.27,0,.51.03.72.1s.39.16.55.29.29.29.39.48c.1.19.17.41.22.67s.07.59.07.99v2.76c0,.42.02.71.06.87.04.15.1.27.2.36.1.09.29.17.58.25v.36h-2.89v-.36c.19-.06.33-.11.41-.15s.15-.1.21-.18c.06-.08.1-.2.13-.36.03-.16.05-.41.05-.74v-1.92c0-.65-.03-1.15-.1-1.49-.07-.34-.2-.6-.39-.77-.19-.17-.46-.26-.81-.26-.2,0-.37.03-.53.1s-.34.19-.54.37-.36.36-.46.54c-.11.19-.16.38-.16.59v2.81c0,.33,0,.57.03.71.02.14.05.26.1.36s.12.17.22.23c.1.06.25.12.46.17v.36h-2.9v-.36c.21-.06.37-.11.46-.17s.16-.12.22-.21c.05-.08.09-.2.11-.36s.04-.4.04-.74v-6.13c0-.47,0-.8-.01-.98,0-.19-.03-.34-.06-.47s-.08-.23-.13-.3-.13-.13-.23-.18c-.1-.04-.27-.09-.52-.13v-.38l1.77-.07h.44v4.63Z"/>
    <path class="cls-11" d="m400.65,214.47l-.11-.03c-.42.43-.82.74-1.2.92-.37.18-.77.27-1.19.27-.37,0-.7-.07-.98-.22s-.5-.35-.65-.61-.23-.56-.23-.9c0-.71.35-1.26,1.06-1.65.71-.39,1.76-.61,3.17-.68v-.48c0-.51-.05-.91-.15-1.2s-.25-.51-.46-.64-.49-.21-.84-.21c-.38,0-.69.1-.92.3-.23.2-.41.5-.52.9h-.96v-.95c.47-.24.86-.42,1.17-.54s.62-.21.94-.27.63-.1.95-.1c.48,0,.87.08,1.16.23s.51.39.66.71.22.8.22,1.44v2.55c0,.36,0,.62,0,.77s.02.29.04.41.06.23.11.3.12.14.22.19c.09.05.25.11.46.17v.36h-2.01l.04-1.05Zm-.12-2.29c-.99,0-1.73.14-2.23.4s-.74.64-.74,1.15c0,.28.06.5.17.66s.25.27.42.33.37.09.61.09c.33,0,.63-.08.9-.24.27-.16.48-.37.63-.62s.23-.5.23-.74v-1.03Z"/>
    <path class="cls-11" d="m410.88,215.51h-2.89v-.36c.19-.06.33-.11.41-.15s.15-.1.21-.18.1-.2.13-.36.05-.41.05-.74v-1.92c0-.34,0-.65-.03-.93s-.05-.51-.1-.68c-.05-.18-.1-.32-.17-.42-.07-.1-.14-.19-.23-.26s-.19-.13-.31-.17-.27-.06-.46-.06-.37.04-.54.11-.36.21-.56.39-.35.37-.45.55-.14.39-.14.62v2.73c0,.42.02.71.06.88s.11.29.22.37c.11.09.29.16.54.22v.36h-2.87v-.36c.19-.06.33-.11.41-.15.08-.04.15-.1.21-.18.06-.08.1-.2.13-.36.03-.16.05-.41.05-.75v-3.19c0-.31,0-.56-.01-.75s-.04-.34-.1-.46-.15-.2-.27-.26c-.12-.06-.29-.1-.51-.14v-.39l1.71-.07h.45l-.08,1.19.1.03c.36-.37.65-.63.88-.78.22-.16.45-.28.67-.36.23-.09.47-.13.72-.13s.5.03.71.09.39.15.55.28c.16.13.29.28.39.47s.18.41.23.68c.05.26.08.6.08,1v2.76c0,.34,0,.58.03.73s.05.27.1.35.12.15.21.21.25.12.48.18v.36Z"/>
    <path class="cls-11" d="m417.06,207.55c0-.47,0-.8-.01-.98,0-.19-.03-.34-.06-.47-.03-.13-.08-.23-.13-.3-.06-.07-.13-.13-.23-.18-.09-.04-.27-.09-.52-.13v-.38l1.77-.07h.43v8.48c0,.38,0,.65.02.82s.05.29.1.39.13.18.23.24.29.12.55.17v.38l-1.73.07h-.44l.09-1.2-.11-.03c-.31.33-.58.57-.8.74-.23.16-.47.29-.73.39-.26.1-.53.15-.82.15-.8,0-1.42-.3-1.85-.91s-.65-1.49-.65-2.63c0-.8.14-1.48.42-2.04s.67-.98,1.15-1.25,1.02-.41,1.62-.41c.32,0,.62.03.88.08s.53.14.81.25v-1.16Zm0,3.62c0-.38-.02-.69-.05-.92s-.09-.42-.17-.58c-.08-.16-.19-.29-.33-.4s-.29-.19-.45-.23-.36-.07-.59-.07c-.62,0-1.1.25-1.43.75s-.49,1.22-.49,2.16.13,1.65.4,2.14.68.73,1.22.73c.21,0,.39-.02.53-.05s.28-.1.42-.18.28-.19.42-.33.25-.27.31-.39c.07-.12.12-.25.15-.4s.05-.35.05-.59v-1.64Z"/>
    <path class="cls-11" d="m425.72,215.29v1.55c0,.32.01.55.03.71.02.16.06.28.12.37.06.09.14.16.24.22s.27.11.51.16v.36h-2.99v-.36c.18-.05.32-.1.43-.15.11-.05.19-.13.25-.23s.1-.24.12-.41.03-.4.03-.68v-6.28c0-.35,0-.6-.01-.75s-.03-.27-.06-.37-.07-.18-.13-.24c-.06-.06-.13-.12-.23-.16-.09-.04-.25-.09-.47-.13v-.39l1.72-.07h.45l-.1,1.19.11.03c.3-.31.54-.53.72-.67s.36-.26.55-.35.37-.16.54-.2.36-.06.55-.06c.81,0,1.42.3,1.86.9.43.6.65,1.49.65,2.65,0,.81-.12,1.48-.37,2.03s-.6.96-1.07,1.24-1.02.41-1.67.41c-.36,0-.69-.03-.98-.09s-.56-.14-.81-.25Zm0-2.42c0,.47.03.83.09,1.08s.16.46.31.62c.15.16.32.28.53.35.2.08.47.12.8.12.59,0,1.04-.25,1.33-.74s.45-1.21.45-2.17c0-1.91-.56-2.87-1.68-2.87-.27,0-.51.04-.71.13-.2.09-.39.22-.59.41s-.33.38-.41.55c-.08.18-.12.37-.12.57v1.93Z"/>
    <path class="cls-11" d="m436.31,214.47l-.11-.03c-.42.43-.82.74-1.2.92-.37.18-.77.27-1.19.27-.37,0-.7-.07-.98-.22s-.5-.35-.65-.61-.23-.56-.23-.9c0-.71.35-1.26,1.06-1.65.71-.39,1.76-.61,3.17-.68v-.48c0-.51-.05-.91-.15-1.2s-.25-.51-.46-.64-.49-.21-.84-.21c-.38,0-.69.1-.92.3-.23.2-.41.5-.52.9h-.96v-.95c.47-.24.86-.42,1.17-.54s.62-.21.94-.27.63-.1.95-.1c.48,0,.87.08,1.16.23s.51.39.66.71.22.8.22,1.44v2.55c0,.36,0,.62,0,.77s.02.29.04.41.06.23.11.3.12.14.22.19c.09.05.25.11.46.17v.36h-2.01l.04-1.05Zm-.12-2.29c-.99,0-1.73.14-2.23.4s-.74.64-.74,1.15c0,.28.06.5.17.66s.25.27.42.33.37.09.61.09c.33,0,.63-.08.9-.24.27-.16.48-.37.63-.62s.23-.5.23-.74v-1.03Z"/>
    <path class="cls-11" d="m438.96,208.88c.24-.04.44-.11.59-.21s.27-.22.36-.38c.08-.15.15-.35.2-.58s.1-.57.15-1.01h1.04v1.81h2.37v.74h-2.37v3.26c0,.47.02.85.06,1.13s.11.5.22.66.23.27.37.34.31.1.53.1c.2,0,.38-.04.55-.12s.34-.2.51-.35l.33.4c-.35.34-.68.58-.99.73s-.63.23-.96.23c-.63,0-1.1-.19-1.41-.56s-.46-.96-.46-1.75v-4.06h-1.08v-.37Z"/>
    <path class="cls-11" d="m446.44,209.66h.03c.38-.38.68-.65.9-.8.22-.15.44-.27.66-.35.22-.08.45-.12.7-.12.27,0,.51.03.72.1s.39.16.55.29.29.29.39.48c.1.19.17.41.22.67s.07.59.07.99v2.76c0,.42.02.71.06.87.04.15.1.27.2.36.1.09.29.17.58.25v.36h-2.89v-.36c.19-.06.33-.11.41-.15s.15-.1.21-.18c.06-.08.1-.2.13-.36.03-.16.05-.41.05-.74v-1.92c0-.65-.03-1.15-.1-1.49-.07-.34-.2-.6-.39-.77-.19-.17-.46-.26-.81-.26-.2,0-.37.03-.53.1s-.34.19-.54.37-.36.36-.46.54c-.11.19-.16.38-.16.59v2.81c0,.33,0,.57.03.71.02.14.05.26.1.36s.12.17.22.23c.1.06.25.12.46.17v.36h-2.9v-.36c.21-.06.37-.11.46-.17s.16-.12.22-.21c.05-.08.09-.2.11-.36s.04-.4.04-.74v-6.13c0-.47,0-.8-.01-.98,0-.19-.03-.34-.06-.47s-.08-.23-.13-.3-.13-.13-.23-.18c-.1-.04-.27-.09-.52-.13v-.38l1.77-.07h.44v4.63Z"/>
    <path class="cls-11" d="m458.04,209.73l.1.02c.27-.33.52-.58.75-.77s.48-.33.74-.44c.27-.1.57-.15.9-.15.28,0,.54.01.77.04v1.68h-.83c-.12-.26-.24-.46-.37-.57s-.31-.18-.54-.18c-.18,0-.35.05-.52.15s-.34.25-.5.45-.27.38-.33.55-.09.37-.09.61v2.56c0,.44.03.75.08.92s.14.29.27.37c.12.08.31.14.56.18v.36h-2.95v-.36c.19-.06.32-.11.4-.15.08-.04.15-.1.21-.18s.1-.2.13-.36.04-.41.04-.75v-3.19c0-.31,0-.56-.01-.75s-.04-.34-.1-.46-.15-.2-.27-.26c-.12-.06-.29-.1-.51-.14v-.38l1.71-.07h.45l-.08,1.28Z"/>
    <path class="cls-11" d="m467.9,214.27c-.31.33-.6.58-.86.77-.26.19-.55.33-.86.44s-.66.16-1.03.16c-1.01,0-1.77-.3-2.28-.9s-.77-1.49-.77-2.67c0-.73.13-1.37.39-1.93s.63-.99,1.12-1.29,1.04-.45,1.67-.45c.49,0,.91.08,1.26.23s.62.37.83.64.37.61.48,1.03.18.95.19,1.61h-4.61v.13c0,.58.06,1.06.19,1.45.13.39.34.7.64.92s.68.33,1.15.33c.4,0,.76-.07,1.08-.22.32-.15.64-.39.96-.73l.45.48Zm-1.23-2.97c-.03-.53-.1-.96-.2-1.29s-.26-.59-.46-.77-.47-.27-.81-.27c-.5,0-.9.2-1.21.6-.3.4-.48.98-.53,1.72h3.2Z"/>
    <path class="cls-11" d="m468.92,208.88c.24-.04.44-.11.59-.21s.27-.22.36-.38c.08-.15.15-.35.2-.58s.1-.57.15-1.01h1.04v1.81h2.37v.74h-2.37v3.26c0,.47.02.85.06,1.13s.11.5.22.66.23.27.37.34.31.1.53.1c.2,0,.38-.04.55-.12s.34-.2.51-.35l.33.4c-.35.34-.68.58-.99.73s-.63.23-.96.23c-.63,0-1.1-.19-1.41-.56s-.46-.96-.46-1.75v-4.06h-1.08v-.37Z"/>
    <path class="cls-11" d="m476.41,209.73l.1.02c.27-.33.52-.58.75-.77s.48-.33.74-.44c.27-.1.57-.15.9-.15.28,0,.54.01.77.04v1.68h-.83c-.12-.26-.24-.46-.37-.57s-.31-.18-.54-.18c-.18,0-.35.05-.52.15s-.34.25-.5.45-.27.38-.33.55-.09.37-.09.61v2.56c0,.44.03.75.08.92s.14.29.27.37c.12.08.31.14.56.18v.36h-2.95v-.36c.19-.06.32-.11.4-.15.08-.04.15-.1.21-.18s.1-.2.13-.36.04-.41.04-.75v-3.19c0-.31,0-.56-.01-.75s-.04-.34-.1-.46-.15-.2-.27-.26c-.12-.06-.29-.1-.51-.14v-.38l1.71-.07h.45l-.08,1.28Z"/>
    <path class="cls-11" d="m484.62,214.47l-.11-.03c-.42.43-.82.74-1.2.92-.37.18-.77.27-1.19.27-.37,0-.7-.07-.98-.22s-.5-.35-.65-.61-.23-.56-.23-.9c0-.71.35-1.26,1.06-1.65.71-.39,1.76-.61,3.17-.68v-.48c0-.51-.05-.91-.15-1.2s-.25-.51-.46-.64-.49-.21-.84-.21c-.38,0-.69.1-.92.3-.23.2-.41.5-.52.9h-.96v-.95c.47-.24.86-.42,1.17-.54s.62-.21.94-.27.63-.1.95-.1c.48,0,.87.08,1.16.23s.51.39.66.71.22.8.22,1.44v2.55c0,.36,0,.62,0,.77s.02.29.04.41.06.23.11.3.12.14.22.19c.09.05.25.11.46.17v.36h-2.01l.04-1.05Zm-.12-2.29c-.99,0-1.73.14-2.23.4s-.74.64-.74,1.15c0,.28.06.5.17.66s.25.27.42.33.37.09.61.09c.33,0,.63-.08.9-.24.27-.16.48-.37.63-.62s.23-.5.23-.74v-1.03Z"/>
    <path class="cls-11" d="m493.16,208.68v1.53h-.93c-.08-.32-.19-.57-.31-.75s-.26-.31-.42-.38-.36-.11-.6-.11c-.34,0-.64.11-.91.33s-.47.55-.63,1c-.15.45-.23,1-.23,1.65,0,.42.03.79.09,1.14s.16.64.3.88.33.43.56.57.52.21.87.21.65-.07.94-.2.59-.36.9-.7l.42.48c-.25.27-.47.48-.66.63s-.39.27-.61.37c-.22.1-.43.17-.64.22-.21.05-.44.07-.69.07-.92,0-1.63-.31-2.12-.92s-.73-1.5-.73-2.66c0-.72.14-1.36.41-1.92s.66-.99,1.15-1.29,1.06-.45,1.71-.45c.4,0,.77.02,1.11.07.34.05.68.12,1.02.22Z"/>
    <path class="cls-11" d="m500.17,214.27c-.31.33-.6.58-.86.77-.26.19-.55.33-.86.44s-.66.16-1.03.16c-1.01,0-1.77-.3-2.28-.9s-.77-1.49-.77-2.67c0-.73.13-1.37.39-1.93s.63-.99,1.12-1.29,1.04-.45,1.67-.45c.49,0,.91.08,1.26.23s.62.37.83.64.37.61.48,1.03.18.95.19,1.61h-4.61v.13c0,.58.06,1.06.19,1.45.13.39.34.7.64.92s.68.33,1.15.33c.4,0,.76-.07,1.08-.22.32-.15.64-.39.96-.73l.45.48Zm-1.23-2.97c-.03-.53-.1-.96-.2-1.29s-.26-.59-.46-.77-.47-.27-.81-.27c-.5,0-.9.2-1.21.6-.3.4-.48.98-.53,1.72h3.2Z"/>
    <path class="cls-11" d="m504.5,208.88c.24-.04.44-.11.59-.21s.27-.22.36-.38c.08-.15.15-.35.2-.58s.1-.57.15-1.01h1.04v1.81h2.37v.74h-2.37v3.26c0,.47.02.85.06,1.13s.11.5.22.66.23.27.37.34.31.1.53.1c.2,0,.38-.04.55-.12s.34-.2.51-.35l.33.4c-.35.34-.68.58-.99.73s-.63.23-.96.23c-.63,0-1.1-.19-1.41-.56s-.46-.96-.46-1.75v-4.06h-1.08v-.37Z"/>
    <path class="cls-11" d="m511.98,209.66h.03c.38-.38.68-.65.9-.8.22-.15.44-.27.66-.35.22-.08.45-.12.7-.12.27,0,.51.03.72.1s.39.16.55.29.29.29.39.48c.1.19.17.41.22.67s.07.59.07.99v2.76c0,.42.02.71.06.87.04.15.1.27.2.36.1.09.29.17.58.25v.36h-2.89v-.36c.19-.06.33-.11.41-.15s.15-.1.21-.18c.06-.08.1-.2.13-.36.03-.16.05-.41.05-.74v-1.92c0-.65-.03-1.15-.1-1.49-.07-.34-.2-.6-.39-.77-.19-.17-.46-.26-.81-.26-.2,0-.37.03-.53.1s-.34.19-.54.37-.36.36-.46.54c-.11.19-.16.38-.16.59v2.81c0,.33,0,.57.03.71.02.14.05.26.1.36s.12.17.22.23c.1.06.25.12.46.17v.36h-2.9v-.36c.21-.06.37-.11.46-.17s.16-.12.22-.21c.05-.08.09-.2.11-.36s.04-.4.04-.74v-6.13c0-.47,0-.8-.01-.98,0-.19-.03-.34-.06-.47s-.08-.23-.13-.3-.13-.13-.23-.18c-.1-.04-.27-.09-.52-.13v-.38l1.77-.07h.44v4.63Z"/>
    <path class="cls-11" d="m524.15,214.27c-.31.33-.6.58-.86.77-.26.19-.55.33-.86.44s-.66.16-1.03.16c-1.01,0-1.77-.3-2.28-.9s-.77-1.49-.77-2.67c0-.73.13-1.37.39-1.93s.63-.99,1.12-1.29,1.04-.45,1.67-.45c.49,0,.91.08,1.26.23s.62.37.83.64.37.61.48,1.03.18.95.19,1.61h-4.61v.13c0,.58.06,1.06.19,1.45.13.39.34.7.64.92s.68.33,1.15.33c.4,0,.76-.07,1.08-.22.32-.15.64-.39.96-.73l.45.48Zm-1.23-2.97c-.03-.53-.1-.96-.2-1.29s-.26-.59-.46-.77-.47-.27-.81-.27c-.5,0-.9.2-1.21.6-.3.4-.48.98-.53,1.72h3.2Z"/>
    <path class="cls-11" d="m525.61,215.15c.19-.06.33-.11.41-.15.08-.04.15-.1.21-.18.06-.08.1-.2.13-.36.03-.16.05-.41.05-.75v-3.19c0-.31,0-.56-.01-.75s-.04-.34-.1-.46-.15-.2-.27-.26c-.12-.06-.29-.1-.51-.14v-.39l1.71-.07h.45v5.24c0,.42.02.71.06.88s.11.29.22.37c.11.09.29.16.54.22v.36h-2.87v-.36Zm2.09-9.51v1.42h-1.35v-1.42h1.35Z"/>
    <path class="cls-11" d="m531.76,209.73l.1.02c.27-.33.52-.58.75-.77s.48-.33.74-.44c.27-.1.57-.15.9-.15.28,0,.54.01.77.04v1.68h-.83c-.12-.26-.24-.46-.37-.57s-.31-.18-.54-.18c-.18,0-.35.05-.52.15s-.34.25-.5.45-.27.38-.33.55-.09.37-.09.61v2.56c0,.44.03.75.08.92s.14.29.27.37c.12.08.31.14.56.18v.36h-2.95v-.36c.19-.06.32-.11.4-.15.08-.04.15-.1.21-.18s.1-.2.13-.36.04-.41.04-.75v-3.19c0-.31,0-.56-.01-.75s-.04-.34-.1-.46-.15-.2-.27-.26c-.12-.06-.29-.1-.51-.14v-.38l1.71-.07h.45l-.08,1.28Z"/>
    <path class="cls-11" d="m77.3,233.29v1.55c0,.32.01.55.03.71.02.16.06.28.12.37.06.09.14.16.24.22s.27.11.51.16v.36h-2.99v-.36c.18-.05.32-.1.43-.15.11-.05.19-.13.25-.23s.1-.24.12-.41.03-.4.03-.68v-6.28c0-.35,0-.6-.01-.75s-.03-.27-.06-.37-.07-.18-.13-.24c-.06-.06-.13-.12-.23-.16-.09-.04-.25-.09-.47-.13v-.39l1.72-.07h.45l-.1,1.19.11.03c.3-.31.54-.53.72-.67s.36-.26.55-.35.37-.16.54-.2.36-.06.55-.06c.81,0,1.42.3,1.86.9.43.6.65,1.49.65,2.65,0,.81-.12,1.48-.37,2.03s-.6.96-1.07,1.24-1.02.41-1.67.41c-.36,0-.69-.03-.98-.09s-.56-.14-.81-.25Zm0-2.42c0,.47.03.83.09,1.08s.16.46.31.62c.15.16.32.28.53.35.2.08.47.12.8.12.59,0,1.04-.25,1.33-.74s.45-1.21.45-2.17c0-1.91-.56-2.87-1.68-2.87-.27,0-.51.04-.71.13-.2.09-.39.22-.59.41s-.33.38-.41.55c-.08.18-.12.37-.12.57v1.93Z"/>
    <path class="cls-11" d="m87.89,232.47l-.11-.03c-.42.43-.82.74-1.2.92-.37.18-.77.27-1.19.27-.37,0-.7-.07-.98-.22s-.5-.35-.65-.61-.23-.56-.23-.9c0-.71.35-1.26,1.06-1.65.71-.39,1.76-.61,3.17-.68v-.48c0-.51-.05-.91-.15-1.2s-.25-.51-.46-.64-.49-.21-.84-.21c-.38,0-.69.1-.92.3-.23.2-.41.5-.52.9h-.96v-.95c.47-.24.86-.42,1.17-.54s.62-.21.94-.27.63-.1.95-.1c.48,0,.87.08,1.16.23s.51.39.66.71.22.8.22,1.44v2.55c0,.36,0,.62,0,.77s.02.29.04.41.06.23.11.3.12.14.22.19c.09.05.25.11.46.17v.36h-2.01l.04-1.05Zm-.12-2.29c-.99,0-1.73.14-2.23.4s-.74.64-.74,1.15c0,.28.06.5.17.66s.25.27.42.33.37.09.61.09c.33,0,.63-.08.9-.24.27-.16.48-.37.63-.62s.23-.5.23-.74v-1.03Z"/>
    <path class="cls-11" d="m90.54,226.88c.24-.04.44-.11.59-.21s.27-.22.36-.38c.08-.15.15-.35.2-.58s.1-.57.15-1.01h1.04v1.81h2.37v.74h-2.37v3.26c0,.47.02.85.06,1.13s.11.5.22.66.23.27.37.34.31.1.53.1c.2,0,.38-.04.55-.12s.34-.2.51-.35l.33.4c-.35.34-.68.58-.99.73s-.63.23-.96.23c-.63,0-1.1-.19-1.41-.56s-.46-.96-.46-1.75v-4.06h-1.08v-.37Z"/>
    <path class="cls-11" d="m98.02,227.66h.03c.38-.38.68-.65.9-.8.22-.15.44-.27.66-.35.22-.08.45-.12.7-.12.27,0,.51.03.72.1s.39.16.55.29.29.29.39.48c.1.19.17.41.22.67s.07.59.07.99v2.76c0,.42.02.71.06.87.04.15.1.27.2.36.1.09.29.17.58.25v.36h-2.89v-.36c.19-.06.33-.11.41-.15s.15-.1.21-.18c.06-.08.1-.2.13-.36.03-.16.05-.41.05-.74v-1.92c0-.65-.03-1.15-.1-1.49-.07-.34-.2-.6-.39-.77-.19-.17-.46-.26-.81-.26-.2,0-.37.03-.53.1s-.34.19-.54.37-.36.36-.46.54c-.11.19-.16.38-.16.59v2.81c0,.33,0,.57.03.71.02.14.05.26.1.36s.12.17.22.23c.1.06.25.12.46.17v.36h-2.9v-.36c.21-.06.37-.11.46-.17s.16-.12.22-.21c.05-.08.09-.2.11-.36s.04-.4.04-.74v-6.13c0-.47,0-.8-.01-.98,0-.19-.03-.34-.06-.47s-.08-.23-.13-.3-.13-.13-.23-.18c-.1-.04-.27-.09-.52-.13v-.38l1.77-.07h.44v4.63Z"/>
    <path class="cls-11" d="m109.24,228.11h-.7c-.11-.29-.23-.52-.38-.69s-.31-.29-.5-.36-.41-.1-.68-.1c-.39,0-.7.09-.93.27-.23.18-.35.43-.35.75,0,.22.05.41.14.56s.24.28.43.41.54.3,1.03.51c.5.21.88.41,1.15.59.27.18.48.39.64.63.15.24.23.52.23.86,0,.39-.07.71-.2.97s-.32.48-.56.64-.52.29-.85.36c-.33.07-.69.11-1.08.11-.41,0-.81-.03-1.19-.09s-.76-.14-1.13-.24v-1.53h.72c.13.45.33.78.59.98s.62.3,1.07.3c.18,0,.35-.02.52-.05.17-.04.32-.1.45-.18s.24-.2.31-.35.12-.33.12-.55c0-.25-.05-.45-.15-.61s-.25-.3-.45-.43-.57-.3-1.08-.52c-.44-.19-.8-.37-1.07-.54s-.48-.38-.63-.62c-.15-.24-.23-.52-.23-.85,0-.4.11-.75.33-1.04s.53-.52.94-.68.89-.23,1.44-.23c.32,0,.63.02.93.05.3.03.68.09,1.13.19v1.49Z"/>
    <path class="cls-11" d="m118.31,232.47l-.11-.03c-.42.43-.82.74-1.2.92-.37.18-.77.27-1.19.27-.37,0-.7-.07-.98-.22s-.5-.35-.65-.61-.23-.56-.23-.9c0-.71.35-1.26,1.06-1.65.71-.39,1.76-.61,3.17-.68v-.48c0-.51-.05-.91-.15-1.2s-.25-.51-.46-.64-.49-.21-.84-.21c-.38,0-.69.1-.92.3-.23.2-.41.5-.52.9h-.96v-.95c.47-.24.86-.42,1.17-.54s.62-.21.94-.27.63-.1.95-.1c.48,0,.87.08,1.16.23s.51.39.66.71.22.8.22,1.44v2.55c0,.36,0,.62,0,.77s.02.29.04.41.06.23.11.3.12.14.22.19c.09.05.25.11.46.17v.36h-2.01l.04-1.05Zm-.12-2.29c-.99,0-1.73.14-2.23.4s-.74.64-.74,1.15c0,.28.06.5.17.66s.25.27.42.33.37.09.61.09c.33,0,.63-.08.9-.24.27-.16.48-.37.63-.62s.23-.5.23-.74v-1.03Z"/>
    <path class="cls-11" d="m128.54,233.51h-2.89v-.36c.19-.06.33-.11.41-.15s.15-.1.21-.18.1-.2.13-.36.05-.41.05-.74v-1.92c0-.34,0-.65-.03-.93s-.05-.51-.1-.68c-.05-.18-.1-.32-.17-.42-.07-.1-.14-.19-.23-.26s-.19-.13-.31-.17-.27-.06-.46-.06-.37.04-.54.11-.36.21-.56.39-.35.37-.45.55-.14.39-.14.62v2.73c0,.42.02.71.06.88s.11.29.22.37c.11.09.29.16.54.22v.36h-2.87v-.36c.19-.06.33-.11.41-.15.08-.04.15-.1.21-.18.06-.08.1-.2.13-.36.03-.16.05-.41.05-.75v-3.19c0-.31,0-.56-.01-.75s-.04-.34-.1-.46-.15-.2-.27-.26c-.12-.06-.29-.1-.51-.14v-.39l1.71-.07h.45l-.08,1.19.1.03c.36-.37.65-.63.88-.78.22-.16.45-.28.67-.36.23-.09.47-.13.72-.13s.5.03.71.09.39.15.55.28c.16.13.29.28.39.47s.18.41.23.68c.05.26.08.6.08,1v2.76c0,.34,0,.58.03.73s.05.27.1.35.12.15.21.21.25.12.48.18v.36Z"/>
    <path class="cls-11" d="m134.72,225.55c0-.47,0-.8-.01-.98,0-.19-.03-.34-.06-.47-.03-.13-.08-.23-.13-.3-.06-.07-.13-.13-.23-.18-.09-.04-.27-.09-.52-.13v-.38l1.77-.07h.43v8.48c0,.38,0,.65.02.82s.05.29.1.39.13.18.23.24.29.12.55.17v.38l-1.73.07h-.44l.09-1.2-.11-.03c-.31.33-.58.57-.8.74-.23.16-.47.29-.73.39-.26.1-.53.15-.82.15-.8,0-1.42-.3-1.85-.91s-.65-1.49-.65-2.63c0-.8.14-1.48.42-2.04s.67-.98,1.15-1.25,1.02-.41,1.62-.41c.32,0,.62.03.88.08s.53.14.81.25v-1.16Zm0,3.62c0-.38-.02-.69-.05-.92s-.09-.42-.17-.58c-.08-.16-.19-.29-.33-.4s-.29-.19-.45-.23-.36-.07-.59-.07c-.62,0-1.1.25-1.43.75s-.49,1.22-.49,2.16.13,1.65.4,2.14.68.73,1.22.73c.21,0,.39-.02.53-.05s.28-.1.42-.18.28-.19.42-.33.25-.27.31-.39c.07-.12.12-.25.15-.4s.05-.35.05-.59v-1.64Z"/>
    <path class="cls-11" d="m143.38,227.73l.1.02c.27-.33.52-.58.75-.77s.48-.33.74-.44c.27-.1.57-.15.9-.15.28,0,.54.01.77.04v1.68h-.83c-.12-.26-.24-.46-.37-.57s-.31-.18-.54-.18c-.18,0-.35.05-.52.15s-.34.25-.5.45-.27.38-.33.55-.09.37-.09.61v2.56c0,.44.03.75.08.92s.14.29.27.37c.12.08.31.14.56.18v.36h-2.95v-.36c.19-.06.32-.11.4-.15.08-.04.15-.1.21-.18s.1-.2.13-.36.04-.41.04-.75v-3.19c0-.31,0-.56-.01-.75s-.04-.34-.1-.46-.15-.2-.27-.26c-.12-.06-.29-.1-.51-.14v-.38l1.71-.07h.45l-.08,1.28Z"/>
    <path class="cls-11" d="m153.24,232.27c-.31.33-.6.58-.86.77-.26.19-.55.33-.86.44s-.66.16-1.03.16c-1.01,0-1.77-.3-2.28-.9s-.77-1.49-.77-2.67c0-.73.13-1.37.39-1.93s.63-.99,1.12-1.29,1.04-.45,1.67-.45c.49,0,.91.08,1.26.23s.62.37.83.64.37.61.48,1.03.18.95.19,1.61h-4.61v.13c0,.58.06,1.06.19,1.45.13.39.34.7.64.92s.68.33,1.15.33c.4,0,.76-.07,1.08-.22.32-.15.64-.39.96-.73l.45.48Zm-1.23-2.97c-.03-.53-.1-.96-.2-1.29s-.26-.59-.46-.77-.47-.27-.81-.27c-.5,0-.9.2-1.21.6-.3.4-.48.98-.53,1.72h3.2Z"/>
    <path class="cls-11" d="m154.26,226.88c.24-.04.44-.11.59-.21s.27-.22.36-.38c.08-.15.15-.35.2-.58s.1-.57.15-1.01h1.04v1.81h2.37v.74h-2.37v3.26c0,.47.02.85.06,1.13s.11.5.22.66.23.27.37.34.31.1.53.1c.2,0,.38-.04.55-.12s.34-.2.51-.35l.33.4c-.35.34-.68.58-.99.73s-.63.23-.96.23c-.63,0-1.1-.19-1.41-.56s-.46-.96-.46-1.75v-4.06h-1.08v-.37Z"/>
    <path class="cls-11" d="m159.6,226.51h2.09v3.73c0,.57.02,1.01.07,1.3s.11.52.2.67.21.28.37.38.38.15.67.15c.19,0,.36-.04.53-.11s.36-.2.57-.38.36-.37.45-.55c.09-.18.14-.39.14-.63v-2.75c0-.28,0-.49-.02-.63s-.04-.25-.07-.34-.07-.16-.12-.21-.11-.1-.2-.15c-.09-.04-.22-.09-.41-.14v-.36h2.09v5c0,.38,0,.65.02.81s.05.3.1.4.12.18.23.24.29.12.55.17v.38l-1.68.07h-.45l.04-1.2-.11-.03c-.41.44-.79.76-1.16.97s-.74.31-1.11.31c-.44,0-.81-.09-1.1-.26s-.5-.44-.64-.79-.21-.84-.21-1.48v-2.77c0-.41-.02-.69-.05-.85-.03-.15-.09-.28-.18-.37s-.29-.17-.59-.25v-.36Z"/>
    <path class="cls-11" d="m170.04,227.73l.1.02c.27-.33.52-.58.75-.77s.48-.33.74-.44c.27-.1.57-.15.9-.15.28,0,.54.01.77.04v1.68h-.83c-.12-.26-.24-.46-.37-.57s-.31-.18-.54-.18c-.18,0-.35.05-.52.15s-.34.25-.5.45-.27.38-.33.55-.09.37-.09.61v2.56c0,.44.03.75.08.92s.14.29.27.37c.12.08.31.14.56.18v.36h-2.95v-.36c.19-.06.32-.11.4-.15.08-.04.15-.1.21-.18s.1-.2.13-.36.04-.41.04-.75v-3.19c0-.31,0-.56-.01-.75s-.04-.34-.1-.46-.15-.2-.27-.26c-.12-.06-.29-.1-.51-.14v-.38l1.71-.07h.45l-.08,1.28Z"/>
    <path class="cls-11" d="m181.4,233.51h-2.89v-.36c.19-.06.33-.11.41-.15s.15-.1.21-.18.1-.2.13-.36.05-.41.05-.74v-1.92c0-.34,0-.65-.03-.93s-.05-.51-.1-.68c-.05-.18-.1-.32-.17-.42-.07-.1-.14-.19-.23-.26s-.19-.13-.31-.17-.27-.06-.46-.06-.37.04-.54.11-.36.21-.56.39-.35.37-.45.55-.14.39-.14.62v2.73c0,.42.02.71.06.88s.11.29.22.37c.11.09.29.16.54.22v.36h-2.87v-.36c.19-.06.33-.11.41-.15.08-.04.15-.1.21-.18.06-.08.1-.2.13-.36.03-.16.05-.41.05-.75v-3.19c0-.31,0-.56-.01-.75s-.04-.34-.1-.46-.15-.2-.27-.26c-.12-.06-.29-.1-.51-.14v-.39l1.71-.07h.45l-.08,1.19.1.03c.36-.37.65-.63.88-.78.22-.16.45-.28.67-.36.23-.09.47-.13.72-.13s.5.03.71.09.39.15.55.28c.16.13.29.28.39.47s.18.41.23.68c.05.26.08.6.08,1v2.76c0,.34,0,.58.03.73s.05.27.1.35.12.15.21.21.25.12.48.18v.36Z"/>
    <path class="cls-11" d="m185.5,226.88c.24-.04.44-.11.59-.21s.27-.22.36-.38c.08-.15.15-.35.2-.58s.1-.57.15-1.01h1.04v1.81h2.37v.74h-2.37v3.26c0,.47.02.85.06,1.13s.11.5.22.66.23.27.37.34.31.1.53.1c.2,0,.38-.04.55-.12s.34-.2.51-.35l.33.4c-.35.34-.68.58-.99.73s-.63.23-.96.23c-.63,0-1.1-.19-1.41-.56s-.46-.96-.46-1.75v-4.06h-1.08v-.37Z"/>
    <path class="cls-11" d="m194.07,233.63c-1.02,0-1.79-.3-2.33-.9-.54-.6-.8-1.48-.8-2.66,0-.81.14-1.49.42-2.04.28-.56.67-.97,1.15-1.24s1.04-.41,1.67-.41c1.04,0,1.84.3,2.37.91s.81,1.48.81,2.62c0,.81-.13,1.49-.4,2.05s-.65.97-1.14,1.25-1.08.41-1.75.41Zm-1.74-3.71c0,1.01.16,1.78.48,2.32s.78.81,1.37.81c.33,0,.61-.08.83-.24s.42-.37.56-.64.25-.58.31-.93.1-.72.1-1.11c0-.72-.08-1.31-.24-1.79-.16-.47-.38-.82-.65-1.04s-.59-.33-.94-.33c-.59,0-1.04.26-1.36.77-.32.51-.47,1.24-.47,2.19Z"/>
    <path class="cls-11" d="m201.71,226.88c.24-.04.44-.11.59-.21s.27-.22.36-.38c.08-.15.15-.35.2-.58s.1-.57.15-1.01h1.04v1.81h2.37v.74h-2.37v3.26c0,.47.02.85.06,1.13s.11.5.22.66.23.27.37.34.31.1.53.1c.2,0,.38-.04.55-.12s.34-.2.51-.35l.33.4c-.35.34-.68.58-.99.73s-.63.23-.96.23c-.63,0-1.1-.19-1.41-.56s-.46-.96-.46-1.75v-4.06h-1.08v-.37Z"/>
    <path class="cls-11" d="m209.19,227.66h.03c.38-.38.68-.65.9-.8.22-.15.44-.27.66-.35.22-.08.45-.12.7-.12.27,0,.51.03.72.1s.39.16.55.29.29.29.39.48c.1.19.17.41.22.67s.07.59.07.99v2.76c0,.42.02.71.06.87.04.15.1.27.2.36.1.09.29.17.58.25v.36h-2.89v-.36c.19-.06.33-.11.41-.15s.15-.1.21-.18c.06-.08.1-.2.13-.36.03-.16.05-.41.05-.74v-1.92c0-.65-.03-1.15-.1-1.49-.07-.34-.2-.6-.39-.77-.19-.17-.46-.26-.81-.26-.2,0-.37.03-.53.1s-.34.19-.54.37-.36.36-.46.54c-.11.19-.16.38-.16.59v2.81c0,.33,0,.57.03.71.02.14.05.26.1.36s.12.17.22.23c.1.06.25.12.46.17v.36h-2.9v-.36c.21-.06.37-.11.46-.17s.16-.12.22-.21c.05-.08.09-.2.11-.36s.04-.4.04-.74v-6.13c0-.47,0-.8-.01-.98,0-.19-.03-.34-.06-.47s-.08-.23-.13-.3-.13-.13-.23-.18c-.1-.04-.27-.09-.52-.13v-.38l1.77-.07h.44v4.63Z"/>
    <path class="cls-11" d="m221.35,232.27c-.31.33-.6.58-.86.77-.26.19-.55.33-.86.44s-.66.16-1.03.16c-1.01,0-1.77-.3-2.28-.9s-.77-1.49-.77-2.67c0-.73.13-1.37.39-1.93s.63-.99,1.12-1.29,1.04-.45,1.67-.45c.49,0,.91.08,1.26.23s.62.37.83.64.37.61.48,1.03.18.95.19,1.61h-4.61v.13c0,.58.06,1.06.19,1.45.13.39.34.7.64.92s.68.33,1.15.33c.4,0,.76-.07,1.08-.22.32-.15.64-.39.96-.73l.45.48Zm-1.23-2.97c-.03-.53-.1-.96-.2-1.29s-.26-.59-.46-.77-.47-.27-.81-.27c-.5,0-.9.2-1.21.6-.3.4-.48.98-.53,1.72h3.2Z"/>
    <path class="cls-11" d="m222.82,233.15c.19-.06.33-.11.41-.15.08-.04.15-.1.21-.18.06-.08.1-.2.13-.36.03-.16.05-.41.05-.75v-3.19c0-.31,0-.56-.01-.75s-.04-.34-.1-.46-.15-.2-.27-.26c-.12-.06-.29-.1-.51-.14v-.39l1.71-.07h.45v5.24c0,.42.02.71.06.88s.11.29.22.37c.11.09.29.16.54.22v.36h-2.87v-.36Zm2.09-9.51v1.42h-1.35v-1.42h1.35Z"/>
    <path class="cls-11" d="m228.96,227.73l.1.02c.27-.33.52-.58.75-.77s.48-.33.74-.44c.27-.1.57-.15.9-.15.28,0,.54.01.77.04v1.68h-.83c-.12-.26-.24-.46-.37-.57s-.31-.18-.54-.18c-.18,0-.35.05-.52.15s-.34.25-.5.45-.27.38-.33.55-.09.37-.09.61v2.56c0,.44.03.75.08.92s.14.29.27.37c.12.08.31.14.56.18v.36h-2.95v-.36c.19-.06.32-.11.4-.15.08-.04.15-.1.21-.18s.1-.2.13-.36.04-.41.04-.75v-3.19c0-.31,0-.56-.01-.75s-.04-.34-.1-.46-.15-.2-.27-.26c-.12-.06-.29-.1-.51-.14v-.38l1.71-.07h.45l-.08,1.28Z"/>
    <path class="cls-11" d="m238.48,233.29v1.55c0,.32.01.55.03.71.02.16.06.28.12.37.06.09.14.16.24.22s.27.11.51.16v.36h-2.99v-.36c.18-.05.32-.1.43-.15.11-.05.19-.13.25-.23s.1-.24.12-.41.03-.4.03-.68v-6.28c0-.35,0-.6-.01-.75s-.03-.27-.06-.37-.07-.18-.13-.24c-.06-.06-.13-.12-.23-.16-.09-.04-.25-.09-.47-.13v-.39l1.72-.07h.45l-.1,1.19.11.03c.3-.31.54-.53.72-.67s.36-.26.55-.35.37-.16.54-.2.36-.06.55-.06c.81,0,1.42.3,1.86.9.43.6.65,1.49.65,2.65,0,.81-.12,1.48-.37,2.03s-.6.96-1.07,1.24-1.02.41-1.67.41c-.36,0-.69-.03-.98-.09s-.56-.14-.81-.25Zm0-2.42c0,.47.03.83.09,1.08s.16.46.31.62c.15.16.32.28.53.35.2.08.47.12.8.12.59,0,1.04-.25,1.33-.74s.45-1.21.45-2.17c0-1.91-.56-2.87-1.68-2.87-.27,0-.51.04-.71.13-.2.09-.39.22-.59.41s-.33.38-.41.55c-.08.18-.12.37-.12.57v1.93Z"/>
    <path class="cls-11" d="m246.81,227.73l.1.02c.27-.33.52-.58.75-.77s.48-.33.74-.44c.27-.1.57-.15.9-.15.28,0,.54.01.77.04v1.68h-.83c-.12-.26-.24-.46-.37-.57s-.31-.18-.54-.18c-.18,0-.35.05-.52.15s-.34.25-.5.45-.27.38-.33.55-.09.37-.09.61v2.56c0,.44.03.75.08.92s.14.29.27.37c.12.08.31.14.56.18v.36h-2.95v-.36c.19-.06.32-.11.4-.15.08-.04.15-.1.21-.18s.1-.2.13-.36.04-.41.04-.75v-3.19c0-.31,0-.56-.01-.75s-.04-.34-.1-.46-.15-.2-.27-.26c-.12-.06-.29-.1-.51-.14v-.38l1.71-.07h.45l-.08,1.28Z"/>
    <path class="cls-11" d="m256.67,232.27c-.31.33-.6.58-.86.77-.26.19-.55.33-.86.44s-.66.16-1.03.16c-1.01,0-1.77-.3-2.28-.9s-.77-1.49-.77-2.67c0-.73.13-1.37.39-1.93s.63-.99,1.12-1.29,1.04-.45,1.67-.45c.49,0,.91.08,1.26.23s.62.37.83.64.37.61.48,1.03.18.95.19,1.61h-4.61v.13c0,.58.06,1.06.19,1.45.13.39.34.7.64.92s.68.33,1.15.33c.4,0,.76-.07,1.08-.22.32-.15.64-.39.96-.73l.45.48Zm-1.23-2.97c-.03-.53-.1-.96-.2-1.29s-.26-.59-.46-.77-.47-.27-.81-.27c-.5,0-.9.2-1.21.6-.3.4-.48.98-.53,1.72h3.2Z"/>
    <path class="cls-11" d="m260.4,226.51v.36c-.22.05-.38.1-.48.15s-.16.11-.21.19-.07.18-.07.31.02.27.05.41c.03.14.08.31.15.5l1.27,3.71,1.49-3.55c.1-.23.17-.43.21-.58s.06-.29.06-.42c0-.21-.06-.36-.16-.47-.11-.11-.31-.19-.6-.26v-.36h2.74v.36c-.19.04-.34.1-.44.18s-.21.21-.31.38-.22.42-.37.73l-2.47,5.43h-.86l-1.98-5.47c-.14-.38-.25-.63-.33-.77-.08-.14-.17-.24-.26-.31-.09-.07-.23-.12-.41-.16v-.36h2.99Z"/>
    <path class="cls-11" d="m265.55,233.15c.19-.06.33-.11.41-.15.08-.04.15-.1.21-.18.06-.08.1-.2.13-.36.03-.16.05-.41.05-.75v-3.19c0-.31,0-.56-.01-.75s-.04-.34-.1-.46-.15-.2-.27-.26c-.12-.06-.29-.1-.51-.14v-.39l1.71-.07h.45v5.24c0,.42.02.71.06.88s.11.29.22.37c.11.09.29.16.54.22v.36h-2.87v-.36Zm2.09-9.51v1.42h-1.35v-1.42h1.35Z"/>
    <path class="cls-11" d="m272.9,233.63c-1.02,0-1.79-.3-2.33-.9-.54-.6-.8-1.48-.8-2.66,0-.81.14-1.49.42-2.04.28-.56.67-.97,1.15-1.24s1.04-.41,1.67-.41c1.04,0,1.84.3,2.37.91s.81,1.48.81,2.62c0,.81-.13,1.49-.4,2.05s-.65.97-1.14,1.25-1.08.41-1.75.41Zm-1.74-3.71c0,1.01.16,1.78.48,2.32s.78.81,1.37.81c.33,0,.61-.08.83-.24s.42-.37.56-.64.25-.58.31-.93.1-.72.1-1.11c0-.72-.08-1.31-.24-1.79-.16-.47-.38-.82-.65-1.04s-.59-.33-.94-.33c-.59,0-1.04.26-1.36.77-.32.51-.47,1.24-.47,2.19Z"/>
    <path class="cls-11" d="m277.5,226.51h2.09v3.73c0,.57.02,1.01.07,1.3s.11.52.2.67.21.28.37.38.38.15.67.15c.19,0,.36-.04.53-.11s.36-.2.57-.38.36-.37.45-.55c.09-.18.14-.39.14-.63v-2.75c0-.28,0-.49-.02-.63s-.04-.25-.07-.34-.07-.16-.12-.21-.11-.1-.2-.15c-.09-.04-.22-.09-.41-.14v-.36h2.09v5c0,.38,0,.65.02.81s.05.3.1.4.12.18.23.24.29.12.55.17v.38l-1.68.07h-.45l.04-1.2-.11-.03c-.41.44-.79.76-1.16.97s-.74.31-1.11.31c-.44,0-.81-.09-1.1-.26s-.5-.44-.64-.79-.21-.84-.21-1.48v-2.77c0-.41-.02-.69-.05-.85-.03-.15-.09-.28-.18-.37s-.29-.17-.59-.25v-.36Z"/>
    <path class="cls-11" d="m290.87,228.11h-.7c-.11-.29-.23-.52-.38-.69s-.31-.29-.5-.36-.41-.1-.68-.1c-.39,0-.7.09-.93.27-.23.18-.35.43-.35.75,0,.22.05.41.14.56s.24.28.43.41.54.3,1.03.51c.5.21.88.41,1.15.59.27.18.48.39.64.63.15.24.23.52.23.86,0,.39-.07.71-.2.97s-.32.48-.56.64-.52.29-.85.36c-.33.07-.69.11-1.08.11-.41,0-.81-.03-1.19-.09s-.76-.14-1.13-.24v-1.53h.72c.13.45.33.78.59.98s.62.3,1.07.3c.18,0,.35-.02.52-.05.17-.04.32-.1.45-.18s.24-.2.31-.35.12-.33.12-.55c0-.25-.05-.45-.15-.61s-.25-.3-.45-.43-.57-.3-1.08-.52c-.44-.19-.8-.37-1.07-.54s-.48-.38-.63-.62c-.15-.24-.23-.52-.23-.85,0-.4.11-.75.33-1.04s.53-.52.94-.68.89-.23,1.44-.23c.32,0,.63.02.93.05.3.03.68.09,1.13.19v1.49Z"/>
    <path class="cls-11" d="m297.69,233.29v1.55c0,.32.01.55.03.71.02.16.06.28.12.37.06.09.14.16.24.22s.27.11.51.16v.36h-2.99v-.36c.18-.05.32-.1.43-.15.11-.05.19-.13.25-.23s.1-.24.12-.41.03-.4.03-.68v-6.28c0-.35,0-.6-.01-.75s-.03-.27-.06-.37-.07-.18-.13-.24c-.06-.06-.13-.12-.23-.16-.09-.04-.25-.09-.47-.13v-.39l1.72-.07h.45l-.1,1.19.11.03c.3-.31.54-.53.72-.67s.36-.26.55-.35.37-.16.54-.2.36-.06.55-.06c.81,0,1.42.3,1.86.9.43.6.65,1.49.65,2.65,0,.81-.12,1.48-.37,2.03s-.6.96-1.07,1.24-1.02.41-1.67.41c-.36,0-.69-.03-.98-.09s-.56-.14-.81-.25Zm0-2.42c0,.47.03.83.09,1.08s.16.46.31.62c.15.16.32.28.53.35.2.08.47.12.8.12.59,0,1.04-.25,1.33-.74s.45-1.21.45-2.17c0-1.91-.56-2.87-1.68-2.87-.27,0-.51.04-.71.13-.2.09-.39.22-.59.41s-.33.38-.41.55c-.08.18-.12.37-.12.57v1.93Z"/>
    <path class="cls-11" d="m307.23,233.63c-1.02,0-1.79-.3-2.33-.9-.54-.6-.8-1.48-.8-2.66,0-.81.14-1.49.42-2.04.28-.56.67-.97,1.15-1.24s1.04-.41,1.67-.41c1.04,0,1.84.3,2.37.91s.81,1.48.81,2.62c0,.81-.13,1.49-.4,2.05s-.65.97-1.14,1.25-1.08.41-1.75.41Zm-1.74-3.71c0,1.01.16,1.78.48,2.32s.78.81,1.37.81c.33,0,.61-.08.83-.24s.42-.37.56-.64.25-.58.31-.93.1-.72.1-1.11c0-.72-.08-1.31-.24-1.79-.16-.47-.38-.82-.65-1.04s-.59-.33-.94-.33c-.59,0-1.04.26-1.36.77-.32.51-.47,1.24-.47,2.19Z"/>
    <path class="cls-11" d="m316.92,228.11h-.7c-.11-.29-.23-.52-.38-.69s-.31-.29-.5-.36-.41-.1-.68-.1c-.39,0-.7.09-.93.27-.23.18-.35.43-.35.75,0,.22.05.41.14.56s.24.28.43.41.54.3,1.03.51c.5.21.88.41,1.15.59.27.18.48.39.64.63.15.24.23.52.23.86,0,.39-.07.71-.2.97s-.32.48-.56.64-.52.29-.85.36c-.33.07-.69.11-1.08.11-.41,0-.81-.03-1.19-.09s-.76-.14-1.13-.24v-1.53h.72c.13.45.33.78.59.98s.62.3,1.07.3c.18,0,.35-.02.52-.05.17-.04.32-.1.45-.18s.24-.2.31-.35.12-.33.12-.55c0-.25-.05-.45-.15-.61s-.25-.3-.45-.43-.57-.3-1.08-.52c-.44-.19-.8-.37-1.07-.54s-.48-.38-.63-.62c-.15-.24-.23-.52-.23-.85,0-.4.11-.75.33-1.04s.53-.52.94-.68.89-.23,1.44-.23c.32,0,.63.02.93.05.3.03.68.09,1.13.19v1.49Z"/>
    <path class="cls-11" d="m318.46,233.15c.19-.06.33-.11.41-.15.08-.04.15-.1.21-.18.06-.08.1-.2.13-.36.03-.16.05-.41.05-.75v-3.19c0-.31,0-.56-.01-.75s-.04-.34-.1-.46-.15-.2-.27-.26c-.12-.06-.29-.1-.51-.14v-.39l1.71-.07h.45v5.24c0,.42.02.71.06.88s.11.29.22.37c.11.09.29.16.54.22v.36h-2.87v-.36Zm2.09-9.51v1.42h-1.35v-1.42h1.35Z"/>
    <path class="cls-11" d="m322.18,226.88c.24-.04.44-.11.59-.21s.27-.22.36-.38c.08-.15.15-.35.2-.58s.1-.57.15-1.01h1.04v1.81h2.37v.74h-2.37v3.26c0,.47.02.85.06,1.13s.11.5.22.66.23.27.37.34.31.1.53.1c.2,0,.38-.04.55-.12s.34-.2.51-.35l.33.4c-.35.34-.68.58-.99.73s-.63.23-.96.23c-.63,0-1.1-.19-1.41-.56s-.46-.96-.46-1.75v-4.06h-1.08v-.37Z"/>
    <path class="cls-11" d="m327.7,233.15c.19-.06.33-.11.41-.15.08-.04.15-.1.21-.18.06-.08.1-.2.13-.36.03-.16.05-.41.05-.75v-3.19c0-.31,0-.56-.01-.75s-.04-.34-.1-.46-.15-.2-.27-.26c-.12-.06-.29-.1-.51-.14v-.39l1.71-.07h.45v5.24c0,.42.02.71.06.88s.11.29.22.37c.11.09.29.16.54.22v.36h-2.87v-.36Zm2.09-9.51v1.42h-1.35v-1.42h1.35Z"/>
    <path class="cls-11" d="m335.05,233.63c-1.02,0-1.79-.3-2.33-.9-.54-.6-.8-1.48-.8-2.66,0-.81.14-1.49.42-2.04.28-.56.67-.97,1.15-1.24s1.04-.41,1.67-.41c1.04,0,1.84.3,2.37.91s.81,1.48.81,2.62c0,.81-.13,1.49-.4,2.05s-.65.97-1.14,1.25-1.08.41-1.75.41Zm-1.74-3.71c0,1.01.16,1.78.48,2.32s.78.81,1.37.81c.33,0,.61-.08.83-.24s.42-.37.56-.64.25-.58.31-.93.1-.72.1-1.11c0-.72-.08-1.31-.24-1.79-.16-.47-.38-.82-.65-1.04s-.59-.33-.94-.33c-.59,0-1.04.26-1.36.77-.32.51-.47,1.24-.47,2.19Z"/>
    <path class="cls-11" d="m346.96,233.51h-2.89v-.36c.19-.06.33-.11.41-.15s.15-.1.21-.18.1-.2.13-.36.05-.41.05-.74v-1.92c0-.34,0-.65-.03-.93s-.05-.51-.1-.68c-.05-.18-.1-.32-.17-.42-.07-.1-.14-.19-.23-.26s-.19-.13-.31-.17-.27-.06-.46-.06-.37.04-.54.11-.36.21-.56.39-.35.37-.45.55-.14.39-.14.62v2.73c0,.42.02.71.06.88s.11.29.22.37c.11.09.29.16.54.22v.36h-2.87v-.36c.19-.06.33-.11.41-.15.08-.04.15-.1.21-.18.06-.08.1-.2.13-.36.03-.16.05-.41.05-.75v-3.19c0-.31,0-.56-.01-.75s-.04-.34-.1-.46-.15-.2-.27-.26c-.12-.06-.29-.1-.51-.14v-.39l1.71-.07h.45l-.08,1.19.1.03c.36-.37.65-.63.88-.78.22-.16.45-.28.67-.36.23-.09.47-.13.72-.13s.5.03.71.09.39.15.55.28c.16.13.29.28.39.47s.18.41.23.68c.05.26.08.6.08,1v2.76c0,.34,0,.58.03.73s.05.27.1.35.12.15.21.21.25.12.48.18v.36Z"/>
    <path class="cls-11" d="m349.75,231.81c.07.34.1.68.1,1.01s-.06.65-.18.94-.3.57-.56.85c-.26.28-.61.59-1.06.93l-.4-.45c.25-.23.43-.45.54-.63s.19-.4.24-.64.07-.54.07-.9-.02-.74-.05-1.1h1.28Z"/>
    <path class="cls-11" d="m358.81,232.47l-.11-.03c-.42.43-.82.74-1.2.92-.37.18-.77.27-1.19.27-.37,0-.7-.07-.98-.22s-.5-.35-.65-.61-.23-.56-.23-.9c0-.71.35-1.26,1.06-1.65.71-.39,1.76-.61,3.17-.68v-.48c0-.51-.05-.91-.15-1.2s-.25-.51-.46-.64-.49-.21-.84-.21c-.38,0-.69.1-.92.3-.23.2-.41.5-.52.9h-.96v-.95c.47-.24.86-.42,1.17-.54s.62-.21.94-.27.63-.1.95-.1c.48,0,.87.08,1.16.23s.51.39.66.71.22.8.22,1.44v2.55c0,.36,0,.62,0,.77s.02.29.04.41.06.23.11.3.12.14.22.19c.09.05.25.11.46.17v.36h-2.01l.04-1.05Zm-.12-2.29c-.99,0-1.73.14-2.23.4s-.74.64-.74,1.15c0,.28.06.5.17.66s.25.27.42.33.37.09.61.09c.33,0,.63-.08.9-.24.27-.16.48-.37.63-.62s.23-.5.23-.74v-1.03Z"/>
    <path class="cls-11" d="m366.81,228.11h-.7c-.11-.29-.23-.52-.38-.69s-.31-.29-.5-.36-.41-.1-.68-.1c-.39,0-.7.09-.93.27-.23.18-.35.43-.35.75,0,.22.05.41.14.56s.24.28.43.41.54.3,1.03.51c.5.21.88.41,1.15.59.27.18.48.39.64.63.15.24.23.52.23.86,0,.39-.07.71-.2.97s-.32.48-.56.64-.52.29-.85.36c-.33.07-.69.11-1.08.11-.41,0-.81-.03-1.19-.09s-.76-.14-1.13-.24v-1.53h.72c.13.45.33.78.59.98s.62.3,1.07.3c.18,0,.35-.02.52-.05.17-.04.32-.1.45-.18s.24-.2.31-.35.12-.33.12-.55c0-.25-.05-.45-.15-.61s-.25-.3-.45-.43-.57-.3-1.08-.52c-.44-.19-.8-.37-1.07-.54s-.48-.38-.63-.62c-.15-.24-.23-.52-.23-.85,0-.4.11-.75.33-1.04s.53-.52.94-.68.89-.23,1.44-.23c.32,0,.63.02.93.05.3.03.68.09,1.13.19v1.49Z"/>
    <path class="cls-11" d="m371.65,233.15c.19-.06.33-.11.41-.15.08-.04.15-.1.21-.18.06-.08.1-.2.13-.36.03-.16.05-.41.05-.75v-3.19c0-.31,0-.56-.01-.75s-.04-.34-.1-.46-.15-.2-.27-.26c-.12-.06-.29-.1-.51-.14v-.39l1.71-.07h.45v5.24c0,.42.02.71.06.88s.11.29.22.37c.11.09.29.16.54.22v.36h-2.87v-.36Zm2.09-9.51v1.42h-1.35v-1.42h1.35Z"/>
    <path class="cls-11" d="m379.58,227.25h-1.75v4.43c0,.33.02.57.05.74.03.17.08.29.14.38s.14.15.24.21c.1.05.26.1.48.15v.36h-3v-.36c.21-.06.37-.11.46-.17s.17-.12.22-.21c.05-.08.09-.2.11-.36s.04-.4.04-.74v-4.43h-.89v-.37c.19-.03.31-.05.37-.07s.12-.04.18-.08.1-.08.15-.15.08-.16.11-.28c.03-.12.06-.3.08-.52.04-.53.14-.96.29-1.3.15-.33.37-.62.65-.85.29-.23.59-.4.92-.49.32-.1.71-.14,1.15-.14.39,0,.71.03.98.08v1.33h-.73c-.09-.29-.2-.49-.33-.61-.12-.12-.3-.18-.52-.18-.16,0-.3.02-.41.07-.11.04-.21.11-.3.21s-.17.22-.24.37c-.07.16-.12.35-.15.58-.03.23-.05.53-.05.9v.77h1.75v.74Z"/>
    <path class="cls-11" d="m390.23,227.25l-1.35-.05-.07.08c.15.15.27.36.36.62s.13.54.13.85c0,.8-.25,1.41-.74,1.84-.49.43-1.19.65-2.09.65-.41,0-.75-.05-1.05-.15-.37.28-.56.56-.56.83,0,.18.04.32.11.41.07.09.19.16.35.2.16.04.41.06.74.06h1.76c.52,0,.94.08,1.27.24s.56.38.7.65c.14.27.21.59.21.95,0,.46-.13.87-.4,1.23s-.64.64-1.14.84-1.08.3-1.74.3c-.49,0-.94-.03-1.35-.09-.41-.06-.76-.16-1.05-.3s-.52-.32-.67-.55-.24-.51-.24-.85c0-.31.1-.59.31-.84s.5-.47.87-.66c-.23-.09-.41-.23-.54-.41s-.2-.39-.2-.64c0-.28.08-.53.23-.77s.43-.5.83-.79c-.35-.21-.62-.48-.8-.83-.18-.35-.27-.75-.27-1.2,0-.42.07-.78.21-1.09.14-.31.33-.57.58-.77.25-.2.54-.35.88-.45s.7-.15,1.09-.15c.35,0,.7.04,1.05.12h2.59v.74Zm-4.9,6.38c-.25.19-.44.38-.56.59-.12.21-.19.44-.19.71,0,.44.17.76.52.97.35.21.88.31,1.6.31.44,0,.82-.06,1.13-.18.32-.12.56-.29.72-.51s.25-.48.25-.77c0-.14-.02-.27-.05-.4s-.1-.25-.19-.35c-.1-.1-.23-.18-.41-.25s-.41-.09-.69-.09h-1.09c-.4,0-.74-.01-1.05-.04Zm-.18-4.89c0,.61.12,1.08.37,1.41s.61.5,1.08.5c.25,0,.46-.05.64-.14s.32-.23.43-.39c.11-.17.19-.36.24-.57.05-.22.08-.45.08-.69,0-.43-.06-.79-.18-1.08s-.29-.5-.5-.63-.45-.2-.73-.2c-.46,0-.82.15-1.06.46s-.37.75-.37,1.33Z"/>
    <path class="cls-11" d="m394.26,233.63c-1.02,0-1.79-.3-2.33-.9-.54-.6-.8-1.48-.8-2.66,0-.81.14-1.49.42-2.04.28-.56.67-.97,1.15-1.24s1.04-.41,1.67-.41c1.04,0,1.84.3,2.37.91s.81,1.48.81,2.62c0,.81-.13,1.49-.4,2.05s-.65.97-1.14,1.25-1.08.41-1.75.41Zm-1.74-3.71c0,1.01.16,1.78.48,2.32s.78.81,1.37.81c.33,0,.61-.08.83-.24s.42-.37.56-.64.25-.58.31-.93.1-.72.1-1.11c0-.72-.08-1.31-.24-1.79-.16-.47-.38-.82-.65-1.04s-.59-.33-.94-.33c-.59,0-1.04.26-1.36.77-.32.51-.47,1.24-.47,2.19Z"/>
    <path class="cls-11" d="m399.04,233.15c.19-.06.33-.11.41-.15.08-.04.15-.1.21-.18.06-.08.1-.2.13-.36.03-.16.05-.41.05-.75v-3.19c0-.31,0-.56-.01-.75s-.04-.34-.1-.46-.15-.2-.27-.26c-.12-.06-.29-.1-.51-.14v-.39l1.71-.07h.45v5.24c0,.42.02.71.06.88s.11.29.22.37c.11.09.29.16.54.22v.36h-2.87v-.36Zm2.09-9.51v1.42h-1.35v-1.42h1.35Z"/>
    <path class="cls-11" d="m410.34,233.51h-2.89v-.36c.19-.06.33-.11.41-.15s.15-.1.21-.18.1-.2.13-.36.05-.41.05-.74v-1.92c0-.34,0-.65-.03-.93s-.05-.51-.1-.68c-.05-.18-.1-.32-.17-.42-.07-.1-.14-.19-.23-.26s-.19-.13-.31-.17-.27-.06-.46-.06-.37.04-.54.11-.36.21-.56.39-.35.37-.45.55-.14.39-.14.62v2.73c0,.42.02.71.06.88s.11.29.22.37c.11.09.29.16.54.22v.36h-2.87v-.36c.19-.06.33-.11.41-.15.08-.04.15-.1.21-.18.06-.08.1-.2.13-.36.03-.16.05-.41.05-.75v-3.19c0-.31,0-.56-.01-.75s-.04-.34-.1-.46-.15-.2-.27-.26c-.12-.06-.29-.1-.51-.14v-.39l1.71-.07h.45l-.08,1.19.1.03c.36-.37.65-.63.88-.78.22-.16.45-.28.67-.36.23-.09.47-.13.72-.13s.5.03.71.09.39.15.55.28c.16.13.29.28.39.47s.18.41.23.68c.05.26.08.6.08,1v2.76c0,.34,0,.58.03.73s.05.27.1.35.12.15.21.21.25.12.48.18v.36Z"/>
    <path class="cls-11" d="m418.15,227.25l-1.35-.05-.07.08c.15.15.27.36.36.62s.13.54.13.85c0,.8-.25,1.41-.74,1.84-.49.43-1.19.65-2.09.65-.41,0-.75-.05-1.05-.15-.37.28-.56.56-.56.83,0,.18.04.32.11.41.07.09.19.16.35.2.16.04.41.06.74.06h1.76c.52,0,.94.08,1.27.24s.56.38.7.65c.14.27.21.59.21.95,0,.46-.13.87-.4,1.23s-.64.64-1.14.84-1.08.3-1.74.3c-.49,0-.94-.03-1.35-.09-.41-.06-.76-.16-1.05-.3s-.52-.32-.67-.55-.24-.51-.24-.85c0-.31.1-.59.31-.84s.5-.47.87-.66c-.23-.09-.41-.23-.54-.41s-.2-.39-.2-.64c0-.28.08-.53.23-.77s.43-.5.83-.79c-.35-.21-.62-.48-.8-.83-.18-.35-.27-.75-.27-1.2,0-.42.07-.78.21-1.09.14-.31.33-.57.58-.77.25-.2.54-.35.88-.45s.7-.15,1.09-.15c.35,0,.7.04,1.05.12h2.59v.74Zm-4.9,6.38c-.25.19-.44.38-.56.59-.12.21-.19.44-.19.71,0,.44.17.76.52.97.35.21.88.31,1.6.31.44,0,.82-.06,1.13-.18.32-.12.56-.29.72-.51s.25-.48.25-.77c0-.14-.02-.27-.05-.4s-.1-.25-.19-.35c-.1-.1-.23-.18-.41-.25s-.41-.09-.69-.09h-1.09c-.4,0-.74-.01-1.05-.04Zm-.18-4.89c0,.61.12,1.08.37,1.41s.61.5,1.08.5c.25,0,.46-.05.64-.14s.32-.23.43-.39c.11-.17.19-.36.24-.57.05-.22.08-.45.08-.69,0-.43-.06-.79-.18-1.08s-.29-.5-.5-.63-.45-.2-.73-.2c-.46,0-.82.15-1.06.46s-.37.75-.37,1.33Z"/>
    <path class="cls-11" d="m424.14,227.66h.03c.34-.35.63-.61.85-.77.23-.16.46-.28.7-.37.24-.09.51-.13.79-.13.52,0,.97.13,1.34.4.37.27.66.67.86,1.2s.3,1.18.3,1.96-.12,1.47-.36,2.02c-.24.55-.6.96-1.07,1.25s-1.03.42-1.67.42c-.36,0-.7-.03-1.02-.1s-.66-.18-1.01-.35l-.51.45-.51-.12v-7.96c0-.47,0-.8-.01-.98,0-.19-.03-.34-.06-.47s-.08-.23-.13-.3-.13-.13-.23-.18c-.1-.04-.27-.09-.52-.13v-.38l1.77-.07h.43v4.63Zm0,3.22c0,.38.02.68.05.9s.09.41.17.55c.08.15.2.28.35.4.15.12.33.21.52.25s.4.07.64.07c.59,0,1.03-.24,1.33-.72s.45-1.2.45-2.15-.14-1.69-.41-2.18c-.28-.49-.69-.73-1.25-.73-.28,0-.52.04-.71.13s-.39.22-.58.4-.33.36-.42.53-.14.38-.14.6v1.94Z"/>
    <path class="cls-11" d="m434.73,232.47l-.11-.03c-.42.43-.82.74-1.2.92-.37.18-.77.27-1.19.27-.37,0-.7-.07-.98-.22s-.5-.35-.65-.61-.23-.56-.23-.9c0-.71.35-1.26,1.06-1.65.71-.39,1.76-.61,3.17-.68v-.48c0-.51-.05-.91-.15-1.2s-.25-.51-.46-.64-.49-.21-.84-.21c-.38,0-.69.1-.92.3-.23.2-.41.5-.52.9h-.96v-.95c.47-.24.86-.42,1.17-.54s.62-.21.94-.27.63-.1.95-.1c.48,0,.87.08,1.16.23s.51.39.66.71.22.8.22,1.44v2.55c0,.36,0,.62,0,.77s.02.29.04.41.06.23.11.3.12.14.22.19c.09.05.25.11.46.17v.36h-2.01l.04-1.05Zm-.12-2.29c-.99,0-1.73.14-2.23.4s-.74.64-.74,1.15c0,.28.06.5.17.66s.25.27.42.33.37.09.61.09c.33,0,.63-.08.9-.24.27-.16.48-.37.63-.62s.23-.5.23-.74v-1.03Z"/>
    <path class="cls-11" d="m443.28,226.68v1.53h-.93c-.08-.32-.19-.57-.31-.75s-.26-.31-.42-.38-.36-.11-.6-.11c-.34,0-.64.11-.91.33s-.47.55-.63,1c-.15.45-.23,1-.23,1.65,0,.42.03.79.09,1.14s.16.64.3.88.33.43.56.57.52.21.87.21.65-.07.94-.2.59-.36.9-.7l.42.48c-.25.27-.47.48-.66.63s-.39.27-.61.37c-.22.1-.43.17-.64.22-.21.05-.44.07-.69.07-.92,0-1.63-.31-2.12-.92s-.73-1.5-.73-2.66c0-.72.14-1.36.41-1.92s.66-.99,1.15-1.29,1.06-.45,1.71-.45c.4,0,.77.02,1.11.07.34.05.68.12,1.02.22Z"/>
    <path class="cls-11" d="m446.4,229.43h.23c.16,0,.29-.02.4-.05.12-.04.26-.12.4-.22s.35-.28.62-.53c.22-.21.39-.39.51-.53s.19-.28.24-.4c.04-.1.06-.21.06-.31,0-.15-.05-.26-.14-.34s-.24-.14-.44-.17v-.36h3.16v.36c-.22.04-.46.14-.72.3s-.52.36-.78.62l-1.68,1.6,2.11,2.75c.24.32.47.56.66.71.2.15.41.25.65.3v.36h-2.81v-.36c.13-.01.22-.04.28-.08.06-.04.09-.11.09-.21,0-.07-.01-.15-.04-.22s-.08-.17-.16-.29-.23-.33-.45-.64l-.87-1.17c-.17-.22-.28-.36-.36-.43s-.15-.12-.22-.15-.18-.04-.31-.04h-.41v1.76c0,.42.02.71.06.88s.11.29.22.37c.11.09.29.16.54.22v.36h-2.91v-.36c.24-.06.41-.13.51-.2.09-.07.16-.15.21-.25.04-.1.07-.22.09-.39.02-.16.03-.38.03-.64v-6.13c0-.47,0-.8-.01-.98,0-.19-.03-.34-.06-.47-.03-.13-.08-.23-.13-.3-.06-.07-.13-.13-.23-.18-.09-.04-.27-.09-.52-.13v-.38l1.77-.07h.44v6.4Z"/>
    <path class="cls-11" d="m457.44,228.04l-1.92,5.51h-1.02l-1.76-5.43c-.11-.35-.21-.6-.28-.74-.08-.14-.16-.25-.24-.32s-.22-.13-.41-.18v-.36h2.89v.36c-.28.06-.48.14-.58.23s-.15.24-.15.43c0,.13.01.27.04.41s.07.31.13.5l1.15,3.74,1.88-5.67h1.03l1.6,5.67,1.29-3.58c.07-.19.12-.36.17-.53s.07-.33.07-.47c0-.21-.05-.36-.17-.48-.11-.11-.3-.2-.56-.25v-.36h2.56v.36c-.14.03-.24.07-.31.11s-.14.09-.2.16c-.07.07-.14.18-.22.33-.08.15-.18.38-.3.69l-2.12,5.39h-.99l-1.59-5.51Z"/>
    <path class="cls-11" d="m467.88,232.47l-.11-.03c-.42.43-.82.74-1.2.92-.37.18-.77.27-1.19.27-.37,0-.7-.07-.98-.22s-.5-.35-.65-.61-.23-.56-.23-.9c0-.71.35-1.26,1.06-1.65.71-.39,1.76-.61,3.17-.68v-.48c0-.51-.05-.91-.15-1.2s-.25-.51-.46-.64-.49-.21-.84-.21c-.38,0-.69.1-.92.3-.23.2-.41.5-.52.9h-.96v-.95c.47-.24.86-.42,1.17-.54s.62-.21.94-.27.63-.1.95-.1c.48,0,.87.08,1.16.23s.51.39.66.71.22.8.22,1.44v2.55c0,.36,0,.62,0,.77s.02.29.04.41.06.23.11.3.12.14.22.19c.09.05.25.11.46.17v.36h-2.01l.04-1.05Zm-.12-2.29c-.99,0-1.73.14-2.23.4s-.74.64-.74,1.15c0,.28.06.5.17.66s.25.27.42.33.37.09.61.09c.33,0,.63-.08.9-.24.27-.16.48-.37.63-.62s.23-.5.23-.74v-1.03Z"/>
    <path class="cls-11" d="m472.95,227.73l.1.02c.27-.33.52-.58.75-.77s.48-.33.74-.44c.27-.1.57-.15.9-.15.28,0,.54.01.77.04v1.68h-.83c-.12-.26-.24-.46-.37-.57s-.31-.18-.54-.18c-.18,0-.35.05-.52.15s-.34.25-.5.45-.27.38-.33.55-.09.37-.09.61v2.56c0,.44.03.75.08.92s.14.29.27.37c.12.08.31.14.56.18v.36h-2.95v-.36c.19-.06.32-.11.4-.15.08-.04.15-.1.21-.18s.1-.2.13-.36.04-.41.04-.75v-3.19c0-.31,0-.56-.01-.75s-.04-.34-.1-.46-.15-.2-.27-.26c-.12-.06-.29-.1-.51-.14v-.38l1.71-.07h.45l-.08,1.28Z"/>
    <path class="cls-11" d="m481.9,225.55c0-.47,0-.8-.01-.98,0-.19-.03-.34-.06-.47-.03-.13-.08-.23-.13-.3-.06-.07-.13-.13-.23-.18-.09-.04-.27-.09-.52-.13v-.38l1.77-.07h.43v8.48c0,.38,0,.65.02.82s.05.29.1.39.13.18.23.24.29.12.55.17v.38l-1.73.07h-.44l.09-1.2-.11-.03c-.31.33-.58.57-.8.74-.23.16-.47.29-.73.39-.26.1-.53.15-.82.15-.8,0-1.42-.3-1.85-.91s-.65-1.49-.65-2.63c0-.8.14-1.48.42-2.04s.67-.98,1.15-1.25,1.02-.41,1.62-.41c.32,0,.62.03.88.08s.53.14.81.25v-1.16Zm0,3.62c0-.38-.02-.69-.05-.92s-.09-.42-.17-.58c-.08-.16-.19-.29-.33-.4s-.29-.19-.45-.23-.36-.07-.59-.07c-.62,0-1.1.25-1.43.75s-.49,1.22-.49,2.16.13,1.65.4,2.14.68.73,1.22.73c.21,0,.39-.02.53-.05s.28-.1.42-.18.28-.19.42-.33.25-.27.31-.39c.07-.12.12-.25.15-.4s.05-.35.05-.59v-1.64Z"/>
    <path class="cls-11" d="m490.18,228.11h-.7c-.11-.29-.23-.52-.38-.69s-.31-.29-.5-.36-.41-.1-.68-.1c-.39,0-.7.09-.93.27-.23.18-.35.43-.35.75,0,.22.05.41.14.56s.24.28.43.41.54.3,1.03.51c.5.21.88.41,1.15.59.27.18.48.39.64.63.15.24.23.52.23.86,0,.39-.07.71-.2.97s-.32.48-.56.64-.52.29-.85.36c-.33.07-.69.11-1.08.11-.41,0-.81-.03-1.19-.09s-.76-.14-1.13-.24v-1.53h.72c.13.45.33.78.59.98s.62.3,1.07.3c.18,0,.35-.02.52-.05.17-.04.32-.1.45-.18s.24-.2.31-.35.12-.33.12-.55c0-.25-.05-.45-.15-.61s-.25-.3-.45-.43-.57-.3-1.08-.52c-.44-.19-.8-.37-1.07-.54s-.48-.38-.63-.62c-.15-.24-.23-.52-.23-.85,0-.4.11-.75.33-1.04s.53-.52.94-.68.89-.23,1.44-.23c.32,0,.63.02.93.05.3.03.68.09,1.13.19v1.49Z"/>
    <path class="cls-11" d="m495.02,233.15c.19-.06.33-.11.41-.15.08-.04.15-.1.21-.18.06-.08.1-.2.13-.36.03-.16.05-.41.05-.75v-3.19c0-.31,0-.56-.01-.75s-.04-.34-.1-.46-.15-.2-.27-.26c-.12-.06-.29-.1-.51-.14v-.39l1.71-.07h.45v5.24c0,.42.02.71.06.88s.11.29.22.37c.11.09.29.16.54.22v.36h-2.87v-.36Zm2.09-9.51v1.42h-1.35v-1.42h1.35Z"/>
    <path class="cls-11" d="m506.32,233.51h-2.89v-.36c.19-.06.33-.11.41-.15s.15-.1.21-.18.1-.2.13-.36.05-.41.05-.74v-1.92c0-.34,0-.65-.03-.93s-.05-.51-.1-.68c-.05-.18-.1-.32-.17-.42-.07-.1-.14-.19-.23-.26s-.19-.13-.31-.17-.27-.06-.46-.06-.37.04-.54.11-.36.21-.56.39-.35.37-.45.55-.14.39-.14.62v2.73c0,.42.02.71.06.88s.11.29.22.37c.11.09.29.16.54.22v.36h-2.87v-.36c.19-.06.33-.11.41-.15.08-.04.15-.1.21-.18.06-.08.1-.2.13-.36.03-.16.05-.41.05-.75v-3.19c0-.31,0-.56-.01-.75s-.04-.34-.1-.46-.15-.2-.27-.26c-.12-.06-.29-.1-.51-.14v-.39l1.71-.07h.45l-.08,1.19.1.03c.36-.37.65-.63.88-.78.22-.16.45-.28.67-.36.23-.09.47-.13.72-.13s.5.03.71.09.39.15.55.28c.16.13.29.28.39.47s.18.41.23.68c.05.26.08.6.08,1v2.76c0,.34,0,.58.03.73s.05.27.1.35.12.15.21.21.25.12.48.18v.36Z"/>
    <path class="cls-11" d="m510.42,226.88c.24-.04.44-.11.59-.21s.27-.22.36-.38c.08-.15.15-.35.2-.58s.1-.57.15-1.01h1.04v1.81h2.37v.74h-2.37v3.26c0,.47.02.85.06,1.13s.11.5.22.66.23.27.37.34.31.1.53.1c.2,0,.38-.04.55-.12s.34-.2.51-.35l.33.4c-.35.34-.68.58-.99.73s-.63.23-.96.23c-.63,0-1.1-.19-1.41-.56s-.46-.96-.46-1.75v-4.06h-1.08v-.37Z"/>
    <path class="cls-11" d="m515.94,233.15c.19-.06.33-.11.41-.15.08-.04.15-.1.21-.18.06-.08.1-.2.13-.36.03-.16.05-.41.05-.75v-3.19c0-.31,0-.56-.01-.75s-.04-.34-.1-.46-.15-.2-.27-.26c-.12-.06-.29-.1-.51-.14v-.39l1.71-.07h.45v5.24c0,.42.02.71.06.88s.11.29.22.37c.11.09.29.16.54.22v.36h-2.87v-.36Zm2.09-9.51v1.42h-1.35v-1.42h1.35Z"/>
    <path class="cls-11" d="m522.08,227.64l.1.03c.29-.29.53-.51.72-.66s.37-.27.55-.36.34-.16.49-.19c.15-.04.31-.06.47-.06.49,0,.89.11,1.19.34s.52.57.64,1.03c.37-.37.66-.64.89-.82.23-.18.46-.31.7-.41.24-.1.49-.14.77-.14.33,0,.61.05.85.14.24.1.44.24.6.44.16.2.28.45.36.74s.11.7.11,1.2v2.76c0,.37.01.63.04.77s.06.25.11.33c.05.08.12.15.21.2s.25.11.47.17v.36h-2.88v-.36c.19-.06.33-.11.41-.15s.15-.1.21-.18c.06-.08.1-.2.13-.36.03-.16.05-.41.05-.74v-1.92c0-.42-.01-.76-.03-1.03-.02-.27-.06-.49-.1-.65-.05-.16-.1-.29-.17-.38-.07-.09-.14-.17-.22-.24s-.18-.12-.29-.16-.26-.06-.45-.06c-.2,0-.38.04-.55.12-.17.08-.35.21-.55.4-.2.19-.34.37-.43.56s-.13.41-.13.66v2.67c0,.37.01.63.04.77s.06.25.11.33.12.15.21.2.25.11.47.17v.36h-2.88v-.36c.19-.06.33-.11.41-.15s.15-.1.21-.18.1-.2.13-.36.05-.41.05-.74v-1.92c0-.43-.01-.79-.04-1.06s-.06-.49-.11-.66c-.05-.17-.12-.3-.2-.4-.08-.1-.16-.18-.25-.23s-.18-.09-.29-.12-.24-.04-.38-.04c-.2,0-.39.05-.56.14s-.36.22-.54.39c-.18.17-.32.35-.41.53s-.14.39-.14.6v2.75c0,.28,0,.49.02.64s.04.26.07.34.07.15.12.2.12.1.21.15c.09.05.23.09.41.14v.36h-2.87v-.36c.19-.06.32-.11.4-.15.08-.04.15-.1.21-.18s.1-.2.13-.36.04-.41.04-.75v-3.19c0-.31,0-.56-.01-.75s-.04-.34-.1-.46-.15-.2-.27-.26c-.12-.06-.29-.1-.51-.14v-.39l1.71-.07h.45l-.08,1.19Z"/>
    <path class="cls-11" d="m538.44,232.27c-.31.33-.6.58-.86.77-.26.19-.55.33-.86.44s-.66.16-1.03.16c-1.01,0-1.77-.3-2.28-.9s-.77-1.49-.77-2.67c0-.73.13-1.37.39-1.93s.63-.99,1.12-1.29,1.04-.45,1.67-.45c.49,0,.91.08,1.26.23s.62.37.83.64.37.61.48,1.03.18.95.19,1.61h-4.61v.13c0,.58.06,1.06.19,1.45.13.39.34.7.64.92s.68.33,1.15.33c.4,0,.76-.07,1.08-.22.32-.15.64-.39.96-.73l.45.48Zm-1.23-2.97c-.03-.53-.1-.96-.2-1.29s-.26-.59-.46-.77-.47-.27-.81-.27c-.5,0-.9.2-1.21.6-.3.4-.48.98-.53,1.72h3.2Z"/>
    <path class="cls-11" d="m541.47,231.81v1.7h-1.48v-1.7h1.48Z"/>
  </g>
  <text class="cls-9" transform="translate(17.39 424.91)"><tspan class="cls-13"><tspan class="cls-25" x="0" y="0">	</tspan><tspan class="cls-16" x="47.35" y="0">With a hand </tspan><tspan class="cls-33" x="128.22" y="0">r</tspan><tspan class="cls-44" x="134.2" y="0">e</tspan><tspan class="cls-37" x="141.37" y="0">v</tspan><tspan class="cls-38" x="148.64" y="0">ersal, the hand </tspan><tspan class="cls-33" x="245.95" y="0">r</tspan><tspan class="cls-16" x="251.93" y="0">eturns </tspan><tspan class="cls-21" x="296.93" y="0">t</tspan><tspan class="cls-38" x="301.88" y="0">o the point it came f</tspan><tspan class="cls-36" x="428.46" y="0">r</tspan><tspan class="cls-38" x="434.45" y="0">om p</tspan><tspan class="cls-36" x="466.53" y="0">r</tspan><tspan class="cls-32" x="472.52" y="0">e</tspan><tspan x="479.69" y="0">vious</tspan><tspan class="cls-43" x="514.1" y="0">l</tspan><tspan class="cls-29" x="517.88" y="0">y</tspan><tspan x="524.19" y="0">, </tspan><tspan class="cls-40" x="530.57" y="0">w</tspan><tspan x="542.04" y="0">hile </tspan></tspan><tspan class="cls-13"><tspan x="130.13" y="18">the staff continues </tspan><tspan class="cls-31" x="251.24" y="18">t</tspan><tspan x="256.18" y="18">o </tspan><tspan class="cls-14" x="267.45" y="18">r</tspan><tspan x="273.43" y="18">ota</tspan><tspan class="cls-31" x="293.79" y="18">t</tspan><tspan x="298.74" y="18">e in the same di</tspan><tspan class="cls-14" x="398.53" y="18">r</tspan><tspan x="404.51" y="18">ection. </tspan></tspan><tspan class="cls-23"><tspan x="139.78" y="36">This </tspan><tspan class="cls-30" x="169.44" y="36">c</tspan><tspan x="175.86" y="36">han</tspan><tspan class="cls-39" x="199.73" y="36">g</tspan><tspan class="cls-26" x="207.46" y="36">e</tspan><tspan x="214.22" y="36">s p</tspan><tspan class="cls-40" x="231.16" y="36">r</tspan><tspan x="237.12" y="36">ospin </tspan><tspan class="cls-35" x="273.75" y="36">t</tspan><tspan x="278.82" y="36">o antispin and vi</tspan><tspan class="cls-30" x="381.96" y="36">c</tspan><tspan x="388.38" y="36">a-</tspan><tspan class="cls-30" x="401.05" y="36">v</tspan><tspan x="407.88" y="36">ersa. </tspan></tspan></text>
  <text class="cls-9" transform="translate(14.15 646.77)"><tspan class="cls-13"><tspan x="0" y="0">With a p</tspan><tspan class="cls-14" x="53.61" y="0">r</tspan><tspan x="59.6" y="0">op </tspan><tspan class="cls-14" x="79.2" y="0">r</tspan><tspan class="cls-40" x="85.19" y="0">e</tspan><tspan class="cls-37" x="92.36" y="0">v</tspan><tspan x="99.62" y="0">ersal, the hand continues </tspan><tspan class="cls-31" x="262.84" y="0">t</tspan><tspan x="267.79" y="0">o the n</tspan><tspan class="cls-15" x="311.4" y="0">e</tspan><tspan x="318.54" y="0">xt point </tspan><tspan class="cls-40" x="371.39" y="0">w</tspan><tspan x="382.86" y="0">hile the staff </tspan><tspan class="cls-14" x="465.2" y="0">r</tspan><tspan class="cls-40" x="471.18" y="0">e</tspan><tspan class="cls-37" x="478.35" y="0">v</tspan><tspan x="485.62" y="0">erses di</tspan><tspan class="cls-14" x="535.14" y="0">r</tspan><tspan x="541.12" y="0">ection. </tspan></tspan><tspan class="cls-23"><tspan x="107.51" y="18">This also </tspan><tspan class="cls-30" x="165.69" y="18">c</tspan><tspan x="172.11" y="18">han</tspan><tspan class="cls-39" x="195.98" y="18">g</tspan><tspan class="cls-26" x="203.71" y="18">e</tspan><tspan x="210.47" y="18">s a p</tspan><tspan class="cls-40" x="238.6" y="18">r</tspan><tspan x="244.56" y="18">ospin in</tspan><tspan class="cls-35" x="293.28" y="18">t</tspan><tspan x="298.36" y="18">o an antispin and vi</tspan><tspan class="cls-30" x="420.71" y="18">c</tspan><tspan x="427.13" y="18">a-</tspan><tspan class="cls-30" x="439.8" y="18">v</tspan><tspan x="446.63" y="18">ersa. </tspan></tspan></text>
  <text class="cls-34" transform="translate(4.66 86.45)"><tspan class="cls-5"><tspan x="0" y="0">The</tspan><tspan class="cls-14" x="24.48" y="0">r</tspan><tspan x="30.47" y="0">e a</tspan><tspan class="cls-14" x="48.41" y="0">r</tspan><tspan x="54.4" y="0">e th</tspan><tspan class="cls-14" x="78.37" y="0">r</tspan><tspan x="84.35" y="0">ee combinations of </tspan><tspan class="cls-14" x="208.55" y="0">r</tspan><tspan class="cls-40" x="214.53" y="0">e</tspan><tspan class="cls-37" x="221.7" y="0">v</tspan><tspan x="228.97" y="0">ersals. The </tspan><tspan class="cls-41" x="300.94" y="0">w</tspan><tspan x="312.37" y="0">o</tspan><tspan class="cls-14" x="320.33" y="0">r</tspan><tspan x="326.32" y="0">d </tspan><tspan class="cls-14" x="343.57" y="0">r</tspan><tspan class="cls-40" x="349.56" y="0">e</tspan><tspan class="cls-37" x="356.73" y="0">v</tspan><tspan x="363.99" y="0">ersal can be abb</tspan><tspan class="cls-14" x="472.48" y="0">r</tspan><tspan class="cls-40" x="478.46" y="0">e</tspan><tspan x="485.63" y="0">via</tspan><tspan class="cls-31" x="504.68" y="0">t</tspan><tspan x="509.63" y="0">ed </tspan><tspan class="cls-31" x="528.57" y="0">t</tspan><tspan x="533.51" y="0">o </tspan><tspan class="cls-37" x="550.41" y="0">v</tspan><tspan x="557.67" y="0">erse</tspan></tspan><tspan class="cls-5" x="26.88" y="18">In these </tspan><tspan class="cls-10" x="81.16" y="18">e</tspan><tspan class="cls-8" x="88.3" y="18">x</tspan><tspan class="cls-5" x="95.34" y="18">amples, </tspan><tspan class="cls-18" x="147.7" y="18">left </tspan><tspan class="cls-5" x="173.96" y="18">starts in anti and </tspan><tspan class="cls-17" x="285.24" y="18">ri</tspan><tspan class="cls-19" x="296.88" y="18">g</tspan><tspan class="cls-17" x="304.57" y="18">ht </tspan><tspan class="cls-5" x="322.31" y="18">starts in p</tspan><tspan class="cls-2" x="386.36" y="18">r</tspan><tspan class="cls-5" x="392.35" y="18">o, but this can be </tspan><tspan class="cls-6" x="503.27" y="18">s</tspan><tspan class="cls-7" x="509.65" y="18">w</tspan><tspan class="cls-5" x="520.98" y="18">apped.</tspan><tspan class="cls-5"><tspan class="cls-40" x="109.25" y="54">B</tspan><tspan x="118.27" y="54">y using </tspan><tspan class="cls-42" x="167.12" y="54">d</tspan><tspan class="cls-45" x="175.14" y="54">y</tspan><tspan x="182.38" y="54">ads, </tspan><tspan class="cls-41" x="210.85" y="54">w</tspan><tspan x="222.27" y="54">e can visualize the dif</tspan><tspan class="cls-28" x="358.96" y="54">f</tspan><tspan x="363.32" y="54">e</tspan><tspan class="cls-14" x="370.64" y="54">r</tspan><tspan x="376.62" y="54">ences succinct</tspan><tspan class="cls-42" x="468.17" y="54">l</tspan><tspan class="cls-29" x="471.95" y="54">y</tspan><tspan x="478.26" y="54">.</tspan></tspan></text>
  <line class="cls-1" x1="8.26" y1="156.13" x2="603.74" y2="156.13"/>
  <line class="cls-1" x1="8.26" y1="586.21" x2="603.74" y2="586.21"/>
  <g>
    <path class="cls-20" d="m384.29,514.16h-24.23c-.47,0-.85.37-.85.82v.94c0,.45.38.82.85.82h24.23c.47,0,.85-.37.85-.82v-.94c0-.45-.38-.82-.85-.82Z"/>
    <path class="cls-20" d="m548.66,488.46v24.23c0,.47-.37.85-.82.85h-.94c-.45,0-.82-.38-.82-.85v-24.23c0-.47.37-.85.82-.85h.94c.45,0,.82.38.82.85Z"/>
    <path class="cls-20" d="m453.62,488.46v24.23c0,.47-.37.85-.82.85h-.94c-.45,0-.82-.38-.82-.85v-24.23c0-.47.37-.85.82-.85h.94c.45,0,.82.38.82.85Z"/>
    <g>
      <path class="cls-11" d="m359.88,546.56c0,3.34-5.18,3.34-5.18,0s5.18-3.34,5.18,0h0Z"/>
      <path class="cls-11" d="m328.77,515.46c0,3.34-5.18,3.34-5.18,0,0-3.34,5.18-3.34,5.18,0h0Z"/>
      <path class="cls-11" d="m359.88,484.35c0,3.34-5.18,3.34-5.18,0,0-3.34,5.18-3.34,5.18,0h0Z"/>
      <path class="cls-11" d="m390.98,515.46c0,3.34-5.18,3.34-5.18,0,0-3.34,5.18-3.34,5.18,0h0Z"/>
      <path class="cls-11" d="m357.28,516.81c1.74,0,1.74-2.7,0-2.7s-1.74,2.7,0,2.7h0Z"/>
    </g>
    <g>
      <path class="cls-11" d="m454.92,546.56c0,3.34-5.18,3.34-5.18,0s5.18-3.34,5.18,0h0Z"/>
      <path class="cls-11" d="m423.81,515.46c0,3.34-5.18,3.34-5.18,0,0-3.34,5.18-3.34,5.18,0h0Z"/>
      <path class="cls-11" d="m454.92,484.35c0,3.34-5.18,3.34-5.18,0,0-3.34,5.18-3.34,5.18,0h0Z"/>
      <path class="cls-11" d="m486.02,515.46c0,3.34-5.18,3.34-5.18,0,0-3.34,5.18-3.34,5.18,0h0Z"/>
      <path class="cls-11" d="m452.32,516.81c1.74,0,1.74-2.7,0-2.7s-1.74,2.7,0,2.7h0Z"/>
    </g>
    <g>
      <path class="cls-11" d="m549.96,546.56c0,3.34-5.18,3.34-5.18,0s5.18-3.34,5.18,0h0Z"/>
      <path class="cls-11" d="m518.85,515.46c0,3.34-5.18,3.34-5.18,0,0-3.34,5.18-3.34,5.18,0h0Z"/>
      <path class="cls-11" d="m549.96,484.35c0,3.34-5.18,3.34-5.18,0,0-3.34,5.18-3.34,5.18,0h0Z"/>
      <path class="cls-11" d="m581.06,515.46c0,3.34-5.18,3.34-5.18,0,0-3.34,5.18-3.34,5.18,0h0Z"/>
      <path class="cls-11" d="m547.36,516.81c1.74,0,1.74-2.7,0-2.7s-1.74,2.7,0,2.7h0Z"/>
    </g>
    <path class="cls-20" d="m362.71,486.22c12.33,0,23.52,9.93,23.55,22.17l2.5-2.74s1.15,1.04.56,1.92c-.67.99-4.07,4.23-4.07,4.23,0,0-3.44-2.76-4.37-3.94-.66-.84.45-1.96.45-1.96l2.88,2.71c-.03-9.26-7.58-19.48-21.5-20.22-1.63-.09-1.68-2.16,0-2.16Z"/>
    <path class="cls-20" d="m483.74,511.06c-20.11,0-22.05-1.35-22.05-20.89l-2.76,2.82s-1.14-1.08-.52-1.94c.89-1.22,4.23-4.1,4.23-4.1,0,0,3.5,3.12,4.22,4.1.63.85-.49,1.94-.49,1.94l-2.66-2.82c0,17.91,1.03,18.74,20,18.74,1.56,0,1.56,2.15.03,2.15Z"/>
    <path class="cls-11" d="m406.04,516.65v4.47h-2.48v-4.47h-4.42v-2.38h4.42v-4.48h2.48v4.48h4.42v2.38h-4.42Z"/>
    <path class="cls-11" d="m494.38,514.08v-2.42h10.93v2.42h-10.93Zm0,5.17v-2.42h10.93v2.42h-10.93Z"/>
    <path class="cls-20" d="m579.14,508.99c-.05,1.6-1.1,2.26-1.93,2.26-23.49,0-23.59.57-23.71-20.37l-2.84,2.54s-1.14-1.08-.52-1.94c.85-1.15,3.92-3.82,4.22-4.07.3.26,3.37,2.92,4.22,4.07.62.86-.52,1.94-.52,1.94l-2.64-2.54c.84,18.51-1.41,18.1,21.57,18.1,0-14.75-2.25-22.49-19.84-22.49-1.47,0-1.53-2.14-.05-2.14,19.81,0,22.44,10.73,22.04,24.63Z"/>
  </g>
  <g>
    <path class="cls-20" d="m386.37,297.77h-24.23c-.47,0-.85.37-.85.82v.94c0,.45.38.82.85.82h24.23c.47,0,.85-.37.85-.82v-.94c0-.45-.38-.82-.85-.82Z"/>
    <path class="cls-20" d="m455.7,272.06v24.23c0,.47-.37.85-.82.85h-.94c-.45,0-.82-.38-.82-.85v-24.23c0-.47.37-.85.82-.85h.94c.45,0,.82.38.82.85Z"/>
    <path class="cls-20" d="m550.74,272.06v24.23c0,.47-.37.85-.82.85h-.94c-.45,0-.82-.38-.82-.85v-24.23c0-.47.37-.85.82-.85h.94c.45,0,.82.38.82.85Z"/>
    <g>
      <path class="cls-11" d="m361.96,330.17c0,3.34-5.18,3.34-5.18,0,0-3.34,5.18-3.34,5.18,0h0Z"/>
      <path class="cls-11" d="m330.85,299.06c0,3.34-5.18,3.34-5.18,0,0-3.34,5.18-3.34,5.18,0h0Z"/>
      <path class="cls-11" d="m361.96,267.96c0,3.34-5.18,3.34-5.18,0,0-3.34,5.18-3.34,5.18,0h0Z"/>
      <path class="cls-11" d="m393.06,299.06c0,3.34-5.18,3.34-5.18,0s5.18-3.34,5.18,0h0Z"/>
      <path class="cls-11" d="m359.36,300.41c1.74,0,1.74-2.7,0-2.7s-1.74,2.7,0,2.7h0Z"/>
    </g>
    <g>
      <path class="cls-11" d="m457,330.17c0,3.34-5.18,3.34-5.18,0,0-3.34,5.18-3.34,5.18,0h0Z"/>
      <path class="cls-11" d="m425.89,299.06c0,3.34-5.18,3.34-5.18,0,0-3.34,5.18-3.34,5.18,0h0Z"/>
      <path class="cls-11" d="m457,267.96c0,3.34-5.18,3.34-5.18,0s5.18-3.34,5.18,0h0Z"/>
      <path class="cls-11" d="m488.1,299.06c0,3.34-5.18,3.34-5.18,0,0-3.34,5.18-3.34,5.18,0h0Z"/>
      <path class="cls-11" d="m454.4,300.41c1.74,0,1.74-2.7,0-2.7s-1.74,2.7,0,2.7h0Z"/>
    </g>
    <g>
      <path class="cls-11" d="m552.04,330.17c0,3.34-5.18,3.34-5.18,0,0-3.34,5.18-3.34,5.18,0h0Z"/>
      <path class="cls-11" d="m520.93,299.06c0,3.34-5.18,3.34-5.18,0,0-3.34,5.18-3.34,5.18,0h0Z"/>
      <path class="cls-11" d="m552.04,267.96c0,3.34-5.18,3.34-5.18,0s5.18-3.34,5.18,0h0Z"/>
      <path class="cls-11" d="m583.14,299.06c0,3.34-5.18,3.34-5.18,0,0-3.34,5.18-3.34,5.18,0h0Z"/>
      <path class="cls-11" d="m549.44,300.41c1.74,0,1.74-2.7,0-2.7s-1.74,2.7,0,2.7h0Z"/>
    </g>
    <path class="cls-20" d="m364.79,269.83c12.33,0,23.52,9.93,23.55,22.17l2.5-2.74s1.15,1.04.56,1.92c-.67.99-4.07,4.23-4.07,4.23,0,0-3.44-2.76-4.37-3.94-.66-.84.45-1.96.45-1.96l2.88,2.71c-.03-9.26-7.58-19.48-21.5-20.22-1.63-.09-1.68-2.16,0-2.16Z"/>
    <path class="cls-20" d="m483.64,293.64c0-12.33-9.93-23.52-22.17-23.55l2.74-2.5s-1.04-1.15-1.92-.56c-.99.67-4.23,4.07-4.23,4.07,0,0,2.76,3.44,3.94,4.37.84.66,1.96-.45,1.96-.45l-2.71-2.88c9.26.03,19.48,7.58,20.22,21.5.09,1.63,2.16,1.68,2.16,0Z"/>
    <path class="cls-11" d="m408.12,300.26v4.47h-2.48v-4.47h-4.42v-2.38h4.42v-4.48h2.48v4.48h4.42v2.38h-4.42Z"/>
    <path class="cls-11" d="m496.46,297.69v-2.42h10.93v2.42h-10.93Zm0,5.17v-2.42h10.93v2.42h-10.93Z"/>
    <path class="cls-20" d="m553.29,271.31s3.06-3.53,4.07-4.22c.88-.6,1.98.53,1.98.53l-2.56,2.67c7.52,0,21.97,5.93,21.14,23.26-.15,3.11-1.69,3.59-2.52,3.59s-2.2-.57-2.29-3.13c-.31-9.06-8.94-15.85-18.26-15.85-1.59.04-1.65-2.1,0-2.1,10.77,0,20.56,8.2,20.66,18.5,1.89-14.8-10.67-22.1-18.71-22.1l2.54,2.61s-1.09,1.13-1.94.52c-1.22-.89-4.11-4.27-4.11-4.27Z"/>
  </g>
  <g>
    <path class="cls-20" d="m562.3,736.09l2.84-3.01s1.19,1.14.52,2.05c-.77,1.04-4.49,4.38-4.49,4.38,0,0-3.58-3.07-4.53-4.38-.66-.91.56-2.05.56-2.05l2.94,3.01c0-18.5-.58-21.1,23.05-21.1,0-15.18-7.46-26.9-24.43-26.9,0,0-1.53-.09-1.44-1.28.09-1.23,1.65-1.04,1.65-1.04,16.5,0,26.56,10.46,26.56,29.52,0,.98-.74,1.95-1.72,1.95-22.75,0-21.52.73-21.52,18.84Z"/>
    <g>
      <path class="cls-11" d="m364.29,745.48c0,3.34-5.18,3.34-5.18,0,0-3.34,5.18-3.34,5.18,0h0Z"/>
      <path class="cls-11" d="m333.19,714.38c0,3.34-5.18,3.34-5.18,0,0-3.34,5.18-3.34,5.18,0h0Z"/>
      <path class="cls-11" d="m364.29,683.27c0,3.34-5.18,3.34-5.18,0,0-3.34,5.18-3.34,5.18,0h0Z"/>
      <path class="cls-11" d="m395.4,714.38c0,3.34-5.18,3.34-5.18,0,0-3.34,5.18-3.34,5.18,0h0Z"/>
      <path class="cls-11" d="m361.7,715.73c1.74,0,1.74-2.7,0-2.7s-1.74,2.7,0,2.7h0Z"/>
    </g>
    <g>
      <path class="cls-11" d="m459.33,745.48c0,3.34-5.18,3.34-5.18,0,0-3.34,5.18-3.34,5.18,0h0Z"/>
      <path class="cls-11" d="m428.23,714.38c0,3.34-5.18,3.34-5.18,0,0-3.34,5.18-3.34,5.18,0h0Z"/>
      <path class="cls-11" d="m459.33,683.27c0,3.34-5.18,3.34-5.18,0,0-3.34,5.18-3.34,5.18,0h0Z"/>
      <path class="cls-11" d="m490.44,714.38c0,3.34-5.18,3.34-5.18,0,0-3.34,5.18-3.34,5.18,0h0Z"/>
      <path class="cls-11" d="m456.74,715.73c1.74,0,1.74-2.7,0-2.7s-1.74,2.7,0,2.7h0Z"/>
    </g>
    <g>
      <path class="cls-11" d="m554.37,745.48c0,3.34-5.18,3.34-5.18,0,0-3.34,5.18-3.34,5.18,0h0Z"/>
      <path class="cls-11" d="m523.27,714.38c0,3.34-5.18,3.34-5.18,0,0-3.34,5.18-3.34,5.18,0h0Z"/>
      <path class="cls-11" d="m554.37,683.27c0,3.34-5.18,3.34-5.18,0,0-3.34,5.18-3.34,5.18,0h0Z"/>
      <path class="cls-11" d="m585.48,714.38c0,3.34-5.18,3.34-5.18,0,0-3.34,5.18-3.34,5.18,0h0Z"/>
      <path class="cls-11" d="m551.78,715.73c1.74,0,1.74-2.7,0-2.7s-1.74,2.7,0,2.7h0Z"/>
    </g>
    <path class="cls-20" d="m367.21,685.78c12.33,0,23.52,9.93,23.55,22.17l2.5-2.74s1.15,1.04.56,1.92c-.67.99-4.07,4.23-4.07,4.23,0,0-3.44-2.76-4.37-3.94-.66-.84.45-1.96.45-1.96l2.88,2.71c-.03-9.26-7.58-19.48-21.5-20.22-1.63-.09-1.68-2.16,0-2.16Z"/>
    <path class="cls-20" d="m484.85,717.86c-20.11,0-22.05,1.35-22.05,20.89l-2.76-2.82s-1.14,1.08-.52,1.94c.89,1.22,4.23,4.1,4.23,4.1,0,0,3.5-3.12,4.22-4.1.63-.85-.49-1.94-.49-1.94l-2.66,2.82c0-17.91,1.03-18.74,20-18.74,1.56,0,1.56-2.15.03-2.15Z"/>
    <path class="cls-11" d="m410.46,715.57v4.47h-2.48v-4.47h-4.42v-2.38h4.42v-4.48h2.48v4.48h4.42v2.38h-4.42Z"/>
    <path class="cls-11" d="m498.8,713v-2.42h10.93v2.42h-10.93Zm0,5.17v-2.42h10.93v2.42h-10.93Z"/>
    <path class="cls-20" d="m364.55,713.08h24.23c.47,0,.85.37.85.82v.94c0,.45-.38.82-.85.82h-24.23c-.47,0-.85-.37-.85-.82v-.94c0-.45.38-.82.85-.82Z"/>
    <path class="cls-20" d="m458.04,717.23v24.23c0,.47-.37.85-.82.85h-.94c-.45,0-.82-.38-.82-.85v-24.23c0-.47.37-.85.82-.85h.94c.45,0,.82.38.82.85Z"/>
    <path class="cls-20" d="m553.08,717.23v24.23c0,.47-.37.85-.82.85h-.94c-.45,0-.82-.38-.82-.85v-24.23c0-.47.37-.85.82-.85h.94c.45,0,.82.38.82.85Z"/>
  </g>
  <g>
    <path class="cls-27" d="m247.98,488.45v24.19c0,.47.37.85.82.85h.94c.45,0,.82-.38.82-.85v-24.19c0-.47-.37-.85-.82-.85h-.94c-.45,0-.82.38-.82.85Z"/>
    <path class="cls-27" d="m152.94,488.45v24.19c0,.47.37.85.82.85h.94c.45,0,.82-.38.82-.85v-24.19c0-.47-.37-.85-.82-.85h-.94c-.45,0-.82.38-.82.85Z"/>
    <path class="cls-27" d="m86.2,514.12h-24.23c-.47,0-.85.37-.85.82v.94c0,.45.38.82.85.82h24.23c.47,0,.85-.37.85-.82v-.94c0-.45-.38-.82-.85-.82Z"/>
    <g>
      <path class="cls-11" d="m56.6,546.48c0,3.33,5.18,3.34,5.18,0s-5.18-3.34-5.18,0h0Z"/>
      <path class="cls-11" d="m87.71,515.41c0,3.33,5.18,3.34,5.18,0,0-3.33-5.18-3.34-5.18,0h0Z"/>
      <path class="cls-11" d="m56.6,484.35c0,3.33,5.18,3.34,5.18,0s-5.18-3.34-5.18,0h0Z"/>
      <path class="cls-11" d="m25.5,515.41c0,3.33,5.18,3.34,5.18,0,0-3.33-5.18-3.34-5.18,0h0Z"/>
      <path class="cls-11" d="m59.2,516.76c1.74,0,1.74-2.7,0-2.7s-1.74,2.7,0,2.7h0Z"/>
    </g>
    <g>
      <path class="cls-11" d="m151.64,546.48c0,3.33,5.18,3.34,5.18,0s-5.18-3.34-5.18,0h0Z"/>
      <path class="cls-11" d="m182.75,515.41c0,3.33,5.18,3.34,5.18,0,0-3.33-5.18-3.34-5.18,0h0Z"/>
      <path class="cls-11" d="m151.64,484.35c0,3.33,5.18,3.34,5.18,0s-5.18-3.34-5.18,0h0Z"/>
      <path class="cls-11" d="m120.54,515.41c0,3.33,5.18,3.34,5.18,0,0-3.33-5.18-3.34-5.18,0h0Z"/>
      <path class="cls-11" d="m154.24,516.76c1.74,0,1.74-2.7,0-2.7s-1.74,2.7,0,2.7h0Z"/>
    </g>
    <g>
      <path class="cls-11" d="m246.68,546.48c0,3.33,5.18,3.34,5.18,0s-5.18-3.34-5.18,0h0Z"/>
      <path class="cls-11" d="m277.79,515.41c0,3.33,5.18,3.34,5.18,0,0-3.33-5.18-3.34-5.18,0h0Z"/>
      <path class="cls-11" d="m246.68,484.35c0,3.33,5.18,3.34,5.18,0s-5.18-3.34-5.18,0h0Z"/>
      <path class="cls-11" d="m215.58,515.41c0,3.33,5.18,3.34,5.18,0,0-3.33-5.18-3.34-5.18,0h0Z"/>
      <path class="cls-11" d="m249.28,516.76c1.74,0,1.74-2.7,0-2.7s-1.74,2.7,0,2.7h0Z"/>
    </g>
    <path class="cls-27" d="m64.72,486.82c0,20.08,1.35,22.02,20.89,22.02l-2.82,2.76s1.08,1.14,1.94.52c1.22-.88,4.1-4.23,4.1-4.23,0,0-3.12-3.5-4.1-4.21-.85-.63-1.94.49-1.94.49l2.82,2.65c-17.91,0-18.74-1.03-18.74-19.97,0-1.56-2.15-1.56-2.15-.03Z"/>
    <path class="cls-27" d="m185.05,510.2c0-12.31-9.93-23.49-22.17-23.52l2.74-2.5s-1.04-1.15-1.92-.55c-.99.67-4.23,4.07-4.23,4.07,0,0,2.76,3.44,3.94,4.36.84.65,1.96-.45,1.96-.45l-2.71-2.88c9.26.03,19.48,7.57,20.22,21.47.09,1.62,2.16,1.68,2.16,0Z"/>
    <path class="cls-11" d="m107.96,516.61v4.47h-2.48v-4.47h-4.42v-2.37h4.42v-4.48h2.48v4.48h4.42v2.37h-4.42Z"/>
    <path class="cls-11" d="m196.29,514.04v-2.42h10.93v2.42h-10.93Zm0,5.16v-2.42h10.93v2.42h-10.93Z"/>
    <path class="cls-27" d="m279.17,511.43c-23.3,0-23.84.88-23.84-21.22,0-1.48,2.14-1.42,2.14-.05,0,20.55,1.15,19.04,21.43,19.02,0-16.1-3.01-22.4-18.76-22.4l2.52,2.58s-1.08,1.14-1.94.52c-1.15-.85-3.82-3.91-4.07-4.21.26-.3,2.92-3.37,4.07-4.21.86-.62,1.94.52,1.94.52l-2.52,2.67c21.51,0,21.08,14.59,21.08,24.54,0,1.51-1.2,2.26-2.04,2.26Z"/>
  </g>
  <g>
    <path class="cls-27" d="m157.61,326.07v-24.23c0-.47-.37-.85-.82-.85h-.94c-.45,0-.82.38-.82.85v24.23c0,.47.37.85.82.85h.94c.45,0,.82-.38.82-.85Z"/>
    <path class="cls-27" d="m252.65,326.07v-24.23c0-.47-.37-.85-.82-.85h-.94c-.45,0-.82.38-.82.85v24.23c0,.47.37.85.82.85h.94c.45,0,.82-.38.82-.85Z"/>
    <path class="cls-27" d="m34.28,300.36h24.23c.47,0,.85-.37.85-.82v-.94c0-.45-.38-.82-.85-.82h-24.23c-.47,0-.85.37-.85.82v.94c0,.45.38.82.85.82Z"/>
    <g>
      <path class="cls-11" d="m63.87,330.17c0,3.34-5.18,3.34-5.18,0,0-3.34,5.18-3.34,5.18,0h0Z"/>
      <path class="cls-11" d="m32.77,299.06c0,3.34-5.18,3.34-5.18,0,0-3.34,5.18-3.34,5.18,0h0Z"/>
      <path class="cls-11" d="m63.87,267.96c0,3.34-5.18,3.34-5.18,0,0-3.34,5.18-3.34,5.18,0h0Z"/>
      <path class="cls-11" d="m94.97,299.06c0,3.34-5.18,3.34-5.18,0,0-3.34,5.18-3.34,5.18,0h0Z"/>
      <path class="cls-11" d="m61.28,300.41c1.74,0,1.74-2.7,0-2.7s-1.74,2.7,0,2.7h0Z"/>
    </g>
    <g>
      <path class="cls-11" d="m158.91,330.17c0,3.34-5.18,3.34-5.18,0s5.18-3.34,5.18,0h0Z"/>
      <path class="cls-11" d="m127.81,299.06c0,3.34-5.18,3.34-5.18,0s5.18-3.34,5.18,0h0Z"/>
      <path class="cls-11" d="m158.91,267.96c0,3.34-5.18,3.34-5.18,0,0-3.34,5.18-3.34,5.18,0h0Z"/>
      <path class="cls-11" d="m190.01,299.06c0,3.34-5.18,3.34-5.18,0,0-3.34,5.18-3.34,5.18,0h0Z"/>
      <path class="cls-11" d="m156.32,300.41c1.74,0,1.74-2.7,0-2.7s-1.74,2.7,0,2.7h0Z"/>
    </g>
    <g>
      <path class="cls-11" d="m253.95,330.17c0,3.34-5.18,3.34-5.18,0,0-3.34,5.18-3.34,5.18,0h0Z"/>
      <path class="cls-11" d="m222.85,299.06c0,3.34-5.18,3.34-5.18,0,0-3.34,5.18-3.34,5.18,0h0Z"/>
      <path class="cls-11" d="m253.95,267.96c0,3.34-5.18,3.34-5.18,0,0-3.34,5.18-3.34,5.18,0h0Z"/>
      <path class="cls-11" d="m285.05,299.06c0,3.34-5.18,3.34-5.18,0,0-3.34,5.18-3.34,5.18,0h0Z"/>
      <path class="cls-11" d="m251.36,300.41c1.74,0,1.74-2.7,0-2.7s-1.74,2.7,0,2.7h0Z"/>
    </g>
    <path class="cls-27" d="m55.76,327.7c0-20.11-1.35-22.05-20.89-22.05l2.82-2.76s-1.08-1.14-1.94-.52c-1.22.89-4.1,4.23-4.1,4.23,0,0,3.12,3.5,4.1,4.22.85.63,1.94-.49,1.94-.49l-2.82-2.66c17.91,0,18.74,1.03,18.74,20,0,1.56,2.15,1.56,2.15.03Z"/>
    <path class="cls-27" d="m127.2,303.25c20.11,0,22.05,1.35,22.05,20.89l2.76-2.82s1.14,1.08.52,1.94c-.89,1.22-4.23,4.1-4.23,4.1,0,0-3.5-3.12-4.22-4.1-.63-.85.49-1.94.49-1.94l2.66,2.82c0-17.91-1.03-18.74-20-18.74-1.56,0-1.56-2.15-.03-2.15Z"/>
    <path class="cls-11" d="m110.04,300.26v4.47h-2.48v-4.47h-4.42v-2.38h4.42v-4.48h2.48v4.48h4.42v2.38h-4.42Z"/>
    <path class="cls-11" d="m198.37,297.69v-2.42h10.93v2.42h-10.93Zm0,5.17v-2.42h10.93v2.42h-10.93Z"/>
    <path class="cls-27" d="m223.72,307.01c17.39-.3,15.61,9.83,15.61,20.92l-2.72-2.68s-1.13,1.09-.52,1.94c.82,1.12,4.2,4.05,4.2,4.05,0,0,3.38-2.93,4.2-4.05.61-.85-.52-1.94-.52-1.94l-2.72,2.68c0-11.11,2.43-22.29-15.56-22.93,14.85,0,19.76,2.5,19.5,20.24-.02,1.47,2.05,1.56,2.05.03,0-19.96-5.61-23.02-23.54-22.32-3.07.11-3.18,4.12,0,4.06Z"/>
  </g>
  <g>
    <path class="cls-27" d="m288.65,709.49c0,19.61-9.23,30.05-24.09,30.05l2.93,2.87s-1.14,1.22-2.05.56c-1.31-.95-4.38-4.53-4.38-4.53,0,0,3.34-3.72,4.38-4.49.91-.67,2.05.52,2.05.52l-3.01,2.84c14.11,0,21.66-10.72,21.59-27.32-23.07,0-22.98-1.29-22.93-20.34,0-1.66,2.19-1.88,2.19,0,0,18.39-1.04,17.88,21.68,17.83,1.09,0,1.63.91,1.63,2Z"/>
    <g>
      <path class="cls-11" d="m66.21,745.48c0,3.34-5.18,3.34-5.18,0,0-3.34,5.18-3.34,5.18,0h0Z"/>
      <path class="cls-11" d="m35.1,714.38c0,3.34-5.18,3.34-5.18,0,0-3.34,5.18-3.34,5.18,0h0Z"/>
      <path class="cls-11" d="m66.21,683.27c0,3.34-5.18,3.34-5.18,0s5.18-3.34,5.18,0h0Z"/>
      <path class="cls-11" d="m97.31,714.38c0,3.34-5.18,3.34-5.18,0,0-3.34,5.18-3.34,5.18,0h0Z"/>
      <path class="cls-11" d="m63.61,715.73c1.74,0,1.74-2.7,0-2.7s-1.74,2.7,0,2.7h0Z"/>
    </g>
    <g>
      <path class="cls-11" d="m161.25,745.48c0,3.34-5.18,3.34-5.18,0,0-3.34,5.18-3.34,5.18,0h0Z"/>
      <path class="cls-11" d="m130.14,714.38c0,3.34-5.18,3.34-5.18,0,0-3.34,5.18-3.34,5.18,0h0Z"/>
      <path class="cls-11" d="m161.25,683.27c0,3.34-5.18,3.34-5.18,0s5.18-3.34,5.18,0h0Z"/>
      <path class="cls-11" d="m192.35,714.38c0,3.34-5.18,3.34-5.18,0,0-3.34,5.18-3.34,5.18,0h0Z"/>
      <path class="cls-11" d="m158.65,715.73c1.74,0,1.74-2.7,0-2.7s-1.74,2.7,0,2.7h0Z"/>
    </g>
    <g>
      <path class="cls-11" d="m256.29,745.48c0,3.34-5.18,3.34-5.18,0,0-3.34,5.18-3.34,5.18,0h0Z"/>
      <path class="cls-11" d="m225.18,714.38c0,3.34-5.18,3.34-5.18,0,0-3.34,5.18-3.34,5.18,0h0Z"/>
      <path class="cls-11" d="m256.29,683.27c0,3.34-5.18,3.34-5.18,0s5.18-3.34,5.18,0h0Z"/>
      <path class="cls-11" d="m287.39,714.38c0,3.34-5.18,3.34-5.18,0,0-3.34,5.18-3.34,5.18,0h0Z"/>
      <path class="cls-11" d="m253.69,715.73c1.74,0,1.74-2.7,0-2.7s-1.74,2.7,0,2.7h0Z"/>
    </g>
    <path class="cls-27" d="m67.2,684.13c0,20.11,1.35,22.05,20.89,22.05l-2.82,2.76s1.08,1.14,1.94.52c1.22-.89,4.1-4.23,4.1-4.23,0,0-3.12-3.5-4.1-4.22-.85-.63-1.94.49-1.94.49l2.82,2.66c-17.91,0-18.74-1.03-18.74-20,0-1.56-2.15-1.56-2.15-.03Z"/>
    <path class="cls-27" d="m192.49,721.49c0,12.33-9.93,23.52-22.17,23.55l2.74,2.5s-1.04,1.15-1.92.56c-.99-.67-4.23-4.07-4.23-4.07,0,0,2.76-3.44,3.94-4.37.84-.66,1.96.45,1.96.45l-2.71,2.88c9.26-.03,19.48-7.58,20.22-21.5.09-1.63,2.16-1.68,2.16,0Z"/>
    <path class="cls-11" d="m112.37,715.57v4.47h-2.48v-4.47h-4.42v-2.38h4.42v-4.48h2.48v4.48h4.42v2.38h-4.42Z"/>
    <path class="cls-11" d="m200.71,713v-2.42h10.93v2.42h-10.93Zm0,5.17v-2.42h10.93v2.42h-10.93Z"/>
    <path class="cls-27" d="m66.47,713.08h24.23c.47,0,.85.37.85.82v.94c0,.45-.38.82-.85.82h-24.23c-.47,0-.85-.37-.85-.82v-.94c0-.45.38-.82.85-.82Z"/>
    <path class="cls-27" d="m159.95,717.34v24.23c0,.47-.37.85-.82.85h-.94c-.45,0-.82-.38-.82-.85v-24.23c0-.47.37-.85.82-.85h.94c.45,0,.82.38.82.85Z"/>
    <path class="cls-27" d="m254.99,717.34v24.23c0,.47-.37.85-.82.85h-.94c-.45,0-.82-.38-.82-.85v-24.23c0-.47.37-.85.82-.85h.94c.45,0,.82.38.82.85Z"/>
  </g>
  <text class="cls-3" transform="translate(8.26 396.65)"><tspan x="0" y="0">Hand-verse</tspan></text>
  <text class="cls-3" transform="translate(8.26 613.11)"><tspan x="0" y="0">Prop-verse</tspan></text>
  <text class="cls-4" transform="translate(231.33 52.78)"><tspan x="0" y="0">Reversals </tspan></text>
  <g>
    <path class="cls-20" d="m438.25,58.77c-.06,2.22-1.53,3.14-2.68,3.14-32.62,0-32.76.8-32.93-28.29l-3.95,3.52s-1.58-1.5-.72-2.69c1.18-1.6,5.44-5.3,5.86-5.66.42.36,4.68,4.06,5.86,5.66.86,1.2-.72,2.69-.72,2.69l-3.67-3.52c1.16,25.7-1.95,25.14,29.97,25.14,0-20.49-3.13-31.24-27.56-31.24-2.05,0-2.12-2.97-.07-2.97,27.51,0,31.17,14.91,30.61,34.21Z"/>
    <path class="cls-27" d="m187.92,64.21c32.36,0,33.12,1.22,33.12-29.51,0-2.06-2.97-1.97-2.97-.07,0,28.57-1.59,26.48-29.77,26.45,0-22.39,4.19-31.16,26.06-31.16l-3.51,3.59s1.5,1.58,2.69.72c1.6-1.18,5.3-5.44,5.66-5.86-.36-.42-4.06-4.68-5.66-5.86-1.2-.86-2.69.72-2.69.72l3.51,3.72c-29.87,0-29.28,20.28-29.28,34.13,0,2.09,1.67,3.14,2.83,3.14Z"/>
    <path class="cls-20" d="m451.43,55.3l4.18-3.95s-1.58-1.66-2.85-.72c-1.44,1.07-6.08,6.24-6.08,6.24,0,0,4.26,4.97,6.08,6.29,1.27.92,2.85-.78,2.85-.78l-4.18-4.09c25.69,0,29.3.8,29.3-32.02,21.09,0,37.36,10.36,37.36,33.93,0,0,.13,2.13,1.77,2,1.71-.13,1.44-2.29,1.44-2.29,0-22.92-14.53-36.9-40.99-36.9-1.36,0-2.71,1.02-2.71,2.38,0,31.6-1.01,29.89-26.16,29.89Z"/>
    <path class="cls-27" d="m124.3,24.07c27.23,0,41.74,12.81,41.74,33.46l3.99-4.08s1.7,1.58.78,2.85c-1.32,1.81-6.29,6.08-6.29,6.08,0,0-5.17-4.64-6.24-6.08-.94-1.27.72-2.85.72-2.85l3.95,4.18c0-19.6-14.88-30.08-37.95-29.98,0,32.04-1.79,31.92-28.25,31.85-2.3,0-2.61-3.04,0-3.04,25.54,0,24.83,1.44,24.77-30.12,0-1.52,1.26-2.27,2.78-2.27Z"/>
    <path class="cls-20" d="m526.24,28.35s4.25-4.9,5.66-5.86c1.22-.83,2.75.73,2.75.73l-3.56,3.71c10.44,0,30.52,8.24,29.37,32.31-.21,4.32-2.35,4.99-3.49,4.99-1.14,0-3.06-.79-3.18-4.34-.43-12.58-12.42-22.01-25.37-22.01-2.21.06-2.3-2.92,0-2.92,14.96,0,28.56,11.39,28.69,25.7,2.62-20.55-14.82-30.7-25.99-30.7l3.53,3.62s-1.51,1.57-2.69.72c-1.7-1.24-5.71-5.93-5.71-5.93Z"/>
    <path class="cls-27" d="m54.76,29.28c24.16-.41,21.69,13.65,21.69,29.06l-3.77-3.72s-1.57,1.51-.72,2.69c1.14,1.55,5.83,5.63,5.83,5.63,0,0,4.69-4.08,5.83-5.63.85-1.18-.72-2.69-.72-2.69l-3.77,3.72c0-15.43,3.37-30.96-21.61-31.85,20.62,0,27.45,3.47,27.09,28.11-.03,2.04,2.85,2.16,2.85.04,0-27.72-7.79-31.97-32.69-31-4.26.16-4.42,5.72,0,5.64Z"/>
  </g>
  <text class="cls-11" transform="translate(424.51 358.26)"><tspan class="cls-22" x="0" y="0">P</tspan><tspan class="cls-24" x="9.33" y="0">r</tspan><tspan class="cls-22" x="16" y="0">o</tspan><tspan class="cls-12" x="24.52" y="0"></tspan><tspan class="cls-22" x="37.51" y="0">P</tspan><tspan class="cls-24" x="46.83" y="0">r</tspan><tspan class="cls-22" x="53.51" y="0">o</tspan></text>
  <text class="cls-11" transform="translate(119.81 358.26)"><tspan class="cls-24" x="0" y="0">A</tspan><tspan class="cls-22" x="9.72" y="0">nti</tspan><tspan class="cls-12" x="29.06" y="0"></tspan><tspan class="cls-24" x="42.05" y="0">A</tspan><tspan class="cls-22" x="51.77" y="0">nti</tspan></text>
  <text class="cls-11" transform="translate(422.07 775.79)"><tspan class="cls-22" x="0" y="0">P</tspan><tspan class="cls-24" x="9.33" y="0">r</tspan><tspan class="cls-22" x="16" y="0">o</tspan><tspan class="cls-12" x="24.52" y="0"></tspan><tspan class="cls-24" x="37.51" y="0">A</tspan><tspan class="cls-22" x="47.23" y="0">nti</tspan></text>
  <text class="cls-11" transform="translate(117.37 775.79)"><tspan class="cls-24" x="0" y="0">A</tspan><tspan class="cls-22" x="9.72" y="0">nti</tspan><tspan class="cls-12" x="29.06" y="0"></tspan><tspan class="cls-22" x="42.05" y="0">P</tspan><tspan class="cls-24" x="51.38" y="0">r</tspan><tspan class="cls-22" x="58.06" y="0">o</tspan></text>
  <text class="cls-11" transform="translate(422.07 565.89)"><tspan class="cls-22" x="0" y="0">P</tspan><tspan class="cls-24" x="9.33" y="0">r</tspan><tspan class="cls-22" x="16" y="0">o</tspan><tspan class="cls-12" x="24.52" y="0"></tspan><tspan class="cls-24" x="37.51" y="0">A</tspan><tspan class="cls-22" x="47.23" y="0">nti</tspan></text>
  <text class="cls-11" transform="translate(117.37 565.89)"><tspan class="cls-24" x="0" y="0">A</tspan><tspan class="cls-22" x="9.72" y="0">nti</tspan><tspan class="cls-12" x="29.06" y="0"></tspan><tspan class="cls-22" x="42.05" y="0">P</tspan><tspan class="cls-24" x="51.38" y="0">r</tspan><tspan class="cls-22" x="58.06" y="0">o</tspan></text>
  <line class="cls-1" x1="8.26" y1="371.08" x2="603.74" y2="371.08"/>
</svg>