<?xml version="1.0" encoding="UTF-8"?>
<svg id="Layer_1" data-name="Layer 1" xmlns="http://www.w3.org/2000/svg" viewBox="0 0 612 792">
  <defs>
    <style>
      .cls-1, .cls-2, .cls-3 {
        fill: none;
        stroke: #231f20;
        stroke-miterlimit: 10;
      }

      .cls-4, .cls-5, .cls-6, .cls-7 {
        fill: #231f20;
      }

      .cls-4, .cls-8 {
        font-family: Cambria-BoldItalic, Cambria;
        font-size: 25px;
        font-style: italic;
        font-weight: 700;
      }

      .cls-2 {
        stroke-width: 3px;
      }

      .cls-5 {
        font-family: MonotypeCorsiva, 'Monotype Corsiva';
        font-size: 40px;
      }

      .cls-9 {
        fill: #00aeef;
      }

      .cls-10 {
        fill: #2e3192;
      }

      .cls-6 {
        letter-spacing: -.03em;
      }

      .cls-11 {
        fill: #7f3f98;
      }

      .cls-12 {
        fill: #ed1c24;
      }

      .cls-3 {
        stroke-width: .5px;
      }
    </style>
  </defs>
  <g>
    <path class="cls-10" d="m427.84,264.62c11.31,0,19.27.78,21.63,10.07,2.98-9.43,8.29-9.84,18.89-9.84l-2.9-2.94s1.11-1.17,1.98-.53c1.26.92,4.22,4.36,4.22,4.36,0,0-3.22,3.6-4.22,4.33-.87.65-1.98-.5-1.98-.5l2.9-2.84c-14.59-.52-17.75,3.9-17.75,17.62,0,1.4-2.61,1.38-2.61,0,0-13.61-2.18-17.43-20.17-17.43-1.42,0-1.39-2.31,0-2.31Z"/>
    <path class="cls-10" d="m512.35,264.62c11.31,0,19.27.78,21.63,10.07,2.98-9.43,8.29-9.84,18.89-9.84l-2.9-2.94s1.11-1.17,1.98-.53c1.26.92,4.22,4.36,4.22,4.36,0,0-3.22,3.6-4.22,4.33-.87.65-1.98-.5-1.98-.5l2.9-2.84c-14.59-.52-17.75,3.9-17.75,17.62,0,1.4-2.61,1.38-2.61,0,0-13.61-2.18-17.43-20.17-17.43-1.42,0-1.39-2.31,0-2.31Z"/>
    <path class="cls-12" d="m89.87,182.86l2.64-2.65s-1.05-1.08-1.87-.47c-.94.68-3.95,4.06-3.95,4.06,0,0,2.77,3.23,3.95,4.09.82.59,1.87-.5,1.87-.5l-2.64-2.61c32.86,0,32.43-52.45-1.76-52.45-1.92,0-1.86,2.24,0,2.23,31.49-.1,31.03,48.2,1.76,48.3Z"/>
    <path class="cls-12" d="m88.87,337.18l2.64,2.65s-1.05,1.08-1.87.47c-.94-.68-3.95-4.06-3.95-4.06,0,0,1.72-2,3.02-3.27.65.16,1.29.34,1.92.55l-1.76,1.74c2.77,0,5.31.37,7.6,1.07,2,1.32,3.77,2.96,5.22,4.9-3.36-2.5-7.64-4.03-12.82-4.05Z"/>
    <path class="cls-12" d="m87.11,387.71c-1.92,0-1.86-2.23,0-2.23,18.92.06,26.3-17.34,22.84-31.27-.16-.65-.34-1.29-.55-1.92-.68-2.08-1.62-4.05-2.81-5.84-.74-2.55-1.88-4.81-3.33-6.77,17.24,12.61,11.95,48.03-16.15,48.03Z"/>
    <path class="cls-12" d="m106.59,346.45c-1.32-2-2.96-3.77-4.9-5.22-1.45-1.94-3.22-3.58-5.22-4.9,2.56.75,4.82,1.89,6.79,3.35,1.45,1.96,2.59,4.22,3.33,6.77Z"/>
    <path class="cls-12" d="m91.51,332.65l-.88.87c-.63-.21-1.27-.39-1.92-.55.36-.35.68-.64.93-.82.82-.59,1.87.5,1.87.5Z"/>
    <path class="cls-10" d="m103.26,339.68c-1.97-1.46-4.23-2.6-6.79-3.35-1.79-1.19-3.76-2.13-5.84-2.81l.88-.87s-1.05-1.09-1.87-.5c-.25.18-.57.47-.93.82-13.93-3.46-31.33,3.92-31.27,22.84,0,1.86-2.23,1.92-2.23,0,0-28.11,35.45-33.4,48.05-16.13Z"/>
    <path class="cls-10" d="m110.77,353.28c-.18.25-.47.57-.82.93-1.27,1.3-3.27,3.02-3.27,3.02,0,0-3.38-3.01-4.06-3.95-.61-.82.47-1.87.47-1.87l2.65,2.64c-.02-5.18-1.55-9.46-4.05-12.82,1.94,1.45,3.58,3.22,4.9,5.22.7,2.29,1.07,4.83,1.07,7.6l2.61-2.64s1.09,1.05.5,1.87Z"/>
    <path class="cls-12" d="m56.65,266.89l2.65,2.64s1.08-1.05.47-1.87c-.68-.94-4.06-3.95-4.06-3.95,0,0-3.23,2.77-4.09,3.95-.59.82.5,1.87.5,1.87l2.61-2.64c0,32.86,52.45,32.43,52.45-1.76,0-1.92-2.24-1.86-2.23,0,.1,31.49-48.2,31.03-48.3,1.76Z"/>
    <path class="cls-12" d="m241.08,267.3l2.65,2.64s1.08-1.05.47-1.87c-.68-.94-4.06-3.95-4.06-3.95,0,0-3.23,2.77-4.09,3.95-.59.82.5,1.87.5,1.87l2.61-2.64c0,32.86,52.45,32.43,52.45-1.76,0-1.92-2.24-1.86-2.23,0,.1,31.49-48.2,31.03-48.3,1.76Z"/>
    <path class="cls-12" d="m269.68,330.67l2.64,2.65s-1.05,1.08-1.87.47c-.94-.68-3.95-4.06-3.95-4.06,0,0,2.77-3.23,3.95-4.09.82-.59,1.87.5,1.87.5l-2.64,2.61c32.86,0,32.43,52.45-1.76,52.45-1.92,0-1.86-2.24,0-2.23,31.49.1,31.03-48.2,1.76-48.3Z"/>
    <path class="cls-10" d="m105.35,464.81l-2.65,2.64s-1.08-1.05-.47-1.87c.68-.94,4.06-3.95,4.06-3.95,0,0,3.23,2.77,4.09,3.95.59.82-.5,1.87-.5,1.87l-2.61-2.64c0,32.86-52.45,32.43-52.45-1.76,0-1.92,2.24-1.86,2.23,0-.1,31.49,48.2,31.03,48.3,1.76Z"/>
    <path class="cls-10" d="m377.52,463.69l-2.65,2.64s-1.08-1.05-.47-1.87c.68-.94,4.06-3.95,4.06-3.95,0,0,3.23,2.77,4.09,3.95.59.82-.5,1.87-.5,1.87l-2.61-2.64c0,32.86-52.45,32.43-52.45-1.76,0-1.92,2.24-1.86,2.23,0-.1,31.49,48.2,31.03,48.3,1.76Z"/>
    <path class="cls-10" d="m359.51,382.8l2.64-2.65s-1.05-1.08-1.87-.47c-.94.68-3.95,4.06-3.95,4.06,0,0,2.77,3.23,3.95,4.09.82.59,1.87-.5,1.87-.5l-2.64-2.61c32.86,0,32.43-52.45-1.76-52.45-1.92,0-1.86,2.24,0,2.23,31.49-.1,31.03,48.2,1.76,48.3Z"/>
    <path class="cls-12" d="m326.03,265.07l2.65,2.64s1.08-1.05.47-1.87c-.68-.94-4.06-3.95-4.06-3.95,0,0-3.23,2.77-4.09,3.95-.59.82.5,1.87.5,1.87l2.61-2.64c0,32.86,52.45,32.43,52.45-1.76,0-1.92-2.24-1.86-2.23,0,.1,31.49-48.2,31.03-48.3,1.76Z"/>
    <path class="cls-12" d="m508.34,266.81l2.65,2.64s1.08-1.05.47-1.87c-.68-.94-4.06-3.95-4.06-3.95,0,0-3.23,2.77-4.09,3.95-.59.82.5,1.87.5,1.87l2.61-2.64c0,32.86,52.45,32.43,52.45-1.76,0-1.92-2.24-1.86-2.23,0,.1,31.49-48.2,31.03-48.3,1.76Z"/>
    <path class="cls-10" d="m381.44,265.07l-2.65,2.64s-1.08-1.05-.47-1.87c.68-.94,4.06-3.95,4.06-3.95,0,0,3.23,2.77,4.09,3.95.59.82-.5,1.87-.5,1.87l-2.61-2.64c0,32.86-52.45,32.43-52.45-1.76,0-1.92,2.24-1.86,2.23,0-.1,31.49,48.2,31.03,48.3,1.76Z"/>
    <path class="cls-10" d="m65.5,266.89l2.65,2.64s1.08-1.05.47-1.87c-.68-.94-4.06-3.95-4.06-3.95,0,0-3.23,2.77-4.09,3.95-.59.82.5,1.87.5,1.87l2.61-2.64c0,32.86,52.45,32.43,52.45-1.76,0-1.92-2.24-1.86-2.23,0,.1,31.49-48.2,31.03-48.3,1.76Z"/>
    <path class="cls-12" d="m269.87,182.86l2.64-2.65s-1.05-1.08-1.87-.47c-.94.68-3.95,4.06-3.95,4.06,0,0,2.77,3.23,3.95,4.09.82.59,1.87-.5,1.87-.5l-2.64-2.61c32.86,0,32.43-52.45-1.76-52.45-1.92,0-1.86,2.24,0,2.23,31.49-.1,31.03,48.2,1.76,48.3Z"/>
    <path class="cls-10" d="m77.6,135l-2.64,2.65s1.05,1.08,1.87.47c.94-.68,3.95-4.06,3.95-4.06,0,0-2.77-3.23-3.95-4.09-.82-.59-1.87.5-1.87.5l2.64,2.61c-32.86,0-32.43,52.45,1.76,52.45,1.92,0,1.86-2.24,0-2.23-31.49.1-31.03-48.2-1.76-48.3Z"/>
    <path class="cls-10" d="m167.86,180.32c0-11.31-.78-19.27-10.07-21.63,9.43-2.98,9.84-8.29,9.84-18.89l2.94,2.9s1.17-1.11.53-1.98c-.92-1.26-4.36-4.22-4.36-4.22,0,0-3.6,3.22-4.33,4.22-.65.87.5,1.98.5,1.98l2.84-2.9c.52,14.59-3.9,17.75-17.62,17.75-1.4,0-1.38,2.61,0,2.61,13.61,0,17.43,2.18,17.43,20.17,0,1.42,2.31,1.39,2.31,0Z"/>
    <path class="cls-10" d="m257.86,180.32c0-11.31-.78-19.27-10.07-21.63,9.43-2.98,9.84-8.29,9.84-18.89l2.94,2.9s1.17-1.11.53-1.98c-.92-1.26-4.36-4.22-4.36-4.22,0,0-3.6,3.22-4.33,4.22-.65.87.5,1.98.5,1.98l2.84-2.9c.52,14.59-3.9,17.75-17.62,17.75-1.4,0-1.38,2.61,0,2.61,13.61,0,17.43,2.18,17.43,20.17,0,1.42,2.31,1.39,2.31,0Z"/>
    <path class="cls-12" d="m179.62,137.55c0,11.31.78,19.27,10.07,21.63-9.43,2.98-9.84,8.29-9.84,18.89l-2.94-2.9s-1.17,1.11-.53,1.98c.92,1.26,4.36,4.22,4.36,4.22,0,0,3.6-3.22,4.33-4.22.65-.87-.5-1.98-.5-1.98l-2.84,2.9c-.52-14.59,3.9-17.75,17.62-17.75,1.4,0,1.38-2.61,0-2.61-13.61,0-17.43-2.18-17.43-20.17,0-1.42-2.31-1.39-2.31,0Z"/>
    <path class="cls-10" d="m191.13,266.64c-11.31,0-19.27.78-21.63,10.07-2.98-9.43-8.29-9.84-18.89-9.84l2.9-2.94s-1.11-1.17-1.98-.53c-1.26.92-4.22,4.36-4.22,4.36,0,0,3.22,3.6,4.22,4.33.87.65,1.98-.5,1.98-.5l-2.9-2.84c14.59-.52,17.75,3.9,17.75,17.62,0,1.4,2.61,1.38,2.61,0,0-13.61,2.18-17.43,20.17-17.43,1.42,0,1.39-2.31,0-2.31Z"/>
    <path class="cls-10" d="m147.78,353.77c11.31,0,19.27-.78,21.63-10.07,2.98,9.43,8.29,9.84,18.89,9.84l-2.9,2.94s1.11,1.17,1.98.53c1.26-.92,4.22-4.36,4.22-4.36,0,0-3.22-3.6-4.22-4.33-.87-.65-1.98.5-1.98.5l2.9,2.84c-14.59.52-17.75-3.9-17.75-17.62,0-1.4-2.61-1.38-2.61,0,0,13.61-2.18,17.43-20.17,17.43-1.42,0-1.39,2.31,0,2.31Z"/>
    <path class="cls-10" d="m246.57,354.17c11.31,0,19.27-.78,21.63-10.07,2.98,9.43,8.29,9.84,18.89,9.84l-2.9,2.94s1.11,1.17,1.98.53c1.26-.92,4.22-4.36,4.22-4.36,0,0-3.22-3.6-4.22-4.33-.87-.65-1.98.5-1.98.5l2.9,2.84c-14.59.52-17.75-3.9-17.75-17.62,0-1.4-2.61-1.38-2.61,0,0,13.61-2.18,17.43-20.17,17.43-1.42,0-1.39,2.31,0,2.31Z"/>
    <path class="cls-12" d="m464.48,353.05c-11.31,0-19.27-.78-21.63-10.07-2.98,9.43-8.29,9.84-18.89,9.84l2.9,2.94s-1.11,1.17-1.98.53c-1.26-.92-4.22-4.36-4.22-4.36,0,0,3.22-3.6,4.22-4.33.87-.65,1.98.5,1.98.5l-2.9,2.84c14.59.52,17.75-3.9,17.75-17.62,0-1.4,2.61-1.38,2.61,0,0,13.61,2.18,17.43,20.17,17.43,1.42,0,1.39,2.31,0,2.31Z"/>
    <path class="cls-10" d="m449.18,337.55c0,11.31.78,19.27,10.07,21.63-9.43,2.98-9.84,8.29-9.84,18.89l-2.94-2.9s-1.17,1.11-.53,1.98c.92,1.26,4.36,4.22,4.36,4.22,0,0,3.6-3.22,4.33-4.22.65-.87-.5-1.98-.5-1.98l-2.84,2.9c-.52-14.59,3.9-17.75,17.62-17.75,1.4,0,1.38-2.61,0-2.61-13.61,0-17.43-2.18-17.43-20.17,0-1.42-2.31-1.39-2.31,0Z"/>
    <path class="cls-10" d="m539.78,337.55c0,11.31.78,19.27,10.07,21.63-9.43,2.98-9.84,8.29-9.84,18.89l-2.94-2.9s-1.17,1.11-.53,1.98c.92,1.26,4.36,4.22,4.36,4.22,0,0,3.6-3.22,4.33-4.22.65-.87-.5-1.98-.5-1.98l-2.84,2.9c-.52-14.59,3.9-17.75,17.62-17.75,1.4,0,1.38-2.61,0-2.61-13.61,0-17.43-2.18-17.43-20.17,0-1.42-2.31-1.39-2.31,0Z"/>
    <path class="cls-12" d="m179.14,385.13c0-11.31.78-19.27,10.07-21.63-9.43-2.98-9.84-8.29-9.84-18.89l-2.94,2.9s-1.17-1.11-.53-1.98c.92-1.26,4.36-4.22,4.36-4.22,0,0,3.6,3.22,4.33,4.22.65.87-.5,1.98-.5,1.98l-2.84-2.9c-.52,14.59,3.9,17.75,17.62,17.75,1.4,0,1.38,2.61,0,2.61-13.61,0-17.43,2.18-17.43,20.17,0,1.42-2.31,1.39-2.31,0Z"/>
    <path class="cls-12" d="m179.14,475.51c0-11.31.78-19.27,10.07-21.63-9.43-2.98-9.84-8.29-9.84-18.89l-2.94,2.9s-1.17-1.11-.53-1.98c.92-1.26,4.36-4.22,4.36-4.22,0,0,3.6,3.22,4.33,4.22.65.87-.5,1.98-.5,1.98l-2.84-2.9c-.52,14.59,3.9,17.75,17.62,17.75,1.4,0,1.38,2.61,0,2.61-13.61,0-17.43,2.18-17.43,20.17,0,1.42-2.31,1.39-2.31,0Z"/>
    <path class="cls-12" d="m360.11,476.58c0-11.31.78-19.27,10.07-21.63-9.43-2.98-9.84-8.29-9.84-18.89l-2.94,2.9s-1.17-1.11-.53-1.98c.92-1.26,4.36-4.22,4.36-4.22,0,0,3.6,3.22,4.33,4.22.65.87-.5,1.98-.5,1.98l-2.84-2.9c-.52,14.59,3.9,17.75,17.62,17.75,1.4,0,1.38,2.61,0,2.61-13.61,0-17.43,2.18-17.43,20.17,0,1.42-2.31,1.39-2.31,0Z"/>
    <path class="cls-10" d="m148.44,464.35c11.31,0,19.27.78,21.63,10.07,2.98-9.43,8.29-9.84,18.89-9.84l-2.9-2.94s1.11-1.17,1.98-.53c1.26.92,4.22,4.36,4.22,4.36,0,0-3.22,3.6-4.22,4.33-.87.65-1.98-.5-1.98-.5l2.9-2.84c-14.59-.52-17.75,3.9-17.75,17.62,0,1.4-2.61,1.38-2.61,0,0-13.61-2.18-17.43-20.17-17.43-1.42,0-1.39-2.31,0-2.31Z"/>
    <path class="cls-12" d="m179.53,602.82c0,11.31.78,19.27,10.07,21.63-9.43,2.98-9.84,8.29-9.84,18.89l-2.94-2.9s-1.17,1.11-.53,1.98c.92,1.26,4.36,4.22,4.36,4.22,0,0,3.6-3.22,4.33-4.22.65-.87-.5-1.98-.5-1.98l-2.84,2.9c-.52-14.59,3.9-17.75,17.62-17.75,1.4,0,1.38-2.61,0-2.61-13.61,0-17.43-2.18-17.43-20.17,0-1.42-2.31-1.39-2.31,0Z"/>
    <path class="cls-12" d="m199.89,732.03c-11.31,0-19.27.78-21.63,10.07-2.98-9.43-8.29-9.84-18.89-9.84l2.9-2.94s-1.11-1.17-1.98-.53c-1.26.92-4.22,4.36-4.22,4.36,0,0,3.22,3.6,4.22,4.33.87.65,1.98-.5,1.98-.5l-2.9-2.84c14.59-.52,17.75,3.9,17.75,17.62,0,1.4,2.61,1.38,2.61,0,0-13.61,2.18-17.43,20.17-17.43,1.42,0,1.39-2.31,0-2.31Z"/>
    <path class="cls-12" d="m332.35,730.13c11.31,0,19.27.78,21.63,10.07,2.98-9.43,8.29-9.84,18.89-9.84l-2.9-2.94s1.11-1.17,1.98-.53c1.26.92,4.22,4.36,4.22,4.36,0,0-3.22,3.6-4.22,4.33-.87.65-1.98-.5-1.98-.5l2.9-2.84c-14.59-.52-17.75,3.9-17.75,17.62,0,1.4-2.61,1.38-2.61,0,0-13.61-2.18-17.43-20.17-17.43-1.42,0-1.39-2.31,0-2.31Z"/>
    <path class="cls-12" d="m370.75,629.85c-11.31,0-19.27.78-21.63,10.07-2.98-9.43-8.29-9.84-18.89-9.84l2.9-2.94s-1.11-1.17-1.98-.53c-1.26.92-4.22,4.36-4.22,4.36,0,0,3.22,3.6,4.22,4.33.87.65,1.98-.5,1.98-.5l-2.9-2.84c14.59-.52,17.75,3.9,17.75,17.62,0,1.4,2.61,1.38,2.61,0,0-13.61,2.18-17.43,20.17-17.43,1.42,0,1.39-2.31,0-2.31Z"/>
    <path class="cls-10" d="m241.52,464.35c11.31,0,19.27.78,21.63,10.07,2.98-9.43,8.29-9.84,18.89-9.84l-2.9-2.94s1.11-1.17,1.98-.53c1.26.92,4.22,4.36,4.22,4.36,0,0-3.22,3.6-4.22,4.33-.87.65-1.98-.5-1.98-.5l2.9-2.84c-14.59-.52-17.75,3.9-17.75,17.62,0,1.4-2.61,1.38-2.61,0,0-13.61-2.18-17.43-20.17-17.43-1.42,0-1.39-2.31,0-2.31Z"/>
    <path class="cls-10" d="m287.89,266.23c-11.31,0-19.27.78-21.63,10.07-2.98-9.43-8.29-9.84-18.89-9.84l2.9-2.94s-1.11-1.17-1.98-.53c-1.26.92-4.22,4.36-4.22,4.36,0,0,3.22,3.6,4.22,4.33.87.65,1.98-.5,1.98-.5l-2.9-2.84c14.59-.52,17.75,3.9,17.75,17.62,0,1.4,2.61,1.38,2.61,0,0-13.61,2.18-17.43,20.17-17.43,1.42,0,1.39-2.31,0-2.31Z"/>
    <path class="cls-12" d="m460.07,264.62c-11.31,0-19.27.78-21.63,10.07-2.98-9.43-8.29-9.84-18.89-9.84l2.9-2.94s-1.11-1.17-1.98-.53c-1.26.92-4.22,4.36-4.22,4.36,0,0,3.22,3.6,4.22,4.33.87.65,1.98-.5,1.98-.5l-2.9-2.84c14.59-.52,17.75,3.9,17.75,17.62,0,1.4,2.61,1.38,2.61,0,0-13.61,2.18-17.43,20.17-17.43,1.42,0,1.39-2.31,0-2.31Z"/>
    <path class="cls-12" d="m199.12,266.64c-11.31,0-19.27.78-21.63,10.07-2.98-9.43-8.29-9.84-18.89-9.84l2.9-2.94s-1.11-1.17-1.98-.53c-1.26.92-4.22,4.36-4.22,4.36,0,0,3.22,3.6,4.22,4.33.87.65,1.98-.5,1.98-.5l-2.9-2.84c14.59-.52,17.75,3.9,17.75,17.62,0,1.4,2.61,1.38,2.61,0,0-13.61,2.18-17.43,20.17-17.43,1.42,0,1.39-2.31,0-2.31Z"/>
    <path class="cls-12" d="m541.77,181.6l2.64-2.65s-1.05-1.08-1.87-.47c-.94.68-3.95,4.06-3.95,4.06,0,0,2.77,3.23,3.95,4.09.82.59,1.87-.5,1.87-.5l-2.64-2.61c32.86,0,32.43-52.45-1.76-52.45-1.92,0-1.86,2.24,0,2.23,31.49-.1,31.03,48.2,1.76,48.3Z"/>
    <path class="cls-10" d="m346.26,181.6l-2.64-2.65s1.05-1.08,1.87-.47c.94.68,3.95,4.06,3.95,4.06,0,0-2.77,3.23-3.95,4.09-.82.59-1.87-.5-1.87-.5l2.64-2.61c-32.86,0-32.43-52.45,1.76-52.45,1.92,0,1.86,2.24,0,2.23-31.49-.1-31.03,48.2-1.76,48.3Z"/>
    <path class="cls-12" d="m361.22,181.6l2.64-2.65s-1.05-1.08-1.87-.47c-.94.68-3.95,4.06-3.95,4.06,0,0,2.77,3.23,3.95,4.09.82.59,1.87-.5,1.87-.5l-2.64-2.61c32.86,0,32.43-52.45-1.76-52.45-1.92,0-1.86,2.24,0,2.23,31.49-.1,31.03,48.2,1.76,48.3Z"/>
    <path class="cls-10" d="m526.18,137.55c0,11.31-.78,19.27-10.07,21.63,9.43,2.98,9.84,8.29,9.84,18.89l2.94-2.9s1.17,1.11.53,1.98c-.92,1.26-4.36,4.22-4.36,4.22,0,0-3.6-3.22-4.33-4.22-.65-.87.5-1.98.5-1.98l2.84,2.9c.52-14.59-3.9-17.75-17.62-17.75-1.4,0-1.38-2.61,0-2.61,13.61,0,17.43-2.18,17.43-20.17,0-1.42,2.31-1.39,2.31,0Z"/>
    <path class="cls-12" d="m451.86,137.55c0,11.31.78,19.27,10.07,21.63-9.43,2.98-9.84,8.29-9.84,18.89l-2.94-2.9s-1.17,1.11-.53,1.98c.92,1.26,4.36,4.22,4.36,4.22,0,0,3.6-3.22,4.33-4.22.65-.87-.5-1.98-.5-1.98l-2.84,2.9c-.52-14.59,3.9-17.75,17.62-17.75,1.4,0,1.38-2.61,0-2.61-13.61,0-17.43-2.18-17.43-20.17,0-1.42-2.31-1.39-2.31,0Z"/>
    <path class="cls-10" d="m435.63,137.55c0,11.31-.78,19.27-10.07,21.63,9.43,2.98,9.84,8.29,9.84,18.89l2.94-2.9s1.17,1.11.53,1.98c-.92,1.26-4.36,4.22-4.36,4.22,0,0-3.6-3.22-4.33-4.22-.65-.87.5-1.98.5-1.98l2.84,2.9c.52-14.59-3.9-17.75-17.62-17.75-1.4,0-1.38-2.61,0-2.61,13.61,0,17.43-2.18,17.43-20.17,0-1.42,2.31-1.39,2.31,0Z"/>
    <path class="cls-12" d="m329.76,353.05l2.65-2.64s1.08,1.05.47,1.87c-.68.94-4.06,3.95-4.06,3.95,0,0-3.23-2.77-4.09-3.95-.59-.82.5-1.87.5-1.87l2.61,2.64c0-32.86,52.45-32.43,52.45,1.76,0,1.92-2.24,1.86-2.23,0,.1-31.49-48.2-31.03-48.3-1.76Z"/>
    <path class="cls-12" d="m510.37,352.93l2.65-2.64s1.08,1.05.47,1.87c-.68.94-4.06,3.95-4.06,3.95,0,0-3.23-2.77-4.09-3.95-.59-.82.5-1.87.5-1.87l2.61,2.64c0-32.86,52.45-32.43,52.45,1.76,0,1.92-2.24,1.86-2.23,0,.1-31.49-48.2-31.03-48.3-1.76Z"/>
    <path class="cls-12" d="m89.9,436.29l2.64,2.65s-1.05,1.08-1.87.47c-.94-.68-3.95-4.06-3.95-4.06,0,0,2.77-3.23,3.95-4.09.82-.59,1.87.5,1.87.5l-2.64,2.61c32.86,0,32.43,52.45-1.76,52.45-1.92,0-1.86-2.24,0-2.23,31.49.1,31.03-48.2,1.76-48.3Z"/>
    <path class="cls-12" d="m89.53,647.69l2.64-2.65s-1.05-1.08-1.87-.47c-.94.68-3.95,4.06-3.95,4.06,0,0,2.77,3.23,3.95,4.09.82.59,1.87-.5,1.87-.5l-2.64-2.61c32.86,0,32.43-52.45-1.76-52.45-1.92,0-1.86,2.24,0,2.23,31.58-.11,31.15,48.18,1.76,48.3Z"/>
    <path class="cls-12" d="m60.49,731.77l2.65,2.64s1.08-1.05.47-1.87c-.68-.94-4.06-3.95-4.06-3.95,0,0-3.23,2.77-4.09,3.95-.59.82.5,1.87.5,1.87l2.61-2.64c0,32.86,52.45,32.43,52.45-1.76,0-1.92-2.24-1.86-2.23,0,.11,31.58-48.18,31.15-48.3,1.76Z"/>
    <path class="cls-12" d="m287.69,729.88l-2.65,2.64s-1.08-1.05-.47-1.87c.68-.94,4.06-3.95,4.06-3.95,0,0,3.23,2.77,4.09,3.95.59.82-.5,1.87-.5,1.87l-2.61-2.64c0,32.86-52.45,32.43-52.45-1.76,0-1.92,2.24-1.86,2.23,0-.11,31.58,48.18,31.15,48.3,1.76Z"/>
    <path class="cls-12" d="m239.43,630.17l2.65,2.64s1.08-1.05.47-1.87c-.68-.94-4.06-3.95-4.06-3.95,0,0-3.23,2.77-4.09,3.95-.59.82.5,1.87.5,1.87l2.61-2.64c0,32.86,52.45,32.43,52.45-1.76,0-1.92-2.24-1.86-2.23,0,.11,31.58-48.18,31.15-48.3,1.76Z"/>
    <path class="cls-12" d="m269.68,436.29l2.64,2.65s-1.05,1.08-1.87.47c-.94-.68-3.95-4.06-3.95-4.06,0,0,2.77-3.23,3.95-4.09.82-.59,1.87.5,1.87.5l-2.64,2.61c32.86,0,32.43,52.45-1.76,52.45-1.92,0-1.86-2.24,0-2.23,31.49.1,31.03-48.2,1.76-48.3Z"/>
  </g>
  <path class="cls-7" d="m83.75,320.97c3.22,0,3.22-5,0-5s-3.22,5,0,5h0Z"/>
  <g>
    <line class="cls-3" x1="52.22" y1="210.11" x2="564.8" y2="210.11"/>
    <line class="cls-1" x1="52.22" y1="310.11" x2="565.07" y2="310.11"/>
    <line class="cls-3" x1="52.22" y1="410.11" x2="564.8" y2="410.11"/>
    <line class="cls-2" x1="9.52" y1="521.35" x2="607.51" y2="521.35"/>
    <line class="cls-3" x1="54.18" y1="681.52" x2="567.02" y2="681.52"/>
  </g>
  <g>
    <path class="cls-7" d="m169.77,199.34c4.39-1.93.8-6.48-3.28-4.27-.04.02-.07.06-.07.1-.38,2.63-.16,6.19.2,8.71.02.13.12.23.24.27,6.22,1.71,7.68-3.78,2.91-4.81Zm.65-2.47c0,1.13-1.98,1.51-2.74,1.51-.13-.26-.02-2.43.07-2.53.9-.25,2.67.04,2.67,1.02Zm-2.38,6.17c-.17-1.1-.2-1.41-.14-2.54.47-.06,3.32-.1,3.29,1.38-.03,1.15-2.44,1.38-3.15,1.16Z"/>
    <path class="cls-7" d="m178.42,199.34c4.39-1.93.8-6.48-3.28-4.27-.04.02-.07.06-.07.1-.38,2.63-.16,6.19.2,8.71.02.13.12.23.24.27,6.22,1.71,7.68-3.78,2.91-4.81Zm.65-2.47c0,1.13-1.98,1.51-2.74,1.51-.13-.26-.02-2.43.07-2.53.9-.25,2.67.04,2.67,1.02Zm-2.38,6.17c-.17-1.1-.2-1.41-.14-2.54.47-.06,3.32-.1,3.29,1.38-.03,1.15-2.44,1.38-3.15,1.16Z"/>
    <path class="cls-7" d="m262.86,202.24c.42.55-.07,1.12-.5,1.33-9.15,4.54-8.83-9.42-3.27-9.09,1.07.06,2.05.85,2.39,1.26.25.29.44.81.12,1.16-.34.36-.8.24-1.02,0-4.33-4.56-6.65,9.06,1.11,5.25.45-.22.79-.4,1.16.09Z"/>
    <path class="cls-7" d="m272.16,202.24c.42.55-.07,1.12-.5,1.33-9.15,4.54-8.83-9.42-3.27-9.09,1.07.06,2.05.85,2.39,1.26.25.29.44.81.12,1.16-.34.36-.8.24-1.02,0-4.33-4.56-6.65,9.06,1.11,5.25.45-.22.79-.4,1.16.09Z"/>
    <path class="cls-7" d="m344.82,194.93c4.64-1.3,7.94.33,7.99,3.72.1,6.19-7.54,6.06-7.86,5.69-.19-.72-.85-5.47-.13-9.41Zm1.61,7.69c3.94-.46,5.1-2.07,4.74-4.52-.36-2.45-4.31-2.07-4.85-1.81-.26,3.6-.2,4.36.11,6.32Z"/>
    <path class="cls-7" d="m437.72,197.47c0,.36.02,1.02.02,1.02,0,0,2.18.01,3.53.07.5.02.9-.07.95.78.04.6-.32.73-.87.77-1.28.09-3.49.05-3.49.05,0,0,.03,1.16.07,1.65.03.39.1.88.1.88,0,0,3.53.01,3.93,0,.33,0,.84,0,.81.84-.03.89-.42.83-.98.87-1.49.1-4.12,0-4.84-.38-1.02-.55-.79-5.46-.37-8.84.08-.67,3.98-.71,4.96-.62.44.04.67.53.67.82,0,.31,0,.87-.59.9-1.38.08-3.86.16-3.86.16,0,0-.03.8-.02,1.03Z"/>
    <path class="cls-7" d="m526.76,203.83c-.21-2.13-.27-7.16-.03-8.83,0,0,1.78-.75,5.18-.44.42.04.62.25.63.53.03.54,0,1.08-.55,1.11-1.32.07-3.68.15-3.68.15,0,0-.03.76-.02.98,0,.34.02.97.02.97,0,0,2.08.01,3.36.07.47.02.88-.05.91.74.02.57-.38.7-.91.74-1.22.09-3.25.04-3.25.04.07,1.57.19,3.19.19,3.78,0,.69-.57.8-.97.8-.59,0-.85-.44-.87-.65Z"/>
    <path class="cls-7" d="m166.93,294.64c.6,0,.78.44.78,1.3,0,1.42-.08,2.98.59,2.98.85,0,1.26.02,2.11.02.66,0,.57-2.05.57-3.25,0-.84.25-1.01.74-1.01s.74.12.74,1.02c.03,1.93.21,7.06.21,7.98s-.13.95-.74.95c-.67,0-.76-.2-.74-.91.05-2.55.11-3.14-.89-3.17-.79-.02-1.01-.02-1.81-.03-.97-.01-.96.49-1.06,3.29-.03.74-.3.75-.77.75-.37,0-.69-.07-.64-.9.02-.27.16-5.72.15-7.8,0-.72.14-1.23.77-1.23Z"/>
    <path class="cls-7" d="m175.56,294.64c.6,0,.78.44.78,1.3,0,1.42-.08,2.98.59,2.98.85,0,1.26.02,2.11.02.66,0,.57-2.05.57-3.25,0-.84.25-1.01.74-1.01s.74.12.74,1.02c.03,1.93.21,7.06.21,7.98s-.13.95-.74.95c-.67,0-.76-.2-.74-.91.05-2.55.11-3.14-.89-3.17-.79-.02-1.01-.02-1.81-.03-.97-.01-.96.49-1.06,3.29-.03.74-.3.75-.77.75-.37,0-.69-.07-.64-.9.02-.27.16-5.72.15-7.8,0-.72.14-1.23.77-1.23Z"/>
    <path class="cls-7" d="m535.57,195.1c-.19,8.85-.94,7.8,4.1,7.75.71,0,1.24.12,1.24.84,0,.33-.44.77-1.2.77-4.71,0-4.71.13-5.33-.4-.49-.41-.42-1.9-.42-2.78,0-1.17.02-5.56.1-6.18s.33-.62.75-.62c.38,0,.77.09.76.62Z"/>
    <path class="cls-7" d="m358.51,198.05c-.23-1.81.31-1.52-1.96-1.52-.48,0-1.1-.23-1.08-.83.02-.68.18-1,1.11-1,.29,0,2.96-.14,5.13-.13.75,0,1.29.31,1.29,1,0,.56-.42.9-1.31.9-1.86,0-1.61-.26-1.61,1.62,0,2.18.1,3.12-.28,3.9-2.04,4.14-6.19,2.28-6.19-.8,0-.58.16-.88.74-.92.52-.04.65.48.76.88.75,2.71,4.08,2.04,3.42-3.1Z"/>
    <path class="cls-7" d="m446.29,200.59c0,1.63,0,2.16,0,3.1,0,.66-.29.79-.8.79-.52,0-.93-.29-.93-.87,0-1.15-.04-6.16-.04-8.56,0-.52.34-.57.65-.57.41,0,.86.14.86.57,0,1.02.08,3.16.08,3.16,0,0,1.87-1.75,2.5-2.42.41-.44,1-.5,1.3-.14s.47.6-.1,1.15c-.85.84-1.04,1.21-2.46,2.53.83.86,2.18,1.99,3.61,3.62.45.51.34,1.14.17,1.3s-.8.24-1.19-.17-1.92-2.09-3.65-3.5Z"/>
    <path class="cls-7" d="m355.34,294.93c4.64-1.3,7.94.33,7.99,3.72.1,6.19-7.54,6.06-7.86,5.69-.19-.72-.85-5.47-.13-9.41Zm1.61,7.69c3.94-.46,5.1-2.07,4.74-4.52-.36-2.45-4.31-2.07-4.85-1.81-.26,3.6-.2,4.36.11,6.32Z"/>
    <path class="cls-7" d="m446.74,297.47c0,.36.02,1.02.02,1.02,0,0,2.18.01,3.53.07.5.02.9-.07.95.78.04.6-.32.73-.87.77-1.28.09-3.49.05-3.49.05,0,0,.03,1.16.07,1.65.03.39.1.88.1.88,0,0,3.53.01,3.93,0,.33,0,.84,0,.81.84-.03.89-.42.83-.98.87-1.49.1-4.12,0-4.84-.38-1.02-.55-.79-5.46-.37-8.84.08-.67,3.98-.71,4.96-.62.44.04.67.53.67.82,0,.31,0,.87-.59.9-1.38.08-3.86.16-3.86.16,0,0-.03.8-.02,1.03Z"/>
    <path class="cls-7" d="m535.39,303.83c-.21-2.13-.27-7.16-.03-8.83,0,0,1.78-.75,5.18-.44.42.04.62.25.63.53.03.54,0,1.08-.55,1.11-1.32.07-3.68.15-3.68.15,0,0-.03.76-.02.98,0,.34.02.97.02.97,0,0,2.08.01,3.36.07.47.02.88-.05.91.74.02.57-.38.7-.91.74-1.22.09-3.25.04-3.25.04.07,1.57.19,3.19.19,3.78,0,.69-.57.8-.97.8-.59,0-.85-.44-.87-.65Z"/>
    <path class="cls-7" d="m529.14,295.1c-.19,8.85-.94,7.8,4.1,7.75.71,0,1.24.12,1.24.84,0,.33-.44.77-1.2.77-4.71,0-4.71.13-5.33-.4-.49-.41-.42-1.9-.42-2.78,0-1.17.02-5.56.1-6.18s.33-.62.75-.62c.38,0,.77.09.76.62Z"/>
    <path class="cls-7" d="m349.96,298.05c-.23-1.81.31-1.52-1.96-1.52-.48,0-1.1-.23-1.08-.83.02-.68.18-1,1.11-1,.29,0,2.96-.14,5.13-.13.75,0,1.29.31,1.29,1,0,.56-.42.9-1.31.9-1.86,0-1.61-.26-1.61,1.62,0,2.18.1,3.12-.28,3.9-2.04,4.14-6.19,2.28-6.19-.8,0-.58.16-.88.74-.92.52-.04.65.48.76.88.75,2.71,4.08,2.04,3.42-3.1Z"/>
    <path class="cls-7" d="m438.97,300.59c0,1.63,0,2.16,0,3.1,0,.66-.29.79-.8.79-.52,0-.93-.29-.93-.87,0-1.15-.04-6.16-.04-8.56,0-.52.34-.57.65-.57.41,0,.86.14.86.57,0,1.02.08,3.16.08,3.16,0,0,1.87-1.75,2.5-2.42.41-.44,1-.5,1.3-.14s.47.6-.1,1.15c-.85.84-1.04,1.21-2.46,2.53.83.86,2.18,1.99,3.61,3.62.45.51.34,1.14.17,1.3s-.8.24-1.19-.17-1.92-2.09-3.65-3.5Z"/>
    <path class="cls-7" d="m172.89,495.53c0,.49-.38.79-1.17.77h-2.09s0,.06,0,.1v7.38c0,.45-.38.83-.83.83h-.02c-.46,0-.84-.38-.84-.83v-7.38s0-.06,0-.09h-1.98c-.42,0-.96-.3-.93-.83.03-.59.17-.88,1-.86.25,0,3.81-.04,5.73,0,.66.02,1.13.29,1.12.91Z"/>
    <path class="cls-7" d="m182.43,495.53c0,.49-.38.79-1.17.77h-2.09s0,.06,0,.1v7.38c0,.45-.38.83-.83.83h-.02c-.46,0-.84-.38-.84-.83v-7.38s0-.06,0-.09h-1.98c-.42,0-.96-.3-.93-.83.03-.59.17-.88,1-.86.25,0,3.81-.04,5.73,0,.66.02,1.13.29,1.12.91Z"/>
    <path class="cls-7" d="m86.93,395.12c2.1-.68,4.35-.62,5.15.12,1.3,1.2,1.17,2.8.53,3.78-.96,1.47-3.93,1.42-3.93,1.42,0,0,.29,3.22.2,3.68-.02.1-.5.53-.74.53-.26,0-.84-.18-.88-.48-.61-5.29-.67-8.32-.33-9.04Zm1.64,3.84c2.37.24,3.12-.65,2.92-2-.2-1.35-2.71-1-3.01-.85-.11,1.56-.08,1.77.09,2.85Z"/>
    <path class="cls-7" d="m345.68,395.12c2.1-.68,4.35-.62,5.15.12,1.3,1.2,1.17,2.8.53,3.78-.96,1.47-3.93,1.42-3.93,1.42,0,0,.29,3.22.2,3.68-.02.1-.5.53-.74.53-.26,0-.84-.18-.88-.48-.61-5.29-.67-8.32-.33-9.04Zm1.64,3.84c2.37.24,3.12-.65,2.92-2-.2-1.35-2.71-1-3.01-.85-.11,1.56-.08,1.77.09,2.85Z"/>
    <path class="cls-7" d="m532.7,403.28l-2.7-3.03c.87-.25,1.47-.64,1.8-1.14.66-1.02.77-2.65-.54-3.86-.83-.76-3.04-.82-5.15-.14l-.06.02-.02.05c-.26.54-.14,2.22.07,5.27.08,1.06.16,2.26.24,3.62.02.37.41.57.79.57.3,0,.77-.17.84-.62.06-.42-.05-2.87-.08-3.48h.17l3.42,3.83c.16.18.38.27.61.27.2,0,.4-.07.55-.21.34-.3.37-.83.07-1.16Zm-5.02-4.32l-.03-.2c-.13-.82-.2-1.21-.11-2.5.38-.1,1.92-.27,2.71.15.28.14.44.34.47.59.08.5-.06.95-.38,1.3-.52.53-1.46.77-2.66.67Z"/>
    <path class="cls-7" d="m85.59,404.64c-.46.06-.96-.28-1.19-1.14-.42-1.54-.92-3.7-1.44-5.63-1.11,2.72-1.86,4.39-2.5,4.38-.01,0-.02,0-.03-.01-.01.01-.02.01-.03.01-.64.01-1.39-1.65-2.5-4.38-.51,1.93-1.02,4.09-1.44,5.63-.24.86-.73,1.2-1.19,1.14-.59-.07-.98-.49-.74-1.25.25-.81,1.84-6.07,2.3-7.72.47-1.65,1.59-.9,1.8-.49.21.41,1.36,3.67,1.8,4.59.44-.92,1.59-4.18,1.8-4.59.21-.41,1.33-1.16,1.8.49.46,1.64,2.05,6.9,2.3,7.72.24.76-.15,1.18-.74,1.25Z"/>
    <path class="cls-7" d="m362.48,404.64c-.46.06-.96-.28-1.19-1.14-.42-1.54-.92-3.7-1.44-5.63-1.11,2.72-1.86,4.39-2.5,4.38-.01,0-.02,0-.03-.01-.01.01-.02.01-.03.01-.64.01-1.39-1.65-2.5-4.38-.51,1.93-1.02,4.09-1.44,5.63-.24.86-.73,1.2-1.19,1.14-.59-.07-.98-.49-.74-1.25.25-.81,1.84-6.07,2.3-7.72.47-1.65,1.59-.9,1.8-.49.21.41,1.36,3.67,1.8,4.59.44-.92,1.59-4.18,1.8-4.59.21-.41,1.33-1.16,1.8.49.46,1.64,2.05,6.9,2.3,7.72.24.76-.15,1.18-.74,1.25Z"/>
    <path class="cls-7" d="m173.68,395.97c-.2.78-1.37,6.55-1.58,7.33-.21.78-.44,1.33-.9,1.35-.49.01-.64-.27-1.17-1.25-.53-.98-1.66-3.47-2.44-5.56-.53,1.89-.73,3.97-1.16,5.48-.25.85-.58,1.36-1.02,1.29-.1-.02-1.05-.26-.75-1.36.22-.81,1.48-6,1.96-7.62.48-1.62,1.54-.85,1.73-.44.19.41,2.31,5.6,2.67,6.53.19-.85.69-4.5,1.08-6.27.13-.6.81-.88,1.1-.76.29.12.68.5.48,1.29Z"/>
    <path class="cls-7" d="m452.83,395.97c-.2.78-1.37,6.55-1.58,7.33s-.44,1.33-.9,1.35c-.49.01-.64-.27-1.17-1.25-.53-.98-1.66-3.47-2.44-5.56-.53,1.89-.73,3.97-1.16,5.48-.25.85-.58,1.36-1.02,1.29-.1-.02-1.05-.26-.75-1.36.22-.81,1.48-6,1.96-7.62.48-1.62,1.54-.85,1.73-.44.19.41,2.31,5.6,2.67,6.53.19-.85.69-4.5,1.08-6.27.13-.6.81-.88,1.1-.76s.68.5.48,1.29Z"/>
    <path class="cls-7" d="m272.09,403.28l-2.7-3.03c.87-.25,1.47-.64,1.8-1.14.66-1.02.77-2.65-.54-3.86-.83-.76-3.04-.82-5.15-.14l-.06.02-.02.05c-.26.54-.14,2.22.07,5.27.08,1.06.16,2.26.24,3.62.02.37.41.57.79.57.3,0,.77-.17.84-.62.06-.42-.05-2.87-.08-3.48h.17l3.42,3.83c.16.18.38.27.61.27.2,0,.4-.07.55-.21.34-.3.37-.83.07-1.16Zm-5.02-4.32l-.03-.2c-.13-.82-.2-1.21-.11-2.5.38-.1,1.92-.27,2.71.15.28.14.44.34.47.59.08.5-.06.95-.38,1.3-.52.53-1.46.77-2.66.67Z"/>
    <path class="cls-7" d="m254.41,401.52c-.55-2.97.03-4.69,2.09-6.23,1.86-1.39,4.92-.33,5.78,1.24.73,1.31,1.54,4.09-.47,6.49-.67.8-1.59,1.4-2.62,1.57-2.46.41-4.48-1.4-4.79-3.06Zm2.23.5c1.14,1.13,3.41,1.11,4.45-.7,1.02-1.77.06-3.66-.63-4.27-.55-.49-2.53-1.19-3.76.41-1.11,1.45-.84,3.8-.07,4.56Z"/>
    <path class="cls-7" d="m533.96,401.52c-.55-2.97.03-4.69,2.09-6.23,1.86-1.39,4.92-.33,5.78,1.24.73,1.31,1.54,4.09-.47,6.49-.67.8-1.59,1.4-2.62,1.57-2.46.41-4.48-1.4-4.79-3.06Zm2.23.5c1.14,1.13,3.41,1.11,4.45-.7,1.02-1.77.06-3.66-.63-4.27-.55-.49-2.53-1.19-3.76.41-1.11,1.45-.84,3.8-.07,4.56Z"/>
    <path class="cls-7" d="m182.91,403.15l-.97-.99-.02-.02c1.23-2.17.51-4.46-.12-5.62-.87-1.56-3.93-2.62-5.78-1.24-2.07,1.53-2.64,3.26-2.09,6.23.3,1.66,2.32,3.48,4.78,3.07.79-.14,1.51-.53,2.11-1.07l.84.86c.34.34.89.35,1.24,0,.35-.34.35-.9,0-1.24Zm-6.76-1.14c-.78-.77-1.05-3.12.06-4.56,1.24-1.59,3.21-.9,3.76-.41.64.58,1.52,2.26.81,3.93l-.1-.1h0s-1.02-1.04-1.02-1.04c-.34-.35-.9-.35-1.24,0-.18.16-.26.39-.26.62s.08.45.25.62l1.1,1.12.15.15c-1.14.75-2.65.55-3.51-.31Z"/>
    <path class="cls-7" d="m442.84,403.15l-.97-.99-.02-.02c1.23-2.17.51-4.46-.12-5.62-.87-1.56-3.93-2.62-5.78-1.24-2.07,1.53-2.64,3.26-2.09,6.23.3,1.66,2.32,3.48,4.78,3.07.79-.14,1.51-.53,2.11-1.07l.84.86c.34.34.89.35,1.24,0,.35-.34.35-.9,0-1.24Zm-6.76-1.14c-.78-.77-1.05-3.12.06-4.56,1.24-1.59,3.21-.9,3.76-.41.64.58,1.52,2.26.81,3.93l-.1-.1h0s-1.02-1.04-1.02-1.04c-.34-.35-.9-.35-1.24,0-.18.16-.26.39-.26.62s.08.45.25.62l1.1,1.12.15.15c-1.14.75-2.65.55-3.51-.31Z"/>
    <path class="cls-7" d="m82.63,502.26c-.25,1.19-1.45,2.37-3.24,2.37h-.11c-1-.04-2.78-.26-3.51-1.25-.39-.52-.47-1.13-.19-1.44.24-.27.68-.24,1.23.08,1.08,1.06,2.52,1.08,3.42.64.52-.26.82-.65.77-1.03-.03-.33-.36-.94-2.12-1.35-2.5-.56-3.55-1.98-3.49-3.14.06-1.03,1.04-2.24,3.59-2.51.07,0,.13,0,.2,0,1.08,0,2.66.83,2.96,1.59.13.32.04.59-.26.82-.19.14-.59-.05-1.1-.3-.48-.23-1.01-.49-1.51-.55-.14-.02-.27-.03-.4-.03-.95,0-1.68.48-1.82.99-.13.47.23.9.96,1.2l2.99,1.21c1.5.62,1.82,1.8,1.62,2.7Z"/>
    <path class="cls-7" d="m92.03,502.26c-.25,1.19-1.45,2.37-3.24,2.37h-.11c-1-.04-2.78-.26-3.51-1.25-.39-.52-.47-1.13-.19-1.44.24-.27.68-.24,1.23.08,1.08,1.06,2.52,1.08,3.42.64.52-.26.82-.65.77-1.03-.03-.33-.36-.94-2.12-1.35-2.5-.56-3.55-1.98-3.49-3.14.06-1.03,1.04-2.24,3.59-2.51.07,0,.13,0,.2,0,1.08,0,2.66.83,2.96,1.59.13.32.04.59-.26.82-.19.14-.59-.05-1.1-.3-.48-.23-1.01-.49-1.51-.55-.14-.02-.27-.03-.4-.03-.95,0-1.68.48-1.82.99-.13.47.23.9.96,1.2l2.99,1.21c1.5.62,1.82,1.8,1.62,2.7Z"/>
    <path class="cls-7" d="m352.93,495.95c-.06.29-1.97,5.54-3.02,7.94-.32.73-.61.72-.74.72s-.42,0-.74-.72c-1.05-2.4-2.96-7.64-3.02-7.94-.23-1,.08-1.16.44-1.3.28-.13.86-.02,1.12.7.16.42,2.2,5.86,2.2,5.86,0,0,2.05-5.44,2.2-5.86.25-.72.83-.82,1.12-.7.36.15.67.3.44,1.3Z"/>
    <path class="cls-7" d="m362.07,495.95c-.06.29-1.97,5.54-3.02,7.94-.32.73-.61.72-.74.72s-.42,0-.74-.72c-1.05-2.4-2.96-7.64-3.02-7.94-.23-1,.08-1.16.44-1.3.28-.13.86-.02,1.12.7.16.42,2.2,5.86,2.2,5.86,0,0,2.05-5.44,2.2-5.86.25-.72.83-.82,1.12-.7.36.15.67.3.44,1.3Z"/>
    <path class="cls-7" d="m262.92,500.12c-.11.73-.3,1.42-.58,2.11-.6,1.42-1.8,2.3-3.21,2.37h-.26c-1.41-.07-2.6-.95-3.21-2.37-.28-.67-.47-1.36-.57-2.11-.19-1.31-.24-2.6-.18-4.35.02-.47.13-.8.34-.99.14-.13.32-.19.52-.19.64.04.78.66.82,1.21,0,.18,0,.48,0,.86-.05,1.51-.14,4.35.93,5.36.21.2.58.43.94.56.35.14.73.14,1.08,0,.36-.14.74-.37.95-.56,1.06-1.01.98-3.81.93-5.33,0-.4-.02-.71,0-.89.03-.5.15-1.17.8-1.21.21,0,.39.06.52.19.22.19.33.52.34.99.08,1.8.03,3.06-.16,4.35Z"/>
    <path class="cls-7" d="m272.39,500.12c-.11.73-.3,1.42-.58,2.11-.6,1.42-1.8,2.3-3.21,2.37h-.26c-1.41-.07-2.6-.95-3.21-2.37-.28-.67-.47-1.36-.57-2.11-.19-1.31-.24-2.6-.18-4.35.02-.47.13-.8.34-.99.14-.13.32-.19.52-.19.64.04.78.66.82,1.21,0,.18,0,.48,0,.86-.05,1.51-.14,4.35.93,5.36.21.2.58.43.94.56.35.14.73.14,1.08,0,.36-.14.74-.37.95-.56,1.06-1.01.98-3.81.93-5.33,0-.4-.02-.71,0-.89.03-.5.15-1.17.8-1.21.21,0,.39.06.52.19.22.19.33.52.34.99.08,1.8.03,3.06-.16,4.35Z"/>
    <path class="cls-7" d="m262.91,295.5c0,.48-.36.78-1.13.78-2.17,0-2.11.07-2.11,1.38s0,2.24,0,3.59c0,1.78-.28,1.77,1.44,1.82.75.02,1.77-.03,1.77.74,0,.35-.47.83-1.28.82-1.73.03-4.08,0-4.91-.02-.83,0-1.46-.29-1.45-.89.01-.68.89-.76,1.79-.76,1.33,0,1.12-.58,1.12-1.72,0-1.25.07-2.26.07-3.52,0-1.53.47-1.31-2.04-1.31-.41,0-.94-.27-.93-.79.02-.58.15-.86.96-.86.25,0,3.72-.12,5.59-.11.65,0,1.11.26,1.11.86Z"/>
    <path class="cls-7" d="m272.41,295.5c0,.48-.36.78-1.13.78-2.17,0-2.11.07-2.11,1.38s0,2.24,0,3.59c0,1.78-.28,1.77,1.44,1.82.75.02,1.77-.03,1.77.74,0,.35-.47.83-1.28.82-1.73.03-4.08,0-4.91-.02-.83,0-1.46-.29-1.45-.89.01-.68.89-.76,1.79-.76,1.33,0,1.12-.58,1.12-1.72,0-1.25.07-2.26.07-3.52,0-1.53.47-1.31-2.04-1.31-.41,0-.94-.27-.93-.79.02-.58.15-.86.96-.86.25,0,3.72-.12,5.59-.11.65,0,1.11.26,1.11.86Z"/>
    <path class="cls-7" d="m81.54,296.29c-.42-.02-1.11-.04-1.33-.05-2.5-.16-3.99,1.77-4.23,4.08-.08.74.07,1.24.63,1.77.96.88,2.65,1.08,3.68.33.29-.21.56-.57.67-.92.23-.7-.06-1.13-.73-1.15-.55-.02-1.11.07-1.67.1-.47.02-.98.05-1.11-.62-.11-.57.35-1.04,1.07-1.13.6-.07,1.2-.08,1.8-.13.41-.04.92,0,1.41-.03.86,1.57.93,2.45.34,3.91-.66,1.62-1.9,2.23-3.38,2.2-.76-.02-1.61-.21-2.26-.62-2.32-1.47-2.63-3.71-1.3-6.4,1.3-3.01,4.25-2.97,5.53-2.98.84,0,1.06.15.85,1.66Z"/>
    <path class="cls-7" d="m91.37,296.29c-.42-.02-1.11-.04-1.33-.05-2.5-.16-3.99,1.77-4.23,4.08-.08.74.07,1.24.63,1.77.96.88,2.65,1.08,3.68.33.29-.21.56-.57.67-.92.23-.7-.06-1.13-.73-1.15-.55-.02-1.11.07-1.67.1-.47.02-.98.05-1.11-.62-.11-.57.35-1.04,1.07-1.13.6-.07,1.2-.08,1.8-.13.41-.04.92,0,1.41-.03.86,1.57.93,2.45.34,3.91-.66,1.62-1.9,2.23-3.38,2.2-.76-.02-1.61-.21-2.26-.62-2.32-1.47-2.63-3.71-1.3-6.4,1.3-3.01,4.25-2.97,5.53-2.98.84,0,1.06.15.85,1.66Z"/>
    <path class="cls-7" d="m82.82,203.49c-.87-2.99-2.3-6.84-2.48-7.31-.18-.46-.77-1.7-1.18-1.7s-1,1.24-1.18,1.7c-.18.47-1.61,4.32-2.48,7.31-.24.84.06.91.18.94,1.61.21,1.32-.3,1.57-1.4.23-1,.22-1.46,1-1.46.38,0,.56.01.91.01s.54-.01.91-.01c.78,0,.77.46,1,1.46.25,1.1-.04,1.61,1.57,1.4.12-.03.42-.1.18-.94Zm-2.91-3.37h-1.51c-.14,0-.23-.07-.19-.23l.94-3.44.94,3.44c.04.16-.05.23-.19.23Z"/>
    <path class="cls-7" d="m91.9,203.49c-.87-2.99-2.3-6.84-2.48-7.31-.18-.46-.77-1.7-1.18-1.7s-1,1.24-1.18,1.7c-.18.47-1.61,4.32-2.48,7.31-.24.84.06.91.18.94,1.61.21,1.32-.3,1.57-1.4.23-1,.22-1.46,1-1.46.38,0,.56.01.91.01s.54-.01.91-.01c.78,0,.77.46,1,1.46.25,1.1-.04,1.61,1.57,1.4.12-.03.42-.1.18-.94Zm-2.91-3.37h-1.51c-.14,0-.23-.07-.19-.23l.94-3.44.94,3.44c.04.16-.05.23-.19.23Z"/>
    <path class="cls-7" d="m84.01,662.47c-.46-.06-.96.28-1.19,1.14-.42,1.54-.92,3.7-1.44,5.63-1.11-2.72-1.86-4.39-2.5-4.38-.01,0-.02,0-.03.01-.01-.01-.02-.01-.03-.01-.64-.01-1.39,1.65-2.5,4.38-.51-1.93-1.02-4.09-1.44-5.63-.24-.86-.73-1.2-1.19-1.14-.59.07-.98.49-.74,1.25.25.81,1.84,6.07,2.3,7.72.47,1.65,1.59.9,1.8.49.21-.41,1.36-3.67,1.8-4.59.44.92,1.59,4.18,1.8,4.59.21.41,1.33,1.16,1.8-.49.46-1.64,2.05-6.9,2.3-7.72.24-.76-.15-1.18-.74-1.25Z"/>
    <path class="cls-7" d="m272.79,760.01c-.46-.06-.96.28-1.19,1.14-.42,1.54-.92,3.7-1.44,5.63-1.11-2.72-1.86-4.39-2.5-4.38-.01,0-.02,0-.03.01-.01-.01-.02-.01-.03-.01-.64-.01-1.39,1.65-2.5,4.38-.51-1.93-1.02-4.09-1.44-5.63-.24-.86-.73-1.2-1.19-1.14-.59.07-.98.49-.74,1.25.25.81,1.84,6.07,2.3,7.72.47,1.65,1.59.9,1.8.49.21-.41,1.36-3.67,1.8-4.59.44.92,1.59,4.18,1.8,4.59.21.41,1.33,1.16,1.8-.49.46-1.64,2.05-6.9,2.3-7.72.24-.76-.15-1.18-.74-1.25Z"/>
    <path class="cls-7" d="m363.53,672.5h-3.54c-.32,0-.53-.32-.41-.62,2.67-6.29.99-7.71-1.08-7.85-.04,0-.08,0-.12,0h-.02s-.09,0-.13,0c-.04,0-.08,0-.12,0-2.07.14-3.75,1.56-1.08,7.85.12.29-.09.62-.41.62h-3.54c-.14,0-.66-1.27.12-1.73.69-.41.99.09,1.81.11-2.24-4.96.04-7.96,2.78-8.36.08-.02.94-.02,1.02,0,2.74.41,5.02,3.4,2.78,8.36.82-.02,1.12-.51,1.81-.11.78.46.26,1.73.12,1.73Z"/>
    <path class="cls-7" d="m355.37,769.77h-3.54c-.32,0-.53-.32-.41-.62,2.67-6.29.99-7.71-1.08-7.85-.04,0-.08,0-.12,0h-.02s-.09,0-.13,0c-.04,0-.08,0-.12,0-2.07.14-3.75,1.56-1.08,7.85.12.29-.09.62-.41.62h-3.54c-.14,0-.66-1.27.12-1.73.69-.41.99.09,1.81.11-2.24-4.96.04-7.96,2.78-8.36.08-.02.94-.02,1.02,0,2.74.41,5.02,3.4,2.78,8.36.82-.02,1.12-.51,1.81-.11.78.46.26,1.73.12,1.73Z"/>
    <path d="m269.43,664c-.75-1.02-1.5-1.53-2.25-1.53h-.07c-.77.03-1.52.6-2.21,1.69-1.14,1.8-1.61,4.77.05,7.03.55.79,1.23,1.23,2,1.27.05,0,.11,0,.17,0,.89,0,1.7-.51,2.13-.97.96-1.01,1.3-2.33,1.3-3.62,0-1.57-.52-3.07-1.12-3.88Zm-2.22.07c.86,0,1.48,1.13,1.53,1.91.02.3,0,.48-.11.58-.07.08-.2.11-.39.12h-1.07c-.36,0-.72,0-1.04,0-.15,0-.25-.04-.32-.12-.09-.1-.14-.28-.12-.54.06-.78.73-1.96,1.52-1.96Zm-1.4,4.38c.43-.04.85-.05,1.27-.05.25,0,.51,0,.75,0,.29,0,.57,0,.85,0,.13,0,.24.09.25.21.1.84-.2,1.56-.78,1.95-.51.34-1.17.38-1.68.11-.61-.33-.93-1.04-.91-1.99,0-.12.12-.24.25-.25Z"/>
    <path d="m259.92,761.53c-.75-1.02-1.5-1.53-2.25-1.53h-.07c-.77.03-1.52.6-2.21,1.69-1.14,1.8-1.61,4.77.05,7.03.55.79,1.23,1.23,2,1.27.05,0,.11,0,.17,0,.89,0,1.7-.51,2.13-.97.96-1.01,1.3-2.33,1.3-3.62,0-1.57-.52-3.07-1.12-3.88Zm-2.22.07c.86,0,1.48,1.13,1.53,1.91.02.3,0,.48-.11.58-.07.08-.2.11-.39.12h-1.07c-.36,0-.72,0-1.04,0-.15,0-.25-.04-.32-.12-.09-.1-.14-.28-.12-.54.06-.78.73-1.96,1.52-1.96Zm-1.4,4.38c.43-.04.85-.05,1.27-.05.25,0,.51,0,.75,0,.29,0,.57,0,.85,0,.13,0,.24.09.25.21.1.84-.2,1.56-.78,1.95-.51.34-1.17.38-1.68.11-.61-.33-.93-1.04-.91-1.99,0-.12.12-.24.25-.25Z"/>
    <path class="cls-7" d="m182.57,670.6c-.93-2.27-1.86-4.39-2.21-5.2-.38-.84-.67-1.52-.74-1.72-.32-.87-.6-1.18-1.12-1.22-.5.04-.79.34-1.11,1.22-.07.2-.36.87-.73,1.72-.73,1.66-1.56,3.6-2.22,5.2-.28.71-.29,1.21-.03,1.52.19.23.49.34.9.34h6.43c.41,0,.71-.12.9-.34.12-.15.18-.34.18-.58,0-.26-.07-.57-.22-.94Zm-1.67.34h-4.8c.17-.42.49-1.25.87-2.18.56-1.41,1.21-3.07,1.53-3.9.39.98,1.22,3.11,1.83,4.63l.57,1.44Z"/>
    <path class="cls-7" d="m173.04,767.89c-.93-2.27-1.86-4.39-2.21-5.2-.38-.84-.67-1.52-.74-1.72-.32-.87-.6-1.18-1.12-1.22-.5.04-.79.34-1.11,1.22-.07.2-.36.87-.73,1.72-.73,1.66-1.56,3.6-2.22,5.2-.28.71-.29,1.21-.03,1.52.19.23.49.34.9.34h6.43c.41,0,.71-.12.9-.34.12-.15.18-.34.18-.58,0-.26-.07-.57-.22-.94Zm-1.67.34h-4.8c.17-.42.49-1.25.87-2.18.56-1.41,1.21-3.07,1.53-3.9.39.98,1.22,3.11,1.83,4.63l.57,1.44Z"/>
    <path class="cls-7" d="m91.18,666.65c.48.44.43.65.44.96,0,.31-.23.47-.53.71-1.75,1.43-2.78,2.44-2.78,2.44,0,0,.42.05,4.42.05.4,0,.79.33.79.78,0,.48-.22.88-.64.88-2.35,0-4.02-.05-5.97-.05-.79,0-1.34-.19-1.52-.57-.17-.36-.12-.9.55-1.52,1.91-1.72,3.47-2.88,3.47-2.88,0,0-2.17-1.97-3.75-3.56-.33-.33-.43-.62-.31-.85.11-.2.55-.57.92-.57h6.71c.74,0,.77,1.31,0,1.31-3.37,0-5.2.02-5.2.02"/>
    <path class="cls-7" d="m81.43,764.34c.48.44.43.65.44.96s-.23.47-.53.71c-1.75,1.43-2.78,2.44-2.78,2.44,0,0,.42.05,4.42.05.4,0,.79.33.79.78,0,.48-.22.88-.64.88-2.35,0-4.02-.05-5.97-.05-.79,0-1.34-.19-1.52-.57-.17-.36-.12-.9.55-1.52,1.91-1.72,3.47-2.88,3.47-2.88,0,0-2.17-1.97-3.75-3.56-.33-.33-.43-.62-.31-.85.11-.2.55-.57.92-.57h6.71c.74,0,.77,1.31,0,1.31-3.37,0-5.2.02-5.2.02"/>
    <path class="cls-7" d="m349.01,664.24c-1.68,0-1.02,0-3.51,0-.91,0-1.17-.67-1.11-1.15.03-.28.42-.6,1.07-.58,1.9.08,4.6-.22,5.58.38.3.19.43.73.15,1.14-1.71,2.48-4.54,6.5-4.54,6.5,0,0,2.37-.15,3.63-.15,1.56-.14,1.87,2.08.13,2.08-8.37,0-8.83,1.14-1.4-8.22Z"/>
    <path class="cls-7" d="m179.83,761.49c-1.68,0-1.02,0-3.51,0-.91,0-1.17-.67-1.11-1.15.03-.28.42-.6,1.07-.58,1.9.08,4.6-.22,5.58.38.3.19.43.73.15,1.14-1.71,2.48-4.54,6.5-4.54,6.5,0,0,2.37-.15,3.63-.15,1.56-.14,1.87,2.08.13,2.08-8.37,0-8.83,1.14-1.4-8.22Z"/>
    <path class="cls-7" d="m263.78,663.71l-4.37,8.3c-.15.29-.45.46-.75.46-.13,0-.26-.04-.39-.1-.2-.11-.35-.28-.42-.5-.07-.21-.05-.45.06-.65l1.88-3.58-2.53-3.62c-.12-.11-.2-.27-.24-.47-.05-.25.03-.53.2-.71.15-.17.35-.27.58-.28.22,0,.45.07.61.21l2.2,3.29,1.65-3.14c.12-.2.29-.35.51-.42.22-.07.45-.04.65.07.22.12.38.33.43.59.03.19,0,.38-.08.55Z"/>
    <path class="cls-7" d="m91.83,761.4l-4.37,8.3c-.15.29-.45.46-.75.46-.13,0-.26-.04-.39-.1-.2-.11-.35-.28-.42-.5-.07-.21-.05-.45.06-.65l1.88-3.58-2.53-3.62c-.12-.11-.2-.27-.24-.47-.05-.25.03-.53.2-.71.15-.17.35-.27.58-.28.22,0,.45.07.61.21l2.2,3.29,1.65-3.14c.12-.2.29-.35.51-.42.22-.07.45-.04.65.07.22.12.38.33.43.59.03.19,0,.38-.08.55Z"/>
    <path class="cls-7" d="m172.76,670.97c.16.19.21.44.19.68-.03.24-.16.46-.34.61-.4.3-.98.23-1.3-.17l-2.45-3.14-2.45,3.14c-.18.23-.45.36-.72.36-.19,0-.4-.07-.57-.19-.19-.15-.32-.37-.35-.61-.03-.24.03-.49.19-.68l2.73-3.51-2.73-3.51c-.13-.17-.19-.36-.19-.57,0-.28.14-.56.36-.73.19-.15.42-.21.67-.19.24.03.47.16.61.35l2.45,3.14,2.44-3.14c.33-.41.91-.48,1.31-.16.22.17.35.43.35.72,0,.2-.07.4-.19.57l-2.73,3.51,2.73,3.51Z"/>
    <path class="cls-7" d="m364.8,768.28c.16.19.21.44.19.68-.03.24-.16.46-.34.61-.4.3-.98.23-1.3-.17l-2.45-3.14-2.45,3.14c-.18.23-.45.36-.72.36-.19,0-.4-.07-.57-.19-.19-.15-.32-.37-.35-.61-.03-.24.03-.49.19-.68l2.73-3.51-2.73-3.51c-.13-.17-.19-.36-.19-.57,0-.28.14-.56.36-.73.19-.15.42-.21.67-.19.24.03.47.16.61.35l2.45,3.14,2.44-3.14c.33-.41.91-.48,1.31-.16.22.17.35.43.35.72,0,.2-.07.4-.19.57l-2.73,3.51,2.73,3.51Z"/>
  </g>
  <g>
    <g>
      <circle class="cls-7" cx="83.74" cy="188.66" r="2.5"/>
      <circle class="cls-7" cx="113.74" cy="158.66" r="2.5"/>
      <circle class="cls-7" cx="83.74" cy="128.66" r="2.5"/>
      <circle class="cls-7" cx="53.74" cy="158.66" r="2.5"/>
      <circle class="cls-7" cx="83.74" cy="158.66" r="1.12"/>
    </g>
    <g>
      <circle class="cls-7" cx="173.74" cy="188.66" r="2.5"/>
      <circle class="cls-7" cx="203.74" cy="158.66" r="2.5"/>
      <circle class="cls-7" cx="173.74" cy="128.66" r="2.5"/>
      <circle class="cls-7" cx="143.74" cy="158.66" r="2.5"/>
      <circle class="cls-7" cx="173.74" cy="158.66" r="1.12"/>
    </g>
    <g>
      <circle class="cls-7" cx="263.74" cy="188.66" r="2.5"/>
      <circle class="cls-7" cx="293.74" cy="158.66" r="2.5"/>
      <circle class="cls-7" cx="263.74" cy="128.66" r="2.5"/>
      <circle class="cls-7" cx="233.74" cy="158.66" r="2.5"/>
      <circle class="cls-7" cx="263.74" cy="158.66" r="1.12"/>
    </g>
    <g>
      <circle class="cls-7" cx="353.74" cy="188.66" r="2.5"/>
      <circle class="cls-7" cx="383.74" cy="158.66" r="2.5"/>
      <circle class="cls-7" cx="353.74" cy="128.66" r="2.5"/>
      <circle class="cls-7" cx="323.74" cy="158.66" r="2.5"/>
      <circle class="cls-7" cx="353.74" cy="158.66" r="1.12"/>
    </g>
    <g>
      <circle class="cls-7" cx="443.74" cy="188.66" r="2.5"/>
      <circle class="cls-7" cx="473.74" cy="158.66" r="2.5"/>
      <circle class="cls-7" cx="443.74" cy="128.66" r="2.5"/>
      <circle class="cls-7" cx="413.74" cy="158.66" r="2.5"/>
      <circle class="cls-7" cx="443.74" cy="158.66" r="1.12"/>
    </g>
    <g>
      <circle class="cls-7" cx="533.74" cy="188.66" r="2.5"/>
      <circle class="cls-7" cx="563.74" cy="158.66" r="2.5"/>
      <circle class="cls-7" cx="533.74" cy="128.66" r="2.5"/>
      <circle class="cls-7" cx="503.74" cy="158.66" r="2.5"/>
      <circle class="cls-7" cx="533.74" cy="158.66" r="1.12"/>
    </g>
    <g>
      <circle class="cls-7" cx="83.74" cy="288.66" r="2.5"/>
      <circle class="cls-7" cx="113.74" cy="258.66" r="2.5"/>
      <circle class="cls-7" cx="83.74" cy="228.66" r="2.5"/>
      <circle class="cls-7" cx="53.74" cy="258.66" r="2.5"/>
      <circle class="cls-7" cx="83.74" cy="258.66" r="1.12"/>
    </g>
    <g>
      <circle class="cls-7" cx="173.74" cy="288.66" r="2.5"/>
      <circle class="cls-7" cx="203.74" cy="258.66" r="2.5"/>
      <circle class="cls-7" cx="173.74" cy="228.66" r="2.5"/>
      <circle class="cls-7" cx="143.74" cy="258.66" r="2.5"/>
      <circle class="cls-7" cx="173.74" cy="258.66" r="1.12"/>
    </g>
    <g>
      <circle class="cls-7" cx="263.74" cy="288.66" r="2.5"/>
      <circle class="cls-7" cx="293.74" cy="258.66" r="2.5"/>
      <circle class="cls-7" cx="263.74" cy="228.66" r="2.5"/>
      <circle class="cls-7" cx="233.74" cy="258.66" r="2.5"/>
      <circle class="cls-7" cx="263.74" cy="258.66" r="1.12"/>
    </g>
    <g>
      <circle class="cls-7" cx="353.74" cy="288.66" r="2.5"/>
      <circle class="cls-7" cx="383.74" cy="258.66" r="2.5"/>
      <circle class="cls-7" cx="353.74" cy="228.66" r="2.5"/>
      <circle class="cls-7" cx="323.74" cy="258.66" r="2.5"/>
      <circle class="cls-7" cx="353.74" cy="258.66" r="1.12"/>
    </g>
    <g>
      <circle class="cls-7" cx="443.74" cy="288.66" r="2.5"/>
      <circle class="cls-7" cx="473.74" cy="258.66" r="2.5"/>
      <circle class="cls-7" cx="443.74" cy="228.66" r="2.5"/>
      <circle class="cls-7" cx="413.74" cy="258.66" r="2.5"/>
      <circle class="cls-7" cx="443.74" cy="258.66" r="1.12"/>
    </g>
    <g>
      <circle class="cls-7" cx="533.74" cy="288.66" r="2.5"/>
      <circle class="cls-7" cx="563.74" cy="258.66" r="2.5"/>
      <circle class="cls-7" cx="533.74" cy="228.66" r="2.5"/>
      <circle class="cls-7" cx="503.74" cy="258.66" r="2.5"/>
      <circle class="cls-7" cx="533.74" cy="258.66" r="1.12"/>
    </g>
    <g>
      <circle class="cls-7" cx="83.74" cy="388.66" r="2.5"/>
      <circle class="cls-7" cx="113.74" cy="358.66" r="2.5"/>
      <circle class="cls-7" cx="83.74" cy="328.66" r="2.5"/>
      <circle class="cls-7" cx="53.74" cy="358.66" r="2.5"/>
      <circle class="cls-7" cx="83.74" cy="358.66" r="1.12"/>
    </g>
    <g>
      <circle class="cls-7" cx="173.74" cy="388.66" r="2.5"/>
      <circle class="cls-7" cx="203.74" cy="358.66" r="2.5"/>
      <circle class="cls-7" cx="173.74" cy="328.66" r="2.5"/>
      <circle class="cls-7" cx="143.74" cy="358.66" r="2.5"/>
      <circle class="cls-7" cx="173.74" cy="358.66" r="1.12"/>
    </g>
    <g>
      <circle class="cls-7" cx="263.74" cy="388.66" r="2.5"/>
      <circle class="cls-7" cx="293.74" cy="358.66" r="2.5"/>
      <circle class="cls-7" cx="263.74" cy="328.66" r="2.5"/>
      <circle class="cls-7" cx="233.74" cy="358.66" r="2.5"/>
      <circle class="cls-7" cx="263.74" cy="358.66" r="1.12"/>
    </g>
    <g>
      <circle class="cls-7" cx="353.74" cy="388.66" r="2.5"/>
      <circle class="cls-7" cx="383.74" cy="358.66" r="2.5"/>
      <circle class="cls-7" cx="353.74" cy="328.66" r="2.5"/>
      <circle class="cls-7" cx="323.74" cy="358.66" r="2.5"/>
      <circle class="cls-7" cx="353.74" cy="358.66" r="1.12"/>
    </g>
    <g>
      <circle class="cls-7" cx="443.74" cy="388.66" r="2.5"/>
      <circle class="cls-7" cx="473.74" cy="358.66" r="2.5"/>
      <circle class="cls-7" cx="443.74" cy="328.66" r="2.5"/>
      <circle class="cls-7" cx="413.74" cy="358.66" r="2.5"/>
      <circle class="cls-7" cx="443.74" cy="358.66" r="1.12"/>
    </g>
    <g>
      <circle class="cls-7" cx="533.74" cy="388.66" r="2.5"/>
      <circle class="cls-7" cx="563.74" cy="358.66" r="2.5"/>
      <circle class="cls-7" cx="533.74" cy="328.66" r="2.5"/>
      <circle class="cls-7" cx="503.74" cy="358.66" r="2.5"/>
      <circle class="cls-7" cx="533.74" cy="358.66" r="1.12"/>
    </g>
    <g>
      <circle class="cls-7" cx="83.74" cy="488.66" r="2.5"/>
      <circle class="cls-7" cx="113.74" cy="458.66" r="2.5"/>
      <circle class="cls-7" cx="83.74" cy="428.66" r="2.5"/>
      <circle class="cls-7" cx="53.74" cy="458.66" r="2.5"/>
      <circle class="cls-7" cx="83.74" cy="458.66" r="1.12"/>
    </g>
    <g>
      <circle class="cls-7" cx="173.74" cy="488.66" r="2.5"/>
      <circle class="cls-7" cx="203.74" cy="458.66" r="2.5"/>
      <circle class="cls-7" cx="173.74" cy="428.66" r="2.5"/>
      <circle class="cls-7" cx="143.74" cy="458.66" r="2.5"/>
      <circle class="cls-7" cx="173.74" cy="458.66" r="1.12"/>
    </g>
    <g>
      <circle class="cls-7" cx="263.74" cy="488.66" r="2.5"/>
      <circle class="cls-7" cx="293.74" cy="458.66" r="2.5"/>
      <circle class="cls-7" cx="263.74" cy="428.66" r="2.5"/>
      <circle class="cls-7" cx="233.74" cy="458.66" r="2.5"/>
      <circle class="cls-7" cx="263.74" cy="458.66" r="1.12"/>
    </g>
    <g>
      <circle class="cls-7" cx="353.74" cy="488.66" r="2.5"/>
      <circle class="cls-7" cx="383.74" cy="458.66" r="2.5"/>
      <circle class="cls-7" cx="353.74" cy="428.66" r="2.5"/>
      <circle class="cls-7" cx="323.74" cy="458.66" r="2.5"/>
      <circle class="cls-7" cx="353.74" cy="458.66" r="1.12"/>
    </g>
    <g>
      <circle class="cls-7" cx="83.74" cy="654.21" r="2.5"/>
      <circle class="cls-7" cx="113.74" cy="624.21" r="2.5"/>
      <circle class="cls-7" cx="83.74" cy="594.21" r="2.5"/>
      <circle class="cls-7" cx="53.74" cy="624.21" r="2.5"/>
      <circle class="cls-7" cx="83.74" cy="624.21" r="1.12"/>
    </g>
    <g>
      <circle class="cls-7" cx="173.74" cy="654.21" r="2.5"/>
      <circle class="cls-7" cx="203.74" cy="624.21" r="2.5"/>
      <circle class="cls-7" cx="173.74" cy="594.21" r="2.5"/>
      <circle class="cls-7" cx="143.74" cy="624.21" r="2.5"/>
      <circle class="cls-7" cx="173.74" cy="624.21" r="1.12"/>
    </g>
    <g>
      <circle class="cls-7" cx="263.74" cy="654.21" r="2.5"/>
      <circle class="cls-7" cx="293.74" cy="624.21" r="2.5"/>
      <circle class="cls-7" cx="263.74" cy="594.21" r="2.5"/>
      <circle class="cls-7" cx="233.74" cy="624.21" r="2.5"/>
      <circle class="cls-7" cx="263.74" cy="624.21" r="1.12"/>
    </g>
    <g>
      <circle class="cls-7" cx="353.74" cy="654.21" r="2.5"/>
      <circle class="cls-7" cx="383.74" cy="624.21" r="2.5"/>
      <circle class="cls-7" cx="353.74" cy="594.21" r="2.5"/>
      <circle class="cls-7" cx="323.74" cy="624.21" r="2.5"/>
      <circle class="cls-7" cx="353.74" cy="624.21" r="1.12"/>
    </g>
    <g>
      <circle class="cls-7" cx="83.74" cy="754.21" r="2.5"/>
      <circle class="cls-7" cx="113.74" cy="724.21" r="2.5"/>
      <circle class="cls-7" cx="83.74" cy="694.21" r="2.5"/>
      <circle class="cls-7" cx="53.74" cy="724.21" r="2.5"/>
      <circle class="cls-7" cx="83.74" cy="724.21" r="1.12"/>
    </g>
    <g>
      <circle class="cls-7" cx="173.74" cy="754.21" r="2.5"/>
      <circle class="cls-7" cx="203.74" cy="724.21" r="2.5"/>
      <circle class="cls-7" cx="173.74" cy="694.21" r="2.5"/>
      <circle class="cls-7" cx="143.74" cy="724.21" r="2.5"/>
      <circle class="cls-7" cx="173.74" cy="724.21" r="1.12"/>
    </g>
    <g>
      <circle class="cls-7" cx="263.74" cy="754.21" r="2.5"/>
      <circle class="cls-7" cx="293.74" cy="724.21" r="2.5"/>
      <circle class="cls-7" cx="263.74" cy="694.21" r="2.5"/>
      <circle class="cls-7" cx="233.74" cy="724.21" r="2.5"/>
      <circle class="cls-7" cx="263.74" cy="724.21" r="1.12"/>
    </g>
    <g>
      <circle class="cls-7" cx="353.74" cy="754.21" r="2.5"/>
      <circle class="cls-7" cx="383.74" cy="724.21" r="2.5"/>
      <circle class="cls-7" cx="353.74" cy="694.21" r="2.5"/>
      <circle class="cls-7" cx="323.74" cy="724.21" r="2.5"/>
      <circle class="cls-7" cx="353.74" cy="724.21" r="1.12"/>
    </g>
  </g>
  <g>
    <rect class="cls-10" x="71.24" y="143.1" width="25" height="2.5" rx=".99" ry=".99" transform="translate(228.09 60.62) rotate(90)"/>
    <rect class="cls-12" x="71.24" y="171.73" width="25" height="2.5" rx=".99" ry=".99" transform="translate(-89.24 256.71) rotate(-90)"/>
    <rect class="cls-10" x="85.55" y="357.41" width="25" height="2.5" rx=".99" ry=".99" transform="translate(196.1 717.33) rotate(-180)"/>
    <rect class="cls-12" x="71.24" y="343.1" width="25" height="2.5" rx=".99" ry=".99" transform="translate(428.09 260.62) rotate(90)"/>
    <rect class="cls-10" x="85.55" y="457.41" width="25" height="2.5" rx=".99" ry=".99" transform="translate(196.1 917.33) rotate(-180)"/>
    <rect class="cls-12" x="71.24" y="443.1" width="25" height="2.5" rx=".99" ry=".99" transform="translate(528.09 360.62) rotate(90)"/>
    <rect class="cls-12" x="71.24" y="637.27" width="25" height="2.5" rx=".99" ry=".99" transform="translate(-554.79 722.26) rotate(-90)"/>
    <rect class="cls-10" x="56.92" y="622.96" width="25" height="2.5" rx=".99" ry=".99"/>
    <rect class="cls-12" x="236.92" y="622.96" width="25" height="2.5" rx=".99" ry=".99"/>
    <rect class="cls-10" x="236.92" y="722.96" width="25" height="2.5" rx=".99" ry=".99"/>
    <rect class="cls-12" x="265.55" y="722.96" width="25" height="2.5" rx=".99" ry=".99" transform="translate(556.1 1448.42) rotate(180)"/>
    <rect class="cls-10" x="326.92" y="722.96" width="25" height="2.5" rx=".99" ry=".99"/>
    <rect class="cls-12" x="355.55" y="722.96" width="25" height="2.5" rx=".99" ry=".99" transform="translate(736.1 1448.42) rotate(180)"/>
    <rect class="cls-10" x="251.24" y="637.27" width="25" height="2.5" rx=".99" ry=".99" transform="translate(-374.79 902.26) rotate(-90)"/>
    <rect class="cls-12" x="326.92" y="622.96" width="25" height="2.5" rx=".99" ry=".99"/>
    <rect class="cls-10" x="341.24" y="637.27" width="25" height="2.5" rx=".99" ry=".99" transform="translate(-284.79 992.26) rotate(-90)"/>
    <rect class="cls-12" x="161.24" y="637.27" width="25" height="2.5" rx=".99" ry=".99" transform="translate(-464.79 812.26) rotate(-90)"/>
    <rect class="cls-10" x="146.92" y="622.96" width="25" height="2.5" rx=".99" ry=".99"/>
    <rect class="cls-10" x="175.55" y="457.41" width="25" height="2.5" rx=".99" ry=".99" transform="translate(376.1 917.33) rotate(-180)"/>
    <rect class="cls-12" x="161.24" y="443.1" width="25" height="2.5" rx=".99" ry=".99" transform="translate(618.09 270.62) rotate(90)"/>
    <rect class="cls-10" x="265.55" y="457.41" width="25" height="2.5" rx=".99" ry=".99" transform="translate(556.1 917.33) rotate(-180)"/>
    <rect class="cls-12" x="251.24" y="443.1" width="25" height="2.5" rx=".99" ry=".99" transform="translate(708.09 180.62) rotate(90)"/>
    <rect class="cls-10" x="355.55" y="457.41" width="25" height="2.5" rx=".99" ry=".99" transform="translate(736.1 917.33) rotate(-180)"/>
    <rect class="cls-12" x="341.24" y="443.1" width="25" height="2.5" rx=".99" ry=".99" transform="translate(798.09 90.62) rotate(90)"/>
    <rect class="cls-10" x="175.55" y="357.41" width="25" height="2.5" rx=".99" ry=".99" transform="translate(376.1 717.33) rotate(-180)"/>
    <rect class="cls-12" x="161.24" y="343.1" width="25" height="2.5" rx=".99" ry=".99" transform="translate(518.09 170.62) rotate(90)"/>
    <rect class="cls-10" x="265.55" y="357.41" width="25" height="2.5" rx=".99" ry=".99" transform="translate(556.1 717.33) rotate(-180)"/>
    <rect class="cls-12" x="251.24" y="343.1" width="25" height="2.5" rx=".99" ry=".99" transform="translate(608.09 80.62) rotate(90)"/>
    <rect class="cls-10" x="341.24" y="371.73" width="25" height="2.5" rx=".99" ry=".99" transform="translate(-19.24 726.71) rotate(-90)"/>
    <rect class="cls-12" x="326.92" y="357.41" width="25" height="2.5" rx=".99" ry=".99"/>
    <rect class="cls-10" x="431.24" y="371.73" width="25" height="2.5" rx=".99" ry=".99" transform="translate(70.76 816.71) rotate(-90)"/>
    <rect class="cls-12" x="416.92" y="357.41" width="25" height="2.5" rx=".99" ry=".99"/>
    <rect class="cls-10" x="521.24" y="371.73" width="25" height="2.5" rx=".99" ry=".99" transform="translate(160.76 906.71) rotate(-90)"/>
    <rect class="cls-12" x="506.92" y="357.41" width="25" height="2.5" rx=".99" ry=".99"/>
    <rect class="cls-10" x="161.24" y="143.1" width="25" height="2.5" rx=".99" ry=".99" transform="translate(318.09 -29.38) rotate(90)"/>
    <rect class="cls-12" x="161.24" y="171.73" width="25" height="2.5" rx=".99" ry=".99" transform="translate(.76 346.71) rotate(-90)"/>
    <rect class="cls-10" x="251.24" y="143.1" width="25" height="2.5" rx=".99" ry=".99" transform="translate(408.09 -119.38) rotate(90)"/>
    <rect class="cls-12" x="326.92" y="257.41" width="25" height="2.5" rx=".99" ry=".99"/>
    <rect class="cls-10" x="355.55" y="257.41" width="25" height="2.5" rx=".99" ry=".99" transform="translate(736.1 517.33) rotate(-180)"/>
    <rect class="cls-12" x="416.92" y="257.41" width="25" height="2.5" rx=".99" ry=".99"/>
    <rect class="cls-10" x="445.55" y="257.41" width="25" height="2.5" rx=".99" ry=".99" transform="translate(916.1 517.33) rotate(-180)"/>
    <rect class="cls-12" x="506.92" y="257.41" width="25" height="2.5" rx=".99" ry=".99"/>
    <rect class="cls-10" x="535.55" y="257.41" width="25" height="2.5" rx=".99" ry=".99" transform="translate(1096.1 517.33) rotate(-180)"/>
    <rect class="cls-12" x="251.24" y="171.73" width="25" height="2.5" rx=".99" ry=".99" transform="translate(90.76 436.71) rotate(-90)"/>
    <rect class="cls-12" x="56.92" y="259.41" width="25" height="2.5" rx=".99" ry=".99" transform="translate(138.85 521.33) rotate(180)"/>
    <rect class="cls-10" x="56.92" y="255.41" width="25" height="2.5" rx=".99" ry=".99" transform="translate(138.85 513.33) rotate(180)"/>
    <rect class="cls-12" x="343.24" y="171.73" width="25" height="2.5" rx=".99" ry=".99" transform="translate(528.71 -182.76) rotate(90)"/>
    <rect class="cls-10" x="339.24" y="171.73" width="25" height="2.5" rx=".99" ry=".99" transform="translate(524.71 -178.76) rotate(90)"/>
    <rect class="cls-12" x="433.24" y="171.73" width="25" height="2.5" rx=".99" ry=".99" transform="translate(618.71 -272.76) rotate(90)"/>
    <rect class="cls-10" x="429.24" y="171.73" width="25" height="2.5" rx=".99" ry=".99" transform="translate(614.71 -268.76) rotate(90)"/>
    <rect class="cls-12" x="523.24" y="171.73" width="25" height="2.5" rx=".99" ry=".99" transform="translate(708.71 -362.76) rotate(90)"/>
    <rect class="cls-10" x="519.24" y="171.73" width="25" height="2.5" rx=".99" ry=".99" transform="translate(704.71 -358.76) rotate(90)"/>
    <rect class="cls-12" x="146.92" y="259.41" width="25" height="2.5" rx=".99" ry=".99" transform="translate(318.85 521.33) rotate(180)"/>
    <rect class="cls-10" x="146.92" y="255.41" width="25" height="2.5" rx=".99" ry=".99" transform="translate(318.85 513.33) rotate(180)"/>
    <rect class="cls-12" x="56.92" y="724.46" width="25" height="2.5" rx=".99" ry=".99" transform="translate(138.85 1451.42) rotate(180)"/>
    <rect class="cls-10" x="56.92" y="720.46" width="25" height="2.5" rx=".99" ry=".99" transform="translate(138.85 1443.42) rotate(180)"/>
    <rect class="cls-12" x="146.92" y="724.46" width="25" height="2.5" rx=".99" ry=".99" transform="translate(318.85 1451.42) rotate(180)"/>
    <rect class="cls-10" x="146.92" y="720.46" width="25" height="2.5" rx=".99" ry=".99" transform="translate(318.85 1443.42) rotate(180)"/>
    <rect class="cls-12" x="236.92" y="259.41" width="25" height="2.5" rx=".99" ry=".99" transform="translate(498.85 521.33) rotate(180)"/>
    <rect class="cls-10" x="236.92" y="255.41" width="25" height="2.5" rx=".99" ry=".99" transform="translate(498.85 513.33) rotate(180)"/>
  </g>
  <g>
    <text class="cls-8" transform="translate(241.68 551.38)"><tspan class="cls-7"><tspan x="0" y="0">Type 2  2</tspan></tspan><tspan class="cls-11" x="31.7" y="30">S </tspan><tspan class="cls-7" x="49.73" y="30"> </tspan><tspan class="cls-11" x="76.18" y="30">S</tspan></text>
    <text transform="translate(223.82 37.55)"><tspan class="cls-5"><tspan x="0" y="0">Continuous</tspan></tspan><tspan class="cls-4"><tspan x="20.58" y="30">Type 1  1</tspan></tspan><tspan class="cls-8"><tspan class="cls-9" x="27.91" y="60">D</tspan><tspan class="cls-6" x="44.88" y="60">-</tspan><tspan class="cls-11" x="52.28" y="60">S </tspan><tspan class="cls-7" x="70.31" y="60"> </tspan><tspan class="cls-9" x="96.76" y="60">D</tspan><tspan class="cls-6" x="113.73" y="60">-</tspan><tspan class="cls-11" x="121.13" y="60">S</tspan></tspan></text>
  </g>
</svg>