<?xml version="1.0" encoding="UTF-8"?>
<svg id="Layer_1" data-name="Layer 1" xmlns="http://www.w3.org/2000/svg" viewBox="0 0 612 792">
  <defs>
    <style>
      .cls-1, .cls-2, .cls-3, .cls-4 {
        fill: #231f20;
      }

      .cls-1, .cls-5 {
        font-family: Cambria-BoldItalic, Cambria;
        font-size: 25px;
        font-style: italic;
        font-weight: 700;
      }

      .cls-6 {
        stroke-width: 3px;
      }

      .cls-6, .cls-7 {
        fill: none;
        stroke: #231f20;
        stroke-miterlimit: 10;
      }

      .cls-2 {
        font-family: MonotypeCorsiva, 'Monotype Corsiva';
        font-size: 40px;
      }

      .cls-8 {
        fill: #00aeef;
      }

      .cls-9 {
        fill: #2e3192;
      }

      .cls-3 {
        letter-spacing: -.03em;
      }

      .cls-10 {
        fill: #7f3f98;
      }

      .cls-11 {
        fill: #ed1c24;
      }

      .cls-7 {
        stroke-width: .5px;
      }
    </style>
  </defs>
  <g>
    <g>
      <circle class="cls-4" cx="80.72" cy="188.66" r="2.5"/>
      <circle class="cls-4" cx="110.72" cy="158.66" r="2.5"/>
      <circle class="cls-4" cx="80.72" cy="128.66" r="2.5"/>
      <circle class="cls-4" cx="50.72" cy="158.66" r="2.5"/>
      <circle class="cls-4" cx="80.72" cy="158.66" r="1.12"/>
    </g>
    <g>
      <circle class="cls-4" cx="170.72" cy="188.66" r="2.5"/>
      <circle class="cls-4" cx="200.72" cy="158.66" r="2.5"/>
      <circle class="cls-4" cx="170.72" cy="128.66" r="2.5"/>
      <circle class="cls-4" cx="140.72" cy="158.66" r="2.5"/>
      <circle class="cls-4" cx="170.72" cy="158.66" r="1.12"/>
    </g>
    <g>
      <circle class="cls-4" cx="260.72" cy="188.66" r="2.5"/>
      <circle class="cls-4" cx="290.72" cy="158.66" r="2.5"/>
      <circle class="cls-4" cx="260.72" cy="128.66" r="2.5"/>
      <circle class="cls-4" cx="230.72" cy="158.66" r="2.5"/>
      <circle class="cls-4" cx="260.72" cy="158.66" r="1.12"/>
    </g>
    <g>
      <circle class="cls-4" cx="350.72" cy="188.66" r="2.5"/>
      <circle class="cls-4" cx="380.72" cy="158.66" r="2.5"/>
      <circle class="cls-4" cx="350.72" cy="128.66" r="2.5"/>
      <circle class="cls-4" cx="320.72" cy="158.66" r="2.5"/>
      <circle class="cls-4" cx="350.72" cy="158.66" r="1.12"/>
    </g>
    <g>
      <circle class="cls-4" cx="440.72" cy="188.66" r="2.5"/>
      <circle class="cls-4" cx="470.72" cy="158.66" r="2.5"/>
      <circle class="cls-4" cx="440.72" cy="128.66" r="2.5"/>
      <circle class="cls-4" cx="410.72" cy="158.66" r="2.5"/>
      <circle class="cls-4" cx="440.72" cy="158.66" r="1.12"/>
    </g>
    <g>
      <circle class="cls-4" cx="530.72" cy="188.66" r="2.5"/>
      <circle class="cls-4" cx="560.72" cy="158.66" r="2.5"/>
      <circle class="cls-4" cx="530.72" cy="128.66" r="2.5"/>
      <circle class="cls-4" cx="500.72" cy="158.66" r="2.5"/>
      <circle class="cls-4" cx="530.72" cy="158.66" r="1.12"/>
    </g>
    <g>
      <circle class="cls-4" cx="80.72" cy="288.66" r="2.5"/>
      <circle class="cls-4" cx="110.72" cy="258.66" r="2.5"/>
      <circle class="cls-4" cx="80.72" cy="228.66" r="2.5"/>
      <circle class="cls-4" cx="50.72" cy="258.66" r="2.5"/>
      <circle class="cls-4" cx="80.72" cy="258.66" r="1.12"/>
    </g>
    <g>
      <circle class="cls-4" cx="170.72" cy="288.66" r="2.5"/>
      <circle class="cls-4" cx="200.72" cy="258.66" r="2.5"/>
      <circle class="cls-4" cx="170.72" cy="228.66" r="2.5"/>
      <circle class="cls-4" cx="140.72" cy="258.66" r="2.5"/>
      <circle class="cls-4" cx="170.72" cy="258.66" r="1.12"/>
    </g>
    <g>
      <circle class="cls-4" cx="260.72" cy="288.66" r="2.5"/>
      <circle class="cls-4" cx="290.72" cy="258.66" r="2.5"/>
      <circle class="cls-4" cx="260.72" cy="228.66" r="2.5"/>
      <circle class="cls-4" cx="230.72" cy="258.66" r="2.5"/>
      <circle class="cls-4" cx="260.72" cy="258.66" r="1.12"/>
    </g>
    <g>
      <circle class="cls-4" cx="350.72" cy="288.66" r="2.5"/>
      <circle class="cls-4" cx="380.72" cy="258.66" r="2.5"/>
      <circle class="cls-4" cx="350.72" cy="228.66" r="2.5"/>
      <circle class="cls-4" cx="320.72" cy="258.66" r="2.5"/>
      <circle class="cls-4" cx="350.72" cy="258.66" r="1.12"/>
    </g>
    <g>
      <circle class="cls-4" cx="440.72" cy="288.66" r="2.5"/>
      <circle class="cls-4" cx="470.72" cy="258.66" r="2.5"/>
      <circle class="cls-4" cx="440.72" cy="228.66" r="2.5"/>
      <circle class="cls-4" cx="410.72" cy="258.66" r="2.5"/>
      <circle class="cls-4" cx="440.72" cy="258.66" r="1.12"/>
    </g>
    <g>
      <circle class="cls-4" cx="530.72" cy="288.66" r="2.5"/>
      <circle class="cls-4" cx="560.72" cy="258.66" r="2.5"/>
      <circle class="cls-4" cx="530.72" cy="228.66" r="2.5"/>
      <circle class="cls-4" cx="500.72" cy="258.66" r="2.5"/>
      <circle class="cls-4" cx="530.72" cy="258.66" r="1.12"/>
    </g>
    <g>
      <circle class="cls-4" cx="80.72" cy="388.66" r="2.5"/>
      <circle class="cls-4" cx="110.72" cy="358.66" r="2.5"/>
      <circle class="cls-4" cx="80.72" cy="328.66" r="2.5"/>
      <circle class="cls-4" cx="50.72" cy="358.66" r="2.5"/>
      <circle class="cls-4" cx="80.72" cy="358.66" r="1.12"/>
    </g>
    <g>
      <circle class="cls-4" cx="170.72" cy="388.66" r="2.5"/>
      <circle class="cls-4" cx="200.72" cy="358.66" r="2.5"/>
      <circle class="cls-4" cx="170.72" cy="328.66" r="2.5"/>
      <circle class="cls-4" cx="140.72" cy="358.66" r="2.5"/>
      <circle class="cls-4" cx="170.72" cy="358.66" r="1.12"/>
    </g>
    <g>
      <circle class="cls-4" cx="260.72" cy="388.66" r="2.5"/>
      <circle class="cls-4" cx="290.72" cy="358.66" r="2.5"/>
      <circle class="cls-4" cx="260.72" cy="328.66" r="2.5"/>
      <circle class="cls-4" cx="230.72" cy="358.66" r="2.5"/>
      <circle class="cls-4" cx="260.72" cy="358.66" r="1.12"/>
    </g>
    <g>
      <circle class="cls-4" cx="350.72" cy="388.66" r="2.5"/>
      <circle class="cls-4" cx="380.72" cy="358.66" r="2.5"/>
      <circle class="cls-4" cx="350.72" cy="328.66" r="2.5"/>
      <circle class="cls-4" cx="320.72" cy="358.66" r="2.5"/>
      <circle class="cls-4" cx="350.72" cy="358.66" r="1.12"/>
    </g>
    <g>
      <circle class="cls-4" cx="440.72" cy="388.66" r="2.5"/>
      <circle class="cls-4" cx="470.72" cy="358.66" r="2.5"/>
      <circle class="cls-4" cx="440.72" cy="328.66" r="2.5"/>
      <circle class="cls-4" cx="410.72" cy="358.66" r="2.5"/>
      <circle class="cls-4" cx="440.72" cy="358.66" r="1.12"/>
    </g>
    <g>
      <circle class="cls-4" cx="530.72" cy="388.66" r="2.5"/>
      <circle class="cls-4" cx="560.72" cy="358.66" r="2.5"/>
      <circle class="cls-4" cx="530.72" cy="328.66" r="2.5"/>
      <circle class="cls-4" cx="500.72" cy="358.66" r="2.5"/>
      <circle class="cls-4" cx="530.72" cy="358.66" r="1.12"/>
    </g>
    <g>
      <circle class="cls-4" cx="80.72" cy="488.66" r="2.5"/>
      <circle class="cls-4" cx="110.72" cy="458.66" r="2.5"/>
      <circle class="cls-4" cx="80.72" cy="428.66" r="2.5"/>
      <circle class="cls-4" cx="50.72" cy="458.66" r="2.5"/>
      <circle class="cls-4" cx="80.72" cy="458.66" r="1.12"/>
    </g>
    <g>
      <circle class="cls-4" cx="170.72" cy="488.66" r="2.5"/>
      <circle class="cls-4" cx="200.72" cy="458.66" r="2.5"/>
      <circle class="cls-4" cx="170.72" cy="428.66" r="2.5"/>
      <circle class="cls-4" cx="140.72" cy="458.66" r="2.5"/>
      <circle class="cls-4" cx="170.72" cy="458.66" r="1.12"/>
    </g>
    <g>
      <circle class="cls-4" cx="260.72" cy="488.66" r="2.5"/>
      <circle class="cls-4" cx="290.72" cy="458.66" r="2.5"/>
      <circle class="cls-4" cx="260.72" cy="428.66" r="2.5"/>
      <circle class="cls-4" cx="230.72" cy="458.66" r="2.5"/>
      <circle class="cls-4" cx="260.72" cy="458.66" r="1.12"/>
    </g>
    <g>
      <circle class="cls-4" cx="350.72" cy="488.66" r="2.5"/>
      <circle class="cls-4" cx="380.72" cy="458.66" r="2.5"/>
      <circle class="cls-4" cx="350.72" cy="428.66" r="2.5"/>
      <circle class="cls-4" cx="320.72" cy="458.66" r="2.5"/>
      <circle class="cls-4" cx="350.72" cy="458.66" r="1.12"/>
    </g>
    <g>
      <circle class="cls-4" cx="80.72" cy="654.21" r="2.5"/>
      <circle class="cls-4" cx="110.72" cy="624.21" r="2.5"/>
      <circle class="cls-4" cx="80.72" cy="594.21" r="2.5"/>
      <circle class="cls-4" cx="50.72" cy="624.21" r="2.5"/>
      <circle class="cls-4" cx="80.72" cy="624.21" r="1.12"/>
    </g>
    <g>
      <circle class="cls-4" cx="170.72" cy="654.21" r="2.5"/>
      <circle class="cls-4" cx="200.72" cy="624.21" r="2.5"/>
      <circle class="cls-4" cx="170.72" cy="594.21" r="2.5"/>
      <circle class="cls-4" cx="140.72" cy="624.21" r="2.5"/>
      <circle class="cls-4" cx="170.72" cy="624.21" r="1.12"/>
    </g>
    <g>
      <circle class="cls-4" cx="260.72" cy="654.21" r="2.5"/>
      <circle class="cls-4" cx="290.72" cy="624.21" r="2.5"/>
      <circle class="cls-4" cx="260.72" cy="594.21" r="2.5"/>
      <circle class="cls-4" cx="230.72" cy="624.21" r="2.5"/>
      <circle class="cls-4" cx="260.72" cy="624.21" r="1.12"/>
    </g>
    <g>
      <circle class="cls-4" cx="350.72" cy="654.21" r="2.5"/>
      <circle class="cls-4" cx="380.72" cy="624.21" r="2.5"/>
      <circle class="cls-4" cx="350.72" cy="594.21" r="2.5"/>
      <circle class="cls-4" cx="320.72" cy="624.21" r="2.5"/>
      <circle class="cls-4" cx="350.72" cy="624.21" r="1.12"/>
    </g>
    <g>
      <circle class="cls-4" cx="80.72" cy="754.21" r="2.5"/>
      <circle class="cls-4" cx="110.72" cy="724.21" r="2.5"/>
      <circle class="cls-4" cx="80.72" cy="694.21" r="2.5"/>
      <circle class="cls-4" cx="50.72" cy="724.21" r="2.5"/>
      <circle class="cls-4" cx="80.72" cy="724.21" r="1.12"/>
    </g>
    <g>
      <circle class="cls-4" cx="170.72" cy="754.21" r="2.5"/>
      <circle class="cls-4" cx="200.72" cy="724.21" r="2.5"/>
      <circle class="cls-4" cx="170.72" cy="694.21" r="2.5"/>
      <circle class="cls-4" cx="140.72" cy="724.21" r="2.5"/>
      <circle class="cls-4" cx="170.72" cy="724.21" r="1.12"/>
    </g>
    <g>
      <circle class="cls-4" cx="260.72" cy="754.21" r="2.5"/>
      <circle class="cls-4" cx="290.72" cy="724.21" r="2.5"/>
      <circle class="cls-4" cx="260.72" cy="694.21" r="2.5"/>
      <circle class="cls-4" cx="230.72" cy="724.21" r="2.5"/>
      <circle class="cls-4" cx="260.72" cy="724.21" r="1.12"/>
    </g>
    <g>
      <circle class="cls-4" cx="350.72" cy="754.21" r="2.5"/>
      <circle class="cls-4" cx="380.72" cy="724.21" r="2.5"/>
      <circle class="cls-4" cx="350.72" cy="694.21" r="2.5"/>
      <circle class="cls-4" cx="320.72" cy="724.21" r="2.5"/>
      <circle class="cls-4" cx="350.72" cy="724.21" r="1.12"/>
    </g>
  </g>
  <path class="cls-11" d="m182.46,286.74v.18h-.01s0-.09.01-.18Z"/>
  <path class="cls-9" d="m265.94,282.61v.18h-.01s0-.09.01-.18Z"/>
  <path class="cls-9" d="m175.94,282.08v.18h-.01s0-.09.01-.18Z"/>
  <path class="cls-9" d="m284.06,254.32s-.1,0-.19-.01h.19Z"/>
  <g>
    <g>
      <path class="cls-4" d="m355.93,199.72c-.23-1.81.31-1.52-1.96-1.52-.48,0-1.1-.23-1.08-.83.02-.68.18-1,1.11-1,.29,0,2.96-.14,5.13-.13.75,0,1.29.31,1.29,1,0,.56-.42.9-1.31.9-1.86,0-1.61-.26-1.61,1.62,0,2.18.1,3.12-.28,3.9-2.04,4.14-6.19,2.28-6.19-.8,0-.58.16-.88.74-.92.52-.04.65.48.76.88.75,2.71,4.08,2.04,3.42-3.1Z"/>
      <path class="cls-4" d="m341.44,196.59c4.64-1.3,7.94.33,7.99,3.72.1,6.19-7.54,6.06-7.86,5.69-.19-.72-.85-5.47-.13-9.41Zm1.61,7.69c3.94-.46,5.1-2.07,4.74-4.52s-4.31-2.07-4.85-1.81c-.26,3.6-.2,4.36.11,6.32Z"/>
    </g>
    <g>
      <path class="cls-4" d="m443.62,202.26c0,1.63,0,2.16,0,3.1,0,.66-.29.79-.8.79s-.93-.29-.93-.87c0-1.15-.04-6.16-.04-8.56,0-.52.34-.57.65-.57.41,0,.86.14.86.57,0,1.02.08,3.16.08,3.16,0,0,1.87-1.75,2.5-2.42.41-.44,1-.5,1.3-.14s.47.6-.1,1.15c-.85.84-1.04,1.21-2.46,2.53.83.86,2.18,1.99,3.61,3.62.45.51.34,1.14.17,1.3s-.8.24-1.19-.17-1.92-2.09-3.65-3.5Z"/>
      <path class="cls-4" d="m434.12,199.13c0,.36.02,1.02.02,1.02,0,0,2.18.01,3.53.07.5.02.9-.07.95.78.04.6-.32.73-.87.77-1.28.09-3.49.05-3.49.05,0,0,.03,1.16.07,1.65.03.39.1.88.1.88,0,0,3.53.01,3.93,0,.33,0,.84,0,.81.84-.03.89-.42.83-.98.87-1.49.1-4.12,0-4.84-.38-1.02-.55-.79-5.46-.37-8.84.08-.67,3.98-.71,4.96-.62.44.04.67.53.67.82,0,.31,0,.87-.59.9-1.38.08-3.86.16-3.86.16,0,0-.03.8-.02,1.03Z"/>
    </g>
    <g>
      <path class="cls-4" d="m352.43,296.09c4.64-1.3,7.94.33,7.99,3.72.1,6.19-7.54,6.06-7.86,5.69-.19-.72-.85-5.47-.13-9.41Zm1.61,7.69c3.94-.46,5.1-2.07,4.74-4.52-.36-2.45-4.31-2.07-4.85-1.81-.26,3.6-.2,4.36.11,6.32Z"/>
      <path class="cls-4" d="m346.01,299.22c-.23-1.81.31-1.52-1.96-1.52-.48,0-1.1-.23-1.08-.83.02-.68.18-1,1.11-1,.29,0,2.96-.14,5.13-.13.75,0,1.29.31,1.29,1,0,.56-.42.9-1.31.9-1.86,0-1.61-.26-1.61,1.62,0,2.18.1,3.12-.28,3.9-2.04,4.14-6.19,2.28-6.19-.8,0-.58.16-.88.74-.92.52-.04.65.48.76.88.75,2.71,4.08,2.04,3.42-3.1Z"/>
    </g>
    <g>
      <path class="cls-4" d="m443.49,298.64c0,.36.02,1.02.02,1.02,0,0,2.18.01,3.53.07.5.02.9-.07.95.78.04.6-.32.73-.87.77-1.28.09-3.49.05-3.49.05,0,0,.03,1.16.07,1.65.03.39.1.88.1.88,0,0,3.53.01,3.93,0,.33,0,.84,0,.81.84-.03.89-.42.83-.98.87-1.49.1-4.12,0-4.84-.38-1.02-.55-.79-5.46-.37-8.84.08-.67,3.98-.71,4.96-.62.44.04.67.53.67.82,0,.31,0,.87-.59.9-1.38.08-3.86.16-3.86.16,0,0-.03.8-.02,1.03Z"/>
      <path class="cls-4" d="m434.46,301.76c0,1.63,0,2.16,0,3.1,0,.66-.29.79-.8.79s-.93-.29-.93-.87c0-1.15-.04-6.16-.04-8.56,0-.52.34-.57.65-.57.41,0,.86.14.86.57,0,1.02.08,3.16.08,3.16,0,0,1.87-1.75,2.5-2.42.41-.44,1-.5,1.3-.14s.47.6-.1,1.15c-.85.84-1.04,1.21-2.46,2.53.83.86,2.18,1.99,3.61,3.62.45.51.34,1.14.17,1.3s-.8.24-1.19-.17-1.92-2.09-3.65-3.5Z"/>
    </g>
    <g>
      <path class="cls-4" d="m352.22,396.2c2.1-.68,4.35-.62,5.15.12,1.3,1.2,1.17,2.8.53,3.78-.96,1.47-3.93,1.42-3.93,1.42,0,0,.29,3.22.2,3.68-.02.1-.5.53-.74.53-.26,0-.84-.18-.88-.48-.61-5.29-.67-8.32-.33-9.04Zm1.64,3.84c2.37.24,3.12-.65,2.92-2s-2.71-1-3.01-.85c-.11,1.56-.08,1.77.09,2.85Z"/>
      <path class="cls-4" d="m343.36,396.2c2.1-.68,4.35-.62,5.15.12,1.3,1.2,1.17,2.8.53,3.78-.96,1.47-3.93,1.42-3.93,1.42,0,0,.29,3.22.2,3.68-.02.1-.5.53-.74.53-.26,0-.84-.18-.88-.48-.61-5.29-.67-8.32-.33-9.04Zm1.64,3.84c2.37.24,3.12-.65,2.92-2-.2-1.35-2.71-1-3.01-.85-.11,1.56-.08,1.77.09,2.85Z"/>
    </g>
    <g>
      <path class="cls-4" d="m450.44,404.23l-.97-.99-.02-.02c1.23-2.17.51-4.46-.12-5.62-.87-1.56-3.93-2.62-5.78-1.24-2.07,1.53-2.64,3.26-2.09,6.23.3,1.66,2.32,3.48,4.78,3.07.79-.14,1.51-.53,2.11-1.07l.84.86c.34.34.89.35,1.24,0,.35-.34.35-.9,0-1.24Zm-6.76-1.14c-.78-.77-1.05-3.12.06-4.56,1.24-1.59,3.21-.9,3.76-.41.64.58,1.52,2.26.81,3.93l-.1-.1h0s-1.02-1.04-1.02-1.04c-.34-.35-.9-.35-1.24,0-.18.16-.26.39-.26.62s.08.45.25.62l1.1,1.12.15.15c-1.14.75-2.65.55-3.51-.31Z"/>
      <path class="cls-4" d="m439.7,404.23l-.97-.99-.02-.02c1.23-2.17.51-4.46-.12-5.62-.87-1.56-3.93-2.62-5.78-1.24-2.07,1.53-2.64,3.26-2.09,6.23.3,1.66,2.32,3.48,4.78,3.07.79-.14,1.51-.53,2.11-1.07l.84.86c.34.34.89.35,1.24,0,.35-.34.35-.9,0-1.24Zm-6.76-1.14c-.78-.77-1.05-3.12.06-4.56,1.24-1.59,3.21-.9,3.76-.41.64.58,1.52,2.26.81,3.93l-.1-.1h0s-1.02-1.04-1.02-1.04c-.34-.35-.9-.35-1.24,0-.18.16-.26.39-.26.62s.08.45.25.62l1.1,1.12.15.15c-1.14.75-2.65.55-3.51-.31Z"/>
    </g>
    <g>
      <path class="cls-4" d="m89.15,668.74c.48.44.43.65.44.96s-.23.47-.53.71c-1.75,1.43-2.78,2.44-2.78,2.44,0,0,.42.05,4.42.05.4,0,.79.33.79.78,0,.48-.22.88-.64.88-2.35,0-4.02-.05-5.97-.05-.79,0-1.34-.19-1.52-.57-.17-.36-.12-.9.55-1.52,1.91-1.72,3.47-2.88,3.47-2.88,0,0-2.17-1.97-3.75-3.56-.33-.33-.43-.62-.31-.85.11-.2.55-.57.92-.57h6.71c.74,0,.77,1.31,0,1.31-3.37,0-5.2.02-5.2.02"/>
      <path class="cls-4" d="m81.11,664.56c-.46-.06-.96.28-1.19,1.14-.42,1.54-.92,3.7-1.44,5.63-1.11-2.72-1.86-4.39-2.5-4.38-.01,0-.02,0-.03.01-.01-.01-.02-.01-.03-.01-.64-.01-1.39,1.65-2.5,4.38-.51-1.93-1.02-4.09-1.44-5.63-.24-.86-.73-1.2-1.19-1.14-.59.07-.98.49-.74,1.25.25.81,1.84,6.07,2.3,7.72.47,1.65,1.59.9,1.8.49.21-.41,1.36-3.67,1.8-4.59.44.92,1.59,4.18,1.8,4.59.21.41,1.33,1.16,1.8-.49.46-1.64,2.05-6.9,2.3-7.72.24-.76-.15-1.18-.74-1.25Z"/>
    </g>
    <g>
      <path class="cls-4" d="m358.81,763.64c-1.68,0-1.02,0-3.51,0-.91,0-1.17-.67-1.11-1.15.03-.28.42-.6,1.07-.58,1.9.08,4.6-.22,5.58.38.3.19.43.73.15,1.14-1.71,2.48-4.54,6.5-4.54,6.5,0,0,2.37-.15,3.63-.15,1.56-.14,1.87,2.08.13,2.08-8.37,0-8.83,1.14-1.4-8.22Z"/>
      <path class="cls-4" d="m350.87,771.9h-3.54c-.32,0-.53-.32-.41-.62,2.67-6.29.99-7.71-1.08-7.85-.04,0-.08,0-.12,0h-.02s-.09,0-.13,0c-.04,0-.08,0-.12,0-2.07.14-3.75,1.56-1.08,7.85.12.29-.09.62-.41.62h-3.54c-.14,0-.66-1.27.12-1.73.69-.41.99.09,1.81.11-2.24-4.96.04-7.96,2.78-8.36.08-.02.94-.02,1.02,0,2.74.41,5.02,3.4,2.78,8.36.82-.02,1.12-.51,1.81-.11.78.46.26,1.73.12,1.73Z"/>
    </g>
    <g>
      <path class="cls-4" d="m268.53,763.15l-4.37,8.3c-.15.29-.45.46-.75.46-.13,0-.26-.04-.39-.1-.2-.11-.35-.28-.42-.5-.07-.21-.05-.45.06-.65l1.88-3.58-2.53-3.62c-.12-.11-.2-.27-.24-.47-.05-.25.03-.53.2-.71.15-.17.35-.27.58-.28.22,0,.45.07.61.21l2.2,3.29,1.65-3.14c.12-.2.29-.35.51-.42.22-.07.45-.04.65.07.22.12.38.33.43.59.03.19,0,.38-.08.55Z"/>
      <path d="m258.38,763.43c-.75-1.02-1.5-1.53-2.25-1.53h-.07c-.77.03-1.52.6-2.21,1.69-1.14,1.8-1.61,4.77.05,7.03.55.79,1.23,1.23,2,1.27.05,0,.11,0,.17,0,.89,0,1.7-.51,2.13-.97.96-1.01,1.3-2.33,1.3-3.62,0-1.57-.52-3.07-1.12-3.88Zm-2.22.07c.86,0,1.48,1.13,1.53,1.91.02.3,0,.48-.11.58-.07.08-.2.11-.39.12h-1.07c-.36,0-.72,0-1.04,0-.15,0-.25-.04-.32-.12-.09-.1-.14-.28-.12-.54.06-.78.73-1.96,1.52-1.96Zm-1.4,4.38c.43-.04.85-.05,1.27-.05.25,0,.51,0,.75,0,.29,0,.57,0,.85,0,.13,0,.24.09.25.21.1.84-.2,1.56-.78,1.95-.51.34-1.17.38-1.68.11-.61-.33-.93-1.04-.91-1.99,0-.12.12-.24.25-.25Z"/>
    </g>
    <g>
      <path class="cls-4" d="m179.95,770.41c.16.19.21.44.19.68-.03.24-.16.46-.34.61-.4.3-.98.23-1.3-.17l-2.45-3.14-2.45,3.14c-.18.23-.45.36-.72.36-.19,0-.4-.07-.57-.19-.19-.15-.32-.37-.35-.61-.03-.24.03-.49.19-.68l2.73-3.51-2.73-3.51c-.13-.17-.19-.36-.19-.57,0-.28.14-.56.36-.73.19-.15.42-.21.67-.19.24.03.47.16.61.35l2.45,3.14,2.44-3.14c.33-.41.91-.48,1.31-.16.22.17.35.43.35.72,0,.2-.07.4-.19.57l-2.73,3.51,2.73,3.51Z"/>
      <path class="cls-4" d="m169.73,770.04c-.93-2.27-1.86-4.39-2.21-5.2-.38-.84-.67-1.52-.74-1.72-.32-.87-.6-1.18-1.12-1.22-.5.04-.79.34-1.11,1.22-.07.2-.36.87-.73,1.72-.73,1.66-1.56,3.6-2.22,5.2-.28.71-.29,1.21-.03,1.52.19.23.49.34.9.34h6.43c.41,0,.71-.12.9-.34.12-.15.18-.34.18-.58,0-.26-.07-.57-.22-.94Zm-1.67.34h-4.8c.17-.42.49-1.25.87-2.18.56-1.41,1.21-3.07,1.53-3.9.39.98,1.22,3.11,1.83,4.63l.57,1.44Z"/>
    </g>
    <g>
      <path class="cls-4" d="m91.02,761.91c-.46-.06-.96.28-1.19,1.14-.42,1.54-.92,3.7-1.44,5.63-1.11-2.72-1.86-4.39-2.5-4.38-.01,0-.02,0-.03.01-.01-.01-.02-.01-.03-.01-.64-.01-1.39,1.65-2.5,4.38-.51-1.93-1.02-4.09-1.44-5.63-.24-.86-.73-1.2-1.19-1.14-.59.07-.98.49-.74,1.25.25.81,1.84,6.07,2.3,7.72.47,1.65,1.59.9,1.8.49.21-.41,1.36-3.67,1.8-4.59.44.92,1.59,4.18,1.8,4.59.21.41,1.33,1.16,1.8-.49.46-1.64,2.05-6.9,2.3-7.72.24-.76-.15-1.18-.74-1.25Z"/>
      <path class="cls-4" d="m75.56,766.09c.48.44.43.65.44.96s-.23.47-.53.71c-1.75,1.43-2.78,2.44-2.78,2.44,0,0,.42.05,4.42.05.4,0,.79.33.79.78,0,.48-.22.88-.64.88-2.35,0-4.02-.05-5.97-.05-.79,0-1.34-.19-1.52-.57-.17-.36-.12-.9.55-1.52,1.91-1.72,3.47-2.88,3.47-2.88,0,0-2.17-1.97-3.75-3.56-.33-.33-.43-.62-.31-.85.11-.2.55-.57.92-.57h6.71c.74,0,.77,1.31,0,1.31-3.37,0-5.2.02-5.2.02"/>
    </g>
    <g>
      <path class="cls-4" d="m360.82,674.55h-3.54c-.32,0-.53-.32-.41-.62,2.67-6.29.99-7.71-1.08-7.85-.04,0-.08,0-.12,0h-.02s-.09,0-.13,0c-.04,0-.08,0-.12,0-2.07.14-3.75,1.56-1.08,7.85.12.29-.09.62-.41.62h-3.54c-.14,0-.66-1.27.12-1.73.69-.41.99.09,1.81.11-2.24-4.96.04-7.96,2.78-8.36.08-.02.94-.02,1.02,0,2.74.41,5.02,3.4,2.78,8.36.82-.02,1.12-.51,1.81-.11.78.46.26,1.73.12,1.73Z"/>
      <path class="cls-4" d="m345.66,666.29c-1.68,0-1.02,0-3.51,0-.91,0-1.17-.67-1.11-1.15.03-.28.42-.6,1.07-.58,1.9.08,4.6-.22,5.58.38.3.19.43.73.15,1.14-1.71,2.48-4.54,6.5-4.54,6.5,0,0,2.37-.15,3.63-.15,1.56-.14,1.87,2.08.13,2.08-8.37,0-8.83,1.14-1.4-8.22Z"/>
    </g>
    <g>
      <path d="m267.63,666.08c-.75-1.02-1.5-1.53-2.25-1.53h-.07c-.77.03-1.52.6-2.21,1.69-1.14,1.8-1.61,4.77.05,7.03.55.79,1.23,1.23,2,1.27.05,0,.11,0,.17,0,.89,0,1.7-.51,2.13-.97.96-1.01,1.3-2.33,1.3-3.62,0-1.57-.52-3.07-1.12-3.88Zm-2.22.07c.86,0,1.48,1.13,1.53,1.91.02.3,0,.48-.11.58-.07.08-.2.11-.39.12h-1.07c-.36,0-.72,0-1.04,0-.15,0-.25-.04-.32-.12-.09-.1-.14-.28-.12-.54.06-.78.73-1.96,1.52-1.96Zm-1.4,4.38c.43-.04.85-.05,1.27-.05.25,0,.51,0,.75,0,.29,0,.57,0,.85,0,.13,0,.24.09.25.21.1.84-.2,1.56-.78,1.95-.51.34-1.17.38-1.68.11-.61-.33-.93-1.04-.91-1.99,0-.12.12-.24.25-.25Z"/>
      <path class="cls-4" d="m259.47,665.8l-4.37,8.3c-.15.29-.45.46-.75.46-.13,0-.26-.04-.39-.1-.2-.11-.35-.28-.42-.5-.07-.21-.05-.45.06-.65l1.88-3.58-2.53-3.62c-.12-.11-.2-.27-.24-.47-.05-.25.03-.53.2-.71.15-.17.35-.27.58-.28.22,0,.45.07.61.21l2.2,3.29,1.65-3.14c.12-.2.29-.35.51-.42.22-.07.45-.04.65.07.22.12.38.33.43.59.03.19,0,.38-.08.55Z"/>
    </g>
    <g>
      <path class="cls-4" d="m179.66,672.69c-.93-2.27-1.86-4.39-2.21-5.2-.38-.84-.67-1.52-.74-1.72-.32-.87-.6-1.18-1.12-1.22-.5.04-.79.34-1.11,1.22-.07.2-.36.87-.73,1.72-.73,1.66-1.56,3.6-2.22,5.2-.28.71-.29,1.21-.03,1.52.19.23.49.34.9.34h6.43c.41,0,.71-.12.9-.34.12-.15.18-.34.18-.58,0-.26-.07-.57-.22-.94Zm-1.67.34h-4.8c.17-.42.49-1.25.87-2.18.56-1.41,1.21-3.07,1.53-3.9.39.98,1.22,3.11,1.83,4.63l.57,1.44Z"/>
      <path class="cls-4" d="m169.62,673.06c.16.19.21.44.19.68-.03.24-.16.46-.34.61-.4.3-.98.23-1.3-.17l-2.45-3.14-2.45,3.14c-.18.23-.45.36-.72.36-.19,0-.4-.07-.57-.19-.19-.15-.32-.37-.35-.61-.03-.24.03-.49.19-.68l2.73-3.51-2.73-3.51c-.13-.17-.19-.36-.19-.57,0-.28.14-.56.36-.73.19-.15.42-.21.67-.19.24.03.47.16.61.35l2.45,3.14,2.44-3.14c.33-.41.91-.48,1.31-.16.22.17.35.43.35.72,0,.2-.07.4-.19.57l-2.73,3.51,2.73,3.51Z"/>
    </g>
    <g>
      <path class="cls-4" d="m269.41,203.9c.42.55-.07,1.12-.5,1.33-9.15,4.54-8.83-9.42-3.27-9.09,1.07.06,2.05.85,2.39,1.26.25.29.44.81.12,1.16-.34.36-.8.24-1.02,0-4.33-4.56-6.65,9.06,1.11,5.25.45-.22.79-.4,1.16.09Z"/>
      <path class="cls-4" d="m259.58,203.9c.42.55-.07,1.12-.5,1.33-9.15,4.54-8.83-9.42-3.27-9.09,1.07.06,2.05.85,2.39,1.26.25.29.44.81.12,1.16-.34.36-.8.24-1.02,0-4.33-4.56-6.65,9.06,1.11,5.25.45-.22.79-.4,1.16.09Z"/>
    </g>
    <g>
      <path class="cls-4" d="m359.29,501.44c-.11.73-.3,1.42-.58,2.11-.6,1.42-1.8,2.3-3.21,2.37h-.26c-1.41-.07-2.6-.95-3.21-2.37-.28-.67-.47-1.36-.57-2.11-.19-1.31-.24-2.6-.18-4.35.02-.47.13-.8.34-.99.14-.13.32-.19.52-.19.64.04.78.66.82,1.21,0,.18,0,.48,0,.86-.05,1.51-.14,4.35.93,5.36.21.2.58.43.94.56.35.14.73.14,1.08,0,.36-.14.74-.37.95-.56,1.06-1.01.98-3.81.93-5.33,0-.4-.02-.71,0-.89.03-.5.15-1.17.8-1.21.21,0,.39.06.52.19.22.19.33.52.34.99.08,1.8.03,3.06-.16,4.35Z"/>
      <path class="cls-4" d="m349.64,497.26c-.06.29-1.97,5.54-3.02,7.94-.32.73-.61.72-.74.72s-.42,0-.74-.72c-1.05-2.4-2.96-7.64-3.02-7.94-.23-1,.08-1.16.44-1.3.28-.13.86-.02,1.12.7.16.42,2.2,5.86,2.2,5.86,0,0,2.05-5.44,2.2-5.86.25-.72.83-.82,1.12-.7.36.15.67.3.44,1.3Z"/>
    </g>
    <g>
      <path class="cls-4" d="m269.51,497.26c-.06.29-1.97,5.54-3.02,7.94-.32.73-.61.72-.74.72s-.42,0-.74-.72c-1.05-2.4-2.96-7.64-3.02-7.94-.23-1,.08-1.16.44-1.3.28-.13.86-.02,1.12.7.16.42,2.2,5.86,2.2,5.86,0,0,2.05-5.44,2.2-5.86.25-.72.83-.82,1.12-.7.36.15.67.3.44,1.3Z"/>
      <path class="cls-4" d="m259.89,501.44c-.11.73-.3,1.42-.58,2.11-.6,1.42-1.8,2.3-3.21,2.37h-.26c-1.41-.07-2.6-.95-3.21-2.37-.28-.67-.47-1.36-.57-2.11-.19-1.31-.24-2.6-.18-4.35.02-.47.13-.8.34-.99.14-.13.32-.19.52-.19.64.04.78.66.82,1.21,0,.18,0,.48,0,.86-.05,1.51-.14,4.35.93,5.36.21.2.58.43.94.56.35.14.73.14,1.08,0,.36-.14.74-.37.95-.56,1.06-1.01.98-3.81.93-5.33,0-.4-.02-.71,0-.89.03-.5.15-1.17.8-1.21.21,0,.39.06.52.19.22.19.33.52.34.99.08,1.8.03,3.06-.16,4.35Z"/>
    </g>
    <g>
      <path class="cls-4" d="m175.36,201c4.39-1.93.8-6.48-3.28-4.27-.04.02-.07.06-.07.1-.38,2.63-.16,6.19.2,8.71.02.13.12.23.24.27,6.22,1.71,7.68-3.78,2.91-4.81Zm.65-2.47c0,1.13-1.98,1.51-2.74,1.51-.13-.26-.02-2.43.07-2.53.9-.25,2.67.04,2.67,1.02Zm-2.38,6.17c-.17-1.1-.2-1.41-.14-2.54.47-.06,3.32-.1,3.29,1.38-.03,1.15-2.44,1.38-3.15,1.16Z"/>
      <path class="cls-4" d="m166.87,201c4.39-1.93.8-6.48-3.28-4.27-.04.02-.07.06-.07.1-.38,2.63-.16,6.19.2,8.71.02.13.12.23.24.27,6.22,1.71,7.68-3.78,2.91-4.81Zm.65-2.47c0,1.13-1.98,1.51-2.74,1.51-.13-.26-.02-2.43.07-2.53.9-.25,2.67.04,2.67,1.02Zm-2.38,6.17c-.17-1.1-.2-1.41-.14-2.54.47-.06,3.32-.1,3.29,1.38-.03,1.15-2.44,1.38-3.15,1.16Z"/>
    </g>
    <g>
      <path class="cls-4" d="m173.38,295.65c.6,0,.78.44.78,1.3,0,1.42-.08,2.98.59,2.98.85,0,1.26.02,2.11.02.66,0,.57-2.05.57-3.25,0-.84.25-1.01.74-1.01s.74.12.74,1.02c.03,1.93.21,7.06.21,7.98s-.13.95-.74.95c-.67,0-.76-.2-.74-.91.05-2.55.11-3.14-.89-3.17-.79-.02-1.01-.02-1.81-.03-.97-.01-.96.49-1.06,3.29-.03.74-.3.75-.77.75-.37,0-.69-.07-.64-.9.02-.27.16-5.72.15-7.8,0-.72.14-1.23.77-1.23Z"/>
      <path class="cls-4" d="m163.31,295.65c.6,0,.78.44.78,1.3,0,1.42-.08,2.98.59,2.98.85,0,1.26.02,2.11.02.66,0,.57-2.05.57-3.25,0-.84.25-1.01.74-1.01s.74.12.74,1.02c.03,1.93.21,7.06.21,7.98s-.13.95-.74.95c-.67,0-.76-.2-.74-.91.05-2.55.11-3.14-.89-3.17-.79-.02-1.01-.02-1.81-.03-.97-.01-.96.49-1.06,3.29-.03.74-.3.75-.77.75-.37,0-.69-.07-.64-.9.02-.27.16-5.72.15-7.8,0-.72.14-1.23.77-1.23Z"/>
    </g>
    <g>
      <path class="cls-4" d="m179.4,496.85c0,.49-.38.79-1.17.77h-2.09s0,.06,0,.1v7.38c0,.45-.38.83-.83.83h-.02c-.46,0-.84-.38-.84-.83v-7.38s0-.06,0-.09h-1.98c-.42,0-.96-.3-.93-.83.03-.59.17-.88,1-.86.25,0,3.81-.04,5.73,0,.66.02,1.13.29,1.12.91Z"/>
      <path class="cls-4" d="m169.96,496.85c0,.49-.38.79-1.17.77h-2.09s0,.06,0,.1v7.38c0,.45-.38.83-.83.83h-.02c-.46,0-.84-.38-.84-.83v-7.38s0-.06,0-.09h-1.98c-.42,0-.96-.3-.93-.83.03-.59.17-.88,1-.86.25,0,3.81-.04,5.73,0,.66.02,1.13.29,1.12.91Z"/>
    </g>
    <g>
      <path class="cls-4" d="m92.8,405.72c-.46.06-.96-.28-1.19-1.14-.42-1.54-.92-3.7-1.44-5.63-1.11,2.72-1.86,4.39-2.5,4.38-.01,0-.02,0-.03-.01-.01.01-.02.01-.03.01-.64.01-1.39-1.65-2.5-4.38-.51,1.93-1.02,4.09-1.44,5.63-.24.86-.73,1.2-1.19,1.14-.59-.07-.98-.49-.74-1.25.25-.81,1.84-6.07,2.3-7.72.47-1.65,1.59-.9,1.8-.49.21.41,1.36,3.67,1.8,4.59.44-.92,1.59-4.18,1.8-4.59.21-.41,1.33-1.16,1.8.49.46,1.64,2.05,6.9,2.3,7.72.24.76-.15,1.18-.74,1.25Z"/>
      <path class="cls-4" d="m79.02,405.72c-.46.06-.96-.28-1.19-1.14-.42-1.54-.92-3.7-1.44-5.63-1.11,2.72-1.86,4.39-2.5,4.38-.01,0-.02,0-.03-.01-.01.01-.02.01-.03.01-.64.01-1.39-1.65-2.5-4.38-.51,1.93-1.02,4.09-1.44,5.63-.24.86-.73,1.2-1.19,1.14-.59-.07-.98-.49-.74-1.25.25-.81,1.84-6.07,2.3-7.72.47-1.65,1.59-.9,1.8-.49.21.41,1.36,3.67,1.8,4.59.44-.92,1.59-4.18,1.8-4.59.21-.41,1.33-1.16,1.8.49.46,1.64,2.05,6.9,2.3,7.72.24.76-.15,1.18-.74,1.25Z"/>
    </g>
    <g>
      <path class="cls-4" d="m180.52,397.05c-.2.78-1.37,6.55-1.58,7.33s-.44,1.33-.9,1.35-.64-.27-1.17-1.25-1.66-3.47-2.44-5.56c-.53,1.89-.73,3.97-1.16,5.48-.25.85-.58,1.36-1.02,1.29-.1-.02-1.05-.26-.75-1.36.22-.81,1.48-6,1.96-7.62.48-1.62,1.54-.85,1.73-.44.19.41,2.31,5.6,2.67,6.53.19-.85.69-4.5,1.08-6.27.13-.6.81-.88,1.1-.76s.68.5.48,1.29Z"/>
      <path class="cls-4" d="m170.01,397.05c-.2.78-1.37,6.55-1.58,7.33s-.44,1.33-.9,1.35-.64-.27-1.17-1.25-1.66-3.47-2.44-5.56c-.53,1.89-.73,3.97-1.16,5.48-.25.85-.58,1.36-1.02,1.29-.1-.02-1.05-.26-.75-1.36.22-.81,1.48-6,1.96-7.62.48-1.62,1.54-.85,1.73-.44.19.41,2.31,5.6,2.67,6.53.19-.85.69-4.5,1.08-6.27.13-.6.81-.88,1.1-.76s.68.5.48,1.29Z"/>
    </g>
    <g>
      <path class="cls-4" d="m88.84,503.55c-.25,1.19-1.45,2.37-3.24,2.37h-.11c-1-.04-2.78-.26-3.51-1.25-.39-.52-.47-1.13-.19-1.44.24-.27.68-.24,1.23.08,1.08,1.06,2.52,1.08,3.42.64.52-.26.82-.65.77-1.03-.03-.33-.36-.94-2.12-1.35-2.5-.56-3.55-1.98-3.49-3.14.06-1.03,1.04-2.24,3.59-2.51.07,0,.13,0,.2,0,1.08,0,2.66.83,2.96,1.59.13.32.04.59-.26.82-.19.14-.59-.05-1.1-.3-.48-.23-1.01-.49-1.51-.55-.14-.02-.27-.03-.4-.03-.95,0-1.68.48-1.82.99-.13.47.23.9.96,1.2l2.99,1.21c1.5.62,1.82,1.8,1.62,2.7Z"/>
      <path class="cls-4" d="m79.86,503.55c-.25,1.19-1.45,2.37-3.24,2.37h-.11c-1-.04-2.78-.26-3.51-1.25-.39-.52-.47-1.13-.19-1.44.24-.27.68-.24,1.23.08,1.08,1.06,2.52,1.08,3.42.64.52-.26.82-.65.77-1.03-.03-.33-.36-.94-2.12-1.35-2.5-.56-3.55-1.98-3.49-3.14.06-1.03,1.04-2.24,3.59-2.51.07,0,.13,0,.2,0,1.08,0,2.66.83,2.96,1.59.13.32.04.59-.26.82-.19.14-.59-.05-1.1-.3-.48-.23-1.01-.49-1.51-.55-.14-.02-.27-.03-.4-.03-.95,0-1.68.48-1.82.99-.13.47.23.9.96,1.2l2.99,1.21c1.5.62,1.82,1.8,1.62,2.7Z"/>
    </g>
    <g>
      <path class="cls-4" d="m88.94,297.3c-.42-.02-1.11-.04-1.33-.05-2.5-.16-3.99,1.77-4.23,4.08-.08.74.07,1.24.63,1.77.96.88,2.65,1.08,3.68.33.29-.21.56-.57.67-.92.23-.7-.06-1.13-.73-1.15-.55-.02-1.11.07-1.67.1-.47.02-.98.05-1.11-.62-.11-.57.35-1.04,1.07-1.13.6-.07,1.2-.08,1.8-.13.41-.04.92,0,1.41-.03.86,1.57.93,2.45.34,3.91-.66,1.62-1.9,2.23-3.38,2.2-.76-.02-1.61-.21-2.26-.62-2.32-1.47-2.63-3.71-1.3-6.4,1.3-3.01,4.25-2.97,5.53-2.98.84,0,1.06.15.85,1.66Z"/>
      <path class="cls-4" d="m78.81,297.3c-.42-.02-1.11-.04-1.33-.05-2.5-.16-3.99,1.77-4.23,4.08-.08.74.07,1.24.63,1.77.96.88,2.65,1.08,3.68.33.29-.21.56-.57.67-.92.23-.7-.06-1.13-.73-1.15-.55-.02-1.11.07-1.67.1-.47.02-.98.05-1.11-.62-.11-.57.35-1.04,1.07-1.13.6-.07,1.2-.08,1.8-.13.41-.04.92,0,1.41-.03.86,1.57.93,2.45.34,3.91-.66,1.62-1.9,2.23-3.38,2.2-.76-.02-1.61-.21-2.26-.62-2.32-1.47-2.63-3.71-1.3-6.4,1.3-3.01,4.25-2.97,5.53-2.98.84,0,1.06.15.85,1.66Z"/>
    </g>
    <g>
      <path class="cls-4" d="m89.14,205.16c-.87-2.99-2.3-6.84-2.48-7.31-.18-.46-.77-1.7-1.18-1.7s-1,1.24-1.18,1.7c-.18.47-1.61,4.32-2.48,7.31-.24.84.06.91.18.94,1.61.21,1.32-.3,1.57-1.4.23-1,.22-1.46,1-1.46.38,0,.56.01.91.01s.54-.01.91-.01c.78,0,.77.46,1,1.46.25,1.1-.04,1.61,1.57,1.4.12-.03.42-.1.18-.94Zm-2.91-3.37h-1.51c-.14,0-.23-.07-.19-.23l.94-3.44.94,3.44c.04.16-.05.23-.19.23Z"/>
      <path class="cls-4" d="m79.69,205.16c-.87-2.99-2.3-6.84-2.48-7.31-.18-.46-.77-1.7-1.18-1.7s-1,1.24-1.18,1.7c-.18.47-1.61,4.32-2.48,7.31-.24.84.06.91.18.94,1.61.21,1.32-.3,1.57-1.4.23-1,.22-1.46,1-1.46.38,0,.56.01.91.01s.54-.01.91-.01c.78,0,.77.46,1,1.46.25,1.1-.04,1.61,1.57,1.4.12-.03.42-.1.18-.94Zm-2.91-3.37h-1.51c-.14,0-.23-.07-.19-.23l.94-3.44.94,3.44c.04.16-.05.23-.19.23Z"/>
    </g>
    <g>
      <path class="cls-4" d="m251.57,402.6c-.55-2.97.03-4.69,2.09-6.23,1.86-1.39,4.92-.33,5.78,1.24.73,1.31,1.54,4.09-.47,6.49-.67.8-1.59,1.4-2.62,1.57-2.46.41-4.48-1.4-4.79-3.06Zm2.23.5c1.14,1.13,3.41,1.11,4.45-.7,1.02-1.77.06-3.66-.63-4.27-.55-.49-2.53-1.19-3.76.41-1.11,1.45-.84,3.8-.07,4.56Z"/>
      <path class="cls-4" d="m261.4,402.6c-.55-2.97.03-4.69,2.09-6.23,1.86-1.39,4.92-.33,5.78,1.24.73,1.31,1.54,4.09-.47,6.49-.67.8-1.59,1.4-2.62,1.57-2.46.41-4.48-1.4-4.79-3.06Zm2.23.5c1.14,1.13,3.41,1.11,4.45-.7,1.02-1.77.06-3.66-.63-4.27-.55-.49-2.53-1.19-3.76.41-1.11,1.45-.84,3.8-.07,4.56Z"/>
    </g>
    <g>
      <path class="cls-4" d="m529.48,404.36l-2.7-3.03c.87-.25,1.47-.64,1.8-1.14.66-1.02.77-2.65-.54-3.86-.83-.76-3.04-.82-5.15-.14l-.06.02-.02.05c-.26.54-.14,2.22.07,5.27.08,1.06.16,2.26.24,3.62.02.37.41.57.79.57.3,0,.77-.17.84-.62.06-.42-.05-2.87-.08-3.48h.17l3.42,3.83c.16.18.38.27.61.27.2,0,.4-.07.55-.21.34-.3.37-.83.07-1.16Zm-5.02-4.32l-.03-.2c-.13-.82-.2-1.21-.11-2.5.38-.1,1.92-.27,2.71.15.28.14.44.34.47.59.08.5-.06.95-.38,1.3-.52.53-1.46.77-2.66.67Z"/>
      <path class="cls-4" d="m538.57,404.36l-2.7-3.03c.87-.25,1.47-.64,1.8-1.14.66-1.02.77-2.65-.54-3.86-.83-.76-3.04-.82-5.15-.14l-.06.02-.02.05c-.26.54-.14,2.22.07,5.27.08,1.06.16,2.26.24,3.62.02.37.41.57.79.57.3,0,.77-.17.84-.62.06-.42-.05-2.87-.08-3.48h.17l3.42,3.83c.16.18.38.27.61.27.2,0,.4-.07.55-.21.34-.3.37-.83.07-1.16Zm-5.02-4.32l-.03-.2c-.13-.82-.2-1.21-.11-2.5.38-.1,1.92-.27,2.71.15.28.14.44.34.47.59.08.5-.06.95-.38,1.3-.52.53-1.46.77-2.66.67Z"/>
    </g>
    <g>
      <path class="cls-4" d="m523.61,205.49c-.21-2.13-.27-7.16-.03-8.83,0,0,1.78-.75,5.18-.44.42.04.62.25.63.53.03.54,0,1.08-.55,1.11-1.32.07-3.68.15-3.68.15,0,0-.03.76-.02.98,0,.34.02.97.02.97,0,0,2.08.01,3.36.07.47.02.88-.05.91.74.02.57-.38.7-.91.74-1.22.09-3.25.04-3.25.04.07,1.57.19,3.19.19,3.78,0,.69-.57.8-.97.8-.59,0-.85-.44-.87-.65Z"/>
      <path class="cls-4" d="m532.67,196.76c-.19,8.85-.94,7.8,4.1,7.75.71,0,1.24.12,1.24.84,0,.33-.44.77-1.2.77-4.71,0-4.71.13-5.33-.4-.49-.41-.42-1.9-.42-2.78,0-1.17.02-5.56.1-6.18.08-.62.33-.62.75-.62.38,0,.77.09.76.62Z"/>
    </g>
    <g>
      <path class="cls-4" d="m259.76,296.51c0,.48-.36.78-1.13.78-2.17,0-2.11.07-2.11,1.38s0,2.24,0,3.59c0,1.78-.28,1.77,1.44,1.82.75.02,1.77-.03,1.77.74,0,.35-.47.83-1.28.82-1.73.03-4.08,0-4.91-.02-.83,0-1.46-.29-1.45-.89.01-.68.89-.76,1.79-.76,1.33,0,1.12-.58,1.12-1.72,0-1.25.07-2.26.07-3.52,0-1.53.47-1.31-2.04-1.31-.41,0-.94-.27-.93-.79.02-.58.15-.86.96-.86.25,0,3.72-.12,5.59-.11.65,0,1.11.26,1.11.86Z"/>
      <path class="cls-4" d="m269.37,296.51c0,.48-.36.78-1.13.78-2.17,0-2.11.07-2.11,1.38s0,2.24,0,3.59c0,1.78-.28,1.77,1.44,1.82.75.02,1.77-.03,1.77.74,0,.35-.47.83-1.28.82-1.73.03-4.08,0-4.91-.02-.83,0-1.46-.29-1.45-.89.01-.68.89-.76,1.79-.76,1.33,0,1.12-.58,1.12-1.72,0-1.25.07-2.26.07-3.52,0-1.53.47-1.31-2.04-1.31-.41,0-.94-.27-.93-.79.02-.58.15-.86.96-.86.25,0,3.72-.12,5.59-.11.65,0,1.11.26,1.11.86Z"/>
    </g>
    <g>
      <path class="cls-4" d="m525.22,296.27c-.19,8.85-.94,7.8,4.1,7.75.71,0,1.24.12,1.24.84,0,.33-.44.77-1.2.77-4.71,0-4.71.13-5.33-.4-.49-.41-.42-1.9-.42-2.78,0-1.17.02-5.56.1-6.18s.33-.62.75-.62c.38,0,.77.09.76.62Z"/>
      <path class="cls-4" d="m532.02,305c-.21-2.13-.27-7.16-.03-8.83,0,0,1.78-.75,5.18-.44.42.04.62.25.63.53.03.54,0,1.08-.55,1.11-1.32.07-3.68.15-3.68.15,0,0-.03.76-.02.98,0,.34.02.97.02.97,0,0,2.08.01,3.36.07.47.02.88-.05.91.74.02.57-.38.7-.91.74-1.22.09-3.25.04-3.25.04.07,1.57.19,3.19.19,3.78,0,.69-.57.8-.97.8-.59,0-.85-.44-.87-.65Z"/>
    </g>
  </g>
  <g>
    <line class="cls-6" x1="7" y1="519.42" x2="605" y2="519.42"/>
    <line class="cls-7" x1="48.36" y1="212.86" x2="563.09" y2="212.86"/>
    <line class="cls-7" x1="48.22" y1="312.86" x2="563.22" y2="312.86"/>
    <line class="cls-7" x1="48.36" y1="412.86" x2="563.09" y2="412.86"/>
    <line class="cls-7" x1="48.36" y1="680.24" x2="563.22" y2="680.24"/>
  </g>
  <g>
    <path class="cls-11" d="m471.23,343.68c-16.77,0-15.27-5.17-15.27-20.09l2.62,2.58s1.09-1.05.5-1.87c-.79-1.08-4.05-3.91-4.05-3.91,0,0-3.26,2.83-4.05,3.91-.59.82.5,1.87.5,1.87l2.62-2.58c0,14.71-2.13,21.41,15.22,22.03-19.53,0-18.81.38-18.81-19.52,0-1.42-1.98-1.5-1.98-.03,0,22.34-.78,21.53,22.7,21.53,2.96,0,3.07-3.92,0-3.92Z"/>
    <path class="cls-11" d="m84.13,385.85s2.95,3.4,3.93,4.07c.84.58,1.91-.51,1.91-.51l-2.47-2.57c7.25,0,21.19-5.72,20.39-22.44-.14-3-1.63-3.46-2.43-3.46s-2.12.55-2.21,3.02c-.3,8.74-8.63,15.29-17.62,15.29-1.54-.04-1.59,2.03,0,2.03,10.39,0,19.83-7.91,19.93-17.85,1.82,14.27-10.29,21.32-18.05,21.32l2.45-2.51s-1.05-1.09-1.87-.5c-1.18.86-3.97,4.12-3.97,4.12Z"/>
    <path class="cls-11" d="m84.13,485.66s2.95,3.4,3.93,4.07c.84.58,1.91-.51,1.91-.51l-2.47-2.57c7.25,0,21.19-5.72,20.39-22.44-.14-3-1.63-3.46-2.43-3.46s-2.12.55-2.21,3.02c-.3,8.74-8.63,15.29-17.62,15.29-1.54-.04-1.59,2.03,0,2.03,10.39,0,19.83-7.91,19.93-17.85,1.82,14.27-10.29,21.32-18.05,21.32l2.45-2.51s-1.05-1.09-1.87-.5c-1.18.86-3.97,4.12-3.97,4.12Z"/>
    <path class="cls-11" d="m84.13,598.93s2.95-3.4,3.93-4.07c.84-.58,1.91.51,1.91.51l-2.47,2.57c7.25,0,21.19,5.72,20.39,22.44-.14,3-1.63,3.46-2.43,3.46-.79,0-2.12-.55-2.21-3.02-.3-8.74-8.63-15.29-17.62-15.29-1.54.04-1.59-2.03,0-2.03,10.39,0,19.83,7.91,19.93,17.85,1.82-14.27-10.29-21.32-18.05-21.32l2.45,2.51s-1.05,1.09-1.87.5c-1.18-.86-3.97-4.12-3.97-4.12Z"/>
    <path class="cls-11" d="m107.86,728.32s3.4,2.95,4.07,3.93c.58.84-.51,1.91-.51,1.91l-2.57-2.47c0,7.25-5.72,21.19-22.44,20.39-3-.14-3.46-1.63-3.46-2.43,0-.79.55-2.12,3.02-2.21,8.74-.3,15.29-8.63,15.29-17.62-.04-1.54,2.03-1.59,2.03,0,0,10.39-7.91,19.83-17.85,19.93,14.27,1.82,21.32-10.29,21.32-18.05l-2.51,2.45s-1.09-1.05-.5-1.87c.86-1.18,4.12-3.97,4.12-3.97Z"/>
    <path class="cls-11" d="m233,727.92s-3.4,2.95-4.07,3.93c-.58.84.51,1.91.51,1.91l2.57-2.47c0,7.25,5.72,21.19,22.44,20.39,3-.14,3.46-1.63,3.46-2.43s-.55-2.12-3.02-2.21c-8.74-.3-15.29-8.63-15.29-17.62.04-1.54-2.03-1.59-2.03,0,0,10.39,7.91,19.83,17.85,19.93-14.27,1.82-21.32-10.29-21.32-18.05l2.51,2.45s1.09-1.05.5-1.87c-.86-1.18-4.12-3.97-4.12-3.97Z"/>
    <path class="cls-11" d="m288.68,627.46s3.4,2.95,4.07,3.93c.58.84-.51,1.91-.51,1.91l-2.57-2.47c0,7.25-5.72,21.19-22.44,20.39-3-.14-3.46-1.63-3.46-2.43,0-.79.55-2.12,3.02-2.21,8.74-.3,15.29-8.63,15.29-17.62-.04-1.54,2.03-1.59,2.03,0,0,10.39-7.91,19.83-17.85,19.93,14.27,1.82,21.32-10.29,21.32-18.05l-2.51,2.45s-1.09-1.05-.5-1.87c.86-1.18,4.12-3.97,4.12-3.97Z"/>
    <path class="cls-11" d="m264.46,485.66s2.95,3.4,3.93,4.07c.84.58,1.91-.51,1.91-.51l-2.47-2.57c7.25,0,21.19-5.72,20.39-22.44-.14-3-1.63-3.46-2.43-3.46s-2.12.55-2.21,3.02c-.3,8.74-8.63,15.29-17.62,15.29-1.54-.04-1.59,2.03,0,2.03,10.39,0,19.83-7.91,19.93-17.85,1.82,14.27-10.29,21.32-18.05,21.32l2.45-2.51s-1.05-1.09-1.87-.5c-1.18.86-3.97,4.12-3.97,4.12Z"/>
    <path class="cls-9" d="m53.81,462.16s-3.4,2.95-4.07,3.93c-.58.84.51,1.91.51,1.91l2.57-2.47c0,7.25,5.72,21.19,22.44,20.39,3-.14,3.46-1.63,3.46-2.43,0-.79-.55-2.12-3.02-2.21-8.74-.3-15.29-8.63-15.29-17.62.04-1.54-2.03-1.59-2.03,0,0,10.39,7.91,19.83,17.85,19.93-14.27,1.82-21.32-10.29-21.32-18.05l2.51,2.45s1.09-1.05.5-1.87c-.86-1.18-4.12-3.97-4.12-3.97Z"/>
    <path class="cls-9" d="m323.05,462.16s-3.4,2.95-4.07,3.93c-.58.84.51,1.91.51,1.91l2.57-2.47c0,7.25,5.72,21.19,22.44,20.39,3-.14,3.46-1.63,3.46-2.43,0-.79-.55-2.12-3.02-2.21-8.74-.3-15.29-8.63-15.29-17.62.04-1.54-2.03-1.59-2.03,0,0,10.39,7.91,19.83,17.85,19.93-14.27,1.82-21.32-10.29-21.32-18.05l2.51,2.45s1.09-1.05.5-1.87c-.86-1.18-4.12-3.97-4.12-3.97Z"/>
    <path class="cls-11" d="m264.13,385.85s2.95,3.4,3.93,4.07c.84.58,1.91-.51,1.91-.51l-2.47-2.57c7.25,0,21.19-5.72,20.39-22.44-.14-3-1.63-3.46-2.43-3.46s-2.12.55-2.21,3.02c-.3,8.74-8.63,15.29-17.62,15.29-1.54-.04-1.59,2.03,0,2.03,10.39,0,19.83-7.91,19.93-17.85,1.82,14.27-10.29,21.32-18.05,21.32l2.45-2.51s-1.05-1.09-1.87-.5c-1.18.86-3.97,4.12-3.97,4.12Z"/>
    <path class="cls-9" d="m53.86,355.58s-3.4-2.95-4.07-3.93c-.58-.84.51-1.91.51-1.91l2.57,2.47c0-7.25,5.72-21.19,22.44-20.39,3,.14,3.46,1.63,3.46,2.43s-.55,2.12-3.02,2.21c-8.74.3-15.29,8.63-15.29,17.62.04,1.54-2.03,1.59-2.03,0,0-10.39,7.91-19.83,17.85-19.93-14.27-1.82-21.32,10.29-21.32,18.05l2.51-2.45s1.09,1.05.5,1.87c-.86,1.18-4.12,3.97-4.12,3.97Z"/>
    <path class="cls-11" d="m84.52,131.75s2.95-3.4,3.93-4.07c.84-.58,1.91.51,1.91.51l-2.47,2.57c7.25,0,21.19,5.72,20.39,22.44-.14,3-1.63,3.46-2.43,3.46s-2.12-.55-2.21-3.02c-.3-8.74-8.63-15.29-17.62-15.29-1.54.04-1.59-2.03,0-2.03,10.39,0,19.83,7.91,19.93,17.85,1.82-14.27-10.29-21.32-18.05-21.32l2.45,2.51s-1.05,1.09-1.87.5c-1.18-.86-3.97-4.12-3.97-4.12Z"/>
    <path class="cls-11" d="m106.76,263.04s3.4,2.95,4.07,3.93c.58.84-.51,1.91-.51,1.91l-2.57-2.47c0,7.25-5.72,21.19-22.44,20.39-3-.14-3.46-1.63-3.46-2.43s.55-2.12,3.02-2.21c8.74-.3,15.29-8.63,15.29-17.62-.04-1.54,2.03-1.59,2.03,0,0,10.39-7.91,19.83-17.85,19.93,14.27,1.82,21.32-10.29,21.32-18.05l-2.51,2.45s-1.09-1.05-.5-1.87c.86-1.18,4.12-3.97,4.12-3.97Z"/>
    <path class="cls-11" d="m293.9,267.23s3.4,2.95,4.07,3.93c.58.84-.51,1.91-.51,1.91l-2.57-2.47c0,7.25-5.72,21.19-22.44,20.39-3-.14-3.46-1.63-3.46-2.43s.55-2.12,3.02-2.21c8.74-.3,15.29-8.63,15.29-17.62-.04-1.54,2.03-1.59,2.03,0,0,10.39-7.91,19.83-17.85,19.93,14.27,1.82,21.32-10.29,21.32-18.05l-2.51,2.45s-1.09-1.05-.5-1.87c.86-1.18,4.12-3.97,4.12-3.97Z"/>
    <path class="cls-9" d="m114.26,267.86s3.4,2.95,4.07,3.93c.58.84-.51,1.91-.51,1.91l-2.57-2.47c0,7.25-5.72,21.19-22.44,20.39-3-.14-3.46-1.63-3.46-2.43s.55-2.12,3.02-2.21c8.74-.3,15.29-8.63,15.29-17.62-.04-1.54,2.03-1.59,2.03,0,0,10.39-7.91,19.83-17.85,19.93,14.27,1.82,21.32-10.29,21.32-18.05l-2.51,2.45s-1.09-1.05-.5-1.87c.86-1.18,4.12-3.97,4.12-3.97Z"/>
    <path class="cls-11" d="m264.52,131.75s2.95-3.4,3.93-4.07c.84-.58,1.91.51,1.91.51l-2.47,2.57c7.25,0,21.19,5.72,20.39,22.44-.14,3-1.63,3.46-2.43,3.46s-2.12-.55-2.21-3.02c-.3-8.74-8.63-15.29-17.62-15.29-1.54.04-1.59-2.03,0-2.03,10.39,0,19.83,7.91,19.93,17.85,1.82-14.27-10.29-21.32-18.05-21.32l2.45,2.51s-1.05,1.09-1.87.5c-1.18-.86-3.97-4.12-3.97-4.12Z"/>
    <path class="cls-11" d="m355.2,131.75s2.95-3.4,3.93-4.07c.84-.58,1.91.51,1.91.51l-2.47,2.57c7.25,0,21.19,5.72,20.39,22.44-.14,3-1.63,3.46-2.43,3.46s-2.12-.55-2.21-3.02c-.3-8.74-8.63-15.29-17.62-15.29-1.54.04-1.59-2.03,0-2.03,10.39,0,19.83,7.91,19.93,17.85,1.82-14.27-10.29-21.32-18.05-21.32l2.45,2.51s-1.05,1.09-1.87.5c-1.18-.86-3.97-4.12-3.97-4.12Z"/>
    <path class="cls-11" d="m358.58,326.02s2.95-3.4,3.93-4.07c.84-.58,1.91.51,1.91.51l-2.47,2.57c7.25,0,21.19,5.72,20.39,22.44-.14,3-1.63,3.46-2.43,3.46s-2.12-.55-2.21-3.02c-.3-8.74-8.63-15.29-17.62-15.29-1.54.04-1.59-2.03,0-2.03,10.39,0,19.83,7.91,19.93,17.85,1.82-14.27-10.29-21.32-18.05-21.32l2.45,2.51s-1.05,1.09-1.87.5c-1.18-.86-3.97-4.12-3.97-4.12Z"/>
    <path class="cls-11" d="m535.4,323.54s2.95-3.4,3.93-4.07c.84-.58,1.91.51,1.91.51l-2.47,2.57c7.25,0,21.19,5.72,20.39,22.44-.14,3-1.63,3.46-2.43,3.46s-2.12-.55-2.21-3.02c-.3-8.74-8.63-15.29-17.62-15.29-1.54.04-1.59-2.03,0-2.03,10.39,0,19.83,7.91,19.93,17.85,1.82-14.27-10.29-21.32-18.05-21.32l2.45,2.51s-1.05,1.09-1.87.5c-1.18-.86-3.97-4.12-3.97-4.12Z"/>
    <path class="cls-9" d="m377.37,357s3.4-2.95,4.07-3.93c.58-.84-.51-1.91-.51-1.91l-2.57,2.47c0-7.25-5.72-21.19-22.44-20.39-3,.14-3.46,1.63-3.46,2.43s.55,2.12,3.02,2.21c8.74.3,15.29,8.63,15.29,17.62-.04,1.54,2.03,1.59,2.03,0,0-10.39-7.91-19.83-17.85-19.93,14.27-1.82,21.32,10.29,21.32,18.05l-2.51-2.45s-1.09,1.05-.5,1.87c.86,1.18,4.12,3.97,4.12,3.97Z"/>
    <path class="cls-9" d="m346.26,131.75s-2.95-3.4-3.93-4.07c-.84-.58-1.91.51-1.91.51l2.47,2.57c-7.25,0-21.19,5.72-20.39,22.44.14,3,1.63,3.46,2.43,3.46s2.12-.55,2.21-3.02c.3-8.74,8.63-15.29,17.62-15.29,1.54.04,1.59-2.03,0-2.03-10.39,0-19.83,7.91-19.93,17.85-1.82-14.27,10.29-21.32,18.05-21.32l-2.45,2.51s1.05,1.09,1.87.5c1.18-.86,3.97-4.12,3.97-4.12Z"/>
    <path class="cls-9" d="m76.92,185.74s-2.95,3.4-3.93,4.07c-.84.58-1.91-.51-1.91-.51l2.47-2.57c-7.25,0-21.19-5.72-20.39-22.44.14-3,1.63-3.46,2.43-3.46s2.12.55,2.21,3.02c.3,8.74,8.63,15.29,17.62,15.29,1.54-.04,1.59,2.03,0,2.03-10.39,0-19.83-7.91-19.93-17.85-1.82,14.27,10.29,21.32,18.05,21.32l-2.45-2.51s1.05-1.09,1.87-.5c1.18.86,3.97,4.12,3.97,4.12Z"/>
    <path class="cls-11" d="m535.61,131.34s2.95-3.4,3.93-4.07c.84-.58,1.91.51,1.91.51l-2.47,2.57c7.25,0,21.19,5.72,20.39,22.44-.14,3-1.63,3.46-2.43,3.46s-2.12-.55-2.21-3.02c-.3-8.74-8.63-15.29-17.62-15.29-1.54.04-1.59-2.03,0-2.03,10.39,0,19.83,7.91,19.93,17.85,1.82-14.27-10.29-21.32-18.05-21.32l2.45,2.51s-1.05,1.09-1.87.5c-1.18-.86-3.97-4.12-3.97-4.12Z"/>
    <path class="cls-11" d="m377.43,262.84s3.4,2.95,4.07,3.93c.58.84-.51,1.91-.51,1.91l-2.57-2.47c0,7.25-5.72,21.19-22.44,20.39-3-.14-3.46-1.63-3.46-2.43,0-.79.55-2.12,3.02-2.21,8.74-.3,15.29-8.63,15.29-17.62-.04-1.54,2.03-1.59,2.03,0,0,10.39-7.91,19.83-17.85,19.93,14.27,1.82,21.32-10.29,21.32-18.05l-2.51,2.45s-1.09-1.05-.5-1.87c.86-1.18,4.12-3.97,4.12-3.97Z"/>
    <path class="cls-9" d="m324.01,262.84s-3.4,2.95-4.07,3.93c-.58.84.51,1.91.51,1.91l2.57-2.47c0,7.25,5.72,21.19,22.44,20.39,3-.14,3.46-1.63,3.46-2.43,0-.79-.55-2.12-3.02-2.21-8.74-.3-15.29-8.63-15.29-17.62.04-1.54-2.03-1.59-2.03,0,0,10.39,7.91,19.83,17.85,19.93-14.27,1.82-21.32-10.29-21.32-18.05l2.51,2.45s1.09-1.05.5-1.87c-.86-1.18-4.12-3.97-4.12-3.97Z"/>
    <path class="cls-11" d="m557.84,262.43s3.4,2.95,4.07,3.93c.58.84-.51,1.91-.51,1.91l-2.57-2.47c0,7.25-5.72,21.19-22.44,20.39-3-.14-3.46-1.63-3.46-2.43,0-.79.55-2.12,3.02-2.21,8.74-.3,15.29-8.63,15.29-17.62-.04-1.54,2.03-1.59,2.03,0,0,10.39-7.91,19.83-17.85,19.93,14.27,1.82,21.32-10.29,21.32-18.05l-2.51,2.45s-1.09-1.05-.5-1.87c.86-1.18,4.12-3.97,4.12-3.97Z"/>
    <path class="cls-11" d="m196.88,152.24c-16.77,0-15.27-5.17-15.27-20.09l2.62,2.58s1.09-1.05.5-1.87c-.79-1.08-4.05-3.91-4.05-3.91,0,0-3.26,2.83-4.05,3.91-.59.82.5,1.87.5,1.87l2.62-2.58c0,14.71-2.13,21.41,15.22,22.03-19.53,0-18.81.38-18.81-19.52,0-1.42-1.98-1.5-1.98-.03,0,22.34-.78,21.53,22.7,21.53,2.96,0,3.07-3.92,0-3.92Z"/>
    <path class="cls-9" d="m144.57,165.09c16.77,0,15.27,5.17,15.27,20.09l-2.62-2.58s-1.09,1.05-.5,1.87c.79,1.08,4.05,3.91,4.05,3.91,0,0,3.26-2.83,4.05-3.91.59-.82-.5-1.87-.5-1.87l-2.62,2.58c0-14.71,2.13-21.41-15.22-22.03,19.53,0,18.81-.38,18.81,19.52,0,1.42,1.98,1.5,1.98.03,0-22.34.78-21.53-22.7-21.53-2.96,0-3.07,3.92,0,3.92Z"/>
    <path class="cls-11" d="m184.2,295.19c0-16.77,5.17-15.27,20.09-15.27l-2.58,2.62s1.05,1.09,1.87.5c1.08-.79,3.91-4.05,3.91-4.05,0,0-2.83-3.26-3.91-4.05-.82-.59-1.87.5-1.87.5l2.58,2.62c-14.71,0-21.41-2.13-22.03,15.22,0-19.53-.38-18.81,19.52-18.81,1.42,0,1.5-1.98.03-1.98-22.34,0-21.53-.78-21.53,22.7,0,2.96,3.92,3.07,3.92,0Z"/>
    <path class="cls-11" d="m196.88,365.37c-16.77,0-15.27,5.17-15.27,20.09l2.62-2.58s1.09,1.05.5,1.87c-.79,1.08-4.05,3.91-4.05,3.91,0,0-3.26-2.83-4.05-3.91-.59-.82.5-1.87.5-1.87l2.62,2.58c0-14.71-2.13-21.41,15.22-22.03-19.53,0-18.81-.38-18.81,19.52,0,1.42-1.98,1.5-1.98.03,0-22.34-.78-21.53,22.7-21.53,2.96,0,3.07,3.92,0,3.92Z"/>
    <path class="cls-11" d="m197.47,466.27c-16.77,0-15.27,5.17-15.27,20.09l2.62-2.58s1.09,1.05.5,1.87c-.79,1.08-4.05,3.91-4.05,3.91,0,0-3.26-2.83-4.05-3.91-.59-.82.5-1.87.5-1.87l2.62,2.58c0-14.71-2.13-21.41,15.22-22.03-19.53,0-18.81-.38-18.81,19.52,0,1.42-1.98,1.5-1.98.03,0-22.34-.78-21.53,22.7-21.53,2.96,0,3.07,3.92,0,3.92Z"/>
    <path class="cls-11" d="m196.57,617.5c-16.77,0-15.27-5.17-15.27-20.09l2.62,2.58s1.09-1.05.5-1.87c-.79-1.08-4.05-3.91-4.05-3.91,0,0-3.26,2.83-4.05,3.91-.59.82.5,1.87.5,1.87l2.62-2.58c0,14.71-2.13,21.41,15.22,22.03-19.53,0-18.81.38-18.81-19.52,0-1.42-1.98-1.5-1.98-.03,0,22.34-.78,21.53,22.7,21.53,2.96,0,3.07-3.92,0-3.92Z"/>
    <path class="cls-11" d="m178.22,751.11c0-16.77,5.17-15.27,20.09-15.27l-2.58,2.62s1.05,1.09,1.87.5c1.08-.79,3.91-4.05,3.91-4.05,0,0-2.83-3.26-3.91-4.05-.82-.59-1.87.5-1.87.5l2.58,2.62c-14.71,0-21.41-2.13-22.03,15.22,0-19.53-.38-18.81,19.52-18.81,1.42,0,1.5-1.98.03-1.98-22.34,0-21.53-.78-21.53,22.7,0,2.96,3.92,3.07,3.92,0Z"/>
    <path class="cls-11" d="m343,750.29c0-16.77-5.17-15.27-20.09-15.27l2.58,2.62s-1.05,1.09-1.87.5c-1.08-.79-3.91-4.05-3.91-4.05,0,0,2.83-3.26,3.91-4.05.82-.59,1.87.5,1.87.5l-2.58,2.62c14.71,0,21.41-2.13,22.03,15.22,0-19.53.38-18.81-19.52-18.81-1.42,0-1.5-1.98-.03-1.98,22.34,0,21.53-.78,21.53,22.7,0,2.96-3.92,3.07-3.92,0Z"/>
    <path class="cls-11" d="m357.78,649.99c0-16.77,5.17-15.27,20.09-15.27l-2.58,2.62s1.05,1.09,1.87.5c1.08-.79,3.91-4.05,3.91-4.05,0,0-2.83-3.26-3.91-4.05-.82-.59-1.87.5-1.87.5l2.58,2.62c-14.71,0-21.41-2.13-22.03,15.22,0-19.53-.38-18.81,19.52-18.81,1.42,0,1.5-1.98.03-1.98-22.34,0-21.53-.78-21.53,22.7,0,2.96,3.92,3.07,3.92,0Z"/>
    <path class="cls-11" d="m377.26,466.27c-16.77,0-15.27,5.17-15.27,20.09l2.62-2.58s1.09,1.05.5,1.87c-.79,1.08-4.05,3.91-4.05,3.91,0,0-3.26-2.83-4.05-3.91-.59-.82.5-1.87.5-1.87l2.62,2.58c0-14.71-2.13-21.41,15.22-22.03-19.53,0-18.81-.38-18.81,19.52,0,1.42-1.98,1.5-1.98.03,0-22.34-.78-21.53,22.7-21.53,2.96,0,3.07,3.92,0,3.92Z"/>
    <path class="cls-9" d="m163.11,485.41c0-16.77-5.17-15.27-20.09-15.27l2.58,2.62s-1.05,1.09-1.87.5c-1.08-.79-3.91-4.05-3.91-4.05,0,0,2.83-3.26,3.91-4.05.82-.59,1.87.5,1.87.5l-2.58,2.62c14.71,0,21.41-2.13,22.03,15.22,0-19.53.38-18.81-19.52-18.81-1.42,0-1.5-1.98-.03-1.98,22.34,0,21.53-.78,21.53,22.7,0,2.96-3.92,3.07-3.92,0Z"/>
    <path class="cls-9" d="m253.43,485.41c0-16.77-5.17-15.27-20.09-15.27l2.58,2.62s-1.05,1.09-1.87.5c-1.08-.79-3.91-4.05-3.91-4.05,0,0,2.83-3.26,3.91-4.05.82-.59,1.87.5,1.87.5l-2.58,2.62c14.71,0,21.41-2.13,22.03,15.22,0-19.53.38-18.81-19.52-18.81-1.42,0-1.5-1.98-.03-1.98,22.34,0,21.53-.78,21.53,22.7,0,2.96-3.92,3.07-3.92,0Z"/>
    <path class="cls-9" d="m164.01,332.51c0,16.77-5.17,15.27-20.09,15.27l2.58-2.62s-1.05-1.09-1.87-.5c-1.08.79-3.91,4.05-3.91,4.05,0,0,2.83,3.26,3.91,4.05.82.59,1.87-.5,1.87-.5l-2.58-2.62c14.71,0,21.41,2.13,22.03-15.22,0,19.53.38,18.81-19.52,18.81-1.42,0-1.5,1.98-.03,1.98,22.34,0,21.53.78,21.53-22.7,0-2.96-3.92-3.07-3.92,0Z"/>
    <path class="cls-9" d="m253.43,332.38c0,16.77-5.17,15.27-20.09,15.27l2.58-2.62s-1.05-1.09-1.87-.5c-1.08.79-3.91,4.05-3.91,4.05,0,0,2.83,3.26,3.91,4.05.82.59,1.87-.5,1.87-.5l-2.58-2.62c14.71,0,21.41,2.13,22.03-15.22,0,19.53.38,18.81-19.52,18.81-1.42,0-1.5,1.98-.03,1.98,22.34,0,21.53.78,21.53-22.7,0-2.96-3.92-3.07-3.92,0Z"/>
    <path class="cls-9" d="m447.43,333.43c0,16.77,5.17,15.27,20.09,15.27l-2.58-2.62s1.05-1.09,1.87-.5c1.08.79,3.91,4.05,3.91,4.05,0,0-2.83,3.26-3.91,4.05-.82.59-1.87-.5-1.87-.5l2.58-2.62c-14.71,0-21.41,2.13-22.03-15.22,0,19.53-.38,18.81,19.52,18.81,1.42,0,1.5,1.98.03,1.98-22.34,0-21.53.78-21.53-22.7,0-2.96,3.92-3.07,3.92,0Z"/>
    <path class="cls-9" d="m537.82,333.43c0,16.77,5.17,15.27,20.09,15.27l-2.58-2.62s1.05-1.09,1.87-.5c1.08.79,3.91,4.05,3.91,4.05,0,0-2.83,3.26-3.91,4.05-.82.59-1.87-.5-1.87-.5l2.58-2.62c-14.71,0-21.41,2.13-22.03-15.22,0,19.53-.38,18.81,19.52,18.81,1.42,0,1.5,1.98.03,1.98-22.34,0-21.53.78-21.53-22.7,0-2.96,3.92-3.07,3.92,0Z"/>
    <path class="cls-9" d="m179.27,286.88c0-16.77,5.17-15.27,20.09-15.27l-2.58,2.62s1.05,1.09,1.87.5c1.08-.79,3.91-4.05,3.91-4.05,0,0-2.83-3.26-3.91-4.05-.82-.59-1.87.5-1.87.5l2.58,2.62c-14.71,0-21.41-2.13-22.03,15.22,0-19.53-.38-18.81,19.52-18.81,1.42,0,1.5-1.98.03-1.98-22.34,0-21.53-.78-21.53,22.7,0,2.96,3.92,3.07,3.92,0Z"/>
    <path class="cls-9" d="m267.11,285.55c0-16.77,5.17-15.27,20.09-15.27l-2.58,2.62s1.05,1.09,1.87.5c1.08-.79,3.91-4.05,3.91-4.05,0,0-2.83-3.26-3.91-4.05-.82-.59-1.87.5-1.87.5l2.58,2.62c-14.71,0-21.41-2.13-22.03,15.22,0-19.53-.38-18.81,19.52-18.81,1.42,0,1.5-1.98.03-1.98-22.34,0-21.53-.78-21.53,22.7,0,2.96,3.92,3.07,3.92,0Z"/>
    <path class="cls-9" d="m235.07,165.09c16.77,0,15.27,5.17,15.27,20.09l-2.62-2.58s-1.09,1.05-.5,1.87c.79,1.08,4.05,3.91,4.05,3.91,0,0,3.26-2.83,4.05-3.91.59-.82-.5-1.87-.5-1.87l-2.62,2.58c0-14.71,2.13-21.41-15.22-22.03,19.53,0,18.81-.38,18.81,19.52,0,1.42,1.98,1.5,1.98.03,0-22.34.78-21.53-22.7-21.53-2.96,0-3.07,3.92,0,3.92Z"/>
    <path class="cls-9" d="m412.65,150.97c16.77,0,15.27-5.17,15.27-20.09l-2.62,2.58s-1.09-1.05-.5-1.87c.79-1.08,4.05-3.91,4.05-3.91,0,0,3.26,2.83,4.05,3.91.59.82-.5,1.87-.5,1.87l-2.62-2.58c0,14.71,2.13,21.41-15.22,22.03,19.53,0,18.81.38,18.81-19.52,0-1.42,1.98-1.5,1.98-.03,0,22.34.78,21.53-22.7,21.53-2.96,0-3.07-3.92,0-3.92Z"/>
    <path class="cls-11" d="m468.8,150.97c-16.77,0-15.27-5.17-15.27-20.09l2.62,2.58s1.09-1.05.5-1.87c-.79-1.08-4.05-3.91-4.05-3.91,0,0-3.26,2.83-4.05,3.91-.59.82.5,1.87.5,1.87l2.62-2.58c0,14.71-2.13,21.41,15.22,22.03-19.53,0-18.81.38-18.81-19.52,0-1.42-1.98-1.5-1.98-.03,0,22.34-.78,21.53,22.7,21.53,2.96,0,3.07-3.92,0-3.92Z"/>
    <path class="cls-11" d="m447.92,284.96c0-16.77,5.17-15.27,20.09-15.27l-2.58,2.62s1.05,1.09,1.87.5c1.08-.79,3.91-4.05,3.91-4.05,0,0-2.83-3.26-3.91-4.05-.82-.59-1.87.5-1.87.5l2.58,2.62c-14.71,0-21.41-2.13-22.03,15.22,0-19.53-.38-18.81,19.52-18.81,1.42,0,1.5-1.98.03-1.98-22.34,0-21.53-.78-21.53,22.7,0,2.96,3.92,3.07,3.92,0Z"/>
    <path class="cls-9" d="m433.52,284.96c0-16.77-5.17-15.27-20.09-15.27l2.58,2.62s-1.05,1.09-1.87.5c-1.08-.79-3.91-4.05-3.91-4.05,0,0,2.83-3.26,3.91-4.05.82-.59,1.87.5,1.87.5l-2.58,2.62c14.71,0,21.41-2.13,22.03,15.22,0-19.53.38-18.81-19.52-18.81-1.42,0-1.5-1.98-.03-1.98,22.34,0,21.53-.78,21.53,22.7,0,2.96-3.92,3.07-3.92,0Z"/>
    <path class="cls-9" d="m523.16,284.96c0-16.77-5.17-15.27-20.09-15.27l2.58,2.62s-1.05,1.09-1.87.5c-1.08-.79-3.91-4.05-3.91-4.05,0,0,2.83-3.26,3.91-4.05.82-.59,1.87.5,1.87.5l-2.58,2.62c14.71,0,21.41-2.13,22.03,15.22,0-19.53.38-18.81-19.52-18.81-1.42,0-1.5-1.98-.03-1.98,22.34,0,21.53-.78,21.53,22.7,0,2.96-3.92,3.07-3.92,0Z"/>
    <path class="cls-9" d="m502.65,150.97c16.77,0,15.27-5.17,15.27-20.09l-2.62,2.58s-1.09-1.05-.5-1.87c.79-1.08,4.05-3.91,4.05-3.91,0,0,3.26,2.83,4.05,3.91.59.82-.5,1.87-.5,1.87l-2.62-2.58c0,14.71,2.13,21.41-15.22,22.03,19.53,0,18.81.38,18.81-19.52,0-1.42,1.98-1.5,1.98-.03,0,22.34.78,21.53-22.7,21.53-2.96,0-3.07-3.92,0-3.92Z"/>
  </g>
  <g>
    <rect class="cls-9" x="68.22" y="171.73" width="25" height="2.5" rx=".99" ry=".99" transform="translate(-92.26 253.7) rotate(-90)"/>
    <rect class="cls-11" x="68.22" y="143.1" width="25" height="2.5" rx=".99" ry=".99" transform="translate(225.07 63.63) rotate(90)"/>
    <rect class="cls-9" x="53.91" y="357.41" width="25" height="2.5" rx=".99" ry=".99"/>
    <rect class="cls-11" x="68.22" y="371.73" width="25" height="2.5" rx=".99" ry=".99" transform="translate(-292.26 453.7) rotate(-90)"/>
    <rect class="cls-9" x="143.91" y="357.41" width="25" height="2.5" rx=".99" ry=".99"/>
    <rect class="cls-11" x="158.22" y="371.73" width="25" height="2.5" rx=".99" ry=".99" transform="translate(-202.26 543.7) rotate(-90)"/>
    <rect class="cls-9" x="233.91" y="357.41" width="25" height="2.5" rx=".99" ry=".99"/>
    <rect class="cls-11" x="248.22" y="371.73" width="25" height="2.5" rx=".99" ry=".99" transform="translate(-112.26 633.7) rotate(-90)"/>
    <rect class="cls-9" x="53.91" y="457.41" width="25" height="2.5" rx=".99" ry=".99"/>
    <rect class="cls-11" x="68.22" y="471.73" width="25" height="2.5" rx=".99" ry=".99" transform="translate(-392.26 553.7) rotate(-90)"/>
    <rect class="cls-9" x="143.91" y="457.41" width="25" height="2.5" rx=".99" ry=".99"/>
    <rect class="cls-11" x="158.22" y="471.73" width="25" height="2.5" rx=".99" ry=".99" transform="translate(-302.26 643.7) rotate(-90)"/>
    <rect class="cls-9" x="233.91" y="457.41" width="25" height="2.5" rx=".99" ry=".99"/>
    <rect class="cls-11" x="248.22" y="471.73" width="25" height="2.5" rx=".99" ry=".99" transform="translate(-212.26 733.7) rotate(-90)"/>
    <rect class="cls-9" x="323.91" y="457.41" width="25" height="2.5" rx=".99" ry=".99"/>
    <rect class="cls-11" x="338.22" y="471.73" width="25" height="2.5" rx=".99" ry=".99" transform="translate(-122.26 823.7) rotate(-90)"/>
    <rect class="cls-11" x="68.22" y="608.65" width="25" height="2.5" rx=".99" ry=".99" transform="translate(690.62 529.17) rotate(90)"/>
    <rect class="cls-9" x="53.91" y="622.96" width="25" height="2.5" rx=".99" ry=".99"/>
    <rect class="cls-11" x="262.53" y="622.96" width="25" height="2.5" rx=".99" ry=".99" transform="translate(550.07 1248.42) rotate(180)"/>
    <rect class="cls-11" x="352.53" y="622.96" width="25" height="2.5" rx=".99" ry=".99" transform="translate(730.07 1248.42) rotate(180)"/>
    <rect class="cls-9" x="262.53" y="722.96" width="25" height="2.5" rx=".99" ry=".99" transform="translate(550.07 1448.42) rotate(180)"/>
    <rect class="cls-11" x="233.91" y="722.96" width="25" height="2.5" rx=".99" ry=".99"/>
    <rect class="cls-9" x="352.53" y="722.96" width="25" height="2.5" rx=".99" ry=".99" transform="translate(730.07 1448.42) rotate(180)"/>
    <rect class="cls-11" x="323.91" y="722.96" width="25" height="2.5" rx=".99" ry=".99"/>
    <rect class="cls-9" x="248.22" y="637.27" width="25" height="2.5" rx=".99" ry=".99" transform="translate(-377.8 899.24) rotate(-90)"/>
    <rect class="cls-9" x="338.22" y="637.27" width="25" height="2.5" rx=".99" ry=".99" transform="translate(-287.8 989.24) rotate(-90)"/>
    <rect class="cls-11" x="158.22" y="608.65" width="25" height="2.5" rx=".99" ry=".99" transform="translate(780.62 439.17) rotate(90)"/>
    <rect class="cls-9" x="143.91" y="622.96" width="25" height="2.5" rx=".99" ry=".99"/>
    <rect class="cls-9" x="352.53" y="357.41" width="25" height="2.5" rx=".99" ry=".99" transform="translate(730.07 717.33) rotate(-180)"/>
    <rect class="cls-11" x="338.22" y="343.1" width="25" height="2.5" rx=".99" ry=".99" transform="translate(695.07 -6.37) rotate(90)"/>
    <rect class="cls-9" x="442.53" y="357.41" width="25" height="2.5" rx=".99" ry=".99" transform="translate(910.07 717.33) rotate(-180)"/>
    <rect class="cls-11" x="428.22" y="343.1" width="25" height="2.5" rx=".99" ry=".99" transform="translate(785.07 -96.37) rotate(90)"/>
    <rect class="cls-9" x="532.53" y="357.41" width="25" height="2.5" rx=".99" ry=".99" transform="translate(1090.07 717.33) rotate(-180)"/>
    <rect class="cls-11" x="518.22" y="343.1" width="25" height="2.5" rx=".99" ry=".99" transform="translate(875.07 -186.37) rotate(90)"/>
    <rect class="cls-9" x="158.22" y="171.73" width="25" height="2.5" rx=".99" ry=".99" transform="translate(-2.26 343.7) rotate(-90)"/>
    <rect class="cls-11" x="158.22" y="143.1" width="25" height="2.5" rx=".99" ry=".99" transform="translate(315.07 -26.37) rotate(90)"/>
    <rect class="cls-9" x="248.22" y="171.73" width="25" height="2.5" rx=".99" ry=".99" transform="translate(87.74 433.7) rotate(-90)"/>
    <rect class="cls-11" x="352.53" y="257.41" width="25" height="2.5" rx=".99" ry=".99" transform="translate(730.07 517.33) rotate(-180)"/>
    <rect class="cls-9" x="323.91" y="257.41" width="25" height="2.5" rx=".99" ry=".99"/>
    <rect class="cls-11" x="442.53" y="257.41" width="25" height="2.5" rx=".99" ry=".99" transform="translate(910.07 517.33) rotate(-180)"/>
    <rect class="cls-9" x="413.91" y="257.41" width="25" height="2.5" rx=".99" ry=".99"/>
    <rect class="cls-11" x="532.53" y="257.41" width="25" height="2.5" rx=".99" ry=".99" transform="translate(1090.07 517.33) rotate(-180)"/>
    <rect class="cls-9" x="503.91" y="257.41" width="25" height="2.5" rx=".99" ry=".99"/>
    <rect class="cls-11" x="248.22" y="143.1" width="25" height="2.5" rx=".99" ry=".99" transform="translate(405.07 -116.37) rotate(90)"/>
    <rect class="cls-11" x="82.53" y="259.41" width="25" height="2.5" rx=".99" ry=".99"/>
    <rect class="cls-9" x="82.53" y="255.41" width="25" height="2.5" rx=".99" ry=".99"/>
    <rect class="cls-11" x="340.22" y="143.1" width="25" height="2.5" rx=".99" ry=".99" transform="translate(208.37 497.07) rotate(-90)"/>
    <rect class="cls-9" x="336.22" y="143.1" width="25" height="2.5" rx=".99" ry=".99" transform="translate(204.37 493.07) rotate(-90)"/>
    <rect class="cls-11" x="430.22" y="143.1" width="25" height="2.5" rx=".99" ry=".99" transform="translate(298.37 587.07) rotate(-90)"/>
    <rect class="cls-9" x="426.22" y="143.1" width="25" height="2.5" rx=".99" ry=".99" transform="translate(294.37 583.07) rotate(-90)"/>
    <rect class="cls-11" x="520.22" y="143.1" width="25" height="2.5" rx=".99" ry=".99" transform="translate(388.37 677.07) rotate(-90)"/>
    <rect class="cls-9" x="516.22" y="143.1" width="25" height="2.5" rx=".99" ry=".99" transform="translate(384.37 673.07) rotate(-90)"/>
    <rect class="cls-11" x="172.53" y="259.41" width="25" height="2.5" rx=".99" ry=".99"/>
    <rect class="cls-9" x="172.53" y="255.41" width="25" height="2.5" rx=".99" ry=".99"/>
    <rect class="cls-11" x="82.53" y="724.46" width="25" height="2.5" rx=".99" ry=".99"/>
    <rect class="cls-9" x="82.53" y="720.46" width="25" height="2.5" rx=".99" ry=".99"/>
    <rect class="cls-11" x="172.53" y="724.46" width="25" height="2.5" rx=".99" ry=".99"/>
    <rect class="cls-9" x="172.53" y="720.46" width="25" height="2.5" rx=".99" ry=".99"/>
    <rect class="cls-11" x="262.53" y="259.41" width="25" height="2.5" rx=".99" ry=".99"/>
    <rect class="cls-9" x="262.53" y="255.41" width="25" height="2.5" rx=".99" ry=".99"/>
  </g>
  <g>
    <text class="cls-5" transform="translate(241.68 551.38)"><tspan class="cls-4"><tspan x="0" y="0">Type 2  2</tspan></tspan><tspan class="cls-10" x="31.7" y="30">S </tspan><tspan class="cls-4" x="49.73" y="30"> </tspan><tspan class="cls-10" x="76.18" y="30">S</tspan></text>
    <text transform="translate(208.64 37.55)"><tspan class="cls-2"><tspan x="0" y="0">Full-Reversal</tspan></tspan><tspan class="cls-1"><tspan x="35.75" y="30">Type 1  1</tspan></tspan><tspan class="cls-5"><tspan class="cls-8" x="43.09" y="60">D</tspan><tspan class="cls-3" x="60.06" y="60">-</tspan><tspan class="cls-10" x="67.45" y="60">S </tspan><tspan class="cls-4" x="85.48" y="60"> </tspan><tspan class="cls-8" x="111.94" y="60">D</tspan><tspan class="cls-3" x="128.9" y="60">-</tspan><tspan class="cls-10" x="136.3" y="60">S</tspan></tspan></text>
  </g>
</svg>