<?xml version="1.0" encoding="UTF-8"?>
<svg id="Layer_1" data-name="Layer 1" xmlns="http://www.w3.org/2000/svg" viewBox="0 0 612 792">
  <defs>
    <style>
      .cls-1 {
        stroke-width: 3px;
      }

      .cls-1, .cls-2 {
        fill: none;
        stroke: #231f20;
        stroke-miterlimit: 10;
      }

      .cls-3 {
        fill: #00aeef;
      }

      .cls-4 {
        font-family: MonotypeCorsiva, 'Monotype Corsiva';
        font-size: 45px;
      }

      .cls-4, .cls-5, .cls-6, .cls-7 {
        fill: #231f20;
      }

      .cls-5 {
        font-family: Georgia, Georgia;
        font-size: 60px;
      }

      .cls-8 {
        fill: #2e3192;
      }

      .cls-2 {
        stroke-width: 2px;
      }

      .cls-9 {
        font-family: Cambria-BoldItalic, Cambria;
        font-size: 30px;
        font-style: italic;
        font-weight: 700;
      }

      .cls-6 {
        letter-spacing: -.03em;
      }

      .cls-10 {
        fill: #7f3f98;
      }

      .cls-11 {
        fill: #ed1c24;
      }
    </style>
  </defs>
  <path class="cls-8" d="m443.47,83.28c.08,1.07.58,3.88-.03,5.21-.26.56-1.15.64-1.65,1.07l-.49-5.3-22.01,22.01c-.45.45-1.17.45-1.61,0h0c-.45-.45-.45-1.17,0-1.62l22.04-22.02-5.14.51c.17-.7.39-1.42.82-1.71,1.22-.82,4.34-.88,5.1-.84.73.04,2.21.23,2.4.26"/>
  <path class="cls-8" d="m404.59,91.14c-.08-1.07-.58-3.88.03-5.21.26-.56,1.15-.64,1.65-1.07l.49,5.3,22.01-22.01c.45-.45,1.17-.45,1.61,0h0c.45.45.45,1.17,0,1.62l-22.04,22.02,5.14-.51c-.17.7-.39,1.42-.82,1.71-1.22.82-4.34.88-5.1.84s-2.21-.23-2.4-.26"/>
  <path class="cls-11" d="m427.96,106.65c-1.07.08-3.88.58-5.21-.03-.56-.26-.64-1.15-1.07-1.65l5.3-.49-22.01-22.01c-.45-.45-.45-1.17,0-1.61h0c.45-.45,1.17-.45,1.62,0l22.02,22.04-.51-5.14c.7.17,1.42.39,1.71.82.82,1.22.88,4.34.84,5.1s-.23,2.21-.26,2.4"/>
  <path class="cls-11" d="m420.1,67.77c1.07-.08,3.88-.58,5.21.03.56.26.64,1.15,1.07,1.65l-5.3.49,22.01,22.01c.45.45.45,1.17,0,1.61h0c-.45.45-1.17.45-1.62,0l-22.02-22.04.51,5.14c-.7-.17-1.42-.39-1.71-.82-.82-1.22-.88-4.34-.84-5.1.04-.73.23-2.21.26-2.4"/>
  <g>
    <path class="cls-7" d="m341.8,88.46c1.61,0,1.61-2.5,0-2.5s-1.61,2.5,0,2.5h0Z"/>
    <g>
      <path class="cls-7" d="m341.8,125.77c3.22,0,3.22-5,0-5s-3.22,5,0,5h0Z"/>
      <path class="cls-7" d="m377.86,89.71c3.22,0,3.22-5,0-5s-3.22,5,0,5h0Z"/>
      <path class="cls-7" d="m341.8,53.65c3.22,0,3.22-5,0-5s-3.22,5,0,5h0Z"/>
      <path class="cls-7" d="m305.73,89.71c3.22,0,3.22-5,0-5s-3.22,5,0,5h0Z"/>
    </g>
  </g>
  <g>
    <path class="cls-7" d="m424.03,88.46c1.61,0,1.61-2.5,0-2.5s-1.61,2.5,0,2.5h0Z"/>
    <g>
      <path class="cls-7" d="m449.53,115.21c3.22,0,3.22-5,0-5s-3.22,5,0,5h0Z"/>
      <path class="cls-7" d="m398.53,115.21c3.22,0,3.22-5,0-5s-3.22,5,0,5h0Z"/>
      <path class="cls-7" d="m398.53,64.21c3.22,0,3.22-5,0-5s-3.22,5,0,5h0Z"/>
      <path class="cls-7" d="m449.53,64.21c3.22,0,3.22-5,0-5s-3.22,5,0,5h0Z"/>
    </g>
  </g>
  <g>
    <path class="cls-7" d="m177.33,88.53c1.61,0,1.61-2.5,0-2.5s-1.61,2.5,0,2.5h0Z"/>
    <g>
      <path class="cls-7" d="m177.33,125.85c3.22,0,3.22-5,0-5s-3.22,5,0,5h0Z"/>
      <path class="cls-7" d="m213.39,89.78c3.22,0,3.22-5,0-5s-3.22,5,0,5h0Z"/>
      <path class="cls-7" d="m177.33,53.72c3.22,0,3.22-5,0-5s-3.22,5,0,5h0Z"/>
      <path class="cls-7" d="m141.27,89.78c3.22,0,3.22-5,0-5s-3.22,5,0,5h0Z"/>
    </g>
  </g>
  <g>
    <path class="cls-7" d="m259.56,88.53c1.61,0,1.61-2.5,0-2.5s-1.61,2.5,0,2.5h0Z"/>
    <g>
      <path class="cls-7" d="m285.06,64.28c3.22,0,3.22-5,0-5s-3.22,5,0,5h0Z"/>
      <path class="cls-7" d="m285.06,115.28c3.22,0,3.22-5,0-5s-3.22,5,0,5h0Z"/>
      <path class="cls-7" d="m234.06,115.28c3.22,0,3.22-5,0-5s-3.22,5,0,5h0Z"/>
      <path class="cls-7" d="m234.06,64.28c3.22,0,3.22-5,0-5s-3.22,5,0,5h0Z"/>
    </g>
  </g>
  <rect class="cls-11" x="326.75" y="102.85" width="29.95" height="3.08" rx="1.17" ry="1.17" transform="translate(446.11 -237.34) rotate(90)"/>
  <rect class="cls-8" x="344.1" y="85.6" width="29.95" height="3.08" rx="1.17" ry="1.17"/>
  <rect class="cls-11" x="326.89" y="68.5" width="29.95" height="3.08" rx="1.17" ry="1.17" transform="translate(271.83 411.91) rotate(-90)"/>
  <rect class="cls-8" x="309.53" y="85.75" width="29.95" height="3.08" rx="1.17" ry="1.17" transform="translate(649.02 174.57) rotate(-180)"/>
  <rect class="cls-11" x="162.28" y="102.92" width="29.95" height="3.08" rx="1.17" ry="1.17" transform="translate(281.72 -72.8) rotate(90)"/>
  <rect class="cls-8" x="179.64" y="85.67" width="29.95" height="3.08" rx="1.17" ry="1.17"/>
  <rect class="cls-11" x="162.43" y="68.57" width="29.95" height="3.08" rx="1.17" ry="1.17" transform="translate(107.3 247.51) rotate(-90)"/>
  <rect class="cls-8" x="145.07" y="85.82" width="29.95" height="3.08" rx="1.17" ry="1.17" transform="translate(320.09 174.71) rotate(-180)"/>
  <rect class="cls-11" x="256.63" y="98" width="29.95" height="3.08" rx="1.17" ry="1.17" transform="translate(149.93 -162.9) rotate(45)"/>
  <rect class="cls-8" x="256.71" y="73.52" width="29.95" height="3.08" rx="1.17" ry="1.17" transform="translate(26.5 214.09) rotate(-45)"/>
  <rect class="cls-11" x="232.44" y="73.6" width="29.95" height="3.08" rx="1.17" ry="1.17" transform="translate(369.24 303.22) rotate(-135)"/>
  <rect class="cls-8" x="232.36" y="98.07" width="29.95" height="3.08" rx="1.17" ry="1.17" transform="translate(492.67 -4.85) rotate(135)"/>
  <rect class="cls-11" x="421.25" y="97.77" width="29.95" height="3.08" rx="1.17" ry="1.17" transform="translate(197.99 -279.37) rotate(45)"/>
  <rect class="cls-8" x="396.78" y="97.84" width="29.95" height="3.08" rx="1.17" ry="1.17" transform="translate(773.19 -121.5) rotate(135)"/>
  <rect class="cls-11" x="396.85" y="73.58" width="29.95" height="3.08" rx="1.17" ry="1.17" transform="translate(649.92 419.44) rotate(-135)"/>
  <rect class="cls-8" x="421.33" y="73.5" width="29.95" height="3.08" rx="1.17" ry="1.17" transform="translate(74.73 330.49) rotate(-45)"/>
  <path class="cls-11" d="m348.55,122.87c0-4.75-.36-5.93,1.76-8.05,2.12-2.12,5.44-1.74,6.58-1.58-.19-1.25-.69-4.88,1.36-6.92,1.99-1.99,5.33-1.23,6.55-.99-.21-1.03-.64-3.87.9-5.9,1.71-2.26,4.71-2.95,8.39-2.95l-3.51-3.36.3-.18c.54-.33,1.1-.62,1.59-.51.96.2,5.39,5.42,5.39,5.42,0,0-4.61,4.96-5.17,5.24-.51.26-1.52-.19-1.91-.42l-.29-.2.25-.25c.11-.12,2.27-1.94,3.4-3.34-.4-.02-1.49.08-1.85.09-2.35.1-4.2.73-4.94,2.01-.91,1.54-.4,4.06,1.07,7.08l.36.71-.74-.31c-.06-.02-5.99-2.47-8.17-.26-1.27,1.27-1.07,3.91.6,7.83l.23.55-.57-.14c-2.54-.6-6.64-1.72-8.25.17-1.61,1.9-1.04,5.1-.99,6.03.04.94-.3,1.57-1.13,1.61s-1.21-.34-1.21-1.39Z"/>
  <path class="cls-8" d="m348.55,51.56c0,4.75-.36,5.93,1.76,8.05,2.12,2.12,5.44,1.74,6.58,1.58-.19,1.25-.69,4.88,1.36,6.92,1.99,1.99,5.33,1.23,6.55.99-.21,1.03-.64,3.87.9,5.9,1.71,2.26,4.71,2.95,8.39,2.95l-3.51,3.36.3.18c.54.33,1.1.62,1.59.51.96-.2,5.39-5.42,5.39-5.42,0,0-4.61-4.96-5.17-5.24-.51-.26-1.52.19-1.91.42l-.29.2.25.25c.11.12,2.27,1.94,3.4,3.34-.4.02-1.49-.08-1.85-.09-2.35-.1-4.2-.73-4.94-2.01-.91-1.54-.4-4.06,1.07-7.08l.36-.71-.74.31c-.06.02-5.99,2.47-8.17.26-1.27-1.27-1.07-3.91.6-7.83l.23-.55-.57.14c-2.54.6-6.64,1.72-8.25-.17-1.61-1.9-1.04-5.1-.99-6.03.04-.94-.3-1.57-1.13-1.61s-1.21.34-1.21,1.39Z"/>
  <path class="cls-8" d="m348.55,51.56c0,4.75-.36,5.93,1.76,8.05s5.44,1.74,6.58,1.58c-.19,1.25-.69,4.88,1.36,6.92,1.99,1.99,5.33,1.23,6.55.99-.21,1.03-.64,3.87.9,5.9,1.71,2.26,4.71,2.95,8.39,2.95l-3.51,3.36.3.18c.54.33,1.1.62,1.59.51.96-.2,5.39-5.42,5.39-5.42,0,0-4.61-4.96-5.17-5.24-.51-.26-1.52.19-1.91.42l-.29.2.25.25c.11.12,2.27,1.94,3.4,3.34-.4.02-1.49-.08-1.85-.09-2.35-.1-4.2-.73-4.94-2.01-.91-1.54-.4-4.06,1.07-7.08l.36-.71-.74.31c-.06.02-5.99,2.47-8.17.26-1.27-1.27-1.07-3.91.6-7.83l.23-.55-.57.14c-2.54.6-6.64,1.72-8.25-.17-1.61-1.9-1.04-5.1-.99-6.03.04-.94-.3-1.57-1.13-1.61s-1.21.34-1.21,1.39Z"/>
  <path class="cls-11" d="m348.55,122.87c0-4.75-.36-5.93,1.76-8.05,2.12-2.12,5.44-1.74,6.58-1.58-.19-1.25-.69-4.88,1.36-6.92,1.99-1.99,5.33-1.23,6.55-.99-.21-1.03-.64-3.87.9-5.9,1.71-2.26,4.71-2.95,8.39-2.95l-3.51-3.36.3-.18c.54-.33,1.1-.62,1.59-.51.96.2,5.39,5.42,5.39,5.42,0,0-4.61,4.96-5.17,5.24-.51.26-1.52-.19-1.91-.42l-.29-.2.25-.25c.11-.12,2.27-1.94,3.4-3.34-.4-.02-1.49.08-1.85.09-2.35.1-4.2.73-4.94,2.01-.91,1.54-.4,4.06,1.07,7.08l.36.71-.74-.31c-.06-.02-5.99-2.47-8.17-.26-1.27,1.27-1.07,3.91.6,7.83l.23.55-.57-.14c-2.54-.6-6.64-1.72-8.25.17-1.61,1.9-1.04,5.1-.99,6.03.04.94-.3,1.57-1.13,1.61s-1.21-.34-1.21-1.39Z"/>
  <path class="cls-11" d="m335.05,51.56c0,4.75.36,5.93-1.76,8.05-2.12,2.12-5.44,1.74-6.58,1.58.19,1.25.69,4.88-1.36,6.92-1.99,1.99-5.33,1.23-6.55.99.21,1.03.64,3.87-.9,5.9-1.71,2.26-4.71,2.95-8.39,2.95l3.51,3.36-.3.18c-.54.33-1.1.62-1.59.51-.96-.2-5.39-5.42-5.39-5.42,0,0,4.61-4.96,5.17-5.24.51-.26,1.52.19,1.91.42l.29.2-.25.25c-.11.12-2.27,1.94-3.4,3.34.4.02,1.49-.08,1.85-.09,2.35-.1,4.2-.73,4.94-2.01.91-1.54.4-4.06-1.07-7.08l-.36-.71.74.31c.06.02,5.99,2.47,8.17.26,1.27-1.27,1.07-3.91-.6-7.83l-.23-.55.57.14c2.54.6,6.64,1.72,8.25-.17,1.61-1.9,1.04-5.1.99-6.03-.04-.94.3-1.57,1.13-1.61.83-.04,1.21.34,1.21,1.39Z"/>
  <path class="cls-8" d="m335.05,122.87c0-4.75.36-5.93-1.76-8.05-2.12-2.12-5.44-1.74-6.58-1.58.19-1.25.69-4.88-1.36-6.92-1.99-1.99-5.33-1.23-6.55-.99.21-1.03.64-3.87-.9-5.9-1.71-2.26-4.71-2.95-8.39-2.95l3.51-3.36-.3-.18c-.54-.33-1.1-.62-1.59-.51-.96.2-5.39,5.42-5.39,5.42,0,0,4.61,4.96,5.17,5.24.51.26,1.52-.19,1.91-.42l.29-.2-.25-.25c-.11-.12-2.27-1.94-3.4-3.34.4-.02,1.49.08,1.85.09,2.35.1,4.2.73,4.94,2.01.91,1.54.4,4.06-1.07,7.08l-.36.71.74-.31c.06-.02,5.99-2.47,8.17-.26,1.27,1.27,1.07,3.91-.6,7.83l-.23.55.57-.14c2.54-.6,6.64-1.72,8.25.17s1.04,5.1.99,6.03c-.04.94.3,1.57,1.13,1.61s1.21-.34,1.21-1.39Z"/>
  <path class="cls-11" d="m153.76,90.43s-.89-1.36-1.86-.63c-1.37,1.04-4.62,5.18-4.62,5.18,0,0,4,4.84,5.27,5.4.56.25,1.19-1.32,1.19-1.32l-2.6-3.23c10.08-.98,9.64,4.31,7.6,12.22,6.25-2.44,14.18-4.39,13.78,10.28.08.82.61,1,.89,1s.93-.31.96-1.06c.8-9.91-3.36-15.94-12.41-13.63.11-8.76-1.12-10.92-10.82-11.1"/>
  <path class="cls-8" d="m153.76,84.28s-.89,1.36-1.86.63c-1.37-1.04-4.62-5.18-4.62-5.18,0,0,4-4.84,5.27-5.4.56-.25,1.19,1.32,1.19,1.32l-2.6,3.23c10.08.98,9.64-4.31,7.6-12.22,6.25,2.44,14.18,4.39,13.78-10.28.08-.82.61-1,.89-1s.93.31.96,1.06c.8,9.91-3.36,15.94-12.41,13.63.11,8.76-1.12,10.92-10.82,11.1"/>
  <path class="cls-8" d="m200.9,90.43s.89-1.36,1.86-.63c1.37,1.04,4.62,5.18,4.62,5.18,0,0-4,4.84-5.27,5.4-.56.25-1.19-1.32-1.19-1.32l2.6-3.23c-10.08-.98-9.64,4.31-7.6,12.22-6.25-2.44-14.18-4.39-13.78,10.28-.08.82-.61,1-.89,1s-.93-.31-.96-1.06c-.8-9.91,3.36-15.94,12.41-13.63-.11-8.76,1.12-10.92,10.82-11.1"/>
  <path class="cls-11" d="m200.9,84.28s.89,1.36,1.86.63c1.37-1.04,4.62-5.18,4.62-5.18,0,0-4-4.84-5.27-5.4-.56-.25-1.19,1.32-1.19,1.32l2.6,3.23c-10.08.98-9.64-4.31-7.6-12.22-6.25,2.44-14.18,4.39-13.78-10.28-.08-.82-.61-1-.89-1s-.93.31-.96,1.06c-.8,9.91,3.36,15.94,12.41,13.63-.11,8.76,1.12,10.92,10.82,11.1"/>
  <path class="cls-8" d="m232.13,69.51c.34,1.02,1.35,3.24.82,4.6-.23.57-.78.84-1.49,1.07l-1.21-4.77c-8.4,13.24,6.94,25.57,18.81,16.52.71-.55,1.72-.52,2.09.05.32.5.44,1.15-.5,1.84-14.82,10.81-31.95-4.82-22.42-19.6l-4.49,1.34c-.19-.86-.43-1.12.31-1.87.65-.66,3.35-1.7,4.54-1.81,1.62-.15,2.18-.14,2.37-.12"/>
  <path class="cls-8" d="m444.05,115.28c.29-.28.72-.99.18-1.69-.04-.04-.07-.08-.1-.12-.55-.55-1.38-.29-1.76-.05-6.13,5.49-11.03,6.85-15.42,4.29,1.8-1.55,2.7-4.41,2.05-6.74-.53-1.89-1.97-3.04-3.95-3.2-2,0-3.48,1.01-4.08,2.83-.78,2.36.09,5.44,1.96,7.08-4.8,2.83-11.06-.96-13.59-2.77l-1.49-1.26,4.81-.48-.12-.34c-.2-.59-.44-1.17-.88-1.42-.81-.44-2.68-.13-4.6.26-.25.05-.44.09-.55.11-.46.06-1.27.24-1.65.33l-.42.08-.12,1.36c-.03.39-.15,5.2.29,5.96.21.38.74.6,1.59.68l.37.03-.05-.37c0-.16-.26-2.68-.2-4.43l1.35,1.15c4.61,3.69,11.89,6.59,17.35,2.79,5.69,4.45,13.86,1.34,19.05-4.08Zm-19.53.53c-1.48-1.48-1.61-3.1-1.18-4.22.37-.94.95-1.56,1.68-1.5.81.08,1.62.99,1.93,2.51.03,1.27-.52,2.31-1.93,3.66-.18-.15-.34-.29-.49-.44Z"/>
  <path class="cls-11" d="m395.96,107.23c.28.29.99.72,1.69.18.04-.04.08-.07.12-.1.55-.55.29-1.38.05-1.76-5.49-6.13-6.85-11.03-4.29-15.42,1.55,1.8,4.41,2.7,6.74,2.05,1.89-.53,3.04-1.97,3.2-3.95,0-2-1.01-3.48-2.83-4.08-2.36-.78-5.44.09-7.08,1.96-2.83-4.8.96-11.06,2.77-13.59l1.26-1.49.48,4.81.34-.12c.59-.2,1.17-.44,1.42-.88.44-.81.13-2.68-.26-4.6-.05-.25-.09-.44-.11-.55-.06-.46-.24-1.27-.33-1.65l-.08-.42-1.36-.12c-.39-.03-5.2-.15-5.96.29-.38.21-.6.74-.68,1.59l-.03.37.37-.05c.16,0,2.68-.26,4.43-.2l-1.15,1.35c-3.69,4.61-6.59,11.89-2.79,17.35-4.45,5.69-1.34,13.86,4.08,19.05Zm-.53-19.53c1.48-1.48,3.1-1.61,4.22-1.18.94.37,1.56.95,1.5,1.68-.08.81-.99,1.62-2.51,1.93-1.27.03-2.31-.52-3.66-1.93.15-.18.29-.34.44-.49Z"/>
  <path class="cls-8" d="m404.01,59.15c-.29.28-.72.99-.18,1.69.04.04.07.08.1.12.55.55,1.38.29,1.76.05,6.13-5.49,11.03-6.85,15.42-4.29-1.8,1.55-2.7,4.41-2.05,6.74.53,1.89,1.97,3.04,3.95,3.2,2,0,3.48-1.01,4.08-2.83.78-2.36-.09-5.44-1.96-7.08,4.8-2.83,11.06.96,13.59,2.77l1.49,1.26-4.81.48.12.34c.2.59.44,1.17.88,1.42.81.44,2.68.13,4.6-.26.25-.05.44-.09.55-.11.46-.06,1.27-.24,1.65-.33l.42-.08.12-1.36c.03-.39.15-5.2-.29-5.96-.21-.38-.74-.6-1.59-.68l-.37-.03.05.37c0,.16.26,2.68.2,4.43l-1.35-1.15c-4.61-3.69-11.89-6.59-17.35-2.79-5.69-4.45-13.86-1.34-19.05,4.08Zm19.53-.53c1.48,1.48,1.61,3.1,1.18,4.22-.37.94-.95,1.56-1.68,1.5-.81-.08-1.62-.99-1.93-2.51-.03-1.27.52-2.31,1.93-3.66.18.15.34.29.49.44Z"/>
  <path class="cls-11" d="m452.09,67.19c-.28-.29-.99-.72-1.69-.18-.04.04-.08.07-.12.1-.55.55-.29,1.38-.05,1.76,5.49,6.13,6.85,11.03,4.29,15.42-1.55-1.8-4.41-2.7-6.74-2.05-1.89.53-3.04,1.97-3.2,3.95,0,2,1.01,3.48,2.83,4.08,2.36.78,5.44-.09,7.08-1.96,2.83,4.8-.96,11.06-2.77,13.59l-1.26,1.49-.48-4.81-.34.12c-.59.2-1.17.44-1.42.88-.44.81-.13,2.68.26,4.6.05.25.09.44.11.55.06.46.24,1.27.33,1.65l.08.42,1.36.12c.39.03,5.2.15,5.96-.29.38-.21.6-.74.68-1.59l.03-.37-.37.05c-.16,0-2.68.26-4.43.2l1.15-1.35c3.69-4.61,6.59-11.89,2.79-17.35,4.45-5.69,1.34-13.86-4.08-19.05Zm.53,19.53c-1.48,1.48-3.1,1.61-4.22,1.18-.94-.37-1.56-.95-1.5-1.68.08-.81.99-1.62,2.51-1.93,1.27-.03,2.31.52,3.66,1.93-.15.18-.29.34-.44.49Z"/>
  <path class="cls-11" d="m352.86,94.54c.04,1.64.21,1.73.7,2.58.31.53.83.9,1.65.88l-.14-4.21c11.48,10.1-13.52,12.06-38.81-3.44-.81-.58-1.82-.5-2.19.02-.24.3-.6,1.32.41,1.92,32.57,19.47,56.4,11.62,42.2.09l4.31-.67c-.43-.58-.92-1.42-1.43-1.51-1.45-.27-2.76-.03-3.5.12-.79.16-2.6.38-2.77.48"/>
  <path class="cls-8" d="m330.73,79.89c-.04-1.64-.21-1.73-.7-2.58-.31-.53-.83-.9-1.65-.88l.14,4.21c-11.48-10.1,13.52-12.06,38.81,3.44.81.58,1.82.5,2.19-.02.24-.3.6-1.32-.41-1.92-32.57-19.47-56.4-11.62-42.2-.09l-4.31.67c.43.58.92,1.42,1.43,1.51,1.45.27,2.76.03,3.5-.12.79-.16,2.6-.38,2.77-.48"/>
  <path class="cls-11" d="m352.86,79.89c.04-1.64.21-1.73.7-2.58.31-.53.83-.9,1.65-.88l-.14,4.21c11.48-10.1-13.52-12.06-38.81,3.44-.81.58-1.82.5-2.19-.02-.24-.3-.6-1.32.41-1.92,32.57-19.47,56.4-11.62,42.2-.09l4.31.67c-.43.58-.92,1.42-1.43,1.51-1.45.27-2.76.03-3.5-.12-.79-.16-2.6-.38-2.77-.48"/>
  <path class="cls-8" d="m330.73,94.54c-.04,1.64-.21,1.73-.7,2.58-.31.53-.83.9-1.65.88l.14-4.21c-11.48,10.1,13.52,12.06,38.81-3.44.81-.58,1.82-.5,2.19.02.24.3.6,1.32-.41,1.92-32.57,19.47-56.4,11.62-42.2.09l-4.31-.67c.43-.58.92-1.42,1.43-1.51,1.45-.27,2.76-.03,3.5.12.79.16,2.6.38,2.77.48"/>
  <path class="cls-8" d="m170.51,118.89c-.7-.81-2.33-3.15-3.7-3.66-.58-.21-1.27.36-1.92.41l3.4,4.09c-10.58-.32-22.51-9.29-23.45-24.24-.11-.89-.63-1.48-1.71-1.38-1.14.11-1.14.56-1.03,1.72,1.34,14.17,11.68,26.16,26.21,26.16l-3.99,3.27c.61.38,1.28.73,1.79.63,1.44-.28,3.69-2.45,4.2-3.01.49-.55,1.4-1.73,1.52-1.89"/>
  <path class="cls-11" d="m170.51,55.68c-.7.81-2.33,3.15-3.7,3.66-.58.21-1.27-.36-1.92-.41l3.4-4.09c-10.58.32-22.51,9.29-23.45,24.24-.11.89-.63,1.48-1.71,1.38-1.14-.11-1.14-.56-1.03-1.72,1.34-14.17,11.68-26.16,26.21-26.16l-3.99-3.27c.61-.38,1.28-.73,1.79-.63,1.44.28,3.69,2.45,4.2,3.01.49.55,1.4,1.73,1.52,1.89"/>
  <path class="cls-11" d="m184.15,118.89c.7-.81,2.33-3.15,3.7-3.66.58-.21,1.27.36,1.92.41l-3.4,4.09c10.58-.32,22.51-9.29,23.45-24.24.11-.89.63-1.48,1.71-1.38,1.14.11,1.14.56,1.03,1.72-1.34,14.17-11.68,26.16-26.21,26.16l3.99,3.27c-.61.38-1.28.73-1.79.63-1.44-.28-3.69-2.45-4.2-3.01-.49-.55-1.4-1.73-1.52-1.89"/>
  <path class="cls-8" d="m184.15,55.68c.7.81,2.33,3.15,3.7,3.66.58.21,1.27-.36,1.92-.41l-3.4-4.09c10.58.32,22.51,9.29,23.45,24.24.11.89.63,1.48,1.71,1.38,1.14-.11,1.14-.56,1.03-1.72-1.34-14.17-11.68-26.16-26.21-26.16l3.99-3.27c-.61-.38-1.28-.73-1.79-.63-1.44.28-3.69,2.45-4.2,3.01-.49.55-1.4,1.73-1.52,1.89"/>
  <path class="cls-11" d="m240.97,101.03s.04,1.8-1.15,1.99c-1.7.27-6.74-.11-6.74-.11,0,0-.63-5.68-.42-7.05.18-1.2,1.92-.49,1.92-.49l.44,4.14c12.45-12.52,12.21-17.12-1.89-30.73-.39-.26.3-1.3.46-1.55s.85-.47,1.25-.22c15.47,14.79,15.31,21.29,1.59,33.93"/>
  <path class="cls-11" d="m241.79,59.85c1.02.34,3.24,1.35,4.6.82.57-.23.84-.78,1.07-1.49l-4.77-1.21c13.24-8.4,25.57,6.94,16.52,18.81-.55.71-.52,1.72.05,2.09.5.32,1.15.44,1.84-.5,10.81-14.82-4.82-31.95-19.6-22.42l1.34-4.49c-.86-.19-1.12-.43-1.87.31-.66.65-1.7,3.35-1.81,4.54-.15,1.62-.14,2.18-.12,2.37"/>
  <path class="cls-8" d="m273.31,68.69s1.8.04,1.99-1.15c.27-1.7-.11-6.74-.11-6.74,0,0-5.68-.63-7.05-.42-1.2.18-.49,1.92-.49,1.92l4.14.44c-12.52,12.45-17.12,12.21-30.73-1.89-.26-.39-1.3.3-1.55.46-.25.16-.47.85-.22,1.25,14.79,15.47,21.29,15.31,33.93,1.59"/>
  <path class="cls-11" d="m277.34,114.72c-1.02-.34-3.24-1.35-4.6-.82-.57.23-.84.78-1.07,1.49l4.77,1.21c-13.24,8.4-25.57-6.94-16.52-18.81.55-.71.52-1.72-.05-2.09-.5-.32-1.15-.44-1.84.5-10.81,14.82,4.82,31.95,19.6,22.42l-1.34,4.49c.86.19,1.12.43,1.87-.31.66-.65,1.7-3.35,1.81-4.54.15-1.62.14-2.18.12-2.37"/>
  <path class="cls-8" d="m245.82,105.88s-1.8-.04-1.99,1.15c-.27,1.7.11,6.74.11,6.74,0,0,5.68.63,7.05.42,1.2-.18.49-1.92.49-1.92l-4.14-.44c12.52-12.45,17.12-12.21,30.73,1.89.26.39,1.3-.3,1.55-.46s.47-.85.22-1.25c-14.79-15.47-21.29-15.31-33.93-1.59"/>
  <path class="cls-8" d="m287,105.06c-.34-1.02-1.35-3.24-.82-4.6.23-.57.78-.84,1.49-1.07l1.21,4.77c8.4-13.24-6.94-25.57-18.81-16.52-.71.55-1.72.52-2.09-.05-.32-.5-.44-1.15.5-1.84,14.82-10.81,31.95,4.82,22.42,19.6l4.49-1.34c.19.86.43,1.12-.31,1.87-.65.66-3.35,1.7-4.54,1.81-1.62.15-2.18.14-2.37.12"/>
  <path class="cls-11" d="m278.16,73.54s-.04-1.8,1.15-1.99c1.7-.27,6.74.11,6.74.11,0,0,.63,5.68.42,7.05-.18,1.2-1.92.49-1.92.49l-.44-4.14c-12.45,12.52-12.21,17.12,1.89,30.73.39.26-.3,1.3-.46,1.55s-.85.47-1.25.22c-15.47-14.79-15.31-21.29-1.59-33.93"/>
  <path class="cls-8" d="m270.53,675.41c.81.7,3.15,2.33,3.66,3.7.21.58-.36,1.27-.41,1.92l-4.09-3.4v31.13c0,.63-.51,1.14-1.14,1.14h0c-.63,0-1.14-.51-1.14-1.14l.02-31.15-3.27,3.99c-.38-.61-.73-1.28-.63-1.79.28-1.44,2.45-3.69,3.01-4.2s1.73-1.4,1.89-1.52"/>
  <path class="cls-8" d="m248.6,708.45c-.81-.7-3.15-2.33-3.66-3.7-.21-.58.36-1.27.41-1.92l4.09,3.4v-31.13c0-.63.51-1.14,1.14-1.14h0c.63,0,1.14.51,1.14,1.14l-.02,31.15,3.27-3.99c.38.61.73,1.28.63,1.79-.28,1.44-2.45,3.69-3.01,4.2s-1.73,1.4-1.89,1.52"/>
  <path class="cls-11" d="m276.09,702.9c-.7.81-2.33,3.15-3.7,3.66-.58.21-1.27-.36-1.92-.41l3.4-4.09h-31.13c-.63,0-1.14-.51-1.14-1.14h0c0-.63.51-1.14,1.14-1.14l31.15.02-3.99-3.27c.61-.38,1.28-.73,1.79-.63,1.44.28,3.69,2.45,4.2,3.01s1.4,1.73,1.52,1.89"/>
  <path class="cls-11" d="m243.04,680.96c.7-.81,2.33-3.15,3.7-3.66.58-.21,1.27.36,1.92.41l-3.4,4.09h31.13c.63,0,1.14.51,1.14,1.14h0c0,.63-.51,1.14-1.14,1.14l-31.15-.02,3.99,3.27c-.61.38-1.28.73-1.79.63-1.44-.28-3.69-2.45-4.2-3.01-.49-.55-1.4-1.73-1.52-1.89"/>
  <g>
    <path class="cls-7" d="m177.33,693.18c1.61,0,1.61-2.5,0-2.5s-1.61,2.5,0,2.5h0Z"/>
    <g>
      <path class="cls-7" d="m151.83,719.93c3.22,0,3.22-5,0-5s-3.22,5,0,5h0Z"/>
      <path class="cls-7" d="m202.83,719.93c3.22,0,3.22-5,0-5s-3.22,5,0,5h0Z"/>
      <path class="cls-7" d="m202.83,668.93c3.22,0,3.22-5,0-5s-3.22,5,0,5h0Z"/>
      <path class="cls-7" d="m151.83,668.93c3.22,0,3.22-5,0-5s-3.22,5,0,5h0Z"/>
    </g>
  </g>
  <g>
    <path class="cls-7" d="m259.56,693.18c1.61,0,1.61-2.5,0-2.5s-1.61,2.5,0,2.5h0Z"/>
    <g>
      <path class="cls-7" d="m295.63,694.43c3.22,0,3.22-5,0-5s-3.22,5,0,5h0Z"/>
      <path class="cls-7" d="m259.56,730.49c3.22,0,3.22-5,0-5s-3.22,5,0,5h0Z"/>
      <path class="cls-7" d="m223.5,694.43c3.22,0,3.22-5,0-5s-3.22,5,0,5h0Z"/>
      <path class="cls-7" d="m259.56,658.37c3.22,0,3.22-5,0-5s-3.22,5,0,5h0Z"/>
    </g>
  </g>
  <g>
    <path class="cls-7" d="m341.8,693.25c1.61,0,1.61-2.5,0-2.5s-1.61,2.5,0,2.5h0Z"/>
    <g>
      <path class="cls-7" d="m367.3,720c3.22,0,3.22-5,0-5s-3.22,5,0,5h0Z"/>
      <path class="cls-7" d="m367.3,669c3.22,0,3.22-5,0-5s-3.22,5,0,5h0Z"/>
      <path class="cls-7" d="m316.3,669c3.22,0,3.22-5,0-5s-3.22,5,0,5h0Z"/>
      <path class="cls-7" d="m316.3,720c3.22,0,3.22-5,0-5s-3.22,5,0,5h0Z"/>
    </g>
  </g>
  <g>
    <path class="cls-7" d="m424.03,693.25c1.61,0,1.61-2.5,0-2.5s-1.61,2.5,0,2.5h0Z"/>
    <g>
      <path class="cls-7" d="m460.09,694.5c3.22,0,3.22-5,0-5s-3.22,5,0,5h0Z"/>
      <path class="cls-7" d="m424.03,730.57c3.22,0,3.22-5,0-5s-3.22,5,0,5h0Z"/>
      <path class="cls-7" d="m387.97,694.5c3.22,0,3.22-5,0-5s-3.22,5,0,5h0Z"/>
      <path class="cls-7" d="m424.03,658.44c3.22,0,3.22-5,0-5s-3.22,5,0,5h0Z"/>
    </g>
  </g>
  <rect class="cls-11" x="150.16" y="702.49" width="29.95" height="3.08" rx="1.17" ry="1.17" transform="translate(779.72 1085.08) rotate(135)"/>
  <rect class="cls-8" x="174.63" y="702.56" width="29.95" height="3.08" rx="1.17" ry="1.17" transform="translate(553.41 72.16) rotate(45)"/>
  <rect class="cls-11" x="174.55" y="678.3" width="29.95" height="3.08" rx="1.17" ry="1.17" transform="translate(-425.21 333.14) rotate(-45)"/>
  <rect class="cls-8" x="150.08" y="678.22" width="29.95" height="3.08" rx="1.17" ry="1.17" transform="translate(-198.89 1277.14) rotate(-135)"/>
  <rect class="cls-11" x="338.91" y="702.66" width="29.95" height="3.08" rx="1.17" ry="1.17" transform="translate(601.6 -43.98) rotate(45)"/>
  <rect class="cls-8" x="338.99" y="678.19" width="29.95" height="3.08" rx="1.17" ry="1.17" transform="translate(-376.97 449.38) rotate(-45)"/>
  <rect class="cls-11" x="314.73" y="678.27" width="29.95" height="3.08" rx="1.17" ry="1.17" transform="translate(82.14 1393.64) rotate(-135)"/>
  <rect class="cls-8" x="314.65" y="702.74" width="29.95" height="3.08" rx="1.17" ry="1.17" transform="translate(1060.7 969.19) rotate(135)"/>
  <rect class="cls-11" x="408.9" y="707.64" width="29.95" height="3.08" rx="1.17" ry="1.17" transform="translate(1133.06 285.3) rotate(90)"/>
  <rect class="cls-8" x="426.26" y="690.39" width="29.95" height="3.08" rx="1.17" ry="1.17"/>
  <rect class="cls-11" x="409.05" y="673.29" width="29.95" height="3.08" rx="1.17" ry="1.17" transform="translate(-250.8 1098.86) rotate(-90)"/>
  <rect class="cls-8" x="391.69" y="690.54" width="29.95" height="3.08" rx="1.17" ry="1.17" transform="translate(813.34 1384.15) rotate(-180)"/>
  <rect class="cls-11" x="261.76" y="690.32" width="29.95" height="3.08" rx="1.17" ry="1.17"/>
  <rect class="cls-8" x="244.51" y="707.68" width="29.95" height="3.08" rx="1.17" ry="1.17" transform="translate(968.71 449.72) rotate(90)"/>
  <rect class="cls-11" x="227.41" y="690.47" width="29.95" height="3.08" rx="1.17" ry="1.17" transform="translate(484.78 1384.01) rotate(180)"/>
  <rect class="cls-8" x="244.66" y="673.11" width="29.95" height="3.08" rx="1.17" ry="1.17" transform="translate(-415.01 934.28) rotate(-90)"/>
  <path class="cls-11" d="m156.89,721.91c3.36-3.36,3.94-4.45,6.94-4.45,3,0,5.07,2.62,5.77,3.53.75-1.01,2.96-3.94,5.86-3.93,2.82,0,4.64,2.9,5.33,3.93.58-.88,2.29-3.19,4.81-3.54,2.81-.39,5.42,1.24,8.01,3.85l-.1-4.85.33.09c.61.15,1.21.34,1.49.77.54.82-.02,7.65-.02,7.65,0,0-6.77.25-7.36.05-.54-.18-.94-1.21-1.06-1.65l-.06-.35h.35c.16,0,2.98.23,4.77.05-.27-.3-1.11-1-1.37-1.25-1.73-1.59-3.49-2.45-4.92-2.07-1.74.44-3.16,2.59-4.25,5.76l-.25.75-.3-.74c-.03-.06-2.49-5.98-5.59-5.96-1.79,0-3.52,2.01-5.11,5.96l-.23.55-.3-.5c-1.37-2.22-3.48-5.91-5.96-5.71-2.48.2-4.34,2.87-4.97,3.56-.63.7-1.32.89-1.93.34s-.62-1.1.13-1.84Z"/>
  <path class="cls-8" d="m207.31,671.49c-3.36,3.36-4.45,3.94-4.45,6.94s2.62,5.07,3.53,5.77c-1.01.75-3.94,2.96-3.93,5.86,0,2.82,2.9,4.64,3.93,5.33-.88.58-3.19,2.29-3.54,4.81-.39,2.81,1.24,5.42,3.85,8.01l-4.85-.1.09.33c.15.61.34,1.21.77,1.49.82.54,7.65-.02,7.65-.02,0,0,.25-6.77.05-7.36-.18-.54-1.21-.94-1.65-1.06l-.35-.06v.35c0,.16.23,2.98.05,4.77-.3-.27-1-1.11-1.25-1.37-1.59-1.73-2.45-3.49-2.07-4.92.44-1.74,2.59-3.16,5.76-4.25l.75-.25-.74-.3c-.06-.03-5.98-2.49-5.96-5.59,0-1.79,2.01-3.52,5.96-5.11l.55-.23-.5-.3c-2.22-1.37-5.91-3.48-5.71-5.96s2.87-4.34,3.56-4.97.89-1.32.34-1.93c-.55-.61-1.1-.62-1.84.13Z"/>
  <path class="cls-8" d="m207.31,671.49c-3.36,3.36-4.45,3.94-4.45,6.94,0,3,2.62,5.07,3.53,5.77-1.01.75-3.94,2.96-3.93,5.86,0,2.82,2.9,4.64,3.93,5.33-.88.58-3.19,2.29-3.54,4.81-.39,2.81,1.24,5.42,3.85,8.01l-4.85-.1.09.33c.15.61.34,1.21.77,1.49.82.54,7.65-.02,7.65-.02,0,0,.25-6.77.05-7.36-.18-.54-1.21-.94-1.65-1.06l-.35-.06v.35c0,.16.23,2.98.05,4.77-.3-.27-1-1.11-1.25-1.37-1.59-1.73-2.45-3.49-2.07-4.92.44-1.74,2.59-3.16,5.76-4.25l.75-.25-.74-.3c-.06-.03-5.98-2.49-5.96-5.59,0-1.79,2.01-3.52,5.96-5.11l.55-.23-.5-.3c-2.22-1.37-5.91-3.48-5.71-5.96s2.87-4.34,3.56-4.97c.7-.63.89-1.32.34-1.93s-1.1-.62-1.84.13Z"/>
  <path class="cls-11" d="m156.89,721.91c3.36-3.36,3.94-4.45,6.94-4.45s5.07,2.62,5.77,3.53c.75-1.01,2.96-3.94,5.86-3.93,2.82,0,4.64,2.9,5.33,3.93.58-.88,2.29-3.19,4.81-3.54,2.81-.39,5.42,1.24,8.01,3.85l-.1-4.85.33.09c.61.15,1.21.34,1.49.77.54.82-.02,7.65-.02,7.65,0,0-6.77.25-7.36.05-.54-.18-.94-1.21-1.06-1.65l-.06-.35h.35c.16,0,2.98.23,4.77.05-.27-.3-1.11-1-1.37-1.25-1.73-1.59-3.49-2.45-4.92-2.07-1.74.44-3.16,2.59-4.25,5.76l-.25.75-.3-.74c-.03-.06-2.49-5.98-5.59-5.96-1.79,0-3.52,2.01-5.11,5.96l-.23.55-.3-.5c-1.37-2.22-3.48-5.91-5.96-5.71s-4.34,2.87-4.97,3.56c-.63.7-1.32.89-1.93.34s-.62-1.1.13-1.84Z"/>
  <path class="cls-11" d="m197.77,661.95c-3.36,3.36-3.94,4.45-6.94,4.45-3,0-5.07-2.62-5.77-3.53-.75,1.01-2.96,3.94-5.86,3.93-2.82,0-4.64-2.9-5.33-3.93-.58.88-2.29,3.19-4.81,3.54-2.81.39-5.42-1.24-8.01-3.85l.1,4.85-.33-.09c-.61-.15-1.21-.34-1.49-.77-.54-.82.02-7.65.02-7.65,0,0,6.77-.25,7.36-.05.54.18.94,1.21,1.06,1.65l.06.35h-.35c-.16,0-2.98-.23-4.77-.05.27.3,1.11,1,1.37,1.25,1.73,1.59,3.49,2.45,4.92,2.07,1.74-.44,3.16-2.59,4.25-5.76l.25-.75.3.74c.03.06,2.49,5.98,5.59,5.96,1.79,0,3.52-2.01,5.11-5.96l.23-.55.3.5c1.37,2.22,3.48,5.91,5.96,5.71,2.48-.2,4.34-2.87,4.97-3.56s1.32-.89,1.93-.34c.61.55.62,1.1-.13,1.84Z"/>
  <path class="cls-8" d="m147.35,712.37c3.36-3.36,4.45-3.94,4.45-6.94,0-3-2.62-5.07-3.53-5.77,1.01-.75,3.94-2.96,3.93-5.86,0-2.82-2.9-4.64-3.93-5.33.88-.58,3.19-2.29,3.54-4.81.39-2.81-1.24-5.42-3.85-8.01l4.85.1-.09-.33c-.15-.61-.34-1.21-.77-1.49-.82-.54-7.65.02-7.65.02,0,0-.25,6.77-.05,7.36.18.54,1.21.94,1.65,1.06l.35.06v-.35c0-.16-.23-2.98-.05-4.77.3.27,1,1.11,1.25,1.37,1.59,1.73,2.45,3.49,2.07,4.92-.44,1.74-2.59,3.16-5.76,4.25l-.75.25.74.3c.06.03,5.98,2.49,5.96,5.59,0,1.79-2.01,3.52-5.96,5.11l-.55.23.5.3c2.22,1.37,5.91,3.48,5.71,5.96s-2.87,4.34-3.56,4.97c-.7.63-.89,1.32-.34,1.93.55.61,1.1.62,1.84-.13Z"/>
  <path class="cls-11" d="m327.36,710.89s-1.6-.33-1.76.87c-.23,1.71.4,6.93.4,6.93,0,0,6.25.59,7.54.1.57-.22-.09-1.77-.09-1.77l-4.12-.44c6.43-7.82,9.87-3.77,14.02,3.27,2.69-6.14,6.92-13.13,17.01-2.48.64.53,1.14.28,1.34.08s.43-.88-.07-1.43c-6.44-7.57-13.64-8.9-18.41-.86-6.12-6.27-8.52-6.93-15.5-.2"/>
  <path class="cls-8" d="m323.01,706.55s.33,1.6-.87,1.76c-1.71.23-6.93-.4-6.93-.4,0,0-.59-6.25-.1-7.54.22-.57,1.77.09,1.77.09l.44,4.12c7.82-6.43,3.77-9.87-3.27-14.02,6.14-2.69,13.13-6.92,2.48-17.01-.53-.64-.28-1.14-.08-1.34s.88-.43,1.43.07c7.57,6.44,8.9,13.64.86,18.41,6.27,6.12,6.93,8.52.2,15.5"/>
  <path class="cls-8" d="m360.69,677.56s-.33-1.6.87-1.76c1.71-.23,6.93.4,6.93.4,0,0,.59,6.25.1,7.54-.22.57-1.77-.09-1.77-.09l-.44-4.12c-7.82,6.43-3.77,9.87,3.27,14.02-6.14,2.69-13.13,6.92-2.48,17.01.53.64.28,1.14.08,1.34s-.88.43-1.43-.07c-7.57-6.44-8.9-13.64-.86-18.41-6.27-6.12-6.93-8.52-.2-15.5"/>
  <path class="cls-11" d="m356.34,673.21s1.6.33,1.76-.87c.23-1.71-.4-6.93-.4-6.93,0,0-6.25-.59-7.54-.1-.57.22.09,1.77.09,1.77l4.12.44c-6.43,7.82-9.87,3.77-14.02-3.27-2.69,6.14-6.92,13.13-17.01,2.48-.64-.53-1.14-.28-1.34-.08s-.43.88.07,1.43c6.44,7.57,13.64,8.9,18.41.86,6.12,6.27,8.52,6.93,15.5.2"/>
  <path class="cls-8" d="m417.2,660.04c-.48.96-1.33,3.25-2.67,3.83-.56.24-1.14.05-1.81-.3l2.52-4.23c-15.3,3.42-13.17,22.99,1.62,24.98.89.11,1.58.85,1.44,1.51-.13.58-.5,1.13-1.66.95-18.13-2.84-19.19-26-1.99-29.71l-4.12-2.23c.48-.74.49-1.1,1.54-1.1.93,0,3.57,1.17,4.49,1.93,1.25,1.04,1.64,1.44,1.76,1.59"/>
  <path class="cls-8" d="m293.57,697.62c.01-.4-.19-1.21-1.07-1.33-.06,0-.11-.01-.15-.01-.77,0-1.17.77-1.28,1.21-.45,8.22-2.95,12.64-7.88,13.94.18-2.37-1.21-5.03-3.32-6.22-1.71-.96-3.55-.76-5.05.53-1.42,1.41-1.74,3.18-.89,4.89,1.11,2.22,3.91,3.78,6.39,3.62-1.39,5.4-8.5,7.14-11.57,7.65l-1.95.17,3.06-3.74-.32-.15c-.56-.27-1.14-.51-1.63-.38-.88.26-1.99,1.8-3.07,3.44-.14.21-.25.38-.31.46-.28.37-.72,1.07-.94,1.4l-.24.36.88,1.04c.26.3,3.57,3.78,4.41,4.01.42.12.95-.09,1.6-.64l.28-.24-.3-.23c-.12-.11-2.08-1.71-3.27-2.99l1.77-.14c5.87-.65,13.07-3.75,14.25-10.3,7.16-.88,10.75-8.85,10.58-16.36Zm-13.44,14.19c-2.1,0-3.33-1.06-3.82-2.15-.4-.93-.43-1.77.12-2.25.63-.52,1.85-.44,3.14.41.93.88,1.27,2,1.22,3.95-.24.02-.45.04-.66.04Z"/>
  <path class="cls-11" d="m253.88,725.93c.4.01,1.21-.19,1.33-1.07,0-.06.01-.11.01-.15,0-.77-.77-1.17-1.21-1.28-8.22-.45-12.64-2.95-13.94-7.88,2.37.18,5.03-1.21,6.22-3.32.96-1.71.76-3.55-.53-5.05-1.41-1.42-3.18-1.74-4.89-.89-2.22,1.11-3.78,3.91-3.62,6.39-5.4-1.39-7.14-8.5-7.65-11.57l-.17-1.95,3.74,3.06.15-.32c.27-.56.51-1.14.38-1.63-.26-.88-1.8-1.99-3.44-3.07-.21-.14-.38-.25-.46-.31-.37-.28-1.07-.72-1.4-.94l-.36-.24-1.04.88c-.3.26-3.78,3.57-4.01,4.41-.12.42.09.95.64,1.6l.24.28.23-.3c.11-.12,1.71-2.08,2.99-3.27l.14,1.77c.65,5.87,3.75,13.07,10.3,14.25.88,7.16,8.85,10.75,16.36,10.58Zm-14.19-13.44c0-2.1,1.06-3.33,2.15-3.82.93-.4,1.77-.43,2.25.12.52.63.44,1.85-.41,3.14-.88.93-2,1.27-3.95,1.22-.02-.24-.04-.45-.04-.66Z"/>
  <path class="cls-8" d="m225.56,686.24c-.01.4.19,1.21,1.07,1.33.06,0,.11.01.15.01.77,0,1.17-.77,1.28-1.21.45-8.22,2.95-12.64,7.88-13.94-.18,2.37,1.21,5.03,3.32,6.22,1.71.96,3.55.76,5.05-.53,1.42-1.41,1.74-3.18.89-4.89-1.11-2.22-3.91-3.78-6.39-3.62,1.39-5.4,8.5-7.14,11.57-7.65l1.95-.17-3.06,3.74.32.15c.56.27,1.14.51,1.63.38.88-.26,1.99-1.8,3.07-3.44.14-.21.25-.38.31-.46.28-.37.72-1.07.94-1.4l.24-.36-.88-1.04c-.26-.3-3.57-3.78-4.41-4.01-.42-.12-.95.09-1.6.64l-.28.24.3.23c.12.11,2.08,1.71,3.27,2.99l-1.77.14c-5.87.65-13.07,3.75-14.25,10.3-7.16.88-10.75,8.85-10.58,16.36Zm13.44-14.19c2.1,0,3.33,1.06,3.82,2.15.4.93.43,1.77-.12,2.25-.63.52-1.85.44-3.14-.41-.93-.88-1.27-2-1.22-3.95.24-.02.45-.04.66-.04Z"/>
  <path class="cls-11" d="m265.25,657.93c-.4-.01-1.21.19-1.33,1.07,0,.06-.01.11-.01.15,0,.77.77,1.17,1.21,1.28,8.22.45,12.64,2.95,13.94,7.88-2.37-.18-5.03,1.21-6.22,3.32-.96,1.71-.76,3.55.53,5.05,1.41,1.42,3.18,1.74,4.89.89,2.22-1.11,3.78-3.91,3.62-6.39,5.4,1.39,7.14,8.5,7.65,11.57l.17,1.95-3.74-3.06-.15.32c-.27.56-.51,1.14-.38,1.63.26.88,1.8,1.99,3.44,3.07.21.14.38.25.46.31.37.28,1.07.72,1.4.94l.36.24,1.04-.88c.3-.26,3.78-3.57,4.01-4.41.12-.42-.09-.95-.64-1.6l-.24-.28-.23.3c-.11.12-1.71,2.08-2.99,3.27l-.14-1.77c-.65-5.87-3.75-13.07-10.3-14.25-.88-7.16-8.85-10.75-16.36-10.58Zm14.19,13.44c0,2.1-1.06,3.33-2.15,3.82-.93.4-1.77.43-2.25-.12-.52-.63-.44-1.85.41-3.14.88-.93,2-1.27,3.95-1.22.02.24.04.45.04.66Z"/>
  <path class="cls-11" d="m179.97,704.94c-1.13,1.19-1.08,1.37-1.33,2.32-.16.59-.05,1.23.55,1.78l2.88-3.08c.97,15.26-18.09-1.03-25.02-29.88-.16-.98-.93-1.64-1.57-1.54-.38.04-1.35.51-1.07,1.65,9.26,36.8,31.66,48.09,29.77,29.9l3.52,2.57c.1-.71.35-1.65.06-2.08-.83-1.21-1.92-1.97-2.56-2.39-.67-.45-2.11-1.57-2.3-1.62"/>
  <path class="cls-8" d="m174.69,678.93c1.13-1.19,1.08-1.37,1.33-2.32.16-.59.05-1.23-.55-1.78l-2.88,3.08c-.97-15.26,18.09,1.03,25.02,29.88.16.98.93,1.64,1.57,1.54.38-.04,1.35-.51,1.07-1.65-9.26-36.8-31.66-48.09-29.77-29.9l-3.52-2.57c-.1.71-.35,1.65-.06,2.08.83,1.21,1.92,1.97,2.56,2.39.67.45,2.11,1.57,2.3,1.62"/>
  <path class="cls-11" d="m190.34,694.57c1.19-1.13,1.37-1.08,2.32-1.33.59-.16,1.23-.05,1.78.55l-3.08,2.88c15.26.97-1.03-18.09-29.88-25.02-.98-.16-1.64-.93-1.54-1.57.04-.38.51-1.35,1.65-1.07,36.8,9.26,48.09,31.66,29.9,29.77l2.57,3.52c-.71.1-1.65.35-2.08.06-1.21-.83-1.97-1.92-2.39-2.56-.45-.67-1.57-2.11-1.62-2.3"/>
  <path class="cls-8" d="m164.33,689.29c-1.19,1.13-1.37,1.08-2.32,1.33-.59.16-1.23.05-1.78-.55l3.08-2.88c-15.26-.97,1.03,18.09,29.88,25.02.98.16,1.64.93,1.54,1.57-.04.38-.51,1.35-1.65,1.07-36.8-9.26-48.09-31.66-29.9-29.77l-2.57-3.52c.71-.1,1.65-.35,2.08-.06,1.21.83,1.97,1.92,2.39,2.56.45.67,1.57,2.11,1.62,2.3"/>
  <path class="cls-8" d="m359.32,719.17c-1.07-.08-3.88-.58-5.21.03-.56.26-.64,1.15-1.07,1.65l5.3.49c-7.71,7.26-22.48,9.35-33.72-.56-.71-.55-1.49-.6-2.18.24-.73.88-.41,1.2.49,1.95,10.97,9.07,26.76,10.23,37.03-.04l-.51,5.14c.7-.17,1.42-.39,1.71-.82.82-1.22.88-4.34.84-5.1-.04-.73-.23-2.21-.26-2.4"/>
  <path class="cls-11" d="m314.63,674.48c.08,1.07.58,3.88-.03,5.21-.26.56-1.15.64-1.65,1.07l-.49-5.3c-7.26,7.71-9.35,22.48.56,33.72.55.71.6,1.49-.24,2.18-.88.73-1.2.41-1.95-.49-9.07-10.97-10.23-26.76.04-37.03l-5.14.51c.17-.7.39-1.42.82-1.71,1.22-.82,4.34-.88,5.1-.84s2.21.23,2.4.26"/>
  <path class="cls-11" d="m368.97,709.53c-.08-1.07-.58-3.88.03-5.21.26-.56,1.15-.64,1.65-1.07l.49,5.3c7.26-7.71,9.35-22.48-.56-33.72-.55-.71-.6-1.49.24-2.18.88-.73,1.2-.41,1.95.49,9.07,10.97,10.23,26.76-.04,37.03l5.14-.51c-.17.7-.39,1.42-.82,1.71-1.22.82-4.34.88-5.1.84-.73-.04-2.21-.23-2.4-.26"/>
  <path class="cls-8" d="m324.27,664.83c1.07.08,3.88.58,5.21-.03.56-.26.64-1.15,1.07-1.65l-5.3-.49c7.71-7.26,22.48-9.35,33.72.56.71.55,1.49.6,2.18-.24.73-.88.41-1.2-.49-1.95-10.97-9.07-26.76-10.23-37.03.04l.51-5.14c-.7.17-1.42.39-1.71.82-.82,1.22-.88,4.34-.84,5.1s.23,2.21.26,2.4"/>
  <path class="cls-11" d="m401.16,688.57s-1.24,1.3-2.22.59c-1.4-1.01-4.69-4.84-4.69-4.84,0,0,3.57-4.47,4.68-5.28.98-.72,1.7,1.02,1.7,1.02l-2.62,3.24c17.65-.05,20.74-3.47,20.39-23.07-.09-.46,1.13-.7,1.42-.77s.93.26,1.04.73c.48,21.39-4.23,25.88-22.87,25.11"/>
  <path class="cls-11" d="m430.86,660.04c.48.96,1.33,3.25,2.67,3.83.56.24,1.14.05,1.81-.3l-2.52-4.23c15.3,3.42,13.17,22.99-1.62,24.98-.89.11-1.58.85-1.44,1.51.13.58.5,1.13,1.66.95,18.13-2.84,19.19-26,1.99-29.71l4.12-2.23c-.48-.74-.49-1.1-1.54-1.1-.93,0-3.57,1.17-4.49,1.93-1.25,1.04-1.64,1.44-1.76,1.59"/>
  <path class="cls-8" d="m446.9,688.57s1.24,1.3,2.22.59c1.4-1.01,4.69-4.84,4.69-4.84,0,0-3.57-4.47-4.68-5.28-.98-.72-1.7,1.02-1.7,1.02l2.62,3.24c-17.65-.05-20.74-3.47-20.39-23.07.09-.46-1.13-.7-1.42-.77s-.93.26-1.04.73c-.48,21.39,4.23,25.88,22.87,25.11"/>
  <path class="cls-11" d="m417.2,723.97c-.48-.96-1.33-3.25-2.67-3.83-.56-.24-1.14-.05-1.81.3l2.52,4.23c-15.3-3.42-13.17-22.99,1.62-24.98.89-.11,1.58-.85,1.44-1.51-.13-.58-.5-1.13-1.66-.95-18.13,2.84-19.19,26-1.99,29.71l-4.12,2.23c.48.74.49,1.1,1.54,1.1.93,0,3.57-1.17,4.49-1.93,1.25-1.04,1.64-1.44,1.76-1.59"/>
  <path class="cls-8" d="m401.16,695.43s-1.24-1.3-2.22-.59c-1.4,1.01-4.69,4.84-4.69,4.84,0,0,3.57,4.47,4.68,5.28.98.72,1.7-1.02,1.7-1.02l-2.62-3.24c17.65.05,20.74,3.47,20.39,23.07-.09.46,1.13.7,1.42.77s.93-.26,1.04-.73c.48-21.39-4.23-25.88-22.87-25.11"/>
  <path class="cls-8" d="m430.86,723.97c.48-.96,1.33-3.25,2.67-3.83.56-.24,1.14-.05,1.81.3l-2.52,4.23c15.3-3.42,13.17-22.99-1.62-24.98-.89-.11-1.58-.85-1.44-1.51.13-.58.5-1.13,1.66-.95,18.13,2.84,19.19,26,1.99,29.71l4.12,2.23c-.48.74-.49,1.1-1.54,1.1-.93,0-3.57-1.17-4.49-1.93-1.25-1.04-1.64-1.44-1.76-1.59"/>
  <path class="cls-11" d="m446.9,695.43s1.24-1.3,2.22-.59c1.4,1.01,4.69,4.84,4.69,4.84,0,0-3.57,4.47-4.68,5.28-.98.72-1.7-1.02-1.7-1.02l2.62-3.24c-17.65.05-20.74,3.47-20.39,23.07.09.46-1.13.7-1.42.77s-.93-.26-1.04-.73c-.48-21.39,4.23-25.88,22.87-25.11"/>
  <text class="cls-5" transform="translate(262.95 187.09)"><tspan x="0" y="0">2.1</tspan></text>
  <text class="cls-4" transform="translate(188.65 243.39)"><tspan x="0" y="0">Hybrid Dyads</tspan></text>
  <g>
    <g>
      <path class="cls-7" d="m77.59,408.24l-.73,3.31h-1.17c-.07-1-.28-1.72-.65-2.17-.37-.44-.97-.67-1.79-.67-.68,0-1.33.2-1.93.6-.6.4-1.17.99-1.71,1.75s-1.01,1.65-1.4,2.67c-.4,1.02-.7,2.06-.92,3.12-.21,1.06-.32,2.02-.32,2.88,0,1.33.22,2.3.65,2.92.44.62,1.12.93,2.04.93.61,0,1.14-.09,1.6-.27.46-.18.88-.49,1.28-.93.4-.44.79-1.04,1.18-1.83h1.17l-.74,3.47c-.83.23-1.63.39-2.4.49-.77.1-1.57.15-2.38.15-1.01,0-1.87-.21-2.58-.63-.71-.42-1.24-1.03-1.6-1.82-.36-.79-.54-1.75-.54-2.86,0-.59.04-1.16.12-1.71.1-.68.25-1.43.46-2.23.27-1,.61-1.91,1.01-2.73.44-.87.94-1.64,1.5-2.31.53-.62,1.1-1.13,1.72-1.55.57-.38,1.18-.68,1.84-.89.66-.21,1.36-.32,2.1-.32s1.43.04,2.06.13c.63.09,1.33.25,2.11.49Z"/>
      <path class="cls-7" d="m81.25,424.68c-1.26,0-2.24-.35-2.94-1.06-.7-.71-1.04-1.73-1.04-3.05,0-.49.06-1.06.18-1.72.15-.86.37-1.61.66-2.27.37-.82.84-1.53,1.41-2.13.57-.6,1.23-1.05,1.98-1.37.74-.31,1.54-.47,2.4-.47.94,0,1.7.18,2.3.54.6.36,1.03.84,1.3,1.46s.4,1.32.4,2.13c0,.72-.1,1.5-.31,2.32-.29,1.2-.72,2.23-1.28,3.06-.56.84-1.27,1.47-2.11,1.91-.85.44-1.83.65-2.95.65Zm-1.84-3.59c0,.89.19,1.56.56,1.98.37.43.93.64,1.68.64.8,0,1.51-.36,2.12-1.07.62-.72,1.11-1.72,1.46-3.01.36-1.29.54-2.42.54-3.4,0-.88-.17-1.54-.51-1.98-.34-.44-.88-.67-1.6-.67-.85,0-1.58.35-2.22,1.06-.63.71-1.13,1.72-1.49,3.04-.36,1.32-.54,2.45-.54,3.41Z"/>
      <path class="cls-7" d="m100.44,424.48h-3.85l1.55-6.2c.1-.4.19-.84.29-1.32.09-.48.14-.91.14-1.29,0-.58-.1-.99-.3-1.25-.2-.25-.51-.38-.93-.38-.34,0-.71.13-1.1.4-.39.26-.81.66-1.24,1.18-.43.53-.8,1.06-1.09,1.6-.3.54-.53,1.2-.69,1.97l-1.11,5.29h-2.11l1.86-8.34c.04-.19.1-.46.16-.83.07-.37.1-.67.1-.92,0-.23-.03-.4-.1-.53-.07-.13-.19-.22-.35-.28-.17-.06-.45-.1-.85-.13l.15-.65,2.77-.11h.7l-.82,3.17.15.05c.8-1.12,1.57-1.96,2.31-2.5.74-.54,1.48-.81,2.22-.81.79,0,1.39.22,1.79.65.41.44.61,1.08.61,1.93,0,.29-.03.61-.08.96-.05.35-.11.65-.18.92l-1.03,4.35c-.14.59-.21,1.05-.21,1.39,0,.24.04.44.12.57.08.14.21.24.38.32.17.07.45.13.84.17l-.1.6Z"/>
      <path class="cls-7" d="m110.55,422.23c-.67.81-1.33,1.41-1.98,1.83-.65.41-1.34.62-2.08.62-.86,0-1.51-.22-1.93-.66-.42-.44-.63-1.08-.63-1.92,0-.51.07-1.09.22-1.72l1.51-6.34h-1.82l.13-.62c.48-.06.86-.16,1.14-.31.28-.15.52-.35.71-.6.19-.25.37-.57.53-.97.16-.4.37-.98.61-1.75h1.68l-.67,3.02h3.87l-.27,1.23h-3.88l-1.17,4.74c-.33,1.32-.49,2.3-.49,2.96,0,.5.11.87.32,1.13.22.26.53.38.95.38.37,0,.77-.14,1.18-.43.41-.29.86-.73,1.35-1.31l.71.73Z"/>
      <path class="cls-7" d="m114.76,421.43c-.09.42-.15.72-.17.91-.02.19-.04.35-.04.48,0,.24.04.44.12.57.08.14.21.24.38.32.17.07.45.13.84.17l-.11.6h-3.78l1.84-8.23c.11-.47.18-.85.22-1.13.04-.28.06-.51.06-.7,0-.24-.03-.42-.1-.55-.07-.13-.19-.23-.35-.29-.16-.07-.44-.11-.84-.12l.13-.65,2.98-.11h.72l-1.9,8.73Zm3.02-13.4l-.56,2.37h-2.16l.56-2.37h2.16Z"/>
      <path class="cls-7" d="m129.23,424.48h-3.85l1.55-6.2c.1-.4.19-.84.29-1.32.09-.48.14-.91.14-1.29,0-.58-.1-.99-.3-1.25-.2-.25-.51-.38-.93-.38-.34,0-.71.13-1.1.4-.39.26-.81.66-1.24,1.18-.43.53-.8,1.06-1.09,1.6-.3.54-.53,1.2-.69,1.97l-1.11,5.29h-2.11l1.86-8.34c.04-.19.1-.46.16-.83.07-.37.1-.67.1-.92,0-.23-.03-.4-.1-.53-.07-.13-.19-.22-.35-.28-.17-.06-.45-.1-.85-.13l.15-.65,2.77-.11h.7l-.82,3.17.15.05c.8-1.12,1.57-1.96,2.31-2.5.74-.54,1.48-.81,2.22-.81.79,0,1.39.22,1.79.65.41.44.61,1.08.61,1.93,0,.29-.03.61-.08.96-.05.35-.11.65-.18.92l-1.03,4.35c-.14.59-.21,1.05-.21,1.39,0,.24.04.44.12.57.08.14.21.24.38.32.17.07.45.13.84.17l-.1.6Z"/>
      <path class="cls-7" d="m132.96,412.81h3.85l-1.55,6.21c-.11.46-.21.91-.3,1.36-.08.45-.13.87-.13,1.24,0,.58.1.99.3,1.25.2.25.51.38.93.38.35,0,.73-.14,1.14-.41.41-.27.84-.7,1.29-1.27.46-.57.82-1.12,1.08-1.63.26-.51.47-1.12.62-1.83l1.11-5.3h2.11l-1.86,8.34c-.05.22-.11.51-.17.87-.07.36-.1.65-.1.88,0,.34.1.58.29.73.19.14.55.23,1.07.26l-.13.6h-3.49l.78-3.06-.16-.05c-.79,1.12-1.55,1.96-2.29,2.5-.74.54-1.48.81-2.23.81-.79,0-1.39-.22-1.79-.65-.41-.43-.61-1.08-.61-1.93,0-.24.02-.53.07-.86.04-.33.11-.67.19-1.03l1.03-4.33c.08-.36.14-.64.17-.85.03-.21.04-.39.04-.54,0-.37-.1-.62-.29-.77s-.55-.24-1.05-.28l.1-.61Z"/>
      <path class="cls-7" d="m149.47,424.68c-1.26,0-2.24-.35-2.94-1.06-.7-.71-1.04-1.73-1.04-3.05,0-.49.06-1.06.18-1.72.15-.86.37-1.61.66-2.27.37-.82.84-1.53,1.41-2.13.57-.6,1.23-1.05,1.98-1.37.74-.31,1.54-.47,2.4-.47.94,0,1.7.18,2.3.54.6.36,1.03.84,1.3,1.46s.4,1.32.4,2.13c0,.72-.1,1.5-.31,2.32-.29,1.2-.72,2.23-1.28,3.06-.56.84-1.27,1.47-2.11,1.91-.85.44-1.83.65-2.95.65Zm-1.84-3.59c0,.89.19,1.56.56,1.98.37.43.93.64,1.68.64.8,0,1.51-.36,2.12-1.07.62-.72,1.11-1.72,1.46-3.01.36-1.29.54-2.42.54-3.4,0-.88-.17-1.54-.51-1.98-.34-.44-.88-.67-1.6-.67-.85,0-1.58.35-2.22,1.06-.63.71-1.13,1.72-1.49,3.04-.36,1.32-.54,2.45-.54,3.41Z"/>
      <path class="cls-7" d="m159.01,412.81h3.85l-1.55,6.21c-.11.46-.21.91-.3,1.36-.08.45-.13.87-.13,1.24,0,.58.1.99.3,1.25.2.25.51.38.93.38.35,0,.73-.14,1.14-.41.41-.27.84-.7,1.29-1.27.46-.57.82-1.12,1.08-1.63.26-.51.47-1.12.62-1.83l1.11-5.3h2.11l-1.86,8.34c-.05.22-.11.51-.17.87-.07.36-.1.65-.1.88,0,.34.1.58.29.73.19.14.55.23,1.07.26l-.13.6h-3.49l.78-3.06-.16-.05c-.79,1.12-1.55,1.96-2.29,2.5-.74.54-1.48.81-2.23.81-.79,0-1.39-.22-1.79-.65-.41-.43-.61-1.08-.61-1.93,0-.24.02-.53.07-.86.04-.33.11-.67.19-1.03l1.03-4.33c.08-.36.14-.64.17-.85.03-.21.04-.39.04-.54,0-.37-.1-.62-.29-.77s-.55-.24-1.05-.28l.1-.61Z"/>
      <path class="cls-7" d="m178.58,415.65c-.09-.73-.3-1.26-.63-1.59s-.84-.49-1.53-.49c-.38,0-.73.07-1.04.21-.31.14-.55.35-.73.62-.18.27-.27.59-.27.96,0,.3.06.58.18.82.12.25.33.51.62.78.29.27.69.58,1.21.93.79.53,1.34,1.04,1.66,1.54s.48,1.07.48,1.72c0,.76-.18,1.41-.55,1.95-.37.53-.87.93-1.5,1.19s-1.35.39-2.15.39c-.72,0-1.39-.05-2.01-.16-.62-.11-1.23-.24-1.81-.4l.57-2.64h.95c.06.75.27,1.31.64,1.68.37.37.91.55,1.62.55s1.29-.18,1.7-.54c.41-.36.61-.84.61-1.43,0-.35-.06-.66-.18-.94s-.31-.54-.57-.79c-.26-.25-.63-.54-1.11-.87-.51-.35-.93-.68-1.25-.99-.32-.31-.56-.65-.74-1.02-.17-.37-.26-.78-.26-1.23,0-.67.17-1.26.5-1.76.33-.5.81-.87,1.42-1.13.61-.26,1.33-.39,2.15-.39,1.34,0,2.53.17,3.55.53l-.56,2.51h-.98Z"/>
      <path class="cls-7" d="m40.97,480.92c-.11.48-.18.86-.21,1.14-.03.28-.05.54-.05.76,0,.37.09.62.27.78.18.15.49.24.92.28l-.13.6h-4.88l.13-.6c.31-.05.54-.13.7-.24.15-.11.28-.26.39-.46.11-.2.2-.43.29-.71.09-.28.22-.82.4-1.63l1-4.53h-6.56l-1.01,4.61c-.07.3-.12.55-.15.74-.04.19-.06.38-.08.56-.02.18-.02.38-.02.6,0,.35.08.6.24.76.16.15.48.25.95.29l-.13.6h-4.88l.13-.6c.31-.05.54-.13.7-.24.15-.11.28-.26.39-.46.11-.2.2-.43.29-.71.09-.28.22-.82.4-1.63l2.08-9.4c.07-.33.14-.69.19-1.07.05-.38.08-.68.08-.9,0-.38-.1-.65-.29-.8s-.5-.24-.9-.26l.13-.6h4.88l-.13.6c-.31.07-.53.14-.67.22-.13.08-.26.2-.37.37-.11.16-.22.42-.33.76-.11.35-.25.91-.42,1.69l-.83,3.74h6.56l.83-3.75c.07-.33.14-.69.19-1.07.05-.38.08-.68.08-.9,0-.38-.1-.65-.29-.8s-.5-.24-.9-.26l.13-.6h4.88l-.13.6c-.28.07-.47.13-.59.18-.11.06-.22.13-.31.23-.09.1-.18.24-.27.42-.08.18-.18.45-.27.81-.1.35-.21.82-.34,1.4l-2.09,9.47Z"/>
      <path class="cls-7" d="m54.56,473.4l1.12-.8.78.2-1.87,8.29c-.11.49-.19.87-.23,1.13-.04.26-.06.48-.06.65,0,.33.09.58.28.73.19.15.54.25,1.07.29l-.11.6h-3.49l.77-3.06-.16-.05c-.78,1.14-1.52,1.97-2.22,2.5-.7.53-1.44.79-2.22.79-.9,0-1.59-.34-2.08-1.01-.49-.68-.74-1.62-.74-2.84,0-.78.09-1.56.27-2.35.18-.79.45-1.53.81-2.23.36-.7.8-1.32,1.3-1.86.5-.54,1.09-.96,1.75-1.28.66-.32,1.39-.48,2.17-.48.5,0,.98.06,1.44.18.46.12.93.33,1.42.63Zm-1.07,3.64c.07-.33.12-.62.15-.87s.04-.51.04-.79c0-.63-.13-1.1-.4-1.39s-.72-.43-1.34-.43c-.34,0-.67.05-.98.17-.31.11-.62.29-.94.55-.32.26-.62.59-.91,1.01-.29.41-.55.92-.79,1.51-.24.59-.42,1.23-.55,1.91-.13.68-.2,1.34-.2,1.98,0,.85.12,1.48.35,1.9.23.42.62.63,1.17.63.25,0,.51-.06.79-.17.27-.11.58-.32.91-.63.33-.31.71-.75,1.14-1.35.38-.54.69-1.08.91-1.62.22-.53.41-1.16.56-1.89l.11-.52Z"/>
      <path class="cls-7" d="m69.03,484.48h-3.85l1.55-6.2c.1-.4.19-.84.29-1.32.09-.48.14-.91.14-1.29,0-.58-.1-.99-.3-1.25-.2-.25-.51-.38-.93-.38-.34,0-.71.13-1.1.4-.39.26-.81.66-1.24,1.18-.43.53-.8,1.06-1.09,1.6-.3.54-.53,1.2-.69,1.97l-1.11,5.29h-2.11l1.86-8.34c.04-.19.1-.46.16-.83.07-.37.1-.67.1-.92,0-.23-.03-.4-.1-.53-.07-.13-.19-.22-.35-.28-.17-.06-.45-.1-.85-.13l.15-.65,2.77-.11h.7l-.82,3.17.15.05c.8-1.12,1.57-1.96,2.31-2.5.74-.54,1.48-.81,2.22-.81.79,0,1.39.22,1.79.65.41.44.61,1.08.61,1.93,0,.29-.03.61-.08.96-.05.35-.11.65-.18.92l-1.03,4.35c-.14.59-.21,1.05-.21,1.39,0,.24.04.44.12.57.08.14.21.24.38.32.17.07.45.13.84.17l-.1.6Z"/>
      <path class="cls-7" d="m81.52,470.46c.06-.27.12-.57.17-.89.05-.33.07-.61.07-.86s-.04-.43-.13-.55c-.09-.13-.22-.22-.38-.28-.17-.06-.47-.1-.9-.12l.15-.63,3.06-.11h.72l-3.16,14.06c-.11.51-.19.9-.23,1.15-.04.25-.06.46-.06.63,0,.33.09.58.28.73.19.15.54.25,1.07.29l-.11.6h-3.49l.77-3.06-.16-.05c-.78,1.14-1.52,1.97-2.22,2.5-.7.53-1.44.79-2.22.79-.9,0-1.59-.34-2.08-1.01-.49-.68-.74-1.62-.74-2.84,0-.78.09-1.56.27-2.35.18-.79.45-1.53.81-2.23.36-.7.8-1.32,1.3-1.86.5-.54,1.09-.96,1.75-1.28.66-.32,1.39-.48,2.17-.48.5,0,.95.05,1.37.15.42.1.85.28,1.29.53l.63-2.82Zm-1.51,6.58c.12-.59.18-1.14.18-1.66,0-.63-.13-1.1-.4-1.39s-.72-.43-1.34-.43c-.34,0-.67.05-.98.17-.31.11-.62.29-.94.55-.32.26-.62.59-.91,1.01-.29.41-.55.92-.79,1.51-.24.59-.42,1.23-.55,1.91-.13.68-.2,1.34-.2,1.98,0,.85.12,1.48.35,1.9.23.42.62.63,1.17.63.25,0,.51-.06.79-.17.27-.11.58-.32.91-.63.33-.31.71-.75,1.14-1.35.38-.54.69-1.08.91-1.62.22-.53.41-1.16.56-1.89l.11-.52Z"/>
      <path class="cls-7" d="m90.58,479h-5.33l.4-1.89h5.33l-.4,1.89Z"/>
      <path class="cls-7" d="m101.85,476.92c.39.29.71.64.95,1.05.24.41.43.97.58,1.7l.28,1.42c.06.29.12.57.19.82.07.25.15.5.24.73.09.23.2.42.31.56.11.14.23.25.35.34.13.09.27.16.43.21.16.05.36.1.6.14l-.12.6h-3.38c-.26-.72-.49-1.59-.7-2.59l-.54-2.59c-.09-.45-.2-.82-.32-1.13-.13-.31-.28-.54-.45-.71-.18-.17-.38-.28-.61-.33-.23-.05-.52-.08-.85-.08h-1.39l-.85,3.87c-.07.32-.12.57-.15.76-.03.19-.05.38-.07.59-.02.21-.03.39-.03.55,0,.25.04.45.12.59.08.14.2.25.37.31.16.06.44.11.84.15l-.13.6h-5.02l.13-.6c.31-.05.54-.13.7-.24.15-.11.28-.26.39-.46.11-.2.2-.43.29-.71.09-.28.22-.82.4-1.63l2.08-9.4c.18-.81.27-1.46.27-1.93,0-.4-.09-.68-.28-.83-.19-.15-.49-.24-.92-.27l.13-.6h5.43c.86,0,1.57.05,2.11.15.54.1,1.01.25,1.4.46.39.2.71.47.97.79.26.32.46.68.59,1.09.13.4.2.83.2,1.29,0,.72-.12,1.37-.36,1.93-.24.56-.57,1.05-.98,1.48-.42.42-.9.78-1.45,1.07-.55.29-1.13.53-1.74.72v.13Zm-2.76-.92c.89,0,1.62-.09,2.21-.26.59-.17,1.07-.44,1.46-.8.39-.36.71-.83.96-1.42.25-.59.38-1.22.38-1.9,0-.35-.03-.66-.1-.93-.07-.27-.15-.5-.26-.68-.11-.18-.24-.34-.4-.48-.16-.14-.37-.26-.61-.36-.24-.1-.53-.17-.85-.22-.32-.04-.76-.07-1.31-.07-.43,0-.89.02-1.37.05l-1.56,7.07h1.44Z"/>
      <path class="cls-7" d="m116.24,482.05c-.6.66-1.18,1.18-1.73,1.56-.55.38-1.11.66-1.66.82-.55.16-1.16.24-1.83.24s-1.2-.1-1.66-.31c-.46-.21-.85-.49-1.15-.85-.31-.36-.53-.79-.68-1.29-.15-.5-.22-1.04-.22-1.63,0-.87.16-1.8.47-2.8.31-1,.79-1.89,1.42-2.69.63-.79,1.4-1.41,2.28-1.84.89-.43,1.83-.65,2.83-.65s1.72.2,2.22.6c.49.4.74,1.02.74,1.87,0,1.38-.65,2.42-1.95,3.11-1.3.69-3.22,1.04-5.78,1.04-.1.49-.15,1.02-.15,1.59,0,.85.17,1.47.5,1.86.33.39.88.58,1.64.58s1.43-.16,2.04-.49c.61-.33,1.25-.83,1.92-1.5l.76.79Zm-6.49-3.87c.75,0,1.41-.05,1.97-.13.57-.08,1.05-.18,1.46-.32.41-.13.74-.29,1.01-.48s.48-.39.64-.62c.16-.22.27-.46.33-.71.06-.25.09-.51.09-.78,0-.5-.12-.88-.35-1.17-.23-.28-.58-.42-1.03-.42-.57,0-1.13.21-1.68.62-.55.41-1.03.96-1.45,1.66-.42.7-.75,1.48-1,2.34Z"/>
      <path class="cls-7" d="m129.13,472.81l.33.61c-.3.72-.53,1.26-.69,1.61-.16.35-.37.79-.65,1.31-.27.52-.58,1.08-.92,1.65-.34.58-.72,1.2-1.15,1.86-.43.66-.92,1.38-1.47,2.17-.55.79-1.19,1.67-1.94,2.65h-1.53l-1.14-9.22c-.07-.59-.15-1.02-.24-1.28-.09-.26-.21-.44-.37-.56-.16-.12-.42-.19-.77-.21l.13-.6h3.14l.93,9.71c1.4-1.93,2.44-3.55,3.11-4.87.68-1.32,1.01-2.39,1.01-3.21,0-.38-.08-.64-.24-.78-.16-.14-.44-.22-.83-.24l.12-.6h3.15Z"/>
      <path class="cls-7" d="m139.04,482.05c-.6.66-1.18,1.18-1.73,1.56-.55.38-1.11.66-1.66.82-.55.16-1.16.24-1.83.24s-1.2-.1-1.66-.31c-.46-.21-.85-.49-1.15-.85-.31-.36-.53-.79-.68-1.29-.15-.5-.22-1.04-.22-1.63,0-.87.16-1.8.47-2.8.31-1,.79-1.89,1.42-2.69.63-.79,1.4-1.41,2.28-1.84.89-.43,1.83-.65,2.83-.65s1.72.2,2.22.6c.49.4.74,1.02.74,1.87,0,1.38-.65,2.42-1.95,3.11-1.3.69-3.22,1.04-5.78,1.04-.1.49-.15,1.02-.15,1.59,0,.85.17,1.47.5,1.86.33.39.88.58,1.64.58s1.43-.16,2.04-.49c.61-.33,1.25-.83,1.92-1.5l.76.79Zm-6.49-3.87c.75,0,1.41-.05,1.97-.13.57-.08,1.05-.18,1.46-.32.41-.13.74-.29,1.01-.48s.48-.39.64-.62c.16-.22.27-.46.33-.71.06-.25.09-.51.09-.78,0-.5-.12-.88-.35-1.17-.23-.28-.58-.42-1.03-.42-.57,0-1.13.21-1.68.62-.55.41-1.03.96-1.45,1.66-.42.7-.75,1.48-1,2.34Z"/>
      <path class="cls-7" d="m145.39,472.7h.73l-.85,3,.15.05c.77-1.07,1.53-1.86,2.26-2.37.74-.51,1.5-.77,2.28-.77.59,0,1.09.04,1.49.13l-.59,2.73h-1.26c-.07-.42-.17-.75-.31-.96-.14-.22-.35-.33-.65-.33-.32,0-.68.16-1.1.49-.42.33-.84.77-1.27,1.34-.43.57-.75,1.09-.97,1.57-.22.48-.38,1.01-.49,1.6l-1.11,5.29h-2.11l1.86-8.34c.17-.76.26-1.35.26-1.75,0-.23-.04-.4-.11-.53-.07-.13-.19-.22-.35-.28-.16-.06-.44-.1-.83-.13l.13-.65,2.84-.11Z"/>
      <path class="cls-7" d="m158.77,475.65c-.09-.73-.3-1.26-.63-1.59s-.84-.49-1.53-.49c-.38,0-.73.07-1.04.21-.31.14-.55.35-.73.62-.18.27-.27.59-.27.96,0,.3.06.58.18.82.12.25.33.51.62.78.29.27.69.58,1.21.93.79.53,1.34,1.04,1.66,1.54s.48,1.07.48,1.72c0,.76-.18,1.41-.55,1.95-.37.53-.87.93-1.5,1.19s-1.35.39-2.15.39c-.72,0-1.39-.05-2.01-.16-.62-.11-1.23-.24-1.81-.4l.57-2.64h.95c.06.75.27,1.31.64,1.68.37.37.91.55,1.62.55s1.29-.18,1.7-.54c.41-.36.61-.84.61-1.43,0-.35-.06-.66-.18-.94s-.31-.54-.57-.79c-.26-.25-.63-.54-1.11-.87-.51-.35-.93-.68-1.25-.99-.32-.31-.56-.65-.74-1.02-.17-.37-.26-.78-.26-1.23,0-.67.17-1.26.5-1.76.33-.5.81-.87,1.42-1.13.61-.26,1.33-.39,2.15-.39,1.34,0,2.53.17,3.55.53l-.56,2.51h-.98Z"/>
      <path class="cls-7" d="m170.44,473.4l1.12-.8.78.2-1.87,8.29c-.11.49-.19.87-.23,1.13-.04.26-.06.48-.06.65,0,.33.09.58.28.73.19.15.54.25,1.07.29l-.11.6h-3.49l.77-3.06-.16-.05c-.78,1.14-1.52,1.97-2.22,2.5-.7.53-1.44.79-2.22.79-.9,0-1.59-.34-2.08-1.01-.49-.68-.74-1.62-.74-2.84,0-.78.09-1.56.27-2.35.18-.79.45-1.53.81-2.23.36-.7.8-1.32,1.3-1.86.5-.54,1.09-.96,1.75-1.28.66-.32,1.39-.48,2.17-.48.5,0,.98.06,1.44.18.46.12.93.33,1.42.63Zm-1.07,3.64c.07-.33.12-.62.15-.87s.04-.51.04-.79c0-.63-.13-1.1-.4-1.39s-.72-.43-1.34-.43c-.34,0-.67.05-.98.17-.31.11-.62.29-.94.55-.32.26-.62.59-.91,1.01-.29.41-.55.92-.79,1.51-.24.59-.42,1.23-.55,1.91-.13.68-.2,1.34-.2,1.98,0,.85.12,1.48.35,1.9.23.42.62.63,1.17.63.25,0,.51-.06.79-.17.27-.11.58-.32.91-.63.33-.31.71-.75,1.14-1.35.38-.54.69-1.08.91-1.62.22-.53.41-1.16.56-1.89l.11-.52Z"/>
      <path class="cls-7" d="m179.57,467.02h.72l-3.17,14.4c-.09.39-.15.69-.17.88-.02.2-.04.37-.04.51,0,.24.04.44.12.57.08.14.21.24.38.32.17.07.45.13.84.17l-.1.6h-3.81l3.15-14.01c.08-.36.14-.63.17-.81.03-.18.06-.35.07-.51.02-.16.02-.3.02-.43,0-.24-.04-.43-.13-.55-.09-.13-.22-.22-.38-.28-.17-.06-.47-.1-.9-.12l.15-.63,3.08-.11Z"/>
      <path class="cls-7" d="m43.43,527.82c.97,0,1.76.08,2.39.23.62.15,1.14.38,1.54.7.4.31.7.71.9,1.19.2.48.3,1.04.3,1.67,0,1.22-.29,2.28-.87,3.17-.58.9-1.36,1.55-2.35,1.98-.99.42-2.18.63-3.56.63-.83,0-1.52-.02-2.08-.05l-.78,3.59c-.07.33-.12.59-.15.77-.03.18-.05.37-.07.58-.02.21-.03.39-.03.55,0,.25.04.45.12.59.08.14.2.25.37.31.16.06.44.11.84.15l-.13.6h-5.02l.13-.6c.31-.05.54-.13.7-.24.15-.11.28-.26.39-.46.11-.2.2-.43.29-.71.09-.28.22-.82.4-1.63l2.08-9.4c.18-.81.27-1.46.27-1.93,0-.4-.09-.68-.28-.83-.19-.15-.49-.24-.92-.27l.13-.6h5.38Zm-2.25,8.51c.98,0,1.78-.1,2.39-.3.61-.2,1.1-.52,1.49-.95.39-.43.69-.93.9-1.52.21-.59.32-1.23.32-1.93s-.12-1.24-.37-1.64c-.24-.4-.59-.68-1.04-.85-.45-.17-1.02-.25-1.71-.25-.5,0-1.03.01-1.59.04l-1.66,7.4h1.27Z"/>
      <path class="cls-7" d="m53.08,532.7h.73l-.85,3,.15.05c.77-1.07,1.53-1.86,2.26-2.37.74-.51,1.5-.77,2.28-.77.59,0,1.09.04,1.49.13l-.59,2.73h-1.26c-.07-.42-.17-.75-.31-.96-.14-.22-.35-.33-.65-.33-.32,0-.68.16-1.1.49-.42.33-.84.77-1.27,1.34-.43.57-.75,1.09-.97,1.57-.22.48-.38,1.01-.49,1.6l-1.11,5.29h-2.11l1.86-8.34c.17-.76.26-1.35.26-1.75,0-.23-.04-.4-.11-.53-.07-.13-.19-.22-.35-.28-.16-.06-.44-.1-.83-.13l.13-.65,2.84-.11Z"/>
      <path class="cls-7" d="m63.15,544.68c-1.26,0-2.24-.35-2.94-1.06-.7-.71-1.04-1.73-1.04-3.05,0-.49.06-1.06.18-1.72.15-.86.37-1.61.66-2.27.37-.82.84-1.53,1.41-2.13.57-.6,1.23-1.05,1.98-1.37.74-.31,1.54-.47,2.4-.47.94,0,1.7.18,2.3.54.6.36,1.03.84,1.3,1.46s.4,1.32.4,2.13c0,.72-.1,1.5-.31,2.32-.29,1.2-.72,2.23-1.28,3.06-.56.84-1.27,1.47-2.11,1.91-.85.44-1.83.65-2.95.65Zm-1.84-3.59c0,.89.19,1.56.56,1.98.37.43.93.64,1.68.64.8,0,1.51-.36,2.12-1.07.62-.72,1.11-1.72,1.46-3.01.36-1.29.54-2.42.54-3.4,0-.88-.17-1.54-.51-1.98-.34-.44-.88-.67-1.6-.67-.85,0-1.58.35-2.22,1.06-.63.71-1.13,1.72-1.49,3.04-.36,1.32-.54,2.45-.54,3.41Z"/>
      <path class="cls-7" d="m73.44,546.64c-.08.39-.13.69-.15.9-.02.21-.03.39-.03.52,0,.24.04.44.12.57.08.14.21.24.38.32.17.07.45.13.84.17l-.1.6h-3.77l3.09-13.57c.15-.68.23-1.27.23-1.76,0-.23-.03-.4-.1-.53-.07-.13-.19-.22-.35-.28-.17-.06-.45-.1-.85-.13l.15-.65,2.77-.11h.7l-.82,3.17.15.05c1.51-2.21,3-3.31,4.49-3.31.89,0,1.58.34,2.07,1.01.49.67.74,1.63.74,2.86,0,.88-.12,1.76-.36,2.65-.24.89-.57,1.69-1,2.41-.43.72-.9,1.3-1.43,1.76-.53.46-1.08.8-1.66,1.03-.58.23-1.19.34-1.84.34-1.08,0-1.98-.24-2.7-.71l-.56,2.67Zm1.46-6.41c-.08.43-.13.76-.15.99-.02.23-.03.45-.03.67,0,.63.14,1.1.41,1.39.27.29.74.43,1.41.43.42,0,.8-.08,1.15-.24.35-.16.68-.4,1-.71.31-.31.6-.68.85-1.12.25-.44.48-.95.68-1.53.2-.58.35-1.18.45-1.79.1-.61.15-1.19.15-1.73,0-.85-.12-1.49-.36-1.91-.24-.42-.62-.63-1.14-.63-.42,0-.82.14-1.23.42-.4.28-.84.73-1.32,1.35-.48.62-.85,1.23-1.12,1.83s-.48,1.29-.63,2.08l-.1.51Z"/>
      <path class="cls-7" d="m90.58,539h-5.33l.4-1.89h5.33l-.4,1.89Z"/>
      <path class="cls-7" d="m101.85,536.92c.39.29.71.64.95,1.05.24.41.43.97.58,1.7l.28,1.42c.06.29.12.57.19.82.07.25.15.5.24.73.09.23.2.42.31.56.11.14.23.25.35.34.13.09.27.16.43.21.16.05.36.1.6.14l-.12.6h-3.38c-.26-.72-.49-1.59-.7-2.59l-.54-2.59c-.09-.45-.2-.82-.32-1.13-.13-.31-.28-.54-.45-.71-.18-.17-.38-.28-.61-.33-.23-.05-.52-.08-.85-.08h-1.39l-.85,3.87c-.07.32-.12.57-.15.76-.03.19-.05.38-.07.59-.02.21-.03.39-.03.55,0,.25.04.45.12.59.08.14.2.25.37.31.16.06.44.11.84.15l-.13.6h-5.02l.13-.6c.31-.05.54-.13.7-.24.15-.11.28-.26.39-.46.11-.2.2-.43.29-.71.09-.28.22-.82.4-1.63l2.08-9.4c.18-.81.27-1.46.27-1.93,0-.4-.09-.68-.28-.83-.19-.15-.49-.24-.92-.27l.13-.6h5.43c.86,0,1.57.05,2.11.15.54.1,1.01.25,1.4.46.39.2.71.47.97.79.26.32.46.68.59,1.09.13.4.2.83.2,1.29,0,.72-.12,1.37-.36,1.93-.24.56-.57,1.05-.98,1.48-.42.42-.9.78-1.45,1.07-.55.29-1.13.53-1.74.72v.13Zm-2.76-.92c.89,0,1.62-.09,2.21-.26.59-.17,1.07-.44,1.46-.8.39-.36.71-.83.96-1.42.25-.59.38-1.22.38-1.9,0-.35-.03-.66-.1-.93-.07-.27-.15-.5-.26-.68-.11-.18-.24-.34-.4-.48-.16-.14-.37-.26-.61-.36-.24-.1-.53-.17-.85-.22-.32-.04-.76-.07-1.31-.07-.43,0-.89.02-1.37.05l-1.56,7.07h1.44Z"/>
      <path class="cls-7" d="m116.24,542.05c-.6.66-1.18,1.18-1.73,1.56-.55.38-1.11.66-1.66.82-.55.16-1.16.24-1.83.24s-1.2-.1-1.66-.31c-.46-.21-.85-.49-1.15-.85-.31-.36-.53-.79-.68-1.29-.15-.5-.22-1.04-.22-1.63,0-.87.16-1.8.47-2.8.31-1,.79-1.89,1.42-2.69.63-.79,1.4-1.41,2.28-1.84.89-.43,1.83-.65,2.83-.65s1.72.2,2.22.6c.49.4.74,1.02.74,1.87,0,1.38-.65,2.42-1.95,3.11-1.3.69-3.22,1.04-5.78,1.04-.1.49-.15,1.02-.15,1.59,0,.85.17,1.47.5,1.86.33.39.88.58,1.64.58s1.43-.16,2.04-.49c.61-.33,1.25-.83,1.92-1.5l.76.79Zm-6.49-3.87c.75,0,1.41-.05,1.97-.13.57-.08,1.05-.18,1.46-.32.41-.13.74-.29,1.01-.48s.48-.39.64-.62c.16-.22.27-.46.33-.71.06-.25.09-.51.09-.78,0-.5-.12-.88-.35-1.17-.23-.28-.58-.42-1.03-.42-.57,0-1.13.21-1.68.62-.55.41-1.03.96-1.45,1.66-.42.7-.75,1.48-1,2.34Z"/>
      <path class="cls-7" d="m129.13,532.81l.33.61c-.3.72-.53,1.26-.69,1.61-.16.35-.37.79-.65,1.31-.27.52-.58,1.08-.92,1.65-.34.58-.72,1.2-1.15,1.86-.43.66-.92,1.38-1.47,2.17-.55.79-1.19,1.67-1.94,2.65h-1.53l-1.14-9.22c-.07-.59-.15-1.02-.24-1.28-.09-.26-.21-.44-.37-.56-.16-.12-.42-.19-.77-.21l.13-.6h3.14l.93,9.71c1.4-1.93,2.44-3.55,3.11-4.87.68-1.32,1.01-2.39,1.01-3.21,0-.38-.08-.64-.24-.78-.16-.14-.44-.22-.83-.24l.12-.6h3.15Z"/>
      <path class="cls-7" d="m139.04,542.05c-.6.66-1.18,1.18-1.73,1.56-.55.38-1.11.66-1.66.82-.55.16-1.16.24-1.83.24s-1.2-.1-1.66-.31c-.46-.21-.85-.49-1.15-.85-.31-.36-.53-.79-.68-1.29-.15-.5-.22-1.04-.22-1.63,0-.87.16-1.8.47-2.8.31-1,.79-1.89,1.42-2.69.63-.79,1.4-1.41,2.28-1.84.89-.43,1.83-.65,2.83-.65s1.72.2,2.22.6c.49.4.74,1.02.74,1.87,0,1.38-.65,2.42-1.95,3.11-1.3.69-3.22,1.04-5.78,1.04-.1.49-.15,1.02-.15,1.59,0,.85.17,1.47.5,1.86.33.39.88.58,1.64.58s1.43-.16,2.04-.49c.61-.33,1.25-.83,1.92-1.5l.76.79Zm-6.49-3.87c.75,0,1.41-.05,1.97-.13.57-.08,1.05-.18,1.46-.32.41-.13.74-.29,1.01-.48s.48-.39.64-.62c.16-.22.27-.46.33-.71.06-.25.09-.51.09-.78,0-.5-.12-.88-.35-1.17-.23-.28-.58-.42-1.03-.42-.57,0-1.13.21-1.68.62-.55.41-1.03.96-1.45,1.66-.42.7-.75,1.48-1,2.34Z"/>
      <path class="cls-7" d="m145.39,532.7h.73l-.85,3,.15.05c.77-1.07,1.53-1.86,2.26-2.37.74-.51,1.5-.77,2.28-.77.59,0,1.09.04,1.49.13l-.59,2.73h-1.26c-.07-.42-.17-.75-.31-.96-.14-.22-.35-.33-.65-.33-.32,0-.68.16-1.1.49-.42.33-.84.77-1.27,1.34-.43.57-.75,1.09-.97,1.57-.22.48-.38,1.01-.49,1.6l-1.11,5.29h-2.11l1.86-8.34c.17-.76.26-1.35.26-1.75,0-.23-.04-.4-.11-.53-.07-.13-.19-.22-.35-.28-.16-.06-.44-.1-.83-.13l.13-.65,2.84-.11Z"/>
      <path class="cls-7" d="m158.77,535.65c-.09-.73-.3-1.26-.63-1.59s-.84-.49-1.53-.49c-.38,0-.73.07-1.04.21-.31.14-.55.35-.73.62-.18.27-.27.59-.27.96,0,.3.06.58.18.82.12.25.33.51.62.78.29.27.69.58,1.21.93.79.53,1.34,1.04,1.66,1.54s.48,1.07.48,1.72c0,.76-.18,1.41-.55,1.95-.37.53-.87.93-1.5,1.19s-1.35.39-2.15.39c-.72,0-1.39-.05-2.01-.16-.62-.11-1.23-.24-1.81-.4l.57-2.64h.95c.06.75.27,1.31.64,1.68.37.37.91.55,1.62.55s1.29-.18,1.7-.54c.41-.36.61-.84.61-1.43,0-.35-.06-.66-.18-.94s-.31-.54-.57-.79c-.26-.25-.63-.54-1.11-.87-.51-.35-.93-.68-1.25-.99-.32-.31-.56-.65-.74-1.02-.17-.37-.26-.78-.26-1.23,0-.67.17-1.26.5-1.76.33-.5.81-.87,1.42-1.13.61-.26,1.33-.39,2.15-.39,1.34,0,2.53.17,3.55.53l-.56,2.51h-.98Z"/>
      <path class="cls-7" d="m170.44,533.4l1.12-.8.78.2-1.87,8.29c-.11.49-.19.87-.23,1.13-.04.26-.06.48-.06.65,0,.33.09.58.28.73.19.15.54.25,1.07.29l-.11.6h-3.49l.77-3.06-.16-.05c-.78,1.14-1.52,1.97-2.22,2.5-.7.53-1.44.79-2.22.79-.9,0-1.59-.34-2.08-1.01-.49-.68-.74-1.62-.74-2.84,0-.78.09-1.56.27-2.35.18-.79.45-1.53.81-2.23.36-.7.8-1.32,1.3-1.86.5-.54,1.09-.96,1.75-1.28.66-.32,1.39-.48,2.17-.48.5,0,.98.06,1.44.18.46.12.93.33,1.42.63Zm-1.07,3.64c.07-.33.12-.62.15-.87s.04-.51.04-.79c0-.63-.13-1.1-.4-1.39s-.72-.43-1.34-.43c-.34,0-.67.05-.98.17-.31.11-.62.29-.94.55-.32.26-.62.59-.91,1.01-.29.41-.55.92-.79,1.51-.24.59-.42,1.23-.55,1.91-.13.68-.2,1.34-.2,1.98,0,.85.12,1.48.35,1.9.23.42.62.63,1.17.63.25,0,.51-.06.79-.17.27-.11.58-.32.91-.63.33-.31.71-.75,1.14-1.35.38-.54.69-1.08.91-1.62.22-.53.41-1.16.56-1.89l.11-.52Z"/>
      <path class="cls-7" d="m179.57,527.02h.72l-3.17,14.4c-.09.39-.15.69-.17.88-.02.2-.04.37-.04.51,0,.24.04.44.12.57.08.14.21.24.38.32.17.07.45.13.84.17l-.1.6h-3.81l3.15-14.01c.08-.36.14-.63.17-.81.03-.18.06-.35.07-.51.02-.16.02-.3.02-.43,0-.24-.04-.43-.13-.55-.09-.13-.22-.22-.38-.28-.17-.06-.47-.1-.9-.12l.15-.63,3.08-.11Z"/>
      <path class="cls-7" d="m48.95,600.92c-.06.24-.1.45-.13.62-.03.17-.06.38-.09.63s-.04.47-.04.65c0,.25.04.45.12.59.08.14.2.25.37.31.16.06.44.11.84.15l-.13.6h-5.02l.13-.6c.31-.05.54-.13.7-.24.15-.11.28-.26.39-.46.11-.2.2-.43.29-.71.09-.28.22-.82.4-1.63l2.08-9.4c.18-.81.27-1.46.27-1.93,0-.4-.09-.68-.28-.83-.19-.15-.49-.24-.92-.27l.13-.6h11.01l-.84,3.75h-1.17c-.03-.58-.08-1.03-.13-1.36-.06-.33-.13-.58-.21-.74-.08-.16-.18-.28-.29-.36-.11-.08-.24-.13-.4-.16-.16-.03-.38-.05-.68-.05h-3.76l-1.45,6.64h2.28c.36,0,.65-.05.89-.15.24-.1.46-.28.66-.53.2-.26.46-.69.76-1.31h1.11l-1.18,5.15h-1.07c0-.5-.01-.9-.03-1.18-.02-.28-.07-.48-.15-.6-.08-.11-.19-.19-.33-.24-.14-.04-.4-.07-.77-.07h-2.39l-.96,4.32Z"/>
      <path class="cls-7" d="m59.16,592.81h3.85l-1.55,6.21c-.11.46-.21.91-.3,1.36-.08.45-.13.87-.13,1.24,0,.58.1.99.3,1.25.2.25.51.38.93.38.35,0,.73-.14,1.14-.41.41-.27.84-.7,1.29-1.27.46-.57.82-1.12,1.08-1.63.26-.51.47-1.12.62-1.83l1.11-5.3h2.11l-1.86,8.34c-.05.22-.11.51-.17.87-.07.36-.1.65-.1.88,0,.34.1.58.29.73.19.14.55.23,1.07.26l-.13.6h-3.49l.78-3.06-.16-.05c-.79,1.12-1.55,1.96-2.29,2.5-.74.54-1.48.81-2.23.81-.79,0-1.39-.22-1.79-.65-.41-.43-.61-1.08-.61-1.93,0-.24.02-.53.07-.86.04-.33.11-.67.19-1.03l1.03-4.33c.08-.36.14-.64.17-.85.03-.21.04-.39.04-.54,0-.37-.1-.62-.29-.77s-.55-.24-1.05-.28l.1-.61Z"/>
      <path class="cls-7" d="m76.83,587.02h.72l-3.17,14.4c-.09.39-.15.69-.17.88-.02.2-.04.37-.04.51,0,.24.04.44.12.57.08.14.21.24.38.32.17.07.45.13.84.17l-.1.6h-3.81l3.15-14.01c.08-.36.14-.63.17-.81.03-.18.06-.35.07-.51.02-.16.02-.3.02-.43,0-.24-.04-.43-.13-.55-.09-.13-.22-.22-.38-.28-.17-.06-.47-.1-.9-.12l.15-.63,3.08-.11Z"/>
      <path class="cls-7" d="m83.5,587.02h.72l-3.17,14.4c-.09.39-.15.69-.17.88-.02.2-.04.37-.04.51,0,.24.04.44.12.57.08.14.21.24.38.32.17.07.45.13.84.17l-.1.6h-3.81l3.15-14.01c.08-.36.14-.63.17-.81.03-.18.06-.35.07-.51.02-.16.02-.3.02-.43,0-.24-.04-.43-.13-.55-.09-.13-.22-.22-.38-.28-.17-.06-.47-.1-.9-.12l.15-.63,3.08-.11Z"/>
      <path class="cls-7" d="m90.58,599h-5.33l.4-1.89h5.33l-.4,1.89Z"/>
      <path class="cls-7" d="m101.85,596.92c.39.29.71.64.95,1.05.24.41.43.97.58,1.7l.28,1.42c.06.29.12.57.19.82.07.25.15.5.24.73.09.23.2.42.31.56.11.14.23.25.35.34.13.09.27.16.43.21.16.05.36.1.6.14l-.12.6h-3.38c-.26-.72-.49-1.59-.7-2.59l-.54-2.59c-.09-.45-.2-.82-.32-1.13-.13-.31-.28-.54-.45-.71-.18-.17-.38-.28-.61-.33-.23-.05-.52-.08-.85-.08h-1.39l-.85,3.87c-.07.32-.12.57-.15.76-.03.19-.05.38-.07.59-.02.21-.03.39-.03.55,0,.25.04.45.12.59.08.14.2.25.37.31.16.06.44.11.84.15l-.13.6h-5.02l.13-.6c.31-.05.54-.13.7-.24.15-.11.28-.26.39-.46.11-.2.2-.43.29-.71.09-.28.22-.82.4-1.63l2.08-9.4c.18-.81.27-1.46.27-1.93,0-.4-.09-.68-.28-.83-.19-.15-.49-.24-.92-.27l.13-.6h5.43c.86,0,1.57.05,2.11.15.54.1,1.01.25,1.4.46.39.2.71.47.97.79.26.32.46.68.59,1.09.13.4.2.83.2,1.29,0,.72-.12,1.37-.36,1.93-.24.56-.57,1.05-.98,1.48-.42.42-.9.78-1.45,1.07-.55.29-1.13.53-1.74.72v.13Zm-2.76-.92c.89,0,1.62-.09,2.21-.26.59-.17,1.07-.44,1.46-.8.39-.36.71-.83.96-1.42.25-.59.38-1.22.38-1.9,0-.35-.03-.66-.1-.93-.07-.27-.15-.5-.26-.68-.11-.18-.24-.34-.4-.48-.16-.14-.37-.26-.61-.36-.24-.1-.53-.17-.85-.22-.32-.04-.76-.07-1.31-.07-.43,0-.89.02-1.37.05l-1.56,7.07h1.44Z"/>
      <path class="cls-7" d="m116.24,602.05c-.6.66-1.18,1.18-1.73,1.56-.55.38-1.11.65-1.66.82-.55.16-1.16.24-1.83.24s-1.2-.1-1.66-.31c-.46-.21-.85-.49-1.15-.85-.31-.36-.53-.79-.68-1.29-.15-.5-.22-1.04-.22-1.63,0-.87.16-1.8.47-2.8.31-1,.79-1.89,1.42-2.69.63-.79,1.4-1.41,2.28-1.84.89-.43,1.83-.65,2.83-.65s1.72.2,2.22.6c.49.4.74,1.02.74,1.87,0,1.38-.65,2.42-1.95,3.11-1.3.69-3.22,1.04-5.78,1.04-.1.49-.15,1.02-.15,1.59,0,.85.17,1.47.5,1.86.33.39.88.58,1.64.58s1.43-.16,2.04-.49c.61-.33,1.25-.83,1.92-1.5l.76.79Zm-6.49-3.87c.75,0,1.41-.05,1.97-.13.57-.08,1.05-.18,1.46-.32.41-.13.74-.29,1.01-.48s.48-.39.64-.62c.16-.22.27-.46.33-.71.06-.25.09-.51.09-.78,0-.5-.12-.88-.35-1.17-.23-.28-.58-.42-1.03-.42-.57,0-1.13.21-1.68.62-.55.41-1.03.96-1.45,1.66-.42.7-.75,1.48-1,2.34Z"/>
      <path class="cls-7" d="m129.13,592.81l.33.61c-.3.72-.53,1.26-.69,1.61-.16.35-.37.79-.65,1.31-.27.52-.58,1.08-.92,1.65-.34.58-.72,1.2-1.15,1.86-.43.66-.92,1.38-1.47,2.17-.55.79-1.19,1.67-1.94,2.65h-1.53l-1.14-9.22c-.07-.59-.15-1.02-.24-1.28-.09-.26-.21-.44-.37-.56-.16-.12-.42-.19-.77-.21l.13-.6h3.14l.93,9.71c1.4-1.93,2.44-3.55,3.11-4.87.68-1.32,1.01-2.39,1.01-3.21,0-.38-.08-.64-.24-.78-.16-.14-.44-.22-.83-.24l.12-.6h3.15Z"/>
      <path class="cls-7" d="m139.04,602.05c-.6.66-1.18,1.18-1.73,1.56-.55.38-1.11.65-1.66.82-.55.16-1.16.24-1.83.24s-1.2-.1-1.66-.31c-.46-.21-.85-.49-1.15-.85-.31-.36-.53-.79-.68-1.29-.15-.5-.22-1.04-.22-1.63,0-.87.16-1.8.47-2.8.31-1,.79-1.89,1.42-2.69.63-.79,1.4-1.41,2.28-1.84.89-.43,1.83-.65,2.83-.65s1.72.2,2.22.6c.49.4.74,1.02.74,1.87,0,1.38-.65,2.42-1.95,3.11-1.3.69-3.22,1.04-5.78,1.04-.1.49-.15,1.02-.15,1.59,0,.85.17,1.47.5,1.86.33.39.88.58,1.64.58s1.43-.16,2.04-.49c.61-.33,1.25-.83,1.92-1.5l.76.79Zm-6.49-3.87c.75,0,1.41-.05,1.97-.13.57-.08,1.05-.18,1.46-.32.41-.13.74-.29,1.01-.48s.48-.39.64-.62c.16-.22.27-.46.33-.71.06-.25.09-.51.09-.78,0-.5-.12-.88-.35-1.17-.23-.28-.58-.42-1.03-.42-.57,0-1.13.21-1.68.62-.55.41-1.03.96-1.45,1.66-.42.7-.75,1.48-1,2.34Z"/>
      <path class="cls-7" d="m145.39,592.7h.73l-.85,3,.15.05c.77-1.07,1.53-1.86,2.26-2.37.74-.51,1.5-.77,2.28-.77.59,0,1.09.04,1.49.13l-.59,2.73h-1.26c-.07-.42-.17-.75-.31-.96-.14-.22-.35-.33-.65-.33-.32,0-.68.16-1.1.49-.42.33-.84.77-1.27,1.34-.43.57-.75,1.09-.97,1.57-.22.48-.38,1.01-.49,1.6l-1.11,5.28h-2.11l1.86-8.34c.17-.76.26-1.35.26-1.75,0-.23-.04-.4-.11-.53-.07-.13-.19-.22-.35-.28-.16-.06-.44-.1-.83-.13l.13-.65,2.84-.11Z"/>
      <path class="cls-7" d="m158.77,595.65c-.09-.73-.3-1.26-.63-1.59s-.84-.49-1.53-.49c-.38,0-.73.07-1.04.21-.31.14-.55.35-.73.62-.18.27-.27.59-.27.96,0,.3.06.58.18.82.12.25.33.51.62.78.29.27.69.58,1.21.93.79.53,1.34,1.04,1.66,1.54s.48,1.07.48,1.72c0,.76-.18,1.41-.55,1.95-.37.53-.87.93-1.5,1.19s-1.35.39-2.15.39c-.72,0-1.39-.05-2.01-.16-.62-.11-1.23-.24-1.81-.4l.57-2.64h.95c.06.75.27,1.31.64,1.68.37.37.91.55,1.62.55s1.29-.18,1.7-.54c.41-.36.61-.84.61-1.43,0-.35-.06-.66-.18-.94s-.31-.54-.57-.79c-.26-.25-.63-.54-1.11-.87-.51-.35-.93-.68-1.25-.99-.32-.31-.56-.65-.74-1.02-.17-.37-.26-.78-.26-1.23,0-.67.17-1.26.5-1.76.33-.5.81-.87,1.42-1.13.61-.26,1.33-.39,2.15-.39,1.34,0,2.53.17,3.55.53l-.56,2.51h-.98Z"/>
      <path class="cls-7" d="m170.44,593.4l1.12-.8.78.2-1.87,8.29c-.11.49-.19.87-.23,1.13-.04.26-.06.48-.06.65,0,.33.09.58.28.73.19.15.54.25,1.07.29l-.11.6h-3.49l.77-3.06-.16-.05c-.78,1.14-1.52,1.97-2.22,2.5-.7.53-1.44.79-2.22.79-.9,0-1.59-.34-2.08-1.01-.49-.68-.74-1.62-.74-2.84,0-.78.09-1.56.27-2.35.18-.79.45-1.53.81-2.23.36-.7.8-1.32,1.3-1.86.5-.54,1.09-.96,1.75-1.28.66-.32,1.39-.48,2.17-.48.5,0,.98.06,1.44.18.46.12.93.33,1.42.63Zm-1.07,3.64c.07-.33.12-.62.15-.87s.04-.51.04-.79c0-.63-.13-1.1-.4-1.39s-.72-.43-1.34-.43c-.34,0-.67.05-.98.17-.31.11-.62.29-.94.55-.32.26-.62.59-.91,1.01-.29.41-.55.92-.79,1.51-.24.59-.42,1.23-.55,1.91-.13.68-.2,1.34-.2,1.98,0,.85.12,1.48.35,1.9.23.42.62.63,1.17.63.25,0,.51-.06.79-.17.27-.11.58-.32.91-.63.33-.31.71-.75,1.14-1.35.38-.54.69-1.08.91-1.62.22-.53.41-1.16.56-1.89l.11-.52Z"/>
      <path class="cls-7" d="m179.57,587.02h.72l-3.17,14.4c-.09.39-.15.69-.17.88-.02.2-.04.37-.04.51,0,.24.04.44.12.57.08.14.21.24.38.32.17.07.45.13.84.17l-.1.6h-3.81l3.15-14.01c.08-.36.14-.63.17-.81.03-.18.06-.35.07-.51.02-.16.02-.3.02-.43,0-.24-.04-.43-.13-.55-.09-.13-.22-.22-.38-.28-.17-.06-.47-.1-.9-.12l.15-.63,3.08-.11Z"/>
    </g>
    <g>
      <path class="cls-7" d="m435.01,411.93l-.73,3.31h-1.17c-.07-1-.28-1.72-.65-2.17-.37-.44-.97-.67-1.79-.67-.68,0-1.33.2-1.93.6-.6.4-1.17.99-1.71,1.75s-1.01,1.65-1.4,2.67c-.4,1.02-.7,2.06-.92,3.12-.21,1.06-.32,2.02-.32,2.88,0,1.33.22,2.3.65,2.92.44.62,1.12.93,2.04.93.61,0,1.14-.09,1.6-.27.46-.18.88-.49,1.28-.93.4-.44.79-1.04,1.18-1.83h1.17l-.74,3.47c-.83.23-1.63.39-2.4.49-.77.1-1.57.15-2.38.15-1.01,0-1.87-.21-2.58-.63-.71-.42-1.24-1.03-1.6-1.82-.36-.79-.54-1.75-.54-2.86,0-.59.04-1.16.12-1.71.1-.68.25-1.43.46-2.23.27-1,.61-1.91,1.01-2.73.44-.87.94-1.64,1.5-2.31.53-.62,1.1-1.13,1.72-1.55.57-.38,1.18-.68,1.84-.89.66-.21,1.36-.32,2.1-.32s1.43.04,2.06.13c.63.09,1.33.25,2.11.49Z"/>
      <path class="cls-7" d="m438.68,428.37c-1.26,0-2.24-.35-2.94-1.06-.7-.71-1.04-1.73-1.04-3.05,0-.49.06-1.06.18-1.72.15-.86.37-1.61.66-2.27.37-.82.84-1.53,1.41-2.13.57-.6,1.23-1.05,1.98-1.37.74-.31,1.54-.47,2.4-.47.94,0,1.7.18,2.3.54.6.36,1.03.84,1.3,1.46s.4,1.32.4,2.13c0,.72-.1,1.5-.31,2.32-.29,1.2-.72,2.23-1.28,3.06-.56.84-1.27,1.47-2.11,1.91-.85.44-1.83.65-2.95.65Zm-1.84-3.59c0,.89.19,1.56.56,1.98.37.43.93.64,1.68.64.8,0,1.51-.36,2.12-1.07.62-.72,1.11-1.72,1.46-3.01.36-1.29.54-2.42.54-3.4,0-.88-.17-1.54-.51-1.98-.34-.44-.88-.67-1.6-.67-.85,0-1.58.35-2.22,1.06-.63.71-1.13,1.72-1.49,3.04-.36,1.32-.54,2.45-.54,3.41Z"/>
      <path class="cls-7" d="m457.87,428.17h-3.85l1.55-6.2c.1-.4.19-.84.29-1.32.09-.48.14-.91.14-1.29,0-.58-.1-.99-.3-1.25-.2-.25-.51-.38-.93-.38-.34,0-.71.13-1.1.4-.39.26-.81.66-1.24,1.18-.43.53-.8,1.06-1.09,1.6-.3.54-.53,1.2-.69,1.97l-1.11,5.29h-2.11l1.86-8.34c.04-.19.1-.46.16-.83.07-.37.1-.67.1-.92,0-.23-.03-.4-.1-.53-.07-.13-.19-.22-.35-.28-.17-.06-.45-.1-.85-.13l.15-.65,2.77-.11h.7l-.82,3.17.15.05c.8-1.12,1.57-1.96,2.31-2.5.74-.54,1.48-.81,2.22-.81.79,0,1.39.22,1.79.65.41.44.61,1.08.61,1.93,0,.29-.03.61-.08.96-.05.35-.11.65-.18.92l-1.03,4.35c-.14.59-.21,1.05-.21,1.39,0,.24.04.44.12.57.08.14.21.24.38.32.17.07.45.13.84.17l-.1.6Z"/>
      <path class="cls-7" d="m467.97,425.92c-.67.81-1.33,1.41-1.98,1.83-.65.41-1.34.62-2.08.62-.86,0-1.51-.22-1.93-.66-.42-.44-.63-1.08-.63-1.92,0-.51.07-1.09.22-1.72l1.51-6.34h-1.82l.13-.62c.48-.06.86-.16,1.14-.31.28-.15.52-.35.71-.6.19-.25.37-.57.53-.97.16-.4.37-.98.61-1.75h1.68l-.67,3.02h3.87l-.27,1.23h-3.88l-1.17,4.74c-.33,1.32-.49,2.3-.49,2.96,0,.5.11.87.32,1.13.22.26.53.38.95.38.37,0,.77-.14,1.18-.43.41-.29.86-.73,1.35-1.31l.71.73Z"/>
      <path class="cls-7" d="m472.18,425.11c-.09.42-.15.72-.17.91-.02.19-.04.35-.04.48,0,.24.04.44.12.57.08.14.21.24.38.32.17.07.45.13.84.17l-.11.6h-3.78l1.84-8.23c.11-.47.18-.85.22-1.13.04-.28.06-.51.06-.7,0-.24-.03-.42-.1-.55-.07-.13-.19-.23-.35-.29-.16-.07-.44-.11-.84-.12l.13-.65,2.98-.11h.72l-1.9,8.73Zm3.02-13.4l-.56,2.37h-2.16l.56-2.37h2.16Z"/>
      <path class="cls-7" d="m486.65,428.17h-3.85l1.55-6.2c.1-.4.19-.84.29-1.32.09-.48.14-.91.14-1.29,0-.58-.1-.99-.3-1.25-.2-.25-.51-.38-.93-.38-.34,0-.71.13-1.1.4-.39.26-.81.66-1.24,1.18-.43.53-.8,1.06-1.09,1.6-.3.54-.53,1.2-.69,1.97l-1.11,5.29h-2.11l1.86-8.34c.04-.19.1-.46.16-.83.07-.37.1-.67.1-.92,0-.23-.03-.4-.1-.53-.07-.13-.19-.22-.35-.28-.17-.06-.45-.1-.85-.13l.15-.65,2.77-.11h.7l-.82,3.17.15.05c.8-1.12,1.57-1.96,2.31-2.5.74-.54,1.48-.81,2.22-.81.79,0,1.39.22,1.79.65.41.44.61,1.08.61,1.93,0,.29-.03.61-.08.96-.05.35-.11.65-.18.92l-1.03,4.35c-.14.59-.21,1.05-.21,1.39,0,.24.04.44.12.57.08.14.21.24.38.32.17.07.45.13.84.17l-.1.6Z"/>
      <path class="cls-7" d="m490.38,416.5h3.85l-1.55,6.21c-.11.46-.21.91-.3,1.36-.08.45-.13.87-.13,1.24,0,.58.1.99.3,1.25.2.25.51.38.93.38.35,0,.73-.14,1.14-.41.41-.27.84-.7,1.29-1.27.46-.57.82-1.12,1.08-1.63.26-.51.47-1.12.62-1.83l1.11-5.3h2.11l-1.86,8.34c-.05.22-.11.51-.17.87-.07.36-.1.65-.1.88,0,.34.1.58.29.73.19.14.55.23,1.07.26l-.13.6h-3.49l.78-3.06-.16-.05c-.79,1.12-1.55,1.96-2.29,2.5-.74.54-1.48.81-2.23.81-.79,0-1.39-.22-1.79-.65-.41-.43-.61-1.08-.61-1.93,0-.24.02-.53.07-.86.04-.33.11-.67.19-1.03l1.03-4.33c.08-.36.14-.64.17-.85.03-.21.04-.39.04-.54,0-.37-.1-.62-.29-.77s-.55-.24-1.05-.28l.1-.61Z"/>
      <path class="cls-7" d="m506.89,428.37c-1.26,0-2.24-.35-2.94-1.06-.7-.71-1.04-1.73-1.04-3.05,0-.49.06-1.06.18-1.72.15-.86.37-1.61.66-2.27.37-.82.84-1.53,1.41-2.13.57-.6,1.23-1.05,1.98-1.37.74-.31,1.54-.47,2.4-.47.94,0,1.7.18,2.3.54.6.36,1.03.84,1.3,1.46s.4,1.32.4,2.13c0,.72-.1,1.5-.31,2.32-.29,1.2-.72,2.23-1.28,3.06-.56.84-1.27,1.47-2.11,1.91-.85.44-1.83.65-2.95.65Zm-1.84-3.59c0,.89.19,1.56.56,1.98.37.43.93.64,1.68.64.8,0,1.51-.36,2.12-1.07.62-.72,1.11-1.72,1.46-3.01.36-1.29.54-2.42.54-3.4,0-.88-.17-1.54-.51-1.98-.34-.44-.88-.67-1.6-.67-.85,0-1.58.35-2.22,1.06-.63.71-1.13,1.72-1.49,3.04-.36,1.32-.54,2.45-.54,3.41Z"/>
      <path class="cls-7" d="m516.43,416.5h3.85l-1.55,6.21c-.11.46-.21.91-.3,1.36-.08.45-.13.87-.13,1.24,0,.58.1.99.3,1.25.2.25.51.38.93.38.35,0,.73-.14,1.14-.41.41-.27.84-.7,1.29-1.27.46-.57.82-1.12,1.08-1.63.26-.51.47-1.12.62-1.83l1.11-5.3h2.11l-1.86,8.34c-.05.22-.11.51-.17.87-.07.36-.1.65-.1.88,0,.34.1.58.29.73.19.14.55.23,1.07.26l-.13.6h-3.49l.78-3.06-.16-.05c-.79,1.12-1.55,1.96-2.29,2.5-.74.54-1.48.81-2.23.81-.79,0-1.39-.22-1.79-.65-.41-.43-.61-1.08-.61-1.93,0-.24.02-.53.07-.86.04-.33.11-.67.19-1.03l1.03-4.33c.08-.36.14-.64.17-.85.03-.21.04-.39.04-.54,0-.37-.1-.62-.29-.77s-.55-.24-1.05-.28l.1-.61Z"/>
      <path class="cls-7" d="m536,419.34c-.09-.73-.3-1.26-.63-1.59s-.84-.49-1.53-.49c-.38,0-.73.07-1.04.21-.31.14-.55.35-.73.62-.18.27-.27.59-.27.96,0,.3.06.58.18.82.12.25.33.51.62.78.29.27.69.58,1.21.93.79.53,1.34,1.04,1.66,1.54s.48,1.07.48,1.72c0,.76-.18,1.41-.55,1.95-.37.53-.87.93-1.5,1.19s-1.35.39-2.15.39c-.72,0-1.39-.05-2.01-.16-.62-.11-1.23-.24-1.81-.4l.57-2.64h.95c.06.75.27,1.31.64,1.68.37.37.91.55,1.62.55s1.29-.18,1.7-.54c.41-.36.61-.84.61-1.43,0-.35-.06-.66-.18-.94s-.31-.54-.57-.79c-.26-.25-.63-.54-1.11-.87-.51-.35-.93-.68-1.25-.99-.32-.31-.56-.65-.74-1.02-.17-.37-.26-.78-.26-1.23,0-.67.17-1.26.5-1.76.33-.5.81-.87,1.42-1.13.61-.26,1.33-.39,2.15-.39,1.34,0,2.53.17,3.55.53l-.56,2.51h-.98Z"/>
      <path class="cls-7" d="m433.88,484.61c-.11.48-.18.86-.21,1.14-.03.28-.05.54-.05.76,0,.37.09.62.27.78.18.15.49.24.92.28l-.13.6h-4.88l.13-.6c.31-.05.54-.13.7-.24.15-.11.28-.26.39-.46.11-.2.2-.43.29-.71.09-.28.22-.82.4-1.63l1-4.53h-6.56l-1.01,4.61c-.07.3-.12.55-.15.74-.04.19-.06.38-.08.56-.02.18-.02.38-.02.6,0,.35.08.6.24.76.16.15.48.25.95.29l-.13.6h-4.88l.13-.6c.31-.05.54-.13.7-.24.15-.11.28-.26.39-.46.11-.2.2-.43.29-.71.09-.28.22-.82.4-1.63l2.08-9.4c.07-.33.14-.69.19-1.07.05-.38.08-.68.08-.9,0-.38-.1-.65-.29-.8s-.5-.24-.9-.26l.13-.6h4.88l-.13.6c-.31.07-.53.14-.67.22-.13.08-.26.2-.37.37-.11.16-.22.42-.33.76-.11.35-.25.91-.42,1.69l-.83,3.74h6.56l.83-3.75c.07-.33.14-.69.19-1.07.05-.38.08-.68.08-.9,0-.38-.1-.65-.29-.8s-.5-.24-.9-.26l.13-.6h4.88l-.13.6c-.28.07-.47.13-.59.18-.11.06-.22.13-.31.23-.09.1-.18.24-.27.42-.08.18-.18.45-.27.81-.1.35-.21.82-.34,1.4l-2.09,9.47Z"/>
      <path class="cls-7" d="m447.46,477.09l1.12-.8.78.2-1.87,8.29c-.11.49-.19.87-.23,1.13-.04.26-.06.48-.06.65,0,.33.09.58.28.73.19.15.54.25,1.07.29l-.11.6h-3.49l.77-3.06-.16-.05c-.78,1.14-1.52,1.97-2.22,2.5-.7.53-1.44.79-2.22.79-.9,0-1.59-.34-2.08-1.01-.49-.68-.74-1.62-.74-2.84,0-.78.09-1.56.27-2.35.18-.79.45-1.53.81-2.23.36-.7.8-1.32,1.3-1.86.5-.54,1.09-.96,1.75-1.28.66-.32,1.39-.48,2.17-.48.5,0,.98.06,1.44.18.46.12.93.33,1.42.63Zm-1.07,3.64c.07-.33.12-.62.15-.87s.04-.51.04-.79c0-.63-.13-1.1-.4-1.39s-.72-.43-1.34-.43c-.34,0-.67.05-.98.17-.31.11-.62.29-.94.55-.32.26-.62.59-.91,1.01-.29.41-.55.92-.79,1.51-.24.59-.42,1.23-.55,1.91-.13.68-.2,1.34-.2,1.98,0,.85.12,1.48.35,1.9.23.42.62.63,1.17.63.25,0,.51-.06.79-.17.27-.11.58-.32.91-.63.33-.31.71-.75,1.14-1.35.38-.54.69-1.08.91-1.62.22-.53.41-1.16.56-1.89l.11-.52Z"/>
      <path class="cls-7" d="m461.94,488.17h-3.85l1.55-6.2c.1-.4.19-.84.29-1.32.09-.48.14-.91.14-1.29,0-.58-.1-.99-.3-1.25-.2-.25-.51-.38-.93-.38-.34,0-.71.13-1.1.4-.39.26-.81.66-1.24,1.18-.43.53-.8,1.06-1.09,1.6-.3.54-.53,1.2-.69,1.97l-1.11,5.29h-2.11l1.86-8.34c.04-.19.1-.46.16-.83.07-.37.1-.67.1-.92,0-.23-.03-.4-.1-.53-.07-.13-.19-.22-.35-.28-.17-.06-.45-.1-.85-.13l.15-.65,2.77-.11h.7l-.82,3.17.15.05c.8-1.12,1.57-1.96,2.31-2.5.74-.54,1.48-.81,2.22-.81.79,0,1.39.22,1.79.65.41.44.61,1.08.61,1.93,0,.29-.03.61-.08.96-.05.35-.11.65-.18.92l-1.03,4.35c-.14.59-.21,1.05-.21,1.39,0,.24.04.44.12.57.08.14.21.24.38.32.17.07.45.13.84.17l-.1.6Z"/>
      <path class="cls-7" d="m474.43,474.15c.06-.27.12-.57.17-.89.05-.33.07-.61.07-.86s-.04-.43-.13-.55c-.09-.13-.22-.22-.38-.28-.17-.06-.47-.1-.9-.12l.15-.63,3.06-.11h.72l-3.16,14.06c-.11.51-.19.9-.23,1.15-.04.25-.06.46-.06.63,0,.33.09.58.28.73.19.15.54.25,1.07.29l-.11.6h-3.49l.77-3.06-.16-.05c-.78,1.14-1.52,1.97-2.22,2.5-.7.53-1.44.79-2.22.79-.9,0-1.59-.34-2.08-1.01-.49-.68-.74-1.62-.74-2.84,0-.78.09-1.56.27-2.35.18-.79.45-1.53.81-2.23.36-.7.8-1.32,1.3-1.86.5-.54,1.09-.96,1.75-1.28.66-.32,1.39-.48,2.17-.48.5,0,.95.05,1.37.15.42.1.85.28,1.29.53l.63-2.82Zm-1.51,6.58c.12-.59.18-1.14.18-1.66,0-.63-.13-1.1-.4-1.39s-.72-.43-1.34-.43c-.34,0-.67.05-.98.17-.31.11-.62.29-.94.55-.32.26-.62.59-.91,1.01-.29.41-.55.92-.79,1.51-.24.59-.42,1.23-.55,1.91-.13.68-.2,1.34-.2,1.98,0,.85.12,1.48.35,1.9.23.42.62.63,1.17.63.25,0,.51-.06.79-.17.27-.11.58-.32.91-.63.33-.31.71-.75,1.14-1.35.38-.54.69-1.08.91-1.62.22-.53.41-1.16.56-1.89l.11-.52Z"/>
      <path class="cls-7" d="m483.49,482.69h-5.33l.4-1.89h5.33l-.4,1.89Z"/>
      <path class="cls-7" d="m494.75,480.61c.39.29.71.64.95,1.05.24.41.43.97.58,1.7l.28,1.42c.06.29.12.57.19.82.07.25.15.5.24.73.09.23.2.42.31.56.11.14.23.25.35.34.13.09.27.16.43.21.16.05.36.1.6.14l-.12.6h-3.38c-.26-.72-.49-1.59-.7-2.59l-.54-2.59c-.09-.45-.2-.82-.32-1.13-.13-.31-.28-.54-.45-.71-.18-.17-.38-.28-.61-.33-.23-.05-.52-.08-.85-.08h-1.39l-.85,3.87c-.07.32-.12.57-.15.76-.03.19-.05.38-.07.59-.02.21-.03.39-.03.55,0,.25.04.45.12.59.08.14.2.25.37.31.16.06.44.11.84.15l-.13.6h-5.02l.13-.6c.31-.05.54-.13.7-.24.15-.11.28-.26.39-.46.11-.2.2-.43.29-.71.09-.28.22-.82.4-1.63l2.08-9.4c.18-.81.27-1.46.27-1.93,0-.4-.09-.68-.28-.83-.19-.15-.49-.24-.92-.27l.13-.6h5.43c.86,0,1.57.05,2.11.15.54.1,1.01.25,1.4.46.39.2.71.47.97.79.26.32.46.68.59,1.09.13.4.2.83.2,1.29,0,.72-.12,1.37-.36,1.93-.24.56-.57,1.05-.98,1.48-.42.42-.9.78-1.45,1.07-.55.29-1.13.53-1.74.72v.13Zm-2.76-.92c.89,0,1.62-.09,2.21-.26.59-.17,1.07-.44,1.46-.8.39-.36.71-.83.96-1.42.25-.59.38-1.22.38-1.9,0-.35-.03-.66-.1-.93-.07-.27-.15-.5-.26-.68-.11-.18-.24-.34-.4-.48-.16-.14-.37-.26-.61-.36-.24-.1-.53-.17-.85-.22-.32-.04-.76-.07-1.31-.07-.43,0-.89.02-1.37.05l-1.56,7.07h1.44Z"/>
      <path class="cls-7" d="m509.15,485.74c-.6.66-1.18,1.18-1.73,1.56-.55.38-1.11.66-1.66.82-.55.16-1.16.24-1.83.24s-1.2-.1-1.66-.31c-.46-.21-.85-.49-1.15-.85-.31-.36-.53-.79-.68-1.29-.15-.5-.22-1.04-.22-1.63,0-.87.16-1.8.47-2.8.31-1,.79-1.89,1.42-2.69.63-.79,1.4-1.41,2.28-1.84.89-.43,1.83-.65,2.83-.65s1.72.2,2.22.6c.49.4.74,1.02.74,1.87,0,1.38-.65,2.42-1.95,3.11-1.3.69-3.22,1.04-5.78,1.04-.1.49-.15,1.02-.15,1.59,0,.85.17,1.47.5,1.86.33.39.88.58,1.64.58s1.43-.16,2.04-.49c.61-.33,1.25-.83,1.92-1.5l.76.79Zm-6.49-3.87c.75,0,1.41-.05,1.97-.13.57-.08,1.05-.18,1.46-.32.41-.13.74-.29,1.01-.48s.48-.39.64-.62c.16-.22.27-.46.33-.71.06-.25.09-.51.09-.78,0-.5-.12-.88-.35-1.17-.23-.28-.58-.42-1.03-.42-.57,0-1.13.21-1.68.62-.55.41-1.03.96-1.45,1.66-.42.7-.75,1.48-1,2.34Z"/>
      <path class="cls-7" d="m522.04,476.5l.33.61c-.3.72-.53,1.26-.69,1.61-.16.35-.37.79-.65,1.31-.27.52-.58,1.08-.92,1.65-.34.58-.72,1.2-1.15,1.86-.43.66-.92,1.38-1.47,2.17-.55.79-1.19,1.67-1.94,2.65h-1.53l-1.14-9.22c-.07-.59-.15-1.02-.24-1.28-.09-.26-.21-.44-.37-.56-.16-.12-.42-.19-.77-.21l.13-.6h3.14l.93,9.71c1.4-1.93,2.44-3.55,3.11-4.87.68-1.32,1.01-2.39,1.01-3.21,0-.38-.08-.64-.24-.78-.16-.14-.44-.22-.83-.24l.12-.6h3.15Z"/>
      <path class="cls-7" d="m531.95,485.74c-.6.66-1.18,1.18-1.73,1.56-.55.38-1.11.66-1.66.82-.55.16-1.16.24-1.83.24s-1.2-.1-1.66-.31c-.46-.21-.85-.49-1.15-.85-.31-.36-.53-.79-.68-1.29-.15-.5-.22-1.04-.22-1.63,0-.87.16-1.8.47-2.8.31-1,.79-1.89,1.42-2.69.63-.79,1.4-1.41,2.28-1.84.89-.43,1.83-.65,2.83-.65s1.72.2,2.22.6c.49.4.74,1.02.74,1.87,0,1.38-.65,2.42-1.95,3.11-1.3.69-3.22,1.04-5.78,1.04-.1.49-.15,1.02-.15,1.59,0,.85.17,1.47.5,1.86.33.39.88.58,1.64.58s1.43-.16,2.04-.49c.61-.33,1.25-.83,1.92-1.5l.76.79Zm-6.49-3.87c.75,0,1.41-.05,1.97-.13.57-.08,1.05-.18,1.46-.32.41-.13.74-.29,1.01-.48s.48-.39.64-.62c.16-.22.27-.46.33-.71.06-.25.09-.51.09-.78,0-.5-.12-.88-.35-1.17-.23-.28-.58-.42-1.03-.42-.57,0-1.13.21-1.68.62-.55.41-1.03.96-1.45,1.66-.42.7-.75,1.48-1,2.34Z"/>
      <path class="cls-7" d="m538.3,476.39h.73l-.85,3,.15.05c.77-1.07,1.53-1.86,2.26-2.37.74-.51,1.5-.77,2.28-.77.59,0,1.09.04,1.49.13l-.59,2.73h-1.26c-.07-.42-.17-.75-.31-.96-.14-.22-.35-.33-.65-.33-.32,0-.68.16-1.1.49-.42.33-.84.77-1.27,1.34-.43.57-.75,1.09-.97,1.57-.22.48-.38,1.01-.49,1.6l-1.11,5.29h-2.11l1.86-8.34c.17-.76.26-1.35.26-1.75,0-.23-.04-.4-.11-.53-.07-.13-.19-.22-.35-.28-.16-.06-.44-.1-.83-.13l.13-.65,2.84-.11Z"/>
      <path class="cls-7" d="m551.68,479.34c-.09-.73-.3-1.26-.63-1.59s-.84-.49-1.53-.49c-.38,0-.73.07-1.04.21-.31.14-.55.35-.73.62-.18.27-.27.59-.27.96,0,.3.06.58.18.82.12.25.33.51.62.78.29.27.69.58,1.21.93.79.53,1.34,1.04,1.66,1.54s.48,1.07.48,1.72c0,.76-.18,1.41-.55,1.95-.37.53-.87.93-1.5,1.19s-1.35.39-2.15.39c-.72,0-1.39-.05-2.01-.16-.62-.11-1.23-.24-1.81-.4l.57-2.64h.95c.06.75.27,1.31.64,1.68.37.37.91.55,1.62.55s1.29-.18,1.7-.54c.41-.36.61-.84.61-1.43,0-.35-.06-.66-.18-.94s-.31-.54-.57-.79c-.26-.25-.63-.54-1.11-.87-.51-.35-.93-.68-1.25-.99-.32-.31-.56-.65-.74-1.02-.17-.37-.26-.78-.26-1.23,0-.67.17-1.26.5-1.76.33-.5.81-.87,1.42-1.13.61-.26,1.33-.39,2.15-.39,1.34,0,2.53.17,3.55.53l-.56,2.51h-.98Z"/>
      <path class="cls-7" d="m563.35,477.09l1.12-.8.78.2-1.87,8.29c-.11.49-.19.87-.23,1.13-.04.26-.06.48-.06.65,0,.33.09.58.28.73.19.15.54.25,1.07.29l-.11.6h-3.49l.77-3.06-.16-.05c-.78,1.14-1.52,1.97-2.22,2.5-.7.53-1.44.79-2.22.79-.9,0-1.59-.34-2.08-1.01-.49-.68-.74-1.62-.74-2.84,0-.78.09-1.56.27-2.35.18-.79.45-1.53.81-2.23.36-.7.8-1.32,1.3-1.86.5-.54,1.09-.96,1.75-1.28.66-.32,1.39-.48,2.17-.48.5,0,.98.06,1.44.18.46.12.93.33,1.42.63Zm-1.07,3.64c.07-.33.12-.62.15-.87s.04-.51.04-.79c0-.63-.13-1.1-.4-1.39s-.72-.43-1.34-.43c-.34,0-.67.05-.98.17-.31.11-.62.29-.94.55-.32.26-.62.59-.91,1.01-.29.41-.55.92-.79,1.51-.24.59-.42,1.23-.55,1.91-.13.68-.2,1.34-.2,1.98,0,.85.12,1.48.35,1.9.23.42.62.63,1.17.63.25,0,.51-.06.79-.17.27-.11.58-.32.91-.63.33-.31.71-.75,1.14-1.35.38-.54.69-1.08.91-1.62.22-.53.41-1.16.56-1.89l.11-.52Z"/>
      <path class="cls-7" d="m572.48,470.71h.72l-3.17,14.4c-.09.39-.15.69-.17.88-.02.2-.04.37-.04.51,0,.24.04.44.12.57.08.14.21.24.38.32.17.07.45.13.84.17l-.1.6h-3.81l3.15-14.01c.08-.36.14-.63.17-.81.03-.18.06-.35.07-.51.02-.16.02-.3.02-.43,0-.24-.04-.43-.13-.55-.09-.13-.22-.22-.38-.28-.17-.06-.47-.1-.9-.12l.15-.63,3.08-.11Z"/>
      <path class="cls-7" d="m429.65,531.5c.97,0,1.76.08,2.39.23.62.15,1.14.38,1.54.7.4.31.7.71.9,1.19.2.48.3,1.04.3,1.67,0,1.22-.29,2.28-.87,3.17-.58.9-1.36,1.55-2.35,1.98-.99.42-2.18.63-3.56.63-.83,0-1.52-.02-2.08-.05l-.78,3.59c-.07.33-.12.59-.15.77-.03.18-.05.37-.07.58-.02.21-.03.39-.03.55,0,.25.04.45.12.59.08.14.2.25.37.31.16.06.44.11.84.15l-.13.6h-5.02l.13-.6c.31-.05.54-.13.7-.24.15-.11.28-.26.39-.46.11-.2.2-.43.29-.71.09-.28.22-.82.4-1.63l2.08-9.4c.18-.81.27-1.46.27-1.93,0-.4-.09-.68-.28-.83-.19-.15-.49-.24-.92-.27l.13-.6h5.38Zm-2.25,8.51c.98,0,1.78-.1,2.39-.3.61-.2,1.1-.52,1.49-.95.39-.43.69-.93.9-1.52.21-.59.32-1.23.32-1.93s-.12-1.24-.37-1.64c-.24-.4-.59-.68-1.04-.85-.45-.17-1.02-.25-1.71-.25-.5,0-1.03.01-1.59.04l-1.66,7.4h1.27Z"/>
      <path class="cls-7" d="m439.3,536.39h.73l-.85,3,.15.05c.77-1.07,1.53-1.86,2.26-2.37.74-.51,1.5-.77,2.28-.77.59,0,1.09.04,1.49.13l-.59,2.73h-1.26c-.07-.42-.17-.75-.31-.96-.14-.22-.35-.33-.65-.33-.32,0-.68.16-1.1.49-.42.33-.84.77-1.27,1.34-.43.57-.75,1.09-.97,1.57-.22.48-.38,1.01-.49,1.6l-1.11,5.29h-2.11l1.86-8.34c.17-.76.26-1.35.26-1.75,0-.23-.04-.4-.11-.53-.07-.13-.19-.22-.35-.28-.16-.06-.44-.1-.83-.13l.13-.65,2.84-.11Z"/>
      <path class="cls-7" d="m449.37,548.37c-1.26,0-2.24-.35-2.94-1.06-.7-.71-1.04-1.73-1.04-3.05,0-.49.06-1.06.18-1.72.15-.86.37-1.61.66-2.27.37-.82.84-1.53,1.41-2.13.57-.6,1.23-1.05,1.98-1.37.74-.31,1.54-.47,2.4-.47.94,0,1.7.18,2.3.54.6.36,1.03.84,1.3,1.46s.4,1.32.4,2.13c0,.72-.1,1.5-.31,2.32-.29,1.2-.72,2.23-1.28,3.06-.56.84-1.27,1.47-2.11,1.91-.85.44-1.83.65-2.95.65Zm-1.84-3.59c0,.89.19,1.56.56,1.98.37.43.93.64,1.68.64.8,0,1.51-.36,2.12-1.07.62-.72,1.11-1.72,1.46-3.01.36-1.29.54-2.42.54-3.4,0-.88-.17-1.54-.51-1.98-.34-.44-.88-.67-1.6-.67-.85,0-1.58.35-2.22,1.06-.63.71-1.13,1.72-1.49,3.04-.36,1.32-.54,2.45-.54,3.41Z"/>
      <path class="cls-7" d="m459.66,550.33c-.08.39-.13.69-.15.9-.02.21-.03.39-.03.52,0,.24.04.44.12.57.08.14.21.24.38.32.17.07.45.13.84.17l-.1.6h-3.77l3.09-13.57c.15-.68.23-1.27.23-1.76,0-.23-.03-.4-.1-.53-.07-.13-.19-.22-.35-.28-.17-.06-.45-.1-.85-.13l.15-.65,2.77-.11h.7l-.82,3.17.15.05c1.51-2.21,3-3.31,4.49-3.31.89,0,1.58.34,2.07,1.01.49.67.74,1.63.74,2.86,0,.88-.12,1.76-.36,2.65-.24.89-.57,1.69-1,2.41-.43.72-.9,1.3-1.43,1.76-.53.46-1.08.8-1.66,1.03-.58.23-1.19.34-1.84.34-1.08,0-1.98-.24-2.7-.71l-.56,2.67Zm1.46-6.41c-.08.43-.13.76-.15.99-.02.23-.03.45-.03.67,0,.63.14,1.1.41,1.39.27.29.74.43,1.41.43.42,0,.8-.08,1.15-.24.35-.16.68-.4,1-.71.31-.31.6-.68.85-1.12.25-.44.48-.95.68-1.53.2-.58.35-1.18.45-1.79.1-.61.15-1.19.15-1.73,0-.85-.12-1.49-.36-1.91-.24-.42-.62-.63-1.14-.63-.42,0-.82.14-1.23.42-.4.28-.84.73-1.32,1.35-.48.62-.85,1.23-1.12,1.83s-.48,1.29-.63,2.08l-.1.51Z"/>
      <path class="cls-7" d="m476.8,542.69h-5.33l.4-1.89h5.33l-.4,1.89Z"/>
      <path class="cls-7" d="m488.07,540.61c.39.29.71.64.95,1.05.24.41.43.97.58,1.7l.28,1.42c.06.29.12.57.19.82.07.25.15.5.24.73.09.23.2.42.31.56.11.14.23.25.35.34.13.09.27.16.43.21.16.05.36.1.6.14l-.12.6h-3.38c-.26-.72-.49-1.59-.7-2.59l-.54-2.59c-.09-.45-.2-.82-.32-1.13-.13-.31-.28-.54-.45-.71-.18-.17-.38-.28-.61-.33-.23-.05-.52-.08-.85-.08h-1.39l-.85,3.87c-.07.32-.12.57-.15.76-.03.19-.05.38-.07.59-.02.21-.03.39-.03.55,0,.25.04.45.12.59.08.14.2.25.37.31.16.06.44.11.84.15l-.13.6h-5.02l.13-.6c.31-.05.54-.13.7-.24.15-.11.28-.26.39-.46.11-.2.2-.43.29-.71.09-.28.22-.82.4-1.63l2.08-9.4c.18-.81.27-1.46.27-1.93,0-.4-.09-.68-.28-.83-.19-.15-.49-.24-.92-.27l.13-.6h5.43c.86,0,1.57.05,2.11.15.54.1,1.01.25,1.4.46.39.2.71.47.97.79.26.32.46.68.59,1.09.13.4.2.83.2,1.29,0,.72-.12,1.37-.36,1.93-.24.56-.57,1.05-.98,1.48-.42.42-.9.78-1.45,1.07-.55.29-1.13.53-1.74.72v.13Zm-2.76-.92c.89,0,1.62-.09,2.21-.26.59-.17,1.07-.44,1.46-.8.39-.36.71-.83.96-1.42.25-.59.38-1.22.38-1.9,0-.35-.03-.66-.1-.93-.07-.27-.15-.5-.26-.68-.11-.18-.24-.34-.4-.48-.16-.14-.37-.26-.61-.36-.24-.1-.53-.17-.85-.22-.32-.04-.76-.07-1.31-.07-.43,0-.89.02-1.37.05l-1.56,7.07h1.44Z"/>
      <path class="cls-7" d="m502.46,545.74c-.6.66-1.18,1.18-1.73,1.56-.55.38-1.11.66-1.66.82-.55.16-1.16.24-1.83.24s-1.2-.1-1.66-.31c-.46-.21-.85-.49-1.15-.85-.31-.36-.53-.79-.68-1.29-.15-.5-.22-1.04-.22-1.63,0-.87.16-1.8.47-2.8.31-1,.79-1.89,1.42-2.69.63-.79,1.4-1.41,2.28-1.84.89-.43,1.83-.65,2.83-.65s1.72.2,2.22.6c.49.4.74,1.02.74,1.87,0,1.38-.65,2.42-1.95,3.11-1.3.69-3.22,1.04-5.78,1.04-.1.49-.15,1.02-.15,1.59,0,.85.17,1.47.5,1.86.33.39.88.58,1.64.58s1.43-.16,2.04-.49c.61-.33,1.25-.83,1.92-1.5l.76.79Zm-6.49-3.87c.75,0,1.41-.05,1.97-.13.57-.08,1.05-.18,1.46-.32.41-.13.74-.29,1.01-.48s.48-.39.64-.62c.16-.22.27-.46.33-.71.06-.25.09-.51.09-.78,0-.5-.12-.88-.35-1.17-.23-.28-.58-.42-1.03-.42-.57,0-1.13.21-1.68.62-.55.41-1.03.96-1.45,1.66-.42.7-.75,1.48-1,2.34Z"/>
      <path class="cls-7" d="m515.35,536.5l.33.61c-.3.72-.53,1.26-.69,1.61-.16.35-.37.79-.65,1.31-.27.52-.58,1.08-.92,1.65-.34.58-.72,1.2-1.15,1.86-.43.66-.92,1.38-1.47,2.17-.55.79-1.19,1.67-1.94,2.65h-1.53l-1.14-9.22c-.07-.59-.15-1.02-.24-1.28-.09-.26-.21-.44-.37-.56-.16-.12-.42-.19-.77-.21l.13-.6h3.14l.93,9.71c1.4-1.93,2.44-3.55,3.11-4.87.68-1.32,1.01-2.39,1.01-3.21,0-.38-.08-.64-.24-.78-.16-.14-.44-.22-.83-.24l.12-.6h3.15Z"/>
      <path class="cls-7" d="m525.26,545.74c-.6.66-1.18,1.18-1.73,1.56-.55.38-1.11.66-1.66.82-.55.16-1.16.24-1.83.24s-1.2-.1-1.66-.31c-.46-.21-.85-.49-1.15-.85-.31-.36-.53-.79-.68-1.29-.15-.5-.22-1.04-.22-1.63,0-.87.16-1.8.47-2.8.31-1,.79-1.89,1.42-2.69.63-.79,1.4-1.41,2.28-1.84.89-.43,1.83-.65,2.83-.65s1.72.2,2.22.6c.49.4.74,1.02.74,1.87,0,1.38-.65,2.42-1.95,3.11-1.3.69-3.22,1.04-5.78,1.04-.1.49-.15,1.02-.15,1.59,0,.85.17,1.47.5,1.86.33.39.88.58,1.64.58s1.43-.16,2.04-.49c.61-.33,1.25-.83,1.92-1.5l.76.79Zm-6.49-3.87c.75,0,1.41-.05,1.97-.13.57-.08,1.05-.18,1.46-.32.41-.13.74-.29,1.01-.48s.48-.39.64-.62c.16-.22.27-.46.33-.71.06-.25.09-.51.09-.78,0-.5-.12-.88-.35-1.17-.23-.28-.58-.42-1.03-.42-.57,0-1.13.21-1.68.62-.55.41-1.03.96-1.45,1.66-.42.7-.75,1.48-1,2.34Z"/>
      <path class="cls-7" d="m531.61,536.39h.73l-.85,3,.15.05c.77-1.07,1.53-1.86,2.26-2.37.74-.51,1.5-.77,2.28-.77.59,0,1.09.04,1.49.13l-.59,2.73h-1.26c-.07-.42-.17-.75-.31-.96-.14-.22-.35-.33-.65-.33-.32,0-.68.16-1.1.49-.42.33-.84.77-1.27,1.34-.43.57-.75,1.09-.97,1.57-.22.48-.38,1.01-.49,1.6l-1.11,5.29h-2.11l1.86-8.34c.17-.76.26-1.35.26-1.75,0-.23-.04-.4-.11-.53-.07-.13-.19-.22-.35-.28-.16-.06-.44-.1-.83-.13l.13-.65,2.84-.11Z"/>
      <path class="cls-7" d="m544.99,539.34c-.09-.73-.3-1.26-.63-1.59s-.84-.49-1.53-.49c-.38,0-.73.07-1.04.21-.31.14-.55.35-.73.62-.18.27-.27.59-.27.96,0,.3.06.58.18.82.12.25.33.51.62.78.29.27.69.58,1.21.93.79.53,1.34,1.04,1.66,1.54s.48,1.07.48,1.72c0,.76-.18,1.41-.55,1.95-.37.53-.87.93-1.5,1.19s-1.35.39-2.15.39c-.72,0-1.39-.05-2.01-.16-.62-.11-1.23-.24-1.81-.4l.57-2.64h.95c.06.75.27,1.31.64,1.68.37.37.91.55,1.62.55s1.29-.18,1.7-.54c.41-.36.61-.84.61-1.43,0-.35-.06-.66-.18-.94s-.31-.54-.57-.79c-.26-.25-.63-.54-1.11-.87-.51-.35-.93-.68-1.25-.99-.32-.31-.56-.65-.74-1.02-.17-.37-.26-.78-.26-1.23,0-.67.17-1.26.5-1.76.33-.5.81-.87,1.42-1.13.61-.26,1.33-.39,2.15-.39,1.34,0,2.53.17,3.55.53l-.56,2.51h-.98Z"/>
      <path class="cls-7" d="m556.66,537.09l1.12-.8.78.2-1.87,8.29c-.11.49-.19.87-.23,1.13-.04.26-.06.48-.06.65,0,.33.09.58.28.73.19.15.54.25,1.07.29l-.11.6h-3.49l.77-3.06-.16-.05c-.78,1.14-1.52,1.97-2.22,2.5-.7.53-1.44.79-2.22.79-.9,0-1.59-.34-2.08-1.01-.49-.68-.74-1.62-.74-2.84,0-.78.09-1.56.27-2.35.18-.79.45-1.53.81-2.23.36-.7.8-1.32,1.3-1.86.5-.54,1.09-.96,1.75-1.28.66-.32,1.39-.48,2.17-.48.5,0,.98.06,1.44.18.46.12.93.33,1.42.63Zm-1.07,3.64c.07-.33.12-.62.15-.87s.04-.51.04-.79c0-.63-.13-1.1-.4-1.39s-.72-.43-1.34-.43c-.34,0-.67.05-.98.17-.31.11-.62.29-.94.55-.32.26-.62.59-.91,1.01-.29.41-.55.92-.79,1.51-.24.59-.42,1.23-.55,1.91-.13.68-.2,1.34-.2,1.98,0,.85.12,1.48.35,1.9.23.42.62.63,1.17.63.25,0,.51-.06.79-.17.27-.11.58-.32.91-.63.33-.31.71-.75,1.14-1.35.38-.54.69-1.08.91-1.62.22-.53.41-1.16.56-1.89l.11-.52Z"/>
      <path class="cls-7" d="m565.79,530.71h.72l-3.17,14.4c-.09.39-.15.69-.17.88-.02.2-.04.37-.04.51,0,.24.04.44.12.57.08.14.21.24.38.32.17.07.45.13.84.17l-.1.6h-3.81l3.15-14.01c.08-.36.14-.63.17-.81.03-.18.06-.35.07-.51.02-.16.02-.3.02-.43,0-.24-.04-.43-.13-.55-.09-.13-.22-.22-.38-.28-.17-.06-.47-.1-.9-.12l.15-.63,3.08-.11Z"/>
      <path class="cls-7" d="m425.15,604.61c-.06.24-.1.45-.13.62-.03.17-.06.38-.09.63s-.04.47-.04.65c0,.25.04.45.12.59.08.14.2.25.37.31.16.06.44.11.84.15l-.13.6h-5.02l.13-.6c.31-.05.54-.13.7-.24.15-.11.28-.26.39-.46.11-.2.2-.43.29-.71.09-.28.22-.82.4-1.63l2.08-9.4c.18-.81.27-1.46.27-1.93,0-.4-.09-.68-.28-.83-.19-.15-.49-.24-.92-.27l.13-.6h11.01l-.84,3.75h-1.17c-.03-.58-.08-1.03-.13-1.36-.06-.33-.13-.58-.21-.74-.08-.16-.18-.28-.29-.36-.11-.08-.24-.13-.4-.16-.16-.03-.38-.05-.68-.05h-3.76l-1.45,6.64h2.28c.36,0,.65-.05.89-.15.24-.1.46-.28.66-.53.2-.26.46-.69.76-1.31h1.11l-1.18,5.15h-1.07c0-.5-.01-.9-.03-1.18-.02-.28-.07-.48-.15-.6-.08-.11-.19-.19-.33-.24-.14-.04-.4-.07-.77-.07h-2.39l-.96,4.32Z"/>
      <path class="cls-7" d="m435.36,596.5h3.85l-1.55,6.21c-.11.46-.21.91-.3,1.36-.08.45-.13.87-.13,1.24,0,.58.1.99.3,1.25.2.25.51.38.93.38.35,0,.73-.14,1.14-.41.41-.27.84-.7,1.29-1.27.46-.57.82-1.12,1.08-1.63.26-.51.47-1.12.62-1.83l1.11-5.3h2.11l-1.86,8.34c-.05.22-.11.51-.17.87-.07.36-.1.65-.1.88,0,.34.1.58.29.73.19.14.55.23,1.07.26l-.13.6h-3.49l.78-3.06-.16-.05c-.79,1.12-1.55,1.96-2.29,2.5-.74.54-1.48.81-2.23.81-.79,0-1.39-.22-1.79-.65-.41-.43-.61-1.08-.61-1.93,0-.24.02-.53.07-.86.04-.33.11-.67.19-1.03l1.03-4.33c.08-.36.14-.64.17-.85.03-.21.04-.39.04-.54,0-.37-.1-.62-.29-.77s-.55-.24-1.05-.28l.1-.61Z"/>
      <path class="cls-7" d="m453.03,590.71h.72l-3.17,14.4c-.09.39-.15.69-.17.88-.02.2-.04.37-.04.51,0,.24.04.44.12.57.08.14.21.24.38.32.17.07.45.13.84.17l-.1.6h-3.81l3.15-14.01c.08-.36.14-.63.17-.81.03-.18.06-.35.07-.51.02-.16.02-.3.02-.43,0-.24-.04-.43-.13-.55-.09-.13-.22-.22-.38-.28-.17-.06-.47-.1-.9-.12l.15-.63,3.08-.11Z"/>
      <path class="cls-7" d="m459.7,590.71h.72l-3.17,14.4c-.09.39-.15.69-.17.88-.02.2-.04.37-.04.51,0,.24.04.44.12.57.08.14.21.24.38.32.17.07.45.13.84.17l-.1.6h-3.81l3.15-14.01c.08-.36.14-.63.17-.81.03-.18.06-.35.07-.51.02-.16.02-.3.02-.43,0-.24-.04-.43-.13-.55-.09-.13-.22-.22-.38-.28-.17-.06-.47-.1-.9-.12l.15-.63,3.08-.11Z"/>
      <path class="cls-7" d="m466.78,602.69h-5.33l.4-1.89h5.33l-.4,1.89Z"/>
      <path class="cls-7" d="m478.04,600.61c.39.29.71.64.95,1.05.24.41.43.97.58,1.7l.28,1.42c.06.29.12.57.19.82.07.25.15.5.24.73.09.23.2.42.31.56.11.14.23.25.35.34.13.09.27.16.43.21.16.05.36.1.6.14l-.12.6h-3.38c-.26-.72-.49-1.59-.7-2.59l-.54-2.59c-.09-.45-.2-.82-.32-1.13-.13-.31-.28-.54-.45-.71-.18-.17-.38-.28-.61-.33-.23-.05-.52-.08-.85-.08h-1.39l-.85,3.87c-.07.32-.12.57-.15.76-.03.19-.05.38-.07.59-.02.21-.03.39-.03.55,0,.25.04.45.12.59.08.14.2.25.37.31.16.06.44.11.84.15l-.13.6h-5.02l.13-.6c.31-.05.54-.13.7-.24.15-.11.28-.26.39-.46.11-.2.2-.43.29-.71.09-.28.22-.82.4-1.63l2.08-9.4c.18-.81.27-1.46.27-1.93,0-.4-.09-.68-.28-.83-.19-.15-.49-.24-.92-.27l.13-.6h5.43c.86,0,1.57.05,2.11.15.54.1,1.01.25,1.4.46.39.2.71.47.97.79.26.32.46.68.59,1.09.13.4.2.83.2,1.29,0,.72-.12,1.37-.36,1.93-.24.56-.57,1.05-.98,1.48-.42.42-.9.78-1.45,1.07-.55.29-1.13.53-1.74.72v.13Zm-2.76-.92c.89,0,1.62-.09,2.21-.26.59-.17,1.07-.44,1.46-.8.39-.36.71-.83.96-1.42.25-.59.38-1.22.38-1.9,0-.35-.03-.66-.1-.93-.07-.27-.15-.5-.26-.68-.11-.18-.24-.34-.4-.48-.16-.14-.37-.26-.61-.36-.24-.1-.53-.17-.85-.22-.32-.04-.76-.07-1.31-.07-.43,0-.89.02-1.37.05l-1.56,7.07h1.44Z"/>
      <path class="cls-7" d="m492.44,605.74c-.6.66-1.18,1.18-1.73,1.56-.55.38-1.11.66-1.66.82-.55.16-1.16.24-1.83.24s-1.2-.1-1.66-.31c-.46-.21-.85-.49-1.15-.85-.31-.36-.53-.79-.68-1.29-.15-.5-.22-1.04-.22-1.63,0-.87.16-1.8.47-2.8.31-1,.79-1.89,1.42-2.69.63-.79,1.4-1.41,2.28-1.84.89-.43,1.83-.65,2.83-.65s1.72.2,2.22.6c.49.4.74,1.02.74,1.87,0,1.38-.65,2.42-1.95,3.11-1.3.69-3.22,1.04-5.78,1.04-.1.49-.15,1.02-.15,1.59,0,.85.17,1.47.5,1.86.33.39.88.58,1.64.58s1.43-.16,2.04-.49c.61-.33,1.25-.83,1.92-1.5l.76.79Zm-6.49-3.87c.75,0,1.41-.05,1.97-.13.57-.08,1.05-.18,1.46-.32.41-.13.74-.29,1.01-.48s.48-.39.64-.62c.16-.22.27-.46.33-.71.06-.25.09-.51.09-.78,0-.5-.12-.88-.35-1.17-.23-.28-.58-.42-1.03-.42-.57,0-1.13.21-1.68.62-.55.41-1.03.96-1.45,1.66-.42.7-.75,1.48-1,2.34Z"/>
      <path class="cls-7" d="m505.33,596.5l.33.61c-.3.72-.53,1.26-.69,1.61-.16.35-.37.79-.65,1.31-.27.52-.58,1.08-.92,1.65-.34.58-.72,1.2-1.15,1.86-.43.66-.92,1.38-1.47,2.17-.55.79-1.19,1.67-1.94,2.65h-1.53l-1.14-9.22c-.07-.59-.15-1.02-.24-1.28-.09-.26-.21-.44-.37-.56-.16-.12-.42-.19-.77-.21l.13-.6h3.14l.93,9.7c1.4-1.93,2.44-3.55,3.11-4.87.68-1.32,1.01-2.39,1.01-3.21,0-.38-.08-.64-.24-.78-.16-.14-.44-.22-.83-.24l.12-.6h3.15Z"/>
      <path class="cls-7" d="m515.24,605.74c-.6.66-1.18,1.18-1.73,1.56-.55.38-1.11.66-1.66.82-.55.16-1.16.24-1.83.24s-1.2-.1-1.66-.31c-.46-.21-.85-.49-1.15-.85-.31-.36-.53-.79-.68-1.29-.15-.5-.22-1.04-.22-1.63,0-.87.16-1.8.47-2.8.31-1,.79-1.89,1.42-2.69.63-.79,1.4-1.41,2.28-1.84.89-.43,1.83-.65,2.83-.65s1.72.2,2.22.6c.49.4.74,1.02.74,1.87,0,1.38-.65,2.42-1.95,3.11-1.3.69-3.22,1.04-5.78,1.04-.1.49-.15,1.02-.15,1.59,0,.85.17,1.47.5,1.86.33.39.88.58,1.64.58s1.43-.16,2.04-.49c.61-.33,1.25-.83,1.92-1.5l.76.79Zm-6.49-3.87c.75,0,1.41-.05,1.97-.13.57-.08,1.05-.18,1.46-.32.41-.13.74-.29,1.01-.48s.48-.39.64-.62c.16-.22.27-.46.33-.71.06-.25.09-.51.09-.78,0-.5-.12-.88-.35-1.17-.23-.28-.58-.42-1.03-.42-.57,0-1.13.21-1.68.62-.55.41-1.03.96-1.45,1.66-.42.7-.75,1.48-1,2.34Z"/>
      <path class="cls-7" d="m521.59,596.39h.73l-.85,3,.15.05c.77-1.07,1.53-1.86,2.26-2.37.74-.51,1.5-.77,2.28-.77.59,0,1.09.04,1.49.13l-.59,2.73h-1.26c-.07-.42-.17-.75-.31-.96-.14-.22-.35-.33-.65-.33-.32,0-.68.16-1.1.49-.42.33-.84.77-1.27,1.34-.43.57-.75,1.09-.97,1.57-.22.48-.38,1.01-.49,1.6l-1.11,5.28h-2.11l1.86-8.34c.17-.76.26-1.35.26-1.75,0-.23-.04-.4-.11-.53-.07-.13-.19-.22-.35-.28-.16-.06-.44-.1-.83-.13l.13-.65,2.84-.11Z"/>
      <path class="cls-7" d="m534.96,599.34c-.09-.73-.3-1.26-.63-1.59s-.84-.49-1.53-.49c-.38,0-.73.07-1.04.21-.31.14-.55.35-.73.62-.18.27-.27.59-.27.96,0,.3.06.58.18.82.12.25.33.51.62.78.29.27.69.58,1.21.93.79.53,1.34,1.04,1.66,1.54s.48,1.07.48,1.72c0,.76-.18,1.41-.55,1.95-.37.53-.87.93-1.5,1.19s-1.35.39-2.15.39c-.72,0-1.39-.05-2.01-.16-.62-.11-1.23-.24-1.81-.4l.57-2.64h.95c.06.75.27,1.31.64,1.68.37.37.91.55,1.62.55s1.29-.18,1.7-.54c.41-.36.61-.84.61-1.43,0-.35-.06-.66-.18-.94s-.31-.54-.57-.79c-.26-.25-.63-.54-1.11-.87-.51-.35-.93-.68-1.25-.99-.32-.31-.56-.65-.74-1.02-.17-.37-.26-.78-.26-1.23,0-.67.17-1.26.5-1.76.33-.5.81-.87,1.42-1.13.61-.26,1.33-.39,2.15-.39,1.34,0,2.53.17,3.55.53l-.56,2.51h-.98Z"/>
      <path class="cls-7" d="m546.63,597.09l1.12-.8.78.2-1.87,8.29c-.11.49-.19.87-.23,1.13-.04.26-.06.48-.06.65,0,.33.09.58.28.73.19.15.54.25,1.07.29l-.11.6h-3.49l.77-3.06-.16-.05c-.78,1.14-1.52,1.97-2.22,2.5-.7.53-1.44.79-2.22.79-.9,0-1.59-.34-2.08-1.01-.49-.68-.74-1.62-.74-2.84,0-.78.09-1.56.27-2.35.18-.79.45-1.53.81-2.23.36-.7.8-1.32,1.3-1.86.5-.54,1.09-.96,1.75-1.28.66-.32,1.39-.48,2.17-.48.5,0,.98.06,1.44.18.46.12.93.33,1.42.63Zm-1.07,3.64c.07-.33.12-.62.15-.87s.04-.51.04-.79c0-.63-.13-1.1-.4-1.39s-.72-.43-1.34-.43c-.34,0-.67.05-.98.17-.31.11-.62.29-.94.55-.32.26-.62.59-.91,1.01-.29.41-.55.92-.79,1.51-.24.59-.42,1.23-.55,1.91-.13.68-.2,1.34-.2,1.98,0,.85.12,1.48.35,1.9.23.42.62.63,1.17.63.25,0,.51-.06.79-.17.27-.11.58-.32.91-.63.33-.31.71-.75,1.14-1.35.38-.54.69-1.08.91-1.62.22-.53.41-1.16.56-1.89l.11-.52Z"/>
      <path class="cls-7" d="m555.77,590.71h.72l-3.17,14.4c-.09.39-.15.69-.17.88-.02.2-.04.37-.04.51,0,.24.04.44.12.57.08.14.21.24.38.32.17.07.45.13.84.17l-.1.6h-3.81l3.15-14.01c.08-.36.14-.63.17-.81.03-.18.06-.35.07-.51.02-.16.02-.3.02-.43,0-.24-.04-.43-.13-.55-.09-.13-.22-.22-.38-.28-.17-.06-.47-.1-.9-.12l.15-.63,3.08-.11Z"/>
    </g>
    <g>
      <line class="cls-2" x1="200.81" y1="415.27" x2="404.77" y2="479.38"/>
      <line class="cls-2" x1="200.81" y1="415.27" x2="404.77" y2="543.5"/>
      <line class="cls-2" x1="200.81" y1="415.27" x2="404.77" y2="607.61"/>
      <line class="cls-2" x1="200.81" y1="479.38" x2="404.77" y2="415.27"/>
      <line class="cls-2" x1="200.81" y1="479.38" x2="404.77" y2="543.5"/>
      <line class="cls-2" x1="200.81" y1="479.38" x2="404.77" y2="607.61"/>
      <line class="cls-2" x1="200.81" y1="543.5" x2="404.77" y2="415.27"/>
      <line class="cls-2" x1="200.81" y1="543.5" x2="404.77" y2="479.38"/>
      <line class="cls-2" x1="200.81" y1="543.5" x2="404.77" y2="607.61"/>
      <line class="cls-2" x1="200.81" y1="607.61" x2="404.77" y2="415.27"/>
      <line class="cls-2" x1="200.81" y1="607.61" x2="404.77" y2="479.38"/>
      <line class="cls-2" x1="200.81" y1="607.61" x2="404.77" y2="543.5"/>
      <circle class="cls-7" cx="404.77" cy="415.26" r="5.81"/>
      <circle class="cls-7" cx="404.77" cy="479.38" r="5.81"/>
      <circle class="cls-7" cx="404.77" cy="543.5" r="5.81"/>
      <circle class="cls-7" cx="404.77" cy="607.61" r="5.81"/>
      <circle class="cls-7" cx="200.81" cy="415.26" r="5.81"/>
      <circle class="cls-7" cx="200.81" cy="479.38" r="5.81"/>
      <circle class="cls-7" cx="200.81" cy="543.5" r="5.81"/>
      <circle class="cls-7" cx="200.81" cy="607.61" r="5.81"/>
    </g>
  </g>
  <line class="cls-1" x1="300.68" y1="265.59" x2="300.68" y2="311.64"/>
  <text class="cls-9" transform="translate(146.73 343.13)"><tspan class="cls-3" x="0" y="0">Dual</tspan><tspan class="cls-6" x="63.9" y="0">-</tspan><tspan class="cls-10" x="72.77" y="0">Shift </tspan><tspan class="cls-7" x="141.39" y="0"> </tspan><tspan class="cls-3" x="173.13" y="0">Dual</tspan><tspan class="cls-6" x="237.03" y="0">-</tspan><tspan class="cls-10" x="245.9" y="0">Shift</tspan></text>
  <line class="cls-1" x1="300.68" y1="355.07" x2="300.68" y2="401.11"/>
</svg>