<?xml version="1.0" encoding="UTF-8"?>
<svg id="Layer_1" data-name="Layer 1" xmlns="http://www.w3.org/2000/svg" viewBox="0 0 792 612">
  <defs>
    <style>
      .cls-1 {
        font-family: MonotypeCorsiva, 'Monotype Corsiva';
        font-size: 40px;
      }

      .cls-1, .cls-2, .cls-3, .cls-4 {
        fill: #231f20;
      }

      .cls-5 {
        fill: #00aeef;
      }

      .cls-6 {
        fill: #2e3192;
      }

      .cls-7, .cls-4 {
        font-family: Cambria-BoldItalic, Cambria;
        font-size: 30px;
        font-style: italic;
        font-weight: 700;
      }

      .cls-2 {
        letter-spacing: -.03em;
      }

      .cls-8 {
        fill: #7f3f98;
      }

      .cls-9 {
        fill: #ed1c24;
      }

      .cls-10 {
        fill: none;
        stroke: #231f20;
        stroke-miterlimit: 10;
        stroke-width: .5px;
      }
    </style>
  </defs>
  <text transform="translate(203.65 50.12)"><tspan class="cls-1"><tspan x="0" y="0">Continuous | Prop-</tspan><tspan x="278.32" y="0">Reversal</tspan></tspan><tspan class="cls-4"><tspan x="126.89" y="36">Type 1 → 1</tspan></tspan><tspan class="cls-7"><tspan class="cls-5" x="135.7" y="72">D</tspan><tspan class="cls-2" x="156.06" y="72">-</tspan><tspan class="cls-8" x="164.94" y="72">S </tspan><tspan class="cls-3" x="186.57" y="72">→ </tspan><tspan class="cls-5" x="218.32" y="72">D</tspan><tspan class="cls-2" x="238.68" y="72">-</tspan><tspan class="cls-8" x="247.55" y="72">S</tspan></tspan></text>
  <g>
    <path class="cls-3" d="m161.82,238.83c4.39-1.93.8-6.48-3.28-4.27-.04.02-.07.06-.07.1-.38,2.63-.16,6.19.2,8.71.02.13.12.23.24.27,6.22,1.71,7.68-3.78,2.91-4.81Zm.65-2.47c0,1.13-1.98,1.51-2.74,1.51-.13-.26-.02-2.43.07-2.53.9-.25,2.67.04,2.67,1.02Zm-2.38,6.17c-.17-1.1-.2-1.41-.14-2.54.47-.06,3.32-.1,3.29,1.38-.03,1.15-2.44,1.38-3.15,1.16Z"/>
    <path class="cls-3" d="m261.61,238.83c4.39-1.93.8-6.48-3.28-4.27-.04.02-.07.06-.07.1-.38,2.63-.16,6.19.2,8.71.02.13.12.23.24.27,6.22,1.71,7.68-3.78,2.91-4.81Zm.65-2.47c0,1.13-1.98,1.51-2.74,1.51-.13-.26-.02-2.43.07-2.53.9-.25,2.67.04,2.67,1.02Zm-2.38,6.17c-.17-1.1-.2-1.41-.14-2.54.47-.06,3.32-.1,3.29,1.38-.03,1.15-2.44,1.38-3.15,1.16Z"/>
    <path class="cls-3" d="m255.74,241.73c.42.55-.07,1.12-.5,1.33-9.15,4.54-8.83-9.42-3.27-9.09,1.07.06,2.05.85,2.39,1.26.25.29.44.81.12,1.16-.34.36-.8.24-1.02,0-4.33-4.56-6.65,9.06,1.11,5.25.45-.22.79-.4,1.16.09Z"/>
    <path class="cls-3" d="m174.02,241.73c.42.55-.07,1.12-.5,1.33-9.15,4.54-8.83-9.42-3.27-9.09,1.07.06,2.05.85,2.39,1.26.25.29.44.81.12,1.16-.34.36-.8.24-1.02,0-4.33-4.56-6.65,9.06,1.11,5.25.45-.22.79-.4,1.16.09Z"/>
    <path class="cls-3" d="m85.15,241.73c.42.55-.07,1.12-.5,1.33-9.15,4.54-8.83-9.42-3.27-9.09,1.07.06,2.05.85,2.39,1.26.25.29.44.81.12,1.16-.34.36-.8.24-1.02,0-4.33-4.56-6.65,9.06,1.11,5.25.45-.22.79-.4,1.16.09Z"/>
    <path class="cls-3" d="m427.93,234.42c4.64-1.3,7.94.33,7.99,3.72.1,6.19-7.54,6.06-7.86,5.69-.19-.72-.85-5.47-.13-9.41Zm1.61,7.69c3.94-.46,5.1-2.07,4.74-4.52-.36-2.45-4.31-2.07-4.85-1.81-.26,3.6-.2,4.36.11,6.32Z"/>
    <path class="cls-3" d="m522.02,236.96c0,.36.02,1.02.02,1.02,0,0,2.18.01,3.53.07.5.02.9-.07.95.78.04.6-.32.73-.87.77-1.28.09-3.49.05-3.49.05,0,0,.03,1.16.07,1.65.03.39.1.88.1.88,0,0,3.53.01,3.93,0,.33,0,.84,0,.81.84-.03.89-.42.83-.98.87-1.49.1-4.12,0-4.84-.38-1.02-.55-.79-5.46-.37-8.84.08-.67,3.98-.71,4.96-.62.44.04.67.53.67.82,0,.31,0,.87-.59.9-1.38.08-3.86.16-3.86.16,0,0-.03.8-.02,1.03Z"/>
    <path class="cls-3" d="m609.61,243.32c-.21-2.13-.27-7.16-.03-8.83,0,0,1.78-.75,5.18-.44.42.04.62.25.63.53.03.54,0,1.08-.55,1.11-1.32.07-3.68.15-3.68.15,0,0-.03.76-.02.98,0,.34.02.97.02.97,0,0,2.08.01,3.36.07.47.02.88-.05.91.74.02.57-.38.7-.91.74-1.22.09-3.25.04-3.25.04.07,1.57.19,3.19.19,3.78,0,.69-.57.8-.97.8-.59,0-.85-.44-.87-.65Z"/>
    <path class="cls-3" d="m441.09,234.59c-.19,8.85-.94,7.8,4.1,7.75.71,0,1.24.12,1.24.84,0,.33-.44.77-1.2.77-4.71,0-4.71.13-5.33-.4-.49-.41-.42-1.9-.42-2.78,0-1.17.02-5.56.1-6.18.08-.62.33-.62.75-.62.38,0,.77.09.76.62Z"/>
    <path class="cls-3" d="m531.39,234.59c-.19,8.85-.94,7.8,4.1,7.75.71,0,1.24.12,1.24.84,0,.33-.44.77-1.2.77-4.71,0-4.71.13-5.33-.4-.49-.41-.42-1.9-.42-2.78,0-1.17.02-5.56.1-6.18.08-.62.33-.62.75-.62.38,0,.77.09.76.62Z"/>
    <path class="cls-3" d="m712.68,237.55c-.23-1.81.31-1.52-1.96-1.52-.48,0-1.1-.23-1.08-.83.02-.68.18-1,1.11-1,.29,0,2.96-.14,5.13-.13.75,0,1.29.31,1.29,1,0,.56-.42.9-1.31.9-1.86,0-1.61-.26-1.61,1.62,0,2.18.1,3.12-.28,3.9-2.04,4.14-6.19,2.28-6.19-.8,0-.58.16-.88.74-.92.52-.04.65.48.76.88.75,2.71,4.08,2.04,3.42-3.1Z"/>
    <path class="cls-3" d="m620.44,240.08c0,1.63,0,2.16,0,3.1,0,.66-.29.79-.8.79s-.93-.29-.93-.87c0-1.15-.04-6.16-.04-8.56,0-.52.34-.57.65-.57.41,0,.86.14.86.57,0,1.02.08,3.16.08,3.16,0,0,1.87-1.75,2.5-2.42.41-.44,1-.5,1.3-.14.3.36.47.6-.1,1.15-.85.84-1.04,1.21-2.46,2.53.83.86,2.18,1.99,3.61,3.62.45.51.34,1.14.17,1.3s-.8.24-1.19-.17-1.92-2.09-3.65-3.5Z"/>
    <path class="cls-3" d="m74.92,242.98c-.87-2.99-2.3-6.84-2.48-7.31-.18-.46-.77-1.7-1.18-1.7s-1,1.24-1.18,1.7c-.18.47-1.61,4.32-2.48,7.31-.24.84.06.91.18.94,1.61.21,1.32-.3,1.57-1.4.23-1,.22-1.46,1-1.46.38,0,.56.01.91.01s.54-.01.91-.01c.78,0,.77.46,1,1.46.25,1.1-.04,1.61,1.57,1.4.12-.03.42-.1.18-.94Zm-2.91-3.37h-1.51c-.14,0-.23-.07-.19-.23l.94-3.44.94,3.44c.04.16-.05.23-.19.23Z"/>
    <path class="cls-3" d="m355,242.98c-.87-2.99-2.3-6.84-2.48-7.31-.18-.46-.77-1.7-1.18-1.7s-1,1.24-1.18,1.7c-.18.47-1.61,4.32-2.48,7.31-.24.84.06.91.18.94,1.61.21,1.32-.3,1.57-1.4.23-1,.22-1.46,1-1.46.38,0,.56.01.91.01s.54-.01.91-.01c.78,0,.77.46,1,1.46.25,1.1-.04,1.61,1.57,1.4.12-.03.42-.1.18-.94Zm-2.91-3.37h-1.51c-.14,0-.23-.07-.19-.23l.94-3.44.94,3.44c.04.16-.05.23-.19.23Z"/>
    <path class="cls-3" d="m699.41,243.32c-.21-2.13-.27-7.16-.03-8.83,0,0,1.78-.75,5.18-.44.42.04.62.25.63.53.03.54,0,1.08-.55,1.11-1.32.07-3.68.15-3.68.15,0,0-.03.76-.02.98,0,.34.02.97.02.97,0,0,2.08.01,3.36.07.47.02.88-.05.91.74.02.57-.38.7-.91.74-1.22.09-3.25.04-3.25.04.07,1.57.19,3.19.19,3.78,0,.69-.57.8-.97.8-.59,0-.85-.44-.87-.65Z"/>
    <path class="cls-3" d="m345.43,241.73c.42.55-.07,1.12-.5,1.33-9.15,4.54-8.83-9.42-3.27-9.09,1.07.06,2.05.85,2.39,1.26.25.29.44.81.12,1.16-.34.36-.8.24-1.02,0-4.33-4.56-6.65,9.06,1.11,5.25.45-.22.79-.4,1.16.09Z"/>
    <path class="cls-3" d="m708.45,344.08c4.64-1.3,7.94.33,7.99,3.72.1,6.19-7.54,6.06-7.86,5.69-.19-.72-.85-5.47-.13-9.41Zm1.61,7.69c3.94-.46,5.1-2.07,4.74-4.52s-4.31-2.07-4.85-1.81c-.26,3.6-.2,4.36.11,6.32Z"/>
    <path class="cls-3" d="m619.78,346.62c0,.36.02,1.02.02,1.02,0,0,2.18.01,3.53.07.5.02.9-.07.95.78.04.6-.32.73-.87.77-1.28.09-3.49.05-3.49.05,0,0,.03,1.16.07,1.65.03.39.1.88.1.88,0,0,3.53.01,3.93,0,.33,0,.84,0,.81.84-.03.89-.42.83-.98.87-1.49.1-4.12,0-4.84-.38-1.02-.55-.79-5.46-.37-8.84.08-.67,3.98-.71,4.96-.62.44.04.67.53.67.82,0,.31,0,.87-.59.9-1.38.08-3.86.16-3.86.16,0,0-.03.8-.02,1.03Z"/>
    <path class="cls-3" d="m440.69,352.98c-.21-2.13-.27-7.16-.03-8.83,0,0,1.78-.75,5.18-.44.42.04.62.25.63.53.03.54,0,1.08-.55,1.11-1.32.07-3.68.15-3.68.15,0,0-.03.76-.02.98,0,.34.02.97.02.97,0,0,2.08.01,3.36.07.47.02.88-.05.91.74.02.57-.38.7-.91.74-1.22.09-3.25.04-3.25.04.07,1.57.19,3.19.19,3.78,0,.69-.57.8-.97.8-.59,0-.85-.44-.87-.65Z"/>
    <path class="cls-3" d="m529.53,352.98c-.21-2.13-.27-7.16-.03-8.83,0,0,1.78-.75,5.18-.44.42.04.62.25.63.53.03.54,0,1.08-.55,1.11-1.32.07-3.68.15-3.68.15,0,0-.03.76-.02.98,0,.34.02.97.02.97,0,0,2.08.01,3.36.07.47.02.88-.05.91.74.02.57-.38.7-.91.74-1.22.09-3.25.04-3.25.04.07,1.57.19,3.19.19,3.78,0,.69-.57.8-.97.8-.59,0-.85-.44-.87-.65Z"/>
    <path class="cls-3" d="m611.44,344.25c-.19,8.85-.94,7.8,4.1,7.75.71,0,1.24.12,1.24.84,0,.33-.44.77-1.2.77-4.71,0-4.71.13-5.33-.4-.49-.41-.42-1.9-.42-2.78,0-1.17.02-5.56.1-6.18.08-.62.33-.62.75-.62.38,0,.77.09.76.62Z"/>
    <path class="cls-3" d="m434.86,347.21c-.23-1.81.31-1.52-1.96-1.52-.48,0-1.1-.23-1.08-.83.02-.68.18-1,1.11-1,.29,0,2.96-.14,5.13-.13.75,0,1.29.31,1.29,1,0,.56-.42.9-1.31.9-1.86,0-1.61-.26-1.61,1.62,0,2.18.1,3.12-.28,3.9-2.04,4.14-6.19,2.28-6.19-.8,0-.58.16-.88.74-.92.52-.04.65.48.76.88.75,2.71,4.08,2.04,3.42-3.1Z"/>
    <path class="cls-3" d="m522.35,349.74c0,1.63,0,2.16,0,3.1,0,.66-.29.79-.8.79s-.93-.29-.93-.87c0-1.15-.04-6.16-.04-8.56,0-.52.34-.57.65-.57.41,0,.86.14.86.57,0,1.02.08,3.16.08,3.16,0,0,1.87-1.75,2.5-2.42.41-.44,1-.5,1.3-.14.3.36.47.6-.1,1.15-.85.84-1.04,1.21-2.46,2.53.83.86,2.18,1.99,3.61,3.62.45.51.34,1.14.17,1.3s-.8.24-1.19-.17c-.39-.4-1.92-2.09-3.65-3.5Z"/>
    <path class="cls-3" d="m74.92,345.29c-.42-.02-1.11-.04-1.33-.05-2.5-.16-3.99,1.77-4.23,4.08-.08.74.07,1.24.63,1.77.96.88,2.65,1.08,3.68.33.29-.21.56-.57.67-.92.23-.7-.06-1.13-.73-1.15-.55-.02-1.11.07-1.67.1-.47.02-.98.05-1.11-.62-.11-.57.35-1.04,1.07-1.13.6-.07,1.2-.08,1.8-.13.41-.04.92,0,1.41-.03.86,1.57.93,2.45.34,3.91-.66,1.62-1.9,2.23-3.38,2.2-.76-.02-1.61-.21-2.26-.62-2.32-1.47-2.63-3.71-1.3-6.4,1.3-3.01,4.25-2.97,5.53-2.98.84,0,1.06.15.85,1.66Z"/>
    <path class="cls-3" d="m356.96,345.29c-.42-.02-1.11-.04-1.33-.05-2.5-.16-3.99,1.77-4.23,4.08-.08.74.07,1.24.63,1.77.96.88,2.65,1.08,3.68.33.29-.21.56-.57.67-.92.23-.7-.06-1.13-.73-1.15-.55-.02-1.11.07-1.67.1-.47.02-.98.05-1.11-.62-.11-.57.35-1.04,1.07-1.13.6-.07,1.2-.08,1.8-.13.41-.04.92,0,1.41-.03.86,1.57.93,2.45.34,3.91-.66,1.62-1.9,2.23-3.38,2.2-.76-.02-1.61-.21-2.26-.62-2.32-1.47-2.63-3.71-1.3-6.4,1.3-3.01,4.25-2.97,5.53-2.98.84,0,1.06.15.85,1.66Z"/>
    <path class="cls-3" d="m701.44,344.25c-.19,8.85-.94,7.8,4.1,7.75.71,0,1.24.12,1.24.84,0,.33-.44.77-1.2.77-4.71,0-4.71.13-5.33-.4-.49-.41-.42-1.9-.42-2.78,0-1.17.02-5.56.1-6.18.08-.62.33-.62.75-.62.38,0,.77.09.76.62Z"/>
    <path class="cls-3" d="m257.01,352.89c0,.65-.36.74-1.5.74h-4.33c-1.13,0-1.5-.09-1.5-.74s.49-.73,1.75-.73,1.17.32,1.17-3.55.1-3.5-2-3.5c-.49,0-.92-.16-.92-.72s.2-.75.99-.75h5.35c.79,0,.99.2.99.75s-.43.72-.92.72c-2.1,0-2-.37-2,3.5s-.14,3.55,1.17,3.55,1.75.08,1.75.73Z"/>
    <path class="cls-3" d="m176.57,352.89c0,.65-.36.74-1.5.74h-4.33c-1.13,0-1.5-.09-1.5-.74s.49-.73,1.75-.73,1.17.32,1.17-3.55.1-3.5-2-3.5c-.49,0-.92-.16-.92-.72s.2-.75.99-.75h5.35c.79,0,.99.2.99.75s-.43.72-.92.72c-2.1,0-2-.37-2,3.5s-.14,3.55,1.17,3.55,1.75.08,1.75.73Z"/>
    <path class="cls-3" d="m85.04,352.89c0,.65-.36.74-1.5.74h-4.33c-1.13,0-1.5-.09-1.5-.74s.49-.73,1.75-.73,1.17.32,1.17-3.55.1-3.5-2-3.5c-.49,0-.92-.16-.92-.72s.2-.75.99-.75h5.35c.79,0,.99.2.99.75s-.43.72-.92.72c-2.1,0-2-.37-2,3.5s-.14,3.55,1.17,3.55,1.75.08,1.75.73Z"/>
    <path class="cls-3" d="m347.51,352.89c0,.65-.36.74-1.5.74h-4.33c-1.13,0-1.5-.09-1.5-.74s.49-.73,1.75-.73,1.17.32,1.17-3.55.1-3.5-2-3.5c-.49,0-.92-.16-.92-.72s.2-.75.99-.75h5.35c.79,0,.99.2.99.75s-.43.72-.92.72c-2.1,0-2-.37-2,3.5s-.14,3.55,1.17,3.55,1.75.08,1.75.73Z"/>
    <path class="cls-3" d="m266.65,344.71v7.97c0,.82-.13.95-.74.95-.67,0-.75-.2-.75-.9,0-2.75.12-3.14-.89-3.17-.34-.02-1.3-.02-1.68,0-1.01.03-.89.42-.89,3.17,0,.7-.08.9-.75.9-.61,0-.74-.13-.74-.95v-7.97c0-.96.29-1.07.78-1.07s.71.2.71,1.04c0,2.76.11,3.25.76,3.25h1.94c.65,0,.76-.49.76-3.25,0-.84.22-1.04.71-1.04s.78.11.78,1.07Z"/>
    <path class="cls-3" d="m166.27,344.71v7.97c0,.82-.23.95-.84.95-.67,0-.75-.2-.75-.9,0-2.75.12-3.14-.89-3.17-.34-.02-1.3-.02-1.68,0-1.01.03-.89.42-.89,3.17,0,.7-.08.9-.75.9-.61,0-.84-.13-.84-.95v-7.97c0-.96.39-1.07.88-1.07s.71.2.71,1.04c0,2.76.11,3.25.76,3.25h1.94c.65,0,.76-.49.76-3.25,0-.84.22-1.04.71-1.04s.88.11.88,1.07Z"/>
    <path class="cls-3" d="m428.22,454.28c2.1-.68,4.35-.62,5.15.12,1.3,1.2,1.17,2.8.53,3.78-.96,1.47-3.93,1.42-3.93,1.42,0,0,.29,3.22.2,3.68-.02.1-.5.53-.74.53-.26,0-.84-.18-.88-.48-.61-5.29-.67-8.32-.33-9.04Zm1.64,3.84c2.37.24,3.12-.65,2.92-2-.2-1.35-2.71-1-3.01-.85-.11,1.56-.08,1.77.09,2.85Z"/>
    <path class="cls-3" d="m350.47,454.28c2.1-.68,4.35-.62,5.15.12,1.3,1.2,1.17,2.8.53,3.78-.96,1.47-3.93,1.42-3.93,1.42,0,0,.29,3.22.2,3.68-.02.1-.5.53-.74.53-.26,0-.84-.18-.88-.48-.61-5.29-.67-8.32-.33-9.04Zm1.64,3.84c2.37.24,3.12-.65,2.92-2-.2-1.35-2.71-1-3.01-.85-.11,1.56-.08,1.77.09,2.85Z"/>
    <path class="cls-3" d="m616.36,462.44l-2.7-3.03c.87-.25,1.47-.64,1.8-1.14.66-1.02.77-2.65-.54-3.86-.83-.76-3.04-.82-5.15-.14l-.06.02-.02.05c-.26.54-.14,2.22.07,5.27.08,1.06.16,2.26.24,3.62.02.37.41.57.79.57.3,0,.77-.17.84-.62.06-.42-.05-2.87-.08-3.48h.17l3.42,3.83c.16.18.38.27.61.27.2,0,.4-.07.55-.21.34-.3.37-.83.07-1.16Zm-5.02-4.32l-.03-.2c-.13-.82-.2-1.21-.11-2.5.38-.1,1.92-.27,2.71.15.28.14.44.34.47.59.08.5-.06.95-.38,1.3-.52.53-1.46.77-2.66.67Z"/>
    <path class="cls-3" d="m85.17,462.44l-2.7-3.03c.87-.25,1.47-.64,1.8-1.14.66-1.02.77-2.65-.54-3.86-.83-.76-3.04-.82-5.15-.14l-.06.02-.02.05c-.26.54-.14,2.22.07,5.27.08,1.06.16,2.26.24,3.62.02.37.41.57.79.57.3,0,.77-.17.84-.62.06-.42-.05-2.87-.08-3.48h.17l3.42,3.83c.16.18.38.27.61.27.2,0,.4-.07.55-.21.34-.3.37-.83.07-1.16Zm-5.02-4.32l-.03-.2c-.13-.82-.2-1.21-.11-2.5.38-.1,1.92-.27,2.71.15.28.14.44.34.47.59.08.5-.06.95-.38,1.3-.52.53-1.46.77-2.66.67Z"/>
    <path class="cls-3" d="m176.97,462.44l-2.7-3.03c.87-.25,1.47-.64,1.8-1.14.66-1.02.77-2.65-.54-3.86-.83-.76-3.04-.82-5.15-.14l-.06.02-.02.05c-.26.54-.14,2.22.07,5.27.08,1.06.16,2.26.24,3.62.02.37.41.57.79.57.3,0,.77-.17.84-.62.06-.42-.05-2.87-.08-3.48h.17l3.42,3.83c.16.18.38.27.61.27.2,0,.4-.07.55-.21.34-.3.37-.83.07-1.16Zm-5.02-4.32l-.03-.2c-.13-.82-.2-1.21-.11-2.5.38-.1,1.92-.27,2.71.15.28.14.44.34.47.59.08.5-.06.95-.38,1.3-.52.53-1.46.77-2.66.67Z"/>
    <path class="cls-3" d="m75.9,463.8c-.46.06-.96-.28-1.19-1.14-.42-1.54-.92-3.7-1.44-5.63-1.11,2.72-1.86,4.39-2.5,4.38-.01,0-.02,0-.03-.01-.01.01-.02.01-.03.01-.64.01-1.39-1.65-2.5-4.38-.51,1.93-1.02,4.09-1.44,5.63-.24.86-.73,1.2-1.19,1.14-.59-.07-.98-.49-.74-1.25.25-.81,1.84-6.07,2.3-7.72.47-1.65,1.59-.9,1.8-.49.21.41,1.36,3.67,1.8,4.59.44-.92,1.59-4.18,1.8-4.59.21-.41,1.33-1.16,1.8.49.46,1.64,2.05,6.9,2.3,7.72.24.76-.15,1.18-.74,1.25Z"/>
    <path class="cls-3" d="m720.5,463.8c-.46.06-.96-.28-1.19-1.14-.42-1.54-.92-3.7-1.44-5.63-1.11,2.72-1.86,4.39-2.5,4.38-.01,0-.02,0-.03-.01-.01.01-.02.01-.03.01-.64.01-1.39-1.65-2.5-4.38-.51,1.93-1.02,4.09-1.44,5.63-.24.86-.73,1.2-1.19,1.14-.59-.07-.98-.49-.74-1.25.25-.81,1.84-6.07,2.3-7.72.47-1.65,1.59-.9,1.8-.49.21.41,1.36,3.67,1.8,4.59.44-.92,1.59-4.18,1.8-4.59.21-.41,1.33-1.16,1.8.49.46,1.64,2.05,6.9,2.3,7.72.24.76-.15,1.18-.74,1.25Z"/>
    <path class="cls-3" d="m168.58,455.13c-.2.78-1.37,6.55-1.58,7.33s-.44,1.33-.9,1.35-.64-.27-1.17-1.25-1.66-3.47-2.44-5.56c-.53,1.89-.73,3.97-1.16,5.48-.25.85-.58,1.36-1.02,1.29-.1-.02-1.05-.26-.75-1.36.22-.81,1.48-6,1.96-7.62.48-1.62,1.54-.85,1.73-.44.19.41,2.31,5.6,2.67,6.53.19-.85.69-4.5,1.08-6.27.13-.6.81-.88,1.1-.76s.68.5.48,1.29Z"/>
    <path class="cls-3" d="m627.3,455.13c-.2.78-1.37,6.55-1.58,7.33-.21.78-.44,1.33-.9,1.35s-.64-.27-1.17-1.25-1.66-3.47-2.44-5.56c-.53,1.89-.73,3.97-1.16,5.48-.25.85-.58,1.36-1.02,1.29-.1-.02-1.05-.26-.75-1.36.22-.81,1.48-6,1.96-7.62.48-1.62,1.54-.85,1.73-.44.19.41,2.31,5.6,2.67,6.53.19-.85.69-4.5,1.08-6.27.13-.6.81-.88,1.1-.76s.68.5.48,1.29Z"/>
    <path class="cls-3" d="m250.31,460.68c-.55-2.97.03-4.69,2.09-6.23,1.86-1.39,4.92-.33,5.78,1.24.73,1.31,1.54,4.09-.47,6.49-.67.8-1.59,1.4-2.62,1.57-2.46.41-4.48-1.4-4.79-3.06Zm2.23.5c1.14,1.13,3.41,1.11,4.45-.7,1.02-1.77.06-3.66-.63-4.27-.55-.49-2.53-1.19-3.76.41-1.11,1.45-.84,3.8-.07,4.56Z"/>
    <path class="cls-3" d="m524.35,462.31l-.97-.99-.02-.02c1.23-2.17.51-4.46-.12-5.62-.87-1.56-3.93-2.62-5.78-1.24-2.07,1.53-2.64,3.26-2.09,6.23.3,1.66,2.32,3.48,4.78,3.07.79-.14,1.51-.53,2.11-1.07l.84.86c.34.34.89.35,1.24,0,.35-.34.35-.9,0-1.24Zm-6.76-1.14c-.78-.77-1.05-3.12.06-4.56,1.24-1.59,3.21-.9,3.76-.41.64.58,1.52,2.26.81,3.93l-.1-.1h0s-1.02-1.04-1.02-1.04c-.34-.35-.9-.35-1.24,0-.18.16-.26.39-.26.62s.08.45.25.62l1.1,1.12.15.15c-1.14.75-2.65.55-3.51-.31Z"/>
    <path class="cls-3" d="m270.6,462.31l-.97-.99-.02-.02c1.23-2.17.51-4.46-.12-5.62-.87-1.56-3.93-2.62-5.78-1.24-2.07,1.53-2.64,3.26-2.09,6.23.3,1.66,2.32,3.48,4.78,3.07.79-.14,1.51-.53,2.11-1.07l.84.86c.34.34.89.35,1.24,0,.35-.34.35-.9,0-1.24Zm-6.76-1.14c-.78-.77-1.05-3.12.06-4.56,1.24-1.59,3.21-.9,3.76-.41.64.58,1.52,2.26.81,3.93l-.1-.1h0s-1.02-1.04-1.02-1.04c-.34-.35-.9-.35-1.24,0-.18.16-.26.39-.26.62s.08.45.25.62l1.1,1.12.15.15c-1.14.75-2.65.55-3.51-.31Z"/>
    <path class="cls-3" d="m706.53,462.44l-2.7-3.03c.87-.25,1.47-.64,1.8-1.14.66-1.02.77-2.65-.54-3.86-.83-.76-3.04-.82-5.15-.14l-.06.02-.02.05c-.26.54-.14,2.22.07,5.27.08,1.06.16,2.26.24,3.62.02.37.41.57.79.57.3,0,.77-.17.84-.62.06-.42-.05-2.87-.08-3.48h.17l3.42,3.83c.16.18.38.27.61.27.2,0,.4-.07.55-.21.34-.3.37-.83.07-1.16Zm-5.02-4.32l-.03-.2c-.13-.82-.2-1.21-.11-2.5.38-.1,1.92-.27,2.71.15.28.14.44.34.47.59.08.5-.06.95-.38,1.3-.52.53-1.46.77-2.66.67Z"/>
    <path class="cls-3" d="m338.61,460.68c-.55-2.97.03-4.69,2.09-6.23,1.86-1.39,4.92-.33,5.78,1.24.73,1.31,1.54,4.09-.47,6.49-.67.8-1.59,1.4-2.62,1.57-2.46.41-4.48-1.4-4.79-3.06Zm2.23.5c1.14,1.13,3.41,1.11,4.45-.7,1.02-1.77.06-3.66-.63-4.27-.55-.49-2.53-1.19-3.76.41-1.11,1.45-.84,3.8-.07,4.56Z"/>
    <path class="cls-3" d="m438.34,460.68c-.55-2.97.03-4.69,2.09-6.23,1.86-1.39,4.92-.33,5.78,1.24.73,1.31,1.54,4.09-.47,6.49-.67.8-1.59,1.4-2.62,1.57-2.46.41-4.48-1.4-4.79-3.06Zm2.23.5c1.14,1.13,3.41,1.11,4.45-.7,1.02-1.77.06-3.66-.63-4.27-.55-.49-2.53-1.19-3.76.41-1.11,1.45-.84,3.8-.07,4.56Z"/>
    <path class="cls-3" d="m527.46,460.68c-.55-2.97.03-4.69,2.09-6.23,1.86-1.39,4.92-.33,5.78,1.24.73,1.31,1.54,4.09-.47,6.49-.67.8-1.59,1.4-2.62,1.57-2.46.41-4.48-1.4-4.79-3.06Zm2.23.5c1.14,1.13,3.41,1.11,4.45-.7,1.02-1.77.06-3.66-.63-4.27-.55-.49-2.53-1.19-3.76.41-1.11,1.45-.84,3.8-.07,4.56Z"/>
    <path class="cls-3" d="m539.7,564.77c0,.49-.38.79-1.17.77h-2.09s0,.06,0,.1v7.38c0,.45-.38.83-.83.83h-.02c-.46,0-.84-.38-.84-.83v-7.38s0-.06,0-.09h-1.98c-.42,0-.96-.3-.93-.83.03-.59.17-.88,1-.86.25,0,3.81-.04,5.73,0,.66.02,1.13.29,1.12.91Z"/>
    <path class="cls-3" d="m717.35,564.77c0,.49-.38.79-1.17.77h-2.09s0,.06,0,.1v7.38c0,.45-.38.83-.83.83h-.02c-.46,0-.84-.38-.84-.83v-7.38s0-.06,0-.09h-1.98c-.42,0-.96-.3-.93-.83.03-.59.17-.88,1-.86.25,0,3.81-.04,5.73,0,.66.02,1.13.29,1.12.91Z"/>
    <path class="cls-3" d="m168.13,571.48c-.25,1.19-1.45,2.37-3.24,2.37h-.11c-1-.04-2.78-.26-3.51-1.25-.39-.52-.47-1.13-.19-1.44.24-.27.68-.24,1.23.08,1.08,1.06,2.52,1.08,3.42.64.52-.26.82-.65.77-1.03-.03-.33-.36-.94-2.12-1.35-2.5-.56-3.55-1.98-3.49-3.14.06-1.03,1.04-2.24,3.59-2.51.07,0,.13,0,.2,0,1.08,0,2.66.83,2.96,1.59.13.32.04.59-.26.82-.19.14-.59-.05-1.1-.3-.48-.23-1.01-.49-1.51-.55-.14-.02-.27-.03-.4-.03-.95,0-1.68.48-1.82.99-.13.47.23.9.96,1.2l2.99,1.21c1.5.62,1.82,1.8,1.62,2.7Z"/>
    <path class="cls-3" d="m628.25,571.48c-.25,1.19-1.45,2.37-3.24,2.37h-.11c-1-.04-2.78-.26-3.51-1.25-.39-.52-.47-1.13-.19-1.44.24-.27.68-.24,1.23.08,1.08,1.06,2.52,1.08,3.42.64.52-.26.82-.65.77-1.03-.03-.33-.36-.94-2.12-1.35-2.5-.56-3.55-1.98-3.49-3.14.06-1.03,1.04-2.24,3.59-2.51.07,0,.13,0,.2,0,1.08,0,2.66.83,2.96,1.59.13.32.04.59-.26.82-.19.14-.59-.05-1.1-.3-.48-.23-1.01-.49-1.51-.55-.14-.02-.27-.03-.4-.03-.95,0-1.68.48-1.82.99-.13.47.23.9.96,1.2l2.99,1.21c1.5.62,1.82,1.8,1.62,2.7Z"/>
    <path class="cls-3" d="m448.22,571.48c-.25,1.19-1.45,2.37-3.24,2.37h-.11c-1-.04-2.78-.26-3.51-1.25-.39-.52-.47-1.13-.19-1.44.24-.27.68-.24,1.23.08,1.08,1.06,2.52,1.08,3.42.64.52-.26.82-.65.77-1.03-.03-.33-.36-.94-2.12-1.35-2.5-.56-3.55-1.98-3.49-3.14.06-1.03,1.04-2.24,3.59-2.51.07,0,.13,0,.2,0,1.08,0,2.66.83,2.96,1.59.13.32.04.59-.26.82-.19.14-.59-.05-1.1-.3-.48-.23-1.01-.49-1.51-.55-.14-.02-.27-.03-.4-.03-.95,0-1.68.48-1.82.99-.13.47.23.9.96,1.2l2.99,1.21c1.5.62,1.82,1.8,1.62,2.7Z"/>
    <path class="cls-3" d="m618.09,565.19c-.06.29-1.97,5.54-3.02,7.94-.32.73-.61.72-.74.72s-.42,0-.74-.72c-1.05-2.4-2.96-7.64-3.02-7.94-.23-1,.08-1.16.44-1.3.28-.13.86-.02,1.12.7.16.42,2.2,5.86,2.2,5.86,0,0,2.05-5.44,2.2-5.86.25-.72.83-.82,1.12-.7.36.15.67.3.44,1.3Z"/>
    <path class="cls-3" d="m177.26,565.19c-.06.29-1.97,5.54-3.02,7.94-.32.73-.61.72-.74.72s-.42,0-.74-.72c-1.05-2.4-2.96-7.64-3.02-7.94-.23-1,.08-1.16.44-1.3.28-.13.86-.02,1.12.7.16.42,2.2,5.86,2.2,5.86,0,0,2.05-5.44,2.2-5.86.25-.72.83-.82,1.12-.7.36.15.67.3.44,1.3Z"/>
    <path class="cls-3" d="m349.23,564.77c0,.49-.38.79-1.17.77h-2.09s0,.06,0,.1v7.38c0,.45-.38.83-.83.83h-.02c-.46,0-.84-.38-.84-.83v-7.38s0-.06,0-.09h-1.98c-.42,0-.96-.3-.93-.83.03-.59.17-.88,1-.86.25,0,3.81-.04,5.73,0,.66.02,1.13.29,1.12.91Z"/>
    <path class="cls-3" d="m358.42,565.19c-.06.29-1.97,5.54-3.02,7.94-.32.73-.61.72-.74.72s-.42,0-.74-.72c-1.05-2.4-2.96-7.64-3.02-7.94-.23-1,.08-1.16.44-1.3.28-.13.86-.02,1.12.7.16.42,2.2,5.86,2.2,5.86,0,0,2.05-5.44,2.2-5.86.25-.72.83-.82,1.12-.7.36.15.67.3.44,1.3Z"/>
    <path class="cls-3" d="m76.03,571.48c-.25,1.19-1.45,2.37-3.24,2.37h-.11c-1-.04-2.78-.26-3.51-1.25-.39-.52-.47-1.13-.19-1.44.24-.27.68-.24,1.23.08,1.08,1.06,2.52,1.08,3.42.64.52-.26.82-.65.77-1.03-.03-.33-.36-.94-2.12-1.35-2.5-.56-3.55-1.98-3.49-3.14.06-1.03,1.04-2.24,3.59-2.51.07,0,.13,0,.2,0,1.08,0,2.66.83,2.96,1.59.13.32.04.59-.26.82-.19.14-.59-.05-1.1-.3-.48-.23-1.01-.49-1.51-.55-.14-.02-.27-.03-.4-.03-.95,0-1.68.48-1.82.99-.13.47.23.9.96,1.2l2.99,1.21c1.5.62,1.82,1.8,1.62,2.7Z"/>
    <path class="cls-3" d="m528.75,569.37c-.11.73-.3,1.42-.58,2.11-.6,1.42-1.8,2.3-3.21,2.37h-.26c-1.41-.07-2.6-.95-3.21-2.37-.28-.67-.47-1.36-.57-2.11-.19-1.31-.24-2.6-.18-4.35.02-.47.13-.8.34-.99.14-.13.32-.19.52-.19.64.04.78.66.82,1.21,0,.18,0,.48,0,.86-.05,1.51-.14,4.35.93,5.36.21.2.58.43.94.56.35.14.73.14,1.08,0,.36-.14.74-.37.95-.56,1.06-1.01.98-3.81.93-5.33,0-.4-.02-.71,0-.89.03-.5.15-1.17.8-1.21.21,0,.39.06.52.19.22.19.33.52.34.99.08,1.8.03,3.06-.16,4.35Z"/>
    <path class="cls-3" d="m708.09,565.19c-.06.29-1.97,5.54-3.02,7.94-.32.73-.61.72-.74.72s-.42,0-.74-.72c-1.05-2.4-2.96-7.64-3.02-7.94-.23-1,.08-1.16.44-1.3.28-.13.86-.02,1.12.7.16.42,2.2,5.86,2.2,5.86,0,0,2.05-5.44,2.2-5.86.25-.72.83-.82,1.12-.7.36.15.67.3.44,1.3Z"/>
    <path class="cls-3" d="m438.75,569.37c-.11.73-.3,1.42-.58,2.11-.6,1.42-1.8,2.3-3.21,2.37h-.26c-1.41-.07-2.6-.95-3.21-2.37-.28-.67-.47-1.36-.57-2.11-.19-1.31-.24-2.6-.18-4.35.02-.47.13-.8.34-.99.14-.13.32-.19.52-.19.64.04.78.66.82,1.21,0,.18,0,.48,0,.86-.05,1.51-.14,4.35.93,5.36.21.2.58.43.94.56.35.14.73.14,1.08,0,.36-.14.74-.37.95-.56,1.06-1.01.98-3.81.93-5.33,0-.4-.02-.71,0-.89.03-.5.15-1.17.8-1.21.21,0,.39.06.52.19.22.19.33.52.34.99.08,1.8.03,3.06-.16,4.35Z"/>
    <path class="cls-3" d="m269.03,569.37c-.11.73-.3,1.42-.58,2.11-.6,1.42-1.8,2.3-3.21,2.37h-.26c-1.41-.07-2.6-.95-3.21-2.37-.28-.67-.47-1.36-.57-2.11-.19-1.31-.24-2.6-.18-4.35.02-.47.13-.8.34-.99.14-.13.32-.19.52-.19.64.04.78.66.82,1.21,0,.18,0,.48,0,.86-.05,1.51-.14,4.35.93,5.36.21.2.58.43.94.56.35.14.73.14,1.08,0,.36-.14.74-.37.95-.56,1.06-1.01.98-3.81.93-5.33,0-.4-.02-.71,0-.89.03-.5.15-1.17.8-1.21.21,0,.39.06.52.19.22.19.33.52.34.99.08,1.8.03,3.06-.16,4.35Z"/>
    <path class="cls-3" d="m86.34,569.37c-.11.73-.3,1.42-.58,2.11-.6,1.42-1.8,2.3-3.21,2.37h-.26c-1.41-.07-2.6-.95-3.21-2.37-.28-.67-.47-1.36-.57-2.11-.19-1.31-.24-2.6-.18-4.35.02-.47.13-.8.34-.99.14-.13.32-.19.52-.19.64.04.78.66.82,1.21,0,.18,0,.48,0,.86-.05,1.51-.14,4.35.93,5.36.21.2.58.43.94.56.35.14.73.14,1.08,0,.36-.14.74-.37.95-.56,1.06-1.01.98-3.81.93-5.33,0-.4-.02-.71,0-.89.03-.5.15-1.17.8-1.21.21,0,.39.06.52.19.22.19.33.52.34.99.08,1.8.03,3.06-.16,4.35Z"/>
    <path class="cls-3" d="m259.23,564.77c0,.49-.38.79-1.17.77h-2.09s0,.06,0,.1v7.38c0,.45-.38.83-.83.83h-.02c-.46,0-.84-.38-.84-.83v-7.38s0-.06,0-.09h-1.98c-.42,0-.96-.3-.93-.83.03-.59.17-.88,1-.86.25,0,3.81-.04,5.73,0,.66.02,1.13.29,1.12.91Z"/>
  </g>
  <g>
    <line class="cls-10" x1="48.5" y1="255.55" x2="743.5" y2="255.55"/>
    <line class="cls-10" x1="48.5" y1="365.55" x2="743.5" y2="365.55"/>
    <line class="cls-10" x1="396" y1="160.08" x2="396" y2="573.33"/>
    <line class="cls-10" x1="48.5" y1="475.55" x2="743.5" y2="475.55"/>
  </g>
  <g>
    <rect class="cls-9" x="68.5" y="206.19" width="25" height="2.5" rx=".99" ry=".99" transform="translate(-126.44 288.44) rotate(-90)"/>
    <rect class="cls-6" x="68.5" y="177.69" width="25" height="2.5" rx=".99" ry=".99" transform="translate(259.94 97.94) rotate(90)"/>
    <rect class="cls-9" x="414.25" y="301.94" width="25" height="2.5" rx=".99" ry=".99"/>
    <rect class="cls-6" x="442.75" y="301.94" width="25" height="2.5" rx=".99" ry=".99" transform="translate(910.5 606.38) rotate(-180)"/>
    <rect class="cls-9" x="504.25" y="301.94" width="25" height="2.5" rx=".99" ry=".99"/>
    <rect class="cls-6" x="532.75" y="301.94" width="25" height="2.5" rx=".99" ry=".99" transform="translate(1090.5 606.38) rotate(-180)"/>
    <rect class="cls-9" x="594.25" y="301.94" width="25" height="2.5" rx=".99" ry=".99"/>
    <rect class="cls-6" x="622.75" y="301.94" width="25" height="2.5" rx=".99" ry=".99" transform="translate(1270.5 606.38) rotate(-180)"/>
    <rect class="cls-9" x="684.25" y="301.88" width="25" height="2.5" rx=".99" ry=".99" transform="translate(1.31 -3) rotate(.25)"/>
    <rect class="cls-6" x="712.75" y="302" width="25" height="2.5" rx=".99" ry=".99" transform="translate(1449.18 609.63) rotate(-179.75)"/>
    <rect class="cls-9" x="158.5" y="206.19" width="25" height="2.5" rx=".99" ry=".99" transform="translate(-36.44 378.44) rotate(-90)"/>
    <rect class="cls-6" x="158.5" y="177.69" width="25" height="2.5" rx=".99" ry=".99" transform="translate(349.94 7.94) rotate(90)"/>
    <rect class="cls-9" x="248.5" y="206.19" width="25" height="2.5" rx=".99" ry=".99" transform="translate(53.56 468.44) rotate(-90)"/>
    <rect class="cls-6" x="248.5" y="177.69" width="25" height="2.5" rx=".99" ry=".99" transform="translate(439.94 -82.06) rotate(90)"/>
    <rect class="cls-9" x="338.5" y="206.19" width="25" height="2.5" rx=".99" ry=".99" transform="translate(143.56 558.44) rotate(-90)"/>
    <rect class="cls-6" x="338.5" y="177.69" width="25" height="2.5" rx=".99" ry=".99" transform="translate(529.94 -172.06) rotate(90)"/>
    <rect class="cls-9" x="68.5" y="397.69" width="25" height="2.5" rx=".99" ry=".99" transform="translate(479.94 317.94) rotate(90)"/>
    <rect class="cls-6" x="82.75" y="411.94" width="25" height="2.5" rx=".99" ry=".99" transform="translate(190.5 826.38) rotate(-180)"/>
    <rect class="cls-9" x="158.5" y="507.69" width="25" height="2.5" rx=".99" ry=".99" transform="translate(679.94 337.94) rotate(90)"/>
    <rect class="cls-6" x="172.75" y="521.94" width="25" height="2.5" rx=".99" ry=".99" transform="translate(370.5 1046.38) rotate(-180)"/>
    <rect class="cls-9" x="68.5" y="507.69" width="25" height="2.5" rx=".99" ry=".99" transform="translate(589.94 427.94) rotate(90)"/>
    <rect class="cls-6" x="82.75" y="521.94" width="25" height="2.5" rx=".99" ry=".99" transform="translate(190.5 1046.38) rotate(-180)"/>
    <rect class="cls-9" x="338.5" y="507.69" width="25" height="2.5" rx=".99" ry=".99" transform="translate(859.94 157.94) rotate(90)"/>
    <rect class="cls-6" x="262.75" y="521.94" width="25" height="2.5" rx=".99" ry=".99" transform="translate(550.5 1046.38) rotate(-180)"/>
    <rect class="cls-6" x="352.75" y="521.94" width="25" height="2.5" rx=".99" ry=".99" transform="translate(730.5 1046.38) rotate(-180)"/>
    <rect class="cls-9" x="248.5" y="507.69" width="25" height="2.5" rx=".99" ry=".99" transform="translate(769.94 247.94) rotate(90)"/>
    <rect class="cls-9" x="518.5" y="507.69" width="25" height="2.5" rx=".99" ry=".99" transform="translate(1039.94 -22.06) rotate(90)"/>
    <rect class="cls-6" x="532.75" y="521.94" width="25" height="2.5" rx=".99" ry=".99" transform="translate(1090.5 1046.38) rotate(-180)"/>
    <rect class="cls-9" x="428.5" y="507.69" width="25" height="2.5" rx=".99" ry=".99" transform="translate(949.94 67.94) rotate(90)"/>
    <rect class="cls-6" x="442.75" y="521.94" width="25" height="2.5" rx=".99" ry=".99" transform="translate(910.5 1046.38) rotate(-180)"/>
    <rect class="cls-9" x="698.5" y="507.69" width="25" height="2.5" rx=".99" ry=".99" transform="translate(1219.94 -202.06) rotate(90)"/>
    <rect class="cls-6" x="622.75" y="521.94" width="25" height="2.5" rx=".99" ry=".99" transform="translate(1270.5 1046.38) rotate(-180)"/>
    <rect class="cls-6" x="712.75" y="521.94" width="25" height="2.5" rx=".99" ry=".99" transform="translate(1450.5 1046.38) rotate(-180)"/>
    <rect class="cls-9" x="608.5" y="507.69" width="25" height="2.5" rx=".99" ry=".99" transform="translate(1129.94 -112.06) rotate(90)"/>
    <rect class="cls-9" x="414.25" y="411.94" width="25" height="2.5" rx=".99" ry=".99"/>
    <rect class="cls-6" x="428.5" y="426.19" width="25" height="2.5" rx=".99" ry=".99" transform="translate(13.56 868.44) rotate(-90)"/>
    <rect class="cls-9" x="158.5" y="397.69" width="25" height="2.5" rx=".99" ry=".99" transform="translate(569.94 227.94) rotate(90)"/>
    <rect class="cls-6" x="172.75" y="411.94" width="25" height="2.5" rx=".99" ry=".99" transform="translate(370.5 826.38) rotate(-180)"/>
    <rect class="cls-9" x="504.25" y="411.94" width="25" height="2.5" rx=".99" ry=".99"/>
    <rect class="cls-6" x="518.5" y="426.19" width="25" height="2.5" rx=".99" ry=".99" transform="translate(103.56 958.44) rotate(-90)"/>
    <rect class="cls-9" x="248.5" y="397.69" width="25" height="2.5" rx=".99" ry=".99" transform="translate(659.94 137.94) rotate(90)"/>
    <rect class="cls-6" x="262.75" y="411.94" width="25" height="2.5" rx=".99" ry=".99" transform="translate(550.5 826.38) rotate(-180)"/>
    <rect class="cls-9" x="594.25" y="411.94" width="25" height="2.5" rx=".99" ry=".99"/>
    <rect class="cls-6" x="608.5" y="426.19" width="25" height="2.5" rx=".99" ry=".99" transform="translate(193.56 1048.44) rotate(-90)"/>
    <rect class="cls-9" x="338.5" y="397.69" width="25" height="2.5" rx=".99" ry=".99" transform="translate(749.94 47.94) rotate(90)"/>
    <rect class="cls-6" x="352.75" y="411.94" width="25" height="2.5" rx=".99" ry=".99" transform="translate(730.5 826.38) rotate(-180)"/>
    <rect class="cls-9" x="684.25" y="411.94" width="25" height="2.5" rx=".99" ry=".99"/>
    <rect class="cls-6" x="698.5" y="426.19" width="25" height="2.5" rx=".99" ry=".99" transform="translate(283.56 1138.44) rotate(-90)"/>
    <rect class="cls-9" x="430.52" y="206.17" width="25" height="2.5" rx=".99" ry=".99" transform="translate(235.61 650.44) rotate(-90)"/>
    <rect class="cls-6" x="426.52" y="206.17" width="25" height="2.5" rx=".99" ry=".99" transform="translate(231.61 646.44) rotate(-90)"/>
    <rect class="cls-9" x="520.52" y="206.17" width="25" height="2.5" rx=".99" ry=".99" transform="translate(325.61 740.44) rotate(-90)"/>
    <rect class="cls-6" x="516.52" y="206.17" width="25" height="2.5" rx=".99" ry=".99" transform="translate(321.61 736.44) rotate(-90)"/>
    <rect class="cls-9" x="610.52" y="206.17" width="25" height="2.5" rx=".99" ry=".99" transform="translate(415.61 830.44) rotate(-90)"/>
    <rect class="cls-6" x="606.52" y="206.17" width="25" height="2.5" rx=".99" ry=".99" transform="translate(411.61 826.44) rotate(-90)"/>
    <rect class="cls-9" x="700.52" y="206.17" width="25" height="2.5" rx=".99" ry=".99" transform="translate(505.61 920.44) rotate(-90)"/>
    <rect class="cls-6" x="696.52" y="206.17" width="25" height="2.5" rx=".99" ry=".99" transform="translate(501.61 916.44) rotate(-90)"/>
    <rect class="cls-9" x="54.25" y="303.94" width="25" height="2.5" rx=".99" ry=".99"/>
    <rect class="cls-6" x="54.25" y="299.94" width="25" height="2.5" rx=".99" ry=".99"/>
    <rect class="cls-9" x="144.25" y="303.94" width="25" height="2.5" rx=".99" ry=".99"/>
    <rect class="cls-6" x="144.25" y="299.94" width="25" height="2.5" rx=".99" ry=".99"/>
    <rect class="cls-9" x="234.25" y="303.94" width="25" height="2.5" rx=".99" ry=".99"/>
    <rect class="cls-6" x="234.25" y="299.94" width="25" height="2.5" rx=".99" ry=".99"/>
    <rect class="cls-9" x="324.25" y="303.94" width="25" height="2.5" rx=".99" ry=".99"/>
    <rect class="cls-6" x="324.25" y="299.94" width="25" height="2.5" rx=".99" ry=".99"/>
  </g>
  <g>
    <path class="cls-9" d="m265.9,168.24c14.38,0,25.25,12.31,25.62,28.35.03.94-.7,1.88-1.65,1.88-22.21,0-20.92-.73-20.92,18.27l2.62-2.58s1.09,1.05.5,1.87c-.79,1.08-4.05,3.91-4.05,3.91,0,0-3.26-2.83-4.05-3.91-.59-.82.5-1.87.5-1.87l2.62,2.58c0-10.06-.15-15.03,2.22-17.4,2.38-2.38,7.3-2.92,18.86-2.92.6,0,1.08-.31,1.06-.9-.24-12.68-9.87-24.98-23.54-24.98-1.61,0-1.64-2.3.21-2.3Z"/>
    <path class="cls-9" d="m84.53,438.54c14.38,0,25.25-12.31,25.62-28.35.03-.94-.7-1.88-1.65-1.88-22.21,0-20.92.73-20.92-18.27l2.62,2.58s1.09-1.05.5-1.87c-.79-1.08-4.05-3.91-4.05-3.91,0,0-3.26,2.83-4.05,3.91-.59.82.5,1.87.5,1.87l2.62-2.58c0,10.06-.15,15.03,2.22,17.4,2.38,2.38,7.3,2.92,18.86,2.92.6,0,1.08.31,1.06.9-.24,12.68-9.87,24.98-23.54,24.98-1.61,0-1.64,2.3.21,2.3Z"/>
    <path class="cls-6" d="m51.32,527.8c0,14.38,12.31,25.25,28.35,25.62.94.03,1.88-.7,1.88-1.65,0-22.21-.73-20.92,18.27-20.92l-2.58,2.62s1.05,1.09,1.87.5c1.08-.79,3.91-4.05,3.91-4.05,0,0-2.83-3.26-3.91-4.05-.82-.59-1.87.5-1.87.5l2.58,2.62c-10.06,0-15.03-.15-17.4,2.22-2.38,2.38-2.92,7.3-2.92,18.86,0,.6-.31,1.08-.9,1.06-12.68-.24-24.98-9.87-24.98-23.54,0-1.61-2.3-1.64-2.3.21Z"/>
    <path class="cls-6" d="m681.58,527.8c0,14.38,12.31,25.25,28.35,25.62.94.03,1.88-.7,1.88-1.65,0-22.21-.73-20.92,18.27-20.92l-2.58,2.62s1.05,1.09,1.87.5c1.08-.79,3.91-4.05,3.91-4.05,0,0-2.83-3.26-3.91-4.05-.82-.59-1.87.5-1.87.5l2.58,2.62c-10.06,0-15.03-.15-17.4,2.22s-2.92,7.3-2.92,18.86c0,.6-.31,1.08-.9,1.06-12.68-.24-24.98-9.87-24.98-23.54,0-1.61-2.3-1.64-2.3.21Z"/>
    <path class="cls-9" d="m464.91,409.33c0-14.38-12.31-25.25-28.35-25.62-.94-.03-1.88.7-1.88,1.65,0,22.21.73,20.92-18.27,20.92l2.58-2.62s-1.05-1.09-1.87-.5c-1.08.79-3.91,4.05-3.91,4.05,0,0,2.83,3.26,3.91,4.05.82.59,1.87-.5,1.87-.5l-2.58-2.62c10.06,0,15.03.15,17.4-2.22,2.38-2.38,2.92-7.3,2.92-18.86,0-.6.31-1.08.9-1.06,12.68.24,24.98,9.87,24.98,23.54,0,1.61,2.3,1.64,2.3-.21Z"/>
    <path class="cls-9" d="m644.91,409.33c0-14.38-12.31-25.25-28.35-25.62-.94-.03-1.88.7-1.88,1.65,0,22.21.73,20.92-18.27,20.92l2.58-2.62s-1.05-1.09-1.87-.5c-1.08.79-3.91,4.05-3.91,4.05,0,0,2.83,3.26,3.91,4.05.82.59,1.87-.5,1.87-.5l-2.58-2.62c10.06,0,15.03.15,17.4-2.22,2.38-2.38,2.92-7.3,2.92-18.86,0-.6.31-1.08.9-1.06,12.68.24,24.98,9.87,24.98,23.54,0,1.61,2.3,1.64,2.3-.21Z"/>
    <path class="cls-9" d="m264.53,438.54c14.38,0,25.25-12.31,25.62-28.35.03-.94-.7-1.88-1.65-1.88-22.21,0-20.92.73-20.92-18.27l2.62,2.58s1.09-1.05.5-1.87c-.79-1.08-4.05-3.91-4.05-3.91,0,0-3.26,2.83-4.05,3.91-.59.82.5,1.87.5,1.87l2.62-2.58c0,10.06-.15,15.03,2.22,17.4,2.38,2.38,7.3,2.92,18.86,2.92.6,0,1.08.31,1.06.9-.24,12.68-9.87,24.98-23.54,24.98-1.61,0-1.64,2.3.21,2.3Z"/>
    <path class="cls-9" d="m177.77,548.38c14.38,0,25.25-12.31,25.62-28.35.03-.94-.7-1.88-1.65-1.88-22.21,0-20.92.73-20.92-18.27l2.62,2.58s1.09-1.05.5-1.87c-.79-1.08-4.05-3.91-4.05-3.91,0,0-3.26,2.83-4.05,3.91-.59.82.5,1.87.5,1.87l2.62-2.58c0,10.06-.15,15.03,2.22,17.4,2.38,2.38,7.3,2.92,18.86,2.92.6,0,1.08.31,1.06.9-.24,12.68-9.87,24.98-23.54,24.98-1.61,0-1.64,2.3.21,2.3Z"/>
    <path class="cls-9" d="m535.41,548.38c14.38,0,25.25-12.31,25.62-28.35.03-.94-.7-1.88-1.65-1.88-22.21,0-20.92.73-20.92-18.27l2.62,2.58s1.09-1.05.5-1.87c-.79-1.08-4.05-3.91-4.05-3.91,0,0-3.26,2.83-4.05,3.91-.59.82.5,1.87.5,1.87l2.62-2.58c0,10.06-.15,15.03,2.22,17.4s7.3,2.92,18.86,2.92c.6,0,1.08.31,1.06.9-.24,12.68-9.87,24.98-23.54,24.98-1.61,0-1.64,2.3.21,2.3Z"/>
    <path class="cls-9" d="m109.83,311.52c0,14.38-12.31,25.25-28.35,25.62-.94.03-1.88-.7-1.88-1.65,0-22.21.73-20.92-18.27-20.92l2.58,2.62s-1.05,1.09-1.87.5c-1.08-.79-3.91-4.05-3.91-4.05,0,0,2.83-3.26,3.91-4.05.82-.59,1.87.5,1.87.5l-2.58,2.62c10.06,0,15.03-.15,17.4,2.22,2.38,2.38,2.92,7.3,2.92,18.86,0,.6.31,1.08.9,1.06,12.68-.24,24.98-9.87,24.98-23.54,0-1.61,2.3-1.64,2.3.21Z"/>
    <path class="cls-9" d="m291.63,309.11c0,14.38-12.31,25.25-28.35,25.62-.94.03-1.88-.7-1.88-1.65,0-22.21.73-20.92-18.27-20.92l2.58,2.62s-1.05,1.09-1.87.5c-1.08-.79-3.91-4.05-3.91-4.05,0,0,2.83-3.26,3.91-4.05.82-.59,1.87.5,1.87.5l-2.58,2.62c10.06,0,15.03-.15,17.4,2.22,2.38,2.38,2.92,7.3,2.92,18.86,0,.6.31,1.08.9,1.06,12.68-.24,24.98-9.87,24.98-23.54,0-1.61,2.3-1.64,2.3.21Z"/>
    <path class="cls-9" d="m469.95,308.7c0,14.38-12.31,25.25-28.35,25.62-.94.03-1.88-.7-1.88-1.65,0-22.21.73-20.92-18.27-20.92l2.58,2.62s-1.05,1.09-1.87.5c-1.08-.79-3.91-4.05-3.91-4.05,0,0,2.83-3.26,3.91-4.05.82-.59,1.87.5,1.87.5l-2.58,2.62c10.06,0,15.03-.15,17.4,2.22,2.38,2.38,2.92,7.3,2.92,18.86,0,.6.31,1.08.9,1.06,12.68-.24,24.98-9.87,24.98-23.54,0-1.61,2.3-1.64,2.3.21Z"/>
    <path class="cls-9" d="m447.47,168.24c14.38,0,25.25,12.31,25.62,28.35.03.94-.7,1.88-1.65,1.88-22.21,0-20.92-.73-20.92,18.27l2.62-2.58s1.09,1.05.5,1.87c-.79,1.08-4.05,3.91-4.05,3.91,0,0-3.26-2.83-4.05-3.91-.59-.82.5-1.87.5-1.87l2.62,2.58c0-10.06-.15-15.03,2.22-17.4,2.38-2.38,7.3-2.92,18.86-2.92.6,0,1.08-.31,1.06-.9-.24-12.68-9.87-24.98-23.54-24.98-1.61,0-1.64-2.3.21-2.3Z"/>
    <path class="cls-9" d="m627.24,168.24c14.38,0,25.25,12.31,25.62,28.35.03.94-.7,1.88-1.65,1.88-22.21,0-20.92-.73-20.92,18.27l2.62-2.58s1.09,1.05.5,1.87c-.79,1.08-4.05,3.91-4.05,3.91,0,0-3.26-2.83-4.05-3.91-.59-.82.5-1.87.5-1.87l2.62,2.58c0-10.06-.15-15.03,2.22-17.4,2.38-2.38,7.3-2.92,18.86-2.92.6,0,1.08-.31,1.06-.9-.24-12.68-9.87-24.98-23.54-24.98-1.61,0-1.64-2.3.21-2.3Z"/>
    <path class="cls-9" d="m646.85,306.91c0,14.38-12.31,25.25-28.35,25.62-.94.03-1.88-.7-1.88-1.65,0-22.21.73-20.92-18.27-20.92l2.58,2.62s-1.05,1.09-1.87.5c-1.08-.79-3.91-4.05-3.91-4.05,0,0,2.83-3.26,3.91-4.05.82-.59,1.87.5,1.87.5l-2.58,2.62c10.06,0,15.03-.15,17.4,2.22,2.38,2.38,2.92,7.3,2.92,18.86,0,.6.31,1.08.9,1.06,12.68-.24,24.98-9.87,24.98-23.54,0-1.61,2.3-1.64,2.3.21Z"/>
    <path class="cls-9" d="m201.91,189.12c0-.94-.7-1.88-1.65-1.88-24.17,0-22.32.3-22.32-20.48,0-1.5-2.22-1.53-2.22,0,0,22.26-.87,22.43,22.94,22.43.6,0,1.06.31,1.06.9,0,24.42-22.05,25.44-22.23,25.48l2.48-2.59s-1.05-1.09-1.87-.5c-1.08.79-3.91,4.05-3.91,4.05,0,0,2.83,3.26,3.91,4.05.82.59,1.87-.5,1.87-.5l-2.58-2.62s24.53-.43,24.53-28.34Z"/>
    <path class="cls-9" d="m381.23,189.12c0-.94-.7-1.88-1.65-1.88-24.17,0-22.32.3-22.32-20.48,0-1.5-2.22-1.53-2.22,0,0,22.26-.87,22.43,22.94,22.43.6,0,1.06.31,1.06.9,0,24.42-22.05,25.44-22.23,25.48l2.48-2.59s-1.05-1.09-1.87-.5c-1.08.79-3.91,4.05-3.91,4.05,0,0,2.83,3.26,3.91,4.05.82.59,1.87-.5,1.87-.5l-2.58-2.62s24.53-.43,24.53-28.34Z"/>
    <path class="cls-9" d="m177.5,334.63c.94,0,1.88-.7,1.88-1.65,0-24.17-.3-22.32,20.48-22.32,1.5,0,1.53-2.22,0-2.22-22.26,0-22.43-.87-22.43,22.94,0,.6-.31,1.06-.9,1.06-24.42,0-25.44-22.05-25.48-22.23l2.59,2.48s1.09-1.05.5-1.87c-.79-1.08-4.05-3.91-4.05-3.91,0,0-3.26,2.83-4.05,3.91-.59.82.5,1.87.5,1.87l2.62-2.58s.43,24.53,28.34,24.53Z"/>
    <path class="cls-9" d="m201.03,418.08c0,.94-.7,1.88-1.65,1.88-24.17,0-22.32-.3-22.32,20.48,0,1.5-2.22,1.53-2.22,0,0-22.26-.87-22.43,22.94-22.43.6,0,1.06-.31,1.06-.9,0-24.42-22.05-25.44-22.23-25.48l2.48,2.59s-1.05,1.09-1.87.5c-1.08-.79-3.91-4.05-3.91-4.05,0,0,2.83-3.26,3.91-4.05.82-.59,1.87.5,1.87.5l-2.58,2.62s24.53.43,24.53,28.34Z"/>
    <path class="cls-6" d="m346.42,553.42c-.94,0-1.88-.7-1.88-1.65,0-24.17.3-22.32-20.48-22.32-1.5,0-1.53-2.22,0-2.22,22.26,0,22.43-.87,22.43,22.94,0,.6.31,1.06.9,1.06,24.42,0,25.44-22.05,25.48-22.23l-2.59,2.48s-1.09-1.05-.5-1.87c.79-1.08,4.05-3.91,4.05-3.91,0,0,3.26,2.83,4.05,3.91.59.82-.5,1.87-.5,1.87l-2.62-2.58s-.43,24.53-28.34,24.53Z"/>
    <path class="cls-9" d="m291,528.08c0,.94-.7,1.88-1.65,1.88-24.17,0-22.32-.3-22.32,20.48,0,1.5-2.22,1.53-2.22,0,0-22.26-.87-22.43,22.94-22.43.6,0,1.06-.31,1.06-.9,0-24.42-22.05-25.44-22.23-25.48l2.48,2.59s-1.05,1.09-1.87.5c-1.08-.79-3.91-4.05-3.91-4.05,0,0,2.83-3.26,3.91-4.05.82-.59,1.87.5,1.87.5l-2.58,2.62s24.53.43,24.53,28.34Z"/>
    <path class="cls-6" d="m434.24,553.42c-.94,0-1.88-.7-1.88-1.65,0-24.17.3-22.32-20.48-22.32-1.5,0-1.53-2.22,0-2.22,22.26,0,22.43-.87,22.43,22.94,0,.6.31,1.06.9,1.06,24.42,0,25.44-22.05,25.48-22.23l-2.59,2.48s-1.09-1.05-.5-1.87c.79-1.08,4.05-3.91,4.05-3.91,0,0,3.26,2.83,4.05,3.91.59.82-.5,1.87-.5,1.87l-2.62-2.58s-.43,24.53-28.34,24.53Z"/>
    <path class="cls-9" d="m650.79,526.13c0,.94-.7,1.88-1.65,1.88-24.17,0-22.32-.3-22.32,20.48,0,1.5-2.22,1.53-2.22,0,0-22.26-.87-22.43,22.94-22.43.6,0,1.06-.31,1.06-.9,0-24.42-22.05-25.44-22.23-25.48l2.48,2.59s-1.05,1.09-1.87.5c-1.08-.79-3.91-4.05-3.91-4.05,0,0,2.83-3.26,3.91-4.05.82-.59,1.87.5,1.87.5l-2.58,2.62s24.53.43,24.53,28.34Z"/>
    <path class="cls-9" d="m381.03,418.08c0,.94-.7,1.88-1.65,1.88-24.17,0-22.32-.3-22.32,20.48,0,1.5-2.22,1.53-2.22,0,0-22.26-.87-22.43,22.94-22.43.6,0,1.06-.31,1.06-.9,0-24.42-22.05-25.44-22.23-25.48l2.48,2.59s-1.05,1.09-1.87.5c-1.08-.79-3.91-4.05-3.91-4.05,0,0,2.83-3.26,3.91-4.05.82-.59,1.87.5,1.87.5l-2.58,2.62s24.53.43,24.53,28.34Z"/>
    <path class="cls-9" d="m532.14,382.96c.94,0,1.88.7,1.88,1.65,0,24.17-.3,22.32,20.48,22.32,1.5,0,1.53,2.22,0,2.22-22.26,0-22.43.87-22.43-22.94,0-.6-.31-1.06-.9-1.06-24.42,0-25.44,22.05-25.48,22.23l2.59-2.48s1.09,1.05.5,1.87c-.79,1.08-4.05,3.91-4.05,3.91,0,0-3.26-2.83-4.05-3.91-.59-.82.5-1.87.5-1.87l2.62,2.58s.43-24.53,28.34-24.53Z"/>
    <path class="cls-9" d="m714.87,382.96c.94,0,1.88.7,1.88,1.65,0,24.17-.3,22.32,20.48,22.32,1.5,0,1.53,2.22,0,2.22-22.26,0-22.43.87-22.43-22.94,0-.6-.31-1.06-.9-1.06-24.42,0-25.44,22.05-25.48,22.23l2.59-2.48s1.09,1.05.5,1.87c-.79,1.08-4.05,3.91-4.05,3.91,0,0-3.26-2.83-4.05-3.91-.59-.82.5-1.87.5-1.87l2.62,2.58s.43-24.53,28.34-24.53Z"/>
    <path class="cls-9" d="m361.97,334.59c.94,0,1.88-.7,1.88-1.65,0-24.17-.3-22.32,20.48-22.32,1.5,0,1.53-2.22,0-2.22-22.26,0-22.43-.87-22.43,22.94,0,.6-.31,1.06-.9,1.06-24.42,0-25.44-22.05-25.48-22.23l2.59,2.48s1.09-1.05.5-1.87c-.79-1.08-4.05-3.91-4.05-3.91,0,0-3.26,2.83-4.05,3.91-.59.82.5,1.87.5,1.87l2.62-2.58s.43,24.53,28.34,24.53Z"/>
    <path class="cls-9" d="m536.41,333.28c.94,0,1.88-.7,1.88-1.65,0-24.17-.3-22.32,20.48-22.32,1.5,0,1.53-2.22,0-2.22-22.26,0-22.43-.87-22.43,22.94,0,.6-.31,1.06-.9,1.06-24.42,0-25.44-22.05-25.48-22.23l2.59,2.48s1.09-1.05.5-1.87c-.79-1.08-4.05-3.91-4.05-3.91,0,0-3.26,2.83-4.05,3.91-.59.82.5,1.87.5,1.87l2.62-2.58s.43,24.53,28.34,24.53Z"/>
    <path class="cls-9" d="m711.31,333.42c.94,0,1.88-.7,1.88-1.65,0-24.17-.3-22.32,20.48-22.32,1.5,0,1.53-2.22,0-2.22-22.26,0-22.43-.87-22.43,22.94,0,.6-.31,1.06-.9,1.06-24.42,0-25.44-22.05-25.48-22.23l2.59,2.48s1.09-1.05.5-1.87c-.79-1.08-4.05-3.91-4.05-3.91,0,0-3.26,2.83-4.05,3.91-.59.82.5,1.87.5,1.87l2.62-2.58s.43,24.53,28.34,24.53Z"/>
    <path class="cls-9" d="m563.5,189.12c0-.94-.7-1.88-1.65-1.88-24.17,0-22.32.3-22.32-20.48,0-1.5-2.22-1.53-2.22,0,0,22.26-.87,22.43,22.94,22.43.6,0,1.06.31,1.06.9,0,24.42-22.05,25.44-22.23,25.48l2.48-2.59s-1.05-1.09-1.87-.5c-1.08.79-3.91,4.05-3.91,4.05,0,0,2.83,3.26,3.91,4.05.82.59,1.87-.5,1.87-.5l-2.58-2.62s24.53-.43,24.53-28.34Z"/>
    <path class="cls-9" d="m743.5,189.12c0-.94-.7-1.88-1.65-1.88-24.17,0-22.32.3-22.32-20.48,0-1.5-2.22-1.53-2.22,0,0,22.26-.87,22.43,22.94,22.43.6,0,1.06.31,1.06.9,0,24.42-22.05,25.44-22.23,25.48l2.48-2.59s-1.05-1.09-1.87-.5c-1.08.79-3.91,4.05-3.91,4.05,0,0,2.83,3.26,3.91,4.05.82.59,1.87-.5,1.87-.5l-2.58-2.62s24.53-.43,24.53-28.34Z"/>
  </g>
  <g>
    <path class="cls-6" d="m54.68,310.47l2.65,2.64s1.08-1.05.47-1.87c-.68-.94-4.06-3.95-4.06-3.95,0,0-3.23,2.77-4.09,3.95-.59.82.5,1.87.5,1.87l2.61-2.64c0,32.86,52.45,32.43,52.45-1.76,0-1.92-2.24-1.86-2.23,0,.1,31.49-48.2,31.03-48.3,1.76Z"/>
    <path class="cls-6" d="m627.43,395.02c0,11.31.78,19.27,10.07,21.63-9.43,2.98-9.84,8.29-9.84,18.89l-2.94-2.9s-1.17,1.11-.53,1.98c.92,1.26,4.36,4.22,4.36,4.22,0,0,3.6-3.22,4.33-4.22.65-.87-.5-1.98-.5-1.98l-2.84,2.9c-.52-14.59,3.9-17.75,17.62-17.75,1.4,0,1.38-2.61,0-2.61-13.61,0-17.43-2.18-17.43-20.17,0-1.42-2.31-1.39-2.31,0Z"/>
    <path class="cls-9" d="m86.8,499.87l2.64,2.65s-1.05,1.08-1.87.47c-.94-.68-3.95-4.06-3.95-4.06,0,0,2.77-3.23,3.95-4.09.82-.59,1.87.5,1.87.5l-2.64,2.61c32.86,0,32.43,52.45-1.76,52.45-1.92,0-1.86-2.24,0-2.23,31.49.1,31.03-48.2,1.76-48.3Z"/>
    <path class="cls-6" d="m720.33,434.6l2.64-2.65s-1.05-1.08-1.87-.47c-.94.68-3.95,4.06-3.95,4.06,0,0,2.77,3.23,3.95,4.09.82.59,1.87-.5,1.87-.5l-2.64-2.61c32.86,0,32.43-52.45-1.76-52.45-1.92,0-1.86,2.24,0,2.23,31.49-.1,31.03,48.2,1.76,48.3Z"/>
    <path class="cls-6" d="m192.96,531.21l-2.65,2.64s-1.08-1.05-.47-1.87c.68-.94,4.06-3.95,4.06-3.95,0,0,3.23,2.77,4.09,3.95.59.82-.5,1.87-.5,1.87l-2.61-2.64c0,32.86-52.45,32.43-52.45-1.76,0-1.92,2.24-1.86,2.23,0-.1,31.49,48.2,31.03,48.3,1.76Z"/>
    <path class="cls-6" d="m165.07,214.29c0-11.31-.78-19.27-10.07-21.63,9.43-2.98,9.84-8.29,9.84-18.89l2.94,2.9s1.17-1.11.53-1.98c-.92-1.26-4.36-4.22-4.36-4.22,0,0-3.6,3.22-4.33,4.22-.65.87.5,1.98.5,1.98l2.84-2.9c.52,14.59-3.9,17.75-17.62,17.75-1.4,0-1.38,2.61,0,2.61,13.61,0,17.43,2.18,17.43,20.17,0,1.42,2.31,1.39,2.31,0Z"/>
    <path class="cls-6" d="m253.45,214.29c0-11.31-.78-19.27-10.07-21.63,9.43-2.98,9.84-8.29,9.84-18.89l2.94,2.9s1.17-1.11.53-1.98c-.92-1.26-4.36-4.22-4.36-4.22,0,0-3.6,3.22-4.33,4.22-.65.87.5,1.98.5,1.98l2.84-2.9c.52,14.59-3.9,17.75-17.62,17.75-1.4,0-1.38,2.61,0,2.61,13.61,0,17.43,2.18,17.43,20.17,0,1.42,2.31,1.39,2.31,0Z"/>
    <path class="cls-6" d="m72.77,169.11l-2.64,2.65s1.05,1.08,1.87.47c.94-.68,3.95-4.06,3.95-4.06,0,0-2.77-3.23-3.95-4.09-.82-.59-1.87.5-1.87.5l2.64,2.61c-32.86,0-32.43,52.45,1.76,52.45,1.92,0,1.86-2.24,0-2.23-31.74.09-31.31-48.2-1.76-48.3Z"/>
    <path class="cls-6" d="m343.68,169.45l-2.64,2.65s1.05,1.08,1.87.47c.94-.68,3.95-4.06,3.95-4.06,0,0-2.77-3.23-3.95-4.09-.82-.59-1.87.5-1.87.5l2.64,2.61c-32.86,0-32.43,52.45,1.76,52.45,1.92,0,1.86-2.24,0-2.23-31.49.1-31.03-48.2-1.76-48.3Z"/>
    <path class="cls-6" d="m196.79,310.73c-11.31,0-19.27.78-21.63,10.07-2.98-9.43-8.29-9.84-18.89-9.84l2.9-2.94s-1.11-1.17-1.98-.53c-1.26.92-4.22,4.36-4.22,4.36,0,0,3.22,3.6,4.22,4.33.87.65,1.98-.5,1.98-.5l-2.9-2.84c14.59-.52,17.75,3.9,17.75,17.62,0,1.4,2.61,1.38,2.61,0,0-13.61,2.18-17.43,20.17-17.43,1.42,0,1.39-2.31,0-2.31Z"/>
    <path class="cls-6" d="m278.08,314.91c-11.31,0-19.27.78-21.63,10.07-2.98-9.43-8.29-9.84-18.89-9.84l2.9-2.94s-1.11-1.17-1.98-.53c-1.26.92-4.22,4.36-4.22,4.36,0,0,3.22,3.6,4.22,4.33.87.65,1.98-.5,1.98-.5l-2.9-2.84c14.59-.52,17.75,3.9,17.75,17.62,0,1.4,2.61,1.38,2.61,0,0-13.61,2.18-17.43,20.17-17.43,1.42,0,1.39-2.31,0-2.31Z"/>
    <path class="cls-6" d="m326.29,310.32l2.65,2.64s1.08-1.05.47-1.87c-.68-.94-4.06-3.95-4.06-3.95,0,0-3.23,2.77-4.09,3.95-.59.82.5,1.87.5,1.87l2.61-2.64c0,32.86,52.45,32.43,52.45-1.76,0-1.92-2.24-1.86-2.23,0,.1,31.49-48.2,31.03-48.3,1.76Z"/>
    <path class="cls-6" d="m142.67,407.61c11.31,0,19.27-.78,21.63-10.07,2.98,9.43,8.29,9.84,18.89,9.84l-2.9,2.94s1.11,1.17,1.98.53c1.26-.92,4.22-4.36,4.22-4.36,0,0-3.22-3.6-4.22-4.33-.87-.65-1.98.5-1.98.5l2.9,2.84c-14.59.52-17.75-3.9-17.75-17.62,0-1.4-2.61-1.38-2.61,0,0,13.61-2.18,17.43-20.17,17.43-1.42,0-1.39,2.31,0,2.31Z"/>
    <path class="cls-9" d="m357.94,540.94c0-11.31.78-19.27,10.07-21.63-9.43-2.98-9.84-8.29-9.84-18.89l-2.94,2.9s-1.17-1.11-.53-1.98c.92-1.26,4.36-4.22,4.36-4.22,0,0,3.6,3.22,4.33,4.22.65.87-.5,1.98-.5,1.98l-2.84-2.9c-.52,14.59,3.9,17.75,17.62,17.75,1.4,0,1.38,2.61,0,2.61-13.61,0-17.43,2.18-17.43,20.17,0,1.42-2.31,1.39-2.31,0Z"/>
    <path class="cls-6" d="m105.97,404.96l-2.65-2.64s-1.08,1.05-.47,1.87c.68.94,4.06,3.95,4.06,3.95,0,0,3.23-2.77,4.09-3.95.59-.82-.5-1.87-.5-1.87l-2.61,2.64c0-32.86-52.45-32.43-52.45,1.76,0,1.92,2.24,1.86,2.23,0-.1-31.49,48.2-31.03,48.3-1.76Z"/>
    <path class="cls-6" d="m371.53,407.66l-2.65-2.64s-1.08,1.05-.47,1.87c.68.94,4.06,3.95,4.06,3.95,0,0,3.23-2.77,4.09-3.95.59-.82-.5-1.87-.5-1.87l-2.61,2.64c0-32.86-52.45-32.43-52.45,1.76,0,1.92,2.24,1.86,2.23,0-.1-31.49,48.2-31.03,48.3-1.76Z"/>
    <path class="cls-6" d="m537.15,392.11c0,11.31.78,19.27,10.07,21.63-9.43,2.98-9.84,8.29-9.84,18.89l-2.94-2.9s-1.17,1.11-.53,1.98c.92,1.26,4.36,4.22,4.36,4.22,0,0,3.6-3.22,4.33-4.22.65-.87-.5-1.98-.5-1.98l-2.84,2.9c-.52-14.59,3.9-17.75,17.62-17.75,1.4,0,1.38-2.61,0-2.61-13.61,0-17.43-2.18-17.43-20.17,0-1.42-2.31-1.39-2.31,0Z"/>
    <path class="cls-6" d="m448.03,433.18l2.64-2.65s-1.05-1.08-1.87-.47c-.94.68-3.95,4.06-3.95,4.06,0,0,2.77,3.23,3.95,4.09.82.59,1.87-.5,1.87-.5l-2.64-2.61c32.86,0,32.43-52.45-1.76-52.45-1.92,0-1.86,2.24,0,2.23,31.49-.1,31.03,48.2,1.76,48.3Z"/>
    <path class="cls-6" d="m509.61,313.9c11.31,0,19.27.78,21.63,10.07,2.98-9.43,8.29-9.84,18.89-9.84l-2.9-2.94s1.11-1.17,1.98-.53c1.26.92,4.22,4.36,4.22,4.36,0,0-3.22,3.6-4.22,4.33-.87.65-1.98-.5-1.98-.5l2.9-2.84c-14.59-.52-17.75,3.9-17.75,17.62,0,1.4-2.61,1.38-2.61,0,0-13.61-2.18-17.43-20.17-17.43-1.42,0-1.39-2.31,0-2.31Z"/>
    <path class="cls-6" d="m591.92,312.92c11.31,0,19.27.78,21.63,10.07,2.98-9.43,8.29-9.84,18.89-9.84l-2.9-2.94s1.11-1.17,1.98-.53c1.26.92,4.22,4.36,4.22,4.36,0,0-3.22,3.6-4.22,4.33-.87.65-1.98-.5-1.98-.5l2.9-2.84c-14.59-.52-17.75,3.9-17.75,17.62,0,1.4-2.61,1.38-2.61,0,0-13.61-2.18-17.43-20.17-17.43-1.42,0-1.39-2.31,0-2.31Z"/>
    <path class="cls-6" d="m461.91,309.47l-2.65,2.64s-1.08-1.05-.47-1.87c.68-.94,4.06-3.95,4.06-3.95,0,0,3.23,2.77,4.09,3.95.59.82-.5,1.87-.5,1.87l-2.61-2.64c0,32.86-52.45,32.43-52.45-1.76,0-1.92,2.24-1.86,2.23,0-.1,31.49,48.2,31.03,48.3,1.76Z"/>
    <path class="cls-6" d="m523.47,171.51c0,11.31-.78,19.27-10.07,21.63,9.43,2.98,9.84,8.29,9.84,18.89l2.94-2.9s1.17,1.11.53,1.98c-.92,1.26-4.36,4.22-4.36,4.22,0,0-3.6-3.22-4.33-4.22-.65-.87.5-1.98.5-1.98l2.84,2.9c.52-14.59-3.9-17.75-17.62-17.75-1.4,0-1.38-2.61,0-2.61,13.61,0,17.43-2.18,17.43-20.17,0-1.42,2.31-1.39,2.31,0Z"/>
    <path class="cls-6" d="m613.45,171.51c0,11.31-.78,19.27-10.07,21.63,9.43,2.98,9.84,8.29,9.84,18.89l2.94-2.9s1.17,1.11.53,1.98c-.92,1.26-4.36,4.22-4.36,4.22,0,0-3.6-3.22-4.33-4.22-.65-.87.5-1.98.5-1.98l2.84,2.9c.52-14.59-3.9-17.75-17.62-17.75-1.4,0-1.38-2.61,0-2.61,13.61,0,17.43-2.18,17.43-20.17,0-1.42,2.31-1.39,2.31,0Z"/>
    <path class="cls-6" d="m432.77,216.69l-2.64-2.65s1.05-1.08,1.87-.47c.94.68,3.95,4.06,3.95,4.06,0,0-2.77,3.23-3.95,4.09-.82.59-1.87-.5-1.87-.5l2.64-2.61c-32.86,0-32.43-52.45,1.76-52.45,1.92,0,1.86,2.24,0,2.23-31.49-.1-31.03,48.2-1.76,48.3Z"/>
    <path class="cls-6" d="m703.06,216.69l-2.64-2.65s1.05-1.08,1.87-.47c.94.68,3.95,4.06,3.95,4.06,0,0-2.77,3.23-3.95,4.09-.82.59-1.87-.5-1.87-.5l2.64-2.61c-32.86,0-32.43-52.45,1.76-52.45,1.92,0,1.86,2.24,0,2.23-31.49-.1-31.03,48.2-1.76,48.3Z"/>
    <path class="cls-6" d="m647.32,531.42l-2.65,2.64s-1.08-1.05-.47-1.87c.68-.94,4.06-3.95,4.06-3.95,0,0,3.23,2.77,4.09,3.95.59.82-.5,1.87-.5,1.87l-2.61-2.64c0,32.86-52.45,32.43-52.45-1.76,0-1.92,2.24-1.86,2.23,0-.1,31.49,48.2,31.03,48.3,1.76Z"/>
    <path class="cls-6" d="m509.61,528.66c11.31,0,19.27.78,21.63,10.07,2.98-9.43,8.29-9.84,18.89-9.84l-2.9-2.94s1.11-1.17,1.98-.53c1.26.92,4.22,4.36,4.22,4.36,0,0-3.22,3.6-4.22,4.33-.87.65-1.98-.5-1.98-.5l2.9-2.84c-14.59-.52-17.75,3.9-17.75,17.62,0,1.4-2.61,1.38-2.61,0,0-13.61-2.18-17.43-20.17-17.43-1.42,0-1.39-2.31,0-2.31Z"/>
    <path class="cls-9" d="m716.39,540.27c0-11.31.78-19.27,10.07-21.63-9.43-2.98-9.84-8.29-9.84-18.89l-2.94,2.9s-1.17-1.11-.53-1.98c.92-1.26,4.36-4.22,4.36-4.22,0,0,3.6,3.22,4.33,4.22.65.87-.5,1.98-.5,1.98l-2.84-2.9c-.52,14.59,3.9,17.75,17.62,17.75,1.4,0,1.38,2.61,0,2.61-13.61,0-17.43,2.18-17.43,20.17,0,1.42-2.31,1.39-2.31,0Z"/>
    <path class="cls-9" d="m446.79,501.65l2.64,2.65s-1.05,1.08-1.87.47c-.94-.68-3.95-4.06-3.95-4.06,0,0,2.77-3.23,3.95-4.09.82-.59,1.87.5,1.87.5l-2.64,2.61c32.86,0,32.43,52.45-1.76,52.45-1.92,0-1.86-2.24,0-2.23,31.49.1,31.03-48.2,1.76-48.3Z"/>
    <path class="cls-6" d="m739.6,309.87l-2.65,2.64s-1.08-1.05-.47-1.87c.68-.94,4.06-3.95,4.06-3.95,0,0,3.23,2.77,4.09,3.95.59.82-.5,1.87-.5,1.87l-2.61-2.64c0,32.86-52.45,32.43-52.45-1.76,0-1.92,2.24-1.86,2.23,0-.1,31.49,48.2,31.03,48.3,1.76Z"/>
    <path class="cls-6" d="m234.93,404.2c11.31,0,19.27-.78,21.63-10.07,2.98,9.43,8.29,9.84,18.89,9.84l-2.9,2.94s1.11,1.17,1.98.53c1.26-.92,4.22-4.36,4.22-4.36,0,0-3.22-3.6-4.22-4.33-.87-.65-1.98.5-1.98.5l2.9,2.84c-14.59.52-17.75-3.9-17.75-17.62,0-1.4-2.61-1.38-2.61,0,0,13.61-2.18,17.43-20.17,17.43-1.42,0-1.39,2.31,0,2.31Z"/>
    <path class="cls-6" d="m237.69,528.23c11.31,0,19.27.78,21.63,10.07,2.98-9.43,8.29-9.84,18.89-9.84l-2.9-2.94s1.11-1.17,1.98-.53c1.26.92,4.22,4.36,4.22,4.36,0,0-3.22,3.6-4.22,4.33-.87.65-1.98-.5-1.98-.5l2.9-2.84c-14.59-.52-17.75,3.9-17.75,17.62,0,1.4-2.61,1.38-2.61,0,0-13.61-2.18-17.43-20.17-17.43-1.42,0-1.39-2.31,0-2.31Z"/>
  </g>
  <g>
    <g>
      <g>
        <circle class="cls-3" cx="81" cy="223.19" r="2.5"/>
        <circle class="cls-3" cx="111" cy="193.19" r="2.5"/>
        <circle class="cls-3" cx="81" cy="163.19" r="2.5"/>
        <circle class="cls-3" cx="51" cy="193.19" r="2.5"/>
        <circle class="cls-3" cx="81" cy="193.19" r="1.12"/>
      </g>
      <g>
        <circle class="cls-3" cx="171" cy="223.19" r="2.5"/>
        <circle class="cls-3" cx="201" cy="193.19" r="2.5"/>
        <circle class="cls-3" cx="171" cy="163.19" r="2.5"/>
        <circle class="cls-3" cx="141" cy="193.19" r="2.5"/>
        <circle class="cls-3" cx="171" cy="193.19" r="1.12"/>
      </g>
      <g>
        <circle class="cls-3" cx="261" cy="223.19" r="2.5"/>
        <circle class="cls-3" cx="291" cy="193.19" r="2.5"/>
        <circle class="cls-3" cx="261" cy="163.19" r="2.5"/>
        <circle class="cls-3" cx="231" cy="193.19" r="2.5"/>
        <circle class="cls-3" cx="261" cy="193.19" r="1.12"/>
      </g>
      <g>
        <circle class="cls-3" cx="351" cy="223.19" r="2.5"/>
        <circle class="cls-3" cx="381" cy="193.19" r="2.5"/>
        <circle class="cls-3" cx="351" cy="163.19" r="2.5"/>
        <circle class="cls-3" cx="321" cy="193.19" r="2.5"/>
        <circle class="cls-3" cx="351" cy="193.19" r="1.12"/>
      </g>
      <g>
        <circle class="cls-3" cx="441" cy="223.19" r="2.5"/>
        <circle class="cls-3" cx="471" cy="193.19" r="2.5"/>
        <circle class="cls-3" cx="441" cy="163.19" r="2.5"/>
        <circle class="cls-3" cx="411" cy="193.19" r="2.5"/>
        <circle class="cls-3" cx="441" cy="193.19" r="1.12"/>
      </g>
      <g>
        <circle class="cls-3" cx="531" cy="223.19" r="2.5"/>
        <circle class="cls-3" cx="561" cy="193.19" r="2.5"/>
        <circle class="cls-3" cx="531" cy="163.19" r="2.5"/>
        <circle class="cls-3" cx="501" cy="193.19" r="2.5"/>
        <circle class="cls-3" cx="531" cy="193.19" r="1.12"/>
      </g>
      <g>
        <circle class="cls-3" cx="621" cy="223.19" r="2.5"/>
        <circle class="cls-3" cx="651" cy="193.19" r="2.5"/>
        <circle class="cls-3" cx="621" cy="163.19" r="2.5"/>
        <circle class="cls-3" cx="591" cy="193.19" r="2.5"/>
        <circle class="cls-3" cx="621" cy="193.19" r="1.12"/>
      </g>
      <g>
        <circle class="cls-3" cx="711" cy="223.19" r="2.5"/>
        <circle class="cls-3" cx="741" cy="193.19" r="2.5"/>
        <circle class="cls-3" cx="711" cy="163.19" r="2.5"/>
        <circle class="cls-3" cx="681" cy="193.19" r="2.5"/>
        <circle class="cls-3" cx="711" cy="193.19" r="1.12"/>
      </g>
    </g>
    <g>
      <g>
        <circle class="cls-3" cx="81" cy="333.19" r="2.5"/>
        <circle class="cls-3" cx="111" cy="303.19" r="2.5"/>
        <circle class="cls-3" cx="81" cy="273.19" r="2.5"/>
        <circle class="cls-3" cx="51" cy="303.19" r="2.5"/>
        <circle class="cls-3" cx="81" cy="303.19" r="1.12"/>
      </g>
      <g>
        <circle class="cls-3" cx="171" cy="333.19" r="2.5"/>
        <circle class="cls-3" cx="201" cy="303.19" r="2.5"/>
        <circle class="cls-3" cx="171" cy="273.19" r="2.5"/>
        <circle class="cls-3" cx="141" cy="303.19" r="2.5"/>
        <circle class="cls-3" cx="171" cy="303.19" r="1.12"/>
      </g>
      <g>
        <circle class="cls-3" cx="261" cy="333.19" r="2.5"/>
        <circle class="cls-3" cx="291" cy="303.19" r="2.5"/>
        <circle class="cls-3" cx="261" cy="273.19" r="2.5"/>
        <circle class="cls-3" cx="231" cy="303.19" r="2.5"/>
        <circle class="cls-3" cx="261" cy="303.19" r="1.12"/>
      </g>
      <g>
        <circle class="cls-3" cx="351" cy="333.19" r="2.5"/>
        <circle class="cls-3" cx="381" cy="303.19" r="2.5"/>
        <circle class="cls-3" cx="351" cy="273.19" r="2.5"/>
        <circle class="cls-3" cx="321" cy="303.19" r="2.5"/>
        <circle class="cls-3" cx="351" cy="303.19" r="1.12"/>
      </g>
      <g>
        <circle class="cls-3" cx="441" cy="333.19" r="2.5"/>
        <circle class="cls-3" cx="471" cy="303.19" r="2.5"/>
        <circle class="cls-3" cx="441" cy="273.19" r="2.5"/>
        <circle class="cls-3" cx="411" cy="303.19" r="2.5"/>
        <circle class="cls-3" cx="441" cy="303.19" r="1.12"/>
      </g>
      <g>
        <circle class="cls-3" cx="531" cy="333.19" r="2.5"/>
        <circle class="cls-3" cx="561" cy="303.19" r="2.5"/>
        <circle class="cls-3" cx="531" cy="273.19" r="2.5"/>
        <circle class="cls-3" cx="501" cy="303.19" r="2.5"/>
        <circle class="cls-3" cx="531" cy="303.19" r="1.12"/>
      </g>
      <g>
        <circle class="cls-3" cx="621" cy="333.19" r="2.5"/>
        <circle class="cls-3" cx="651" cy="303.19" r="2.5"/>
        <circle class="cls-3" cx="621" cy="273.19" r="2.5"/>
        <circle class="cls-3" cx="591" cy="303.19" r="2.5"/>
        <circle class="cls-3" cx="621" cy="303.19" r="1.12"/>
      </g>
      <g>
        <circle class="cls-3" cx="711" cy="333.19" r="2.5"/>
        <circle class="cls-3" cx="741" cy="303.19" r="2.5"/>
        <circle class="cls-3" cx="711" cy="273.19" r="2.5"/>
        <circle class="cls-3" cx="681" cy="303.19" r="2.5"/>
        <circle class="cls-3" cx="711" cy="303.19" r="1.12"/>
      </g>
    </g>
    <g>
      <g>
        <circle class="cls-3" cx="81" cy="443.19" r="2.5"/>
        <circle class="cls-3" cx="111" cy="413.19" r="2.5"/>
        <circle class="cls-3" cx="81" cy="383.19" r="2.5"/>
        <circle class="cls-3" cx="51" cy="413.19" r="2.5"/>
        <circle class="cls-3" cx="81" cy="413.19" r="1.12"/>
      </g>
      <g>
        <circle class="cls-3" cx="171" cy="443.19" r="2.5"/>
        <circle class="cls-3" cx="201" cy="413.19" r="2.5"/>
        <circle class="cls-3" cx="171" cy="383.19" r="2.5"/>
        <circle class="cls-3" cx="141" cy="413.19" r="2.5"/>
        <circle class="cls-3" cx="171" cy="413.19" r="1.12"/>
      </g>
      <g>
        <circle class="cls-3" cx="261" cy="443.19" r="2.5"/>
        <circle class="cls-3" cx="291" cy="413.19" r="2.5"/>
        <circle class="cls-3" cx="261" cy="383.19" r="2.5"/>
        <circle class="cls-3" cx="231" cy="413.19" r="2.5"/>
        <circle class="cls-3" cx="261" cy="413.19" r="1.12"/>
      </g>
      <g>
        <circle class="cls-3" cx="351" cy="443.19" r="2.5"/>
        <circle class="cls-3" cx="381" cy="413.19" r="2.5"/>
        <circle class="cls-3" cx="351" cy="383.19" r="2.5"/>
        <circle class="cls-3" cx="321" cy="413.19" r="2.5"/>
        <circle class="cls-3" cx="351" cy="413.19" r="1.12"/>
      </g>
      <g>
        <circle class="cls-3" cx="441" cy="443.19" r="2.5"/>
        <circle class="cls-3" cx="471" cy="413.19" r="2.5"/>
        <circle class="cls-3" cx="441" cy="383.19" r="2.5"/>
        <circle class="cls-3" cx="411" cy="413.19" r="2.5"/>
        <circle class="cls-3" cx="441" cy="413.19" r="1.12"/>
      </g>
      <g>
        <circle class="cls-3" cx="531" cy="443.19" r="2.5"/>
        <circle class="cls-3" cx="561" cy="413.19" r="2.5"/>
        <circle class="cls-3" cx="531" cy="383.19" r="2.5"/>
        <circle class="cls-3" cx="501" cy="413.19" r="2.5"/>
        <circle class="cls-3" cx="531" cy="413.19" r="1.12"/>
      </g>
      <g>
        <circle class="cls-3" cx="621" cy="443.19" r="2.5"/>
        <circle class="cls-3" cx="651" cy="413.19" r="2.5"/>
        <circle class="cls-3" cx="621" cy="383.19" r="2.5"/>
        <circle class="cls-3" cx="591" cy="413.19" r="2.5"/>
        <circle class="cls-3" cx="621" cy="413.19" r="1.12"/>
      </g>
      <g>
        <circle class="cls-3" cx="711" cy="443.19" r="2.5"/>
        <circle class="cls-3" cx="741" cy="413.19" r="2.5"/>
        <circle class="cls-3" cx="711" cy="383.19" r="2.5"/>
        <circle class="cls-3" cx="681" cy="413.19" r="2.5"/>
        <circle class="cls-3" cx="711" cy="413.19" r="1.12"/>
      </g>
    </g>
    <g>
      <g>
        <circle class="cls-3" cx="81" cy="553.19" r="2.5"/>
        <circle class="cls-3" cx="111" cy="523.19" r="2.5"/>
        <circle class="cls-3" cx="81" cy="493.19" r="2.5"/>
        <circle class="cls-3" cx="51" cy="523.19" r="2.5"/>
        <circle class="cls-3" cx="81" cy="523.19" r="1.12"/>
      </g>
      <g>
        <circle class="cls-3" cx="171" cy="553.19" r="2.5"/>
        <circle class="cls-3" cx="201" cy="523.19" r="2.5"/>
        <circle class="cls-3" cx="171" cy="493.19" r="2.5"/>
        <circle class="cls-3" cx="141" cy="523.19" r="2.5"/>
        <circle class="cls-3" cx="171" cy="523.19" r="1.12"/>
      </g>
      <g>
        <circle class="cls-3" cx="261" cy="553.19" r="2.5"/>
        <circle class="cls-3" cx="291" cy="523.19" r="2.5"/>
        <circle class="cls-3" cx="261" cy="493.19" r="2.5"/>
        <circle class="cls-3" cx="231" cy="523.19" r="2.5"/>
        <circle class="cls-3" cx="261" cy="523.19" r="1.12"/>
      </g>
      <g>
        <circle class="cls-3" cx="351" cy="553.19" r="2.5"/>
        <circle class="cls-3" cx="381" cy="523.19" r="2.5"/>
        <circle class="cls-3" cx="351" cy="493.19" r="2.5"/>
        <circle class="cls-3" cx="321" cy="523.19" r="2.5"/>
        <circle class="cls-3" cx="351" cy="523.19" r="1.12"/>
      </g>
      <g>
        <circle class="cls-3" cx="441" cy="553.19" r="2.5"/>
        <circle class="cls-3" cx="471" cy="523.19" r="2.5"/>
        <circle class="cls-3" cx="441" cy="493.19" r="2.5"/>
        <circle class="cls-3" cx="411" cy="523.19" r="2.5"/>
        <circle class="cls-3" cx="441" cy="523.19" r="1.12"/>
      </g>
      <g>
        <circle class="cls-3" cx="531" cy="553.19" r="2.5"/>
        <circle class="cls-3" cx="561" cy="523.19" r="2.5"/>
        <circle class="cls-3" cx="531" cy="493.19" r="2.5"/>
        <circle class="cls-3" cx="501" cy="523.19" r="2.5"/>
        <circle class="cls-3" cx="531" cy="523.19" r="1.12"/>
      </g>
      <g>
        <circle class="cls-3" cx="621" cy="553.19" r="2.5"/>
        <circle class="cls-3" cx="651" cy="523.19" r="2.5"/>
        <circle class="cls-3" cx="621" cy="493.19" r="2.5"/>
        <circle class="cls-3" cx="591" cy="523.19" r="2.5"/>
        <circle class="cls-3" cx="621" cy="523.19" r="1.12"/>
      </g>
      <g>
        <circle class="cls-3" cx="711" cy="553.19" r="2.5"/>
        <circle class="cls-3" cx="741" cy="523.19" r="2.5"/>
        <circle class="cls-3" cx="711" cy="493.19" r="2.5"/>
        <circle class="cls-3" cx="681" cy="523.19" r="2.5"/>
        <circle class="cls-3" cx="711" cy="523.19" r="1.12"/>
      </g>
    </g>
  </g>
  <path class="cls-9" d="m86.51,165.05c17.53,2.51,24.9,14.53,25.32,32.79.03.94-.7,1.88-1.65,1.88-22.21,0-20.92-1.15-20.92,17.85l2.62-2.58s1.09,1.05.5,1.87c-.79,1.08-4.05,3.91-4.05,3.91,0,0-3.26-2.83-4.05-3.91-.59-.82.5-1.87.5-1.87l2.62,2.58c0-10.06-.15-14.61,2.22-16.98,2.38-2.38,7.3-2.92,18.86-2.92.6,0,1.09-.31,1.06-.9-.87-15.98-7.03-27.11-23.24-29.41-1.59-.23-1.62-2.56.21-2.3Z"/>
</svg>