<?xml version="1.0" encoding="UTF-8"?>
<svg id="Layer_1" data-name="Layer 1" xmlns="http://www.w3.org/2000/svg" viewBox="0 0 792 612">
  <defs>
    <style>
      .cls-1 {
        font-family: MonotypeCorsiva, 'Monotype Corsiva';
        font-size: 40px;
      }

      .cls-1, .cls-2, .cls-3, .cls-4 {
        fill: #231f20;
      }

      .cls-5 {
        fill: #00aeef;
      }

      .cls-6 {
        fill: #2e3192;
      }

      .cls-7, .cls-4 {
        font-family: Cambria-BoldItalic, Cambria;
        font-size: 30px;
        font-style: italic;
        font-weight: 700;
      }

      .cls-2 {
        letter-spacing: -.03em;
      }

      .cls-8 {
        fill: #7f3f98;
      }

      .cls-9 {
        fill: #ed1c24;
      }

      .cls-10 {
        fill: none;
        stroke: #231f20;
        stroke-miterlimit: 10;
        stroke-width: .5px;
      }
    </style>
  </defs>
  <text transform="translate(183.89 53.5)"><tspan class="cls-1"><tspan x="0" y="0">Full-</tspan><tspan x="71.95" y="0">Reversal</tspan><tspan x="191.91" y="0" xml:space="preserve"> | Hand-</tspan><tspan x="321.48" y="0">Reversal</tspan></tspan><tspan class="cls-4"><tspan x="148.48" y="36">Type 1 → 1</tspan></tspan><tspan class="cls-7"><tspan class="cls-5" x="157.28" y="72">D</tspan><tspan class="cls-2" x="177.64" y="72">-</tspan><tspan class="cls-8" x="186.52" y="72">S </tspan><tspan class="cls-3" x="208.15" y="72">→ </tspan><tspan class="cls-5" x="239.9" y="72">D</tspan><tspan class="cls-2" x="260.26" y="72">-</tspan><tspan class="cls-8" x="269.14" y="72">S</tspan></tspan></text>
  <g>
    <g>
      <path class="cls-3" d="m79.77,242.98c-.87-2.99-2.3-6.84-2.48-7.31-.18-.46-.77-1.7-1.18-1.7s-1,1.24-1.18,1.7c-.18.47-1.61,4.32-2.48,7.31-.24.84.06.91.18.94,1.61.21,1.32-.3,1.57-1.4.23-1,.22-1.46,1-1.46.38,0,.56.01.91.01s.54-.01.91-.01c.78,0,.77.46,1,1.46.25,1.1-.04,1.61,1.57,1.4.12-.03.42-.1.18-.94Zm-2.91-3.37h-1.51c-.14,0-.23-.07-.19-.23l.94-3.44.94,3.44c.04.16-.05.23-.19.23Z"/>
      <path class="cls-3" d="m268.64,242.98c-.87-2.99-2.3-6.84-2.48-7.31-.18-.46-.77-1.7-1.18-1.7s-1,1.24-1.18,1.7c-.18.47-1.61,4.32-2.48,7.31-.24.84.06.91.18.94,1.61.21,1.32-.3,1.57-1.4.23-1,.22-1.46,1-1.46.38,0,.56.01.91.01s.54-.01.91-.01c.78,0,.77.46,1,1.46.25,1.1-.04,1.61,1.57,1.4.12-.03.42-.1.18-.94Zm-2.91-3.37h-1.51c-.14,0-.23-.07-.19-.23l.94-3.44.94,3.44c.04.16-.05.23-.19.23Z"/>
      <path class="cls-3" d="m164.34,238.83c4.39-1.93.8-6.48-3.28-4.27-.04.02-.07.06-.07.1-.38,2.63-.16,6.19.2,8.71.02.13.12.23.24.27,6.22,1.71,7.68-3.78,2.91-4.81Zm.65-2.47c0,1.13-1.98,1.51-2.74,1.51-.13-.26-.02-2.43.07-2.53.9-.25,2.67.04,2.67,1.02Zm-2.38,6.17c-.17-1.1-.2-1.41-.14-2.54.47-.06,3.32-.1,3.29,1.38-.03,1.15-2.44,1.38-3.15,1.16Z"/>
      <path class="cls-3" d="m355,238.83c4.39-1.93.8-6.48-3.28-4.27-.04.02-.07.06-.07.1-.38,2.63-.16,6.19.2,8.71.02.13.12.23.24.27,6.22,1.71,7.68-3.78,2.91-4.81Zm.65-2.47c0,1.13-1.98,1.51-2.74,1.51-.13-.26-.02-2.43.07-2.53.9-.25,2.67.04,2.67,1.02Zm-2.38,6.17c-.17-1.1-.2-1.41-.14-2.54.47-.06,3.32-.1,3.29,1.38-.03,1.15-2.44,1.38-3.15,1.16Z"/>
      <path class="cls-3" d="m433.62,234.42c4.64-1.3,7.94.33,7.99,3.72.1,6.19-7.54,6.06-7.86,5.69-.19-.72-.85-5.47-.13-9.41Zm1.61,7.69c3.94-.46,5.1-2.07,4.74-4.52-.36-2.45-4.31-2.07-4.85-1.81-.26,3.6-.2,4.36.11,6.32Z"/>
      <path class="cls-3" d="m525.19,236.96c0,.36.02,1.02.02,1.02,0,0,2.18.01,3.53.07.5.02.9-.07.95.78.04.6-.32.73-.87.77-1.28.09-3.49.05-3.49.05,0,0,.03,1.16.07,1.65.03.39.1.88.1.88,0,0,3.53.01,3.93,0,.33,0,.84,0,.81.84-.03.89-.42.83-.98.87-1.49.1-4.12,0-4.84-.38-1.02-.55-.79-5.46-.37-8.84.08-.67,3.98-.71,4.96-.62.44.04.67.53.67.82,0,.31,0,.87-.59.9-1.38.08-3.86.16-3.86.16,0,0-.03.8-.02,1.03Z"/>
      <path class="cls-3" d="m625.51,237.55c-.23-1.81.31-1.52-1.96-1.52-.48,0-1.1-.23-1.08-.83.02-.68.18-1,1.11-1,.29,0,2.96-.14,5.13-.13.75,0,1.29.31,1.29,1,0,.56-.42.9-1.31.9-1.86,0-1.61-.26-1.61,1.62,0,2.18.1,3.12-.28,3.9-2.04,4.14-6.19,2.28-6.19-.8,0-.58.16-.88.74-.92.52-.04.65.48.76.88.75,2.71,4.08,2.04,3.42-3.1Z"/>
      <path class="cls-3" d="m713.89,240.08c0,1.63,0,2.16,0,3.1,0,.66-.29.79-.8.79-.52,0-.93-.29-.93-.87,0-1.15-.04-6.16-.04-8.56,0-.52.34-.57.65-.57.41,0,.86.14.86.57,0,1.02.08,3.16.08,3.16,0,0,1.87-1.75,2.5-2.42.41-.44,1-.5,1.3-.14s.47.6-.1,1.15c-.85.84-1.04,1.21-2.46,2.53.83.86,2.18,1.99,3.61,3.62.45.51.34,1.14.17,1.3s-.8.24-1.19-.17-1.92-2.09-3.65-3.5Z"/>
      <path class="cls-3" d="m445.44,234.59c-.19,8.85-.94,7.8,4.1,7.75.71,0,1.24.12,1.24.84,0,.33-.44.77-1.2.77-4.71,0-4.71.13-5.33-.4-.49-.41-.42-1.9-.42-2.78,0-1.17.02-5.56.1-6.18.08-.62.33-.62.75-.62.38,0,.77.09.76.62Z"/>
      <path class="cls-3" d="m533.96,234.59c-.19,8.85-.94,7.8,4.1,7.75.71,0,1.24.12,1.24.84,0,.33-.44.77-1.2.77-4.71,0-4.71.13-5.33-.4-.49-.41-.42-1.9-.42-2.78,0-1.17.02-5.56.1-6.18.08-.62.33-.62.75-.62.38,0,.77.09.76.62Z"/>
      <path class="cls-3" d="m349.54,241.73c.42.55-.07,1.12-.5,1.33-9.15,4.54-8.83-9.42-3.27-9.09,1.07.06,2.05.85,2.39,1.26.25.29.44.81.12,1.16-.34.36-.8.24-1.02,0-4.33-4.56-6.65,9.06,1.11,5.25.45-.22.79-.4,1.16.09Z"/>
      <path class="cls-3" d="m260.25,241.73c.42.55-.07,1.12-.5,1.33-9.15,4.54-8.83-9.42-3.27-9.09,1.07.06,2.05.85,2.39,1.26.25.29.44.81.12,1.16-.34.36-.8.24-1.02,0-4.33-4.56-6.65,9.06,1.11,5.25.45-.22.79-.4,1.16.09Z"/>
      <path class="cls-3" d="m176.55,241.73c.42.55-.07,1.12-.5,1.33-9.15,4.54-8.83-9.42-3.27-9.09,1.07.06,2.05.85,2.39,1.26.25.29.44.81.12,1.16-.34.36-.8.24-1.02,0-4.33-4.56-6.65,9.06,1.11,5.25.45-.22.79-.4,1.16.09Z"/>
      <path class="cls-3" d="m89.06,241.73c.42.55-.07,1.12-.5,1.33-9.15,4.54-8.83-9.42-3.27-9.09,1.07.06,2.05.85,2.39,1.26.25.29.44.81.12,1.16-.34.36-.8.24-1.02,0-4.33-4.56-6.65,9.06,1.11,5.25.45-.22.79-.4,1.16.09Z"/>
      <path class="cls-3" d="m614.3,243.32c-.21-2.13-.27-7.16-.03-8.83,0,0,1.78-.75,5.18-.44.42.04.62.25.63.53.03.54,0,1.08-.55,1.11-1.32.07-3.68.15-3.68.15,0,0-.03.76-.02.98,0,.34.02.97.02.97,0,0,2.08.01,3.36.07.47.02.88-.05.91.74.02.57-.38.7-.91.74-1.22.09-3.25.04-3.25.04.07,1.57.19,3.19.19,3.78,0,.69-.57.8-.97.8-.59,0-.85-.44-.87-.65Z"/>
      <path class="cls-3" d="m704.3,243.32c-.21-2.13-.27-7.16-.03-8.83,0,0,1.78-.75,5.18-.44.42.04.62.25.63.53.03.54,0,1.08-.55,1.11-1.32.07-3.68.15-3.68.15,0,0-.03.76-.02.98,0,.34.02.97.02.97,0,0,2.08.01,3.36.07.47.02.88-.05.91.74.02.57-.38.7-.91.74-1.22.09-3.25.04-3.25.04.07,1.57.19,3.19.19,3.78,0,.69-.57.8-.97.8-.59,0-.85-.44-.87-.65Z"/>
    </g>
    <g>
      <path class="cls-3" d="m621.47,344.42c4.64-1.3,7.94.33,7.99,3.72.1,6.19-7.54,6.06-7.86,5.69-.19-.72-.85-5.47-.13-9.41Zm1.61,7.69c3.94-.46,5.1-2.07,4.74-4.52s-4.31-2.07-4.85-1.81c-.26,3.6-.2,4.36.11,6.32Z"/>
      <path class="cls-3" d="m712.78,346.96c0,.36.02,1.02.02,1.02,0,0,2.18.01,3.53.07.5.02.9-.07.95.78.04.6-.32.73-.87.77-1.28.09-3.49.05-3.49.05,0,0,.03,1.16.07,1.65.03.39.1.88.1.88,0,0,3.53.01,3.93,0,.33,0,.84,0,.81.84-.03.89-.42.83-.98.87-1.49.1-4.12,0-4.84-.38-1.02-.55-.79-5.46-.37-8.84.08-.67,3.98-.71,4.96-.62.44.04.67.53.67.82,0,.31,0,.87-.59.9-1.38.08-3.86.16-3.86.16,0,0-.03.8-.02,1.03Z"/>
      <path class="cls-3" d="m256.23,344.84c0,.48-.36.78-1.13.78-2.17,0-2.11.07-2.11,1.38s0,2.24,0,3.59c0,1.78-.28,1.77,1.44,1.82.75.02,1.77-.03,1.77.74,0,.35-.47.83-1.28.82-1.73.03-4.08,0-4.91-.02s-1.46-.29-1.45-.89c.01-.68.89-.76,1.79-.76,1.33,0,1.12-.58,1.12-1.72,0-1.25.07-2.26.07-3.52,0-1.53.47-1.31-2.04-1.31-.41,0-.94-.27-.93-.79.02-.58.15-.86.96-.86.25,0,3.72-.12,5.59-.11.65,0,1.11.26,1.11.86Z"/>
      <path class="cls-3" d="m86.9,344.84c0,.48-.36.78-1.13.78-2.17,0-2.11.07-2.11,1.38s0,2.24,0,3.59c0,1.78-.28,1.77,1.44,1.82.75.02,1.77-.03,1.77.74,0,.35-.47.83-1.28.82-1.73.03-4.08,0-4.91-.02s-1.46-.29-1.45-.89c.01-.68.89-.76,1.79-.76,1.33,0,1.12-.58,1.12-1.72,0-1.25.07-2.26.07-3.52,0-1.53.47-1.31-2.04-1.31-.41,0-.94-.27-.93-.79.02-.58.15-.86.96-.86.25,0,3.72-.12,5.59-.11.65,0,1.11.26,1.11.86Z"/>
      <path class="cls-3" d="m179.6,344.84c0,.48-.36.78-1.13.78-2.17,0-2.11.07-2.11,1.38s0,2.24,0,3.59c0,1.78-.28,1.77,1.44,1.82.75.02,1.77-.03,1.77.74,0,.35-.47.83-1.28.82-1.73.03-4.08,0-4.91-.02s-1.46-.29-1.45-.89c.01-.68.89-.76,1.79-.76,1.33,0,1.12-.58,1.12-1.72,0-1.25.07-2.26.07-3.52,0-1.53.47-1.31-2.04-1.31-.41,0-.94-.27-.93-.79.02-.58.15-.86.96-.86.25,0,3.72-.12,5.59-.11.65,0,1.11.26,1.11.86Z"/>
      <path class="cls-3" d="m347.47,344.84c0,.48-.36.78-1.13.78-2.17,0-2.11.07-2.11,1.38s0,2.24,0,3.59c0,1.78-.28,1.77,1.44,1.82.75.02,1.77-.03,1.77.74,0,.35-.47.83-1.28.82-1.73.03-4.08,0-4.91-.02s-1.46-.29-1.45-.89c.01-.68.89-.76,1.79-.76,1.33,0,1.12-.58,1.12-1.72,0-1.25.07-2.26.07-3.52,0-1.53.47-1.31-2.04-1.31-.41,0-.94-.27-.93-.79.02-.58.15-.86.96-.86.25,0,3.72-.12,5.59-.11.65,0,1.11.26,1.11.86Z"/>
      <path class="cls-3" d="m434.35,347.55c-.23-1.81.31-1.52-1.96-1.52-.48,0-1.1-.23-1.08-.83.02-.68.18-1,1.11-1,.29,0,2.96-.14,5.13-.13.75,0,1.29.31,1.29,1,0,.56-.42.9-1.31.9-1.86,0-1.61-.26-1.61,1.62,0,2.18.1,3.12-.28,3.9-2.04,4.14-6.19,2.28-6.19-.8,0-.58.16-.88.74-.92.52-.04.65.48.76.88.75,2.71,4.08,2.04,3.42-3.1Z"/>
      <path class="cls-3" d="m525.17,350.08c0,1.63,0,2.16,0,3.1,0,.66-.29.79-.8.79-.52,0-.93-.29-.93-.87,0-1.15-.04-6.16-.04-8.56,0-.52.34-.57.65-.57.41,0,.86.14.86.57,0,1.02.08,3.16.08,3.16,0,0,1.87-1.75,2.5-2.42.41-.44,1-.5,1.3-.14s.47.6-.1,1.15c-.85.84-1.04,1.21-2.46,2.53.83.86,2.18,1.99,3.61,3.62.45.51.34,1.14.17,1.3s-.8.24-1.19-.17-1.92-2.09-3.65-3.5Z"/>
      <path class="cls-3" d="m615.19,344.59c-.19,8.85-.94,7.8,4.1,7.75.71,0,1.24.12,1.24.84,0,.33-.44.77-1.2.77-4.71,0-4.71.13-5.33-.4-.49-.41-.42-1.9-.42-2.78,0-1.17.02-5.56.1-6.18s.33-.62.75-.62c.38,0,.77.09.76.62Z"/>
      <path class="cls-3" d="m704.35,344.59c-.19,8.85-.94,7.8,4.1,7.75.71,0,1.24.12,1.24.84,0,.33-.44.77-1.2.77-4.71,0-4.71.13-5.33-.4-.49-.41-.42-1.9-.42-2.78,0-1.17.02-5.56.1-6.18s.33-.62.75-.62c.38,0,.77.09.76.62Z"/>
      <path class="cls-3" d="m75.69,345.63c-.42-.02-1.11-.04-1.33-.05-2.5-.16-3.99,1.77-4.23,4.08-.08.74.07,1.24.63,1.77.96.88,2.65,1.08,3.68.33.29-.21.56-.57.67-.92.23-.7-.06-1.13-.73-1.15-.55-.02-1.11.07-1.67.1-.47.02-.98.05-1.11-.62-.11-.57.35-1.04,1.07-1.13.6-.07,1.2-.08,1.8-.13.41-.04.92,0,1.41-.03.86,1.57.93,2.45.34,3.91-.66,1.62-1.9,2.23-3.38,2.2-.76-.02-1.61-.21-2.26-.62-2.32-1.47-2.63-3.71-1.3-6.4,1.3-3.01,4.25-2.97,5.53-2.98.84,0,1.06.15.85,1.66Z"/>
      <path class="cls-3" d="m265.24,345.63c-.42-.02-1.11-.04-1.33-.05-2.5-.16-3.99,1.77-4.23,4.08-.08.74.07,1.24.63,1.77.96.88,2.65,1.08,3.68.33.29-.21.56-.57.67-.92.23-.7-.06-1.13-.73-1.15-.55-.02-1.11.07-1.67.1-.47.02-.98.05-1.11-.62-.11-.57.35-1.04,1.07-1.13.6-.07,1.2-.08,1.8-.13.41-.04.92,0,1.41-.03.86,1.57.93,2.45.34,3.91-.66,1.62-1.9,2.23-3.38,2.2-.76-.02-1.61-.21-2.26-.62-2.32-1.47-2.63-3.71-1.3-6.4,1.3-3.01,4.25-2.97,5.53-2.98.84,0,1.06.15.85,1.66Z"/>
      <path class="cls-3" d="m440.7,353.32c-.21-2.13-.27-7.16-.03-8.83,0,0,1.78-.75,5.18-.44.42.04.62.25.63.53.03.54,0,1.08-.55,1.11-1.32.07-3.68.15-3.68.15,0,0-.03.76-.02.98,0,.34.02.97.02.97,0,0,2.08.01,3.36.07.47.02.88-.05.91.74.02.57-.38.7-.91.74-1.22.09-3.25.04-3.25.04.07,1.57.19,3.19.19,3.78,0,.69-.57.8-.97.8-.59,0-.85-.44-.87-.65Z"/>
      <path class="cls-3" d="m532.79,353.32c-.21-2.13-.27-7.16-.03-8.83,0,0,1.78-.75,5.18-.44.42.04.62.25.63.53.03.54,0,1.08-.55,1.11-1.32.07-3.68.15-3.68.15,0,0-.03.76-.02.98,0,.34.02.97.02.97,0,0,2.08.01,3.36.07.47.02.88-.05.91.74.02.57-.38.7-.91.74-1.22.09-3.25.04-3.25.04.07,1.57.19,3.19.19,3.78,0,.69-.57.8-.97.8-.59,0-.85-.44-.87-.65Z"/>
      <path class="cls-3" d="m168.21,345.05v7.97c0,.82-.13.95-.74.95-.67,0-.75-.2-.75-.9,0-2.75.12-3.14-.89-3.17-.34-.02-1.3-.02-1.68,0-1.01.03-.89.42-.89,3.17,0,.7-.08.9-.75.9-.61,0-.84-.13-.84-.95v-7.97c0-.96.39-1.07.88-1.07s.71.2.71,1.04c0,2.76.11,3.25.76,3.25h1.94c.65,0,.76-.49.76-3.25,0-.84.22-1.04.71-1.04s.78.11.78,1.07Z"/>
      <path class="cls-3" d="m356.13,345.05v7.97c0,.82-.13.95-.74.95-.67,0-.75-.2-.75-.9,0-2.75.12-3.14-.89-3.17-.34-.02-1.3-.02-1.68,0-1.01.03-.89.42-.89,3.17,0,.7-.08.9-.75.9-.61,0-.84-.13-.84-.95v-7.97c0-.96.39-1.07.88-1.07s.71.2.71,1.04c0,2.76.11,3.25.76,3.25h1.94c.65,0,.76-.49.76-3.25,0-.84.22-1.04.71-1.04s.78.11.78,1.07Z"/>
    </g>
    <g>
      <path class="cls-3" d="m433.43,454.45c2.1-.68,4.35-.62,5.15.12,1.3,1.2,1.17,2.8.53,3.78-.96,1.47-3.93,1.42-3.93,1.42,0,0,.29,3.22.2,3.68-.02.1-.5.53-.74.53-.26,0-.84-.18-.88-.48-.61-5.29-.67-8.32-.33-9.04Zm1.64,3.84c2.37.24,3.12-.65,2.92-2-.2-1.35-2.71-1-3.01-.85-.11,1.56-.08,1.77.09,2.85Z"/>
      <path class="cls-3" d="m622.1,454.45c2.1-.68,4.35-.62,5.15.12,1.3,1.2,1.17,2.8.53,3.78-.96,1.47-3.93,1.42-3.93,1.42,0,0,.29,3.22.2,3.68-.02.1-.5.53-.74.53-.26,0-.84-.18-.88-.48-.61-5.29-.67-8.32-.33-9.04Zm1.64,3.84c2.37.24,3.12-.65,2.92-2-.2-1.35-2.71-1-3.01-.85-.11,1.56-.08,1.77.09,2.85Z"/>
      <path class="cls-3" d="m619.04,462.61l-2.7-3.03c.87-.25,1.47-.64,1.8-1.14.66-1.02.77-2.65-.54-3.86-.83-.76-3.04-.82-5.15-.14l-.06.02-.02.05c-.26.54-.14,2.22.07,5.27.08,1.06.16,2.26.24,3.62.02.37.41.57.79.57.3,0,.77-.17.84-.62.06-.42-.05-2.87-.08-3.48h.17l3.42,3.83c.16.18.38.27.61.27.2,0,.4-.07.55-.21.34-.3.37-.83.07-1.16Zm-5.02-4.32l-.03-.2c-.13-.82-.2-1.21-.11-2.5.38-.1,1.92-.27,2.71.15.28.14.44.34.47.59.08.5-.06.95-.38,1.3-.52.53-1.46.77-2.66.67Z"/>
      <path class="cls-3" d="m539.69,462.61l-2.7-3.03c.87-.25,1.47-.64,1.8-1.14.66-1.02.77-2.65-.54-3.86-.83-.76-3.04-.82-5.15-.14l-.06.02-.02.05c-.26.54-.14,2.22.07,5.27.08,1.06.16,2.26.24,3.62.02.37.41.57.79.57.3,0,.77-.17.84-.62.06-.42-.05-2.87-.08-3.48h.17l3.42,3.83c.16.18.38.27.61.27.2,0,.4-.07.55-.21.34-.3.37-.83.07-1.16Zm-5.02-4.32l-.03-.2c-.13-.82-.2-1.21-.11-2.5.38-.1,1.92-.27,2.71.15.28.14.44.34.47.59.08.5-.06.95-.38,1.3-.52.53-1.46.77-2.66.67Z"/>
      <path class="cls-3" d="m448.56,462.61l-2.7-3.03c.87-.25,1.47-.64,1.8-1.14.66-1.02.77-2.65-.54-3.86-.83-.76-3.04-.82-5.15-.14l-.06.02-.02.05c-.26.54-.14,2.22.07,5.27.08,1.06.16,2.26.24,3.62.02.37.41.57.79.57.3,0,.77-.17.84-.62.06-.42-.05-2.87-.08-3.48h.17l3.42,3.83c.16.18.38.27.61.27.2,0,.4-.07.55-.21.34-.3.37-.83.07-1.16Zm-5.02-4.32l-.03-.2c-.13-.82-.2-1.21-.11-2.5.38-.1,1.92-.27,2.71.15.28.14.44.34.47.59.08.5-.06.95-.38,1.3-.52.53-1.46.77-2.66.67Z"/>
      <path class="cls-3" d="m78.54,463.97c-.46.06-.96-.28-1.19-1.14-.42-1.54-.92-3.7-1.44-5.63-1.11,2.72-1.86,4.39-2.5,4.38-.01,0-.02,0-.03-.01-.01.01-.02.01-.03.01-.64.01-1.39-1.65-2.5-4.38-.51,1.93-1.02,4.09-1.44,5.63-.24.86-.73,1.2-1.19,1.14-.59-.07-.98-.49-.74-1.25.25-.81,1.84-6.07,2.3-7.72.47-1.65,1.59-.9,1.8-.49.21.41,1.36,3.67,1.8,4.59.44-.92,1.59-4.18,1.8-4.59.21-.41,1.33-1.16,1.8.49.46,1.64,2.05,6.9,2.3,7.72.24.76-.15,1.18-.74,1.25Z"/>
      <path class="cls-3" d="m273.25,463.97c-.46.06-.96-.28-1.19-1.14-.42-1.54-.92-3.7-1.44-5.63-1.11,2.72-1.86,4.39-2.5,4.38-.01,0-.02,0-.03-.01-.01.01-.02.01-.03.01-.64.01-1.39-1.65-2.5-4.38-.51,1.93-1.02,4.09-1.44,5.63-.24.86-.73,1.2-1.19,1.14-.59-.07-.98-.49-.74-1.25.25-.81,1.84-6.07,2.3-7.72.47-1.65,1.59-.9,1.8-.49.21.41,1.36,3.67,1.8,4.59.44-.92,1.59-4.18,1.8-4.59.21-.41,1.33-1.16,1.8.49.46,1.64,2.05,6.9,2.3,7.72.24.76-.15,1.18-.74,1.25Z"/>
      <path class="cls-3" d="m169.78,455.3c-.2.78-1.37,6.55-1.58,7.33-.21.78-.44,1.33-.9,1.35s-.64-.27-1.17-1.25c-.53-.98-1.66-3.47-2.44-5.56-.53,1.89-.73,3.97-1.16,5.48-.25.85-.58,1.36-1.02,1.29-.1-.02-1.05-.26-.75-1.36.22-.81,1.48-6,1.96-7.62.48-1.62,1.54-.85,1.73-.44.19.41,2.31,5.6,2.67,6.53.19-.85.69-4.5,1.08-6.27.13-.6.81-.88,1.1-.76s.68.5.48,1.29Z"/>
      <path class="cls-3" d="m359.54,455.3c-.2.78-1.37,6.55-1.58,7.33-.21.78-.44,1.33-.9,1.35s-.64-.27-1.17-1.25c-.53-.98-1.66-3.47-2.44-5.56-.53,1.89-.73,3.97-1.16,5.48-.25.85-.58,1.36-1.02,1.29-.1-.02-1.05-.26-.75-1.36.22-.81,1.48-6,1.96-7.62.48-1.62,1.54-.85,1.73-.44.19.41,2.31,5.6,2.67,6.53.19-.85.69-4.5,1.08-6.27.13-.6.81-.88,1.1-.76s.68.5.48,1.29Z"/>
      <path class="cls-3" d="m251.46,460.85c-.55-2.97.03-4.69,2.09-6.23,1.86-1.39,4.92-.33,5.78,1.24.73,1.31,1.54,4.09-.47,6.49-.67.8-1.59,1.4-2.62,1.57-2.46.41-4.48-1.4-4.79-3.06Zm2.23.5c1.14,1.13,3.41,1.11,4.45-.7,1.02-1.77.06-3.66-.63-4.27-.55-.49-2.53-1.19-3.76.41-1.11,1.45-.84,3.8-.07,4.56Z"/>
      <path class="cls-3" d="m80.57,460.85c-.55-2.97.03-4.69,2.09-6.23,1.86-1.39,4.92-.33,5.78,1.24.73,1.31,1.54,4.09-.47,6.49-.67.8-1.59,1.4-2.62,1.57-2.46.41-4.48-1.4-4.79-3.06Zm2.23.5c1.14,1.13,3.41,1.11,4.45-.7,1.02-1.77.06-3.66-.63-4.27-.55-.49-2.53-1.19-3.76.41-1.11,1.45-.84,3.8-.07,4.56Z"/>
      <path class="cls-3" d="m171.45,460.85c-.55-2.97.03-4.69,2.09-6.23,1.86-1.39,4.92-.33,5.78,1.24.73,1.31,1.54,4.09-.47,6.49-.67.8-1.59,1.4-2.62,1.57-2.46.41-4.48-1.4-4.79-3.06Zm2.23.5c1.14,1.13,3.41,1.11,4.45-.7,1.02-1.77.06-3.66-.63-4.27-.55-.49-2.53-1.19-3.76.41-1.11,1.45-.84,3.8-.07,4.56Z"/>
      <path class="cls-3" d="m340.79,460.85c-.55-2.97.03-4.69,2.09-6.23,1.86-1.39,4.92-.33,5.78,1.24.73,1.31,1.54,4.09-.47,6.49-.67.8-1.59,1.4-2.62,1.57-2.46.41-4.48-1.4-4.79-3.06Zm2.23.5c1.14,1.13,3.41,1.11,4.45-.7,1.02-1.77.06-3.66-.63-4.27-.55-.49-2.53-1.19-3.76.41-1.11,1.45-.84,3.8-.07,4.56Z"/>
      <path class="cls-3" d="m531.28,462.48l-.97-.99-.02-.02c1.23-2.17.51-4.46-.12-5.62-.87-1.56-3.93-2.62-5.78-1.24-2.07,1.53-2.64,3.26-2.09,6.23.3,1.66,2.32,3.48,4.78,3.07.79-.14,1.51-.53,2.11-1.07l.84.86c.34.34.89.35,1.24,0,.35-.34.35-.9,0-1.24Zm-6.76-1.14c-.78-.77-1.05-3.12.06-4.56,1.24-1.59,3.21-.9,3.76-.41.64.58,1.52,2.26.81,3.93l-.1-.1h0s-1.02-1.04-1.02-1.04c-.34-.35-.9-.35-1.24,0-.18.16-.26.39-.26.62s.08.45.25.62l1.1,1.12.15.15c-1.14.75-2.65.55-3.51-.31Z"/>
      <path class="cls-3" d="m720.18,462.48l-.97-.99-.02-.02c1.23-2.17.51-4.46-.12-5.62-.87-1.56-3.93-2.62-5.78-1.24-2.07,1.53-2.64,3.26-2.09,6.23.3,1.66,2.32,3.48,4.78,3.07.79-.14,1.51-.53,2.11-1.07l.84.86c.34.34.89.35,1.24,0,.35-.34.35-.9,0-1.24Zm-6.76-1.14c-.78-.77-1.05-3.12.06-4.56,1.24-1.59,3.21-.9,3.76-.41.64.58,1.52,2.26.81,3.93l-.1-.1h0s-1.02-1.04-1.02-1.04c-.34-.35-.9-.35-1.24,0-.18.16-.26.39-.26.62s.08.45.25.62l1.1,1.12.15.15c-1.14.75-2.65.55-3.51-.31Z"/>
      <path class="cls-3" d="m710.23,462.61l-2.7-3.03c.87-.25,1.47-.64,1.8-1.14.66-1.02.77-2.65-.54-3.86-.83-.76-3.04-.82-5.15-.14l-.06.02-.02.05c-.26.54-.14,2.22.07,5.27.08,1.06.16,2.26.24,3.62.02.37.41.57.79.57.3,0,.77-.17.84-.62.06-.42-.05-2.87-.08-3.48h.17l3.42,3.83c.16.18.38.27.61.27.2,0,.4-.07.55-.21.34-.3.37-.83.07-1.16Zm-5.02-4.32l-.03-.2c-.13-.82-.2-1.21-.11-2.5.38-.1,1.92-.27,2.71.15.28.14.44.34.47.59.08.5-.06.95-.38,1.3-.52.53-1.46.77-2.66.67Z"/>
    </g>
    <g>
      <path class="cls-3" d="m710.18,565.32c-.06.29-1.97,5.54-3.02,7.94-.32.73-.61.72-.74.72s-.42,0-.74-.72c-1.05-2.4-2.96-7.64-3.02-7.94-.23-1,.08-1.16.44-1.3.28-.13.86-.02,1.12.7.16.42,2.2,5.86,2.2,5.86,0,0,2.05-5.44,2.2-5.86.25-.72.83-.82,1.12-.7.36.15.67.3.44,1.3Z"/>
      <path class="cls-3" d="m528.94,569.5c-.11.73-.3,1.42-.58,2.11-.6,1.42-1.8,2.3-3.21,2.37h-.26c-1.41-.07-2.6-.95-3.21-2.37-.28-.67-.47-1.36-.57-2.11-.19-1.31-.24-2.6-.18-4.35.02-.47.13-.8.34-.99.14-.13.32-.19.52-.19.64.04.78.66.82,1.21,0,.18,0,.48,0,.86-.05,1.51-.14,4.35.93,5.36.21.2.58.43.94.56.35.14.73.14,1.08,0,.36-.14.74-.37.95-.56,1.06-1.01.98-3.81.93-5.33,0-.4-.02-.71,0-.89.03-.5.15-1.17.8-1.21.21,0,.39.06.52.19.22.19.33.52.34.99.08,1.8.03,3.06-.16,4.35Z"/>
      <path class="cls-3" d="m90.74,569.5c-.11.73-.3,1.42-.58,2.11-.6,1.42-1.8,2.3-3.21,2.37h-.26c-1.41-.07-2.6-.95-3.21-2.37-.28-.67-.47-1.36-.57-2.11-.19-1.31-.24-2.6-.18-4.35.02-.47.13-.8.34-.99.14-.13.32-.19.52-.19.64.04.78.66.82,1.21,0,.18,0,.48,0,.86-.05,1.51-.14,4.35.93,5.36.21.2.58.43.94.56.35.14.73.14,1.08,0,.36-.14.74-.37.95-.56,1.06-1.01.98-3.81.93-5.33,0-.4-.02-.71,0-.89.03-.5.15-1.17.8-1.21.21,0,.39.06.52.19.22.19.33.52.34.99.08,1.8.03,3.06-.16,4.35Z"/>
      <path class="cls-3" d="m270.06,569.5c-.11.73-.3,1.42-.58,2.11-.6,1.42-1.8,2.3-3.21,2.37h-.26c-1.41-.07-2.6-.95-3.21-2.37-.28-.67-.47-1.36-.57-2.11-.19-1.31-.24-2.6-.18-4.35.02-.47.13-.8.34-.99.14-.13.32-.19.52-.19.64.04.78.66.82,1.21,0,.18,0,.48,0,.86-.05,1.51-.14,4.35.93,5.36.21.2.58.43.94.56.35.14.73.14,1.08,0,.36-.14.74-.37.95-.56,1.06-1.01.98-3.81.93-5.33,0-.4-.02-.71,0-.89.03-.5.15-1.17.8-1.21.21,0,.39.06.52.19.22.19.33.52.34.99.08,1.8.03,3.06-.16,4.35Z"/>
      <path class="cls-3" d="m79.57,571.61c-.25,1.19-1.45,2.37-3.24,2.37h-.11c-1-.04-2.78-.26-3.51-1.25-.39-.52-.47-1.13-.19-1.44.24-.27.68-.24,1.23.08,1.08,1.06,2.52,1.08,3.42.64.52-.26.82-.65.77-1.03-.03-.33-.36-.94-2.12-1.35-2.5-.56-3.55-1.98-3.49-3.14.06-1.03,1.04-2.24,3.59-2.51.07,0,.13,0,.2,0,1.08,0,2.66.83,2.96,1.59.13.32.04.59-.26.82-.19.14-.59-.05-1.1-.3-.48-.23-1.01-.49-1.51-.55-.14-.02-.27-.03-.4-.03-.95,0-1.68.48-1.82.99-.13.47.23.9.96,1.2l2.99,1.21c1.5.62,1.82,1.8,1.62,2.7Z"/>
      <path class="cls-3" d="m448.91,571.61c-.25,1.19-1.45,2.37-3.24,2.37h-.11c-1-.04-2.78-.26-3.51-1.25-.39-.52-.47-1.13-.19-1.44.24-.27.68-.24,1.23.08,1.08,1.06,2.52,1.08,3.42.64.52-.26.82-.65.77-1.03-.03-.33-.36-.94-2.12-1.35-2.5-.56-3.55-1.98-3.49-3.14.06-1.03,1.04-2.24,3.59-2.51.07,0,.13,0,.2,0,1.08,0,2.66.83,2.96,1.59.13.32.04.59-.26.82-.19.14-.59-.05-1.1-.3-.48-.23-1.01-.49-1.51-.55-.14-.02-.27-.03-.4-.03-.95,0-1.68.48-1.82.99-.13.47.23.9.96,1.2l2.99,1.21c1.5.62,1.82,1.8,1.62,2.7Z"/>
      <path class="cls-3" d="m630.62,571.61c-.25,1.19-1.45,2.37-3.24,2.37h-.11c-1-.04-2.78-.26-3.51-1.25-.39-.52-.47-1.13-.19-1.44.24-.27.68-.24,1.23.08,1.08,1.06,2.52,1.08,3.42.64.52-.26.82-.65.77-1.03-.03-.33-.36-.94-2.12-1.35-2.5-.56-3.55-1.98-3.49-3.14.06-1.03,1.04-2.24,3.59-2.51.07,0,.13,0,.2,0,1.08,0,2.66.83,2.96,1.59.13.32.04.59-.26.82-.19.14-.59-.05-1.1-.3-.48-.23-1.01-.49-1.51-.55-.14-.02-.27-.03-.4-.03-.95,0-1.68.48-1.82.99-.13.47.23.9.96,1.2l2.99,1.21c1.5.62,1.82,1.8,1.62,2.7Z"/>
      <path class="cls-3" d="m260.53,564.9c-.01.49-.38.78-1.17.77h-2.09v7.47c0,.45-.37.83-.83.83s-.83-.38-.83-.83v-7.47h-2.09c-.79,0-1.16-.28-1.17-.77-.02-.62.45-.89,1.12-.91.82-.02,5.12-.02,5.94,0,.67.02,1.14.29,1.12.91Z"/>
      <path class="cls-3" d="m720.23,564.9c-.01.49-.38.78-1.17.77h-2.09v7.47c0,.45-.37.83-.83.83s-.83-.38-.83-.83v-7.47h-2.09c-.79,0-1.16-.28-1.17-.77-.02-.62.45-.89,1.12-.91.82-.02,5.12-.02,5.94,0,.67.02,1.14.29,1.12.91Z"/>
      <path class="cls-3" d="m540.75,564.9c-.01.49-.38.78-1.17.77h-2.09v7.47c0,.45-.37.83-.83.83s-.83-.38-.83-.83v-7.47h-2.09c-.79,0-1.16-.28-1.17-.77-.02-.62.45-.89,1.12-.91.82-.02,5.12-.02,5.94,0,.67.02,1.14.29,1.12.91Z"/>
      <path class="cls-3" d="m360.74,565.32c-.06.29-1.97,5.54-3.02,7.94-.32.73-.61.72-.74.72s-.42,0-.74-.72c-1.05-2.4-2.96-7.64-3.02-7.94-.23-1,.08-1.16.44-1.3.28-.13.86-.02,1.12.7.16.42,2.2,5.86,2.2,5.86,0,0,2.05-5.44,2.2-5.86.25-.72.83-.82,1.12-.7.36.15.67.3.44,1.3Z"/>
      <path class="cls-3" d="m180.12,565.32c-.06.29-1.97,5.54-3.02,7.94-.32.73-.61.72-.74.72s-.42,0-.74-.72c-1.05-2.4-2.96-7.64-3.02-7.94-.23-1,.08-1.16.44-1.3.28-.13.86-.02,1.12.7.16.42,2.2,5.86,2.2,5.86,0,0,2.05-5.44,2.2-5.86.25-.72.83-.82,1.12-.7.36.15.67.3.44,1.3Z"/>
      <path class="cls-3" d="m169.57,571.61c-.25,1.19-1.45,2.37-3.24,2.37h-.11c-1-.04-2.78-.26-3.51-1.25-.39-.52-.47-1.13-.19-1.44.24-.27.68-.24,1.23.08,1.08,1.06,2.52,1.08,3.42.64.52-.26.82-.65.77-1.03-.03-.33-.36-.94-2.12-1.35-2.5-.56-3.55-1.98-3.49-3.14.06-1.03,1.04-2.24,3.59-2.51.07,0,.13,0,.2,0,1.08,0,2.66.83,2.96,1.59.13.32.04.59-.26.82-.19.14-.59-.05-1.1-.3-.48-.23-1.01-.49-1.51-.55-.14-.02-.27-.03-.4-.03-.95,0-1.68.48-1.82.99-.13.47.23.9.96,1.2l2.99,1.21c1.5.62,1.82,1.8,1.62,2.7Z"/>
      <path class="cls-3" d="m350.53,564.9c-.01.49-.38.78-1.17.77h-2.09v7.47c0,.45-.37.83-.83.83s-.83-.38-.83-.83v-7.47h-2.09c-.79,0-1.16-.28-1.17-.77-.02-.62.45-.89,1.12-.91.82-.02,5.12-.02,5.94,0,.67.02,1.14.29,1.12.91Z"/>
      <path class="cls-3" d="m437.47,569.5c-.11.73-.3,1.42-.58,2.11-.6,1.42-1.8,2.3-3.21,2.37h-.26c-1.41-.07-2.6-.95-3.21-2.37-.28-.67-.47-1.36-.57-2.11-.19-1.31-.24-2.6-.18-4.35.02-.47.13-.8.34-.99.14-.13.32-.19.52-.19.64.04.78.66.82,1.21,0,.18,0,.48,0,.86-.05,1.51-.14,4.35.93,5.36.21.2.58.43.94.56.35.14.73.14,1.08,0,.36-.14.74-.37.95-.56,1.06-1.01.98-3.81.93-5.33,0-.4-.02-.71,0-.89.03-.5.15-1.17.8-1.21.21,0,.39.06.52.19.22.19.33.52.34.99.08,1.8.03,3.06-.16,4.35Z"/>
      <path class="cls-3" d="m620.18,565.32c-.06.29-1.97,5.54-3.02,7.94-.32.73-.61.72-.74.72s-.42,0-.74-.72c-1.05-2.4-2.96-7.64-3.02-7.94-.23-1,.08-1.16.44-1.3.28-.13.86-.02,1.12.7.16.42,2.2,5.86,2.2,5.86,0,0,2.05-5.44,2.2-5.86.25-.72.83-.82,1.12-.7.36.15.67.3.44,1.3Z"/>
    </g>
  </g>
  <g>
    <g>
      <g>
        <circle class="cls-3" cx="81" cy="223.19" r="2.5"/>
        <circle class="cls-3" cx="111" cy="193.19" r="2.5"/>
        <circle class="cls-3" cx="81" cy="163.19" r="2.5"/>
        <circle class="cls-3" cx="51" cy="193.19" r="2.5"/>
        <circle class="cls-3" cx="81" cy="193.19" r="1.12"/>
      </g>
      <g>
        <circle class="cls-3" cx="171" cy="223.19" r="2.5"/>
        <circle class="cls-3" cx="201" cy="193.19" r="2.5"/>
        <circle class="cls-3" cx="171" cy="163.19" r="2.5"/>
        <circle class="cls-3" cx="141" cy="193.19" r="2.5"/>
        <circle class="cls-3" cx="171" cy="193.19" r="1.12"/>
      </g>
      <g>
        <circle class="cls-3" cx="261" cy="223.19" r="2.5"/>
        <circle class="cls-3" cx="291" cy="193.19" r="2.5"/>
        <circle class="cls-3" cx="261" cy="163.19" r="2.5"/>
        <circle class="cls-3" cx="231" cy="193.19" r="2.5"/>
        <circle class="cls-3" cx="261" cy="193.19" r="1.12"/>
      </g>
      <g>
        <circle class="cls-3" cx="351" cy="223.19" r="2.5"/>
        <circle class="cls-3" cx="381" cy="193.19" r="2.5"/>
        <circle class="cls-3" cx="351" cy="163.19" r="2.5"/>
        <circle class="cls-3" cx="321" cy="193.19" r="2.5"/>
        <circle class="cls-3" cx="351" cy="193.19" r="1.12"/>
      </g>
      <g>
        <circle class="cls-3" cx="441" cy="223.19" r="2.5"/>
        <circle class="cls-3" cx="471" cy="193.19" r="2.5"/>
        <circle class="cls-3" cx="441" cy="163.19" r="2.5"/>
        <circle class="cls-3" cx="411" cy="193.19" r="2.5"/>
        <circle class="cls-3" cx="441" cy="193.19" r="1.12"/>
      </g>
      <g>
        <circle class="cls-3" cx="531" cy="223.19" r="2.5"/>
        <circle class="cls-3" cx="561" cy="193.19" r="2.5"/>
        <circle class="cls-3" cx="531" cy="163.19" r="2.5"/>
        <circle class="cls-3" cx="501" cy="193.19" r="2.5"/>
        <circle class="cls-3" cx="531" cy="193.19" r="1.12"/>
      </g>
      <g>
        <circle class="cls-3" cx="621" cy="223.19" r="2.5"/>
        <circle class="cls-3" cx="651" cy="193.19" r="2.5"/>
        <circle class="cls-3" cx="621" cy="163.19" r="2.5"/>
        <circle class="cls-3" cx="591" cy="193.19" r="2.5"/>
        <circle class="cls-3" cx="621" cy="193.19" r="1.12"/>
      </g>
      <g>
        <circle class="cls-3" cx="711" cy="223.19" r="2.5"/>
        <circle class="cls-3" cx="741" cy="193.19" r="2.5"/>
        <circle class="cls-3" cx="711" cy="163.19" r="2.5"/>
        <circle class="cls-3" cx="681" cy="193.19" r="2.5"/>
        <circle class="cls-3" cx="711" cy="193.19" r="1.12"/>
      </g>
    </g>
    <g>
      <g>
        <circle class="cls-3" cx="81" cy="333.19" r="2.5"/>
        <circle class="cls-3" cx="111" cy="303.19" r="2.5"/>
        <circle class="cls-3" cx="81" cy="273.19" r="2.5"/>
        <circle class="cls-3" cx="51" cy="303.19" r="2.5"/>
        <circle class="cls-3" cx="81" cy="303.19" r="1.12"/>
      </g>
      <g>
        <circle class="cls-3" cx="171" cy="333.19" r="2.5"/>
        <circle class="cls-3" cx="201" cy="303.19" r="2.5"/>
        <circle class="cls-3" cx="171" cy="273.19" r="2.5"/>
        <circle class="cls-3" cx="141" cy="303.19" r="2.5"/>
        <circle class="cls-3" cx="171" cy="303.19" r="1.12"/>
      </g>
      <g>
        <circle class="cls-3" cx="261" cy="333.19" r="2.5"/>
        <circle class="cls-3" cx="291" cy="303.19" r="2.5"/>
        <circle class="cls-3" cx="261" cy="273.19" r="2.5"/>
        <circle class="cls-3" cx="231" cy="303.19" r="2.5"/>
        <circle class="cls-3" cx="261" cy="303.19" r="1.12"/>
      </g>
      <g>
        <circle class="cls-3" cx="351" cy="333.19" r="2.5"/>
        <circle class="cls-3" cx="381" cy="303.19" r="2.5"/>
        <circle class="cls-3" cx="351" cy="273.19" r="2.5"/>
        <circle class="cls-3" cx="321" cy="303.19" r="2.5"/>
        <circle class="cls-3" cx="351" cy="303.19" r="1.12"/>
      </g>
      <g>
        <circle class="cls-3" cx="441" cy="333.19" r="2.5"/>
        <circle class="cls-3" cx="471" cy="303.19" r="2.5"/>
        <circle class="cls-3" cx="441" cy="273.19" r="2.5"/>
        <circle class="cls-3" cx="411" cy="303.19" r="2.5"/>
        <circle class="cls-3" cx="441" cy="303.19" r="1.12"/>
      </g>
      <g>
        <circle class="cls-3" cx="531" cy="333.19" r="2.5"/>
        <circle class="cls-3" cx="561" cy="303.19" r="2.5"/>
        <circle class="cls-3" cx="531" cy="273.19" r="2.5"/>
        <circle class="cls-3" cx="501" cy="303.19" r="2.5"/>
        <circle class="cls-3" cx="531" cy="303.19" r="1.12"/>
      </g>
      <g>
        <circle class="cls-3" cx="621" cy="333.19" r="2.5"/>
        <circle class="cls-3" cx="651" cy="303.19" r="2.5"/>
        <circle class="cls-3" cx="621" cy="273.19" r="2.5"/>
        <circle class="cls-3" cx="591" cy="303.19" r="2.5"/>
        <circle class="cls-3" cx="621" cy="303.19" r="1.12"/>
      </g>
      <g>
        <circle class="cls-3" cx="711" cy="333.19" r="2.5"/>
        <circle class="cls-3" cx="741" cy="303.19" r="2.5"/>
        <circle class="cls-3" cx="711" cy="273.19" r="2.5"/>
        <circle class="cls-3" cx="681" cy="303.19" r="2.5"/>
        <circle class="cls-3" cx="711" cy="303.19" r="1.12"/>
      </g>
    </g>
    <g>
      <g>
        <circle class="cls-3" cx="81" cy="443.19" r="2.5"/>
        <circle class="cls-3" cx="111" cy="413.19" r="2.5"/>
        <circle class="cls-3" cx="81" cy="383.19" r="2.5"/>
        <circle class="cls-3" cx="51" cy="413.19" r="2.5"/>
        <circle class="cls-3" cx="81" cy="413.19" r="1.12"/>
      </g>
      <g>
        <circle class="cls-3" cx="171" cy="443.19" r="2.5"/>
        <circle class="cls-3" cx="201" cy="413.19" r="2.5"/>
        <circle class="cls-3" cx="171" cy="383.19" r="2.5"/>
        <circle class="cls-3" cx="141" cy="413.19" r="2.5"/>
        <circle class="cls-3" cx="171" cy="413.19" r="1.12"/>
      </g>
      <g>
        <circle class="cls-3" cx="261" cy="443.19" r="2.5"/>
        <circle class="cls-3" cx="291" cy="413.19" r="2.5"/>
        <circle class="cls-3" cx="261" cy="383.19" r="2.5"/>
        <circle class="cls-3" cx="231" cy="413.19" r="2.5"/>
        <circle class="cls-3" cx="261" cy="413.19" r="1.12"/>
      </g>
      <g>
        <circle class="cls-3" cx="351" cy="443.19" r="2.5"/>
        <circle class="cls-3" cx="381" cy="413.19" r="2.5"/>
        <circle class="cls-3" cx="351" cy="383.19" r="2.5"/>
        <circle class="cls-3" cx="321" cy="413.19" r="2.5"/>
        <circle class="cls-3" cx="351" cy="413.19" r="1.12"/>
      </g>
      <g>
        <circle class="cls-3" cx="441" cy="443.19" r="2.5"/>
        <circle class="cls-3" cx="471" cy="413.19" r="2.5"/>
        <circle class="cls-3" cx="441" cy="383.19" r="2.5"/>
        <circle class="cls-3" cx="411" cy="413.19" r="2.5"/>
        <circle class="cls-3" cx="441" cy="413.19" r="1.12"/>
      </g>
      <g>
        <circle class="cls-3" cx="531" cy="443.19" r="2.5"/>
        <circle class="cls-3" cx="561" cy="413.19" r="2.5"/>
        <circle class="cls-3" cx="531" cy="383.19" r="2.5"/>
        <circle class="cls-3" cx="501" cy="413.19" r="2.5"/>
        <circle class="cls-3" cx="531" cy="413.19" r="1.12"/>
      </g>
      <g>
        <circle class="cls-3" cx="621" cy="443.19" r="2.5"/>
        <circle class="cls-3" cx="651" cy="413.19" r="2.5"/>
        <circle class="cls-3" cx="621" cy="383.19" r="2.5"/>
        <circle class="cls-3" cx="591" cy="413.19" r="2.5"/>
        <circle class="cls-3" cx="621" cy="413.19" r="1.12"/>
      </g>
      <g>
        <circle class="cls-3" cx="711" cy="443.19" r="2.5"/>
        <circle class="cls-3" cx="741" cy="413.19" r="2.5"/>
        <circle class="cls-3" cx="711" cy="383.19" r="2.5"/>
        <circle class="cls-3" cx="681" cy="413.19" r="2.5"/>
        <circle class="cls-3" cx="711" cy="413.19" r="1.12"/>
      </g>
    </g>
    <g>
      <g>
        <circle class="cls-3" cx="81" cy="553.19" r="2.5"/>
        <circle class="cls-3" cx="111" cy="523.19" r="2.5"/>
        <circle class="cls-3" cx="81" cy="493.19" r="2.5"/>
        <circle class="cls-3" cx="51" cy="523.19" r="2.5"/>
        <circle class="cls-3" cx="81" cy="523.19" r="1.12"/>
      </g>
      <g>
        <circle class="cls-3" cx="171" cy="553.19" r="2.5"/>
        <circle class="cls-3" cx="201" cy="523.19" r="2.5"/>
        <circle class="cls-3" cx="171" cy="493.19" r="2.5"/>
        <circle class="cls-3" cx="141" cy="523.19" r="2.5"/>
        <circle class="cls-3" cx="171" cy="523.19" r="1.12"/>
      </g>
      <g>
        <circle class="cls-3" cx="261" cy="553.19" r="2.5"/>
        <circle class="cls-3" cx="291" cy="523.19" r="2.5"/>
        <circle class="cls-3" cx="261" cy="493.19" r="2.5"/>
        <circle class="cls-3" cx="231" cy="523.19" r="2.5"/>
        <circle class="cls-3" cx="261" cy="523.19" r="1.12"/>
      </g>
      <g>
        <circle class="cls-3" cx="351" cy="553.19" r="2.5"/>
        <circle class="cls-3" cx="381" cy="523.19" r="2.5"/>
        <circle class="cls-3" cx="351" cy="493.19" r="2.5"/>
        <circle class="cls-3" cx="321" cy="523.19" r="2.5"/>
        <circle class="cls-3" cx="351" cy="523.19" r="1.12"/>
      </g>
      <g>
        <circle class="cls-3" cx="441" cy="553.19" r="2.5"/>
        <circle class="cls-3" cx="471" cy="523.19" r="2.5"/>
        <circle class="cls-3" cx="441" cy="493.19" r="2.5"/>
        <circle class="cls-3" cx="411" cy="523.19" r="2.5"/>
        <circle class="cls-3" cx="441" cy="523.19" r="1.12"/>
      </g>
      <g>
        <circle class="cls-3" cx="531" cy="553.19" r="2.5"/>
        <circle class="cls-3" cx="561" cy="523.19" r="2.5"/>
        <circle class="cls-3" cx="531" cy="493.19" r="2.5"/>
        <circle class="cls-3" cx="501" cy="523.19" r="2.5"/>
        <circle class="cls-3" cx="531" cy="523.19" r="1.12"/>
      </g>
      <g>
        <circle class="cls-3" cx="621" cy="553.19" r="2.5"/>
        <circle class="cls-3" cx="651" cy="523.19" r="2.5"/>
        <circle class="cls-3" cx="621" cy="493.19" r="2.5"/>
        <circle class="cls-3" cx="591" cy="523.19" r="2.5"/>
        <circle class="cls-3" cx="621" cy="523.19" r="1.12"/>
      </g>
      <g>
        <circle class="cls-3" cx="711" cy="553.19" r="2.5"/>
        <circle class="cls-3" cx="741" cy="523.19" r="2.5"/>
        <circle class="cls-3" cx="711" cy="493.19" r="2.5"/>
        <circle class="cls-3" cx="681" cy="523.19" r="2.5"/>
        <circle class="cls-3" cx="711" cy="523.19" r="1.12"/>
      </g>
    </g>
  </g>
  <g>
    <line class="cls-10" x1="50.33" y1="255.55" x2="745.33" y2="255.55"/>
    <line class="cls-10" x1="50.33" y1="365.55" x2="745.33" y2="365.55"/>
    <line class="cls-10" x1="397.83" y1="160.08" x2="397.83" y2="573.33"/>
    <line class="cls-10" x1="50.33" y1="475.55" x2="745.33" y2="475.55"/>
  </g>
  <g>
    <g>
      <rect class="cls-9" x="68.5" y="177.69" width="25" height="2.5" rx=".99" ry=".99" transform="translate(259.94 97.94) rotate(90)"/>
      <rect class="cls-6" x="68.5" y="206.19" width="25" height="2.5" rx=".99" ry=".99" transform="translate(-126.44 288.44) rotate(-90)"/>
      <rect class="cls-9" x="442.75" y="301.94" width="25" height="2.5" rx=".99" ry=".99" transform="translate(910.5 606.38) rotate(-180)"/>
      <rect class="cls-6" x="414.25" y="301.94" width="25" height="2.5" rx=".99" ry=".99"/>
      <rect class="cls-9" x="68.5" y="426.19" width="25" height="2.5" rx=".99" ry=".99" transform="translate(-346.44 508.44) rotate(-90)"/>
      <rect class="cls-6" x="54.25" y="411.94" width="25" height="2.5" rx=".99" ry=".99"/>
      <rect class="cls-9" x="68.5" y="536.19" width="25" height="2.5" rx=".99" ry=".99" transform="translate(-456.44 618.44) rotate(-90)"/>
      <rect class="cls-6" x="54.25" y="521.94" width="25" height="2.5" rx=".99" ry=".99"/>
      <rect class="cls-9" x="442.75" y="411.94" width="25" height="2.5" rx=".99" ry=".99" transform="translate(910.5 826.38) rotate(-180)"/>
      <rect class="cls-6" x="428.5" y="397.69" width="25" height="2.5" rx=".99" ry=".99" transform="translate(839.94 -42.06) rotate(90)"/>
      <rect class="cls-9" x="430.52" y="177.72" width="25" height="2.5" rx=".99" ry=".99" transform="translate(621.99 -264.06) rotate(90)"/>
      <rect class="cls-6" x="426.52" y="177.72" width="25" height="2.5" rx=".99" ry=".99" transform="translate(617.99 -260.06) rotate(90)"/>
      <rect class="cls-9" x="82.75" y="303.94" width="25" height="2.5" rx=".99" ry=".99" transform="translate(190.5 610.38) rotate(180)"/>
      <rect class="cls-6" x="82.75" y="299.94" width="25" height="2.5" rx=".99" ry=".99" transform="translate(190.5 602.38) rotate(180)"/>
    </g>
    <g>
      <rect class="cls-9" x="158.5" y="177.69" width="25" height="2.5" rx=".99" ry=".99" transform="translate(349.94 7.94) rotate(90)"/>
      <rect class="cls-6" x="158.5" y="206.19" width="25" height="2.5" rx=".99" ry=".99" transform="translate(-36.44 378.44) rotate(-90)"/>
      <rect class="cls-9" x="532.75" y="301.94" width="25" height="2.5" rx=".99" ry=".99" transform="translate(1090.5 606.38) rotate(-180)"/>
      <rect class="cls-6" x="504.25" y="301.94" width="25" height="2.5" rx=".99" ry=".99"/>
      <rect class="cls-9" x="158.5" y="426.19" width="25" height="2.5" rx=".99" ry=".99" transform="translate(-256.44 598.44) rotate(-90)"/>
      <rect class="cls-6" x="144.25" y="411.94" width="25" height="2.5" rx=".99" ry=".99"/>
      <rect class="cls-9" x="158.5" y="536.19" width="25" height="2.5" rx=".99" ry=".99" transform="translate(-366.44 708.44) rotate(-90)"/>
      <rect class="cls-6" x="144.25" y="521.94" width="25" height="2.5" rx=".99" ry=".99"/>
      <rect class="cls-9" x="532.75" y="411.94" width="25" height="2.5" rx=".99" ry=".99" transform="translate(1090.5 826.38) rotate(-180)"/>
      <rect class="cls-6" x="518.5" y="397.69" width="25" height="2.5" rx=".99" ry=".99" transform="translate(929.94 -132.06) rotate(90)"/>
      <rect class="cls-9" x="520.52" y="177.72" width="25" height="2.5" rx=".99" ry=".99" transform="translate(711.99 -354.06) rotate(90)"/>
      <rect class="cls-6" x="516.52" y="177.72" width="25" height="2.5" rx=".99" ry=".99" transform="translate(707.99 -350.06) rotate(90)"/>
      <rect class="cls-9" x="172.75" y="303.94" width="25" height="2.5" rx=".99" ry=".99" transform="translate(370.5 610.38) rotate(180)"/>
      <rect class="cls-6" x="172.75" y="299.94" width="25" height="2.5" rx=".99" ry=".99" transform="translate(370.5 602.38) rotate(180)"/>
    </g>
    <g>
      <rect class="cls-9" x="248.5" y="177.69" width="25" height="2.5" rx=".99" ry=".99" transform="translate(439.94 -82.06) rotate(90)"/>
      <rect class="cls-6" x="248.5" y="206.19" width="25" height="2.5" rx=".99" ry=".99" transform="translate(53.56 468.44) rotate(-90)"/>
      <rect class="cls-9" x="622.75" y="301.94" width="25" height="2.5" rx=".99" ry=".99" transform="translate(1270.5 606.38) rotate(-180)"/>
      <rect class="cls-6" x="594.25" y="301.94" width="25" height="2.5" rx=".99" ry=".99"/>
      <rect class="cls-9" x="248.5" y="426.19" width="25" height="2.5" rx=".99" ry=".99" transform="translate(-166.44 688.44) rotate(-90)"/>
      <rect class="cls-6" x="234.25" y="411.94" width="25" height="2.5" rx=".99" ry=".99"/>
      <rect class="cls-9" x="248.5" y="536.19" width="25" height="2.5" rx=".99" ry=".99" transform="translate(-276.44 798.44) rotate(-90)"/>
      <rect class="cls-6" x="234.25" y="521.94" width="25" height="2.5" rx=".99" ry=".99"/>
      <rect class="cls-9" x="622.75" y="411.94" width="25" height="2.5" rx=".99" ry=".99" transform="translate(1270.5 826.38) rotate(-180)"/>
      <rect class="cls-6" x="608.5" y="397.69" width="25" height="2.5" rx=".99" ry=".99" transform="translate(1019.94 -222.06) rotate(90)"/>
      <rect class="cls-9" x="610.52" y="177.72" width="25" height="2.5" rx=".99" ry=".99" transform="translate(801.99 -444.06) rotate(90)"/>
      <rect class="cls-6" x="606.52" y="177.72" width="25" height="2.5" rx=".99" ry=".99" transform="translate(797.99 -440.06) rotate(90)"/>
      <rect class="cls-9" x="262.75" y="303.94" width="25" height="2.5" rx=".99" ry=".99" transform="translate(550.5 610.38) rotate(180)"/>
      <rect class="cls-6" x="262.75" y="299.94" width="25" height="2.5" rx=".99" ry=".99" transform="translate(550.5 602.38) rotate(180)"/>
    </g>
    <g>
      <rect class="cls-9" x="338.5" y="177.69" width="25" height="2.5" rx=".99" ry=".99" transform="translate(529.94 -172.06) rotate(90)"/>
      <rect class="cls-6" x="338.5" y="206.19" width="25" height="2.5" rx=".99" ry=".99" transform="translate(143.56 558.44) rotate(-90)"/>
      <rect class="cls-9" x="712.75" y="301.94" width="25" height="2.5" rx=".99" ry=".99" transform="translate(1450.5 606.38) rotate(-180)"/>
      <rect class="cls-6" x="684.25" y="301.94" width="25" height="2.5" rx=".99" ry=".99"/>
      <rect class="cls-9" x="338.5" y="426.19" width="25" height="2.5" rx=".99" ry=".99" transform="translate(-76.44 778.44) rotate(-90)"/>
      <rect class="cls-6" x="324.25" y="411.94" width="25" height="2.5" rx=".99" ry=".99"/>
      <rect class="cls-9" x="338.5" y="536.19" width="25" height="2.5" rx=".99" ry=".99" transform="translate(-186.44 888.44) rotate(-90)"/>
      <rect class="cls-6" x="324.25" y="521.94" width="25" height="2.5" rx=".99" ry=".99"/>
      <rect class="cls-9" x="428.5" y="536.19" width="25" height="2.5" rx=".99" ry=".99" transform="translate(-96.44 978.44) rotate(-90)"/>
      <rect class="cls-6" x="414.25" y="521.94" width="25" height="2.5" rx=".99" ry=".99"/>
      <rect class="cls-9" x="518.5" y="536.19" width="25" height="2.5" rx=".99" ry=".99" transform="translate(-6.44 1068.44) rotate(-90)"/>
      <rect class="cls-6" x="504.25" y="521.94" width="25" height="2.5" rx=".99" ry=".99"/>
      <rect class="cls-9" x="608.5" y="536.19" width="25" height="2.5" rx=".99" ry=".99" transform="translate(83.56 1158.44) rotate(-90)"/>
      <rect class="cls-6" x="594.25" y="521.94" width="25" height="2.5" rx=".99" ry=".99"/>
      <rect class="cls-9" x="698.5" y="536.19" width="25" height="2.5" rx=".99" ry=".99" transform="translate(173.56 1248.44) rotate(-90)"/>
      <rect class="cls-6" x="684.25" y="521.94" width="25" height="2.5" rx=".99" ry=".99"/>
      <rect class="cls-9" x="712.75" y="411.94" width="25" height="2.5" rx=".99" ry=".99" transform="translate(1450.5 826.38) rotate(-180)"/>
      <rect class="cls-6" x="698.5" y="397.69" width="25" height="2.5" rx=".99" ry=".99" transform="translate(1109.94 -312.06) rotate(90)"/>
      <rect class="cls-9" x="700.52" y="177.72" width="25" height="2.5" rx=".99" ry=".99" transform="translate(891.99 -534.06) rotate(90)"/>
      <rect class="cls-6" x="696.52" y="177.72" width="25" height="2.5" rx=".99" ry=".99" transform="translate(887.99 -530.06) rotate(90)"/>
      <rect class="cls-9" x="352.75" y="303.94" width="25" height="2.5" rx=".99" ry=".99" transform="translate(730.5 610.38) rotate(180)"/>
      <rect class="cls-6" x="352.75" y="299.94" width="25" height="2.5" rx=".99" ry=".99" transform="translate(730.5 602.38) rotate(180)"/>
    </g>
  </g>
  <g>
    <path class="cls-9" d="m84.31,166.11s2.95-3.4,3.93-4.07c.84-.58,1.91.51,1.91.51l-2.47,2.57c7.25,0,21.19,5.72,20.39,22.44-.14,3-1.63,3.46-2.43,3.46s-2.12-.55-2.21-3.02c-.3-8.74-8.63-15.29-17.62-15.29-1.54.04-1.59-2.03,0-2.03,10.39,0,19.83,7.91,19.93,17.85,1.82-14.27-10.29-21.32-18.05-21.32l2.45,2.51s-1.05,1.09-1.87.5c-1.18-.86-3.97-4.12-3.97-4.12Z"/>
    <path class="cls-9" d="m264.03,165.76s2.95-3.4,3.93-4.07c.84-.58,1.91.51,1.91.51l-2.47,2.57c7.25,0,21.19,5.72,20.39,22.44-.14,3-1.63,3.46-2.43,3.46-.79,0-2.12-.55-2.21-3.02-.3-8.74-8.63-15.29-17.62-15.29-1.54.04-1.59-2.03,0-2.03,10.39,0,19.83,7.91,19.93,17.85,1.82-14.27-10.29-21.32-18.05-21.32l2.45,2.51s-1.05,1.09-1.87.5c-1.18-.86-3.97-4.12-3.97-4.12Z"/>
    <path class="cls-9" d="m120.49,316.02s3.4,2.95,4.07,3.93c.58.84-.51,1.91-.51,1.91l-2.57-2.47c0,7.25-5.72,21.19-22.44,20.39-3-.14-3.46-1.63-3.46-2.43,0-.79.55-2.12,3.02-2.21,8.74-.3,15.29-8.63,15.29-17.62-.04-1.54,2.03-1.59,2.03,0,0,10.39-7.91,19.83-17.85,19.93,14.27,1.82,21.32-10.29,21.32-18.05l-2.51,2.45s-1.09-1.05-.5-1.87c.86-1.18,4.12-3.97,4.12-3.97Z"/>
    <path class="cls-9" d="m299.12,314.55s3.4,2.95,4.07,3.93c.58.84-.51,1.91-.51,1.91l-2.57-2.47c0,7.25-5.72,21.19-22.44,20.39-3-.14-3.46-1.63-3.46-2.43,0-.79.55-2.12,3.02-2.21,8.74-.3,15.29-8.63,15.29-17.62-.04-1.54,2.03-1.59,2.03,0,0,10.39-7.91,19.83-17.85,19.93,14.27,1.82,21.32-10.29,21.32-18.05l-2.51,2.45s-1.09-1.05-.5-1.87c.86-1.18,4.12-3.97,4.12-3.97Z"/>
    <path class="cls-9" d="m84.48,440.6s2.95,3.4,3.93,4.07c.84.58,1.91-.51,1.91-.51l-2.47-2.57c7.25,0,21.19-5.72,20.39-22.44-.14-3-1.63-3.46-2.43-3.46s-2.12.55-2.21,3.02c-.3,8.74-8.63,15.29-17.62,15.29-1.54-.04-1.59,2.03,0,2.03,10.39,0,19.83-7.91,19.93-17.85,1.82,14.27-10.29,21.32-18.05,21.32l2.45-2.51s-1.05-1.09-1.87-.5c-1.18.86-3.97,4.12-3.97,4.12Z"/>
    <path class="cls-9" d="m176.88,555.01s2.95,3.4,3.93,4.07c.84.58,1.91-.51,1.91-.51l-2.47-2.57c7.25,0,21.19-5.72,20.39-22.44-.14-3-1.63-3.46-2.43-3.46s-2.12.55-2.21,3.02c-.3,8.74-8.63,15.29-17.62,15.29-1.54-.04-1.59,2.03,0,2.03,10.39,0,19.83-7.91,19.93-17.85,1.82,14.27-10.29,21.32-18.05,21.32l2.45-2.51s-1.05-1.09-1.87-.5c-1.18.86-3.97,4.12-3.97,4.12Z"/>
    <path class="cls-9" d="m444.17,549.99s2.95,3.4,3.93,4.07c.84.58,1.91-.51,1.91-.51l-2.47-2.57c7.25,0,21.19-5.72,20.39-22.44-.14-3-1.63-3.46-2.43-3.46-.79,0-2.12.55-2.21,3.02-.3,8.74-8.63,15.29-17.62,15.29-1.54-.04-1.59,2.03,0,2.03,10.39,0,19.83-7.91,19.93-17.85,1.82,14.27-10.29,21.32-18.05,21.32l2.45-2.51s-1.05-1.09-1.87-.5c-1.18.86-3.97,4.12-3.97,4.12Z"/>
    <path class="cls-6" d="m53.26,526.29s-3.4,2.95-4.07,3.93c-.58.84.51,1.91.51,1.91l2.57-2.47c0,7.25,5.72,21.19,22.44,20.39,3-.14,3.46-1.63,3.46-2.43s-.55-2.12-3.02-2.21c-8.74-.3-15.29-8.63-15.29-17.62.04-1.54-2.03-1.59-2.03,0,0,10.39,7.91,19.83,17.85,19.93-14.27,1.82-21.32-10.29-21.32-18.05l2.51,2.45s1.09-1.05.5-1.87c-.86-1.18-4.12-3.97-4.12-3.97Z"/>
    <path class="cls-6" d="m594.04,526.29s-3.4,2.95-4.07,3.93c-.58.84.51,1.91.51,1.91l2.57-2.47c0,7.25,5.72,21.19,22.44,20.39,3-.14,3.46-1.63,3.46-2.43s-.55-2.12-3.02-2.21c-8.74-.3-15.29-8.63-15.29-17.62.04-1.54-2.03-1.59-2.03,0,0,10.39,7.91,19.83,17.85,19.93-14.27,1.82-21.32-10.29-21.32-18.05l2.51,2.45s1.09-1.05.5-1.87c-.86-1.18-4.12-3.97-4.12-3.97Z"/>
    <path class="cls-9" d="m264.23,439.99s2.95,3.4,3.93,4.07c.84.58,1.91-.51,1.91-.51l-2.47-2.57c7.25,0,21.19-5.72,20.39-22.44-.14-3-1.63-3.46-2.43-3.46s-2.12.55-2.21,3.02c-.3,8.74-8.63,15.29-17.62,15.29-1.54-.04-1.59,2.03,0,2.03,10.39,0,19.83-7.91,19.93-17.85,1.82,14.27-10.29,21.32-18.05,21.32l2.45-2.51s-1.05-1.09-1.87-.5c-1.18.86-3.97,4.12-3.97,4.12Z"/>
    <path class="cls-9" d="m445.65,165.27s2.95-3.4,3.93-4.07c.84-.58,1.91.51,1.91.51l-2.47,2.57c7.25,0,21.19,5.72,20.39,22.44-.14,3-1.63,3.46-2.43,3.46-.79,0-2.12-.55-2.21-3.02-.3-8.74-8.63-15.29-17.62-15.29-1.54.04-1.59-2.03,0-2.03,10.39,0,19.83,7.91,19.93,17.85,1.82-14.27-10.29-21.32-18.05-21.32l2.45,2.51s-1.05,1.09-1.87.5c-1.18-.86-3.97-4.12-3.97-4.12Z"/>
    <path class="cls-9" d="m624.98,165.58s2.95-3.4,3.93-4.07c.84-.58,1.91.51,1.91.51l-2.47,2.57c7.25,0,21.19,5.72,20.39,22.44-.14,3-1.63,3.46-2.43,3.46-.79,0-2.12-.55-2.21-3.02-.3-8.74-8.63-15.29-17.62-15.29-1.54.04-1.59-2.03,0-2.03,10.39,0,19.83,7.91,19.93,17.85,1.82-14.27-10.29-21.32-18.05-21.32l2.45,2.51s-1.05,1.09-1.87.5c-1.18-.86-3.97-4.12-3.97-4.12Z"/>
    <path class="cls-9" d="m467.04,306.16s3.4,2.95,4.07,3.93c.58.84-.51,1.91-.51,1.91l-2.57-2.47c0,7.25-5.72,21.19-22.44,20.39-3-.14-3.46-1.63-3.46-2.43s.55-2.12,3.02-2.21c8.74-.3,15.29-8.63,15.29-17.62-.04-1.54,2.03-1.59,2.03,0,0,10.39-7.91,19.83-17.85,19.93,14.27,1.82,21.32-10.29,21.32-18.05l-2.51,2.45s-1.09-1.05-.5-1.87c.86-1.18,4.12-3.97,4.12-3.97Z"/>
    <path class="cls-9" d="m648.12,306.08s3.4,2.95,4.07,3.93c.58.84-.51,1.91-.51,1.91l-2.57-2.47c0,7.25-5.72,21.19-22.44,20.39-3-.14-3.46-1.63-3.46-2.43,0-.79.55-2.12,3.02-2.21,8.74-.3,15.29-8.63,15.29-17.62-.04-1.54,2.03-1.59,2.03,0,0,10.39-7.91,19.83-17.85,19.93,14.27,1.82,21.32-10.29,21.32-18.05l-2.51,2.45s-1.09-1.05-.5-1.87c.86-1.18,4.12-3.97,4.12-3.97Z"/>
    <path class="cls-9" d="m478.17,402.76s3.4-2.95,4.07-3.93c.58-.84-.51-1.91-.51-1.91l-2.57,2.47c0-7.25-5.72-21.19-22.44-20.39-3,.14-3.46,1.63-3.46,2.43s.55,2.12,3.02,2.21c8.74.3,15.29,8.63,15.29,17.62-.04,1.54,2.03,1.59,2.03,0,0-10.39-7.91-19.83-17.85-19.93,14.27-1.82,21.32,10.29,21.32,18.05l-2.51-2.45s-1.09,1.05-.5,1.87c.86,1.18,4.12,3.97,4.12,3.97Z"/>
    <path class="cls-9" d="m656.45,403.5s3.4-2.95,4.07-3.93c.58-.84-.51-1.91-.51-1.91l-2.57,2.47c0-7.25-5.72-21.19-22.44-20.39-3,.14-3.46,1.63-3.46,2.43s.55,2.12,3.02,2.21c8.74.3,15.29,8.63,15.29,17.62-.04,1.54,2.03,1.59,2.03,0,0-10.39-7.91-19.83-17.85-19.93,14.27-1.82,21.32,10.29,21.32,18.05l-2.51-2.45s-1.09,1.05-.5,1.87c.86,1.18,4.12,3.97,4.12,3.97Z"/>
    <path class="cls-9" d="m197.2,186.48c-16.77,0-15.27-5.17-15.27-20.09l2.62,2.58s1.09-1.05.5-1.87c-.79-1.08-4.05-3.91-4.05-3.91,0,0-3.26,2.83-4.05,3.91-.59.82.5,1.87.5,1.87l2.62-2.58c0,14.71-2.13,21.41,15.22,22.03-19.53,0-18.81.38-18.81-19.52,0-1.42-1.98-1.5-1.98-.03,0,22.34-.78,21.53,22.7,21.53,2.96,0,3.07-3.92,0-3.92Z"/>
    <path class="cls-9" d="m376.96,186.48c-16.77,0-15.27-5.17-15.27-20.09l2.62,2.58s1.09-1.05.5-1.87c-.79-1.08-4.05-3.91-4.05-3.91,0,0-3.26,2.83-4.05,3.91-.59.82.5,1.87.5,1.87l2.62-2.58c0,14.71-2.13,21.41,15.22,22.03-19.53,0-18.81.38-18.81-19.52,0-1.42-1.98-1.5-1.98-.03,0,22.34-.78,21.53,22.7,21.53,2.96,0,3.07-3.92,0-3.92Z"/>
    <path class="cls-9" d="m559.11,186.48c-16.77,0-15.27-5.17-15.27-20.09l2.62,2.58s1.09-1.05.5-1.87c-.79-1.08-4.05-3.91-4.05-3.91,0,0-3.26,2.83-4.05,3.91-.59.82.5,1.87.5,1.87l2.62-2.58c0,14.71-2.13,21.41,15.22,22.03-19.53,0-18.81.38-18.81-19.52,0-1.42-1.98-1.5-1.98-.03,0,22.34-.78,21.53,22.7,21.53,2.96,0,3.07-3.92,0-3.92Z"/>
    <path class="cls-9" d="m738.87,186.48c-16.77,0-15.27-5.17-15.27-20.09l2.62,2.58s1.09-1.05.5-1.87c-.79-1.08-4.05-3.91-4.05-3.91,0,0-3.26,2.83-4.05,3.91-.59.82.5,1.87.5,1.87l2.62-2.58c0,14.71-2.13,21.41,15.22,22.03-19.53,0-18.81.38-18.81-19.52,0-1.42-1.98-1.5-1.98-.03,0,22.34-.78,21.53,22.7,21.53,2.96,0,3.07-3.92,0-3.92Z"/>
    <path class="cls-9" d="m183.53,340.17c0-16.77,5.17-15.27,20.09-15.27l-2.58,2.62s1.05,1.09,1.87.5c1.08-.79,3.91-4.05,3.91-4.05,0,0-2.83-3.26-3.91-4.05-.82-.59-1.87.5-1.87.5l2.58,2.62c-14.71,0-21.41-2.13-22.03,15.22,0-19.53-.38-18.81,19.52-18.81,1.42,0,1.5-1.98.03-1.98-22.34,0-21.53-.78-21.53,22.7,0,2.96,3.92,3.07,3.92,0Z"/>
    <path class="cls-9" d="m363.29,340.17c0-16.77,5.17-15.27,20.09-15.27l-2.58,2.62s1.05,1.09,1.87.5c1.08-.79,3.91-4.05,3.91-4.05,0,0-2.83-3.26-3.91-4.05-.82-.59-1.87.5-1.87.5l2.58,2.62c-14.71,0-21.41-2.13-22.03,15.22,0-19.53-.38-18.81,19.52-18.81,1.42,0,1.5-1.98.03-1.98-22.34,0-21.53-.78-21.53,22.7,0,2.96,3.92,3.07,3.92,0Z"/>
    <path class="cls-9" d="m539.21,329.32c0-16.77,5.17-15.27,20.09-15.27l-2.58,2.62s1.05,1.09,1.87.5c1.08-.79,3.91-4.05,3.91-4.05,0,0-2.83-3.26-3.91-4.05-.82-.59-1.87.5-1.87.5l2.58,2.62c-14.71,0-21.41-2.13-22.03,15.22,0-19.53-.38-18.81,19.52-18.81,1.42,0,1.5-1.98.03-1.98-22.34,0-21.53-.78-21.53,22.7,0,2.96,3.92,3.07,3.92,0Z"/>
    <path class="cls-9" d="m718.97,329.32c0-16.77,5.17-15.27,20.09-15.27l-2.58,2.62s1.05,1.09,1.87.5c1.08-.79,3.91-4.05,3.91-4.05,0,0-2.83-3.26-3.91-4.05-.82-.59-1.87.5-1.87.5l2.58,2.62c-14.71,0-21.41-2.13-22.03,15.22,0-19.53-.38-18.81,19.52-18.81,1.42,0,1.5-1.98.03-1.98-22.34,0-21.53-.78-21.53,22.7,0,2.96,3.92,3.07,3.92,0Z"/>
    <path class="cls-9" d="m197.55,419.97c-16.77,0-15.27,5.17-15.27,20.09l2.62-2.58s1.09,1.05.5,1.87c-.79,1.08-4.05,3.91-4.05,3.91,0,0-3.26-2.83-4.05-3.91-.59-.82.5-1.87.5-1.87l2.62,2.58c0-14.71-2.13-21.41,15.22-22.03-19.53,0-18.81-.38-18.81,19.52,0,1.42-1.98,1.5-1.98.03,0-22.34-.78-21.53,22.7-21.53,2.96,0,3.07,3.92,0,3.92Z"/>
    <path class="cls-9" d="m377.55,419.97c-16.77,0-15.27,5.17-15.27,20.09l2.62-2.58s1.09,1.05.5,1.87c-.79,1.08-4.05,3.91-4.05,3.91,0,0-3.26-2.83-4.05-3.91-.59-.82.5-1.87.5-1.87l2.62,2.58c0-14.71-2.13-21.41,15.22-22.03-19.53,0-18.81-.38-18.81,19.52,0,1.42-1.98,1.5-1.98.03,0-22.34-.78-21.53,22.7-21.53,2.96,0,3.07,3.92,0,3.92Z"/>
    <path class="cls-9" d="m545.21,382.95c0,16.77,5.17,15.27,20.09,15.27l-2.58-2.62s1.05-1.09,1.87-.5c1.08.79,3.91,4.05,3.91,4.05,0,0-2.83,3.26-3.91,4.05-.82.59-1.87-.5-1.87-.5l2.58-2.62c-14.71,0-21.41,2.13-22.03-15.22,0,19.53-.38,18.81,19.52,18.81,1.42,0,1.5,1.98.03,1.98-22.34,0-21.53.78-21.53-22.7,0-2.96,3.92-3.07,3.92,0Z"/>
    <path class="cls-9" d="m726.61,381.97c0,16.77,5.17,15.27,20.09,15.27l-2.58-2.62s1.05-1.09,1.87-.5c1.08.79,3.91,4.05,3.91,4.05,0,0-2.83,3.26-3.91,4.05-.82.59-1.87-.5-1.87-.5l2.58-2.62c-14.71,0-21.41,2.13-22.03-15.22,0,19.53-.38,18.81,19.52,18.81,1.42,0,1.5,1.98.03,1.98-22.34,0-21.53.78-21.53-22.7,0-2.96,3.92-3.07,3.92,0Z"/>
    <path class="cls-6" d="m343.84,548.74c0-16.77-5.17-15.27-20.09-15.27l2.58,2.62s-1.05,1.09-1.87.5c-1.08-.79-3.91-4.05-3.91-4.05,0,0,2.83-3.26,3.91-4.05.82-.59,1.87.5,1.87.5l-2.58,2.62c14.71,0,21.41-2.13,22.03,15.22,0-19.53.38-18.81-19.52-18.81-1.42,0-1.5-1.98-.03-1.98,22.34,0,21.53-.78,21.53,22.7,0,2.96-3.92,3.07-3.92,0Z"/>
    <path class="cls-9" d="m286.53,529.58c-16.77,0-15.27,5.17-15.27,20.09l2.62-2.58s1.09,1.05.5,1.87c-.79,1.08-4.05,3.91-4.05,3.91,0,0-3.26-2.83-4.05-3.91-.59-.82.5-1.87.5-1.87l2.62,2.58c0-14.71-2.13-21.41,15.22-22.03-19.53,0-18.81-.38-18.81,19.52,0,1.42-1.98,1.5-1.98.03,0-22.34-.78-21.53,22.7-21.53,2.96,0,3.07,3.92,0,3.92Z"/>
    <path class="cls-6" d="m523.15,549c0-16.77-5.17-15.27-20.09-15.27l2.58,2.62s-1.05,1.09-1.87.5c-1.08-.79-3.91-4.05-3.91-4.05,0,0,2.83-3.26,3.91-4.05.82-.59,1.87.5,1.87.5l-2.58,2.62c14.71,0,21.41-2.13,22.03,15.22,0-19.53.38-18.81-19.52-18.81-1.42,0-1.5-1.98-.03-1.98,22.34,0,21.53-.78,21.53,22.7,0,2.96-3.92,3.07-3.92,0Z"/>
    <path class="cls-9" d="m736.93,529.1c-16.77,0-15.27,5.17-15.27,20.09l2.62-2.58s1.09,1.05.5,1.87c-.79,1.08-4.05,3.91-4.05,3.91,0,0-3.26-2.83-4.05-3.91-.59-.82.5-1.87.5-1.87l2.62,2.58c0-14.71-2.13-21.41,15.22-22.03-19.53,0-18.81-.38-18.81,19.52,0,1.42-1.98,1.5-1.98.03,0-22.34-.78-21.53,22.7-21.53,2.96,0,3.07,3.92,0,3.92Z"/>
  </g>
  <g>
    <path class="cls-6" d="m51.04,199.84c.04-1.54,1.06-2.18,1.86-2.18,22.66,0,22.75-.55,22.87,19.65l2.74-2.45s1.1,1.04.5,1.87c-.82,1.11-3.87,3.59-4.16,3.84-.29-.25-3.16-2.73-3.98-3.84-.6-.83.5-1.87.5-1.87l2.55,2.45c-.81-17.85,1.36-17.46-20.81-17.46,0,14.23,2.17,21.69,19.14,21.69,1.42,0,1.47,2.06.05,2.06-19.11,0-21.65-10.35-21.26-23.76Z"/>
    <path class="cls-6" d="m144.64,195.7c22.47,0,23-.85,23,20.49,0,1.43-2.23,1.31-2.21-.01.27-20.07-.72-18.52-20.52-18.3,0,15.55,2.91,21.64,18.1,21.64l-2.44-2.49s1.04-1.1,1.87-.5c1.11.82,3.68,3.78,3.93,4.07-.25.29-2.82,3.25-3.93,4.07-.83.6-1.87-.5-1.87-.5l2.44-2.58c-20.75,0-20.33-14.09-20.33-23.7,0-1.45,1.16-2.18,1.97-2.18Z"/>
    <path class="cls-6" d="m320.61,199.84c.04-1.54,1.06-2.18,1.86-2.18,22.66,0,22.75-.55,22.87,19.65l2.74-2.45s1.1,1.04.5,1.87c-.82,1.11-3.87,3.59-4.16,3.84-.29-.25-3.16-2.73-3.98-3.84-.6-.83.5-1.87.5-1.87l2.55,2.45c-.81-17.85,1.36-17.46-20.81-17.46,0,14.23,2.17,21.69,19.14,21.69,1.42,0,1.47,2.06.05,2.06-19.11,0-21.65-10.35-21.26-23.76Z"/>
    <path class="cls-6" d="m234.64,195.7c22.47,0,23-.85,23,20.49,0,1.43-2.23,1.31-2.21-.01.27-20.07-.72-18.52-20.52-18.3,0,15.55,2.91,21.64,18.1,21.64l-2.44-2.49s1.04-1.1,1.87-.5c1.11.82,3.68,3.78,3.93,4.07-.25.29-2.82,3.25-3.93,4.07-.83.6-1.87-.5-1.87-.5l2.44-2.58c-20.75,0-20.33-14.09-20.33-23.7,0-1.45,1.16-2.18,1.97-2.18Z"/>
    <path class="cls-6" d="m408.54,186.88c.04,1.54,1.06,2.18,1.86,2.18,22.66,0,22.75.55,22.87-19.65l2.74,2.45s1.1-1.04.5-1.87c-.82-1.11-3.87-3.59-4.16-3.84-.29.25-3.16,2.73-3.98,3.84-.6.83.5,1.87.5,1.87l2.55-2.45c-.81,17.85,1.36,17.46-20.81,17.46,0-14.23,2.17-21.69,19.14-21.69,1.42,0,1.47-2.06.05-2.06-19.11,0-21.65,10.35-21.26,23.76Z"/>
    <path class="cls-6" d="m502.47,189.22c22.47,0,23,.85,23-20.49,0-1.43-2.23-1.31-2.21.01.27,20.07-.72,18.52-20.52,18.3,0-15.55,2.91-21.64,18.1-21.64l-2.44,2.49s1.04,1.1,1.87.5c1.11-.82,3.68-3.78,3.93-4.07-.25-.29-2.82-3.25-3.93-4.07-.83-.6-1.87.5-1.87.5l2.44,2.58c-20.75,0-20.33,14.09-20.33,23.7,0,1.45,1.16,2.18,1.97,2.18Z"/>
    <path class="cls-6" d="m679.06,186.7c.04,1.54,1.06,2.18,1.86,2.18,22.66,0,22.75.55,22.87-19.65l2.74,2.45s1.1-1.04.5-1.87c-.82-1.11-3.87-3.59-4.16-3.84-.29.25-3.16,2.73-3.98,3.84-.6.83.5,1.87.5,1.87l2.55-2.45c-.81,17.85,1.36,17.46-20.81,17.46,0-14.23,2.17-21.69,19.14-21.69,1.42,0,1.47-2.06.05-2.06-19.11,0-21.65,10.35-21.26,23.76Z"/>
    <path class="cls-6" d="m592.47,189.22c22.47,0,23,.85,23-20.49,0-1.43-2.23-1.31-2.21.01.27,20.07-.72,18.52-20.52,18.3,0-15.55,2.91-21.64,18.1-21.64l-2.44,2.49s1.04,1.1,1.87.5c1.11-.82,3.68-3.78,3.93-4.07-.25-.29-2.82-3.25-3.93-4.07-.83-.6-1.87.5-1.87.5l2.44,2.58c-20.75,0-20.33,14.09-20.33,23.7,0,1.45,1.16,2.18,1.97,2.18Z"/>
    <path class="cls-6" d="m470.9,407.24c-.04,1.54-1.06,2.18-1.86,2.18-22.66,0-22.75.55-22.87-19.65l-2.74,2.45s-1.1-1.04-.5-1.87c.82-1.11,3.87-3.59,4.16-3.84.29.25,3.16,2.73,3.98,3.84.6.83-.5,1.87-.5,1.87l-2.55-2.45c.81,17.85-1.36,17.46,20.81,17.46,0-14.23-2.17-21.69-19.14-21.69-1.42,0-1.47-2.06-.05-2.06,19.11,0,21.65,10.35,21.26,23.76Z"/>
    <path class="cls-6" d="m556.06,410.69c-22.47,0-23,.85-23-20.49,0-1.43,2.23-1.31,2.21.01-.27,20.07.72,18.52,20.52,18.3,0-15.55-2.91-21.64-18.1-21.64l2.44,2.49s-1.04,1.1-1.87.5c-1.11-.82-3.68-3.78-3.93-4.07.25-.29,2.82-3.25,3.93-4.07.83-.6,1.87.5,1.87.5l-2.44,2.58c20.75,0,20.33,14.09,20.33,23.7,0,1.45-1.16,2.18-1.97,2.18Z"/>
    <path class="cls-6" d="m741.15,408.28c-.04,1.54-1.06,2.18-1.86,2.18-22.66,0-22.75.55-22.87-19.65l-2.74,2.45s-1.1-1.04-.5-1.87c.82-1.11,3.87-3.59,4.16-3.84.29.25,3.16,2.73,3.98,3.84.6.83-.5,1.87-.5,1.87l-2.55-2.45c.81,17.85-1.36,17.46,20.81,17.46,0-14.23-2.17-21.69-19.14-21.69-1.42,0-1.47-2.06-.05-2.06,19.11,0,21.65,10.35,21.26,23.76Z"/>
    <path class="cls-6" d="m646.5,410.69c-22.47,0-23,.85-23-20.49,0-1.43,2.23-1.31,2.21.01-.27,20.07.72,18.52,20.52,18.3,0-15.55-2.91-21.64-18.1-21.64l2.44,2.49s-1.04,1.1-1.87.5c-1.11-.82-3.68-3.78-3.93-4.07.25-.29,2.82-3.25,3.93-4.07.83-.6,1.87.5,1.87.5l-2.44,2.58c20.75,0,20.33,14.09,20.33,23.7,0,1.45-1.16,2.18-1.97,2.18Z"/>
    <path class="cls-6" d="m173.39,330.98c0-22.47-.85-23,20.49-23,1.43,0,1.31,2.23-.01,2.21-20.07-.27-18.52.72-18.3,20.52,15.55,0,21.64-2.91,21.64-18.1l-2.49,2.44s-1.1-1.04-.5-1.87c.82-1.11,3.78-3.68,4.07-3.93.29.25,3.25,2.82,4.07,3.93.6.83-.5,1.87-.5,1.87l-2.58-2.44c0,20.75-14.09,20.33-23.7,20.33-1.45,0-2.18-1.16-2.18-1.97Z"/>
    <path class="cls-6" d="m357.8,335.43c-1.54-.04-2.18-1.06-2.18-1.86,0-22.66-.55-22.75,19.65-22.87l-2.45-2.74s1.04-1.1,1.87-.5c1.11.82,3.59,3.87,3.84,4.16-.25.29-2.73,3.16-3.84,3.98-.83.6-1.87-.5-1.87-.5l2.45-2.55c-17.85.81-17.46-1.36-17.46,20.81,14.23,0,21.69-2.17,21.69-19.14,0-1.42,2.06-1.47,2.06-.05,0,19.11-10.35,21.65-23.76,21.26Z"/>
    <path class="cls-6" d="m265.99,330.98c0-22.47-.85-23,20.49-23,1.43,0,1.31,2.23-.01,2.21-20.07-.27-18.52.72-18.3,20.52,15.55,0,21.64-2.91,21.64-18.1l-2.49,2.44s-1.1-1.04-.5-1.87c.82-1.11,3.78-3.68,4.07-3.93.29.25,3.25,2.82,4.07,3.93.6.83-.5,1.87-.5,1.87l-2.58-2.44c0,20.75-14.09,20.33-23.7,20.33-1.45,0-2.18-1.16-2.18-1.97Z"/>
    <path class="cls-6" d="m75.13,382.77c1.54.04,2.18,1.06,2.18,1.86,0,22.66.55,22.75-19.65,22.87l2.45,2.74s-1.04,1.1-1.87.5c-1.11-.82-3.59-3.87-3.84-4.16.25-.29,2.73-3.16,3.84-3.98.83-.6,1.87.5,1.87.5l-2.45,2.55c17.85-.81,17.46,1.36,17.46-20.81-14.23,0-21.69,2.17-21.69,19.14,0,1.42-2.06,1.47-2.06.05,0-19.11,10.35-21.65,23.76-21.26Z"/>
    <path class="cls-9" d="m111.16,529.03c-.04-1.54-1.06-2.18-1.86-2.18-22.66,0-22.75-.55-22.87,19.65l-2.74-2.45s-1.1,1.04-.5,1.87c.82,1.11,3.87,3.59,4.16,3.84.29-.25,3.16-2.73,3.98-3.84.6-.83-.5-1.87-.5-1.87l-2.55,2.45c.81-17.85-1.36-17.46,20.81-17.46,0,14.23-2.17,21.69-19.14,21.69-1.42,0-1.47,2.06-.05,2.06,19.11,0,21.65-10.35,21.26-23.76Z"/>
    <path class="cls-9" d="m560.96,528.48c-.04-1.54-1.06-2.18-1.86-2.18-22.66,0-22.75-.55-22.87,19.65l-2.74-2.45s-1.1,1.04-.5,1.87c.82,1.11,3.87,3.59,4.16,3.84.29-.25,3.16-2.73,3.98-3.84.6-.83-.5-1.87-.5-1.87l-2.55,2.45c.81-17.85-1.36-17.46,20.81-17.46,0,14.23-2.17,21.69-19.14,21.69-1.42,0-1.47,2.06-.05,2.06,19.11,0,21.65-10.35,21.26-23.76Z"/>
    <path class="cls-6" d="m168.06,386.88c0,22.47.85,23-20.49,23-1.43,0-1.31-2.23.01-2.21,20.07.27,18.52-.72,18.3-20.52-15.55,0-21.64,2.91-21.64,18.1l2.49-2.44s1.1,1.04.5,1.87c-.82,1.11-3.78,3.68-4.07,3.93-.29-.25-3.25-2.82-4.07-3.93-.6-.83.5-1.87.5-1.87l2.58,2.44c0-20.75,14.09-20.33,23.7-20.33,1.45,0,2.18,1.16,2.18,1.97Z"/>
    <path class="cls-9" d="m377.23,526.37c-22.47,0-23-.85-23,20.49,0,1.43,2.23,1.31,2.21-.01-.27-20.07.72-18.52,20.52-18.3,0,15.55-2.91,21.64-18.1,21.64l2.44-2.49s-1.04-1.1-1.87-.5c-1.11.82-3.68,3.78-3.93,4.07.25.29,2.82,3.25,3.93,4.07.83.6,1.87-.5,1.87-.5l-2.44-2.58c20.75,0,20.33-14.09,20.33-23.7,0-1.45-1.16-2.18-1.97-2.18Z"/>
    <path class="cls-9" d="m647.67,526.99c-22.47,0-23-.85-23,20.49,0,1.43,2.23,1.31,2.21-.01-.27-20.07.72-18.52,20.52-18.3,0,15.55-2.91,21.64-18.1,21.64l2.44-2.49s-1.04-1.1-1.87-.5c-1.11.82-3.68,3.78-3.93,4.07.25.29,2.82,3.25,3.93,4.07.83.6,1.87-.5,1.87-.5l-2.44-2.58c20.75,0,20.33-14.09,20.33-23.7,0-1.45-1.16-2.18-1.97-2.18Z"/>
    <path class="cls-6" d="m257.51,549.78c0-22.47.85-23-20.49-23-1.43,0-1.31,2.23.01,2.21,20.07-.27,18.52.72,18.3,20.52-15.55,0-21.64-2.91-21.64-18.1l2.49,2.44s1.1-1.04.5-1.87c-.82-1.11-3.78-3.68-4.07-3.93-.29.25-3.25,2.82-4.07,3.93-.6.83.5,1.87.5,1.87l2.58-2.44c0,20.75,14.09,20.33,23.7,20.33,1.45,0,2.18-1.16,2.18-1.97Z"/>
    <path class="cls-6" d="m437.24,549.3c0-22.47.85-23-20.49-23-1.43,0-1.31,2.23.01,2.21,20.07-.27,18.52.72,18.3,20.52-15.55,0-21.64-2.91-21.64-18.1l2.49,2.44s1.1-1.04.5-1.87c-.82-1.11-3.78-3.68-4.07-3.93-.29.25-3.25,2.82-4.07,3.93-.6.83.5,1.87.5,1.87l2.58-2.44c0,20.75,14.09,20.33,23.7,20.33,1.45,0,2.18-1.16,2.18-1.97Z"/>
    <path class="cls-6" d="m345.43,383.34c1.54.04,2.18,1.06,2.18,1.86,0,22.66.55,22.75-19.65,22.87l2.45,2.74s-1.04,1.1-1.87.5c-1.11-.82-3.59-3.87-3.84-4.16.25-.29,2.73-3.16,3.84-3.98.83-.6,1.87.5,1.87.5l-2.45,2.55c17.85-.81,17.46,1.36,17.46-20.81-14.23,0-21.69,2.17-21.69,19.14,0,1.42-2.06,1.47-2.06.05,0-19.11,10.35-21.65,23.76-21.26Z"/>
    <path class="cls-6" d="m163.58,554.99c1.54-.04,2.18-1.06,2.18-1.86,0-22.66.55-22.75-19.65-22.87l2.45-2.74s-1.04-1.1-1.87-.5c-1.11.82-3.59,3.87-3.84,4.16.25.29,2.73,3.16,3.84,3.98.83.6,1.87-.5,1.87-.5l-2.45-2.55c17.85.81,17.46-1.36,17.46,20.81-14.23,0-21.69-2.17-21.69-19.14,0-1.42-2.06-1.47-2.06-.05,0,19.11,10.35,21.65,23.76,21.26Z"/>
    <path class="cls-6" d="m704.03,554.99c1.54-.04,2.18-1.06,2.18-1.86,0-22.66.55-22.75-19.65-22.87l2.45-2.74s-1.04-1.1-1.87-.5c-1.11.82-3.59,3.87-3.84,4.16.25.29,2.73,3.16,3.84,3.98.83.6,1.87-.5,1.87-.5l-2.45-2.55c17.85.81,17.46-1.36,17.46,20.81-14.23,0-21.69-2.17-21.69-19.14,0-1.42-2.06-1.47-2.06-.05,0,19.11,10.35,21.65,23.76,21.26Z"/>
    <path class="cls-6" d="m258.06,386.88c0,22.47.85,23-20.49,23-1.43,0-1.31-2.23.01-2.21,20.07.27,18.52-.72,18.3-20.52-15.55,0-21.64,2.91-21.64,18.1l2.49-2.44s1.1,1.04.5,1.87c-.82,1.11-3.78,3.68-4.07,3.93-.29-.25-3.25-2.82-4.07-3.93-.6-.83.5-1.87.5-1.87l2.58,2.44c0-20.75,14.09-20.33,23.7-20.33,1.45,0,2.18,1.16,2.18,1.97Z"/>
    <path class="cls-6" d="m435.77,333.16c1.54-.04,2.18-1.06,2.18-1.86,0-22.66.55-22.75-19.65-22.87l2.45-2.74s-1.04-1.1-1.87-.5c-1.11.82-3.59,3.87-3.84,4.16.25.29,2.73,3.16,3.84,3.98.83.6,1.87-.5,1.87-.5l-2.45-2.55c17.85.81,17.46-1.36,17.46,20.81-14.23,0-21.69-2.17-21.69-19.14,0-1.42-2.06-1.47-2.06-.05,0,19.11,10.35,21.65,23.76,21.26Z"/>
    <path class="cls-6" d="m528.98,329.61c0-22.47.85-23-20.49-23-1.43,0-1.31,2.23.01,2.21,20.07-.27,18.52.72,18.3,20.52-15.55,0-21.64-2.91-21.64-18.1l2.49,2.44s1.1-1.04.5-1.87c-.82-1.11-3.78-3.68-4.07-3.93-.29.25-3.25,2.82-4.07,3.93-.6.83.5,1.87.5,1.87l2.58-2.44c0,20.75,14.09,20.33,23.7,20.33,1.45,0,2.18-1.16,2.18-1.97Z"/>
    <path class="cls-6" d="m705.12,333.69c1.54-.04,2.18-1.06,2.18-1.86,0-22.66.55-22.75-19.65-22.87l2.45-2.74s-1.04-1.1-1.87-.5c-1.11.82-3.59,3.87-3.84,4.16.25.29,2.73,3.16,3.84,3.98.83.6,1.87-.5,1.87-.5l-2.45-2.55c17.85.81,17.46-1.36,17.46,20.81-14.23,0-21.69-2.17-21.69-19.14,0-1.42-2.06-1.47-2.06-.05,0,19.11,10.35,21.65,23.76,21.26Z"/>
    <path class="cls-6" d="m618.65,329.07c0-22.47.85-23-20.49-23-1.43,0-1.31,2.23.01,2.21,20.07-.27,18.52.72,18.3,20.52-15.55,0-21.64-2.91-21.64-18.1l2.49,2.44s1.1-1.04.5-1.87c-.82-1.11-3.78-3.68-4.07-3.93-.29.25-3.25,2.82-4.07,3.93-.6.83.5,1.87.5,1.87l2.58-2.44c0,20.75,14.09,20.33,23.7,20.33,1.45,0,2.18-1.16,2.18-1.97Z"/>
    <path class="cls-6" d="m89.44,334.84c-1.54-.04-2.18-1.06-2.18-1.86,0-22.66-.55-22.75,19.65-22.87l-2.45-2.74s1.04-1.1,1.87-.5c1.11.82,3.59,3.87,3.84,4.16-.25.29-2.73,3.16-3.84,3.98-.83.6-1.87-.5-1.87-.5l2.45-2.55c-17.85.81-17.46-1.36-17.46,20.81,14.23,0,21.69-2.17,21.69-19.14,0-1.42,2.06-1.47,2.06-.05,0,19.11-10.35,21.65-23.76,21.26Z"/>
  </g>
</svg>