<?xml version="1.0" encoding="UTF-8"?>
<svg id="Layer_1" data-name="Layer 1" xmlns="http://www.w3.org/2000/svg" viewBox="0 0 612 792">
  <defs>
    <style>
      .cls-1 {
        fill: none;
        stroke: #231f20;
        stroke-miterlimit: 10;
        stroke-width: 3px;
      }

      .cls-2 {
        fill: #00aeef;
      }

      .cls-3 {
        font-family: MonotypeCorsiva, 'Monotype Corsiva';
        font-size: 45px;
      }

      .cls-3, .cls-4, .cls-5, .cls-6 {
        fill: #231f20;
      }

      .cls-4 {
        font-family: Georgia, Georgia;
        font-size: 60px;
      }

      .cls-7 {
        fill: #2e3192;
      }

      .cls-8 {
        font-family: Cambria-BoldItalic, Cambria;
        font-size: 30px;
        font-style: italic;
        font-weight: 700;
      }

      .cls-5 {
        letter-spacing: -.03em;
      }

      .cls-9 {
        fill: #7f3f98;
      }

      .cls-10 {
        fill: #ed1c24;
      }
    </style>
  </defs>
  <path class="cls-7" d="m467.59,90.49c.08,1.07.58,3.88-.03,5.21-.26.56-1.15.64-1.65,1.07l-.49-5.3-22.01,22.01c-.45.45-1.17.45-1.61,0h0c-.45-.45-.45-1.17,0-1.62l22.04-22.02-5.14.51c.17-.7.39-1.42.82-1.71,1.22-.82,4.34-.88,5.1-.84.73.04,2.21.23,2.4.26"/>
  <path class="cls-7" d="m428.71,98.34c-.08-1.07-.58-3.88.03-5.21.26-.56,1.15-.64,1.65-1.07l.49,5.3,22.01-22.01c.45-.45,1.17-.45,1.61,0h0c.45.45.45,1.17,0,1.62l-22.04,22.02,5.14-.51c-.17.7-.39,1.42-.82,1.71-1.22.82-4.34.88-5.1.84s-2.21-.23-2.4-.26"/>
  <path class="cls-10" d="m452.08,113.85c-1.07.08-3.88.58-5.21-.03-.56-.26-.64-1.15-1.07-1.65l5.3-.49-22.01-22.01c-.45-.45-.45-1.17,0-1.61h0c.45-.45,1.17-.45,1.62,0l22.02,22.04-.51-5.14c.7.17,1.42.39,1.71.82.82,1.22.88,4.34.84,5.1s-.23,2.21-.26,2.4"/>
  <path class="cls-10" d="m444.22,74.97c1.07-.08,3.88-.58,5.21.03.56.26.64,1.15,1.07,1.65l-5.3.49,22.01,22.01c.45.45.45,1.17,0,1.61h0c-.45.45-1.17.45-1.62,0l-22.02-22.04.51,5.14c-.7-.17-1.42-.39-1.71-.82-.82-1.22-.88-4.34-.84-5.1.04-.73.23-2.21.26-2.4"/>
  <g>
    <path class="cls-6" d="m365.92,95.66c1.61,0,1.61-2.5,0-2.5s-1.61,2.5,0,2.5h0Z"/>
    <g>
      <path class="cls-6" d="m365.92,132.98c3.22,0,3.22-5,0-5s-3.22,5,0,5h0Z"/>
      <path class="cls-6" d="m401.98,96.91c3.22,0,3.22-5,0-5s-3.22,5,0,5h0Z"/>
      <path class="cls-6" d="m365.92,60.85c3.22,0,3.22-5,0-5s-3.22,5,0,5h0Z"/>
      <path class="cls-6" d="m329.85,96.91c3.22,0,3.22-5,0-5s-3.22,5,0,5h0Z"/>
    </g>
  </g>
  <g>
    <path class="cls-6" d="m448.15,95.66c1.61,0,1.61-2.5,0-2.5s-1.61,2.5,0,2.5h0Z"/>
    <g>
      <path class="cls-6" d="m473.65,122.41c3.22,0,3.22-5,0-5s-3.22,5,0,5h0Z"/>
      <path class="cls-6" d="m422.65,122.41c3.22,0,3.22-5,0-5s-3.22,5,0,5h0Z"/>
      <path class="cls-6" d="m422.65,71.41c3.22,0,3.22-5,0-5s-3.22,5,0,5h0Z"/>
      <path class="cls-6" d="m473.65,71.41c3.22,0,3.22-5,0-5s-3.22,5,0,5h0Z"/>
    </g>
  </g>
  <g>
    <path class="cls-6" d="m201.45,95.73c1.61,0,1.61-2.5,0-2.5s-1.61,2.5,0,2.5h0Z"/>
    <g>
      <path class="cls-6" d="m201.45,133.05c3.22,0,3.22-5,0-5s-3.22,5,0,5h0Z"/>
      <path class="cls-6" d="m237.51,96.98c3.22,0,3.22-5,0-5s-3.22,5,0,5h0Z"/>
      <path class="cls-6" d="m201.45,60.92c3.22,0,3.22-5,0-5s-3.22,5,0,5h0Z"/>
      <path class="cls-6" d="m165.39,96.98c3.22,0,3.22-5,0-5s-3.22,5,0,5h0Z"/>
    </g>
  </g>
  <g>
    <path class="cls-6" d="m283.68,95.73c1.61,0,1.61-2.5,0-2.5s-1.61,2.5,0,2.5h0Z"/>
    <g>
      <path class="cls-6" d="m309.18,71.48c3.22,0,3.22-5,0-5s-3.22,5,0,5h0Z"/>
      <path class="cls-6" d="m309.18,122.48c3.22,0,3.22-5,0-5s-3.22,5,0,5h0Z"/>
      <path class="cls-6" d="m258.18,122.48c3.22,0,3.22-5,0-5s-3.22,5,0,5h0Z"/>
      <path class="cls-6" d="m258.18,71.48c3.22,0,3.22-5,0-5s-3.22,5,0,5h0Z"/>
    </g>
  </g>
  <rect class="cls-10" x="350.87" y="110.05" width="29.95" height="3.08" rx="1.17" ry="1.17" transform="translate(477.43 -254.25) rotate(90)"/>
  <rect class="cls-7" x="368.22" y="92.8" width="29.95" height="3.08" rx="1.17" ry="1.17"/>
  <rect class="cls-10" x="351.01" y="75.7" width="29.95" height="3.08" rx="1.17" ry="1.17" transform="translate(288.75 443.23) rotate(-90)"/>
  <rect class="cls-7" x="333.66" y="92.95" width="29.95" height="3.08" rx="1.17" ry="1.17" transform="translate(697.26 188.97) rotate(-180)"/>
  <rect class="cls-10" x="186.4" y="110.12" width="29.95" height="3.08" rx="1.17" ry="1.17" transform="translate(313.04 -89.72) rotate(90)"/>
  <rect class="cls-7" x="203.76" y="92.87" width="29.95" height="3.08" rx="1.17" ry="1.17"/>
  <rect class="cls-10" x="186.55" y="75.77" width="29.95" height="3.08" rx="1.17" ry="1.17" transform="translate(124.22 278.83) rotate(-90)"/>
  <rect class="cls-7" x="169.19" y="93.02" width="29.95" height="3.08" rx="1.17" ry="1.17" transform="translate(368.33 189.11) rotate(-180)"/>
  <rect class="cls-10" x="280.75" y="105.2" width="29.95" height="3.08" rx="1.17" ry="1.17" transform="translate(162.09 -177.85) rotate(45)"/>
  <rect class="cls-7" x="280.83" y="80.73" width="29.95" height="3.08" rx="1.17" ry="1.17" transform="translate(28.47 233.26) rotate(-45)"/>
  <rect class="cls-10" x="256.56" y="80.8" width="29.95" height="3.08" rx="1.17" ry="1.17" transform="translate(405.32 332.57) rotate(-135)"/>
  <rect class="cls-7" x="256.48" y="105.27" width="29.95" height="3.08" rx="1.17" ry="1.17" transform="translate(538.94 -9.62) rotate(135)"/>
  <rect class="cls-10" x="445.37" y="104.97" width="29.95" height="3.08" rx="1.17" ry="1.17" transform="translate(210.14 -294.32) rotate(45)"/>
  <rect class="cls-7" x="420.9" y="105.05" width="29.95" height="3.08" rx="1.17" ry="1.17" transform="translate(819.45 -126.26) rotate(135)"/>
  <rect class="cls-10" x="420.98" y="80.78" width="29.95" height="3.08" rx="1.17" ry="1.17" transform="translate(686.01 448.79) rotate(-135)"/>
  <rect class="cls-7" x="445.45" y="80.7" width="29.95" height="3.08" rx="1.17" ry="1.17" transform="translate(76.7 349.66) rotate(-45)"/>
  <path class="cls-10" d="m372.67,130.07c0-4.75-.36-5.93,1.76-8.05,2.12-2.12,5.44-1.74,6.58-1.58-.19-1.25-.69-4.88,1.36-6.92,1.99-1.99,5.33-1.23,6.55-.99-.21-1.03-.64-3.87.9-5.9,1.71-2.26,4.71-2.95,8.39-2.95l-3.51-3.36.3-.18c.54-.33,1.1-.62,1.59-.51.96.2,5.39,5.42,5.39,5.42,0,0-4.61,4.96-5.17,5.24-.51.26-1.52-.19-1.91-.42l-.29-.2.25-.25c.11-.12,2.27-1.94,3.4-3.34-.4-.02-1.49.08-1.85.09-2.35.1-4.2.73-4.94,2.01-.91,1.54-.4,4.06,1.07,7.08l.36.71-.74-.31c-.06-.02-5.99-2.47-8.17-.26-1.27,1.27-1.07,3.91.6,7.83l.23.55-.57-.14c-2.54-.6-6.64-1.72-8.25.17s-1.04,5.1-.99,6.03c.04.94-.3,1.57-1.13,1.61-.83.04-1.21-.34-1.21-1.39Z"/>
  <path class="cls-7" d="m372.67,58.76c0,4.75-.36,5.93,1.76,8.05,2.12,2.12,5.44,1.74,6.58,1.58-.19,1.25-.69,4.88,1.36,6.92,1.99,1.99,5.33,1.23,6.55.99-.21,1.03-.64,3.87.9,5.9,1.71,2.26,4.71,2.95,8.39,2.95l-3.51,3.36.3.18c.54.33,1.1.62,1.59.51.96-.2,5.39-5.42,5.39-5.42,0,0-4.61-4.96-5.17-5.24-.51-.26-1.52.19-1.91.42l-.29.2.25.25c.11.12,2.27,1.94,3.4,3.34-.4.02-1.49-.08-1.85-.09-2.35-.1-4.2-.73-4.94-2.01-.91-1.54-.4-4.06,1.07-7.08l.36-.71-.74.31c-.06.02-5.99,2.47-8.17.26-1.27-1.27-1.07-3.91.6-7.83l.23-.55-.57.14c-2.54.6-6.64,1.72-8.25-.17-1.61-1.9-1.04-5.1-.99-6.03.04-.94-.3-1.57-1.13-1.61s-1.21.34-1.21,1.39Z"/>
  <path class="cls-7" d="m372.67,58.76c0,4.75-.36,5.93,1.76,8.05,2.12,2.12,5.44,1.74,6.58,1.58-.19,1.25-.69,4.88,1.36,6.92,1.99,1.99,5.33,1.23,6.55.99-.21,1.03-.64,3.87.9,5.9,1.71,2.26,4.71,2.95,8.39,2.95l-3.51,3.36.3.18c.54.33,1.1.62,1.59.51.96-.2,5.39-5.42,5.39-5.42,0,0-4.61-4.96-5.17-5.24-.51-.26-1.52.19-1.91.42l-.29.2.25.25c.11.12,2.27,1.94,3.4,3.34-.4.02-1.49-.08-1.85-.09-2.35-.1-4.2-.73-4.94-2.01-.91-1.54-.4-4.06,1.07-7.08l.36-.71-.74.31c-.06.02-5.99,2.47-8.17.26-1.27-1.27-1.07-3.91.6-7.83l.23-.55-.57.14c-2.54.6-6.64,1.72-8.25-.17-1.61-1.9-1.04-5.1-.99-6.03.04-.94-.3-1.57-1.13-1.61-.83-.04-1.21.34-1.21,1.39Z"/>
  <path class="cls-10" d="m372.67,130.07c0-4.75-.36-5.93,1.76-8.05,2.12-2.12,5.44-1.74,6.58-1.58-.19-1.25-.69-4.88,1.36-6.92,1.99-1.99,5.33-1.23,6.55-.99-.21-1.03-.64-3.87.9-5.9,1.71-2.26,4.71-2.95,8.39-2.95l-3.51-3.36.3-.18c.54-.33,1.1-.62,1.59-.51.96.2,5.39,5.42,5.39,5.42,0,0-4.61,4.96-5.17,5.24-.51.26-1.52-.19-1.91-.42l-.29-.2.25-.25c.11-.12,2.27-1.94,3.4-3.34-.4-.02-1.49.08-1.85.09-2.35.1-4.2.73-4.94,2.01-.91,1.54-.4,4.06,1.07,7.08l.36.71-.74-.31c-.06-.02-5.99-2.47-8.17-.26-1.27,1.27-1.07,3.91.6,7.83l.23.55-.57-.14c-2.54-.6-6.64-1.72-8.25.17-1.61,1.9-1.04,5.1-.99,6.03.04.94-.3,1.57-1.13,1.61s-1.21-.34-1.21-1.39Z"/>
  <path class="cls-10" d="m359.17,58.76c0,4.75.36,5.93-1.76,8.05-2.12,2.12-5.44,1.74-6.58,1.58.19,1.25.69,4.88-1.36,6.92-1.99,1.99-5.33,1.23-6.55.99.21,1.03.64,3.87-.9,5.9-1.71,2.26-4.71,2.95-8.39,2.95l3.51,3.36-.3.18c-.54.33-1.1.62-1.59.51-.96-.2-5.39-5.42-5.39-5.42,0,0,4.61-4.96,5.17-5.24.51-.26,1.52.19,1.91.42l.29.2-.25.25c-.11.12-2.27,1.94-3.4,3.34.4.02,1.49-.08,1.85-.09,2.35-.1,4.2-.73,4.94-2.01.91-1.54.4-4.06-1.07-7.08l-.36-.71.74.31c.06.02,5.99,2.47,8.17.26,1.27-1.27,1.07-3.91-.6-7.83l-.23-.55.57.14c2.54.6,6.64,1.72,8.25-.17,1.61-1.9,1.04-5.1.99-6.03-.04-.94.3-1.57,1.13-1.61.83-.04,1.21.34,1.21,1.39Z"/>
  <path class="cls-7" d="m359.17,130.07c0-4.75.36-5.93-1.76-8.05s-5.44-1.74-6.58-1.58c.19-1.25.69-4.88-1.36-6.92-1.99-1.99-5.33-1.23-6.55-.99.21-1.03.64-3.87-.9-5.9-1.71-2.26-4.71-2.95-8.39-2.95l3.51-3.36-.3-.18c-.54-.33-1.1-.62-1.59-.51-.96.2-5.39,5.42-5.39,5.42,0,0,4.61,4.96,5.17,5.24.51.26,1.52-.19,1.91-.42l.29-.2-.25-.25c-.11-.12-2.27-1.94-3.4-3.34.4-.02,1.49.08,1.85.09,2.35.1,4.2.73,4.94,2.01.91,1.54.4,4.06-1.07,7.08l-.36.71.74-.31c.06-.02,5.99-2.47,8.17-.26,1.27,1.27,1.07,3.91-.6,7.83l-.23.55.57-.14c2.54-.6,6.64-1.72,8.25.17,1.61,1.9,1.04,5.1.99,6.03-.04.94.3,1.57,1.13,1.61s1.21-.34,1.21-1.39Z"/>
  <path class="cls-10" d="m177.88,97.63s-.89-1.36-1.86-.63c-1.37,1.04-4.62,5.18-4.62,5.18,0,0,4,4.84,5.27,5.4.56.25,1.19-1.32,1.19-1.32l-2.6-3.23c10.08-.98,9.64,4.31,7.6,12.22,6.25-2.44,14.18-4.39,13.78,10.28.08.82.61,1,.89,1s.93-.31.96-1.06c.8-9.91-3.36-15.94-12.41-13.63.11-8.76-1.12-10.92-10.82-11.1"/>
  <path class="cls-7" d="m177.88,91.48s-.89,1.36-1.86.63c-1.37-1.04-4.62-5.18-4.62-5.18,0,0,4-4.84,5.27-5.4.56-.25,1.19,1.32,1.19,1.32l-2.6,3.23c10.08.98,9.64-4.31,7.6-12.22,6.25,2.44,14.18,4.39,13.78-10.28.08-.82.61-1,.89-1s.93.31.96,1.06c.8,9.91-3.36,15.94-12.41,13.63.11,8.76-1.12,10.92-10.82,11.1"/>
  <path class="cls-7" d="m225.02,97.63s.89-1.36,1.86-.63c1.37,1.04,4.62,5.18,4.62,5.18,0,0-4,4.84-5.27,5.4-.56.25-1.19-1.32-1.19-1.32l2.6-3.23c-10.08-.98-9.64,4.31-7.6,12.22-6.25-2.44-14.18-4.39-13.78,10.28-.08.82-.61,1-.89,1s-.93-.31-.96-1.06c-.8-9.91,3.36-15.94,12.41-13.63-.11-8.76,1.12-10.92,10.82-11.1"/>
  <path class="cls-10" d="m225.02,91.48s.89,1.36,1.86.63c1.37-1.04,4.62-5.18,4.62-5.18,0,0-4-4.84-5.27-5.4-.56-.25-1.19,1.32-1.19,1.32l2.6,3.23c-10.08.98-9.64-4.31-7.6-12.22-6.25,2.44-14.18,4.39-13.78-10.28-.08-.82-.61-1-.89-1s-.93.31-.96,1.06c-.8,9.91,3.36,15.94,12.41,13.63-.11,8.76,1.12,10.92,10.82,11.1"/>
  <path class="cls-7" d="m256.25,76.71c.34,1.02,1.35,3.24.82,4.6-.23.57-.78.84-1.49,1.07l-1.21-4.77c-8.4,13.24,6.94,25.57,18.81,16.52.71-.55,1.72-.52,2.09.05.32.5.44,1.15-.5,1.84-14.82,10.81-31.95-4.82-22.42-19.6l-4.49,1.34c-.19-.86-.43-1.12.31-1.87.65-.66,3.35-1.7,4.54-1.81,1.62-.15,2.18-.14,2.37-.12"/>
  <path class="cls-7" d="m468.17,122.48c.29-.28.72-.99.18-1.69-.04-.04-.07-.08-.1-.12-.55-.55-1.38-.29-1.76-.05-6.13,5.49-11.03,6.85-15.42,4.29,1.8-1.55,2.7-4.41,2.05-6.74-.53-1.89-1.97-3.04-3.95-3.2-2,0-3.48,1.01-4.08,2.83-.78,2.36.09,5.44,1.96,7.08-4.8,2.83-11.06-.96-13.59-2.77l-1.49-1.26,4.81-.48-.12-.34c-.2-.59-.44-1.17-.88-1.42-.81-.44-2.68-.13-4.6.26-.25.05-.44.09-.55.11-.46.06-1.27.24-1.65.33l-.42.08-.12,1.36c-.03.39-.15,5.2.29,5.96.21.38.74.6,1.59.68l.37.03-.05-.37c0-.16-.26-2.68-.2-4.43l1.35,1.15c4.61,3.69,11.89,6.59,17.35,2.79,5.69,4.45,13.86,1.34,19.05-4.08Zm-19.53.53c-1.48-1.48-1.61-3.1-1.18-4.22.37-.94.95-1.56,1.68-1.5.81.08,1.62.99,1.93,2.51.03,1.27-.52,2.31-1.93,3.66-.18-.15-.34-.29-.49-.44Z"/>
  <path class="cls-10" d="m420.09,114.43c.28.29.99.72,1.69.18.04-.04.08-.07.12-.1.55-.55.29-1.38.05-1.76-5.49-6.13-6.85-11.03-4.29-15.42,1.55,1.8,4.41,2.7,6.74,2.05,1.89-.53,3.04-1.97,3.2-3.95,0-2-1.01-3.48-2.83-4.08-2.36-.78-5.44.09-7.08,1.96-2.83-4.8.96-11.06,2.77-13.59l1.26-1.49.48,4.81.34-.12c.59-.2,1.17-.44,1.42-.88.44-.81.13-2.68-.26-4.6-.05-.25-.09-.44-.11-.55-.06-.46-.24-1.27-.33-1.65l-.08-.42-1.36-.12c-.39-.03-5.2-.15-5.96.29-.38.21-.6.74-.68,1.59l-.03.37.37-.05c.16,0,2.68-.26,4.43-.2l-1.15,1.35c-3.69,4.61-6.59,11.89-2.79,17.35-4.45,5.69-1.34,13.86,4.08,19.05Zm-.53-19.53c1.48-1.48,3.1-1.61,4.22-1.18.94.37,1.56.95,1.5,1.68-.08.81-.99,1.62-2.51,1.93-1.27.03-2.31-.52-3.66-1.93.15-.18.29-.34.44-.49Z"/>
  <path class="cls-7" d="m428.13,66.35c-.29.28-.72.99-.18,1.69.04.04.07.08.1.12.55.55,1.38.29,1.76.05,6.13-5.49,11.03-6.85,15.42-4.29-1.8,1.55-2.7,4.41-2.05,6.74.53,1.89,1.97,3.04,3.95,3.2,2,0,3.48-1.01,4.08-2.83.78-2.36-.09-5.44-1.96-7.08,4.8-2.83,11.06.96,13.59,2.77l1.49,1.26-4.81.48.12.34c.2.59.44,1.17.88,1.42.81.44,2.68.13,4.6-.26.25-.05.44-.09.55-.11.46-.06,1.27-.24,1.65-.33l.42-.08.12-1.36c.03-.39.15-5.2-.29-5.96-.21-.38-.74-.6-1.59-.68l-.37-.03.05.37c0,.16.26,2.68.2,4.43l-1.35-1.15c-4.61-3.69-11.89-6.59-17.35-2.79-5.69-4.45-13.86-1.34-19.05,4.08Zm19.53-.53c1.48,1.48,1.61,3.1,1.18,4.22-.37.94-.95,1.56-1.68,1.5-.81-.08-1.62-.99-1.93-2.51-.03-1.27.52-2.31,1.93-3.66.18.15.34.29.49.44Z"/>
  <path class="cls-10" d="m476.21,74.39c-.28-.29-.99-.72-1.69-.18-.04.04-.08.07-.12.1-.55.55-.29,1.38-.05,1.76,5.49,6.13,6.85,11.03,4.29,15.42-1.55-1.8-4.41-2.7-6.74-2.05-1.89.53-3.04,1.97-3.2,3.95,0,2,1.01,3.48,2.83,4.08,2.36.78,5.44-.09,7.08-1.96,2.83,4.8-.96,11.06-2.77,13.59l-1.26,1.49-.48-4.81-.34.12c-.59.2-1.17.44-1.42.88-.44.81-.13,2.68.26,4.6.05.25.09.44.11.55.06.46.24,1.27.33,1.65l.08.42,1.36.12c.39.03,5.2.15,5.96-.29.38-.21.6-.74.68-1.59l.03-.37-.37.05c-.16,0-2.68.26-4.43.2l1.15-1.35c3.69-4.61,6.59-11.89,2.79-17.35,4.45-5.69,1.34-13.86-4.08-19.05Zm.53,19.53c-1.48,1.48-3.1,1.61-4.22,1.18-.94-.37-1.56-.95-1.5-1.68.08-.81.99-1.62,2.51-1.93,1.27-.03,2.31.52,3.66,1.93-.15.18-.29.34-.44.49Z"/>
  <path class="cls-10" d="m376.98,101.74c.04,1.64.21,1.73.7,2.58.31.53.83.9,1.65.88l-.14-4.21c11.48,10.1-13.52,12.06-38.81-3.44-.81-.58-1.82-.5-2.19.02-.24.3-.6,1.32.41,1.92,32.57,19.47,56.4,11.62,42.2.09l4.31-.67c-.43-.58-.92-1.42-1.43-1.51-1.45-.27-2.76-.03-3.5.12-.79.16-2.6.38-2.77.48"/>
  <path class="cls-7" d="m354.85,87.09c-.04-1.64-.21-1.73-.7-2.58-.31-.53-.83-.9-1.65-.88l.14,4.21c-11.48-10.1,13.52-12.06,38.81,3.44.81.58,1.82.5,2.19-.02.24-.3.6-1.32-.41-1.92-32.57-19.47-56.4-11.62-42.2-.09l-4.31.67c.43.58.92,1.42,1.43,1.51,1.45.27,2.76.03,3.5-.12.79-.16,2.6-.38,2.77-.48"/>
  <path class="cls-10" d="m376.98,87.09c.04-1.64.21-1.73.7-2.58.31-.53.83-.9,1.65-.88l-.14,4.21c11.48-10.1-13.52-12.06-38.81,3.44-.81.58-1.82.5-2.19-.02-.24-.3-.6-1.32.41-1.92,32.57-19.47,56.4-11.62,42.2-.09l4.31.67c-.43.58-.92,1.42-1.43,1.51-1.45.27-2.76.03-3.5-.12-.79-.16-2.6-.38-2.77-.48"/>
  <path class="cls-7" d="m354.85,101.74c-.04,1.64-.21,1.73-.7,2.58-.31.53-.83.9-1.65.88l.14-4.21c-11.48,10.1,13.52,12.06,38.81-3.44.81-.58,1.82-.5,2.19.02.24.3.6,1.32-.41,1.92-32.57,19.47-56.4,11.62-42.2.09l-4.31-.67c.43-.58.92-1.42,1.43-1.51,1.45-.27,2.76-.03,3.5.12.79.16,2.6.38,2.77.48"/>
  <path class="cls-7" d="m194.63,126.09c-.7-.81-2.33-3.15-3.7-3.66-.58-.21-1.27.36-1.92.41l3.4,4.09c-10.58-.32-22.51-9.29-23.45-24.24-.11-.89-.63-1.48-1.71-1.38-1.14.11-1.14.56-1.03,1.72,1.34,14.17,11.68,26.16,26.21,26.16l-3.99,3.27c.61.38,1.28.73,1.79.63,1.44-.28,3.69-2.45,4.2-3.01.49-.55,1.4-1.73,1.52-1.89"/>
  <path class="cls-10" d="m194.63,62.88c-.7.81-2.33,3.15-3.7,3.66-.58.21-1.27-.36-1.92-.41l3.4-4.09c-10.58.32-22.51,9.29-23.45,24.24-.11.89-.63,1.48-1.71,1.38-1.14-.11-1.14-.56-1.03-1.72,1.34-14.17,11.68-26.16,26.21-26.16l-3.99-3.27c.61-.38,1.28-.73,1.79-.63,1.44.28,3.69,2.45,4.2,3.01.49.55,1.4,1.73,1.52,1.89"/>
  <path class="cls-10" d="m208.27,126.09c.7-.81,2.33-3.15,3.7-3.66.58-.21,1.27.36,1.92.41l-3.4,4.09c10.58-.32,22.51-9.29,23.45-24.24.11-.89.63-1.48,1.71-1.38,1.14.11,1.14.56,1.03,1.72-1.34,14.17-11.68,26.16-26.21,26.16l3.99,3.27c-.61.38-1.28.73-1.79.63-1.44-.28-3.69-2.45-4.2-3.01-.49-.55-1.4-1.73-1.52-1.89"/>
  <path class="cls-7" d="m208.27,62.88c.7.81,2.33,3.15,3.7,3.66.58.21,1.27-.36,1.92-.41l-3.4-4.09c10.58.32,22.51,9.29,23.45,24.24.11.89.63,1.48,1.71,1.38,1.14-.11,1.14-.56,1.03-1.72-1.34-14.17-11.68-26.16-26.21-26.16l3.99-3.27c-.61-.38-1.28-.73-1.79-.63-1.44.28-3.69,2.45-4.2,3.01-.49.55-1.4,1.73-1.52,1.89"/>
  <path class="cls-10" d="m265.09,108.23s.04,1.8-1.15,1.99c-1.7.27-6.74-.11-6.74-.11,0,0-.63-5.68-.42-7.05.18-1.2,1.92-.49,1.92-.49l.44,4.14c12.45-12.52,12.21-17.12-1.89-30.73-.39-.26.3-1.3.46-1.55s.85-.47,1.25-.22c15.47,14.79,15.31,21.29,1.59,33.93"/>
  <path class="cls-10" d="m265.91,67.05c1.02.34,3.24,1.35,4.6.82.57-.23.84-.78,1.07-1.49l-4.77-1.21c13.24-8.4,25.57,6.94,16.52,18.81-.55.71-.52,1.72.05,2.09.5.32,1.15.44,1.84-.5,10.81-14.82-4.82-31.95-19.6-22.42l1.34-4.49c-.86-.19-1.12-.43-1.87.31-.66.65-1.7,3.35-1.81,4.54-.15,1.62-.14,2.18-.12,2.37"/>
  <path class="cls-7" d="m297.43,75.89s1.8.04,1.99-1.15c.27-1.7-.11-6.74-.11-6.74,0,0-5.68-.63-7.05-.42-1.2.18-.49,1.92-.49,1.92l4.14.44c-12.52,12.45-17.12,12.21-30.73-1.89-.26-.39-1.3.3-1.55.46s-.47.85-.22,1.25c14.79,15.47,21.29,15.31,33.93,1.59"/>
  <path class="cls-10" d="m301.46,121.92c-1.02-.34-3.24-1.35-4.6-.82-.57.23-.84.78-1.07,1.49l4.77,1.21c-13.24,8.4-25.57-6.94-16.52-18.81.55-.71.52-1.72-.05-2.09-.5-.32-1.15-.44-1.84.5-10.81,14.82,4.82,31.95,19.6,22.42l-1.34,4.49c.86.19,1.12.43,1.87-.31.66-.65,1.7-3.35,1.81-4.54.15-1.62.14-2.18.12-2.37"/>
  <path class="cls-7" d="m269.94,113.08s-1.8-.04-1.99,1.15c-.27,1.7.11,6.74.11,6.74,0,0,5.68.63,7.05.42,1.2-.18.49-1.92.49-1.92l-4.14-.44c12.52-12.45,17.12-12.21,30.73,1.89.26.39,1.3-.3,1.55-.46s.47-.85.22-1.25c-14.79-15.47-21.29-15.31-33.93-1.59"/>
  <path class="cls-7" d="m311.12,112.26c-.34-1.02-1.35-3.24-.82-4.6.23-.57.78-.84,1.49-1.07l1.21,4.77c8.4-13.24-6.94-25.57-18.81-16.52-.71.55-1.72.52-2.09-.05-.32-.5-.44-1.15.5-1.84,14.82-10.81,31.95,4.82,22.42,19.6l4.49-1.34c.19.86.43,1.12-.31,1.87-.65.66-3.35,1.7-4.54,1.81-1.62.15-2.18.14-2.37.12"/>
  <path class="cls-10" d="m302.28,80.74s-.04-1.8,1.15-1.99c1.7-.27,6.74.11,6.74.11,0,0,.63,5.68.42,7.05-.18,1.2-1.92.49-1.92.49l-.44-4.14c-12.45,12.52-12.21,17.12,1.89,30.73.39.26-.3,1.3-.46,1.55s-.85.47-1.25.22c-15.47-14.79-15.31-21.29-1.59-33.93"/>
  <path class="cls-7" d="m294.65,675.41c.81.7,3.15,2.33,3.66,3.7.21.58-.36,1.27-.41,1.92l-4.09-3.4v31.13c0,.63-.51,1.14-1.14,1.14h0c-.63,0-1.14-.51-1.14-1.14l.02-31.15-3.27,3.99c-.38-.61-.73-1.28-.63-1.79.28-1.44,2.45-3.69,3.01-4.2s1.73-1.4,1.89-1.52"/>
  <path class="cls-7" d="m272.72,708.45c-.81-.7-3.15-2.33-3.66-3.7-.21-.58.36-1.27.41-1.92l4.09,3.4v-31.13c0-.63.51-1.14,1.14-1.14h0c.63,0,1.14.51,1.14,1.14l-.02,31.15,3.27-3.99c.38.61.73,1.28.63,1.79-.28,1.44-2.45,3.69-3.01,4.2-.55.49-1.73,1.4-1.89,1.52"/>
  <path class="cls-10" d="m300.21,702.9c-.7.81-2.33,3.15-3.7,3.66-.58.21-1.27-.36-1.92-.41l3.4-4.09h-31.13c-.63,0-1.14-.51-1.14-1.14h0c0-.63.51-1.14,1.14-1.14l31.15.02-3.99-3.27c.61-.38,1.28-.73,1.79-.63,1.44.28,3.69,2.45,4.2,3.01.49.55,1.4,1.73,1.52,1.89"/>
  <path class="cls-10" d="m267.16,680.96c.7-.81,2.33-3.15,3.7-3.66.58-.21,1.27.36,1.92.41l-3.4,4.09h31.13c.63,0,1.14.51,1.14,1.14h0c0,.63-.51,1.14-1.14,1.14l-31.15-.02,3.99,3.27c-.61.38-1.28.73-1.79.63-1.44-.28-3.69-2.45-4.2-3.01-.49-.55-1.4-1.73-1.52-1.89"/>
  <g>
    <path class="cls-6" d="m201.45,693.18c1.61,0,1.61-2.5,0-2.5s-1.61,2.5,0,2.5h0Z"/>
    <g>
      <path class="cls-6" d="m175.95,719.93c3.22,0,3.22-5,0-5s-3.22,5,0,5h0Z"/>
      <path class="cls-6" d="m226.95,719.93c3.22,0,3.22-5,0-5s-3.22,5,0,5h0Z"/>
      <path class="cls-6" d="m226.95,668.93c3.22,0,3.22-5,0-5s-3.22,5,0,5h0Z"/>
      <path class="cls-6" d="m175.95,668.93c3.22,0,3.22-5,0-5s-3.22,5,0,5h0Z"/>
    </g>
  </g>
  <g>
    <path class="cls-6" d="m283.68,693.18c1.61,0,1.61-2.5,0-2.5s-1.61,2.5,0,2.5h0Z"/>
    <g>
      <path class="cls-6" d="m319.75,694.43c3.22,0,3.22-5,0-5s-3.22,5,0,5h0Z"/>
      <path class="cls-6" d="m283.68,730.49c3.22,0,3.22-5,0-5s-3.22,5,0,5h0Z"/>
      <path class="cls-6" d="m247.62,694.43c3.22,0,3.22-5,0-5s-3.22,5,0,5h0Z"/>
      <path class="cls-6" d="m283.68,658.37c3.22,0,3.22-5,0-5s-3.22,5,0,5h0Z"/>
    </g>
  </g>
  <g>
    <path class="cls-6" d="m365.92,693.25c1.61,0,1.61-2.5,0-2.5s-1.61,2.5,0,2.5h0Z"/>
    <g>
      <path class="cls-6" d="m391.42,720c3.22,0,3.22-5,0-5s-3.22,5,0,5h0Z"/>
      <path class="cls-6" d="m391.42,669c3.22,0,3.22-5,0-5s-3.22,5,0,5h0Z"/>
      <path class="cls-6" d="m340.42,669c3.22,0,3.22-5,0-5s-3.22,5,0,5h0Z"/>
      <path class="cls-6" d="m340.42,720c3.22,0,3.22-5,0-5s-3.22,5,0,5h0Z"/>
    </g>
  </g>
  <g>
    <path class="cls-6" d="m448.15,693.25c1.61,0,1.61-2.5,0-2.5s-1.61,2.5,0,2.5h0Z"/>
    <g>
      <path class="cls-6" d="m484.21,694.5c3.22,0,3.22-5,0-5s-3.22,5,0,5h0Z"/>
      <path class="cls-6" d="m448.15,730.57c3.22,0,3.22-5,0-5s-3.22,5,0,5h0Z"/>
      <path class="cls-6" d="m412.09,694.5c3.22,0,3.22-5,0-5s-3.22,5,0,5h0Z"/>
      <path class="cls-6" d="m448.15,658.44c3.22,0,3.22-5,0-5s-3.22,5,0,5h0Z"/>
    </g>
  </g>
  <rect class="cls-10" x="174.28" y="702.49" width="29.95" height="3.08" rx="1.17" ry="1.17" transform="translate(820.9 1068.02) rotate(135)"/>
  <rect class="cls-7" x="198.75" y="702.56" width="29.95" height="3.08" rx="1.17" ry="1.17" transform="translate(560.47 55.1) rotate(45)"/>
  <rect class="cls-10" x="198.67" y="678.3" width="29.95" height="3.08" rx="1.17" ry="1.17" transform="translate(-418.14 350.19) rotate(-45)"/>
  <rect class="cls-7" x="174.2" y="678.22" width="29.95" height="3.08" rx="1.17" ry="1.17" transform="translate(-157.71 1294.19) rotate(-135)"/>
  <rect class="cls-10" x="363.03" y="702.66" width="29.95" height="3.08" rx="1.17" ry="1.17" transform="translate(608.66 -61.04) rotate(45)"/>
  <rect class="cls-7" x="363.11" y="678.19" width="29.95" height="3.08" rx="1.17" ry="1.17" transform="translate(-369.9 466.44) rotate(-45)"/>
  <rect class="cls-10" x="338.85" y="678.27" width="29.95" height="3.08" rx="1.17" ry="1.17" transform="translate(123.32 1410.69) rotate(-135)"/>
  <rect class="cls-7" x="338.77" y="702.74" width="29.95" height="3.08" rx="1.17" ry="1.17" transform="translate(1101.88 952.14) rotate(135)"/>
  <rect class="cls-10" x="433.02" y="707.64" width="29.95" height="3.08" rx="1.17" ry="1.17" transform="translate(1157.18 261.18) rotate(90)"/>
  <rect class="cls-7" x="450.38" y="690.39" width="29.95" height="3.08" rx="1.17" ry="1.17"/>
  <rect class="cls-10" x="433.17" y="673.29" width="29.95" height="3.08" rx="1.17" ry="1.17" transform="translate(-226.68 1122.98) rotate(-90)"/>
  <rect class="cls-7" x="415.81" y="690.54" width="29.95" height="3.08" rx="1.17" ry="1.17" transform="translate(861.58 1384.15) rotate(-180)"/>
  <rect class="cls-10" x="285.88" y="690.32" width="29.95" height="3.08" rx="1.17" ry="1.17"/>
  <rect class="cls-7" x="268.64" y="707.68" width="29.95" height="3.08" rx="1.17" ry="1.17" transform="translate(992.83 425.6) rotate(90)"/>
  <rect class="cls-10" x="251.53" y="690.47" width="29.95" height="3.08" rx="1.17" ry="1.17" transform="translate(533.02 1384.01) rotate(180)"/>
  <rect class="cls-7" x="268.78" y="673.11" width="29.95" height="3.08" rx="1.17" ry="1.17" transform="translate(-390.89 958.4) rotate(-90)"/>
  <path class="cls-10" d="m181.01,721.91c3.36-3.36,3.94-4.45,6.94-4.45,3,0,5.07,2.62,5.77,3.53.75-1.01,2.96-3.94,5.86-3.93,2.82,0,4.64,2.9,5.33,3.93.58-.88,2.29-3.19,4.81-3.54,2.81-.39,5.42,1.24,8.01,3.85l-.1-4.85.33.09c.61.15,1.21.34,1.49.77.54.82-.02,7.65-.02,7.65,0,0-6.77.25-7.36.05-.54-.18-.94-1.21-1.06-1.65l-.06-.35h.35c.16,0,2.98.23,4.77.05-.27-.3-1.11-1-1.37-1.25-1.73-1.59-3.49-2.45-4.92-2.07-1.74.44-3.16,2.59-4.25,5.76l-.25.75-.3-.74c-.03-.06-2.49-5.98-5.59-5.96-1.79,0-3.52,2.01-5.11,5.96l-.23.55-.3-.5c-1.37-2.22-3.48-5.91-5.96-5.71-2.48.2-4.34,2.87-4.97,3.56-.63.7-1.32.89-1.93.34-.61-.55-.62-1.1.13-1.84Z"/>
  <path class="cls-7" d="m231.43,671.49c-3.36,3.36-4.45,3.94-4.45,6.94s2.62,5.07,3.53,5.77c-1.01.75-3.94,2.96-3.93,5.86,0,2.82,2.9,4.64,3.93,5.33-.88.58-3.19,2.29-3.54,4.81-.39,2.81,1.24,5.42,3.85,8.01l-4.85-.1.09.33c.15.61.34,1.21.77,1.49.82.54,7.65-.02,7.65-.02,0,0,.25-6.77.05-7.36-.18-.54-1.21-.94-1.65-1.06l-.35-.06v.35c0,.16.23,2.98.05,4.77-.3-.27-1-1.11-1.25-1.37-1.59-1.73-2.45-3.49-2.07-4.92.44-1.74,2.59-3.16,5.76-4.25l.75-.25-.74-.3c-.06-.03-5.98-2.49-5.96-5.59,0-1.79,2.01-3.52,5.96-5.11l.55-.23-.5-.3c-2.22-1.37-5.91-3.48-5.71-5.96.2-2.48,2.87-4.34,3.56-4.97s.89-1.32.34-1.93c-.55-.61-1.1-.62-1.84.13Z"/>
  <path class="cls-7" d="m231.43,671.49c-3.36,3.36-4.45,3.94-4.45,6.94,0,3,2.62,5.07,3.53,5.77-1.01.75-3.94,2.96-3.93,5.86,0,2.82,2.9,4.64,3.93,5.33-.88.58-3.19,2.29-3.54,4.81-.39,2.81,1.24,5.42,3.85,8.01l-4.85-.1.09.33c.15.61.34,1.21.77,1.49.82.54,7.65-.02,7.65-.02,0,0,.25-6.77.05-7.36-.18-.54-1.21-.94-1.65-1.06l-.35-.06v.35c0,.16.23,2.98.05,4.77-.3-.27-1-1.11-1.25-1.37-1.59-1.73-2.45-3.49-2.07-4.92.44-1.74,2.59-3.16,5.76-4.25l.75-.25-.74-.3c-.06-.03-5.98-2.49-5.96-5.59,0-1.79,2.01-3.52,5.96-5.11l.55-.23-.5-.3c-2.22-1.37-5.91-3.48-5.71-5.96s2.87-4.34,3.56-4.97.89-1.32.34-1.93c-.55-.61-1.1-.62-1.84.13Z"/>
  <path class="cls-10" d="m181.01,721.91c3.36-3.36,3.94-4.45,6.94-4.45s5.07,2.62,5.77,3.53c.75-1.01,2.96-3.94,5.86-3.93,2.82,0,4.64,2.9,5.33,3.93.58-.88,2.29-3.19,4.81-3.54,2.81-.39,5.42,1.24,8.01,3.85l-.1-4.85.33.09c.61.15,1.21.34,1.49.77.54.82-.02,7.65-.02,7.65,0,0-6.77.25-7.36.05-.54-.18-.94-1.21-1.06-1.65l-.06-.35h.35c.16,0,2.98.23,4.77.05-.27-.3-1.11-1-1.37-1.25-1.73-1.59-3.49-2.45-4.92-2.07-1.74.44-3.16,2.59-4.25,5.76l-.25.75-.3-.74c-.03-.06-2.49-5.98-5.59-5.96-1.79,0-3.52,2.01-5.11,5.96l-.23.55-.3-.5c-1.37-2.22-3.48-5.91-5.96-5.71s-4.34,2.87-4.97,3.56c-.63.7-1.32.89-1.93.34s-.62-1.1.13-1.84Z"/>
  <path class="cls-10" d="m221.89,661.95c-3.36,3.36-3.94,4.45-6.94,4.45-3,0-5.07-2.62-5.77-3.53-.75,1.01-2.96,3.94-5.86,3.93-2.82,0-4.64-2.9-5.33-3.93-.58.88-2.29,3.19-4.81,3.54-2.81.39-5.42-1.24-8.01-3.85l.1,4.85-.33-.09c-.61-.15-1.21-.34-1.49-.77-.54-.82.02-7.65.02-7.65,0,0,6.77-.25,7.36-.05.54.18.94,1.21,1.06,1.65l.06.35h-.35c-.16,0-2.98-.23-4.77-.05.27.3,1.11,1,1.37,1.25,1.73,1.59,3.49,2.45,4.92,2.07,1.74-.44,3.16-2.59,4.25-5.76l.25-.75.3.74c.03.06,2.49,5.98,5.59,5.96,1.79,0,3.52-2.01,5.11-5.96l.23-.55.3.5c1.37,2.22,3.48,5.91,5.96,5.71,2.48-.2,4.34-2.87,4.97-3.56s1.32-.89,1.93-.34c.61.55.62,1.1-.13,1.84Z"/>
  <path class="cls-7" d="m171.47,712.37c3.36-3.36,4.45-3.94,4.45-6.94,0-3-2.62-5.07-3.53-5.77,1.01-.75,3.94-2.96,3.93-5.86,0-2.82-2.9-4.64-3.93-5.33.88-.58,3.19-2.29,3.54-4.81.39-2.81-1.24-5.42-3.85-8.01l4.85.1-.09-.33c-.15-.61-.34-1.21-.77-1.49-.82-.54-7.65.02-7.65.02,0,0-.25,6.77-.05,7.36.18.54,1.21.94,1.65,1.06l.35.06v-.35c0-.16-.23-2.98-.05-4.77.3.27,1,1.11,1.25,1.37,1.59,1.73,2.45,3.49,2.07,4.92-.44,1.74-2.59,3.16-5.76,4.25l-.75.25.74.3c.06.03,5.98,2.49,5.96,5.59,0,1.79-2.01,3.52-5.96,5.11l-.55.23.5.3c2.22,1.37,5.91,3.48,5.71,5.96s-2.87,4.34-3.56,4.97c-.7.63-.89,1.32-.34,1.93s1.1.62,1.84-.13Z"/>
  <path class="cls-10" d="m351.48,710.89s-1.6-.33-1.76.87c-.23,1.71.4,6.93.4,6.93,0,0,6.25.59,7.54.1.57-.22-.09-1.77-.09-1.77l-4.12-.44c6.43-7.82,9.87-3.77,14.02,3.27,2.69-6.14,6.92-13.13,17.01-2.48.64.53,1.14.28,1.34.08s.43-.88-.07-1.43c-6.44-7.57-13.64-8.9-18.41-.86-6.12-6.27-8.52-6.93-15.5-.2"/>
  <path class="cls-7" d="m347.13,706.55s.33,1.6-.87,1.76c-1.71.23-6.93-.4-6.93-.4,0,0-.59-6.25-.1-7.54.22-.57,1.77.09,1.77.09l.44,4.12c7.82-6.43,3.77-9.87-3.27-14.02,6.14-2.69,13.13-6.92,2.48-17.01-.53-.64-.28-1.14-.08-1.34s.88-.43,1.43.07c7.57,6.44,8.9,13.64.86,18.41,6.27,6.12,6.93,8.52.2,15.5"/>
  <path class="cls-7" d="m384.81,677.56s-.33-1.6.87-1.76c1.71-.23,6.93.4,6.93.4,0,0,.59,6.25.1,7.54-.22.57-1.77-.09-1.77-.09l-.44-4.12c-7.82,6.43-3.77,9.87,3.27,14.02-6.14,2.69-13.13,6.92-2.48,17.01.53.64.28,1.14.08,1.34s-.88.43-1.43-.07c-7.57-6.44-8.9-13.64-.86-18.41-6.27-6.12-6.93-8.52-.2-15.5"/>
  <path class="cls-10" d="m380.46,673.21s1.6.33,1.76-.87c.23-1.71-.4-6.93-.4-6.93,0,0-6.25-.59-7.54-.1-.57.22.09,1.77.09,1.77l4.12.44c-6.43,7.82-9.87,3.77-14.02-3.27-2.69,6.14-6.92,13.13-17.01,2.48-.64-.53-1.14-.28-1.34-.08s-.43.88.07,1.43c6.44,7.57,13.64,8.9,18.41.86,6.12,6.27,8.52,6.93,15.5.2"/>
  <path class="cls-7" d="m441.32,660.04c-.48.96-1.33,3.25-2.67,3.83-.56.24-1.14.05-1.81-.3l2.52-4.23c-15.3,3.42-13.17,22.99,1.62,24.98.89.11,1.58.85,1.44,1.51-.13.58-.5,1.13-1.66.95-18.13-2.84-19.19-26-1.99-29.71l-4.12-2.23c.48-.74.49-1.1,1.54-1.1.93,0,3.57,1.17,4.49,1.93,1.25,1.04,1.64,1.44,1.76,1.59"/>
  <path class="cls-7" d="m317.69,697.62c.01-.4-.19-1.21-1.07-1.33-.06,0-.11-.01-.15-.01-.77,0-1.17.77-1.28,1.21-.45,8.22-2.95,12.64-7.88,13.94.18-2.37-1.21-5.03-3.32-6.22-1.71-.96-3.55-.76-5.05.53-1.42,1.41-1.74,3.18-.89,4.89,1.11,2.22,3.91,3.78,6.39,3.62-1.39,5.4-8.5,7.14-11.57,7.65l-1.95.17,3.06-3.74-.32-.15c-.56-.27-1.14-.51-1.63-.38-.88.26-1.99,1.8-3.07,3.44-.14.21-.25.38-.31.46-.28.37-.72,1.07-.94,1.4l-.24.36.88,1.04c.26.3,3.57,3.78,4.41,4.01.42.12.95-.09,1.6-.64l.28-.24-.3-.23c-.12-.11-2.08-1.71-3.27-2.99l1.77-.14c5.87-.65,13.07-3.75,14.25-10.3,7.16-.88,10.75-8.85,10.58-16.36Zm-13.44,14.19c-2.1,0-3.33-1.06-3.82-2.15-.4-.93-.43-1.77.12-2.25.63-.52,1.85-.44,3.14.41.93.88,1.27,2,1.22,3.95-.24.02-.45.04-.66.04Z"/>
  <path class="cls-10" d="m278,725.93c.4.01,1.21-.19,1.33-1.07,0-.06.01-.11.01-.15,0-.77-.77-1.17-1.21-1.28-8.22-.45-12.64-2.95-13.94-7.88,2.37.18,5.03-1.21,6.22-3.32.96-1.71.76-3.55-.53-5.05-1.41-1.42-3.18-1.74-4.89-.89-2.22,1.11-3.78,3.91-3.62,6.39-5.4-1.39-7.14-8.5-7.65-11.57l-.17-1.95,3.74,3.06.15-.32c.27-.56.51-1.14.38-1.63-.26-.88-1.8-1.99-3.44-3.07-.21-.14-.38-.25-.46-.31-.37-.28-1.07-.72-1.4-.94l-.36-.24-1.04.88c-.3.26-3.78,3.57-4.01,4.41-.12.42.09.95.64,1.6l.24.28.23-.3c.11-.12,1.71-2.08,2.99-3.27l.14,1.77c.65,5.87,3.75,13.07,10.3,14.25.88,7.16,8.85,10.75,16.36,10.58Zm-14.19-13.44c0-2.1,1.06-3.33,2.15-3.82.93-.4,1.77-.43,2.25.12.52.63.44,1.85-.41,3.14-.88.93-2,1.27-3.95,1.22-.02-.24-.04-.45-.04-.66Z"/>
  <path class="cls-7" d="m249.68,686.24c-.01.4.19,1.21,1.07,1.33.06,0,.11.01.15.01.77,0,1.17-.77,1.28-1.21.45-8.22,2.95-12.64,7.88-13.94-.18,2.37,1.21,5.03,3.32,6.22,1.71.96,3.55.76,5.05-.53,1.42-1.41,1.74-3.18.89-4.89-1.11-2.22-3.91-3.78-6.39-3.62,1.39-5.4,8.5-7.14,11.57-7.65l1.95-.17-3.06,3.74.32.15c.56.27,1.14.51,1.63.38.88-.26,1.99-1.8,3.07-3.44.14-.21.25-.38.31-.46.28-.37.72-1.07.94-1.4l.24-.36-.88-1.04c-.26-.3-3.57-3.78-4.41-4.01-.42-.12-.95.09-1.6.64l-.28.24.3.23c.12.11,2.08,1.71,3.27,2.99l-1.77.14c-5.87.65-13.07,3.75-14.25,10.3-7.16.88-10.75,8.85-10.58,16.36Zm13.44-14.19c2.1,0,3.33,1.06,3.82,2.15.4.93.43,1.77-.12,2.25-.63.52-1.85.44-3.14-.41-.93-.88-1.27-2-1.22-3.95.24-.02.45-.04.66-.04Z"/>
  <path class="cls-10" d="m289.37,657.93c-.4-.01-1.21.19-1.33,1.07,0,.06-.01.11-.01.15,0,.77.77,1.17,1.21,1.28,8.22.45,12.64,2.95,13.94,7.88-2.37-.18-5.03,1.21-6.22,3.32-.96,1.71-.76,3.55.53,5.05,1.41,1.42,3.18,1.74,4.89.89,2.22-1.11,3.78-3.91,3.62-6.39,5.4,1.39,7.14,8.5,7.65,11.57l.17,1.95-3.74-3.06-.15.32c-.27.56-.51,1.14-.38,1.63.26.88,1.8,1.99,3.44,3.07.21.14.38.25.46.31.37.28,1.07.72,1.4.94l.36.24,1.04-.88c.3-.26,3.78-3.57,4.01-4.41.12-.42-.09-.95-.64-1.6l-.24-.28-.23.3c-.11.12-1.71,2.08-2.99,3.27l-.14-1.77c-.65-5.87-3.75-13.07-10.3-14.25-.88-7.16-8.85-10.75-16.36-10.58Zm14.19,13.44c0,2.1-1.06,3.33-2.15,3.82-.93.4-1.77.43-2.25-.12-.52-.63-.44-1.85.41-3.14.88-.93,2-1.27,3.95-1.22.02.24.04.45.04.66Z"/>
  <path class="cls-10" d="m204.09,704.94c-1.13,1.19-1.08,1.37-1.33,2.32-.16.59-.05,1.23.55,1.78l2.88-3.08c.97,15.26-18.09-1.03-25.02-29.88-.16-.98-.93-1.64-1.57-1.54-.38.04-1.35.51-1.07,1.65,9.26,36.8,31.66,48.09,29.77,29.9l3.52,2.57c.1-.71.35-1.65.06-2.08-.83-1.21-1.92-1.97-2.56-2.39-.67-.45-2.11-1.57-2.3-1.62"/>
  <path class="cls-7" d="m198.81,678.93c1.13-1.19,1.08-1.37,1.33-2.32.16-.59.05-1.23-.55-1.78l-2.88,3.08c-.97-15.26,18.09,1.03,25.02,29.88.16.98.93,1.64,1.57,1.54.38-.04,1.35-.51,1.07-1.65-9.26-36.8-31.66-48.09-29.77-29.9l-3.52-2.57c-.1.71-.35,1.65-.06,2.08.83,1.21,1.92,1.97,2.56,2.39.67.45,2.11,1.57,2.3,1.62"/>
  <path class="cls-10" d="m214.46,694.57c1.19-1.13,1.37-1.08,2.32-1.33.59-.16,1.23-.05,1.78.55l-3.08,2.88c15.26.97-1.03-18.09-29.88-25.02-.98-.16-1.64-.93-1.54-1.57.04-.38.51-1.35,1.65-1.07,36.8,9.26,48.09,31.66,29.9,29.77l2.57,3.52c-.71.1-1.65.35-2.08.06-1.21-.83-1.97-1.92-2.39-2.56-.45-.67-1.57-2.11-1.62-2.3"/>
  <path class="cls-7" d="m188.45,689.29c-1.19,1.13-1.37,1.08-2.32,1.33-.59.16-1.23.05-1.78-.55l3.08-2.88c-15.26-.97,1.03,18.09,29.88,25.02.98.16,1.64.93,1.54,1.57-.04.38-.51,1.35-1.65,1.07-36.8-9.26-48.09-31.66-29.9-29.77l-2.57-3.52c.71-.1,1.65-.35,2.08-.06,1.21.83,1.97,1.92,2.39,2.56.45.67,1.57,2.11,1.62,2.3"/>
  <path class="cls-7" d="m383.44,719.17c-1.07-.08-3.88-.58-5.21.03-.56.26-.64,1.15-1.07,1.65l5.3.49c-7.71,7.26-22.48,9.35-33.72-.56-.71-.55-1.49-.6-2.18.24-.73.88-.41,1.2.49,1.95,10.97,9.07,26.76,10.23,37.03-.04l-.51,5.14c.7-.17,1.42-.39,1.71-.82.82-1.22.88-4.34.84-5.1-.04-.73-.23-2.21-.26-2.4"/>
  <path class="cls-10" d="m338.75,674.48c.08,1.07.58,3.88-.03,5.21-.26.56-1.15.64-1.65,1.07l-.49-5.3c-7.26,7.71-9.35,22.48.56,33.72.55.71.6,1.49-.24,2.18-.88.73-1.2.41-1.95-.49-9.07-10.97-10.23-26.76.04-37.03l-5.14.51c.17-.7.39-1.42.82-1.71,1.22-.82,4.34-.88,5.1-.84.73.04,2.21.23,2.4.26"/>
  <path class="cls-10" d="m393.09,709.53c-.08-1.07-.58-3.88.03-5.21.26-.56,1.15-.64,1.65-1.07l.49,5.3c7.26-7.71,9.35-22.48-.56-33.72-.55-.71-.6-1.49.24-2.18.88-.73,1.2-.41,1.95.49,9.07,10.97,10.23,26.76-.04,37.03l5.14-.51c-.17.7-.39,1.42-.82,1.71-1.22.82-4.34.88-5.1.84s-2.21-.23-2.4-.26"/>
  <path class="cls-7" d="m348.39,664.83c1.07.08,3.88.58,5.21-.03.56-.26.64-1.15,1.07-1.65l-5.3-.49c7.71-7.26,22.48-9.35,33.72.56.71.55,1.49.6,2.18-.24.73-.88.41-1.2-.49-1.95-10.97-9.07-26.76-10.23-37.03.04l.51-5.14c-.7.17-1.42.39-1.71.82-.82,1.22-.88,4.34-.84,5.1s.23,2.21.26,2.4"/>
  <path class="cls-10" d="m425.28,688.57s-1.24,1.3-2.22.59c-1.4-1.01-4.69-4.84-4.69-4.84,0,0,3.57-4.47,4.68-5.28.98-.72,1.7,1.02,1.7,1.02l-2.62,3.24c17.65-.05,20.74-3.47,20.39-23.07-.09-.46,1.13-.7,1.42-.77s.93.26,1.04.73c.48,21.39-4.23,25.88-22.87,25.11"/>
  <path class="cls-10" d="m454.98,660.04c.48.96,1.33,3.25,2.67,3.83.56.24,1.14.05,1.81-.3l-2.52-4.23c15.3,3.42,13.17,22.99-1.62,24.98-.89.11-1.58.85-1.44,1.51.13.58.5,1.13,1.66.95,18.13-2.84,19.19-26,1.99-29.71l4.12-2.23c-.48-.74-.49-1.1-1.54-1.1-.93,0-3.57,1.17-4.49,1.93-1.25,1.04-1.64,1.44-1.76,1.59"/>
  <path class="cls-7" d="m471.02,688.57s1.24,1.3,2.22.59c1.4-1.01,4.69-4.84,4.69-4.84,0,0-3.57-4.47-4.68-5.28-.98-.72-1.7,1.02-1.7,1.02l2.62,3.24c-17.65-.05-20.74-3.47-20.39-23.07.09-.46-1.13-.7-1.42-.77s-.93.26-1.04.73c-.48,21.39,4.23,25.88,22.87,25.11"/>
  <path class="cls-10" d="m441.32,723.97c-.48-.96-1.33-3.25-2.67-3.83-.56-.24-1.14-.05-1.81.3l2.52,4.23c-15.3-3.42-13.17-22.99,1.62-24.98.89-.11,1.58-.85,1.44-1.51-.13-.58-.5-1.13-1.66-.95-18.13,2.84-19.19,26-1.99,29.71l-4.12,2.23c.48.74.49,1.1,1.54,1.1.93,0,3.57-1.17,4.49-1.93,1.25-1.04,1.64-1.44,1.76-1.59"/>
  <path class="cls-7" d="m425.28,695.43s-1.24-1.3-2.22-.59c-1.4,1.01-4.69,4.84-4.69,4.84,0,0,3.57,4.47,4.68,5.28.98.72,1.7-1.02,1.7-1.02l-2.62-3.24c17.65.05,20.74,3.47,20.39,23.07-.09.46,1.13.7,1.42.77s.93-.26,1.04-.73c.48-21.39-4.23-25.88-22.87-25.11"/>
  <path class="cls-7" d="m454.98,723.97c.48-.96,1.33-3.25,2.67-3.83.56-.24,1.14-.05,1.81.3l-2.52,4.23c15.3-3.42,13.17-22.99-1.62-24.98-.89-.11-1.58-.85-1.44-1.51.13-.58.5-1.13,1.66-.95,18.13,2.84,19.19,26,1.99,29.71l4.12,2.23c-.48.74-.49,1.1-1.54,1.1-.93,0-3.57-1.17-4.49-1.93-1.25-1.04-1.64-1.44-1.76-1.59"/>
  <path class="cls-10" d="m471.02,695.43s1.24-1.3,2.22-.59c1.4,1.01,4.69,4.84,4.69,4.84,0,0-3.57,4.47-4.68,5.28-.98.72-1.7-1.02-1.7-1.02l2.62-3.24c-17.65.05-20.74,3.47-20.39,23.07.09.46-1.13.7-1.42.77s-.93-.26-1.04-.73c-.48-21.39,4.23-25.88,22.87-25.11"/>
  <text class="cls-4" transform="translate(285.8 220.72)"><tspan x="0" y="0">2.2</tspan></text>
  <text class="cls-3" transform="translate(252.26 346.86)"><tspan x="0" y="0">Staggers</tspan></text>
  <line class="cls-1" x1="324.8" y1="531.57" x2="324.8" y2="640.69"/>
  <text class="cls-8" transform="translate(205.99 510.73)"><tspan class="cls-9" x="0" y="0">Shift </tspan><tspan class="cls-6" x="68.61" y="0">↔ </tspan><tspan class="cls-2" x="102.85" y="0">Dual</tspan><tspan class="cls-5" x="166.74" y="0">-</tspan><tspan class="cls-9" x="175.62" y="0">Shift</tspan></text>
  <text class="cls-8" transform="translate(243.62 474.49)"><tspan class="cls-9" x="0" y="0">Shift </tspan><tspan class="cls-6" x="68.61" y="0">→ </tspan><tspan class="cls-9" x="100.36" y="0">Shift</tspan></text>
  <path class="cls-7" d="m116.4,367.75c22.27,5.66,24.17,17.57,24.17,51.19,0,3.34-4.97,3.43-4.82,0,1.49-40.34-9.02-48.46-39.94-48.84v6.62c0,1.42-.51,2.33-1.93,2.33s-2.06-.91-2.06-2.33v-18.24c0-1.39.67-2.36,2.06-2.36,1.42,0,1.93.97,1.93,2.36v6.26c30.89-.43,40.9-8.98,39.67-43.06l-6.79,6.96s-2.78-2.66-1.22-4.75c1.78-2.42,10.42-10.15,10.42-10.15,0,0,8.26,7.13,10.46,10.15,1.54,2.09-1.27,4.75-1.27,4.75l-7.08-6.96c0,25.46-.98,38.9-23.59,46.06Z"/>
  <path class="cls-10" d="m488.63,438.1c42.5,0,64.2-32.5,65.5-65.04h6.62c1.39,0,2.54-.57,2.54-1.98,0-1.39-1.15-2-2.54-2h-6.6c-.82-32.26-21.7-64.06-62.3-64.06l6.34-6.26s-2.52-2.62-4.49-1.2c-2.83,2.06-9.48,9.82-9.48,9.82,0,0,7.22,8.11,9.48,9.74,1.97,1.46,4.49-1.13,4.49-1.13l-6.34-6.36c36.96,0,56.35,29.57,57.19,59.45h-6.53c-1.42,0-2.57.61-2.57,2,0,1.42,1.15,1.98,2.57,1.98h6.48c-1.27,29.9-21.22,59.69-60.82,59.69-3.02,0-2.71,5.35.46,5.35Z"/>
  <path class="cls-10" d="m406.59,314.11c-2.28-1.54-9.79-9.43-9.79-9.43,0,0,6.38-7.94,9.12-10.1,1.92-1.51,4.54,1.06,4.54,1.06l-6.26,6.67c20.66-.07,43.44-16.44,46.54-46.56h-6.7c-1.44,0-2.62-.46-2.62-1.87s1.18-2.11,2.62-2.11h18.14c1.44,0,2.62.67,2.62,2.11s-1.18,1.87-2.62,1.87h-6.31c-1.58,27.26-23.9,51.22-51.19,51.29l6.36,5.81s-2.42,2.66-4.44,1.27Z"/>
  <path class="cls-7" d="m167.37,562.15c44.11-.12,47.08-.32,47.08,53.08,34.42,0,63.24-17.31,63.24-49.97l-6.58,6.96s-2.76-2.64-1.2-4.75c1.78-2.4,10.39-10.13,10.39-10.13,0,0,8.28,7.1,10.49,10.13,1.54,2.11-1.3,4.75-1.3,4.75l-6.65-6.79c0,35.59-32.53,55.56-68.4,55.56,0,1.02,0,9.07,0,9.07,0,1.44-.74,2.62-2.47,2.62s-3.05-.5-3.05-2.62c0-62.61,4.75-63.07-41.56-63.07-3.63,0-3.85-4.82,0-4.83Z"/>
  <path class="cls-10" d="m391.47,628.41c64.96,1.32,80.53-25.24,82.65-58.57.26-4.11-5.25-3.96-5.52.12-2.9,43.74-37,52.76-62,52.76,0-56.07-5.83-52.6-48.64-52.6l6.96-6.82s-2.64-2.83-4.75-1.3c-3.02,2.21-10.13,10.49-10.13,10.49,0,0,7.73,8.62,10.13,10.39,2.11,1.56,4.75-1.2,4.75-1.2l-6.96-6.58c41.52,0,43.58-3.63,43.61,47.61h-10.1c-4.32,0-4.23,5.6,0,5.69Z"/>
  <path class="cls-7" d="m251.33,263.14s-6.65-7.75-9.48-9.79c-1.97-1.44-4.49,1.2-4.49,1.2l6.55,6.38c-44.38,0-48.22,4.32-48.36,48.43h-6.58c-1.44,0-2.62.46-2.62,1.87,0,1.44,1.18,2.11,2.62,2.11h18.14c1.44,0,2.62-.67,2.62-2.11s-1.18-1.87-2.62-1.87h-6.6c.1-41.45,2.76-43.75,43.39-43.75l-6.55,6.14s2.52,2.59,4.49,1.15c2.26-1.66,9.48-9.77,9.48-9.77Z"/>
  <path class="cls-10" d="m437.95,426.7c-.7-20.95-15.43-39.41-39.62-39.41-.96,0-3.17.27-3.17-2.46s3.65-2.65,3.65-2.65c24.25,0,43.5,20.67,43.5,44.52h5.66c0-40.05-21.95-52.39-44.9-52.39l5.9,6.05s-2.52,2.62-4.49,1.2c-2.83-2.06-9.53-9.89-9.53-9.89,0,0,7.08-8.16,9.43-9.77,2.02-1.37,4.58,1.22,4.58,1.22l-5.95,6.17c22.42,0,49.75,11.69,49.75,57.32l2.64.08c1.44,0,2.62,1.08,2.62,2.38,0,1.32-1.18,2.38-2.62,2.38h-20.3c-1.44,0-2.62-1.06-2.62-2.38s1.18-2.38,2.62-2.38h2.86Z"/>
  <path class="cls-7" d="m267.58,413.56s-7.22-8.11-9.48-9.77c-1.97-1.44-4.46,1.15-4.46,1.15l6.53,6.38c-37.15.91-49.39-2.4-49.39-42.05,0-.5-.02-.96-.1-1.39h5.35c1.44,0,2.62-1.06,2.62-2.38s-1.18-2.38-2.62-2.38h-18.14c-1.44,0-2.62,1.08-2.62,2.38s1.18,2.38,2.62,2.38h4.99c-.07.34-.07.67-.07,1.03v15.79h.02c-.77,34.73,9.14,45.98,50.93,45.05,1.13,0,1.92-.96,1.92-2.42,0-1.68-.98-2.57-1.99-2.57-39.72,0-46.58-9.07-46.85-40.44.07.98.24,2.76.24,2.76,4.73,25.46,18.02,30.65,53.09,28.44l-6.53,6.65s2.5,2.62,4.46,1.2c2.83-2.06,9.48-9.82,9.48-9.82Zm-60.74-29.76v.43c-.02-.38-.05-.62,0-.43Z"/>
  <line class="cls-1" x1="324.8" y1="370.82" x2="324.8" y2="444.99"/>
  <line class="cls-1" x1="324.8" y1="242.33" x2="324.8" y2="316.49"/>
  <path class="cls-7" d="m153.82,453.12l6.07,6.42c-51.63,0-50.59,35.04-50.59,58.97,0,.17,0,.35.02.5h-8.09c-1.49,0-2.71,1.12-2.71,2.46,0,1.37,1.22,2.46,2.71,2.46h18.81c50.14.07,51.36.17,51.36-50.99,0-3.56-5.13-3.41-5.13-.12,0,49.37-1.39,45.74-50.09,45.69-.85,0-1.57-.7-1.57-1.57.22-34.14,7.46-52.25,45.26-52.25l-6.07,6.2s2.59,2.74,4.65,1.24c2.76-2.04,9.16-9.41,9.78-10.13-.62-.72-7.02-8.09-9.78-10.13-2.07-1.49-4.65,1.24-4.65,1.24Z"/>
  <path class="cls-10" d="m540.3,524.35c1.37,0,2.46-1.23,2.45-2.72l-.04-12.17c0-2.56-.07-5.05-.18-7.49-1.2-30.35-10.43-51.1-53.67-50.95-3.53.01-3.39,5.14.14,5.13,42.23-.15,48.27,22,48.38,51.54,0,.85-.22,2.04-1.06,2.04-53.62.18-51.83,1.6-51.98-42.77l6.37,6.05s2.73-2.6,1.23-4.66c-2.05-2.75-9.44-9.12-10.16-9.74-.72.62-8.06,7.04-10.09,9.81-1.49,2.07,1.26,4.65,1.26,4.65l6.8-6.09c.17,48.1,2.21,47.87,58.07,47.68l.02,6.99c0,1.49,1.13,2.71,2.47,2.7Z"/>
</svg>