<?xml version="1.0" encoding="UTF-8"?>
<svg id="Layer_1" data-name="Layer 1" xmlns="http://www.w3.org/2000/svg" viewBox="0 0 612 792">
  <defs>
    <style>
      .cls-1, .cls-2, .cls-3 {
        fill: none;
        stroke: #231f20;
        stroke-miterlimit: 10;
      }

      .cls-4 {
        letter-spacing: -.09em;
      }

      .cls-5 {
        letter-spacing: -.03em;
      }

      .cls-5, .cls-6, .cls-7, .cls-8, .cls-9, .cls-10, .cls-11, .cls-12, .cls-13, .cls-14, .cls-15, .cls-16, .cls-17, .cls-18, .cls-19, .cls-20, .cls-21, .cls-22, .cls-23, .cls-24 {
        fill: #231f20;
      }

      .cls-5, .cls-6, .cls-8, .cls-9, .cls-10, .cls-11, .cls-13, .cls-14, .cls-17, .cls-18, .cls-19, .cls-22 {
        font-family: Cambria-Italic, Cambria;
      }

      .cls-25 {
        letter-spacing: -.02em;
      }

      .cls-6, .cls-18, .cls-26 {
        letter-spacing: 0em;
      }

      .cls-7, .cls-10, .cls-27 {
        letter-spacing: -.01em;
      }

      .cls-7, .cls-15, .cls-16, .cls-21 {
        font-family: Cambria, Cambria;
      }

      .cls-8, .cls-10, .cls-11, .cls-14, .cls-18, .cls-28 {
        text-decoration: underline;
      }

      .cls-8, .cls-16, .cls-29 {
        letter-spacing: 0em;
      }

      .cls-30 {
        letter-spacing: -.01em;
      }

      .cls-9, .cls-31 {
        letter-spacing: 0em;
      }

      .cls-32, .cls-33, .cls-28, .cls-23 {
        font-weight: 700;
      }

      .cls-32, .cls-33, .cls-34 {
        fill: #ed1c24;
      }

      .cls-32, .cls-33, .cls-23 {
        font-family: Cambria-Bold, Cambria;
      }

      .cls-35 {
        letter-spacing: -.03em;
      }

      .cls-33, .cls-36 {
        letter-spacing: -.01em;
      }

      .cls-12 {
        font-size: 40px;
      }

      .cls-12, .cls-20 {
        font-family: MonotypeCorsiva, 'Monotype Corsiva';
      }

      .cls-13 {
        letter-spacing: 0em;
      }

      .cls-37 {
        letter-spacing: -.07em;
      }

      .cls-14 {
        letter-spacing: .02em;
      }

      .cls-38, .cls-17, .cls-19 {
        font-style: italic;
      }

      .cls-39, .cls-28 {
        fill: #2e3192;
      }

      .cls-2 {
        stroke-width: 2px;
      }

      .cls-40 {
        letter-spacing: 0em;
      }

      .cls-17, .cls-41 {
        font-size: 15px;
      }

      .cls-28 {
        font-family: Cambria-BoldItalic, Cambria;
      }

      .cls-19 {
        font-size: 16px;
      }

      .cls-42 {
        letter-spacing: -.02em;
      }

      .cls-20 {
        font-size: 25px;
      }

      .cls-21, .cls-43 {
        letter-spacing: -.02em;
      }

      .cls-44 {
        letter-spacing: -.01em;
      }

      .cls-45 {
        letter-spacing: -.08em;
      }

      .cls-46 {
        letter-spacing: -.1em;
      }

      .cls-47 {
        letter-spacing: -.03em;
      }

      .cls-3 {
        stroke-width: .5px;
      }

      .cls-48 {
        letter-spacing: -.01em;
      }

      .cls-49 {
        letter-spacing: -.02em;
      }

      .cls-50 {
        fill: #010101;
      }

      .cls-51 {
        letter-spacing: -.02em;
      }
    </style>
  </defs>
  <text class="cls-12" transform="translate(134.87 40.27)"><tspan x="0" y="0">Reversal | Stagger - Pro</tspan></text>
  <text class="cls-41" transform="translate(73.13 71.2)"><tspan class="cls-23"><tspan class="cls-4" x="0" y="0">Y</tspan><tspan x="7.75" y="0">ou can also add a half life </tspan><tspan class="cls-44" x="183.21" y="0">t</tspan><tspan x="188.48" y="0">o a </tspan><tspan class="cls-47" x="211.66" y="0">d</tspan><tspan class="cls-51" x="220.22" y="0">y</tspan><tspan x="227.86" y="0">adic </tspan><tspan class="cls-36" x="259.89" y="0">r</tspan><tspan class="cls-25" x="266.59" y="0">e</tspan><tspan class="cls-35" x="274.3" y="0">v</tspan><tspan x="281.84" y="0">ersal ar</tspan><tspan class="cls-36" x="334.5" y="0">r</tspan><tspan class="cls-42" x="341.21" y="0">o</tspan><tspan class="cls-45" x="349.43" y="0">w</tspan><tspan x="360.18" y="0">, as sh</tspan><tspan class="cls-42" x="401.01" y="0">o</tspan><tspan x="409.23" y="0">wn he</tspan><tspan class="cls-36" x="450.48" y="0">r</tspan><tspan class="cls-26" x="457.18" y="0">e</tspan><tspan x="464.99" y="0">. </tspan></tspan><tspan class="cls-15" x="-15.89" y="18">Obser</tspan><tspan class="cls-21" x="22.08" y="18">v</tspan><tspan class="cls-15" x="29.35" y="18">e h</tspan><tspan class="cls-16" x="48.24" y="18">o</tspan><tspan class="cls-15" x="56.13" y="18">w the half-line on the non-shifting hand (in </tspan><tspan class="cls-33" x="333.67" y="18">r</tspan><tspan class="cls-32" x="340.37" y="18">ed</tspan><tspan class="cls-15" x="357.29" y="18">) af</tspan><tspan class="cls-7" x="378.19" y="18">f</tspan><tspan class="cls-15" x="382.54" y="18">ects the motion. </tspan><tspan class="cls-38"><tspan class="cls-5" x="-49.33" y="36">F</tspan><tspan class="cls-22" x="-41.9" y="36">or th</tspan><tspan class="cls-13" x="-11.76" y="36">e</tspan><tspan class="cls-22" x="-4.99" y="36">se </tspan><tspan class="cls-9" x="10.9" y="36">e</tspan><tspan class="cls-6" x="17.64" y="36">x</tspan><tspan class="cls-22" x="24.24" y="36">ampl</tspan><tspan class="cls-13" x="56.01" y="36">e</tspan><tspan class="cls-22" x="62.78" y="36">s, </tspan><tspan class="cls-11" x="74.79" y="36">the half-line must be at the hal</tspan><tspan class="cls-14" x="265.04" y="36">f</tspan><tspan class="cls-8" x="269.72" y="36">wa</tspan><tspan class="cls-11" x="288.38" y="36">y point of the </tspan><tspan class="cls-8" x="373.24" y="36">dy</tspan><tspan class="cls-11" x="387.85" y="36">adic ar</tspan><tspan class="cls-18" x="431.46" y="36">r</tspan><tspan class="cls-10" x="437.42" y="36">o</tspan><tspan class="cls-11" x="444.84" y="36">w (in </tspan><tspan class="cls-28" x="480.03" y="36">blue</tspan><tspan class="cls-11" x="509.24" y="36">).</tspan></tspan><tspan class="cls-15"><tspan x="-40.12" y="54">(If the half-line </tspan><tspan class="cls-48" x="58.71" y="54">w</tspan><tspan x="70.14" y="54">e</tspan><tspan class="cls-36" x="77.45" y="54">r</tspan><tspan x="83.44" y="54">e on</tspan><tspan class="cls-49" x="110.39" y="54">l</tspan><tspan x="114.16" y="54">y on the base ar</tspan><tspan class="cls-36" x="214.76" y="54">r</tspan><tspan class="cls-29" x="220.74" y="54">o</tspan><tspan x="228.63" y="54">w without an accompa</tspan><tspan class="cls-43" x="372.97" y="54">n</tspan><tspan x="381.05" y="54">ying half-line on the </tspan></tspan><tspan class="cls-15"><tspan class="cls-49" x="-15.39" y="72">d</tspan><tspan class="cls-51" x="-7.37" y="72">y</tspan><tspan x="-.13" y="72">adic ar</tspan><tspan class="cls-36" x="43.12" y="72">r</tspan><tspan class="cls-29" x="49.11" y="72">o</tspan><tspan class="cls-37" x="57" y="72">w</tspan><tspan x="67.51" y="72">, it describes a dif</tspan><tspan class="cls-27" x="178.44" y="72">f</tspan><tspan x="182.8" y="72">e</tspan><tspan class="cls-36" x="190.11" y="72">r</tspan><tspan x="196.1" y="72">ent type of stagge</tspan><tspan class="cls-46" x="308.55" y="72">r</tspan><tspan x="313.29" y="72">, </tspan><tspan class="cls-26" x="319.67" y="72">w</tspan><tspan x="331.14" y="72">hich </tspan><tspan class="cls-48" x="361.78" y="72">w</tspan><tspan x="373.21" y="72">e’ll </tspan><tspan class="cls-30" x="395.29" y="72">e</tspan><tspan x="402.43" y="72">xplo</tspan><tspan class="cls-36" x="430.06" y="72">r</tspan><tspan x="436.04" y="72">e la</tspan><tspan class="cls-40" x="458.06" y="72">t</tspan><tspan x="463" y="72">e</tspan><tspan class="cls-46" x="470.32" y="72">r</tspan><tspan x="475.06" y="72">.)</tspan></tspan></text>
  <line class="cls-2" x1="86.05" y1="353.77" x2="588.69" y2="353.77"/>
  <line class="cls-3" x1="531.83" y1="468.77" x2="231.58" y2="468.77"/>
  <line class="cls-3" x1="531.83" y1="248.77" x2="231.58" y2="248.77"/>
  <line class="cls-3" x1="531.83" y1="688.77" x2="231.58" y2="688.77"/>
  <line class="cls-2" x1="86.05" y1="573.77" x2="588.69" y2="573.77"/>
  <path class="cls-34" d="m489.87,217.17c11.89,0,22.68-9.57,22.72-21.38l2.41,2.65s1.11-1.01.54-1.85c-.65-.95-3.93-4.08-3.93-4.08,0,0-3.32,2.66-4.21,3.8-.63.81.43,1.89.43,1.89l2.78-2.61c-.03,8.93-7.32,18.79-20.74,19.5-1.57.08-1.62,2.09,0,2.08Z"/>
  <g>
    <path class="cls-24" d="m491.34,232.54c.48.44.43.65.44.96s-.23.47-.53.71c-1.75,1.43-2.78,2.44-2.78,2.44,0,0,.42.05,4.42.05.4,0,.79.33.79.78,0,.48-.22.88-.64.88-2.35,0-4.02-.05-5.97-.05-.79,0-1.34-.19-1.52-.57-.17-.36-.12-.9.55-1.52,1.91-1.72,3.47-2.88,3.47-2.88,0,0-2.17-1.97-3.75-3.56-.33-.33-.43-.62-.31-.85.11-.2.55-.57.92-.57h6.71c.74,0,.77,1.31,0,1.31-3.37,0-5.2.02-5.2.02"/>
    <path class="cls-24" d="m375.83,232.54c.48.44.43.65.44.96s-.23.47-.53.71c-1.75,1.43-2.78,2.44-2.78,2.44,0,0,.42.05,4.42.05.4,0,.79.33.79.78,0,.48-.22.88-.64.88-2.35,0-4.02-.05-5.97-.05-.79,0-1.34-.19-1.52-.57-.17-.36-.12-.9.55-1.52,1.91-1.72,3.47-2.88,3.47-2.88,0,0-2.17-1.97-3.75-3.56-.33-.33-.43-.62-.31-.85.11-.2.55-.57.92-.57h6.71c.74,0,.77,1.31,0,1.31-3.37,0-5.2.02-5.2.02"/>
    <path class="cls-24" d="m474.77,228.8c4.64-1.3,7.94.33,7.99,3.72.1,6.19-7.54,6.06-7.86,5.69-.19-.72-.85-5.47-.13-9.41Zm1.61,7.69c3.94-.46,5.1-2.07,4.74-4.52-.36-2.45-4.31-2.07-4.85-1.81-.26,3.6-.2,4.36.11,6.32Z"/>
    <path class="cls-24" d="m260.25,228.8c4.64-1.3,7.94.33,7.99,3.72.1,6.19-7.54,6.06-7.86,5.69-.19-.72-.85-5.47-.13-9.41Zm1.61,7.69c3.94-.46,5.1-2.07,4.74-4.52-.36-2.45-4.31-2.07-4.85-1.81-.26,3.6-.2,4.36.11,6.32Z"/>
  </g>
  <path class="cls-39" d="m462.73,196.72c.29,8.73,6.43,16.42,16.51,16.42.4,0,1.32-.11,1.32,1.03,0,1.14-1.52,1.1-1.52,1.1-10.11,0-18.12-8.61-18.12-18.55h-2.36c0,16.69,9.14,21.83,18.71,21.83l-2.46-2.52s1.05-1.09,1.87-.5c1.18.86,3.97,4.12,3.97,4.12,0,0-2.95,3.4-3.93,4.07-.84.57-1.91-.51-1.91-.51l2.48-2.57c-9.34,0-20.73-4.87-20.73-23.89l-1.1-.03c-.6,0-1.09-.45-1.09-.99,0-.55.49-.99,1.09-.99h8.46c.6,0,1.09.44,1.09.99,0,.54-.49.99-1.09.99h-1.19Z"/>
  <g>
    <circle class="cls-24" cx="484.08" cy="158.85" r="2.5"/>
    <circle class="cls-24" cx="514.08" cy="188.85" r="2.5"/>
    <circle class="cls-24" cx="484.08" cy="218.85" r="2.5"/>
    <circle class="cls-24" cx="454.08" cy="188.85" r="2.5"/>
    <circle class="cls-24" cx="484.08" cy="188.85" r="1.12"/>
  </g>
  <path class="cls-24" d="m490.39,669.94c-1.86,0-2.27,0-3.51,0-.46,0-1.11-.2-1.11-.85,0-.57.42-.88,1.07-.88,4.93,0,5.05-.05,5.58.38.28.22.43.73.15,1.14-1.71,2.48-4.64,6.6-4.64,6.6,0,0,2.47-.05,3.73-.05,1.57,0,1.46,1.88.13,1.88-8.37,0-8.83,1.14-1.4-8.22Z"/>
  <path class="cls-24" d="m375.49,669.94c-1.86,0-2.27,0-3.51,0-.46,0-1.11-.2-1.11-.85,0-.57.42-.88,1.07-.88,4.93,0,5.05-.05,5.58.38.28.22.43.73.15,1.14-1.71,2.48-4.64,6.6-4.64,6.6,0,0,2.47-.05,3.73-.05,1.57,0,1.46,1.88.13,1.88-8.37,0-8.83,1.14-1.4-8.22Z"/>
  <g>
    <path class="cls-24" d="m490.52,336.19c-.25,1.19-1.45,2.37-3.24,2.37h-.11c-1-.04-2.78-.26-3.51-1.25-.39-.52-.47-1.13-.19-1.44.24-.27.68-.24,1.23.08,1.08,1.06,2.52,1.08,3.42.64.52-.26.82-.65.77-1.03-.03-.33-.36-.94-2.12-1.35-2.5-.56-3.55-1.98-3.49-3.14.06-1.03,1.04-2.24,3.59-2.51.07,0,.13,0,.2,0,1.08,0,2.66.83,2.96,1.59.13.32.04.59-.26.82-.19.14-.59-.05-1.1-.3-.48-.23-1.01-.49-1.51-.55-.14-.02-.27-.03-.4-.03-.95,0-1.68.48-1.82.99-.13.47.23.9.96,1.2l2.99,1.21c1.5.62,1.82,1.8,1.62,2.7Z"/>
    <path class="cls-24" d="m377.67,336.19c-.25,1.19-1.45,2.37-3.24,2.37h-.11c-1-.04-2.78-.26-3.51-1.25-.39-.52-.47-1.13-.19-1.44.24-.27.68-.24,1.23.08,1.08,1.06,2.52,1.08,3.42.64.52-.26.82-.65.77-1.03-.03-.33-.36-.94-2.12-1.35-2.5-.56-3.55-1.98-3.49-3.14.06-1.03,1.04-2.24,3.59-2.51.07,0,.13,0,.2,0,1.08,0,2.66.83,2.96,1.59.13.32.04.59-.26.82-.19.14-.59-.05-1.1-.3-.48-.23-1.01-.49-1.51-.55-.14-.02-.27-.03-.4-.03-.95,0-1.68.48-1.82.99-.13.47.23.9.96,1.2l2.99,1.21c1.5.62,1.82,1.8,1.62,2.7Z"/>
    <path class="cls-24" d="m478.11,328.56c-1.33,0-3.23,1.68-3.23,5,0,2.56,1.22,5,3.23,5s3.27-2.44,3.27-5c0-3.48-1.94-5-3.27-5Zm.01,1.37c.96,0,1.64,1.13,1.7,1.93.02.3,0,.81-.55.81h-2.33c-.46,0-.51-.5-.5-.76.07-.8.81-1.98,1.69-1.98Zm0,7.26c-1.08,0-1.72-1.28-1.79-2.08-.01-.25,0-.76.5-.76h2.53c.56,0,.58.5.55.81-.06.8-.72,2.03-1.8,2.03Z"/>
    <path class="cls-24" d="m264.06,328.56c-1.33,0-3.23,1.68-3.23,5,0,2.56,1.22,5,3.23,5s3.27-2.44,3.27-5c0-3.48-1.94-5-3.27-5Zm.01,1.37c.96,0,1.64,1.13,1.7,1.93.02.3,0,.81-.55.81h-2.33c-.46,0-.51-.5-.5-.76.07-.8.81-1.98,1.69-1.98Zm0,7.26c-1.08,0-1.72-1.28-1.79-2.08-.01-.25,0-.76.5-.76h2.53c.56,0,.58.5.55.81-.06.8-.72,2.03-1.8,2.03Z"/>
  </g>
  <g>
    <path class="cls-24" d="m482.86,768.17c-.46-.06-.96.28-1.19,1.14-.42,1.54-.92,3.7-1.44,5.63-1.11-2.72-1.86-4.39-2.5-4.38-.01,0-.02,0-.03.01-.01-.01-.02-.01-.03-.01-.64-.01-1.39,1.65-2.5,4.38-.51-1.93-1.02-4.09-1.44-5.63-.24-.86-.73-1.2-1.19-1.14-.59.07-.98.49-.74,1.25.25.81,1.84,6.07,2.3,7.72.47,1.65,1.59.9,1.8.49.21-.41,1.36-3.67,1.8-4.59.44.92,1.59,4.18,1.8,4.59.21.41,1.33,1.16,1.8-.49.46-1.64,2.05-6.9,2.3-7.72.24-.76-.15-1.18-.74-1.25Z"/>
    <path class="cls-24" d="m269.24,768.17c-.46-.06-.96.28-1.19,1.14-.42,1.54-.92,3.7-1.44,5.63-1.11-2.72-1.86-4.39-2.5-4.38-.01,0-.02,0-.03.01-.01-.01-.02-.01-.03-.01-.64-.01-1.39,1.65-2.5,4.38-.51-1.93-1.02-4.09-1.44-5.63-.24-.86-.73-1.2-1.19-1.14-.59.07-.98.49-.74,1.25.25.81,1.84,6.07,2.3,7.72.47,1.65,1.59.9,1.8.49.21-.41,1.36-3.67,1.8-4.59.44.92,1.59,4.18,1.8,4.59.21.41,1.33,1.16,1.8-.49.46-1.64,2.05-6.9,2.3-7.72.24-.76-.15-1.18-.74-1.25Z"/>
  </g>
  <path class="cls-39" d="m492.54,696.84c-27.07-.55-33.55,10.52-34.44,24.4-.11,1.71,2.19,1.65,2.3-.05,1.21-18.22,15.41-21.98,25.83-21.98,0,23.36,2.43,21.92,20.27,21.92l-2.9,2.84s1.1,1.18,1.98.54c1.26-.92,4.22-4.37,4.22-4.37,0,0-3.22-3.59-4.22-4.33-.88-.65-1.98.5-1.98.5l2.9,2.74c-17.3,0-18.16,1.51-18.17-19.84h4.21c1.8,0,1.76-2.33,0-2.37Z"/>
  <path class="cls-39" d="m491.65,596.85c-27.07-.55-33.55,10.52-34.44,24.4-.11,1.71,2.19,1.65,2.3-.05,1.21-18.22,15.41-21.98,25.83-21.98,0,23.36,2.43,21.92,20.27,21.92l-2.9,2.84s1.1,1.18,1.98.54c1.26-.92,4.22-4.37,4.22-4.37,0,0-3.22-3.59-4.22-4.33-.88-.65-1.98.5-1.98.5l2.9,2.74c-17.3,0-18.16,1.51-18.17-19.84h4.21c1.8,0,1.76-2.33,0-2.37Z"/>
  <path class="cls-39" d="m460.75,294.61c.29,8.73,6.33,15.12,16.41,15.12,1.67,0,1.6,2.13,0,2.13-10.11,0-18.22-7.31-18.22-17.25h-2.36c0,14.82,10.48,21.03,18.71,21.03l-2.46-2.52s1.05-1.09,1.87-.5c1.18.86,3.97,4.12,3.97,4.12,0,0-2.95,3.4-3.93,4.07-.84.57-1.91-.51-1.91-.51l2.48-2.57c-8.01,0-20.73-5.94-20.73-23.09l-1.1-.03c-.6,0-1.09-.45-1.09-.99s.49-.99,1.09-.99h8.46c.6,0,1.09.44,1.09.99,0,.54-.49.99-1.09.99h-1.19Z"/>
  <path class="cls-34" d="m513.29,296.72c-.64-.95-3.93-4.08-3.93-4.08,0,0-3.31,2.66-4.21,3.8-.63.8.44,1.89.44,1.89l2.78-2.61c-.03,8.61-6.85,18.1-19.4,19.39v-2.79c0-.6-.49-1.09-1.08-1.09s-1.08.49-1.08,1.09v7.56c0,.6.48,1.09,1.08,1.09s1.08-.49,1.08-1.09v-2.63c11.36-.66,21.34-9.96,21.37-21.33l2.42,2.65s1.11-1.01.53-1.85Z"/>
  <path class="cls-34" d="m513.29,499.85c-.64.95-3.93,4.08-3.93,4.08,0,0-3.31-2.66-4.21-3.8-.63-.8.44-1.89.44-1.89l2.78,2.61c-.03-8.61-6.85-18.1-19.4-19.39v2.79c0,.6-.49,1.09-1.08,1.09s-1.08-.49-1.08-1.09v-7.56c0-.6.48-1.09,1.08-1.09.59,0,1.08.49,1.08,1.09v2.63c11.36.66,21.34,9.96,21.37,21.33l2.42-2.65s1.11,1.01.53,1.85Z"/>
  <path class="cls-34" d="m515.39,740.77c-.64-.95-3.93-4.08-3.93-4.08,0,0-3.31,2.66-4.21,3.8-.63.8.44,1.89.44,1.89l2.78-2.61c-.03,8.61-6.85,18.1-19.4,19.39v-2.79c0-.6-.49-1.09-1.08-1.09-.6,0-1.08.49-1.08,1.09v7.56c0,.6.48,1.09,1.08,1.09s1.08-.49,1.08-1.09v-2.63c11.36-.66,21.34-9.96,21.37-21.33l2.42,2.65s1.11-1.01.53-1.85Z"/>
  <path class="cls-39" d="m451.92,411.81c-.55,0-.99.49-.99,1.09v4.89c0,1.03.02,2.03.06,3.01.44,12.2,4.12,20.55,21.5,20.55,1.42,0,1.37-2.06-.05-2.06-16.97,0-19.37-8.91-19.37-20.78,0-.34.09-.82.43-.82,21.55,0,20.83-.57,20.83,17.26l-2.55-2.44s-1.1,1.04-.5,1.87c.82,1.11,3.78,3.68,4.07,3.93.29-.25,3.25-2.82,4.07-3.93.6-.83-.5-1.87-.5-1.87l-2.74,2.44c0-19.33-.82-19.24-23.27-19.24v-2.81c0-.6-.45-1.09-.99-1.09Z"/>
  <path class="cls-39" d="m451.24,512.6c-.55,0-.99.49-.99,1.09v4.89c0,1.03.02,2.03.06,3.01.44,12.2,4.12,20.55,21.5,20.55,1.42,0,1.37-2.06-.05-2.06-16.97,0-19.37-8.91-19.37-20.78,0-.34.09-.82.43-.82,21.55,0,20.83-.57,20.83,17.26l-2.55-2.44s-1.1,1.04-.5,1.87c.82,1.11,3.78,3.68,4.07,3.93.29-.25,3.25-2.82,4.07-3.93.6-.83-.5-1.87-.5-1.87l-2.74,2.44c0-19.33-.82-19.24-23.27-19.24v-2.81c0-.6-.45-1.09-.99-1.09Z"/>
  <g>
    <g>
      <circle class="cls-24" cx="484.08" cy="158.85" r="2.5"/>
      <circle class="cls-24" cx="514.08" cy="188.85" r="2.5"/>
      <circle class="cls-24" cx="484.08" cy="218.85" r="2.5"/>
      <circle class="cls-24" cx="454.08" cy="188.85" r="2.5"/>
      <circle class="cls-24" cx="484.08" cy="188.85" r="1.12"/>
    </g>
    <g>
      <circle class="cls-24" cx="374.08" cy="218.85" r="2.5"/>
      <circle class="cls-24" cx="404.08" cy="188.85" r="2.5"/>
      <circle class="cls-24" cx="374.08" cy="158.85" r="2.5"/>
      <circle class="cls-24" cx="344.08" cy="188.85" r="2.5"/>
      <circle class="cls-24" cx="374.08" cy="188.85" r="1.12"/>
    </g>
    <g>
      <circle class="cls-24" cx="264.08" cy="218.85" r="2.5"/>
      <circle class="cls-24" cx="294.08" cy="188.85" r="2.5"/>
      <circle class="cls-24" cx="264.08" cy="158.85" r="2.5"/>
      <circle class="cls-24" cx="234.08" cy="188.85" r="2.5"/>
      <circle class="cls-24" cx="264.08" cy="188.85" r="1.12"/>
    </g>
    <g>
      <circle class="cls-24" cx="374.08" cy="318.85" r="2.5"/>
      <circle class="cls-24" cx="404.08" cy="288.85" r="2.5"/>
      <circle class="cls-24" cx="374.08" cy="258.85" r="2.5"/>
      <circle class="cls-24" cx="344.08" cy="288.85" r="2.5"/>
      <circle class="cls-24" cx="374.08" cy="288.85" r="1.12"/>
    </g>
    <g>
      <circle class="cls-24" cx="264.08" cy="318.85" r="2.5"/>
      <circle class="cls-24" cx="294.08" cy="288.85" r="2.5"/>
      <circle class="cls-24" cx="264.08" cy="258.85" r="2.5"/>
      <circle class="cls-24" cx="234.08" cy="288.85" r="2.5"/>
      <circle class="cls-24" cx="264.08" cy="288.85" r="1.12"/>
    </g>
    <g>
      <circle class="cls-24" cx="374.08" cy="438.85" r="2.5"/>
      <circle class="cls-24" cx="404.08" cy="408.85" r="2.5"/>
      <circle class="cls-24" cx="374.08" cy="378.85" r="2.5"/>
      <circle class="cls-24" cx="344.08" cy="408.85" r="2.5"/>
      <circle class="cls-24" cx="374.08" cy="408.85" r="1.12"/>
    </g>
    <g>
      <circle class="cls-24" cx="264.08" cy="438.85" r="2.5"/>
      <circle class="cls-24" cx="294.08" cy="408.85" r="2.5"/>
      <circle class="cls-24" cx="264.08" cy="378.85" r="2.5"/>
      <circle class="cls-24" cx="234.08" cy="408.85" r="2.5"/>
      <circle class="cls-24" cx="264.08" cy="408.85" r="1.12"/>
    </g>
    <g>
      <circle class="cls-24" cx="374.08" cy="538.85" r="2.5"/>
      <circle class="cls-24" cx="404.08" cy="508.85" r="2.5"/>
      <circle class="cls-24" cx="374.08" cy="478.85" r="2.5"/>
      <circle class="cls-24" cx="344.08" cy="508.85" r="2.5"/>
      <circle class="cls-24" cx="374.08" cy="508.85" r="1.12"/>
    </g>
    <g>
      <circle class="cls-24" cx="264.08" cy="538.85" r="2.5"/>
      <circle class="cls-24" cx="294.08" cy="508.85" r="2.5"/>
      <circle class="cls-24" cx="264.08" cy="478.85" r="2.5"/>
      <circle class="cls-24" cx="234.08" cy="508.85" r="2.5"/>
      <circle class="cls-24" cx="264.08" cy="508.85" r="1.12"/>
    </g>
    <g>
      <circle class="cls-24" cx="374.08" cy="658.85" r="2.5"/>
      <circle class="cls-24" cx="404.08" cy="628.85" r="2.5"/>
      <circle class="cls-24" cx="374.08" cy="598.85" r="2.5"/>
      <circle class="cls-24" cx="344.08" cy="628.85" r="2.5"/>
      <circle class="cls-24" cx="374.08" cy="628.85" r="1.12"/>
    </g>
    <g>
      <circle class="cls-24" cx="264.08" cy="658.85" r="2.5"/>
      <circle class="cls-24" cx="294.08" cy="628.85" r="2.5"/>
      <circle class="cls-24" cx="264.08" cy="598.85" r="2.5"/>
      <circle class="cls-24" cx="234.08" cy="628.85" r="2.5"/>
      <circle class="cls-24" cx="264.08" cy="628.85" r="1.12"/>
    </g>
    <g>
      <circle class="cls-24" cx="374.08" cy="758.85" r="2.5"/>
      <circle class="cls-24" cx="404.08" cy="728.85" r="2.5"/>
      <circle class="cls-24" cx="374.08" cy="698.85" r="2.5"/>
      <circle class="cls-24" cx="344.08" cy="728.85" r="2.5"/>
      <circle class="cls-24" cx="374.08" cy="728.85" r="1.12"/>
    </g>
    <g>
      <circle class="cls-24" cx="264.08" cy="758.85" r="2.5"/>
      <circle class="cls-24" cx="294.08" cy="728.85" r="2.5"/>
      <circle class="cls-24" cx="264.08" cy="698.85" r="2.5"/>
      <circle class="cls-24" cx="234.08" cy="728.85" r="2.5"/>
      <circle class="cls-24" cx="264.08" cy="728.85" r="1.12"/>
    </g>
    <g>
      <circle class="cls-24" cx="483.06" cy="658.85" r="2.5"/>
      <circle class="cls-24" cx="513.06" cy="628.85" r="2.5"/>
      <circle class="cls-24" cx="483.06" cy="598.85" r="2.5"/>
      <circle class="cls-24" cx="453.06" cy="628.85" r="2.5"/>
      <circle class="cls-24" cx="483.06" cy="628.85" r="1.12"/>
    </g>
    <g>
      <circle class="cls-24" cx="483.06" cy="318.85" r="2.5"/>
      <circle class="cls-24" cx="513.06" cy="288.85" r="2.5"/>
      <circle class="cls-24" cx="483.06" cy="258.85" r="2.5"/>
      <circle class="cls-24" cx="453.06" cy="288.85" r="2.5"/>
      <circle class="cls-24" cx="483.06" cy="288.85" r="1.12"/>
    </g>
    <g>
      <circle class="cls-24" cx="483.06" cy="378.38" r="2.5"/>
      <circle class="cls-24" cx="453.06" cy="408.38" r="2.5"/>
      <circle class="cls-24" cx="483.06" cy="438.38" r="2.5"/>
      <circle class="cls-24" cx="513.06" cy="408.38" r="2.5"/>
      <circle class="cls-24" cx="483.06" cy="408.38" r="1.12"/>
    </g>
    <g>
      <circle class="cls-24" cx="483.06" cy="478.85" r="2.5"/>
      <circle class="cls-24" cx="453.06" cy="508.85" r="2.5"/>
      <circle class="cls-24" cx="483.06" cy="538.85" r="2.5"/>
      <circle class="cls-24" cx="513.06" cy="508.85" r="2.5"/>
      <circle class="cls-24" cx="483.06" cy="508.85" r="1.13"/>
    </g>
    <g>
      <circle class="cls-24" cx="483.06" cy="698.85" r="2.5"/>
      <circle class="cls-24" cx="453.06" cy="728.85" r="2.5"/>
      <circle class="cls-24" cx="483.06" cy="758.85" r="2.5"/>
      <circle class="cls-24" cx="513.06" cy="728.85" r="2.5"/>
      <circle class="cls-24" cx="483.06" cy="728.85" r="1.12"/>
    </g>
  </g>
  <g>
    <rect class="cls-24" x="419.99" y="183.65" width="18.18" height="3.19"/>
    <rect class="cls-24" x="419.99" y="190.87" width="18.18" height="3.19"/>
    <polygon class="cls-50" points="310.69 187.76 322.52 187.76 322.52 183.96 328.77 188.85 322.52 193.74 322.52 189.94 310.69 189.94 310.69 187.76"/>
    <rect class="cls-24" x="419.99" y="283.65" width="18.18" height="3.19"/>
    <rect class="cls-24" x="419.99" y="290.87" width="18.18" height="3.19"/>
    <polygon class="cls-50" points="310.69 287.76 322.52 287.76 322.52 283.96 328.77 288.85 322.52 293.74 322.52 289.94 310.69 289.94 310.69 287.76"/>
    <rect class="cls-24" x="419.99" y="403.65" width="18.18" height="3.19"/>
    <rect class="cls-24" x="419.99" y="410.87" width="18.18" height="3.19"/>
    <polygon class="cls-50" points="310.69 407.76 322.52 407.76 322.52 403.96 328.77 408.85 322.52 413.74 322.52 409.94 310.69 409.94 310.69 407.76"/>
    <rect class="cls-24" x="419.99" y="503.65" width="18.18" height="3.19"/>
    <rect class="cls-24" x="419.99" y="510.87" width="18.18" height="3.19"/>
    <polygon class="cls-50" points="310.69 507.76 322.52 507.76 322.52 503.96 328.77 508.85 322.52 513.74 322.52 509.94 310.69 509.94 310.69 507.76"/>
    <rect class="cls-24" x="419.99" y="623.65" width="18.18" height="3.19"/>
    <rect class="cls-24" x="419.99" y="630.87" width="18.18" height="3.19"/>
    <polygon class="cls-50" points="310.69 627.76 322.52 627.76 322.52 623.96 328.77 628.85 322.52 633.74 322.52 629.94 310.69 629.94 310.69 627.76"/>
    <rect class="cls-24" x="419.99" y="723.65" width="18.18" height="3.19"/>
    <rect class="cls-24" x="419.99" y="730.87" width="18.18" height="3.19"/>
    <polygon class="cls-50" points="310.69 727.76 322.52 727.76 322.52 723.96 328.77 728.85 322.52 733.74 322.52 729.94 310.69 729.94 310.69 727.76"/>
  </g>
  <g>
    <path class="cls-34" d="m266.8,185.1c.5,0,.92.39.92.87v1.82s22.29,0,22.29,0c.49,0,.89.39.89.85v.42c0,.46-.4.85-.89.85h-22.29s0,1.82,0,1.82c0,.48-.42.87-.92.87s-.91-.39-.91-.87v-5.76c0-.48.41-.87.91-.87Z"/>
    <path class="cls-39" d="m261.36,192.6c-.5,0-.92-.39-.92-.87v-1.82h-22.29c-.49,0-.89-.39-.89-.85v-.42c0-.46.4-.85.89-.85h22.29v-1.82c0-.48.42-.87.92-.87s.91.39.91.87v5.76c0,.48-.41.87-.91.87Z"/>
    <path class="cls-34" d="m376.8,185.1c.5,0,.92.39.92.87v1.82s22.29,0,22.29,0c.49,0,.89.39.89.85v.42c0,.46-.4.85-.89.85h-22.29s0,1.82,0,1.82c0,.48-.42.87-.92.87s-.91-.39-.91-.87v-5.76c0-.48.41-.87.91-.87Z"/>
    <path class="cls-39" d="m377.83,191.57c0,.5-.39.92-.87.92h-1.82s0,22.29,0,22.29c0,.49-.39.89-.85.89h-.42c-.46,0-.85-.4-.85-.89v-22.29s-1.82,0-1.82,0c-.48,0-.87-.42-.87-.92s.39-.91.87-.91h5.76c.48,0,.87.41.87.91Z"/>
    <path class="cls-34" d="m486.8,185.1c.5,0,.92.39.92.87v1.82s22.29,0,22.29,0c.49,0,.89.39.89.85v.42c0,.46-.4.85-.89.85h-22.29s0,1.82,0,1.82c0,.48-.42.87-.92.87s-.91-.39-.91-.87v-5.76c0-.48.41-.87.91-.87Z"/>
    <path class="cls-39" d="m487.83,191.57c0,.5-.39.92-.87.92h-1.82s0,22.29,0,22.29c0,.49-.39.89-.85.89h-.42c-.46,0-.85-.4-.85-.89v-22.29s-1.82,0-1.82,0c-.48,0-.87-.42-.87-.92s.39-.91.87-.91h5.76c.48,0,.87.41.87.91Z"/>
    <path class="cls-39" d="m261.36,512.6c-.5,0-.92-.39-.92-.87v-1.82h-22.29c-.49,0-.89-.39-.89-.85v-.42c0-.46.4-.85.89-.85h22.29v-1.82c0-.48.42-.87.92-.87s.91.39.91.87v5.76c0,.48-.41.87-.91.87Z"/>
    <path class="cls-34" d="m260.33,506.13c0-.5.39-.92.87-.92h1.82s0-22.29,0-22.29c0-.49.39-.89.85-.89h.42c.46,0,.85.4.85.89v22.29s1.82,0,1.82,0c.48,0,.87.42.87.92s-.39.91-.87.91h-5.76c-.48,0-.87-.41-.87-.91Z"/>
    <path class="cls-39" d="m370.33,534.76c0-.5.39-.92.87-.92h1.82v-22.29c0-.49.39-.89.85-.89h.42c.46,0,.85.4.85.89v22.29h1.82c.48,0,.87.42.87.92s-.39.91-.87.91h-5.76c-.48,0-.87-.41-.87-.91Z"/>
    <path class="cls-34" d="m399.98,512.6c-.5,0-.92-.39-.92-.87v-1.82s-22.29,0-22.29,0c-.49,0-.89-.39-.89-.85v-.42c0-.46.4-.85.89-.85h22.29s0-1.82,0-1.82c0-.48.42-.87.92-.87s.91.39.91.87v5.76c0,.48-.41.87-.91.87Z"/>
    <path class="cls-39" d="m480.33,534.76c0-.5.39-.92.87-.92h1.82v-22.29c0-.49.39-.89.85-.89h.42c.46,0,.85.4.85.89v22.29h1.82c.48,0,.87.42.87.92s-.39.91-.87.91h-5.76c-.48,0-.87-.41-.87-.91Z"/>
    <path class="cls-34" d="m509.98,512.6c-.5,0-.92-.39-.92-.87v-1.82s-22.29,0-22.29,0c-.49,0-.89-.39-.89-.85v-.42c0-.46.4-.85.89-.85h22.29s0-1.82,0-1.82c0-.48.42-.87.92-.87s.91.39.91.87v5.76c0,.48-.41.87-.91.87Z"/>
    <path class="cls-39" d="m260.33,626.13c0-.5.39-.92.87-.92h1.82v-22.29c0-.49.39-.89.85-.89h.42c.46,0,.85.4.85.89v22.29h1.82c.48,0,.87.42.87.92s-.39.91-.87.91h-5.76c-.48,0-.87-.41-.87-.91Z"/>
    <path class="cls-34" d="m289.98,632.6c-.5,0-.92-.39-.92-.87v-1.82s-22.29,0-22.29,0c-.49,0-.89-.39-.89-.85v-.42c0-.46.4-.85.89-.85h22.29s0-1.82,0-1.82c0-.48.42-.87.92-.87s.91.39.91.87v5.76c0,.48-.41.87-.91.87Z"/>
    <path class="cls-39" d="m509.98,630.1c-.5,0-.92-.39-.92-.87v-1.82s-22.29,0-22.29,0c-.49,0-.89-.39-.89-.85v-.42c0-.46.4-.85.89-.85h22.29s0-1.82,0-1.82c0-.48.42-.87.92-.87s.91.39.91.87v5.76c0,.48-.41.87-.91.87Z"/>
    <path class="cls-34" d="m509.98,635.1c-.5,0-.92-.39-.92-.87v-1.82s-22.29,0-22.29,0c-.49,0-.89-.39-.89-.85v-.42c0-.46.4-.85.89-.85h22.29s0-1.82,0-1.82c0-.48.42-.87.92-.87s.91.39.91.87v5.76c0,.48-.41.87-.91.87Z"/>
    <path class="cls-39" d="m399.98,630.1c-.5,0-.92-.39-.92-.87v-1.82s-22.29,0-22.29,0c-.49,0-.89-.39-.89-.85v-.42c0-.46.4-.85.89-.85h22.29s0-1.82,0-1.82c0-.48.42-.87.92-.87s.91.39.91.87v5.76c0,.48-.41.87-.91.87Z"/>
    <path class="cls-34" d="m399.98,635.1c-.5,0-.92-.39-.92-.87v-1.82s-22.29,0-22.29,0c-.49,0-.89-.39-.89-.85v-.42c0-.46.4-.85.89-.85h22.29s0-1.82,0-1.82c0-.48.42-.87.92-.87s.91.39.91.87v5.76c0,.48-.41.87-.91.87Z"/>
    <path class="cls-39" d="m260.33,726.13c0-.5.39-.92.87-.92h1.82v-22.29c0-.49.39-.89.85-.89h.42c.46,0,.85.4.85.89v22.29h1.82c.48,0,.87.42.87.92s-.39.91-.87.91h-5.76c-.48,0-.87-.41-.87-.91Z"/>
    <path class="cls-34" d="m267.83,731.57c0,.5-.39.92-.87.92h-1.82s0,22.29,0,22.29c0,.49-.39.89-.85.89h-.42c-.46,0-.85-.4-.85-.89v-22.29s-1.82,0-1.82,0c-.48,0-.87-.42-.87-.92s.39-.91.87-.91h5.76c.48,0,.87.41.87.91Z"/>
    <path class="cls-39" d="m509.98,730.1c-.5,0-.92-.39-.92-.87v-1.82s-22.29,0-22.29,0c-.49,0-.89-.39-.89-.85v-.42c0-.46.4-.85.89-.85h22.29s0-1.82,0-1.82c0-.48.42-.87.92-.87s.91.39.91.87v5.76c0,.48-.41.87-.91.87Z"/>
    <path class="cls-34" d="m509.98,735.1c-.5,0-.92-.39-.92-.87v-1.82s-22.29,0-22.29,0c-.49,0-.89-.39-.89-.85v-.42c0-.46.4-.85.89-.85h22.29s0-1.82,0-1.82c0-.48.42-.87.92-.87s.91.39.91.87v5.76c0,.48-.41.87-.91.87Z"/>
    <path class="cls-39" d="m399.98,730.1c-.5,0-.92-.39-.92-.87v-1.82s-22.29,0-22.29,0c-.49,0-.89-.39-.89-.85v-.42c0-.46.4-.85.89-.85h22.29s0-1.82,0-1.82c0-.48.42-.87.92-.87s.91.39.91.87v5.76c0,.48-.41.87-.91.87Z"/>
    <path class="cls-34" d="m399.98,735.1c-.5,0-.92-.39-.92-.87v-1.82s-22.29,0-22.29,0c-.49,0-.89-.39-.89-.85v-.42c0-.46.4-.85.89-.85h22.29s0-1.82,0-1.82c0-.48.42-.87.92-.87s.91.39.91.87v5.76c0,.48-.41.87-.91.87Z"/>
    <path class="cls-39" d="m261.36,412.6c-.5,0-.92-.39-.92-.87v-1.82h-22.29c-.49,0-.89-.39-.89-.85v-.42c0-.46.4-.85.89-.85h22.29v-1.82c0-.48.42-.87.92-.87s.91.39.91.87v5.76c0,.48-.41.87-.91.87Z"/>
    <path class="cls-34" d="m289.98,412.6c-.5,0-.92-.39-.92-.87v-1.82s-22.29,0-22.29,0c-.49,0-.89-.39-.89-.85v-.42c0-.46.4-.85.89-.85h22.29s0-1.82,0-1.82c0-.48.42-.87.92-.87s.91.39.91.87v5.76c0,.48-.41.87-.91.87Z"/>
    <path class="cls-39" d="m370.33,434.76c0-.5.39-.92.87-.92h1.82v-22.29c0-.49.39-.89.85-.89h.42c.46,0,.85.4.85.89v22.29h1.82c.48,0,.87.42.87.92s-.39.91-.87.91h-5.76c-.48,0-.87-.41-.87-.91Z"/>
    <path class="cls-34" d="m399.98,412.6c-.5,0-.92-.39-.92-.87v-1.82s-22.29,0-22.29,0c-.49,0-.89-.39-.89-.85v-.42c0-.46.4-.85.89-.85h22.29s0-1.82,0-1.82c0-.48.42-.87.92-.87s.91.39.91.87v5.76c0,.48-.41.87-.91.87Z"/>
    <path class="cls-39" d="m480.33,434.76c0-.5.39-.92.87-.92h1.82v-22.29c0-.49.39-.89.85-.89h.42c.46,0,.85.4.85.89v22.29h1.82c.48,0,.87.42.87.92s-.39.91-.87.91h-5.76c-.48,0-.87-.41-.87-.91Z"/>
    <path class="cls-34" d="m509.98,412.6c-.5,0-.92-.39-.92-.87v-1.82s-22.29,0-22.29,0c-.49,0-.89-.39-.89-.85v-.42c0-.46.4-.85.89-.85h22.29s0-1.82,0-1.82c0-.48.42-.87.92-.87s.91.39.91.87v5.76c0,.48-.41.87-.91.87Z"/>
    <path class="cls-34" d="m267.83,291.57c0,.5-.39.92-.87.92h-1.82v22.29c0,.49-.39.89-.85.89h-.42c-.46,0-.85-.4-.85-.89v-22.29h-1.82c-.48,0-.87-.42-.87-.92s.39-.91.87-.91h5.76c.48,0,.87.41.87.91Z"/>
    <path class="cls-39" d="m261.36,292.6c-.5,0-.92-.39-.92-.87v-1.82h-22.29c-.49,0-.89-.39-.89-.85v-.42c0-.46.4-.85.89-.85h22.29v-1.82c0-.48.42-.87.92-.87s.91.39.91.87v5.76c0,.48-.41.87-.91.87Z"/>
    <path class="cls-34" d="m376.8,285.1c.5,0,.92.39.92.87v1.82s22.29,0,22.29,0c.49,0,.89.39.89.85v.42c0,.46-.4.85-.89.85h-22.29s0,1.82,0,1.82c0,.48-.42.87-.92.87s-.91-.39-.91-.87v-5.76c0-.48.41-.87.91-.87Z"/>
    <path class="cls-39" d="m377.83,291.57c0,.5-.39.92-.87.92h-1.82s0,22.29,0,22.29c0,.49-.39.89-.85.89h-.42c-.46,0-.85-.4-.85-.89v-22.29s-1.82,0-1.82,0c-.48,0-.87-.42-.87-.92s.39-.91.87-.91h5.76c.48,0,.87.41.87.91Z"/>
    <path class="cls-34" d="m486.8,285.1c.5,0,.92.39.92.87v1.82s22.29,0,22.29,0c.49,0,.89.39.89.85v.42c0,.46-.4.85-.89.85h-22.29s0,1.82,0,1.82c0,.48-.42.87-.92.87s-.91-.39-.91-.87v-5.76c0-.48.41-.87.91-.87Z"/>
    <path class="cls-39" d="m487.83,291.57c0,.5-.39.92-.87.92h-1.82s0,22.29,0,22.29c0,.49-.39.89-.85.89h-.42c-.46,0-.85-.4-.85-.89v-22.29s-1.82,0-1.82,0c-.48,0-.87-.42-.87-.92s.39-.91.87-.91h5.76c.48,0,.87.41.87.91Z"/>
  </g>
  <path class="cls-24" d="m492.37,456.63c-.93-2.27-1.86-4.39-2.21-5.2-.38-.84-.67-1.52-.74-1.72-.32-.87-.6-1.18-1.12-1.22-.5.04-.79.34-1.11,1.22-.07.2-.36.87-.73,1.72-.73,1.66-1.56,3.6-2.22,5.2-.28.71-.29,1.21-.03,1.52.19.23.49.34.9.34h6.43c.41,0,.71-.12.9-.34.12-.15.18-.34.18-.58,0-.26-.07-.57-.22-.94Zm-1.67.34h-4.8c.17-.42.49-1.25.87-2.18.56-1.41,1.21-3.07,1.53-3.9.39.98,1.22,3.11,1.83,4.63l.57,1.44Z"/>
  <path class="cls-24" d="m378.15,456.63c-.93-2.27-1.86-4.39-2.21-5.2-.38-.84-.67-1.52-.74-1.72-.32-.87-.6-1.18-1.12-1.22-.5.04-.79.34-1.11,1.22-.07.2-.36.87-.73,1.72-.73,1.66-1.56,3.6-2.22,5.2-.28.71-.29,1.21-.03,1.52.19.23.49.34.9.34h6.43c.41,0,.71-.12.9-.34.12-.15.18-.34.18-.58,0-.26-.07-.57-.22-.94Zm-1.67.34h-4.8c.17-.42.49-1.25.87-2.18.56-1.41,1.21-3.07,1.53-3.9.39.98,1.22,3.11,1.83,4.63l.57,1.44Z"/>
  <path class="cls-39" d="m259.51,216.62c-11.89,0-22.68-9.57-22.72-21.38l-2.41,2.65s-1.11-1.01-.54-1.85c.65-.95,3.93-4.08,3.93-4.08,0,0,3.32,2.66,4.21,3.8.63.81-.43,1.89-.43,1.89l-2.78-2.61c.03,8.93,7.32,18.79,20.74,19.5,1.57.08,1.62,2.09,0,2.08Z"/>
  <path class="cls-39" d="m259.51,316.62c-11.89,0-22.68-9.57-22.72-21.38l-2.41,2.65s-1.11-1.01-.54-1.85c.65-.95,3.93-4.08,3.93-4.08,0,0,3.32,2.66,4.21,3.8.63.81-.43,1.89-.43,1.89l-2.78-2.61c.03,8.93,7.32,18.79,20.74,19.5,1.57.08,1.62,2.09,0,2.08Z"/>
  <path class="cls-39" d="m259.51,437.27c-11.89,0-22.68-9.57-22.72-21.38l-2.41,2.65s-1.11-1.01-.54-1.85c.65-.95,3.93-4.08,3.93-4.08,0,0,3.32,2.66,4.21,3.8.63.81-.43,1.89-.43,1.89l-2.78-2.61c.03,8.93,7.32,18.79,20.74,19.5,1.57.08,1.62,2.09,0,2.08Z"/>
  <path class="cls-34" d="m269.29,379.16c11.89,0,22.68,9.57,22.72,21.38l2.41-2.65s1.11,1.01.54,1.85c-.65.95-3.93,4.08-3.93,4.08,0,0-3.32-2.66-4.21-3.8-.63-.81.43-1.89.43-1.89l2.78,2.61c-.03-8.93-7.32-18.79-20.74-19.5-1.57-.08-1.62-2.09,0-2.08Z"/>
  <path class="cls-34" d="m379.8,479.26c11.89,0,22.68,9.57,22.72,21.38l2.41-2.65s1.11,1.01.54,1.85c-.65.95-3.93,4.08-3.93,4.08,0,0-3.32-2.66-4.21-3.8-.63-.81.43-1.89.43-1.89l2.78,2.61c-.03-8.93-7.32-18.79-20.74-19.5-1.57-.08-1.62-2.09,0-2.08Z"/>
  <path class="cls-34" d="m489.02,378.85c11.89,0,22.68,9.57,22.72,21.38l2.41-2.65s1.11,1.01.54,1.85c-.65.95-3.93,4.08-3.93,4.08,0,0-3.32-2.66-4.21-3.8-.63-.81.43-1.89.43-1.89l2.78,2.61c-.03-8.93-7.32-18.79-20.74-19.5-1.57-.08-1.62-2.09,0-2.08Z"/>
  <path class="cls-39" d="m259.51,536.6c-11.89,0-22.68-9.57-22.72-21.38l-2.41,2.65s-1.11-1.01-.54-1.85c.65-.95,3.93-4.08,3.93-4.08,0,0,3.32,2.66,4.21,3.8.63.81-.43,1.89-.43,1.89l-2.78-2.61c.03,8.93,7.32,18.79,20.74,19.5,1.57.08,1.62,2.09,0,2.08Z"/>
  <path class="cls-34" d="m269.77,659.02c11.89,0,22.68-9.57,22.72-21.38l2.41,2.65s1.11-1.01.54-1.85c-.65-.95-3.93-4.08-3.93-4.08,0,0-3.32,2.66-4.21,3.8-.63.81.43,1.89.43,1.89l2.78-2.61c-.03,8.93-7.32,18.79-20.74,19.5-1.57.08-1.62,2.09,0,2.08Z"/>
  <path class="cls-34" d="m379.88,761.35c11.89,0,22.68-9.57,22.72-21.38l2.41,2.65s1.11-1.01.54-1.85c-.65-.95-3.93-4.08-3.93-4.08,0,0-3.32,2.66-4.21,3.8-.63.81.43,1.89.43,1.89l2.78-2.61c-.03,8.93-7.32,18.79-20.74,19.5-1.57.08-1.62,2.09,0,2.08Z"/>
  <path class="cls-34" d="m489.72,660.86c11.89,0,22.68-9.57,22.72-21.38l2.41,2.65s1.11-1.01.54-1.85c-.65-.95-3.93-4.08-3.93-4.08,0,0-3.32,2.66-4.21,3.8-.63.81.43,1.89.43,1.89l2.78-2.61c-.03,8.93-7.32,18.79-20.74,19.5-1.57.08-1.62,2.09,0,2.08Z"/>
  <path class="cls-39" d="m235.66,623.51c0-11.89,9.57-22.68,21.38-22.72l-2.65-2.41s1.01-1.11,1.85-.54c.95.65,4.08,3.93,4.08,3.93,0,0-2.66,3.32-3.8,4.21-.81.63-1.89-.43-1.89-.43l2.61-2.78c-8.93.03-18.79,7.32-19.5,20.74-.08,1.57-2.09,1.62-2.08,0Z"/>
  <path class="cls-39" d="m235.66,724.08c0-11.89,9.57-22.68,21.38-22.72l-2.65-2.41s1.01-1.11,1.85-.54c.95.65,4.08,3.93,4.08,3.93,0,0-2.66,3.32-3.8,4.21-.81.63-1.89-.43-1.89-.43l2.61-2.78c-8.93.03-18.79,7.32-19.5,20.74-.08,1.57-2.09,1.62-2.08,0Z"/>
  <path class="cls-39" d="m344.78,294.57c0,11.89,9.57,22.68,21.38,22.72l-2.65,2.41s1.01,1.11,1.85.54c.95-.65,4.08-3.93,4.08-3.93,0,0-2.66-3.32-3.8-4.21-.81-.63-1.89.43-1.89.43l2.61,2.78c-8.93-.03-18.79-7.32-19.5-20.74-.08-1.57-2.09-1.62-2.08,0Z"/>
  <path class="cls-34" d="m379.8,318.15c11.89,0,22.68-9.57,22.72-21.38l2.41,2.65s1.11-1.01.54-1.85c-.65-.95-3.93-4.08-3.93-4.08,0,0-3.32,2.66-4.21,3.8-.63.81.43,1.89.43,1.89l2.78-2.61c-.03,8.93-7.32,18.79-20.74,19.5-1.57.08-1.62,2.09,0,2.08Z"/>
  <path class="cls-39" d="m345.37,193.8c0,11.89,9.57,22.68,21.38,22.72l-2.65,2.41s1.01,1.11,1.85.54c.95-.65,4.08-3.93,4.08-3.93,0,0-2.66-3.32-3.8-4.21-.81-.63-1.89.43-1.89.43l2.61,2.78c-8.93-.03-18.79-7.32-19.5-20.74-.08-1.57-2.09-1.62-2.08,0Z"/>
  <path class="cls-34" d="m268.64,216.62c11.89,0,22.68-9.57,22.72-21.38l2.41,2.65s1.11-1.01.54-1.85c-.65-.95-3.93-4.08-3.93-4.08,0,0-3.32,2.66-4.21,3.8-.63.81.43,1.89.43,1.89l2.78-2.61c-.03,8.93-7.32,18.79-20.74,19.5-1.57.08-1.62,2.09,0,2.08Z"/>
  <path class="cls-39" d="m345.18,413.11c21.23,0,21.27-.54,21.27,20.15l2.66-2.72s1.1,1.04.5,1.87c-.85,1.18-4.08,3.95-4.08,3.95,0,0-3.38-3.01-4.07-3.95-.6-.82.48-1.87.48-1.87l2.56,2.72c0-19.11.84-18.08-19.29-18.08-1.51,0-1.51-2.07-.03-2.07Z"/>
  <path class="cls-39" d="m345.18,513.11c21.23,0,21.27-.54,21.27,20.15l2.66-2.72s1.1,1.04.5,1.87c-.85,1.18-4.08,3.95-4.08,3.95,0,0-3.38-3.01-4.07-3.95-.6-.82.48-1.87.48-1.87l2.56,2.72c0-19.11.84-18.08-19.29-18.08-1.51,0-1.51-2.07-.03-2.07Z"/>
  <path class="cls-39" d="m378.64,597.93c0,21.23-.54,21.27,20.15,21.27l-2.72,2.66s1.04,1.1,1.87.5c1.18-.85,3.95-4.08,3.95-4.08,0,0-3.01-3.38-3.95-4.07-.82-.6-1.87.48-1.87.48l2.72,2.56c-19.11,0-18.08.84-18.08-19.29,0-1.51-2.07-1.51-2.07-.03Z"/>
  <path class="cls-39" d="m380.57,696.49c0,21.23-.54,21.27,20.15,21.27l-2.72,2.66s1.04,1.1,1.87.5c1.18-.85,3.95-4.08,3.95-4.08,0,0-3.01-3.38-3.95-4.07-.82-.6-1.87.48-1.87.48l2.72,2.56c-19.11,0-18.08.84-18.08-19.29,0-1.51-2.07-1.51-2.07-.03Z"/>
  <text class="cls-19" transform="translate(547.74 194.93)"><tspan class="cls-27" x="0" y="0">A</tspan><tspan x="9.22" y="0">head</tspan></text>
  <text class="cls-19" transform="translate(545.39 292.46)"><tspan x="0" y="0">B</tspan><tspan class="cls-31" x="9.54" y="0">e</tspan><tspan x="16.73" y="0">hind</tspan></text>
  <text class="cls-19" transform="translate(547.74 414.93)"><tspan class="cls-27" x="0" y="0">A</tspan><tspan x="9.22" y="0">head</tspan></text>
  <text class="cls-19" transform="translate(545.39 512.46)"><tspan x="0" y="0">B</tspan><tspan class="cls-31" x="9.54" y="0">e</tspan><tspan x="16.73" y="0">hind</tspan></text>
  <text class="cls-19" transform="translate(547.74 634.93)"><tspan class="cls-27" x="0" y="0">A</tspan><tspan x="9.22" y="0">head</tspan></text>
  <text class="cls-19" transform="translate(545.39 732.46)"><tspan x="0" y="0">B</tspan><tspan class="cls-31" x="9.54" y="0">e</tspan><tspan x="16.73" y="0">hind</tspan></text>
  <path class="cls-24" d="m372.48,768.79c-.19,8.85-.94,7.8,4.1,7.75.71,0,1.24.12,1.24.84,0,.33-.44.77-1.2.77-4.71,0-4.71.13-5.33-.4-.49-.41-.42-1.9-.42-2.78,0-1.17.02-5.56.1-6.18s.33-.62.75-.62c.38,0,.77.09.76.62Z"/>
  <path class="cls-24" d="m487.39,768.79c-.19,8.85-.94,7.8,4.1,7.75.71,0,1.24.12,1.24.84,0,.33-.44.77-1.2.77-4.71,0-4.71.13-5.33-.4-.49-.41-.42-1.9-.42-2.78,0-1.17.02-5.56.1-6.18.08-.62.33-.62.75-.62.38,0,.77.09.76.62Z"/>
  <path class="cls-24" d="m269.23,678.19c-.46.06-.96-.28-1.19-1.14-.42-1.54-.92-3.7-1.44-5.63-1.11,2.72-1.86,4.39-2.5,4.38-.01,0-.02,0-.03-.01-.01.01-.02.01-.03.01-.64.01-1.39-1.65-2.5-4.38-.51,1.93-1.02,4.09-1.44,5.63-.24.86-.73,1.2-1.19,1.14-.59-.07-.98-.49-.74-1.25.25-.81,1.84-6.07,2.3-7.72.47-1.65,1.59-.9,1.8-.49.21.41,1.36,3.67,1.8,4.59.44-.92,1.59-4.18,1.8-4.59.21-.41,1.33-1.16,1.8.49.46,1.64,2.05,6.9,2.3,7.72.24.76-.15,1.18-.74,1.25Z"/>
  <path class="cls-24" d="m482.17,678.19c-.46.06-.96-.28-1.19-1.14-.42-1.54-.92-3.7-1.44-5.63-1.11,2.72-1.86,4.39-2.5,4.38-.01,0-.02,0-.03-.01-.01.01-.02.01-.03.01-.64.01-1.39-1.65-2.5-4.38-.51,1.93-1.02,4.09-1.44,5.63-.24.86-.73,1.2-1.19,1.14-.59-.07-.98-.49-.74-1.25.25-.81,1.84-6.07,2.3-7.72.47-1.65,1.59-.9,1.8-.49.21.41,1.36,3.67,1.8,4.59.44-.92,1.59-4.18,1.8-4.59.21-.41,1.33-1.16,1.8.49.46,1.64,2.05,6.9,2.3,7.72.24.76-.15,1.18-.74,1.25Z"/>
  <path class="cls-24" d="m267.74,457.51c-.88-2.99-2.31-6.84-2.48-7.31-.18-.46-.78-1.7-1.18-1.7s-1.01,1.24-1.19,1.7c-.17.47-1.6,4.32-2.47,7.31-.24.84.05.91.17.94,1.61.21,1.32-.3,1.57-1.4.23-1,.22-1.46,1-1.46.38,0,.56.01.92.01s.53-.01.91-.01c.78,0,.77.46,1,1.46.25,1.1-.04,1.61,1.57,1.4.12-.03.41-.1.18-.94Zm-2.91-3.37h-1.51c-.14,0-.23-.07-.19-.23l.95-3.45.94,3.45c.04.16-.05.23-.19.23Z"/>
  <path class="cls-24" d="m482.59,457.51c-.88-2.99-2.31-6.84-2.48-7.31-.18-.46-.78-1.7-1.18-1.7s-1.01,1.24-1.19,1.7c-.17.47-1.6,4.32-2.47,7.31-.24.84.05.91.17.94,1.61.21,1.32-.3,1.57-1.4.23-1,.22-1.46,1-1.46.38,0,.56.01.92.01s.53-.01.91-.01c.78,0,.77.46,1,1.46.25,1.1-.04,1.61,1.57,1.4.12-.03.41-.1.18-.94Zm-2.91-3.37h-1.51c-.14,0-.23-.07-.19-.23l.95-3.45.94,3.45c.04.16-.05.23-.19.23Z"/>
  <path class="cls-24" d="m377.85,557.94c.42.55-.07,1.12-.5,1.33-9.15,4.54-8.83-9.42-3.27-9.09,1.07.06,2.05.85,2.39,1.26.25.29.44.81.12,1.16-.34.36-.8.24-1.02,0-4.33-4.56-6.65,9.06,1.11,5.25.45-.22.79-.4,1.16.09Z"/>
  <path class="cls-24" d="m265.82,554.37c.48.44.43.65.44.96s-.23.47-.53.71c-1.75,1.43-2.78,2.44-2.78,2.44,0,0,.42.05,4.42.05.4,0,.79.33.79.78,0,.48-.22.88-.64.88-2.35,0-4.02-.05-5.97-.05-.79,0-1.34-.19-1.52-.57-.17-.36-.12-.9.55-1.52,1.91-1.72,3.47-2.88,3.47-2.88,0,0-2.17-1.97-3.75-3.56-.33-.33-.43-.62-.31-.85.11-.2.55-.57.92-.57h6.71c.74,0,.77,1.31,0,1.31-3.37,0-5.2.02-5.2.02l3.38,2.85Z"/>
  <path class="cls-24" d="m491.87,557.94c.42.55-.07,1.12-.5,1.33-9.15,4.54-8.83-9.42-3.27-9.09,1.07.06,2.05.85,2.39,1.26.25.29.44.81.12,1.16-.34.36-.8.24-1.02,0-4.33-4.56-6.65,9.06,1.11,5.25.45-.22.79-.4,1.16.09Z"/>
  <path class="cls-24" d="m479.96,554.37c.48.44.43.65.44.96s-.23.47-.53.71c-1.75,1.43-2.78,2.44-2.78,2.44,0,0,.42.05,4.42.05.4,0,.79.33.79.78,0,.48-.22.88-.64.88-2.35,0-4.02-.05-5.97-.05-.79,0-1.34-.19-1.52-.57-.17-.36-.12-.9.55-1.52,1.91-1.72,3.47-2.88,3.47-2.88,0,0-2.17-1.97-3.75-3.56-.33-.33-.43-.62-.31-.85.11-.2.55-.57.92-.57h6.71c.74,0,.77,1.31,0,1.31-3.37,0-5.2.02-5.2.02l3.38,2.85Z"/>
  <g>
    <text class="cls-20" transform="translate(46.69 236.24)"><tspan x="0" y="0">Full</tspan><tspan x="-18.5" y="20">Reversal</tspan></text>
    <text class="cls-20" transform="translate(40.68 456.24)"><tspan x="0" y="0">Hand</tspan><tspan x="-12.49" y="20">Reversal</tspan></text>
    <text class="cls-20" transform="translate(44.68 676.24)"><tspan x="0" y="0">Prop</tspan><tspan x="-16.49" y="20">Reversal</tspan></text>
    <g>
      <g>
        <path class="cls-39" d="m173.64,684.53c-38.98.79-48.32-15.14-49.59-35.14-.16-2.47,3.15-2.37,3.31.07,1.74,26.24,22.2,31.66,37.2,31.66,0-33.64,3.5-31.56,29.19-31.56l-4.18-4.09s1.58-1.7,2.85-.78c1.81,1.32,6.08,6.29,6.08,6.29,0,0-4.64,5.17-6.08,6.24-1.27.94-2.85-.72-2.85-.72l4.18-3.95c-24.91,0-26.15-2.18-26.16,28.57h6.06c2.59,0,2.54,3.36,0,3.41Z"/>
        <text class="cls-17" transform="translate(137.54 723.67)"><tspan x="0" y="0">half-line</tspan></text>
        <g>
          <line class="cls-1" x1="163.5" y1="709.67" x2="168.39" y2="693.5"/>
          <polygon class="cls-24" points="170.43 686.74 171.44 697.44 168.23 694.01 163.66 695.09 170.43 686.74"/>
        </g>
      </g>
      <g>
        <path class="cls-39" d="m187.91,465.79c0,.79-.71,1.43-1.57,1.43h-7.04c-1.48,0-2.92-.03-4.33-.09-17.57-.63-29.59-5.93-29.59-30.96,0-2.04,2.97-1.97,2.97.07,0,24.44,12.83,27.89,29.92,27.89.49,0,1.18-.13,1.18-.62,0-31.03.82-30-24.85-30l3.51,3.67s-1.5,1.58-2.69.72c-1.6-1.18-5.3-5.44-5.66-5.86.36-.42,4.06-4.68,5.66-5.86,1.2-.86,2.69.72,2.69.72l-3.51,3.95c27.84,0,27.71,1.18,27.71,33.51h4.05c.86,0,1.57.65,1.57,1.43Z"/>
        <text class="cls-17" transform="translate(134.62 507.88)"><tspan x="0" y="0">half-line</tspan></text>
        <g>
          <line class="cls-1" x1="175.98" y1="491.85" x2="180.87" y2="475.68"/>
          <polygon class="cls-24" points="182.91 468.92 183.92 479.62 180.71 476.19 176.14 477.27 182.91 468.92"/>
        </g>
      </g>
      <g>
        <g>
          <path class="cls-39" d="m175.63,241.28c-.42-12.57-9.11-21.77-23.63-21.77-2.41,0-2.31-3.07,0-3.07,14.55,0,26.24,10.53,26.24,24.84h3.39c0-21.34-15.09-30.28-26.94-30.28l3.54,3.63s-1.51,1.57-2.69.72c-1.7-1.24-5.72-5.93-5.72-5.93,0,0,4.25-4.9,5.66-5.86,1.21-.82,2.75.73,2.75.73l-3.57,3.7c11.53,0,29.85,8.55,29.85,33.24l1.59.05c.86,0,1.57.65,1.57,1.43s-.71,1.43-1.57,1.43h-12.18c-.86,0-1.57-.63-1.57-1.43,0-.78.71-1.43,1.57-1.43h1.71Z"/>
          <text class="cls-17" transform="translate(134.86 283.3)"><tspan x="0" y="0">half-line</tspan></text>
        </g>
        <g>
          <line class="cls-1" x1="174.07" y1="269.36" x2="178.95" y2="253.19"/>
          <polygon class="cls-24" points="180.99 246.43 182.01 257.13 178.8 253.7 174.23 254.78 180.99 246.43"/>
        </g>
      </g>
    </g>
  </g>
</svg>