<?xml version="1.0" encoding="UTF-8"?>
<svg id="Layer_1" data-name="Layer 1" xmlns="http://www.w3.org/2000/svg" viewBox="0 0 612 792">
  <defs>
    <style>
      .cls-1, .cls-2, .cls-3 {
        fill: none;
        stroke: #231f20;
        stroke-miterlimit: 10;
      }

      .cls-4 {
        letter-spacing: -.01em;
      }

      .cls-4, .cls-5, .cls-6, .cls-7, .cls-8, .cls-9, .cls-10, .cls-11, .cls-12, .cls-13, .cls-14, .cls-15, .cls-16, .cls-17, .cls-18, .cls-19 {
        fill: #231f20;
      }

      .cls-4, .cls-5, .cls-7, .cls-9, .cls-12, .cls-14, .cls-16, .cls-17, .cls-19 {
        font-family: Cambria, Cambria;
      }

      .cls-20, .cls-21 {
        fill: #ed1c24;
      }

      .cls-20, .cls-22 {
        font-family: Cambria-Bold, Cambria;
        font-weight: 700;
      }

      .cls-5 {
        letter-spacing: 0em;
      }

      .cls-6 {
        font-size: 40px;
      }

      .cls-6, .cls-15 {
        font-family: MonotypeCorsiva, 'Monotype Corsiva';
      }

      .cls-23, .cls-22 {
        fill: #2e3192;
      }

      .cls-7 {
        letter-spacing: -.02em;
      }

      .cls-8, .cls-10, .cls-11, .cls-13 {
        font-family: Cambria-Italic, Cambria;
        font-style: italic;
      }

      .cls-24 {
        letter-spacing: -.01em;
      }

      .cls-2 {
        stroke-width: 2px;
      }

      .cls-10, .cls-25 {
        font-size: 15px;
      }

      .cls-11, .cls-26 {
        letter-spacing: 0em;
      }

      .cls-12 {
        letter-spacing: -.02em;
      }

      .cls-27 {
        letter-spacing: 0em;
      }

      .cls-13 {
        font-size: 16px;
      }

      .cls-14 {
        letter-spacing: -.01em;
      }

      .cls-15 {
        font-size: 25px;
      }

      .cls-28 {
        letter-spacing: 0em;
      }

      .cls-16, .cls-29 {
        letter-spacing: -.02em;
      }

      .cls-3 {
        stroke-width: .5px;
      }

      .cls-17 {
        letter-spacing: -.01em;
      }

      .cls-30 {
        fill: #010101;
      }

      .cls-19 {
        letter-spacing: 0em;
      }
    </style>
  </defs>
  <text class="cls-6" transform="translate(126.87 40.27)"><tspan x="0" y="0">Reversal | Stagger - Anti</tspan></text>
  <text class="cls-25" transform="translate(68.21 77.42)"><tspan class="cls-9" x="0" y="0">He</tspan><tspan class="cls-4" x="17.61" y="0">r</tspan><tspan class="cls-9" x="23.6" y="0">e a</tspan><tspan class="cls-4" x="41.54" y="0">r</tspan><tspan class="cls-9" x="47.53" y="0">e </tspan><tspan class="cls-17" x="58.15" y="0">e</tspan><tspan class="cls-14" x="65.29" y="0">x</tspan><tspan class="cls-9" x="72.33" y="0">amples of (staggers | </tspan><tspan class="cls-7" x="208.14" y="0">d</tspan><tspan class="cls-12" x="216.16" y="0">y</tspan><tspan class="cls-9" x="223.4" y="0">adic </tspan><tspan class="cls-4" x="253.12" y="0">r</tspan><tspan class="cls-19" x="259.11" y="0">e</tspan><tspan class="cls-16" x="266.28" y="0">v</tspan><tspan class="cls-9" x="273.54" y="0">ersals) starting in antispin. (</tspan><tspan class="cls-22" x="453.98" y="0">left</tspan><tspan class="cls-9" x="476.93" y="0">)</tspan><tspan class="cls-9"><tspan x="40.11" y="36">A</tspan><tspan class="cls-27" x="49.46" y="36">g</tspan><tspan x="56.74" y="36">ain, obser</tspan><tspan class="cls-29" x="119.12" y="36">v</tspan><tspan x="126.39" y="36">e h</tspan><tspan class="cls-28" x="145.29" y="36">o</tspan><tspan x="153.18" y="36">w an accompa</tspan><tspan class="cls-29" x="243.75" y="36">n</tspan><tspan x="251.83" y="36">ying half-line at the beginning </tspan></tspan><tspan class="cls-9" x="45.61" y="54">of the </tspan><tspan class="cls-20" x="85.39" y="54">base </tspan><tspan class="cls-9" x="120.43" y="54">motion changes the stagger f</tspan><tspan class="cls-4" x="303.82" y="54">r</tspan><tspan class="cls-9" x="309.81" y="54">om </tspan><tspan class="cls-8" x="333.55" y="54">ahead </tspan><tspan class="cls-5" x="375.3" y="54">t</tspan><tspan class="cls-9" x="380.24" y="54">o </tspan><tspan class="cls-8" x="391.51" y="54">b</tspan><tspan class="cls-11" x="399.32" y="54">e</tspan><tspan class="cls-8" x="406.07" y="54">hind</tspan><tspan class="cls-9" x="433.97" y="54">. </tspan></text>
  <line class="cls-2" x1="66.57" y1="353.77" x2="582.6" y2="353.77"/>
  <line class="cls-3" x1="524.7" y1="468.77" x2="224.09" y2="468.77"/>
  <line class="cls-3" x1="524.7" y1="248.77" x2="224.09" y2="248.77"/>
  <line class="cls-3" x1="524.7" y1="688.77" x2="224.09" y2="688.77"/>
  <line class="cls-2" x1="66.57" y1="573.77" x2="582.6" y2="573.77"/>
  <g>
    <circle class="cls-18" cx="476.95" cy="158.85" r="2.5"/>
    <circle class="cls-18" cx="506.95" cy="188.85" r="2.5"/>
    <circle class="cls-18" cx="476.95" cy="218.85" r="2.5"/>
    <circle class="cls-18" cx="446.95" cy="188.85" r="2.5"/>
    <circle class="cls-18" cx="476.95" cy="188.85" r="1.12"/>
  </g>
  <path class="cls-21" d="m509.32,740.06s-2.77-3.23-3.95-4.08c-.82-.6-1.87.5-1.87.5l2.73,2.66c-18.49,0-20.09,1.8-20.15,20.18h-2.74c-.6,0-1.09.49-1.09,1.08s.49,1.08,1.09,1.08h7.56c.6,0,1.09-.48,1.09-1.08,0-.59-.49-1.08-1.09-1.08h-2.75c.04-17.27,1.15-18.23,18.08-18.23l-2.73,2.56s1.05,1.08,1.87.48c.94-.69,3.95-4.07,3.95-4.07Z"/>
  <path class="cls-21" d="m508.17,296.84s-2.77-3.23-3.95-4.08c-.82-.6-1.87.5-1.87.5l2.73,2.66c-18.49,0-20.09,1.8-20.15,20.18h-2.74c-.6,0-1.09.49-1.09,1.08,0,.6.49,1.08,1.09,1.08h7.56c.6,0,1.09-.48,1.09-1.08s-.49-1.08-1.09-1.08h-2.75c.04-17.27,1.15-18.23,18.08-18.23l-2.73,2.56s1.05,1.08,1.87.48c.94-.69,3.95-4.07,3.95-4.07Z"/>
  <path class="cls-21" d="m507.77,499.71s-2.77,3.23-3.95,4.08c-.82.6-1.87-.5-1.87-.5l2.73-2.66c-18.49,0-20.09-1.8-20.15-20.18h-2.74c-.6,0-1.09-.49-1.09-1.08,0-.6.49-1.08,1.09-1.08h7.56c.6,0,1.09.48,1.09,1.08,0,.59-.49,1.08-1.09,1.08h-2.75c.04,17.27,1.15,18.23,18.08,18.23l-2.73-2.56s1.05-1.08,1.87-.48c.94.69,3.95,4.07,3.95,4.07Z"/>
  <g>
    <g>
      <circle class="cls-18" cx="476.95" cy="158.85" r="2.5"/>
      <circle class="cls-18" cx="506.95" cy="188.85" r="2.5"/>
      <circle class="cls-18" cx="476.95" cy="218.85" r="2.5"/>
      <circle class="cls-18" cx="446.95" cy="188.85" r="2.5"/>
      <circle class="cls-18" cx="476.95" cy="188.85" r="1.12"/>
    </g>
    <g>
      <circle class="cls-18" cx="476.95" cy="258.85" r="2.5"/>
      <circle class="cls-18" cx="506.95" cy="288.85" r="2.5"/>
      <circle class="cls-18" cx="476.95" cy="318.85" r="2.5"/>
      <circle class="cls-18" cx="446.95" cy="288.85" r="2.5"/>
      <circle class="cls-18" cx="476.95" cy="288.85" r="1.12"/>
    </g>
    <g>
      <circle class="cls-18" cx="476.95" cy="378.85" r="2.5"/>
      <circle class="cls-18" cx="506.95" cy="408.85" r="2.5"/>
      <circle class="cls-18" cx="476.95" cy="438.85" r="2.5"/>
      <circle class="cls-18" cx="446.95" cy="408.85" r="2.5"/>
      <circle class="cls-18" cx="476.95" cy="408.85" r="1.12"/>
    </g>
    <g>
      <circle class="cls-18" cx="476.95" cy="478.85" r="2.5"/>
      <circle class="cls-18" cx="506.95" cy="508.85" r="2.5"/>
      <circle class="cls-18" cx="476.95" cy="538.85" r="2.5"/>
      <circle class="cls-18" cx="446.95" cy="508.85" r="2.5"/>
      <circle class="cls-18" cx="476.95" cy="508.85" r="1.12"/>
    </g>
    <g>
      <circle class="cls-18" cx="476.95" cy="598.85" r="2.5"/>
      <circle class="cls-18" cx="506.95" cy="628.85" r="2.5"/>
      <circle class="cls-18" cx="476.95" cy="658.85" r="2.5"/>
      <circle class="cls-18" cx="446.95" cy="628.85" r="2.5"/>
      <circle class="cls-18" cx="476.95" cy="628.85" r="1.12"/>
    </g>
    <g>
      <circle class="cls-18" cx="476.95" cy="698.85" r="2.5"/>
      <circle class="cls-18" cx="506.95" cy="728.85" r="2.5"/>
      <circle class="cls-18" cx="476.95" cy="758.85" r="2.5"/>
      <circle class="cls-18" cx="446.95" cy="728.85" r="2.5"/>
      <circle class="cls-18" cx="476.95" cy="728.85" r="1.12"/>
    </g>
    <g>
      <circle class="cls-18" cx="366.95" cy="218.85" r="2.5"/>
      <circle class="cls-18" cx="396.95" cy="188.85" r="2.5"/>
      <circle class="cls-18" cx="366.95" cy="158.85" r="2.5"/>
      <circle class="cls-18" cx="336.95" cy="188.85" r="2.5"/>
      <circle class="cls-18" cx="366.95" cy="188.85" r="1.12"/>
    </g>
    <g>
      <circle class="cls-18" cx="256.95" cy="218.85" r="2.5"/>
      <circle class="cls-18" cx="286.95" cy="188.85" r="2.5"/>
      <circle class="cls-18" cx="256.95" cy="158.85" r="2.5"/>
      <circle class="cls-18" cx="226.95" cy="188.85" r="2.5"/>
      <circle class="cls-18" cx="256.95" cy="188.85" r="1.12"/>
    </g>
    <g>
      <circle class="cls-18" cx="366.95" cy="318.85" r="2.5"/>
      <circle class="cls-18" cx="396.95" cy="288.85" r="2.5"/>
      <circle class="cls-18" cx="366.95" cy="258.85" r="2.5"/>
      <circle class="cls-18" cx="336.95" cy="288.85" r="2.5"/>
      <circle class="cls-18" cx="366.95" cy="288.85" r="1.12"/>
    </g>
    <g>
      <circle class="cls-18" cx="256.95" cy="318.85" r="2.5"/>
      <circle class="cls-18" cx="286.95" cy="288.85" r="2.5"/>
      <circle class="cls-18" cx="256.95" cy="258.85" r="2.5"/>
      <circle class="cls-18" cx="226.95" cy="288.85" r="2.5"/>
      <circle class="cls-18" cx="256.95" cy="288.85" r="1.12"/>
    </g>
    <g>
      <circle class="cls-18" cx="366.95" cy="438.85" r="2.5"/>
      <circle class="cls-18" cx="396.95" cy="408.85" r="2.5"/>
      <circle class="cls-18" cx="366.95" cy="378.85" r="2.5"/>
      <circle class="cls-18" cx="336.95" cy="408.85" r="2.5"/>
      <circle class="cls-18" cx="366.95" cy="408.85" r="1.12"/>
    </g>
    <g>
      <circle class="cls-18" cx="256.95" cy="438.85" r="2.5"/>
      <circle class="cls-18" cx="286.95" cy="408.85" r="2.5"/>
      <circle class="cls-18" cx="256.95" cy="378.85" r="2.5"/>
      <circle class="cls-18" cx="226.95" cy="408.85" r="2.5"/>
      <circle class="cls-18" cx="256.95" cy="408.85" r="1.12"/>
    </g>
    <g>
      <circle class="cls-18" cx="366.95" cy="538.85" r="2.5"/>
      <circle class="cls-18" cx="396.95" cy="508.85" r="2.5"/>
      <circle class="cls-18" cx="366.95" cy="478.85" r="2.5"/>
      <circle class="cls-18" cx="336.95" cy="508.85" r="2.5"/>
      <circle class="cls-18" cx="366.95" cy="508.85" r="1.12"/>
    </g>
    <g>
      <circle class="cls-18" cx="256.95" cy="538.85" r="2.5"/>
      <circle class="cls-18" cx="286.95" cy="508.85" r="2.5"/>
      <circle class="cls-18" cx="256.95" cy="478.85" r="2.5"/>
      <circle class="cls-18" cx="226.95" cy="508.85" r="2.5"/>
      <circle class="cls-18" cx="256.95" cy="508.85" r="1.12"/>
    </g>
    <g>
      <circle class="cls-18" cx="366.95" cy="658.85" r="2.5"/>
      <circle class="cls-18" cx="396.95" cy="628.85" r="2.5"/>
      <circle class="cls-18" cx="366.95" cy="598.85" r="2.5"/>
      <circle class="cls-18" cx="336.95" cy="628.85" r="2.5"/>
      <circle class="cls-18" cx="366.95" cy="628.85" r="1.12"/>
    </g>
    <g>
      <circle class="cls-18" cx="256.95" cy="658.85" r="2.5"/>
      <circle class="cls-18" cx="286.95" cy="628.85" r="2.5"/>
      <circle class="cls-18" cx="256.95" cy="598.85" r="2.5"/>
      <circle class="cls-18" cx="226.95" cy="628.85" r="2.5"/>
      <circle class="cls-18" cx="256.95" cy="628.85" r="1.12"/>
    </g>
    <g>
      <circle class="cls-18" cx="366.95" cy="758.85" r="2.5"/>
      <circle class="cls-18" cx="396.95" cy="728.85" r="2.5"/>
      <circle class="cls-18" cx="366.95" cy="698.85" r="2.5"/>
      <circle class="cls-18" cx="336.95" cy="728.85" r="2.5"/>
      <circle class="cls-18" cx="366.95" cy="728.85" r="1.12"/>
    </g>
    <g>
      <circle class="cls-18" cx="256.95" cy="758.85" r="2.5"/>
      <circle class="cls-18" cx="286.95" cy="728.85" r="2.5"/>
      <circle class="cls-18" cx="256.95" cy="698.85" r="2.5"/>
      <circle class="cls-18" cx="226.95" cy="728.85" r="2.5"/>
      <circle class="cls-18" cx="256.95" cy="728.85" r="1.12"/>
    </g>
  </g>
  <g>
    <rect class="cls-18" x="412.86" y="183.65" width="18.18" height="3.19"/>
    <rect class="cls-18" x="412.86" y="190.87" width="18.18" height="3.19"/>
    <polygon class="cls-30" points="303.56 187.76 315.39 187.76 315.39 183.96 321.64 188.85 315.39 193.74 315.39 189.94 303.56 189.94 303.56 187.76"/>
    <rect class="cls-18" x="412.86" y="283.65" width="18.18" height="3.19"/>
    <rect class="cls-18" x="412.86" y="290.87" width="18.18" height="3.19"/>
    <polygon class="cls-30" points="303.56 287.76 315.39 287.76 315.39 283.96 321.64 288.85 315.39 293.74 315.39 289.94 303.56 289.94 303.56 287.76"/>
    <rect class="cls-18" x="412.86" y="403.65" width="18.18" height="3.19"/>
    <rect class="cls-18" x="412.86" y="410.87" width="18.18" height="3.19"/>
    <polygon class="cls-30" points="303.56 407.76 315.39 407.76 315.39 403.96 321.64 408.85 315.39 413.74 315.39 409.94 303.56 409.94 303.56 407.76"/>
    <rect class="cls-18" x="412.86" y="503.65" width="18.18" height="3.19"/>
    <rect class="cls-18" x="412.86" y="510.87" width="18.18" height="3.19"/>
    <polygon class="cls-30" points="303.56 507.76 315.39 507.76 315.39 503.96 321.64 508.85 315.39 513.74 315.39 509.94 303.56 509.94 303.56 507.76"/>
    <rect class="cls-18" x="412.86" y="623.65" width="18.18" height="3.19"/>
    <rect class="cls-18" x="412.86" y="630.87" width="18.18" height="3.19"/>
    <polygon class="cls-30" points="303.56 627.76 315.39 627.76 315.39 623.96 321.64 628.85 315.39 633.74 315.39 629.94 303.56 629.94 303.56 627.76"/>
    <rect class="cls-18" x="412.86" y="723.65" width="18.18" height="3.19"/>
    <rect class="cls-18" x="412.86" y="730.87" width="18.18" height="3.19"/>
    <polygon class="cls-30" points="303.56 727.76 315.39 727.76 315.39 723.96 321.64 728.85 315.39 733.74 315.39 729.94 303.56 729.94 303.56 727.76"/>
  </g>
  <g>
    <path class="cls-21" d="m282.85,192.6c-.5,0-.92-.39-.92-.87v-1.82s-22.29,0-22.29,0c-.49,0-.89-.39-.89-.85v-.42c0-.46.4-.85.89-.85h22.29s0-1.82,0-1.82c0-.48.42-.87.92-.87.5,0,.91.39.91.87v5.76c0,.48-.41.87-.91.87Z"/>
    <path class="cls-23" d="m231.04,185.1c.5,0,.92.39.92.87v1.82h22.29c.49,0,.89.39.89.85v.42c0,.46-.4.85-.89.85h-22.29v1.82c0,.48-.42.87-.92.87s-.91-.39-.91-.87v-5.76c0-.48.41-.87.91-.87Z"/>
    <path class="cls-21" d="m392.85,192.6c-.5,0-.92-.39-.92-.87v-1.82s-22.29,0-22.29,0c-.49,0-.89-.39-.89-.85v-.42c0-.46.4-.85.89-.85h22.29s0-1.82,0-1.82c0-.48.42-.87.92-.87.5,0,.91.39.91.87v5.76c0,.48-.41.87-.91.87Z"/>
    <path class="cls-23" d="m370.7,191.57c0,.5-.39.92-.87.92h-1.82s0,22.29,0,22.29c0,.49-.39.89-.85.89h-.42c-.46,0-.85-.4-.85-.89v-22.29s-1.82,0-1.82,0c-.48,0-.87-.42-.87-.92s.39-.91.87-.91h5.76c.48,0,.87.41.87.91Z"/>
    <path class="cls-21" d="m479.67,185.1c.5,0,.92.39.92.87v1.82s22.29,0,22.29,0c.49,0,.89.39.89.85v.42c0,.46-.4.85-.89.85h-22.29s0,1.82,0,1.82c0,.48-.42.87-.92.87s-.91-.39-.91-.87v-5.76c0-.48.41-.87.91-.87Z"/>
    <path class="cls-23" d="m480.7,191.57c0,.5-.39.92-.87.92h-1.82s0,22.29,0,22.29c0,.49-.39.89-.85.89h-.42c-.46,0-.85-.4-.85-.89v-22.29s-1.82,0-1.82,0c-.48,0-.87-.42-.87-.92s.39-.91.87-.91h5.76c.48,0,.87.41.87.91Z"/>
    <path class="cls-23" d="m254.23,512.6c-.5,0-.92-.39-.92-.87v-1.82h-22.29c-.49,0-.89-.39-.89-.85v-.42c0-.46.4-.85.89-.85h22.29v-1.82c0-.48.42-.87.92-.87s.91.39.91.87v5.76c0,.48-.41.87-.91.87Z"/>
    <path class="cls-21" d="m253.2,506.13c0-.5.39-.92.87-.92h1.82s0-22.29,0-22.29c0-.49.39-.89.85-.89h.42c.46,0,.85.4.85.89v22.29s1.82,0,1.82,0c.48,0,.87.42.87.92s-.39.91-.87.91h-5.76c-.48,0-.87-.41-.87-.91Z"/>
    <path class="cls-23" d="m363.2,534.76c0-.5.39-.92.87-.92h1.82v-22.29c0-.49.39-.89.85-.89h.42c.46,0,.85.4.85.89v22.29h1.82c.48,0,.87.42.87.92s-.39.91-.87.91h-5.76c-.48,0-.87-.41-.87-.91Z"/>
    <path class="cls-21" d="m392.85,512.6c-.5,0-.92-.39-.92-.87v-1.82s-22.29,0-22.29,0c-.49,0-.89-.39-.89-.85v-.42c0-.46.4-.85.89-.85h22.29s0-1.82,0-1.82c0-.48.42-.87.92-.87s.91.39.91.87v5.76c0,.48-.41.87-.91.87Z"/>
    <path class="cls-23" d="m473.2,534.76c0-.5.39-.92.87-.92h1.82v-22.29c0-.49.39-.89.85-.89h.42c.46,0,.85.4.85.89v22.29h1.82c.48,0,.87.42.87.92s-.39.91-.87.91h-5.76c-.48,0-.87-.41-.87-.91Z"/>
    <path class="cls-21" d="m502.85,512.6c-.5,0-.92-.39-.92-.87v-1.82s-22.29,0-22.29,0c-.49,0-.89-.39-.89-.85v-.42c0-.46.4-.85.89-.85h22.29s0-1.82,0-1.82c0-.48.42-.87.92-.87s.91.39.91.87v5.76c0,.48-.41.87-.91.87Z"/>
    <path class="cls-23" d="m253.2,626.13c0-.5.39-.92.87-.92h1.82v-22.29c0-.49.39-.89.85-.89h.42c.46,0,.85.4.85.89v22.29h1.82c.48,0,.87.42.87.92s-.39.91-.87.91h-5.76c-.48,0-.87-.41-.87-.91Z"/>
    <path class="cls-21" d="m282.85,632.6c-.5,0-.92-.39-.92-.87v-1.82s-22.29,0-22.29,0c-.49,0-.89-.39-.89-.85v-.42c0-.46.4-.85.89-.85h22.29s0-1.82,0-1.82c0-.48.42-.87.92-.87s.91.39.91.87v5.76c0,.48-.41.87-.91.87Z"/>
    <path class="cls-23" d="m502.85,630.1c-.5,0-.92-.39-.92-.87v-1.82s-22.29,0-22.29,0c-.49,0-.89-.39-.89-.85v-.42c0-.46.4-.85.89-.85h22.29s0-1.82,0-1.82c0-.48.42-.87.92-.87s.91.39.91.87v5.76c0,.48-.41.87-.91.87Z"/>
    <path class="cls-21" d="m502.85,635.1c-.5,0-.92-.39-.92-.87v-1.82s-22.29,0-22.29,0c-.49,0-.89-.39-.89-.85v-.42c0-.46.4-.85.89-.85h22.29s0-1.82,0-1.82c0-.48.42-.87.92-.87s.91.39.91.87v5.76c0,.48-.41.87-.91.87Z"/>
    <path class="cls-23" d="m392.85,630.1c-.5,0-.92-.39-.92-.87v-1.82s-22.29,0-22.29,0c-.49,0-.89-.39-.89-.85v-.42c0-.46.4-.85.89-.85h22.29s0-1.82,0-1.82c0-.48.42-.87.92-.87s.91.39.91.87v5.76c0,.48-.41.87-.91.87Z"/>
    <path class="cls-21" d="m392.85,635.1c-.5,0-.92-.39-.92-.87v-1.82s-22.29,0-22.29,0c-.49,0-.89-.39-.89-.85v-.42c0-.46.4-.85.89-.85h22.29s0-1.82,0-1.82c0-.48.42-.87.92-.87s.91.39.91.87v5.76c0,.48-.41.87-.91.87Z"/>
    <path class="cls-23" d="m253.2,726.13c0-.5.39-.92.87-.92h1.82v-22.29c0-.49.39-.89.85-.89h.42c.46,0,.85.4.85.89v22.29h1.82c.48,0,.87.42.87.92s-.39.91-.87.91h-5.76c-.48,0-.87-.41-.87-.91Z"/>
    <path class="cls-21" d="m260.7,731.57c0,.5-.39.92-.87.92h-1.82s0,22.29,0,22.29c0,.49-.39.89-.85.89h-.42c-.46,0-.85-.4-.85-.89v-22.29s-1.82,0-1.82,0c-.48,0-.87-.42-.87-.92s.39-.91.87-.91h5.76c.48,0,.87.41.87.91Z"/>
    <path class="cls-23" d="m502.85,730.1c-.5,0-.92-.39-.92-.87v-1.82s-22.29,0-22.29,0c-.49,0-.89-.39-.89-.85v-.42c0-.46.4-.85.89-.85h22.29s0-1.82,0-1.82c0-.48.42-.87.92-.87s.91.39.91.87v5.76c0,.48-.41.87-.91.87Z"/>
    <path class="cls-21" d="m502.85,735.1c-.5,0-.92-.39-.92-.87v-1.82s-22.29,0-22.29,0c-.49,0-.89-.39-.89-.85v-.42c0-.46.4-.85.89-.85h22.29s0-1.82,0-1.82c0-.48.42-.87.92-.87s.91.39.91.87v5.76c0,.48-.41.87-.91.87Z"/>
    <path class="cls-23" d="m392.85,730.1c-.5,0-.92-.39-.92-.87v-1.82s-22.29,0-22.29,0c-.49,0-.89-.39-.89-.85v-.42c0-.46.4-.85.89-.85h22.29s0-1.82,0-1.82c0-.48.42-.87.92-.87s.91.39.91.87v5.76c0,.48-.41.87-.91.87Z"/>
    <path class="cls-21" d="m392.85,735.1c-.5,0-.92-.39-.92-.87v-1.82s-22.29,0-22.29,0c-.49,0-.89-.39-.89-.85v-.42c0-.46.4-.85.89-.85h22.29s0-1.82,0-1.82c0-.48.42-.87.92-.87s.91.39.91.87v5.76c0,.48-.41.87-.91.87Z"/>
    <path class="cls-23" d="m231.04,405.1c.5,0,.92.39.92.87v1.82h22.29c.49,0,.89.39.89.85v.42c0,.46-.4.85-.89.85h-22.29v1.82c0,.48-.42.87-.92.87s-.91-.39-.91-.87v-5.76c0-.48.41-.87.91-.87Z"/>
    <path class="cls-21" d="m282.85,412.6c-.5,0-.92-.39-.92-.87v-1.82s-22.29,0-22.29,0c-.49,0-.89-.39-.89-.85v-.42c0-.46.4-.85.89-.85h22.29s0-1.82,0-1.82c0-.48.42-.87.92-.87s.91.39.91.87v5.76c0,.48-.41.87-.91.87Z"/>
    <path class="cls-23" d="m363.2,434.76c0-.5.39-.92.87-.92h1.82v-22.29c0-.49.39-.89.85-.89h.42c.46,0,.85.4.85.89v22.29h1.82c.48,0,.87.42.87.92s-.39.91-.87.91h-5.76c-.48,0-.87-.41-.87-.91Z"/>
    <path class="cls-21" d="m392.85,412.6c-.5,0-.92-.39-.92-.87v-1.82s-22.29,0-22.29,0c-.49,0-.89-.39-.89-.85v-.42c0-.46.4-.85.89-.85h22.29s0-1.82,0-1.82c0-.48.42-.87.92-.87s.91.39.91.87v5.76c0,.48-.41.87-.91.87Z"/>
    <path class="cls-23" d="m473.2,434.76c0-.5.39-.92.87-.92h1.82v-22.29c0-.49.39-.89.85-.89h.42c.46,0,.85.4.85.89v22.29h1.82c.48,0,.87.42.87.92s-.39.91-.87.91h-5.76c-.48,0-.87-.41-.87-.91Z"/>
    <path class="cls-21" d="m502.85,412.6c-.5,0-.92-.39-.92-.87v-1.82s-22.29,0-22.29,0c-.49,0-.89-.39-.89-.85v-.42c0-.46.4-.85.89-.85h22.29s0-1.82,0-1.82c0-.48.42-.87.92-.87s.91.39.91.87v5.76c0,.48-.41.87-.91.87Z"/>
    <path class="cls-21" d="m260.7,291.57c0,.5-.39.92-.87.92h-1.82v22.29c0,.49-.39.89-.85.89h-.42c-.46,0-.85-.4-.85-.89v-22.29h-1.82c-.48,0-.87-.42-.87-.92s.39-.91.87-.91h5.76c.48,0,.87.41.87.91Z"/>
    <path class="cls-23" d="m231.04,285.1c.5,0,.92.39.92.87v1.82h22.29c.49,0,.89.39.89.85v.42c0,.46-.4.85-.89.85h-22.29v1.82c0,.48-.42.87-.92.87s-.91-.39-.91-.87v-5.76c0-.48.41-.87.91-.87Z"/>
    <path class="cls-21" d="m392.85,292.6c-.5,0-.92-.39-.92-.87v-1.82s-22.29,0-22.29,0c-.49,0-.89-.39-.89-.85v-.42c0-.46.4-.85.89-.85h22.29s0-1.82,0-1.82c0-.48.42-.87.92-.87.5,0,.91.39.91.87v5.76c0,.48-.41.87-.91.87Z"/>
    <path class="cls-23" d="m370.7,291.57c0,.5-.39.92-.87.92h-1.82s0,22.29,0,22.29c0,.49-.39.89-.85.89h-.42c-.46,0-.85-.4-.85-.89v-22.29s-1.82,0-1.82,0c-.48,0-.87-.42-.87-.92s.39-.91.87-.91h5.76c.48,0,.87.41.87.91Z"/>
    <path class="cls-21" d="m479.67,285.1c.5,0,.92.39.92.87v1.82s22.29,0,22.29,0c.49,0,.89.39.89.85v.42c0,.46-.4.85-.89.85h-22.29s0,1.82,0,1.82c0,.48-.42.87-.92.87s-.91-.39-.91-.87v-5.76c0-.48.41-.87.91-.87Z"/>
    <path class="cls-23" d="m480.7,291.57c0,.5-.39.92-.87.92h-1.82s0,22.29,0,22.29c0,.49-.39.89-.85.89h-.42c-.46,0-.85-.4-.85-.89v-22.29s-1.82,0-1.82,0c-.48,0-.87-.42-.87-.92s.39-.91.87-.91h5.76c.48,0,.87.41.87.91Z"/>
  </g>
  <text class="cls-13" transform="translate(540.6 194.93)"><tspan class="cls-24" x="0" y="0">A</tspan><tspan x="9.22" y="0">head</tspan></text>
  <text class="cls-13" transform="translate(538.26 292.46)"><tspan x="0" y="0">B</tspan><tspan class="cls-26" x="9.54" y="0">e</tspan><tspan x="16.73" y="0">hind</tspan></text>
  <text class="cls-13" transform="translate(540.6 414.93)"><tspan class="cls-24" x="0" y="0">A</tspan><tspan x="9.22" y="0">head</tspan></text>
  <text class="cls-13" transform="translate(538.26 512.46)"><tspan x="0" y="0">B</tspan><tspan class="cls-26" x="9.54" y="0">e</tspan><tspan x="16.73" y="0">hind</tspan></text>
  <text class="cls-13" transform="translate(540.6 634.93)"><tspan class="cls-24" x="0" y="0">A</tspan><tspan x="9.22" y="0">head</tspan></text>
  <text class="cls-13" transform="translate(538.26 732.46)"><tspan x="0" y="0">B</tspan><tspan class="cls-26" x="9.54" y="0">e</tspan><tspan x="16.73" y="0">hind</tspan></text>
  <path class="cls-23" d="m337.07,413.8c0,11.89,9.57,22.68,21.38,22.72l-2.65,2.41s1.01,1.11,1.85.54c.95-.65,4.08-3.93,4.08-3.93,0,0-2.66-3.32-3.8-4.21-.81-.63-1.89.43-1.89.43l2.61,2.78c-8.93-.03-18.79-7.32-19.5-20.74-.08-1.57-2.09-1.62-2.08,0Z"/>
  <path class="cls-23" d="m372.85,597.13c11.89,0,22.68,9.57,22.72,21.38l2.41-2.65s1.11,1.01.54,1.85c-.65.95-3.93,4.08-3.93,4.08,0,0-3.32-2.66-4.21-3.8-.63-.81.43-1.89.43-1.89l2.78,2.61c-.03-8.93-7.32-18.79-20.74-19.5-1.57-.08-1.62-2.09,0-2.08Z"/>
  <path class="cls-23" d="m337.07,514.86c0,11.89,9.57,22.68,21.38,22.72l-2.65,2.41s1.01,1.11,1.85.54c.95-.65,4.08-3.93,4.08-3.93,0,0-2.66-3.32-3.8-4.21-.81-.63-1.89.43-1.89.43l2.61,2.78c-8.93-.03-18.79-7.32-19.5-20.74-.08-1.57-2.09-1.62-2.08,0Z"/>
  <path class="cls-21" d="m483.7,217.07c0-19.4,1.3-21.27,20.15-21.27l-2.72-2.66s1.04-1.1,1.87-.5c1.18.85,3.95,4.08,3.95,4.08,0,0-3.01,3.38-3.95,4.07-.82.6-1.87-.48-1.87-.48l2.72-2.56c-17.27,0-18.08,1-18.08,19.29,0,1.51-2.07,1.51-2.07.03Z"/>
  <path class="cls-23" d="m252.67,217.6c0-19.4-1.3-21.27-20.15-21.27l2.72-2.66s-1.04-1.1-1.87-.5c-1.18.85-3.95,4.08-3.95,4.08,0,0,3.01,3.38,3.95,4.07.82.6,1.87-.48,1.87-.48l-2.72-2.56c17.27,0,18.08,1,18.08,19.29,0,1.51,2.07,1.51,2.07.03Z"/>
  <path class="cls-23" d="m252.67,317.18c0-19.4-1.3-21.27-20.15-21.27l2.72-2.66s-1.04-1.1-1.87-.5c-1.18.85-3.95,4.08-3.95,4.08,0,0,3.01,3.38,3.95,4.07.82.6,1.87-.48,1.87-.48l-2.72-2.56c17.27,0,18.08,1,18.08,19.29,0,1.51,2.07,1.51,2.07.03Z"/>
  <path class="cls-23" d="m338.73,292.7c19.4,0,21.27,1.3,21.27,20.15l2.66-2.72s1.1,1.04.5,1.87c-.85,1.18-4.08,3.95-4.08,3.95,0,0-3.38-3.01-4.07-3.95-.6-.82.48-1.87.48-1.87l2.56,2.72c0-17.27-1-18.08-19.29-18.08-1.51,0-1.51-2.07-.03-2.07Z"/>
  <path class="cls-23" d="m252.67,438.35c0-19.4-1.3-21.27-20.15-21.27l2.72-2.66s-1.04-1.1-1.87-.5c-1.18.85-3.95,4.08-3.95,4.08,0,0,3.01,3.38,3.95,4.07.82.6,1.87-.48,1.87-.48l-2.72-2.56c17.27,0,18.08,1,18.08,19.29,0,1.51,2.07,1.51,2.07.03Z"/>
  <path class="cls-23" d="m229.07,624.6c19.4,0,21.27-1.3,21.27-20.15l2.66,2.72s1.1-1.04.5-1.87c-.85-1.18-4.08-3.95-4.08-3.95,0,0-3.38,3.01-4.07,3.95-.6.82.48,1.87.48,1.87l2.56-2.72c0,17.27-1,18.08-19.29,18.08-1.51,0-1.51,2.07-.03,2.07Z"/>
  <path class="cls-23" d="m372.85,696.18c11.89,0,22.68,9.57,22.72,21.38l2.41-2.65s1.11,1.01.54,1.85c-.65.95-3.93,4.08-3.93,4.08,0,0-3.32-2.66-4.21-3.8-.63-.81.43-1.89.43-1.89l2.78,2.61c-.03-8.93-7.32-18.79-20.74-19.5-1.57-.08-1.62-2.09,0-2.08Z"/>
  <path class="cls-23" d="m229.07,723.65c19.4,0,21.27-1.3,21.27-20.15l2.66,2.72s1.1-1.04.5-1.87c-.85-1.18-4.08-3.95-4.08-3.95,0,0-3.38,3.01-4.07,3.95-.6.82.48,1.87.48,1.87l2.56-2.72c0,17.27-1,18.08-19.29,18.08-1.51,0-1.51,2.07-.03,2.07Z"/>
  <path class="cls-21" d="m261.2,656.73c0-19.4,1.3-21.27,20.15-21.27l-2.72-2.66s1.04-1.1,1.87-.5c1.18.85,3.95,4.08,3.95,4.08,0,0-3.01,3.38-3.95,4.07-.82.6-1.87-.48-1.87-.48l2.72-2.56c-17.27,0-18.08,1-18.08,19.29,0,1.51-2.07,1.51-2.07.03Z"/>
  <path class="cls-21" d="m373.54,760.85c0-19.4,1.3-21.27,20.15-21.27l-2.72-2.66s1.04-1.1,1.87-.5c1.18.85,3.95,4.08,3.95,4.08,0,0-3.01,3.38-3.95,4.07-.82.6-1.87-.48-1.87-.48l2.72-2.56c-17.27,0-18.08,1-18.08,19.29,0,1.51-2.07,1.51-2.07.03Z"/>
  <path class="cls-23" d="m252.67,537.21c0-19.4-1.3-21.27-20.15-21.27l2.72-2.66s-1.04-1.1-1.87-.5c-1.18.85-3.95,4.08-3.95,4.08,0,0,3.01,3.38,3.95,4.07.82.6,1.87-.48,1.87-.48l-2.72-2.56c17.27,0,18.08,1,18.08,19.29,0,1.51,2.07,1.51,2.07.03Z"/>
  <path class="cls-21" d="m261.22,217.6c0-19.4,1.3-21.27,20.15-21.27l-2.72-2.66s1.04-1.1,1.87-.5c1.18.85,3.95,4.08,3.95,4.08,0,0-3.01,3.38-3.95,4.07-.82.6-1.87-.48-1.87-.48l2.72-2.56c-17.27,0-18.08,1-18.08,19.29,0,1.51-2.07,1.51-2.07.03Z"/>
  <path class="cls-21" d="m372.03,318.55c0-19.4,1.3-21.27,20.15-21.27l-2.72-2.66s1.04-1.1,1.87-.5c1.18.85,3.95,4.08,3.95,4.08,0,0-3.01,3.38-3.95,4.07-.82.6-1.87-.48-1.87-.48l2.72-2.56c-17.27,0-18.08,1-18.08,19.29,0,1.51-2.07,1.51-2.07.03Z"/>
  <path class="cls-23" d="m338.59,193.74c19.4,0,21.27,1.3,21.27,20.15l2.66-2.72s1.1,1.04.5,1.87c-.85,1.18-4.08,3.95-4.08,3.95,0,0-3.38-3.01-4.07-3.95-.6-.82.48-1.87.48-1.87l2.56,2.72c0-17.27-1-18.08-19.29-18.08-1.51,0-1.51-2.07-.03-2.07Z"/>
  <path class="cls-21" d="m481.2,379.96c0,19.4,1.3,21.27,20.15,21.27l-2.72,2.66s1.04,1.1,1.87.5c1.18-.85,3.95-4.08,3.95-4.08,0,0-3.01-3.38-3.95-4.07-.82-.6-1.87.48-1.87.48l2.72,2.56c-17.27,0-18.08-1-18.08-19.29,0-1.51-2.07-1.51-2.07-.03Z"/>
  <path class="cls-21" d="m262.46,379.96c0,19.4,1.3,21.27,20.15,21.27l-2.72,2.66s1.04,1.1,1.87.5c1.18-.85,3.95-4.08,3.95-4.08,0,0-3.01-3.38-3.95-4.07-.82-.6-1.87.48-1.87.48l2.72,2.56c-17.27,0-18.08-1-18.08-19.29,0-1.51-2.07-1.51-2.07-.03Z"/>
  <path class="cls-21" d="m372.03,479.37c0,19.4,1.3,21.27,20.15,21.27l-2.72,2.66s1.04,1.1,1.87.5c1.18-.85,3.95-4.08,3.95-4.08,0,0-3.01-3.38-3.95-4.07-.82-.6-1.87.48-1.87.48l2.72,2.56c-17.27,0-18.08-1-18.08-19.29,0-1.51-2.07-1.51-2.07-.03Z"/>
  <path class="cls-21" d="m481.54,660.25c0-19.4,1.3-21.27,20.15-21.27l-2.72-2.66s1.04-1.1,1.87-.5c1.18.85,3.95,4.08,3.95,4.08,0,0-3.01,3.38-3.95,4.07-.82.6-1.87-.48-1.87-.48l2.72-2.56c-17.27,0-18.08,1-18.08,19.29,0,1.51-2.07,1.51-2.07.03Z"/>
  <path class="cls-23" d="m465.46,222.19s-3.38-3.01-4.07-3.95c-.6-.82.48-1.86.48-1.86l2.66,2.72c.38-15.48-1-20.58-17.52-20.58-.21,0-.4-.01-.58-.04v2.23c0,.6-.44,1.09-.99,1.09-.54,0-.99-.49-.99-1.09v-7.56c0-.6.45-1.09.99-1.09.55,0,.99.49.99,1.09v2.08c.14-.03.28-.03.43-.03h6.58s0,.01,0,.01c14.47-.32,19.16,3.81,18.77,21.22,0,.47-.4.8-1.01.8-.7,0-1.07-.41-1.07-.83,0-16.55-3.78-19.41-16.85-19.52.41.03,1.15.1,1.15.1,10.61,1.97,12.77,7.51,11.85,22.12l2.77-2.72s1.09,1.04.5,1.86c-.86,1.18-4.09,3.95-4.09,3.95Zm-12.4-25.31h.18c-.16-.01-.26-.02-.18,0Z"/>
  <path class="cls-23" d="m465.46,322.59s-3.38-3.01-4.07-3.95c-.6-.82.48-1.86.48-1.86l2.66,2.72c.38-15.48-1-20.58-17.52-20.58-.21,0-.4-.01-.58-.04v2.23c0,.6-.44,1.09-.99,1.09s-.99-.49-.99-1.09v-7.56c0-.6.45-1.09.99-1.09s.99.49.99,1.09v2.08c.14-.03.28-.03.43-.03h6.58s0,.01,0,.01c14.47-.32,19.16,3.81,18.77,21.22,0,.47-.4.8-1.01.8-.7,0-1.07-.41-1.07-.83,0-16.55-3.78-19.41-16.85-19.52.41.03,1.15.1,1.15.1,10.61,1.97,12.77,7.51,11.85,22.12l2.77-2.72s1.09,1.04.5,1.86c-.86,1.18-4.09,3.95-4.09,3.95Zm-12.4-25.31h.18c-.16-.01-.26-.02-.18,0Z"/>
  <g>
    <path class="cls-18" d="m485.17,236.59c-.93-2.27-1.86-4.39-2.21-5.2-.38-.84-.67-1.52-.74-1.72-.32-.87-.6-1.18-1.12-1.22-.5.04-.79.34-1.11,1.22-.07.2-.36.87-.73,1.72-.73,1.66-1.56,3.6-2.22,5.2-.28.71-.29,1.21-.03,1.52.19.23.49.34.9.34h6.43c.41,0,.71-.12.9-.34.12-.15.18-.34.18-.58,0-.26-.07-.57-.22-.94Zm-1.67.34h-4.8c.17-.42.49-1.25.87-2.18.56-1.41,1.21-3.07,1.53-3.9.39.98,1.22,3.11,1.83,4.63l.57,1.44Z"/>
    <path class="cls-18" d="m260.91,554.03c-.93-2.27-1.86-4.39-2.21-5.2-.38-.84-.67-1.52-.74-1.72-.32-.87-.6-1.18-1.12-1.22-.5.04-.79.34-1.11,1.22-.07.2-.36.87-.73,1.72-.73,1.66-1.56,3.6-2.22,5.2-.28.71-.29,1.21-.03,1.52.19.23.49.34.9.34h6.43c.41,0,.71-.12.9-.34.12-.15.18-.34.18-.58,0-.26-.07-.57-.22-.94Zm-1.67.34h-4.8c.17-.42.49-1.25.87-2.18.56-1.41,1.21-3.07,1.53-3.9.39.98,1.22,3.11,1.83,4.63l.57,1.44Z"/>
    <path class="cls-18" d="m371.02,236.59c-.93-2.27-1.86-4.39-2.21-5.2-.38-.84-.67-1.52-.74-1.72-.32-.87-.6-1.18-1.12-1.22-.5.04-.79.34-1.11,1.22-.07.2-.36.87-.73,1.72-.73,1.66-1.56,3.6-2.22,5.2-.28.71-.29,1.21-.03,1.52.19.23.49.34.9.34h6.43c.41,0,.71-.12.9-.34.12-.15.18-.34.18-.58,0-.26-.07-.57-.22-.94Zm-1.67.34h-4.8c.17-.42.49-1.25.87-2.18.56-1.41,1.21-3.07,1.53-3.9.39.98,1.22,3.11,1.83,4.63l.57,1.44Z"/>
    <path class="cls-18" d="m470.85,231.43c0,.36.02,1.02.02,1.02,0,0,2.18.01,3.53.08.5.02.9-.07.95.78.04.61-.32.74-.87.78-1.28.09-3.49.05-3.49.05,0,0,.03,1.17.07,1.66.03.4.1.89.1.89,0,0,3.53.01,3.93,0,.33,0,.84,0,.81.85-.03.9-.42.84-.98.88-1.49.11-4.12,0-4.84-.38-1.02-.55-.79-5.5-.37-8.92.08-.68,3.98-.71,4.96-.63.44.04.67.53.67.83,0,.32,0,.88-.59.91-1.38.08-3.86.16-3.86.16,0,0-.03.81-.02,1.04Z"/>
    <path class="cls-18" d="m255.18,231.43c0,.36.02,1.02.02,1.02,0,0,2.18.01,3.53.08.5.02.9-.07.95.78.04.61-.32.74-.87.78-1.28.09-3.49.05-3.49.05,0,0,.03,1.17.07,1.66.03.4.1.89.1.89,0,0,3.53.01,3.93,0,.33,0,.84,0,.81.85-.03.9-.42.84-.98.88-1.49.11-4.12,0-4.84-.38-1.02-.55-.79-5.5-.37-8.92.08-.68,3.98-.71,4.96-.63.44.04.67.53.67.83,0,.32,0,.88-.59.91-1.38.08-3.86.16-3.86.16,0,0-.03.81-.02,1.04Z"/>
    <path class="cls-18" d="m477.05,338.68h-3.54c-.32,0-.53-.32-.41-.62,2.67-6.29.99-7.71-1.08-7.85-.04,0-.08,0-.12,0h-.02s-.09,0-.13,0c-.04,0-.08,0-.12,0-2.07.14-3.75,1.56-1.08,7.85.12.29-.09.62-.41.62h-3.54c-.14,0-.66-1.27.12-1.73.69-.41.99.09,1.81.11-2.24-4.96.04-7.96,2.78-8.36.08-.02.94-.02,1.02,0,2.74.41,5.02,3.4,2.78,8.36.82-.02,1.12-.51,1.81-.11.78.46.26,1.73.12,1.73Z"/>
    <path class="cls-18" d="m262.16,338.68h-3.54c-.32,0-.53-.32-.41-.62,2.67-6.29.99-7.71-1.08-7.85-.04,0-.08,0-.12,0h-.02s-.09,0-.13,0c-.04,0-.08,0-.12,0-2.07.14-3.75,1.56-1.08,7.85.12.29-.09.62-.41.62h-3.54c-.14,0-.66-1.27.12-1.73.69-.41.99.09,1.81.11-2.24-4.96.04-7.96,2.78-8.36.08-.02.94-.02,1.02,0,2.74.41,5.02,3.4,2.78,8.36.82-.02,1.12-.51,1.81-.11.78.46.26,1.73.12,1.73Z"/>
    <path class="cls-18" d="m485.53,329.6c-.01.49-.38.78-1.17.77h-2.09v7.47c0,.45-.37.83-.83.83s-.83-.38-.83-.83v-7.47h-2.09c-.79,0-1.16-.28-1.17-.77-.02-.62.45-.89,1.12-.91.82-.02,5.12-.02,5.94,0,.67.02,1.14.29,1.12.91Z"/>
    <path class="cls-18" d="m371.04,329.6c-.01.49-.38.78-1.17.77h-2.09v7.47c0,.45-.37.83-.83.83s-.83-.38-.83-.83v-7.47h-2.09c-.79,0-1.16-.28-1.17-.77-.02-.62.45-.89,1.12-.91.82-.02,5.12-.02,5.94,0,.67.02,1.14.29,1.12.91Z"/>
    <path class="cls-18" d="m474.81,453.45c4.39-1.93.8-6.48-3.28-4.27-.04.02-.07.06-.07.1-.38,2.63-.16,6.19.2,8.71.02.13.12.23.24.27,6.22,1.71,7.68-3.78,2.91-4.81Zm.65-2.47c0,1.13-1.98,1.51-2.74,1.51-.13-.26-.02-2.43.07-2.53.9-.25,2.67.04,2.67,1.02Zm-2.38,6.17c-.17-1.1-.2-1.41-.14-2.54.47-.06,3.32-.1,3.29,1.38-.03,1.15-2.44,1.38-3.15,1.16Z"/>
    <path class="cls-18" d="m485.26,452.77c.48.44.43.65.44.96s-.23.47-.53.71c-1.75,1.43-2.78,2.44-2.78,2.44,0,0,.42.05,4.42.05.4,0,.79.33.79.78,0,.48-.22.88-.64.88-2.35,0-4.02-.05-5.97-.05-.79,0-1.34-.19-1.52-.57-.17-.36-.12-.9.55-1.52,1.91-1.72,3.47-2.88,3.47-2.88,0,0-2.17-1.97-3.75-3.56-.33-.33-.43-.62-.31-.85.11-.2.55-.57.92-.57h6.71c.74,0,.77,1.31,0,1.31-3.37,0-5.2.02-5.2.02l3.38,2.85Z"/>
    <path class="cls-18" d="m368.7,452.77c.48.44.43.65.44.96s-.23.47-.53.71c-1.75,1.43-2.78,2.44-2.78,2.44,0,0,.42.05,4.42.05.4,0,.79.33.79.78,0,.48-.22.88-.64.88-2.35,0-4.02-.05-5.97-.05-.79,0-1.34-.19-1.52-.57-.17-.36-.12-.9.55-1.52,1.91-1.72,3.47-2.88,3.47-2.88,0,0-2.17-1.97-3.75-3.56-.33-.33-.43-.62-.31-.85.11-.2.55-.57.92-.57h6.71c.74,0,.77,1.31,0,1.31-3.37,0-5.2.02-5.2.02l3.38,2.85Z"/>
    <path class="cls-18" d="m256.18,453.36c4.39-1.93.8-6.48-3.28-4.27-.04.02-.07.06-.07.1-.38,2.63-.16,6.19.2,8.71.02.13.12.23.24.27,6.22,1.71,7.68-3.78,2.91-4.81Zm.65-2.47c0,1.13-1.98,1.51-2.74,1.51-.13-.26-.02-2.43.07-2.53.9-.25,2.67.04,2.67,1.02Zm-2.38,6.17c-.17-1.1-.2-1.41-.14-2.54.47-.06,3.32-.1,3.29,1.38-.03,1.15-2.44,1.38-3.15,1.16Z"/>
    <path class="cls-18" d="m365.64,768.09c-.19,8.85-.94,7.8,4.1,7.75.71,0,1.24.12,1.24.84,0,.33-.44.77-1.2.77-4.71,0-4.71.13-5.33-.4-.49-.41-.42-1.9-.42-2.78,0-1.17.02-5.56.1-6.18s.33-.62.75-.62c.38,0,.77.09.76.62Z"/>
    <path class="cls-18" d="m480.97,768.09c-.19,8.85-.94,7.8,4.1,7.75.71,0,1.24.12,1.24.84,0,.33-.44.77-1.2.77-4.71,0-4.71.13-5.33-.4-.49-.41-.42-1.9-.42-2.78,0-1.17.02-5.56.1-6.18s.33-.62.75-.62c.38,0,.77.09.76.62Z"/>
    <path class="cls-18" d="m261.46,668.02c-.2.78-1.37,6.55-1.58,7.33-.21.78-.44,1.33-.9,1.35s-.64-.27-1.17-1.25c-.53-.98-1.66-3.47-2.44-5.56-.53,1.89-.73,3.97-1.16,5.48-.25.85-.58,1.36-1.02,1.29-.1-.02-1.05-.26-.75-1.36.22-.81,1.48-6,1.96-7.62.48-1.62,1.54-.85,1.73-.44.19.41,2.31,5.6,2.67,6.53.19-.85.69-4.5,1.08-6.27.13-.6.81-.88,1.1-.76s.68.5.48,1.29Z"/>
    <path class="cls-18" d="m362.71,553.21c-.55-2.97.03-4.69,2.09-6.23,1.86-1.39,4.92-.33,5.78,1.24.73,1.31,1.54,4.09-.47,6.49-.67.8-1.59,1.4-2.62,1.57-2.46.41-4.48-1.4-4.79-3.06Zm2.23.5c1.14,1.13,3.41,1.11,4.45-.7,1.02-1.77.06-3.66-.63-4.27-.55-.49-2.53-1.19-3.76.41-1.11,1.45-.84,3.8-.07,4.56Z"/>
    <path class="cls-18" d="m475.84,554.03c-.93-2.27-1.86-4.39-2.21-5.2-.38-.84-.67-1.52-.74-1.72-.32-.87-.6-1.18-1.12-1.22-.5.04-.79.34-1.11,1.22-.07.2-.36.87-.73,1.72-.73,1.66-1.56,3.6-2.22,5.2-.28.71-.29,1.21-.03,1.52.19.23.49.34.9.34h6.43c.41,0,.71-.12.9-.34.12-.15.18-.34.18-.58,0-.26-.07-.57-.22-.94Zm-1.67.34h-4.8c.17-.42.49-1.25.87-2.18.56-1.41,1.21-3.07,1.53-3.9.39.98,1.22,3.11,1.83,4.63l.57,1.44Z"/>
    <path class="cls-18" d="m477.75,553.21c-.55-2.97.03-4.69,2.09-6.23,1.86-1.39,4.92-.33,5.78,1.24.73,1.31,1.54,4.09-.47,6.49-.67.8-1.59,1.4-2.62,1.57-2.46.41-4.48-1.4-4.79-3.06Zm2.23.5c1.14,1.13,3.41,1.11,4.45-.7,1.02-1.77.06-3.66-.63-4.27-.55-.49-2.53-1.19-3.76.41-1.11,1.45-.84,3.8-.07,4.56Z"/>
    <path class="cls-18" d="m370.39,667.94l-4.37,8.3c-.15.29-.45.46-.75.46-.13,0-.26-.04-.39-.1-.2-.11-.35-.28-.42-.5-.07-.21-.05-.45.06-.65l1.88-3.58-2.53-3.62c-.12-.11-.2-.27-.24-.47-.05-.25.03-.53.2-.71.15-.17.35-.27.58-.28.22,0,.45.07.61.21l2.2,3.29,1.65-3.14c.12-.2.29-.35.51-.42.22-.07.45-.04.65.07.22.12.38.33.43.59.03.19,0,.38-.08.55Z"/>
    <path class="cls-18" d="m476.01,668.02c-.2.78-1.37,6.55-1.58,7.33s-.44,1.33-.9,1.35-.64-.27-1.17-1.25c-.53-.98-1.66-3.47-2.44-5.56-.53,1.89-.73,3.97-1.16,5.48-.25.85-.58,1.36-1.02,1.29-.1-.02-1.05-.26-.75-1.36.22-.81,1.48-6,1.96-7.62.48-1.62,1.54-.85,1.73-.44.19.41,2.31,5.6,2.67,6.53.19-.85.69-4.5,1.08-6.27.13-.6.81-.88,1.1-.76s.68.5.48,1.29Z"/>
    <path class="cls-18" d="m484.76,667.94l-4.37,8.3c-.15.29-.45.46-.75.46-.13,0-.26-.04-.39-.1-.2-.11-.35-.28-.42-.5-.07-.21-.05-.45.06-.65l1.88-3.58-2.53-3.62c-.12-.11-.2-.27-.24-.47-.05-.25.03-.53.2-.71.15-.17.35-.27.58-.28.22,0,.45.07.61.21l2.2,3.29,1.65-3.14c.12-.2.29-.35.51-.42.22-.07.45-.04.65.07.22.12.38.33.43.59.03.19,0,.38-.08.55Z"/>
    <path class="cls-18" d="m260.85,775.97c.16.19.21.44.19.68-.03.24-.16.46-.34.61-.4.3-.98.23-1.3-.17l-2.45-3.14-2.45,3.14c-.18.23-.45.36-.72.36-.19,0-.4-.07-.57-.19-.19-.15-.32-.37-.35-.61-.03-.24.03-.49.19-.68l2.73-3.51-2.73-3.51c-.13-.17-.19-.36-.19-.57,0-.28.14-.56.36-.73.19-.15.42-.21.67-.19.24.03.47.16.61.35l2.45,3.14,2.44-3.14c.33-.41.91-.48,1.31-.16.22.17.35.43.35.72,0,.2-.07.4-.19.57l-2.73,3.51,2.73,3.51Z"/>
    <path class="cls-18" d="m475.98,775.97c.16.19.21.44.19.68-.03.24-.16.46-.34.61-.4.3-.98.23-1.3-.17l-2.45-3.14-2.45,3.14c-.18.23-.45.36-.72.36-.19,0-.4-.07-.57-.19-.19-.15-.32-.37-.35-.61-.03-.24.03-.49.19-.68l2.73-3.51-2.73-3.51c-.13-.17-.19-.36-.19-.57,0-.28.14-.56.36-.73.19-.15.42-.21.67-.19.24.03.47.16.61.35l2.45,3.14,2.44-3.14c.33-.41.91-.48,1.31-.16.22.17.35.43.35.72,0,.2-.07.4-.19.57l-2.73,3.51,2.73,3.51Z"/>
  </g>
  <text class="cls-15" transform="translate(52.14 236.24)"><tspan x="0" y="0">Full</tspan><tspan x="-18.5" y="20">Reversal</tspan></text>
  <text class="cls-15" transform="translate(46.12 456.24)"><tspan x="0" y="0">Hand</tspan><tspan x="-12.49" y="20">Reversal</tspan></text>
  <text class="cls-15" transform="translate(50.13 676.24)"><tspan x="0" y="0">Prop</tspan><tspan x="-16.49" y="20">Reversal</tspan></text>
  <text class="cls-10" transform="translate(117.99 732.58)"><tspan x="0" y="0">half-line</tspan></text>
  <g>
    <line class="cls-1" x1="150.77" y1="716.28" x2="155.66" y2="700.12"/>
    <polygon class="cls-18" points="157.7 693.36 158.71 704.06 155.5 700.62 150.93 701.71 157.7 693.36"/>
  </g>
  <text class="cls-10" transform="translate(140.07 507.88)"><tspan x="0" y="0">half-line</tspan></text>
  <g>
    <line class="cls-1" x1="181.43" y1="491.85" x2="186.31" y2="475.68"/>
    <polygon class="cls-18" points="188.36 468.92 189.37 479.62 186.16 476.19 181.59 477.27 188.36 468.92"/>
  </g>
  <text class="cls-10" transform="translate(140.3 283.3)"><tspan x="0" y="0">half-line</tspan></text>
  <g>
    <line class="cls-1" x1="179.52" y1="269.36" x2="184.4" y2="253.19"/>
    <polygon class="cls-18" points="186.44 246.43 187.46 257.13 184.25 253.7 179.67 254.78 186.44 246.43"/>
  </g>
  <path class="cls-23" d="m149.92,211.1s4.33,4.87,5.69,5.86c1.18.86,2.68-.69,2.68-.69l-3.92-3.83c22.29-.55,29.64,1.44,29.64,25.23,0,.3.01.58.06.84h-3.21c-.86,0-1.57.63-1.57,1.43s.71,1.43,1.57,1.43h10.89c.86,0,1.57-.65,1.57-1.43,0-.79-.71-1.43-1.57-1.43h-2.99c.04-.2.04-.4.04-.62v-9.48s-.01,0-.01,0c.46-20.84-5.49-27.59-30.56-27.03-.68,0-1.15.58-1.15,1.45s.59,1.54,1.19,1.54c23.83,0,27.95,5.44,28.11,24.26-.04-.59-.14-1.66-.14-1.66-2.84-15.28-10.81-18.39-31.85-17.06l3.92-3.99s-1.5-1.57-2.68-.72c-1.7,1.24-5.69,5.89-5.69,5.89Zm36.45,17.86v-.26c.01.23.03.37,0,.26Z"/>
  <path class="cls-23" d="m186.3,465.66c.79,0,1.43-.88,1.43-1.57,0-42.97,2.63-40.41-29.55-40.41-2.06,0-1.89,2.85.01,2.85,29.12,0,26.39-2.69,26.39,29.43,0,.48-.6.37-.91.37-19.76-.13-30.24-4.32-30.24-26.19l3.59,3.51s1.58-1.5.72-2.69c-1.18-1.6-5.44-5.3-5.86-5.66-.42.36-4.68,4.06-5.86,5.66-.86,1.2.72,2.69.72,2.69l3.72-3.51c0,29.88,20.85,29.26,34.07,29.26v4.68c0,.86,1,1.57,1.78,1.57Z"/>
  <path class="cls-23" d="m452.75,620.6c18.38.05,19.62.13,19.62-22.12,14.34,0,26.35,7.21,26.35,20.82l-2.74-2.9s-1.15,1.1-.5,1.98c.74,1,4.33,4.22,4.33,4.22,0,0,3.45-2.96,4.37-4.22.64-.88-.54-1.98-.54-1.98l-2.77,2.83c0-14.83-13.55-23.15-28.5-23.15v-3.78c0-.6-.31-1.09-1.03-1.09s-1.27.21-1.27,1.09c0,26.09,1.98,26.28-17.32,26.28-1.51,0-1.6,2.01,0,2.01Z"/>
  <path class="cls-23" d="m452.75,720.6c18.38.05,19.62.13,19.62-22.12,14.34,0,26.35,7.21,26.35,20.82l-2.74-2.9s-1.15,1.1-.5,1.98c.74,1,4.33,4.22,4.33,4.22,0,0,3.45-2.96,4.37-4.22.64-.88-.54-1.98-.54-1.98l-2.77,2.83c0-14.83-13.55-23.15-28.5-23.15v-3.78c0-.6-.31-1.09-1.03-1.09s-1.27.21-1.27,1.09c0,26.09,1.98,26.28-17.32,26.28-1.51,0-1.6,2.01,0,2.01Z"/>
  <path class="cls-23" d="m442.63,415.08c0-.55.61-.99,1.09-.99,29.84,0,28.06-1.83,28.06,20.52,0,1.43-1.98,1.31-1.98,0,0-20.23,1.87-18.33-20.44-18.33-.34,0-.26.42-.26.63.09,13.72,3,21,18.19,21l-2.44-2.49s1.04-1.1,1.87-.5c1.11.82,3.68,3.78,3.93,4.07-.25.29-2.82,3.25-3.93,4.07-.83.6-1.87-.5-1.87-.5l2.44-2.58c-20.75,0-20.32-14.48-20.32-23.66h-3.25c-.6,0-1.09-.69-1.09-1.23Z"/>
  <path class="cls-23" d="m442.63,513.61c0-.55.61-.99,1.09-.99,29.84,0,28.06-1.83,28.06,20.52,0,1.43-1.98,1.31-1.98,0,0-20.23,1.87-18.33-20.44-18.33-.34,0-.26.42-.26.63.09,13.72,3,21,18.19,21l-2.44-2.49s1.04-1.1,1.87-.5c1.11.82,3.68,3.78,3.93,4.07-.25.29-2.82,3.25-3.93,4.07-.83.6-1.87-.5-1.87-.5l2.44-2.58c-20.75,0-20.32-14.48-20.32-23.66h-3.25c-.6,0-1.09-.69-1.09-1.23Z"/>
  <path class="cls-23" d="m132.7,648.57c26.46-.07,28.25-.19,28.25,31.85,20.65,0,37.95-10.39,37.95-29.98l-3.95,4.18s-1.66-1.58-.72-2.85c1.07-1.44,6.24-6.08,6.24-6.08,0,0,4.97,4.26,6.29,6.08.92,1.27-.78,2.85-.78,2.85l-3.99-4.08c0,21.36-19.52,33.34-41.04,33.34,0,.61,0,5.44,0,5.44,0,.86-.44,1.57-1.48,1.57s-1.83-.3-1.83-1.57c0-37.56,2.85-37.84-24.94-37.84-2.18,0-2.31-2.89,0-2.9Z"/>
</svg>