<?xml version="1.0" encoding="UTF-8"?>
<svg id="Layer_1" data-name="Layer 1" xmlns="http://www.w3.org/2000/svg" viewBox="0 0 792 612">
  <defs>
    <style>
      .cls-1 {
        font-family: MonotypeCorsiva, 'Monotype Corsiva';
        font-size: 40px;
      }

      .cls-1, .cls-2, .cls-3, .cls-4 {
        fill: #231f20;
      }

      .cls-5 {
        fill: #00aeef;
      }

      .cls-6 {
        fill: #2e3192;
      }

      .cls-7, .cls-4 {
        font-family: Cambria-BoldItalic, Cambria;
        font-size: 30px;
        font-style: italic;
        font-weight: 700;
      }

      .cls-2 {
        letter-spacing: -.03em;
      }

      .cls-8 {
        fill: #7f3f98;
      }

      .cls-9 {
        fill: #ed1c24;
      }

      .cls-10 {
        fill: none;
        stroke: #231f20;
        stroke-miterlimit: 10;
        stroke-width: .5px;
      }
    </style>
  </defs>
  <text transform="translate(300.04 46.69)"><tspan class="cls-1"><tspan x="0" y="0">Full-Reversal</tspan></tspan><tspan class="cls-4"><tspan x="23.71" y="36">Type 1 → 2</tspan></tspan><tspan class="cls-7"><tspan class="cls-8" x="-18.31" y="72">Shift</tspan><tspan class="cls-3" x="43.7" y="72">→ </tspan><tspan class="cls-5" x="75.44" y="72">Dual</tspan><tspan class="cls-2" x="139.34" y="72">-</tspan><tspan class="cls-8" x="148.21" y="72">Shift</tspan></tspan></text>
  <g>
    <path class="cls-3" d="m630.99,550.49c-.01.49-.38.78-1.17.77h-2.09v7.47c0,.45-.37.83-.83.83s-.83-.38-.83-.83v-7.47h-2.09c-.79,0-1.16-.28-1.17-.77-.02-.62.45-.89,1.12-.91.82-.02,5.12-.02,5.94,0,.67.02,1.14.29,1.12.91Z"/>
    <path class="cls-3" d="m628.39,440.22c-.01.49-.38.78-1.17.77h-2.09v7.47c0,.45-.37.83-.83.83s-.83-.38-.83-.83v-7.47h-2.09c-.79,0-1.16-.28-1.17-.77-.02-.62.45-.89,1.12-.91.82-.02,5.12-.02,5.94,0,.67.02,1.14.29,1.12.91Z"/>
    <path class="cls-3" d="m621.75,559.56h-3.54c-.32,0-.53-.32-.41-.62,2.67-6.29.99-7.71-1.08-7.85-.04,0-.08,0-.12,0h-.02s-.09,0-.13,0c-.04,0-.08,0-.12,0-2.07.14-3.75,1.56-1.08,7.85.12.29-.09.62-.41.62h-3.54c-.14,0-.66-1.27.12-1.73.69-.41.99.09,1.81.11-2.24-4.96.04-7.96,2.78-8.36.08-.02.94-.02,1.02,0,2.74.41,5.02,3.4,2.78,8.36.82-.02,1.12-.51,1.81-.11.78.46.26,1.73.12,1.73Z"/>
    <g>
      <path class="cls-3" d="m451.94,558.07l-.97-.99-.02-.02c1.23-2.17.51-4.46-.12-5.62-.87-1.56-3.93-2.62-5.78-1.24-2.07,1.53-2.64,3.26-2.09,6.23.3,1.66,2.32,3.48,4.78,3.07.79-.14,1.51-.53,2.11-1.07l.84.86c.34.34.89.35,1.24,0,.35-.34.35-.9,0-1.24Zm-6.76-1.14c-.78-.77-1.05-3.12.06-4.56,1.24-1.59,3.21-.9,3.76-.41.64.58,1.52,2.26.81,3.93l-.1-.1h0s-1.02-1.04-1.02-1.04c-.34-.35-.9-.35-1.24,0-.18.16-.26.39-.26.62s.08.45.25.62l1.1,1.12.15.15c-1.14.75-2.65.55-3.51-.31Z"/>
      <path class="cls-3" d="m440.54,559.56h-3.54c-.32,0-.53-.32-.41-.62,2.67-6.29.99-7.71-1.08-7.85-.04,0-.08,0-.12,0h-.02s-.09,0-.13,0c-.04,0-.08,0-.12,0-2.07.14-3.75,1.56-1.08,7.85.12.29-.09.62-.41.62h-3.54c-.14,0-.66-1.27.12-1.73.69-.41.99.09,1.81.11-2.24-4.96.04-7.96,2.78-8.36.08-.02.94-.02,1.02,0,2.74.41,5.02,3.4,2.78,8.36.82-.02,1.12-.51,1.81-.11.78.46.26,1.73.12,1.73Z"/>
    </g>
    <g>
      <path class="cls-3" d="m721.48,555.09c-.11.73-.3,1.42-.58,2.11-.6,1.42-1.8,2.3-3.21,2.37h-.26c-1.41-.07-2.6-.95-3.21-2.37-.28-.67-.47-1.36-.57-2.11-.19-1.31-.24-2.6-.18-4.35.02-.47.13-.8.34-.99.14-.13.32-.19.52-.19.64.04.78.66.82,1.21,0,.18,0,.48,0,.86-.05,1.51-.14,4.35.93,5.36.21.2.58.43.94.56.35.14.73.14,1.08,0,.36-.14.74-.37.95-.56,1.06-1.01.98-3.81.93-5.33,0-.4-.02-.71,0-.89.03-.5.15-1.17.8-1.21.21,0,.39.06.52.19.22.19.33.52.34.99.08,1.8.03,3.06-.16,4.35Z"/>
      <path class="cls-3" d="m711.06,559.56h-3.54c-.32,0-.53-.32-.41-.62,2.67-6.29.99-7.71-1.08-7.85-.04,0-.08,0-.12,0h-.02s-.09,0-.13,0c-.04,0-.08,0-.12,0-2.07.14-3.75,1.56-1.08,7.85.12.29-.09.62-.41.62h-3.54c-.14,0-.66-1.27.12-1.73.69-.41.99.09,1.81.11-2.24-4.96.04-7.96,2.78-8.36.08-.02.94-.02,1.02,0,2.74.41,5.02,3.4,2.78,8.36.82-.02,1.12-.51,1.81-.11.78.46.26,1.73.12,1.73Z"/>
    </g>
    <g>
      <path class="cls-3" d="m540.88,558.2l-2.7-3.03c.87-.25,1.47-.64,1.8-1.14.66-1.02.77-2.65-.54-3.86-.83-.76-3.04-.82-5.15-.14l-.06.02-.02.05c-.26.54-.14,2.22.07,5.27.08,1.06.16,2.26.24,3.62.02.37.41.57.79.57.3,0,.77-.17.84-.62.06-.42-.05-2.87-.08-3.48h.17l3.42,3.83c.16.18.38.27.61.27.2,0,.4-.07.55-.21.34-.3.37-.83.07-1.16Zm-5.02-4.32l-.03-.2c-.13-.82-.2-1.21-.11-2.5.38-.1,1.92-.27,2.71.15.28.14.44.34.47.59.08.5-.06.95-.38,1.3-.52.53-1.46.77-2.66.67Z"/>
      <path class="cls-3" d="m531.5,559.56h-3.54c-.32,0-.53-.32-.41-.62,2.67-6.29.99-7.71-1.08-7.85-.04,0-.08,0-.12,0h-.02s-.09,0-.13,0c-.04,0-.08,0-.12,0-2.07.14-3.75,1.56-1.08,7.85.12.29-.09.62-.41.62h-3.54c-.14,0-.66-1.27.12-1.73.69-.41.99.09,1.81.11-2.24-4.96.04-7.96,2.78-8.36.08-.02.94-.02,1.02,0,2.74.41,5.02,3.4,2.78,8.36.82-.02,1.12-.51,1.81-.11.78.46.26,1.73.12,1.73Z"/>
    </g>
    <path class="cls-3" d="m267.78,331.07c-.42-.02-1.11-.04-1.33-.05-2.5-.16-3.99,1.77-4.23,4.08-.08.74.07,1.24.63,1.77.96.88,2.65,1.08,3.68.33.29-.21.56-.57.67-.92.23-.7-.06-1.13-.73-1.15-.55-.02-1.11.07-1.67.1-.47.02-.98.05-1.11-.62-.11-.57.35-1.04,1.07-1.13.6-.07,1.2-.08,1.8-.13.41-.04.92,0,1.41-.03.86,1.57.93,2.45.34,3.91-.66,1.62-1.9,2.23-3.38,2.2-.76-.02-1.61-.21-2.26-.62-2.32-1.47-2.63-3.71-1.3-6.4,1.3-3.01,4.25-2.97,5.53-2.98.84,0,1.06.15.85,1.66Z"/>
    <path class="cls-3" d="m169.92,330.66l-4.37,8.3c-.15.29-.45.46-.75.46-.13,0-.26-.04-.39-.1-.2-.11-.35-.28-.42-.5-.07-.21-.05-.45.06-.65l1.88-3.58-2.53-3.62c-.12-.11-.2-.27-.24-.47-.05-.25.03-.53.2-.71.15-.17.35-.27.58-.28.22,0,.45.07.61.21l2.2,3.29,1.65-3.14c.12-.2.29-.35.51-.42.22-.07.45-.04.65.07.22.12.38.33.43.59.03.19,0,.38-.08.55Z"/>
    <path class="cls-3" d="m80.6,329.86c4.64-1.3,7.94.33,7.99,3.72.1,6.19-7.54,6.06-7.86,5.69-.19-.72-.85-5.47-.13-9.41Zm1.61,7.69c3.94-.46,5.1-2.07,4.74-4.52-.36-2.45-4.31-2.07-4.85-1.81-.26,3.6-.2,4.36.11,6.32Z"/>
    <path class="cls-3" d="m79.53,330.66l-4.37,8.3c-.15.29-.45.46-.75.46-.13,0-.26-.04-.39-.1-.2-.11-.35-.28-.42-.5-.07-.21-.05-.45.06-.65l1.88-3.58-2.53-3.62c-.12-.11-.2-.27-.24-.47-.05-.25.03-.53.2-.71.15-.17.35-.27.58-.28.22,0,.45.07.61.21l2.2,3.29,1.65-3.14c.12-.2.29-.35.51-.42.22-.07.45-.04.65.07.22.12.38.33.43.59.03.19,0,.38-.08.55Z"/>
    <path class="cls-3" d="m260,330.66l-4.37,8.3c-.15.29-.45.46-.75.46-.13,0-.26-.04-.39-.1-.2-.11-.35-.28-.42-.5-.07-.21-.05-.45.06-.65l1.88-3.58-2.53-3.62c-.12-.11-.2-.27-.24-.47-.05-.25.03-.53.2-.71.15-.17.35-.27.58-.28.22,0,.45.07.61.21l2.2,3.29,1.65-3.14c.12-.2.29-.35.51-.42.22-.07.45-.04.65.07.22.12.38.33.43.59.03.19,0,.38-.08.55Z"/>
    <path class="cls-3" d="m358.78,338.67c0,.65-.36.74-1.5.74h-4.33c-1.13,0-1.5-.09-1.5-.74s.49-.73,1.75-.73,1.17.32,1.17-3.55.1-3.5-2-3.5c-.49,0-.92-.16-.92-.72s.2-.75.99-.75h5.35c.79,0,.99.2.99.75s-.43.72-.92.72c-2.1,0-2-.37-2,3.5s-.14,3.55,1.17,3.55,1.75.08,1.75.73Z"/>
    <path class="cls-3" d="m350,330.66l-4.37,8.3c-.15.29-.45.46-.75.46-.13,0-.26-.04-.39-.1-.2-.11-.35-.28-.42-.5-.07-.21-.05-.45.06-.65l1.88-3.58-2.53-3.62c-.12-.11-.2-.27-.24-.47-.05-.25.03-.53.2-.71.15-.17.35-.27.58-.28.22,0,.45.07.61.21l2.2,3.29,1.65-3.14c.12-.2.29-.35.51-.42.22-.07.45-.04.65.07.22.12.38.33.43.59.03.19,0,.38-.08.55Z"/>
    <path class="cls-3" d="m629.91,330.49v7.97c0,.82-.23.95-.84.95-.67,0-.75-.2-.75-.9,0-2.75.12-3.14-.89-3.17-.34-.02-1.3-.02-1.68,0-1.01.03-.89.42-.89,3.17,0,.7-.08.9-.75.9-.61,0-.84-.13-.84-.95v-7.97c0-.96.39-1.07.88-1.07s.71.2.71,1.04c0,2.76.11,3.25.76,3.25h1.94c.65,0,.76-.49.76-3.25,0-.84.22-1.04.71-1.04s.88.11.88,1.07Z"/>
    <path class="cls-3" d="m437.66,331.15c-1.86,0-2.27,0-3.51,0-.46,0-1.11-.2-1.11-.85,0-.57.42-.88,1.07-.88,4.93,0,5.05-.05,5.58.38.28.22.43.73.15,1.14-1.71,2.48-4.64,6.6-4.64,6.6,0,0,2.47-.05,3.73-.05,1.57,0,1.46,1.88.13,1.88-8.37,0-8.83,1.14-1.4-8.22Z"/>
    <path class="cls-3" d="m719.61,338.67c0,.65-.36.74-1.5.74h-4.33c-1.13,0-1.5-.09-1.5-.74s.49-.73,1.75-.73,1.17.32,1.17-3.55.1-3.5-2-3.5c-.49,0-.92-.16-.92-.72s.2-.75.99-.75h5.35c.79,0,.99.2.99.75s-.43.72-.92.72c-2.1,0-2-.37-2,3.5s-.14,3.55,1.17,3.55,1.75.08,1.75.73Z"/>
    <path class="cls-3" d="m707.64,331.15c-1.86,0-2.27,0-3.51,0-.46,0-1.11-.2-1.11-.85,0-.57.42-.88,1.07-.88,4.93,0,5.05-.05,5.58.38.28.22.43.73.15,1.14-1.71,2.48-4.64,6.6-4.64,6.6,0,0,2.47-.05,3.73-.05,1.57,0,1.46,1.88.13,1.88-8.37,0-8.83,1.14-1.4-8.22Z"/>
    <path class="cls-3" d="m171.97,338.76c-.21-2.13-.27-7.16-.03-8.83,0,0,1.78-.75,5.18-.44.42.04.62.25.63.53.03.54,0,1.08-.55,1.11-1.32.07-3.68.15-3.68.15,0,0-.03.76-.02.98,0,.34.02.97.02.97,0,0,2.08.01,3.36.07.47.02.88-.05.91.74.02.57-.38.7-.91.74-1.22.09-3.25.04-3.25.04.07,1.57.19,3.19.19,3.78,0,.69-.57.8-.97.8-.59,0-.85-.44-.87-.65Z"/>
    <path class="cls-3" d="m532.25,338.76c-.21-2.13-.27-7.16-.03-8.83,0,0,1.78-.75,5.18-.44.42.04.62.25.63.53.03.54,0,1.08-.55,1.11-1.32.07-3.68.15-3.68.15,0,0-.03.76-.02.98,0,.34.02.97.02.97,0,0,2.08.01,3.36.07.47.02.88-.05.91.74.02.57-.38.7-.91.74-1.22.09-3.25.04-3.25.04.07,1.57.19,3.19.19,3.78,0,.69-.57.8-.97.8-.59,0-.85-.44-.87-.65Z"/>
    <path class="cls-3" d="m618.68,331.15c-1.86,0-2.27,0-3.51,0-.46,0-1.11-.2-1.11-.85,0-.57.42-.88,1.07-.88,4.93,0,5.05-.05,5.58.38.28.22.43.73.15,1.14-1.71,2.48-4.64,6.6-4.64,6.6,0,0,2.47-.05,3.73-.05,1.57,0,1.46,1.88.13,1.88-8.37,0-8.83,1.14-1.4-8.22Z"/>
    <g>
      <path class="cls-3" d="m267.97,222.93c-.23-1.81.31-1.52-1.96-1.52-.48,0-1.1-.23-1.08-.83.02-.68.18-1,1.11-1,.29,0,2.96-.14,5.13-.13.75,0,1.29.31,1.29,1,0,.56-.42.9-1.31.9-1.86,0-1.61-.26-1.61,1.62,0,2.18.1,3.12-.28,3.9-2.04,4.14-6.19,2.28-6.19-.8,0-.58.16-.88.74-.92.52-.04.65.48.76.88.75,2.71,4.08,2.04,3.42-3.1Z"/>
      <path class="cls-3" d="m260.67,219.37c-.46-.06-.96.28-1.19,1.14-.42,1.54-.92,3.7-1.44,5.63-1.11-2.72-1.86-4.39-2.5-4.38-.01,0-.02,0-.03.01-.01-.01-.02-.01-.03-.01-.64-.01-1.39,1.65-2.5,4.38-.51-1.93-1.02-4.09-1.44-5.63-.24-.86-.73-1.2-1.19-1.14-.59.07-.98.49-.74,1.25.25.81,1.84,6.07,2.3,7.72.47,1.65,1.59.9,1.8.49.21-.41,1.36-3.67,1.8-4.59.44.92,1.59,4.18,1.8,4.59.21.41,1.33,1.16,1.8-.49.46-1.64,2.05-6.9,2.3-7.72.24-.76-.15-1.18-.74-1.25Z"/>
    </g>
    <g>
      <path class="cls-3" d="m450.9,440.62c-.2.78-1.37,6.55-1.58,7.33s-.44,1.33-.9,1.35-.64-.27-1.17-1.25c-.53-.98-1.66-3.47-2.44-5.56-.53,1.89-.73,3.97-1.16,5.48-.25.85-.58,1.36-1.02,1.29-.1-.02-1.05-.26-.75-1.36.22-.81,1.48-6,1.96-7.62.48-1.62,1.54-.85,1.73-.44.19.41,2.31,5.6,2.67,6.53.19-.85.69-4.5,1.08-6.27.13-.6.81-.88,1.1-.76s.68.5.48,1.29Z"/>
      <path class="cls-3" d="m439.41,447.43c-.93-2.27-1.86-4.39-2.21-5.2-.38-.84-.67-1.52-.74-1.72-.32-.87-.6-1.18-1.12-1.22-.5.04-.79.34-1.11,1.22-.07.2-.36.87-.73,1.72-.73,1.66-1.56,3.6-2.22,5.2-.28.71-.29,1.21-.03,1.52.19.23.49.34.9.34h6.43c.41,0,.71-.12.9-.34.12-.15.18-.34.18-.58,0-.26-.07-.57-.22-.94Zm-1.67.34h-4.8c.17-.42.49-1.25.87-2.18.56-1.41,1.21-3.07,1.53-3.9.39.98,1.22,3.11,1.83,4.63l.57,1.44Z"/>
    </g>
    <g>
      <path class="cls-3" d="m531.93,446.17c-.55-2.97.03-4.69,2.09-6.23,1.86-1.39,4.92-.33,5.78,1.24.73,1.31,1.54,4.09-.47,6.49-.67.8-1.59,1.4-2.62,1.57-2.46.41-4.48-1.4-4.79-3.06Zm2.23.5c1.14,1.13,3.41,1.11,4.45-.7,1.02-1.77.06-3.66-.63-4.27-.55-.49-2.53-1.19-3.76.41-1.11,1.45-.84,3.8-.07,4.56Z"/>
      <path class="cls-3" d="m529.77,447.43c-.93-2.27-1.86-4.39-2.21-5.2-.38-.84-.67-1.52-.74-1.72-.32-.87-.6-1.18-1.12-1.22-.5.04-.79.34-1.11,1.22-.07.2-.36.87-.73,1.72-.73,1.66-1.56,3.6-2.22,5.2-.28.71-.29,1.21-.03,1.52.19.23.49.34.9.34h6.43c.41,0,.71-.12.9-.34.12-.15.18-.34.18-.58,0-.26-.07-.57-.22-.94Zm-1.67.34h-4.8c.17-.42.49-1.25.87-2.18.56-1.41,1.21-3.07,1.53-3.9.39.98,1.22,3.11,1.83,4.63l.57,1.44Z"/>
    </g>
    <path class="cls-3" d="m620.42,447.43c-.93-2.27-1.86-4.39-2.21-5.2-.38-.84-.67-1.52-.74-1.72-.32-.87-.6-1.18-1.12-1.22-.5.04-.79.34-1.11,1.22-.07.2-.36.87-.73,1.72-.73,1.66-1.56,3.6-2.22,5.2-.28.71-.29,1.21-.03,1.52.19.23.49.34.9.34h6.43c.41,0,.71-.12.9-.34.12-.15.18-.34.18-.58,0-.26-.07-.57-.22-.94Zm-1.67.34h-4.8c.17-.42.49-1.25.87-2.18.56-1.41,1.21-3.07,1.53-3.9.39.98,1.22,3.11,1.83,4.63l.57,1.44Z"/>
    <path class="cls-3" d="m710.26,447.43c-.93-2.27-1.86-4.39-2.21-5.2-.38-.84-.67-1.52-.74-1.72-.32-.87-.6-1.18-1.12-1.22-.5.04-.79.34-1.11,1.22-.07.2-.36.87-.73,1.72-.73,1.66-1.56,3.6-2.22,5.2-.28.71-.29,1.21-.03,1.52.19.23.49.34.9.34h6.43c.41,0,.71-.12.9-.34.12-.15.18-.34.18-.58,0-.26-.07-.57-.22-.94Zm-1.67.34h-4.8c.17-.42.49-1.25.87-2.18.56-1.41,1.21-3.07,1.53-3.9.39.98,1.22,3.11,1.83,4.63l.57,1.44Z"/>
    <g>
      <path class="cls-3" d="m91.37,449.29c-.46.06-.96-.28-1.19-1.14-.42-1.54-.92-3.7-1.44-5.63-1.11,2.72-1.86,4.39-2.5,4.38-.01,0-.02,0-.03-.01-.01.01-.02.01-.03.01-.64.01-1.39-1.65-2.5-4.38-.51,1.93-1.02,4.09-1.44,5.63-.24.86-.73,1.2-1.19,1.14-.59-.07-.98-.49-.74-1.25.25-.81,1.84-6.07,2.3-7.72.47-1.65,1.59-.9,1.8-.49.21.41,1.36,3.67,1.8,4.59.44-.92,1.59-4.18,1.8-4.59.21-.41,1.33-1.16,1.8.49.46,1.64,2.05,6.9,2.3,7.72.24.76-.15,1.18-.74,1.25Z"/>
      <path class="cls-3" d="m75.7,443.48c.48.44.43.65.44.96s-.23.47-.53.71c-1.75,1.43-2.78,2.44-2.78,2.44,0,0,.42.05,4.42.05.4,0,.79.33.79.78,0,.48-.22.88-.64.88-2.35,0-4.02-.05-5.97-.05-.79,0-1.34-.19-1.52-.57-.17-.36-.12-.9.55-1.52,1.91-1.72,3.47-2.88,3.47-2.88,0,0-2.17-1.97-3.75-3.56-.33-.33-.43-.62-.31-.85.11-.2.55-.57.92-.57h6.71c.74,0,.77,1.31,0,1.31-3.37,0-5.2.02-5.2.02"/>
    </g>
    <g>
      <path class="cls-3" d="m171.53,446.17c-.55-2.97.03-4.69,2.09-6.23,1.86-1.39,4.92-.33,5.78,1.24.73,1.31,1.54,4.09-.47,6.49-.67.8-1.59,1.4-2.62,1.57-2.46.41-4.48-1.4-4.79-3.06Zm2.23.5c1.14,1.13,3.41,1.11,4.45-.7,1.02-1.77.06-3.66-.63-4.27-.55-.49-2.53-1.19-3.76.41-1.11,1.45-.84,3.8-.07,4.56Z"/>
      <path class="cls-3" d="m167.02,443.48c.48.44.43.65.44.96s-.23.47-.53.71c-1.75,1.43-2.78,2.44-2.78,2.44,0,0,.42.05,4.42.05.4,0,.79.33.79.78,0,.48-.22.88-.64.88-2.35,0-4.02-.05-5.97-.05-.79,0-1.34-.19-1.52-.57-.17-.36-.12-.9.55-1.52,1.91-1.72,3.47-2.88,3.47-2.88,0,0-2.17-1.97-3.75-3.56-.33-.33-.43-.62-.31-.85.11-.2.55-.57.92-.57h6.71c.74,0,.77,1.31,0,1.31-3.37,0-5.2.02-5.2.02"/>
    </g>
    <g>
      <path class="cls-3" d="m269.71,446.93c-.25,1.19-1.45,2.37-3.24,2.37h-.11c-1-.04-2.78-.26-3.51-1.25-.39-.52-.47-1.13-.19-1.44.24-.27.68-.24,1.23.08,1.08,1.06,2.52,1.08,3.42.64.52-.26.82-.65.77-1.03-.03-.33-.36-.94-2.12-1.35-2.5-.56-3.55-1.98-3.49-3.14.06-1.03,1.04-2.24,3.59-2.51.07,0,.13,0,.2,0,1.08,0,2.66.83,2.96,1.59.13.32.04.59-.26.82-.19.14-.59-.05-1.1-.3-.48-.23-1.01-.49-1.51-.55-.14-.02-.27-.03-.4-.03-.95,0-1.68.48-1.82.99-.13.47.23.9.96,1.2l2.99,1.21c1.5.62,1.82,1.8,1.62,2.7Z"/>
      <path class="cls-3" d="m258.12,443.48c.48.44.43.65.44.96s-.23.47-.53.71c-1.75,1.43-2.78,2.44-2.78,2.44,0,0,.42.05,4.42.05.4,0,.79.33.79.78,0,.48-.22.88-.64.88-2.35,0-4.02-.05-5.97-.05-.79,0-1.34-.19-1.52-.57-.17-.36-.12-.9.55-1.52,1.91-1.72,3.47-2.88,3.47-2.88,0,0-2.17-1.97-3.75-3.56-.33-.33-.43-.62-.31-.85.11-.2.55-.57.92-.57h6.71c.74,0,.77,1.31,0,1.31-3.37,0-5.2.02-5.2.02"/>
    </g>
    <g>
      <path class="cls-3" d="m360.36,444.82c-.11.73-.3,1.42-.58,2.11-.6,1.42-1.8,2.3-3.21,2.37h-.26c-1.41-.07-2.6-.95-3.21-2.37-.28-.67-.47-1.36-.57-2.11-.19-1.31-.24-2.6-.18-4.35.02-.47.13-.8.34-.99.14-.13.32-.19.52-.19.64.04.78.66.82,1.21,0,.18,0,.48,0,.86-.05,1.51-.14,4.35.93,5.36.21.2.58.43.94.56.35.14.73.14,1.08,0,.36-.14.74-.37.95-.56,1.06-1.01.98-3.81.93-5.33,0-.4-.02-.71,0-.89.03-.5.15-1.17.8-1.21.21,0,.39.06.52.19.22.19.33.52.34.99.08,1.8.03,3.06-.16,4.35Z"/>
      <path class="cls-3" d="m347.33,443.48c.48.44.43.65.44.96s-.23.47-.53.71c-1.75,1.43-2.78,2.44-2.78,2.44,0,0,.42.05,4.42.05.4,0,.79.33.79.78,0,.48-.22.88-.64.88-2.35,0-4.02-.05-5.97-.05-.79,0-1.34-.19-1.52-.57-.17-.36-.12-.9.55-1.52,1.91-1.72,3.47-2.88,3.47-2.88,0,0-2.17-1.97-3.75-3.56-.33-.33-.43-.62-.31-.85.11-.2.55-.57.92-.57h6.71c.74,0,.77,1.31,0,1.31-3.37,0-5.2.02-5.2.02"/>
    </g>
    <g>
      <path class="cls-3" d="m714.72,219.98c-.19,8.85-.94,7.8,4.1,7.75.71,0,1.24.12,1.24.84,0,.33-.44.77-1.2.77-4.71,0-4.71.13-5.33-.4-.49-.41-.42-1.9-.42-2.78,0-1.17.02-5.56.1-6.18.08-.62.33-.62.75-.62.38,0,.77.09.76.62Z"/>
      <path class="cls-3" d="m709.78,227.87c.16.19.21.44.19.68-.03.24-.16.46-.34.61-.4.3-.98.23-1.3-.17l-2.45-3.14-2.45,3.14c-.18.23-.45.36-.72.36-.19,0-.4-.07-.57-.19-.19-.15-.32-.37-.35-.61-.03-.24.03-.49.19-.68l2.73-3.51-2.73-3.51c-.13-.17-.19-.36-.19-.57,0-.28.14-.56.36-.73.19-.15.42-.21.67-.19.24.03.47.16.61.35l2.45,3.14,2.44-3.14c.33-.41.91-.48,1.31-.16.22.17.35.43.35.72,0,.2-.07.4-.19.57l-2.73,3.51,2.73,3.51Z"/>
    </g>
    <g>
      <path class="cls-3" d="m268.47,557.2c-.25,1.19-1.45,2.37-3.24,2.37h-.11c-1-.04-2.78-.26-3.51-1.25-.39-.52-.47-1.13-.19-1.44.24-.27.68-.24,1.23.08,1.08,1.06,2.52,1.08,3.42.64.52-.26.82-.65.77-1.03-.03-.33-.36-.94-2.12-1.35-2.5-.56-3.55-1.98-3.49-3.14.06-1.03,1.04-2.24,3.59-2.51.07,0,.13,0,.2,0,1.08,0,2.66.83,2.96,1.59.13.32.04.59-.26.82-.19.14-.59-.05-1.1-.3-.48-.23-1.01-.49-1.51-.55-.14-.02-.27-.03-.4-.03-.95,0-1.68.48-1.82.99-.13.47.23.9.96,1.2l2.99,1.21c1.5.62,1.82,1.8,1.62,2.7Z"/>
      <path class="cls-3" d="m256.05,549.56c-1.33,0-3.23,1.68-3.23,5,0,2.56,1.22,5,3.23,5s3.27-2.44,3.27-5c0-3.48-1.94-5-3.27-5Zm.01,1.37c.96,0,1.64,1.13,1.7,1.93.02.3,0,.81-.55.81h-2.33c-.46,0-.51-.5-.5-.76.07-.8.81-1.98,1.69-1.98Zm0,7.26c-1.08,0-1.72-1.28-1.79-2.08-.01-.25,0-.76.5-.76h2.53c.56,0,.58.5.55.81-.06.8-.72,2.03-1.8,2.03Z"/>
    </g>
    <path class="cls-3" d="m346.17,549.56c-1.33,0-3.23,1.68-3.23,5,0,2.56,1.22,5,3.23,5s3.27-2.44,3.27-5c0-3.48-1.94-5-3.27-5Zm.01,1.37c.96,0,1.64,1.13,1.7,1.93.02.3,0,.81-.55.81h-2.33c-.46,0-.51-.5-.5-.76.07-.8.81-1.98,1.69-1.98Zm0,7.26c-1.08,0-1.72-1.28-1.79-2.08-.01-.25,0-.76.5-.76h2.53c.56,0,.58.5.55.81-.06.8-.72,2.03-1.8,2.03Z"/>
    <g>
      <path class="cls-3" d="m82.59,550.04c2.1-.68,4.35-.62,5.15.12,1.3,1.2,1.17,2.8.53,3.78-.96,1.47-3.93,1.42-3.93,1.42,0,0,.29,3.22.2,3.68-.02.1-.5.53-.74.53-.26,0-.84-.18-.88-.48-.61-5.29-.67-8.32-.33-9.04Zm1.64,3.84c2.37.24,3.12-.65,2.92-2-.2-1.35-2.71-1-3.01-.85-.11,1.56-.08,1.77.09,2.85Z"/>
      <path class="cls-3" d="m76.49,549.56c-1.33,0-3.23,1.68-3.23,5,0,2.56,1.22,5,3.23,5s3.27-2.44,3.27-5c0-3.48-1.94-5-3.27-5Zm.01,1.37c.96,0,1.64,1.13,1.7,1.93.02.3,0,.81-.55.81h-2.33c-.46,0-.51-.5-.5-.76.07-.8.81-1.98,1.69-1.98Zm0,7.26c-1.08,0-1.72-1.28-1.79-2.08-.01-.25,0-.76.5-.76h2.53c.56,0,.58.5.55.81-.06.8-.72,2.03-1.8,2.03Z"/>
    </g>
    <g>
      <path class="cls-3" d="m178.82,558.2l-2.7-3.03c.87-.25,1.47-.64,1.8-1.14.66-1.02.77-2.65-.54-3.86-.83-.76-3.04-.82-5.15-.14l-.06.02-.02.05c-.26.54-.14,2.22.07,5.27.08,1.06.16,2.26.24,3.62.02.37.41.57.79.57.3,0,.77-.17.84-.62.06-.42-.05-2.87-.08-3.48h.17l3.42,3.83c.16.18.38.27.61.27.2,0,.4-.07.55-.21.34-.3.37-.83.07-1.16Zm-5.02-4.32l-.03-.2c-.13-.82-.2-1.21-.11-2.5.38-.1,1.92-.27,2.71.15.28.14.44.34.47.59.08.5-.06.95-.38,1.3-.52.53-1.46.77-2.66.67Z"/>
      <path class="cls-3" d="m166.2,549.56c-1.33,0-3.23,1.68-3.23,5,0,2.56,1.22,5,3.23,5s3.27-2.44,3.27-5c0-3.48-1.94-5-3.27-5Zm.01,1.37c.96,0,1.64,1.13,1.7,1.93.02.3,0,.81-.55.81h-2.33c-.46,0-.51-.5-.5-.76.07-.8.81-1.98,1.69-1.98Zm0,7.26c-1.08,0-1.72-1.28-1.79-2.08-.01-.25,0-.76.5-.76h2.53c.56,0,.58.5.55.81-.06.8-.72,2.03-1.8,2.03Z"/>
    </g>
    <g>
      <path class="cls-3" d="m355.96,219.98c-.19,8.85-.94,7.8,4.1,7.75.71,0,1.24.12,1.24.84,0,.33-.44.77-1.2.77-4.71,0-4.71.13-5.33-.4-.49-.41-.42-1.9-.42-2.78,0-1.17.02-5.56.1-6.18.08-.62.33-.62.75-.62.38,0,.77.09.76.62Z"/>
      <path class="cls-3" d="m351.83,219.37c-.46-.06-.96.28-1.19,1.14-.42,1.54-.92,3.7-1.44,5.63-1.11-2.72-1.86-4.39-2.5-4.38-.01,0-.02,0-.03.01-.01-.01-.02-.01-.03-.01-.64-.01-1.39,1.65-2.5,4.38-.51-1.93-1.02-4.09-1.44-5.63-.24-.86-.73-1.2-1.19-1.14-.59.07-.98.49-.74,1.25.25.81,1.84,6.07,2.3,7.72.47,1.65,1.59.9,1.8.49.21-.41,1.36-3.67,1.8-4.59.44.92,1.59,4.18,1.8,4.59.21.41,1.33,1.16,1.8-.49.46-1.64,2.05-6.9,2.3-7.72.24-.76-.15-1.18-.74-1.25Z"/>
    </g>
    <g>
      <path class="cls-3" d="m624.81,225.47c0,1.63,0,2.16,0,3.1,0,.66-.29.79-.8.79s-.93-.29-.93-.87c0-1.15-.04-6.16-.04-8.56,0-.52.34-.57.65-.57.41,0,.86.14.86.57,0,1.02.08,3.16.08,3.16,0,0,1.87-1.75,2.5-2.42.41-.44,1-.5,1.3-.14s.47.6-.1,1.15c-.85.84-1.04,1.21-2.46,2.53.83.86,2.18,1.99,3.61,3.62.45.51.34,1.14.17,1.3s-.8.24-1.19-.17-1.92-2.09-3.65-3.5Z"/>
      <path class="cls-3" d="m620.2,227.87c.16.19.21.44.19.68-.03.24-.16.46-.34.61-.4.3-.98.23-1.3-.17l-2.45-3.14-2.45,3.14c-.18.23-.45.36-.72.36-.19,0-.4-.07-.57-.19-.19-.15-.32-.37-.35-.61-.03-.24.03-.49.19-.68l2.73-3.51-2.73-3.51c-.13-.17-.19-.36-.19-.57,0-.28.14-.56.36-.73.19-.15.42-.21.67-.19.24.03.47.16.61.35l2.45,3.14,2.44-3.14c.33-.41.91-.48,1.31-.16.22.17.35.43.35.72,0,.2-.07.4-.19.57l-2.73,3.51,2.73,3.51Z"/>
    </g>
    <path class="cls-3" d="m444.29,332.4c0,.36.02,1.02.02,1.02,0,0,2.18.01,3.53.07.5.02.9-.07.95.78.04.6-.32.73-.87.77-1.28.09-3.49.05-3.49.05,0,0,.03,1.16.07,1.65.03.39.1.88.1.88,0,0,3.53.01,3.93,0,.33,0,.84,0,.81.84-.03.89-.42.83-.98.87-1.49.1-4.12,0-4.84-.38-1.02-.55-.79-5.46-.37-8.84.08-.67,3.98-.71,4.96-.62.44.04.67.53.67.82,0,.31,0,.87-.59.9-1.38.08-3.86.16-3.86.16,0,0-.03.8-.02,1.03Z"/>
    <path class="cls-3" d="m527.9,331.15c-1.86,0-2.27,0-3.51,0-.46,0-1.11-.2-1.11-.85,0-.57.42-.88,1.07-.88,4.93,0,5.05-.05,5.58.38.28.22.43.73.15,1.14-1.71,2.48-4.64,6.6-4.64,6.6,0,0,2.47-.05,3.73-.05,1.57,0,1.46,1.88.13,1.88-8.37,0-8.83,1.14-1.4-8.22Z"/>
    <g>
      <path class="cls-3" d="m181.54,227.12c.42.55-.07,1.12-.5,1.33-9.15,4.54-8.83-9.42-3.27-9.09,1.07.06,2.05.85,2.39,1.26.25.29.44.81.12,1.16-.34.36-.8.24-1.02,0-4.33-4.56-6.65,9.06,1.11,5.25.45-.22.79-.4,1.16.09Z"/>
      <path class="cls-3" d="m171.42,219.37c-.46-.06-.96.28-1.19,1.14-.42,1.54-.92,3.7-1.44,5.63-1.11-2.72-1.86-4.39-2.5-4.38-.01,0-.02,0-.03.01-.01-.01-.02-.01-.03-.01-.64-.01-1.39,1.65-2.5,4.38-.51-1.93-1.02-4.09-1.44-5.63-.24-.86-.73-1.2-1.19-1.14-.59.07-.98.49-.74,1.25.25.81,1.84,6.07,2.3,7.72.47,1.65,1.59.9,1.8.49.21-.41,1.36-3.67,1.8-4.59.44.92,1.59,4.18,1.8,4.59.21.41,1.33,1.16,1.8-.49.46-1.64,2.05-6.9,2.3-7.72.24-.76-.15-1.18-.74-1.25Z"/>
    </g>
    <g>
      <path class="cls-3" d="m446.79,224.22c4.39-1.93.8-6.48-3.28-4.27-.04.02-.07.06-.07.1-.38,2.63-.16,6.19.2,8.71.02.13.12.23.24.27,6.22,1.71,7.68-3.78,2.91-4.81Zm.65-2.47c0,1.13-1.98,1.51-2.74,1.51-.13-.26-.02-2.43.07-2.53.9-.25,2.67.04,2.67,1.02Zm-2.38,6.17c-.17-1.1-.2-1.41-.14-2.54.47-.06,3.32-.1,3.29,1.38-.03,1.15-2.44,1.38-3.15,1.16Z"/>
      <path class="cls-3" d="m440.37,227.87c.16.19.21.44.19.68-.03.24-.16.46-.34.61-.4.3-.98.23-1.3-.17l-2.45-3.14-2.45,3.14c-.18.23-.45.36-.72.36-.19,0-.4-.07-.57-.19-.19-.15-.32-.37-.35-.61-.03-.24.03-.49.19-.68l2.73-3.51-2.73-3.51c-.13-.17-.19-.36-.19-.57,0-.28.14-.56.36-.73.19-.15.42-.21.67-.19.24.03.47.16.61.35l2.45,3.14,2.44-3.14c.33-.41.91-.48,1.31-.16.22.17.35.43.35.72,0,.2-.07.4-.19.57l-2.73,3.51,2.73,3.51Z"/>
    </g>
    <g>
      <path class="cls-3" d="m91.59,228.37c-.87-2.99-2.3-6.84-2.48-7.31-.18-.46-.77-1.7-1.18-1.7s-1,1.24-1.18,1.7c-.18.47-1.61,4.32-2.48,7.31-.24.84.06.91.18.94,1.61.21,1.32-.3,1.57-1.4.23-1,.22-1.46,1-1.46.38,0,.56.01.91.01s.54-.01.91-.01c.78,0,.77.46,1,1.46.25,1.1-.04,1.61,1.57,1.4.12-.03.42-.1.18-.94Zm-2.91-3.37h-1.51c-.14,0-.23-.07-.19-.23l.94-3.44.94,3.44c.04.16-.05.23-.19.23Z"/>
      <path class="cls-3" d="m80.79,219.37c-.46-.06-.96.28-1.19,1.14-.42,1.54-.92,3.7-1.44,5.63-1.11-2.72-1.86-4.39-2.5-4.38-.01,0-.02,0-.03.01-.01-.01-.02-.01-.03-.01-.64-.01-1.39,1.65-2.5,4.38-.51-1.93-1.02-4.09-1.44-5.63-.24-.86-.73-1.2-1.19-1.14-.59.07-.98.49-.74,1.25.25.81,1.84,6.07,2.3,7.72.47,1.65,1.59.9,1.8.49.21-.41,1.36-3.67,1.8-4.59.44.92,1.59,4.18,1.8,4.59.21.41,1.33,1.16,1.8-.49.46-1.64,2.05-6.9,2.3-7.72.24-.76-.15-1.18-.74-1.25Z"/>
    </g>
    <g>
      <path class="cls-3" d="m539.83,227.12c.42.55-.07,1.12-.5,1.33-9.15,4.54-8.83-9.42-3.27-9.09,1.07.06,2.05.85,2.39,1.26.25.29.44.81.12,1.16-.34.36-.8.24-1.02,0-4.33-4.56-6.65,9.06,1.11,5.25.45-.22.79-.4,1.16.09Z"/>
      <path class="cls-3" d="m530,227.87c.16.19.21.44.19.68-.03.24-.16.46-.34.61-.4.3-.98.23-1.3-.17l-2.45-3.14-2.45,3.14c-.18.23-.45.36-.72.36-.19,0-.4-.07-.57-.19-.19-.15-.32-.37-.35-.61-.03-.24.03-.49.19-.68l2.73-3.51-2.73-3.51c-.13-.17-.19-.36-.19-.57,0-.28.14-.56.36-.73.19-.15.42-.21.67-.19.24.03.47.16.61.35l2.45,3.14,2.44-3.14c.33-.41.91-.48,1.31-.16.22.17.35.43.35.72,0,.2-.07.4-.19.57l-2.73,3.51,2.73,3.51Z"/>
    </g>
    <path class="cls-3" d="m718.68,440.63c-.06.29-1.97,5.54-3.02,7.94-.32.73-.61.72-.74.72s-.42,0-.74-.72c-1.05-2.4-2.96-7.64-3.02-7.94-.23-1,.08-1.16.44-1.3.28-.13.86-.02,1.12.7.16.42,2.2,5.86,2.2,5.86,0,0,2.05-5.44,2.2-5.86.25-.72.83-.82,1.12-.7.36.15.67.3.44,1.3Z"/>
    <path class="cls-3" d="m358.54,550.91c-.06.29-1.97,5.54-3.02,7.94-.32.73-.61.72-.74.72s-.42,0-.74-.72c-1.05-2.4-2.96-7.64-3.02-7.94-.23-1,.08-1.16.44-1.3.28-.13.86-.02,1.12.7.16.42,2.2,5.86,2.2,5.86,0,0,2.05-5.44,2.2-5.86.25-.72.83-.82,1.12-.7.36.15.67.3.44,1.3Z"/>
  </g>
  <g>
    <path class="cls-6" d="m149.5,393.96c.29-8.73,6.33-15.12,16.41-15.12,1.67,0,1.6-2.13,0-2.13-10.11,0-18.22,7.31-18.22,17.25h-2.36c0-14.82,10.48-21.03,18.71-21.03l-2.46,2.52s1.05,1.09,1.87.5c1.18-.86,3.97-4.12,3.97-4.12,0,0-2.95-3.4-3.93-4.07-.84-.57-1.91.51-1.91.51l2.48,2.57c-8.01,0-20.73,5.94-20.73,23.09l-1.1.03c-.6,0-1.09.45-1.09.99s.49.99,1.09.99h8.46c.6,0,1.09-.44,1.09-.99s-.49-.99-1.09-.99h-1.19Z"/>
    <path class="cls-6" d="m238.69,515.61c.29,8.73,6.33,15.12,16.41,15.12,1.67,0,1.6,2.13,0,2.13-10.11,0-18.22-7.31-18.22-17.25h-2.36c0,14.82,10.48,21.03,18.71,21.03l-2.46-2.52s1.05-1.09,1.87-.5c1.18.86,3.97,4.12,3.97,4.12,0,0-2.95,3.4-3.93,4.07-.84.57-1.91-.51-1.91-.51l2.48-2.57c-8.01,0-20.73-5.94-20.73-23.09l-1.1-.03c-.6,0-1.09-.45-1.09-.99,0-.55.49-.99,1.09-.99h8.46c.6,0,1.09.44,1.09.99s-.49.99-1.09.99h-1.19Z"/>
    <path class="cls-6" d="m328.69,515.61c.29,8.73,6.33,15.12,16.41,15.12,1.67,0,1.6,2.13,0,2.13-10.11,0-18.22-7.31-18.22-17.25h-2.36c0,14.82,10.48,21.03,18.71,21.03l-2.46-2.52s1.05-1.09,1.87-.5c1.18.86,3.97,4.12,3.97,4.12,0,0-2.95,3.4-3.93,4.07-.84.57-1.91-.51-1.91-.51l2.48-2.57c-8.01,0-20.73-5.94-20.73-23.09l-1.1-.03c-.6,0-1.09-.45-1.09-.99,0-.55.49-.99,1.09-.99h8.46c.6,0,1.09.44,1.09.99s-.49.99-1.09.99h-1.19Z"/>
    <path class="cls-6" d="m86.75,487.55c8.73.29,15.12,6.33,15.12,16.41,0,1.67,2.13,1.6,2.13,0,0-10.11-7.31-18.22-17.25-18.22v-2.36c14.82,0,21.03,10.48,21.03,18.71l-2.52-2.46s-1.09,1.05-.5,1.87c.86,1.18,4.12,3.97,4.12,3.97,0,0,3.4-2.95,4.07-3.93.57-.84-.51-1.91-.51-1.91l-2.57,2.48c0-8.01-5.94-20.73-23.09-20.73l-.03-1.1c0-.6-.45-1.09-.99-1.09-.55,0-.99.49-.99,1.09v8.46c0,.6.44,1.09.99,1.09.54,0,.99-.49.99-1.09v-1.19Z"/>
    <path class="cls-6" d="m181.78,479.45c8.73.29,15.12,6.33,15.12,16.41,0,1.67,2.13,1.6,2.13,0,0-10.11-7.31-18.22-17.25-18.22v-2.36c14.82,0,21.03,10.48,21.03,18.71l-2.52-2.46s-1.09,1.05-.5,1.87c.86,1.18,4.12,3.97,4.12,3.97,0,0,3.4-2.95,4.07-3.93.57-.84-.51-1.91-.51-1.91l-2.57,2.48c0-8.01-5.94-20.73-23.09-20.73l-.03-1.1c0-.6-.45-1.09-.99-1.09-.55,0-.99.49-.99,1.09v8.46c0,.6.44,1.09.99,1.09.54,0,.99-.49.99-1.09v-1.19Z"/>
    <path class="cls-6" d="m59.5,394.61c.29-8.73,6.33-15.12,16.41-15.12,1.67,0,1.6-2.13,0-2.13-10.11,0-18.22,7.31-18.22,17.25h-2.36c0-14.82,10.48-21.03,18.71-21.03l-2.46,2.52s1.05,1.09,1.87.5c1.18-.86,3.97-4.12,3.97-4.12,0,0-2.95-3.4-3.93-4.07-.84-.57-1.91.51-1.91.51l2.48,2.57c-8.01,0-20.73,5.94-20.73,23.09l-1.1.03c-.6,0-1.09.45-1.09.99,0,.55.49.99,1.09.99h8.46c.6,0,1.09-.44,1.09-.99,0-.54-.49-.99-1.09-.99h-1.19Z"/>
    <path class="cls-6" d="m344.82,421.36c-8.73-.29-15.12-6.33-15.12-16.41,0-1.67-2.13-1.6-2.13,0,0,10.11,7.31,18.22,17.25,18.22v2.36c-14.82,0-21.03-10.48-21.03-18.71l2.52,2.46s1.09-1.05.5-1.87c-.86-1.18-4.12-3.97-4.12-3.97,0,0-3.4,2.95-4.07,3.93-.57.84.51,1.91.51,1.91l2.57-2.48c0,8.01,5.94,20.73,23.09,20.73l.03,1.1c0,.6.45,1.09.99,1.09s.99-.49.99-1.09v-8.46c0-.6-.44-1.09-.99-1.09s-.99.49-.99,1.09v1.19Z"/>
    <path class="cls-6" d="m255.65,421.36c-8.73-.29-15.12-6.33-15.12-16.41,0-1.67-2.13-1.6-2.13,0,0,10.11,7.31,18.22,17.25,18.22v2.36c-14.82,0-21.03-10.48-21.03-18.71l2.52,2.46s1.09-1.05.5-1.87c-.86-1.18-4.12-3.97-4.12-3.97,0,0-3.4,2.95-4.07,3.93-.57.84.51,1.91.51,1.91l2.57-2.48c0,8.01,5.94,20.73,23.09,20.73l.03,1.1c0,.6.45,1.09.99,1.09s.99-.49.99-1.09v-8.46c0-.6-.44-1.09-.99-1.09s-.99.49-.99,1.09v1.19Z"/>
    <path class="cls-6" d="m74.45,267.82c-8.73.29-15.12,6.33-15.12,16.41,0,1.67-2.13,1.6-2.13,0,0-10.11,7.31-18.22,17.25-18.22v-2.36c-14.82,0-21.03,10.48-21.03,18.71l2.52-2.46s1.09,1.05.5,1.87c-.86,1.18-4.12,3.97-4.12,3.97,0,0-3.4-2.95-4.07-3.93-.57-.84.51-1.91.51-1.91l2.57,2.48c0-8.01,5.94-20.73,23.09-20.73l.03-1.1c0-.6.45-1.09.99-1.09s.99.49.99,1.09v8.46c0,.6-.44,1.09-.99,1.09-.54,0-.99-.49-.99-1.09v-1.19Z"/>
    <path class="cls-6" d="m164.45,267.82c-8.73.29-15.12,6.33-15.12,16.41,0,1.67-2.13,1.6-2.13,0,0-10.11,7.31-18.22,17.25-18.22v-2.36c-14.82,0-21.03,10.48-21.03,18.71l2.52-2.46s1.09,1.05.5,1.87c-.86,1.18-4.12,3.97-4.12,3.97,0,0-3.4-2.95-4.07-3.93-.57-.84.51-1.91.51-1.91l2.57,2.48c0-8.01,5.94-20.73,23.09-20.73l.03-1.1c0-.6.45-1.09.99-1.09s.99.49.99,1.09v8.46c0,.6-.44,1.09-.99,1.09-.54,0-.99-.49-.99-1.09v-1.19Z"/>
    <path class="cls-6" d="m375.65,302.72c-.29,8.73-6.33,15.12-16.41,15.12-1.67,0-1.6,2.13,0,2.13,10.11,0,18.22-7.31,18.22-17.25h2.36c0,14.82-10.48,21.03-18.71,21.03l2.46-2.52s-1.05-1.09-1.87-.5c-1.18.86-3.97,4.12-3.97,4.12,0,0,2.95,3.4,3.93,4.07.84.57,1.91-.51,1.91-.51l-2.48-2.57c8.01,0,20.73-5.94,20.73-23.09l1.1-.03c.6,0,1.09-.45,1.09-.99,0-.55-.49-.99-1.09-.99h-8.46c-.6,0-1.09.44-1.09.99,0,.54.49.99,1.09.99h1.19Z"/>
    <path class="cls-6" d="m283.04,296.41c-.29,8.73-6.33,15.12-16.41,15.12-1.67,0-1.6,2.13,0,2.13,10.11,0,18.22-7.31,18.22-17.25h2.36c0,14.82-10.48,21.03-18.71,21.03l2.46-2.52s-1.05-1.09-1.87-.5c-1.18.86-3.97,4.12-3.97,4.12,0,0,2.95,3.4,3.93,4.07.84.57,1.91-.51,1.91-.51l-2.48-2.57c8.01,0,20.73-5.94,20.73-23.09l1.1-.03c.6,0,1.09-.45,1.09-.99,0-.55-.49-.99-1.09-.99h-8.46c-.6,0-1.09.44-1.09.99,0,.54.49.99,1.09.99h1.19Z"/>
    <path class="cls-6" d="m164.71,201.64c-8.73-.29-13.42-7.03-13.42-17.11,0-1.67-2.13-1.6-2.13,0,0,10.11,5.61,18.92,15.55,18.92v2.36c-14.89-1.75-19.33-12.83-19.33-19.41l2.52,2.46s1.09-1.05.5-1.87c-.86-1.18-4.12-3.97-4.12-3.97,0,0-3.4,2.95-4.07,3.93-.57.84.51,1.91.51,1.91l2.57-2.48c0,6.36,3.76,19.33,21.39,21.43l.03,1.1c0,.6.45,1.09.99,1.09s.99-.49.99-1.09v-8.46c0-.6-.44-1.09-.99-1.09s-.99.49-.99,1.09v1.19Z"/>
    <path class="cls-6" d="m74.71,201.64c-8.73-.29-13.42-7.03-13.42-17.11,0-1.67-2.13-1.6-2.13,0,0,10.11,5.61,18.92,15.55,18.92v2.36c-14.89-1.75-19.33-12.83-19.33-19.41l2.52,2.46s1.09-1.05.5-1.87c-.86-1.18-4.12-3.97-4.12-3.97,0,0-3.4,2.95-4.07,3.93-.57.84.51,1.91.51,1.91l2.57-2.48c0,6.36,3.76,19.33,21.39,21.43l.03,1.1c0,.6.45,1.09.99,1.09s.99-.49.99-1.09v-8.46c0-.6-.44-1.09-.99-1.09s-.99.49-.99,1.09v1.19Z"/>
    <path class="cls-6" d="m237.77,186.15c.29,8.73,7.03,13.42,17.11,13.42,1.67,0,1.6,2.13,0,2.13-10.11,0-18.92-5.61-18.92-15.55h-2.36c1.75,14.89,12.83,19.33,19.41,19.33l-2.46-2.52s1.05-1.09,1.87-.5c1.18.86,3.97,4.12,3.97,4.12,0,0-2.95,3.4-3.93,4.07-.84.57-1.91-.51-1.91-.51l2.48-2.57c-6.36,0-19.33-3.76-21.43-21.39l-1.1-.03c-.6,0-1.09-.45-1.09-.99s.49-.99,1.09-.99h8.46c.6,0,1.09.44,1.09.99s-.49.99-1.09.99h-1.19Z"/>
    <path class="cls-6" d="m327.77,186.15c.29,8.73,7.03,13.42,17.11,13.42,1.67,0,1.6,2.13,0,2.13-10.11,0-18.92-5.61-18.92-15.55h-2.36c1.75,14.89,12.83,19.33,19.41,19.33l-2.46-2.52s1.05-1.09,1.87-.5c1.18.86,3.97,4.12,3.97,4.12,0,0-2.95,3.4-3.93,4.07-.84.57-1.91-.51-1.91-.51l2.48-2.57c-6.36,0-19.33-3.76-21.43-21.39l-1.1-.03c-.6,0-1.09-.45-1.09-.99s.49-.99,1.09-.99h8.46c.6,0,1.09.44,1.09.99s-.49.99-1.09.99h-1.19Z"/>
    <path class="cls-6" d="m498.51,190.14s3.01,3.38,3.95,4.07c.82.6,1.86-.48,1.86-.48l-2.72-2.66c15.48-.38,17.69,1.74,17.69,18.26h-1.49c-.6,0-1.09.58-1.09,1.13,0,.54.49.99,1.09.99h7.56c.6,0,1.09-.45,1.09-.99,0-.55-.49-1.13-1.09-1.13h-1.56c1.09-22.78-2.12-26.33-19.53-25.94-.47,0-.8.4-.8,1.01,0,.7.41,1.07.83,1.07,16.55,0,17.21,4.34,17.32,17.41-.2-12.41-5.41-14.48-20.02-13.56l2.72-2.77s-1.04-1.09-1.86-.5c-1.18.86-3.95,4.09-3.95,4.09Z"/>
    <path class="cls-6" d="m409.98,190.7s3.01,3.38,3.95,4.07c.82.6,1.86-.48,1.86-.48l-2.72-2.66c15.48-.38,17.69,1.74,17.69,18.26h-1.49c-.6,0-1.09.58-1.09,1.13,0,.54.49.99,1.09.99h7.56c.6,0,1.09-.45,1.09-.99,0-.55-.49-1.13-1.09-1.13h-1.56c1.09-22.78-2.12-26.33-19.53-25.94-.47,0-.8.4-.8,1.01,0,.7.41,1.07.83,1.07,16.55,0,17.21,4.34,17.32,17.41-.2-12.41-5.41-14.48-20.02-13.56l2.72-2.77s-1.04-1.09-1.86-.5c-1.18.86-3.95,4.09-3.95,4.09Z"/>
    <path class="cls-6" d="m612.74,207.77c.59-.82-.5-1.86-.5-1.86l-2.77,2.72c.92-14.61-1.15-19.81-13.56-20.02,13.07.11,17.41.77,17.41,17.32,0,.42.37.83,1.07.83.61,0,1.01-.33,1.01-.8.39-17.41-3.16-20.62-25.94-19.53v-1.56c0-.6-.58-1.09-1.13-1.09-.54,0-.99.49-.99,1.09v7.56c0,.6.45,1.09.99,1.09s1.13-.49,1.13-1.09v-1.49c16.52,0,18.63,2.21,18.26,17.69l-2.66-2.72s-1.08,1.04-.48,1.86c.69.94,4.07,3.95,4.07,3.95,0,0,3.23-2.77,4.09-3.95Z"/>
    <path class="cls-6" d="m702.74,207.15c.59-.82-.5-1.86-.5-1.86l-2.77,2.72c.92-14.61-1.15-19.81-13.56-20.02,13.07.11,17.41.77,17.41,17.32,0,.42.37.83,1.07.83.61,0,1.01-.33,1.01-.8.39-17.41-3.16-20.62-25.94-19.53v-1.56c0-.6-.58-1.09-1.13-1.09-.54,0-.99.49-.99,1.09v7.56c0,.6.45,1.09.99,1.09s1.13-.49,1.13-1.09v-1.49c16.52,0,18.63,2.21,18.26,17.69l-2.66-2.72s-1.08,1.04-.48,1.86c.69.94,4.07,3.95,4.07,3.95,0,0,3.23-2.77,4.09-3.95Z"/>
    <path class="cls-6" d="m412.46,283.51c.82.59,1.86-.5,1.86-.5l-2.72-2.77c14.61.92,19.81-1.15,20.02-13.56-.11,13.07-.77,17.41-17.32,17.41-.42,0-.83.37-.83,1.07,0,.61.33,1.01.8,1.01,17.41.39,20.62-3.16,19.53-25.94h1.56c.6,0,1.09-.58,1.09-1.13,0-.54-.49-.99-1.09-.99h-7.56c-.6,0-1.09.45-1.09.99s.49,1.13,1.09,1.13h1.49c0,16.52-2.21,18.63-17.69,18.26l2.72-2.66s-1.04-1.08-1.86-.48c-.94.69-3.95,4.07-3.95,4.07,0,0,2.77,3.23,3.95,4.09Z"/>
    <path class="cls-6" d="m502.82,283.82c.82.59,1.86-.5,1.86-.5l-2.72-2.77c14.61.92,19.81-1.15,20.02-13.56-.11,13.07-.77,17.41-17.32,17.41-.42,0-.83.37-.83,1.07,0,.61.33,1.01.8,1.01,17.41.39,20.62-3.16,19.53-25.94h1.56c.6,0,1.09-.58,1.09-1.13,0-.54-.49-.99-1.09-.99h-7.56c-.6,0-1.09.45-1.09.99,0,.55.49,1.13,1.09,1.13h1.49c0,16.52-2.21,18.63-17.69,18.26l2.72-2.66s-1.04-1.08-1.86-.48c-.94.69-3.95,4.07-3.95,4.07,0,0,2.77,3.23,3.95,4.09Z"/>
    <path class="cls-6" d="m520.44,368.83s-3.38,3.01-4.07,3.95c-.6.82.48,1.86.48,1.86l2.66-2.72c.38,15.48-1.74,17.69-18.26,17.69v-1.49c0-.6-.58-1.09-1.13-1.09s-.99.49-.99,1.09v7.56c0,.6.45,1.09.99,1.09s1.13-.49,1.13-1.09v-1.56c22.78,1.09,26.33-2.12,25.94-19.53,0-.47-.4-.8-1.01-.8-.7,0-1.07.41-1.07.83,0,16.55-4.34,17.21-17.41,17.32,12.41-.2,14.48-5.41,13.56-20.02l2.77,2.72s1.09-1.04.5-1.86c-.86-1.18-4.09-3.95-4.09-3.95Z"/>
    <path class="cls-6" d="m615.29,537.51c.59-.82-.5-1.86-.5-1.86l-2.77,2.72c.92-14.61-1.15-19.81-13.56-20.02,13.07.11,17.41.77,17.41,17.32,0,.42.37.83,1.07.83.61,0,1.01-.33,1.01-.8.39-17.41-3.16-20.62-25.94-19.53v-1.56c0-.6-.58-1.09-1.13-1.09s-.99.49-.99,1.09v7.56c0,.6.45,1.09.99,1.09s1.13-.49,1.13-1.09v-1.49c16.52,0,18.63,2.21,18.26,17.69l-2.66-2.72s-1.08,1.04-.48,1.86c.69.94,4.07,3.95,4.07,3.95,0,0,3.23-2.77,4.09-3.95Z"/>
    <path class="cls-6" d="m705.29,537.51c.59-.82-.5-1.86-.5-1.86l-2.77,2.72c.92-14.61-1.15-19.81-13.56-20.02,13.07.11,17.41.77,17.41,17.32,0,.42.37.83,1.07.83.61,0,1.01-.33,1.01-.8.39-17.41-3.16-20.62-25.94-19.53v-1.56c0-.6-.58-1.09-1.13-1.09s-.99.49-.99,1.09v7.56c0,.6.45,1.09.99,1.09s1.13-.49,1.13-1.09v-1.49c16.52,0,18.63,2.21,18.26,17.69l-2.66-2.72s-1.08,1.04-.48,1.86c.69.94,4.07,3.95,4.07,3.95,0,0,3.23-2.77,4.09-3.95Z"/>
    <path class="cls-6" d="m477.03,494.89s-3.01-3.38-3.95-4.07c-.82-.6-1.86.48-1.86.48l2.72,2.66c-15.48.38-17.69-1.74-17.69-18.26h1.49c.6,0,1.09-.58,1.09-1.13,0-.54-.49-.99-1.09-.99h-7.56c-.6,0-1.09.45-1.09.99s.49,1.13,1.09,1.13h1.56c-1.09,22.78,2.12,26.33,19.53,25.94.47,0,.8-.4.8-1.01,0-.7-.41-1.07-.83-1.07-16.55,0-17.21-4.34-17.32-17.41.2,12.41,5.41,14.48,20.02,13.56l-2.72,2.77s1.04,1.09,1.86.5c1.18-.86,3.95-4.09,3.95-4.09Z"/>
    <path class="cls-6" d="m561.53,500.59s-3.01-3.38-3.95-4.07c-.82-.6-1.86.48-1.86.48l2.72,2.66c-15.48.38-17.69-1.74-17.69-18.26h1.49c.6,0,1.09-.58,1.09-1.13,0-.54-.49-.99-1.09-.99h-7.56c-.6,0-1.09.45-1.09.99,0,.55.49,1.13,1.09,1.13h1.56c-1.09,22.78,2.12,26.33,19.53,25.94.47,0,.8-.4.8-1.01,0-.7-.41-1.07-.83-1.07-16.55,0-17.21-4.34-17.32-17.41.2,12.41,5.41,14.48,20.02,13.56l-2.72,2.77s1.04,1.09,1.86.5c1.18-.86,3.95-4.09,3.95-4.09Z"/>
    <path class="cls-6" d="m430.44,368.83s-3.38,3.01-4.07,3.95c-.6.82.48,1.86.48,1.86l2.66-2.72c.38,15.48-1.74,17.69-18.26,17.69v-1.49c0-.6-.58-1.09-1.13-1.09-.54,0-.99.49-.99,1.09v7.56c0,.6.45,1.09.99,1.09s1.13-.49,1.13-1.09v-1.56c22.78,1.09,26.33-2.12,25.94-19.53,0-.47-.4-.8-1.01-.8-.7,0-1.07.41-1.07.83,0,16.55-4.34,17.21-17.41,17.32,12.41-.2,14.48-5.41,13.56-20.02l2.77,2.72s1.09-1.04.5-1.86c-.86-1.18-4.09-3.95-4.09-3.95Z"/>
    <path class="cls-6" d="m679.97,410.42s3.01,3.38,3.95,4.07c.82.6,1.86-.48,1.86-.48l-2.72-2.66c15.48-.38,17.69,1.74,17.69,18.26h-1.49c-.6,0-1.09.58-1.09,1.13,0,.54.49.99,1.09.99h7.56c.6,0,1.09-.45,1.09-.99s-.49-1.13-1.09-1.13h-1.56c1.09-22.78-2.12-26.33-19.53-25.94-.47,0-.8.4-.8,1.01,0,.7.41,1.07.83,1.07,16.55,0,17.21,4.34,17.32,17.41-.2-12.41-5.41-14.48-20.02-13.56l2.72-2.77s-1.04-1.09-1.86-.5c-1.18.86-3.95,4.09-3.95,4.09Z"/>
    <path class="cls-6" d="m589.97,410.42s3.01,3.38,3.95,4.07c.82.6,1.86-.48,1.86-.48l-2.72-2.66c15.48-.38,17.69,1.74,17.69,18.26h-1.49c-.6,0-1.09.58-1.09,1.13,0,.54.49.99,1.09.99h7.56c.6,0,1.09-.45,1.09-.99s-.49-1.13-1.09-1.13h-1.56c1.09-22.78-2.12-26.33-19.53-25.94-.47,0-.8.4-.8,1.01,0,.7.41,1.07.83,1.07,16.55,0,17.21,4.34,17.32,17.41-.2-12.41-5.41-14.48-20.02-13.56l2.72-2.77s-1.04-1.09-1.86-.5c-1.18.86-3.95,4.09-3.95,4.09Z"/>
    <path class="cls-6" d="m723.52,321.72s3.38-3.01,4.07-3.95c.6-.82-.48-1.86-.48-1.86l-2.66,2.72c-.38-15.48,1.74-17.69,18.26-17.69v1.49c0,.6.58,1.09,1.13,1.09s.99-.49.99-1.09v-7.56c0-.6-.45-1.09-.99-1.09s-1.13.49-1.13,1.09v1.56c-22.78-1.09-26.33,2.12-25.94,19.53,0,.47.4.8,1.01.8.7,0,1.07-.41,1.07-.83,0-16.55,4.34-17.21,17.41-17.32-12.41.2-14.48,5.41-13.56,20.02l-2.77-2.72s-1.09,1.04-.5,1.86c.86,1.18,4.09,3.95,4.09,3.95Z"/>
    <path class="cls-6" d="m633.52,321.1s3.38-3.01,4.07-3.95c.6-.82-.48-1.86-.48-1.86l-2.66,2.72c-.38-15.48,1.74-17.69,18.26-17.69v1.49c0,.6.58,1.09,1.13,1.09s.99-.49.99-1.09v-7.56c0-.6-.45-1.09-.99-1.09-.55,0-1.13.49-1.13,1.09v1.56c-22.78-1.09-26.33,2.12-25.94,19.53,0,.47.4.8,1.01.8.7,0,1.07-.41,1.07-.83,0-16.55,4.34-17.21,17.41-17.32-12.41.2-14.48,5.41-13.56,20.02l-2.77-2.72s-1.09,1.04-.5,1.86c.86,1.18,4.09,3.95,4.09,3.95Z"/>
  </g>
  <g>
    <path class="cls-9" d="m358.81,317.66s-3.23-2.77-4.08-3.95c-.6-.82.5-1.87.5-1.87l2.66,2.73c0-18.49,1.8-20.09,20.18-20.15v-2.74c0-.6.49-1.09,1.08-1.09.6,0,1.08.49,1.08,1.09v7.56c0,.6-.48,1.09-1.08,1.09-.59,0-1.08-.49-1.08-1.09v-2.75c-17.27.04-18.23,1.15-18.23,18.08l2.56-2.73s1.08,1.05.48,1.87c-.69.94-4.07,3.95-4.07,3.95Z"/>
    <path class="cls-9" d="m95.29,472.38c-.95.64-4.08,3.93-4.08,3.93,0,0,2.66,3.31,3.8,4.21.8.63,1.89-.44,1.89-.44l-2.61-2.78c8.61.03,18.1,6.85,19.39,19.4h-2.79c-.6,0-1.09.49-1.09,1.08,0,.6.49,1.08,1.09,1.08h7.56c.6,0,1.09-.48,1.09-1.08,0-.59-.49-1.08-1.09-1.08h-2.63c-.66-11.36-9.96-21.34-21.33-21.37l2.65-2.42s-1.01-1.11-1.85-.53Z"/>
    <path class="cls-9" d="m200.57,282.05s-2.77,3.23-3.95,4.08c-.82.6-1.87-.5-1.87-.5l2.73-2.66c-18.49,0-20.09-1.8-20.15-20.18h-2.74c-.6,0-1.09-.49-1.09-1.08s.49-1.08,1.09-1.08h7.56c.6,0,1.09.48,1.09,1.08,0,.59-.49,1.08-1.09,1.08h-2.75c.04,17.27,1.15,18.23,18.08,18.23l-2.73-2.56s1.05-1.08,1.87-.48c.94.69,3.95,4.07,3.95,4.07Z"/>
    <path class="cls-9" d="m470.4,282.56s-2.77,3.23-3.95,4.08c-.82.6-1.87-.5-1.87-.5l2.73-2.66c-18.49,0-20.09-1.8-20.15-20.18h-2.74c-.6,0-1.09-.49-1.09-1.08,0-.6.49-1.08,1.09-1.08h7.56c.6,0,1.09.48,1.09,1.08s-.49,1.08-1.09,1.08h-2.75c.04,17.27,1.15,18.23,18.08,18.23l-2.73-2.56s1.05-1.08,1.87-.48c.94.69,3.95,4.07,3.95,4.07Z"/>
    <path class="cls-9" d="m111.23,407.72c-.64-.95-3.93-4.08-3.93-4.08,0,0-3.31,2.66-4.21,3.8-.63.8.44,1.89.44,1.89l2.78-2.61c-.03,8.61-6.85,18.1-19.4,19.39v-2.79c0-.6-.49-1.09-1.08-1.09-.6,0-1.08.49-1.08,1.09v7.56c0,.6.48,1.09,1.08,1.09s1.08-.49,1.08-1.09v-2.63c11.36-.66,21.34-9.96,21.37-21.33l2.42,2.65s1.11-1.01.53-1.85Z"/>
    <path class="cls-9" d="m561.24,407.42c-.64-.95-3.93-4.08-3.93-4.08,0,0-3.31,2.66-4.21,3.8-.63.8.44,1.89.44,1.89l2.78-2.61c-.03,8.61-6.85,18.1-19.4,19.39v-2.79c0-.6-.49-1.09-1.08-1.09-.6,0-1.08.49-1.08,1.09v7.56c0,.6.48,1.09,1.08,1.09.59,0,1.08-.49,1.08-1.09v-2.63c11.36-.66,21.34-9.96,21.37-21.33l2.42,2.65s1.11-1.01.53-1.85Z"/>
    <path class="cls-9" d="m470.33,406.53s-2.77-3.23-3.95-4.08c-.82-.6-1.87.5-1.87.5l2.73,2.66c-18.49,0-20.09,1.8-20.15,20.18h-2.74c-.6,0-1.09.49-1.09,1.08,0,.6.49,1.08,1.09,1.08h7.56c.6,0,1.09-.48,1.09-1.08,0-.59-.49-1.08-1.09-1.08h-2.75c.04-17.27,1.15-18.23,18.08-18.23l-2.73,2.56s1.05,1.08,1.87.48c.94-.69,3.95-4.07,3.95-4.07Z"/>
    <path class="cls-9" d="m200.11,406.53s-2.77-3.23-3.95-4.08c-.82-.6-1.87.5-1.87.5l2.73,2.66c-18.49,0-20.09,1.8-20.15,20.18h-2.74c-.6,0-1.09.49-1.09,1.08,0,.6.49,1.08,1.09,1.08h7.56c.6,0,1.09-.48,1.09-1.08,0-.59-.49-1.08-1.09-1.08h-2.75c.04-17.27,1.15-18.23,18.08-18.23l-2.73,2.56s1.05,1.08,1.87.48c.94-.69,3.95-4.07,3.95-4.07Z"/>
    <path class="cls-9" d="m269.16,210.09c-.95-.64-4.08-3.93-4.08-3.93,0,0,2.66-3.31,3.8-4.21.8-.63,1.89.44,1.89.44l-2.61,2.78c8.61-.03,18.1-6.85,19.39-19.4h-2.79c-.6,0-1.09-.49-1.09-1.08,0-.6.49-1.08,1.09-1.08h7.56c.6,0,1.09.48,1.09,1.08,0,.59-.49,1.08-1.09,1.08h-2.63c-.66,11.36-9.96,21.34-21.33,21.37l2.65,2.42s-1.01,1.11-1.85.53Z"/>
    <path class="cls-9" d="m719.16,211.55c-.95-.64-4.08-3.93-4.08-3.93,0,0,2.66-3.31,3.8-4.21.8-.63,1.89.44,1.89.44l-2.61,2.78c8.61-.03,18.1-6.85,19.39-19.4h-2.79c-.6,0-1.09-.49-1.09-1.08,0-.6.49-1.08,1.09-1.08h7.56c.6,0,1.09.48,1.09,1.08,0,.59-.49,1.08-1.09,1.08h-2.63c-.66,11.36-9.96,21.34-21.33,21.37l2.65,2.42s-1.01,1.11-1.85.53Z"/>
    <path class="cls-9" d="m359.2,210.25s-3.23-2.77-4.08-3.95c-.6-.82.5-1.87.5-1.87l2.66,2.73c0-18.49,1.8-20.09,20.18-20.15v-2.74c0-.6.49-1.09,1.08-1.09s1.08.49,1.08,1.09v7.56c0,.6-.48,1.09-1.08,1.09s-1.08-.49-1.08-1.09v-2.75c-17.27.04-18.23,1.15-18.23,18.08l2.56-2.73s1.08,1.05.48,1.87c-.69.94-4.07,3.95-4.07,3.95Z"/>
    <path class="cls-9" d="m629.22,209.89s-3.23-2.77-4.08-3.95c-.6-.82.5-1.87.5-1.87l2.66,2.73c0-18.49,1.8-20.09,20.18-20.15v-2.74c0-.6.49-1.09,1.08-1.09.6,0,1.08.49,1.08,1.09v7.56c0,.6-.48,1.09-1.08,1.09-.59,0-1.08-.49-1.08-1.09v-2.75c-17.27.04-18.23,1.15-18.23,18.08l2.56-2.73s1.08,1.05.48,1.87c-.69.94-4.07,3.95-4.07,3.95Z"/>
    <path class="cls-9" d="m291.23,517.72c-.64-.95-3.93-4.08-3.93-4.08,0,0-3.31,2.66-4.21,3.8-.63.8.44,1.89.44,1.89l2.78-2.61c-.03,8.61-6.85,18.1-19.4,19.39v-2.79c0-.6-.49-1.09-1.08-1.09s-1.08.49-1.08,1.09v7.56c0,.6.48,1.09,1.08,1.09.59,0,1.08-.49,1.08-1.09v-2.63c11.36-.66,21.34-9.96,21.37-21.33l2.42,2.65s1.11-1.01.53-1.85Z"/>
    <path class="cls-9" d="m741.56,516.53c-.64-.95-3.93-4.08-3.93-4.08,0,0-3.31,2.66-4.21,3.8-.63.8.44,1.89.44,1.89l2.78-2.61c-.03,8.61-6.85,18.1-19.4,19.39v-2.79c0-.6-.49-1.09-1.08-1.09s-1.08.49-1.08,1.09v7.56c0,.6.48,1.09,1.08,1.09s1.08-.49,1.08-1.09v-2.63c11.36-.66,21.34-9.96,21.37-21.33l2.42,2.65s1.11-1.01.53-1.85Z"/>
    <path class="cls-9" d="m650.33,516.53s-2.77-3.23-3.95-4.08c-.82-.6-1.87.5-1.87.5l2.73,2.66c-18.49,0-20.09,1.8-20.15,20.18h-2.74c-.6,0-1.09.49-1.09,1.08,0,.6.49,1.08,1.09,1.08h7.56c.6,0,1.09-.48,1.09-1.08s-.49-1.08-1.09-1.08h-2.75c.04-17.27,1.15-18.23,18.08-18.23l-2.73,2.56s1.05,1.08,1.87.48c.94-.69,3.95-4.07,3.95-4.07Z"/>
    <path class="cls-9" d="m382.02,516.53s-2.77-3.23-3.95-4.08c-.82-.6-1.87.5-1.87.5l2.73,2.66c-18.49,0-20.09,1.8-20.15,20.18h-2.74c-.6,0-1.09.49-1.09,1.08,0,.6.49,1.08,1.09,1.08h7.56c.6,0,1.09-.48,1.09-1.08,0-.59-.49-1.08-1.09-1.08h-2.75c.04-17.27,1.15-18.23,18.08-18.23l-2.73,2.56s1.05,1.08,1.87.48c.94-.69,3.95-4.07,3.95-4.07Z"/>
    <path class="cls-9" d="m274.3,327.98c-.95-.64-4.08-3.93-4.08-3.93,0,0,2.66-3.31,3.8-4.21.8-.63,1.89.44,1.89.44l-2.61,2.78c8.61-.03,18.1-6.85,19.39-19.4h-2.79c-.6,0-1.09-.49-1.09-1.08,0-.6.49-1.08,1.09-1.08h7.56c.6,0,1.09.48,1.09,1.08,0,.59-.49,1.08-1.09,1.08h-2.63c-.66,11.36-9.96,21.34-21.33,21.37l2.65,2.42s-1.01,1.11-1.85.53Z"/>
    <path class="cls-9" d="m726.14,329.49c-.95-.64-4.08-3.93-4.08-3.93,0,0,2.66-3.31,3.8-4.21.8-.63,1.89.44,1.89.44l-2.61,2.78c8.61-.03,18.1-6.85,19.39-19.4h-2.79c-.6,0-1.09-.49-1.09-1.08,0-.6.49-1.08,1.09-1.08h7.56c.6,0,1.09.48,1.09,1.08s-.49,1.08-1.09,1.08h-2.63c-.66,11.36-9.96,21.34-21.33,21.37l2.65,2.42s-1.01,1.11-1.85.53Z"/>
    <path class="cls-9" d="m636.79,327.54s-3.23-2.77-4.08-3.95c-.6-.82.5-1.87.5-1.87l2.66,2.73c0-18.49,1.8-20.09,20.18-20.15v-2.74c0-.6.49-1.09,1.08-1.09.6,0,1.08.49,1.08,1.09v7.56c0,.6-.48,1.09-1.08,1.09s-1.08-.49-1.08-1.09v-2.75c-17.27.04-18.23,1.15-18.23,18.08l2.56-2.73s1.08,1.05.48,1.87c-.69.94-4.07,3.95-4.07,3.95Z"/>
    <path class="cls-9" d="m112.21,282.06c-.64.95-3.93,4.08-3.93,4.08,0,0-3.31-2.66-4.21-3.8-.63-.8.44-1.89.44-1.89l2.78,2.61c-.03-8.61-6.85-18.1-19.4-19.39v2.79c0,.6-.49,1.09-1.08,1.09-.6,0-1.08-.49-1.08-1.09v-7.56c0-.6.48-1.09,1.08-1.09s1.08.49,1.08,1.09v2.63c11.36.66,21.34,9.96,21.37,21.33l2.42-2.65s1.11,1.01.53,1.85Z"/>
    <path class="cls-9" d="m562.03,282.29c-.64.95-3.93,4.08-3.93,4.08,0,0-3.31-2.66-4.21-3.8-.63-.8.44-1.89.44-1.89l2.78,2.61c-.03-8.61-6.85-18.1-19.4-19.39v2.79c0,.6-.49,1.09-1.08,1.09s-1.08-.49-1.08-1.09v-7.56c0-.6.48-1.09,1.08-1.09s1.08.49,1.08,1.09v2.63c11.36.66,21.34,9.96,21.37,21.33l2.42-2.65s1.11,1.01.53,1.85Z"/>
    <path class="cls-9" d="m544.82,472.35c-.95.64-4.08,3.93-4.08,3.93,0,0,2.66,3.31,3.8,4.21.8.63,1.89-.44,1.89-.44l-2.61-2.78c8.61.03,18.1,6.85,19.39,19.4h-2.79c-.6,0-1.09.49-1.09,1.08,0,.6.49,1.08,1.09,1.08h7.56c.6,0,1.09-.48,1.09-1.08,0-.59-.49-1.08-1.09-1.08h-2.63c-.66-11.36-9.96-21.34-21.33-21.37l2.65-2.42s-1.01-1.11-1.85-.53Z"/>
    <path class="cls-9" d="m177.29,480.74s-3.23,2.77-4.08,3.95c-.6.82.5,1.87.5,1.87l2.66-2.73c0,18.49,1.8,20.09,20.18,20.15v2.74c0,.6.49,1.09,1.08,1.09.6,0,1.08-.49,1.08-1.09v-7.56c0-.6-.48-1.09-1.08-1.09s-1.08.49-1.08,1.09v2.75c-17.27-.04-18.23-1.15-18.23-18.08l2.56,2.73s1.08-1.05.48-1.87c-.69-.94-4.07-3.95-4.07-3.95Z"/>
    <path class="cls-9" d="m268.01,430.09c-.95-.64-4.08-3.93-4.08-3.93,0,0,2.66-3.31,3.8-4.21.8-.63,1.89.44,1.89.44l-2.61,2.78c8.61-.03,18.1-6.85,19.39-19.4h-2.79c-.6,0-1.09-.49-1.09-1.08,0-.6.49-1.08,1.09-1.08h7.56c.6,0,1.09.48,1.09,1.08,0,.59-.49,1.08-1.09,1.08h-2.63c-.66,11.36-9.96,21.34-21.33,21.37l2.65,2.42s-1.01,1.11-1.85.53Z"/>
    <path class="cls-9" d="m718.76,430.85c-.95-.64-4.08-3.93-4.08-3.93,0,0,2.66-3.31,3.8-4.21.8-.63,1.89.44,1.89.44l-2.61,2.78c8.61-.03,18.1-6.85,19.39-19.4h-2.79c-.6,0-1.09-.49-1.09-1.08s.49-1.08,1.09-1.08h7.56c.6,0,1.09.48,1.09,1.08,0,.59-.49,1.08-1.09,1.08h-2.63c-.66,11.36-9.96,21.34-21.33,21.37l2.65,2.42s-1.01,1.11-1.85.53Z"/>
    <path class="cls-9" d="m628.25,429.94s-3.23-2.77-4.08-3.95c-.6-.82.5-1.87.5-1.87l2.66,2.73c0-18.49,1.8-20.09,20.18-20.15v-2.74c0-.6.49-1.09,1.08-1.09s1.08.49,1.08,1.09v7.56c0,.6-.48,1.09-1.08,1.09s-1.08-.49-1.08-1.09v-2.75c-17.27.04-18.23,1.15-18.23,18.08l2.56-2.73s1.08,1.05.48,1.87c-.69.94-4.07,3.95-4.07,3.95Z"/>
    <path class="cls-9" d="m357.67,430.55s-3.23-2.77-4.08-3.95c-.6-.82.5-1.87.5-1.87l2.66,2.73c0-18.49,1.8-20.09,20.18-20.15v-2.74c0-.6.49-1.09,1.08-1.09s1.08.49,1.08,1.09v7.56c0,.6-.48,1.09-1.08,1.09-.59,0-1.08-.49-1.08-1.09v-2.75c-17.27.04-18.23,1.15-18.23,18.08l2.56-2.73s1.08,1.05.48,1.87c-.69.94-4.07,3.95-4.07,3.95Z"/>
    <path class="cls-9" d="m111.23,171.7c-.64.95-3.93,4.08-3.93,4.08,0,0-3.31-2.66-4.21-3.8-.63-.8.44-1.89.44-1.89l2.78,2.61c-.03-8.61-6.85-18.1-19.4-19.39v2.79c0,.6-.49,1.09-1.08,1.09s-1.08-.49-1.08-1.09v-7.56c0-.6.48-1.09,1.08-1.09s1.08.49,1.08,1.09v2.63c11.36.66,21.34,9.96,21.37,21.33l2.42-2.65s1.11,1.01.53,1.85Z"/>
    <path class="cls-9" d="m561.24,171.7c-.64.95-3.93,4.08-3.93,4.08,0,0-3.31-2.66-4.21-3.8-.63-.8.44-1.89.44-1.89l2.78,2.61c-.03-8.61-6.85-18.1-19.4-19.39v2.79c0,.6-.49,1.09-1.08,1.09s-1.08-.49-1.08-1.09v-7.56c0-.6.48-1.09,1.08-1.09s1.08.49,1.08,1.09v2.63c11.36.66,21.34,9.96,21.37,21.33l2.42-2.65s1.11,1.01.53,1.85Z"/>
    <path class="cls-9" d="m201.39,171.66s-2.77,3.23-3.95,4.08c-.82.6-1.87-.5-1.87-.5l2.73-2.66c-18.49,0-20.09-1.8-20.15-20.18h-2.74c-.6,0-1.09-.49-1.09-1.08,0-.6.49-1.08,1.09-1.08h7.56c.6,0,1.09.48,1.09,1.08,0,.59-.49,1.08-1.09,1.08h-2.75c.04,17.27,1.15,18.23,18.08,18.23l-2.73-2.56s1.05-1.08,1.87-.48c.94.69,3.95,4.07,3.95,4.07Z"/>
    <path class="cls-9" d="m470.78,172.42s-2.77,3.23-3.95,4.08c-.82.6-1.87-.5-1.87-.5l2.73-2.66c-18.49,0-20.09-1.8-20.15-20.18h-2.74c-.6,0-1.09-.49-1.09-1.08,0-.6.49-1.08,1.09-1.08h7.56c.6,0,1.09.48,1.09,1.08,0,.59-.49,1.08-1.09,1.08h-2.75c.04,17.27,1.15,18.23,18.08,18.23l-2.73-2.56s1.05-1.08,1.87-.48c.94.69,3.95,4.07,3.95,4.07Z"/>
    <path class="cls-9" d="m447.01,481.09s-3.23,2.77-4.08,3.95c-.6.82.5,1.87.5,1.87l2.66-2.73c0,18.49,1.8,20.09,20.18,20.15v2.74c0,.6.49,1.09,1.08,1.09.6,0,1.08-.49,1.08-1.09v-7.56c0-.6-.48-1.09-1.08-1.09s-1.08.49-1.08,1.09v2.75c-17.27-.04-18.23-1.15-18.23-18.08l2.56,2.73s1.08-1.05.48-1.87c-.69-.94-4.07-3.95-4.07-3.95Z"/>
  </g>
  <g>
    <g>
      <g>
        <circle class="cls-3" cx="81" cy="209.86" r="2.5"/>
        <circle class="cls-3" cx="51" cy="179.86" r="2.5"/>
        <circle class="cls-3" cx="81" cy="149.86" r="2.5"/>
        <circle class="cls-3" cx="111" cy="179.86" r="2.5"/>
        <circle class="cls-3" cx="81" cy="179.86" r="1.12"/>
      </g>
      <g>
        <circle class="cls-3" cx="171" cy="209.86" r="2.5"/>
        <circle class="cls-3" cx="141" cy="179.86" r="2.5"/>
        <circle class="cls-3" cx="171" cy="149.86" r="2.5"/>
        <circle class="cls-3" cx="201" cy="179.86" r="2.5"/>
        <circle class="cls-3" cx="171" cy="179.86" r="1.12"/>
      </g>
      <g>
        <circle class="cls-3" cx="231" cy="179.86" r="2.5"/>
        <circle class="cls-3" cx="261" cy="209.86" r="2.5"/>
        <circle class="cls-3" cx="291" cy="179.86" r="2.5"/>
        <circle class="cls-3" cx="261" cy="149.86" r="2.5"/>
        <circle class="cls-3" cx="261" cy="179.86" r="1.12"/>
      </g>
      <g>
        <circle class="cls-3" cx="321" cy="179.86" r="2.5"/>
        <circle class="cls-3" cx="351" cy="209.86" r="2.5"/>
        <circle class="cls-3" cx="381" cy="179.86" r="2.5"/>
        <circle class="cls-3" cx="351" cy="149.86" r="2.5"/>
        <circle class="cls-3" cx="351" cy="179.86" r="1.12"/>
      </g>
      <g>
        <circle class="cls-3" cx="441" cy="209.86" r="2.5"/>
        <circle class="cls-3" cx="411" cy="179.86" r="2.5"/>
        <circle class="cls-3" cx="441" cy="149.86" r="2.5"/>
        <circle class="cls-3" cx="471" cy="179.86" r="2.5"/>
        <circle class="cls-3" cx="441" cy="179.86" r="1.12"/>
      </g>
      <g>
        <circle class="cls-3" cx="531" cy="209.86" r="2.5"/>
        <circle class="cls-3" cx="501" cy="179.86" r="2.5"/>
        <circle class="cls-3" cx="531" cy="149.86" r="2.5"/>
        <circle class="cls-3" cx="561" cy="179.86" r="2.5"/>
        <circle class="cls-3" cx="531" cy="179.86" r="1.12"/>
      </g>
      <g>
        <circle class="cls-3" cx="591" cy="179.86" r="2.5"/>
        <circle class="cls-3" cx="621" cy="209.86" r="2.5"/>
        <circle class="cls-3" cx="651" cy="179.86" r="2.5"/>
        <circle class="cls-3" cx="621" cy="149.86" r="2.5"/>
        <circle class="cls-3" cx="621" cy="179.86" r="1.13"/>
      </g>
      <g>
        <circle class="cls-3" cx="681" cy="179.86" r="2.5"/>
        <circle class="cls-3" cx="711" cy="209.86" r="2.5"/>
        <circle class="cls-3" cx="741" cy="179.86" r="2.5"/>
        <circle class="cls-3" cx="711" cy="149.86" r="2.5"/>
        <circle class="cls-3" cx="711" cy="179.86" r="1.12"/>
      </g>
    </g>
    <g>
      <g>
        <circle class="cls-3" cx="81" cy="259.86" r="2.5"/>
        <circle class="cls-3" cx="51" cy="289.86" r="2.5"/>
        <circle class="cls-3" cx="81" cy="319.86" r="2.5"/>
        <circle class="cls-3" cx="111" cy="289.86" r="2.5"/>
        <circle class="cls-3" cx="81" cy="289.86" r="1.13"/>
      </g>
      <g>
        <circle class="cls-3" cx="171" cy="259.86" r="2.5"/>
        <circle class="cls-3" cx="141" cy="289.86" r="2.5"/>
        <circle class="cls-3" cx="171" cy="319.86" r="2.5"/>
        <circle class="cls-3" cx="201" cy="289.86" r="2.5"/>
        <circle class="cls-3" cx="171" cy="289.86" r="1.13"/>
      </g>
      <g>
        <circle class="cls-3" cx="381" cy="289.86" r="2.5"/>
        <circle class="cls-3" cx="351" cy="319.86" r="2.5"/>
        <circle class="cls-3" cx="321" cy="289.86" r="2.5"/>
        <circle class="cls-3" cx="351" cy="259.86" r="2.5"/>
        <circle class="cls-3" cx="351" cy="289.86" r="1.13"/>
      </g>
      <g>
        <circle class="cls-3" cx="291" cy="289.86" r="2.5"/>
        <circle class="cls-3" cx="261" cy="319.86" r="2.5"/>
        <circle class="cls-3" cx="231" cy="289.86" r="2.5"/>
        <circle class="cls-3" cx="261" cy="259.86" r="2.5"/>
        <circle class="cls-3" cx="261" cy="289.86" r="1.12"/>
      </g>
      <g>
        <circle class="cls-3" cx="531" cy="259.86" r="2.5"/>
        <circle class="cls-3" cx="501" cy="289.86" r="2.5"/>
        <circle class="cls-3" cx="531" cy="319.86" r="2.5"/>
        <circle class="cls-3" cx="561" cy="289.86" r="2.5"/>
        <circle class="cls-3" cx="531" cy="289.86" r="1.13"/>
      </g>
      <g>
        <circle class="cls-3" cx="441" cy="259.86" r="2.5"/>
        <circle class="cls-3" cx="411" cy="289.86" r="2.5"/>
        <circle class="cls-3" cx="441" cy="319.86" r="2.5"/>
        <circle class="cls-3" cx="471" cy="289.86" r="2.5"/>
        <circle class="cls-3" cx="441" cy="289.86" r="1.13"/>
      </g>
      <g>
        <circle class="cls-3" cx="741" cy="289.86" r="2.5"/>
        <circle class="cls-3" cx="711" cy="319.86" r="2.5"/>
        <circle class="cls-3" cx="681" cy="289.86" r="2.5"/>
        <circle class="cls-3" cx="711" cy="259.86" r="2.5"/>
        <circle class="cls-3" cx="711" cy="289.86" r="1.12"/>
      </g>
      <g>
        <circle class="cls-3" cx="651" cy="289.86" r="2.5"/>
        <circle class="cls-3" cx="621" cy="319.86" r="2.5"/>
        <circle class="cls-3" cx="591" cy="289.86" r="2.5"/>
        <circle class="cls-3" cx="621" cy="259.86" r="2.5"/>
        <circle class="cls-3" cx="621" cy="289.86" r="1.12"/>
      </g>
    </g>
    <g>
      <g>
        <circle class="cls-3" cx="201" cy="399.86" r="2.5"/>
        <circle class="cls-3" cx="171" cy="429.86" r="2.5"/>
        <circle class="cls-3" cx="141" cy="399.86" r="2.5"/>
        <circle class="cls-3" cx="171" cy="369.86" r="2.5"/>
        <circle class="cls-3" cx="171" cy="399.86" r="1.12"/>
      </g>
      <g>
        <circle class="cls-3" cx="111" cy="399.86" r="2.5"/>
        <circle class="cls-3" cx="81" cy="429.86" r="2.5"/>
        <circle class="cls-3" cx="51" cy="399.86" r="2.5"/>
        <circle class="cls-3" cx="81" cy="369.86" r="2.5"/>
        <circle class="cls-3" cx="81" cy="399.86" r="1.13"/>
      </g>
      <g>
        <circle class="cls-3" cx="351" cy="369.86" r="2.5"/>
        <circle class="cls-3" cx="381" cy="399.86" r="2.5"/>
        <circle class="cls-3" cx="351" cy="429.86" r="2.5"/>
        <circle class="cls-3" cx="321" cy="399.86" r="2.5"/>
        <circle class="cls-3" cx="351" cy="399.86" r="1.12"/>
      </g>
      <g>
        <circle class="cls-3" cx="261" cy="369.86" r="2.5"/>
        <circle class="cls-3" cx="291" cy="399.86" r="2.5"/>
        <circle class="cls-3" cx="261" cy="429.86" r="2.5"/>
        <circle class="cls-3" cx="231" cy="399.86" r="2.5"/>
        <circle class="cls-3" cx="261" cy="399.86" r="1.12"/>
      </g>
      <g>
        <circle class="cls-3" cx="561" cy="399.86" r="2.5"/>
        <circle class="cls-3" cx="531" cy="429.86" r="2.5"/>
        <circle class="cls-3" cx="501" cy="399.86" r="2.5"/>
        <circle class="cls-3" cx="531" cy="369.86" r="2.5"/>
        <circle class="cls-3" cx="531" cy="399.86" r="1.12"/>
      </g>
      <g>
        <circle class="cls-3" cx="471" cy="399.86" r="2.5"/>
        <circle class="cls-3" cx="441" cy="429.86" r="2.5"/>
        <circle class="cls-3" cx="411" cy="399.86" r="2.5"/>
        <circle class="cls-3" cx="441" cy="369.86" r="2.5"/>
        <circle class="cls-3" cx="441" cy="399.86" r="1.13"/>
      </g>
      <g>
        <circle class="cls-3" cx="711" cy="369.86" r="2.5"/>
        <circle class="cls-3" cx="741" cy="399.86" r="2.5"/>
        <circle class="cls-3" cx="711" cy="429.86" r="2.5"/>
        <circle class="cls-3" cx="681" cy="399.86" r="2.5"/>
        <circle class="cls-3" cx="711" cy="399.86" r="1.12"/>
      </g>
      <g>
        <circle class="cls-3" cx="621" cy="369.86" r="2.5"/>
        <circle class="cls-3" cx="651" cy="399.86" r="2.5"/>
        <circle class="cls-3" cx="621" cy="429.86" r="2.5"/>
        <circle class="cls-3" cx="591" cy="399.86" r="2.5"/>
        <circle class="cls-3" cx="621" cy="399.86" r="1.12"/>
      </g>
    </g>
    <g>
      <g>
        <circle class="cls-3" cx="261" cy="539.86" r="2.5"/>
        <circle class="cls-3" cx="291" cy="509.86" r="2.5"/>
        <circle class="cls-3" cx="261" cy="479.86" r="2.5"/>
        <circle class="cls-3" cx="231" cy="509.86" r="2.5"/>
        <circle class="cls-3" cx="261" cy="509.86" r="1.12"/>
      </g>
      <g>
        <circle class="cls-3" cx="351" cy="539.86" r="2.5"/>
        <circle class="cls-3" cx="381" cy="509.86" r="2.5"/>
        <circle class="cls-3" cx="351" cy="479.86" r="2.5"/>
        <circle class="cls-3" cx="321" cy="509.86" r="2.5"/>
        <circle class="cls-3" cx="351" cy="509.86" r="1.12"/>
      </g>
      <g>
        <circle class="cls-3" cx="111" cy="509.86" r="2.5"/>
        <circle class="cls-3" cx="81" cy="539.86" r="2.5"/>
        <circle class="cls-3" cx="51" cy="509.86" r="2.5"/>
        <circle class="cls-3" cx="81" cy="479.86" r="2.5"/>
        <circle class="cls-3" cx="81" cy="509.86" r="1.13"/>
      </g>
      <g>
        <circle class="cls-3" cx="201" cy="509.86" r="2.5"/>
        <circle class="cls-3" cx="171" cy="539.86" r="2.5"/>
        <circle class="cls-3" cx="141" cy="509.86" r="2.5"/>
        <circle class="cls-3" cx="171" cy="479.86" r="2.5"/>
        <circle class="cls-3" cx="171" cy="509.86" r="1.13"/>
      </g>
      <g>
        <circle class="cls-3" cx="621" cy="539.86" r="2.5"/>
        <circle class="cls-3" cx="651" cy="509.86" r="2.5"/>
        <circle class="cls-3" cx="621" cy="479.86" r="2.5"/>
        <circle class="cls-3" cx="591" cy="509.86" r="2.5"/>
        <circle class="cls-3" cx="621" cy="509.86" r="1.12"/>
      </g>
      <g>
        <circle class="cls-3" cx="711" cy="539.86" r="2.5"/>
        <circle class="cls-3" cx="741" cy="509.86" r="2.5"/>
        <circle class="cls-3" cx="711" cy="479.86" r="2.5"/>
        <circle class="cls-3" cx="681" cy="509.86" r="2.5"/>
        <circle class="cls-3" cx="711" cy="509.86" r="1.12"/>
      </g>
      <g>
        <circle class="cls-3" cx="471" cy="509.86" r="2.5"/>
        <circle class="cls-3" cx="441" cy="539.86" r="2.5"/>
        <circle class="cls-3" cx="411" cy="509.86" r="2.5"/>
        <circle class="cls-3" cx="441" cy="479.86" r="2.5"/>
        <circle class="cls-3" cx="441" cy="509.86" r="1.13"/>
      </g>
      <g>
        <circle class="cls-3" cx="561" cy="509.86" r="2.5"/>
        <circle class="cls-3" cx="531" cy="539.86" r="2.5"/>
        <circle class="cls-3" cx="501" cy="509.86" r="2.5"/>
        <circle class="cls-3" cx="531" cy="479.86" r="2.5"/>
        <circle class="cls-3" cx="531" cy="509.86" r="1.13"/>
      </g>
    </g>
  </g>
  <g>
    <line class="cls-10" x1="46.57" y1="242.83" x2="741.57" y2="242.83"/>
    <line class="cls-10" x1="46.57" y1="352.83" x2="741.57" y2="352.83"/>
    <line class="cls-10" x1="394.07" y1="147.36" x2="394.07" y2="560.61"/>
    <line class="cls-10" x1="46.57" y1="462.83" x2="741.57" y2="462.83"/>
  </g>
  <g>
    <rect class="cls-9" x="82.75" y="178.61" width="25" height="2.5" rx=".99" ry=".99" transform="translate(190.5 359.72) rotate(180)"/>
    <rect class="cls-6" x="54.25" y="178.61" width="25" height="2.5" rx=".99" ry=".99"/>
    <rect class="cls-9" x="82.75" y="288.61" width="25" height="2.5" rx=".99" ry=".99" transform="translate(190.5 579.72) rotate(180)"/>
    <rect class="cls-6" x="54.25" y="288.61" width="25" height="2.5" rx=".99" ry=".99"/>
    <rect class="cls-9" x="172.75" y="398.61" width="25" height="2.5" rx=".99" ry=".99" transform="translate(370.5 799.72) rotate(180)"/>
    <rect class="cls-6" x="158.5" y="384.36" width="25" height="2.5" rx=".99" ry=".99" transform="translate(556.61 214.61) rotate(90)"/>
    <rect class="cls-9" x="262.75" y="508.61" width="25" height="2.5" rx=".99" ry=".99" transform="translate(550.5 1019.72) rotate(-180)"/>
    <rect class="cls-6" x="248.5" y="522.86" width="25" height="2.5" rx=".99" ry=".99" transform="translate(-263.11 785.11) rotate(-90)"/>
    <rect class="cls-9" x="352.75" y="508.61" width="25" height="2.5" rx=".99" ry=".99" transform="translate(730.5 1019.72) rotate(-180)"/>
    <rect class="cls-6" x="338.5" y="522.86" width="25" height="2.5" rx=".99" ry=".99" transform="translate(-173.11 875.11) rotate(-90)"/>
    <rect class="cls-9" x="68.5" y="494.36" width="25" height="2.5" rx=".99" ry=".99" transform="translate(576.61 414.61) rotate(90)"/>
    <rect class="cls-6" x="82.75" y="508.61" width="25" height="2.5" rx=".99" ry=".99" transform="translate(190.5 1019.72) rotate(-180)"/>
    <rect class="cls-9" x="158.5" y="494.36" width="25" height="2.5" rx=".99" ry=".99" transform="translate(666.61 324.61) rotate(90)"/>
    <rect class="cls-6" x="172.75" y="508.61" width="25" height="2.5" rx=".99" ry=".99" transform="translate(370.5 1019.72) rotate(-180)"/>
    <rect class="cls-9" x="622.75" y="508.61" width="25" height="2.5" rx=".99" ry=".99" transform="translate(1270.5 1019.72) rotate(-180)"/>
    <rect class="cls-6" x="608.5" y="522.86" width="25" height="2.5" rx=".99" ry=".99" transform="translate(96.89 1145.11) rotate(-90)"/>
    <rect class="cls-9" x="712.75" y="508.61" width="25" height="2.5" rx=".99" ry=".99" transform="translate(1450.5 1019.72) rotate(-180)"/>
    <rect class="cls-6" x="698.5" y="522.86" width="25" height="2.5" rx=".99" ry=".99" transform="translate(186.89 1235.11) rotate(-90)"/>
    <rect class="cls-9" x="428.5" y="494.36" width="25" height="2.5" rx=".99" ry=".99" transform="translate(936.61 54.61) rotate(90)"/>
    <rect class="cls-6" x="442.75" y="508.61" width="25" height="2.5" rx=".99" ry=".99" transform="translate(910.5 1019.72) rotate(-180)"/>
    <rect class="cls-9" x="518.5" y="494.36" width="25" height="2.5" rx=".99" ry=".99" transform="translate(1026.61 -35.39) rotate(90)"/>
    <rect class="cls-6" x="532.75" y="508.61" width="25" height="2.5" rx=".99" ry=".99" transform="translate(1090.5 1019.72) rotate(-180)"/>
    <rect class="cls-9" x="338.5" y="412.86" width="25" height="2.5" rx=".99" ry=".99" transform="translate(-63.11 765.11) rotate(-90)"/>
    <rect class="cls-6" x="324.25" y="398.61" width="25" height="2.5" rx=".99" ry=".99"/>
    <rect class="cls-9" x="82.75" y="398.61" width="25" height="2.5" rx=".99" ry=".99" transform="translate(190.5 799.72) rotate(180)"/>
    <rect class="cls-6" x="68.5" y="384.36" width="25" height="2.5" rx=".99" ry=".99" transform="translate(466.61 304.61) rotate(90)"/>
    <rect class="cls-9" x="248.5" y="412.86" width="25" height="2.5" rx=".99" ry=".99" transform="translate(-153.11 675.11) rotate(-90)"/>
    <rect class="cls-6" x="234.25" y="398.61" width="25" height="2.5" rx=".99" ry=".99"/>
    <rect class="cls-9" x="532.75" y="398.61" width="25" height="2.5" rx=".99" ry=".99" transform="translate(1090.5 799.72) rotate(180)"/>
    <rect class="cls-6" x="518.5" y="384.36" width="25" height="2.5" rx=".99" ry=".99" transform="translate(916.61 -145.39) rotate(90)"/>
    <rect class="cls-9" x="698.5" y="412.86" width="25" height="2.5" rx=".99" ry=".99" transform="translate(296.89 1125.11) rotate(-90)"/>
    <rect class="cls-6" x="684.25" y="398.61" width="25" height="2.5" rx=".99" ry=".99"/>
    <rect class="cls-9" x="442.75" y="398.61" width="25" height="2.5" rx=".99" ry=".99" transform="translate(910.5 799.72) rotate(180)"/>
    <rect class="cls-6" x="428.5" y="384.36" width="25" height="2.5" rx=".99" ry=".99" transform="translate(826.61 -55.39) rotate(90)"/>
    <rect class="cls-9" x="608.5" y="412.86" width="25" height="2.5" rx=".99" ry=".99" transform="translate(206.89 1035.11) rotate(-90)"/>
    <rect class="cls-6" x="594.25" y="398.61" width="25" height="2.5" rx=".99" ry=".99"/>
    <rect class="cls-9" x="250.52" y="192.84" width="25" height="2.5" rx=".99" ry=".99" transform="translate(68.94 457.11) rotate(-90)"/>
    <rect class="cls-6" x="246.52" y="192.84" width="25" height="2.5" rx=".99" ry=".99" transform="translate(64.94 453.11) rotate(-90)"/>
    <rect class="cls-9" x="172.75" y="178.61" width="25" height="2.5" rx=".99" ry=".99" transform="translate(370.5 359.72) rotate(180)"/>
    <rect class="cls-6" x="144.25" y="178.61" width="25" height="2.5" rx=".99" ry=".99"/>
    <rect class="cls-9" x="340.52" y="192.84" width="25" height="2.5" rx=".99" ry=".99" transform="translate(158.94 547.11) rotate(-90)"/>
    <rect class="cls-6" x="336.52" y="192.84" width="25" height="2.5" rx=".99" ry=".99" transform="translate(154.94 543.11) rotate(-90)"/>
    <rect class="cls-9" x="442.75" y="178.61" width="25" height="2.5" rx=".99" ry=".99" transform="translate(910.5 359.72) rotate(180)"/>
    <rect class="cls-6" x="414.25" y="178.61" width="25" height="2.5" rx=".99" ry=".99"/>
    <rect class="cls-9" x="610.52" y="192.84" width="25" height="2.5" rx=".99" ry=".99" transform="translate(428.94 817.11) rotate(-90)"/>
    <rect class="cls-6" x="606.52" y="192.84" width="25" height="2.5" rx=".99" ry=".99" transform="translate(424.94 813.11) rotate(-90)"/>
    <rect class="cls-9" x="532.75" y="178.61" width="25" height="2.5" rx=".99" ry=".99" transform="translate(1090.5 359.72) rotate(180)"/>
    <rect class="cls-6" x="504.25" y="178.61" width="25" height="2.5" rx=".99" ry=".99"/>
    <rect class="cls-9" x="700.52" y="192.84" width="25" height="2.5" rx=".99" ry=".99" transform="translate(518.94 907.11) rotate(-90)"/>
    <rect class="cls-6" x="696.52" y="192.84" width="25" height="2.5" rx=".99" ry=".99" transform="translate(514.94 903.11) rotate(-90)"/>
    <rect class="cls-9" x="336.48" y="302.84" width="25" height="2.5" rx=".99" ry=".99" transform="translate(44.89 653.06) rotate(-90)"/>
    <rect class="cls-6" x="340.48" y="302.84" width="25" height="2.5" rx=".99" ry=".99" transform="translate(48.89 657.06) rotate(-90)"/>
    <rect class="cls-9" x="172.75" y="288.61" width="25" height="2.5" rx=".99" ry=".99" transform="translate(370.5 579.72) rotate(-180)"/>
    <rect class="cls-6" x="144.25" y="288.61" width="25" height="2.5" rx=".99" ry=".99"/>
    <rect class="cls-9" x="246.48" y="302.84" width="25" height="2.5" rx=".99" ry=".99" transform="translate(-45.11 563.06) rotate(-90)"/>
    <rect class="cls-6" x="250.48" y="302.84" width="25" height="2.5" rx=".99" ry=".99" transform="translate(-41.11 567.06) rotate(-90)"/>
    <rect class="cls-9" x="532.75" y="288.61" width="25" height="2.5" rx=".99" ry=".99" transform="translate(1090.5 579.72) rotate(-180)"/>
    <rect class="cls-6" x="504.25" y="288.61" width="25" height="2.5" rx=".99" ry=".99"/>
    <rect class="cls-9" x="696.48" y="302.84" width="25" height="2.5" rx=".99" ry=".99" transform="translate(404.89 1013.06) rotate(-90)"/>
    <rect class="cls-6" x="700.48" y="302.84" width="25" height="2.5" rx=".99" ry=".99" transform="translate(408.89 1017.06) rotate(-90)"/>
    <rect class="cls-9" x="442.75" y="288.61" width="25" height="2.5" rx=".99" ry=".99" transform="translate(910.5 579.72) rotate(-180)"/>
    <rect class="cls-6" x="414.25" y="288.61" width="25" height="2.5" rx=".99" ry=".99"/>
    <rect class="cls-9" x="606.48" y="302.84" width="25" height="2.5" rx=".99" ry=".99" transform="translate(314.89 923.06) rotate(-90)"/>
    <rect class="cls-6" x="610.48" y="302.84" width="25" height="2.5" rx=".99" ry=".99" transform="translate(318.89 927.06) rotate(-90)"/>
  </g>
</svg>