<?xml version="1.0" encoding="UTF-8"?>
<svg id="Layer_1" data-name="Layer 1" xmlns="http://www.w3.org/2000/svg" viewBox="0 0 792 612">
  <defs>
    <style>
      .cls-1 {
        font-family: MonotypeCorsiva, 'Monotype Corsiva';
        font-size: 37px;
      }

      .cls-1, .cls-2, .cls-3, .cls-4 {
        fill: #231f20;
      }

      .cls-5 {
        fill: #00aeef;
      }

      .cls-6 {
        fill: #2e3192;
      }

      .cls-7, .cls-4 {
        font-family: Cambria-BoldItalic, Cambria;
        font-size: 30px;
        font-style: italic;
        font-weight: 700;
      }

      .cls-2 {
        letter-spacing: -.03em;
      }

      .cls-8 {
        fill: #7f3f98;
      }

      .cls-9 {
        fill: #ed1c24;
      }

      .cls-10 {
        fill: none;
        stroke: #231f20;
        stroke-miterlimit: 10;
        stroke-width: .5px;
      }
    </style>
  </defs>
  <text transform="translate(295.57 43.55)"><tspan class="cls-1"><tspan x="0" y="0">Hand-Reversal</tspan></tspan><tspan class="cls-4"><tspan x="25.41" y="36">Type 1 → 2</tspan></tspan><tspan class="cls-7"><tspan class="cls-8" x="-16.61" y="72">Shift</tspan><tspan class="cls-3" x="45.4" y="72">→ </tspan><tspan class="cls-5" x="77.14" y="72">Dual</tspan><tspan class="cls-2" x="141.04" y="72">-</tspan><tspan class="cls-8" x="149.92" y="72">Shift</tspan></tspan></text>
  <g>
    <path class="cls-6" d="m436.01,212.18c.55,0,.99-.61.99-1.09,0-29.84,1.83-28.06-20.52-28.06-1.43,0-1.31,1.98,0,1.98,20.23,0,18.33-1.87,18.33,20.44,0,.34-.42.26-.63.26-13.72-.09-21-3-21-18.19l2.49,2.44s1.1-1.04.5-1.87c-.82-1.11-3.78-3.68-4.07-3.93-.29.25-3.25,2.82-4.07,3.93-.6.83.5,1.87.5,1.87l2.58-2.44c0,20.75,14.48,20.32,23.66,20.32v3.25c0,.6.69,1.09,1.23,1.09Z"/>
    <path class="cls-6" d="m525.21,213c.55,0,.99-.61.99-1.09,0-29.84,1.83-28.06-20.52-28.06-1.43,0-1.31,1.98,0,1.98,20.23,0,18.33-1.87,18.33,20.44,0,.34-.42.26-.63.26-13.72-.09-21-3-21-18.19l2.49,2.44s1.1-1.04.5-1.87c-.82-1.11-3.78-3.68-4.07-3.93-.29.25-3.25,2.82-4.07,3.93-.6.83.5,1.87.5,1.87l2.58-2.44c0,20.75,14.48,20.32,23.66,20.32v3.25c0,.6.69,1.09,1.23,1.09Z"/>
    <path class="cls-6" d="m587.16,185.47c0-.55.61-.99,1.09-.99,29.84,0,28.06-1.83,28.06,20.52,0,1.43-1.98,1.31-1.98,0,0-20.23,1.87-18.33-20.44-18.33-.34,0-.26.42-.26.63.09,13.72,3,21,18.19,21l-2.44-2.49s1.04-1.1,1.87-.5c1.11.82,3.68,3.78,3.93,4.07-.25.29-2.82,3.25-3.93,4.07-.83.6-1.87-.5-1.87-.5l2.44-2.58c-20.75,0-20.32-14.48-20.32-23.66h-3.25c-.6,0-1.09-.69-1.09-1.23Z"/>
    <path class="cls-6" d="m677.16,185.47c0-.55.61-.99,1.09-.99,29.84,0,28.06-1.83,28.06,20.52,0,1.43-1.98,1.31-1.98,0,0-20.23,1.87-18.33-20.44-18.33-.34,0-.26.42-.26.63.09,13.72,3,21,18.19,21l-2.44-2.49s1.04-1.1,1.87-.5c1.11.82,3.68,3.78,3.93,4.07-.25.29-2.82,3.25-3.93,4.07-.83.6-1.87-.5-1.87-.5l2.44-2.58c-20.75,0-20.32-14.48-20.32-23.66h-3.25c-.6,0-1.09-.69-1.09-1.23Z"/>
    <path class="cls-6" d="m436.01,257.22c.55,0,.99.61.99,1.09,0,29.84,1.83,28.06-20.52,28.06-1.43,0-1.31-1.98,0-1.98,20.23,0,18.33,1.87,18.33-20.44,0-.34-.42-.26-.63-.26-13.72.09-21,3-21,18.19l2.49-2.44s1.1,1.04.5,1.87c-.82,1.11-3.78,3.68-4.07,3.93-.29-.25-3.25-2.82-4.07-3.93-.6-.83.5-1.87.5-1.87l2.58,2.44c0-20.75,14.48-20.32,23.66-20.32v-3.25c0-.6.69-1.09,1.23-1.09Z"/>
    <path class="cls-6" d="m526.01,257.22c.55,0,.99.61.99,1.09,0,29.84,1.83,28.06-20.52,28.06-1.43,0-1.31-1.98,0-1.98,20.23,0,18.33,1.87,18.33-20.44,0-.34-.42-.26-.63-.26-13.72.09-21,3-21,18.19l2.49-2.44s1.1,1.04.5,1.87c-.82,1.11-3.78,3.68-4.07,3.93-.29-.25-3.25-2.82-4.07-3.93-.6-.83.5-1.87.5-1.87l2.58,2.44c0-20.75,14.48-20.32,23.66-20.32v-3.25c0-.6.69-1.09,1.23-1.09Z"/>
    <path class="cls-6" d="m655.16,295.47c0-.55-.61-.99-1.09-.99-29.84,0-28.06-1.83-28.06,20.52,0,1.43,1.98,1.31,1.98,0,0-20.23-1.87-18.33,20.44-18.33.34,0,.26.42.26.63-.09,13.72-3,21-18.19,21l2.44-2.49s-1.04-1.1-1.87-.5c-1.11.82-3.68,3.78-3.93,4.07.25.29,2.82,3.25,3.93,4.07.83.6,1.87-.5,1.87-.5l-2.44-2.58c20.75,0,20.32-14.48,20.32-23.66h3.25c.6,0,1.09-.69,1.09-1.23Z"/>
    <path class="cls-6" d="m745.16,295.47c0-.55-.61-.99-1.09-.99-29.84,0-28.06-1.83-28.06,20.52,0,1.43,1.98,1.31,1.98,0,0-20.23-1.87-18.33,20.44-18.33.34,0,.26.42.26.63-.09,13.72-3,21-18.19,21l2.44-2.49s-1.04-1.1-1.87-.5c-1.11.82-3.68,3.78-3.93,4.07.25.29,2.82,3.25,3.93,4.07.83.6,1.87-.5,1.87-.5l-2.44-2.58c20.75,0,20.32-14.48,20.32-23.66h3.25c.6,0,1.09-.69,1.09-1.23Z"/>
    <path class="cls-6" d="m408.81,395.61c0,.55.61.99,1.09.99,29.84,0,28.06,1.83,28.06-20.52,0-1.43-1.98-1.31-1.98,0,0,20.23,1.87,18.33-20.44,18.33-.34,0-.26-.42-.26-.63.09-13.72,3-21,18.19-21l-2.44,2.49s1.04,1.1,1.87.5c1.11-.82,3.68-3.78,3.93-4.07-.25-.29-2.82-3.25-3.93-4.07-.83-.6-1.87.5-1.87.5l2.44,2.58c-20.75,0-20.32,14.48-20.32,23.66h-3.25c-.6,0-1.09.69-1.09,1.23Z"/>
    <path class="cls-6" d="m498.81,395.61c0,.55.61.99,1.09.99,29.84,0,28.06,1.83,28.06-20.52,0-1.43-1.98-1.31-1.98,0,0,20.23,1.87,18.33-20.44,18.33-.34,0-.26-.42-.26-.63.09-13.72,3-21,18.19-21l-2.44,2.49s1.04,1.1,1.87.5c1.11-.82,3.68-3.78,3.93-4.07-.25-.29-2.82-3.25-3.93-4.07-.83-.6-1.87.5-1.87.5l2.44,2.58c-20.75,0-20.32,14.48-20.32,23.66h-3.25c-.6,0-1.09.69-1.09,1.23Z"/>
    <path class="cls-6" d="m616.11,432.28c.55,0,.99-.61.99-1.09,0-29.84,1.83-28.06-20.52-28.06-1.43,0-1.31,1.98,0,1.98,20.23,0,18.33-1.87,18.33,20.44,0,.34-.42.26-.63.26-13.72-.09-21-3-21-18.19l2.49,2.44s1.1-1.04.5-1.87c-.82-1.11-3.78-3.68-4.07-3.93-.29.25-3.25,2.82-4.07,3.93-.6.83.5,1.87.5,1.87l2.58-2.44c0,20.75,14.48,20.32,23.66,20.32v3.25c0,.6.69,1.09,1.23,1.09Z"/>
    <path class="cls-6" d="m706.11,432.28c.55,0,.99-.61.99-1.09,0-29.84,1.83-28.06-20.52-28.06-1.43,0-1.31,1.98,0,1.98,20.23,0,18.33-1.87,18.33,20.44,0,.34-.42.26-.63.26-13.72-.09-21-3-21-18.19l2.49,2.44s1.1-1.04.5-1.87c-.82-1.11-3.78-3.68-4.07-3.93-.29.25-3.25,2.82-4.07,3.93-.6.83.5,1.87.5,1.87l2.58-2.44c0,20.75,14.48,20.32,23.66,20.32v3.25c0,.6.69,1.09,1.23,1.09Z"/>
    <path class="cls-6" d="m408.5,514.85c0-.55.61-.99,1.09-.99,29.84,0,28.06-1.83,28.06,20.52,0,1.43-1.98,1.31-1.98,0,0-20.23,1.87-18.33-20.44-18.33-.34,0-.26.42-.26.63.09,13.72,3,21,18.19,21l-2.44-2.49s1.04-1.1,1.87-.5c1.11.82,3.68,3.78,3.93,4.07-.25.29-2.82,3.25-3.93,4.07-.83.6-1.87-.5-1.87-.5l2.44-2.58c-20.75,0-20.32-14.48-20.32-23.66h-3.25c-.6,0-1.09-.69-1.09-1.23Z"/>
    <path class="cls-6" d="m498.5,514.85c0-.55.61-.99,1.09-.99,29.84,0,28.06-1.83,28.06,20.52,0,1.43-1.98,1.31-1.98,0,0-20.23,1.87-18.33-20.44-18.33-.34,0-.26.42-.26.63.09,13.72,3,21,18.19,21l-2.44-2.49s1.04-1.1,1.87-.5c1.11.82,3.68,3.78,3.93,4.07-.25.29-2.82,3.25-3.93,4.07-.83.6-1.87-.5-1.87-.5l2.44-2.58c-20.75,0-20.32-14.48-20.32-23.66h-3.25c-.6,0-1.09-.69-1.09-1.23Z"/>
    <path class="cls-6" d="m625.77,477.72c-.55,0-.99.61-.99,1.09,0,29.84-1.83,28.06,20.52,28.06,1.43,0,1.31-1.98,0-1.98-20.23,0-18.33,1.87-18.33-20.44,0-.34.42-.26.63-.26,13.72.09,21,3,21,18.19l-2.49-2.44s-1.1,1.04-.5,1.87c.82,1.11,3.78,3.68,4.07,3.93.29-.25,3.25-2.82,4.07-3.93.6-.83-.5-1.87-.5-1.87l-2.58,2.44c0-20.75-14.48-20.32-23.66-20.32v-3.25c0-.6-.69-1.09-1.23-1.09Z"/>
    <path class="cls-6" d="m715.77,476.71c-.55,0-.99.61-.99,1.09,0,29.84-1.83,28.06,20.52,28.06,1.43,0,1.31-1.98,0-1.98-20.23,0-18.33,1.87-18.33-20.44,0-.34.42-.26.63-.26,13.72.09,21,3,21,18.19l-2.49-2.44s-1.1,1.04-.5,1.87c.82,1.11,3.78,3.68,4.07,3.93.29-.25,3.25-2.82,4.07-3.93.6-.83-.5-1.87-.5-1.87l-2.58,2.44c0-20.75-14.48-20.32-23.66-20.32v-3.25c0-.6-.69-1.09-1.23-1.09Z"/>
    <path class="cls-6" d="m76.94,209.65c0,.55-.49.99-1.09.99h-4.89c-1.03,0-2.03-.02-3.01-.06-12.2-.44-20.55-4.12-20.55-21.5,0-1.42,2.06-1.37,2.06.05,0,16.97,8.91,19.37,20.78,19.37.34,0,.97-.09.97-.43,0-21.55,2.03-20.37-16.64-20.37l2.37,2.48s-1.04,1.1-1.87.5c-1.11-.82-3.68-3.78-3.93-4.07.25-.29,2.82-3.25,3.93-4.07.83-.6,1.87.5,1.87.5l-2.4,2.7c20.22,0,18.86-1.08,18.86,22.93h2.44c.6,0,1.09.45,1.09.99Z"/>
    <path class="cls-6" d="m166.94,209.65c0,.55-.49.99-1.09.99h-4.89c-1.03,0-2.03-.02-3.01-.06-12.2-.44-20.55-4.12-20.55-21.5,0-1.42,2.06-1.37,2.06.05,0,16.97,8.91,19.37,20.78,19.37.34,0,.97-.09.97-.43,0-21.55,2.03-20.37-16.64-20.37l2.37,2.48s-1.04,1.1-1.87.5c-1.11-.82-3.68-3.78-3.93-4.07.25-.29,2.82-3.25,3.93-4.07.83-.6,1.87.5,1.87.5l-2.4,2.7c20.22,0,18.86-1.08,18.86,22.93h2.44c.6,0,1.09.45,1.09.99Z"/>
    <path class="cls-6" d="m231.21,183.92c-.55,0-.99.49-.99,1.09v4.89c0,1.03.02,2.03.06,3.01.44,12.2,4.12,20.55,21.5,20.55,1.42,0,1.37-2.06-.05-2.06-16.97,0-19.37-8.91-19.37-20.78,0-.34.09-.97.43-.97,21.55,0,20.37-2.03,20.37,16.64l-2.48-2.37s-1.1,1.04-.5,1.87c.82,1.11,3.78,3.68,4.07,3.93.29-.25,3.25-2.82,4.07-3.93.6-.83-.5-1.87-.5-1.87l-2.7,2.4c0-20.22,1.08-18.86-22.93-18.86v-2.44c0-.6-.45-1.09-.99-1.09Z"/>
    <path class="cls-6" d="m319.87,183.07c-.55,0-.99.49-.99,1.09v4.89c0,1.03.02,2.03.06,3.01.44,12.2,4.12,20.55,21.5,20.55,1.42,0,1.37-2.06-.05-2.06-16.97,0-19.37-8.91-19.37-20.78,0-.34.09-.97.43-.97,21.55,0,20.37-2.03,20.37,16.64l-2.48-2.37s-1.1,1.04-.5,1.87c.82,1.11,3.78,3.68,4.07,3.93.29-.25,3.25-2.82,4.07-3.93.6-.83-.5-1.87-.5-1.87l-2.7,2.4c0-20.22,1.08-18.86-22.93-18.86v-2.44c0-.6-.45-1.09-.99-1.09Z"/>
    <path class="cls-6" d="m76.94,260.07c0-.55-.49-.99-1.09-.99h-4.89c-1.03,0-2.03.02-3.01.06-12.2.44-20.55,4.12-20.55,21.5,0,1.42,2.06,1.37,2.06-.05,0-16.97,8.91-19.37,20.78-19.37.34,0,.97.09.97.43,0,21.55,2.03,20.37-16.64,20.37l2.37-2.48s-1.04-1.1-1.87-.5c-1.11.82-3.68,3.78-3.93,4.07.25.29,2.82,3.25,3.93,4.07.83.6,1.87-.5,1.87-.5l-2.4-2.7c20.22,0,18.86,1.08,18.86-22.93h2.44c.6,0,1.09-.45,1.09-.99Z"/>
    <path class="cls-6" d="m166.94,260.07c0-.55-.49-.99-1.09-.99h-4.89c-1.03,0-2.03.02-3.01.06-12.2.44-20.55,4.12-20.55,21.5,0,1.42,2.06,1.37,2.06-.05,0-16.97,8.91-19.37,20.78-19.37.34,0,.97.09.97.43,0,21.55,2.03,20.37-16.64,20.37l2.37-2.48s-1.04-1.1-1.87-.5c-1.11.82-3.68,3.78-3.93,4.07.25.29,2.82,3.25,3.93,4.07.83.6,1.87-.5,1.87-.5l-2.4-2.7c20.22,0,18.86,1.08,18.86-22.93h2.44c.6,0,1.09-.45,1.09-.99Z"/>
    <path class="cls-6" d="m292.25,293.91c.55,0,.99.49.99,1.09v4.89c0,1.03-.02,2.03-.06,3.01-.44,12.2-4.12,20.55-21.5,20.55-1.42,0-1.37-2.06.05-2.06,16.97,0,19.37-8.91,19.37-20.78,0-.34-.09-.97-.43-.97-21.55,0-20.37-2.03-20.37,16.64l2.48-2.37s1.1,1.04.5,1.87c-.82,1.11-3.78,3.68-4.07,3.93-.29-.25-3.25-2.82-4.07-3.93-.6-.83.5-1.87.5-1.87l2.7,2.4c0-20.22-1.08-18.86,22.93-18.86v-2.44c0-.6.45-1.09.99-1.09Z"/>
    <path class="cls-6" d="m381.88,292.64c.55,0,.99.49.99,1.09v4.89c0,1.03-.02,2.03-.06,3.01-.44,12.2-4.12,20.55-21.5,20.55-1.42,0-1.37-2.06.05-2.06,16.97,0,19.37-8.91,19.37-20.78,0-.34-.09-.97-.43-.97-21.55,0-20.37-2.03-20.37,16.64l2.48-2.37s1.1,1.04.5,1.87c-.82,1.11-3.78,3.68-4.07,3.93-.29-.25-3.25-2.82-4.07-3.93-.6-.83.5-1.87.5-1.87l2.7,2.4c0-20.22-1.08-18.86,22.93-18.86v-2.44c0-.6.45-1.09.99-1.09Z"/>
    <path class="cls-6" d="m50.77,396.28c-.55,0-.99-.49-.99-1.09v-4.89c0-1.03.02-2.03.06-3.01.44-12.2,4.12-20.55,21.5-20.55,1.42,0,1.37,2.06-.05,2.06-16.97,0-19.37,8.91-19.37,20.78,0,.34.09.97.43.97,21.55,0,20.37,2.03,20.37-16.64l-2.48,2.37s-1.1-1.04-.5-1.87c.82-1.11,3.78-3.68,4.07-3.93.29.25,3.25,2.82,4.07,3.93.6.83-.5,1.87-.5,1.87l-2.7-2.4c0,20.22,1.08,18.86-22.93,18.86v2.44c0,.6-.45,1.09-.99,1.09Z"/>
    <path class="cls-6" d="m140.77,396.28c-.55,0-.99-.49-.99-1.09v-4.89c0-1.03.02-2.03.06-3.01.44-12.2,4.12-20.55,21.5-20.55,1.42,0,1.37,2.06-.05,2.06-16.97,0-19.37,8.91-19.37,20.78,0,.34.09.97.43.97,21.55,0,20.37,2.03,20.37-16.64l-2.48,2.37s-1.1-1.04-.5-1.87c.82-1.11,3.78-3.68,4.07-3.93.29.25,3.25,2.82,4.07,3.93.6.83-.5,1.87-.5,1.87l-2.7-2.4c0,20.22,1.08,18.86-22.93,18.86v2.44c0,.6-.45,1.09-.99,1.09Z"/>
    <path class="cls-6" d="m257.42,430.09c0,.55-.49.99-1.09.99h-4.89c-1.03,0-2.03-.02-3.01-.06-12.2-.44-20.55-4.12-20.55-21.5,0-1.42,2.06-1.37,2.06.05,0,16.97,8.91,19.37,20.78,19.37.34,0,.97-.09.97-.43,0-21.55,2.03-20.37-16.64-20.37l2.37,2.48s-1.04,1.1-1.87.5c-1.11-.82-3.68-3.78-3.93-4.07.25-.29,2.82-3.25,3.93-4.07.83-.6,1.87.5,1.87.5l-2.4,2.7c20.22,0,18.86-1.08,18.86,22.93h2.44c.6,0,1.09.45,1.09.99Z"/>
    <path class="cls-6" d="m347.42,430.09c0,.55-.49.99-1.09.99h-4.89c-1.03,0-2.03-.02-3.01-.06-12.2-.44-20.55-4.12-20.55-21.5,0-1.42,2.06-1.37,2.06.05,0,16.97,8.91,19.37,20.78,19.37.34,0,.97-.09.97-.43,0-21.55,2.03-20.37-16.64-20.37l2.37,2.48s-1.04,1.1-1.87.5c-1.11-.82-3.68-3.78-3.93-4.07.25-.29,2.82-3.25,3.93-4.07.83-.6,1.87.5,1.87.5l-2.4,2.7c20.22,0,18.86-1.08,18.86,22.93h2.44c.6,0,1.09.45,1.09.99Z"/>
    <path class="cls-6" d="m51.99,513.04c-.55,0-.99.49-.99,1.09v4.89c0,1.03.02,2.03.06,3.01.44,12.2,4.12,20.55,21.5,20.55,1.42,0,1.37-2.06-.05-2.06-16.97,0-19.37-8.91-19.37-20.78,0-.34.09-.97.43-.97,21.55,0,20.37-2.03,20.37,16.64l-2.48-2.37s-1.1,1.04-.5,1.87c.82,1.11,3.78,3.68,4.07,3.93.29-.25,3.25-2.82,4.07-3.93.6-.83-.5-1.87-.5-1.87l-2.7,2.4c0-20.22,1.08-18.86-22.93-18.86v-2.44c0-.6-.45-1.09-.99-1.09Z"/>
    <path class="cls-6" d="m141.99,513.04c-.55,0-.99.49-.99,1.09v4.89c0,1.03.02,2.03.06,3.01.44,12.2,4.12,20.55,21.5,20.55,1.42,0,1.37-2.06-.05-2.06-16.97,0-19.37-8.91-19.37-20.78,0-.34.09-.97.43-.97,21.55,0,20.37-2.03,20.37,16.64l-2.48-2.37s-1.1,1.04-.5,1.87c.82,1.11,3.78,3.68,4.07,3.93.29-.25,3.25-2.82,4.07-3.93.6-.83-.5-1.87-.5-1.87l-2.7,2.4c0-20.22,1.08-18.86-22.93-18.86v-2.44c0-.6-.45-1.09-.99-1.09Z"/>
    <path class="cls-6" d="m264.18,480.85c0-.55.49-.99,1.09-.99h4.89c1.03,0,2.03.02,3.01.06,12.2.44,20.55,4.12,20.55,21.5,0,1.42-2.06,1.37-2.06-.05,0-16.97-8.91-19.37-20.78-19.37-.34,0-.97.09-.97.43,0,21.55-2.03,20.37,16.64,20.37l-2.37-2.48s1.04-1.1,1.87-.5c1.11.82,3.68,3.78,3.93,4.07-.25.29-2.82,3.25-3.93,4.07-.83.6-1.87-.5-1.87-.5l2.4-2.7c-20.22,0-18.86,1.08-18.86-22.93h-2.44c-.6,0-1.09-.45-1.09-.99Z"/>
    <path class="cls-6" d="m353.95,480.85c0-.55.49-.99,1.09-.99h4.89c1.03,0,2.03.02,3.01.06,12.2.44,20.55,4.12,20.55,21.5,0,1.42-2.06,1.37-2.06-.05,0-16.97-8.91-19.37-20.78-19.37-.34,0-.97.09-.97.43,0,21.55-2.03,20.37,16.64,20.37l-2.37-2.48s1.04-1.1,1.87-.5c1.11.82,3.68,3.78,3.93,4.07-.25.29-2.82,3.25-3.93,4.07-.83.6-1.87-.5-1.87-.5l2.4-2.7c-20.22,0-18.86,1.08-18.86-22.93h-2.44c-.6,0-1.09-.45-1.09-.99Z"/>
  </g>
  <g>
    <g>
      <path class="cls-3" d="m630.95,558.04l-2.7-3.03c.87-.25,1.47-.64,1.8-1.14.66-1.02.77-2.65-.54-3.86-.83-.76-3.04-.82-5.15-.14l-.06.02-.02.05c-.26.54-.14,2.22.07,5.27.08,1.06.16,2.26.24,3.62.02.37.41.57.79.57.3,0,.77-.17.84-.62.06-.42-.05-2.87-.08-3.48h.17l3.42,3.83c.16.18.38.27.61.27.2,0,.4-.07.55-.21.34-.3.37-.83.07-1.16Zm-5.02-4.32l-.03-.2c-.13-.82-.2-1.21-.11-2.5.38-.1,1.92-.27,2.71.15.28.14.44.34.47.59.08.5-.06.95-.38,1.3-.52.53-1.46.77-2.66.67Z"/>
      <path class="cls-3" d="m621.58,559.41h-3.54c-.32,0-.53-.32-.41-.62,2.67-6.29.99-7.71-1.08-7.85-.04,0-.08,0-.12,0h-.02s-.09,0-.13,0c-.04,0-.08,0-.12,0-2.07.14-3.75,1.56-1.08,7.85.12.29-.09.62-.41.62h-3.54c-.14,0-.66-1.27.12-1.73.69-.41.99.09,1.81.11-2.24-4.96.04-7.96,2.78-8.36.08-.02.94-.02,1.02,0,2.74.41,5.02,3.4,2.78,8.36.82-.02,1.12-.51,1.81-.11.78.46.26,1.73.12,1.73Z"/>
    </g>
    <g>
      <path class="cls-3" d="m359.53,440.71c-.06.29-1.97,5.54-3.02,7.94-.32.73-.61.72-.74.72s-.42,0-.74-.72c-1.05-2.4-2.96-7.64-3.02-7.94-.23-1,.08-1.16.44-1.3.28-.13.86-.02,1.12.7.16.42,2.2,5.86,2.2,5.86,0,0,2.05-5.44,2.2-5.86.25-.72.83-.82,1.12-.7.36.15.67.3.44,1.3Z"/>
      <path class="cls-3" d="m347.64,443.55c.48.44.43.65.44.96s-.23.47-.53.71c-1.75,1.43-2.78,2.44-2.78,2.44,0,0,.42.05,4.42.05.4,0,.79.33.79.78,0,.48-.22.88-.64.88-2.35,0-4.02-.05-5.97-.05-.79,0-1.34-.19-1.52-.57-.17-.36-.12-.9.55-1.52,1.91-1.72,3.47-2.88,3.47-2.88,0,0-2.17-1.97-3.75-3.56-.33-.33-.43-.62-.31-.85.11-.2.55-.57.92-.57h6.71c.74,0,.77,1.31,0,1.31-3.37,0-5.2.02-5.2.02"/>
    </g>
    <g>
      <path class="cls-3" d="m270.1,440.29c-.01.49-.38.78-1.17.77h-2.09v7.47c0,.45-.37.83-.83.83s-.83-.38-.83-.83v-7.47h-2.09c-.79,0-1.16-.28-1.17-.77-.02-.62.45-.89,1.12-.91.82-.02,5.12-.02,5.94,0,.67.02,1.14.29,1.12.91Z"/>
      <path class="cls-3" d="m257.78,443.55c.48.44.43.65.44.96,0,.31-.23.47-.53.71-1.75,1.43-2.78,2.44-2.78,2.44,0,0,.42.05,4.42.05.4,0,.79.33.79.78,0,.48-.22.88-.64.88-2.35,0-4.02-.05-5.97-.05-.79,0-1.34-.19-1.52-.57-.17-.36-.12-.9.55-1.52,1.91-1.72,3.47-2.88,3.47-2.88,0,0-2.17-1.97-3.75-3.56-.33-.33-.43-.62-.31-.85.11-.2.55-.57.92-.57h6.71c.74,0,.77,1.31,0,1.31-3.37,0-5.2.02-5.2.02"/>
    </g>
    <g>
      <path class="cls-3" d="m268.71,558.04l-2.7-3.03c.87-.25,1.47-.64,1.8-1.14.66-1.02.77-2.65-.54-3.86-.83-.76-3.04-.82-5.15-.14l-.06.02-.02.05c-.26.54-.14,2.22.07,5.27.08,1.06.16,2.26.24,3.62.02.37.41.57.79.57.3,0,.77-.17.84-.62.06-.42-.05-2.87-.08-3.48h.17l3.42,3.83c.16.18.38.27.61.27.2,0,.4-.07.55-.21.34-.3.37-.83.07-1.16Zm-5.02-4.32l-.03-.2c-.13-.82-.2-1.21-.11-2.5.38-.1,1.92-.27,2.71.15.28.14.44.34.47.59.08.5-.06.95-.38,1.3-.52.53-1.46.77-2.66.67Z"/>
      <path class="cls-3" d="m256.31,549.41c-1.33,0-3.23,1.68-3.23,5,0,2.56,1.22,5,3.23,5s3.27-2.44,3.27-5c0-3.48-1.94-5-3.27-5Zm.01,1.37c.96,0,1.64,1.13,1.7,1.93.02.3,0,.81-.55.81h-2.33c-.46,0-.51-.5-.5-.76.07-.8.81-1.98,1.69-1.98Zm0,7.26c-1.08,0-1.72-1.28-1.79-2.08-.01-.25,0-.76.5-.76h2.53c.56,0,.58.5.55.81-.06.8-.72,2.03-1.8,2.03Z"/>
    </g>
    <g>
      <path class="cls-3" d="m436.72,331.15c-1.86,0-2.27,0-3.51,0-.46,0-1.11-.2-1.11-.85,0-.57.42-.88,1.07-.88,4.93,0,5.05-.05,5.58.38.28.22.43.73.15,1.14-1.71,2.48-4.64,6.6-4.64,6.6,0,0,2.47-.05,3.73-.05,1.57,0,1.46,1.88.13,1.88-8.37,0-8.83,1.14-1.4-8.22Z"/>
      <path class="cls-3" d="m442.54,329.86c4.64-1.3,7.94.33,7.99,3.72.1,6.19-7.54,6.06-7.86,5.69-.19-.72-.85-5.47-.13-9.41Zm1.61,7.69c3.94-.46,5.1-2.07,4.74-4.52-.36-2.45-4.31-2.07-4.85-1.81-.26,3.6-.2,4.36.11,6.32Z"/>
    </g>
    <g>
      <path class="cls-3" d="m79.95,330.66l-4.37,8.3c-.15.29-.45.46-.75.46-.13,0-.26-.04-.39-.1-.2-.11-.35-.28-.42-.5-.07-.21-.05-.45.06-.65l1.88-3.58-2.53-3.62c-.12-.11-.2-.27-.24-.47-.05-.25.03-.53.2-.71.15-.17.35-.27.58-.28.22,0,.45.07.61.21l2.2,3.29,1.65-3.14c.12-.2.29-.35.51-.42.22-.07.45-.04.65.07.22.12.38.33.43.59.03.19,0,.38-.08.55Z"/>
      <path class="cls-3" d="m83.79,332.4c0,.36.02,1.02.02,1.02,0,0,2.18.01,3.53.07.5.02.9-.07.95.78.04.6-.32.73-.87.77-1.28.09-3.49.05-3.49.05,0,0,.03,1.16.07,1.65.03.39.1.88.1.88,0,0,3.53.01,3.93,0,.33,0,.84,0,.81.84-.03.89-.42.83-.98.87-1.49.1-4.12,0-4.84-.38-1.02-.55-.79-5.46-.37-8.84.08-.67,3.98-.71,4.96-.62.44.04.67.53.67.82,0,.31,0,.87-.59.9-1.38.08-3.86.16-3.86.16,0,0-.03.8-.02,1.03Z"/>
    </g>
    <g>
      <path class="cls-3" d="m170.67,330.66l-4.37,8.3c-.15.29-.45.46-.75.46-.13,0-.26-.04-.39-.1-.2-.11-.35-.28-.42-.5-.07-.21-.05-.45.06-.65l1.88-3.58-2.53-3.62c-.12-.11-.2-.27-.24-.47-.05-.25.03-.53.2-.71.15-.17.35-.27.58-.28.22,0,.45.07.61.21l2.2,3.29,1.65-3.14c.12-.2.29-.35.51-.42.22-.07.45-.04.65.07.22.12.38.33.43.59.03.19,0,.38-.08.55Z"/>
      <path class="cls-3" d="m172.3,338.76c-.21-2.13-.27-7.16-.03-8.83,0,0,1.78-.75,5.18-.44.42.04.62.25.63.53.03.54,0,1.08-.55,1.11-1.32.07-3.68.15-3.68.15,0,0-.03.76-.02.98,0,.34.02.97.02.97,0,0,2.08.01,3.36.07.47.02.88-.05.91.74.02.57-.38.7-.91.74-1.22.09-3.25.04-3.25.04.07,1.57.19,3.19.19,3.78,0,.69-.57.8-.97.8-.59,0-.85-.44-.87-.65Z"/>
    </g>
    <g>
      <path class="cls-3" d="m528.46,331.15c-1.86,0-2.27,0-3.51,0-.46,0-1.11-.2-1.11-.85,0-.57.42-.88,1.07-.88,4.93,0,5.05-.05,5.58.38.28.22.43.73.15,1.14-1.71,2.48-4.64,6.6-4.64,6.6,0,0,2.47-.05,3.73-.05,1.57,0,1.46,1.88.13,1.88-8.37,0-8.83,1.14-1.4-8.22Z"/>
      <path class="cls-3" d="m532.98,338.76c-.21-2.13-.27-7.16-.03-8.83,0,0,1.78-.75,5.18-.44.42.04.62.25.63.53.03.54,0,1.08-.55,1.11-1.32.07-3.68.15-3.68.15,0,0-.03.76-.02.98,0,.34.02.97.02.97,0,0,2.08.01,3.36.07.47.02.88-.05.91.74.02.57-.38.7-.91.74-1.22.09-3.25.04-3.25.04.07,1.57.19,3.19.19,3.78,0,.69-.57.8-.97.8-.59,0-.85-.44-.87-.65Z"/>
    </g>
    <g>
      <path class="cls-3" d="m351.33,219.18c-.46-.06-.96.28-1.19,1.14-.42,1.54-.92,3.7-1.44,5.63-1.11-2.72-1.86-4.39-2.5-4.38-.01,0-.02,0-.03.01-.01-.01-.02-.01-.03-.01-.64-.01-1.39,1.65-2.5,4.38-.51-1.93-1.02-4.09-1.44-5.63-.24-.86-.73-1.2-1.19-1.14-.59.07-.98.49-.74,1.25.25.81,1.84,6.07,2.3,7.72.47,1.65,1.59.9,1.8.49.21-.41,1.36-3.67,1.8-4.59.44.92,1.59,4.18,1.8,4.59.21.41,1.33,1.16,1.8-.49.46-1.64,2.05-6.9,2.3-7.72.24-.76-.15-1.18-.74-1.25Z"/>
      <path class="cls-3" d="m355.82,219.8c-.19,8.85-.94,7.8,4.1,7.75.71,0,1.24.12,1.24.84,0,.33-.44.77-1.2.77-4.71,0-4.71.13-5.33-.4-.49-.41-.42-1.9-.42-2.78,0-1.17.02-5.56.1-6.18.08-.62.33-.62.75-.62.38,0,.77.09.76.62Z"/>
    </g>
    <g>
      <path class="cls-3" d="m710.23,227.68c.16.19.21.44.19.68-.03.24-.16.46-.34.61-.4.3-.98.23-1.3-.17l-2.45-3.14-2.45,3.14c-.18.23-.45.36-.72.36-.19,0-.4-.07-.57-.19-.19-.15-.32-.37-.35-.61-.03-.24.03-.49.19-.68l2.73-3.51-2.73-3.51c-.13-.17-.19-.36-.19-.57,0-.28.14-.56.36-.73.19-.15.42-.21.67-.19.24.03.47.16.61.35l2.45,3.14,2.44-3.14c.33-.41.91-.48,1.31-.16.22.17.35.43.35.72,0,.2-.07.4-.19.57l-2.73,3.51,2.73,3.51Z"/>
      <path class="cls-3" d="m714.43,219.8c-.19,8.85-.94,7.8,4.1,7.75.71,0,1.24.12,1.24.84,0,.33-.44.77-1.2.77-4.71,0-4.71.13-5.33-.4-.49-.41-.42-1.9-.42-2.78,0-1.17.02-5.56.1-6.18.08-.62.33-.62.75-.62.38,0,.77.09.76.62Z"/>
    </g>
    <g>
      <path class="cls-3" d="m619.95,227.68c.16.19.21.44.19.68-.03.24-.16.46-.34.61-.4.3-.98.23-1.3-.17l-2.45-3.14-2.45,3.14c-.18.23-.45.36-.72.36-.19,0-.4-.07-.57-.19-.19-.15-.32-.37-.35-.61-.03-.24.03-.49.19-.68l2.73-3.51-2.73-3.51c-.13-.17-.19-.36-.19-.57,0-.28.14-.56.36-.73.19-.15.42-.21.67-.19.24.03.47.16.61.35l2.45,3.14,2.44-3.14c.33-.41.91-.48,1.31-.16.22.17.35.43.35.72,0,.2-.07.4-.19.57l-2.73,3.51,2.73,3.51Z"/>
      <path class="cls-3" d="m625.57,222.75c-.23-1.81.31-1.52-1.96-1.52-.48,0-1.1-.23-1.08-.83.02-.68.18-1,1.11-1,.29,0,2.96-.14,5.13-.13.75,0,1.29.31,1.29,1,0,.56-.42.9-1.31.9-1.86,0-1.61-.26-1.61,1.62,0,2.18.1,3.12-.28,3.9-2.04,4.14-6.19,2.28-6.19-.8,0-.58.16-.88.74-.92.52-.04.65.48.76.88.75,2.71,4.08,2.04,3.42-3.1Z"/>
    </g>
    <g>
      <path class="cls-3" d="m261.72,219.18c-.46-.06-.96.28-1.19,1.14-.42,1.54-.92,3.7-1.44,5.63-1.11-2.72-1.86-4.39-2.5-4.38-.01,0-.02,0-.03.01-.01-.01-.02-.01-.03-.01-.64-.01-1.39,1.65-2.5,4.38-.51-1.93-1.02-4.09-1.44-5.63-.24-.86-.73-1.2-1.19-1.14-.59.07-.98.49-.74,1.25.25.81,1.84,6.07,2.3,7.72.47,1.65,1.59.9,1.8.49.21-.41,1.36-3.67,1.8-4.59.44.92,1.59,4.18,1.8,4.59.21.41,1.33,1.16,1.8-.49.46-1.64,2.05-6.9,2.3-7.72.24-.76-.15-1.18-.74-1.25Z"/>
      <path class="cls-3" d="m266.42,225.29c0,1.63,0,2.16,0,3.1,0,.66-.29.79-.8.79-.52,0-.93-.29-.93-.87,0-1.15-.04-6.16-.04-8.56,0-.52.34-.57.65-.57.41,0,.86.14.86.57,0,1.02.08,3.16.08,3.16,0,0,1.87-1.75,2.5-2.42.41-.44,1-.5,1.3-.14s.47.6-.1,1.15c-.85.84-1.04,1.21-2.46,2.53.83.86,2.18,1.99,3.61,3.62.45.51.34,1.14.17,1.3s-.8.24-1.19-.17-1.92-2.09-3.65-3.5Z"/>
    </g>
    <g>
      <path class="cls-3" d="m712.12,559.41h-3.54c-.32,0-.53-.32-.41-.62,2.67-6.29.99-7.71-1.08-7.85-.04,0-.08,0-.12,0h-.02s-.09,0-.13,0c-.04,0-.08,0-.12,0-2.07.14-3.75,1.56-1.08,7.85.12.29-.09.62-.41.62h-3.54c-.14,0-.66-1.27.12-1.73.69-.41.99.09,1.81.11-2.24-4.96.04-7.96,2.78-8.36.08-.02.94-.02,1.02,0,2.74.41,5.02,3.4,2.78,8.36.82-.02,1.12-.51,1.81-.11.78.46.26,1.73.12,1.73Z"/>
      <path class="cls-3" d="m714.47,549.88c2.1-.68,4.35-.62,5.15.12,1.3,1.2,1.17,2.8.53,3.78-.96,1.47-3.93,1.42-3.93,1.42,0,0,.29,3.22.2,3.68-.02.1-.5.53-.74.53-.26,0-.84-.18-.88-.48-.61-5.29-.67-8.32-.33-9.04Zm1.64,3.84c2.37.24,3.12-.65,2.92-2-.2-1.35-2.71-1-3.01-.85-.11,1.56-.08,1.77.09,2.85Z"/>
    </g>
    <g>
      <path class="cls-3" d="m438.12,447.31c-.93-2.27-1.86-4.39-2.21-5.2-.38-.84-.67-1.52-.74-1.72-.32-.87-.6-1.18-1.12-1.22-.5.04-.79.34-1.11,1.22-.07.2-.36.87-.73,1.72-.73,1.66-1.56,3.6-2.22,5.2-.28.71-.29,1.21-.03,1.52.19.23.49.34.9.34h6.43c.41,0,.71-.12.9-.34.12-.15.18-.34.18-.58,0-.26-.07-.57-.22-.94Zm-1.67.34h-4.8c.17-.42.49-1.25.87-2.18.56-1.41,1.21-3.07,1.53-3.9.39.98,1.22,3.11,1.83,4.63l.57,1.44Z"/>
      <path class="cls-3" d="m451.44,449.17c-.46.06-.96-.28-1.19-1.14-.42-1.54-.92-3.7-1.44-5.63-1.11,2.72-1.86,4.39-2.5,4.38-.01,0-.02,0-.03-.01-.01.01-.02.01-.03.01-.64.01-1.39-1.65-2.5-4.38-.51,1.93-1.02,4.09-1.44,5.63-.24.86-.73,1.2-1.19,1.14-.59-.07-.98-.49-.74-1.25.25-.81,1.84-6.07,2.3-7.72.47-1.65,1.59-.9,1.8-.49.21.41,1.36,3.67,1.8,4.59.44-.92,1.59-4.18,1.8-4.59.21-.41,1.33-1.16,1.8.49.46,1.64,2.05,6.9,2.3,7.72.24.76-.15,1.18-.74,1.25Z"/>
    </g>
    <g>
      <path class="cls-3" d="m77.63,443.36c.48.44.43.65.44.96s-.23.47-.53.71c-1.75,1.43-2.78,2.44-2.78,2.44,0,0,.42.05,4.42.05.4,0,.79.33.79.78,0,.48-.22.88-.64.88-2.35,0-4.02-.05-5.97-.05-.79,0-1.34-.19-1.52-.57-.17-.36-.12-.9.55-1.52,1.91-1.72,3.47-2.88,3.47-2.88,0,0-2.17-1.97-3.75-3.56-.33-.33-.43-.62-.31-.85.11-.2.55-.57.92-.57h6.71c.74,0,.77,1.31,0,1.31-3.37,0-5.2.02-5.2.02"/>
      <path class="cls-3" d="m90.19,440.5c-.2.78-1.37,6.55-1.58,7.33-.21.78-.44,1.33-.9,1.35s-.64-.27-1.17-1.25-1.66-3.47-2.44-5.56c-.53,1.89-.73,3.97-1.16,5.48-.25.85-.58,1.36-1.02,1.29-.1-.02-1.05-.26-.75-1.36.22-.81,1.48-6,1.96-7.62.48-1.62,1.54-.85,1.73-.44.19.41,2.31,5.6,2.67,6.53.19-.85.69-4.5,1.08-6.27.13-.6.81-.88,1.1-.76s.68.5.48,1.29Z"/>
    </g>
    <g>
      <path class="cls-3" d="m168.14,443.36c.48.44.43.65.44.96s-.23.47-.53.71c-1.75,1.43-2.78,2.44-2.78,2.44,0,0,.42.05,4.42.05.4,0,.79.33.79.78,0,.48-.22.88-.64.88-2.35,0-4.02-.05-5.97-.05-.79,0-1.34-.19-1.52-.57-.17-.36-.12-.9.55-1.52,1.91-1.72,3.47-2.88,3.47-2.88,0,0-2.17-1.97-3.75-3.56-.33-.33-.43-.62-.31-.85.11-.2.55-.57.92-.57h6.71c.74,0,.77,1.31,0,1.31-3.37,0-5.2.02-5.2.02"/>
      <path class="cls-3" d="m171.07,446.05c-.55-2.97.03-4.69,2.09-6.23,1.86-1.39,4.92-.33,5.78,1.24.73,1.31,1.54,4.09-.47,6.49-.67.8-1.59,1.4-2.62,1.57-2.46.41-4.48-1.4-4.79-3.06Zm2.23.5c1.14,1.13,3.41,1.11,4.45-.7,1.02-1.77.06-3.66-.63-4.27-.55-.49-2.53-1.19-3.76.41-1.11,1.45-.84,3.8-.07,4.56Z"/>
    </g>
    <g>
      <path class="cls-3" d="m530.04,447.31c-.93-2.27-1.86-4.39-2.21-5.2-.38-.84-.67-1.52-.74-1.72-.32-.87-.6-1.18-1.12-1.22-.5.04-.79.34-1.11,1.22-.07.2-.36.87-.73,1.72-.73,1.66-1.56,3.6-2.22,5.2-.28.71-.29,1.21-.03,1.52.19.23.49.34.9.34h6.43c.41,0,.71-.12.9-.34.12-.15.18-.34.18-.58,0-.26-.07-.57-.22-.94Zm-1.67.34h-4.8c.17-.42.49-1.25.87-2.18.56-1.41,1.21-3.07,1.53-3.9.39.98,1.22,3.11,1.83,4.63l.57,1.44Z"/>
      <path class="cls-3" d="m531.66,446.05c-.55-2.97.03-4.69,2.09-6.23,1.86-1.39,4.92-.33,5.78,1.24.73,1.31,1.54,4.09-.47,6.49-.67.8-1.59,1.4-2.62,1.57-2.46.41-4.48-1.4-4.79-3.06Zm2.23.5c1.14,1.13,3.41,1.11,4.45-.7,1.02-1.77.06-3.66-.63-4.27-.55-.49-2.53-1.19-3.76.41-1.11,1.45-.84,3.8-.07,4.56Z"/>
    </g>
    <g>
      <path class="cls-3" d="m345.1,549.41c-1.33,0-3.23,1.68-3.23,5,0,2.56,1.22,5,3.23,5s3.27-2.44,3.27-5c0-3.48-1.94-5-3.27-5Zm.01,1.37c.96,0,1.64,1.13,1.7,1.93.02.3,0,.81-.55.81h-2.33c-.46,0-.51-.5-.5-.76.07-.8.81-1.98,1.69-1.98Zm0,7.26c-1.08,0-1.72-1.28-1.79-2.08-.01-.25,0-.76.5-.76h2.53c.56,0,.58.5.55.81-.06.8-.72,2.03-1.8,2.03Z"/>
      <path class="cls-3" d="m359.25,557.92l-.97-.99-.02-.02c1.23-2.17.51-4.46-.12-5.62-.87-1.56-3.93-2.62-5.78-1.24-2.07,1.53-2.64,3.26-2.09,6.23.3,1.66,2.32,3.48,4.78,3.07.79-.14,1.51-.53,2.11-1.07l.84.86c.34.34.89.35,1.24,0,.35-.34.35-.9,0-1.24Zm-6.76-1.14c-.78-.77-1.05-3.12.06-4.56,1.24-1.59,3.21-.9,3.76-.41.64.58,1.52,2.26.81,3.93l-.1-.1h0s-1.02-1.04-1.02-1.04c-.34-.35-.9-.35-1.24,0-.18.16-.26.39-.26.62s.08.45.25.62l1.1,1.12.15.15c-1.14.75-2.65.55-3.51-.31Z"/>
    </g>
    <g>
      <path class="cls-3" d="m531.61,559.41h-3.54c-.32,0-.53-.32-.41-.62,2.67-6.29.99-7.71-1.08-7.85-.04,0-.08,0-.12,0h-.02s-.09,0-.13,0c-.04,0-.08,0-.12,0-2.07.14-3.75,1.56-1.08,7.85.12.29-.09.62-.41.62h-3.54c-.14,0-.66-1.27.12-1.73.69-.41.99.09,1.81.11-2.24-4.96.04-7.96,2.78-8.36.08-.02.94-.02,1.02,0,2.74.41,5.02,3.4,2.78,8.36.82-.02,1.12-.51,1.81-.11.78.46.26,1.73.12,1.73Z"/>
      <path class="cls-3" d="m541.07,557.04c-.25,1.19-1.45,2.37-3.24,2.37h-.11c-1-.04-2.78-.26-3.51-1.25-.39-.52-.47-1.13-.19-1.44.24-.27.68-.24,1.23.08,1.08,1.06,2.52,1.08,3.42.64.52-.26.82-.65.77-1.03-.03-.33-.36-.94-2.12-1.35-2.5-.56-3.55-1.98-3.49-3.14.06-1.03,1.04-2.24,3.59-2.51.07,0,.13,0,.2,0,1.08,0,2.66.83,2.96,1.59.13.32.04.59-.26.82-.19.14-.59-.05-1.1-.3-.48-.23-1.01-.49-1.51-.55-.14-.02-.27-.03-.4-.03-.95,0-1.68.48-1.82.99-.13.47.23.9.96,1.2l2.99,1.21c1.5.62,1.82,1.8,1.62,2.7Z"/>
    </g>
    <g>
      <path class="cls-3" d="m441.52,559.41h-3.54c-.32,0-.53-.32-.41-.62,2.67-6.29.99-7.71-1.08-7.85-.04,0-.08,0-.12,0h-.02s-.09,0-.13,0c-.04,0-.08,0-.12,0-2.07.14-3.75,1.56-1.08,7.85.12.29-.09.62-.41.62h-3.54c-.14,0-.66-1.27.12-1.73.69-.41.99.09,1.81.11-2.24-4.96.04-7.96,2.78-8.36.08-.02.94-.02,1.02,0,2.74.41,5.02,3.4,2.78,8.36.82-.02,1.12-.51,1.81-.11.78.46.26,1.73.12,1.73Z"/>
      <path class="cls-3" d="m451.14,550.76c-.06.29-1.97,5.54-3.02,7.94-.32.73-.61.72-.74.72s-.42,0-.74-.72c-1.05-2.4-2.96-7.64-3.02-7.94-.23-1,.08-1.16.44-1.3.28-.13.86-.02,1.12.7.16.42,2.2,5.86,2.2,5.86,0,0,2.05-5.44,2.2-5.86.25-.72.83-.82,1.12-.7.36.15.67.3.44,1.3Z"/>
    </g>
    <g>
      <path class="cls-3" d="m76.06,549.41c-1.33,0-3.23,1.68-3.23,5,0,2.56,1.22,5,3.23,5s3.27-2.44,3.27-5c0-3.48-1.94-5-3.27-5Zm.01,1.37c.96,0,1.64,1.13,1.7,1.93.02.3,0,.81-.55.81h-2.33c-.46,0-.51-.5-.5-.76.07-.8.81-1.98,1.69-1.98Zm0,7.26c-1.08,0-1.72-1.28-1.79-2.08-.01-.25,0-.76.5-.76h2.53c.56,0,.58.5.55.81-.06.8-.72,2.03-1.8,2.03Z"/>
      <path class="cls-3" d="m88.98,554.93c-.11.73-.3,1.42-.58,2.11-.6,1.42-1.8,2.3-3.21,2.37h-.26c-1.41-.07-2.6-.95-3.21-2.37-.28-.67-.47-1.36-.57-2.11-.19-1.31-.24-2.6-.18-4.35.02-.47.13-.8.34-.99.14-.13.32-.19.52-.19.64.04.78.66.82,1.21,0,.18,0,.48,0,.86-.05,1.51-.14,4.35.93,5.36.21.2.58.43.94.56.35.14.73.14,1.08,0,.36-.14.74-.37.95-.56,1.06-1.01.98-3.81.93-5.33,0-.4-.02-.71,0-.89.03-.5.15-1.17.8-1.21.21,0,.39.06.52.19.22.19.33.52.34.99.08,1.8.03,3.06-.16,4.35Z"/>
    </g>
    <g>
      <path class="cls-3" d="m617.46,331.15c-1.86,0-2.27,0-3.51,0-.46,0-1.11-.2-1.11-.85,0-.57.42-.88,1.07-.88,4.93,0,5.05-.05,5.58.38.28.22.43.73.15,1.14-1.71,2.48-4.64,6.6-4.64,6.6,0,0,2.47-.05,3.73-.05,1.57,0,1.46,1.88.13,1.88-8.37,0-8.83,1.14-1.4-8.22Z"/>
      <path class="cls-3" d="m628.85,331.07c-.42-.02-1.11-.04-1.33-.05-2.5-.16-3.99,1.77-4.23,4.08-.08.74.07,1.24.63,1.77.96.88,2.65,1.08,3.68.33.29-.21.56-.57.67-.92.23-.7-.06-1.13-.73-1.15-.55-.02-1.11.07-1.67.1-.47.02-.98.05-1.11-.62-.11-.57.35-1.04,1.07-1.13.6-.07,1.2-.08,1.8-.13.41-.04.92,0,1.41-.03.86,1.57.93,2.45.34,3.91-.66,1.62-1.9,2.23-3.38,2.2-.76-.02-1.61-.21-2.26-.62-2.32-1.47-2.63-3.71-1.3-6.4,1.3-3.01,4.25-2.97,5.53-2.98.84,0,1.06.15.85,1.66Z"/>
    </g>
    <g>
      <path class="cls-3" d="m166.03,549.41c-1.33,0-3.23,1.68-3.23,5,0,2.56,1.22,5,3.23,5s3.27-2.44,3.27-5c0-3.48-1.94-5-3.27-5Zm.01,1.37c.96,0,1.64,1.13,1.7,1.93.02.3,0,.81-.55.81h-2.33c-.46,0-.51-.5-.5-.76.07-.8.81-1.98,1.69-1.98Zm0,7.26c-1.08,0-1.72-1.28-1.79-2.08-.01-.25,0-.76.5-.76h2.53c.56,0,.58.5.55.81-.06.8-.72,2.03-1.8,2.03Z"/>
      <path class="cls-3" d="m179.2,550.34c-.01.49-.38.78-1.17.77h-2.09v7.47c0,.45-.37.83-.83.83s-.83-.38-.83-.83v-7.47h-2.09c-.79,0-1.16-.28-1.17-.77-.02-.62.45-.89,1.12-.91.82-.02,5.12-.02,5.94,0,.67.02,1.14.29,1.12.91Z"/>
    </g>
    <g>
      <path class="cls-3" d="m708.12,331.15c-1.86,0-2.27,0-3.51,0-.46,0-1.11-.2-1.11-.85,0-.57.42-.88,1.07-.88,4.93,0,5.05-.05,5.58.38.28.22.43.73.15,1.14-1.71,2.48-4.64,6.6-4.64,6.6,0,0,2.47-.05,3.73-.05,1.57,0,1.46,1.88.13,1.88-8.37,0-8.83,1.14-1.4-8.22Z"/>
      <path class="cls-3" d="m719.13,338.67c0,.65-.36.74-1.5.74h-4.33c-1.13,0-1.5-.09-1.5-.74s.49-.73,1.75-.73,1.17.32,1.17-3.55.1-3.5-2-3.5c-.49,0-.92-.16-.92-.72s.2-.75.99-.75h5.35c.79,0,.99.2.99.75s-.43.72-.92.72c-2.1,0-2-.37-2,3.5s-.14,3.55,1.17,3.55,1.75.08,1.75.73Z"/>
    </g>
    <g>
      <path class="cls-3" d="m349.71,330.66l-4.37,8.3c-.15.29-.45.46-.75.46-.13,0-.26-.04-.39-.1-.2-.11-.35-.28-.42-.5-.07-.21-.05-.45.06-.65l1.88-3.58-2.53-3.62c-.12-.11-.2-.27-.24-.47-.05-.25.03-.53.2-.71.15-.17.35-.27.58-.28.22,0,.45.07.61.21l2.2,3.29,1.65-3.14c.12-.2.29-.35.51-.42.22-.07.45-.04.65.07.22.12.38.33.43.59.03.19,0,.38-.08.55Z"/>
      <path class="cls-3" d="m358.44,338.67c0,.65-.36.74-1.5.74h-4.33c-1.13,0-1.5-.09-1.5-.74s.49-.73,1.75-.73,1.17.32,1.17-3.55.1-3.5-2-3.5c-.49,0-.92-.16-.92-.72s.2-.75.99-.75h5.35c.79,0,.99.2.99.75s-.43.72-.92.72c-2.1,0-2-.37-2,3.5s-.14,3.55,1.17,3.55,1.75.08,1.75.73Z"/>
    </g>
    <g>
      <path class="cls-3" d="m260.41,330.66l-4.37,8.3c-.15.29-.45.46-.75.46-.13,0-.26-.04-.39-.1-.2-.11-.35-.28-.42-.5-.07-.21-.05-.45.06-.65l1.88-3.58-2.53-3.62c-.12-.11-.2-.27-.24-.47-.05-.25.03-.53.2-.71.15-.17.35-.27.58-.28.22,0,.45.07.61.21l2.2,3.29,1.65-3.14c.12-.2.29-.35.51-.42.22-.07.45-.04.65.07.22.12.38.33.43.59.03.19,0,.38-.08.55Z"/>
      <path class="cls-3" d="m268.37,330.49v7.97c0,.82-.23.95-.84.95-.67,0-.75-.2-.75-.9,0-2.75.12-3.14-.89-3.17-.34-.02-1.3-.02-1.68,0-1.01.03-.89.42-.89,3.17,0,.7-.08.9-.75.9-.61,0-.84-.13-.84-.95v-7.97c0-.96.39-1.07.88-1.07s.71.2.71,1.04c0,2.76.11,3.25.76,3.25h1.94c.65,0,.76-.49.76-3.25,0-.84.22-1.04.71-1.04s.88.11.88,1.07Z"/>
    </g>
    <g>
      <path class="cls-3" d="m171.81,219.37c-.46-.06-.96.28-1.19,1.14-.42,1.54-.92,3.7-1.44,5.63-1.11-2.72-1.86-4.39-2.5-4.38-.01,0-.02,0-.03.01-.01-.01-.02-.01-.03-.01-.64-.01-1.39,1.65-2.5,4.38-.51-1.93-1.02-4.09-1.44-5.63-.24-.86-.73-1.2-1.19-1.14-.59.07-.98.49-.74,1.25.25.81,1.84,6.07,2.3,7.72.47,1.65,1.59.9,1.8.49.21-.41,1.36-3.67,1.8-4.59.44.92,1.59,4.18,1.8,4.59.21.41,1.33,1.16,1.8-.49.46-1.64,2.05-6.9,2.3-7.72.24-.76-.15-1.18-.74-1.25Z"/>
      <path class="cls-3" d="m181.15,227.12c.42.55-.07,1.12-.5,1.33-9.15,4.54-8.83-9.42-3.27-9.09,1.07.06,2.05.85,2.39,1.26.25.29.44.81.12,1.16-.34.36-.8.24-1.02,0-4.33-4.56-6.65,9.06,1.11,5.25.45-.22.79-.4,1.16.09Z"/>
    </g>
    <g>
      <path class="cls-3" d="m530.14,227.27c.16.19.21.44.19.68-.03.24-.16.46-.34.61-.4.3-.98.23-1.3-.17l-2.45-3.14-2.45,3.14c-.18.23-.45.36-.72.36-.19,0-.4-.07-.57-.19-.19-.15-.32-.37-.35-.61-.03-.24.03-.49.19-.68l2.73-3.51-2.73-3.51c-.13-.17-.19-.36-.19-.57,0-.28.14-.56.36-.73.19-.15.42-.21.67-.19.24.03.47.16.61.35l2.45,3.14,2.44-3.14c.33-.41.91-.48,1.31-.16.22.17.35.43.35.72,0,.2-.07.4-.19.57l-2.73,3.51,2.73,3.51Z"/>
      <path class="cls-3" d="m539.69,227.12c.42.55-.07,1.12-.5,1.33-9.15,4.54-8.83-9.42-3.27-9.09,1.07.06,2.05.85,2.39,1.26.25.29.44.81.12,1.16-.34.36-.8.24-1.02,0-4.33-4.56-6.65,9.06,1.11,5.25.45-.22.79-.4,1.16.09Z"/>
    </g>
    <g>
      <path class="cls-3" d="m82.2,219.37c-.46-.06-.96.28-1.19,1.14-.42,1.54-.92,3.7-1.44,5.63-1.11-2.72-1.86-4.39-2.5-4.38-.01,0-.02,0-.03.01-.01-.01-.02-.01-.03-.01-.64-.01-1.39,1.65-2.5,4.38-.51-1.93-1.02-4.09-1.44-5.63-.24-.86-.73-1.2-1.19-1.14-.59.07-.98.49-.74,1.25.25.81,1.84,6.07,2.3,7.72.47,1.65,1.59.9,1.8.49.21-.41,1.36-3.67,1.8-4.59.44.92,1.59,4.18,1.8,4.59.21.41,1.33,1.16,1.8-.49.46-1.64,2.05-6.9,2.3-7.72.24-.76-.15-1.18-.74-1.25Z"/>
      <path class="cls-3" d="m88.09,224.22c4.39-1.93.8-6.48-3.28-4.27-.04.02-.07.06-.07.1-.38,2.63-.16,6.19.2,8.71.02.13.12.23.24.27,6.22,1.71,7.68-3.78,2.91-4.81Zm.65-2.47c0,1.13-1.98,1.51-2.74,1.51-.13-.26-.02-2.43.07-2.53.9-.25,2.67.04,2.67,1.02Zm-2.38,6.17c-.17-1.1-.2-1.41-.14-2.54.47-.06,3.32-.1,3.29,1.38-.03,1.15-2.44,1.38-3.15,1.16Z"/>
    </g>
    <g>
      <path class="cls-3" d="m620.6,447.5c-.93-2.27-1.86-4.39-2.21-5.2-.38-.84-.67-1.52-.74-1.72-.32-.87-.6-1.18-1.12-1.22-.5.04-.79.34-1.11,1.22-.07.2-.36.87-.73,1.72-.73,1.66-1.56,3.6-2.22,5.2-.28.71-.29,1.21-.03,1.52.19.23.49.34.9.34h6.43c.41,0,.71-.12.9-.34.12-.15.18-.34.18-.58,0-.26-.07-.57-.22-.94Zm-1.67.34h-4.8c.17-.42.49-1.25.87-2.18.56-1.41,1.21-3.07,1.53-3.9.39.98,1.22,3.11,1.83,4.63l.57,1.44Z"/>
      <path class="cls-3" d="m629.71,447.01c-.25,1.19-1.45,2.37-3.24,2.37h-.11c-1-.04-2.78-.26-3.51-1.25-.39-.52-.47-1.13-.19-1.44.24-.27.68-.24,1.23.08,1.08,1.06,2.52,1.08,3.42.64.52-.26.82-.65.77-1.03-.03-.33-.36-.94-2.12-1.35-2.5-.56-3.55-1.98-3.49-3.14.06-1.03,1.04-2.24,3.59-2.51.07,0,.13,0,.2,0,1.08,0,2.66.83,2.96,1.59.13.32.04.59-.26.82-.19.14-.59-.05-1.1-.3-.48-.23-1.01-.49-1.51-.55-.14-.02-.27-.03-.4-.03-.95,0-1.68.48-1.82.99-.13.47.23.9.96,1.2l2.99,1.21c1.5.62,1.82,1.8,1.62,2.7Z"/>
    </g>
    <g>
      <path class="cls-3" d="m710.82,447.5c-.93-2.27-1.86-4.39-2.21-5.2-.38-.84-.67-1.52-.74-1.72-.32-.87-.6-1.18-1.12-1.22-.5.04-.79.34-1.11,1.22-.07.2-.36.87-.73,1.72-.73,1.66-1.56,3.6-2.22,5.2-.28.71-.29,1.21-.03,1.52.19.23.49.34.9.34h6.43c.41,0,.71-.12.9-.34.12-.15.18-.34.18-.58,0-.26-.07-.57-.22-.94Zm-1.67.34h-4.8c.17-.42.49-1.25.87-2.18.56-1.41,1.21-3.07,1.53-3.9.39.98,1.22,3.11,1.83,4.63l.57,1.44Z"/>
      <path class="cls-3" d="m719.35,444.9c-.11.73-.3,1.42-.58,2.11-.6,1.42-1.8,2.3-3.21,2.37h-.26c-1.41-.07-2.6-.95-3.21-2.37-.28-.67-.47-1.36-.57-2.11-.19-1.31-.24-2.6-.18-4.35.02-.47.13-.8.34-.99.14-.13.32-.19.52-.19.64.04.78.66.82,1.21,0,.18,0,.48,0,.86-.05,1.51-.14,4.35.93,5.36.21.2.58.43.94.56.35.14.73.14,1.08,0,.36-.14.74-.37.95-.56,1.06-1.01.98-3.81.93-5.33,0-.4-.02-.71,0-.89.03-.5.15-1.17.8-1.21.21,0,.39.06.52.19.22.19.33.52.34.99.08,1.8.03,3.06-.16,4.35Z"/>
    </g>
    <g>
      <path class="cls-3" d="m440.5,227.87c.16.19.21.44.19.68-.03.24-.16.46-.34.61-.4.3-.98.23-1.3-.17l-2.45-3.14-2.45,3.14c-.18.23-.45.36-.72.36-.19,0-.4-.07-.57-.19-.19-.15-.32-.37-.35-.61-.03-.24.03-.49.19-.68l2.73-3.51-2.73-3.51c-.13-.17-.19-.36-.19-.57,0-.28.14-.56.36-.73.19-.15.42-.21.67-.19.24.03.47.16.61.35l2.45,3.14,2.44-3.14c.33-.41.91-.48,1.31-.16.22.17.35.43.35.72,0,.2-.07.4-.19.57l-2.73,3.51,2.73,3.51Z"/>
      <path class="cls-3" d="m449.4,228.37c-.87-2.99-2.3-6.84-2.48-7.31-.18-.46-.77-1.7-1.18-1.7s-1,1.24-1.18,1.7c-.18.47-1.61,4.32-2.48,7.31-.24.84.06.91.18.94,1.61.21,1.32-.3,1.57-1.4.23-1,.22-1.46,1-1.46.38,0,.56.01.91.01s.54-.01.91-.01c.78,0,.77.46,1,1.46.25,1.1-.04,1.61,1.57,1.4.12-.03.42-.1.18-.94Zm-2.91-3.37h-1.51c-.14,0-.23-.07-.19-.23l.94-3.44.94,3.44c.04.16-.05.23-.19.23Z"/>
    </g>
  </g>
  <g>
    <g>
      <g>
        <circle class="cls-3" cx="81" cy="209.86" r="2.5"/>
        <circle class="cls-3" cx="51" cy="179.86" r="2.5"/>
        <circle class="cls-3" cx="81" cy="149.86" r="2.5"/>
        <circle class="cls-3" cx="111" cy="179.86" r="2.5"/>
        <circle class="cls-3" cx="81" cy="179.86" r="1.12"/>
      </g>
      <g>
        <circle class="cls-3" cx="171" cy="209.86" r="2.5"/>
        <circle class="cls-3" cx="141" cy="179.86" r="2.5"/>
        <circle class="cls-3" cx="171" cy="149.86" r="2.5"/>
        <circle class="cls-3" cx="201" cy="179.86" r="2.5"/>
        <circle class="cls-3" cx="171" cy="179.86" r="1.12"/>
      </g>
      <g>
        <circle class="cls-3" cx="231" cy="179.86" r="2.5"/>
        <circle class="cls-3" cx="261" cy="209.86" r="2.5"/>
        <circle class="cls-3" cx="291" cy="179.86" r="2.5"/>
        <circle class="cls-3" cx="261" cy="149.86" r="2.5"/>
        <circle class="cls-3" cx="261" cy="179.86" r="1.12"/>
      </g>
      <g>
        <circle class="cls-3" cx="321" cy="179.86" r="2.5"/>
        <circle class="cls-3" cx="351" cy="209.86" r="2.5"/>
        <circle class="cls-3" cx="381" cy="179.86" r="2.5"/>
        <circle class="cls-3" cx="351" cy="149.86" r="2.5"/>
        <circle class="cls-3" cx="351" cy="179.86" r="1.12"/>
      </g>
      <g>
        <circle class="cls-3" cx="441" cy="209.86" r="2.5"/>
        <circle class="cls-3" cx="411" cy="179.86" r="2.5"/>
        <circle class="cls-3" cx="441" cy="149.86" r="2.5"/>
        <circle class="cls-3" cx="471" cy="179.86" r="2.5"/>
        <circle class="cls-3" cx="441" cy="179.86" r="1.12"/>
      </g>
      <g>
        <circle class="cls-3" cx="531" cy="209.86" r="2.5"/>
        <circle class="cls-3" cx="501" cy="179.86" r="2.5"/>
        <circle class="cls-3" cx="531" cy="149.86" r="2.5"/>
        <circle class="cls-3" cx="561" cy="179.86" r="2.5"/>
        <circle class="cls-3" cx="531" cy="179.86" r="1.12"/>
      </g>
      <g>
        <circle class="cls-3" cx="591" cy="179.86" r="2.5"/>
        <circle class="cls-3" cx="621" cy="209.86" r="2.5"/>
        <circle class="cls-3" cx="651" cy="179.86" r="2.5"/>
        <circle class="cls-3" cx="621" cy="149.86" r="2.5"/>
        <circle class="cls-3" cx="621" cy="179.86" r="1.12"/>
      </g>
      <g>
        <circle class="cls-3" cx="681" cy="179.86" r="2.5"/>
        <circle class="cls-3" cx="711" cy="209.86" r="2.5"/>
        <circle class="cls-3" cx="741" cy="179.86" r="2.5"/>
        <circle class="cls-3" cx="711" cy="149.86" r="2.5"/>
        <circle class="cls-3" cx="711" cy="179.86" r="1.12"/>
      </g>
    </g>
    <g>
      <g>
        <circle class="cls-3" cx="81" cy="259.86" r="2.5"/>
        <circle class="cls-3" cx="51" cy="289.86" r="2.5"/>
        <circle class="cls-3" cx="81" cy="319.86" r="2.5"/>
        <circle class="cls-3" cx="111" cy="289.86" r="2.5"/>
        <circle class="cls-3" cx="81" cy="289.86" r="1.13"/>
      </g>
      <g>
        <circle class="cls-3" cx="171" cy="259.86" r="2.5"/>
        <circle class="cls-3" cx="141" cy="289.86" r="2.5"/>
        <circle class="cls-3" cx="171" cy="319.86" r="2.5"/>
        <circle class="cls-3" cx="201" cy="289.86" r="2.5"/>
        <circle class="cls-3" cx="171" cy="289.86" r="1.13"/>
      </g>
      <g>
        <circle class="cls-3" cx="291" cy="289.86" r="2.5"/>
        <circle class="cls-3" cx="261" cy="319.86" r="2.5"/>
        <circle class="cls-3" cx="231" cy="289.86" r="2.5"/>
        <circle class="cls-3" cx="261" cy="259.86" r="2.5"/>
        <circle class="cls-3" cx="261" cy="289.86" r="1.12"/>
      </g>
      <g>
        <circle class="cls-3" cx="381" cy="289.86" r="2.5"/>
        <circle class="cls-3" cx="351" cy="319.86" r="2.5"/>
        <circle class="cls-3" cx="321" cy="289.86" r="2.5"/>
        <circle class="cls-3" cx="351" cy="259.86" r="2.5"/>
        <circle class="cls-3" cx="351" cy="289.86" r="1.12"/>
      </g>
      <g>
        <circle class="cls-3" cx="441" cy="259.86" r="2.5"/>
        <circle class="cls-3" cx="411" cy="289.86" r="2.5"/>
        <circle class="cls-3" cx="441" cy="319.86" r="2.5"/>
        <circle class="cls-3" cx="471" cy="289.86" r="2.5"/>
        <circle class="cls-3" cx="441" cy="289.86" r="1.13"/>
      </g>
      <g>
        <circle class="cls-3" cx="531" cy="259.86" r="2.5"/>
        <circle class="cls-3" cx="501" cy="289.86" r="2.5"/>
        <circle class="cls-3" cx="531" cy="319.86" r="2.5"/>
        <circle class="cls-3" cx="561" cy="289.86" r="2.5"/>
        <circle class="cls-3" cx="531" cy="289.86" r="1.13"/>
      </g>
      <g>
        <circle class="cls-3" cx="651" cy="289.86" r="2.5"/>
        <circle class="cls-3" cx="621" cy="319.86" r="2.5"/>
        <circle class="cls-3" cx="591" cy="289.86" r="2.5"/>
        <circle class="cls-3" cx="621" cy="259.86" r="2.5"/>
        <circle class="cls-3" cx="621" cy="289.86" r="1.12"/>
      </g>
      <g>
        <circle class="cls-3" cx="741" cy="289.86" r="2.5"/>
        <circle class="cls-3" cx="711" cy="319.86" r="2.5"/>
        <circle class="cls-3" cx="681" cy="289.86" r="2.5"/>
        <circle class="cls-3" cx="711" cy="259.86" r="2.5"/>
        <circle class="cls-3" cx="711" cy="289.86" r="1.12"/>
      </g>
    </g>
    <g>
      <g>
        <circle class="cls-3" cx="111" cy="399.86" r="2.5"/>
        <circle class="cls-3" cx="81" cy="429.86" r="2.5"/>
        <circle class="cls-3" cx="51" cy="399.86" r="2.5"/>
        <circle class="cls-3" cx="81" cy="369.86" r="2.5"/>
        <circle class="cls-3" cx="81" cy="399.86" r="1.12"/>
      </g>
      <g>
        <circle class="cls-3" cx="201" cy="399.86" r="2.5"/>
        <circle class="cls-3" cx="171" cy="429.86" r="2.5"/>
        <circle class="cls-3" cx="141" cy="399.86" r="2.5"/>
        <circle class="cls-3" cx="171" cy="369.86" r="2.5"/>
        <circle class="cls-3" cx="171" cy="399.86" r="1.13"/>
      </g>
      <g>
        <circle class="cls-3" cx="261" cy="369.86" r="2.5"/>
        <circle class="cls-3" cx="291" cy="399.86" r="2.5"/>
        <circle class="cls-3" cx="261" cy="429.86" r="2.5"/>
        <circle class="cls-3" cx="231" cy="399.86" r="2.5"/>
        <circle class="cls-3" cx="261" cy="399.86" r="1.12"/>
      </g>
      <g>
        <circle class="cls-3" cx="351" cy="369.86" r="2.5"/>
        <circle class="cls-3" cx="381" cy="399.86" r="2.5"/>
        <circle class="cls-3" cx="351" cy="429.86" r="2.5"/>
        <circle class="cls-3" cx="321" cy="399.86" r="2.5"/>
        <circle class="cls-3" cx="351" cy="399.86" r="1.12"/>
      </g>
      <g>
        <circle class="cls-3" cx="471" cy="399.86" r="2.5"/>
        <circle class="cls-3" cx="441" cy="429.86" r="2.5"/>
        <circle class="cls-3" cx="411" cy="399.86" r="2.5"/>
        <circle class="cls-3" cx="441" cy="369.86" r="2.5"/>
        <circle class="cls-3" cx="441" cy="399.86" r="1.12"/>
      </g>
      <g>
        <circle class="cls-3" cx="561" cy="399.86" r="2.5"/>
        <circle class="cls-3" cx="531" cy="429.86" r="2.5"/>
        <circle class="cls-3" cx="501" cy="399.86" r="2.5"/>
        <circle class="cls-3" cx="531" cy="369.86" r="2.5"/>
        <circle class="cls-3" cx="531" cy="399.86" r="1.12"/>
      </g>
      <g>
        <circle class="cls-3" cx="621" cy="369.86" r="2.5"/>
        <circle class="cls-3" cx="651" cy="399.86" r="2.5"/>
        <circle class="cls-3" cx="621" cy="429.86" r="2.5"/>
        <circle class="cls-3" cx="591" cy="399.86" r="2.5"/>
        <circle class="cls-3" cx="621" cy="399.86" r="1.12"/>
      </g>
      <g>
        <circle class="cls-3" cx="711" cy="369.86" r="2.5"/>
        <circle class="cls-3" cx="741" cy="399.86" r="2.5"/>
        <circle class="cls-3" cx="711" cy="429.86" r="2.5"/>
        <circle class="cls-3" cx="681" cy="399.86" r="2.5"/>
        <circle class="cls-3" cx="711" cy="399.86" r="1.12"/>
      </g>
    </g>
    <g>
      <g>
        <circle class="cls-3" cx="81" cy="539.86" r="2.5"/>
        <circle class="cls-3" cx="111" cy="509.86" r="2.5"/>
        <circle class="cls-3" cx="81" cy="479.86" r="2.5"/>
        <circle class="cls-3" cx="51" cy="509.86" r="2.5"/>
        <circle class="cls-3" cx="81" cy="509.86" r="1.12"/>
      </g>
      <g>
        <circle class="cls-3" cx="171" cy="539.86" r="2.5"/>
        <circle class="cls-3" cx="201" cy="509.86" r="2.5"/>
        <circle class="cls-3" cx="171" cy="479.86" r="2.5"/>
        <circle class="cls-3" cx="141" cy="509.86" r="2.5"/>
        <circle class="cls-3" cx="171" cy="509.86" r="1.12"/>
      </g>
      <g>
        <circle class="cls-3" cx="291" cy="509.86" r="2.5"/>
        <circle class="cls-3" cx="261" cy="539.86" r="2.5"/>
        <circle class="cls-3" cx="231" cy="509.86" r="2.5"/>
        <circle class="cls-3" cx="261" cy="479.86" r="2.5"/>
        <circle class="cls-3" cx="261" cy="509.86" r="1.12"/>
      </g>
      <g>
        <circle class="cls-3" cx="381" cy="509.86" r="2.5"/>
        <circle class="cls-3" cx="351" cy="539.86" r="2.5"/>
        <circle class="cls-3" cx="321" cy="509.86" r="2.5"/>
        <circle class="cls-3" cx="351" cy="479.86" r="2.5"/>
        <circle class="cls-3" cx="351" cy="509.86" r="1.12"/>
      </g>
      <g>
        <circle class="cls-3" cx="441" cy="539.86" r="2.5"/>
        <circle class="cls-3" cx="471" cy="509.86" r="2.5"/>
        <circle class="cls-3" cx="441" cy="479.86" r="2.5"/>
        <circle class="cls-3" cx="411" cy="509.86" r="2.5"/>
        <circle class="cls-3" cx="441" cy="509.86" r="1.12"/>
      </g>
      <g>
        <circle class="cls-3" cx="531" cy="539.86" r="2.5"/>
        <circle class="cls-3" cx="561" cy="509.86" r="2.5"/>
        <circle class="cls-3" cx="531" cy="479.86" r="2.5"/>
        <circle class="cls-3" cx="501" cy="509.86" r="2.5"/>
        <circle class="cls-3" cx="531" cy="509.86" r="1.12"/>
      </g>
      <g>
        <circle class="cls-3" cx="651" cy="509.86" r="2.5"/>
        <circle class="cls-3" cx="621" cy="539.86" r="2.5"/>
        <circle class="cls-3" cx="591" cy="509.86" r="2.5"/>
        <circle class="cls-3" cx="621" cy="479.86" r="2.5"/>
        <circle class="cls-3" cx="621" cy="509.86" r="1.12"/>
      </g>
      <g>
        <circle class="cls-3" cx="741" cy="509.86" r="2.5"/>
        <circle class="cls-3" cx="711" cy="539.86" r="2.5"/>
        <circle class="cls-3" cx="681" cy="509.86" r="2.5"/>
        <circle class="cls-3" cx="711" cy="479.86" r="2.5"/>
        <circle class="cls-3" cx="711" cy="509.86" r="1.12"/>
      </g>
    </g>
  </g>
  <g>
    <line class="cls-10" x1="48.5" y1="242.83" x2="743.5" y2="242.83"/>
    <line class="cls-10" x1="48.5" y1="352.83" x2="743.5" y2="352.83"/>
    <line class="cls-10" x1="396" y1="147.36" x2="396" y2="560.61"/>
    <line class="cls-10" x1="48.5" y1="462.83" x2="743.5" y2="462.83"/>
  </g>
  <g>
    <rect class="cls-9" x="82.75" y="178.61" width="25" height="2.5" rx=".99" ry=".99" transform="translate(190.5 359.72) rotate(180)"/>
    <rect class="cls-6" x="54.25" y="178.61" width="25" height="2.5" rx=".99" ry=".99"/>
    <rect class="cls-9" x="82.75" y="288.61" width="25" height="2.5" rx=".99" ry=".99" transform="translate(190.5 579.72) rotate(180)"/>
    <rect class="cls-6" x="54.25" y="288.61" width="25" height="2.5" rx=".99" ry=".99"/>
    <rect class="cls-9" x="82.75" y="398.61" width="25" height="2.5" rx=".99" ry=".99" transform="translate(190.5 799.72) rotate(180)"/>
    <rect class="cls-6" x="68.5" y="384.36" width="25" height="2.5" rx=".99" ry=".99" transform="translate(466.61 304.61) rotate(90)"/>
    <rect class="cls-9" x="82.75" y="508.61" width="25" height="2.5" rx=".99" ry=".99" transform="translate(190.5 1019.72) rotate(-180)"/>
    <rect class="cls-6" x="68.5" y="522.86" width="25" height="2.5" rx=".99" ry=".99" transform="translate(-443.11 605.11) rotate(-90)"/>
    <rect class="cls-9" x="172.75" y="508.61" width="25" height="2.5" rx=".99" ry=".99" transform="translate(370.5 1019.72) rotate(-180)"/>
    <rect class="cls-6" x="158.5" y="522.86" width="25" height="2.5" rx=".99" ry=".99" transform="translate(-353.11 695.11) rotate(-90)"/>
    <rect class="cls-9" x="248.5" y="494.36" width="25" height="2.5" rx=".99" ry=".99" transform="translate(756.61 234.61) rotate(90)"/>
    <rect class="cls-6" x="262.75" y="508.61" width="25" height="2.5" rx=".99" ry=".99" transform="translate(550.5 1019.72) rotate(-180)"/>
    <rect class="cls-9" x="338.5" y="494.36" width="25" height="2.5" rx=".99" ry=".99" transform="translate(846.61 144.61) rotate(90)"/>
    <rect class="cls-6" x="352.75" y="508.61" width="25" height="2.5" rx=".99" ry=".99" transform="translate(730.5 1019.72) rotate(-180)"/>
    <rect class="cls-9" x="442.75" y="508.61" width="25" height="2.5" rx=".99" ry=".99" transform="translate(910.5 1019.72) rotate(-180)"/>
    <rect class="cls-6" x="428.5" y="522.86" width="25" height="2.5" rx=".99" ry=".99" transform="translate(-83.11 965.11) rotate(-90)"/>
    <rect class="cls-9" x="532.75" y="508.61" width="25" height="2.5" rx=".99" ry=".99" transform="translate(1090.5 1019.72) rotate(-180)"/>
    <rect class="cls-6" x="518.5" y="522.86" width="25" height="2.5" rx=".99" ry=".99" transform="translate(6.89 1055.11) rotate(-90)"/>
    <rect class="cls-9" x="608.5" y="494.36" width="25" height="2.5" rx=".99" ry=".99" transform="translate(1116.61 -125.39) rotate(90)"/>
    <rect class="cls-6" x="622.75" y="508.61" width="25" height="2.5" rx=".99" ry=".99" transform="translate(1270.5 1019.72) rotate(-180)"/>
    <rect class="cls-9" x="698.5" y="494.36" width="25" height="2.5" rx=".99" ry=".99" transform="translate(1206.61 -215.39) rotate(90)"/>
    <rect class="cls-6" x="712.75" y="508.61" width="25" height="2.5" rx=".99" ry=".99" transform="translate(1450.5 1019.72) rotate(-180)"/>
    <rect class="cls-9" x="248.5" y="412.86" width="25" height="2.5" rx=".99" ry=".99" transform="translate(-153.11 675.11) rotate(-90)"/>
    <rect class="cls-6" x="234.25" y="398.61" width="25" height="2.5" rx=".99" ry=".99"/>
    <rect class="cls-9" x="172.75" y="398.61" width="25" height="2.5" rx=".99" ry=".99" transform="translate(370.5 799.72) rotate(180)"/>
    <rect class="cls-6" x="158.5" y="384.36" width="25" height="2.5" rx=".99" ry=".99" transform="translate(556.61 214.61) rotate(90)"/>
    <rect class="cls-9" x="338.5" y="412.86" width="25" height="2.5" rx=".99" ry=".99" transform="translate(-63.11 765.11) rotate(-90)"/>
    <rect class="cls-6" x="324.25" y="398.61" width="25" height="2.5" rx=".99" ry=".99"/>
    <rect class="cls-9" x="442.75" y="398.61" width="25" height="2.5" rx=".99" ry=".99" transform="translate(910.5 799.72) rotate(180)"/>
    <rect class="cls-6" x="428.5" y="384.36" width="25" height="2.5" rx=".99" ry=".99" transform="translate(826.61 -55.39) rotate(90)"/>
    <rect class="cls-9" x="608.5" y="412.86" width="25" height="2.5" rx=".99" ry=".99" transform="translate(206.89 1035.11) rotate(-90)"/>
    <rect class="cls-6" x="594.25" y="398.61" width="25" height="2.5" rx=".99" ry=".99"/>
    <rect class="cls-9" x="532.75" y="398.61" width="25" height="2.5" rx=".99" ry=".99" transform="translate(1090.5 799.72) rotate(180)"/>
    <rect class="cls-6" x="518.5" y="384.36" width="25" height="2.5" rx=".99" ry=".99" transform="translate(916.61 -145.39) rotate(90)"/>
    <rect class="cls-9" x="698.5" y="412.86" width="25" height="2.5" rx=".99" ry=".99" transform="translate(296.89 1125.11) rotate(-90)"/>
    <rect class="cls-6" x="684.25" y="398.61" width="25" height="2.5" rx=".99" ry=".99"/>
    <rect class="cls-9" x="250.52" y="192.84" width="25" height="2.5" rx=".99" ry=".99" transform="translate(68.94 457.11) rotate(-90)"/>
    <rect class="cls-6" x="246.52" y="192.84" width="25" height="2.5" rx=".99" ry=".99" transform="translate(64.94 453.11) rotate(-90)"/>
    <rect class="cls-9" x="172.75" y="178.61" width="25" height="2.5" rx=".99" ry=".99" transform="translate(370.5 359.72) rotate(180)"/>
    <rect class="cls-6" x="144.25" y="178.61" width="25" height="2.5" rx=".99" ry=".99"/>
    <rect class="cls-9" x="340.52" y="192.84" width="25" height="2.5" rx=".99" ry=".99" transform="translate(158.94 547.11) rotate(-90)"/>
    <rect class="cls-6" x="336.52" y="192.84" width="25" height="2.5" rx=".99" ry=".99" transform="translate(154.94 543.11) rotate(-90)"/>
    <rect class="cls-9" x="442.75" y="178.61" width="25" height="2.5" rx=".99" ry=".99" transform="translate(910.5 359.72) rotate(180)"/>
    <rect class="cls-6" x="414.25" y="178.61" width="25" height="2.5" rx=".99" ry=".99"/>
    <rect class="cls-9" x="610.52" y="192.84" width="25" height="2.5" rx=".99" ry=".99" transform="translate(428.94 817.11) rotate(-90)"/>
    <rect class="cls-6" x="606.52" y="192.84" width="25" height="2.5" rx=".99" ry=".99" transform="translate(424.94 813.11) rotate(-90)"/>
    <rect class="cls-9" x="532.75" y="178.61" width="25" height="2.5" rx=".99" ry=".99" transform="translate(1090.5 359.72) rotate(180)"/>
    <rect class="cls-6" x="504.25" y="178.61" width="25" height="2.5" rx=".99" ry=".99"/>
    <rect class="cls-9" x="700.52" y="192.84" width="25" height="2.5" rx=".99" ry=".99" transform="translate(518.94 907.11) rotate(-90)"/>
    <rect class="cls-6" x="696.52" y="192.84" width="25" height="2.5" rx=".99" ry=".99" transform="translate(514.94 903.11) rotate(-90)"/>
    <rect class="cls-9" x="246.48" y="302.84" width="25" height="2.5" rx=".99" ry=".99" transform="translate(-45.11 563.06) rotate(-90)"/>
    <rect class="cls-6" x="250.48" y="302.84" width="25" height="2.5" rx=".99" ry=".99" transform="translate(-41.11 567.06) rotate(-90)"/>
    <rect class="cls-9" x="172.75" y="288.61" width="25" height="2.5" rx=".99" ry=".99" transform="translate(370.5 579.72) rotate(-180)"/>
    <rect class="cls-6" x="144.25" y="288.61" width="25" height="2.5" rx=".99" ry=".99"/>
    <rect class="cls-9" x="336.48" y="302.84" width="25" height="2.5" rx=".99" ry=".99" transform="translate(44.89 653.06) rotate(-90)"/>
    <rect class="cls-6" x="340.48" y="302.84" width="25" height="2.5" rx=".99" ry=".99" transform="translate(48.89 657.06) rotate(-90)"/>
    <rect class="cls-9" x="442.75" y="288.61" width="25" height="2.5" rx=".99" ry=".99" transform="translate(910.5 579.72) rotate(-180)"/>
    <rect class="cls-6" x="414.25" y="288.61" width="25" height="2.5" rx=".99" ry=".99"/>
    <rect class="cls-9" x="606.48" y="302.84" width="25" height="2.5" rx=".99" ry=".99" transform="translate(314.89 923.06) rotate(-90)"/>
    <rect class="cls-6" x="610.48" y="302.84" width="25" height="2.5" rx=".99" ry=".99" transform="translate(318.89 927.06) rotate(-90)"/>
    <rect class="cls-9" x="532.75" y="288.61" width="25" height="2.5" rx=".99" ry=".99" transform="translate(1090.5 579.72) rotate(-180)"/>
    <rect class="cls-6" x="504.25" y="288.61" width="25" height="2.5" rx=".99" ry=".99"/>
    <rect class="cls-9" x="696.48" y="302.84" width="25" height="2.5" rx=".99" ry=".99" transform="translate(404.89 1013.06) rotate(-90)"/>
    <rect class="cls-6" x="700.48" y="302.84" width="25" height="2.5" rx=".99" ry=".99" transform="translate(408.89 1017.06) rotate(-90)"/>
  </g>
  <g>
    <path class="cls-9" d="m111.1,282.59s-2.77,3.23-3.95,4.08c-.82.6-1.87-.5-1.87-.5l2.73-2.66c-18.49,0-20.09-1.8-20.15-20.18h-2.74c-.6,0-1.09-.49-1.09-1.08,0-.6.49-1.08,1.09-1.08h7.56c.6,0,1.09.48,1.09,1.08,0,.59-.49,1.08-1.09,1.08h-2.75c.04,17.27,1.15,18.23,18.08,18.23l-2.73-2.56s1.05-1.08,1.87-.48c.94.69,3.95,4.07,3.95,4.07Z"/>
    <path class="cls-9" d="m560.4,282.56s-2.77,3.23-3.95,4.08c-.82.6-1.87-.5-1.87-.5l2.73-2.66c-18.49,0-20.09-1.8-20.15-20.18h-2.74c-.6,0-1.09-.49-1.09-1.08,0-.6.49-1.08,1.09-1.08h7.56c.6,0,1.09.48,1.09,1.08,0,.59-.49,1.08-1.09,1.08h-2.75c.04,17.27,1.15,18.23,18.08,18.23l-2.73-2.56s1.05-1.08,1.87-.48c.94.69,3.95,4.07,3.95,4.07Z"/>
    <path class="cls-9" d="m201.23,407.72c-.64-.95-3.93-4.08-3.93-4.08,0,0-3.31,2.66-4.21,3.8-.63.8.44,1.89.44,1.89l2.78-2.61c-.03,8.61-6.85,18.1-19.4,19.39v-2.79c0-.6-.49-1.09-1.08-1.09s-1.08.49-1.08,1.09v7.56c0,.6.48,1.09,1.08,1.09s1.08-.49,1.08-1.09v-2.63c11.36-.66,21.34-9.96,21.37-21.33l2.42,2.65s1.11-1.01.53-1.85Z"/>
    <path class="cls-9" d="m471.24,407.42c-.64-.95-3.93-4.08-3.93-4.08,0,0-3.31,2.66-4.21,3.8-.63.8.44,1.89.44,1.89l2.78-2.61c-.03,8.61-6.85,18.1-19.4,19.39v-2.79c0-.6-.49-1.09-1.08-1.09s-1.08.49-1.08,1.09v7.56c0,.6.48,1.09,1.08,1.09s1.08-.49,1.08-1.09v-2.63c11.36-.66,21.34-9.96,21.37-21.33l2.42,2.65s1.11-1.01.53-1.85Z"/>
    <path class="cls-9" d="m560.33,406.53s-2.77-3.23-3.95-4.08c-.82-.6-1.87.5-1.87.5l2.73,2.66c-18.49,0-20.09,1.8-20.15,20.18h-2.74c-.6,0-1.09.49-1.09,1.08s.49,1.08,1.09,1.08h7.56c.6,0,1.09-.48,1.09-1.08,0-.59-.49-1.08-1.09-1.08h-2.75c.04-17.27,1.15-18.23,18.08-18.23l-2.73,2.56s1.05,1.08,1.87.48c.94-.69,3.95-4.07,3.95-4.07Z"/>
    <path class="cls-9" d="m110.11,406.53s-2.77-3.23-3.95-4.08c-.82-.6-1.87.5-1.87.5l2.73,2.66c-18.49,0-20.09,1.8-20.15,20.18h-2.74c-.6,0-1.09.49-1.09,1.08,0,.6.49,1.08,1.09,1.08h7.56c.6,0,1.09-.48,1.09-1.08,0-.59-.49-1.08-1.09-1.08h-2.75c.04-17.27,1.15-18.23,18.08-18.23l-2.73,2.56s1.05,1.08,1.87.48c.94-.69,3.95-4.07,3.95-4.07Z"/>
    <path class="cls-9" d="m359.16,210.09c-.95-.64-4.08-3.93-4.08-3.93,0,0,2.66-3.31,3.8-4.21.8-.63,1.89.44,1.89.44l-2.61,2.78c8.61-.03,18.1-6.85,19.39-19.4h-2.79c-.6,0-1.09-.49-1.09-1.08,0-.6.49-1.08,1.09-1.08h7.56c.6,0,1.09.48,1.09,1.08,0,.59-.49,1.08-1.09,1.08h-2.63c-.66,11.36-9.96,21.34-21.33,21.37l2.65,2.42s-1.01,1.11-1.85.53Z"/>
    <path class="cls-9" d="m629.16,211.55c-.95-.64-4.08-3.93-4.08-3.93,0,0,2.66-3.31,3.8-4.21.8-.63,1.89.44,1.89.44l-2.61,2.78c8.61-.03,18.1-6.85,19.39-19.4h-2.79c-.6,0-1.09-.49-1.09-1.08,0-.6.49-1.08,1.09-1.08h7.56c.6,0,1.09.48,1.09,1.08,0,.59-.49,1.08-1.09,1.08h-2.63c-.66,11.36-9.96,21.34-21.33,21.37l2.65,2.42s-1.01,1.11-1.85.53Z"/>
    <path class="cls-9" d="m269.2,210.25s-3.23-2.77-4.08-3.95c-.6-.82.5-1.87.5-1.87l2.66,2.73c0-18.49,1.8-20.09,20.18-20.15v-2.74c0-.6.49-1.09,1.08-1.09.6,0,1.08.49,1.08,1.09v7.56c0,.6-.48,1.09-1.08,1.09s-1.08-.49-1.08-1.09v-2.75c-17.27.04-18.23,1.15-18.23,18.08l2.56-2.73s1.08,1.05.48,1.87c-.69.94-4.07,3.95-4.07,3.95Z"/>
    <path class="cls-9" d="m719.22,210.23s-3.23-2.77-4.08-3.95c-.6-.82.5-1.87.5-1.87l2.66,2.73c0-18.49,1.8-20.09,20.18-20.15v-2.74c0-.6.49-1.09,1.08-1.09s1.08.49,1.08,1.09v7.56c0,.6-.48,1.09-1.08,1.09s-1.08-.49-1.08-1.09v-2.75c-17.27.04-18.23,1.15-18.23,18.08l2.56-2.73s1.08,1.05.48,1.87c-.69.94-4.07,3.95-4.07,3.95Z"/>
    <path class="cls-9" d="m111.23,517.72c-.64-.95-3.93-4.08-3.93-4.08,0,0-3.31,2.66-4.21,3.8-.63.8.44,1.89.44,1.89l2.78-2.61c-.03,8.61-6.85,18.1-19.4,19.39v-2.79c0-.6-.49-1.09-1.08-1.09s-1.08.49-1.08,1.09v7.56c0,.6.48,1.09,1.08,1.09.59,0,1.08-.49,1.08-1.09v-2.63c11.36-.66,21.34-9.96,21.37-21.33l2.42,2.65s1.11-1.01.53-1.85Z"/>
    <path class="cls-9" d="m561.56,516.53c-.64-.95-3.93-4.08-3.93-4.08,0,0-3.31,2.66-4.21,3.8-.63.8.44,1.89.44,1.89l2.78-2.61c-.03,8.61-6.85,18.1-19.4,19.39v-2.79c0-.6-.49-1.09-1.08-1.09s-1.08.49-1.08,1.09v7.56c0,.6.48,1.09,1.08,1.09s1.08-.49,1.08-1.09v-2.63c11.36-.66,21.34-9.96,21.37-21.33l2.42,2.65s1.11-1.01.53-1.85Z"/>
    <path class="cls-9" d="m470.33,516.53s-2.77-3.23-3.95-4.08c-.82-.6-1.87.5-1.87.5l2.73,2.66c-18.49,0-20.09,1.8-20.15,20.18h-2.74c-.6,0-1.09.49-1.09,1.08,0,.6.49,1.08,1.09,1.08h7.56c.6,0,1.09-.48,1.09-1.08s-.49-1.08-1.09-1.08h-2.75c.04-17.27,1.15-18.23,18.08-18.23l-2.73,2.56s1.05,1.08,1.87.48c.94-.69,3.95-4.07,3.95-4.07Z"/>
    <path class="cls-9" d="m202.02,516.53s-2.77-3.23-3.95-4.08c-.82-.6-1.87.5-1.87.5l2.73,2.66c-18.49,0-20.09,1.8-20.15,20.18h-2.74c-.6,0-1.09.49-1.09,1.08,0,.6.49,1.08,1.09,1.08h7.56c.6,0,1.09-.48,1.09-1.08,0-.59-.49-1.08-1.09-1.08h-2.75c.04-17.27,1.15-18.23,18.08-18.23l-2.73,2.56s1.05,1.08,1.87.48c.94-.69,3.95-4.07,3.95-4.07Z"/>
    <path class="cls-9" d="m367.92,330.52c-.95-.64-4.08-3.93-4.08-3.93,0,0,2.66-3.31,3.8-4.21.8-.63,1.89.44,1.89.44l-2.61,2.78c8.61-.03,18.1-6.85,19.39-19.4h-2.79c-.6,0-1.09-.49-1.09-1.08,0-.6.49-1.08,1.09-1.08h7.56c.6,0,1.09.48,1.09,1.08,0,.59-.49,1.08-1.09,1.08h-2.63c-.66,11.36-9.96,21.34-21.33,21.37l2.65,2.42s-1.01,1.11-1.85.53Z"/>
    <path class="cls-9" d="m636.3,328.65c-.95-.64-4.08-3.93-4.08-3.93,0,0,2.66-3.31,3.8-4.21.8-.63,1.89.44,1.89.44l-2.61,2.78c8.61-.03,18.1-6.85,19.39-19.4h-2.79c-.6,0-1.09-.49-1.09-1.08s.49-1.08,1.09-1.08h7.56c.6,0,1.09.48,1.09,1.08s-.49,1.08-1.09,1.08h-2.63c-.66,11.36-9.96,21.34-21.33,21.37l2.65,2.42s-1.01,1.11-1.85.53Z"/>
    <path class="cls-9" d="m726.87,327.54s-3.23-2.77-4.08-3.95c-.6-.82.5-1.87.5-1.87l2.66,2.73c0-18.49,1.8-20.09,20.18-20.15v-2.74c0-.6.49-1.09,1.08-1.09.6,0,1.08.49,1.08,1.09v7.56c0,.6-.48,1.09-1.08,1.09-.59,0-1.08-.49-1.08-1.09v-2.75c-17.27.04-18.23,1.15-18.23,18.08l2.56-2.73s1.08,1.05.48,1.87c-.69.94-4.07,3.95-4.07,3.95Z"/>
    <path class="cls-9" d="m277.79,329.95s-3.23-2.77-4.08-3.95c-.6-.82.5-1.87.5-1.87l2.66,2.73c0-18.49,1.8-20.09,20.18-20.15v-2.74c0-.6.49-1.09,1.08-1.09s1.08.49,1.08,1.09v7.56c0,.6-.48,1.09-1.08,1.09-.59,0-1.08-.49-1.08-1.09v-2.75c-17.27.04-18.23,1.15-18.23,18.08l2.56-2.73s1.08,1.05.48,1.87c-.69.94-4.07,3.95-4.07,3.95Z"/>
    <path class="cls-9" d="m201.6,281.13c-.64.95-3.93,4.08-3.93,4.08,0,0-3.31-2.66-4.21-3.8-.63-.8.44-1.89.44-1.89l2.78,2.61c-.03-8.61-6.85-18.1-19.4-19.39v2.79c0,.6-.49,1.09-1.08,1.09s-1.08-.49-1.08-1.09v-7.56c0-.6.48-1.09,1.08-1.09s1.08.49,1.08,1.09v2.63c11.36.66,21.34,9.96,21.37,21.33l2.42-2.65s1.11,1.01.53,1.85Z"/>
    <path class="cls-9" d="m471.54,282.41c-.64.95-3.93,4.08-3.93,4.08,0,0-3.31-2.66-4.21-3.8-.63-.8.44-1.89.44-1.89l2.78,2.61c-.03-8.61-6.85-18.1-19.4-19.39v2.79c0,.6-.49,1.09-1.08,1.09s-1.08-.49-1.08-1.09v-7.56c0-.6.48-1.09,1.08-1.09.59,0,1.08.49,1.08,1.09v2.63c11.36.66,21.34,9.96,21.37,21.33l2.42-2.65s1.11,1.01.53,1.85Z"/>
    <path class="cls-9" d="m726.46,471.82c-.95.64-4.08,3.93-4.08,3.93,0,0,2.66,3.31,3.8,4.21.8.63,1.89-.44,1.89-.44l-2.61-2.78c8.61.03,18.1,6.85,19.39,19.4h-2.79c-.6,0-1.09.49-1.09,1.08,0,.6.49,1.08,1.09,1.08h7.56c.6,0,1.09-.48,1.09-1.08,0-.59-.49-1.08-1.09-1.08h-2.63c-.66-11.36-9.96-21.34-21.33-21.37l2.65-2.42s-1.01-1.11-1.85-.53Z"/>
    <path class="cls-9" d="m631.78,472.25s-3.23,2.77-4.08,3.95c-.6.82.5,1.87.5,1.87l2.66-2.73c0,18.49,1.8,20.09,20.18,20.15v2.74c0,.6.49,1.09,1.08,1.09s1.08-.49,1.08-1.09v-7.56c0-.6-.48-1.09-1.08-1.09s-1.08.49-1.08,1.09v2.75c-17.27-.04-18.23-1.15-18.23-18.08l2.56,2.73s1.08-1.05.48-1.87c-.69-.94-4.07-3.95-4.07-3.95Z"/>
    <path class="cls-9" d="m358.01,430.1c-.95-.64-4.08-3.93-4.08-3.93,0,0,2.66-3.31,3.8-4.21.8-.63,1.89.44,1.89.44l-2.61,2.78c8.61-.03,18.1-6.85,19.39-19.4h-2.79c-.6,0-1.09-.49-1.09-1.08,0-.6.49-1.08,1.09-1.08h7.56c.6,0,1.09.48,1.09,1.08s-.49,1.08-1.09,1.08h-2.63c-.66,11.36-9.96,21.34-21.33,21.37l2.65,2.42s-1.01,1.11-1.85.53Z"/>
    <path class="cls-9" d="m628.76,430.85c-.95-.64-4.08-3.93-4.08-3.93,0,0,2.66-3.31,3.8-4.21.8-.63,1.89.44,1.89.44l-2.61,2.78c8.61-.03,18.1-6.85,19.39-19.4h-2.79c-.6,0-1.09-.49-1.09-1.08,0-.6.49-1.08,1.09-1.08h7.56c.6,0,1.09.48,1.09,1.08,0,.59-.49,1.08-1.09,1.08h-2.63c-.66,11.36-9.96,21.34-21.33,21.37l2.65,2.42s-1.01,1.11-1.85.53Z"/>
    <path class="cls-9" d="m718.25,429.94s-3.23-2.77-4.08-3.95c-.6-.82.5-1.87.5-1.87l2.66,2.73c0-18.49,1.8-20.09,20.18-20.15v-2.74c0-.6.49-1.09,1.08-1.09s1.08.49,1.08,1.09v7.56c0,.6-.48,1.09-1.08,1.09s-1.08-.49-1.08-1.09v-2.75c-17.27.04-18.23,1.15-18.23,18.08l2.56-2.73s1.08,1.05.48,1.87c-.69.94-4.07,3.95-4.07,3.95Z"/>
    <path class="cls-9" d="m267.67,430.55s-3.23-2.77-4.08-3.95c-.6-.82.5-1.87.5-1.87l2.66,2.73c0-18.49,1.8-20.09,20.18-20.15v-2.74c0-.6.49-1.09,1.08-1.09.6,0,1.08.49,1.08,1.09v7.56c0,.6-.48,1.09-1.08,1.09-.59,0-1.08-.49-1.08-1.09v-2.75c-17.27.04-18.23,1.15-18.23,18.08l2.56-2.73s1.08,1.05.48,1.87c-.69.94-4.07,3.95-4.07,3.95Z"/>
    <path class="cls-9" d="m201.23,171.7c-.64.95-3.93,4.08-3.93,4.08,0,0-3.31-2.66-4.21-3.8-.63-.8.44-1.89.44-1.89l2.78,2.61c-.03-8.61-6.85-18.1-19.4-19.39v2.79c0,.6-.49,1.09-1.08,1.09-.6,0-1.08-.49-1.08-1.09v-7.56c0-.6.48-1.09,1.08-1.09s1.08.49,1.08,1.09v2.63c11.36.66,21.34,9.96,21.37,21.33l2.42-2.65s1.11,1.01.53,1.85Z"/>
    <path class="cls-9" d="m472.7,171.7c-.64.95-3.93,4.08-3.93,4.08,0,0-3.31-2.66-4.21-3.8-.63-.8.44-1.89.44-1.89l2.78,2.61c-.03-8.61-6.85-18.1-19.4-19.39v2.79c0,.6-.49,1.09-1.08,1.09-.6,0-1.08-.49-1.08-1.09v-7.56c0-.6.48-1.09,1.08-1.09.59,0,1.08.49,1.08,1.09v2.63c11.36.66,21.34,9.96,21.37,21.33l2.42-2.65s1.11,1.01.53,1.85Z"/>
    <path class="cls-9" d="m111.39,171.66s-2.77,3.23-3.95,4.08c-.82.6-1.87-.5-1.87-.5l2.73-2.66c-18.49,0-20.09-1.8-20.15-20.18h-2.74c-.6,0-1.09-.49-1.09-1.08,0-.6.49-1.08,1.09-1.08h7.56c.6,0,1.09.48,1.09,1.08,0,.59-.49,1.08-1.09,1.08h-2.75c.04,17.27,1.15,18.23,18.08,18.23l-2.73-2.56s1.05-1.08,1.87-.48c.94.69,3.95,4.07,3.95,4.07Z"/>
    <path class="cls-9" d="m560.54,172.89s-2.77,3.23-3.95,4.08c-.82.6-1.87-.5-1.87-.5l2.73-2.66c-18.49,0-20.09-1.8-20.15-20.18h-2.74c-.6,0-1.09-.49-1.09-1.08,0-.6.49-1.08,1.09-1.08h7.56c.6,0,1.09.48,1.09,1.08s-.49,1.08-1.09,1.08h-2.75c.04,17.27,1.15,18.23,18.08,18.23l-2.73-2.56s1.05-1.08,1.87-.48c.94.69,3.95,4.07,3.95,4.07Z"/>
    <path class="cls-9" d="m365.23,473s-3.23,2.77-4.08,3.95c-.6.82.5,1.87.5,1.87l2.66-2.73c0,18.49,1.8,20.09,20.18,20.15v2.74c0,.6.49,1.09,1.08,1.09.6,0,1.08-.49,1.08-1.09v-7.56c0-.6-.48-1.09-1.08-1.09-.59,0-1.08.49-1.08,1.09v2.75c-17.27-.04-18.23-1.15-18.23-18.08l2.56,2.73s1.08-1.05.48-1.87c-.69-.94-4.07-3.95-4.07-3.95Z"/>
    <path class="cls-9" d="m277.03,471.33c-.95.64-4.08,3.93-4.08,3.93,0,0,2.66,3.31,3.8,4.21.8.63,1.89-.44,1.89-.44l-2.61-2.78c8.61.03,18.1,6.85,19.39,19.4h-2.79c-.6,0-1.09.49-1.09,1.08,0,.6.49,1.08,1.09,1.08h7.56c.6,0,1.09-.48,1.09-1.08,0-.59-.49-1.08-1.09-1.08h-2.63c-.66-11.36-9.96-21.34-21.33-21.37l2.65-2.42s-1.01-1.11-1.85-.53Z"/>
  </g>
</svg>