<?xml version="1.0" encoding="UTF-8"?>
<svg id="Layer_1" data-name="Layer 1" xmlns="http://www.w3.org/2000/svg" viewBox="0 0 612 792">
  <defs>
    <style>
      .cls-1 {
        letter-spacing: .08em;
      }

      .cls-1, .cls-2, .cls-3, .cls-4, .cls-5, .cls-6, .cls-7, .cls-8, .cls-9, .cls-10, .cls-11, .cls-12, .cls-13, .cls-14, .cls-15, .cls-16, .cls-17, .cls-18 {
        font-family: Cambria, Cambria;
      }

      .cls-1, .cls-2, .cls-4, .cls-19, .cls-20, .cls-5, .cls-21, .cls-22, .cls-6, .cls-7, .cls-23, .cls-10, .cls-12, .cls-13, .cls-18, .cls-24, .cls-25 {
        fill: #231f20;
      }

      .cls-2, .cls-26, .cls-11, .cls-27 {
        letter-spacing: -.01em;
      }

      .cls-28 {
        letter-spacing: -.02em;
      }

      .cls-29, .cls-19, .cls-23 {
        font-size: 16px;
      }

      .cls-3 {
        letter-spacing: -.01em;
      }

      .cls-4 {
        letter-spacing: -.01em;
      }

      .cls-30, .cls-26, .cls-31, .cls-32 {
        fill: #ed1c24;
      }

      .cls-30, .cls-26, .cls-33 {
        font-family: Cambria-Bold, Cambria;
      }

      .cls-30, .cls-26, .cls-33, .cls-25 {
        font-weight: 700;
      }

      .cls-20 {
        stroke-width: .5px;
      }

      .cls-20, .cls-31 {
        stroke: #231f20;
        stroke-miterlimit: 10;
      }

      .cls-5 {
        letter-spacing: -.03em;
      }

      .cls-21 {
        font-family: MonotypeCorsiva, 'Monotype Corsiva';
        font-size: 45px;
      }

      .cls-34, .cls-33 {
        fill: #2e3192;
      }

      .cls-22, .cls-35, .cls-23 {
        font-family: Cambria-Italic, Cambria;
      }

      .cls-22, .cls-35, .cls-23, .cls-25 {
        font-style: italic;
      }

      .cls-7, .cls-9, .cls-36 {
        letter-spacing: 0em;
      }

      .cls-8, .cls-12 {
        letter-spacing: -.02em;
      }

      .cls-31 {
        stroke-width: 2px;
      }

      .cls-10 {
        letter-spacing: -.01em;
      }

      .cls-13, .cls-15 {
        letter-spacing: 0em;
      }

      .cls-14, .cls-37 {
        letter-spacing: 0em;
      }

      .cls-16, .cls-18 {
        letter-spacing: -.01em;
      }

      .cls-25 {
        font-family: Cambria-BoldItalic, Cambria;
        font-size: 30px;
      }

      .cls-38 {
        fill: #010101;
      }
    </style>
  </defs>
  <path class="cls-32" d="m566.42,519.61s-3.23-2.77-4.09-3.95c-.59-.82.5-1.87.5-1.87l2.77,2.73c-.42-10.1.99-15.8,6.85-18.46h-35.24c-1.54-.01-1.55-1.92,0-1.92h49.5c1.33,0,1.28,2.1.03,2.1-16.52,0-19.77,2.8-19.39,18.28l2.66-2.73s1.08,1.05.47,1.87c-.68.94-4.06,3.95-4.06,3.95Z"/>
  <path class="cls-32" d="m568.77,634.9s-3.23-2.77-4.09-3.95c-.59-.82.5-1.87.5-1.87l2.77,2.73c-.42-10.1.99-15.8,6.85-18.46h-35.24c-1.54-.01-1.55-1.92,0-1.92h49.5c1.33,0,1.28,2.1.03,2.1-16.52,0-19.77,2.8-19.39,18.28l2.66-2.73s1.08,1.05.47,1.87c-.68.94-4.06,3.95-4.06,3.95Z"/>
  <path class="cls-32" d="m565.42,749.26s-3.23-2.77-4.09-3.95c-.59-.82.5-1.87.5-1.87l2.77,2.73c-.42-10.1.99-15.8,6.85-18.46h-35.24c-1.54-.01-1.55-1.92,0-1.92h49.5c1.33,0,1.28,2.1.03,2.1-16.52,0-19.77,2.8-19.39,18.28l2.66-2.73s1.08,1.05.47,1.87c-.68.94-4.06,3.95-4.06,3.95Z"/>
  <path class="cls-34" d="m251.4,747.62c-19.28-.07-26.08-17.34-25.62-28.35.05-1.18.7-2.11,1.65-2.11,22.84-.08,21.44,1.04,21.14-19.13l-2.62,2.58s-1.09-1.05-.5-1.87c.79-1.08,4.05-3.91,4.05-3.91,0,0,3.26,2.83,4.05,3.91.59.82-.5,1.87-.5,1.87l-2.62-2.58c.37,10.06.58,16.59-2.5,18.96-2.66,2.05-7.24,2.45-18.8,2.45-.6,0-1.02.31-1.06.9-.5,7.52,5.29,24.98,23.54,24.98,1.61,0,1.64,2.31-.21,2.3Z"/>
  <path class="cls-32" d="m70.67,379.73c1.08.79,3.91,4.05,3.91,4.05,0,0-2.83,3.26-3.91,4.05-.82.59-1.87-.5-1.87-.5l2.58-2.62h-30.74c-1.32,0-1.32-1.86,0-1.86h30.74s-2.58-2.62-2.58-2.62c0,0,1.05-1.09,1.87-.5Z"/>
  <path class="cls-32" d="m370.53,361.67c1.08.79,3.91,4.05,3.91,4.05,0,0-2.83,3.26-3.91,4.05-.82.59-1.87-.5-1.87-.5l2.58-2.62h-30.74c-1.32,0-1.32-1.86,0-1.86h30.74s-2.58-2.62-2.58-2.62c0,0,1.05-1.09,1.87-.5Z"/>
  <text class="cls-19" transform="translate(79.49 84.88)"><tspan class="cls-17" x="0" y="0">N</tspan><tspan class="cls-16" x="10.89" y="0">e</tspan><tspan class="cls-17" x="18.51" y="0">xt </tspan><tspan class="cls-3" x="35.18" y="0">w</tspan><tspan class="cls-17" x="47.37" y="0">e’ll look at </tspan><tspan class="cls-35" x="120.91" y="0">Shift→Dash </tspan><tspan class="cls-17" x="201.92" y="0">ar</tspan><tspan class="cls-11" x="216.35" y="0">r</tspan><tspan class="cls-9" x="222.73" y="0">o</tspan><tspan class="cls-15" x="231.15" y="0">w</tspan><tspan class="cls-17" x="243.41" y="0">s, </tspan><tspan class="cls-11" x="257.09" y="0">r</tspan><tspan class="cls-14" x="263.47" y="0">e</tspan><tspan class="cls-8" x="271.12" y="0">v</tspan><tspan class="cls-17" x="278.87" y="0">ealing equal possibilities. </tspan></text>
  <text class="cls-25" transform="translate(83.7 144.83)"><tspan x="0" y="0">Dash → P</tspan><tspan class="cls-37" x="124.35" y="0">r</tspan><tspan x="137.74" y="0">o</tspan></text>
  <g>
    <g>
      <circle class="cls-24" cx="554.61" cy="235.61" r="2.5"/>
      <circle class="cls-24" cx="584.6" cy="205.6" r="2.5"/>
      <circle class="cls-24" cx="554.59" cy="175.61" r="2.5"/>
      <circle class="cls-24" cx="524.6" cy="205.63" r="2.5"/>
      <circle class="cls-24" cx="554.6" cy="205.61" r="1.12"/>
    </g>
    <rect class="cls-24" x="495.29" y="200.48" width="18.18" height="3.19"/>
    <rect class="cls-24" x="495.29" y="207.69" width="18.18" height="3.19"/>
    <g>
      <circle class="cls-24" cx="484.6" cy="205.69" r="2.5"/>
      <circle class="cls-24" cx="454.6" cy="175.69" r="2.5"/>
      <circle class="cls-24" cx="424.6" cy="205.69" r="2.5"/>
      <circle class="cls-24" cx="454.6" cy="235.69" r="2.5"/>
      <circle class="cls-24" cx="454.6" cy="205.69" r="1.13"/>
    </g>
    <g>
      <circle class="cls-24" cx="384.6" cy="205.69" r="2.5"/>
      <circle class="cls-24" cx="354.6" cy="175.69" r="2.5"/>
      <circle class="cls-24" cx="324.6" cy="205.69" r="2.5"/>
      <circle class="cls-24" cx="354.6" cy="235.69" r="2.5"/>
      <circle class="cls-24" cx="354.6" cy="205.69" r="1.13"/>
    </g>
    <polygon class="cls-38" points="395.56 204.61 407.38 204.61 407.38 200.81 413.63 205.7 407.38 210.59 407.38 206.79 395.56 206.79 395.56 204.61"/>
    <path class="cls-34" d="m557.32,201.94c.5,0,.92.39.92.87v1.82s22.29,0,22.29,0c.49,0,.89.39.89.85v.42c0,.46-.4.85-.89.85h-22.29s0,1.82,0,1.82c0,.48-.42.87-.92.87s-.91-.39-.91-.87v-5.76c0-.48.41-.87.91-.87Z"/>
    <g>
      <rect class="cls-24" x="195.29" y="200.42" width="18.18" height="3.19"/>
      <rect class="cls-24" x="195.29" y="207.63" width="18.18" height="3.19"/>
      <g>
        <circle class="cls-24" cx="254.61" cy="235.63" r="2.5"/>
        <circle class="cls-24" cx="284.59" cy="205.61" r="2.5"/>
        <circle class="cls-24" cx="254.58" cy="175.63" r="2.5"/>
        <circle class="cls-24" cx="224.59" cy="205.64" r="2.5"/>
        <circle class="cls-24" cx="254.59" cy="205.63" r="1.13"/>
      </g>
      <g>
        <circle class="cls-24" cx="184.6" cy="205.63" r="2.5"/>
        <circle class="cls-24" cx="154.6" cy="175.63" r="2.5"/>
        <circle class="cls-24" cx="124.6" cy="205.63" r="2.5"/>
        <circle class="cls-24" cx="154.6" cy="235.63" r="2.5"/>
        <circle class="cls-24" cx="154.6" cy="205.63" r="1.13"/>
      </g>
      <g>
        <circle class="cls-24" cx="84.6" cy="205.63" r="2.5"/>
        <circle class="cls-24" cx="54.6" cy="175.63" r="2.5"/>
        <circle class="cls-24" cx="24.6" cy="205.63" r="2.5"/>
        <circle class="cls-24" cx="54.6" cy="235.63" r="2.5"/>
        <circle class="cls-24" cx="54.6" cy="205.63" r="1.13"/>
      </g>
      <polygon class="cls-38" points="95.56 204.55 107.38 204.55 107.38 200.75 113.63 205.64 107.38 210.53 107.38 206.73 95.56 206.73 95.56 204.55"/>
    </g>
    <text class="cls-21" transform="translate(191.58 43.6)"><tspan x="0" y="0">Dash → Shift</tspan></text>
  </g>
  <line class="cls-31" x1="306.3" y1="121.16" x2="306.3" y2="272.67"/>
  <text class="cls-25" transform="translate(379.78 144.83)"><tspan x="0" y="0">Dash → </tspan><tspan class="cls-37" x="106.46" y="0">A</tspan><tspan x="124.6" y="0">nti</tspan></text>
  <polygon class="cls-38" points="98.61 374.72 110.43 374.72 110.43 370.92 116.69 375.81 110.43 380.7 110.43 376.9 98.61 376.9 98.61 374.72"/>
  <g>
    <rect class="cls-24" x="202.34" y="370.61" width="13.29" height="3.19"/>
    <rect class="cls-24" x="202.34" y="377.82" width="13.29" height="3.19"/>
  </g>
  <polygon class="cls-38" points="398.66 374.72 410.49 374.72 410.49 370.92 416.74 375.81 410.49 380.7 410.49 376.9 398.66 376.9 398.66 374.72"/>
  <g>
    <rect class="cls-24" x="502.39" y="370.61" width="13.29" height="3.19"/>
    <rect class="cls-24" x="502.39" y="377.82" width="13.29" height="3.19"/>
  </g>
  <polygon class="cls-38" points="98.61 489.72 110.43 489.72 110.43 485.92 116.69 490.81 110.43 495.7 110.43 491.9 98.61 491.9 98.61 489.72"/>
  <g>
    <rect class="cls-24" x="202.34" y="485.61" width="13.29" height="3.19"/>
    <rect class="cls-24" x="202.34" y="492.82" width="13.29" height="3.19"/>
  </g>
  <polygon class="cls-38" points="398.66 489.72 410.49 489.72 410.49 485.92 416.74 490.81 410.49 495.7 410.49 491.9 398.66 491.9 398.66 489.72"/>
  <g>
    <rect class="cls-24" x="502.39" y="485.61" width="13.29" height="3.19"/>
    <rect class="cls-24" x="502.39" y="492.82" width="13.29" height="3.19"/>
  </g>
  <polygon class="cls-38" points="98.61 604.72 110.43 604.72 110.43 600.92 116.69 605.81 110.43 610.7 110.43 606.9 98.61 606.9 98.61 604.72"/>
  <g>
    <rect class="cls-24" x="202.34" y="600.61" width="13.29" height="3.19"/>
    <rect class="cls-24" x="202.34" y="607.82" width="13.29" height="3.19"/>
  </g>
  <text/>
  <g>
    <rect class="cls-24" x="502.39" y="600.61" width="13.29" height="3.19"/>
    <rect class="cls-24" x="502.39" y="607.82" width="13.29" height="3.19"/>
  </g>
  <polygon class="cls-38" points="98.61 719.72 110.43 719.72 110.43 715.92 116.69 720.81 110.43 725.7 110.43 721.9 98.61 721.9 98.61 719.72"/>
  <g>
    <rect class="cls-24" x="202.34" y="715.61" width="13.29" height="3.19"/>
    <rect class="cls-24" x="202.34" y="722.82" width="13.29" height="3.19"/>
  </g>
  <polygon class="cls-38" points="398.66 719.72 410.49 719.72 410.49 715.92 416.74 720.81 410.49 725.7 410.49 721.9 398.66 721.9 398.66 719.72"/>
  <g>
    <rect class="cls-24" x="502.39" y="715.61" width="13.29" height="3.19"/>
    <rect class="cls-24" x="502.39" y="722.82" width="13.29" height="3.19"/>
  </g>
  <line class="cls-20" x1="24.53" y1="275.17" x2="587.03" y2="275.17"/>
  <text class="cls-29" transform="translate(84.61 291.4)"><tspan class="cls-6" x="0" y="0">Once a</tspan><tspan class="cls-13" x="45.58" y="0">g</tspan><tspan class="cls-6" x="53.35" y="0">ain, these </tspan><tspan class="cls-18" x="121.59" y="0">e</tspan><tspan class="cls-10" x="129.21" y="0">x</tspan><tspan class="cls-6" x="136.73" y="0">amples combine </tspan><tspan class="cls-22" x="251.62" y="0">Dash→Shift </tspan><tspan class="cls-6" x="332.62" y="0">ar</tspan><tspan class="cls-2" x="347.05" y="0">r</tspan><tspan class="cls-7" x="353.44" y="0">o</tspan><tspan class="cls-13" x="361.85" y="0">w</tspan><tspan class="cls-6" x="374.11" y="0">s (in </tspan><tspan class="cls-26" x="407.52" y="0">r</tspan><tspan class="cls-30" x="414.66" y="0">ed</tspan><tspan class="cls-6" x="432.71" y="0">)</tspan><tspan class="cls-22" x="438.82" y="0"> </tspan><tspan class="cls-6" x="11.97" y="19.2">with the </tspan><tspan class="cls-4" x="72.14" y="19.2">f</tspan><tspan class="cls-6" x="76.79" y="19.2">our </tspan><tspan class="cls-22" x="104.26" y="19.2">Shift→Shift </tspan><tspan class="cls-6" x="182.64" y="19.2">ar</tspan><tspan class="cls-2" x="197.07" y="19.2">r</tspan><tspan class="cls-7" x="203.46" y="19.2">o</tspan><tspan class="cls-13" x="211.87" y="19.2">w</tspan><tspan class="cls-6" x="224.13" y="19.2">s (in </tspan><tspan class="cls-33" x="257.54" y="19.2">blue</tspan><tspan class="cls-6" x="289.97" y="19.2">). </tspan><tspan class="cls-5" x="302.89" y="19.2">T</tspan><tspan class="cls-6" x="311.82" y="19.2">ry them </tspan><tspan class="cls-12" x="368.91" y="19.2">y</tspan><tspan class="cls-6" x="376.66" y="19.2">oursel</tspan><tspan class="cls-1" x="419.63" y="19.2">f</tspan><tspan class="cls-6" x="425.8" y="19.2">!</tspan></text>
  <path class="cls-34" d="m148.31,177.18c-11.89,0-22.68,9.57-22.72,21.38l-2.41-2.65s-1.11,1.01-.54,1.85c.65.95,3.93,4.08,3.93,4.08,0,0,3.32-2.66,4.21-3.8.63-.81-.43-1.89-.43-1.89l-2.78,2.61c.03-8.93,7.32-18.79,20.74-19.5,1.57-.08,1.62-2.09,0-2.08Z"/>
  <path class="cls-34" d="m51,193.42c-.79-1.08-4.05-3.91-4.05-3.91,0,0-3.26,2.83-4.05,3.91-.59.82.5,1.87.5,1.87l2.62-2.58v30.74c0,1.32,1.86,1.32,1.86,0v-30.74s2.62,2.58,2.62,2.58c0,0,1.09-1.05.5-1.87Z"/>
  <path class="cls-34" d="m370.47,193.42c-.79-1.08-4.05-3.91-4.05-3.91,0,0-3.26,2.83-4.05,3.91-.59.82.5,1.87.5,1.87l2.62-2.58v30.74c0,1.32,1.86,1.32,1.86,0v-30.74s2.62,2.58,2.62,2.58c0,0,1.09-1.05.5-1.87Z"/>
  <path class="cls-32" d="m266.49,407.58c-1.15-.71-3.89-4.14-3.89-4.14,0,0,2.73-3.27,3.89-4.13.83-.6,1.91.5,1.91.5l-2.68,2.68c8.19.1,19.25-2.8,19.36-19.26,0-.18-.15-.34-.33-.34h-47.97c-1.54,0-1.55-1.91,0-1.91,0,0,48.95-.01,49.51-.01s.97.64.97,1.68c0,11.99-6.82,22.3-21.54,21.82l2.68,2.6s-1.04,1.03-1.91.49Z"/>
  <path class="cls-34" d="m222.25,196.79c.71,1.15,4.14,3.89,4.14,3.89,0,0,3.27-2.73,4.13-3.89.6-.83-.5-1.91-.5-1.91l-2.68,2.68c-.1-8.19,2.8-19.25,19.26-19.36.18,0,.34.15.34.33v47.97c0,1.54,1.91,1.55,1.91,0,0,0,.01-48.95.01-49.51,0-.56-.64-.97-1.68-.97-11.99,0-22.3,6.82-21.82,21.54l-2.6-2.68s-1.03,1.04-.49,1.91Z"/>
  <path class="cls-24" d="m457.41,417.24c4.39-1.93.8-6.48-3.28-4.27-.04.02-.07.06-.07.1-.38,2.63-.16,6.19.2,8.71.02.13.12.23.24.27,6.22,1.71,7.68-3.78,2.91-4.81Zm.65-2.47c0,1.13-1.98,1.51-2.74,1.51-.13-.26-.02-2.43.07-2.53.9-.25,2.67.04,2.67,1.02Zm-2.38,6.17c-.17-1.1-.2-1.41-.14-2.54.47-.06,3.32-.1,3.29,1.38-.03,1.15-2.44,1.38-3.15,1.16Z"/>
  <path class="cls-24" d="m160.72,765.37c.42.55-.07,1.12-.5,1.33-9.15,4.54-8.83-9.42-3.27-9.09,1.07.06,2.05.85,2.39,1.26.25.29.44.81.12,1.16-.34.36-.8.24-1.02,0-4.33-4.56-6.65,9.06,1.11,5.25.45-.22.79-.4,1.16.09Z"/>
  <path class="cls-24" d="m460.44,765.37c.42.55-.07,1.12-.5,1.33-9.15,4.54-8.83-9.42-3.27-9.09,1.07.06,2.05.85,2.39,1.26.25.29.44.81.12,1.16-.34.36-.8.24-1.02,0-4.33-4.56-6.65,9.06,1.11,5.25.45-.22.79-.4,1.16.09Z"/>
  <path class="cls-24" d="m155.08,643.16c-.19,8.85-.94,7.8,4.1,7.75.71,0,1.24.12,1.24.84,0,.33-.44.77-1.2.77-4.71,0-4.71.13-5.33-.4-.49-.41-.42-1.9-.42-2.78,0-1.17.02-5.56.1-6.18.08-.62.33-.62.75-.62.38,0,.77.09.76.62Z"/>
  <path class="cls-24" d="m454.8,643.16c-.19,8.85-.94,7.8,4.1,7.75.71,0,1.24.12,1.24.84,0,.33-.44.77-1.2.77-4.71,0-4.71.13-5.33-.4-.49-.41-.42-1.9-.42-2.78,0-1.17.02-5.56.1-6.18s.33-.62.75-.62c.38,0,.77.09.76.62Z"/>
  <path class="cls-24" d="m157.17,531.21c-.24-1.84.32-1.55-2-1.55-.49,0-1.12-.24-1.1-.84.02-.69.18-1.02,1.13-1.02.29,0,3.02-.14,5.22-.13.77,0,1.31.31,1.31,1.02,0,.57-.43.92-1.33.92-1.89,0-1.64-.27-1.64,1.65,0,2.22.1,3.18-.29,3.97-2.08,4.21-6.3,2.33-6.3-.82,0-.59.16-.9.75-.94.53-.04.66.49.77.9.76,2.76,4.16,2.08,3.48-3.16Z"/>
  <path class="cls-24" d="m455.56,533.77c0,1.63,0,2.16,0,3.1,0,.66-.29.79-.8.79s-.93-.29-.93-.87c0-1.15-.04-6.16-.04-8.56,0-.52.34-.57.65-.57.41,0,.86.14.86.57,0,1.02.08,3.16.08,3.16,0,0,1.87-1.75,2.5-2.42.41-.44,1-.5,1.3-.14s.47.6-.1,1.15c-.85.84-1.04,1.21-2.46,2.53.83.86,2.18,1.99,3.61,3.62.45.51.34,1.14.17,1.3s-.8.24-1.19-.17-1.92-2.09-3.65-3.5Z"/>
  <path class="cls-24" d="m58.47,412.39c-.46-.06-.96.28-1.19,1.14-.42,1.54-.92,3.7-1.44,5.63-1.11-2.72-1.86-4.39-2.5-4.38-.01,0-.02,0-.03.01-.01-.01-.02-.01-.03-.01-.64-.01-1.39,1.65-2.5,4.38-.51-1.93-1.02-4.09-1.44-5.63-.24-.86-.73-1.2-1.19-1.14-.59.07-.98.49-.74,1.25.25.81,1.84,6.07,2.3,7.72.47,1.65,1.59.9,1.8.49.21-.41,1.36-3.67,1.8-4.59.44.92,1.59,4.18,1.8,4.59.21.41,1.33,1.16,1.8-.49.46-1.64,2.05-6.9,2.3-7.72.24-.76-.15-1.18-.74-1.25Z"/>
  <path class="cls-24" d="m360.19,420.89c.16.19.21.44.19.68-.03.24-.16.46-.34.61-.4.3-.98.23-1.3-.17l-2.45-3.14-2.45,3.14c-.18.23-.45.36-.72.36-.19,0-.4-.07-.57-.19-.19-.15-.32-.37-.35-.61-.03-.24.03-.49.19-.68l2.73-3.51-2.73-3.51c-.13-.17-.19-.36-.19-.57,0-.28.14-.56.36-.73.19-.15.42-.21.67-.19.24.03.47.16.61.35l2.45,3.14,2.44-3.14c.33-.41.91-.48,1.31-.16.22.17.35.43.35.72,0,.2-.07.4-.19.57l-2.73,3.51,2.73,3.51Z"/>
  <path class="cls-24" d="m160.78,421.39c-.88-2.99-2.31-6.84-2.48-7.31-.18-.46-.78-1.7-1.18-1.7s-1.01,1.24-1.19,1.7c-.17.47-1.6,4.32-2.47,7.31-.24.84.05.91.17.94,1.61.21,1.32-.3,1.57-1.4.23-1,.22-1.46,1-1.46.38,0,.56.01.92.01s.53-.01.91-.01c.78,0,.77.46,1,1.46.25,1.1-.04,1.61,1.57,1.4.12-.03.41-.1.18-.94Zm-2.91-3.37h-1.51c-.14,0-.23-.07-.19-.23l.95-3.45.94,3.45c.04.16-.05.23-.19.23Z"/>
  <rect class="cls-24" x="59.94" y="416.43" width="6.95" height="1.9" rx=".95" ry=".95"/>
  <rect class="cls-24" x="361.48" y="416.43" width="6.95" height="1.9" rx=".95" ry=".95"/>
  <path class="cls-24" d="m58.47,527.67c-.46-.06-.96.28-1.19,1.14-.42,1.54-.92,3.7-1.44,5.63-1.11-2.72-1.86-4.39-2.5-4.38-.01,0-.02,0-.03.01-.01-.01-.02-.01-.03-.01-.64-.01-1.39,1.65-2.5,4.38-.51-1.93-1.02-4.09-1.44-5.63-.24-.86-.73-1.2-1.19-1.14-.59.07-.98.49-.74,1.25.25.81,1.84,6.07,2.3,7.72.47,1.65,1.59.9,1.8.49.21-.41,1.36-3.67,1.8-4.59.44.92,1.59,4.18,1.8,4.59.21.41,1.33,1.16,1.8-.49.46-1.64,2.05-6.9,2.3-7.72.24-.76-.15-1.18-.74-1.25Z"/>
  <path class="cls-24" d="m360.19,536.17c.16.19.21.44.19.68-.03.24-.16.46-.34.61-.4.3-.98.23-1.3-.17l-2.45-3.14-2.45,3.14c-.18.23-.45.36-.72.36-.19,0-.4-.07-.57-.19-.19-.15-.32-.37-.35-.61-.03-.24.03-.49.19-.68l2.73-3.51-2.73-3.51c-.13-.17-.19-.36-.19-.57,0-.28.14-.56.36-.73.19-.15.42-.21.67-.19.24.03.47.16.61.35l2.45,3.14,2.44-3.14c.33-.41.91-.48,1.31-.16.22.17.35.43.35.72,0,.2-.07.4-.19.57l-2.73,3.51,2.73,3.51Z"/>
  <rect class="cls-24" x="59.94" y="531.71" width="6.95" height="1.9" rx=".95" ry=".95"/>
  <path class="cls-24" d="m268.11,531.21c-.24-1.84.32-1.55-2-1.55-.49,0-1.12-.24-1.1-.84.02-.69.18-1.02,1.13-1.02.29,0,3.02-.14,5.22-.13.77,0,1.31.31,1.31,1.02,0,.57-.43.92-1.33.92-1.89,0-1.64-.27-1.64,1.65,0,2.22.1,3.18-.29,3.97-2.08,4.21-6.3,2.33-6.3-.82,0-.59.16-.9.75-.94.53-.04.66.49.77.9.76,2.76,4.16,2.08,3.48-3.16Z"/>
  <path class="cls-24" d="m253.97,527.67c-.46-.06-.96.28-1.19,1.14-.42,1.54-.92,3.7-1.44,5.63-1.11-2.72-1.86-4.39-2.5-4.38-.01,0-.02,0-.03.01-.01-.01-.02-.01-.03-.01-.64-.01-1.39,1.65-2.5,4.38-.51-1.93-1.02-4.09-1.44-5.63-.24-.86-.73-1.2-1.19-1.14-.59.07-.98.49-.74,1.25.25.81,1.84,6.07,2.3,7.72.47,1.65,1.59.9,1.8.49.21-.41,1.36-3.67,1.8-4.59.44.92,1.59,4.18,1.8,4.59.21.41,1.33,1.16,1.8-.49.46-1.64,2.05-6.9,2.3-7.72.24-.76-.15-1.18-.74-1.25Z"/>
  <rect class="cls-24" x="255.44" y="531.71" width="6.95" height="1.9" rx=".95" ry=".95"/>
  <rect class="cls-24" x="361.48" y="531.71" width="6.95" height="1.9" rx=".95" ry=".95"/>
  <path class="cls-24" d="m58.47,642.54c-.46-.06-.96.28-1.19,1.14-.42,1.54-.92,3.7-1.44,5.63-1.11-2.72-1.86-4.39-2.5-4.38-.01,0-.02,0-.03.01-.01-.01-.02-.01-.03-.01-.64-.01-1.39,1.65-2.5,4.38-.51-1.93-1.02-4.09-1.44-5.63-.24-.86-.73-1.2-1.19-1.14-.59.07-.98.49-.74,1.25.25.81,1.84,6.07,2.3,7.72.47,1.65,1.59.9,1.8.49.21-.41,1.36-3.67,1.8-4.59.44.92,1.59,4.18,1.8,4.59.21.41,1.33,1.16,1.8-.49.46-1.64,2.05-6.9,2.3-7.72.24-.76-.15-1.18-.74-1.25Z"/>
  <path class="cls-24" d="m360.19,651.04c.16.19.21.44.19.68-.03.24-.16.46-.34.61-.4.3-.98.23-1.3-.17l-2.45-3.14-2.45,3.14c-.18.23-.45.36-.72.36-.19,0-.4-.07-.57-.19-.19-.15-.32-.37-.35-.61-.03-.24.03-.49.19-.68l2.73-3.51-2.73-3.51c-.13-.17-.19-.36-.19-.57,0-.28.14-.56.36-.73.19-.15.42-.21.67-.19.24.03.47.16.61.35l2.45,3.14,2.44-3.14c.33-.41.91-.48,1.31-.16.22.17.35.43.35.72,0,.2-.07.4-.19.57l-2.73,3.51,2.73,3.51Z"/>
  <rect class="cls-24" x="59.94" y="646.58" width="6.95" height="1.9" rx=".95" ry=".95"/>
  <rect class="cls-24" x="361.48" y="646.58" width="6.95" height="1.9" rx=".95" ry=".95"/>
  <path class="cls-24" d="m58.47,757.62c-.46-.06-.96.28-1.19,1.14-.42,1.54-.92,3.7-1.44,5.63-1.11-2.72-1.86-4.39-2.5-4.38-.01,0-.02,0-.03.01-.01-.01-.02-.01-.03-.01-.64-.01-1.39,1.65-2.5,4.38-.51-1.93-1.02-4.09-1.44-5.63-.24-.86-.73-1.2-1.19-1.14-.59.07-.98.49-.74,1.25.25.81,1.84,6.07,2.3,7.72.47,1.65,1.59.9,1.8.49.21-.41,1.36-3.67,1.8-4.59.44.92,1.59,4.18,1.8,4.59.21.41,1.33,1.16,1.8-.49.46-1.64,2.05-6.9,2.3-7.72.24-.76-.15-1.18-.74-1.25Z"/>
  <path class="cls-24" d="m360.19,766.12c.16.19.21.44.19.68-.03.24-.16.46-.34.61-.4.3-.98.23-1.3-.17l-2.45-3.14-2.45,3.14c-.18.23-.45.36-.72.36-.19,0-.4-.07-.57-.19-.19-.15-.32-.37-.35-.61-.03-.24.03-.49.19-.68l2.73-3.51-2.73-3.51c-.13-.17-.19-.36-.19-.57,0-.28.14-.56.36-.73.19-.15.42-.21.67-.19.24.03.47.16.61.35l2.45,3.14,2.44-3.14c.33-.41.91-.48,1.31-.16.22.17.35.43.35.72,0,.2-.07.4-.19.57l-2.73,3.51,2.73,3.51Z"/>
  <rect class="cls-24" x="59.94" y="761.66" width="6.95" height="1.9" rx=".95" ry=".95"/>
  <rect class="cls-24" x="361.48" y="761.66" width="6.95" height="1.9" rx=".95" ry=".95"/>
  <path class="cls-24" d="m272.38,765.37c.42.55-.07,1.12-.5,1.33-9.15,4.54-8.83-9.42-3.27-9.09,1.07.06,2.05.85,2.39,1.26.25.29.44.81.12,1.16-.34.36-.8.24-1.02,0-4.33-4.56-6.65,9.06,1.11,5.25.45-.22.79-.4,1.16.09Z"/>
  <path class="cls-24" d="m572.53,765.37c.42.55-.07,1.12-.5,1.33-9.15,4.54-8.83-9.42-3.27-9.09,1.07.06,2.05.85,2.39,1.26.25.29.44.81.12,1.16-.34.36-.8.24-1.02,0-4.33-4.56-6.65,9.06,1.11,5.25.45-.22.79-.4,1.16.09Z"/>
  <path class="cls-24" d="m266.74,643.16c-.19,8.85-.94,7.8,4.1,7.75.71,0,1.24.12,1.24.84,0,.33-.44.77-1.2.77-4.71,0-4.71.13-5.33-.4-.49-.41-.42-1.9-.42-2.78,0-1.17.02-5.56.1-6.18s.33-.62.75-.62c.38,0,.77.09.76.62Z"/>
  <path class="cls-24" d="m566.74,643.16c-.19,8.85-.94,7.8,4.1,7.75.71,0,1.24.12,1.24.84,0,.33-.44.77-1.2.77-4.71,0-4.71.13-5.33-.4-.49-.41-.42-1.9-.42-2.78,0-1.17.02-5.56.1-6.18.08-.62.33-.62.75-.62.38,0,.77.09.76.62Z"/>
  <path class="cls-24" d="m564.04,533.77c0,1.63,0,2.16,0,3.1,0,.66-.29.79-.8.79s-.93-.29-.93-.87c0-1.15-.04-6.16-.04-8.56,0-.52.34-.57.65-.57.41,0,.86.14.86.57,0,1.02.08,3.16.08,3.16,0,0,1.87-1.75,2.5-2.42.41-.44,1-.5,1.3-.14s.47.6-.1,1.15c-.85.84-1.04,1.21-2.46,2.53.83.86,2.18,1.99,3.61,3.62.45.51.34,1.14.17,1.3s-.8.24-1.19-.17-1.92-2.09-3.65-3.5Z"/>
  <path class="cls-24" d="m553.21,536.17c.16.19.21.44.19.68-.03.24-.16.46-.34.61-.4.3-.98.23-1.3-.17l-2.45-3.14-2.45,3.14c-.18.23-.45.36-.72.36-.19,0-.4-.07-.57-.19-.19-.15-.32-.37-.35-.61-.03-.24.03-.49.19-.68l2.73-3.51-2.73-3.51c-.13-.17-.19-.36-.19-.57,0-.28.14-.56.36-.73.19-.15.42-.21.67-.19.24.03.47.16.61.35l2.45,3.14,2.44-3.14c.33-.41.91-.48,1.31-.16.22.17.35.43.35.72,0,.2-.07.4-.19.57l-2.73,3.51,2.73,3.51Z"/>
  <rect class="cls-24" x="553.88" y="531.71" width="6.95" height="1.9" rx=".95" ry=".95"/>
  <path class="cls-24" d="m253.28,642.54c-.46-.06-.96.28-1.19,1.14-.42,1.54-.92,3.7-1.44,5.63-1.11-2.72-1.86-4.39-2.5-4.38-.01,0-.02,0-.03.01-.01-.01-.02-.01-.03-.01-.64-.01-1.39,1.65-2.5,4.38-.51-1.93-1.02-4.09-1.44-5.63-.24-.86-.73-1.2-1.19-1.14-.59.07-.98.49-.74,1.25.25.81,1.84,6.07,2.3,7.72.47,1.65,1.59.9,1.8.49.21-.41,1.36-3.67,1.8-4.59.44.92,1.59,4.18,1.8,4.59.21.41,1.33,1.16,1.8-.49.46-1.64,2.05-6.9,2.3-7.72.24-.76-.15-1.18-.74-1.25Z"/>
  <path class="cls-24" d="m554.99,651.04c.16.19.21.44.19.68-.03.24-.16.46-.34.61-.4.3-.98.23-1.3-.17l-2.45-3.14-2.45,3.14c-.18.23-.45.36-.72.36-.19,0-.4-.07-.57-.19-.19-.15-.32-.37-.35-.61-.03-.24.03-.49.19-.68l2.73-3.51-2.73-3.51c-.13-.17-.19-.36-.19-.57,0-.28.14-.56.36-.73.19-.15.42-.21.67-.19.24.03.47.16.61.35l2.45,3.14,2.44-3.14c.33-.41.91-.48,1.31-.16.22.17.35.43.35.72,0,.2-.07.4-.19.57l-2.73,3.51,2.73,3.51Z"/>
  <rect class="cls-24" x="254.75" y="646.58" width="6.95" height="1.9" rx=".95" ry=".95"/>
  <rect class="cls-24" x="556.28" y="646.58" width="6.95" height="1.9" rx=".95" ry=".95"/>
  <path class="cls-24" d="m253.28,757.62c-.46-.06-.96.28-1.19,1.14-.42,1.54-.92,3.7-1.44,5.63-1.11-2.72-1.86-4.39-2.5-4.38-.01,0-.02,0-.03.01-.01-.01-.02-.01-.03-.01-.64-.01-1.39,1.65-2.5,4.38-.51-1.93-1.02-4.09-1.44-5.63-.24-.86-.73-1.2-1.19-1.14-.59.07-.98.49-.74,1.25.25.81,1.84,6.07,2.3,7.72.47,1.65,1.59.9,1.8.49.21-.41,1.36-3.67,1.8-4.59.44.92,1.59,4.18,1.8,4.59.21.41,1.33,1.16,1.8-.49.46-1.64,2.05-6.9,2.3-7.72.24-.76-.15-1.18-.74-1.25Z"/>
  <path class="cls-24" d="m554.99,766.12c.16.19.21.44.19.68-.03.24-.16.46-.34.61-.4.3-.98.23-1.3-.17l-2.45-3.14-2.45,3.14c-.18.23-.45.36-.72.36-.19,0-.4-.07-.57-.19-.19-.15-.32-.37-.35-.61-.03-.24.03-.49.19-.68l2.73-3.51-2.73-3.51c-.13-.17-.19-.36-.19-.57,0-.28.14-.56.36-.73.19-.15.42-.21.67-.19.24.03.47.16.61.35l2.45,3.14,2.44-3.14c.33-.41.91-.48,1.31-.16.22.17.35.43.35.72,0,.2-.07.4-.19.57l-2.73,3.51,2.73,3.51Z"/>
  <rect class="cls-24" x="254.75" y="761.66" width="6.95" height="1.9" rx=".95" ry=".95"/>
  <rect class="cls-24" x="556.28" y="761.66" width="6.95" height="1.9" rx=".95" ry=".95"/>
  <path class="cls-24" d="m566.14,417.24c4.39-1.93.8-6.48-3.28-4.27-.04.02-.07.06-.07.1-.38,2.63-.16,6.19.2,8.71.02.13.12.23.24.27,6.22,1.71,7.68-3.78,2.91-4.81Zm.65-2.47c0,1.13-1.98,1.51-2.74,1.51-.13-.26-.02-2.43.07-2.53.9-.25,2.67.04,2.67,1.02Zm-2.38,6.17c-.17-1.1-.2-1.41-.14-2.54.47-.06,3.32-.1,3.29,1.38-.03,1.15-2.44,1.38-3.15,1.16Z"/>
  <path class="cls-24" d="m553.26,420.89c.16.19.21.44.19.68-.03.24-.16.46-.34.61-.4.3-.98.23-1.3-.17l-2.45-3.14-2.45,3.14c-.18.23-.45.36-.72.36-.19,0-.4-.07-.57-.19-.19-.15-.32-.37-.35-.61-.03-.24.03-.49.19-.68l2.73-3.51-2.73-3.51c-.13-.17-.19-.36-.19-.57,0-.28.14-.56.36-.73.19-.15.42-.21.67-.19.24.03.47.16.61.35l2.45,3.14,2.44-3.14c.33-.41.91-.48,1.31-.16.22.17.35.43.35.72,0,.2-.07.4-.19.57l-2.73,3.51,2.73,3.51Z"/>
  <rect class="cls-24" x="554.14" y="416.43" width="6.95" height="1.9" rx=".95" ry=".95"/>
  <path class="cls-24" d="m254.36,412.39c-.46-.06-.96.28-1.19,1.14-.42,1.54-.92,3.7-1.44,5.63-1.11-2.72-1.86-4.39-2.5-4.38-.01,0-.02,0-.03.01-.01-.01-.02-.01-.03-.01-.64-.01-1.39,1.65-2.5,4.38-.51-1.93-1.02-4.09-1.44-5.63-.24-.86-.73-1.2-1.19-1.14-.59.07-.98.49-.74,1.25.25.81,1.84,6.07,2.3,7.72.47,1.65,1.59.9,1.8.49.21-.41,1.36-3.67,1.8-4.59.44.92,1.59,4.18,1.8,4.59.21.41,1.33,1.16,1.8-.49.46-1.64,2.05-6.9,2.3-7.72.24-.76-.15-1.18-.74-1.25Z"/>
  <path class="cls-24" d="m270.91,421.39c-.88-2.99-2.31-6.84-2.48-7.31-.18-.46-.78-1.7-1.18-1.7s-1.01,1.24-1.19,1.7c-.17.47-1.6,4.32-2.47,7.31-.24.84.05.91.17.94,1.61.21,1.32-.3,1.57-1.4.23-1,.22-1.46,1-1.46.38,0,.56.01.92.01s.53-.01.91-.01c.78,0,.77.46,1,1.46.25,1.1-.04,1.61,1.57,1.4.12-.03.41-.1.18-.94Zm-2.91-3.37h-1.51c-.14,0-.23-.07-.19-.23l.95-3.45.94,3.45c.04.16-.05.23-.19.23Z"/>
  <rect class="cls-24" x="255.5" y="416.43" width="6.95" height="1.9" rx=".95" ry=".95"/>
  <path class="cls-34" d="m551.18,397.2c0-11.31-.78-19.27-10.07-21.63,9.43-2.98,9.84-8.29,9.84-18.89l2.94,2.9s1.17-1.11.53-1.98c-.92-1.26-4.36-4.22-4.36-4.22,0,0-3.6,3.22-4.33,4.22-.65.87.5,1.98.5,1.98l2.84-2.9c.52,14.59-3.9,17.75-17.62,17.75-1.4,0-1.38,2.61,0,2.61,13.61,0,17.43,2.18,17.43,20.17,0,1.42,2.31,1.39,2.31,0Z"/>
  <path class="cls-34" d="m351.81,405.59c0-19.4-1.31-21.27-20.16-21.26l2.72-2.66s-1.04-1.1-1.87-.5c-1.18.85-3.95,4.09-3.95,4.09,0,0,3.01,3.38,3.95,4.07.82.6,1.87-.48,1.87-.48l-2.72-2.56c17.27,0,18.08.99,18.08,19.28,0,1.45,2.07,1.48,2.07.03Z"/>
  <path class="cls-34" d="m351.81,519.16c0-19.4-1.31-21.27-20.16-21.26l2.72-2.66s-1.04-1.1-1.87-.5c-1.18.85-3.95,4.09-3.95,4.09,0,0,3.01,3.38,3.95,4.07.82.6,1.87-.48,1.87-.48l-2.72-2.56c17.27,0,18.08.99,18.08,19.28,0,1.45,2.07,1.48,2.07.03Z"/>
  <path class="cls-34" d="m351.81,634.84c0-19.4-1.31-21.27-20.16-21.26l2.72-2.66s-1.04-1.1-1.87-.5c-1.18.85-3.95,4.09-3.95,4.09,0,0,3.01,3.38,3.95,4.07.82.6,1.87-.48,1.87-.48l-2.72-2.56c17.27,0,18.08.99,18.08,19.28,0,1.45,2.07,1.48,2.07.03Z"/>
  <path class="cls-34" d="m351.81,749.16c0-19.4-1.31-21.27-20.16-21.26l2.72-2.66s-1.04-1.1-1.87-.5c-1.18.85-3.95,4.09-3.95,4.09,0,0,3.01,3.38,3.95,4.07.82.6,1.87-.48,1.87-.48l-2.72-2.56c17.27,0,18.08.99,18.08,19.28,0,1.45,2.07,1.48,2.07.03Z"/>
  <path class="cls-34" d="m427.9,495.7c19.4,0,21.27,1.31,21.26,20.16l2.66-2.72s1.1,1.04.5,1.87c-.85,1.18-4.09,3.95-4.09,3.95,0,0-3.38-3.01-4.07-3.95-.6-.82.48-1.87.48-1.87l2.56,2.72c0-17.27-.99-18.08-19.28-18.08-1.45,0-1.48-2.07-.03-2.07Z"/>
  <path class="cls-32" d="m487.68,495.7c-19.4,0-21.27,1.31-21.26,20.16l-2.66-2.72s-1.1,1.04-.5,1.87c.85,1.18,4.09,3.95,4.09,3.95,0,0,3.38-3.01,4.07-3.95.6-.82-.48-1.87-.48-1.87l-2.56,2.72c0-17.27.99-18.08,19.28-18.08,1.45,0,1.48-2.07.03-2.07Z"/>
  <path class="cls-32" d="m489.3,612.83c-19.4,0-21.27,1.31-21.26,20.16l-2.66-2.72s-1.1,1.04-.5,1.87c.85,1.18,4.09,3.95,4.09,3.95,0,0,3.38-3.01,4.07-3.95.6-.82-.48-1.87-.48-1.87l-2.56,2.72c0-17.27.99-18.08,19.28-18.08,1.45,0,1.48-2.07.03-2.07Z"/>
  <path class="cls-32" d="m485.47,725.08c-19.4,0-21.27,1.31-21.26,20.16l-2.66-2.72s-1.1,1.04-.5,1.87c.85,1.18,4.09,3.95,4.09,3.95,0,0,3.38-3.01,4.07-3.95.6-.82-.48-1.87-.48-1.87l-2.56,2.72c0-17.27.99-18.08,19.28-18.08,1.45,0,1.48-2.07.03-2.07Z"/>
  <path class="cls-34" d="m429.34,371.11c19.4,0,21.27-1.31,21.26-20.16l2.66,2.72s1.1-1.04.5-1.87c-.85-1.18-4.09-3.95-4.09-3.95,0,0-3.38,3.01-4.07,3.95-.6.82.48,1.87.48,1.87l2.56-2.72c0,17.27-.99,18.08-19.28,18.08-1.45,0-1.48,2.07-.03,2.07Z"/>
  <path class="cls-32" d="m485.47,380.67c-19.4,0-21.27,1.31-21.26,20.16l-2.66-2.72s-1.1,1.04-.5,1.87c.85,1.18,4.09,3.95,4.09,3.95,0,0,3.38-3.01,4.07-3.95.6-.82-.48-1.87-.48-1.87l-2.56,2.72c0-17.27.99-18.08,19.28-18.08,1.45,0,1.48-2.07.03-2.07Z"/>
  <path class="cls-32" d="m370.53,475.59c1.08.79,3.91,4.05,3.91,4.05,0,0-2.83,3.26-3.91,4.05-.82.59-1.87-.5-1.87-.5l2.58-2.62h-30.74c-1.32,0-1.32-1.86,0-1.86h30.74s-2.58-2.62-2.58-2.62c0,0,1.05-1.09,1.87-.5Z"/>
  <path class="cls-32" d="m370.53,593.78c1.08.79,3.91,4.05,3.91,4.05,0,0-2.83,3.26-3.91,4.05-.82.59-1.87-.5-1.87-.5l2.58-2.62h-30.74c-1.32,0-1.32-1.86,0-1.86h30.74s-2.58-2.62-2.58-2.62c0,0,1.05-1.09,1.87-.5Z"/>
  <path class="cls-32" d="m370.53,709.4c1.08.79,3.91,4.05,3.91,4.05,0,0-2.83,3.26-3.91,4.05-.82.59-1.87-.5-1.87-.5l2.58-2.62h-30.74c-1.32,0-1.32-1.86,0-1.86h30.74s-2.58-2.62-2.58-2.62c0,0,1.05-1.09,1.87-.5Z"/>
  <path class="cls-34" d="m460.38,176.21c0,19.4,1.31,21.27,20.16,21.26l-2.72,2.66s1.04,1.1,1.87.5c1.18-.85,3.95-4.09,3.95-4.09,0,0-3.01-3.38-3.95-4.07-.82-.6-1.87.48-1.87.48l2.72,2.56c-17.27,0-18.08-.99-18.08-19.28,0-1.45-2.07-1.48-2.07-.03Z"/>
  <g>
    <circle class="cls-24" cx="157.12" cy="405.81" r="2.5"/>
    <circle class="cls-24" cx="187.12" cy="375.81" r="2.5"/>
    <circle class="cls-24" cx="157.12" cy="345.81" r="2.5"/>
    <circle class="cls-24" cx="127.12" cy="375.81" r="2.5"/>
    <circle class="cls-24" cx="157.12" cy="375.81" r="1.12"/>
  </g>
  <g>
    <circle class="cls-24" cx="57.12" cy="405.81" r="2.5"/>
    <circle class="cls-24" cx="87.12" cy="375.81" r="2.5"/>
    <circle class="cls-24" cx="57.12" cy="345.81" r="2.5"/>
    <circle class="cls-24" cx="27.12" cy="375.81" r="2.5"/>
    <circle class="cls-24" cx="57.12" cy="375.81" r="1.12"/>
  </g>
  <g>
    <circle class="cls-24" cx="157.12" cy="520.81" r="2.5"/>
    <circle class="cls-24" cx="187.12" cy="490.81" r="2.5"/>
    <circle class="cls-24" cx="157.12" cy="460.81" r="2.5"/>
    <circle class="cls-24" cx="127.12" cy="490.81" r="2.5"/>
    <circle class="cls-24" cx="157.12" cy="490.81" r="1.12"/>
  </g>
  <g>
    <circle class="cls-24" cx="57.12" cy="520.81" r="2.5"/>
    <circle class="cls-24" cx="87.12" cy="490.81" r="2.5"/>
    <circle class="cls-24" cx="57.12" cy="460.81" r="2.5"/>
    <circle class="cls-24" cx="27.12" cy="490.81" r="2.5"/>
    <circle class="cls-24" cx="57.12" cy="490.81" r="1.12"/>
  </g>
  <g>
    <circle class="cls-24" cx="57.12" cy="635.81" r="2.5"/>
    <circle class="cls-24" cx="87.12" cy="605.81" r="2.5"/>
    <circle class="cls-24" cx="57.12" cy="575.81" r="2.5"/>
    <circle class="cls-24" cx="27.12" cy="605.81" r="2.5"/>
    <circle class="cls-24" cx="57.12" cy="605.81" r="1.12"/>
  </g>
  <g>
    <circle class="cls-24" cx="157.12" cy="635.81" r="2.5"/>
    <circle class="cls-24" cx="187.12" cy="605.81" r="2.5"/>
    <circle class="cls-24" cx="157.12" cy="575.81" r="2.5"/>
    <circle class="cls-24" cx="127.12" cy="605.81" r="2.5"/>
    <circle class="cls-24" cx="157.12" cy="605.81" r="1.12"/>
  </g>
  <g>
    <circle class="cls-24" cx="157.12" cy="750.81" r="2.5"/>
    <circle class="cls-24" cx="187.12" cy="720.81" r="2.5"/>
    <circle class="cls-24" cx="157.12" cy="690.81" r="2.5"/>
    <circle class="cls-24" cx="127.12" cy="720.81" r="2.5"/>
    <circle class="cls-24" cx="157.12" cy="720.81" r="1.12"/>
  </g>
  <g>
    <circle class="cls-24" cx="57.12" cy="750.81" r="2.5"/>
    <circle class="cls-24" cx="87.12" cy="720.81" r="2.5"/>
    <circle class="cls-24" cx="57.12" cy="690.81" r="2.5"/>
    <circle class="cls-24" cx="27.12" cy="720.81" r="2.5"/>
    <circle class="cls-24" cx="57.12" cy="720.81" r="1.12"/>
  </g>
  <g>
    <circle class="cls-24" cx="257.12" cy="635.81" r="2.5"/>
    <circle class="cls-24" cx="287.12" cy="605.81" r="2.5"/>
    <circle class="cls-24" cx="257.12" cy="575.81" r="2.5"/>
    <circle class="cls-24" cx="227.12" cy="605.81" r="2.5"/>
    <circle class="cls-24" cx="257.12" cy="605.81" r="1.12"/>
  </g>
  <g>
    <circle class="cls-24" cx="257.12" cy="750.81" r="2.5"/>
    <circle class="cls-24" cx="287.12" cy="720.81" r="2.5"/>
    <circle class="cls-24" cx="257.12" cy="690.81" r="2.5"/>
    <circle class="cls-24" cx="227.12" cy="720.81" r="2.5"/>
    <circle class="cls-24" cx="257.12" cy="720.81" r="1.12"/>
  </g>
  <g>
    <circle class="cls-24" cx="257.12" cy="345.81" r="2.5"/>
    <circle class="cls-24" cx="227.12" cy="375.81" r="2.5"/>
    <circle class="cls-24" cx="257.12" cy="405.81" r="2.5"/>
    <circle class="cls-24" cx="287.12" cy="375.81" r="2.5"/>
    <circle class="cls-24" cx="257.12" cy="375.81" r="1.12"/>
  </g>
  <g>
    <circle class="cls-24" cx="257.12" cy="460.81" r="2.5"/>
    <circle class="cls-24" cx="227.12" cy="490.81" r="2.5"/>
    <circle class="cls-24" cx="257.12" cy="520.81" r="2.5"/>
    <circle class="cls-24" cx="287.12" cy="490.81" r="2.5"/>
    <circle class="cls-24" cx="257.12" cy="490.81" r="1.12"/>
  </g>
  <circle class="cls-24" cx="257.12" cy="605.81" r="1.12"/>
  <path class="cls-34" d="m54.4,379.56c-.5,0-.92-.39-.92-.87v-1.82h-22.29c-.49,0-.89-.39-.89-.85v-.42c0-.46.4-.85.89-.85h22.29v-1.82c0-.48.42-.87.92-.87s.91.39.91.87v5.76c0,.48-.41.87-.91.87Z"/>
  <path class="cls-32" d="m59.84,372.06c.5,0,.92.39.92.87v1.82s22.29,0,22.29,0c.49,0,.89.39.89.85v.42c0,.46-.4.85-.89.85h-22.29s0,1.82,0,1.82c0,.48-.42.87-.92.87-.5,0-.91-.39-.91-.87v-5.76c0-.48.41-.87.91-.87Z"/>
  <path class="cls-34" d="m54.4,494.56c-.5,0-.92-.39-.92-.87v-1.82h-22.29c-.49,0-.89-.39-.89-.85v-.42c0-.46.4-.85.89-.85h22.29v-1.82c0-.48.42-.87.92-.87s.91.39.91.87v5.76c0,.48-.41.87-.91.87Z"/>
  <path class="cls-34" d="m158.37,493.53c0,.5-.39.92-.87.92h-1.82s0,22.29,0,22.29c0,.49-.39.89-.85.89h-.42c-.46,0-.85-.4-.85-.89v-22.29s-1.82,0-1.82,0c-.48,0-.87-.42-.87-.92,0-.5.39-.91.87-.91h5.76c.48,0,.87.41.87.91Z"/>
  <path class="cls-32" d="m163.37,493.53c0,.5-.39.92-.87.92h-1.82s0,22.29,0,22.29c0,.49-.39.89-.85.89h-.42c-.46,0-.85-.4-.85-.89v-22.29s-1.82,0-1.82,0c-.48,0-.87-.42-.87-.92,0-.5.39-.91.87-.91h5.76c.48,0,.87.41.87.91Z"/>
  <path class="cls-34" d="m458.37,493.53c0,.5-.39.92-.87.92h-1.82s0,22.29,0,22.29c0,.49-.39.89-.85.89h-.42c-.46,0-.85-.4-.85-.89v-22.29s-1.82,0-1.82,0c-.48,0-.87-.42-.87-.92,0-.5.39-.91.87-.91h5.76c.48,0,.87.41.87.91Z"/>
  <path class="cls-32" d="m455.87,516.71c0-.5.39-.92.87-.92h1.82s0-22.29,0-22.29c0-.49.39-.89.85-.89h.42c.46,0,.85.4.85.89v22.29s1.82,0,1.82,0c.48,0,.87.42.87.92,0,.5-.39.91-.87.91h-5.76c-.48,0-.87-.41-.87-.91Z"/>
  <path class="cls-34" d="m458.37,608.53c0,.5-.39.92-.87.92h-1.82s0,22.29,0,22.29c0,.49-.39.89-.85.89h-.42c-.46,0-.85-.4-.85-.89v-22.29s-1.82,0-1.82,0c-.48,0-.87-.42-.87-.92,0-.5.39-.91.87-.91h5.76c.48,0,.87.41.87.91Z"/>
  <path class="cls-32" d="m455.87,631.71c0-.5.39-.92.87-.92h1.82s0-22.29,0-22.29c0-.49.39-.89.85-.89h.42c.46,0,.85.4.85.89v22.29s1.82,0,1.82,0c.48,0,.87.42.87.92,0,.5-.39.91-.87.91h-5.76c-.48,0-.87-.41-.87-.91Z"/>
  <path class="cls-34" d="m558.37,608.53c0,.5-.39.92-.87.92h-1.82s0,22.29,0,22.29c0,.49-.39.89-.85.89h-.42c-.46,0-.85-.4-.85-.89v-22.29s-1.82,0-1.82,0c-.48,0-.87-.42-.87-.92s.39-.91.87-.91h5.76c.48,0,.87.41.87.91Z"/>
  <path class="cls-32" d="m555.87,631.71c0-.5.39-.92.87-.92h1.82s0-22.29,0-22.29c0-.49.39-.89.85-.89h.42c.46,0,.85.4.85.89v22.29s1.82,0,1.82,0c.48,0,.87.42.87.92,0,.5-.39.91-.87.91h-5.76c-.48,0-.87-.41-.87-.91Z"/>
  <path class="cls-34" d="m558.37,493.53c0,.5-.39.92-.87.92h-1.82s0,22.29,0,22.29c0,.49-.39.89-.85.89h-.42c-.46,0-.85-.4-.85-.89v-22.29s-1.82,0-1.82,0c-.48,0-.87-.42-.87-.92s.39-.91.87-.91h5.76c.48,0,.87.41.87.91Z"/>
  <path class="cls-32" d="m563.37,493.53c0,.5-.39.92-.87.92h-1.82s0,22.29,0,22.29c0,.49-.39.89-.85.89h-.42c-.46,0-.85-.4-.85-.89v-22.29s-1.82,0-1.82,0c-.48,0-.87-.42-.87-.92s.39-.91.87-.91h5.76c.48,0,.87.41.87.91Z"/>
  <path class="cls-34" d="m158.37,608.53c0,.5-.39.92-.87.92h-1.82s0,22.29,0,22.29c0,.49-.39.89-.85.89h-.42c-.46,0-.85-.4-.85-.89v-22.29s-1.82,0-1.82,0c-.48,0-.87-.42-.87-.92,0-.5.39-.91.87-.91h5.76c.48,0,.87.41.87.91Z"/>
  <path class="cls-32" d="m163.37,608.53c0,.5-.39.92-.87.92h-1.82s0,22.29,0,22.29c0,.49-.39.89-.85.89h-.42c-.46,0-.85-.4-.85-.89v-22.29s-1.82,0-1.82,0c-.48,0-.87-.42-.87-.92,0-.5.39-.91.87-.91h5.76c.48,0,.87.41.87.91Z"/>
  <path class="cls-34" d="m258.37,608.53c0,.5-.39.92-.87.92h-1.82s0,22.29,0,22.29c0,.49-.39.89-.85.89h-.42c-.46,0-.85-.4-.85-.89v-22.29s-1.82,0-1.82,0c-.48,0-.87-.42-.87-.92,0-.5.39-.91.87-.91h5.76c.48,0,.87.41.87.91Z"/>
  <path class="cls-32" d="m263.37,608.53c0,.5-.39.92-.87.92h-1.82s0,22.29,0,22.29c0,.49-.39.89-.85.89h-.42c-.46,0-.85-.4-.85-.89v-22.29s-1.82,0-1.82,0c-.48,0-.87-.42-.87-.92,0-.5.39-.91.87-.91h5.76c.48,0,.87.41.87.91Z"/>
  <path class="cls-32" d="m263.37,493.53c0,.5-.39.92-.87.92h-1.82s0,22.29,0,22.29c0,.49-.39.89-.85.89h-.42c-.46,0-.85-.4-.85-.89v-22.29s-1.82,0-1.82,0c-.48,0-.87-.42-.87-.92s.39-.91.87-.91h5.76c.48,0,.87.41.87.91Z"/>
  <path class="cls-32" d="m59.84,487.06c.5,0,.92.39.92.87v1.82s22.29,0,22.29,0c.49,0,.89.39.89.85v.42c0,.46-.4.85-.89.85h-22.29s0,1.82,0,1.82c0,.48-.42.87-.92.87-.5,0-.91-.39-.91-.87v-5.76c0-.48.41-.87.91-.87Z"/>
  <path class="cls-34" d="m153.37,373.09c0-.5.39-.92.87-.92h1.82s0-22.29,0-22.29c0-.49.39-.89.85-.89h.42c.46,0,.85.4.85.89v22.29s1.82,0,1.82,0c.48,0,.87.42.87.92,0,.5-.39.91-.87.91h-5.76c-.48,0-.87-.41-.87-.91Z"/>
  <path class="cls-34" d="m58.37,179.71c0,.5-.39.92-.87.92h-1.82s0,22.29,0,22.29c0,.49-.39.89-.85.89h-.42c-.46,0-.85-.4-.85-.89v-22.29s-1.82,0-1.82,0c-.48,0-.87-.42-.87-.92s.39-.91.87-.91h5.76c.48,0,.87.41.87.91Z"/>
  <path class="cls-34" d="m358.37,179.71c0,.5-.39.92-.87.92h-1.82s0,22.29,0,22.29c0,.49-.39.89-.85.89h-.42c-.46,0-.85-.4-.85-.89v-22.29s-1.82,0-1.82,0c-.48,0-.87-.42-.87-.92s.39-.91.87-.91h5.76c.48,0,.87.41.87.91Z"/>
  <path class="cls-34" d="m457.39,201.96c.5,0,.92.39.92.87v1.82s22.29,0,22.29,0c.49,0,.89.39.89.85v.42c0,.46-.4.85-.89.85h-22.29s0,1.82,0,1.82c0,.48-.42.87-.92.87-.5,0-.91-.39-.91-.87v-5.76c0-.48.41-.87.91-.87Z"/>
  <path class="cls-34" d="m128.68,201.88c.5,0,.92.39.92.87v1.82s22.29,0,22.29,0c.49,0,.89.39.89.85v.42c0,.46-.4.85-.89.85h-22.29s0,1.82,0,1.82c0,.48-.42.87-.92.87s-.91-.39-.91-.87v-5.76c0-.48.41-.87.91-.87Z"/>
  <path class="cls-34" d="m228.68,201.88c.5,0,.92.39.92.87v1.82s22.29,0,22.29,0c.49,0,.89.39.89.85v.42c0,.46-.4.85-.89.85h-22.29s0,1.82,0,1.82c0,.48-.42.87-.92.87s-.91-.39-.91-.87v-5.76c0-.48.41-.87.91-.87Z"/>
  <path class="cls-32" d="m160.87,378.53c0,.5-.39.92-.87.92h-1.82s0,22.29,0,22.29c0,.49-.39.89-.85.89h-.42c-.46,0-.85-.4-.85-.89v-22.29s-1.82,0-1.82,0c-.48,0-.87-.42-.87-.92,0-.5.39-.91.87-.91h5.76c.48,0,.87.41.87.91Z"/>
  <path class="cls-34" d="m253.37,373.09c0-.5.39-.92.87-.92h1.82s0-22.29,0-22.29c0-.49.39-.89.85-.89h.42c.46,0,.85.4.85.89v22.29s1.82,0,1.82,0c.48,0,.87.42.87.92,0,.5-.39.91-.87.91h-5.76c-.48,0-.87-.41-.87-.91Z"/>
  <path class="cls-32" d="m260.87,378.53c0,.5-.39.92-.87.92h-1.82s0,22.29,0,22.29c0,.49-.39.89-.85.89h-.42c-.46,0-.85-.4-.85-.89v-22.29s-1.82,0-1.82,0c-.48,0-.87-.42-.87-.92,0-.5.39-.91.87-.91h5.76c.48,0,.87.41.87.91Z"/>
  <path class="cls-34" d="m51.95,404.22c-11.89,0-22.68-9.57-22.72-21.38l-2.41,2.65s-1.11-1.01-.54-1.85c.65-.95,3.93-4.08,3.93-4.08,0,0,3.32,2.66,4.21,3.8.63.81-.43,1.89-.43,1.89l-2.78-2.61c.03,8.93,7.32,18.79,20.74,19.5,1.57.08,1.62,2.09,0,2.08Z"/>
  <path class="cls-34" d="m427.12,610.75c0,11.89,9.57,22.68,21.38,22.72l-2.65,2.41s1.01,1.11,1.85.54c.95-.65,4.08-3.93,4.08-3.93,0,0-2.66-3.32-3.8-4.21-.81-.63-1.89.43-1.89.43l2.61,2.78c-8.93-.03-18.79-7.32-19.5-20.74-.08-1.57-2.09-1.62-2.08,0Z"/>
  <path class="cls-34" d="m427.72,716.21c0-11.89,9.57-22.68,21.38-22.72l-2.65-2.41s1.01-1.11,1.85-.54c.95.65,4.08,3.93,4.08,3.93,0,0-2.66,3.32-3.8,4.21-.81.63-1.89-.43-1.89-.43l2.61-2.78c-8.93.03-18.79,7.32-19.5,20.74-.08,1.57-2.09,1.62-2.08,0Z"/>
  <path class="cls-34" d="m52.95,519.08c-11.89,0-22.68-9.57-22.72-21.38l-2.41,2.65s-1.11-1.01-.54-1.85c.65-.95,3.93-4.08,3.93-4.08,0,0,3.32,2.66,4.21,3.8.63.81-.43,1.89-.43,1.89l-2.78-2.61c.03,8.93,7.32,18.79,20.74,19.5,1.57.08,1.62,2.09,0,2.08Z"/>
  <path class="cls-34" d="m128.7,496.89c0,11.89,9.57,22.68,21.38,22.72l-2.65,2.41s1.01,1.11,1.85.54c.95-.65,4.08-3.93,4.08-3.93,0,0-2.66-3.32-3.8-4.21-.81-.63-1.89.43-1.89.43l2.61,2.78c-8.93-.03-18.79-7.32-19.5-20.74-.08-1.57-2.09-1.62-2.08,0Z"/>
  <path class="cls-34" d="m128.21,370.05c0-11.89,9.57-22.68,21.38-22.72l-2.65-2.41s1.01-1.11,1.85-.54c.95.65,4.08,3.93,4.08,3.93,0,0-2.66,3.32-3.8,4.21-.81.63-1.89-.43-1.89-.43l2.61-2.78c-8.93.03-18.79,7.32-19.5,20.74-.08,1.57-2.09,1.62-2.08,0Z"/>
  <path class="cls-32" d="m186.03,381.56c0,11.89-9.57,22.68-21.38,22.72l2.65,2.41s-1.01,1.11-1.85.54c-.95-.65-4.08-3.93-4.08-3.93,0,0,2.66-3.32,3.8-4.21.81-.63,1.89.43,1.89.43l-2.61,2.78c8.93-.03,18.79-7.32,19.5-20.74.08-1.57,2.09-1.62,2.08,0Z"/>
  <path class="cls-32" d="m266.49,753.2c-1.15-.71-3.89-4.14-3.89-4.14,0,0,2.73-3.27,3.89-4.13.83-.6,1.91.5,1.91.5l-2.68,2.68c8.19.1,19.25-2.8,19.36-19.26,0-.18-.15-.34-.33-.34h-47.97c-1.54,0-1.55-1.91,0-1.91,0,0,48.95-.01,49.51-.01s.97.64.97,1.68c0,11.99-6.82,22.3-21.54,21.82l2.68,2.6s-1.04,1.03-1.91.49Z"/>
  <path class="cls-32" d="m160.87,723.53c0,.5-.39.92-.87.92h-1.82s0,22.29,0,22.29c0,.49-.39.89-.85.89h-.42c-.46,0-.85-.4-.85-.89v-22.29s-1.82,0-1.82,0c-.48,0-.87-.42-.87-.92,0-.5.39-.91.87-.91h5.76c.48,0,.87.41.87.91Z"/>
  <path class="cls-32" d="m260.87,723.53c0,.5-.39.92-.87.92h-1.82s0,22.29,0,22.29c0,.49-.39.89-.85.89h-.42c-.46,0-.85-.4-.85-.89v-22.29s-1.82,0-1.82,0c-.48,0-.87-.42-.87-.92,0-.5.39-.91.87-.91h5.76c.48,0,.87.41.87.91Z"/>
  <path class="cls-32" d="m186.03,726.56c0,11.89-9.57,22.68-21.38,22.72l2.65,2.41s-1.01,1.11-1.85.54c-.95-.65-4.08-3.93-4.08-3.93,0,0,2.66-3.32,3.8-4.21.81-.63,1.89.43,1.89.43l-2.61,2.78c8.93-.03,18.79-7.32,19.5-20.74.08-1.57,2.09-1.62,2.08,0Z"/>
  <path class="cls-32" d="m70.67,495.3c1.08.79,3.91,4.05,3.91,4.05,0,0-2.83,3.26-3.91,4.05-.82.59-1.87-.5-1.87-.5l2.58-2.62h-30.74c-1.32,0-1.32-1.86,0-1.86h30.74s-2.58-2.62-2.58-2.62c0,0,1.05-1.09,1.87-.5Z"/>
  <path class="cls-32" d="m70.67,610.21c1.08.79,3.91,4.05,3.91,4.05,0,0-2.83,3.26-3.91,4.05-.82.59-1.87-.5-1.87-.5l2.58-2.62h-30.74c-1.32,0-1.32-1.86,0-1.86h30.74s-2.58-2.62-2.58-2.62c0,0,1.05-1.09,1.87-.5Z"/>
  <path class="cls-32" d="m266.49,523.14c-1.15-.71-3.89-4.14-3.89-4.14,0,0,2.73-3.27,3.89-4.13.83-.6,1.91.5,1.91.5l-2.68,2.68c8.19.1,19.25-2.8,19.36-19.26,0-.18-.15-.34-.33-.34h-47.97c-1.54,0-1.55-1.91,0-1.91,0,0,48.95-.01,49.51-.01.56,0,.97.64.97,1.68,0,11.99-6.82,22.3-21.54,21.82l2.68,2.6s-1.04,1.03-1.91.49Z"/>
  <path class="cls-32" d="m266.37,638.26c-1.15-.71-3.89-4.14-3.89-4.14,0,0,2.73-3.27,3.89-4.13.83-.6,1.91.5,1.91.5l-2.68,2.68c8.19.1,19.25-2.8,19.36-19.26,0-.18-.15-.34-.33-.34h-47.97c-1.54,0-1.55-1.91,0-1.91,0,0,48.95-.01,49.51-.01s.97.64.97,1.68c0,11.99-6.82,22.3-21.54,21.82l2.68,2.6s-1.04,1.03-1.91.49Z"/>
  <path class="cls-32" d="m186.03,497.13c0,11.89-9.57,22.68-21.38,22.72l2.65,2.41s-1.01,1.11-1.85.54c-.95-.65-4.08-3.93-4.08-3.93,0,0,2.66-3.32,3.8-4.21.81-.63,1.89.43,1.89.43l-2.61,2.78c8.93-.03,18.79-7.32,19.5-20.74.08-1.57,2.09-1.62,2.08,0Z"/>
  <path class="cls-32" d="m186.87,610.75c0,11.89-9.57,22.68-21.38,22.72l2.65,2.41s-1.01,1.11-1.85.54c-.95-.65-4.08-3.93-4.08-3.93,0,0,2.66-3.32,3.8-4.21.81-.63,1.89.43,1.89.43l-2.61,2.78c8.93-.03,18.79-7.32,19.5-20.74.08-1.57,2.09-1.62,2.08,0Z"/>
  <path class="cls-34" d="m251.02,352.68l-2.64,2.65s1.05,1.08,1.87.47c.94-.68,3.95-4.06,3.95-4.06,0,0-2.77-3.23-3.95-4.09-.82-.59-1.87.5-1.87.5l2.64,2.61c-34.86,0-34.86,55.45,1.34,55.45,1.32,0,1.45-2.23.19-2.23-33.93,0-33.22-51.3-1.53-51.3Z"/>
  <path class="cls-34" d="m251.52,519.06s-2.95,3.4-3.93,4.07c-.84.58-1.91-.51-1.91-.51l2.47-2.57c-7.25,0-21.19-5.72-20.39-22.44.14-3,1.63-3.46,2.43-3.46s2.12.55,2.21,3.02c.3,8.74,8.73,15.29,17.72,15.29.4-.01,1.47.09,1.39,1.23-.09,1.19-1.59,1-1.59,1-10.59,0-19.73-8.11-19.83-18.05-1.82,14.27,10.29,21.32,18.05,21.32l-2.45-2.51s1.05-1.09,1.87-.5c1.18.86,3.97,4.12,3.97,4.12Z"/>
  <path class="cls-34" d="m253.37,718.09c0-.5.39-.92.87-.92h1.82v-22.29c0-.49.39-.89.85-.89h.42c.46,0,.85.4.85.89v22.29h1.82c.48,0,.87.42.87.92s-.39.91-.87.91h-5.76c-.48,0-.87-.41-.87-.91Z"/>
  <path class="cls-34" d="m54.4,609.56c-.5,0-.92-.39-.92-.87v-1.82h-22.29c-.49,0-.89-.39-.89-.85v-.42c0-.46.4-.85.89-.85h22.29v-1.82c0-.48.42-.87.92-.87s.91.39.91.87v5.76c0,.48-.41.87-.91.87Z"/>
  <path class="cls-32" d="m59.84,602.06c.5,0,.92.39.92.87v1.82s22.29,0,22.29,0c.49,0,.89.39.89.85v.42c0,.46-.4.85-.89.85h-22.29s0,1.82,0,1.82c0,.48-.42.87-.92.87-.5,0-.91-.39-.91-.87v-5.76c0-.48.41-.87.91-.87Z"/>
  <path class="cls-34" d="m160.87,694.9c0,.5-.39.92-.87.92h-1.82s0,22.29,0,22.29c0,.49-.39.89-.85.89h-.42c-.46,0-.85-.4-.85-.89v-22.29s-1.82,0-1.82,0c-.48,0-.87-.42-.87-.92,0-.5.39-.91.87-.91h5.76c.48,0,.87.41.87.91Z"/>
  <path class="cls-34" d="m52.95,634.08c-11.89,0-22.68-9.57-22.72-21.38l-2.41,2.65s-1.11-1.01-.54-1.85c.65-.95,3.93-4.08,3.93-4.08,0,0,3.32,2.66,4.21,3.8.63.81-.43,1.89-.43,1.89l-2.78-2.61c.03,8.93,7.32,18.79,20.74,19.5,1.57.08,1.62,2.09,0,2.08Z"/>
  <path class="cls-34" d="m54.4,724.56c-.5,0-.92-.39-.92-.87v-1.82h-22.29c-.49,0-.89-.39-.89-.85v-.42c0-.46.4-.85.89-.85h22.29v-1.82c0-.48.42-.87.92-.87s.91.39.91.87v5.76c0,.48-.41.87-.91.87Z"/>
  <path class="cls-32" d="m59.84,717.06c.5,0,.92.39.92.87v1.82s22.29,0,22.29,0c.49,0,.89.39.89.85v.42c0,.46-.4.85-.89.85h-22.29s0,1.82,0,1.82c0,.48-.42.87-.92.87-.5,0-.91-.39-.91-.87v-5.76c0-.48.41-.87.91-.87Z"/>
  <path class="cls-34" d="m52.95,749.08c-11.89,0-22.68-9.57-22.72-21.38l-2.41,2.65s-1.11-1.01-.54-1.85c.65-.95,3.93-4.08,3.93-4.08,0,0,3.32,2.66,4.21,3.8.63.81-.43,1.89-.43,1.89l-2.78-2.61c.03,8.93,7.32,18.79,20.74,19.5,1.57.08,1.62,2.09,0,2.08Z"/>
  <path class="cls-34" d="m224.88,616.44c.04-1.54,1.06-2.18,1.86-2.18,22.66,0,22.75-.55,22.87,19.65l2.74-2.45s1.1,1.04.5,1.87c-.82,1.11-3.87,3.59-4.16,3.84-.29-.25-3.16-2.73-3.98-3.84-.6-.83.5-1.87.5-1.87l2.55,2.45c-.81-17.85,1.36-17.46-20.81-17.46,0,14.23,2.17,21.69,19.14,21.69,1.42,0,1.47,2.06.05,2.06-19.11,0-21.65-10.35-21.26-23.76Z"/>
  <path class="cls-34" d="m128.01,610.7c21.23,0,21.27-.54,21.27,20.15l2.66-2.72s1.1,1.04.5,1.87c-.85,1.18-4.08,3.95-4.08,3.95,0,0-3.38-3.01-4.07-3.95-.6-.82.48-1.87.48-1.87l2.56,2.72c0-19.11.84-18.08-19.29-18.08-1.51,0-1.51-2.07-.03-2.07Z"/>
  <path class="cls-34" d="m128.01,714.83c21.23,0,21.27.54,21.27-20.15l2.66,2.72s1.1-1.04.5-1.87c-.85-1.18-4.08-3.95-4.08-3.95,0,0-3.38,3.01-4.07,3.95-.6.82.48,1.87.48,1.87l2.56-2.72c0,19.11.84,18.08-19.29,18.08-1.51,0-1.51,2.07-.03,2.07Z"/>
  <text class="cls-23" transform="translate(12.09 335.53)"><tspan class="cls-27" x="0" y="0">C</tspan><tspan x="8.4" y="0">ontinuous</tspan></text>
  <text class="cls-23" transform="translate(12.09 450.13)"><tspan class="cls-37" x="0" y="0">F</tspan><tspan x="8.27" y="0">ull-</tspan><tspan class="cls-28" x="30.47" y="0">R</tspan><tspan x="39.64" y="0">e</tspan><tspan class="cls-36" x="46.95" y="0">v</tspan><tspan x="54.23" y="0">ersal</tspan></text>
  <text class="cls-23" transform="translate(12.09 564.73)"><tspan x="0" y="0">Hand-</tspan><tspan class="cls-28" x="41.16" y="0">R</tspan><tspan x="50.34" y="0">e</tspan><tspan class="cls-36" x="57.65" y="0">v</tspan><tspan x="64.93" y="0">ersal</tspan></text>
  <text class="cls-23" transform="translate(12.09 679.33)"><tspan x="0" y="0">P</tspan><tspan class="cls-37" x="8.88" y="0">r</tspan><tspan x="15.24" y="0">op-</tspan><tspan class="cls-28" x="36.88" y="0">R</tspan><tspan x="46.05" y="0">e</tspan><tspan class="cls-36" x="53.37" y="0">v</tspan><tspan x="60.65" y="0">ersal</tspan></text>
  <g>
    <circle class="cls-24" cx="457.12" cy="405.81" r="2.5"/>
    <circle class="cls-24" cx="487.12" cy="375.81" r="2.5"/>
    <circle class="cls-24" cx="457.12" cy="345.81" r="2.5"/>
    <circle class="cls-24" cx="427.12" cy="375.81" r="2.5"/>
    <circle class="cls-24" cx="457.12" cy="375.81" r="1.12"/>
  </g>
  <g>
    <circle class="cls-24" cx="357.12" cy="405.81" r="2.5"/>
    <circle class="cls-24" cx="387.12" cy="375.81" r="2.5"/>
    <circle class="cls-24" cx="357.12" cy="345.81" r="2.5"/>
    <circle class="cls-24" cx="327.12" cy="375.81" r="2.5"/>
    <circle class="cls-24" cx="357.12" cy="375.81" r="1.12"/>
  </g>
  <g>
    <circle class="cls-24" cx="457.12" cy="520.81" r="2.5"/>
    <circle class="cls-24" cx="487.12" cy="490.81" r="2.5"/>
    <circle class="cls-24" cx="457.12" cy="460.81" r="2.5"/>
    <circle class="cls-24" cx="427.12" cy="490.81" r="2.5"/>
    <circle class="cls-24" cx="457.12" cy="490.81" r="1.12"/>
  </g>
  <g>
    <circle class="cls-24" cx="357.12" cy="520.81" r="2.5"/>
    <circle class="cls-24" cx="387.12" cy="490.81" r="2.5"/>
    <circle class="cls-24" cx="357.12" cy="460.81" r="2.5"/>
    <circle class="cls-24" cx="327.12" cy="490.81" r="2.5"/>
    <circle class="cls-24" cx="357.12" cy="490.81" r="1.12"/>
  </g>
  <g>
    <circle class="cls-24" cx="357.12" cy="635.81" r="2.5"/>
    <circle class="cls-24" cx="387.12" cy="605.81" r="2.5"/>
    <circle class="cls-24" cx="357.12" cy="575.81" r="2.5"/>
    <circle class="cls-24" cx="327.12" cy="605.81" r="2.5"/>
    <circle class="cls-24" cx="357.12" cy="605.81" r="1.12"/>
  </g>
  <g>
    <circle class="cls-24" cx="457.12" cy="635.81" r="2.5"/>
    <circle class="cls-24" cx="487.12" cy="605.81" r="2.5"/>
    <circle class="cls-24" cx="457.12" cy="575.81" r="2.5"/>
    <circle class="cls-24" cx="427.12" cy="605.81" r="2.5"/>
    <circle class="cls-24" cx="457.12" cy="605.81" r="1.12"/>
  </g>
  <g>
    <circle class="cls-24" cx="457.12" cy="750.81" r="2.5"/>
    <circle class="cls-24" cx="487.12" cy="720.81" r="2.5"/>
    <circle class="cls-24" cx="457.12" cy="690.81" r="2.5"/>
    <circle class="cls-24" cx="427.12" cy="720.81" r="2.5"/>
    <circle class="cls-24" cx="457.12" cy="720.81" r="1.12"/>
  </g>
  <g>
    <circle class="cls-24" cx="357.12" cy="750.81" r="2.5"/>
    <circle class="cls-24" cx="387.12" cy="720.81" r="2.5"/>
    <circle class="cls-24" cx="357.12" cy="690.81" r="2.5"/>
    <circle class="cls-24" cx="327.12" cy="720.81" r="2.5"/>
    <circle class="cls-24" cx="357.12" cy="720.81" r="1.12"/>
  </g>
  <g>
    <circle class="cls-24" cx="557.12" cy="635.81" r="2.5"/>
    <circle class="cls-24" cx="587.12" cy="605.81" r="2.5"/>
    <circle class="cls-24" cx="557.12" cy="575.81" r="2.5"/>
    <circle class="cls-24" cx="527.12" cy="605.81" r="2.5"/>
    <circle class="cls-24" cx="557.12" cy="605.81" r="1.12"/>
  </g>
  <g>
    <circle class="cls-24" cx="557.12" cy="345.81" r="2.5"/>
    <circle class="cls-24" cx="527.12" cy="375.81" r="2.5"/>
    <circle class="cls-24" cx="557.12" cy="405.81" r="2.5"/>
    <circle class="cls-24" cx="587.12" cy="375.81" r="2.5"/>
    <circle class="cls-24" cx="557.12" cy="375.81" r="1.12"/>
  </g>
  <g>
    <circle class="cls-24" cx="557.12" cy="460.81" r="2.5"/>
    <circle class="cls-24" cx="527.12" cy="490.81" r="2.5"/>
    <circle class="cls-24" cx="557.12" cy="520.81" r="2.5"/>
    <circle class="cls-24" cx="587.12" cy="490.81" r="2.5"/>
    <circle class="cls-24" cx="557.12" cy="490.81" r="1.12"/>
  </g>
  <circle class="cls-24" cx="557.12" cy="605.81" r="1.12"/>
  <path class="cls-34" d="m331.21,372.06c.5,0,.92.39.92.87v1.82h22.29c.49,0,.89.39.89.85v.42c0,.46-.4.85-.89.85h-22.29v1.82c0,.48-.42.87-.92.87s-.91-.39-.91-.87v-5.76c0-.48.41-.87.91-.87Z"/>
  <path class="cls-32" d="m359.84,372.06c.5,0,.92.39.92.87v1.82s22.29,0,22.29,0c.49,0,.89.39.89.85v.42c0,.46-.4.85-.89.85h-22.29s0,1.82,0,1.82c0,.48-.42.87-.92.87-.5,0-.91-.39-.91-.87v-5.76c0-.48.41-.87.91-.87Z"/>
  <path class="cls-34" d="m331.21,487.06c.5,0,.92.39.92.87v1.82h22.29c.49,0,.89.39.89.85v.42c0,.46-.4.85-.89.85h-22.29v1.82c0,.48-.42.87-.92.87s-.91-.39-.91-.87v-5.76c0-.48.41-.87.91-.87Z"/>
  <path class="cls-32" d="m359.84,487.06c.5,0,.92.39.92.87v1.82s22.29,0,22.29,0c.49,0,.89.39.89.85v.42c0,.46-.4.85-.89.85h-22.29s0,1.82,0,1.82c0,.48-.42.87-.92.87-.5,0-.91-.39-.91-.87v-5.76c0-.48.41-.87.91-.87Z"/>
  <path class="cls-34" d="m453.37,373.09c0-.5.39-.92.87-.92h1.82v-22.29c0-.49.39-.89.85-.89h.42c.46,0,.85.4.85.89v22.29h1.82c.48,0,.87.42.87.92s-.39.91-.87.91h-5.76c-.48,0-.87-.41-.87-.91Z"/>
  <path class="cls-32" d="m453.37,401.71c0-.5.39-.92.87-.92h1.82s0-22.29,0-22.29c0-.49.39-.89.85-.89h.42c.46,0,.85.4.85.89v22.29s1.82,0,1.82,0c.48,0,.87.42.87.92s-.39.91-.87.91h-5.76c-.48,0-.87-.41-.87-.91Z"/>
  <path class="cls-32" d="m560.87,378.53c0,.5-.39.92-.87.92h-1.82s0,22.29,0,22.29c0,.49-.39.89-.85.89h-.42c-.46,0-.85-.4-.85-.89v-22.29s-1.82,0-1.82,0c-.48,0-.87-.42-.87-.92s.39-.91.87-.91h5.76c.48,0,.87.41.87.91Z"/>
  <path class="cls-34" d="m553.37,373.09c0-.5.39-.92.87-.92h1.82v-22.29c0-.49.39-.89.85-.89h.42c.46,0,.85.4.85.89v22.29h1.82c.48,0,.87.42.87.92s-.39.91-.87.91h-5.76c-.48,0-.87-.41-.87-.91Z"/>
  <path class="cls-34" d="m553.37,718.09c0-.5.39-.92.87-.92h1.82v-22.29c0-.49.39-.89.85-.89h.42c.46,0,.85.4.85.89v22.29h1.82c.48,0,.87.42.87.92s-.39.91-.87.91h-5.76c-.48,0-.87-.41-.87-.91Z"/>
  <path class="cls-34" d="m331.21,602.06c.5,0,.92.39.92.87v1.82h22.29c.49,0,.89.39.89.85v.42c0,.46-.4.85-.89.85h-22.29v1.82c0,.48-.42.87-.92.87s-.91-.39-.91-.87v-5.76c0-.48.41-.87.91-.87Z"/>
  <path class="cls-32" d="m359.84,602.06c.5,0,.92.39.92.87v1.82s22.29,0,22.29,0c.49,0,.89.39.89.85v.42c0,.46-.4.85-.89.85h-22.29s0,1.82,0,1.82c0,.48-.42.87-.92.87-.5,0-.91-.39-.91-.87v-5.76c0-.48.41-.87.91-.87Z"/>
  <path class="cls-34" d="m460.87,694.9c0,.5-.39.92-.87.92h-1.82s0,22.29,0,22.29c0,.49-.39.89-.85.89h-.42c-.46,0-.85-.4-.85-.89v-22.29s-1.82,0-1.82,0c-.48,0-.87-.42-.87-.92,0-.5.39-.91.87-.91h5.76c.48,0,.87.41.87.91Z"/>
  <path class="cls-32" d="m453.37,746.71c0-.5.39-.92.87-.92h1.82s0-22.29,0-22.29c0-.49.39-.89.85-.89h.42c.46,0,.85.4.85.89v22.29s1.82,0,1.82,0c.48,0,.87.42.87.92s-.39.91-.87.91h-5.76c-.48,0-.87-.41-.87-.91Z"/>
  <path class="cls-32" d="m553.37,746.71c0-.5.39-.92.87-.92h1.82s0-22.29,0-22.29c0-.49.39-.89.85-.89h.42c.46,0,.85.4.85.89v22.29s1.82,0,1.82,0c.48,0,.87.42.87.92s-.39.91-.87.91h-5.76c-.48,0-.87-.41-.87-.91Z"/>
  <path class="cls-34" d="m331.21,717.06c.5,0,.92.39.92.87v1.82h22.29c.49,0,.89.39.89.85v.42c0,.46-.4.85-.89.85h-22.29v1.82c0,.48-.42.87-.92.87s-.91-.39-.91-.87v-5.76c0-.48.41-.87.91-.87Z"/>
  <path class="cls-32" d="m359.84,717.06c.5,0,.92.39.92.87v1.82s22.29,0,22.29,0c.49,0,.89.39.89.85v.42c0,.46-.4.85-.89.85h-22.29s0,1.82,0,1.82c0,.48-.42.87-.92.87-.5,0-.91-.39-.91-.87v-5.76c0-.48.41-.87.91-.87Z"/>
  <line class="cls-31" x1="306.39" y1="334.48" x2="306.39" y2="767.01"/>
  <line class="cls-20" x1="14.56" y1="431.18" x2="589.62" y2="431.18"/>
  <line class="cls-20" x1="14.56" y1="546.18" x2="589.62" y2="546.18"/>
  <line class="cls-20" x1="14.56" y1="661.18" x2="589.62" y2="661.18"/>
  <path class="cls-34" d="m528.54,608.6c22.47,0,23-.85,23,20.49,0,1.43-2.23,1.31-2.21-.01.27-20.07-.72-18.52-20.52-18.3,0,15.55,2.91,21.64,18.1,21.64l-2.44-2.49s1.04-1.1,1.87-.5c1.11.82,3.68,3.78,3.93,4.07-.25.29-2.82,3.25-3.93,4.07-.83.6-1.87-.5-1.87-.5l2.44-2.58c-20.75,0-20.33-14.09-20.33-23.7,0-1.45,1.16-2.18,1.97-2.18Z"/>
  <path class="cls-34" d="m527.76,502.59c16.77,0,15.27,5.17,15.27,20.09l-2.62-2.58s-1.09,1.05-.5,1.87c.79,1.08,4.05,3.91,4.05,3.91,0,0,3.26-2.83,4.05-3.91.59-.82-.5-1.87-.5-1.87l-2.62,2.58c0-14.71,2.13-21.41-15.22-22.03,19.53,0,18.81-.38,18.81,19.52,0,1.42,1.98,1.5,1.98.03,0-22.34.78-21.53-22.7-21.53-2.96,0-3.07,3.92,0,3.92Z"/>
  <path class="cls-34" d="m527.5,728.1c0,.94.7,1.88,1.65,1.88,24.17,0,20.94.3,20.94,18.14,0,1.5,2.22,1.53,2.22,0,0-19.3,2.26-20.09-21.55-20.09-.6,0-1.06-.31-1.06-.9,0-24.42,22.05-25.44,22.23-25.48l-2.48,2.59s1.05,1.09,1.87.5c1.08-.79,3.91-4.05,3.91-4.05,0,0-2.83-3.26-3.91-4.05-.82-.59-1.87.5-1.87.5l2.58,2.62s-24.53.43-24.53,28.34Z"/>
  <g>
    <circle class="cls-24" cx="557.12" cy="750.81" r="2.5"/>
    <circle class="cls-24" cx="587.12" cy="720.81" r="2.5"/>
    <circle class="cls-24" cx="557.12" cy="690.81" r="2.5"/>
    <circle class="cls-24" cx="527.12" cy="720.81" r="2.5"/>
    <circle class="cls-24" cx="557.12" cy="720.81" r="1.12"/>
  </g>
  <path class="cls-34" d="m258.37,493.53c0,.5-.39.92-.87.92h-1.82s0,22.29,0,22.29c0,.49-.39.89-.85.89h-.42c-.46,0-.85-.4-.85-.89v-22.29s-1.82,0-1.82,0c-.48,0-.87-.42-.87-.92s.39-.91.87-.91h5.76c.48,0,.87.41.87.91Z"/>
  <path class="cls-34" d="m585.1,198.29s-2.77,3.23-3.95,4.09c-.82.59-1.87-.5-1.87-.5l2.73-2.77c-10.1.42-15.8-.99-18.46-6.85v35.24c-.01,1.54-1.92,1.55-1.92,0v-49.5c0-1.33,2.1-1.28,2.1-.03,0,16.52,2.8,19.77,18.28,19.39l-2.73-2.66s1.05-1.08,1.87-.47c.94.68,3.95,4.06,3.95,4.06Z"/>
  <path class="cls-32" d="m564.58,405.09s-3.23-2.77-4.09-3.95c-.59-.82.5-1.87.5-1.87l2.77,2.73c-.42-10.1.99-15.8,6.85-18.46h-35.24c-1.54-.01-1.55-1.92,0-1.92h49.5c1.33,0,1.28,2.1.03,2.1-16.52,0-19.77,2.8-19.39,18.28l2.66-2.73s1.08,1.05.47,1.87c-.68.94-4.06,3.95-4.06,3.95Z"/>
</svg>