<?xml version="1.0" encoding="UTF-8"?>
<svg id="Layer_1" data-name="Layer 1" xmlns="http://www.w3.org/2000/svg" viewBox="0 0 792 612">
  <defs>
    <style>
      .cls-1 {
        font-family: MonotypeCorsiva, 'Monotype Corsiva';
        font-size: 40px;
      }

      .cls-1, .cls-2, .cls-3 {
        fill: #231f20;
      }

      .cls-4 {
        letter-spacing: 0em;
      }

      .cls-4, .cls-5 {
        fill: #00a14b;
      }

      .cls-6 {
        font-family: Cambria-BoldItalic, Cambria;
        font-size: 25px;
        font-style: italic;
        font-weight: 700;
      }

      .cls-7 {
        fill: #00aeef;
      }

      .cls-8 {
        fill: #2e3192;
      }

      .cls-2 {
        letter-spacing: -.03em;
      }

      .cls-9 {
        fill: #7f3f98;
      }

      .cls-10 {
        fill: #ed1c24;
      }

      .cls-11 {
        fill: none;
        stroke: #231f20;
        stroke-miterlimit: 10;
        stroke-width: .5px;
      }
    </style>
  </defs>
  <text class="cls-1" transform="translate(311.24 48.27)"><tspan x="0" y="0">Full-Reversal</tspan></text>
  <text class="cls-6" transform="translate(347.89 78.27)"><tspan class="cls-3" x="0" y="0">Type 3 → 1</tspan><tspan class="cls-4" x="-68.88" y="30">Cr</tspan><tspan class="cls-5" x="-44.17" y="30">oss</tspan><tspan class="cls-2" x="-8.55" y="30">-</tspan><tspan class="cls-9" x="-1.15" y="30">Shift</tspan><tspan class="cls-3" x="50.52" y="30">→</tspan><tspan class="cls-7" x="71.47" y="30">Dual</tspan><tspan class="cls-2" x="124.71" y="30">-</tspan><tspan class="cls-9" x="132.11" y="30">Shift</tspan><tspan class="cls-3" x="183.78" y="30"> </tspan></text>
  <g>
    <path class="cls-8" d="m655.76,286.49h-6.58s0,.01,0,.01c-14.47-.32-19.16,3.81-18.77,21.22,0,.47.4.8,1.01.8.7,0,1.07-.41,1.07-.83,0-16.64,3.82-19.44,17.07-19.52.26-.05-1.37.1-1.37.1-10.61,1.97-12.38,9.23-11.85,22.12l-2.77-2.72s-1.09,1.04-.5,1.86c.86,1.18,4.09,3.95,4.09,3.95,0,0,3.38-3.01,4.07-3.95.6-.82-.48-1.86-.48-1.86l-2.66,2.72c-.38-15.48,1-20.58,17.52-20.58,3.38,0,3.44-3.36.15-3.32Z"/>
    <path class="cls-10" d="m628.46,306.85s-3.23-2.77-4.09-3.95c-.59-.82.5-1.87.5-1.87l2.77,2.73c-.42-10.1.99-15.8,6.85-18.46h-35.25c-1.54-.01-1.55-1.92,0-1.92h49.51c1.33,0,1.28,2.1.03,2.1-16.52,0-19.77,2.8-19.39,18.28l2.66-2.73s1.08,1.05.47,1.87c-.68.94-4.06,3.95-4.06,3.95Z"/>
    <path class="cls-10" d="m359.05,307.24s-3.23-2.77-4.09-3.95c-.59-.82.5-1.87.5-1.87l2.77,2.73c-.42-10.1.99-15.8,6.85-18.46h-35.25c-1.54-.01-1.55-1.92,0-1.92h49.51c1.33,0,1.28,2.1.03,2.1-16.52,0-19.77,2.8-19.39,18.28l2.66-2.73s1.08,1.05.47,1.87c-.68.94-4.06,3.95-4.06,3.95Z"/>
    <path class="cls-10" d="m198.8,273.93s-2.77,3.23-3.95,4.09c-.82.59-1.87-.5-1.87-.5l2.73-2.77c-10.1.42-15.8-.99-18.46-6.85v35.25c-.01,1.54-1.92,1.55-1.92,0v-49.51c0-1.33,2.1-1.28,2.1-.03,0,16.52,2.8,19.77,18.28,19.39l-2.73-2.66s1.05-1.08,1.87-.47c.94.68,3.95,4.06,3.95,4.06Z"/>
    <path class="cls-10" d="m270.18,318.71c-1.15-.71-3.89-4.14-3.89-4.14,0,0,2.73-3.27,3.89-4.13.83-.6,1.91.5,1.91.5l-2.68,2.68c8.19.1,19.25-2.8,19.36-19.26,0-.18-.15-.34-.33-.34h-47.97c-1.54,0-1.55-1.91,0-1.91,0,0,48.95-.01,49.51-.01.56,0,.97.64.97,1.68,0,11.99-6.82,22.3-21.54,21.82l2.68,2.6s-1.04,1.03-1.91.49Z"/>
    <path class="cls-10" d="m379.86,509.46s-2.77-3.23-3.95-4.09c-.82-.59-1.87.5-1.87.5l2.73,2.77c-10.1-.42-15.8.99-18.46,6.85v-35.25c-.01-1.54-1.92-1.55-1.92,0v49.51c0,.22.07.4.19.52.03.05.07.09.11.11.13.11.3.18.51.21.11.02.22.02.33,0,.63-.04.96-.42.96-.81-.3-16.52,2.8-19.77,18.28-19.39l-2.73,2.66s1.05,1.08,1.87.47c.94-.68,3.95-4.06,3.95-4.06Z"/>
    <path class="cls-10" d="m359.85,417.86s-3.23-2.77-4.09-3.95c-.59-.82.5-1.87.5-1.87l2.77,2.73c-.42-10.1.99-15.8,6.85-18.46h-35.25c-1.54-.01-1.55-1.92,0-1.92h49.51c.22,0,.4.07.52.19.05.03.09.07.11.11.11.13.18.3.21.51.02.11.02.22,0,.33-.04.63-.42.96-.81.96-16.52-.3-19.77,2.8-19.39,18.28l2.66-2.73s1.08,1.05.47,1.87c-.68.94-4.06,3.95-4.06,3.95Z"/>
    <path class="cls-10" d="m111.49,161.66c-.71,1.15-4.14,3.89-4.14,3.89,0,0-3.27-2.73-4.13-3.89-.6-.83.5-1.91.5-1.91l2.68,2.68c.1-8.19-2.8-19.25-19.26-19.36-.18,0-.34.15-.34.33v47.97c0,1.54-1.91,1.55-1.91,0,0,0-.01-48.95-.01-49.51s.64-.97,1.68-.97c11.99,0,22.3,6.82,21.82,21.54l2.6-2.68s1.03,1.04.49,1.91Z"/>
    <path class="cls-10" d="m198.2,397.35s-2.77-3.23-3.95-4.09c-.82-.59-1.87.5-1.87.5l2.73,2.77c-10.1-.42-15.8.99-18.46,6.85v-35.25c-.01-1.54-1.92-1.55-1.92,0v49.51c0,.22.07.4.19.52.03.05.07.09.11.11.13.11.3.18.51.21.11.02.22.02.33,0,.63-.04.96-.42.96-.81-.3-16.52,2.8-19.77,18.28-19.39l-2.73,2.66s1.05,1.08,1.87.47c.94-.68,3.95-4.06,3.95-4.06Z"/>
    <path class="cls-10" d="m113.11,398.24c-.71-1.15-4.14-3.89-4.14-3.89,0,0-3.27,2.73-4.13,3.89-.6.83.5,1.91.5,1.91l2.68-2.68c.1,8.19-2.8,19.25-19.26,19.36-.18,0-.34-.15-.34-.33v-47.97c0-1.54-1.91-1.55-1.91,0,0,0-.01,48.95-.01,49.51,0,.56.64.97,1.68.97,11.99,0,22.3-6.82,21.82-21.54l2.6,2.68s1.03-1.04.49-1.91Z"/>
    <path class="cls-10" d="m291.58,508.82c-.71-1.15-4.14-3.89-4.14-3.89,0,0-3.27,2.73-4.13,3.89-.6.83.5,1.91.5,1.91l2.68-2.68c.1,8.19-2.8,19.25-19.26,19.36-.18,0-.34-.15-.34-.33v-47.97c0-1.54-1.91-1.55-1.91,0,0,0-.01,48.95-.01,49.51s.64.97,1.68.97c11.99,0,22.3-6.82,21.82-21.54l2.6,2.68s1.03-1.04.49-1.91Z"/>
    <path class="cls-10" d="m360.18,200.45s-3.23-2.77-4.09-3.95c-.59-.82.5-1.87.5-1.87l2.77,2.73c-.42-10.1.99-15.8,6.85-18.46h-35.25c-1.54-.01-1.55-1.92,0-1.92h49.51c.22,0,.4.07.52.19.05.03.09.07.11.11.11.13.18.3.21.51.02.11.02.22,0,.33-.04.63-.42.96-.81.96-16.52-.3-19.77,2.8-19.39,18.28l2.66-2.73s1.08,1.05.47,1.87c-.68.94-4.06,3.95-4.06,3.95Z"/>
    <path class="cls-10" d="m270.99,201.94c-1.15-.71-3.89-4.14-3.89-4.14,0,0,2.73-3.27,3.89-4.13.83-.6,1.91.5,1.91.5l-2.68,2.68c8.19.1,19.25-2.8,19.36-19.26,0-.18-.15-.34-.33-.34h-47.97c-1.54,0-1.55-1.91,0-1.91,0,0,48.95-.01,49.51-.01s.97.64.97,1.68c0,11.99-6.82,22.3-21.54,21.82l2.68,2.6s-1.04,1.03-1.91.49Z"/>
    <path class="cls-10" d="m110.53,275.05c-.71,1.15-4.14,3.89-4.14,3.89,0,0-3.27-2.73-4.13-3.89-.6-.83.5-1.91.5-1.91l2.68,2.68c.1-8.19-2.8-19.25-19.26-19.36-.18,0-.34.15-.34.33v47.97c0,1.54-1.91,1.55-1.91,0,0,0-.01-48.95-.01-49.51,0-.56.64-.97,1.68-.97,11.99,0,22.3,6.82,21.82,21.54l2.6-2.68s1.03,1.04.49,1.91Z"/>
    <path class="cls-10" d="m179.18,474.38s-3.23,2.77-4.09,3.95c-.59.82.5,1.87.5,1.87l2.77-2.73c-.42,10.1.99,15.8,6.85,18.46h-35.25c-1.54.01-1.55,1.92,0,1.92h49.51c.22,0,.4-.07.52-.19.05-.03.09-.07.11-.11.11-.13.18-.3.21-.51.02-.11.02-.22,0-.33-.04-.63-.42-.96-.81-.96-16.52.3-19.77-2.8-19.39-18.28l2.66,2.73s1.08-1.05.47-1.87c-.68-.94-4.06-3.95-4.06-3.95Z"/>
    <path class="cls-10" d="m266.78,421.86c-1.15-.71-3.89-4.14-3.89-4.14,0,0,2.73-3.27,3.89-4.13.83-.6,1.91.5,1.91.5l-2.68,2.68c8.19.1,19.25-2.8,19.36-19.26,0-.18-.15-.34-.33-.34h-47.97c-1.54,0-1.55-1.91,0-1.91,0,0,48.95-.01,49.51-.01.56,0,.97.64.97,1.68,0,11.99-6.82,22.3-21.54,21.82l2.68,2.6s-1.04,1.03-1.91.49Z"/>
    <path class="cls-10" d="m89.1,471.27c-1.15.71-3.89,4.14-3.89,4.14,0,0,2.73,3.27,3.89,4.13.83.6,1.91-.5,1.91-.5l-2.68-2.68c8.19-.1,19.25,2.8,19.36,19.26,0,.18-.15.34-.33.34h-47.97c-1.54,0-1.55,1.91,0,1.91,0,0,48.95.01,49.51.01s.97-.64.97-1.68c0-11.99-6.82-22.3-21.54-21.82l2.68-2.6s-1.04-1.03-1.91-.49Z"/>
    <path class="cls-10" d="m721.13,318.43c-1.15-.71-3.89-4.14-3.89-4.14,0,0,2.73-3.27,3.89-4.13.83-.6,1.91.5,1.91.5l-2.68,2.68c8.19.1,19.25-2.8,19.36-19.26,0-.18-.15-.34-.33-.34h-47.97c-1.54,0-1.55-1.91,0-1.91,0,0,48.95-.01,49.51-.01s.97.64.97,1.68c0,11.99-6.82,22.3-21.54,21.82l2.68,2.6s-1.04,1.03-1.91.49Z"/>
    <path class="cls-10" d="m560.84,164.1c-.71,1.15-4.14,3.89-4.14,3.89,0,0-3.27-2.73-4.13-3.89-.6-.83.5-1.91.5-1.91l2.68,2.68c.1-8.19-2.8-19.25-19.26-19.36-.18,0-.34.15-.34.33v47.97c0,1.54-1.91,1.55-1.91,0,0,0-.01-48.95-.01-49.51s.64-.97,1.68-.97c11.99,0,22.3,6.82,21.82,21.54l2.6-2.68s1.03,1.04.49,1.91Z"/>
    <path class="cls-10" d="m563.11,398.24c-.71-1.15-4.14-3.89-4.14-3.89,0,0-3.27,2.73-4.13,3.89-.6.83.5,1.91.5,1.91l2.68-2.68c.1,8.19-2.8,19.25-19.26,19.36-.18,0-.34-.15-.34-.33v-47.97c0-1.54-1.91-1.55-1.91,0,0,0-.01,48.95-.01,49.51,0,.56.64.97,1.68.97,11.99,0,22.3-6.82,21.82-21.54l2.6,2.68s1.03-1.04.49-1.91Z"/>
    <path class="cls-10" d="m741.63,509.06c-.71-1.15-4.14-3.89-4.14-3.89,0,0-3.27,2.73-4.13,3.89-.6.83.5,1.91.5,1.91l2.68-2.68c.1,8.19-2.8,19.25-19.26,19.36-.18,0-.34-.15-.34-.33v-47.97c0-1.54-1.91-1.55-1.91,0,0,0-.01,48.95-.01,49.51s.64.97,1.68.97c11.99,0,22.3-6.82,21.82-21.54l2.6,2.68s1.03-1.04.49-1.91Z"/>
    <path class="cls-10" d="m719.09,200.78c-1.15-.71-3.89-4.14-3.89-4.14,0,0,2.73-3.27,3.89-4.13.83-.6,1.91.5,1.91.5l-2.68,2.68c8.19.1,19.25-2.8,19.36-19.26,0-.18-.15-.34-.33-.34h-47.97c-1.54,0-1.55-1.91,0-1.91,0,0,48.95-.01,49.51-.01s.97.64.97,1.68c0,11.99-6.82,22.3-21.54,21.82l2.68,2.6s-1.04,1.03-1.91.49Z"/>
    <path class="cls-10" d="m470.9,273.6c-.71,1.15-4.14,3.89-4.14,3.89,0,0-3.27-2.73-4.13-3.89-.6-.83.5-1.91.5-1.91l2.68,2.68c.1-8.19-2.8-19.25-19.26-19.36-.18,0-.34.15-.34.33v47.97c0,1.54-1.91,1.55-1.91,0,0,0-.01-48.95-.01-49.51,0-.56.64-.97,1.68-.97,11.99,0,22.3,6.82,21.82,21.54l2.6-2.68s1.03,1.04.49,1.91Z"/>
    <path class="cls-10" d="m716.78,421.86c-1.15-.71-3.89-4.14-3.89-4.14,0,0,2.73-3.27,3.89-4.13.83-.6,1.91.5,1.91.5l-2.68,2.68c8.19.1,19.25-2.8,19.36-19.26,0-.18-.15-.34-.33-.34h-47.97c-1.54,0-1.55-1.91,0-1.91,0,0,48.95-.01,49.51-.01.56,0,.97.64.97,1.68,0,11.99-6.82,22.3-21.54,21.82l2.68,2.6s-1.04,1.03-1.91.49Z"/>
    <path class="cls-10" d="m538.54,471.13c-1.15.71-3.89,4.14-3.89,4.14,0,0,2.73,3.27,3.89,4.13.83.6,1.91-.5,1.91-.5l-2.68-2.68c8.19-.1,19.25,2.8,19.36,19.26,0,.18-.15.34-.33.34h-47.97c-1.54,0-1.55,1.91,0,1.91,0,0,48.95.01,49.51.01.56,0,.97-.64.97-1.68,0-11.99-6.82-22.3-21.54-21.82l2.68-2.6s-1.04-1.03-1.91-.49Z"/>
    <path class="cls-10" d="m197.6,163.25s-2.77,3.23-3.95,4.09c-.82.59-1.87-.5-1.87-.5l2.73-2.77c-10.1.42-15.8-.99-18.46-6.85v35.25c-.01,1.54-1.92,1.55-1.92,0v-49.51c0-.22.07-.4.19-.52.03-.05.07-.09.11-.11.13-.11.3-.18.51-.21.11-.02.22-.02.33,0,.63.04.96.42.96.81-.3,16.52,2.8,19.77,18.28,19.39l-2.73-2.66s1.05-1.08,1.87-.47c.94.68,3.95,4.06,3.95,4.06Z"/>
    <path class="cls-8" d="m527.92,198.81v-6.58s-.01,0-.01,0c.32-14.47-3.81-19.16-21.22-18.77-.47,0-.8.4-.8,1.01,0,.7.41,1.07.83,1.07,16.64,0,19.44,3.82,19.52,17.07.05.26-.1-1.37-.1-1.37-1.97-10.61-9.23-12.38-22.12-11.85l2.72-2.77s-1.04-1.09-1.86-.5c-1.18.86-3.95,4.09-3.95,4.09,0,0,3.01,3.38,3.95,4.07.82.6,1.86-.48,1.86-.48l-2.72-2.66c15.48-.38,20.58,1,20.58,17.52,0,3.38,3.36,3.44,3.32.15Z"/>
    <path class="cls-8" d="m680.15,178.35h6.58s0,.01,0,.01c14.47-.32,19.16,3.81,18.77,21.22,0,.47-.4.8-1.01.8-.7,0-1.07-.41-1.07-.83,0-16.64-3.82-19.44-17.07-19.52-.26-.05,1.37.1,1.37.1,10.61,1.97,12.38,9.23,11.85,22.12l2.77-2.72s1.09,1.04.5,1.86c-.86,1.18-4.09,3.95-4.09,3.95,0,0-3.38-3.01-4.07-3.95-.6-.82.48-1.86.48-1.86l2.66,2.72c.38-15.48-1-20.58-17.52-20.58-3.38,0-3.44-3.36-.15-3.32Z"/>
    <path class="cls-8" d="m436.89,252.72v6.58s-.01,0-.01,0c.32,14.47-3.81,19.16-21.22,18.77-.47,0-.8-.4-.8-1.01,0-.7.41-1.07.83-1.07,16.64,0,19.44-3.82,19.52-17.07.05-.26-.1,1.37-.1,1.37-1.97,10.61-9.23,12.38-22.12,11.85l2.72,2.77s-1.04,1.09-1.86.5c-1.18-.86-3.95-4.09-3.95-4.09,0,0,3.01-3.38,3.95-4.07.82-.6,1.86.48,1.86.48l-2.72,2.66c15.48.38,20.58-1,20.58-17.52,0-3.38,3.36-3.44,3.32-.15Z"/>
    <path class="cls-8" d="m255.06,199.29s-2.95,3.4-3.93,4.07c-.84.58-1.91-.51-1.91-.51l2.47-2.57c-7.25,0-21.19-5.72-20.39-22.44.14-3,1.63-3.46,2.43-3.46s2.12.55,2.21,3.02c.3,8.74,8.73,15.29,17.72,15.29.4-.01,1.47.09,1.39,1.23-.09,1.19-1.59,1-1.59,1-10.59,0-19.73-8.11-19.83-18.05-1.82,14.27,10.29,21.32,18.05,21.32l-2.45-2.51s1.05-1.09,1.87-.5c1.18.86,3.97,4.12,3.97,4.12Z"/>
    <path class="cls-8" d="m52.72,174.57s-3.4,2.95-4.07,3.93c-.58.84.51,1.91.51,1.91l2.57-2.47c0,7.25,5.72,21.19,22.44,20.39,3-.14,3.46-1.63,3.46-2.43,0-.79-.55-2.12-3.02-2.21-8.74-.3-15.29-8.73-15.29-17.72.01-.4-.09-1.47-1.23-1.39-1.19.09-1,1.59-1,1.59,0,10.59,8.11,19.73,18.05,19.83-14.27,1.82-21.32-10.29-21.32-18.05l2.51,2.45s1.09-1.05.5-1.87c-.86-1.18-4.12-3.97-4.12-3.97Z"/>
    <path class="cls-8" d="m54.6,277.62s-3.4-2.95-4.07-3.93c-.58-.84.51-1.91.51-1.91l2.57,2.47c0-7.25,5.72-21.19,22.44-20.39,3,.14,3.46,1.63,3.46,2.43s-.55,2.12-3.02,2.21c-8.74.3-15.29,8.73-15.29,17.72.01.4-.09,1.47-1.23,1.39-1.19-.09-1-1.59-1-1.59,0-10.59,8.11-19.73,18.05-19.83-14.27-1.82-21.32,10.29-21.32,18.05l2.51-2.45s1.09,1.05.5,1.87c-.86,1.18-4.12,3.97-4.12,3.97Z"/>
    <path class="cls-8" d="m502.61,386.93h6.58s0-.01,0-.01c14.47.32,19.16-3.81,18.77-21.22,0-.47-.4-.8-1.01-.8-.7,0-1.07.41-1.07.83,0,16.64-3.82,19.44-17.07,19.52-.26.05,1.37-.1,1.37-.1,10.61-1.97,12.38-9.23,11.85-22.12l2.77,2.72s1.09-1.04.5-1.86c-.86-1.18-4.09-3.95-4.09-3.95,0,0-3.38,3.01-4.07,3.95-.6.82.48,1.86.48,1.86l2.66-2.72c.38,15.48-1,20.58-17.52,20.58-3.38,0-3.44,3.36-.15,3.32Z"/>
    <path class="cls-8" d="m681.56,506.4h6.58s0,.01,0,.01c14.47-.32,19.16,3.81,18.77,21.22,0,.47-.4.8-1.01.8-.7,0-1.07-.41-1.07-.83,0-16.64-3.82-19.44-17.07-19.52-.26-.05,1.37.1,1.37.1,10.61,1.97,12.38,9.23,11.85,22.12l2.77-2.72s1.09,1.04.5,1.86c-.86,1.18-4.09,3.95-4.09,3.95,0,0-3.38-3.01-4.07-3.95-.6-.82.48-1.86.48-1.86l2.66,2.72c.38-15.48-1-20.58-17.52-20.58-3.38,0-3.44-3.36-.15-3.32Z"/>
    <path class="cls-8" d="m543.72,469.78v6.58s.01,0,.01,0c-.32,14.47,3.81,19.16,21.22,18.77.47,0,.8-.4.8-1.01,0-.7-.41-1.07-.83-1.07-16.64,0-19.44-3.82-19.52-17.07-.05-.26.1,1.37.1,1.37,1.97,10.61,9.23,12.38,22.12,11.85l-2.72,2.77s1.04,1.09,1.86.5c1.18-.86,3.95-4.09,3.95-4.09,0,0-3.01-3.38-3.95-4.07-.82-.6-1.86.48-1.86.48l2.72,2.66c-15.48.38-20.58-1-20.58-17.52,0-3.38-3.36-3.44-3.32-.15Z"/>
    <path class="cls-8" d="m78.84,364.35s-2.95-3.4-3.93-4.07c-.84-.58-1.91.51-1.91.51l2.47,2.57c-7.25,0-21.19,5.72-20.39,22.44.14,3,1.63,3.46,2.43,3.46s2.12-.55,2.21-3.02c.3-8.74,8.73-15.29,17.72-15.29.4.01,1.47-.09,1.39-1.23-.09-1.19-1.59-1-1.59-1-10.59,0-19.73,8.11-19.83,18.05-1.82-14.27,10.29-21.32,18.05-21.32l-2.45,2.51s1.05,1.09,1.87.5c1.18-.86,3.97-4.12,3.97-4.12Z"/>
    <path class="cls-8" d="m257.55,528.32s-2.95,3.4-3.93,4.07c-.84.58-1.91-.51-1.91-.51l2.47-2.57c-7.25,0-21.19-5.72-20.39-22.44.14-3,1.63-3.46,2.43-3.46s2.12.55,2.21,3.02c.3,8.74,8.73,15.29,17.72,15.29.4-.01,1.47.09,1.39,1.23-.09,1.19-1.59,1-1.59,1-10.59,0-19.73-8.11-19.83-18.05-1.82,14.27,10.29,21.32,18.05,21.32l-2.45-2.51s1.05-1.09,1.87-.5c1.18.86,3.97,4.12,3.97,4.12Z"/>
    <path class="cls-10" d="m558.9,272.35s-2.77,3.23-3.95,4.09c-.82.59-1.87-.5-1.87-.5l2.73-2.77c-10.1.42-15.8-.99-18.46-6.85v35.25c-.01,1.54-1.92,1.55-1.92,0v-49.51c0-1.33,2.1-1.28,2.1-.03,0,16.52,2.8,19.77,18.28,19.39l-2.73-2.66s1.05-1.08,1.87-.47c.94.68,3.95,4.06,3.95,4.06Z"/>
    <path class="cls-10" d="m647.55,508.95s-2.77-3.23-3.95-4.09c-.82-.59-1.87.5-1.87.5l2.73,2.77c-10.1-.42-15.8.99-18.46,6.85v-35.25c-.01-1.54-1.92-1.55-1.92,0v49.51c0,.22.07.4.19.52.03.05.07.09.11.11.13.11.3.18.51.21.11.02.22.02.33,0,.63-.04.96-.42.96-.81-.3-16.52,2.8-19.77,18.28-19.39l-2.73,2.66s1.05,1.08,1.87.47c.94-.68,3.95-4.06,3.95-4.06Z"/>
    <path class="cls-10" d="m627.86,418.08s-3.23-2.77-4.09-3.95c-.59-.82.5-1.87.5-1.87l2.77,2.73c-.42-10.1.99-15.8,6.85-18.46h-35.25c-1.54-.01-1.55-1.92,0-1.92h49.51c.22,0,.4.07.52.19.05.03.09.07.11.11.11.13.18.3.21.51.02.11.02.22,0,.33-.04.63-.42.96-.81.96-16.52-.3-19.77,2.8-19.39,18.28l2.66-2.73s1.08,1.05.47,1.87c-.68.94-4.06,3.95-4.06,3.95Z"/>
    <path class="cls-10" d="m468.58,398.27s-2.77-3.23-3.95-4.09c-.82-.59-1.87.5-1.87.5l2.73,2.77c-10.1-.42-15.8.99-18.46,6.85v-35.25c-.01-1.54-1.92-1.55-1.92,0v49.51c0,.22.07.4.19.52.03.05.07.09.11.11.13.11.3.18.51.21.11.02.22.02.33,0,.63-.04.96-.42.96-.81-.3-16.52,2.8-19.77,18.28-19.39l-2.73,2.66s1.05,1.08,1.87.47c.94-.68,3.95-4.06,3.95-4.06Z"/>
    <path class="cls-10" d="m628.76,197.9s-3.23-2.77-4.09-3.95c-.59-.82.5-1.87.5-1.87l2.77,2.73c-.42-10.1.99-15.8,6.85-18.46h-35.25c-1.54-.01-1.55-1.92,0-1.92h49.51c.22,0,.4.07.52.19.05.03.09.07.11.11.11.13.18.3.21.51.02.11.02.22,0,.33-.04.63-.42.96-.81.96-16.52-.3-19.77,2.8-19.39,18.28l2.66-2.73s1.08,1.05.47,1.87c-.68.94-4.06,3.95-4.06,3.95Z"/>
    <path class="cls-10" d="m449.49,473.22s-3.23,2.77-4.09,3.95c-.59.82.5,1.87.5,1.87l2.77-2.73c-.42,10.1.99,15.8,6.85,18.46h-35.25c-1.54.01-1.55,1.92,0,1.92h49.51c.22,0,.4-.07.52-.19.05-.03.09-.07.11-.11.11-.13.18-.3.21-.51.02-.11.02-.22,0-.33-.04-.63-.42-.96-.81-.96-16.52.3-19.77-2.8-19.39-18.28l2.66,2.73s1.08-1.05.47-1.87c-.68-.94-4.06-3.95-4.06-3.95Z"/>
    <path class="cls-10" d="m467.6,163.25s-2.77,3.23-3.95,4.09c-.82.59-1.87-.5-1.87-.5l2.73-2.77c-10.1.42-15.8-.99-18.46-6.85v35.25c-.01,1.54-1.92,1.55-1.92,0v-49.51c0-.22.07-.4.19-.52.03-.05.07-.09.11-.11.13-.11.3-.18.51-.21.11-.02.22-.02.33,0,.63.04.96.42.96.81-.3,16.52,2.8,19.77,18.28,19.39l-2.73-2.66s1.05-1.08,1.87-.47c.94.68,3.95,4.06,3.95,4.06Z"/>
    <path class="cls-8" d="m437.92,198.81v-6.58s-.01,0-.01,0c.32-14.47-3.81-19.16-21.22-18.77-.47,0-.8.4-.8,1.01,0,.7.41,1.07.83,1.07,16.64,0,19.44,3.82,19.52,17.07.05.26-.1-1.37-.1-1.37-1.97-10.61-9.23-12.38-22.12-11.85l2.72-2.77s-1.04-1.09-1.86-.5c-1.18.86-3.95,4.09-3.95,4.09,0,0,3.01,3.38,3.95,4.07.82.6,1.86-.48,1.86-.48l-2.72-2.66c15.48-.38,20.58,1,20.58,17.52,0,3.38,3.36,3.44,3.32.15Z"/>
    <path class="cls-8" d="m590.15,176.56h6.58s0,.01,0,.01c14.47-.32,19.16,3.81,18.77,21.22,0,.47-.4.8-1.01.8-.7,0-1.07-.41-1.07-.83,0-16.64-3.82-19.44-17.07-19.52-.26-.05,1.37.1,1.37.1,10.61,1.97,12.38,9.23,11.85,22.12l2.77-2.72s1.09,1.04.5,1.86c-.86,1.18-4.09,3.95-4.09,3.95,0,0-3.38-3.01-4.07-3.95-.6-.82.48-1.86.48-1.86l2.66,2.72c.38-15.48-1-20.58-17.52-20.58-3.38,0-3.44-3.36-.15-3.32Z"/>
    <path class="cls-8" d="m527.5,252.21v6.58s-.01,0-.01,0c.32,14.47-3.81,19.16-21.22,18.77-.47,0-.8-.4-.8-1.01,0-.7.41-1.07.83-1.07,16.64,0,19.44-3.82,19.52-17.07.05-.26-.1,1.37-.1,1.37-1.97,10.61-9.23,12.38-22.12,11.85l2.72,2.77s-1.04,1.09-1.86.5c-1.18-.86-3.95-4.09-3.95-4.09,0,0,3.01-3.38,3.95-4.07.82-.6,1.86.48,1.86.48l-2.72,2.66c15.48.38,20.58-1,20.58-17.52,0-3.38,3.36-3.44,3.32-.15Z"/>
    <path class="cls-8" d="m345.06,199.29s-2.95,3.4-3.93,4.07c-.84.58-1.91-.51-1.91-.51l2.47-2.57c-7.25,0-21.19-5.72-20.39-22.44.14-3,1.63-3.46,2.43-3.46s2.12.55,2.21,3.02c.3,8.74,8.73,15.29,17.72,15.29.4-.01,1.47.09,1.39,1.23-.09,1.19-1.59,1-1.59,1-10.59,0-19.73-8.11-19.83-18.05-1.82,14.27,10.29,21.32,18.05,21.32l-2.45-2.51s1.05-1.09,1.87-.5c1.18.86,3.97,4.12,3.97,4.12Z"/>
    <path class="cls-8" d="m142.71,174.55s-3.4,2.95-4.07,3.93c-.58.84.51,1.91.51,1.91l2.57-2.47c0,7.25,5.72,21.19,22.44,20.39,3-.14,3.46-1.63,3.46-2.43,0-.79-.55-2.12-3.02-2.21-8.74-.3-15.29-8.73-15.29-17.72.01-.4-.09-1.47-1.23-1.39-1.19.09-1,1.59-1,1.59,0,10.59,8.11,19.73,18.05,19.83-14.27,1.82-21.32-10.29-21.32-18.05l2.51,2.45s1.09-1.05.5-1.87c-.86-1.18-4.12-3.97-4.12-3.97Z"/>
    <path class="cls-8" d="m143.91,277.6s-3.4-2.95-4.07-3.93c-.58-.84.51-1.91.51-1.91l2.57,2.47c0-7.25,5.72-21.19,22.44-20.39,3,.14,3.46,1.63,3.46,2.43s-.55,2.12-3.02,2.21c-8.74.3-15.29,8.73-15.29,17.72.01.4-.09,1.47-1.23,1.39-1.19-.09-1-1.59-1-1.59,0-10.59,8.11-19.73,18.05-19.83-14.27-1.82-21.32,10.29-21.32,18.05l2.51-2.45s1.09,1.05.5,1.87c-.86,1.18-4.12,3.97-4.12,3.97Z"/>
    <path class="cls-8" d="m740.23,284.83h-6.58s0,.01,0,.01c-14.47-.32-19.16,3.81-18.77,21.22,0,.47.4.8,1.01.8.7,0,1.07-.41,1.07-.83,0-16.64,3.82-19.44,17.07-19.52.26-.05-1.37.1-1.37.1-10.61,1.97-12.38,9.23-11.85,22.12l-2.77-2.72s-1.09,1.04-.5,1.86c.86,1.18,4.09,3.95,4.09,3.95,0,0,3.38-3.01,4.07-3.95.6-.82-.48-1.86-.48-1.86l-2.66,2.72c-.38-15.48,1-20.58,17.52-20.58,3.38,0,3.44-3.36.15-3.32Z"/>
    <path class="cls-8" d="m265.13,307.04s2.95,3.4,3.93,4.07c.84.58,1.91-.51,1.91-.51l-2.47-2.57c7.25,0,21.19-5.72,20.39-22.44-.14-3-1.63-3.46-2.43-3.46-.79,0-2.12.55-2.21,3.02-.3,8.74-8.73,15.29-17.72,15.29-.4-.01-1.47.09-1.39,1.23.09,1.19,1.59,1,1.59,1,10.59,0,19.73-8.11,19.83-18.05,1.82,14.27-10.29,21.32-18.05,21.32l2.45-2.51s-1.05-1.09-1.87-.5c-1.18.86-3.97,4.12-3.97,4.12Z"/>
    <path class="cls-8" d="m359.18,313.65s2.95,3.4,3.93,4.07c.84.58,1.91-.51,1.91-.51l-2.47-2.57c7.25,0,21.19-5.72,20.39-22.44-.14-3-1.63-3.46-2.43-3.46s-2.12.55-2.21,3.02c-.3,8.74-8.73,15.29-17.72,15.29-.4-.01-1.47.09-1.39,1.23.09,1.19,1.59,1,1.59,1,10.59,0,19.73-8.11,19.83-18.05,1.82,14.27-10.29,21.32-18.05,21.32l2.45-2.51s-1.05-1.09-1.87-.5c-1.18.86-3.97,4.12-3.97,4.12Z"/>
    <path class="cls-8" d="m412.61,386.93h6.58s0-.01,0-.01c14.47.32,19.16-3.81,18.77-21.22,0-.47-.4-.8-1.01-.8-.7,0-1.07.41-1.07.83,0,16.64-3.82,19.44-17.07,19.52-.26.05,1.37-.1,1.37-.1,10.61-1.97,12.38-9.23,11.85-22.12l2.77,2.72s1.09-1.04.5-1.86c-.86-1.18-4.09-3.95-4.09-3.95,0,0-3.38,3.01-4.07,3.95-.6.82.48,1.86.48,1.86l2.66-2.72c.38,15.48-1,20.58-17.52,20.58-3.38,0-3.44,3.36-.15,3.32Z"/>
    <path class="cls-8" d="m706.93,424.04v-6.58s-.01,0-.01,0c.32-14.47-3.81-19.16-21.22-18.77-.47,0-.8.4-.8,1.01,0,.7.41,1.07.83,1.07,16.64,0,19.44,3.82,19.52,17.07.05.26-.1-1.37-.1-1.37-1.97-10.61-9.23-12.38-22.12-11.85l2.72-2.77s-1.04-1.09-1.86-.5c-1.18.86-3.95,4.09-3.95,4.09,0,0,3.01,3.38,3.95,4.07.82.6,1.86-.48,1.86-.48l-2.72-2.66c15.48-.38,20.58,1,20.58,17.52,0,3.38,3.36,3.44,3.32.15Z"/>
    <path class="cls-8" d="m616.93,424.04v-6.58s-.01,0-.01,0c.32-14.47-3.81-19.16-21.22-18.77-.47,0-.8.4-.8,1.01,0,.7.41,1.07.83,1.07,16.64,0,19.44,3.82,19.52,17.07.05.26-.1-1.37-.1-1.37-1.97-10.61-9.23-12.38-22.12-11.85l2.72-2.77s-1.04-1.09-1.86-.5c-1.18.86-3.95,4.09-3.95,4.09,0,0,3.01,3.38,3.95,4.07.82.6,1.86-.48,1.86-.48l-2.72-2.66c15.48-.38,20.58,1,20.58,17.52,0,3.38,3.36,3.44,3.32.15Z"/>
    <path class="cls-8" d="m592.35,506.62h6.58c14.47-.31,19.16,3.82,18.77,21.23,0,.47-.4.8-1.01.8-.7,0-1.07-.41-1.07-.83,0-16.64-3.82-19.44-17.07-19.52-.26-.05,1.37.1,1.37.1,10.61,1.97,12.38,9.23,11.85,22.12l2.77-2.72s1.09,1.04.5,1.86c-.86,1.18-4.09,3.95-4.09,3.95,0,0-3.38-3.01-4.07-3.95-.6-.82.48-1.86.48-1.86l2.66,2.72c.38-15.48-1-20.58-17.52-20.58-3.38,0-3.44-3.36-.15-3.32Z"/>
    <path class="cls-8" d="m454.9,467.96v6.58s.01,0,.01,0c-.32,14.47,3.81,19.16,21.22,18.77.47,0,.8-.4.8-1.01,0-.7-.41-1.07-.83-1.07-16.64,0-19.44-3.82-19.52-17.07-.05-.26.1,1.37.1,1.37,1.97,10.61,9.23,12.38,22.12,11.85l-2.72,2.77s1.04,1.09,1.86.5c1.18-.86,3.95-4.09,3.95-4.09,0,0-3.01-3.38-3.95-4.07-.82-.6-1.86.48-1.86.48l2.72,2.66c-15.48.38-20.58-1-20.58-17.52,0-3.38-3.36-3.44-3.32-.15Z"/>
    <path class="cls-8" d="m168.84,364.35s-2.95-3.4-3.93-4.07c-.84-.58-1.91.51-1.91.51l2.47,2.57c-7.25,0-21.19,5.72-20.39,22.44.14,3,1.63,3.46,2.43,3.46s2.12-.55,2.21-3.02c.3-8.74,8.73-15.29,17.72-15.29.4.01,1.47-.09,1.39-1.23-.09-1.19-1.59-1-1.59-1-10.59,0-19.73,8.11-19.83,18.05-1.82-14.27,10.29-21.32,18.05-21.32l-2.45,2.51s1.05,1.09,1.87.5c1.18-.86,3.97-4.12,3.97-4.12Z"/>
    <path class="cls-8" d="m232.94,397.92s-3.4,2.95-4.07,3.93c-.58.84.51,1.91.51,1.91l2.57-2.47c0,7.25,5.72,21.19,22.44,20.39,3-.14,3.46-1.63,3.46-2.43,0-.79-.55-2.12-3.02-2.21-8.74-.3-15.29-8.73-15.29-17.72.01-.4-.09-1.47-1.23-1.39-1.19.09-1,1.59-1,1.59,0,10.59,8.11,19.73,18.05,19.83-14.27,1.82-21.32-10.29-21.32-18.05l2.51,2.45s1.09-1.05.5-1.87c-.86-1.18-4.12-3.97-4.12-3.97Z"/>
    <path class="cls-8" d="m322.74,397.21s-3.4,2.95-4.07,3.93c-.58.84.51,1.91.51,1.91l2.57-2.47c0,7.25,5.72,21.19,22.44,20.39,3-.14,3.46-1.63,3.46-2.43s-.55-2.12-3.02-2.21c-8.74-.3-15.29-8.73-15.29-17.72.01-.4-.09-1.47-1.23-1.39-1.19.09-1,1.59-1,1.59,0,10.59,8.11,19.73,18.05,19.83-14.27,1.82-21.32-10.29-21.32-18.05l2.51,2.45s1.09-1.05.5-1.87c-.86-1.18-4.12-3.97-4.12-3.97Z"/>
    <path class="cls-8" d="m347.55,528.32s-2.95,3.4-3.93,4.07c-.84.58-1.91-.51-1.91-.51l2.47-2.57c-7.25,0-21.19-5.72-20.39-22.44.14-3,1.63-3.46,2.43-3.46s2.12.55,2.21,3.02c.3,8.74,8.73,15.29,17.72,15.29.4-.01,1.47.09,1.39,1.23-.09,1.19-1.59,1-1.59,1-10.59,0-19.73-8.11-19.83-18.05-1.82,14.27,10.29,21.32,18.05,21.32l-2.45-2.51s1.05-1.09,1.87-.5c1.18.86,3.97,4.12,3.97,4.12Z"/>
    <path class="cls-8" d="m117.65,492.59s3.4-2.95,4.07-3.93c.58-.84-.51-1.91-.51-1.91l-2.57,2.47c0-7.25-5.72-21.19-22.44-20.39-3,.14-3.46,1.63-3.46,2.43s.55,2.12,3.02,2.21c8.74.3,15.29,8.73,15.29,17.72-.01.4.09,1.47,1.23,1.39,1.19-.09,1-1.59,1-1.59,0-10.59-8.11-19.73-18.05-19.83,14.27-1.82,21.32,10.29,21.32,18.05l-2.51-2.45s-1.09,1.05-.5,1.87c.86,1.18,4.12,3.97,4.12,3.97Z"/>
    <path class="cls-8" d="m203.07,492.98s3.4-2.95,4.07-3.93c.58-.84-.51-1.91-.51-1.91l-2.57,2.47c0-7.25-5.72-21.19-22.44-20.39-3,.14-3.46,1.63-3.46,2.43s.55,2.12,3.02,2.21c8.74.3,15.29,8.73,15.29,17.72-.01.4.09,1.47,1.23,1.39,1.19-.09,1-1.59,1-1.59,0-10.59-8.11-19.73-18.05-19.83,14.27-1.82,21.32,10.29,21.32,18.05l-2.51-2.45s-1.09,1.05-.5,1.87c.86,1.18,4.12,3.97,4.12,3.97Z"/>
    <g>
      <g>
        <path class="cls-3" d="m717.63,210.33c-.19,8.85-.94,7.8,4.1,7.75.71,0,1.24.12,1.24.84,0,.33-.44.77-1.2.77-4.71,0-4.71.13-5.33-.4-.49-.41-.42-1.9-.42-2.78,0-1.17.02-5.56.1-6.18s.33-.62.75-.62c.38,0,.77.09.76.62Z"/>
        <path class="cls-3" d="m707.02,218.22c.16.19.21.44.19.68-.03.24-.16.46-.34.61-.4.3-.98.23-1.3-.17l-2.45-3.14-2.45,3.14c-.18.23-.45.36-.72.36-.19,0-.4-.07-.57-.19-.19-.15-.32-.37-.35-.61-.03-.24.03-.49.19-.68l2.73-3.51-2.73-3.51c-.13-.17-.19-.36-.19-.57,0-.28.14-.56.36-.73.19-.15.42-.21.67-.19.24.03.47.16.61.35l2.45,3.14,2.44-3.14c.33-.41.91-.48,1.31-.16.22.17.35.43.35.72,0,.2-.07.4-.19.57l-2.73,3.51,2.73,3.51Z"/>
        <rect class="cls-3" x="707.4" y="213.76" width="6.95" height="1.9" rx=".95" ry=".95"/>
      </g>
      <g>
        <path class="cls-3" d="m446.83,327.96c-.21-2.13-.27-7.16-.03-8.83,0,0,1.78-.75,5.18-.44.42.04.62.25.63.53.03.54,0,1.08-.55,1.11-1.32.07-3.68.15-3.68.15,0,0-.03.76-.02.98,0,.34.02.97.02.97,0,0,2.08.01,3.36.07.47.02.88-.05.91.74.02.57-.38.7-.91.74-1.22.09-3.25.04-3.25.04.07,1.57.19,3.19.19,3.78,0,.69-.57.8-.97.8-.59,0-.85-.44-.87-.65Z"/>
        <rect class="cls-3" x="437.26" y="322.66" width="6.95" height="1.9" rx=".95" ry=".95"/>
        <path class="cls-3" d="m434.61,320.35c-1.86,0-2.27,0-3.51,0-.46,0-1.11-.2-1.11-.85,0-.57.42-.88,1.07-.88,4.93,0,5.05-.05,5.58.38.28.22.43.73.15,1.14-1.71,2.48-4.64,6.6-4.64,6.6,0,0,2.47-.05,3.73-.05,1.57,0,1.46,1.88.13,1.88-8.37,0-8.83,1.14-1.4-8.22Z"/>
      </g>
      <g>
        <path class="cls-3" d="m543.28,217.47c.42.55-.07,1.12-.5,1.33-9.15,4.54-8.83-9.42-3.27-9.09,1.07.06,2.05.85,2.39,1.26.25.29.44.81.12,1.16-.34.36-.8.24-1.02,0-4.33-4.56-6.65,9.06,1.11,5.25.45-.22.79-.4,1.16.09Z"/>
        <path class="cls-3" d="m526.55,218.22c.16.19.21.44.19.68-.03.24-.16.46-.34.61-.4.3-.98.23-1.3-.17l-2.45-3.14-2.45,3.14c-.18.23-.45.36-.72.36-.19,0-.4-.07-.57-.19-.19-.15-.32-.37-.35-.61-.03-.24.03-.49.19-.68l2.73-3.51-2.73-3.51c-.13-.17-.19-.36-.19-.57,0-.28.14-.56.36-.73.19-.15.42-.21.67-.19.24.03.47.16.61.35l2.45,3.14,2.44-3.14c.33-.41.91-.48,1.31-.16.22.17.35.43.35.72,0,.2-.07.4-.19.57l-2.73,3.51,2.73,3.51Z"/>
        <rect class="cls-3" x="527.19" y="213.76" width="6.95" height="1.9" rx=".95" ry=".95"/>
      </g>
      <g>
        <rect class="cls-3" x="349.2" y="213.76" width="6.95" height="1.9" rx=".95" ry=".95"/>
        <path class="cls-3" d="m359.55,210.33c-.19,8.85-.94,7.8,4.1,7.75.71,0,1.24.12,1.24.84,0,.33-.44.77-1.2.77-4.71,0-4.71.13-5.33-.4-.49-.41-.42-1.9-.42-2.78,0-1.17.02-5.56.1-6.18s.33-.62.75-.62c.38,0,.77.09.76.62Z"/>
        <path class="cls-3" d="m348.23,209.72c-.46-.06-.96.28-1.19,1.14-.42,1.54-.92,3.7-1.44,5.63-1.11-2.72-1.86-4.39-2.5-4.38-.01,0-.02,0-.03.01-.01-.01-.02-.01-.03-.01-.64-.01-1.39,1.65-2.5,4.38-.51-1.93-1.02-4.09-1.44-5.63-.24-.86-.73-1.2-1.19-1.14-.59.07-.98.49-.74,1.25.25.81,1.84,6.07,2.3,7.72.47,1.65,1.59.9,1.8.49.21-.41,1.36-3.67,1.8-4.59.44.92,1.59,4.18,1.8,4.59.21.41,1.33,1.16,1.8-.49.46-1.64,2.05-6.9,2.3-7.72.24-.76-.15-1.18-.74-1.25Z"/>
      </g>
      <g>
        <path class="cls-3" d="m707.5,436.49c-.93-2.27-1.86-4.39-2.21-5.2-.38-.84-.67-1.52-.74-1.72-.32-.87-.6-1.18-1.12-1.22-.5.04-.79.34-1.11,1.22-.07.2-.36.87-.73,1.72-.73,1.66-1.56,3.6-2.22,5.2-.28.71-.29,1.21-.03,1.52.19.23.49.34.9.34h6.43c.41,0,.71-.12.9-.34.12-.15.18-.34.18-.58,0-.26-.07-.57-.22-.94Zm-1.67.34h-4.8c.17-.42.49-1.25.87-2.18.56-1.41,1.21-3.07,1.53-3.9.39.98,1.22,3.11,1.83,4.63l.57,1.44Z"/>
        <rect class="cls-3" x="707.96" y="432.41" width="6.95" height="1.9" rx=".95" ry=".95"/>
        <path class="cls-3" d="m722.79,429.71c-.06.29-1.97,5.54-3.02,7.94-.32.73-.61.72-.74.72s-.42,0-.74-.72c-1.05-2.4-2.96-7.64-3.02-7.94-.23-1,.08-1.16.44-1.3.28-.13.86-.02,1.12.7.16.42,2.2,5.86,2.2,5.86,0,0,2.05-5.44,2.2-5.86.25-.72.83-.82,1.12-.7.36.15.67.3.44,1.3Z"/>
      </g>
      <g>
        <rect class="cls-3" x="346.85" y="542.36" width="6.95" height="1.9" rx=".95" ry=".95"/>
        <path class="cls-3" d="m362.89,539.66c-.06.29-1.97,5.54-3.02,7.94-.32.73-.61.72-.74.72s-.42,0-.74-.72c-1.05-2.4-2.96-7.64-3.02-7.94-.23-1,.08-1.16.44-1.3.28-.13.86-.02,1.12.7.16.42,2.2,5.86,2.2,5.86,0,0,2.05-5.44,2.2-5.86.25-.72.83-.82,1.12-.7.36.15.67.3.44,1.3Z"/>
        <path d="m344.59,539.84c-.75-1.02-1.5-1.53-2.25-1.53h-.07c-.77.03-1.52.6-2.21,1.69-1.14,1.8-1.61,4.77.05,7.03.55.79,1.23,1.23,2,1.27.05,0,.11,0,.17,0,.89,0,1.7-.51,2.13-.97.96-1.01,1.3-2.33,1.3-3.62,0-1.57-.52-3.07-1.12-3.88Zm-2.22.07c.86,0,1.48,1.13,1.53,1.91.02.3,0,.48-.11.58-.07.08-.2.11-.39.12h-1.07c-.36,0-.72,0-1.04,0-.15,0-.25-.04-.32-.12-.09-.1-.14-.28-.12-.54.06-.78.73-1.96,1.52-1.96Zm-1.4,4.38c.43-.04.85-.05,1.27-.05.25,0,.51,0,.75,0,.29,0,.57,0,.85,0,.13,0,.24.09.25.21.1.84-.2,1.56-.78,1.95-.51.34-1.17.38-1.68.11-.61-.33-.93-1.04-.91-1.99,0-.12.12-.24.25-.25Z"/>
      </g>
      <g>
        <path class="cls-3" d="m176.2,327.96c-.21-2.13-.27-7.16-.03-8.83,0,0,1.78-.75,5.18-.44.42.04.62.25.63.53.03.54,0,1.08-.55,1.11-1.32.07-3.68.15-3.68.15,0,0-.03.76-.02.98,0,.34.02.97.02.97,0,0,2.08.01,3.36.07.47.02.88-.05.91.74.02.57-.38.7-.91.74-1.22.09-3.25.04-3.25.04.07,1.57.19,3.19.19,3.78,0,.69-.57.8-.97.8-.59,0-.85-.44-.87-.65Z"/>
        <path class="cls-3" d="m166.78,319.86l-4.37,8.3c-.15.29-.45.46-.75.46-.13,0-.26-.04-.39-.1-.2-.11-.35-.28-.42-.5-.07-.21-.05-.45.06-.65l1.88-3.58-2.53-3.62c-.12-.11-.2-.27-.24-.47-.05-.25.03-.53.2-.71.15-.17.35-.27.58-.28.22,0,.45.07.61.21l2.2,3.29,1.65-3.14c.12-.2.29-.35.51-.42.22-.07.45-.04.65.07.22.12.38.33.43.59.03.19,0,.38-.08.55Z"/>
        <rect class="cls-3" x="166.87" y="322.66" width="6.95" height="1.9" rx=".95" ry=".95"/>
      </g>
      <g>
        <path class="cls-3" d="m184.63,217.47c.42.55-.07,1.12-.5,1.33-9.15,4.54-8.83-9.42-3.27-9.09,1.07.06,2.05.85,2.39,1.26.25.29.44.81.12,1.16-.34.36-.8.24-1.02,0-4.33-4.56-6.65,9.06,1.11,5.25.45-.22.79-.4,1.16.09Z"/>
        <rect class="cls-3" x="169.12" y="213.76" width="6.95" height="1.9" rx=".95" ry=".95"/>
        <path class="cls-3" d="m168.34,209.72c-.46-.06-.96.28-1.19,1.14-.42,1.54-.92,3.7-1.44,5.63-1.11-2.72-1.86-4.39-2.5-4.38-.01,0-.02,0-.03.01-.01-.01-.02-.01-.03-.01-.64-.01-1.39,1.65-2.5,4.38-.51-1.93-1.02-4.09-1.44-5.63-.24-.86-.73-1.2-1.19-1.14-.59.07-.98.49-.74,1.25.25.81,1.84,6.07,2.3,7.72.47,1.65,1.59.9,1.8.49.21-.41,1.36-3.67,1.8-4.59.44.92,1.59,4.18,1.8,4.59.21.41,1.33,1.16,1.8-.49.46-1.64,2.05-6.9,2.3-7.72.24-.76-.15-1.18-.74-1.25Z"/>
      </g>
      <g>
        <path class="cls-3" d="m708.83,548.31h-3.54c-.32,0-.53-.32-.41-.62,2.67-6.29.99-7.71-1.08-7.85-.04,0-.08,0-.12,0h-.02s-.09,0-.13,0c-.04,0-.08,0-.12,0-2.07.14-3.75,1.56-1.08,7.85.12.29-.09.62-.41.62h-3.54c-.14,0-.66-1.27.12-1.73.69-.41.99.09,1.81.11-2.24-4.96.04-7.96,2.78-8.36.08-.02.94-.02,1.02,0,2.74.41,5.02,3.4,2.78,8.36.82-.02,1.12-.51,1.81-.11.78.46.26,1.73.12,1.73Z"/>
        <rect class="cls-3" x="709.44" y="542.36" width="6.95" height="1.9" rx=".95" ry=".95"/>
      </g>
      <g>
        <rect class="cls-3" x="167.25" y="542.36" width="6.95" height="1.9" rx=".95" ry=".95"/>
        <path d="m164.9,539.84c-.75-1.02-1.5-1.53-2.25-1.53h-.07c-.77.03-1.52.6-2.21,1.69-1.14,1.8-1.61,4.77.05,7.03.55.79,1.23,1.23,2,1.27.05,0,.11,0,.17,0,.89,0,1.7-.51,2.13-.97.96-1.01,1.3-2.33,1.3-3.62,0-1.57-.52-3.07-1.12-3.88Zm-2.22.07c.86,0,1.48,1.13,1.53,1.91.02.3,0,.48-.11.58-.07.08-.2.11-.39.12h-1.07c-.36,0-.72,0-1.04,0-.15,0-.25-.04-.32-.12-.09-.1-.14-.28-.12-.54.06-.78.73-1.96,1.52-1.96Zm-1.4,4.38c.43-.04.85-.05,1.27-.05.25,0,.51,0,.75,0,.29,0,.57,0,.85,0,.13,0,.24.09.25.21.1.84-.2,1.56-.78,1.95-.51.34-1.17.38-1.68.11-.61-.33-.93-1.04-.91-1.99,0-.12.12-.24.25-.25Z"/>
        <path class="cls-3" d="m182.45,546.95l-2.7-3.03c.87-.25,1.47-.64,1.8-1.14.66-1.02.77-2.65-.54-3.86-.83-.76-3.04-.82-5.15-.14l-.06.02-.02.05c-.26.54-.14,2.22.07,5.27.08,1.06.16,2.26.24,3.62.02.37.41.57.79.57.3,0,.77-.17.84-.62.06-.42-.05-2.87-.08-3.48h.17l3.42,3.83c.16.18.38.27.61.27.2,0,.4-.07.55-.21.34-.3.37-.83.07-1.16Zm-5.02-4.32l-.03-.2c-.13-.82-.2-1.21-.11-2.5.38-.1,1.92-.27,2.71.15.28.14.44.34.47.59.08.5-.06.95-.38,1.3-.52.53-1.46.77-2.66.67Z"/>
      </g>
      <g>
        <path class="cls-3" d="m528.13,548.31h-3.54c-.32,0-.53-.32-.41-.62,2.67-6.29.99-7.71-1.08-7.85-.04,0-.08,0-.12,0h-.02s-.09,0-.13,0c-.04,0-.08,0-.12,0-2.07.14-3.75,1.56-1.08,7.85.12.29-.09.62-.41.62h-3.54c-.14,0-.66-1.27.12-1.73.69-.41.99.09,1.81.11-2.24-4.96.04-7.96,2.78-8.36.08-.02.94-.02,1.02,0,2.74.41,5.02,3.4,2.78,8.36.82-.02,1.12-.51,1.81-.11.78.46.26,1.73.12,1.73Z"/>
        <rect class="cls-3" x="528.72" y="542.36" width="6.95" height="1.9" rx=".95" ry=".95"/>
        <path class="cls-3" d="m544.12,546.95l-2.7-3.03c.87-.25,1.47-.64,1.8-1.14.66-1.02.77-2.65-.54-3.86-.83-.76-3.04-.82-5.15-.14l-.06.02-.02.05c-.26.54-.14,2.22.07,5.27.08,1.06.16,2.26.24,3.62.02.37.41.57.79.57.3,0,.77-.17.84-.62.06-.42-.05-2.87-.08-3.48h.17l3.42,3.83c.16.18.38.27.61.27.2,0,.4-.07.55-.21.34-.3.37-.83.07-1.16Zm-5.02-4.32l-.03-.2c-.13-.82-.2-1.21-.11-2.5.38-.1,1.92-.27,2.71.15.28.14.44.34.47.59.08.5-.06.95-.38,1.3-.52.53-1.46.77-2.66.67Z"/>
      </g>
      <g>
        <path class="cls-3" d="m164.32,432.54c.48.44.43.65.44.96s-.23.47-.53.71c-1.75,1.43-2.78,2.44-2.78,2.44,0,0,.42.05,4.42.05.4,0,.79.33.79.78,0,.48-.22.88-.64.88-2.35,0-4.02-.05-5.97-.05-.79,0-1.34-.19-1.52-.57-.17-.36-.12-.9.55-1.52,1.91-1.72,3.47-2.88,3.47-2.88,0,0-2.17-1.97-3.75-3.56-.33-.33-.43-.62-.31-.85.11-.2.55-.57.92-.57h6.71c.74,0,.77,1.31,0,1.31-3.37,0-5.2.02-5.2.02"/>
        <rect class="cls-3" x="167.47" y="432.41" width="6.95" height="1.9" rx=".95" ry=".95"/>
        <path class="cls-3" d="m176.07,435.23c-.55-2.97.03-4.69,2.09-6.23,1.86-1.39,4.92-.33,5.78,1.24.73,1.31,1.54,4.09-.47,6.49-.67.8-1.59,1.4-2.62,1.57-2.46.41-4.48-1.4-4.79-3.06Zm2.23.5c1.14,1.13,3.41,1.11,4.45-.7,1.02-1.77.06-3.66-.63-4.27-.55-.49-2.53-1.19-3.76.41-1.11,1.45-.84,3.8-.07,4.56Z"/>
      </g>
      <g>
        <path class="cls-3" d="m526.34,436.49c-.93-2.27-1.86-4.39-2.21-5.2-.38-.84-.67-1.52-.74-1.72-.32-.87-.6-1.18-1.12-1.22-.5.04-.79.34-1.11,1.22-.07.2-.36.87-.73,1.72-.73,1.66-1.56,3.6-2.22,5.2-.28.71-.29,1.21-.03,1.52.19.23.49.34.9.34h6.43c.41,0,.71-.12.9-.34.12-.15.18-.34.18-.58,0-.26-.07-.57-.22-.94Zm-1.67.34h-4.8c.17-.42.49-1.25.87-2.18.56-1.41,1.21-3.07,1.53-3.9.39.98,1.22,3.11,1.83,4.63l.57,1.44Z"/>
        <rect class="cls-3" x="526.66" y="432.41" width="6.95" height="1.9" rx=".95" ry=".95"/>
        <path class="cls-3" d="m535.35,435.23c-.55-2.97.03-4.69,2.09-6.23,1.86-1.39,4.92-.33,5.78,1.24.73,1.31,1.54,4.09-.47,6.49-.67.8-1.59,1.4-2.62,1.57-2.46.41-4.48-1.4-4.79-3.06Zm2.23.5c1.14,1.13,3.41,1.11,4.45-.7,1.02-1.77.06-3.66-.63-4.27-.55-.49-2.53-1.19-3.76.41-1.11,1.45-.84,3.8-.07,4.56Z"/>
      </g>
      <g>
        <path class="cls-3" d="m344.67,432.54c.48.44.43.65.44.96s-.23.47-.53.71c-1.75,1.43-2.78,2.44-2.78,2.44,0,0,.42.05,4.42.05.4,0,.79.33.79.78,0,.48-.22.88-.64.88-2.35,0-4.02-.05-5.97-.05-.79,0-1.34-.19-1.52-.57-.17-.36-.12-.9.55-1.52,1.91-1.72,3.47-2.88,3.47-2.88,0,0-2.17-1.97-3.75-3.56-.33-.33-.43-.62-.31-.85.11-.2.55-.57.92-.57h6.71c.74,0,.77,1.31,0,1.31-3.37,0-5.2.02-5.2.02"/>
        <rect class="cls-3" x="346.74" y="432.41" width="6.95" height="1.9" rx=".95" ry=".95"/>
        <path class="cls-3" d="m363.01,433.88c-.11.73-.3,1.42-.58,2.11-.6,1.42-1.8,2.3-3.21,2.37h-.26c-1.41-.07-2.6-.95-3.21-2.37-.28-.67-.47-1.36-.57-2.11-.19-1.31-.24-2.6-.18-4.35.02-.47.13-.8.34-.99.14-.13.32-.19.52-.19.64.04.78.66.82,1.21,0,.18,0,.48,0,.86-.05,1.51-.14,4.35.93,5.36.21.2.58.43.94.56.35.14.73.14,1.08,0,.36-.14.74-.37.95-.56,1.06-1.01.98-3.81.93-5.33,0-.4-.02-.71,0-.89.03-.5.15-1.17.8-1.21.21,0,.39.06.52.19.22.19.33.52.34.99.08,1.8.03,3.06-.16,4.35Z"/>
      </g>
      <g>
        <rect class="cls-3" x="707.77" y="322.66" width="6.95" height="1.9" rx=".95" ry=".95"/>
        <path class="cls-3" d="m704.95,320.35c-1.86,0-2.27,0-3.51,0-.46,0-1.11-.2-1.11-.85,0-.57.42-.88,1.07-.88,4.93,0,5.05-.05,5.58.38.28.22.43.73.15,1.14-1.71,2.48-4.64,6.6-4.64,6.6,0,0,2.47-.05,3.73-.05,1.57,0,1.46,1.88.13,1.88-8.37,0-8.83,1.14-1.4-8.22Z"/>
        <path class="cls-3" d="m722.3,327.87c0,.65-.36.74-1.5.74h-4.33c-1.13,0-1.5-.09-1.5-.74s.49-.73,1.75-.73,1.17.32,1.17-3.55.1-3.5-2-3.5c-.49,0-.92-.16-.92-.72s.2-.75.99-.75h5.35c.79,0,.99.2.99.75s-.43.72-.92.72c-2.1,0-2-.37-2,3.5s-.14,3.55,1.17,3.55,1.75.08,1.75.73Z"/>
      </g>
      <g>
        <path class="cls-3" d="m347.24,319.86l-4.37,8.3c-.15.29-.45.46-.75.46-.13,0-.26-.04-.39-.1-.2-.11-.35-.28-.42-.5-.07-.21-.05-.45.06-.65l1.88-3.58-2.53-3.62c-.12-.11-.2-.27-.24-.47-.05-.25.03-.53.2-.71.15-.17.35-.27.58-.28.22,0,.45.07.61.21l2.2,3.29,1.65-3.14c.12-.2.29-.35.51-.42.22-.07.45-.04.65.07.22.12.38.33.43.59.03.19,0,.38-.08.55Z"/>
        <rect class="cls-3" x="347.18" y="322.66" width="6.95" height="1.9" rx=".95" ry=".95"/>
        <path class="cls-3" d="m361.54,327.87c0,.65-.36.74-1.5.74h-4.33c-1.13,0-1.5-.09-1.5-.74s.49-.73,1.75-.73,1.17.32,1.17-3.55.1-3.5-2-3.5c-.49,0-.92-.16-.92-.72s.2-.75.99-.75h5.35c.79,0,.99.2.99.75s-.43.72-.92.72c-2.1,0-2-.37-2,3.5s-.14,3.55,1.17,3.55,1.75.08,1.75.73Z"/>
      </g>
      <g>
        <path class="cls-3" d="m72.39,432.54c.48.44.43.65.44.96s-.23.47-.53.71c-1.75,1.43-2.78,2.44-2.78,2.44,0,0,.42.05,4.42.05.4,0,.79.33.79.78,0,.48-.22.88-.64.88-2.35,0-4.02-.05-5.97-.05-.79,0-1.34-.19-1.52-.57-.17-.36-.12-.9.55-1.52,1.91-1.72,3.47-2.88,3.47-2.88,0,0-2.17-1.97-3.75-3.56-.33-.33-.43-.62-.31-.85.11-.2.55-.57.92-.57h6.71c.74,0,.77,1.31,0,1.31-3.37,0-5.2.02-5.2.02"/>
        <rect class="cls-3" x="75.73" y="432.41" width="6.95" height="1.9" rx=".95" ry=".95"/>
        <path class="cls-3" d="m94.67,438.35c-.46.06-.96-.28-1.19-1.14-.42-1.54-.92-3.7-1.44-5.63-1.11,2.72-1.86,4.39-2.5,4.38-.01,0-.02,0-.03-.01-.01.01-.02.01-.03.01-.64.01-1.39-1.65-2.5-4.38-.51,1.93-1.02,4.09-1.44,5.63-.24.86-.73,1.2-1.19,1.14-.59-.07-.98-.49-.74-1.25.25-.81,1.84-6.07,2.3-7.72.47-1.65,1.59-.9,1.8-.49.21.41,1.36,3.67,1.8,4.59.44-.92,1.59-4.18,1.8-4.59.21-.41,1.33-1.16,1.8.49.46,1.64,2.05,6.9,2.3,7.72.24.76-.15,1.18-.74,1.25Z"/>
      </g>
      <g>
        <path class="cls-3" d="m436.51,436.49c-.93-2.27-1.86-4.39-2.21-5.2-.38-.84-.67-1.52-.74-1.72-.32-.87-.6-1.18-1.12-1.22-.5.04-.79.34-1.11,1.22-.07.2-.36.87-.73,1.72-.73,1.66-1.56,3.6-2.22,5.2-.28.71-.29,1.21-.03,1.52.19.23.49.34.9.34h6.43c.41,0,.71-.12.9-.34.12-.15.18-.34.18-.58,0-.26-.07-.57-.22-.94Zm-1.67.34h-4.8c.17-.42.49-1.25.87-2.18.56-1.41,1.21-3.07,1.53-3.9.39.98,1.22,3.11,1.83,4.63l.57,1.44Z"/>
        <rect class="cls-3" x="436.83" y="432.41" width="6.95" height="1.9" rx=".95" ry=".95"/>
        <path class="cls-3" d="m454.01,429.68c-.2.78-1.37,6.55-1.58,7.33-.21.78-.44,1.33-.9,1.35s-.64-.27-1.17-1.25-1.66-3.47-2.44-5.56c-.53,1.89-.73,3.97-1.16,5.48-.25.85-.58,1.36-1.02,1.29-.1-.02-1.05-.26-.75-1.36.22-.81,1.48-6,1.96-7.62.48-1.62,1.54-.85,1.73-.44.19.41,2.31,5.6,2.67,6.53.19-.85.69-4.5,1.08-6.27.13-.6.81-.88,1.1-.76s.68.5.48,1.29Z"/>
      </g>
      <g>
        <path class="cls-3" d="m618.3,548.31h-3.54c-.32,0-.53-.32-.41-.62,2.67-6.29.99-7.71-1.08-7.85-.04,0-.08,0-.12,0h-.02s-.09,0-.13,0c-.04,0-.08,0-.12,0-2.07.14-3.75,1.56-1.08,7.85.12.29-.09.62-.41.62h-3.54c-.14,0-.66-1.27.12-1.73.69-.41.99.09,1.81.11-2.24-4.96.04-7.96,2.78-8.36.08-.02.94-.02,1.02,0,2.74.41,5.02,3.4,2.78,8.36.82-.02,1.12-.51,1.81-.11.78.46.26,1.73.12,1.73Z"/>
        <rect class="cls-3" x="618.9" y="542.36" width="6.95" height="1.9" rx=".95" ry=".95"/>
        <path class="cls-3" d="m634.3,539.24c-.01.49-.38.78-1.17.77h-2.09v7.47c0,.45-.37.83-.83.83s-.83-.38-.83-.83v-7.47h-2.09c-.79,0-1.16-.28-1.17-.77-.02-.62.45-.89,1.12-.91.82-.02,5.12-.02,5.94,0,.67.02,1.14.29,1.12.91Z"/>
      </g>
      <g>
        <path class="cls-3" d="m616.68,436.49c-.93-2.27-1.86-4.39-2.21-5.2-.38-.84-.67-1.52-.74-1.72-.32-.87-.6-1.18-1.12-1.22-.5.04-.79.34-1.11,1.22-.07.2-.36.87-.73,1.72-.73,1.66-1.56,3.6-2.22,5.2-.28.71-.29,1.21-.03,1.52.19.23.49.34.9.34h6.43c.41,0,.71-.12.9-.34.12-.15.18-.34.18-.58,0-.26-.07-.57-.22-.94Zm-1.67.34h-4.8c.17-.42.49-1.25.87-2.18.56-1.41,1.21-3.07,1.53-3.9.39.98,1.22,3.11,1.83,4.63l.57,1.44Z"/>
        <rect class="cls-3" x="617.5" y="432.41" width="6.95" height="1.9" rx=".95" ry=".95"/>
        <path class="cls-3" d="m633.68,429.29c-.01.49-.38.78-1.17.77h-2.09v7.47c0,.45-.37.83-.83.83s-.83-.38-.83-.83v-7.47h-2.09c-.79,0-1.16-.28-1.17-.77-.02-.62.45-.89,1.12-.91.82-.02,5.12-.02,5.94,0,.67.02,1.14.29,1.12.91Z"/>
      </g>
      <g>
        <path class="cls-3" d="m437.17,548.31h-3.54c-.32,0-.53-.32-.41-.62,2.67-6.29.99-7.71-1.08-7.85-.04,0-.08,0-.12,0h-.02s-.09,0-.13,0c-.04,0-.08,0-.12,0-2.07.14-3.75,1.56-1.08,7.85.12.29-.09.62-.41.62h-3.54c-.14,0-.66-1.27.12-1.73.69-.41.99.09,1.81.11-2.24-4.96.04-7.96,2.78-8.36.08-.02.94-.02,1.02,0,2.74.41,5.02,3.4,2.78,8.36.82-.02,1.12-.51,1.81-.11.78.46.26,1.73.12,1.73Z"/>
        <rect class="cls-3" x="437.86" y="542.36" width="6.95" height="1.9" rx=".95" ry=".95"/>
        <path class="cls-3" d="m455.15,546.82l-.97-.99-.02-.02c1.23-2.17.51-4.46-.12-5.62-.87-1.56-3.93-2.62-5.78-1.24-2.07,1.53-2.64,3.26-2.09,6.23.3,1.66,2.32,3.48,4.78,3.07.79-.14,1.51-.53,2.11-1.07l.84.86c.34.34.89.35,1.24,0,.35-.34.35-.9,0-1.24Zm-6.76-1.14c-.78-.77-1.05-3.12.06-4.56,1.24-1.59,3.21-.9,3.76-.41.64.58,1.52,2.26.81,3.93l-.1-.1h0s-1.02-1.04-1.02-1.04c-.34-.35-.9-.35-1.24,0-.18.16-.26.39-.26.62s.08.45.25.62l1.1,1.12.15.15c-1.14.75-2.65.55-3.51-.31Z"/>
      </g>
      <g>
        <path class="cls-3" d="m75.43,319.86l-4.37,8.3c-.15.29-.45.46-.75.46-.13,0-.26-.04-.39-.1-.2-.11-.35-.28-.42-.5-.07-.21-.05-.45.06-.65l1.88-3.58-2.53-3.62c-.12-.11-.2-.27-.24-.47-.05-.25.03-.53.2-.71.15-.17.35-.27.58-.28.22,0,.45.07.61.21l2.2,3.29,1.65-3.14c.12-.2.29-.35.51-.42.22-.07.45-.04.65.07.22.12.38.33.43.59.03.19,0,.38-.08.55Z"/>
        <rect class="cls-3" x="75.52" y="322.66" width="6.95" height="1.9" rx=".95" ry=".95"/>
        <path class="cls-3" d="m85.36,319.06c4.64-1.3,7.94.33,7.99,3.72.1,6.19-7.54,6.06-7.86,5.69-.19-.72-.85-5.47-.13-9.41Zm1.61,7.69c3.94-.46,5.1-2.07,4.74-4.52-.36-2.45-4.31-2.07-4.85-1.81-.26,3.6-.2,4.36.11,6.32Z"/>
      </g>
      <g>
        <rect class="cls-3" x="258.53" y="213.76" width="6.95" height="1.9" rx=".95" ry=".95"/>
        <path class="cls-3" d="m257.56,209.72c-.46-.06-.96.28-1.19,1.14-.42,1.54-.92,3.7-1.44,5.63-1.11-2.72-1.86-4.39-2.5-4.38-.01,0-.02,0-.03.01-.01-.01-.02-.01-.03-.01-.64-.01-1.39,1.65-2.5,4.38-.51-1.93-1.02-4.09-1.44-5.63-.24-.86-.73-1.2-1.19-1.14-.59.07-.98.49-.74,1.25.25.81,1.84,6.07,2.3,7.72.47,1.65,1.59.9,1.8.49.21-.41,1.36-3.67,1.8-4.59.44.92,1.59,4.18,1.8,4.59.21.41,1.33,1.16,1.8-.49.46-1.64,2.05-6.9,2.3-7.72.24-.76-.15-1.18-.74-1.25Z"/>
        <path class="cls-3" d="m271.08,213.29c-.23-1.81.31-1.52-1.96-1.52-.48,0-1.1-.23-1.08-.83.02-.68.18-1,1.11-1,.29,0,2.96-.14,5.13-.13.75,0,1.29.31,1.29,1,0,.56-.42.9-1.31.9-1.86,0-1.61-.26-1.61,1.62,0,2.18.1,3.12-.28,3.9-2.04,4.14-6.19,2.28-6.19-.8,0-.58.16-.88.74-.92.52-.04.65.48.76.88.75,2.71,4.08,2.04,3.42-3.1Z"/>
      </g>
      <g>
        <rect class="cls-3" x="256.81" y="542.36" width="6.95" height="1.9" rx=".95" ry=".95"/>
        <path d="m254.56,539.84c-.75-1.02-1.5-1.53-2.25-1.53h-.07c-.77.03-1.52.6-2.21,1.69-1.14,1.8-1.61,4.77.05,7.03.55.79,1.23,1.23,2,1.27.05,0,.11,0,.17,0,.89,0,1.7-.51,2.13-.97.96-1.01,1.3-2.33,1.3-3.62,0-1.57-.52-3.07-1.12-3.88Zm-2.22.07c.86,0,1.48,1.13,1.53,1.91.02.3,0,.48-.11.58-.07.08-.2.11-.39.12h-1.07c-.36,0-.72,0-1.04,0-.15,0-.25-.04-.32-.12-.09-.1-.14-.28-.12-.54.06-.78.73-1.96,1.52-1.96Zm-1.4,4.38c.43-.04.85-.05,1.27-.05.25,0,.51,0,.75,0,.29,0,.57,0,.85,0,.13,0,.24.09.25.21.1.84-.2,1.56-.78,1.95-.51.34-1.17.38-1.68.11-.61-.33-.93-1.04-.91-1.99,0-.12.12-.24.25-.25Z"/>
        <path class="cls-3" d="m272.95,545.95c-.25,1.19-1.45,2.37-3.24,2.37h-.11c-1-.04-2.78-.26-3.51-1.25-.39-.52-.47-1.13-.19-1.44.24-.27.68-.24,1.23.08,1.08,1.06,2.52,1.08,3.42.64.52-.26.82-.65.77-1.03-.03-.33-.36-.94-2.12-1.35-2.5-.56-3.55-1.98-3.49-3.14.06-1.03,1.04-2.24,3.59-2.51.07,0,.13,0,.2,0,1.08,0,2.66.83,2.96,1.59.13.32.04.59-.26.82-.19.14-.59-.05-1.1-.3-.48-.23-1.01-.49-1.51-.55-.14-.02-.27-.03-.4-.03-.95,0-1.68.48-1.82.99-.13.47.23.9.96,1.2l2.99,1.21c1.5.62,1.82,1.8,1.62,2.7Z"/>
      </g>
      <g>
        <path class="cls-3" d="m254.64,432.54c.48.44.43.65.44.96s-.23.47-.53.71c-1.75,1.43-2.78,2.44-2.78,2.44,0,0,.42.05,4.42.05.4,0,.79.33.79.78,0,.48-.22.88-.64.88-2.35,0-4.02-.05-5.97-.05-.79,0-1.34-.19-1.52-.57-.17-.36-.12-.9.55-1.52,1.91-1.72,3.47-2.88,3.47-2.88,0,0-2.17-1.97-3.75-3.56-.33-.33-.43-.62-.31-.85.11-.2.55-.57.92-.57h6.71c.74,0,.77,1.31,0,1.31-3.37,0-5.2.02-5.2.02"/>
        <rect class="cls-3" x="256.71" y="432.41" width="6.95" height="1.9" rx=".95" ry=".95"/>
        <path class="cls-3" d="m273.19,435.99c-.25,1.19-1.45,2.37-3.24,2.37h-.11c-1-.04-2.78-.26-3.51-1.25-.39-.52-.47-1.13-.19-1.44.24-.27.68-.24,1.23.08,1.08,1.06,2.52,1.08,3.42.64.52-.26.82-.65.77-1.03-.03-.33-.36-.94-2.12-1.35-2.5-.56-3.55-1.98-3.49-3.14.06-1.03,1.04-2.24,3.59-2.51.07,0,.13,0,.2,0,1.08,0,2.66.83,2.96,1.59.13.32.04.59-.26.82-.19.14-.59-.05-1.1-.3-.48-.23-1.01-.49-1.51-.55-.14-.02-.27-.03-.4-.03-.95,0-1.68.48-1.82.99-.13.47.23.9.96,1.2l2.99,1.21c1.5.62,1.82,1.8,1.62,2.7Z"/>
      </g>
      <g>
        <path class="cls-3" d="m256.07,319.86l-4.37,8.3c-.15.29-.45.46-.75.46-.13,0-.26-.04-.39-.1-.2-.11-.35-.28-.42-.5-.07-.21-.05-.45.06-.65l1.88-3.58-2.53-3.62c-.12-.11-.2-.27-.24-.47-.05-.25.03-.53.2-.71.15-.17.35-.27.58-.28.22,0,.45.07.61.21l2.2,3.29,1.65-3.14c.12-.2.29-.35.51-.42.22-.07.45-.04.65.07.22.12.38.33.43.59.03.19,0,.38-.08.55Z"/>
        <rect class="cls-3" x="256" y="322.66" width="6.95" height="1.9" rx=".95" ry=".95"/>
        <path class="cls-3" d="m271.78,320.27c-.42-.02-1.11-.04-1.33-.05-2.5-.16-3.99,1.77-4.23,4.08-.08.74.07,1.24.63,1.77.96.88,2.65,1.08,3.68.33.29-.21.56-.57.67-.92.23-.7-.06-1.13-.73-1.15-.55-.02-1.11.07-1.67.1-.47.02-.98.05-1.11-.62-.11-.57.35-1.04,1.07-1.13.6-.07,1.2-.08,1.8-.13.41-.04.92,0,1.41-.03.86,1.57.93,2.45.34,3.91-.66,1.62-1.9,2.23-3.38,2.2-.76-.02-1.61-.21-2.26-.62-2.32-1.47-2.63-3.71-1.3-6.4,1.3-3.01,4.25-2.97,5.53-2.98.84,0,1.06.15.85,1.66Z"/>
      </g>
      <g>
        <rect class="cls-3" x="78.85" y="213.76" width="6.95" height="1.9" rx=".95" ry=".95"/>
        <path class="cls-3" d="m78.06,209.72c-.46-.06-.96.28-1.19,1.14-.42,1.54-.92,3.7-1.44,5.63-1.11-2.72-1.86-4.39-2.5-4.38-.01,0-.02,0-.03.01-.01-.01-.02-.01-.03-.01-.64-.01-1.39,1.65-2.5,4.38-.51-1.93-1.02-4.09-1.44-5.63-.24-.86-.73-1.2-1.19-1.14-.59.07-.98.49-.74,1.25.25.81,1.84,6.07,2.3,7.72.47,1.65,1.59.9,1.8.49.21-.41,1.36-3.67,1.8-4.59.44.92,1.59,4.18,1.8,4.59.21.41,1.33,1.16,1.8-.49.46-1.64,2.05-6.9,2.3-7.72.24-.76-.15-1.18-.74-1.25Z"/>
        <path class="cls-3" d="m94.97,218.72c-.87-2.99-2.3-6.84-2.48-7.31-.18-.46-.77-1.7-1.18-1.7s-1,1.24-1.18,1.7c-.18.47-1.61,4.32-2.48,7.31-.24.84.06.91.18.94,1.61.21,1.32-.3,1.57-1.4.23-1,.22-1.46,1-1.46.38,0,.56.01.91.01s.54-.01.91-.01c.78,0,.77.46,1,1.46.25,1.1-.04,1.61,1.57,1.4.12-.03.42-.1.18-.94Zm-2.91-3.37h-1.51c-.14,0-.23-.07-.19-.23l.94-3.44.94,3.44c.04.16-.05.23-.19.23Z"/>
      </g>
      <g>
        <rect class="cls-3" x="76.95" y="542.36" width="6.95" height="1.9" rx=".95" ry=".95"/>
        <path d="m74.6,539.84c-.75-1.02-1.5-1.53-2.25-1.53h-.07c-.77.03-1.52.6-2.21,1.69-1.14,1.8-1.61,4.77.05,7.03.55.79,1.23,1.23,2,1.27.05,0,.11,0,.17,0,.89,0,1.7-.51,2.13-.97.96-1.01,1.3-2.33,1.3-3.62,0-1.57-.52-3.07-1.12-3.88Zm-2.22.07c.86,0,1.48,1.13,1.53,1.91.02.3,0,.48-.11.58-.07.08-.2.11-.39.12h-1.07c-.36,0-.72,0-1.04,0-.15,0-.25-.04-.32-.12-.09-.1-.14-.28-.12-.54.06-.78.73-1.96,1.52-1.96Zm-1.4,4.38c.43-.04.85-.05,1.27-.05.25,0,.51,0,.75,0,.29,0,.57,0,.85,0,.13,0,.24.09.25.21.1.84-.2,1.56-.78,1.95-.51.34-1.17.38-1.68.11-.61-.33-.93-1.04-.91-1.99,0-.12.12-.24.25-.25Z"/>
        <path class="cls-3" d="m86.81,538.79c2.1-.68,4.35-.62,5.15.12,1.3,1.2,1.17,2.8.53,3.78-.96,1.47-3.93,1.42-3.93,1.42,0,0,.29,3.22.2,3.68-.02.1-.5.53-.74.53-.26,0-.84-.18-.88-.48-.61-5.29-.67-8.32-.33-9.04Zm1.64,3.84c2.37.24,3.12-.65,2.92-2-.2-1.35-2.71-1-3.01-.85-.11,1.56-.08,1.77.09,2.85Z"/>
      </g>
      <g>
        <path class="cls-3" d="m437.12,218.22c.16.19.21.44.19.68-.03.24-.16.46-.34.61-.4.3-.98.23-1.3-.17l-2.45-3.14-2.45,3.14c-.18.23-.45.36-.72.36-.19,0-.4-.07-.57-.19-.19-.15-.32-.37-.35-.61-.03-.24.03-.49.19-.68l2.73-3.51-2.73-3.51c-.13-.17-.19-.36-.19-.57,0-.28.14-.56.36-.73.19-.15.42-.21.67-.19.24.03.47.16.61.35l2.45,3.14,2.44-3.14c.33-.41.91-.48,1.31-.16.22.17.35.43.35.72,0,.2-.07.4-.19.57l-2.73,3.51,2.73,3.51Z"/>
        <rect class="cls-3" x="437.75" y="213.76" width="6.95" height="1.9" rx=".95" ry=".95"/>
        <path class="cls-3" d="m450.25,214.57c4.39-1.93.8-6.48-3.28-4.27-.04.02-.07.06-.07.1-.38,2.63-.16,6.19.2,8.71.02.13.12.23.24.27,6.22,1.71,7.68-3.78,2.91-4.81Zm.65-2.47c0,1.13-1.98,1.51-2.74,1.51-.13-.26-.02-2.43.07-2.53.9-.25,2.67.04,2.67,1.02Zm-2.38,6.17c-.17-1.1-.2-1.41-.14-2.54.47-.06,3.32-.1,3.29,1.38-.03,1.15-2.44,1.38-3.15,1.16Z"/>
      </g>
      <g>
        <rect class="cls-3" x="527.36" y="322.66" width="6.95" height="1.9" rx=".95" ry=".95"/>
        <path class="cls-3" d="m524.72,320.35c-1.86,0-2.27,0-3.51,0-.46,0-1.11-.2-1.11-.85,0-.57.42-.88,1.07-.88,4.93,0,5.05-.05,5.58.38.28.22.43.73.15,1.14-1.71,2.48-4.64,6.6-4.64,6.6,0,0,2.47-.05,3.73-.05,1.57,0,1.46,1.88.13,1.88-8.37,0-8.83,1.14-1.4-8.22Z"/>
        <path class="cls-3" d="m537.7,321.6c0,.36.02,1.02.02,1.02,0,0,2.18.01,3.53.07.5.02.9-.07.95.78.04.6-.32.73-.87.77-1.28.09-3.49.05-3.49.05,0,0,.03,1.16.07,1.65.03.39.1.88.1.88,0,0,3.53.01,3.93,0,.33,0,.84,0,.81.84-.03.89-.42.83-.98.87-1.49.1-4.12,0-4.84-.38-1.02-.55-.79-5.46-.37-8.84.08-.67,3.98-.71,4.96-.62.44.04.67.53.67.82,0,.31,0,.87-.59.9-1.38.08-3.86.16-3.86.16,0,0-.03.8-.02,1.03Z"/>
      </g>
      <g>
        <path class="cls-3" d="m616.76,218.22c.16.19.21.44.19.68-.03.24-.16.46-.34.61-.4.3-.98.23-1.3-.17l-2.45-3.14-2.45,3.14c-.18.23-.45.36-.72.36-.19,0-.4-.07-.57-.19-.19-.15-.32-.37-.35-.61-.03-.24.03-.49.19-.68l2.73-3.51-2.73-3.51c-.13-.17-.19-.36-.19-.57,0-.28.14-.56.36-.73.19-.15.42-.21.67-.19.24.03.47.16.61.35l2.45,3.14,2.44-3.14c.33-.41.91-.48,1.31-.16.22.17.35.43.35.72,0,.2-.07.4-.19.57l-2.73,3.51,2.73,3.51Z"/>
        <rect class="cls-3" x="617.14" y="213.76" width="6.95" height="1.9" rx=".95" ry=".95"/>
        <path class="cls-3" d="m628.25,215.82c0,1.63,0,2.16,0,3.1,0,.66-.29.79-.8.79s-.93-.29-.93-.87c0-1.15-.04-6.16-.04-8.56,0-.52.34-.57.65-.57.41,0,.86.14.86.57,0,1.02.08,3.16.08,3.16,0,0,1.87-1.75,2.5-2.42.41-.44,1-.5,1.3-.14s.47.6-.1,1.15c-.85.84-1.04,1.21-2.46,2.53.83.86,2.18,1.99,3.61,3.62.45.51.34,1.14.17,1.3s-.8.24-1.19-.17-1.92-2.09-3.65-3.5Z"/>
      </g>
      <g>
        <rect class="cls-3" x="617.12" y="322.66" width="6.95" height="1.9" rx=".95" ry=".95"/>
        <path class="cls-3" d="m614.3,320.35c-1.86,0-2.27,0-3.51,0-.46,0-1.11-.2-1.11-.85,0-.57.42-.88,1.07-.88,4.93,0,5.05-.05,5.58.38.28.22.43.73.15,1.14-1.71,2.48-4.64,6.6-4.64,6.6,0,0,2.47-.05,3.73-.05,1.57,0,1.46,1.88.13,1.88-8.37,0-8.83,1.14-1.4-8.22Z"/>
        <path class="cls-3" d="m632.95,319.69v7.97c0,.82-.23.95-.84.95-.67,0-.75-.2-.75-.9,0-2.75.12-3.14-.89-3.17-.34-.02-1.3-.02-1.68,0-1.01.03-.89.42-.89,3.17,0,.7-.08.9-.75.9-.61,0-.84-.13-.84-.95v-7.97c0-.96.39-1.07.88-1.07s.71.2.71,1.04c0,2.76.11,3.25.76,3.25h1.94c.65,0,.76-.49.76-3.25,0-.84.22-1.04.71-1.04s.88.11.88,1.07Z"/>
      </g>
    </g>
  </g>
  <path class="cls-3" d="m726.55,543.92c-.11.73-.3,1.42-.58,2.11-.6,1.42-1.8,2.3-3.21,2.37h-.26c-1.41-.07-2.6-.95-3.21-2.37-.28-.67-.47-1.36-.57-2.11-.19-1.31-.24-2.6-.18-4.35.02-.47.13-.8.34-.99.14-.13.32-.19.52-.19.64.04.78.66.82,1.21,0,.18,0,.48,0,.86-.05,1.51-.14,4.35.93,5.36.21.2.58.43.94.56.35.14.73.14,1.08,0,.36-.14.74-.37.95-.56,1.06-1.01.98-3.81.93-5.33,0-.4-.02-.71,0-.89.03-.5.15-1.17.8-1.21.21,0,.39.06.52.19.22.19.33.52.34.99.08,1.8.03,3.06-.16,4.35Z"/>
  <g>
    <g>
      <g>
        <circle class="cls-3" cx="51.01" cy="171.01" r="2.5"/>
        <circle class="cls-3" cx="81.01" cy="141.01" r="2.5"/>
        <circle class="cls-3" cx="111.01" cy="171.01" r="2.5"/>
        <circle class="cls-3" cx="81.01" cy="201.01" r="2.5"/>
        <circle class="cls-3" cx="81.01" cy="171.01" r="1.13"/>
      </g>
      <g>
        <circle class="cls-3" cx="261" cy="201" r="2.5"/>
        <circle class="cls-3" cx="291" cy="171" r="2.5"/>
        <circle class="cls-3" cx="261" cy="141" r="2.5"/>
        <circle class="cls-3" cx="231" cy="171" r="2.5"/>
        <circle class="cls-3" cx="261" cy="171" r="1.12"/>
      </g>
      <g>
        <circle class="cls-3" cx="141" cy="171" r="2.5"/>
        <circle class="cls-3" cx="171" cy="141" r="2.5"/>
        <circle class="cls-3" cx="201" cy="171" r="2.5"/>
        <circle class="cls-3" cx="171" cy="201" r="2.5"/>
        <circle class="cls-3" cx="171" cy="171" r="1.13"/>
      </g>
      <g>
        <circle class="cls-3" cx="351" cy="201" r="2.5"/>
        <circle class="cls-3" cx="381" cy="171" r="2.5"/>
        <circle class="cls-3" cx="351" cy="141" r="2.5"/>
        <circle class="cls-3" cx="321" cy="171" r="2.5"/>
        <circle class="cls-3" cx="351" cy="171" r="1.12"/>
      </g>
      <g>
        <circle class="cls-3" cx="501" cy="171" r="2.5"/>
        <circle class="cls-3" cx="531" cy="141" r="2.5"/>
        <circle class="cls-3" cx="561" cy="171" r="2.5"/>
        <circle class="cls-3" cx="531" cy="201" r="2.5"/>
        <circle class="cls-3" cx="531" cy="171" r="1.13"/>
      </g>
      <g>
        <circle class="cls-3" cx="711" cy="201" r="2.5"/>
        <circle class="cls-3" cx="741" cy="171" r="2.5"/>
        <circle class="cls-3" cx="711" cy="141" r="2.5"/>
        <circle class="cls-3" cx="681" cy="171" r="2.5"/>
        <circle class="cls-3" cx="711" cy="171" r="1.12"/>
      </g>
      <g>
        <circle class="cls-3" cx="411" cy="171" r="2.5"/>
        <circle class="cls-3" cx="441" cy="141" r="2.5"/>
        <circle class="cls-3" cx="471" cy="171" r="2.5"/>
        <circle class="cls-3" cx="441" cy="201" r="2.5"/>
        <circle class="cls-3" cx="441" cy="171" r="1.13"/>
      </g>
      <g>
        <circle class="cls-3" cx="621" cy="201" r="2.5"/>
        <circle class="cls-3" cx="651" cy="171" r="2.5"/>
        <circle class="cls-3" cx="621" cy="141" r="2.5"/>
        <circle class="cls-3" cx="591" cy="171" r="2.5"/>
        <circle class="cls-3" cx="621" cy="171" r="1.12"/>
      </g>
    </g>
    <g>
      <g>
        <circle class="cls-3" cx="81" cy="251" r="2.5"/>
        <circle class="cls-3" cx="111" cy="281" r="2.5"/>
        <circle class="cls-3" cx="81" cy="311" r="2.5"/>
        <circle class="cls-3" cx="51" cy="281" r="2.5"/>
        <circle class="cls-3" cx="81" cy="281" r="1.12"/>
      </g>
      <g>
        <circle class="cls-3" cx="291" cy="281" r="2.5"/>
        <circle class="cls-3" cx="261" cy="251" r="2.5"/>
        <circle class="cls-3" cx="231" cy="281" r="2.5"/>
        <circle class="cls-3" cx="261" cy="311" r="2.5"/>
        <circle class="cls-3" cx="261" cy="281" r="1.12"/>
      </g>
      <g>
        <circle class="cls-3" cx="171" cy="251" r="2.5"/>
        <circle class="cls-3" cx="201" cy="281" r="2.5"/>
        <circle class="cls-3" cx="171" cy="311" r="2.5"/>
        <circle class="cls-3" cx="141" cy="281" r="2.5"/>
        <circle class="cls-3" cx="171" cy="281" r="1.12"/>
      </g>
      <g>
        <circle class="cls-3" cx="381" cy="281" r="2.5"/>
        <circle class="cls-3" cx="351" cy="251" r="2.5"/>
        <circle class="cls-3" cx="321" cy="281" r="2.5"/>
        <circle class="cls-3" cx="351" cy="311" r="2.5"/>
        <circle class="cls-3" cx="351" cy="281" r="1.13"/>
      </g>
      <g>
        <circle class="cls-3" cx="441" cy="251" r="2.5"/>
        <circle class="cls-3" cx="471" cy="281" r="2.5"/>
        <circle class="cls-3" cx="441" cy="311" r="2.5"/>
        <circle class="cls-3" cx="411" cy="281" r="2.5"/>
        <circle class="cls-3" cx="441" cy="281" r="1.12"/>
      </g>
      <g>
        <circle class="cls-3" cx="741" cy="281" r="2.5"/>
        <circle class="cls-3" cx="711" cy="251" r="2.5"/>
        <circle class="cls-3" cx="681" cy="281" r="2.5"/>
        <circle class="cls-3" cx="711" cy="311" r="2.5"/>
        <circle class="cls-3" cx="711" cy="281" r="1.12"/>
      </g>
      <g>
        <circle class="cls-3" cx="531" cy="251" r="2.5"/>
        <circle class="cls-3" cx="561" cy="281" r="2.5"/>
        <circle class="cls-3" cx="531" cy="311" r="2.5"/>
        <circle class="cls-3" cx="501" cy="281" r="2.5"/>
        <circle class="cls-3" cx="531" cy="281" r="1.12"/>
      </g>
      <g>
        <circle class="cls-3" cx="651" cy="281" r="2.5"/>
        <circle class="cls-3" cx="621" cy="251" r="2.5"/>
        <circle class="cls-3" cx="591" cy="281" r="2.5"/>
        <circle class="cls-3" cx="621" cy="311" r="2.5"/>
        <circle class="cls-3" cx="621" cy="281" r="1.12"/>
      </g>
    </g>
    <g>
      <g>
        <circle class="cls-3" cx="81" cy="361" r="2.5"/>
        <circle class="cls-3" cx="111" cy="391" r="2.5"/>
        <circle class="cls-3" cx="81" cy="421" r="2.5"/>
        <circle class="cls-3" cx="51" cy="391" r="2.5"/>
        <circle class="cls-3" cx="81" cy="391" r="1.12"/>
      </g>
      <g>
        <circle class="cls-3" cx="231" cy="391" r="2.5"/>
        <circle class="cls-3" cx="261" cy="361" r="2.5"/>
        <circle class="cls-3" cx="291" cy="391" r="2.5"/>
        <circle class="cls-3" cx="261" cy="421" r="2.5"/>
        <circle class="cls-3" cx="261" cy="391" r="1.12"/>
      </g>
      <g>
        <circle class="cls-3" cx="171" cy="361" r="2.5"/>
        <circle class="cls-3" cx="201" cy="391" r="2.5"/>
        <circle class="cls-3" cx="171" cy="421" r="2.5"/>
        <circle class="cls-3" cx="141" cy="391" r="2.5"/>
        <circle class="cls-3" cx="171" cy="391" r="1.12"/>
      </g>
      <g>
        <circle class="cls-3" cx="321" cy="391" r="2.5"/>
        <circle class="cls-3" cx="351" cy="361" r="2.5"/>
        <circle class="cls-3" cx="381" cy="391" r="2.5"/>
        <circle class="cls-3" cx="351" cy="421" r="2.5"/>
        <circle class="cls-3" cx="351" cy="391" r="1.12"/>
      </g>
      <g>
        <circle class="cls-3" cx="531" cy="361" r="2.5"/>
        <circle class="cls-3" cx="561" cy="391" r="2.5"/>
        <circle class="cls-3" cx="531" cy="421" r="2.5"/>
        <circle class="cls-3" cx="501" cy="391" r="2.5"/>
        <circle class="cls-3" cx="531" cy="391" r="1.12"/>
      </g>
      <g>
        <circle class="cls-3" cx="681" cy="391" r="2.5"/>
        <circle class="cls-3" cx="711" cy="361" r="2.5"/>
        <circle class="cls-3" cx="741" cy="391" r="2.5"/>
        <circle class="cls-3" cx="711" cy="421" r="2.5"/>
        <circle class="cls-3" cx="711" cy="391" r="1.12"/>
      </g>
      <g>
        <circle class="cls-3" cx="441" cy="361" r="2.5"/>
        <circle class="cls-3" cx="471" cy="391" r="2.5"/>
        <circle class="cls-3" cx="441" cy="421" r="2.5"/>
        <circle class="cls-3" cx="411" cy="391" r="2.5"/>
        <circle class="cls-3" cx="441" cy="391" r="1.12"/>
      </g>
      <g>
        <circle class="cls-3" cx="591" cy="391" r="2.5"/>
        <circle class="cls-3" cx="621" cy="361" r="2.5"/>
        <circle class="cls-3" cx="651" cy="391" r="2.5"/>
        <circle class="cls-3" cx="621" cy="421" r="2.5"/>
        <circle class="cls-3" cx="621" cy="391" r="1.13"/>
      </g>
    </g>
    <g>
      <g>
        <circle class="cls-3" cx="261" cy="471" r="2.5"/>
        <circle class="cls-3" cx="291" cy="501" r="2.5"/>
        <circle class="cls-3" cx="261" cy="531" r="2.5"/>
        <circle class="cls-3" cx="231" cy="501" r="2.5"/>
        <circle class="cls-3" cx="261" cy="501" r="1.12"/>
      </g>
      <g>
        <circle class="cls-3" cx="51" cy="501" r="2.5"/>
        <circle class="cls-3" cx="81" cy="531" r="2.5"/>
        <circle class="cls-3" cx="111" cy="501" r="2.5"/>
        <circle class="cls-3" cx="81" cy="471" r="2.5"/>
        <circle class="cls-3" cx="81" cy="501" r="1.12"/>
      </g>
      <g>
        <circle class="cls-3" cx="351" cy="471" r="2.5"/>
        <circle class="cls-3" cx="381" cy="501" r="2.5"/>
        <circle class="cls-3" cx="351" cy="531" r="2.5"/>
        <circle class="cls-3" cx="321" cy="501" r="2.5"/>
        <circle class="cls-3" cx="351" cy="501" r="1.12"/>
      </g>
      <g>
        <circle class="cls-3" cx="141" cy="501" r="2.5"/>
        <circle class="cls-3" cx="171" cy="531" r="2.5"/>
        <circle class="cls-3" cx="201" cy="501" r="2.5"/>
        <circle class="cls-3" cx="171" cy="471" r="2.5"/>
        <circle class="cls-3" cx="171" cy="501" r="1.12"/>
      </g>
      <g>
        <circle class="cls-3" cx="711" cy="471" r="2.5"/>
        <circle class="cls-3" cx="741" cy="501" r="2.5"/>
        <circle class="cls-3" cx="711" cy="531" r="2.5"/>
        <circle class="cls-3" cx="681" cy="501" r="2.5"/>
        <circle class="cls-3" cx="711" cy="501" r="1.12"/>
      </g>
      <g>
        <circle class="cls-3" cx="501" cy="501" r="2.5"/>
        <circle class="cls-3" cx="531" cy="531" r="2.5"/>
        <circle class="cls-3" cx="561" cy="501" r="2.5"/>
        <circle class="cls-3" cx="531" cy="471" r="2.5"/>
        <circle class="cls-3" cx="531" cy="501" r="1.12"/>
      </g>
      <g>
        <circle class="cls-3" cx="621" cy="471" r="2.5"/>
        <circle class="cls-3" cx="651" cy="501" r="2.5"/>
        <circle class="cls-3" cx="621" cy="531" r="2.5"/>
        <circle class="cls-3" cx="591" cy="501" r="2.5"/>
        <circle class="cls-3" cx="621" cy="501" r="1.12"/>
      </g>
      <g>
        <circle class="cls-3" cx="411" cy="501" r="2.5"/>
        <circle class="cls-3" cx="441" cy="531" r="2.5"/>
        <circle class="cls-3" cx="471" cy="501" r="2.5"/>
        <circle class="cls-3" cx="441" cy="471" r="2.5"/>
        <circle class="cls-3" cx="441" cy="501" r="1.12"/>
      </g>
    </g>
  </g>
  <g>
    <line class="cls-11" x1="48.5" y1="233.97" x2="743.5" y2="233.97"/>
    <line class="cls-11" x1="48.5" y1="343.97" x2="743.5" y2="343.97"/>
    <line class="cls-11" x1="396" y1="138.5" x2="396" y2="551.75"/>
    <line class="cls-11" x1="48.5" y1="453.97" x2="743.5" y2="453.97"/>
  </g>
  <g>
    <g>
      <rect class="cls-10" x="82.76" y="169.76" width="25" height="2.5" rx=".99" ry=".99" transform="translate(190.53 342.03) rotate(180)"/>
      <rect class="cls-8" x="54.27" y="169.76" width="25" height="2.5" rx=".99" ry=".99"/>
      <rect class="cls-10" x="82.75" y="279.75" width="25" height="2.5" rx=".99" ry=".99" transform="translate(190.5 562) rotate(-180)"/>
      <rect class="cls-8" x="54.25" y="279.75" width="25" height="2.5" rx=".99" ry=".99"/>
      <rect class="cls-10" x="82.75" y="389.75" width="25" height="2.5" rx=".99" ry=".99" transform="translate(190.5 782) rotate(180)"/>
      <rect class="cls-8" x="68.5" y="375.5" width="25" height="2.5" rx=".99" ry=".99" transform="translate(457.75 295.75) rotate(90)"/>
      <rect class="cls-10" x="262.75" y="499.75" width="25" height="2.5" rx=".99" ry=".99" transform="translate(550.5 1002) rotate(-180)"/>
      <rect class="cls-8" x="248.5" y="514" width="25" height="2.5" rx=".99" ry=".99" transform="translate(-254.25 776.25) rotate(-90)"/>
      <rect class="cls-10" x="68.5" y="485.5" width="25" height="2.5" rx=".99" ry=".99" transform="translate(567.75 405.75) rotate(90)"/>
      <rect class="cls-8" x="82.75" y="499.75" width="25" height="2.5" rx=".99" ry=".99" transform="translate(190.5 1002) rotate(-180)"/>
      <rect class="cls-10" x="248.5" y="404" width="25" height="2.5" rx=".99" ry=".99" transform="translate(-144.25 666.25) rotate(-90)"/>
      <rect class="cls-8" x="234.25" y="389.75" width="25" height="2.5" rx=".99" ry=".99"/>
      <rect class="cls-10" x="250.52" y="183.98" width="25" height="2.5" rx=".99" ry=".99" transform="translate(77.8 448.25) rotate(-90)"/>
      <rect class="cls-8" x="246.52" y="183.98" width="25" height="2.5" rx=".99" ry=".99" transform="translate(73.8 444.25) rotate(-90)"/>
      <rect class="cls-10" x="250.52" y="293.98" width="25" height="2.5" rx=".99" ry=".99" transform="translate(-32.2 558.25) rotate(-90)"/>
      <rect class="cls-8" x="246.52" y="293.98" width="25" height="2.5" rx=".99" ry=".99" transform="translate(-36.2 554.25) rotate(-90)"/>
    </g>
    <g>
      <rect class="cls-10" x="172.75" y="169.75" width="25" height="2.5" rx=".99" ry=".99" transform="translate(370.5 342) rotate(180)"/>
      <rect class="cls-8" x="144.25" y="169.75" width="25" height="2.5" rx=".99" ry=".99"/>
      <rect class="cls-10" x="172.75" y="279.75" width="25" height="2.5" rx=".99" ry=".99" transform="translate(370.5 562) rotate(-180)"/>
      <rect class="cls-8" x="144.25" y="279.75" width="25" height="2.5" rx=".99" ry=".99"/>
      <rect class="cls-10" x="172.75" y="389.75" width="25" height="2.5" rx=".99" ry=".99" transform="translate(370.5 782) rotate(180)"/>
      <rect class="cls-8" x="158.5" y="375.5" width="25" height="2.5" rx=".99" ry=".99" transform="translate(547.75 205.75) rotate(90)"/>
      <rect class="cls-10" x="352.75" y="499.75" width="25" height="2.5" rx=".99" ry=".99" transform="translate(730.5 1002) rotate(-180)"/>
      <rect class="cls-8" x="338.5" y="514" width="25" height="2.5" rx=".99" ry=".99" transform="translate(-164.25 866.25) rotate(-90)"/>
      <rect class="cls-10" x="158.5" y="485.5" width="25" height="2.5" rx=".99" ry=".99" transform="translate(657.75 315.75) rotate(90)"/>
      <rect class="cls-8" x="172.75" y="499.75" width="25" height="2.5" rx=".99" ry=".99" transform="translate(370.5 1002) rotate(-180)"/>
      <rect class="cls-10" x="338.5" y="404" width="25" height="2.5" rx=".99" ry=".99" transform="translate(-54.25 756.25) rotate(-90)"/>
      <rect class="cls-8" x="324.25" y="389.75" width="25" height="2.5" rx=".99" ry=".99"/>
      <rect class="cls-10" x="340.52" y="183.98" width="25" height="2.5" rx=".99" ry=".99" transform="translate(167.8 538.25) rotate(-90)"/>
      <rect class="cls-8" x="336.52" y="183.98" width="25" height="2.5" rx=".99" ry=".99" transform="translate(163.8 534.25) rotate(-90)"/>
      <rect class="cls-10" x="340.52" y="293.98" width="25" height="2.5" rx=".99" ry=".99" transform="translate(57.8 648.25) rotate(-90)"/>
      <rect class="cls-8" x="336.52" y="293.98" width="25" height="2.5" rx=".99" ry=".99" transform="translate(53.8 644.25) rotate(-90)"/>
    </g>
    <g>
      <rect class="cls-10" x="532.75" y="169.75" width="25" height="2.5" rx=".99" ry=".99" transform="translate(1090.5 342) rotate(180)"/>
      <rect class="cls-8" x="504.25" y="169.75" width="25" height="2.5" rx=".99" ry=".99"/>
      <rect class="cls-10" x="442.75" y="279.75" width="25" height="2.5" rx=".99" ry=".99" transform="translate(910.5 562) rotate(-180)"/>
      <rect class="cls-8" x="414.25" y="279.75" width="25" height="2.5" rx=".99" ry=".99"/>
      <rect class="cls-10" x="532.75" y="389.75" width="25" height="2.5" rx=".99" ry=".99" transform="translate(1090.5 782) rotate(180)"/>
      <rect class="cls-8" x="518.5" y="375.5" width="25" height="2.5" rx=".99" ry=".99" transform="translate(907.75 -154.25) rotate(90)"/>
      <rect class="cls-10" x="712.75" y="499.75" width="25" height="2.5" rx=".99" ry=".99" transform="translate(1450.5 1002) rotate(-180)"/>
      <rect class="cls-8" x="698.5" y="514" width="25" height="2.5" rx=".99" ry=".99" transform="translate(195.75 1226.25) rotate(-90)"/>
      <rect class="cls-10" x="518.5" y="485.5" width="25" height="2.5" rx=".99" ry=".99" transform="translate(1017.75 -44.25) rotate(90)"/>
      <rect class="cls-8" x="532.75" y="499.75" width="25" height="2.5" rx=".99" ry=".99" transform="translate(1090.5 1002) rotate(-180)"/>
      <rect class="cls-10" x="698.5" y="404" width="25" height="2.5" rx=".99" ry=".99" transform="translate(305.75 1116.25) rotate(-90)"/>
      <rect class="cls-8" x="684.25" y="389.75" width="25" height="2.5" rx=".99" ry=".99"/>
      <rect class="cls-10" x="700.52" y="183.98" width="25" height="2.5" rx=".99" ry=".99" transform="translate(527.8 898.25) rotate(-90)"/>
      <rect class="cls-8" x="696.52" y="183.98" width="25" height="2.5" rx=".99" ry=".99" transform="translate(523.8 894.25) rotate(-90)"/>
      <rect class="cls-10" x="700.52" y="293.98" width="25" height="2.5" rx=".99" ry=".99" transform="translate(417.8 1008.25) rotate(-90)"/>
      <rect class="cls-8" x="696.52" y="293.98" width="25" height="2.5" rx=".99" ry=".99" transform="translate(413.8 1004.25) rotate(-90)"/>
    </g>
    <g>
      <rect class="cls-10" x="442.75" y="169.75" width="25" height="2.5" rx=".99" ry=".99" transform="translate(910.5 342) rotate(180)"/>
      <rect class="cls-8" x="414.25" y="169.75" width="25" height="2.5" rx=".99" ry=".99"/>
      <rect class="cls-10" x="532.75" y="279.75" width="25" height="2.5" rx=".99" ry=".99" transform="translate(1090.5 562) rotate(-180)"/>
      <rect class="cls-8" x="504.25" y="279.75" width="25" height="2.5" rx=".99" ry=".99"/>
      <rect class="cls-10" x="442.75" y="389.75" width="25" height="2.5" rx=".99" ry=".99" transform="translate(910.5 782) rotate(180)"/>
      <rect class="cls-8" x="428.5" y="375.5" width="25" height="2.5" rx=".99" ry=".99" transform="translate(817.75 -64.25) rotate(90)"/>
      <rect class="cls-10" x="622.75" y="499.75" width="25" height="2.5" rx=".99" ry=".99" transform="translate(1270.5 1002) rotate(-180)"/>
      <rect class="cls-8" x="608.5" y="514" width="25" height="2.5" rx=".99" ry=".99" transform="translate(105.75 1136.25) rotate(-90)"/>
      <rect class="cls-10" x="428.5" y="485.5" width="25" height="2.5" rx=".99" ry=".99" transform="translate(927.75 45.75) rotate(90)"/>
      <rect class="cls-8" x="442.75" y="499.75" width="25" height="2.5" rx=".99" ry=".99" transform="translate(910.5 1002) rotate(-180)"/>
      <rect class="cls-10" x="608.5" y="404" width="25" height="2.5" rx=".99" ry=".99" transform="translate(215.75 1026.25) rotate(-90)"/>
      <rect class="cls-8" x="594.25" y="389.75" width="25" height="2.5" rx=".99" ry=".99"/>
      <rect class="cls-10" x="610.52" y="183.98" width="25" height="2.5" rx=".99" ry=".99" transform="translate(437.8 808.25) rotate(-90)"/>
      <rect class="cls-8" x="606.52" y="183.98" width="25" height="2.5" rx=".99" ry=".99" transform="translate(433.8 804.25) rotate(-90)"/>
      <rect class="cls-10" x="610.52" y="293.98" width="25" height="2.5" rx=".99" ry=".99" transform="translate(327.8 918.25) rotate(-90)"/>
      <rect class="cls-8" x="606.52" y="293.98" width="25" height="2.5" rx=".99" ry=".99" transform="translate(323.8 914.25) rotate(-90)"/>
    </g>
  </g>
</svg>