<?xml version="1.0" encoding="UTF-8"?>
<svg id="Layer_1" data-name="Layer 1" xmlns="http://www.w3.org/2000/svg" viewBox="0 0 792 612">
  <defs>
    <style>
      .cls-1 {
        font-family: MonotypeCorsiva, 'Monotype Corsiva';
        font-size: 40px;
      }

      .cls-1, .cls-2, .cls-3 {
        fill: #231f20;
      }

      .cls-4 {
        letter-spacing: 0em;
      }

      .cls-4, .cls-5 {
        fill: #00a14b;
      }

      .cls-6 {
        font-family: Cambria-BoldItalic, Cambria;
        font-size: 25px;
        font-style: italic;
        font-weight: 700;
      }

      .cls-7 {
        fill: #00aeef;
      }

      .cls-8 {
        fill: #2e3192;
      }

      .cls-2 {
        letter-spacing: -.03em;
      }

      .cls-9 {
        fill: #7f3f98;
      }

      .cls-10 {
        fill: #ed1c24;
      }

      .cls-11 {
        fill: none;
        stroke: #231f20;
        stroke-miterlimit: 10;
        stroke-width: .5px;
      }
    </style>
  </defs>
  <text class="cls-1" transform="translate(295.91 48.27)"><tspan x="0" y="0">Prop-Reversal</tspan></text>
  <text class="cls-6" transform="translate(335.79 78.27)"><tspan class="cls-3" x="0" y="0">Type 3 → 1</tspan><tspan class="cls-4" x="-68.88" y="30">Cr</tspan><tspan class="cls-5" x="-44.17" y="30">oss</tspan><tspan class="cls-2" x="-8.55" y="30">-</tspan><tspan class="cls-9" x="-1.15" y="30">Shift</tspan><tspan class="cls-3" x="50.52" y="30">→</tspan><tspan class="cls-7" x="71.47" y="30">Dual</tspan><tspan class="cls-2" x="124.71" y="30">-</tspan><tspan class="cls-9" x="132.11" y="30">Shift</tspan><tspan class="cls-3" x="183.78" y="30"> </tspan></text>
  <g>
    <path class="cls-8" d="m530.73,200.79c.95,0,3.07-.3,3.07-3.16q0-19.31,18.39-19.34c0-.06,1.07-.09,1.07-.99,0-.9-.84-.99-.84-1.02-19.62,0-20.66-.24-20.66,21.16,0,.59-.5,1.06-1.1,1.06-13.11,0-25.34-7.32-25.34-20.93l2.74,2.9s1.15-1.1.5-1.98c-.74-1-4.33-4.22-4.33-4.22,0,0-3.45,2.96-4.37,4.22-.64.88.54,1.98.54,1.98l2.77-2.83c0,14.83,13.18,23.15,27.56,23.15Z"/>
    <path class="cls-8" d="m682.39,386.15c0-.95.3-3.07,3.16-3.07q19.31,0,19.34-18.39c.06,0,.09-1.07.99-1.07s.99.84,1.02.84c0,19.62.24,20.66-21.16,20.66-.59,0-1.06.5-1.06,1.1,0,13.11,7.32,25.34,20.93,25.34l-2.9-2.74s1.1-1.15,1.98-.5c1,.74,4.22,4.33,4.22,4.33,0,0-2.96,3.45-4.22,4.37-.88.64-1.98-.54-1.98-.54l2.83-2.77c-14.83,0-23.15-13.18-23.15-27.56Z"/>
    <path class="cls-8" d="m529.68,358.15c-.95,0-3.07.3-3.07,3.16q0,19.31-18.39,19.34c0,.06-1.07.09-1.07.99,0,.9.84.99.84,1.02,19.62,0,20.66.24,20.66-21.16,0-.59.5-1.06,1.1-1.06,13.11,0,25.34,7.32,25.34,20.93l-2.74-2.9s-1.15,1.1-.5,1.98c.74,1,4.33,4.22,4.33,4.22,0,0,3.45-2.96,4.37-4.22.64-.88-.54-1.98-.54-1.98l-2.77,2.83c0-14.83-13.18-23.15-27.56-23.15Z"/>
    <path class="cls-8" d="m701.56,533.96c-.95,0-3.07-.3-3.07-3.16q0-19.31-18.39-19.34c0-.06-1.07-.09-1.07-.99,0-.9.84-.99.84-1.02,19.62,0,20.66-.24,20.66,21.16,0,.59.5,1.06,1.1,1.06,13.11,0,25.34-7.32,25.34-20.93l-2.74,2.9s-1.15-1.1-.5-1.98c.74-1,4.33-4.22,4.33-4.22,0,0,3.45,2.96,4.37,4.22.64.88-.54,1.98-.54,1.98l-2.77-2.83c0,14.83-13.18,23.15-27.56,23.15Z"/>
    <path class="cls-8" d="m502.51,508.88c0,.95.3,3.07,3.16,3.07q19.31,0,19.34,18.39c.06,0,.09,1.07.99,1.07.9,0,.99-.84,1.02-.84,0-19.62.24-20.66-21.16-20.66-.59,0-1.06-.5-1.06-1.1,0-13.11,7.32-25.34,20.93-25.34l-2.9,2.74s1.1,1.15,1.98.5c1-.74,4.22-4.33,4.22-4.33,0,0-2.96-3.45-4.22-4.37-.88-.64-1.98.54-1.98.54l2.83,2.77c-14.83,0-23.15,13.18-23.15,27.56Z"/>
    <path class="cls-8" d="m680.18,167.86c0-.95.3-3.07,3.16-3.07q19.31,0,19.34-18.39c.06,0,.09-1.07.99-1.07s.99.84,1.02.84c0,19.62.24,20.66-21.16,20.66-.59,0-1.06.5-1.06,1.1,0,13.11,7.32,25.34,20.93,25.34l-2.9-2.74s1.1-1.15,1.98-.5c1,.74,4.22,4.33,4.22,4.33,0,0-2.96,3.45-4.22,4.37-.88.64-1.98-.54-1.98-.54l2.83-2.77c-14.83,0-23.15-13.18-23.15-27.56Z"/>
    <path class="cls-8" d="m741.53,278.11c0-.95-.3-3.07-3.16-3.07q-19.31,0-19.34-18.39c-.06,0-.09-1.07-.99-1.07s-.99.84-1.02.84c0,19.62-.24,20.66,21.16,20.66.59,0,1.06.5,1.06,1.1,0,13.11-7.32,25.34-20.93,25.34l2.9-2.74s-1.1-1.15-1.98-.5c-1,.74-4.22,4.33-4.22,4.33,0,0,2.96,3.45,4.22,4.37.88.64,1.98-.54,1.98-.54l-2.83-2.77c14.83,0,23.15-13.18,23.15-27.56Z"/>
    <path class="cls-8" d="m529.37,251.72c.95,0,3.07.3,3.07,3.16q0,19.31,18.39,19.34c0,.06,1.07.09,1.07.99,0,.9-.84.99-.84,1.02-19.62,0-20.66.24-20.66-21.16,0-.59-.5-1.06-1.1-1.06-13.11,0-25.34,7.32-25.34,20.93l2.74-2.9s1.15,1.1.5,1.98c-.74,1-4.33,4.22-4.33,4.22,0,0-3.45-2.96-4.37-4.22-.64-.88.54-1.98.54-1.98l2.77,2.83c0-14.83,13.18-23.15,27.56-23.15Z"/>
    <path class="cls-8" d="m148.38,179.48l2.9,2.74s-1.1,1.15-1.98.5c-1-.74-4.22-4.33-4.22-4.33,0,0,2.96-3.45,4.22-4.37.88-.64,1.98.54,1.98.54l-2.9,2.84c17.84,0,20.22-1.75,20.22,21.14,0,.59.31,1.07.9,1.06,13.05-.26,24.2-10.44,25.17-23.53,0,0,.09-1.48,1.23-1.39,1.19.09,1,1.59,1,1.59-1.2,13.85-11.98,25.23-28.47,25.62-.95.02-1.88-.71-1.88-1.66,0-21.94-.7-20.76-18.17-20.76Z"/>
    <path class="cls-8" d="m343.54,413.62l-2.74-2.9s-1.15,1.1-.5,1.98c.74,1,4.33,4.22,4.33,4.22,0,0,3.45-2.96,4.37-4.22.64-.88-.54-1.98-.54-1.98l-2.84,2.9c0-17.84,1.75-20.22-21.14-20.22-.59,0-1.07-.31-1.06-.9.26-13.05,10.44-24.2,23.53-25.17,0,0,1.48-.09,1.39-1.23-.09-1.19-1.59-1-1.59-1-13.85,1.2-25.23,11.98-25.62,28.47-.02.95.71,1.88,1.66,1.88,21.94,0,20.76.7,20.76,18.17Z"/>
    <path class="cls-8" d="m192.96,380.27l-2.9-2.74s1.1-1.15,1.98-.5c1,.74,4.22,4.33,4.22,4.33,0,0-2.96,3.45-4.22,4.37-.88.64-1.98-.54-1.98-.54l2.9-2.84c-17.84,0-20.22,1.75-20.22-21.14,0-.59-.31-1.07-.9-1.06-13.05.26-24.2,10.44-25.17,23.53,0,0-.09,1.48-1.23,1.39-1.19-.09-1-1.59-1-1.59,1.2-13.85,11.98-25.23,28.47-25.62.95-.02,1.88.71,1.88,1.66,0,21.94.7,20.76,18.17,20.76Z"/>
    <path class="cls-8" d="m341.65,198.98l-2.74-2.9s-1.15,1.1-.5,1.98c.74,1,4.33,4.22,4.33,4.22,0,0,3.45-2.96,4.37-4.22.64-.88-.54-1.98-.54-1.98l-2.84,2.9c0-17.84,1.75-20.22-21.14-20.22-.59,0-1.07-.31-1.06-.9.26-13.05,10.44-24.2,23.53-25.17,0,0,1.48-.09,1.39-1.23-.09-1.19-1.59-1-1.59-1-13.85,1.2-25.23,11.98-25.62,28.47-.02.95.71,1.88,1.66,1.88,21.94,0,20.76.7,20.76,18.17Z"/>
    <path class="cls-8" d="m362.87,308.95l2.74-2.9s1.15,1.1.5,1.98c-.74,1-4.33,4.22-4.33,4.22,0,0-3.45-2.96-4.37-4.22-.64-.88.54-1.98.54-1.98l2.84,2.9c0-17.84-1.75-20.22,21.14-20.22.59,0,1.07-.31,1.06-.9-.26-13.05-10.44-24.2-23.53-25.17,0,0-1.48-.09-1.39-1.23.09-1.19,1.59-1,1.59-1,13.85,1.2,25.23,11.98,25.62,28.47.02.95-.71,1.88-1.66,1.88-21.94,0-20.76.7-20.76,18.17Z"/>
    <path class="cls-8" d="m377.04,513.15l-2.9,2.74s1.1,1.15,1.98.5c1-.74,4.22-4.33,4.22-4.33,0,0-2.96-3.45-4.22-4.37-.88-.64-1.98.54-1.98.54l2.9,2.84c-17.84,0-20.22-1.75-20.22,21.14,0,.59-.31,1.07-.9,1.06-13.05-.26-24.2-10.44-25.17-23.53,0,0-.09-1.48-1.23-1.39-1.19.09-1,1.59-1,1.59,1.2,13.85,11.98,25.23,28.47,25.62.95.02,1.88-.71,1.88-1.66,0-21.94.7-20.76,18.17-20.76Z"/>
    <path class="cls-8" d="m163.1,477.24l-2.74,2.9s-1.15-1.1-.5-1.98c.74-1,4.33-4.22,4.33-4.22,0,0,3.45,2.96,4.37,4.22.64.88-.54,1.98-.54,1.98l-2.84-2.9c0,17.84,1.75,20.22-21.14,20.22-.59,0-1.07.31-1.06.9.26,13.05,10.44,24.2,23.53,25.17,0,0,1.48.09,1.39,1.23-.09,1.19-1.59,1-1.59,1-13.85-1.2-25.23-11.98-25.62-28.47-.02-.95.71-1.88,1.66-1.88,21.94,0,20.76-.7,20.76-18.17Z"/>
    <path class="cls-8" d="m147.01,273.1l2.9-2.74s-1.1-1.15-1.98-.5c-1,.74-4.22,4.33-4.22,4.33,0,0,2.96,3.45,4.22,4.37.88.64,1.98-.54,1.98-.54l-2.9-2.84c17.84,0,20.22,1.75,20.22-21.14,0-.59.31-1.07.9-1.06,13.05.26,24.2,10.44,25.17,23.53,0,0,.09,1.48,1.23,1.39,1.19-.09,1-1.59,1-1.59-1.2-13.85-11.98-25.23-28.47-25.62-.95-.02-1.88.71-1.88,1.66,0,21.94-.7,20.76-18.17,20.76Z"/>
    <path class="cls-10" d="m705.13,528.06s3.23-2.77,4.09-3.95c.59-.82-.5-1.87-.5-1.87l-2.77,2.73c.42-10.1-.99-15.8-6.85-18.46h35.25c1.54-.01,1.55-1.92,0-1.92h-49.51c-.22,0-.4.07-.52.19-.05.03-.09.07-.11.11-.11.13-.18.3-.21.51-.02.11-.02.22,0,.33.04.63.42.96.81.96,16.52-.3,19.77,2.8,19.39,18.28l-2.66-2.73s-1.08,1.05-.47,1.87c.68.94,4.06,3.95,4.06,3.95Z"/>
    <path class="cls-10" d="m539.6,363.92s-3.23,2.77-4.09,3.95c-.59.82.5,1.87.5,1.87l2.77-2.73c-.42,10.1.99,15.8,6.85,18.46h-35.25c-1.54.01-1.55,1.92,0,1.92h49.51c.22,0,.4-.07.52-.19.05-.03.09-.07.11-.11.11-.13.18-.3.21-.51.02-.11.02-.22,0-.33-.04-.63-.42-.96-.81-.96-16.52.3-19.77-2.8-19.39-18.28l2.66,2.73s1.08-1.05.47-1.87c-.68-.94-4.06-3.95-4.06-3.95Z"/>
    <path class="cls-10" d="m359.65,202.12c-1.15-.71-3.89-4.14-3.89-4.14,0,0,2.73-3.27,3.89-4.13.83-.6,1.91.5,1.91.5l-2.68,2.68c8.19.1,19.25-2.8,19.36-19.26,0-.18-.15-.34-.33-.34h-47.97c-1.54,0-1.55-1.91,0-1.91,0,0,48.95-.01,49.51-.01.56,0,.97.64.97,1.68,0,11.99-6.82,22.3-21.54,21.82l2.68,2.6s-1.04,1.03-1.91.49Z"/>
    <path class="cls-10" d="m739.98,399.22s-2.77-3.23-3.95-4.09c-.82-.59-1.87.5-1.87.5l2.73,2.77c-10.1-.42-15.8.99-18.46,6.85v-35.25c-.01-1.54-1.92-1.55-1.92,0v49.51c0,.22.07.4.19.52.03.05.07.09.11.11.13.11.3.18.51.21.11.02.22.02.33,0,.63-.04.96-.42.96-.81-.3-16.52,2.8-19.77,18.28-19.39l-2.73,2.66s1.05,1.08,1.87.47c.94-.68,3.95-4.06,3.95-4.06Z"/>
    <path class="cls-10" d="m382.16,398.24c-.71-1.15-4.14-3.89-4.14-3.89,0,0-3.27,2.73-4.13,3.89-.6.83.5,1.91.5,1.91l2.68-2.68c.1,8.19-2.8,19.25-19.26,19.36-.18,0-.34-.15-.34-.33v-47.97c0-1.54-1.91-1.55-1.91,0,0,0-.01,48.95-.01,49.51,0,.56.64.97,1.68.97,11.99,0,22.3-6.82,21.82-21.54l2.6,2.68s1.03-1.04.49-1.91Z"/>
    <path class="cls-10" d="m344.7,529.07c1.15-.71,3.89-4.14,3.89-4.14,0,0-2.73-3.27-3.89-4.13-.83-.6-1.91.5-1.91.5l2.68,2.68c-8.19.1-19.25-2.8-19.36-19.26,0-.18.15-.34.33-.34h47.97c1.54,0,1.55-1.91,0-1.91,0,0-48.95-.01-49.51-.01s-.97.64-.97,1.68c0,11.99,6.82,22.3,21.54,21.82l-2.68,2.6s1.04,1.03,1.91.49Z"/>
    <path class="cls-10" d="m559.37,164.26s-2.77,3.23-3.95,4.09c-.82.59-1.87-.5-1.87-.5l2.73-2.77c-10.1.42-15.8-.99-18.46-6.85v35.25c-.01,1.54-1.92,1.55-1.92,0v-49.51c0-.22.07-.4.19-.52.03-.05.07-.09.11-.11.13-.11.3-.18.51-.21.11-.02.22-.02.33,0,.63.04.96.42.96.81-.3,16.52,2.8,19.77,18.28,19.39l-2.73-2.66s1.05-1.08,1.87-.47c.94.68,3.95,4.06,3.95,4.06Z"/>
    <path class="cls-10" d="m202.18,163.76c-.71,1.15-4.14,3.89-4.14,3.89,0,0-3.27-2.73-4.13-3.89-.6-.83.5-1.91.5-1.91l2.68,2.68c.1-8.19-2.8-19.25-19.26-19.36-.18,0-.34.15-.34.33v47.97c0,1.54-1.91,1.55-1.91,0,0,0-.01-48.95-.01-49.51s.64-.97,1.68-.97c11.99,0,22.3,6.82,21.82,21.54l2.6-2.68s1.03,1.04.49,1.91Z"/>
    <path class="cls-10" d="m358.46,303.32c-1.15-.71-3.89-4.14-3.89-4.14,0,0,2.73-3.27,3.89-4.13.83-.6,1.91.5,1.91.5l-2.68,2.68c8.19.1,19.25-2.8,19.36-19.26,0-.18-.15-.34-.33-.34h-47.97c-1.54,0-1.55-1.91,0-1.91,0,0,48.95-.01,49.51-.01s.97.64.97,1.68c0,11.99-6.82,22.3-21.54,21.82l2.68,2.6s-1.04,1.03-1.91.49Z"/>
    <path class="cls-10" d="m719.17,299.58s-3.23-2.77-4.09-3.95c-.59-.82.5-1.87.5-1.87l2.77,2.73c-.42-10.1.99-15.8,6.85-18.46h-35.25c-1.54-.01-1.55-1.92,0-1.92h49.51c1.33,0,1.28,2.1.03,2.1-16.52,0-19.77,2.8-19.39,18.28l2.66-2.73s1.08,1.05.47,1.87c-.68.94-4.06,3.95-4.06,3.95Z"/>
    <path class="cls-10" d="m558.59,506.84s-2.77-3.23-3.95-4.09c-.82-.59-1.87.5-1.87.5l2.73,2.77c-10.1-.42-15.8.99-18.46,6.85v-35.25c-.01-1.54-1.92-1.55-1.92,0v49.51c0,.22.07.4.19.52.03.05.07.09.11.11.13.11.3.18.51.21.11.02.22.02.33,0,.63-.04.96-.42.96-.81-.3-16.52,2.8-19.77,18.28-19.39l-2.73,2.66s1.05,1.08,1.87.47c.94-.68,3.95-4.06,3.95-4.06Z"/>
    <path class="cls-10" d="m179.84,361.66c-1.15.71-3.89,4.14-3.89,4.14,0,0,2.73,3.27,3.89,4.13.83.6,1.91-.5,1.91-.5l-2.68-2.68c8.19-.1,19.25,2.8,19.36,19.26,0,.18-.15.34-.33.34h-47.97c-1.54,0-1.55,1.91,0,1.91,0,0,48.95.01,49.51.01.56,0,.97-.64.97-1.68,0-11.99-6.82-22.3-21.54-21.82l2.68-2.6s-1.04-1.03-1.91-.49Z"/>
    <path class="cls-10" d="m200.85,507.18c-.71-1.15-4.14-3.89-4.14-3.89,0,0-3.27,2.73-4.13,3.89-.6.83.5,1.91.5,1.91l2.68-2.68c.1,8.19-2.8,19.25-19.26,19.36-.18,0-.34-.15-.34-.33v-47.97c0-1.54-1.91-1.55-1.91,0,0,0-.01,48.95-.01,49.51,0,.56.64.97,1.68.97,11.99,0,22.3-6.82,21.82-21.54l2.6,2.68s1.03-1.04.49-1.91Z"/>
    <path class="cls-10" d="m719.85,198.82s-3.23-2.77-4.09-3.95c-.59-.82.5-1.87.5-1.87l2.77,2.73c-.42-10.1.99-15.8,6.85-18.46h-35.25c-1.54-.01-1.55-1.92,0-1.92h49.51c.22,0,.4.07.52.19.05.03.09.07.11.11.11.13.18.3.21.51.02.11.02.22,0,.33-.04.63-.42.96-.81.96-16.52-.3-19.77,2.8-19.39,18.28l2.66-2.73s1.08,1.05.47,1.87c-.68.94-4.06,3.95-4.06,3.95Z"/>
    <path class="cls-10" d="m203.82,272.14c-.71,1.15-4.14,3.89-4.14,3.89,0,0-3.27-2.73-4.13-3.89-.6-.83.5-1.91.5-1.91l2.68,2.68c.1-8.19-2.8-19.25-19.26-19.36-.18,0-.34.15-.34.33v47.97c0,1.54-1.91,1.55-1.91,0,0,0-.01-48.95-.01-49.51,0-.56.64-.97,1.68-.97,11.99,0,22.3,6.82,21.82,21.54l2.6-2.68s1.03,1.04.49,1.91Z"/>
    <path class="cls-10" d="m558.92,272.55s-2.77,3.23-3.95,4.09c-.82.59-1.87-.5-1.87-.5l2.73-2.77c-10.1.42-15.8-.99-18.46-6.85v35.25c-.01,1.54-1.92,1.55-1.92,0v-49.51c0-1.33,2.1-1.28,2.1-.03,0,16.52,2.8,19.77,18.28,19.39l-2.73-2.66s1.05-1.08,1.87-.47c.94.68,3.95,4.06,3.95,4.06Z"/>
    <path class="cls-8" d="m440.73,200.79c.95,0,3.07-.3,3.07-3.16q0-19.31,18.39-19.34c0-.06,1.07-.09,1.07-.99s-.84-.99-.84-1.02c-19.62,0-20.66-.24-20.66,21.16,0,.59-.5,1.06-1.1,1.06-13.11,0-25.34-7.32-25.34-20.93l2.74,2.9s1.15-1.1.5-1.98c-.74-1-4.33-4.22-4.33-4.22,0,0-3.45,2.96-4.37,4.22-.64.88.54,1.98.54,1.98l2.77-2.83c0,14.83,13.18,23.15,27.56,23.15Z"/>
    <path class="cls-8" d="m592.39,386.15c0-.95.3-3.07,3.16-3.07q19.31,0,19.34-18.39c.06,0,.09-1.07.99-1.07s.99.84,1.02.84c0,19.62.24,20.66-21.16,20.66-.59,0-1.06.5-1.06,1.1,0,13.11,7.32,25.34,20.93,25.34l-2.9-2.74s1.1-1.15,1.98-.5c1,.74,4.22,4.33,4.22,4.33,0,0-2.96,3.45-4.22,4.37-.88.64-1.98-.54-1.98-.54l2.83-2.77c-14.83,0-23.15-13.18-23.15-27.56Z"/>
    <path class="cls-8" d="m446.8,359.62c-.95,0-3.07.3-3.07,3.16q0,19.31-18.39,19.34c0,.06-1.07.09-1.07.99s.84.99.84,1.02c19.62,0,20.66.24,20.66-21.16,0-.59.5-1.06,1.1-1.06,13.11,0,25.34,7.32,25.34,20.93l-2.74-2.9s-1.15,1.1-.5,1.98c.74,1,4.33,4.22,4.33,4.22,0,0,3.45-2.96,4.37-4.22.64-.88-.54-1.98-.54-1.98l-2.77,2.83c0-14.83-13.18-23.15-27.56-23.15Z"/>
    <path class="cls-8" d="m612.46,533.75c-.95,0-3.07-.3-3.07-3.16q0-19.31-18.39-19.34c0-.06-1.07-.09-1.07-.99s.84-.99.84-1.02c19.62,0,20.66-.24,20.66,21.16,0,.59.5,1.06,1.1,1.06,13.11,0,25.34-7.32,25.34-20.93l-2.74,2.9s-1.15-1.1-.5-1.98c.74-1,4.33-4.22,4.33-4.22,0,0,3.45,2.96,4.37,4.22.64.88-.54,1.98-.54,1.98l-2.77-2.83c0,14.83-13.18,23.15-27.56,23.15Z"/>
    <path class="cls-8" d="m412.51,508.88c0,.95.3,3.07,3.16,3.07q19.31,0,19.34,18.39c.06,0,.09,1.07.99,1.07.9,0,.99-.84,1.02-.84,0-19.62.24-20.66-21.16-20.66-.59,0-1.06-.5-1.06-1.1,0-13.11,7.32-25.34,20.93-25.34l-2.9,2.74s1.1,1.15,1.98.5c1-.74,4.22-4.33,4.22-4.33,0,0-2.96-3.45-4.22-4.37-.88-.64-1.98.54-1.98.54l2.83,2.77c-14.83,0-23.15,13.18-23.15,27.56Z"/>
    <path class="cls-8" d="m590.2,168.94c0-.95.3-3.07,3.16-3.07q19.31,0,19.34-18.39c.06,0,.09-1.07.99-1.07s.99.84,1.02.84c0,19.62.24,20.66-21.16,20.66-.59,0-1.06.5-1.06,1.1,0,13.11,7.32,25.34,20.93,25.34l-2.9-2.74s1.1-1.15,1.98-.5c1,.74,4.22,4.33,4.22,4.33,0,0-2.96,3.45-4.22,4.37-.88.64-1.98-.54-1.98-.54l2.83-2.77c-14.83,0-23.15-13.18-23.15-27.56Z"/>
    <path class="cls-8" d="m654.54,279.01c0-.95-.3-3.07-3.16-3.07q-19.31,0-19.34-18.39c-.06,0-.09-1.07-.99-1.07s-.99.84-1.02.84c0,19.62-.24,20.66,21.16,20.66.59,0,1.06.5,1.06,1.1,0,13.11-7.32,25.34-20.93,25.34l2.9-2.74s-1.1-1.15-1.98-.5c-1,.74-4.22,4.33-4.22,4.33,0,0,2.96,3.45,4.22,4.37.88.64,1.98-.54,1.98-.54l-2.83-2.77c14.83,0,23.15-13.18,23.15-27.56Z"/>
    <path class="cls-8" d="m440.04,251c.95,0,3.07.3,3.07,3.16q0,19.31,18.39,19.34c0,.06,1.07.09,1.07.99,0,.9-.84.99-.84,1.02-19.62,0-20.66.24-20.66-21.16,0-.59-.5-1.06-1.1-1.06-13.11,0-25.34,7.32-25.34,20.93l2.74-2.9s1.15,1.1.5,1.98c-.74,1-4.33,4.22-4.33,4.22,0,0-3.45-2.96-4.37-4.22-.64-.88.54-1.98.54-1.98l2.77,2.83c0-14.83,13.18-23.15,27.56-23.15Z"/>
    <path class="cls-8" d="m58.38,179.48l2.9,2.74s-1.1,1.15-1.98.5c-1-.74-4.22-4.33-4.22-4.33,0,0,2.96-3.45,4.22-4.37.88-.64,1.98.54,1.98.54l-2.9,2.84c17.84,0,20.22-1.75,20.22,21.14,0,.59.31,1.07.9,1.06,13.05-.26,24.2-10.44,25.17-23.53,0,0,.09-1.48,1.23-1.39,1.19.09,1,1.59,1,1.59-1.2,13.85-11.98,25.23-28.47,25.62-.95.02-1.88-.71-1.88-1.66,0-21.94-.7-20.76-18.17-20.76Z"/>
    <path class="cls-8" d="m253.26,413.62l-2.74-2.9s-1.15,1.1-.5,1.98c.74,1,4.33,4.22,4.33,4.22,0,0,3.45-2.96,4.37-4.22.64-.88-.54-1.98-.54-1.98l-2.84,2.9c0-17.84,1.75-20.22-21.14-20.22-.59,0-1.07-.31-1.06-.9.26-13.05,10.44-24.2,23.53-25.17,0,0,1.48-.09,1.39-1.23-.09-1.19-1.59-1-1.59-1-13.85,1.2-25.23,11.98-25.62,28.47-.02.95.71,1.88,1.66,1.88,21.94,0,20.76.7,20.76,18.17Z"/>
    <path class="cls-8" d="m103.62,379.23l-2.9-2.74s1.1-1.15,1.98-.5c1,.74,4.22,4.33,4.22,4.33,0,0-2.96,3.45-4.22,4.37-.88.64-1.98-.54-1.98-.54l2.9-2.84c-17.84,0-20.22,1.75-20.22-21.14,0-.59-.31-1.07-.9-1.06-13.05.26-24.2,10.44-25.17,23.53,0,0-.09,1.48-1.23,1.39-1.19-.09-1-1.59-1-1.59,1.2-13.85,11.98-25.23,28.47-25.62.95-.02,1.88.71,1.88,1.66,0,21.94.7,20.76,18.17,20.76Z"/>
    <path class="cls-8" d="m251.65,197.49l-2.74-2.9s-1.15,1.1-.5,1.98c.74,1,4.33,4.22,4.33,4.22,0,0,3.45-2.96,4.37-4.22.64-.88-.54-1.98-.54-1.98l-2.84,2.9c0-17.84,1.75-20.22-21.14-20.22-.59,0-1.07-.31-1.06-.9.26-13.05,10.44-24.2,23.53-25.17,0,0,1.48-.09,1.39-1.23-.09-1.19-1.59-1-1.59-1-13.85,1.2-25.23,11.98-25.62,28.47-.02.95.71,1.88,1.66,1.88,21.94,0,20.76.7,20.76,18.17Z"/>
    <path class="cls-8" d="m269.96,310.46l2.74-2.9s1.15,1.1.5,1.98c-.74,1-4.33,4.22-4.33,4.22,0,0-3.45-2.96-4.37-4.22-.64-.88.54-1.98.54-1.98l2.84,2.9c0-17.84-1.75-20.22,21.14-20.22.59,0,1.07-.31,1.06-.9-.26-13.05-10.44-24.2-23.53-25.17,0,0-1.48-.09-1.39-1.23.09-1.19,1.59-1,1.59-1,13.85,1.2,25.23,11.98,25.62,28.47.02.95-.71,1.88-1.66,1.88-21.94,0-20.76.7-20.76,18.17Z"/>
    <path class="cls-8" d="m282.8,512.04l-2.9,2.74s1.1,1.15,1.98.5c1-.74,4.22-4.33,4.22-4.33,0,0-2.96-3.45-4.22-4.37-.88-.64-1.98.54-1.98.54l2.9,2.84c-17.84,0-20.22-1.75-20.22,21.14,0,.59-.31,1.07-.9,1.06-13.05-.26-24.2-10.44-25.17-23.53,0,0-.09-1.48-1.23-1.39-1.19.09-1,1.59-1,1.59,1.2,13.85,11.98,25.23,28.47,25.62.95.02,1.88-.71,1.88-1.66,0-21.94.7-20.76,18.17-20.76Z"/>
    <path class="cls-8" d="m73.1,477.24l-2.74,2.9s-1.15-1.1-.5-1.98c.74-1,4.33-4.22,4.33-4.22,0,0,3.45,2.96,4.37,4.22.64.88-.54,1.98-.54,1.98l-2.84-2.9c0,17.84,1.75,20.22-21.14,20.22-.59,0-1.07.31-1.06.9.26,13.05,10.44,24.2,23.53,25.17,0,0,1.48.09,1.39,1.23-.09,1.19-1.59,1-1.59,1-13.85-1.2-25.23-11.98-25.62-28.47-.02-.95.71-1.88,1.66-1.88,21.94,0,20.76-.7,20.76-18.17Z"/>
    <path class="cls-8" d="m62.22,271.68l2.9-2.74s-1.1-1.15-1.98-.5c-1,.74-4.22,4.33-4.22,4.33,0,0,2.96,3.45,4.22,4.37.88.64,1.98-.54,1.98-.54l-2.9-2.84c17.84,0,20.22,1.75,20.22-21.14,0-.59.31-1.07.9-1.06,13.05.26,24.2,10.44,25.17,23.53,0,0,.09,1.48,1.23,1.39,1.19-.09,1-1.59,1-1.59-1.2-13.85-11.98-25.23-28.47-25.62-.95-.02-1.88.71-1.88,1.66,0,21.94-.7,20.76-18.17,20.76Z"/>
    <path class="cls-10" d="m254.45,527.39s3.23-2.77,4.09-3.95c.59-.82-.5-1.87-.5-1.87l-2.77,2.73c.42-10.1-.99-15.8-6.85-18.46h35.25c1.54-.01,1.55-1.92,0-1.92h-49.51c-.22,0-.4.07-.52.19-.05.03-.09.07-.11.11-.11.13-.18.3-.21.51-.02.11-.02.22,0,.33.04.63.42.96.81.96,16.52-.3,19.77,2.8,19.39,18.28l-2.66-2.73s-1.08,1.05-.47,1.87c.68.94,4.06,3.95,4.06,3.95Z"/>
    <path class="cls-10" d="m90.72,364.55s-3.23,2.77-4.09,3.95c-.59.82.5,1.87.5,1.87l2.77-2.73c-.42,10.1.99,15.8,6.85,18.46h-35.25c-1.54.01-1.55,1.92,0,1.92h49.51c.22,0,.4-.07.52-.19.05-.03.09-.07.11-.11.11-.13.18-.3.21-.51.02-.11.02-.22,0-.33-.04-.63-.42-.96-.81-.96-16.52.3-19.77-2.8-19.39-18.28l2.66,2.73s1.08-1.05.47-1.87c-.68-.94-4.06-3.95-4.06-3.95Z"/>
    <path class="cls-10" d="m630.23,201.31c-1.15-.71-3.89-4.14-3.89-4.14,0,0,2.73-3.27,3.89-4.13.83-.6,1.91.5,1.91.5l-2.68,2.68c8.19.1,19.25-2.8,19.36-19.26,0-.18-.15-.34-.33-.34h-47.97c-1.54,0-1.55-1.91,0-1.91,0,0,48.95-.01,49.51-.01.56,0,.97.64.97,1.68,0,11.99-6.82,22.3-21.54,21.82l2.68,2.6s-1.04,1.03-1.91.49Z"/>
    <path class="cls-10" d="m289.98,399.22s-2.77-3.23-3.95-4.09c-.82-.59-1.87.5-1.87.5l2.73,2.77c-10.1-.42-15.8.99-18.46,6.85v-35.25c-.01-1.54-1.92-1.55-1.92,0v49.51c0,.22.07.4.19.52.03.05.07.09.11.11.13.11.3.18.51.21.11.02.22.02.33,0,.63-.04.96-.42.96-.81-.3-16.52,2.8-19.77,18.28-19.39l-2.73,2.66s1.05,1.08,1.87.47c.94-.68,3.95-4.06,3.95-4.06Z"/>
    <path class="cls-10" d="m653.11,398.24c-.71-1.15-4.14-3.89-4.14-3.89,0,0-3.27,2.73-4.13,3.89-.6.83.5,1.91.5,1.91l2.68-2.68c.1,8.19-2.8,19.25-19.26,19.36-.18,0-.34-.15-.34-.33v-47.97c0-1.54-1.91-1.55-1.91,0,0,0-.01,48.95-.01,49.51,0,.56.64.97,1.68.97,11.99,0,22.3-6.82,21.82-21.54l2.6,2.68s1.03-1.04.49-1.91Z"/>
    <path class="cls-10" d="m615.61,531c1.15-.71,3.89-4.14,3.89-4.14,0,0-2.73-3.27-3.89-4.13-.83-.6-1.91.5-1.91.5l2.68,2.68c-8.19.1-19.25-2.8-19.36-19.26,0-.18.15-.34.33-.34h47.97c1.54,0,1.55-1.91,0-1.91,0,0-48.95-.01-49.51-.01s-.97.64-.97,1.68c0,11.99,6.82,22.3,21.54,21.82l-2.68,2.6s1.04,1.03,1.91.49Z"/>
    <path class="cls-10" d="m109.37,164.26s-2.77,3.23-3.95,4.09c-.82.59-1.87-.5-1.87-.5l2.73-2.77c-10.1.42-15.8-.99-18.46-6.85v35.25c-.01,1.54-1.92,1.55-1.92,0v-49.51c0-.22.07-.4.19-.52.03-.05.07-.09.11-.11.13-.11.3-.18.51-.21.11-.02.22-.02.33,0,.63.04.96.42.96.81-.3,16.52,2.8,19.77,18.28,19.39l-2.73-2.66s1.05-1.08,1.87-.47c.94.68,3.95,4.06,3.95,4.06Z"/>
    <path class="cls-10" d="m472.18,163.76c-.71,1.15-4.14,3.89-4.14,3.89,0,0-3.27-2.73-4.13-3.89-.6-.83.5-1.91.5-1.91l2.68,2.68c.1-8.19-2.8-19.25-19.26-19.36-.18,0-.34.15-.34.33v47.97c0,1.54-1.91,1.55-1.91,0,0,0-.01-48.95-.01-49.51s.64-.97,1.68-.97c11.99,0,22.3,6.82,21.82,21.54l2.6-2.68s1.03,1.04.49,1.91Z"/>
    <path class="cls-10" d="m628.46,303.32c-1.15-.71-3.89-4.14-3.89-4.14,0,0,2.73-3.27,3.89-4.13.83-.6,1.91.5,1.91.5l-2.68,2.68c8.19.1,19.25-2.8,19.36-19.26,0-.18-.15-.34-.33-.34h-47.97c-1.54,0-1.55-1.91,0-1.91,0,0,48.95-.01,49.51-.01s.97.64.97,1.68c0,11.99-6.82,22.3-21.54,21.82l2.68,2.6s-1.04,1.03-1.91.49Z"/>
    <path class="cls-10" d="m275,308.33s-3.23-2.77-4.09-3.95c-.59-.82.5-1.87.5-1.87l2.77,2.73c-.42-10.1.99-15.8,6.85-18.46h-35.25c-1.54-.01-1.55-1.92,0-1.92h49.51c1.33,0,1.28,2.1.03,2.1-16.52,0-19.77,2.8-19.39,18.28l2.66-2.73s1.08,1.05.47,1.87c-.68.94-4.06,3.95-4.06,3.95Z"/>
    <path class="cls-10" d="m108.08,507.55s-2.77-3.23-3.95-4.09c-.82-.59-1.87.5-1.87.5l2.73,2.77c-10.1-.42-15.8.99-18.46,6.85v-35.25c-.01-1.54-1.92-1.55-1.92,0v49.51c0,.22.07.4.19.52.03.05.07.09.11.11.13.11.3.18.51.21.11.02.22.02.33,0,.63-.04.96-.42.96-.81-.3-16.52,2.8-19.77,18.28-19.39l-2.73,2.66s1.05,1.08,1.87.47c.94-.68,3.95-4.06,3.95-4.06Z"/>
    <path class="cls-10" d="m448.86,362.31c-1.15.71-3.89,4.14-3.89,4.14,0,0,2.73,3.27,3.89,4.13.83.6,1.91-.5,1.91-.5l-2.68-2.68c8.19-.1,19.25,2.8,19.36,19.26,0,.18-.15.34-.33.34h-47.97c-1.54,0-1.55,1.91,0,1.91,0,0,48.95.01,49.51.01.56,0,.97-.64.97-1.68,0-11.99-6.82-22.3-21.54-21.82l2.68-2.6s-1.04-1.03-1.91-.49Z"/>
    <path class="cls-10" d="m472.18,507.09c-.71-1.15-4.14-3.89-4.14-3.89,0,0-3.27,2.73-4.13,3.89-.6.83.5,1.91.5,1.91l2.68-2.68c.1,8.19-2.8,19.25-19.26,19.36-.18,0-.34-.15-.34-.33v-47.97c0-1.54-1.91-1.55-1.91,0,0,0-.01,48.95-.01,49.51,0,.56.64.97,1.68.97,11.99,0,22.3-6.82,21.82-21.54l2.6,2.68s1.03-1.04.49-1.91Z"/>
    <path class="cls-10" d="m270.54,197.6s-3.23-2.77-4.09-3.95c-.59-.82.5-1.87.5-1.87l2.77,2.73c-.42-10.1.99-15.8,6.85-18.46h-35.25c-1.54-.01-1.55-1.92,0-1.92h49.51c.22,0,.4.07.52.19.05.03.09.07.11.11.11.13.18.3.21.51.02.11.02.22,0,.33-.04.63-.42.96-.81.96-16.52-.3-19.77,2.8-19.39,18.28l2.66-2.73s1.08,1.05.47,1.87c-.68.94-4.06,3.95-4.06,3.95Z"/>
    <path class="cls-10" d="m474.38,272.48c-.71,1.15-4.14,3.89-4.14,3.89,0,0-3.27-2.73-4.13-3.89-.6-.83.5-1.91.5-1.91l2.68,2.68c.1-8.19-2.8-19.25-19.26-19.36-.18,0-.34.15-.34.33v47.97c0,1.54-1.91,1.55-1.91,0,0,0-.01-48.95-.01-49.51,0-.56.64-.97,1.68-.97,11.99,0,22.3,6.82,21.82,21.54l2.6-2.68s1.03,1.04.49,1.91Z"/>
    <path class="cls-10" d="m107.94,275.32s-2.77,3.23-3.95,4.09c-.82.59-1.87-.5-1.87-.5l2.73-2.77c-10.1.42-15.8-.99-18.46-6.85v35.25c-.01,1.54-1.92,1.55-1.92,0v-49.51c0-1.33,2.1-1.28,2.1-.03,0,16.52,2.8,19.77,18.28,19.39l-2.73-2.66s1.05-1.08,1.87-.47c.94.68,3.95,4.06,3.95,4.06Z"/>
    <g>
      <g>
        <rect class="cls-3" x="347.43" y="213.73" width="6.95" height="1.9" rx=".95" ry=".95"/>
        <path class="cls-3" d="m358.2,210.3c-.19,8.85-.94,7.8,4.1,7.75.71,0,1.24.12,1.24.84,0,.33-.44.77-1.2.77-4.71,0-4.71.13-5.33-.4-.49-.41-.42-1.9-.42-2.78,0-1.17.02-5.56.1-6.18.08-.62.33-.62.75-.62.38,0,.77.09.76.62Z"/>
        <path class="cls-3" d="m346.62,209.69c-.46-.06-.96.28-1.19,1.14-.42,1.54-.92,3.7-1.44,5.63-1.11-2.72-1.86-4.39-2.5-4.38-.01,0-.02,0-.03.01-.01-.01-.02-.01-.03-.01-.64-.01-1.39,1.65-2.5,4.38-.51-1.93-1.02-4.09-1.44-5.63-.24-.86-.73-1.2-1.19-1.14-.59.07-.98.49-.74,1.25.25.81,1.84,6.07,2.3,7.72.47,1.65,1.59.9,1.8.49.21-.41,1.36-3.67,1.8-4.59.44.92,1.59,4.18,1.8,4.59.21.41,1.33,1.16,1.8-.49.46-1.64,2.05-6.9,2.3-7.72.24-.76-.15-1.18-.74-1.25Z"/>
      </g>
      <g>
        <path class="cls-3" d="m706.54,439.94c-.93-2.27-1.86-4.39-2.21-5.2-.38-.84-.67-1.52-.74-1.72-.32-.87-.6-1.18-1.12-1.22-.5.04-.79.34-1.11,1.22-.07.2-.36.87-.73,1.72-.73,1.66-1.56,3.6-2.22,5.2-.28.71-.29,1.21-.03,1.52.19.23.49.34.9.34h6.43c.41,0,.71-.12.9-.34.12-.15.18-.34.18-.58,0-.26-.07-.57-.22-.94Zm-1.67.34h-4.8c.17-.42.49-1.25.87-2.18.56-1.41,1.21-3.07,1.53-3.9.39.98,1.22,3.11,1.83,4.63l.57,1.44Z"/>
        <rect class="cls-3" x="706.77" y="435.85" width="6.95" height="1.9" rx=".95" ry=".95"/>
        <path class="cls-3" d="m723.41,433.15c-.06.29-1.97,5.54-3.02,7.94-.32.73-.61.72-.74.72s-.42,0-.74-.72c-1.05-2.4-2.96-7.64-3.02-7.94-.23-1,.08-1.16.44-1.3.28-.13.86-.02,1.12.7.16.42,2.2,5.86,2.2,5.86,0,0,2.05-5.44,2.2-5.86.25-.72.83-.82,1.12-.7.36.15.67.3.44,1.3Z"/>
      </g>
      <g>
        <rect class="cls-3" x="345.49" y="542.5" width="6.95" height="1.9" rx=".95" ry=".95"/>
        <path class="cls-3" d="m361.23,539.8c-.06.29-1.97,5.54-3.02,7.94-.32.73-.61.72-.74.72s-.42,0-.74-.72c-1.05-2.4-2.96-7.64-3.02-7.94-.23-1,.08-1.16.44-1.3.28-.13.86-.02,1.12.7.16.42,2.2,5.86,2.2,5.86,0,0,2.05-5.44,2.2-5.86.25-.72.83-.82,1.12-.7.36.15.67.3.44,1.3Z"/>
        <path d="m343.29,539.98c-.75-1.02-1.5-1.53-2.25-1.53h-.07c-.77.03-1.52.6-2.21,1.69-1.14,1.8-1.61,4.77.05,7.03.55.79,1.23,1.23,2,1.27.05,0,.11,0,.17,0,.89,0,1.7-.51,2.13-.97.96-1.01,1.3-2.33,1.3-3.62,0-1.57-.52-3.07-1.12-3.88Zm-2.22.07c.86,0,1.48,1.13,1.53,1.91.02.3,0,.48-.11.58-.07.08-.2.11-.39.12h-1.07c-.36,0-.72,0-1.04,0-.15,0-.25-.04-.32-.12-.09-.1-.14-.28-.12-.54.06-.78.73-1.96,1.52-1.96Zm-1.4,4.38c.43-.04.85-.05,1.27-.05.25,0,.51,0,.75,0,.29,0,.57,0,.85,0,.13,0,.24.09.25.21.1.84-.2,1.56-.78,1.95-.51.34-1.17.38-1.68.11-.61-.33-.93-1.04-.91-1.99,0-.12.12-.24.25-.25Z"/>
      </g>
      <g>
        <path class="cls-3" d="m342.75,435.99c.48.44.43.65.44.96s-.23.47-.53.71c-1.75,1.43-2.78,2.44-2.78,2.44,0,0,.42.05,4.42.05.4,0,.79.33.79.78,0,.48-.22.88-.64.88-2.35,0-4.02-.05-5.97-.05-.79,0-1.34-.19-1.52-.57-.17-.36-.12-.9.55-1.52,1.91-1.72,3.47-2.88,3.47-2.88,0,0-2.17-1.97-3.75-3.56-.33-.33-.43-.62-.31-.85.11-.2.55-.57.92-.57h6.71c.74,0,.77,1.31,0,1.31-3.37,0-5.2.02-5.2.02"/>
        <rect class="cls-3" x="344.94" y="435.85" width="6.95" height="1.9" rx=".95" ry=".95"/>
        <path class="cls-3" d="m361.97,437.33c-.11.73-.3,1.42-.58,2.11-.6,1.42-1.8,2.3-3.21,2.37h-.26c-1.41-.07-2.6-.95-3.21-2.37-.28-.67-.47-1.36-.57-2.11-.19-1.31-.24-2.6-.18-4.35.02-.47.13-.8.34-.99.14-.13.32-.19.52-.19.64.04.78.66.82,1.21,0,.18,0,.48,0,.86-.05,1.51-.14,4.35.93,5.36.21.2.58.43.94.56.35.14.73.14,1.08,0,.36-.14.74-.37.95-.56,1.06-1.01.98-3.81.93-5.33,0-.4-.02-.71,0-.89.03-.5.15-1.17.8-1.21.21,0,.39.06.52.19.22.19.33.52.34.99.08,1.8.03,3.06-.16,4.35Z"/>
      </g>
      <g>
        <path class="cls-3" d="m707.13,548.45h-3.54c-.32,0-.53-.32-.41-.62,2.67-6.29.99-7.71-1.08-7.85-.04,0-.08,0-.12,0h-.02s-.09,0-.13,0c-.04,0-.08,0-.12,0-2.07.14-3.75,1.56-1.08,7.85.12.29-.09.62-.41.62h-3.54c-.14,0-.66-1.27.12-1.73.69-.41.99.09,1.81.11-2.24-4.96.04-7.96,2.78-8.36.08-.02.94-.02,1.02,0,2.74.41,5.02,3.4,2.78,8.36.82-.02,1.12-.51,1.81-.11.78.46.26,1.73.12,1.73Z"/>
        <rect class="cls-3" x="707.66" y="542.5" width="6.95" height="1.9" rx=".95" ry=".95"/>
        <path class="cls-3" d="m724.14,543.97c-.11.73-.3,1.42-.58,2.11-.6,1.42-1.8,2.3-3.21,2.37h-.26c-1.41-.07-2.6-.95-3.21-2.37-.28-.67-.47-1.36-.57-2.11-.19-1.31-.24-2.6-.18-4.35.02-.47.13-.8.34-.99.14-.13.32-.19.52-.19.64.04.78.66.82,1.21,0,.18,0,.48,0,.86-.05,1.51-.14,4.35.93,5.36.21.2.58.43.94.56.35.14.73.14,1.08,0,.36-.14.74-.37.95-.56,1.06-1.01.98-3.81.93-5.33,0-.4-.02-.71,0-.89.03-.5.15-1.17.8-1.21.21,0,.39.06.52.19.22.19.33.52.34.99.08,1.8.03,3.06-.16,4.35Z"/>
      </g>
      <g>
        <path class="cls-3" d="m542.97,217.44c.42.55-.07,1.12-.5,1.33-9.15,4.54-8.83-9.42-3.27-9.09,1.07.06,2.05.85,2.39,1.26.25.29.44.81.12,1.16-.34.36-.8.24-1.02,0-4.33-4.56-6.65,9.06,1.11,5.25.45-.22.79-.4,1.16.09Z"/>
        <path class="cls-3" d="m526.86,218.19c.16.19.21.44.19.68-.03.24-.16.46-.34.61-.4.3-.98.23-1.3-.17l-2.45-3.14-2.45,3.14c-.18.23-.45.36-.72.36-.19,0-.4-.07-.57-.19-.19-.15-.32-.37-.35-.61-.03-.24.03-.49.19-.68l2.73-3.51-2.73-3.51c-.13-.17-.19-.36-.19-.57,0-.28.14-.56.36-.73.19-.15.42-.21.67-.19.24.03.47.16.61.35l2.45,3.14,2.44-3.14c.33-.41.91-.48,1.31-.16.22.17.35.43.35.72,0,.2-.07.4-.19.57l-2.73,3.51,2.73,3.51Z"/>
        <rect class="cls-3" x="526.74" y="213.73" width="6.95" height="1.9" rx=".95" ry=".95"/>
      </g>
      <g>
        <path class="cls-3" d="m345.15,320.96l-4.37,8.3c-.15.29-.45.46-.75.46-.13,0-.26-.04-.39-.1-.2-.11-.35-.28-.42-.5-.07-.21-.05-.45.06-.65l1.88-3.58-2.53-3.62c-.12-.11-.2-.27-.24-.47-.05-.25.03-.53.2-.71.15-.17.35-.27.58-.28.22,0,.45.07.61.21l2.2,3.29,1.65-3.14c.12-.2.29-.35.51-.42.22-.07.45-.04.65.07.22.12.38.33.43.59.03.19,0,.38-.08.55Z"/>
        <rect class="cls-3" x="345.24" y="323.76" width="6.95" height="1.9" rx=".95" ry=".95"/>
        <path class="cls-3" d="m360.67,328.97c0,.65-.36.74-1.5.74h-4.33c-1.13,0-1.5-.09-1.5-.74s.49-.73,1.75-.73,1.17.32,1.17-3.55.1-3.5-2-3.5c-.49,0-.92-.16-.92-.72s.2-.75.99-.75h5.35c.79,0,.99.2.99.75s-.43.72-.92.72c-2.1,0-2-.37-2,3.5s-.14,3.55,1.17,3.55,1.75.08,1.75.73Z"/>
      </g>
      <g>
        <rect class="cls-3" x="707.34" y="323.76" width="6.95" height="1.9" rx=".95" ry=".95"/>
        <path class="cls-3" d="m722.5,328.97c0,.65-.36.74-1.5.74h-4.33c-1.13,0-1.5-.09-1.5-.74s.49-.73,1.75-.73,1.17.32,1.17-3.55.1-3.5-2-3.5c-.49,0-.92-.16-.92-.72s.2-.75.99-.75h5.35c.79,0,.99.2.99.75s-.43.72-.92.72c-2.1,0-2-.37-2,3.5s-.14,3.55,1.17,3.55,1.75.08,1.75.73Z"/>
        <path class="cls-3" d="m704.41,321.45c-1.86,0-2.27,0-3.51,0-.46,0-1.11-.2-1.11-.85,0-.57.42-.88,1.07-.88,4.93,0,5.05-.05,5.58.38.28.22.43.73.15,1.14-1.71,2.48-4.64,6.6-4.64,6.6,0,0,2.47-.05,3.73-.05,1.57,0,1.46,1.88.13,1.88-8.37,0-8.83,1.14-1.4-8.22Z"/>
      </g>
      <g>
        <path class="cls-3" d="m183.23,440.44l-2.7-3.03c.87-.25,1.47-.64,1.8-1.14.66-1.02.77-2.65-.54-3.86-.83-.76-3.04-.82-5.15-.14l-.06.02-.02.05c-.26.54-.14,2.22.07,5.27.08,1.06.16,2.26.24,3.62.02.37.41.57.79.57.3,0,.77-.17.84-.62.06-.42-.05-2.87-.08-3.48h.17l3.42,3.83c.16.18.38.27.61.27.2,0,.4-.07.55-.21.34-.3.37-.83.07-1.16Zm-5.02-4.32l-.03-.2c-.13-.82-.2-1.21-.11-2.5.38-.1,1.92-.27,2.71.15.28.14.44.34.47.59.08.5-.06.95-.38,1.3-.52.53-1.46.77-2.66.67Z"/>
        <path class="cls-3" d="m164.11,435.99c.48.44.43.65.44.96s-.23.47-.53.71c-1.75,1.43-2.78,2.44-2.78,2.44,0,0,.42.05,4.42.05.4,0,.79.33.79.78,0,.48-.22.88-.64.88-2.35,0-4.02-.05-5.97-.05-.79,0-1.34-.19-1.52-.57-.17-.36-.12-.9.55-1.52,1.91-1.72,3.47-2.88,3.47-2.88,0,0-2.17-1.97-3.75-3.56-.33-.33-.43-.62-.31-.85.11-.2.55-.57.92-.57h6.71c.74,0,.77,1.31,0,1.31-3.37,0-5.2.02-5.2.02"/>
        <rect class="cls-3" x="167.11" y="435.85" width="6.95" height="1.9" rx=".95" ry=".95"/>
      </g>
      <g>
        <path class="cls-3" d="m543.33,440.44l-2.7-3.03c.87-.25,1.47-.64,1.8-1.14.66-1.02.77-2.65-.54-3.86-.83-.76-3.04-.82-5.15-.14l-.06.02-.02.05c-.26.54-.14,2.22.07,5.27.08,1.06.16,2.26.24,3.62.02.37.41.57.79.57.3,0,.77-.17.84-.62.06-.42-.05-2.87-.08-3.48h.17l3.42,3.83c.16.18.38.27.61.27.2,0,.4-.07.55-.21.34-.3.37-.83.07-1.16Zm-5.02-4.32l-.03-.2c-.13-.82-.2-1.21-.11-2.5.38-.1,1.92-.27,2.71.15.28.14.44.34.47.59.08.5-.06.95-.38,1.3-.52.53-1.46.77-2.66.67Z"/>
        <path class="cls-3" d="m526.83,439.94c-.93-2.27-1.86-4.39-2.21-5.2-.38-.84-.67-1.52-.74-1.72-.32-.87-.6-1.18-1.12-1.22-.5.04-.79.34-1.11,1.22-.07.2-.36.87-.73,1.72-.73,1.66-1.56,3.6-2.22,5.2-.28.71-.29,1.21-.03,1.52.19.23.49.34.9.34h6.43c.41,0,.71-.12.9-.34.12-.15.18-.34.18-.58,0-.26-.07-.57-.22-.94Zm-1.67.34h-4.8c.17-.42.49-1.25.87-2.18.56-1.41,1.21-3.07,1.53-3.9.39.98,1.22,3.11,1.83,4.63l.57,1.44Z"/>
        <rect class="cls-3" x="527.05" y="435.85" width="6.95" height="1.9" rx=".95" ry=".95"/>
      </g>
      <g>
        <path class="cls-3" d="m536.36,545.33c-.55-2.97.03-4.69,2.09-6.23,1.86-1.39,4.92-.33,5.78,1.24.73,1.31,1.54,4.09-.47,6.49-.67.8-1.59,1.4-2.62,1.57-2.46.41-4.48-1.4-4.79-3.06Zm2.23.5c1.14,1.13,3.41,1.11,4.45-.7,1.02-1.77.06-3.66-.63-4.27-.55-.49-2.53-1.19-3.76.41-1.11,1.45-.84,3.8-.07,4.56Z"/>
        <path class="cls-3" d="m527.56,548.45h-3.54c-.32,0-.53-.32-.41-.62,2.67-6.29.99-7.71-1.08-7.85-.04,0-.08,0-.12,0h-.02s-.09,0-.13,0c-.04,0-.08,0-.12,0-2.07.14-3.75,1.56-1.08,7.85.12.29-.09.62-.41.62h-3.54c-.14,0-.66-1.27.12-1.73.69-.41.99.09,1.81.11-2.24-4.96.04-7.96,2.78-8.36.08-.02.94-.02,1.02,0,2.74.41,5.02,3.4,2.78,8.36.82-.02,1.12-.51,1.81-.11.78.46.26,1.73.12,1.73Z"/>
        <rect class="cls-3" x="528" y="542.5" width="6.95" height="1.9" rx=".95" ry=".95"/>
      </g>
      <g>
        <path class="cls-3" d="m184.76,217.44c.42.55-.07,1.12-.5,1.33-9.15,4.54-8.83-9.42-3.27-9.09,1.07.06,2.05.85,2.39,1.26.25.29.44.81.12,1.16-.34.36-.8.24-1.02,0-4.33-4.56-6.65,9.06,1.11,5.25.45-.22.79-.4,1.16.09Z"/>
        <rect class="cls-3" x="168.66" y="213.73" width="6.95" height="1.9" rx=".95" ry=".95"/>
        <path class="cls-3" d="m167.88,209.69c-.46-.06-.96.28-1.19,1.14-.42,1.54-.92,3.7-1.44,5.63-1.11-2.72-1.86-4.39-2.5-4.38-.01,0-.02,0-.03.01-.01-.01-.02-.01-.03-.01-.64-.01-1.39,1.65-2.5,4.38-.51-1.93-1.02-4.09-1.44-5.63-.24-.86-.73-1.2-1.19-1.14-.59.07-.98.49-.74,1.25.25.81,1.84,6.07,2.3,7.72.47,1.65,1.59.9,1.8.49.21-.41,1.36-3.67,1.8-4.59.44.92,1.59,4.18,1.8,4.59.21.41,1.33,1.16,1.8-.49.46-1.64,2.05-6.9,2.3-7.72.24-.76-.15-1.18-.74-1.25Z"/>
      </g>
      <g>
        <path class="cls-3" d="m174.45,545.33c-.55-2.97.03-4.69,2.09-6.23,1.86-1.39,4.92-.33,5.78,1.24.73,1.31,1.54,4.09-.47,6.49-.67.8-1.59,1.4-2.62,1.57-2.46.41-4.48-1.4-4.79-3.06Zm2.23.5c1.14,1.13,3.41,1.11,4.45-.7,1.02-1.77.06-3.66-.63-4.27-.55-.49-2.53-1.19-3.76.41-1.11,1.45-.84,3.8-.07,4.56Z"/>
        <rect class="cls-3" x="166.18" y="542.5" width="6.95" height="1.9" rx=".95" ry=".95"/>
        <path d="m164.11,539.98c-.75-1.02-1.5-1.53-2.25-1.53h-.07c-.77.03-1.52.6-2.21,1.69-1.14,1.8-1.61,4.77.05,7.03.55.79,1.23,1.23,2,1.27.05,0,.11,0,.17,0,.89,0,1.7-.51,2.13-.97.96-1.01,1.3-2.33,1.3-3.62,0-1.57-.52-3.07-1.12-3.88Zm-2.22.07c.86,0,1.48,1.13,1.53,1.91.02.3,0,.48-.11.58-.07.08-.2.11-.39.12h-1.07c-.36,0-.72,0-1.04,0-.15,0-.25-.04-.32-.12-.09-.1-.14-.28-.12-.54.06-.78.73-1.96,1.52-1.96Zm-1.4,4.38c.43-.04.85-.05,1.27-.05.25,0,.51,0,.75,0,.29,0,.57,0,.85,0,.13,0,.24.09.25.21.1.84-.2,1.56-.78,1.95-.51.34-1.17.38-1.68.11-.61-.33-.93-1.04-.91-1.99,0-.12.12-.24.25-.25Z"/>
      </g>
      <g>
        <path class="cls-3" d="m717.97,210.3c-.19,8.85-.94,7.8,4.1,7.75.71,0,1.24.12,1.24.84,0,.33-.44.77-1.2.77-4.71,0-4.71.13-5.33-.4-.49-.41-.42-1.9-.42-2.78,0-1.17.02-5.56.1-6.18.08-.62.33-.62.75-.62.38,0,.77.09.76.62Z"/>
        <path class="cls-3" d="m706.35,218.19c.16.19.21.44.19.68-.03.24-.16.46-.34.61-.4.3-.98.23-1.3-.17l-2.45-3.14-2.45,3.14c-.18.23-.45.36-.72.36-.19,0-.4-.07-.57-.19-.19-.15-.32-.37-.35-.61-.03-.24.03-.49.19-.68l2.73-3.51-2.73-3.51c-.13-.17-.19-.36-.19-.57,0-.28.14-.56.36-.73.19-.15.42-.21.67-.19.24.03.47.16.61.35l2.45,3.14,2.44-3.14c.33-.41.91-.48,1.31-.16.22.17.35.43.35.72,0,.2-.07.4-.19.57l-2.73,3.51,2.73,3.51Z"/>
        <rect class="cls-3" x="707.2" y="213.73" width="6.95" height="1.9" rx=".95" ry=".95"/>
      </g>
      <g>
        <path class="cls-3" d="m175.98,329.06c-.21-2.13-.27-7.16-.03-8.83,0,0,1.78-.75,5.18-.44.42.04.62.25.63.53.03.54,0,1.08-.55,1.11-1.32.07-3.68.15-3.68.15,0,0-.03.76-.02.98,0,.34.02.97.02.97,0,0,2.08.01,3.36.07.47.02.88-.05.91.74.02.57-.38.7-.91.74-1.22.09-3.25.04-3.25.04.07,1.57.19,3.19.19,3.78,0,.69-.57.8-.97.8-.59,0-.85-.44-.87-.65Z"/>
        <path class="cls-3" d="m166.66,320.96l-4.37,8.3c-.15.29-.45.46-.75.46-.13,0-.26-.04-.39-.1-.2-.11-.35-.28-.42-.5-.07-.21-.05-.45.06-.65l1.88-3.58-2.53-3.62c-.12-.11-.2-.27-.24-.47-.05-.25.03-.53.2-.71.15-.17.35-.27.58-.28.22,0,.45.07.61.21l2.2,3.29,1.65-3.14c.12-.2.29-.35.51-.42.22-.07.45-.04.65.07.22.12.38.33.43.59.03.19,0,.38-.08.55Z"/>
        <rect class="cls-3" x="166.6" y="323.76" width="6.95" height="1.9" rx=".95" ry=".95"/>
      </g>
      <g>
        <path class="cls-3" d="m536.31,329.06c-.21-2.13-.27-7.16-.03-8.83,0,0,1.78-.75,5.18-.44.42.04.62.25.63.53.03.54,0,1.08-.55,1.11-1.32.07-3.68.15-3.68.15,0,0-.03.76-.02.98,0,.34.02.97.02.97,0,0,2.08.01,3.36.07.47.02.88-.05.91.74.02.57-.38.7-.91.74-1.22.09-3.25.04-3.25.04.07,1.57.19,3.19.19,3.78,0,.69-.57.8-.97.8-.59,0-.85-.44-.87-.65Z"/>
        <rect class="cls-3" x="527.16" y="323.76" width="6.95" height="1.9" rx=".95" ry=".95"/>
        <path class="cls-3" d="m525.13,321.45c-1.86,0-2.27,0-3.51,0-.46,0-1.11-.2-1.11-.85,0-.57.42-.88,1.07-.88,4.93,0,5.05-.05,5.58.38.28.22.43.73.15,1.14-1.71,2.48-4.64,6.6-4.64,6.6,0,0,2.47-.05,3.73-.05,1.57,0,1.46,1.88.13,1.88-8.37,0-8.83,1.14-1.4-8.22Z"/>
      </g>
      <g>
        <path class="cls-3" d="m436.06,548.45h-3.54c-.32,0-.53-.32-.41-.62,2.67-6.29.99-7.71-1.08-7.85-.04,0-.08,0-.12,0h-.02s-.09,0-.13,0c-.04,0-.08,0-.12,0-2.07.14-3.75,1.56-1.08,7.85.12.29-.09.62-.41.62h-3.54c-.14,0-.66-1.27.12-1.73.69-.41.99.09,1.81.11-2.24-4.96.04-7.96,2.78-8.36.08-.02.94-.02,1.02,0,2.74.41,5.02,3.4,2.78,8.36.82-.02,1.12-.51,1.81-.11.78.46.26,1.73.12,1.73Z"/>
        <rect class="cls-3" x="436.36" y="542.5" width="6.95" height="1.9" rx=".95" ry=".95"/>
        <path class="cls-3" d="m455.87,548.44c-.46.06-.96-.28-1.19-1.14-.42-1.54-.92-3.7-1.44-5.63-1.11,2.72-1.86,4.39-2.5,4.38-.01,0-.02,0-.03-.01-.01.01-.02.01-.03.01-.64.01-1.39-1.65-2.5-4.38-.51,1.93-1.02,4.09-1.44,5.63-.24.86-.73,1.2-1.19,1.14-.59-.07-.98-.49-.74-1.25.25-.81,1.84-6.07,2.3-7.72.47-1.65,1.59-.9,1.8-.49.21.41,1.36,3.67,1.8,4.59.44-.92,1.59-4.18,1.8-4.59.21-.41,1.33-1.16,1.8.49.46,1.64,2.05,6.9,2.3,7.72.24.76-.15,1.18-.74,1.25Z"/>
      </g>
      <g>
        <rect class="cls-3" x="76.27" y="542.5" width="6.95" height="1.9" rx=".95" ry=".95"/>
        <path d="m74.2,539.98c-.75-1.02-1.5-1.53-2.25-1.53h-.07c-.77.03-1.52.6-2.21,1.69-1.14,1.8-1.61,4.77.05,7.03.55.79,1.23,1.23,2,1.27.05,0,.11,0,.17,0,.89,0,1.7-.51,2.13-.97.96-1.01,1.3-2.33,1.3-3.62,0-1.57-.52-3.07-1.12-3.88Zm-2.22.07c.86,0,1.48,1.13,1.53,1.91.02.3,0,.48-.11.58-.07.08-.2.11-.39.12h-1.07c-.36,0-.72,0-1.04,0-.15,0-.25-.04-.32-.12-.09-.1-.14-.28-.12-.54.06-.78.73-1.96,1.52-1.96Zm-1.4,4.38c.43-.04.85-.05,1.27-.05.25,0,.51,0,.75,0,.29,0,.57,0,.85,0,.13,0,.24.09.25.21.1.84-.2,1.56-.78,1.95-.51.34-1.17.38-1.68.11-.61-.33-.93-1.04-.91-1.99,0-.12.12-.24.25-.25Z"/>
        <path class="cls-3" d="m93.51,539.77c-.2.78-1.37,6.55-1.58,7.33-.21.78-.44,1.33-.9,1.35s-.64-.27-1.17-1.25c-.53-.98-1.66-3.47-2.44-5.56-.53,1.89-.73,3.97-1.16,5.48-.25.85-.58,1.36-1.02,1.29-.1-.02-1.05-.26-.75-1.36.22-.81,1.48-6,1.96-7.62.48-1.62,1.54-.85,1.73-.44.19.41,2.31,5.6,2.67,6.53.19-.85.69-4.5,1.08-6.27.13-.6.81-.88,1.1-.76s.68.5.48,1.29Z"/>
      </g>
      <g>
        <rect class="cls-3" x="255.14" y="542.5" width="6.95" height="1.9" rx=".95" ry=".95"/>
        <path d="m252.94,539.98c-.75-1.02-1.5-1.53-2.25-1.53h-.07c-.77.03-1.52.6-2.21,1.69-1.14,1.8-1.61,4.77.05,7.03.55.79,1.23,1.23,2,1.27.05,0,.11,0,.17,0,.89,0,1.7-.51,2.13-.97.96-1.01,1.3-2.33,1.3-3.62,0-1.57-.52-3.07-1.12-3.88Zm-2.22.07c.86,0,1.48,1.13,1.53,1.91.02.3,0,.48-.11.58-.07.08-.2.11-.39.12h-1.07c-.36,0-.72,0-1.04,0-.15,0-.25-.04-.32-.12-.09-.1-.14-.28-.12-.54.06-.78.73-1.96,1.52-1.96Zm-1.4,4.38c.43-.04.85-.05,1.27-.05.25,0,.51,0,.75,0,.29,0,.57,0,.85,0,.13,0,.24.09.25.21.1.84-.2,1.56-.78,1.95-.51.34-1.17.38-1.68.11-.61-.33-.93-1.04-.91-1.99,0-.12.12-.24.25-.25Z"/>
        <path class="cls-3" d="m270.83,539.38c-.01.49-.38.78-1.17.77h-2.09v7.47c0,.45-.37.83-.83.83s-.83-.38-.83-.83v-7.47h-2.09c-.79,0-1.16-.28-1.17-.77-.02-.62.45-.89,1.12-.91.82-.02,5.12-.02,5.94,0,.67.02,1.14.29,1.12.91Z"/>
      </g>
      <g>
        <path class="cls-3" d="m73.08,435.99c.48.44.43.65.44.96,0,.31-.23.47-.53.71-1.75,1.43-2.78,2.44-2.78,2.44,0,0,.42.05,4.42.05.4,0,.79.33.79.78,0,.48-.22.88-.64.88-2.35,0-4.02-.05-5.97-.05-.79,0-1.34-.19-1.52-.57-.17-.36-.12-.9.55-1.52,1.91-1.72,3.47-2.88,3.47-2.88,0,0-2.17-1.97-3.75-3.56-.33-.33-.43-.62-.31-.85.11-.2.55-.57.92-.57h6.71c.74,0,.77,1.31,0,1.31-3.37,0-5.2.02-5.2.02"/>
        <rect class="cls-3" x="76.56" y="435.85" width="6.95" height="1.9" rx=".95" ry=".95"/>
        <path class="cls-3" d="m94.76,440.31l-.97-.99-.02-.02c1.23-2.17.51-4.46-.12-5.62-.87-1.56-3.93-2.62-5.78-1.24-2.07,1.53-2.64,3.26-2.09,6.23.3,1.66,2.32,3.48,4.78,3.07.79-.14,1.51-.53,2.11-1.07l.84.86c.34.34.89.35,1.24,0,.35-.34.35-.9,0-1.24Zm-6.76-1.14c-.78-.77-1.05-3.12.06-4.56,1.24-1.59,3.21-.9,3.76-.41.64.58,1.52,2.26.81,3.93l-.1-.1h0s-1.02-1.04-1.02-1.04c-.34-.35-.9-.35-1.24,0-.18.16-.26.39-.26.62s.08.45.25.62l1.1,1.12.15.15c-1.14.75-2.65.55-3.51-.31Z"/>
      </g>
      <g>
        <path class="cls-3" d="m252.94,435.99c.48.44.43.65.44.96s-.23.47-.53.71c-1.75,1.43-2.78,2.44-2.78,2.44,0,0,.42.05,4.42.05.4,0,.79.33.79.78,0,.48-.22.88-.64.88-2.35,0-4.02-.05-5.97-.05-.79,0-1.34-.19-1.52-.57-.17-.36-.12-.9.55-1.52,1.91-1.72,3.47-2.88,3.47-2.88,0,0-2.17-1.97-3.75-3.56-.33-.33-.43-.62-.31-.85.11-.2.55-.57.92-.57h6.71c.74,0,.77,1.31,0,1.31-3.37,0-5.2.02-5.2.02"/>
        <rect class="cls-3" x="255.12" y="435.85" width="6.95" height="1.9" rx=".95" ry=".95"/>
        <path class="cls-3" d="m271.15,432.73c-.01.49-.38.78-1.17.77h-2.09v7.47c0,.45-.37.83-.83.83s-.83-.38-.83-.83v-7.47h-2.09c-.79,0-1.16-.28-1.17-.77-.02-.62.45-.89,1.12-.91.82-.02,5.12-.02,5.94,0,.67.02,1.14.29,1.12.91Z"/>
      </g>
      <g>
        <rect class="cls-3" x="436.64" y="323.76" width="6.95" height="1.9" rx=".95" ry=".95"/>
        <path class="cls-3" d="m433.81,321.45c-1.86,0-2.27,0-3.51,0-.46,0-1.11-.2-1.11-.85,0-.57.42-.88,1.07-.88,4.93,0,5.05-.05,5.58.38.28.22.43.73.15,1.14-1.71,2.48-4.64,6.6-4.64,6.6,0,0,2.47-.05,3.73-.05,1.57,0,1.46,1.88.13,1.88-8.37,0-8.83,1.14-1.4-8.22Z"/>
        <path class="cls-3" d="m445.45,320.16c4.64-1.3,7.94.33,7.99,3.72.1,6.19-7.54,6.06-7.86,5.69-.19-.72-.85-5.47-.13-9.41Zm1.61,7.69c3.94-.46,5.1-2.07,4.74-4.52-.36-2.45-4.31-2.07-4.85-1.81-.26,3.6-.2,4.36.11,6.32Z"/>
      </g>
      <g>
        <path class="cls-3" d="m615.55,218.19c.16.19.21.44.19.68-.03.24-.16.46-.34.61-.4.3-.98.23-1.3-.17l-2.45-3.14-2.45,3.14c-.18.23-.45.36-.72.36-.19,0-.4-.07-.57-.19-.19-.15-.32-.37-.35-.61-.03-.24.03-.49.19-.68l2.73-3.51-2.73-3.51c-.13-.17-.19-.36-.19-.57,0-.28.14-.56.36-.73.19-.15.42-.21.67-.19.24.03.47.16.61.35l2.45,3.14,2.44-3.14c.33-.41.91-.48,1.31-.16.22.17.35.43.35.72,0,.2-.07.4-.19.57l-2.73,3.51,2.73,3.51Z"/>
        <rect class="cls-3" x="616.4" y="213.73" width="6.95" height="1.9" rx=".95" ry=".95"/>
        <path class="cls-3" d="m629.97,213.26c-.23-1.81.31-1.52-1.96-1.52-.48,0-1.1-.23-1.08-.83.02-.68.18-1,1.11-1,.29,0,2.96-.14,5.13-.13.75,0,1.29.31,1.29,1,0,.56-.42.9-1.31.9-1.86,0-1.61-.26-1.61,1.62,0,2.18.1,3.12-.28,3.9-2.04,4.14-6.19,2.28-6.19-.8,0-.58.16-.88.74-.92.52-.04.65.48.76.88.75,2.71,4.08,2.04,3.42-3.1Z"/>
      </g>
      <g>
        <path class="cls-3" d="m617.65,548.45h-3.54c-.32,0-.53-.32-.41-.62,2.67-6.29.99-7.71-1.08-7.85-.04,0-.08,0-.12,0h-.02s-.09,0-.13,0c-.04,0-.08,0-.12,0-2.07.14-3.75,1.56-1.08,7.85.12.29-.09.62-.41.62h-3.54c-.14,0-.66-1.27.12-1.73.69-.41.99.09,1.81.11-2.24-4.96.04-7.96,2.78-8.36.08-.02.94-.02,1.02,0,2.74.41,5.02,3.4,2.78,8.36.82-.02,1.12-.51,1.81-.11.78.46.26,1.73.12,1.73Z"/>
        <rect class="cls-3" x="618.23" y="542.5" width="6.95" height="1.9" rx=".95" ry=".95"/>
        <path class="cls-3" d="m634.58,546.08c-.25,1.19-1.45,2.37-3.24,2.37h-.11c-1-.04-2.78-.26-3.51-1.25-.39-.52-.47-1.13-.19-1.44.24-.27.68-.24,1.23.08,1.08,1.06,2.52,1.08,3.42.64.52-.26.82-.65.77-1.03-.03-.33-.36-.94-2.12-1.35-2.5-.56-3.55-1.98-3.49-3.14.06-1.03,1.04-2.24,3.59-2.51.07,0,.13,0,.2,0,1.08,0,2.66.83,2.96,1.59.13.32.04.59-.26.82-.19.14-.59-.05-1.1-.3-.48-.23-1.01-.49-1.51-.55-.14-.02-.27-.03-.4-.03-.95,0-1.68.48-1.82.99-.13.47.23.9.96,1.2l2.99,1.21c1.5.62,1.82,1.8,1.62,2.7Z"/>
      </g>
      <g>
        <path class="cls-3" d="m616.99,439.94c-.93-2.27-1.86-4.39-2.21-5.2-.38-.84-.67-1.52-.74-1.72-.32-.87-.6-1.18-1.12-1.22-.5.04-.79.34-1.11,1.22-.07.2-.36.87-.73,1.72-.73,1.66-1.56,3.6-2.22,5.2-.28.71-.29,1.21-.03,1.52.19.23.49.34.9.34h6.43c.41,0,.71-.12.9-.34.12-.15.18-.34.18-.58,0-.26-.07-.57-.22-.94Zm-1.67.34h-4.8c.17-.42.49-1.25.87-2.18.56-1.41,1.21-3.07,1.53-3.9.39.98,1.22,3.11,1.83,4.63l.57,1.44Z"/>
        <rect class="cls-3" x="617.21" y="435.85" width="6.95" height="1.9" rx=".95" ry=".95"/>
        <path class="cls-3" d="m633.32,439.44c-.25,1.19-1.45,2.37-3.24,2.37h-.11c-1-.04-2.78-.26-3.51-1.25-.39-.52-.47-1.13-.19-1.44.24-.27.68-.24,1.23.08,1.08,1.06,2.52,1.08,3.42.64.52-.26.82-.65.77-1.03-.03-.33-.36-.94-2.12-1.35-2.5-.56-3.55-1.98-3.49-3.14.06-1.03,1.04-2.24,3.59-2.51.07,0,.13,0,.2,0,1.08,0,2.66.83,2.96,1.59.13.32.04.59-.26.82-.19.14-.59-.05-1.1-.3-.48-.23-1.01-.49-1.51-.55-.14-.02-.27-.03-.4-.03-.95,0-1.68.48-1.82.99-.13.47.23.9.96,1.2l2.99,1.21c1.5.62,1.82,1.8,1.62,2.7Z"/>
      </g>
      <g>
        <rect class="cls-3" x="616.23" y="323.76" width="6.95" height="1.9" rx=".95" ry=".95"/>
        <path class="cls-3" d="m613.8,321.45c-1.86,0-2.27,0-3.51,0-.46,0-1.11-.2-1.11-.85,0-.57.42-.88,1.07-.88,4.93,0,5.05-.05,5.58.38.28.22.43.73.15,1.14-1.71,2.48-4.64,6.6-4.64,6.6,0,0,2.47-.05,3.73-.05,1.57,0,1.46,1.88.13,1.88-8.37,0-8.83,1.14-1.4-8.22Z"/>
        <path class="cls-3" d="m632.51,321.37c-.42-.02-1.11-.04-1.33-.05-2.5-.16-3.99,1.77-4.23,4.08-.08.74.07,1.24.63,1.77.96.88,2.65,1.08,3.68.33.29-.21.56-.57.67-.92.23-.7-.06-1.13-.73-1.15-.55-.02-1.11.07-1.67.1-.47.02-.98.05-1.11-.62-.11-.57.35-1.04,1.07-1.13.6-.07,1.2-.08,1.8-.13.41-.04.92,0,1.41-.03.86,1.57.93,2.45.34,3.91-.66,1.62-1.9,2.23-3.38,2.2-.76-.02-1.61-.21-2.26-.62-2.32-1.47-2.63-3.71-1.3-6.4,1.3-3.01,4.25-2.97,5.53-2.98.84,0,1.06.15.85,1.66Z"/>
      </g>
      <g>
        <path class="cls-3" d="m436.92,218.19c.16.19.21.44.19.68-.03.24-.16.46-.34.61-.4.3-.98.23-1.3-.17l-2.45-3.14-2.45,3.14c-.18.23-.45.36-.72.36-.19,0-.4-.07-.57-.19-.19-.15-.32-.37-.35-.61-.03-.24.03-.49.19-.68l2.73-3.51-2.73-3.51c-.13-.17-.19-.36-.19-.57,0-.28.14-.56.36-.73.19-.15.42-.21.67-.19.24.03.47.16.61.35l2.45,3.14,2.44-3.14c.33-.41.91-.48,1.31-.16.22.17.35.43.35.72,0,.2-.07.4-.19.57l-2.73,3.51,2.73,3.51Z"/>
        <rect class="cls-3" x="437.56" y="213.73" width="6.95" height="1.9" rx=".95" ry=".95"/>
        <path class="cls-3" d="m452.98,218.69c-.87-2.99-2.3-6.84-2.48-7.31-.18-.46-.77-1.7-1.18-1.7s-1,1.24-1.18,1.7c-.18.47-1.61,4.32-2.48,7.31-.24.84.06.91.18.94,1.61.21,1.32-.3,1.57-1.4.23-1,.22-1.46,1-1.46.38,0,.56.01.91.01s.54-.01.91-.01c.78,0,.77.46,1,1.46.25,1.1-.04,1.61,1.57,1.4.12-.03.42-.1.18-.94Zm-2.91-3.37h-1.51c-.14,0-.23-.07-.19-.23l.94-3.44.94,3.44c.04.16-.05.23-.19.23Z"/>
      </g>
      <g>
        <path class="cls-3" d="m437.42,439.94c-.93-2.27-1.86-4.39-2.21-5.2-.38-.84-.67-1.52-.74-1.72-.32-.87-.6-1.18-1.12-1.22-.5.04-.79.34-1.11,1.22-.07.2-.36.87-.73,1.72-.73,1.66-1.56,3.6-2.22,5.2-.28.71-.29,1.21-.03,1.52.19.23.49.34.9.34h6.43c.41,0,.71-.12.9-.34.12-.15.18-.34.18-.58,0-.26-.07-.57-.22-.94Zm-1.67.34h-4.8c.17-.42.49-1.25.87-2.18.56-1.41,1.21-3.07,1.53-3.9.39.98,1.22,3.11,1.83,4.63l.57,1.44Z"/>
        <rect class="cls-3" x="438.07" y="435.85" width="6.95" height="1.9" rx=".95" ry=".95"/>
        <path class="cls-3" d="m446.8,432.28c2.1-.68,4.35-.62,5.15.12,1.3,1.2,1.17,2.8.53,3.78-.96,1.47-3.93,1.42-3.93,1.42,0,0,.29,3.22.2,3.68-.02.1-.5.53-.74.53-.26,0-.84-.18-.88-.48-.61-5.29-.67-8.32-.33-9.04Zm1.64,3.84c2.37.24,3.12-.65,2.92-2-.2-1.35-2.71-1-3.01-.85-.11,1.56-.08,1.77.09,2.85Z"/>
      </g>
      <g>
        <rect class="cls-3" x="79.43" y="213.73" width="6.95" height="1.9" rx=".95" ry=".95"/>
        <path class="cls-3" d="m78.64,209.69c-.46-.06-.96.28-1.19,1.14-.42,1.54-.92,3.7-1.44,5.63-1.11-2.72-1.86-4.39-2.5-4.38-.01,0-.02,0-.03.01-.01-.01-.02-.01-.03-.01-.64-.01-1.39,1.65-2.5,4.38-.51-1.93-1.02-4.09-1.44-5.63-.24-.86-.73-1.2-1.19-1.14-.59.07-.98.49-.74,1.25.25.81,1.84,6.07,2.3,7.72.47,1.65,1.59.9,1.8.49.21-.41,1.36-3.67,1.8-4.59.44.92,1.59,4.18,1.8,4.59.21.41,1.33,1.16,1.8-.49.46-1.64,2.05-6.9,2.3-7.72.24-.76-.15-1.18-.74-1.25Z"/>
        <path class="cls-3" d="m91.86,214.54c4.39-1.93.8-6.48-3.28-4.27-.04.02-.07.06-.07.1-.38,2.63-.16,6.19.2,8.71.02.13.12.23.24.27,6.22,1.71,7.68-3.78,2.91-4.81Zm.65-2.47c0,1.13-1.98,1.51-2.74,1.51-.13-.26-.02-2.43.07-2.53.9-.25,2.67.04,2.67,1.02Zm-2.38,6.17c-.17-1.1-.2-1.41-.14-2.54.47-.06,3.32-.1,3.29,1.38-.03,1.15-2.44,1.38-3.15,1.16Z"/>
      </g>
      <g>
        <path class="cls-3" d="m76.27,320.96l-4.37,8.3c-.15.29-.45.46-.75.46-.13,0-.26-.04-.39-.1-.2-.11-.35-.28-.42-.5-.07-.21-.05-.45.06-.65l1.88-3.58-2.53-3.62c-.12-.11-.2-.27-.24-.47-.05-.25.03-.53.2-.71.15-.17.35-.27.58-.28.22,0,.45.07.61.21l2.2,3.29,1.65-3.14c.12-.2.29-.35.51-.42.22-.07.45-.04.65.07.22.12.38.33.43.59.03.19,0,.38-.08.55Z"/>
        <rect class="cls-3" x="76.21" y="323.76" width="6.95" height="1.9" rx=".95" ry=".95"/>
        <path class="cls-3" d="m87.68,322.7c0,.36.02,1.02.02,1.02,0,0,2.18.01,3.53.07.5.02.9-.07.95.78.04.6-.32.73-.87.77-1.28.09-3.49.05-3.49.05,0,0,.03,1.16.07,1.65.03.39.1.88.1.88,0,0,3.53.01,3.93,0,.33,0,.84,0,.81.84-.03.89-.42.83-.98.87-1.49.1-4.12,0-4.84-.38-1.02-.55-.79-5.46-.37-8.84.08-.67,3.98-.71,4.96-.62.44.04.67.53.67.82,0,.31,0,.87-.59.9-1.38.08-3.86.16-3.86.16,0,0-.03.8-.02,1.03Z"/>
      </g>
      <g>
        <rect class="cls-3" x="257.59" y="213.73" width="6.95" height="1.9" rx=".95" ry=".95"/>
        <path class="cls-3" d="m256.78,209.69c-.46-.06-.96.28-1.19,1.14-.42,1.54-.92,3.7-1.44,5.63-1.11-2.72-1.86-4.39-2.5-4.38-.01,0-.02,0-.03.01-.01-.01-.02-.01-.03-.01-.64-.01-1.39,1.65-2.5,4.38-.51-1.93-1.02-4.09-1.44-5.63-.24-.86-.73-1.2-1.19-1.14-.59.07-.98.49-.74,1.25.25.81,1.84,6.07,2.3,7.72.47,1.65,1.59.9,1.8.49.21-.41,1.36-3.67,1.8-4.59.44.92,1.59,4.18,1.8,4.59.21.41,1.33,1.16,1.8-.49.46-1.64,2.05-6.9,2.3-7.72.24-.76-.15-1.18-.74-1.25Z"/>
        <path class="cls-3" d="m267.57,215.79c0,1.63,0,2.16,0,3.1,0,.66-.29.79-.8.79-.52,0-.93-.29-.93-.87,0-1.15-.04-6.16-.04-8.56,0-.52.34-.57.65-.57.41,0,.86.14.86.57,0,1.02.08,3.16.08,3.16,0,0,1.87-1.75,2.5-2.42.41-.44,1-.5,1.3-.14.3.36.47.6-.1,1.15-.85.84-1.04,1.21-2.46,2.53.83.86,2.18,1.99,3.61,3.62.45.51.34,1.14.17,1.3s-.8.24-1.19-.17c-.39-.4-1.92-2.09-3.65-3.5Z"/>
      </g>
      <g>
        <path class="cls-3" d="m255.16,320.96l-4.37,8.3c-.15.29-.45.46-.75.46-.13,0-.26-.04-.39-.1-.2-.11-.35-.28-.42-.5-.07-.21-.05-.45.06-.65l1.88-3.58-2.53-3.62c-.12-.11-.2-.27-.24-.47-.05-.25.03-.53.2-.71.15-.17.35-.27.58-.28.22,0,.45.07.61.21l2.2,3.29,1.65-3.14c.12-.2.29-.35.51-.42.22-.07.45-.04.65.07.22.12.38.33.43.59.03.19,0,.38-.08.55Z"/>
        <rect class="cls-3" x="254.46" y="323.76" width="6.95" height="1.9" rx=".95" ry=".95"/>
        <path class="cls-3" d="m269.82,320.79v7.97c0,.82-.23.95-.84.95-.67,0-.75-.2-.75-.9,0-2.75.12-3.14-.89-3.17-.34-.02-1.3-.02-1.68,0-1.01.03-.89.42-.89,3.17,0,.7-.08.9-.75.9-.61,0-.84-.13-.84-.95v-7.97c0-.96.39-1.07.88-1.07s.71.2.71,1.04c0,2.76.11,3.25.76,3.25h1.94c.65,0,.76-.49.76-3.25,0-.84.22-1.04.71-1.04s.88.11.88,1.07Z"/>
      </g>
    </g>
  </g>
  <g>
    <g>
      <g>
        <circle class="cls-3" cx="81" cy="201" r="2.5"/>
        <circle class="cls-3" cx="111" cy="171" r="2.5"/>
        <circle class="cls-3" cx="81" cy="141" r="2.5"/>
        <circle class="cls-3" cx="51" cy="171" r="2.5"/>
        <circle class="cls-3" cx="81" cy="171" r="1.12"/>
      </g>
      <g>
        <circle class="cls-3" cx="231" cy="171" r="2.5"/>
        <circle class="cls-3" cx="261" cy="141" r="2.5"/>
        <circle class="cls-3" cx="291" cy="171" r="2.5"/>
        <circle class="cls-3" cx="261" cy="201" r="2.5"/>
        <circle class="cls-3" cx="261" cy="171" r="1.13"/>
      </g>
      <g>
        <circle class="cls-3" cx="171" cy="201" r="2.5"/>
        <circle class="cls-3" cx="201" cy="171" r="2.5"/>
        <circle class="cls-3" cx="171" cy="141" r="2.5"/>
        <circle class="cls-3" cx="141" cy="171" r="2.5"/>
        <circle class="cls-3" cx="171" cy="171" r="1.12"/>
      </g>
      <g>
        <circle class="cls-3" cx="321" cy="171" r="2.5"/>
        <circle class="cls-3" cx="351" cy="141" r="2.5"/>
        <circle class="cls-3" cx="381" cy="171" r="2.5"/>
        <circle class="cls-3" cx="351" cy="201" r="2.5"/>
        <circle class="cls-3" cx="351" cy="171" r="1.13"/>
      </g>
      <g>
        <circle class="cls-3" cx="441" cy="201" r="2.5"/>
        <circle class="cls-3" cx="471" cy="171" r="2.5"/>
        <circle class="cls-3" cx="441" cy="141" r="2.5"/>
        <circle class="cls-3" cx="411" cy="171" r="2.5"/>
        <circle class="cls-3" cx="441" cy="171" r="1.12"/>
      </g>
      <g>
        <circle class="cls-3" cx="591" cy="171" r="2.5"/>
        <circle class="cls-3" cx="621" cy="141" r="2.5"/>
        <circle class="cls-3" cx="651" cy="171" r="2.5"/>
        <circle class="cls-3" cx="621" cy="201" r="2.5"/>
        <circle class="cls-3" cx="621" cy="171" r="1.13"/>
      </g>
      <g>
        <circle class="cls-3" cx="531" cy="201" r="2.5"/>
        <circle class="cls-3" cx="561" cy="171" r="2.5"/>
        <circle class="cls-3" cx="531" cy="141" r="2.5"/>
        <circle class="cls-3" cx="501" cy="171" r="2.5"/>
        <circle class="cls-3" cx="531" cy="171" r="1.12"/>
      </g>
      <g>
        <circle class="cls-3" cx="681" cy="171" r="2.5"/>
        <circle class="cls-3" cx="711" cy="141" r="2.5"/>
        <circle class="cls-3" cx="741" cy="171" r="2.5"/>
        <circle class="cls-3" cx="711" cy="201" r="2.5"/>
        <circle class="cls-3" cx="711" cy="171" r="1.13"/>
      </g>
    </g>
    <g>
      <g>
        <circle class="cls-3" cx="51" cy="281" r="2.5"/>
        <circle class="cls-3" cx="81" cy="251" r="2.5"/>
        <circle class="cls-3" cx="111" cy="281" r="2.5"/>
        <circle class="cls-3" cx="81" cy="311" r="2.5"/>
        <circle class="cls-3" cx="81" cy="281" r="1.13"/>
      </g>
      <g>
        <circle class="cls-3" cx="261" cy="311" r="2.5"/>
        <circle class="cls-3" cx="291" cy="281" r="2.5"/>
        <circle class="cls-3" cx="261" cy="251" r="2.5"/>
        <circle class="cls-3" cx="231" cy="281" r="2.5"/>
        <circle class="cls-3" cx="261" cy="281" r="1.12"/>
      </g>
      <g>
        <circle class="cls-3" cx="141" cy="281" r="2.5"/>
        <circle class="cls-3" cx="171" cy="251" r="2.5"/>
        <circle class="cls-3" cx="201" cy="281" r="2.5"/>
        <circle class="cls-3" cx="171" cy="311" r="2.5"/>
        <circle class="cls-3" cx="171" cy="281" r="1.13"/>
      </g>
      <g>
        <circle class="cls-3" cx="351" cy="311" r="2.5"/>
        <circle class="cls-3" cx="381" cy="281" r="2.5"/>
        <circle class="cls-3" cx="351" cy="251" r="2.5"/>
        <circle class="cls-3" cx="321" cy="281" r="2.5"/>
        <circle class="cls-3" cx="351" cy="281" r="1.12"/>
      </g>
      <g>
        <circle class="cls-3" cx="411" cy="281" r="2.5"/>
        <circle class="cls-3" cx="441" cy="251" r="2.5"/>
        <circle class="cls-3" cx="471" cy="281" r="2.5"/>
        <circle class="cls-3" cx="441" cy="311" r="2.5"/>
        <circle class="cls-3" cx="441" cy="281" r="1.13"/>
      </g>
      <g>
        <circle class="cls-3" cx="621" cy="311" r="2.5"/>
        <circle class="cls-3" cx="651" cy="281" r="2.5"/>
        <circle class="cls-3" cx="621" cy="251" r="2.5"/>
        <circle class="cls-3" cx="591" cy="281" r="2.5"/>
        <circle class="cls-3" cx="621" cy="281" r="1.12"/>
      </g>
      <g>
        <circle class="cls-3" cx="501" cy="281" r="2.5"/>
        <circle class="cls-3" cx="531" cy="251" r="2.5"/>
        <circle class="cls-3" cx="561" cy="281" r="2.5"/>
        <circle class="cls-3" cx="531" cy="311" r="2.5"/>
        <circle class="cls-3" cx="531" cy="281" r="1.13"/>
      </g>
      <g>
        <circle class="cls-3" cx="711" cy="311" r="2.5"/>
        <circle class="cls-3" cx="741" cy="281" r="2.5"/>
        <circle class="cls-3" cx="711" cy="251" r="2.5"/>
        <circle class="cls-3" cx="681" cy="281" r="2.5"/>
        <circle class="cls-3" cx="711" cy="281" r="1.12"/>
      </g>
    </g>
    <g>
      <g>
        <circle class="cls-3" cx="81" cy="361" r="2.5"/>
        <circle class="cls-3" cx="51" cy="391" r="2.5"/>
        <circle class="cls-3" cx="81" cy="421" r="2.5"/>
        <circle class="cls-3" cx="111" cy="391" r="2.5"/>
        <circle class="cls-3" cx="81" cy="391" r="1.12"/>
      </g>
      <g>
        <circle class="cls-3" cx="231" cy="391" r="2.5"/>
        <circle class="cls-3" cx="261" cy="361" r="2.5"/>
        <circle class="cls-3" cx="291" cy="391" r="2.5"/>
        <circle class="cls-3" cx="261" cy="421" r="2.5"/>
        <circle class="cls-3" cx="261" cy="391" r="1.12"/>
      </g>
      <g>
        <circle class="cls-3" cx="171" cy="361" r="2.5"/>
        <circle class="cls-3" cx="141" cy="391" r="2.5"/>
        <circle class="cls-3" cx="171" cy="421" r="2.5"/>
        <circle class="cls-3" cx="201" cy="391" r="2.5"/>
        <circle class="cls-3" cx="171" cy="391" r="1.12"/>
      </g>
      <g>
        <circle class="cls-3" cx="321" cy="391" r="2.5"/>
        <circle class="cls-3" cx="351" cy="361" r="2.5"/>
        <circle class="cls-3" cx="381" cy="391" r="2.5"/>
        <circle class="cls-3" cx="351" cy="421" r="2.5"/>
        <circle class="cls-3" cx="351" cy="391" r="1.13"/>
      </g>
      <g>
        <circle class="cls-3" cx="441" cy="361" r="2.5"/>
        <circle class="cls-3" cx="411" cy="391" r="2.5"/>
        <circle class="cls-3" cx="441" cy="421" r="2.5"/>
        <circle class="cls-3" cx="471" cy="391" r="2.5"/>
        <circle class="cls-3" cx="441" cy="391" r="1.12"/>
      </g>
      <g>
        <circle class="cls-3" cx="591" cy="391" r="2.5"/>
        <circle class="cls-3" cx="621" cy="361" r="2.5"/>
        <circle class="cls-3" cx="651" cy="391" r="2.5"/>
        <circle class="cls-3" cx="621" cy="421" r="2.5"/>
        <circle class="cls-3" cx="621" cy="391" r="1.12"/>
      </g>
      <g>
        <circle class="cls-3" cx="531" cy="361" r="2.5"/>
        <circle class="cls-3" cx="501" cy="391" r="2.5"/>
        <circle class="cls-3" cx="531" cy="421" r="2.5"/>
        <circle class="cls-3" cx="561" cy="391" r="2.5"/>
        <circle class="cls-3" cx="531" cy="391" r="1.12"/>
      </g>
      <g>
        <circle class="cls-3" cx="681" cy="391" r="2.5"/>
        <circle class="cls-3" cx="711" cy="361" r="2.5"/>
        <circle class="cls-3" cx="741" cy="391" r="2.5"/>
        <circle class="cls-3" cx="711" cy="421" r="2.5"/>
        <circle class="cls-3" cx="711" cy="391" r="1.12"/>
      </g>
    </g>
    <g>
      <g>
        <circle class="cls-3" cx="81" cy="531" r="2.5"/>
        <circle class="cls-3" cx="51" cy="501" r="2.5"/>
        <circle class="cls-3" cx="81" cy="471" r="2.5"/>
        <circle class="cls-3" cx="111" cy="501" r="2.5"/>
        <circle class="cls-3" cx="81" cy="501" r="1.13"/>
      </g>
      <g>
        <circle class="cls-3" cx="231" cy="501" r="2.5"/>
        <circle class="cls-3" cx="261" cy="531" r="2.5"/>
        <circle class="cls-3" cx="291" cy="501" r="2.5"/>
        <circle class="cls-3" cx="261" cy="471" r="2.5"/>
        <circle class="cls-3" cx="261" cy="501" r="1.13"/>
      </g>
      <g>
        <circle class="cls-3" cx="171" cy="531" r="2.5"/>
        <circle class="cls-3" cx="141" cy="501" r="2.5"/>
        <circle class="cls-3" cx="171" cy="471" r="2.5"/>
        <circle class="cls-3" cx="201" cy="501" r="2.5"/>
        <circle class="cls-3" cx="171" cy="501" r="1.13"/>
      </g>
      <g>
        <circle class="cls-3" cx="321" cy="501" r="2.5"/>
        <circle class="cls-3" cx="351" cy="531" r="2.5"/>
        <circle class="cls-3" cx="381" cy="501" r="2.5"/>
        <circle class="cls-3" cx="351" cy="471" r="2.5"/>
        <circle class="cls-3" cx="351" cy="501" r="1.13"/>
      </g>
      <g>
        <circle class="cls-3" cx="441" cy="531" r="2.5"/>
        <circle class="cls-3" cx="411" cy="501" r="2.5"/>
        <circle class="cls-3" cx="441" cy="471" r="2.5"/>
        <circle class="cls-3" cx="471" cy="501" r="2.5"/>
        <circle class="cls-3" cx="441" cy="501" r="1.13"/>
      </g>
      <g>
        <circle class="cls-3" cx="591" cy="501" r="2.5"/>
        <circle class="cls-3" cx="621" cy="531" r="2.5"/>
        <circle class="cls-3" cx="651" cy="501" r="2.5"/>
        <circle class="cls-3" cx="621" cy="471" r="2.5"/>
        <circle class="cls-3" cx="621" cy="501" r="1.12"/>
      </g>
      <g>
        <circle class="cls-3" cx="531" cy="531" r="2.5"/>
        <circle class="cls-3" cx="501" cy="501" r="2.5"/>
        <circle class="cls-3" cx="531" cy="471" r="2.5"/>
        <circle class="cls-3" cx="561" cy="501" r="2.5"/>
        <circle class="cls-3" cx="531" cy="501" r="1.13"/>
      </g>
      <g>
        <circle class="cls-3" cx="681" cy="501" r="2.5"/>
        <circle class="cls-3" cx="711" cy="531" r="2.5"/>
        <circle class="cls-3" cx="741" cy="501" r="2.5"/>
        <circle class="cls-3" cx="711" cy="471" r="2.5"/>
        <circle class="cls-3" cx="711" cy="501" r="1.13"/>
      </g>
    </g>
  </g>
  <g>
    <line class="cls-11" x1="48.5" y1="233.97" x2="743.5" y2="233.97"/>
    <line class="cls-11" x1="48.5" y1="343.97" x2="743.5" y2="343.97"/>
    <line class="cls-11" x1="396" y1="138.5" x2="396" y2="551.75"/>
    <line class="cls-11" x1="48.5" y1="453.97" x2="743.5" y2="453.97"/>
  </g>
  <g>
    <rect class="cls-10" x="82.75" y="169.75" width="25" height="2.5" rx=".99" ry=".99" transform="translate(190.5 342) rotate(-180)"/>
    <rect class="cls-8" x="54.25" y="169.75" width="25" height="2.5" rx=".99" ry=".99"/>
    <rect class="cls-10" x="82.75" y="279.75" width="25" height="2.5" rx=".99" ry=".99" transform="translate(190.5 562) rotate(-180)"/>
    <rect class="cls-8" x="54.25" y="279.75" width="25" height="2.5" rx=".99" ry=".99"/>
    <rect class="cls-10" x="82.75" y="499.75" width="25" height="2.5" rx=".99" ry=".99" transform="translate(190.5 1002) rotate(180)"/>
    <rect class="cls-8" x="68.5" y="485.5" width="25" height="2.5" rx=".99" ry=".99" transform="translate(567.75 405.75) rotate(90)"/>
    <rect class="cls-10" x="68.5" y="375.5" width="25" height="2.5" rx=".99" ry=".99" transform="translate(457.75 295.75) rotate(90)"/>
    <rect class="cls-8" x="82.75" y="389.75" width="25" height="2.5" rx=".99" ry=".99" transform="translate(190.5 782) rotate(-180)"/>
    <rect class="cls-10" x="262.75" y="389.75" width="25" height="2.5" rx=".99" ry=".99" transform="translate(550.5 782) rotate(-180)"/>
    <rect class="cls-8" x="248.5" y="404" width="25" height="2.5" rx=".99" ry=".99" transform="translate(-144.25 666.25) rotate(-90)"/>
    <rect class="cls-10" x="248.5" y="514" width="25" height="2.5" rx=".99" ry=".99" transform="translate(-254.25 776.25) rotate(-90)"/>
    <rect class="cls-8" x="262.75" y="499.75" width="25" height="2.5" rx=".99" ry=".99" transform="translate(550.5 1002) rotate(180)"/>
    <rect class="cls-10" x="172.75" y="499.75" width="25" height="2.5" rx=".99" ry=".99" transform="translate(370.5 1002) rotate(180)"/>
    <rect class="cls-8" x="158.5" y="485.5" width="25" height="2.5" rx=".99" ry=".99" transform="translate(657.75 315.75) rotate(90)"/>
    <rect class="cls-10" x="158.5" y="375.5" width="25" height="2.5" rx=".99" ry=".99" transform="translate(547.75 205.75) rotate(90)"/>
    <rect class="cls-8" x="172.75" y="389.75" width="25" height="2.5" rx=".99" ry=".99" transform="translate(370.5 782) rotate(-180)"/>
    <rect class="cls-10" x="352.75" y="389.75" width="25" height="2.5" rx=".99" ry=".99" transform="translate(730.5 782) rotate(-180)"/>
    <rect class="cls-8" x="338.5" y="404" width="25" height="2.5" rx=".99" ry=".99" transform="translate(-54.25 756.25) rotate(-90)"/>
    <rect class="cls-10" x="338.5" y="514" width="25" height="2.5" rx=".99" ry=".99" transform="translate(-164.25 866.25) rotate(-90)"/>
    <rect class="cls-8" x="352.75" y="499.75" width="25" height="2.5" rx=".99" ry=".99" transform="translate(730.5 1002) rotate(180)"/>
    <rect class="cls-10" x="442.75" y="499.75" width="25" height="2.5" rx=".99" ry=".99" transform="translate(910.5 1002) rotate(180)"/>
    <rect class="cls-8" x="428.5" y="485.5" width="25" height="2.5" rx=".99" ry=".99" transform="translate(927.75 45.75) rotate(90)"/>
    <rect class="cls-10" x="428.5" y="375.5" width="25" height="2.5" rx=".99" ry=".99" transform="translate(817.75 -64.25) rotate(90)"/>
    <rect class="cls-8" x="442.75" y="389.75" width="25" height="2.5" rx=".99" ry=".99" transform="translate(910.5 782) rotate(-180)"/>
    <rect class="cls-10" x="622.75" y="389.75" width="25" height="2.5" rx=".99" ry=".99" transform="translate(1270.5 782) rotate(-180)"/>
    <rect class="cls-8" x="608.5" y="404" width="25" height="2.5" rx=".99" ry=".99" transform="translate(215.75 1026.25) rotate(-90)"/>
    <rect class="cls-10" x="608.5" y="514" width="25" height="2.5" rx=".99" ry=".99" transform="translate(105.75 1136.25) rotate(-90)"/>
    <rect class="cls-8" x="622.75" y="499.75" width="25" height="2.5" rx=".99" ry=".99" transform="translate(1270.5 1002) rotate(180)"/>
    <rect class="cls-10" x="532.75" y="499.75" width="25" height="2.5" rx=".99" ry=".99" transform="translate(1090.5 1002) rotate(180)"/>
    <rect class="cls-8" x="518.5" y="485.5" width="25" height="2.5" rx=".99" ry=".99" transform="translate(1017.75 -44.25) rotate(90)"/>
    <rect class="cls-10" x="518.5" y="375.5" width="25" height="2.5" rx=".99" ry=".99" transform="translate(907.75 -154.25) rotate(90)"/>
    <rect class="cls-8" x="532.75" y="389.75" width="25" height="2.5" rx=".99" ry=".99" transform="translate(1090.5 782) rotate(-180)"/>
    <rect class="cls-10" x="712.75" y="389.75" width="25" height="2.5" rx=".99" ry=".99" transform="translate(1450.5 782) rotate(-180)"/>
    <rect class="cls-8" x="698.5" y="404" width="25" height="2.5" rx=".99" ry=".99" transform="translate(305.75 1116.25) rotate(-90)"/>
    <rect class="cls-10" x="698.5" y="514" width="25" height="2.5" rx=".99" ry=".99" transform="translate(195.75 1226.25) rotate(-90)"/>
    <rect class="cls-8" x="712.75" y="499.75" width="25" height="2.5" rx=".99" ry=".99" transform="translate(1450.5 1002) rotate(180)"/>
    <rect class="cls-10" x="250.52" y="183.98" width="25" height="2.5" rx=".99" ry=".99" transform="translate(77.8 448.25) rotate(-90)"/>
    <rect class="cls-8" x="246.52" y="183.98" width="25" height="2.5" rx=".99" ry=".99" transform="translate(73.8 444.25) rotate(-90)"/>
    <rect class="cls-10" x="172.75" y="169.75" width="25" height="2.5" rx=".99" ry=".99" transform="translate(370.5 342) rotate(-180)"/>
    <rect class="cls-8" x="144.25" y="169.75" width="25" height="2.5" rx=".99" ry=".99"/>
    <rect class="cls-10" x="340.52" y="183.98" width="25" height="2.5" rx=".99" ry=".99" transform="translate(167.8 538.25) rotate(-90)"/>
    <rect class="cls-8" x="336.52" y="183.98" width="25" height="2.5" rx=".99" ry=".99" transform="translate(163.8 534.25) rotate(-90)"/>
    <rect class="cls-10" x="442.75" y="169.75" width="25" height="2.5" rx=".99" ry=".99" transform="translate(910.5 342) rotate(-180)"/>
    <rect class="cls-8" x="414.25" y="169.75" width="25" height="2.5" rx=".99" ry=".99"/>
    <rect class="cls-10" x="610.52" y="183.98" width="25" height="2.5" rx=".99" ry=".99" transform="translate(437.8 808.25) rotate(-90)"/>
    <rect class="cls-8" x="606.52" y="183.98" width="25" height="2.5" rx=".99" ry=".99" transform="translate(433.8 804.25) rotate(-90)"/>
    <rect class="cls-10" x="532.75" y="169.75" width="25" height="2.5" rx=".99" ry=".99" transform="translate(1090.5 342) rotate(-180)"/>
    <rect class="cls-8" x="504.25" y="169.75" width="25" height="2.5" rx=".99" ry=".99"/>
    <rect class="cls-10" x="700.52" y="183.98" width="25" height="2.5" rx=".99" ry=".99" transform="translate(527.8 898.25) rotate(-90)"/>
    <rect class="cls-8" x="696.52" y="183.98" width="25" height="2.5" rx=".99" ry=".99" transform="translate(523.8 894.25) rotate(-90)"/>
    <rect class="cls-10" x="250.52" y="293.98" width="25" height="2.5" rx=".99" ry=".99" transform="translate(-32.2 558.25) rotate(-90)"/>
    <rect class="cls-8" x="246.52" y="293.98" width="25" height="2.5" rx=".99" ry=".99" transform="translate(-36.2 554.25) rotate(-90)"/>
    <rect class="cls-10" x="172.75" y="279.75" width="25" height="2.5" rx=".99" ry=".99" transform="translate(370.5 562) rotate(-180)"/>
    <rect class="cls-8" x="144.25" y="279.75" width="25" height="2.5" rx=".99" ry=".99"/>
    <rect class="cls-10" x="340.52" y="293.98" width="25" height="2.5" rx=".99" ry=".99" transform="translate(57.8 648.25) rotate(-90)"/>
    <rect class="cls-8" x="336.52" y="293.98" width="25" height="2.5" rx=".99" ry=".99" transform="translate(53.8 644.25) rotate(-90)"/>
    <rect class="cls-10" x="442.75" y="279.75" width="25" height="2.5" rx=".99" ry=".99" transform="translate(910.5 562) rotate(-180)"/>
    <rect class="cls-8" x="414.25" y="279.75" width="25" height="2.5" rx=".99" ry=".99"/>
    <rect class="cls-10" x="610.52" y="293.98" width="25" height="2.5" rx=".99" ry=".99" transform="translate(327.8 918.25) rotate(-90)"/>
    <rect class="cls-8" x="606.52" y="293.98" width="25" height="2.5" rx=".99" ry=".99" transform="translate(323.8 914.25) rotate(-90)"/>
    <rect class="cls-10" x="532.75" y="279.75" width="25" height="2.5" rx=".99" ry=".99" transform="translate(1090.5 562) rotate(-180)"/>
    <rect class="cls-8" x="504.25" y="279.75" width="25" height="2.5" rx=".99" ry=".99"/>
    <rect class="cls-10" x="700.52" y="293.98" width="25" height="2.5" rx=".99" ry=".99" transform="translate(417.8 1008.25) rotate(-90)"/>
    <rect class="cls-8" x="696.52" y="293.98" width="25" height="2.5" rx=".99" ry=".99" transform="translate(413.8 1004.25) rotate(-90)"/>
  </g>
</svg>