<?xml version="1.0" encoding="UTF-8"?>
<svg id="Layer_1" data-name="Layer 1" xmlns="http://www.w3.org/2000/svg" viewBox="0 0 792 612">
  <defs>
    <style>
      .cls-1 {
        fill: none;
      }

      .cls-1, .cls-2, .cls-3 {
        stroke: #231f20;
        stroke-miterlimit: 10;
      }

      .cls-4, .cls-5 {
        letter-spacing: -.09em;
      }

      .cls-6, .cls-7, .cls-8, .cls-9, .cls-10, .cls-11, .cls-12, .cls-13, .cls-14, .cls-2, .cls-15, .cls-5, .cls-3, .cls-16 {
        fill: #231f20;
      }

      .cls-6, .cls-17, .cls-8, .cls-18, .cls-19, .cls-12, .cls-13, .cls-20, .cls-21, .cls-22, .cls-23, .cls-24, .cls-5, .cls-25, .cls-26, .cls-27 {
        font-family: Cambria, Cambria;
      }

      .cls-6, .cls-28, .cls-24, .cls-29 {
        letter-spacing: -.01em;
      }

      .cls-7 {
        font-size: 20px;
      }

      .cls-7, .cls-30, .cls-28, .cls-31, .cls-32 {
        font-weight: 700;
      }

      .cls-7, .cls-10, .cls-11, .cls-14, .cls-33, .cls-34 {
        font-style: italic;
      }

      .cls-7, .cls-31 {
        font-family: Cambria-BoldItalic, Cambria;
      }

      .cls-17, .cls-35 {
        letter-spacing: -.02em;
      }

      .cls-30, .cls-28, .cls-36 {
        fill: #ed1c24;
      }

      .cls-30, .cls-28, .cls-32 {
        font-family: Cambria-Bold, Cambria;
      }

      .cls-8, .cls-18, .cls-37 {
        letter-spacing: 0em;
      }

      .cls-38 {
        letter-spacing: -.07em;
      }

      .cls-9 {
        font-family: MonotypeCorsiva, 'Monotype Corsiva';
        font-size: 45px;
      }

      .cls-39 {
        letter-spacing: 0em;
      }

      .cls-19 {
        letter-spacing: -.02em;
      }

      .cls-40, .cls-32 {
        fill: #2e3192;
      }

      .cls-10, .cls-41, .cls-14, .cls-33, .cls-34 {
        font-family: Cambria-Italic, Cambria;
      }

      .cls-11, .cls-14, .cls-15, .cls-42 {
        font-size: 15px;
      }

      .cls-13, .cls-21, .cls-43 {
        letter-spacing: 0em;
      }

      .cls-20 {
        letter-spacing: -.02em;
      }

      .cls-22 {
        letter-spacing: -.1em;
      }

      .cls-2 {
        stroke-width: 2px;
      }

      .cls-31 {
        text-decoration: underline;
      }

      .cls-23, .cls-44 {
        letter-spacing: -.02em;
      }

      .cls-45 {
        letter-spacing: 0em;
      }

      .cls-25 {
        letter-spacing: 0em;
      }

      .cls-46, .cls-34 {
        letter-spacing: 0em;
      }

      .cls-3 {
        stroke-width: 3px;
      }

      .cls-26 {
        letter-spacing: -.08em;
      }

      .cls-47 {
        fill: #010101;
      }
    </style>
  </defs>
  <text class="cls-15" transform="translate(163.89 78.85)"><tspan class="cls-27"><tspan class="cls-4" x="0" y="0">Y</tspan><tspan x="7.24" y="0">ou can pair a </tspan><tspan class="cls-35" x="92.37" y="0">d</tspan><tspan class="cls-44" x="100.39" y="0">y</tspan><tspan x="107.62" y="0">adic ar</tspan><tspan class="cls-29" x="150.88" y="0">r</tspan><tspan class="cls-43" x="156.86" y="0">o</tspan><tspan x="164.75" y="0">w with a dash ar</tspan><tspan class="cls-29" x="269.93" y="0">r</tspan><tspan class="cls-43" x="275.92" y="0">o</tspan><tspan x="283.81" y="0">w that has a ma</tspan><tspan class="cls-37" x="383.56" y="0">t</tspan><tspan x="388.51" y="0">ching line.</tspan></tspan><tspan class="cls-27" x="8.22" y="18">Just li</tspan><tspan class="cls-19" x="44.17" y="18">k</tspan><tspan class="cls-27" x="51.78" y="18">e with shifts, this indica</tspan><tspan class="cls-18" x="202.4" y="18">t</tspan><tspan class="cls-27" x="207.34" y="18">es that the motion is </tspan><tspan class="cls-33" x="340.67" y="18">ahead </tspan><tspan class="cls-27" x="382.42" y="18">or </tspan><tspan class="cls-33" x="399.89" y="18">b</tspan><tspan class="cls-34" x="407.71" y="18">e</tspan><tspan class="cls-33" x="414.45" y="18">hind</tspan><tspan class="cls-27" x="442.36" y="18">. </tspan></text>
  <text class="cls-42" transform="translate(121.45 263.82)"><tspan class="cls-5" x="0" y="0">Y</tspan><tspan class="cls-12" x="7.24" y="0">ou can also add a half-line </tspan><tspan class="cls-8" x="175.83" y="0">t</tspan><tspan class="cls-12" x="180.77" y="0">o the middle of a </tspan><tspan class="cls-10" x="290.42" y="0">Shift→Dash/Dash→Shift</tspan><tspan class="cls-12" x="442.69" y="0" xml:space="preserve"> ar</tspan><tspan class="cls-6" x="459.52" y="0">r</tspan><tspan class="cls-13" x="465.51" y="0">o</tspan><tspan class="cls-12" x="473.39" y="0">w (in </tspan><tspan class="cls-32" x="509.88" y="0">blue</tspan><tspan class="cls-12" x="540.29" y="0">),</tspan><tspan class="cls-12" x="103.75" y="18">indicating that the other motion (in </tspan><tspan class="cls-28" x="333.1" y="18">r</tspan><tspan class="cls-30" x="339.8" y="18">ed</tspan><tspan class="cls-12" x="356.72" y="18">) is stagge</tspan><tspan class="cls-6" x="420.65" y="18">r</tspan><tspan class="cls-12" x="426.64" y="18">ed.</tspan></text>
  <text class="cls-9" transform="translate(255.53 48.84)"><tspan x="0" y="0">Staggered Dashes</tspan></text>
  <text class="cls-15" transform="translate(255.46 444.71)"><tspan class="cls-27" x="0" y="0">Final</tspan><tspan class="cls-17" x="31.98" y="0">l</tspan><tspan class="cls-26" x="35.76" y="0">y</tspan><tspan class="cls-27" x="42.07" y="0">, the</tspan><tspan class="cls-24" x="69.12" y="0">r</tspan><tspan class="cls-27" x="75.1" y="0">e a</tspan><tspan class="cls-24" x="93.05" y="0">r</tspan><tspan class="cls-27" x="99.03" y="0">e </tspan><tspan class="cls-33" x="109.65" y="0">dash→dash </tspan><tspan class="cls-17" x="184.38" y="0">d</tspan><tspan class="cls-23" x="192.4" y="0">y</tspan><tspan class="cls-27" x="199.64" y="0">adic ar</tspan><tspan class="cls-24" x="242.89" y="0">r</tspan><tspan class="cls-21" x="248.88" y="0">o</tspan><tspan class="cls-25" x="256.77" y="0">w</tspan><tspan class="cls-27" x="268.26" y="0">s. </tspan><tspan class="cls-27" x="-97.27" y="18">These can also h</tspan><tspan class="cls-20" x="7.27" y="18">av</tspan><tspan class="cls-27" x="21.57" y="18">e a half-line, indicating that the </tspan><tspan class="cls-33" x="222.64" y="18">other </tspan><tspan class="cls-27" x="259.64" y="18">p</tspan><tspan class="cls-24" x="267.99" y="18">r</tspan><tspan class="cls-27" x="273.97" y="18">op has a stagge</tspan><tspan class="cls-22" x="370.54" y="18">r</tspan><tspan class="cls-27" x="375.28" y="18">.</tspan><tspan class="cls-27"><tspan x="-73.02" y="36" xml:space="preserve"> (When pai</tspan><tspan class="cls-29" x="-3.06" y="36">r</tspan><tspan x="2.92" y="36">ed with another </tspan><tspan class="cls-35" x="108.13" y="36">d</tspan><tspan class="cls-44" x="116.15" y="36">y</tspan><tspan x="123.39" y="36">adic ar</tspan><tspan class="cls-29" x="166.65" y="36">r</tspan><tspan class="cls-43" x="172.63" y="36">o</tspan><tspan class="cls-38" x="180.52" y="36">w</tspan><tspan x="191.04" y="36">, this half-line is omit</tspan><tspan class="cls-37" x="324.71" y="36">t</tspan><tspan x="329.66" y="36">ed.)</tspan></tspan></text>
  <g>
    <path class="cls-40" d="m695.59,256.69l-3.82,3.82s-1.56-1.51-.68-2.69c.98-1.35,5.85-5.69,5.85-5.69,0,0,4.65,3.99,5.89,5.69.85,1.18-.72,2.69-.72,2.69l-3.76-3.82v67.41c0,.26.08.43.44.43,9.43,0,27.93-3.38,27.93-28.44,0-2.32,2.61-2.39,2.61,0,0,22.42-13.87,31-30.53,31.24-.21,0-.43.16-.43.37v4.36c0,.78-.61,1.4-1.38,1.4-.76,0-1.38-.62-1.38-1.4v-75.37Z"/>
    <path class="cls-40" d="m738.22,252.4s4.65,3.99,5.89,5.69c.85,1.18-.72,2.69-.72,2.69l-3.76-3.7v52.63c.88-12.92,10.66-13.94,29.65-13.94,2.09,0,2.06,3-.04,2.98-26.04-.22-27.76,1.61-27.76,26.04,0,.23-.01.43-.06.63h3.92c.94,0,1.67.58,1.67,1.31,0,.72-.73,1.31-1.67,1.31h-12.23c-.94,0-1.67-.59-1.67-1.31,0-.73.73-1.31,1.67-1.31h3.82c-.04-.19-.06-.39-.06-.61,0-2.3,0-67.74,0-67.74l-3.82,3.7s-1.55-1.51-.68-2.69c.98-1.35,5.85-5.69,5.85-5.69Z"/>
  </g>
  <text class="cls-14" transform="translate(694.3 383.68)"><tspan x="0" y="0">half-lin</tspan><tspan class="cls-39" x="45.1" y="0">e</tspan><tspan x="51.87" y="0">s</tspan></text>
  <text class="cls-14" transform="translate(29.3 383.68)"><tspan x="0" y="0">half-lin</tspan><tspan class="cls-39" x="45.1" y="0">e</tspan><tspan x="51.87" y="0">s</tspan></text>
  <g>
    <line class="cls-1" x1="721.03" y1="369.08" x2="732.73" y2="344.19"/>
    <polygon class="cls-16" points="735.74 337.8 735.18 348.54 732.51 344.67 727.83 345.08 735.74 337.8"/>
  </g>
  <g>
    <line class="cls-1" x1="721.03" y1="369.08" x2="709.32" y2="344.19"/>
    <polygon class="cls-16" points="706.31 337.8 714.23 345.07 709.54 344.67 706.87 348.54 706.31 337.8"/>
  </g>
  <g>
    <line class="cls-1" x1="58.1" y1="369.08" x2="69.81" y2="344.19"/>
    <polygon class="cls-16" points="72.82 337.8 72.26 348.54 69.59 344.67 64.9 345.08 72.82 337.8"/>
  </g>
  <g>
    <line class="cls-1" x1="58.1" y1="369.08" x2="46.4" y2="344.19"/>
    <polygon class="cls-16" points="43.39 337.8 51.3 345.07 46.62 344.67 43.95 348.54 43.39 337.8"/>
  </g>
  <g>
    <path class="cls-16" d="m233.96,214.1c-1.33,0-3.23,1.68-3.23,5,0,2.56,1.22,5,3.23,5s3.27-2.44,3.27-5c0-3.48-1.94-5-3.27-5Zm.01,1.37c.96,0,1.64,1.13,1.7,1.93.02.3,0,.81-.55.81h-2.33c-.46,0-.51-.5-.5-.76.07-.8.81-1.98,1.69-1.98Zm0,7.26c-1.08,0-1.72-1.28-1.79-2.08-.01-.25,0-.76.5-.76h2.53c.56,0,.58.5.55.81-.06.8-.72,2.03-1.8,2.03Z"/>
    <path class="cls-36" d="m650.59,153.24v.13c0,.4-.33.72-.72.72h-3.1s0,32.06,0,32.06l2.62-2.58s1.09,1.05.5,1.87c-.86,1.18-4.09,3.95-4.09,3.95,0,0-3.38-3.01-4.06-3.95-.61-.82.47-1.87.47-1.87l2.65,2.72v-32.2s-3.11,0-3.11,0c-.4,0-.73-.32-.73-.72v-.13c0-.4.33-.73.73-.73h8.12c.39,0,.72.33.72.73Z"/>
    <g>
      <polygon class="cls-47" points="495.83 169.86 507.66 169.86 507.66 166.06 513.91 170.95 507.66 175.84 507.66 172.04 495.83 172.04 495.83 169.86"/>
      <g>
        <rect class="cls-16" x="599.57" y="165.75" width="13.29" height="3.19"/>
        <rect class="cls-16" x="599.57" y="172.96" width="13.29" height="3.19"/>
      </g>
      <g>
        <circle class="cls-16" cx="554.34" cy="200.95" r="2.5"/>
        <circle class="cls-16" cx="584.34" cy="170.95" r="2.5"/>
        <circle class="cls-16" cx="554.34" cy="140.95" r="2.5"/>
        <circle class="cls-16" cx="524.34" cy="170.95" r="2.5"/>
        <circle class="cls-16" cx="554.34" cy="170.95" r="1.12"/>
      </g>
      <g>
        <circle class="cls-16" cx="454.34" cy="200.95" r="2.5"/>
        <circle class="cls-16" cx="484.34" cy="170.95" r="2.5"/>
        <circle class="cls-16" cx="454.34" cy="140.95" r="2.5"/>
        <circle class="cls-16" cx="424.34" cy="170.95" r="2.5"/>
        <circle class="cls-16" cx="454.34" cy="170.95" r="1.12"/>
      </g>
      <path class="cls-40" d="m657.06,167.2c.5,0,.92.39.92.87v1.82h22.29c.49,0,.89.39.89.85v.42c0,.46-.4.85-.89.85h-22.29v1.82c0,.48-.42.87-.92.87s-.91-.39-.91-.87v-5.76c0-.48.41-.87.91-.87Z"/>
      <path class="cls-40" d="m557.06,167.2c.5,0,.92.39.92.87v1.82h22.29c.49,0,.89.39.89.85v.42c0,.46-.4.85-.89.85h-22.29v1.82c0,.48-.42.87-.92.87s-.91-.39-.91-.87v-5.76c0-.48.41-.87.91-.87Z"/>
      <path class="cls-36" d="m658.09,173.67c0,.5-.39.92-.87.92h-1.82s0,22.29,0,22.29c0,.49-.39.89-.85.89h-.42c-.46,0-.85-.4-.85-.89v-22.29s-1.82,0-1.82,0c-.48,0-.87-.42-.87-.92,0-.5.39-.91.87-.91h5.76c.48,0,.87.41.87.91Z"/>
      <path class="cls-36" d="m558.09,173.67c0,.5-.39.92-.87.92h-1.82s0,22.29,0,22.29c0,.49-.39.89-.85.89h-.42c-.46,0-.85-.4-.85-.89v-22.29s-1.82,0-1.82,0c-.48,0-.87-.42-.87-.92,0-.5.39-.91.87-.91h5.76c.48,0,.87.41.87.91Z"/>
      <path class="cls-40" d="m458.09,173.67c0,.5-.39.92-.87.92h-1.82s0,22.29,0,22.29c0,.49-.39.89-.85.89h-.42c-.46,0-.85-.4-.85-.89v-22.29s-1.82,0-1.82,0c-.48,0-.87-.42-.87-.92,0-.5.39-.91.87-.91h5.76c.48,0,.87.41.87.91Z"/>
      <path class="cls-36" d="m458.09,145.05c0,.5-.39.92-.87.92h-1.82s0,22.29,0,22.29c0,.49-.39.89-.85.89h-.42c-.46,0-.85-.4-.85-.89v-22.29s-1.82,0-1.82,0c-.48,0-.87-.42-.87-.92,0-.5.39-.91.87-.91h5.76c.48,0,.87.41.87.91Z"/>
      <path class="cls-36" d="m549.28,184.51c-.79,1.08-4.05,3.91-4.05,3.91,0,0-3.26-2.83-4.05-3.91-.59-.82.5-1.87.5-1.87l2.62,2.58v-30.74c0-1.32,1.86-1.32,1.86,0v30.74s2.62-2.58,2.62-2.58c0,0,1.09,1.05.5,1.87Z"/>
      <path class="cls-36" d="m328.63,184.51c-.79,1.08-4.05,3.91-4.05,3.91,0,0-3.26-2.83-4.05-3.91-.59-.82.5-1.87.5-1.87l2.62,2.58v-30.74c0-1.32,1.86-1.32,1.86,0v30.74s2.62-2.58,2.62-2.58c0,0,1.09,1.05.5,1.87Z"/>
      <path class="cls-36" d="m148.51,185.29c-.79,1.08-4.05,3.91-4.05,3.91,0,0-3.26-2.83-4.05-3.91-.59-.82.5-1.87.5-1.87l2.62,2.58v-30.74c0-1.32,1.86-1.32,1.86,0v30.74s2.62-2.58,2.62-2.58c0,0,1.09,1.05.5,1.87Z"/>
      <g>
        <circle class="cls-16" cx="654.34" cy="200.95" r="2.5"/>
        <circle class="cls-16" cx="684.34" cy="170.95" r="2.5"/>
        <circle class="cls-16" cx="654.34" cy="140.95" r="2.5"/>
        <circle class="cls-16" cx="624.34" cy="170.95" r="2.5"/>
        <circle class="cls-16" cx="654.34" cy="170.95" r="1.12"/>
      </g>
      <polygon class="cls-47" points="175.48 169.86 187.3 169.86 187.3 166.06 193.55 170.95 187.3 175.84 187.3 172.04 175.48 172.04 175.48 169.86"/>
      <g>
        <rect class="cls-16" x="279.21" y="165.75" width="13.29" height="3.19"/>
        <rect class="cls-16" x="279.21" y="172.96" width="13.29" height="3.19"/>
      </g>
      <g>
        <circle class="cls-16" cx="233.98" cy="200.95" r="2.5"/>
        <circle class="cls-16" cx="263.98" cy="170.95" r="2.5"/>
        <circle class="cls-16" cx="233.98" cy="140.95" r="2.5"/>
        <circle class="cls-16" cx="203.98" cy="170.95" r="2.5"/>
        <circle class="cls-16" cx="233.98" cy="170.95" r="1.12"/>
      </g>
      <g>
        <circle class="cls-16" cx="133.98" cy="200.95" r="2.5"/>
        <circle class="cls-16" cx="163.98" cy="170.95" r="2.5"/>
        <circle class="cls-16" cx="133.98" cy="140.95" r="2.5"/>
        <circle class="cls-16" cx="103.98" cy="170.95" r="2.5"/>
        <circle class="cls-16" cx="133.98" cy="170.95" r="1.12"/>
      </g>
      <path class="cls-40" d="m336.7,174.7c.5,0,.92-.39.92-.87v-1.82h22.29c.49,0,.89-.39.89-.85v-.42c0-.46-.4-.85-.89-.85h-22.29v-1.82c0-.48-.42-.87-.92-.87s-.91.39-.91.87v5.76c0,.48.41.87.91.87Z"/>
      <path class="cls-40" d="m236.71,167.2c.5,0,.92.39.92.87v1.82s22.29,0,22.29,0c.49,0,.89.39.89.85v.42c0,.46-.4.85-.89.85h-22.29s0,1.82,0,1.82c0,.48-.42.87-.92.87-.5,0-.91-.39-.91-.87v-5.76c0-.48.41-.87.91-.87Z"/>
      <path class="cls-36" d="m237.73,173.67c0,.5-.39.92-.87.92h-1.82s0,22.29,0,22.29c0,.49-.39.89-.85.89h-.42c-.46,0-.85-.4-.85-.89v-22.29s-1.82,0-1.82,0c-.48,0-.87-.42-.87-.92,0-.5.39-.91.87-.91h5.76c.48,0,.87.41.87.91Z"/>
      <path class="cls-36" d="m330.23,173.67c0,.5.39.92.87.92h1.82s0,22.29,0,22.29c0,.49.39.89.85.89h.42c.46,0,.85-.4.85-.89v-22.29s1.82,0,1.82,0c.48,0,.87-.42.87-.92,0-.5-.39-.91-.87-.91h-5.76c-.48,0-.87.41-.87.91Z"/>
      <path class="cls-40" d="m135.23,173.67c0,.5-.39.92-.87.92h-1.82s0,22.29,0,22.29c0,.49-.39.89-.85.89h-.42c-.46,0-.85-.4-.85-.89v-22.29s-1.82,0-1.82,0c-.48,0-.87-.42-.87-.92,0-.5.39-.91.87-.91h5.76c.48,0,.87.41.87.91Z"/>
      <path class="cls-36" d="m140.23,173.67c0,.5-.39.92-.87.92h-1.82s0,22.29,0,22.29c0,.49-.39.89-.85.89h-.42c-.46,0-.85-.4-.85-.89v-22.29s-1.82,0-1.82,0c-.48,0-.87-.42-.87-.92,0-.5.39-.91.87-.91h5.76c.48,0,.87.41.87.91Z"/>
      <g>
        <circle class="cls-16" cx="333.98" cy="200.95" r="2.5"/>
        <circle class="cls-16" cx="363.98" cy="170.95" r="2.5"/>
        <circle class="cls-16" cx="333.98" cy="140.95" r="2.5"/>
        <circle class="cls-16" cx="303.98" cy="170.95" r="2.5"/>
        <circle class="cls-16" cx="333.98" cy="170.95" r="1.12"/>
      </g>
    </g>
    <text class="cls-7" transform="translate(506.18 124.95)"><tspan x="0" y="0">Type 1 → 4</tspan></text>
    <text class="cls-7" transform="translate(186.13 124.95)"><tspan x="0" y="0">Type 4 → 1</tspan></text>
    <path class="cls-40" d="m630.14,177.48c0,17.71,13.27,26.75,26.83,27.29v2.76c0,.58.48,1.06,1.07,1.06s1.06-.48,1.06-1.06v-2.75c13.44-.34,26.49-9.04,26.49-25.96l2.61,2.64s1.09-1.05.5-1.87c-.86-1.18-4.09-3.95-4.09-3.95,0,0-3.38,3.01-4.06,3.95-.61.82.47,1.87.47,1.87l2.65-2.64c0,15.4-12.12,23.48-24.57,23.83v-2.72c0-.59-.48-1.07-1.06-1.07s-1.07.48-1.07,1.07v2.7c-12.46-.53-24.6-8.84-24.6-25.34,0-1.26-2.23-1.13-2.23.19Z"/>
    <path class="cls-40" d="m425.93,175.47c0,11.89,9.57,22.68,21.38,22.72l-2.65,2.41s1.01,1.11,1.85.54c.95-.65,4.08-3.93,4.08-3.93,0,0-2.66-3.32-3.8-4.21-.81-.63-1.89.43-1.89.43l2.61,2.78c-8.93-.03-18.79-7.32-19.5-20.74-.08-1.57-2.09-1.62-2.08,0Z"/>
    <path class="cls-40" d="m558.71,198.69c11.89,0,22.68-9.57,22.72-21.38l2.41,2.65s1.11-1.01.54-1.85c-.65-.95-3.93-4.08-3.93-4.08,0,0-3.32,2.66-4.21,3.8-.63.81.43,1.89.43,1.89l2.78-2.61c-.03,8.93-7.32,18.79-20.74,19.5-1.57.08-1.62,2.09,0,2.08Z"/>
    <path class="cls-40" d="m309.56,177.99c0,17.71,13.27,26.75,26.83,27.29v2.76c0,.58.48,1.06,1.07,1.06s1.06-.48,1.06-1.06v-2.75c13.44-.34,26.49-9.04,26.49-25.96l2.61,2.64s1.09-1.05.5-1.87c-.86-1.18-4.09-3.95-4.09-3.95,0,0-3.38,3.01-4.06,3.95-.61.82.47,1.87.47,1.87l2.65-2.64c0,15.4-12.12,23.48-24.57,23.83v-2.72c0-.59-.48-1.07-1.06-1.07s-1.07.48-1.07,1.07v2.7c-12.46-.53-24.6-8.84-24.6-25.34,0-1.26-2.23-1.13-2.23.19Z"/>
    <path class="cls-40" d="m104.72,176.51c0,11.89,9.57,22.68,21.38,22.72l-2.65,2.41s1.01,1.11,1.85.54c.95-.65,4.08-3.93,4.08-3.93,0,0-2.66-3.32-3.8-4.21-.81-.63-1.89.43-1.89.43l2.61,2.78c-8.93-.03-18.79-7.32-19.5-20.74-.08-1.57-2.09-1.62-2.08,0Z"/>
    <path class="cls-40" d="m238.4,199.73c11.89,0,22.68-9.57,22.72-21.38l2.41,2.65s1.11-1.01.54-1.85c-.65-.95-3.93-4.08-3.93-4.08,0,0-3.32,2.66-4.21,3.8-.63.81.43,1.89.43,1.89l2.78-2.61c-.03,8.93-7.32,18.79-20.74,19.5-1.57.08-1.62,2.09,0,2.08Z"/>
    <line class="cls-2" x1="394.12" y1="219.9" x2="394.12" y2="108.09"/>
    <path class="cls-16" d="m459.5,209.11c-.46-.06-.96.28-1.19,1.14-.42,1.54-.92,3.7-1.44,5.63-1.11-2.72-1.86-4.39-2.5-4.38-.01,0-.02,0-.03.01-.01-.01-.02-.01-.03-.01-.64-.01-1.39,1.65-2.5,4.38-.51-1.93-1.02-4.09-1.44-5.63-.24-.86-.73-1.2-1.19-1.14-.59.07-.98.49-.74,1.25.25.81,1.84,6.07,2.3,7.72.47,1.65,1.59.9,1.8.49.21-.41,1.36-3.67,1.8-4.59.44.92,1.59,4.18,1.8,4.59.21.41,1.33,1.16,1.8-.49.46-1.64,2.05-6.9,2.3-7.72.24-.76-.15-1.18-.74-1.25Z"/>
    <path class="cls-16" d="m133.89,215.35l-4.37,8.3c-.15.29-.45.46-.75.46-.13,0-.26-.04-.39-.1-.2-.11-.35-.28-.42-.5-.07-.21-.05-.45.06-.65l1.88-3.58-2.53-3.62c-.12-.11-.2-.27-.24-.47-.05-.25.03-.53.2-.71.15-.17.35-.27.58-.28.22,0,.45.07.61.21l2.2,3.29,1.65-3.14c.12-.2.29-.35.51-.42.22-.07.45-.04.65.07.22.12.38.33.43.59.03.19,0,.38-.08.55Z"/>
    <path class="cls-16" d="m554.08,209.1c-1.33,0-3.23,1.68-3.23,5,0,2.56,1.22,5,3.23,5s3.27-2.44,3.27-5c0-3.48-1.94-5-3.27-5Zm.01,1.37c.96,0,1.64,1.13,1.7,1.93.02.3,0,.81-.55.81h-2.33c-.46,0-.51-.5-.5-.76.07-.8.81-1.98,1.69-1.98Zm0,7.26c-1.08,0-1.72-1.28-1.79-2.08-.01-.25,0-.76.5-.76h2.53c.56,0,.58.5.55.81-.06.8-.72,2.03-1.8,2.03Z"/>
    <rect class="cls-16" x="558.84" y="213.1" width="7" height="2" rx=".95" ry=".95"/>
    <path class="cls-16" d="m654.5,214.11c-.46-.06-.96.28-1.19,1.14-.42,1.54-.92,3.7-1.44,5.63-1.11-2.72-1.86-4.39-2.5-4.38-.01,0-.02,0-.03.01-.01-.01-.02-.01-.03-.01-.64-.01-1.39,1.65-2.5,4.38-.51-1.93-1.02-4.09-1.44-5.63-.24-.86-.73-1.2-1.19-1.14-.59.07-.98.49-.74,1.25.25.81,1.84,6.07,2.3,7.72.47,1.65,1.59.9,1.8.49.21-.41,1.36-3.67,1.8-4.59.44.92,1.59,4.18,1.8,4.59.21.41,1.33,1.16,1.8-.49.46-1.64,2.05-6.9,2.3-7.72.24-.76-.15-1.18-.74-1.25Z"/>
    <path class="cls-16" d="m659.89,214.1c-1.33,0-3.23,1.68-3.23,5,0,2.56,1.22,5,3.23,5s3.27-2.44,3.27-5c0-3.48-1.94-5-3.27-5Zm.01,1.37c.96,0,1.64,1.13,1.7,1.93.02.3,0,.81-.55.81h-2.33c-.46,0-.51-.5-.5-.76.07-.8.81-1.98,1.69-1.98Zm0,7.26c-1.08,0-1.72-1.28-1.79-2.08-.01-.25,0-.76.5-.76h2.53c.56,0,.58.5.55.81-.06.8-.72,2.03-1.8,2.03Z"/>
    <rect class="cls-16" x="664.64" y="218.1" width="7" height="2" rx=".95" ry=".95"/>
    <rect class="cls-16" x="134.42" y="218.1" width="7" height="2" rx=".95" ry=".95"/>
    <path class="cls-16" d="m342.1,214.1c-1.33,0-3.23,1.68-3.23,5,0,2.56,1.22,5,3.23,5s3.27-2.44,3.27-5c0-3.48-1.94-5-3.27-5Zm.01,1.37c.96,0,1.64,1.13,1.7,1.93.02.3,0,.81-.55.81h-2.33c-.46,0-.51-.5-.5-.76.07-.8.81-1.98,1.69-1.98Zm0,7.26c-1.08,0-1.72-1.28-1.79-2.08-.01-.25,0-.76.5-.76h2.53c.56,0,.58.5.55.81-.06.8-.72,2.03-1.8,2.03Z"/>
    <path class="cls-16" d="m329.38,215.35l-4.37,8.3c-.15.29-.45.46-.75.46-.13,0-.26-.04-.39-.1-.2-.11-.35-.28-.42-.5-.07-.21-.05-.45.06-.65l1.88-3.58-2.53-3.62c-.12-.11-.2-.27-.24-.47-.05-.25.03-.53.2-.71.15-.17.35-.27.58-.28.22,0,.45.07.61.21l2.2,3.29,1.65-3.14c.12-.2.29-.35.51-.42.22-.07.45-.04.65.07.22.12.38.33.43.59.03.19,0,.38-.08.55Z"/>
    <rect class="cls-16" x="329.9" y="218.1" width="7" height="2" rx=".95" ry=".95"/>
  </g>
  <g>
    <path class="cls-36" d="m57.8,102.83c-1.37,1.87-7,6.76-7,6.76,0,0-5.63-4.89-7-6.76-1.02-1.42.86-3.23.86-3.23l4.53,4.46v-56.49c0-2.28,3.21-2.28,3.21,0v56.49s4.53-4.46,4.53-4.46c0,0,1.88,1.81.86,3.23Z"/>
    <text class="cls-11" transform="translate(79.68 56.55)"><tspan class="cls-31"><tspan x="0" y="0">no</tspan></tspan><tspan class="cls-41"><tspan x="-22.84" y="18">ma</tspan><tspan class="cls-45" x="-2.97" y="18">t</tspan><tspan class="cls-43" x="2.11" y="18">c</tspan><tspan x="8.53" y="18">hing </tspan></tspan><tspan class="cls-41"><tspan x="-17.54" y="36">half-line</tspan></tspan><tspan class="cls-41"><tspan x="-16.35" y="54">(ahead)</tspan></tspan></text>
  </g>
  <g>
    <path class="cls-36" d="m758.35,48.79v.22c0,.69-.57,1.24-1.24,1.24h-5.36s0,55.4,0,55.4l4.53-4.46s1.88,1.81.86,3.23c-1.49,2.04-7.07,6.83-7.07,6.83,0,0-5.84-5.2-7.02-6.83-1.05-1.42.81-3.23.81-3.23l4.58,4.7-.02-55.64h-5.36c-.69,0-1.26-.55-1.26-1.24v-.22c0-.69.57-1.26,1.26-1.26h14.03c.67,0,1.24.57,1.24,1.26Z"/>
    <text class="cls-14" transform="translate(672.66 65.6)"><tspan x="0" y="0">ma</tspan><tspan class="cls-45" x="19.87" y="0">t</tspan><tspan class="cls-43" x="24.95" y="0">c</tspan><tspan x="31.37" y="0">hing </tspan><tspan x="5.3" y="18">half-line</tspan><tspan x="4.47" y="36">(b</tspan><tspan class="cls-46" x="17.86" y="36">e</tspan><tspan x="24.61" y="36">hind)</tspan></text>
  </g>
  <line class="cls-3" x1="31.68" y1="239.54" x2="760.32" y2="239.54"/>
  <line class="cls-3" x1="31.68" y1="421.92" x2="760.32" y2="421.92"/>
  <path class="cls-40" d="m34.15,331.34v-77.1c.01-2.23,2.76-2.22,2.76,0v69.08c0,.26.22.49.49.48,23.7-.16,27.86-16.07,27.72-27.88l-3.86,3.87s-1.6-1.56-.72-2.75c1.22-1.68,5.95-5.62,5.95-5.62,0,0,4.92,3.96,5.96,5.62.76,1.25-.72,2.75-.72,2.75l-3.74-3.87c.69,21.05-13.95,30.89-31.08,31.02,0,2.77,0,4.41,0,4.41,0,2.23-2.76,2.22-2.76,0Z"/>
  <path class="cls-40" d="m72.67,329.96c0-.73.73-1.31,1.67-1.31h3.82c-.04-.19-.06-.39-.06-.6v-69.6c-.01-2.23,2.74-2.22,2.74,0l.04,57.26c1.56-15.05,8.13-16.71,29.51-16.71l-3.69-3.74s1.51-1.57,2.69-.72c1.7,1.24,5.69,5.89,5.69,5.89,0,0-4.33,4.87-5.69,5.85-1.18.88-2.69-.68-2.69-.68l3.72-3.61c-25.98-.22-26.35,2.14-27.71,26.03-.01.23-.01.43-.06.63h3.92c.94,0,1.67.58,1.67,1.31,0,.72-.73,1.31-1.67,1.31h-12.23c-.94,0-1.67-.59-1.67-1.31Z"/>
  <text class="cls-7" transform="translate(513.56 510.97)"><tspan x="0" y="0">Type 3 → 4</tspan></text>
  <g>
    <text class="cls-7" transform="translate(198.77 317.9)"><tspan x="0" y="0">Type 3 → 2</tspan></text>
    <text class="cls-7" transform="translate(496.09 317.9)"><tspan x="0" y="0">Type 2 → 3</tspan></text>
    <path class="cls-16" d="m246.59,399.99c-1.33,0-3.23,1.68-3.23,5,0,2.56,1.22,5,3.23,5s3.27-2.44,3.27-5c0-3.48-1.94-5-3.27-5Zm.01,1.37c.96,0,1.64,1.13,1.7,1.93.02.3,0,.81-.55.81h-2.33c-.46,0-.51-.5-.5-.76.07-.8.81-1.98,1.69-1.98Zm0,7.26c-1.08,0-1.72-1.28-1.79-2.08-.01-.25,0-.76.5-.76h2.53c.56,0,.58.5.55.81-.06.8-.72,2.03-1.8,2.03Z"/>
    <g>
      <polygon class="cls-47" points="486.87 359.27 498.7 359.27 498.7 355.47 504.95 360.36 498.7 365.25 498.7 361.45 486.87 361.45 486.87 359.27"/>
      <g>
        <rect class="cls-16" x="590.61" y="355.16" width="13.29" height="3.19"/>
        <rect class="cls-16" x="590.61" y="362.37" width="13.29" height="3.19"/>
      </g>
      <g>
        <circle class="cls-16" cx="545.38" cy="390.36" r="2.5"/>
        <circle class="cls-16" cx="575.38" cy="360.36" r="2.5"/>
        <circle class="cls-16" cx="545.38" cy="330.36" r="2.5"/>
        <circle class="cls-16" cx="515.38" cy="360.36" r="2.5"/>
        <circle class="cls-16" cx="545.38" cy="360.36" r="1.12"/>
      </g>
      <g>
        <circle class="cls-16" cx="445.38" cy="390.36" r="2.5"/>
        <circle class="cls-16" cx="475.38" cy="360.36" r="2.5"/>
        <circle class="cls-16" cx="445.38" cy="330.36" r="2.5"/>
        <circle class="cls-16" cx="415.38" cy="360.36" r="2.5"/>
        <circle class="cls-16" cx="445.38" cy="360.36" r="1.12"/>
      </g>
      <path class="cls-40" d="m648.1,356.61c.5,0,.92.39.92.87v1.82h22.29c.49,0,.89.39.89.85v.42c0,.46-.4.85-.89.85h-22.29v1.82c0,.48-.42.87-.92.87s-.91-.39-.91-.87v-5.76c0-.48.41-.87.91-.87Z"/>
      <path class="cls-40" d="m548.1,356.61c.5,0,.92.39.92.87v1.82h22.29c.49,0,.89.39.89.85v.42c0,.46-.4.85-.89.85h-22.29v1.82c0,.48-.42.87-.92.87s-.91-.39-.91-.87v-5.76c0-.48.41-.87.91-.87Z"/>
      <path class="cls-36" d="m649.13,363.08c0,.5-.39.92-.87.92h-1.82s0,22.29,0,22.29c0,.49-.39.89-.85.89h-.42c-.46,0-.85-.4-.85-.89v-22.29s-1.82,0-1.82,0c-.48,0-.87-.42-.87-.92,0-.5.39-.91.87-.91h5.76c.48,0,.87.41.87.91Z"/>
      <path class="cls-36" d="m549.13,363.08c0,.5-.39.92-.87.92h-1.82s0,22.29,0,22.29c0,.49-.39.89-.85.89h-.42c-.46,0-.85-.4-.85-.89v-22.29s-1.82,0-1.82,0c-.48,0-.87-.42-.87-.92,0-.5.39-.91.87-.91h5.76c.48,0,.87.41.87.91Z"/>
      <path class="cls-40" d="m449.13,363.08c0,.5-.39.92-.87.92h-1.82s0,22.29,0,22.29c0,.49-.39.89-.85.89h-.42c-.46,0-.85-.4-.85-.89v-22.29s-1.82,0-1.82,0c-.48,0-.87-.42-.87-.92s.39-.91.87-.91h5.76c.48,0,.87.41.87.91Z"/>
      <path class="cls-36" d="m449.13,334.45c0,.5-.39.92-.87.92h-1.82s0,22.29,0,22.29c0,.49-.39.89-.85.89h-.42c-.46,0-.85-.4-.85-.89v-22.29s-1.82,0-1.82,0c-.48,0-.87-.42-.87-.92s.39-.91.87-.91h5.76c.48,0,.87.41.87.91Z"/>
      <g>
        <circle class="cls-16" cx="645.38" cy="390.36" r="2.5"/>
        <circle class="cls-16" cx="675.38" cy="360.36" r="2.5"/>
        <circle class="cls-16" cx="645.38" cy="330.36" r="2.5"/>
        <circle class="cls-16" cx="615.38" cy="360.36" r="2.5"/>
        <circle class="cls-16" cx="645.38" cy="360.36" r="1.12"/>
      </g>
      <polygon class="cls-47" points="188.11 359.27 199.94 359.27 199.94 355.47 206.19 360.36 199.94 365.25 199.94 361.45 188.11 361.45 188.11 359.27"/>
      <g>
        <rect class="cls-16" x="291.84" y="355.16" width="13.29" height="3.19"/>
        <rect class="cls-16" x="291.84" y="362.37" width="13.29" height="3.19"/>
      </g>
      <g>
        <circle class="cls-16" cx="246.62" cy="390.36" r="2.5"/>
        <circle class="cls-16" cx="276.62" cy="360.36" r="2.5"/>
        <circle class="cls-16" cx="246.62" cy="330.36" r="2.5"/>
        <circle class="cls-16" cx="216.62" cy="360.36" r="2.5"/>
        <circle class="cls-16" cx="246.62" cy="360.36" r="1.12"/>
      </g>
      <g>
        <circle class="cls-16" cx="146.62" cy="390.36" r="2.5"/>
        <circle class="cls-16" cx="176.62" cy="360.36" r="2.5"/>
        <circle class="cls-16" cx="146.62" cy="330.36" r="2.5"/>
        <circle class="cls-16" cx="116.62" cy="360.36" r="2.5"/>
        <circle class="cls-16" cx="146.62" cy="360.36" r="1.12"/>
      </g>
      <path class="cls-40" d="m349.34,364.11c.5,0,.92-.39.92-.87v-1.82h22.29c.49,0,.89-.39.89-.85v-.42c0-.46-.4-.85-.89-.85h-22.29v-1.82c0-.48-.42-.87-.92-.87-.5,0-.91.39-.91.87v5.76c0,.48.41.87.91.87Z"/>
      <path class="cls-40" d="m249.34,356.61c.5,0,.92.39.92.87v1.82s22.29,0,22.29,0c.49,0,.89.39.89.85v.42c0,.46-.4.85-.89.85h-22.29s0,1.82,0,1.82c0,.48-.42.87-.92.87s-.91-.39-.91-.87v-5.76c0-.48.41-.87.91-.87Z"/>
      <path class="cls-36" d="m250.37,363.08c0,.5-.39.92-.87.92h-1.82s0,22.29,0,22.29c0,.49-.39.89-.85.89h-.42c-.46,0-.85-.4-.85-.89v-22.29s-1.82,0-1.82,0c-.48,0-.87-.42-.87-.92s.39-.91.87-.91h5.76c.48,0,.87.41.87.91Z"/>
      <path class="cls-36" d="m342.87,363.08c0,.5.39.92.87.92h1.82s0,22.29,0,22.29c0,.49.39.89.85.89h.42c.46,0,.85-.4.85-.89v-22.29s1.82,0,1.82,0c.48,0,.87-.42.87-.92s-.39-.91-.87-.91h-5.76c-.48,0-.87.41-.87.91Z"/>
      <path class="cls-40" d="m147.87,363.08c0,.5-.39.92-.87.92h-1.82s0,22.29,0,22.29c0,.49-.39.89-.85.89h-.42c-.46,0-.85-.4-.85-.89v-22.29s-1.82,0-1.82,0c-.48,0-.87-.42-.87-.92,0-.5.39-.91.87-.91h5.76c.48,0,.87.41.87.91Z"/>
      <path class="cls-36" d="m152.87,363.08c0,.5-.39.92-.87.92h-1.82s0,22.29,0,22.29c0,.49-.39.89-.85.89h-.42c-.46,0-.85-.4-.85-.89v-22.29s-1.82,0-1.82,0c-.48,0-.87-.42-.87-.92,0-.5.39-.91.87-.91h5.76c.48,0,.87.41.87.91Z"/>
      <g>
        <circle class="cls-16" cx="346.62" cy="390.36" r="2.5"/>
        <circle class="cls-16" cx="376.62" cy="360.36" r="2.5"/>
        <circle class="cls-16" cx="346.62" cy="330.36" r="2.5"/>
        <circle class="cls-16" cx="316.62" cy="360.36" r="2.5"/>
        <circle class="cls-16" cx="346.62" cy="360.36" r="1.12"/>
      </g>
    </g>
    <path class="cls-16" d="m450.54,400c-.46-.06-.96.28-1.19,1.14-.42,1.54-.92,3.7-1.44,5.63-1.11-2.72-1.86-4.39-2.5-4.38-.01,0-.02,0-.03.01-.01-.01-.02-.01-.03-.01-.64-.01-1.39,1.65-2.5,4.38-.51-1.93-1.02-4.09-1.44-5.63-.24-.86-.73-1.2-1.19-1.14-.59.07-.98.49-.74,1.25.25.81,1.84,6.07,2.3,7.72.47,1.65,1.59.9,1.8.49.21-.41,1.36-3.67,1.8-4.59.44.92,1.59,4.18,1.8,4.59.21.41,1.33,1.16,1.8-.49.46-1.64,2.05-6.9,2.3-7.72.24-.76-.15-1.18-.74-1.25Z"/>
    <path class="cls-16" d="m146.53,401.24l-4.37,8.3c-.15.29-.45.46-.75.46-.13,0-.26-.04-.39-.1-.2-.11-.35-.28-.42-.5-.07-.21-.05-.45.06-.65l1.88-3.58-2.53-3.62c-.12-.11-.2-.27-.24-.47-.05-.25.03-.53.2-.71.15-.17.35-.27.58-.28.22,0,.45.07.61.21l2.2,3.29,1.65-3.14c.12-.2.29-.35.51-.42.22-.07.45-.04.65.07.22.12.38.33.43.59.03.19,0,.38-.08.55Z"/>
    <path class="cls-16" d="m545.12,399.99c-1.33,0-3.23,1.68-3.23,5,0,2.56,1.22,5,3.23,5s3.27-2.44,3.27-5c0-3.48-1.94-5-3.27-5Zm.01,1.37c.96,0,1.64,1.13,1.7,1.93.02.3,0,.81-.55.81h-2.33c-.46,0-.51-.5-.5-.76.07-.8.81-1.98,1.69-1.98Zm0,7.26c-1.08,0-1.72-1.28-1.79-2.08-.01-.25,0-.76.5-.76h2.53c.56,0,.58.5.55.81-.06.8-.72,2.03-1.8,2.03Z"/>
    <rect class="cls-16" x="549.88" y="403.99" width="7" height="2" rx=".95" ry=".95"/>
    <path class="cls-16" d="m644.45,400c-.46-.06-.96.28-1.19,1.14-.42,1.54-.92,3.7-1.44,5.63-1.11-2.72-1.86-4.39-2.5-4.38-.01,0-.02,0-.03.01-.01-.01-.02-.01-.03-.01-.64-.01-1.39,1.65-2.5,4.38-.51-1.93-1.02-4.09-1.44-5.63-.24-.86-.73-1.2-1.19-1.14-.59.07-.98.49-.74,1.25.25.81,1.84,6.07,2.3,7.72.47,1.65,1.59.9,1.8.49.21-.41,1.36-3.67,1.8-4.59.44.92,1.59,4.18,1.8,4.59.21.41,1.33,1.16,1.8-.49.46-1.64,2.05-6.9,2.3-7.72.24-.76-.15-1.18-.74-1.25Z"/>
    <path class="cls-16" d="m648.83,399.99c-1.33,0-3.23,1.68-3.23,5,0,2.56,1.22,5,3.23,5s3.27-2.44,3.27-5c0-3.48-1.94-5-3.27-5Zm.01,1.37c.96,0,1.64,1.13,1.7,1.93.02.3,0,.81-.55.81h-2.33c-.46,0-.51-.5-.5-.76.07-.8.81-1.98,1.69-1.98Zm0,7.26c-1.08,0-1.72-1.28-1.79-2.08-.01-.25,0-.76.5-.76h2.53c.56,0,.58.5.55.81-.06.8-.72,2.03-1.8,2.03Z"/>
    <rect class="cls-16" x="653.58" y="403.99" width="7" height="2" rx=".95" ry=".95"/>
    <rect class="cls-16" x="147.05" y="403.99" width="7" height="2" rx=".95" ry=".95"/>
    <path class="cls-16" d="m354.73,399.99c-1.33,0-3.23,1.68-3.23,5,0,2.56,1.22,5,3.23,5s3.27-2.44,3.27-5c0-3.48-1.94-5-3.27-5Zm.01,1.37c.96,0,1.64,1.13,1.7,1.93.02.3,0,.81-.55.81h-2.33c-.46,0-.51-.5-.5-.76.07-.8.81-1.98,1.69-1.98Zm0,7.26c-1.08,0-1.72-1.28-1.79-2.08-.01-.25,0-.76.5-.76h2.53c.56,0,.58.5.55.81-.06.8-.72,2.03-1.8,2.03Z"/>
    <path class="cls-16" d="m342.01,401.24l-4.37,8.3c-.15.29-.45.46-.75.46-.13,0-.26-.04-.39-.1-.2-.11-.35-.28-.42-.5-.07-.21-.05-.45.06-.65l1.88-3.58-2.53-3.62c-.12-.11-.2-.27-.24-.47-.05-.25.03-.53.2-.71.15-.17.35-.27.58-.28.22,0,.45.07.61.21l2.2,3.29,1.65-3.14c.12-.2.29-.35.51-.42.22-.07.45-.04.65.07.22.12.38.33.43.59.03.19,0,.38-.08.55Z"/>
    <rect class="cls-16" x="342.53" y="403.99" width="7" height="2" rx=".95" ry=".95"/>
    <line class="cls-2" x1="399.51" y1="409.3" x2="399.51" y2="301.04"/>
    <line class="cls-2" x1="399.51" y1="607.54" x2="399.51" y2="499.28"/>
  </g>
  <g>
    <text class="cls-14" transform="translate(694.53 480.27)"><tspan x="0" y="0">half-line</tspan></text>
    <path class="cls-40" d="m684.62,447.55c.74,0,1.19.45,1.19,1.01v4.46c5.13,0,46.17,0,46.17,0l-3.72-3.77s1.51-1.57,2.69-.72c1.7,1.24,5.69,5.89,5.69,5.89,0,0-4.33,4.87-5.69,5.85-1.18.88-2.69-.68-2.69-.68l3.92-3.82s-42.81.01-46.37.01v2.45c2.61,0,38.98-.01,38.98-.01.78,0,1.4.62,1.4,1.38,0,.76-.62,1.38-1.4,1.38,0,0-34.82,0-38.98,0v4.46c0,.58-.4,1.05-1.19,1.05s-1.09-.48-1.09-1.05v-16.89c0-.56.35-1.01,1.09-1.01Z"/>
  </g>
  <g>
    <text class="cls-14" transform="translate(46.77 480.94)"><tspan x="0" y="0">no half-line</tspan></text>
    <path class="cls-40" d="m98.51,449.01c1.56,1.14,5.63,5.83,5.63,5.83,0,0-4.08,4.69-5.63,5.83-1.18.85-2.69-.72-2.69-.72l3.72-3.77h-36.63s-2.68,2.28-2.68,2.28h32.63c1.87,0,1.87,2.69,0,2.69h-36.72v-2.69s4.45-3.79,4.45-3.79l1.38-1.17h37.57s-3.72-3.77-3.72-3.77c0,0,1.51-1.57,2.69-.72Z"/>
  </g>
  <text class="cls-7" transform="translate(182.57 510.97)"><tspan x="0" y="0">Type 4 → 3</tspan></text>
  <g>
    <polygon class="cls-47" points="503.22 554.69 515.05 554.69 515.05 550.89 521.3 555.78 515.05 560.67 515.05 556.87 503.22 556.87 503.22 554.69"/>
    <g>
      <rect class="cls-16" x="606.95" y="550.58" width="13.29" height="3.19"/>
      <rect class="cls-16" x="606.95" y="557.79" width="13.29" height="3.19"/>
    </g>
    <g>
      <circle class="cls-16" cx="561.73" cy="585.78" r="2.5"/>
      <circle class="cls-16" cx="591.73" cy="555.78" r="2.5"/>
      <circle class="cls-16" cx="561.73" cy="525.78" r="2.5"/>
      <circle class="cls-16" cx="531.73" cy="555.78" r="2.5"/>
      <circle class="cls-16" cx="561.73" cy="555.78" r="1.12"/>
    </g>
    <g>
      <circle class="cls-16" cx="461.73" cy="585.78" r="2.5"/>
      <circle class="cls-16" cx="491.73" cy="555.78" r="2.5"/>
      <circle class="cls-16" cx="461.73" cy="525.78" r="2.5"/>
      <circle class="cls-16" cx="431.73" cy="555.78" r="2.5"/>
      <circle class="cls-16" cx="461.73" cy="555.78" r="1.12"/>
    </g>
    <path class="cls-40" d="m587.63,557.03c-.5,0-.92-.39-.92-.87v-1.82h-22.29c-.49,0-.89-.39-.89-.85v-.42c0-.46.4-.85.89-.85h22.29v-1.82c0-.48.42-.87.92-.87s.91.39.91.87v5.76c0,.48-.41.87-.91.87Z"/>
    <path class="cls-36" d="m564.45,554.53c.5,0,.92.39.92.87v1.82s22.29,0,22.29,0c.49,0,.89.39.89.85v.42c0,.46-.4.85-.89.85h-22.29s0,1.82,0,1.82c0,.48-.42.87-.92.87s-.91-.39-.91-.87v-5.76c0-.48.41-.87.91-.87Z"/>
    <path class="cls-36" d="m464.45,552.03c.5,0,.92.39.92.87v1.82s22.29,0,22.29,0c.49,0,.89.39.89.85v.42c0,.46-.4.85-.89.85h-22.29s0,1.82,0,1.82c0,.48-.42.87-.92.87s-.91-.39-.91-.87v-5.76c0-.48.41-.87.91-.87Z"/>
    <path class="cls-40" d="m459.01,559.53c-.5,0-.92-.39-.92-.87v-1.82s-22.29,0-22.29,0c-.49,0-.89-.39-.89-.85v-.42c0-.46.4-.85.89-.85h22.29s0-1.82,0-1.82c0-.48.42-.87.92-.87.5,0,.91.39.91.87v5.76c0,.48-.41.87-.91.87Z"/>
    <g>
      <circle class="cls-16" cx="661.73" cy="585.78" r="2.5"/>
      <circle class="cls-16" cx="691.73" cy="555.78" r="2.5"/>
      <circle class="cls-16" cx="661.73" cy="525.78" r="2.5"/>
      <circle class="cls-16" cx="631.73" cy="555.78" r="2.5"/>
      <circle class="cls-16" cx="661.73" cy="555.78" r="1.12"/>
    </g>
    <g>
      <path class="cls-36" d="m466.87,584.19c11.89,0,22.68-9.57,22.72-21.38l2.41,2.65s1.11-1.01.54-1.85c-.65-.95-3.93-4.08-3.93-4.08,0,0-3.32,2.66-4.21,3.8-.63.81.43,1.89.43,1.89l2.78-2.61c-.03,8.93-7.32,18.79-20.74,19.5-1.57.08-1.62,2.09,0,2.08Z"/>
      <path class="cls-36" d="m668.4,584.19c11.89,0,22.68-9.57,22.72-21.38l2.41,2.65s1.11-1.01.54-1.85c-.65-.95-3.93-4.08-3.93-4.08,0,0-3.32,2.66-4.21,3.8-.63.81.43,1.89.43,1.89l2.78-2.61c-.03,8.93-7.32,18.79-20.74,19.5-1.57.08-1.62,2.09,0,2.08Z"/>
      <path class="cls-40" d="m644.04,550.38c.51,0,.83-.31.83-.7v-3.1h32.06l-2.58,2.62s1.05,1.09,1.87.5c1.18-.86,3.95-4.09,3.95-4.09,0,0-3.01-3.38-3.95-4.06-.82-.61-1.87.47-1.87.47l2.72,2.65s-29.73-.01-32.2-.01v-1.7c1.81,0,27.07.01,27.07.01.54,0,.97-.43.97-.96s-.43-.96-.97-.96c0,0-24.18,0-27.07,0v-3.1c0-.4-.28-.73-.83-.73-.55,0-.75.33-.75.73v11.73c0,.39.24.7.75.7Z"/>
      <path class="cls-40" d="m448.17,550.81c-1.08-.79-3.91-4.05-3.91-4.05,0,0,2.83-3.26,3.91-4.05.82-.59,1.87.5,1.87.5l-2.58,2.62h30.74c1.32,0,1.32,1.86,0,1.86h-30.74s2.58,2.62,2.58,2.62c0,0-1.05,1.09-1.87.5Z"/>
      <path class="cls-40" d="m575.28,550.81c1.08-.79,3.91-4.05,3.91-4.05,0,0-2.83-3.26-3.91-4.05-.82-.59-1.87.5-1.87.5l2.58,2.62h-30.74c-1.32,0-1.32,1.86,0,1.86h30.74s-2.58,2.62-2.58,2.62c0,0,1.05,1.09,1.87.5Z"/>
      <path class="cls-36" d="m343.88,573.4v-.13c0-.4-.33-.72-.72-.72l-3.1-.02.19-32.06,2.6,2.6s1.1-1.04.51-1.87c-.85-1.18-4.07-3.97-4.07-3.97,0,0-3.4,2.99-4.08,3.93-.61.82.46,1.87.46,1.87l2.67-2.7-.2,32.2-3.1-.02c-.4,0-.73.32-.73.72v.13c0,.4.33.73.72.73l8.12.05c.39,0,.72-.33.72-.73Z"/>
      <polygon class="cls-47" points="171.76 554.69 183.59 554.69 183.59 550.89 189.84 555.78 183.59 560.67 183.59 556.87 171.76 556.87 171.76 554.69"/>
      <g>
        <rect class="cls-16" x="275.5" y="550.58" width="13.29" height="3.19"/>
        <rect class="cls-16" x="275.5" y="557.79" width="13.29" height="3.19"/>
      </g>
      <g>
        <circle class="cls-16" cx="230.27" cy="585.78" r="2.5"/>
        <circle class="cls-16" cx="260.27" cy="555.78" r="2.5"/>
        <circle class="cls-16" cx="230.27" cy="525.78" r="2.5"/>
        <circle class="cls-16" cx="200.27" cy="555.78" r="2.5"/>
        <circle class="cls-16" cx="230.27" cy="555.78" r="1.12"/>
      </g>
      <g>
        <circle class="cls-16" cx="130.27" cy="585.78" r="2.5"/>
        <circle class="cls-16" cx="160.27" cy="555.78" r="2.5"/>
        <circle class="cls-16" cx="130.27" cy="525.78" r="2.5"/>
        <circle class="cls-16" cx="100.27" cy="555.78" r="2.5"/>
        <circle class="cls-16" cx="130.27" cy="555.78" r="1.12"/>
      </g>
      <path class="cls-40" d="m332.99,552.03c.5,0,.92.39.92.87v1.82h22.29c.49,0,.89.39.89.85v.42c0,.46-.4.85-.89.85h-22.29v1.82c0,.48-.42.87-.92.87s-.91-.39-.91-.87v-5.76c0-.48.41-.87.91-.87Z"/>
      <path class="cls-40" d="m256.18,559.53c-.5,0-.92-.39-.92-.87v-1.82h-22.29c-.49,0-.89-.39-.89-.85v-.42c0-.46.4-.85.89-.85h22.29v-1.82c0-.48.42-.87.92-.87s.91.39.91.87v5.76c0,.48-.41.87-.91.87Z"/>
      <path class="cls-36" d="m326.52,553.06c0-.5.39-.92.87-.92h1.82s0-22.29,0-22.29c0-.49.39-.89.85-.89h.42c.46,0,.85.4.85.89v22.29s1.82,0,1.82,0c.48,0,.87.42.87.92s-.39.91-.87.91h-5.76c-.48,0-.87-.41-.87-.91Z"/>
      <path class="cls-36" d="m234.02,558.5c0,.5-.39.92-.87.92h-1.82s0,22.29,0,22.29c0,.49-.39.89-.85.89h-.42c-.46,0-.85-.4-.85-.89v-22.29s-1.82,0-1.82,0c-.48,0-.87-.42-.87-.92,0-.5.39-.91.87-.91h5.76c.48,0,.87.41.87.91Z"/>
      <path class="cls-36" d="m132.99,552.03c.5,0,.92.39.92.87v1.82s22.29,0,22.29,0c.49,0,.89.39.89.85v.42c0,.46-.4.85-.89.85h-22.29s0,1.82,0,1.82c0,.48-.42.87-.92.87s-.91-.39-.91-.87v-5.76c0-.48.41-.87.91-.87Z"/>
      <path class="cls-40" d="m127.55,559.53c-.5,0-.92-.39-.92-.87v-1.82s-22.29,0-22.29,0c-.49,0-.89-.39-.89-.85v-.42c0-.46.4-.85.89-.85h22.29s0-1.82,0-1.82c0-.48.42-.87.92-.87.5,0,.91.39.91.87v5.76c0,.48-.41.87-.91.87Z"/>
      <g>
        <circle class="cls-16" cx="330.27" cy="585.78" r="2.5"/>
        <circle class="cls-16" cx="360.27" cy="555.78" r="2.5"/>
        <circle class="cls-16" cx="330.27" cy="525.78" r="2.5"/>
        <circle class="cls-16" cx="300.27" cy="555.78" r="2.5"/>
        <circle class="cls-16" cx="330.27" cy="555.78" r="1.12"/>
      </g>
      <path class="cls-36" d="m135.42,584.19c11.89,0,22.68-9.57,22.72-21.38l2.41,2.65s1.11-1.01.54-1.85c-.65-.95-3.93-4.08-3.93-4.08,0,0-3.32,2.66-4.21,3.8-.63.81.43,1.89.43,1.89l2.78-2.61c-.03,8.93-7.32,18.79-20.74,19.5-1.57.08-1.62,2.09,0,2.08Z"/>
      <path class="cls-36" d="m236.22,584.19c11.89,0,22.68-9.57,22.72-21.38l2.41,2.65s1.11-1.01.54-1.85c-.65-.95-3.93-4.08-3.93-4.08,0,0-3.32,2.66-4.21,3.8-.63.81.43,1.89.43,1.89l2.78-2.61c-.03,8.93-7.32,18.79-20.74,19.5-1.57.08-1.62,2.09,0,2.08Z"/>
      <path class="cls-40" d="m116.72,550.81c-1.08-.79-3.91-4.05-3.91-4.05,0,0,2.83-3.26,3.91-4.05.82-.59,1.87.5,1.87.5l-2.58,2.62h30.74c1.32,0,1.32,1.86,0,1.86h-30.74s2.58,2.62,2.58,2.62c0,0-1.05,1.09-1.87.5Z"/>
    </g>
  </g>
</svg>