<?xml version="1.0" encoding="UTF-8"?>
<svg id="Layer_1" data-name="Layer 1" xmlns="http://www.w3.org/2000/svg" viewBox="0 0 792 612">
  <defs>
    <style>
      .cls-1 {
        letter-spacing: 0em;
      }

      .cls-1, .cls-2 {
        fill: #00a14b;
      }

      .cls-3 {
        font-family: MonotypeCorsiva, 'Monotype Corsiva';
        font-size: 32px;
      }

      .cls-3, .cls-4, .cls-5 {
        fill: #231f20;
      }

      .cls-6 {
        fill: #2e3192;
      }

      .cls-7 {
        font-family: Cambria-BoldItalic, Cambria;
        font-size: 30px;
        font-style: italic;
        font-weight: 700;
      }

      .cls-4 {
        letter-spacing: -.03em;
      }

      .cls-8 {
        fill: #7f3f98;
      }

      .cls-9 {
        fill: #ed1c24;
      }

      .cls-10 {
        fill: none;
        stroke: #231f20;
        stroke-miterlimit: 10;
        stroke-width: .5px;
      }
    </style>
  </defs>
  <text class="cls-7" transform="translate(323.75 38.84)"><tspan class="cls-5"><tspan x="0" y="0">Type 2 → 3</tspan></tspan><tspan class="cls-8" x="-49.57" y="36">Shift </tspan><tspan class="cls-5" x="19.04" y="36">→ </tspan><tspan class="cls-1" x="50.79" y="36">Cr</tspan><tspan class="cls-2" x="80.43" y="36">oss</tspan><tspan class="cls-4" x="123.18" y="36">-</tspan><tspan class="cls-8" x="132.06" y="36">Shift</tspan></text>
  <text class="cls-3" transform="translate(143.69 113.12)"><tspan x="0" y="0">Continuous</tspan></text>
  <text class="cls-3" transform="translate(123.86 370.68)"><tspan x="0" y="0">Hand-Reversal </tspan></text>
  <text class="cls-3" transform="translate(489.52 111.81)"><tspan x="0" y="0">Full-Reversal</tspan></text>
  <text class="cls-3" transform="translate(486.95 370.68)"><tspan x="0" y="0">Prop-Reversal</tspan></text>
  <g>
    <path class="cls-6" d="m507.74,433.37c18.38-.05,19.62-.13,19.62,22.12,14.34,0,26.35-7.21,26.35-20.82l-2.74,2.9s-1.15-1.1-.5-1.98c.74-1,4.33-4.22,4.33-4.22,0,0,3.45,2.96,4.37,4.22.64.88-.54,1.98-.54,1.98l-2.77-2.83c0,14.83-13.55,23.15-28.5,23.15v3.78c0,.6-.31,1.09-1.03,1.09s-1.27-.21-1.27-1.09c0-26.09,1.98-26.28-17.32-26.28-1.51,0-1.6-2.01,0-2.01Z"/>
    <path class="cls-6" d="m526.53,562.59c.05-18.38.13-19.62-22.12-19.62,0-14.34,7.21-26.35,20.82-26.35l-2.9,2.74s1.1,1.15,1.98.5c1-.74,4.22-4.33,4.22-4.33,0,0-2.96-3.45-4.22-4.37-.88-.64-1.98.54-1.98.54l2.83,2.77c-14.83,0-23.15,13.55-23.15,28.5h-3.78c-.6,0-1.09.31-1.09,1.03,0,.73.21,1.27,1.09,1.27,26.09,0,26.28-1.98,26.28,17.32,0,1.51,2.01,1.6,2.01,0Z"/>
    <path class="cls-6" d="m692.02,433.37c18.38-.05,19.62-.13,19.62,22.12,14.34,0,26.35-7.21,26.35-20.82l-2.74,2.9s-1.15-1.1-.5-1.98c.74-1,4.33-4.22,4.33-4.22,0,0,3.45,2.96,4.37,4.22.64.88-.54,1.98-.54,1.98l-2.77-2.83c0,14.83-13.55,23.15-28.5,23.15v3.78c0,.6-.31,1.09-1.03,1.09s-1.27-.21-1.27-1.09c0-26.09,1.98-26.28-17.32-26.28-1.51,0-1.6-2.01,0-2.01Z"/>
    <path class="cls-6" d="m450.49,458.63c-27.07.55-33.55-10.52-34.44-24.4-.11-1.71,2.19-1.65,2.3.05,1.21,18.22,15.41,21.98,25.83,21.98,0-23.36,2.43-21.92,20.27-21.92l-2.9-2.84s1.1-1.18,1.98-.54c1.26.92,4.22,4.37,4.22,4.37,0,0-3.22,3.59-4.22,4.33-.88.65-1.98-.5-1.98-.5l2.9-2.74c-17.3,0-18.16-1.51-18.17,19.84h4.21c1.8,0,1.76,2.33,0,2.37Z"/>
    <path class="cls-6" d="m410.37,530.54c-.55,27.07,10.52,33.55,24.4,34.44,1.71.11,1.65-2.19-.05-2.3-18.22-1.21-21.98-15.41-21.98-25.83,23.36,0,21.92-2.43,21.92-20.27l2.84,2.9s1.18-1.1.54-1.98c-.92-1.26-4.37-4.22-4.37-4.22,0,0-3.59,3.22-4.33,4.22-.65.88.5,1.98.5,1.98l2.74-2.9c0,17.3,1.51,18.16-19.84,18.17v-4.21c0-1.8-2.33-1.76-2.37,0Z"/>
    <path class="cls-6" d="m705.04,562.59c.05-18.38.13-19.62-22.12-19.62,0-14.34,7.21-26.35,20.82-26.35l-2.9,2.74s1.1,1.15,1.98.5c1-.74,4.22-4.33,4.22-4.33,0,0-2.96-3.45-4.22-4.37-.88-.64-1.98.54-1.98.54l2.83,2.77c-14.83,0-23.15,13.55-23.15,28.5h-3.78c-.6,0-1.09.31-1.09,1.03,0,.73.21,1.27,1.09,1.27,26.09,0,26.28-1.98,26.28,17.32,0,1.51,2.01,1.6,2.01,0Z"/>
    <path class="cls-6" d="m588.88,530.54c-.55,27.07,10.52,33.55,24.4,34.44,1.71.11,1.65-2.19-.05-2.3-18.22-1.21-21.98-15.41-21.98-25.83,23.36,0,21.92-2.43,21.92-20.27l2.84,2.9s1.18-1.1.54-1.98c-.92-1.26-4.37-4.22-4.37-4.22,0,0-3.59,3.22-4.33,4.22-.65.88.5,1.98.5,1.98l2.74-2.9c0,17.3,1.51,18.16-19.84,18.17v-4.21c0-1.8-2.33-1.76-2.37,0Z"/>
    <path class="cls-6" d="m628.87,458.63c-27.07.55-33.55-10.52-34.44-24.4-.11-1.71,2.19-1.65,2.3.05,1.21,18.22,15.41,21.98,25.83,21.98,0-23.36,2.43-21.92,20.27-21.92l-2.9-2.84s1.1-1.18,1.98-.54c1.26.92,4.22,4.37,4.22,4.37,0,0-3.22,3.59-4.22,4.33-.88.65-1.98-.5-1.98-.5l2.9-2.74c-17.3,0-18.16-1.51-18.17,19.84h4.21c1.8,0,1.76,2.33,0,2.37Z"/>
  </g>
  <path class="cls-6" d="m719.31,186.13v.18c-.02.08-.01-.02,0-.18Z"/>
  <g>
    <path class="cls-6" d="m77.89,459.18c0,.55-.49.99-1.09.99h-4.89c-1.03,0-2.03-.02-3.01-.06-12.2-.44-20.55-4.12-20.55-21.5,0-1.42,2.06-1.37,2.06.05,0,16.97,8.91,19.37,20.78,19.37.34,0,.82-.09.82-.43,0-21.55.57-20.83-17.26-20.83l2.44,2.55s-1.04,1.1-1.87.5c-1.11-.82-3.68-3.78-3.93-4.07.25-.29,2.82-3.25,3.93-4.07.83-.6,1.87.5,1.87.5l-2.44,2.74c19.33,0,19.24.82,19.24,23.27h2.81c.6,0,1.09.45,1.09.99Z"/>
    <path class="cls-6" d="m77.89,507.1c0-.55-.49-.99-1.09-.99h-4.89c-1.03,0-2.03.02-3.01.06-12.2.44-20.55,4.12-20.55,21.5,0,1.42,2.06,1.37,2.06-.05,0-16.97,8.91-19.37,20.78-19.37.34,0,.82.09.82.43,0,21.55.57,20.83-17.26,20.83l2.44-2.55s-1.04-1.1-1.87-.5c-1.11.82-3.68,3.78-3.93,4.07.25.29,2.82,3.25,3.93,4.07.83.6,1.87-.5,1.87-.5l-2.44-2.74c19.33,0,19.24-.82,19.24-23.27h2.81c.6,0,1.09-.45,1.09-.99Z"/>
    <path class="cls-6" d="m258.04,508.95c0-.55-.49-.99-1.09-.99h-4.89c-1.03,0-2.03.02-3.01.06-12.2.44-20.55,4.12-20.55,21.5,0,1.42,2.06,1.37,2.06-.05,0-16.97,8.91-19.37,20.78-19.37.34,0,.82.09.82.43,0,21.55.57,20.83-17.26,20.83l2.44-2.55s-1.04-1.1-1.87-.5c-1.11.82-3.68,3.78-3.93,4.07.25.29,2.82,3.25,3.93,4.07.83.6,1.87-.5,1.87-.5l-2.44-2.74c19.33,0,19.24-.82,19.24-23.27h2.81c.6,0,1.09-.45,1.09-.99Z"/>
    <path class="cls-6" d="m264.3,458.79c0,.55.49.99,1.09.99h4.89c1.03,0,2.03-.02,3.01-.06,12.2-.44,20.55-4.12,20.55-21.5,0-1.42-2.06-1.37-2.06.05,0,16.97-8.91,19.37-20.78,19.37-.34,0-.82-.09-.82-.43,0-21.55-.57-20.83,17.26-20.83l-2.44,2.55s1.04,1.1,1.87.5c1.11-.82,3.68-3.78,3.93-4.07-.25-.29-2.82-3.25-3.93-4.07-.83-.6-1.87.5-1.87.5l2.44,2.74c-19.33,0-19.24.82-19.24,23.27h-2.81c-.6,0-1.09.45-1.09.99Z"/>
    <path class="cls-6" d="m138.12,439.01l2.58-2.44c0,20.75,14.08,20.33,23.7,20.33.07,0,.14,0,.2,0v3.25c0,.6.45,1.09.99,1.09s.99-.49.99-1.09v-7.56c.03-20.15.07-20.64-20.49-20.64-1.43,0-1.37,2.06-.05,2.06,19.84,0,18.38.56,18.36,20.13,0,.34-.28.63-.63.63-13.72-.09-21-3-21-18.19l2.49,2.44s1.1-1.04.5-1.87c-.82-1.11-3.78-3.68-4.07-3.93-.29.25-3.25,2.82-4.07,3.93-.6.83.5,1.87.5,1.87Z"/>
    <path class="cls-6" d="m138.12,526.61l2.58,2.44c0-20.75,14.08-20.33,23.7-20.33.07,0,.14,0,.2,0v-3.25c0-.6.45-1.09.99-1.09.55,0,.99.49.99,1.09v7.56c.03,20.15.07,20.64-20.49,20.64-1.43,0-1.37-2.06-.05-2.06,19.84,0,18.38-.56,18.36-20.13,0-.34-.28-.63-.63-.63-13.72.09-21,3-21,18.19l2.49-2.44s1.1,1.04.5,1.87c-.82,1.11-3.78,3.68-4.07,3.93-.29-.25-3.25-2.82-4.07-3.93-.6-.83.5-1.87.5-1.87Z"/>
    <path class="cls-6" d="m318.61,528.02l2.58,2.44c0-20.75,14.08-20.33,23.7-20.33.07,0,.14,0,.2,0v-3.25c0-.6.45-1.09.99-1.09s.99.49.99,1.09v7.56c.03,20.15.07,20.64-20.49,20.64-1.43,0-1.37-2.06-.05-2.06,19.84,0,18.38-.56,18.36-20.13,0-.34-.28-.63-.63-.63-13.72.09-21,3-21,18.19l2.49-2.44s1.1,1.04.5,1.87c-.82,1.11-3.78,3.68-4.07,3.93-.29-.25-3.25-2.82-4.07-3.93-.6-.83.5-1.87.5-1.87Z"/>
    <path class="cls-6" d="m384.92,439.01l-2.58-2.44c0,20.75-14.08,20.33-23.7,20.33-.07,0-.14,0-.2,0v3.25c0,.6-.45,1.09-.99,1.09s-.99-.49-.99-1.09v-7.56c-.03-20.15-.07-20.64,20.49-20.64,1.43,0,1.37,2.06.05,2.06-19.84,0-18.38.56-18.36,20.13,0,.34.28.63.63.63,13.72-.09,21-3,21-18.19l-2.49,2.44s-1.1-1.04-.5-1.87c.82-1.11,3.78-3.68,4.07-3.93.29.25,3.25,2.82,4.07,3.93.6.83-.5,1.87-.5,1.87Z"/>
  </g>
  <g>
    <path class="cls-6" d="m627.14,185.74c8.73-.29,16.42-6.43,16.42-16.51,0-.4-.11-1.32,1.03-1.32s1.1,1.52,1.1,1.52c0,10.11-8.61,18.12-18.55,18.12v2.36c16.69,0,21.83-9.14,21.83-18.71l-2.52,2.46s-1.09-1.05-.5-1.87c.86-1.18,4.12-3.97,4.12-3.97,0,0,3.4,2.95,4.07,3.93.57.84-.51,1.91-.51,1.91l-2.57-2.48c0,9.34-4.87,20.73-23.89,20.73l-.03,1.1c0,.6-.45,1.09-.99,1.09s-.99-.49-.99-1.09v-8.46c0-.6.44-1.09.99-1.09s.99.49.99,1.09v1.19Z"/>
    <path class="cls-6" d="m740.67,169.82c-.82-.59-1.86.5-1.86.5l2.72,2.77c-14.61-.92-20.15,1.24-22.12,11.85,0,0-.07.74-.1,1.15.11-13.07,2.97-16.85,19.52-16.85.42,0,.83-.37.83-1.07,0-.61-.33-1.01-.8-1.01-17.41-.39-21.54,4.3-21.22,18.77h-.01v6.58c0,.15,0,.29.03.43h-2.08c-.6,0-1.09.44-1.09.99s.49.99,1.09.99h7.56c.6,0,1.09-.45,1.09-.99s-.49-.99-1.09-.99h-2.23c.03-.18.04-.37.04-.58,0-16.52,5.1-17.9,20.58-17.52l-2.72,2.66s1.04,1.08,1.86.48c.94-.69,3.95-4.07,3.95-4.07,0,0-2.77-3.23-3.95-4.09Zm-21.36,16.31v.18c-.02.08-.01-.02,0-.18Z"/>
    <path class="cls-6" d="m434.89,185.25c-8.73-.29-16.42-6.43-16.42-16.51,0-.4.11-1.32-1.03-1.32-1.14,0-1.1,1.52-1.1,1.52,0,10.11,8.61,18.12,18.55,18.12v2.36c-16.69,0-21.83-9.14-21.83-18.71l2.52,2.46s1.09-1.05.5-1.87c-.86-1.18-4.12-3.97-4.12-3.97,0,0-3.4,2.95-4.07,3.93-.57.84.51,1.91.51,1.91l2.57-2.48c0,9.34,4.87,20.73,23.89,20.73l.03,1.1c0,.6.45,1.09.99,1.09.55,0,.99-.49.99-1.09v-8.46c0-.6-.44-1.09-.99-1.09s-.99.49-.99,1.09v1.19Z"/>
    <path class="cls-6" d="m434.89,250.91c-8.73.29-16.42,6.43-16.42,16.51,0,.4.11,1.32-1.03,1.32s-1.1-1.52-1.1-1.52c0-10.11,8.61-18.12,18.55-18.12v-2.36c-16.69,0-21.83,9.14-21.83,18.71l2.52-2.46s1.09,1.05.5,1.87c-.86,1.18-4.12,3.97-4.12,3.97,0,0-3.4-2.95-4.07-3.93-.57-.84.51-1.91.51-1.91l2.57,2.48c0-9.34,4.87-20.73,23.89-20.73l.03-1.1c0-.6.45-1.09.99-1.09.55,0,.99.49.99,1.09v8.46c0,.6-.44,1.09-.99,1.09s-.99-.49-.99-1.09v-1.19Z"/>
    <path class="cls-6" d="m615.1,251.4c-8.73.29-16.42,6.43-16.42,16.51,0,.4.11,1.32-1.03,1.32s-1.1-1.52-1.1-1.52c0-10.11,8.61-18.12,18.55-18.12v-2.36c-16.69,0-21.83,9.14-21.83,18.71l2.52-2.46s1.09,1.05.5,1.87c-.86,1.18-4.12,3.97-4.12,3.97,0,0-3.4-2.95-4.07-3.93-.57-.84.51-1.91.51-1.91l2.57,2.48c0-9.34,4.87-20.73,23.89-20.73l.03-1.1c0-.6.45-1.09.99-1.09.55,0,.99.49.99,1.09v8.46c0,.6-.44,1.09-.99,1.09s-.99-.49-.99-1.09v-1.19Z"/>
    <path class="cls-6" d="m497.56,174.89s3.01,3.38,3.95,4.07c.82.6,1.86-.48,1.86-.48l-2.72-2.66c15.48-.38,20.58,1,20.58,17.52,0,.21.01.4.04.58h-2.23c-.6,0-1.09.44-1.09.99,0,.54.49.99,1.09.99h7.56c.6,0,1.09-.45,1.09-.99,0-.55-.49-.99-1.09-.99h-2.08c.03-.14.03-.28.03-.43v-6.58s-.01,0-.01,0c.32-14.47-3.81-19.16-21.22-18.77-.47,0-.8.4-.8,1.01,0,.7.41,1.07.83,1.07,16.55,0,19.41,3.78,19.52,16.85-.03-.41-.1-1.15-.1-1.15-1.97-10.61-7.51-12.77-22.12-11.85l2.72-2.77s-1.04-1.09-1.86-.5c-1.18.86-3.95,4.09-3.95,4.09Zm25.31,12.4v-.18c.01.16.02.26,0,.18Z"/>
    <path class="cls-6" d="m499.93,264.36c.82.59,1.86-.5,1.86-.5l-2.72-2.77c14.61.92,20.15-1.24,22.12-11.85,0,0,.07-.74.1-1.15-.11,13.07-2.97,16.85-19.52,16.85-.42,0-.83.37-.83,1.07,0,.61.33,1.01.8,1.01,17.41.39,21.54-4.3,21.22-18.77h.01v-6.58c0-.15,0-.29-.03-.43h2.08c.6,0,1.09-.44,1.09-.99s-.49-.99-1.09-.99h-7.56c-.6,0-1.09.45-1.09.99,0,.55.49.99,1.09.99h2.23c-.03.18-.04.37-.04.58,0,16.52-5.1,17.9-20.58,17.52l2.72-2.66s-1.04-1.08-1.86-.48c-.94.69-3.95,4.07-3.95,4.07,0,0,2.77,3.23,3.95,4.09Zm21.36-16.31v-.18c.02-.08.01.02,0,.18Z"/>
    <path class="cls-6" d="m681.17,266.63c.82.59,1.86-.5,1.86-.5l-2.72-2.77c14.61.92,20.15-1.24,22.12-11.85,0,0,.07-.74.1-1.15-.11,13.07-2.97,16.85-19.52,16.85-.42,0-.83.37-.83,1.07s.33,1.01.8,1.01c17.41.39,21.54-4.3,21.22-18.77h.01v-6.58c0-.15,0-.29-.03-.43h2.08c.6,0,1.09-.44,1.09-.99,0-.54-.49-.99-1.09-.99h-7.56c-.6,0-1.09.45-1.09.99,0,.55.49.99,1.09.99h2.23c-.03.18-.04.37-.04.58,0,16.52-5.1,17.9-20.58,17.52l2.72-2.66s-1.04-1.08-1.86-.48c-.94.69-3.95,4.07-3.95,4.07,0,0,2.77,3.23,3.95,4.09Zm21.36-16.31v-.18c.02-.08.01.02,0,.18Z"/>
  </g>
  <g>
    <path class="cls-6" d="m254.36,304.79c-17.71,0-26.75-13.27-27.29-26.83h-2.76c-.58,0-1.06-.48-1.06-1.07s.48-1.06,1.06-1.06h2.75c.34-13.44,9.04-26.49,25.96-26.49l-2.64-2.61s1.05-1.09,1.87-.5c1.18.86,3.95,4.09,3.95,4.09,0,0-3.01,3.38-3.95,4.06-.82.61-1.87-.47-1.87-.47l2.64-2.65c-15.4,0-23.48,12.12-23.83,24.57h2.72c.59,0,1.07.48,1.07,1.06s-.48,1.07-1.07,1.07h-2.7c.53,12.46,8.84,24.6,25.34,24.6,1.26,0,1.13,2.23-.19,2.23Z"/>
    <path class="cls-6" d="m74.36,304.79c-17.71,0-26.75-13.27-27.29-26.83h-2.76c-.58,0-1.06-.48-1.06-1.07s.48-1.06,1.06-1.06h2.75c.34-13.44,9.04-26.49,25.96-26.49l-2.64-2.61s1.05-1.09,1.87-.5c1.18.86,3.95,4.09,3.95,4.09,0,0-3.01,3.38-3.95,4.06-.82.61-1.87-.47-1.87-.47l2.64-2.65c-15.4,0-23.48,12.12-23.83,24.57h2.72c.59,0,1.07.48,1.07,1.06s-.48,1.07-1.07,1.07h-2.7c.53,12.46,8.84,24.6,25.34,24.6,1.26,0,1.13,2.23-.19,2.23Z"/>
    <path class="cls-6" d="m49.98,168.32c0,17.71,13.27,26.75,26.83,27.29v2.76c0,.58.48,1.06,1.07,1.06s1.06-.48,1.06-1.06v-2.75c13.44-.34,26.49-9.04,26.49-25.96l2.61,2.64s1.09-1.05.5-1.87c-.86-1.18-4.09-3.95-4.09-3.95,0,0-3.38,3.01-4.06,3.95-.61.82.47,1.87.47,1.87l2.65-2.64c0,15.4-12.12,23.48-24.57,23.83v-2.72c0-.59-.48-1.07-1.06-1.07s-1.07.48-1.07,1.07v2.7c-12.46-.53-24.6-8.84-24.6-25.34,0-1.26-2.23-1.13-2.23.19Z"/>
    <path class="cls-6" d="m291.38,167.77c0,17.71-13.27,26.75-26.83,27.29v2.76c0,.58-.48,1.06-1.07,1.06-.58,0-1.06-.48-1.06-1.06v-2.75c-13.44-.34-26.49-9.04-26.49-25.96l-2.61,2.64s-1.09-1.05-.5-1.87c.86-1.18,4.09-3.95,4.09-3.95,0,0,3.38,3.01,4.06,3.95.61.82-.47,1.87-.47,1.87l-2.65-2.64c0,15.4,12.12,23.48,24.57,23.83v-2.72c0-.59.48-1.07,1.06-1.07.59,0,1.07.48,1.07,1.07v2.7c12.46-.53,24.6-8.84,24.6-25.34,0-1.26,2.23-1.13,2.23.19Z"/>
    <path class="cls-6" d="m177.29,181.58c-2.36-9.28-7.32-10.07-21.33-10.07-1.39,0-1.43,2.07,0,2.01,16.81-.62,20.19,3.76,20.35,16.64h-2.76c-.59,0-.97.21-.97.8,0,.58.38.86.97.86h7.6c.58,0,.98-.28.98-.86,0-.59-.4-.8-.98-.8h-2.61c.18-12.87,3.74-17.04,17.94-16.53l-2.9,2.83s1.11,1.16,1.98.51c1.01-.74,4.23-4.34,4.23-4.34,0,0-2.97-3.44-4.23-4.36-.87-.64-1.98.53-1.98.53l2.9,2.95c-10.61,0-16.21.41-19.19,9.83Z"/>
    <path class="cls-6" d="m351.03,178.82c2.36-9.28,7.32-10.07,21.33-10.07,1.39,0,1.43,2.07,0,2.01-16.81-.62-20.19,3.76-20.35,16.64h2.76c.59,0,.97.21.97.8,0,.58-.38.86-.97.86h-7.6c-.58,0-.98-.28-.98-.86,0-.59.4-.8.98-.8h2.61c-.18-12.87-3.74-17.04-17.94-16.53l2.9,2.83s-1.11,1.16-1.98.51c-1.01-.74-4.23-4.34-4.23-4.34,0,0,2.97-3.44,4.23-4.36.87-.64,1.98.53,1.98.53l-2.9,2.95c10.61,0,16.21.41,19.19,9.83Z"/>
    <path class="cls-6" d="m333.55,274.18c9.28,2.36,10.07,7.32,10.07,21.33,0,1.39-2.07,1.43-2.01,0,.62-16.81-3.76-20.19-16.64-20.35v2.76c0,.59-.21.97-.8.97s-.86-.38-.86-.97v-7.6c0-.58.28-.98.86-.98.59,0,.8.4.8.98v2.61c12.87-.18,17.04-3.74,16.53-17.94l-2.83,2.9s-1.16-1.11-.51-1.98c.74-1.01,4.34-4.23,4.34-4.23,0,0,3.44,2.97,4.36,4.23.64.87-.53,1.98-.53,1.98l-2.95-2.9c0,10.61-.41,16.21-9.83,19.19Z"/>
    <path class="cls-6" d="m154.15,274.18c9.28,2.36,10.07,7.32,10.07,21.33,0,1.39-2.07,1.43-2.01,0,.62-16.81-3.76-20.19-16.64-20.35v2.76c0,.59-.21.97-.8.97s-.86-.38-.86-.97v-7.6c0-.58.28-.98.86-.98.59,0,.8.4.8.98v2.61c12.87-.18,17.04-3.74,16.53-17.94l-2.83,2.9s-1.16-1.11-.51-1.98c.74-1.01,4.34-4.23,4.34-4.23,0,0,3.44,2.97,4.36,4.23.64.87-.53,1.98-.53,1.98l-2.95-2.9c0,10.61-.41,16.21-9.83,19.19Z"/>
  </g>
  <g>
    <path class="cls-9" d="m452.45,145.91v.13c0,.4-.33.72-.72.72h-3.1s0,32.06,0,32.06l2.62-2.58s1.09,1.05.5,1.87c-.86,1.18-4.09,3.95-4.09,3.95,0,0-3.38-3.01-4.06-3.95-.61-.82.47-1.87.47-1.87l2.65,2.72v-32.2s-3.11,0-3.11,0c-.4,0-.73-.32-.73-.72v-.13c0-.4.33-.73.73-.73h8.12c.39,0,.72.33.72.73Z"/>
    <path class="cls-9" d="m93.46,410.91v.13c0,.4-.33.72-.72.72h-3.1s0,32.06,0,32.06l2.62-2.58s1.09,1.05.5,1.87c-.86,1.18-4.09,3.95-4.09,3.95,0,0-3.38-3.01-4.06-3.95-.61-.82.47-1.87.47-1.87l2.65,2.72v-32.2s-3.11,0-3.11,0c-.4,0-.73-.32-.73-.72v-.13c0-.4.33-.73.73-.73h8.12c.39,0,.72.33.72.73Z"/>
    <path class="cls-9" d="m438.22,410.91v.13c0,.4-.33.72-.72.72h-3.1s0,32.06,0,32.06l2.62-2.58s1.09,1.05.5,1.87c-.86,1.18-4.09,3.95-4.09,3.95,0,0-3.38-3.01-4.06-3.95-.61-.82.47-1.87.47-1.87l2.65,2.72v-32.2s-3.11,0-3.11,0c-.4,0-.73-.32-.73-.72v-.13c0-.4.33-.73.73-.73h8.12c.39,0,.72.33.72.73Z"/>
    <path class="cls-9" d="m543.71,145.91v.13c0,.4-.33.72-.72.72h-3.1s0,32.06,0,32.06l2.62-2.58s1.09,1.05.5,1.87c-.86,1.18-4.09,3.95-4.09,3.95,0,0-3.38-3.01-4.06-3.95-.61-.82.47-1.87.47-1.87l2.65,2.72v-32.2s-3.11,0-3.11,0c-.4,0-.73-.32-.73-.72v-.13c0-.4.33-.73.73-.73h8.12c.39,0,.72.33.72.73Z"/>
    <path class="cls-9" d="m183.87,410.91v.13c0,.4-.33.72-.72.72h-3.1s0,32.06,0,32.06l2.62-2.58s1.09,1.05.5,1.87c-.86,1.18-4.09,3.95-4.09,3.95,0,0-3.38-3.01-4.06-3.95-.61-.82.47-1.87.47-1.87l2.65,2.72v-32.2s-3.11,0-3.11,0c-.4,0-.73-.32-.73-.72v-.13c0-.4.33-.73.73-.73h8.12c.39,0,.72.33.72.73Z"/>
    <path class="cls-9" d="m542.75,411.29v.13c0,.4-.33.72-.72.72h-3.1s0,32.06,0,32.06l2.62-2.58s1.09,1.05.5,1.87c-.86,1.18-4.09,3.95-4.09,3.95,0,0-3.38-3.01-4.06-3.95-.61-.82.47-1.87.47-1.87l2.65,2.72v-32.2s-3.11,0-3.11,0c-.4,0-.73-.32-.73-.72v-.13c0-.4.33-.73.73-.73h8.12c.39,0,.72.33.72.73Z"/>
    <path class="cls-9" d="m606.01,181.32v-.13c0-.4.33-.72.72-.72h3.1s0-32.06,0-32.06l-2.62,2.58s-1.09-1.05-.5-1.87c.86-1.18,4.09-3.95,4.09-3.95,0,0,3.38,3.01,4.06,3.95.61.82-.47,1.87-.47,1.87l-2.65-2.72v32.2h3.11c.4,0,.73.32.73.72v.13c0,.4-.33.73-.73.73h-8.12c-.39,0-.72-.33-.72-.73Z"/>
    <path class="cls-9" d="m338.93,446.32v-.13c0-.4.33-.72.72-.72h3.1s0-32.06,0-32.06l-2.62,2.58s-1.09-1.05-.5-1.87c.86-1.18,4.09-3.95,4.09-3.95,0,0,3.38,3.01,4.06,3.95.61.82-.47,1.87-.47,1.87l-2.65-2.72v32.2h3.11c.4,0,.73.32.73.72v.13c0,.4-.33.73-.73.73h-8.12c-.39,0-.72-.33-.72-.73Z"/>
    <path class="cls-9" d="m696.01,181.32v-.13c0-.4.33-.72.72-.72h3.1s0-32.06,0-32.06l-2.62,2.58s-1.09-1.05-.5-1.87c.86-1.18,4.09-3.95,4.09-3.95,0,0,3.38,3.01,4.06,3.95.61.82-.47,1.87-.47,1.87l-2.65-2.72v32.2h3.11c.4,0,.73.32.73.72v.13c0,.4-.33.73-.73.73h-8.12c-.39,0-.72-.33-.72-.73Z"/>
    <path class="cls-9" d="m698.65,446.32v-.13c0-.4.33-.72.72-.72h3.1s0-32.06,0-32.06l-2.62,2.58s-1.09-1.05-.5-1.87c.86-1.18,4.09-3.95,4.09-3.95,0,0,3.38,3.01,4.06,3.95.61.82-.47,1.87-.47,1.87l-2.65-2.72v32.2h3.11c.4,0,.73.32.73.72v.13c0,.4-.33.73-.73.73h-8.12c-.39,0-.72-.33-.72-.73Z"/>
    <path class="cls-9" d="m606.01,446.32v-.13c0-.4.33-.72.72-.72h3.1s0-32.06,0-32.06l-2.62,2.58s-1.09-1.05-.5-1.87c.86-1.18,4.09-3.95,4.09-3.95,0,0,3.38,3.01,4.06,3.95.61.82-.47,1.87-.47,1.87l-2.65-2.72v32.2h3.11c.4,0,.73.32.73.72v.13c0,.4-.33.73-.73.73h-8.12c-.39,0-.72-.33-.72-.73Z"/>
    <path class="cls-9" d="m248.93,446.32v-.13c0-.4.33-.72.72-.72h3.1s0-32.06,0-32.06l-2.62,2.58s-1.09-1.05-.5-1.87c.86-1.18,4.09-3.95,4.09-3.95,0,0,3.38,3.01,4.06,3.95.61.82-.47,1.87-.47,1.87l-2.65-2.72v32.2h3.11c.4,0,.73.32.73.72v.13c0,.4-.33.73-.73.73h-8.12c-.39,0-.72-.33-.72-.73Z"/>
    <path class="cls-9" d="m458.65,287.3h-.13c-.4,0-.72-.33-.72-.72v-3.1s-32.06,0-32.06,0l2.58,2.62s-1.05,1.09-1.87.5c-1.18-.86-3.95-4.09-3.95-4.09,0,0,3.01-3.38,3.95-4.06.82-.61,1.87.47,1.87.47l-2.72,2.65h32.2v-3.11c0-.4.32-.73.72-.73h.13c.4,0,.73.33.73.73v8.12c0,.39-.33.72-.73.72Z"/>
    <path class="cls-9" d="m243.29,541.47h.13c.4,0,.72.33.72.72v3.1s32.06,0,32.06,0l-2.58-2.62s1.05-1.09,1.87-.5c1.18.86,3.95,4.09,3.95,4.09,0,0-3.01,3.38-3.95,4.06-.82.61-1.87-.47-1.87-.47l2.72-2.65h-32.2v3.11c0,.4-.32.73-.72.73h-.13c-.4,0-.73-.33-.73-.73v-8.12c0-.39.33-.72.73-.72Z"/>
    <path class="cls-9" d="m274.71,291.84v-.13c0-.4-.33-.72-.72-.72h-3.1s0-32.06,0-32.06l2.62,2.58s1.09-1.05.5-1.87c-.86-1.18-4.09-3.95-4.09-3.95,0,0-3.38,3.01-4.06,3.95-.61.82.47,1.87.47,1.87l2.65-2.72v32.2h-3.11c-.4,0-.73.32-.73.72v.13c0,.4.33.73.73.73h8.12c.39,0,.72-.33.72-.73Z"/>
    <path class="cls-9" d="m175.14,256.42v.13c0,.4.33.72.72.72h3.1s0,32.06,0,32.06l-2.62-2.58s-1.09,1.05-.5,1.87c.86,1.18,4.09,3.95,4.09,3.95,0,0,3.38-3.01,4.06-3.95.61-.82-.47-1.87-.47-1.87l-2.65,2.72v-32.2h3.11c.4,0,.73-.32.73-.72v-.13c0-.4-.33-.73-.73-.73h-8.12c-.39,0-.72.33-.72.73Z"/>
    <path class="cls-9" d="m85.14,256.42v.13c0,.4.33.72.72.72h3.1s0,32.06,0,32.06l-2.62-2.58s-1.09,1.05-.5,1.87c.86,1.18,4.09,3.95,4.09,3.95,0,0,3.38-3.01,4.06-3.95.61-.82-.47-1.87-.47-1.87l-2.65,2.72v-32.2h3.11c.4,0,.73-.32.73-.72v-.13c0-.4-.33-.73-.73-.73h-8.12c-.39,0-.72.33-.72.73Z"/>
    <path class="cls-9" d="m445,521.42v.13c0,.4.33.72.72.72h3.1s0,32.06,0,32.06l-2.62-2.58s-1.09,1.05-.5,1.87c.86,1.18,4.09,3.95,4.09,3.95,0,0,3.38-3.01,4.06-3.95.61-.82-.47-1.87-.47-1.87l-2.65,2.72v-32.2h3.11c.4,0,.73-.32.73-.72v-.13c0-.4-.33-.73-.73-.73h-8.12c-.39,0-.72.33-.72.73Z"/>
    <path class="cls-9" d="m333.23,541.47h.13c.4,0,.72.33.72.72v3.1s32.06,0,32.06,0l-2.58-2.62s1.05-1.09,1.87-.5c1.18.86,3.95,4.09,3.95,4.09,0,0-3.01,3.38-3.95,4.06-.82.61-1.87-.47-1.87-.47l2.72-2.65h-32.2v3.11c0,.4-.32.73-.72.73h-.13c-.4,0-.73-.33-.73-.73v-8.12c0-.39.33-.72.73-.72Z"/>
    <path class="cls-9" d="m548.71,286.93h-.13c-.4,0-.72-.33-.72-.72v-3.1s-32.06,0-32.06,0l2.58,2.62s-1.05,1.09-1.87.5c-1.18-.86-3.95-4.09-3.95-4.09,0,0,3.01-3.38,3.95-4.06.82-.61,1.87.47,1.87.47l-2.72,2.65h32.2v-3.11c0-.4.32-.73.72-.73h.13c.4,0,.73.33.73.73v8.12c0,.39-.33.72-.73.72Z"/>
    <path class="cls-9" d="m364.71,291.84v-.13c0-.4-.33-.72-.72-.72h-3.1s0-32.06,0-32.06l2.62,2.58s1.09-1.05.5-1.87c-.86-1.18-4.09-3.95-4.09-3.95,0,0-3.38,3.01-4.06,3.95-.61.82.47,1.87.47,1.87l2.65-2.72v32.2h-3.11c-.4,0-.73.32-.73.72v.13c0,.4.33.73.73.73h8.12c.39,0,.72-.33.72-.73Z"/>
    <path class="cls-9" d="m535,521.42v.13c0,.4.33.72.72.72h3.1s0,32.06,0,32.06l-2.62-2.58s-1.09,1.05-.5,1.87c.86,1.18,4.09,3.95,4.09,3.95,0,0,3.38-3.01,4.06-3.95.61-.82-.47-1.87-.47-1.87l-2.65,2.72v-32.2h3.11c.4,0,.73-.32.73-.72v-.13c0-.4-.33-.73-.73-.73h-8.12c-.39,0-.72.33-.72.73Z"/>
    <path class="cls-9" d="m634.57,556.84v-.13c0-.4-.33-.72-.72-.72h-3.1s0-32.06,0-32.06l2.62,2.58s1.09-1.05.5-1.87c-.86-1.18-4.09-3.95-4.09-3.95,0,0-3.38,3.01-4.06,3.95-.61.82.47,1.87.47,1.87l2.65-2.72v32.2h-3.11c-.4,0-.73.32-.73.72v.13c0,.4.33.73.73.73h8.12c.39,0,.72-.33.72-.73Z"/>
    <path class="cls-9" d="m724.57,556.84v-.13c0-.4-.33-.72-.72-.72h-3.1s0-32.06,0-32.06l2.62,2.58s1.09-1.05.5-1.87c-.86-1.18-4.09-3.95-4.09-3.95,0,0-3.38,3.01-4.06,3.95-.61.82.47,1.87.47,1.87l2.65-2.72v32.2h-3.11c-.4,0-.73.32-.73.72v.13c0,.4.33.73.73.73h8.12c.39,0,.72-.33.72-.73Z"/>
    <path class="cls-9" d="m603.23,276.47h.13c.4,0,.72.33.72.72v3.1s32.06,0,32.06,0l-2.58-2.62s1.05-1.09,1.87-.5c1.18.86,3.95,4.09,3.95,4.09,0,0-3.01,3.38-3.95,4.06-.82.61-1.87-.47-1.87-.47l2.72-2.65h-32.2v3.11c0,.4-.32.73-.72.73h-.13c-.4,0-.73-.33-.73-.73v-8.12c0-.39.33-.72.73-.72Z"/>
    <path class="cls-9" d="m693.29,276.47h.13c.4,0,.72.33.72.72v3.1s32.06,0,32.06,0l-2.58-2.62s1.05-1.09,1.87-.5c1.18.86,3.95,4.09,3.95,4.09,0,0-3.01,3.38-3.95,4.06-.82.61-1.87-.47-1.87-.47l2.72-2.65h-32.2v3.11c0,.4-.32.73-.72.73h-.13c-.4,0-.73-.33-.73-.73v-8.12c0-.39.33-.72.73-.72Z"/>
    <path class="cls-9" d="m245.97,181.31v-.13c0-.4.33-.72.72-.72h3.1s.07-32.05.07-32.05l-2.63,2.57s-1.09-1.05-.5-1.87c.86-1.18,4.1-3.94,4.1-3.94,0,0,3.37,3.02,4.05,3.96.61.82-.47,1.87-.47,1.87l-2.64-2.73-.06,32.2h3.1c.4,0,.73.33.73.73v.13c0,.4-.33.73-.73.73l-8.12-.02c-.39,0-.72-.33-.72-.73Z"/>
    <path class="cls-9" d="m77.86,145.91v.13c0,.4-.33.72-.72.72h-3.1s0,32.06,0,32.06l2.62-2.58s1.09,1.05.5,1.87c-.86,1.18-4.09,3.95-4.09,3.95,0,0-3.38-3.01-4.06-3.95-.61-.82.47-1.87.47-1.87l2.65,2.72v-32.2s-3.11,0-3.11,0c-.4,0-.73-.32-.73-.72v-.13c0-.4.33-.73.73-.73h8.12c.39,0,.72.33.72.73Z"/>
    <path class="cls-9" d="m168.04,146.51v.13c0,.4-.33.72-.72.72h-3.1s0,32.06,0,32.06l2.62-2.58s1.09,1.05.5,1.87c-.86,1.18-4.09,3.95-4.09,3.95,0,0-3.38-3.01-4.06-3.95-.61-.82.47-1.87.47-1.87l2.65,2.72v-32.2s-3.11,0-3.11,0c-.4,0-.73-.32-.73-.72v-.13c0-.4.33-.73.73-.73h8.12c.39,0,.72.33.72.73Z"/>
    <path class="cls-9" d="m336.01,181.32v-.13c0-.4.33-.72.72-.72h3.1s0-32.06,0-32.06l-2.62,2.58s-1.09-1.05-.5-1.87c.86-1.18,4.09-3.95,4.09-3.95,0,0,3.38,3.01,4.06,3.95.61.82-.47,1.87-.47,1.87l-2.65-2.72v32.2h3.11c.4,0,.73.32.73.72v.13c0,.4-.33.73-.73.73h-8.12c-.39,0-.72-.33-.72-.73Z"/>
    <path class="cls-9" d="m98.71,552.71h-.13c-.4,0-.72-.33-.72-.72v-3.1s-32.06,0-32.06,0l2.58,2.62s-1.05,1.09-1.87.5c-1.18-.86-3.95-4.09-3.95-4.09,0,0,3.01-3.38,3.95-4.06.82-.61,1.87.47,1.87.47l-2.72,2.65h32.2v-3.11c0-.4.32-.73.72-.73h.13c.4,0,.73.33.73.73v8.12c0,.39-.33.72-.73.72Z"/>
    <path class="cls-9" d="m188.65,552.19h-.13c-.4,0-.72-.33-.72-.72v-3.1s-32.06,0-32.06,0l2.58,2.62s-1.05,1.09-1.87.5c-1.18-.86-3.95-4.09-3.95-4.09,0,0,3.01-3.38,3.95-4.06.82-.61,1.87.47,1.87.47l-2.72,2.65h32.2v-3.11c0-.4.32-.73.72-.73h.13c.4,0,.73.33.73.73v8.12c0,.39-.33.72-.73.72Z"/>
  </g>
  <g>
    <g>
      <path class="cls-5" d="m619.4,207.26l-4.37,8.3c-.15.29-.45.46-.75.46-.13,0-.26-.04-.39-.1-.2-.11-.35-.28-.42-.5-.07-.21-.05-.45.06-.65l1.88-3.58-2.53-3.62c-.12-.11-.2-.27-.24-.47-.05-.25.03-.53.2-.71.15-.17.35-.27.58-.28.22,0,.45.07.61.21l2.2,3.29,1.65-3.14c.12-.2.29-.35.51-.42.22-.07.45-.04.65.07.22.12.38.33.43.59.03.19,0,.38-.08.55Z"/>
      <path class="cls-5" d="m627.19,210.2c.48.44.43.65.44.96s-.23.47-.53.71c-1.75,1.43-2.78,2.44-2.78,2.44,0,0,.42.05,4.42.05.4,0,.79.33.79.78,0,.48-.22.88-.64.88-2.35,0-4.02-.05-5.97-.05-.79,0-1.34-.19-1.52-.57-.17-.36-.12-.9.55-1.52,1.91-1.72,3.47-2.88,3.47-2.88,0,0-2.17-1.97-3.75-3.56-.33-.33-.43-.62-.31-.85.11-.2.55-.57.92-.57h6.71c.74,0,.77,1.31,0,1.31-3.37,0-5.2.02-5.2.02"/>
      <rect class="cls-5" x="629.77" y="210.06" width="6.95" height="1.9" rx=".95" ry=".95"/>
    </g>
    <g>
      <rect class="cls-5" x="720.78" y="210.06" width="6.95" height="1.9" rx=".95" ry=".95"/>
      <path class="cls-5" d="m720.3,214.15c-.93-2.27-1.86-4.39-2.21-5.2-.38-.84-.67-1.52-.74-1.72-.32-.87-.6-1.18-1.12-1.22-.5.04-.79.34-1.11,1.22-.07.2-.36.87-.73,1.72-.73,1.66-1.56,3.6-2.22,5.2-.28.71-.29,1.21-.03,1.52.19.23.49.34.9.34h6.43c.41,0,.71-.12.9-.34.12-.15.18-.34.18-.58,0-.26-.07-.57-.22-.94Zm-1.67.34h-4.8c.17-.42.49-1.25.87-2.18.56-1.41,1.21-3.07,1.53-3.9.39.98,1.22,3.11,1.83,4.63l.57,1.44Z"/>
      <path class="cls-5" d="m706.19,207.74h-3.64c-1.34,0-1.31-1.73,0-1.73,5.4,0,5.35.02,5.67.38.23.27.43.73.15,1.14-1.71,2.48-4.54,6.52-4.54,6.52,0,0,3.43,0,4.33,0,1.35,0,1.4,1.91.13,1.91-8.37,0-9.53,1.13-2.09-8.23Z"/>
    </g>
    <g>
      <path class="cls-5" d="m717.8,475.17c.48.44.43.65.44.96s-.23.47-.53.71c-1.75,1.43-2.78,2.44-2.78,2.44,0,0,.42.05,4.42.05.4,0,.79.33.79.78,0,.48-.22.88-.64.88-2.35,0-4.02-.05-5.97-.05-.79,0-1.34-.19-1.52-.57-.17-.36-.12-.9.55-1.52,1.91-1.72,3.47-2.88,3.47-2.88,0,0-2.17-1.97-3.75-3.56-.33-.33-.43-.62-.31-.85.11-.2.55-.57.92-.57h6.71c.74,0,.77,1.31,0,1.31-3.37,0-5.2.02-5.2.02"/>
      <rect class="cls-5" x="720.85" y="475.04" width="6.95" height="1.9" rx=".95" ry=".95"/>
      <path class="cls-5" d="m706.13,472.72h-3.64c-1.34,0-1.31-1.73,0-1.73,5.4,0,5.35.02,5.67.38.23.27.43.73.15,1.14-1.71,2.48-4.54,6.52-4.54,6.52,0,0,3.43,0,4.33,0,1.35,0,1.4,1.91.13,1.91-8.37,0-9.53,1.13-2.09-8.23Z"/>
    </g>
    <g>
      <path class="cls-5" d="m619.49,469.97l-4.37,8.3c-.15.29-.45.46-.75.46-.13,0-.26-.04-.39-.1-.2-.11-.35-.28-.42-.5-.07-.21-.05-.45.06-.65l1.88-3.58-2.53-3.62c-.12-.11-.2-.27-.24-.47-.05-.25.03-.53.2-.71.15-.17.35-.27.58-.28.22,0,.45.07.61.21l2.2,3.29,1.65-3.14c.12-.2.29-.35.51-.42.22-.07.45-.04.65.07.22.12.38.33.43.59.03.19,0,.38-.08.55Z"/>
      <rect class="cls-5" x="629.68" y="472.78" width="6.95" height="1.9" rx=".95" ry=".95"/>
      <path class="cls-5" d="m628.82,476.86c-.93-2.27-1.86-4.39-2.21-5.2-.38-.84-.67-1.52-.74-1.72-.32-.87-.6-1.18-1.12-1.22-.5.04-.79.34-1.11,1.22-.07.2-.36.87-.73,1.72-.73,1.66-1.56,3.6-2.22,5.2-.28.71-.29,1.21-.03,1.52.19.23.49.34.9.34h6.43c.41,0,.71-.12.9-.34.12-.15.18-.34.18-.58,0-.26-.07-.57-.22-.94Zm-1.67.34h-4.8c.17-.42.49-1.25.87-2.18.56-1.41,1.21-3.07,1.53-3.9.39.98,1.22,3.11,1.83,4.63l.57,1.44Z"/>
    </g>
    <g>
      <path class="cls-5" d="m259.89,469.97l-4.37,8.3c-.15.29-.45.46-.75.46-.13,0-.26-.04-.39-.1-.2-.11-.35-.28-.42-.5-.07-.21-.05-.45.06-.65l1.88-3.58-2.53-3.62c-.12-.11-.2-.27-.24-.47-.05-.25.03-.53.2-.71.15-.17.35-.27.58-.28.22,0,.45.07.61.21l2.2,3.29,1.65-3.14c.12-.2.29-.35.51-.42.22-.07.45-.04.65.07.22.12.38.33.43.59.03.19,0,.38-.08.55Z"/>
      <rect class="cls-5" x="270.34" y="472.78" width="6.95" height="1.9" rx=".95" ry=".95"/>
      <path class="cls-5" d="m269.16,476.86c-.93-2.27-1.86-4.39-2.21-5.2-.38-.84-.67-1.52-.74-1.72-.32-.87-.6-1.18-1.12-1.22-.5.04-.79.34-1.11,1.22-.07.2-.36.87-.73,1.72-.73,1.66-1.56,3.6-2.22,5.2-.28.71-.29,1.21-.03,1.52.19.23.49.34.9.34h6.43c.41,0,.71-.12.9-.34.12-.15.18-.34.18-.58,0-.26-.07-.57-.22-.94Zm-1.67.34h-4.8c.17-.42.49-1.25.87-2.18.56-1.41,1.21-3.07,1.53-3.9.39.98,1.22,3.11,1.83,4.63l.57,1.44Z"/>
    </g>
    <g>
      <path class="cls-5" d="m439.87,468.54c-.46-.06-.96.28-1.19,1.14-.42,1.54-.92,3.7-1.44,5.63-1.11-2.72-1.86-4.39-2.5-4.38-.01,0-.02,0-.03.01-.01-.01-.02-.01-.03-.01-.64-.01-1.39,1.65-2.5,4.38-.51-1.93-1.02-4.09-1.44-5.63-.24-.86-.73-1.2-1.19-1.14-.59.07-.98.49-.74,1.25.25.81,1.84,6.07,2.3,7.72.47,1.65,1.59.9,1.8.49.21-.41,1.36-3.67,1.8-4.59.44.92,1.59,4.18,1.8,4.59.21.41,1.33,1.16,1.8-.49.46-1.64,2.05-6.9,2.3-7.72.24-.76-.15-1.18-.74-1.25Z"/>
      <rect class="cls-5" x="453.15" y="472.58" width="6.95" height="1.9" rx=".95" ry=".95"/>
      <path class="cls-5" d="m451.76,478.92h-3.54c-.32,0-.53-.32-.41-.62,2.67-6.29.99-7.71-1.08-7.85-.04,0-.08,0-.12,0h-.02s-.09,0-.13,0c-.04,0-.08,0-.12,0-2.07.14-3.75,1.56-1.08,7.85.12.29-.09.62-.41.62h-3.54c-.14,0-.66-1.27.12-1.73.69-.41.99.09,1.81.11-2.24-4.96.04-7.96,2.78-8.36.08-.02.94-.02,1.02,0,2.74.41,5.02,3.4,2.78,8.36.82-.02,1.12-.51,1.81-.11.78.46.26,1.73.12,1.73Z"/>
    </g>
    <g>
      <path class="cls-5" d="m528.78,214.52c.16.19.21.44.19.68-.03.24-.16.46-.34.61-.4.3-.98.23-1.3-.17l-2.45-3.14-2.45,3.14c-.18.23-.45.36-.72.36-.19,0-.4-.07-.57-.19-.19-.15-.32-.37-.35-.61-.03-.24.03-.49.19-.68l2.73-3.51-2.73-3.51c-.13-.17-.19-.36-.19-.57,0-.28.14-.56.36-.73.19-.15.42-.21.67-.19.24.03.47.16.61.35l2.45,3.14,2.44-3.14c.33-.41.91-.48,1.31-.16.22.17.35.43.35.72,0,.2-.07.4-.19.57l-2.73,3.51,2.73,3.51Z"/>
      <rect class="cls-5" x="543.21" y="210.06" width="6.95" height="1.9" rx=".95" ry=".95"/>
      <path class="cls-5" d="m542.35,216.01h-3.54c-.32,0-.53-.32-.41-.62,2.67-6.29.99-7.71-1.08-7.85-.04,0-.08,0-.12,0h-.02s-.09,0-.13,0c-.04,0-.08,0-.12,0-2.07.14-3.75,1.56-1.08,7.85.12.29-.09.62-.41.62h-3.54c-.14,0-.66-1.27.12-1.73.69-.41.99.09,1.81.11-2.24-4.96.04-7.96,2.78-8.36.08-.02.94-.02,1.02,0,2.74.41,5.02,3.4,2.78,8.36.82-.02,1.12-.51,1.81-.11.78.46.26,1.73.12,1.73Z"/>
    </g>
    <g>
      <path class="cls-5" d="m77.91,468.74c-.46-.06-.96.28-1.19,1.14-.42,1.54-.92,3.7-1.44,5.63-1.11-2.72-1.86-4.39-2.5-4.38-.01,0-.02,0-.03.01-.01-.01-.02-.01-.03-.01-.64-.01-1.39,1.65-2.5,4.38-.51-1.93-1.02-4.09-1.44-5.63-.24-.86-.73-1.2-1.19-1.14-.59.07-.98.49-.74,1.25.25.81,1.84,6.07,2.3,7.72.47,1.65,1.59.9,1.8.49.21-.41,1.36-3.67,1.8-4.59.44.92,1.59,4.18,1.8,4.59.21.41,1.33,1.16,1.8-.49.46-1.64,2.05-6.9,2.3-7.72.24-.76-.15-1.18-.74-1.25Z"/>
      <rect class="cls-5" x="91.22" y="472.79" width="6.95" height="1.9" rx=".95" ry=".95"/>
      <path class="cls-5" d="m90.92,478.72h-3.54c-.32,0-.53-.32-.41-.62,2.67-6.29.99-7.71-1.08-7.85-.04,0-.08,0-.12,0h-.02s-.09,0-.13,0c-.04,0-.08,0-.12,0-2.07.14-3.75,1.56-1.08,7.85.12.29-.09.62-.41.62h-3.54c-.14,0-.66-1.27.12-1.73.69-.41.99.09,1.81.11-2.24-4.96.04-7.96,2.78-8.36.08-.02.94-.02,1.02,0,2.74.41,5.02,3.4,2.78,8.36.82-.02,1.12-.51,1.81-.11.78.46.26,1.73.12,1.73Z"/>
    </g>
    <g>
      <path class="cls-5" d="m630.56,316.21c-.46-.06-.96.28-1.19,1.14-.42,1.54-.92,3.7-1.44,5.63-1.11-2.72-1.86-4.39-2.5-4.38-.01,0-.02,0-.03.01-.01-.01-.02-.01-.03-.01-.64-.01-1.39,1.65-2.5,4.38-.51-1.93-1.02-4.09-1.44-5.63-.24-.86-.73-1.2-1.19-1.14-.59.07-.98.49-.74,1.25.25.81,1.84,6.07,2.3,7.72.47,1.65,1.59.9,1.8.49.21-.41,1.36-3.67,1.8-4.59.44.92,1.59,4.18,1.8,4.59.21.41,1.33,1.16,1.8-.49.46-1.64,2.05-6.9,2.3-7.72.24-.76-.15-1.18-.74-1.25Z"/>
      <rect class="cls-5" x="632.08" y="320.25" width="6.95" height="1.9" rx=".95" ry=".95"/>
      <path class="cls-5" d="m613.54,316.2c-1.33,0-3.23,1.68-3.23,5,0,2.56,1.22,5,3.23,5s3.27-2.44,3.27-5c0-3.48-1.94-5-3.27-5Zm.01,1.37c.96,0,1.64,1.13,1.7,1.93.02.3,0,.81-.55.81h-2.33c-.46,0-.51-.5-.5-.76.07-.8.81-1.98,1.69-1.98Zm0,7.26c-1.08,0-1.72-1.28-1.79-2.08-.01-.25,0-.76.5-.76h2.53c.56,0,.58.5.55.81-.06.8-.72,2.03-1.8,2.03Z"/>
    </g>
    <g>
      <path class="cls-5" d="m166.25,477.23c.16.19.21.44.19.68-.03.24-.16.46-.34.61-.4.3-.98.23-1.3-.17l-2.45-3.14-2.45,3.14c-.18.23-.45.36-.72.36-.19,0-.4-.07-.57-.19-.19-.15-.32-.37-.35-.61-.03-.24.03-.49.19-.68l2.73-3.51-2.73-3.51c-.13-.17-.19-.36-.19-.57,0-.28.14-.56.36-.73.19-.15.42-.21.67-.19.24.03.47.16.61.35l2.45,3.14,2.44-3.14c.33-.41.91-.48,1.31-.16.22.17.35.43.35.72,0,.2-.07.4-.19.57l-2.73,3.51,2.73,3.51Z"/>
      <rect class="cls-5" x="176.75" y="472.78" width="6.95" height="1.9" rx=".95" ry=".95"/>
      <path class="cls-5" d="m172.07,468.73c-1.33,0-3.23,1.68-3.23,5,0,2.56,1.22,5,3.23,5s3.27-2.44,3.27-5c0-3.48-1.94-5-3.27-5Zm.01,1.37c.96,0,1.64,1.13,1.7,1.93.02.3,0,.81-.55.81h-2.33c-.46,0-.51-.5-.5-.76.07-.8.81-1.98,1.69-1.98Zm0,7.26c-1.08,0-1.72-1.28-1.79-2.08-.01-.25,0-.76.5-.76h2.53c.56,0,.58.5.55.81-.06.8-.72,2.03-1.8,2.03Z"/>
    </g>
    <g>
      <rect class="cls-5" x="269.31" y="320.25" width="6.95" height="1.9" rx=".95" ry=".95"/>
      <path class="cls-5" d="m268.77,317.44l-4.37,8.3c-.15.29-.45.46-.75.46-.13,0-.26-.04-.39-.1-.2-.11-.35-.28-.42-.5-.07-.21-.05-.45.06-.65l1.88-3.58-2.53-3.62c-.12-.11-.2-.27-.24-.47-.05-.25.03-.53.2-.71.15-.17.35-.27.58-.28.22,0,.45.07.61.21l2.2,3.29,1.65-3.14c.12-.2.29-.35.51-.42.22-.07.45-.04.65.07.22.12.38.33.43.59.03.19,0,.38-.08.55Z"/>
      <path class="cls-5" d="m257.36,316.2c-1.33,0-3.23,1.68-3.23,5,0,2.56,1.22,5,3.23,5s3.27-2.44,3.27-5c0-3.48-1.94-5-3.27-5Zm.01,1.37c.96,0,1.64,1.13,1.7,1.93.02.3,0,.81-.55.81h-2.33c-.46,0-.51-.5-.5-.76.07-.8.81-1.98,1.69-1.98Zm0,7.26c-1.08,0-1.72-1.28-1.79-2.08-.01-.25,0-.76.5-.76h2.53c.56,0,.58.5.55.81-.06.8-.72,2.03-1.8,2.03Z"/>
    </g>
    <g>
      <path class="cls-5" d="m531.14,477.23c.16.19.21.44.19.68-.03.24-.16.46-.34.61-.4.3-.98.23-1.3-.17l-2.45-3.14-2.45,3.14c-.18.23-.45.36-.72.36-.19,0-.4-.07-.57-.19-.19-.15-.32-.37-.35-.61-.03-.24.03-.49.19-.68l2.73-3.51-2.73-3.51c-.13-.17-.19-.36-.19-.57,0-.28.14-.56.36-.73.19-.15.42-.21.67-.19.24.03.47.16.61.35l2.45,3.14,2.44-3.14c.33-.41.91-.48,1.31-.16.22.17.35.43.35.72,0,.2-.07.4-.19.57l-2.73,3.51,2.73,3.51Z"/>
      <rect class="cls-5" x="540.85" y="472.78" width="6.95" height="1.9" rx=".95" ry=".95"/>
      <path class="cls-5" d="m536.6,468.73c-1.33,0-3.23,1.68-3.23,5,0,2.56,1.22,5,3.23,5s3.27-2.44,3.27-5c0-3.48-1.94-5-3.27-5Zm.01,1.37c.96,0,1.64,1.13,1.7,1.93.02.3,0,.81-.55.81h-2.33c-.46,0-.51-.5-.5-.76.07-.8.81-1.98,1.69-1.98Zm0,7.26c-1.08,0-1.72-1.28-1.79-2.08-.01-.25,0-.76.5-.76h2.53c.56,0,.58.5.55.81-.06.8-.72,2.03-1.8,2.03Z"/>
    </g>
    <g>
      <path class="cls-5" d="m441.83,206.02c-.46-.06-.96.28-1.19,1.14-.42,1.54-.92,3.7-1.44,5.63-1.11-2.72-1.86-4.39-2.5-4.38-.01,0-.02,0-.03.01-.01-.01-.02-.01-.03-.01-.64-.01-1.39,1.65-2.5,4.38-.51-1.93-1.02-4.09-1.44-5.63-.24-.86-.73-1.2-1.19-1.14-.59.07-.98.49-.74,1.25.25.81,1.84,6.07,2.3,7.72.47,1.65,1.59.9,1.8.49.21-.41,1.36-3.67,1.8-4.59.44.92,1.59,4.18,1.8,4.59.21.41,1.33,1.16,1.8-.49.46-1.64,2.05-6.9,2.3-7.72.24-.76-.15-1.18-.74-1.25Z"/>
      <rect class="cls-5" x="451.84" y="210.06" width="6.95" height="1.9" rx=".95" ry=".95"/>
      <path class="cls-5" d="m447.5,206.01c-1.33,0-3.23,1.68-3.23,5,0,2.56,1.22,5,3.23,5s3.27-2.44,3.27-5c0-3.48-1.94-5-3.27-5Zm.01,1.37c.96,0,1.64,1.13,1.7,1.93.02.3,0,.81-.55.81h-2.33c-.46,0-.51-.5-.5-.76.07-.8.81-1.98,1.69-1.98Zm0,7.26c-1.08,0-1.72-1.28-1.79-2.08-.01-.25,0-.76.5-.76h2.53c.56,0,.58.5.55.81-.06.8-.72,2.03-1.8,2.03Z"/>
    </g>
    <g>
      <path class="cls-5" d="m627.42,580.56c-1.86,0-2.27,0-3.51,0-.46,0-1.11-.2-1.11-.85,0-.57.42-.88,1.07-.88,4.93,0,5.05-.05,5.58.38.28.22.43.73.15,1.14-1.71,2.48-4.64,6.6-4.64,6.6,0,0,2.47-.05,3.73-.05,1.57,0,1.46,1.88.13,1.88-8.37,0-8.83,1.14-1.4-8.22Z"/>
      <path class="cls-5" d="m617.21,578.82c-1.33,0-3.23,1.68-3.23,5,0,2.56,1.22,5,3.23,5s3.27-2.44,3.27-5c0-3.48-1.94-5-3.27-5Zm.01,1.37c.96,0,1.64,1.13,1.7,1.93.02.3,0,.81-.55.81h-2.33c-.46,0-.51-.5-.5-.76.07-.8.81-1.98,1.69-1.98Zm0,7.26c-1.08,0-1.72-1.28-1.79-2.08-.01-.25,0-.76.5-.76h2.53c.56,0,.58.5.55.81-.06.8-.72,2.03-1.8,2.03Z"/>
      <rect class="cls-5" x="630.1" y="582.87" width="6.95" height="1.9" rx=".95" ry=".95"/>
    </g>
    <g>
      <path class="cls-5" d="m350.36,326.2h-3.54c-.32,0-.53-.32-.41-.62,2.67-6.29.99-7.71-1.08-7.85-.04,0-.08,0-.12,0h-.02s-.09,0-.13,0c-.04,0-.08,0-.12,0-2.07.14-3.75,1.56-1.08,7.85.12.29-.09.62-.41.62h-3.54c-.14,0-.66-1.27.12-1.73.69-.41.99.09,1.81.11-2.24-4.96.04-7.96,2.78-8.36.08-.02.94-.02,1.02,0,2.74.41,5.02,3.4,2.78,8.36.82-.02,1.12-.51,1.81-.11.78.46.26,1.73.12,1.73Z"/>
      <path class="cls-5" d="m357.01,317.94c-1.86,0-2.27,0-3.51,0-.46,0-1.11-.2-1.11-.85,0-.57.42-.88,1.07-.88,4.93,0,5.05-.05,5.58.38.28.22.43.73.15,1.14-1.71,2.48-4.64,6.6-4.64,6.6,0,0,2.47-.05,3.73-.05,1.57,0,1.46,1.88.13,1.88-8.37,0-8.83,1.14-1.4-8.22Z"/>
      <rect class="cls-5" x="360.19" y="320.25" width="6.95" height="1.9" rx=".95" ry=".95"/>
    </g>
    <g>
      <path class="cls-5" d="m348.4,588.82h-3.54c-.32,0-.53-.32-.41-.62,2.67-6.29.99-7.71-1.08-7.85-.04,0-.08,0-.12,0h-.02s-.09,0-.13,0c-.04,0-.08,0-.12,0-2.07.14-3.75,1.56-1.08,7.85.12.29-.09.62-.41.62h-3.54c-.14,0-.66-1.27.12-1.73.69-.41.99.09,1.81.11-2.24-4.96.04-7.96,2.78-8.36.08-.02.94-.02,1.02,0,2.74.41,5.02,3.4,2.78,8.36.82-.02,1.12-.51,1.81-.11.78.46.26,1.73.12,1.73Z"/>
      <path class="cls-5" d="m360.96,578.83c-.46-.06-.96.28-1.19,1.14-.42,1.54-.92,3.7-1.44,5.63-1.11-2.72-1.86-4.39-2.5-4.38-.01,0-.02,0-.03.01-.01-.01-.02-.01-.03-.01-.64-.01-1.39,1.65-2.5,4.38-.51-1.93-1.02-4.09-1.44-5.63-.24-.86-.73-1.2-1.19-1.14-.59.07-.98.49-.74,1.25.25.81,1.84,6.07,2.3,7.72.47,1.65,1.59.9,1.8.49.21-.41,1.36-3.67,1.8-4.59.44.92,1.59,4.18,1.8,4.59.21.41,1.33,1.16,1.8-.49.46-1.64,2.05-6.9,2.3-7.72.24-.76-.15-1.18-.74-1.25Z"/>
      <rect class="cls-5" x="362.17" y="582.87" width="6.95" height="1.9" rx=".95" ry=".95"/>
    </g>
    <g>
      <path class="cls-5" d="m710.88,326.2h-3.54c-.32,0-.53-.32-.41-.62,2.67-6.29.99-7.71-1.08-7.85-.04,0-.08,0-.12,0h-.02s-.09,0-.13,0c-.04,0-.08,0-.12,0-2.07.14-3.75,1.56-1.08,7.85.12.29-.09.62-.41.62h-3.54c-.14,0-.66-1.27.12-1.73.69-.41.99.09,1.81.11-2.24-4.96.04-7.96,2.78-8.36.08-.02.94-.02,1.02,0,2.74.41,5.02,3.4,2.78,8.36.82-.02,1.12-.51,1.81-.11.78.46.26,1.73.12,1.73Z"/>
      <path class="cls-5" d="m721.14,324.71c.16.19.21.44.19.68-.03.24-.16.46-.34.61-.4.3-.98.23-1.3-.17l-2.45-3.14-2.45,3.14c-.18.23-.45.36-.72.36-.19,0-.4-.07-.57-.19-.19-.15-.32-.37-.35-.61-.03-.24.03-.49.19-.68l2.73-3.51-2.73-3.51c-.13-.17-.19-.36-.19-.57,0-.28.14-.56.36-.73.19-.15.42-.21.67-.19.24.03.47.16.61.35l2.45,3.14,2.44-3.14c.33-.41.91-.48,1.31-.16.22.17.35.43.35.72,0,.2-.07.4-.19.57l-2.73,3.51,2.73,3.51Z"/>
      <rect class="cls-5" x="721.88" y="320.25" width="6.95" height="1.9" rx=".95" ry=".95"/>
    </g>
    <g>
      <path class="cls-5" d="m711.82,591.08h-3.54c-.32,0-.53-.32-.41-.62,2.67-6.29.99-7.71-1.08-7.85-.04,0-.08,0-.12,0h-.02s-.09,0-.13,0c-.04,0-.08,0-.12,0-2.07.14-3.75,1.56-1.08,7.85.12.29-.09.62-.41.62h-3.54c-.14,0-.66-1.27.12-1.73.69-.41.99.09,1.81.11-2.24-4.96.04-7.96,2.78-8.36.08-.02.94-.02,1.02,0,2.74.41,5.02,3.4,2.78,8.36.82-.02,1.12-.51,1.81-.11.78.46.26,1.73.12,1.73Z"/>
      <path class="cls-5" d="m720.86,582.33l-4.37,8.3c-.15.29-.45.46-.75.46-.13,0-.26-.04-.39-.1-.2-.11-.35-.28-.42-.5-.07-.21-.05-.45.06-.65l1.88-3.58-2.53-3.62c-.12-.11-.2-.27-.24-.47-.05-.25.03-.53.2-.71.15-.17.35-.27.58-.28.22,0,.45.07.61.21l2.2,3.29,1.65-3.14c.12-.2.29-.35.51-.42.22-.07.45-.04.65.07.22.12.38.33.43.59.03.19,0,.38-.08.55Z"/>
      <rect class="cls-5" x="720.95" y="585.13" width="6.95" height="1.9" rx=".95" ry=".95"/>
    </g>
    <g>
      <path class="cls-5" d="m542.09,578.83c-.46-.06-.96.28-1.19,1.14-.42,1.54-.92,3.7-1.44,5.63-1.11-2.72-1.86-4.39-2.5-4.38-.01,0-.02,0-.03.01-.01-.01-.02-.01-.03-.01-.64-.01-1.39,1.65-2.5,4.38-.51-1.93-1.02-4.09-1.44-5.63-.24-.86-.73-1.2-1.19-1.14-.59.07-.98.49-.74,1.25.25.81,1.84,6.07,2.3,7.72.47,1.65,1.59.9,1.8.49.21-.41,1.36-3.67,1.8-4.59.44.92,1.59,4.18,1.8,4.59.21.41,1.33,1.16,1.8-.49.46-1.64,2.05-6.9,2.3-7.72.24-.76-.15-1.18-.74-1.25Z"/>
      <path class="cls-5" d="m528.32,586.95c-.93-2.27-1.86-4.39-2.21-5.2-.38-.84-.67-1.52-.74-1.72-.32-.87-.6-1.18-1.12-1.22-.5.04-.79.34-1.11,1.22-.07.2-.36.87-.73,1.72-.73,1.66-1.56,3.6-2.22,5.2-.28.71-.29,1.21-.03,1.52.19.23.49.34.9.34h6.43c.41,0,.71-.12.9-.34.12-.15.18-.34.18-.58,0-.26-.07-.57-.22-.94Zm-1.67.34h-4.8c.17-.42.49-1.25.87-2.18.56-1.41,1.21-3.07,1.53-3.9.39.98,1.22,3.11,1.83,4.63l.57,1.44Z"/>
      <rect class="cls-5" x="544.04" y="582.87" width="6.95" height="1.9" rx=".95" ry=".95"/>
    </g>
    <g>
      <path class="cls-5" d="m450.3,587.33c.16.19.21.44.19.68-.03.24-.16.46-.34.61-.4.3-.98.23-1.3-.17l-2.45-3.14-2.45,3.14c-.18.23-.45.36-.72.36-.19,0-.4-.07-.57-.19-.19-.15-.32-.37-.35-.61-.03-.24.03-.49.19-.68l2.73-3.51-2.73-3.51c-.13-.17-.19-.36-.19-.57,0-.28.14-.56.36-.73.19-.15.42-.21.67-.19.24.03.47.16.61.35l2.45,3.14,2.44-3.14c.33-.41.91-.48,1.31-.16.22.17.35.43.35.72,0,.2-.07.4-.19.57l-2.73,3.51,2.73,3.51Z"/>
      <path class="cls-5" d="m437.55,583.01c.48.44.43.65.44.96s-.23.47-.53.71c-1.75,1.43-2.78,2.44-2.78,2.44,0,0,.42.05,4.42.05.4,0,.79.33.79.78,0,.48-.22.88-.64.88-2.35,0-4.02-.05-5.97-.05-.79,0-1.34-.19-1.52-.57-.17-.36-.12-.9.55-1.52,1.91-1.72,3.47-2.88,3.47-2.88,0,0-2.17-1.97-3.75-3.56-.33-.33-.43-.62-.31-.85.11-.2.55-.57.92-.57h6.71c.74,0,.77,1.31,0,1.31-3.37,0-5.2.02-5.2.02"/>
      <rect class="cls-5" x="450.23" y="582.87" width="6.95" height="1.9" rx=".95" ry=".95"/>
    </g>
    <g>
      <rect class="cls-5" x="357.64" y="472.78" width="6.95" height="1.9" rx=".95" ry=".95"/>
      <path class="cls-5" d="m345.24,470.46h-3.64c-1.34,0-1.31-1.73,0-1.73,5.4,0,5.35.02,5.67.38.23.27.43.73.15,1.14-1.71,2.48-4.54,6.52-4.54,6.52,0,0,3.43,0,4.33,0,1.35,0,1.4,1.91.13,1.91-8.37,0-9.53,1.13-2.09-8.23Z"/>
      <path class="cls-5" d="m355.73,472.91c.48.44.43.65.44.96s-.23.47-.53.71c-1.75,1.43-2.78,2.44-2.78,2.44,0,0,.42.05,4.42.05.4,0,.79.33.79.78,0,.48-.22.88-.64.88-2.35,0-4.02-.05-5.97-.05-.79,0-1.34-.19-1.52-.57-.17-.36-.12-.9.55-1.52,1.91-1.72,3.47-2.88,3.47-2.88,0,0-2.17-1.97-3.75-3.56-.33-.33-.43-.62-.31-.85.11-.2.55-.57.92-.57h6.71c.74,0,.77,1.31,0,1.31-3.37,0-5.2.02-5.2.02"/>
    </g>
    <g>
      <path class="cls-5" d="m176.11,324.71c.16.19.21.44.19.68-.03.24-.16.46-.34.61-.4.3-.98.23-1.3-.17l-2.45-3.14-2.45,3.14c-.18.23-.45.36-.72.36-.19,0-.4-.07-.57-.19-.19-.15-.32-.37-.35-.61-.03-.24.03-.49.19-.68l2.73-3.51-2.73-3.51c-.13-.17-.19-.36-.19-.57,0-.28.14-.56.36-.73.19-.15.42-.21.67-.19.24.03.47.16.61.35l2.45,3.14,2.44-3.14c.33-.41.91-.48,1.31-.16.22.17.35.43.35.72,0,.2-.07.4-.19.57l-2.73,3.51,2.73,3.51Z"/>
      <rect class="cls-5" x="176.3" y="320.25" width="6.95" height="1.9" rx=".95" ry=".95"/>
      <path class="cls-5" d="m167.06,324.33c-.93-2.27-1.86-4.39-2.21-5.2-.38-.84-.67-1.52-.74-1.72-.32-.87-.6-1.18-1.12-1.22-.5.04-.79.34-1.11,1.22-.07.2-.36.87-.73,1.72-.73,1.66-1.56,3.6-2.22,5.2-.28.71-.29,1.21-.03,1.52.19.23.49.34.9.34h6.43c.41,0,.71-.12.9-.34.12-.15.18-.34.18-.58,0-.26-.07-.57-.22-.94Zm-1.67.34h-4.8c.17-.42.49-1.25.87-2.18.56-1.41,1.21-3.07,1.53-3.9.39.98,1.22,3.11,1.83,4.63l.57,1.44Z"/>
    </g>
    <g>
      <rect class="cls-5" x="90.63" y="320.25" width="6.95" height="1.9" rx=".95" ry=".95"/>
      <path class="cls-5" d="m88.92,316.21c-.46-.06-.96.28-1.19,1.14-.42,1.54-.92,3.7-1.44,5.63-1.11-2.72-1.86-4.39-2.5-4.38-.01,0-.02,0-.03.01-.01-.01-.02-.01-.03-.01-.64-.01-1.39,1.65-2.5,4.38-.51-1.93-1.02-4.09-1.44-5.63-.24-.86-.73-1.2-1.19-1.14-.59.07-.98.49-.74,1.25.25.81,1.84,6.07,2.3,7.72.47,1.65,1.59.9,1.8.49.21-.41,1.36-3.67,1.8-4.59.44.92,1.59,4.18,1.8,4.59.21.41,1.33,1.16,1.8-.49.46-1.64,2.05-6.9,2.3-7.72.24-.76-.15-1.18-.74-1.25Z"/>
      <path class="cls-5" d="m73.25,320.39c.48.44.43.65.44.96s-.23.47-.53.71c-1.75,1.43-2.78,2.44-2.78,2.44,0,0,.42.05,4.42.05.4,0,.79.33.79.78,0,.48-.22.88-.64.88-2.35,0-4.02-.05-5.97-.05-.79,0-1.34-.19-1.52-.57-.17-.36-.12-.9.55-1.52,1.91-1.72,3.47-2.88,3.47-2.88,0,0-2.17-1.97-3.75-3.56-.33-.33-.43-.62-.31-.85.11-.2.55-.57.92-.57h6.71c.74,0,.77,1.31,0,1.31-3.37,0-5.2.02-5.2.02"/>
    </g>
    <g>
      <path class="cls-5" d="m260.19,207.26l-4.37,8.3c-.15.29-.45.46-.75.46-.13,0-.26-.04-.39-.1-.2-.11-.35-.28-.42-.5-.07-.21-.05-.45.06-.65l1.88-3.58-2.53-3.62c-.12-.11-.2-.27-.24-.47-.05-.25.03-.53.2-.71.15-.17.35-.27.58-.28.22,0,.45.07.61.21l2.2,3.29,1.65-3.14c.12-.2.29-.35.51-.42.22-.07.45-.04.65.07.22.12.38.33.43.59.03.19,0,.38-.08.55Z"/>
      <path class="cls-5" d="m266.96,210.2c.48.44.43.65.44.96s-.23.47-.53.71c-1.75,1.43-2.78,2.44-2.78,2.44,0,0,.42.05,4.42.05.4,0,.79.33.79.78,0,.48-.22.88-.64.88-2.35,0-4.02-.05-5.97-.05-.79,0-1.34-.19-1.52-.57-.17-.36-.12-.9.55-1.52,1.91-1.72,3.47-2.88,3.47-2.88,0,0-2.17-1.97-3.75-3.56-.33-.33-.43-.62-.31-.85.11-.2.55-.57.92-.57h6.71c.74,0,.77,1.31,0,1.31-3.37,0-5.2.02-5.2.02"/>
      <rect class="cls-5" x="270.04" y="210.06" width="6.95" height="1.9" rx=".95" ry=".95"/>
    </g>
    <g>
      <path class="cls-5" d="m360.05,214.15c-.93-2.27-1.86-4.39-2.21-5.2-.38-.84-.67-1.52-.74-1.72-.32-.87-.6-1.18-1.12-1.22-.5.04-.79.34-1.11,1.22-.07.2-.36.87-.73,1.72-.73,1.66-1.56,3.6-2.22,5.2-.28.71-.29,1.21-.03,1.52.19.23.49.34.9.34h6.43c.41,0,.71-.12.9-.34.12-.15.18-.34.18-.58,0-.26-.07-.57-.22-.94Zm-1.67.34h-4.8c.17-.42.49-1.25.87-2.18.56-1.41,1.21-3.07,1.53-3.9.39.98,1.22,3.11,1.83,4.63l.57,1.44Z"/>
      <rect class="cls-5" x="361.21" y="210.06" width="6.95" height="1.9" rx=".95" ry=".95"/>
      <path class="cls-5" d="m347.73,207.74h-3.64c-1.34,0-1.31-1.73,0-1.73,5.4,0,5.35.02,5.67.38.23.27.43.73.15,1.14-1.71,2.48-4.54,6.52-4.54,6.52,0,0,3.43,0,4.33,0,1.35,0,1.4,1.91.13,1.91-8.37,0-9.53,1.13-2.09-8.23Z"/>
    </g>
    <g>
      <path class="cls-5" d="m165.51,214.52c.16.19.21.44.19.68-.03.24-.16.46-.34.61-.4.3-.98.23-1.3-.17l-2.45-3.14-2.45,3.14c-.18.23-.45.36-.72.36-.19,0-.4-.07-.57-.19-.19-.15-.32-.37-.35-.61-.03-.24.03-.49.19-.68l2.73-3.51-2.73-3.51c-.13-.17-.19-.36-.19-.57,0-.28.14-.56.36-.73.19-.15.42-.21.67-.19.24.03.47.16.61.35l2.45,3.14,2.44-3.14c.33-.41.91-.48,1.31-.16.22.17.35.43.35.72,0,.2-.07.4-.19.57l-2.73,3.51,2.73,3.51Z"/>
      <rect class="cls-5" x="177.49" y="210.06" width="6.95" height="1.9" rx=".95" ry=".95"/>
      <path class="cls-5" d="m177.19,216.01h-3.54c-.32,0-.53-.32-.41-.62,2.67-6.29.99-7.71-1.08-7.85-.04,0-.08,0-.12,0h-.02s-.09,0-.13,0c-.04,0-.08,0-.12,0-2.07.14-3.75,1.56-1.08,7.85.12.29-.09.62-.41.62h-3.54c-.14,0-.66-1.27.12-1.73.69-.41.99.09,1.81.11-2.24-4.96.04-7.96,2.78-8.36.08-.02.94-.02,1.02,0,2.74.41,5.02,3.4,2.78,8.36.82-.02,1.12-.51,1.81-.11.78.46.26,1.73.12,1.73Z"/>
    </g>
    <g>
      <path class="cls-5" d="m79.44,206.02c-.46-.06-.96.28-1.19,1.14-.42,1.54-.92,3.7-1.44,5.63-1.11-2.72-1.86-4.39-2.5-4.38-.01,0-.02,0-.03.01-.01-.01-.02-.01-.03-.01-.64-.01-1.39,1.65-2.5,4.38-.51-1.93-1.02-4.09-1.44-5.63-.24-.86-.73-1.2-1.19-1.14-.59.07-.98.49-.74,1.25.25.81,1.84,6.07,2.3,7.72.47,1.65,1.59.9,1.8.49.21-.41,1.36-3.67,1.8-4.59.44.92,1.59,4.18,1.8,4.59.21.41,1.33,1.16,1.8-.49.46-1.64,2.05-6.9,2.3-7.72.24-.76-.15-1.18-.74-1.25Z"/>
      <rect class="cls-5" x="89.68" y="210.06" width="6.95" height="1.9" rx=".95" ry=".95"/>
      <path class="cls-5" d="m84.47,206.01c-1.33,0-3.23,1.68-3.23,5,0,2.56,1.22,5,3.23,5s3.27-2.44,3.27-5c0-3.48-1.94-5-3.27-5Zm.01,1.37c.96,0,1.64,1.13,1.7,1.93.02.3,0,.81-.55.81h-2.33c-.46,0-.51-.5-.5-.76.07-.8.81-1.98,1.69-1.98Zm0,7.26c-1.08,0-1.72-1.28-1.79-2.08-.01-.25,0-.76.5-.76h2.53c.56,0,.58.5.55.81-.06.8-.72,2.03-1.8,2.03Z"/>
    </g>
    <g>
      <path class="cls-5" d="m167.27,586.95c-.93-2.27-1.86-4.39-2.21-5.2-.38-.84-.67-1.52-.74-1.72-.32-.87-.6-1.18-1.12-1.22-.5.04-.79.34-1.11,1.22-.07.2-.36.87-.73,1.72-.73,1.66-1.56,3.6-2.22,5.2-.28.71-.29,1.21-.03,1.52.19.23.49.34.9.34h6.43c.41,0,.71-.12.9-.34.12-.15.18-.34.18-.58,0-.26-.07-.57-.22-.94Zm-1.67.34h-4.8c.17-.42.49-1.25.87-2.18.56-1.41,1.21-3.07,1.53-3.9.39.98,1.22,3.11,1.83,4.63l.57,1.44Z"/>
      <path class="cls-5" d="m175.8,580.06l-4.37,8.3c-.15.29-.45.46-.75.46-.13,0-.26-.04-.39-.1-.2-.11-.35-.28-.42-.5-.07-.21-.05-.45.06-.65l1.88-3.58-2.53-3.62c-.12-.11-.2-.27-.24-.47-.05-.25.03-.53.2-.71.15-.17.35-.27.58-.28.22,0,.45.07.61.21l2.2,3.29,1.65-3.14c.12-.2.29-.35.51-.42.22-.07.45-.04.65.07.22.12.38.33.43.59.03.19,0,.38-.08.55Z"/>
      <rect class="cls-5" x="176.09" y="582.87" width="6.95" height="1.9" rx=".95" ry=".95"/>
    </g>
    <g>
      <path class="cls-5" d="m75.32,583.01c.48.44.43.65.44.96s-.23.47-.53.71c-1.75,1.43-2.78,2.44-2.78,2.44,0,0,.42.05,4.42.05.4,0,.79.33.79.78,0,.48-.22.88-.64.88-2.35,0-4.02-.05-5.97-.05-.79,0-1.34-.19-1.52-.57-.17-.36-.12-.9.55-1.52,1.91-1.72,3.47-2.88,3.47-2.88,0,0-2.17-1.97-3.75-3.56-.33-.33-.43-.62-.31-.85.11-.2.55-.57.92-.57h6.71c.74,0,.77,1.31,0,1.31-3.37,0-5.2.02-5.2.02"/>
      <path class="cls-5" d="m84.64,580.55h-3.64c-1.34,0-1.31-1.73,0-1.73,5.4,0,5.35.02,5.67.38.23.27.43.73.15,1.14-1.71,2.48-4.54,6.52-4.54,6.52,0,0,3.43,0,4.33,0,1.35,0,1.4,1.91.13,1.91-8.37,0-9.53,1.13-2.09-8.23Z"/>
      <rect class="cls-5" x="88.56" y="582.87" width="6.95" height="1.9" rx=".95" ry=".95"/>
    </g>
    <g>
      <path class="cls-5" d="m269.36,587.33c.16.19.21.44.19.68-.03.24-.16.46-.34.61-.4.3-.98.23-1.3-.17l-2.45-3.14-2.45,3.14c-.18.23-.45.36-.72.36-.19,0-.4-.07-.57-.19-.19-.15-.32-.37-.35-.61-.03-.24.03-.49.19-.68l2.73-3.51-2.73-3.51c-.13-.17-.19-.36-.19-.57,0-.28.14-.56.36-.73.19-.15.42-.21.67-.19.24.03.47.16.61.35l2.45,3.14,2.44-3.14c.33-.41.91-.48,1.31-.16.22.17.35.43.35.72,0,.2-.07.4-.19.57l-2.73,3.51,2.73,3.51Z"/>
      <path class="cls-5" d="m255.37,578.82c-1.33,0-3.23,1.68-3.23,5,0,2.56,1.22,5,3.23,5s3.27-2.44,3.27-5c0-3.48-1.94-5-3.27-5Zm.01,1.37c.96,0,1.64,1.13,1.7,1.93.02.3,0,.81-.55.81h-2.33c-.46,0-.51-.5-.5-.76.07-.8.81-1.98,1.69-1.98Zm0,7.26c-1.08,0-1.72-1.28-1.79-2.08-.01-.25,0-.76.5-.76h2.53c.56,0,.58.5.55.81-.06.8-.72,2.03-1.8,2.03Z"/>
      <rect class="cls-5" x="271.31" y="582.87" width="6.95" height="1.9" rx=".95" ry=".95"/>
    </g>
    <g>
      <path class="cls-5" d="m438.26,320.39c.48.44.43.65.44.96s-.23.47-.53.71c-1.75,1.43-2.78,2.44-2.78,2.44,0,0,.42.05,4.42.05.4,0,.79.33.79.78,0,.48-.22.88-.64.88-2.35,0-4.02-.05-5.97-.05-.79,0-1.34-.19-1.52-.57-.17-.36-.12-.9.55-1.52,1.91-1.72,3.47-2.88,3.47-2.88,0,0-2.17-1.97-3.75-3.56-.33-.33-.43-.62-.31-.85.11-.2.55-.57.92-.57h6.71c.74,0,.77,1.31,0,1.31-3.37,0-5.2.02-5.2.02"/>
      <path class="cls-5" d="m449.57,317.44l-4.37,8.3c-.15.29-.45.46-.75.46-.13,0-.26-.04-.39-.1-.2-.11-.35-.28-.42-.5-.07-.21-.05-.45.06-.65l1.88-3.58-2.53-3.62c-.12-.11-.2-.27-.24-.47-.05-.25.03-.53.2-.71.15-.17.35-.27.58-.28.22,0,.45.07.61.21l2.2,3.29,1.65-3.14c.12-.2.29-.35.51-.42.22-.07.45-.04.65.07.22.12.38.33.43.59.03.19,0,.38-.08.55Z"/>
      <rect class="cls-5" x="450.16" y="320.25" width="6.95" height="1.9" rx=".95" ry=".95"/>
    </g>
    <g>
      <path class="cls-5" d="m538.04,317.94c-1.86,0-2.27,0-3.51,0-.46,0-1.11-.2-1.11-.85,0-.57.42-.88,1.07-.88,4.93,0,5.05-.05,5.58.38.28.22.43.73.15,1.14-1.71,2.48-4.64,6.6-4.64,6.6,0,0,2.47-.05,3.73-.05,1.57,0,1.46,1.88.13,1.88-8.37,0-8.83,1.14-1.4-8.22Z"/>
      <path class="cls-5" d="m529.62,324.33c-.93-2.27-1.86-4.39-2.21-5.2-.38-.84-.67-1.52-.74-1.72-.32-.87-.6-1.18-1.12-1.22-.5.04-.79.34-1.11,1.22-.07.2-.36.87-.73,1.72-.73,1.66-1.56,3.6-2.22,5.2-.28.71-.29,1.21-.03,1.52.19.23.49.34.9.34h6.43c.41,0,.71-.12.9-.34.12-.15.18-.34.18-.58,0-.26-.07-.57-.22-.94Zm-1.67.34h-4.8c.17-.42.49-1.25.87-2.18.56-1.41,1.21-3.07,1.53-3.9.39.98,1.22,3.11,1.83,4.63l.57,1.44Z"/>
      <rect class="cls-5" x="542.74" y="320.25" width="6.95" height="1.9" rx=".95" ry=".95"/>
    </g>
  </g>
  <g>
    <g>
      <g>
        <circle class="cls-5" cx="81" cy="193.61" r="2.5"/>
        <circle class="cls-5" cx="111" cy="163.61" r="2.5"/>
        <circle class="cls-5" cx="81" cy="133.61" r="2.5"/>
        <circle class="cls-5" cx="51" cy="163.61" r="2.5"/>
        <circle class="cls-5" cx="81" cy="163.61" r="1.12"/>
      </g>
      <g>
        <circle class="cls-5" cx="171" cy="193.61" r="2.5"/>
        <circle class="cls-5" cx="201" cy="163.61" r="2.5"/>
        <circle class="cls-5" cx="171" cy="133.61" r="2.5"/>
        <circle class="cls-5" cx="141" cy="163.61" r="2.5"/>
        <circle class="cls-5" cx="171" cy="163.61" r="1.12"/>
      </g>
      <g>
        <circle class="cls-5" cx="261" cy="193.61" r="2.5"/>
        <circle class="cls-5" cx="291" cy="163.61" r="2.5"/>
        <circle class="cls-5" cx="261" cy="133.61" r="2.5"/>
        <circle class="cls-5" cx="231" cy="163.61" r="2.5"/>
        <circle class="cls-5" cx="261" cy="163.61" r="1.12"/>
      </g>
      <g>
        <circle class="cls-5" cx="351" cy="193.61" r="2.5"/>
        <circle class="cls-5" cx="381" cy="163.61" r="2.5"/>
        <circle class="cls-5" cx="351" cy="133.61" r="2.5"/>
        <circle class="cls-5" cx="321" cy="163.61" r="2.5"/>
        <circle class="cls-5" cx="351" cy="163.61" r="1.12"/>
      </g>
      <g>
        <circle class="cls-5" cx="441" cy="193.61" r="2.5"/>
        <circle class="cls-5" cx="471" cy="163.61" r="2.5"/>
        <circle class="cls-5" cx="441" cy="133.61" r="2.5"/>
        <circle class="cls-5" cx="411" cy="163.61" r="2.5"/>
        <circle class="cls-5" cx="441" cy="163.61" r="1.12"/>
      </g>
      <g>
        <circle class="cls-5" cx="531" cy="193.61" r="2.5"/>
        <circle class="cls-5" cx="561" cy="163.61" r="2.5"/>
        <circle class="cls-5" cx="531" cy="133.61" r="2.5"/>
        <circle class="cls-5" cx="501" cy="163.61" r="2.5"/>
        <circle class="cls-5" cx="531" cy="163.61" r="1.12"/>
      </g>
      <g>
        <circle class="cls-5" cx="621" cy="193.61" r="2.5"/>
        <circle class="cls-5" cx="651" cy="163.61" r="2.5"/>
        <circle class="cls-5" cx="621" cy="133.61" r="2.5"/>
        <circle class="cls-5" cx="591" cy="163.61" r="2.5"/>
        <circle class="cls-5" cx="621" cy="163.61" r="1.12"/>
      </g>
      <g>
        <circle class="cls-5" cx="711" cy="193.61" r="2.5"/>
        <circle class="cls-5" cx="741" cy="163.61" r="2.5"/>
        <circle class="cls-5" cx="711" cy="133.61" r="2.5"/>
        <circle class="cls-5" cx="681" cy="163.61" r="2.5"/>
        <circle class="cls-5" cx="711" cy="163.61" r="1.12"/>
      </g>
    </g>
    <g>
      <g>
        <circle class="cls-5" cx="81" cy="303.61" r="2.5"/>
        <circle class="cls-5" cx="111" cy="273.61" r="2.5"/>
        <circle class="cls-5" cx="81" cy="243.61" r="2.5"/>
        <circle class="cls-5" cx="51" cy="273.61" r="2.5"/>
        <circle class="cls-5" cx="81" cy="273.61" r="1.12"/>
      </g>
      <g>
        <circle class="cls-5" cx="171" cy="303.61" r="2.5"/>
        <circle class="cls-5" cx="201" cy="273.61" r="2.5"/>
        <circle class="cls-5" cx="171" cy="243.61" r="2.5"/>
        <circle class="cls-5" cx="141" cy="273.61" r="2.5"/>
        <circle class="cls-5" cx="171" cy="273.61" r="1.12"/>
      </g>
      <g>
        <circle class="cls-5" cx="261" cy="303.61" r="2.5"/>
        <circle class="cls-5" cx="291" cy="273.61" r="2.5"/>
        <circle class="cls-5" cx="261" cy="243.61" r="2.5"/>
        <circle class="cls-5" cx="231" cy="273.61" r="2.5"/>
        <circle class="cls-5" cx="261" cy="273.61" r="1.12"/>
      </g>
      <g>
        <circle class="cls-5" cx="351" cy="303.61" r="2.5"/>
        <circle class="cls-5" cx="381" cy="273.61" r="2.5"/>
        <circle class="cls-5" cx="351" cy="243.61" r="2.5"/>
        <circle class="cls-5" cx="321" cy="273.61" r="2.5"/>
        <circle class="cls-5" cx="351" cy="273.61" r="1.12"/>
      </g>
      <g>
        <circle class="cls-5" cx="441" cy="303.61" r="2.5"/>
        <circle class="cls-5" cx="471" cy="273.61" r="2.5"/>
        <circle class="cls-5" cx="441" cy="243.61" r="2.5"/>
        <circle class="cls-5" cx="411" cy="273.61" r="2.5"/>
        <circle class="cls-5" cx="441" cy="273.61" r="1.12"/>
      </g>
      <g>
        <circle class="cls-5" cx="531" cy="303.61" r="2.5"/>
        <circle class="cls-5" cx="561" cy="273.61" r="2.5"/>
        <circle class="cls-5" cx="531" cy="243.61" r="2.5"/>
        <circle class="cls-5" cx="501" cy="273.61" r="2.5"/>
        <circle class="cls-5" cx="531" cy="273.61" r="1.12"/>
      </g>
      <g>
        <circle class="cls-5" cx="621" cy="303.61" r="2.5"/>
        <circle class="cls-5" cx="651" cy="273.61" r="2.5"/>
        <circle class="cls-5" cx="621" cy="243.61" r="2.5"/>
        <circle class="cls-5" cx="591" cy="273.61" r="2.5"/>
        <circle class="cls-5" cx="621" cy="273.61" r="1.12"/>
      </g>
      <g>
        <circle class="cls-5" cx="711" cy="303.61" r="2.5"/>
        <circle class="cls-5" cx="741" cy="273.61" r="2.5"/>
        <circle class="cls-5" cx="711" cy="243.61" r="2.5"/>
        <circle class="cls-5" cx="681" cy="273.61" r="2.5"/>
        <circle class="cls-5" cx="711" cy="273.61" r="1.12"/>
      </g>
    </g>
    <g>
      <g>
        <circle class="cls-5" cx="81" cy="458.61" r="2.5"/>
        <circle class="cls-5" cx="111" cy="428.61" r="2.5"/>
        <circle class="cls-5" cx="81" cy="398.61" r="2.5"/>
        <circle class="cls-5" cx="51" cy="428.61" r="2.5"/>
        <circle class="cls-5" cx="81" cy="428.61" r="1.12"/>
      </g>
      <g>
        <circle class="cls-5" cx="171" cy="458.61" r="2.5"/>
        <circle class="cls-5" cx="201" cy="428.61" r="2.5"/>
        <circle class="cls-5" cx="171" cy="398.61" r="2.5"/>
        <circle class="cls-5" cx="141" cy="428.61" r="2.5"/>
        <circle class="cls-5" cx="171" cy="428.61" r="1.12"/>
      </g>
      <g>
        <circle class="cls-5" cx="261" cy="458.61" r="2.5"/>
        <circle class="cls-5" cx="291" cy="428.61" r="2.5"/>
        <circle class="cls-5" cx="261" cy="398.61" r="2.5"/>
        <circle class="cls-5" cx="231" cy="428.61" r="2.5"/>
        <circle class="cls-5" cx="261" cy="428.61" r="1.12"/>
      </g>
      <g>
        <circle class="cls-5" cx="351" cy="458.61" r="2.5"/>
        <circle class="cls-5" cx="381" cy="428.61" r="2.5"/>
        <circle class="cls-5" cx="351" cy="398.61" r="2.5"/>
        <circle class="cls-5" cx="321" cy="428.61" r="2.5"/>
        <circle class="cls-5" cx="351" cy="428.61" r="1.12"/>
      </g>
      <g>
        <circle class="cls-5" cx="441" cy="458.61" r="2.5"/>
        <circle class="cls-5" cx="471" cy="428.61" r="2.5"/>
        <circle class="cls-5" cx="441" cy="398.61" r="2.5"/>
        <circle class="cls-5" cx="411" cy="428.61" r="2.5"/>
        <circle class="cls-5" cx="441" cy="428.61" r="1.12"/>
      </g>
      <g>
        <circle class="cls-5" cx="531" cy="458.61" r="2.5"/>
        <circle class="cls-5" cx="561" cy="428.61" r="2.5"/>
        <circle class="cls-5" cx="531" cy="398.61" r="2.5"/>
        <circle class="cls-5" cx="501" cy="428.61" r="2.5"/>
        <circle class="cls-5" cx="531" cy="428.61" r="1.12"/>
      </g>
      <g>
        <circle class="cls-5" cx="621" cy="458.61" r="2.5"/>
        <circle class="cls-5" cx="651" cy="428.61" r="2.5"/>
        <circle class="cls-5" cx="621" cy="398.61" r="2.5"/>
        <circle class="cls-5" cx="591" cy="428.61" r="2.5"/>
        <circle class="cls-5" cx="621" cy="428.61" r="1.12"/>
      </g>
      <g>
        <circle class="cls-5" cx="711" cy="458.61" r="2.5"/>
        <circle class="cls-5" cx="741" cy="428.61" r="2.5"/>
        <circle class="cls-5" cx="711" cy="398.61" r="2.5"/>
        <circle class="cls-5" cx="681" cy="428.61" r="2.5"/>
        <circle class="cls-5" cx="711" cy="428.61" r="1.12"/>
      </g>
    </g>
    <g>
      <g>
        <circle class="cls-5" cx="81" cy="568.61" r="2.5"/>
        <circle class="cls-5" cx="111" cy="538.61" r="2.5"/>
        <circle class="cls-5" cx="81" cy="508.61" r="2.5"/>
        <circle class="cls-5" cx="51" cy="538.61" r="2.5"/>
        <circle class="cls-5" cx="81" cy="538.61" r="1.12"/>
      </g>
      <g>
        <circle class="cls-5" cx="171" cy="568.61" r="2.5"/>
        <circle class="cls-5" cx="201" cy="538.61" r="2.5"/>
        <circle class="cls-5" cx="171" cy="508.61" r="2.5"/>
        <circle class="cls-5" cx="141" cy="538.61" r="2.5"/>
        <circle class="cls-5" cx="171" cy="538.61" r="1.12"/>
      </g>
      <g>
        <circle class="cls-5" cx="261" cy="568.61" r="2.5"/>
        <circle class="cls-5" cx="291" cy="538.61" r="2.5"/>
        <circle class="cls-5" cx="261" cy="508.61" r="2.5"/>
        <circle class="cls-5" cx="231" cy="538.61" r="2.5"/>
        <circle class="cls-5" cx="261" cy="538.61" r="1.12"/>
      </g>
      <g>
        <circle class="cls-5" cx="351" cy="568.61" r="2.5"/>
        <circle class="cls-5" cx="381" cy="538.61" r="2.5"/>
        <circle class="cls-5" cx="351" cy="508.61" r="2.5"/>
        <circle class="cls-5" cx="321" cy="538.61" r="2.5"/>
        <circle class="cls-5" cx="351" cy="538.61" r="1.12"/>
      </g>
      <g>
        <circle class="cls-5" cx="441" cy="568.61" r="2.5"/>
        <circle class="cls-5" cx="471" cy="538.61" r="2.5"/>
        <circle class="cls-5" cx="441" cy="508.61" r="2.5"/>
        <circle class="cls-5" cx="411" cy="538.61" r="2.5"/>
        <circle class="cls-5" cx="441" cy="538.61" r="1.12"/>
      </g>
      <g>
        <circle class="cls-5" cx="531" cy="568.61" r="2.5"/>
        <circle class="cls-5" cx="561" cy="538.61" r="2.5"/>
        <circle class="cls-5" cx="531" cy="508.61" r="2.5"/>
        <circle class="cls-5" cx="501" cy="538.61" r="2.5"/>
        <circle class="cls-5" cx="531" cy="538.61" r="1.12"/>
      </g>
      <g>
        <circle class="cls-5" cx="621" cy="568.61" r="2.5"/>
        <circle class="cls-5" cx="651" cy="538.61" r="2.5"/>
        <circle class="cls-5" cx="621" cy="508.61" r="2.5"/>
        <circle class="cls-5" cx="591" cy="538.61" r="2.5"/>
        <circle class="cls-5" cx="621" cy="538.61" r="1.12"/>
      </g>
      <g>
        <circle class="cls-5" cx="711" cy="568.61" r="2.5"/>
        <circle class="cls-5" cx="741" cy="538.61" r="2.5"/>
        <circle class="cls-5" cx="711" cy="508.61" r="2.5"/>
        <circle class="cls-5" cx="681" cy="538.61" r="2.5"/>
        <circle class="cls-5" cx="711" cy="538.61" r="1.12"/>
      </g>
    </g>
  </g>
  <g>
    <line class="cls-10" x1="48.5" y1="230.92" x2="743.5" y2="230.92"/>
    <line class="cls-10" x1="48.5" y1="491.59" x2="743.5" y2="491.59"/>
  </g>
  <line class="cls-10" x1="396" y1="131.11" x2="396.81" y2="595.67"/>
  <g>
    <rect class="cls-9" x="68.5" y="176.61" width="25" height="2.5" rx=".99" ry=".99" transform="translate(-96.86 258.86) rotate(-90)"/>
    <rect class="cls-6" x="82.75" y="162.36" width="25" height="2.5" rx=".99" ry=".99" transform="translate(190.5 327.22) rotate(-180)"/>
    <rect class="cls-9" x="158.5" y="176.61" width="25" height="2.5" rx=".99" ry=".99" transform="translate(-6.86 348.86) rotate(-90)"/>
    <rect class="cls-6" x="172.75" y="162.36" width="25" height="2.5" rx=".99" ry=".99" transform="translate(370.5 327.22) rotate(-180)"/>
    <rect class="cls-9" x="248.5" y="148.11" width="25" height="2.5" rx=".99" ry=".99" transform="translate(410.36 -111.64) rotate(90)"/>
    <rect class="cls-6" x="234.25" y="162.36" width="25" height="2.5" rx=".99" ry=".99"/>
    <rect class="cls-9" x="338.5" y="148.11" width="25" height="2.5" rx=".99" ry=".99" transform="translate(500.36 -201.64) rotate(90)"/>
    <rect class="cls-6" x="324.25" y="162.36" width="25" height="2.5" rx=".99" ry=".99"/>
    <rect class="cls-9" x="428.5" y="176.61" width="25" height="2.5" rx=".99" ry=".99" transform="translate(263.14 618.86) rotate(-90)"/>
    <rect class="cls-6" x="414.25" y="162.36" width="25" height="2.5" rx=".99" ry=".99"/>
    <rect class="cls-9" x="518.5" y="176.61" width="25" height="2.5" rx=".99" ry=".99" transform="translate(353.14 708.86) rotate(-90)"/>
    <rect class="cls-6" x="504.25" y="162.36" width="25" height="2.5" rx=".99" ry=".99"/>
    <rect class="cls-9" x="608.5" y="148.11" width="25" height="2.5" rx=".99" ry=".99" transform="translate(770.36 -471.64) rotate(90)"/>
    <rect class="cls-6" x="622.75" y="162.36" width="25" height="2.5" rx=".99" ry=".99" transform="translate(1270.5 327.22) rotate(-180)"/>
    <rect class="cls-6" x="712.75" y="162.36" width="25" height="2.5" rx=".99" ry=".99" transform="translate(1450.5 327.22) rotate(-180)"/>
    <rect class="cls-9" x="698.5" y="148.11" width="25" height="2.5" rx=".99" ry=".99" transform="translate(860.36 -561.64) rotate(90)"/>
    <rect class="cls-9" x="68.5" y="286.61" width="25" height="2.5" rx=".99" ry=".99" transform="translate(-206.86 368.86) rotate(-90)"/>
    <rect class="cls-6" x="68.5" y="258.11" width="25" height="2.5" rx=".99" ry=".99" transform="translate(340.36 178.36) rotate(90)"/>
    <rect class="cls-9" x="158.5" y="286.61" width="25" height="2.5" rx=".99" ry=".99" transform="translate(-116.86 458.86) rotate(-90)"/>
    <rect class="cls-6" x="158.5" y="258.11" width="25" height="2.5" rx=".99" ry=".99" transform="translate(430.36 88.36) rotate(90)"/>
    <rect class="cls-9" x="68.5" y="441.61" width="25" height="2.5" rx=".99" ry=".99" transform="translate(-361.86 523.86) rotate(-90)"/>
    <rect class="cls-6" x="54.25" y="427.36" width="25" height="2.5" rx=".99" ry=".99"/>
    <rect class="cls-9" x="158.5" y="441.61" width="25" height="2.5" rx=".99" ry=".99" transform="translate(-271.86 613.86) rotate(-90)"/>
    <rect class="cls-6" x="144.25" y="427.36" width="25" height="2.5" rx=".99" ry=".99"/>
    <rect class="cls-9" x="248.5" y="413.11" width="25" height="2.5" rx=".99" ry=".99" transform="translate(675.36 153.36) rotate(90)"/>
    <rect class="cls-6" x="262.75" y="427.36" width="25" height="2.5" rx=".99" ry=".99" transform="translate(550.5 857.22) rotate(-180)"/>
    <rect class="cls-9" x="262.75" y="537.36" width="25" height="2.5" rx=".99" ry=".99" transform="translate(550.5 1077.22) rotate(-180)"/>
    <rect class="cls-6" x="234.25" y="537.36" width="25" height="2.5" rx=".99" ry=".99"/>
    <rect class="cls-9" x="352.75" y="537.36" width="25" height="2.5" rx=".99" ry=".99" transform="translate(730.5 1077.22) rotate(-180)"/>
    <rect class="cls-6" x="324.25" y="537.36" width="25" height="2.5" rx=".99" ry=".99"/>
    <rect class="cls-9" x="428.5" y="551.61" width="25" height="2.5" rx=".99" ry=".99" transform="translate(-111.86 993.86) rotate(-90)"/>
    <rect class="cls-6" x="428.5" y="523.11" width="25" height="2.5" rx=".99" ry=".99" transform="translate(965.36 83.36) rotate(90)"/>
    <rect class="cls-9" x="518.5" y="551.61" width="25" height="2.5" rx=".99" ry=".99" transform="translate(-21.86 1083.86) rotate(-90)"/>
    <rect class="cls-6" x="518.5" y="523.11" width="25" height="2.5" rx=".99" ry=".99" transform="translate(1055.36 -6.64) rotate(90)"/>
    <rect class="cls-9" x="338.5" y="413.11" width="25" height="2.5" rx=".99" ry=".99" transform="translate(765.36 63.36) rotate(90)"/>
    <rect class="cls-6" x="352.75" y="427.36" width="25" height="2.5" rx=".99" ry=".99" transform="translate(730.5 857.22) rotate(-180)"/>
    <rect class="cls-9" x="428.5" y="441.61" width="25" height="2.5" rx=".99" ry=".99" transform="translate(-1.86 883.86) rotate(-90)"/>
    <rect class="cls-6" x="442.75" y="427.36" width="25" height="2.5" rx=".99" ry=".99" transform="translate(910.5 857.22) rotate(180)"/>
    <rect class="cls-9" x="518.5" y="441.61" width="25" height="2.5" rx=".99" ry=".99" transform="translate(88.14 973.86) rotate(-90)"/>
    <rect class="cls-6" x="532.75" y="427.36" width="25" height="2.5" rx=".99" ry=".99" transform="translate(1090.5 857.22) rotate(180)"/>
    <rect class="cls-9" x="608.5" y="413.11" width="25" height="2.5" rx=".99" ry=".99" transform="translate(1035.36 -206.64) rotate(90)"/>
    <rect class="cls-6" x="594.25" y="427.36" width="25" height="2.5" rx=".99" ry=".99"/>
    <rect class="cls-9" x="698.5" y="413.11" width="25" height="2.5" rx=".99" ry=".99" transform="translate(1125.36 -296.64) rotate(90)"/>
    <rect class="cls-6" x="684.25" y="427.36" width="25" height="2.5" rx=".99" ry=".99"/>
    <rect class="cls-9" x="340.52" y="258.13" width="25" height="2.5" rx=".99" ry=".99" transform="translate(612.41 -93.64) rotate(90)"/>
    <rect class="cls-6" x="336.52" y="258.13" width="25" height="2.5" rx=".99" ry=".99" transform="translate(608.41 -89.64) rotate(90)"/>
    <rect class="cls-9" x="250.52" y="258.13" width="25" height="2.5" rx=".99" ry=".99" transform="translate(522.41 -3.64) rotate(90)"/>
    <rect class="cls-6" x="246.52" y="258.13" width="25" height="2.5" rx=".99" ry=".99" transform="translate(518.41 .36) rotate(90)"/>
    <rect class="cls-9" x="54.27" y="539.38" width="25" height="2.5" rx=".99" ry=".99"/>
    <rect class="cls-6" x="54.27" y="535.38" width="25" height="2.5" rx=".99" ry=".99"/>
    <rect class="cls-9" x="144.27" y="539.38" width="25" height="2.5" rx=".99" ry=".99"/>
    <rect class="cls-6" x="144.27" y="535.38" width="25" height="2.5" rx=".99" ry=".99"/>
    <rect class="cls-9" x="610.52" y="523.13" width="25" height="2.5" rx=".99" ry=".99" transform="translate(1147.41 -98.64) rotate(90)"/>
    <rect class="cls-6" x="606.52" y="523.13" width="25" height="2.5" rx=".99" ry=".99" transform="translate(1143.41 -94.64) rotate(90)"/>
    <rect class="cls-9" x="700.52" y="523.13" width="25" height="2.5" rx=".99" ry=".99" transform="translate(1237.41 -188.64) rotate(90)"/>
    <rect class="cls-6" x="696.52" y="523.13" width="25" height="2.5" rx=".99" ry=".99" transform="translate(1233.41 -184.64) rotate(90)"/>
    <rect class="cls-9" x="414.27" y="274.38" width="25" height="2.5" rx=".99" ry=".99"/>
    <rect class="cls-6" x="414.27" y="270.38" width="25" height="2.5" rx=".99" ry=".99"/>
    <rect class="cls-9" x="504.27" y="274.38" width="25" height="2.5" rx=".99" ry=".99"/>
    <rect class="cls-6" x="504.27" y="270.38" width="25" height="2.5" rx=".99" ry=".99"/>
    <rect class="cls-9" x="622.75" y="272.36" width="25" height="2.5" rx=".99" ry=".99" transform="translate(1270.5 547.22) rotate(180)"/>
    <rect class="cls-6" x="594.25" y="272.36" width="25" height="2.5" rx=".99" ry=".99"/>
    <rect class="cls-9" x="712.75" y="272.36" width="25" height="2.5" rx=".99" ry=".99" transform="translate(1450.5 547.22) rotate(180)"/>
    <rect class="cls-6" x="684.25" y="272.36" width="25" height="2.5" rx=".99" ry=".99"/>
  </g>
</svg>