<?xml version="1.0" encoding="UTF-8"?>
<svg id="Layer_1" data-name="Layer 1" xmlns="http://www.w3.org/2000/svg" viewBox="0 0 792 612">
  <defs>
    <style>
      .cls-1 {
        font-family: MonotypeCorsiva, 'Monotype Corsiva';
        font-size: 40px;
      }

      .cls-1, .cls-2, .cls-3, .cls-4 {
        fill: #231f20;
      }

      .cls-5 {
        letter-spacing: 0em;
      }

      .cls-5, .cls-6 {
        fill: #00a14b;
      }

      .cls-7 {
        fill: #2e3192;
      }

      .cls-8, .cls-4 {
        font-family: Cambria-BoldItalic, Cambria;
        font-size: 30px;
        font-style: italic;
        font-weight: 700;
      }

      .cls-2 {
        letter-spacing: -.03em;
      }

      .cls-9 {
        fill: #7f3f98;
      }

      .cls-10 {
        fill: #ed1c24;
      }

      .cls-11 {
        fill: none;
        stroke: #231f20;
        stroke-miterlimit: 10;
        stroke-width: .5px;
      }
    </style>
  </defs>
  <text transform="translate(318.44 58.59)"><tspan class="cls-1"><tspan x="0" y="0" xml:space="preserve">Staggered  </tspan></tspan><tspan class="cls-4"><tspan x="4.92" y="36">Type 2 → 3</tspan></tspan><tspan class="cls-8"><tspan class="cls-9" x="-44.65" y="72">Shift </tspan><tspan class="cls-3" x="23.96" y="72">→ </tspan><tspan class="cls-5" x="55.71" y="72">Cr</tspan><tspan class="cls-6" x="85.36" y="72">oss</tspan><tspan class="cls-2" x="128.1" y="72">-</tspan><tspan class="cls-9" x="136.98" y="72">Shift</tspan></tspan></text>
  <g>
    <path class="cls-3" d="m289.18,201.89c3.22,0,3.22-5,0-5s-3.22,5,0,5h0Z"/>
    <path class="cls-3" d="m258.78,171.49c3.22,0,3.22-5,0-5s-3.22,5,0,5h0Z"/>
    <path class="cls-3" d="m228.37,201.89c3.22,0,3.22-5,0-5s-3.22,5,0,5h0Z"/>
    <path class="cls-3" d="m258.78,232.29c3.22,0,3.22-5,0-5s-3.22,5,0,5h0Z"/>
    <path class="cls-3" d="m258.78,200.51c1.45,0,1.45-2.25,0-2.25s-1.45,2.25,0,2.25h0Z"/>
  </g>
  <g>
    <path class="cls-7" d="m521.57,393.13s-3.23,2.77-4.09,3.95c-.59.82.5,1.87.5,1.87l2.61-2.57v36.55c-.61-8.97-7.4-9.68-20.59-9.68-1.45,0-1.43,2.08.03,2.07,18.08-.15,19.28,1.12,19.28,18.08,0,.16.01.3.04.44h-2.72c-.65,0-1.16.4-1.16.91,0,.5.51.91,1.16.91h8.49c.65,0,1.16-.41,1.16-.91,0-.51-.51-.91-1.16-.91h-2.65c.03-.13.04-.27.04-.42,0-1.6,0-47.04,0-47.04l2.65,2.57s1.08-1.05.47-1.87c-.68-.94-4.06-3.95-4.06-3.95Z"/>
    <path class="cls-7" d="m610.2,443.73s-3.23-2.77-4.09-3.95c-.59-.82.5-1.87.5-1.87l2.61,2.57v-36.55c-.61,8.97-7.4,9.68-20.59,9.68-1.45,0-1.43-2.08.03-2.07,18.08.15,19.28-1.12,19.28-18.08,0-.16.01-.3.04-.44h-2.72c-.65,0-1.16-.4-1.16-.91s.51-.91,1.16-.91h8.49c.65,0,1.16.41,1.16.91,0,.51-.51.91-1.16.91h-2.65c.03.13.04.27.04.42,0,1.6,0,47.04,0,47.04l2.65-2.57s1.08,1.05.47,1.87c-.68.94-4.06,3.95-4.06,3.95Z"/>
    <path class="cls-7" d="m700.36,443.73s-3.23-2.77-4.09-3.95c-.59-.82.5-1.87.5-1.87l2.61,2.57v-36.55c-.61,8.97-7.4,9.68-20.59,9.68-1.45,0-1.43-2.08.03-2.07,18.08.15,19.28-1.12,19.28-18.08,0-.16.01-.3.04-.44h-2.72c-.65,0-1.16-.4-1.16-.91s.51-.91,1.16-.91h8.49c.65,0,1.16.41,1.16.91s-.51.91-1.16.91h-2.65c.03.13.04.27.04.42,0,1.6,0,47.04,0,47.04l2.65-2.57s1.08,1.05.47,1.87c-.68.94-4.06,3.95-4.06,3.95Z"/>
    <path class="cls-7" d="m463.97,192.33s-2.77-3.23-3.95-4.09c-.82-.59-1.87.5-1.87.5l2.57,2.61h-36.55c8.97-.61,9.68-7.4,9.68-20.59,0-1.45-2.08-1.43-2.07.03.15,18.08-1.12,19.28-18.08,19.28-.16,0-.3.01-.44.04v-2.72c0-.65-.4-1.16-.91-1.16-.5,0-.91.51-.91,1.16v8.49c0,.65.41,1.16.91,1.16s.91-.51.91-1.16v-2.65c.13.03.27.04.42.04h47.04l-2.57,2.65s1.05,1.08,1.87.47c.94-.68,3.95-4.06,3.95-4.06Z"/>
    <path class="cls-7" d="m553.97,192.33s-2.77-3.23-3.95-4.09c-.82-.59-1.87.5-1.87.5l2.57,2.61h-36.55c8.97-.61,9.68-7.4,9.68-20.59,0-1.45-2.08-1.43-2.07.03.15,18.08-1.12,19.28-18.08,19.28-.16,0-.3.01-.44.04v-2.72c0-.65-.4-1.16-.91-1.16-.5,0-.91.51-.91,1.16v8.49c0,.65.41,1.16.91,1.16s.91-.51.91-1.16v-2.65c.13.03.27.04.42.04h47.04l-2.57,2.65s1.05,1.08,1.87.47c.94-.68,3.95-4.06,3.95-4.06Z"/>
    <path class="cls-7" d="m643.97,192.33s-2.77-3.23-3.95-4.09c-.82-.59-1.87.5-1.87.5l2.57,2.61h-36.55c8.97-.61,9.68-7.4,9.68-20.59,0-1.45-2.08-1.43-2.07.03.15,18.08-1.12,19.28-18.08,19.28-.16,0-.3.01-.44.04v-2.72c0-.65-.4-1.16-.91-1.16-.5,0-.91.51-.91,1.16v8.49c0,.65.41,1.16.91,1.16s.91-.51.91-1.16v-2.65c.13.03.27.04.42.04h47.04l-2.57,2.65s1.05,1.08,1.87.47c.94-.68,3.95-4.06,3.95-4.06Z"/>
    <path class="cls-7" d="m733.97,192.33s-2.77-3.23-3.95-4.09c-.82-.59-1.87.5-1.87.5l2.57,2.61h-36.55c8.97-.61,9.68-7.4,9.68-20.59,0-1.45-2.08-1.43-2.07.03.15,18.08-1.12,19.28-18.08,19.28-.16,0-.3.01-.44.04v-2.72c0-.65-.4-1.16-.91-1.16-.5,0-.91.51-.91,1.16v8.49c0,.65.41,1.16.91,1.16s.91-.51.91-1.16v-2.65c.13.03.27.04.42.04h47.04l-2.57,2.65s1.05,1.08,1.87.47c.94-.68,3.95-4.06,3.95-4.06Z"/>
    <path class="cls-7" d="m716.53,283.65s3.23,2.77,4.09,3.95c.59.82-.5,1.87-.5,1.87l-2.61-2.57v36.55c.61-8.97,7.4-9.68,20.59-9.68,1.45,0,1.43,2.08-.03,2.07-18.08-.15-19.28,1.12-19.28,18.08,0,.16-.01.3-.04.44h2.72c.65,0,1.16.4,1.16.91s-.51.91-1.16.91h-8.49c-.65,0-1.16-.41-1.16-.91,0-.51.51-.91,1.16-.91h2.65c-.03-.13-.04-.27-.04-.42,0-1.6,0-47.04,0-47.04l-2.65,2.57s-1.08-1.05-.47-1.87c.68-.94,4.06-3.95,4.06-3.95Z"/>
    <path class="cls-7" d="m625.66,283.16s3.23,2.77,4.09,3.95c.59.82-.5,1.87-.5,1.87l-2.61-2.57v36.55c.61-8.97,7.4-9.68,20.59-9.68,1.45,0,1.43,2.08-.03,2.07-18.08-.15-19.28,1.12-19.28,18.08,0,.16-.01.3-.04.44h2.72c.65,0,1.16.4,1.16.91,0,.5-.51.91-1.16.91h-8.49c-.65,0-1.16-.41-1.16-.91,0-.51.51-.91,1.16-.91h2.65c-.03-.13-.04-.27-.04-.42,0-1.6,0-47.04,0-47.04l-2.65,2.57s-1.08-1.05-.47-1.87c.68-.94,4.06-3.95,4.06-3.95Z"/>
    <path class="cls-7" d="m446.53,284.53s3.23,2.77,4.09,3.95c.59.82-.5,1.87-.5,1.87l-2.61-2.57v36.55c.61-8.97,7.4-9.68,20.59-9.68,1.45,0,1.43,2.08-.03,2.07-18.08-.15-19.28,1.12-19.28,18.08,0,.16-.01.3-.04.44h2.72c.65,0,1.16.4,1.16.91,0,.5-.51.91-1.16.91h-8.49c-.65,0-1.16-.41-1.16-.91,0-.51.51-.91,1.16-.91h2.65c-.03-.13-.04-.27-.04-.42,0-1.6,0-47.04,0-47.04l-2.65,2.57s-1.08-1.05-.47-1.87c.68-.94,4.06-3.95,4.06-3.95Z"/>
    <path class="cls-7" d="m536.21,284.53s3.23,2.77,4.09,3.95c.59.82-.5,1.87-.5,1.87l-2.61-2.57v36.55c.61-8.97,7.4-9.68,20.59-9.68,1.45,0,1.43,2.08-.03,2.07-18.08-.15-19.28,1.12-19.28,18.08,0,.16-.01.3-.04.44h2.72c.65,0,1.16.4,1.16.91s-.51.91-1.16.91h-8.49c-.65,0-1.16-.41-1.16-.91,0-.51.51-.91,1.16-.91h2.65c-.03-.13-.04-.27-.04-.42,0-1.6,0-47.04,0-47.04l-2.65,2.57s-1.08-1.05-.47-1.87c.68-.94,4.06-3.95,4.06-3.95Z"/>
    <path class="cls-7" d="m160.55,177.97s3.38,3.01,4.06,3.95c.61.82-.47,1.87-.47,1.87l-2.65-2.65v43.56s3.2.04,3.2.04c1.48,0,1.48,1.91,0,1.91,0,0-6.02-.01-6.58-.05-11.04-.54-20.05-6.13-20.05-21.65,0-1.66,1.74-1.53,1.74.08,0,16.59,11.05,19.67,19.75,19.67.06,0,.02-43.56.02-43.56l-2.61,2.65s-1.09-1.05-.5-1.87c.86-1.18,4.09-3.95,4.09-3.95Z"/>
    <path class="cls-7" d="m69.93,177.97s3.38,3.01,4.06,3.95c.61.82-.47,1.87-.47,1.87l-2.65-2.65v43.56s3.2.04,3.2.04c1.48,0,1.48,1.91,0,1.91,0,0-6.02-.01-6.58-.05-11.04-.54-20.05-6.13-20.05-21.65,0-1.66,1.74-1.53,1.74.08,0,16.59,11.05,19.67,19.75,19.67.06,0,.02-43.56.02-43.56l-2.61,2.65s-1.09-1.05-.5-1.87c.86-1.18,4.09-3.95,4.09-3.95Z"/>
    <path class="cls-7" d="m251.61,177.97s3.38,3.01,4.06,3.95c.61.82-.47,1.87-.47,1.87l-2.65-2.65v43.56s3.2.04,3.2.04c1.48,0,1.48,1.91,0,1.91,0,0-6.02-.01-6.58-.05-11.04-.54-20.05-6.13-20.05-21.65,0-1.66,1.74-1.53,1.74.08,0,16.59,11.05,19.67,19.75,19.67.06,0,.02-43.56.02-43.56l-2.61,2.65s-1.09-1.05-.5-1.87c.86-1.18,4.09-3.95,4.09-3.95Z"/>
    <path class="cls-7" d="m342.43,177.97s3.38,3.01,4.06,3.95c.61.82-.47,1.87-.47,1.87l-2.65-2.65v43.56s3.2.04,3.2.04c1.48,0,1.48,1.91,0,1.91,0,0-6.02-.01-6.58-.05-11.04-.54-20.05-6.13-20.05-21.65,0-1.66,1.74-1.53,1.74.08,0,16.59,11.05,19.67,19.75,19.67.06,0,.02-43.56.02-43.56l-2.61,2.65s-1.09-1.05-.5-1.87c.86-1.18,4.09-3.95,4.09-3.95Z"/>
    <path class="cls-7" d="m522.6,554.36s-3.23-2.77-4.09-3.95c-.59-.82.5-1.87.5-1.87l2.61,2.57v-36.55c-.61,8.97-7.4,9.68-20.59,9.68-1.45,0-1.43-2.08.03-2.07,18.08.15,19.28-1.12,19.28-18.08,0-.16.01-.3.04-.44h-2.72c-.65,0-1.16-.4-1.16-.91s.51-.91,1.16-.91h8.49c.65,0,1.16.41,1.16.91s-.51.91-1.16.91h-2.65c.03.13.04.27.04.42,0,1.6,0,47.04,0,47.04l2.65-2.57s1.08,1.05.47,1.87c-.68.94-4.06,3.95-4.06,3.95Z"/>
    <path class="cls-7" d="m734.62,537.15s-2.77,3.23-3.95,4.09c-.82.59-1.87-.5-1.87-.5l2.57-2.61h-36.55c8.97.61,9.68,7.4,9.68,20.59,0,1.45-2.08,1.43-2.07-.03.15-18.08-1.12-19.28-18.08-19.28-.16,0-.3-.01-.44-.04v2.72c0,.65-.4,1.16-.91,1.16-.5,0-.91-.51-.91-1.16v-8.49c0-.65.41-1.16.91-1.16s.91.51.91,1.16v2.65c.13-.03.27-.04.42-.04h47.04l-2.57-2.65s1.05-1.08,1.87-.47c.94.68,3.95,4.06,3.95,4.06Z"/>
    <path class="cls-7" d="m644.62,537.15s-2.77,3.23-3.95,4.09c-.82.59-1.87-.5-1.87-.5l2.57-2.61h-36.55c8.97.61,9.68,7.4,9.68,20.59,0,1.45-2.08,1.43-2.07-.03.15-18.08-1.12-19.28-18.08-19.28-.16,0-.3-.01-.44-.04v2.72c0,.65-.4,1.16-.91,1.16-.5,0-.91-.51-.91-1.16v-8.49c0-.65.41-1.16.91-1.16s.91.51.91,1.16v2.65c.13-.03.27-.04.42-.04h47.04l-2.57-2.65s1.05-1.08,1.87-.47c.94.68,3.95,4.06,3.95,4.06Z"/>
    <path class="cls-7" d="m429.81,394.25s-3.23,2.77-4.09,3.95c-.59.82.5,1.87.5,1.87l2.61-2.57v36.55c-.61-8.97-7.4-9.68-20.59-9.68-1.45,0-1.43,2.08.03,2.07,18.08-.15,19.28,1.12,19.28,18.08,0,.16.01.3.04.44h-2.72c-.65,0-1.16.4-1.16.91,0,.5.51.91,1.16.91h8.49c.65,0,1.16-.41,1.16-.91,0-.51-.51-.91-1.16-.91h-2.65c.03-.13.04-.27.04-.42,0-1.6,0-47.04,0-47.04l2.65,2.57s1.08-1.05.47-1.87c-.68-.94-4.06-3.95-4.06-3.95Z"/>
    <path class="cls-7" d="m431.35,554.89s-3.23-2.77-4.09-3.95c-.59-.82.5-1.87.5-1.87l2.61,2.57v-36.55c-.61,8.97-7.4,9.68-20.59,9.68-1.45,0-1.43-2.08.03-2.07,18.08.15,19.28-1.12,19.28-18.08,0-.16.01-.3.04-.44h-2.72c-.65,0-1.16-.4-1.16-.91,0-.5.51-.91,1.16-.91h8.49c.65,0,1.16.41,1.16.91,0,.51-.51.91-1.16.91h-2.65c.03.13.04.27.04.42,0,1.6,0,47.04,0,47.04l2.65-2.57s1.08,1.05.47,1.87c-.68.94-4.06,3.95-4.06,3.95Z"/>
    <path class="cls-7" d="m84.61,286.82l-2.65,2.65s-1.08-1.05-.47-1.87c.68-.94,4.06-3.95,4.06-3.95,0,0,3.23,2.77,4.09,3.95.59.82-.5,1.87-.5,1.87l-2.61-2.65v46.81c0,.18.06.3.31.3,6.55,0,19.39-2.35,19.39-19.75,0-1.61,1.81-1.66,1.81,0,0,15.57-9.63,21.53-21.2,21.69-.15,0-.3.11-.3.26v3.03c0,.54-.43.97-.96.97s-.96-.43-.96-.97v-52.34Z"/>
    <path class="cls-7" d="m174.61,286.82l-2.65,2.65s-1.08-1.05-.47-1.87c.68-.94,4.06-3.95,4.06-3.95,0,0,3.23,2.77,4.09,3.95.59.82-.5,1.87-.5,1.87l-2.61-2.65v46.81c0,.18.06.3.31.3,6.55,0,19.39-2.35,19.39-19.75,0-1.61,1.81-1.66,1.81,0,0,15.57-9.63,21.53-21.2,21.69-.15,0-.3.11-.3.26v3.03c0,.54-.43.97-.96.97s-.96-.43-.96-.97v-52.34Z"/>
    <path class="cls-7" d="m71.76,396.82l2.65,2.65s1.08-1.05.47-1.87c-.68-.94-4.06-3.95-4.06-3.95,0,0-3.23,2.77-4.09,3.95-.59.82.5,1.87.5,1.87l2.61-2.65v46.81c0,.18-.06.3-.31.3-6.55,0-19.39-2.35-19.39-19.75,0-1.61-1.81-1.66-1.81,0,0,15.57,9.63,21.53,21.2,21.69.15,0,.3.11.3.26v3.03c0,.54.43.97.96.97s.96-.43.96-.97v-52.34Z"/>
    <path class="cls-7" d="m161.99,396.82l2.65,2.65s1.08-1.05.47-1.87c-.68-.94-4.06-3.95-4.06-3.95,0,0-3.23,2.77-4.09,3.95-.59.82.5,1.87.5,1.87l2.61-2.65v46.81c0,.18-.06.3-.31.3-6.55,0-19.39-2.35-19.39-19.75,0-1.61-1.81-1.66-1.81,0,0,15.57,9.63,21.53,21.2,21.69.15,0,.3.11.3.26v3.03c0,.54.43.97.96.97s.96-.43.96-.97v-52.34Z"/>
    <path class="cls-7" d="m73,557.51l2.65-2.65s1.08,1.05.47,1.87c-.68.94-4.06,3.95-4.06,3.95,0,0-3.23-2.77-4.09-3.95-.59-.82.5-1.87.5-1.87l2.61,2.65v-46.81c0-.18-.06-.3-.31-.3-6.55,0-19.39,2.35-19.39,19.75,0,1.61-1.81,1.66-1.81,0,0-15.57,9.63-21.53,21.2-21.69.15,0,.3-.11.3-.26v-3.03c0-.54.43-.97.96-.97s.96.43.96.97v52.34Z"/>
    <path class="cls-7" d="m163.38,552.71l2.65-2.65s1.08,1.05.47,1.87c-.68.94-4.06,3.95-4.06,3.95,0,0-3.23-2.77-4.09-3.95-.59-.82.5-1.87.5-1.87l2.61,2.65v-46.81c0-.18-.06-.3-.31-.3-6.55,0-19.39,2.35-19.39,19.75,0,1.61-1.81,1.66-1.81,0,0-15.57,9.63-21.53,21.2-21.69.15,0,.3-.11.3-.26v-3.03c0-.54.43-.97.96-.97s.96.43.96.97v52.34Z"/>
    <path class="cls-7" d="m284.38,521.94l-2.65,2.65s1.05,1.08,1.87.47c.94-.68,3.95-4.06,3.95-4.06,0,0-2.77-3.23-3.95-4.09-.82-.59-1.87.5-1.87.5l2.65,2.61h-46.81c-.18,0-.3-.06-.3-.31,0-6.55,2.35-19.39,19.75-19.39,1.61,0,1.66-1.81,0-1.81-15.57,0-21.53,9.63-21.69,21.2,0,.15-.11.3-.26.3h-3.03c-.54,0-.97.43-.97.96,0,.53.43.96.97.96h52.34Z"/>
    <path class="cls-7" d="m370.4,521.94l-2.65,2.65s1.05,1.08,1.87.47c.94-.68,3.95-4.06,3.95-4.06,0,0-2.77-3.23-3.95-4.09-.82-.59-1.87.5-1.87.5l2.65,2.61h-46.81c-.18,0-.3-.06-.3-.31,0-6.55,2.35-19.39,19.75-19.39,1.61,0,1.66-1.81,0-1.81-15.57,0-21.53,9.63-21.69,21.2,0,.15-.11.3-.26.3h-3.03c-.54,0-.97.43-.97.96,0,.53.43.96.97.96h52.34Z"/>
    <path class="cls-7" d="m251.4,441.96l2.65-2.65s1.08,1.05.47,1.87c-.68.94-4.06,3.95-4.06,3.95,0,0-3.23-2.77-4.09-3.95-.59-.82.5-1.87.5-1.87l2.61,2.65v-46.81c0-.18-.06-.3-.31-.3-6.55,0-19.39,2.35-19.39,19.75,0,1.61-1.81,1.66-1.81,0,0-15.57,9.63-21.53,21.2-21.69.15,0,.3-.11.3-.26v-3.03c0-.54.43-.97.96-.97s.96.43.96.97v52.34Z"/>
    <path class="cls-7" d="m341.28,442.48l2.65-2.65s1.08,1.05.47,1.87c-.68.94-4.06,3.95-4.06,3.95,0,0-3.23-2.77-4.09-3.95-.59-.82.5-1.87.5-1.87l2.61,2.65v-46.81c0-.18-.06-.3-.31-.3-6.55,0-19.39,2.35-19.39,19.75,0,1.61-1.81,1.66-1.81,0,0-15.57,9.63-21.53,21.2-21.69.15,0,.3-.11.3-.26v-3.03c0-.54.43-.97.96-.97s.96.43.96.97v52.34Z"/>
    <path class="cls-7" d="m264.61,286.82l-2.65,2.65s-1.08-1.05-.47-1.87c.68-.94,4.06-3.95,4.06-3.95,0,0,3.23,2.77,4.09,3.95.59.82-.5,1.87-.5,1.87l-2.61-2.65v46.81c0,.18.06.3.31.3,6.55,0,19.39-2.35,19.39-19.75,0-1.61,1.81-1.66,1.81,0,0,15.57-9.63,21.53-21.2,21.69-.15,0-.3.11-.3.26v3.03c0,.54-.43.97-.96.97s-.96-.43-.96-.97v-52.34Z"/>
    <path class="cls-7" d="m354.61,286.82l-2.65,2.65s-1.08-1.05-.47-1.87c.68-.94,4.06-3.95,4.06-3.95,0,0,3.23,2.77,4.09,3.95.59.82-.5,1.87-.5,1.87l-2.61-2.65v46.81c0,.18.06.3.31.3,6.55,0,19.39-2.35,19.39-19.75,0-1.61,1.81-1.66,1.81,0,0,15.57-9.63,21.53-21.2,21.69-.15,0-.3.11-.3.26v3.03c0,.54-.43.97-.96.97s-.96-.43-.96-.97v-52.34Z"/>
  </g>
  <g>
    <path class="cls-10" d="m266.64,449.62c-.95-.64-4.08-3.93-4.08-3.93,0,0,2.66-3.31,3.8-4.21.8-.63,1.89.44,1.89.44l-2.61,2.78c8.61-.03,18.1-6.85,19.39-19.4h-2.79c-.6,0-1.09-.49-1.09-1.08,0-.6.49-1.08,1.09-1.08h7.56c.6,0,1.09.48,1.09,1.08,0,.59-.49,1.08-1.09,1.08h-2.63c-.66,11.36-9.96,21.34-21.33,21.37l2.65,2.42s-1.01,1.11-1.85.53Z"/>
    <path class="cls-10" d="m356.82,450s-3.23-2.77-4.08-3.95c-.6-.82.5-1.87.5-1.87l2.66,2.73c0-18.49,1.8-20.09,20.18-20.15v-2.74c0-.6.49-1.09,1.08-1.09s1.08.49,1.08,1.09v7.56c0,.6-.48,1.09-1.08,1.09s-1.08-.49-1.08-1.09v-2.75c-17.27.04-18.23,1.15-18.23,18.08l2.56-2.73s1.08,1.05.48,1.87c-.69.94-4.07,3.95-4.07,3.95Z"/>
    <path class="cls-10" d="m716.82,449.79s-3.23-2.77-4.08-3.95c-.6-.82.5-1.87.5-1.87l2.66,2.73c0-18.49,1.8-20.09,20.18-20.15v-2.74c0-.6.49-1.09,1.08-1.09s1.08.49,1.08,1.09v7.56c0,.6-.48,1.09-1.08,1.09-.59,0-1.08-.49-1.08-1.09v-2.75c-17.27.04-18.23,1.15-18.23,18.08l2.56-2.73s1.08,1.05.48,1.87c-.69.94-4.07,3.95-4.07,3.95Z"/>
    <path class="cls-10" d="m176.86,450.5s-3.23-2.77-4.08-3.95c-.6-.82.5-1.87.5-1.87l2.66,2.73c0-18.49,1.8-20.09,20.18-20.15v-2.74c0-.6.49-1.09,1.08-1.09.6,0,1.08.49,1.08,1.09v7.56c0,.6-.48,1.09-1.08,1.09-.59,0-1.08-.49-1.08-1.09v-2.75c-17.27.04-18.23,1.15-18.23,18.08l2.56-2.73s1.08,1.05.48,1.87c-.69.94-4.07,3.95-4.07,3.95Z"/>
    <path class="cls-10" d="m627.71,450.55c-.95-.64-4.08-3.93-4.08-3.93,0,0,2.66-3.31,3.8-4.21.8-.63,1.89.44,1.89.44l-2.61,2.78c8.61-.03,18.1-6.85,19.39-19.4h-2.79c-.6,0-1.09-.49-1.09-1.08s.49-1.08,1.09-1.08h7.56c.6,0,1.09.48,1.09,1.08,0,.59-.49,1.08-1.09,1.08h-2.63c-.66,11.36-9.96,21.34-21.33,21.37l2.65,2.42s-1.01,1.11-1.85.53Z"/>
    <path class="cls-10" d="m535.96,449.13s-3.23-2.77-4.08-3.95c-.6-.82.5-1.87.5-1.87l2.66,2.73c0-18.49,1.8-20.09,20.18-20.15v-2.74c0-.6.49-1.09,1.08-1.09.6,0,1.08.49,1.08,1.09v7.56c0,.6-.48,1.09-1.08,1.09-.59,0-1.08-.49-1.08-1.09v-2.75c-17.27.04-18.23,1.15-18.23,18.08l2.56-2.73s1.08,1.05.48,1.87c-.69.94-4.07,3.95-4.07,3.95Z"/>
    <path class="cls-10" d="m199.88,191.38c-.64.95-3.93,4.08-3.93,4.08,0,0-3.31-2.66-4.21-3.8-.63-.8.44-1.89.44-1.89l2.78,2.61c-.03-8.61-6.85-18.1-19.4-19.39v2.79c0,.6-.49,1.09-1.08,1.09s-1.08-.49-1.08-1.09v-7.56c0-.6.48-1.09,1.08-1.09.59,0,1.08.49,1.08,1.09v2.63c11.36.66,21.34,9.96,21.37,21.33l2.42-2.65s1.11,1.01.53,1.85Z"/>
    <path class="cls-10" d="m447.29,230.44c-.95-.64-4.08-3.93-4.08-3.93,0,0,2.66-3.31,3.8-4.21.8-.63,1.89.44,1.89.44l-2.61,2.78c8.61-.03,18.1-6.85,19.39-19.4h-2.79c-.6,0-1.09-.49-1.09-1.08,0-.6.49-1.08,1.09-1.08h7.56c.6,0,1.09.48,1.09,1.08,0,.59-.49,1.08-1.09,1.08h-2.63c-.66,11.36-9.96,21.34-21.33,21.37l2.65,2.42s-1.01,1.11-1.85.53Z"/>
    <path class="cls-10" d="m626.91,229.31s-3.23-2.77-4.08-3.95c-.6-.82.5-1.87.5-1.87l2.66,2.73c0-18.49,1.8-20.09,20.18-20.15v-2.74c0-.6.49-1.09,1.08-1.09.6,0,1.08.49,1.08,1.09v7.56c0,.6-.48,1.09-1.08,1.09-.59,0-1.08-.49-1.08-1.09v-2.75c-17.27.04-18.23,1.15-18.23,18.08l2.56-2.73s1.08,1.05.48,1.87c-.69.94-4.07,3.95-4.07,3.95Z"/>
    <path class="cls-10" d="m539.57,168.32c-.95.64-4.08,3.93-4.08,3.93,0,0,2.66,3.31,3.8,4.21.8.63,1.89-.44,1.89-.44l-2.61-2.78c8.61.03,18.1,6.85,19.39,19.4h-2.79c-.6,0-1.09.49-1.09,1.08,0,.6.49,1.08,1.09,1.08h7.56c.6,0,1.09-.48,1.09-1.08,0-.59-.49-1.08-1.09-1.08h-2.63c-.66-11.36-9.96-21.34-21.33-21.37l2.65-2.42s-1.01-1.11-1.85-.53Z"/>
    <path class="cls-10" d="m717.24,164.33s-3.23,2.77-4.08,3.95c-.6.82.5,1.87.5,1.87l2.66-2.73c0,18.49,1.8,20.09,20.18,20.15v2.74c0,.6.49,1.09,1.08,1.09.6,0,1.08-.49,1.08-1.09v-7.56c0-.6-.48-1.09-1.08-1.09s-1.08.49-1.08,1.09v2.75c-17.27-.04-18.23-1.15-18.23-18.08l2.56,2.73s1.08-1.05.48-1.87c-.69-.94-4.07-3.95-4.07-3.95Z"/>
    <path class="cls-10" d="m379.82,193.12s-2.77,3.23-3.95,4.08c-.82.6-1.87-.5-1.87-.5l2.73-2.66c-18.49,0-20.09-1.8-20.15-20.18h-2.74c-.6,0-1.09-.49-1.09-1.08s.49-1.08,1.09-1.08h7.56c.6,0,1.09.48,1.09,1.08,0,.59-.49,1.08-1.09,1.08h-2.75c.04,17.27,1.15,18.23,18.08,18.23l-2.73-2.56s1.05-1.08,1.87-.48c.94.69,3.95,4.07,3.95,4.07Z"/>
    <path class="cls-10" d="m227.35,189.26s2.77,3.23,3.95,4.08c.82.6,1.87-.5,1.87-.5l-2.73-2.66c18.49,0,20.09-1.8,20.15-20.18h2.74c.6,0,1.09-.49,1.09-1.08s-.49-1.08-1.09-1.08h-7.56c-.6,0-1.09.48-1.09,1.08,0,.59.49,1.08,1.09,1.08h2.75c-.04,17.27-1.15,18.23-18.08,18.23l2.73-2.56s-1.05-1.08-1.87-.48c-.94.69-3.95,4.07-3.95,4.07Z"/>
    <path class="cls-10" d="m48.16,191.79c.64.95,3.93,4.08,3.93,4.08,0,0,3.31-2.66,4.21-3.8.63-.8-.44-1.89-.44-1.89l-2.78,2.61c.03-8.61,6.85-18.1,19.4-19.39v2.79c0,.6.49,1.09,1.08,1.09s1.08-.49,1.08-1.09v-7.56c0-.6-.48-1.09-1.08-1.09-.59,0-1.08.49-1.08,1.09v2.63c-11.36.66-21.34,9.96-21.37,21.33l-2.42-2.65s-1.11,1.01-.53,1.85Z"/>
    <path class="cls-10" d="m47.28,316.74c.64-.95,3.93-4.08,3.93-4.08,0,0,3.31,2.66,4.21,3.8.63.8-.44,1.89-.44,1.89l-2.78-2.61c.03,8.61,6.85,18.1,19.4,19.39v-2.79c0-.6.49-1.09,1.08-1.09s1.08.49,1.08,1.09v7.56c0,.6-.48,1.09-1.08,1.09s-1.08-.49-1.08-1.09v-2.63c-11.36-.66-21.34-9.96-21.37-21.33l-2.42,2.65s-1.11-1.01-.53-1.85Z"/>
    <path class="cls-10" d="m205.95,321.56c-.64-.95-3.93-4.08-3.93-4.08,0,0-3.31,2.66-4.21,3.8-.63.8.44,1.89.44,1.89l2.78-2.61c-.03,8.61-6.85,18.1-19.4,19.39v-2.79c0-.6-.49-1.09-1.08-1.09-.6,0-1.08.49-1.08,1.09v7.56c0,.6.48,1.09,1.08,1.09.59,0,1.08-.49,1.08-1.09v-2.63c11.36-.66,21.34-9.96,21.37-21.33l2.42,2.65s1.11-1.01.53-1.85Z"/>
    <path class="cls-10" d="m588.8,316.54s2.77-3.23,3.95-4.08c.82-.6,1.87.5,1.87.5l-2.73,2.66c18.49,0,20.09,1.8,20.15,20.18h2.74c.6,0,1.09.49,1.09,1.08s-.49,1.08-1.09,1.08h-7.56c-.6,0-1.09-.48-1.09-1.08,0-.59.49-1.08,1.09-1.08h2.75c-.04-17.27-1.15-18.23-18.08-18.23l2.73,2.56s-1.05,1.08-1.87.48c-.94-.69-3.95-4.07-3.95-4.07Z"/>
    <path class="cls-10" d="m746.27,319.25s-2.77-3.23-3.95-4.08c-.82-.6-1.87.5-1.87.5l2.73,2.66c-18.49,0-20.09,1.8-20.15,20.18h-2.74c-.6,0-1.09.49-1.09,1.08,0,.6.49,1.08,1.09,1.08h7.56c.6,0,1.09-.48,1.09-1.08,0-.59-.49-1.08-1.09-1.08h-2.75c.04-17.27,1.15-18.23,18.08-18.23l-2.73,2.56s1.05,1.08,1.87.48c.94-.69,3.95-4.07,3.95-4.07Z"/>
    <path class="cls-10" d="m386.46,319.69s-2.77-3.23-3.95-4.08c-.82-.6-1.87.5-1.87.5l2.73,2.66c-18.49,0-20.09,1.8-20.15,20.18h-2.74c-.6,0-1.09.49-1.09,1.08,0,.6.49,1.08,1.09,1.08h7.56c.6,0,1.09-.48,1.09-1.08,0-.59-.49-1.08-1.09-1.08h-2.75c.04-17.27,1.15-18.23,18.08-18.23l-2.73,2.56s1.05,1.08,1.87.48c.94-.69,3.95-4.07,3.95-4.07Z"/>
    <path class="cls-10" d="m408.54,316.97c.64-.95,3.93-4.08,3.93-4.08,0,0,3.31,2.66,4.21,3.8.63.8-.44,1.89-.44,1.89l-2.78-2.61c.03,8.61,6.85,18.1,19.4,19.39v-2.79c0-.6.49-1.09,1.08-1.09s1.08.49,1.08,1.09v7.56c0,.6-.48,1.09-1.08,1.09-.59,0-1.08-.49-1.08-1.09v-2.63c-11.36-.66-21.34-9.96-21.37-21.33l-2.42,2.65s-1.11-1.01-.53-1.85Z"/>
    <path class="cls-10" d="m565.85,319.09c-.64-.95-3.93-4.08-3.93-4.08,0,0-3.31,2.66-4.21,3.8-.63.8.44,1.89.44,1.89l2.78-2.61c-.03,8.61-6.85,18.1-19.4,19.39v-2.79c0-.6-.49-1.09-1.08-1.09-.6,0-1.08.49-1.08,1.09v7.56c0,.6.48,1.09,1.08,1.09s1.08-.49,1.08-1.09v-2.63c11.36-.66,21.34-9.96,21.37-21.33l2.42,2.65s1.11-1.01.53-1.85Z"/>
    <path class="cls-10" d="m228.8,316.25s2.77-3.23,3.95-4.08c.82-.6,1.87.5,1.87.5l-2.73,2.66c18.49,0,20.09,1.8,20.15,20.18h2.74c.6,0,1.09.49,1.09,1.08s-.49,1.08-1.09,1.08h-7.56c-.6,0-1.09-.48-1.09-1.08,0-.59.49-1.08,1.09-1.08h2.75c-.04-17.27-1.15-18.23-18.08-18.23l2.73,2.56s-1.05,1.08-1.87.48c-.94-.69-3.95-4.07-3.95-4.07Z"/>
    <path class="cls-10" d="m155.46,496.09s3.23,2.77,4.08,3.95c.6.82-.5,1.87-.5,1.87l-2.66-2.73c0,18.49-1.8,20.09-20.18,20.15v2.74c0,.6-.49,1.09-1.08,1.09-.6,0-1.08-.49-1.08-1.09v-7.56c0-.6.48-1.09,1.08-1.09s1.08.49,1.08,1.09v2.75c17.27-.04,18.23-1.15,18.23-18.08l-2.56,2.73s-1.08-1.05-.48-1.87c.69-.94,4.07-3.95,4.07-3.95Z"/>
    <path class="cls-10" d="m514.96,494.96s3.23,2.77,4.08,3.95c.6.82-.5,1.87-.5,1.87l-2.66-2.73c0,18.49-1.8,20.09-20.18,20.15v2.74c0,.6-.49,1.09-1.08,1.09s-1.08-.49-1.08-1.09v-7.56c0-.6.48-1.09,1.08-1.09s1.08.49,1.08,1.09v2.75c17.27-.04,18.23-1.15,18.23-18.08l-2.56,2.73s-1.08-1.05-.48-1.87c.69-.94,4.07-3.95,4.07-3.95Z"/>
    <path class="cls-10" d="m290.51,541.43c-.64-.95-3.93-4.08-3.93-4.08,0,0-3.31,2.66-4.21,3.8-.63.8.44,1.89.44,1.89l2.78-2.61c-.03,8.61-6.85,18.1-19.4,19.39v-2.79c0-.6-.49-1.09-1.08-1.09s-1.08.49-1.08,1.09v7.56c0,.6.48,1.09,1.08,1.09.59,0,1.08-.49,1.08-1.09v-2.63c11.36-.66,21.34-9.96,21.37-21.33l2.42,2.65s1.11-1.01.53-1.85Z"/>
    <path class="cls-10" d="m651.49,540.26c-.64-.95-3.93-4.08-3.93-4.08,0,0-3.31,2.66-4.21,3.8-.63.8.44,1.89.44,1.89l2.78-2.61c-.03,8.61-6.85,18.1-19.4,19.39v-2.79c0-.6-.49-1.09-1.08-1.09-.6,0-1.08.49-1.08,1.09v7.56c0,.6.48,1.09,1.08,1.09.59,0,1.08-.49,1.08-1.09v-2.63c11.36-.66,21.34-9.96,21.37-21.33l2.42,2.65s1.11-1.01.53-1.85Z"/>
    <path class="cls-10" d="m739.88,542.87s-2.77-3.23-3.95-4.08c-.82-.6-1.87.5-1.87.5l2.73,2.66c-18.49,0-20.09,1.8-20.15,20.18h-2.74c-.6,0-1.09.49-1.09,1.08s.49,1.08,1.09,1.08h7.56c.6,0,1.09-.48,1.09-1.08,0-.59-.49-1.08-1.09-1.08h-2.75c.04-17.27,1.15-18.23,18.08-18.23l-2.73,2.56s1.05,1.08,1.87.48c.94-.69,3.95-4.07,3.95-4.07Z"/>
    <path class="cls-10" d="m378.59,542.93s-2.77-3.23-3.95-4.08c-.82-.6-1.87.5-1.87.5l2.73,2.66c-18.49,0-20.09,1.8-20.15,20.18h-2.74c-.6,0-1.09.49-1.09,1.08,0,.6.49,1.08,1.09,1.08h7.56c.6,0,1.09-.48,1.09-1.08,0-.59-.49-1.08-1.09-1.08h-2.75c.04-17.27,1.15-18.23,18.08-18.23l-2.73,2.56s1.05,1.08,1.87.48c.94-.69,3.95-4.07,3.95-4.07Z"/>
    <path class="cls-10" d="m85.68,449.25c-.95-.64-4.08-3.93-4.08-3.93,0,0,2.66-3.31,3.8-4.21.8-.63,1.89.44,1.89.44l-2.61,2.78c8.61-.03,18.1-6.85,19.39-19.4h-2.79c-.6,0-1.09-.49-1.09-1.08,0-.6.49-1.08,1.09-1.08h7.56c.6,0,1.09.48,1.09,1.08,0,.59-.49,1.08-1.09,1.08h-2.63c-.66,11.36-9.96,21.34-21.33,21.37l2.65,2.42s-1.01,1.11-1.85.53Z"/>
    <path class="cls-10" d="m446.64,450.55c-.95-.64-4.08-3.93-4.08-3.93,0,0,2.66-3.31,3.8-4.21.8-.63,1.89.44,1.89.44l-2.61,2.78c8.61-.03,18.1-6.85,19.39-19.4h-2.79c-.6,0-1.09-.49-1.09-1.08,0-.6.49-1.08,1.09-1.08h7.56c.6,0,1.09.48,1.09,1.08,0,.59-.49,1.08-1.09,1.08h-2.63c-.66,11.36-9.96,21.34-21.33,21.37l2.65,2.42s-1.01,1.11-1.85.53Z"/>
    <path class="cls-10" d="m69.98,496.19c.95.64,4.08,3.93,4.08,3.93,0,0-2.66,3.31-3.8,4.21-.8.63-1.89-.44-1.89-.44l2.61-2.78c-8.61.03-18.1,6.85-19.39,19.4h2.79c.6,0,1.09.49,1.09,1.08s-.49,1.08-1.09,1.08h-7.56c-.6,0-1.09-.48-1.09-1.08s.49-1.08,1.09-1.08h2.63c.66-11.36,9.96-21.34,21.33-21.37l-2.65-2.42s1.01-1.11,1.85-.53Z"/>
    <path class="cls-10" d="m429.21,493.67c.95.64,4.08,3.93,4.08,3.93,0,0-2.66,3.31-3.8,4.21-.8.63-1.89-.44-1.89-.44l2.61-2.78c-8.61.03-18.1,6.85-19.39,19.4h2.79c.6,0,1.09.49,1.09,1.08,0,.6-.49,1.08-1.09,1.08h-7.56c-.6,0-1.09-.48-1.09-1.08,0-.59.49-1.08,1.09-1.08h2.63c.66-11.36,9.96-21.34,21.33-21.37l-2.65-2.42s1.01-1.11,1.85-.53Z"/>
  </g>
  <g>
    <path class="cls-3" d="m266.09,459.88l-4.37,8.3c-.15.29-.45.46-.75.46-.13,0-.26-.04-.39-.1-.2-.11-.35-.28-.42-.5-.07-.21-.05-.45.06-.65l1.88-3.58-2.53-3.62c-.12-.11-.2-.27-.24-.47-.05-.25.03-.53.2-.71.15-.17.35-.27.58-.28.22,0,.45.07.61.21l2.2,3.29,1.65-3.14c.12-.2.29-.35.51-.42.22-.07.45-.04.65.07.22.12.38.33.43.59.03.19,0,.38-.08.55Z"/>
    <path class="cls-3" d="m625.51,459.88l-4.37,8.3c-.15.29-.45.46-.75.46-.13,0-.26-.04-.39-.1-.2-.11-.35-.28-.42-.5-.07-.21-.05-.45.06-.65l1.88-3.58-2.53-3.62c-.12-.11-.2-.27-.24-.47-.05-.25.03-.53.2-.71.15-.17.35-.27.58-.28.22,0,.45.07.61.21l2.2,3.29,1.65-3.14c.12-.2.29-.35.51-.42.22-.07.45-.04.65.07.22.12.38.33.43.59.03.19,0,.38-.08.55Z"/>
    <path class="cls-3" d="m354.27,460.37c-1.86,0-2.27,0-3.51,0-.46,0-1.11-.2-1.11-.85,0-.57.42-.88,1.07-.88,4.93,0,5.05-.05,5.58.38.28.22.43.73.15,1.14-1.71,2.48-4.64,6.6-4.64,6.6,0,0,2.47-.05,3.73-.05,1.57,0,1.46,1.88.13,1.88-8.37,0-8.83,1.14-1.4-8.22Z"/>
    <path class="cls-3" d="m526.06,466.77c-.93-2.27-1.86-4.39-2.21-5.2-.38-.84-.67-1.52-.74-1.72-.32-.87-.6-1.18-1.12-1.22-.5.04-.79.34-1.11,1.22-.07.2-.36.87-.73,1.72-.73,1.66-1.56,3.6-2.22,5.2-.28.71-.29,1.21-.03,1.52.19.23.49.34.9.34h6.43c.41,0,.71-.12.9-.34.12-.15.18-.34.18-.58,0-.26-.07-.57-.22-.94Zm-1.67.34h-4.8c.17-.42.49-1.25.87-2.18.56-1.41,1.21-3.07,1.53-3.9.39.98,1.22,3.11,1.83,4.63l.57,1.44Z"/>
    <path class="cls-3" d="m254.23,462.82c.48.44.43.65.44.96s-.23.47-.53.71c-1.75,1.43-2.78,2.44-2.78,2.44,0,0,.42.05,4.42.05.4,0,.79.33.79.78,0,.48-.22.88-.64.88-2.35,0-4.02-.05-5.97-.05-.79,0-1.34-.19-1.52-.57-.17-.36-.12-.9.55-1.52,1.91-1.72,3.47-2.88,3.47-2.88,0,0-2.17-1.97-3.75-3.56-.33-.33-.43-.62-.31-.85.11-.2.55-.57.92-.57h6.71c.74,0,.77,1.31,0,1.31-3.37,0-5.2.02-5.2.02"/>
    <path class="cls-3" d="m615.65,466.77c-.93-2.27-1.86-4.39-2.21-5.2-.38-.84-.67-1.52-.74-1.72-.32-.87-.6-1.18-1.12-1.22-.5.04-.79.34-1.11,1.22-.07.2-.36.87-.73,1.72-.73,1.66-1.56,3.6-2.22,5.2-.28.71-.29,1.21-.03,1.52.19.23.49.34.9.34h6.43c.41,0,.71-.12.9-.34.12-.15.18-.34.18-.58,0-.26-.07-.57-.22-.94Zm-1.67.34h-4.8c.17-.42.49-1.25.87-2.18.56-1.41,1.21-3.07,1.53-3.9.39.98,1.22,3.11,1.83,4.63l.57,1.44Z"/>
    <path class="cls-3" d="m163.81,462.82c.48.44.43.65.44.96s-.23.47-.53.71c-1.75,1.43-2.78,2.44-2.78,2.44,0,0,.42.05,4.42.05.4,0,.79.33.79.78,0,.48-.22.88-.64.88-2.35,0-4.02-.05-5.97-.05-.79,0-1.34-.19-1.52-.57-.17-.36-.12-.9.55-1.52,1.91-1.72,3.47-2.88,3.47-2.88,0,0-2.17-1.97-3.75-3.56-.33-.33-.43-.62-.31-.85.11-.2.55-.57.92-.57h6.71c.74,0,.77,1.31,0,1.31-3.37,0-5.2.02-5.2.02"/>
    <path class="cls-3" d="m176.91,467.14c.16.19.21.44.19.68-.03.24-.16.46-.34.61-.4.3-.98.23-1.3-.17l-2.45-3.14-2.45,3.14c-.18.23-.45.36-.72.36-.19,0-.4-.07-.57-.19-.19-.15-.32-.37-.35-.61-.03-.24.03-.49.19-.68l2.73-3.51-2.73-3.51c-.13-.17-.19-.36-.19-.57,0-.28.14-.56.36-.73.19-.15.42-.21.67-.19.24.03.47.16.61.35l2.45,3.14,2.44-3.14c.33-.41.91-.48,1.31-.16.22.17.35.43.35.72,0,.2-.07.4-.19.57l-2.73,3.51,2.73,3.51Z"/>
    <path class="cls-3" d="m536.59,467.14c.16.19.21.44.19.68-.03.24-.16.46-.34.61-.4.3-.98.23-1.3-.17l-2.45-3.14-2.45,3.14c-.18.23-.45.36-.72.36-.19,0-.4-.07-.57-.19-.19-.15-.32-.37-.35-.61-.03-.24.03-.49.19-.68l2.73-3.51-2.73-3.51c-.13-.17-.19-.36-.19-.57,0-.28.14-.56.36-.73.19-.15.42-.21.67-.19.24.03.47.16.61.35l2.45,3.14,2.44-3.14c.33-.41.91-.48,1.31-.16.22.17.35.43.35.72,0,.2-.07.4-.19.57l-2.73,3.51,2.73,3.51Z"/>
    <rect class="cls-3" x="266.42" y="462.68" width="6.95" height="1.9" rx=".95" ry=".95"/>
    <path class="cls-3" d="m344.07,462.82c.48.44.43.65.44.96s-.23.47-.53.71c-1.75,1.43-2.78,2.44-2.78,2.44,0,0,.42.05,4.42.05.4,0,.79.33.79.78,0,.48-.22.88-.64.88-2.35,0-4.02-.05-5.97-.05-.79,0-1.34-.19-1.52-.57-.17-.36-.12-.9.55-1.52,1.91-1.72,3.47-2.88,3.47-2.88,0,0-2.17-1.97-3.75-3.56-.33-.33-.43-.62-.31-.85.11-.2.55-.57.92-.57h6.71c.74,0,.77,1.31,0,1.31-3.37,0-5.2.02-5.2.02"/>
    <rect class="cls-3" x="357.09" y="462.68" width="6.95" height="1.9" rx=".95" ry=".95"/>
    <rect class="cls-3" x="626.66" y="462.68" width="6.95" height="1.9" rx=".95" ry=".95"/>
    <path class="cls-3" d="m714.1,460.37c-1.86,0-2.27,0-3.51,0-.46,0-1.11-.2-1.11-.85,0-.57.42-.88,1.07-.88,4.93,0,5.05-.05,5.58.38.28.22.43.73.15,1.14-1.71,2.48-4.64,6.6-4.64,6.6,0,0,2.47-.05,3.73-.05,1.57,0,1.46,1.88.13,1.88-8.37,0-8.83,1.14-1.4-8.22Z"/>
    <path class="cls-3" d="m705.44,466.77c-.93-2.27-1.86-4.39-2.21-5.2-.38-.84-.67-1.52-.74-1.72-.32-.87-.6-1.18-1.12-1.22-.5.04-.79.34-1.11,1.22-.07.2-.36.87-.73,1.72-.73,1.66-1.56,3.6-2.22,5.2-.28.71-.29,1.21-.03,1.52.19.23.49.34.9.34h6.43c.41,0,.71-.12.9-.34.12-.15.18-.34.18-.58,0-.26-.07-.57-.22-.94Zm-1.67.34h-4.8c.17-.42.49-1.25.87-2.18.56-1.41,1.21-3.07,1.53-3.9.39.98,1.22,3.11,1.83,4.63l.57,1.44Z"/>
    <rect class="cls-3" x="716.13" y="462.68" width="6.95" height="1.9" rx=".95" ry=".95"/>
    <rect class="cls-3" x="176.85" y="462.68" width="6.95" height="1.9" rx=".95" ry=".95"/>
    <rect class="cls-3" x="537.65" y="462.68" width="6.95" height="1.9" rx=".95" ry=".95"/>
    <path class="cls-3" d="m256.48,238.9c-.46-.06-.96.28-1.19,1.14-.42,1.54-.92,3.7-1.44,5.63-1.11-2.72-1.86-4.39-2.5-4.38-.01,0-.02,0-.03.01-.01-.01-.02-.01-.03-.01-.64-.01-1.39,1.65-2.5,4.38-.51-1.93-1.02-4.09-1.44-5.63-.24-.86-.73-1.2-1.19-1.14-.59.07-.98.49-.74,1.25.25.81,1.84,6.07,2.3,7.72.47,1.65,1.59.9,1.8.49.21-.41,1.36-3.67,1.8-4.59.44.92,1.59,4.18,1.8,4.59.21.41,1.33,1.16,1.8-.49.46-1.64,2.05-6.9,2.3-7.72.24-.76-.15-1.18-.74-1.25Z"/>
    <path class="cls-3" d="m615.57,247.4c.16.19.21.44.19.68-.03.24-.16.46-.34.61-.4.3-.98.23-1.3-.17l-2.45-3.14-2.45,3.14c-.18.23-.45.36-.72.36-.19,0-.4-.07-.57-.19-.19-.15-.32-.37-.35-.61-.03-.24.03-.49.19-.68l2.73-3.51-2.73-3.51c-.13-.17-.19-.36-.19-.57,0-.28.14-.56.36-.73.19-.15.42-.21.67-.19.24.03.47.16.61.35l2.45,3.14,2.44-3.14c.33-.41.91-.48,1.31-.16.22.17.35.43.35.72,0,.2-.07.4-.19.57l-2.73,3.51,2.73,3.51Z"/>
    <path class="cls-3" d="m436.16,247.4c.16.19.21.44.19.68-.03.24-.16.46-.34.61-.4.3-.98.23-1.3-.17l-2.45-3.14-2.45,3.14c-.18.23-.45.36-.72.36-.19,0-.4-.07-.57-.19-.19-.15-.32-.37-.35-.61-.03-.24.03-.49.19-.68l2.73-3.51-2.73-3.51c-.13-.17-.19-.36-.19-.57,0-.28.14-.56.36-.73.19-.15.42-.21.67-.19.24.03.47.16.61.35l2.45,3.14,2.44-3.14c.33-.41.91-.48,1.31-.16.22.17.35.43.35.72,0,.2-.07.4-.19.57l-2.73,3.51,2.73,3.51Z"/>
    <rect class="cls-3" x="629.2" y="242.94" width="6.95" height="1.9" rx=".95" ry=".95"/>
    <rect class="cls-3" x="445.73" y="242.94" width="6.95" height="1.9" rx=".95" ry=".95"/>
    <path class="cls-3" d="m705.67,247.4c.16.19.21.44.19.68-.03.24-.16.46-.34.61-.4.3-.98.23-1.3-.17l-2.45-3.14-2.45,3.14c-.18.23-.45.36-.72.36-.19,0-.4-.07-.57-.19-.19-.15-.32-.37-.35-.61-.03-.24.03-.49.19-.68l2.73-3.51-2.73-3.51c-.13-.17-.19-.36-.19-.57,0-.28.14-.56.36-.73.19-.15.42-.21.67-.19.24.03.47.16.61.35l2.45,3.14,2.44-3.14c.33-.41.91-.48,1.31-.16.22.17.35.43.35.72,0,.2-.07.4-.19.57l-2.73,3.51,2.73,3.51Z"/>
    <path class="cls-3" d="m525.94,247.4c.16.19.21.44.19.68-.03.24-.16.46-.34.61-.4.3-.98.23-1.3-.17l-2.45-3.14-2.45,3.14c-.18.23-.45.36-.72.36-.19,0-.4-.07-.57-.19-.19-.15-.32-.37-.35-.61-.03-.24.03-.49.19-.68l2.73-3.51-2.73-3.51c-.13-.17-.19-.36-.19-.57,0-.28.14-.56.36-.73.19-.15.42-.21.67-.19.24.03.47.16.61.35l2.45,3.14,2.44-3.14c.33-.41.91-.48,1.31-.16.22.17.35.43.35.72,0,.2-.07.4-.19.57l-2.73,3.51,2.73,3.51Z"/>
    <rect class="cls-3" x="719.9" y="242.94" width="6.95" height="1.9" rx=".95" ry=".95"/>
    <rect class="cls-3" x="536.68" y="242.94" width="6.95" height="1.9" rx=".95" ry=".95"/>
    <rect class="cls-3" x="271.16" y="242.94" width="6.95" height="1.9" rx=".95" ry=".95"/>
    <path class="cls-3" d="m346.12,238.9c-.46-.06-.96.28-1.19,1.14-.42,1.54-.92,3.7-1.44,5.63-1.11-2.72-1.86-4.39-2.5-4.38-.01,0-.02,0-.03.01-.01-.01-.02-.01-.03-.01-.64-.01-1.39,1.65-2.5,4.38-.51-1.93-1.02-4.09-1.44-5.63-.24-.86-.73-1.2-1.19-1.14-.59.07-.98.49-.74,1.25.25.81,1.84,6.07,2.3,7.72.47,1.65,1.59.9,1.8.49.21-.41,1.36-3.67,1.8-4.59.44.92,1.59,4.18,1.8,4.59.21.41,1.33,1.16,1.8-.49.46-1.64,2.05-6.9,2.3-7.72.24-.76-.15-1.18-.74-1.25Z"/>
    <rect class="cls-3" x="360.34" y="242.94" width="6.95" height="1.9" rx=".95" ry=".95"/>
    <path class="cls-3" d="m167.21,238.9c-.46-.06-.96.28-1.19,1.14-.42,1.54-.92,3.7-1.44,5.63-1.11-2.72-1.86-4.39-2.5-4.38-.01,0-.02,0-.03.01-.01-.01-.02-.01-.03-.01-.64-.01-1.39,1.65-2.5,4.38-.51-1.93-1.02-4.09-1.44-5.63-.24-.86-.73-1.2-1.19-1.14-.59.07-.98.49-.74,1.25.25.81,1.84,6.07,2.3,7.72.47,1.65,1.59.9,1.8.49.21-.41,1.36-3.67,1.8-4.59.44.92,1.59,4.18,1.8,4.59.21.41,1.33,1.16,1.8-.49.46-1.64,2.05-6.9,2.3-7.72.24-.76-.15-1.18-.74-1.25Z"/>
    <rect class="cls-3" x="176.87" y="242.94" width="6.95" height="1.9" rx=".95" ry=".95"/>
    <path class="cls-3" d="m76.06,238.9c-.46-.06-.96.28-1.19,1.14-.42,1.54-.92,3.7-1.44,5.63-1.11-2.72-1.86-4.39-2.5-4.38-.01,0-.02,0-.03.01-.01-.01-.02-.01-.03-.01-.64-.01-1.39,1.65-2.5,4.38-.51-1.93-1.02-4.09-1.44-5.63-.24-.86-.73-1.2-1.19-1.14-.59.07-.98.49-.74,1.25.25.81,1.84,6.07,2.3,7.72.47,1.65,1.59.9,1.8.49.21-.41,1.36-3.67,1.8-4.59.44.92,1.59,4.18,1.8,4.59.21.41,1.33,1.16,1.8-.49.46-1.64,2.05-6.9,2.3-7.72.24-.76-.15-1.18-.74-1.25Z"/>
    <rect class="cls-3" x="85.99" y="242.94" width="6.95" height="1.9" rx=".95" ry=".95"/>
    <path class="cls-3" d="m76.41,349.26l-4.37,8.3c-.15.29-.45.46-.75.46-.13,0-.26-.04-.39-.1-.2-.11-.35-.28-.42-.5-.07-.21-.05-.45.06-.65l1.88-3.58-2.53-3.62c-.12-.11-.2-.27-.24-.47-.05-.25.03-.53.2-.71.15-.17.35-.27.58-.28.22,0,.45.07.61.21l2.2,3.29,1.65-3.14c.12-.2.29-.35.51-.42.22-.07.45-.04.65.07.22.12.38.33.43.59.03.19,0,.38-.08.55Z"/>
    <path class="cls-3" d="m84.39,352.2c.48.44.43.65.44.96s-.23.47-.53.71c-1.75,1.43-2.78,2.44-2.78,2.44,0,0,.42.05,4.42.05.4,0,.79.33.79.78,0,.48-.22.88-.64.88-2.35,0-4.02-.05-5.97-.05-.79,0-1.34-.19-1.52-.57-.17-.36-.12-.9.55-1.52,1.91-1.72,3.47-2.88,3.47-2.88,0,0-2.17-1.97-3.75-3.56-.33-.33-.43-.62-.31-.85.11-.2.55-.57.92-.57h6.71c.74,0,.77,1.31,0,1.31-3.37,0-5.2.02-5.2.02"/>
    <rect class="cls-3" x="86.54" y="352.06" width="6.95" height="1.9" rx=".95" ry=".95"/>
    <path class="cls-3" d="m166.2,349.26l-4.37,8.3c-.15.29-.45.46-.75.46-.13,0-.26-.04-.39-.1-.2-.11-.35-.28-.42-.5-.07-.21-.05-.45.06-.65l1.88-3.58-2.53-3.62c-.12-.11-.2-.27-.24-.47-.05-.25.03-.53.2-.71.15-.17.35-.27.58-.28.22,0,.45.07.61.21l2.2,3.29,1.65-3.14c.12-.2.29-.35.51-.42.22-.07.45-.04.65.07.22.12.38.33.43.59.03.19,0,.38-.08.55Z"/>
    <path class="cls-3" d="m173.98,352.2c.48.44.43.65.44.96,0,.31-.23.47-.53.71-1.75,1.43-2.78,2.44-2.78,2.44,0,0,.42.05,4.42.05.4,0,.79.33.79.78,0,.48-.22.88-.64.88-2.35,0-4.02-.05-5.97-.05-.79,0-1.34-.19-1.52-.57-.17-.36-.12-.9.55-1.52,1.91-1.72,3.47-2.88,3.47-2.88,0,0-2.17-1.97-3.75-3.56-.33-.33-.43-.62-.31-.85.11-.2.55-.57.92-.57h6.71c.74,0,.77,1.31,0,1.31-3.37,0-5.2.02-5.2.02"/>
    <rect class="cls-3" x="176" y="352.06" width="6.95" height="1.9" rx=".95" ry=".95"/>
    <rect class="cls-3" x="717.2" y="352.06" width="6.95" height="1.9" rx=".95" ry=".95"/>
    <path class="cls-3" d="m716.65,356.15c-.93-2.27-1.86-4.39-2.21-5.2-.38-.84-.67-1.52-.74-1.72-.32-.87-.6-1.18-1.12-1.22-.5.04-.79.34-1.11,1.22-.07.2-.36.87-.73,1.72-.73,1.66-1.56,3.6-2.22,5.2-.28.71-.29,1.21-.03,1.52.19.23.49.34.9.34h6.43c.41,0,.71-.12.9-.34.12-.15.18-.34.18-.58,0-.26-.07-.57-.22-.94Zm-1.67.34h-4.8c.17-.42.49-1.25.87-2.18.56-1.41,1.21-3.07,1.53-3.9.39.98,1.22,3.11,1.83,4.63l.57,1.44Z"/>
    <path class="cls-3" d="m703.04,349.74h-3.64c-1.34,0-1.31-1.73,0-1.73,5.4,0,5.35.02,5.67.38.23.27.43.73.15,1.14-1.71,2.48-4.54,6.52-4.54,6.52,0,0,3.43,0,4.33,0,1.35,0,1.4,1.91.13,1.91-8.37,0-9.53,1.13-2.09-8.23Z"/>
    <rect class="cls-3" x="626.45" y="352.06" width="6.95" height="1.9" rx=".95" ry=".95"/>
    <path class="cls-3" d="m626.07,356.15c-.93-2.27-1.86-4.39-2.21-5.2-.38-.84-.67-1.52-.74-1.72-.32-.87-.6-1.18-1.12-1.22-.5.04-.79.34-1.11,1.22-.07.2-.36.87-.73,1.72-.73,1.66-1.56,3.6-2.22,5.2-.28.71-.29,1.21-.03,1.52.19.23.49.34.9.34h6.43c.41,0,.71-.12.9-.34.12-.15.18-.34.18-.58,0-.26-.07-.57-.22-.94Zm-1.67.34h-4.8c.17-.42.49-1.25.87-2.18.56-1.41,1.21-3.07,1.53-3.9.39.98,1.22,3.11,1.83,4.63l.57,1.44Z"/>
    <path class="cls-3" d="m613.39,349.74h-3.64c-1.34,0-1.31-1.73,0-1.73,5.4,0,5.35.02,5.67.38.23.27.43.73.15,1.14-1.71,2.48-4.54,6.52-4.54,6.52,0,0,3.43,0,4.33,0,1.35,0,1.4,1.91.13,1.91-8.37,0-9.53,1.13-2.09-8.23Z"/>
    <path class="cls-3" d="m256.42,349.26l-4.37,8.3c-.15.29-.45.46-.75.46-.13,0-.26-.04-.39-.1-.2-.11-.35-.28-.42-.5-.07-.21-.05-.45.06-.65l1.88-3.58-2.53-3.62c-.12-.11-.2-.27-.24-.47-.05-.25.03-.53.2-.71.15-.17.35-.27.58-.28.22,0,.45.07.61.21l2.2,3.29,1.65-3.14c.12-.2.29-.35.51-.42.22-.07.45-.04.65.07.22.12.38.33.43.59.03.19,0,.38-.08.55Z"/>
    <rect class="cls-3" x="266.6" y="352.06" width="6.95" height="1.9" rx=".95" ry=".95"/>
    <path class="cls-3" d="m265.96,356.15c-.93-2.27-1.86-4.39-2.21-5.2-.38-.84-.67-1.52-.74-1.72-.32-.87-.6-1.18-1.12-1.22-.5.04-.79.34-1.11,1.22-.07.2-.36.87-.73,1.72-.73,1.66-1.56,3.6-2.22,5.2-.28.71-.29,1.21-.03,1.52.19.23.49.34.9.34h6.43c.41,0,.71-.12.9-.34.12-.15.18-.34.18-.58,0-.26-.07-.57-.22-.94Zm-1.67.34h-4.8c.17-.42.49-1.25.87-2.18.56-1.41,1.21-3.07,1.53-3.9.39.98,1.22,3.11,1.83,4.63l.57,1.44Z"/>
    <path class="cls-3" d="m444.15,352.2c.48.44.43.65.44.96s-.23.47-.53.71c-1.75,1.43-2.78,2.44-2.78,2.44,0,0,.42.05,4.42.05.4,0,.79.33.79.78,0,.48-.22.88-.64.88-2.35,0-4.02-.05-5.97-.05-.79,0-1.34-.19-1.52-.57-.17-.36-.12-.9.55-1.52,1.91-1.72,3.47-2.88,3.47-2.88,0,0-2.17-1.97-3.75-3.56-.33-.33-.43-.62-.31-.85.11-.2.55-.57.92-.57h6.71c.74,0,.77,1.31,0,1.31-3.37,0-5.2.02-5.2.02"/>
    <rect class="cls-3" x="448.17" y="352.06" width="6.95" height="1.9" rx=".95" ry=".95"/>
    <path class="cls-3" d="m433.51,349.74h-3.64c-1.34,0-1.31-1.73,0-1.73,5.4,0,5.35.02,5.67.38.23.27.43.73.15,1.14-1.71,2.48-4.54,6.52-4.54,6.52,0,0,3.43,0,4.33,0,1.35,0,1.4,1.91.13,1.91-8.37,0-9.53,1.13-2.09-8.23Z"/>
    <path class="cls-3" d="m534.33,352.2c.48.44.43.65.44.96s-.23.47-.53.71c-1.75,1.43-2.78,2.44-2.78,2.44,0,0,.42.05,4.42.05.4,0,.79.33.79.78,0,.48-.22.88-.64.88-2.35,0-4.02-.05-5.97-.05-.79,0-1.34-.19-1.52-.57-.17-.36-.12-.9.55-1.52,1.91-1.72,3.47-2.88,3.47-2.88,0,0-2.17-1.97-3.75-3.56-.33-.33-.43-.62-.31-.85.11-.2.55-.57.92-.57h6.71c.74,0,.77,1.31,0,1.31-3.37,0-5.2.02-5.2.02"/>
    <rect class="cls-3" x="536.48" y="352.06" width="6.95" height="1.9" rx=".95" ry=".95"/>
    <path class="cls-3" d="m522.81,349.74h-3.64c-1.34,0-1.31-1.73,0-1.73,5.4,0,5.35.02,5.67.38.23.27.43.73.15,1.14-1.71,2.48-4.54,6.52-4.54,6.52,0,0,3.43,0,4.33,0,1.35,0,1.4,1.91.13,1.91-8.37,0-9.53,1.13-2.09-8.23Z"/>
    <path class="cls-3" d="m346.12,349.26l-4.37,8.3c-.15.29-.45.46-.75.46-.13,0-.26-.04-.39-.1-.2-.11-.35-.28-.42-.5-.07-.21-.05-.45.06-.65l1.88-3.58-2.53-3.62c-.12-.11-.2-.27-.24-.47-.05-.25.03-.53.2-.71.15-.17.35-.27.58-.28.22,0,.45.07.61.21l2.2,3.29,1.65-3.14c.12-.2.29-.35.51-.42.22-.07.45-.04.65.07.22.12.38.33.43.59.03.19,0,.38-.08.55Z"/>
    <rect class="cls-3" x="357.64" y="352.06" width="6.95" height="1.9" rx=".95" ry=".95"/>
    <path class="cls-3" d="m356.91,356.15c-.93-2.27-1.86-4.39-2.21-5.2-.38-.84-.67-1.52-.74-1.72-.32-.87-.6-1.18-1.12-1.22-.5.04-.79.34-1.11,1.22-.07.2-.36.87-.73,1.72-.73,1.66-1.56,3.6-2.22,5.2-.28.71-.29,1.21-.03,1.52.19.23.49.34.9.34h6.43c.41,0,.71-.12.9-.34.12-.15.18-.34.18-.58,0-.26-.07-.57-.22-.94Zm-1.67.34h-4.8c.17-.42.49-1.25.87-2.18.56-1.41,1.21-3.07,1.53-3.9.39.98,1.22,3.11,1.83,4.63l.57,1.44Z"/>
    <path class="cls-3" d="m705.98,578.63h-3.54c-.32,0-.53-.32-.41-.62,2.67-6.29.99-7.71-1.08-7.85-.04,0-.08,0-.12,0h-.02s-.09,0-.13,0c-.04,0-.08,0-.12,0-2.07.14-3.75,1.56-1.08,7.85.12.29-.09.62-.41.62h-3.54c-.14,0-.66-1.27.12-1.73.69-.41.99.09,1.81.11-2.24-4.96.04-7.96,2.78-8.36.08-.02.94-.02,1.02,0,2.74.41,5.02,3.4,2.78,8.36.82-.02,1.12-.51,1.81-.11.78.46.26,1.73.12,1.73Z"/>
    <path class="cls-3" d="m616.31,578.63h-3.54c-.32,0-.53-.32-.41-.62,2.67-6.29.99-7.71-1.08-7.85-.04,0-.08,0-.12,0h-.02s-.09,0-.13,0c-.04,0-.08,0-.12,0-2.07.14-3.75,1.56-1.08,7.85.12.29-.09.62-.41.62h-3.54c-.14,0-.66-1.27.12-1.73.69-.41.99.09,1.81.11-2.24-4.96.04-7.96,2.78-8.36.08-.02.94-.02,1.02,0,2.74.41,5.02,3.4,2.78,8.36.82-.02,1.12-.51,1.81-.11.78.46.26,1.73.12,1.73Z"/>
    <path class="cls-3" d="m264.91,569.88l-4.37,8.3c-.15.29-.45.46-.75.46-.13,0-.26-.04-.39-.1-.2-.11-.35-.28-.42-.5-.07-.21-.05-.45.06-.65l1.88-3.58-2.53-3.62c-.12-.11-.2-.27-.24-.47-.05-.25.03-.53.2-.71.15-.17.35-.27.58-.28.22,0,.45.07.61.21l2.2,3.29,1.65-3.14c.12-.2.29-.35.51-.42.22-.07.45-.04.65.07.22.12.38.33.43.59.03.19,0,.38-.08.55Z"/>
    <path class="cls-3" d="m625.48,569.88l-4.37,8.3c-.15.29-.45.46-.75.46-.13,0-.26-.04-.39-.1-.2-.11-.35-.28-.42-.5-.07-.21-.05-.45.06-.65l1.88-3.58-2.53-3.62c-.12-.11-.2-.27-.24-.47-.05-.25.03-.53.2-.71.15-.17.35-.27.58-.28.22,0,.45.07.61.21l2.2,3.29,1.65-3.14c.12-.2.29-.35.51-.42.22-.07.45-.04.65.07.22.12.38.33.43.59.03.19,0,.38-.08.55Z"/>
    <path class="cls-3" d="m353.51,570.37c-1.86,0-2.27,0-3.51,0-.46,0-1.11-.2-1.11-.85,0-.57.42-.88,1.07-.88,4.93,0,5.05-.05,5.58.38.28.22.43.73.15,1.14-1.71,2.48-4.64,6.6-4.64,6.6,0,0,2.47-.05,3.73-.05,1.57,0,1.46,1.88.13,1.88-8.37,0-8.83,1.14-1.4-8.22Z"/>
    <path class="cls-3" d="m713.77,570.37c-1.86,0-2.27,0-3.51,0-.46,0-1.11-.2-1.11-.85,0-.57.42-.88,1.07-.88,4.93,0,5.05-.05,5.58.38.28.22.43.73.15,1.14-1.71,2.48-4.64,6.6-4.64,6.6,0,0,2.47-.05,3.73-.05,1.57,0,1.46,1.88.13,1.88-8.37,0-8.83,1.14-1.4-8.22Z"/>
    <path class="cls-3" d="m176.14,577.14c.16.19.21.44.19.68-.03.24-.16.46-.34.61-.4.3-.98.23-1.3-.17l-2.45-3.14-2.45,3.14c-.18.23-.45.36-.72.36-.19,0-.4-.07-.57-.19-.19-.15-.32-.37-.35-.61-.03-.24.03-.49.19-.68l2.73-3.51-2.73-3.51c-.13-.17-.19-.36-.19-.57,0-.28.14-.56.36-.73.19-.15.42-.21.67-.19.24.03.47.16.61.35l2.45,3.14,2.44-3.14c.33-.41.91-.48,1.31-.16.22.17.35.43.35.72,0,.2-.07.4-.19.57l-2.73,3.51,2.73,3.51Z"/>
    <path class="cls-3" d="m536.52,577.14c.16.19.21.44.19.68-.03.24-.16.46-.34.61-.4.3-.98.23-1.3-.17l-2.45-3.14-2.45,3.14c-.18.23-.45.36-.72.36-.19,0-.4-.07-.57-.19-.19-.15-.32-.37-.35-.61-.03-.24.03-.49.19-.68l2.73-3.51-2.73-3.51c-.13-.17-.19-.36-.19-.57,0-.28.14-.56.36-.73.19-.15.42-.21.67-.19.24.03.47.16.61.35l2.45,3.14,2.44-3.14c.33-.41.91-.48,1.31-.16.22.17.35.43.35.72,0,.2-.07.4-.19.57l-2.73,3.51,2.73,3.51Z"/>
    <path class="cls-3" d="m252.99,568.63c-1.33,0-3.23,1.68-3.23,5,0,2.56,1.22,5,3.23,5s3.27-2.44,3.27-5c0-3.48-1.94-5-3.27-5Zm.01,1.37c.96,0,1.64,1.13,1.7,1.93.02.3,0,.81-.55.81h-2.33c-.46,0-.51-.5-.5-.76.07-.8.81-1.98,1.69-1.98Zm0,7.26c-1.08,0-1.72-1.28-1.79-2.08-.01-.25,0-.76.5-.76h2.53c.56,0,.58.5.55.81-.06.8-.72,2.03-1.8,2.03Z"/>
    <path class="cls-3" d="m440.85,238.89c-1.33,0-3.23,1.68-3.23,5,0,2.56,1.22,5,3.23,5s3.27-2.44,3.27-5c0-3.48-1.94-5-3.27-5Zm.01,1.37c.96,0,1.64,1.13,1.7,1.93.02.3,0,.81-.55.81h-2.33c-.46,0-.51-.5-.5-.76.07-.8.81-1.98,1.69-1.98Zm0,7.26c-1.08,0-1.72-1.28-1.79-2.08-.01-.25,0-.76.5-.76h2.53c.56,0,.58.5.55.81-.06.8-.72,2.03-1.8,2.03Z"/>
    <path class="cls-3" d="m531.81,238.89c-1.33,0-3.23,1.68-3.23,5,0,2.56,1.22,5,3.23,5s3.27-2.44,3.27-5c0-3.48-1.94-5-3.27-5Zm.01,1.37c.96,0,1.64,1.13,1.7,1.93.02.3,0,.81-.55.81h-2.33c-.46,0-.51-.5-.5-.76.07-.8.81-1.98,1.69-1.98Zm0,7.26c-1.08,0-1.72-1.28-1.79-2.08-.01-.25,0-.76.5-.76h2.53c.56,0,.58.5.55.81-.06.8-.72,2.03-1.8,2.03Z"/>
    <path class="cls-3" d="m342.06,568.63c-1.33,0-3.23,1.68-3.23,5,0,2.56,1.22,5,3.23,5s3.27-2.44,3.27-5c0-3.48-1.94-5-3.27-5Zm.01,1.37c.96,0,1.64,1.13,1.7,1.93.02.3,0,.81-.55.81h-2.33c-.46,0-.51-.5-.5-.76.07-.8.81-1.98,1.69-1.98Zm0,7.26c-1.08,0-1.72-1.28-1.79-2.08-.01-.25,0-.76.5-.76h2.53c.56,0,.58.5.55.81-.06.8-.72,2.03-1.8,2.03Z"/>
    <rect class="cls-3" x="176.71" y="572.68" width="6.95" height="1.9" rx=".95" ry=".95"/>
    <rect class="cls-3" x="538.03" y="572.68" width="6.95" height="1.9" rx=".95" ry=".95"/>
    <rect class="cls-3" x="265.44" y="572.68" width="6.95" height="1.9" rx=".95" ry=".95"/>
    <rect class="cls-3" x="355.94" y="572.68" width="6.95" height="1.9" rx=".95" ry=".95"/>
    <rect class="cls-3" x="716.37" y="572.68" width="6.95" height="1.9" rx=".95" ry=".95"/>
    <rect class="cls-3" x="626.17" y="572.68" width="6.95" height="1.9" rx=".95" ry=".95"/>
    <path class="cls-3" d="m526.36,578.63h-3.54c-.32,0-.53-.32-.41-.62,2.67-6.29.99-7.71-1.08-7.85-.04,0-.08,0-.12,0h-.02s-.09,0-.13,0c-.04,0-.08,0-.12,0-2.07.14-3.75,1.56-1.08,7.85.12.29-.09.62-.41.62h-3.54c-.14,0-.66-1.27.12-1.73.69-.41.99.09,1.81.11-2.24-4.96.04-7.96,2.78-8.36.08-.02.94-.02,1.02,0,2.74.41,5.02,3.4,2.78,8.36.82-.02,1.12-.51,1.81-.11.78.46.26,1.73.12,1.73Z"/>
    <path class="cls-3" d="m628.49,248.89h-3.54c-.32,0-.53-.32-.41-.62,2.67-6.29.99-7.71-1.08-7.85-.04,0-.08,0-.12,0h-.02s-.09,0-.13,0c-.04,0-.08,0-.12,0-2.07.14-3.75,1.56-1.08,7.85.12.29-.09.62-.41.62h-3.54c-.14,0-.66-1.27.12-1.73.69-.41.99.09,1.81.11-2.24-4.96.04-7.96,2.78-8.36.08-.02.94-.02,1.02,0,2.74.41,5.02,3.4,2.78,8.36.82-.02,1.12-.51,1.81-.11.78.46.26,1.73.12,1.73Z"/>
    <path class="cls-3" d="m718.75,248.89h-3.54c-.32,0-.53-.32-.41-.62,2.67-6.29.99-7.71-1.08-7.85-.04,0-.08,0-.12,0h-.02s-.09,0-.13,0c-.04,0-.08,0-.12,0-2.07.14-3.75,1.56-1.08,7.85.12.29-.09.62-.41.62h-3.54c-.14,0-.66-1.27.12-1.73.69-.41.99.09,1.81.11-2.24-4.96.04-7.96,2.78-8.36.08-.02.94-.02,1.02,0,2.74.41,5.02,3.4,2.78,8.36.82-.02,1.12-.51,1.81-.11.78.46.26,1.73.12,1.73Z"/>
    <path class="cls-3" d="m81.74,238.89c-1.33,0-3.23,1.68-3.23,5,0,2.56,1.22,5,3.23,5s3.27-2.44,3.27-5c0-3.48-1.94-5-3.27-5Zm.01,1.37c.96,0,1.64,1.13,1.7,1.93.02.3,0,.81-.55.81h-2.33c-.46,0-.51-.5-.5-.76.07-.8.81-1.98,1.69-1.98Zm0,7.26c-1.08,0-1.72-1.28-1.79-2.08-.01-.25,0-.76.5-.76h2.53c.56,0,.58.5.55.81-.06.8-.72,2.03-1.8,2.03Z"/>
    <path class="cls-3" d="m172.02,238.89c-1.33,0-3.23,1.68-3.23,5,0,2.56,1.22,5,3.23,5s3.27-2.44,3.27-5c0-3.48-1.94-5-3.27-5Zm.01,1.37c.96,0,1.64,1.13,1.7,1.93.02.3,0,.81-.55.81h-2.33c-.46,0-.51-.5-.5-.76.07-.8.81-1.98,1.69-1.98Zm0,7.26c-1.08,0-1.72-1.28-1.79-2.08-.01-.25,0-.76.5-.76h2.53c.56,0,.58.5.55.81-.06.8-.72,2.03-1.8,2.03Z"/>
    <path class="cls-3" d="m269.37,248.89h-3.54c-.32,0-.53-.32-.41-.62,2.67-6.29.99-7.71-1.08-7.85-.04,0-.08,0-.12,0h-.02s-.09,0-.13,0c-.04,0-.08,0-.12,0-2.07.14-3.75,1.56-1.08,7.85.12.29-.09.62-.41.62h-3.54c-.14,0-.66-1.27.12-1.73.69-.41.99.09,1.81.11-2.24-4.96.04-7.96,2.78-8.36.08-.02.94-.02,1.02,0,2.74.41,5.02,3.4,2.78,8.36.82-.02,1.12-.51,1.81-.11.78.46.26,1.73.12,1.73Z"/>
    <path class="cls-3" d="m359.09,248.89h-3.54c-.32,0-.53-.32-.41-.62,2.67-6.29.99-7.71-1.08-7.85-.04,0-.08,0-.12,0h-.02s-.09,0-.13,0c-.04,0-.08,0-.12,0-2.07.14-3.75,1.56-1.08,7.85.12.29-.09.62-.41.62h-3.54c-.14,0-.66-1.27.12-1.73.69-.41.99.09,1.81.11-2.24-4.96.04-7.96,2.78-8.36.08-.02.94-.02,1.02,0,2.74.41,5.02,3.4,2.78,8.36.82-.02,1.12-.51,1.81-.11.78.46.26,1.73.12,1.73Z"/>
    <path class="cls-3" d="m162.69,568.63c-1.33,0-3.23,1.68-3.23,5,0,2.56,1.22,5,3.23,5s3.27-2.44,3.27-5c0-3.48-1.94-5-3.27-5Zm.01,1.37c.96,0,1.64,1.13,1.7,1.93.02.3,0,.81-.55.81h-2.33c-.46,0-.51-.5-.5-.76.07-.8.81-1.98,1.69-1.98Zm0,7.26c-1.08,0-1.72-1.28-1.79-2.08-.01-.25,0-.76.5-.76h2.53c.56,0,.58.5.55.81-.06.8-.72,2.03-1.8,2.03Z"/>
    <path class="cls-3" d="m87.45,458.64c-.46-.06-.96.28-1.19,1.14-.42,1.54-.92,3.7-1.44,5.63-1.11-2.72-1.86-4.39-2.5-4.38-.01,0-.02,0-.03.01-.01-.01-.02-.01-.03-.01-.64-.01-1.39,1.65-2.5,4.38-.51-1.93-1.02-4.09-1.44-5.63-.24-.86-.73-1.2-1.19-1.14-.59.07-.98.49-.74,1.25.25.81,1.84,6.07,2.3,7.72.47,1.65,1.59.9,1.8.49.21-.41,1.36-3.67,1.8-4.59.44.92,1.59,4.18,1.8,4.59.21.41,1.33,1.16,1.8-.49.46-1.64,2.05-6.9,2.3-7.72.24-.76-.15-1.18-.74-1.25Z"/>
    <path class="cls-3" d="m449.28,458.64c-.46-.06-.96.28-1.19,1.14-.42,1.54-.92,3.7-1.44,5.63-1.11-2.72-1.86-4.39-2.5-4.38-.01,0-.02,0-.03.01-.01-.01-.02-.01-.03-.01-.64-.01-1.39,1.65-2.5,4.38-.51-1.93-1.02-4.09-1.44-5.63-.24-.86-.73-1.2-1.19-1.14-.59.07-.98.49-.74,1.25.25.81,1.84,6.07,2.3,7.72.47,1.65,1.59.9,1.8.49.21-.41,1.36-3.67,1.8-4.59.44.92,1.59,4.18,1.8,4.59.21.41,1.33,1.16,1.8-.49.46-1.64,2.05-6.9,2.3-7.72.24-.76-.15-1.18-.74-1.25Z"/>
    <path class="cls-3" d="m435.37,466.77c-.93-2.27-1.86-4.39-2.21-5.2-.38-.84-.67-1.52-.74-1.72-.32-.87-.6-1.18-1.12-1.22-.5.04-.79.34-1.11,1.22-.07.2-.36.87-.73,1.72-.73,1.66-1.56,3.6-2.22,5.2-.28.71-.29,1.21-.03,1.52.19.23.49.34.9.34h6.43c.41,0,.71-.12.9-.34.12-.15.18-.34.18-.58,0-.26-.07-.57-.22-.94Zm-1.67.34h-4.8c.17-.42.49-1.25.87-2.18.56-1.41,1.21-3.07,1.53-3.9.39.98,1.22,3.11,1.83,4.63l.57,1.44Z"/>
    <path class="cls-3" d="m72.53,462.82c.48.44.43.65.44.96s-.23.47-.53.71c-1.75,1.43-2.78,2.44-2.78,2.44,0,0,.42.05,4.42.05.4,0,.79.33.79.78,0,.48-.22.88-.64.88-2.35,0-4.02-.05-5.97-.05-.79,0-1.34-.19-1.52-.57-.17-.36-.12-.9.55-1.52,1.91-1.72,3.47-2.88,3.47-2.88,0,0-2.17-1.97-3.75-3.56-.33-.33-.43-.62-.31-.85.11-.2.55-.57.92-.57h6.71c.74,0,.77,1.31,0,1.31-3.37,0-5.2.02-5.2.02"/>
    <rect class="cls-3" x="89.29" y="462.68" width="6.95" height="1.9" rx=".95" ry=".95"/>
    <rect class="cls-3" x="450.61" y="462.68" width="6.95" height="1.9" rx=".95" ry=".95"/>
    <path class="cls-3" d="m87.87,568.64c-.46-.06-.96.28-1.19,1.14-.42,1.54-.92,3.7-1.44,5.63-1.11-2.72-1.86-4.39-2.5-4.38-.01,0-.02,0-.03.01-.01-.01-.02-.01-.03-.01-.64-.01-1.39,1.65-2.5,4.38-.51-1.93-1.02-4.09-1.44-5.63-.24-.86-.73-1.2-1.19-1.14-.59.07-.98.49-.74,1.25.25.81,1.84,6.07,2.3,7.72.47,1.65,1.59.9,1.8.49.21-.41,1.36-3.67,1.8-4.59.44.92,1.59,4.18,1.8,4.59.21.41,1.33,1.16,1.8-.49.46-1.64,2.05-6.9,2.3-7.72.24-.76-.15-1.18-.74-1.25Z"/>
    <path class="cls-3" d="m449.25,568.64c-.46-.06-.96.28-1.19,1.14-.42,1.54-.92,3.7-1.44,5.63-1.11-2.72-1.86-4.39-2.5-4.38-.01,0-.02,0-.03.01-.01-.01-.02-.01-.03-.01-.64-.01-1.39,1.65-2.5,4.38-.51-1.93-1.02-4.09-1.44-5.63-.24-.86-.73-1.2-1.19-1.14-.59.07-.98.49-.74,1.25.25.81,1.84,6.07,2.3,7.72.47,1.65,1.59.9,1.8.49.21-.41,1.36-3.67,1.8-4.59.44.92,1.59,4.18,1.8,4.59.21.41,1.33,1.16,1.8-.49.46-1.64,2.05-6.9,2.3-7.72.24-.76-.15-1.18-.74-1.25Z"/>
    <rect class="cls-3" x="90.46" y="572.68" width="6.95" height="1.9" rx=".95" ry=".95"/>
    <path class="cls-3" d="m435.57,578.63h-3.54c-.32,0-.53-.32-.41-.62,2.67-6.29.99-7.71-1.08-7.85-.04,0-.08,0-.12,0h-.02s-.09,0-.13,0c-.04,0-.08,0-.12,0-2.07.14-3.75,1.56-1.08,7.85.12.29-.09.62-.41.62h-3.54c-.14,0-.66-1.27.12-1.73.69-.41.99.09,1.81.11-2.24-4.96.04-7.96,2.78-8.36.08-.02.94-.02,1.02,0,2.74.41,5.02,3.4,2.78,8.36.82-.02,1.12-.51,1.81-.11.78.46.26,1.73.12,1.73Z"/>
    <path class="cls-3" d="m70.91,568.63c-1.33,0-3.23,1.68-3.23,5,0,2.56,1.22,5,3.23,5s3.27-2.44,3.27-5c0-3.48-1.94-5-3.27-5Zm.01,1.37c.96,0,1.64,1.13,1.7,1.93.02.3,0,.81-.55.81h-2.33c-.46,0-.51-.5-.5-.76.07-.8.81-1.98,1.69-1.98Zm0,7.26c-1.08,0-1.72-1.28-1.79-2.08-.01-.25,0-.76.5-.76h2.53c.56,0,.58.5.55.81-.06.8-.72,2.03-1.8,2.03Z"/>
    <rect class="cls-3" x="450.72" y="572.68" width="6.95" height="1.9" rx=".95" ry=".95"/>
  </g>
  <g>
    <g>
      <g>
        <circle class="cls-3" cx="78.8" cy="229.39" r="2.5"/>
        <circle class="cls-3" cx="108.8" cy="199.39" r="2.5"/>
        <circle class="cls-3" cx="78.8" cy="169.39" r="2.5"/>
        <circle class="cls-3" cx="48.8" cy="199.39" r="2.5"/>
        <circle class="cls-3" cx="78.8" cy="199.39" r="1.12"/>
      </g>
      <g>
        <circle class="cls-3" cx="168.8" cy="229.39" r="2.5"/>
        <circle class="cls-3" cx="198.8" cy="199.39" r="2.5"/>
        <circle class="cls-3" cx="168.8" cy="169.39" r="2.5"/>
        <circle class="cls-3" cx="138.8" cy="199.39" r="2.5"/>
        <circle class="cls-3" cx="168.8" cy="199.39" r="1.12"/>
      </g>
      <g>
        <circle class="cls-3" cx="258.8" cy="229.39" r="2.5"/>
        <circle class="cls-3" cx="288.8" cy="199.39" r="2.5"/>
        <circle class="cls-3" cx="258.8" cy="169.39" r="2.5"/>
        <circle class="cls-3" cx="228.8" cy="199.39" r="2.5"/>
        <circle class="cls-3" cx="258.8" cy="199.39" r="1.12"/>
      </g>
      <g>
        <circle class="cls-3" cx="348.8" cy="229.39" r="2.5"/>
        <circle class="cls-3" cx="378.8" cy="199.39" r="2.5"/>
        <circle class="cls-3" cx="348.8" cy="169.39" r="2.5"/>
        <circle class="cls-3" cx="318.8" cy="199.39" r="2.5"/>
        <circle class="cls-3" cx="348.8" cy="199.39" r="1.12"/>
      </g>
      <g>
        <circle class="cls-3" cx="438.8" cy="229.39" r="2.5"/>
        <circle class="cls-3" cx="468.8" cy="199.39" r="2.5"/>
        <circle class="cls-3" cx="438.8" cy="169.39" r="2.5"/>
        <circle class="cls-3" cx="408.8" cy="199.39" r="2.5"/>
        <circle class="cls-3" cx="438.8" cy="199.39" r="1.12"/>
      </g>
      <g>
        <circle class="cls-3" cx="528.8" cy="229.39" r="2.5"/>
        <circle class="cls-3" cx="558.8" cy="199.39" r="2.5"/>
        <circle class="cls-3" cx="528.8" cy="169.39" r="2.5"/>
        <circle class="cls-3" cx="498.8" cy="199.39" r="2.5"/>
        <circle class="cls-3" cx="528.8" cy="199.39" r="1.12"/>
      </g>
      <g>
        <circle class="cls-3" cx="618.8" cy="229.39" r="2.5"/>
        <circle class="cls-3" cx="648.8" cy="199.39" r="2.5"/>
        <circle class="cls-3" cx="618.8" cy="169.39" r="2.5"/>
        <circle class="cls-3" cx="588.8" cy="199.39" r="2.5"/>
        <circle class="cls-3" cx="618.8" cy="199.39" r="1.12"/>
      </g>
      <g>
        <circle class="cls-3" cx="708.8" cy="229.39" r="2.5"/>
        <circle class="cls-3" cx="738.8" cy="199.39" r="2.5"/>
        <circle class="cls-3" cx="708.8" cy="169.39" r="2.5"/>
        <circle class="cls-3" cx="678.8" cy="199.39" r="2.5"/>
        <circle class="cls-3" cx="708.8" cy="199.39" r="1.12"/>
      </g>
    </g>
    <g>
      <g>
        <circle class="cls-3" cx="78.8" cy="339.39" r="2.5"/>
        <circle class="cls-3" cx="108.8" cy="309.39" r="2.5"/>
        <circle class="cls-3" cx="78.8" cy="279.39" r="2.5"/>
        <circle class="cls-3" cx="48.8" cy="309.39" r="2.5"/>
        <circle class="cls-3" cx="78.8" cy="309.39" r="1.12"/>
      </g>
      <g>
        <circle class="cls-3" cx="168.8" cy="339.39" r="2.5"/>
        <circle class="cls-3" cx="198.8" cy="309.39" r="2.5"/>
        <circle class="cls-3" cx="168.8" cy="279.39" r="2.5"/>
        <circle class="cls-3" cx="138.8" cy="309.39" r="2.5"/>
        <circle class="cls-3" cx="168.8" cy="309.39" r="1.12"/>
      </g>
      <g>
        <circle class="cls-3" cx="258.8" cy="339.39" r="2.5"/>
        <circle class="cls-3" cx="288.8" cy="309.39" r="2.5"/>
        <circle class="cls-3" cx="258.8" cy="279.39" r="2.5"/>
        <circle class="cls-3" cx="228.8" cy="309.39" r="2.5"/>
        <circle class="cls-3" cx="258.8" cy="309.39" r="1.12"/>
      </g>
      <g>
        <circle class="cls-3" cx="348.8" cy="339.39" r="2.5"/>
        <circle class="cls-3" cx="378.8" cy="309.39" r="2.5"/>
        <circle class="cls-3" cx="348.8" cy="279.39" r="2.5"/>
        <circle class="cls-3" cx="318.8" cy="309.39" r="2.5"/>
        <circle class="cls-3" cx="348.8" cy="309.39" r="1.12"/>
      </g>
      <g>
        <circle class="cls-3" cx="528.8" cy="339.39" r="2.5"/>
        <circle class="cls-3" cx="558.8" cy="309.39" r="2.5"/>
        <circle class="cls-3" cx="528.8" cy="279.39" r="2.5"/>
        <circle class="cls-3" cx="498.8" cy="309.39" r="2.5"/>
        <circle class="cls-3" cx="528.8" cy="309.39" r="1.12"/>
      </g>
      <g>
        <circle class="cls-3" cx="438.8" cy="339.39" r="2.5"/>
        <circle class="cls-3" cx="468.8" cy="309.39" r="2.5"/>
        <circle class="cls-3" cx="438.8" cy="279.39" r="2.5"/>
        <circle class="cls-3" cx="408.8" cy="309.39" r="2.5"/>
        <circle class="cls-3" cx="438.8" cy="309.39" r="1.12"/>
      </g>
      <g>
        <circle class="cls-3" cx="708.8" cy="339.39" r="2.5"/>
        <circle class="cls-3" cx="738.8" cy="309.39" r="2.5"/>
        <circle class="cls-3" cx="708.8" cy="279.39" r="2.5"/>
        <circle class="cls-3" cx="678.8" cy="309.39" r="2.5"/>
        <circle class="cls-3" cx="708.8" cy="309.39" r="1.12"/>
      </g>
      <g>
        <circle class="cls-3" cx="618.8" cy="339.39" r="2.5"/>
        <circle class="cls-3" cx="648.8" cy="309.39" r="2.5"/>
        <circle class="cls-3" cx="618.8" cy="279.39" r="2.5"/>
        <circle class="cls-3" cx="588.8" cy="309.39" r="2.5"/>
        <circle class="cls-3" cx="618.8" cy="309.39" r="1.12"/>
      </g>
    </g>
    <g>
      <g>
        <circle class="cls-3" cx="78.8" cy="449.39" r="2.5"/>
        <circle class="cls-3" cx="108.8" cy="419.39" r="2.5"/>
        <circle class="cls-3" cx="78.8" cy="389.39" r="2.5"/>
        <circle class="cls-3" cx="48.8" cy="419.39" r="2.5"/>
        <circle class="cls-3" cx="78.8" cy="419.39" r="1.12"/>
      </g>
      <g>
        <circle class="cls-3" cx="168.8" cy="449.39" r="2.5"/>
        <circle class="cls-3" cx="198.8" cy="419.39" r="2.5"/>
        <circle class="cls-3" cx="168.8" cy="389.39" r="2.5"/>
        <circle class="cls-3" cx="138.8" cy="419.39" r="2.5"/>
        <circle class="cls-3" cx="168.8" cy="419.39" r="1.12"/>
      </g>
      <g>
        <circle class="cls-3" cx="258.8" cy="449.39" r="2.5"/>
        <circle class="cls-3" cx="288.8" cy="419.39" r="2.5"/>
        <circle class="cls-3" cx="258.8" cy="389.39" r="2.5"/>
        <circle class="cls-3" cx="228.8" cy="419.39" r="2.5"/>
        <circle class="cls-3" cx="258.8" cy="419.39" r="1.12"/>
      </g>
      <g>
        <circle class="cls-3" cx="348.8" cy="449.39" r="2.5"/>
        <circle class="cls-3" cx="378.8" cy="419.39" r="2.5"/>
        <circle class="cls-3" cx="348.8" cy="389.39" r="2.5"/>
        <circle class="cls-3" cx="318.8" cy="419.39" r="2.5"/>
        <circle class="cls-3" cx="348.8" cy="419.39" r="1.12"/>
      </g>
      <g>
        <circle class="cls-3" cx="438.8" cy="449.39" r="2.5"/>
        <circle class="cls-3" cx="468.8" cy="419.39" r="2.5"/>
        <circle class="cls-3" cx="438.8" cy="389.39" r="2.5"/>
        <circle class="cls-3" cx="408.8" cy="419.39" r="2.5"/>
        <circle class="cls-3" cx="438.8" cy="419.39" r="1.12"/>
      </g>
      <g>
        <circle class="cls-3" cx="528.8" cy="449.39" r="2.5"/>
        <circle class="cls-3" cx="558.8" cy="419.39" r="2.5"/>
        <circle class="cls-3" cx="528.8" cy="389.39" r="2.5"/>
        <circle class="cls-3" cx="498.8" cy="419.39" r="2.5"/>
        <circle class="cls-3" cx="528.8" cy="419.39" r="1.12"/>
      </g>
      <g>
        <circle class="cls-3" cx="618.8" cy="449.39" r="2.5"/>
        <circle class="cls-3" cx="648.8" cy="419.39" r="2.5"/>
        <circle class="cls-3" cx="618.8" cy="389.39" r="2.5"/>
        <circle class="cls-3" cx="588.8" cy="419.39" r="2.5"/>
        <circle class="cls-3" cx="618.8" cy="419.39" r="1.12"/>
      </g>
      <g>
        <circle class="cls-3" cx="708.8" cy="449.39" r="2.5"/>
        <circle class="cls-3" cx="738.8" cy="419.39" r="2.5"/>
        <circle class="cls-3" cx="708.8" cy="389.39" r="2.5"/>
        <circle class="cls-3" cx="678.8" cy="419.39" r="2.5"/>
        <circle class="cls-3" cx="708.8" cy="419.39" r="1.12"/>
      </g>
    </g>
    <g>
      <g>
        <circle class="cls-3" cx="78.8" cy="559.39" r="2.5"/>
        <circle class="cls-3" cx="108.8" cy="529.39" r="2.5"/>
        <circle class="cls-3" cx="78.8" cy="499.39" r="2.5"/>
        <circle class="cls-3" cx="48.8" cy="529.39" r="2.5"/>
        <circle class="cls-3" cx="78.8" cy="529.39" r="1.12"/>
      </g>
      <g>
        <circle class="cls-3" cx="168.8" cy="559.39" r="2.5"/>
        <circle class="cls-3" cx="198.8" cy="529.39" r="2.5"/>
        <circle class="cls-3" cx="168.8" cy="499.39" r="2.5"/>
        <circle class="cls-3" cx="138.8" cy="529.39" r="2.5"/>
        <circle class="cls-3" cx="168.8" cy="529.39" r="1.12"/>
      </g>
      <g>
        <circle class="cls-3" cx="258.8" cy="559.39" r="2.5"/>
        <circle class="cls-3" cx="288.8" cy="529.39" r="2.5"/>
        <circle class="cls-3" cx="258.8" cy="499.39" r="2.5"/>
        <circle class="cls-3" cx="228.8" cy="529.39" r="2.5"/>
        <circle class="cls-3" cx="258.8" cy="529.39" r="1.12"/>
      </g>
      <g>
        <circle class="cls-3" cx="348.8" cy="559.39" r="2.5"/>
        <circle class="cls-3" cx="378.8" cy="529.39" r="2.5"/>
        <circle class="cls-3" cx="348.8" cy="499.39" r="2.5"/>
        <circle class="cls-3" cx="318.8" cy="529.39" r="2.5"/>
        <circle class="cls-3" cx="348.8" cy="529.39" r="1.12"/>
      </g>
      <g>
        <circle class="cls-3" cx="438.8" cy="559.39" r="2.5"/>
        <circle class="cls-3" cx="468.8" cy="529.39" r="2.5"/>
        <circle class="cls-3" cx="438.8" cy="499.39" r="2.5"/>
        <circle class="cls-3" cx="408.8" cy="529.39" r="2.5"/>
        <circle class="cls-3" cx="438.8" cy="529.39" r="1.12"/>
      </g>
      <g>
        <circle class="cls-3" cx="528.8" cy="559.39" r="2.5"/>
        <circle class="cls-3" cx="558.8" cy="529.39" r="2.5"/>
        <circle class="cls-3" cx="528.8" cy="499.39" r="2.5"/>
        <circle class="cls-3" cx="498.8" cy="529.39" r="2.5"/>
        <circle class="cls-3" cx="528.8" cy="529.39" r="1.12"/>
      </g>
      <g>
        <circle class="cls-3" cx="618.8" cy="559.39" r="2.5"/>
        <circle class="cls-3" cx="648.8" cy="529.39" r="2.5"/>
        <circle class="cls-3" cx="618.8" cy="499.39" r="2.5"/>
        <circle class="cls-3" cx="588.8" cy="529.39" r="2.5"/>
        <circle class="cls-3" cx="618.8" cy="529.39" r="1.12"/>
      </g>
      <g>
        <circle class="cls-3" cx="708.8" cy="559.39" r="2.5"/>
        <circle class="cls-3" cx="738.8" cy="529.39" r="2.5"/>
        <circle class="cls-3" cx="708.8" cy="499.39" r="2.5"/>
        <circle class="cls-3" cx="678.8" cy="529.39" r="2.5"/>
        <circle class="cls-3" cx="708.8" cy="529.39" r="1.12"/>
      </g>
    </g>
  </g>
  <g>
    <line class="cls-11" x1="46.65" y1="262.36" x2="741.65" y2="262.36"/>
    <line class="cls-11" x1="46.65" y1="372.36" x2="741.65" y2="372.36"/>
    <line class="cls-11" x1="394.15" y1="166.89" x2="394.15" y2="580.14"/>
    <line class="cls-11" x1="46.65" y1="482.36" x2="741.65" y2="482.36"/>
  </g>
  <g>
    <rect class="cls-10" x="52.05" y="308.14" width="25" height="2.5" rx=".99" ry=".99"/>
    <rect class="cls-7" x="66.3" y="293.89" width="25" height="2.5" rx=".99" ry=".99" transform="translate(373.94 216.34) rotate(90)"/>
    <rect class="cls-10" x="52.05" y="198.14" width="25" height="2.5" rx=".99" ry=".99"/>
    <rect class="cls-7" x="66.3" y="183.89" width="25" height="2.5" rx=".99" ry=".99" transform="translate(263.94 106.34) rotate(90)"/>
    <rect class="cls-10" x="426.3" y="212.39" width="25" height="2.5" rx=".99" ry=".99" transform="translate(225.16 652.44) rotate(-90)"/>
    <rect class="cls-7" x="440.55" y="198.14" width="25" height="2.5" rx=".99" ry=".99" transform="translate(906.1 398.78) rotate(-180)"/>
    <rect class="cls-10" x="248.3" y="432.39" width="25" height="2.5" rx=".99" ry=".99" transform="translate(694.44 172.84) rotate(90)"/>
    <rect class="cls-7" x="244.3" y="432.39" width="25" height="2.5" rx=".99" ry=".99" transform="translate(690.44 176.84) rotate(90)"/>
    <rect class="cls-10" x="338.3" y="432.39" width="25" height="2.5" rx=".99" ry=".99" transform="translate(784.44 82.84) rotate(90)"/>
    <rect class="cls-7" x="334.3" y="432.39" width="25" height="2.5" rx=".99" ry=".99" transform="translate(780.44 86.84) rotate(90)"/>
    <rect class="cls-7" x="66.3" y="403.89" width="25" height="2.5" rx=".99" ry=".99" transform="translate(-326.34 483.94) rotate(-90)"/>
    <rect class="cls-10" x="66.3" y="432.39" width="25" height="2.5" rx=".99" ry=".99" transform="translate(512.44 354.84) rotate(90)"/>
    <rect class="cls-7" x="156.3" y="403.89" width="25" height="2.5" rx=".99" ry=".99" transform="translate(-236.34 573.94) rotate(-90)"/>
    <rect class="cls-10" x="156.3" y="432.39" width="25" height="2.5" rx=".99" ry=".99" transform="translate(602.44 264.84) rotate(90)"/>
    <rect class="cls-7" x="426.3" y="403.89" width="25" height="2.5" rx=".99" ry=".99" transform="translate(33.66 843.94) rotate(-90)"/>
    <rect class="cls-10" x="426.3" y="432.39" width="25" height="2.5" rx=".99" ry=".99" transform="translate(872.44 -5.16) rotate(90)"/>
    <rect class="cls-7" x="516.3" y="403.89" width="25" height="2.5" rx=".99" ry=".99" transform="translate(123.66 933.94) rotate(-90)"/>
    <rect class="cls-10" x="516.3" y="432.39" width="25" height="2.5" rx=".99" ry=".99" transform="translate(962.44 -95.16) rotate(90)"/>
    <rect class="cls-10" x="170.55" y="308.14" width="25" height="2.5" rx=".99" ry=".99" transform="translate(366.1 618.78) rotate(180)"/>
    <rect class="cls-7" x="156.3" y="293.89" width="25" height="2.5" rx=".99" ry=".99" transform="translate(463.94 126.34) rotate(90)"/>
    <rect class="cls-10" x="232.05" y="308.14" width="25" height="2.5" rx=".99" ry=".99"/>
    <rect class="cls-7" x="246.3" y="293.89" width="25" height="2.5" rx=".99" ry=".99" transform="translate(553.94 36.34) rotate(90)"/>
    <rect class="cls-10" x="350.55" y="308.14" width="25" height="2.5" rx=".99" ry=".99" transform="translate(726.1 618.78) rotate(180)"/>
    <rect class="cls-7" x="336.3" y="293.89" width="25" height="2.5" rx=".99" ry=".99" transform="translate(643.94 -53.66) rotate(90)"/>
    <rect class="cls-10" x="412.05" y="308.14" width="25" height="2.5" rx=".99" ry=".99"/>
    <rect class="cls-7" x="426.3" y="293.89" width="25" height="2.5" rx=".99" ry=".99" transform="translate(733.94 -143.66) rotate(90)"/>
    <rect class="cls-10" x="530.55" y="308.14" width="25" height="2.5" rx=".99" ry=".99" transform="translate(1086.1 618.78) rotate(180)"/>
    <rect class="cls-7" x="516.3" y="293.89" width="25" height="2.5" rx=".99" ry=".99" transform="translate(823.94 -233.66) rotate(90)"/>
    <rect class="cls-10" x="592.05" y="308.14" width="25" height="2.5" rx=".99" ry=".99"/>
    <rect class="cls-7" x="606.3" y="293.89" width="25" height="2.5" rx=".99" ry=".99" transform="translate(913.94 -323.66) rotate(90)"/>
    <rect class="cls-10" x="710.55" y="308.14" width="25" height="2.5" rx=".99" ry=".99" transform="translate(1446.1 618.78) rotate(180)"/>
    <rect class="cls-7" x="696.3" y="293.89" width="25" height="2.5" rx=".99" ry=".99" transform="translate(1003.94 -413.66) rotate(90)"/>
    <rect class="cls-10" x="170.55" y="198.14" width="25" height="2.5" rx=".99" ry=".99" transform="translate(366.1 398.78) rotate(-180)"/>
    <rect class="cls-7" x="156.3" y="183.89" width="25" height="2.5" rx=".99" ry=".99" transform="translate(353.94 16.34) rotate(90)"/>
    <rect class="cls-10" x="516.3" y="183.89" width="25" height="2.5" rx=".99" ry=".99" transform="translate(713.94 -343.66) rotate(90)"/>
    <rect class="cls-7" x="530.55" y="198.14" width="25" height="2.5" rx=".99" ry=".99" transform="translate(1086.1 398.78) rotate(180)"/>
    <rect class="cls-10" x="232.05" y="198.14" width="25" height="2.5" rx=".99" ry=".99"/>
    <rect class="cls-7" x="246.3" y="183.89" width="25" height="2.5" rx=".99" ry=".99" transform="translate(443.94 -73.66) rotate(90)"/>
    <rect class="cls-10" x="606.3" y="212.39" width="25" height="2.5" rx=".99" ry=".99" transform="translate(405.16 832.44) rotate(-90)"/>
    <rect class="cls-7" x="620.55" y="198.14" width="25" height="2.5" rx=".99" ry=".99" transform="translate(1266.1 398.78) rotate(-180)"/>
    <rect class="cls-10" x="608.3" y="432.39" width="25" height="2.5" rx=".99" ry=".99" transform="translate(1054.44 -187.16) rotate(90)"/>
    <rect class="cls-7" x="604.3" y="432.39" width="25" height="2.5" rx=".99" ry=".99" transform="translate(1050.44 -183.16) rotate(90)"/>
    <rect class="cls-10" x="350.55" y="198.14" width="25" height="2.5" rx=".99" ry=".99" transform="translate(726.1 398.78) rotate(180)"/>
    <rect class="cls-7" x="336.3" y="183.89" width="25" height="2.5" rx=".99" ry=".99" transform="translate(533.94 -163.66) rotate(90)"/>
    <rect class="cls-10" x="696.3" y="183.89" width="25" height="2.5" rx=".99" ry=".99" transform="translate(893.94 -523.66) rotate(90)"/>
    <rect class="cls-7" x="710.55" y="198.14" width="25" height="2.5" rx=".99" ry=".99" transform="translate(1446.1 398.78) rotate(180)"/>
    <rect class="cls-10" x="698.3" y="432.39" width="25" height="2.5" rx=".99" ry=".99" transform="translate(1144.44 -277.16) rotate(90)"/>
    <rect class="cls-7" x="694.3" y="432.39" width="25" height="2.5" rx=".99" ry=".99" transform="translate(1140.44 -273.16) rotate(90)"/>
    <rect class="cls-7" x="66.3" y="542.39" width="25" height="2.5" rx=".99" ry=".99" transform="translate(622.44 464.84) rotate(90)"/>
    <rect class="cls-10" x="66.3" y="513.89" width="25" height="2.5" rx=".99" ry=".99" transform="translate(-436.34 593.94) rotate(-90)"/>
    <rect class="cls-7" x="156.3" y="542.39" width="25" height="2.5" rx=".99" ry=".99" transform="translate(712.44 374.84) rotate(90)"/>
    <rect class="cls-10" x="156.3" y="513.89" width="25" height="2.5" rx=".99" ry=".99" transform="translate(-346.34 683.94) rotate(-90)"/>
    <rect class="cls-10" x="350.55" y="530.14" width="25" height="2.5" rx=".99" ry=".99"/>
    <rect class="cls-7" x="350.55" y="526.14" width="25" height="2.5" rx=".99" ry=".99"/>
    <rect class="cls-10" x="260.55" y="530.14" width="25" height="2.5" rx=".99" ry=".99"/>
    <rect class="cls-7" x="260.55" y="526.14" width="25" height="2.5" rx=".99" ry=".99"/>
    <rect class="cls-7" x="426.3" y="542.39" width="25" height="2.5" rx=".99" ry=".99" transform="translate(982.44 104.84) rotate(90)"/>
    <rect class="cls-10" x="426.3" y="513.89" width="25" height="2.5" rx=".99" ry=".99" transform="translate(-76.34 953.94) rotate(-90)"/>
    <rect class="cls-7" x="516.3" y="542.39" width="25" height="2.5" rx=".99" ry=".99" transform="translate(1072.44 14.84) rotate(90)"/>
    <rect class="cls-10" x="516.3" y="513.89" width="25" height="2.5" rx=".99" ry=".99" transform="translate(13.66 1043.94) rotate(-90)"/>
    <rect class="cls-10" x="710.55" y="530.14" width="25" height="2.5" rx=".99" ry=".99"/>
    <rect class="cls-7" x="710.55" y="526.14" width="25" height="2.5" rx=".99" ry=".99"/>
    <rect class="cls-10" x="620.55" y="530.14" width="25" height="2.5" rx=".99" ry=".99"/>
    <rect class="cls-7" x="620.55" y="526.14" width="25" height="2.5" rx=".99" ry=".99"/>
  </g>
</svg>