<?xml version="1.0" encoding="UTF-8"?>
<svg id="Layer_1" data-name="Layer 1" xmlns="http://www.w3.org/2000/svg" viewBox="0 0 792 612">
  <defs>
    <style>
      .cls-1 {
        fill: #00aeef;
      }

      .cls-2 {
        font-size: 35px;
      }

      .cls-2, .cls-3, .cls-4 {
        fill: #231f20;
      }

      .cls-5 {
        fill: #2e3192;
      }

      .cls-6 {
        font-size: 30px;
      }

      .cls-7 {
        font-family: Cambria-BoldItalic, Cambria;
        font-style: italic;
        font-weight: 700;
      }

      .cls-3 {
        letter-spacing: -.03em;
      }

      .cls-8 {
        fill: #00a14b;
      }

      .cls-9 {
        fill: #7f3f98;
      }

      .cls-10 {
        fill: #ed1c24;
      }

      .cls-11 {
        fill: none;
        stroke: #231f20;
        stroke-miterlimit: 10;
        stroke-width: .5px;
      }
    </style>
  </defs>
  <path class="cls-10" d="m419.21,536.82l2.65-2.65s-1.05-1.08-1.87-.47c-.94.68-3.95,4.06-3.95,4.06,0,0,2.77,3.23,3.95,4.09.82.59,1.87-.5,1.87-.5l-2.65-2.61h46.81c.18,0,.3.06.3.31,0,6.55-2.35,19.39-19.75,19.39-1.61,0-1.66,1.81,0,1.81,15.57,0,21.53-9.63,21.69-21.2,0-.15.11-.3.26-.3h3.03c.54,0,.97-.43.97-.96s-.43-.96-.97-.96h-52.34Z"/>
  <path class="cls-5" d="m420.19,416.17l2.65,2.65s-1.05,1.08-1.87.47c-.94-.68-3.95-4.06-3.95-4.06,0,0,2.77-3.23,3.95-4.09.82-.59,1.87.5,1.87.5l-2.65,2.61h46.81c.18,0,.3-.06.3-.31,0-6.55-2.35-19.39-19.75-19.39-1.61,0-1.66-1.81,0-1.81,15.57,0,21.53,9.63,21.69,21.2,0,.15.11.3.26.3h3.03c.54,0,.97.43.97.96s-.43.96-.97.96h-52.34Z"/>
  <path class="cls-5" d="m688.88,416.17l2.65,2.65s-1.05,1.08-1.87.47c-.94-.68-3.95-4.06-3.95-4.06,0,0,2.77-3.23,3.95-4.09.82-.59,1.87.5,1.87.5l-2.65,2.61h46.81c.18,0,.3-.06.3-.31,0-6.55-2.35-19.39-19.75-19.39-1.61,0-1.66-1.81,0-1.81,15.57,0,21.53,9.63,21.69,21.2,0,.15.11.3.26.3h3.03c.54,0,.97.43.97.96s-.43.96-.97.96h-52.34Z"/>
  <path class="cls-5" d="m272.47,289.11l-2.65,2.65s-1.08-1.05-.47-1.87c.68-.94,4.06-3.95,4.06-3.95,0,0,3.23,2.77,4.09,3.95.59.82-.5,1.87-.5,1.87l-2.61-2.65v46.81c0,.18.06.3.31.3,6.55,0,19.39-2.35,19.39-19.75,0-1.61,1.81-1.66,1.81,0,0,15.57-9.63,21.53-21.2,21.69-.15,0-.3.11-.3.26v3.03c0,.54-.43.97-.96.97s-.96-.43-.96-.97v-52.34Z"/>
  <text class="cls-7" transform="translate(320.48 70.95)"><tspan class="cls-2"><tspan x="0" y="0">Type 1 → 4</tspan></tspan><tspan class="cls-6"><tspan class="cls-1" x="-36.34" y="36">Dual</tspan><tspan class="cls-3" x="27.56" y="36">-</tspan><tspan class="cls-9" x="36.44" y="36">Shift </tspan><tspan class="cls-4" x="105.05" y="36">→ </tspan><tspan class="cls-8" x="136.79" y="36">Dash</tspan></tspan></text>
  <g>
    <path class="cls-5" d="m504.93,415.08s2.77-3.23,3.95-4.09c.82-.59,1.87.5,1.87.5l-2.57,2.61h36.55c-8.97-.61-9.68-7.4-9.68-20.59,0-1.45,2.08-1.43,2.07.03-.15,18.08,1.12,19.28,18.08,19.28.16,0,.3.01.44.04v-2.72c0-.65.4-1.16.91-1.16s.91.51.91,1.16v8.49c0,.65-.41,1.16-.91,1.16s-.91-.51-.91-1.16v-2.65c-.13.03-.27.04-.42.04-1.6,0-47.04,0-47.04,0l2.57,2.65s-1.05,1.08-1.87.47c-.94-.68-3.95-4.06-3.95-4.06Z"/>
    <path class="cls-5" d="m594.21,415.75s2.77-3.23,3.95-4.09c.82-.59,1.87.5,1.87.5l-2.57,2.61h36.55c-8.97-.61-9.68-7.4-9.68-20.59,0-1.45,2.08-1.43,2.07.03-.15,18.08,1.12,19.28,18.08,19.28.16,0,.3.01.44.04v-2.72c0-.65.4-1.16.91-1.16s.91.51.91,1.16v8.49c0,.65-.41,1.16-.91,1.16-.51,0-.91-.51-.91-1.16v-2.65c-.13.03-.27.04-.42.04-1.6,0-47.04,0-47.04,0l2.57,2.65s-1.05,1.08-1.87.47c-.94-.68-3.95-4.06-3.95-4.06Z"/>
    <path class="cls-10" d="m467.45,314.03c0,11.89-9.57,22.66-21.38,22.69l2.65,2.41s-1.01,1.11-1.85.54c-.95-.65-4.08-3.93-4.08-3.93,0,0,2.66-3.32,3.8-4.21.81-.63,1.89.43,1.89.43l-2.61,2.78c8.93-.03,18.79-7.34,19.5-20.76.06-1.07,2.08-1.07,2.08.05Z"/>
    <path class="cls-10" d="m558.16,314.03c0,11.89-9.57,22.66-21.38,22.69l2.65,2.41s-1.01,1.11-1.85.54c-.95-.65-4.08-3.93-4.08-3.93,0,0,2.66-3.32,3.8-4.21.81-.63,1.89.43,1.89.43l-2.61,2.78c8.93-.03,18.79-7.34,19.5-20.76.06-1.07,2.08-1.07,2.08.05Z"/>
    <path class="cls-5" d="m52.9,535.82c0,11.89,9.57,22.66,21.38,22.69l-2.65,2.41s1.01,1.11,1.85.54c.95-.65,4.08-3.93,4.08-3.93,0,0-2.66-3.32-3.8-4.21-.81-.63-1.89.43-1.89.43l2.61,2.78c-8.93-.03-18.79-7.34-19.5-20.76-.06-1.07-2.08-1.07-2.08.05Z"/>
    <path class="cls-5" d="m592.9,535.63c0,11.89,9.57,22.66,21.38,22.69l-2.65,2.41s1.01,1.11,1.85.54c.95-.65,4.08-3.93,4.08-3.93,0,0-2.66-3.32-3.8-4.21-.81-.63-1.89.43-1.89.43l2.61,2.78c-8.93-.03-18.79-7.34-19.5-20.76-.06-1.07-2.08-1.07-2.08.05Z"/>
    <path class="cls-10" d="m447.25,170.78c11.89,0,22.66,9.57,22.69,21.38l2.41-2.65s1.11,1.01.54,1.85c-.65.95-3.93,4.08-3.93,4.08,0,0-3.32-2.66-4.21-3.8-.63-.81.43-1.89.43-1.89l2.78,2.61c-.03-8.93-7.34-18.79-20.76-19.5-1.07-.06-1.07-2.08.05-2.08Z"/>
    <path class="cls-10" d="m627.27,171.03c11.89,0,22.66,9.57,22.69,21.38l2.41-2.65s1.11,1.01.54,1.85c-.65.95-3.93,4.08-3.93,4.08,0,0-3.32-2.66-4.21-3.8-.63-.81.43-1.89.43-1.89l2.78,2.61c-.03-8.93-7.34-18.79-20.76-19.5-1.07-.06-1.07-2.08.05-2.08Z"/>
    <path class="cls-5" d="m412.8,542.41c19.4,0,21.27,1.3,21.27,20.15l2.66-2.72s1.1,1.04.5,1.87c-.85,1.18-4.08,3.95-4.08,3.95,0,0-3.38-3.01-4.07-3.95-.6-.82.48-1.87.48-1.87l2.56,2.72c0-17.27-1-18.08-19.29-18.08-1.45,0-1.48-2.07-.03-2.07Z"/>
    <path class="cls-10" d="m175.17,450.15c0-19.4,1.3-21.27,20.15-21.27l-2.72-2.66s1.04-1.1,1.87-.5c1.18.85,3.95,4.08,3.95,4.08,0,0-3.01,3.38-3.95,4.07-.82.6-1.87-.48-1.87-.48l2.72-2.56c-17.27,0-18.08,1-18.08,19.29,0,1.45-2.07,1.48-2.07.03Z"/>
    <path class="cls-10" d="m352.89,558.12c0-19.4,1.3-21.27,20.15-21.27l-2.72-2.66s1.04-1.1,1.87-.5c1.18.85,3.95,4.08,3.95,4.08,0,0-3.01,3.38-3.95,4.07-.82.6-1.87-.48-1.87-.48l2.72-2.56c-17.27,0-18.08,1-18.08,19.29,0,1.45-2.07,1.48-2.07.03Z"/>
    <path class="cls-10" d="m715.14,559.95c0-19.4,1.3-21.27,20.15-21.27l-2.72-2.66s1.04-1.1,1.87-.5c1.18.85,3.95,4.08,3.95,4.08,0,0-3.01,3.38-3.95,4.07-.82.6-1.87-.48-1.87-.48l2.72-2.56c-17.27,0-18.08,1-18.08,19.29,0,1.45-2.07,1.48-2.07.03Z"/>
    <path class="cls-10" d="m265.57,450.15c0-19.4,1.3-21.27,20.15-21.27l-2.72-2.66s1.04-1.1,1.87-.5c1.18.85,3.95,4.08,3.95,4.08,0,0-3.01,3.38-3.95,4.07-.82.6-1.87-.48-1.87-.48l2.72-2.56c-17.27,0-18.08,1-18.08,19.29,0,1.45-2.07,1.48-2.07.03Z"/>
    <path class="cls-10" d="m561.28,408.84c-19.4,0-21.27-1.3-21.27-20.15l-2.66,2.72s-1.1-1.04-.5-1.87c.85-1.18,4.08-3.95,4.08-3.95,0,0,3.38,3.01,4.07,3.95.6.82-.48,1.87-.48,1.87l-2.56-2.72c0,17.27,1,18.08,19.29,18.08,1.45,0,1.48,2.07.03,2.07Z"/>
    <path class="cls-10" d="m737.52,419.65c-19.4,0-21.27-1.3-21.27-20.15l-2.66,2.72s-1.1-1.04-.5-1.87c.85-1.18,4.08-3.95,4.08-3.95,0,0,3.38,3.01,4.07,3.95.6.82-.48,1.87-.48,1.87l-2.56-2.72c0,17.27,1,18.08,19.29,18.08,1.45,0,1.48,2.07.03,2.07Z"/>
    <path class="cls-5" d="m231.61,542.88c19.4,0,21.27,1.3,21.27,20.15l2.66-2.72s1.1,1.04.5,1.87c-.85,1.18-4.08,3.95-4.08,3.95,0,0-3.38-3.01-4.07-3.95-.6-.82.48-1.87.48-1.87l2.56,2.72c0-17.27-1-18.08-19.29-18.08-1.45,0-1.48-2.07-.03-2.07Z"/>
    <path class="cls-10" d="m85.15,171.91c11.89,0,22.66,9.57,22.69,21.38l2.41-2.65s1.11,1.01.54,1.85c-.65.95-3.93,4.08-3.93,4.08,0,0-3.32-2.66-4.21-3.8-.63-.81.43-1.89.43-1.89l2.78,2.61c-.03-8.93-7.34-18.79-20.76-19.5-1.07-.06-1.07-2.08.05-2.08Z"/>
    <path class="cls-10" d="m357.21,171.32c11.89,0,22.66,9.57,22.69,21.38l2.41-2.65s1.11,1.01.54,1.85c-.65.95-3.93,4.08-3.93,4.08,0,0-3.32-2.66-4.21-3.8-.63-.81.43-1.89.43-1.89l2.78,2.61c-.03-8.93-7.34-18.79-20.76-19.5-1.07-.06-1.07-2.08.05-2.08Z"/>
    <path class="cls-10" d="m175.17,171.96c0,19.4,1.3,21.27,20.15,21.27l-2.72,2.66s1.04,1.1,1.87.5c1.18-.85,3.95-4.08,3.95-4.08,0,0-3.01-3.38-3.95-4.07-.82-.6-1.87.48-1.87.48l2.72,2.56c-17.27,0-18.08-1-18.08-19.29,0-1.45-2.07-1.48-2.07-.03Z"/>
    <path class="cls-10" d="m266.84,171.54c0,19.4,1.3,21.27,20.15,21.27l-2.72,2.66s1.04,1.1,1.87.5c1.18-.85,3.95-4.08,3.95-4.08,0,0-3.01-3.38-3.95-4.07-.82-.6-1.87.48-1.87.48l2.72,2.56c-17.27,0-18.08-1-18.08-19.29,0-1.45-2.07-1.48-2.07-.03Z"/>
    <path class="cls-10" d="m537.99,166.99c0,19.4,1.3,21.27,20.15,21.27l-2.72,2.66s1.04,1.1,1.87.5c1.18-.85,3.95-4.08,3.95-4.08,0,0-3.01-3.38-3.95-4.07-.82-.6-1.87.48-1.87.48l2.72,2.56c-17.27,0-18.08-1-18.08-19.29,0-1.45-2.07-1.48-2.07-.03Z"/>
    <path class="cls-10" d="m718.61,167.8c0,19.4,1.3,21.27,20.15,21.27l-2.72,2.66s1.04,1.1,1.87.5c1.18-.85,3.95-4.08,3.95-4.08,0,0-3.01-3.38-3.95-4.07-.82-.6-1.87.48-1.87.48l2.72,2.56c-17.27,0-18.08-1-18.08-19.29,0-1.45-2.07-1.48-2.07-.03Z"/>
    <path class="cls-10" d="m115.51,321.9c0,11.89-9.57,22.66-21.38,22.69l2.65,2.41s-1.01,1.11-1.85.54c-.95-.65-4.08-3.93-4.08-3.93,0,0,2.66-3.32,3.8-4.21.81-.63,1.89.43,1.89.43l-2.61,2.78c8.93-.03,18.79-7.34,19.5-20.76.06-1.07,2.08-1.07,2.08.05Z"/>
    <path class="cls-10" d="m84.8,450.7c11.89,0,22.66-9.57,22.69-21.38l2.41,2.65s1.11-1.01.54-1.85c-.65-.95-3.93-4.08-3.93-4.08,0,0-3.32,2.66-4.21,3.8-.63.81.43,1.89.43,1.89l2.78-2.61c-.03,8.93-7.34,18.79-20.76,19.5-1.07.06-1.07,2.08.05,2.08Z"/>
    <path class="cls-10" d="m174.35,559.89c11.89,0,22.66-9.57,22.69-21.38l2.41,2.65s1.11-1.01.54-1.85c-.65-.95-3.93-4.08-3.93-4.08,0,0-3.32,2.66-4.21,3.8-.63.81.43,1.89.43,1.89l2.78-2.61c-.03,8.93-7.34,18.79-20.76,19.5-1.07.06-1.07,2.08.05,2.08Z"/>
    <path class="cls-10" d="m534.84,559.65c11.89,0,22.66-9.57,22.69-21.38l2.41,2.65s1.11-1.01.54-1.85c-.65-.95-3.93-4.08-3.93-4.08,0,0-3.32,2.66-4.21,3.8-.63.81.43,1.89.43,1.89l2.78-2.61c-.03,8.93-7.34,18.79-20.76,19.5-1.07.06-1.07,2.08.05,2.08Z"/>
    <path class="cls-10" d="m354.49,450.7c11.89,0,22.66-9.57,22.69-21.38l2.41,2.65s1.11-1.01.54-1.85c-.65-.95-3.93-4.08-3.93-4.08,0,0-3.32,2.66-4.21,3.8-.63.81.43,1.89.43,1.89l2.78-2.61c-.03,8.93-7.34,18.79-20.76,19.5-1.07.06-1.07,2.08.05,2.08Z"/>
    <path class="cls-10" d="m468.41,420.39c0-11.89-9.57-22.66-21.38-22.69l2.65-2.41s-1.01-1.11-1.85-.54c-.95.65-4.08,3.93-4.08,3.93,0,0,2.66,3.32,3.8,4.21.81.63,1.89-.43,1.89-.43l-2.61-2.78c8.93.03,18.79,7.34,19.5,20.76.06,1.07,2.08,1.07,2.08-.05Z"/>
    <path class="cls-10" d="m650.75,414.36c0-11.89-9.57-22.66-21.38-22.69l2.65-2.41s-1.01-1.11-1.85-.54c-.95.65-4.08,3.93-4.08,3.93,0,0,2.66,3.32,3.8,4.21.81.63,1.89-.43,1.89-.43l-2.61-2.78c8.93.03,18.79,7.34,19.5,20.76.06,1.07,2.08,1.07,2.08-.05Z"/>
    <path class="cls-10" d="m387.54,321.71c0,11.89-9.57,22.66-21.38,22.69l2.65,2.41s-1.01,1.11-1.85.54c-.95-.65-4.08-3.93-4.08-3.93,0,0,2.66-3.32,3.8-4.21.81-.63,1.89.43,1.89.43l-2.61,2.78c8.93-.03,18.79-7.34,19.5-20.76.06-1.07,2.08-1.07,2.08.05Z"/>
    <path class="cls-10" d="m648.42,314.35c0,11.89-9.57,22.66-21.38,22.69l2.65,2.41s-1.01,1.11-1.85.54c-.95-.65-4.08-3.93-4.08-3.93,0,0,2.66-3.32,3.8-4.21.81-.63,1.89.43,1.89.43l-2.61,2.78c8.93-.03,18.79-7.34,19.5-20.76.06-1.07,2.08-1.07,2.08.05Z"/>
    <path class="cls-10" d="m198.08,313.51c-19.4,0-21.27,1.3-21.27,20.15l-2.66-2.72s-1.1,1.04-.5,1.87c.85,1.18,4.08,3.95,4.08,3.95,0,0,3.38-3.01,4.07-3.95.6-.82-.48-1.87-.48-1.87l-2.56,2.72c0-17.27,1-18.08,19.29-18.08,1.45,0,1.48-2.07.03-2.07Z"/>
    <path class="cls-10" d="m288.34,314.51c-19.4,0-21.27,1.3-21.27,20.15l-2.66-2.72s-1.1,1.04-.5,1.87c.85,1.18,4.08,3.95,4.08,3.95,0,0,3.38-3.01,4.07-3.95.6-.82-.48-1.87-.48-1.87l-2.56,2.72c0-17.27,1-18.08,19.29-18.08,1.45,0,1.48-2.07.03-2.07Z"/>
    <path class="cls-10" d="m737.96,314.51c-19.4,0-21.27,1.3-21.27,20.15l-2.66-2.72s-1.1,1.04-.5,1.87c.85,1.18,4.08,3.95,4.08,3.95,0,0,3.38-3.01,4.07-3.95.6-.82-.48-1.87-.48-1.87l-2.56,2.72c0-17.27,1-18.08,19.29-18.08,1.45,0,1.48-2.07.03-2.07Z"/>
    <path class="cls-5" d="m195.33,209.38s-2.77,3.23-3.95,4.09c-.82.59-1.87-.5-1.87-.5l2.57-2.61h-36.55c8.97.61,9.68,7.4,9.68,20.59,0,1.45-2.08,1.43-2.07-.03.15-18.08-1.12-19.28-18.08-19.28-.16,0-.3-.01-.44-.04v2.72c0,.65-.4,1.16-.91,1.16s-.91-.51-.91-1.16v-8.49c0-.65.41-1.16.91-1.16s.91.51.91,1.16v2.65c.13-.03.27-.04.42-.04h47.04l-2.57-2.65s1.05-1.08,1.87-.47c.94.68,3.95,4.06,3.95,4.06Z"/>
    <path class="cls-5" d="m183.4,288.62s3.23,2.77,4.09,3.95c.59.82-.5,1.87-.5,1.87l-2.61-2.57v36.55c.61-8.97,7.4-9.68,20.59-9.68,1.45,0,1.43,2.08-.03,2.07-18.08-.15-19.28,1.12-19.28,18.08,0,.16-.01.3-.04.44h2.72c.65,0,1.16.4,1.16.91,0,.5-.51.91-1.16.91h-8.49c-.65,0-1.16-.41-1.16-.91,0-.51.51-.91,1.16-.91h2.65c-.03-.13-.04-.27-.04-.42,0-1.6,0-47.04,0-47.04l-2.65,2.57s-1.08-1.05-.47-1.87c.68-.94,4.06-3.95,4.06-3.95Z"/>
    <path class="cls-5" d="m164.52,447.88s-3.23-2.77-4.09-3.95c-.59-.82.5-1.87.5-1.87l2.61,2.57v-36.55c-.61,8.97-7.4,9.68-20.59,9.68-1.45,0-1.43-2.08.03-2.07,18.08.15,19.28-1.12,19.28-18.08,0-.16.01-.3.04-.44h-2.72c-.65,0-1.16-.4-1.16-.91,0-.5.51-.91,1.16-.91h8.49c.65,0,1.16.41,1.16.91s-.51.91-1.16.91h-2.65c.03.13.04.27.04.42,0,1.6,0,47.04,0,47.04l2.65-2.57s1.08,1.05.47,1.87c-.68.94-4.06,3.95-4.06,3.95Z"/>
    <path class="cls-5" d="m344,505.93s-3.23,2.77-4.09,3.95c-.59.82.5,1.87.5,1.87l2.61-2.57v36.55c-.61-8.97-7.4-9.68-20.59-9.68-1.45,0-1.43,2.08.03,2.07,18.08-.15,19.28,1.12,19.28,18.08,0,.16.01.3.04.44h-2.72c-.65,0-1.16.4-1.16.91,0,.5.51.91,1.16.91h8.49c.65,0,1.16-.41,1.16-.91,0-.51-.51-.91-1.16-.91h-2.65c.03-.13.04-.27.04-.42,0-1.6,0-47.04,0-47.04l2.65,2.57s1.08-1.05.47-1.87c-.68-.94-4.06-3.95-4.06-3.95Z"/>
    <path class="cls-5" d="m522.85,506.71s-3.23,2.77-4.09,3.95c-.59.82.5,1.87.5,1.87l2.61-2.57v36.55c-.61-8.97-7.4-9.68-20.59-9.68-1.45,0-1.43,2.08.03,2.07,18.08-.15,19.28,1.12,19.28,18.08,0,.16.01.3.04.44h-2.72c-.65,0-1.16.4-1.16.91s.51.91,1.16.91h8.49c.65,0,1.16-.41,1.16-.91s-.51-.91-1.16-.91h-2.65c.03-.13.04-.27.04-.42v-47.04l2.65,2.57s1.08-1.05.47-1.87c-.68-.94-4.06-3.95-4.06-3.95Z"/>
    <path class="cls-10" d="m595.97,537.52s2.77,3.23,3.95,4.09c.82.59,1.87-.5,1.87-.5l-2.57-2.61h36.55c-8.97.61-9.68,7.4-9.68,20.59,0,1.45,2.08,1.43,2.07-.03-.15-18.08,1.12-19.28,18.08-19.28.16,0,.3-.01.44-.04v2.72c0,.65.4,1.16.91,1.16s.91-.51.91-1.16v-8.49c0-.65-.41-1.16-.91-1.16s-.91.51-.91,1.16v2.65c-.13-.03-.27-.04-.42-.04h-47.04l2.57-2.65s-1.05-1.08-1.87-.47c-.94.68-3.95,4.06-3.95,4.06Z"/>
    <path class="cls-10" d="m235.97,538.74s2.77,3.23,3.95,4.09c.82.59,1.87-.5,1.87-.5l-2.57-2.61h36.55c-8.97.61-9.68,7.4-9.68,20.59,0,1.45,2.08,1.43,2.07-.03-.15-18.08,1.12-19.28,18.08-19.28.16,0,.3-.01.44-.04v2.72c0,.65.4,1.16.91,1.16s.91-.51.91-1.16v-8.49c0-.65-.41-1.16-.91-1.16-.51,0-.91.51-.91,1.16v2.65c-.13-.03-.27-.04-.42-.04-1.6,0-47.04,0-47.04,0l2.57-2.65s-1.05-1.08-1.87-.47c-.94.68-3.95,4.06-3.95,4.06Z"/>
    <path class="cls-5" d="m344.18,447.88s-3.23-2.77-4.09-3.95c-.59-.82.5-1.87.5-1.87l2.61,2.57v-36.55c-.61,8.97-7.4,9.68-20.59,9.68-1.45,0-1.43-2.08.03-2.07,18.08.15,19.28-1.12,19.28-18.08,0-.16.01-.3.04-.44h-2.72c-.65,0-1.16-.4-1.16-.91s.51-.91,1.16-.91h8.49c.65,0,1.16.41,1.16.91,0,.51-.51.91-1.16.91h-2.65c.03.13.04.27.04.42,0,1.6,0,47.04,0,47.04l2.65-2.57s1.08,1.05.47,1.87c-.68.94-4.06,3.95-4.06,3.95Z"/>
    <path class="cls-5" d="m523.96,285.35s-3.23,2.77-4.09,3.95c-.59.82.5,1.87.5,1.87l2.61-2.57v36.55c-.61-8.97-7.4-9.68-20.59-9.68-1.45,0-1.43,2.08.03,2.07,18.08-.15,19.28,1.12,19.28,18.08,0,.16.01.3.04.44h-2.72c-.65,0-1.16.4-1.16.91s.51.91,1.16.91h8.49c.65,0,1.16-.41,1.16-.91s-.51-.91-1.16-.91h-2.65c.03-.13.04-.27.04-.42v-47.04l2.65,2.57s1.08-1.05.47-1.87c-.68-.94-4.06-3.95-4.06-3.95Z"/>
    <path class="cls-5" d="m613.96,286.23s-3.23,2.77-4.09,3.95c-.59.82.5,1.87.5,1.87l2.61-2.57v36.55c-.61-8.97-7.4-9.68-20.59-9.68-1.45,0-1.43,2.08.03,2.07,18.08-.15,19.28,1.12,19.28,18.08,0,.16.01.3.04.44h-2.72c-.65,0-1.16.4-1.16.91s.51.91,1.16.91h8.49c.65,0,1.16-.41,1.16-.91s-.51-.91-1.16-.91h-2.65c.03-.13.04-.27.04-.42v-47.04l2.65,2.57s1.08-1.05.47-1.87c-.68-.94-4.06-3.95-4.06-3.95Z"/>
    <path class="cls-5" d="m358.77,288.62s3.23,2.77,4.09,3.95c.59.82-.5,1.87-.5,1.87l-2.61-2.57v36.55c.61-8.97,7.4-9.68,20.59-9.68,1.45,0,1.43,2.08-.03,2.07-18.08-.15-19.28,1.12-19.28,18.08,0,.16-.01.3-.04.44h2.72c.65,0,1.16.4,1.16.91,0,.5-.51.91-1.16.91h-8.49c-.65,0-1.16-.41-1.16-.91,0-.51.51-.91,1.16-.91h2.65c-.03-.13-.04-.27-.04-.42,0-1.6,0-47.04,0-47.04l-2.65,2.57s-1.08-1.05-.47-1.87c.68-.94,4.06-3.95,4.06-3.95Z"/>
    <path class="cls-5" d="m377.27,209.38s-2.77,3.23-3.95,4.09c-.82.59-1.87-.5-1.87-.5l2.57-2.61h-36.55c8.97.61,9.68,7.4,9.68,20.59,0,1.45-2.08,1.43-2.07-.03.15-18.08-1.12-19.28-18.08-19.28-.16,0-.3-.01-.44-.04v2.72c0,.65-.4,1.16-.91,1.16s-.91-.51-.91-1.16v-8.49c0-.65.41-1.16.91-1.16s.91.51.91,1.16v2.65c.13-.03.27-.04.42-.04h47.04l-2.57-2.65s1.05-1.08,1.87-.47c.94.68,3.95,4.06,3.95,4.06Z"/>
    <path class="cls-5" d="m556.47,192.84s-2.77-3.23-3.95-4.09c-.82-.59-1.87.5-1.87.5l2.57,2.61h-36.55c8.97-.61,9.68-7.4,9.68-20.59,0-1.45-2.08-1.43-2.07.03.15,18.08-1.12,19.28-18.08,19.28-.16,0-.3.01-.44.04v-2.72c0-.65-.4-1.16-.91-1.16s-.91.51-.91,1.16v8.49c0,.65.41,1.16.91,1.16s.91-.51.91-1.16v-2.65c.13.03.27.04.42.04h47.04l-2.57,2.65s1.05,1.08,1.87.47c.94-.68,3.95-4.06,3.95-4.06Z"/>
    <path class="cls-5" d="m644.97,193.11s-2.77-3.23-3.95-4.09c-.82-.59-1.87.5-1.87.5l2.57,2.61h-36.55c8.97-.61,9.68-7.4,9.68-20.59,0-1.45-2.08-1.43-2.07.03.15,18.08-1.12,19.28-18.08,19.28-.16,0-.3.01-.44.04v-2.72c0-.65-.4-1.16-.91-1.16s-.91.51-.91,1.16v8.49c0,.65.41,1.16.91,1.16s.91-.51.91-1.16v-2.65c.13.03.27.04.42.04h47.04l-2.57,2.65s1.05,1.08,1.87.47c.94-.68,3.95-4.06,3.95-4.06Z"/>
    <g>
      <g>
        <path class="cls-4" d="m178.94,242.85c-.5,2.51-1.03,3.37-3.39,3.82-.04,0-.07.04-.08.07v3.6c0,.22-.1.44-.25.6s-.36.24-.59.24-.43-.09-.61-.24c-.16-.16-.24-.38-.24-.6v-3.6s-.05-.06-.09-.07c-2.35-.45-2.88-1.31-3.38-3.82-.08-.36-.04-.65.12-.83.17-.21.42-.24.56-.24.24,0,.43.22.56.45.13.23.2.47.21.54.25,1.71.73,2.29,1.85,2.29h.09s.07-.02.09-.06v-3.05c.12-.28.2-.48.31-.6.07-.06.15-.1.23-.13.05-.02.1-.03.14-.04.11-.02.24-.02.33,0,.05,0,.1.02.15.04.07,0,.15.06.22.13.12.12.21.31.3.6v.03s.02.03.02.05v2.94s0,.02,0,.04c0,.03.05.05.09.05,1.2.04,1.68-.54,1.93-2.29.03-.13.28-.99.76-.99h0c.14,0,.39.03.56.24.15.19.19.47.12.83Z"/>
        <path class="cls-4" d="m166.58,246.04c4.39-1.93.8-6.48-3.28-4.27-.04.02-.07.06-.07.1-.38,2.63-.16,6.19.2,8.71.02.13.12.23.24.27,6.22,1.71,7.68-3.78,2.91-4.81Zm.65-2.47c0,1.13-1.98,1.51-2.74,1.51-.13-.26-.02-2.43.07-2.53.9-.25,2.67.04,2.67,1.02Zm-2.38,6.17c-.17-1.1-.2-1.41-.14-2.54.47-.06,3.32-.1,3.29,1.38-.03,1.15-2.44,1.38-3.15,1.16Z"/>
      </g>
      <g>
        <path class="cls-4" d="m269.86,242.85c-.5,2.51-1.03,3.37-3.39,3.82-.04,0-.07.04-.08.07v3.6c0,.22-.1.44-.25.6s-.36.24-.59.24-.43-.09-.61-.24c-.16-.16-.24-.38-.24-.6v-3.6s-.05-.06-.09-.07c-2.35-.45-2.88-1.31-3.38-3.82-.08-.36-.04-.65.12-.83.17-.21.42-.24.56-.24.24,0,.43.22.56.45.13.23.2.47.21.54.25,1.71.73,2.29,1.85,2.29h.09s.07-.02.09-.06v-3.05c.12-.28.2-.48.31-.6.07-.06.15-.1.23-.13.05-.02.1-.03.14-.04.11-.02.24-.02.33,0,.05,0,.1.02.15.04.07,0,.15.06.22.13.12.12.21.31.3.6v.03s.02.03.02.05v2.94s0,.02,0,.04c0,.03.05.05.09.05,1.2.04,1.68-.54,1.93-2.29.03-.13.28-.99.76-.99h0c.14,0,.39.03.56.24.15.19.19.47.12.83Z"/>
        <path class="cls-4" d="m259.81,248.94c.42.55-.07,1.12-.5,1.33-9.15,4.54-8.83-9.42-3.27-9.09,1.07.06,2.05.85,2.39,1.26.25.29.44.81.12,1.16-.34.36-.8.24-1.02,0-4.33-4.56-6.65,9.06,1.11,5.25.45-.22.79-.4,1.16.09Z"/>
      </g>
      <g>
        <path class="cls-4" d="m359.76,242.85c-.5,2.51-1.03,3.37-3.39,3.82-.04,0-.07.04-.08.07v3.6c0,.22-.1.44-.25.6s-.36.24-.59.24-.43-.09-.61-.24c-.16-.16-.24-.38-.24-.6v-3.6s-.05-.06-.09-.07c-2.35-.45-2.88-1.31-3.38-3.82-.08-.36-.04-.65.12-.83.17-.21.42-.24.56-.24.24,0,.43.22.56.45.13.23.2.47.21.54.25,1.71.73,2.29,1.85,2.29h.09s.07-.02.09-.06v-3.05c.12-.28.2-.48.31-.6.07-.06.15-.1.23-.13.05-.02.1-.03.14-.04.11-.02.24-.02.33,0,.05,0,.1.02.15.04.07,0,.15.06.22.13.12.12.21.31.3.6v.03s.02.03.02.05v2.94s0,.02,0,.04c0,.03.05.05.09.05,1.2.04,1.68-.54,1.93-2.29.03-.13.28-.99.76-.99h0c.14,0,.39.03.56.24.15.19.19.47.12.83Z"/>
        <path class="cls-4" d="m349.92,248.94c.42.55-.07,1.12-.5,1.33-9.15,4.54-8.83-9.42-3.27-9.09,1.07.06,2.05.85,2.39,1.26.25.29.44.81.12,1.16-.34.36-.8.24-1.02,0-4.33-4.56-6.65,9.06,1.11,5.25.45-.22.79-.4,1.16.09Z"/>
      </g>
      <g>
        <path class="cls-4" d="m450.24,242.85c-.5,2.51-1.03,3.37-3.39,3.82-.04,0-.07.04-.08.07v3.6c0,.22-.1.44-.25.6s-.36.24-.59.24-.43-.09-.61-.24c-.16-.16-.24-.38-.24-.6v-3.6s-.05-.06-.09-.07c-2.35-.45-2.88-1.31-3.38-3.82-.08-.36-.04-.65.12-.83.17-.21.42-.24.56-.24.24,0,.43.22.56.45.13.23.2.47.21.54.25,1.71.73,2.29,1.85,2.29h.09s.07-.02.09-.06v-3.05c.12-.28.2-.48.31-.6.07-.06.15-.1.23-.13.05-.02.1-.03.14-.04.11-.02.24-.02.33,0,.05,0,.1.02.15.04.07,0,.15.06.22.13.12.12.21.31.3.6v.03s.02.03.02.05v2.94s0,.02,0,.04c0,.03.05.05.09.05,1.2.04,1.68-.54,1.93-2.29.03-.13.28-.99.76-.99h0c.14,0,.39.03.56.24.15.19.19.47.12.83Z"/>
        <path class="cls-4" d="m432.25,241.62c4.64-1.3,7.94.33,7.99,3.72.1,6.19-7.54,6.06-7.86,5.69-.19-.72-.85-5.47-.13-9.41Zm1.61,7.69c3.94-.46,5.1-2.07,4.74-4.52s-4.31-2.07-4.85-1.81c-.26,3.6-.2,4.36.11,6.32Z"/>
      </g>
      <g>
        <path class="cls-4" d="m539.14,242.85c-.5,2.51-1.03,3.37-3.39,3.82-.04,0-.07.04-.08.07v3.6c0,.22-.1.44-.25.6s-.36.24-.59.24-.43-.09-.61-.24c-.16-.16-.24-.38-.24-.6v-3.6s-.05-.06-.09-.07c-2.35-.45-2.88-1.31-3.38-3.82-.08-.36-.04-.65.12-.83.17-.21.42-.24.56-.24.24,0,.43.22.56.45.13.23.2.47.21.54.25,1.71.73,2.29,1.85,2.29h.09s.07-.02.09-.06v-3.05c.12-.28.2-.48.31-.6.07-.06.15-.1.23-.13.05-.02.1-.03.14-.04.11-.02.24-.02.33,0,.05,0,.1.02.15.04.07,0,.15.06.22.13.12.12.21.31.3.6v.03s.02.03.02.05v2.94s0,.02,0,.04c0,.03.05.05.09.05,1.2.04,1.68-.54,1.93-2.29.03-.13.28-.99.76-.99h0c.14,0,.39.03.56.24.15.19.19.47.12.83Z"/>
        <path class="cls-4" d="m524.34,244.17c0,.36.02,1.02.02,1.02,0,0,2.18.01,3.53.07.5.02.9-.07.95.78.04.6-.32.73-.87.77-1.28.09-3.49.05-3.49.05,0,0,.03,1.16.07,1.65.03.39.1.88.1.88,0,0,3.53.01,3.93,0,.33,0,.84,0,.81.84-.03.89-.42.83-.98.87-1.49.1-4.12,0-4.84-.38-1.02-.55-.79-5.46-.37-8.84.08-.67,3.98-.71,4.96-.62.44.04.67.53.67.82,0,.31,0,.87-.59.9-1.38.08-3.86.16-3.86.16,0,0-.03.8-.02,1.03Z"/>
      </g>
      <g>
        <path class="cls-4" d="m629.28,242.85c-.5,2.51-1.03,3.37-3.39,3.82-.04,0-.07.04-.08.07v3.6c0,.22-.1.44-.25.6s-.36.24-.59.24-.43-.09-.61-.24c-.16-.16-.24-.38-.24-.6v-3.6s-.05-.06-.09-.07c-2.35-.45-2.88-1.31-3.38-3.82-.08-.36-.04-.65.12-.83.17-.21.42-.24.56-.24.24,0,.43.22.56.45.13.23.2.47.21.54.25,1.71.73,2.29,1.85,2.29h.09s.07-.02.09-.06v-3.05c.12-.28.2-.48.31-.6.07-.06.15-.1.23-.13.05-.02.1-.03.14-.04.11-.02.24-.02.33,0,.05,0,.1.02.15.04.07,0,.15.06.22.13.12.12.21.31.3.6v.03s.02.03.02.05v2.94s0,.02,0,.04c0,.03.05.05.09.05,1.2.04,1.68-.54,1.93-2.29.03-.13.28-.99.76-.99h0c.14,0,.39.03.56.24.15.19.19.47.12.83Z"/>
        <path class="cls-4" d="m612.87,250.53c-.21-2.13-.27-7.16-.03-8.83,0,0,1.78-.75,5.18-.44.42.04.62.25.63.53.03.54,0,1.08-.55,1.11-1.32.07-3.68.15-3.68.15,0,0-.03.76-.02.98,0,.34.02.97.02.97,0,0,2.08.01,3.36.07.47.02.88-.05.91.74.02.57-.38.7-.91.74-1.22.09-3.25.04-3.25.04.07,1.57.19,3.19.19,3.78,0,.69-.57.8-.97.8-.59,0-.85-.44-.87-.65Z"/>
      </g>
      <g>
        <path class="cls-4" d="m719.38,242.85c-.5,2.51-1.03,3.37-3.39,3.82-.04,0-.07.04-.08.07v3.6c0,.22-.1.44-.25.6s-.36.24-.59.24-.43-.09-.61-.24c-.16-.16-.24-.38-.24-.6v-3.6s-.05-.06-.09-.07c-2.35-.45-2.88-1.31-3.38-3.82-.08-.36-.04-.65.12-.83.17-.21.42-.24.56-.24.24,0,.43.22.56.45.13.23.2.47.21.54.25,1.71.73,2.29,1.85,2.29h.09s.07-.02.09-.06v-3.05c.12-.28.2-.48.31-.6.07-.06.15-.1.23-.13.05-.02.1-.03.14-.04.11-.02.24-.02.33,0,.05,0,.1.02.15.04.07,0,.15.06.22.13.12.12.21.31.3.6v.03s.02.03.02.05v2.94s0,.02,0,.04c0,.03.05.05.09.05,1.2.04,1.68-.54,1.93-2.29.03-.13.28-.99.76-.99h0c.14,0,.39.03.56.24.15.19.19.47.12.83Z"/>
        <path class="cls-4" d="m702.77,250.53c-.21-2.13-.27-7.16-.03-8.83,0,0,1.78-.75,5.18-.44.42.04.62.25.63.53.03.54,0,1.08-.55,1.11-1.32.07-3.68.15-3.68.15,0,0-.03.76-.02.98,0,.34.02.97.02.97,0,0,2.08.01,3.36.07.47.02.88-.05.91.74.02.57-.38.7-.91.74-1.22.09-3.25.04-3.25.04.07,1.57.19,3.19.19,3.78,0,.69-.57.8-.97.8-.59,0-.85-.44-.87-.65Z"/>
      </g>
      <g>
        <path d="m627.98,354.31c-.71-.51-1.55-.82-2.45-.91v-1.11c0-.42-.34-.76-.77-.76h-.12c-.43,0-.77.34-.77.76v1.11c-.9.09-1.75.4-2.45.91-.71.48-1.09,1.08-1.14,1.75-.06.85.42,1.62.85,2.01.7.66,1.64,1.05,2.74,1.14v1.55c0,.42.34.76.77.76h.12c.43,0,.77-.34.77-.76v-1.55c1.1-.09,2.04-.48,2.74-1.14.43-.39.91-1.17.85-2.01-.05-.68-.43-1.26-1.14-1.75Zm-2.45,1.84c0-.41,0-.75.04-1.08,0-.11.1-.2.21-.21h.07c.8,0,1.4.28,1.68.79.25.45.22,1.01-.09,1.45-.34.52-.97.77-1.72.69-.1,0-.18-.1-.18-.21,0-.27,0-.56,0-.85,0-.2,0-.39,0-.59Zm-3.66-.49c.27-.51.87-.79,1.67-.79h.07c.12,0,.21.1.22.21.03.33.04.69.04,1.08,0,.2,0,.4,0,.6,0,.28,0,.57,0,.84,0,.11-.08.2-.18.21-.75.09-1.37-.17-1.72-.69-.3-.44-.33-1-.09-1.45Z"/>
        <path class="cls-4" d="m614.48,352.14c-.19,8.85-.94,7.8,4.1,7.75.71,0,1.24.12,1.24.84,0,.33-.44.77-1.2.77-4.71,0-4.71.13-5.33-.4-.49-.41-.42-1.9-.42-2.78,0-1.17.02-5.56.1-6.18.08-.62.33-.62.75-.62.38,0,.77.09.76.62Z"/>
      </g>
      <g>
        <path d="m718.07,354.31c-.71-.51-1.55-.82-2.45-.91v-1.11c0-.42-.34-.76-.77-.76h-.12c-.43,0-.77.34-.77.76v1.11c-.9.09-1.75.4-2.45.91-.71.48-1.09,1.08-1.14,1.75-.06.85.42,1.62.85,2.01.7.66,1.64,1.05,2.74,1.14v1.55c0,.42.34.76.77.76h.12c.43,0,.77-.34.77-.76v-1.55c1.1-.09,2.04-.48,2.74-1.14.43-.39.91-1.17.85-2.01-.05-.68-.43-1.26-1.14-1.75Zm-2.45,1.84c0-.41,0-.75.04-1.08,0-.11.1-.2.21-.21h.07c.8,0,1.4.28,1.68.79.25.45.22,1.01-.09,1.45-.34.52-.97.77-1.72.69-.1,0-.18-.1-.18-.21,0-.27,0-.56,0-.85,0-.2,0-.39,0-.59Zm-3.66-.49c.27-.51.87-.79,1.67-.79h.07c.12,0,.21.1.22.21.03.33.04.69.04,1.08,0,.2,0,.4,0,.6,0,.28,0,.57,0,.84,0,.11-.08.2-.18.21-.75.09-1.37-.17-1.72-.69-.3-.44-.33-1-.09-1.45Z"/>
        <path class="cls-4" d="m704.4,352.14c-.19,8.85-.94,7.8,4.1,7.75.71,0,1.24.12,1.24.84,0,.33-.44.77-1.2.77-4.71,0-4.71.13-5.33-.4-.49-.41-.42-1.9-.42-2.78,0-1.17.02-5.56.1-6.18.08-.62.33-.62.75-.62.38,0,.77.09.76.62Z"/>
      </g>
      <g>
        <path d="m448.54,354.31c-.71-.51-1.55-.82-2.45-.91v-1.11c0-.42-.34-.76-.77-.76h-.12c-.43,0-.77.34-.77.76v1.11c-.9.09-1.75.4-2.45.91-.71.48-1.09,1.08-1.14,1.75-.06.85.42,1.62.85,2.01.7.66,1.64,1.05,2.74,1.14v1.55c0,.42.34.76.77.76h.12c.43,0,.77-.34.77-.76v-1.55c1.1-.09,2.04-.48,2.74-1.14.43-.39.91-1.17.85-2.01-.05-.68-.43-1.26-1.14-1.75Zm-2.45,1.84c0-.41,0-.75.04-1.08,0-.11.1-.2.21-.21h.07c.8,0,1.4.28,1.68.79.25.45.22,1.01-.09,1.45-.34.52-.97.77-1.72.69-.1,0-.18-.1-.18-.21,0-.27,0-.56,0-.85,0-.2,0-.39,0-.59Zm-3.66-.49c.27-.51.87-.79,1.67-.79h.07c.12,0,.21.1.22.21.03.33.04.69.04,1.08,0,.2,0,.4,0,.6,0,.28,0,.57,0,.84,0,.11-.08.2-.18.21-.75.09-1.37-.17-1.72-.69-.3-.44-.33-1-.09-1.45Z"/>
        <path class="cls-4" d="m437.41,355.09c-.23-1.81.31-1.52-1.96-1.52-.48,0-1.1-.23-1.08-.83.02-.68.18-1,1.11-1,.29,0,2.96-.14,5.13-.13.75,0,1.29.31,1.29,1,0,.56-.42.9-1.31.9-1.86,0-1.61-.26-1.61,1.62,0,2.18.1,3.12-.28,3.9-2.04,4.14-6.19,2.28-6.19-.8,0-.58.16-.88.74-.92.52-.04.65.48.76.88.75,2.71,4.08,2.04,3.42-3.1Z"/>
      </g>
      <g>
        <path d="m538.19,354.31c-.71-.51-1.55-.82-2.45-.91v-1.11c0-.42-.34-.76-.77-.76h-.12c-.43,0-.77.34-.77.76v1.11c-.9.09-1.75.4-2.45.91-.71.48-1.09,1.08-1.14,1.75-.06.85.42,1.62.85,2.01.7.66,1.64,1.05,2.74,1.14v1.55c0,.42.34.76.77.76h.12c.43,0,.77-.34.77-.76v-1.55c1.1-.09,2.04-.48,2.74-1.14.43-.39.91-1.17.85-2.01-.05-.68-.43-1.26-1.14-1.75Zm-2.45,1.84c0-.41,0-.75.04-1.08,0-.11.1-.2.21-.21h.07c.8,0,1.4.28,1.68.79.25.45.22,1.01-.09,1.45-.34.52-.97.77-1.72.69-.1,0-.18-.1-.18-.21,0-.27,0-.56,0-.85,0-.2,0-.39,0-.59Zm-3.66-.49c.27-.51.87-.79,1.67-.79h.07c.12,0,.21.1.22.21.03.33.04.69.04,1.08,0,.2,0,.4,0,.6,0,.28,0,.57,0,.84,0,.11-.08.2-.18.21-.75.09-1.37-.17-1.72-.69-.3-.44-.33-1-.09-1.45Z"/>
        <path class="cls-4" d="m524.44,357.63c0,1.63,0,2.16,0,3.1,0,.66-.29.79-.8.79s-.93-.29-.93-.87c0-1.15-.04-6.16-.04-8.56,0-.52.34-.57.65-.57.41,0,.86.14.86.57,0,1.02.08,3.16.08,3.16,0,0,1.87-1.75,2.5-2.42.41-.44,1-.5,1.3-.14s.47.6-.1,1.15c-.85.84-1.04,1.21-2.46,2.53.83.86,2.18,1.99,3.61,3.62.45.51.34,1.14.17,1.3s-.8.24-1.19-.17-1.92-2.09-3.65-3.5Z"/>
      </g>
      <g>
        <path class="cls-4" d="m440.77,469.98c.06-.29,1.97-5.54,3.02-7.94.32-.73.61-.72.74-.72s.42,0,.74.72c1.05,2.4,2.96,7.64,3.02,7.94.23,1-.08,1.16-.44,1.3-.28.13-.86.02-1.12-.7-.16-.42-2.2-5.86-2.2-5.86,0,0-2.05,5.44-2.2,5.86-.25.72-.83.82-1.12.7-.36-.15-.67-.3-.44-1.3Z"/>
        <path class="cls-4" d="m434.02,461.8c2.1-.68,4.35-.62,5.15.12,1.3,1.2,1.17,2.8.53,3.78-.96,1.47-3.93,1.42-3.93,1.42,0,0,.29,3.22.2,3.68-.02.1-.5.53-.74.53-.26,0-.84-.18-.88-.48-.61-5.29-.67-8.32-.33-9.04Zm1.64,3.84c2.37.24,3.12-.65,2.92-2-.2-1.35-2.71-1-3.01-.85-.11,1.56-.08,1.77.09,2.85Z"/>
      </g>
      <g>
        <path class="cls-4" d="m621.93,469.98c.06-.29,1.97-5.54,3.02-7.94.32-.73.61-.72.74-.72s.42,0,.74.72c1.05,2.4,2.96,7.64,3.02,7.94.23,1-.08,1.16-.44,1.3-.28.13-.86.02-1.12-.7-.16-.42-2.2-5.86-2.2-5.86,0,0-2.05,5.44-2.2,5.86-.25.72-.83.82-1.12.7-.36-.15-.67-.3-.44-1.3Z"/>
        <path class="cls-4" d="m619.28,469.96l-2.7-3.03c.87-.25,1.47-.64,1.8-1.14.66-1.02.77-2.65-.54-3.86-.83-.76-3.04-.82-5.15-.14l-.06.02-.02.05c-.26.54-.14,2.22.07,5.27.08,1.06.16,2.26.24,3.62.02.37.41.57.79.57.3,0,.77-.17.84-.62.06-.42-.05-2.87-.08-3.48h.17l3.42,3.83c.16.18.38.27.61.27.2,0,.4-.07.55-.21.34-.3.37-.83.07-1.16Zm-5.02-4.32l-.03-.2c-.13-.82-.2-1.21-.11-2.5.38-.1,1.92-.27,2.71.15.28.14.44.34.47.59.08.5-.06.95-.38,1.3-.52.53-1.46.77-2.66.67Z"/>
      </g>
      <g>
        <path class="cls-4" d="m711.81,469.98c.06-.29,1.97-5.54,3.02-7.94.32-.73.61-.72.74-.72s.42,0,.74.72c1.05,2.4,2.96,7.64,3.02,7.94.23,1-.08,1.16-.44,1.3-.28.13-.86.02-1.12-.7-.16-.42-2.2-5.86-2.2-5.86,0,0-2.05,5.44-2.2,5.86-.25.72-.83.82-1.12.7-.36-.15-.67-.3-.44-1.3Z"/>
        <path class="cls-4" d="m709.4,469.96l-2.7-3.03c.87-.25,1.47-.64,1.8-1.14.66-1.02.77-2.65-.54-3.86-.83-.76-3.04-.82-5.15-.14l-.06.02-.02.05c-.26.54-.14,2.22.07,5.27.08,1.06.16,2.26.24,3.62.02.37.41.57.79.57.3,0,.77-.17.84-.62.06-.42-.05-2.87-.08-3.48h.17l3.42,3.83c.16.18.38.27.61.27.2,0,.4-.07.55-.21.34-.3.37-.83.07-1.16Zm-5.02-4.32l-.03-.2c-.13-.82-.2-1.21-.11-2.5.38-.1,1.92-.27,2.71.15.28.14.44.34.47.59.08.5-.06.95-.38,1.3-.52.53-1.46.77-2.66.67Z"/>
      </g>
      <g>
        <path class="cls-4" d="m84.09,469.98c.06-.29,1.97-5.54,3.02-7.94.32-.73.61-.72.74-.72s.42,0,.74.72c1.05,2.4,2.96,7.64,3.02,7.94.23,1-.08,1.16-.44,1.3-.28.13-.86.02-1.12-.7-.16-.42-2.2-5.86-2.2-5.86,0,0-2.05,5.44-2.2,5.86-.25.72-.83.82-1.12.7-.36-.15-.67-.3-.44-1.3Z"/>
        <path class="cls-4" d="m81.43,471.32c-.46.06-.96-.28-1.19-1.14-.42-1.54-.92-3.7-1.44-5.63-1.11,2.72-1.86,4.39-2.5,4.38-.01,0-.02,0-.03-.01-.01.01-.02.01-.03.01-.64.01-1.39-1.65-2.5-4.38-.51,1.93-1.02,4.09-1.44,5.63-.24.86-.73,1.2-1.19,1.14-.59-.07-.98-.49-.74-1.25.25-.81,1.84-6.07,2.3-7.72.47-1.65,1.59-.9,1.8-.49.21.41,1.36,3.67,1.8,4.59.44-.92,1.59-4.18,1.8-4.59.21-.41,1.33-1.16,1.8.49.46,1.64,2.05,6.9,2.3,7.72.24.76-.15,1.18-.74,1.25Z"/>
      </g>
      <g>
        <path class="cls-4" d="m171.95,469.98c.06-.29,1.97-5.54,3.02-7.94.32-.73.61-.72.74-.72s.42,0,.74.72c1.05,2.4,2.96,7.64,3.02,7.94.23,1-.08,1.16-.44,1.3-.28.13-.86.02-1.12-.7-.16-.42-2.2-5.86-2.2-5.86,0,0-2.05,5.44-2.2,5.86-.25.72-.83.82-1.12.7-.36-.15-.67-.3-.44-1.3Z"/>
        <path class="cls-4" d="m171.52,462.65c-.2.78-1.37,6.55-1.58,7.33s-.44,1.33-.9,1.35-.64-.27-1.17-1.25c-.53-.98-1.66-3.47-2.44-5.56-.53,1.89-.73,3.97-1.16,5.48-.25.85-.58,1.36-1.02,1.29-.1-.02-1.05-.26-.75-1.36.22-.81,1.48-6,1.96-7.62.48-1.62,1.54-.85,1.73-.44.19.41,2.31,5.6,2.67,6.53.19-.85.69-4.5,1.08-6.27.13-.6.81-.88,1.1-.76s.68.5.48,1.29Z"/>
      </g>
      <g>
        <path class="cls-4" d="m352.51,469.98c.06-.29,1.97-5.54,3.02-7.94.32-.73.61-.72.74-.72s.42,0,.74.72c1.05,2.4,2.96,7.64,3.02,7.94.23,1-.08,1.16-.44,1.3-.28.13-.86.02-1.12-.7-.16-.42-2.2-5.86-2.2-5.86,0,0-2.05,5.44-2.2,5.86-.25.72-.83.82-1.12.7-.36-.15-.67-.3-.44-1.3Z"/>
        <path class="cls-4" d="m342.09,468.2c-.55-2.97.03-4.69,2.09-6.23,1.86-1.39,4.92-.33,5.78,1.24.73,1.31,1.54,4.09-.47,6.49-.67.8-1.59,1.4-2.62,1.57-2.46.41-4.48-1.4-4.79-3.06Zm2.23.5c1.14,1.13,3.41,1.11,4.45-.7,1.02-1.77.06-3.66-.63-4.27-.55-.49-2.53-1.19-3.76.41-1.11,1.45-.84,3.8-.07,4.56Z"/>
      </g>
      <g>
        <path class="cls-4" d="m262.44,469.98c.06-.29,1.97-5.54,3.02-7.94.32-.73.61-.72.74-.72s.42,0,.74.72c1.05,2.4,2.96,7.64,3.02,7.94.23,1-.08,1.16-.44,1.3-.28.13-.86.02-1.12-.7-.16-.42-2.2-5.86-2.2-5.86,0,0-2.05,5.44-2.2,5.86-.25.72-.83.82-1.12.7-.36-.15-.67-.3-.44-1.3Z"/>
        <path class="cls-4" d="m252.15,468.2c-.55-2.97.03-4.69,2.09-6.23,1.86-1.39,4.92-.33,5.78,1.24.73,1.31,1.54,4.09-.47,6.49-.67.8-1.59,1.4-2.62,1.57-2.46.41-4.48-1.4-4.79-3.06Zm2.23.5c1.14,1.13,3.41,1.11,4.45-.7,1.02-1.77.06-3.66-.63-4.27-.55-.49-2.53-1.19-3.76.41-1.11,1.45-.84,3.8-.07,4.56Z"/>
      </g>
      <g>
        <path class="cls-4" d="m532.48,469.98c.06-.29,1.97-5.54,3.02-7.94.32-.73.61-.72.74-.72s.42,0,.74.72c1.05,2.4,2.96,7.64,3.02,7.94.23,1-.08,1.16-.44,1.3-.28.13-.86.02-1.12-.7-.16-.42-2.2-5.86-2.2-5.86,0,0-2.05,5.44-2.2,5.86-.25.72-.83.82-1.12.7-.36-.15-.67-.3-.44-1.3Z"/>
        <path class="cls-4" d="m531.09,469.83l-.97-.99-.02-.02c1.23-2.17.51-4.46-.12-5.62-.87-1.56-3.93-2.62-5.78-1.24-2.07,1.53-2.64,3.26-2.09,6.23.3,1.66,2.32,3.48,4.78,3.07.79-.14,1.51-.53,2.11-1.07l.84.86c.34.34.89.35,1.24,0,.35-.34.35-.9,0-1.24Zm-6.76-1.14c-.78-.77-1.05-3.12.06-4.56,1.24-1.59,3.21-.9,3.76-.41.64.58,1.52,2.26.81,3.93l-.1-.1h0s-1.02-1.04-1.02-1.04c-.34-.35-.9-.35-1.24,0-.18.16-.26.39-.26.62s.08.45.25.62l1.1,1.12.15.15c-1.14.75-2.65.55-3.51-.31Z"/>
      </g>
      <g>
        <path class="cls-4" d="m171.91,580.18c.06-.29,1.97-5.54,3.02-7.94.32-.73.61-.72.74-.72s.42,0,.74.72c1.05,2.4,2.96,7.64,3.02,7.94.23,1-.08,1.16-.44,1.3-.28.13-.86.02-1.12-.7-.16-.42-2.2-5.86-2.2-5.86,0,0-2.05,5.44-2.2,5.86-.25.72-.83.82-1.12.7-.36-.15-.67-.3-.44-1.3Z"/>
        <path class="cls-4" d="m169.73,579.16c-.25,1.19-1.45,2.37-3.24,2.37h-.11c-1-.04-2.78-.26-3.51-1.25-.39-.52-.47-1.13-.19-1.44.24-.27.68-.24,1.23.08,1.08,1.06,2.52,1.08,3.42.64.52-.26.82-.65.77-1.03-.03-.33-.36-.94-2.12-1.35-2.5-.56-3.55-1.98-3.49-3.14.06-1.03,1.04-2.24,3.59-2.51.07,0,.13,0,.2,0,1.08,0,2.66.83,2.96,1.59.13.32.04.59-.26.82-.19.14-.59-.05-1.1-.3-.48-.23-1.01-.49-1.51-.55-.14-.02-.27-.03-.4-.03-.95,0-1.68.48-1.82.99-.13.47.23.9.96,1.2l2.99,1.21c1.5.62,1.82,1.8,1.62,2.7Z"/>
      </g>
      <g>
        <path class="cls-4" d="m81.67,580.18c.06-.29,1.97-5.54,3.02-7.94.32-.73.61-.72.74-.72s.42,0,.74.72c1.05,2.4,2.96,7.64,3.02,7.94.23,1-.08,1.16-.44,1.3-.28.13-.86.02-1.12-.7-.16-.42-2.2-5.86-2.2-5.86,0,0-2.05,5.44-2.2,5.86-.25.72-.83.82-1.12.7-.36-.15-.67-.3-.44-1.3Z"/>
        <path class="cls-4" d="m79.97,579.16c-.25,1.19-1.45,2.37-3.24,2.37h-.11c-1-.04-2.78-.26-3.51-1.25-.39-.52-.47-1.13-.19-1.44.24-.27.68-.24,1.23.08,1.08,1.06,2.52,1.08,3.42.64.52-.26.82-.65.77-1.03-.03-.33-.36-.94-2.12-1.35-2.5-.56-3.55-1.98-3.49-3.14.06-1.03,1.04-2.24,3.59-2.51.07,0,.13,0,.2,0,1.08,0,2.66.83,2.96,1.59.13.32.04.59-.26.82-.19.14-.59-.05-1.1-.3-.48-.23-1.01-.49-1.51-.55-.14-.02-.27-.03-.4-.03-.95,0-1.68.48-1.82.99-.13.47.23.9.96,1.2l2.99,1.21c1.5.62,1.82,1.8,1.62,2.7Z"/>
      </g>
      <g>
        <path class="cls-4" d="m711.88,580.18c.06-.29,1.97-5.54,3.02-7.94.32-.73.61-.72.74-.72s.42,0,.74.72c1.05,2.4,2.96,7.64,3.02,7.94.23,1-.08,1.16-.44,1.3-.28.13-.86.02-1.12-.7-.16-.42-2.2-5.86-2.2-5.86,0,0-2.05,5.44-2.2,5.86-.25.72-.83.82-1.12.7-.36-.15-.67-.3-.44-1.3Z"/>
        <path class="cls-4" d="m710.12,572.88c-.06.29-1.97,5.54-3.02,7.94-.32.73-.61.72-.74.72s-.42,0-.74-.72c-1.05-2.4-2.96-7.64-3.02-7.94-.23-1,.08-1.16.44-1.3.28-.13.86-.02,1.12.7.16.42,2.2,5.86,2.2,5.86,0,0,2.05-5.44,2.2-5.86.25-.72.83-.82,1.12-.7.36.15.67.3.44,1.3Z"/>
      </g>
      <g>
        <path class="cls-4" d="m621.53,580.18c.06-.29,1.97-5.54,3.02-7.94.32-.73.61-.72.74-.72s.42,0,.74.72c1.05,2.4,2.96,7.64,3.02,7.94.23,1-.08,1.16-.44,1.3-.28.13-.86.02-1.12-.7-.16-.42-2.2-5.86-2.2-5.86,0,0-2.05,5.44-2.2,5.86-.25.72-.83.82-1.12.7-.36-.15-.67-.3-.44-1.3Z"/>
        <path class="cls-4" d="m620.47,572.88c-.06.29-1.97,5.54-3.02,7.94-.32.73-.61.72-.74.72s-.42,0-.74-.72c-1.05-2.4-2.96-7.64-3.02-7.94-.23-1,.08-1.16.44-1.3.28-.13.86-.02,1.12.7.16.42,2.2,5.86,2.2,5.86,0,0,2.05-5.44,2.2-5.86.25-.72.83-.82,1.12-.7.36.15.67.3.44,1.3Z"/>
      </g>
      <g>
        <path class="cls-4" d="m532.05,580.18c.06-.29,1.97-5.54,3.02-7.94.32-.73.61-.72.74-.72s.42,0,.74.72c1.05,2.4,2.96,7.64,3.02,7.94.23,1-.08,1.16-.44,1.3-.28.13-.86.02-1.12-.7-.16-.42-2.2-5.86-2.2-5.86,0,0-2.05,5.44-2.2,5.86-.25.72-.83.82-1.12.7-.36-.15-.67-.3-.44-1.3Z"/>
        <path class="cls-4" d="m530.38,577.05c-.11.73-.3,1.42-.58,2.11-.6,1.42-1.8,2.3-3.21,2.37h-.26c-1.41-.07-2.6-.95-3.21-2.37-.28-.67-.47-1.36-.57-2.11-.19-1.31-.24-2.6-.18-4.35.02-.47.13-.8.34-.99.14-.13.32-.19.52-.19.64.04.78.66.82,1.21,0,.18,0,.48,0,.86-.05,1.51-.14,4.35.93,5.36.21.2.58.43.94.56.35.14.73.14,1.08,0,.36-.14.74-.37.95-.56,1.06-1.01.98-3.81.93-5.33,0-.4-.02-.71,0-.89.03-.5.15-1.17.8-1.21.21,0,.39.06.52.19.22.19.33.52.34.99.08,1.8.03,3.06-.16,4.35Z"/>
      </g>
      <g>
        <path class="cls-4" d="m442.24,580.18c.06-.29,1.97-5.54,3.02-7.94.32-.73.61-.72.74-.72s.42,0,.74.72c1.05,2.4,2.96,7.64,3.02,7.94.23,1-.08,1.16-.44,1.3-.28.13-.86.02-1.12-.7-.16-.42-2.2-5.86-2.2-5.86,0,0-2.05,5.44-2.2,5.86-.25.72-.83.82-1.12.7-.36-.15-.67-.3-.44-1.3Z"/>
        <path class="cls-4" d="m440.38,577.05c-.11.73-.3,1.42-.58,2.11-.6,1.42-1.8,2.3-3.21,2.37h-.26c-1.41-.07-2.6-.95-3.21-2.37-.28-.67-.47-1.36-.57-2.11-.19-1.31-.24-2.6-.18-4.35.02-.47.13-.8.34-.99.14-.13.32-.19.52-.19.64.04.78.66.82,1.21,0,.18,0,.48,0,.86-.05,1.51-.14,4.35.93,5.36.21.2.58.43.94.56.35.14.73.14,1.08,0,.36-.14.74-.37.95-.56,1.06-1.01.98-3.81.93-5.33,0-.4-.02-.71,0-.89.03-.5.15-1.17.8-1.21.21,0,.39.06.52.19.22.19.33.52.34.99.08,1.8.03,3.06-.16,4.35Z"/>
      </g>
      <g>
        <path d="m89.13,354.31c-.71-.51-1.55-.82-2.45-.91v-1.11c0-.42-.34-.76-.77-.76h-.12c-.43,0-.77.34-.77.76v1.11c-.9.09-1.75.4-2.45.91-.71.48-1.09,1.08-1.14,1.75-.06.85.42,1.62.85,2.01.7.66,1.64,1.05,2.74,1.14v1.55c0,.42.34.76.77.76h.12c.43,0,.77-.34.77-.76v-1.55c1.1-.09,2.04-.48,2.74-1.14.43-.39.91-1.17.85-2.01-.05-.68-.43-1.26-1.14-1.75Zm-2.45,1.84c0-.41,0-.75.04-1.08,0-.11.1-.2.21-.21h.07c.8,0,1.4.28,1.68.79.25.45.22,1.01-.09,1.45-.34.52-.97.77-1.72.69-.1,0-.18-.1-.18-.21,0-.27,0-.56,0-.85,0-.2,0-.39,0-.59Zm-3.66-.49c.27-.51.87-.79,1.67-.79h.07c.12,0,.21.1.22.21.03.33.04.69.04,1.08,0,.2,0,.4,0,.6,0,.28,0,.57,0,.84,0,.11-.08.2-.18.21-.75.09-1.37-.17-1.72-.69-.3-.44-.33-1-.09-1.45Z"/>
        <path class="cls-4" d="m78.9,353.18c-.42-.02-1.11-.04-1.33-.05-2.5-.16-3.99,1.77-4.23,4.08-.08.74.07,1.24.63,1.77.96.88,2.65,1.08,3.68.33.29-.21.56-.57.67-.92.23-.7-.06-1.13-.73-1.15-.55-.02-1.11.07-1.67.1-.47.02-.98.05-1.11-.62-.11-.57.35-1.04,1.07-1.13.6-.07,1.2-.08,1.8-.13.41-.04.92,0,1.41-.03.86,1.57.93,2.45.34,3.91-.66,1.62-1.9,2.23-3.38,2.2-.76-.02-1.61-.21-2.26-.62-2.32-1.47-2.63-3.71-1.3-6.4,1.3-3.01,4.25-2.97,5.53-2.98.84,0,1.06.15.85,1.66Z"/>
      </g>
      <g>
        <path class="cls-4" d="m352.18,580.18c.06-.29,1.97-5.54,3.02-7.94.32-.73.61-.72.74-.72s.42,0,.74.72c1.05,2.4,2.96,7.64,3.02,7.94.23,1-.08,1.16-.44,1.3-.28.13-.86.02-1.12-.7-.16-.42-2.2-5.86-2.2-5.86,0,0-2.05,5.44-2.2,5.86-.25.72-.83.82-1.12.7-.36-.15-.67-.3-.44-1.3Z"/>
        <path class="cls-4" d="m350.4,572.45c-.01.49-.38.78-1.17.77h-2.09v7.47c0,.45-.37.83-.83.83s-.83-.38-.83-.83v-7.47h-2.09c-.79,0-1.16-.28-1.17-.77-.02-.62.45-.89,1.12-.91.82-.02,5.12-.02,5.94,0,.67.02,1.14.29,1.12.91Z"/>
      </g>
      <g>
        <path class="cls-4" d="m262.04,580.18c.06-.29,1.97-5.54,3.02-7.94.32-.73.61-.72.74-.72s.42,0,.74.72c1.05,2.4,2.96,7.64,3.02,7.94.23,1-.08,1.16-.44,1.3-.28.13-.86.02-1.12-.7-.16-.42-2.2-5.86-2.2-5.86,0,0-2.05,5.44-2.2,5.86-.25.72-.83.82-1.12.7-.36-.15-.67-.3-.44-1.3Z"/>
        <path class="cls-4" d="m260.54,572.45c-.01.49-.38.78-1.17.77h-2.09v7.47c0,.45-.37.83-.83.83s-.83-.38-.83-.83v-7.47h-2.09c-.79,0-1.16-.28-1.17-.77-.02-.62.45-.89,1.12-.91.82-.02,5.12-.02,5.94,0,.67.02,1.14.29,1.12.91Z"/>
      </g>
      <g>
        <path d="m268.66,354.31c-.71-.51-1.55-.82-2.45-.91v-1.11c0-.42-.34-.76-.77-.76h-.12c-.43,0-.77.34-.77.76v1.11c-.9.09-1.75.4-2.45.91-.71.48-1.09,1.08-1.14,1.75-.06.85.42,1.62.85,2.01.7.66,1.64,1.05,2.74,1.14v1.55c0,.42.34.76.77.76h.12c.43,0,.77-.34.77-.76v-1.55c1.1-.09,2.04-.48,2.74-1.14.43-.39.91-1.17.85-2.01-.05-.68-.43-1.26-1.14-1.75Zm-2.45,1.84c0-.41,0-.75.04-1.08,0-.11.1-.2.21-.21h.07c.8,0,1.4.28,1.68.79.25.45.22,1.01-.09,1.45-.34.52-.97.77-1.72.69-.1,0-.18-.1-.18-.21,0-.27,0-.56,0-.85,0-.2,0-.39,0-.59Zm-3.66-.49c.27-.51.87-.79,1.67-.79h.07c.12,0,.21.1.22.21.03.33.04.69.04,1.08,0,.2,0,.4,0,.6,0,.28,0,.57,0,.84,0,.11-.08.2-.18.21-.75.09-1.37-.17-1.72-.69-.3-.44-.33-1-.09-1.45Z"/>
        <path class="cls-4" d="m259.53,360.78c0,.65-.36.74-1.5.74h-4.33c-1.13,0-1.5-.09-1.5-.74s.49-.73,1.75-.73,1.17.32,1.17-3.55.1-3.5-2-3.5c-.49,0-.92-.16-.92-.72s.2-.75.99-.75h5.35c.79,0,.99.2.99.75s-.43.72-.92.72c-2.1,0-2-.37-2,3.5s-.14,3.55,1.17,3.55,1.75.08,1.75.73Z"/>
      </g>
      <g>
        <path d="m358.58,354.31c-.71-.51-1.55-.82-2.45-.91v-1.11c0-.42-.34-.76-.77-.76h-.12c-.43,0-.77.34-.77.76v1.11c-.9.09-1.75.4-2.45.91-.71.48-1.09,1.08-1.14,1.75-.06.85.42,1.62.85,2.01.7.66,1.64,1.05,2.74,1.14v1.55c0,.42.34.76.77.76h.12c.43,0,.77-.34.77-.76v-1.55c1.1-.09,2.04-.48,2.74-1.14.43-.39.91-1.17.85-2.01-.05-.68-.43-1.26-1.14-1.75Zm-2.45,1.84c0-.41,0-.75.04-1.08,0-.11.1-.2.21-.21h.07c.8,0,1.4.28,1.68.79.25.45.22,1.01-.09,1.45-.34.52-.97.77-1.72.69-.1,0-.18-.1-.18-.21,0-.27,0-.56,0-.85,0-.2,0-.39,0-.59Zm-3.66-.49c.27-.51.87-.79,1.67-.79h.07c.12,0,.21.1.22.21.03.33.04.69.04,1.08,0,.2,0,.4,0,.6,0,.28,0,.57,0,.84,0,.11-.08.2-.18.21-.75.09-1.37-.17-1.72-.69-.3-.44-.33-1-.09-1.45Z"/>
        <path class="cls-4" d="m349.61,360.78c0,.65-.36.74-1.5.74h-4.33c-1.13,0-1.5-.09-1.5-.74s.49-.73,1.75-.73,1.17.32,1.17-3.55.1-3.5-2-3.5c-.49,0-.92-.16-.92-.72s.2-.75.99-.75h5.35c.79,0,.99.2.99.75s-.43.72-.92.72c-2.1,0-2-.37-2,3.5s-.14,3.55,1.17,3.55,1.75.08,1.75.73Z"/>
      </g>
      <g>
        <path d="m178.61,354.31c-.71-.51-1.55-.82-2.45-.91v-1.11c0-.42-.34-.76-.77-.76h-.12c-.43,0-.77.34-.77.76v1.11c-.9.09-1.75.4-2.45.91-.71.48-1.09,1.08-1.14,1.75-.06.85.42,1.62.85,2.01.7.66,1.64,1.05,2.74,1.14v1.55c0,.42.34.76.77.76h.12c.43,0,.77-.34.77-.76v-1.55c1.1-.09,2.04-.48,2.74-1.14.43-.39.91-1.17.85-2.01-.05-.68-.43-1.26-1.14-1.75Zm-2.45,1.84c0-.41,0-.75.04-1.08,0-.11.1-.2.21-.21h.07c.8,0,1.4.28,1.68.79.25.45.22,1.01-.09,1.45-.34.52-.97.77-1.72.69-.1,0-.18-.1-.18-.21,0-.27,0-.56,0-.85,0-.2,0-.39,0-.59Zm-3.66-.49c.27-.51.87-.79,1.67-.79h.07c.12,0,.21.1.22.21.03.33.04.69.04,1.08,0,.2,0,.4,0,.6,0,.28,0,.57,0,.84,0,.11-.08.2-.18.21-.75.09-1.37-.17-1.72-.69-.3-.44-.33-1-.09-1.45Z"/>
        <path class="cls-4" d="m168.89,352.6v7.97c0,.82-.23.95-.84.95-.67,0-.75-.2-.75-.9,0-2.75.12-3.14-.89-3.17-.34-.02-1.3-.02-1.68,0-1.01.03-.89.42-.89,3.17,0,.7-.08.9-.75.9-.61,0-.84-.13-.84-.95v-7.97c0-.96.39-1.07.88-1.07s.71.2.71,1.04c0,2.76.11,3.25.76,3.25h1.94c.65,0,.76-.49.76-3.25,0-.84.22-1.04.71-1.04s.88.11.88,1.07Z"/>
      </g>
      <g>
        <path class="cls-4" d="m89.54,242.85c-.5,2.51-1.03,3.37-3.39,3.82-.04,0-.07.04-.08.07v3.6c0,.22-.1.44-.25.6s-.36.24-.59.24-.43-.09-.61-.24c-.16-.16-.24-.38-.24-.6v-3.6s-.05-.06-.09-.07c-2.35-.45-2.88-1.31-3.38-3.82-.08-.36-.04-.65.12-.83.17-.21.42-.24.56-.24.24,0,.43.22.56.45.13.23.2.47.21.54.25,1.71.73,2.29,1.85,2.29h.09s.07-.02.09-.06v-3.05c.12-.28.2-.48.31-.6.07-.06.15-.1.23-.13.05-.02.1-.03.14-.04.11-.02.24-.02.33,0,.05,0,.1.02.15.04.07,0,.15.06.22.13.12.12.21.31.3.6v.03s.02.03.02.05v2.94s0,.02,0,.04c0,.03.05.05.09.05,1.2.04,1.68-.54,1.93-2.29.03-.13.28-.99.76-.99h0c.14,0,.39.03.56.24.15.19.19.47.12.83Z"/>
        <path class="cls-4" d="m79.84,250.19c-.87-2.99-2.3-6.84-2.48-7.31-.18-.46-.77-1.7-1.18-1.7s-1,1.24-1.18,1.7c-.18.47-1.61,4.32-2.48,7.31-.24.84.06.91.18.94,1.61.21,1.32-.3,1.57-1.4.23-1,.22-1.46,1-1.46.38,0,.56.01.91.01s.54-.01.91-.01c.78,0,.77.46,1,1.46.25,1.1-.04,1.61,1.57,1.4.12-.03.42-.1.18-.94Zm-2.91-3.37h-1.51c-.14,0-.23-.07-.19-.23l.94-3.44.94,3.44c.04.16-.05.23-.19.23Z"/>
      </g>
    </g>
  </g>
  <g>
    <g>
      <g>
        <circle class="cls-4" cx="81" cy="231.68" r="2.5"/>
        <circle class="cls-4" cx="111" cy="201.68" r="2.5"/>
        <circle class="cls-4" cx="81" cy="171.68" r="2.5"/>
        <circle class="cls-4" cx="51" cy="201.68" r="2.5"/>
        <circle class="cls-4" cx="81" cy="201.68" r="1.12"/>
      </g>
      <g>
        <circle class="cls-4" cx="171" cy="231.68" r="2.5"/>
        <circle class="cls-4" cx="201" cy="201.68" r="2.5"/>
        <circle class="cls-4" cx="171" cy="171.68" r="2.5"/>
        <circle class="cls-4" cx="141" cy="201.68" r="2.5"/>
        <circle class="cls-4" cx="171" cy="201.68" r="1.12"/>
      </g>
      <g>
        <circle class="cls-4" cx="261" cy="231.68" r="2.5"/>
        <circle class="cls-4" cx="291" cy="201.68" r="2.5"/>
        <circle class="cls-4" cx="261" cy="171.68" r="2.5"/>
        <circle class="cls-4" cx="231" cy="201.68" r="2.5"/>
        <circle class="cls-4" cx="261" cy="201.68" r="1.12"/>
      </g>
      <g>
        <circle class="cls-4" cx="351" cy="231.68" r="2.5"/>
        <circle class="cls-4" cx="381" cy="201.68" r="2.5"/>
        <circle class="cls-4" cx="351" cy="171.68" r="2.5"/>
        <circle class="cls-4" cx="321" cy="201.68" r="2.5"/>
        <circle class="cls-4" cx="351" cy="201.68" r="1.12"/>
      </g>
      <g>
        <circle class="cls-4" cx="441" cy="231.68" r="2.5"/>
        <circle class="cls-4" cx="471" cy="201.68" r="2.5"/>
        <circle class="cls-4" cx="441" cy="171.68" r="2.5"/>
        <circle class="cls-4" cx="411" cy="201.68" r="2.5"/>
        <circle class="cls-4" cx="441" cy="201.68" r="1.12"/>
      </g>
      <g>
        <circle class="cls-4" cx="531" cy="231.68" r="2.5"/>
        <circle class="cls-4" cx="561" cy="201.68" r="2.5"/>
        <circle class="cls-4" cx="531" cy="171.68" r="2.5"/>
        <circle class="cls-4" cx="501" cy="201.68" r="2.5"/>
        <circle class="cls-4" cx="531" cy="201.68" r="1.12"/>
      </g>
      <g>
        <circle class="cls-4" cx="621" cy="231.68" r="2.5"/>
        <circle class="cls-4" cx="651" cy="201.68" r="2.5"/>
        <circle class="cls-4" cx="621" cy="171.68" r="2.5"/>
        <circle class="cls-4" cx="591" cy="201.68" r="2.5"/>
        <circle class="cls-4" cx="621" cy="201.68" r="1.12"/>
      </g>
      <g>
        <circle class="cls-4" cx="711" cy="231.68" r="2.5"/>
        <circle class="cls-4" cx="741" cy="201.68" r="2.5"/>
        <circle class="cls-4" cx="711" cy="171.68" r="2.5"/>
        <circle class="cls-4" cx="681" cy="201.68" r="2.5"/>
        <circle class="cls-4" cx="711" cy="201.68" r="1.12"/>
      </g>
    </g>
    <g>
      <g>
        <circle class="cls-4" cx="81" cy="341.68" r="2.5"/>
        <circle class="cls-4" cx="111" cy="311.68" r="2.5"/>
        <circle class="cls-4" cx="81" cy="281.68" r="2.5"/>
        <circle class="cls-4" cx="51" cy="311.68" r="2.5"/>
        <circle class="cls-4" cx="81" cy="311.68" r="1.12"/>
      </g>
      <g>
        <circle class="cls-4" cx="171" cy="341.68" r="2.5"/>
        <circle class="cls-4" cx="201" cy="311.68" r="2.5"/>
        <circle class="cls-4" cx="171" cy="281.68" r="2.5"/>
        <circle class="cls-4" cx="141" cy="311.68" r="2.5"/>
        <circle class="cls-4" cx="171" cy="311.68" r="1.12"/>
      </g>
      <g>
        <circle class="cls-4" cx="261" cy="341.68" r="2.5"/>
        <circle class="cls-4" cx="291" cy="311.68" r="2.5"/>
        <circle class="cls-4" cx="261" cy="281.68" r="2.5"/>
        <circle class="cls-4" cx="231" cy="311.68" r="2.5"/>
        <circle class="cls-4" cx="261" cy="311.68" r="1.12"/>
      </g>
      <g>
        <circle class="cls-4" cx="351" cy="341.68" r="2.5"/>
        <circle class="cls-4" cx="381" cy="311.68" r="2.5"/>
        <circle class="cls-4" cx="351" cy="281.68" r="2.5"/>
        <circle class="cls-4" cx="321" cy="311.68" r="2.5"/>
        <circle class="cls-4" cx="351" cy="311.68" r="1.12"/>
      </g>
      <g>
        <circle class="cls-4" cx="441" cy="341.68" r="2.5"/>
        <circle class="cls-4" cx="471" cy="311.68" r="2.5"/>
        <circle class="cls-4" cx="441" cy="281.68" r="2.5"/>
        <circle class="cls-4" cx="411" cy="311.68" r="2.5"/>
        <circle class="cls-4" cx="441" cy="311.68" r="1.12"/>
      </g>
      <g>
        <circle class="cls-4" cx="531" cy="341.68" r="2.5"/>
        <circle class="cls-4" cx="561" cy="311.68" r="2.5"/>
        <circle class="cls-4" cx="531" cy="281.68" r="2.5"/>
        <circle class="cls-4" cx="501" cy="311.68" r="2.5"/>
        <circle class="cls-4" cx="531" cy="311.68" r="1.12"/>
      </g>
      <g>
        <circle class="cls-4" cx="621" cy="341.68" r="2.5"/>
        <circle class="cls-4" cx="651" cy="311.68" r="2.5"/>
        <circle class="cls-4" cx="621" cy="281.68" r="2.5"/>
        <circle class="cls-4" cx="591" cy="311.68" r="2.5"/>
        <circle class="cls-4" cx="621" cy="311.68" r="1.12"/>
      </g>
      <g>
        <circle class="cls-4" cx="711" cy="341.68" r="2.5"/>
        <circle class="cls-4" cx="741" cy="311.68" r="2.5"/>
        <circle class="cls-4" cx="711" cy="281.68" r="2.5"/>
        <circle class="cls-4" cx="681" cy="311.68" r="2.5"/>
        <circle class="cls-4" cx="711" cy="311.68" r="1.12"/>
      </g>
    </g>
    <g>
      <g>
        <circle class="cls-4" cx="81" cy="451.68" r="2.5"/>
        <circle class="cls-4" cx="111" cy="421.68" r="2.5"/>
        <circle class="cls-4" cx="81" cy="391.68" r="2.5"/>
        <circle class="cls-4" cx="51" cy="421.68" r="2.5"/>
        <circle class="cls-4" cx="81" cy="421.68" r="1.12"/>
      </g>
      <g>
        <circle class="cls-4" cx="171" cy="451.68" r="2.5"/>
        <circle class="cls-4" cx="201" cy="421.68" r="2.5"/>
        <circle class="cls-4" cx="171" cy="391.68" r="2.5"/>
        <circle class="cls-4" cx="141" cy="421.68" r="2.5"/>
        <circle class="cls-4" cx="171" cy="421.68" r="1.12"/>
      </g>
      <g>
        <circle class="cls-4" cx="261" cy="451.68" r="2.5"/>
        <circle class="cls-4" cx="291" cy="421.68" r="2.5"/>
        <circle class="cls-4" cx="261" cy="391.68" r="2.5"/>
        <circle class="cls-4" cx="231" cy="421.68" r="2.5"/>
        <circle class="cls-4" cx="261" cy="421.68" r="1.12"/>
      </g>
      <g>
        <circle class="cls-4" cx="351" cy="451.68" r="2.5"/>
        <circle class="cls-4" cx="381" cy="421.68" r="2.5"/>
        <circle class="cls-4" cx="351" cy="391.68" r="2.5"/>
        <circle class="cls-4" cx="321" cy="421.68" r="2.5"/>
        <circle class="cls-4" cx="351" cy="421.68" r="1.12"/>
      </g>
      <g>
        <circle class="cls-4" cx="441" cy="451.68" r="2.5"/>
        <circle class="cls-4" cx="471" cy="421.68" r="2.5"/>
        <circle class="cls-4" cx="441" cy="391.68" r="2.5"/>
        <circle class="cls-4" cx="411" cy="421.68" r="2.5"/>
        <circle class="cls-4" cx="441" cy="421.68" r="1.12"/>
      </g>
      <g>
        <circle class="cls-4" cx="531" cy="451.68" r="2.5"/>
        <circle class="cls-4" cx="561" cy="421.68" r="2.5"/>
        <circle class="cls-4" cx="531" cy="391.68" r="2.5"/>
        <circle class="cls-4" cx="501" cy="421.68" r="2.5"/>
        <circle class="cls-4" cx="531" cy="421.68" r="1.12"/>
      </g>
      <g>
        <circle class="cls-4" cx="621" cy="451.68" r="2.5"/>
        <circle class="cls-4" cx="651" cy="421.68" r="2.5"/>
        <circle class="cls-4" cx="621" cy="391.68" r="2.5"/>
        <circle class="cls-4" cx="591" cy="421.68" r="2.5"/>
        <circle class="cls-4" cx="621" cy="421.68" r="1.12"/>
      </g>
      <g>
        <circle class="cls-4" cx="711" cy="451.68" r="2.5"/>
        <circle class="cls-4" cx="741" cy="421.68" r="2.5"/>
        <circle class="cls-4" cx="711" cy="391.68" r="2.5"/>
        <circle class="cls-4" cx="681" cy="421.68" r="2.5"/>
        <circle class="cls-4" cx="711" cy="421.68" r="1.12"/>
      </g>
    </g>
    <g>
      <g>
        <circle class="cls-4" cx="111" cy="531.68" r="2.5"/>
        <circle class="cls-4" cx="81" cy="561.68" r="2.5"/>
        <circle class="cls-4" cx="51" cy="531.68" r="2.5"/>
        <circle class="cls-4" cx="81" cy="501.68" r="2.5"/>
        <circle class="cls-4" cx="81" cy="531.68" r="1.12"/>
      </g>
      <g>
        <circle class="cls-4" cx="141" cy="531.68" r="2.5"/>
        <circle class="cls-4" cx="171" cy="561.68" r="2.5"/>
        <circle class="cls-4" cx="201" cy="531.68" r="2.5"/>
        <circle class="cls-4" cx="171" cy="501.68" r="2.5"/>
        <circle class="cls-4" cx="171" cy="531.68" r="1.12"/>
      </g>
      <g>
        <circle class="cls-4" cx="291" cy="531.68" r="2.5"/>
        <circle class="cls-4" cx="261" cy="561.68" r="2.5"/>
        <circle class="cls-4" cx="231" cy="531.68" r="2.5"/>
        <circle class="cls-4" cx="261" cy="501.68" r="2.5"/>
        <circle class="cls-4" cx="261" cy="531.68" r="1.12"/>
      </g>
      <g>
        <circle class="cls-4" cx="321" cy="531.68" r="2.5"/>
        <circle class="cls-4" cx="351" cy="561.68" r="2.5"/>
        <circle class="cls-4" cx="381" cy="531.68" r="2.5"/>
        <circle class="cls-4" cx="351" cy="501.68" r="2.5"/>
        <circle class="cls-4" cx="351" cy="531.68" r="1.12"/>
      </g>
      <g>
        <circle class="cls-4" cx="471" cy="531.68" r="2.5"/>
        <circle class="cls-4" cx="441" cy="561.68" r="2.5"/>
        <circle class="cls-4" cx="411" cy="531.68" r="2.5"/>
        <circle class="cls-4" cx="441" cy="501.68" r="2.5"/>
        <circle class="cls-4" cx="441" cy="531.68" r="1.12"/>
      </g>
      <g>
        <circle class="cls-4" cx="501" cy="531.68" r="2.5"/>
        <circle class="cls-4" cx="531" cy="561.68" r="2.5"/>
        <circle class="cls-4" cx="561" cy="531.68" r="2.5"/>
        <circle class="cls-4" cx="531" cy="501.68" r="2.5"/>
        <circle class="cls-4" cx="531" cy="531.68" r="1.12"/>
      </g>
      <g>
        <circle class="cls-4" cx="681" cy="531.68" r="2.5"/>
        <circle class="cls-4" cx="711" cy="561.68" r="2.5"/>
        <circle class="cls-4" cx="741" cy="531.68" r="2.5"/>
        <circle class="cls-4" cx="711" cy="501.68" r="2.5"/>
        <circle class="cls-4" cx="711" cy="531.68" r="1.12"/>
      </g>
      <g>
        <circle class="cls-4" cx="651" cy="531.68" r="2.5"/>
        <circle class="cls-4" cx="621" cy="561.68" r="2.5"/>
        <circle class="cls-4" cx="591" cy="531.68" r="2.5"/>
        <circle class="cls-4" cx="621" cy="501.68" r="2.5"/>
        <circle class="cls-4" cx="621" cy="531.68" r="1.12"/>
      </g>
    </g>
  </g>
  <g>
    <line class="cls-11" x1="48.5" y1="264.65" x2="743.5" y2="264.65"/>
    <line class="cls-11" x1="48.5" y1="374.65" x2="743.5" y2="374.65"/>
    <line class="cls-11" x1="396" y1="169.18" x2="396" y2="582.43"/>
    <line class="cls-11" x1="48.5" y1="484.65" x2="743.5" y2="484.65"/>
  </g>
  <g>
    <rect class="cls-10" x="68.5" y="324.68" width="25" height="2.5" rx=".99" ry=".99" transform="translate(-244.93 406.93) rotate(-90)"/>
    <rect class="cls-5" x="68.5" y="296.18" width="25" height="2.5" rx=".99" ry=".99" transform="translate(378.43 216.43) rotate(90)"/>
    <rect class="cls-10" x="158.5" y="324.68" width="25" height="2.5" rx=".99" ry=".99" transform="translate(-154.93 496.93) rotate(-90)"/>
    <rect class="cls-5" x="158.5" y="296.18" width="25" height="2.5" rx=".99" ry=".99" transform="translate(468.43 126.43) rotate(90)"/>
    <rect class="cls-10" x="248.5" y="324.68" width="25" height="2.5" rx=".99" ry=".99" transform="translate(-64.93 586.93) rotate(-90)"/>
    <rect class="cls-5" x="248.5" y="296.18" width="25" height="2.5" rx=".99" ry=".99" transform="translate(558.43 36.43) rotate(90)"/>
    <rect class="cls-10" x="338.5" y="324.68" width="25" height="2.5" rx=".99" ry=".99" transform="translate(25.07 676.93) rotate(-90)"/>
    <rect class="cls-5" x="338.5" y="296.18" width="25" height="2.5" rx=".99" ry=".99" transform="translate(648.43 -53.57) rotate(90)"/>
    <rect class="cls-10" x="428.5" y="324.68" width="25" height="2.5" rx=".99" ry=".99" transform="translate(115.07 766.93) rotate(-90)"/>
    <rect class="cls-5" x="428.5" y="296.18" width="25" height="2.5" rx=".99" ry=".99" transform="translate(738.43 -143.57) rotate(90)"/>
    <rect class="cls-10" x="518.5" y="324.68" width="25" height="2.5" rx=".99" ry=".99" transform="translate(205.07 856.93) rotate(-90)"/>
    <rect class="cls-5" x="518.5" y="296.18" width="25" height="2.5" rx=".99" ry=".99" transform="translate(828.43 -233.57) rotate(90)"/>
    <rect class="cls-10" x="608.5" y="324.68" width="25" height="2.5" rx=".99" ry=".99" transform="translate(295.07 946.93) rotate(-90)"/>
    <rect class="cls-5" x="608.5" y="296.18" width="25" height="2.5" rx=".99" ry=".99" transform="translate(918.43 -323.57) rotate(90)"/>
    <rect class="cls-10" x="698.5" y="324.68" width="25" height="2.5" rx=".99" ry=".99" transform="translate(385.07 1036.93) rotate(-90)"/>
    <rect class="cls-5" x="698.5" y="296.18" width="25" height="2.5" rx=".99" ry=".99" transform="translate(1008.43 -413.57) rotate(90)"/>
    <rect class="cls-10" x="82.75" y="420.43" width="25" height="2.5" rx=".99" ry=".99" transform="translate(190.5 843.36) rotate(180)"/>
    <rect class="cls-5" x="68.5" y="434.68" width="25" height="2.5" rx=".99" ry=".99" transform="translate(-354.93 516.93) rotate(-90)"/>
    <rect class="cls-10" x="172.75" y="420.43" width="25" height="2.5" rx=".99" ry=".99" transform="translate(370.5 843.36) rotate(180)"/>
    <rect class="cls-5" x="158.5" y="434.68" width="25" height="2.5" rx=".99" ry=".99" transform="translate(-264.93 606.93) rotate(-90)"/>
    <rect class="cls-10" x="262.75" y="420.43" width="25" height="2.5" rx=".99" ry=".99" transform="translate(550.5 843.36) rotate(180)"/>
    <rect class="cls-5" x="248.5" y="434.68" width="25" height="2.5" rx=".99" ry=".99" transform="translate(-174.93 696.93) rotate(-90)"/>
    <rect class="cls-10" x="352.75" y="420.43" width="25" height="2.5" rx=".99" ry=".99" transform="translate(730.5 843.36) rotate(180)"/>
    <rect class="cls-5" x="338.5" y="434.68" width="25" height="2.5" rx=".99" ry=".99" transform="translate(-84.93 786.93) rotate(-90)"/>
    <rect class="cls-10" x="172.75" y="530.43" width="25" height="2.5" rx=".99" ry=".99" transform="translate(370.5 1063.36) rotate(-180)"/>
    <rect class="cls-5" x="158.5" y="516.18" width="25" height="2.5" rx=".99" ry=".99" transform="translate(688.43 346.43) rotate(90)"/>
    <rect class="cls-5" x="68.5" y="544.68" width="25" height="2.5" rx=".99" ry=".99" transform="translate(-464.93 626.93) rotate(-90)"/>
    <rect class="cls-10" x="54.25" y="530.43" width="25" height="2.5" rx=".99" ry=".99"/>
    <rect class="cls-10" x="352.75" y="530.43" width="25" height="2.5" rx=".99" ry=".99" transform="translate(730.5 1063.36) rotate(-180)"/>
    <rect class="cls-5" x="338.5" y="516.18" width="25" height="2.5" rx=".99" ry=".99" transform="translate(868.43 166.43) rotate(90)"/>
    <rect class="cls-5" x="248.5" y="544.68" width="25" height="2.5" rx=".99" ry=".99" transform="translate(-284.93 806.93) rotate(-90)"/>
    <rect class="cls-10" x="234.25" y="530.43" width="25" height="2.5" rx=".99" ry=".99"/>
    <rect class="cls-10" x="532.75" y="530.43" width="25" height="2.5" rx=".99" ry=".99" transform="translate(1090.5 1063.36) rotate(-180)"/>
    <rect class="cls-5" x="518.5" y="516.18" width="25" height="2.5" rx=".99" ry=".99" transform="translate(1048.43 -13.57) rotate(90)"/>
    <rect class="cls-5" x="428.5" y="544.68" width="25" height="2.5" rx=".99" ry=".99" transform="translate(-104.93 986.93) rotate(-90)"/>
    <rect class="cls-10" x="414.25" y="530.43" width="25" height="2.5" rx=".99" ry=".99"/>
    <rect class="cls-5" x="608.5" y="544.68" width="25" height="2.5" rx=".99" ry=".99" transform="translate(75.07 1166.93) rotate(-90)"/>
    <rect class="cls-10" x="594.25" y="530.43" width="25" height="2.5" rx=".99" ry=".99"/>
    <rect class="cls-10" x="712.75" y="530.43" width="25" height="2.5" rx=".99" ry=".99" transform="translate(1450.5 1063.36) rotate(-180)"/>
    <rect class="cls-5" x="698.5" y="516.18" width="25" height="2.5" rx=".99" ry=".99" transform="translate(1228.43 -193.57) rotate(90)"/>
    <rect class="cls-10" x="428.5" y="406.18" width="25" height="2.5" rx=".99" ry=".99" transform="translate(848.43 -33.57) rotate(90)"/>
    <rect class="cls-5" x="414.25" y="420.43" width="25" height="2.5" rx=".99" ry=".99"/>
    <rect class="cls-10" x="518.5" y="406.18" width="25" height="2.5" rx=".99" ry=".99" transform="translate(938.43 -123.57) rotate(90)"/>
    <rect class="cls-5" x="504.25" y="420.43" width="25" height="2.5" rx=".99" ry=".99"/>
    <rect class="cls-10" x="608.5" y="406.18" width="25" height="2.5" rx=".99" ry=".99" transform="translate(1028.43 -213.57) rotate(90)"/>
    <rect class="cls-5" x="594.25" y="420.43" width="25" height="2.5" rx=".99" ry=".99"/>
    <rect class="cls-10" x="698.5" y="406.18" width="25" height="2.5" rx=".99" ry=".99" transform="translate(1118.43 -303.57) rotate(90)"/>
    <rect class="cls-5" x="684.25" y="420.43" width="25" height="2.5" rx=".99" ry=".99"/>
    <rect class="cls-10" x="82.75" y="198.43" width="25" height="2.5" rx=".99" ry=".99" transform="translate(190.5 399.36) rotate(-180)"/>
    <rect class="cls-5" x="82.75" y="202.43" width="25" height="2.5" rx=".99" ry=".99" transform="translate(190.5 407.36) rotate(-180)"/>
    <rect class="cls-10" x="172.75" y="198.43" width="25" height="2.5" rx=".99" ry=".99" transform="translate(370.5 399.36) rotate(-180)"/>
    <rect class="cls-5" x="172.75" y="202.43" width="25" height="2.5" rx=".99" ry=".99" transform="translate(370.5 407.36) rotate(-180)"/>
    <rect class="cls-10" x="262.75" y="198.43" width="25" height="2.5" rx=".99" ry=".99" transform="translate(550.5 399.36) rotate(-180)"/>
    <rect class="cls-5" x="262.75" y="202.43" width="25" height="2.5" rx=".99" ry=".99" transform="translate(550.5 407.36) rotate(-180)"/>
    <rect class="cls-10" x="352.75" y="198.43" width="25" height="2.5" rx=".99" ry=".99" transform="translate(730.5 399.36) rotate(-180)"/>
    <rect class="cls-5" x="352.75" y="202.43" width="25" height="2.5" rx=".99" ry=".99" transform="translate(730.5 407.36) rotate(-180)"/>
    <rect class="cls-10" x="442.75" y="198.43" width="25" height="2.5" rx=".99" ry=".99" transform="translate(910.5 399.36) rotate(-180)"/>
    <rect class="cls-5" x="442.75" y="202.43" width="25" height="2.5" rx=".99" ry=".99" transform="translate(910.5 407.36) rotate(-180)"/>
    <rect class="cls-10" x="532.75" y="198.43" width="25" height="2.5" rx=".99" ry=".99" transform="translate(1090.5 399.36) rotate(-180)"/>
    <rect class="cls-5" x="532.75" y="202.43" width="25" height="2.5" rx=".99" ry=".99" transform="translate(1090.5 407.36) rotate(-180)"/>
    <rect class="cls-10" x="622.75" y="198.43" width="25" height="2.5" rx=".99" ry=".99" transform="translate(1270.5 399.36) rotate(-180)"/>
    <rect class="cls-5" x="622.75" y="202.43" width="25" height="2.5" rx=".99" ry=".99" transform="translate(1270.5 407.36) rotate(-180)"/>
    <rect class="cls-10" x="712.75" y="198.43" width="25" height="2.5" rx=".99" ry=".99" transform="translate(1450.5 399.36) rotate(-180)"/>
    <rect class="cls-5" x="712.75" y="202.43" width="25" height="2.5" rx=".99" ry=".99" transform="translate(1450.5 407.36) rotate(-180)"/>
  </g>
  <path class="cls-5" d="m101.81,209.13l-2.65-2.65s1.05-1.08,1.87-.47c.94.68,3.95,4.06,3.95,4.06,0,0-2.77,3.23-3.95,4.09-.82.59-1.87-.5-1.87-.5l2.65-2.61h-46.81c-.18,0-.3.06-.3.31,0,6.55,2.35,19.39,19.75,19.39,1.61,0,1.66,1.81,0,1.81-15.57,0-21.53-9.63-21.69-21.2,0-.15-.11-.3-.26-.3h-3.03c-.54,0-.97-.43-.97-.96s.43-.96.97-.96h52.34Z"/>
  <path class="cls-5" d="m281.11,209.13l-2.65-2.65s1.05-1.08,1.87-.47c.94.68,3.95,4.06,3.95,4.06,0,0-2.77,3.23-3.95,4.09-.82.59-1.87-.5-1.87-.5l2.65-2.61h-46.81c-.18,0-.3.06-.3.31,0,6.55,2.35,19.39,19.75,19.39,1.61,0,1.66,1.81,0,1.81-15.57,0-21.53-9.63-21.69-21.2,0-.15-.11-.3-.26-.3h-3.03c-.54,0-.97-.43-.97-.96s.43-.96.97-.96h52.34Z"/>
  <path class="cls-5" d="m461.19,194.21l-2.65,2.65s1.05,1.08,1.87.47c.94-.68,3.95-4.06,3.95-4.06,0,0-2.77-3.23-3.95-4.09-.82-.59-1.87.5-1.87.5l2.65,2.61h-46.81c-.18,0-.3-.06-.3-.31,0-6.55,2.35-19.39,19.75-19.39,1.61,0,1.66-1.81,0-1.81-15.57,0-21.53,9.63-21.69,21.2,0,.15-.11.3-.26.3h-3.03c-.54,0-.97.43-.97.96s.43.96.97.96h52.34Z"/>
  <path class="cls-5" d="m731.81,194.46l-2.65,2.65s1.05,1.08,1.87.47c.94-.68,3.95-4.06,3.95-4.06,0,0-2.77-3.23-3.95-4.09-.82-.59-1.87.5-1.87.5l2.65,2.61h-46.81c-.18,0-.3-.06-.3-.31,0-6.55,2.35-19.39,19.75-19.39,1.61,0,1.66-1.81,0-1.81-15.57,0-21.53,9.63-21.69,21.2,0,.15-.11.3-.26.3h-3.03c-.54,0-.97.43-.97.96s.43.96.97.96h52.34Z"/>
  <path class="cls-5" d="m87.22,289.11l-2.65,2.65s-1.08-1.05-.47-1.87c.68-.94,4.06-3.95,4.06-3.95,0,0,3.23,2.77,4.09,3.95.59.82-.5,1.87-.5,1.87l-2.61-2.65v46.81c0,.18.06.3.31.3,6.55,0,19.39-2.35,19.39-19.75,0-1.61,1.81-1.66,1.81,0,0,15.57-9.63,21.53-21.2,21.69-.15,0-.3.11-.3.26v3.03c0,.54-.43.97-.96.97s-.96-.43-.96-.97v-52.34Z"/>
  <path class="cls-5" d="m435.35,290.6l2.65,2.65s1.08-1.05.47-1.87c-.68-.94-4.06-3.95-4.06-3.95,0,0-3.23,2.77-4.09,3.95-.59.82.5,1.87.5,1.87l2.61-2.65v46.81c0,.18-.06.3-.31.3-6.55,0-19.39-2.35-19.39-19.75,0-1.61-1.81-1.66-1.81,0,0,15.57,9.63,21.53,21.2,21.69.15,0,.3.11.3.26v3.03c0,.54.43.97.96.97s.96-.43.96-.97v-52.34Z"/>
  <path class="cls-5" d="m704.63,290.6l2.65,2.65s1.08-1.05.47-1.87c-.68-.94-4.06-3.95-4.06-3.95,0,0-3.23,2.77-4.09,3.95-.59.82.5,1.87.5,1.87l2.61-2.65v46.81c0,.18-.06.3-.31.3-6.55,0-19.39-2.35-19.39-19.75,0-1.61-1.81-1.66-1.81,0,0,15.57,9.63,21.53,21.2,21.69.15,0,.3.11.3.26v3.03c0,.54.43.97.96.97s.96-.43.96-.97v-52.34Z"/>
  <path class="cls-5" d="m75.46,444.25l2.65-2.65s1.08,1.05.47,1.87c-.68.94-4.06,3.95-4.06,3.95,0,0-3.23-2.77-4.09-3.95-.59-.82.5-1.87.5-1.87l2.61,2.65v-46.81c0-.18-.06-.3-.31-.3-6.55,0-19.39,2.35-19.39,19.75,0,1.61-1.81,1.66-1.81,0,0-15.57,9.63-21.53,21.2-21.69.15,0,.3-.11.3-.26v-3.03c0-.54.43-.97.96-.97s.96.43.96.97v52.34Z"/>
  <path class="cls-5" d="m255.19,444.25l2.65-2.65s1.08,1.05.47,1.87c-.68.94-4.06,3.95-4.06,3.95,0,0-3.23-2.77-4.09-3.95-.59-.82.5-1.87.5-1.87l2.61,2.65v-46.81c0-.18-.06-.3-.31-.3-6.55,0-19.39,2.35-19.39,19.75,0,1.61-1.81,1.66-1.81,0,0-15.57,9.63-21.53,21.2-21.69.15,0,.3-.11.3-.26v-3.03c0-.54.43-.97.96-.97s.96.43.96.97v52.34Z"/>
  <path class="cls-10" d="m59.66,537.5l2.65-2.65s-1.05-1.08-1.87-.47c-.94.68-3.95,4.06-3.95,4.06,0,0,2.77,3.23,3.95,4.09.82.59,1.87-.5,1.87-.5l-2.65-2.61h46.81c.18,0,.3.06.3.31,0,6.55-2.35,19.39-19.75,19.39-1.61,0-1.66,1.81,0,1.81,15.57,0,21.53-9.63,21.69-21.2,0-.15.11-.3.26-.3h3.03c.54,0,.97-.43.97-.96s-.43-.96-.97-.96h-52.34Z"/>
  <path class="cls-5" d="m705.19,509.99l2.65,2.65s1.08-1.05.47-1.87c-.68-.94-4.06-3.95-4.06-3.95,0,0-3.23,2.77-4.09,3.95-.59.82.5,1.87.5,1.87l2.61-2.65v46.81c0,.18-.06.3-.31.3-6.55,0-19.39-2.35-19.39-19.75,0-1.61-1.81-1.66-1.81,0,0,15.57,9.63,21.53,21.2,21.69.15,0,.3.11.3.26v3.03c0,.54.43.97.96.97.53,0,.96-.43.96-.97v-52.34Z"/>
  <path class="cls-5" d="m165.19,510.16l2.65,2.65s1.08-1.05.47-1.87c-.68-.94-4.06-3.95-4.06-3.95,0,0-3.23,2.77-4.09,3.95-.59.82.5,1.87.5,1.87l2.61-2.65v46.81c0,.18-.06.3-.31.3-6.55,0-19.39-2.35-19.39-19.75,0-1.61-1.81-1.66-1.81,0,0,15.57,9.63,21.53,21.2,21.69.15,0,.3.11.3.26v3.03c0,.54.43.97.96.97.53,0,.96-.43.96-.97v-52.34Z"/>
</svg>