<?xml version="1.0" encoding="UTF-8"?>
<svg id="Layer_1" data-name="Layer 1" xmlns="http://www.w3.org/2000/svg" viewBox="0 0 792 612">
  <defs>
    <style>
      .cls-1 {
        font-size: 25px;
      }

      .cls-2 {
        font-size: 35px;
      }

      .cls-2, .cls-3, .cls-4 {
        fill: #231f20;
      }

      .cls-5 {
        fill: #2e3192;
      }

      .cls-3 {
        font-family: MonotypeCorsiva, 'Monotype Corsiva';
        font-size: 30px;
      }

      .cls-6 {
        font-family: Cambria-BoldItalic, Cambria;
        font-style: italic;
        font-weight: 700;
      }

      .cls-7 {
        fill: #00a14b;
      }

      .cls-8 {
        fill: #7f3f98;
      }

      .cls-9 {
        fill: #ed1c24;
      }

      .cls-10 {
        fill: none;
        stroke: #231f20;
        stroke-miterlimit: 10;
        stroke-width: .5px;
      }
    </style>
  </defs>
  <text class="cls-6" transform="translate(311.27 38.84)"><tspan class="cls-2"><tspan x="0" y="0">Type 2 → 4</tspan></tspan><tspan class="cls-1"><tspan class="cls-8" x="14.09" y="30">Shift </tspan><tspan class="cls-4" x="71.27" y="30">→ </tspan><tspan class="cls-7" x="97.72" y="30">Dash</tspan></tspan></text>
  <text class="cls-6" transform="translate(311.27 353.38)"><tspan class="cls-2"><tspan x="0" y="0">Type 4 → 2</tspan></tspan><tspan class="cls-1"><tspan class="cls-7" x="14.09" y="30">Dash</tspan><tspan class="cls-8" x="70.85" y="30"> </tspan><tspan class="cls-4" x="76.36" y="30">→ </tspan><tspan class="cls-8" x="102.81" y="30">Shift</tspan></tspan></text>
  <g>
    <path class="cls-5" d="m649.29,153.79c0,11.89-9.57,22.66-21.38,22.69l2.65,2.41s-1.01,1.11-1.85.54c-.95-.65-4.08-3.93-4.08-3.93,0,0,2.66-3.32,3.8-4.21.81-.63,1.89.43,1.89.43l-2.61,2.78c8.93-.03,18.79-7.34,19.5-20.76.06-1.07,2.08-1.07,2.08.05Z"/>
    <path class="cls-5" d="m411.67,143.32c0-11.89,9.57-22.66,21.38-22.69l-2.65-2.41s1.01-1.11,1.85-.54c.95.65,4.08,3.93,4.08,3.93,0,0-2.66,3.32-3.8,4.21-.81.63-1.89-.43-1.89-.43l2.61-2.78c-8.93.03-18.79,7.34-19.5,20.76-.06,1.07-2.08,1.07-2.08-.05Z"/>
    <path class="cls-5" d="m738.58,154.12c-19.4,0-21.27,1.3-21.27,20.15l-2.66-2.72s-1.1,1.04-.5,1.87c.85,1.18,4.08,3.95,4.08,3.95,0,0,3.38-3.01,4.07-3.95.6-.82-.48-1.87-.48-1.87l-2.56,2.72c0-17.27,1-18.08,19.29-18.08,1.45,0,1.48-2.07.03-2.07Z"/>
    <path class="cls-5" d="m647.99,264.05c0,11.89-9.57,22.66-21.38,22.69l2.65,2.41s-1.01,1.11-1.85.54c-.95-.65-4.08-3.93-4.08-3.93,0,0,2.66-3.32,3.8-4.21.81-.63,1.89.43,1.89.43l-2.61,2.78c8.93-.03,18.79-7.34,19.5-20.76.06-1.07,2.08-1.07,2.08.05Z"/>
    <path class="cls-5" d="m738.09,265.55c-19.4,0-21.27,1.3-21.27,20.15l-2.66-2.72s-1.1,1.04-.5,1.87c.85,1.18,4.08,3.95,4.08,3.95,0,0,3.38-3.01,4.07-3.95.6-.82-.48-1.87-.48-1.87l-2.56,2.72c0-17.27,1-18.08,19.29-18.08,1.45,0,1.48-2.07.03-2.07Z"/>
    <path class="cls-5" d="m412.91,254.97c0-11.89,9.57-22.66,21.38-22.69l-2.65-2.41s1.01-1.11,1.85-.54c.95.65,4.08,3.93,4.08,3.93,0,0-2.66,3.32-3.8,4.21-.81.63-1.89-.43-1.89-.43l2.61-2.78c-8.93.03-18.79,7.34-19.5,20.76-.06,1.07-2.08,1.07-2.08-.05Z"/>
    <path class="cls-5" d="m502.52,144.27c19.4,0,21.27-1.3,21.27-20.15l2.66,2.72s1.1-1.04.5-1.87c-.85-1.18-4.08-3.95-4.08-3.95,0,0-3.38,3.01-4.07,3.95-.6.82.48,1.87.48,1.87l2.56-2.72c0,17.27-1,18.08-19.29,18.08-1.45,0-1.48,2.07-.03,2.07Z"/>
    <path class="cls-5" d="m505.25,255.64c19.4,0,21.27-1.3,21.27-20.15l2.66,2.72s1.1-1.04.5-1.87c-.85-1.18-4.08-3.95-4.08-3.95,0,0-3.38,3.01-4.07,3.95-.6.82.48,1.87.48,1.87l2.56-2.72c0,17.27-1,18.08-19.29,18.08-1.45,0-1.48,2.07-.03,2.07Z"/>
    <path class="cls-5" d="m452.63,519.72l-2.65-2.72v48.34c.01.54-.42.97-.95.97s-.96-.43-.96-.97v-48.2s-2.62,2.58-2.62,2.58c0,0-1.09-1.05-.5-1.87.86-1.18,4.09-3.95,4.09-3.95,0,0,3.38,3.01,4.06,3.95.61.82-.47,1.87-.47,1.87Z"/>
    <path class="cls-5" d="m540.9,520.06l-2.65-2.72v45.2c.01.54-.42.97-.95.97s-.96-.43-.96-.97v-45.06s-2.62,2.58-2.62,2.58c0,0-1.09-1.05-.5-1.87.86-1.18,4.09-3.95,4.09-3.95,0,0,3.38,3.01,4.06,3.95.61.82-.47,1.87-.47,1.87Z"/>
    <path class="cls-9" d="m450.86,575.83c-.95-.64-4.08-3.93-4.08-3.93,0,0,2.66-3.31,3.8-4.21.8-.63,1.89.44,1.89.44l-2.61,2.78c8.61-.03,18.1-6.85,19.39-19.4h-2.79c-.6,0-1.09-.49-1.09-1.08,0-.6.49-1.08,1.09-1.08h7.56c.6,0,1.09.48,1.09,1.08,0,.59-.49,1.08-1.09,1.08h-2.63c-.66,11.36-9.96,21.34-21.33,21.37l2.65,2.42s-1.01,1.11-1.85.53Z"/>
    <path class="cls-9" d="m540.93,573.95s-3.23-2.77-4.08-3.95c-.6-.82.5-1.87.5-1.87l2.66,2.73c0-18.49,1.8-20.09,20.18-20.15v-2.74c0-.6.49-1.09,1.08-1.09s1.08.49,1.08,1.09v7.56c0,.6-.48,1.09-1.08,1.09-.59,0-1.08-.49-1.08-1.09v-2.75c-17.27.04-18.23,1.15-18.23,18.08l2.56-2.73s1.08,1.05.48,1.87c-.69.94-4.07,3.95-4.07,3.95Z"/>
    <path class="cls-9" d="m639.55,573.56c-.95-.64-4.08-3.93-4.08-3.93,0,0,2.66-3.31,3.8-4.21.8-.63,1.89.44,1.89.44l-2.61,2.78c8.61-.03,18.1-6.85,19.39-19.4h-2.79c-.6,0-1.09-.49-1.09-1.08,0-.6.49-1.08,1.09-1.08h7.56c.6,0,1.09.48,1.09,1.08,0,.59-.49,1.08-1.09,1.08h-2.63c-.66,11.36-9.96,21.34-21.33,21.37l2.65,2.42s-1.01,1.11-1.85.53Z"/>
    <path class="cls-9" d="m729.58,573.19s-3.23-2.77-4.08-3.95c-.6-.82.5-1.87.5-1.87l2.66,2.73c0-18.49,1.8-20.09,20.18-20.15v-2.74c0-.6.49-1.09,1.08-1.09s1.08.49,1.08,1.09v7.56c0,.6-.48,1.09-1.08,1.09s-1.08-.49-1.08-1.09v-2.75c-17.27.04-18.23,1.15-18.23,18.08l2.56-2.73s1.08,1.05.48,1.87c-.69.94-4.07,3.95-4.07,3.95Z"/>
    <path class="cls-5" d="m626.4,561.66l-2.65,2.72v-48.34c.01-.54-.42-.97-.95-.97-.53,0-.96.43-.96.97v48.2s-2.62-2.58-2.62-2.58c0,0-1.09,1.05-.5,1.87.86,1.18,4.09,3.95,4.09,3.95,0,0,3.38-3.01,4.06-3.95.61-.82-.47-1.87-.47-1.87Z"/>
    <path class="cls-5" d="m715.55,561.51l-2.65,2.72v-48.34c.01-.54-.42-.97-.95-.97-.53,0-.96.43-.96.97v48.2s-2.62-2.58-2.62-2.58c0,0-1.09,1.05-.5,1.87.86,1.18,4.09,3.95,4.09,3.95,0,0,3.38-3.01,4.06-3.95.61-.82-.47-1.87-.47-1.87Z"/>
    <path class="cls-5" d="m542.5,415.71l-2.65-2.72v48.34c.01.54-.42.97-.95.97s-.96-.43-.96-.97v-48.2s-2.62,2.58-2.62,2.58c0,0-1.09-1.05-.5-1.87.86-1.18,4.09-3.95,4.09-3.95,0,0,3.38,3.01,4.06,3.95.61.82-.47,1.87-.47,1.87Z"/>
    <path class="cls-5" d="m454.57,413.7l-2.65-2.72v48.34c.01.54-.42.97-.95.97s-.96-.43-.96-.97v-48.2s-2.62,2.58-2.62,2.58c0,0-1.09-1.05-.5-1.87.86-1.18,4.09-3.95,4.09-3.95,0,0,3.38,3.01,4.06,3.95.61.82-.47,1.87-.47,1.87Z"/>
    <path class="cls-9" d="m472.95,445.72c-.64-.95-3.93-4.08-3.93-4.08,0,0-3.31,2.66-4.21,3.8-.63.8.44,1.89.44,1.89l2.78-2.61c-.03,8.61-6.85,18.1-19.4,19.39v-2.79c0-.6-.49-1.09-1.08-1.09-.6,0-1.08.49-1.08,1.09v7.56c0,.6.48,1.09,1.08,1.09s1.08-.49,1.08-1.09v-2.63c11.36-.66,21.34-9.96,21.37-21.33l2.42,2.65s1.11-1.01.53-1.85Z"/>
    <path class="cls-9" d="m564.74,444.95s-2.77-3.23-3.95-4.08c-.82-.6-1.87.5-1.87.5l2.73,2.66c-18.49,0-20.09,1.8-20.15,20.18h-2.74c-.6,0-1.09.49-1.09,1.08,0,.6.49,1.08,1.09,1.08h7.56c.6,0,1.09-.48,1.09-1.08s-.49-1.08-1.09-1.08h-2.75c.04-17.27,1.15-18.23,18.08-18.23l-2.73,2.56s1.05,1.08,1.87.48c.94-.69,3.95-4.07,3.95-4.07Z"/>
    <g>
      <g>
        <path class="cls-4" d="m440.98,189.54c-.46-.06-.96.28-1.19,1.14-.42,1.54-.92,3.7-1.44,5.63-1.11-2.72-1.86-4.39-2.5-4.38-.01,0-.02,0-.03.01-.01-.01-.02-.01-.03-.01-.64-.01-1.39,1.65-2.5,4.38-.51-1.93-1.02-4.09-1.44-5.63-.24-.86-.73-1.2-1.19-1.14-.59.07-.98.49-.74,1.25.25.81,1.84,6.07,2.3,7.72.47,1.65,1.59.9,1.8.49.21-.41,1.36-3.67,1.8-4.59.44.92,1.59,4.18,1.8,4.59.21.41,1.33,1.16,1.8-.49.46-1.64,2.05-6.9,2.3-7.72.24-.76-.15-1.18-.74-1.25Z"/>
        <path class="cls-4" d="m452.12,191.21c-.5,2.51-1.03,3.37-3.39,3.82-.04,0-.07.04-.08.07v3.6c0,.22-.1.44-.25.6s-.36.24-.59.24-.43-.09-.61-.24c-.16-.16-.24-.38-.24-.6v-3.6s-.05-.06-.09-.07c-2.35-.45-2.88-1.31-3.38-3.82-.08-.36-.04-.65.12-.83.17-.21.42-.24.56-.24.24,0,.43.22.56.45.13.23.2.47.21.54.25,1.71.73,2.29,1.85,2.29h.09s.07-.02.09-.06v-3.05c.12-.28.2-.48.31-.6.07-.06.15-.1.23-.13.05-.02.1-.03.14-.04.11-.02.24-.02.33,0,.05,0,.1.02.15.04.07,0,.15.06.22.13.12.12.21.31.3.6v.03s.02.03.02.05v2.94s0,.02,0,.04c0,.03.05.05.09.05,1.2.04,1.68-.54,1.93-2.29.03-.13.28-.99.76-.99h0c.14,0,.39.03.56.24.15.19.19.47.12.83Z"/>
      </g>
      <g>
        <path class="cls-4" d="m529.33,198.04c.16.19.21.44.19.68-.03.24-.16.46-.34.61-.4.3-.98.23-1.3-.17l-2.45-3.14-2.45,3.14c-.18.23-.45.36-.72.36-.19,0-.4-.07-.57-.19-.19-.15-.32-.37-.35-.61-.03-.24.03-.49.19-.68l2.73-3.51-2.73-3.51c-.13-.17-.19-.36-.19-.57,0-.28.14-.56.36-.73.19-.15.42-.21.67-.19.24.03.47.16.61.35l2.45,3.14,2.44-3.14c.33-.41.91-.48,1.31-.16.22.17.35.43.35.72,0,.2-.07.4-.19.57l-2.73,3.51,2.73,3.51Z"/>
        <path class="cls-4" d="m540.34,191.21c-.5,2.51-1.03,3.37-3.39,3.82-.04,0-.07.04-.08.07v3.6c0,.22-.1.44-.25.6s-.36.24-.59.24-.43-.09-.61-.24c-.16-.16-.24-.38-.24-.6v-3.6s-.05-.06-.09-.07c-2.35-.45-2.88-1.31-3.38-3.82-.08-.36-.04-.65.12-.83.17-.21.42-.24.56-.24.24,0,.43.22.56.45.13.23.2.47.21.54.25,1.71.73,2.29,1.85,2.29h.09s.07-.02.09-.06v-3.05c.12-.28.2-.48.31-.6.07-.06.15-.1.23-.13.05-.02.1-.03.14-.04.11-.02.24-.02.33,0,.05,0,.1.02.15.04.07,0,.15.06.22.13.12.12.21.31.3.6v.03s.02.03.02.05v2.94s0,.02,0,.04c0,.03.05.05.09.05,1.2.04,1.68-.54,1.93-2.29.03-.13.28-.99.76-.99h0c.14,0,.39.03.56.24.15.19.19.47.12.83Z"/>
      </g>
      <g>
        <path class="cls-4" d="m80.71,188.7c-.46-.06-.96.28-1.19,1.14-.42,1.54-.92,3.7-1.44,5.63-1.11-2.72-1.86-4.39-2.5-4.38-.01,0-.02,0-.03.01-.01-.01-.02-.01-.03-.01-.64-.01-1.39,1.65-2.5,4.38-.51-1.93-1.02-4.09-1.44-5.63-.24-.86-.73-1.2-1.19-1.14-.59.07-.98.49-.74,1.25.25.81,1.84,6.07,2.3,7.72.47,1.65,1.59.9,1.8.49.21-.41,1.36-3.67,1.8-4.59.44.92,1.59,4.18,1.8,4.59.21.41,1.33,1.16,1.8-.49.46-1.64,2.05-6.9,2.3-7.72.24-.76-.15-1.18-.74-1.25Z"/>
        <path class="cls-4" d="m92.38,190.37c-.5,2.51-1.03,3.37-3.39,3.82-.04,0-.07.04-.08.07v3.6c0,.22-.1.44-.25.6s-.36.24-.59.24-.43-.09-.61-.24c-.16-.16-.24-.38-.24-.6v-3.6s-.05-.06-.09-.07c-2.35-.45-2.88-1.31-3.38-3.82-.08-.36-.04-.65.12-.83.17-.21.42-.24.56-.24.24,0,.43.22.56.45.13.23.2.47.21.54.25,1.71.73,2.29,1.85,2.29h.09s.07-.02.09-.06v-3.05c.12-.28.2-.48.31-.6.07-.06.15-.1.23-.13.05-.02.1-.03.14-.04.11-.02.24-.02.33,0,.05,0,.1.02.15.04.07,0,.15.06.22.13.12.12.21.31.3.6v.03s.02.03.02.05v2.94s0,.02,0,.04c0,.03.05.05.09.05,1.2.04,1.68-.54,1.93-2.29.03-.13.28-.99.76-.99h0c.14,0,.39.03.56.24.15.19.19.47.12.83Z"/>
      </g>
      <g>
        <path class="cls-4" d="m169.83,197.2c.16.19.21.44.19.68-.03.24-.16.46-.34.61-.4.3-.98.23-1.3-.17l-2.45-3.14-2.45,3.14c-.18.23-.45.36-.72.36-.19,0-.4-.07-.57-.19-.19-.15-.32-.37-.35-.61-.03-.24.03-.49.19-.68l2.73-3.51-2.73-3.51c-.13-.17-.19-.36-.19-.57,0-.28.14-.56.36-.73.19-.15.42-.21.67-.19.24.03.47.16.61.35l2.45,3.14,2.44-3.14c.33-.41.91-.48,1.31-.16.22.17.35.43.35.72,0,.2-.07.4-.19.57l-2.73,3.51,2.73,3.51Z"/>
        <path class="cls-4" d="m180.13,190.37c-.5,2.51-1.03,3.37-3.39,3.82-.04,0-.07.04-.08.07v3.6c0,.22-.1.44-.25.6s-.36.24-.59.24-.43-.09-.61-.24c-.16-.16-.24-.38-.24-.6v-3.6s-.05-.06-.09-.07c-2.35-.45-2.88-1.31-3.38-3.82-.08-.36-.04-.65.12-.83.17-.21.42-.24.56-.24.24,0,.43.22.56.45.13.23.2.47.21.54.25,1.71.73,2.29,1.85,2.29h.09s.07-.02.09-.06v-3.05c.12-.28.2-.48.31-.6.07-.06.15-.1.23-.13.05-.02.1-.03.14-.04.11-.02.24-.02.33,0,.05,0,.1.02.15.04.07,0,.15.06.22.13.12.12.21.31.3.6v.03s.02.03.02.05v2.94s0,.02,0,.04c0,.03.05.05.09.05,1.2.04,1.68-.54,1.93-2.29.03-.13.28-.99.76-.99h0c.14,0,.39.03.56.24.15.19.19.47.12.83Z"/>
      </g>
      <g>
        <path class="cls-4" d="m77.73,302.88c.48.44.43.65.44.96s-.23.47-.53.71c-1.75,1.43-2.78,2.44-2.78,2.44,0,0,.42.05,4.42.05.4,0,.79.33.79.78,0,.48-.22.88-.64.88-2.35,0-4.02-.05-5.97-.05-.79,0-1.34-.19-1.52-.57-.17-.36-.12-.9.55-1.52,1.91-1.72,3.47-2.88,3.47-2.88,0,0-2.17-1.97-3.75-3.56-.33-.33-.43-.62-.31-.85.11-.2.55-.57.92-.57h6.71c.74,0,.77,1.31,0,1.31-3.37,0-5.2.02-5.2.02"/>
        <path class="cls-4" d="m82.54,307.35c.06-.29,1.97-5.54,3.02-7.94.32-.73.61-.72.74-.72s.42,0,.74.72c1.05,2.4,2.96,7.64,3.02,7.94.23,1-.08,1.16-.44,1.3-.28.13-.86.02-1.12-.7-.16-.42-2.2-5.86-2.2-5.86,0,0-2.05,5.44-2.2,5.86-.25.72-.83.82-1.12.7-.36-.15-.67-.3-.44-1.3Z"/>
      </g>
      <g>
        <path class="cls-4" d="m616.13,299.54c-1.33,0-3.23,1.68-3.23,5,0,2.56,1.22,5,3.23,5s3.27-2.44,3.27-5c0-3.48-1.94-5-3.27-5Zm.01,1.37c.96,0,1.64,1.13,1.7,1.93.02.3,0,.81-.55.81h-2.33c-.46,0-.51-.5-.5-.76.07-.8.81-1.98,1.69-1.98Zm0,7.26c-1.08,0-1.72-1.28-1.79-2.08-.01-.25,0-.76.5-.76h2.53c.56,0,.58.5.55.81-.06.8-.72,2.03-1.8,2.03Z"/>
        <path class="cls-4" d="m621.56,308.19c.06-.29,1.97-5.54,3.02-7.94.32-.73.61-.72.74-.72s.42,0,.74.72c1.05,2.4,2.96,7.64,3.02,7.94.23,1-.08,1.16-.44,1.3-.28.13-.86.02-1.12-.7-.16-.42-2.2-5.86-2.2-5.86,0,0-2.05,5.44-2.2,5.86-.25.72-.83.82-1.12.7-.36-.15-.67-.3-.44-1.3Z"/>
      </g>
      <g>
        <path class="cls-4" d="m711.23,309.54h-3.54c-.32,0-.53-.32-.41-.62,2.67-6.29.99-7.71-1.08-7.85-.04,0-.08,0-.12,0h-.02s-.09,0-.13,0c-.04,0-.08,0-.12,0-2.07.14-3.75,1.56-1.08,7.85.12.29-.09.62-.41.62h-3.54c-.14,0-.66-1.27.12-1.73.69-.41.99.09,1.81.11-2.24-4.96.04-7.96,2.78-8.36.08-.02.94-.02,1.02,0,2.74.41,5.02,3.4,2.78,8.36.82-.02,1.12-.51,1.81-.11.78.46.26,1.73.12,1.73Z"/>
        <path class="cls-4" d="m713.96,308.19c.06-.29,1.97-5.54,3.02-7.94.32-.73.61-.72.74-.72s.42,0,.74.72c1.05,2.4,2.96,7.64,3.02,7.94.23,1-.08,1.16-.44,1.3-.28.13-.86.02-1.12-.7-.16-.42-2.2-5.86-2.2-5.86,0,0-2.05,5.44-2.2,5.86-.25.72-.83.82-1.12.7-.36-.15-.67-.3-.44-1.3Z"/>
      </g>
      <g>
        <path class="cls-4" d="m170.13,306.83c-.93-2.27-1.86-4.39-2.21-5.2-.38-.84-.67-1.52-.74-1.72-.32-.87-.6-1.18-1.12-1.22-.5.04-.79.34-1.11,1.22-.07.2-.36.87-.73,1.72-.73,1.66-1.56,3.6-2.22,5.2-.28.71-.29,1.21-.03,1.52.19.23.49.34.9.34h6.43c.41,0,.71-.12.9-.34.12-.15.18-.34.18-.58,0-.26-.07-.57-.22-.94Zm-1.67.34h-4.8c.17-.42.49-1.25.87-2.18.56-1.41,1.21-3.07,1.53-3.9.39.98,1.22,3.11,1.83,4.63l.57,1.44Z"/>
        <path class="cls-4" d="m172.64,307.35c.06-.29,1.97-5.54,3.02-7.94.32-.73.61-.72.74-.72s.42,0,.74.72c1.05,2.4,2.96,7.64,3.02,7.94.23,1-.08,1.16-.44,1.3-.28.13-.86.02-1.12-.7-.16-.42-2.2-5.86-2.2-5.86,0,0-2.05,5.44-2.2,5.86-.25.72-.83.82-1.12.7-.36-.15-.67-.3-.44-1.3Z"/>
      </g>
      <g>
        <path class="cls-4" d="m438.34,303.72c.48.44.43.65.44.96s-.23.47-.53.71c-1.75,1.43-2.78,2.44-2.78,2.44,0,0,.42.05,4.42.05.4,0,.79.33.79.78,0,.48-.22.88-.64.88-2.35,0-4.02-.05-5.97-.05-.79,0-1.34-.19-1.52-.57-.17-.36-.12-.9.55-1.52,1.91-1.72,3.47-2.88,3.47-2.88,0,0-2.17-1.97-3.75-3.56-.33-.33-.43-.62-.31-.85.11-.2.55-.57.92-.57h6.71c.74,0,.77,1.31,0,1.31-3.37,0-5.2.02-5.2.02"/>
        <path class="cls-4" d="m441.94,308.19c.06-.29,1.97-5.54,3.02-7.94.32-.73.61-.72.74-.72s.42,0,.74.72c1.05,2.4,2.96,7.64,3.02,7.94.23,1-.08,1.16-.44,1.3-.28.13-.86.02-1.12-.7-.16-.42-2.2-5.86-2.2-5.86,0,0-2.05,5.44-2.2,5.86-.25.72-.83.82-1.12.7-.36-.15-.67-.3-.44-1.3Z"/>
      </g>
      <g>
        <path class="cls-4" d="m530.21,307.67c-.93-2.27-1.86-4.39-2.21-5.2-.38-.84-.67-1.52-.74-1.72-.32-.87-.6-1.18-1.12-1.22-.5.04-.79.34-1.11,1.22-.07.2-.36.87-.73,1.72-.73,1.66-1.56,3.6-2.22,5.2-.28.71-.29,1.21-.03,1.52.19.23.49.34.9.34h6.43c.41,0,.71-.12.9-.34.12-.15.18-.34.18-.58,0-.26-.07-.57-.22-.94Zm-1.67.34h-4.8c.17-.42.49-1.25.87-2.18.56-1.41,1.21-3.07,1.53-3.9.39.98,1.22,3.11,1.83,4.63l.57,1.44Z"/>
        <path class="cls-4" d="m532.27,308.19c.06-.29,1.97-5.54,3.02-7.94.32-.73.61-.72.74-.72s.42,0,.74.72c1.05,2.4,2.96,7.64,3.02,7.94.23,1-.08,1.16-.44,1.3-.28.13-.86.02-1.12-.7-.16-.42-2.2-5.86-2.2-5.86,0,0-2.05,5.44-2.2,5.86-.25.72-.83.82-1.12.7-.36-.15-.67-.3-.44-1.3Z"/>
      </g>
      <g>
        <path class="cls-4" d="m256.44,298.7c-1.33,0-3.23,1.68-3.23,5,0,2.56,1.22,5,3.23,5s3.27-2.44,3.27-5c0-3.48-1.94-5-3.27-5Zm.01,1.37c.96,0,1.64,1.13,1.7,1.93.02.3,0,.81-.55.81h-2.33c-.46,0-.51-.5-.5-.76.07-.8.81-1.98,1.69-1.98Zm0,7.26c-1.08,0-1.72-1.28-1.79-2.08-.01-.25,0-.76.5-.76h2.53c.56,0,.58.5.55.81-.06.8-.72,2.03-1.8,2.03Z"/>
        <path class="cls-4" d="m261.12,307.35c.06-.29,1.97-5.54,3.02-7.94.32-.73.61-.72.74-.72s.42,0,.74.72c1.05,2.4,2.96,7.64,3.02,7.94.23,1-.08,1.16-.44,1.3-.28.13-.86.02-1.12-.7-.16-.42-2.2-5.86-2.2-5.86,0,0-2.05,5.44-2.2,5.86-.25.72-.83.82-1.12.7-.36-.15-.67-.3-.44-1.3Z"/>
      </g>
      <g>
        <path class="cls-4" d="m351.51,308.7h-3.54c-.32,0-.53-.32-.41-.62,2.67-6.29.99-7.71-1.08-7.85-.04,0-.08,0-.12,0h-.02s-.09,0-.13,0c-.04,0-.08,0-.12,0-2.07.14-3.75,1.56-1.08,7.85.12.29-.09.62-.41.62h-3.54c-.14,0-.66-1.27.12-1.73.69-.41.99.09,1.81.11-2.24-4.96.04-7.96,2.78-8.36.08-.02.94-.02,1.02,0,2.74.41,5.02,3.4,2.78,8.36.82-.02,1.12-.51,1.81-.11.78.46.26,1.73.12,1.73Z"/>
        <path class="cls-4" d="m353.56,307.35c.06-.29,1.97-5.54,3.02-7.94.32-.73.61-.72.74-.72s.42,0,.74.72c1.05,2.4,2.96,7.64,3.02,7.94.23,1-.08,1.16-.44,1.3-.28.13-.86.02-1.12-.7-.16-.42-2.2-5.86-2.2-5.86,0,0-2.05,5.44-2.2,5.86-.25.72-.83.82-1.12.7-.36-.15-.67-.3-.44-1.3Z"/>
      </g>
      <g>
        <path class="cls-4" d="m259.13,189.94l-4.37,8.3c-.15.29-.45.46-.75.46-.13,0-.26-.04-.39-.1-.2-.11-.35-.28-.42-.5-.07-.21-.05-.45.06-.65l1.88-3.58-2.53-3.62c-.12-.11-.2-.27-.24-.47-.05-.25.03-.53.2-.71.15-.17.35-.27.58-.28.22,0,.45.07.61.21l2.2,3.29,1.65-3.14c.12-.2.29-.35.51-.42.22-.07.45-.04.65.07.22.12.38.33.43.59.03.19,0,.38-.08.55Z"/>
        <path d="m268.45,191.48c-.71-.51-1.55-.82-2.45-.91v-1.11c0-.42-.34-.76-.77-.76h-.12c-.43,0-.77.34-.77.76v1.11c-.9.09-1.75.4-2.45.91-.71.48-1.09,1.08-1.14,1.75-.06.85.42,1.62.85,2.01.7.66,1.64,1.05,2.74,1.14v1.55c0,.42.34.76.77.76h.12c.43,0,.77-.34.77-.76v-1.55c1.1-.09,2.04-.48,2.74-1.14.43-.39.91-1.17.85-2.01-.05-.68-.43-1.26-1.14-1.75Zm-2.45,1.84c0-.41,0-.75.04-1.08,0-.11.1-.2.21-.21h.07c.8,0,1.4.28,1.68.79.25.45.22,1.01-.09,1.45-.34.52-.97.77-1.72.69-.1,0-.18-.1-.18-.21,0-.27,0-.56,0-.85,0-.2,0-.39,0-.59Zm-3.66-.49c.27-.51.87-.79,1.67-.79h.07c.12,0,.21.1.22.21.03.33.04.69.04,1.08,0,.2,0,.4,0,.6,0,.28,0,.57,0,.84,0,.11-.08.2-.18.21-.75.09-1.37-.17-1.72-.69-.3-.44-.33-1-.09-1.45Z"/>
      </g>
      <g>
        <path class="cls-4" d="m619.75,190.78l-4.37,8.3c-.15.29-.45.46-.75.46-.13,0-.26-.04-.39-.1-.2-.11-.35-.28-.42-.5-.07-.21-.05-.45.06-.65l1.88-3.58-2.53-3.62c-.12-.11-.2-.27-.24-.47-.05-.25.03-.53.2-.71.15-.17.35-.27.58-.28.22,0,.45.07.61.21l2.2,3.29,1.65-3.14c.12-.2.29-.35.51-.42.22-.07.45-.04.65.07.22.12.38.33.43.59.03.19,0,.38-.08.55Z"/>
        <path d="m627.95,192.32c-.71-.51-1.55-.82-2.45-.91v-1.11c0-.42-.34-.76-.77-.76h-.12c-.43,0-.77.34-.77.76v1.11c-.9.09-1.75.4-2.45.91-.71.48-1.09,1.08-1.14,1.75-.06.85.42,1.62.85,2.01.7.66,1.64,1.05,2.74,1.14v1.55c0,.42.34.76.77.76h.12c.43,0,.77-.34.77-.76v-1.55c1.1-.09,2.04-.48,2.74-1.14.43-.39.91-1.17.85-2.01-.05-.68-.43-1.26-1.14-1.75Zm-2.45,1.84c0-.41,0-.75.04-1.08,0-.11.1-.2.21-.21h.07c.8,0,1.4.28,1.68.79.25.45.22,1.01-.09,1.45-.34.52-.97.77-1.72.69-.1,0-.18-.1-.18-.21,0-.27,0-.56,0-.85,0-.2,0-.39,0-.59Zm-3.66-.49c.27-.51.87-.79,1.67-.79h.07c.12,0,.21.1.22.21.03.33.04.69.04,1.08,0,.2,0,.4,0,.6,0,.28,0,.57,0,.84,0,.11-.08.2-.18.21-.75.09-1.37-.17-1.72-.69-.3-.44-.33-1-.09-1.45Z"/>
      </g>
      <g>
        <path class="cls-4" d="m706.6,191.27c-1.86,0-2.27,0-3.51,0-.46,0-1.11-.2-1.11-.85,0-.57.42-.88,1.07-.88,4.93,0,5.05-.05,5.58.38.28.22.43.73.15,1.14-1.71,2.48-4.64,6.6-4.64,6.6,0,0,2.47-.05,3.73-.05,1.57,0,1.46,1.88.13,1.88-8.37,0-8.83,1.14-1.4-8.22Z"/>
        <path d="m719.56,192.32c-.71-.51-1.55-.82-2.45-.91v-1.11c0-.42-.34-.76-.77-.76h-.12c-.43,0-.77.34-.77.76v1.11c-.9.09-1.75.4-2.45.91-.71.48-1.09,1.08-1.14,1.75-.06.85.42,1.62.85,2.01.7.66,1.64,1.05,2.74,1.14v1.55c0,.42.34.76.77.76h.12c.43,0,.77-.34.77-.76v-1.55c1.1-.09,2.04-.48,2.74-1.14.43-.39.91-1.17.85-2.01-.05-.68-.43-1.26-1.14-1.75Zm-2.45,1.84c0-.41,0-.75.04-1.08,0-.11.1-.2.21-.21h.07c.8,0,1.4.28,1.68.79.25.45.22,1.01-.09,1.45-.34.52-.97.77-1.72.69-.1,0-.18-.1-.18-.21,0-.27,0-.56,0-.85,0-.2,0-.39,0-.59Zm-3.66-.49c.27-.51.87-.79,1.67-.79h.07c.12,0,.21.1.22.21.03.33.04.69.04,1.08,0,.2,0,.4,0,.6,0,.28,0,.57,0,.84,0,.11-.08.2-.18.21-.75.09-1.37-.17-1.72-.69-.3-.44-.33-1-.09-1.45Z"/>
      </g>
      <g>
        <path class="cls-4" d="m347.52,190.43c-1.86,0-2.27,0-3.51,0-.46,0-1.11-.2-1.11-.85,0-.57.42-.88,1.07-.88,4.93,0,5.05-.05,5.58.38.28.22.43.73.15,1.14-1.71,2.48-4.64,6.6-4.64,6.6,0,0,2.47-.05,3.73-.05,1.57,0,1.46,1.88.13,1.88-8.37,0-8.83,1.14-1.4-8.22Z"/>
        <path d="m358.53,191.48c-.71-.51-1.55-.82-2.45-.91v-1.11c0-.42-.34-.76-.77-.76h-.12c-.43,0-.77.34-.77.76v1.11c-.9.09-1.75.4-2.45.91-.71.48-1.09,1.08-1.14,1.75-.06.85.42,1.62.85,2.01.7.66,1.64,1.05,2.74,1.14v1.55c0,.42.34.76.77.76h.12c.43,0,.77-.34.77-.76v-1.55c1.1-.09,2.04-.48,2.74-1.14.43-.39.91-1.17.85-2.01-.05-.68-.43-1.26-1.14-1.75Zm-2.45,1.84c0-.41,0-.75.04-1.08,0-.11.1-.2.21-.21h.07c.8,0,1.4.28,1.68.79.25.45.22,1.01-.09,1.45-.34.52-.97.77-1.72.69-.1,0-.18-.1-.18-.21,0-.27,0-.56,0-.85,0-.2,0-.39,0-.59Zm-3.66-.49c.27-.51.87-.79,1.67-.79h.07c.12,0,.21.1.22.21.03.33.04.69.04,1.08,0,.2,0,.4,0,.6,0,.28,0,.57,0,.84,0,.11-.08.2-.18.21-.75.09-1.37-.17-1.72-.69-.3-.44-.33-1-.09-1.45Z"/>
      </g>
      <g>
        <path class="cls-4" d="m360.74,485.24h-3.54c-.32,0-.53-.32-.41-.62,2.67-6.29.99-7.71-1.08-7.85-.04,0-.08,0-.12,0h-.02s-.09,0-.13,0c-.04,0-.08,0-.12,0-2.07.14-3.75,1.56-1.08,7.85.12.29-.09.62-.41.62h-3.54c-.14,0-.66-1.27.12-1.73.69-.41.99.09,1.81.11-2.24-4.96.04-7.96,2.78-8.36.08-.02.94-.02,1.02,0,2.74.41,5.02,3.4,2.78,8.36.82-.02,1.12-.51,1.81-.11.78.46.26,1.73.12,1.73Z"/>
        <path class="cls-4" d="m349.68,476.91c-.5,2.51-1.03,3.37-3.39,3.82-.04,0-.07.04-.08.07v3.6c0,.22-.1.44-.25.6-.16.16-.36.24-.59.24s-.43-.09-.61-.24c-.16-.16-.24-.38-.24-.6v-3.6s-.05-.06-.09-.07c-2.35-.45-2.88-1.31-3.38-3.82-.08-.36-.04-.65.12-.83.17-.21.42-.24.56-.24.24,0,.43.22.56.45.13.23.2.47.21.54.25,1.71.73,2.29,1.85,2.29h.09s.07-.02.09-.06v-3.05c.12-.28.2-.48.31-.6.07-.06.15-.1.23-.13.05-.02.1-.03.14-.04.11-.02.24-.02.33,0,.05,0,.1.02.15.04.07,0,.15.06.22.13.12.12.21.31.3.6v.03s.02.03.02.05v2.94s0,.02,0,.04c0,.03.05.05.09.05,1.2.04,1.68-.54,1.93-2.29.03-.13.28-.99.76-.99h0c.14,0,.39.03.56.24.15.19.19.47.12.83Z"/>
      </g>
      <g>
        <path class="cls-4" d="m265.96,475.24c-1.33,0-3.23,1.68-3.23,5,0,2.56,1.22,5,3.23,5s3.27-2.44,3.27-5c0-3.48-1.94-5-3.27-5Zm.01,1.37c.96,0,1.64,1.13,1.7,1.93.02.3,0,.81-.55.81h-2.33c-.46,0-.51-.5-.5-.76.07-.8.81-1.98,1.69-1.98Zm0,7.26c-1.08,0-1.72-1.28-1.79-2.08-.01-.25,0-.76.5-.76h2.53c.56,0,.58.5.55.81-.06.8-.72,2.03-1.8,2.03Z"/>
        <path class="cls-4" d="m261.38,476.91c-.5,2.51-1.03,3.37-3.39,3.82-.04,0-.07.04-.08.07v3.6c0,.22-.1.44-.25.6s-.36.24-.59.24-.43-.09-.61-.24c-.16-.16-.24-.38-.24-.6v-3.6s-.05-.06-.09-.07c-2.35-.45-2.88-1.31-3.38-3.82-.08-.36-.04-.65.12-.83.17-.21.42-.24.56-.24.24,0,.43.22.56.45.13.23.2.47.21.54.25,1.71.73,2.29,1.85,2.29h.09s.07-.02.09-.06v-3.05c.12-.28.2-.48.31-.6.07-.06.15-.1.23-.13.05-.02.1-.03.14-.04.11-.02.24-.02.33,0,.05,0,.1.02.15.04.07,0,.15.06.22.13.12.12.21.31.3.6v.03s.02.03.02.05v2.94s0,.02,0,.04c0,.03.05.05.09.05,1.2.04,1.68-.54,1.93-2.29.03-.13.28-.99.76-.99h0c.14,0,.39.03.56.24.15.19.19.47.12.83Z"/>
      </g>
      <g>
        <path class="cls-4" d="m89.96,585.25c-.46-.06-.96.28-1.19,1.14-.42,1.54-.92,3.7-1.44,5.63-1.11-2.72-1.86-4.39-2.5-4.38-.01,0-.02,0-.03.01-.01-.01-.02-.01-.03-.01-.64-.01-1.39,1.65-2.5,4.38-.51-1.93-1.02-4.09-1.44-5.63-.24-.86-.73-1.2-1.19-1.14-.59.07-.98.49-.74,1.25.25.81,1.84,6.07,2.3,7.72.47,1.65,1.59.9,1.8.49.21-.41,1.36-3.67,1.8-4.59.44.92,1.59,4.18,1.8,4.59.21.41,1.33,1.16,1.8-.49.46-1.64,2.05-6.9,2.3-7.72.24-.76-.15-1.18-.74-1.25Z"/>
        <path class="cls-4" d="m71.3,593.89c.06-.29,1.97-5.54,3.02-7.94.32-.73.61-.72.74-.72s.42,0,.74.72c1.05,2.4,2.96,7.64,3.02,7.94.23,1-.08,1.16-.44,1.3-.28.13-.86.02-1.12-.7-.16-.42-2.2-5.86-2.2-5.86,0,0-2.05,5.44-2.2,5.86-.25.72-.83.82-1.12.7-.36-.15-.67-.3-.44-1.3Z"/>
      </g>
      <g>
        <path class="cls-4" d="m450.84,585.25c-.46-.06-.96.28-1.19,1.14-.42,1.54-.92,3.7-1.44,5.63-1.11-2.72-1.86-4.39-2.5-4.38-.01,0-.02,0-.03.01-.01-.01-.02-.01-.03-.01-.64-.01-1.39,1.65-2.5,4.38-.51-1.93-1.02-4.09-1.44-5.63-.24-.86-.73-1.2-1.19-1.14-.59.07-.98.49-.74,1.25.25.81,1.84,6.07,2.3,7.72.47,1.65,1.59.9,1.8.49.21-.41,1.36-3.67,1.8-4.59.44.92,1.59,4.18,1.8,4.59.21.41,1.33,1.16,1.8-.49.46-1.64,2.05-6.9,2.3-7.72.24-.76-.15-1.18-.74-1.25Z"/>
        <path class="cls-4" d="m430.43,593.89c.06-.29,1.97-5.54,3.02-7.94.32-.73.61-.72.74-.72s.42,0,.74.72c1.05,2.4,2.96,7.64,3.02,7.94.23,1-.08,1.16-.44,1.3-.28.13-.86.02-1.12-.7-.16-.42-2.2-5.86-2.2-5.86,0,0-2.05,5.44-2.2,5.86-.25.72-.83.82-1.12.7-.36-.15-.67-.3-.44-1.3Z"/>
      </g>
      <g>
        <path class="cls-4" d="m179.88,593.75c.16.19.21.44.19.68-.03.24-.16.46-.34.61-.4.3-.98.23-1.3-.17l-2.45-3.14-2.45,3.14c-.18.23-.45.36-.72.36-.19,0-.4-.07-.57-.19-.19-.15-.32-.37-.35-.61-.03-.24.03-.49.19-.68l2.73-3.51-2.73-3.51c-.13-.17-.19-.36-.19-.57,0-.28.14-.56.36-.73.19-.15.42-.21.67-.19.24.03.47.16.61.35l2.45,3.14,2.44-3.14c.33-.41.91-.48,1.31-.16.22.17.35.43.35.72,0,.2-.07.4-.19.57l-2.73,3.51,2.73,3.51Z"/>
        <path class="cls-4" d="m162,593.89c.06-.29,1.97-5.54,3.02-7.94.32-.73.61-.72.74-.72s.42,0,.74.72c1.05,2.4,2.96,7.64,3.02,7.94.23,1-.08,1.16-.44,1.3-.28.13-.86.02-1.12-.7-.16-.42-2.2-5.86-2.2-5.86,0,0-2.05,5.44-2.2,5.86-.25.72-.83.82-1.12.7-.36-.15-.67-.3-.44-1.3Z"/>
      </g>
      <g>
        <path class="cls-4" d="m539.76,593.75c.16.19.21.44.19.68-.03.24-.16.46-.34.61-.4.3-.98.23-1.3-.17l-2.45-3.14-2.45,3.14c-.18.23-.45.36-.72.36-.19,0-.4-.07-.57-.19-.19-.15-.32-.37-.35-.61-.03-.24.03-.49.19-.68l2.73-3.51-2.73-3.51c-.13-.17-.19-.36-.19-.57,0-.28.14-.56.36-.73.19-.15.42-.21.67-.19.24.03.47.16.61.35l2.45,3.14,2.44-3.14c.33-.41.91-.48,1.31-.16.22.17.35.43.35.72,0,.2-.07.4-.19.57l-2.73,3.51,2.73,3.51Z"/>
        <path class="cls-4" d="m521.84,593.89c.06-.29,1.97-5.54,3.02-7.94.32-.73.61-.72.74-.72s.42,0,.74.72c1.05,2.4,2.96,7.64,3.02,7.94.23,1-.08,1.16-.44,1.3-.28.13-.86.02-1.12-.7-.16-.42-2.2-5.86-2.2-5.86,0,0-2.05,5.44-2.2,5.86-.25.72-.83.82-1.12.7-.36-.15-.67-.3-.44-1.3Z"/>
      </g>
      <g>
        <path class="cls-4" d="m268.9,586.49l-4.37,8.3c-.15.29-.45.46-.75.46-.13,0-.26-.04-.39-.1-.2-.11-.35-.28-.42-.5-.07-.21-.05-.45.06-.65l1.88-3.58-2.53-3.62c-.12-.11-.2-.27-.24-.47-.05-.25.03-.53.2-.71.15-.17.35-.27.58-.28.22,0,.45.07.61.21l2.2,3.29,1.65-3.14c.12-.2.29-.35.51-.42.22-.07.45-.04.65.07.22.12.38.33.43.59.03.19,0,.38-.08.55Z"/>
        <path class="cls-4" d="m253.02,593.89c.06-.29,1.97-5.54,3.02-7.94.32-.73.61-.72.74-.72s.42,0,.74.72c1.05,2.4,2.96,7.64,3.02,7.94.23,1-.08,1.16-.44,1.3-.28.13-.86.02-1.12-.7-.16-.42-2.2-5.86-2.2-5.86,0,0-2.05,5.44-2.2,5.86-.25.72-.83.82-1.12.7-.36-.15-.67-.3-.44-1.3Z"/>
      </g>
      <g>
        <path class="cls-4" d="m357.25,586.98c-1.86,0-2.27,0-3.51,0-.46,0-1.11-.2-1.11-.85,0-.57.42-.88,1.07-.88,4.93,0,5.05-.05,5.58.38.28.22.43.73.15,1.14-1.71,2.48-4.64,6.6-4.64,6.6,0,0,2.47-.05,3.73-.05,1.57,0,1.46,1.88.13,1.88-8.37,0-8.83,1.14-1.4-8.22Z"/>
        <path class="cls-4" d="m342.35,593.89c.06-.29,1.97-5.54,3.02-7.94.32-.73.61-.72.74-.72s.42,0,.74.72c1.05,2.4,2.96,7.64,3.02,7.94.23,1-.08,1.16-.44,1.3-.28.13-.86.02-1.12-.7-.16-.42-2.2-5.86-2.2-5.86,0,0-2.05,5.44-2.2,5.86-.25.72-.83.82-1.12.7-.36-.15-.67-.3-.44-1.3Z"/>
      </g>
      <g>
        <path class="cls-4" d="m639.19,586.49l-4.37,8.3c-.15.29-.45.46-.75.46-.13,0-.26-.04-.39-.1-.2-.11-.35-.28-.42-.5-.07-.21-.05-.45.06-.65l1.88-3.58-2.53-3.62c-.12-.11-.2-.27-.24-.47-.05-.25.03-.53.2-.71.15-.17.35-.27.58-.28.22,0,.45.07.61.21l2.2,3.29,1.65-3.14c.12-.2.29-.35.51-.42.22-.07.45-.04.65.07.22.12.38.33.43.59.03.19,0,.38-.08.55Z"/>
        <path class="cls-4" d="m622.86,593.89c.06-.29,1.97-5.54,3.02-7.94.32-.73.61-.72.74-.72s.42,0,.74.72c1.05,2.4,2.96,7.64,3.02,7.94.23,1-.08,1.16-.44,1.3-.28.13-.86.02-1.12-.7-.16-.42-2.2-5.86-2.2-5.86,0,0-2.05,5.44-2.2,5.86-.25.72-.83.82-1.12.7-.36-.15-.67-.3-.44-1.3Z"/>
      </g>
      <g>
        <path class="cls-4" d="m727.74,586.98c-1.86,0-2.27,0-3.51,0-.46,0-1.11-.2-1.11-.85,0-.57.42-.88,1.07-.88,4.93,0,5.05-.05,5.58.38.28.22.43.73.15,1.14-1.71,2.48-4.64,6.6-4.64,6.6,0,0,2.47-.05,3.73-.05,1.57,0,1.46,1.88.13,1.88-8.37,0-8.83,1.14-1.4-8.22Z"/>
        <path class="cls-4" d="m711.97,593.89c.06-.29,1.97-5.54,3.02-7.94.32-.73.61-.72.74-.72s.42,0,.74.72c1.05,2.4,2.96,7.64,3.02,7.94.23,1-.08,1.16-.44,1.3-.28.13-.86.02-1.12-.7-.16-.42-2.2-5.86-2.2-5.86,0,0-2.05,5.44-2.2,5.86-.25.72-.83.82-1.12.7-.36-.15-.67-.3-.44-1.3Z"/>
      </g>
      <g>
        <path class="cls-4" d="m87.32,479.43c.48.44.43.65.44.96s-.23.47-.53.71c-1.75,1.43-2.78,2.44-2.78,2.44,0,0,.42.05,4.42.05.4,0,.79.33.79.78,0,.48-.22.88-.64.88-2.35,0-4.02-.05-5.97-.05-.79,0-1.34-.19-1.52-.57-.17-.36-.12-.9.55-1.52,1.91-1.72,3.47-2.88,3.47-2.88,0,0-2.17-1.97-3.75-3.56-.33-.33-.43-.62-.31-.85.11-.2.55-.57.92-.57h6.71c.74,0,.77,1.31,0,1.31-3.37,0-5.2.02-5.2.02"/>
        <path d="m80.02,478.03c-.71-.51-1.55-.82-2.45-.91v-1.11c0-.42-.34-.76-.77-.76h-.12c-.43,0-.77.34-.77.76v1.11c-.9.09-1.75.4-2.45.91-.71.48-1.09,1.08-1.14,1.75-.06.85.42,1.62.85,2.01.7.66,1.64,1.05,2.74,1.14v1.55c0,.42.34.76.77.76h.12c.43,0,.77-.34.77-.76v-1.55c1.1-.09,2.04-.48,2.74-1.14.43-.39.91-1.17.85-2.01-.05-.68-.43-1.26-1.14-1.75Zm-2.45,1.84c0-.41,0-.75.04-1.08,0-.11.1-.2.21-.21h.07c.8,0,1.4.28,1.68.79.25.45.22,1.01-.09,1.45-.34.52-.97.77-1.72.69-.1,0-.18-.1-.18-.21,0-.27,0-.56,0-.85,0-.2,0-.39,0-.59Zm-3.66-.49c.27-.51.87-.79,1.67-.79h.07c.12,0,.21.1.22.21.03.33.04.69.04,1.08,0,.2,0,.4,0,.6,0,.28,0,.57,0,.84,0,.11-.08.2-.18.21-.75.09-1.37-.17-1.72-.69-.3-.44-.33-1-.09-1.45Z"/>
      </g>
      <g>
        <path class="cls-4" d="m179.88,483.38c-.93-2.27-1.86-4.39-2.21-5.2-.38-.84-.67-1.52-.74-1.72-.32-.87-.6-1.18-1.12-1.22-.5.04-.79.34-1.11,1.22-.07.2-.36.87-.73,1.72-.73,1.66-1.56,3.6-2.22,5.2-.28.71-.29,1.21-.03,1.52.19.23.49.34.9.34h6.43c.41,0,.71-.12.9-.34.12-.15.18-.34.18-.58,0-.26-.07-.57-.22-.94Zm-1.67.34h-4.8c.17-.42.49-1.25.87-2.18.56-1.41,1.21-3.07,1.53-3.9.39.98,1.22,3.11,1.83,4.63l.57,1.44Z"/>
        <path d="m169.61,478.03c-.71-.51-1.55-.82-2.45-.91v-1.11c0-.42-.34-.76-.77-.76h-.12c-.43,0-.77.34-.77.76v1.11c-.9.09-1.75.4-2.45.91-.71.48-1.09,1.08-1.14,1.75-.06.85.42,1.62.85,2.01.7.66,1.64,1.05,2.74,1.14v1.55c0,.42.34.76.77.76h.12c.43,0,.77-.34.77-.76v-1.55c1.1-.09,2.04-.48,2.74-1.14.43-.39.91-1.17.85-2.01-.05-.68-.43-1.26-1.14-1.75Zm-2.45,1.84c0-.41,0-.75.04-1.08,0-.11.1-.2.21-.21h.07c.8,0,1.4.28,1.68.79.25.45.22,1.01-.09,1.45-.34.52-.97.77-1.72.69-.1,0-.18-.1-.18-.21,0-.27,0-.56,0-.85,0-.2,0-.39,0-.59Zm-3.66-.49c.27-.51.87-.79,1.67-.79h.07c.12,0,.21.1.22.21.03.33.04.69.04,1.08,0,.2,0,.4,0,.6,0,.28,0,.57,0,.84,0,.11-.08.2-.18.21-.75.09-1.37-.17-1.72-.69-.3-.44-.33-1-.09-1.45Z"/>
      </g>
      <g>
        <path class="cls-4" d="m731.44,485.24h-3.54c-.32,0-.53-.32-.41-.62,2.67-6.29.99-7.71-1.08-7.85-.04,0-.08,0-.12,0h-.02s-.09,0-.13,0c-.04,0-.08,0-.12,0-2.07.14-3.75,1.56-1.08,7.85.12.29-.09.62-.41.62h-3.54c-.14,0-.66-1.27.12-1.73.69-.41.99.09,1.81.11-2.24-4.96.04-7.96,2.78-8.36.08-.02.94-.02,1.02,0,2.74.41,5.02,3.4,2.78,8.36.82-.02,1.12-.51,1.81-.11.78.46.26,1.73.12,1.73Z"/>
        <path class="cls-4" d="m718.99,476.91c-.5,2.51-1.03,3.37-3.39,3.82-.04,0-.07.04-.08.07v3.6c0,.22-.1.44-.25.6-.16.16-.36.24-.59.24s-.43-.09-.61-.24c-.16-.16-.24-.38-.24-.6v-3.6s-.05-.06-.09-.07c-2.35-.45-2.88-1.31-3.38-3.82-.08-.36-.04-.65.12-.83.17-.21.42-.24.56-.24.24,0,.43.22.56.45.13.23.2.47.21.54.25,1.71.73,2.29,1.85,2.29h.09s.07-.02.09-.06v-3.05c.12-.28.2-.48.31-.6.07-.06.15-.1.23-.13.05-.02.1-.03.14-.04.11-.02.24-.02.33,0,.05,0,.1.02.15.04.07,0,.15.06.22.13.12.12.21.31.3.6v.03s.02.03.02.05v2.94s0,.02,0,.04c0,.03.05.05.09.05,1.2.04,1.68-.54,1.93-2.29.03-.13.28-.99.76-.99h0c.14,0,.39.03.56.24.15.19.19.47.12.83Z"/>
      </g>
      <g>
        <path class="cls-4" d="m636.07,475.24c-1.33,0-3.23,1.68-3.23,5,0,2.56,1.22,5,3.23,5s3.27-2.44,3.27-5c0-3.48-1.94-5-3.27-5Zm.01,1.37c.96,0,1.64,1.13,1.7,1.93.02.3,0,.81-.55.81h-2.33c-.46,0-.51-.5-.5-.76.07-.8.81-1.98,1.69-1.98Zm0,7.26c-1.08,0-1.72-1.28-1.79-2.08-.01-.25,0-.76.5-.76h2.53c.56,0,.58.5.55.81-.06.8-.72,2.03-1.8,2.03Z"/>
        <path class="cls-4" d="m631.39,476.91c-.5,2.51-1.03,3.37-3.39,3.82-.04,0-.07.04-.08.07v3.6c0,.22-.1.44-.25.6s-.36.24-.59.24-.43-.09-.61-.24c-.16-.16-.24-.38-.24-.6v-3.6s-.05-.06-.09-.07c-2.35-.45-2.88-1.31-3.38-3.82-.08-.36-.04-.65.12-.83.17-.21.42-.24.56-.24.24,0,.43.22.56.45.13.23.2.47.21.54.25,1.71.73,2.29,1.85,2.29h.09s.07-.02.09-.06v-3.05c.12-.28.2-.48.31-.6.07-.06.15-.1.23-.13.05-.02.1-.03.14-.04.11-.02.24-.02.33,0,.05,0,.1.02.15.04.07,0,.15.06.22.13.12.12.21.31.3.6v.03s.02.03.02.05v2.94s0,.02,0,.04c0,.03.05.05.09.05,1.2.04,1.68-.54,1.93-2.29.03-.13.28-.99.76-.99h0c.14,0,.39.03.56.24.15.19.19.47.12.83Z"/>
      </g>
      <g>
        <path class="cls-4" d="m448.18,479.43c.48.44.43.65.44.96s-.23.47-.53.71c-1.75,1.43-2.78,2.44-2.78,2.44,0,0,.42.05,4.42.05.4,0,.79.33.79.78,0,.48-.22.88-.64.88-2.35,0-4.02-.05-5.97-.05-.79,0-1.34-.19-1.52-.57-.17-.36-.12-.9.55-1.52,1.91-1.72,3.47-2.88,3.47-2.88,0,0-2.17-1.97-3.75-3.56-.33-.33-.43-.62-.31-.85.11-.2.55-.57.92-.57h6.71c.74,0,.77,1.31,0,1.31-3.37,0-5.2.02-5.2.02"/>
        <path d="m439.15,478.03c-.71-.51-1.55-.82-2.45-.91v-1.11c0-.42-.34-.76-.77-.76h-.12c-.43,0-.77.34-.77.76v1.11c-.9.09-1.75.4-2.45.91-.71.48-1.09,1.08-1.14,1.75-.06.85.42,1.62.85,2.01.7.66,1.64,1.05,2.74,1.14v1.55c0,.42.34.76.77.76h.12c.43,0,.77-.34.77-.76v-1.55c1.1-.09,2.04-.48,2.74-1.14.43-.39.91-1.17.85-2.01-.05-.68-.43-1.26-1.14-1.75Zm-2.45,1.84c0-.41,0-.75.04-1.08,0-.11.1-.2.21-.21h.07c.8,0,1.4.28,1.68.79.25.45.22,1.01-.09,1.45-.34.52-.97.77-1.72.69-.1,0-.18-.1-.18-.21,0-.27,0-.56,0-.85,0-.2,0-.39,0-.59Zm-3.66-.49c.27-.51.87-.79,1.67-.79h.07c.12,0,.21.1.22.21.03.33.04.69.04,1.08,0,.2,0,.4,0,.6,0,.28,0,.57,0,.84,0,.11-.08.2-.18.21-.75.09-1.37-.17-1.72-.69-.3-.44-.33-1-.09-1.45Z"/>
      </g>
      <g>
        <path class="cls-4" d="m539.97,483.38c-.93-2.27-1.86-4.39-2.21-5.2-.38-.84-.67-1.52-.74-1.72-.32-.87-.6-1.18-1.12-1.22-.5.04-.79.34-1.11,1.22-.07.2-.36.87-.73,1.72-.73,1.66-1.56,3.6-2.22,5.2-.28.71-.29,1.21-.03,1.52.19.23.49.34.9.34h6.43c.41,0,.71-.12.9-.34.12-.15.18-.34.18-.58,0-.26-.07-.57-.22-.94Zm-1.67.34h-4.8c.17-.42.49-1.25.87-2.18.56-1.41,1.21-3.07,1.53-3.9.39.98,1.22,3.11,1.83,4.63l.57,1.44Z"/>
        <path d="m529.23,478.03c-.71-.51-1.55-.82-2.45-.91v-1.11c0-.42-.34-.76-.77-.76h-.12c-.43,0-.77.34-.77.76v1.11c-.9.09-1.75.4-2.45.91-.71.48-1.09,1.08-1.14,1.75-.06.85.42,1.62.85,2.01.7.66,1.64,1.05,2.74,1.14v1.55c0,.42.34.76.77.76h.12c.43,0,.77-.34.77-.76v-1.55c1.1-.09,2.04-.48,2.74-1.14.43-.39.91-1.17.85-2.01-.05-.68-.43-1.26-1.14-1.75Zm-2.45,1.84c0-.41,0-.75.04-1.08,0-.11.1-.2.21-.21h.07c.8,0,1.4.28,1.68.79.25.45.22,1.01-.09,1.45-.34.52-.97.77-1.72.69-.1,0-.18-.1-.18-.21,0-.27,0-.56,0-.85,0-.2,0-.39,0-.59Zm-3.66-.49c.27-.51.87-.79,1.67-.79h.07c.12,0,.21.1.22.21.03.33.04.69.04,1.08,0,.2,0,.4,0,.6,0,.28,0,.57,0,.84,0,.11-.08.2-.18.21-.75.09-1.37-.17-1.72-.69-.3-.44-.33-1-.09-1.45Z"/>
      </g>
    </g>
    <path class="cls-5" d="m732.09,452.38l-2.65,2.72v-48.34c.01-.54-.42-.97-.95-.97-.53,0-.96.43-.96.97v48.2s-2.62-2.58-2.62-2.58c0,0-1.09,1.05-.5,1.87.86,1.18,4.09,3.95,4.09,3.95,0,0,3.38-3.01,4.06-3.95.61-.82-.47-1.87-.47-1.87Z"/>
    <path class="cls-5" d="m642.31,452.38l-2.65,2.72v-48.34c.01-.54-.42-.97-.95-.97-.53,0-.96.43-.96.97v48.2s-2.62-2.58-2.62-2.58c0,0-1.09,1.05-.5,1.87.86,1.18,4.09,3.95,4.09,3.95,0,0,3.38-3.01,4.06-3.95.61-.82-.47-1.87-.47-1.87Z"/>
    <path class="cls-9" d="m663.77,444.3c-.64-.95-3.93-4.08-3.93-4.08,0,0-3.31,2.66-4.21,3.8-.63.8.44,1.89.44,1.89l2.78-2.61c-.03,8.61-6.85,18.1-19.4,19.39v-2.79c0-.6-.49-1.09-1.08-1.09-.6,0-1.08.49-1.08,1.09v7.56c0,.6.48,1.09,1.08,1.09.59,0,1.08-.49,1.08-1.09v-2.63c11.36-.66,21.34-9.96,21.37-21.33l2.42,2.65s1.11-1.01.53-1.85Z"/>
    <path class="cls-9" d="m756.31,446.25s-2.77-3.23-3.95-4.08c-.82-.6-1.87.5-1.87.5l2.73,2.66c-18.49,0-20.09,1.8-20.15,20.18h-2.74c-.6,0-1.09.49-1.09,1.08,0,.6.49,1.08,1.09,1.08h7.56c.6,0,1.09-.48,1.09-1.08,0-.59-.49-1.08-1.09-1.08h-2.75c.04-17.27,1.15-18.23,18.08-18.23l-2.73,2.56s1.05,1.08,1.87.48c.94-.69,3.95-4.07,3.95-4.07Z"/>
    <g>
      <path class="cls-5" d="m162.79,125.18c0,1.6,0,47.04,0,47.04l2.65-2.57s1.08,1.05.47,1.87c-.68.94-4.06,3.95-4.06,3.95,0,0-3.23-2.77-4.09-3.95-.59-.82.5-1.87.5-1.87l2.61,2.57v-36.55c-.61,8.97-7.4,9.68-20.59,9.68-1.45,0-1.43-2.08.03-2.07,18.08.16,19.28-1.12,19.28-18.08,0-2.61,3.2-2.61,3.2-.02Z"/>
      <path class="cls-5" d="m72.9,121.64c0-.56-.64-.97-1.68-.97-11.8,0-21.75,5.9-21.75,21.7,0,1.66,1.81,1.61,1.81,0,0-17.4,12.81-19.72,19.36-19.72.25,0,.34.15.34.33v46.74s-2.61-2.65-2.61-2.65c0,0-1.09,1.05-.5,1.87.86,1.18,4.09,3.95,4.09,3.95,0,0,3.38-3.01,4.06-3.95.61-.82-.47-1.87-.47-1.87l-2.65,2.65v-48.09Z"/>
      <path class="cls-5" d="m344.22,125.18c0,1.6,0,47.04,0,47.04l2.65-2.57s1.08,1.05.47,1.87c-.68.94-4.06,3.95-4.06,3.95,0,0-3.23-2.77-4.09-3.95-.59-.82.5-1.87.5-1.87l2.61,2.57v-36.55c-.61,8.97-7.4,9.68-20.59,9.68-1.45,0-1.43-2.08.03-2.07,18.08.16,19.28-1.12,19.28-18.08,0-2.61,3.2-2.61,3.2-.02Z"/>
      <path class="cls-5" d="m254.34,121.64c0-.56-.64-.97-1.68-.97-11.8,0-21.75,5.9-21.75,21.7,0,1.66,1.81,1.61,1.81,0,0-17.4,12.81-19.72,19.36-19.72.25,0,.34.15.34.33v46.74s-2.61-2.65-2.61-2.65c0,0-1.09,1.05-.5,1.87.86,1.18,4.09,3.95,4.09,3.95,0,0,3.38-3.01,4.06-3.95.61-.82-.47-1.87-.47-1.87l-2.65,2.65v-48.09Z"/>
    </g>
    <g>
      <path class="cls-5" d="m163.59,233.24c0,1.6,0,47.04,0,47.04l2.65-2.57s1.08,1.05.47,1.87c-.68.94-4.06,3.95-4.06,3.95,0,0-3.23-2.77-4.09-3.95-.59-.82.5-1.87.5-1.87l2.61,2.57v-36.55c-.61,8.97-7.4,9.68-20.59,9.68-1.45,0-1.43-2.08.03-2.07,18.08.16,19.28-1.12,19.28-18.08,0-2.61,3.2-2.61,3.2-.02Z"/>
      <path class="cls-5" d="m74.43,232.76c0-.56-.64-.97-1.68-.97-11.8,0-21.75,5.9-21.75,21.7,0,1.66,1.81,1.61,1.81,0,0-17.4,12.81-19.72,19.36-19.72.25,0,.34.15.34.33v46.74s-2.61-2.65-2.61-2.65c0,0-1.09,1.05-.5,1.87.86,1.18,4.09,3.95,4.09,3.95,0,0,3.38-3.01,4.06-3.95.61-.82-.47-1.87-.47-1.87l-2.65,2.65v-48.09Z"/>
      <path class="cls-5" d="m342.99,284.49c0-1.6,0-47.04,0-47.04l2.65,2.57s1.08-1.05.47-1.87c-.68-.94-4.06-3.95-4.06-3.95,0,0-3.23,2.77-4.09,3.95-.59.82.5,1.87.5,1.87l2.61-2.57v36.55c-.61-8.97-7.4-9.68-20.59-9.68-1.45,0-1.43,2.08.03,2.07,18.08-.16,19.28,1.12,19.28,18.08,0,2.61,3.2,2.61,3.2.02Z"/>
      <path class="cls-5" d="m254.91,285.47c0,.56-.64.97-1.68.97-11.8,0-21.75-5.9-21.75-21.7,0-1.66,1.81-1.61,1.81,0,0,17.4,12.81,19.72,19.36,19.72.25,0,.34-.15.34-.33v-46.74s-2.61,2.65-2.61,2.65c0,0-1.09-1.05-.5-1.87.86-1.18,4.09-3.95,4.09-3.95,0,0,3.38,3.01,4.06,3.95.61.82-.47,1.87-.47,1.87l-2.65-2.65v48.09Z"/>
    </g>
    <path class="cls-9" d="m112.01,444.75c-.71-1.15-4.14-3.89-4.14-3.89,0,0-3.27,2.73-4.13,3.89-.6.83.5,1.91.5,1.91l2.68-2.68c.1,8.19-2.8,19.25-19.26,19.36-.18,0-.34-.15-.34-.33v-47.97c0-1.54-1.91-1.55-1.91,0,0,0-.01,48.95-.01,49.51s.64.97,1.68.97c11.99,0,22.3-6.82,21.82-21.54l2.6,2.68s1.03-1.04.49-1.91Z"/>
    <path class="cls-9" d="m199.28,444.24s-2.77-3.23-3.95-4.09c-.82-.59-1.87.5-1.87.5l2.73,2.77c-10.1-.42-15.8.99-18.46,6.85v-35.24c-.01-1.54-1.92-1.55-1.92,0v49.5c0,1.33,2.1,1.28,2.1.03,0-16.52,2.8-19.77,18.28-19.39l-2.73,2.66s1.05,1.08,1.87.47c.94-.68,3.95-4.06,3.95-4.06Z"/>
    <path class="cls-9" d="m293.16,444.75c-.71-1.15-4.14-3.89-4.14-3.89,0,0-3.27,2.73-4.13,3.89-.6.83.5,1.91.5,1.91l2.68-2.68c.1,8.19-2.8,19.25-19.26,19.36-.18,0-.34-.15-.34-.33v-47.97c0-1.54-1.91-1.55-1.91,0,0,0-.01,48.95-.01,49.51s.64.97,1.68.97c11.99,0,22.3-6.82,21.82-21.54l2.6,2.68s1.03-1.04.49-1.91Z"/>
    <path class="cls-9" d="m380.44,444.24s-2.77-3.23-3.95-4.09c-.82-.59-1.87.5-1.87.5l2.73,2.77c-10.1-.42-15.8.99-18.46,6.85v-35.24c-.01-1.54-1.92-1.55-1.92,0v49.5c0,1.33,2.1,1.28,2.1.03,0-16.52,2.8-19.77,18.28-19.39l-2.73,2.66s1.05,1.08,1.87.47c.94-.68,3.95-4.06,3.95-4.06Z"/>
    <path class="cls-9" d="m112.01,553.3c-.71-1.15-4.14-3.89-4.14-3.89,0,0-3.27,2.73-4.13,3.89-.6.83.5,1.91.5,1.91l2.68-2.68c.1,8.19-2.8,19.25-19.26,19.36-.18,0-.34-.15-.34-.33v-47.97c0-1.54-1.91-1.55-1.91,0,0,0-.01,48.95-.01,49.51s.64.97,1.68.97c11.99,0,22.3-6.82,21.82-21.54l2.6,2.68s1.03-1.04.49-1.91Z"/>
    <path class="cls-9" d="m199.28,552.79s-2.77-3.23-3.95-4.09c-.82-.59-1.87.5-1.87.5l2.73,2.77c-10.1-.42-15.8.99-18.46,6.85v-35.24c-.01-1.54-1.92-1.55-1.92,0v49.5c0,1.33,2.1,1.28,2.1.03,0-16.52,2.8-19.77,18.28-19.39l-2.73,2.66s1.05,1.08,1.87.47c.94-.68,3.95-4.06,3.95-4.06Z"/>
    <path class="cls-9" d="m292.16,555.22c-.71-1.15-4.14-3.89-4.14-3.89,0,0-3.27,2.73-4.13,3.89-.6.83.5,1.91.5,1.91l2.68-2.68c.1,8.19-2.8,19.25-19.26,19.36-.18,0-.34-.15-.34-.33v-47.97c0-1.54-1.91-1.55-1.91,0,0,0-.01,48.95-.01,49.51s.64.97,1.68.97c11.99,0,22.3-6.82,21.82-21.54l2.6,2.68s1.03-1.04.49-1.91Z"/>
    <path class="cls-9" d="m380.44,554.72s-2.77-3.23-3.95-4.09c-.82-.59-1.87.5-1.87.5l2.73,2.77c-10.1-.42-15.8.99-18.46,6.85v-35.24c-.01-1.54-1.92-1.55-1.92,0v49.5c0,1.33,2.1,1.28,2.1.03,0-16.52,2.8-19.77,18.28-19.39l-2.73,2.66s1.05,1.08,1.87.47c.94-.68,3.95-4.06,3.95-4.06Z"/>
  </g>
  <g>
    <text class="cls-3" transform="translate(137.19 88.4)"><tspan x="0" y="0">Continuous</tspan></text>
    <text class="cls-3" transform="translate(520.34 84.95)"><tspan x="0" y="0">Staggered</tspan></text>
  </g>
  <g>
    <g>
      <g>
        <circle class="cls-4" cx="81" cy="179.2" r="2.5"/>
        <circle class="cls-4" cx="111" cy="149.2" r="2.5"/>
        <circle class="cls-4" cx="81" cy="119.2" r="2.5"/>
        <circle class="cls-4" cx="51" cy="149.2" r="2.5"/>
        <circle class="cls-4" cx="81" cy="149.2" r="1.12"/>
      </g>
      <g>
        <circle class="cls-4" cx="171" cy="179.2" r="2.5"/>
        <circle class="cls-4" cx="201" cy="149.2" r="2.5"/>
        <circle class="cls-4" cx="171" cy="119.2" r="2.5"/>
        <circle class="cls-4" cx="141" cy="149.2" r="2.5"/>
        <circle class="cls-4" cx="171" cy="149.2" r="1.12"/>
      </g>
      <g>
        <circle class="cls-4" cx="261" cy="179.2" r="2.5"/>
        <circle class="cls-4" cx="291" cy="149.2" r="2.5"/>
        <circle class="cls-4" cx="261" cy="119.2" r="2.5"/>
        <circle class="cls-4" cx="231" cy="149.2" r="2.5"/>
        <circle class="cls-4" cx="261" cy="149.2" r="1.12"/>
      </g>
      <g>
        <circle class="cls-4" cx="351" cy="179.2" r="2.5"/>
        <circle class="cls-4" cx="381" cy="149.2" r="2.5"/>
        <circle class="cls-4" cx="351" cy="119.2" r="2.5"/>
        <circle class="cls-4" cx="321" cy="149.2" r="2.5"/>
        <circle class="cls-4" cx="351" cy="149.2" r="1.12"/>
      </g>
      <g>
        <circle class="cls-4" cx="441" cy="179.2" r="2.5"/>
        <circle class="cls-4" cx="471" cy="149.2" r="2.5"/>
        <circle class="cls-4" cx="441" cy="119.2" r="2.5"/>
        <circle class="cls-4" cx="411" cy="149.2" r="2.5"/>
        <circle class="cls-4" cx="441" cy="149.2" r="1.12"/>
      </g>
      <g>
        <circle class="cls-4" cx="531" cy="179.2" r="2.5"/>
        <circle class="cls-4" cx="561" cy="149.2" r="2.5"/>
        <circle class="cls-4" cx="531" cy="119.2" r="2.5"/>
        <circle class="cls-4" cx="501" cy="149.2" r="2.5"/>
        <circle class="cls-4" cx="531" cy="149.2" r="1.12"/>
      </g>
      <g>
        <circle class="cls-4" cx="621" cy="179.2" r="2.5"/>
        <circle class="cls-4" cx="651" cy="149.2" r="2.5"/>
        <circle class="cls-4" cx="621" cy="119.2" r="2.5"/>
        <circle class="cls-4" cx="591" cy="149.2" r="2.5"/>
        <circle class="cls-4" cx="621" cy="149.2" r="1.12"/>
      </g>
      <g>
        <circle class="cls-4" cx="711" cy="179.2" r="2.5"/>
        <circle class="cls-4" cx="741" cy="149.2" r="2.5"/>
        <circle class="cls-4" cx="711" cy="119.2" r="2.5"/>
        <circle class="cls-4" cx="681" cy="149.2" r="2.5"/>
        <circle class="cls-4" cx="711" cy="149.2" r="1.12"/>
      </g>
    </g>
    <g>
      <g>
        <circle class="cls-4" cx="81" cy="289.2" r="2.5"/>
        <circle class="cls-4" cx="111" cy="259.2" r="2.5"/>
        <circle class="cls-4" cx="81" cy="229.2" r="2.5"/>
        <circle class="cls-4" cx="51" cy="259.2" r="2.5"/>
        <circle class="cls-4" cx="81" cy="259.2" r="1.12"/>
      </g>
      <g>
        <circle class="cls-4" cx="171" cy="289.2" r="2.5"/>
        <circle class="cls-4" cx="201" cy="259.2" r="2.5"/>
        <circle class="cls-4" cx="171" cy="229.2" r="2.5"/>
        <circle class="cls-4" cx="141" cy="259.2" r="2.5"/>
        <circle class="cls-4" cx="171" cy="259.2" r="1.12"/>
      </g>
      <g>
        <circle class="cls-4" cx="261" cy="289.2" r="2.5"/>
        <circle class="cls-4" cx="291" cy="259.2" r="2.5"/>
        <circle class="cls-4" cx="261" cy="229.2" r="2.5"/>
        <circle class="cls-4" cx="231" cy="259.2" r="2.5"/>
        <circle class="cls-4" cx="261" cy="259.2" r="1.12"/>
      </g>
      <g>
        <circle class="cls-4" cx="351" cy="289.2" r="2.5"/>
        <circle class="cls-4" cx="381" cy="259.2" r="2.5"/>
        <circle class="cls-4" cx="351" cy="229.2" r="2.5"/>
        <circle class="cls-4" cx="321" cy="259.2" r="2.5"/>
        <circle class="cls-4" cx="351" cy="259.2" r="1.12"/>
      </g>
      <g>
        <circle class="cls-4" cx="441" cy="289.2" r="2.5"/>
        <circle class="cls-4" cx="471" cy="259.2" r="2.5"/>
        <circle class="cls-4" cx="441" cy="229.2" r="2.5"/>
        <circle class="cls-4" cx="411" cy="259.2" r="2.5"/>
        <circle class="cls-4" cx="441" cy="259.2" r="1.12"/>
      </g>
      <g>
        <circle class="cls-4" cx="531" cy="289.2" r="2.5"/>
        <circle class="cls-4" cx="561" cy="259.2" r="2.5"/>
        <circle class="cls-4" cx="531" cy="229.2" r="2.5"/>
        <circle class="cls-4" cx="501" cy="259.2" r="2.5"/>
        <circle class="cls-4" cx="531" cy="259.2" r="1.12"/>
      </g>
      <g>
        <circle class="cls-4" cx="621" cy="289.2" r="2.5"/>
        <circle class="cls-4" cx="651" cy="259.2" r="2.5"/>
        <circle class="cls-4" cx="621" cy="229.2" r="2.5"/>
        <circle class="cls-4" cx="591" cy="259.2" r="2.5"/>
        <circle class="cls-4" cx="621" cy="259.2" r="1.12"/>
      </g>
      <g>
        <circle class="cls-4" cx="711" cy="289.2" r="2.5"/>
        <circle class="cls-4" cx="741" cy="259.2" r="2.5"/>
        <circle class="cls-4" cx="711" cy="229.2" r="2.5"/>
        <circle class="cls-4" cx="681" cy="259.2" r="2.5"/>
        <circle class="cls-4" cx="711" cy="259.2" r="1.12"/>
      </g>
    </g>
    <g>
      <g>
        <circle class="cls-4" cx="81" cy="405.74" r="2.5"/>
        <circle class="cls-4" cx="51" cy="435.74" r="2.5"/>
        <circle class="cls-4" cx="81" cy="465.74" r="2.5"/>
        <circle class="cls-4" cx="111" cy="435.74" r="2.5"/>
        <circle class="cls-4" cx="81" cy="435.74" r="1.12"/>
      </g>
      <g>
        <circle class="cls-4" cx="171" cy="405.74" r="2.5"/>
        <circle class="cls-4" cx="141" cy="435.74" r="2.5"/>
        <circle class="cls-4" cx="171" cy="465.74" r="2.5"/>
        <circle class="cls-4" cx="201" cy="435.74" r="2.5"/>
        <circle class="cls-4" cx="171" cy="435.74" r="1.12"/>
      </g>
      <g>
        <circle class="cls-4" cx="261" cy="465.74" r="2.5"/>
        <circle class="cls-4" cx="291" cy="435.74" r="2.5"/>
        <circle class="cls-4" cx="261" cy="405.74" r="2.5"/>
        <circle class="cls-4" cx="231" cy="435.74" r="2.5"/>
        <circle class="cls-4" cx="261" cy="435.74" r="1.12"/>
      </g>
      <g>
        <circle class="cls-4" cx="351" cy="465.74" r="2.5"/>
        <circle class="cls-4" cx="381" cy="435.74" r="2.5"/>
        <circle class="cls-4" cx="351" cy="405.74" r="2.5"/>
        <circle class="cls-4" cx="321" cy="435.74" r="2.5"/>
        <circle class="cls-4" cx="351" cy="435.74" r="1.12"/>
      </g>
      <g>
        <circle class="cls-4" cx="441" cy="465.74" r="2.5"/>
        <circle class="cls-4" cx="471" cy="435.74" r="2.5"/>
        <circle class="cls-4" cx="441" cy="405.74" r="2.5"/>
        <circle class="cls-4" cx="411" cy="435.74" r="2.5"/>
        <circle class="cls-4" cx="441" cy="435.74" r="1.12"/>
      </g>
      <g>
        <circle class="cls-4" cx="531" cy="465.74" r="2.5"/>
        <circle class="cls-4" cx="561" cy="435.74" r="2.5"/>
        <circle class="cls-4" cx="531" cy="405.74" r="2.5"/>
        <circle class="cls-4" cx="501" cy="435.74" r="2.5"/>
        <circle class="cls-4" cx="531" cy="435.74" r="1.12"/>
      </g>
      <g>
        <circle class="cls-4" cx="631" cy="465.74" r="2.5"/>
        <circle class="cls-4" cx="661" cy="435.74" r="2.5"/>
        <circle class="cls-4" cx="631" cy="405.74" r="2.5"/>
        <circle class="cls-4" cx="601" cy="435.74" r="2.5"/>
        <circle class="cls-4" cx="631" cy="435.74" r="1.12"/>
      </g>
      <g>
        <circle class="cls-4" cx="721" cy="465.74" r="2.5"/>
        <circle class="cls-4" cx="751" cy="435.74" r="2.5"/>
        <circle class="cls-4" cx="721" cy="405.74" r="2.5"/>
        <circle class="cls-4" cx="691" cy="435.74" r="2.5"/>
        <circle class="cls-4" cx="721" cy="435.74" r="1.12"/>
      </g>
    </g>
    <g>
      <g>
        <circle class="cls-4" cx="81" cy="515.74" r="2.5"/>
        <circle class="cls-4" cx="51" cy="545.74" r="2.5"/>
        <circle class="cls-4" cx="81" cy="575.74" r="2.5"/>
        <circle class="cls-4" cx="111" cy="545.74" r="2.5"/>
        <circle class="cls-4" cx="81" cy="545.74" r="1.12"/>
      </g>
      <g>
        <circle class="cls-4" cx="171" cy="515.74" r="2.5"/>
        <circle class="cls-4" cx="141" cy="545.74" r="2.5"/>
        <circle class="cls-4" cx="171" cy="575.74" r="2.5"/>
        <circle class="cls-4" cx="201" cy="545.74" r="2.5"/>
        <circle class="cls-4" cx="171" cy="545.74" r="1.12"/>
      </g>
      <g>
        <circle class="cls-4" cx="261" cy="575.74" r="2.5"/>
        <circle class="cls-4" cx="291" cy="545.74" r="2.5"/>
        <circle class="cls-4" cx="261" cy="515.74" r="2.5"/>
        <circle class="cls-4" cx="231" cy="545.74" r="2.5"/>
        <circle class="cls-4" cx="261" cy="545.74" r="1.12"/>
      </g>
      <g>
        <circle class="cls-4" cx="351" cy="575.74" r="2.5"/>
        <circle class="cls-4" cx="381" cy="545.74" r="2.5"/>
        <circle class="cls-4" cx="351" cy="515.74" r="2.5"/>
        <circle class="cls-4" cx="321" cy="545.74" r="2.5"/>
        <circle class="cls-4" cx="351" cy="545.74" r="1.12"/>
      </g>
      <g>
        <circle class="cls-4" cx="441" cy="575.74" r="2.5"/>
        <circle class="cls-4" cx="471" cy="545.74" r="2.5"/>
        <circle class="cls-4" cx="441" cy="515.74" r="2.5"/>
        <circle class="cls-4" cx="411" cy="545.74" r="2.5"/>
        <circle class="cls-4" cx="441" cy="545.74" r="1.12"/>
      </g>
      <g>
        <circle class="cls-4" cx="531" cy="575.74" r="2.5"/>
        <circle class="cls-4" cx="561" cy="545.74" r="2.5"/>
        <circle class="cls-4" cx="531" cy="515.74" r="2.5"/>
        <circle class="cls-4" cx="501" cy="545.74" r="2.5"/>
        <circle class="cls-4" cx="531" cy="545.74" r="1.12"/>
      </g>
      <g>
        <circle class="cls-4" cx="631" cy="575.74" r="2.5"/>
        <circle class="cls-4" cx="661" cy="545.74" r="2.5"/>
        <circle class="cls-4" cx="631" cy="515.74" r="2.5"/>
        <circle class="cls-4" cx="601" cy="545.74" r="2.5"/>
        <circle class="cls-4" cx="631" cy="545.74" r="1.12"/>
      </g>
      <g>
        <circle class="cls-4" cx="721" cy="575.74" r="2.5"/>
        <circle class="cls-4" cx="751" cy="545.74" r="2.5"/>
        <circle class="cls-4" cx="721" cy="515.74" r="2.5"/>
        <circle class="cls-4" cx="691" cy="545.74" r="2.5"/>
        <circle class="cls-4" cx="721" cy="545.74" r="1.12"/>
      </g>
    </g>
  </g>
  <line class="cls-10" x1="48.5" y1="210.02" x2="743.5" y2="210.02"/>
  <line class="cls-10" x1="48.5" y1="496.57" x2="743.5" y2="496.57"/>
  <g>
    <line class="cls-10" x1="48.5" y1="210.02" x2="743.5" y2="210.02"/>
    <line class="cls-10" x1="48.5" y1="496.57" x2="743.5" y2="496.57"/>
  </g>
  <g>
    <rect class="cls-9" x="248.5" y="133.67" width="25" height="2.5" rx=".99" ry=".99" transform="translate(395.92 -126.08) rotate(90)"/>
    <rect class="cls-5" x="248.47" y="162.19" width="25" height="2.5" rx=".99" ry=".99" transform="translate(97.53 424.41) rotate(-90)"/>
    <rect class="cls-9" x="82.78" y="257.95" width="25" height="2.5" rx=".99" ry=".99" transform="translate(190.56 518.39) rotate(180)"/>
    <rect class="cls-5" x="68.5" y="272.16" width="25" height="2.5" rx=".99" ry=".99" transform="translate(-192.41 354.41) rotate(-90)"/>
    <rect class="cls-9" x="172.78" y="257.95" width="25" height="2.5" rx=".99" ry=".99" transform="translate(370.56 518.39) rotate(180)"/>
    <rect class="cls-5" x="158.5" y="272.16" width="25" height="2.5" rx=".99" ry=".99" transform="translate(-102.41 444.41) rotate(-90)"/>
    <rect class="cls-9" x="262.78" y="257.95" width="25" height="2.5" rx=".99" ry=".99" transform="translate(550.56 518.39) rotate(180)"/>
    <rect class="cls-5" x="248.5" y="243.66" width="25" height="2.5" rx=".99" ry=".99" transform="translate(16.09 505.91) rotate(-90)"/>
    <rect class="cls-9" x="352.78" y="257.95" width="25" height="2.5" rx=".99" ry=".99" transform="translate(730.56 518.39) rotate(180)"/>
    <rect class="cls-5" x="338.5" y="243.66" width="25" height="2.5" rx=".99" ry=".99" transform="translate(106.09 595.91) rotate(-90)"/>
    <rect class="cls-9" x="414.22" y="257.95" width="25" height="2.5" rx=".99" ry=".99"/>
    <rect class="cls-5" x="428.5" y="243.66" width="25" height="2.5" rx=".99" ry=".99" transform="translate(196.09 685.91) rotate(-90)"/>
    <rect class="cls-9" x="504.22" y="257.95" width="25" height="2.5" rx=".99" ry=".99"/>
    <rect class="cls-5" x="518.5" y="243.66" width="25" height="2.5" rx=".99" ry=".99" transform="translate(286.09 775.91) rotate(-90)"/>
    <rect class="cls-9" x="594.22" y="257.94" width="25" height="2.5" rx=".99" ry=".99"/>
    <rect class="cls-5" x="608.5" y="272.23" width="25" height="2.5" rx=".99" ry=".99" transform="translate(894.48 -347.52) rotate(90)"/>
    <rect class="cls-9" x="684.22" y="257.94" width="25" height="2.5" rx=".99" ry=".99"/>
    <rect class="cls-5" x="698.5" y="272.23" width="25" height="2.5" rx=".99" ry=".99" transform="translate(984.48 -437.52) rotate(90)"/>
    <rect class="cls-5" x="68.5" y="448.78" width="25" height="2.5" rx=".99" ry=".99" transform="translate(531.03 369.02) rotate(90)"/>
    <rect class="cls-9" x="82.75" y="434.52" width="25" height="2.5" rx=".99" ry=".99" transform="translate(190.5 871.55) rotate(-180)"/>
    <rect class="cls-5" x="158.5" y="448.78" width="25" height="2.5" rx=".99" ry=".99" transform="translate(621.03 279.02) rotate(90)"/>
    <rect class="cls-9" x="172.75" y="434.52" width="25" height="2.5" rx=".99" ry=".99" transform="translate(370.5 871.55) rotate(-180)"/>
    <rect class="cls-5" x="248.5" y="448.78" width="25" height="2.5" rx=".99" ry=".99" transform="translate(711.03 189.02) rotate(90)"/>
    <rect class="cls-9" x="262.75" y="434.52" width="25" height="2.5" rx=".99" ry=".99" transform="translate(550.5 871.55) rotate(-180)"/>
    <rect class="cls-5" x="338.5" y="448.78" width="25" height="2.5" rx=".99" ry=".99" transform="translate(801.03 99.02) rotate(90)"/>
    <rect class="cls-9" x="352.75" y="434.52" width="25" height="2.5" rx=".99" ry=".99" transform="translate(730.5 871.55) rotate(-180)"/>
    <rect class="cls-5" x="428.5" y="420.28" width="25" height="2.5" rx=".99" ry=".99" transform="translate(862.53 -19.48) rotate(90)"/>
    <rect class="cls-9" x="442.75" y="434.52" width="25" height="2.5" rx=".99" ry=".99" transform="translate(910.5 871.55) rotate(-180)"/>
    <rect class="cls-5" x="518.5" y="420.28" width="25" height="2.5" rx=".99" ry=".99" transform="translate(952.53 -109.48) rotate(90)"/>
    <rect class="cls-9" x="532.75" y="434.52" width="25" height="2.5" rx=".99" ry=".99" transform="translate(1090.5 871.55) rotate(-180)"/>
    <rect class="cls-5" x="618.5" y="420.28" width="25" height="2.5" rx=".99" ry=".99" transform="translate(1052.53 -209.48) rotate(90)"/>
    <rect class="cls-9" x="632.75" y="434.52" width="25" height="2.5" rx=".99" ry=".99" transform="translate(1290.5 871.55) rotate(-180)"/>
    <rect class="cls-5" x="708.5" y="420.28" width="25" height="2.5" rx=".99" ry=".99" transform="translate(1142.53 -299.48) rotate(90)"/>
    <rect class="cls-9" x="722.75" y="434.52" width="25" height="2.5" rx=".99" ry=".99" transform="translate(1470.5 871.55) rotate(-180)"/>
    <rect class="cls-9" x="82.75" y="544.46" width="25" height="2.5" rx=".99" ry=".99" transform="translate(190.5 1091.42) rotate(-180)"/>
    <rect class="cls-5" x="54.25" y="544.46" width="25" height="2.5" rx=".99" ry=".99"/>
    <rect class="cls-9" x="172.75" y="544.46" width="25" height="2.5" rx=".99" ry=".99" transform="translate(370.5 1091.42) rotate(-180)"/>
    <rect class="cls-5" x="144.25" y="544.46" width="25" height="2.5" rx=".99" ry=".99"/>
    <rect class="cls-9" x="428.5" y="558.71" width="25" height="2.5" rx=".99" ry=".99" transform="translate(-118.96 1000.96) rotate(-90)"/>
    <rect class="cls-5" x="428.5" y="530.21" width="25" height="2.5" rx=".99" ry=".99" transform="translate(972.46 90.46) rotate(90)"/>
    <rect class="cls-9" x="518.5" y="558.71" width="25" height="2.5" rx=".99" ry=".99" transform="translate(-28.96 1090.96) rotate(-90)"/>
    <rect class="cls-5" x="518.5" y="530.21" width="25" height="2.5" rx=".99" ry=".99" transform="translate(1062.46 .46) rotate(90)"/>
    <rect class="cls-9" x="70.52" y="162.2" width="25" height="2.5" rx=".99" ry=".99" transform="translate(-80.43 246.48) rotate(-90)"/>
    <rect class="cls-5" x="66.52" y="162.2" width="25" height="2.5" rx=".99" ry=".99" transform="translate(-84.43 242.48) rotate(-90)"/>
    <rect class="cls-9" x="338.5" y="133.67" width="25" height="2.5" rx=".99" ry=".99" transform="translate(485.92 -216.08) rotate(90)"/>
    <rect class="cls-5" x="338.47" y="162.19" width="25" height="2.5" rx=".99" ry=".99" transform="translate(187.53 514.41) rotate(-90)"/>
    <rect class="cls-9" x="160.52" y="162.2" width="25" height="2.5" rx=".99" ry=".99" transform="translate(9.57 336.48) rotate(-90)"/>
    <rect class="cls-5" x="156.52" y="162.2" width="25" height="2.5" rx=".99" ry=".99" transform="translate(5.57 332.48) rotate(-90)"/>
    <rect class="cls-9" x="608.5" y="133.67" width="25" height="2.5" rx=".99" ry=".99" transform="translate(755.92 -486.08) rotate(90)"/>
    <rect class="cls-5" x="608.47" y="162.19" width="25" height="2.5" rx=".99" ry=".99" transform="translate(457.53 784.41) rotate(-90)"/>
    <rect class="cls-9" x="430.52" y="133.7" width="25" height="2.5" rx=".99" ry=".99" transform="translate(308.07 577.98) rotate(-90)"/>
    <rect class="cls-5" x="426.52" y="133.7" width="25" height="2.5" rx=".99" ry=".99" transform="translate(304.07 573.98) rotate(-90)"/>
    <rect class="cls-9" x="698.5" y="133.67" width="25" height="2.5" rx=".99" ry=".99" transform="translate(845.92 -576.08) rotate(90)"/>
    <rect class="cls-5" x="698.47" y="162.19" width="25" height="2.5" rx=".99" ry=".99" transform="translate(547.53 874.41) rotate(-90)"/>
    <rect class="cls-9" x="520.52" y="133.7" width="25" height="2.5" rx=".99" ry=".99" transform="translate(398.07 667.98) rotate(-90)"/>
    <rect class="cls-5" x="516.52" y="133.7" width="25" height="2.5" rx=".99" ry=".99" transform="translate(394.07 663.98) rotate(-90)"/>
    <rect class="cls-9" x="262.76" y="546.52" width="25" height="2.5" rx=".99" ry=".99" transform="translate(550.51 1095.53) rotate(180)"/>
    <rect class="cls-5" x="262.76" y="542.52" width="25" height="2.5" rx=".99" ry=".99" transform="translate(550.51 1087.53) rotate(180)"/>
    <rect class="cls-9" x="352.76" y="546.52" width="25" height="2.5" rx=".99" ry=".99" transform="translate(730.51 1095.53) rotate(180)"/>
    <rect class="cls-5" x="352.76" y="542.52" width="25" height="2.5" rx=".99" ry=".99" transform="translate(730.51 1087.53) rotate(180)"/>
    <rect class="cls-9" x="710.52" y="558.75" width="25" height="2.5" rx=".99" ry=".99" transform="translate(163.02 1283.02) rotate(-90)"/>
    <rect class="cls-5" x="706.52" y="558.75" width="25" height="2.5" rx=".99" ry=".99" transform="translate(159.02 1279.02) rotate(-90)"/>
    <rect class="cls-9" x="620.52" y="558.75" width="25" height="2.5" rx=".99" ry=".99" transform="translate(73.02 1193.02) rotate(-90)"/>
    <rect class="cls-5" x="616.52" y="558.75" width="25" height="2.5" rx=".99" ry=".99" transform="translate(69.02 1189.02) rotate(-90)"/>
  </g>
  <line class="cls-10" x1="396" y1="116.7" x2="396" y2="308.7"/>
  <line class="cls-10" x1="396" y1="403.24" x2="396" y2="601.11"/>
  <path class="cls-9" d="m446.13,167.05v-.13c0-.4.33-.72.72-.72h3.1s.07-32.05.07-32.05l-2.63,2.57s-1.09-1.05-.5-1.87c.86-1.18,4.1-3.94,4.1-3.94,0,0,3.37,3.02,4.05,3.96.61.82-.47,1.87-.47,1.87l-2.64-2.73-.06,32.2h3.1c.4,0,.73.33.73.73v.13c0,.4-.33.73-.73.73l-8.12-.02c-.39,0-.72-.33-.72-.73Z"/>
  <path class="cls-9" d="m458.7,272.86h-.13c-.4,0-.72-.33-.72-.72v-3.1s-32.05-.07-32.05-.07l2.57,2.63s-1.05,1.09-1.87.5c-1.18-.86-3.94-4.1-3.94-4.1,0,0,3.02-3.37,3.96-4.05.82-.61,1.87.47,1.87.47l-2.73,2.64,32.2.06v-3.1c0-.4.33-.73.73-.73h.13c.4,0,.73.33.73.73l-.02,8.12c0,.39-.33.72-.73.72Z"/>
  <path class="cls-9" d="m548.7,272.86h-.13c-.4,0-.72-.33-.72-.72v-3.1s-32.05-.07-32.05-.07l2.57,2.63s-1.05,1.09-1.87.5c-1.18-.86-3.94-4.1-3.94-4.1,0,0,3.02-3.37,3.96-4.05.82-.61,1.87.47,1.87.47l-2.73,2.64,32.2.06v-3.1c0-.4.33-.73.73-.73h.13c.4,0,.73.33.73.73l-.02,8.12c0,.39-.33.72-.73.72Z"/>
  <path class="cls-9" d="m638.7,255.64h-.13c-.4,0-.72-.33-.72-.72v-3.1s-32.05-.07-32.05-.07l2.57,2.63s-1.05,1.09-1.87.5c-1.18-.86-3.94-4.1-3.94-4.1,0,0,3.02-3.37,3.96-4.05.82-.61,1.87.47,1.87.47l-2.73,2.64,32.2.06v-3.1c0-.4.33-.73.73-.73h.13c.4,0,.73.33.73.73l-.02,8.12c0,.39-.33.72-.73.72Z"/>
  <path class="cls-9" d="m728.7,256.31h-.13c-.4,0-.72-.33-.72-.72v-3.1s-32.05-.07-32.05-.07l2.57,2.63s-1.05,1.09-1.87.5c-1.18-.86-3.94-4.1-3.94-4.1,0,0,3.02-3.37,3.96-4.05.82-.61,1.87.47,1.87.47l-2.73,2.64,32.2.06v-3.1c0-.4.33-.73.73-.73h.13c.4,0,.73.33.73.73l-.02,8.12c0,.39-.33.72-.73.72Z"/>
  <path class="cls-9" d="m536.13,167.05v-.13c0-.4.33-.72.72-.72h3.1s.07-32.05.07-32.05l-2.63,2.57s-1.09-1.05-.5-1.87c.86-1.18,4.1-3.94,4.1-3.94,0,0,3.37,3.02,4.05,3.96.61.82-.47,1.87-.47,1.87l-2.64-2.73-.06,32.2h3.1c.4,0,.73.33.73.73v.13c0,.4-.33.73-.73.73l-8.12-.02c-.39,0-.72-.33-.72-.73Z"/>
  <path class="cls-9" d="m625.5,167.05v-.13c0-.4.33-.72.72-.72h3.1s.07-32.05.07-32.05l-2.63,2.57s-1.09-1.05-.5-1.87c.86-1.18,4.1-3.94,4.1-3.94,0,0,3.37,3.02,4.05,3.96.61.82-.47,1.87-.47,1.87l-2.64-2.73-.06,32.2h3.1c.4,0,.73.33.73.73v.13c0,.4-.33.73-.73.73l-8.12-.02c-.39,0-.72-.33-.72-.73Z"/>
  <path class="cls-9" d="m715.5,167.05v-.13c0-.4.33-.72.72-.72h3.1s.07-32.05.07-32.05l-2.63,2.57s-1.09-1.05-.5-1.87c.86-1.18,4.1-3.94,4.1-3.94,0,0,3.37,3.02,4.05,3.96.61.82-.47,1.87-.47,1.87l-2.64-2.73-.06,32.2h3.1c.4,0,.73.33.73.73v.13c0,.4-.33.73-.73.73l-8.12-.02c-.39,0-.72-.33-.72-.73Z"/>
</svg>