<?xml version="1.0" encoding="UTF-8"?>
<svg id="Layer_1" data-name="Layer 1" xmlns="http://www.w3.org/2000/svg" viewBox="0 0 792 612">
  <defs>
    <style>
      .cls-1 {
        font-size: 25px;
      }

      .cls-2 {
        letter-spacing: 0em;
      }

      .cls-2, .cls-3 {
        fill: #00a14b;
      }

      .cls-4 {
        font-size: 35px;
      }

      .cls-4, .cls-5, .cls-6, .cls-7 {
        fill: #231f20;
      }

      .cls-8 {
        fill: #2e3192;
      }

      .cls-5 {
        font-family: MonotypeCorsiva, 'Monotype Corsiva';
        font-size: 30px;
      }

      .cls-9 {
        font-family: Cambria-BoldItalic, Cambria;
        font-style: italic;
        font-weight: 700;
      }

      .cls-6 {
        letter-spacing: -.03em;
      }

      .cls-10 {
        fill: #7f3f98;
      }

      .cls-11 {
        fill: #ed1c24;
      }

      .cls-12 {
        fill: none;
        stroke: #231f20;
        stroke-miterlimit: 10;
        stroke-width: .5px;
      }
    </style>
  </defs>
  <text class="cls-9" transform="translate(311.71 358.32)"><tspan class="cls-4"><tspan x="0" y="0">Type 4 → 3</tspan></tspan><tspan class="cls-1"><tspan class="cls-3" x="-19.77" y="30">Dash</tspan><tspan class="cls-10" x="36.99" y="30"> </tspan><tspan class="cls-7" x="42.5" y="30">→ </tspan><tspan class="cls-2" x="68.95" y="30">Cr</tspan><tspan class="cls-3" x="93.66" y="30">oss</tspan><tspan class="cls-6" x="129.28" y="30">-</tspan><tspan class="cls-10" x="136.67" y="30">Shift</tspan></tspan></text>
  <text class="cls-9" transform="translate(311.71 37.53)"><tspan class="cls-4"><tspan x="0" y="0">Type 3 → 4</tspan></tspan><tspan class="cls-1"><tspan class="cls-3" x="-19.77" y="30">Dash</tspan><tspan class="cls-10" x="36.99" y="30"> </tspan><tspan class="cls-7" x="42.5" y="30">→ </tspan><tspan class="cls-2" x="68.95" y="30">Cr</tspan><tspan class="cls-3" x="93.66" y="30">oss</tspan><tspan class="cls-6" x="129.28" y="30">-</tspan><tspan class="cls-10" x="136.67" y="30">Shift</tspan></tspan></text>
  <text class="cls-5" transform="translate(528.4 92.43)"><tspan x="0" y="0">Reversals</tspan></text>
  <text class="cls-5" transform="translate(140.15 93.43)"><tspan x="0" y="0">Continuous</tspan></text>
  <g>
    <path class="cls-8" d="m75.56,236.88l2.65,2.65s1.08-1.05.47-1.87c-.68-.94-4.06-3.95-4.06-3.95,0,0-3.23,2.77-4.09,3.95-.59.82.5,1.87.5,1.87l2.61-2.65v46.81c0,.18-.06.3-.31.3-6.55,0-19.39-2.35-19.39-19.75,0-1.61-1.81-1.66-1.81,0,0,15.57,9.63,21.53,21.2,21.69.15,0,.3.11.3.26v3.03c0,.54.43.97.96.97s.96-.43.96-.97v-52.34Z"/>
    <path class="cls-11" d="m284.08,533.06h-.13c-.4,0-.72.33-.72.72v3.1s-42.81,0-42.81,0l2.58-2.62s-1.05-1.09-1.87-.5c-1.18.86-3.95,4.09-3.95,4.09,0,0,3.01,3.38,3.95,4.06.82.61,1.87-.47,1.87-.47l-2.72-2.65h42.95v3.11c0,.4.32.73.72.73h.13c.4,0,.73-.33.73-.73v-8.12c0-.39-.33-.72-.73-.72Z"/>
    <path class="cls-8" d="m255.4,468.53v-53.54c-.01-1.55-1.92-1.54-1.92,0v47.97c0,.18-.15.34-.34.33-16.46-.11-19.35-11.16-19.25-19.36l2.68,2.69s1.11-1.08.5-1.91c-.85-1.17-4.13-3.9-4.13-3.9,0,0-3.42,2.75-4.14,3.9-.53.87.5,1.91.5,1.91l2.6-2.69c-.48,14.62,9.69,21.45,21.58,21.54,0,1.92,0,3.06,0,3.06,0,1.55,1.92,1.54,1.92,0Z"/>
    <path class="cls-8" d="m256.26,578.79v-53.54c-.01-1.55-1.92-1.54-1.92,0v47.97c0,.18-.15.34-.34.33-16.46-.11-19.35-11.16-19.25-19.36l2.68,2.69s1.11-1.08.5-1.91c-.85-1.17-4.13-3.9-4.13-3.9,0,0-3.42,2.75-4.14,3.9-.53.87.5,1.91.5,1.91l2.6-2.69c-.48,14.62,9.69,21.45,21.58,21.54v3.06c0,1.55,1.92,1.54,1.92,0Z"/>
    <path class="cls-8" d="m76.01,579.2v-53.54c-.01-1.55-1.92-1.54-1.92,0v47.97c0,.18-.15.34-.34.33-16.46-.11-19.35-11.16-19.25-19.36l2.68,2.69s1.11-1.08.5-1.91c-.85-1.17-4.13-3.9-4.13-3.9,0,0-3.42,2.75-4.14,3.9-.53.87.5,1.91.5,1.91l2.6-2.69c-.48,14.62,9.69,21.45,21.58,21.54v3.06c0,1.55,1.92,1.54,1.92,0Z"/>
    <path class="cls-8" d="m76.01,467.46v-53.54c-.01-1.55-1.92-1.54-1.92,0v47.97c0,.18-.15.34-.34.33-16.46-.11-19.35-11.16-19.25-19.36l2.68,2.69s1.11-1.08.5-1.91c-.85-1.17-4.13-3.9-4.13-3.9,0,0-3.42,2.75-4.14,3.9-.53.87.5,1.91.5,1.91l2.6-2.69c-.48,14.62,9.69,21.45,21.58,21.54v3.06c0,1.55,1.92,1.54,1.92,0Z"/>
    <path class="cls-8" d="m423.27,261.59c.51,0,.83.31.83.7v3.1c3.56,0,32.06,0,32.06,0l-2.58-2.62s1.05-1.09,1.87-.5c1.18.86,3.95,4.09,3.95,4.09,0,0-3.01,3.38-3.95,4.06-.82.61-1.87-.47-1.87-.47l2.72-2.65s-29.73.01-32.2.01v1.7c1.81,0,27.07-.01,27.07-.01.54,0,.97.43.97.96,0,.53-.43.96-.97.96,0,0-24.18,0-27.07,0v3.1c0,.4-.28.73-.83.73s-.75-.33-.75-.73v-11.73c0-.39.24-.7.75-.7Z"/>
    <path class="cls-8" d="m638.67,261.59c-.51,0-.83.31-.83.7v3.1h-32.06l2.58-2.62s-1.05-1.09-1.87-.5c-1.18.86-3.95,4.09-3.95,4.09,0,0,3.01,3.38,3.95,4.06.82.61,1.87-.47,1.87-.47l-2.72-2.65s29.73.01,32.2.01v1.7c-1.81,0-27.07-.01-27.07-.01-.54,0-.97.43-.97.96s.43.96.97.96h27.07v3.1c0,.4.28.73.83.73s.75-.33.75-.73v-11.73c0-.39-.24-.7-.75-.7Z"/>
    <path class="cls-8" d="m513.3,244.14c.51,0,.83.31.83.7v3.1c3.56,0,32.06,0,32.06,0l-2.58-2.62s1.05-1.09,1.87-.5c1.18.86,3.95,4.09,3.95,4.09,0,0-3.01,3.38-3.95,4.06-.82.61-1.87-.47-1.87-.47l2.72-2.65s-29.73.01-32.2.01v1.7c1.81,0,27.07-.01,27.07-.01.54,0,.97.43.97.96,0,.53-.43.96-.97.96,0,0-24.18,0-27.07,0v3.1c0,.4-.28.73-.83.73s-.75-.33-.75-.73v-11.73c0-.39.24-.7.75-.7Z"/>
    <path class="cls-8" d="m728.64,244.14c-.51,0-.83.31-.83.7v3.1h-32.06l2.58-2.62s-1.05-1.09-1.87-.5c-1.18.86-3.95,4.09-3.95,4.09,0,0,3.01,3.38,3.95,4.06.82.61,1.87-.47,1.87-.47l-2.72-2.65s29.73.01,32.2.01v1.7c-1.81,0-27.07-.01-27.07-.01-.54,0-.97.43-.97.96s.43.96.97.96h27.07v3.1c0,.4.28.73.83.73s.75-.33.75-.73v-11.73c0-.39-.24-.7-.75-.7Z"/>
    <path class="cls-8" d="m694.96,131.43c0,.51.31.83.7.83h3.1v32.06s-2.62-2.58-2.62-2.58c0,0-1.09,1.05-.5,1.87.86,1.18,4.09,3.95,4.09,3.95,0,0,3.38-3.01,4.06-3.95.61-.82-.47-1.87-.47-1.87l-2.65,2.72s.01-29.73.01-32.2h1.7c0,1.81-.01,27.07-.01,27.07,0,.54.43.97.96.97s.96-.43.96-.97c0,0,0-24.18,0-27.07h3.1c.4,0,.73-.28.73-.83,0-.55-.33-.75-.73-.75h-11.73c-.39,0-.7.24-.7.75Z"/>
    <path class="cls-8" d="m604.93,131.43c0,.51.31.83.7.83h3.1v32.06s-2.62-2.58-2.62-2.58c0,0-1.09,1.05-.5,1.87.86,1.18,4.09,3.95,4.09,3.95,0,0,3.38-3.01,4.06-3.95.61-.82-.47-1.87-.47-1.87l-2.65,2.72s.01-29.73.01-32.2h1.7c0,1.81-.01,27.07-.01,27.07,0,.54.43.97.96.97s.96-.43.96-.97c0,0,0-24.18,0-27.07h3.1c.4,0,.73-.28.73-.83,0-.55-.33-.75-.73-.75h-11.73c-.39,0-.7.24-.7.75Z"/>
    <path class="cls-8" d="m526.92,165.39c0-.51-.31-.83-.7-.83h-3.1v-32.06s2.62,2.58,2.62,2.58c0,0,1.09-1.05.5-1.87-.86-1.18-4.09-3.95-4.09-3.95,0,0-3.38,3.01-4.06,3.95-.61.82.47,1.87.47,1.87l2.65-2.72s-.01,29.73-.01,32.2h-1.7c0-1.81.01-27.07.01-27.07,0-.54-.43-.97-.96-.97-.53,0-.96.43-.96.97v27.07s-3.1,0-3.1,0c-.4,0-.73.28-.73.83,0,.55.33.75.73.75h11.73c.39,0,.7-.24.7-.75Z"/>
    <path class="cls-8" d="m437.17,165.39c0-.51-.31-.83-.7-.83h-3.1c0-3.56,0-32.06,0-32.06l2.62,2.58s1.09-1.05.5-1.87c-.86-1.18-4.09-3.95-4.09-3.95,0,0-3.38,3.01-4.06,3.95-.61.82.47,1.87.47,1.87l2.65-2.72s-.01,29.73-.01,32.2h-1.7c0-1.81.01-27.07.01-27.07,0-.54-.43-.97-.96-.97-.53,0-.96.43-.96.97,0,0,0,24.18,0,27.07h-3.1c-.4,0-.73.28-.73.83s.33.75.73.75h11.73c.39,0,.7-.24.7-.75Z"/>
    <path class="cls-11" d="m273.87,269.44l2.72-2.65h-32.81c-.54.01-.97-.42-.97-.95s.43-.96.97-.96h32.67s-2.58-2.62-2.58-2.62c0,0,1.05-1.09,1.87-.5,1.18.86,3.95,4.09,3.95,4.09,0,0-3.01,3.38-3.95,4.06-.82.61-1.87-.47-1.87-.47Z"/>
    <path class="cls-11" d="m363.59,255.54l2.72-2.65h-32.81c-.54.01-.97-.42-.97-.95s.43-.96.97-.96h32.67s-2.58-2.62-2.58-2.62c0,0,1.05-1.09,1.87-.5,1.18.86,3.95,4.09,3.95,4.09,0,0-3.01,3.38-3.95,4.06-.82.61-1.87-.47-1.87-.47Z"/>
    <path class="cls-11" d="m68.37,262.36l-2.72,2.65h32.81c.54-.01.97.42.97.95s-.43.96-.97.96h-32.67s2.58,2.62,2.58,2.62c0,0-1.05,1.09-1.87.5-1.18-.86-3.95-4.09-3.95-4.09,0,0,3.01-3.38,3.95-4.06.82-.61,1.87.47,1.87.47Z"/>
    <path class="cls-8" d="m357.67,233.13s3.23,2.77,4.09,3.95c.59.82-.5,1.87-.5,1.87l-2.61-2.57v36.55c.61-8.97,7.4-9.68,20.59-9.68,1.45,0,1.43,2.08-.03,2.07-18.08-.15-19.28,1.12-19.28,18.08,0,.16-.01.3-.04.44h2.72c.65,0,1.16.4,1.16.91s-.51.91-1.16.91h-8.49c-.65,0-1.16-.41-1.16-.91s.51-.91,1.16-.91h2.65c-.03-.13-.04-.27-.04-.42,0-1.6,0-47.04,0-47.04l-2.65,2.57s-1.08-1.05-.47-1.87c.68-.94,4.06-3.95,4.06-3.95Z"/>
    <path class="cls-8" d="m178.57,235s3.23,2.77,4.09,3.95c.59.82-.5,1.87-.5,1.87l-2.61-2.57v36.55c.61-8.97,7.4-9.68,20.59-9.68,1.45,0,1.43,2.08-.03,2.07-18.08-.15-19.28,1.12-19.28,18.08,0,.16-.01.3-.04.44h2.72c.65,0,1.16.4,1.16.91,0,.5-.51.91-1.16.91h-8.49c-.65,0-1.16-.41-1.16-.91,0-.51.51-.91,1.16-.91h2.65c-.03-.13-.04-.27-.04-.42,0-1.6,0-47.04,0-47.04l-2.65,2.57s-1.08-1.05-.47-1.87c.68-.94,4.06-3.95,4.06-3.95Z"/>
    <path class="cls-8" d="m343.53,172.44s-3.23-2.77-4.09-3.95c-.59-.82.5-1.87.5-1.87l2.61,2.57v-36.55c-.61,8.97-7.4,9.68-20.59,9.68-1.45,0-1.43-2.08.03-2.07,18.08.15,19.28-1.12,19.28-18.08,0-.16.01-.3.04-.44h-2.72c-.65,0-1.16-.4-1.16-.91,0-.5.51-.91,1.16-.91h8.49c.65,0,1.16.41,1.16.91s-.51.91-1.16.91h-2.65c.03.13.04.27.04.42,0,1.6,0,47.04,0,47.04l2.65-2.57s1.08,1.05.47,1.87c-.68.94-4.06,3.95-4.06,3.95Z"/>
    <path class="cls-8" d="m163.14,176.43s-3.23-2.77-4.09-3.95c-.59-.82.5-1.87.5-1.87l2.61,2.57v-36.55c-.61,8.97-7.4,9.68-20.59,9.68-1.45,0-1.43-2.08.03-2.07,18.08.15,19.28-1.12,19.28-18.08,0-.16.01-.3.04-.44h-2.72c-.65,0-1.16-.4-1.16-.91,0-.5.51-.91,1.16-.91h8.49c.65,0,1.16.41,1.16.91,0,.51-.51.91-1.16.91h-2.65c.03.13.04.27.04.42,0,1.6,0,47.04,0,47.04l2.65-2.57s1.08,1.05.47,1.87c-.68.94-4.06,3.95-4.06,3.95Z"/>
    <path class="cls-11" d="m273.37,136.56l-2.65-2.72v32.81c.01.54-.42.97-.95.97s-.96-.43-.96-.97v-32.67s-2.62,2.58-2.62,2.58c0,0-1.09-1.05-.5-1.87.86-1.18,4.09-3.95,4.09-3.95,0,0,3.38,3.01,4.06,3.95.61.82-.47,1.87-.47,1.87Z"/>
    <path class="cls-11" d="m361.64,136.56l-2.65-2.72v32.81c.01.54-.42.97-.95.97s-.96-.43-.96-.97v-32.67s-2.62,2.58-2.62,2.58c0,0-1.09-1.05-.5-1.87.86-1.18,4.09-3.95,4.09-3.95,0,0,3.38,3.01,4.06,3.95.61.82-.47,1.87-.47,1.87Z"/>
    <path class="cls-11" d="m86.44,161.8l2.65,2.72v-32.81c-.01-.54.42-.97.95-.97.53,0,.96.43.96.97v32.67s2.62-2.58,2.62-2.58c0,0,1.09,1.05.5,1.87-.86,1.18-4.09,3.95-4.09,3.95,0,0-3.38-3.01-4.06-3.95-.61-.82.47-1.87.47-1.87Z"/>
    <path class="cls-11" d="m176.83,161.8l2.65,2.72v-32.81c-.01-.54.42-.97.95-.97.53,0,.96.43.96.97v32.67s2.62-2.58,2.62-2.58c0,0,1.09,1.05.5,1.87-.86,1.18-4.09,3.95-4.09,3.95,0,0-3.38-3.01-4.06-3.95-.61-.82.47-1.87.47-1.87Z"/>
    <path class="cls-11" d="m559.9,144.86c-19.4,0-21.27-1.3-21.27-20.15l-2.66,2.72s-1.1-1.04-.5-1.87c.85-1.18,4.08-3.95,4.08-3.95,0,0,3.38,3.01,4.07,3.95.6.82-.48,1.87-.48,1.87l-2.56-2.72c0,17.27,1,18.08,19.29,18.08,1.45,0,1.48,2.07.03,2.07Z"/>
    <path class="cls-11" d="m739.21,144.86c-19.4,0-21.27-1.3-21.27-20.15l-2.66,2.72s-1.1-1.04-.5-1.87c.85-1.18,4.08-3.95,4.08-3.95,0,0,3.38,3.01,4.07,3.95.6.82-.48,1.87-.48,1.87l-2.56-2.72c0,17.27,1,18.08,19.29,18.08,1.45,0,1.48,2.07.03,2.07Z"/>
    <path class="cls-11" d="m558.09,264.01c-19.4,0-21.27,1.3-21.27,20.15l-2.66-2.72s-1.1,1.04-.5,1.87c.85,1.18,4.08,3.95,4.08,3.95,0,0,3.38-3.01,4.07-3.95.6-.82-.48-1.87-.48-1.87l-2.56,2.72c0-17.27,1-18.08,19.29-18.08,1.45,0,1.48-2.07.03-2.07Z"/>
    <path class="cls-11" d="m470.39,143.15c0-11.89-9.57-22.68-21.38-22.72l2.65-2.41s-1.01-1.11-1.85-.54c-.95.65-4.08,3.93-4.08,3.93,0,0,2.66,3.32,3.8,4.21.81.63,1.89-.43,1.89-.43l-2.61-2.78c8.93.03,18.79,7.32,19.5,20.74.08,1.57,2.09,1.62,2.08,0Z"/>
    <path class="cls-11" d="m649.65,143.15c0-11.89-9.57-22.68-21.38-22.72l2.65-2.41s-1.01-1.11-1.85-.54c-.95.65-4.08,3.93-4.08,3.93,0,0,2.66,3.32,3.8,4.21.81.63,1.89-.43,1.89-.43l-2.61-2.78c8.93.03,18.79,7.32,19.5,20.74.08,1.57,2.09,1.62,2.08,0Z"/>
    <path class="cls-11" d="m469.25,263.82c0,11.89-9.57,22.68-21.38,22.72l2.65,2.41s-1.01,1.11-1.85.54c-.95-.65-4.08-3.93-4.08-3.93,0,0,2.66-3.32,3.8-4.21.81-.63,1.89.43,1.89.43l-2.61,2.78c8.93-.03,18.79-7.32,19.5-20.74.08-1.57,2.09-1.62,2.08,0Z"/>
    <path class="cls-11" d="m738.42,264.01c-19.4,0-21.27,1.3-21.27,20.15l-2.66-2.72s-1.1,1.04-.5,1.87c.85,1.18,4.08,3.95,4.08,3.95,0,0,3.38-3.01,4.07-3.95.6-.82-.48-1.87-.48-1.87l-2.56,2.72c0-17.27,1-18.08,19.29-18.08,1.45,0,1.48-2.07.03-2.07Z"/>
    <path class="cls-11" d="m649.58,263.82c0,11.89-9.57,22.68-21.38,22.72l2.65,2.41s-1.01,1.11-1.85.54c-.95-.65-4.08-3.93-4.08-3.93,0,0,2.66-3.32,3.8-4.21.81-.63,1.89.43,1.89.43l-2.61,2.78c8.93-.03,18.79-7.32,19.5-20.74.08-1.57,2.09-1.62,2.08,0Z"/>
    <path class="cls-11" d="m266.36,413.84v.13c0,.4.33.72.72.72h3.1s0,42.81,0,42.81l-2.62-2.58s-1.09,1.05-.5,1.87c.86,1.18,4.09,3.95,4.09,3.95,0,0,3.38-3.01,4.06-3.95.61-.82-.47-1.87-.47-1.87l-2.65,2.72v-42.95h3.11c.4,0,.73-.32.73-.72v-.13c0-.4-.33-.73-.73-.73h-8.12c-.39,0-.72.33-.72.73Z"/>
    <path class="cls-11" d="m356.36,413.84v.13c0,.4.33.72.72.72h3.1s0,42.81,0,42.81l-2.62-2.58s-1.09,1.05-.5,1.87c.86,1.18,4.09,3.95,4.09,3.95,0,0,3.38-3.01,4.06-3.95.61-.82-.47-1.87-.47-1.87l-2.65,2.72v-42.95h3.11c.4,0,.73-.32.73-.72v-.13c0-.4-.33-.73-.73-.73h-8.12c-.39,0-.72.33-.72.73Z"/>
    <path class="cls-11" d="m85.47,460.01v-.13c0-.4.33-.72.72-.72h3.1s0-42.81,0-42.81l-2.62,2.58s-1.09-1.05-.5-1.87c.86-1.18,4.09-3.95,4.09-3.95,0,0,3.38,3.01,4.06,3.95.61.82-.47,1.87-.47,1.87l-2.65-2.72v42.95h3.11c.4,0,.73.32.73.72v.13c0,.4-.33.73-.73.73h-8.12c-.39,0-.72-.33-.72-.73Z"/>
    <path class="cls-11" d="m175.63,460.01v-.13c0-.4.33-.72.72-.72h3.1s0-42.81,0-42.81l-2.62,2.58s-1.09-1.05-.5-1.87c.86-1.18,4.09-3.95,4.09-3.95,0,0,3.38,3.01,4.06,3.95.61.82-.47,1.87-.47,1.87l-2.65-2.72v42.95h3.11c.4,0,.73.32.73.72v.13c0,.4-.33.73-.73.73h-8.12c-.39,0-.72-.33-.72-.73Z"/>
    <path class="cls-11" d="m374.08,533.06h-.13c-.4,0-.72.33-.72.72v3.1s-42.81,0-42.81,0l2.58-2.62s-1.05-1.09-1.87-.5c-1.18.86-3.95,4.09-3.95,4.09,0,0,3.01,3.38,3.95,4.06.82.61,1.87-.47,1.87-.47l-2.72-2.65h42.95v3.11c0,.4.32.73.72.73h.13c.4,0,.73-.33.73-.73v-8.12c0-.39-.33-.72-.73-.72Z"/>
    <path class="cls-11" d="m57.92,534.04h.13c.4,0,.72.33.72.72v3.1s42.81,0,42.81,0l-2.58-2.62s1.05-1.09,1.87-.5c1.18.86,3.95,4.09,3.95,4.09,0,0-3.01,3.38-3.95,4.06-.82.61-1.87-.47-1.87-.47l2.72-2.65h-42.95v3.11c0,.4-.32.73-.72.73h-.13c-.4,0-.73-.33-.73-.73v-8.12c0-.39.33-.72.73-.72Z"/>
    <path class="cls-11" d="m147.85,533.77h.13c.4,0,.72.33.72.72v3.1s42.81,0,42.81,0l-2.58-2.62s1.05-1.09,1.87-.5c1.18.86,3.95,4.09,3.95,4.09,0,0-3.01,3.38-3.95,4.06-.82.61-1.87-.47-1.87-.47l2.72-2.65h-42.95v3.11c0,.4-.32.73-.72.73h-.13c-.4,0-.73-.33-.73-.73v-8.12c0-.39.33-.72.73-.72Z"/>
    <g>
      <g>
        <path class="cls-7" d="m93.29,190.37c-.5,2.51-1.03,3.37-3.39,3.82-.04,0-.07.04-.08.07v3.6c0,.22-.1.44-.25.6s-.36.24-.59.24-.43-.09-.61-.24c-.16-.16-.24-.38-.24-.6v-3.6s-.05-.06-.09-.07c-2.35-.45-2.88-1.31-3.38-3.82-.08-.36-.04-.65.12-.83.17-.21.42-.24.56-.24.24,0,.43.22.56.45.13.23.2.47.21.54.25,1.71.73,2.29,1.85,2.29h.09s.07-.02.09-.06v-3.05c.12-.28.2-.48.31-.6.07-.06.15-.1.23-.13.05-.02.1-.03.14-.04.11-.02.24-.02.33,0,.05,0,.1.02.15.04.07,0,.15.06.22.13.12.12.21.31.3.6v.03s.02.03.02.05v2.94s0,.02,0,.04c0,.03.05.05.09.05,1.2.04,1.68-.54,1.93-2.29.03-.13.28-.99.76-.99h0c.14,0,.39.03.56.24.15.19.19.47.12.83Z"/>
        <path class="cls-7" d="m75.97,188.7c-.46-.06-.96.28-1.19,1.14-.42,1.54-.92,3.7-1.44,5.63-1.11-2.72-1.86-4.39-2.5-4.38-.01,0-.02,0-.03.01-.01-.01-.02-.01-.03-.01-.64-.01-1.39,1.65-2.5,4.38-.51-1.93-1.02-4.09-1.44-5.63-.24-.86-.73-1.2-1.19-1.14-.59.07-.98.49-.74,1.25.25.81,1.84,6.07,2.3,7.72.47,1.65,1.59.9,1.8.49.21-.41,1.36-3.67,1.8-4.59.44.92,1.59,4.18,1.8,4.59.21.41,1.33,1.16,1.8-.49.46-1.64,2.05-6.9,2.3-7.72.24-.76-.15-1.18-.74-1.25Z"/>
        <rect class="cls-7" x="76.97" y="192.74" width="6.95" height="1.9" rx=".95" ry=".95"/>
      </g>
      <g>
        <path class="cls-7" d="m256,189.94l-4.37,8.3c-.15.29-.45.46-.75.46-.13,0-.26-.04-.39-.1-.2-.11-.35-.28-.42-.5-.07-.21-.05-.45.06-.65l1.88-3.58-2.53-3.62c-.12-.11-.2-.27-.24-.47-.05-.25.03-.53.2-.71.15-.17.35-.27.58-.28.22,0,.45.07.61.21l2.2,3.29,1.65-3.14c.12-.2.29-.35.51-.42.22-.07.45-.04.65.07.22.12.38.33.43.59.03.19,0,.38-.08.55Z"/>
        <rect class="cls-7" x="256.52" y="192.74" width="6.95" height="1.9" rx=".95" ry=".95"/>
        <path d="m272.1,191.48c-.71-.51-1.55-.82-2.45-.91v-1.11c0-.42-.34-.76-.77-.76h-.12c-.43,0-.77.34-.77.76v1.11c-.9.09-1.75.4-2.45.91-.71.48-1.09,1.08-1.14,1.75-.06.85.42,1.62.85,2.01.7.66,1.64,1.05,2.74,1.14v1.55c0,.42.34.76.77.76h.12c.43,0,.77-.34.77-.76v-1.55c1.1-.09,2.04-.48,2.74-1.14.43-.39.91-1.17.85-2.01-.05-.68-.43-1.26-1.14-1.75Zm-2.45,1.84c0-.41,0-.75.04-1.08,0-.11.1-.2.21-.21h.07c.8,0,1.4.28,1.68.79.25.45.22,1.01-.09,1.45-.34.52-.97.77-1.72.69-.1,0-.18-.1-.18-.21,0-.27,0-.56,0-.85,0-.2,0-.39,0-.59Zm-3.66-.49c.27-.51.87-.79,1.67-.79h.07c.12,0,.21.1.22.21.03.33.04.69.04,1.08,0,.2,0,.4,0,.6,0,.28,0,.57,0,.84,0,.11-.08.2-.18.21-.75.09-1.37-.17-1.72-.69-.3-.44-.33-1-.09-1.45Z"/>
      </g>
      <g>
        <path class="cls-7" d="m184,190.37c-.5,2.51-1.03,3.37-3.39,3.82-.04,0-.07.04-.08.07v3.6c0,.22-.1.44-.25.6s-.36.24-.59.24-.43-.09-.61-.24c-.16-.16-.24-.38-.24-.6v-3.6s-.05-.06-.09-.07c-2.35-.45-2.88-1.31-3.38-3.82-.08-.36-.04-.65.12-.83.17-.21.42-.24.56-.24.24,0,.43.22.56.45.13.23.2.47.21.54.25,1.71.73,2.29,1.85,2.29h.09s.07-.02.09-.06v-3.05c.12-.28.2-.48.31-.6.07-.06.15-.1.23-.13.05-.02.1-.03.14-.04.11-.02.24-.02.33,0,.05,0,.1.02.15.04.07,0,.15.06.22.13.12.12.21.31.3.6v.03s.02.03.02.05v2.94s0,.02,0,.04c0,.03.05.05.09.05,1.2.04,1.68-.54,1.93-2.29.03-.13.28-.99.76-.99h0c.14,0,.39.03.56.24.15.19.19.47.12.83Z"/>
        <path class="cls-7" d="m166.22,197.2c.16.19.21.44.19.68-.03.24-.16.46-.34.61-.4.3-.98.23-1.3-.17l-2.45-3.14-2.45,3.14c-.18.23-.45.36-.72.36-.19,0-.4-.07-.57-.19-.19-.15-.32-.37-.35-.61-.03-.24.03-.49.19-.68l2.73-3.51-2.73-3.51c-.13-.17-.19-.36-.19-.57,0-.28.14-.56.36-.73.19-.15.42-.21.67-.19.24.03.47.16.61.35l2.45,3.14,2.44-3.14c.33-.41.91-.48,1.31-.16.22.17.35.43.35.72,0,.2-.07.4-.19.57l-2.73,3.51,2.73,3.51Z"/>
        <rect class="cls-7" x="167.09" y="192.74" width="6.95" height="1.9" rx=".95" ry=".95"/>
      </g>
      <g>
        <path class="cls-7" d="m344.11,190.43c-1.86,0-2.27,0-3.51,0-.46,0-1.11-.2-1.11-.85,0-.57.42-.88,1.07-.88,4.93,0,5.05-.05,5.58.38.28.22.43.73.15,1.14-1.71,2.48-4.64,6.6-4.64,6.6,0,0,2.47-.05,3.73-.05,1.57,0,1.46,1.88.13,1.88-8.37,0-8.83,1.14-1.4-8.22Z"/>
        <rect class="cls-7" x="347.66" y="192.74" width="6.95" height="1.9" rx=".95" ry=".95"/>
        <path d="m363.42,191.48c-.71-.51-1.55-.82-2.45-.91v-1.11c0-.42-.34-.76-.77-.76h-.12c-.43,0-.77.34-.77.76v1.11c-.9.09-1.75.4-2.45.91-.71.48-1.09,1.08-1.14,1.75-.06.85.42,1.62.85,2.01.7.66,1.64,1.05,2.74,1.14v1.55c0,.42.34.76.77.76h.12c.43,0,.77-.34.77-.76v-1.55c1.1-.09,2.04-.48,2.74-1.14.43-.39.91-1.17.85-2.01-.05-.68-.43-1.26-1.14-1.75Zm-2.45,1.84c0-.41,0-.75.04-1.08,0-.11.1-.2.21-.21h.07c.8,0,1.4.28,1.68.79.25.45.22,1.01-.09,1.45-.34.52-.97.77-1.72.69-.1,0-.18-.1-.18-.21,0-.27,0-.56,0-.85,0-.2,0-.39,0-.59Zm-3.66-.49c.27-.51.87-.79,1.67-.79h.07c.12,0,.21.1.22.21.03.33.04.69.04,1.08,0,.2,0,.4,0,.6,0,.28,0,.57,0,.84,0,.11-.08.2-.18.21-.75.09-1.37-.17-1.72-.69-.3-.44-.33-1-.09-1.45Z"/>
      </g>
      <g>
        <rect class="cls-7" x="256.7" y="302.82" width="6.95" height="1.9" rx=".95" ry=".95"/>
        <path class="cls-7" d="m265,307.42c.06-.29,1.97-5.54,3.02-7.94.32-.73.61-.72.74-.72s.42,0,.74.72c1.05,2.4,2.96,7.64,3.02,7.94.23,1-.08,1.16-.44,1.3-.28.13-.86.02-1.12-.7-.16-.42-2.2-5.86-2.2-5.86,0,0-2.05,5.44-2.2,5.86-.25.72-.83.82-1.12.7-.36-.15-.67-.3-.44-1.3Z"/>
        <path class="cls-7" d="m251.86,298.77c-1.33,0-3.23,1.68-3.23,5,0,2.56,1.22,5,3.23,5s3.27-2.44,3.27-5c0-3.48-1.94-5-3.27-5Zm.01,1.37c.96,0,1.64,1.13,1.7,1.93.02.3,0,.81-.55.81h-2.33c-.46,0-.51-.5-.5-.76.07-.8.81-1.98,1.69-1.98Zm0,7.26c-1.08,0-1.72-1.28-1.79-2.08-.01-.25,0-.76.5-.76h2.53c.56,0,.58.5.55.81-.06.8-.72,2.03-1.8,2.03Z"/>
      </g>
      <g>
        <path class="cls-7" d="m74.49,302.96c.48.44.43.65.44.96s-.23.47-.53.71c-1.75,1.43-2.78,2.44-2.78,2.44,0,0,.42.05,4.42.05.4,0,.79.33.79.78,0,.48-.22.88-.64.88-2.35,0-4.02-.05-5.97-.05-.79,0-1.34-.19-1.52-.57-.17-.36-.12-.9.55-1.52,1.91-1.72,3.47-2.88,3.47-2.88,0,0-2.17-1.97-3.75-3.56-.33-.33-.43-.62-.31-.85.11-.2.55-.57.92-.57h6.71c.74,0,.77,1.31,0,1.31-3.37,0-5.2.02-5.2.02"/>
        <rect class="cls-7" x="77.64" y="302.82" width="6.95" height="1.9" rx=".95" ry=".95"/>
        <path class="cls-7" d="m85.3,307.42c.06-.29,1.97-5.54,3.02-7.94.32-.73.61-.72.74-.72s.42,0,.74.72c1.05,2.4,2.96,7.64,3.02,7.94.23,1-.08,1.16-.44,1.3-.28.13-.86.02-1.12-.7-.16-.42-2.2-5.86-2.2-5.86,0,0-2.05,5.44-2.2,5.86-.25.72-.83.82-1.12.7-.36-.15-.67-.3-.44-1.3Z"/>
      </g>
      <g>
        <rect class="cls-7" x="349.48" y="302.82" width="6.95" height="1.9" rx=".95" ry=".95"/>
        <path class="cls-7" d="m356.76,307.42c.06-.29,1.97-5.54,3.02-7.94.32-.73.61-.72.74-.72s.42,0,.74.72c1.05,2.4,2.96,7.64,3.02,7.94.23,1-.08,1.16-.44,1.3-.28.13-.86.02-1.12-.7-.16-.42-2.2-5.86-2.2-5.86,0,0-2.05,5.44-2.2,5.86-.25.72-.83.82-1.12.7-.36-.15-.67-.3-.44-1.3Z"/>
        <path class="cls-7" d="m348.54,308.77h-3.54c-.32,0-.53-.32-.41-.62,2.67-6.29.99-7.71-1.08-7.85-.04,0-.08,0-.12,0h-.02s-.09,0-.13,0c-.04,0-.08,0-.12,0-2.07.14-3.75,1.56-1.08,7.85.12.29-.09.62-.41.62h-3.54c-.14,0-.66-1.27.12-1.73.69-.41.99.09,1.81.11-2.24-4.96.04-7.96,2.78-8.36.08-.02.94-.02,1.02,0,2.74.41,5.02,3.4,2.78,8.36.82-.02,1.12-.51,1.81-.11.78.46.26,1.73.12,1.73Z"/>
      </g>
      <g>
        <path class="cls-7" d="m166.3,306.91c-.93-2.27-1.86-4.39-2.21-5.2-.38-.84-.67-1.52-.74-1.72-.32-.87-.6-1.18-1.12-1.22-.5.04-.79.34-1.11,1.22-.07.2-.36.87-.73,1.72-.73,1.66-1.56,3.6-2.22,5.2-.28.71-.29,1.21-.03,1.52.19.23.49.34.9.34h6.43c.41,0,.71-.12.9-.34.12-.15.18-.34.18-.58,0-.26-.07-.57-.22-.94Zm-1.67.34h-4.8c.17-.42.49-1.25.87-2.18.56-1.41,1.21-3.07,1.53-3.9.39.98,1.22,3.11,1.83,4.63l.57,1.44Z"/>
        <path class="cls-7" d="m176.33,307.42c.06-.29,1.97-5.54,3.02-7.94.32-.73.61-.72.74-.72s.42,0,.74.72c1.05,2.4,2.96,7.64,3.02,7.94.23,1-.08,1.16-.44,1.3-.28.13-.86.02-1.12-.7-.16-.42-2.2-5.86-2.2-5.86,0,0-2.05,5.44-2.2,5.86-.25.72-.83.82-1.12.7-.36-.15-.67-.3-.44-1.3Z"/>
        <rect class="cls-7" x="168.26" y="302.82" width="6.95" height="1.9" rx=".95" ry=".95"/>
      </g>
      <g>
        <path class="cls-7" d="m455.11,190.37c-.5,2.51-1.03,3.37-3.39,3.82-.04,0-.07.04-.08.07v3.6c0,.22-.1.44-.25.6s-.36.24-.59.24-.43-.09-.61-.24c-.16-.16-.24-.38-.24-.6v-3.6s-.05-.06-.09-.07c-2.35-.45-2.88-1.31-3.38-3.82-.08-.36-.04-.65.12-.83.17-.21.42-.24.56-.24.24,0,.43.22.56.45.13.23.2.47.21.54.25,1.71.73,2.29,1.85,2.29h.09s.07-.02.09-.06v-3.05c.12-.28.2-.48.31-.6.07-.06.15-.1.23-.13.05-.02.1-.03.14-.04.11-.02.24-.02.33,0,.05,0,.1.02.15.04.07,0,.15.06.22.13.12.12.21.31.3.6v.03s.02.03.02.05v2.94s0,.02,0,.04c0,.03.05.05.09.05,1.2.04,1.68-.54,1.93-2.29.03-.13.28-.99.76-.99h0c.14,0,.39.03.56.24.15.19.19.47.12.83Z"/>
        <path class="cls-7" d="m437.75,188.7c-.46-.06-.96.28-1.19,1.14-.42,1.54-.92,3.7-1.44,5.63-1.11-2.72-1.86-4.39-2.5-4.38-.01,0-.02,0-.03.01-.01-.01-.02-.01-.03-.01-.64-.01-1.39,1.65-2.5,4.38-.51-1.93-1.02-4.09-1.44-5.63-.24-.86-.73-1.2-1.19-1.14-.59.07-.98.49-.74,1.25.25.81,1.84,6.07,2.3,7.72.47,1.65,1.59.9,1.8.49.21-.41,1.36-3.67,1.8-4.59.44.92,1.59,4.18,1.8,4.59.21.41,1.33,1.16,1.8-.49.46-1.64,2.05-6.9,2.3-7.72.24-.76-.15-1.18-.74-1.25Z"/>
        <rect class="cls-7" x="438.91" y="192.74" width="6.95" height="1.9" rx=".95" ry=".95"/>
      </g>
      <g>
        <path class="cls-7" d="m615.69,189.94l-4.37,8.3c-.15.29-.45.46-.75.46-.13,0-.26-.04-.39-.1-.2-.11-.35-.28-.42-.5-.07-.21-.05-.45.06-.65l1.88-3.58-2.53-3.62c-.12-.11-.2-.27-.24-.47-.05-.25.03-.53.2-.71.15-.17.35-.27.58-.28.22,0,.45.07.61.21l2.2,3.29,1.65-3.14c.12-.2.29-.35.51-.42.22-.07.45-.04.65.07.22.12.38.33.43.59.03.19,0,.38-.08.55Z"/>
        <rect class="cls-7" x="615.78" y="192.74" width="6.95" height="1.9" rx=".95" ry=".95"/>
        <path d="m631.87,191.48c-.71-.51-1.55-.82-2.45-.91v-1.11c0-.42-.34-.76-.77-.76h-.12c-.43,0-.77.34-.77.76v1.11c-.9.09-1.75.4-2.45.91-.71.48-1.09,1.08-1.14,1.75-.06.85.42,1.62.85,2.01.7.66,1.64,1.05,2.74,1.14v1.55c0,.42.34.76.77.76h.12c.43,0,.77-.34.77-.76v-1.55c1.1-.09,2.04-.48,2.74-1.14.43-.39.91-1.17.85-2.01-.05-.68-.43-1.26-1.14-1.75Zm-2.45,1.84c0-.41,0-.75.04-1.08,0-.11.1-.2.21-.21h.07c.8,0,1.4.28,1.68.79.25.45.22,1.01-.09,1.45-.34.52-.97.77-1.72.69-.1,0-.18-.1-.18-.21,0-.27,0-.56,0-.85,0-.2,0-.39,0-.59Zm-3.66-.49c.27-.51.87-.79,1.67-.79h.07c.12,0,.21.1.22.21.03.33.04.69.04,1.08,0,.2,0,.4,0,.6,0,.28,0,.57,0,.84,0,.11-.08.2-.18.21-.75.09-1.37-.17-1.72-.69-.3-.44-.33-1-.09-1.45Z"/>
      </g>
      <g>
        <path class="cls-7" d="m543.19,190.37c-.5,2.51-1.03,3.37-3.39,3.82-.04,0-.07.04-.08.07v3.6c0,.22-.1.44-.25.6s-.36.24-.59.24-.43-.09-.61-.24c-.16-.16-.24-.38-.24-.6v-3.6s-.05-.06-.09-.07c-2.35-.45-2.88-1.31-3.38-3.82-.08-.36-.04-.65.12-.83.17-.21.42-.24.56-.24.24,0,.43.22.56.45.13.23.2.47.21.54.25,1.71.73,2.29,1.85,2.29h.09s.07-.02.09-.06v-3.05c.12-.28.2-.48.31-.6.07-.06.15-.1.23-.13.05-.02.1-.03.14-.04.11-.02.24-.02.33,0,.05,0,.1.02.15.04.07,0,.15.06.22.13.12.12.21.31.3.6v.03s.02.03.02.05v2.94s0,.02,0,.04c0,.03.05.05.09.05,1.2.04,1.68-.54,1.93-2.29.03-.13.28-.99.76-.99h0c.14,0,.39.03.56.24.15.19.19.47.12.83Z"/>
        <path class="cls-7" d="m526.69,197.2c.16.19.21.44.19.68-.03.24-.16.46-.34.61-.4.3-.98.23-1.3-.17l-2.45-3.14-2.45,3.14c-.18.23-.45.36-.72.36-.19,0-.4-.07-.57-.19-.19-.15-.32-.37-.35-.61-.03-.24.03-.49.19-.68l2.73-3.51-2.73-3.51c-.13-.17-.19-.36-.19-.57,0-.28.14-.56.36-.73.19-.15.42-.21.67-.19.24.03.47.16.61.35l2.45,3.14,2.44-3.14c.33-.41.91-.48,1.31-.16.22.17.35.43.35.72,0,.2-.07.4-.19.57l-2.73,3.51,2.73,3.51Z"/>
        <rect class="cls-7" x="526.88" y="192.74" width="6.95" height="1.9" rx=".95" ry=".95"/>
      </g>
      <g>
        <path class="cls-7" d="m703.54,190.43c-1.86,0-2.27,0-3.51,0-.46,0-1.11-.2-1.11-.85,0-.57.42-.88,1.07-.88,4.93,0,5.05-.05,5.58.38.28.22.43.73.15,1.14-1.71,2.48-4.64,6.6-4.64,6.6,0,0,2.47-.05,3.73-.05,1.57,0,1.46,1.88.13,1.88-8.37,0-8.83,1.14-1.4-8.22Z"/>
        <rect class="cls-7" x="706.44" y="192.74" width="6.95" height="1.9" rx=".95" ry=".95"/>
        <path d="m722.48,191.48c-.71-.51-1.55-.82-2.45-.91v-1.11c0-.42-.34-.76-.77-.76h-.12c-.43,0-.77.34-.77.76v1.11c-.9.09-1.75.4-2.45.91-.71.48-1.09,1.08-1.14,1.75-.06.85.42,1.62.85,2.01.7.66,1.64,1.05,2.74,1.14v1.55c0,.42.34.76.77.76h.12c.43,0,.77-.34.77-.76v-1.55c1.1-.09,2.04-.48,2.74-1.14.43-.39.91-1.17.85-2.01-.05-.68-.43-1.26-1.14-1.75Zm-2.45,1.84c0-.41,0-.75.04-1.08,0-.11.1-.2.21-.21h.07c.8,0,1.4.28,1.68.79.25.45.22,1.01-.09,1.45-.34.52-.97.77-1.72.69-.1,0-.18-.1-.18-.21,0-.27,0-.56,0-.85,0-.2,0-.39,0-.59Zm-3.66-.49c.27-.51.87-.79,1.67-.79h.07c.12,0,.21.1.22.21.03.33.04.69.04,1.08,0,.2,0,.4,0,.6,0,.28,0,.57,0,.84,0,.11-.08.2-.18.21-.75.09-1.37-.17-1.72-.69-.3-.44-.33-1-.09-1.45Z"/>
      </g>
      <g>
        <rect class="cls-7" x="616.97" y="302.78" width="6.95" height="1.9" rx=".95" ry=".95"/>
        <path class="cls-7" d="m625.26,307.38c.06-.29,1.97-5.54,3.02-7.94.32-.73.61-.72.74-.72s.42,0,.74.72c1.05,2.4,2.96,7.64,3.02,7.94.23,1-.08,1.16-.44,1.3-.28.13-.86.02-1.12-.7-.16-.42-2.2-5.86-2.2-5.86,0,0-2.05,5.44-2.2,5.86-.25.72-.83.82-1.12.7-.36-.15-.67-.3-.44-1.3Z"/>
        <path class="cls-7" d="m612.28,298.73c-1.33,0-3.23,1.68-3.23,5,0,2.56,1.22,5,3.23,5s3.27-2.44,3.27-5c0-3.48-1.94-5-3.27-5Zm.01,1.37c.96,0,1.64,1.13,1.7,1.93.02.3,0,.81-.55.81h-2.33c-.46,0-.51-.5-.5-.76.07-.8.81-1.98,1.69-1.98Zm0,7.26c-1.08,0-1.72-1.28-1.79-2.08-.01-.25,0-.76.5-.76h2.53c.56,0,.58.5.55.81-.06.8-.72,2.03-1.8,2.03Z"/>
      </g>
      <g>
        <path class="cls-7" d="m434.19,302.47c.48.44.43.65.44.96s-.23.47-.53.71c-1.75,1.43-2.78,2.44-2.78,2.44,0,0,.42.05,4.42.05.4,0,.79.33.79.78,0,.48-.22.88-.64.88-2.35,0-4.02-.05-5.97-.05-.79,0-1.34-.19-1.52-.57-.17-.36-.12-.9.55-1.52,1.91-1.72,3.47-2.88,3.47-2.88,0,0-2.17-1.97-3.75-3.56-.33-.33-.43-.62-.31-.85.11-.2.55-.57.92-.57h6.71c.74,0,.77,1.31,0,1.31-3.37,0-5.2.02-5.2.02"/>
        <rect class="cls-7" x="437.07" y="302.34" width="6.95" height="1.9" rx=".95" ry=".95"/>
        <path class="cls-7" d="m445.85,306.94c.06-.29,1.97-5.54,3.02-7.94.32-.73.61-.72.74-.72s.42,0,.74.72c1.05,2.4,2.96,7.64,3.02,7.94.23,1-.08,1.16-.44,1.3-.28.13-.86.02-1.12-.7-.16-.42-2.2-5.86-2.2-5.86,0,0-2.05,5.44-2.2,5.86-.25.72-.83.82-1.12.7-.36-.15-.67-.3-.44-1.3Z"/>
      </g>
      <g>
        <rect class="cls-7" x="709.13" y="302.78" width="6.95" height="1.9" rx=".95" ry=".95"/>
        <path class="cls-7" d="m717.06,307.38c.06-.29,1.97-5.54,3.02-7.94.32-.73.61-.72.74-.72s.42,0,.74.72c1.05,2.4,2.96,7.64,3.02,7.94.23,1-.08,1.16-.44,1.3-.28.13-.86.02-1.12-.7-.16-.42-2.2-5.86-2.2-5.86,0,0-2.05,5.44-2.2,5.86-.25.72-.83.82-1.12.7-.36-.15-.67-.3-.44-1.3Z"/>
        <path class="cls-7" d="m707.99,308.73h-3.54c-.32,0-.53-.32-.41-.62,2.67-6.29.99-7.71-1.08-7.85-.04,0-.08,0-.12,0h-.02s-.09,0-.13,0c-.04,0-.08,0-.12,0-2.07.14-3.75,1.56-1.08,7.85.12.29-.09.62-.41.62h-3.54c-.14,0-.66-1.27.12-1.73.69-.41.99.09,1.81.11-2.24-4.96.04-7.96,2.78-8.36.08-.02.94-.02,1.02,0,2.74.41,5.02,3.4,2.78,8.36.82-.02,1.12-.51,1.81-.11.78.46.26,1.73.12,1.73Z"/>
      </g>
      <g>
        <path class="cls-7" d="m526.65,306.87c-.93-2.27-1.86-4.39-2.21-5.2-.38-.84-.67-1.52-.74-1.72-.32-.87-.6-1.18-1.12-1.22-.5.04-.79.34-1.11,1.22-.07.2-.36.87-.73,1.72-.73,1.66-1.56,3.6-2.22,5.2-.28.71-.29,1.21-.03,1.52.19.23.49.34.9.34h6.43c.41,0,.71-.12.9-.34.12-.15.18-.34.18-.58,0-.26-.07-.57-.22-.94Zm-1.67.34h-4.8c.17-.42.49-1.25.87-2.18.56-1.41,1.21-3.07,1.53-3.9.39.98,1.22,3.11,1.83,4.63l.57,1.44Z"/>
        <path class="cls-7" d="m536.03,307.38c.06-.29,1.97-5.54,3.02-7.94.32-.73.61-.72.74-.72s.42,0,.74.72c1.05,2.4,2.96,7.64,3.02,7.94.23,1-.08,1.16-.44,1.3-.28.13-.86.02-1.12-.7-.16-.42-2.2-5.86-2.2-5.86,0,0-2.05,5.44-2.2,5.86-.25.72-.83.82-1.12.7-.36-.15-.67-.3-.44-1.3Z"/>
        <rect class="cls-7" x="527.59" y="302.78" width="6.95" height="1.9" rx=".95" ry=".95"/>
      </g>
      <g>
        <path class="cls-7" d="m87.86,480.61c.48.44.43.65.44.96s-.23.47-.53.71c-1.75,1.43-2.78,2.44-2.78,2.44,0,0,.42.05,4.42.05.4,0,.79.33.79.78,0,.48-.22.88-.64.88-2.35,0-4.02-.05-5.97-.05-.79,0-1.34-.19-1.52-.57-.17-.36-.12-.9.55-1.52,1.91-1.72,3.47-2.88,3.47-2.88,0,0-2.17-1.97-3.75-3.56-.33-.33-.43-.62-.31-.85.11-.2.55-.57.92-.57h6.71c.74,0,.77,1.31,0,1.31-3.37,0-5.2.02-5.2.02"/>
        <rect class="cls-7" x="90.28" y="480.48" width="6.95" height="1.9" rx=".95" ry=".95"/>
        <path class="cls-7" d="m80.64,478.1c-.5,2.51-1.03,3.37-3.39,3.82-.04,0-.07.04-.08.07v3.6c0,.22-.1.44-.25.6s-.36.24-.59.24-.43-.09-.61-.24c-.16-.16-.24-.38-.24-.6v-3.6s-.05-.06-.09-.07c-2.35-.45-2.88-1.31-3.38-3.82-.08-.36-.04-.65.12-.83.17-.21.42-.24.56-.24.24,0,.43.22.56.45.13.23.2.47.21.54.25,1.71.73,2.29,1.85,2.29h.09s.07-.02.09-.06v-3.05c.12-.28.2-.48.31-.6.07-.06.15-.1.23-.13.05-.02.1-.03.14-.04.11-.02.24-.02.33,0,.05,0,.1.02.15.04.07,0,.15.06.22.13.12.12.21.31.3.6v.03s.02.03.02.05v2.94s0,.02,0,.04c0,.03.05.05.09.05,1.2.04,1.68-.54,1.93-2.29.03-.13.28-.99.76-.99h0c.14,0,.39.03.56.24.15.19.19.47.12.83Z"/>
      </g>
      <g>
        <path class="cls-7" d="m179.68,484.56c-.93-2.27-1.86-4.39-2.21-5.2-.38-.84-.67-1.52-.74-1.72-.32-.87-.6-1.18-1.12-1.22-.5.04-.79.34-1.11,1.22-.07.2-.36.87-.73,1.72-.73,1.66-1.56,3.6-2.22,5.2-.28.71-.29,1.21-.03,1.52.19.23.49.34.9.34h6.43c.41,0,.71-.12.9-.34.12-.15.18-.34.18-.58,0-.26-.07-.57-.22-.94Zm-1.67.34h-4.8c.17-.42.49-1.25.87-2.18.56-1.41,1.21-3.07,1.53-3.9.39.98,1.22,3.11,1.83,4.63l.57,1.44Z"/>
        <rect class="cls-7" x="180.28" y="480.48" width="6.95" height="1.9" rx=".95" ry=".95"/>
        <path class="cls-7" d="m170.64,478.1c-.5,2.51-1.03,3.37-3.39,3.82-.04,0-.07.04-.08.07v3.6c0,.22-.1.44-.25.6s-.36.24-.59.24-.43-.09-.61-.24c-.16-.16-.24-.38-.24-.6v-3.6s-.05-.06-.09-.07c-2.35-.45-2.88-1.31-3.38-3.82-.08-.36-.04-.65.12-.83.17-.21.42-.24.56-.24.24,0,.43.22.56.45.13.23.2.47.21.54.25,1.71.73,2.29,1.85,2.29h.09s.07-.02.09-.06v-3.05c.12-.28.2-.48.31-.6.07-.06.15-.1.23-.13.05-.02.1-.03.14-.04.11-.02.24-.02.33,0,.05,0,.1.02.15.04.07,0,.15.06.22.13.12.12.21.31.3.6v.03s.02.03.02.05v2.94s0,.02,0,.04c0,.03.05.05.09.05,1.2.04,1.68-.54,1.93-2.29.03-.13.28-.99.76-.99h0c.14,0,.39.03.56.24.15.19.19.47.12.83Z"/>
      </g>
      <g>
        <path class="cls-7" d="m266.05,476.43c-1.33,0-3.23,1.68-3.23,5,0,2.56,1.22,5,3.23,5s3.27-2.44,3.27-5c0-3.48-1.94-5-3.27-5Zm.01,1.37c.96,0,1.64,1.13,1.7,1.93.02.3,0,.81-.55.81h-2.33c-.46,0-.51-.5-.5-.76.07-.8.81-1.98,1.69-1.98Zm0,7.26c-1.08,0-1.72-1.28-1.79-2.08-.01-.25,0-.76.5-.76h2.53c.56,0,.58.5.55.81-.06.8-.72,2.03-1.8,2.03Z"/>
        <rect class="cls-7" x="270.28" y="480.48" width="6.95" height="1.9" rx=".95" ry=".95"/>
        <path d="m260.11,479.21c-.71-.51-1.55-.82-2.45-.91v-1.11c0-.42-.34-.76-.77-.76h-.12c-.43,0-.77.34-.77.76v1.11c-.9.09-1.75.4-2.45.91-.71.48-1.09,1.08-1.14,1.75-.06.85.42,1.62.85,2.01.7.66,1.64,1.05,2.74,1.14v1.55c0,.42.34.76.77.76h.12c.43,0,.77-.34.77-.76v-1.55c1.1-.09,2.04-.48,2.74-1.14.43-.39.91-1.17.85-2.01-.05-.68-.43-1.26-1.14-1.75Zm-2.45,1.84c0-.41,0-.75.04-1.08,0-.11.1-.2.21-.21h.07c.8,0,1.4.28,1.68.79.25.45.22,1.01-.09,1.45-.34.52-.97.77-1.72.69-.1,0-.18-.1-.18-.21,0-.27,0-.56,0-.85,0-.2,0-.39,0-.59Zm-3.66-.49c.27-.51.87-.79,1.67-.79h.07c.12,0,.21.1.22.21.03.33.04.69.04,1.08,0,.2,0,.4,0,.6,0,.28,0,.57,0,.84,0,.11-.08.2-.18.21-.75.09-1.37-.17-1.72-.69-.3-.44-.33-1-.09-1.45Z"/>
      </g>
      <g>
        <path class="cls-7" d="m361.99,486.43h-3.54c-.32,0-.53-.32-.41-.62,2.67-6.29.99-7.71-1.08-7.85-.04,0-.08,0-.12,0h-.02s-.09,0-.13,0c-.04,0-.08,0-.12,0-2.07.14-3.75,1.56-1.08,7.85.12.29-.09.62-.41.62h-3.54c-.14,0-.66-1.27.12-1.73.69-.41.99.09,1.81.11-2.24-4.96.04-7.96,2.78-8.36.08-.02.94-.02,1.02,0,2.74.41,5.02,3.4,2.78,8.36.82-.02,1.12-.51,1.81-.11.78.46.26,1.73.12,1.73Z"/>
        <rect class="cls-7" x="362.81" y="480.48" width="6.95" height="1.9" rx=".95" ry=".95"/>
        <path d="m349.86,479.21c-.71-.51-1.55-.82-2.45-.91v-1.11c0-.42-.34-.76-.77-.76h-.12c-.43,0-.77.34-.77.76v1.11c-.9.09-1.75.4-2.45.91-.71.48-1.09,1.08-1.14,1.75-.06.85.42,1.62.85,2.01.7.66,1.64,1.05,2.74,1.14v1.55c0,.42.34.76.77.76h.12c.43,0,.77-.34.77-.76v-1.55c1.1-.09,2.04-.48,2.74-1.14.43-.39.91-1.17.85-2.01-.05-.68-.43-1.26-1.14-1.75Zm-2.45,1.84c0-.41,0-.75.04-1.08,0-.11.1-.2.21-.21h.07c.8,0,1.4.28,1.68.79.25.45.22,1.01-.09,1.45-.34.52-.97.77-1.72.69-.1,0-.18-.1-.18-.21,0-.27,0-.56,0-.85,0-.2,0-.39,0-.59Zm-3.66-.49c.27-.51.87-.79,1.67-.79h.07c.12,0,.21.1.22.21.03.33.04.69.04,1.08,0,.2,0,.4,0,.6,0,.28,0,.57,0,.84,0,.11-.08.2-.18.21-.75.09-1.37-.17-1.72-.69-.3-.44-.33-1-.09-1.45Z"/>
      </g>
      <g>
        <path class="cls-7" d="m269.21,586.77l-4.37,8.3c-.15.29-.45.46-.75.46-.13,0-.26-.04-.39-.1-.2-.11-.35-.28-.42-.5-.07-.21-.05-.45.06-.65l1.88-3.58-2.53-3.62c-.12-.11-.2-.27-.24-.47-.05-.25.03-.53.2-.71.15-.17.35-.27.58-.28.22,0,.45.07.61.21l2.2,3.29,1.65-3.14c.12-.2.29-.35.51-.42.22-.07.45-.04.65.07.22.12.38.33.43.59.03.19,0,.38-.08.55Z"/>
        <rect class="cls-7" x="269.47" y="590.08" width="6.95" height="1.9" rx=".95" ry=".95"/>
        <path class="cls-7" d="m253.46,594.18c.06-.29,1.97-5.54,3.02-7.94.32-.73.61-.72.74-.72s.42,0,.74.72c1.05,2.4,2.96,7.64,3.02,7.94.23,1-.08,1.16-.44,1.3-.28.13-.86.02-1.12-.7-.16-.42-2.2-5.86-2.2-5.86,0,0-2.05,5.44-2.2,5.86-.25.72-.83.82-1.12.7-.36-.15-.67-.3-.44-1.3Z"/>
      </g>
      <g>
        <path class="cls-7" d="m357.93,587.26c-1.86,0-2.27,0-3.51,0-.46,0-1.11-.2-1.11-.85,0-.57.42-.88,1.07-.88,4.93,0,5.05-.05,5.58.38.28.22.43.73.15,1.14-1.71,2.48-4.64,6.6-4.64,6.6,0,0,2.47-.05,3.73-.05,1.57,0,1.46,1.88.13,1.88-8.37,0-8.83,1.14-1.4-8.22Z"/>
        <rect class="cls-7" x="361.26" y="590.08" width="6.95" height="1.9" rx=".95" ry=".95"/>
        <path class="cls-7" d="m343.46,594.18c.06-.29,1.97-5.54,3.02-7.94.32-.73.61-.72.74-.72s.42,0,.74.72c1.05,2.4,2.96,7.64,3.02,7.94.23,1-.08,1.16-.44,1.3-.28.13-.86.02-1.12-.7-.16-.42-2.2-5.86-2.2-5.86,0,0-2.05,5.44-2.2,5.86-.25.72-.83.82-1.12.7-.36-.15-.67-.3-.44-1.3Z"/>
      </g>
      <g>
        <path class="cls-7" d="m92.83,585.53c-.46-.06-.96.28-1.19,1.14-.42,1.54-.92,3.7-1.44,5.63-1.11-2.72-1.86-4.39-2.5-4.38-.01,0-.02,0-.03.01-.01-.01-.02-.01-.03-.01-.64-.01-1.39,1.65-2.5,4.38-.51-1.93-1.02-4.09-1.44-5.63-.24-.86-.73-1.2-1.19-1.14-.59.07-.98.49-.74,1.25.25.81,1.84,6.07,2.3,7.72.47,1.65,1.59.9,1.8.49.21-.41,1.36-3.67,1.8-4.59.44.92,1.59,4.18,1.8,4.59.21.41,1.33,1.16,1.8-.49.46-1.64,2.05-6.9,2.3-7.72.24-.76-.15-1.18-.74-1.25Z"/>
        <rect class="cls-7" x="94.17" y="590.08" width="6.95" height="1.9" rx=".95" ry=".95"/>
        <path class="cls-7" d="m73.46,594.25c.06-.29,1.97-5.54,3.02-7.94.32-.73.61-.72.74-.72s.42,0,.74.72c1.05,2.4,2.96,7.64,3.02,7.94.23,1-.08,1.16-.44,1.3-.28.13-.86.02-1.12-.7-.16-.42-2.2-5.86-2.2-5.86,0,0-2.05,5.44-2.2,5.86-.25.72-.83.82-1.12.7-.36-.15-.67-.3-.44-1.3Z"/>
      </g>
      <g>
        <path class="cls-7" d="m180.74,594.03c.16.19.21.44.19.68-.03.24-.16.46-.34.61-.4.3-.98.23-1.3-.17l-2.45-3.14-2.45,3.14c-.18.23-.45.36-.72.36-.19,0-.4-.07-.57-.19-.19-.15-.32-.37-.35-.61-.03-.24.03-.49.19-.68l2.73-3.51-2.73-3.51c-.13-.17-.19-.36-.19-.57,0-.28.14-.56.36-.73.19-.15.42-.21.67-.19.24.03.47.16.61.35l2.45,3.14,2.44-3.14c.33-.41.91-.48,1.31-.16.22.17.35.43.35.72,0,.2-.07.4-.19.57l-2.73,3.51,2.73,3.51Z"/>
        <rect class="cls-7" x="181.78" y="590.08" width="6.95" height="1.9" rx=".95" ry=".95"/>
        <path class="cls-7" d="m163.46,594.18c.06-.29,1.97-5.54,3.02-7.94.32-.73.61-.72.74-.72s.42,0,.74.72c1.05,2.4,2.96,7.64,3.02,7.94.23,1-.08,1.16-.44,1.3-.28.13-.86.02-1.12-.7-.16-.42-2.2-5.86-2.2-5.86,0,0-2.05,5.44-2.2,5.86-.25.72-.83.82-1.12.7-.36-.15-.67-.3-.44-1.3Z"/>
      </g>
      <g>
        <path class="cls-7" d="m448.58,480.61c.48.44.43.65.44.96s-.23.47-.53.71c-1.75,1.43-2.78,2.44-2.78,2.44,0,0,.42.05,4.42.05.4,0,.79.33.79.78,0,.48-.22.88-.64.88-2.35,0-4.02-.05-5.97-.05-.79,0-1.34-.19-1.52-.57-.17-.36-.12-.9.55-1.52,1.91-1.72,3.47-2.88,3.47-2.88,0,0-2.17-1.97-3.75-3.56-.33-.33-.43-.62-.31-.85.11-.2.55-.57.92-.57h6.71c.74,0,.77,1.31,0,1.31-3.37,0-5.2.02-5.2.02"/>
        <rect class="cls-7" x="451.64" y="480.48" width="6.95" height="1.9" rx=".95" ry=".95"/>
        <path class="cls-7" d="m440.2,478.1c-.5,2.51-1.03,3.37-3.39,3.82-.04,0-.07.04-.08.07v3.6c0,.22-.1.44-.25.6s-.36.24-.59.24-.43-.09-.61-.24c-.16-.16-.24-.38-.24-.6v-3.6s-.05-.06-.09-.07c-2.35-.45-2.88-1.31-3.38-3.82-.08-.36-.04-.65.12-.83.17-.21.42-.24.56-.24.24,0,.43.22.56.45.13.23.2.47.21.54.25,1.71.73,2.29,1.85,2.29h.09s.07-.02.09-.06v-3.05c.12-.28.2-.48.31-.6.07-.06.15-.1.23-.13.05-.02.1-.03.14-.04.11-.02.24-.02.33,0,.05,0,.1.02.15.04.07,0,.15.06.22.13.12.12.21.31.3.6v.03s.02.03.02.05v2.94s0,.02,0,.04c0,.03.05.05.09.05,1.2.04,1.68-.54,1.93-2.29.03-.13.28-.99.76-.99h0c.14,0,.39.03.56.24.15.19.19.47.12.83Z"/>
      </g>
      <g>
        <path class="cls-7" d="m540.06,484.56c-.93-2.27-1.86-4.39-2.21-5.2-.38-.84-.67-1.52-.74-1.72-.32-.87-.6-1.18-1.12-1.22-.5.04-.79.34-1.11,1.22-.07.2-.36.87-.73,1.72-.73,1.66-1.56,3.6-2.22,5.2-.28.71-.29,1.21-.03,1.52.19.23.49.34.9.34h6.43c.41,0,.71-.12.9-.34.12-.15.18-.34.18-.58,0-.26-.07-.57-.22-.94Zm-1.67.34h-4.8c.17-.42.49-1.25.87-2.18.56-1.41,1.21-3.07,1.53-3.9.39.98,1.22,3.11,1.83,4.63l.57,1.44Z"/>
        <rect class="cls-7" x="540.43" y="480.48" width="6.95" height="1.9" rx=".95" ry=".95"/>
        <path class="cls-7" d="m530.68,478.1c-.5,2.51-1.03,3.37-3.39,3.82-.04,0-.07.04-.08.07v3.6c0,.22-.1.44-.25.6s-.36.24-.59.24-.43-.09-.61-.24c-.16-.16-.24-.38-.24-.6v-3.6s-.05-.06-.09-.07c-2.35-.45-2.88-1.31-3.38-3.82-.08-.36-.04-.65.12-.83.17-.21.42-.24.56-.24.24,0,.43.22.56.45.13.23.2.47.21.54.25,1.71.73,2.29,1.85,2.29h.09s.07-.02.09-.06v-3.05c.12-.28.2-.48.31-.6.07-.06.15-.1.23-.13.05-.02.1-.03.14-.04.11-.02.24-.02.33,0,.05,0,.1.02.15.04.07,0,.15.06.22.13.12.12.21.31.3.6v.03s.02.03.02.05v2.94s0,.02,0,.04c0,.03.05.05.09.05,1.2.04,1.68-.54,1.93-2.29.03-.13.28-.99.76-.99h0c.14,0,.39.03.56.24.15.19.19.47.12.83Z"/>
      </g>
      <g>
        <path class="cls-7" d="m624.26,476.43c-1.33,0-3.23,1.68-3.23,5,0,2.56,1.22,5,3.23,5s3.27-2.44,3.27-5c0-3.48-1.94-5-3.27-5Zm.01,1.37c.96,0,1.64,1.13,1.7,1.93.02.3,0,.81-.55.81h-2.33c-.46,0-.51-.5-.5-.76.07-.8.81-1.98,1.69-1.98Zm0,7.26c-1.08,0-1.72-1.28-1.79-2.08-.01-.25,0-.76.5-.76h2.53c.56,0,.58.5.55.81-.06.8-.72,2.03-1.8,2.03Z"/>
        <rect class="cls-7" x="628.81" y="480.48" width="6.95" height="1.9" rx=".95" ry=".95"/>
        <path d="m618.22,479.21c-.71-.51-1.55-.82-2.45-.91v-1.11c0-.42-.34-.76-.77-.76h-.12c-.43,0-.77.34-.77.76v1.11c-.9.09-1.75.4-2.45.91-.71.48-1.09,1.08-1.14,1.75-.06.85.42,1.62.85,2.01.7.66,1.64,1.05,2.74,1.14v1.55c0,.42.34.76.77.76h.12c.43,0,.77-.34.77-.76v-1.55c1.1-.09,2.04-.48,2.74-1.14.43-.39.91-1.17.85-2.01-.05-.68-.43-1.26-1.14-1.75Zm-2.45,1.84c0-.41,0-.75.04-1.08,0-.11.1-.2.21-.21h.07c.8,0,1.4.28,1.68.79.25.45.22,1.01-.09,1.45-.34.52-.97.77-1.72.69-.1,0-.18-.1-.18-.21,0-.27,0-.56,0-.85,0-.2,0-.39,0-.59Zm-3.66-.49c.27-.51.87-.79,1.67-.79h.07c.12,0,.21.1.22.21.03.33.04.69.04,1.08,0,.2,0,.4,0,.6,0,.28,0,.57,0,.84,0,.11-.08.2-.18.21-.75.09-1.37-.17-1.72-.69-.3-.44-.33-1-.09-1.45Z"/>
      </g>
      <g>
        <path class="cls-7" d="m720.39,486.43h-3.54c-.32,0-.53-.32-.41-.62,2.67-6.29.99-7.71-1.08-7.85-.04,0-.08,0-.12,0h-.02s-.09,0-.13,0c-.04,0-.08,0-.12,0-2.07.14-3.75,1.56-1.08,7.85.12.29-.09.62-.41.62h-3.54c-.14,0-.66-1.27.12-1.73.69-.41.99.09,1.81.11-2.24-4.96.04-7.96,2.78-8.36.08-.02.94-.02,1.02,0,2.74.41,5.02,3.4,2.78,8.36.82-.02,1.12-.51,1.81-.11.78.46.26,1.73.12,1.73Z"/>
        <rect class="cls-7" x="720.69" y="480.48" width="6.95" height="1.9" rx=".95" ry=".95"/>
        <path d="m707.07,479.21c-.71-.51-1.55-.82-2.45-.91v-1.11c0-.42-.34-.76-.77-.76h-.12c-.43,0-.77.34-.77.76v1.11c-.9.09-1.75.4-2.45.91-.71.48-1.09,1.08-1.14,1.75-.06.85.42,1.62.85,2.01.7.66,1.64,1.05,2.74,1.14v1.55c0,.42.34.76.77.76h.12c.43,0,.77-.34.77-.76v-1.55c1.1-.09,2.04-.48,2.74-1.14.43-.39.91-1.17.85-2.01-.05-.68-.43-1.26-1.14-1.75Zm-2.45,1.84c0-.41,0-.75.04-1.08,0-.11.1-.2.21-.21h.07c.8,0,1.4.28,1.68.79.25.45.22,1.01-.09,1.45-.34.52-.97.77-1.72.69-.1,0-.18-.1-.18-.21,0-.27,0-.56,0-.85,0-.2,0-.39,0-.59Zm-3.66-.49c.27-.51.87-.79,1.67-.79h.07c.12,0,.21.1.22.21.03.33.04.69.04,1.08,0,.2,0,.4,0,.6,0,.28,0,.57,0,.84,0,.11-.08.2-.18.21-.75.09-1.37-.17-1.72-.69-.3-.44-.33-1-.09-1.45Z"/>
      </g>
      <g>
        <path class="cls-7" d="m629.26,586.77l-4.37,8.3c-.15.29-.45.46-.75.46-.13,0-.26-.04-.39-.1-.2-.11-.35-.28-.42-.5-.07-.21-.05-.45.06-.65l1.88-3.58-2.53-3.62c-.12-.11-.2-.27-.24-.47-.05-.25.03-.53.2-.71.15-.17.35-.27.58-.28.22,0,.45.07.61.21l2.2,3.29,1.65-3.14c.12-.2.29-.35.51-.42.22-.07.45-.04.65.07.22.12.38.33.43.59.03.19,0,.38-.08.55Z"/>
        <rect class="cls-7" x="629.35" y="590.08" width="6.95" height="1.9" rx=".95" ry=".95"/>
        <path class="cls-7" d="m613.04,594.18c.06-.29,1.97-5.54,3.02-7.94.32-.73.61-.72.74-.72s.42,0,.74.72c1.05,2.4,2.96,7.64,3.02,7.94.23,1-.08,1.16-.44,1.3-.28.13-.86.02-1.12-.7-.16-.42-2.2-5.86-2.2-5.86,0,0-2.05,5.44-2.2,5.86-.25.72-.83.82-1.12.7-.36-.15-.67-.3-.44-1.3Z"/>
      </g>
      <g>
        <path class="cls-7" d="m717.49,587.26c-1.86,0-2.27,0-3.51,0-.46,0-1.11-.2-1.11-.85,0-.57.42-.88,1.07-.88,4.93,0,5.05-.05,5.58.38.28.22.43.73.15,1.14-1.71,2.48-4.64,6.6-4.64,6.6,0,0,2.47-.05,3.73-.05,1.57,0,1.46,1.88.13,1.88-8.37,0-8.83,1.14-1.4-8.22Z"/>
        <rect class="cls-7" x="720.71" y="590.08" width="6.95" height="1.9" rx=".95" ry=".95"/>
        <path class="cls-7" d="m702.73,594.18c.06-.29,1.97-5.54,3.02-7.94.32-.73.61-.72.74-.72s.42,0,.74.72c1.05,2.4,2.96,7.64,3.02,7.94.23,1-.08,1.16-.44,1.3-.28.13-.86.02-1.12-.7-.16-.42-2.2-5.86-2.2-5.86,0,0-2.05,5.44-2.2,5.86-.25.72-.83.82-1.12.7-.36-.15-.67-.3-.44-1.3Z"/>
      </g>
      <g>
        <path class="cls-7" d="m453.92,585.53c-.46-.06-.96.28-1.19,1.14-.42,1.54-.92,3.7-1.44,5.63-1.11-2.72-1.86-4.39-2.5-4.38-.01,0-.02,0-.03.01-.01-.01-.02-.01-.03-.01-.64-.01-1.39,1.65-2.5,4.38-.51-1.93-1.02-4.09-1.44-5.63-.24-.86-.73-1.2-1.19-1.14-.59.07-.98.49-.74,1.25.25.81,1.84,6.07,2.3,7.72.47,1.65,1.59.9,1.8.49.21-.41,1.36-3.67,1.8-4.59.44.92,1.59,4.18,1.8,4.59.21.41,1.33,1.16,1.8-.49.46-1.64,2.05-6.9,2.3-7.72.24-.76-.15-1.18-.74-1.25Z"/>
        <rect class="cls-7" x="455.49" y="590.08" width="6.95" height="1.9" rx=".95" ry=".95"/>
        <path class="cls-7" d="m433.77,594.18c.06-.29,1.97-5.54,3.02-7.94.32-.73.61-.72.74-.72s.42,0,.74.72c1.05,2.4,2.96,7.64,3.02,7.94.23,1-.08,1.16-.44,1.3-.28.13-.86.02-1.12-.7-.16-.42-2.2-5.86-2.2-5.86,0,0-2.05,5.44-2.2,5.86-.25.72-.83.82-1.12.7-.36-.15-.67-.3-.44-1.3Z"/>
      </g>
      <g>
        <path class="cls-7" d="m538.39,594.03c.16.19.21.44.19.68-.03.24-.16.46-.34.61-.4.3-.98.23-1.3-.17l-2.45-3.14-2.45,3.14c-.18.23-.45.36-.72.36-.19,0-.4-.07-.57-.19-.19-.15-.32-.37-.35-.61-.03-.24.03-.49.19-.68l2.73-3.51-2.73-3.51c-.13-.17-.19-.36-.19-.57,0-.28.14-.56.36-.73.19-.15.42-.21.67-.19.24.03.47.16.61.35l2.45,3.14,2.44-3.14c.33-.41.91-.48,1.31-.16.22.17.35.43.35.72,0,.2-.07.4-.19.57l-2.73,3.51,2.73,3.51Z"/>
        <rect class="cls-7" x="540.28" y="590.08" width="6.95" height="1.9" rx=".95" ry=".95"/>
        <path class="cls-7" d="m521.11,594.18c.06-.29,1.97-5.54,3.02-7.94.32-.73.61-.72.74-.72s.42,0,.74.72c1.05,2.4,2.96,7.64,3.02,7.94.23,1-.08,1.16-.44,1.3-.28.13-.86.02-1.12-.7-.16-.42-2.2-5.86-2.2-5.86,0,0-2.05,5.44-2.2,5.86-.25.72-.83.82-1.12.7-.36-.15-.67-.3-.44-1.3Z"/>
      </g>
    </g>
    <path class="cls-8" d="m623.41,419.24c0,.51.31.83.7.83h3.1v32.06l-2.62-2.58s-1.09,1.05-.5,1.87c.86,1.18,4.09,3.95,4.09,3.95,0,0,3.38-3.01,4.06-3.95.61-.82-.47-1.87-.47-1.87l-2.65,2.72s.01-29.73.01-32.2h1.7c0,1.81-.01,27.07-.01,27.07,0,.54.43.97.96.97.53,0,.96-.43.96-.97,0,0,0-24.18,0-27.07h3.1c.4,0,.73-.28.73-.83s-.33-.75-.73-.75h-11.73c-.39,0-.7.24-.7.75Z"/>
    <path class="cls-8" d="m443.41,454.64c0-.51.31-.83.7-.83h3.1c0-3.56,0-32.06,0-32.06l-2.62,2.58s-1.09-1.05-.5-1.87c.86-1.18,4.09-3.95,4.09-3.95,0,0,3.38,3.01,4.06,3.95.61.82-.47,1.87-.47,1.87l-2.65-2.72s.01,29.73.01,32.2h1.7c0-1.81-.01-27.07-.01-27.07,0-.54.43-.97.96-.97s.96.43.96.97c0,0,0,24.18,0,27.07h3.1c.4,0,.73.28.73.83,0,.55-.33.75-.73.75h-11.73c-.39,0-.7-.24-.7-.75Z"/>
    <path class="cls-8" d="m695.96,419.27c0,.51.31.83.7.83h3.1v32.06l-2.62-2.58s-1.09,1.05-.5,1.87c.86,1.18,4.09,3.95,4.09,3.95,0,0,3.38-3.01,4.06-3.95.61-.82-.47-1.87-.47-1.87l-2.65,2.72s.01-29.73.01-32.2h1.7c0,1.81-.01,27.07-.01,27.07,0,.54.43.97.96.97.53,0,.96-.43.96-.97,0,0,0-24.18,0-27.07h3.1c.4,0,.73-.28.73-.83,0-.55-.33-.75-.73-.75h-11.73c-.39,0-.7.24-.7.75Z"/>
    <path class="cls-8" d="m515.96,454.61c0-.51.31-.83.7-.83h3.1v-32.06s-2.62,2.58-2.62,2.58c0,0-1.09-1.05-.5-1.87.86-1.18,4.09-3.95,4.09-3.95,0,0,3.38,3.01,4.06,3.95.61.82-.47,1.87-.47,1.87l-2.65-2.72s.01,29.73.01,32.2h1.7c0-1.81-.01-27.07-.01-27.07,0-.54.43-.97.96-.97s.96.43.96.97c0,0,0,24.18,0,27.07h3.1c.4,0,.73.28.73.83,0,.55-.33.75-.73.75h-11.73c-.39,0-.7-.24-.7-.75Z"/>
    <path class="cls-8" d="m603.27,542.71c.51,0,.83-.31.83-.7v-3.1h32.06l-2.58,2.62s1.05,1.09,1.87.5c1.18-.86,3.95-4.09,3.95-4.09,0,0-3.01-3.38-3.95-4.06-.82-.61-1.87.47-1.87.47l2.72,2.65s-29.73-.01-32.2-.01v-1.7c1.81,0,27.07.01,27.07.01.54,0,.97-.43.97-.96s-.43-.96-.97-.96c0,0-24.18,0-27.07,0v-3.1c0-.4-.28-.73-.83-.73-.55,0-.75.33-.75.73v11.73c0,.39.24.7.75.7Z"/>
    <path class="cls-8" d="m458.64,543.34c-.51,0-.83-.31-.83-.7v-3.1c-3.56,0-32.06,0-32.06,0l2.58,2.62s-1.05,1.09-1.87.5c-1.18-.86-3.95-4.09-3.95-4.09,0,0,3.01-3.38,3.95-4.06.82-.61,1.87.47,1.87.47l-2.72,2.65s29.73-.01,32.2-.01v-1.7c-1.81,0-27.07.01-27.07.01-.54,0-.97-.43-.97-.96s.43-.96.97-.96c0,0,24.18,0,27.07,0v-3.1c0-.4.28-.73.83-.73s.75.33.75.73v11.73c0,.39-.24.7-.75.7Z"/>
    <path class="cls-8" d="m693.96,543.26c.51,0,.83-.31.83-.7v-3.1h32.06l-2.58,2.62s1.05,1.09,1.87.5c1.18-.86,3.95-4.09,3.95-4.09,0,0-3.01-3.38-3.95-4.06-.82-.61-1.87.47-1.87.47l2.72,2.65s-29.73-.01-32.2-.01v-1.7c1.81,0,27.07.01,27.07.01.54,0,.97-.43.97-.96,0-.53-.43-.96-.97-.96,0,0-24.18,0-27.07,0v-3.1c0-.4-.28-.73-.83-.73s-.75.33-.75.73v11.73c0,.39.24.7.75.7Z"/>
    <path class="cls-8" d="m531.19,543.31c-.51,0-.83-.31-.83-.7v-3.1c-3.56,0-32.06,0-32.06,0l2.58,2.62s-1.05,1.09-1.87.5c-1.18-.86-3.95-4.09-3.95-4.09,0,0,3.01-3.38,3.95-4.06.82-.61,1.87.47,1.87.47l-2.72,2.65s29.73-.01,32.2-.01v-1.7c-1.81,0-27.07.01-27.07.01-.54,0-.97-.43-.97-.96,0-.53.43-.96.97-.96,0,0,24.18,0,27.07,0v-3.1c0-.4.28-.73.83-.73s.75.33.75.73v11.73c0,.39-.24.7-.75.7Z"/>
    <path class="cls-11" d="m651.24,444.55c-.64-.95-3.93-4.08-3.93-4.08,0,0-3.31,2.66-4.21,3.8-.63.8.44,1.89.44,1.89l2.78-2.61c-.03,8.61-6.85,18.1-19.4,19.39v-2.79c0-.6-.19-1.09-.78-1.09s-.88.49-.88,1.09v7.56c0,.6.28,1.09.88,1.09.59,0,.78-.49.78-1.09v-2.63c11.36-.66,21.34-9.96,21.37-21.33l2.42,2.65s1.11-1.01.53-1.85Z"/>
    <path class="cls-11" d="m740.48,443.22s-2.77-3.23-3.95-4.08c-.82-.6-1.87.5-1.87.5l2.73,2.66c-18.49,0-20.09,1.8-20.15,20.18h-2.74c-.6,0-1.09.19-1.09.78,0,.6.49.88,1.09.88h7.56c.6,0,1.09-.28,1.09-.88,0-.59-.49-.78-1.09-.78h-2.75c.04-17.27,1.15-18.23,18.08-18.23l-2.73,2.56s1.05,1.08,1.87.48c.94-.69,3.95-4.07,3.95-4.07Z"/>
    <path class="cls-11" d="m471.24,444.91c-.64-.95-3.93-4.08-3.93-4.08,0,0-3.31,2.66-4.21,3.8-.63.8.44,1.89.44,1.89l2.78-2.61c-.03,8.61-6.85,18.1-19.4,19.39v-2.79c0-.6-.19-1.09-.78-1.09-.6,0-.88.49-.88,1.09v7.56c0,.6.28,1.09.88,1.09s.78-.49.78-1.09v-2.63c11.36-.66,21.34-9.96,21.37-21.33l2.42,2.65s1.11-1.01.53-1.85Z"/>
    <path class="cls-11" d="m560.91,443.91s-2.77-3.23-3.95-4.08c-.82-.6-1.87.5-1.87.5l2.73,2.66c-18.49,0-20.09,1.8-20.15,20.18h-2.74c-.6,0-1.09.19-1.09.78,0,.6.49.88,1.09.88h7.56c.6,0,1.09-.28,1.09-.88,0-.59-.49-.78-1.09-.78h-2.75c.04-17.27,1.15-18.23,18.08-18.23l-2.73,2.56s1.05,1.08,1.87.48c.94-.69,3.95-4.07,3.95-4.07Z"/>
    <path class="cls-11" d="m652.24,555.55c-.64-.95-3.93-4.08-3.93-4.08,0,0-3.31,2.66-4.21,3.8-.63.8.44,1.89.44,1.89l2.78-2.61c-.03,8.61-6.85,18.1-19.4,19.39v-2.79c0-.6-.19-1.09-.78-1.09s-.88.49-.88,1.09v7.56c0,.6.28,1.09.88,1.09.59,0,.78-.49.78-1.09v-2.63c11.36-.66,21.34-9.96,21.37-21.33l2.42,2.65s1.11-1.01.53-1.85Z"/>
    <path class="cls-11" d="m741.48,554.22s-2.77-3.23-3.95-4.08c-.82-.6-1.87.5-1.87.5l2.73,2.66c-18.49,0-20.09,1.8-20.15,20.18h-2.74c-.6,0-1.09.19-1.09.78,0,.6.49.88,1.09.88h7.56c.6,0,1.09-.28,1.09-.88,0-.59-.49-.78-1.09-.78h-2.75c.04-17.27,1.15-18.23,18.08-18.23l-2.73,2.56s1.05,1.08,1.87.48c.94-.69,3.95-4.07,3.95-4.07Z"/>
    <path class="cls-11" d="m472.24,555.91c-.64-.95-3.93-4.08-3.93-4.08,0,0-3.31,2.66-4.21,3.8-.63.8.44,1.89.44,1.89l2.78-2.61c-.03,8.61-6.85,18.1-19.4,19.39v-2.79c0-.6-.19-1.09-.78-1.09-.6,0-.88.49-.88,1.09v7.56c0,.6.28,1.09.88,1.09s.78-.49.78-1.09v-2.63c11.36-.66,21.34-9.96,21.37-21.33l2.42,2.65s1.11-1.01.53-1.85Z"/>
    <path class="cls-11" d="m561.91,554.91s-2.77-3.23-3.95-4.08c-.82-.6-1.87.5-1.87.5l2.73,2.66c-18.49,0-20.09,1.8-20.15,20.18h-2.74c-.6,0-1.09.19-1.09.78,0,.6.49.88,1.09.88h7.56c.6,0,1.09-.28,1.09-.88,0-.59-.49-.78-1.09-.78h-2.75c.04-17.27,1.15-18.23,18.08-18.23l-2.73,2.56s1.05,1.08,1.87.48c.94-.69,3.95-4.07,3.95-4.07Z"/>
    <path class="cls-8" d="m347.95,464.56c0-.51-.51-.91-1.16-.91h-2.65c.03-.13.05-48.75.05-48.75,0-1.55-1.91-1.54-1.91,0l-.03,39.76c-1.09-10.45-5.64-11.6-20.49-11.6l2.56-2.6s-1.05-1.09-1.87-.5c-1.18.86-3.95,4.09-3.95,4.09,0,0,3.01,3.38,3.95,4.06.82.61,1.87-.47,1.87-.47l-2.58-2.51c18.04-.15,18.9,2.44,18.9,18.52h-2.34c-.65,0-1.16.4-1.16.91s.51.91,1.16.91h8.49c.65,0,1.16-.41,1.16-.91Z"/>
    <path class="cls-8" d="m347.47,576.06c0-.51-.51-.91-1.16-.91h-2.65c.03-.13.05-48.75.05-48.75,0-1.55-1.91-1.54-1.91,0l-.03,39.76c-1.09-10.45-5.64-11.6-20.49-11.6l2.56-2.6s-1.05-1.09-1.87-.5c-1.18.86-3.95,4.09-3.95,4.09,0,0,3.01,3.38,3.95,4.06.82.61,1.87-.47,1.87-.47l-2.58-2.51c18.04-.15,18.9,2.44,18.9,18.52h-2.34c-.65,0-1.16.4-1.16.91,0,.5.51.91,1.16.91h8.49c.65,0,1.16-.41,1.16-.91Z"/>
    <path class="cls-8" d="m166.53,464.45h-2.65c.03-.13.05-48.75.05-48.75,0-1.55-1.91-1.54-1.91,0l-.03,39.76c-1.09-10.45-5.64-11.6-20.49-11.6l2.56-2.6s-1.05-1.09-1.87-.5c-1.18.86-3.95,4.09-3.95,4.09,0,0,3.01,3.38,3.95,4.06.82.61,1.87-.47,1.87-.47l-2.58-2.51c18.04-.15,18.9,2.44,18.9,18.52h-2.34c-1.35,0-1.35,1.82,0,1.82h8.49c1.35,0,1.35-1.82,0-1.82Z"/>
    <path class="cls-8" d="m166.53,574.41h-2.65c.03-.13.05-48.75.05-48.75,0-1.55-1.91-1.54-1.91,0l-.03,39.76c-1.09-10.45-5.64-11.6-20.49-11.6l2.56-2.6s-1.05-1.09-1.87-.5c-1.18.86-3.95,4.09-3.95,4.09,0,0,3.01,3.38,3.95,4.06.82.61,1.87-.47,1.87-.47l-2.58-2.51c18.04-.15,18.9,2.44,18.9,18.52h-2.34c-1.35,0-1.35,1.82,0,1.82h8.49c1.35,0,1.35-1.82,0-1.82Z"/>
    <path class="cls-8" d="m73.48,170.63l2.65-2.65s1.08,1.05.47,1.87c-.68.94-4.06,3.95-4.06,3.95,0,0-3.23-2.77-4.09-3.95-.59-.82.5-1.87.5-1.87l2.61,2.65v-46.81c0-.18-.06-.3-.31-.3-6.55,0-19.39,2.35-19.39,19.75,0,1.61-1.81,1.66-1.81,0,0-15.57,9.63-21.53,21.2-21.69.15,0,.3-.11.3-.26v-3.03c0-.54.43-.97.96-.97.53,0,.96.43.96.97v52.34Z"/>
    <path class="cls-8" d="m255.19,170.63l2.65-2.65s1.08,1.05.47,1.87c-.68.94-4.06,3.95-4.06,3.95,0,0-3.23-2.77-4.09-3.95-.59-.82.5-1.87.5-1.87l2.61,2.65v-46.81c0-.18-.06-.3-.31-.3-6.55,0-19.39,2.35-19.39,19.75,0,1.61-1.81,1.66-1.81,0,0-15.57,9.63-21.53,21.2-21.69.15,0,.3-.11.3-.26v-3.03c0-.54.43-.97.96-.97.53,0,.96.43.96.97v52.34Z"/>
    <path class="cls-8" d="m255.72,236.63l2.65,2.65s1.08-1.05.47-1.87c-.68-.94-4.06-3.95-4.06-3.95,0,0-3.23,2.77-4.09,3.95-.59.82.5,1.87.5,1.87l2.61-2.65v46.81c0,.18-.06.3-.31.3-6.55,0-19.39-2.35-19.39-19.75,0-1.61-1.81-1.66-1.81,0,0,15.57,9.63,21.53,21.2,21.69.15,0,.3.11.3.26v3.03c0,.54.43.97.96.97s.96-.43.96-.97v-52.34Z"/>
    <path class="cls-11" d="m158.34,247.45l-2.72,2.65h32.81c.54-.01.97.42.97.95,0,.53-.43.96-.97.96h-32.67s2.58,2.62,2.58,2.62c0,0-1.05,1.09-1.87.5-1.18-.86-3.95-4.09-3.95-4.09,0,0,3.01-3.38,3.95-4.06.82-.61,1.87.47,1.87.47Z"/>
  </g>
  <text/>
  <g>
    <g>
      <g>
        <circle class="cls-7" cx="81" cy="179.2" r="2.5"/>
        <circle class="cls-7" cx="111" cy="149.2" r="2.5"/>
        <circle class="cls-7" cx="81" cy="119.2" r="2.5"/>
        <circle class="cls-7" cx="51" cy="149.2" r="2.5"/>
        <circle class="cls-7" cx="81" cy="149.2" r="1.12"/>
      </g>
      <g>
        <circle class="cls-7" cx="171" cy="179.2" r="2.5"/>
        <circle class="cls-7" cx="201" cy="149.2" r="2.5"/>
        <circle class="cls-7" cx="171" cy="119.2" r="2.5"/>
        <circle class="cls-7" cx="141" cy="149.2" r="2.5"/>
        <circle class="cls-7" cx="171" cy="149.2" r="1.12"/>
      </g>
      <g>
        <circle class="cls-7" cx="261" cy="179.2" r="2.5"/>
        <circle class="cls-7" cx="291" cy="149.2" r="2.5"/>
        <circle class="cls-7" cx="261" cy="119.2" r="2.5"/>
        <circle class="cls-7" cx="231" cy="149.2" r="2.5"/>
        <circle class="cls-7" cx="261" cy="149.2" r="1.12"/>
      </g>
      <g>
        <circle class="cls-7" cx="351" cy="179.2" r="2.5"/>
        <circle class="cls-7" cx="381" cy="149.2" r="2.5"/>
        <circle class="cls-7" cx="351" cy="119.2" r="2.5"/>
        <circle class="cls-7" cx="321" cy="149.2" r="2.5"/>
        <circle class="cls-7" cx="351" cy="149.2" r="1.12"/>
      </g>
      <g>
        <circle class="cls-7" cx="441" cy="179.2" r="2.5"/>
        <circle class="cls-7" cx="411" cy="149.2" r="2.5"/>
        <circle class="cls-7" cx="441" cy="119.2" r="2.5"/>
        <circle class="cls-7" cx="471" cy="149.2" r="2.5"/>
        <circle class="cls-7" cx="441" cy="149.2" r="1.12"/>
      </g>
      <g>
        <circle class="cls-7" cx="531" cy="179.2" r="2.5"/>
        <circle class="cls-7" cx="501" cy="149.2" r="2.5"/>
        <circle class="cls-7" cx="531" cy="119.2" r="2.5"/>
        <circle class="cls-7" cx="561" cy="149.2" r="2.5"/>
        <circle class="cls-7" cx="531" cy="149.2" r="1.12"/>
      </g>
      <g>
        <circle class="cls-7" cx="621" cy="179.2" r="2.5"/>
        <circle class="cls-7" cx="591" cy="149.2" r="2.5"/>
        <circle class="cls-7" cx="621" cy="119.2" r="2.5"/>
        <circle class="cls-7" cx="651" cy="149.2" r="2.5"/>
        <circle class="cls-7" cx="621" cy="149.2" r="1.12"/>
      </g>
      <g>
        <circle class="cls-7" cx="711" cy="179.2" r="2.5"/>
        <circle class="cls-7" cx="681" cy="149.2" r="2.5"/>
        <circle class="cls-7" cx="711" cy="119.2" r="2.5"/>
        <circle class="cls-7" cx="741" cy="149.2" r="2.5"/>
        <circle class="cls-7" cx="711" cy="149.2" r="1.12"/>
      </g>
    </g>
    <g>
      <g>
        <circle class="cls-7" cx="81" cy="289.2" r="2.5"/>
        <circle class="cls-7" cx="111" cy="259.2" r="2.5"/>
        <circle class="cls-7" cx="81" cy="229.2" r="2.5"/>
        <circle class="cls-7" cx="51" cy="259.2" r="2.5"/>
        <circle class="cls-7" cx="81" cy="259.2" r="1.12"/>
      </g>
      <g>
        <circle class="cls-7" cx="171" cy="289.2" r="2.5"/>
        <circle class="cls-7" cx="201" cy="259.2" r="2.5"/>
        <circle class="cls-7" cx="171" cy="229.2" r="2.5"/>
        <circle class="cls-7" cx="141" cy="259.2" r="2.5"/>
        <circle class="cls-7" cx="171" cy="259.2" r="1.12"/>
      </g>
      <g>
        <circle class="cls-7" cx="261" cy="289.2" r="2.5"/>
        <circle class="cls-7" cx="291" cy="259.2" r="2.5"/>
        <circle class="cls-7" cx="261" cy="229.2" r="2.5"/>
        <circle class="cls-7" cx="231" cy="259.2" r="2.5"/>
        <circle class="cls-7" cx="261" cy="259.2" r="1.12"/>
      </g>
      <g>
        <circle class="cls-7" cx="351" cy="289.2" r="2.5"/>
        <circle class="cls-7" cx="381" cy="259.2" r="2.5"/>
        <circle class="cls-7" cx="351" cy="229.2" r="2.5"/>
        <circle class="cls-7" cx="321" cy="259.2" r="2.5"/>
        <circle class="cls-7" cx="351" cy="259.2" r="1.12"/>
      </g>
      <g>
        <circle class="cls-7" cx="441" cy="289.2" r="2.5"/>
        <circle class="cls-7" cx="471" cy="259.2" r="2.5"/>
        <circle class="cls-7" cx="441" cy="229.2" r="2.5"/>
        <circle class="cls-7" cx="411" cy="259.2" r="2.5"/>
        <circle class="cls-7" cx="441" cy="259.2" r="1.12"/>
      </g>
      <g>
        <circle class="cls-7" cx="531" cy="289.2" r="2.5"/>
        <circle class="cls-7" cx="561" cy="259.2" r="2.5"/>
        <circle class="cls-7" cx="531" cy="229.2" r="2.5"/>
        <circle class="cls-7" cx="501" cy="259.2" r="2.5"/>
        <circle class="cls-7" cx="531" cy="259.2" r="1.12"/>
      </g>
      <g>
        <circle class="cls-7" cx="621" cy="289.2" r="2.5"/>
        <circle class="cls-7" cx="651" cy="259.2" r="2.5"/>
        <circle class="cls-7" cx="621" cy="229.2" r="2.5"/>
        <circle class="cls-7" cx="591" cy="259.2" r="2.5"/>
        <circle class="cls-7" cx="621" cy="259.2" r="1.12"/>
      </g>
      <g>
        <circle class="cls-7" cx="711" cy="289.2" r="2.5"/>
        <circle class="cls-7" cx="741" cy="259.2" r="2.5"/>
        <circle class="cls-7" cx="711" cy="229.2" r="2.5"/>
        <circle class="cls-7" cx="681" cy="259.2" r="2.5"/>
        <circle class="cls-7" cx="711" cy="259.2" r="1.12"/>
      </g>
    </g>
    <g>
      <g>
        <circle class="cls-7" cx="261" cy="406.93" r="2.5"/>
        <circle class="cls-7" cx="291" cy="436.93" r="2.5"/>
        <circle class="cls-7" cx="261" cy="466.93" r="2.5"/>
        <circle class="cls-7" cx="231" cy="436.93" r="2.5"/>
        <circle class="cls-7" cx="261" cy="436.93" r="1.12"/>
      </g>
      <g>
        <circle class="cls-7" cx="351" cy="406.93" r="2.5"/>
        <circle class="cls-7" cx="381" cy="436.93" r="2.5"/>
        <circle class="cls-7" cx="351" cy="466.93" r="2.5"/>
        <circle class="cls-7" cx="321" cy="436.93" r="2.5"/>
        <circle class="cls-7" cx="351" cy="436.93" r="1.12"/>
      </g>
      <g>
        <circle class="cls-7" cx="81" cy="466.93" r="2.5"/>
        <circle class="cls-7" cx="111" cy="436.93" r="2.5"/>
        <circle class="cls-7" cx="81" cy="406.93" r="2.5"/>
        <circle class="cls-7" cx="51" cy="436.93" r="2.5"/>
        <path class="cls-7" d="m82.12,436.93c0,.62-.5,1.12-1.12,1.12s-1.12-.5-1.12-1.12.5-1.12,1.12-1.13,1.12.5,1.12,1.13Z"/>
      </g>
      <g>
        <circle class="cls-7" cx="171" cy="466.93" r="2.5"/>
        <circle class="cls-7" cx="201" cy="436.93" r="2.5"/>
        <circle class="cls-7" cx="171" cy="406.93" r="2.5"/>
        <circle class="cls-7" cx="141" cy="436.93" r="2.5"/>
        <path class="cls-7" d="m172.12,436.93c0,.62-.5,1.12-1.12,1.12s-1.12-.5-1.12-1.12.5-1.12,1.12-1.13,1.12.5,1.12,1.13Z"/>
      </g>
      <g>
        <circle class="cls-7" cx="621" cy="466.93" r="2.5"/>
        <circle class="cls-7" cx="591" cy="436.93" r="2.5"/>
        <circle class="cls-7" cx="621" cy="406.93" r="2.5"/>
        <circle class="cls-7" cx="651" cy="436.93" r="2.5"/>
        <circle class="cls-7" cx="621" cy="436.93" r="1.12"/>
      </g>
      <g>
        <circle class="cls-7" cx="711" cy="466.93" r="2.5"/>
        <circle class="cls-7" cx="681" cy="436.93" r="2.5"/>
        <circle class="cls-7" cx="711" cy="406.93" r="2.5"/>
        <circle class="cls-7" cx="741" cy="436.93" r="2.5"/>
        <circle class="cls-7" cx="711" cy="436.93" r="1.12"/>
      </g>
      <g>
        <circle class="cls-7" cx="441" cy="466.93" r="2.5"/>
        <circle class="cls-7" cx="411" cy="436.93" r="2.5"/>
        <circle class="cls-7" cx="441" cy="406.93" r="2.5"/>
        <circle class="cls-7" cx="471" cy="436.93" r="2.5"/>
        <circle class="cls-7" cx="441" cy="436.93" r="1.12"/>
      </g>
      <g>
        <circle class="cls-7" cx="531" cy="466.93" r="2.5"/>
        <circle class="cls-7" cx="501" cy="436.93" r="2.5"/>
        <circle class="cls-7" cx="531" cy="406.93" r="2.5"/>
        <circle class="cls-7" cx="561" cy="436.93" r="2.5"/>
        <circle class="cls-7" cx="531" cy="436.93" r="1.12"/>
      </g>
    </g>
    <g>
      <g>
        <circle class="cls-7" cx="261" cy="516.93" r="2.5"/>
        <circle class="cls-7" cx="291" cy="546.93" r="2.5"/>
        <circle class="cls-7" cx="261" cy="576.93" r="2.5"/>
        <circle class="cls-7" cx="231" cy="546.93" r="2.5"/>
        <circle class="cls-7" cx="261" cy="546.93" r="1.13"/>
      </g>
      <g>
        <circle class="cls-7" cx="351" cy="516.93" r="2.5"/>
        <circle class="cls-7" cx="381" cy="546.93" r="2.5"/>
        <circle class="cls-7" cx="351" cy="576.93" r="2.5"/>
        <circle class="cls-7" cx="321" cy="546.93" r="2.5"/>
        <circle class="cls-7" cx="351" cy="546.93" r="1.13"/>
      </g>
      <g>
        <circle class="cls-7" cx="81" cy="576.93" r="2.5"/>
        <circle class="cls-7" cx="111" cy="546.93" r="2.5"/>
        <circle class="cls-7" cx="81" cy="516.93" r="2.5"/>
        <circle class="cls-7" cx="51" cy="546.93" r="2.5"/>
        <circle class="cls-7" cx="81" cy="546.93" r="1.13"/>
      </g>
      <g>
        <circle class="cls-7" cx="171" cy="576.93" r="2.5"/>
        <circle class="cls-7" cx="201" cy="546.93" r="2.5"/>
        <circle class="cls-7" cx="171" cy="516.93" r="2.5"/>
        <circle class="cls-7" cx="141" cy="546.93" r="2.5"/>
        <circle class="cls-7" cx="171" cy="546.93" r="1.12"/>
      </g>
      <g>
        <circle class="cls-7" cx="621" cy="516.93" r="2.5"/>
        <circle class="cls-7" cx="591" cy="546.93" r="2.5"/>
        <circle class="cls-7" cx="621" cy="576.93" r="2.5"/>
        <circle class="cls-7" cx="651" cy="546.93" r="2.5"/>
        <circle class="cls-7" cx="621" cy="546.93" r="1.12"/>
      </g>
      <g>
        <circle class="cls-7" cx="711" cy="516.93" r="2.5"/>
        <circle class="cls-7" cx="681" cy="546.93" r="2.5"/>
        <circle class="cls-7" cx="711" cy="576.93" r="2.5"/>
        <circle class="cls-7" cx="741" cy="546.93" r="2.5"/>
        <circle class="cls-7" cx="711" cy="546.93" r="1.12"/>
      </g>
      <g>
        <circle class="cls-7" cx="441" cy="576.93" r="2.5"/>
        <circle class="cls-7" cx="411" cy="546.93" r="2.5"/>
        <circle class="cls-7" cx="441" cy="516.93" r="2.5"/>
        <circle class="cls-7" cx="471" cy="546.93" r="2.5"/>
        <circle class="cls-7" cx="441" cy="546.93" r="1.12"/>
      </g>
      <g>
        <circle class="cls-7" cx="531" cy="576.93" r="2.5"/>
        <circle class="cls-7" cx="501" cy="546.93" r="2.5"/>
        <circle class="cls-7" cx="531" cy="516.93" r="2.5"/>
        <circle class="cls-7" cx="561" cy="546.93" r="2.5"/>
        <circle class="cls-7" cx="531" cy="546.93" r="1.12"/>
      </g>
    </g>
  </g>
  <g>
    <line class="cls-12" x1="48.5" y1="212.03" x2="743.5" y2="212.03"/>
    <line class="cls-12" x1="48.5" y1="499.77" x2="743.5" y2="499.77"/>
  </g>
  <g>
    <rect class="cls-11" x="248.52" y="133.67" width="25" height="2.5" rx=".99" ry=".99" transform="translate(395.93 -126.1) rotate(90)"/>
    <rect class="cls-8" x="248.48" y="162.19" width="25" height="2.5" rx=".99" ry=".99" transform="translate(97.54 424.43) rotate(-90)"/>
    <rect class="cls-11" x="54.21" y="257.94" width="25" height="2.5" rx=".99" ry=".99"/>
    <rect class="cls-8" x="68.48" y="243.73" width="25" height="2.5" rx=".99" ry=".99" transform="translate(325.96 163.99) rotate(90)"/>
    <rect class="cls-11" x="144.21" y="257.94" width="25" height="2.5" rx=".99" ry=".99"/>
    <rect class="cls-8" x="158.48" y="243.73" width="25" height="2.5" rx=".99" ry=".99" transform="translate(415.96 73.99) rotate(90)"/>
    <rect class="cls-11" x="262.79" y="257.95" width="25" height="2.5" rx=".99" ry=".99" transform="translate(550.59 518.39) rotate(180)"/>
    <rect class="cls-8" x="248.52" y="243.66" width="25" height="2.5" rx=".99" ry=".99" transform="translate(16.1 505.93) rotate(-90)"/>
    <rect class="cls-11" x="352.79" y="257.95" width="25" height="2.5" rx=".99" ry=".99" transform="translate(730.59 518.39) rotate(180)"/>
    <rect class="cls-8" x="338.52" y="243.66" width="25" height="2.5" rx=".99" ry=".99" transform="translate(106.1 595.93) rotate(-90)"/>
    <rect class="cls-8" x="442.76" y="257.94" width="25" height="2.5" rx=".99" ry=".99" transform="translate(910.53 518.39) rotate(-180)"/>
    <rect class="cls-11" x="428.51" y="243.66" width="25" height="2.5" rx=".99" ry=".99" transform="translate(196.1 685.93) rotate(-90)"/>
    <rect class="cls-8" x="532.76" y="257.94" width="25" height="2.5" rx=".99" ry=".99" transform="translate(1090.53 518.39) rotate(-180)"/>
    <rect class="cls-11" x="518.51" y="243.66" width="25" height="2.5" rx=".99" ry=".99" transform="translate(286.1 775.93) rotate(-90)"/>
    <rect class="cls-8" x="594.24" y="257.94" width="25" height="2.5" rx=".99" ry=".99"/>
    <rect class="cls-11" x="608.51" y="272.23" width="25" height="2.5" rx=".99" ry=".99" transform="translate(894.49 -347.54) rotate(90)"/>
    <rect class="cls-8" x="684.24" y="257.94" width="25" height="2.5" rx=".99" ry=".99"/>
    <rect class="cls-11" x="698.51" y="272.23" width="25" height="2.5" rx=".99" ry=".99" transform="translate(984.49 -437.54) rotate(90)"/>
    <rect class="cls-11" x="248.48" y="449.96" width="25" height="2.5" rx=".99" ry=".99" transform="translate(712.19 190.22) rotate(90)"/>
    <rect class="cls-8" x="234.24" y="435.71" width="25" height="2.5" rx=".99" ry=".99"/>
    <rect class="cls-11" x="338.48" y="449.96" width="25" height="2.5" rx=".99" ry=".99" transform="translate(802.19 100.22) rotate(90)"/>
    <rect class="cls-8" x="324.24" y="435.71" width="25" height="2.5" rx=".99" ry=".99"/>
    <rect class="cls-11" x="68.48" y="421.46" width="25" height="2.5" rx=".99" ry=".99" transform="translate(503.69 341.72) rotate(90)"/>
    <rect class="cls-8" x="54.24" y="435.71" width="25" height="2.5" rx=".99" ry=".99"/>
    <rect class="cls-11" x="158.48" y="421.46" width="25" height="2.5" rx=".99" ry=".99" transform="translate(593.69 251.72) rotate(90)"/>
    <rect class="cls-8" x="144.24" y="435.71" width="25" height="2.5" rx=".99" ry=".99"/>
    <rect class="cls-8" x="608.52" y="449.96" width="25" height="2.5" rx=".99" ry=".99" transform="translate(1072.22 -169.81) rotate(90)"/>
    <rect class="cls-11" x="622.76" y="435.71" width="25" height="2.5" rx=".99" ry=".99" transform="translate(1270.53 873.91) rotate(-180)"/>
    <rect class="cls-8" x="698.52" y="449.96" width="25" height="2.5" rx=".99" ry=".99" transform="translate(1162.22 -259.81) rotate(90)"/>
    <rect class="cls-11" x="712.76" y="435.71" width="25" height="2.5" rx=".99" ry=".99" transform="translate(1450.53 873.91) rotate(-180)"/>
    <rect class="cls-8" x="428.52" y="421.46" width="25" height="2.5" rx=".99" ry=".99" transform="translate(863.72 -18.31) rotate(90)"/>
    <rect class="cls-11" x="442.76" y="435.71" width="25" height="2.5" rx=".99" ry=".99" transform="translate(910.53 873.91) rotate(-180)"/>
    <rect class="cls-8" x="518.52" y="421.46" width="25" height="2.5" rx=".99" ry=".99" transform="translate(953.72 -108.31) rotate(90)"/>
    <rect class="cls-11" x="532.76" y="435.71" width="25" height="2.5" rx=".99" ry=".99" transform="translate(1090.53 873.91) rotate(-180)"/>
    <rect class="cls-11" x="70.54" y="162.2" width="25" height="2.5" rx=".99" ry=".99" transform="translate(-80.41 246.49) rotate(-90)"/>
    <rect class="cls-8" x="66.54" y="162.2" width="25" height="2.5" rx=".99" ry=".99" transform="translate(-84.41 242.49) rotate(-90)"/>
    <rect class="cls-11" x="338.52" y="133.67" width="25" height="2.5" rx=".99" ry=".99" transform="translate(485.93 -216.1) rotate(90)"/>
    <rect class="cls-8" x="338.48" y="162.19" width="25" height="2.5" rx=".99" ry=".99" transform="translate(187.54 514.43) rotate(-90)"/>
    <rect class="cls-11" x="160.54" y="162.2" width="25" height="2.5" rx=".99" ry=".99" transform="translate(9.59 336.49) rotate(-90)"/>
    <rect class="cls-8" x="156.54" y="162.2" width="25" height="2.5" rx=".99" ry=".99" transform="translate(5.59 332.49) rotate(-90)"/>
    <rect class="cls-8" x="608.52" y="162.19" width="25" height="2.5" rx=".99" ry=".99" transform="translate(457.57 784.46) rotate(-90)"/>
    <rect class="cls-11" x="608.48" y="133.67" width="25" height="2.5" rx=".99" ry=".99" transform="translate(755.9 -486.07) rotate(90)"/>
    <rect class="cls-8" x="426.46" y="133.7" width="25" height="2.5" rx=".99" ry=".99" transform="translate(304.01 573.91) rotate(-90)"/>
    <rect class="cls-11" x="430.46" y="133.7" width="25" height="2.5" rx=".99" ry=".99" transform="translate(308.01 577.91) rotate(-90)"/>
    <rect class="cls-8" x="698.52" y="162.19" width="25" height="2.5" rx=".99" ry=".99" transform="translate(547.57 874.46) rotate(-90)"/>
    <rect class="cls-11" x="698.48" y="133.67" width="25" height="2.5" rx=".99" ry=".99" transform="translate(845.9 -576.07) rotate(90)"/>
    <rect class="cls-8" x="516.46" y="133.7" width="25" height="2.5" rx=".99" ry=".99" transform="translate(394.01 663.91) rotate(-90)"/>
    <rect class="cls-11" x="520.46" y="133.7" width="25" height="2.5" rx=".99" ry=".99" transform="translate(398.01 667.91) rotate(-90)"/>
    <rect class="cls-11" x="622.77" y="547.7" width="25" height="2.5" rx=".99" ry=".99" transform="translate(1270.54 1097.9) rotate(180)"/>
    <rect class="cls-8" x="622.77" y="543.7" width="25" height="2.5" rx=".99" ry=".99" transform="translate(1270.54 1089.9) rotate(180)"/>
    <rect class="cls-11" x="712.77" y="547.7" width="25" height="2.5" rx=".99" ry=".99" transform="translate(1450.54 1097.9) rotate(180)"/>
    <rect class="cls-8" x="712.77" y="543.7" width="25" height="2.5" rx=".99" ry=".99" transform="translate(1450.54 1089.9) rotate(180)"/>
    <rect class="cls-11" x="442.76" y="545.68" width="25" height="2.5" rx=".99" ry=".99" transform="translate(910.51 1093.85) rotate(-180)"/>
    <rect class="cls-11" x="532.76" y="545.68" width="25" height="2.5" rx=".99" ry=".99" transform="translate(1090.51 1093.85) rotate(-180)"/>
    <rect class="cls-8" x="234.23" y="547.7" width="25" height="2.5" rx=".99" ry=".99"/>
    <rect class="cls-11" x="234.23" y="543.7" width="25" height="2.5" rx=".99" ry=".99"/>
    <rect class="cls-8" x="324.23" y="547.7" width="25" height="2.5" rx=".99" ry=".99"/>
    <rect class="cls-11" x="324.23" y="543.7" width="25" height="2.5" rx=".99" ry=".99"/>
    <rect class="cls-8" x="54.24" y="545.68" width="25" height="2.5" rx=".99" ry=".99"/>
    <rect class="cls-11" x="82.76" y="545.68" width="25" height="2.5" rx=".99" ry=".99" transform="translate(190.51 1093.85) rotate(180)"/>
    <rect class="cls-11" x="172.76" y="545.68" width="25" height="2.5" rx=".99" ry=".99" transform="translate(370.51 1093.85) rotate(180)"/>
    <rect class="cls-8" x="414.24" y="545.68" width="25" height="2.5" rx=".99" ry=".99"/>
    <rect class="cls-8" x="504.24" y="545.68" width="25" height="2.5" rx=".99" ry=".99"/>
    <rect class="cls-8" x="144.24" y="545.68" width="25" height="2.5" rx=".99" ry=".99"/>
  </g>
  <line class="cls-12" x1="396" y1="118.71" x2="396" y2="327.8"/>
  <line class="cls-12" x1="396" y1="404.43" x2="396" y2="604.31"/>
</svg>