<?xml version="1.0" encoding="UTF-8"?>
<svg id="Layer_1" data-name="Layer 1" xmlns="http://www.w3.org/2000/svg" viewBox="0 0 792 612">
  <defs>
    <style>
      .cls-1, .cls-2, .cls-3 {
        fill: none;
        stroke: #231f20;
        stroke-miterlimit: 10;
      }

      .cls-4, .cls-5 {
        fill: #00a14b;
      }

      .cls-4, .cls-6 {
        letter-spacing: -.01em;
      }

      .cls-7 {
        font-size: 25px;
      }

      .cls-7, .cls-8, .cls-9, .cls-10 {
        font-style: italic;
      }

      .cls-7, .cls-10 {
        font-family: Cambria-BoldItalic, Cambria;
        font-weight: 700;
      }

      .cls-11 {
        fill: #00aeef;
      }

      .cls-12 {
        letter-spacing: 0em;
      }

      .cls-13 {
        fill: #2e3192;
      }

      .cls-14 {
        letter-spacing: -.01em;
      }

      .cls-8 {
        font-size: 30px;
      }

      .cls-8, .cls-9 {
        font-family: Cambria-Italic, Cambria;
      }

      .cls-8, .cls-9, .cls-10, .cls-15, .cls-16 {
        fill: #231f20;
      }

      .cls-17 {
        letter-spacing: 0em;
      }

      .cls-9 {
        font-size: 16px;
      }

      .cls-10 {
        font-size: 35px;
      }

      .cls-2 {
        stroke-width: 4px;
      }

      .cls-18 {
        letter-spacing: 0em;
      }

      .cls-15 {
        letter-spacing: -.03em;
      }

      .cls-19 {
        letter-spacing: 0em;
      }

      .cls-20 {
        fill: #7f3f98;
      }

      .cls-21 {
        fill: #ed1c24;
      }

      .cls-22 {
        letter-spacing: 0em;
      }

      .cls-23 {
        letter-spacing: 0em;
      }

      .cls-24 {
        letter-spacing: .01em;
      }

      .cls-25 {
        letter-spacing: -.05em;
      }

      .cls-26 {
        fill: #ec008c;
      }

      .cls-3 {
        stroke-width: .5px;
      }
    </style>
  </defs>
  <text class="cls-10" transform="translate(479.87 57.34)"><tspan x="0" y="0">Type 5 → 2</tspan></text>
  <text class="cls-10" transform="translate(136.03 57.34)"><tspan x="0" y="0">Type 2 → 5</tspan></text>
  <line class="cls-2" x1="25.57" y1="294.1" x2="766.43" y2="294.1"/>
  <text class="cls-7" transform="translate(25.4 37.91)"><tspan class="cls-20" x="0" y="0">S</tspan><tspan class="cls-26" x="12.52" y="0"> </tspan><tspan class="cls-16" x="18.03" y="0">→ </tspan><tspan class="cls-11" x="44.48" y="0">D</tspan><tspan class="cls-16" x="61.45" y="0">-</tspan><tspan class="cls-5" x="69.58" y="0">D</tspan></text>
  <text class="cls-7" transform="translate(690.48 37.91)"><tspan class="cls-11" x="0" y="0">D</tspan><tspan class="cls-16" x="16.97" y="0">-</tspan><tspan class="cls-5" x="25.1" y="0">D</tspan><tspan class="cls-20" x="42.07" y="0"> </tspan><tspan class="cls-16" x="47.57" y="0">→ </tspan><tspan class="cls-20" x="74.02" y="0">S</tspan></text>
  <path class="cls-13" d="m528.55,140.86c0-.51-.51-.91-1.16-.91h-2.65c.03-.13.04-.27.04-.42v-48.33c.01-1.55-1.9-1.54-1.9,0l-.03,39.76c-1.09-10.45-5.64-11.6-20.49-11.6l2.56-2.6s-1.05-1.09-1.87-.5c-1.18.86-3.95,4.09-3.95,4.09,0,0,3.01,3.38,3.95,4.06.82.61,1.87-.47,1.87-.47l-2.58-2.51c18.04-.15,18.3,1.48,19.24,18.08,0,.16.01.3.04.44h-2.72c-.65,0-1.16.4-1.16.91s.51.91,1.16.91h8.49c.65,0,1.16-.41,1.16-.91Z"/>
  <path class="cls-13" d="m436.83,143.79v-53.54c-.01-1.55-1.92-1.54-1.92,0v47.97c0,.18-.15.34-.34.33-16.46-.11-19.35-11.16-19.25-19.36l2.68,2.69s1.11-1.08.5-1.91c-.85-1.17-4.13-3.9-4.13-3.9,0,0-3.42,2.75-4.14,3.9-.53.87.5,1.91.5,1.91l2.6-2.69c-.48,14.62,9.69,21.45,21.58,21.54v3.06c0,1.55,1.92,1.54,1.92,0Z"/>
  <path class="cls-16" d="m617.24,151.17c-.5,2.51-1.03,3.37-3.39,3.82-.04,0-.07.04-.08.07v3.6c0,.22-.1.44-.25.6s-.36.24-.59.24-.43-.09-.61-.24c-.16-.16-.24-.38-.24-.6v-3.6s-.05-.06-.09-.07c-2.35-.45-2.88-1.31-3.38-3.82-.08-.36-.04-.65.12-.83.17-.21.42-.24.56-.24.24,0,.43.22.56.45.13.23.2.47.21.54.25,1.71.73,2.29,1.85,2.29h.09s.07-.02.09-.06v-3.05c.12-.28.2-.48.31-.6.07-.06.15-.1.23-.13.05-.02.1-.03.14-.04.11-.02.24-.02.33,0,.05,0,.1.02.15.04.07,0,.15.06.22.13.12.12.21.31.3.6v.03s.02.03.02.05v2.94s0,.02,0,.04c0,.03.05.05.09.05,1.2.04,1.68-.54,1.93-2.29.03-.13.28-.99.76-.99h0c.14,0,.39.03.56.24.15.19.19.47.12.83Z"/>
  <path class="cls-16" d="m707.48,151.17c-.5,2.51-1.03,3.37-3.39,3.82-.04,0-.07.04-.08.07v3.6c0,.22-.1.44-.25.6s-.36.24-.59.24-.43-.09-.61-.24c-.16-.16-.24-.38-.24-.6v-3.6s-.05-.06-.09-.07c-2.35-.45-2.88-1.31-3.38-3.82-.08-.36-.04-.65.12-.83.17-.21.42-.24.56-.24.24,0,.43.22.56.45.13.23.2.47.21.54.25,1.71.73,2.29,1.85,2.29h.09s.07-.02.09-.06v-3.05c.12-.28.2-.48.31-.6.07-.06.15-.1.23-.13.05-.02.1-.03.14-.04.11-.02.24-.02.33,0,.05,0,.1.02.15.04.07,0,.15.06.22.13.12.12.21.31.3.6v.03s.02.03.02.05v2.94s0,.02,0,.04c0,.03.05.05.09.05,1.2.04,1.68-.54,1.93-2.29.03-.13.28-.99.76-.99h0c.14,0,.39.03.56.24.15.19.19.47.12.83Z"/>
  <path d="m435.67,152.28c-.71-.51-1.55-.82-2.45-.91v-1.11c0-.42-.34-.76-.77-.76h-.12c-.43,0-.77.34-.77.76v1.11c-.9.09-1.75.4-2.45.91-.71.48-1.09,1.08-1.14,1.75-.06.85.42,1.62.85,2.01.7.66,1.64,1.05,2.74,1.14v1.55c0,.42.34.76.77.76h.12c.43,0,.77-.34.77-.76v-1.55c1.1-.09,2.04-.48,2.74-1.14.43-.39.91-1.17.85-2.01-.05-.68-.43-1.26-1.14-1.75Zm-2.45,1.84c0-.41,0-.75.04-1.08,0-.11.1-.2.21-.21h.07c.8,0,1.4.28,1.68.79.25.45.22,1.01-.09,1.45-.34.52-.97.77-1.72.69-.1,0-.18-.1-.18-.21,0-.27,0-.56,0-.85,0-.2,0-.39,0-.59Zm-3.66-.49c.27-.51.87-.79,1.67-.79h.07c.12,0,.21.1.22.21.03.33.04.69.04,1.08,0,.2,0,.4,0,.6,0,.28,0,.57,0,.84,0,.11-.08.2-.18.21-.75.09-1.37-.17-1.72-.69-.3-.44-.33-1-.09-1.45Z"/>
  <path d="m525.43,152.28c-.71-.51-1.55-.82-2.45-.91v-1.11c0-.42-.34-.76-.77-.76h-.12c-.43,0-.77.34-.77.76v1.11c-.9.09-1.75.4-2.45.91-.71.48-1.09,1.08-1.14,1.75-.06.85.42,1.62.85,2.01.7.66,1.64,1.05,2.74,1.14v1.55c0,.42.34.76.77.76h.12c.43,0,.77-.34.77-.76v-1.55c1.1-.09,2.04-.48,2.74-1.14.43-.39.91-1.17.85-2.01-.05-.68-.43-1.26-1.14-1.75Zm-2.45,1.84c0-.41,0-.75.04-1.08,0-.11.1-.2.21-.21h.07c.8,0,1.4.28,1.68.79.25.45.22,1.01-.09,1.45-.34.52-.97.77-1.72.69-.1,0-.18-.1-.18-.21,0-.27,0-.56,0-.85,0-.2,0-.39,0-.59Zm-3.66-.49c.27-.51.87-.79,1.67-.79h.07c.12,0,.21.1.22.21.03.33.04.69.04,1.08,0,.2,0,.4,0,.6,0,.28,0,.57,0,.84,0,.11-.08.2-.18.21-.75.09-1.37-.17-1.72-.69-.3-.44-.33-1-.09-1.45Z"/>
  <rect class="cls-16" x="437.53" y="153.55" width="6.95" height="1.9" rx=".95" ry=".95"/>
  <rect class="cls-16" x="527.63" y="153.55" width="6.95" height="1.9" rx=".95" ry=".95"/>
  <rect class="cls-16" x="708.19" y="153.55" width="6.95" height="1.9" rx=".95" ry=".95"/>
  <path class="cls-13" d="m435.94,254.54v-53.54c-.01-1.55-1.92-1.54-1.92,0v47.97c0,.18-.15.34-.34.33-16.46-.11-19.35-11.16-19.25-19.36l2.68,2.69s1.11-1.08.5-1.91c-.85-1.17-4.13-3.9-4.13-3.9,0,0-3.42,2.75-4.14,3.9-.53.87.5,1.91.5,1.91l2.6-2.69c-.48,14.62,9.69,21.45,21.58,21.54v3.06c0,1.55,1.92,1.54,1.92,0Z"/>
  <path class="cls-13" d="m615.94,255.95v-53.54c-.01-1.55-1.92-1.54-1.92,0v47.97c0,.18-.15.34-.34.33-16.46-.11-19.35-11.16-19.25-19.36l2.68,2.69s1.11-1.08.5-1.91c-.85-1.17-4.13-3.9-4.13-3.9,0,0-3.42,2.75-4.14,3.9-.53.87.5,1.91.5,1.91l2.6-2.69c-.48,14.62,9.69,21.45,21.58,21.54,0,1.92,0,3.06,0,3.06,0,1.55,1.92,1.54,1.92,0Z"/>
  <path class="cls-13" d="m615.85,142.54v-53.54c-.01-1.55-1.92-1.54-1.92,0v47.97c0,.18-.15.34-.34.33-16.46-.11-19.35-11.16-19.25-19.36l2.68,2.69s1.11-1.08.5-1.91c-.85-1.17-4.13-3.9-4.13-3.9,0,0-3.42,2.75-4.14,3.9-.53.87.5,1.91.5,1.91l2.6-2.69c-.48,14.62,9.69,21.45,21.58,21.54,0,1.92,0,3.06,0,3.06,0,1.55,1.92,1.54,1.92,0Z"/>
  <path class="cls-13" d="m529.08,249.58c0-.51-.51-.91-1.16-.91h-2.65c.03-.13.04-.27.04-.42v-48.33c.01-1.55-1.9-1.54-1.9,0l-.03,39.76c-1.09-10.45-5.64-11.6-20.49-11.6l2.56-2.6s-1.05-1.09-1.87-.5c-1.18.86-3.95,4.09-3.95,4.09,0,0,3.01,3.38,3.95,4.06.82.61,1.87-.47,1.87-.47l-2.58-2.51c18.04-.15,18.3,1.48,19.24,18.08,0,.16.01.3.04.44h-2.72c-.65,0-1.16.4-1.16.91,0,.5.51.91,1.16.91h8.49c.65,0,1.16-.41,1.16-.91Z"/>
  <path class="cls-13" d="m707.81,251.21c0-.51-.51-.91-1.16-.91h-2.65c.03-.13.04-.27.04-.42v-48.33c.01-1.55-1.9-1.54-1.9,0l-.03,39.76c-1.09-10.45-5.64-11.6-20.49-11.6l2.56-2.6s-1.05-1.09-1.87-.5c-1.18.86-3.95,4.09-3.95,4.09,0,0,3.01,3.38,3.95,4.06.82.61,1.87-.47,1.87-.47l-2.58-2.51c18.04-.15,18.3,1.48,19.24,18.08,0,.16.01.3.04.44h-2.72c-.65,0-1.16.4-1.16.91s.51.91,1.16.91h8.49c.65,0,1.16-.41,1.16-.91Z"/>
  <path class="cls-13" d="m709.08,140.54c0-.51-.51-.91-1.16-.91h-2.65c.03-.13.04-.27.04-.42v-48.33c.01-1.55-1.9-1.54-1.9,0l-.03,39.76c-1.09-10.45-5.64-11.6-20.49-11.6l2.56-2.6s-1.05-1.09-1.87-.5c-1.18.86-3.95,4.09-3.95,4.09,0,0,3.01,3.38,3.95,4.06.82.61,1.87-.47,1.87-.47l-2.58-2.51c18.04-.15,18.3,1.48,19.24,18.08,0,.16.01.3.04.44h-2.72c-.65,0-1.16.4-1.16.91,0,.5.51.91,1.16.91h8.49c.65,0,1.16-.41,1.16-.91Z"/>
  <path class="cls-21" d="m444.12,101.49l2.65-2.72v32.81c-.01.54.42.97.95.97s.96-.43.96-.97v-32.67s2.62,2.58,2.62,2.58c0,0,1.09-1.05.5-1.87-.86-1.18-4.09-3.95-4.09-3.95,0,0-3.38,3.01-4.06,3.95-.61.82.47,1.87.47,1.87Z"/>
  <path class="cls-21" d="m534.12,99.74l2.65-2.72v32.81c-.01.54.42.97.95.97.53,0,.96-.43.96-.97v-32.67s2.62,2.58,2.62,2.58c0,0,1.09-1.05.5-1.87-.86-1.18-4.09-3.95-4.09-3.95,0,0-3.38,3.01-4.06,3.95-.61.82.47,1.87.47,1.87Z"/>
  <path class="cls-21" d="m722.73,125.43l-2.65,2.72v-32.81c.01-.54-.42-.97-.95-.97s-.96.43-.96.97v32.67s-2.62-2.58-2.62-2.58c0,0-1.09,1.05-.5,1.87.86,1.18,4.09,3.95,4.09,3.95,0,0,3.38-3.01,4.06-3.95.61-.82-.47-1.87-.47-1.87Z"/>
  <path class="cls-21" d="m632.73,124.43l-2.65,2.72v-32.81c.01-.54-.42-.97-.95-.97-.53,0-.96.43-.96.97v32.67s-2.62-2.58-2.62-2.58c0,0-1.09,1.05-.5,1.87.86,1.18,4.09,3.95,4.09,3.95,0,0,3.38-3.01,4.06-3.95.61-.82-.47-1.87-.47-1.87Z"/>
  <path class="cls-16" d="m544.06,157.63c-.93-2.27-1.86-4.39-2.21-5.2-.38-.84-.67-1.52-.74-1.72-.32-.87-.6-1.18-1.12-1.22-.5.04-.79.34-1.11,1.22-.07.2-.36.87-.73,1.72-.73,1.66-1.56,3.6-2.22,5.2-.28.71-.29,1.21-.03,1.52.19.23.49.34.9.34h6.43c.41,0,.71-.12.9-.34.12-.15.18-.34.18-.58,0-.26-.07-.57-.22-.94Zm-1.67.34h-4.8c.17-.42.49-1.25.87-2.18.56-1.41,1.21-3.07,1.53-3.9.39.98,1.22,3.11,1.83,4.63l.57,1.44Z"/>
  <path class="cls-16" d="m428.01,268.05c.06-.29,1.97-5.54,3.02-7.94.32-.73.61-.72.74-.72s.42,0,.74.72c1.05,2.4,2.96,7.64,3.02,7.94.23,1-.08,1.16-.44,1.3-.28.13-.86.02-1.12-.7-.16-.42-2.2-5.86-2.2-5.86,0,0-2.05,5.44-2.2,5.86-.25.72-.83.82-1.12.7-.36-.15-.67-.3-.44-1.3Z"/>
  <path class="cls-16" d="m517.69,268.05c.06-.29,1.97-5.54,3.02-7.94.32-.73.61-.72.74-.72s.42,0,.74.72c1.05,2.4,2.96,7.64,3.02,7.94.23,1-.08,1.16-.44,1.3-.28.13-.86.02-1.12-.7-.16-.42-2.2-5.86-2.2-5.86,0,0-2.05,5.44-2.2,5.86-.25.72-.83.82-1.12.7-.36-.15-.67-.3-.44-1.3Z"/>
  <path class="cls-16" d="m608.99,268.05c.06-.29,1.97-5.54,3.02-7.94.32-.73.61-.72.74-.72s.42,0,.74.72c1.05,2.4,2.96,7.64,3.02,7.94.23,1-.08,1.16-.44,1.3-.28.13-.86.02-1.12-.7-.16-.42-2.2-5.86-2.2-5.86,0,0-2.05,5.44-2.2,5.86-.25.72-.83.82-1.12.7-.36-.15-.67-.3-.44-1.3Z"/>
  <path class="cls-16" d="m632.34,260.65l-4.37,8.3c-.15.29-.45.46-.75.46-.13,0-.26-.04-.39-.1-.2-.11-.35-.28-.42-.5-.07-.21-.05-.45.06-.65l1.88-3.58-2.53-3.62c-.12-.11-.2-.27-.24-.47-.05-.25.03-.53.2-.71.15-.17.35-.27.58-.28.22,0,.45.07.61.21l2.2,3.29,1.65-3.14c.12-.2.29-.35.51-.42.22-.07.45-.04.65.07.22.12.38.33.43.59.03.19,0,.38-.08.55Z"/>
  <rect class="cls-16" x="617.47" y="263.45" width="6.95" height="1.9" rx=".95" ry=".95"/>
  <path class="cls-16" d="m721.18,261.14c-1.86,0-2.27,0-3.51,0-.46,0-1.11-.2-1.11-.85,0-.57.42-.88,1.07-.88,4.93,0,5.05-.05,5.58.38.28.22.43.73.15,1.14-1.71,2.48-4.64,6.6-4.64,6.6,0,0,2.47-.05,3.73-.05,1.57,0,1.46,1.88.13,1.88-8.37,0-8.83,1.14-1.4-8.22Z"/>
  <rect class="cls-16" x="707.64" y="263.45" width="6.95" height="1.9" rx=".95" ry=".95"/>
  <path class="cls-16" d="m455.71,259.41c-.46-.06-.96.28-1.19,1.14-.42,1.54-.92,3.7-1.44,5.63-1.11-2.72-1.86-4.39-2.5-4.38-.01,0-.02,0-.03.01-.01-.01-.02-.01-.03-.01-.64-.01-1.39,1.65-2.5,4.38-.51-1.93-1.02-4.09-1.44-5.63-.24-.86-.73-1.2-1.19-1.14-.59.07-.98.49-.74,1.25.25.81,1.84,6.07,2.3,7.72.47,1.65,1.59.9,1.8.49.21-.41,1.36-3.67,1.8-4.59.44.92,1.59,4.18,1.8,4.59.21.41,1.33,1.16,1.8-.49.46-1.64,2.05-6.9,2.3-7.72.24-.76-.15-1.18-.74-1.25Z"/>
  <rect class="cls-16" x="436.95" y="263.45" width="6.95" height="1.9" rx=".95" ry=".95"/>
  <path class="cls-16" d="m542.8,267.91c.16.19.21.44.19.68-.03.24-.16.46-.34.61-.4.3-.98.23-1.3-.17l-2.45-3.14-2.45,3.14c-.18.23-.45.36-.72.36-.19,0-.4-.07-.57-.19-.19-.15-.32-.37-.35-.61-.03-.24.03-.49.19-.68l2.73-3.51-2.73-3.51c-.13-.17-.19-.36-.19-.57,0-.28.14-.56.36-.73.19-.15.42-.21.67-.19.24.03.47.16.61.35l2.45,3.14,2.44-3.14c.33-.41.91-.48,1.31-.16.22.17.35.43.35.72,0,.2-.07.4-.19.57l-2.73,3.51,2.73,3.51Z"/>
  <rect class="cls-16" x="527.07" y="263.45" width="6.95" height="1.9" rx=".95" ry=".95"/>
  <path class="cls-16" d="m450.84,153.69c.48.44.43.65.44.96s-.23.47-.53.71c-1.75,1.43-2.78,2.44-2.78,2.44,0,0,.42.05,4.42.05.4,0,.79.33.79.78,0,.48-.22.88-.64.88-2.35,0-4.02-.05-5.97-.05-.79,0-1.34-.19-1.52-.57-.17-.36-.12-.9.55-1.52,1.91-1.72,3.47-2.88,3.47-2.88,0,0-2.17-1.97-3.75-3.56-.33-.33-.43-.62-.31-.85.11-.2.55-.57.92-.57h6.71c.74,0,.77,1.31,0,1.31-3.37,0-5.2.02-5.2.02"/>
  <path class="cls-16" d="m629.38,149.5c-1.33,0-3.23,1.68-3.23,5,0,2.56,1.22,5,3.23,5s3.27-2.44,3.27-5c0-3.48-1.94-5-3.27-5Zm.01,1.37c.96,0,1.64,1.13,1.7,1.93.02.3,0,.81-.55.81h-2.33c-.46,0-.51-.5-.5-.76.07-.8.81-1.98,1.69-1.98Zm0,7.26c-1.08,0-1.72-1.28-1.79-2.08-.01-.25,0-.76.5-.76h2.53c.56,0,.58.5.55.81-.06.8-.72,2.03-1.8,2.03Z"/>
  <rect class="cls-16" x="617.68" y="153.55" width="6.95" height="1.9" rx=".95" ry=".95"/>
  <path class="cls-16" d="m698.74,268.05c.06-.29,1.97-5.54,3.02-7.94.32-.73.61-.72.74-.72s.42,0,.74.72c1.05,2.4,2.96,7.64,3.02,7.94.23,1-.08,1.16-.44,1.3-.28.13-.86.02-1.12-.7-.16-.42-2.2-5.86-2.2-5.86,0,0-2.05,5.44-2.2,5.86-.25.72-.83.82-1.12.7-.36-.15-.67-.3-.44-1.3Z"/>
  <path class="cls-16" d="m726.18,159.5h-3.54c-.32,0-.53-.32-.41-.62,2.67-6.29.99-7.71-1.08-7.85-.04,0-.08,0-.12,0h-.02s-.09,0-.13,0c-.04,0-.08,0-.12,0-2.07.14-3.75,1.56-1.08,7.85.12.29-.09.62-.41.62h-3.54c-.14,0-.66-1.27.12-1.73.69-.41.99.09,1.81.11-2.24-4.96.04-7.96,2.78-8.36.08-.02.94-.02,1.02,0,2.74.41,5.02,3.4,2.78,8.36.82-.02,1.12-.51,1.81-.11.78.46.26,1.73.12,1.73Z"/>
  <path class="cls-21" d="m608.38,210.4l-2.72,2.65h32.81c.54-.01.97.42.97.95,0,.53-.43.96-.97.96h-32.67s2.58,2.62,2.58,2.62c0,0-1.05,1.09-1.87.5-1.18-.86-3.95-4.09-3.95-4.09,0,0,3.01-3.38,3.95-4.06.82-.61,1.87.47,1.87.47Z"/>
  <path class="cls-21" d="m697.11,210.87l-2.72,2.65h32.81c.54-.01.97.42.97.95,0,.53-.43.96-.97.96h-32.67s2.58,2.62,2.58,2.62c0,0-1.05,1.09-1.87.5-1.18-.86-3.95-4.09-3.95-4.09,0,0,3.01-3.38,3.95-4.06.82-.61,1.87.47,1.87.47Z"/>
  <path class="cls-21" d="m453.62,217.33l2.72-2.65h-32.81c-.54.01-.97-.42-.97-.95,0-.53.43-.96.97-.96h32.67s-2.58-2.62-2.58-2.62c0,0,1.05-1.09,1.87-.5,1.18.86,3.95,4.09,3.95,4.09,0,0-3.01,3.38-3.95,4.06-.82.61-1.87-.47-1.87-.47Z"/>
  <path class="cls-21" d="m543.62,216.95l2.72-2.65h-32.81c-.54.01-.97-.42-.97-.95,0-.53.43-.96.97-.96h32.67s-2.58-2.62-2.58-2.62c0,0,1.05-1.09,1.87-.5,1.18.86,3.95,4.09,3.95,4.09,0,0-3.01,3.38-3.95,4.06-.82.61-1.87-.47-1.87-.47Z"/>
  <path class="cls-21" d="m104.07,234.63h-.13c-.4,0-.72-.33-.72-.72v-3.1s-42.81,0-42.81,0l2.58,2.62s-1.05,1.09-1.87.5c-1.18-.86-3.95-4.09-3.95-4.09,0,0,3.01-3.38,3.95-4.06.82-.61,1.87.47,1.87.47l-2.72,2.65h42.95v-3.11c0-.4.32-.73.72-.73h.13c.4,0,.73.33.73.73v8.12c0,.39-.33.72-.73.72Z"/>
  <path class="cls-21" d="m238.84,226.2h.13c.4,0,.72.33.72.72v3.1s42.81,0,42.81,0l-2.58-2.62s1.05-1.09,1.87-.5c1.18.86,3.95,4.09,3.95,4.09,0,0-3.01,3.38-3.95,4.06-.82.61-1.87-.47-1.87-.47l2.72-2.65h-42.95v3.11c0,.4-.32.73-.72.73h-.13c-.4,0-.73-.33-.73-.73v-8.12c0-.39.33-.72.73-.72Z"/>
  <path class="cls-21" d="m328.64,225.71h.13c.4,0,.72.33.72.72v3.1s42.81,0,42.81,0l-2.58-2.62s1.05-1.09,1.87-.5c1.18.86,3.95,4.09,3.95,4.09,0,0-3.01,3.38-3.95,4.06-.82.61-1.87-.47-1.87-.47l2.72-2.65h-42.95v3.11c0,.4-.32.73-.72.73h-.13c-.4,0-.73-.33-.73-.73v-8.12c0-.39.33-.72.73-.72Z"/>
  <path class="cls-21" d="m194.07,234.12h-.13c-.4,0-.72-.33-.72-.72v-3.1s-42.81,0-42.81,0l2.58,2.62s-1.05,1.09-1.87.5c-1.18-.86-3.95-4.09-3.95-4.09,0,0,3.01-3.38,3.95-4.06.82-.61,1.87.47,1.87.47l-2.72,2.65h42.95v-3.11c0-.4.32-.73.72-.73h.13c.4,0,.73.33.73.73v8.12c0,.39-.33.72-.73.72Z"/>
  <path class="cls-16" d="m270.02,151.17c-.5,2.51-1.03,3.37-3.39,3.82-.04,0-.07.04-.08.07v3.6c0,.22-.1.44-.25.6s-.36.24-.59.24-.43-.09-.61-.24c-.16-.16-.24-.38-.24-.6v-3.6s-.05-.06-.09-.07c-2.35-.45-2.88-1.31-3.38-3.82-.08-.36-.04-.65.12-.83.17-.21.42-.24.56-.24.24,0,.43.22.56.45.13.23.2.47.21.54.25,1.71.73,2.29,1.85,2.29h.09s.07-.02.09-.06v-3.05c.12-.28.2-.48.31-.6.07-.06.15-.1.23-.13.05-.02.1-.03.14-.04.11-.02.24-.02.33,0,.05,0,.1.02.15.04.07,0,.15.06.22.13.12.12.21.31.3.6v.03s.02.03.02.05v2.94s0,.02,0,.04c0,.03.05.05.09.05,1.2.04,1.68-.54,1.93-2.29.03-.13.28-.99.76-.99h0c.14,0,.39.03.56.24.15.19.19.47.12.83Z"/>
  <path class="cls-16" d="m359.5,151.17c-.5,2.51-1.03,3.37-3.39,3.82-.04,0-.07.04-.08.07v3.6c0,.22-.1.44-.25.6s-.36.24-.59.24-.43-.09-.61-.24c-.16-.16-.24-.38-.24-.6v-3.6s-.05-.06-.09-.07c-2.35-.45-2.88-1.31-3.38-3.82-.08-.36-.04-.65.12-.83.17-.21.42-.24.56-.24.24,0,.43.22.56.45.13.23.2.47.21.54.25,1.71.73,2.29,1.85,2.29h.09s.07-.02.09-.06v-3.05c.12-.28.2-.48.31-.6.07-.06.15-.1.23-.13.05-.02.1-.03.14-.04.11-.02.24-.02.33,0,.05,0,.1.02.15.04.07,0,.15.06.22.13.12.12.21.31.3.6v.03s.02.03.02.05v2.94s0,.02,0,.04c0,.03.05.05.09.05,1.2.04,1.68-.54,1.93-2.29.03-.13.28-.99.76-.99h0c.14,0,.39.03.56.24.15.19.19.47.12.83Z"/>
  <path d="m88.9,152.28c-.71-.51-1.55-.82-2.45-.91v-1.11c0-.42-.34-.76-.77-.76h-.12c-.43,0-.77.34-.77.76v1.11c-.9.09-1.75.4-2.45.91-.71.48-1.09,1.08-1.14,1.75-.06.85.42,1.62.85,2.01.7.66,1.64,1.05,2.74,1.14v1.55c0,.42.34.76.77.76h.12c.43,0,.77-.34.77-.76v-1.55c1.1-.09,2.04-.48,2.74-1.14.43-.39.91-1.17.85-2.01-.05-.68-.43-1.26-1.14-1.75Zm-2.45,1.84c0-.41,0-.75.04-1.08,0-.11.1-.2.21-.21h.07c.8,0,1.4.28,1.68.79.25.45.22,1.01-.09,1.45-.34.52-.97.77-1.72.69-.1,0-.18-.1-.18-.21,0-.27,0-.56,0-.85,0-.2,0-.39,0-.59Zm-3.66-.49c.27-.51.87-.79,1.67-.79h.07c.12,0,.21.1.22.21.03.33.04.69.04,1.08,0,.2,0,.4,0,.6,0,.28,0,.57,0,.84,0,.11-.08.2-.18.21-.75.09-1.37-.17-1.72-.69-.3-.44-.33-1-.09-1.45Z"/>
  <path d="m178.21,152.28c-.71-.51-1.55-.82-2.45-.91v-1.11c0-.42-.34-.76-.77-.76h-.12c-.43,0-.77.34-.77.76v1.11c-.9.09-1.75.4-2.45.91-.71.48-1.09,1.08-1.14,1.75-.06.85.42,1.62.85,2.01.7.66,1.64,1.05,2.74,1.14v1.55c0,.42.34.76.77.76h.12c.43,0,.77-.34.77-.76v-1.55c1.1-.09,2.04-.48,2.74-1.14.43-.39.91-1.17.85-2.01-.05-.68-.43-1.26-1.14-1.75Zm-2.45,1.84c0-.41,0-.75.04-1.08,0-.11.1-.2.21-.21h.07c.8,0,1.4.28,1.68.79.25.45.22,1.01-.09,1.45-.34.52-.97.77-1.72.69-.1,0-.18-.1-.18-.21,0-.27,0-.56,0-.85,0-.2,0-.39,0-.59Zm-3.66-.49c.27-.51.87-.79,1.67-.79h.07c.12,0,.21.1.22.21.03.33.04.69.04,1.08,0,.2,0,.4,0,.6,0,.28,0,.57,0,.84,0,.11-.08.2-.18.21-.75.09-1.37-.17-1.72-.69-.3-.44-.33-1-.09-1.45Z"/>
  <path class="cls-16" d="m81.03,268.05c.06-.29,1.97-5.54,3.02-7.94.32-.73.61-.72.74-.72s.42,0,.74.72c1.05,2.4,2.96,7.64,3.02,7.94.23,1-.08,1.16-.44,1.3-.28.13-.86.02-1.12-.7-.16-.42-2.2-5.86-2.2-5.86,0,0-2.05,5.44-2.2,5.86-.25.72-.83.82-1.12.7-.36-.15-.67-.3-.44-1.3Z"/>
  <path class="cls-16" d="m260.12,268.05c.06-.29,1.97-5.54,3.02-7.94.32-.73.61-.72.74-.72s.42,0,.74.72c1.05,2.4,2.96,7.64,3.02,7.94.23,1-.08,1.16-.44,1.3-.28.13-.86.02-1.12-.7-.16-.42-2.2-5.86-2.2-5.86,0,0-2.05,5.44-2.2,5.86-.25.72-.83.82-1.12.7-.36-.15-.67-.3-.44-1.3Z"/>
  <path class="cls-16" d="m352.08,268.05c.06-.29,1.97-5.54,3.02-7.94.32-.73.61-.72.74-.72s.42,0,.74.72c1.05,2.4,2.96,7.64,3.02,7.94.23,1-.08,1.16-.44,1.3-.28.13-.86.02-1.12-.7-.16-.42-2.2-5.86-2.2-5.86,0,0-2.05,5.44-2.2,5.86-.25.72-.83.82-1.12.7-.36-.15-.67-.3-.44-1.3Z"/>
  <path class="cls-16" d="m170.76,268.05c.06-.29,1.97-5.54,3.02-7.94.32-.73.61-.72.74-.72s.42,0,.74.72c1.05,2.4,2.96,7.64,3.02,7.94.23,1-.08,1.16-.44,1.3-.28.13-.86.02-1.12-.7-.16-.42-2.2-5.86-2.2-5.86,0,0-2.05,5.44-2.2,5.86-.25.72-.83.82-1.12.7-.36-.15-.67-.3-.44-1.3Z"/>
  <path class="cls-13" d="m163.24,137.14s-3.23-2.77-4.09-3.95c-.59-.82.5-1.87.5-1.87l2.61,2.57v-36.55c-.61,8.97-7.4,9.68-20.59,9.68-1.45,0-1.43-2.08.03-2.07,18.08.15,19.28-1.12,19.28-18.08,0-.16.01-.3.04-.44h-2.72c-.65,0-1.16-.4-1.16-.91s.51-.91,1.16-.91h8.49c.65,0,1.16.41,1.16.91s-.51.91-1.16.91h-2.65c.03.13.04.27.04.42v47.04l2.65-2.57s1.08,1.05.47,1.87c-.68.94-4.06,3.95-4.06,3.95Z"/>
  <path class="cls-13" d="m342.55,139.08s-3.23-2.77-4.09-3.95c-.59-.82.5-1.87.5-1.87l2.61,2.57v-36.55c-.61,8.97-7.4,9.68-20.59,9.68-1.45,0-1.43-2.08.03-2.07,18.08.15,19.28-1.12,19.28-18.08,0-.16.01-.3.04-.44h-2.72c-.65,0-1.16-.4-1.16-.91,0-.5.51-.91,1.16-.91h8.49c.65,0,1.16.41,1.16.91,0,.51-.51.91-1.16.91h-2.65c.03.13.04.27.04.42,0,1.6,0,47.04,0,47.04l2.65-2.57s1.08,1.05.47,1.87c-.68.94-4.06,3.95-4.06,3.95Z"/>
  <path class="cls-13" d="m164.52,249.08s-3.23-2.77-4.09-3.95c-.59-.82.5-1.87.5-1.87l2.61,2.57v-36.55c-.61,8.97-7.4,9.68-20.59,9.68-1.45,0-1.43-2.08.03-2.07,18.08.15,19.28-1.12,19.28-18.08,0-.16.01-.3.04-.44h-2.72c-.65,0-1.16-.4-1.16-.91,0-.5.51-.91,1.16-.91h8.49c.65,0,1.16.41,1.16.91,0,.51-.51.91-1.16.91h-2.65c.03.13.04.27.04.42,0,1.6,0,47.04,0,47.04l2.65-2.57s1.08,1.05.47,1.87c-.68.94-4.06,3.95-4.06,3.95Z"/>
  <path class="cls-13" d="m343.86,248.65s-3.23-2.77-4.09-3.95c-.59-.82.5-1.87.5-1.87l2.61,2.57v-36.55c-.61,8.97-7.4,9.68-20.59,9.68-1.45,0-1.43-2.08.03-2.07,18.08.15,19.28-1.12,19.28-18.08,0-.16.01-.3.04-.44h-2.72c-.65,0-1.16-.4-1.16-.91,0-.5.51-.91,1.16-.91h8.49c.65,0,1.16.41,1.16.91,0,.51-.51.91-1.16.91h-2.65c.03.13.04.27.04.42,0,1.6,0,47.04,0,47.04l2.65-2.57s1.08,1.05.47,1.87c-.68.94-4.06,3.95-4.06,3.95Z"/>
  <path class="cls-13" d="m74.99,135.83l2.65-2.65s1.08,1.05.47,1.87c-.68.94-4.06,3.95-4.06,3.95,0,0-3.23-2.77-4.09-3.95-.59-.82.5-1.87.5-1.87l2.61,2.65v-46.81c0-.18-.06-.3-.31-.3-6.55,0-19.39,2.35-19.39,19.75,0,1.61-1.81,1.66-1.81,0,0-15.57,9.63-21.53,21.2-21.69.15,0,.3-.11.3-.26v-3.03c0-.54.43-.97.96-.97.53,0,.96.43.96.97v52.34Z"/>
  <path class="cls-13" d="m254.03,134.61l2.65-2.65s1.08,1.05.47,1.87c-.68.94-4.06,3.95-4.06,3.95,0,0-3.23-2.77-4.09-3.95-.59-.82.5-1.87.5-1.87l2.61,2.65v-46.81c0-.18-.06-.3-.31-.3-6.55,0-19.39,2.35-19.39,19.75,0,1.61-1.81,1.66-1.81,0,0-15.57,9.63-21.53,21.2-21.69.15,0,.3-.11.3-.26v-3.03c0-.54.43-.97.96-.97s.96.43.96.97v52.34Z"/>
  <path class="cls-13" d="m74.53,243.88l2.65-2.65s1.08,1.05.47,1.87c-.68.94-4.06,3.95-4.06,3.95,0,0-3.23-2.77-4.09-3.95-.59-.82.5-1.87.5-1.87l2.61,2.65v-46.81c0-.18-.06-.3-.31-.3-6.55,0-19.39,2.35-19.39,19.75,0,1.61-1.81,1.66-1.81,0,0-15.57,9.63-21.53,21.2-21.69.15,0,.3-.11.3-.26v-3.03c0-.54.43-.97.96-.97s.96.43.96.97v52.34Z"/>
  <path class="cls-13" d="m254.81,244.18l2.65-2.65s1.08,1.05.47,1.87c-.68.94-4.06,3.95-4.06,3.95,0,0-3.23-2.77-4.09-3.95-.59-.82.5-1.87.5-1.87l2.61,2.65v-46.81c0-.18-.06-.3-.31-.3-6.55,0-19.39,2.35-19.39,19.75,0,1.61-1.81,1.66-1.81,0,0-15.57,9.63-21.53,21.2-21.69.15,0,.3-.11.3-.26v-3.03c0-.54.43-.97.96-.97s.96.43.96.97v52.34Z"/>
  <rect class="cls-16" x="90.78" y="153.55" width="6.95" height="1.9" rx=".95" ry=".95"/>
  <rect class="cls-16" x="180.41" y="153.55" width="6.95" height="1.9" rx=".95" ry=".95"/>
  <rect class="cls-16" x="271.52" y="153.55" width="6.95" height="1.9" rx=".95" ry=".95"/>
  <rect class="cls-16" x="360.5" y="153.55" width="6.95" height="1.9" rx=".95" ry=".95"/>
  <rect class="cls-16" x="89.08" y="263.45" width="6.95" height="1.9" rx=".95" ry=".95"/>
  <rect class="cls-16" x="179.12" y="263.45" width="6.95" height="1.9" rx=".95" ry=".95"/>
  <rect class="cls-16" x="267.76" y="263.45" width="6.95" height="1.9" rx=".95" ry=".95"/>
  <rect class="cls-16" x="360.43" y="263.45" width="6.95" height="1.9" rx=".95" ry=".95"/>
  <path class="cls-21" d="m84.15,135.9v-.13c0-.4.33-.72.72-.72h3.1s0-42.81,0-42.81l-2.62,2.58s-1.09-1.05-.5-1.87c.86-1.18,4.09-3.95,4.09-3.95,0,0,3.38,3.01,4.06,3.95.61.82-.47,1.87-.47,1.87l-2.65-2.72v42.95h3.11c.4,0,.73.32.73.72v.13c0,.4-.33.73-.73.73h-8.12c-.39,0-.72-.33-.72-.73Z"/>
  <path class="cls-21" d="m174.05,135.9v-.13c0-.4.33-.72.72-.72h3.1s0-42.81,0-42.81l-2.62,2.58s-1.09-1.05-.5-1.87c.86-1.18,4.09-3.95,4.09-3.95,0,0,3.38,3.01,4.06,3.95.61.82-.47,1.87-.47,1.87l-2.65-2.72v42.95h3.11c.4,0,.73.32.73.72v.13c0,.4-.33.73-.73.73h-8.12c-.39,0-.72-.33-.72-.73Z"/>
  <path class="cls-21" d="m251.82,96.32v.13c0,.4-.33.72-.72.72h-3.1s0,42.81,0,42.81l2.62-2.58s1.09,1.05.5,1.87c-.86,1.18-4.09,3.95-4.09,3.95,0,0-3.38-3.01-4.06-3.95-.61-.82.47-1.87.47-1.87l2.65,2.72v-42.95h-3.11c-.4,0-.73-.32-.73-.72v-.13c0-.4.33-.73.73-.73h8.12c.39,0,.72.33.72.73Z"/>
  <path class="cls-21" d="m339.68,82.38v.13c0,.4-.33.72-.72.72h-3.1s0,42.81,0,42.81l2.62-2.58s1.09,1.05.5,1.87c-.86,1.18-4.09,3.95-4.09,3.95,0,0-3.38-3.01-4.06-3.95-.61-.82.47-1.87.47-1.87l2.65,2.72v-42.95h-3.11c-.4,0-.73-.32-.73-.72v-.13c0-.4.33-.73.73-.73h8.12c.39,0,.72.33.72.73Z"/>
  <path class="cls-16" d="m79.65,149.51c-.46-.06-.96.28-1.19,1.14-.42,1.54-.92,3.7-1.44,5.63-1.11-2.72-1.86-4.39-2.5-4.38-.01,0-.02,0-.03.01-.01-.01-.02-.01-.03-.01-.64-.01-1.39,1.65-2.5,4.38-.51-1.93-1.02-4.09-1.44-5.63-.24-.86-.73-1.2-1.19-1.14-.59.07-.98.49-.74,1.25.25.81,1.84,6.07,2.3,7.72.47,1.65,1.59.9,1.8.49.21-.41,1.36-3.67,1.8-4.59.44.92,1.59,4.18,1.8,4.59.21.41,1.33,1.16,1.8-.49.46-1.64,2.05-6.9,2.3-7.72.24-.76-.15-1.18-.74-1.25Z"/>
  <path class="cls-16" d="m350.21,269.4h-3.54c-.32,0-.53-.32-.41-.62,2.67-6.29.99-7.71-1.08-7.85-.04,0-.08,0-.12,0h-.02s-.09,0-.13,0c-.04,0-.08,0-.12,0-2.07.14-3.75,1.56-1.08,7.85.12.29-.09.62-.41.62h-3.54c-.14,0-.66-1.27.12-1.73.69-.41.99.09,1.81.11-2.24-4.96.04-7.96,2.78-8.36.08-.02.94-.02,1.02,0,2.74.41,5.02,3.4,2.78,8.36.82-.02,1.12-.51,1.81-.11.78.46.26,1.73.12,1.73Z"/>
  <path class="cls-16" d="m169.3,267.54c-.93-2.27-1.86-4.39-2.21-5.2-.38-.84-.67-1.52-.74-1.72-.32-.87-.6-1.18-1.12-1.22-.5.04-.79.34-1.11,1.22-.07.2-.36.87-.73,1.72-.73,1.66-1.56,3.6-2.22,5.2-.28.71-.29,1.21-.03,1.52.19.23.49.34.9.34h6.43c.41,0,.71-.12.9-.34.12-.15.18-.34.18-.58,0-.26-.07-.57-.22-.94Zm-1.67.34h-4.8c.17-.42.49-1.25.87-2.18.56-1.41,1.21-3.07,1.53-3.9.39.98,1.22,3.11,1.83,4.63l.57,1.44Z"/>
  <path class="cls-16" d="m77.26,263.59c.48.44.43.65.44.96s-.23.47-.53.71c-1.75,1.43-2.78,2.44-2.78,2.44,0,0,.42.05,4.42.05.4,0,.79.33.79.78,0,.48-.22.88-.64.88-2.35,0-4.02-.05-5.97-.05-.79,0-1.34-.19-1.52-.57-.17-.36-.12-.9.55-1.52,1.91-1.72,3.47-2.88,3.47-2.88,0,0-2.17-1.97-3.75-3.56-.33-.33-.43-.62-.31-.85.11-.2.55-.57.92-.57h6.71c.74,0,.77,1.31,0,1.31-3.37,0-5.2.02-5.2.02l3.38,2.85Z"/>
  <path class="cls-16" d="m260.04,150.74l-4.37,8.3c-.15.29-.45.46-.75.46-.13,0-.26-.04-.39-.1-.2-.11-.35-.28-.42-.5-.07-.21-.05-.45.06-.65l1.88-3.58-2.53-3.62c-.12-.11-.2-.27-.24-.47-.05-.25.03-.53.2-.71.15-.17.35-.27.58-.28.22,0,.45.07.61.21l2.2,3.29,1.65-3.14c.12-.2.29-.35.51-.42.22-.07.45-.04.65.07.22.12.38.33.43.59.03.19,0,.38-.08.55Z"/>
  <path class="cls-16" d="m169.68,158.01c.16.19.21.44.19.68-.03.24-.16.46-.34.61-.4.3-.98.23-1.3-.17l-2.45-3.14-2.45,3.14c-.18.23-.45.36-.72.36-.19,0-.4-.07-.57-.19-.19-.15-.32-.37-.35-.61-.03-.24.03-.49.19-.68l2.73-3.51-2.73-3.51c-.13-.17-.19-.36-.19-.57,0-.28.14-.56.36-.73.19-.15.42-.21.67-.19.24.03.47.16.61.35l2.45,3.14,2.44-3.14c.33-.41.91-.48,1.31-.16.22.17.35.43.35.72,0,.2-.07.4-.19.57l-2.73,3.51,2.73,3.51Z"/>
  <path class="cls-16" d="m347.28,151.24c-1.86,0-2.27,0-3.51,0-.46,0-1.11-.2-1.11-.85,0-.57.42-.88,1.07-.88,4.93,0,5.05-.05,5.58.38.28.22.43.73.15,1.14-1.71,2.48-4.64,6.6-4.64,6.6,0,0,2.47-.05,3.73-.05,1.57,0,1.46,1.88.13,1.88-8.37,0-8.83,1.14-1.4-8.22Z"/>
  <path class="cls-16" d="m255.53,259.4c-1.33,0-3.23,1.68-3.23,5,0,2.56,1.22,5,3.23,5s3.27-2.44,3.27-5c0-3.48-1.94-5-3.27-5Zm.01,1.37c.96,0,1.64,1.13,1.7,1.93.02.3,0,.81-.55.81h-2.33c-.46,0-.51-.5-.5-.76.07-.8.81-1.98,1.69-1.98Zm0,7.26c-1.08,0-1.72-1.28-1.79-2.08-.01-.25,0-.76.5-.76h2.53c.56,0,.58.5.55.81-.06.8-.72,2.03-1.8,2.03Z"/>
  <line class="cls-3" x1="741.92" y1="172.54" x2="50.08" y2="172.54"/>
  <g>
    <g>
      <circle class="cls-16" cx="51" cy="112.81" r="2.5"/>
      <circle class="cls-16" cx="81" cy="142.81" r="2.5"/>
      <circle class="cls-16" cx="111" cy="112.81" r="2.5"/>
      <circle class="cls-16" cx="81" cy="82.81" r="2.5"/>
      <circle class="cls-16" cx="81" cy="112.81" r="1.12"/>
    </g>
    <g>
      <circle class="cls-16" cx="141" cy="112.81" r="2.5"/>
      <circle class="cls-16" cx="171" cy="142.81" r="2.5"/>
      <circle class="cls-16" cx="201" cy="112.81" r="2.5"/>
      <circle class="cls-16" cx="171" cy="82.81" r="2.5"/>
      <circle class="cls-16" cx="171" cy="112.81" r="1.12"/>
    </g>
    <g>
      <circle class="cls-16" cx="261" cy="82.81" r="2.5"/>
      <circle class="cls-16" cx="231" cy="112.81" r="2.5"/>
      <circle class="cls-16" cx="261" cy="142.81" r="2.5"/>
      <circle class="cls-16" cx="291" cy="112.81" r="2.5"/>
      <circle class="cls-16" cx="261" cy="112.81" r="1.12"/>
    </g>
    <g>
      <circle class="cls-16" cx="351" cy="82.81" r="2.5"/>
      <circle class="cls-16" cx="321" cy="112.81" r="2.5"/>
      <circle class="cls-16" cx="351" cy="142.81" r="2.5"/>
      <circle class="cls-16" cx="381" cy="112.81" r="2.5"/>
      <circle class="cls-16" cx="351" cy="112.81" r="1.12"/>
    </g>
    <g>
      <circle class="cls-16" cx="411" cy="112.81" r="2.5"/>
      <circle class="cls-16" cx="441" cy="142.81" r="2.5"/>
      <circle class="cls-16" cx="471" cy="112.81" r="2.5"/>
      <circle class="cls-16" cx="441" cy="82.81" r="2.5"/>
      <circle class="cls-16" cx="441" cy="112.81" r="1.12"/>
    </g>
    <g>
      <circle class="cls-16" cx="501" cy="112.81" r="2.5"/>
      <circle class="cls-16" cx="531" cy="142.81" r="2.5"/>
      <circle class="cls-16" cx="561" cy="112.81" r="2.5"/>
      <circle class="cls-16" cx="531" cy="82.81" r="2.5"/>
      <circle class="cls-16" cx="531" cy="112.81" r="1.12"/>
    </g>
    <g>
      <circle class="cls-16" cx="591" cy="112.81" r="2.5"/>
      <circle class="cls-16" cx="621" cy="82.81" r="2.5"/>
      <circle class="cls-16" cx="651" cy="112.81" r="2.5"/>
      <circle class="cls-16" cx="621" cy="142.81" r="2.5"/>
      <circle class="cls-16" cx="621" cy="112.81" r="1.12"/>
    </g>
    <g>
      <circle class="cls-16" cx="681" cy="112.81" r="2.5"/>
      <circle class="cls-16" cx="711" cy="82.81" r="2.5"/>
      <circle class="cls-16" cx="741" cy="112.81" r="2.5"/>
      <circle class="cls-16" cx="711" cy="142.81" r="2.5"/>
      <circle class="cls-16" cx="711" cy="112.81" r="1.12"/>
    </g>
  </g>
  <g>
    <circle class="cls-16" cx="81" cy="252.81" r="2.5"/>
    <circle class="cls-16" cx="111" cy="222.81" r="2.5"/>
    <circle class="cls-16" cx="81" cy="192.81" r="2.5"/>
    <circle class="cls-16" cx="51" cy="222.81" r="2.5"/>
    <circle class="cls-16" cx="81" cy="222.81" r="1.12"/>
  </g>
  <g>
    <circle class="cls-16" cx="171" cy="252.81" r="2.5"/>
    <circle class="cls-16" cx="201" cy="222.81" r="2.5"/>
    <circle class="cls-16" cx="171" cy="192.81" r="2.5"/>
    <circle class="cls-16" cx="141" cy="222.81" r="2.5"/>
    <circle class="cls-16" cx="171" cy="222.81" r="1.12"/>
  </g>
  <g>
    <circle class="cls-16" cx="261" cy="192.81" r="2.5"/>
    <circle class="cls-16" cx="231" cy="222.81" r="2.5"/>
    <circle class="cls-16" cx="261" cy="252.81" r="2.5"/>
    <circle class="cls-16" cx="291" cy="222.81" r="2.5"/>
    <circle class="cls-16" cx="261" cy="222.81" r="1.12"/>
  </g>
  <g>
    <circle class="cls-16" cx="351" cy="192.81" r="2.5"/>
    <circle class="cls-16" cx="321" cy="222.81" r="2.5"/>
    <circle class="cls-16" cx="351" cy="252.81" r="2.5"/>
    <circle class="cls-16" cx="381" cy="222.81" r="2.5"/>
    <circle class="cls-16" cx="351" cy="222.81" r="1.13"/>
  </g>
  <g>
    <circle class="cls-16" cx="471" cy="222.81" r="2.5"/>
    <circle class="cls-16" cx="441" cy="192.81" r="2.5"/>
    <circle class="cls-16" cx="411" cy="222.81" r="2.5"/>
    <circle class="cls-16" cx="441" cy="252.81" r="2.5"/>
    <circle class="cls-16" cx="441" cy="222.81" r="1.12"/>
  </g>
  <g>
    <circle class="cls-16" cx="561" cy="222.81" r="2.5"/>
    <circle class="cls-16" cx="531" cy="192.81" r="2.5"/>
    <circle class="cls-16" cx="501" cy="222.81" r="2.5"/>
    <circle class="cls-16" cx="531" cy="252.81" r="2.5"/>
    <circle class="cls-16" cx="531" cy="222.81" r="1.12"/>
  </g>
  <g>
    <circle class="cls-16" cx="651" cy="222.81" r="2.5"/>
    <circle class="cls-16" cx="621" cy="192.81" r="2.5"/>
    <circle class="cls-16" cx="591" cy="222.81" r="2.5"/>
    <circle class="cls-16" cx="621" cy="252.81" r="2.5"/>
    <circle class="cls-16" cx="621" cy="222.81" r="1.12"/>
  </g>
  <g>
    <circle class="cls-16" cx="741" cy="222.81" r="2.5"/>
    <circle class="cls-16" cx="711" cy="192.81" r="2.5"/>
    <circle class="cls-16" cx="681" cy="222.81" r="2.5"/>
    <circle class="cls-16" cx="711" cy="252.81" r="2.5"/>
    <circle class="cls-16" cx="711" cy="222.81" r="1.12"/>
  </g>
  <g>
    <rect class="cls-21" x="68.52" y="97.3" width="25" height="2.5" rx=".99" ry=".99" transform="translate(179.56 17.53) rotate(90)"/>
    <rect class="cls-13" x="68.48" y="125.83" width="25" height="2.5" rx=".99" ry=".99" transform="translate(-46.09 208.06) rotate(-90)"/>
    <rect class="cls-21" x="54.21" y="221.58" width="25" height="2.5" rx=".99" ry=".99"/>
    <rect class="cls-13" x="68.48" y="235.8" width="25" height="2.5" rx=".99" ry=".99" transform="translate(-156.06 318.03) rotate(-90)"/>
    <rect class="cls-21" x="262.79" y="221.55" width="25" height="2.5" rx=".99" ry=".99" transform="translate(550.59 445.59) rotate(-180)"/>
    <rect class="cls-13" x="248.52" y="235.83" width="25" height="2.5" rx=".99" ry=".99" transform="translate(498.09 -23.94) rotate(90)"/>
    <rect class="cls-21" x="144.21" y="221.58" width="25" height="2.5" rx=".99" ry=".99"/>
    <rect class="cls-13" x="158.48" y="235.8" width="25" height="2.5" rx=".99" ry=".99" transform="translate(-66.06 408.03) rotate(-90)"/>
    <rect class="cls-21" x="352.79" y="221.55" width="25" height="2.5" rx=".99" ry=".99" transform="translate(730.59 445.59) rotate(-180)"/>
    <rect class="cls-13" x="338.52" y="235.83" width="25" height="2.5" rx=".99" ry=".99" transform="translate(588.09 -113.94) rotate(90)"/>
    <rect class="cls-21" x="428.48" y="97.27" width="25" height="2.5" rx=".99" ry=".99" transform="translate(539.5 -342.47) rotate(90)"/>
    <rect class="cls-13" x="414.27" y="111.55" width="25" height="2.5" rx=".99" ry=".99"/>
    <rect class="cls-21" x="608.48" y="125.86" width="25" height="2.5" rx=".99" ry=".99" transform="translate(493.88 748.09) rotate(-90)"/>
    <rect class="cls-13" x="594.27" y="111.58" width="25" height="2.5" rx=".99" ry=".99"/>
    <rect class="cls-21" x="518.48" y="97.27" width="25" height="2.5" rx=".99" ry=".99" transform="translate(629.5 -432.47) rotate(90)"/>
    <rect class="cls-13" x="504.27" y="111.55" width="25" height="2.5" rx=".99" ry=".99"/>
    <rect class="cls-21" x="698.48" y="125.86" width="25" height="2.5" rx=".99" ry=".99" transform="translate(583.88 838.09) rotate(-90)"/>
    <rect class="cls-13" x="684.27" y="111.58" width="25" height="2.5" rx=".99" ry=".99"/>
    <rect class="cls-21" x="246.46" y="125.83" width="25" height="2.5" rx=".99" ry=".99" transform="translate(131.88 386.05) rotate(-90)"/>
    <rect class="cls-13" x="250.46" y="125.83" width="25" height="2.5" rx=".99" ry=".99" transform="translate(135.88 390.05) rotate(-90)"/>
    <rect class="cls-21" x="158.52" y="97.3" width="25" height="2.5" rx=".99" ry=".99" transform="translate(269.56 -72.47) rotate(90)"/>
    <rect class="cls-13" x="158.48" y="125.83" width="25" height="2.5" rx=".99" ry=".99" transform="translate(43.91 298.06) rotate(-90)"/>
    <rect class="cls-21" x="336.46" y="125.83" width="25" height="2.5" rx=".99" ry=".99" transform="translate(221.88 476.05) rotate(-90)"/>
    <rect class="cls-13" x="340.46" y="125.83" width="25" height="2.5" rx=".99" ry=".99" transform="translate(225.88 480.05) rotate(-90)"/>
    <rect class="cls-21" x="442.76" y="221.58" width="25" height="2.5" rx=".99" ry=".99" transform="translate(910.53 445.66) rotate(-180)"/>
    <rect class="cls-13" x="414.24" y="221.55" width="25" height="2.5" rx=".99" ry=".99"/>
    <rect class="cls-21" x="594.23" y="219.52" width="25" height="2.5" rx=".99" ry=".99"/>
    <rect class="cls-13" x="594.23" y="223.52" width="25" height="2.5" rx=".99" ry=".99"/>
    <rect class="cls-21" x="532.76" y="221.58" width="25" height="2.5" rx=".99" ry=".99" transform="translate(1090.53 445.66) rotate(-180)"/>
    <rect class="cls-13" x="504.24" y="221.55" width="25" height="2.5" rx=".99" ry=".99"/>
    <rect class="cls-21" x="684.23" y="219.52" width="25" height="2.5" rx=".99" ry=".99"/>
    <rect class="cls-13" x="684.23" y="223.52" width="25" height="2.5" rx=".99" ry=".99"/>
  </g>
  <text class="cls-8" transform="translate(337.06 35.24)"><tspan class="cls-22" x="0" y="0">S</tspan><tspan class="cls-18" x="14.22" y="0">t</tspan><tspan x="24.38" y="0">a</tspan><tspan class="cls-22" x="40.15" y="0">gg</tspan><tspan x="71.06" y="0">e</tspan><tspan class="cls-23" x="84.77" y="0">r</tspan><tspan x="96.69" y="0">ed</tspan></text>
  <g>
    <text class="cls-10" transform="translate(136.03 381.82)"><tspan x="0" y="0">Type 3 → 5</tspan></text>
    <text class="cls-10" transform="translate(444.21 381.82)"><tspan x="0" y="0">Type 5 → 3</tspan></text>
    <text class="cls-7" transform="translate(8.67 376.31)"><tspan class="cls-4" x="0" y="0">C</tspan><tspan class="cls-15" x="13.43" y="0">-</tspan><tspan class="cls-20" x="20.83" y="0">S</tspan><tspan class="cls-16" x="33.35" y="0">→ </tspan><tspan class="cls-11" x="59.8" y="0">D</tspan><tspan class="cls-16" x="76.77" y="0">-</tspan><tspan class="cls-5" x="84.9" y="0">D</tspan></text>
    <text class="cls-7" transform="translate(663.79 375.15)"><tspan class="cls-11" x="0" y="0">D</tspan><tspan class="cls-16" x="16.97" y="0">-</tspan><tspan class="cls-5" x="25.1" y="0">D</tspan><tspan class="cls-20" x="42.07" y="0"> </tspan><tspan class="cls-16" x="47.57" y="0">→ </tspan><tspan class="cls-4" x="74.02" y="0">C</tspan><tspan class="cls-15" x="87.45" y="0">-</tspan><tspan class="cls-20" x="94.85" y="0">S</tspan></text>
    <path class="cls-16" d="m255.13,471.09l-4.37,8.3c-.15.29-.45.46-.75.46-.13,0-.26-.04-.39-.1-.2-.11-.35-.28-.42-.5-.07-.21-.05-.45.06-.65l1.88-3.58-2.53-3.62c-.12-.11-.2-.27-.24-.47-.05-.25.03-.53.2-.71.15-.17.35-.27.58-.28.22,0,.45.07.61.21l2.2,3.29,1.65-3.14c.12-.2.29-.35.51-.42.22-.07.45-.04.65.07.22.12.38.33.43.59.03.19,0,.38-.08.55Z"/>
    <rect class="cls-16" x="255.45" y="473.89" width="6.95" height="1.9" rx=".95" ry=".95"/>
    <path class="cls-16" d="m272.17,471.51c-.5,2.51-1.03,3.37-3.39,3.82-.04,0-.07.04-.08.07v3.6c0,.22-.1.44-.25.6s-.36.24-.59.24-.43-.09-.61-.24c-.16-.16-.24-.38-.24-.6v-3.6s-.05-.06-.09-.07c-2.35-.45-2.88-1.31-3.38-3.82-.08-.36-.04-.65.12-.83.17-.21.42-.24.56-.24.24,0,.43.22.56.45.13.23.2.47.21.54.25,1.71.73,2.29,1.85,2.29h.09s.07-.02.09-.06v-3.05c.12-.28.2-.48.31-.6.07-.06.15-.1.23-.13.05-.02.1-.03.14-.04.11-.02.24-.02.33,0,.05,0,.1.02.15.04.07,0,.15.06.22.13.12.12.21.31.3.6v.03s.02.03.02.05v2.94s0,.02,0,.04c0,.03.05.05.09.05,1.2.04,1.68-.54,1.93-2.29.03-.13.28-.99.76-.99h0c.14,0,.39.03.56.24.15.19.19.47.12.83Z"/>
    <rect class="cls-16" x="273.12" y="473.89" width="6.95" height="1.9" rx=".95" ry=".95"/>
    <path class="cls-16" d="m343.07,471.58c-1.86,0-2.27,0-3.51,0-.46,0-1.11-.2-1.11-.85,0-.57.42-.88,1.07-.88,4.93,0,5.05-.05,5.58.38.28.22.43.73.15,1.14-1.71,2.48-4.64,6.6-4.64,6.6,0,0,2.47-.05,3.73-.05,1.57,0,1.46,1.88.13,1.88-8.37,0-8.83,1.14-1.4-8.22Z"/>
    <rect class="cls-16" x="346.62" y="473.89" width="6.95" height="1.9" rx=".95" ry=".95"/>
    <path class="cls-16" d="m363.53,471.51c-.5,2.51-1.03,3.37-3.39,3.82-.04,0-.07.04-.08.07v3.6c0,.22-.1.44-.25.6s-.36.24-.59.24-.43-.09-.61-.24c-.16-.16-.24-.38-.24-.6v-3.6s-.05-.06-.09-.07c-2.35-.45-2.88-1.31-3.38-3.82-.08-.36-.04-.65.12-.83.17-.21.42-.24.56-.24.24,0,.43.22.56.45.13.23.2.47.21.54.25,1.71.73,2.29,1.85,2.29h.09s.07-.02.09-.06v-3.05c.12-.28.2-.48.31-.6.07-.06.15-.1.23-.13.05-.02.1-.03.14-.04.11-.02.24-.02.33,0,.05,0,.1.02.15.04.07,0,.15.06.22.13.12.12.21.31.3.6v.03s.02.03.02.05v2.94s0,.02,0,.04c0,.03.05.05.09.05,1.2.04,1.68-.54,1.93-2.29.03-.13.28-.99.76-.99h0c.14,0,.39.03.56.24.15.19.19.47.12.83Z"/>
    <rect class="cls-16" x="363.81" y="473.89" width="6.95" height="1.9" rx=".95" ry=".95"/>
    <path class="cls-16" d="m78.04,469.85c-.46-.06-.96.28-1.19,1.14-.42,1.54-.92,3.7-1.44,5.63-1.11-2.72-1.86-4.39-2.5-4.38-.01,0-.02,0-.03.01-.01-.01-.02-.01-.03-.01-.64-.01-1.39,1.65-2.5,4.38-.51-1.93-1.02-4.09-1.44-5.63-.24-.86-.73-1.2-1.19-1.14-.59.07-.98.49-.74,1.25.25.81,1.84,6.07,2.3,7.72.47,1.65,1.59.9,1.8.49.21-.41,1.36-3.67,1.8-4.59.44.92,1.59,4.18,1.8,4.59.21.41,1.33,1.16,1.8-.49.46-1.64,2.05-6.9,2.3-7.72.24-.76-.15-1.18-.74-1.25Z"/>
    <rect class="cls-16" x="79.24" y="473.89" width="6.95" height="1.9" rx=".95" ry=".95"/>
    <path d="m95,472.62c-.71-.51-1.55-.82-2.45-.91v-1.11c0-.42-.34-.76-.77-.76h-.12c-.43,0-.77.34-.77.76v1.11c-.9.09-1.75.4-2.45.91-.71.48-1.09,1.08-1.14,1.75-.06.85.42,1.62.85,2.01.7.66,1.64,1.05,2.74,1.14v1.55c0,.42.34.76.77.76h.12c.43,0,.77-.34.77-.76v-1.55c1.1-.09,2.04-.48,2.74-1.14.43-.39.91-1.17.85-2.01-.05-.68-.43-1.26-1.14-1.75Zm-2.45,1.84c0-.41,0-.75.04-1.08,0-.11.1-.2.21-.21h.07c.8,0,1.4.28,1.68.79.25.45.22,1.01-.09,1.45-.34.52-.97.77-1.72.69-.1,0-.18-.1-.18-.21,0-.27,0-.56,0-.85,0-.2,0-.39,0-.59Zm-3.66-.49c.27-.51.87-.79,1.67-.79h.07c.12,0,.21.1.22.21.03.33.04.69.04,1.08,0,.2,0,.4,0,.6,0,.28,0,.57,0,.84,0,.11-.08.2-.18.21-.75.09-1.37-.17-1.72-.69-.3-.44-.33-1-.09-1.45Z"/>
    <rect class="cls-16" x="96.99" y="473.89" width="6.95" height="1.9" rx=".95" ry=".95"/>
    <path class="cls-16" d="m165.13,478.35c.16.19.21.44.19.68-.03.24-.16.46-.34.61-.4.3-.98.23-1.3-.17l-2.45-3.14-2.45,3.14c-.18.23-.45.36-.72.36-.19,0-.4-.07-.57-.19-.19-.15-.32-.37-.35-.61-.03-.24.03-.49.19-.68l2.73-3.51-2.73-3.51c-.13-.17-.19-.36-.19-.57,0-.28.14-.56.36-.73.19-.15.42-.21.67-.19.24.03.47.16.61.35l2.45,3.14,2.44-3.14c.33-.41.91-.48,1.31-.16.22.17.35.43.35.72,0,.2-.07.4-.19.57l-2.73,3.51,2.73,3.51Z"/>
    <rect class="cls-16" x="165.75" y="473.89" width="6.95" height="1.9" rx=".95" ry=".95"/>
    <path d="m181.55,472.62c-.71-.51-1.55-.82-2.45-.91v-1.11c0-.42-.34-.76-.77-.76h-.12c-.43,0-.77.34-.77.76v1.11c-.9.09-1.75.4-2.45.91-.71.48-1.09,1.08-1.14,1.75-.06.85.42,1.62.85,2.01.7.66,1.64,1.05,2.74,1.14v1.55c0,.42.34.76.77.76h.12c.43,0,.77-.34.77-.76v-1.55c1.1-.09,2.04-.48,2.74-1.14.43-.39.91-1.17.85-2.01-.05-.68-.43-1.26-1.14-1.75Zm-2.45,1.84c0-.41,0-.75.04-1.08,0-.11.1-.2.21-.21h.07c.8,0,1.4.28,1.68.79.25.45.22,1.01-.09,1.45-.34.52-.97.77-1.72.69-.1,0-.18-.1-.18-.21,0-.27,0-.56,0-.85,0-.2,0-.39,0-.59Zm-3.66-.49c.27-.51.87-.79,1.67-.79h.07c.12,0,.21.1.22.21.03.33.04.69.04,1.08,0,.2,0,.4,0,.6,0,.28,0,.57,0,.84,0,.11-.08.2-.18.21-.75.09-1.37-.17-1.72-.69-.3-.44-.33-1-.09-1.45Z"/>
    <rect class="cls-16" x="184.21" y="473.89" width="6.95" height="1.9" rx=".95" ry=".95"/>
    <path class="cls-16" d="m71.67,584.03c.48.44.43.65.44.96s-.23.47-.53.71c-1.75,1.43-2.78,2.44-2.78,2.44,0,0,.42.05,4.42.05.4,0,.79.33.79.78,0,.48-.22.88-.64.88-2.35,0-4.02-.05-5.97-.05-.79,0-1.34-.19-1.52-.57-.17-.36-.12-.9.55-1.52,1.91-1.72,3.47-2.88,3.47-2.88,0,0-2.17-1.97-3.75-3.56-.33-.33-.43-.62-.31-.85.11-.2.55-.57.92-.57h6.71c.74,0,.77,1.31,0,1.31-3.37,0-5.2.02-5.2.02"/>
    <rect class="cls-16" x="74.75" y="583.89" width="6.95" height="1.9" rx=".95" ry=".95"/>
    <path class="cls-16" d="m82.99,588.49c.06-.29,1.97-5.54,3.02-7.94.32-.73.61-.72.74-.72s.42,0,.74.72c1.05,2.4,2.96,7.64,3.02,7.94.23,1-.08,1.16-.44,1.3-.28.13-.86.02-1.12-.7-.16-.42-2.2-5.86-2.2-5.86,0,0-2.05,5.44-2.2,5.86-.25.72-.83.82-1.12.7-.36-.15-.67-.3-.44-1.3Z"/>
    <rect class="cls-16" x="91.33" y="583.89" width="6.95" height="1.9" rx=".95" ry=".95"/>
    <path class="cls-16" d="m250.74,579.84c-1.33,0-3.23,1.68-3.23,5,0,2.56,1.22,5,3.23,5s3.27-2.44,3.27-5c0-3.48-1.94-5-3.27-5Zm.01,1.37c.96,0,1.64,1.13,1.7,1.93.02.3,0,.81-.55.81h-2.33c-.46,0-.51-.5-.5-.76.07-.8.81-1.98,1.69-1.98Zm0,7.26c-1.08,0-1.72-1.28-1.79-2.08-.01-.25,0-.76.5-.76h2.53c.56,0,.58.5.55.81-.06.8-.72,2.03-1.8,2.03Z"/>
    <rect class="cls-16" x="255.66" y="583.89" width="6.95" height="1.9" rx=".95" ry=".95"/>
    <path class="cls-16" d="m263.32,588.49c.06-.29,1.97-5.54,3.02-7.94.32-.73.61-.72.74-.72s.42,0,.74.72c1.05,2.4,2.96,7.64,3.02,7.94.23,1-.08,1.16-.44,1.3-.28.13-.86.02-1.12-.7-.16-.42-2.2-5.86-2.2-5.86,0,0-2.05,5.44-2.2,5.86-.25.72-.83.82-1.12.7-.36-.15-.67-.3-.44-1.3Z"/>
    <rect class="cls-16" x="271.53" y="583.89" width="6.95" height="1.9" rx=".95" ry=".95"/>
    <path class="cls-16" d="m165.02,587.98c-.93-2.27-1.86-4.39-2.21-5.2-.38-.84-.67-1.52-.74-1.72-.32-.87-.6-1.18-1.12-1.22-.5.04-.79.34-1.11,1.22-.07.2-.36.87-.73,1.72-.73,1.66-1.56,3.6-2.22,5.2-.28.71-.29,1.21-.03,1.52.19.23.49.34.9.34h6.43c.41,0,.71-.12.9-.34.12-.15.18-.34.18-.58,0-.26-.07-.57-.22-.94Zm-1.67.34h-4.8c.17-.42.49-1.25.87-2.18.56-1.41,1.21-3.07,1.53-3.9.39.98,1.22,3.11,1.83,4.63l.57,1.44Z"/>
    <rect class="cls-16" x="165.37" y="583.89" width="6.95" height="1.9" rx=".95" ry=".95"/>
    <path class="cls-16" d="m172.23,588.49c.06-.29,1.97-5.54,3.02-7.94.32-.73.61-.72.74-.72s.42,0,.74.72c1.05,2.4,2.96,7.64,3.02,7.94.23,1-.08,1.16-.44,1.3-.28.13-.86.02-1.12-.7-.16-.42-2.2-5.86-2.2-5.86,0,0-2.05,5.44-2.2,5.86-.25.72-.83.82-1.12.7-.36-.15-.67-.3-.44-1.3Z"/>
    <rect class="cls-16" x="179.98" y="583.89" width="6.95" height="1.9" rx=".95" ry=".95"/>
    <path class="cls-16" d="m345.39,589.84h-3.54c-.32,0-.53-.32-.41-.62,2.67-6.29.99-7.71-1.08-7.85-.04,0-.08,0-.12,0h-.02s-.09,0-.13,0c-.04,0-.08,0-.12,0-2.07.14-3.75,1.56-1.08,7.85.12.29-.09.62-.41.62h-3.54c-.14,0-.66-1.27.12-1.73.69-.41.99.09,1.81.11-2.24-4.96.04-7.96,2.78-8.36.08-.02.94-.02,1.02,0,2.74.41,5.02,3.4,2.78,8.36.82-.02,1.12-.51,1.81-.11.78.46.26,1.73.12,1.73Z"/>
    <path class="cls-16" d="m354.27,588.49c.06-.29,1.97-5.54,3.02-7.94.32-.73.61-.72.74-.72s.42,0,.74.72c1.05,2.4,2.96,7.64,3.02,7.94.23,1-.08,1.16-.44,1.3-.28.13-.86.02-1.12-.7-.16-.42-2.2-5.86-2.2-5.86,0,0-2.05,5.44-2.2,5.86-.25.72-.83.82-1.12.7-.36-.15-.67-.3-.44-1.3Z"/>
    <rect class="cls-16" x="362.66" y="583.89" width="6.95" height="1.9" rx=".95" ry=".95"/>
    <rect class="cls-16" x="346.21" y="583.89" width="6.95" height="1.9" rx=".95" ry=".95"/>
    <line class="cls-3" x1="741.9" y1="491.13" x2="50.05" y2="491.13"/>
    <g>
      <g>
        <circle class="cls-16" cx="81" cy="462.81" r="2.5"/>
        <circle class="cls-16" cx="111" cy="432.81" r="2.5"/>
        <circle class="cls-16" cx="81" cy="402.81" r="2.5"/>
        <circle class="cls-16" cx="51" cy="432.81" r="2.5"/>
        <circle class="cls-16" cx="81" cy="432.81" r="1.12"/>
      </g>
      <g>
        <circle class="cls-16" cx="171" cy="462.81" r="2.5"/>
        <circle class="cls-16" cx="201" cy="432.81" r="2.5"/>
        <circle class="cls-16" cx="171" cy="402.81" r="2.5"/>
        <circle class="cls-16" cx="141" cy="432.81" r="2.5"/>
        <circle class="cls-16" cx="171" cy="432.81" r="1.12"/>
      </g>
      <g>
        <circle class="cls-16" cx="261" cy="462.81" r="2.5"/>
        <circle class="cls-16" cx="291" cy="432.81" r="2.5"/>
        <circle class="cls-16" cx="261" cy="402.81" r="2.5"/>
        <circle class="cls-16" cx="231" cy="432.81" r="2.5"/>
        <circle class="cls-16" cx="261" cy="432.81" r="1.12"/>
      </g>
      <g>
        <circle class="cls-16" cx="351" cy="462.81" r="2.5"/>
        <circle class="cls-16" cx="381" cy="432.81" r="2.5"/>
        <circle class="cls-16" cx="351" cy="402.81" r="2.5"/>
        <circle class="cls-16" cx="321" cy="432.81" r="2.5"/>
        <circle class="cls-16" cx="351" cy="432.81" r="1.12"/>
      </g>
      <g>
        <circle class="cls-16" cx="441" cy="402.81" r="2.5"/>
        <circle class="cls-16" cx="471" cy="432.81" r="2.5"/>
        <circle class="cls-16" cx="441" cy="462.81" r="2.5"/>
        <circle class="cls-16" cx="411" cy="432.81" r="2.5"/>
        <circle class="cls-16" cx="441" cy="432.81" r="1.12"/>
      </g>
      <g>
        <circle class="cls-16" cx="531" cy="402.81" r="2.5"/>
        <circle class="cls-16" cx="561" cy="432.81" r="2.5"/>
        <circle class="cls-16" cx="531" cy="462.81" r="2.5"/>
        <circle class="cls-16" cx="501" cy="432.81" r="2.5"/>
        <circle class="cls-16" cx="531" cy="432.81" r="1.12"/>
      </g>
      <g>
        <circle class="cls-16" cx="621" cy="402.81" r="2.5"/>
        <circle class="cls-16" cx="651" cy="432.81" r="2.5"/>
        <circle class="cls-16" cx="621" cy="462.81" r="2.5"/>
        <circle class="cls-16" cx="591" cy="432.81" r="2.5"/>
        <circle class="cls-16" cx="621" cy="432.81" r="1.12"/>
      </g>
      <g>
        <circle class="cls-16" cx="711" cy="402.81" r="2.5"/>
        <circle class="cls-16" cx="741" cy="432.81" r="2.5"/>
        <circle class="cls-16" cx="711" cy="462.81" r="2.5"/>
        <circle class="cls-16" cx="681" cy="432.81" r="2.5"/>
        <circle class="cls-16" cx="711" cy="432.81" r="1.12"/>
      </g>
    </g>
    <g>
      <g>
        <circle class="cls-16" cx="81" cy="512.81" r="2.5"/>
        <circle class="cls-16" cx="51" cy="542.81" r="2.5"/>
        <circle class="cls-16" cx="81" cy="572.81" r="2.5"/>
        <circle class="cls-16" cx="111" cy="542.81" r="2.5"/>
        <circle class="cls-16" cx="81" cy="542.81" r="1.12"/>
      </g>
      <g>
        <circle class="cls-16" cx="171" cy="512.81" r="2.5"/>
        <circle class="cls-16" cx="141" cy="542.81" r="2.5"/>
        <circle class="cls-16" cx="171" cy="572.81" r="2.5"/>
        <circle class="cls-16" cx="201" cy="542.81" r="2.5"/>
        <circle class="cls-16" cx="171" cy="542.81" r="1.12"/>
      </g>
      <g>
        <circle class="cls-16" cx="261" cy="512.81" r="2.5"/>
        <circle class="cls-16" cx="231" cy="542.81" r="2.5"/>
        <circle class="cls-16" cx="261" cy="572.81" r="2.5"/>
        <circle class="cls-16" cx="291" cy="542.81" r="2.5"/>
        <circle class="cls-16" cx="261" cy="542.81" r="1.12"/>
      </g>
      <g>
        <circle class="cls-16" cx="351" cy="512.81" r="2.5"/>
        <circle class="cls-16" cx="321" cy="542.81" r="2.5"/>
        <circle class="cls-16" cx="351" cy="572.81" r="2.5"/>
        <circle class="cls-16" cx="381" cy="542.81" r="2.5"/>
        <circle class="cls-16" cx="351" cy="542.81" r="1.12"/>
      </g>
      <g>
        <circle class="cls-16" cx="441" cy="572.81" r="2.5"/>
        <circle class="cls-16" cx="411" cy="542.81" r="2.5"/>
        <circle class="cls-16" cx="441" cy="512.81" r="2.5"/>
        <circle class="cls-16" cx="471" cy="542.81" r="2.5"/>
        <circle class="cls-16" cx="441" cy="542.81" r="1.12"/>
      </g>
      <g>
        <circle class="cls-16" cx="531" cy="572.81" r="2.5"/>
        <circle class="cls-16" cx="501" cy="542.81" r="2.5"/>
        <circle class="cls-16" cx="531" cy="512.81" r="2.5"/>
        <circle class="cls-16" cx="561" cy="542.81" r="2.5"/>
        <circle class="cls-16" cx="531" cy="542.81" r="1.12"/>
      </g>
      <g>
        <circle class="cls-16" cx="621" cy="572.81" r="2.5"/>
        <circle class="cls-16" cx="591" cy="542.81" r="2.5"/>
        <circle class="cls-16" cx="621" cy="512.81" r="2.5"/>
        <circle class="cls-16" cx="651" cy="542.81" r="2.5"/>
        <circle class="cls-16" cx="621" cy="542.81" r="1.12"/>
      </g>
      <g>
        <circle class="cls-16" cx="711" cy="572.81" r="2.5"/>
        <circle class="cls-16" cx="681" cy="542.81" r="2.5"/>
        <circle class="cls-16" cx="711" cy="512.81" r="2.5"/>
        <circle class="cls-16" cx="741" cy="542.81" r="2.5"/>
        <circle class="cls-16" cx="711" cy="542.81" r="1.12"/>
      </g>
    </g>
    <path class="cls-16" d="m450.15,582.67l-4.37,8.3c-.15.29-.45.46-.75.46-.13,0-.26-.04-.39-.1-.2-.11-.35-.28-.42-.5-.07-.21-.05-.45.06-.65l1.88-3.58-2.53-3.62c-.12-.11-.2-.27-.24-.47-.05-.25.03-.53.2-.71.15-.17.35-.27.58-.28.22,0,.45.07.61.21l2.2,3.29,1.65-3.14c.12-.2.29-.35.51-.42.22-.07.45-.04.65.07.22.12.38.33.43.59.03.19,0,.38-.08.55Z"/>
    <rect class="cls-16" x="450.47" y="585.48" width="6.95" height="1.9" rx=".95" ry=".95"/>
    <path class="cls-16" d="m615.57,472.96c-.5,2.51-1.03,3.37-3.39,3.82-.04,0-.07.04-.08.07v3.6c0,.22-.1.44-.25.6s-.36.24-.59.24-.43-.09-.61-.24c-.16-.16-.24-.38-.24-.6v-3.6s-.05-.06-.09-.07c-2.35-.45-2.88-1.31-3.38-3.82-.08-.36-.04-.65.12-.83.17-.21.42-.24.56-.24.24,0,.43.22.56.45.13.23.2.47.21.54.25,1.71.73,2.29,1.85,2.29h.09s.07-.02.09-.06v-3.05c.12-.28.2-.48.31-.6.07-.06.15-.1.23-.13.05-.02.1-.03.14-.04.11-.02.24-.02.33,0,.05,0,.1.02.15.04.07,0,.15.06.22.13.12.12.21.31.3.6v.03s.02.03.02.05v2.94s0,.02,0,.04c0,.03.05.05.09.05,1.2.04,1.68-.54,1.93-2.29.03-.13.28-.99.76-.99h0c.14,0,.39.03.56.24.15.19.19.47.12.83Z"/>
    <rect class="cls-16" x="616.79" y="475.34" width="6.95" height="1.9" rx=".95" ry=".95"/>
    <path class="cls-16" d="m537.5,583.17c-1.86,0-2.27,0-3.51,0-.46,0-1.11-.2-1.11-.85,0-.57.42-.88,1.07-.88,4.93,0,5.05-.05,5.58.38.28.22.43.73.15,1.14-1.71,2.48-4.64,6.6-4.64,6.6,0,0,2.47-.05,3.73-.05,1.57,0,1.46,1.88.13,1.88-8.37,0-8.83,1.14-1.4-8.22Z"/>
    <rect class="cls-16" x="541.05" y="585.48" width="6.95" height="1.9" rx=".95" ry=".95"/>
    <path class="cls-16" d="m705.93,472.96c-.5,2.51-1.03,3.37-3.39,3.82-.04,0-.07.04-.08.07v3.6c0,.22-.1.44-.25.6s-.36.24-.59.24-.43-.09-.61-.24c-.16-.16-.24-.38-.24-.6v-3.6s-.05-.06-.09-.07c-2.35-.45-2.88-1.31-3.38-3.82-.08-.36-.04-.65.12-.83.17-.21.42-.24.56-.24.24,0,.43.22.56.45.13.23.2.47.21.54.25,1.71.73,2.29,1.85,2.29h.09s.07-.02.09-.06v-3.05c.12-.28.2-.48.31-.6.07-.06.15-.1.23-.13.05-.02.1-.03.14-.04.11-.02.24-.02.33,0,.05,0,.1.02.15.04.07,0,.15.06.22.13.12.12.21.31.3.6v.03s.02.03.02.05v2.94s0,.02,0,.04c0,.03.05.05.09.05,1.2.04,1.68-.54,1.93-2.29.03-.13.28-.99.76-.99h0c.14,0,.39.03.56.24.15.19.19.47.12.83Z"/>
    <rect class="cls-16" x="706.21" y="475.34" width="6.95" height="1.9" rx=".95" ry=".95"/>
    <path class="cls-16" d="m632.63,581.43c-.46-.06-.96.28-1.19,1.14-.42,1.54-.92,3.7-1.44,5.63-1.11-2.72-1.86-4.39-2.5-4.38-.01,0-.02,0-.03.01-.01-.01-.02-.01-.03-.01-.64-.01-1.39,1.65-2.5,4.38-.51-1.93-1.02-4.09-1.44-5.63-.24-.86-.73-1.2-1.19-1.14-.59.07-.98.49-.74,1.25.25.81,1.84,6.07,2.3,7.72.47,1.65,1.59.9,1.8.49.21-.41,1.36-3.67,1.8-4.59.44.92,1.59,4.18,1.8,4.59.21.41,1.33,1.16,1.8-.49.46-1.64,2.05-6.9,2.3-7.72.24-.76-.15-1.18-.74-1.25Z"/>
    <rect class="cls-16" x="633.98" y="585.48" width="6.95" height="1.9" rx=".95" ry=".95"/>
    <path d="m431.95,474.07c-.71-.51-1.55-.82-2.45-.91v-1.11c0-.42-.34-.76-.77-.76h-.12c-.43,0-.77.34-.77.76v1.11c-.9.09-1.75.4-2.45.91-.71.48-1.09,1.08-1.14,1.75-.06.85.42,1.62.85,2.01.7.66,1.64,1.05,2.74,1.14v1.55c0,.42.34.76.77.76h.12c.43,0,.77-.34.77-.76v-1.55c1.1-.09,2.04-.48,2.74-1.14.43-.39.91-1.17.85-2.01-.05-.68-.43-1.26-1.14-1.75Zm-2.45,1.84c0-.41,0-.75.04-1.08,0-.11.1-.2.21-.21h.07c.8,0,1.4.28,1.68.79.25.45.22,1.01-.09,1.45-.34.52-.97.77-1.72.69-.1,0-.18-.1-.18-.21,0-.27,0-.56,0-.85,0-.2,0-.39,0-.59Zm-3.66-.49c.27-.51.87-.79,1.67-.79h.07c.12,0,.21.1.22.21.03.33.04.69.04,1.08,0,.2,0,.4,0,.6,0,.28,0,.57,0,.84,0,.11-.08.2-.18.21-.75.09-1.37-.17-1.72-.69-.3-.44-.33-1-.09-1.45Z"/>
    <rect class="cls-16" x="434.81" y="475.34" width="6.95" height="1.9" rx=".95" ry=".95"/>
    <path class="cls-16" d="m721.49,589.94c.16.19.21.44.19.68-.03.24-.16.46-.34.61-.4.3-.98.23-1.3-.17l-2.45-3.14-2.45,3.14c-.18.23-.45.36-.72.36-.19,0-.4-.07-.57-.19-.19-.15-.32-.37-.35-.61-.03-.24.03-.49.19-.68l2.73-3.51-2.73-3.51c-.13-.17-.19-.36-.19-.57,0-.28.14-.56.36-.73.19-.15.42-.21.67-.19.24.03.47.16.61.35l2.45,3.14,2.44-3.14c.33-.41.91-.48,1.31-.16.22.17.35.43.35.72,0,.2-.07.4-.19.57l-2.73,3.51,2.73,3.51Z"/>
    <rect class="cls-16" x="721.69" y="585.48" width="6.95" height="1.9" rx=".95" ry=".95"/>
    <path d="m523.95,474.07c-.71-.51-1.55-.82-2.45-.91v-1.11c0-.42-.34-.76-.77-.76h-.12c-.43,0-.77.34-.77.76v1.11c-.9.09-1.75.4-2.45.91-.71.48-1.09,1.08-1.14,1.75-.06.85.42,1.62.85,2.01.7.66,1.64,1.05,2.74,1.14v1.55c0,.42.34.76.77.76h.12c.43,0,.77-.34.77-.76v-1.55c1.1-.09,2.04-.48,2.74-1.14.43-.39.91-1.17.85-2.01-.05-.68-.43-1.26-1.14-1.75Zm-2.45,1.84c0-.41,0-.75.04-1.08,0-.11.1-.2.21-.21h.07c.8,0,1.4.28,1.68.79.25.45.22,1.01-.09,1.45-.34.52-.97.77-1.72.69-.1,0-.18-.1-.18-.21,0-.27,0-.56,0-.85,0-.2,0-.39,0-.59Zm-3.66-.49c.27-.51.87-.79,1.67-.79h.07c.12,0,.21.1.22.21.03.33.04.69.04,1.08,0,.2,0,.4,0,.6,0,.28,0,.57,0,.84,0,.11-.08.2-.18.21-.75.09-1.37-.17-1.72-.69-.3-.44-.33-1-.09-1.45Z"/>
    <rect class="cls-16" x="526.61" y="475.34" width="6.95" height="1.9" rx=".95" ry=".95"/>
    <path class="cls-16" d="m630.41,475.47c.48.44.43.65.44.96s-.23.47-.53.71c-1.75,1.43-2.78,2.44-2.78,2.44,0,0,.42.05,4.42.05.4,0,.79.33.79.78,0,.48-.22.88-.64.88-2.35,0-4.02-.05-5.97-.05-.79,0-1.34-.19-1.52-.57-.17-.36-.12-.9.55-1.52,1.91-1.72,3.47-2.88,3.47-2.88,0,0-2.17-1.97-3.75-3.56-.33-.33-.43-.62-.31-.85.11-.2.55-.57.92-.57h6.71c.74,0,.77,1.31,0,1.31-3.37,0-5.2.02-5.2.02"/>
    <rect class="cls-16" x="633.49" y="475.34" width="6.95" height="1.9" rx=".95" ry=".95"/>
    <path class="cls-16" d="m427.29,590.08c.06-.29,1.97-5.54,3.02-7.94.32-.73.61-.72.74-.72s.42,0,.74.72c1.05,2.4,2.96,7.64,3.02,7.94.23,1-.08,1.16-.44,1.3-.28.13-.86.02-1.12-.7-.16-.42-2.2-5.86-2.2-5.86,0,0-2.05,5.44-2.2,5.86-.25.72-.83.82-1.12.7-.36-.15-.67-.3-.44-1.3Z"/>
    <rect class="cls-16" x="435.64" y="585.48" width="6.95" height="1.9" rx=".95" ry=".95"/>
    <path class="cls-16" d="m447.12,471.29c-1.33,0-3.23,1.68-3.23,5,0,2.56,1.22,5,3.23,5s3.27-2.44,3.27-5c0-3.48-1.94-5-3.27-5Zm.01,1.37c.96,0,1.64,1.13,1.7,1.93.02.3,0,.81-.55.81h-2.33c-.46,0-.51-.5-.5-.76.07-.8.81-1.98,1.69-1.98Zm0,7.26c-1.08,0-1.72-1.28-1.79-2.08-.01-.25,0-.76.5-.76h2.53c.56,0,.58.5.55.81-.06.8-.72,2.03-1.8,2.03Z"/>
    <rect class="cls-16" x="452.05" y="475.34" width="6.95" height="1.9" rx=".95" ry=".95"/>
    <path class="cls-16" d="m606.36,590.08c.06-.29,1.97-5.54,3.02-7.94.32-.73.61-.72.74-.72s.42,0,.74.72c1.05,2.4,2.96,7.64,3.02,7.94.23,1-.08,1.16-.44,1.3-.28.13-.86.02-1.12-.7-.16-.42-2.2-5.86-2.2-5.86,0,0-2.05,5.44-2.2,5.86-.25.72-.83.82-1.12.7-.36-.15-.67-.3-.44-1.3Z"/>
    <rect class="cls-16" x="614.56" y="585.48" width="6.95" height="1.9" rx=".95" ry=".95"/>
    <path class="cls-16" d="m721.87,479.42c-.93-2.27-1.86-4.39-2.21-5.2-.38-.84-.67-1.52-.74-1.72-.32-.87-.6-1.18-1.12-1.22-.5.04-.79.34-1.11,1.22-.07.2-.36.87-.73,1.72-.73,1.66-1.56,3.6-2.22,5.2-.28.71-.29,1.21-.03,1.52.19.23.49.34.9.34h6.43c.41,0,.71-.12.9-.34.12-.15.18-.34.18-.58,0-.26-.07-.57-.22-.94Zm-1.67.34h-4.8c.17-.42.49-1.25.87-2.18.56-1.41,1.21-3.07,1.53-3.9.39.98,1.22,3.11,1.83,4.63l.57,1.44Z"/>
    <rect class="cls-16" x="722.21" y="475.34" width="6.95" height="1.9" rx=".95" ry=".95"/>
    <path class="cls-16" d="m517.12,590.08c.06-.29,1.97-5.54,3.02-7.94.32-.73.61-.72.74-.72s.42,0,.74.72c1.05,2.4,2.96,7.64,3.02,7.94.23,1-.08,1.16-.44,1.3-.28.13-.86.02-1.12-.7-.16-.42-2.2-5.86-2.2-5.86,0,0-2.05,5.44-2.2,5.86-.25.72-.83.82-1.12.7-.36-.15-.67-.3-.44-1.3Z"/>
    <rect class="cls-16" x="524.87" y="585.48" width="6.95" height="1.9" rx=".95" ry=".95"/>
    <path class="cls-16" d="m545.51,481.29h-3.54c-.32,0-.53-.32-.41-.62,2.67-6.29.99-7.71-1.08-7.85-.04,0-.08,0-.12,0h-.02s-.09,0-.13,0c-.04,0-.08,0-.12,0-2.07.14-3.75,1.56-1.08,7.85.12.29-.09.62-.41.62h-3.54c-.14,0-.66-1.27.12-1.73.69-.41.99.09,1.81.11-2.24-4.96.04-7.96,2.78-8.36.08-.02.94-.02,1.02,0,2.74.41,5.02,3.4,2.78,8.36.82-.02,1.12-.51,1.81-.11.78.46.26,1.73.12,1.73Z"/>
    <path class="cls-16" d="m696.71,590.08c.06-.29,1.97-5.54,3.02-7.94.32-.73.61-.72.74-.72s.42,0,.74.72c1.05,2.4,2.96,7.64,3.02,7.94.23,1-.08,1.16-.44,1.3-.28.13-.86.02-1.12-.7-.16-.42-2.2-5.86-2.2-5.86,0,0-2.05,5.44-2.2,5.86-.25.72-.83.82-1.12.7-.36-.15-.67-.3-.44-1.3Z"/>
    <rect class="cls-16" x="705.09" y="585.48" width="6.95" height="1.9" rx=".95" ry=".95"/>
    <rect class="cls-16" x="546.32" y="475.34" width="6.95" height="1.9" rx=".95" ry=".95"/>
    <path class="cls-13" d="m165.19,406.9c0,1.6,0,47.04,0,47.04l2.65-2.57s1.08,1.05.47,1.87c-.68.94-4.06,3.95-4.06,3.95,0,0-3.23-2.77-4.09-3.95-.59-.82.5-1.87.5-1.87l2.61,2.57v-36.55c-.61,8.97-7.4,9.68-20.59,9.68-1.45,0-1.43-2.08.03-2.07,18.08.16,19.28-1.12,19.28-18.08,0-2.61,3.2-2.61,3.2-.02Z"/>
    <path class="cls-13" d="m73.85,406.54c0-.56-.64-.97-1.68-.97-11.8,0-21.75,5.9-21.75,21.7,0,1.66,1.81,1.61,1.81,0,0-17.4,12.81-19.72,19.36-19.72.25,0,.34.15.34.33v46.74s-2.61-2.65-2.61-2.65c0,0-1.09,1.05-.5,1.87.86,1.18,4.09,3.95,4.09,3.95,0,0,3.38-3.01,4.06-3.95.61-.82-.47-1.87-.47-1.87l-2.65,2.65v-48.09Z"/>
    <path class="cls-13" d="m343.47,406.9c0,1.6,0,47.04,0,47.04l2.65-2.57s1.08,1.05.47,1.87c-.68.94-4.06,3.95-4.06,3.95,0,0-3.23-2.77-4.09-3.95-.59-.82.5-1.87.5-1.87l2.61,2.57v-36.55c-.61,8.97-7.4,9.68-20.59,9.68-1.45,0-1.43-2.08.03-2.07,18.08.16,19.28-1.12,19.28-18.08,0-2.61,3.2-2.61,3.2-.02Z"/>
    <path class="cls-13" d="m252.12,406.54c0-.56-.64-.97-1.68-.97-11.8,0-21.75,5.9-21.75,21.7,0,1.66,1.81,1.61,1.81,0,0-17.4,12.81-19.72,19.36-19.72.25,0,.34.15.34.33v46.74s-2.61-2.65-2.61-2.65c0,0-1.09,1.05-.5,1.87.86,1.18,4.09,3.95,4.09,3.95,0,0,3.38-3.01,4.06-3.95.61-.82-.47-1.87-.47-1.87l-2.65,2.65v-48.09Z"/>
    <path class="cls-13" d="m165.77,516.95c0,1.6,0,47.04,0,47.04l2.65-2.57s1.08,1.05.47,1.87c-.68.94-4.06,3.95-4.06,3.95,0,0-3.23-2.77-4.09-3.95-.59-.82.5-1.87.5-1.87l2.61,2.57v-36.55c-.61,8.97-7.4,9.68-20.59,9.68-1.45,0-1.43-2.08.03-2.07,18.08.16,19.28-1.12,19.28-18.08,0-2.61,3.2-2.61,3.2-.02Z"/>
    <path class="cls-13" d="m74.43,515.98c0-.56-.64-.97-1.68-.97-11.8,0-21.75,5.9-21.75,21.7,0,1.66,1.81,1.61,1.81,0,0-17.4,12.81-19.72,19.36-19.72.25,0,.34.15.34.33v46.74s-2.61-2.65-2.61-2.65c0,0-1.09,1.05-.5,1.87.86,1.18,4.09,3.95,4.09,3.95,0,0,3.38-3.01,4.06-3.95.61-.82-.47-1.87-.47-1.87l-2.65,2.65v-48.09Z"/>
    <path class="cls-13" d="m345.19,516.33c0,1.6,0,47.04,0,47.04l2.65-2.57s1.08,1.05.47,1.87c-.68.94-4.06,3.95-4.06,3.95,0,0-3.23-2.77-4.09-3.95-.59-.82.5-1.87.5-1.87l2.61,2.57v-36.55c-.61,8.97-7.4,9.68-20.59,9.68-1.45,0-1.43-2.08.03-2.07,18.08.16,19.28-1.12,19.28-18.08,0-2.61,3.2-2.61,3.2-.02Z"/>
    <path class="cls-13" d="m255.19,515.98c0-.56-.64-.97-1.68-.97-11.8,0-21.75,5.9-21.75,21.7,0,1.66,1.81,1.61,1.81,0,0-17.4,12.81-19.72,19.36-19.72.25,0,.34.15.34.33v46.74s-2.61-2.65-2.61-2.65c0,0-1.09,1.05-.5,1.87.86,1.18,4.09,3.95,4.09,3.95,0,0,3.38-3.01,4.06-3.95.61-.82-.47-1.87-.47-1.87l-2.65,2.65v-48.09Z"/>
    <path class="cls-13" d="m410.31,440.36c.71-1.15,4.14-3.89,4.14-3.89,0,0,3.27,2.73,4.13,3.89.6.83-.5,1.91-.5,1.91l-2.68-2.68c-.1,8.19,2.8,19.25,19.26,19.36.18,0,.34-.15.34-.33v-47.97c0-1.54,1.91-1.55,1.91,0,0,0,.01,48.95.01,49.51s-.64.97-1.68.97c-11.99,0-22.3-6.82-21.82-21.54l-2.6,2.68s-1.03-1.04-.49-1.91Z"/>
    <path class="cls-13" d="m410.57,551.19c.71-1.15,4.14-3.89,4.14-3.89,0,0,3.27,2.73,4.13,3.89.6.83-.5,1.91-.5,1.91l-2.68-2.68c-.1,8.19,2.8,19.25,19.26,19.36.18,0,.34-.15.34-.33v-47.97c0-1.54,1.91-1.55,1.91,0,0,0,.01,48.95.01,49.51,0,.56-.64.97-1.68.97-11.99,0-22.3-6.82-21.82-21.54l-2.6,2.68s-1.03-1.04-.49-1.91Z"/>
    <path class="cls-13" d="m503.5,439.86s2.77-3.23,3.95-4.09c.82-.59,1.87.5,1.87.5l-2.73,2.77c10.1-.42,15.8.99,18.46,6.85v-35.24c.01-1.54,1.92-1.55,1.92,0v49.5c0,1.33-2.1,1.28-2.1.03,0-16.52-2.8-19.77-18.28-19.39l2.73,2.66s-1.05,1.08-1.87.47c-.94-.68-3.95-4.06-3.95-4.06Z"/>
    <path class="cls-13" d="m590.31,440.36c.71-1.15,4.14-3.89,4.14-3.89,0,0,3.27,2.73,4.13,3.89.6.83-.5,1.91-.5,1.91l-2.68-2.68c-.1,8.19,2.8,19.25,19.26,19.36.18,0,.34-.15.34-.33v-47.97c0-1.54,1.91-1.55,1.91,0,0,0,.01,48.95.01,49.51s-.64.97-1.68.97c-11.99,0-22.3-6.82-21.82-21.54l-2.6,2.68s-1.03-1.04-.49-1.91Z"/>
    <path class="cls-13" d="m683.5,439.86s2.77-3.23,3.95-4.09c.82-.59,1.87.5,1.87.5l-2.73,2.77c10.1-.42,15.8.99,18.46,6.85v-35.24c.01-1.54,1.92-1.55,1.92,0v49.5c0,1.33-2.1,1.28-2.1.03,0-16.52-2.8-19.77-18.28-19.39l2.73,2.66s-1.05,1.08-1.87.47c-.94-.68-3.95-4.06-3.95-4.06Z"/>
    <path class="cls-13" d="m502.28,551.52s2.77-3.23,3.95-4.09c.82-.59,1.87.5,1.87.5l-2.73,2.77c10.1-.42,15.8.99,18.46,6.85v-35.24c.01-1.54,1.92-1.55,1.92,0v49.5c0,1.33-2.1,1.28-2.1.03,0-16.52-2.8-19.77-18.28-19.39l2.73,2.66s-1.05,1.08-1.87.47c-.94-.68-3.95-4.06-3.95-4.06Z"/>
    <path class="cls-13" d="m590.57,549.86c.71-1.15,4.14-3.89,4.14-3.89,0,0,3.27,2.73,4.13,3.89.6.83-.5,1.91-.5,1.91l-2.68-2.68c-.1,8.19,2.8,19.25,19.26,19.36.18,0,.34-.15.34-.33v-47.97c0-1.54,1.91-1.55,1.91,0,0,0,.01,48.95.01,49.51,0,.56-.64.97-1.68.97-11.99,0-22.3-6.82-21.82-21.54l-2.6,2.68s-1.03-1.04-.49-1.91Z"/>
    <path class="cls-13" d="m683.5,549.86s2.77-3.23,3.95-4.09c.82-.59,1.87.5,1.87.5l-2.73,2.77c10.1-.42,15.8.99,18.46,6.85v-35.24c.01-1.54,1.92-1.55,1.92,0v49.5c0,1.33-2.1,1.28-2.1.03,0-16.52-2.8-19.77-18.28-19.39l2.73,2.66s-1.05,1.08-1.87.47c-.94-.68-3.95-4.06-3.95-4.06Z"/>
    <path class="cls-21" d="m93.93,420.05c-.79-1.08-4.05-3.91-4.05-3.91,0,0-3.26,2.83-4.05,3.91-.59.82.5,1.87.5,1.87l2.62-2.58v25.44s-1.58,1.86-1.58,1.86v-22.66c0-1.3-1.87-1.3-1.87,0v25.5h1.87s2.63-3.09,2.63-3.09l.81-.96v-26.09s2.62,2.58,2.62,2.58c0,0,1.09-1.05.5-1.87Z"/>
    <path class="cls-21" d="m67.7,539.32c-1.08-.79-3.91-4.05-3.91-4.05,0,0,2.83-3.26,3.91-4.05.82-.59,1.87.5,1.87.5l-2.58,2.62h25.44l1.86-1.58h-22.66c-1.3,0-1.3-1.87,0-1.87h25.5v1.87s-3.09,2.63-3.09,2.63l-.96.81h-26.09l2.58,2.62s-1.05,1.09-1.87.5Z"/>
    <path class="cls-21" d="m157.93,558.44c-1.08-.79-3.91-4.05-3.91-4.05,0,0,2.83-3.26,3.91-4.05.82-.59,1.87.5,1.87.5l-2.58,2.62h25.44l1.86-1.58h-22.66c-1.3,0-1.3-1.87,0-1.87h25.5v1.87l-3.09,2.63-.96.81h-26.09l2.58,2.62s-1.05,1.09-1.87.5Z"/>
    <path class="cls-21" d="m273.22,539.32c1.08-.79,3.91-4.05,3.91-4.05,0,0-2.83-3.26-3.91-4.05-.82-.59-1.87.5-1.87.5l2.58,2.62h-25.44l-1.86-1.58h22.66c1.3,0,1.3-1.87,0-1.87h-25.5v1.87l3.09,2.63.96.81h26.09l-2.58,2.62s1.05,1.09,1.87.5Z"/>
    <path class="cls-21" d="m363.45,558.44c1.08-.79,3.91-4.05,3.91-4.05,0,0-2.83-3.26-3.91-4.05-.82-.59-1.87.5-1.87.5l2.58,2.62h-25.44l-1.86-1.58h22.66c1.3,0,1.3-1.87,0-1.87h-25.5v1.87s3.09,2.63,3.09,2.63l.96.81h26.09l-2.58,2.62s1.05,1.09,1.87.5Z"/>
    <path class="cls-21" d="m427.92,527.23c-1.08.79-3.91,4.05-3.91,4.05,0,0,2.83,3.26,3.91,4.05.82.59,1.87-.5,1.87-.5l-2.58-2.62h25.44l1.86,1.58h-22.66c-1.3,0-1.3,1.87,0,1.87h25.5v-1.87l-3.09-2.63-.96-.81h-.02s-26.07,0-26.07,0l2.58-2.62s-1.05-1.09-1.87-.5Z"/>
    <path class="cls-21" d="m516.14,527.23c-1.08.79-3.91,4.05-3.91,4.05,0,0,2.83,3.26,3.91,4.05.82.59,1.87-.5,1.87-.5l-2.58-2.62h25.44l1.86,1.58h-22.66c-1.3,0-1.3,1.87,0,1.87h25.5v-1.87s-3.09-2.63-3.09-2.63l-.96-.81h-26.09l2.58-2.62s-1.05-1.09-1.87-.5Z"/>
    <path class="cls-21" d="m633.22,527.23c1.08.79,3.91,4.05,3.91,4.05,0,0-2.83,3.26-3.91,4.05-.82.59-1.87-.5-1.87-.5l2.58-2.62h-25.44l-1.86,1.58h22.66c1.3,0,1.3,1.87,0,1.87h-25.5v-1.87l3.09-2.63.96-.81h26.09l-2.58-2.62s1.05-1.09,1.87-.5Z"/>
    <path class="cls-21" d="m723.45,527.23c1.08.79,3.91,4.05,3.91,4.05,0,0-2.83,3.26-3.91,4.05-.82.59-1.87-.5-1.87-.5l2.58-2.62h-25.44l-1.86,1.58h22.66c1.3,0,1.3,1.87,0,1.87h-25.5v-1.87s3.09-2.63,3.09-2.63l.96-.81h26.09l-2.58-2.62s1.05-1.09,1.87-.5Z"/>
    <path class="cls-21" d="m183.24,420.05c-.79-1.08-4.05-3.91-4.05-3.91,0,0-3.26,2.83-4.05,3.91-.59.82.5,1.87.5,1.87l2.62-2.58v25.44s-1.58,1.86-1.58,1.86v-22.66c0-1.3-1.87-1.3-1.87,0v25.5h1.87s2.63-3.09,2.63-3.09l.81-.96v-26.09s2.62,2.58,2.62,2.58c0,0,1.09-1.05.5-1.87Z"/>
    <path class="cls-21" d="m276.15,445.57c-.79,1.08-4.05,3.91-4.05,3.91,0,0-3.26-2.83-4.05-3.91-.59-.82.5-1.87.5-1.87l2.62,2.58v-25.44s-1.58-1.86-1.58-1.86v22.66c0,1.3-1.87,1.3-1.87,0v-25.5h1.87s2.63,3.09,2.63,3.09l.81.96v26.09s2.62-2.58,2.62-2.58c0,0,1.09,1.05.5,1.87Z"/>
    <path class="cls-21" d="m365.46,445.57c-.79,1.08-4.05,3.91-4.05,3.91,0,0-3.26-2.83-4.05-3.91-.59-.82.5-1.87.5-1.87l2.62,2.58v-25.44s-1.58-1.86-1.58-1.86v22.66c0,1.3-1.87,1.3-1.87,0v-25.5h1.87s2.63,3.09,2.63,3.09l.81.96v26.09s2.62-2.58,2.62-2.58c0,0,1.09,1.05.5,1.87Z"/>
    <path class="cls-21" d="m453.93,445.57c-.79,1.08-4.05,3.91-4.05,3.91,0,0-3.26-2.83-4.05-3.91-.59-.82.5-1.87.5-1.87l2.62,2.58v-25.44s-1.58-1.86-1.58-1.86v22.66c0,1.3-1.87,1.3-1.87,0v-25.5h1.87s2.63,3.09,2.63,3.09l.81.96v26.09s2.62-2.58,2.62-2.58c0,0,1.09,1.05.5,1.87Z"/>
    <path class="cls-21" d="m543.24,445.57c-.79,1.08-4.05,3.91-4.05,3.91,0,0-3.26-2.83-4.05-3.91-.59-.82.5-1.87.5-1.87l2.62,2.58v-25.44s-1.58-1.86-1.58-1.86v22.66c0,1.3-1.87,1.3-1.87,0v-25.5h1.87s2.63,3.09,2.63,3.09l.81.96v26.09s2.62-2.58,2.62-2.58c0,0,1.09,1.05.5,1.87Z"/>
    <path class="cls-21" d="m636.15,420.05c-.79-1.08-4.05-3.91-4.05-3.91,0,0-3.26,2.83-4.05,3.91-.59.82.5,1.87.5,1.87l2.62-2.58v25.44s-1.58,1.86-1.58,1.86v-22.66c0-1.3-1.87-1.3-1.87,0v25.5h1.87s2.63-3.09,2.63-3.09l.81-.96v-26.09s2.62,2.58,2.62,2.58c0,0,1.09-1.05.5-1.87Z"/>
    <path class="cls-21" d="m725.46,420.05c-.79-1.08-4.05-3.91-4.05-3.91,0,0-3.26,2.83-4.05,3.91-.59.82.5,1.87.5,1.87l2.62-2.58v25.44s-1.58,1.86-1.58,1.86v-22.66c0-1.3-1.87-1.3-1.87,0v25.5h1.87s2.63-3.09,2.63-3.09l.81-.96v-26.09s2.62,2.58,2.62,2.58c0,0,1.09-1.05.5-1.87Z"/>
    <rect class="cls-13" x="248.48" y="555.81" width="25" height="2.5" rx=".99" ry=".99" transform="translate(-296.07 818.04) rotate(-90)"/>
    <rect class="cls-21" x="262.74" y="541.56" width="25" height="2.5" rx=".99" ry=".99"/>
    <rect class="cls-13" x="338.48" y="555.81" width="25" height="2.5" rx=".99" ry=".99" transform="translate(-206.07 908.04) rotate(-90)"/>
    <rect class="cls-21" x="352.74" y="541.56" width="25" height="2.5" rx=".99" ry=".99"/>
    <rect class="cls-13" x="68.48" y="555.81" width="25" height="2.5" rx=".99" ry=".99" transform="translate(-476.07 638.04) rotate(-90)"/>
    <rect class="cls-21" x="54.24" y="541.56" width="25" height="2.5" rx=".99" ry=".99"/>
    <rect class="cls-13" x="158.48" y="555.81" width="25" height="2.5" rx=".99" ry=".99" transform="translate(-386.07 728.04) rotate(-90)"/>
    <rect class="cls-21" x="144.24" y="541.56" width="25" height="2.5" rx=".99" ry=".99"/>
    <rect class="cls-21" x="250.54" y="445.79" width="25" height="2.5" rx=".99" ry=".99" transform="translate(-184.01 710.08) rotate(-90)"/>
    <rect class="cls-13" x="246.54" y="445.79" width="25" height="2.5" rx=".99" ry=".99" transform="translate(-188.01 706.08) rotate(-90)"/>
    <rect class="cls-21" x="340.54" y="445.79" width="25" height="2.5" rx=".99" ry=".99" transform="translate(-94.01 800.08) rotate(-90)"/>
    <rect class="cls-13" x="336.54" y="445.79" width="25" height="2.5" rx=".99" ry=".99" transform="translate(-98.01 796.08) rotate(-90)"/>
    <rect class="cls-21" x="414.23" y="539.56" width="25" height="2.5" rx=".99" ry=".99" transform="translate(853.46 1081.63) rotate(-180)"/>
    <rect class="cls-13" x="414.23" y="543.56" width="25" height="2.5" rx=".99" ry=".99" transform="translate(853.46 1089.63) rotate(-180)"/>
    <rect class="cls-21" x="504.23" y="539.56" width="25" height="2.5" rx=".99" ry=".99" transform="translate(1033.46 1081.63) rotate(-180)"/>
    <rect class="cls-13" x="504.23" y="543.56" width="25" height="2.5" rx=".99" ry=".99" transform="translate(1033.46 1089.63) rotate(-180)"/>
    <rect class="cls-21" x="68.5" y="417.28" width="25" height="2.5" rx=".99" ry=".99" transform="translate(499.53 337.53) rotate(90)"/>
    <rect class="cls-13" x="68.5" y="445.8" width="25" height="2.5" rx=".99" ry=".99" transform="translate(-366.05 528.05) rotate(-90)"/>
    <rect class="cls-13" x="158.5" y="445.8" width="25" height="2.5" rx=".99" ry=".99" transform="translate(-276.05 618.05) rotate(-90)"/>
    <rect class="cls-21" x="158.5" y="417.28" width="25" height="2.5" rx=".99" ry=".99" transform="translate(589.53 247.53) rotate(90)"/>
    <rect class="cls-21" x="608.5" y="417.33" width="25" height="2.5" rx=".99" ry=".99" transform="translate(1039.58 -202.42) rotate(90)"/>
    <rect class="cls-21" x="698.5" y="417.33" width="25" height="2.5" rx=".99" ry=".99" transform="translate(1129.58 -292.42) rotate(90)"/>
    <rect class="cls-21" x="428.5" y="445.84" width="25" height="2.5" rx=".99" ry=".99" transform="translate(-6.09 888.09) rotate(-90)"/>
    <rect class="cls-13" x="414.23" y="431.6" width="25" height="2.5" rx=".99" ry=".99"/>
    <rect class="cls-13" x="504.23" y="431.6" width="25" height="2.5" rx=".99" ry=".99"/>
    <rect class="cls-13" x="594.23" y="431.6" width="25" height="2.5" rx=".99" ry=".99"/>
    <rect class="cls-13" x="594.23" y="541.52" width="25" height="2.5" rx=".99" ry=".99"/>
    <rect class="cls-21" x="622.77" y="541.52" width="25" height="2.5" rx=".99" ry=".99" transform="translate(1270.54 1085.55) rotate(-180)"/>
    <rect class="cls-13" x="684.23" y="541.52" width="25" height="2.5" rx=".99" ry=".99"/>
    <rect class="cls-21" x="712.77" y="541.52" width="25" height="2.5" rx=".99" ry=".99" transform="translate(1450.54 1085.55) rotate(-180)"/>
    <rect class="cls-13" x="684.23" y="431.6" width="25" height="2.5" rx=".99" ry=".99"/>
    <rect class="cls-21" x="518.5" y="445.84" width="25" height="2.5" rx=".99" ry=".99" transform="translate(83.91 978.09) rotate(-90)"/>
    <text class="cls-9" transform="translate(147.63 319.87)"><tspan x="0" y="0">Both ar</tspan><tspan class="cls-23" x="50.11" y="0">r</tspan><tspan class="cls-14" x="56.47" y="0">o</tspan><tspan class="cls-17" x="64.38" y="0">w</tspan><tspan x="75.95" y="0">s in ea</tspan><tspan class="cls-19" x="117.73" y="0">c</tspan><tspan x="124.59" y="0">h Type 3↔5 pic</tspan><tspan class="cls-18" x="227.26" y="0">t</tspan><tspan x="232.67" y="0">og</tspan><tspan class="cls-23" x="249.14" y="0">r</tspan><tspan x="255.5" y="0">aph a</tspan><tspan class="cls-23" x="292.77" y="0">r</tspan><tspan x="299.12" y="0">e </tspan><tspan class="cls-19" x="309.96" y="0">dy</tspan><tspan x="325.55" y="0">adic, so the</tspan><tspan class="cls-23" x="399.38" y="0">r</tspan><tspan x="405.74" y="0">e is no s</tspan><tspan class="cls-18" x="456.85" y="0">t</tspan><tspan x="462.27" y="0">a</tspan><tspan class="cls-22" x="470.68" y="0">gg</tspan><tspan x="487.16" y="0">e</tspan><tspan class="cls-25" x="494.48" y="0">r</tspan><tspan x="500.21" y="0">. </tspan><tspan class="cls-6" x="-116.5" y="19.2">E</tspan><tspan x="-107.64" y="19.2">a</tspan><tspan class="cls-19" x="-99.23" y="19.2">c</tspan><tspan x="-92.38" y="19.2">h </tspan><tspan class="cls-19" x="-80.37" y="19.2">dy</tspan><tspan x="-64.79" y="19.2">adic ar</tspan><tspan class="cls-23" x="-18.27" y="19.2">r</tspan><tspan class="cls-14" x="-11.91" y="19.2">o</tspan><tspan x="-4" y="19.2">w </tspan><tspan class="cls-19" x="11.17" y="19.2">c</tspan><tspan x="18.02" y="19.2">onsists of </tspan><tspan class="cls-24" x="82.71" y="19.2">t</tspan><tspan class="cls-19" x="88.47" y="19.2">w</tspan><tspan x="100.04" y="19.2">o base motions with equal du</tspan><tspan class="cls-23" x="293.29" y="19.2">r</tspan><tspan x="299.65" y="19.2">ation. Be</tspan><tspan class="cls-19" x="358.16" y="19.2">c</tspan><tspan x="365.01" y="19.2">ause of this, </tspan><tspan class="cls-19" x="446.41" y="19.2">w</tspan><tspan x="457.97" y="19.2">e </tspan><tspan class="cls-19" x="468.81" y="19.2">c</tspan><tspan x="475.66" y="19.2">an omit the half-lin</tspan><tspan class="cls-12" x="603.39" y="19.2">e</tspan><tspan x="610.61" y="19.2">s.</tspan></text>
  </g>
  <line class="cls-1" x1="395.97" y1="293.03" x2="395.97" y2="54.86"/>
  <line class="cls-1" x1="395.97" y1="595.79" x2="395.97" y2="357.62"/>
</svg>