<?xml version="1.0" encoding="UTF-8"?>
<svg id="Layer_1" data-name="Layer 1" xmlns="http://www.w3.org/2000/svg" viewBox="0 0 792 612">
  <defs>
    <style>
      .cls-1 {
        font-family: Cambria, Cambria;
      }

      .cls-1, .cls-2 {
        font-size: 25px;
      }

      .cls-1, .cls-3, .cls-4, .cls-5 {
        fill: #231f20;
      }

      .cls-2, .cls-5 {
        font-family: Cambria-BoldItalic, Cambria;
        font-style: italic;
        font-weight: 700;
      }

      .cls-6 {
        fill: #00aeef;
      }

      .cls-7 {
        fill: #2e3192;
      }

      .cls-3 {
        stroke: #231f20;
        stroke-miterlimit: 10;
        stroke-width: 2px;
      }

      .cls-8 {
        fill: #00a14b;
      }

      .cls-9 {
        letter-spacing: -.02em;
      }

      .cls-10 {
        fill: #ed1c24;
      }

      .cls-11 {
        letter-spacing: -.02em;
      }

      .cls-12 {
        letter-spacing: 0em;
      }

      .cls-13 {
        letter-spacing: -.01em;
      }

      .cls-5 {
        font-size: 30px;
      }
    </style>
  </defs>
  <line class="cls-3" x1="346.47" y1="425.09" x2="782.09" y2="425.09"/>
  <line class="cls-3" x1="346.47" y1="240.94" x2="782.09" y2="240.94"/>
  <g>
    <path class="cls-4" d="m546.37,570.85c-.5,2.51-1.03,3.37-3.39,3.82-.04,0-.07.04-.08.07v3.6c0,.22-.1.44-.25.6s-.36.24-.59.24-.43-.09-.61-.24c-.16-.16-.24-.38-.24-.6v-3.6s-.05-.06-.09-.07c-2.35-.45-2.88-1.31-3.38-3.82-.08-.36-.04-.65.12-.83.17-.21.42-.24.56-.24.24,0,.43.22.56.45.13.23.2.47.21.54.25,1.71.73,2.29,1.85,2.29h.09s.07-.02.09-.06v-3.05c.12-.28.2-.48.31-.6.07-.06.15-.1.23-.13.05-.02.1-.03.14-.04.11-.02.24-.02.33,0,.05,0,.1.02.15.04.07,0,.15.06.22.13.12.12.21.31.3.6v.03s.02.03.02.05v2.94s0,.02,0,.04c0,.03.05.05.09.05,1.2.04,1.68-.54,1.93-2.29.03-.13.28-.99.76-.99h0c.14,0,.39.03.56.24.15.19.19.47.12.83Z"/>
    <path class="cls-4" d="m563.2,570.85c-.5,2.51-1.03,3.37-3.39,3.82-.04,0-.07.04-.08.07v3.6c0,.22-.1.44-.25.6s-.36.24-.59.24-.43-.09-.61-.24c-.16-.16-.24-.38-.24-.6v-3.6s-.05-.06-.09-.07c-2.35-.45-2.88-1.31-3.38-3.82-.08-.36-.04-.65.12-.83.17-.21.42-.24.56-.24.24,0,.43.22.56.45.13.23.2.47.21.54.25,1.71.73,2.29,1.85,2.29h.09s.07-.02.09-.06v-3.05c.12-.28.2-.48.31-.6.07-.06.15-.1.23-.13.05-.02.1-.03.14-.04.11-.02.24-.02.33,0,.05,0,.1.02.15.04.07,0,.15.06.22.13.12.12.21.31.3.6v.03s.02.03.02.05v2.94s0,.02,0,.04c0,.03.05.05.09.05,1.2.04,1.68-.54,1.93-2.29.03-.13.28-.99.76-.99h0c.14,0,.39.03.56.24.15.19.19.47.12.83Z"/>
    <path class="cls-4" d="m629.03,577.83c.06-.29,1.97-5.54,3.02-7.94.32-.73.61-.72.74-.72s.42,0,.74.72c1.05,2.4,2.96,7.64,3.02,7.94.23,1-.08,1.16-.44,1.3-.28.13-.86.02-1.12-.7-.16-.42-2.2-5.86-2.2-5.86,0,0-2.05,5.44-2.2,5.86-.25.72-.83.82-1.12.7-.36-.15-.67-.3-.44-1.3Z"/>
    <path class="cls-4" d="m644.9,577.83c.06-.29,1.97-5.54,3.02-7.94.32-.73.61-.72.74-.72s.42,0,.74.72c1.05,2.4,2.96,7.64,3.02,7.94.23,1-.08,1.16-.44,1.3-.28.13-.86.02-1.12-.7-.16-.42-2.2-5.86-2.2-5.86,0,0-2.05,5.44-2.2,5.86-.25.72-.83.82-1.12.7-.36-.15-.67-.3-.44-1.3Z"/>
    <path class="cls-10" d="m477.3,516.88c0,.51-.31.83-.7.83h-3.1v32.06l2.62-2.58s1.09,1.05.5,1.87c-.86,1.18-4.09,3.95-4.09,3.95,0,0-3.38-3.01-4.06-3.95-.61-.82.47-1.87.47-1.87l2.65,2.72s-.01-29.73-.01-32.2h-1.7c0,1.81.01,27.07.01,27.07,0,.54-.43.97-.96.97s-.96-.43-.96-.97v-27.07h-3.1c-.4,0-.73-.28-.73-.83s.33-.75.73-.75h11.73c.39,0,.7.24.7.75Z"/>
    <path class="cls-7" d="m444.81,551.74c0-.51.31-.83.7-.83h3.1c0-3.56,0-32.06,0-32.06l-2.62,2.58s-1.09-1.05-.5-1.87c.86-1.18,4.09-3.95,4.09-3.95,0,0,3.38,3.01,4.06,3.95.61.82-.47,1.87-.47,1.87l-2.65-2.72s.01,29.73.01,32.2h1.7c0-1.81-.01-27.07-.01-27.07,0-.54.43-.97.96-.97s.96.43.96.97c0,0,0,24.18,0,27.07h3.1c.4,0,.73.28.73.83,0,.55-.33.75-.73.75h-11.73c-.39,0-.7-.24-.7-.75Z"/>
    <path d="m473.57,571.96c-.71-.51-1.55-.82-2.45-.91v-1.11c0-.42-.34-.76-.77-.76h-.12c-.43,0-.77.34-.77.76v1.11c-.9.09-1.75.4-2.45.91-.71.48-1.09,1.08-1.14,1.75-.06.85.42,1.62.85,2.01.7.66,1.64,1.05,2.74,1.14v1.55c0,.42.34.76.77.76h.12c.43,0,.77-.34.77-.76v-1.55c1.1-.09,2.04-.48,2.74-1.14.43-.39.91-1.17.85-2.01-.05-.68-.43-1.26-1.14-1.75Zm-2.45,1.84c0-.41,0-.75.04-1.08,0-.11.1-.2.21-.21h.07c.8,0,1.4.28,1.68.79.25.45.22,1.01-.09,1.45-.34.52-.97.77-1.72.69-.1,0-.18-.1-.18-.21,0-.27,0-.56,0-.85,0-.2,0-.39,0-.59Zm-3.66-.49c.27-.51.87-.79,1.67-.79h.07c.12,0,.21.1.22.21.03.33.04.69.04,1.08,0,.2,0,.4,0,.6,0,.28,0,.57,0,.84,0,.11-.08.2-.18.21-.75.09-1.37-.17-1.72-.69-.3-.44-.33-1-.09-1.45Z"/>
    <path d="m455,571.96c-.71-.51-1.55-.82-2.45-.91v-1.11c0-.42-.34-.76-.77-.76h-.12c-.43,0-.77.34-.77.76v1.11c-.9.09-1.75.4-2.45.91-.71.48-1.09,1.08-1.14,1.75-.06.85.42,1.62.85,2.01.7.66,1.64,1.05,2.74,1.14v1.55c0,.42.34.76.77.76h.12c.43,0,.77-.34.77-.76v-1.55c1.1-.09,2.04-.48,2.74-1.14.43-.39.91-1.17.85-2.01-.05-.68-.43-1.26-1.14-1.75Zm-2.45,1.84c0-.41,0-.75.04-1.08,0-.11.1-.2.21-.21h.07c.8,0,1.4.28,1.68.79.25.45.22,1.01-.09,1.45-.34.52-.97.77-1.72.69-.1,0-.18-.1-.18-.21,0-.27,0-.56,0-.85,0-.2,0-.39,0-.59Zm-3.66-.49c.27-.51.87-.79,1.67-.79h.07c.12,0,.21.1.22.21.03.33.04.69.04,1.08,0,.2,0,.4,0,.6,0,.28,0,.57,0,.84,0,.11-.08.2-.18.21-.75.09-1.37-.17-1.72-.69-.3-.44-.33-1-.09-1.45Z"/>
    <rect class="cls-4" x="475.9" y="573.23" width="6.95" height="1.9" rx=".95" ry=".95"/>
    <rect class="cls-4" x="457.54" y="573.23" width="6.95" height="1.9" rx=".95" ry=".95"/>
    <path class="cls-10" d="m554.14,552.25c0-.51.31-.83.7-.83h3.1c0-3.56,0-32.06,0-32.06l-2.62,2.58s-1.09-1.05-.5-1.87c.86-1.18,4.09-3.95,4.09-3.95,0,0,3.38,3.01,4.06,3.95.61.82-.47,1.87-.47,1.87l-2.65-2.72s.01,29.73.01,32.2h1.7c0-1.81-.01-27.07-.01-27.07,0-.54.43-.97.96-.97s.96.43.96.97c0,0,0,24.18,0,27.07h3.1c.4,0,.73.28.73.83s-.33.75-.73.75h-11.73c-.39,0-.7-.24-.7-.75Z"/>
    <path class="cls-7" d="m547.97,552.25c0-.51-.31-.83-.7-.83h-3.1c0-3.56,0-32.06,0-32.06l2.62,2.58s1.09-1.05.5-1.87c-.86-1.18-4.09-3.95-4.09-3.95,0,0-3.38,3.01-4.06,3.95-.61.82.47,1.87.47,1.87l2.65-2.72s-.01,29.73-.01,32.2h-1.7c0-1.81.01-27.07.01-27.07,0-.54-.43-.97-.96-.97s-.96.43-.96.97c0,0,0,24.18,0,27.07h-3.1c-.4,0-.73.28-.73.83s.33.75.73.75h11.73c.39,0,.7-.24.7-.75Z"/>
    <rect class="cls-4" x="563.92" y="573.23" width="6.95" height="1.9" rx=".95" ry=".95"/>
    <rect class="cls-4" x="546.4" y="573.23" width="6.95" height="1.9" rx=".95" ry=".95"/>
    <path class="cls-10" d="m638.83,516.88c0,.51-.31.83-.7.83h-3.1v32.06l2.62-2.58s1.09,1.05.5,1.87c-.86,1.18-4.09,3.95-4.09,3.95,0,0-3.38-3.01-4.06-3.95-.61-.82.47-1.87.47-1.87l2.65,2.72s-.01-29.73-.01-32.2h-1.7c0,1.81.01,27.07.01,27.07,0,.54-.43.97-.96.97s-.96-.43-.96-.97v-27.07h-3.1c-.4,0-.73-.28-.73-.83s.33-.75.73-.75h11.73c.39,0,.7.24.7.75Z"/>
    <path class="cls-7" d="m623.62,531.95c.51,0,.83-.31.83-.7v-3.1c3.56,0,32.06,0,32.06,0l-2.58,2.62s1.05,1.09,1.87.5c1.18-.86,3.95-4.09,3.95-4.09,0,0-3.01-3.38-3.95-4.06-.82-.61-1.87.47-1.87.47l2.72,2.65s-29.73-.01-32.2-.01v-1.7c1.81,0,27.07.01,27.07.01.54,0,.97-.43.97-.96,0-.53-.43-.96-.97-.96,0,0-24.18,0-27.07,0v-3.1c0-.4-.28-.73-.83-.73-.55,0-.75.33-.75.73v11.73c0,.39.24.7.75.7Z"/>
    <rect class="cls-4" x="637.32" y="573.23" width="6.95" height="1.9" rx=".95" ry=".95"/>
    <rect class="cls-4" x="652.77" y="573.23" width="6.95" height="1.9" rx=".95" ry=".95"/>
  </g>
  <text class="cls-5" transform="translate(474.09 478.87)"><tspan x="0" y="0">Type 5 → 5</tspan></text>
  <text class="cls-2" transform="translate(21.13 85.07)"><tspan class="cls-8" x="0" y="0">D </tspan><tspan class="cls-4" x="22.47" y="0">→ </tspan><tspan class="cls-8" x="48.93" y="0">D</tspan></text>
  <text class="cls-2" transform="translate(645.76 474.3)"><tspan class="cls-6" x="0" y="0">D</tspan><tspan class="cls-4" x="16.97" y="0">-</tspan><tspan class="cls-8" x="25.1" y="0">D </tspan><tspan class="cls-4" x="47.57" y="0">→ </tspan><tspan class="cls-6" x="74.02" y="0">D</tspan><tspan class="cls-4" x="90.99" y="0">-</tspan><tspan class="cls-8" x="99.12" y="0">D</tspan></text>
  <text class="cls-5" transform="translate(474.09 283.66)"><tspan x="0" y="0">Type 5 → 4</tspan></text>
  <text class="cls-2" transform="translate(649.06 92.61)"><tspan class="cls-8" x="0" y="0">D </tspan><tspan class="cls-4" x="22.47" y="0">→ </tspan><tspan class="cls-6" x="48.93" y="0">D</tspan><tspan class="cls-4" x="65.89" y="0">-</tspan><tspan class="cls-8" x="74.02" y="0">D</tspan></text>
  <text class="cls-2" transform="translate(648.66 284.1)"><tspan class="cls-6" x="0" y="0">D</tspan><tspan class="cls-4" x="16.97" y="0">-</tspan><tspan class="cls-8" x="25.1" y="0">D </tspan><tspan class="cls-4" x="47.57" y="0">→ </tspan><tspan class="cls-8" x="74.02" y="0">D</tspan></text>
  <g>
    <text class="cls-1" transform="translate(130.75 371.48)"><tspan class="cls-11" x="0" y="0">R</tspan><tspan class="cls-12" x="15.08" y="0">e</tspan><tspan class="cls-9" x="27.03" y="0">v</tspan><tspan x="39.14" y="0">ersal</tspan></text>
    <path class="cls-10" d="m93.63,429.06v22.77c0,.54.43.97.96.97s.96-.43.96-.97c0,0-.01-19.34-.01-20.52s1.7.26,1.7,1.57c0,1.99.01,24.08.01,24.08l-2.65-2.72s-1.08,1.05-.47,1.87c.68.94,4.06,3.95,4.06,3.95,0,0,3.23-2.77,4.09-3.95.59-.82-.5-1.87-.5-1.87l-2.62,2.58v-24.79c0-3.33-5.53-5.62-5.53-2.97Z"/>
    <path class="cls-10" d="m181.43,458.91v-22.77c0-.54.43-.97.96-.97s.96.43.96.97c0,0-.01,19.34-.01,20.52s1.7-.26,1.7-1.57c0-1.99.01-24.08.01-24.08l-2.65,2.72s-1.08-1.05-.47-1.87c.68-.94,4.06-3.95,4.06-3.95,0,0,3.23,2.77,4.09,3.95.59.82-.5,1.87-.5,1.87l-2.62-2.58v24.79c0,3.33-5.53,5.62-5.53,2.97Z"/>
    <path class="cls-10" d="m250.84,440.29h22.77c.54,0,.97-.43.97-.96s-.43-.96-.97-.96c0,0-19.34.01-20.52.01s.26-1.7,1.57-1.7c1.99,0,24.08-.01,24.08-.01l-2.72,2.65s1.05,1.08,1.87.47c.94-.68,3.95-4.06,3.95-4.06,0,0-2.77-3.23-3.95-4.09-.82-.59-1.87.5-1.87.5l2.58,2.62h-24.79c-3.33,0-5.62,5.53-2.97,5.53Z"/>
    <path class="cls-4" d="m95.87,485.16c-.5,2.51-1.03,3.37-3.39,3.82-.04,0-.07.04-.08.07v3.6c0,.22-.1.44-.25.6s-.36.24-.59.24-.43-.09-.61-.24c-.16-.16-.24-.38-.24-.6v-3.6s-.05-.06-.09-.07c-2.35-.45-2.88-1.31-3.38-3.82-.08-.36-.04-.65.12-.83.17-.21.42-.24.56-.24.24,0,.43.22.56.45.13.23.2.47.21.54.25,1.71.73,2.29,1.85,2.29h.09s.07-.02.09-.06v-3.05c.12-.28.2-.48.31-.6.07-.06.15-.1.23-.13.05-.02.1-.03.14-.04.11-.02.24-.02.33,0,.05,0,.1.02.15.04.07,0,.15.06.22.13.12.12.21.31.3.6v.03s.02.03.02.05v2.94s0,.02,0,.04c0,.03.05.05.09.05,1.2.04,1.68-.54,1.93-2.29.03-.13.28-.99.76-.99h0c.14,0,.39.03.56.24.15.19.19.47.12.83Z"/>
    <path class="cls-4" d="m177.66,485.16c-.5,2.51-1.03,3.37-3.39,3.82-.04,0-.07.04-.08.07v3.6c0,.22-.1.44-.25.6s-.36.24-.59.24-.43-.09-.61-.24c-.16-.16-.24-.38-.24-.6v-3.6s-.05-.06-.09-.07c-2.35-.45-2.88-1.31-3.38-3.82-.08-.36-.04-.65.12-.83.17-.21.42-.24.56-.24.24,0,.43.22.56.45.13.23.2.47.21.54.25,1.71.73,2.29,1.85,2.29h.09s.07-.02.09-.06v-3.05c.12-.28.2-.48.31-.6.07-.06.15-.1.23-.13.05-.02.1-.03.14-.04.11-.02.24-.02.33,0,.05,0,.1.02.15.04.07,0,.15.06.22.13.12.12.21.31.3.6v.03s.02.03.02.05v2.94s0,.02,0,.04c0,.03.05.05.09.05,1.2.04,1.68-.54,1.93-2.29.03-.13.28-.99.76-.99h0c.14,0,.39.03.56.24.15.19.19.47.12.83Z"/>
    <path d="m85.42,486.27c-.71-.51-1.55-.82-2.45-.91v-1.11c0-.42-.34-.76-.77-.76h-.12c-.43,0-.77.34-.77.76v1.11c-.9.09-1.75.4-2.45.91-.71.48-1.09,1.08-1.14,1.75-.06.85.42,1.62.85,2.01.7.66,1.64,1.05,2.74,1.14v1.55c0,.42.34.76.77.76h.12c.43,0,.77-.34.77-.76v-1.55c1.1-.09,2.04-.48,2.74-1.14.43-.39.91-1.17.85-2.01-.05-.68-.43-1.26-1.14-1.75Zm-2.45,1.84c0-.41,0-.75.04-1.08,0-.11.1-.2.21-.21h.07c.8,0,1.4.28,1.68.79.25.45.22,1.01-.09,1.45-.34.52-.97.77-1.72.69-.1,0-.18-.1-.18-.21,0-.27,0-.56,0-.85,0-.2,0-.39,0-.59Zm-3.66-.49c.27-.51.87-.79,1.67-.79h.07c.12,0,.21.1.22.21.03.33.04.69.04,1.08,0,.2,0,.4,0,.6,0,.28,0,.57,0,.84,0,.11-.08.2-.18.21-.75.09-1.37-.17-1.72-.69-.3-.44-.33-1-.09-1.45Z"/>
    <path d="m186.24,486.27c-.71-.51-1.55-.82-2.45-.91v-1.11c0-.42-.34-.76-.77-.76h-.12c-.43,0-.77.34-.77.76v1.11c-.9.09-1.75.4-2.45.91-.71.48-1.09,1.08-1.14,1.75-.06.85.42,1.62.85,2.01.7.66,1.64,1.05,2.74,1.14v1.55c0,.42.34.76.77.76h.12c.43,0,.77-.34.77-.76v-1.55c1.1-.09,2.04-.48,2.74-1.14.43-.39.91-1.17.85-2.01-.05-.68-.43-1.26-1.14-1.75Zm-2.45,1.84c0-.41,0-.75.04-1.08,0-.11.1-.2.21-.21h.07c.8,0,1.4.28,1.68.79.25.45.22,1.01-.09,1.45-.34.52-.97.77-1.72.69-.1,0-.18-.1-.18-.21,0-.27,0-.56,0-.85,0-.2,0-.39,0-.59Zm-3.66-.49c.27-.51.87-.79,1.67-.79h.07c.12,0,.21.1.22.21.03.33.04.69.04,1.08,0,.2,0,.4,0,.6,0,.28,0,.57,0,.84,0,.11-.08.2-.18.21-.75.09-1.37-.17-1.72-.69-.3-.44-.33-1-.09-1.45Z"/>
    <path class="cls-4" d="m258.57,492.14c.06-.29,1.97-5.54,3.02-7.94.32-.73.61-.72.74-.72s.42,0,.74.72c1.05,2.4,2.96,7.64,3.02,7.94.23,1-.08,1.16-.44,1.3-.28.13-.86.02-1.12-.7-.16-.42-2.2-5.86-2.2-5.86,0,0-2.05,5.44-2.2,5.86-.25.72-.83.82-1.12.7-.36-.15-.67-.3-.44-1.3Z"/>
    <path class="cls-4" d="m268.81,492.14c.06-.29,1.97-5.54,3.02-7.94.32-.73.61-.72.74-.72s.42,0,.74.72c1.05,2.4,2.96,7.64,3.02,7.94.23,1-.08,1.16-.44,1.3-.28.13-.86.02-1.12-.7-.16-.42-2.2-5.86-2.2-5.86,0,0-2.05,5.44-2.2,5.86-.25.72-.83.82-1.12.7-.36-.15-.67-.3-.44-1.3Z"/>
  </g>
  <g>
    <text class="cls-5" transform="translate(97.89 165.84)"><tspan x="0" y="0">Type 4 → 4</tspan></text>
    <text class="cls-1" transform="translate(123.88 210.9)"><tspan x="0" y="0">Stagge</tspan><tspan class="cls-13" x="69.97" y="0">r</tspan><tspan x="79.94" y="0">ed</tspan></text>
    <path class="cls-10" d="m280.17,263.95l2.72-2.65h-32.81c-.54.01-.97-.42-.97-.95s.43-.96.97-.96h32.67s-2.58-2.62-2.58-2.62c0,0,1.05-1.09,1.87-.5,1.18.86,3.95,4.09,3.95,4.09,0,0-3.01,3.38-3.95,4.06-.82.61-1.87-.47-1.87-.47Z"/>
    <path class="cls-7" d="m164.57,287.1v-.13c0-.4.33-.72.72-.72h3.1s0-32.06,0-32.06l-2.62,2.58s-1.09-1.05-.5-1.87c.86-1.18,4.09-3.95,4.09-3.95,0,0,3.38,3.01,4.06,3.95.61.82-.47,1.87-.47,1.87l-2.65-2.72v32.2h3.11c.4,0,.73.32.73.72v.13c0,.4-.33.73-.73.73h-8.12c-.39,0-.72-.33-.72-.73Z"/>
    <path class="cls-10" d="m182.49,282.01l2.65,2.72v-32.81c-.01-.54.42-.97.95-.97s.96.43.96.97v32.67s2.62-2.58,2.62-2.58c0,0,1.09,1.05.5,1.87-.86,1.18-4.09,3.95-4.09,3.95,0,0-3.38-3.01-4.06-3.95-.61-.82.47-1.87.47-1.87Z"/>
    <path class="cls-7" d="m74.04,286.57v-.13c0-.4.33-.72.72-.72h3.1s0-32.06,0-32.06l-2.62,2.58s-1.09-1.05-.5-1.87c.86-1.18,4.09-3.95,4.09-3.95,0,0,3.38,3.01,4.06,3.95.61.82-.47,1.87-.47,1.87l-2.65-2.72v32.2h3.11c.4,0,.73.32.73.72v.13c0,.4-.33.73-.73.73h-8.12c-.39,0-.72-.33-.72-.73Z"/>
    <path class="cls-10" d="m99.46,256.27l-2.65-2.72v32.81c.01.54-.42.97-.95.97s-.96-.43-.96-.97v-32.67s-2.62,2.58-2.62,2.58c0,0-1.09-1.05-.5-1.87.86-1.18,4.09-3.95,4.09-3.95,0,0,3.38,3.01,4.06,3.95.61.82-.47,1.87-.47,1.87Z"/>
    <path class="cls-7" d="m254.57,287.1v-.13c0-.4.33-.72.72-.72h3.1s0-32.06,0-32.06l-2.62,2.58s-1.09-1.05-.5-1.87c.86-1.18,4.09-3.95,4.09-3.95,0,0,3.38,3.01,4.06,3.95.61.82-.47,1.87-.47,1.87l-2.65-2.72v32.2h3.11c.4,0,.73.32.73.72v.13c0,.4-.33.73-.73.73h-8.12c-.39,0-.72-.33-.72-.73Z"/>
    <path class="cls-4" d="m96.11,310.29c-.5,2.51-1.03,3.37-3.39,3.82-.04,0-.07.04-.08.07v3.6c0,.22-.1.44-.25.6s-.36.24-.59.24-.43-.09-.61-.24c-.16-.16-.24-.38-.24-.6v-3.6s-.05-.06-.09-.07c-2.35-.45-2.88-1.31-3.38-3.82-.08-.36-.04-.65.12-.83.17-.21.42-.24.56-.24.24,0,.43.22.56.45.13.23.2.47.21.54.25,1.71.73,2.29,1.85,2.29h.09s.07-.02.09-.06v-3.05c.12-.28.2-.48.31-.6.07-.06.15-.1.23-.13.05-.02.1-.03.14-.04.11-.02.24-.02.33,0,.05,0,.1.02.15.04.07,0,.15.06.22.13.12.12.21.31.3.6v.03s.02.03.02.05v2.94s0,.02,0,.04c0,.03.05.05.09.05,1.2.04,1.68-.54,1.93-2.29.03-.13.28-.99.76-.99h0c.14,0,.39.03.56.24.15.19.19.47.12.83Z"/>
    <path class="cls-4" d="m177.9,310.29c-.5,2.51-1.03,3.37-3.39,3.82-.04,0-.07.04-.08.07v3.6c0,.22-.1.44-.25.6s-.36.24-.59.24-.43-.09-.61-.24c-.16-.16-.24-.38-.24-.6v-3.6s-.05-.06-.09-.07c-2.35-.45-2.88-1.31-3.38-3.82-.08-.36-.04-.65.12-.83.17-.21.42-.24.56-.24.24,0,.43.22.56.45.13.23.2.47.21.54.25,1.71.73,2.29,1.85,2.29h.09s.07-.02.09-.06v-3.05c.12-.28.2-.48.31-.6.07-.06.15-.1.23-.13.05-.02.1-.03.14-.04.11-.02.24-.02.33,0,.05,0,.1.02.15.04.07,0,.15.06.22.13.12.12.21.31.3.6v.03s.02.03.02.05v2.94s0,.02,0,.04c0,.03.05.05.09.05,1.2.04,1.68-.54,1.93-2.29.03-.13.28-.99.76-.99h0c.14,0,.39.03.56.24.15.19.19.47.12.83Z"/>
    <path d="m85.66,311.4c-.71-.51-1.55-.82-2.45-.91v-1.11c0-.42-.34-.76-.77-.76h-.12c-.43,0-.77.34-.77.76v1.11c-.9.09-1.75.4-2.45.91-.71.48-1.09,1.08-1.14,1.75-.06.85.42,1.62.85,2.01.7.66,1.64,1.05,2.74,1.14v1.55c0,.42.34.76.77.76h.12c.43,0,.77-.34.77-.76v-1.55c1.1-.09,2.04-.48,2.74-1.14.43-.39.91-1.17.85-2.01-.05-.68-.43-1.26-1.14-1.75Zm-2.45,1.84c0-.41,0-.75.04-1.08,0-.11.1-.2.21-.21h.07c.8,0,1.4.28,1.68.79.25.45.22,1.01-.09,1.45-.34.52-.97.77-1.72.69-.1,0-.18-.1-.18-.21,0-.27,0-.56,0-.85,0-.2,0-.39,0-.59Zm-3.66-.49c.27-.51.87-.79,1.67-.79h.07c.12,0,.21.1.22.21.03.33.04.69.04,1.08,0,.2,0,.4,0,.6,0,.28,0,.57,0,.84,0,.11-.08.2-.18.21-.75.09-1.37-.17-1.72-.69-.3-.44-.33-1-.09-1.45Z"/>
    <path d="m186.47,311.4c-.71-.51-1.55-.82-2.45-.91v-1.11c0-.42-.34-.76-.77-.76h-.12c-.43,0-.77.34-.77.76v1.11c-.9.09-1.75.4-2.45.91-.71.48-1.09,1.08-1.14,1.75-.06.85.42,1.62.85,2.01.7.66,1.64,1.05,2.74,1.14v1.55c0,.42.34.76.77.76h.12c.43,0,.77-.34.77-.76v-1.55c1.1-.09,2.04-.48,2.74-1.14.43-.39.91-1.17.85-2.01-.05-.68-.43-1.26-1.14-1.75Zm-2.45,1.84c0-.41,0-.75.04-1.08,0-.11.1-.2.21-.21h.07c.8,0,1.4.28,1.68.79.25.45.22,1.01-.09,1.45-.34.52-.97.77-1.72.69-.1,0-.18-.1-.18-.21,0-.27,0-.56,0-.85,0-.2,0-.39,0-.59Zm-3.66-.49c.27-.51.87-.79,1.67-.79h.07c.12,0,.21.1.22.21.03.33.04.69.04,1.08,0,.2,0,.4,0,.6,0,.28,0,.57,0,.84,0,.11-.08.2-.18.21-.75.09-1.37-.17-1.72-.69-.3-.44-.33-1-.09-1.45Z"/>
    <path class="cls-4" d="m258.81,317.27c.06-.29,1.97-5.54,3.02-7.94.32-.73.61-.72.74-.72s.42,0,.74.72c1.05,2.4,2.96,7.64,3.02,7.94.23,1-.08,1.16-.44,1.3-.28.13-.86.02-1.12-.7-.16-.42-2.2-5.86-2.2-5.86,0,0-2.05,5.44-2.2,5.86-.25.72-.83.82-1.12.7-.36-.15-.67-.3-.44-1.3Z"/>
    <path class="cls-4" d="m269.05,317.27c.06-.29,1.97-5.54,3.02-7.94.32-.73.61-.72.74-.72s.42,0,.74.72c1.05,2.4,2.96,7.64,3.02,7.94.23,1-.08,1.16-.44,1.3-.28.13-.86.02-1.12-.7-.16-.42-2.2-5.86-2.2-5.86,0,0-2.05,5.44-2.2,5.86-.25.72-.83.82-1.12.7-.36-.15-.67-.3-.44-1.3Z"/>
  </g>
  <line class="cls-3" x1="346.47" y1="60.68" x2="346.47" y2="591.38"/>
  <rect class="cls-4" x="547.68" y="392.85" width="6.95" height="1.9" rx=".95" ry=".95"/>
  <rect class="cls-4" x="458.28" y="392.85" width="6.95" height="1.9" rx=".95" ry=".95"/>
  <rect class="cls-4" x="636.79" y="392.85" width="6.95" height="1.9" rx=".95" ry=".95"/>
  <g>
    <path class="cls-7" d="m653.64,344.54l2.72-2.65h-32.81c-.54.01-.97-.42-.97-.95,0-.53.43-.96.97-.96h32.67s-2.58-2.62-2.58-2.62c0,0,1.05-1.09,1.87-.5,1.18.86,3.95,4.09,3.95,4.09,0,0-3.01,3.38-3.95,4.06-.82.61-1.87-.47-1.87-.47Z"/>
    <path class="cls-4" d="m546.92,390.47c-.5,2.51-1.03,3.37-3.39,3.82-.04,0-.07.04-.08.07v3.6c0,.22-.1.44-.25.6s-.36.24-.59.24-.43-.09-.61-.24c-.16-.16-.24-.38-.24-.6v-3.6s-.05-.06-.09-.07c-2.35-.45-2.88-1.31-3.38-3.82-.08-.36-.04-.65.12-.83.17-.21.42-.24.56-.24.24,0,.43.22.56.45.13.23.2.47.21.54.25,1.71.73,2.29,1.85,2.29h.09s.07-.02.09-.06v-3.05c.12-.28.2-.48.31-.6.07-.06.15-.1.23-.13.05-.02.1-.03.14-.04.11-.02.24-.02.33,0,.05,0,.1.02.15.04.07,0,.15.06.22.13.12.12.21.31.3.6v.03s.02.03.02.05v2.94s0,.02,0,.04c0,.03.05.05.09.05,1.2.04,1.68-.54,1.93-2.29.03-.13.28-.99.76-.99h0c.14,0,.39.03.56.24.15.19.19.47.12.83Z"/>
    <path class="cls-4" d="m474.45,390.47c-.5,2.51-1.03,3.37-3.39,3.82-.04,0-.07.04-.08.07v3.6c0,.22-.1.44-.25.6-.16.16-.36.24-.59.24s-.43-.09-.61-.24c-.16-.16-.24-.38-.24-.6v-3.6s-.05-.06-.09-.07c-2.35-.45-2.88-1.31-3.38-3.82-.08-.36-.04-.65.12-.83.17-.21.42-.24.56-.24.24,0,.43.22.56.45.13.23.2.47.21.54.25,1.71.73,2.29,1.85,2.29h.09s.07-.02.09-.06v-3.05c.12-.28.2-.48.31-.6.07-.06.15-.1.23-.13.05-.02.1-.03.14-.04.11-.02.24-.02.33,0,.05,0,.1.02.15.04.07,0,.15.06.22.13.12.12.21.31.3.6v.03s.02.03.02.05v2.94s0,.02,0,.04c0,.03.05.05.09.05,1.2.04,1.68-.54,1.93-2.29.03-.13.28-.99.76-.99h0c.14,0,.39.03.56.24.15.19.19.47.12.83Z"/>
    <path class="cls-4" d="m644.8,397.45c.06-.29,1.97-5.54,3.02-7.94.32-.73.61-.72.74-.72s.42,0,.74.72c1.05,2.4,2.96,7.64,3.02,7.94.23,1-.08,1.16-.44,1.3-.28.13-.86.02-1.12-.7-.16-.42-2.2-5.86-2.2-5.86,0,0-2.05,5.44-2.2,5.86-.25.72-.83.82-1.12.7-.36-.15-.67-.3-.44-1.3Z"/>
    <path class="cls-4" d="m628.58,397.45c.06-.29,1.97-5.54,3.02-7.94.32-.73.61-.72.74-.72s.42,0,.74.72c1.05,2.4,2.96,7.64,3.02,7.94.23,1-.08,1.16-.44,1.3-.28.13-.86.02-1.12-.7-.16-.42-2.2-5.86-2.2-5.86,0,0-2.05,5.44-2.2,5.86-.25.72-.83.82-1.12.7-.36-.15-.67-.3-.44-1.3Z"/>
    <path class="cls-10" d="m567.27,331.88c0,.51-.31.83-.7.83h-3.1v32.06l2.62-2.58s1.09,1.05.5,1.87c-.86,1.18-4.09,3.95-4.09,3.95,0,0-3.38-3.01-4.06-3.95-.61-.82.47-1.87.47-1.87l2.65,2.72s-.01-29.73-.01-32.2h-1.7c0,1.81.01,27.07.01,27.07,0,.54-.43.97-.96.97s-.96-.43-.96-.97v-27.07h-3.1c-.4,0-.73-.28-.73-.83s.33-.75.73-.75h11.73c.39,0,.7.24.7.75Z"/>
    <path d="m563.3,391.58c-.71-.51-1.55-.82-2.45-.91v-1.11c0-.42-.34-.76-.77-.76h-.12c-.43,0-.77.34-.77.76v1.11c-.9.09-1.75.4-2.45.91-.71.48-1.09,1.08-1.14,1.75-.06.85.42,1.62.85,2.01.7.66,1.64,1.05,2.74,1.14v1.55c0,.42.34.76.77.76h.12c.43,0,.77-.34.77-.76v-1.55c1.1-.09,2.04-.48,2.74-1.14.43-.39.91-1.17.85-2.01-.05-.68-.43-1.26-1.14-1.75Zm-2.45,1.84c0-.41,0-.75.04-1.08,0-.11.1-.2.21-.21h.07c.8,0,1.4.28,1.68.79.25.45.22,1.01-.09,1.45-.34.52-.97.77-1.72.69-.1,0-.18-.1-.18-.21,0-.27,0-.56,0-.85,0-.2,0-.39,0-.59Zm-3.66-.49c.27-.51.87-.79,1.67-.79h.07c.12,0,.21.1.22.21.03.33.04.69.04,1.08,0,.2,0,.4,0,.6,0,.28,0,.57,0,.84,0,.11-.08.2-.18.21-.75.09-1.37-.17-1.72-.69-.3-.44-.33-1-.09-1.45Z"/>
    <path d="m456.26,391.58c-.71-.51-1.55-.82-2.45-.91v-1.11c0-.42-.34-.76-.77-.76h-.12c-.43,0-.77.34-.77.76v1.11c-.9.09-1.75.4-2.45.91-.71.48-1.09,1.08-1.14,1.75-.06.85.42,1.62.85,2.01.7.66,1.64,1.05,2.74,1.14v1.55c0,.42.34.76.77.76h.12c.43,0,.77-.34.77-.76v-1.55c1.1-.09,2.04-.48,2.74-1.14.43-.39.91-1.17.85-2.01-.05-.68-.43-1.26-1.14-1.75Zm-2.45,1.84c0-.41,0-.75.04-1.08,0-.11.1-.2.21-.21h.07c.8,0,1.4.28,1.68.79.25.45.22,1.01-.09,1.45-.34.52-.97.77-1.72.69-.1,0-.18-.1-.18-.21,0-.27,0-.56,0-.85,0-.2,0-.39,0-.59Zm-3.66-.49c.27-.51.87-.79,1.67-.79h.07c.12,0,.21.1.22.21.03.33.04.69.04,1.08,0,.2,0,.4,0,.6,0,.28,0,.57,0,.84,0,.11-.08.2-.18.21-.75.09-1.37-.17-1.72-.69-.3-.44-.33-1-.09-1.45Z"/>
    <path class="cls-10" d="m464.11,367.25c0-.51.31-.83.7-.83h3.1c0-3.56,0-32.06,0-32.06l-2.62,2.58s-1.09-1.05-.5-1.87c.86-1.18,4.09-3.95,4.09-3.95,0,0,3.38,3.01,4.06,3.95.61.82-.47,1.87-.47,1.87l-2.65-2.72s.01,29.73.01,32.2h1.7c0-1.81-.01-27.07-.01-27.07,0-.54.43-.97.96-.97s.96.43.96.97c0,0,0,24.18,0,27.07h3.1c.4,0,.73.28.73.83,0,.55-.33.75-.73.75h-11.73c-.39,0-.7-.24-.7-.75Z"/>
    <path class="cls-10" d="m637.57,331.88c0,.51-.31.83-.7.83h-3.1v32.06l2.62-2.58s1.09,1.05.5,1.87c-.86,1.18-4.09,3.95-4.09,3.95,0,0-3.38-3.01-4.06-3.95-.61-.82.47-1.87.47-1.87l2.65,2.72s-.01-29.73-.01-32.2h-1.7c0,1.81.01,27.07.01,27.07,0,.54-.43.97-.96.97s-.96-.43-.96-.97v-27.07h-3.1c-.4,0-.73-.28-.73-.83s.33-.75.73-.75h11.73c.39,0,.7.24.7.75Z"/>
    <path class="cls-7" d="m545.74,336.69l-2.65-2.72v32.81c.01.54-.42.97-.95.97-.53,0-.96-.43-.96-.97v-32.67s-2.62,2.58-2.62,2.58c0,0-1.09-1.05-.5-1.87.86-1.18,4.09-3.95,4.09-3.95,0,0,3.38,3.01,4.06,3.95.61.82-.47,1.87-.47,1.87Z"/>
    <path class="cls-7" d="m456.24,336.69l-2.65-2.72v32.81c.01.54-.42.97-.95.97-.53,0-.96-.43-.96-.97v-32.67s-2.62,2.58-2.62,2.58c0,0-1.09-1.05-.5-1.87.86-1.18,4.09-3.95,4.09-3.95,0,0,3.38,3.01,4.06,3.95.61.82-.47,1.87-.47,1.87Z"/>
  </g>
  <g>
    <path class="cls-4" d="m550.66,205.47c-.5,2.51-1.03,3.37-3.39,3.82-.04,0-.07.04-.08.07v3.6c0,.22-.1.44-.25.6-.16.16-.36.24-.59.24s-.43-.09-.61-.24c-.16-.16-.24-.38-.24-.6v-3.6s-.05-.06-.09-.07c-2.35-.45-2.88-1.31-3.38-3.82-.08-.36-.04-.65.12-.83.17-.21.42-.24.56-.24.24,0,.43.22.56.45.13.23.2.47.21.54.25,1.71.73,2.29,1.85,2.29h.09s.07-.02.09-.06v-3.05c.12-.28.2-.48.31-.6.07-.06.15-.1.23-.13.05-.02.1-.03.14-.04.11-.02.24-.02.33,0,.05,0,.1.02.15.04.07,0,.15.06.22.13.12.12.21.31.3.6v.03s.02.03.02.05v2.94s0,.02,0,.04c0,.03.05.05.09.05,1.2.04,1.68-.54,1.93-2.29.03-.13.28-.99.76-.99h0c.14,0,.39.03.56.24.15.19.19.47.12.83Z"/>
    <path class="cls-4" d="m560.89,205.47c-.5,2.51-1.03,3.37-3.39,3.82-.04,0-.07.04-.08.07v3.6c0,.22-.1.44-.25.6s-.36.24-.59.24-.43-.09-.61-.24c-.16-.16-.24-.38-.24-.6v-3.6s-.05-.06-.09-.07c-2.35-.45-2.88-1.31-3.38-3.82-.08-.36-.04-.65.12-.83.17-.21.42-.24.56-.24.24,0,.43.22.56.45.13.23.2.47.21.54.25,1.71.73,2.29,1.85,2.29h.09s.07-.02.09-.06v-3.05c.12-.28.2-.48.31-.6.07-.06.15-.1.23-.13.05-.02.1-.03.14-.04.11-.02.24-.02.33,0,.05,0,.1.02.15.04.07,0,.15.06.22.13.12.12.21.31.3.6v.03s.02.03.02.05v2.94s0,.02,0,.04c0,.03.05.05.09.05,1.2.04,1.68-.54,1.93-2.29.03-.13.28-.99.76-.99h0c.14,0,.39.03.56.24.15.19.19.47.12.83Z"/>
    <path class="cls-4" d="m632.67,212.45c.06-.29,1.97-5.54,3.02-7.94.32-.73.61-.72.74-.72s.42,0,.74.72c1.05,2.4,2.96,7.64,3.02,7.94.23,1-.08,1.16-.44,1.3-.28.13-.86.02-1.12-.7-.16-.42-2.2-5.86-2.2-5.86,0,0-2.05,5.44-2.2,5.86-.25.72-.83.82-1.12.7-.36-.15-.67-.3-.44-1.3Z"/>
    <path class="cls-4" d="m642,212.45c.06-.29,1.97-5.54,3.02-7.94.32-.73.61-.72.74-.72s.42,0,.74.72c1.05,2.4,2.96,7.64,3.02,7.94.23,1-.08,1.16-.44,1.3-.28.13-.86.02-1.12-.7-.16-.42-2.2-5.86-2.2-5.86,0,0-2.05,5.44-2.2,5.86-.25.72-.83.82-1.12.7-.36-.15-.67-.3-.44-1.3Z"/>
    <path class="cls-7" d="m448.29,182.31v-.13c0-.4.33-.72.72-.72h3.1s0-32.06,0-32.06l-2.62,2.58s-1.09-1.05-.5-1.87c.86-1.18,4.09-3.95,4.09-3.95,0,0,3.38,3.01,4.06,3.95.61.82-.47,1.87-.47,1.87l-2.65-2.72v32.2s3.11,0,3.11,0c.4,0,.73.32.73.72v.13c0,.4-.33.73-.73.73h-8.12c-.39,0-.72-.33-.72-.73Z"/>
    <path class="cls-10" d="m478.35,146.91c0,.51-.31.83-.7.83h-3.1v32.06l2.62-2.58s1.09,1.05.5,1.87c-.86,1.18-4.09,3.95-4.09,3.95,0,0-3.38-3.01-4.06-3.95-.61-.82.47-1.87.47-1.87l2.65,2.72s-.01-29.73-.01-32.2h-1.7c0,1.81.01,27.07.01,27.07,0,.54-.43.97-.96.97s-.96-.43-.96-.97v-27.07h-3.1c-.4,0-.73-.28-.73-.83s.33-.75.73-.75h11.73c.39,0,.7.24.7.75Z"/>
    <path d="m469.83,206.58c-.71-.51-1.55-.82-2.45-.91v-1.11c0-.42-.34-.76-.77-.76h-.12c-.43,0-.77.34-.77.76v1.11c-.9.09-1.75.4-2.45.91-.71.48-1.09,1.08-1.14,1.75-.06.85.42,1.62.85,2.01.7.66,1.64,1.05,2.74,1.14v1.55c0,.42.34.76.77.76h.12c.43,0,.77-.34.77-.76v-1.55c1.1-.09,2.04-.48,2.74-1.14.43-.39.91-1.17.85-2.01-.05-.68-.43-1.26-1.14-1.75Zm-2.45,1.84c0-.41,0-.75.04-1.08,0-.11.1-.2.21-.21h.07c.8,0,1.4.28,1.68.79.25.45.22,1.01-.09,1.45-.34.52-.97.77-1.72.69-.1,0-.18-.1-.18-.21,0-.27,0-.56,0-.85,0-.2,0-.39,0-.59Zm-3.66-.49c.27-.51.87-.79,1.67-.79h.07c.12,0,.21.1.22.21.03.33.04.69.04,1.08,0,.2,0,.4,0,.6,0,.28,0,.57,0,.84,0,.11-.08.2-.18.21-.75.09-1.37-.17-1.72-.69-.3-.44-.33-1-.09-1.45Z"/>
    <path d="m459.07,206.58c-.71-.51-1.55-.82-2.45-.91v-1.11c0-.42-.34-.76-.77-.76h-.12c-.43,0-.77.34-.77.76v1.11c-.9.09-1.75.4-2.45.91-.71.48-1.09,1.08-1.14,1.75-.06.85.42,1.62.85,2.01.7.66,1.64,1.05,2.74,1.14v1.55c0,.42.34.76.77.76h.12c.43,0,.77-.34.77-.76v-1.55c1.1-.09,2.04-.48,2.74-1.14.43-.39.91-1.17.85-2.01-.05-.68-.43-1.26-1.14-1.75Zm-2.45,1.84c0-.41,0-.75.04-1.08,0-.11.1-.2.21-.21h.07c.8,0,1.4.28,1.68.79.25.45.22,1.01-.09,1.45-.34.52-.97.77-1.72.69-.1,0-.18-.1-.18-.21,0-.27,0-.56,0-.85,0-.2,0-.39,0-.59Zm-3.66-.49c.27-.51.87-.79,1.67-.79h.07c.12,0,.21.1.22.21.03.33.04.69.04,1.08,0,.2,0,.4,0,.6,0,.28,0,.57,0,.84,0,.11-.08.2-.18.21-.75.09-1.37-.17-1.72-.69-.3-.44-.33-1-.09-1.45Z"/>
    <rect class="cls-4" x="472.32" y="207.85" width="6.95" height="1.9" rx=".95" ry=".95"/>
    <path class="cls-7" d="m538.29,182.31v-.13c0-.4.33-.72.72-.72h3.1s0-32.06,0-32.06l-2.62,2.58s-1.09-1.05-.5-1.87c.86-1.18,4.09-3.95,4.09-3.95,0,0,3.38,3.01,4.06,3.95.61.82-.47,1.87-.47,1.87l-2.65-2.72v32.2s3.11,0,3.11,0c.4,0,.73.32.73.72v.13c0,.4-.33.73-.73.73h-8.12c-.39,0-.72-.33-.72-.73Z"/>
    <path class="cls-10" d="m554.11,182.28c0-.51.31-.83.7-.83h3.1c0-3.56,0-32.06,0-32.06l-2.62,2.58s-1.09-1.05-.5-1.87c.86-1.18,4.09-3.95,4.09-3.95,0,0,3.38,3.01,4.06,3.95.61.82-.47,1.87-.47,1.87l-2.65-2.72s.01,29.73.01,32.2h1.7c0-1.81-.01-27.07-.01-27.07,0-.54.43-.97.96-.97.53,0,.96.43.96.97,0,0,0,24.18,0,27.07h3.1c.4,0,.73.28.73.83,0,.55-.33.75-.73.75h-11.73c-.39,0-.7-.24-.7-.75Z"/>
    <rect class="cls-4" x="562.04" y="207.85" width="6.95" height="1.9" rx=".95" ry=".95"/>
    <path class="cls-7" d="m623.06,152.23h.13c.4,0,.72.33.72.72v3.1s32.06,0,32.06,0l-2.58-2.62s1.05-1.09,1.87-.5c1.18.86,3.95,4.09,3.95,4.09,0,0-3.01,3.38-3.95,4.06-.82.61-1.87-.47-1.87-.47l2.72-2.65h-32.2v3.11c0,.4-.32.73-.72.73h-.13c-.4,0-.73-.33-.73-.73v-8.12c0-.39.33-.72.73-.72Z"/>
    <path class="cls-10" d="m638.95,146.91c0,.51-.31.83-.7.83h-3.1v32.06l2.62-2.58s1.09,1.05.5,1.87c-.86,1.18-4.09,3.95-4.09,3.95,0,0-3.38-3.01-4.06-3.95-.61-.82.47-1.87.47-1.87l2.65,2.72s-.01-29.73-.01-32.2h-1.7c0,1.81.01,27.07.01,27.07,0,.54-.43.97-.96.97s-.96-.43-.96-.97v-27.07h-3.1c-.4,0-.73-.28-.73-.83s.33-.75.73-.75h11.73c.39,0,.7.24.7.75Z"/>
    <rect class="cls-4" x="651.05" y="207.85" width="6.95" height="1.9" rx=".95" ry=".95"/>
  </g>
  <text class="cls-5" transform="translate(472.32 89.67)"><tspan x="0" y="0">Type 4 → 5</tspan></text>
  <g>
    <circle class="cls-4" cx="87.33" cy="299.12" r="2.5"/>
    <circle class="cls-4" cx="117.33" cy="269.12" r="2.5"/>
    <circle class="cls-4" cx="87.33" cy="239.12" r="2.5"/>
    <circle class="cls-4" cx="57.33" cy="269.12" r="2.5"/>
    <circle class="cls-4" cx="87.33" cy="269.12" r="1.12"/>
  </g>
  <g>
    <circle class="cls-4" cx="177.33" cy="299.12" r="2.5"/>
    <circle class="cls-4" cx="207.33" cy="269.12" r="2.5"/>
    <circle class="cls-4" cx="177.33" cy="239.12" r="2.5"/>
    <circle class="cls-4" cx="147.33" cy="269.12" r="2.5"/>
    <circle class="cls-4" cx="177.33" cy="269.12" r="1.12"/>
  </g>
  <g>
    <circle class="cls-4" cx="267.33" cy="299.12" r="2.5"/>
    <circle class="cls-4" cx="297.33" cy="269.12" r="2.5"/>
    <circle class="cls-4" cx="267.33" cy="239.12" r="2.5"/>
    <circle class="cls-4" cx="237.33" cy="269.12" r="2.5"/>
    <circle class="cls-4" cx="267.33" cy="269.12" r="1.12"/>
  </g>
  <g>
    <circle class="cls-4" cx="177" cy="473.99" r="2.5"/>
    <circle class="cls-4" cx="207" cy="443.99" r="2.5"/>
    <circle class="cls-4" cx="177" cy="413.99" r="2.5"/>
    <circle class="cls-4" cx="147" cy="443.99" r="2.5"/>
    <circle class="cls-4" cx="177" cy="443.99" r="1.12"/>
  </g>
  <g>
    <circle class="cls-4" cx="87" cy="473.99" r="2.5"/>
    <circle class="cls-4" cx="117" cy="443.99" r="2.5"/>
    <circle class="cls-4" cx="87" cy="413.99" r="2.5"/>
    <circle class="cls-4" cx="57" cy="443.99" r="2.5"/>
    <circle class="cls-4" cx="87" cy="443.99" r="1.12"/>
  </g>
  <g>
    <circle class="cls-4" cx="267" cy="473.99" r="2.5"/>
    <circle class="cls-4" cx="297" cy="443.99" r="2.5"/>
    <circle class="cls-4" cx="267" cy="413.99" r="2.5"/>
    <circle class="cls-4" cx="237" cy="443.99" r="2.5"/>
    <circle class="cls-4" cx="267" cy="443.99" r="1.12"/>
  </g>
  <g>
    <circle class="cls-4" cx="461.05" cy="194.3" r="2.5"/>
    <circle class="cls-4" cx="491.05" cy="164.3" r="2.5"/>
    <circle class="cls-4" cx="461.05" cy="134.3" r="2.5"/>
    <circle class="cls-4" cx="431.05" cy="164.3" r="2.5"/>
    <circle class="cls-4" cx="461.05" cy="164.3" r="1.12"/>
  </g>
  <g>
    <circle class="cls-4" cx="551.05" cy="194.3" r="2.5"/>
    <circle class="cls-4" cx="581.05" cy="164.3" r="2.5"/>
    <circle class="cls-4" cx="551.05" cy="134.3" r="2.5"/>
    <circle class="cls-4" cx="521.05" cy="164.3" r="2.5"/>
    <circle class="cls-4" cx="551.05" cy="164.3" r="1.12"/>
  </g>
  <g>
    <circle class="cls-4" cx="641.05" cy="194.3" r="2.5"/>
    <circle class="cls-4" cx="671.05" cy="164.3" r="2.5"/>
    <circle class="cls-4" cx="641.05" cy="134.3" r="2.5"/>
    <circle class="cls-4" cx="611.05" cy="164.3" r="2.5"/>
    <circle class="cls-4" cx="641.05" cy="164.3" r="1.12"/>
  </g>
  <g>
    <circle class="cls-4" cx="461.05" cy="379.3" r="2.5"/>
    <circle class="cls-4" cx="491.05" cy="349.3" r="2.5"/>
    <circle class="cls-4" cx="461.05" cy="319.3" r="2.5"/>
    <circle class="cls-4" cx="431.05" cy="349.3" r="2.5"/>
    <circle class="cls-4" cx="461.05" cy="349.3" r="1.12"/>
  </g>
  <g>
    <circle class="cls-4" cx="551.05" cy="379.3" r="2.5"/>
    <circle class="cls-4" cx="581.05" cy="349.3" r="2.5"/>
    <circle class="cls-4" cx="551.05" cy="319.3" r="2.5"/>
    <circle class="cls-4" cx="521.05" cy="349.3" r="2.5"/>
    <circle class="cls-4" cx="551.05" cy="349.3" r="1.12"/>
  </g>
  <g>
    <circle class="cls-4" cx="641.05" cy="379.3" r="2.5"/>
    <circle class="cls-4" cx="671.05" cy="349.3" r="2.5"/>
    <circle class="cls-4" cx="641.05" cy="319.3" r="2.5"/>
    <circle class="cls-4" cx="611.05" cy="349.3" r="2.5"/>
    <circle class="cls-4" cx="641.05" cy="349.3" r="1.12"/>
  </g>
  <g>
    <circle class="cls-4" cx="461.05" cy="564.3" r="2.5"/>
    <circle class="cls-4" cx="491.05" cy="534.3" r="2.5"/>
    <circle class="cls-4" cx="461.05" cy="504.3" r="2.5"/>
    <circle class="cls-4" cx="431.05" cy="534.3" r="2.5"/>
    <circle class="cls-4" cx="461.05" cy="534.3" r="1.12"/>
  </g>
  <g>
    <circle class="cls-4" cx="551.05" cy="564.3" r="2.5"/>
    <circle class="cls-4" cx="581.05" cy="534.3" r="2.5"/>
    <circle class="cls-4" cx="551.05" cy="504.3" r="2.5"/>
    <circle class="cls-4" cx="521.05" cy="534.3" r="2.5"/>
    <circle class="cls-4" cx="551.05" cy="534.3" r="1.12"/>
  </g>
  <g>
    <circle class="cls-4" cx="641.05" cy="564.3" r="2.5"/>
    <circle class="cls-4" cx="671.05" cy="534.3" r="2.5"/>
    <circle class="cls-4" cx="641.05" cy="504.3" r="2.5"/>
    <circle class="cls-4" cx="611.05" cy="534.3" r="2.5"/>
    <circle class="cls-4" cx="641.05" cy="534.3" r="1.12"/>
  </g>
  <g>
    <rect class="cls-10" x="76.83" y="253.62" width="25" height="2.5" rx=".99" ry=".99" transform="translate(344.2 165.54) rotate(90)"/>
    <rect class="cls-7" x="72.83" y="253.62" width="25" height="2.5" rx=".99" ry=".99" transform="translate(340.2 169.54) rotate(90)"/>
    <rect class="cls-10" x="76.83" y="456.86" width="25" height="2.5" rx=".99" ry=".99" transform="translate(-368.78 547.43) rotate(-90)"/>
    <rect class="cls-7" x="164.5" y="456.86" width="25" height="2.5" rx=".99" ry=".99" transform="translate(-281.11 635.11) rotate(-90)"/>
    <rect class="cls-10" x="164.5" y="428.62" width="25" height="2.5" rx=".99" ry=".99" transform="translate(606.87 252.87) rotate(90)"/>
    <rect class="cls-7" x="254.5" y="456.86" width="25" height="2.5" rx=".99" ry=".99" transform="translate(-191.11 725.11) rotate(-90)"/>
    <rect class="cls-10" x="268.62" y="442.74" width="25" height="2.5" rx=".99" ry=".99" transform="translate(562.24 887.98) rotate(-180)"/>
    <rect class="cls-7" x="72.83" y="456.86" width="25" height="2.5" rx=".99" ry=".99" transform="translate(-372.78 543.43) rotate(-90)"/>
    <rect class="cls-7" x="164.83" y="253.62" width="25" height="2.5" rx=".99" ry=".99" transform="translate(432.2 77.54) rotate(90)"/>
    <rect class="cls-10" x="164.83" y="282.12" width="25" height="2.5" rx=".99" ry=".99" transform="translate(460.7 106.04) rotate(90)"/>
    <rect class="cls-7" x="254.83" y="253.62" width="25" height="2.5" rx=".99" ry=".99" transform="translate(522.2 -12.46) rotate(90)"/>
    <rect class="cls-10" x="269.08" y="267.87" width="25" height="2.5" rx=".99" ry=".99"/>
    <g>
      <rect class="cls-10" x="540.55" y="148.8" width="25" height="2.5" rx=".99" ry=".99" transform="translate(703.1 -403) rotate(90)"/>
      <rect class="cls-7" x="536.55" y="148.8" width="25" height="2.5" rx=".99" ry=".99" transform="translate(699.1 -399) rotate(90)"/>
      <rect class="cls-10" x="450.55" y="333.8" width="25" height="2.5" rx=".99" ry=".99" transform="translate(798.1 -128) rotate(90)"/>
      <rect class="cls-7" x="538.55" y="333.8" width="25" height="2.5" rx=".99" ry=".99" transform="translate(886.1 -216) rotate(90)"/>
      <rect class="cls-10" x="538.55" y="362.3" width="25" height="2.5" rx=".99" ry=".99" transform="translate(187.5 914.6) rotate(-90)"/>
      <rect class="cls-7" x="642.8" y="348.05" width="25" height="2.5" rx=".99" ry=".99" transform="translate(1310.6 698.59) rotate(180)"/>
      <rect class="cls-10" x="628.55" y="362.3" width="25" height="2.5" rx=".99" ry=".99" transform="translate(277.5 1004.6) rotate(-90)"/>
      <rect class="cls-7" x="446.55" y="333.8" width="25" height="2.5" rx=".99" ry=".99" transform="translate(794.1 -124) rotate(90)"/>
      <rect class="cls-7" x="448.55" y="148.8" width="25" height="2.5" rx=".99" ry=".99" transform="translate(611.1 -311) rotate(90)"/>
      <rect class="cls-10" x="448.55" y="177.3" width="25" height="2.5" rx=".99" ry=".99" transform="translate(639.6 -282.5) rotate(90)"/>
      <rect class="cls-7" x="642.8" y="163.05" width="25" height="2.5" rx=".99" ry=".99" transform="translate(1310.6 328.59) rotate(180)"/>
      <rect class="cls-10" x="628.55" y="177.3" width="25" height="2.5" rx=".99" ry=".99" transform="translate(819.6 -462.5) rotate(90)"/>
      <rect class="cls-10" x="540.55" y="518.8" width="25" height="2.5" rx=".99" ry=".99" transform="translate(1073.1 -33) rotate(90)"/>
      <rect class="cls-7" x="536.55" y="518.8" width="25" height="2.5" rx=".99" ry=".99" transform="translate(1069.1 -29) rotate(90)"/>
      <rect class="cls-7" x="448.55" y="518.8" width="25" height="2.5" rx=".99" ry=".99" transform="translate(981.1 59) rotate(90)"/>
      <rect class="cls-10" x="448.55" y="547.3" width="25" height="2.5" rx=".99" ry=".99" transform="translate(1009.6 87.5) rotate(90)"/>
      <rect class="cls-7" x="642.8" y="533.05" width="25" height="2.5" rx=".99" ry=".99" transform="translate(1310.6 1068.59) rotate(180)"/>
      <rect class="cls-10" x="628.55" y="547.3" width="25" height="2.5" rx=".99" ry=".99" transform="translate(1189.6 -92.5) rotate(90)"/>
    </g>
  </g>
</svg>